<?xml version="1.0" encoding="UTF-8" standalone="no"?>
<svg
   viewBox="0 0 192 192"
   version="1.1"
   id="svg3"
   sodipodi:docname="8-bit_wonders (better).svg"
   inkscape:version="1.2.2 (b0a8486541, 2022-12-01)"
   inkscape:export-filename="8-bit_wonders (better).png"
   inkscape:export-xdpi="96"
   inkscape:export-ydpi="96"
   xmlns:inkscape="http://www.inkscape.org/namespaces/inkscape"
   xmlns:sodipodi="http://sodipodi.sourceforge.net/DTD/sodipodi-0.dtd"
   xmlns="http://www.w3.org/2000/svg"
   xmlns:svg="http://www.w3.org/2000/svg">
  <defs
     id="defs1">
    <mask
       maskUnits="userSpaceOnUse"
       id="mask42649">
      <rect
         class="a"
         x="20"
         y="20"
         width="152"
         height="152"
         rx="10"
         id="rect42651"
         style="display:inline;opacity:1;fill:#ffffff;fill-opacity:1;stroke:#ffffff"
         ry="10" />
    </mask>
  </defs>
  <sodipodi:namedview
     id="namedview3"
     pagecolor="#505050"
     bordercolor="#ffffff"
     borderopacity="1"
     inkscape:showpageshadow="0"
     inkscape:pageopacity="0"
     inkscape:pagecheckerboard="1"
     inkscape:deskcolor="#505050"
     inkscape:zoom="3.6203867"
     inkscape:cx="64.357766"
     inkscape:cy="88.250241"
     inkscape:window-width="1920"
     inkscape:window-height="1048"
     inkscape:window-x="0"
     inkscape:window-y="0"
     inkscape:window-maximized="1"
     inkscape:current-layer="svg3"
     showgrid="false" />
  <path
     id="rect347"
     style="fill:#bd9aff;stroke-width:5;fill-opacity:1"
     class="UnoptimicedTransforms"
     d="M 19.5 19.5 L 19.5 31.269531 L 31.269531 31.269531 L 43.039062 31.269531 L 54.806641 31.269531 L 66.576172 31.269531 L 78.345703 31.269531 L 90.113281 31.269531 L 101.88281 31.269531 L 113.65234 31.269531 L 125.42188 31.269531 L 137.18945 31.269531 L 148.95898 31.269531 L 160.72852 31.269531 L 172.49805 31.269531 L 172.49805 19.5 L 160.72852 19.5 L 148.95898 19.5 L 137.18945 19.5 L 125.42188 19.5 L 113.65234 19.5 L 101.88281 19.5 L 90.113281 19.5 L 78.345703 19.5 L 66.576172 19.5 L 54.806641 19.5 L 43.039062 19.5 L 43.037109 19.5 L 31.269531 19.5 L 19.5 19.5 z M 19.5 160.72852 L 19.5 172.49805 L 31.269531 172.49805 L 43.039062 172.49805 L 54.806641 172.49805 L 66.576172 172.49805 L 78.345703 172.49805 L 90.113281 172.49805 L 101.88281 172.49805 L 113.65234 172.49805 L 125.42188 172.49805 L 137.18945 172.49805 L 148.95898 172.49805 L 160.72852 172.49805 L 172.49805 172.49805 L 172.49805 160.72852 L 160.72852 160.72852 L 148.95898 160.72852 L 137.18945 160.72852 L 125.42188 160.72852 L 113.65234 160.72852 L 101.88281 160.72852 L 90.113281 160.72852 L 78.345703 160.72852 L 66.576172 160.72852 L 54.806641 160.72852 L 43.039062 160.72852 L 43.037109 160.72852 L 31.269531 160.72852 L 19.5 160.72852 z "
     inkscape:label="light-purple"
     mask="url(#mask42649)" />
  <path
     id="rect371"
     style="fill:#ff837d;stroke-width:5;fill-opacity:1"
     class="UnoptimicedTransforms"
     d="M 19.5 31.269531 L 19.5 43.039062 L 31.269531 43.039062 L 43.039062 43.039062 L 54.806641 43.039062 L 66.576172 43.039062 L 78.345703 43.039062 L 90.113281 43.039062 L 101.88281 43.039062 L 113.65234 43.039062 L 125.42188 43.039062 L 137.18945 43.039062 L 148.95898 43.039062 L 160.72852 43.039062 L 172.49805 43.039062 L 172.49805 31.269531 L 160.72852 31.269531 L 148.95898 31.269531 L 137.18945 31.269531 L 125.42188 31.269531 L 113.65234 31.269531 L 101.88281 31.269531 L 90.113281 31.269531 L 78.345703 31.269531 L 66.576172 31.269531 L 54.806641 31.269531 L 43.039062 31.269531 L 43.037109 31.269531 L 31.269531 31.269531 L 19.5 31.269531 z "
     inkscape:label="red" />
  <path
     id="rect397"
     style="fill:#8c72bd;stroke-width:5;fill-opacity:1"
     class="UnoptimicedTransforms"
     d="M 19.5 43.037109 L 19.5 54.806641 L 19.5 66.576172 L 31.269531 66.576172 L 43.037109 66.576172 L 43.037109 78.345703 L 31.269531 78.345703 L 19.5 78.345703 L 19.5 90.113281 L 31.269531 90.113281 L 43.037109 90.113281 L 43.037109 101.88281 L 31.269531 101.88281 L 19.5 101.88281 L 19.5 113.65234 L 31.269531 113.65234 L 43.037109 113.65234 L 43.037109 125.42188 L 31.269531 125.42188 L 19.5 125.42188 L 19.5 137.18945 L 19.5 148.95898 L 31.269531 148.95898 L 43.039062 148.95898 L 54.806641 148.95898 L 66.576172 148.95898 L 78.345703 148.95898 L 90.113281 148.95898 L 101.88281 148.95898 L 113.65234 148.95898 L 125.42188 148.95898 L 137.18945 148.95898 L 148.95898 148.95898 L 160.72852 148.95898 L 172.49805 148.95898 L 172.49805 137.18945 L 172.49805 125.42188 L 160.72852 125.42188 L 148.95898 125.42188 L 148.95898 113.65234 L 160.72852 113.65234 L 172.49805 113.65234 L 172.49805 101.88281 L 160.72852 101.88281 L 148.95898 101.88281 L 148.95898 90.113281 L 160.72852 90.113281 L 172.49805 90.113281 L 172.49805 78.345703 L 160.72852 78.345703 L 148.95898 78.345703 L 148.95898 66.576172 L 160.72852 66.576172 L 172.49805 66.576172 L 172.49805 54.806641 L 172.49805 43.037109 L 160.72852 43.037109 L 148.95898 43.037109 L 137.18945 43.037109 L 125.42188 43.037109 L 113.65234 43.037109 L 101.88281 43.037109 L 90.113281 43.037109 L 78.345703 43.037109 L 66.576172 43.037109 L 54.806641 43.037109 L 43.039062 43.037109 L 43.037109 43.037109 L 31.269531 43.037109 L 19.5 43.037109 z M 66.576172 54.806641 L 78.345703 54.806641 L 90.113281 54.806641 L 101.88281 54.806641 L 113.65234 54.806641 L 125.42188 54.806641 L 125.42188 66.576172 L 137.18945 66.576172 L 137.18945 78.345703 L 137.18945 90.113281 L 125.42188 90.113281 L 125.42188 101.88281 L 137.18945 101.88281 L 137.18945 113.65234 L 137.18945 125.42188 L 125.42188 125.42188 L 125.42188 137.18945 L 113.65234 137.18945 L 101.88281 137.18945 L 90.113281 137.18945 L 78.345703 137.18945 L 66.576172 137.18945 L 66.576172 125.42188 L 54.806641 125.42188 L 54.806641 113.65234 L 54.806641 101.88281 L 66.576172 101.88281 L 66.576172 90.113281 L 54.806641 90.113281 L 54.806641 78.345703 L 54.806641 66.576172 L 66.576172 66.576172 L 66.576172 54.806641 z M 78.345703 66.576172 L 78.345703 78.345703 L 78.345703 90.113281 L 90.113281 90.113281 L 101.88281 90.113281 L 113.65234 90.113281 L 113.65234 78.345703 L 113.65234 66.576172 L 101.88281 66.576172 L 90.113281 66.576172 L 78.345703 66.576172 z M 78.345703 101.88281 L 78.345703 113.65234 L 78.345703 125.42188 L 90.113281 125.42188 L 101.88281 125.42188 L 113.65234 125.42188 L 113.65234 113.65234 L 113.65234 101.88281 L 101.88281 101.88281 L 90.113281 101.88281 L 78.345703 101.88281 z "
     inkscape:label="dark-pruple" />
  <path
     id="rect431"
     style="fill:#ffffff;stroke-width:5"
     class="UnoptimicedTransforms"
     d="M 66.576172 54.806641 L 66.576172 66.576172 L 54.806641 66.576172 L 54.806641 78.345703 L 54.806641 90.113281 L 66.576172 90.113281 L 66.576172 101.88281 L 54.806641 101.88281 L 54.806641 113.65234 L 54.806641 125.42188 L 66.576172 125.42188 L 66.576172 137.18945 L 78.345703 137.18945 L 90.113281 137.18945 L 101.88281 137.18945 L 113.65234 137.18945 L 125.42188 137.18945 L 125.42188 125.42188 L 137.18945 125.42188 L 137.18945 113.65234 L 137.18945 101.88281 L 125.42188 101.88281 L 125.42188 90.113281 L 137.18945 90.113281 L 137.18945 78.345703 L 137.18945 66.576172 L 125.42188 66.576172 L 125.42188 54.806641 L 113.65234 54.806641 L 101.88281 54.806641 L 90.113281 54.806641 L 78.345703 54.806641 L 66.576172 54.806641 z M 78.345703 66.576172 L 90.113281 66.576172 L 101.88281 66.576172 L 113.65234 66.576172 L 113.65234 78.345703 L 113.65234 90.113281 L 101.88281 90.113281 L 90.113281 90.113281 L 78.345703 90.113281 L 78.345703 78.345703 L 78.345703 66.576172 z M 78.345703 101.88281 L 90.113281 101.88281 L 101.88281 101.88281 L 113.65234 101.88281 L 113.65234 113.65234 L 113.65234 125.42188 L 101.88281 125.42188 L 90.113281 125.42188 L 78.345703 125.42188 L 78.345703 113.65234 L 78.345703 101.88281 z "
     inkscape:label="eight" />
  <path
     id="rect449"
     style="fill:#f8c18c;stroke-width:5;fill-opacity:1"
     class="UnoptimicedTransforms"
     d="M 19.5 66.576172 L 19.5 78.345703 L 31.269531 78.345703 L 43.039062 78.345703 L 43.039062 66.576172 L 31.269531 66.576172 L 19.5 66.576172 z M 148.95898 66.576172 L 148.95898 78.345703 L 160.72852 78.345703 L 172.49805 78.345703 L 172.49805 66.576172 L 160.72852 66.576172 L 148.95898 66.576172 z "
     inkscape:label="orange" />
  <path
     id="rect501"
     style="fill:#f9de81;stroke-width:5;fill-opacity:1"
     class="UnoptimicedTransforms"
     d="M 19.5 90.113281 L 19.5 101.88281 L 31.269531 101.88281 L 43.039062 101.88281 L 43.039062 90.113281 L 31.269531 90.113281 L 19.5 90.113281 z M 148.95898 90.113281 L 148.95898 101.88281 L 160.72852 101.88281 L 172.49805 101.88281 L 172.49805 90.113281 L 160.72852 90.113281 L 148.95898 90.113281 z "
     inkscape:label="yellow" />
  <path
     id="rect553"
     style="fill:#98dc9a;stroke-width:5;fill-opacity:1"
     class="UnoptimicedTransforms"
     d="M 19.5 113.65234 L 19.5 125.42188 L 31.269531 125.42188 L 43.039062 125.42188 L 43.039062 113.65234 L 31.269531 113.65234 L 19.5 113.65234 z M 148.95898 113.65234 L 148.95898 125.42188 L 160.72852 125.42188 L 172.49805 125.42188 L 172.49805 113.65234 L 160.72852 113.65234 L 148.95898 113.65234 z "
     inkscape:label="green" />
  <path
     id="rect631"
     style="fill:#9abeff;stroke-width:5;fill-opacity:1"
     class="UnoptimicedTransforms"
     d="M 19.5 148.95898 L 19.5 160.72852 L 31.269531 160.72852 L 43.039062 160.72852 L 54.806641 160.72852 L 66.576172 160.72852 L 78.345703 160.72852 L 90.113281 160.72852 L 101.88281 160.72852 L 113.65234 160.72852 L 125.42188 160.72852 L 137.18945 160.72852 L 148.95898 160.72852 L 160.72852 160.72852 L 172.49805 160.72852 L 172.49805 148.95898 L 160.72852 148.95898 L 148.95898 148.95898 L 137.18945 148.95898 L 125.42188 148.95898 L 113.65234 148.95898 L 101.88281 148.95898 L 90.113281 148.95898 L 78.345703 148.95898 L 66.576172 148.95898 L 54.806641 148.95898 L 43.039062 148.95898 L 43.037109 148.95898 L 31.269531 148.95898 L 19.5 148.95898 z "
     inkscape:label="blue" />
</svg>
