<?xml version="1.0" encoding="UTF-8"?>
<svg version="1.1" viewBox="0 0 192 192" xmlns="http://www.w3.org/2000/svg">
 <rect class="a" x="20" y="20" width="152" height="152" rx="10" style="fill:#fff"/>
 <path d="m96.282 82.69c-3.8188 0-7.6374 1.448-10.533 4.3432l-5.5989 5.5989-5.4719-5.4712 0.05855 0.0598c-2.7621-2.911-6.4668-4.4275-10.209-4.5257-3.7419-0.0982-7.5207 1.2218-10.432 3.9838-5.822 5.5241-6.066 14.819-0.54189 20.641l0.02864 0.0299 0.0299 0.0299c5.7904 5.7904 15.275 5.7904 21.065 0l5.5995-5.5995 5.4712 5.4712-0.05855-0.0598c5.5241 5.822 14.819 6.066 20.641 0.54189 5.822-5.5241 6.066-14.818 0.54189-20.64l-0.0293-0.0305-0.0293-0.0293c-2.8952-2.8952-6.7144-4.3432-10.533-4.3432zm0 6.3383c2.1597 0 4.3178 0.83123 5.9901 2.4871 3.1217 3.3224 2.9805 8.4497-0.33074 11.591-3.3215 3.1515-8.4717 3.0163-11.623-0.3052l-0.02927-0.0305-5.5005-5.5005-0.12831-0.12831 5.5995-5.5995c1.6765-1.6765 3.8493-2.5145 6.0225-2.5145zm-31.92 3e-3c2.0968 0.055 4.1726 0.91916 5.7484 2.5799l0.02868 0.0299 5.6288 5.6288-5.5989 5.5995c-3.3426 3.3426-8.6576 3.3491-12.013 0.0274-3.1219-3.3224-2.9812-8.4489 0.33012-11.591 1.6607-1.5758 3.7787-2.3298 5.8755-2.2747z" style="fill:#56595b;stroke-width:.31891"/>
 <path d="m78.163 90.109-5.0727 5.328 2.2548 2.2548 5.0727-5.328z" style="fill:#fff"/>
 <path d="m84.962 96.84-5.0551 5.3111 2.2548 2.2554 5.0551-5.3111z" style="fill:#fff"/>
 <path d="m128.75 92.595h-9.4688c-3.6239 6.7363-5.2604 13.823-4.9098 21.261h8.066c-0.17535-7.1454 1.9288-14.232 6.3125-21.261z" style="fill:#56595b"/>
 <path d="m107.18 80.058c2.8829 2.3964 4.914 5.2017 6.0934 8.0657l25.146-0.01 0.72342-8.056z" style="fill:#73ada4"/>
 <ellipse transform="rotate(32.64)" cx="162.09" cy="-3.9578" rx="3.6473" ry="4.181" style="fill:#73ada4"/>
 <ellipse transform="rotate(32.64)" cx="161.87" cy="-3.8299" rx="2.5418" ry="2.9138" style="fill:#fff"/>
 <path d="m136.87 80.058v-1.9147c-1.3329 0.18359-2.2112 0.82181-2.6348 1.9147l-0.0465 0.64263 2.4246 0.25675z" style="fill:#73ada4"/>
</svg>
