<?xml version="1.0" encoding="UTF-8"?>
<svg version="1.1" viewBox="0 0 192 192" xmlns="http://www.w3.org/2000/svg" xmlns:xlink="http://www.w3.org/1999/xlink">
 <defs>
  <linearGradient id="linearGradient2" x1="-203.25" x2="-172.37" y1="78.875" y2="111.6" gradientTransform="matrix(.59238 0 0 .59238 173.45 34.362)" gradientUnits="userSpaceOnUse">
   <stop style="stop-color:#8c72bd" offset="0"/>
   <stop style="stop-color:#ff837d" offset="1"/>
  </linearGradient>
  <linearGradient id="linearGradient13" x1="-172.37" x2="-55.43" y1="111.6" y2="89.454" gradientTransform="matrix(.59238 0 0 .59238 173.45 34.362)" gradientUnits="userSpaceOnUse">
   <stop style="stop-color:#9abeff" offset="0"/>
   <stop style="stop-color:#bd9aff" offset="1"/>
  </linearGradient>
 </defs>
 <rect class="a" x="20" y="20" width="152" height="152" rx="10" style="fill:#fff"/>
 <path d="m66.818 100.47h4.5222l-6.9276-19.243h-4.7467l-6.9276 19.243h4.5222l1.1867-3.6241h7.1841zm-7.2483-7.1521 2.4696-7.6332 2.4695 7.6332z" style="fill:url(#linearGradient2);stroke-linecap:round;stroke-width:17.494" aria-label="Access"/>
 <path d="m53.341 98.795 23.071-13.858-23.674 15.534-1.1322-1.2054z" style="fill:#fff"/>
 <path d="m79.069 100.73c3.8487 0 6.4786-2.245 7.0238-5.4523h-4.2335c-0.41694 1.0904-1.4753 1.796-2.7903 1.8281-1.764-0.032-3.0468-1.315-3.0468-3.0468s1.2829-3.0148 3.0468-3.0468c1.315 0.0321 2.3733 0.73766 2.7903 1.8281h4.2335c-0.54523-3.2072-3.1751-5.4523-7.0238-5.4523-4.2977 0-7.1521 2.8223-7.1521 6.671 0 3.8486 2.8544 6.671 7.1521 6.671zm15.908 0c3.8487 0 6.4786-2.245 7.0238-5.4523h-4.2335c-0.41694 1.0904-1.4753 1.796-2.7903 1.8281-1.764-0.032-3.0469-1.315-3.0469-3.0468s1.2829-3.0148 3.0469-3.0468c1.315 0.0321 2.3733 0.73766 2.7903 1.8281h4.2335c-0.54523-3.2072-3.1751-5.4523-7.0238-5.4523-4.2977 0-7.1521 2.8223-7.1521 6.671 0 3.8486 2.8544 6.671 7.1521 6.671zm22.707-6.7031c0-4.009-2.7582-6.671-6.8955-6.671s-7.0559 2.6941-7.0559 6.7031c0 4.009 2.8865 6.671 7.1842 6.671 3.56 0 5.9333-1.8922 6.5748-4.6825h-3.9449c-0.35279 1.0263-1.2829 1.6357-2.694 1.6357-1.8602 0-2.8224-1.1225-2.9827-2.9506h9.8141zm-6.8314-3.5279c1.3791 0 2.1809 0.64144 2.5978 1.764h-5.324c0.41694-1.0904 1.2829-1.764 2.7261-1.764zm13.823 10.231c2.8865 0 4.6505-1.764 4.6505-4.1694 0-2.5658-2.1168-3.5921-3.9449-4.2977-0.93009-0.38486-1.3791-0.5773-1.3791-1.0584 0-0.41694 0.32072-0.73766 1.0263-0.73766 0.83387 0 1.6036 0.44901 1.9885 0.93009l2.0526-2.3092c-0.96216-0.96216-2.5337-1.6998-4.3297-1.6998-2.9186 0-4.7787 1.9243-4.7787 4.1052 0 2.5658 2.5658 3.4317 4.0411 3.9769 1.1546 0.44901 1.5395 0.76974 1.5395 1.2187 0 0.51316-0.44901 0.8018-1.1225 0.8018s-1.5715-0.25657-2.1488-1.347l-3.0148 1.5074c0.76973 1.9885 3.1431 3.0789 5.4202 3.0789zm11.289 0c2.8865 0 4.6505-1.764 4.6505-4.1694 0-2.5658-2.1168-3.5921-3.9449-4.2977-0.93009-0.38486-1.3791-0.5773-1.3791-1.0584 0-0.41694 0.32072-0.73766 1.0263-0.73766 0.83388 0 1.6036 0.44901 1.9885 0.93009l2.0526-2.3092c-0.96216-0.96216-2.5337-1.6998-4.3297-1.6998-2.9186 0-4.7788 1.9243-4.7788 4.1052 0 2.5658 2.5658 3.4317 4.0411 3.9769 1.1546 0.44901 1.5395 0.76974 1.5395 1.2187 0 0.51316-0.44901 0.8018-1.1225 0.8018-0.67351 0-1.5715-0.25657-2.1488-1.347l-3.0148 1.5074c0.76973 1.9885 3.1431 3.0789 5.4202 3.0789z" style="fill:url(#linearGradient13);stroke-linecap:round;stroke-width:17.494" aria-label="Access"/>
 <text transform="skewX(-11.777)" x="138.53108" y="108.16634" style="fill:#8c72bd;font-family:Now;font-size:8.6883px;font-weight:bold;stroke-linecap:round;stroke-width:.23695;text-align:center;text-anchor:middle" xml:space="preserve"><tspan x="138.53108" y="108.16634" style="stroke-width:.23695">by KAI</tspan></text>
</svg>
