<?xml version="1.0" encoding="UTF-8" standalone="no"?>
<svg
   viewBox="0 0 192 192"
   version="1.1"
   id="svg3"
   sodipodi:docname="aftenposten.svg"
   inkscape:version="1.2 (dc2aedaf03, 2022-05-15)"
   xml:space="preserve"
   xmlns:inkscape="http://www.inkscape.org/namespaces/inkscape"
   xmlns:sodipodi="http://sodipodi.sourceforge.net/DTD/sodipodi-0.dtd"
   xmlns="http://www.w3.org/2000/svg"
   xmlns:svg="http://www.w3.org/2000/svg"><defs
     id="defs1" /><sodipodi:namedview
     id="namedview3"
     pagecolor="#505050"
     bordercolor="#ffffff"
     borderopacity="1"
     inkscape:showpageshadow="0"
     inkscape:pageopacity="0"
     inkscape:pagecheckerboard="1"
     inkscape:deskcolor="#505050"
     inkscape:zoom="4.234375"
     inkscape:cx="96.944649"
     inkscape:cy="117.9631"
     inkscape:window-width="1718"
     inkscape:window-height="1360"
     inkscape:window-x="-7"
     inkscape:window-y="0"
     inkscape:window-maximized="0"
     inkscape:current-layer="svg3"
     showgrid="false" /><rect
     class="a"
     x="20"
     y="20"
     width="152"
     height="152"
     rx="10"
     id="rect1"
     style="opacity:1;stroke:none;fill:#ffffff;fill-opacity:1" /><path
     style="opacity:1;fill:#54688c;fill-opacity:1;stroke-width:0.231186"
     d="m 72.69972,133.33957 c -10.213876,-1.85341 -16.080843,-12.15706 -11.768247,-20.66754 3.051691,-6.02224 12.852198,-7.84563 16.968798,-3.15708 1.147764,1.30723 0.895622,1.78006 -0.554888,1.04055 -3.558073,-1.81402 -6.564416,1.98567 -5.088019,6.43068 2.724985,8.20417 21.211439,7.3452 29.388256,-1.36552 3.59957,-3.83457 4.71418,-6.8166 4.89473,-13.09523 l 0.12144,-4.222977 -6.21256,0.06163 -6.212562,0.06163 -0.115592,6.016827 -0.115594,6.01686 -0.737638,1.49671 c -2.074513,4.20928 -7.983542,7.55683 -14.521528,8.22667 l -1.501837,0.15387 v -0.35039 c 0,-0.19272 0.147082,-0.47248 0.326851,-0.62166 0.179768,-0.14921 0.569895,-0.76013 0.866949,-1.35764 l 0.540097,-1.08635 0.123056,-19.997608 0.123055,-19.997612 0.392014,-1.166389 c 1.304542,-3.881534 2.698705,-4.781977 12.886271,-8.322798 12.562478,-4.366253 14.495828,-5.162685 19.730318,-8.127807 0.99735,-0.56496 1.84333,-0.99361 1.87996,-0.952554 0.0366,0.04106 0.70037,0.875925 1.47501,1.855266 1.79086,2.264115 4.75734,4.801417 6.91014,5.910378 1.90831,0.983025 1.90535,0.976031 0.98743,2.330514 -0.37467,0.552887 -0.91895,1.593225 -1.20951,2.311863 l -0.52829,1.306617 -0.0728,22.309474 c -0.0802,24.567766 -0.10057,24.159786 1.27919,25.687016 1.81547,2.00949 6.1263,1.9907 8.28376,-0.0361 l 0.47958,-0.45056 0.39123,0.28846 0.39122,0.28845 -0.70429,1.48627 c -3.92305,8.27893 -11.71089,11.59229 -18.94851,8.06172 -4.43913,-2.16544 -5.77965,-5.29102 -5.77965,-13.47589 0,-4.95977 -0.15822,-5.97485 -0.66673,-4.2776 -3.82263,12.75881 -21.039749,23.68539 -33.70106,21.38786 z m 33.85772,-50.461141 -0.0679,-11.501516 -0.4836,-1.040338 C 103.71,65.397484 97.103684,65.093009 94.7762,69.819009 l -0.539531,1.095531 -0.06809,11.423561 c -0.03744,6.282956 -0.0147,11.562672 0.05054,11.732703 0.09491,0.247334 1.346969,0.309141 6.262431,0.309141 h 6.14379 z"
     id="path873" /></svg>
