<?xml version="1.0" encoding="UTF-8"?>
<svg version="1.1" viewBox="0 0 192 192" xmlns="http://www.w3.org/2000/svg">
 <g transform="matrix(.25037 0 0 .25037 -.86381 -4.5242)" style="clip-rule:evenodd;fill-rule:evenodd;stroke-linejoin:round;stroke-miterlimit:2">
  <path d="m716.67 441.66v26.385c0 51.027-20.271 99.965-56.353 136.05s-85.02 56.353-136.05 56.353h-401.1c-10.565 0-20.698-4.198-28.169-11.669s-11.669-17.604-11.669-28.169v-438.2c0-10.566 4.198-20.699 11.669-28.17s17.604-11.668 28.169-11.668h401.1c51.027 0 99.965 20.27 136.05 56.352s56.353 85.02 56.353 136.05v30.837c0 14.455-11.718 26.173-26.173 26.173h-0.422c-6.942 0-13.599-2.757-18.507-7.666-4.909-4.908-7.666-11.565-7.666-18.507v-29.141c0-78.678-63.781-142.46-142.46-142.46h-370.3c-8.223 0-14.888 6.666-14.888 14.888v232.37h0.377v78.021h108.76c5.685 0 11.166-2.122 15.369-5.951l72.572-66.115c4.206-3.831 9.692-5.954 15.381-5.951zm-154.64-91.829c3.683 0 7.215 1.463 9.819 4.067s4.067 6.136 4.067 9.819v12.936c0 3.682-1.463 7.214-4.067 9.818s-6.136 4.067-9.819 4.067h-348.39c-3.683 0-7.215-1.463-9.819-4.067s-4.067-6.136-4.067-9.818v-12.936c0-3.683 1.463-7.215 4.067-9.819s6.136-4.067 9.819-4.067zm0-75.985c3.683 0 7.215 1.463 9.819 4.067s4.067 6.135 4.067 9.818v12.936c0 3.683-1.463 7.214-4.067 9.818s-6.136 4.067-9.819 4.067h-348.39c-3.683 0-7.215-1.463-9.819-4.067s-4.067-6.135-4.067-9.818v-12.936c0-3.683 1.463-7.214 4.067-9.818s6.136-4.067 9.819-4.067z" style="fill:#98db99"/>
 </g>
</svg>
