<?xml version="1.0" encoding="UTF-8" standalone="no"?>
<svg
   viewBox="0 0 36864 36864"
   version="1.1"
   id="svg3"
   xml:space="preserve"
   width="36864"
   height="36864"
   xmlns="http://www.w3.org/2000/svg"
   xmlns:svg="http://www.w3.org/2000/svg"><defs
     id="defs1"><style
       id="style1">.a{fill:none;stroke:#b1b5bd;stroke-linecap:round;stroke-linejoin:round;isolation:isolate;opacity:0.63;}</style></defs><rect
     style="fill:#73ada4;stroke-width:80"
     id="rect6"
     width="152"
     height="152"
     x="20"
     y="20"
     rx="10"
     ry="10" /><circle
     style="fill:#ffffff;stroke-width:82.1174"
     id="path3"
     cx="67.604103"
     cy="126.13197"
     r="15.5" /><g
     id="g6"><path
       style="fill:#ffffff;stroke-width:80"
       d="m 137.7631,117.12545 c 7.37547,11.42007 -1.90334,20.10409 -1.90334,20.10409 l -21.82553,-37.802918 10.15728,-5.864304 z"
       id="path4" /><path
       style="fill:#ffffff;stroke-width:80"
       d="m 77.011351,74.745109 c -7.37546,-11.42007 1.90334,-20.10409 1.90334,-20.10409 l 21.825539,37.80292 -10.157284,5.8643 z"
       id="path4-8" /><path
       style="fill:#ffffff;stroke-width:80"
       d="M 104.1397,59.147351 C 97.937348,47.049981 85.777368,50.743647 85.777368,50.743647 l 21.825522,37.802931 10.15727,-5.864313 z"
       id="path4-8-2" /><path
       style="fill:#ffffff;stroke-width:80"
       d="m 110.81766,132.92806 c 6.20235,12.09737 18.36233,8.4037 18.36233,8.4037 l -21.82552,-37.80293 -10.157274,5.86431 z"
       id="path4-8-2-5" /><path
       style="fill:#ffffff;stroke-width:80"
       d="m 85.992565,50.69145 c -5.159851,0.869888 -7.509294,4.505576 -7.509294,4.505576 l 20.672534,35.805879 7.647545,-4.415314 z"
       id="path6" /><path
       style="fill:#ffffff;stroke-width:80"
       d="m 128.36289,141.50915 c 5.17424,-0.77971 7.58679,-4.37383 7.58679,-4.37383 l -20.04448,-36.1612 -7.72347,4.28116 z"
       id="path6-1" /><rect
       style="fill:#ffffff;stroke-width:107.747"
       id="rect5"
       width="24.423721"
       height="31.481018"
       x="-146.34193"
       y="-60.257843"
       transform="matrix(-0.50400042,-0.86370341,-0.90001412,0.43586074,0,0)" /></g></svg>
