<?xml version="1.0" encoding="UTF-8" standalone="no"?>
<!-- Created with Inkscape (http://www.inkscape.org/) -->

<svg
   width="192"
   height="192"
   viewBox="0 0 50.799999 50.8"
   version="1.1"
   id="svg1"
   xml:space="preserve"
   xmlns="http://www.w3.org/2000/svg"
   xmlns:svg="http://www.w3.org/2000/svg"><defs
     id="defs1"><style
       id="style1">.a{fill:none;stroke:#b1b5bd;stroke-linecap:round;stroke-linejoin:round;isolation:isolate;opacity:0.63;}</style></defs><g
     id="layer2"
     transform="matrix(1.1879217,0,0,1.1879217,-4.7885779,-4.7936686)"><rect
       style="opacity:1;fill:#56595b;fill-opacity:1;stroke-width:18.9578"
       id="rect1-8"
       width="28.309744"
       height="28.309744"
       x="2.8519225"
       y="18.495407"
       transform="rotate(-12.769019)" /><rect
       style="opacity:1;fill:#728dbe;fill-opacity:1;stroke-width:103.278"
       id="rect1"
       width="154.22552"
       height="154.22552"
       x="152.2926"
       y="265.26181"
       transform="matrix(0.17902105,-0.0405708,0.0405708,0.17902105,-27.935531,-29.234598)" /><path
       d="m 323.2928,329.6314 h -26.4926 c -0.1373,-1.3052 -0.2061,-2.3584 -0.2061,-3.16 0,-2.2668 0.1605,-4.9457 0.458,-8.0368 -5.3123,8.4948 -12.7311,12.7308 -22.2564,12.7308 -6.4571,0 -11.6548,-1.8546 -15.6391,-5.564 -3.9841,-3.7094 -5.9761,-8.3576 -5.9761,-13.9446 0,-4.1674 1.0762,-7.9684 3.2285,-11.4487 2.1524,-3.4577 5.1749,-6.2283 9.1131,-8.2662 3.9386,-2.0606 7.9685,-3.4116 12.0901,-4.0757 4.0985,-0.6411 12.1586,-1.5341 24.1339,-2.6331 0.5497,-1.6716 0.8013,-2.9539 0.8013,-3.8927 0,-3.7094 -2.5872,-5.587 -7.7621,-5.587 -5.1062,0 -8.8614,2.5417 -11.2884,7.6021 l -22.0505,-4.511 C 267.0334,266.2739 279.3295,260 298.3345,260 c 9.6169,0 17.1731,1.6715 22.6685,4.9915 5.4953,3.3431 8.2659,8.2432 8.2659,14.7232 0,2.908 -1.6257,13.1891 -4.8312,30.8659 -1.2138,6.5716 -1.8318,10.9221 -1.8318,13.0746 0,1.7401 0.2289,3.7322 0.6869,5.9762 z m -23.8823,-32.1941 c -12.2959,0.9388 -18.4553,4.8773 -18.4553,11.7923 0,3.801 1.992,5.7014 5.9761,5.7014 2.5417,0 5.1062,-1.1218 7.6479,-3.4116 2.5417,-2.2898 4.1444,-6.9838 4.8313,-14.0821 z"
       style="opacity:1;fill:#ffffff;fill-rule:evenodd"
       id="path1"
       transform="matrix(0.34552599,0,0,0.34552599,-74.996293,-77.441596)" /></g></svg>
