<?xml version="1.0" encoding="UTF-8"?>
<svg version="1.1" viewBox="0 0 192 192" xmlns="http://www.w3.org/2000/svg">
 <g transform="matrix(1.6363 0 0 1.6363 21.547 14.183)">
  <path d="m37.944 71.717-0.984 1.398c-9.866-2.321-17.655-8.7-22.164-17.812 5.074 8.257 13.385 14.319 23.148 16.414m38.26-16.417c-4.508 9.111-12.294 15.494-22.159 17.815l-0.989-1.398c9.767-2.095 18.078-8.157 23.148-16.417m14.279-5.784 0.037-0.408-9.397-17.869c-2.561-17.368-17.558-30.739-35.623-30.739s-33.063 13.371-35.619 30.739l-9.402 17.869 0.041 0.408c0.915 9.709 6.055 19.325 14.103 26.376 1.522 1.333 3.122 2.554 4.795 3.667l-6.481 11.382 0.977 0.724c0.435 0.32 10.809 7.835 31.586 7.835s31.155-7.515 31.586-7.835l0.98-0.724-6.481-11.381c1.67-1.113 3.27-2.336 4.792-3.667 8.048-7.056 13.187-16.667 14.106-26.377" fill="#fff" style="fill:#fff"/>
  <path d="m80.138 36.51c0 19.13-15.506 34.638-34.638 34.638-19.128 0-34.638-15.508-34.638-34.638 0-19.132 15.51-34.64 34.638-34.64 19.132 0 34.638 15.508 34.638 34.64" fill="#213b77" style="fill:#728dbe"/>
  <path d="m79.125 36.51c0 18.568-15.055 33.623-33.625 33.623s-33.625-15.055-33.625-33.623c0-18.572 15.055-33.627 33.625-33.627s33.625 15.055 33.625 33.627" fill="#fff"/>
  <path d="m45.483 86.004c-23.447 0.061-41.792-17.479-43.601-36.617l7.224-13.729c0 22.539 14.48 39.809 36.394 39.809 21.909 0 36.397-17.27 36.397-39.809l7.216 13.729c-1.801 19.139-20.149 36.679-43.597 36.617z" fill="#213b77" style="fill:#728dbe"/>
  <g fill="#213b77">
   <rect x="45.114" y="2.764" width=".771" height="3.801" style="fill:#728dbe"/>
   <polygon points="48.9 9.644 49.782 2.881 49.016 2.785 48.138 9.551" style="fill:#728dbe"/>
   <polygon points="42.091 9.619 42.854 9.519 41.935 2.76 41.176 2.859" style="fill:#728dbe"/>
   <polygon points="38.251 7.402 38.998 7.238 38.149 3.527 37.398 3.689" style="fill:#728dbe"/>
   <polygon points="52.728 7.404 53.602 3.702 52.851 3.531 51.985 7.238" style="fill:#728dbe"/>
   <rect transform="matrix(-.7071 .7071 -.7071 -.7071 49.128 7.6318)" x="22.598" y="12.09" width=".771" height="3.801" style="fill:#728dbe"/>
   <polygon points="28.907 15.109 24.751 9.703 24.141 10.175 28.3 15.583" style="fill:#728dbe"/>
   <polygon points="24.075 19.907 18.647 15.772 19.115 15.165 24.542 19.296" style="fill:#728dbe"/>
   <polygon points="19.792 21.054 20.202 20.41 16.982 18.383 16.568 19.031" style="fill:#728dbe"/>
   <polygon points="30.031 10.819 28.029 7.582 27.381 7.99 29.387 11.227" style="fill:#728dbe"/>
   <rect x="11.756" y="36.123" width="3.802" height=".773" style="fill:#728dbe"/>
   <polygon points="18.541 33.873 18.635 33.112 11.871 32.226 11.777 32.993" style="fill:#728dbe"/>
   <polygon points="11.851 40.836 18.611 39.919 18.508 39.156 11.752 40.073" style="fill:#728dbe"/>
   <polygon points="12.679 44.61 16.392 43.759 16.231 43.012 12.515 43.859" style="fill:#728dbe"/>
   <polygon points="16.228 30.025 16.396 29.28 12.691 28.411 12.523 29.157" style="fill:#728dbe"/>
   <rect transform="matrix(.7068 .7074 -.7074 .7068 48.495 1.0494)" x="22.596" y="57.125" width=".772" height="3.802" style="fill:#728dbe"/>
   <polygon points="24.104 53.102 18.693 57.261 19.165 57.868 24.575 53.708" style="fill:#728dbe"/>
   <polygon points="28.899 57.934 24.764 63.364 24.157 62.893 28.288 57.466" style="fill:#728dbe"/>
   <polygon points="30.043 62.22 29.403 61.806 27.373 65.03 28.021 65.442" style="fill:#728dbe"/>
   <polygon points="19.809 51.979 16.572 53.979 16.982 54.629 20.219 52.621" style="fill:#728dbe"/>
   <rect x="45.114" y="66.453" width=".771" height="3.803" style="fill:#728dbe"/>
   <polygon points="41.984 70.233 42.866 63.467 42.104 63.375 41.217 70.137" style="fill:#728dbe"/>
   <polygon points="49.064 70.26 49.828 70.162 48.909 63.397 48.146 63.5" style="fill:#728dbe"/>
   <polygon points="52.851 69.493 53.602 69.329 52.748 65.619 52.002 65.781" style="fill:#728dbe"/>
   <polygon points="38.149 69.487 39.015 65.781 38.272 65.614 37.398 69.316" style="fill:#728dbe"/>
   <rect transform="matrix(.7084 -.7058 .7058 .7084 -21.826 65.226)" x="67.632" y="57.125" width=".776" height="3.803" style="fill:#728dbe"/>
   <polygon points="62.093 57.909 66.253 63.315 66.859 62.844 62.7 57.435" style="fill:#728dbe"/>
   <polygon points="66.925 53.113 72.356 57.244 71.885 57.852 66.458 53.725" style="fill:#728dbe"/>
   <polygon points="71.212 51.965 70.798 52.609 74.021 54.636 74.437 53.987" style="fill:#728dbe"/>
   <polygon points="60.969 62.199 62.971 65.437 63.619 65.026 61.613 61.791" style="fill:#728dbe"/>
   <rect x="75.445" y="36.123" width="3.799" height=".773" style="fill:#728dbe"/>
   <polygon points="79.129 40.791 79.224 40.028 72.459 39.144 72.364 39.907" style="fill:#728dbe"/>
   <polygon points="72.492 33.864 79.248 32.945 79.149 32.183 72.39 33.099" style="fill:#728dbe"/>
   <polygon points="74.772 30.006 78.485 29.157 78.321 28.409 74.608 29.26" style="fill:#728dbe"/>
   <polygon points="78.309 44.61 78.477 43.861 74.772 42.994 74.604 43.736" style="fill:#728dbe"/>
   <rect transform="matrix(-.7068 -.7074 .7074 -.7068 106.2 71.997)" x="67.633" y="12.088" width=".771" height="3.804" style="fill:#728dbe"/>
   <polygon points="66.9 19.915 72.308 15.76 71.836 15.15 66.429 19.31" style="fill:#728dbe"/>
   <polygon points="62.105 15.085 66.236 9.656 66.843 10.125 62.717 15.553" style="fill:#728dbe"/>
   <polygon points="60.957 10.798 61.601 11.212 63.627 7.988 62.979 7.576" style="fill:#728dbe"/>
   <polygon points="71.191 21.039 74.428 19.038 74.018 18.389 70.785 20.397" style="fill:#728dbe"/>
  </g>
  <path d="m64.698 36.51c0 10.602-8.595 19.196-19.198 19.196-10.6 0-19.194-8.594-19.194-19.196s8.594-19.196 19.194-19.196c10.604 0 19.198 8.594 19.198 19.196" fill="#ffd703" style="fill:#f9de81"/>
  <path d="m50.652 36.508c0 2.845-2.306 5.154-5.148 5.154-2.847 0-5.156-2.31-5.156-5.154s2.31-5.148 5.156-5.148c2.843 0 5.148 2.304 5.148 5.148" fill="#213b77" style="fill:#728dbe"/>
  <path d="m49.726 36.51c0 2.334-1.892 4.227-4.226 4.227-2.33 0-4.225-1.893-4.225-4.227 0-2.332 1.895-4.225 4.225-4.225 2.334 0 4.226 1.893 4.226 4.225" fill="#ffd703" style="fill:#f9de81"/>
  <g fill="#213b77">
   <path d="m50.427 29.137 2.937-4.396c0.156-0.236 0.095-0.562-0.147-0.711-1.32-0.818-2.785-1.432-4.344-1.801-0.275-0.064-0.554 0.123-0.611 0.4l-1.029 5.185c-0.054 0.262 0.114 0.508 0.373 0.576 0.767 0.197 1.489 0.499 2.149 0.89 0.232 0.138 0.524 0.08 0.672-0.143" style="fill:#728dbe"/>
   <path d="m54.2 34.781 5.186-1.032c0.274-0.055 0.464-0.332 0.397-0.609-0.356-1.514-0.96-2.982-1.801-4.344-0.147-0.24-0.476-0.306-0.714-0.148l-4.397 2.935c-0.221 0.15-0.274 0.441-0.139 0.673 0.397 0.681 0.697 1.405 0.89 2.151 0.066 0.261 0.316 0.426 0.578 0.374" style="fill:#728dbe"/>
   <path d="m52.876 41.439 4.393 2.935c0.238 0.158 0.566 0.094 0.714-0.148 0.82-1.323 1.432-2.783 1.801-4.344 0.066-0.275-0.123-0.554-0.401-0.609l-5.186-1.032c-0.263-0.053-0.509 0.115-0.574 0.374-0.197 0.765-0.5 1.487-0.89 2.151-0.136 0.232-0.083 0.523 0.143 0.673" style="fill:#728dbe"/>
   <path d="m47.231 45.209 1.029 5.185c0.058 0.277 0.332 0.466 0.611 0.4 1.514-0.357 2.982-0.958 4.344-1.801 0.242-0.148 0.304-0.476 0.147-0.714l-2.937-4.396c-0.147-0.224-0.439-0.277-0.673-0.144-0.677 0.402-1.403 0.699-2.149 0.89-0.257 0.069-0.425 0.317-0.372 0.58" style="fill:#728dbe"/>
   <path d="m40.573 43.884-2.937 4.397c-0.156 0.234-0.094 0.562 0.148 0.712 1.325 0.818 2.785 1.432 4.344 1.798 0.279 0.066 0.558-0.121 0.611-0.398l1.03-5.187c0.053-0.262-0.115-0.506-0.374-0.574-0.763-0.197-1.485-0.5-2.149-0.89-0.229-0.137-0.521-0.08-0.673 0.142" style="fill:#728dbe"/>
   <path d="m36.804 38.241-5.185 1.032c-0.279 0.053-0.464 0.33-0.402 0.607 0.361 1.516 0.96 2.984 1.801 4.344 0.152 0.242 0.48 0.308 0.714 0.15l4.397-2.937c0.222-0.148 0.279-0.441 0.14-0.671-0.398-0.681-0.697-1.405-0.886-2.151-0.071-0.261-0.317-0.427-0.579-0.374" style="fill:#728dbe"/>
   <path d="m38.128 31.583-4.397-2.935c-0.234-0.158-0.562-0.094-0.709 0.146-0.82 1.323-1.436 2.785-1.801 4.344-0.066 0.277 0.119 0.556 0.398 0.611l5.185 1.032c0.262 0.051 0.508-0.117 0.574-0.375 0.201-0.763 0.5-1.487 0.894-2.149 0.135-0.233 0.078-0.524-0.144-0.674" style="fill:#728dbe"/>
   <path d="m43.769 27.814-1.03-5.187c-0.053-0.277-0.332-0.464-0.607-0.398-1.518 0.356-2.982 0.958-4.344 1.798-0.242 0.15-0.308 0.478-0.152 0.716l2.937 4.396c0.152 0.222 0.443 0.277 0.673 0.14 0.681-0.398 1.407-0.697 2.149-0.888 0.263-0.066 0.427-0.315 0.374-0.577" style="fill:#728dbe"/>
   <path d="m45.504 55.189c-10.316 0-18.681-8.364-18.681-18.679 0-10.311 8.364-18.673 18.681-18.673 10.312 0 18.669 8.362 18.669 18.673 0 10.315-8.357 18.679-18.669 18.679m0-38.51c-10.953 0-19.837 8.879-19.837 19.832 0 10.955 8.885 19.828 19.837 19.828 10.953 0 19.83-8.873 19.83-19.828 0-10.953-8.877-19.832-19.83-19.832" style="fill:#728dbe"/>
  </g>
  <g fill="#e7362a">
   <polygon points="45.5 12.962 32.829 6.823 45.5 37.491 58.176 6.823" style="fill:#ff837d"/>
   <polygon points="21.954 36.51 15.817 49.184 46.48 36.51 15.817 23.837" style="fill:#ff837d"/>
   <polygon points="45.5 60.059 58.176 66.195 45.5 35.528 32.829 66.195" style="fill:#ff837d"/>
   <polygon points="69.05 36.508 75.187 23.837 44.52 36.508 75.187 49.182" style="fill:#ff837d"/>
  </g>
  <path d="m18.254 71.434 1.288-2.824-2.773 1.466zm1.587-4.414 1.3 1.189-2.917 6.783-1.12-1.027 0.648-1.44-2.035-1.862-1.411 0.74-1.038-0.947z" fill="#ffd703" style="fill:#f9de81"/>
  <polygon points="22.332 77.742 23.825 71.751 20.772 76.799 19.628 76.107 23.234 70.142 25.248 71.359 23.894 76.426 27.746 72.867 29.797 74.11 26.191 80.076 25.006 79.358 28.058 74.313 23.447 78.419" fill="#ffd703" style="fill:#f9de81"/>
  <g fill="#ffd703">
   <path d="m32.127 77.917c0.792 0.283 1.21 0.235 1.436-0.396 0.242-0.681-0.041-0.978-0.845-1.265l-0.923-0.328-0.591 1.661zm-1.021 2.856c0.976 0.345 1.427 0.384 1.723-0.438 0.275-0.775-0.103-1.075-1.058-1.415l-0.923-0.328-0.66 1.85zm-0.292-6.329 2.252 0.804c1.698 0.607 2.326 1.377 1.899 2.572-0.258 0.729-0.771 1.07-1.583 1.038 0.812 0.556 1.066 1.275 0.767 2.125-0.185 0.519-0.496 0.892-0.915 1.091-0.706 0.337-1.452 0.123-2.502-0.254l-2.26-0.805z" style="fill:#f9de81"/>
   <path d="m38.014 76.678-0.706 4.338c-0.168 1.025 0.258 1.604 1.292 1.772s1.571-0.265 1.748-1.346l0.697-4.271 1.416 0.23-0.689 4.233c-0.303 1.854-1.415 2.597-3.405 2.272-2.006-0.328-2.81-1.36-2.502-3.232l0.689-4.233z" style="fill:#f9de81"/>
  </g>
  <g fill="#ffd703">
   <polygon points="48.22 83.165 48.228 84.347 43.601 84.378 43.551 77.406 45.032 77.397 45.073 83.186" style="fill:#f9de81"/>
   <path d="m53.462 80.918-1.464-2.738-0.521 3.093zm-2.547-3.942 1.735-0.312 3.622 6.436-1.498 0.269-0.75-1.393-2.72 0.49-0.267 1.571-1.383 0.248z" style="fill:#f9de81"/>
   <polygon points="57.941 82.605 55.456 76.098 57.462 75.332 61.912 79.632 59.915 74.399 61.162 73.919 63.644 80.43 61.72 81.164 57.134 76.743 59.188 82.132" style="fill:#f9de81"/>
  </g>
  <path d="m68.279 77.947c-1.776 1.083-3.34 0.6-4.562-1.402-1.219-2-0.915-3.696 0.837-4.763 1.456-0.886 2.744-0.706 3.482 0.373l-1.165 0.71c-0.382-0.55-1.055-0.648-1.731-0.238-0.984 0.602-1.05 1.649-0.155 3.113 0.906 1.485 1.825 1.912 2.851 1.288 0.652-0.397 0.865-1.072 0.525-1.717l1.201-0.731c0.662 1.275 0.222 2.448-1.283 3.367" fill="#ffd703" style="fill:#f9de81"/>
  <polygon points="75.002 71.249 75.753 72.135 72.147 75.199 67.631 69.889 71.154 66.893 71.905 67.771 69.526 69.788 70.597 71.042 72.82 69.148 73.559 70.014 71.327 71.905 72.545 73.337" fill="#ffd703" style="fill:#f9de81"/>
  <g fill="#213b77">
   <path d="m51.641 71.07-1.633 3.633c1.272-0.148 2.523-0.357 3.754-0.628 0 0-2.088-3.011-2.121-3.005" style="fill:#728dbe"/>
   <path d="m45.5 70.81c-1.903 0-3.77-0.162-5.591-0.459l1.998 4.45c1.181 0.111 2.383 0.173 3.593 0.173 1.214 0 2.412-0.062 3.594-0.173l1.997-4.45c-1.818 0.296-3.684 0.459-5.591 0.459" style="fill:#728dbe"/>
   <path d="m39.363 71.07 1.628 3.633c-1.271-0.148-2.523-0.357-3.753-0.628 0 0 2.088-3.011 2.125-3.005" style="fill:#728dbe"/>
   <path d="m45.356 87.378c-8.799 0-17.323-2.453-24.646-6.994-0.049-0.024-0.094-0.049-0.144-0.073l-5.836 10.251s10.206 7.568 30.77 7.568c20.563 0 30.77-7.568 30.77-7.568l-5.837-10.255c-0.049 0.028-0.095 0.051-0.144 0.077-7.322 4.541-15.847 6.994-24.649 6.994z" style="fill:#728dbe"/>
  </g>
  <polygon points="23.455 85.844 23.25 90.271 26.134 86.861 26.803 87.12 23.291 91.113 22.606 90.853 22.754 85.577" fill="#ffd703" style="fill:#f9de81"/>
  <rect transform="matrix(-.9638 -.2665 .2665 -.9638 33.341 185.39)" x="28.92" y="87.943" width=".66" height="4.979" fill="#ffd703" style="fill:#f9de81"/>
  <path d="m34.478 94.241c-1.321-0.234-1.887-1.232-1.596-2.867 0.287-1.633 1.223-2.416 2.556-2.179 1.062 0.188 1.6 0.816 1.473 1.666l-0.693-0.123c0.045-0.505-0.32-0.928-0.935-1.036-0.816-0.146-1.464 0.47-1.698 1.774-0.222 1.261 0.144 2.049 0.993 2.198 0.619 0.113 1.071-0.131 1.21-0.646l0.73 0.129c-0.165 0.842-0.937 1.281-2.04 1.084" fill="#ffd703" style="fill:#f9de81"/>
  <polygon points="41.41 90.599 39.765 90.494 39.802 89.899 43.765 90.153 43.728 90.748 42.075 90.64 41.796 95.013 41.131 94.972" fill="#ffd703" style="fill:#f9de81"/>
  <g fill="#ffd703">
   <path d="m48.802 94.562c1.006-0.052 1.519-0.775 1.457-2.08-0.066-1.312-0.665-1.981-1.653-1.933-0.984 0.05-1.518 0.771-1.456 2.072 0.065 1.3 0.66 1.989 1.652 1.941m-0.217-4.558c1.443-0.072 2.31 0.791 2.392 2.463 0.082 1.643-0.702 2.595-2.138 2.664-1.423 0.072-2.317-0.804-2.399-2.44-0.083-1.666 0.709-2.618 2.145-2.687" style="fill:#f9de81"/>
   <path d="m56.854 90.483c-0.106-0.632-0.5-0.664-1.169-0.55l-0.96 0.164 0.25 1.471 0.96-0.162c0.711-0.123 1.014-0.362 0.919-0.923m-2.887-0.894 1.731-0.297c1.091-0.185 1.702 0.16 1.846 1.003 0.103 0.582-0.152 1.066-0.702 1.312 0.484 0.031 0.661 0.203 0.829 0.619 0.16 0.398 0.271 0.997 0.603 1.678l-0.701 0.119c-0.336-0.763-0.418-1.366-0.586-1.667-0.205-0.365-0.468-0.433-1.083-0.326l-0.821 0.14 0.378 2.215-0.656 0.11z" style="fill:#f9de81"/>
  </g>
  <rect transform="matrix(-.2579 -.9662 .9662 -.2579 -10.177 173.32)" x="58.988" y="90.238" width="4.98" height=".666" fill="#ffd703" style="fill:#f9de81"/>
  <path d="m66.441 87.075-0.045 2.637 1.764-0.658zm-0.771 4.89 0.238-5.407 0.668-0.25 3.618 3.965-0.726 0.271-0.919-1.031-2.162 0.812-0.069 1.399z" fill="#ffd703" style="fill:#f9de81"/>
 </g>
</svg>
