<?xml version="1.0" encoding="UTF-8"?>
<svg version="1.1" viewBox="0 0 192 192" xmlns="http://www.w3.org/2000/svg">
 <defs>
  <clipPath id="clipPath9">
   <path d="m-77.6 75.537-33.815 72.509v-85.126z" style="stroke-linecap:round;stroke-linejoin:round;stroke-width:8"/>
  </clipPath>
  <clipPath id="clipPath14">
   <rect class="a" x="20" y="20" width="152" height="152" rx="10" style="fill:#56595b"/>
  </clipPath>
  <clipPath id="clipPath15">
   <rect class="a" x="20" y="20" width="152" height="152" rx="10" style="fill:#56595b"/>
  </clipPath>
  <clipPath id="clipPath16">
   <rect class="a" x="20" y="20" width="152" height="152" rx="10" style="fill:#56595b"/>
  </clipPath>
  <clipPath id="clipPath17">
   <rect class="a" x="20" y="20" width="152" height="152" rx="10"/>
  </clipPath>
  <clipPath id="clipPath18">
   <rect class="a" x="20" y="20" width="152" height="152" rx="10"/>
  </clipPath>
  <clipPath id="clipPath19">
   <rect class="a" x="20" y="20" width="152" height="152" rx="10"/>
  </clipPath>
 </defs>
 <path d="m8 147.99 68.108-38.577h36.799l66.007 38.339 0.23792 44.253h-179.15z" clip-path="url(#clipPath16)" style="fill:#979797"/>
 <path d="m93.016 14.188v18.842l-20.934 74.053-64.082 37.572 1.5762-139.06 82.617-1.6654z" clip-path="url(#clipPath15)" style="fill:#9abeff"/>
 <path d="m117.71 105.42 66.29 40.188-1.2788-145.61h-84.937l-1.7844 14.188v18.842l17.244 37.053 2.8372 22.781z" clip-path="url(#clipPath14)" style="fill:#ba6561"/>
 <path d="m93.016 33.03v29.946l-34.488 14.216 0.67293 2.2712 33.815-12.618v90.005h2.9842v-90.005l33.815 12.618 0.67293-2.2712-34.488-14.216v-48.788h-2.9842z" clip-path="url(#clipPath19)" style="fill:#fff;stroke-linecap:round;stroke-linejoin:round;stroke-width:8"/>
 <path d="m74.004 110.6-54.971 31.136-0.14723-3.3416 1.1148-1.032 54.527-31.544z" clip-path="url(#clipPath18)" style="fill:#fff"/>
 <path d="m115.21 110.79 59.924 34.988 3.4488-4.3741-6.58-3.0658-54.29-32.916-3.6286 1.764z" clip-path="url(#clipPath17)" style="fill:#fff"/>
 <path d="m59.201 79.463 33.815 72.509v-85.126z" style="fill:#56595b;stroke-linecap:round;stroke-linejoin:round;stroke-width:8"/>
 <path d="m93.016 62.976v-29.946l-34.488 44.161z" style="fill:#56595b;stroke-linecap:round;stroke-linejoin:round;stroke-width:8"/>
 <path d="m129.81 79.463-33.815 72.509v-85.126z" style="fill:#56595b;stroke-linecap:round;stroke-linejoin:round;stroke-width:8"/>
 <path d="m96 62.976v-29.946l34.488 44.161z" style="fill:#d2d2d2;stroke-linecap:round;stroke-linejoin:round;stroke-width:8"/>
 <circle transform="translate(207.41 3.9257)" cx="-111.52" cy="76.078" r="15.996" clip-path="url(#clipPath9)" style="fill:#ff837d;stroke-linecap:round;stroke-linejoin:round;stroke-width:8"/>
</svg>
