<svg id="Camada_1" data-name="Camada 1" xmlns="http://www.w3.org/2000/svg" viewBox="0 0 192 192"><defs><style>.cls-1{fill:#8c72bd;isolation:isolate;}.cls-2{fill:#f9de81;stroke:#f9de81;}</style></defs><path id="bubble" class="cls-1" d="M171.9,92v7.82a76,76,0,0,1-73.21,72H29.9A9.86,9.86,0,0,1,20,162V96A76,76,0,0,1,93.31,20h5.38A76,76,0,0,1,171.9,92Z"/><path class="cls-2" d="M96,55.23c-8.39,0-15.2,18.5-15.2,41.32s6.81,41.31,15.2,41.31,15.2-18.5,15.2-41.31S104.39,55.23,96,55.23Zm0,81.71c-7.54,0-13.66-17.49-13.66-39.07S88.46,58.79,96,58.79s13.66,17.49,13.66,39.08S103.54,136.94,96,136.94Z"/><path class="cls-2" d="M131.78,75.89c-4.2-7.27-23.62-3.91-43.38,7.5S56,109.93,60.22,117.2s23.62,3.91,43.38-7.49S136,83.16,131.78,75.89ZM61,116.74c-3.77-6.53,8.33-20.57,27-31.36s36.9-14.25,40.67-7.71-8.32,20.57-27,31.36S64.79,123.28,61,116.74Z"/><path class="cls-2" d="M60.22,75.89C56,83.16,68.64,98.3,88.4,109.71s39.18,14.76,43.38,7.49-8.42-22.41-28.18-33.81S64.42,68.62,60.22,75.89ZM131,116.74c-3.78,6.54-22,3.08-40.68-7.71S59.53,84.2,63.3,77.67s22-3.08,40.67,7.71S134.76,110.21,131,116.74Z"/><circle class="cls-2" cx="96" cy="57.02" r="2.88"/><circle class="cls-2" cx="63.2" cy="86.28" r="2.6"/><circle class="cls-2" cx="128.8" cy="86.28" r="2.6"/></svg>