<?xml version="1.0" encoding="UTF-8"?>
<svg version="1.1" viewBox="0 0 192 192" xmlns="http://www.w3.org/2000/svg">
 <circle class="a" cx="96" cy="96" r="88" style="fill:#9abeff"/>
 <path d="m68.106 106.7c-3.6938-1.3086-6.7139-5.7176-6.6527-9.7122 0.03939-2.5695 1.5183-5.078 10.502-17.812 5.0617-7.1748 10.227-14.513 11.478-16.306 4.5646-6.5441 5.1927-7.2994 7.1878-8.643 2.3457-1.5798 4.7109-2.1395 7.1259-1.6865 3.9236 0.73608 5.3467 2.3615 18.743 21.407 7.069 10.051 13.141 19.064 13.494 20.03 1.9636 5.3793-1.3689 11.443-7.1838 13.071-2.877 0.80552-6.1325 0.074-8.5979-1.9319-0.91606-0.74534-5.7784-7.2228-10.805-14.394-10.29-14.681-10.924-15.286-16.028-15.301-1.6004-5e-3 -3.5425 0.31888-4.3157 0.71872-2.118 1.0953-4.4539 4.0208-5.0867 6.3706-0.75495 2.8037-0.26564 5.1327 1.7861 8.5014 2.0004 3.2844 2.5539 5.9847 1.8005 8.7828-0.79077 2.9367-3.5981 5.9693-6.414 6.9288-2.8281 0.96364-4.259 0.95879-7.0327-0.0238z" style="fill:#fff;stroke-width:.50174"/>
 <circle cx="96.048" cy="129.37" r="10.24" style="fill:#fff;stroke-linecap:round;stroke-linejoin:round;stroke-width:4.0139"/>
</svg>
