<?xml version="1.0" encoding="UTF-8"?>
<svg version="1.1" viewBox="0 0 192 192" xmlns="http://www.w3.org/2000/svg">
 <rect class="a" x="20" y="20" width="152" height="152" rx="10" style="fill:#fff"/>
 <path d="m59.429 136.48c-2.4589-0.99231-4.1884-3.8847-4.1884-7.0047 0-2.5398 1.45-4.1909 19.759-22.5 18.492-18.492 19.939-19.759 22.568-19.759 5.2601 0 9.0765 5.2845 6.8838 9.5319-0.5125 0.99277-4.2302 5.1862-8.2616 9.3186-7.4934 7.6814-8.2657 9.2056-6.4202 12.671 1.3773 2.586 3.1062 3.6101 6.1405 3.6376 2.4688 0.0223 3.6039-0.8342 11.106-8.3801 9.4096-9.4646 11.511-13.068 11.537-19.784 0.0428-10.84-10.382-21.087-21.428-21.061-5.1844 0.01244-10.844 3.2502-18.417 10.535-7.3865 7.1059-8.9285 7.7477-13.248 5.5139-1.2166-0.62913-2.4306-1.7134-2.6977-2.4095-0.26712-0.69611-0.48568-7.3327-0.48568-14.748v-13.482l2.0199-1.8955c2.0177-1.8934 2.0398-1.8955 20.133-1.8955 20.276 0 23.538 0.49827 32.002 4.8891 12.584 6.5282 20.328 20.303 20.328 36.159 0 20.57-12.719 36.626-31.925 40.301-6.6549 1.2733-42.441 1.5591-45.406 0.36268z" style="fill:#56595b;stroke-width:.78186"/>
</svg>
