<?xml version="1.0" encoding="UTF-8"?>
<svg version="1.1" viewBox="0 0 192 192" xmlns="http://www.w3.org/2000/svg">
 <circle class="a" cx="96" cy="96" r="88" style="fill:#98dc9a"/>
 <path d="m62.14 129.86v-6.6193h12.899l-3.2082-3.0714q-5.4389-5.0329-7.7347-11.266-2.2958-6.2332-2.2958-12.598 0-11.439 6.6998-20.515 6.6998-9.0762 17.571-12.462v6.9756q-7.9862 3.1221-12.818 10.23-4.8332 7.1069-4.8332 15.772 0 5.1763 1.9604 10.056 1.9604 4.8796 6.1019 9.021l2.8 2.8011v-12.085h6.6193v23.761zm43.789-1.1882v-6.9756q7.9862-3.1221 12.818-10.23 4.8332-7.1069 4.8332-15.772 0-5.1763-1.9604-10.056-1.9604-4.8795-6.1019-9.021l-2.8-2.8011v12.085h-6.6193v-23.761h23.761v6.6193h-12.899l3.2081 3.0714q5.2359 5.237 7.6332 11.368 2.3973 6.1317 2.3973 12.496 0 11.439-6.6998 20.515-6.6998 9.0762-17.571 12.462z" fill="#fff" style="stroke-width:.11032"/>
</svg>
