<?xml version="1.0" encoding="UTF-8"?><svg id="a" xmlns="http://www.w3.org/2000/svg" xmlns:xlink="http://www.w3.org/1999/xlink" viewBox="0 0 192 192"><defs><clipPath id="d"><rect x="33.89" y="13.21" width="124.21" height="170.79" rx="10.23" ry="10.23" style="fill:none;"/></clipPath></defs><g id="b"><g id="c"><g style="clip-path:url(#d);"><rect x="33.89" y="13.21" width="124.21" height="170.79" rx="10.23" ry="10.23" style="fill:#98dc9a; isolation:isolate;"/><rect x="33.89" y="173.77" width="124.21" height="10.41" style="fill:#56595b;"/><rect x="33.89" y="13.03" width="124.21" height="10.41" style="fill:#56595b;"/></g><path d="M70.15,8h51.69c2.87,0,5.21,2.33,5.21,5.21h-62.11c0-2.87,2.33-5.21,5.21-5.21Z" style="fill:#83868c;"/><g id="e"><ellipse id="f" cx="79.5" cy="76.67" rx="11.89" ry="19.16" style="fill:#fff;"/><ellipse id="g" cx="82.83" cy="69.66" rx="3.52" ry="4.19" style="fill:#56595b;"/></g><g id="h"><ellipse id="i" cx="112.5" cy="76.76" rx="11.89" ry="19.16" style="fill:#fff;"/><ellipse id="j" cx="115.83" cy="69.75" rx="3.52" ry="4.19" style="fill:#56595b;"/></g><path id="k" d="M70.01,108.1s8.11,6.9,26.11,7.36c18.01.46,25.86-8.54,25.86-8.54,0,0-7.16,32.78-26.09,32.78s-25.88-31.6-25.88-31.6Z" style="fill:#71a372;"/></g></g></svg>