<?xml version="1.0" encoding="UTF-8"?>
<svg version="1.1" viewBox="0 0 192 192" xmlns="http://www.w3.org/2000/svg">
 <rect class="a" x="20" y="20" width="152" height="152" rx="10" style="fill:#9abeff"/>
 <path d="m103.59 120.86c-3.2455-0.9385-5.5954-3.1616-6.6032-6.2468-0.29637-0.90737-1.256-3.7056-2.1326-6.2183-0.87656-2.5127-1.7339-5.2824-1.9053-6.1549-0.30541-1.5552-0.74611-2.1437-0.76026-1.0152-8e-3 0.60904-4.0147 12.661-4.4936 13.515-0.25722 0.45888-0.62144 0.51981-3.793 0.63453-4.1081 0.14859-4.2688 0.0746-4.5019-2.0731-0.17609-1.6228-0.65442-8.5148-0.66091-9.5228-5e-3 -0.81848-0.18819-0.51687-3.3382 5.5045-0.98589 1.8845-1.9386 3.5818-2.1172 3.7716-0.26761 0.28453-0.77451-0.5631-2.8839-4.8224-1.4076-2.8422-2.563-4.9963-2.5676-4.7869-5e-3 0.20939-0.28435 3.2151-0.62169 6.6793-0.68091 6.9923-0.76608 7.2657-2.5096 8.0573-1.0624 0.48234-2.201 0.64551-2.201 0.3154 0-0.66711 2.0696-21.592 2.1614-21.853 0.0836-0.23754 0.62346-0.30779 1.9506-0.25381 1.6626 0.0676 1.8664 0.13429 2.1686 0.70917 0.18345 0.34899 1.2618 2.5735 2.3964 4.9433l2.0629 4.3088 0.30589-0.88239c0.45077-1.3004 2.6847-5.691 2.9459-5.7899 0.12364-0.0468 0.16025-0.18958 0.0813-0.31726-0.0789-0.12767-0.0158-0.23213 0.1403-0.23213 0.15607 0 0.21318-0.11421 0.12691-0.25381-0.0863-0.1396-0.054-0.25381 0.0718-0.25381 0.12574 0 0.36516-0.45575 0.53205-1.0128 0.34967-1.1671 0.75349-1.3412 2.8362-1.2231l1.3824 0.0785 0.67925 7.8681c0.37358 4.3275 0.68767 7.8966 0.69797 7.9316s0.4163 0.0634 0.90223 0.0634c0.75889 0 0.90427-0.0984 1.0308-0.69797 0.13397-0.63471 2.3788-6.7256 3.6248-9.8351 0.27968-0.69798 0.83348-2.1828 1.2307-3.2995l0.72216-2.0305h1.8736c1.4117 0 1.9205 0.0939 2.0638 0.38071 0.10461 0.2094 0.60945 1.7513 1.1219 3.4264 0.51242 1.6752 1.6752 5.0445 2.5841 7.4874 3.1569 8.4858 3.2294 8.61 5.4803 9.3931 2.9166 1.0146 6.9951 0.40631 8.39-1.2514 0.73604-0.87473 3.3739-7.6273 5.5106-14.106 0.8747-2.6523 1.7038-4.9651 1.8424-5.1396 0.15382-0.19363 0.87579-0.31726 1.8526-0.31726 1.6394 0 2.3982 0.37012 2.3982 1.1697 0 0.20459 0.87075 2.7377 1.935 5.6291 1.5462 4.2009 3.3076 9.0272 4.3502 11.92 0.1786 0.49548-1.6747 0.38274-2.9073-0.17686-1.2657-0.57462-1.904-1.6694-2.6313-4.5134-0.27018-1.0564-1.014-3.4742-1.653-5.3729-0.63897-1.8987-1.2184-3.6235-1.2877-3.8329-0.0693-0.2094-1.1419 2.6283-2.3836 6.306-1.2417 3.6777-2.6247 7.4832-3.0734 8.4567-0.99131 2.1507-2.6575 3.7507-4.7343 4.5463-1.8086 0.69286-5.9236 0.90134-7.6928 0.38975zm1.7194-5.147c-0.0931-0.0931-0.16921-2.0422-0.16921-4.3314 0-4.6231 0.1235-4.1838-2.1592-7.6822-0.86532-1.3262-1.7643-2.7824-1.9978-3.2361-0.35223-0.68439-0.57076-0.82488-1.283-0.82488-0.82178 0-0.88026-0.0644-1.3666-1.5045-0.59162-1.7519-0.55332-1.795 1.5934-1.795 2.2107 0 2.9764 0.47625 4.1701 2.5935 0.57303 1.0165 1.4756 2.5439 2.0057 3.3943l0.96382 1.5461 1.1068-2.0538c1.9613-3.6391 2.7177-4.6756 3.7166-5.093 0.99191-0.41445 3.7912-0.53142 4.0159-0.16781 0.0746 0.12064-0.0615 0.83448-0.30229 1.5863-0.39351 1.2286-0.51717 1.3747-1.2213 1.4434-0.64203 0.0626-0.9399 0.3287-1.6498 1.4736-0.47645 0.76842-1.523 2.4252-2.3257 3.6817l-1.4594 2.2845-6e-3 2.714c-7e-3 3.3974-0.431 4.5109-2.0873 5.4816-1.2245 0.71761-1.2948 0.73989-1.545 0.48968z" style="fill:#f8c18c;stroke-width:.25381"/>
 <text x="95.381844" y="91.735611" style="fill:#ffffff;font-family:Now;font-size:27.475px;font-weight:bold;stroke-linecap:round;stroke-linejoin:round;stroke-width:.68687;text-align:center;text-anchor:middle" xml:space="preserve"><tspan x="95.381844" y="91.735611" style="stroke-width:.68687">BINUS</tspan></text>
</svg>
