<?xml version="1.0" encoding="UTF-8"?>
<svg version="1.1" viewBox="0 0 192 192" xmlns="http://www.w3.org/2000/svg">
 <path d="m53.594 179.77c-1.1056-0.29692-1.2013-0.80648-0.83794-4.4584 0.22566-2.2677 0.60059-6.3036 0.83317-8.9686l0.42289-4.8454-4.6853 2.2802c-6.6474 3.2351-11.28 4.5442-12.192 3.4451-1.0879-1.3109-2.6981-11.513-2.7119-17.182-0.01387-5.6867 1.1938-10.513 4.0507-16.187 2.6737-5.3105 8.1793-12.724 11.546-15.547l2.8134-2.3591-4.3544-0.021c-12.206-0.059-21.815-5.819-31.948-19.151-4.5881-6.0369-6.2367-9.4055-6.2367-12.744 0-2.5785 0.12669-2.6303 8.0389-3.286 5.8645-0.48608 8.0389-0.93892 8.0389-1.6743 0-0.29135-1.798-2.5137-3.9954-4.9385-2.1975-2.4248-4.4584-5.3041-5.0243-6.3984-2.117-4.0939-1.8988-4.2871 8.8523-7.8371 9.4528-3.1213 10.2-3.2616 17.25-3.2376 7.1784 0.02446 7.5415 0.09963 14.044 2.9083 3.6713 1.5857 7.5527 3.6217 8.6254 4.5243 1.0727 0.90262 2.0522 1.5393 2.1766 1.4149 0.12444-0.12445-0.26063-1.7195-0.85574-3.5445-0.7182-2.2026-1.1041-5.9086-1.1478-11.022-0.07497-8.7825 1.2762-14.321 5.4312-22.261 2.5719-4.9153 9.5821-13.555 12.605-15.536 1.8715-1.2262 1.9146-1.2233 3.0765 0.21173 0.64817 0.80046 2.5632 3.9957 4.2557 7.1006 1.6924 3.1049 3.334 5.8039 3.6479 5.9979 1.3713 0.84752 3.9315-2.4363 5.3136-6.8156 1.4423-4.5699 3.0497-7.5513 4.0713-7.5513 0.29802 0 2.6172 2.0348 5.1538 4.5219 7.2199 7.079 12.679 17.334 14.953 28.09 0.81613 3.8598 0.75073 4.6928-0.96381 12.277-1.1641 5.1493-1.6053 8.3702-1.2018 8.7738 0.40353 0.40352 3.0254-0.95884 7.1417-3.711 7.5778-5.0664 9.3949-5.71 17.508-6.2002 9.8847-0.59734 21.529 2.3934 27.065 6.9512 2.4 1.9761 1.547 3.8846-4.617 10.331-6.4476 6.7431-6.2668 7.2969 2.3831 7.2969 3.0153 0 6.456 0.19471 7.6459 0.4327 2.1072 0.42143 2.1522 0.5033 1.7294 3.1473-0.58915 3.6844-3.7573 10.144-7.4063 15.101-6.3433 8.6167-18.387 15.132-30.81 16.667l-4.01 0.49548 2.2182 1.4045c7.8139 4.9474 15.737 21.024 15.813 32.087 0.0486 7.024-2.6808 18.675-4.2647 18.205-0.5816-0.17246-4.3299-1.703-8.3296-3.4011l-7.2722-3.0875 0.39017 2.8506c0.21461 1.5678 0.59142 5.6864 0.83739 9.1525l0.44722 6.3019-4.6186-0.40638c-9.7277-0.85593-17.078-4.4758-24.716-12.172-4.354-4.3872-6.1859-6.9335-9.7663-13.575l-4.4071-8.1748-1.1112 3.525c-2.4563 7.7922-9.4197 16.596-17.43 22.036-7.8091 5.3034-19.748 9.7624-23.466 8.7641z" style="fill:#ff837d;stroke-width:.6699"/>
 <path d="m78.959 131.56c-5.1412-2.7056-8.3334-7.6673-8.3591-12.993-0.02076-4.2991 2.7544-9.61 6.2181-11.9 2.3592-1.5597 3.4021-1.7973 7.889-1.7973h5.1703l0.2611-10.049c0.35611-13.705 0.94966-14.709 11.84-20.028 6.6844-3.2648 10.917-6.5541 13.261-10.306l1.4455-2.3134 0.48045 4.4863c1.0431 9.7405-1.0556 14.299-8.3958 18.234-4.7281 2.5352-6.4609 3.8757-7.4861 5.7914-0.36463 0.68131-0.89275 7.6195-1.1736 15.418-0.4496 12.484-0.68722 14.579-1.9873 17.518-1.8539 4.1911-3.697 6.21-7.1054 7.783-3.3094 1.5274-9.3039 1.6044-12.058 0.15488z" style="fill:#fff;stroke-width:.6699"/>
</svg>
