<?xml version="1.0" encoding="UTF-8"?>
<svg version="1.1" viewBox="0 0 192 192" xmlns="http://www.w3.org/2000/svg">
 <circle class="a" cx="96" cy="96" r="88" style="fill:#9abeff"/>
 <g transform="matrix(.16228 0 0 .16228 50.144 50.144)">
  <g id="iconos_48_">
   <path d="m119.25 408.81 45.364-81.166-149.07-95.348s-11.36 109.32 49.266 143.56c50.873 28.736 54.44 32.953 54.44 32.953z" style="fill:#56595b"/>
   <path d="m186.96 0.055985c-41.44-0.82725-74.994 6.6069-85.981 24.756l212.22 128.46-160.52 246.44 80.992 49.029 126.12 116.38 190.66 0.0118v-114.35l-104.06-83.799s82.545-269.23-126.07-342.14c-42.577-14.879-91.907-23.965-133.35-24.792z" style="fill:#56595b"/>
   <path d="m190.26 530.44 36.854-60.865-55.3-33.479c-0.01-9e-3 -23.764 68.794 18.446 94.344z" style="fill:#56595b"/>
   <path d="m48.799 236.23 92.718 56.084 96.323-54.573 3.604-110.65-92.718-56.084-96.323 54.573zm95.271-109.62c31.814 0.507 57.193 26.699 56.687 58.513-0.508 31.814-26.698 57.193-58.513 56.687-31.814-0.507-57.193-26.699-56.687-58.513 0.507-31.804 26.699-57.184 58.513-56.687z" style="fill:#98dc9a"/>
  </g>
 </g>
</svg>
