<?xml version="1.0" encoding="UTF-8"?>
<svg version="1.1" viewBox="0 0 192 192" xmlns="http://www.w3.org/2000/svg">
 <rect class="a" x="20" y="20" width="152" height="152" rx="10" style="fill:#ababff"/>
 <path d="m123.64 130.18c-12.651-7.4828-21.209-10.314-29.758-9.8436-7.7505 0.42637-15.191 3.2642-26.742 10.2-5.8939 3.5387-7.981 3.7737-10.565 1.1896-1.0486-1.0486-1.771-2.2652-1.771-3.1972 0-2.197 2.3506-6.0103 5.2235-11.252 22.209-40.517 31.25-56.768 32.151-57.793 0.48645-0.55317 1.5483-1.1724 2.3597-1.376 3.4842-0.87448 3.889-0.27246 23.73 35.291 10.413 18.665 18.933 33.29 18.933 34.868 0 2.6778-3.1867 5.8509-5.8492 5.8242-0.61503-6e-3 -4.0853-1.7662-7.7116-3.9112z" style="fill:#fff;stroke-width:.60586"/>
</svg>
