<?xml version="1.0" encoding="UTF-8"?><svg id="a" xmlns="http://www.w3.org/2000/svg" xmlns:xlink="http://www.w3.org/1999/xlink" viewBox="0 0 192 192"><defs><mask id="d" x="41" y="85.07" width="110" height="22.21" maskUnits="userSpaceOnUse"><g id="e"><path id="f" d="M41,85.07h110v22.21H41v-22.21Z" style="fill:#fff;"/></g></mask></defs><g id="b"><g id="c"><rect x="8" y="32" width="176" height="128" rx="10" ry="10" style="fill:#ff837d; isolation:isolate;"/><g style="mask:url(#d);"><path d="M65.81,85.46c-1.71-.03-9.15-.05-13.49-.05h-11.33v4.07c9.12,0,19.94-.02,24.68.05.85.01,1.68.1,2.35.69.62.55.84,1.42.56,2.17-.44,1.22-1.68,1.51-2.91,1.53-1.88.03-7.03.04-10.88.04-9.45.01-5.35,0-13.79,0v4.06c9.12,0,19.96-.02,24.68.05,1.47.02,3.03.53,3.03,2.18s-1.55,2.18-3.03,2.2c-4.71.07-15.56.05-24.68.05v4.07c9.15,0,21.12.03,24.81-.05,1.95-.04,4.83-.54,6.5-3.08,1.58-2.38,1.2-5.48-.88-7.46,2.07-1.99,2.45-5.09.88-7.46-1.68-2.54-4.56-3.02-6.5-3.08ZM138.5,85.53c-2.41-.05-6.06-.08-9.28-.1-7.85-.03-3.13-.02-10.61-.02v4.08c7.96,0,13.54-.06,19.68.11,1.81.05,3.74.24,5.49,1.45,1.65,1.14,2.63,2.97,2.63,4.94s-.95,3.8-2.6,4.95c-1.75,1.21-3.68,1.4-5.49,1.45-6.15.17-11.73.11-19.68.11l-.03,4.08c8.01,0,13.76.03,19.88-.12,2.45-.05,5.47-.34,8.26-2.34,2.64-1.89,4.24-4.87,4.24-8.14s-1.6-6.25-4.24-8.14v.03c-2.78-2-5.81-2.28-8.26-2.34ZM82.9,91.69c-.01-1.97,0-4.29,0-6.28h-4.71c0,2.01-.04,6.09.04,8.07.16,3.83,1.41,5.02,5.32,5.16,2.72.1,4.87.06,8.62.05v-4.1c-3,0-4.23,0-6.45-.03-2.14-.04-2.81-.74-2.82-2.87ZM100.3,94.59c2.2,0,4.89-.01,5.9-.03,2.14-.04,2.81-.72,2.82-2.79h.03v-6.36h4.7v6.18c-.01.72-.02,1.37-.04,1.89-.16,3.86-1.42,5.03-5.57,5.16-1.35.05-4.95.05-7.83.05h-.56v7.89h-5.53v-11.99h6.08Z" style="fill:#fff;"/></g></g></g></svg>