<?xml version="1.0" encoding="UTF-8" standalone="no"?>
<svg
   version="1.1"
   viewBox="0 0 192 192"
   xml:space="preserve"
   id="svg4"
   sodipodi:docname="catalone2.svg"
   inkscape:version="1.2.2 (b0a8486541, 2022-12-01)"
   xmlns:inkscape="http://www.inkscape.org/namespaces/inkscape"
   xmlns:sodipodi="http://sodipodi.sourceforge.net/DTD/sodipodi-0.dtd"
   xmlns="http://www.w3.org/2000/svg"
   xmlns:svg="http://www.w3.org/2000/svg"><defs
   id="defs8"><clipPath
     id="clipPath995"
     clipPathUnits="userSpaceOnUse"><rect
       id="rect997"
       width="152"
       height="152"
       x="20"
       y="880.362"
       rx="9.9350004"
       ry="9.9350004"
       style="opacity:1;fill:#b1b5bd;fill-opacity:1;fill-rule:evenodd;stroke:none;stroke-width:1;stroke-opacity:1" /></clipPath></defs><sodipodi:namedview
   id="namedview6"
   pagecolor="#505050"
   bordercolor="#eeeeee"
   borderopacity="1"
   inkscape:showpageshadow="0"
   inkscape:pageopacity="0"
   inkscape:pagecheckerboard="0"
   inkscape:deskcolor="#505050"
   showgrid="false"
   inkscape:zoom="0.97516036"
   inkscape:cx="174.3303"
   inkscape:cy="-102.54724"
   inkscape:window-width="1918"
   inkscape:window-height="1053"
   inkscape:window-x="0"
   inkscape:window-y="0"
   inkscape:window-maximized="1"
   inkscape:current-layer="svg4" />
	 <path
   style="fill:#728dbe;stroke-linecap:round;stroke-linejoin:round;stop-color:#000000"
   d="m 29.935,20 h 132.13 c 5.50399,0 9.935,4.43101 9.935,9.935 v 132.13 c 0,5.50399 -4.43101,9.935 -9.935,9.935 H 29.935 C 24.43101,172 20,167.56899 20,162.065 V 29.935 C 20,24.43101 24.43101,20 29.935,20 Z"
   id="path1382" /><g
   id="g2902"
   transform="matrix(0.76531613,0,0,0.76531613,22.529651,40.365626)"
   style="stroke-width:1.30665"><path
     id="path6238"
     style="fill:#54688c;fill-opacity:1;stroke:none;stroke-width:1.30665;stroke-linecap:round;stroke-linejoin:round;stroke-dasharray:none;stop-color:#000000"
     d="m 104.22398,142.39184 c 3.14892,1.15512 8.31457,20.62022 4.29404,18.4208 -4.19333,-2.29394 -4.45672,-8.49227 -6.04631,-14.0855 m -14.695699,-4.3353 c -3.148919,1.15512 -8.314573,20.62022 -4.294038,18.4208 4.193324,-2.29394 4.456712,-8.49227 6.046302,-14.0855 m 17.328045,-40.08128 c 2.92848,2.22961 24.3505,25.65637 13.86967,31.8256 -5.91256,3.48024 -11.90974,-7.19357 -14.67472,-16.82922 M 85.143677,106.64586 c -2.928491,2.22961 -24.350493,25.65637 -13.869667,31.8256 5.912555,3.48024 11.909738,-7.19357 14.674713,-16.82922" /><path
     id="path6244"
     style="mix-blend-mode:overlay;fill:#000000;fill-opacity:0.15;stroke:none;stroke-width:1.30665;stroke-linecap:round;stroke-linejoin:round;stroke-dasharray:none;stop-color:#000000"
     d="m 104.22398,142.39184 c 3.14892,1.15512 8.31457,20.62022 4.29404,18.4208 -4.19333,-2.29394 -4.45672,-8.49227 -6.04631,-14.0855 m -14.695699,-4.3353 c -3.148919,1.15512 -8.314573,20.62022 -4.294038,18.4208 4.193324,-2.29394 4.456712,-8.49227 6.046302,-14.0855 m 17.328045,-40.08128 c 2.92848,2.22961 24.3505,25.65637 13.86967,31.8256 -5.91256,3.48024 -11.90974,-7.19357 -14.67472,-16.82922 M 85.143677,106.64586 c -2.928491,2.22961 -24.350493,25.65637 -13.869667,31.8256 5.912555,3.48024 11.909738,-7.19357 14.674713,-16.82922" /><path
     id="path10331"
     style="display:inline;fill:#54688c;fill-opacity:1;stroke:none;stroke-width:1.30665;stroke-linecap:round;stroke-linejoin:round;stop-color:#000000"
     d="m 93.587339,172 h 4.77685 c 6.812541,-28.17357 12.084821,-59.5782 7.045631,-83.691802 H 86.540198 C 81.500995,112.4218 86.774786,143.82642 93.587339,172 Z" /><path
     style="display:inline;fill:#54688c;fill-opacity:1;stroke:none;stroke-width:1.30665;stroke-linecap:round;stroke-linejoin:round;stop-color:#000000"
     d="m 90.62168,73.063199 c -4.643267,2.446162 -8.078702,21.942154 -6.24656,34.458401 0.145524,-2.84345 0.106703,-5.68692 0.866948,-8.530373 1.807268,-2.389334 2.772368,-5.009277 3.761653,-7.622587 1.846852,-1.646298 3.480254,-2.58108 7.02767,-2.985933 3.547415,0.404853 5.180819,1.339635 7.027679,2.985933 0.98927,2.61331 1.95437,5.233253 3.76165,7.622587 0.76024,2.843453 0.72142,5.686923 0.86694,8.530373 1.83214,-12.516247 -1.60329,-32.012239 -6.24656,-34.458401 0.11833,-3.097001 -2.127511,-5.595166 -5.409709,-5.595166 -3.282198,0 -5.528034,2.498165 -5.409711,5.595166 z"
     id="path374"
     sodipodi:nodetypes="ccccccccczc" /><path
     style="display:inline;mix-blend-mode:overlay;fill:#000000;fill-opacity:0.15;stroke:none;stroke-width:1.30665;stroke-linecap:round;stroke-linejoin:round;stop-color:#000000"
     d="m 90.62168,73.063199 c -4.643267,2.446162 -8.078702,21.942154 -6.24656,34.458401 0.145524,-2.84345 0.106703,-5.68692 0.866948,-8.530373 1.807268,-2.389334 2.772368,-5.009277 3.761653,-7.622587 1.846852,-1.646298 3.480254,-2.58108 7.02767,-2.985933 3.547415,0.404853 5.180819,1.339635 7.027679,2.985933 0.98927,2.61331 1.95437,5.233253 3.76165,7.622587 0.76024,2.843453 0.72142,5.686923 0.86694,8.530373 1.83214,-12.516247 -1.60329,-32.012239 -6.24656,-34.458401 0.11833,-3.097001 -2.127511,-5.595166 -5.409709,-5.595166 -3.282198,0 -5.528034,2.498165 -5.409711,5.595166 z"
     id="path2992"
     sodipodi:nodetypes="ccccccccczc" /><path
     id="path10348"
     style="color:#000000;display:inline;mix-blend-mode:overlay;fill:#000000;fill-opacity:0.15;stroke-width:1.30665;stroke-linecap:round;stroke-linejoin:round;-inkscape-stroke:none"
     d="m 95.003432,172 h 2.094604 v -18.53944 c 5.667154,-3.09252 4.144404,-21.51936 0,-30.89959 V 91.182793 a 1.0468478,1.0468478 0 0 0 -1.046545,-1.04655 1.0468478,1.0468478 0 0 0 -1.048059,1.04655 z" /></g></svg>
