<?xml version="1.0" encoding="UTF-8" standalone="no"?>
<svg
   width="192"
   height="192"
   fill="none"
   version="1.1"
   id="svg14"
   sodipodi:docname="cfe_contigo.svg"
   xml:space="preserve"
   inkscape:version="1.2.2 (b0a8486541, 2022-12-01)"
   inkscape:export-filename="cfe_contigo.png"
   inkscape:export-xdpi="96"
   inkscape:export-ydpi="96"
   xmlns:inkscape="http://www.inkscape.org/namespaces/inkscape"
   xmlns:sodipodi="http://sodipodi.sourceforge.net/DTD/sodipodi-0.dtd"
   xmlns="http://www.w3.org/2000/svg"
   xmlns:svg="http://www.w3.org/2000/svg"><sodipodi:namedview
     id="namedview16"
     pagecolor="#505050"
     bordercolor="#eeeeee"
     borderopacity="1"
     inkscape:showpageshadow="0"
     inkscape:pageopacity="0"
     inkscape:pagecheckerboard="0"
     inkscape:deskcolor="#d1d1d1"
     showgrid="false"
     inkscape:zoom="1.7383042"
     inkscape:cx="127.71067"
     inkscape:cy="103.83683"
     inkscape:window-width="1884"
     inkscape:window-height="1055"
     inkscape:window-x="36"
     inkscape:window-y="0"
     inkscape:window-maximized="1"
     inkscape:current-layer="svg14" /><defs
     id="defs12" /><style
     type="text/css"
     id="style3535">
	.st0{fill:url(#SVGID_1_);}
	.st1{fill:#FFFFFF;}
</style><rect
     class="a"
     x="20"
     y="20"
     width="152"
     height="152"
     rx="10"
     id="rect14482"
     style="isolation:isolate;fill:#98dc9a;fill-opacity:1;stroke:none;stroke-width:0.999999;stroke-linecap:round;stroke-linejoin:round" /><path
     style="fill:none;stroke:#ffffff;stroke-width:10.5979;stroke-linecap:round;stroke-linejoin:round;stroke-dasharray:none;stroke-opacity:1;paint-order:stroke fill markers"
     id="path10676"
     sodipodi:type="arc"
     sodipodi:cx="96.138603"
     sodipodi:cy="99.075447"
     sodipodi:rx="34.244015"
     sodipodi:ry="34.244015"
     sodipodi:start="5.3445772"
     sodipodi:end="3.9727003"
     sodipodi:arc-type="arc"
     d="M 116.37378,71.449554 A 34.244015,34.244015 0 0 1 128.96036,108.84197 34.244015,34.244015 0 0 1 97.978341,133.27001 34.244015,34.244015 0 0 1 64.5542,112.30715 34.244015,34.244015 0 0 1 73.056152,73.780132"
     sodipodi:open="true" /><path
     id="path10680"
     style="fill:#ffffff;fill-opacity:1;stroke:none;stroke-width:21.0246;stroke-linecap:round;stroke-linejoin:round;stroke-dasharray:none;stroke-opacity:1;paint-order:stroke fill markers"
     d="m 107.56977,56.26591 -10.451385,19.491339 12.819475,6.873888 c 2.4239,1.299707 5.4219,0.395254 6.72161,-2.028644 l 5.75963,-10.741455 c 1.29971,-2.423898 0.39404,-5.421533 -2.02986,-6.721245 z" /><path
     id="path10682"
     style="fill:#ffffff;stroke-width:14.0166;stroke-linecap:round;stroke-linejoin:round;paint-order:stroke fill markers"
     d="m 96.986855,53.922368 c -1.240501,-0.66517 -2.774446,-0.202057 -3.439607,1.038439 -0.665166,1.240507 -0.202057,2.774447 1.038444,3.439612 l 8.162968,4.377034 2.40116,-4.478051 z m -5.275663,9.838867 c -1.240502,-0.66517 -2.774442,-0.202062 -3.439607,1.038439 -0.665166,1.240507 -0.202058,2.774442 1.038448,3.439608 l 8.162965,4.377034 2.401155,-4.478047 z" /><text
     xml:space="preserve"
     style="font-style:normal;font-variant:normal;font-weight:bold;font-stretch:normal;font-size:26.9791px;line-height:1.25;font-family:Now;-inkscape-font-specification:'Now Bold';letter-spacing:-1.93575px;fill:#ffffff;stroke-width:0.674477"
     x="90.346069"
     y="112.86849"
     id="text10754"
     transform="skewX(-11.069371)"><tspan
       sodipodi:role="line"
       id="tspan10752"
       x="90.346069"
       y="112.86849"
       style="fill:#ffffff;stroke-width:0.674477">CFE</tspan></text></svg>
