<?xml version="1.0" encoding="UTF-8"?><svg id="a" xmlns="http://www.w3.org/2000/svg" width="192" height="192" viewBox="0 0 192 192"><defs><style>.d{fill:#728dbe;}.d,.e{isolation:isolate;stroke-width:0px;}.e{fill:#fff;}</style></defs><g id="b"><g id="c"><circle class="d" cx="96" cy="96" r="88"/><path class="e" d="m126.05,113.14h-7.4c-2.8,0-9.22-1.37-5.92-9.48l15.88-39.87c.5-1.49,1.58-5.97-2.88-8.1-3.73-1.8-6.85.2-8.96,3.67l-31.23,50.6c-.29.58-1.99,2.66-4.51,1.4-2.56-1.15-2.35-3.55-1.77-4.82l17.87-43.32c1.09-2.7.83-5.03-.2-6.73-1.1-1.8-3.07-2.87-5.15-2.87h-14.23l11.55-27.61-35.94,41.38-.24,43.61,12.39-29.31h9.01c1.94.07,3.95.36,5.63,3.04,1.75,2.85.07,6.7.07,6.7l-16.72,39.75c-.36.79-1.87,5.75,2.92,7.9,4.75,2.13,7.72-1.56,8.58-3.04l31.86-50.24s1.72-3.26,4.84-1.49c2.88,1.63,1.29,4.93,1.29,4.93l-17.44,43.33c-1.48,4.05.65,8.59,6.97,8.59h12.34l-10.35,24.83,34.77-38.28-.91-44.3-12.12,29.72Z"/></g></g></svg>