<?xml version="1.0" encoding="UTF-8"?>
<svg version="1.1" viewBox="0 0 192 192" xmlns="http://www.w3.org/2000/svg">
 <rect class="a" x="20" y="20" width="152" height="152" rx="10" style="fill:#73ada4"/>
 <path d="m76.973 58.36 2.9878 47.49 4.0885 6.7618h23.431l4.8748-6.2901 3.145-48.119c-13.244-5.1703-26.121-5.5713-38.527 0.15725z" style="fill:#fff;stroke-linecap:round;stroke-linejoin:round;stroke-width:6.2901"/>
 <rect x="69.739" y="65.436" width="11.008" height="5.5038" rx="2.0443" style="fill:#fff;stroke-linecap:round;stroke-linejoin:round;stroke-width:6.2901"/>
 <rect x="65.808" y="61.662" width="5.2679" height="12.423" rx="2.634" style="fill:#fff;stroke-linecap:round;stroke-linejoin:round;stroke-width:6.2901"/>
 <rect x="71.076" y="82.262" width="11.008" height="5.5038" rx="2.0443" style="fill:#fff;stroke-linecap:round;stroke-linejoin:round;stroke-width:6.2901"/>
 <rect x="67.144" y="78.488" width="5.2679" height="12.423" rx="2.634" style="fill:#fff;stroke-linecap:round;stroke-linejoin:round;stroke-width:6.2901"/>
 <rect x="72.884" y="99.088" width="11.008" height="5.5038" rx="2.0443" style="fill:#fff;stroke-linecap:round;stroke-linejoin:round;stroke-width:6.2901"/>
 <rect x="68.953" y="95.314" width="5.2679" height="12.423" rx="2.634" style="fill:#fff;stroke-linecap:round;stroke-linejoin:round;stroke-width:6.2901"/>
 <rect transform="scale(-1,1)" x="-122.26" y="65.436" width="11.008" height="5.5038" rx="2.0443" style="fill:#fff;stroke-linecap:round;stroke-linejoin:round;stroke-width:6.2901"/>
 <rect transform="scale(-1,1)" x="-126.19" y="61.662" width="5.2679" height="12.423" rx="2.634" style="fill:#fff;stroke-linecap:round;stroke-linejoin:round;stroke-width:6.2901"/>
 <rect transform="scale(-1,1)" x="-120.92" y="82.262" width="11.008" height="5.5038" rx="2.0443" style="fill:#fff;stroke-linecap:round;stroke-linejoin:round;stroke-width:6.2901"/>
 <rect transform="scale(-1,1)" x="-124.86" y="78.488" width="5.2679" height="12.423" rx="2.634" style="fill:#fff;stroke-linecap:round;stroke-linejoin:round;stroke-width:6.2901"/>
 <rect transform="scale(-1,1)" x="-119.12" y="99.088" width="11.008" height="5.5038" rx="2.0443" style="fill:#fff;stroke-linecap:round;stroke-linejoin:round;stroke-width:6.2901"/>
 <rect transform="scale(-1,1)" x="-123.05" y="95.314" width="5.2679" height="12.423" rx="2.634" style="fill:#fff;stroke-linecap:round;stroke-linejoin:round;stroke-width:6.2901"/>
 <path d="m89.789 64.964v34.595" style="stroke-linecap:round;stroke-linejoin:round;stroke-width:5.0321;stroke:#73ada4"/>
 <path d="m102.21 64.964v34.595" style="stroke-linecap:round;stroke-linejoin:round;stroke-width:5.0321;stroke:#73ada4"/>
 <path d="m84.733 115.18h22.35l0.72276 8.3395h-23.351z" style="fill:#fff"/>
 <path d="m84.733 126.35h22.684v8.8955c0 0.98416-0.54768 2.5569-2.0878 2.5569h-18.872c-0.93609 0-1.7506-1.2597-1.7506-2.1958 0-2.9692 0.02711-9.2566 0.02711-9.2566z" style="fill:#fff"/>
</svg>
