<?xml version="1.0" encoding="UTF-8"?>
<svg version="1.1" viewBox="0 0 192 192" xmlns="http://www.w3.org/2000/svg">
 <circle class="a" cx="96" cy="96" r="88" style="fill:#fff"/>
 <path d="m115.32 124.84c-0.14702-0.0192 0.14702 0.0192 0 0zm-51.208-12.154c-12.345-6.152-14.257-23.207-3.6214-32.31 3.1387-2.6866 8.6542-4.7645 12.647-4.7645 1.5822 0 2.9432-0.66878 4.3508-2.138 1.1266-1.1759 4.0837-3.0784 6.5713-4.2279 3.9096-1.8065 5.4203-2.0899 11.14-2.0899 5.6907 0 7.2254 0.28468 10.957 2.0326 4.2827 2.0058 5.4562 3.4995 1.5965 2.032-2.9222-1.111-12.101-0.92014-16.344 0.33982-4.6935 1.3938-9.232 4.6763-11.772 8.5138-1.8223 2.7536-2.1893 2.9654-4.415 2.5479-5.2491-0.98473-11.907 2.5737-13.946 7.4535-2.4213 5.7949-0.1044 12.953 5.1984 16.061 2.7062 1.586 4.0078 1.8278 9.8373 1.8278h6.7184l-0.41288-2.3897c-0.22709-1.3143-0.53931-2.8033-0.69383-3.3088-0.15451-0.5055-0.01875-0.9191 0.30164-0.9191 0.50226 0 11.688 9.2317 14.786 12.202 0.92595 0.88809-1.0352 1.0326-14.01 1.0326-14.74 0-15.174-0.0435-18.89-1.8954z" style="fill:#ff837d;stroke-width:.73528"/>
 <path d="m107.15 118.54c-4.3474-3.4459-7.9043-6.5735-7.9043-6.9502 0-0.39636 5.2825-0.685 12.536-0.685 13.967 0 15.839-0.47186 18.375-4.6312 1.8951-3.1081 1.8767-8.0926-0.0413-11.196-2.0842-3.3724-5.9208-5.0316-10.585-4.5777l-3.7419 0.36424-1.8382-3.7647c-2.1239-4.3498-6.6321-8.0962-11.244-9.3441-4.4258-1.1975-12.346-0.48116-15.545 1.4059-3.9318 2.3198-3.1607 0.43593 0.86983-2.1251 10.389-6.6011 23.614-5.1451 29.715 3.2714 1.7423 2.4036 2.5638 2.9023 5.1663 3.1367 4.6289 0.41694 10.139 3.8406 12.64 7.8535 5.4088 8.6792 3.0187 18.942-5.6612 24.308-2.8971 1.7912-4.5088 2.2212-9.3827 2.5033l-5.8847 0.34066 0.48175 3.2125c0.26496 1.7669 0.36146 3.1968 0.21444 3.1776-0.14702-0.0192-3.8242-2.8543-8.1716-6.3002z" style="fill:#728dbe;stroke-width:.73528"/>
</svg>
