<svg id="Camada_1" data-name="Camada 1" xmlns="http://www.w3.org/2000/svg" viewBox="0 0 192 192">
  <defs>
    <style>
      .cls-1 {
        fill: #ffb0ac;
      }

      .cls-2 {
        fill: #f58f8a;
      }

      .cls-3 {
        fill: #dc505e;
      }

      .cls-4 {
        fill: #fdf5d9;
      }

      .cls-5 {
        fill: #8e6f60;
      }

      .cls-6 {
        fill: #fff;
      }

      .cls-7 {
        fill: #56595b;
      }

      .cls-8 {
        fill: #979797;
      }
    </style>
  </defs>
  <g>
    <g>
      <polygon class="cls-1" points="135.983 114.625 135.983 117.29 135.983 119.965 135.983 122.62 135.983 125.295 135.983 127.949 135.983 130.624 135.983 133.289 135.983 135.954 138.648 135.954 138.648 133.289 138.648 130.624 138.648 127.949 138.648 125.295 138.648 122.62 138.648 119.965 138.648 117.29 138.648 114.625 135.983 114.625"/>
      <rect class="cls-1" x="130.6534" y="143.9488" width="2.6549" height="2.6649"/>
      <polygon class="cls-1" points="127.979 149.289 125.324 149.289 125.324 151.943 122.649 151.943 119.984 151.943 117.329 151.943 117.329 149.289 114.654 149.289 114.654 146.614 114.654 143.949 117.329 143.949 119.984 143.949 122.649 143.949 125.324 143.949 125.324 141.284 127.979 141.284 127.979 138.619 130.653 138.619 130.653 135.954 127.979 135.954 127.979 133.289 125.324 133.289 125.324 135.954 125.324 138.619 122.649 138.619 122.649 141.284 119.984 141.284 117.329 141.284 117.329 138.619 114.654 138.619 114.654 135.954 111.989 135.954 111.989 133.289 111.989 130.624 111.989 127.949 111.989 125.295 111.989 122.62 111.989 119.965 111.989 117.29 111.989 114.625 111.989 111.96 111.989 109.295 114.654 109.295 114.654 106.631 117.329 106.631 119.984 106.631 122.649 106.631 125.324 106.631 125.324 109.295 127.979 109.295 127.979 111.96 127.979 114.625 127.979 117.29 127.979 119.965 127.979 122.62 127.979 125.295 127.979 127.949 130.653 127.949 130.653 125.295 130.653 122.62 130.653 119.965 130.653 117.29 130.653 114.625 130.653 111.96 130.653 109.295 130.653 106.631 127.979 106.631 127.979 103.966 125.324 103.966 122.649 103.966 119.984 103.966 117.329 103.966 114.654 103.966 111.989 103.966 109.324 103.966 109.324 106.631 106.659 106.631 106.659 109.295 106.659 111.96 106.659 114.625 106.659 117.29 106.659 119.965 106.659 122.62 106.659 125.295 103.985 125.295 103.985 127.949 103.985 130.624 103.985 133.289 101.33 133.289 101.33 135.954 101.33 138.619 98.655 138.619 96 138.619 93.345 138.619 90.67 138.619 90.67 135.954 90.67 133.289 88.015 133.289 88.015 130.624 88.015 127.949 88.015 125.295 85.341 125.295 85.341 122.62 85.341 119.965 85.341 117.29 85.341 114.625 85.341 111.96 85.341 109.295 85.341 106.631 82.676 106.631 82.676 103.966 80.011 103.966 77.346 103.966 74.671 103.966 72.016 103.966 69.351 103.966 66.676 103.966 64.021 103.966 64.021 106.631 61.347 106.631 61.347 109.295 61.347 111.96 61.347 114.625 61.347 117.29 61.347 119.965 61.347 122.62 61.347 125.295 61.347 127.949 64.021 127.949 64.021 125.295 64.021 122.62 64.021 119.965 64.021 117.29 64.021 114.625 64.021 111.96 64.021 109.295 66.676 109.295 66.676 106.631 69.351 106.631 72.016 106.631 74.671 106.631 77.346 106.631 77.346 109.295 80.011 109.295 80.011 111.96 80.011 114.625 80.011 117.29 80.011 119.965 80.011 122.62 80.011 125.295 80.011 127.949 80.011 130.624 80.011 133.289 80.011 135.954 77.346 135.954 77.346 138.619 74.671 138.619 74.671 141.284 72.016 141.284 69.351 141.284 69.351 138.619 66.676 138.619 66.676 135.954 66.676 133.289 64.021 133.289 64.021 135.954 61.347 135.954 61.347 138.619 64.021 138.619 64.021 141.284 66.676 141.284 66.676 143.949 69.351 143.949 72.016 143.949 74.671 143.949 77.346 143.949 77.346 146.614 77.346 149.289 74.671 149.289 74.671 151.943 72.016 151.943 69.351 151.943 66.676 151.943 66.676 149.289 64.021 149.289 64.021 146.614 61.347 146.614 61.347 149.289 61.347 151.943 61.347 154.618 64.021 154.618 66.676 154.618 69.351 154.618 72.016 154.618 74.671 154.618 77.346 154.618 80.011 154.618 80.011 151.943 82.676 151.943 82.676 149.289 85.341 149.289 85.341 146.614 88.015 146.614 88.015 143.949 90.67 143.949 90.67 141.284 93.345 141.284 96 141.284 98.655 141.284 101.33 141.284 101.33 143.949 103.985 143.949 103.985 146.614 106.659 146.614 106.659 149.289 109.324 149.289 109.324 151.943 111.989 151.943 111.989 154.618 114.654 154.618 117.329 154.618 119.984 154.618 122.649 154.618 125.324 154.618 127.979 154.618 130.653 154.618 130.653 151.943 130.653 149.289 130.653 146.614 127.979 146.614 127.979 149.289"/>
      <rect class="cls-1" x="58.6917" y="143.9488" width="2.6549" height="2.6649"/>
      <polygon class="cls-1" points="53.352 117.29 53.352 119.965 53.352 122.62 53.352 125.295 53.352 127.949 53.352 130.624 53.352 133.289 53.352 135.954 56.017 135.954 56.017 133.289 56.017 130.624 56.017 127.949 56.017 125.295 56.017 122.62 56.017 119.965 56.017 117.29 56.017 114.625 53.352 114.625 53.352 117.29"/>
    </g>
    <g>
      <polygon class="cls-2" points="138.648 125.295 138.648 127.949 138.648 130.624 138.648 133.289 138.648 135.954 141.313 135.954 141.313 133.289 141.313 130.624 141.313 127.949 141.313 125.295 138.648 125.295"/>
      <polygon class="cls-2" points="133.308 114.625 133.308 117.29 133.308 119.965 133.308 122.62 133.308 125.295 133.308 127.949 133.308 130.624 133.308 133.289 135.983 133.289 135.983 130.624 135.983 127.949 135.983 125.295 135.983 122.62 135.983 119.965 135.983 117.29 135.983 114.625 135.983 111.96 133.308 111.96 133.308 114.625"/>
      <polygon class="cls-2" points="127.979 154.618 125.324 154.618 122.649 154.618 119.984 154.618 117.329 154.618 114.654 154.618 111.989 154.618 111.989 151.943 109.324 151.943 109.324 149.289 106.659 149.289 106.659 146.614 103.985 146.614 103.985 143.949 101.33 143.949 101.33 141.284 98.655 141.284 96 141.284 93.345 141.284 90.67 141.284 90.67 143.949 88.015 143.949 88.015 146.614 85.341 146.614 85.341 149.289 82.676 149.289 82.676 151.943 80.011 151.943 80.011 154.618 77.346 154.618 74.671 154.618 72.016 154.618 69.351 154.618 66.676 154.618 64.021 154.618 61.347 154.618 58.692 154.618 58.692 157.273 61.347 157.273 64.021 157.273 66.676 157.273 69.351 157.273 72.016 157.273 74.671 157.273 77.346 157.273 80.011 157.273 82.676 157.273 82.676 154.618 85.341 154.618 88.015 154.618 88.015 151.943 88.015 149.289 90.67 149.289 93.345 149.289 96 149.289 98.655 149.289 101.33 149.289 103.985 149.289 103.985 151.943 103.985 154.618 106.659 154.618 109.324 154.618 109.324 157.273 111.989 157.273 114.654 157.273 117.329 157.273 119.984 157.273 122.649 157.273 125.324 157.273 127.979 157.273 130.653 157.273 133.308 157.273 133.308 154.618 130.653 154.618 127.979 154.618"/>
      <polygon class="cls-2" points="127.979 141.284 127.979 143.949 125.324 143.949 125.324 146.614 122.649 146.614 119.984 146.614 117.329 146.614 117.329 143.949 114.654 143.949 114.654 146.614 114.654 149.289 117.329 149.289 117.329 151.943 119.984 151.943 122.649 151.943 125.324 151.943 125.324 149.289 127.979 149.289 127.979 146.614 130.653 146.614 130.653 143.949 133.308 143.949 133.308 141.284 130.653 141.284 127.979 141.284"/>
      <polygon class="cls-2" points="88.015 127.949 88.015 130.624 88.015 133.289 90.67 133.289 90.67 135.954 90.67 138.619 93.345 138.619 96 138.619 98.655 138.619 101.33 138.619 101.33 135.954 101.33 133.289 103.985 133.289 103.985 130.624 103.985 127.949 103.985 125.295 106.659 125.295 106.659 122.62 106.659 119.965 106.659 117.29 106.659 114.625 106.659 111.96 103.985 111.96 103.985 109.295 101.33 109.295 98.655 109.295 96 109.295 93.345 109.295 90.67 109.295 88.015 109.295 88.015 111.96 85.341 111.96 85.341 114.625 85.341 117.29 85.341 119.965 85.341 122.62 85.341 125.295 88.015 125.295 88.015 127.949"/>
      <polygon class="cls-2" points="58.692 143.949 61.347 143.949 61.347 146.614 64.021 146.614 64.021 149.289 66.676 149.289 66.676 151.943 69.351 151.943 72.016 151.943 74.671 151.943 74.671 149.289 77.346 149.289 77.346 146.614 77.346 143.949 74.671 143.949 74.671 146.614 72.016 146.614 69.351 146.614 66.676 146.614 66.676 143.949 64.021 143.949 64.021 141.284 61.347 141.284 58.692 141.284 58.692 143.949"/>
      <polygon class="cls-2" points="58.692 130.624 58.692 127.949 58.692 125.295 58.692 122.62 58.692 119.965 58.692 117.29 58.692 114.625 58.692 111.96 56.017 111.96 56.017 114.625 56.017 117.29 56.017 119.965 56.017 122.62 56.017 125.295 56.017 127.949 56.017 130.624 56.017 133.289 58.692 133.289 58.692 130.624"/>
      <polygon class="cls-2" points="50.687 127.949 50.687 130.624 50.687 133.289 50.687 135.954 53.352 135.954 53.352 133.289 53.352 130.624 53.352 127.949 53.352 125.295 50.687 125.295 50.687 127.949"/>
    </g>
    <g>
      <polygon class="cls-3" points="141.313 125.295 141.313 127.949 141.313 130.624 141.313 133.289 143.978 133.289 143.978 130.624 143.978 127.949 143.978 125.295 141.313 125.295"/>
      <polygon class="cls-3" points="141.313 119.965 141.313 117.29 141.313 114.625 141.313 111.96 138.648 111.96 135.983 111.96 135.983 114.625 138.648 114.625 138.648 117.29 138.648 119.965 138.648 122.62 138.648 125.295 141.313 125.295 141.313 122.62 141.313 119.965"/>
      <rect class="cls-3" x="133.3083" y="109.2954" width="2.6749" height="2.6649"/>
      <polygon class="cls-3" points="127.979 157.273 125.324 157.273 122.649 157.273 119.984 157.273 117.329 157.273 114.654 157.273 111.989 157.273 109.324 157.273 109.324 159.948 111.989 159.948 114.654 159.948 117.329 159.948 119.984 159.948 122.649 159.948 125.324 159.948 127.979 159.948 130.653 159.948 133.308 159.948 133.308 157.273 130.653 157.273 127.979 157.273"/>
      <polygon class="cls-3" points="106.659 154.618 103.985 154.618 103.985 157.273 106.659 157.273 109.324 157.273 109.324 154.618 106.659 154.618"/>
      <polygon class="cls-3" points="103.985 149.289 101.33 149.289 98.655 149.289 96 149.289 93.345 149.289 90.67 149.289 88.015 149.289 88.015 151.943 88.015 154.618 90.67 154.618 90.67 151.943 93.345 151.943 96 151.943 98.655 151.943 101.33 151.943 101.33 154.618 103.985 154.618 103.985 151.943 103.985 149.289"/>
      <polygon class="cls-3" points="93.345 109.295 96 109.295 98.655 109.295 101.33 109.295 103.985 109.295 103.985 106.631 101.33 106.631 98.655 106.631 96 106.631 93.345 106.631 90.67 106.631 88.015 106.631 88.015 109.295 90.67 109.295 93.345 109.295"/>
      <polygon class="cls-3" points="82.676 154.618 82.676 157.273 85.341 157.273 88.015 157.273 88.015 154.618 85.341 154.618 82.676 154.618"/>
      <polygon class="cls-3" points="77.346 157.273 74.671 157.273 72.016 157.273 69.351 157.273 66.676 157.273 64.021 157.273 61.347 157.273 58.692 157.273 58.692 159.948 61.347 159.948 64.021 159.948 66.676 159.948 69.351 159.948 72.016 159.948 74.671 159.948 77.346 159.948 80.011 159.948 82.676 159.948 82.676 157.273 80.011 157.273 77.346 157.273"/>
      <rect class="cls-3" x="56.0169" y="109.2954" width="2.6749" height="2.6649"/>
      <polygon class="cls-3" points="50.687 111.96 50.687 114.625 50.687 117.29 50.687 119.965 50.687 122.62 50.687 125.295 53.352 125.295 53.352 122.62 53.352 119.965 53.352 117.29 53.352 114.625 56.017 114.625 56.017 111.96 53.352 111.96 50.687 111.96"/>
      <polygon class="cls-3" points="48.022 127.949 48.022 130.624 48.022 133.289 50.687 133.289 50.687 130.624 50.687 127.949 50.687 125.295 48.022 125.295 48.022 127.949"/>
    </g>
    <g>
      <polygon class="cls-4" points="141.313 58.653 141.313 55.978 138.648 55.978 135.983 55.978 133.308 55.978 133.308 53.323 130.653 53.323 127.979 53.323 127.979 50.648 125.324 50.648 122.649 50.648 122.649 47.983 119.984 47.983 119.984 50.648 117.329 50.648 114.654 50.648 111.989 50.648 109.324 50.648 109.324 53.323 106.659 53.323 103.985 53.323 101.33 53.323 98.655 53.323 96 53.323 93.345 53.323 90.67 53.323 88.015 53.323 85.341 53.323 82.676 53.323 82.676 50.648 80.011 50.648 77.346 50.648 74.671 50.648 72.016 50.648 72.016 47.983 69.351 47.983 69.351 50.648 66.676 50.648 64.021 50.648 64.021 53.323 61.347 53.323 58.692 53.323 58.692 55.978 56.017 55.978 53.352 55.978 50.687 55.978 50.687 58.653 48.022 58.653 48.022 61.318 48.022 63.972 48.022 66.647 48.022 69.302 48.022 71.977 48.022 74.642 48.022 77.307 50.687 77.307 50.687 79.972 50.687 82.647 50.687 85.301 50.687 87.966 50.687 90.641 53.352 90.641 53.352 93.296 56.017 93.296 56.017 95.971 58.692 95.971 58.692 98.626 61.347 98.626 61.347 101.301 61.347 103.966 64.021 103.966 64.021 101.301 66.676 101.301 66.676 98.626 66.676 95.971 66.676 93.296 64.021 93.296 64.021 90.641 64.021 87.966 64.021 85.301 64.021 82.647 64.021 79.972 64.021 77.307 64.021 74.642 64.021 71.977 64.021 69.302 64.021 66.647 61.347 66.647 58.692 66.647 58.692 63.972 56.017 63.972 56.017 61.318 58.692 61.318 61.347 61.318 64.021 61.318 64.021 63.972 66.676 63.972 69.351 63.972 72.016 63.972 72.016 66.647 74.671 66.647 77.346 66.647 77.346 69.302 80.011 69.302 82.676 69.302 82.676 71.977 85.341 71.977 88.015 71.977 90.67 71.977 90.67 74.642 93.345 74.642 96 74.642 98.655 74.642 101.33 74.642 101.33 71.977 103.985 71.977 106.659 71.977 109.324 71.977 109.324 69.302 111.989 69.302 114.654 69.302 114.654 66.647 117.329 66.647 119.984 66.647 119.984 63.972 122.649 63.972 125.324 63.972 127.979 63.972 127.979 61.318 130.653 61.318 133.308 61.318 135.983 61.318 135.983 63.972 133.308 63.972 133.308 66.647 130.653 66.647 127.979 66.647 127.979 69.302 127.979 71.977 127.979 74.642 127.979 77.307 127.979 79.972 127.979 82.647 127.979 85.301 127.979 87.966 127.979 90.641 127.979 93.296 125.324 93.296 125.324 95.971 125.324 98.626 125.324 101.301 127.979 101.301 127.979 103.966 130.653 103.966 130.653 101.301 130.653 98.626 133.308 98.626 133.308 95.971 135.983 95.971 135.983 93.296 138.648 93.296 138.648 90.641 141.313 90.641 141.313 87.966 141.313 85.301 141.313 82.647 141.313 79.972 141.313 77.307 143.978 77.307 143.978 74.642 143.978 71.977 143.978 69.302 143.978 66.647 143.978 63.972 143.978 61.318 143.978 58.653 141.313 58.653"/>
      <polygon class="cls-4" points="111.989 159.948 109.324 159.948 109.324 157.273 106.659 157.273 103.985 157.273 103.985 154.618 101.33 154.618 101.33 151.943 98.655 151.943 96 151.943 93.345 151.943 90.67 151.943 90.67 154.618 88.015 154.618 88.015 157.273 85.341 157.273 82.676 157.273 82.676 159.948 80.011 159.948 77.346 159.948 74.671 159.948 74.671 162.613 77.346 162.613 80.011 162.613 82.676 162.613 85.341 162.613 88.015 162.613 90.67 162.613 93.345 162.613 96 162.613 98.655 162.613 101.33 162.613 103.985 162.613 106.659 162.613 109.324 162.613 111.989 162.613 114.654 162.613 117.329 162.613 117.329 159.948 114.654 159.948 111.989 159.948"/>
      <polygon class="cls-4" points="103.985 85.301 103.985 82.647 103.985 79.972 101.33 79.972 98.655 79.972 96 79.972 93.345 79.972 90.67 79.972 88.015 79.972 88.015 82.647 88.015 85.301 88.015 87.966 88.015 90.641 85.341 90.641 85.341 93.296 85.341 95.971 85.341 98.626 85.341 101.301 82.676 101.301 82.676 103.966 85.341 103.966 85.341 106.631 88.015 106.631 90.67 106.631 93.345 106.631 96 106.631 98.655 106.631 101.33 106.631 103.985 106.631 106.659 106.631 106.659 103.966 109.324 103.966 109.324 101.301 106.659 101.301 106.659 98.626 106.659 95.971 106.659 93.296 106.659 90.641 103.985 90.641 103.985 87.966 103.985 85.301"/>
    </g>
    <g>
      <polygon class="cls-5" points="165.307 119.965 165.307 117.29 165.307 114.625 162.632 114.625 162.632 111.96 162.632 109.295 162.632 106.631 162.632 103.966 159.977 103.966 159.977 101.301 159.977 98.626 159.977 95.971 157.302 95.971 157.302 93.296 157.302 90.641 154.647 90.641 154.647 87.966 154.647 85.301 154.647 82.647 154.647 79.972 154.647 77.307 151.972 77.307 151.972 74.642 151.972 71.977 151.972 69.302 151.972 66.647 149.308 66.647 149.308 69.302 149.308 71.977 149.308 74.642 149.308 77.307 146.653 77.307 146.653 79.972 146.653 82.647 146.653 85.301 146.653 87.966 146.653 90.641 146.653 93.296 146.653 95.971 146.653 98.626 146.653 101.301 146.653 103.966 146.653 106.631 146.653 109.295 146.653 111.96 149.308 111.96 149.308 114.625 149.308 117.29 149.308 119.965 149.308 122.62 149.308 125.295 149.308 127.949 149.308 130.624 149.308 133.289 149.308 135.954 151.972 135.954 151.972 133.289 154.647 133.289 157.302 133.289 159.977 133.289 159.977 135.954 162.632 135.954 162.632 138.619 165.307 138.619 165.307 141.284 167.972 141.284 167.972 138.619 167.972 135.954 167.972 133.289 167.972 130.624 167.972 127.949 167.972 125.295 167.972 122.62 167.972 119.965 165.307 119.965"/>
      <polygon class="cls-5" points="146.653 71.977 146.653 69.302 146.653 66.647 146.653 63.972 146.653 61.318 146.653 58.653 143.978 58.653 143.978 61.318 143.978 63.972 143.978 66.647 143.978 69.302 143.978 71.977 143.978 74.642 143.978 77.307 146.653 77.307 146.653 74.642 146.653 71.977"/>
      <polygon class="cls-5" points="141.313 79.972 141.313 82.647 141.313 85.301 141.313 87.966 141.313 90.641 143.978 90.641 143.978 87.966 143.978 85.301 143.978 82.647 143.978 79.972 143.978 77.307 141.313 77.307 141.313 79.972"/>
      <rect class="cls-5" x="141.313" y="55.9778" width="2.6649" height="2.6749"/>
      <polygon class="cls-5" points="138.648 53.323 135.983 53.323 133.308 53.323 133.308 55.978 135.983 55.978 138.648 55.978 141.313 55.978 141.313 53.323 138.648 53.323"/>
      <polygon class="cls-5" points="135.983 98.626 133.308 98.626 133.308 101.301 130.653 101.301 130.653 103.966 133.308 103.966 135.983 103.966 135.983 101.301 138.648 101.301 138.648 98.626 138.648 95.971 135.983 95.971 135.983 98.626"/>
      <polygon class="cls-5" points="130.653 50.648 127.979 50.648 127.979 53.323 130.653 53.323 133.308 53.323 133.308 50.648 130.653 50.648"/>
      <polygon class="cls-5" points="130.653 45.318 133.308 45.318 133.308 42.653 133.308 39.979 135.983 39.979 135.983 37.324 135.983 34.659 135.983 31.994 138.648 31.994 138.648 29.329 141.313 29.329 141.313 26.654 141.313 23.999 141.313 21.324 138.648 21.324 138.648 23.999 135.983 23.999 135.983 26.654 135.983 29.329 133.308 29.329 133.308 31.994 130.653 31.994 130.653 34.659 130.653 37.324 127.979 37.324 127.979 39.979 125.324 39.979 125.324 42.653 122.649 42.653 119.984 42.653 117.329 42.653 114.654 42.653 111.989 42.653 109.324 42.653 106.659 42.653 103.985 42.653 101.33 42.653 98.655 42.653 96 42.653 93.345 42.653 90.67 42.653 88.015 42.653 85.341 42.653 82.676 42.653 80.011 42.653 77.346 42.653 74.671 42.653 72.016 42.653 69.351 42.653 66.676 42.653 66.676 39.979 64.021 39.979 64.021 37.324 61.347 37.324 61.347 34.659 61.347 31.994 58.692 31.994 58.692 29.329 56.017 29.329 56.017 26.654 56.017 23.999 53.352 23.999 53.352 21.324 50.687 21.324 50.687 23.999 50.687 26.654 50.687 29.329 53.352 29.329 53.352 31.994 56.017 31.994 56.017 34.659 56.017 37.324 56.017 39.979 58.692 39.979 58.692 42.653 58.692 45.318 61.347 45.318 64.021 45.318 66.676 45.318 66.676 47.983 66.676 50.648 69.351 50.648 69.351 47.983 72.016 47.983 72.016 50.648 74.671 50.648 77.346 50.648 80.011 50.648 82.676 50.648 82.676 53.323 85.341 53.323 88.015 53.323 90.67 53.323 93.345 53.323 96 53.323 98.655 53.323 101.33 53.323 103.985 53.323 106.659 53.323 109.324 53.323 109.324 50.648 111.989 50.648 114.654 50.648 117.329 50.648 119.984 50.648 119.984 47.983 122.649 47.983 122.649 50.648 125.324 50.648 125.324 47.983 125.324 45.318 127.979 45.318 130.653 45.318"/>
      <rect class="cls-5" x="117.329" y="159.9481" width="2.6549" height="2.6649"/>
      <polygon class="cls-5" points="111.989 162.613 109.324 162.613 106.659 162.613 103.985 162.613 101.33 162.613 98.655 162.613 96 162.613 93.345 162.613 90.67 162.613 88.015 162.613 85.341 162.613 82.676 162.613 80.011 162.613 77.346 162.613 74.671 162.613 74.671 165.268 77.346 165.268 80.011 165.268 82.676 165.268 85.341 165.268 88.015 165.268 90.67 165.268 93.345 165.268 96 165.268 98.655 165.268 101.33 165.268 103.985 165.268 106.659 165.268 109.324 165.268 111.989 165.268 114.654 165.268 117.329 165.268 117.329 162.613 114.654 162.613 111.989 162.613"/>
      <rect class="cls-5" x="72.0161" y="159.9481" width="2.6549" height="2.6649"/>
      <polygon class="cls-5" points="58.692 50.648 58.692 53.323 61.347 53.323 64.021 53.323 64.021 50.648 61.347 50.648 58.692 50.648"/>
      <polygon class="cls-5" points="58.692 98.626 56.017 98.626 56.017 95.971 53.352 95.971 53.352 98.626 53.352 101.301 56.017 101.301 56.017 103.966 58.692 103.966 61.347 103.966 61.347 101.301 58.692 101.301 58.692 98.626"/>
      <polygon class="cls-5" points="53.352 53.323 50.687 53.323 50.687 55.978 53.352 55.978 56.017 55.978 58.692 55.978 58.692 53.323 56.017 53.323 53.352 53.323"/>
      <polygon class="cls-5" points="48.022 82.647 48.022 85.301 48.022 87.966 48.022 90.641 50.687 90.641 50.687 87.966 50.687 85.301 50.687 82.647 50.687 79.972 50.687 77.307 48.022 77.307 48.022 79.972 48.022 82.647"/>
      <rect class="cls-5" x="48.0222" y="55.9778" width="2.6649" height="2.6749"/>
      <polygon class="cls-5" points="45.347 61.318 45.347 63.972 45.347 66.647 45.347 69.302 45.347 71.977 45.347 74.642 45.347 77.307 48.022 77.307 48.022 74.642 48.022 71.977 48.022 69.302 48.022 66.647 48.022 63.972 48.022 61.318 48.022 58.653 45.347 58.653 45.347 61.318"/>
      <polygon class="cls-5" points="42.692 74.642 42.692 71.977 42.692 69.302 42.692 66.647 40.028 66.647 40.028 69.302 40.028 71.977 40.028 74.642 40.028 77.307 37.353 77.307 37.353 79.972 37.353 82.647 37.353 85.301 37.353 87.966 37.353 90.641 34.698 90.641 34.698 93.296 34.698 95.971 32.023 95.971 32.023 98.626 32.023 101.301 32.023 103.966 29.368 103.966 29.368 106.631 29.368 109.295 29.368 111.96 29.368 114.625 26.693 114.625 26.693 117.29 26.693 119.965 24.028 119.965 24.028 122.62 24.028 125.295 24.028 127.949 24.028 130.624 24.028 133.289 24.028 135.954 24.028 138.619 24.028 141.284 26.693 141.284 26.693 138.619 29.368 138.619 29.368 135.954 32.023 135.954 32.023 133.289 34.698 133.289 37.353 133.289 40.028 133.289 40.028 135.954 42.692 135.954 42.692 133.289 42.692 130.624 42.692 127.949 42.692 125.295 42.692 122.62 42.692 119.965 42.692 117.29 42.692 114.625 42.692 111.96 45.347 111.96 45.347 109.295 45.347 106.631 45.347 103.966 45.347 101.301 45.347 98.626 45.347 95.971 45.347 93.296 45.347 90.641 45.347 87.966 45.347 85.301 45.347 82.647 45.347 79.972 45.347 77.307 42.692 77.307 42.692 74.642"/>
    </g>
    <g>
      <polygon class="cls-6" points="167.972 146.614 167.972 143.949 165.307 143.949 165.307 141.284 162.632 141.284 162.632 138.619 159.977 138.619 159.977 135.954 157.302 135.954 154.647 135.954 154.647 138.619 151.972 138.619 151.972 141.284 149.308 141.284 149.308 138.619 149.308 135.954 146.653 135.954 143.978 135.954 143.978 138.619 141.313 138.619 141.313 141.284 143.978 141.284 143.978 143.949 141.313 143.949 141.313 141.284 138.648 141.284 138.648 138.619 135.983 138.619 135.983 135.954 133.308 135.954 133.308 138.619 133.308 141.284 135.983 141.284 135.983 143.949 135.983 146.614 135.983 149.289 135.983 151.943 133.308 151.943 133.308 154.618 135.983 154.618 135.983 157.273 135.983 159.948 135.983 162.613 138.648 162.613 141.313 162.613 141.313 165.268 143.978 165.268 146.653 165.268 149.308 165.268 151.972 165.268 154.647 165.268 157.302 165.268 159.977 165.268 159.977 162.613 162.632 162.613 165.307 162.613 167.972 162.613 167.972 159.948 170.637 159.948 170.637 157.273 170.637 154.618 170.637 151.943 170.637 149.289 170.637 146.614 167.972 146.614"/>
      <rect class="cls-6" x="130.6534" y="133.2893" width="2.6549" height="2.6649"/>
      <rect class="cls-6" x="127.9785" y="130.6244" width="2.6749" height="2.6649"/>
      <rect class="cls-6" x="125.3236" y="127.9495" width="2.6549" height="2.675"/>
      <rect class="cls-6" x="122.6488" y="125.2947" width="2.6749" height="2.6548"/>
      <rect class="cls-6" x="119.9839" y="122.6197" width="2.6649" height="2.675"/>
      <polygon class="cls-6" points="122.649 101.301 122.649 98.626 122.649 95.971 122.649 93.296 125.324 93.296 125.324 90.641 125.324 87.966 125.324 85.301 125.324 82.647 125.324 79.972 125.324 77.307 125.324 74.642 125.324 71.977 125.324 69.302 122.649 69.302 122.649 71.977 122.649 74.642 122.649 77.307 122.649 79.972 122.649 82.647 122.649 85.301 119.984 85.301 119.984 87.966 117.329 87.966 117.329 90.641 114.654 90.641 111.989 90.641 111.989 87.966 109.324 87.966 109.324 85.301 109.324 82.647 109.324 79.972 109.324 77.307 109.324 74.642 106.659 74.642 106.659 77.307 106.659 79.972 106.659 82.647 106.659 85.301 106.659 87.966 106.659 90.641 109.324 90.641 109.324 93.296 109.324 95.971 109.324 98.626 111.989 98.626 111.989 101.301 114.654 101.301 117.329 101.301 119.984 101.301 122.649 101.301"/>
      <polygon class="cls-6" points="114.654 77.307 117.329 77.307 117.329 74.642 114.654 74.642 111.989 74.642 111.989 77.307 111.989 79.972 114.654 79.972 114.654 77.307"/>
      <polygon class="cls-6" points="82.676 77.307 82.676 79.972 82.676 82.647 82.676 85.301 82.676 87.966 80.011 87.966 80.011 90.641 77.346 90.641 74.671 90.641 74.671 87.966 72.016 87.966 72.016 85.301 69.351 85.301 69.351 82.647 69.351 79.972 69.351 77.307 69.351 74.642 69.351 71.977 69.351 69.302 66.676 69.302 66.676 71.977 66.676 74.642 66.676 77.307 66.676 79.972 66.676 82.647 66.676 85.301 66.676 87.966 66.676 90.641 66.676 93.296 69.351 93.296 69.351 95.971 69.351 98.626 69.351 101.301 72.016 101.301 74.671 101.301 77.346 101.301 80.011 101.301 80.011 98.626 82.676 98.626 82.676 95.971 82.676 93.296 82.676 90.641 85.341 90.641 85.341 87.966 85.341 85.301 85.341 82.647 85.341 79.972 85.341 77.307 85.341 74.642 82.676 74.642 82.676 77.307"/>
      <polygon class="cls-6" points="77.346 79.972 80.011 79.972 80.011 77.307 80.011 74.642 77.346 74.642 74.671 74.642 74.671 77.307 77.346 77.307 77.346 79.972"/>
      <rect class="cls-6" x="69.3512" y="122.6197" width="2.6649" height="2.675"/>
      <rect class="cls-6" x="66.6764" y="125.2947" width="2.6749" height="2.6548"/>
      <rect class="cls-6" x="64.0215" y="127.9495" width="2.6549" height="2.675"/>
      <rect class="cls-6" x="61.3466" y="130.6244" width="2.6749" height="2.6649"/>
      <rect class="cls-6" x="58.6917" y="133.2893" width="2.6549" height="2.6649"/>
      <polygon class="cls-6" points="56.017 138.619 53.352 138.619 53.352 141.284 50.687 141.284 50.687 143.949 48.022 143.949 48.022 141.284 50.687 141.284 50.687 138.619 48.022 138.619 48.022 135.954 45.347 135.954 42.692 135.954 42.692 138.619 42.692 141.284 40.028 141.284 40.028 138.619 37.353 138.619 37.353 135.954 34.698 135.954 32.023 135.954 32.023 138.619 29.368 138.619 29.368 141.284 26.693 141.284 26.693 143.949 24.028 143.949 24.028 146.614 21.363 146.614 21.363 149.289 21.363 151.943 21.363 154.618 21.363 157.273 21.363 159.948 24.028 159.948 24.028 162.613 26.693 162.613 29.368 162.613 32.023 162.613 32.023 165.268 34.698 165.268 37.353 165.268 40.028 165.268 42.692 165.268 45.347 165.268 48.022 165.268 50.687 165.268 50.687 162.613 53.352 162.613 56.017 162.613 56.017 159.948 56.017 157.273 56.017 154.618 58.692 154.618 58.692 151.943 56.017 151.943 56.017 149.289 56.017 146.614 56.017 143.949 56.017 141.284 58.692 141.284 58.692 138.619 58.692 135.954 56.017 135.954 56.017 138.619"/>
    </g>
    <g>
      <polygon class="cls-7" points="167.972 119.965 167.972 122.62 167.972 125.295 167.972 127.949 167.972 130.624 167.972 133.289 167.972 135.954 167.972 138.619 167.972 141.284 167.972 143.949 170.637 143.949 170.637 141.284 170.637 138.619 170.637 135.954 170.637 133.289 170.637 130.624 170.637 127.949 170.637 125.295 170.637 122.62 170.637 119.965 167.972 119.965"/>
      <polygon class="cls-7" points="167.972 114.625 165.307 114.625 165.307 117.29 165.307 119.965 167.972 119.965 167.972 117.29 167.972 114.625"/>
      <polygon class="cls-7" points="165.307 109.295 165.307 106.631 165.307 103.966 162.632 103.966 162.632 106.631 162.632 109.295 162.632 111.96 162.632 114.625 165.307 114.625 165.307 111.96 165.307 109.295"/>
      <polygon class="cls-7" points="162.632 98.626 162.632 95.971 159.977 95.971 159.977 98.626 159.977 101.301 159.977 103.966 162.632 103.966 162.632 101.301 162.632 98.626"/>
      <polygon class="cls-7" points="159.977 90.641 157.302 90.641 157.302 93.296 157.302 95.971 159.977 95.971 159.977 93.296 159.977 90.641"/>
      <polygon class="cls-7" points="157.302 85.301 157.302 82.647 157.302 79.972 157.302 77.307 154.647 77.307 154.647 79.972 154.647 82.647 154.647 85.301 154.647 87.966 154.647 90.641 157.302 90.641 157.302 87.966 157.302 85.301"/>
      <polygon class="cls-7" points="154.647 71.977 154.647 69.302 154.647 66.647 151.972 66.647 151.972 69.302 151.972 71.977 151.972 74.642 151.972 77.307 154.647 77.307 154.647 74.642 154.647 71.977"/>
      <polygon class="cls-7" points="151.972 61.318 149.308 61.318 149.308 58.653 149.308 55.978 146.653 55.978 143.978 55.978 143.978 58.653 146.653 58.653 146.653 61.318 146.653 63.972 146.653 66.647 146.653 69.302 146.653 71.977 146.653 74.642 146.653 77.307 149.308 77.307 149.308 74.642 149.308 71.977 149.308 69.302 149.308 66.647 151.972 66.647 151.972 63.972 151.972 61.318"/>
      <polygon class="cls-7" points="146.653 117.29 146.653 119.965 146.653 122.62 146.653 125.295 146.653 127.949 146.653 130.624 146.653 133.289 149.308 133.289 149.308 130.624 149.308 127.949 149.308 125.295 149.308 122.62 149.308 119.965 149.308 117.29 149.308 114.625 149.308 111.96 146.653 111.96 146.653 114.625 146.653 117.29"/>
      <polygon class="cls-7" points="143.978 79.972 143.978 82.647 143.978 85.301 143.978 87.966 143.978 90.641 143.978 93.296 143.978 95.971 143.978 98.626 143.978 101.301 143.978 103.966 143.978 106.631 143.978 109.295 143.978 111.96 146.653 111.96 146.653 109.295 146.653 106.631 146.653 103.966 146.653 101.301 146.653 98.626 146.653 95.971 146.653 93.296 146.653 90.641 146.653 87.966 146.653 85.301 146.653 82.647 146.653 79.972 146.653 77.307 143.978 77.307 143.978 79.972"/>
      <polygon class="cls-7" points="143.978 50.648 146.653 50.648 146.653 47.983 146.653 45.318 146.653 42.653 149.308 42.653 149.308 39.979 149.308 37.324 149.308 34.659 149.308 31.994 149.308 29.329 149.308 26.654 149.308 23.999 149.308 21.324 146.653 21.324 146.653 18.66 146.653 15.995 146.653 13.33 143.978 13.33 143.978 10.655 143.978 8 141.313 8 141.313 10.655 141.313 13.33 141.313 15.995 141.313 18.66 141.313 21.324 141.313 23.999 141.313 26.654 141.313 29.329 138.648 29.329 138.648 31.994 135.983 31.994 135.983 34.659 135.983 37.324 135.983 39.979 133.308 39.979 133.308 42.653 133.308 45.318 130.653 45.318 127.979 45.318 125.324 45.318 125.324 47.983 125.324 50.648 127.979 50.648 130.653 50.648 133.308 50.648 133.308 53.323 135.983 53.323 138.648 53.323 141.313 53.323 141.313 55.978 143.978 55.978 143.978 53.323 143.978 50.648"/>
      <polygon class="cls-7" points="138.648 93.296 135.983 93.296 135.983 95.971 138.648 95.971 138.648 98.626 138.648 101.301 141.313 101.301 141.313 98.626 141.313 95.971 141.313 93.296 141.313 90.641 138.648 90.641 138.648 93.296"/>
      <rect class="cls-7" x="135.9831" y="101.3008" width="2.6649" height="2.6649"/>
      <rect class="cls-7" x="133.3083" y="95.9711" width="2.6749" height="2.6548"/>
      <polygon class="cls-7" points="130.653 103.966 127.979 103.966 127.979 106.631 130.653 106.631 130.653 109.295 130.653 111.96 130.653 114.625 130.653 117.29 130.653 119.965 130.653 122.62 130.653 125.295 130.653 127.949 130.653 130.624 133.308 130.624 133.308 127.949 133.308 125.295 133.308 122.62 133.308 119.965 133.308 117.29 133.308 114.625 133.308 111.96 133.308 109.295 133.308 106.631 135.983 106.631 135.983 103.966 133.308 103.966 130.653 103.966"/>
      <rect class="cls-7" x="130.6534" y="98.6258" width="2.6549" height="2.675"/>
      <rect class="cls-7" x="127.9785" y="138.619" width="2.6749" height="2.6649"/>
      <rect class="cls-7" x="125.3236" y="141.2839" width="2.6549" height="2.6649"/>
      <polygon class="cls-7" points="125.324 101.301 125.324 98.626 125.324 95.971 125.324 93.296 122.649 93.296 122.649 95.971 122.649 98.626 122.649 101.301 119.984 101.301 117.329 101.301 114.654 101.301 111.989 101.301 111.989 98.626 109.324 98.626 109.324 95.971 109.324 93.296 109.324 90.641 106.659 90.641 106.659 93.296 106.659 95.971 106.659 98.626 106.659 101.301 109.324 101.301 109.324 103.966 111.989 103.966 114.654 103.966 117.329 103.966 119.984 103.966 122.649 103.966 125.324 103.966 127.979 103.966 127.979 101.301 125.324 101.301"/>
      <polygon class="cls-7" points="119.984 143.949 117.329 143.949 117.329 146.614 119.984 146.614 122.649 146.614 125.324 146.614 125.324 143.949 122.649 143.949 119.984 143.949"/>
      <polygon class="cls-7" points="117.329 138.619 117.329 141.284 119.984 141.284 122.649 141.284 122.649 138.619 125.324 138.619 125.324 135.954 125.324 133.289 125.324 130.624 122.649 130.624 122.649 127.949 122.649 125.295 119.984 125.295 119.984 122.62 122.649 122.62 125.324 122.62 125.324 125.295 127.979 125.295 127.979 122.62 127.979 119.965 127.979 117.29 127.979 114.625 127.979 111.96 127.979 109.295 125.324 109.295 125.324 106.631 122.649 106.631 119.984 106.631 117.329 106.631 114.654 106.631 114.654 109.295 111.989 109.295 111.989 111.96 111.989 114.625 111.989 117.29 111.989 119.965 111.989 122.62 111.989 125.295 111.989 127.949 111.989 130.624 111.989 133.289 111.989 135.954 114.654 135.954 114.654 138.619 117.329 138.619"/>
      <rect class="cls-7" x="106.6595" y="103.9657" width="2.6649" height="2.6649"/>
      <polygon class="cls-7" points="103.985 109.295 103.985 111.96 106.659 111.96 106.659 109.295 106.659 106.631 103.985 106.631 103.985 109.295"/>
      <path class="cls-7" d="M106.66,85.3015V74.642h2.6648V87.9663h2.6649v2.6749h5.34V87.9663h2.6549V85.3015h2.6649V69.3022h2.6748V93.2961h2.6549V66.6473h5.33V63.9724h2.6748V61.3176h-8.0046v2.6548h-7.9946v2.6749h-5.33v2.6549h-5.33v2.6749H101.33V74.642H90.67V71.9771H82.6757V69.3022h-5.33V66.6473h-5.33V63.9724H64.0215V61.3176H56.0169v2.6548h2.6748v2.6749h5.33V93.2961h2.6549V69.3022h2.6748V85.3015h2.6649v2.6648H74.671v2.6749h5.34V87.9663h2.6649V74.642h2.6648V90.6412h2.6749V79.9717h15.9692v10.67H106.66v-5.34Zm5.33-7.9946V74.642h5.34v2.6649h-2.6748v2.6648h-2.665Zm-31.9784,0v2.6648h-2.665V77.3069H74.671V74.642h5.34Z"/>
      <polygon class="cls-7" points="85.341 111.96 88.015 111.96 88.015 109.295 88.015 106.631 85.341 106.631 85.341 109.295 85.341 111.96"/>
      <rect class="cls-7" x="82.6757" y="103.9657" width="2.6649" height="2.6649"/>
      <polygon class="cls-7" points="82.676 93.296 82.676 95.971 82.676 98.626 80.011 98.626 80.011 101.301 77.346 101.301 74.671 101.301 72.016 101.301 69.351 101.301 69.351 98.626 69.351 95.971 69.351 93.296 66.676 93.296 66.676 95.971 66.676 98.626 66.676 101.301 64.021 101.301 64.021 103.966 66.676 103.966 69.351 103.966 72.016 103.966 74.671 103.966 77.346 103.966 80.011 103.966 82.676 103.966 82.676 101.301 85.341 101.301 85.341 98.626 85.341 95.971 85.341 93.296 85.341 90.641 82.676 90.641 82.676 93.296"/>
      <polygon class="cls-7" points="77.346 106.631 74.671 106.631 72.016 106.631 69.351 106.631 66.676 106.631 66.676 109.295 64.021 109.295 64.021 111.96 64.021 114.625 64.021 117.29 64.021 119.965 64.021 122.62 64.021 125.295 66.676 125.295 66.676 122.62 69.351 122.62 72.016 122.62 72.016 125.295 69.351 125.295 69.351 127.949 69.351 130.624 66.676 130.624 66.676 133.289 66.676 135.954 66.676 138.619 69.351 138.619 69.351 141.284 72.016 141.284 74.671 141.284 74.671 138.619 77.346 138.619 77.346 135.954 80.011 135.954 80.011 133.289 80.011 130.624 80.011 127.949 80.011 125.295 80.011 122.62 80.011 119.965 80.011 117.29 80.011 114.625 80.011 111.96 80.011 109.295 77.346 109.295 77.346 106.631"/>
      <polygon class="cls-7" points="69.351 143.949 66.676 143.949 66.676 146.614 69.351 146.614 72.016 146.614 74.671 146.614 74.671 143.949 72.016 143.949 69.351 143.949"/>
      <rect class="cls-7" x="64.0215" y="141.2839" width="2.6549" height="2.6649"/>
      <rect class="cls-7" x="61.3466" y="138.619" width="2.6749" height="2.6649"/>
      <polygon class="cls-7" points="58.692 103.966 56.017 103.966 56.017 106.631 58.692 106.631 58.692 109.295 58.692 111.96 58.692 114.625 58.692 117.29 58.692 119.965 58.692 122.62 58.692 125.295 58.692 127.949 58.692 130.624 61.347 130.624 61.347 127.949 61.347 125.295 61.347 122.62 61.347 119.965 61.347 117.29 61.347 114.625 61.347 111.96 61.347 109.295 61.347 106.631 64.021 106.631 64.021 103.966 61.347 103.966 58.692 103.966"/>
      <rect class="cls-7" x="58.6917" y="98.6258" width="2.6549" height="2.675"/>
      <rect class="cls-7" x="56.0169" y="95.9711" width="2.6749" height="2.6548"/>
      <rect class="cls-7" x="53.352" y="101.3008" width="2.6649" height="2.6649"/>
      <polygon class="cls-7" points="53.352 95.971 56.017 95.971 56.017 93.296 53.352 93.296 53.352 90.641 50.687 90.641 50.687 93.296 50.687 95.971 50.687 98.626 50.687 101.301 53.352 101.301 53.352 98.626 53.352 95.971"/>
      <polygon class="cls-7" points="50.687 53.323 53.352 53.323 56.017 53.323 58.692 53.323 58.692 50.648 61.347 50.648 64.021 50.648 66.676 50.648 66.676 47.983 66.676 45.318 64.021 45.318 61.347 45.318 58.692 45.318 58.692 42.653 58.692 39.979 56.017 39.979 56.017 37.324 56.017 34.659 56.017 31.994 53.352 31.994 53.352 29.329 50.687 29.329 50.687 26.654 50.687 23.999 50.687 21.324 50.687 18.66 50.687 15.995 50.687 13.33 50.687 10.655 50.687 8 48.022 8 48.022 10.655 48.022 13.33 45.347 13.33 45.347 15.995 45.347 18.66 45.347 21.324 42.692 21.324 42.692 23.999 42.692 26.654 42.692 29.329 42.692 31.994 42.692 34.659 42.692 37.324 42.692 39.979 42.692 42.653 45.347 42.653 45.347 45.318 45.347 47.983 45.347 50.648 48.022 50.648 48.022 53.323 48.022 55.978 50.687 55.978 50.687 53.323"/>
      <polygon class="cls-7" points="45.347 82.647 45.347 85.301 45.347 87.966 45.347 90.641 45.347 93.296 45.347 95.971 45.347 98.626 45.347 101.301 45.347 103.966 45.347 106.631 45.347 109.295 45.347 111.96 48.022 111.96 48.022 109.295 48.022 106.631 48.022 103.966 48.022 101.301 48.022 98.626 48.022 95.971 48.022 93.296 48.022 90.641 48.022 87.966 48.022 85.301 48.022 82.647 48.022 79.972 48.022 77.307 45.347 77.307 45.347 79.972 45.347 82.647"/>
      <polygon class="cls-7" points="42.692 114.625 42.692 117.29 42.692 119.965 42.692 122.62 42.692 125.295 42.692 127.949 42.692 130.624 42.692 133.289 45.347 133.289 45.347 130.624 45.347 127.949 45.347 125.295 45.347 122.62 45.347 119.965 45.347 117.29 45.347 114.625 45.347 111.96 42.692 111.96 42.692 114.625"/>
      <polygon class="cls-7" points="42.692 55.978 42.692 58.653 42.692 61.318 40.028 61.318 40.028 63.972 40.028 66.647 42.692 66.647 42.692 69.302 42.692 71.977 42.692 74.642 42.692 77.307 45.347 77.307 45.347 74.642 45.347 71.977 45.347 69.302 45.347 66.647 45.347 63.972 45.347 61.318 45.347 58.653 48.022 58.653 48.022 55.978 45.347 55.978 42.692 55.978"/>
      <polygon class="cls-7" points="37.353 69.302 37.353 71.977 37.353 74.642 37.353 77.307 40.028 77.307 40.028 74.642 40.028 71.977 40.028 69.302 40.028 66.647 37.353 66.647 37.353 69.302"/>
      <polygon class="cls-7" points="34.698 79.972 34.698 82.647 34.698 85.301 34.698 87.966 34.698 90.641 37.353 90.641 37.353 87.966 37.353 85.301 37.353 82.647 37.353 79.972 37.353 77.307 34.698 77.307 34.698 79.972"/>
      <polygon class="cls-7" points="32.023 93.296 32.023 95.971 34.698 95.971 34.698 93.296 34.698 90.641 32.023 90.641 32.023 93.296"/>
      <polygon class="cls-7" points="29.368 98.626 29.368 101.301 29.368 103.966 32.023 103.966 32.023 101.301 32.023 98.626 32.023 95.971 29.368 95.971 29.368 98.626"/>
      <polygon class="cls-7" points="26.693 106.631 26.693 109.295 26.693 111.96 26.693 114.625 29.368 114.625 29.368 111.96 29.368 109.295 29.368 106.631 29.368 103.966 26.693 103.966 26.693 106.631"/>
      <polygon class="cls-7" points="24.028 117.29 24.028 119.965 26.693 119.965 26.693 117.29 26.693 114.625 24.028 114.625 24.028 117.29"/>
      <polygon class="cls-7" points="21.363 122.62 21.363 125.295 21.363 127.949 21.363 130.624 21.363 133.289 21.363 135.954 21.363 138.619 21.363 141.284 21.363 143.949 24.028 143.949 24.028 141.284 24.028 138.619 24.028 135.954 24.028 133.289 24.028 130.624 24.028 127.949 24.028 125.295 24.028 122.62 24.028 119.965 21.363 119.965 21.363 122.62"/>
    </g>
    <g>
      <polygon class="cls-8" points="170.637 146.614 170.637 149.289 170.637 151.943 170.637 154.618 170.637 157.273 170.637 159.948 173.301 159.948 173.301 157.273 173.301 154.618 173.301 151.943 173.301 149.289 173.301 146.614 170.637 146.614"/>
      <rect class="cls-8" x="167.9718" y="159.9481" width="2.6649" height="2.6649"/>
      <rect class="cls-8" x="167.9718" y="143.9488" width="2.6649" height="2.6649"/>
      <rect class="cls-8" x="165.3068" y="141.2839" width="2.665" height="2.6649"/>
      <polygon class="cls-8" points="162.632 162.613 159.977 162.613 159.977 165.268 157.302 165.268 154.647 165.268 151.972 165.268 149.308 165.268 146.653 165.268 143.978 165.268 141.313 165.268 141.313 167.943 143.978 167.943 146.653 167.943 149.308 167.943 149.308 170.608 151.972 170.608 154.647 170.608 157.302 170.608 157.302 167.943 159.977 167.943 162.632 167.943 165.307 167.943 165.307 165.268 167.972 165.268 167.972 162.613 165.307 162.613 162.632 162.613"/>
      <rect class="cls-8" x="162.6319" y="138.619" width="2.6749" height="2.6649"/>
      <rect class="cls-8" x="159.977" y="135.9542" width="2.6549" height="2.6649"/>
      <polygon class="cls-8" points="149.308 141.284 151.972 141.284 151.972 138.619 154.647 138.619 154.647 135.954 157.302 135.954 159.977 135.954 159.977 133.289 157.302 133.289 154.647 133.289 151.972 133.289 151.972 135.954 149.308 135.954 149.308 138.619 149.308 141.284"/>
      <rect class="cls-8" x="141.313" y="141.2839" width="2.6649" height="2.6649"/>
      <polygon class="cls-8" points="138.648 162.613 135.983 162.613 135.983 165.268 138.648 165.268 141.313 165.268 141.313 162.613 138.648 162.613"/>
      <polygon class="cls-8" points="138.648 138.619 138.648 141.284 141.313 141.284 141.313 138.619 143.978 138.619 143.978 135.954 146.653 135.954 149.308 135.954 149.308 133.289 146.653 133.289 143.978 133.289 141.313 133.289 141.313 135.954 138.648 135.954 135.983 135.954 135.983 138.619 138.648 138.619"/>
      <polygon class="cls-8" points="135.983 157.273 135.983 154.618 133.308 154.618 133.308 157.273 133.308 159.948 133.308 162.613 135.983 162.613 135.983 159.948 135.983 157.273"/>
      <polygon class="cls-8" points="135.983 151.943 135.983 149.289 135.983 146.614 135.983 143.949 135.983 141.284 133.308 141.284 133.308 143.949 133.308 146.614 130.653 146.614 130.653 149.289 130.653 151.943 130.653 154.618 133.308 154.618 133.308 151.943 135.983 151.943"/>
      <rect class="cls-8" x="133.3083" y="133.2893" width="2.6749" height="2.6649"/>
      <polygon class="cls-8" points="133.308 135.954 130.653 135.954 130.653 138.619 130.653 141.284 133.308 141.284 133.308 138.619 133.308 135.954"/>
      <rect class="cls-8" x="130.6534" y="130.6244" width="2.6549" height="2.6649"/>
      <rect class="cls-8" x="127.9785" y="133.2893" width="2.6749" height="2.6649"/>
      <rect class="cls-8" x="127.9785" y="127.9495" width="2.6749" height="2.675"/>
      <rect class="cls-8" x="125.3236" y="130.6244" width="2.6549" height="2.6649"/>
      <rect class="cls-8" x="125.3236" y="125.2947" width="2.6549" height="2.6548"/>
      <rect class="cls-8" x="122.6488" y="127.9495" width="2.6749" height="2.675"/>
      <rect class="cls-8" x="122.6488" y="122.6197" width="2.6749" height="2.675"/>
      <rect class="cls-8" x="66.6764" y="127.9495" width="2.6749" height="2.675"/>
      <rect class="cls-8" x="66.6764" y="122.6197" width="2.6749" height="2.675"/>
      <rect class="cls-8" x="64.0215" y="130.6244" width="2.6549" height="2.6649"/>
      <rect class="cls-8" x="64.0215" y="125.2947" width="2.6549" height="2.6548"/>
      <rect class="cls-8" x="61.3466" y="133.2893" width="2.6749" height="2.6649"/>
      <rect class="cls-8" x="61.3466" y="127.9495" width="2.6749" height="2.675"/>
      <polygon class="cls-8" points="58.692 138.619 58.692 141.284 61.347 141.284 61.347 138.619 61.347 135.954 58.692 135.954 58.692 138.619"/>
      <rect class="cls-8" x="58.6917" y="130.6244" width="2.6549" height="2.6649"/>
      <polygon class="cls-8" points="56.017 157.273 56.017 159.948 56.017 162.613 58.692 162.613 58.692 159.948 58.692 157.273 58.692 154.618 56.017 154.618 56.017 157.273"/>
      <polygon class="cls-8" points="56.017 143.949 56.017 146.614 56.017 149.289 56.017 151.943 58.692 151.943 58.692 154.618 61.347 154.618 61.347 151.943 61.347 149.289 61.347 146.614 58.692 146.614 58.692 143.949 58.692 141.284 56.017 141.284 56.017 143.949"/>
      <rect class="cls-8" x="56.0169" y="133.2893" width="2.6749" height="2.6649"/>
      <polygon class="cls-8" points="50.687 162.613 50.687 165.268 53.352 165.268 56.017 165.268 56.017 162.613 53.352 162.613 50.687 162.613"/>
      <rect class="cls-8" x="48.0222" y="141.2839" width="2.6649" height="2.6649"/>
      <polygon class="cls-8" points="45.347 165.268 42.692 165.268 40.028 165.268 37.353 165.268 34.698 165.268 32.023 165.268 32.023 162.613 29.368 162.613 26.693 162.613 24.028 162.613 24.028 165.268 26.693 165.268 26.693 167.943 29.368 167.943 32.023 167.943 34.698 167.943 34.698 170.608 37.353 170.608 40.028 170.608 42.692 170.608 42.692 167.943 45.347 167.943 48.022 167.943 50.687 167.943 50.687 165.268 48.022 165.268 45.347 165.268"/>
      <polygon class="cls-8" points="48.022 135.954 48.022 138.619 50.687 138.619 50.687 141.284 53.352 141.284 53.352 138.619 56.017 138.619 56.017 135.954 53.352 135.954 50.687 135.954 50.687 133.289 48.022 133.289 45.347 133.289 42.692 133.289 42.692 135.954 45.347 135.954 48.022 135.954"/>
      <polygon class="cls-8" points="37.353 135.954 37.353 138.619 40.028 138.619 40.028 141.284 42.692 141.284 42.692 138.619 42.692 135.954 40.028 135.954 40.028 133.289 37.353 133.289 34.698 133.289 32.023 133.289 32.023 135.954 34.698 135.954 37.353 135.954"/>
      <rect class="cls-8" x="29.3681" y="135.9542" width="2.6549" height="2.6649"/>
      <rect class="cls-8" x="26.6932" y="138.619" width="2.6749" height="2.6649"/>
      <rect class="cls-8" x="24.0282" y="141.2839" width="2.665" height="2.6649"/>
      <rect class="cls-8" x="21.3634" y="159.9481" width="2.6649" height="2.6649"/>
      <rect class="cls-8" x="21.3634" y="143.9488" width="2.6649" height="2.6649"/>
      <polygon class="cls-8" points="21.363 154.618 21.363 151.943 21.363 149.289 21.363 146.614 18.699 146.614 18.699 149.289 18.699 151.943 18.699 154.618 18.699 157.273 18.699 159.948 21.363 159.948 21.363 157.273 21.363 154.618"/>
    </g>
  </g>
</svg>
