<?xml version="1.0" encoding="UTF-8"?>
<svg id="a" version="1.1" viewBox="0 0 192 192" xmlns="http://www.w3.org/2000/svg"><defs><style>.b{fill:none;stroke:#fff;stroke-linecap:round;stroke-linejoin:round;}</style></defs><circle cx="96" cy="96" r="88" fill="#fff"/><path d="m98.696 56.007-15.062 56.223c3.3585 1.083 6.8192 1.884 10.338 2.393l2.7935-10.428h38.909c1.3814-11.196-1.66-22.591-8.6223-31.665-6.9624-9.0736-17.184-14.96-28.357-16.523zm7.4759 13.101c4.8417 2.1899 9.1435 5.5498 12.466 9.8792 3.3225 4.3299 5.4567 9.355 6.3191 14.6h-25.345z" fill="#56595b"/><path d="m111.52 110.47c-4.6262 7.5605-13.495 11.788-22.661 10.172-11.326-1.997-19.172-12.221-18.17-23.678.81153-9.2758 7.1956-16.75 15.7-19.26l3.042-11.351c-15.436 1.5466-27.931 13.94-29.309 29.686-1.4734 16.841 10.247 32.113 26.896 35.049 15.562 2.7441 30.762-6.1129 36.253-20.617z" fill="#56595b"/></svg>
