<?xml version="1.0" encoding="UTF-8"?>
<svg version="1.1" viewBox="0 0 192 192" xmlns="http://www.w3.org/2000/svg">
 <defs>
  <clipPath id="clipPath7">
   <rect class="a" x="20" y="20" width="152" height="152" rx="10" style="fill:#728dbe"/>
  </clipPath>
  <clipPath id="clipPath8">
   <rect class="a" x="20" y="20" width="152" height="152" rx="10" style="fill:#728dbe"/>
  </clipPath>
  <clipPath id="clipPath9">
   <rect class="a" x="20" y="20" width="152" height="152" rx="10" style="fill:#728dbe"/>
  </clipPath>
  <clipPath id="clipPath10">
   <rect class="a" x="20" y="20" width="152" height="152" rx="10" style="fill:#728dbe"/>
  </clipPath>
  <clipPath id="clipPath11">
   <rect class="a" x="20" y="20" width="152" height="152" rx="10" style="fill:#728dbe"/>
  </clipPath>
  <clipPath id="clipPath13">
   <rect class="a" x="20" y="20" width="152" height="152" rx="10" style="fill:#728dbe"/>
  </clipPath>
 </defs>
 <rect class="a" x="20" y="20" width="152" height="152" rx="10" style="fill:#728dbe"/>
 <path d="m21.853 15.203v114.14l8.8564 15.34" clip-path="url(#clipPath13)" style="fill:none;stroke-linecap:round;stroke-linejoin:round;stroke-width:5.9682;stroke:#f9de81"/>
 <circle cx="38.7" cy="153.53" r="11.501" style="fill:none;stroke-linecap:round;stroke-linejoin:round;stroke-width:5.9682;stroke:#f9de81"/>
 <path d="m44.635-7.8832v114.14l8.8564 15.34" clip-path="url(#clipPath11)" style="fill:none;stroke-linecap:round;stroke-linejoin:round;stroke-width:5.9682;stroke:#f9de81"/>
 <circle cx="61.483" cy="130.44" r="11.501" style="fill:none;stroke-linecap:round;stroke-linejoin:round;stroke-width:5.9682;stroke:#f9de81"/>
 <path d="m67.417-30.637v114.14l8.8564 15.34" clip-path="url(#clipPath10)" style="fill:none;stroke-linecap:round;stroke-linejoin:round;stroke-width:5.9682;stroke:#f9de81"/>
 <circle cx="84.265" cy="107.69" r="11.501" style="fill:none;stroke-linecap:round;stroke-linejoin:round;stroke-width:5.9682;stroke:#f9de81"/>
 <path d="m170.15 176.8v-114.14l-8.8564-15.34" clip-path="url(#clipPath9)" style="fill:none;stroke-linecap:round;stroke-linejoin:round;stroke-width:5.9682;stroke:#f9de81"/>
 <circle transform="scale(-1)" cx="-153.3" cy="-38.472" r="11.501" style="fill:none;stroke-linecap:round;stroke-linejoin:round;stroke-width:5.9682;stroke:#f9de81"/>
 <path d="m147.37 199.88v-114.14l-8.8564-15.34" clip-path="url(#clipPath8)" style="fill:none;stroke-linecap:round;stroke-linejoin:round;stroke-width:5.9682;stroke:#f9de81"/>
 <circle transform="scale(-1)" cx="-130.52" cy="-61.559" r="11.501" style="fill:none;stroke-linecap:round;stroke-linejoin:round;stroke-width:5.9682;stroke:#f9de81"/>
 <path d="m124.58 222.64v-114.14l-8.8564-15.34" clip-path="url(#clipPath7)" style="fill:none;stroke-linecap:round;stroke-linejoin:round;stroke-width:5.9682;stroke:#f9de81"/>
 <circle transform="scale(-1)" cx="-107.74" cy="-84.312" r="11.501" style="fill:none;stroke-linecap:round;stroke-linejoin:round;stroke-width:5.9682;stroke:#f9de81"/>
</svg>
