<svg width="192" height="192" viewBox="0 0 192 192" fill="none" xmlns="http://www.w3.org/2000/svg">
<path d="M162 20H30C24.4772 20 20 24.4772 20 30V162C20 167.523 24.4772 172 30 172H162C167.523 172 172 167.523 172 162V30C172 24.4772 167.523 20 162 20Z" fill="white"/>
<path fill-rule="evenodd" clip-rule="evenodd" d="M60.6822 20C55.7235 58.8483 40.1782 90.1156 20 102.773V30C20 24.4772 24.4772 20 30 20H60.6822Z" fill="#FF837D"/>
<path fill-rule="evenodd" clip-rule="evenodd" d="M119.96 20C103.659 41.7099 65.3673 57.3396 20 58.8373V30C20 24.4772 24.4772 20 30 20H119.96Z" fill="#9ABEFF"/>
<path fill-rule="evenodd" clip-rule="evenodd" d="M60.6822 20C59.068 32.6461 56.332 44.4888 52.6796 55.1478C42.3934 57.1876 31.4209 58.4602 20 58.8373V30C20 24.4772 24.4772 20 30 20H60.6822Z" fill="#8C72BD"/>
<path d="M97.2888 128.826C79.7436 128.826 65.5009 114.583 65.5009 97.0377C65.5009 79.4925 79.7436 65.2498 97.2888 65.2498C109.571 65.2498 120.201 72.1647 125.465 82.2791L113.699 88.3683C110.706 82.4855 104.617 78.5636 97.2888 78.5636C86.8649 78.5636 78.9179 86.6138 78.9179 97.0377C78.9179 107.462 86.8649 115.512 97.2888 115.512C104.617 115.512 110.706 111.59 113.699 105.707L125.465 111.796C120.201 121.911 109.571 128.826 97.2888 128.826ZM138.959 89.6068H132.147L139.165 64.6306H150.105L138.959 89.6068Z" fill="#4A4A4A"/>
</svg>
