<?xml version="1.0" encoding="UTF-8" standalone="no"?>
<svg
   width="192"
   height="192"
   fill="none"
   version="1.1"
   id="svg14"
   sodipodi:docname="cube_acr.svg"
   xml:space="preserve"
   inkscape:version="1.2.2 (b0a8486541, 2022-12-01)"
   inkscape:export-filename="cube_acr.png"
   inkscape:export-xdpi="96"
   inkscape:export-ydpi="96"
   xmlns:inkscape="http://www.inkscape.org/namespaces/inkscape"
   xmlns:sodipodi="http://sodipodi.sourceforge.net/DTD/sodipodi-0.dtd"
   xmlns:xlink="http://www.w3.org/1999/xlink"
   xmlns="http://www.w3.org/2000/svg"
   xmlns:svg="http://www.w3.org/2000/svg"><sodipodi:namedview
     id="namedview16"
     pagecolor="#505050"
     bordercolor="#eeeeee"
     borderopacity="1"
     inkscape:showpageshadow="0"
     inkscape:pageopacity="0"
     inkscape:pagecheckerboard="0"
     inkscape:deskcolor="#d1d1d1"
     showgrid="false"
     inkscape:zoom="4"
     inkscape:cx="84"
     inkscape:cy="97.125"
     inkscape:window-width="1884"
     inkscape:window-height="1055"
     inkscape:window-x="36"
     inkscape:window-y="0"
     inkscape:window-maximized="1"
     inkscape:current-layer="svg14" /><defs
     id="defs12"><linearGradient
       inkscape:collect="always"
       id="linearGradient9727"><stop
         style="stop-color:#f58f8a;stop-opacity:1;"
         offset="0"
         id="stop9723" /><stop
         style="stop-color:#8c72bd;stop-opacity:1;"
         offset="0.5"
         id="stop15720" /><stop
         style="stop-color:#96dfd3;stop-opacity:1;"
         offset="1"
         id="stop9725" /></linearGradient><linearGradient
       inkscape:collect="always"
       xlink:href="#linearGradient9727"
       id="linearGradient9729"
       x1="65.535652"
       y1="124.10546"
       x2="126.16267"
       y2="62.339966"
       gradientUnits="userSpaceOnUse" /></defs><style
     type="text/css"
     id="style3535">
	.st0{fill:url(#SVGID_1_);}
	.st1{fill:#FFFFFF;}
</style><rect
     class="a"
     x="19.999998"
     y="22.481262"
     width="152"
     height="152"
     rx="10"
     id="rect338"
     style="isolation:isolate;fill:#ffffff;fill-opacity:1;stroke:none;stroke-width:0.999999;stroke-linecap:round;stroke-linejoin:round" /><path
     id="rect6703"
     style="fill:url(#linearGradient9729);fill-opacity:1;stroke-width:10.323;stroke-linecap:round;stroke-linejoin:round;paint-order:stroke fill markers"
     d="m 131.09843,74.931181 c -0.27464,-0.02092 -0.57527,0.02323 -0.89298,0.141933 L 99.923812,86.388623 c -1.270874,0.474831 -2.294559,1.949125 -2.294559,3.305821 v 40.828906 c 0,1.35666 1.023685,2.06563 2.294559,1.5908 l 30.281638,-11.31311 c 1.27087,-0.47483 2.29456,-1.94912 2.29456,-3.30582 V 76.666321 c 0,-1.017514 -0.57767,-1.672755 -1.40158,-1.7357 z m -14.53318,13.841265 c 1.47607,0.0233 2.5252,1.139013 2.5252,2.918461 v 9.110213 c 0,2.27769 -1.71921,4.75293 -3.85284,5.55011 -2.13364,0.79718 -3.8499,-0.39535 -3.8499,-2.67305 v -9.107246 c 0,-2.277698 1.71626,-4.752929 3.8499,-5.550111 0.46673,-0.174385 0.91437,-0.254884 1.32764,-0.248377 z m 6.59685,12.785644 a 1.9256632,1.9256633 89.182644 0 1 0.57955,0.16263 1.9256632,1.9256633 89.182644 0 1 0.94918,2.55475 c -2e-5,1e-5 -2.45052,5.29262 -7.52532,8.00139 v 4.10122 a 1.9256632,1.9256633 89.182644 0 1 -1.9279,1.92495 1.9256632,1.9256633 89.182644 0 1 -1.92494,-1.92496 v -2.91845 c -2.00888,0.19775 -3.83205,-0.0371 -5.05631,-0.71261 -1.71247,-0.94489 -2.64939,-2.28865 -2.64939,-2.28865 a 1.9256632,1.9256633 89.182644 0 1 0.47902,-2.67894 1.9256632,1.9256633 89.182644 0 1 2.68192,0.47901 c 0,0 0.41788,0.59967 1.3513,1.11474 0.9334,0.51497 2.18748,0.91513 4.27272,0.13603 4.17095,-1.55837 6.79792,-6.83931 6.79792,-6.83931 a 1.9256632,1.9256633 89.182644 0 1 1.97225,-1.1118 z M 60.898617,74.931185 c -0.823906,0.06294 -1.398614,0.718186 -1.398614,1.735701 v 40.828904 c 0,1.35669 1.023677,2.83098 2.294556,3.30582 l 30.281633,11.3131 c 1.27088,0.47483 2.291601,-0.23412 2.291601,-1.59081 V 89.694996 c 0,-1.356686 -1.020721,-2.830983 -2.291601,-3.305817 L 61.794559,75.073066 c -0.31772,-0.118709 -0.621306,-0.162919 -0.895942,-0.141933 z m 7.92154,13.578093 c 1.106209,0.167785 1.974883,1.491054 3.066309,3.155016 a 61.647706,42.518961 50.290803 0 0 0.603207,0.913682 64.299919,44.348216 50.290806 0 0 0.62095,0.904812 c 1.539511,2.226068 2.747004,3.971384 0.990562,4.89663 -1.255949,0.661646 -2.942905,0.38403 -4.464922,-0.579554 0.270175,2.269346 1.437787,5.175406 3.566024,8.098956 2.345168,3.22138 5.104428,5.43134 7.418867,6.39282 -0.666766,-2.0547 -0.213764,-3.99382 1.303994,-4.79314 1.75477,-0.9245 2.814533,0.69098 4.269766,2.90959 0.193657,0.29507 0.392971,0.59867 0.603209,0.91073 a 64.299919,44.348216 50.290806 0 0 0.620949,0.90777 c 1.539511,2.22622 2.747156,3.97144 0.990562,4.89663 a 5.8753882,4.0523066 50.290805 0 1 -0.446492,0.18924 c -4.397647,2.75457 -12.586382,-1.36532 -18.291396,-9.20188 -5.705015,-7.8364 -6.763169,-16.420935 -2.365522,-19.175507 l 0.006,0.0089 a 5.9067114,4.0739105 50.290804 0 1 0.304561,-0.186285 c 0.438691,-0.231126 0.834723,-0.304308 1.203458,-0.248381 z M 93.692138,60.055431 62.602654,69.901076 a 2.738164,1.0426447 0 0 0 -0.185323,1.538891 l 31.460123,11.979598 a 3.0012793,1.1428344 0 0 0 4.244471,-1e-6 L 129.58206,71.439972 a 2.7381646,1.0426449 0 0 0 -0.18532,-1.538896 L 98.307255,60.055434 a 3.6087564,1.374151 0 0 0 -4.615117,-3e-6 z" /></svg>
