<?xml version="1.0" encoding="UTF-8"?>
<svg version="1.1" viewBox="0 0 192 192" xmlns="http://www.w3.org/2000/svg">
 <style type="text/css">.st0{fill:#242425;}
	.st1{fill:#FFFFFF;}</style>
 <g transform="matrix(.35168 0 0 .35168 8.0735 8.063)">
  <path class="st0" d="m436.2 215c-0.6 3-2 6.4-4.3 10.4l18.2 18.2c2.4-4.8 6.2-13.1 8.2-22.9 4.1-20.2-0.5-37.1-13.7-50.3-24.2-24.2-49.4-26.4-81.8-7.3-7.8 4.6-16.1 10.6-24.6 17.7-19.5 16.3-41.3 39.5-64.9 69.2 15.4 19.4 30.2 36.2 43.8 49.8 6.3 6.3 12.4 12 18.3 17.1l16.2-16.2c-5.9-5-12.1-10.7-18.4-17-9-9-18.5-19.5-28.4-31.2l-2.1-2.5 2.1-2.5c18.1-21.5 35-38.6 50.1-50.9 9.6-7.8 18.6-13.8 26.7-17.7 7-3.4 13.4-5.3 19-5.6 2.7-0.2 6.9-0.1 12.1 2 5 2.1 10.2 5.8 15.7 11.3 2.1 2.1 5 5.4 6.8 10.4 1.9 5.1 2.3 11 1 18z" style="fill:#56595b"/>
  <path class="st0" d="m340.9 354.7 81.5-81.5c-4.8-7.1-11.1-14-14.6-17.7l-80.5 80.5c5.2 6.4 9.8 12.6 13.6 18.7z" style="fill:#56595b"/>
  <path class="st0" d="m444.6 329.6c13.2-13.2 17.8-30.1 13.7-50.3-2.8-14-9.1-24.9-10.3-26.9l-65.4-65.4c-6 3.1-12.5 7.4-19.4 12.8l50.1 50.1c4.1 4.3 12.1 13 17.4 21.6 3.2 5.2 5.1 9.7 5.6 13.5 1.2 6.9 0.9 12.7-0.9 17.9-1.8 5-4.8 8.3-6.8 10.4-5.9 5.9-11.3 9.7-16.7 11.7-5.5 2-10 1.8-13.3 1.4-4.4-0.5-9.2-2-14.3-4.2l-17 17c30.2 16.5 54.2 13.5 77.3-9.6z" style="fill:#56595b"/>
  <path class="st0" d="m303.1 64.7c5 1.8 8.3 4.8 10.4 6.8 5.9 5.9 9.7 11.3 11.7 16.7 2 5.5 1.8 10 1.4 13.3-0.5 4.4-2 9.2-4.2 14.3l17 17c16.4-30.3 13.3-54.4-9.7-77.4-13.2-13.2-30.1-17.8-50.3-13.7-14 2.8-24.9 9.1-26.9 10.3l-65.5 65.4c3.1 6 7.4 12.5 12.8 19.4l50.2-50.1c4.3-4.1 13-12.1 21.6-17.4 5.2-3.2 9.7-5.1 13.5-5.6 6.9-1.1 12.8-0.8 18 1z" style="fill:#56595b"/>
  <path class="st0" d="m170.4 55.4c-24.2 24.2-26.4 49.4-7.3 81.8 4.6 7.8 10.6 16.1 17.7 24.6 16.3 19.5 39.5 41.3 69.2 64.9 19.4-15.4 36.2-30.2 49.8-43.8 6.3-6.3 12-12.4 17.1-18.3l-16.2-16.2c-5 5.9-10.7 12.1-17 18.4-9 9-19.5 18.5-31.2 28.4l-2.5 2.1-2.5-2.1c-21.5-18.1-38.6-35-50.9-50.1-7.8-9.6-13.8-18.6-17.7-26.7-3.4-7-5.3-13.4-5.6-19-0.2-2.7-0.1-6.9 2-12.1 2.1-5 5.8-10.2 11.3-15.7 2.1-2.1 5.4-5 10.4-6.8 5.2-1.9 11.1-2.2 18-0.9h0.1c3 0.6 6.4 2 10.4 4.3l18.2-18.2c-4.8-2.4-13.1-6.2-23-8.2-20.2-4.2-37.1 0.4-50.3 13.6z" style="fill:#56595b"/>
  <path class="st0" d="m273.2 77.6c-7.1 4.8-14 11.1-17.7 14.6l80.5 80.5c6.4-5.2 12.7-9.7 18.7-13.6z" style="fill:#56595b"/>
  <path class="st0" d="m55.4 329.6c24.2 24.2 49.4 26.4 81.8 7.3 7.8-4.6 16.1-10.6 24.6-17.7 19.5-16.3 41.3-39.5 64.9-69.2-15.4-19.4-30.2-36.2-43.8-49.8-6.3-6.3-12.4-12-18.3-17.1l-16.2 16.2c5.9 5 12.1 10.7 18.4 17 9 9 18.5 19.5 28.4 31.2l2.1 2.5-2.1 2.5c-18.1 21.5-35 38.6-50.1 50.9-9.6 7.8-18.6 13.8-26.7 17.7-7 3.4-13.4 5.3-19 5.6-2.7 0.2-6.9 0.1-12.1-2-5-2.1-10.2-5.8-15.7-11.3-2.1-2.1-5-5.4-6.8-10.4-1.9-5.2-2.2-11.1-0.9-18v-0.1c0.6-3 2-6.4 4.3-10.4l-18.2-18.2c-2.4 4.8-6.2 13.1-8.2 23-4.2 20.2 0.4 37.1 13.6 50.3z" style="fill:#56595b"/>
  <path class="st0" d="m86.7 250c-4.1-4.4-12-13.1-17.3-21.6-3.2-5.2-5.1-9.7-5.6-13.5-1.2-6.9-0.9-12.7 0.9-17.9 1.8-5 4.8-8.3 6.8-10.4 5.9-5.9 11.3-9.7 16.7-11.7 5.5-2 10-1.8 13.3-1.4 4.4 0.5 9.2 2 14.3 4.2l17-17c-30.3-16.4-54.4-13.3-77.4 9.7-13.2 13.2-17.8 30.1-13.7 50.3 2.8 14 9.1 24.9 10.3 26.9l65.4 65.4c6-3.1 12.5-7.4 19.4-12.8z" style="fill:#56595b"/>
  <path class="st0" d="m92.2 244.5 80.5-80.5c-5.2-6.4-9.7-12.7-13.6-18.7l-81.5 81.5c4.8 7.1 11 14 14.6 17.7z" style="fill:#56595b"/>
  <path class="st0" d="m329.6 444.6c24.2-24.2 26.4-49.4 7.3-81.8-4.6-7.8-10.6-16.1-17.7-24.6-16.3-19.5-39.5-41.3-69.2-64.9-19.4 15.4-36.2 30.2-49.8 43.8-6.3 6.3-12 12.4-17.1 18.3l16.2 16.2c5-5.9 10.7-12.1 17-18.4 9-9 19.5-18.5 31.2-28.4l2.5-2.1 2.5 2.1c21.5 18.1 38.6 35 50.9 50.1 7.8 9.6 13.8 18.6 17.7 26.7 3.4 7 5.3 13.4 5.6 19 0.2 2.7 0.1 6.9-2 12.1-2.1 5-5.8 10.2-11.3 15.7-2.1 2.1-5.4 5-10.4 6.8-5.2 1.9-11.1 2.2-18 0.9h-0.1c-3-0.6-6.4-2-10.4-4.3l-18.2 18.2c4.7 2.4 13.1 6.1 22.9 8.2 20.2 4.2 37.2-0.4 50.4-13.6z" style="fill:#56595b"/>
  <path class="st0" d="m244.5 407.8-80.5-80.5c-6.4 5.2-12.7 9.7-18.7 13.6l81.5 81.5c7.1-4.8 14-11 17.7-14.6z" style="fill:#56595b"/>
  <path class="st0" d="m483.4 250c2.6-6.3 5.3-14 7.1-22.7 6.3-30.8-1.8-59.2-22.7-80.1-19.7-19.7-41.7-29.7-65.5-29.7-7.5 0-15.1 1-22.8 3 2.9-11.3 3.7-22.3 2.3-33.2-2.5-19.8-12.3-38.3-29-55.1-16.2-16.3-36.9-24.8-59.8-24.8-6.6 0-13.4 0.7-20.2 2.1-8.7 1.8-16.5 4.5-22.7 7.1-6.3-2.6-14.1-5.3-22.8-7.1-6.9-1.4-13.7-2.1-20.2-2.1-22.9 0-43.6 8.6-59.9 24.8-17.6 17.6-27.5 37.2-29.4 58.1-0.9 9.9 0 19.9 2.7 30.2-7.7-2-15.3-3-22.8-3-23.8 0-45.8 10-65.5 29.7-20.9 20.9-28.9 49.3-22.7 80.1 1.8 8.7 4.5 16.5 7.1 22.7-2.6 6.3-5.3 14.1-7.1 22.8-6.2 30.8 1.8 59.2 22.7 80.1 19.7 19.7 41.7 29.7 65.5 29.7 7.5 0 15.1-1 22.8-3-2.9 11.3-3.7 22.3-2.3 33.2 2.5 19.8 12.3 38.3 29 55.1 16.2 16.2 36.9 24.8 59.8 24.8 6.6 0 13.4-0.7 20.2-2.1 8.7-1.8 16.5-4.4 22.7-7.1 6.3 2.6 14 5.3 22.7 7.1 6.9 1.4 13.7 2.1 20.3 2.1 22.9 0 43.6-8.6 59.9-24.8 17.6-17.6 27.5-37.2 29.4-58.1 0.9-9.9 0-19.9-2.7-30.2 7.7 2 15.3 3 22.8 3 23.8 0 45.8-10 65.5-29.7 20.9-20.9 29-49.3 22.7-80.1-1.7-8.8-4.4-16.5-7.1-22.8z" style="fill:#56595b"/>
  <path class="st0" d="m170.4 444.6c13.2 13.2 30.1 17.8 50.3 13.7 14-2.8 24.9-9.1 26.9-10.3l65.4-65.4c-3.1-6-7.4-12.5-12.8-19.4l-50.2 50.1c-4.3 4.1-13 12.1-21.6 17.4-5.2 3.2-9.7 5.1-13.5 5.6-6.9 1.2-12.7 0.9-17.9-0.9-5-1.8-8.3-4.8-10.4-6.8-5.9-5.9-9.7-11.3-11.7-16.7-2-5.5-1.8-10-1.4-13.3 0.5-4.4 2-9.2 4.2-14.3l-17-17c-16.4 30.2-13.4 54.2 9.7 77.3z" style="fill:#56595b"/>
  <path class="st1" d="m436.2 215c-0.6 3-2 6.4-4.3 10.4l18.2 18.2c2.4-4.8 6.2-13.1 8.2-22.9 4.1-20.2-0.5-37.1-13.7-50.3-24.2-24.2-49.4-26.4-81.8-7.3-7.8 4.6-16.1 10.6-24.6 17.7-19.5 16.3-41.3 39.5-64.9 69.2 15.4 19.4 30.2 36.2 43.8 49.8 6.3 6.3 12.4 12 18.3 17.1l16.2-16.2c-5.9-5-12.1-10.7-18.4-17-9-9-18.5-19.5-28.4-31.2l-2.1-2.5 2.1-2.5c18.1-21.5 35-38.6 50.1-50.9 9.6-7.8 18.6-13.8 26.7-17.7 7-3.4 13.4-5.3 19-5.6 2.7-0.2 6.9-0.1 12.1 2 5 2.1 10.2 5.8 15.7 11.3 2.1 2.1 5 5.4 6.8 10.4 1.9 5.1 2.3 11 1 18z" style="fill:#fff"/>
  <path class="st1" d="m340.9 354.7 81.5-81.5c-4.8-7.1-11.1-14-14.6-17.7l-80.5 80.5c5.2 6.4 9.8 12.6 13.6 18.7z" style="fill:#fff"/>
  <path class="st1" d="m444.6 329.6c13.2-13.2 17.8-30.1 13.7-50.3-2.8-14-9.1-24.9-10.3-26.9l-65.4-65.4c-6 3.1-12.5 7.4-19.4 12.8l50.1 50.1c4.1 4.3 12.1 13 17.4 21.6 3.2 5.2 5.1 9.7 5.6 13.5 1.2 6.9 0.9 12.7-0.9 17.9-1.8 5-4.8 8.3-6.8 10.4-5.9 5.9-11.3 9.7-16.7 11.7-5.5 2-10 1.8-13.3 1.4-4.4-0.5-9.2-2-14.3-4.2l-17 17c30.2 16.5 54.2 13.5 77.3-9.6z" style="fill:#fff"/>
  <path class="st1" d="m303.1 64.7c5 1.8 8.3 4.8 10.4 6.8 5.9 5.9 9.7 11.3 11.7 16.7 2 5.5 1.8 10 1.4 13.3-0.5 4.4-2 9.2-4.2 14.3l17 17c16.4-30.3 13.3-54.4-9.7-77.4-13.2-13.2-30.1-17.8-50.3-13.7-14 2.8-24.9 9.1-26.9 10.3l-65.5 65.4c3.1 6 7.4 12.5 12.8 19.4l50.2-50.1c4.3-4.1 13-12.1 21.6-17.4 5.2-3.2 9.7-5.1 13.5-5.6 6.9-1.1 12.8-0.8 18 1z" style="fill:#fff"/>
  <path class="st1" d="m170.4 55.4c-24.2 24.2-26.4 49.4-7.3 81.8 4.6 7.8 10.6 16.1 17.7 24.6 16.3 19.5 39.5 41.3 69.2 64.9 19.4-15.4 36.2-30.2 49.8-43.8 6.3-6.3 12-12.4 17.1-18.3l-16.2-16.2c-5 5.9-10.7 12.1-17 18.4-9 9-19.5 18.5-31.2 28.4l-2.5 2.1-2.5-2.1c-21.5-18.1-38.6-35-50.9-50.1-7.8-9.6-13.8-18.6-17.7-26.7-3.4-7-5.3-13.4-5.6-19-0.2-2.7-0.1-6.9 2-12.1 2.1-5 5.8-10.2 11.3-15.7 2.1-2.1 5.4-5 10.4-6.8 5.2-1.9 11.1-2.2 18-0.9h0.1c3 0.6 6.4 2 10.4 4.3l18.2-18.2c-4.8-2.4-13.1-6.2-23-8.2-20.2-4.2-37.1 0.4-50.3 13.6z" style="fill:#fff"/>
  <path class="st1" d="m273.2 77.6c-7.1 4.8-14 11.1-17.7 14.6l80.5 80.5c6.4-5.2 12.7-9.7 18.7-13.6z" style="fill:#fff"/>
  <path class="st1" d="m55.4 329.6c24.2 24.2 49.4 26.4 81.8 7.3 7.8-4.6 16.1-10.6 24.6-17.7 19.5-16.3 41.3-39.5 64.9-69.2-15.4-19.4-30.2-36.2-43.8-49.8-6.3-6.3-12.4-12-18.3-17.1l-16.2 16.2c5.9 5 12.1 10.7 18.4 17 9 9 18.5 19.5 28.4 31.2l2.1 2.5-2.1 2.5c-18.1 21.5-35 38.6-50.1 50.9-9.6 7.8-18.6 13.8-26.7 17.7-7 3.4-13.4 5.3-19 5.6-2.7 0.2-6.9 0.1-12.1-2-5-2.1-10.2-5.8-15.7-11.3-2.1-2.1-5-5.4-6.8-10.4-1.9-5.2-2.2-11.1-0.9-18v-0.1c0.6-3 2-6.4 4.3-10.4l-18.2-18.2c-2.4 4.8-6.2 13.1-8.2 23-4.2 20.2 0.4 37.1 13.6 50.3z" style="fill:#fff"/>
  <path class="st1" d="m86.7 250c-4.1-4.4-12-13.1-17.3-21.6-3.2-5.2-5.1-9.7-5.6-13.5-1.2-6.9-0.9-12.7 0.9-17.9 1.8-5 4.8-8.3 6.8-10.4 5.9-5.9 11.3-9.7 16.7-11.7 5.5-2 10-1.8 13.3-1.4 4.4 0.5 9.2 2 14.3 4.2l17-17c-30.3-16.4-54.4-13.3-77.4 9.7-13.2 13.2-17.8 30.1-13.7 50.3 2.8 14 9.1 24.9 10.3 26.9l65.4 65.4c6-3.1 12.5-7.4 19.4-12.8z" style="fill:#fff"/>
  <path class="st1" d="m92.2 244.5 80.5-80.5c-5.2-6.4-9.7-12.7-13.6-18.7l-81.5 81.5c4.8 7.1 11 14 14.6 17.7z" style="fill:#fff"/>
  <path class="st1" d="m329.6 444.6c24.2-24.2 26.4-49.4 7.3-81.8-4.6-7.8-10.6-16.1-17.7-24.6-16.3-19.5-39.5-41.3-69.2-64.9-19.4 15.4-36.2 30.2-49.8 43.8-6.3 6.3-12 12.4-17.1 18.3l16.2 16.2c5-5.9 10.7-12.1 17-18.4 9-9 19.5-18.5 31.2-28.4l2.5-2.1 2.5 2.1c21.5 18.1 38.6 35 50.9 50.1 7.8 9.6 13.8 18.6 17.7 26.7 3.4 7 5.3 13.4 5.6 19 0.2 2.7 0.1 6.9-2 12.1-2.1 5-5.8 10.2-11.3 15.7-2.1 2.1-5.4 5-10.4 6.8-5.2 1.9-11.1 2.2-18 0.9h-0.1c-3-0.6-6.4-2-10.4-4.3l-18.2 18.2c4.7 2.4 13.1 6.1 22.9 8.2 20.2 4.2 37.2-0.4 50.4-13.6z" style="fill:#fff"/>
  <path class="st1" d="m244.5 407.8-80.5-80.5c-6.4 5.2-12.7 9.7-18.7 13.6l81.5 81.5c7.1-4.8 14-11 17.7-14.6z" style="fill:#fff"/>
  <path class="st1" d="m170.4 444.6c13.2 13.2 30.1 17.8 50.3 13.7 14-2.8 24.9-9.1 26.9-10.3l65.4-65.4c-3.1-6-7.4-12.5-12.8-19.4l-50.2 50.1c-4.3 4.1-13 12.1-21.6 17.4-5.2 3.2-9.7 5.1-13.5 5.6-6.9 1.2-12.7 0.9-17.9-0.9-5-1.8-8.3-4.8-10.4-6.8-5.9-5.9-9.7-11.3-11.7-16.7-2-5.5-1.8-10-1.4-13.3 0.5-4.4 2-9.2 4.2-14.3l-17-17c-16.4 30.2-13.4 54.2 9.7 77.3z" style="fill:#fff"/>
 </g>
</svg>
