<?xml version="1.0" encoding="UTF-8"?>
<svg version="1.1" viewBox="0 0 192 192" xmlns="http://www.w3.org/2000/svg">
 <circle class="a" cx="96" cy="96" r="88" style="fill:#8c72bd"/>
 <path d="m56.912 100.89c3.9468 0.38041 9.5579-0.51992 9.5579-6.2769v-18.831s-1.0533-7.2754 7.2755-7.2754c8.187 0 7.6321 7.6321 7.6321 7.6321v51.285s-0.10268 7.4538 7.4538 7.4538c9.377 0 8.2384-8.2384 8.2384-8.2384v-62.412s-0.40968-7.0971 7.0971-7.0971c7.8413 0 7.4538 7.4538 7.4538 7.4538v51.142s0.31944 7.6678 7.6678 7.6678c8.1067 0 7.3111-7.3111 7.3111-7.3111v-16.619c0-4.9065 4.3272-6.7524 8.488-6.9901" style="fill:none;stroke-linecap:round;stroke-linejoin:round;stroke-width:6.3597;stroke:#fff"/>
</svg>
