<?xml version="1.0" encoding="UTF-8"?>
<svg version="1.1" viewBox="0 0 192 192" xmlns="http://www.w3.org/2000/svg">
 <defs>
  <clipPath id="clipPath2">
   <rect class="a" x="20" y="20" width="152" height="152" rx="10" style="fill:#54688c"/>
  </clipPath>
 </defs>
 <rect class="a" x="20" y="20" width="152" height="152" rx="10" style="fill:#54688c"/>
 <circle cx="96" cy="210.09" r="93.425" clip-path="url(#clipPath2)" style="fill:#f8c18c"/>
 <path d="m49.224 88.216h4.4495c3.7079 0 6.7417-3.0113 6.7417-6.7417 0-3.7304-3.0338-6.7417-6.7417-6.7417h-4.4495zm2.9664-2.6293v-8.2249h1.4607c2.1349 0 3.7978 1.7753 3.7978 4.1124s-1.663 4.1124-3.7978 4.1124zm10.495 2.6293h2.9664v-13.483h-2.9664zm9.8654 0.17978c2.5169 0 4.6518-1.4832 4.6518-4.0001 0-4.9889-6.2024-3.7529-6.2024-6.09 0-0.76406 0.58428-1.1236 1.3034-1.1236 0.76406 0 1.5281 0.42698 2.2023 1.1686l1.9776-1.8877c-0.98879-1.1461-2.4944-1.9102-4.1574-1.9102-2.1349 0-4.3147 1.2809-4.3147 3.9776 0 4.5844 6.2248 3.4832 6.2248 5.8428 0 0.74159-0.62923 1.236-1.663 1.236-1.236 0-2.2023-0.69664-2.6967-1.7528l-2.4495 1.5281c0.87642 1.6854 2.7641 3.0113 5.1237 3.0113zm12.922 0c2.6742 0 4.9889-1.5056 6.135-3.7079l-2.5618-1.3259c-0.6517 1.2809-1.9776 2.1349-3.5731 2.1349-2.2697 0-4.0001-1.7528-4.0001-4.0226s1.7304-4.0226 4.0001-4.0226c1.5955 0 2.9214 0.85395 3.5731 2.1349l2.5618-1.3259c-1.1461-2.2023-3.4607-3.7079-6.135-3.7079-3.8203 0-6.9215 3.1012-6.9215 6.9215s3.1012 6.9215 6.9215 6.9215zm31.686-13.663-3.2136 9.6406-3.2136-9.6406h-3.3034l4.854 13.483h3.3259l4.854-13.483zm12.562 2.6068v-2.6068h-8.1125v13.483h8.1125v-2.6068h-5.1462v-2.8315h4.4046v-2.6068h-4.4046v-2.8315zm9.2811 5.326c1.5955-0.47192 2.7192-1.9551 2.7192-3.7978 0-2.2922-1.7079-4.1349-4.0226-4.1349h-5.7305v13.483h2.9664v-5.2136h1.191l3.3259 5.2136h3.3259zm-1.7528-2.1124h-2.3146v-3.1911h2.3146c0.94384 0 1.6405 0.67417 1.6405 1.5955 0 0.94384-0.69664 1.5955-1.6405 1.5955z" style="fill:#fff;stroke-linecap:round;stroke-linejoin:round;stroke-width:13.483" aria-label="DISCOVER"/>
 <circle cx="99.921" cy="81.501" r="4.8954" style="fill:#f8c18c"/>
 <path d="m99.944 88.395c3.8428 0 6.9215-3.1012 6.9215-6.9215s-3.0787-6.9215-6.9215-6.9215c-3.8203 0-6.9215 3.1012-6.9215 6.9215s3.1012 6.9215 6.9215 6.9215zm0-2.8989c-2.2697 0-4.0001-1.7528-4.0001-4.0226s1.7304-4.0226 4.0001-4.0226c2.2922 0 4.0226 1.7528 4.0226 4.0226s-1.7304 4.0226-4.0226 4.0226z" style="fill:#f8c18c;stroke-linecap:round;stroke-linejoin:round;stroke-width:13.483" aria-label="DISCOVER"/>
</svg>
