<?xml version="1.0" encoding="UTF-8" standalone="no"?>
<svg
   width="192"
   height="192"
   fill="none"
   version="1.1"
   id="svg245"
   sodipodi:docname="dms_explorer.svg"
   inkscape:version="1.2.2 (b0a8486541, 2022-12-01)"
   inkscape:export-filename="dms_explorer.png"
   inkscape:export-xdpi="96"
   inkscape:export-ydpi="96"
   xmlns:inkscape="http://www.inkscape.org/namespaces/inkscape"
   xmlns:sodipodi="http://sodipodi.sourceforge.net/DTD/sodipodi-0.dtd"
   xmlns="http://www.w3.org/2000/svg"
   xmlns:svg="http://www.w3.org/2000/svg">
  <defs
     id="defs249" />
  <sodipodi:namedview
     id="namedview247"
     pagecolor="#505050"
     bordercolor="#eeeeee"
     borderopacity="1"
     inkscape:showpageshadow="0"
     inkscape:pageopacity="0"
     inkscape:pagecheckerboard="0"
     inkscape:deskcolor="#505050"
     showgrid="false"
     inkscape:zoom="4.5364583"
     inkscape:cx="69.988519"
     inkscape:cy="96.330655"
     inkscape:window-width="1918"
     inkscape:window-height="1053"
     inkscape:window-x="0"
     inkscape:window-y="0"
     inkscape:window-maximized="1"
     inkscape:current-layer="svg245" />
  <path
     style="fill:#ffffff;fill-opacity:1"
     d="M 172.5,164 V 28 A 8.51,8.51 0 0 0 164,19.5 H 28 A 8.51,8.51 0 0 0 19.5,28 v 136 a 8.51,8.51 0 0 0 8.5,8.5 h 136 a 8.51,8.51 0 0 0 8.5,-8.5 z"
     id="path4" />
  <path
     d="m 76.37,136.63 c -1.3,0 -2.57,-0.34 -3.7,-0.98 -2.53,-1.44 -4.1,-4.22 -4.1,-7.24 V 67.22 c 0,-3.03 1.57,-5.8 4.1,-7.24 1.15,-0.66 2.46,-1 3.79,-0.98 1.33,0.01 2.62,0.39 3.76,1.08 l 52.28,31.3 c 1.09,0.68 1.99,1.62 2.61,2.75 0.62,1.12 0.95,2.39 0.95,3.68 0,1.28 -0.33,2.55 -0.95,3.67 -0.62,1.13 -1.52,2.08 -2.61,2.76 l -52.29,31.3 c -1.16,0.7 -2.49,1.08 -3.85,1.08 z"
     fill="#96dfd3"
     id="path4-3"
     style="fill:#9abeff;fill-opacity:1" />
</svg>
