<?xml version="1.0" encoding="UTF-8"?>
<svg version="1.1" viewBox="0 0 192 192" xmlns="http://www.w3.org/2000/svg">
 <circle class="a" cx="96" cy="96" r="88" style="fill:#ba6561"/>
 <circle cx="96.441" cy="96" r="32.85" style="fill:none;stroke-linecap:round;stroke-linejoin:round;stroke-width:5.9714;stroke:#fff"/>
 <path d="m90.653 63.664s4.4913 4.3376 4.2461 7.078c-0.548 6.1244-12.037 7.7346-12.147 13.882-0.08768 4.8876 9.9851 6.5424 9.255 11.376-0.55378 3.6661-9.906 2.5199-9.255 6.17 0.82385 4.6193 10.784-0.40618 13.69 3.2778 1.831 2.3212-2.5823 7.4298 0 8.8693 3.6299 2.0235 6.716-8.0215 10.605-6.5556 3.7097 1.3985 1.2497 8.0919 3.4706 11.376 1.1324 1.6744 4.7241 3.8019 4.7241 3.8019" style="fill:none;stroke-linecap:round;stroke-linejoin:round;stroke-width:5.7305;stroke:#fff"/>
 <path d="m64.243 102.51s-11.134 14.29-7.9068 21.058c1.5745 3.3022 6.7753 3.8698 10.412 3.4706 25.321-2.7798 49.236-19.737 65.529-39.319 4.4794-5.3837 11.526-14.057 7.3538-19.682-4.7192-6.3618-23.716 1.5021-23.716 1.5021" style="fill:none;stroke-linecap:round;stroke-linejoin:round;stroke-width:5.7305;stroke:#fff"/>
 <circle cx="59.041" cy="125.8" r="7.9417" style="fill:none;stroke-linecap:round;stroke-linejoin:round;stroke-width:5.7305;stroke:#fff"/>
 <path d="m65.62 101.56c0.40902 0 5.5746-6.0242 8.1803-4.3628 2.8207 1.7984-1.6606 6.867-0.54536 10.021 0.83675 2.3663 4.2646 3.2043 5.0445 5.5899 1.029 3.1473-1.0134 9.8818-1.0134 9.8818" style="fill:none;stroke-linecap:round;stroke-linejoin:round;stroke-width:5.7305;stroke:#fff"/>
 <path d="m107.28 64.991s-6.1981 11.107-2.8081 14.821c1.7546 1.9221 5.5412-2.0913 7.7713-0.74986 2.2962 1.3812 0.6886 6.1973 3.0676 7.4305 3.5345 1.832 11.648-2.6397 11.648-2.6397" style="fill:none;stroke-linecap:round;stroke-linejoin:round;stroke-width:5.7305;stroke:#fff"/>
 <path d="m78.436 48.386-10.839 9.5437 12.268-0.13634 2.5933 6.1352 3.0676-1.2373z" style="fill:#fff"/>
</svg>
