<?xml version="1.0" encoding="UTF-8" standalone="no"?>
<!-- Created with Inkscape (http://www.inkscape.org/) -->

<svg
   width="192"
   height="192"
   viewBox="0 0 50.799999 50.8"
   version="1.1"
   id="svg1"
   xml:space="preserve"
   xmlns="http://www.w3.org/2000/svg"
   xmlns:svg="http://www.w3.org/2000/svg"><defs
     id="defs1" /><circle
     cx="25.4"
     cy="25.4"
     r="23.283333"
     style="isolation:isolate;fill:#f8c18c;stroke-width:0.264583"
     id="circle1-5" /><path
     d="m 29.852936,27.037769 a 0.79375,0.79375 0 1 1 0,-1.5875 0.79375,0.79375 0 1 1 0,1.5875 m -8.884708,0 a 0.79375,0.79375 0 1 1 0,-1.5875 0.79375,0.79375 0 1 1 0,1.5875 m 9.173104,-4.839229 1.608667,-2.78077 a 0.33866666,0.33866666 0 0 0 -0.127,-0.455084 0.29897916,0.29897916 0 0 0 -0.433917,0.127 l -1.651,2.809874 a 9.7710624,9.7710624 0 0 0 -4.138083,-0.889 10.025062,10.025062 0 0 0 -4.124854,0.878417 l -1.629834,-2.809875 a 0.32279166,0.32279166 0 0 0 -0.455083,-0.124354 0.32808333,0.32808333 0 0 0 -0.124354,0.452437 l 1.5875,2.780771 a 9.5249999,9.5249999 0 0 0 -4.910667,7.601479 H 35.05729 A 9.4694374,9.4694374 0 0 0 30.141332,22.19854 Z"
     style="fill:#ffffff;stroke-width:0.264583"
     id="path1" /></svg>
