<?xml version="1.0" encoding="UTF-8"?>
<svg version="1.1" viewBox="0 0 192 192" xmlns="http://www.w3.org/2000/svg">
 <rect class="a" x="20" y="20" width="152" height="152" rx="10" style="fill:#f8c18c"/>
 <g transform="matrix(.26969 0 0 .26969 142.86 74.004)">
  <path d="m-115.52 169.48s3.7284 23.319-12.55 23.319c-4.658 0-3.9552-6.1891-3.9552-6.1891l-3.9632-15.905z" style="fill:#9abeff;stroke-linejoin:round;stroke-width:3;stroke:#56595b"/>
  <path d="m-212.11 112.11s-6.4584 4.0625-7.0312 7.4219c-1.7257 10.119-6.25 27.734-6.25 27.734 3.5807 3.7109 8.4635 6.901 14.648 9.5703l-1.7578 13.867c19.661 9.375 44.792 9.8958 75.391 1.5625l-1.5625-15.039c6.1198-2.3438 10.938-5.4688 14.453-9.375 0 0-2.4928-16.681-4.6875-24.805-1.1171-4.1348-4.2969-12.109-4.2969-12.109l-10.938-10.156-60.662 2.5655z" style="fill:#728dbe;stroke-linejoin:round;stroke-width:3;stroke:#54688c"/>
  <path d="m-204.8 103.35c24.387 4.0927 44.608 3.2376 60.662-2.5655l12.109-14.844-11.914-11.133-66.608 4.9478-6.6342 10.482 7.0312 10.156z" style="fill:#96dfd3;stroke-linejoin:round;stroke-width:3;stroke:#728dbe"/>
  <path d="m-194.54 78.563 0.57641 26.308" style="fill:none;stroke-linejoin:round;stroke-width:3;stroke:#728dbe"/>
  <path d="m-182.26 77.651 0.24095 28.131" style="fill:none;stroke-linejoin:round;stroke-width:3;stroke:#728dbe"/>
  <path d="m-165.13 76.378-3.5886 29.256" style="fill:none;stroke-linejoin:round;stroke-width:3;stroke:#728dbe"/>
  <path d="m-153.92 75.546-0.90241 28.241" style="fill:none;stroke-linejoin:round;stroke-width:3;stroke:#728dbe"/>
  <path d="m-239.06-22.266c6.1051-3.5248 25.781 19.141 25.781 19.141l5.4688-13.281 6.25 10.938c17.969-7.9427 36.458-7.5521 55.469 1.1719l3.9062-12.5 7.4219 10.938s16.899-21.925 25.781-16.797c5.9572 3.4394-4.2969 32.812-4.2969 32.812l1.5625 24.609c13.542 27.865 18.49 55.99 14.844 84.375-13.021 0.26042-23.177-4.9479-30.469-15.625-0.13021 3.2552-2.0833 5.7292-5.8594 7.4219-5.4688-2.3438-9.1146-5.7292-10.938-10.156-0.26042-5.4688 1.8229-10.156 6.25-14.062-3.125-3.125-5.9896-4.4271-8.5938-3.9062l-58.984-0.39062c-2.7344 1.1719-4.1667 3.125-4.2969 5.8594 8.0729 8.9844 7.2917 16.927-2.3438 23.828-4.4271-0.78125-8.0729-2.8646-10.938-6.25 0 0-19.249 18.892-27.344 12.891-12.129-8.9929 12.5-85.156 12.5-85.156l2.3438-20.312s-9.3389-32.185-3.5156-35.547z" style="fill:#9abeff;stroke-linecap:round;stroke-linejoin:round;stroke-width:2;stroke:#56595b"/>
  <path d="m-203.05 26.975 10.861 5.0564s3.3221 16.248-1.7578 21.191c-2.1029 2.0463-8.7891 0.48828-8.7891 0.48828z" style="fill:#54688c"/>
  <path d="m-203.05 26.975 0.31371 26.736s-10.695 0.21885-13.867-3.3203c-3.4605-3.8603-1.9531-15.43-1.9531-15.43 3.4483-4.424 8.6171-7.0861 15.507-7.9861z" style="fill:#fff"/>
  <path d="m-180.86 48.633 13.672 11.719" style="fill:none;stroke-linecap:round;stroke-linejoin:round;stroke-width:3;stroke:#728dbe"/>
  <path d="m-182.62 60.742 15.43-13.086" style="fill:none;stroke-linecap:round;stroke-linejoin:round;stroke-width:3;stroke:#728dbe"/>
  <path d="m-195.7 68.555c9.6354 7.6172 16.667 5.8594 21.094-5.2734 4.1667 10.286 11.198 12.24 21.094 5.8594" style="fill:none;stroke-linecap:round;stroke-linejoin:round;stroke-width:3;stroke:#728dbe"/>
  <path d="m-230.27 63.281c1.6498 15.835 16.449 12.885 24.805 19.141" style="fill:none;stroke-linecap:round;stroke-linejoin:round;stroke-width:3;stroke:#728dbe"/>
  <path d="m-146.48 82.812c17.513-3.3203 26.953-9.7656 28.32-19.336" style="fill:none;stroke-linecap:round;stroke-linejoin:round;stroke-width:3;stroke:#728dbe"/>
  <path d="m-218.55 34.961c9.3099-9.5703 18.099-10.547 26.367-2.9297" style="fill:none;stroke-linecap:round;stroke-linejoin:round;stroke-width:3;stroke:#728dbe"/>
  <path d="m-145.19 26.975-10.861 5.0564s-3.3221 16.248 1.7578 21.191c2.1029 2.0463 8.7891 0.48828 8.7891 0.48828z" style="fill:#54688c"/>
  <path d="m-145.19 26.975-0.31371 26.736s10.695 0.21885 13.867-3.3203c3.4605-3.8603 1.9531-15.43 1.9531-15.43-3.4483-4.424-8.6171-7.0861-15.507-7.9861z" style="fill:#fff"/>
  <path d="m-129.69 34.961c-9.3099-9.5703-18.099-10.547-26.367-2.9297" style="fill:none;stroke-linecap:round;stroke-linejoin:round;stroke-width:3;stroke:#728dbe"/>
  <path d="m-219.92 50.83 2.7832 1.7578 0.92773-0.53711 0.24414 1.416 1.2207 0.83008-1.9531 0.97656 0.24414 2.6855-3.3203-3.2715 1.0254-1.0742z" style="fill:#54688c"/>
  <path d="m-223.39 55.273h2.0996l-0.0488 3.5156-0.83008 0.83008-1.0742-1.2207z" style="fill:#54688c"/>
  <path d="m-129.35 50.488-4.6875 6.0059 0.14648 1.2695 2.002-0.39062 0.29297 1.5137 0.58594-3.0762 2.5391-3.6133z" style="fill:#54688c"/>
  <path d="m-126.9 55.273-0.58593 0.97656h-1.416l0.0977 1.9043-1.3672 0.48828 3.8086 0.78125 0.24414-1.6113 1.7578 0.04883-0.58594-1.9531-1.1719 0.29297z" style="fill:#54688c"/>
  <path d="m-208.98 122.66 4.1016 4.1016-5.8594 30.078" style="fill:none;stroke-linejoin:round;stroke-width:3;stroke:#54688c"/>
  <path d="m-141.02 122.27-3.3203 5.6641 5.6641 29.297" style="fill:none;stroke-linejoin:round;stroke-width:3;stroke:#54688c"/>
  <path d="m-232.97 169.48s-3.7284 23.319 12.55 23.319c4.658 0 3.9552-6.1891 3.9552-6.1891l3.9632-15.905z" style="fill:#9abeff;stroke-linejoin:round;stroke-width:3;stroke:#56595b"/>
  <path d="m-225.39 147.27-10.156 17.383c3.8594 10.091 11.542 12.109 23.047 6.0547l1.7578-13.867c-6.1921-2.674-11.075-5.8641-14.648-9.5703z" style="fill:#96dfd3;stroke-linejoin:round;stroke-width:3;stroke:#54688c"/>
  <path d="m-138.67 157.23 1.5625 15.039c6.5755 3.1901 13.672 1.6927 21.289-4.4922-0.45573-6.6406-3.2552-13.281-8.3984-19.922-3.3888 3.8237-8.2066 6.9487-14.453 9.375z" style="fill:#96dfd3;stroke-linejoin:round;stroke-width:3;stroke:#54688c"/>
  <path d="m-128.78 151.96 6.7079 18.746" style="fill:#96dfd3;stroke-linejoin:round;stroke-width:3;stroke:#54688c"/>
  <path d="m-219.25 152.3-9.0781 20.935" style="fill:none;stroke-linejoin:round;stroke-width:3;stroke:#54688c"/>
  <path d="m-209.72 189.8s-7.767 11.109-6.8799 17.229c0.84455 5.8263 10.938 13.867 10.938 13.867s-16.836 0.62011-16.797 6.6406c0.0739 11.353 31.836 12.109 31.836 12.109l3.3203-9.1797 9.375-9.9609s-10.905-18.843 3.7109-18.555c12.369 0.24411 4.2969 18.164 4.2969 18.164l7.0312 10.547 2.3438 7.0312s32.853 2.4039 34.375-9.375c0.75135-5.8143-15.234-8.7891-15.234-8.7891 10.108-8.0304 11.882-18.144 5.3226-30.341z" style="fill:#9abeff;stroke-linejoin:round;stroke-width:3;stroke:#56595b"/>
  <path d="m-212.5 170.7-6.8136 14.36c27.161 15.284 56.9 15.836 89.217 1.6573l-7.0128-14.455c-26.975 8.3625-52.105 7.8417-75.391-1.5625z" style="fill:#96dfd3;stroke-linejoin:round;stroke-width:3;stroke:#54688c"/>
  <path d="m-198.01 175.78-1.2937 17.745" style="fill:none;stroke-linejoin:round;stroke-width:3;stroke:#54688c"/>
  <path d="m-182.39 177.84 0.18929 18.828" style="fill:none;stroke-linejoin:round;stroke-width:3;stroke:#54688c"/>
  <path d="m-166.01 177.88-1.11 18.742" style="fill:none;stroke-linejoin:round;stroke-width:3;stroke:#54688c"/>
  <path d="m-149.93 175.6 0.63239 17.891" style="fill:none;stroke-linejoin:round;stroke-width:3;stroke:#54688c"/>
  <path d="m-196.13-27.832-2.7285 1.25 5.0566 11.041-3.2363 19.018 2.957 0.50391 3.3145-19.473a1.5002 1.5002 0 0 0-0.11524-0.87695z" style="fill:#ff837d;stroke-linejoin:round;stroke:#56595b"/>
  <path d="m-153.1-26.676-4.834 8.9766a1.5002 1.5002 0 0 0-0.16993 0.88086l2.209 19.609 2.9824-0.33398-2.1582-19.146 4.6113-8.5625z" style="fill:#ff837d;stroke-linejoin:round;stroke:#56595b"/>
  <path d="m-237.5 12.891s-13.449-10.829-21.484-10.938c-11.822-0.1593-24.914 5.7936-32.031 15.234-5.7216 7.5892-4.6875 28.125-4.6875 28.125s5.1139-15.479 11.328-19.922c8.5172-6.0896 30.859-5.8594 30.859-5.8594l-14.453 3.9062s-13.978 15.664-14.453 25.391c-0.38956 7.9758 9.7656 21.875 9.7656 21.875s-0.39836-9.3758 1.1719-13.672c3.175-8.6864 16.016-22.656 16.016-22.656l17.969-1.5625c43.49-19.271 85.938-19.792 127.34-1.5625 0 0 27.589 10.42 34.375 22.266 2.9154 5.0893 0.78125 17.578 0.78125 17.578s9.8693-13.415 9.375-21.094c-0.67565-10.496-16.406-26.953-16.406-26.953l-17.578-3.9062s24.993-2.4358 34.375 4.2969c7.0497 5.0591 11.328 23.438 11.328 23.438s4.8603-19.87 0-27.734c-7.1942-11.641-23.036-18.168-36.719-18.359-8.3295-0.11647-22.656 10.547-22.656 10.547-41.406-17.188-82.812-16.667-124.22 1.5625z" style="fill:#ff837d;stroke-linejoin:round;stroke-width:3;stroke:#56595b"/>
  <path d="m-196.51-25.071c-0.64986 0.64986-18.106-6.0889-17.827-32.382 0.0543-5.1144-0.17547-10.252 2.9002-13.811 2.7903-3.2288 8.6086-6.9896 12.015-4.4194 9.833 7.4186 4.2813 45.437 4.2813 45.437z" style="fill:#ba6561;stroke-linejoin:round;stroke-width:3;stroke:#56595b"/>
  <path d="m-212.73-62.125s8.4451-14.255 10.864-9.9751c13.739 24.304 0.222 44.05-2.601 40.358 0 0 4.6939-20.293-2.6945-29.716-1.1536-1.4713-5.569-0.66749-5.569-0.66749z" style="fill:#fff"/>
  <path d="m-212.73-62.125s4.2662-0.67348 5.569 0.66749c6.9306 7.1335 2.6945 29.716 2.6945 29.716-4.297-6.0618-9.2996-10.869-8.2635-30.383z" style="fill:#ba6561"/>
  <path d="m-153.68-25.071c0.64986 0.64986 18.106-6.0889 17.827-32.382-0.0543-5.1144 0.17547-10.252-2.9002-13.811-2.7903-3.2288-8.6086-6.9896-12.015-4.4194-9.833 7.4186-4.2813 45.437-4.2813 45.437z" style="fill:#ba6561;stroke-linejoin:round;stroke-width:3;stroke:#56595b"/>
  <path d="m-137.47-62.125s-8.4451-14.255-10.864-9.9751c-13.739 24.304-0.222 44.05 2.601 40.358 0 0-4.6939-20.293 2.6945-29.716 1.1536-1.4713 5.569-0.66749 5.569-0.66749z" style="fill:#fff"/>
  <path d="m-137.47-62.125s-4.2662-0.67348-5.569 0.66749c-6.9306 7.1335-2.6945 29.716-2.6945 29.716 4.297-6.0618 9.2996-10.869 8.2635-30.383z" style="fill:#ba6561"/>
  <path d="m-191 16.435c10.968-1.3763 23.331-2.1881 35.079-0.55243l-0.69053-6.491s-12.126-6.3059-18.713-6.3529c-5.8304-0.041582-16.642 5.3862-16.642 5.3862z" style="fill:#fff;stroke-linejoin:round;stroke-width:3;stroke:#ba6561"/>
  <path d="m-181.35 16.665-2.4734-12.867" style="fill:none;stroke-linejoin:round;stroke-width:3;stroke:#ba6561"/>
  <path d="m-166.14 4.2813-1.6929 11.952" style="fill:none;stroke-linejoin:round;stroke-width:3;stroke:#ba6561"/>
 </g>
</svg>
