<?xml version="1.0" encoding="UTF-8"?>
<svg version="1.1" viewBox="0 0 192 192" xmlns="http://www.w3.org/2000/svg">
 <rect class="a" x="20" y="20" width="152" height="152" rx="10" style="fill:#fff"/>
 <path d="m107.96 172c-0.40799 0.0697-29.476 8e-3 -29.989 0-1.7283-0.0266-3.9963 0.0344-5.1722 0-1.9683-0.0576-1.3281 0-2.6298 0-0.87517 0-0.73233-9.9262-0.78591-9.9594-0.1067-0.0659 0.95115-1.054 1.1034-1.2062 0.15225-0.15226 0.91318-0.62609 1.691-1.053 1.4015-0.76918 4.5189-3.4778 4.5189-3.9263 0-0.37191 0.91066-1.497 1.5282-1.888 0.31429-0.199 0.57144-0.46215 0.57144-0.58478s-0.49388-0.52219-1.0975-0.8879l-1.0975-0.66493 1.0412-0.059c0.67539-0.0383 1.2889 0.0526 1.7462 0.25885l0.70497 0.3179 1.1524-0.78261c0.63384-0.43043 1.5659-0.93603 2.0712-1.1236 0.84813-0.31474 0.9271-0.39923 1.0269-1.0986 0.05946-0.41674 0.35498-1.2301 0.65671-1.8075 0.49499-0.94721 0.56526-1.3202 0.71916-3.8174 0.09381-1.5222 0.1576-3.6441 0.14174-4.7154-0.02348-1.5856 0.04322-2.1106 0.35856-2.8235 0.66982-1.5142 0.69422-2.0774 0.13622-3.1446-0.56857-1.0874-0.63988-2.1595-0.21179-3.1841 0.15747-0.37687 0.2863-1.097 0.2863-1.6002 0-0.83949 0.06302-0.96493 0.76349-1.5197 0.88006-0.69702 0.94289-1.084 0.36892-2.2719-0.45824-0.94844-0.7801-2.6847-0.63416-3.4209 0.05565-0.28076-0.03766-1.1547-0.2074-1.942-0.16972-0.78735-0.39705-1.9106-0.50519-2.4962-0.10813-0.58554-0.44567-1.5304-0.75008-2.0996-1.6689-3.1208-2.8873-6.1356-3.1143-7.7064-0.05997-0.41492 0.01647-1.6484 0.16986-2.7411 0.15339-1.0927 0.23253-2.1714 0.17587-2.3972-0.11909-0.47448 0.32848-1.6583 0.76342-2.0193 0.40641-0.33729 0.37635-0.52818-0.18897-1.2-0.74422-0.88445-1.1559-1.8176-1.5128-3.4286-0.17909-0.80856-0.44675-1.5706-0.59481-1.6935-0.38745-0.32155-0.33305-0.71371 0.18429-1.3285 0.25921-0.30805 0.50452-0.91268 0.57261-1.4114 0.06552-0.47984 0.16981-1.2454 0.23174-1.7013 0.30745-2.2632 1.5527-3.14 4.6845-3.2984 1.6751-0.08475 2.0806-0.04668 2.6418 0.24802 0.9437 0.49562 1.7712 1.6868 2.2702 3.268 0.32002 1.014 0.57544 1.4686 0.99171 1.765 0.56249 0.40053 0.71663 0.90313 0.38082 1.2417-0.09892 0.09973-0.26378 0.9973-0.36635 1.9946-0.10258 0.99731-0.27932 2.0551-0.39276 2.3506-0.38114 0.99291-0.30372 1.0851 0.91148 1.0851 0.98542 0 1.3823-0.13374 3.3529-1.1298l2.2352-1.1298 1.6178-3.2047c0.88979-1.7626 1.5927-3.38 1.562-3.5943-0.0431-0.3011-0.2397-0.41421-0.86499-0.49767-1.149-0.15335-2.3402-1.3866-2.3402-2.4228 0-0.68836-0.45234-0.98681-1.856-1.2245-1.3269-0.22472-1.3959-0.21742-1.8337 0.19384l-0.45489 0.42735-4.1788-0.96207c-4.5061-1.0374-12.494-2.9065-20.358-4.7633-2.7047-0.63866-4.9594-1.1612-5.0104-1.1612-0.20706 0-0.07036-1.1383 0.29506-2.457 0.50108-1.8082 1.055-2.889 1.4771-2.8819 0.18158 0.0031 6.9009 1.6565 14.932 3.6743l14.602 3.6687 0.0583 0.60034c0.0751 0.7736 0.51989 1.1635 1.5071 1.3214l0.79193 0.12664 0.23335-0.83332c0.37537-1.3405 0.68382-1.5014 2.8779-1.5014 2.5742 0 3.1656 0.29872 3.9833 2.0121l0.59728 1.2515 0.74982-0.67742c0.4124-0.37258 0.83355-0.67741 0.93591-0.67741 0.10235 0 0.63893 0.20751 1.1924 0.46114 0.55347 0.25362 1.3675 0.55654 1.8089 0.67314 1.6459 0.43474 2.6192 1.8907 2.5019 3.7423-0.0581 0.91712-0.0831 0.95257-0.96632 1.3708-0.9846 0.4663-1.0528 0.60522-0.62071 1.2646 0.26517 0.40471 0.25132 0.46646-0.19087 0.85094-0.39733 0.34547-0.4768 0.58465-0.4768 1.435 0 0.88491-0.0594 1.0475-0.44708 1.2241-0.41394 0.1886-0.45612 0.35008-0.56899 2.1779-0.1344 2.1768-1.124 6.5577-1.944 8.606-0.81767 2.0425-1.0029 2.1488-5.0714 2.911-4.891 0.91629-4.4374 0.74872-4.2874 1.584 0.0698 0.38896 0.46442 1.6885 0.87687 2.888 0.44758 1.3016 0.87214 3.0329 1.0531 4.2946 0.16676 1.1626 0.57144 2.8869 0.89929 3.8317 0.50288 1.4492 0.5932 1.9805 0.57763 3.3975l-0.0185 1.6797 1.2682-0.12349c1.1808-0.11497 1.2983-0.0912 1.706 0.3457 0.24081 0.25806 0.59488 0.88909 0.78681 1.4023 0.25283 0.67606 0.57246 1.0909 1.1603 1.5057 0.44622 0.31494 1.2088 0.98304 1.6945 1.4847 0.48576 0.50163 1.4936 1.5323 2.2396 2.2905 0.74599 0.75812 1.5413 1.6505 1.7674 1.983l0.41103 0.60465 1.3316-0.77095c1.4813-0.8576 2.6308-1.085 3.7003-0.73209 0.76608 0.25282 0.7993 0.3348 0.96989 2.3933 0.0609 0.73486 0.18445 2.2168 0.27456 3.2931 0.0901 1.0764 0.26079 2.0738 0.37929 2.2166 0.13613 0.16403 0.22091 1.2625 0.23029 2.9841 0.0137 2.5118-0.0176 2.7684-0.40065 3.2865-0.29491 0.39888-0.52046 1.2161-0.77712 2.8154-0.3134 1.953-1.4985 7.7253-2.3916 11.649-0.15532 0.68237-0.36338 2.3143-0.46233 3.6266-0.099 1.3122 0.26879 7.3808 0.20274 7.6682m-8.8273-2.3167c-0.66623-0.517-1.217-2.1469-0.61009-3.5917 0.96512-2.2974 1.2551-5.1955 0.82427-5.1955-0.20706 0-0.42838-0.13528-0.49183-0.30063-0.13156-0.34285 0.25757-1.799 0.48076-1.799 0.081 0 0.32727-0.16775 0.54733-0.37277 0.37889-0.35299 0.39497-0.51245 0.30306-3.0062-0.0634-1.7209-0.0189-2.9311 0.12865-3.4924 0.48137-1.8319 0.47869-1.9087-0.0665-1.9087-0.36343 0-0.52578-0.1218-0.61009-0.45776-0.17202-0.68537-0.029-1.2965 0.3462-1.4792 0.18372-0.0894 0.48434-0.23606 0.66806-0.32579 0.47667-0.23283 0.57023-2.6319 0.13814-3.5424-0.33902-0.71442-0.35348-0.72143-3.5261-1.7064-1.2073-0.3748-2.9954-1.0712-3.9736-1.5476-0.97823-0.47639-1.8943-0.86616-2.0356-0.86616-0.33188 0-1.2849 1.3275-2.6719 3.722-1.0788 1.8624-2.1816 3.3978-2.7668 3.8523-0.47853 0.37166-0.02007 0.60829 1.6207 0.8365 0.83511 0.11615 1.5842 0.25182 1.6645 0.3015 0.0804 0.0497 0.14615 0.30638 0.14615 0.57045 0 0.36086-0.56305 1.0337-2.2667 2.7087-1.9461 1.9134-2.2957 2.3501-2.4722 3.0882-0.17435 0.72901-0.4306 1.0563-1.6864 2.1536-0.29944 0.26167-0.25044 0.73361-1.7907 1.5943-1.7206 0.96152-5.1318 2.3744-7.2815 3.8353-3.1609 2.1481-6.2556 5.1463-6.6067 5.2472m27.365-67.547c0.52758-0.20246 2.8459-3.9348 3.7296-6.0043 0.73676-1.7254 0.78401-1.9282 0.51254-2.1997-0.20801-0.208-0.26976-0.51737-0.20285-1.0162 0.0626-0.46645-7e-3 -0.87649-0.19915-1.1729-0.16244-0.25065-0.48195-0.95762-0.71003-1.571-0.22808-0.61342-0.48255-1.0429-0.56548-0.95436-0.0829 0.08853-0.19156 1.707-0.2414 3.5966-0.12993 4.9261-0.57427 6.1799-2.8397 8.013-1.4839 1.2007-1.5781 1.4352-0.57632 1.4352 0.42009 0 0.91183-0.0568 1.0928-0.12624z" style="fill:#9abeff;stroke-width:.19087"/>
 <circle cx="125" cy="112" r="7.9968" style="fill:#9abeff;stroke-linecap:round;stroke-linejoin:round;stroke-width:.82991"/>
 <rect x="56.778" y="124.05" width="6.5393" height="47.377" ry="1.3624" style="fill:none;stroke-linecap:round;stroke-linejoin:round;stroke-width:1.1452;stroke:#9abeff"/>
 <rect x="63.317" y="124.05" width="6.5393" height="47.377" ry="1.3624" style="fill:none;stroke-linecap:round;stroke-linejoin:round;stroke-width:1.1452;stroke:#9abeff"/>
</svg>
