<?xml version="1.0" encoding="UTF-8"?><svg id="a" xmlns="http://www.w3.org/2000/svg" width="192" height="192" viewBox="0 0 192 192"><defs><style>.d{fill:#b1b5bd;}.d,.e{stroke-width:0px;}.e{fill:#ba6561;}</style></defs><g id="b"><g id="c"><path class="d" d="m8,39v114c0,3.87,3.13,7,7,7h162c3.87,0,7-3.13,7-7V42c0-5.52-4.48-10-10-10H15c-3.87,0-7,3.13-7,7Zm161,111H23c-2.76,0-5-2.24-5-5V47c0-2.76,2.24-5,5-5h146c2.76,0,5,2.24,5,5v98c0,2.76-2.24,5-5,5Z"/><path class="d" d="m132.5,98.15c10.69,0,19.35-8.66,19.35-19.35s-8.66-19.35-19.35-19.35-19.35,8.66-19.35,19.35,8.66,19.35,19.35,19.35Z"/><path class="d" d="m162.53,130.41c.09,1.18-.89,2.15-2.07,2.15h-55.91c-1.19,0-2.16-.96-2.07-2.15.51-7.2,3.6-14,8.74-19.14,5.64-5.65,13.3-8.82,21.29-8.82s15.64,3.17,21.29,8.82c5.14,5.14,8.23,11.94,8.74,19.14Z"/><polygon class="e" points="89.2 90.97 89.2 75.86 29.13 75.86 37.53 90.97 89.2 90.97"/><polygon class="e" points="89.2 116.14 89.2 101.03 43.11 101.03 51.51 116.14 89.2 116.14"/></g></g></svg>