<?xml version="1.0" encoding="UTF-8" standalone="no"?>
<svg
   version="1.0"
   width="192"
   height="192"
   viewBox="0 0 144 144"
   preserveAspectRatio="xMidYMid"
   id="svg5"
   sodipodi:docname="eausweise.svg"
   inkscape:version="1.3.2 (091e20ef0f, 2023-11-25, custom)"
   xmlns:inkscape="http://www.inkscape.org/namespaces/inkscape"
   xmlns:sodipodi="http://sodipodi.sourceforge.net/DTD/sodipodi-0.dtd"
   xmlns="http://www.w3.org/2000/svg"
   xmlns:svg="http://www.w3.org/2000/svg">
  <defs
     id="defs5">
    <linearGradient
       id="swatch37"
       inkscape:swatch="solid">
      <stop
         style="stop-color:#000000;stop-opacity:1;"
         offset="0"
         id="stop38" />
    </linearGradient>
    <linearGradient
       id="swatch36">
      <stop
         style="stop-color:#0ed800;stop-opacity:1;"
         offset="0"
         id="stop36" />
      <stop
         style="stop-color:#0ed800;stop-opacity:1;"
         offset="1"
         id="stop37" />
    </linearGradient>
    <linearGradient
       id="swatch11"
       inkscape:swatch="solid">
      <stop
         style="stop-color:#a0a5af;stop-opacity:1;"
         offset="0"
         id="stop11" />
    </linearGradient>
    <inkscape:path-effect
       effect="fillet_chamfer"
       id="path-effect6"
       is_visible="true"
       lpeversion="1"
       nodesatellites_param="F,0,0,1,0,0,0,1 @ F,0,0,1,0,42.497545,0,1 @ F,0,0,1,0,0,0,1 @ F,0,0,1,0,110.9616,0,1 @ F,0,0,1,0,0,0,1 @ F,0,0,1,0,71.589105,0,1 @ F,0,0,1,0,0,0,1 @ F,0,0,1,0,0,0,1 @ F,0,0,1,0,74.721262,0,1 @ F,0,0,1,0,0,0,1 @ F,0,0,1,0,60.835845,0,1 @ F,0,0,1,0,0,0,1 @ F,0,0,1,0,0,0,1 @ F,0,0,1,0,109.58817,0,1 @ F,0,0,1,0,0,0,1 @ F,0,0,1,0,56.824291,0,1 @ F,0,0,1,0,0,0,1 @ F,0,0,1,0,0,0,1 | F,0,0,1,0,0,0,1 @ F,0,0,1,0,0,0,1 @ F,0,0,1,0,0,0,1 @ F,0,0,1,0,0,0,1 @ F,0,0,1,0,0,0,1 @ F,0,0,1,0,0,0,1 @ F,0,0,1,0,0,0,1 @ F,0,0,1,0,0,0,1 @ F,0,0,1,0,0,0,1 @ F,0,0,1,0,0,0,1 @ F,0,0,1,0,0,0,1 @ F,0,0,1,0,0,0,1 @ F,0,0,1,0,0,0,1"
       radius="0"
       unit="px"
       method="auto"
       mode="F"
       chamfer_steps="1"
       flexible="false"
       use_knot_distance="true"
       apply_no_radius="true"
       apply_with_radius="true"
       only_selected="false"
       hide_knots="false" />
    <inkscape:path-effect
       effect="fillet_chamfer"
       id="path-effect5"
       is_visible="true"
       lpeversion="1"
       nodesatellites_param="F,0,0,1,0,0,0,1 @ F,0,0,1,0,0,0,1 @ F,0,0,1,0,0,0,1 @ F,0,0,1,0,0,0,1 @ F,0,0,1,0,0,0,1 @ F,0,0,1,0,0,0,1 @ F,0,0,1,0,0,0,1 @ F,0,0,1,0,0,0,1 @ F,0,0,1,0,0,0,1 @ F,0,0,1,0,0,0,1 @ F,0,0,1,0,0,0,1 @ F,0,0,1,0,0,0,1 @ F,0,0,1,0,0,0,1 @ F,0,0,1,0,0,0,1 @ F,0,0,1,0,0,0,1 @ F,0,0,1,0,56.824291,0,1 @ F,0,0,1,0,0,0,1 @ F,0,0,1,0,0,0,1 | F,0,0,1,0,0,0,1 @ F,0,0,1,0,0,0,1 @ F,0,0,1,0,0,0,1 @ F,0,0,1,0,0,0,1 @ F,0,0,1,0,0,0,1 @ F,0,0,1,0,0,0,1 @ F,0,0,1,0,0,0,1 @ F,0,0,1,0,0,0,1 @ F,0,0,1,0,0,0,1 @ F,0,0,1,0,0,0,1 @ F,0,0,1,0,0,0,1 @ F,0,0,1,0,0,0,1 @ F,0,0,1,0,0,0,1"
       radius="0"
       unit="px"
       method="auto"
       mode="F"
       chamfer_steps="1"
       flexible="false"
       use_knot_distance="true"
       apply_no_radius="true"
       apply_with_radius="true"
       only_selected="false"
       hide_knots="false" />
  </defs>
  <sodipodi:namedview
     id="namedview5"
     pagecolor="#ffffff"
     bordercolor="#666666"
     borderopacity="1.0"
     inkscape:showpageshadow="2"
     inkscape:pageopacity="0.0"
     inkscape:pagecheckerboard="0"
     inkscape:deskcolor="#d1d1d1"
     inkscape:document-units="pt"
     inkscape:zoom="2"
     inkscape:cx="41"
     inkscape:cy="144"
     inkscape:window-width="3840"
     inkscape:window-height="2123"
     inkscape:window-x="1920"
     inkscape:window-y="37"
     inkscape:window-maximized="1"
     inkscape:current-layer="g5" />
  <g
     transform="matrix(0.1,0,0,-0.1,0,232)"
     fill="#000000"
     stroke="none"
     id="g5"
     style="stroke:#a0a5af;stroke-opacity:1">
    <path
       style="opacity:1;fill:#b1b5bd;fill-opacity:1;stroke:#000000;stroke-width:0.452475;stroke-dasharray:none;stroke-opacity:0"
       d="m 922.98307,1840.3056 c -72.9832,-32.2752 -94.557,-130.894 -41.7703,-191.8584 33.0491,-38.551 97.3111,-48.8611 148.26173,-23.7582 44.5244,21.9651 65.1801,54.6886 65.6391,105.7911 0,47.9646 -33.5081,96.8258 -77.1144,112.0669 -25.24585,8.5171 -72.98343,7.6205 -95.01613,-2.2414 z"
       id="path2" />
    <path
       d="m 255.11697,1751.1004 c 0,-1.793 1.836,-5.3792 4.131,-7.6205 2.2952,-2.6896 11.9345,-21.9651 21.5738,-43.482 l 16.9835,-39.4475 h 199.2123 198.7533 v 47.0681 47.0681 h -220.327 c -121.1798,0 -220.3269,-1.7931 -220.3269,-3.5862 z"
       id="path3"
       style="fill:#b02a3c;fill-opacity:1;stroke:#a0a5af;stroke-width:0.453609;stroke-opacity:0" />
    <path
       d="m 522.72247,1558.7937 c -94.098,-0.8966 -171.2125,-2.2413 -171.2125,-3.5862 0,-1.3447 9.6393,-21.5168 21.5737,-44.8267 l 22.0327,-42.5854 h 150.0978 150.5567 v 47.0681 c 0,25.9995 -0.459,46.6198 -0.918,46.1715 -0.918,-0.8965 -78.4915,-1.793 -172.1304,-2.2413 z"
       id="path4"
       style="fill:#b02a3c;fill-opacity:1;stroke:#dc505e;stroke-width:0.453609;stroke-opacity:0" />
    <path
       d="m 927.11427,1557.4489 c -44.0655,-8.5171 -99.6061,-47.9646 -123.0159,-86.9639 -13.7705,-23.3099 -25.7048,-61.8609 -25.7048,-84.2742 v -17.0342 h 192.327 c 122.09803,0 193.70423,1.7931 195.54033,4.4827 4.5902,7.1722 -5.9672,52.8955 -18.8196,81.1364 -14.6885,31.3787 -57.3769,73.0675 -90.8849,88.7569 -37.6392,17.0342 -85.37673,22.4134 -129.44213,13.8963 z"
       id="path5"
       style="fill:#b1b5bd;fill-opacity:1;stroke:#a0a5af;stroke-width:0.453609;stroke-opacity:0" />
    <path
       d="m 1440,2201 c -792.7424,-4.5516 -1014.03137,-6.2259 -1089.07974,-14.6271 -23.16971,-2.5937 -57.92745,-19.0422 -77.45824,-32.0405 C 222.60228,2120.4838 185.47704,2078.4018 161,2027 A 396.11783,396.11783 80.03104 0 1 130.59894,1854.0391 L 128,1135 125.25875,376.58864 A 281.24432,281.24432 104.07393 0 1 159,242 l 0,0 C 198,171 237,132 313,92 A 273.14378,273.14378 167.97207 0 1 439.72126,65 H 1560 2694.1642 A 271.03736,271.03736 12.650689 0 1 2810,91 c 73,35 126,89 162,164 a 410.54203,410.54203 80.818077 0 1 27.7356,171.58785 L 2998,1146 l -2.7944,772.1761 A 226.54739,226.54739 104.28819 0 1 2968,2025 c -32,62 -104,130 -166,157 -59,26 -13,26 -1362,19 z m 1188,-200 c 98,-7 105,-9 135,-39 31,-31 31,-32 40,-179 4,-81 7,-429 5,-773 -3,-607 -4,-626 -24,-665 -13,-26 -34,-47 -60,-60 -38,-20 -59,-20 -1159,-20 -1100,0 -1121,0 -1160,20 -27,13 -47,33 -60,60 -19,38 -20,65 -23,690 -2,358 1,705 6,773 8,120 10,124 40,155 30,29 38,32 119,38 129,9 2020,9 2141,0 z"
       id="path1"
       inkscape:path-effect="#path-effect6"
       inkscape:original-d="M 1440,2201 C 395,2195 343,2194 310,2176 240,2139 191,2090 161,2027 l -30,-62 -3,-830 -3,-830 34,-63 C 198,171 237,132 313,92 l 52,-27 h 1195 1195 l 55,26 c 73,35 126,89 162,164 l 28,62 -2,829 -3,829 -27,50 c -32,62 -104,130 -166,157 -59,26 -13,26 -1362,19 z m 1188,-200 c 98,-7 105,-9 135,-39 31,-31 31,-32 40,-179 4,-81 7,-429 5,-773 -3,-607 -4,-626 -24,-665 -13,-26 -34,-47 -60,-60 -38,-20 -59,-20 -1159,-20 -1100,0 -1121,0 -1160,20 -27,13 -47,33 -60,60 -19,38 -20,65 -23,690 -2,358 1,705 6,773 8,120 10,124 40,155 30,29 38,32 119,38 129,9 2020,9 2141,0 z"
       style="display:inline;fill:#b1b5bd;fill-opacity:1;stroke:#a0a5af;stroke-opacity:1"
       transform="matrix(0.45901458,0,0,0.44826742,2.6588785,1091.2508)" />
  </g>
</svg>
