<?xml version="1.0" encoding="UTF-8" standalone="no"?>
<svg
   version="1.1"
   viewBox="0 0 192 192"
   id="svg12"
   sodipodi:docname="ente_auth_light.svg"
   inkscape:version="1.4.3 (0d15f75042, 2025-12-25)"
   inkscape:export-filename="ente_auth_light.png"
   inkscape:export-xdpi="96"
   inkscape:export-ydpi="96"
   xmlns:inkscape="http://www.inkscape.org/namespaces/inkscape"
   xmlns:sodipodi="http://sodipodi.sourceforge.net/DTD/sodipodi-0.dtd"
   xmlns="http://www.w3.org/2000/svg"
   xmlns:svg="http://www.w3.org/2000/svg">
  <defs
     id="defs16">
    <inkscape:path-effect
       effect="fillet_chamfer"
       id="path-effect1716"
       is_visible="true"
       lpeversion="1"
       nodesatellites_param="F,0,0,1,0,0,0,1 @ F,0,0,1,0,0,0,1 @ F,0,0,1,0,0,0,1 @ F,0,0,1,0,0,0,1 @ F,0,0,1,0,0,0,1 @ F,0,0,1,0,0,0,1"
       unit="px"
       method="auto"
       mode="F"
       radius="0"
       chamfer_steps="1"
       flexible="false"
       use_knot_distance="true"
       apply_no_radius="true"
       apply_with_radius="true"
       only_selected="false"
       hide_knots="false" />
    <inkscape:path-effect
       effect="fillet_chamfer"
       id="path-effect1712"
       is_visible="true"
       lpeversion="1"
       nodesatellites_param="F,0,0,1,0,0,0,1 @ F,0,0,1,0,0,0,1 @ F,0,0,1,0,0,0,1 @ F,0,0,1,0,0,0,1 @ F,0,0,1,0,0,0,1 @ F,0,0,1,0,0,0,1 @ F,0,0,1,0,0,0,1 @ F,0,0,1,0,0,0,1 @ F,0,0,1,0,0,0,1 @ F,0,0,1,0,0,0,1 @ F,0,0,1,0,0,0,1 @ F,0,0,1,0,0,0,1 @ F,0,0,1,0,4.5002472,0,1 @ F,0,0,1,0,0,0,1 @ F,0,0,1,0,0,0,1 @ F,0,0,1,0,0,0,1 @ F,0,0,1,0,0,0,1 @ F,0,0,1,0,0,0,1 @ F,0,0,1,0,0,0,1 @ F,0,0,1,0,0,0,1 @ F,0,0,1,0,0,0,1 @ F,0,0,1,0,0,0,1 @ F,0,0,1,0,0,0,1 | F,0,0,1,0,3.9429651,0,1 @ F,0,0,1,0,0,0,1 @ F,0,0,1,0,0,0,1 @ F,0,0,1,0,0,0,1 @ F,0,0,1,0,0,0,1 @ F,0,0,1,0,0,0,1 @ F,0,0,1,0,5.1816428,0,1"
       unit="px"
       method="auto"
       mode="F"
       radius="0"
       chamfer_steps="1"
       flexible="false"
       use_knot_distance="true"
       apply_no_radius="true"
       apply_with_radius="true"
       only_selected="true"
       hide_knots="false" />
    <inkscape:path-effect
       effect="fillet_chamfer"
       id="path-effect6032"
       is_visible="true"
       lpeversion="1"
       nodesatellites_param="F,0,0,1,0,3,0,1 @ F,0,0,1,0,3,0,1 @ F,0,0,1,0,3,0,1 @ F,0,0,1,0,3,0,1 @ F,0,0,1,0,3,0,1 @ F,0,0,1,0,3,0,1 @ F,0,0,1,0,3,0,1 @ F,0,0,1,0,3,0,1 @ F,0,0,1,0,3,0,1 @ F,0,0,1,0,3,0,1 @ F,0,0,1,0,3,0,1 @ F,0,0,1,0,3,0,1 @ F,0,0,1,0,0.46712902,0,1 @ F,0,0,1,0,3,0,1 @ F,0,0,1,0,3,0,1 @ F,0,0,1,0,3,0,1 @ F,0,0,1,0,3,0,1 @ F,0,0,1,0,3,0,1 @ F,0,0,1,0,3,0,1 @ F,0,0,1,0,3,0,1 @ F,0,0,1,0,3,0,1 @ F,0,0,1,0,3,0,1 @ F,0,0,1,0,3,0,1 | F,0,0,1,0,0,0,1 @ F,0,0,1,0,3,0,1 @ F,0,1,1,0,4.5e-05,0,1 @ F,0,0,1,0,4.5e-05,0,1"
       unit="px"
       method="arc"
       mode="IC"
       radius="3"
       chamfer_steps="1"
       flexible="false"
       use_knot_distance="true"
       apply_no_radius="true"
       apply_with_radius="true"
       only_selected="false"
       hide_knots="false" />
  </defs>
  <sodipodi:namedview
     id="namedview14"
     pagecolor="#505050"
     bordercolor="#ffffff"
     borderopacity="1"
     inkscape:showpageshadow="0"
     inkscape:pageopacity="0"
     inkscape:pagecheckerboard="1"
     inkscape:deskcolor="#505050"
     showgrid="false"
     inkscape:zoom="4"
     inkscape:cx="65.875"
     inkscape:cy="90.25"
     inkscape:window-width="1920"
     inkscape:window-height="1048"
     inkscape:window-x="0"
     inkscape:window-y="0"
     inkscape:window-maximized="1"
     inkscape:current-layer="svg12" />
  <circle
     class="a"
     cx="96"
     cy="96"
     r="88"
     style="fill:#ffffff"
     id="circle2" />
  <text
     x="95.917587"
     y="135.26936"
     style="font-style:normal;font-variant:normal;font-weight:bold;font-stretch:normal;font-size:168.78px;font-family:'Antipasto Pro';-inkscape-font-specification:'Antipasto Pro Bold';text-align:center;text-anchor:middle;white-space:pre;inline-size:88.2029;display:inline;fill:#ffffff;stroke:#56595b;stroke-width:18;stroke-linecap:round;stroke-linejoin:round;stroke-dasharray:none;paint-order:stroke markers fill"
     xml:space="preserve"
     id="text1884"
     inkscape:label="e but text"><tspan
       x="95.917587"
       y="135.26936"
       id="tspan1">e</tspan></text>
  <g
     aria-label="e"
     id="text1682"
     style="font-weight:bold;font-size:168.78px;font-family:'Antipasto Pro';-inkscape-font-specification:'Antipasto Pro Bold';text-align:center;text-anchor:middle;display:inline;fill:#ffffff;stroke:#56595b;stroke-width:18;stroke-linecap:round;stroke-linejoin:round;paint-order:stroke markers fill"
     inkscape:label="e but path">
    <path
       d="m 95.876381,136.25831 c -7.252265,0 -13.982587,-1.81307 -20.190966,-5.4392 -6.153438,-3.62613 -11.043223,-8.51592 -14.669356,-14.66936 -3.626133,-6.15343 -5.439199,-12.88375 -5.439199,-20.190962 0,-7.307207 1.813066,-14.03753 5.439199,-20.190967 3.626133,-6.153437 8.515918,-11.015752 14.669356,-14.586943 6.208379,-3.626133 12.938701,-5.4392 20.190966,-5.4392 7.252269,0 13.955119,1.785596 20.108559,5.356788 6.15343,3.571191 11.07069,8.406035 14.75176,14.504531 3.68107,6.098496 5.57655,12.773877 5.68644,20.026142 0,2.307539 -0.79665,4.203016 -2.38995,5.686431 -1.53836,1.48342 -3.51625,2.22513 -5.93367,2.22513 H 78.619832 c -2.485418,0 -4.005694,1.97867 -2.884155,4.192 0.788247,1.55559 1.760438,3.01521 2.916573,4.37886 2.142715,2.52731 4.697491,4.5052 7.664327,5.93367 2.966835,1.37354 6.153437,2.06031 9.559804,2.06031 6.647909,0 11.729989,-2.03283 15.246239,-6.0985 1.48342,-1.53836 3.15913,-2.30754 5.02714,-2.30754 1.37353,0 2.7196,0.38459 4.03819,1.15377 1.37354,0.76918 2.49984,1.84054 3.3789,3.21407 0.93401,1.37353 1.40101,2.85695 1.40101,4.45026 0,2.58225 -1.07136,4.75243 -3.21408,6.51055 -3.35143,2.80201 -7.05997,5.05461 -11.12563,6.7578 -4.01073,1.64824 -8.92798,2.47236 -14.751769,2.47236 z M 117.83814,85.778777 c -0.81238,-1.934807 -1.89711,-3.733433 -3.25421,-5.395878 -2.14271,-2.692129 -4.80737,-4.779902 -7.99397,-6.26332 -3.18661,-1.538359 -6.647917,-2.307539 -10.38393,-2.307539 -3.681075,0 -7.087442,0.76918 -10.219102,2.307539 -3.13166,1.538359 -5.768847,3.653603 -7.911562,6.345732 -1.052641,1.322549 -1.946167,2.724656 -2.680577,4.20632 -1.26836,2.558904 0.550224,4.859012 3.411966,4.859012 l 36.284455,0 c 2.17764,0 3.58888,-1.746612 2.74693,-3.751866 z"
       id="path1684"
       inkscape:path-effect="#path-effect1712"
       inkscape:original-d="m 95.876381,136.25831 q -10.878398,0 -20.190966,-5.4392 -9.230157,-5.4392 -14.669356,-14.66936 -5.439199,-9.23015 -5.439199,-20.190962 0,-10.960811 5.439199,-20.190967 5.439199,-9.230156 14.669356,-14.586943 9.312568,-5.4392 20.190966,-5.4392 10.878399,0 20.108559,5.356788 9.23015,5.356787 14.75176,14.504531 5.52161,9.147744 5.68644,20.026142 0,3.461309 -2.38995,5.686431 -2.30754,2.22513 -5.93367,2.22513 H 74.119585 q 1.318593,4.7799 4.532665,8.57086 3.214073,3.79096 7.664327,5.93367 4.450253,2.06031 9.559804,2.06031 9.971869,0 15.246239,-6.0985 2.22513,-2.30754 5.02714,-2.30754 2.0603,0 4.03819,1.15377 2.06031,1.15377 3.3789,3.21407 1.40101,2.0603 1.40101,4.45026 0,3.87337 -3.21408,6.51055 -5.02714,4.20302 -11.12563,6.7578 -6.01609,2.47236 -14.751769,2.47236 z M 119.03418,89.530643 q -1.15377,-5.109551 -4.45025,-9.147744 -3.21407,-4.038193 -7.99397,-6.26332 -4.77991,-2.307539 -10.38393,-2.307539 -5.521612,0 -10.219102,2.307539 -4.69749,2.307539 -7.911562,6.345732 -3.214073,4.038193 -4.450254,9.065332 z" />
  </g>
  <g
     id="g2582"
     inkscape:label="Shield"
     style="display:inline;stroke-width:11;stroke-dasharray:none;paint-order:stroke markers fill">
    <path
       d="m 56.154807,49.256693 -13.340002,4.5375 c -1.8453,5.8685 -2.4805,11.979 -1.9058,18.332 3.1158,5.9895 7.6836,10.164 13.703002,12.523997 7.8651,-1.9663 13.068,-6.231597 15.609,-12.795997 0.51425,-5.687 0.42351,-11.374 -0.27225,-17.061 l -13.794,-5.5358"
       style="display:inline;fill:#bd9aff;stroke:#56595b;stroke-width:11;stroke-linecap:round;stroke-linejoin:round;stroke-dasharray:none;paint-order:stroke markers fill"
       id="path2009" />
    <path
       d="m 56.053082,50.84654 c -1.351785,32.168572 0.116295,0.0126 -1.405571,32.232717 7.165515,-1.7907 11.905628,-5.675089 14.220609,-11.653263 0.46851,-5.17913 0.385841,-10.358257 -0.248033,-15.537385 l -12.56705,-5.041432"
       style="display:none;fill:#8c72bd;stroke:none;stroke-width:11;stroke-linecap:round;stroke-linejoin:round;stroke-dasharray:none;paint-order:stroke markers fill"
       id="path1718"
       sodipodi:nodetypes="ccccc" />
  </g>
</svg>
