<?xml version="1.0" encoding="UTF-8"?>
<svg version="1.1" viewBox="0 0 192 192" xmlns="http://www.w3.org/2000/svg">
 <circle class="a" cx="96" cy="96" r="88" style="fill:#56595b"/>
 <path d="m95.449 66.266a24.783 24.783 0 0 0-35.049 0 24.783 24.783 0 0 0 8e-6 35.049 24.783 24.783 0 0 0 20.078 7.0833l2.3661 2.3661 0.04252 0.0195a24.783 24.783 0 0 0 7.081 20.098 24.783 24.783 0 0 0 35.049 1e-5 24.783 24.783 0 0 0 5e-5 -35.049z" style="fill:#fff;stroke-linejoin:round;stroke-width:8.3207"/>
 <path d="m91.025 70.576c-7.0446-7.0447-18.466-7.0447-25.511-9e-6 -7.0447 7.0447-7.0447 18.466 0 25.511 4.4731 4.4562 10.951 6.2492 17.079 4.7276l7.8176 7.8176 0.02421 0.0218c-1.5225 6.1286 0.2706 12.607 4.7276 17.081 7.0446 7.0446 18.466 7.0446 25.511-1e-5 5.9864-5.9898 7.0002-15.337 2.4373-22.471 0 0 4e-3 -2e-3 3e-3 -3e-3 -2.3e-4 -7e-3 -0.0107-0.0107-0.0161-0.0161-1.6898-1.7056-3.2393-3.3335-5.0459-5.1401z" style="fill:#56595b;stroke-linejoin:round;stroke-width:8.6722"/>
 <path d="m82.614 78.444-9.3445 9.3445" style="fill:none;stroke-linecap:round;stroke-linejoin:round;stroke-width:5.8245;stroke:#fff"/>
 <path d="m82.614 87.789-9.3445-9.3445" style="fill:none;stroke-linecap:round;stroke-linejoin:round;stroke-width:5.8245;stroke:#fff"/>
 <path d="m92.121 94.371 4.4285 4.4285" style="fill:#fff;stroke-linecap:round;stroke-linejoin:round;stroke-width:6.6565;stroke:#ff837d"/>
 <circle transform="rotate(45)" cx="152.67" cy="8.3704" r="4.654" style="fill:#98dc9a"/>
 <circle transform="rotate(45)" cx="160.89" cy="-.93765" r="4.654" style="fill:#f9de81"/>
 <path d="m129.95 60.771-21.696 21.696" style="fill:none;stroke-linecap:round;stroke-linejoin:round;stroke-width:5.8245;stroke:#fff"/>
</svg>
