<?xml version="1.0" encoding="UTF-8"?><svg id="a" xmlns="http://www.w3.org/2000/svg" width="192" height="192" viewBox="0 0 192 192"><defs><style>.d{fill:#9abeff;fill-rule:evenodd;}.d,.e,.f{stroke-width:0px;}.e{fill:#728dbe;}.f{fill:#fff;}</style></defs><g id="b"><g id="c"><path class="d" d="m153,48.5h-14.25l-4.75-9.5c-2.8-5.52-4.26-9.5-9.5-9.5h-57c-5.24,0-6.98,4.53-9.5,9.5l-4.75,9.5h-14.25c-10.49,0-19,8.51-19,19v76c0,10.49,8.51,19,19,19h114c10.49,0,19-8.51,19-19v-76c0-10.49-8.51-19-19-19Z"/><circle class="f" cx="96" cy="105.5" r="38" transform="translate(-38.21 153.82) rotate(-67.5)"/><path class="e" d="m112.82,88.68l-26.43,7.21-7.21,26.43,26.43-7.21,7.21-26.43Zm-16.82,21.63c-2.65,0-4.81-2.15-4.81-4.81s2.15-4.81,4.81-4.81,4.81,2.15,4.81,4.81-2.15,4.81-4.81,4.81Z"/><circle class="f" cx="96" cy="105.5" r="4.81"/></g></g></svg>