<?xml version="1.0" encoding="UTF-8"?>
<svg version="1.1" viewBox="0 0 192 192" xmlns="http://www.w3.org/2000/svg">
 <rect class="a" x="20" y="20" width="152" height="152" rx="10" style="fill:#9abeff"/>
 <path d="m97.363 138.36c-2.2586-1.5081-2.6661-4.284-3.1804-21.664-0.2868-9.6919-0.54491-27.527-0.57358-39.632l-0.05213-22.011 1.7396-1.1398c1.304-0.85443 2.2306-0.97633 3.7005-0.48685l1.961 0.65296 0.54225 40.751c0.48086 36.137 0.41917 40.939-0.5449 42.41-1.1111 1.6958-2.2146 2.0397-3.5924 1.1198zm-26.373-18.858c-1.2579-1.5157-1.9701-10.873-2.2306-29.305-0.23769-16.82-4.38e-4 -18.26 3.0083-18.26 2.5176 0 2.7896 2.2612 2.9519 24.541 0.12803 17.571-0.02733 21.973-0.80892 22.921-1.1966 1.452-1.7839 1.4726-2.9207 0.10282zm37.483-2.2771c-0.35215-0.67844-0.84218-6.15-1.089-12.159-0.24678-6.009-0.63864-13.939-0.87079-17.622-0.4735-7.5116 0.42241-12.254 2.528-13.38 1.8775-1.0048 1.9731-0.96379 3.1762 1.3627 0.88844 1.718 1.0754 5.4925 1.0754 21.71 0 14.328-0.22845 19.859-0.84584 20.476-1.2308 1.2308-3.2354 1.0353-3.974-0.38767zm-26.723-4.2292c-0.9576-2.178-1.1684-5.3151-1.1975-17.823-0.03104-13.312 0.11654-15.412 1.1995-17.07 0.71429-1.0936 1.649-1.7319 2.217-1.5139 1.6931 0.6497 2.524 5.8054 3.3011 20.482 0.66745 12.606 0.62515 14.454-0.37526 16.388-1.5905 3.0758-3.6713 2.8886-5.1449-0.46289zm-24.863-8.3281c-0.37808-0.99442-0.68742-4.9416-0.68742-8.7715 0-6.4333 0.13432-7.114 1.7643-8.9412l1.7643-1.9777 1.4076 1.664c1.2199 1.4422 1.4076 2.6934 1.4076 9.3858 0 4.247-0.32835 8.3353-0.72966 9.0852-1.0967 2.0493-4.0809 1.78-4.9267-0.44466zm63.367-0.0605c-0.65242-0.78613-1.0475-3.738-1.2176-9.0988-0.23137-7.2886-0.13987-7.9952 1.1229-8.671 1.0263-0.54928 1.7597-0.46616 2.8935 0.32798 1.4019 0.98193 1.5187 1.6732 1.5187 8.9888 0 7.797-0.47717 9.6167-2.5217 9.6167-0.45651 0-1.2646-0.52364-1.7958-1.1636zm9.5909-4.4964c-0.99074-1.603-0.68388-6.9851 0.46368-8.1327 3.0882-3.0882 7.1165 3.1875 4.8111 7.4953-0.78762 1.4717-4.4831 1.9183-5.2747 0.63742z" style="fill:#fff;stroke-width:.70487"/>
</svg>
