<?xml version="1.0" encoding="UTF-8"?>
<svg version="1.1" viewBox="0 0 192 192" xmlns="http://www.w3.org/2000/svg">
 <rect class="a" x="20" y="20" width="152" height="152" rx="10" style="fill:#71a372"/>
 <g transform="matrix(.17259 0 0 .17312 57.88 57.645)" stroke-linejoin="round">
  <path d="m103.28 64.29 173.8-1.24 66.21 66.82 2.36 241.28-243.55 2.47z" fill="#dfe8ce" stroke="#7ef09f" stroke-width="36.712" style="stroke:#98dc9a"/>
  <path d="m115.59 73.46 158.54-1.17 60.4 63.04 2.16 227.63-222.17 2.33z" fill="#fff" stroke="#fff" stroke-width="17.38"/>
  <path d="m146.52 252.82h74.71" fill="#19c367" stroke="#92d892" stroke-linecap="round" stroke-width="22" style="fill:none;stroke:#98dc9a"/>
  <path d="m146.52 209.91h131.41" fill="#19c367" stroke="#92d892" stroke-linecap="round" stroke-width="22" style="fill:none;stroke:#98dc9a"/>
  <g fill-opacity="0" stroke="#fff" stroke-linecap="round" stroke-width="30">
   <path d="m15.21 99.06c0-27.95-2.99-47.32 16.77-67.08 19.76-19.77 39.13-16.77 67.08-16.77" style="fill:none"/>
   <path d="m100.21 425.9c-27.95 0-47.32 2.99-67.08-16.77-19.77-19.77-16.78-39.14-16.78-67.09" style="fill:none"/>
   <path d="m340.04 427.9c27.95 0 47.32 2.99 67.08-16.77s16.77-39.13 16.77-67.08" style="fill:none"/>
   <path d="m342.68 17.21c27.95 0 47.32-2.99 67.08 16.77s16.77 39.13 16.77 67.08" style="fill:none"/>
  </g>
 </g>
</svg>
