<?xml version="1.0" encoding="UTF-8" standalone="no"?>
<svg
   viewBox="0 0 192 192"
   version="1.1"
   id="svg3"
   xml:space="preserve"
   width="192"
   height="192"
   xmlns="http://www.w3.org/2000/svg"
   xmlns:svg="http://www.w3.org/2000/svg"><defs
     id="defs1"><style
       id="style1">.a{fill:none;stroke:#b1b5bd;stroke-linecap:round;stroke-linejoin:round;isolation:isolate;opacity:0.63;}</style></defs><path
     class="a"
     x="20"
     y="20"
     width="152"
     height="152"
     rx="10"
     id="rect1"
     style="opacity:1;fill:#96dfd3;fill-opacity:1;stroke:none"
     d="m 40,20 h 112 c 5.52285,0 15.55616,0.132226 18.41855,4.586465 C 172.10248,27.2069 172,34.477153 172,40 v 112 c 0,5.52285 -0.13223,15.55616 -4.58646,18.41855 C 165.85514,171.42002 163.99779,172 162,172 H 30 c -5.54,0 -10,-4.46 -10,-10 V 30 c 0,-1.997793 0.579985,-3.855142 1.58145,-5.413542 C 24.443847,20.132225 34.477153,20 40,20 Z" /><style
     type="text/css"
     id="style1-3">
	.st0{fill:url(#SVGID_1_);}
	.st1{fill:#1E1E1E;}
	.st2{fill:#1F1F1F;}
</style><path
     d="m 171.94141,155.13867 c -1.45287,-4.97501 -4.47288,-11.16588 -6.18946,-14.49414 -0.68198,-1.3223 -2.01418,-3.32661 -2.85351,-4.55469 -4.3888,-6.42147 -5.13977,-11.57587 -5.13867,-14.36132 4.9e-4,-1.25776 0.43285,-3.26251 0.69921,-4.49219 1.77669,-8.2022 3.28176,-16.94751 3.99219,-21.242189 0.24643,-1.489706 0.6167,-3.910377 0.72266,-5.416016 0.60627,-8.614609 0.14969,-35.456606 -27.13281,-47.574219 -6.77732,-3.010168 -18.79828,-5.613849 -26.16797,-4.935547 -33.744624,3.105836 -48.426624,47.217078 -50.7168,54.835938 -0.184844,0.614932 -0.591308,0.672371 -0.923828,0.123047 l -1.173828,-1.9375 c -0.234269,-0.387012 -0.216553,-1.006848 -0.04492,-1.423828 0.462111,-1.122706 0.638446,-2.634153 0.701172,-3.802735 0.053,-0.987302 -0.06454,-2.587146 -0.150391,-3.572265 -0.582348,-6.682058 -0.06578,-10.18184 0.486328,-11.957032 0.311487,-1.001528 1.403876,-2.353878 2.083985,-3.164062 l 11.443359,-13.63086 c 0.394763,-0.470263 0.635117,-1.344346 0.478516,-1.9375 -0.558142,-2.114056 -1.480408,-3.203348 -2.097657,-3.724609 -0.322011,-0.271935 -0.886253,-0.554232 -1.193359,-0.503906 -0.515412,0.08446 -1.432717,0.288131 -3.039063,0.71875 -0.673819,0.180633 -1.761532,0.505311 -2.453125,0.58789 -2.333901,0.27868 -3.102049,-0.953187 -3.30664,-2.173828 -0.197852,-1.180431 0.160669,-3.138113 0.257812,-4.33789 l 0.634766,-7.84375 c 0.0426,-0.526092 -0.242798,-1.239691 -0.689453,-1.519532 -1.785162,-1.118446 -3.974413,-1.280412 -5.044922,-1.285156 -0.360569,-0.0016 -0.840749,0.243579 -1.046875,0.539063 -1.153751,1.653915 -2.864189,5.042154 -3.546875,6.423828 -0.165251,0.334448 -0.450849,0.874358 -0.710938,1.140625 -0.67906,0.695191 -1.357779,0.57926 -1.830078,0.33789 -0.385868,-0.197199 -0.798194,-0.780456 -1.007812,-1.162109 l -3.748047,-6.824219 a 1.4909732,1.4909732 0 0 0 -1.619141,-0.740234 l -5.041015,1.082031 a 1.1958596,1.1958596 0 0 0 -0.939453,1.052735 l -0.212891,2.167968 a 0.16347579,0.16347579 0 0 1 -0.300781,0.07227 l -0.84961,-1.314453 A 1.4220776,1.4220776 0 0 0 32.710939,33.69141 l -5.083984,1.351563 a 1.631345,1.631345 0 0 0 -1.212891,1.599609 l 0.117188,8.269531 c 0.01714,1.201338 -0.149484,3.132343 -0.324219,4.320313 -1.159898,7.885811 -1.063263,17.252491 -0.921875,21.820312 0.04762,1.538322 0.178478,4.029533 0.283203,5.564453 0.388431,5.693073 1.501623,18.735039 3.894532,25.816399 2.688808,7.95703 15.143578,17.07454 18.533203,19.44141 0.468721,0.32729 0.641898,0.99753 0.388672,1.50977 C 37.385743,145.63415 36.789062,172 36.789062,172 H 142.85742 l -2.93555,-15.26758 a 0.11302453,0.11302453 0 0 1 0.21875,-0.0547 l 4.10743,13.67188 A 2.3173209,2.3173209 0 0 0 146.4668,172 H 162 c 1.99779,0 3.85566,-0.58056 5.41406,-1.58203 3.7268,-2.39492 4.39771,-9.68645 4.52735,-15.2793 z"
     style="display:inline;fill:#f58f8a;fill-opacity:1;stroke-width:0.25"
     id="path9" /><path
     style="fill:#f9f9f9;fill-opacity:1;stroke:none;stroke-width:0.25"
     d="m 82.928948,67.053944 c 2.568818,-3.354239 6.135963,-6.898534 10.778623,-9.093554 2.56608,-1.213226 7.118219,-2.18167 9.943379,-2.509 3.73442,-0.432679 6.77729,-0.334626 9.16146,-0.02043 3.81485,0.502736 9.67919,3.083004 12.78384,5.372601 4.8635,3.586698 11.19096,10.492306 13.27066,22.889818 1.12576,6.710897 -1.11594,17.730651 -5.22322,23.137081 -5.5026,7.24312 -15.50019,15.07773 -32.40471,12.88209 -5.29385,-0.68758 -13.61378,-3.62961 -17.744858,-6.98766 -5.824637,-4.7347 -12.062817,-13.294338 -8.986817,-27.297759 1.203938,-5.480901 5.012219,-13.921325 8.421643,-18.373187 z"
     id="path11" /><rect
     style="fill:#56595b;fill-opacity:1;stroke:none;stroke-width:0.294752"
     id="rect11"
     width="8.3772163"
     height="16.063988"
     x="136.47643"
     y="50.634811"
     transform="rotate(17.059271)"
     ry="4.1886082" /><rect
     style="fill:#56595b;fill-opacity:1;stroke:none;stroke-width:0.279563"
     id="rect12"
     width="7.7041755"
     height="15.713425"
     x="107.80325"
     y="48.109028"
     transform="matrix(0.94945455,0.31390453,-0.27392173,0.96175199,0,0)"
     ry="4.0972004" /></svg>
