<?xml version="1.0" encoding="UTF-8"?>
<svg version="1.1" viewBox="0 0 192 192" xmlns="http://www.w3.org/2000/svg">
 <rect class="a" x="20" y="20" width="152" height="152" rx="10" style="fill:#56595b"/>
 <path d="m90.4 134.47c-4.1775-4.5708-7.0603-9.1168-8.5097-13.419-3.1825-9.4471 0.09494-18.984 7.6396-22.229 3.3967-1.4612 5.1679-1.7614 14.285-2.4209 4.8699-0.35227 7.3725-0.82936 9.2668-1.7666 1.4274-0.70619 2.6898-1.1893 2.8056-1.0736 0.321 0.32101-4.0098 3.5466-7.0446 5.2469-1.4849 0.83194-4.9207 2.3942-7.6351 3.4717-8.3358 3.309-12.844 8.6519-13.717 16.257-0.58991 5.137 1.6958 12.509 5.5271 17.827 1.7066 2.3689 0.44156 1.4538-2.6175-1.8933zm-15.591-8.538c-10.768-10.811-15.698-22.335-13.96-32.637 1.9745-11.706 10.739-21.201 22.495-24.37 1.6499-0.44473 7.0496-1.0977 11.999-1.451 4.9497-0.35335 10.957-1.0153 13.349-1.471 5.5092-1.0494 13.075-4.5929 18.331-8.5854 2.2449-1.7052 4.229-3.1004 4.4091-3.1004 0.79305 0-6.4918 7.7577-10.492 11.173-6.5307 5.5759-13.116 8.7222-24.254 11.589-11.483 2.9552-14.791 4.1886-18.987 7.0785-8.5244 5.871-12.192 18.713-8.5258 29.856 1.5704 4.7737 5.6627 11.29 8.8453 14.084 1.1833 1.039 2.0024 2.038 1.8203 2.2202-0.18215 0.18215-2.4458-1.7919-5.0304-4.3868zm2.6024-3.968c-3.246-5.578-4.1646-8.8274-4.2102-14.894-0.0411-5.467 0.06506-5.963 2.2017-10.286 1.6128-3.2633 3.2713-5.4925 5.89-7.917 4.6812-4.334 6.1455-5.0452 17.351-8.4276 5.1147-1.5439 10.836-3.4255 12.715-4.1813 4.1773-1.681 11.664-6.2872 13.639-8.3916 0.79999-0.85238 1.7371-1.5498 2.0826-1.5498 0.95561 0-6.5684 7.4819-11.565 11.5-4.9641 3.9921-9.1072 6.2398-17.11 9.2827-10.74 4.0835-16.859 8.8744-20.063 15.711-1.4064 3.0001-1.5919 4.1182-1.5604 9.4046 0.0276 4.6252 0.32366 6.7213 1.2923 9.1495 0.69107 1.7324 1.1588 3.1498 1.0394 3.1498-0.11938 0-0.88479-1.1474-1.7009-2.5499z" style="fill:#fff;stroke-width:.59997"/>
</svg>
