<?xml version="1.0" encoding="UTF-8"?>
<svg width="192" height="192" version="1.1" xml:space="preserve" xmlns="http://www.w3.org/2000/svg"><g transform="translate(0 -860.36)"><rect x="19.5" y="879.86" width="153" height="153" rx="10" fill="#71a372" fill-rule="evenodd" stroke-opacity="0"/><path d="m96 894.5c-16.801 0-30.44 13.638-30.44 30.44 0 16.801 13.638 30.44 30.44 30.44 16.801 0 30.44-13.638 30.44-30.44 0-16.801-13.638-30.44-30.44-30.44zm0 1.6818c15.893 0 28.758 12.865 28.758 28.758 0 8.9201-4.0532 16.886-10.42 22.16l-7.4332-12.383 10.925 6.0937c0.0763 0.0351 0.13137-0.0545 0.0618-0.13202l-14.311-12.355 18.509 2.8229c0.11503 0.0172 0.15471-0.0918 0.0985-0.11106l-0.12941-0.0425-17.452-6.12 18.136-4.3791c0.0686-0.0164 0.0844-0.0914 0.0289-0.09l-18.606 1.2114 14.531-11.001c0.10427-0.0891-0.0168-0.0861-0.0874-0.0545l-16.366 8.2964 9.0342-15.939c0.043-0.0784-5e-3 -0.11767-0.0559-0.0585l-11.803 13.853 2.2664-18.199c0.0134-0.0928-0.0746-0.17608-0.12745-0.0348l-5.4282 17.672-4.7529-18.202c-0.01999-0.0599-0.05005-0.0833-0.07621-0.0821-0.02969 1e-3 -0.0543 0.0344-0.05318 0.0821l1.3093 18.88-11.209-14.589c-0.03498-0.0504-0.10802-0.0387-0.09591 0.0289l8.4797 16.145-16.029-8.7576c-0.06325-0.0279-0.11481 0.0294-0.09329 0.0631l14.255 11.706-18.196-1.9222c-0.06392 0.0343-0.06392 0.09 0 0.1189l17.643 5.1615-17.547 5.1557c-0.09552 0.0507-0.05251 0.11986 0 0.11889l18.101-2.1102-14.223 12.082c-0.07736 0.0656-0.05154 0.14895 0.03222 0.11628l0.15897-0.082 11.39-5.9643 2.6744-4.2543h3.0403l-2.1074-1.4893 7.045-11.31-4.1558 13.357 0.0079 8e-3h10.634l3.106 2.0141h-14.209l-6.1962 19.123h-6.72e-4c-10.462-4.3006-17.82-14.588-17.82-26.608 0-15.893 12.865-28.758 28.758-28.758z" fill="#fff" fill-rule="evenodd" stop-color="#000000" stroke-width=".33635"/><text x="43.085075" y="980.64343" fill="#ffffff" font-family="'Nimbus Roman'" font-size="25.333px" style="line-height:1.25" xml:space="preserve"><tspan x="43.085075" y="980.64343" fill="#ffffff" font-family="Now,sans-serif" font-size="25.333px" font-weight="500">FIDELITY</tspan></text><text x="48.120079" y="1005.1259" fill="#ffffff" font-family="'Nimbus Roman'" font-size="25.333px" style="line-height:1.25" xml:space="preserve"><tspan x="48.120079" y="1005.1259" fill="#ffffff" font-family="Now,sans-serif" font-size="25.333px" font-weight="500">HEALTH</tspan></text></g><style type="text/css">.st0{fill:#fff}</style></svg>
