<?xml version="1.0" encoding="UTF-8"?>
<svg version="1.1" viewBox="0 0 192 192" xmlns="http://www.w3.org/2000/svg">
 <circle class="a" cx="96" cy="96" r="88" style="fill:#ba6561"/>
 <path d="m118.83 65.56h-45.66c-8.409 0-15.22 6.811-15.22 15.22v30.44c0 8.409 6.811 15.22 15.22 15.22h45.66c8.4091 0 15.22-6.811 15.22-15.22v-30.44c0-8.409-6.8109-15.22-15.22-15.22zm-7.0773 37.175c-0.9132 0.761-2.1689 1.0654-3.3484 0.761l-42.274-10.35c1.1415-2.7776 3.843-4.7562 7.0392-4.7562h45.66c2.5493 0 4.7943 1.2937 6.2021 3.1962zm-38.583-29.565h45.66c4.1855 0 7.61 3.4245 7.61 7.61v2.0928c-2.2449-1.2937-4.8324-2.0928-7.61-2.0928h-45.66c-2.7776 0-5.365 0.79905-7.61 2.0928v-2.0928c0-4.1855 3.4245-7.61 7.61-7.61z" fill="@android:color/white" style="fill:#fff;stroke-width:3.805"/>
</svg>
