<?xml version="1.0" encoding="UTF-8" standalone="no"?>
<svg
   viewBox="0 0 192 192"
   version="1.1"
   id="svg3"
   sodipodi:docname="gamenative_alt_1.svg"
   inkscape:version="1.4.3 (0d15f75042, 2025-12-25)"
   xml:space="preserve"
   inkscape:export-filename="gamenative_alt_1.png"
   inkscape:export-xdpi="96"
   inkscape:export-ydpi="96"
   xmlns:inkscape="http://www.inkscape.org/namespaces/inkscape"
   xmlns:sodipodi="http://sodipodi.sourceforge.net/DTD/sodipodi-0.dtd"
   xmlns="http://www.w3.org/2000/svg"
   xmlns:svg="http://www.w3.org/2000/svg"><defs
     id="defs1" /><sodipodi:namedview
     id="namedview3"
     pagecolor="#505050"
     bordercolor="#ffffff"
     borderopacity="1"
     inkscape:showpageshadow="0"
     inkscape:pageopacity="0"
     inkscape:pagecheckerboard="1"
     inkscape:deskcolor="#505050"
     inkscape:zoom="4"
     inkscape:cx="87.625"
     inkscape:cy="82.75"
     inkscape:window-width="1920"
     inkscape:window-height="1048"
     inkscape:window-x="0"
     inkscape:window-y="0"
     inkscape:window-maximized="1"
     inkscape:current-layer="svg3"
     showgrid="false" /><g
     id="g308"
     inkscape:label="new_icon"
     style="display:inline;fill:#dc505e;fill-opacity:1;stroke:none"><rect
       class="a"
       x="20"
       y="20"
       width="152"
       height="152"
       rx="10"
       id="rect1"
       style="display:none;opacity:1;fill:#dc505e;stroke:none;fill-opacity:1" /><circle
       class="a"
       cx="96"
       cy="96"
       r="88"
       id="circle1"
       style="display:none;opacity:1;fill:#dc505e;stroke:none;fill-opacity:1" /><circle
       class="a"
       cx="96"
       cy="96"
       r="36.5"
       id="circle2"
       style="display:none;opacity:1;fill:#dc505e;stroke:none;fill-opacity:1" /><rect
       class="a"
       x="32"
       y="8"
       width="128"
       height="176"
       rx="10"
       id="rect2"
       style="display:none;opacity:1;fill:#dc505e;stroke:none;fill-opacity:1" /><rect
       class="a"
       x="8"
       y="32"
       width="176"
       height="128"
       rx="10"
       id="rect3"
       style="display:inline;opacity:1;fill:#dc505e;stroke:none;fill-opacity:1" /></g><path
     id="path10"
     style="fill:#ffffff;fill-opacity:1;stroke-width:20.8448;stroke-linecap:round;stroke-linejoin:round;stroke-opacity:0.602555;paint-order:stroke markers fill"
     d="M 144.10064,65.327299 V 104.96601 L 107.69179,65.430777 H 96.974221 v 10.512308 l 47.279089,50.458065 c 11.53806,0 14.51231,-10.95086 14.51231,-12.51231 V 78.250127 c 0,-6.888582 -7.05458,-12.922828 -14.66498,-12.922828 z m 7.5403,24.953373 0.48685,0.02375 a 5.1851137,5.1851137 0 0 1 4.68533,5.528418 5.1851137,5.1851137 0 0 1 -5.41646,4.81256 5.1851137,5.1851137 0 0 1 -4.93978,-5.30111 5.1851137,5.1851137 0 0 1 5.18406,-5.063617 z" /><path
     style="fill:#ffb0ac;fill-opacity:1;stroke-width:20.8448;stroke-linecap:round;stroke-linejoin:round;stroke-opacity:0.602555;paint-order:stroke markers fill"
     d="m 96.489609,106.74284 v 19.72519 h 39.958011 l -18.96374,-19.61641 z"
     id="path12" /><path
     style="fill:#ffb0ac;fill-opacity:1;stroke-width:20.8448;stroke-linecap:round;stroke-linejoin:round;stroke-opacity:0.602555;paint-order:stroke markers fill"
     d="m 114.10191,65.430176 h 25.97267 v 28.331497 z"
     id="path13" /><path
     style="fill:#ffb0ac;fill-opacity:1;stroke-width:20.8448;stroke-linecap:round;stroke-linejoin:round;stroke-opacity:0.602555;paint-order:stroke markers fill"
     d="m 72.039918,103.06526 h 5.853577 v 4.08791 h 12.609183 v -4.10301 h 6.058436 V 90.264157 H 90.541061 V 85.485334 H 77.835919 v 4.787837 h -5.736262 z"
     id="path14"
     sodipodi:nodetypes="ccccccccccccc" /><g
     id="g9"
     inkscape:label="what the hell is this left part"
     style="display:inline"
     transform="matrix(0.86853343,0,0,0.86853343,12.621304,12.613088)"><path
       id="rect4"
       style="fill:#ffffff;fill-opacity:1;stroke-width:28.1741;stroke-linecap:round;stroke-linejoin:round;stroke-opacity:0.602555;paint-order:stroke markers fill"
       d="m 40.894531,60.576172 c -9.502601,0 -17.152345,6.029289 -17.152343,13.519531 v 43.689457 c 0,7.49024 7.649742,13.52148 17.152343,13.52148 h 31.617188 c 0.577458,0 1.148462,-0.0229 1.710937,-0.0664 h 11.25586 c 2.289711,0 4.132812,-2.36347 4.132812,-5.30078 v -3.42968 h 0.0078 v -3.72657 c 0.03043,-0.3292 0.04687,-0.66268 0.04687,-0.99804 v -9.36524 H 75.140625 v 4.71094 c 0,2.18386 -1.96123,3.94141 -4.398437,3.94141 H 45.019531 c -2.43721,0 -4.40039,-1.75755 -4.40039,-3.94141 V 77.039062 c 0,-2.183862 1.96318,-3.941406 4.40039,-3.941406 h 25.47461 v -0.0059 H 88.298828 V 60.744141 H 75.234375 c -0.885818,-0.110388 -1.796253,-0.167969 -2.722656,-0.167969 z m -9.277343,10.273437 c 1.161151,0 2.095703,0.848164 2.095703,1.902344 v 38.585937 c 0,1.05418 -0.934552,1.90234 -2.095703,1.90234 -1.161152,0 -2.097657,-0.84816 -2.097657,-1.90234 V 72.751953 c 0,-1.05418 0.936505,-1.902344 2.097657,-1.902344 z m 0.0078,44.603511 0.255859,0.0137 a 2.7344942,2.7344942 0 0 1 2.470703,2.91406 2.7344942,2.7344942 0 0 1 -2.855468,2.53906 2.7344942,2.7344942 0 0 1 -2.605469,-2.79492 2.7344942,2.7344942 0 0 1 2.734375,-2.67188 z" /></g><g
     id="g5"
     inkscape:label="pads"
     style="display:inline"
     transform="matrix(0.86853343,0,0,0.86853343,12.621304,12.613088)"><path
       style="display:inline;fill:#ffffff;fill-opacity:1;stroke-width:21.4536;stroke-linecap:round;stroke-linejoin:round;stroke-opacity:0.602555;paint-order:stroke markers fill"
       id="path8"
       sodipodi:type="arc"
       sodipodi:cx="84.193115"
       sodipodi:cy="106.57088"
       sodipodi:rx="6.3136654"
       sodipodi:ry="6.3000946"
       sodipodi:start="4.7142371"
       sodipodi:end="4.712389"
       sodipodi:open="true"
       sodipodi:arc-type="arc"
       d="m 84.204784,100.27079 a 6.3136654,6.3000946 0 0 1 6.301991,6.30882 6.3136654,6.3000946 0 0 1 -6.319494,6.29136 6.3136654,6.3000946 0 0 1 -6.30783,-6.303 6.3136654,6.3000946 0 0 1 6.313664,-6.29719"
       inkscape:label="bot-pad"
       transform="matrix(1.1513662,0,0,1.1513662,-14.531742,-14.522283)" /><path
       style="fill:#ffffff;fill-opacity:1;stroke-width:24.9941;stroke-linecap:round;stroke-linejoin:round;stroke-opacity:0.602555;paint-order:stroke markers fill"
       id="path2-5"
       sodipodi:type="arc"
       sodipodi:cx="68.218498"
       sodipodi:cy="96.75724"
       sodipodi:rx="7.3476481"
       sodipodi:ry="7.3476481"
       sodipodi:start="4.8066876"
       sodipodi:end="4.712389"
       sodipodi:open="true"
       sodipodi:arc-type="arc"
       d="m 68.910345,89.442236 a 7.3476481,7.3476481 0 0 1 6.637433,7.834226 7.3476481,7.3476481 0 0 1 -7.675588,6.820258 7.3476481,7.3476481 0 0 1 -6.999298,-7.512682 7.3476481,7.3476481 0 0 1 7.345606,-7.174446"
       inkscape:label="left-pad" /><path
       style="fill:#ffffff;fill-opacity:1;stroke-width:24.9941;stroke-linecap:round;stroke-linejoin:round;stroke-opacity:0.602555;paint-order:stroke markers fill"
       id="path2"
       sodipodi:type="arc"
       sodipodi:cx="82.368805"
       sodipodi:cy="84.122223"
       sodipodi:rx="7.3476481"
       sodipodi:ry="7.3476481"
       sodipodi:start="4.8066876"
       sodipodi:end="4.712389"
       sodipodi:open="true"
       sodipodi:arc-type="arc"
       d="m 83.060652,76.807219 a 7.3476481,7.3476481 0 0 1 6.637433,7.834226 7.3476481,7.3476481 0 0 1 -7.675588,6.82026 7.3476481,7.3476481 0 0 1 -6.999299,-7.512684 7.3476481,7.3476481 0 0 1 7.345607,-7.174446"
       inkscape:label="top-pad" /><path
       style="fill:#ffffff;fill-opacity:1;stroke-width:24.9941;stroke-linecap:round;stroke-linejoin:round;stroke-opacity:0.602555;paint-order:stroke markers fill"
       id="path3"
       sodipodi:type="arc"
       sodipodi:cx="96.631805"
       sodipodi:cy="96.75724"
       sodipodi:rx="7.3476481"
       sodipodi:ry="7.3476481"
       sodipodi:start="4.8066876"
       sodipodi:end="4.712389"
       sodipodi:open="true"
       sodipodi:arc-type="arc"
       d="m 97.323652,89.442236 a 7.3476481,7.3476481 0 0 1 6.637438,7.834226 7.3476481,7.3476481 0 0 1 -7.675593,6.820258 7.3476481,7.3476481 0 0 1 -6.999298,-7.512682 7.3476481,7.3476481 0 0 1 7.345606,-7.174446"
       inkscape:label="right-pad" /></g></svg>
