<?xml version="1.0" encoding="UTF-8"?>
<svg version="1.1" viewBox="0 0 192 192" xmlns="http://www.w3.org/2000/svg">
 <defs>
  <clipPath id="clipPath4">
   <path d="m20 86.267 172-54.094s-16.991-51.619-18.405-51.619c-1.4142 0-177.84 1.4142-177.84 1.4142l-22.627 84.853z" style="fill:#f8c18c"/>
  </clipPath>
 </defs>
 <rect class="a" x="20" y="20" width="152" height="152" rx="10" style="fill:#56595b"/>
 <rect class="a" x="20" y="20" width="152" height="152" rx="10" clip-path="url(#clipPath4)" style="fill:#f8c18c"/>
 <path d="m92.811 75.556c-5.984 0-10.866 4.8824-10.866 10.866v29.762c0 5.984 4.8824 10.866 10.866 10.866h22.516l-2.264-4.1847h-20.252c-3.738 0-6.6816-2.9436-6.6816-6.6816v-29.762c0-3.738 2.9436-6.6816 6.6816-6.6816h40.099c3.738 0 6.6816 2.9436 6.6816 6.6816v29.762c0 3.738-2.9436 6.6816-6.6816 6.6816h-6.1545l0.0544 2.0924v2.0924h6.1c5.984 0 10.866-4.8824 10.866-10.866v-29.762c0-5.984-4.8824-10.866-10.866-10.866z" style="-inkscape-stroke:none;color:#000000;fill:#f8c18c;stroke-linecap:round;stroke-linejoin:round;stroke-width:.69745"/>
 <path d="m112.86 124.96 13.949 11.403v-11.403" style="fill:none;stroke-linecap:round;stroke-linejoin:round;stroke-width:4.1847;stroke:#f8c18c"/>
 <path d="m59.09 95.375c-5.984 0-10.866 4.8824-10.866 10.866v29.762c-1e-5 5.984 4.8824 10.866 10.866 10.866h6.0986v-2.0924l0.05454-2.0924h-6.1545c-3.738 0-6.6816-2.9436-6.6816-6.6816v-29.762c0-3.738 2.9436-6.6816 6.6816-6.6816h14.336v-4.1847zm46.729 41.434c-0.3892 3.3454-3.1672 5.8752-6.6312 5.8752h-20.251l-2.2653 4.1847h22.516c5.7119 0 10.409-4.451 10.825-10.06z" style="-inkscape-stroke:none;color:#000000;fill:#f8c18c;stroke-linecap:round;stroke-linejoin:round;stroke-width:.69745"/>
 <path d="m79.139 144.78-13.949 11.403v-11.403" style="fill:none;stroke-linecap:round;stroke-linejoin:round;stroke-width:4.1847;stroke:#f8c18c"/>
 <text transform="rotate(-17.41)" x="64.430016" y="82.036163" style="fill:#56595b;font-family:Now;font-size:14.667px;font-weight:bold;stroke-linecap:round;stroke-linejoin:round;stroke-width:6;text-align:center;text-anchor:middle" xml:space="preserve"><tspan x="64.430016" y="82.036163">GARMIN</tspan></text>
</svg>
