<?xml version="1.0" encoding="UTF-8"?>
<svg version="1.1" viewBox="0 0 192 192" xmlns="http://www.w3.org/2000/svg">
 <circle class="a" cx="96" cy="96" r="88" style="fill:#9abeff"/>
 <path d="m72.151 94.993v6.7857h10.87c-1.8446 4.1504-5.9292 6.9174-10.804 6.9174-6.6539 0-11.793-5.1387-11.793-11.793 0-6.6539 5.1387-11.793 11.793-11.793 4.6775 0 8.4985 2.5034 10.475 6.2586l7.5103-3.8869c-3.4258-6.4563-10.211-10.87-17.985-10.87-11.266 0-20.291 9.0915-20.291 20.291 0 11.2 9.0256 20.291 20.291 20.291 11.2 0 20.291-9.0915 20.291-20.291v-1.9105zm27.077 21.675h8.6962v-21.184h-8.6962zm40.846-31.886v-7.6421h-23.783v39.528h8.6962v-15.943h12.913v-7.6421h-12.913v-8.3009z" style="fill:#fff;stroke-linecap:round;stroke-linejoin:round;stroke-width:22.588" aria-label="GIF"/>
 <circle cx="103.16" cy="80.291" r="9.6942" style="fill:#fff;stroke-linecap:round;stroke-linejoin:round;stroke-width:5.5876"/>
 <circle cx="103.16" cy="80.291" r="7.4943" style="fill:#9abeff;stroke-linecap:round;stroke-linejoin:round;stroke-width:4.3196"/>
 <path transform="matrix(.61471 0 0 .61471 206.29 16.025)" d="m-163.31 105.86-5.8021 3.3498a1.5214 1.5214 30 0 1-2.2821-1.3176v-6.6996a1.5214 1.5214 150 0 1 2.2821-1.3176l5.8021 3.3498a1.5214 1.5214 90 0 1 0 2.6352z" style="fill:#fff;stroke-linecap:round;stroke-linejoin:round;stroke-width:8"/>
</svg>
