<?xml version="1.0" encoding="UTF-8"?>
<svg version="1.1" viewBox="0 0 192 192" xmlns="http://www.w3.org/2000/svg">
 <rect class="a" x="32" y="8" width="128" height="176" rx="10" style="fill:#fff"/>
 <rect x="70.279" y="56.512" width="51.443" height="85.774" ry="8.1683" style="fill:#56595b;stroke-linecap:round;stroke-linejoin:round;stroke-width:17.981"/>
 <rect x="76.864" y="63.477" width="38.644" height="72.524" ry="1.7513" style="fill:#fff;stroke-linecap:round;stroke-linejoin:round;stroke-width:17.981"/>
 <path transform="matrix(.44952 0 0 .44952 268.35 30.731)" d="m-365.98 84.172-50.627 69.15a2.7515 2.7515 70.732 0 0 1.4961 4.2799l21.07 5.7464a4.1204 4.1204 59.405 0 1 2.9215 4.941l-12.638 52.416a0.78454 0.78454 24.653 0 0 1.3994 0.64225l52.189-72.496a2.769 2.769 70.443 0 0-1.5243-4.2908l-21.304-5.7624a4.1432 4.1432 59.128 0 1-2.9532-4.94l11.426-49.019a0.81702 0.81702 24.665 0 0-1.4549-0.66811z" style="fill:#ff837d;stroke-linecap:round;stroke-linejoin:round;stroke-width:40"/>
 <rect x="87.039" y="49.714" width="18.048" height="10.642" ry="2.5935" style="fill:#56595b;stroke-linecap:round;stroke-linejoin:round;stroke-width:17.981"/>
</svg>
