<?xml version="1.0" encoding="UTF-8"?>
<svg version="1.1" viewBox="0 0 192 192" xmlns="http://www.w3.org/2000/svg" xmlns:xlink="http://www.w3.org/1999/xlink">
 <rect class="a" x="20" y="20" width="152" height="152" rx="10" style="fill:#56595b"/>
 <g transform="matrix(.48568 0 0 .48568 156.46 44.198)">
  <path transform="matrix(.73827 0 0 -.73827 -34.463 46.29)" d="m0 0h-191.13l-52.76-163.54h168.05c30.039 7.26 54.451 38.986 48.174 95.184l-0.275 2.714-0.03 0.332c-2.646 31.229 8.993 51.458 27.975 65.313" style="fill:#56595b"/>
  <path transform="matrix(.73827 0 0 -.73827 -162.31 50.341)" d="m0 0h-15.061l-4.918-15.186h15.047z" style="fill:#fff"/>
  <path transform="matrix(.73827 0 0 -.73827 -167.87 67.504)" d="m0 0h-15.061l-4.849-15.074h15.033z" style="fill:#fff"/>
  <path transform="matrix(.73827 0 0 -.73827 -173.37 84.627)" d="m0 0h-15.104l-4.847-15.02h15.088z" style="fill:#fff"/>
  <path transform="matrix(.73827 0 0 -.73827 -210.16 164.21)" d="m0 0h15.047l4.877 15.047h-15.088z" style="fill:#fff"/>
  <path transform="matrix(.73827 0 0 -.73827 -204.65 147.04)" d="m0 0h15.061l4.89 15.047h-15.101z" style="fill:#fff"/>
  <path transform="matrix(.73827 0 0 -.73827 -199.14 129.94)" d="m0 0h15.061l4.849 15.02h-15.033z" style="fill:#fff"/>
  <path transform="matrix(.73827 0 0 -.73827 -193.61 112.86)" d="m0 0h15.074l4.85 15.074h-15.074z" style="fill:#fff"/>
  <path transform="matrix(.73827 0 0 -.73827 -101.19 157.99)" d="m0 0c-14.561 19.287-20.936 47.385-14.492 74.928l55.752 2.744c-0.789-41.149-29.733-69.858-41.26-77.672m62.402 85.984-73.527 0.166c9.656 26.131 31.783 50.6 70.576 65.147h-13.203c-48.09-6.401-76.355-33.445-87.924-65.09l-2.271 0.027c-9.963 1.08-47.053 3.963-56.807-20.005-10.473-25.745 20.59-52.041 18.83-65.038-0.873-6.898-5.445-11.166-8.535-13.437h19.148c3.643 2.66 7.87 7.48 8.547 15.684 1.303 15.683-12.261 30.73-11.152 45.138 1.594 20.313 18.385 24.856 28.486 24.856-6.775-30.924 1.026-64.01 20.893-85.678 48.963 2.992 92.441 38.516 86.969 97.898l-0.03 0.332" style="fill:#f9de81"/>
 </g>
</svg>
