<?xml version="1.0" encoding="UTF-8"?>
<svg version="1.1" viewBox="0 0 192 192" xmlns="http://www.w3.org/2000/svg">
 <circle class="a" cx="96" cy="96" r="88" style="fill:#9abeff"/>
 <g fill="@android:color/white" fill-rule="evenodd">
  <path d="m124.01 79.893c-7.9658 0-14.633 5.369-16.458 12.598-0.28072 1.158-1.2282 2.0353-2.3862 2.0353-5.0181 0-9.0536 4.1408-9.0536 9.2641 0 5.1234 4.0706 9.2641 9.0536 9.2641h19.546c9.0185-0.35091 16.247-7.6499 16.247-16.563 0-8.9132-7.6148-16.598-16.949-16.598z" style="fill:#fff;stroke-width:3.5092"/>
  <path d="m124.71 118.25h-5.0883c-5.6146 5.6848-13.335 9.194-21.862 9.194-17.16 0-31.056-14.212-31.056-31.793 0-17.581 13.896-31.793 31.056-31.793 9.4045 0 17.791 4.2812 23.476 10.984 0.91236-0.10527 1.8247-0.17546 2.7722-0.17546 1.7195 0 3.3688 0.21055 4.983 0.56146-1.0878-1.0527-1.8248-2.3862-2.0704-3.8601l-0.87726-4.9128c-0.66674-3.825-4.3163-6.4217-8.2465-5.8954l-5.0181 0.70183c-2.2458 0.31582-4.4917-0.42109-6.1059-1.9651l-3.6495-3.4741c-2.8424-2.702-7.3341-2.702-10.177 0l-3.7197 3.5091c-1.6142 1.544-3.8952 2.2809-6.1059 1.9651l-5.0181-0.70183c-3.9302-0.52637-7.5798 2.0704-8.2816 5.8954l-0.87729 4.9128c-0.38601 2.1757-1.7897 4.0706-3.7548 5.0883l-4.4917 2.3511c-3.4741 1.8248-4.8777 6.0357-3.1582 9.5098l2.2459 4.4917c0.98256 2.0002 0.98256 4.3162 0 6.3165l-2.2459 4.4917c-1.7195 3.474-0.35092 7.685 3.1582 9.5098l4.4917 2.3511c2.0002 1.0527 3.4039 2.9126 3.7899 5.1234l0.87729 4.9128c0.66674 3.825 4.3162 6.4217 8.2465 5.8954l5.0181-0.70182c2.2459-0.31584 4.4917 0.42109 6.1059 1.9651l3.6495 3.4741c2.8424 2.702 7.3341 2.702 10.177 0l3.6495-3.4741c1.6142-1.544 3.8951-2.2459 6.1059-1.9651l5.0181 0.70182c3.8952 0.56147 7.5447-2.0704 8.2465-5.8954l0.91239-4.983c0.17539-0.98256 0.56147-1.895 1.1229-2.702-0.87729 0.17546-1.7546 0.28073-2.667 0.31581-0.21056 0.0352-0.42109 0.0702-0.63165 0.0702z" style="fill:#f8c18c;stroke-width:3.5092"/>
  <path d="m103.13 89.473c2.0353-6.0006 6.6674-10.773 12.457-13.124-4.6672-4.4917-10.949-7.2639-17.862-7.2639-14.352 0-26.003 11.896-26.003 26.599 0 14.703 11.65 26.599 26.003 26.599 5.0532 0 9.7554-1.4738 13.721-4.0004h-6.3165c-7.7903 0-14.142-6.4919-14.142-14.458 0.0351-7.299 5.2988-13.335 12.142-14.352z" style="fill:#f9de81;stroke-width:3.5092"/>
 </g>
</svg>
