<?xml version="1.0" encoding="UTF-8"?>
<svg version="1.1" viewBox="0 0 192 192" xmlns="http://www.w3.org/2000/svg">
 <g transform="translate(.10622 -.81994)">
  <path d="m142.08 180.95h-92.364a8.937 8.937 0 0 1-8.499-6.174l-29.29-92.867a8.937 8.937 0 0 1 3.246-9.991l75.473-57.527a8.931 8.931 0 0 1 10.503 0l75.473 57.527a8.936 8.936 0 0 1 3.244 9.991l-29.288 92.867a8.935 8.935 0 0 1-8.498 6.174z" fill="#99bef9"/>
 </g>
 <circle cx="77.162" cy="93.742" r="11.987" style="fill:#fff;stroke-linecap:round;stroke-linejoin:round;stroke-width:7.1781"/>
 <rect x="98.542" y="94.793" width="5.3275" height="13.459" style="fill:#fff;stroke-linecap:round;stroke-linejoin:round;stroke-width:7.1781"/>
 <rect x="108.36" y="85.4" width="5.3275" height="32.105" style="fill:#fff;stroke-linecap:round;stroke-linejoin:round;stroke-width:11.086"/>
 <rect x="118.45" y="75.446" width="5.3275" height="54.677" style="fill:#fff;stroke-linecap:round;stroke-linejoin:round;stroke-width:14.468"/>
 <rect x="138.08" y="94.793" width="5.3275" height="13.459" style="fill:#fff;stroke-linecap:round;stroke-linejoin:round;stroke-width:7.1781"/>
 <rect x="128.26" y="85.4" width="5.3275" height="32.105" style="fill:#fff;stroke-linecap:round;stroke-linejoin:round;stroke-width:11.086"/>
 <path transform="matrix(.71781 0 0 .71781 210.56 31.144)" d="m-217.77 138.02v-9.4297c0-1.6568 1.0208-3.8754 2.3527-4.8604 4.8847-3.6125 16.861-11.226 31.046-11.226 14.092 0 25.109 7.8515 29.618 11.655 1.2658 1.0675 2.2178 3.3605 2.2178 5.0174v9.0391a2.991 2.991 135.09 0 1-3 2.991l-59.234-0.17735a3.009 3.009 45.086 0 1-3-3.009z" style="fill:#fff;stroke-linecap:round;stroke-linejoin:round;stroke-width:10"/>
</svg>
