<?xml version="1.0" encoding="UTF-8"?>
<svg version="1.1" viewBox="0 0 192 192" xmlns="http://www.w3.org/2000/svg">
 <rect class="a" x="20" y="20" width="152" height="152" rx="10" style="fill:#ff837d"/>
 <path d="m54.932 74.342c-3.4942-3.393-5.7363-5.6334-5.9307-5.9262-0.17187-0.25894-0.41493-0.72898-0.54009-1.0445-0.20858-0.52572-0.22773-0.67281-0.22894-1.7584 0-1.0679 0.0204-1.2445 0.21977-1.7919 0.24361-0.669 0.83569-1.6137 1.2726-2.0305 0.15474-0.14764 2.7346-2.1387 5.7329-4.4246 4.5749-3.4878 5.4699-4.1378 5.5657-4.042 0.0628 0.0628 0.1377 0.31297 0.16648 0.55595 0.0637 0.5374 0.37744 0.85957 0.83718 0.85957 0.19701 0 0.37325 0.0759 0.55652 0.23964 0.22741 0.20319 0.27429 0.31292 0.30816 0.7215 0.032 0.38632 0.082 0.51496 0.25225 0.64885 0.11676 0.0918 0.30358 0.16698 0.41514 0.16698 0.30481 0 0.76424 0.21733 0.86756 0.41037 0.0503 0.094 0.0914 0.3085 0.0914 0.47676 0 0.59003 0.37332 0.96821 0.96456 0.97716 0.0978 1e-3 0.2522 0.059 0.34316 0.12775 0.14455 0.10932 0.14989 0.14035 0.0423 0.24645-0.0677 0.0668-2.0079 1.6096-4.3116 3.4285-2.3038 1.8189-4.1974 3.3346-4.2082 3.3683-0.0109 0.0336 1.9759 2.0032 4.4148 4.3767l4.4344 4.3155-1.3263 1.3385c-0.72942 0.73618-2 1.9857-2.8236 2.7767l-1.4974 1.4382zm23.683 5.354c-2.9847-0.41362-5.0595-1.9278-5.9677-4.3553-0.51752-1.3832-0.31927-3.4289 0.48349-4.9892 0.45512-0.88462 1.4748-1.8697 2.3967-2.3154 1.5303-0.73993 3.4419-0.86237 5.336-0.3418 1.3692 0.37632 2.7013 1.3014 3.269 2.2701 0.27465 0.46867 0.34612 0.30947 0.18534-0.41305-0.48061-2.1603-2.6675-3.5386-5.6896-3.5858-0.50014-8e-3 -0.90947-0.0471-0.90961-0.0874-1.8e-4 -0.0402 0.36144-1.1385 0.80358-2.4406s0.80385-2.3825 0.80385-2.4009c0-0.0184-1.4565-0.0434-3.2366-0.0556-3.1658-0.0217-3.236-0.0258-3.2076-0.1886 0.016-0.0915 0.12071-0.27533 0.2327-0.40843 0.2696-0.32038 0.2568-0.5619-0.0502-0.94825-0.32396-0.40766-0.32224-0.69452 6e-3 -1.1083 0.30412-0.38264 0.29147-0.66038-0.0484-1.0644-0.27716-0.32938-0.26323-0.63635 0.0453-0.99729 0.30569-0.35763 0.31393-0.56294 0.0389-0.96826-0.41019-0.60446-1.0111-0.55806 7.2283-0.55806h7.4399l-0.16224 0.57117c-0.0892 0.31414-0.53779 1.8849-0.99681 3.4905l-0.83457 2.9193 0.55068 0.36997c0.69841 0.46919 1.8545 1.5763 2.3942 2.2928 2.1176 2.8109 2.4487 6.5492 0.85847 9.6914-1.4115 2.789-4.2795 4.8746-7.5585 5.4966-0.87235 0.16548-2.6484 0.23043-3.4111 0.12474zm0.91033-4.5953c0.75426-0.31516 1.2665-1.0891 1.267-1.9145 2e-3 -1.8464-2.3323-2.7054-3.6409-1.3401-0.91857 0.95827-0.62506 2.5496 0.58112 3.1507 0.5087 0.2535 1.322 0.30066 1.7928 0.10395zm25.144 4.5122c-3.1588-0.48632-5.3891-2.7889-5.8358-6.0247l-0.0555-0.40194h-3.2949c-2.4435 0-3.2949-0.0254-3.2949-0.0982 0-0.0826 2.1985-10.147 2.3393-10.709 0.0469-0.18694 0.0402-0.18814-1.1673-0.21154l-1.2144-0.0235-0.0223-3.1081-0.0223-3.1081 1.9259-0.0227 1.9259-0.0228 0.288-1.3327 0.28805-1.3327h3.2027c2.0108 0 3.2027 0.0305 3.2027 0.082 0 0.0451-0.11422 0.60466-0.25386 1.2434-0.13962 0.63879-0.25385 1.2111-0.25385 1.2719 0 0.085 0.24412 0.11045 1.0577 0.11045 1.2024 0 1.2246 0.0167 0.84397 0.63463-0.26817 0.43539-0.26298 0.54387 0.0445 0.9308 0.30799 0.38755 0.32045 0.65826 0.0468 1.017-0.33593 0.44045-0.34602 0.63733-0.0516 1.0078 0.31265 0.39341 0.32625 0.66292 0.0516 1.023-0.32125 0.42119-0.34122 0.63428-0.0937 0.99909 0.11886 0.17512 0.21608 0.39287 0.21608 0.48388 0 0.15897-0.0699 0.16548-1.777 0.16548-0.97735 0-1.777 0.0165-1.777 0.0367 0 0.0323-1.3809 6.3626-1.5932 7.3039-0.0446 0.19779-0.0528 0.35962-0.0181 0.35962 0.0346 0 0.17596-0.18087 0.31407-0.40193 1.224-1.9593 3.2343-3.1752 5.475-3.3114l0.85709-0.0521 0.0217-5.0982 0.0217-5.0982h4.611c5.1856 0 4.8206-0.0527 4.3973 0.63463-0.26817 0.43539-0.26298 0.54387 0.0445 0.9308 0.31814 0.4003 0.31756 0.67117-2e-3 1.094-0.31456 0.41575-0.31427 0.53846 2e-3 0.93688 0.31814 0.4003 0.31756 0.67117-2e-3 1.094-0.3062 0.40468-0.31154 0.52863-0.04 0.92882 0.11638 0.17146 0.21157 0.3862 0.21157 0.47721 0 0.15826-0.0683 0.16548-1.5654 0.16548h-1.5654v3.8924h1.5654c1.769 0 1.7485-0.01 1.3517 0.63463-0.26697 0.43346-0.26274 0.53037 0.043 0.98153 0.30739 0.45364 0.31801 0.66573 0.0493 0.98503-0.33383 0.39673-0.34482 0.60962-0.0537 1.0393 0.31732 0.46836 0.32352 0.67083 0.0313 1.0182-0.28242 0.33563-0.29812 0.72555-0.0423 1.0508 0.10239 0.13017 0.18616 0.30769 0.18616 0.39449 0 0.14801-0.0921 0.15782-1.4808 0.15782h-1.4808v0.6382c0 2.4895-1.5049 4.8758-3.759 5.9605-0.46899 0.2257-1.1002 0.46896-1.4027 0.54058-0.72011 0.17048-1.8601 0.23147-2.4962 0.13354zm1.7869-4.9376c1.2002-0.55883 1.4969-2.1804 0.57304-3.1316-0.38012-0.39142-0.70371-0.55475-1.2201-0.61592-0.57362-0.0679-1.112 0.10229-1.554 0.49133-0.4497 0.39584-0.66578 0.89102-0.66334 1.5202 6e-3 1.452 1.5127 2.3654 2.8644 1.7361zm19.053 4.9012c-2.0245-0.3316-3.8644-1.2832-5.331-2.7572-2.7504-2.7644-3.5623-6.7995-2.1019-10.447 0.83313-2.0806 2.3941-3.7999 4.4754-4.9292l0.59499-0.32285-2.6175-1.3066c-1.4396-0.71862-2.6175-1.354-2.6175-1.412 0-0.058 0.18758-0.20049 0.41683-0.31667 0.4693-0.2378 0.51854-0.3323 0.49108-0.9421-0.0229-0.50775 0.0708-0.64951 0.57684-0.87338 0.43615-0.19293 0.57244-0.41498 0.49806-0.81147-0.0917-0.48891 0.0128-0.71252 0.41606-0.89094 0.50794-0.22468 0.6671-0.42659 0.64339-0.81612-0.0287-0.4722-7e-3 -0.6193 0.0922-0.6193 0.0859 0 9.3623 4.9597 9.5007 5.0796 0.0382 0.0331-0.38252 0.83617-0.93488 1.7846-0.55236 0.94846-1.5695 2.7044-2.2604 3.902l-1.256 2.1775-0.69597 0.33687c-1.5686 0.75926-2.4638 2.467-2.1661 4.1324 0.46836 2.6208 3.1937 4.013 5.5739 2.8474 2.7461-1.3448 2.9099-5.322 0.28087-6.8208-0.23313-0.1329-0.32999-0.23825-0.29779-0.32389 0.0262-0.0698 0.79709-1.4121 1.713-2.9828l1.6653-2.8558h4.2102c3.3132 0 4.2097 0.0225 4.2076 0.10577-1e-3 0.0582-0.0965 0.25808-0.21111 0.44424-0.23897 0.38799-0.26872 0.73386-0.0768 0.89312 0.22284 0.18494 0.38826 0.5823 0.32568 0.78231-0.032 0.10239-0.14824 0.2938-0.25822 0.42535-0.26555 0.31765-0.2489 0.62071 0.0562 1.024 0.31171 0.41196 0.31133 0.50557-4e-3 0.97077-0.30749 0.45379-0.31537 0.65163-0.0408 1.0238 0.11635 0.1577 0.21155 0.35727 0.21155 0.44348 0 0.14927-0.10708 0.15554-2.2468 0.13164-1.9668-0.022-2.2415-9e-3 -2.2047 0.10183 0.99227 2.995 0.61997 6.0502-1.043 8.5594-1.4314 2.1597-3.6056 3.6452-6.1214 4.1824-0.87706 0.18729-2.569 0.2261-3.4642 0.0795zm-57.801-14.292c-1.7807-0.66286-2.3117-2.8554-1.0341-4.2696 0.98553-1.0909 2.8198-1.0979 3.7985-0.0146 0.9055 1.0023 0.96793 2.4111 0.15251 3.4422-0.48519 0.61347-1.0738 0.90039-1.9172 0.93444-0.43991 0.0178-0.791-0.0147-0.99974-0.0924zm66.225-6.2958c-2.1268-0.76112-2.3144-3.6569-0.30096-4.6456 0.64734-0.31789 1.5527-0.33685 2.1452-0.0449 1.2387 0.61029 1.7993 2.0713 1.2641 3.2945-0.22155 0.50637-0.8452 1.133-1.3296 1.3359-0.51827 0.21709-1.2693 0.24251-1.7788 0.0602zm6.6563 0.042c-1.1625-0.32901-1.9726-1.5186-1.8336-2.6924 0.10387-0.87696 0.6894-1.6862 1.4829-2.0495 0.54648-0.25019 1.5096-0.25019 2.0561 0 0.50289 0.23024 1.0544 0.7817 1.2846 1.2846 0.25019 0.54647 0.25019 1.5096 0 2.0561-0.2273 0.49649-0.78292 1.0566-1.2555 1.2656-0.47654 0.2108-1.2539 0.27156-1.7344 0.13558zm-73.186-0.7462c-1.556-0.77755-1.9157-2.8106-0.72945-4.1236 0.99821-1.1049 2.8544-1.0845 3.8463 0.0423 1.1529 1.3098 0.77841 3.3106-0.76381 4.0813-0.45207 0.2259-0.61858 0.26314-1.1765 0.26314-0.55792 0-0.72443-0.0372-1.1765-0.26314z" style="fill:#fff;stroke-width:.084618"/>
 <path d="m109.34 88.273c-2.3018-0.12072-4.5999 1.6287-6.3651 5.3992-1.378 2.9434-1.9876 4.7109-2.6962 7.8166-1.1474 5.0288-1.3177 13.657-0.34419 17.464 0.83016 3.2459 1.6779 4.5976 5.3539 8.539 1.911 2.0489 2.0158 2.4756 1.6488 6.6943-0.16296 1.8728-0.34329 3.6941-0.41989 4.0434l-0.12334 0.56318h5.514l-0.41446-3.4072c-0.66801-5.4287-0.56297-5.7535 3.0726-9.5188 3.328-3.4468 4.4021-6.4676 4.5939-12.919 0.16749-5.6336-0.40443-9.8936-2.0487-15.254-1.8461-6.0186-4.8118-9.2652-7.7712-9.4205zm-25.752 8e-3c-0.0932-3e-3 -0.19511 6e-3 -0.30699 0.0186-0.39455 0.0457-0.72079 0.28446-0.89148 0.65251-0.16563 0.35716-0.37003 3.3935-0.53145 7.8937-0.33045 9.213-0.43534 10.586-0.83525 10.918-0.4374 0.36301-1.2564 0.0603-1.4846-0.54868-0.1036-0.27638-0.26433-4.018-0.35731-8.3145-0.093-4.2965-0.23765-8.3711-0.32106-9.0545-0.14079-1.1537-0.19902-1.2479-0.81802-1.3186-0.36671-0.0419-0.77237 0.0296-0.90146 0.15871-0.35429 0.35428-1.104 18.857-1.1114 27.429-3e-3 3.7303 0.0727 4.8004 0.43169 6.0794 0.53694 1.9129 2.053 4.5135 3.2263 5.5348 1.4872 1.2946 1.6877 1.7522 1.69 3.8462 2e-3 1.6559-0.23298 4.2175-0.59765 6.5374l-0.11833 0.75454h5.4355v-0.0753l-0.38364-3.3492c-0.63307-5.5286-0.60173-5.6963 1.456-7.8393 2.7629-2.8773 3.4874-5.2495 3.4925-11.429 6e-3 -7.0787-0.73592-26.542-1.0398-27.281-0.1757-0.42772-0.94891-0.5344-1.4714-0.20314-0.29386 0.18628-0.50394 4.4498-0.78765 15.983-0.0502 2.0421-0.14608 2.6863-0.44439 2.9842-0.42376 0.42311-1.2397 0.28615-1.4424-0.24214-0.0685-0.17845-0.30014-4.3276-0.5151-9.22-0.38519-8.7673-0.47156-9.8851-1.3726-9.9147zm33.1 24.7-0.1383 1.8256c-0.27511 3.6329-1.9183 7.2478-4.111 9.0446-1.2868 1.0544-1.5415 1.0862-0.79808 0.0998 0.99-1.3137 3.596-6.6273 4.3354-8.84z" style="fill:#fff;stroke-width:.23217"/>
</svg>
