<?xml version="1.0" encoding="UTF-8"?>
<svg version="1.1" viewBox="0 0 192 192" xmlns="http://www.w3.org/2000/svg">
 <circle class="a" cx="96" cy="96" r="88" style="fill:#fff"/>
 <path d="m110.69 128.95c-1.4857-2.7882-2.7977-5.1291-2.9156-5.202-0.11787-0.0728-4.6636 2.0451-10.102 4.7066-5.438 2.6615-9.9492 4.7772-10.025 4.7016-0.14492-0.14492-12.102-24.476-12.257-24.943-0.04964-0.14893-2.5711 0.78976-5.6033 2.086-3.0322 1.2962-5.5823 2.3568-5.6668 2.3568-0.08455 0-0.35286-0.38508-0.59625-0.85574-0.36892-0.71341-0.38147-0.91238-0.0755-1.1962 0.20186-0.18724 4.496-2.5996 9.5426-5.3607 16.311-8.9242 17.047-9.3549 17.725-10.363 0.34426-0.51187 0.62417-1.313 0.62202-1.7803-0.0022-0.4702-1.355-3.9689-3.0293-7.834-1.664-3.8414-3.354-7.7693-3.7556-8.7286-0.40164-0.95932-0.8729-1.799-1.0473-1.8658-0.49661-0.19057-14.012 6.6762-14.337 7.2845-0.15746 0.29421-0.28628 0.82451-0.28628 1.1784s1.2942 3.338 2.8759 6.6313c1.9163 3.9898 2.8759 6.299 2.8759 6.9203 0 1.349-0.60957 2.3286-1.9006 3.0542l-1.1326 0.63654-4.92-10.011c-2.706-5.5063-4.92-10.175-4.92-10.374 0-0.20653 4.2507-2.4161 9.8603-5.1255 5.4232-2.6194 9.8603-4.876 9.8603-5.0149 0-0.13882-1.0589-2.6599-2.3531-5.6025-1.8573-4.2227-2.2757-5.4019-1.9858-5.5963 1.1282-0.75614 1.3929-0.82603 1.7416-0.46002 0.19344 0.20301 1.5492 2.6185 3.0127 5.3677 1.4636 2.7492 2.6967 4.9986 2.7404 4.9986 0.04365 0 4.491-2.1607 9.8831-4.8016 5.3921-2.6409 9.9332-4.751 10.092-4.6892 0.1583 0.0618 2.9274 5.5195 6.1535 12.128 3.2261 6.6088 5.9466 12.111 6.0455 12.227 0.17001 0.19993 4.2847-1.5512 24.699-10.511 4.7697-2.0934 8.7446-3.8063 8.8332-3.8063 0.7603 0-0.4698 0.8459-4.0159 2.7616-2.2973 1.2411-5.9346 3.2232-8.0828 4.4047-2.1482 1.1815-7.8795 4.2917-12.736 6.9115-19.776 10.668-23.103 12.527-23.826 13.318-1.307 1.4298-1.1051 2.5232 1.6092 8.7125 1.2993 2.9628 3.0362 6.9276 3.8598 8.8106 0.82355 1.883 1.5301 3.4575 1.5701 3.4989 0.17242 0.17807 13.558-6.4982 14.085-7.0251 1.0298-1.0298 0.76403-1.9889-2.3186-8.3689-1.5955-3.3021-2.9579-6.3829-3.0276-6.8462-0.17741-1.179 0.68805-2.632 2.0086-3.3721l1.0927-0.61248 5.1186 10.443c2.8152 5.7434 5.0752 10.486 5.0222 10.539-0.053 0.053-4.5243 2.2665-9.9362 4.9189-5.4119 2.6523-9.8857 4.8666-9.9419 4.9205-0.0562 0.0539 0.96065 2.5026 2.2596 5.4416 1.299 2.939 2.3618 5.4513 2.3618 5.5829 0 0.2642-1.2051 0.87526-1.7248 0.87457-0.18122-2.4e-4 -1.545-2.2817-3.0307-5.07zm-12.15-6.3215c3.4982-1.7462 6.4565-3.266 6.5742-3.3774 0.11761-0.11132-0.74018-1.9796-1.9062-4.1518-6.9972-13.035-7.1279-13.261-8.0316-13.878-0.50743-0.34664-1.3169-0.61626-1.8502-0.61626-0.84413 0-12.675 4.8552-13.294 5.4558-0.30571 0.29645 8.9294 19.059 9.5618 19.426 1.3 0.75504 2.4328 0.39311 8.9465-2.8584zm7.4274-34.197c3.2978-1.4226 6.088-2.686 6.2004-2.8074s-1.7999-4.3058-4.2496-9.2986c-4.7216-9.6231-5.0399-10.091-6.8307-10.04-0.94559 0.02678-14.232 6.5272-14.038 6.868 0.31957 0.56111 5.2655 9.6876 6.8613 12.661 2.0584 3.8351 2.2228 4.0803 3.1761 4.7373 1.3183 0.90862 2.532 0.61891 8.8807-2.1199z" style="fill:#56595b;stroke-width:.2739"/>
</svg>
