<?xml version="1.0" encoding="UTF-8"?>
<svg version="1.1" viewBox="0 0 192 192" xmlns="http://www.w3.org/2000/svg">
 <defs>
  <clipPath id="clipPath8">
   <rect class="a" x="20" y="20" width="152" height="152" rx="10" style="fill:#ff837d"/>
  </clipPath>
  <clipPath id="clipPath9">
   <rect class="a" x="20" y="20" width="152" height="152" rx="10" style="fill:#ff837d"/>
  </clipPath>
  <clipPath id="clipPath10">
   <rect class="a" x="20" y="20" width="152" height="152" rx="10" style="fill:#ff837d"/>
  </clipPath>
  <clipPath id="clipPath11">
   <rect class="a" x="20" y="20" width="152" height="152" rx="10" style="fill:#ff837d"/>
  </clipPath>
  <clipPath id="clipPath12">
   <rect class="a" x="20" y="20" width="152" height="152" rx="10" style="fill:#ff837d"/>
  </clipPath>
  <clipPath id="clipPath13">
   <rect class="a" x="20" y="20" width="152" height="152" rx="10" style="fill:#ff837d"/>
  </clipPath>
 </defs>
 <rect class="a" x="20" y="20" width="152" height="152" rx="10" style="fill:#ff837d"/>
 <path d="m132.76 130.38c-0.42855-0.42856-1.4479-1.975-2.2653-3.4366-0.81736-1.4616-2.144-3.2951-2.9481-4.0744-1.4204-1.3767-1.4918-1.3974-2.5119-0.72906-1.9713 1.2916-2.6138 0.93812-4.2518-2.339-2.0501-4.1017-2.474-4.5431-3.8582-4.0169-0.96062 0.36522-1.2222 0.27008-2.0247-0.73636l-0.92159-1.1558-0.44996 1.1835c-0.27791 0.73095-0.34889 2.5591-0.18564 4.7811 0.37348 5.0834-0.78214 10.904-2.1649 10.904-1.5624 0-3.6482-6.2184-3.4406-10.257 0.0743-1.4439 0.0119-2.7483-0.13855-2.8988s-1.1818 1.5738-2.2919 3.8316c-1.7514 3.5623-2.1564 4.1052-3.0622 4.1052-1.0883 0-1.5406-1.0312-2.8246-6.4404-0.55454-2.3361 0.2136-3.7887 2.0035-3.7887 1.8356 0 2.3075-0.31682 4.7715-3.2033 3.071-3.5974 3.0427-4.184-0.3571-7.413-2.9017-2.7559-5.7381-7.4465-4.9685-8.2161 0.49079-0.49078 4.7096 0.56566 6.3172 1.5819 0.53659 0.33921 1.0632 0.52915 1.1703 0.42209s0.23166-1.4957 0.27691-3.086c0.072-2.531-0.0608-3.1081-1.0659-4.6312-1.2107-1.8346-1.5023-3.4294-0.62627-3.4255 2.5607 0.0114 7.1153 2.6896 8.1055 4.7662 0.6496 1.3622 0.64404 1.5077-0.1 2.6165-0.86271 1.2856-1.0922 3.0213-1.1429 8.6423-0.0327 3.6213-4e-3 3.7341 1.1917 4.6875 2.1792 1.7376 3.3174 2.0118 5.927 1.4278 1.8709-0.41869 2.788-0.9432 4.5302-2.5909 2.1182-2.0033 2.1666-2.1 1.5984-3.1892-0.3223-0.61779-0.58786-1.4051-0.59014-1.7495-2e-3 -0.34445-0.39966 0.0313-0.88308 0.83503-2.0532 3.4134-2.8032 3.5078-3.9352 0.49505-0.40427-1.076-1.4651-3.0072-2.3574-4.2916-1.4098-2.0293-1.5671-2.4805-1.2006-3.4445 0.25351-0.66678 0.74013-1.1093 1.2199-1.1093 1.3373 0 4.7838 2.613 5.7824 4.3839 0.85871 1.523 0.94225 1.5756 0.94851 0.59767 4e-3 -0.58981-0.27528-2.0225-0.62012-3.1837-0.65346-2.2004-1.3437-2.6329-4.202-2.6329-1.7638 0-1.5005-0.80249 0.73823-2.2504 1.2166-0.78679 3.1442-2.3872 4.2838-3.5564s2.3571-2.1259 2.7058-2.1259c0.34862 0 1.9075 0.61062 3.4642 1.3569 4.4529 2.1348 4.2582 4.3921-0.46058 5.3396-1.2944 0.25993-2.8224 0.56564-3.3956 0.67936l-1.042 0.20677 1.5894 1.4566c1.3689 1.2545 1.6091 1.7461 1.7314 3.5434 0.0781 1.1478 0.24369 2.1886 0.36802 2.3129 0.12434 0.12434 0.92249-0.86263 1.7737-2.1932 1.3928-2.1774 1.5009-2.543 1.0809-3.6556-0.57795-1.5312-0.34156-1.9502 1.0973-1.9449 2.4468 9e-3 6.76 2.7803 6.76 4.3437 0 0.2224-1.5269 1.8359-3.3931 3.5856-3.1247 2.9296-3.3503 3.2497-2.8525 4.0468 0.796 1.2746 2.6235 2.2153 4.3035 2.2153 0.95022 0 1.8861 0.35102 2.6208 0.98305 1.0636 0.91486 1.106 1.0721 0.6114 2.2662-0.80543 1.9445-1.8916 2.7471-3.3287 2.4597-0.87605-0.17521-1.2954-0.0647-1.4687 0.38701-0.13344 0.34773-0.12281 3.4 0.0236 6.7829 0.23276 5.3775 0.17331 6.3465-0.4729 7.7083-1.2407 2.6146-3.9376 4.0849-5.1919 2.8306zm0.82041-8.6228c0.43384-0.52274 0.4508-1.5327 0.085-5.0598-0.25136-2.4237-0.63939-4.589-0.86229-4.8119-0.48548-0.48549-7.1646 0.24463-8.4292 0.92143-1.0736 0.57459-1.0743 1.9323-1e-3 2.6024 0.45912 0.28673 1.124 1.3921 1.4775 2.4564 0.58051 1.7478 0.89372 2.0605 3.236 3.2312 2.945 1.4719 3.7256 1.5866 4.4943 0.66035zm-81.922 7.4147c-1.2827-1.5384-3.5042-6.252-3.1251-6.631 0.16314-0.16314 1.1387-0.0714 2.168 0.2039 2.5727 0.68809 3.5905 0.63343 6.3581-0.34146 1.3146-0.4631 3.6115-1.0373 5.1041-1.2759s2.8592-0.57821 3.0369-0.75451c0.51369-0.5097 0.48722-3.3732-0.03603-3.8965-0.26161-0.26161-1.7484-0.62847-3.304-0.81525-2.386-0.2865-2.957-0.51591-3.6515-1.4671-0.45276-0.62014-1.383-1.6085-2.0673-2.1964-2.5043-2.1518-3.1635-2.9267-3.1635-3.7191 0-1.1803 0.98346-1.3757 3.5543-0.70605 2.0614 0.53694 2.5409 0.52022 5.0525-0.17623 1.5262-0.42322 2.9449-1.0228 3.1526-1.3323 0.46552-0.69381 0.1168-3.2764-0.70938-5.2538l-0.61748-1.4778-2.695 0.27612c-2.6205 0.26847-2.7153 0.24408-3.4286-0.88203-0.40347-0.63697-1.8448-2.3794-3.2028-3.872-2.5367-2.788-3.832-5.0849-3.4414-6.1027 0.34782-0.9064 1.1481-0.68348 3.0907 0.86085 2.3529 1.8706 4.9158 2.2143 9.4737 1.2705 5.6425-1.1683 11.193-2.5993 12.882-3.3211 1.9441-0.83095 3.2742-0.59688 5.8344 1.0268 1.4309 0.90747 2.0032 1.5878 2.3295 2.7695 0.93088 3.3714-0.24742 4.4133-5.8303 5.1554-4.5904 0.61023-4.8559 0.7038-5.1038 1.7987-0.11528 0.50924-0.65019 1.9292-1.1887 3.1556-0.96147 2.1896-0.9646 2.2403-0.1742 2.8182 0.50801 0.37147 1.8652 0.58854 3.6798 0.58854 2.6473 0 2.9756 0.10069 4.1466 1.2717 1.159 1.159 1.2538 1.4581 1.0696 3.3749-0.26836 2.7929-1.147 3.6038-4.5102 4.1628-2.9423 0.489-4.5756 1.7207-4.5756 3.4507 0 1.989 0.75144 2.3538 5.0102 2.4323 2.1815 0.0402 4.8118-0.0565 5.8452-0.21498 1.5756-0.24159 2.4117-0.0672 5.1803 1.0805 4.9496 2.0518 5.904 4.0149 3.3117 6.812-1.1917 1.2858-1.7827 1.2738-10.371-0.21053-2.7556-0.47628-6.2659-0.86601-7.8006-0.86606-3.7135-1.4e-4 -13.534 1.8429-16.722 3.1384-3.1957 1.2985-3.3715 1.2934-4.5621-0.13448zm46.866-46.899c-0.45678-0.4903-0.94875-1.4298-1.0933-2.0878-0.14452-0.65802-0.91235-1.9739-1.7063-2.9242-1.5374-1.8401-1.6259-2.5773-0.33422-2.7831 1.6136-0.25712 5.1843-1.4565 5.1843-1.7414 0-0.16134-0.4697-0.50735-1.0438-0.76892-1.5969-0.72762-1.407-2.5941 0.47607-4.6784 0.83592-0.92526 1.4005-1.8016 1.2546-1.9475-0.25459-0.25459-2.6905 0.34705-4.8451 1.1967-0.81274 0.32049-1.1392 0.25127-1.5657-0.33204-0.68974-0.94329-0.67773-1.1949 0.08741-1.8299 0.47703-0.3959 0.76526-0.4044 1.2096-0.03568 0.45272 0.37572 1.1978 0.23806 3.3287-0.61498 2.7371-1.0957 2.7502-1.0967 4.3225-0.32858 2.1662 1.0583 2.199 2.0764 0.13168 4.0951-1.8932 1.8486-1.9512 2.0694-1.0291 3.9178 0.49702 0.99629 0.93478 1.3167 1.799 1.3167 1.5064 0 2.6829 0.90008 2.4917 1.9064-0.11706 0.61626-0.56132 0.83727-1.8764 0.93348-1.5512 0.11348-1.7485 0.25392-1.9796 1.4091-0.14114 0.70569-0.25661 1.7481-0.25661 2.3164 0 1.036-2.404 3.8724-3.2821 3.8724-0.24365 0-0.81673-0.40115-1.2735-0.89145zm2.3971-5.5381c0.13206-1.1535 0.0813-1.1922-1.2221-0.93149-1.7985 0.3597-1.9033 0.52127-0.99158 1.5287 1.0416 1.151 2.0445 0.88044 2.2137-0.59723zm-15.509 3.9015-1.4491-1.693-1.8868 1.3299c-1.4307 1.0085-2.148 1.2644-2.9673 1.0587-1.446-0.36292-1.4115-1.7002 0.06765-2.6203 2.6279-1.6346 2.6779-1.7603 1.2198-3.068-1.1129-0.99812-1.2136-1.2305-0.63125-1.4564 0.38113-0.14782 1.2791 0.03434 1.9955 0.40478 0.71637 0.37045 1.4848 0.56084 1.7077 0.42308 0.96456-0.59613 0.11688-3.9588-0.99796-3.9588-0.29634 0-0.98741 0.47752-1.5357 1.0611-1.2892 1.3723-2.6508 1.2227-2.8277-0.3108-0.0918-0.79562 0.18528-1.4028 0.93941-2.0585 1.2355-1.0742 1.3375-1.8812 0.40611-3.211-0.80322-1.1468-0.50214-2.1611 0.64146-2.1611 0.74983 0 0.78709-0.11431 0.34998-1.0737-0.39605-0.86924-0.37447-1.1463 0.11332-1.4549 1.0954-0.69307 2.2524-0.37705 3.8785 1.0594 1.659 1.4655 1.6915 1.9782 0.19403 3.0586-0.41591 0.30006-0.7562 0.80042-0.7562 1.1119 0 0.44947 0.24575 0.47357 1.191 0.11679 1.3794-0.52068 2.5666-0.19614 2.5666 0.70164 0 0.37519-0.67331 0.80458-1.6916 1.0788-2.3255 0.62618-2.4836 1.4103-0.66074 3.277 1.6381 1.6776 1.875 2.5808 0.891 3.3974-0.93086 0.77254-0.76827 1.408 0.62349 2.437 2.5543 1.8885 3.1283 4.2432 1.0344 4.2432-0.61326 0-1.4963-0.61883-2.4157-1.693zm-15.073 0.33605c-0.5346-0.82228-0.53559-1.3298-8e-3 -4.0708 0.33153-1.7222 0.51399-3.3662 0.40546-3.6532-0.3764-0.99556-1.0473-0.51192-1.9899 1.4346-1.264 2.61-2.2055 3.1563-3.249 1.8852-0.96967-1.1812-0.74268-1.9025 1.2746-4.0504 2.7615-2.9402 4.6764-6.3883 4.9524-8.9176 0.13732-1.2583 0.43755-2.3492 0.66718-2.4243 0.22963-0.07505 1.0281 0.23581 1.7744 0.69079 0.95749 0.58372 1.3569 1.1393 1.3569 1.8875 0 0.74677 0.30861 1.1776 1.0438 1.4571 0.57408 0.21827 1.0438 0.56928 1.0438 0.78002 0 0.79058-1.2354 0.81494-2.2159 0.0437-1.003-0.78897-1.0266-0.78862-1.7637 0.02589-0.87011 0.96146-0.96724 0.83483 1.6104 2.0992 1.8024 0.88414 1.9858 1.0998 1.7408 2.0467-0.15064 0.58213-0.37353 1.7744-0.4953 2.6495-0.1274 0.9155-0.55149 1.7972-0.99883 2.0765-0.7412 0.46289-0.7277 0.53742 0.28998 1.5996 1.4145 1.4765 1.2598 3.1305-0.27833 2.9756-0.73173-0.07369-1.4452 0.28714-2.2701 1.1482-1.4377 1.5006-2.0754 1.5704-2.8908 0.31623zm2.6791-3.862c0-0.57408-0.18788-1.0438-0.41751-1.0438-0.22963 0-0.41751 0.4697-0.41751 1.0438 0 0.57408 0.18788 1.0438 0.41751 1.0438 0.22963 0 0.41751-0.4697 0.41751-1.0438zm1.2525-6.0539c0-0.22963-0.28182-0.41751-0.62627-0.41751-0.34445 0-0.62627 0.18788-0.62627 0.41751 0 0.22963 0.28182 0.41751 0.62627 0.41751 0.34445 0 0.62627-0.18788 0.62627-0.41751zm-1.6701-2.0876c0-0.22963-0.08285-0.41751-0.18412-0.41751-0.10126 0-0.30023 0.18788-0.44216 0.41751-0.14192 0.22963-0.05907 0.41751 0.18412 0.41751 0.24318 0 0.44216-0.18788 0.44216-0.41751zm41.518 11.788c-1.1275-0.78298-1.8546-2.5-1.8546-4.3794 0-5.5267 4.1404-8.4493 9.6862-6.8371 2.6716 0.77666 3.6668 1.7391 5.1515 4.9821 1.1726 2.5614 1.15 4.1699-0.0653 4.6363-1.038 0.3983-1.6909-0.40428-1.9668-2.4176-0.59861-4.3674-2.0282-5.3968-2.9744-2.1419-0.77534 2.6671-2.245 4.541-4.4394 5.6605-1.6769 0.85547-2.7949 1.0126-3.5372 0.49719zm4.7927-5.9795c1.1854-2.242 0.98878-3.4683-0.47295-2.9499-1.2061 0.42778-2.473 2.8894-2.1409 4.1595 0.3805 1.455 1.472 0.94989 2.6138-1.2097z" style="fill:#fff;stroke-width:.41751"/>
 <path d="m176.14 27.59h-169.92l1.2754-8.0752h166.12z" clip-path="url(#clipPath13)" style="fill:#98dc9a;stroke-linecap:round;stroke-linejoin:round;stroke-width:50"/>
 <path d="m176.14 35.666h-169.92l1.2754-8.0752h166.12z" clip-path="url(#clipPath12)" style="fill:#f8c18c;stroke-linecap:round;stroke-linejoin:round;stroke-width:50"/>
 <path d="m176.14 43.741h-169.92l1.2754-8.0752h166.12z" clip-path="url(#clipPath11)" style="fill:#f9de81;stroke-linecap:round;stroke-linejoin:round;stroke-width:50"/>
 <path d="m176.14 156.33h-169.92l1.2754-8.0752h166.12z" clip-path="url(#clipPath10)" style="fill:#f9de81;stroke-linecap:round;stroke-linejoin:round;stroke-width:50"/>
 <path d="m176.14 164.41h-169.92l1.2754-8.0752h166.12z" clip-path="url(#clipPath9)" style="fill:#f8c18c;stroke-linecap:round;stroke-linejoin:round;stroke-width:50"/>
 <path d="m176.14 172.48h-169.92l1.2754-8.0752h166.12z" clip-path="url(#clipPath8)" style="fill:#98dc9a;stroke-linecap:round;stroke-linejoin:round;stroke-width:50"/>
</svg>
