<?xml version="1.0" encoding="UTF-8"?><svg id="a" xmlns="http://www.w3.org/2000/svg" width="192" height="192" viewBox="0 0 192 192"><defs><style>.o{fill:#9abeff;}.o,.p{stroke-width:0px;}.p{fill:#fff;}</style></defs><g id="b"><g id="c"><rect id="d" class="o" x="20" y="20" width="152" height="152" rx="10" ry="10"/><g id="e"><path id="f" class="p" d="m86.33,113.26l10.08-23.03,10.08,22.83h-20.16s0,.21,0,.21Zm34.35,14.19l-21.6-48.54c2.06-1.03,3.5-3.29,3.5-5.76,0-3.5-2.88-6.38-6.38-6.38s-6.38,2.88-6.38,6.38c0,2.47,1.44,4.73,3.5,5.76l-21.39,48.54c-.82,1.85,0,3.91,1.85,4.73,1.85.82,3.91,0,4.73-1.85l4.52-10.08h26.53l4.52,10.08c.62,1.44,1.85,2.06,3.29,2.06.41,0,1.03,0,1.44-.21,1.85-.82,2.67-2.88,1.85-4.73h0Z"/><path id="g" class="p" d="m70.7,59.99c.21-.41,1.03-.62,1.44-.41.62.21.62,1.03.41,1.44-2.06,3.5-3.09,7.61-3.09,11.72s1.03,7.61,2.67,11.11c.21.21.21.62,0,.82,0,.21-.21.41-.62.62-.21,0-.41.21-.41.21-.41,0-.82-.21-1.03-.62-2.06-3.7-3.09-7.82-3.09-12.13.21-4.52,1.44-8.84,3.7-12.75"/><path id="h" class="p" d="m81.81,81.38c.21,0,.41,0,.41-.21.41-.21.62-.82.41-1.44-1.23-2.06-1.65-4.52-1.65-6.79,0-2.67.82-5.35,2.26-7.82.41-.41.21-1.23-.41-1.44-.41-.21-1.03-.21-1.44.41-1.65,2.67-2.47,5.76-2.47,8.84,0,2.67.62,5.55,2.06,7.82,0,.41.41.62.82.62"/><path id="i" class="p" d="m121.3,59.99c-.21-.41-1.03-.62-1.44-.41-.62.21-.62,1.03-.41,1.44,2.06,3.5,3.09,7.61,3.09,11.72s-1.03,7.61-2.67,11.11c-.21.21-.21.62,0,.82,0,.21.21.41.62.62.21,0,.41.21.41.21.41,0,.82-.21,1.03-.62,2.06-3.7,3.09-7.82,3.09-12.13-.21-4.52-1.44-8.84-3.7-12.75"/><path id="j" class="p" d="m110.19,81.38c-.21,0-.41,0-.41-.21-.41-.21-.62-.82-.41-1.44,1.03-2.06,1.65-4.52,1.65-6.79,0-2.67-.82-5.35-2.26-7.82-.41-.41-.21-1.23.41-1.44.41-.21,1.03-.21,1.44.41,1.65,2.67,2.47,5.76,2.47,8.84,0,2.67-.62,5.55-2.06,7.82,0,.41-.41.62-.82.62"/></g></g></g></svg>