<?xml version="1.0" encoding="UTF-8" standalone="no"?>
<svg
   viewBox="0 0 192 192"
   version="1.1"
   id="svg3"
   xml:space="preserve"
   width="192"
   height="192"
   xmlns="http://www.w3.org/2000/svg"
   xmlns:svg="http://www.w3.org/2000/svg"><defs
     id="defs1"><style
       id="style1">.a{fill:none;stroke:#b1b5bd;stroke-linecap:round;stroke-linejoin:round;isolation:isolate;opacity:0.63;}</style></defs><rect
     class="a"
     x="19.996733"
     y="19.996733"
     width="152"
     height="152"
     rx="10.000001"
     id="rect1"
     style="opacity:1;fill:#ffffff;fill-opacity:1;stroke:none;stroke-width:1" /><g
     id="g7"
     transform="matrix(1.1305633,0,0,1.1305633,-12.329736,-12.569781)"><g
       id="g5"><path
         id="path5"
         style="opacity:1;fill:#54688c;fill-rule:evenodd;stroke-linecap:round;stroke-linejoin:round;stroke-miterlimit:10"
         d="M 130.83682,85.015043 C 100.82961,81.506273 87.889287,60.481349 87.889287,60.481349 c 0,0 0.470435,-0.2805 8.079771,-4.660138 14.238832,19.120074 34.807322,20.111707 34.807322,20.111707 0,0 0.0483,2.618773 0.0604,9.082098 z" /><path
         id="path4"
         style="display:inline;opacity:1;fill:#54688c;fill-rule:evenodd;stroke-linecap:round;stroke-linejoin:round;stroke-miterlimit:10"
         d="M 130.63711,100.32072 C 90.644269,96.564646 74.47914,67.961016 74.47914,67.961016 c 0,0 -0.73686,0.294126 7.773617,-4.404008 19.033003,26.766105 48.493433,27.840614 48.493433,27.840614 0,0 -5.2e-4,-1.269498 -0.1091,8.923098 z" /><path
         id="rect3"
         style="display:inline;opacity:1;fill:#54688c;fill-rule:evenodd;stroke-linecap:round;stroke-linejoin:round;stroke-miterlimit:10"
         d="m 61.069435,75.834612 c 0,0 -3.049055,1.861526 7.812386,-4.577688 C 93.65894,107.26364 130.95989,106.9402 130.95989,106.9402 l -0.0309,8.96133 c 0,0 -43.2963,-0.42177 -69.859555,-40.066918 z" /></g><g
       id="g6"><path
         id="rect5"
         style="display:inline;opacity:1;fill:#ff837d;fill-rule:evenodd;stroke-linecap:round;stroke-linejoin:round;stroke-miterlimit:10"
         d="m 87.840731,131.50383 c 18.161609,-24.14333 43.116259,-24.56968 43.116259,-24.56968 0,0 0.0234,0.26655 -0.02,8.96023 -23.69126,2.65431 -34.90029,20.24038 -34.90029,20.24038 0,0 1.570288,1.22829 -8.196019,-4.63093 z" /><path
         id="rect4"
         style="display:inline;opacity:1;fill:#ff837d;fill-rule:evenodd;stroke-linecap:round;stroke-linejoin:round;stroke-miterlimit:10"
         d="M 74.542182,123.75462 C 97.928515,91.095532 130.78099,91.379654 130.78099,91.379654 c 0,0 -0.0605,-0.704906 0.0241,9.013586 -32.952908,2.85011 -48.453529,28.00126 -48.453529,28.00126 0,0 0.941317,0.58747 -7.809419,-4.63988 z" /><path
         id="path3"
         style="display:inline;opacity:1;fill:#ff837d;fill-rule:evenodd;stroke-linecap:round;stroke-linejoin:round;stroke-miterlimit:10"
         d="M 61.024095,116.1498 C 87.571761,76.088918 130.81628,75.920006 130.81628,75.920006 c 0,0 0.0354,-0.925366 0.026,9.054723 -43.663919,3.686256 -61.909113,35.515671 -61.909113,35.515671 0,0 0.813596,0.47366 -7.909062,-4.3406 z" /></g></g></svg>
