<?xml version="1.0" encoding="UTF-8"?>
<svg version="1.1" viewBox="0 0 192 192" xmlns="http://www.w3.org/2000/svg">
 <circle class="a" cx="96" cy="96" r="88" style="fill:#fff"/>
 <path d="m131.65 107.12s7.8018 2.8255 7.545 6.036c-0.30537 3.817-6.3059 4.6401-9.9971 5.6588-7.7602 2.1414-16.324-1.3457-24.144 0.56588-3.6056 0.88139-8.1884 1.663-9.9971 4.9042-1.4708 2.6356 7.9325 7.4334 0.87447 9.0122-18.254 4.0831-24.704 4.1232-37.656 2.1167 1.3228-5.6194 3.6247-9.9623 6.9056-13.029" style="fill:none;stroke-linecap:round;stroke-linejoin:round;stroke-width:3.863;stroke:#56595b"/>
 <path d="m58.271 135.41 3.9733-10.92c7.4454-21.368 22.562-37.329 45.349-47.883 1.1666-0.65094 0.13253-2.7716-1.3338-2.4008-21.738 10.176-37.565 26.137-47.483 47.883-3.29-10.134 1.4227-22.539 14.138-37.212 0.57797 3.0677 1.3338 5.0684 2.2674 6.002 0.04448-4.0903 0.9781-8.1805 2.8009-12.271l9.0697-8.6696c0.44459 3.7346 1.2449 6.4911 2.4008 8.2694-0.26676-4.3126 0.62243-8.4473 2.6676-12.404 4.4904-3.6901 9.4254-6.58 14.805-8.6696-0.35566 2.4453-0.35566 5.0684 0 7.8693 1.156-3.868 3.1122-7.2024 5.8686-10.003 9.9577-2.9921 16.072-1.2259 22.408 0.26676-0.26676 2.8898-1.067 5.6019-2.4008 8.136-2.9343-0.0444-5.5129 0.71136-7.7359 2.2674 2.223-0.0889 4.357 0.26675 6.4021 1.067-2.9343 6.4911-6.4021 12.715-10.403 18.673-4.7127 1.9562-9.6032 3.0232-14.672 3.2011 2.5342 1.8228 5.7797 2.8454 9.7366 3.0677-2.8454 4.3126-6.4022 8.2694-10.67 11.871-4.3452 2.3832-9.6024 3.3564-15.739 3.0677l9.0697 2.8009c-10.547 9.8024-22.729 14.826-36.546 15.072" style="fill:#56595b"/>
</svg>
