<?xml version="1.0" encoding="UTF-8"?><svg id="a" xmlns="http://www.w3.org/2000/svg" width="192" height="192" viewBox="0 0 192 192"><defs><style>.d{fill:#ff837d;}.d,.e,.f{stroke-width:0px;}.d,.f{fill-rule:evenodd;}.e,.f{fill:#fff;}</style></defs><g id="b"><g id="c"><path class="d" d="m172,30v132c0,5.52-4.48,10-10,10H30c-5.52,0-10-4.48-10-10V30c0-5.52,4.48-10,10-10h132c5.52,0,10,4.48,10,10Z"/><rect class="e" x="112.95" y="86.89" width="19.55" height="19.55" rx="2" ry="2"/><rect class="e" x="86.88" y="60.83" width="19.55" height="71.67" rx="2" ry="2"/><rect class="e" x="112.95" y="60.81" width="19.55" height="19.55" rx="2" ry="2"/><path class="f" d="m70.58,59.5c-6.12,0-11.08,4.96-11.08,11.08s4.96,11.08,11.08,11.08h0c6.12,0,11.08-4.96,11.08-11.08,0-6.12-4.96-11.08-11.08-11.08Z"/><rect class="e" x="60.85" y="86.87" width="19.55" height="45.63" rx="2" ry="2"/></g></g></svg>