<?xml version="1.0" encoding="UTF-8"?>
<svg version="1.1" viewBox="0 0 192 192" xmlns="http://www.w3.org/2000/svg">
 <defs>
  <clipPath id="clipPath32">
   <path d="m17.41 23c-1.6416-0.5424-3.4331 0.1963-4.2151 1.7382s-0.3197 3.4238 1.0877 4.4278c1.4075 1.004 3.3374 0.8286 4.5407-0.4128l3.4252-4.0579c2.5256 0.8928 14.056 4.885 16.274 5.6884l-7.5494 12.155c-4.5076 7.3183-13.912 9.8961-21.521 5.8989-7.6091-3.9971-10.823-13.204-7.3552-21.068 3.4681-7.8643 12.434-11.7 20.517-8.7772l24.849 8.7587c2.4732 0.8532 5.1842-0.3587 6.1979-2.7706 1.0137-2.4119-0.01768-5.1966-2.3578-6.3664-2.3402-1.1698-5.1865-0.3234-6.5074 1.9349l-3.1639 5.1183c-2.0439-0.692-12.966-4.5219-15.32-5.3843l11.662-13.868c5.5235-6.0357 14.658-7.0585 21.38-2.3939 6.7216 4.6646 8.9596 13.58 5.2381 20.866-3.7216 7.2862-12.256 10.699-19.976 7.9878z" fill="#00000000" stroke="#000" stroke-width="1.4111" style="fill:#fff;stroke:#56595b"/>
  </clipPath>
  <clipPath id="clipPath33">
   <path d="m17.41 23c-1.6416-0.5424-3.4331 0.1963-4.2151 1.7382s-0.3197 3.4238 1.0877 4.4278c1.4075 1.004 3.3374 0.8286 4.5407-0.4128l3.4252-4.0579c2.5256 0.8928 14.056 4.885 16.274 5.6884l-7.5494 12.155c-4.5076 7.3183-13.912 9.8961-21.521 5.8989-7.6091-3.9971-10.823-13.204-7.3552-21.068 3.4681-7.8643 12.434-11.7 20.517-8.7772l24.849 8.7587c2.4732 0.8532 5.1842-0.3587 6.1979-2.7706 1.0137-2.4119-0.01768-5.1966-2.3578-6.3664-2.3402-1.1698-5.1865-0.3234-6.5074 1.9349l-3.1639 5.1183c-2.0439-0.692-12.966-4.5219-15.32-5.3843l11.662-13.868c5.5235-6.0357 14.658-7.0585 21.38-2.3939 6.7216 4.6646 8.9596 13.58 5.2381 20.866-3.7216 7.2862-12.256 10.699-19.976 7.9878z" fill="#00000000" stroke="#000" stroke-width="1.4111" style="fill:#fff;stroke:#56595b"/>
  </clipPath>
  <clipPath id="clipPath34">
   <path d="m17.41 23c-1.6416-0.5424-3.4331 0.1963-4.2151 1.7382s-0.3197 3.4238 1.0877 4.4278c1.4075 1.004 3.3374 0.8286 4.5407-0.4128l3.4252-4.0579c2.5256 0.8928 14.056 4.885 16.274 5.6884l-7.5494 12.155c-4.5076 7.3183-13.912 9.8961-21.521 5.8989-7.6091-3.9971-10.823-13.204-7.3552-21.068 3.4681-7.8643 12.434-11.7 20.517-8.7772l24.849 8.7587c2.4732 0.8532 5.1842-0.3587 6.1979-2.7706 1.0137-2.4119-0.01768-5.1966-2.3578-6.3664-2.3402-1.1698-5.1865-0.3234-6.5074 1.9349l-3.1639 5.1183c-2.0439-0.692-12.966-4.5219-15.32-5.3843l11.662-13.868c5.5235-6.0357 14.658-7.0585 21.38-2.3939 6.7216 4.6646 8.9596 13.58 5.2381 20.866-3.7216 7.2862-12.256 10.699-19.976 7.9878z" fill="#00000000" stroke="#000" stroke-width="1.4111" style="fill:#fff;stroke:#56595b"/>
  </clipPath>
  <clipPath id="clipPath35">
   <path d="m17.41 23c-1.6416-0.5424-3.4331 0.1963-4.2151 1.7382s-0.3197 3.4238 1.0877 4.4278c1.4075 1.004 3.3374 0.8286 4.5407-0.4128l3.4252-4.0579c2.5256 0.8928 14.056 4.885 16.274 5.6884l-7.5494 12.155c-4.5076 7.3183-13.912 9.8961-21.521 5.8989-7.6091-3.9971-10.823-13.204-7.3552-21.068 3.4681-7.8643 12.434-11.7 20.517-8.7772l24.849 8.7587c2.4732 0.8532 5.1842-0.3587 6.1979-2.7706 1.0137-2.4119-0.01768-5.1966-2.3578-6.3664-2.3402-1.1698-5.1865-0.3234-6.5074 1.9349l-3.1639 5.1183c-2.0439-0.692-12.966-4.5219-15.32-5.3843l11.662-13.868c5.5235-6.0357 14.658-7.0585 21.38-2.3939 6.7216 4.6646 8.9596 13.58 5.2381 20.866-3.7216 7.2862-12.256 10.699-19.976 7.9878z" fill="#00000000" stroke="#000" stroke-width="1.4111" style="fill:#fff;stroke:#56595b"/>
  </clipPath>
  <clipPath id="clipPath36">
   <path d="m17.41 23c-1.6416-0.5424-3.4331 0.1963-4.2151 1.7382s-0.3197 3.4238 1.0877 4.4278c1.4075 1.004 3.3374 0.8286 4.5407-0.4128l3.4252-4.0579c2.5256 0.8928 14.056 4.885 16.274 5.6884l-7.5494 12.155c-4.5076 7.3183-13.912 9.8961-21.521 5.8989-7.6091-3.9971-10.823-13.204-7.3552-21.068 3.4681-7.8643 12.434-11.7 20.517-8.7772l24.849 8.7587c2.4732 0.8532 5.1842-0.3587 6.1979-2.7706 1.0137-2.4119-0.01768-5.1966-2.3578-6.3664-2.3402-1.1698-5.1865-0.3234-6.5074 1.9349l-3.1639 5.1183c-2.0439-0.692-12.966-4.5219-15.32-5.3843l11.662-13.868c5.5235-6.0357 14.658-7.0585 21.38-2.3939 6.7216 4.6646 8.9596 13.58 5.2381 20.866-3.7216 7.2862-12.256 10.699-19.976 7.9878z" fill="#00000000" stroke="#000" stroke-width="1.4111" style="fill:#fff;stroke:#56595b"/>
  </clipPath>
  <clipPath id="clipPath37">
   <path d="m17.41 23c-1.6416-0.5424-3.4331 0.1963-4.2151 1.7382s-0.3197 3.4238 1.0877 4.4278c1.4075 1.004 3.3374 0.8286 4.5407-0.4128l3.4252-4.0579c2.5256 0.8928 14.056 4.885 16.274 5.6884l-7.5494 12.155c-4.5076 7.3183-13.912 9.8961-21.521 5.8989-7.6091-3.9971-10.823-13.204-7.3552-21.068 3.4681-7.8643 12.434-11.7 20.517-8.7772l24.849 8.7587c2.4732 0.8532 5.1842-0.3587 6.1979-2.7706 1.0137-2.4119-0.01768-5.1966-2.3578-6.3664-2.3402-1.1698-5.1865-0.3234-6.5074 1.9349l-3.1639 5.1183c-2.0439-0.692-12.966-4.5219-15.32-5.3843l11.662-13.868c5.5235-6.0357 14.658-7.0585 21.38-2.3939 6.7216 4.6646 8.9596 13.58 5.2381 20.866-3.7216 7.2862-12.256 10.699-19.976 7.9878z" fill="#00000000" stroke="#000" stroke-width="1.4111" style="fill:#fff;stroke:#56595b"/>
  </clipPath>
  <clipPath id="clipPath38">
   <path d="m17.41 23c-1.6416-0.5424-3.4331 0.1963-4.2151 1.7382s-0.3197 3.4238 1.0877 4.4278c1.4075 1.004 3.3374 0.8286 4.5407-0.4128l3.4252-4.0579c2.5256 0.8928 14.056 4.885 16.274 5.6884l-7.5494 12.155c-4.5076 7.3183-13.912 9.8961-21.521 5.8989-7.6091-3.9971-10.823-13.204-7.3552-21.068 3.4681-7.8643 12.434-11.7 20.517-8.7772l24.849 8.7587c2.4732 0.8532 5.1842-0.3587 6.1979-2.7706 1.0137-2.4119-0.01768-5.1966-2.3578-6.3664-2.3402-1.1698-5.1865-0.3234-6.5074 1.9349l-3.1639 5.1183c-2.0439-0.692-12.966-4.5219-15.32-5.3843l11.662-13.868c5.5235-6.0357 14.658-7.0585 21.38-2.3939 6.7216 4.6646 8.9596 13.58 5.2381 20.866-3.7216 7.2862-12.256 10.699-19.976 7.9878z" fill="#00000000" stroke="#000" stroke-width="1.4111" style="fill:#fff;stroke:#56595b"/>
  </clipPath>
  <clipPath id="clipPath39">
   <path d="m17.41 23c-1.6416-0.5424-3.4331 0.1963-4.2151 1.7382s-0.3197 3.4238 1.0877 4.4278c1.4075 1.004 3.3374 0.8286 4.5407-0.4128l3.4252-4.0579c2.5256 0.8928 14.056 4.885 16.274 5.6884l-7.5494 12.155c-4.5076 7.3183-13.912 9.8961-21.521 5.8989-7.6091-3.9971-10.823-13.204-7.3552-21.068 3.4681-7.8643 12.434-11.7 20.517-8.7772l24.849 8.7587c2.4732 0.8532 5.1842-0.3587 6.1979-2.7706 1.0137-2.4119-0.01768-5.1966-2.3578-6.3664-2.3402-1.1698-5.1865-0.3234-6.5074 1.9349l-3.1639 5.1183c-2.0439-0.692-12.966-4.5219-15.32-5.3843l11.662-13.868c5.5235-6.0357 14.658-7.0585 21.38-2.3939 6.7216 4.6646 8.9596 13.58 5.2381 20.866-3.7216 7.2862-12.256 10.699-19.976 7.9878z" fill="#00000000" stroke="#000" stroke-width="1.4111" style="fill:#fff;stroke:#56595b"/>
  </clipPath>
  <clipPath id="clipPath40">
   <path d="m17.41 23c-1.6416-0.5424-3.4331 0.1963-4.2151 1.7382s-0.3197 3.4238 1.0877 4.4278c1.4075 1.004 3.3374 0.8286 4.5407-0.4128l3.4252-4.0579c2.5256 0.8928 14.056 4.885 16.274 5.6884l-7.5494 12.155c-4.5076 7.3183-13.912 9.8961-21.521 5.8989-7.6091-3.9971-10.823-13.204-7.3552-21.068 3.4681-7.8643 12.434-11.7 20.517-8.7772l24.849 8.7587c2.4732 0.8532 5.1842-0.3587 6.1979-2.7706 1.0137-2.4119-0.01768-5.1966-2.3578-6.3664-2.3402-1.1698-5.1865-0.3234-6.5074 1.9349l-3.1639 5.1183c-2.0439-0.692-12.966-4.5219-15.32-5.3843l11.662-13.868c5.5235-6.0357 14.658-7.0585 21.38-2.3939 6.7216 4.6646 8.9596 13.58 5.2381 20.866-3.7216 7.2862-12.256 10.699-19.976 7.9878z" fill="#00000000" stroke="#000" stroke-width="1.4111" style="fill:#fff;stroke:#56595b"/>
  </clipPath>
  <clipPath id="clipPath41">
   <path d="m17.41 23c-1.6416-0.5424-3.4331 0.1963-4.2151 1.7382s-0.3197 3.4238 1.0877 4.4278c1.4075 1.004 3.3374 0.8286 4.5407-0.4128l3.4252-4.0579c2.5256 0.8928 14.056 4.885 16.274 5.6884l-7.5494 12.155c-4.5076 7.3183-13.912 9.8961-21.521 5.8989-7.6091-3.9971-10.823-13.204-7.3552-21.068 3.4681-7.8643 12.434-11.7 20.517-8.7772l24.849 8.7587c2.4732 0.8532 5.1842-0.3587 6.1979-2.7706 1.0137-2.4119-0.01768-5.1966-2.3578-6.3664-2.3402-1.1698-5.1865-0.3234-6.5074 1.9349l-3.1639 5.1183c-2.0439-0.692-12.966-4.5219-15.32-5.3843l11.662-13.868c5.5235-6.0357 14.658-7.0585 21.38-2.3939 6.7216 4.6646 8.9596 13.58 5.2381 20.866-3.7216 7.2862-12.256 10.699-19.976 7.9878z" fill="#00000000" stroke="#000" stroke-width="1.4111" style="fill:#fff;stroke:#56595b"/>
  </clipPath>
  <clipPath id="clipPath42">
   <path d="m17.41 23c-1.6416-0.5424-3.4331 0.1963-4.2151 1.7382s-0.3197 3.4238 1.0877 4.4278c1.4075 1.004 3.3374 0.8286 4.5407-0.4128l3.4252-4.0579c2.5256 0.8928 14.056 4.885 16.274 5.6884l-7.5494 12.155c-4.5076 7.3183-13.912 9.8961-21.521 5.8989-7.6091-3.9971-10.823-13.204-7.3552-21.068 3.4681-7.8643 12.434-11.7 20.517-8.7772l24.849 8.7587c2.4732 0.8532 5.1842-0.3587 6.1979-2.7706 1.0137-2.4119-0.01768-5.1966-2.3578-6.3664-2.3402-1.1698-5.1865-0.3234-6.5074 1.9349l-3.1639 5.1183c-2.0439-0.692-12.966-4.5219-15.32-5.3843l11.662-13.868c5.5235-6.0357 14.658-7.0585 21.38-2.3939 6.7216 4.6646 8.9596 13.58 5.2381 20.866-3.7216 7.2862-12.256 10.699-19.976 7.9878z" fill="#00000000" stroke="#000" stroke-width="1.4111" style="fill:#fff;stroke:#56595b"/>
  </clipPath>
  <clipPath id="clipPath43">
   <path d="m17.41 23c-1.6416-0.5424-3.4331 0.1963-4.2151 1.7382s-0.3197 3.4238 1.0877 4.4278c1.4075 1.004 3.3374 0.8286 4.5407-0.4128l3.4252-4.0579c2.5256 0.8928 14.056 4.885 16.274 5.6884l-7.5494 12.155c-4.5076 7.3183-13.912 9.8961-21.521 5.8989-7.6091-3.9971-10.823-13.204-7.3552-21.068 3.4681-7.8643 12.434-11.7 20.517-8.7772l24.849 8.7587c2.4732 0.8532 5.1842-0.3587 6.1979-2.7706 1.0137-2.4119-0.01768-5.1966-2.3578-6.3664-2.3402-1.1698-5.1865-0.3234-6.5074 1.9349l-3.1639 5.1183c-2.0439-0.692-12.966-4.5219-15.32-5.3843l11.662-13.868c5.5235-6.0357 14.658-7.0585 21.38-2.3939 6.7216 4.6646 8.9596 13.58 5.2381 20.866-3.7216 7.2862-12.256 10.699-19.976 7.9878z" fill="#00000000" stroke="#000" stroke-width="1.4111" style="fill:#fff;stroke:#56595b"/>
  </clipPath>
  <clipPath id="clipPath44">
   <path d="m17.41 23c-1.6416-0.5424-3.4331 0.1963-4.2151 1.7382s-0.3197 3.4238 1.0877 4.4278c1.4075 1.004 3.3374 0.8286 4.5407-0.4128l3.4252-4.0579c2.5256 0.8928 14.056 4.885 16.274 5.6884l-7.5494 12.155c-4.5076 7.3183-13.912 9.8961-21.521 5.8989-7.6091-3.9971-10.823-13.204-7.3552-21.068 3.4681-7.8643 12.434-11.7 20.517-8.7772l24.849 8.7587c2.4732 0.8532 5.1842-0.3587 6.1979-2.7706 1.0137-2.4119-0.01768-5.1966-2.3578-6.3664-2.3402-1.1698-5.1865-0.3234-6.5074 1.9349l-3.1639 5.1183c-2.0439-0.692-12.966-4.5219-15.32-5.3843l11.662-13.868c5.5235-6.0357 14.658-7.0585 21.38-2.3939 6.7216 4.6646 8.9596 13.58 5.2381 20.866-3.7216 7.2862-12.256 10.699-19.976 7.9878z" fill="#00000000" stroke="#000" stroke-width="1.4111" style="fill:#fff;stroke:#56595b"/>
  </clipPath>
  <clipPath id="clipPath45">
   <path d="m17.41 23c-1.6416-0.5424-3.4331 0.1963-4.2151 1.7382s-0.3197 3.4238 1.0877 4.4278c1.4075 1.004 3.3374 0.8286 4.5407-0.4128l3.4252-4.0579c2.5256 0.8928 14.056 4.885 16.274 5.6884l-7.5494 12.155c-4.5076 7.3183-13.912 9.8961-21.521 5.8989-7.6091-3.9971-10.823-13.204-7.3552-21.068 3.4681-7.8643 12.434-11.7 20.517-8.7772l24.849 8.7587c2.4732 0.8532 5.1842-0.3587 6.1979-2.7706 1.0137-2.4119-0.01768-5.1966-2.3578-6.3664-2.3402-1.1698-5.1865-0.3234-6.5074 1.9349l-3.1639 5.1183c-2.0439-0.692-12.966-4.5219-15.32-5.3843l11.662-13.868c5.5235-6.0357 14.658-7.0585 21.38-2.3939 6.7216 4.6646 8.9596 13.58 5.2381 20.866-3.7216 7.2862-12.256 10.699-19.976 7.9878z" fill="#00000000" stroke="#000" stroke-width="1.4111" style="fill:#fff;stroke:#56595b"/>
  </clipPath>
  <clipPath id="clipPath46">
   <path d="m17.41 23c-1.6416-0.5424-3.4331 0.1963-4.2151 1.7382s-0.3197 3.4238 1.0877 4.4278c1.4075 1.004 3.3374 0.8286 4.5407-0.4128l3.4252-4.0579c2.5256 0.8928 14.056 4.885 16.274 5.6884l-7.5494 12.155c-4.5076 7.3183-13.912 9.8961-21.521 5.8989-7.6091-3.9971-10.823-13.204-7.3552-21.068 3.4681-7.8643 12.434-11.7 20.517-8.7772l24.849 8.7587c2.4732 0.8532 5.1842-0.3587 6.1979-2.7706 1.0137-2.4119-0.01768-5.1966-2.3578-6.3664-2.3402-1.1698-5.1865-0.3234-6.5074 1.9349l-3.1639 5.1183c-2.0439-0.692-12.966-4.5219-15.32-5.3843l11.662-13.868c5.5235-6.0357 14.658-7.0585 21.38-2.3939 6.7216 4.6646 8.9596 13.58 5.2381 20.866-3.7216 7.2862-12.256 10.699-19.976 7.9878z" fill="#00000000" stroke="#000" stroke-width="1.4111" style="fill:#fff;stroke:#56595b"/>
  </clipPath>
  <clipPath id="clipPath47">
   <path d="m17.41 23c-1.6416-0.5424-3.4331 0.1963-4.2151 1.7382s-0.3197 3.4238 1.0877 4.4278c1.4075 1.004 3.3374 0.8286 4.5407-0.4128l3.4252-4.0579c2.5256 0.8928 14.056 4.885 16.274 5.6884l-7.5494 12.155c-4.5076 7.3183-13.912 9.8961-21.521 5.8989-7.6091-3.9971-10.823-13.204-7.3552-21.068 3.4681-7.8643 12.434-11.7 20.517-8.7772l24.849 8.7587c2.4732 0.8532 5.1842-0.3587 6.1979-2.7706 1.0137-2.4119-0.01768-5.1966-2.3578-6.3664-2.3402-1.1698-5.1865-0.3234-6.5074 1.9349l-3.1639 5.1183c-2.0439-0.692-12.966-4.5219-15.32-5.3843l11.662-13.868c5.5235-6.0357 14.658-7.0585 21.38-2.3939 6.7216 4.6646 8.9596 13.58 5.2381 20.866-3.7216 7.2862-12.256 10.699-19.976 7.9878z" fill="#00000000" stroke="#000" stroke-width="1.4111" style="fill:#fff;stroke:#56595b"/>
  </clipPath>
  <clipPath id="clipPath48">
   <path d="m17.41 23c-1.6416-0.5424-3.4331 0.1963-4.2151 1.7382s-0.3197 3.4238 1.0877 4.4278c1.4075 1.004 3.3374 0.8286 4.5407-0.4128l3.4252-4.0579c2.5256 0.8928 14.056 4.885 16.274 5.6884l-7.5494 12.155c-4.5076 7.3183-13.912 9.8961-21.521 5.8989-7.6091-3.9971-10.823-13.204-7.3552-21.068 3.4681-7.8643 12.434-11.7 20.517-8.7772l24.849 8.7587c2.4732 0.8532 5.1842-0.3587 6.1979-2.7706 1.0137-2.4119-0.01768-5.1966-2.3578-6.3664-2.3402-1.1698-5.1865-0.3234-6.5074 1.9349l-3.1639 5.1183c-2.0439-0.692-12.966-4.5219-15.32-5.3843l11.662-13.868c5.5235-6.0357 14.658-7.0585 21.38-2.3939 6.7216 4.6646 8.9596 13.58 5.2381 20.866-3.7216 7.2862-12.256 10.699-19.976 7.9878z" fill="#00000000" stroke="#000" stroke-width="1.4111" style="fill:#fff;stroke:#56595b"/>
  </clipPath>
  <clipPath id="clipPath49">
   <path d="m17.41 23c-1.6416-0.5424-3.4331 0.1963-4.2151 1.7382s-0.3197 3.4238 1.0877 4.4278c1.4075 1.004 3.3374 0.8286 4.5407-0.4128l3.4252-4.0579c2.5256 0.8928 14.056 4.885 16.274 5.6884l-7.5494 12.155c-4.5076 7.3183-13.912 9.8961-21.521 5.8989-7.6091-3.9971-10.823-13.204-7.3552-21.068 3.4681-7.8643 12.434-11.7 20.517-8.7772l24.849 8.7587c2.4732 0.8532 5.1842-0.3587 6.1979-2.7706 1.0137-2.4119-0.01768-5.1966-2.3578-6.3664-2.3402-1.1698-5.1865-0.3234-6.5074 1.9349l-3.1639 5.1183c-2.0439-0.692-12.966-4.5219-15.32-5.3843l11.662-13.868c5.5235-6.0357 14.658-7.0585 21.38-2.3939 6.7216 4.6646 8.9596 13.58 5.2381 20.866-3.7216 7.2862-12.256 10.699-19.976 7.9878z" fill="#00000000" stroke="#000" stroke-width="1.4111" style="fill:#fff;stroke:#56595b"/>
  </clipPath>
  <clipPath id="clipPath50">
   <path d="m17.41 23c-1.6416-0.5424-3.4331 0.1963-4.2151 1.7382s-0.3197 3.4238 1.0877 4.4278c1.4075 1.004 3.3374 0.8286 4.5407-0.4128l3.4252-4.0579c2.5256 0.8928 14.056 4.885 16.274 5.6884l-7.5494 12.155c-4.5076 7.3183-13.912 9.8961-21.521 5.8989-7.6091-3.9971-10.823-13.204-7.3552-21.068 3.4681-7.8643 12.434-11.7 20.517-8.7772l24.849 8.7587c2.4732 0.8532 5.1842-0.3587 6.1979-2.7706 1.0137-2.4119-0.01768-5.1966-2.3578-6.3664-2.3402-1.1698-5.1865-0.3234-6.5074 1.9349l-3.1639 5.1183c-2.0439-0.692-12.966-4.5219-15.32-5.3843l11.662-13.868c5.5235-6.0357 14.658-7.0585 21.38-2.3939 6.7216 4.6646 8.9596 13.58 5.2381 20.866-3.7216 7.2862-12.256 10.699-19.976 7.9878z" fill="#00000000" stroke="#000" stroke-width="1.4111" style="fill:#fff;stroke:#56595b"/>
  </clipPath>
  <clipPath id="clipPath51">
   <path d="m17.41 23c-1.6416-0.5424-3.4331 0.1963-4.2151 1.7382s-0.3197 3.4238 1.0877 4.4278c1.4075 1.004 3.3374 0.8286 4.5407-0.4128l3.4252-4.0579c2.5256 0.8928 14.056 4.885 16.274 5.6884l-7.5494 12.155c-4.5076 7.3183-13.912 9.8961-21.521 5.8989-7.6091-3.9971-10.823-13.204-7.3552-21.068 3.4681-7.8643 12.434-11.7 20.517-8.7772l24.849 8.7587c2.4732 0.8532 5.1842-0.3587 6.1979-2.7706 1.0137-2.4119-0.01768-5.1966-2.3578-6.3664-2.3402-1.1698-5.1865-0.3234-6.5074 1.9349l-3.1639 5.1183c-2.0439-0.692-12.966-4.5219-15.32-5.3843l11.662-13.868c5.5235-6.0357 14.658-7.0585 21.38-2.3939 6.7216 4.6646 8.9596 13.58 5.2381 20.866-3.7216 7.2862-12.256 10.699-19.976 7.9878z" fill="#00000000" stroke="#000" stroke-width="1.4111" style="fill:#fff;stroke:#56595b"/>
  </clipPath>
  <clipPath id="clipPath52">
   <path d="m17.41 23c-1.6416-0.5424-3.4331 0.1963-4.2151 1.7382s-0.3197 3.4238 1.0877 4.4278c1.4075 1.004 3.3374 0.8286 4.5407-0.4128l3.4252-4.0579c2.5256 0.8928 14.056 4.885 16.274 5.6884l-7.5494 12.155c-4.5076 7.3183-13.912 9.8961-21.521 5.8989-7.6091-3.9971-10.823-13.204-7.3552-21.068 3.4681-7.8643 12.434-11.7 20.517-8.7772l24.849 8.7587c2.4732 0.8532 5.1842-0.3587 6.1979-2.7706 1.0137-2.4119-0.01768-5.1966-2.3578-6.3664-2.3402-1.1698-5.1865-0.3234-6.5074 1.9349l-3.1639 5.1183c-2.0439-0.692-12.966-4.5219-15.32-5.3843l11.662-13.868c5.5235-6.0357 14.658-7.0585 21.38-2.3939 6.7216 4.6646 8.9596 13.58 5.2381 20.866-3.7216 7.2862-12.256 10.699-19.976 7.9878z" fill="#00000000" stroke="#000" stroke-width="1.4111" style="fill:#fff;stroke:#56595b"/>
  </clipPath>
  <clipPath id="clipPath53">
   <path d="m17.41 23c-1.6416-0.5424-3.4331 0.1963-4.2151 1.7382s-0.3197 3.4238 1.0877 4.4278c1.4075 1.004 3.3374 0.8286 4.5407-0.4128l3.4252-4.0579c2.5256 0.8928 14.056 4.885 16.274 5.6884l-7.5494 12.155c-4.5076 7.3183-13.912 9.8961-21.521 5.8989-7.6091-3.9971-10.823-13.204-7.3552-21.068 3.4681-7.8643 12.434-11.7 20.517-8.7772l24.849 8.7587c2.4732 0.8532 5.1842-0.3587 6.1979-2.7706 1.0137-2.4119-0.01768-5.1966-2.3578-6.3664-2.3402-1.1698-5.1865-0.3234-6.5074 1.9349l-3.1639 5.1183c-2.0439-0.692-12.966-4.5219-15.32-5.3843l11.662-13.868c5.5235-6.0357 14.658-7.0585 21.38-2.3939 6.7216 4.6646 8.9596 13.58 5.2381 20.866-3.7216 7.2862-12.256 10.699-19.976 7.9878z" fill="#00000000" stroke="#000" stroke-width="1.4111" style="fill:#fff;stroke:#56595b"/>
  </clipPath>
  <clipPath id="clipPath54">
   <path d="m17.41 23c-1.6416-0.5424-3.4331 0.1963-4.2151 1.7382s-0.3197 3.4238 1.0877 4.4278c1.4075 1.004 3.3374 0.8286 4.5407-0.4128l3.4252-4.0579c2.5256 0.8928 14.056 4.885 16.274 5.6884l-7.5494 12.155c-4.5076 7.3183-13.912 9.8961-21.521 5.8989-7.6091-3.9971-10.823-13.204-7.3552-21.068 3.4681-7.8643 12.434-11.7 20.517-8.7772l24.849 8.7587c2.4732 0.8532 5.1842-0.3587 6.1979-2.7706 1.0137-2.4119-0.01768-5.1966-2.3578-6.3664-2.3402-1.1698-5.1865-0.3234-6.5074 1.9349l-3.1639 5.1183c-2.0439-0.692-12.966-4.5219-15.32-5.3843l11.662-13.868c5.5235-6.0357 14.658-7.0585 21.38-2.3939 6.7216 4.6646 8.9596 13.58 5.2381 20.866-3.7216 7.2862-12.256 10.699-19.976 7.9878z" fill="#00000000" stroke="#000" stroke-width="1.4111" style="fill:#fff;stroke:#56595b"/>
  </clipPath>
  <clipPath id="clipPath55">
   <path d="m17.41 23c-1.6416-0.5424-3.4331 0.1963-4.2151 1.7382s-0.3197 3.4238 1.0877 4.4278c1.4075 1.004 3.3374 0.8286 4.5407-0.4128l3.4252-4.0579c2.5256 0.8928 14.056 4.885 16.274 5.6884l-7.5494 12.155c-4.5076 7.3183-13.912 9.8961-21.521 5.8989-7.6091-3.9971-10.823-13.204-7.3552-21.068 3.4681-7.8643 12.434-11.7 20.517-8.7772l24.849 8.7587c2.4732 0.8532 5.1842-0.3587 6.1979-2.7706 1.0137-2.4119-0.01768-5.1966-2.3578-6.3664-2.3402-1.1698-5.1865-0.3234-6.5074 1.9349l-3.1639 5.1183c-2.0439-0.692-12.966-4.5219-15.32-5.3843l11.662-13.868c5.5235-6.0357 14.658-7.0585 21.38-2.3939 6.7216 4.6646 8.9596 13.58 5.2381 20.866-3.7216 7.2862-12.256 10.699-19.976 7.9878z" fill="#00000000" stroke="#000" stroke-width="1.4111" style="fill:#fff;stroke:#56595b"/>
  </clipPath>
  <clipPath id="clipPath56">
   <path d="m17.41 23c-1.6416-0.5424-3.4331 0.1963-4.2151 1.7382s-0.3197 3.4238 1.0877 4.4278c1.4075 1.004 3.3374 0.8286 4.5407-0.4128l3.4252-4.0579c2.5256 0.8928 14.056 4.885 16.274 5.6884l-7.5494 12.155c-4.5076 7.3183-13.912 9.8961-21.521 5.8989-7.6091-3.9971-10.823-13.204-7.3552-21.068 3.4681-7.8643 12.434-11.7 20.517-8.7772l24.849 8.7587c2.4732 0.8532 5.1842-0.3587 6.1979-2.7706 1.0137-2.4119-0.01768-5.1966-2.3578-6.3664-2.3402-1.1698-5.1865-0.3234-6.5074 1.9349l-3.1639 5.1183c-2.0439-0.692-12.966-4.5219-15.32-5.3843l11.662-13.868c5.5235-6.0357 14.658-7.0585 21.38-2.3939 6.7216 4.6646 8.9596 13.58 5.2381 20.866-3.7216 7.2862-12.256 10.699-19.976 7.9878z" fill="#00000000" stroke="#000" stroke-width="1.4111" style="fill:#fff;stroke:#56595b"/>
  </clipPath>
  <clipPath id="clipPath57">
   <path d="m17.41 23c-1.6416-0.5424-3.4331 0.1963-4.2151 1.7382s-0.3197 3.4238 1.0877 4.4278c1.4075 1.004 3.3374 0.8286 4.5407-0.4128l3.4252-4.0579c2.5256 0.8928 14.056 4.885 16.274 5.6884l-7.5494 12.155c-4.5076 7.3183-13.912 9.8961-21.521 5.8989-7.6091-3.9971-10.823-13.204-7.3552-21.068 3.4681-7.8643 12.434-11.7 20.517-8.7772l24.849 8.7587c2.4732 0.8532 5.1842-0.3587 6.1979-2.7706 1.0137-2.4119-0.01768-5.1966-2.3578-6.3664-2.3402-1.1698-5.1865-0.3234-6.5074 1.9349l-3.1639 5.1183c-2.0439-0.692-12.966-4.5219-15.32-5.3843l11.662-13.868c5.5235-6.0357 14.658-7.0585 21.38-2.3939 6.7216 4.6646 8.9596 13.58 5.2381 20.866-3.7216 7.2862-12.256 10.699-19.976 7.9878z" fill="#00000000" stroke="#000" stroke-width="1.4111" style="fill:#fff;stroke:#56595b"/>
  </clipPath>
  <clipPath id="clipPath58">
   <path d="m17.41 23c-1.6416-0.5424-3.4331 0.1963-4.2151 1.7382s-0.3197 3.4238 1.0877 4.4278c1.4075 1.004 3.3374 0.8286 4.5407-0.4128l3.4252-4.0579c2.5256 0.8928 14.056 4.885 16.274 5.6884l-7.5494 12.155c-4.5076 7.3183-13.912 9.8961-21.521 5.8989-7.6091-3.9971-10.823-13.204-7.3552-21.068 3.4681-7.8643 12.434-11.7 20.517-8.7772l24.849 8.7587c2.4732 0.8532 5.1842-0.3587 6.1979-2.7706 1.0137-2.4119-0.01768-5.1966-2.3578-6.3664-2.3402-1.1698-5.1865-0.3234-6.5074 1.9349l-3.1639 5.1183c-2.0439-0.692-12.966-4.5219-15.32-5.3843l11.662-13.868c5.5235-6.0357 14.658-7.0585 21.38-2.3939 6.7216 4.6646 8.9596 13.58 5.2381 20.866-3.7216 7.2862-12.256 10.699-19.976 7.9878z" fill="#00000000" stroke="#000" stroke-width="1.4111" style="fill:#fff;stroke:#56595b"/>
  </clipPath>
 </defs>
 <rect class="a" x="20" y="20" width="152" height="152" rx="10" style="fill:#98dc9a"/>
 <g transform="matrix(1.1536 0 0 1.1536 57.306 66.573)">
  <g>
   <g stroke="#00000000">
    <path d="m17.41 23c-1.6416-0.5424-3.4331 0.1963-4.2151 1.7382s-0.3197 3.4238 1.0877 4.4278c1.4075 1.004 3.3374 0.8286 4.5407-0.4128l3.4252-4.0579c2.5256 0.8928 14.056 4.885 16.274 5.6884l-7.5494 12.155c-4.5076 7.3183-13.912 9.8961-21.522 5.8989-7.6091-3.9971-10.823-13.204-7.3552-21.068 3.4681-7.8643 12.434-11.7 20.517-8.7772l24.849 8.7587c2.4732 0.8532 5.1842-0.3587 6.1979-2.7706s-0.0177-5.1966-2.3578-6.3664c-2.3402-1.1698-5.1865-0.3234-6.5074 1.9349l-3.1639 5.1183c-2.0439-0.692-12.966-4.5219-15.32-5.3843l11.662-13.868c5.5235-6.0357 14.658-7.0585 21.38-2.3939s8.9596 13.58 5.2381 20.866c-3.7216 7.2862-12.256 10.699-19.976 7.9878z" fill="#e1e1e1" stroke-width="1.4111" style="fill:#fff"/>
    <path d="m1.2964 35.997s-0.2899-4.6509 4.6546-10.131c4.3532-4.8245 10.331-7.1408 14.694-5.6585 9.8066 3.3316 17.166 6.3716 26.467 9.218 1.8346 0.5614 4.4437 0.6685 6.1149-0.6389 0.8771-0.6861 1.8276-2.2619 1.7341-4.107-0.1281-2.5277-2.0991-5.5673-2.0991-5.5673l1.0952 4.1983-1.1865 2.9206-3.6507 1.6428-28.749-10.039-6.6625-0.1825-5.6585 2.3729-3.5594 3.0118-2.5555 4.7459-1.0952 5.0197z" fill="#fffdfd" fill-rule="evenodd" stroke-width=".26458"/>
    <path d="m32.47 21.975c4.2266-5.4082 8.1539-10.505 9.9877-12.08 2.4925-2.141 5.8907-2.7548 8.7616-2.738 2.7538 0.0161 5.5226 0.963 7.9402 2.2817 1.7035 0.9291 3.2084 2.2871 4.3808 3.8332 1.3648 1.7999 2.9205 6.1149 2.9205 6.1149l-0.5476-6.6625-2.2817-5.0197-4.0157-4.1983-5.5673-2.3729-7.1188-0.3651-5.7498 2.5555-4.6546 3.8332-10.366 12.622zm-10.386 2.7656-3.1731 3.8636-1.6428 1.1865-3.2856-0.7301-0.8214-1.2777 0.0913-2.8293s-1.5935 1.0983-1.6428 4.9284c-0.0239 1.8596 0.3739 3.8753 1.4603 5.3847 0.8329 1.1574 2.0941 2.1904 3.4681 2.1904 1.7341 0 3.0902-0.4876 4.1983-1.4603 3.0573-2.6835 5.4942-6.1577 7.8328-9.0764z" fill="#fffdfd" fill-rule="evenodd" stroke-width=".26458"/>
   </g>
   <path d="m17.41 23c-1.6416-0.5424-3.4331 0.1963-4.2151 1.7382s-0.3197 3.4238 1.0877 4.4278c1.4075 1.004 3.3374 0.8286 4.5407-0.4128l3.4252-4.0579c2.5256 0.8928 14.056 4.885 16.274 5.6884l-7.5494 12.155c-4.5076 7.3183-13.912 9.8961-21.522 5.8989-7.6091-3.9971-10.823-13.204-7.3552-21.068 3.4681-7.8643 12.434-11.7 20.517-8.7772l24.849 8.7587c2.4732 0.8532 5.1842-0.3587 6.1979-2.7706s-0.0177-5.1966-2.3578-6.3664c-2.3402-1.1698-5.1865-0.3234-6.5074 1.9349l-3.1639 5.1183c-2.0439-0.692-12.966-4.5219-15.32-5.3843l11.662-13.868c5.5235-6.0357 14.658-7.0585 21.38-2.3939s8.9596 13.58 5.2381 20.866c-3.7216 7.2862-12.256 10.699-19.976 7.9878z" fill="#00000000" stroke="#000" stroke-width="1.4111" style="fill:#fff;stroke:#56595b"/>
  </g>
  <g clip-path="url(#clipPath58)" style="fill:none;stroke:#56595b">
   <path d="m16.075 26.296-16.611 13.506" fill="#00000000" fill-rule="evenodd" stroke="#000" stroke-width=".70556" style="fill:none;stroke:#56595b"/>
  </g>
  <g clip-path="url(#clipPath57)" style="fill:none;stroke:#56595b">
   <path d="m9.5648 18.568 6.1221 7.5294" fill="#00000000" fill-rule="evenodd" stroke="#000" stroke-width=".70556" style="fill:none;stroke:#56595b"/>
  </g>
  <g clip-path="url(#clipPath56)" style="fill:none;stroke:#56595b">
   <path d="m16.03 26.131-8.6893 22.772" fill="#00000000" fill-rule="evenodd" stroke="#000" stroke-width=".70556" style="fill:none;stroke:#56595b"/>
  </g>
  <g clip-path="url(#clipPath55)" style="fill:none;stroke:#56595b">
   <path d="m19.853 50.736-5.5147-34.376" fill="#00000000" fill-rule="evenodd" stroke="#000" stroke-width=".70556" style="fill:none;stroke:#56595b"/>
  </g>
  <g clip-path="url(#clipPath54)" style="fill:none;stroke:#56595b">
   <path d="m3.0406 21.482 13.289 5.0707" fill="#00000000" fill-rule="evenodd" stroke="#000" stroke-width=".70556" style="fill:none;stroke:#56595b"/>
  </g>
  <g clip-path="url(#clipPath53)" style="fill:none;stroke:#56595b">
   <path d="m-0.6096 29.081 16.436-2.6367" fill="#00000000" fill-rule="evenodd" stroke="#000" stroke-width=".70556" style="fill:none;stroke:#56595b"/>
  </g>
  <g clip-path="url(#clipPath52)" style="fill:none;stroke:#56595b">
   <path d="m65.577 9.3809-16.063 13.425" fill="#00000000" fill-rule="evenodd" stroke="#000" stroke-width=".70556" style="fill:none;stroke:#56595b"/>
  </g>
  <g clip-path="url(#clipPath51)" style="fill:none;stroke:#56595b">
   <path d="m36.14 6.7555 21.948 26.261" fill="#00000000" fill-rule="evenodd" stroke="#000" stroke-width=".70556" style="fill:none;stroke:#56595b"/>
  </g>
  <g clip-path="url(#clipPath50)" style="fill:none;stroke:#56595b">
   <path d="m57.372 1.4436-8.5803 23.431" fill="#00000000" fill-rule="evenodd" stroke="#000" stroke-width=".70556" style="fill:none;stroke:#56595b"/>
  </g>
  <g clip-path="url(#clipPath49)" style="fill:none;stroke:#56595b">
   <path d="m51.513 34.148-5.7721-33.114" fill="#00000000" fill-rule="evenodd" stroke="#000" stroke-width=".70556" style="fill:none;stroke:#56595b"/>
  </g>
  <g clip-path="url(#clipPath48)" style="fill:none;stroke:#56595b">
   <path d="m48.66 22.483 15.692 5.7461" fill="#00000000" fill-rule="evenodd" stroke="#000" stroke-width=".70556" style="fill:none;stroke:#56595b"/>
  </g>
  <g clip-path="url(#clipPath47)" style="fill:none;stroke:#56595b">
   <path d="m49.283 22.817 22.374-3.9" fill="#00000000" fill-rule="evenodd" stroke="#000" stroke-width=".70556" style="fill:none;stroke:#56595b"/>
  </g>
  <g clip-path="url(#clipPath46)" style="fill:none;stroke:#56595b">
   <path d="m29.92 45.335-11.236-17.587" fill="#00000000" fill-rule="evenodd" stroke="#000" stroke-width=".70556" style="fill:none;stroke:#56595b"/>
  </g>
  <g clip-path="url(#clipPath45)" style="fill:none;stroke:#56595b">
   <path d="m38.36 31.92-2.1843-2.4606" fill="#00000000" fill-rule="evenodd" stroke="#000" stroke-width=".70556" style="fill:none;stroke:#56595b"/>
  </g>
  <g clip-path="url(#clipPath44)" style="fill:none;stroke:#56595b">
   <path d="m24.762 25.609 9.765 12.867" fill="#00000000" fill-rule="evenodd" stroke="#000" stroke-width=".70556" style="fill:none;stroke:#56595b"/>
  </g>
  <g clip-path="url(#clipPath43)" style="fill:none;stroke:#56595b">
   <path d="m31.261 11.446 12.41 11.69" fill="#00000000" fill-rule="evenodd" stroke="#000" stroke-width=".70556" style="fill:none;stroke:#56595b"/>
  </g>
  <g clip-path="url(#clipPath42)" style="fill:none;stroke:#56595b">
   <path d="m27.606 15.448 7.1849 7.4663" fill="#00000000" fill-rule="evenodd" stroke="#000" stroke-width=".70556" style="fill:none;stroke:#56595b"/>
  </g>
  <g clip-path="url(#clipPath41)" style="fill:none;stroke:#56595b">
   <path d="m22.685 18.405-2.2146 6.0783" fill="#00000000" fill-rule="evenodd" stroke="#000" stroke-width=".70556" style="fill:none;stroke:#56595b"/>
  </g>
  <g clip-path="url(#clipPath40)" style="fill:none;stroke:#56595b">
   <path d="m44.093 26.275-1.9711 5.41" fill="#00000000" fill-rule="evenodd" stroke="#000" stroke-width=".70556" style="fill:none;stroke:#56595b"/>
  </g>
  <g clip-path="url(#clipPath39)" style="fill:none;stroke:#56595b">
   <path d="m37.029 23.456-2.1398 5.873" fill="#00000000" fill-rule="evenodd" stroke="#000" stroke-width=".70556" style="fill:none;stroke:#56595b"/>
  </g>
  <g clip-path="url(#clipPath38)" style="fill:none;stroke:#56595b">
   <path d="m29.882 20.865-2.1929 6.0188" fill="#00000000" fill-rule="evenodd" stroke="#000" stroke-width=".70556" style="fill:none;stroke:#56595b"/>
  </g>
  <g clip-path="url(#clipPath37)" style="fill:none;stroke:#56595b">
   <path d="m45.857 33.037 1.993-5.8447" fill="#00000000" fill-rule="evenodd" stroke="#000" stroke-width=".70556" style="fill:none;stroke:#56595b"/>
  </g>
  <g clip-path="url(#clipPath36)" style="fill:none;stroke:#56595b">
   <path d="m40.641 24.651-2.1109 5.7936" fill="#00000000" fill-rule="evenodd" stroke="#000" stroke-width=".70556" style="fill:none;stroke:#56595b"/>
  </g>
  <g clip-path="url(#clipPath35)" style="fill:none;stroke:#56595b">
   <path d="m33.462 22.144-2.1398 5.873" fill="#00000000" fill-rule="evenodd" stroke="#000" stroke-width=".70556" style="fill:none;stroke:#56595b"/>
  </g>
  <g clip-path="url(#clipPath34)" style="fill:none;stroke:#56595b">
   <path d="m19.032 17.324-2.1271 5.8383" fill="#00000000" fill-rule="evenodd" stroke="#000" stroke-width=".70556" style="fill:none;stroke:#56595b"/>
  </g>
  <g clip-path="url(#clipPath33)" style="fill:none;stroke:#56595b">
   <path d="m26.254 19.716-2.1064 5.7813" fill="#00000000" fill-rule="evenodd" stroke="#000" stroke-width=".70556" style="fill:none;stroke:#56595b"/>
  </g>
  <g clip-path="url(#clipPath32)" style="fill:none;stroke:#56595b">
   <path d="m28.212 20.496-2.3649-2.664" fill="#00000000" fill-rule="evenodd" stroke="#000" stroke-width=".70556" style="fill:none;stroke:#56595b"/>
  </g>
 </g>
</svg>
