<?xml version="1.0" encoding="UTF-8"?>
<svg version="1.1" viewBox="0 0 192 192" xmlns="http://www.w3.org/2000/svg" xmlns:xlink="http://www.w3.org/1999/xlink">
 <defs>
  <linearGradient id="linearGradient21">
   <stop style="stop-color:#f9de81" offset="0"/>
   <stop style="stop-color:#f9de81" offset="1"/>
  </linearGradient>
  <linearGradient id="linearGradient18" x1="-286.54" x2="-248.1" y1="78.334" y2="3.6475" gradientTransform="matrix(.38304 0 0 .38304 162.43 65.995)" gradientUnits="userSpaceOnUse">
   <stop style="stop-color:#ff837d" offset="0"/>
   <stop style="stop-color:#f9de81" offset="1"/>
  </linearGradient>
  <linearGradient id="linearGradient22" x1="-173.42" x2="-99.286" y1="-34.789" y2="3.1182" gradientTransform="matrix(.38304 0 0 .38304 162.43 65.995)" gradientUnits="userSpaceOnUse" xlink:href="#linearGradient21"/>
  <linearGradient id="linearGradient24" x1="-60.295" x2="-98.73" y1="78.334" y2="153.02" gradientTransform="matrix(.38304 0 0 .38304 162.43 65.995)" gradientUnits="userSpaceOnUse">
   <stop style="stop-color:#ff837d" offset="0"/>
   <stop style="stop-color:#9abeff" offset="1"/>
  </linearGradient>
  <linearGradient id="linearGradient26" x1="-173.42" x2="-248.63" y1="191.46" y2="152.46" gradientTransform="matrix(.38304 0 0 .38304 162.43 65.995)" gradientUnits="userSpaceOnUse">
   <stop style="stop-color:#9abeff" offset="0"/>
   <stop style="stop-color:#9abeff" offset="1"/>
  </linearGradient>
  <linearGradient id="linearGradient28" x1="-98.73" x2="-173.42" y1="153.02" y2="191.46" gradientTransform="matrix(.38304 0 0 .38304 162.43 65.995)" gradientUnits="userSpaceOnUse">
   <stop style="stop-color:#9abeff" offset="0"/>
   <stop style="stop-color:#9abeff" offset="1"/>
  </linearGradient>
  <linearGradient id="linearGradient30" x1="-248.63" x2="-286.54" y1="152.46" y2="78.334" gradientTransform="matrix(.38304 0 0 .38304 162.43 65.995)" gradientUnits="userSpaceOnUse">
   <stop style="stop-color:#9abeff" offset="0"/>
   <stop style="stop-color:#ff837d" offset="1"/>
  </linearGradient>
  <linearGradient id="linearGradient33" x1="-99.286" x2="-60.309" y1="3.1182" y2="77.791" gradientTransform="matrix(.38304 0 0 .38304 162.43 65.995)" gradientUnits="userSpaceOnUse">
   <stop style="stop-color:#f9de81" offset="0"/>
   <stop style="stop-color:#ff837d" offset="1"/>
  </linearGradient>
 </defs>
 <rect class="a" x="20" y="20" width="152" height="152" rx="10" style="fill:#54688c"/>
 <path d="m65.374 65.374c-7.8456 7.8456-12.704 18.678-12.704 30.627 0 11.843 4.7772 22.585 12.501 30.414l4.0376-4.0376c-6.6753-6.7801-10.793-16.086-10.793-26.376 0-10.396 4.1986-19.792 10.996-26.589z" style="-inkscape-stroke:none;color:#000000;fill:url(#linearGradient18)"/>
 <path d="m69.209 122.38-4.0376 4.0376c7.8615 7.9676 18.776 12.916 30.829 12.916 11.948 0 22.781-4.8585 30.626-12.704l-4.0369-4.0369c-6.7971 6.7971-16.193 10.995-26.589 10.995-10.502 0-19.979-4.2886-26.792-11.208z" style="-inkscape-stroke:none;color:#000000;fill:url(#linearGradient26);stroke-linecap:round;stroke-linejoin:round;stroke-width:.38304"/>
 <path d="m126.41 65.171-4.0376 4.0376c6.9198 6.8129 11.208 16.29 11.208 26.792 0 10.396-4.1981 19.792-10.995 26.589l4.0369 4.0369c7.8454-7.8454 12.704-18.678 12.704-30.626 0-12.054-4.9487-22.968-12.916-30.829z" style="-inkscape-stroke:none;color:#000000;fill:url(#linearGradient24);stroke-linecap:round;stroke-linejoin:round;stroke-width:.38304"/>
 <path d="m96 52.67c-11.948 0-22.781 4.8583-30.627 12.704l4.0376 4.0376c6.7973-6.7973 16.193-10.996 26.589-10.996 10.29 0 19.596 4.1178 26.376 10.793l4.0376-4.0376c-7.8283-7.7239-18.571-12.501-30.414-12.501z" style="-inkscape-stroke:none;color:#000000;fill:url(#linearGradient22);stroke-linecap:round;stroke-linejoin:round;stroke-width:.38304"/>
 <path d="m122.59 122.59c-6.7971 6.7971-16.193 10.995-26.589 10.995-0.06977 0-0.13829-5e-3 -0.20798-5e-3v5.7456c0.06966 3.3e-4 0.13824 5e-3 0.20798 5e-3 11.948 0 22.781-4.8585 30.626-12.704z" style="-inkscape-stroke:none;color:#000000;fill:url(#linearGradient28);stroke-linecap:round;stroke-linejoin:round;stroke-width:.38304"/>
 <path d="m52.675 95.792c-3.29e-4 0.0697-0.0052 0.13822-0.0052 0.20798 0 11.843 4.7772 22.585 12.501 30.414l4.0376-4.0376c-6.6753-6.7801-10.793-16.086-10.793-26.376 0-0.0698 0.0049-0.1383 0.0052-0.20798z" style="-inkscape-stroke:none;color:#000000;fill:url(#linearGradient30)"/>
 <path d="m96 52.67c-0.06976 0-0.1383 5e-3 -0.20798 5e-3v5.7456c0.06968-3.7e-4 0.13821-5e-3 0.20798-5e-3 10.29 0 19.596 4.1179 26.376 10.793l4.0376-4.0376c-7.8282-7.7239-18.571-12.501-30.414-12.501z" style="-inkscape-stroke:none;color:#000000;fill:url(#linearGradient22);stroke-linecap:round;stroke-linejoin:round;stroke-width:.38304"/>
 <path d="m126.41 65.171-4.0376 4.0376c6.8739 6.7676 11.147 16.165 11.203 26.584h5.7456c-0.0569-11.971-4.9896-22.806-12.911-30.621z" style="-inkscape-stroke:none;color:#000000;fill:url(#linearGradient33);stroke-linecap:round;stroke-linejoin:round;stroke-width:.38304"/>
 <g transform="matrix(1.1928 0 0 1.1928 -18.508 -5.8449)" fill="#fff" style="fill:#fff">
  <g style="fill:#fff" aria-label="JBL">
   <path d="m86.487 75.265h-3.261v14.607c0 1.563-1.032 2.63-2.43 2.63-1.264 0-2.228-0.9-2.362-2.265h-3.307c0.366 2.729 2.441 5.26 5.67 5.26 3.56 0 5.69-1.998 5.69-5.226zm14.94 9.85c1.63-0.799 2.662-2.296 2.662-4.426 0-3.294-2.562-5.423-5.757-5.423h-7.852v19.964h8.585c3.161 0 5.69-2.063 5.69-5.357 0-2.429-1.364-4.026-3.327-4.758zm-0.6-4.093c0 1.564-1.297 2.795-2.86 2.795h-4.26v-5.523h4.26c1.563 0 2.86 1.131 2.86 2.728zm-2.229 11.18h-4.891v-5.522h4.891c1.597 0 2.895 1.231 2.895 2.795s-1.298 2.729-2.895 2.729zm12.873 4e-3v-16.936h-3.26v19.965h10.281v-3.028z" style="fill:#fff"/>
  </g>
  <circle cx="76.202" cy="86.835" r="1.522" stroke="#fff" stroke-linecap="round" stroke-linejoin="round" stroke-width=".125" style="fill:#fff"/>
  <path transform="matrix(1.2435,0,0,1.6523,-21.286,-73.578)" d="m78.4 95.435-2.123-3.677h4.246z" stroke="#fff" stroke-linecap="round" stroke-linejoin="round" stroke-width=".1" style="fill:#fff"/>
 </g>
 <path d="m65.374 65.374c-7.8456 7.8456-12.704 18.678-12.704 30.627 0 11.843 4.7772 22.585 12.501 30.414l4.0376-4.0376c-6.6753-6.7801-10.793-16.086-10.793-26.376 0-10.396 4.1986-19.792 10.996-26.589z" style="-inkscape-stroke:none;color:#000000;fill:url(#linearGradient18)"/>
 <path d="m69.209 122.38-4.0376 4.0376c7.8615 7.9676 18.776 12.916 30.829 12.916 11.948 0 22.781-4.8585 30.626-12.704l-4.0369-4.0369c-6.7971 6.7971-16.193 10.995-26.589 10.995-10.502 0-19.979-4.2886-26.792-11.208z" style="-inkscape-stroke:none;color:#000000;fill:url(#linearGradient26);stroke-linecap:round;stroke-linejoin:round;stroke-width:.38304"/>
 <path d="m126.41 65.171-4.0376 4.0376c6.9198 6.8129 11.208 16.29 11.208 26.792 0 10.396-4.1981 19.792-10.995 26.589l4.0369 4.0369c7.8454-7.8454 12.704-18.678 12.704-30.626 0-12.054-4.9487-22.968-12.916-30.829z" style="-inkscape-stroke:none;color:#000000;fill:url(#linearGradient24);stroke-linecap:round;stroke-linejoin:round;stroke-width:.38304"/>
 <path d="m96 52.67c-11.948 0-22.781 4.8583-30.627 12.704l4.0376 4.0376c6.7973-6.7973 16.193-10.996 26.589-10.996 10.29 0 19.596 4.1178 26.376 10.793l4.0376-4.0376c-7.8283-7.7239-18.571-12.501-30.414-12.501z" style="-inkscape-stroke:none;color:#000000;fill:url(#linearGradient22);stroke-linecap:round;stroke-linejoin:round;stroke-width:.38304"/>
 <path d="m122.59 122.59c-6.7971 6.7971-16.193 10.995-26.589 10.995-0.06977 0-0.13829-5e-3 -0.20798-5e-3v5.7456c0.06966 3.3e-4 0.13824 5e-3 0.20798 5e-3 11.948 0 22.781-4.8585 30.626-12.704z" style="-inkscape-stroke:none;color:#000000;fill:url(#linearGradient28);stroke-linecap:round;stroke-linejoin:round;stroke-width:.38304"/>
 <path d="m52.675 95.792c-3.29e-4 0.0697-0.0052 0.13822-0.0052 0.20798 0 11.843 4.7772 22.585 12.501 30.414l4.0376-4.0376c-6.6753-6.7801-10.793-16.086-10.793-26.376 0-0.0698 0.0049-0.1383 0.0052-0.20798z" style="-inkscape-stroke:none;color:#000000;fill:url(#linearGradient30)"/>
 <path d="m96 52.67c-0.06976 0-0.1383 5e-3 -0.20798 5e-3v5.7456c0.06968-3.7e-4 0.13821-5e-3 0.20798-5e-3 10.29 0 19.596 4.1179 26.376 10.793l4.0376-4.0376c-7.8282-7.7239-18.571-12.501-30.414-12.501z" style="-inkscape-stroke:none;color:#000000;fill:url(#linearGradient22);stroke-linecap:round;stroke-linejoin:round;stroke-width:.38304"/>
 <path d="m126.41 65.171-4.0376 4.0376c6.8739 6.7676 11.147 16.165 11.203 26.584h5.7456c-0.0569-11.971-4.9896-22.806-12.911-30.621z" style="-inkscape-stroke:none;color:#000000;fill:url(#linearGradient33);stroke-linecap:round;stroke-linejoin:round;stroke-width:.38304"/>
</svg>
