<?xml version="1.0" encoding="UTF-8"?>
<svg id="a" version="1.1" viewBox="0 0 192 192" xmlns="http://www.w3.org/2000/svg" xmlns:xlink="http://www.w3.org/1999/xlink"><defs><linearGradient id="b" x1="33.775" x2="158.23" y1="158.23" y2="33.775" gradientUnits="userSpaceOnUse"><stop style="stop-color:#9abeff" offset="0"/><stop style="stop-color:#728dbe" offset="1"/></linearGradient></defs><path d="m96 184c-9.5147-16.48-26.553-29.254-36.5-34.182-30.822-15.271-45.813-52.262-36.91-85.488s39.012-56.33 73.41-56.33c34.398 1.6e-6 64.508 23.104 73.41 56.33 8.9029 33.226-6.0881 70.217-36.91 85.488-9.9465 4.9281-26.985 17.702-36.5 34.182z" style="fill:url(#b)"/><circle cx="129" cy="47.5" r="13" style="fill:none;stroke-width:14;stroke:#fff"/><path d="m65 40.329v66.178c0 4.772 1.8964 9.3504 5.2721 12.726 3.3757 3.3757 8.054 5.2721 12.828 5.2721h45.527" style="fill:none;stroke-width:24;stroke:#fff"/><path d="m133.22 65.176c-32.102 14.516-68.235 19.351-68.235 19.351" style="fill:none;stroke-width:22;stroke:#fff"/></svg>
