<?xml version="1.0" encoding="UTF-8" standalone="no"?>
<svg
   width="192"
   height="192"
   fill="none"
   version="1.1"
   id="svg14"
   sodipodi:docname="journie.svg"
   xml:space="preserve"
   inkscape:version="1.2.2 (b0a8486541, 2022-12-01)"
   inkscape:export-filename="journie.png"
   inkscape:export-xdpi="96"
   inkscape:export-ydpi="96"
   xmlns:inkscape="http://www.inkscape.org/namespaces/inkscape"
   xmlns:sodipodi="http://sodipodi.sourceforge.net/DTD/sodipodi-0.dtd"
   xmlns="http://www.w3.org/2000/svg"
   xmlns:svg="http://www.w3.org/2000/svg"><sodipodi:namedview
     id="namedview16"
     pagecolor="#505050"
     bordercolor="#eeeeee"
     borderopacity="1"
     inkscape:showpageshadow="0"
     inkscape:pageopacity="0"
     inkscape:pagecheckerboard="0"
     inkscape:deskcolor="#d1d1d1"
     showgrid="false"
     inkscape:zoom="0.86915212"
     inkscape:cx="-7.4785528"
     inkscape:cy="-58.102602"
     inkscape:window-width="1884"
     inkscape:window-height="1055"
     inkscape:window-x="36"
     inkscape:window-y="0"
     inkscape:window-maximized="1"
     inkscape:current-layer="svg14" /><defs
     id="defs12"><clipPath
       clipPathUnits="userSpaceOnUse"
       id="clipPath46205"><rect
         class="a"
         x="648.11224"
         y="2.029177e-07"
         width="239.99998"
         height="239.99998"
         rx="15.789473"
         id="rect46207"
         style="isolation:isolate;fill:#54688c;fill-opacity:1;stroke:none;stroke-width:1.57895;stroke-linecap:round;stroke-linejoin:round" /></clipPath></defs><style
     type="text/css"
     id="style3535">
	.st0{fill:url(#SVGID_1_);}
	.st1{fill:#FFFFFF;}
</style><rect
     class="a"
     x="20"
     y="20.000002"
     width="152"
     height="152"
     rx="10"
     id="rect52764"
     style="isolation:isolate;fill:#54688c;fill-opacity:1;stroke:none;stroke-width:1;stroke-linecap:round;stroke-linejoin:round" /><path
     style="fill:#ff837d;fill-opacity:1;stroke:none;stroke-width:1px;stroke-linecap:butt;stroke-linejoin:miter;stroke-opacity:1"
     d="M 708.33108,68.176917 616.81673,247.69649 721.69801,304.15164 815.80072,147.12314 794.30996,58.347374 Z"
     id="path57860"
     sodipodi:nodetypes="cccccc"
     clip-path="url(#clipPath46205)"
     transform="matrix(0.63333337,0,0,0.60032764,-390.47109,27.92138)" /><path
     id="path52768"
     style="isolation:isolate;fill:#f9de81;fill-opacity:1;stroke-width:0.472567;stroke-linecap:round;stroke-linejoin:round"
     class="a"
     d="m 96.000627,47.127229 c -10.931423,0 -21.862927,3.953079 -30.20332,11.858818 -16.680785,15.811483 -16.680779,41.445943 0,57.257423 l 30.20332,28.6293 30.202103,-28.6293 c 16.68073,-15.81148 16.68073,-41.44594 0,-57.257423 C 117.8623,51.080308 106.93205,47.127229 96.000627,47.127229 Z m 0.714976,19.217521 c 6.874327,0.189685 13.485387,3.50939 17.487167,8.831384 5.75808,7.27836 5.557,18.06171 -0.28203,25.241906 -5.76695,5.94431 -11.94504,11.53102 -17.923824,17.28756 -4.976341,-4.71774 -9.958034,-9.42953 -14.921676,-14.15929 -6.133302,-5.170109 -8.937994,-13.598694 -6.830602,-21.142796 2.210137,-9.031533 11.350867,-15.888769 21.092971,-16.054077 0.459933,-0.01549 0.919702,-0.01735 1.377994,-0.0048 z" /></svg>
