<?xml version="1.0" encoding="UTF-8"?>
<svg id="a" version="1.1" viewBox="0 0 192 192" xmlns="http://www.w3.org/2000/svg"><defs><style>.d{fill:none;stroke:#fff;stroke-linecap:round;stroke-linejoin:round;}</style><clipPath id="clipPath553"><path d="m9.8775 100.49 45.328 44.907a6.852 6.7884 0 009.3571.30867l26.613-23.071a7.3257 7.2581 0 019.6485 0l26.613 23.071a6.852 6.7884 0 009.357-.30867l45.328-44.907a6.4102 6.3507 0 000-8.9812l-45.328-44.907a6.852 6.7884 0 00-9.357-.30866l-26.613 23.071a7.3257 7.2581 0 01-9.6485 0l-26.613-23.071a6.852 6.7884 0 00-9.3571.30866l-45.328 44.907a6.4102 6.3507 0 000 8.9812z"/></clipPath></defs><path d="m8 93.007v66.993h176v-66.993z" clip-path="url(#clipPath553)" style="fill:#ff837d"/><path d="m8 139.14 51.737-46.132 42.304-.001804v-61.005h-94.041z" clip-path="url(#clipPath553)" style="fill:#f9de81"/><path d="m47.947 32 136.05 117.04v-117.04z" clip-path="url(#clipPath553)" style="fill:#98dc9a"/><path d="m102.04 78.535v14.472l81.959 65.971v-80.442z" clip-path="url(#clipPath553)" style="fill:#728dbe"/></svg>
