<?xml version="1.0" encoding="UTF-8"?>
<svg data-name="Layer 1" version="1.1" viewBox="0 0 192 192" xmlns="http://www.w3.org/2000/svg">
 <defs>
  <style>.cls-1 {
        fill: #fff;
      }

      .cls-2 {
        fill: #fcecdc;
      }

      .cls-3 {
        fill: #fdf5d9;
      }

      .cls-4 {
        fill: #c39a54;
      }

      .cls-5 {
        fill: #f9de81;
      }

      .cls-6 {
        fill: #f8c18c;
      }

      .cls-7 {
        fill: #8e6f60;
      }</style>
 </defs>
 <rect class="cls-6" x="20" y="20" width="152" height="152" rx="9.93" ry="9.93"/>
 <g transform="matrix(.72758 0 0 .72758 26.153 26.153)">
  <polygon class="cls-7" points="40.02 128.8 96 96.47 96 96.06 39.6 63.5 39.6 128.56"/>
  <polygon class="cls-3" points="152.4 63.5 96 96.06 96 96.47 151.98 128.8 152.4 128.56"/>
  <polygon class="cls-4" points="40.02 128.8 96 161.13 96 96.47"/>
  <polygon class="cls-5" points="96 161.13 151.98 128.8 96 96.47"/>
  <polygon class="cls-1" points="152.4 63.44 96 30.87 96 96.06 152.4 63.5"/>
  <polygon class="cls-2" points="96 96.06 96 30.87 39.6 63.44 39.6 63.5"/>
 </g>
</svg>
