<?xml version="1.0" encoding="UTF-8"?><svg id="a" xmlns="http://www.w3.org/2000/svg" width="192" height="192" viewBox="0 0 192 192"><defs><style>.d{fill:#728dbe;}.d,.e,.f{stroke-width:0px;}.e{fill:#ff837d;}.e,.f{fill-rule:evenodd;}.f{fill:#fff;}</style></defs><g id="b"><g id="c"><ellipse class="d" cx="96" cy="96" rx="88" ry="64"/><path class="e" d="m87.67,56.57l15.51-5.13.08,83.87-15.65,5.24.06-83.98"/><path class="f" d="m146,101.34c-1.46,12-8.19,24.12-22.88,24.14-8.58.02-15.28-5.86-19.92-13.04v-8.32c5.81,2.88,11.24,5.98,17.82,6.07,8.11.12,15.45-3,18.48-8.84h6.5,0Zm-49.12,7.53c-6.74,8.13-13.26,16.42-25.46,16.42-17.24,0-25.42-16.67-25.42-30.6s6.39-29.24,23.19-29.24c7.28,0,14.3,4.45,18.48,9.17v11.37c-3.5-2.35-11.33-4.66-16.43-4.74-10.65-.18-20.04,4.44-19.88,14.95.11,7.24,7.28,12.16,14.42,12.16,10.93,0,17.55-9.98,23.08-17.56,2.22-2.89,4.41-5.8,6.58-8.73,6.14-8.59,13.26-16.42,25.46-16.42,14.38,0,22.45,11.59,24.73,23.52h-6.5c-2.61-3.87-7.63-6.24-12.58-6.24-11.3,0-18.05,10.39-23.7,18.04l-5.99,7.91"/></g></g></svg>