<?xml version="1.0" encoding="UTF-8"?><svg id="a" xmlns="http://www.w3.org/2000/svg" width="192" height="192" xmlns:xlink="http://www.w3.org/1999/xlink" viewBox="0 0 192 192"><defs><style>.g{fill:#9abeff;}.g,.h,.i,.j,.k,.l{stroke-width:0px;}.m{clip-path:url(#d);}.h{fill:none;}.i{fill:#fff;}.j{fill:#f9de81;}.k{fill:#ffc15c;}.l{fill:#54688c;}</style><clipPath id="d"><rect class="h" x="20" y="20" width="152" height="152" rx="10" ry="10"/></clipPath></defs><g id="b"><g id="c"><g class="m"><rect class="l" x="20" y="20" width="152" height="152" rx="10" ry="10"/><circle class="j" cx="14.83" cy="266.51" r="133.55"/><circle class="g" cx="175.22" cy="-58.54" r="133.55"/></g><path id="e" class="i" d="m46,83.07h0c3.19,0,5.78,2.35,5.78,5.25v7.52l10.52-10.15h7.03l-10.04,9.32,10.37,13.57h-3.15c-2.25,0-4.35-1-5.64-2.67l-5.55-7.15-3.54,3.34v6.49h-5.78v-25.52Zm27.13,2.62h5.73v5.16c1.58-3.43,4.5-5.77,8.94-5.59v5.54h-.33c-5.07,0-8.61,2.99-8.61,9.06v3.47c0,2.9-2.59,5.25-5.78,5.25h0l.05-22.89Zm24.5,0h0v22.89h-5.78v-17.65c0-2.9,2.59-5.25,5.78-5.25h0Zm4.08,19.9l.58-.79c1.04-1.44,3.1-1.95,4.8-1.19,1.7.77,3.58,1.18,5.48,1.19,2.48,0,3.94-.95,3.94-2.47v-.08c0-1.78-2.63-2.38-5.64-3.21-3.73-.95-7.89-2.38-7.89-6.72v-.08c0-4.34,3.94-6.99,8.98-6.99,3.3.06,6.52.96,9.28,2.6l-.54.88c-.93,1.5-2.94,2.15-4.71,1.51-1.32-.51-2.74-.8-4.18-.83-2.23,0-3.54.95-3.54,2.3v.08c0,1.66,2.73,2.38,5.69,3.21,3.68,1.05,7.89,2.56,7.89,6.68v.1c0,4.77-4.1,7.15-9.36,7.15-3.9,0-7.7-1.18-10.79-3.34h0Z"/><path id="f" class="k" d="m137.53,96.17v-7.93h-4.62v7.93h-7.59v4.83h7.59v7.93h4.62v-7.93h3.85c1.23,0,2.4-.5,3.27-1.41.87-.91,1.35-2.14,1.35-3.42h-8.47Z"/></g></g></svg>