<?xml version="1.0" encoding="UTF-8"?>
<svg version="1.1" viewBox="0 0 192 192" xmlns="http://www.w3.org/2000/svg">
 <g transform="matrix(.88088 0 0 .88088 7.7357 7.5155)">
  <path d="m100.2 0.6c-55.2 0-99.9 44.7-99.9 99.8s44.7 99.9 99.9 99.9 99.9-44.7 99.9-99.9c-0.1-55.1-44.8-99.8-99.9-99.8" fill="#fff" style="fill:#fff"/>
  <g fill="#8a262f">
   <path d="m80.9 181.1-0.3 0.1c-0.2 0.1-0.3 0.3-0.4 0.5l-0.3 1.2c-0.1 0.5 0.2 1.1 0.7 1.2s1-0.2 1.2-0.7l0.8-2.9c-0.3 0.2-0.6 0.3-1 0.4z" style="fill:#ba6561"/>
   <path d="m51.3 37c0.1 0.2 0.2 0.2 0.4 0.1 0.8-0.6 1.4-1.2 1.6-1.9 0.3-0.7 0.1-1.4-0.4-2.2-0.2-0.4-0.5-0.6-0.9-0.7-0.3-0.1-0.7-0.2-1-0.2-0.4 0-0.7 0.1-1.1 0.2s-0.7 0.3-1 0.5c-0.2 0.2-0.3 0.4-0.1 0.6z" style="fill:#ba6561"/>
   <path d="m34.9 60.9c0.1 0.2 0.3 0.3 0.4 0.3h0.2c0.1 0 0.1-0.1 0.2-0.1l1.4-2c0.1-0.2 0.1-0.3 0.1-0.5-0.1-0.1-0.2-0.3-0.4-0.3l-4.4-1.7c-0.2-0.1-0.4 0-0.6 0.2s-0.2 0.4 0 0.6z" style="fill:#ba6561"/>
   <path d="m74.2 173.2c-0.5-0.2-1.1 0-1.3 0.5l-2.3 5.8c-0.2 0.5 0 1.1 0.5 1.3s1.1 0 1.3-0.5l2.3-5.8c0.2-0.6 0-1.1-0.5-1.3" style="fill:#ba6561"/>
   <path d="m159 48.5c0.7 0.1 1.5-0.2 2.1-0.8s0.9-1.2 0.9-1.9c-0.1-0.7-0.4-1.3-0.9-1.9-0.1-0.1-0.3-0.3-0.4-0.3-0.1-0.1-0.3 0-0.5 0.2l-3.2 2.9c-0.1 0.1-0.2 0.2-0.2 0.4s0 0.3 0.2 0.4c0.6 0.5 1.2 0.9 2 1" style="fill:#ba6561"/>
   <path d="m78.6 29.6h0.2l2.4-0.6c0.2 0 0.3-0.2 0.4-0.4 0-0.2 0-0.3-0.1-0.5l-2.2-4.2c-0.1-0.2-0.3-0.3-0.6-0.2s-0.4 0.2-0.4 0.5v4.8c0 0.2 0 0.4 0.1 0.5 0.1 0 0.2 0.1 0.2 0.1" style="fill:#ba6561"/>
   <path d="m96.3 30.3h1.8c0.8 0 1.4-0.3 1.8-0.8s0.6-1.1 0.6-1.7l-0.1-8.7c0-0.4-0.1-0.7-0.2-1.1s-0.3-0.7-0.4-1c-0.2-0.3-0.4-0.5-0.7-0.7s-0.6-0.3-1-0.2h-2c-0.3 0-0.5 0.2-0.5 0.5l0.1 13.2c0.1 0.3 0.2 0.5 0.6 0.5" style="fill:#ba6561"/>
   <path d="m107.5 173.6c-0.8 0.1-1.3 0.8-1.3 1.5l0.3 3.4c0.1 0.8 0.8 1.4 1.5 1.3 0.8-0.1 1.3-0.8 1.3-1.5l-0.3-3.4c0-0.8-0.7-1.4-1.5-1.3" style="fill:#ba6561"/>
   <polygon points="130.3 177.6 128.2 171.8 127.6 178.5" style="fill:#ba6561"/>
   <path d="m118.7 173.2c-0.2-0.8-0.9-1.2-1.7-1.1-0.7 0.2-1.2 0.9-1.1 1.7l0.7 3.3c0.2 0.8 0.9 1.2 1.7 1.1 0.7-0.2 1.2-0.9 1.1-1.7z" style="fill:#ba6561"/>
   <path d="m100.2 2.8c-53.9 0-97.6 43.7-97.6 97.6s43.7 97.6 97.6 97.6 97.6-43.7 97.6-97.6-43.7-97.6-97.6-97.6m73.2 50.5c0.3-0.2 0.5-0.1 0.6 0.2l1.8 2.8c0.2 0.3 0.1 0.5-0.1 0.7l-17.3 10.7c-0.3 0.2-0.5 0.1-0.7-0.2l-1.7-2.8c-0.2-0.3-0.1-0.5 0.2-0.7zm-12.2-15.7 3 3.3c0.7 0.8 1.3 1.6 1.6 2.5 0.4 0.9 0.5 1.7 0.5 2.6s-0.2 1.7-0.6 2.5-1 1.6-1.7 2.3c-0.6 0.6-1.3 1.1-2.1 1.5-0.8 0.5-1.6 0.7-2.5 0.6h-0.3c-0.1 0-0.2 0-0.3 0.1l-1.9 3.8c-0.3 0.7-0.6 1.3-0.9 1.9s-0.5 1.1-0.7 1.5-0.3 0.7-0.4 0.8c0 0 0 0.1-0.1 0.1l-0.1 0.1c-0.2 0.2-0.4 0.2-0.6 0l-2.5-2.8c-0.1-0.1-0.1-0.1-0.1-0.2v-0.3l3.6-7c0.1-0.1 0.1-0.2 0-0.4-0.1-0.1-0.2-0.3-0.3-0.4s-0.2-0.3-0.4-0.4l-0.3-0.3c-0.1-0.1-0.2-0.1-0.4 0l-5.3 4.9c-0.2 0.2-0.5 0.2-0.7 0l-2.3-2.5c-0.2-0.2-0.2-0.5 0-0.7l15-13.7c0.3-0.1 0.6 0 0.8 0.2m-14.8-11.5 7.9 5.5c0.3 0.2 0.3 0.4 0.1 0.7l-1.7 2.5c-0.2 0.3-0.4 0.3-0.7 0.1l-4.4-3.1c-0.3-0.2-0.5-0.1-0.6 0.1l-2.2 3.2c-0.1 0.1-0.1 0.2 0.1 0.3l3.2 2.2c0.3 0.2 0.3 0.4 0.1 0.7l-1.6 2.4c-0.2 0.3-0.4 0.3-0.6 0.1l-3-2.1c-0.3-0.2-0.5-0.1-0.6 0.1l-2.3 3.2c-0.2 0.3-0.1 0.5 0.1 0.6l4.4 3.1c0.3 0.2 0.3 0.4 0.1 0.7l-1.7 2.5c-0.2 0.3-0.4 0.3-0.7 0.1l-7.9-5.5c-0.3-0.2-0.3-0.4-0.1-0.7l11.6-16.7c0-0.2 0.2-0.2 0.5 0m-28.5 9.6 7.5-18.9c0.1-0.3 0.3-0.4 0.6-0.3l2.3 0.9c0.2 0.1 0.3 0.2 0.3 0.4l0.7 12c0 0.1 0.1 0.2 0.3 0.3 0.3 0.1 0.5 0 0.6-0.3l3.9-9.7c0.1-0.3 0.3-0.4 0.6-0.3l2.8 1.1c0.3 0.1 0.4 0.3 0.3 0.6l-7.5 18.9c-0.1 0.3-0.3 0.4-0.6 0.2l-2.1-0.8c-0.2-0.1-0.3-0.2-0.3-0.4l-1.1-11.6c0-0.2-0.1-0.3-0.3-0.4-0.3-0.1-0.5 0-0.6 0.3l-3.7 9.3c-0.1 0.3-0.3 0.4-0.6 0.3l-2.8-1.1c-0.3 0-0.4-0.2-0.3-0.5m-5.1-21.7c0.1-0.3 0.2-0.4 0.5-0.4l3.3 0.6c0.3 0.1 0.5 0.2 0.4 0.5l-3.7 20c-0.1 0.3-0.3 0.5-0.6 0.4l-3.3-0.6c-0.3-0.1-0.5-0.2-0.4-0.6zm-20.9-1.5 6.2-0.1c1.1 0 2.1 0.1 2.9 0.5 0.8 0.3 1.5 0.8 2.1 1.4 0.5 0.6 1 1.3 1.2 2.1 0.3 0.8 0.4 1.7 0.4 2.6l0.1 8.7c0 1-0.1 1.8-0.5 2.6-0.3 0.7-0.8 1.4-1.4 1.9s-1.3 0.9-2.1 1.2-1.7 0.4-2.6 0.4l-6.2 0.1c-0.3 0-0.5-0.2-0.5-0.5l-0.1-20.4c0-0.3 0.2-0.5 0.5-0.5m-17.3 3.5c0-0.1 0.1-0.2 0.3-0.3l3.2-0.8c0.2-0.1 0.3 0 0.4 0.1l10.5 18.6v0.2c0 0.2-0.1 0.3-0.3 0.4l-3.4 0.8c-0.2 0-0.3 0-0.4-0.1l-1.5-2.6c-0.1-0.2-0.3-0.2-0.6-0.2l-3.8 1c-0.3 0.1-0.4 0.2-0.4 0.4v3c0 0.1-0.1 0.2-0.3 0.3l-3.6 0.9c-0.3 0.1-0.5-0.1-0.5-0.5zm-14.8 5.4 3-1.4c0.3-0.1 0.5-0.1 0.6 0.2l8.5 18.5c0.1 0.3 0.1 0.5-0.2 0.7l-3 1.4c-0.3 0.1-0.5 0.1-0.7-0.2l-8.4-18.6c-0.2-0.3-0.1-0.5 0.2-0.6m-16.8 10.3 3.7-2.6c0.9-0.6 1.8-1 2.7-1.3s1.8-0.3 2.7-0.2 1.7 0.4 2.5 0.9 1.5 1.1 2.1 2 1.1 1.8 1.2 2.8c0.2 0.9 0.2 1.8-0.1 2.7-0.2 0.9-0.7 1.7-1.3 2.5s-1.4 1.5-2.4 2.2c-0.1 0.1-0.2 0.2-0.1 0.3l4 5.6c0.2 0.3 0.2 0.5-0.1 0.7l-2.7 1.9c-0.3 0.2-0.5 0.1-0.7-0.1l-11.6-16.7c-0.2-0.3-0.2-0.5 0.1-0.7m-19.4 21.5 1.9-2.7c0.1-0.2 0.2-0.2 0.4-0.2l20.1 7 0.2 0.1c0.2 0.1 0.2 0.3 0 0.5l-2 2.9c-0.1 0.1-0.2 0.2-0.3 0.2l-2.8-1c-0.2-0.1-0.4 0-0.5 0.3l-2.2 3.2c-0.1 0.2-0.1 0.4 0 0.6l2 2.2c0.1 0.1 0.1 0.2 0 0.4l-2.1 3c-0.2 0.3-0.4 0.3-0.7 0l-13.9-16c-0.2-0.2-0.2-0.3-0.1-0.5m9.1 28.8-18.9-7.4c-0.3-0.1-0.4-0.3-0.3-0.6l1.2-3.1c0.1-0.3 0.3-0.4 0.6-0.3l15.7 6.1c0.3 0.1 0.5 0 0.6-0.3l2.3-5.8c0.1-0.3 0.3-0.4 0.6-0.3l2.4 0.9c0.3 0.1 0.4 0.3 0.3 0.6l-3.8 9.7c-0.2 0.5-0.4 0.6-0.7 0.5m39.3 101.1 0.1-0.9c-0.7 0.4-1.5 0.5-2.2 0.3-1.4-0.5-1.9-2.3-1.3-3.9l2.1-5.4c0.6-1.6 2.3-2.5 3.6-2 0.5 0.2 0.9 0.6 1.2 1.1l1.8-4.5 2.1 0.6-6.1 15.3zm13.5-5.3-1.6 6.1c-0.1 0.3 0.1 0.6 0.4 0.6l-0.6 2.1c-0.7-0.2-1.3-0.6-1.6-1.2-0.7 0.4-1.4 0.5-2.2 0.3-1.6-0.4-2.5-2-2.1-3.6l0.3-1c0.2-0.6 0.6-1 0.9-1.3 0.2-0.1 0.4-0.2 0.7-0.3l2.3-0.5c0.2 0 0.4-0.1 0.5-0.2 0.3-0.2 0.6-0.4 0.7-0.8l0.2-0.9c0.1-0.5-0.2-0.9-0.6-1.1-0.4-0.1-0.9 0.2-1.1 0.6l-0.2 0.9-2-0.3 0.3-1c0.4-1.6 2.1-2.6 3.7-2.1 1.5 0.5 2.5 2.1 2 3.7m5 7.9-0.3 2.2c-1.6-0.3-2.7-1.8-2.4-3.4l2.1-13.3 2.2 0.1-2.1 13.5c-0.1 0.5 0.1 0.9 0.5 0.9m10.7 2.8h-2.2l0.3-16.2 2.2-0.2zm7.6-0.2c-2 0.2-3.7-1.3-3.9-3.3l-0.1-0.9 2.2-0.4 0.1 1.2c0.1 0.8 0.8 1.4 1.5 1.3 0.8-0.1 1.4-0.8 1.3-1.5l-0.3-3.3c-0.5 0.5-1.1 0.7-1.8 0.8-1.8 0.2-3.3-1.1-3.4-2.8l-0.4-3.9c-0.2-2 1.3-3.7 3.2-3.9 2-0.2 3.7 1.3 3.9 3.3l0.9 9.7c0.3 1.8-1.2 3.5-3.2 3.7m11.3-1.7c-1.9 0.4-3.8-0.8-4.3-2.8l-0.2-0.9 2.1-0.7 0.3 1.2c0.2 0.8 0.9 1.2 1.7 1.1 0.8-0.2 1.2-0.9 1.1-1.7l-0.7-3.2c-0.4 0.5-1 0.8-1.7 1-1.7 0.4-3.4-0.7-3.8-2.4l-0.8-3.8c-0.4-2 0.8-3.9 2.7-4.3 2-0.4 3.9 0.8 4.3 2.8l2.1 9.5c0.4 1.8-0.8 3.7-2.8 4.2m14.1-4.6-2.1 0.7-1.1-3.1-4.7 1.7-0.7-2.1 1-12 2.1-0.7 3.7 10.3 1.2-0.4 0.7 2.1-1.2 0.4zm-35.3-17.7c-34.6 0-62.6-28-62.6-62.6s28-62.6 62.6-62.6 62.6 28 62.6 62.6-28 62.6-62.6 62.6m66.6-80.4-0.2 0.1c-0.2 0.1-0.3 0-0.4-0.2l-1.3-3.3c-0.1-0.2 0-0.3 0-0.4l2.4-1.8c0.2-0.1 0.2-0.3 0.1-0.6l-1.4-3.6c-0.1-0.2-0.3-0.4-0.5-0.3l-2.9 0.4c-0.1 0-0.2-0.1-0.3-0.2l-1.3-3.4c-0.1-0.3 0-0.5 0.4-0.5l21-2.4c0.1 0 0.2 0 0.3 0.2l1.2 3.1c0.1 0.2 0 0.3-0.1 0.4z" style="fill:#ba6561"/>
   <path d="m173.5 72.2-4.7 0.6c-0.2 0-0.4 0.1-0.5 0.2l-0.2 0.2v0.2l0.9 2.3c0.1 0.2 0.2 0.3 0.4 0.3s0.3 0 0.5-0.2l3.9-2.6c0.2-0.1 0.3-0.4 0.2-0.6 0-0.3-0.2-0.4-0.5-0.4" style="fill:#ba6561"/>
   <path d="m76.8 125.4h0.3 1c0.4 0 0.7 0.2 1 0.5 0.1 0.2 0.2 0.3 0.3 0.5 0.4 0.7 0.8 1.3 1.2 2 0.4 0.6 0.8 1.1 1.4 1.5 0.6 0.5 1.2 0.9 1.8 1.2 0.9 0.5 1.8 0.8 2.8 0.9 0.3 0 0.7 0.1 1 0l1.5-0.3c1.3-0.5 2.3-1.4 2.9-2.6 0.6-1 1.1-2.1 1.5-3.1 0.3-0.7 0.6-1.4 0.9-2.1 0.4-0.8 0.9-1.4 1.7-1.8 0.3-0.2 0.6-0.5 0.8-0.8 0.2-0.2 0.1-0.4 0-0.6-0.2-0.2-0.5-0.2-0.7-0.1s-0.5 0.2-0.7 0.4c-0.3 0.2-0.7 0.3-1 0.4-0.7 0.2-1.3 0.3-2 0.3h-2.6c-0.6 0-1.3 0-1.9 0.1-0.9 0.1-1.7 0.3-2.5 0.8-0.1 0-0.1 0.1-0.2 0.1-0.2 0.1-0.3 0.1-0.5 0.1-0.1 0-0.1 0-0.2-0.1-0.7-0.2-1.3-0.2-2 0-0.4 0.1-0.7 0.2-1.1 0.4-0.5 0.3-1 0.5-1.5 0.8-0.5 0.2-0.9 0.4-1.4 0.6-0.4 0.2-0.9 0.2-1.3 0.2h-0.3c-0.3 0-0.4 0.1-0.4 0.4-0.3 0-0.1 0.3 0.2 0.3m4.6-0.3c0.7-0.2 1.5-0.3 2.2-0.5 0.2 0 0.3-0.1 0.5-0.1 0.5-0.1 1-0.1 1.5-0.1 0.4 0 0.8 0 1.3-0.2 0.5-0.1 1-0.2 1.5-0.2 0.7 0 1.3-0.1 2-0.1 0.4 0 0.8-0.1 1.2-0.2 0.2 0 0.3-0.1 0.5-0.1 0.1 0 0.2 0.1 0.1 0.2 0 0.1-0.1 0.2-0.1 0.3-0.4 0.6-0.8 1.3-1.3 1.9-0.6 0.8-1.3 1.5-2.2 2.1-0.8 0.5-1.6 0.8-2.6 0.8h-0.9c-0.8-0.1-1.5-0.4-2.1-0.9-0.4-0.4-0.8-0.7-1.1-1.2-0.2-0.4-0.5-0.7-0.7-1.1l-0.1-0.1c0-0.2 0-0.4 0.3-0.5" style="fill:#ba6561"/>
   <path d="m100 101.5c-1.2 0-2.3-0.1-3.5-0.1h-1.1c-2.4 0.2-4.2 1.3-5.5 3.4 0 0.1-0.1 0.2-0.1 0.2-0.1 0.2-0.1 0.5-0.1 0.7 0.1 0.2 0.2 0.3 0.4 0.3s0.3-0.1 0.5-0.2l0.3-0.3c0.3-0.4 0.7-0.7 1.1-1 0.1-0.1 0.2-0.1 0.4-0.2 0.3-0.1 0.6 0 0.7 0.3 0 0.1 0.1 0.2 0.1 0.3 0.4 1 1.2 1.6 2.3 1.9h0.6c1.4 0 2.6-1 2.9-2.4 0-0.5 0.3-0.6 0.7-0.7 0.9-0.2 1.8-0.6 2.6-1.1 0.7-0.5 1.3-1.1 1.8-1.9 0.1-0.1 0.1-0.2 0.2-0.3 0-0.1 0-0.2-0.1-0.3s-0.2-0.1-0.3 0-0.2 0.1-0.3 0.2c-0.8 0.6-1.7 1-2.7 1.2-0.2-0.1-0.6 0-0.9 0" style="fill:#ba6561"/>
   <path d="m87 102c0.1 0 0.1-0.1 0.2-0.2 0.2-0.2 0.5-0.5 0.7-0.8 0.9-1 2-2 3.2-2.6 1.3-0.7 2.6-1.1 4.1-1.1 0.9 0 1.8 0 2.7 0.1 1.2 0.1 2.5 0.4 3.6 1 0.1 0.1 0.2 0 0.2 0 0-0.1 0-0.1-0.1-0.2-0.3-0.4-0.7-0.7-1.1-1-0.8-0.4-1.6-0.7-2.4-0.9-0.5 0-0.9-0.1-1.4-0.1-1.3-0.1-2.6 0.1-3.9 0.4-1.9 0.5-3.6 1.4-5 2.8-0.6 0.6-1 1.2-1.2 1.9 0 0.1-0.1 0.2-0.1 0.3 0 0.4 0.3 0.6 0.5 0.4" style="fill:#ba6561"/>
   <path d="m79.1 117.1c0.1 0 0.1 0.1 0.2 0.1 0.2 0.1 0.4 0.3 0.6 0.4 0.6 0.4 1.3 0.7 1.9 1.1s1.3 0.5 2 0.2c0.3-0.1 0.5-0.2 0.8-0.4l2.4-1.5 0.3-0.3c0.1-0.1 0.1-0.3-0.1-0.4s-0.3-0.2-0.5-0.2c-0.3 0-0.6 0-0.9 0.1-0.5 0.2-1.1 0.3-1.6 0.5-0.2 0.1-0.5 0.2-0.7 0.3-0.3 0.1-0.7 0.1-1 0-0.2-0.1-0.4-0.1-0.6-0.2-0.5-0.2-1-0.3-1.6-0.5h-0.7c-0.2 0-0.3 0.1-0.5 0.2-0.1 0.4-0.1 0.5 0 0.6" style="fill:#ba6561"/>
   <path d="m133.3 133.1c0.8-1.7 1.5-3.4 2-5.1 0.3-1.1 0.5-2.2 0.6-3.4 0.1-1.6 0-3.2-0.4-4.8-0.3-1.5-0.8-2.9-1.7-4.2v-0.1-0.1c0.4-0.9 0.7-1.8 1-2.8 0.4-1.4 0.5-2.9 0.4-4.4-0.2-2.4-1.2-4.4-3.1-6.1-0.3-0.3-0.6-0.5-1-0.8l-0.2-0.2c0.2-0.3 0.3-0.6 0.3-0.9v-0.1c0.3-1.2 0.6-2.3 0.9-3.5 0.3-1.3 0.5-2.6 0.5-3.9 0.1-1.4 0-2.7-0.2-4.1-0.3-2-0.8-4-1.5-5.9-0.9-2.7-2.1-5.4-3.4-7.9-1.2-2.4-2.8-4.6-4.7-6.6-2.6-2.7-5.6-4.8-8.9-6.5-2.6-1.3-5.3-2.2-8.1-2.9-1.6-0.4-3.2-0.7-4.9-0.9-0.9-0.1-1.8-0.2-2.8-0.2-1.8-0.1-3.6 0-5.3 0.2-4.1 0.5-8 1.6-11.8 3.3-2.6 1.2-5.1 2.7-7.4 4.5-2.7 2.2-5 4.8-6.9 7.8-1.6 2.7-2.9 5.6-3.9 8.6-0.5 1.5-0.9 3-1.1 4.5-0.1 0.6-0.2 1.1-0.3 1.7-0.1 0.7-0.2 1.5-0.2 2.2-0.1 1.3-0.1 2.6-0.1 3.9 0.1 2.1 0.3 4.1 0.8 6.1 0.3 1.4 0.9 2.8 1.6 4 0.5 0.8 1 1.5 1.7 2.1 0.4 0.3 0.7 0.6 1.2 0.8 0.7 0.3 1.3 0.4 2 0.2 0.4-0.1 0.8-0.2 1.3-0.3h0.3c0 0.1 0.1 0.2 0.1 0.4 0.2 0.7 0.6 1.2 1.1 1.6 1 0.8 2.4 0.9 3.5 0.2 0.8-0.5 1.3-1.2 1.4-2.1 0-0.1 0-0.3 0.1-0.4h0.2c0.5 0 1.1 0.1 1.6 0.3 0.2 0.1 0.4 0.1 0.7 0.2 0.1 0 0.3 0.1 0.4 0.1 0.2 0 0.3-0.1 0.2-0.4-0.1-0.2-0.2-0.3-0.3-0.4s-0.3-0.2-0.4-0.2c-0.7-0.4-1.5-0.6-2.3-0.8-1.3-0.4-2.6-0.5-4-0.5-1.1 0-2.3 0.2-3.3 0.6-0.4 0.1-0.8 0.2-1.1 0.2-0.6 0-1.2-0.2-1.7-0.6-0.4-0.4-0.7-0.9-1-1.4-0.2-0.3-0.3-0.6-0.3-1s0-0.7 0.2-1.1c0.2-0.3 0.4-0.5 0.7-0.8 0.4-0.3 0.8-0.5 1.2-0.6 0.6-0.2 1.2-0.2 1.8-0.3 1.7-0.1 3.3 0.1 5 0.3 1.1 0.2 2.2 0.4 3.3 0.8 0.1 0 0.3 0.1 0.4 0.1 0.2 0 0.4 0 0.5-0.1s0.2-0.2 0.1-0.3-0.1-0.2-0.2-0.3c-0.2-0.3-0.6-0.4-0.9-0.6-0.7-0.3-1.4-0.5-2.1-0.7-1-0.3-1.9-0.5-2.9-0.6-1.3-0.2-2.7-0.4-4-0.4-0.7 0-1.3-0.3-1.7-0.8-0.2-0.3-0.4-0.6-0.5-0.9-0.2-0.5-0.3-1-0.3-1.5-0.1-1.4 0.2-2.7 0.8-4 0.7-1.6 1.8-2.8 3.2-3.8 0.8-0.5 1.6-1 2.5-1.3 1.4-0.5 2.7-1.2 3.9-2 2.2-1.5 4.1-3.3 5.8-5.4l0.3-0.3c0.5-0.5 1.2-0.5 1.7-0.1l0.2 0.2 2.7 2.4c1.3 1.1 2.7 2.1 4.2 3 0.9 0.5 1.8 0.9 2.7 1.2 0.4 0.1 0.8 0.3 1.2 0.5 0.8 0.4 1.6 1 2.3 1.6 1.1 0.9 2 2 3 3 1.7 2 3.3 4.2 4.7 6.4 0.7 1.2 1.5 2.3 2.3 3.4 0.1 0.2 0.2 0.3 0.4 0.5 0.9 1.3 1.8 2.5 2.6 3.8 1 1.4 1.1 2.9 0.4 4.5-0.1 0.1-0.1 0.3-0.2 0.4 0 0.1-0.1 0.3-0.1 0.4 0 0.2 0.1 0.4 0.3 0.5s0.5 0 0.6-0.1 0.1-0.2 0.2-0.2c0.3-0.6 0.6-1.1 0.8-1.7 0.3-0.9 0.9-1.7 1.6-2.4 0.7-0.6 1.5-1 2.4-1 0.8-0.1 1.5 0 2.3 0.3 0.5 0.2 1 0.5 1.3 1 0.2 0.3 0.4 0.7 0.5 1 0.1 0.4 0.2 0.9 0.2 1.3 0 1-0.1 2.1-0.3 3.1-0.3 1.3-0.7 2.6-1.2 3.8-0.4 0.9-0.9 1.7-1.7 2.2-1 0.7-2.1 0.8-3.2 0.3-0.4-0.2-0.8-0.4-1.2-0.7s-1.1-0.4-1.5 0l-0.6 0.6c-0.4 0.6-0.6 1.2-0.3 1.9 0.4 1.1 0.2 2.1-0.5 3.1-0.2 0.3-0.4 0.5-0.6 0.8-1.3 2-2.7 4-4.1 5.9s-2.9 3.6-4.6 5.2c-1.6 1.5-3.5 2.7-5.5 3.7-0.6 0.3-1.3 0.5-1.9 0.7-1.1 0.3-2.3 0.6-3.5 0.7-0.9 0.1-1.8 0.1-2.7 0-1.3-0.2-2.6-0.5-3.9-1.1-1.7-0.8-3.2-2-4.3-3.6-0.5-0.7-1-1.3-1.5-1.9-0.9-1.1-1.8-2.1-2.7-3.2-1.2-1.4-2.3-2.8-3.5-4.1-0.4-0.4-0.7-0.8-1-1.3-1.5-2.3-2.6-4.9-3-7.6-0.3-1.9-0.3-3.7 0-5.6v-0.2c0-0.1 0-0.2-0.1-0.3-0.1-0.2-0.5-0.2-0.6 0 0 0.1-0.1 0.2-0.1 0.2-0.3 0.7-0.6 1.4-0.8 2.2-0.3 1.6-0.3 3.1 0 4.7 0.5 2.3 1.3 4.5 2.4 6.5 0.5 1 1.2 1.8 1.9 2.7 0.4 0.4 0.7 0.8 1.1 1.2 1.7 2 3.4 4.1 5.1 6.1 0.3 0.4 0.6 0.8 0.9 1.2 0.2 0.3 0.4 0.6 0.7 0.9 1.2 1.5 2.7 2.6 4.4 3.4 0.3 0.1 0.6 0.3 1 0.4 0.3 0.1 0.5 0.3 0.5 0.6 0 0.5 0 1-0.2 1.4-0.4 1-1.2 1.7-2.2 2-0.2 0.1-5.3 2-10.5 4.4h-0.1c-0.7 0.4-1.3 1.1-1.4 2-0.1 1 0.3 2 1.2 2.6 0.1 0 0.1 0.1 0.2 0.1 3.9 2.4 8.2 4.4 12.8 5.7 0.4-0.9 0.8-1.9 1.2-2.9 0.3-1 0.7-2.1 0.9-3.1 0.3-1.1 0.5-2.2 0.7-3.4 0.2-1 0.3-2 0.5-3 0.2-1.1 0.3-2.2 0.3-3.2 0-0.3 0-0.6 0.1-0.9 0.1-0.7 0.6-1.3 1.3-1.4h0.3c0.5 0 1-0.1 1.5-0.1 1.3-0.2 2.6-0.5 3.9-0.8l1.8-0.6c2-0.9 3.7-2 5.4-3.3 1.4-1.1 2.6-2.4 3.8-3.7 0.1-0.1 0.9-1.1 1-1.2 0.3-0.3 0.7-0.5 1-0.7 0.7-0.4 1.6-0.5 1.8 0.2 0.1 0.3 0.1 0.5 0.2 0.8 0.1 0.6 0 2.5 0.1 3.1 0.2 1.7 0.1 3.5 0.1 5.2 0 0.8 0 1.3-0.1 2.2-0.1 1 0 1.7-0.5 2.7-0.4 0.7-0.7 1.4-1.3 2l-0.1 0.1c-0.3 0.4-0.2 0.8 0.2 1.1 0.3 0.2 0.6 0.3 1 0.2 1.5-0.2 1.1-0.2 2.5-0.8 0.1-0.1 0.3-0.1 0.4-0.1 0.7-0.1 1.4 0.5 1.5 1.2v0.4c0.1 1.9 0.1 3.8 0.2 5.6 0 0.6 0 1.2 0.1 1.8 0.1 0.9 0.4 1.8 0.9 2.5 3.8-1.2 7.4-2.8 10.8-4.7-1.8-1.9-3.6-3.8-5.5-5.5-0.6-0.4-1-1-1.3-1.6-0.1-0.2-0.2-0.3-0.3-0.5l-0.3-0.6c-0.5-1.4-0.3-2.6 0.7-3.7 0.1-0.1 0.2-0.2 0.3-0.4 1.2-1.4 2.4-2.8 3.4-4.4 0.7-1 1.3-2.1 1.7-3.3l0.1-0.1c0.1 0.1 0.1 0.2 0.1 0.4 0.4 1.2 0.9 2.3 1.5 3.5s1.2 2.4 1.9 3.5c0.4 0.6 0.8 1.2 1.3 1.8 0.3 0.3 0.6 0.7 1 0.9 0.3 0.2 0.6 0.4 1 0.5 0.2 0.1 0.4 0.1 0.6 0.1 0.3 0 0.4-0.2 0.4-0.5 0-0.1-0.1-0.3-0.1-0.4-0.1-0.3-0.2-0.5-0.4-0.8-0.6-1.4-0.7-2.8-0.5-4.2 0.2-1.1 0.5-2.1 1-3.1 1-0.7 1.5-1.7 2-2.8m-12.7-32.1c0-0.3 0.1-0.6 0.1-1 0.6-6.3-0.8-12.2-4.3-17.5-1.2-1.9-2.6-3.6-4.2-5.2-2.9-3-6.3-5.4-10.1-7.2-1.1-0.5-2.2-1-3.4-1.3-1.4-0.4-2.8-0.7-4.3-0.9-1.8-0.2-3.7-0.2-5.5 0-2.8 0.3-5.5 0.9-8.1 1.8-1.6 0.6-3.2 1.2-4.7 1.9-1.9 0.9-3.7 1.9-5.5 3.1-0.4 0.3-0.8 0.5-1.1 0.8-0.1 0.1-0.2 0.1-0.3 0.2-0.1 0-0.1 0-0.2 0.1 0-0.1-0.1-0.2-0.1-0.2 0-0.1 0-0.3 0.1-0.4 0.4-0.7 0.7-1.4 1.1-2 0.9-1.5 2-2.8 3.2-4 1.9-1.9 4-3.4 6.3-4.7 3.6-2 7.5-3.4 11.6-4 2-0.3 4.1-0.5 6.2-0.5 1 0 2 0 3.1 0.1 1 0.1 2 0.2 2.9 0.3 1 0.2 1.9 0.4 2.9 0.7 0.3 0.1 0.6 0.2 0.9 0.3 2 0.6 3.9 1.4 5.8 2.3 3.7 1.9 7 4.4 9.7 7.6 1.6 1.8 2.9 3.7 3.9 5.8 0 0.1 0.1 0.1 0.1 0.2 1.3 2.3 2.1 4.7 2.8 7.3 0.7 2.8 1 5.6 0.9 8.4 0 1.8-0.2 3.5-0.5 5.3-0.3 1.7-0.8 3.3-1.4 4.8s-1.4 2.9-2.3 4.2c-0.6 0.8-1.2 1.6-2 2.3l-0.4 0.4c-0.3 0.2-0.4 0.2-0.6-0.1-0.1-0.1-0.1-0.3-0.2-0.4-0.1-0.2-0.1-0.5-0.2-0.7-0.1-0.5-0.2-1-0.4-1.6s-0.4-1.1-0.7-1.7c-0.8-1.6-1.1-3-1.1-4.5m3.2 28.6c-0.6 2.1-1.4 4.1-2.4 6-0.6 1.2-1.3 2.4-2.1 3.5-1 1.4-2.1 2.6-3.4 3.6-1.2 0.9-2.5 1.6-3.9 2.1-0.1 0-0.3 0.1-0.4 0.1 0-0.2-0.1-1.3-0.1-1.5 0-1.2-0.3-2.5-0.4-3.7-0.2-1.4-0.3-2.8-0.5-4.2-0.2-1.2-0.2-2.4-0.1-3.6 0.1-1.3 0.4-2.5 0.8-3.7 0.7-2.2 1.8-4.1 3.2-5.9 0.2-0.3 0.5-0.6 0.8-0.9 0.1-0.1 0.2-0.2 0.4-0.2 1.2-0.2 2.2-0.7 3.1-1.4 1-0.8 1.9-1.7 2.6-2.7 0.4-0.6 1-1 1.6-1.3 0.1-0.1 0.2-0.1 0.4-0.1 0.1 0 0.2 0 0.2 0.1 0.1 0.2 0.1 0.3 0.1 0.5v1c-0.1 0.5-0.2 1-0.4 1.4-0.5 1.3-1.1 2.4-1.8 3.5-0.8 1.3-1.7 2.5-2.6 3.8-1.2 1.6-2.1 3.4-2.8 5.3-0.5 1.3-0.9 2.7-1.1 4-0.1 0.5-0.1 0.9 0 1.4 0 0.3 0.1 0.6 0.2 0.9 0.1 0.1 0.1 0.3 0.2 0.4 0.3 0.1 0.3 0.1 0.6-0.2 0.1-0.1 0.2-0.2 0.2-0.3 0.2-0.4 0.3-0.9 0.4-1.4 0-0.3 0.1-0.6 0.1-1 0.2-1.7 0.7-3.3 1.5-4.7 0.4-0.7 0.8-1.3 1.3-1.8 0.4-0.4 0.8-0.8 1.2-1.3l1.2-1.5c0.2-0.3 0.4-0.5 0.6-0.8 0.1-0.1 0.3-0.2 0.4-0.3 0.3-0.2 1.2 1 1.3 1.3v0.7c0 1-0.2 1.9-0.4 2.9m2.7-12.5v-0.4c0-0.6-0.1-1.2-0.2-1.9-0.1-0.6-0.2-1.1-0.5-1.6 0-0.1 0-0.1-0.1-0.2-0.1-0.4-0.1-0.8 0.2-1.2l0.3-0.3c1.3-1.6 2.6-3.3 3.6-5.2 0.3-0.5 0.5-0.9 0.7-1.5 0.2-0.4-0.1-1.4 0.6-1.8 0.3-0.2 1.2 1.1 1.5 1.8 0.4 0.7 0.5 1.6 0.6 2.5s0.2 1.8 0 2.6c0 0.4-0.1 0.8-0.1 1-0.3 1.3-0.6 2.5-1.2 3.6-0.4 0.7-0.8 1.3-1.3 1.8-0.6 0.6-1.2 1-1.9 1.3-0.1 0-0.2 0.1-0.3 0.1-0.5 0.1-1.9-0.3-1.9-0.6m3.7 19c-0.1 0.2-0.1 0.4-0.2 0.6-0.3 1-0.6 2-0.7 3 0 0.2-0.1 0.5-0.1 0.8s-0.4 0.3-0.5 0.1l-1-2c-1-2.2-1.7-4.6-1.9-7-0.1-1.1 0-2.1 0.2-3.1 0-0.2 0.1-0.3 0.1-0.5 0.1-0.2 0.9-1.6 1-1.5s0.1 0.2 0.2 0.3c0.6 0.8 1.3 1.5 2.1 2.1 0.2 0.1 0.3 0.3 0.5 0.4 0.3 0.2 0.7 0.1 0.9-0.3 0.1-0.2 0.1-0.4 0-0.6 0-0.1-0.1-0.2-0.2-0.3-1.2-1.8-2.2-3.7-3-5.8-0.1-0.4-0.2-0.7-0.3-1.1 0-0.1 0-0.2-0.1-0.2-0.1-0.3 0.1-0.6 0.4-0.7 0.1 0 0.2-0.1 0.3-0.1 0.7-0.3 1.5-0.6 2.2-0.9 0.6-0.3 1.2-0.6 1.7-1 0.3-0.2 1.6-0.4 1.7 1.4 0.2 1 0.3 1.9 0.3 2.9 0 1.9-0.3 3.9-0.7 5.7-0.3 1.1-0.7 2.2-1.1 3.3-0.7 1.4-1.3 2.9-1.8 4.5" style="fill:#ba6561"/>
  </g>
 </g>
</svg>
