<?xml version="1.0" encoding="UTF-8"?>
<svg version="1.1" viewBox="0 0 192 192" xmlns="http://www.w3.org/2000/svg">
 <circle class="a" cx="96" cy="96" r="88" style="fill:#56595b"/>
 <g transform="matrix(.12884 0 0 .12884 34.155 34.598)" fill="@android:color/white" style="fill:#fff">
  <path d="m468.33 273.09q-3.33-5.24-15.35-15.35-12.02-10.12-20.35-13.45 1.9-11.9 9.64-30.11t18.45-32.97q1.43-1.9 3.45-2.86 2.02-0.95 4.17-0.95 2.14 0 4.05 0.95 1.9 0.95 3.33 3.09 10.71 15 18.69 32.85 7.97 17.85 9.64 30-9.28 4.29-20.71 13.93t-15 14.88z" style="fill:#fff"/>
  <path d="m496.42 361.65q-0.48-14.52-4.4-32.97-3.93-18.45-12.26-31.78 10.24-15.71 30.35-27.14 20.12-11.43 42.49-14.05 2.38-0.48 4.29 0.36 1.9 0.83 3.33 2.26t2.26 3.33 0.6 4.29q-1.9 38.33-20.83 62.25-18.93 23.93-45.83 33.45z" style="fill:#fff"/>
  <path d="m466.9 368.55q-41.42-6.19-65.7-32.02-24.29-25.83-27.62-70.34-0.24-2.62 0.6-4.64 0.83-2.02 2.26-3.45t3.45-2.14 4.4-0.24q43.56 5.95 67.13 33.57 23.57 27.61 26.19 69.04 0.24 2.14-0.6 4.17-0.83 2.02-2.5 3.45-1.43 1.43-3.45 2.26-2.02 0.82-4.16 0.34z" style="fill:#fff"/>
  <path d="m472.76 503.04c-33.7-5.04-60.42-18.06-80.18-39.07-19.75-21.01-30.99-49.63-33.7-85.84-0.19-2.13 0.05-4.02 0.73-5.66 0.68-1.65 1.6-3.05 2.76-4.21s2.57-2.03 4.21-2.61c1.65-0.58 3.44-0.68 5.37-0.29 35.44 4.84 62.75 18.49 81.92 40.96s29.82 50.55 31.95 84.24c0.19 1.74-0.05 3.44-0.73 5.08-0.68 1.65-1.69 3.05-3.05 4.21-1.16 1.16-2.57 2.08-4.21 2.76-1.65 0.68-3.34 0.82-5.08 0.44zm36.02-8.42c-0.39-11.81-2.18-25.22-5.37-40.23-3.2-15.01-8.18-27.94-14.96-38.78 8.33-12.78 20.67-23.82 37.04-33.12 16.36-9.3 33.65-15.01 51.85-17.14 1.94-0.39 3.68-0.24 5.23 0.44s2.9 1.6 4.07 2.76c1.16 1.16 2.08 2.52 2.76 4.07s0.92 3.29 0.73 5.23c-1.55 31.18-10.02 56.5-25.42 75.96s-34.04 33.07-55.92 40.81z" stroke-width=".29" style="fill:#fff"/>
  <path d="m478.13 644.38c-36.18-5.41-64.87-19.39-86.08-41.95s-33.27-53.28-36.18-92.16c-0.21-2.29 0.05-4.31 0.78-6.08s1.72-3.27 2.96-4.52c1.25-1.25 2.75-2.18 4.52-2.81 1.77-0.62 3.69-0.73 5.77-0.31 38.05 5.2 67.37 19.86 87.95 43.97 20.58 24.12 32.02 54.27 34.31 90.44 0.21 1.87-0.05 3.69-0.78 5.46s-1.82 3.27-3.27 4.52c-1.25 1.25-2.75 2.24-4.52 2.96-1.77 0.73-3.59 0.88-5.46 0.47zm38.67-9.04c-0.42-12.68-2.34-27.08-5.77-43.2-3.43-16.11-8.78-29.99-16.06-41.64 8.94-13.72 22.2-25.57 39.76-35.55 17.57-9.98 36.13-16.11 55.67-18.4 2.08-0.42 3.95-0.26 5.61 0.47s3.12 1.72 4.37 2.96c1.25 1.25 2.24 2.7 2.96 4.37 0.73 1.66 0.99 3.53 0.78 5.61-1.66 33.47-10.76 60.66-27.29 81.56s-36.54 35.5-60.04 43.82z" stroke-width=".31" style="fill:#fff"/>
  <path d="m545.35 720.19c-7.93-8.54-14.42-17.83-19.47-27.86-5.05-10.04-8.44-20.43-10.18-31.18 0 0-25.84 0.8-25.7 1.34 2.09 13.67 6.14 26.91 12.16 39.73 6.01 12.82 14.09 24.68 24.22 35.59 8.22 8.85 17.15 16.32 26.77 22.41 9.62 6.08 19.71 11 30.26 14.75 3.47 1.2 6.76 0.94 9.88-0.78s5.12-4.31 6.01-7.79 0.4-6.78-1.47-9.9-4.54-5.28-8.01-6.48c-8.28-3.21-16.15-7.24-23.6-12.1s-14.41-10.76-20.87-17.72z" stroke-width=".32" style="fill:#fff"/>
 </g>
</svg>
