<?xml version="1.0" encoding="UTF-8"?><svg id="a" xmlns="http://www.w3.org/2000/svg" width="192" height="192" viewBox="0 0 192 192"><defs><style>.e{fill:#728dbe;}.e,.f,.g{stroke-width:0px;}.f{fill:#98dc9a;}.g{fill:#f9de81;fill-rule:evenodd;}</style></defs><g id="b"><g id="c"><path id="d" class="e" d="m29.9,20h132.2c5.47,0,9.9,4.43,9.9,9.9h0v132.2c0,5.47-4.43,9.9-9.9,9.9H29.9c-5.47,0-9.9-4.43-9.9-9.9h0V29.9c0-5.47,4.43-9.9,9.9-9.9h0Z"/><path class="f" d="m65.25,110.29c5.74,13.46,18.96,22.2,33.59,22.2-5.73-13.46-18.96-22.2-33.59-22.2Zm33.6,22.21c10.74,0,20.49-6.27,24.93-16.05-10.74,0-20.49,6.28-24.93,16.06h0Z"/><path class="g" d="m98.84,114.24c15.11.3,27.61-11.72,27.9-26.83.3-15.11-11.72-27.61-26.83-27.9-.36,0-.72,0-1.08,0-15.11.3-27.13,12.79-26.83,27.91.29,14.7,12.13,26.54,26.83,26.83Zm0-13.68c7.56,0,13.69-6.13,13.69-13.69,0-7.56-6.13-13.69-13.69-13.69h0c-7.56,0-13.69,6.13-13.69,13.69,0,7.56,6.13,13.69,13.69,13.69Z"/></g></g></svg>