<?xml version="1.0" encoding="UTF-8"?>
<svg version="1.1" viewBox="0 0 192 192" xmlns="http://www.w3.org/2000/svg">
 <circle class="a" cx="96" cy="96" r="88" style="fill:#bd9aff"/>
 <path d="m94.38 54.947a41.647 41.647 0 0 0-9.5284 82.105c-2.4851-2.5173-4.2715-5.4734-5.3562-8.6239a35.356 35.356 0 0 1-16.499-15.816h14.28a54.173 54.173 0 0 0 1.3574 3.9755c0.6989-3.7282 2.3189-7.313 4.8579-10.383h-1.085a56.4 56.4 0 0 1 0-19.222h20.176l4.0919-4.1106c1.3553-1.3553 2.8409-2.5017 4.4156-3.447a54.173 54.173 0 0 0-8.5366-17.109 35.356 35.356 0 0 1 20.511 13.838c2.8314 0.0143 5.6619 0.54696 8.3352 1.5925a41.695 41.695 0 0 0-37.019-22.8zm-8.1734 7.369a54.173 54.173 0 0 0-8.9301 18.261h-14.28a35.356 35.356 0 0 1 23.21-18.261zm8.1734 0.23981a46.16 46.16 0 0 1 10.412 18.021h-20.824a46.096 46.096 0 0 1 10.412-18.021zm-33.907 24.427h15.421a63.047 63.047 0 0 0 0 19.222h-15.421a35.084 35.084 0 0 1-1.3329-9.6111 35.084 35.084 0 0 1 1.3329-9.6111z" style="fill:#fff;stroke-width:.40045"/>
 <path d="m120.96 80.024c-4.969 1.2e-5 -9.9288 1.8859-13.701 5.6584l-4.5671 4.5873a3.2316 3.2316 0 0 0 0 4.5671 3.2316 3.2316 0 0 0 4.5671 0l4.5671-4.5671c5.0751-5.0751 13.214-5.0751 18.289 0 5.075 5.0751 5.075 13.193 0 18.268l-4.5671 4.5671a3.2316 3.2316 0 0 0 0 4.5671 3.2316 3.2316 0 0 0 4.5671 0l4.5671-4.5671c7.545-7.545 7.545-19.878 0-27.423-3.7725-3.7725-8.7525-5.6584-13.722-5.6584zm-2.2835 17.096-18.268 18.268a3.2316 3.2316 0 0 0 0 4.5873 3.2316 3.2316 0 0 0 4.5671 0l18.268-18.289a3.2316 3.2316 0 0 0 0-4.5671 3.2316 3.2316 0 0 0-4.5671 0zm-22.836 1.3338a3.2316 3.2316 0 0 0-2.3038 0.9498l-4.5671 4.5671c-7.545 7.545-7.545 19.878 0 27.423 7.545 7.545 19.878 7.545 27.423 0l4.5671-4.5671a3.2316 3.2316 0 0 0 0-4.5671 3.2316 3.2316 0 0 0-4.5671 0l-4.5671 4.5671c-5.0751 5.0751-13.214 5.0751-18.289 0-5.0751-5.0751-5.0751-13.214 0-18.289l4.5873-4.5671a3.2316 3.2316 0 0 0 0-4.5671 3.2316 3.2316 0 0 0-2.2836-0.9498z" style="-inkscape-stroke:none;color:#000000;fill:#fff"/>
</svg>
