<?xml version="1.0" encoding="UTF-8"?>
<svg version="1.1" viewBox="0 0 192 192" xmlns="http://www.w3.org/2000/svg">
 <defs>
  <clipPath id="clipPath1">
   <rect class="a" x="20" y="20" width="152" height="152" rx="10" d="m 30,20 h 132 c 5.54,0 10,4.46 10,10 v 132 c 0,5.54 -4.46,10 -10,10 H 30 c -5.54,0 -10,-4.46 -10,-10 V 30 c 0,-5.54 4.46,-10 10,-10 z" style="fill:#728dbe"/>
  </clipPath>
 </defs>
 <rect class="a" x="20" y="20" width="152" height="152" rx="10" style="fill:#728dbe"/>
 <path d="m104.81 21.993 6.5628 78.132a1.1302 1.1302 24.669 0 0 1.7883 0.82136l27.713-20.032a2.2423 2.2423 5.8713 0 1 2.9694 0.30536l26.809 29.363a2.9418 2.9418 13.393 0 0 3.218 0.76622l3.7704-1.4335a2.8487 2.8487 124.11 0 0 1.8359-2.7105l-1.5984-95.331a2.2361 2.2361 47.23 0 0-2.0246-2.1887l-44.91-4.2615a7.09 7.09 169.67 0 0-3.7873 0.69049l-19.248 9.4233a5.2639 5.2639 133.11 0 0-2.5554 2.7298 8.0341 8.0341 98.302 0 0-0.54371 3.7263z" clip-path="url(#clipPath1)" style="fill:#fff"/>
</svg>
