<?xml version="1.0" encoding="UTF-8"?>
<svg version="1.1" viewBox="0 0 192 192" xmlns="http://www.w3.org/2000/svg">
 <g transform="matrix(.96209 0 0 .96209 256.4 -12.722)">
  <path d="m-221.4 29.978h109.99l0.0595 13.918h14.87v28.074h13.086v82.889h-13.918v26.792h-14.097v14.384l-109.99-0.37852v-14.005h-13.522v-26.766h-15.135v-83.89l14.81-0.12618 9e-3 -26.972 13.837 0.01305z" style="fill:#56595b;stroke-linecap:round;stroke-linejoin:round;stroke-width:5"/>
  <path d="m-221.4 85.631v-28.293h13.157v-13.442h70.126v13.799h13.45v27.263h13.256v54.819h-13.256v28.193h-13.748v13.68h-68.996v-13.264h-13.99v-27.575h-13.846v-55.181z" style="fill:#f8c18c;stroke-linecap:round;stroke-linejoin:round;stroke-width:5"/>
  <path d="m-194.31 58.209h41.722v13.459h14.3v13.29h13.627v55.012h-14.132v13.459h-13.795v15.477h-41.554v-14.805h-14.3v-13.29h-12.954v-55.181h13.627v-13.795h13.459z" style="fill:#f9de81;stroke-linecap:round;stroke-linejoin:round;stroke-width:5"/>
  <path d="m-138.11 43.896h13.45v13.799h-13.45z" style="fill:#c39a54;stroke-linecap:round;stroke-linejoin:round;stroke-width:5"/>
  <path d="m-124.66 57.695h13.256v27.263l-13.256 1e-6z" style="fill:#c39a54;stroke-linecap:round;stroke-linejoin:round;stroke-width:5"/>
  <path d="m-111.41 84.958h14.097v54.844l-14.097-0.0252z" style="fill:#c39a54;stroke-linecap:round;stroke-linejoin:round;stroke-width:5"/>
  <path d="m-124.66 167.97h13.256v-28.193l-13.256 4.7e-4z" style="fill:#c39a54;stroke-linecap:round;stroke-linejoin:round;stroke-width:5"/>
  <path d="m-124.66 167.97v13.68h-13.748v-13.68z" style="fill:#c39a54;stroke-linecap:round;stroke-linejoin:round;stroke-width:5"/>
  <path d="m-221.4 29.978h109.99l0.0595 13.918h14.87v28.074h13.086v82.889h-13.918v26.792h-14.097v14.384l-109.99-0.37852v-14.005h-13.522v-26.766h-15.135v-83.89l14.81-0.12618 9e-3 -26.972 13.837 0.01305z" style="fill:#56595b;stroke-linecap:round;stroke-linejoin:round;stroke-width:5"/>
  <path d="m-221.4 85.631v-28.293h13.157v-13.442h70.126v13.799h13.45v27.263h13.256v54.819h-13.256v28.193h-13.748v13.68h-68.996v-13.264h-13.99v-27.575h-13.846v-55.181z" style="fill:#f8c18c;stroke-linecap:round;stroke-linejoin:round;stroke-width:5"/>
  <path d="m-194.31 58.209h41.722v13.459h14.3v13.29h13.627v55.012h-14.132v13.459h-13.795v15.477h-41.554v-14.805h-14.3v-13.29h-12.954v-55.181h13.627v-13.795h13.459z" style="fill:#f9de81;stroke-linecap:round;stroke-linejoin:round;stroke-width:5"/>
  <path d="m-138.11 43.896h13.45v13.799h-13.45z" style="fill:#c39a54;stroke-linecap:round;stroke-linejoin:round;stroke-width:5"/>
  <path d="m-124.66 57.695h13.256v27.263l-13.256 1e-6z" style="fill:#c39a54;stroke-linecap:round;stroke-linejoin:round;stroke-width:5"/>
  <path d="m-111.41 84.958h14.097v54.844l-14.097-0.0252z" style="fill:#c39a54;stroke-linecap:round;stroke-linejoin:round;stroke-width:5"/>
  <path d="m-124.66 167.97h13.256v-28.193l-13.256 4.7e-4z" style="fill:#c39a54;stroke-linecap:round;stroke-linejoin:round;stroke-width:5"/>
  <path d="m-124.66 167.97v13.68h-13.748v-13.68z" style="fill:#c39a54;stroke-linecap:round;stroke-linejoin:round;stroke-width:5"/>
  <path d="m-221.4 29.978h109.99l0.0595 13.918h14.87v28.074h13.086v82.889h-13.918v26.792h-14.097v14.384l-109.99-0.37852v-14.005h-13.522v-26.766h-15.135v-83.89l14.81-0.12618 9e-3 -26.972 13.837 0.01305z" style="fill:#56595b;stroke-linecap:round;stroke-linejoin:round;stroke-width:5"/>
  <path d="m-221.4 85.631v-28.293h13.157v-13.442h70.126v13.799h13.45v27.263h13.256v55.012h-13.256v28h-13.748v13.68h-68.996v-13.264h-13.99v-27.575h-13.846v-55.181z" style="fill:#f8c18c;stroke-linecap:round;stroke-linejoin:round;stroke-width:5"/>
  <path d="m-194.31 58.209h41.722v13.459h14.3v13.29h13.627v55.012h-14.132v13.459h-13.795v15.477h-41.554v-14.805h-14.3v-13.29h-12.954v-55.181h13.627v-13.795h13.459z" style="fill:#f9de81;stroke-linecap:round;stroke-linejoin:round;stroke-width:5"/>
  <path d="m-138.11 43.896h13.45v13.799h-13.45z" style="fill:#c39a54;stroke-linecap:round;stroke-linejoin:round;stroke-width:5"/>
  <path d="m-124.66 57.695h13.256v27.263l-13.256 1e-6z" style="fill:#c39a54;stroke-linecap:round;stroke-linejoin:round;stroke-width:5"/>
  <path d="m-111.41 84.958h14.097v55.012h-14.097z" style="fill:#c39a54;stroke-linecap:round;stroke-linejoin:round;stroke-width:5"/>
  <path d="m-124.66 167.97h13.256v-28h-13.256z" style="fill:#c39a54;stroke-linecap:round;stroke-linejoin:round;stroke-width:5"/>
  <path d="m-124.66 167.97v13.68h-13.748v-13.68z" style="fill:#c39a54;stroke-linecap:round;stroke-linejoin:round;stroke-width:5"/>
 </g>
</svg>
