<?xml version="1.0" encoding="UTF-8"?>
<svg version="1.1" viewBox="0 0 192 192" xmlns="http://www.w3.org/2000/svg">
 <defs>
  <clipPath id="clipPath5">
   <path d="m-163.52 73.539h31.223a15.518 15.518 152.73 0 0 12.641-6.5166l6.8322-9.5943a4.1698 4.1698 7.9256 0 1 7.3247 1.0197l22.209 62.356a11.82 11.82 104.49 0 1-3.3146 12.829l-30.075 26.537a21.158 21.158 159.29 0 1-13.999 5.293h-36.326a21.042 21.042 20.817 0 1-13.979-5.3149l-29.407-26.14a12.203 12.203 74.882 0 1-3.4898-12.918l21.184-64.697a4.1812 4.1812 170.54 0 1 7.3103-1.2185l9.0464 11.98a16.065 16.065 26.472 0 0 12.821 6.3843z" style="fill:#73ada4;stroke-linecap:round;stroke-linejoin:round;stroke-width:5;stroke:#73ada4"/>
  </clipPath>
  <clipPath id="clipPath6">
   <path d="m-163.52 73.539h31.223a15.518 15.518 152.73 0 0 12.641-6.5166l6.8322-9.5943a4.1698 4.1698 7.9256 0 1 7.3247 1.0197l22.209 62.356a11.82 11.82 104.49 0 1-3.3146 12.829l-30.075 26.537a21.158 21.158 159.29 0 1-13.999 5.293h-36.326a21.042 21.042 20.817 0 1-13.979-5.3149l-29.407-26.14a12.203 12.203 74.882 0 1-3.4898-12.918l21.184-64.697a4.1812 4.1812 170.54 0 1 7.3103-1.2185l9.0464 11.98a16.065 16.065 26.472 0 0 12.821 6.3843z" style="fill:#73ada4;stroke-linecap:round;stroke-linejoin:round;stroke-width:5;stroke:#73ada4"/>
  </clipPath>
 </defs>
 <rect class="a" x="20" y="20" width="152" height="152" rx="10" style="fill:#e0f4e0"/>
 <path transform="matrix(.65384 0 0 .65384 193.13 24.383)" d="m-163.52 73.539h31.223a15.518 15.518 152.73 0 0 12.641-6.5166l6.8322-9.5943a4.1698 4.1698 7.9256 0 1 7.3247 1.0197l22.209 62.356a11.82 11.82 104.49 0 1-3.3146 12.829l-30.075 26.537a21.158 21.158 159.29 0 1-13.999 5.293h-36.326a21.042 21.042 20.817 0 1-13.979-5.3149l-29.407-26.14a12.203 12.203 74.882 0 1-3.4898-12.918l21.184-64.697a4.1812 4.1812 170.54 0 1 7.3103-1.2185l9.0464 11.98a16.065 16.065 26.472 0 0 12.821 6.3843z" style="fill:#73ada4;stroke-linecap:round;stroke-linejoin:round;stroke-width:5;stroke:#73ada4"/>
 <path transform="matrix(.65384 0 0 .65384 193.13 24.383)" d="m-199 74.25 51.25 66-32 34.5-52.5-52 14-45.5z" clip-path="url(#clipPath6)" style="fill:#96dfd3"/>
 <path transform="matrix(.65384 0 0 .65384 193.13 24.383)" d="m-96.5 74.25-51.25 66 32 34.5 52.5-52-14-45.5z" clip-path="url(#clipPath5)" style="fill:#96dfd3"/>
</svg>
