<?xml version="1.0" encoding="UTF-8" standalone="no"?>
<!DOCTYPE svg PUBLIC "-//W3C//DTD SVG 1.1//EN" "http://www.w3.org/Graphics/SVG/1.1/DTD/svg11.dtd">
<svg width="100%" height="100%" viewBox="0 0 192 192" version="1.1" xmlns="http://www.w3.org/2000/svg" xmlns:xlink="http://www.w3.org/1999/xlink" xml:space="preserve" xmlns:serif="http://www.serif.com/" style="fill-rule:evenodd;clip-rule:evenodd;stroke-linejoin:round;stroke-miterlimit:2;">
    <path id="Shape-2" serif:id="Shape 2" d="M95.833,7.667C144.342,7.667 183.667,47.14 183.667,95.833C183.667,144.526 144.342,184 95.833,184C47.324,184 8,144.526 8,95.833C8,47.14 47.324,7.667 95.833,7.667Z" style="fill:rgb(84,104,140);"/>
    <g id="path3" transform="matrix(1.1883,0,0,1.1883,57.5349,62.7314)">
        <path d="M46.675,39.814L36.517,16.041C35.566,13.614 34.802,13.218 31.742,13.218L31.742,12.348L39.262,12.348C42.112,12.348 44.354,12.796 45.989,16.622L55.936,39.155C56.676,40.844 58.68,42.137 60.475,42.137C61.635,42.032 63.957,42.111 63.957,39.631L63.955,9.124C63.954,4.088 59.872,0.006 54.836,0.005L23.852,0L8.865,0L9.12,0.005C4.084,0.006 0.002,4.088 0.002,9.124L0.002,12.349L12.136,12.349C14.986,12.349 16.252,12.138 18.046,16.57L27.861,39.155C28.6,40.844 28.969,42.427 32.188,42.427L32.188,43.271L24.59,43.271C22.057,43.271 20.263,43.06 18.785,39.789L8.865,17.098C7.493,14.565 6.332,13.536 3.377,13.51C2.216,13.615 0,14.381 0,16.175L0.002,46.967C0.002,52.003 4.084,56.085 9.12,56.085L54.835,56.085C59.87,56.085 63.954,52.003 63.954,46.967L63.956,43.273L52.663,43.273C50.13,43.27 48.152,43.086 46.675,39.814ZM46.172,43.269L38.626,43.269C36.093,43.269 34.087,42.847 32.61,39.575L22.478,16.04C21.528,13.613 20.473,13.19 17.413,13.19L17.413,12.346L26.173,12.346C29.023,12.346 30.289,12.135 32.084,16.568L41.793,39.153C42.531,40.841 42.795,42.425 46.172,42.425L46.172,43.269Z" style="fill:white;fill-rule:nonzero;"/>
    </g>
</svg>
