<?xml version="1.0" encoding="UTF-8"?>
<svg version="1.1" viewBox="0 0 192 192" xmlns="http://www.w3.org/2000/svg">
 <rect class="a" x="20" y="20" width="152" height="152" rx="10" style="fill:#728dbe"/>
 <g transform="translate(2.8676 1.5355)">
  <path d="m87.346 85.648c-6.5695-2.6406-15.764-6.973-16.306-7.6833-1.054-1.3816-0.53092-4.0594 0.95512-4.8897 1.1624-0.64943 1.7326-0.63535 5.5487 0.13702 11.169 2.2606 14.805 3.3141 16.178 4.6875 1.8671 1.8671 1.8741 4.6942 0.01655 6.6827-1.7209 1.8422-3.6579 2.1651-6.3931 1.0657z" style="fill:#ff837d;stroke-width:.48249"/>
  <path d="m100.85 87.829c0.85031-7.0291 2.6554-17.031 3.2012-17.739 1.0617-1.3756 3.7837-1.5635 4.9703-0.34296 0.92815 0.95468 1.0621 1.5091 1.3038 5.3951 0.70716 11.373 0.63063 15.158-0.34054 16.84-1.3202 2.2868-4.0492 3.0252-6.4507 1.7456-2.2248-1.1855-3.038-2.9729-2.684-5.8994z" style="fill:#ff837d;stroke-width:.48249"/>
  <path d="m103.12 102.62c6.8715-1.707 16.861-3.5798 17.717-3.3214 1.6634 0.50261 2.8077 2.9795 2.0894 4.5228-0.56186 1.2071-1.0323 1.5297-4.5779 3.1385-10.377 4.7086-13.941 5.9841-15.859 5.6751-2.6069-0.41998-4.2682-2.7074-3.9271-5.4071 0.31607-2.5011 1.697-3.8972 4.5579-4.6078z" style="fill:#ff837d;stroke-width:.48249"/>
  <path d="m130.39 99.377c-6.5683-2.6434-15.761-6.9797-16.302-7.6902-1.0534-1.382-0.52919-4.0597 0.9572-4.8893 1.1626-0.64893 1.7329-0.6346 5.5486 0.13939 11.168 2.2653 14.804 3.3204 16.176 4.6944 1.8663 1.8679 1.8721 4.695 0.0137 6.6827-1.7217 1.8415-3.6588 2.1635-6.3935 1.063z" style="fill:#ff837d;stroke-width:.48249"/>
  <path d="m107.47 61.163c-4.5226 5.4476-11.459 12.877-12.3 13.176-1.6377 0.58114-4.0274-0.73558-4.3636-2.4043-0.26296-1.3053-0.07522-1.8439 1.8269-5.2411 5.567-9.943 7.6817-13.083 9.4092-13.971 2.3486-1.2069 5.0424-0.34923 6.3678 2.0273 1.2279 2.2018 0.94311 4.1447-0.93985 6.4128z" style="fill:#ff837d;stroke-width:.48249"/>
  <path d="m63.601 72.086c3.7651 5.9962 8.6605 14.904 8.6817 15.797 0.0413 1.7372-1.9551 3.597-3.6454 3.3959-1.3222-0.15732-1.7753-0.50369-4.4098-3.3706-7.7104-8.3907-10.034-11.379-10.339-13.298-0.4141-2.6078 1.2411-4.8998 3.9125-5.4177 2.4749-0.47982 4.2321 0.39678 5.7996 2.8933z" style="fill:#ff837d;stroke-width:.48249"/>
  <path d="m80.629 97.857c-4.602 5.3807-11.646 12.708-12.492 12.994-1.646 0.55707-4.0162-0.79452-4.3278-2.468-0.2438-1.309-0.0482-1.8448 1.9035-5.2138 5.7121-9.8604 7.8726-12.969 9.613-13.831 2.366-1.1723 5.047-0.2753 6.3374 2.1204 1.1955 2.2195 0.88226 4.1581-1.0337 6.3983z" style="fill:#ff837d;stroke-width:.48249"/>
  <path d="m89.84 108.35c3.9013 5.9085 8.9993 14.701 9.041 15.594 0.08105 1.7358-1.8723 3.6408-3.5668 3.4784-1.3254-0.12699-1.7864-0.46291-4.4858-3.2687-7.9005-8.212-10.292-11.147-10.64-13.057-0.47368-2.5977 1.1286-4.9269 3.7874-5.5058 2.4633-0.53634 4.24 0.29981 5.8643 2.7598z" style="fill:#ff837d;stroke-width:.48249"/>
  <path d="m60.356 116.83c6.8183-1.9082 16.749-4.0738 17.611-3.8406 1.6775 0.45352 2.8941 2.8957 2.2214 4.4594-0.52614 1.2231-0.9869 1.5594-4.4836 3.2716-10.234 5.0115-13.759 6.3912-15.685 6.1388-2.6181-0.34318-4.346-2.5808-4.0843-5.2894 0.24242-2.5093 1.5818-3.9454 4.4205-4.7398z" style="fill:#ff837d;stroke-width:.48249"/>
  <path d="m101.79 133.76c0.223-7.0768 1.133-17.2 1.614-17.953 0.93542-1.4645 3.63-1.8932 4.9202-0.78283 1.0092 0.86853 1.1919 1.4089 1.7775 5.2581 1.714 11.266 1.9738 15.042 1.1557 16.804-1.1121 2.3949-3.7647 3.3727-6.2703 2.3113-2.3213-0.98331-3.29-2.6915-3.1971-5.6378z" style="fill:#ff837d;stroke-width:.48249"/>
 </g>
</svg>
