<?xml version="1.0" encoding="UTF-8"?><svg id="a" xmlns="http://www.w3.org/2000/svg" width="192" height="192" viewBox="0 0 192 192"><defs><style>.d{stroke:#83868c;}.d,.e,.f{fill:none;stroke-linecap:round;stroke-linejoin:round;}.g{fill:#ff837d;}.g,.h,.i{stroke-width:0px;}.e{stroke:#fff;}.h{fill:#fff;}.f{stroke:#b1b5bd;}.i{fill:#56595b;isolation:isolate;}</style></defs><g id="b"><g id="c"><circle class="i" cx="96" cy="96" r="88"/><path class="g" d="m87.03,87.08l8.97-44.08,8.97,44.08h-17.95Z"/><path class="h" d="m87.08,87.02l-44.08,8.98,44.05,9.02,8.95,43.98,9.18-44.08,43.82-8.92-43.98-8.96-17.94-.02Z"/><line class="e" x1="15" y1="96" x2="25" y2="96"/><line class="e" x1="177" y1="96" x2="167" y2="96"/><line class="e" x1="96" y1="15" x2="96" y2="25"/><line class="e" x1="96" y1="177" x2="96" y2="167"/><line class="f" x1="55.5" y1="25.85" x2="60.5" y2="34.51"/><line class="f" x1="136.5" y1="166.15" x2="131.5" y2="157.49"/><line class="f" x1="166.15" y1="55.5" x2="157.49" y2="60.5"/><line class="f" x1="25.85" y1="136.5" x2="34.51" y2="131.5"/><line class="f" x1="166.15" y1="136.5" x2="157.49" y2="131.5"/><line class="f" x1="25.85" y1="55.5" x2="34.51" y2="60.5"/><line class="f" x1="55.5" y1="166.15" x2="60.5" y2="157.49"/><line class="f" x1="136.5" y1="25.85" x2="131.5" y2="34.51"/><line class="d" x1="38.72" y1="153.28" x2="42.26" y2="149.74"/><line class="d" x1="38.72" y1="38.72" x2="42.26" y2="42.26"/><line class="d" x1="153.28" y1="38.72" x2="149.74" y2="42.26"/><line class="d" x1="153.28" y1="153.27" x2="149.74" y2="149.74"/><line class="d" x1="116.96" y1="174.24" x2="115.67" y2="169.41"/><line class="d" x1="17.76" y1="116.96" x2="22.59" y2="115.67"/><line class="d" x1="75.03" y1="17.76" x2="76.33" y2="22.59"/><line class="d" x1="174.24" y1="75.03" x2="169.41" y2="76.33"/><line class="d" x1="17.76" y1="75.03" x2="22.59" y2="76.33"/><line class="d" x1="116.96" y1="17.76" x2="115.67" y2="22.59"/><line class="d" x1="174.24" y1="116.96" x2="169.41" y2="115.67"/><line class="d" x1="75.04" y1="174.24" x2="76.33" y2="169.41"/></g></g></svg>