<?xml version="1.0" encoding="UTF-8"?>
<svg version="1.1" viewBox="0 0 192 192" xmlns="http://www.w3.org/2000/svg">
 <rect class="a" x="20" y="20" width="152" height="152" rx="10" style="fill:#ff837d"/>
 <path d="m67.177 58.158c-4.9968 0-9.0194 4.0227-9.0194 9.0194v7.7351c1.0714-0.06195 2.1487-0.10201 3.2352-0.10201 30.633 0 55.601 24.967 55.601 55.601 0 1.1531-0.0469 2.2952-0.11665 3.4313h7.9459c4.9968 0 9.0194-4.0227 9.0194-9.0194v-57.646c0-4.9968-4.0227-9.0194-9.0194-9.0194zm-5.7842 29.201c-1.09 0-2.166 0.05357-3.2352 0.13234v13.093c17.643 1.0954 31.815 15.514 32.514 33.258h13.626c0.0887-1.1332 0.14705-2.2746 0.14705-3.4313 0-23.852-19.201-43.052-43.052-43.052zm-3.2352 25.804v11.66c0 4.9968 4.0227 9.0194 9.0194 9.0194h10.935c-0.65737-10.945-9.1203-19.65-19.954-20.679z" style="fill:#fff;stroke-linecap:round;stroke-linejoin:round;stroke-width:5.0195"/>
</svg>
