<?xml version="1.0" encoding="UTF-8"?><svg id="a" xmlns="http://www.w3.org/2000/svg" viewBox="0 0 192 192"><g id="b"><g id="c"><rect id="d" x="20" y="20" width="152" height="152" rx="10" ry="10" style="fill:#54688c;"/><path d="M114.94,74.47l-6.28,5.71c7.36,9.24,7.36,22.41,0,31.64l6.28,5.71c10.28-12.46,10.28-30.6,0-43.06Z" style="fill:#fff;"/><path d="M122.64,123.23l6.27,5.7c16.12-18.92,16.12-46.93,0-65.85l-6.27,5.7c13.2,15.69,13.2,38.77,0,54.46Z" style="fill:#fff;"/><path d="M77.06,117.53l6.28-5.71c-7.36-9.24-7.36-22.41,0-31.64l-6.28-5.71c-10.28,12.46-10.28,30.6,0,43.06Z" style="fill:#fff;"/><path d="M69.36,68.77l-6.27-5.7c-16.12,18.92-16.12,46.93,0,65.85l6.27-5.7c-13.2-15.69-13.2-38.77,0-54.46Z" style="fill:#fff;"/><path d="M88.62,88.61c-2.04,2.04-3.06,4.71-3.07,7.38,0,2.67,1.02,5.35,3.05,7.39,4.08,4.08,10.69,4.09,14.77.01,2.04-2.04,3.06-4.71,3.07-7.38,0-2.67-1.02-5.35-3.05-7.39-4.08-4.08-10.69-4.09-14.77-.01Z" style="fill:#fff;"/></g></g></svg>