<?xml version="1.0" encoding="UTF-8" standalone="no"?>
<!DOCTYPE svg PUBLIC "-//W3C//DTD SVG 1.1//EN" "http://www.w3.org/Graphics/SVG/1.1/DTD/svg11.dtd">
<svg width="100%" height="100%" viewBox="0 0 192 192" version="1.1" xmlns="http://www.w3.org/2000/svg" xmlns:xlink="http://www.w3.org/1999/xlink" xml:space="preserve" xmlns:serif="http://www.serif.com/" style="fill-rule:evenodd;clip-rule:evenodd;stroke-linecap:round;stroke-linejoin:round;stroke-miterlimit:1.5;">
    <rect id="Artboard1" x="0" y="0" width="192" height="192" style="fill:none;"/>
    <g id="Artboard11" serif:id="Artboard1">
        <path d="M172.019,35.556L172.019,157.346C172.019,165.859 165.107,172.77 156.595,172.77L35.405,172.77C26.893,172.77 19.981,165.859 19.981,157.346L19.981,35.556C19.981,27.043 26.893,20.131 35.405,20.131L156.595,20.131C165.107,20.131 172.019,27.043 172.019,35.556Z" style="fill:rgb(154,190,255);"/>
        <g transform="matrix(2.12401,0,0,1.795249,-10.23279,-0.195535)">
            <path d="M56.352,56.561L61.8,56.784L56.214,70.588L62.47,70.588L49.05,89.906L53.661,74.695L49.511,74.439L56.352,56.561Z" style="fill:rgb(249,222,129);"/>
        </g>
        <g transform="matrix(1,0,0,1,-2,3)">
            <g transform="matrix(1.527989,0,0,1.527989,102.159646,46.719728)">
                <ellipse cx="10.008" cy="10.339" rx="9.826" ry="10.227" style="fill:rgb(249,222,129);"/>
            </g>
            <g transform="matrix(1,0,0,1,-2.022188,6.642532)">
                <path d="M138.485,55.872C148.158,56.082 154.046,55.662 149.315,55.767" style="fill:none;stroke:rgb(249,222,129);stroke-width:2.08px;"/>
            </g>
            <g transform="matrix(0.010987,-0.99994,0.99994,0.010987,59.524629,181.150473)">
                <path d="M138.485,55.872C148.158,56.082 154.046,55.662 149.315,55.767" style="fill:none;stroke:rgb(249,222,129);stroke-width:2.08px;"/>
            </g>
            <g transform="matrix(0.702921,-0.711268,0.711268,0.702921,-6.102353,108.196897)">
                <path d="M138.485,55.872C148.158,56.082 154.046,55.662 149.315,55.767" style="fill:none;stroke:rgb(249,222,129);stroke-width:2.08px;"/>
            </g>
            <g transform="matrix(-0.714528,-0.699607,0.699607,-0.714528,163.112467,185.555223)">
                <path d="M138.485,55.872C148.158,56.082 154.046,55.662 149.315,55.767" style="fill:none;stroke:rgb(249,222,129);stroke-width:2.08px;"/>
            </g>
            <g transform="matrix(-0.714528,-0.699607,0.699607,-0.714528,200.981159,217.306882)">
                <path d="M138.485,55.872C148.158,56.082 154.046,55.662 149.315,55.767" style="fill:none;stroke:rgb(249,222,129);stroke-width:2.08px;"/>
            </g>
        </g>
        <g transform="matrix(1.795249,0,0,1.795249,-18.171047,-3.80516)">
            <path d="M44.663,62.888C37.049,62.859 33.675,60.774 34.139,53.446C34.884,45.459 39.211,43.75 45.433,44.663C44.156,36.008 49.422,28.534 57.955,28.693C64.574,28.816 71.617,34.616 70.075,42.866C72.664,39.687 77.579,39.591 81.626,41.84C84.753,43.578 85.242,49.461 83.422,51.594C88.186,51.532 90.638,53.452 90.61,57.497C90.586,60.967 88.448,63.512 83.721,63.222C86.76,63.31 76.658,63.384 70.709,63.536C68.793,63.586 62.755,63.629 66.995,63.658" style="fill:rgb(114,141,190);"/>
        </g>
    </g>
</svg>
