<?xml version="1.0" encoding="UTF-8"?><svg id="a" xmlns="http://www.w3.org/2000/svg" viewBox="0 0 192 192"><g id="b"><g id="c"><rect x="8" y="32" width="176" height="128" rx="10" ry="10" style="fill:#73ada4; isolation:isolate;"/><path d="M41,80.99h10.32c.94,0,3.75-.31,5,4.07.94,2.81,2.19,7.19,4.07,13.76h.63c1.88-6.88,3.44-11.57,4.07-13.76,1.25-4.38,4.38-4.07,5.63-4.07h9.69v30.02h-10.01v-17.82h-.63l-5.32,17.82h-7.51l-5.32-17.82h-.94v17.82h-9.69M84.47,80.99h10.01v17.82h.94l6.57-14.7c1.25-2.81,4.07-3.13,4.07-3.13h9.38v30.02h-10.01v-17.82h-.63l-6.57,14.7c-1.25,2.81-4.38,3.13-4.38,3.13h-9.38M128.87,101.94v9.07h-9.38v-15.64h30.65c-1.25,3.75-5.63,6.57-10.63,6.57" style="fill:#fff;"/><path d="M150.76,93.5c1.25-5.63-2.5-12.51-10.63-12.51h-21.26c.63,6.57,6.25,12.51,12.2,12.51" style="fill:#9abeff;"/></g></g></svg>