<?xml version="1.0" encoding="UTF-8"?>
<svg version="1.1" viewBox="0 0 192 192" xmlns="http://www.w3.org/2000/svg">
 <defs>
  <clipPath id="clipPath18">
   <path d="m0 148.64h500v-148.64h-500z"/>
  </clipPath>
 </defs>
 <rect class="a" x="20" y="20" width="152" height="152" rx="10" style="fill:#54688c"/>
 <g transform="matrix(.34935 0 0 -.34935 48.412 113.18)" clip-path="url(#clipPath18)">
  <g transform="matrix(.53558 0 0 .53558 44.126 79.506)" style="fill:#fff">
   <path d="m0 0c-4.063-10.347-8.4-20.731-12.869-31.186l-6.046-13.86-6.117 13.86c-4.612 10.455-9.033 20.839-13.179 31.186h-33.839v-2.712c3.752 0 6.835-3.131 6.835-6.99-0.55-7.145-1.147-14.303-1.876-21.484l-2.246-21.818c-1.076-10.443-2.295-20.85-3.716-31.185h10.813c0.669 10.335 1.505 20.742 2.557 31.185l3.334 32.895c4.803-10.001 9.403-20.062 13.86-30.147l1.231-2.748c4.624-10.443 9.021-20.85 13.191-31.185h3.274c4.086 10.335 8.412 20.742 12.904 31.185l1.948 4.481c4.361 10.085 8.901 20.145 13.585 30.134l3.525-34.615c1.052-10.443 1.924-20.85 2.557-31.185h24.877c-1.434 10.335-2.665 20.742-3.716 31.185l-2.222 21.818c-1.04 10.455-1.936 20.839-2.545 31.186z" style="fill:#fff"/>
  </g>
  <g transform="matrix(.53558 0 0 .53558 103.89 38.897)" style="fill:#fff">
   <path d="m0 0c2.712 5.162 5.64 10.383 8.746 15.605l30.218 50.291v2.127h-66.493v-15.473h2.628c0 3.728 2.868 6.775 6.452 7.002 2.079 0.071 4.147 0.107 6.19 0.107h21.459c-2.664-5.054-5.508-10.156-8.579-15.258l-30.373-50.65v-2.115h71.715v8.985c-5.042-0.406-10.156-0.621-15.246-0.621z" style="fill:#fff"/>
  </g>
  <g transform="matrix(.53558 0 0 .53558 169.73 34.416)" style="fill:#fff">
   <path d="m0 0c0.215 0.012 0.43 0.036 0.633 0.048-0.394 5.162-0.633 10.335-0.633 15.545v18.926h29.692v-18.926c0-5.21-0.179-10.431-0.573-15.593h22.869c-0.418 5.162-0.609 10.383-0.609 15.593v45.189c0 5.246 0.191 10.431 0.609 15.617h-29.154v-2.414h0.657c3.25 0 5.867-2.568 6.094-5.819 0.071-2.449 0.107-4.91 0.107-7.384v-17.887h-29.692v17.887c0 5.246 0.191 10.431 0.609 15.617h-29.142v-2.414h0.633c3.238 0 5.867-2.545 6.094-5.783 0.084-2.473 0.131-4.934 0.131-7.42v-52.896c-2.999-0.382-6.082-0.562-9.2-0.562-3.358 0-6.667 0.263-9.893 0.789-9.153 1.745-10.611 10.336-10.611 15.689v37.422c0 5.079 0.227 10.133 0.61 15.175h-29.143v-2.414h0.621c3.25 0 5.855-2.545 6.082-5.771 0.084-2.485 0.132-4.946 0.132-7.432v-33.36c0-7.504 2.377-24.088 22.738-27.099 6.356-0.873 12.856-1.374 19.464-1.374 10.371 0 20.671 0.37 30.875 1.051" style="fill:#fff"/>
  </g>
  <g transform="matrix(.53558 0 0 .53558 250 54.871)" style="fill:#fff">
   <path d="m0 0c0-26.024-22.499-39.239-44.664-39.239-22.164 0-44.616 13.215-44.616 39.239 0 26.036 22.452 39.251 44.616 39.251 22.165 0 44.664-13.215 44.664-39.251m-21.77 0c-0.024 14.183-5.951 30.875-22.894 30.875-16.919 0-22.869-16.692-22.869-30.875 0-14.171 5.95-30.863 22.869-30.863 16.943 0 22.87 16.692 22.894 30.863" style="fill:#fff"/>
  </g>
  <g transform="matrix(.53558 0 0 .53558 82.417 66.97)" style="fill:#fff">
   <path d="m0 0c0 5.245 0.191 10.431 0.633 15.617h-29.919v-2.713h0.621c3.872 0 6.895-3.13 6.895-7.025 0.059-1.936 0.083-3.896 0.083-5.879v-45.189c0-5.21-0.203-10.432-0.549-15.593h22.869c-0.442 5.161-0.633 10.383-0.633 15.593z" style="fill:#fff"/>
  </g>
  <g transform="matrix(.53558 0 0 .53558 27.284 11.943)" style="fill:#ff837d">
   <path d="m0 0c60.245 13.502 122.86 20.635 187.14 20.635 90.75 0 178.32-13.609 260.81-38.916 0.311-0.096 0.49-0.383 0.43-0.729-0.071-0.323-0.418-0.574-0.74-0.502-84.775 13.992-171.61 21.973-260.06 23.515-63.184 1.111-125.62-1.123-187.17-6.452-0.621-0.06-1.171 0.334-1.338 0.943-0.155 0.67 0.263 1.351 0.932 1.506" style="fill:#ff837d"/>
  </g>
 </g>
</svg>
