<?xml version="1.0" encoding="UTF-8"?><svg id="a" xmlns="http://www.w3.org/2000/svg" width="192" height="192" xmlns:xlink="http://www.w3.org/1999/xlink" viewBox="0 0 192 192"><defs><style>.e{clip-path:url(#d);}.f{fill:none;}.f,.g,.h{stroke-width:0px;}.g{fill:#f8c18c;fill-rule:evenodd;}.h{fill:#fff;}</style><clipPath id="d"><rect class="f" x="20" y="20" width="152" height="152" rx="10" ry="10"/></clipPath></defs><g id="b"><g id="c"><g class="e"><rect class="h" x="20" y="20" width="152" height="152" rx="10" ry="10"/><path class="g" d="m108.84,17.9v37.16s.03.34.03.34c.07.44.27.82.62,1.17.27.27.58.46.91.56l.26.06.33.03h11.75l.37-.02c.47-.06.88-.26,1.22-.58.29-.27.48-.59.57-.95l.05-.29.02-.31V17.94s1.22.03,1.22.03l2.31.07,2.17.1,2.03.13c1.64.12,3.14.27,4.54.44v.19s-.07,1.41-.07,1.41l-.05,2.31-.03,3.81v2.47s.02,3.02.02,3.02l.03,1.8.03.98c.29,7.67,2.77,13.49,7.46,17.44,4.69,3.95,11.1,5.93,19.22,5.93,3.51,0,6.7-.37,9.56-1.11.09.89.16,1.82.23,2.8l.12,2.02.09,2.16c.01.37.03.75.04,1.13l.05,2.37c.01.82.02,1.66.03,2.53v2.82c-3.02-.9-6.4-1.35-10.12-1.35-8.01,0-14.4,2.05-19.18,6.14-4.58,3.92-7.07,9.44-7.47,16.55l-.06,1.41-.05,2.31-.03,3.81v2.48s.02,3.02.02,3.02l.03,1.8.03.98c.29,7.67,2.77,13.49,7.46,17.44,4.69,3.95,11.1,5.93,19.22,5.93,3.61,0,6.87-.39,9.8-1.17l-.51,39.86-29.97.23v-23.11s-.02-.31-.02-.31c-.06-.49-.25-.91-.58-1.24-.27-.27-.58-.45-.95-.53l-.29-.05-.31-.02h-23.08l-1.12.02c-4.44.12-8.3.96-11.57,2.52-3.55,1.69-6.23,4.05-8.06,7.09-1.83,3.04-2.75,6.5-2.75,10.39,0,2.58.38,4.95,1.15,7.11h-24.29c-.83,0-1.63,0-2.41-.01l-2.28-.03-2.15-.06c-.35-.01-.69-.02-1.03-.04l-1.97-.09-1.86-.11c-.6-.04-1.18-.09-1.75-.14l-1.65-.16c-1.87-.2-3.55-.44-5.08-.73l-1.28-.26-1.21-.28c-.39-.1-.78-.2-1.15-.3l-1.1-.32c-.54-.17-1.06-.34-1.57-.52l-1-.37.03-.85c.23-7.22,3.57-10.82,10.04-10.82,2.69,0,4.85.56,6.48,1.67l.85.59c1.31.93,2.77,2.1,3.86,3.86l.35.61c.97,1.83,1.89,2.07,2.64,2.06l.33-.02.3-.02s.09,0,.14,0c.1,0,.26-.05.49-.14l.39-.17.77-.39.99-.54,1.21-.7,1.95-1.17,1.72-1.06c1.22-.75,2.14-2.11,1.93-4.24-.21-2.14-5.01-6.72-9.45-9.32l-1.03-.6-.98-.55c-3.22-1.73-5.98-2.62-11.91-2.9l-.91-.04-1-.02h-.98c-7.15.16-12.95,2.56-17.28,6.26-2.62,2.24-4.56,5.01-5.81,8.3-2.6,8.03-1.68,25.11-1.68,25.11l-15-24.5,2.17-13.33c-2.12-4.51,4.51-6.74,3.91-15.61,2.93.78,6.19,1.17,9.8,1.17,8.12,0,14.51-1.98,19.18-5.93,4.66-3.95,7.14-9.77,7.42-17.44l.11-3.49.05-2.15.02-1.75v-1.54s-.09-3.4-.09-3.4l-.08-2.53c-.23-7.56-2.73-13.39-7.51-17.48-4.78-4.1-11.14-6.14-19.09-6.14-3.73,0-7.1.44-10.13,1.33v-3.79s.05-2.18.05-2.18l.05-2.07.07-1.95.09-1.85.11-1.75c.02-.28.04-.56.06-.84l.14-1.61.16-1.52.18-1.44c.03-.23.07-.46.1-.69l.21-1.32c.07-.43.15-.85.23-1.26l-.09-31.47,30.01.58,1.19-.25c.41-.08.82-.16,1.25-.23l1.32-.21c.23-.03.46-.07.69-.1l1.43-.18,1.52-.16,1.6-.14,1.7-.12,1.79-.1,1.9-.08,2.01-.06,2.12-.04,2.24-.02h7.7c-.06,7.12-.62,12.77-1.68,16.97l-.2.77c-1.26,4.52-3.4,7.04-6.43,7.56-1.18.24-1.87.78-2.08,1.64l-.05.3v.29s-.01,9.54-.01,9.54l.02.28c.06.46.29.88.67,1.26.46.46.97.69,1.54.69,6.52-.11,11.48-1.45,14.89-3.99,3.4-2.55,5.73-6.52,6.99-11.9,1.14-4.86,1.76-11.49,1.87-19.89v-1.42s.02-2.11.02-2.11h15.44Zm18.31,141.45v14.67s-2.47.06-2.47.06l-2.63.03h-4.43c-2-.11-3.55-.72-4.63-1.82-1.2-1.23-1.8-2.99-1.8-5.28s.63-4.14,1.89-5.54c1.04-1.16,2.41-1.84,4.11-2.04l.58-.05h.55s8.84-.01,8.84-.01Zm-31.42-87.9c-8.06,0-14.46,2.02-19.18,6.06-4.72,4.04-7.22,9.78-7.51,17.23l-.03.9-.04,2.98v2.29s-.01,3.11-.01,3.11l.04,4.11.03,1.49v.41c.3,7.62,2.77,13.4,7.44,17.35,4.66,3.95,11.08,5.93,19.26,5.93,5.09,0,9.65-.83,13.68-2.49,4.03-1.66,7.22-4.07,9.57-7.22,2.34-3.15,3.57-6.87,3.69-11.17,0-.52-.19-.95-.56-1.29-.22-.21-.47-.35-.75-.43l-.28-.06-.3-.02h-12.57c-.61.06-1.09.21-1.42.47-.33.26-.61.71-.82,1.35l-.12.41c-.74,2.75-1.96,4.7-3.65,5.84-1.69,1.14-3.85,1.72-6.48,1.72-6.26,0-9.6-3.39-10.01-10.16l-.05-1.19-.04-1.87-.03-3.15v-4.2s.04-3.24.04-3.24l.04-1.45c.23-7.22,3.58-10.83,10.04-10.83,2.69,0,4.85.56,6.48,1.68,1.63,1.12,2.85,3.08,3.65,5.89.29.86.61,1.45.99,1.76.25.21.59.35,1.03.42l.35.04h.38s12.18.01,12.18.01l.3-.02c.39-.06.73-.22,1.03-.5.37-.34.56-.77.56-1.29-.11-4.3-1.34-8.02-3.69-11.17-2.34-3.15-5.53-5.56-9.57-7.22-4.03-1.66-8.59-2.49-13.68-2.49Zm68.15,12.89c2.97,0,5.35.9,7.12,2.71,1.77,1.8,2.72,4.57,2.83,8.29l.13,4.15.04,2.02v1.59l-.05,2.68-.11,3.66c-.11,3.72-1.06,6.49-2.83,8.29-1.77,1.8-4.15,2.71-7.12,2.71s-5.43-.9-7.21-2.71c-1.65-1.68-2.59-4.2-2.8-7.56l-.05-1.25-.04-1.82-.02-2.2v-5.13l.02-2.15.04-1.77.02-.5c.11-3.72,1.06-6.49,2.83-8.29,1.77-1.8,4.18-2.71,7.21-2.71Zm-135.74,0c2.97,0,5.35.9,7.12,2.71,1.77,1.8,2.72,4.57,2.83,8.29l.13,4.15.04,2.02v1.59l-.05,2.68-.11,3.66c-.11,3.72-1.06,6.49-2.83,8.29-1.77,1.8-4.15,2.71-7.12,2.71s-5.43-.9-7.21-2.71c-1.65-1.68-2.59-4.2-2.8-7.56l-.05-1.25-.04-1.82-.03-3.02v-3.51l.03-2.96.04-1.77.02-.5c.11-3.72,1.06-6.49,2.83-8.29,1.77-1.8,4.18-2.71,7.21-2.71Zm16.23-43.27c-4.52,0-8.22,3.61-8.16,8.07-.06,4.52,3.64,8.17,8.16,8.17s8.09-3.64,8.16-8.17c-.06-4.46-3.86-8.07-8.16-8.07Zm124.08-1.86c.68,1.27,1.3,2.55,1.86,3.89-1.68,1.39-3.82,2.08-6.43,2.08-3.03,0-5.43-.9-7.21-2.71-1.65-1.68-2.59-4.2-2.8-7.56l-.05-1.25-.04-1.82-.02-2.2v-4.93c0-.23,0-.46,0-.68,6.28,3.61,11.24,8.73,14.68,15.17Z"/><path class="g" d="m163.88,9.1c2.97,0,5.35.9,7.12,2.71,1.77,1.8,2.72,4.57,2.83,8.29l.13,4.15.04,2.02v1.59l-.05,2.68-.11,3.66c-.11,3.72-1.06,6.49-2.83,8.29-1.77,1.8-4.15,2.71-7.12,2.71s-5.43-.9-7.21-2.71c-1.65-1.68-2.59-4.2-2.8-7.56l-.05-1.25-.04-1.82-.02-2.2v-5.13l.02-2.15.04-1.77.02-.5c.11-3.72,1.06-6.49,2.83-8.29,1.77-1.8,4.18-2.71,7.21-2.71Z"/><path class="g" d="m53.83,160.46c2.97,0,5.35.9,7.12,2.71,1.77,1.8,2.72,4.57,2.83,8.29l.13,4.15.04,2.02v1.59l-.05,2.68-.11,3.66c-.11,3.72-1.06,6.49-2.83,8.29-1.77,1.8-4.15,2.71-7.12,2.71s-5.43-.9-7.21-2.71c-1.65-1.68-2.59-4.2-2.8-7.56l-.05-1.25-.04-1.82-.02-2.2v-5.13l.02-2.15.04-1.77.02-.5c.11-3.72,1.06-6.49,2.83-8.29,1.77-1.8,4.18-2.71,7.21-2.71Z"/></g></g></g></svg>