<?xml version="1.0" encoding="UTF-8"?>
<svg version="1.1" viewBox="0 0 192 192" xmlns="http://www.w3.org/2000/svg">
 <style type="text/css">.st0{fill:#79242F;}
	.st1{fill:#AA182C;}
	.st2{fill:#FFFFFF;}</style>
 <g transform="matrix(.30263 0 0 .30263 44.976 19.076)">
  <path class="st0" d="m419.6 373.4c-27.1 47.6-82.8 72.8-138.9 93.6s-112.1 57.9-112.1 57.9-56.1-37.1-112.1-57.9-111.8-46-138.9-93.6 20.5-180 20.5-218.7-27.1-99.4-27.1-99.4l110.3-28.1 64.2 22.3 83.1-24.6 83.1 24.6 64.2-22.3 110.4 28.2s-27.1 60.8-27.1 99.3c-0.1 38.7 47.5 171.2 20.4 218.7z" style="fill:#ba6561"/>
  <path class="st1" d="m56.5 467c-56.1-20.8-111.8-46-138.9-93.6s20.5-180 20.5-218.7-27.1-99.4-27.1-99.4l110.3-28.1 64.2 22.3 83.1-24.6v500s-56.1-37.1-112.1-57.9z" style="fill:#ff837d"/>
  <path class="st0" d="m280.6 467c56.1-20.8 111.8-46.1 138.9-93.6 27.1-47.6-20.5-180-20.5-218.7s27.1-99.3 27.1-99.3l-110.3-28.2-64.2 22.3-83-24.6v500s56-37.1 112-57.9z" style="fill:#ba6561"/>
  <path class="st2" d="m8.9 144.6h-31.7c-0.2 0-0.3 0.2-0.3 0.3v206.9c0 0.2 0.2 0.3 0.3 0.3h30.4c0.2 0 0.3-0.2 0.3-0.3v-129.5c0-0.3 0.5-0.4 0.7-0.1l25.1 66.9h1.7l25.2-67c0.2-0.3 0.7-0.3 0.7 0.1v129.8c0 0.2 0.2 0.3 0.3 0.3h30.4c0.2 0 0.3-0.2 0.3-0.3v-207c0-0.2-0.2-0.3-0.3-0.3h-31.7c-0.2 0-0.3 0.1-0.3 0.3l-25.1 69.6c-0.1 0.3-0.5 0.3-0.6 0l-25.1-69.7c0-0.2-0.2-0.3-0.3-0.3zm202.6 13.4c-8.7-10.6-28.3-16.5-43-16.5-14.6 0-34.7 6.2-42.8 16.5-10 12.5-12.4 20.4-12.4 51.9v74.7c0 31.5 2.4 42.4 12.4 54.6 8.7 10.3 28.2 16.3 42.8 16.3 14.7 0 34.9-5.9 43-16.3 10-12.8 12.5-23.4 12.5-54.6v-74.7c0-31.2-2.5-40-12.5-51.9zm-18.7 129.9c0 33.8-9.9 38.4-24.3 38.4s-24.1-4.5-24.1-38v-78.5c0-34.9 9.9-39.2 24.1-39.2s24.3 4.3 24.3 39.2zm111.4 64.3c33.9 0 50-18.7 50-58.9v-90.1c0-39.9-16.1-58.6-50-58.6h-59c-0.2 0-0.3 0.2-0.3 0.3v206.9c0 0.2 0.2 0.3 0.3 0.3h59zm-29.5-29.4v-148.9c0-0.2 0.2-0.3 0.3-0.3h25.9c17.6 0 23.5 9.1 23.5 35.6v78.8c0 26.1-5.9 35.2-23.5 35.2h-25.9c-0.2 0-0.3-0.1-0.3-0.4z"/>
 </g>
</svg>
