<?xml version="1.0" encoding="UTF-8"?><svg viewBox="0 0 192 192" xmlns="http://www.w3.org/2000/svg"><circle cx="96" cy="96" r="88" fill="#96dfd3"/><path d="m129.18 114.96a13.016 13.016 0 00-6.0248-8.695 11.768 11.768 0 00-9.4866-.33545 8.4803 8.4803 0 00-3.368 2.2408 72.324 72.324 0 00-1.2613-7.4471 13.995 13.995 0 004.3072.24153 11.607 11.607 0 009.3927-5.5014 13.163 13.163 0 00-2.8581-16.773 39.624 39.624 0 00-5.0721-11.231c1.1271-1.3418 3.0057-4.1194 2.2945-7.125l-.1476-.81851a4.6829 4.6829 0 00-1.3418-3.1533 1.9591 1.9591 0 00-1.5297-.2952 14.867 14.867 0 00-7.2458 3.368 22.234 22.234 0 00-11.083-3.435q-1.1808 0-2.2811 0-1.1003 0-2.2811 0a22.234 22.234 0 00-11.083 3.3948 14.867 14.867 0 00-7.2458-3.368 1.9591 1.9591 0 00-1.5297.2952 4.6829 4.6829 0 00-1.3418 3.1533l-.16102.84534c-.71116 3.0057 1.1674 5.8503 2.2945 7.125a39.624 39.624 0 00-5.005 11.244 13.163 13.163 0 00-2.8581 16.773 11.607 11.607 0 009.3927 5.5014 14.505 14.505 0 002.6836 0 17.551 17.551 0 004.267 8.44s.16102.17444.40254.37571a25.991 25.991 0 00.85876 9.9965l-5.4478 3.2204a3.274 3.274 0 00-4.4414.13418c-1.6236 1.6236-.55014 4.3475.34887 5.7027 1.9725 3.0593 6.2529 1.798 6.4676 1.798l6.4944-1.8114a13.096 13.096 0 003.3009 1.1674c-.22811 1.4626.60382 3.274 2.3213 4.9916a4.4548 4.4548 0 004.0254.8856c3.3009-.5904 7.3263-3.2204 10.345-6.2797 1.4492.64407 9.8489 4.0254 17.122.08051a12.949 12.949 0 006.7762-14.706z" fill="#fff"/></svg>
