<?xml version="1.0" encoding="UTF-8"?>
<svg version="1.1" viewBox="0 0 192 192" xmlns="http://www.w3.org/2000/svg">
 <circle class="a" cx="96" cy="96" r="88" style="fill:#9abeff"/>
 <path d="m57.001 111.73v-7.2038c0.2617-1.0686 0.97387-1.964 2.1365-2.6861l7.4849-3.3526 44.961-8.4205 6.3674 8.1346 13.982 4.2362c1.7499 0.4678 2.7722 1.4554 3.0667 2.9628v6.7312c-0.71903 2.0012-2.2004 2.9628-4.4441 2.8848 0 0-0.77967-8.7843-9.9798-8.7843s-10.11 8.8623-10.11 8.8623h-27.808s-1.1468-8.9143-10.11-8.9143c-9.0655 0-9.9019 8.9922-9.9019 8.9922l-3.1447-0.026c-1.4572-0.65369-2.2907-1.7925-2.5004-3.4165z" style="fill:#fff;stroke-linejoin:round;stroke-width:4.3694;stroke:#728dbe"/>
 <circle cx="72.547" cy="116.47" r="9.2002" style="fill:#728dbe;stroke-linejoin:round;stroke-width:1.5017"/>
 <circle cx="72.547" cy="116.47" r="6.1334" style="fill:#fff;stroke-linejoin:round;stroke-width:1.0012"/>
 <circle cx="120.58" cy="116.47" r="9.2002" style="fill:#728dbe;stroke-linejoin:round;stroke-width:1.5017"/>
 <circle cx="120.58" cy="116.47" r="6.1334" style="fill:#fff;stroke-linejoin:round;stroke-width:1.0012"/>
 <path d="m66.622 98.483c-2.8415-8.5244-0.13861-20.566 6.4453-23.546l14.034-5.3018c5.8562-1.8366 11.834-1.7673 15.957 2.495 2.1484 2.6682 3.881 5.4057 5.1978 8.2126l19.804-3.4306c-1.3688 4.037-4.9033 9.5624-10.708 10.966z" style="fill:#f8c18c;stroke-linejoin:round;stroke-width:4.3694;stroke:#728dbe"/>
</svg>
