<?xml version="1.0" encoding="UTF-8"?><svg id="a" xmlns="http://www.w3.org/2000/svg" viewBox="0 0 192 192"><rect x="20" y="20" width="152" height="152" rx="10" ry="10" style="fill:#ff837d"/><path d="m40.566 31.948v54.105h10v-42.275l25.865 16.354 25.865-16.354v42.275h10v-14.924h5.2695c9.7459 0 18.477 3.0516 24.564 7.6973 6.0874 4.6457 9.4629 10.632 9.4629 17.086 0 6.4542-3.3754 12.44-9.4629 17.086-6.0874 4.6457-14.819 7.6973-24.564 7.6973h-24.918v-10.264l-10-3.5v23.764h34.918c11.808 0 22.593-3.6142 30.631-9.748s13.396-15.04 13.396-25.035-5.3589-18.901-13.396-25.035-18.823-9.748-30.631-9.748h-5.2695v-29.182h-10l-25.865 16.352-25.865-16.352zm42.082 34.182v24.973c-1.93-.27921-3.8913-.4687-5.877-.54492-.65362-.02509-1.3089-.0385-1.9668-.04102-1.9737-.0076-3.9655.08659-5.9629.28711-21.306 2.1389-38.436 16.306-38.436 34.48s17.13 32.342 38.436 34.48c19.583 1.9659 38.569-6.26 46.244-21.068h-12.203c-6.9172 7.5866-19.522 12.474-33.043 11.117-17.53-1.7598-29.434-12.835-29.434-24.529 0-11.694 11.903-22.771 29.434-24.531 14.004-1.4058 27.025 3.8899 33.762 11.943h11.902c-4.3061-8.9347-12.678-15.558-22.855-19.145v-27.422z" style="fill:#fff;"/></svg>
