<?xml version="1.0" encoding="UTF-8" standalone="no"?>
<svg
   width="192"
   height="192"
   fill="none"
   version="1.1"
   id="svg14"
   sodipodi:docname="my_toyota.svg"
   xml:space="preserve"
   inkscape:version="1.2.2 (b0a8486541, 2022-12-01)"
   inkscape:export-filename="my_toyota.png"
   inkscape:export-xdpi="96"
   inkscape:export-ydpi="96"
   xmlns:inkscape="http://www.inkscape.org/namespaces/inkscape"
   xmlns:sodipodi="http://sodipodi.sourceforge.net/DTD/sodipodi-0.dtd"
   xmlns="http://www.w3.org/2000/svg"
   xmlns:svg="http://www.w3.org/2000/svg"><sodipodi:namedview
     id="namedview16"
     pagecolor="#505050"
     bordercolor="#eeeeee"
     borderopacity="1"
     inkscape:showpageshadow="0"
     inkscape:pageopacity="0"
     inkscape:pagecheckerboard="0"
     inkscape:deskcolor="#d1d1d1"
     showgrid="false"
     inkscape:zoom="0.86915209"
     inkscape:cx="113.90411"
     inkscape:cy="81.113536"
     inkscape:window-width="1884"
     inkscape:window-height="1055"
     inkscape:window-x="36"
     inkscape:window-y="0"
     inkscape:window-maximized="1"
     inkscape:current-layer="svg14" /><defs
     id="defs12" /><style
     type="text/css"
     id="style3535">
	.st0{fill:url(#SVGID_1_);}
	.st1{fill:#FFFFFF;}
</style><rect
     class="a"
     x="20"
     y="20"
     width="152"
     height="152"
     rx="10"
     id="rect2984"
     style="isolation:isolate;fill:#ff837d;fill-opacity:1;stroke:none;stroke-width:0.999999;stroke-linecap:round;stroke-linejoin:round" /><path
     d="M 112.22223,74.778041 C 106.96451,73.184076 101.49368,72.404714 96,72.467056 90.506321,72.404714 85.035494,73.184076 79.777771,74.778041 67.769721,78.641013 59.5,86.661496 59.5,95.90544 c 0,13.01629 16.312848,23.63097 36.5,23.63097 20.14183,0 36.5,-10.56936 36.5,-23.63097 0,-9.243944 -8.24706,-17.264427 -20.27777,-21.127399 z M 96,109.39752 c -3.013344,0 -5.47161,-5.89075 -5.607524,-13.356142 1.789876,0.192586 3.670372,0.237898 5.607524,0.237898 1.92582,0 3.817647,-0.09063 5.61885,-0.226566 -0.14724,7.44274 -2.605506,13.34481 -5.61885,13.34481 z M 90.766285,90.252586 C 91.559288,85.007555 93.59839,81.337165 96,81.337165 c 2.356315,0 4.38409,3.67039 5.23371,8.904093 -3.48203,0.311294 -6.984725,0.315086 -10.467425,0.01133 z M 104.43963,89.822109 C 103.21616,81.665685 99.908297,75.774939 96,75.774939 c -3.908297,0 -7.216161,5.845433 -8.439629,14.04717 C 80.15161,88.643957 74.96322,86.049762 74.96322,82.979778 74.96322,78.833595 84.399752,75.4804 96,75.4804 c 11.60025,0 21.04811,3.353195 21.04811,7.499378 0,3.058656 -5.18839,5.709495 -12.59715,6.842331 z m -39.615296,5.233703 c 0,-4.010242 1.563313,-7.737273 4.248143,-10.988511 -0.04529,0.226566 -0.04529,0.475789 -0.04529,0.657043 0,5.052449 7.544675,9.289257 18.0574,10.897886 v 1.132836 c 0,9.334574 2.605511,17.264424 6.185294,19.994564 C 77.330866,115.80938 64.835665,106.46348 64.835665,95.055812 Z m 33.917121,21.750458 c 3.579785,-2.74146 6.173965,-10.67131 6.173965,-20.005889 v -1.132838 c 10.51272,-1.551985 18.05743,-5.845434 18.05743,-10.886558 0,-0.237895 0,-0.475789 -0.0453,-0.668371 2.67592,3.042201 4.18182,6.937441 4.24814,10.988511 0,11.362355 -12.4952,20.708255 -28.43421,21.693825 z"
     id="path363"
     style="fill:#ffffff;fill-opacity:1;stroke-width:1.13284"
     sodipodi:nodetypes="cccssscscscssscsscscsssccccscsccccscscccc" /></svg>
