<?xml version="1.0" encoding="UTF-8" standalone="no"?>
<svg
   viewBox="0 0 36864 36864"
   version="1.1"
   id="svg3"
   xml:space="preserve"
   width="36864"
   height="36864"
   xmlns="http://www.w3.org/2000/svg"
   xmlns:svg="http://www.w3.org/2000/svg"><defs
     id="defs1"><style
       id="style1">.a{fill:none;stroke:#b1b5bd;stroke-linecap:round;stroke-linejoin:round;isolation:isolate;opacity:0.63;}</style></defs><circle
     style="display:inline;fill:#54688c;fill-rule:evenodd;stroke-width:5.02421;stroke-linecap:round;stroke-linejoin:round;stroke-miterlimit:10;stroke-opacity:0.499232"
     id="path3"
     cx="96.294029"
     cy="96"
     r="61.010723" /><path
     id="rect3"
     style="display:inline;fill:#ffffff;fill-opacity:1;fill-rule:evenodd;stroke:none;stroke-width:11.9281;stroke-linecap:round;stroke-linejoin:round;stroke-miterlimit:10;stroke-dasharray:none;stroke-opacity:1"
     d="m 60.863281,101.43945 v 63.50977 h 14.996094 v -39.75977 a 30.175869,30.175869 0 0 1 -10.035156,-22.42773 30.175869,30.175869 0 0 1 0.09375,-1.32227 z" /><circle
     class="a"
     cx="96.000008"
     cy="102.76264"
     r="30.175869"
     id="circle2"
     style="display:inline;opacity:1;fill:none;stroke:#ffffff;stroke-width:10.17;stroke-dasharray:none;stroke-opacity:1" /><path
     id="rect4"
     style="display:inline;fill:#f9de81;fill-rule:evenodd;stroke-width:10.17;stroke-linecap:round;stroke-linejoin:round;stroke-miterlimit:10"
     d="m 96.178814,41.128188 65.380236,24.754884 c 0.51809,0.196164 -26.90957,8.006087 -26.90771,8.560082 l 0.0699,20.760433 c 0.002,0.553989 -7.75633,-31.154106 -38.866873,-30.828424 -33.040528,0.345886 -38.819425,31.828424 -38.819425,31.828424 -0.42841,0.351257 0.759523,-20.955738 0.247453,-21.167162 L 33.643469,65.276367 C 33.1314,65.064944 95.660709,40.932019 96.178814,41.128188 Z" /><path
     id="rect1"
     style="display:inline;opacity:1;fill:#ffffff;stroke:none;stroke-width:0.993464"
     class="a"
     d="m 30.431641,20.496094 c -5.503786,0 -9.935547,4.431761 -9.935547,9.935547 V 161.56836 c 0,5.50378 4.431761,9.93555 9.935547,9.93555 H 161.56836 c 5.50378,0 9.93555,-4.43177 9.93555,-9.93555 V 30.431641 c 0,-5.503786 -4.43177,-9.935547 -9.93555,-9.935547 z m 65.863281,14.49414 A 61.010723,61.010723 0 0 1 157.30469,96 61.010723,61.010723 0 0 1 96.294922,157.00977 61.010723,61.010723 0 0 1 35.283203,96 61.010723,61.010723 0 0 1 96.294922,34.990234 Z" /><path
     style="display:inline;fill:none;fill-opacity:1;fill-rule:evenodd;stroke:#54688c;stroke-width:1;stroke-linecap:round;stroke-linejoin:round;stroke-miterlimit:10;stroke-dasharray:none;stroke-opacity:1"
     d="m 101.04372,54.05631 49.2744,16.944574"
     id="path5" /></svg>
