<?xml version="1.0" encoding="UTF-8"?><svg id="a" xmlns="http://www.w3.org/2000/svg" viewBox="0 0 192 192"><g id="b"><g id="c"><path d="M96,140V52h78c5.52,0,10,4.48,10,10v68c0,5.52-4.48,10-10,10h-78" style="fill:#bd9aff;"/><path d="M163.32,90.28h-17.6v-17.6h-11.88v17.6h-17.6v11.88h47.08v-11.88ZM134.28,103.48v15.84h11.88v-7.92c0-5.72-5.72-7.92-11.88-7.92" style="fill:#fff;"/><path d="M96,52v88H18c-5.52,0-10-4.48-10-10V62c0-5.52,4.48-10,10-10h78Z" style="fill:#98dc9a;"/><path d="M60.36,97.32l-15.84-22.88h-13.2v43.12h14.08v-22.88l15.84,22.88h13.2v-43.12h-14.08v22.88Z" style="fill:#fff; fill-rule:evenodd;"/></g></g></svg>