<?xml version="1.0" encoding="UTF-8"?>
<svg version="1.1" viewBox="0 0 192 192" xmlns="http://www.w3.org/2000/svg">
 <circle class="a" cx="96" cy="96" r="88" style="fill:#9abeff"/>
 <g transform="matrix(6.9886 0 0 6.9886 51.623 51.838)">
  <path transform="matrix(1.7519 0 0 -1.9516 -4.4299 19.609)" d="m7.2377 5.9262c-0.57106 0.41201-0.9044 1.2429-0.73772 1.6584 0.16667 0.41545 0.83333 0.41545 1.5 0.41545s1.3333 0 1.5711-0.41202c0.23773-0.41202 0.046526-1.236-0.45348-1.6515-0.50001-0.41545-1.3088-0.42232-1.8798-0.010313z" style="fill:none;stroke-linejoin:bevel;stroke-width:.18;stroke:#56595b"/>
  <path d="m9.8754 4.8671a0.43624 0.40446 0 0 0-0.4362 0.40442 0.43624 0.40446 0 0 0 0.4362 0.40442 0.43624 0.40446 0 0 0 0.4362-0.40442 0.43624 0.40446 0 0 0-0.4362-0.40442zm-0.89239 0.7827a0.43624 0.40446 0 0 0-0.4362 0.40442 0.43624 0.40446 0 0 0 0.4362 0.40442 0.43624 0.40446 0 0 0 0.4362-0.40442 0.43624 0.40446 0 0 0-0.4362-0.40442zm1.8089 0a0.43624 0.40446 0 0 0-0.4362 0.40442 0.43624 0.40446 0 0 0 0.4362 0.40442 0.43624 0.40446 0 0 0 0.4362-0.40442 0.43624 0.40446 0 0 0-0.4362-0.40442zm-0.91648 0.80986a0.43624 0.40446 0 0 0-0.4362 0.40442 0.43624 0.40446 0 0 0 0.4362 0.40442 0.43624 0.40446 0 0 0 0.4362-0.40442 0.43624 0.40446 0 0 0-0.4362-0.40442z" style="display:block;fill:#56595b"/>
  <path transform="matrix(-1.7466 0 0 -1.9519 17.078 19.611)" d="m7.2377 5.9262c-0.57106 0.41201-0.9044 1.2429-0.73772 1.6584 0.16667 0.41545 0.83333 0.41545 1.5 0.41545s1.3333 0 1.5711-0.41202c0.23773-0.41202 0.046526-1.236-0.45348-1.6515-0.50001-0.41545-1.3088-0.42232-1.8798-0.010313z" style="fill:none;stroke-linejoin:bevel;stroke-width:.18;stroke:#56595b"/>
  <path d="m2.8717 4.9343v0.91648h-0.89239v0.2609h0.89239v0.91853h0.2609v-0.91853h0.94262v-0.2609h-0.94262v-0.91648z" style="display:block;fill:#56595b"/>
  <path d="m5.725 4.807s0.70543-0.92071 1.2325-1.417e-4" style="fill:none;stroke-linejoin:bevel;stroke-width:.32664;stroke:#56595b"/>
 </g>
</svg>
