<?xml version="1.0" encoding="UTF-8"?><svg id="a" xmlns="http://www.w3.org/2000/svg" viewBox="0 0 192 192"><g id="b"><g id="c"><path d="M115.93,161.24c1.92,1.67,4.35,3.05,6.61,4.28,8.31,4.51,29.81,14.16,32.2-1.57,1.87-12.28-10.15-32.1-16.89-42.13-11.33-16.85-24.84-32.12-39.23-46.36l18-16.66s15.68,14.99,22.72,22.95c13.88,15.68,34.26,41.9,38.52,62.5,2.59,12.54-2.79,17.13-11.46,24.61-3.57,3.08-10.5,9.06-15.14,9.52-13.74,1.38-31.72-9.56-42.69-17.18-1.25-.86-9.55-7.42-9.55-7.42l19.43-17.71s29.01,17.85,32.81,20.93c2.46,1.99,1.26,7.88-.74,10.21-4.7,5.48-15.95,1.83-21.71-.24-4.44-1.6-8.6-3.72-12.85-5.74Z" style="fill:#728dbe;"/><path d="M73.95,29.09c-8.8-5.38-30.71-17.41-35.8-1.04-6.27,20.15,32.97,62.44,55.42,87.13l-19.32,16.36S23.47,82.22,16.43,54.48c-3.28-12.94.76-26.84,11.26-35.06,19.83-15.52,42.47,2.72,64.53,17.28l-18.86,16.5-29.99-16.78c-3.35-2.34-3.4-5.14-3.27-7.02,2.4-16.29,24.82-3.76,33.87-.32Z" style="fill:#728dbe;"/><path d="M116.12,30.05c10.61-4.9,40.54-18.59,34.95,5.21-29.89,9.39-52.28,34.17-73.57,56.14-5.07-6.62-10.93-12.95-15.79-19.68,12.34-13.97,26.26-25.95,41.45-37.58,22.63-17.38,51.85-31.39,68.51-6.99,5.51,8.07,6.93,18.32,3.69,27.53-4.83,13.72-15.78,27.28-23.12,37.68,0-.8-15.73-20.19-15.73-20.19,23.36-31.05,32.07-73.69-20.38-42.12Z" style="fill:#ababff;"/><path d="M30.24,118.22c-10.85,13.68-20.18,45.08,8.98,37.64,29.68-8,55.08-34.7,75.52-56.52l15.82,19.35s-3.16,3.2-3.95,3.96c-20.9,19.24-71.69,73.86-101.77,45.63-10.15-9.52-13.86-13.6-9.63-28.17,3.76-12.95,12.2-26.43,20.53-36.92,1.25-1.57,3.16-3.6,3.16-3.6,4.58,5.69,16.16,19.74,16.16,19.74-5.77,10.03-12.71,18.93-16.01,30.14-.56,1.92-2.06,3.44-4.01,3.87-21.02,4.62-10.98-23.78-4.82-35.12Z" style="fill:#ababff;"/></g></g></svg>