<?xml version="1.0" encoding="UTF-8"?>
<svg version="1.1" viewBox="0 0 192 192" xmlns="http://www.w3.org/2000/svg">
 <rect class="a" x="20" y="20" width="152" height="152" rx="10" style="fill:#fff"/>
 <path d="m72.419 102.03c-2.3523 2.3523-2.3523 6.1396-2e-6 8.492l9.1552 9.1552c2.3523 2.3523 6.1397 2.3523 8.492 0l39.988-39.988c0.24797-0.24797 0.46383-0.5148 0.65951-0.7913a12.478 12.478 0 0 0 0.98813-0.85634 12.478 12.478 0 0 0-2.1e-4 -17.647 12.478 12.478 0 0 0-17.647 0 12.478 12.478 0 0 0-0.85633 0.98813c-0.27651 0.19568-0.54334 0.41154-0.79131 0.65951z" style="fill:#56595b;stroke-linecap:round;stroke-linejoin:round;stroke-width:1.2501"/>
 <path transform="matrix(.20351 -.20351 .20351 .20351 186.95 -44.989)" d="m-682.02 106.13-0.58465 34.754a13.446 13.446 147.05 0 1-18.728 12.138l-53.231-22.746a8.2471 8.2471 90.728 0 1 0.19384-15.247l54.101-21.508a13.327 13.327 34.642 0 1 18.249 12.609z" style="fill:#ff837d;stroke-linecap:round;stroke-linejoin:round;stroke-width:6"/>
</svg>
