<?xml version="1.0" encoding="UTF-8"?><svg id="a" xmlns="http://www.w3.org/2000/svg" viewBox="0 0 192 192"><g id="b"><g id="c"><g id="d"><path d="M91.25,167.25H29.5v-4.75h-9.5v-19h4.75v14.25h4.75v4.75h61.75v4.75ZM148.25,162.5h-9.5v-4.75h9.5v4.75ZM162.5,157.75h-4.75v-14.25h4.75v14.25ZM148.25,143.5H29.5v-4.75h118.75v4.75ZM91.25,129.25h-38v-4.75h-4.75v-4.75h47.5v4.75h-4.75v4.75ZM162.5,86.5h-4.75v-38h4.75v38ZM24.75,86.5h-4.75v-42.75h14.25v4.75h4.75v4.75h4.75v4.75h4.75v4.75h4.75v4.75h-4.75v-4.75h-4.75v-4.75h-4.75v-4.75h-4.75v-4.75h-4.75v23.75h-4.75v14.25ZM134,67.5h-4.75v-4.75h-4.75v-4.75h-4.75v-4.75h-4.75v-4.75h-4.75v-4.75h-4.75v-4.75h-4.75v-4.75h-4.75v-4.75h4.75v4.75h4.75v4.75h4.75v4.75h4.75v4.75h4.75v4.75h4.75v4.75h4.75v4.75h4.75v4.75ZM143.5,53.25h-9.5v-4.75h4.75v-4.75h4.75v-4.75h9.5v4.75h-4.75v4.75h-4.75v4.75ZM62.75,53.25h-9.5v-4.75h4.75v-4.75h4.75v-4.75h4.75v-4.75h4.75v-4.75h4.75v-4.75h4.75v-4.75h9.5v4.75h-4.75v4.75h-4.75v4.75h-4.75v4.75h-4.75v4.75h-4.75v4.75h-4.75v4.75Z" style="fill:#71a372;"/><path d="M105.5,162.5h-57v-9.5h28.5v4.75h9.5v-4.75h9.5v4.75h9.5v4.75ZM143.5,157.75h-9.5v-4.75h9.5v4.75ZM39,148.25h-9.5v-4.75h9.5v4.75ZM34.25,119.75h-4.75V48.5h4.75v71.25ZM119.75,110.25h-19v-4.75h4.75v-9.5h-4.75v-4.75h-9.5v9.5h-4.75v9.5h-42.75v-14.25h4.75v4.75h4.75v4.75h9.5v-4.75h-9.5v-4.75h9.5v4.75h4.75v4.75h9.5v-4.75h4.75v-4.75h4.75v-9.5h-4.75v-4.75h-4.75v-4.75h-4.75v-19h4.75v-4.75h4.75v-4.75h4.75v-4.75h4.75v-4.75h4.75v-4.75h4.75v4.75h4.75v4.75h-4.75v4.75h-9.5v9.5h9.5v-4.75h4.75v4.75h9.5v-4.75h4.75v4.75h4.75v4.75h4.75v4.75h14.25v-4.75h4.75v19h-4.75v4.75h-4.75v4.75h-9.5v-4.75h4.75v-9.5h-14.25v4.75h-4.75v14.25h4.75v4.75h4.75v4.75h-4.75v4.75ZM138.75,100.75h-9.5v-4.75h9.5v4.75ZM62.75,58h-4.75v-4.75h4.75v4.75ZM67.5,53.25h-4.75v-4.75h4.75v4.75ZM72.25,48.5h-4.75v-4.75h4.75v4.75ZM77,43.75h-4.75v-4.75h4.75v4.75ZM81.75,39h-4.75v-4.75h4.75v4.75ZM86.5,34.25h-4.75v-4.75h4.75v4.75ZM91.25,29.5h-4.75v-4.75h4.75v4.75ZM96,24.75h-4.75v-4.75h4.75v4.75Z" style="fill:#e0f4e0;"/><path d="M172,172H20v-9.5h9.5v4.75h90.25v-4.75h42.75v-23.75h-42.75v-4.75h52.25v38ZM29.5,143.5h-9.5v-9.5h14.25v4.75h-4.75v4.75ZM172,129.25h-57v-4.75h4.75v-4.75h42.75V34.25h-4.75v-4.75h14.25v99.75ZM34.25,129.25h-14.25v-9.5h9.5v4.75h4.75v4.75ZM138.75,58h-9.5v-4.75h-4.75v-4.75h-4.75v-4.75h-4.75v-4.75h-4.75v-4.75h-4.75v-4.75h-4.75v-4.75h-4.75v-4.75h9.5v4.75h4.75v4.75h4.75v4.75h4.75v4.75h4.75v4.75h4.75v4.75h4.75v4.75h4.75v4.75ZM29.5,43.75h-9.5v-14.25h14.25v4.75h4.75v4.75h-9.5v4.75Z" style="fill:#56595b;"/><path d="M153,153h-14.25v-4.75h4.75v-4.75h9.5v9.5ZM129.25,153h-9.5v-4.75h4.75v-4.75h9.5v4.75h-4.75v4.75ZM72.25,153h-4.75v-9.5h4.75v9.5ZM48.5,153h-4.75v-4.75h-4.75v-4.75h9.5v9.5ZM110.25,119.75h-19v-4.75h4.75v-4.75h19v4.75h-4.75v4.75ZM77,119.75h-9.5v-4.75h-4.75v-4.75h19v4.75h-4.75v4.75ZM48.5,119.75h-14.25v-14.25h9.5v4.75h9.5v4.75h-4.75v4.75ZM153,105.5h-4.75v-14.25h4.75v14.25ZM138.75,96h-9.5v-4.75h9.5v4.75ZM62.75,96h-9.5v-4.75h9.5v4.75ZM153,81.75h-4.75v-23.75h4.75v23.75ZM43.75,72.25h-9.5v-19h4.75v4.75h4.75v14.25ZM143.5,67.5h-9.5v-9.5h4.75v4.75h4.75v4.75ZM67.5,67.5h-9.5v-9.5h4.75v-4.75h4.75v4.75h4.75v4.75h-4.75v4.75ZM100.75,53.25h-9.5v-4.75h9.5v4.75ZM162.5,48.5h-4.75v-4.75h-4.75v-4.75h9.5v9.5ZM91.25,43.75h-4.75v-4.75h-4.75v-4.75h4.75v-4.75h4.75v-4.75h4.75v14.25h-4.75v4.75Z" style="fill:#e0f4e0;"/><path d="M119.75,167.25h-28.5v-4.75h28.5v4.75ZM162.5,162.5h-14.25v-4.75h14.25v4.75ZM162.5,143.5h-14.25v-4.75h14.25v4.75ZM119.75,138.75H34.25v-4.75h85.5v4.75ZM115,129.25h-23.75v-4.75h4.75v-4.75h23.75v4.75h-4.75v4.75ZM53.25,129.25h-19v-4.75h-4.75v-4.75h19v4.75h4.75v4.75ZM162.5,119.75h-4.75v-33.25h4.75v33.25ZM58,67.5h-4.75v-4.75h-4.75v-4.75h-4.75v-4.75h-4.75v-4.75h-4.75v-4.75h-4.75v-4.75h14.25v4.75h4.75v4.75h4.75v4.75h4.75v14.25ZM134,62.75h-4.75v-4.75h-4.75v-4.75h-4.75v-4.75h-4.75v-4.75h-4.75v-4.75h-4.75v-4.75h-4.75v-4.75h-4.75v-4.75h4.75v4.75h4.75v4.75h4.75v4.75h4.75v4.75h4.75v4.75h4.75v4.75h4.75v4.75h4.75v4.75ZM162.5,39h-14.25v-4.75h4.75v-4.75h4.75v4.75h4.75v4.75Z" style="fill:#83868c;"/><path d="M67.5,153h-19v-9.5h19v9.5ZM43.75,105.5h-9.5v-33.25h9.5v33.25ZM148.25,62.75h-9.5v-9.5h4.75v-4.75h4.75v-4.75h9.5v9.5h-4.75v4.75h-4.75v4.75ZM77,58h-9.5v-9.5h4.75v-4.75h4.75v-4.75h9.5v9.5h-4.75v4.75h-4.75v4.75Z" style="fill:#fff;"/><path d="M129.25,162.5h-23.75v-4.75h-9.5v-4.75h-4.75v-9.5h4.75v4.75h4.75v4.75h4.75v-4.75h4.75v-4.75h4.75v9.5h19v4.75h-4.75v4.75ZM48.5,162.5h-4.75v-4.75h4.75v4.75ZM39,162.5h-9.5v-14.25h9.5v4.75h-4.75v4.75h4.75v4.75ZM86.5,157.75h-9.5v-4.75h-4.75v-9.5h4.75v4.75h4.75v4.75h4.75v4.75ZM148.25,110.25h-28.5v-4.75h4.75v-4.75h-4.75v-4.75h-4.75v-14.25h4.75v-4.75h14.25v4.75h-9.5v4.75h-4.75v4.75h9.5v9.5h9.5v-14.25h4.75v-4.75h4.75v28.5ZM100.75,110.25h-14.25v-9.5h4.75v4.75h9.5v4.75ZM105.5,105.5h-4.75v-9.5h-9.5v-4.75h9.5v4.75h4.75v9.5ZM77,105.5h-9.5v-4.75h-4.75v-9.5h-9.5v9.5h9.5v4.75h-9.5v-4.75h-4.75v-4.75h-4.75v-14.25h4.75v4.75h9.5v-4.75h4.75v-4.75h4.75v-4.75h4.75v4.75h4.75v4.75h4.75v4.75h4.75v9.5h-4.75v-4.75h-4.75v-4.75h-9.5v9.5h4.75v4.75h4.75v4.75ZM115,58h-9.5v-4.75h-4.75v-9.5h9.5v4.75h4.75v9.5Z" style="fill:#71a372;"/><path d="M138.75,162.5h-9.5v-4.75h9.5v4.75ZM157.75,157.75h-14.25v-4.75h9.5v-9.5h4.75v14.25ZM29.5,157.75h-4.75v-14.25h4.75v14.25ZM157.75,119.75h-4.75V53.25h4.75v66.5ZM29.5,119.75h-9.5v-33.25h4.75v-14.25h4.75v47.5ZM100.75,58h-9.5v-4.75h9.5v4.75Z" style="fill:#979797;"/><path d="M43.75,162.5h-4.75v-4.75h-4.75v-4.75h4.75v-4.75h4.75v4.75h4.75v4.75h-4.75v4.75ZM138.75,153h-9.5v-4.75h4.75v-4.75h9.5v4.75h-4.75v4.75ZM119.75,153h-4.75v-9.5h9.5v4.75h-4.75v4.75ZM105.5,153h-4.75v-4.75h-4.75v-4.75h14.25v4.75h-4.75v4.75ZM91.25,153h-9.5v-4.75h-4.75v-4.75h14.25v9.5ZM153,119.75h-42.75v-4.75h4.75v-4.75h33.25v-4.75h4.75v14.25ZM91.25,119.75h-14.25v-4.75h4.75v-4.75h14.25v4.75h-4.75v4.75ZM67.5,119.75h-19v-4.75h4.75v-4.75h9.5v4.75h4.75v4.75ZM100.75,105.5h-9.5v-9.5h9.5v9.5ZM81.75,100.75h-9.5v-4.75h-4.75v-9.5h9.5v4.75h4.75v9.5ZM153,91.25h-4.75v-9.5h4.75v9.5ZM129.25,91.25h-9.5v-4.75h4.75v-4.75h9.5v4.75h-4.75v4.75ZM58,86.5h-9.5v-4.75h-4.75v-19h4.75v4.75h19v-4.75h4.75v9.5h-4.75v4.75h-4.75v4.75h-4.75v4.75Z" style="fill:#98dc9a;"/></g></g></g></svg>