<?xml version="1.0" encoding="UTF-8"?>
<svg version="1.1" viewBox="0 0 192 192" xmlns="http://www.w3.org/2000/svg">
 <circle class="a" cx="96" cy="96" r="88" style="fill:#fff"/>
 <path d="m70.375 108.61c16.636 9.9396 35.678 15.485 57.126 16.636 0.43261 0.23596-5.8384 14.565-14.439 14.909-26.54 1.0635-44.175-30.531-42.688-31.545z" style="fill:#9abeff;stroke-linecap:round;stroke-linejoin:round;stroke-width:1.3193;stroke:#56595b"/>
 <path d="m70.375 108.61c-3.6619-7.2977-5.4406-15.119-5.336-23.463 17.499 13.497 36.567 16.636 57.205 9.4164 5.1568 10.392 7.0064 20.603 5.2575 30.682-21.051-1.0357-40.093-6.581-57.126-16.636z" style="fill:#9abeff;stroke-linecap:round;stroke-linejoin:round;stroke-width:1.3193;stroke:#56595b"/>
 <path d="m122.24 94.567c-3.845-8.7363-9.9919-17.159-18.44-25.267 1.4053 10.591-0.22359 20.255-4.8867 28.992 7.9205 0.25791 15.696-0.98363 23.327-3.7246z" style="fill:#9abeff;stroke-linecap:round;stroke-linejoin:round;stroke-width:1.3193;stroke:#56595b"/>
 <path d="m65.039 85.151c-0.53547-3.2396-0.06088-6.1906 0.07212-9.2391l33.671-10.434c1.883 1.0126 3.5568 2.2868 5.0213 3.8225 1.7192 10.591 0.0903 20.255-4.8867 28.992-12.804-0.86918-24.097-5.2495-33.878-13.141z" style="fill:#9abeff;stroke-linecap:round;stroke-linejoin:round;stroke-width:1.3193;stroke:#56595b"/>
 <circle cx="81.592" cy="69.55" r="17.666" style="fill:#d3b69a;stroke-linecap:round;stroke-linejoin:round;stroke-width:1.4559;stroke:#56595b"/>
 <ellipse transform="rotate(-41.229)" cx="14.805" cy="113.88" rx="4.8637" ry="1.4426" style="fill:none;stroke-linecap:round;stroke-linejoin:round;stroke-width:1.386;stroke:#8e6f60"/>
 <path d="m65.313 69.522 3.6494-0.53633-2.0402-2.668 2.1972-0.86317-0.86317-3.5312 3.7666 3.0603v-5.6499l3.2173 2.4326 0.47082-4.3159 3.7666 1.1771-0.07847-3.7666 4.7867 2.511 1.9618-0.86317 0.3744-2.4651" style="fill:none;stroke-linecap:round;stroke-linejoin:round;stroke-width:1.3193;stroke:#8e6f60"/>
</svg>
