<?xml version="1.0" encoding="UTF-8"?>
<svg version="1.1" viewBox="0 0 192 192" xmlns="http://www.w3.org/2000/svg">
 <circle class="a" cx="96" cy="96" r="88" style="fill:#9abeff"/>
 <style>.s0 { fill: #000000 }</style>
 <path id="Layer" class="s0" d="m96.093 129.8c-27.607 0-43.905-67.574-21.095-67.574 8.1216 0 8.839 10.745 21.134 10.745 11.889 0 13.209-10.745 21.134-10.745 22.547 0 6.0515 67.591-21.134 67.591zm21.095-78.144c-7.9245 0-12.508 4.5564-15.586 7.5794-2.7492 2.6397-3.4064 3.1709-5.5093 3.1709-2.0975 0-2.908-0.54217-5.4655-3.0887-2.8313-2.8697-7.5959-7.6616-15.63-7.6616-3.5542-0.0274-7.0537 0.91457-10.115 2.7163-3.0668 1.8072-5.5805 4.4086-7.2782 7.5302-2.6451 4.5948-3.965 10.564-3.965 17.563 0 11.95 3.965 26.408 10.372 37.842 8.3461 14.896 19.743 23.04 32.081 23.04 25.783 0 42.267-36.189 42.267-61.123 0-6.9716-1.3198-12.82-3.9595-17.371-1.6758-3.1052-4.1621-5.6901-7.1961-7.4863-3.0285-1.7963-6.4951-2.7328-10.016-2.7109z" fill-rule="evenodd" style="fill:#fff;stroke-width:.054765"/>
</svg>
