<?xml version="1.0" encoding="UTF-8"?>
<svg version="1.1" viewBox="0 0 192 192" xmlns="http://www.w3.org/2000/svg">
 <circle class="a" cx="96" cy="96" r="88" style="fill:#bd9aff"/>
 <path d="m89.384 136.54c-3.1795-1.5892-4.4646-1.9267-7.3352-1.9267-3.5659 0-6.7223-0.96896-8.6138-2.6443-0.58707-0.51996-1.9177-2.2644-2.9569-3.8766-1.0392-1.6122-2.8855-3.6003-4.1028-4.4181-6.4852-4.3568-7.4594-5.8668-8.4746-13.135-0.43134-3.0883-1.1649-5.8832-1.8294-6.9704-0.61012-0.99822-1.5044-3.1602-1.9874-4.8045-1.0003-3.4057-0.59551-5.912 1.5687-9.7125 0.90458-1.5885 1.3536-3.5032 1.5983-6.816 0.44337-6.0018 1.724-8.3303 6.4204-11.674 2.2115-1.5746 4.4163-3.7825 5.7988-5.807 3.3542-4.9118 5.7843-6.3751 11.56-6.9604 3.6377-0.36872 5.565-0.89901 8.2057-2.2577 4.8076-2.4737 8.7179-2.476 13.514-0.0078 2.6948 1.3867 4.1243 1.7687 6.6272 1.7711 6.228 6e-3 9.3991 1.7894 12.91 7.2604 1.2624 1.9673 2.952 3.5493 5.6113 5.2538 3.201 2.0518 4.0175 2.9031 5.1438 5.3632 0.73632 1.6083 1.4945 4.5182 1.6849 6.4665 0.20561 2.1039 1.0397 5.112 2.0541 7.4081 2.2896 5.1826 2.2273 7.6865-0.33084 13.293-1.6019 3.5109-2.0431 5.2247-2.2249 8.6433-0.27837 5.2336-1.6464 7.6047-6.0892 10.554-2.9446 1.9545-5.9031 4.9192-5.9031 5.9154 0 0.87-3.4277 4.4256-5.1002 5.2905-0.89244 0.4615-3.6844 1.0518-6.2042 1.3118-3.4001 0.3508-5.4805 0.92646-8.0673 2.2322-5.234 2.6421-8.5651 2.7035-13.477 0.24851zm11.724-6.029c2.8315-1.4378 4.7123-1.9764 7.8182-2.2393 5.1099-0.43242 6.6235-1.2064 8.2827-4.2354 1.7421-3.1802 3.7535-5.3126 6.1969-6.5696 1.1008-0.56635 2.6541-1.8052 3.4516-2.7531 1.2728-1.5127 1.4501-2.2118 1.4501-5.7181 0-3.447 0.26403-4.5306 1.9257-7.9036 2.1702-4.4053 2.1178-5.0095-0.90367-10.417-1.2057-2.1577-1.6351-3.794-1.8841-7.1794-0.36088-4.906-1.0891-6.432-3.6994-7.752-3.324-1.681-5.2852-3.513-7.0352-6.5717-0.95842-1.6751-2.2564-3.3207-2.8844-3.6568-0.62797-0.33608-3.032-0.72-5.3422-0.85315-3.2186-0.18551-4.9608-0.6228-7.4535-1.8709-4.1323-2.069-6.199-2.0504-10.317 0.093-2.4375 1.2686-4.2849 1.7884-7.0187 1.975-5.1025 0.34826-6.2337 0.89496-8.0871 3.9086-2.1781 3.5416-4.0871 5.5574-6.3925 6.7503-3.5327 1.828-4.2631 3.1121-4.5564 8.011-0.21727 3.6288-0.62318 5.1553-2.2722 8.5445-1.1042 2.2695-2.0069 4.5062-2.006 4.9704 0.0011 0.46419 0.87075 2.5694 1.9329 4.6782 1.5544 3.0861 1.9361 4.4869 1.9561 7.1794 0.03529 4.7415 0.85214 6.238 4.6657 8.5476 1.8474 1.1189 4.0426 3.0557 5.0575 4.4622 4.2244 5.8547 3.992 5.6992 9.1942 6.1553 3.4488 0.30238 5.5238 0.8183 7.6663 1.9061 2.6477 1.3443 4.9805 2.2542 6.1124 2.3842 0.22744 0.0261 2.0913-0.80447 4.142-1.8457z" style="fill:#8c72bd;stroke-width:.55226"/>
 <circle cx="79.759" cy="86.006" r="7.089" style="fill:none;stroke-linecap:round;stroke-linejoin:round;stroke-width:3.3136;stroke:#8c72bd"/>
 <path d="m91.276 93.036 0.06569-13.336h0.91976l10.117 13.336v-13.796" style="fill:none;stroke-linecap:round;stroke-linejoin:round;stroke-width:3.3136;stroke:#8c72bd"/>
 <path d="m117.29 78.976h-9.6574v13.993h9.0005" style="fill:none;stroke-linecap:round;stroke-linejoin:round;stroke-width:3.3136;stroke:#8c72bd"/>
 <path d="m107.63 85.973h4.8287" style="fill:none;stroke-linecap:round;stroke-linejoin:round;stroke-width:3.3136;stroke:#8c72bd"/>
 <circle cx="95.329" cy="106.91" r="7.089" style="fill:none;stroke-linecap:round;stroke-linejoin:round;stroke-width:3.3136;stroke:#8c72bd"/>
 <path d="m78.793 113.94v-5.6662l-5.6499-7.9493" style="fill:none;stroke-linecap:round;stroke-linejoin:round;stroke-width:3.3136;stroke:#8c72bd"/>
 <path d="m78.793 108.28 5.6499-8.2121" style="fill:none;stroke-linecap:round;stroke-linejoin:round;stroke-width:3.3136;stroke:#8c72bd"/>
 <path d="m107.11 99.999v8.8034s0.44447 4.7302 5.3543 4.7302c4.9098 0 4.9108-4.9108 4.9108-4.9108v-8.4256" style="fill:none;stroke-linecap:round;stroke-linejoin:round;stroke-width:3.3136;stroke:#8c72bd"/>
</svg>
