<?xml version="1.0" encoding="UTF-8" standalone="no"?>
<svg
   viewBox="0 0 192 192"
   version="1.1"
   id="svg3"
   sodipodi:docname="orlen_vitay.svg"
   inkscape:version="1.2 (dc2aedaf03, 2022-05-15)"
   xml:space="preserve"
   inkscape:export-filename="..\..\..\..\..\Desktop\orlen_vitay.png"
   inkscape:export-xdpi="96"
   inkscape:export-ydpi="96"
   xmlns:inkscape="http://www.inkscape.org/namespaces/inkscape"
   xmlns:sodipodi="http://sodipodi.sourceforge.net/DTD/sodipodi-0.dtd"
   xmlns="http://www.w3.org/2000/svg"
   xmlns:svg="http://www.w3.org/2000/svg"><defs
     id="defs1" /><sodipodi:namedview
     id="namedview3"
     pagecolor="#505050"
     bordercolor="#ffffff"
     borderopacity="1"
     inkscape:showpageshadow="0"
     inkscape:pageopacity="0"
     inkscape:pagecheckerboard="1"
     inkscape:deskcolor="#505050"
     inkscape:zoom="2.9941553"
     inkscape:cx="1.8369121"
     inkscape:cy="93.682515"
     inkscape:window-width="1718"
     inkscape:window-height="1360"
     inkscape:window-x="-7"
     inkscape:window-y="0"
     inkscape:window-maximized="0"
     inkscape:current-layer="svg3"
     showgrid="false" /><rect
     class="a"
     x="20"
     y="20"
     width="152"
     height="152"
     rx="10"
     id="rect1"
     style="opacity:1;stroke:none;fill:#e85e5c;fill-opacity:1" /><g
     id="g7521"
     transform="matrix(0.8343041,0,0,0.8343041,15.41781,10.871794)"><path
       style="fill:#ffffff;fill-opacity:1;stroke:none;stroke-width:0.667968;stroke-linecap:round"
       d="m 138.83425,101.86486 c -4.02685,-1.10701 -4.92482,-1.81784 -15.48523,-12.258066 -8.99994,-8.897518 -10.32138,-10.078351 -12.35741,-11.042492 L 108.7118,77.484714 83.744329,77.287517 C 70.012223,77.179058 58.695922,77.009379 58.596994,76.910451 c -0.293902,-0.293902 0.545839,-3.279151 1.562193,-5.553542 2.199558,-4.922154 5.858237,-8.661228 10.868808,-11.107636 2.454126,-1.198225 3.108526,-1.36353 6.512688,-1.645133 2.081433,-0.172183 10.021575,-0.315127 17.64476,-0.317653 13.762107,-0.0046 13.882577,0.0014 16.997717,0.835927 3.96365,1.061885 7.63571,2.648483 10.66474,4.607956 2.87265,1.858309 6.61253,5.457823 22.05165,21.224034 l 11.89391,12.14589 -1.31817,1.106673 c -1.64435,1.380519 -5.53041,3.343553 -7.52037,3.798903 -2.06635,0.47282 -7.1751,0.39385 -9.12067,-0.14101 z"
       id="path7512" /><path
       style="fill:#ffffff;fill-opacity:1;stroke:none;stroke-width:0.667968;stroke-linecap:round"
       d="m 88.809396,93.847912 c -2.073149,-0.660637 -4.414554,-2.799785 -5.505783,-5.030176 -0.785488,-1.60548 -0.876182,-2.116061 -0.724623,-4.079427 0.09528,-1.234342 0.33687,-2.657563 0.536861,-3.162714 l 0.363619,-0.918456 h 7.865157 7.865157 l 0.402097,0.918456 c 0.221152,0.505151 0.401219,2.120798 0.400149,3.590328 -0.002,3.153779 -0.652673,4.679474 -2.835381,6.65142 -2.421564,2.187738 -5.516823,2.938897 -8.367253,2.030569 z"
       id="path7514" /><path
       style="fill:#ffffff;fill-opacity:1;stroke:none;stroke-width:0.667968;stroke-linecap:round"
       d="M 91.851832,129.00132 C 68.365263,105.04448 65.15463,101.89865 63.07078,100.80116 c -1.776487,-0.935608 -1.818459,-0.940436 -9.105042,-1.047357 -8.341164,-0.122396 -9.214679,0.0509 -11.516479,2.284717 -1.7348,1.68357 -2.673997,3.5596 -2.970545,5.93364 l -0.237975,1.90512 -0.901474,-2.00875 C 35.68487,101.95375 35.7242,96.798688 38.467553,91.05332 c 2.395586,-5.017045 7.286793,-8.91186 12.648026,-10.071488 2.558171,-0.553329 11.206111,-0.256005 13.844311,0.47598 5.629064,1.561819 8.794197,3.317849 13.370042,7.417756 4.267136,3.82331 31.011848,31.346162 32.355038,33.296422 3.71403,5.3926 4.24734,13.23698 1.29714,19.0794 -1.22585,2.42759 -2.7302,4.53263 -3.23923,4.53263 -0.24079,0 -7.84176,-7.55221 -16.891048,-16.7827 z"
       id="path7516" /></g></svg>
