<?xml version="1.0" encoding="UTF-8"?><svg id="a" xmlns="http://www.w3.org/2000/svg" width="192" height="192" viewBox="0 0 192 192"><defs><style>.e{fill:#98dc9a;}.e,.f,.g{stroke-width:0px;}.f,.g{fill:#56595b;}.g{fill-rule:evenodd;}</style></defs><g id="b"><g id="c"><circle id="d" class="e" cx="96" cy="96" r="88"/><path class="g" d="m56,96c0-22.08,17.88-39.97,39.95-40v14.46c-14.09.02-25.5,11.45-25.5,25.54s11.44,25.54,25.54,25.54,25.55-11.32,25.55-25.64h14.45c0,22.19-17.91,40.1-40,40.1-22.09,0-40-17.91-40-40Z"/><path class="f" d="m78.36,96c0-9.8,7.94-17.74,17.74-17.74s17.74,7.95,17.74,17.74-7.94,17.74-17.74,17.74-17.74-7.94-17.74-17.74Z"/><path class="f" d="m108.4,73.53c0-5.62,4.55-10.17,10.17-10.17s10.17,4.55,10.17,10.17-4.56,10.17-10.17,10.17c-5.62,0-10.17-4.55-10.17-10.17Z"/></g></g></svg>