<?xml version="1.0" encoding="UTF-8" standalone="no"?>
<!DOCTYPE svg PUBLIC "-//W3C//DTD SVG 1.1//EN" "http://www.w3.org/Graphics/SVG/1.1/DTD/svg11.dtd">
<svg width="100%" height="100%" viewBox="0 0 192 192" version="1.1" xmlns="http://www.w3.org/2000/svg" xmlns:xlink="http://www.w3.org/1999/xlink" xml:space="preserve" xmlns:serif="http://www.serif.com/" style="fill-rule:evenodd;clip-rule:evenodd;stroke-linejoin:round;stroke-miterlimit:2;">
    <rect id="pebblebee" x="0" y="0" width="192" height="192" style="fill:none;"/>
    <g id="pebblebee1" serif:id="pebblebee">
        <g transform="matrix(0.656153,0,0,0.656153,-178.214568,-33.659142)">
            <g transform="matrix(1.524035,0,0,1.524035,283.836581,63.461192)">
                <ellipse cx="87.974" cy="88.019" rx="87.974" ry="88.019" style="fill:rgb(249,222,129);"/>
            </g>
            <path d="M348.061,195.986C349.218,174.116 356.492,155.869 374.191,140.616C371.37,131.266 366.673,125.668 360.544,122.936C358.503,126.393 355.14,127.647 350.618,126.968C344.049,126.493 340.231,122.48 339.452,114.561C340.637,107.482 344.573,103.546 351.548,103.084C357.665,103.055 361.665,106.835 363.645,114.251C371.652,117.026 378.123,124.422 383.648,133.814C407.032,123.246 430.109,123.372 452.666,133.482C456.041,125.252 462.526,118.965 472.518,114.871C472.362,109.356 474.845,105.6 479.652,103.394C487.33,102.049 492.549,104.636 496.091,109.908C497.094,116.574 495.398,121.44 491.439,124.797C485.647,127.6 480.274,127.059 475.309,123.246C467.633,126.535 463.341,132.363 462.282,140.616C477.432,154.224 489.149,170.66 489.888,196.137L472.669,195.698C468.387,204.594 460.153,211.119 447.401,214.933C433,213.833 423.441,209.445 417.934,201.569C408.318,211.407 399.089,215.837 390.321,213.818C377.121,213.111 368.063,207.706 363.333,195.989"/>
            <path d="M351.606,221.497C394.971,237.248 439.524,236.237 485.007,221.497C480.558,232.837 474.051,242.977 464.52,251.353C450.04,256.88 434.534,260.014 417.512,259.611C399.135,259.118 382.846,256.188 369.551,249.765C360.215,242.802 354.589,233.118 351.606,221.497Z"/>
            <path d="M393.849,274.222C410.757,279.316 426.756,279.186 441.969,274.539C434.021,281.027 425.884,286.95 417.512,292.167C409.177,286.634 401.338,280.603 393.849,274.222Z"/>
            <g id="Eye">
                <ellipse cx="392.102" cy="183.779" rx="23.028" ry="22.472" style="fill:rgb(249,222,129);"/>
                <path d="M381.462,178.776C383.2,174.898 386.712,172.597 392.261,172.106C399.735,173.97 403.315,178.024 404.013,183.7C402.694,191.362 398.768,195.413 391.944,195.452C388.714,196.179 386.173,195.359 384.638,192.275C388.052,191.375 389.43,188.73 389.879,185.288C388.756,181.435 385.973,179.241 381.462,178.776Z"/>
            </g>
            <g id="Eye1" serif:id="Eye" transform="matrix(1,0,0,1,51.931178,0)">
                <ellipse cx="392.102" cy="183.779" rx="23.028" ry="22.472" style="fill:rgb(249,222,129);"/>
                <path d="M381.462,178.776C383.2,174.898 386.712,172.597 392.261,172.106C399.735,173.97 403.315,178.024 404.013,183.7C402.694,191.362 398.768,195.413 391.944,195.452C388.714,196.179 386.173,195.359 384.638,192.275C388.052,191.375 389.43,188.73 389.879,185.288C388.756,181.435 385.973,179.241 381.462,178.776Z"/>
            </g>
        </g>
    </g>
</svg>
