<?xml version="1.0" encoding="UTF-8"?>
<svg version="1.1" viewBox="0 0 192 192" xmlns="http://www.w3.org/2000/svg">
 <defs>
  <clipPath id="clipPath1">
   <rect class="a" x="20.5" y="19" width="152" height="152" rx="10" style="fill:none;stroke:#b2b6bd"/>
  </clipPath>
 </defs>
 <g transform="translate(-.5 1)" clip-path="url(#clipPath1)">
  <path d="m181 148.8c0 16.127-13.074 29.201-29.201 29.201h-110.6c-16.127 0-29.201-13.074-29.201-29.201v-110.6c0-16.127 13.074-29.201 29.201-29.201h110.6c16.127 0 29.201 13.074 29.201 29.201z" fill="#9abefc" style="fill:#9abeff"/>
  <path d="m181 109.61c-2.555 27.73-40.517 27.39-40.517 27.39h-128.48v11.474c0 16.128 13.256 29.526 29.383 29.526h110.6c16.127 0 29.019-13.398 29.019-29.526z" fill="#fff"/>
  <g clip-rule="evenodd" fill="#728cba" fill-rule="evenodd" style="fill:#728dbe">
   <path d="m55.663 147.54c-3.151-0.757-10.663-0.126-10.663-0.126v18.582h6v-5h1.678c5.632 0 8.017-2.842 8.175-6.633 0.168-4.01-2.038-6.066-5.19-6.823zm-3.553 10.456h-1.11v-7.493s4.616-0.618 4.743 3.409c0.12 3.865-3.339 4.084-3.633 4.084zm74.677-10.456c-3.152-0.757-10.787-0.126-10.787-0.126v18.582h6v-5h1.924c5.632 0 7.955-2.842 8.114-6.633 0.169-4.01-2.099-6.066-5.251-6.823zm-3.431 10.456h-1.356v-7.493s4.74-0.618 4.865 3.409c0.121 3.865-3.214 4.084-3.509 4.084zm-39.356-10h5v18h-5zm22 0h6v18h-6zm-7 0h-5v18h9.809l0.882-4h-5.691zm-25 6h-5v-6h-5v18h5v-8h5v8h5v-18h-5zm73.315 3.229c-1.42-1.889-3.112-2.25-4.936-2.995-0.889-0.362-3.223-1.103-2.788-2.466 0.726-2.279 7.187-0.252 7.187-0.252l-0.441-3.782s-5.506-1.282-8.952 0.104-4.119 5.044-2.438 7.691c1.681 2.648 7.775 2.563 7.565 5.086-0.21 2.521-6.389 1.303-8.952 0.084l0.609 4.119c1.605 0.381 3.189 0.617 4.835 0.732 2.413 0.169 5.138-0.199 7.18-1.66 1.877-1.341 2.519-4.817 1.131-6.661z" style="fill:#728dbe"/>
  </g>
 </g>
 <path d="m83.941 115.85c-4.6269-1.8592-10.97-13.633-14.493-26.904-2.8312-10.662-4.3893-25.598-3.2319-30.981 1.3621-6.334 5.5108-11.784 11.03-14.49 2.5858-1.2678 4.8403-1.8135 7.3663-1.7812 2.7331 0.03494 4.6671 0.463 7.9185 2.1304l3.476 1.7826 3.476-1.7826c3.2531-1.6683 5.1972-2.0501 7.9289-2.0724 2.6285-0.02147 4.7528 0.43749 7.6611 1.8693 4.0053 1.9719 7.2945 5.4099 9.323 9.7449 1.3552 2.8961 1.5478 3.864 1.7334 8.712 0.66055 17.257-6.7099 42.871-14.687 51.042-3.0069 3.0798-5.1236 3.803-7.5136 2.5671-2.2702-1.174-3.0304-3.3493-2.9315-8.3886 0.09-4.5836-0.35431-6.0923-2.2452-7.6239-2.0039-1.6232-5.3809-0.84537-6.8063 1.5677-0.60607 1.026-0.81147 2.5634-0.81147 6.0738 0 5.3178-0.63195 7.1212-2.9078 8.2981-1.6 0.82739-2.6647 0.8858-4.2843 0.23503zm17.851-26.303c8.1007-4.3176 15.337-13.017 17.801-21.401 3.1798-10.819-4.2799-21.055-13.334-19.884-3.1338 0.40521-6.2586 1.7165-8.4564 4.2842l-1.7199 2.0094-1.8653-2.069c-3.571-3.9611-9.3454-4.936-13.951-3.5793-3.7272 1.098-6.7676 5.0949-7.9171 8.5557-1.0663 3.2102-0.7442 8.7795 0.73446 12.7 3.3252 8.8166 12.545 18.164 20.609 20.894 2.8242 0.95609 3.8214 0.77018 8.0994-1.51z" style="fill:#fff;stroke-width:.48729"/>
</svg>
