<?xml version="1.0" encoding="UTF-8"?>
<svg version="1.1" viewBox="0 0 192 192" xmlns="http://www.w3.org/2000/svg">
 <defs>
  <clipPath id="clipPath1">
   <rect class="a" x="20.5" y="19" width="152" height="152" rx="10" style="fill:none;stroke:#b2b6bd"/>
  </clipPath>
 </defs>
 <g transform="translate(-.5 1)" clip-path="url(#clipPath1)">
  <path d="m181 148.8c0 16.127-13.074 29.201-29.201 29.201h-110.6c-16.127 0-29.201-13.074-29.201-29.201v-110.6c0-16.127 13.074-29.201 29.201-29.201h110.6c16.127 0 29.201 13.074 29.201 29.201z" fill="#9abefc" style="fill:#ff837d"/>
  <path d="m181 109.61c-2.555 27.73-40.517 27.39-40.517 27.39h-128.48v11.474c0 16.128 13.256 29.526 29.383 29.526h110.6c16.127 0 29.019-13.398 29.019-29.526z" fill="#fff"/>
  <g clip-rule="evenodd" fill="#728cba" fill-rule="evenodd" style="fill:#728dbe">
   <path d="m55.663 147.54c-3.151-0.757-10.663-0.126-10.663-0.126v18.582h6v-5h1.678c5.632 0 8.017-2.842 8.175-6.633 0.168-4.01-2.038-6.066-5.19-6.823zm-3.553 10.456h-1.11v-7.493s4.616-0.618 4.743 3.409c0.12 3.865-3.339 4.084-3.633 4.084zm74.677-10.456c-3.152-0.757-10.787-0.126-10.787-0.126v18.582h6v-5h1.924c5.632 0 7.955-2.842 8.114-6.633 0.169-4.01-2.099-6.066-5.251-6.823zm-3.431 10.456h-1.356v-7.493s4.74-0.618 4.865 3.409c0.121 3.865-3.214 4.084-3.509 4.084zm-39.356-10h5v18h-5zm22 0h6v18h-6zm-7 0h-5v18h9.809l0.882-4h-5.691zm-25 6h-5v-6h-5v18h5v-8h5v8h5v-18h-5zm73.315 3.229c-1.42-1.889-3.112-2.25-4.936-2.995-0.889-0.362-3.223-1.103-2.788-2.466 0.726-2.279 7.187-0.252 7.187-0.252l-0.441-3.782s-5.506-1.282-8.952 0.104-4.119 5.044-2.438 7.691c1.681 2.648 7.775 2.563 7.565 5.086-0.21 2.521-6.389 1.303-8.952 0.084l0.609 4.119c1.605 0.381 3.189 0.617 4.835 0.732 2.413 0.169 5.138-0.199 7.18-1.66 1.877-1.341 2.519-4.817 1.131-6.661z" style="fill:#728dbe"/>
  </g>
 </g>
 <path d="m99.15 46.832s-25.262 1.7791-25.262 16.248c0 7.3884 11.129 11.243 11.129 14.245 0 12.399 1.4467 37.17 1.4467 37.17 5.3046 5.6385 9.8674 6.232 13.688 1.7806 0 0-0.33386-26.634-0.33386-39.952 0-2.7587 11.351-16.47 11.351-16.47l-8.1239 0.33386c-2.5113-0.87602-3.9209-2.434-4.2289-4.674z" style="fill:#fff;stroke-linecap:round;stroke-linejoin:round;stroke-width:5.292"/>
 <rect transform="matrix(.9967 -.081193 .037478 .9993 0 0)" x="101.11" y="56.226" width="15.061" height="7.9815" ry="2.1536" style="fill:#fff;stroke-linecap:round;stroke-linejoin:round;stroke-width:10.541"/>
 <rect transform="rotate(-3.1637)" x="102.95" y="55.723" width="9.1675" height="3.305" style="fill:#ff837d;stroke-linecap:round;stroke-linejoin:round;stroke-width:5.292"/>
</svg>
