<?xml version="1.0" encoding="UTF-8" standalone="no"?>
<svg
   viewBox="0 0 192 192"
   version="1.1"
   id="svg3"
   sodipodi:docname="pineapple_lock_screen.svg"
   inkscape:version="1.4.2 (f4327f4, 2025-05-13)"
   xmlns:inkscape="http://www.inkscape.org/namespaces/inkscape"
   xmlns:sodipodi="http://sodipodi.sourceforge.net/DTD/sodipodi-0.dtd"
   xmlns="http://www.w3.org/2000/svg"
   xmlns:svg="http://www.w3.org/2000/svg">
  <defs
     id="defs1" />
  <sodipodi:namedview
     id="namedview3"
     pagecolor="#505050"
     bordercolor="#ffffff"
     borderopacity="1"
     inkscape:showpageshadow="0"
     inkscape:pageopacity="0"
     inkscape:pagecheckerboard="1"
     inkscape:deskcolor="#505050"
     inkscape:zoom="2.7510873"
     inkscape:cx="93.962848"
     inkscape:cy="87.419981"
     inkscape:window-width="1920"
     inkscape:window-height="986"
     inkscape:window-x="-11"
     inkscape:window-y="-11"
     inkscape:window-maximized="1"
     inkscape:current-layer="svg3" />
  <circle
     class="a"
     cx="96"
     cy="96"
     r="88"
     id="circle1"
     style="opacity:1;stroke:none;fill:#98dc9a" />
  <path
     d="m 113.76498,82.637094 h -2.96083 v -5.92166 c 0,-8.171891 -6.63226,-14.804151 -14.804151,-14.804151 -8.171891,0 -14.804152,6.63226 -14.804152,14.804151 v 5.92166 h -2.96083 c -3.256913,0 -5.921661,2.664747 -5.921661,5.921661 v 29.608305 c 0,3.25691 2.664748,5.92166 5.921661,5.92166 h 35.529963 c 3.25691,0 5.92166,-2.66475 5.92166,-5.92166 V 88.558755 c 0,-3.256914 -2.66475,-5.921661 -5.92166,-5.921661 z M 95.999998,109.28457 c -3.256913,0 -5.92166,-2.66475 -5.92166,-5.92166 0,-3.25692 2.664747,-5.921665 5.92166,-5.921665 3.256915,0 5.921662,2.664745 5.921662,5.921665 0,3.25691 -2.664747,5.92166 -5.921662,5.92166 z M 105.17857,82.637094 H 86.821425 v -5.92166 c 0,-5.06302 4.115554,-9.178573 9.178573,-9.178573 5.063022,0 9.178572,4.115553 9.178572,9.178573 z"
     id="path1"
     style="stroke-width:2.96083;fill:#ffffff" />
</svg>
