<?xml version="1.0" encoding="UTF-8"?>
<svg version="1.1" viewBox="0 0 192 192" xmlns="http://www.w3.org/2000/svg">
 <circle class="a" cx="96" cy="96" r="88" style="fill:#fff"/>
 <path d="m86.336 68.028v38.86" style="fill:none;stroke-linecap:round;stroke-linejoin:round;stroke-width:3.1301;stroke:#b1b5bd"/>
 <path d="m108.97 110.06a15.521 15.521 0 0 1-3.8498 21.076 15.521 15.521 0 0 1-21.234-2.8495 15.521 15.521 0 0 1 1.8429-21.345" style="fill:none;stroke-linecap:round;stroke-linejoin:round;stroke-width:3.689;stroke:#b1b5bd"/>
 <path d="m86.336 69.404a11.777 11.777 0 0 1 11.777-11.777 11.777 11.777 0 0 1 11.777 11.777" style="fill:none;stroke-linecap:round;stroke-linejoin:round;stroke-width:3.1301;stroke:#b1b5bd"/>
 <path d="m104.1 120.52c0 4.473-3.6261 8.0992-8.0992 8.0992-4.4731 0-8.0992-3.6261-8.0992-8.0992s8.0992-14.125 8.0992-14.125 8.0992 9.6516 8.0992 14.125z" style="fill:#9abeff;stroke-linecap:round;stroke-linejoin:round;stroke-width:3.7453"/>
 <path d="m96 110.85v-20.204" style="fill:#9abeff;stroke-linecap:round;stroke-linejoin:round;stroke-width:3.1301;stroke:#9abeff"/>
 <circle cx="109.05" cy="82.159" r="2.5432" style="fill:#ff837d"/>
 <circle cx="109.05" cy="91.941" r="2.5432" style="fill:#f9de81"/>
 <circle cx="109.05" cy="101.72" r="2.5432" style="fill:#98dc9a"/>
</svg>
