<?xml version="1.0" encoding="UTF-8" standalone="no"?>
<svg
   viewBox="0 0 192 192"
   version="1.1"
   id="svg3"
   sodipodi:docname="pt_dictionary.svg"
   inkscape:version="1.4.2 (f4327f4, 2025-05-13)"
   inkscape:export-filename="pt_dictionary.png"
   inkscape:export-xdpi="96"
   inkscape:export-ydpi="96"
   xmlns:inkscape="http://www.inkscape.org/namespaces/inkscape"
   xmlns:sodipodi="http://sodipodi.sourceforge.net/DTD/sodipodi-0.dtd"
   xmlns="http://www.w3.org/2000/svg"
   xmlns:svg="http://www.w3.org/2000/svg">
  <defs
     id="defs1">
    <inkscape:path-effect
       effect="fillet_chamfer"
       id="path-effect1"
       is_visible="true"
       lpeversion="1"
       nodesatellites_param="F,0,0,1,0,0,0,1 @ F,0,0,1,0,0,0,1 @ F,0,0,1,0,0,0,1 @ F,0,0,1,0,0,0,1 @ F,0,0,1,0,0,0,1 @ F,0,0,1,0,0,0,1 @ F,0,0,1,0,0,0,1 @ F,0,0,1,0,0,0,1 @ F,0,0,1,0,0,0,1"
       radius="0"
       unit="px"
       method="auto"
       mode="F"
       chamfer_steps="1"
       flexible="false"
       use_knot_distance="true"
       apply_no_radius="true"
       apply_with_radius="true"
       only_selected="false"
       hide_knots="false" />
    <inkscape:path-effect
       effect="fillet_chamfer"
       id="path-effect5"
       is_visible="true"
       lpeversion="1"
       nodesatellites_param="F,0,0,1,0,5,0,1 @ F,0,0,1,0,5,0,1 @ F,0,0,1,0,5,0,1 @ F,0,0,1,0,5,0,1"
       radius="5"
       unit="px"
       method="auto"
       mode="F"
       chamfer_steps="1"
       flexible="false"
       use_knot_distance="true"
       apply_no_radius="true"
       apply_with_radius="true"
       only_selected="false"
       hide_knots="false" />
    <inkscape:path-effect
       effect="fillet_chamfer"
       id="path-effect4"
       is_visible="true"
       lpeversion="1"
       nodesatellites_param="F,0,0,1,0,6,0,1 @ F,0,1,1,0,3.6185797,0,1 @ F,0,0,1,0,0,0,1 @ F,0,0,1,0,6,0,1 @ F,0,0,1,0,6,0,1"
       radius="2"
       unit="px"
       method="auto"
       mode="F"
       chamfer_steps="1"
       flexible="false"
       use_knot_distance="true"
       apply_no_radius="true"
       apply_with_radius="true"
       only_selected="true"
       hide_knots="false" />
    <inkscape:path-effect
       effect="fillet_chamfer"
       id="path-effect10"
       is_visible="true"
       lpeversion="1"
       nodesatellites_param="F,0,0,1,0,0,0,1 @ F,0,0,1,0,0,0,1 @ F,0,0,1,0,0,0,1 @ F,0,0,1,0,0,0,1"
       radius="0"
       unit="px"
       method="auto"
       mode="F"
       chamfer_steps="1"
       flexible="false"
       use_knot_distance="true"
       apply_no_radius="true"
       apply_with_radius="true"
       only_selected="false"
       hide_knots="false" />
    <inkscape:path-effect
       effect="fillet_chamfer"
       id="path-effect6"
       is_visible="true"
       lpeversion="1"
       nodesatellites_param="F,0,0,1,0,0,0,1 @ F,0,1,1,0,0,0,1 @ F,0,1,1,0,0,0,1 @ F,0,0,1,0,0,0,1 @ F,0,1,1,0,10,0,1 @ F,0,0,1,0,0,0,1 @ F,0,0,1,0,0,0,1"
       radius="10"
       unit="px"
       method="bezier"
       mode="F"
       chamfer_steps="1"
       flexible="false"
       use_knot_distance="true"
       apply_no_radius="true"
       apply_with_radius="true"
       only_selected="true"
       hide_knots="false" />
    <inkscape:path-effect
       effect="fillet_chamfer"
       id="path-effect5-9"
       is_visible="true"
       lpeversion="1"
       nodesatellites_param="F,0,0,1,0,5,0,1 @ F,0,0,1,0,5,0,1 @ F,0,0,1,0,5,0,1 @ F,0,0,1,0,5,0,1"
       radius="5"
       unit="px"
       method="auto"
       mode="F"
       chamfer_steps="1"
       flexible="false"
       use_knot_distance="true"
       apply_no_radius="true"
       apply_with_radius="true"
       only_selected="false"
       hide_knots="false" />
  </defs>
  <sodipodi:namedview
     id="namedview3"
     pagecolor="#505050"
     bordercolor="#ffffff"
     borderopacity="1"
     inkscape:showpageshadow="0"
     inkscape:pageopacity="0"
     inkscape:pagecheckerboard="1"
     inkscape:deskcolor="#505050"
     inkscape:zoom="3.890625"
     inkscape:cx="96"
     inkscape:cy="96"
     inkscape:window-width="1920"
     inkscape:window-height="986"
     inkscape:window-x="-11"
     inkscape:window-y="-11"
     inkscape:window-maximized="1"
     inkscape:current-layer="svg3" />
  <rect
     class="a"
     x="20"
     y="20"
     width="152"
     height="152"
     rx="10"
     id="rect1"
     style="display:none;opacity:1;fill:none;stroke:#ffffff" />
  <rect
     class="a"
     x="20"
     y="20"
     width="152"
     height="152"
     rx="10"
     id="rect2"
     style="display:inline;opacity:1;fill:#71a372;stroke:none"
     inkscape:label="cover_back" />
  <path
     id="rect5"
     style="display:inline;fill:#ffffff;stroke-width:4;stroke-linecap:round;stroke-miterlimit:9;paint-order:fill markers stroke"
     d="m 166.70312,152.97266 c -1.48182,0.49599 -3.13598,0.74867 -4.05764,0.74867 -0.9456,0 -131.438449,0.025 -131.438449,0.025 -2.761424,0 -5,2.23858 -5,5 v 3.48633 c 0,2.76142 2.238576,5 5,5 H 161.70312 c 2.76142,0 5,-2.23858 5,-5 v -3.48633 z"
     sodipodi:nodetypes="cscssssssc"
     inkscape:label="pages" />
  <path
     style="baseline-shift:baseline;display:inline;overflow:visible;vector-effect:none;fill:#98dc9a;enable-background:accumulate;stop-color:#000000"
     d="m 30,20 c -5.54,0 -10,4.46 -10,10 v 127.50621 c 0,-4.85648 4.46,-8.76758 10,-8.76758 h 132 c 5.52285,0 10,-4.47715 10,-10 V 30 c 0,-5.54 -4.46,-10 -10,-10 z"
     id="path86"
     inkscape:label="cover_front" />
  <g
     id="g1"
     transform="matrix(0.01905269,0,0,0.01905269,95.687,67.802918)"
     inkscape:label="flag">
    <rect
       width="79.374001"
       height="52.916"
       fill="#f00"
       style="fill:#71a372;stroke-width:0.13229"
       id="rect5-9"
       x="56"
       y="42"
       transform="matrix(52.486027,0,0,52.486027,-5022.2305,-3558.7058)" />
    <path
       d="M -1743,0 0,1113 1743,0 0,-1113 Z"
       fill="#ffcb00"
       id="path14"
       style="fill:#f9de81" />
    <path
       id="circle14"
       d="M 700.85039,218.81836 C 393.54839,-56.486809 -5.264928,-210 -420,-210 c -97.98492,0 -194.97369,9.06028 -290.19374,25.76602 A 735,735 0 0 0 -734.99999,0 735,735 0 0 0 0,734.99999 735,735 0 0 0 700.85039,218.81836 Z"
       style="fill:#728dbe;fill-opacity:1" />
    <path
       id="path71"
       d="M 727.60898,103.32656 C 407.35203,-165.60629 1.4777975,-315 -420,-315 c -84.73536,0 -168.80083,6.27527 -251.72109,18.08789 a 735,735 0 0 0 -38.47265,112.67813 C -614.97369,-200.93972 -517.98492,-210 -420,-210 -5.264928,-210 393.54839,-56.486809 700.85039,218.81836 a 735,735 0 0 0 26.75859,-115.4918 z"
       style="fill:#ffffff;fill-opacity:1;stroke:none;stroke-width:0.997235;stroke-dasharray:none" />
    <path
       id="path70"
       d="m 0,-734.99999 a 735,735 0 0 0 -671.72109,438.08788 C -588.80083,-308.72473 -504.73536,-315 -420,-315 1.4777975,-315 407.35203,-165.60629 727.60898,103.32656 A 735,735 0 0 0 734.99999,0 735,735 0 0 0 0,-734.99999 Z"
       style="fill:#728dbe;fill-opacity:1" />
  </g>
  <g
     id="g2"
     inkscape:label="bookmarks">
    <path
       d="m 38,159.4505 v 22.084 l 11.673,-6.7393 10.841,6.2588 V 159.45 Z"
       style="fill:#98dc9a;stroke-width:7.5074;stroke-linecap:round;stroke-linejoin:round"
       id="path4" />
    <path
       d="m 79.438,158.0005 v 22.084 l 11.673,-6.7393 10.841,6.2588 V 158 Z"
       style="fill:#f9de81;stroke-width:7.5074;stroke-linecap:round;stroke-linejoin:round"
       id="path5" />
  </g>
</svg>
