<?xml version="1.0" encoding="UTF-8"?>
<svg version="1.1" viewBox="0 0 192 192" xmlns="http://www.w3.org/2000/svg">
 <rect class="a" x="20" y="20" width="152" height="152" rx="10" style="fill:#9abeff"/>
 <g transform="matrix(3.535 0 0 3.535 53.581 53.581)" fill="#fff">
  <path d="m12 6c2.62 0 4.88 1.86 5.39 4.43l0.3 1.5 1.53 0.11c1.56 0.1 2.78 1.41 2.78 2.96 0 1.65-1.35 3-3 3h-13c-2.21 0-4-1.79-4-4 0-2.05 1.53-3.76 3.56-3.97l1.07-0.11 0.5-0.95c0.95-1.83 2.81-2.97 4.87-2.97m0-2c-2.89 0-5.4 1.64-6.65 4.04-3.01 0.32-5.35 2.87-5.35 5.96 0 3.31 2.69 6 6 6h13c2.76 0 5-2.24 5-5 0-2.64-2.05-4.78-4.65-4.96-0.68-3.45-3.71-6.04-7.35-6.04z"/>
  <path d="m14.893 10.071h-0.4822v-0.9643c0-1.3307-1.08-2.4107-2.4107-2.4107s-2.4107 1.08-2.4107 2.4107v0.9643h-0.4822c-0.5303 0-0.9642 0.434-0.9642 0.9643v4.8214c0 0.5304 0.4339 0.9643 0.9643 0.9643h5.7857c0.5304 0 0.9643-0.4339 0.9643-0.9643l-1e-4 -4.8214c0-0.5303-0.4339-0.9643-0.9642-0.9643zm-4.3393-0.9643c0-0.8004 0.6461-1.4464 1.4464-1.4464 0.8004 0 1.4464 0.6461 1.4464 1.4464v0.9643h-2.8928zm4.3393 6.75h-5.7858v-4.8214h5.7857zm-2.8929-1.4464c0.5304 0 0.9643-0.4339 0.9643-0.9643s-0.4339-0.9643-0.9643-0.9643-0.9643 0.4339-0.9643 0.9643 0.4339 0.9643 0.9643 0.9643z"/>
 </g>
</svg>
