<svg width="192" height="192" viewBox="0 0 192 192" fill="none" xmlns="http://www.w3.org/2000/svg">
<path d="M162 20H30C24.4772 20 20 24.4772 20 30V162C20 167.523 24.4772 172 30 172H162C167.523 172 172 167.523 172 162V30C172 24.4772 167.523 20 162 20Z" fill="#98DC9A"/>
<path d="M64.2 141.76C67.56 143.08 69.84 145.78 69.84 150.16C69.84 156.52 65.16 160 59.16 160H42.54V124H57.78C63.84 124 68.64 127.66 68.64 134.02C68.64 137.8 66.9 140.32 64.2 141.76ZM60.72 134.86C60.72 132.7 58.98 131.02 56.82 131.02H50.46V138.76H56.82C58.98 138.76 60.72 136.96 60.72 134.86ZM58.02 152.98C60.24 152.98 61.92 151.3 61.92 149.14C61.92 147.04 60.24 145.24 58.02 145.24H50.46V152.98H58.02ZM100.918 153.76H101.998V160C101.458 160.24 100.738 160.48 99.9581 160.48C96.7181 160.48 94.0781 158.86 92.5781 156.4C90.6581 158.92 87.8381 160.48 84.3581 160.48C77.6981 160.48 72.4781 154.96 72.4781 148C72.4781 141.04 77.6981 135.52 84.3581 135.52C87.1181 135.52 89.3981 136.48 91.1981 138.1V136H98.8181V151.42C98.8181 153.4 99.8981 153.76 100.918 153.76ZM85.8581 153.7C88.9781 153.7 91.5581 151.18 91.5581 148C91.5581 144.82 88.9781 142.3 85.8581 142.3C82.6781 142.3 80.1581 144.82 80.1581 148C80.1581 151.18 82.6781 153.7 85.8581 153.7ZM120.015 135.52C124.755 135.52 128.595 139.54 128.595 144.82V160H120.975V146.08C120.975 143.92 119.415 142.3 117.195 142.3C114.975 142.3 113.175 143.92 113.175 146.08V160H105.495V136H113.175V138.94C114.855 136.84 117.255 135.52 120.015 135.52ZM160.654 160H150.694L142.234 148.96V160H134.614V118.9H142.234V144.64L150.574 136H159.754L149.254 146.86L160.654 160Z" fill="white"/>
<path d="M86.84 75C92.9 75 97.58 79.86 97.58 85.86C97.58 91.92 92.9 96.42 86.84 96.42H79.46V111H71.54V75H86.84ZM85.58 89.88C88.1 89.88 90.02 88.32 90.02 85.92C90.02 83.58 88.1 81.96 85.58 81.96H79.46V89.88H85.58ZM111.493 111.48C105.193 111.48 100.153 107.94 97.8125 103.44L104.353 99.36C105.673 102.18 108.253 104.04 111.553 104.04C114.312 104.04 115.992 102.72 115.992 100.74C115.992 94.44 99.3725 97.38 99.3725 85.14C99.3725 77.94 105.193 74.52 110.893 74.52C115.333 74.52 119.353 76.56 121.993 79.62L116.713 84.66C114.913 82.68 112.872 81.54 110.833 81.54C108.913 81.54 107.353 82.5 107.353 84.54C107.353 90.78 123.912 87.48 123.912 100.8C123.912 107.52 118.213 111.48 111.493 111.48ZM127.886 111V75H139.766C149.666 75 157.766 83.04 157.766 93C157.766 102.96 149.666 111 139.766 111H127.886ZM135.806 103.98H139.706C145.406 103.98 149.846 99.24 149.846 93C149.846 86.76 145.406 82.02 139.706 82.02H135.806V103.98Z" fill="white"/>
</svg>
