<?xml version="1.0" encoding="UTF-8"?>
<svg version="1.1" viewBox="0 0 192 192" xmlns="http://www.w3.org/2000/svg">
 <circle class="a" cx="96" cy="96" r="88" style="fill:#fff"/>
 <g transform="translate(54.938 88.081)" style="fill:none">
  <path d="m78.945 54.29-6.5893-5.6282c-0.16255-0.1631-0.24383-0.40774-0.16255-0.65239l3.4166-7.749c0.16255-0.40774-0.16282-0.81549-0.56948-0.73394-7.8908 1.6312-14.155 0.73394-18.954-1.6312-5.857-2.855-9.7618-7.749-12.446-12.806-3.2538-6.1175-4.7181-12.398-5.5317-15.334-0.16255-0.48929-0.89458-0.57111-1.0574-0.08155-1.871 4.2413-2.6846 8.7276-2.6846 13.459v0.65239c-1.7897-0.73394-3.3353-1.7943-4.7181-3.0178-3.5793-3.2628-5.7757-8.1568-5.7757-14.274 0-11.338 7.7279-18.679 17.571-18.679 9.8431 0 17.571 7.341 17.571 18.679 0 7.9937-3.8232 13.948-9.5177 16.803-0.48793 0.24465-0.65075 0.81549-0.40665 1.305 0.65075 1.0604 1.3828 2.1208 2.1964 3.0994 3.0099 3.6705 6.5891 6.036 10.901 7.0964 9.5177-5.9544 15.375-16.15 15.375-28.304 0-19.576-15.293-34.013-36.118-34.013-20.825 0-36.2 14.356-36.2 34.013 0 16.966 11.47 30.016 27.984 33.198 1.7894 0.3262 3.6604 0.57084 5.6129 0.73421 0.2441 0 0.48793 0.1631 0.65075 0.3262 2.2776 3.5074 5.2063 6.6068 8.7854 9.0538 8.7857 6.3622 20.337 7.9934 30.668 5.3833 0.08127 0 0.24383-0.57084 0-0.89704z" fill="#00b579" style="fill:#98dc9a;stroke-width:2.7274"/>
 </g>
</svg>
