<?xml version="1.0" encoding="UTF-8"?>
<svg version="1.1" viewBox="0 0 192 192" xmlns="http://www.w3.org/2000/svg">
 <g transform="translate(1.9758 -.30334)">
  <path d="m19.332 45.127h-3.7841v111.54h66.313s5.591 4.5049 13.232 4.5049c7.1545 0 11.275-4.5049 11.275-4.5049h66.132v-111.54h-3.4238c-50.382 6.0736-100.3 6.0736-149.74 0z" style="fill:#8e6f60;stroke-linecap:round;stroke-linejoin:round;stroke-width:7.5739"/>
  <path d="m25.729 43.325h-4.3247v1.802h-2.3426v107.67h62.618l0.81089 0.54059s8.2491-3.5017 12.601-3.4237c3.7461 0.0671 10.735 3.3336 10.735 3.3336l1.2614-0.7208h61.718v-107.49h-1.7119v-2.0723h-4.1445l-68.475 10.992z" style="fill:#d3b69a"/>
  <path d="m95.093 148.02c9.4362-9.2839 20.127-18.791 48.432-14.092 11.023 1.8296 13.472 0.37322 21.641 2.1098v-98.749l-19.877-2.6758z" style="fill:#fdf5d9"/>
  <path d="m149.84 87.203 5.5411-0.2703" style="fill:none;stroke-linecap:round;stroke-linejoin:round;stroke-width:1.5148;stroke:#d3b69a"/>
  <path d="m149.08 82.789 6.0732-0.31534" style="fill:none;stroke-linecap:round;stroke-linejoin:round;stroke-width:1.5148;stroke:#d3b69a"/>
  <path d="m149.61 78.194 5.7663-0.1802" style="fill:none;stroke-linecap:round;stroke-linejoin:round;stroke-width:1.5148;stroke:#d3b69a"/>
  <path d="m149.08 70.04 6.2984-0.1802" style="fill:none;stroke-linecap:round;stroke-linejoin:round;stroke-width:1.5148;stroke:#d3b69a"/>
  <path d="m148.58 66.075 6.3069-0.13515" style="fill:none;stroke-linecap:round;stroke-linejoin:round;stroke-width:1.5148;stroke:#d3b69a"/>
  <path d="m148.33 53.228h6.1549" style="fill:none;stroke-linecap:round;stroke-linejoin:round;stroke-width:1.5148;stroke:#d3b69a"/>
  <path d="m148.33 48.101h6.4702" style="fill:none;stroke-linecap:round;stroke-linejoin:round;stroke-width:1.5148;stroke:#d3b69a"/>
  <path d="m152.05 24.855c-23.756 1.832-43.067 9.7909-57.934 23.876-16.939-15.016-40.364-18.981-70.277-11.893l-1.4416 100.55c9.8484 0.32286 24.834-2.8064 30.525-4.0451 17.796-3.8736 36.474 3.6223 42.172 14.677 18.257-22.729 38.932-29.828 60.289-32.526z" style="fill:#fdf5d9;stroke-linecap:round;stroke-linejoin:round;stroke-width:7.5739"/>
  <path d="m34.739 47.56c18.56-4.7452 35.679-3.0033 51.356 5.2257" style="fill:none;stroke-linecap:round;stroke-linejoin:round;stroke-width:1.5148;stroke:#d3b69a"/>
  <path d="m34.739 54.768c21.383-4.6462 38.257-2.4216 50.996 5.6762" style="fill:none;stroke-linecap:round;stroke-linejoin:round;stroke-width:1.5148;stroke:#d3b69a"/>
  <path d="m34.649 61.796c20.554-4.8073 37.464-2.042 51.176 6.6673" style="fill:none;stroke-linecap:round;stroke-linejoin:round;stroke-width:1.5148;stroke:#d3b69a"/>
  <path d="m34.109 69.634c19.262-4.7978 37.113-4.7201 52.474 3.9643" style="fill:none;stroke-linecap:round;stroke-linejoin:round;stroke-width:1.5148;stroke:#d3b69a"/>
  <path d="m34.689 76.851c20.277-5.1635 37.443-3.9752 51.35 3.7588" style="fill:none;stroke-linecap:round;stroke-linejoin:round;stroke-width:1.5148;stroke:#d3b69a"/>
  <path d="m34.469 82.428c20.422-5.6011 37.601-4.8353 51.536 2.2975" style="fill:none;stroke-linecap:round;stroke-linejoin:round;stroke-width:1.5148;stroke:#d3b69a"/>
  <path d="m34.424 66.03c3.1535-1.1112 6.367-1.6818 9.6405-1.7119" style="fill:none;stroke-linecap:round;stroke-linejoin:round;stroke-width:1.5148;stroke:#d3b69a"/>
  <path d="m34.289 87.203c17.887-3.7445 35.494-5.4354 51.717 3.0634" style="fill:none;stroke-linecap:round;stroke-linejoin:round;stroke-width:1.5148;stroke:#d3b69a"/>
  <path d="m34.469 91.889c18.772-4.073 36.655-5.2655 51.491 3.4237" style="fill:none;stroke-linecap:round;stroke-linejoin:round;stroke-width:1.5148;stroke:#d3b69a"/>
  <path d="m34.334 96.844c22.288-6.0881 37.962-2.6613 51.536 3.7841" style="fill:none;stroke-linecap:round;stroke-linejoin:round;stroke-width:1.5148;stroke:#d3b69a"/>
  <path d="m34.334 102.57c18.816-5.7213 36.009-4.4148 51.581 3.9193" style="fill:none;stroke-linecap:round;stroke-linejoin:round;stroke-width:1.5148;stroke:#d3b69a"/>
  <path d="m34.424 110.31c18.037-4.2133 35.525-5.3785 51.176 3.649" style="fill:none;stroke-linecap:round;stroke-linejoin:round;stroke-width:1.5148;stroke:#d3b69a"/>
  <path d="m34.469 115.4c19.386-5.496 36.55-4.0845 51.491 4.2346" style="fill:none;stroke-linecap:round;stroke-linejoin:round;stroke-width:1.5148;stroke:#d3b69a"/>
  <path d="m34.289 122.57c21.787-4.8861 38.856-3.4258 51.762 3.4688" style="fill:none;stroke-linecap:round;stroke-linejoin:round;stroke-width:1.5148;stroke:#d3b69a"/>
  <path d="m34.154 126.79c20.527-5.1028 37.811-3.8986 51.852 3.6124" style="fill:none;stroke-linecap:round;stroke-linejoin:round;stroke-width:1.5148;stroke:#d3b69a"/>
  <path d="m102.49 52.47c12.659-8.0037 25.858-12.404 39.598-13.199" style="fill:none;stroke-linecap:round;stroke-linejoin:round;stroke-width:1.5148;stroke:#d3b69a"/>
  <path d="m102.49 58.327c12.325-8.4798 25.945-10.323 39.688-11.533" style="fill:none;stroke-linecap:round;stroke-linejoin:round;stroke-width:1.5148;stroke:#d3b69a"/>
  <path d="m102.4 62.336c12.141-8.5294 25.706-10.446 39.508-11.262" style="fill:none;stroke-linecap:round;stroke-linejoin:round;stroke-width:1.5148;stroke:#d3b69a"/>
  <path d="m102.45 67.967c12.644-7.9914 25.828-11.844 39.553-11.558" style="fill:none;stroke-linecap:round;stroke-linejoin:round;stroke-width:1.5148;stroke:#d3b69a"/>
  <path d="m102.49 72.247c12.788-7.6391 25.905-11.433 39.463-11.046" style="fill:none;stroke-linecap:round;stroke-linejoin:round;stroke-width:1.5148;stroke:#d3b69a"/>
  <path d="m102.54 76.617c12.505-6.8805 25.689-10.523 39.553-10.927" style="fill:none;stroke-linecap:round;stroke-linejoin:round;stroke-width:1.5148;stroke:#d3b69a"/>
  <path d="m102.4 85.483c12.587-7.1028 26.024-10.812 40.311-11.127" style="fill:none;stroke-linecap:round;stroke-linejoin:round;stroke-width:1.5148;stroke:#d3b69a"/>
  <path d="m102.49 91.348c12.557-7.6213 25.964-11.165 40.221-10.632" style="fill:none;stroke-linecap:round;stroke-linejoin:round;stroke-width:1.5148;stroke:#d3b69a"/>
  <path d="m102.54 97.745c12.754-8.4461 26.373-10.778 40.311-10.857" style="fill:none;stroke-linecap:round;stroke-linejoin:round;stroke-width:1.5148;stroke:#d3b69a"/>
  <path d="m102.49 103.42c12.779-7.6557 26.342-10.124 40.221-10.505" style="fill:none;stroke-linecap:round;stroke-linejoin:round;stroke-width:1.5148;stroke:#d3b69a"/>
  <path d="m102.58 109.28c12.77-7.7586 26.135-11.227 40.094-10.406" style="fill:none;stroke-linecap:round;stroke-linejoin:round;stroke-width:1.5148;stroke:#d3b69a"/>
  <path d="m102.63 115.36c12.573-7.4986 25.952-10.877 40.139-10.136" style="fill:none;stroke-linecap:round;stroke-linejoin:round;stroke-width:1.5148;stroke:#d3b69a"/>
  <path d="m102.54 120.95c9.8868-6.5243 20.368-9.9906 31.444-10.399" style="fill:none;stroke-linecap:round;stroke-linejoin:round;stroke-width:1.5148;stroke:#d3b69a"/>
  <path d="m102.58 125.63c7.9343-5.2102 16.208-8.679 24.822-10.406" style="fill:none;stroke-linecap:round;stroke-linejoin:round;stroke-width:1.5148;stroke:#d3b69a"/>
  <path d="m149.21 126.39 4.7752 0.45893" style="fill:none;stroke-linecap:round;stroke-linejoin:round;stroke-width:1.5148;stroke:#d3b69a"/>
  <path d="m22.396 140.11s14.073-0.44789 22.168-1.9113c7.3634-1.3311 13.241-3.1098 20.579-3.2009 10.639-0.13206 26.785 11.401 26.344 11.872" style="fill:none;stroke-linecap:round;stroke-linejoin:round;stroke-width:1.5148;stroke:#fdf5d9"/>
  <path d="m22.396 143.05s16.395-2.0305 24.78-2.6758c7.8801-0.60645 13.607-2.8725 21.432-1.2369 6.4661 1.3516 20.281 8.8872 20.281 8.8872" style="fill:none;stroke-linecap:round;stroke-linejoin:round;stroke-width:1.5148;stroke:#fdf5d9"/>
  <path d="m22.396 146.93s15.117-2.5907 22.711-3.6483c4.9777-0.69321 14.973-1.767 14.973-1.767" style="fill:none;stroke-linecap:round;stroke-linejoin:round;stroke-width:1.5148;stroke:#fdf5d9"/>
  <path d="m21.638 150.05s29.902-6.8416 44.905-5.8294c7.0963 0.47877 20.264 5.2489 20.264 5.2489" style="fill:none;stroke-linecap:round;stroke-linejoin:round;stroke-width:1.5148;stroke:#fdf5d9"/>
  <path d="m33.531 150.81s22.015-3.6728 33.076-3.1218c6.0736 0.30262 17.902 3.5111 17.902 3.5111" style="fill:none;stroke-linecap:round;stroke-linejoin:round;stroke-width:1.5148;stroke:#fdf5d9"/>
  <path d="m165.68 140.31s-13.425-1.2353-20.132-1.9113c-8.9672-0.90374-18.103-4.8893-26.885-2.8669-8.543 1.9672-22.298 13.945-22.298 13.945" style="fill:none;stroke-linecap:round;stroke-linejoin:round;stroke-width:1.5148;stroke:#fdf5d9"/>
  <path d="m104.12 143.37c14.102-6.4541 28.347-3.6305 42.891-2.0479l18.731 2.0381" style="fill:none;stroke-linecap:round;stroke-linejoin:round;stroke-width:1.5148;stroke:#fdf5d9"/>
  <path d="m131.02 142.21c3.0228-0.43642 36.012 4.3122 35.479 4.6614" style="fill:none;stroke-linecap:round;stroke-linejoin:round;stroke-width:1.5148;stroke:#fdf5d9"/>
  <path d="m101.39 149.8s13.91-5.0774 21.306-5.668c8.7369-0.69781 17.439 1.337 26.059 2.7439 3.941 0.64319 7.5183 1.4672 11.488 1.9029 1.982 0.21754 6.1881 0.27892 6.1881 0.27892" style="fill:none;stroke-linecap:round;stroke-linejoin:round;stroke-width:1.5148;stroke:#fdf5d9"/>
  <path d="m166.5 150.81s-7.4179 0.24177-11.115 0c-10.054-0.65747-19.901-4.3003-29.97-3.9364-7.2584 0.2623-21.343 4.3895-21.343 4.3895" style="fill:none;stroke-linecap:round;stroke-linejoin:round;stroke-width:1.5148;stroke:#fdf5d9"/>
  <path d="m113.63 135.2c4.2667-1.4663 8.6784-2.2837 13.235-2.4523l-0.0472 34.73-6.8925-5.7663-6.7574 6.0366z" style="fill:#f8c18c"/>
 </g>
</svg>
