<?xml version="1.0" encoding="UTF-8"?>
<svg version="1.1" viewBox="0 0 192 192" xmlns="http://www.w3.org/2000/svg">
 <rect class="a" x="20" y="20" width="152" height="152" rx="10" style="fill:#ff837d"/>
 <path transform="matrix(.51901 0 0 .51901 173.24 45.721)" d="m-230.47 53.609v86.922a4 4 45 0 0 4 4h72.859a2.0862 2.0862 117.54 0 0 1.7107-3.2801l-23.883-34.22s16.016-4.8366 16.016-28.125c0-29.011-30.469-29.688-30.469-29.688l-36.235 0.35179a4.039 4.039 134.72 0 0-3.9998 4.0388z" style="fill:#fff;stroke-linecap:round;stroke-linejoin:round;stroke-width:10"/>
 <path transform="matrix(.51901 0 0 .51901 173.24 45.721)" d="m-142.19 54v86.531a4 4 45 0 0 4 4h42.484s28.516-0.42479 28.516-28.516c0-15.456-13.567-23.498-13.567-23.498s4.8555-5.6175 4.8555-18.121c0-24.63-26.836-24.787-26.836-24.787l-35.453 0.35102a4.0398 4.0398 134.72 0 0-3.9998 4.0396z" style="fill:#fff;stroke-linecap:round;stroke-linejoin:round;stroke-width:10"/>
</svg>
