<?xml version="1.0" encoding="UTF-8" standalone="no"?>
<svg
   width="108"
   height="108"
   viewBox="0 0 108 108"
   fill="none"
   version="1.1"
   id="svg10"
   sodipodi:docname="logo.svg"
   inkscape:export-filename="logo.png"
   inkscape:export-xdpi="135.11111"
   inkscape:export-ydpi="135.11111"
   xmlns:inkscape="http://www.inkscape.org/namespaces/inkscape"
   xmlns:sodipodi="http://sodipodi.sourceforge.net/DTD/sodipodi-0.dtd"
   xmlns="http://www.w3.org/2000/svg"
   xmlns:svg="http://www.w3.org/2000/svg">
  <defs
     id="defs14" />
  <sodipodi:namedview
     id="namedview12"
     pagecolor="#ffffff"
     bordercolor="#000000"
     borderopacity="0.25"
     inkscape:showpageshadow="2"
     inkscape:pageopacity="0.0"
     inkscape:pagecheckerboard="0"
     inkscape:deskcolor="#d1d1d1"
     showgrid="false"
     inkscape:zoom="7.7592593"
     inkscape:cx="54"
     inkscape:cy="54"
     inkscape:window-width="1920"
     inkscape:window-height="1008"
     inkscape:window-x="0"
     inkscape:window-y="0"
     inkscape:window-maximized="1"
     inkscape:current-layer="svg10" />
  <circle
     cx="54"
     cy="54"
     fill="#4991DC"
     id="circle2"
     r="40"
     style="fill:#9abeff" />
  <path
     opacity="0.75"
     d="M 75.6,62.24 H 32.4 c -1.3255,0 -2.4,1.0745 -2.4,2.4 0,1.3255 1.0745,2.4 2.4,2.4 h 43.2 c 1.3255,0 2.4,-1.0745 2.4,-2.4 0,-1.3255 -1.0745,-2.4 -2.4,-2.4 z"
     fill="white"
     id="path4"
     style="fill:#ececec" />
  <path
     opacity="0.75"
     d="M 75.6,48.8 H 32.4 c -1.3255,0 -2.4,1.0745 -2.4,2.4 0,1.3255 1.0745,2.4 2.4,2.4 h 43.2 c 1.3255,0 2.4,-1.0745 2.4,-2.4 0,-1.3255 -1.0745,-2.4 -2.4,-2.4 z"
     fill="white"
     id="path6"
     style="fill:#ececec" />
  <path
     fill-rule="evenodd"
     clip-rule="evenodd"
     d="M 57.52,32 C 54.4714,32 52,34.4714 52,37.52 c 0,0.0267 2e-4,0.0534 6e-4,0.08 H 52 V 54.7994 C 50.4999,54.0325 48.8005,53.6 47,53.6 c -6.0751,0 -11,4.9248 -11,11 0,6.0752 4.9249,11 11,11 6.0752,0 11,-4.9248 11,-11 0,-0.3371 -0.0152,-0.6706 -0.0448,-1 H 58 V 43.04 h 8.64 c 3.0486,0 5.52,-2.4714 5.52,-5.52 0,-3.0486 -2.4714,-5.52 -5.52,-5.52 z"
     fill="white"
     id="path8"
     style="fill:#ffffff" />
</svg>
