<?xml version="1.0" encoding="UTF-8"?>
<svg version="1.1" viewBox="0 0 192 192" xmlns="http://www.w3.org/2000/svg">
 <defs>
  <clipPath id="clip_path_0">
   <path d="m90 87h251.5v257.42h-251.5z"/>
  </clipPath>
  <clipPath id="clip_path_1">
   <path d="m264.33 296.36 39.39-115.85-69.82-23.74-39.39 115.85 69.82 23.74z"/>
  </clipPath>
 </defs>
 <g transform="matrix(.60035 0 0 .60035 -33.499 -33.406)">
  <g fill-rule="evenodd">
   <path d="m286.86 221.9c3.18 3.85 0.81 11.24-4.25 13.59-55.21 25.71-119.3 54.03-178.51 80.24-6.95 3.07-16.04-2.87-13.73-13.5l71.88-210.2c4.56-7.25 13.82-5.96 18.32-0.55 79.41 95.58 59.69 73.94 106.29 130.42z" clip-path="url(#clip_path_0)" fill="#488de9" style="fill:#728dbe"/>
   <path d="m145.02 209.85c-3.2-3.83-0.87-11.24 4.18-13.62 55.06-26.01 118.99-54.69 178.05-81.23 6.93-3.11 16.06 2.78 13.81 13.42l-70.7 210.6c-4.52 7.28-13.79 6.04-18.31 0.65-79.95-95.14-60.12-73.61-107.03-129.82z" fill="#fe9921" style="fill:#f8c18c"/>
   <path d="m197.01 273.77c-19.69-24.07-22.01-27.79-52.36-64.16-3.19-3.82-0.87-11.2 4.16-13.58 26.74-12.63 55.58-25.9 84.93-39.24 19.83 24.52 22 28.1 52.3 64.83 3.16 3.84 0.81 11.21-4.24 13.55-26.7 12.43-55.49 25.48-84.79 38.6z" fill="#b2cff7" style="fill:#9abeff"/>
  </g>
  <path d="m197.26 273.77c7.46-23.13 32.09-102.13 36.73-116.98 19.83 24.51 22 28.1 52.3 64.82 3.16 3.84 0.81 11.21-4.24 13.56-26.7 12.43-55.49 25.48-84.79 38.6z" clip-path="url(#clip_path_1)" fill="#ffd4a2" fill-rule="evenodd" style="fill:#fcecdc"/>
 </g>
</svg>
