<?xml version="1.0" encoding="UTF-8"?>
<svg version="1.1" viewBox="0 0 192 192" xmlns="http://www.w3.org/2000/svg">
 <rect class="a" x="20" y="20" width="152" height="152" rx="10" style="fill:#56595b"/>
 <rect x="82.37" y="97.25" width="26.556" height="47.838" ry="3.955" style="fill:#d8d8d8;stroke-linecap:round;stroke-linejoin:round;stroke-width:1.0812"/>
 <circle cx="95.921" cy="111.26" r="6.7755" style="fill:#56595b;stroke-linecap:round;stroke-linejoin:round;stroke-width:1.0812"/>
 <circle cx="105.54" cy="101.77" r="1.4779" style="fill:#56595b;stroke-linecap:round;stroke-linejoin:round;stroke-width:1.0812"/>
 <circle cx="98.217" cy="129.65" r="1.4779" style="fill:#56595b;stroke-linecap:round;stroke-linejoin:round;stroke-width:1.0812"/>
 <circle cx="93.715" cy="129.65" r="1.4779" style="fill:#56595b;stroke-linecap:round;stroke-linejoin:round;stroke-width:1.0812"/>
 <circle cx="98.217" cy="133.79" r="1.4779" style="fill:#56595b;stroke-linecap:round;stroke-linejoin:round;stroke-width:1.0812"/>
 <circle cx="93.715" cy="133.79" r="1.4779" style="fill:#56595b;stroke-linecap:round;stroke-linejoin:round;stroke-width:1.0812"/>
 <rect x="86.781" y="126.17" width="3.9562" height="10.641" ry="1.9781" style="fill:#56595b;stroke-linecap:round;stroke-linejoin:round;stroke-width:1.0812"/>
 <rect x="101.24" y="126.17" width="3.9562" height="10.641" ry="1.9781" style="fill:#56595b;stroke-linecap:round;stroke-linejoin:round;stroke-width:1.0812"/>
 <path d="m79.2 87.425 4.4373 4.8232c8.4245-6.2594 16.506-6.2594 24.244 0l4.6624-4.6624c-10.943-9.4856-22.058-9.5392-33.344-0.16077z" style="fill:#d8d8d8;stroke-linecap:round;stroke-linejoin:round;stroke-width:1.0812"/>
 <path d="m69.296 77.393 4.8232 4.8232c15.07-11.147 29.625-11.147 43.666 0l4.6624-4.6624c-17.374-14.459-35.091-14.512-53.151-0.16078z" style="fill:#d8d8d8;stroke-linecap:round;stroke-linejoin:round;stroke-width:1.0812"/>
 <path d="m76.276 98.069h-18.644c-1.925-0.0455-3.2286-1.2106-3.2286-3.2286v-41.627c0-1.9131 1.2785-2.9155 3.0091-3.0091h76.771c1.9672 0 3.2087 1.4563 3.2087 3.2087v41.601c0 1.4874-1.0762 2.987-2.987 2.987h-18.743v3.7494h19.456c2.2463 0 5.956-3.0126 5.956-5.956v-42.016c0-4.2444-2.5007-6.866-6.866-6.866h-76.895c-3.8428 0-6.3888 2.5754-6.3888 6.3888v41.778c0.02859 3.4449 2.0021 6.6967 6.0882 6.6967h19.263z" style="fill:#979797"/>
</svg>
