<?xml version="1.0" encoding="UTF-8"?><svg id="a" xmlns="http://www.w3.org/2000/svg" viewBox="0 0 192 192"><g id="b"><g id="c"><rect id="d" x="20" y="20" width="152" height="152" rx="10" ry="10" style="fill:#f9de81;"/><path d="M95.12,107.66c-10.6,0-16.85-1.1-23.11-3.24l-1.32-12.07.37-.15c5.96,3.53,15.53,5.45,22.82,5.45,7.87,0,11.04-1.91,11.04-4.78,0-2.58-3.61-3.24-6.4-3.68l-11.41-1.91c-7.87-1.32-16.41-4.27-16.41-14.2,0-11.85,12.36-17.07,25.98-17.07,8.32,0,16.63,1.25,21.78,3.83l-4.05,9.86c-5.59-2.8-12.59-4.12-18.1-4.12-6.99,0-9.71,1.84-9.71,4.19,0,2.72,3.24,3.31,5.96,3.75l10.38,1.77c10.67,1.69,18.25,5.23,18.25,14.35,0,12.88-12.81,18.03-26.05,18.03Z" style="fill:#56595b;"/><path d="M69.58,133.2l-1.32-11.63c6.02-2.73,12.97-2.62,18.92.33l3.92,1.94c3.11,1.54,6.76,1.53,9.86-.02l3.72-1.87c5.99-3,13-3.12,19.07-.34l-1.32,11.63-2.92-1.46c-3.11-1.55-6.78-1.55-9.89,0l-3.72,1.87c-6.19,3.1-13.48,3.12-19.69.04l-3.92-1.94c-3.11-1.54-6.76-1.53-9.86.02l-2.84,1.42Z" style="fill:#56595b;"/></g></g></svg>