<?xml version="1.0" encoding="UTF-8" standalone="no"?>
<svg
   viewBox="0 0 192 192"
   version="1.1"
   id="svg3"
   sodipodi:docname="saisonkalender.svg"
   xml:space="preserve"
   inkscape:version="1.3.2 (091e20ef0f, 2023-11-25)"
   xmlns:inkscape="http://www.inkscape.org/namespaces/inkscape"
   xmlns:sodipodi="http://sodipodi.sourceforge.net/DTD/sodipodi-0.dtd"
   xmlns="http://www.w3.org/2000/svg"
   xmlns:svg="http://www.w3.org/2000/svg"><sodipodi:namedview
     id="namedview3"
     pagecolor="#ffffff"
     bordercolor="#000000"
     borderopacity="0.25"
     inkscape:showpageshadow="2"
     inkscape:pageopacity="0.0"
     inkscape:pagecheckerboard="0"
     inkscape:deskcolor="#d1d1d1"
     inkscape:zoom="3.3697825"
     inkscape:cx="147.04213"
     inkscape:cy="121.81795"
     inkscape:window-width="1890"
     inkscape:window-height="1022"
     inkscape:window-x="0"
     inkscape:window-y="0"
     inkscape:window-maximized="1"
     inkscape:current-layer="svg3" /><defs
     id="defs1"><inkscape:path-effect
       effect="fillet_chamfer"
       id="path-effect7"
       is_visible="true"
       lpeversion="1"
       nodesatellites_param="F,0,0,1,0,0,0,1 @ F,0,0,1,0,0,0,1 @ F,0,0,1,0,0,0,1 @ F,0,0,1,0,0,0,1 @ F,0,0,1,0,0,0,1 @ F,0,0,1,0,0,0,1 @ F,0,0,1,0,4.2274768,0,1 @ F,0,0,1,0,0,0,1 @ F,0,0,1,0,0,0,1 @ F,0,0,1,0,0,0,1 @ F,0,0,1,0,0,0,1 @ F,0,0,1,0,0,0,1 @ F,0,0,1,0,0,0,1"
       radius="0"
       unit="px"
       method="auto"
       mode="F"
       chamfer_steps="1"
       flexible="false"
       use_knot_distance="true"
       apply_no_radius="true"
       apply_with_radius="true"
       only_selected="false"
       hide_knots="false" /><style
       id="style1">.a{fill:none;stroke:#b1b5bd;stroke-linecap:round;stroke-linejoin:round;isolation:isolate;opacity:0.63;}</style></defs><g
     id="g8"
     inkscape:label="calendar"><rect
       class="a"
       x="8"
       y="32"
       width="176"
       height="128"
       rx="10"
       id="rect3"
       style="stroke:none;opacity:1;stroke-opacity:1;fill:#4a4a4a;fill-opacity:1" /><rect
       class="a"
       x="13.149886"
       y="53.966858"
       width="165.70023"
       height="99.313423"
       rx="9.4147854"
       id="rect3-5"
       style="opacity:1;isolation:isolate;fill:#e0f4e0;fill-opacity:1;stroke:none;stroke-width:0.854681;stroke-linecap:round;stroke-linejoin:round;stroke-opacity:1" /><g
       id="g4"
       transform="translate(0.29421091)"><rect
         style="opacity:1;fill:#4a4a4a;fill-opacity:1;stroke:none;stroke-width:3.613;stroke-linecap:round;stroke-linejoin:round;stroke-opacity:1;paint-order:stroke fill markers"
         id="rect4"
         width="9.6188402"
         height="17.197092"
         x="24.790449"
         y="22.118969" /><rect
         style="fill:#4a4a4a;fill-opacity:1;stroke:none;stroke-width:3.613;stroke-linecap:round;stroke-linejoin:round;stroke-opacity:1;paint-order:stroke fill markers"
         id="rect4-8"
         width="9.6188402"
         height="17.197092"
         x="157.00229"
         y="22.118969" /></g></g><g
     id="g5"
     inkscape:label="apple"
     transform="translate(-0.82289048,-3.2804563)"><path
       style="opacity:1;fill:#4a4a4a;fill-opacity:1;stroke:none;stroke-width:3.613;stroke-linecap:round;stroke-linejoin:round;stroke-opacity:1;paint-order:stroke fill markers"
       d="m 58.579106,136.05941 c 2.139724,0 5.762171,2.93256 10.958505,3.07903 4.808858,0.13555 19.886717,-6.30938 19.955643,-28.37576 0.06893,-22.066377 -10.394291,-23.534812 -16.952972,-23.534812 -9.729208,0 -11.337475,4.648534 -13.417096,4.648534 -2.079621,0 -6.102102,-4.800924 -16.914416,-4.800924 -6.815095,0 -13.554624,9.740029 -13.554624,19.783762 0,13.96601 7.317773,32.14579 20.445966,32.27005 4.896719,0.0463 8.186338,-3.06988 9.478994,-3.06988 z"
       id="path4"
       sodipodi:nodetypes="sssssssss" /><path
       style="opacity:1;fill:#4a4a4a;fill-opacity:1;stroke:none;stroke-width:3.613;stroke-linecap:round;stroke-linejoin:round;stroke-opacity:1;paint-order:stroke fill markers"
       d="M 57.048368,84.613245 C 57.244715,73.657635 61.701611,70.497067 70.735009,69.436032 73.347222,76.918594 69.740101,85.41792 57.048368,84.613245 Z"
       id="path5"
       sodipodi:nodetypes="ccc" /></g><g
     id="g7"
     inkscape:label="carrot"
     transform="translate(4.2203568,-2.9945718)"><path
       style="opacity:1;fill:#4a4a4a;fill-opacity:1;stroke:none;stroke-width:3.613;stroke-linecap:round;stroke-linejoin:round;stroke-opacity:1;paint-order:stroke fill markers"
       d="m 143.96575,69.826858 c 8.39861,7.920394 3.75124,16.421208 3.75124,16.421208 0,0 12.15567,-3.929235 16.6882,3.612044 -6.07656,6.267094 -16.46428,6.281071 -21.09351,0.367964 -4.62922,-5.913106 -5.74736,-13.252961 0.65407,-20.401216 z"
       id="path6"
       sodipodi:nodetypes="cccsc" /><path
       id="path7"
       style="opacity:1;fill:#4a4a4a;fill-opacity:1;stroke:none;stroke-width:3.613;stroke-linecap:round;stroke-linejoin:round;stroke-opacity:1;paint-order:stroke fill markers"
       d="m 129.94531,88.896484 c -4.06975,-0.122693 -8.57227,1.99497 -13.36914,7.091797 l 6.1543,5.662109 c 1.16861,1.07486 1.25466,2.86761 0.19336,4.02149 -1.06131,1.15387 -2.85482,1.21743 -4.02344,0.14257 l -5.94531,-5.46679 c -5.61935,7.5405 -11.57713,19.18036 -17.670268,36.03019 -0.793963,2.1956 0.340153,3.26424 2.490346,2.35441 7.396492,-3.12974 13.835682,-6.07282 19.388902,-8.87484 l -6.42383,-5.9082 c -1.1686,-1.07486 -1.25661,-2.86956 -0.19531,-4.02344 1.06131,-1.15388 2.85678,-1.21744 4.02539,-0.14258 l 7.91992,7.28516 c 22.14812,-12.11767 26.65817,-21.63591 17.93555,-32.197266 -3.00594,-3.639598 -6.53985,-5.855809 -10.48047,-5.97461 z"
       inkscape:path-effect="#path-effect7"
       inkscape:original-d="m 129.94531,88.896484 c -4.06975,-0.122693 -8.57227,1.99497 -13.36914,7.091797 l 6.1543,5.662109 c 1.16861,1.07486 1.25466,2.86761 0.19336,4.02149 -1.06131,1.15387 -2.85482,1.21743 -4.02344,0.14257 l -5.94531,-5.46679 c -6.05203,8.12111 -12.49662,20.99718 -19.08008,40.01562 9.05636,-3.74462 16.78111,-7.22211 23.28906,-10.50586 l -6.42383,-5.9082 c -1.1686,-1.07486 -1.25661,-2.86956 -0.19531,-4.02344 1.06131,-1.15388 2.85678,-1.21744 4.02539,-0.14258 l 7.91992,7.28516 c 22.14812,-12.11767 26.65817,-21.63591 17.93555,-32.197266 -3.00594,-3.639598 -6.53985,-5.855809 -10.48047,-5.97461 z" /></g></svg>
