<?xml version="1.0" encoding="UTF-8"?>
<svg version="1.1" viewBox="0 0 192 192" xmlns="http://www.w3.org/2000/svg">
 <circle cx="96" cy="96" r="88" opacity=".63" style="fill:#f8c18c;opacity:1"/>
 <g transform="translate(1.0863 3.2462)">
  <g transform="translate(-1.0863 -3.2462)">
   <path d="m62.351 119.4c0.24685-5.6793 1.2605-11.623 2.9546-17.324 0.28125-0.94652 0.53472-1.8242 0.56328-1.9504 0.02858-0.12621-0.26592 0.31932-0.65438 0.99006-2.0292 3.5036-4.8442 7.3313-6.9923 9.5078l-0.62282 0.63102 0.06507-1.6062c0.15418-3.8058 1.0352-8.7018 2.2962-12.76 0.26831-0.86356 0.47302-1.5857 0.45491-1.6048-0.01809-0.019-0.17289 0.23662-0.34396 0.56821-0.49957 0.96833-2.1415 3.4966-3.0181 4.6475-0.94736 1.2436-2.6716 3.2408-2.7979 3.2408-0.1655 0 0.11677-3.3724 0.44652-5.3349 0.23021-1.3701 0.86859-4.0868 1.1961-5.0901 0.11251-0.34468 0.18956-0.64251 0.17121-0.66187-0.01835-0.0193-0.37336 0.51834-0.78893 1.1948-0.88242 1.4364-2.1683 3.1462-3.0389 4.0408l-0.61414 0.63103 0.06688-0.91783c0.50143-6.8813 3.3409-13.867 7.5084-18.472l0.83068-0.91783-0.06505 1.249c-0.07625 1.4643-0.38543 3.4748-0.76775 4.9923-0.14944 0.59318-0.25222 1.099-0.22839 1.1242 0.02379 0.0253 0.2259-0.30534 0.44905-0.73433 0.6611-1.2709 2.1856-3.6398 3.1854-4.9498 1.0908-1.4293 2.6462-3.2302 2.7897-3.2302 0.14074 0-0.0026 2.2606-0.26285 4.1479-0.28775 2.086-0.89198 4.8451-1.3655 6.2352-0.1609 0.47235 0.15016-0.0311 0.98152-1.5886 1.9756-3.7012 4.9474-7.8723 7.4102-10.401l0.83818-0.86048-0.0732 1.4915c-0.17319 3.5292-0.95562 8.2334-1.9159 11.519-0.11807 0.40399-0.19791 0.75217-0.17743 0.77379 0.0205 0.0216 0.29946-0.46384 0.61997-1.0788 2.6796-5.1407 6.427-10.526 10.037-14.424l1.3839-1.4943 4e-3 0.82276c0.01073 2.2323-0.47326 6.7417-1.0938 10.191-1.9484 10.832-6.7977 22.485-12.986 31.207-1.7466 2.4615-3.9752 5.1902-5.6226 6.8838l-0.89275 0.9178 0.06981-1.6062z" style="fill:#56595b;stroke-width:.28029"/>
   <text x="116.23695" y="107.27484" style="fill:#56595b;font-family:Now;font-size:30.844px;font-weight:bold;stroke-linecap:round;stroke-linejoin:round;stroke-width:23.133;text-align:center;text-anchor:middle" xml:space="preserve"><tspan x="116.23695" y="107.27484" style="stroke-width:23.133">ON</tspan></text>
   <path d="m98.402 94.28-16.62-12.277-1.2082 27.575 20.329-14.114z" style="fill:#f8c18c;stroke-linecap:round;stroke-linejoin:round;stroke-width:11.355"/>
   <path d="m81.72 104.2v-17.479l12.417 8.7871z" style="fill:#56595b;stroke-linecap:round;stroke-linejoin:round;stroke-width:11.355"/>
  </g>
 </g>
</svg>
