<?xml version="1.0" encoding="UTF-8"?>
<svg version="1.1" viewBox="0 0 192 192" xmlns="http://www.w3.org/2000/svg">
 <rect class="a" x="32" y="8" width="128" height="176" rx="10" style="fill:#8c72bd"/>
 <g transform="matrix(.39239 0 0 .39239 57.13 50.136)">
  <path d="m114.45 26.98c31.21 0 56.61 25.39 56.61 56.61v108.86c-1.28 7.52-7.35 13.37-14.95 14.34h-72.4c-31.28 0-56.63-25.36-56.63-56.63v-105.67c0-9.67 7.84-17.51 17.51-17.51h69.86m0-26.64h-69.87c-24.38 0-44.15 19.77-44.15 44.15v105.67c0 45.99 37.28 83.27 83.27 83.27h73.72c21.13-1.7 38.05-18.28 40.27-39.25v-110.59c0.01-45.98-37.26-83.25-83.24-83.25z" fill="#510098" style="fill:#fff"/>
  <g id="Settings">
   <path d="m152.43 110.9c-0.17-1.51-1.94-2.65-3.46-2.65-4.94 0-9.32-2.9-11.16-7.38-1.88-4.59-0.67-9.95 3.01-13.32 1.16-1.06 1.3-2.83 0.33-4.06-2.53-3.21-5.4-6.11-8.54-8.62-1.23-0.99-3.03-0.85-4.1 0.33-3.21 3.56-8.98 4.88-13.44 3.02-4.64-1.95-7.56-6.65-7.28-11.7 0.09-1.59-1.06-2.96-2.64-3.15-4.02-0.47-8.09-0.48-12.12-0.03-1.56 0.17-2.72 1.52-2.67 3.08 0.18 5-2.79 9.62-7.38 11.5-4.4 1.8-10.13 0.49-13.34-3.04-1.06-1.16-2.83-1.3-4.07-0.34-3.23 2.53-6.17 5.44-8.72 8.62-0.99 1.24-0.85 3.03 0.32 4.1 3.75 3.4 4.96 8.8 3.01 13.44-1.86 4.43-6.46 7.28-11.72 7.28-1.71-0.05-2.93 1.09-3.11 2.65-0.47 4.05-0.48 8.17-0.02 12.25 0.17 1.52 1.99 2.65 3.53 2.65 4.69-0.12 9.2 2.79 11.09 7.38 1.88 4.59 0.67 9.95-3.01 13.32-1.15 1.06-1.3 2.83-0.33 4.06 2.5 3.19 5.38 6.09 8.52 8.62 1.23 0.99 3.03 0.85 4.1-0.32 3.22-3.57 8.99-4.89 13.43-3.02 4.65 1.95 7.58 6.65 7.29 11.69-0.09 1.59 1.07 2.97 2.64 3.15 2.06 0.24 4.13 0.36 6.21 0.36 1.97 0 3.94-0.11 5.92-0.33 1.56-0.17 2.72-1.52 2.67-3.09-0.18-4.99 2.79-9.61 7.37-11.49 4.43-1.81 10.14-0.49 13.34 3.04 1.07 1.16 2.83 1.3 4.07 0.34 3.22-2.53 6.15-5.43 8.72-8.62 0.99-1.23 0.85-3.03-0.32-4.1-3.75-3.4-4.97-8.8-3.02-13.44 1.83-4.37 6.26-7.3 11.02-7.3l0.67 0.02c1.54 0.13 2.97-1.06 3.15-2.64 0.49-4.06 0.49-8.18 0.04-12.26zm-53.46 24.07c-9.91 0-17.97-8.06-17.97-17.97s8.06-17.97 17.97-17.97 17.97 8.06 17.97 17.97-8.06 17.97-17.97 17.97z" fill="#510098" fill-rule="evenodd" style="fill:#fff"/>
  </g>
 </g>
</svg>
