<?xml version="1.0" encoding="UTF-8"?>
<svg version="1.1" viewBox="0 0 192 192" xmlns="http://www.w3.org/2000/svg">
 <circle class="a" cx="96" cy="96" r="88" style="fill:#728dbe"/>
 <path d="m95.999 51.738c-8.8301 8.2788-21.608 12.251-41.899 8.0275v33.676c3.5617 25.705 16.42 44.77 41.899 54.82 25.478-10.051 38.338-29.115 41.9-54.82v-33.676c-20.29 4.2234-33.07 0.25123-41.9-8.0275z" style="fill:#f8c18c;stroke-linecap:round;stroke-linejoin:round;stroke-width:1.2111"/>
 <path d="m83.763 118.4h32.697v-2.4474c3.0149-3.237 3.8292-7.1096 0.97894-12.041h1.6642c1.3517-1.5686 1.943-3.7075 1.7285-6.4508h-5.9379s-1.8465-5.1982-3.9196-6.7889c-4.0996-3.1457-9.8066-4.0123-14.974-4.0123-5.1684 0-10.811 0.95346-14.977 4.0131-2.16 1.5865-4.3087 6.7881-4.3087 6.7881h-5.971c0.0033 1.9127 0.10729 3.8354 1.3938 5.8764h2.0325c-2.5289 4.8194-2.4934 8.9699 0.97894 12.224v2.8389z" style="fill:#fff;stroke-linecap:round;stroke-linejoin:round;stroke-width:1.2111"/>
 <rect x="75.148" y="115.57" width="8.9084" height="10.573" ry="2.8389" style="fill:#fff;stroke-linecap:round;stroke-linejoin:round;stroke-width:1.2111"/>
 <rect x="107.55" y="115.57" width="8.9084" height="10.573" ry="2.8389" style="fill:#fff;stroke-linecap:round;stroke-linejoin:round;stroke-width:1.2111"/>
 <circle cx="81.903" cy="109.74" r="3.671" style="fill:#f8c18c;stroke-linecap:round;stroke-linejoin:round;stroke-width:1.2111"/>
 <circle cx="109.9" cy="109.74" r="3.671" style="fill:#f8c18c;stroke-linecap:round;stroke-linejoin:round;stroke-width:1.2111"/>
 <path d="m96 99.462h14.635s-1.6601-4.6733-3.5238-6.1034c-3.0421-2.3343-7.2769-2.9773-11.111-2.9773-4.1997 0-8.8508 0.68772-12.17 3.2609-1.7603 1.3647-3.2832 5.8198-3.2832 5.8198z" style="fill:#f8c18c;stroke-linecap:round;stroke-linejoin:round;stroke-width:1.2111"/>
 <g transform="matrix(.069222 0 0 .069222 87.14 62.278)">
  <path d="m339.7 111.7c-123.08-100.96-300.33-100.96-423.41 0-6.6286 5.4454-7.5883 15.233-2.1435 21.862 5.4448 6.6291 15.232 7.5897 21.862 2.1455 111.62-91.537 272.35-91.537 383.97 0 6.6296 5.4442 16.417 4.4836 21.862-2.1455 5.4448-6.6292 4.4852-16.417-2.1435-21.862zm-62.261 69.423c-87.533-69.301-211.24-69.301-298.77 0-6.7196 5.3276-7.8486 15.093-2.5217 21.814 5.3268 6.7202 15.093 7.8502 21.813 2.5241 76.233-60.342 183.95-60.342 260.19 0 6.7204 5.3282 16.488 4.1985 21.815-2.5231 5.3282-6.7204 4.1985-16.488-2.523-21.815zm-62.611 69.403c-51.739-37.602-121.81-37.602-173.55 0-6.9351 5.0486-8.4644 14.763-3.4158 21.698 5.0486 6.9351 14.763 8.4644 21.698 3.4158 40.833-29.696 96.15-29.696 136.98 0 6.9351 5.0486 16.65 3.5192 21.698-3.4158 5.0486-6.9351 3.5192-16.65-3.4158-21.698z" style="fill:#fff;stroke-width:1.9408"/>
 </g>
</svg>
