<?xml version="1.0" encoding="UTF-8"?>
<svg version="1.1" viewBox="0 0 192 192" xmlns="http://www.w3.org/2000/svg">
 <circle class="a" cx="96" cy="96" r="88" style="fill:#728dbe"/>
 <path d="m85.738 131.47c-11.41-2.8071-18.409-12.99-18.522-26.945-0.0576-7.1371 2.205-13.555 7.5813-21.503 0.82199-1.2153 1.4945-2.3154 1.4945-2.4447s-0.68039-0.37121-1.512-0.53753c-2.0269-0.40539-4.809-2.8191-5.6959-4.9419-1.6818-4.0251-0.41715-10.302 2.9093-14.44l1.0574-1.3153 0.50276 1.3153c0.27652 0.72344 0.94632 1.701 1.4885 2.1725 2.5176 2.1892 3.2604 2.2957 17.94 2.5728 0 0 9.7895 0.02729 14.312 0.2702 21.449 1.1522 25.243 52.265-0.3435 64.439-3.3255 1.5822-7.4891 2.3296-11.365 2.5247-3.3013 0.16613-8.7923-0.90824-9.8475-1.1678zm19.174-13.964c6.2891-1.333 9.4278-3.6214 11.641-8.4876 1.034-2.2732 1.2038-3.5304 1.2136-8.9861 0.017-9.4019-2.1621-15.157-6.7061-17.711-2.6159-1.4702-11.083-2.2839-20.761-1.9952-7.7633 0.23161-9.0646 0.67087-11.699 3.9491-6.1294 7.6283-8.3669 19.57-4.8054 25.647 3.3336 5.6884 9.9355 8.2325 21.526 8.2951 3.3491 0.0181 7.6559-0.30142 9.5908-0.71154z" style="fill:#fff;stroke-width:.52859"/>
</svg>
