<?xml version="1.0" encoding="UTF-8"?>
<svg version="1.1" viewBox="0 0 192 192" xmlns="http://www.w3.org/2000/svg">
 <rect class="a" x="20" y="20" width="152" height="152" rx="10" style="fill:#fff"/>
 <path d="m57.368 116.12v22.426h6.8808c1.6018 0 3.3979-1.7961 3.3979-3.3979v-15.036c0-1.7568-1.6836-3.9926-3.4404-3.9926h-6.8383z" style="fill:#56595b;stroke-linejoin:round;stroke-width:12.302"/>
 <path d="m60.444 110.77c0-14.812 8.6246-23.063 23.063-23.063" style="fill:none;stroke-linecap:square;stroke-linejoin:round;stroke-width:6.1509;stroke:#56595b"/>
 <path d="m115.56 110.18-10.956-2.9357c-2.0986-0.9486-4.5968-0.45581-4.5968 1.2317v18.609c0 2.0434 1.2549 2.8509 3.5813 2.0677l11.899-3.1883z" style="fill:#56595b"/>
 <path d="m100.01 119.52h-5.0045v-3.3979s-8.4215-1.1333-8.4215 5.6692c0 7.4153 8.5489 5.7564 8.5489 5.7564v-2.9732h6.2862v-3.8227z" style="fill:#56595b"/>
 <g transform="matrix(.23164 0 0 .23164 100.64 40.85)">
  <path d="m40.8 54.4h110.4v82.9h-110.4zm104.6 76.8v-60.4c-8.6-0.7-16 1.5-20.7 8.6-4.1 6.2-7.4 12.9-10.8 19.5-3.2 6.1-5.4 12.9-9.3 18.5-3.6 5.3-8.9 9.5-13.2 13.9 17.4-0.1 35.5-0.1 54-0.1zm-98.2-70.4v60.4c9.5 0.3 17.1-2.5 21.7-10.5 4.2-7.3 8.2-14.9 11.7-22.6 4.9-10.7 9.5-21.4 20.9-27.3z" fill="#b1b5be" style="fill:#56595b"/>
  <path d="m145.4 131.2h-54c4.3-4.5 9.6-8.6 13.2-13.9 3.9-5.6 6.1-12.4 9.3-18.5 3.4-6.6 6.7-13.3 10.8-19.5 4.8-7.1 12.1-9.2 20.7-8.6zm-98.2-70.4h54.3c-11.5 5.9-16.1 16.6-20.9 27.3-3.5 7.7-7.5 15.2-11.7 22.6-4.6 8-12.2 10.9-21.7 10.5v-60.4z" fill="#fff"/>
 </g>
</svg>
