<?xml version="1.0" encoding="UTF-8" standalone="no"?>
<svg
   viewBox="0 0 192 192"
   version="1.1"
   id="svg3"
   sodipodi:docname="shokz.svg"
   xml:space="preserve"
   inkscape:version="1.4 (e7c3feb100, 2024-10-09)"
   inkscape:export-filename="shokz.png"
   inkscape:export-xdpi="96"
   inkscape:export-ydpi="96"
   xmlns:inkscape="http://www.inkscape.org/namespaces/inkscape"
   xmlns:sodipodi="http://sodipodi.sourceforge.net/DTD/sodipodi-0.dtd"
   xmlns="http://www.w3.org/2000/svg"
   xmlns:svg="http://www.w3.org/2000/svg"><sodipodi:namedview
     id="namedview3"
     pagecolor="#ffffff"
     bordercolor="#000000"
     borderopacity="0.25"
     inkscape:showpageshadow="2"
     inkscape:pageopacity="0.0"
     inkscape:pagecheckerboard="0"
     inkscape:deskcolor="#d1d1d1"
     inkscape:zoom="2.203125"
     inkscape:cx="49.929078"
     inkscape:cy="36.312057"
     inkscape:window-width="1920"
     inkscape:window-height="1048"
     inkscape:window-x="0"
     inkscape:window-y="0"
     inkscape:window-maximized="1"
     inkscape:current-layer="svg3" /><defs
     id="defs1"><style
       id="style1">.a{fill:none;stroke:#b1b5bd;stroke-linecap:round;stroke-linejoin:round;isolation:isolate;opacity:0.63;}</style><style
       id="style1-7">.a{fill:#000;}</style></defs><rect
     class="a"
     x="20"
     y="20"
     width="152"
     height="152"
     rx="10"
     id="rect1"
     style="opacity:1;stroke:#56595b;stroke-opacity:1;fill:#56595b;fill-opacity:1" /><path
     class="a"
     d="M 48.358302,93.336393 45.68425,93.142261 c -2.012346,-0.172825 -2.585273,-0.632113 -2.585273,-1.882135 0,-0.881881 0.499535,-1.987488 3.669572,-1.92475 a 43.774443,43.774443 0 0 1 9.095804,1.289085 l 0.473493,-5.790821 a 39.234827,39.234827 0 0 0 -9.572848,-1.111525 c -6.314031,0 -10.180103,2.078635 -10.212064,7.37939 -0.03196,5.4286 2.862266,6.834874 9.439086,7.313102 2.568701,0.18703 4.839101,0.439165 4.839101,2.367463 0,1.40391 -1.039318,1.7756 -4.066123,1.69156 a 46.931458,46.931458 0 0 1 -9.787104,-1.55424 l -0.456921,5.91866 a 33.718632,33.718632 0 0 0 10.244025,1.42048 c 9.326632,0 10.28072,-4.26144 10.28072,-7.52025 -0.0012,-4.55856 -1.594488,-6.67981 -8.687416,-7.401887 z"
     id="path1"
     style="fill:#ffffff;fill-opacity:1;stroke:#ffffff;stroke-width:0.691108;stroke-dasharray:none;stroke-opacity:1" /><path
     class="a"
     d="m 155.47902,89.32946 v -5.412027 h -19.0072 v 5.606159 h 10.66307 v 0.194132 l -11.40408,12.916896 v 5.44517 h 19.74821 v -5.60616 h -11.56507 v -0.19413 z"
     id="path2"
     style="fill:#ffffff;fill-opacity:1;stroke:#ffffff;stroke-width:0.691108;stroke-dasharray:none;stroke-opacity:1" /><path
     class="a"
     d="m 96.991971,83.580068 c -6.914183,0 -10.758948,1.380232 -11.245462,8.911141 a 58.564001,58.564001 0 0 0 0,7.013617 c 0.690116,7.457514 4.279194,8.912324 11.245462,8.912324 6.966269,0 10.552979,-1.45954 11.245459,-8.912324 a 58.792462,58.792462 0 0 0 0,-7.013617 C 107.75092,84.9603 103.90616,83.580068 96.991971,83.580068 Z m 4.578679,15.213335 c -0.18821,3.506217 -1.19912,3.985627 -4.569209,3.985627 -3.370087,0 -4.243682,-0.51847 -4.568025,-3.985627 a 47.902119,47.902119 0 0 1 0,-5.620364 c 0.202418,-3.551198 1.197938,-3.954851 4.568025,-3.954851 3.370089,0 4.366789,0.404836 4.569209,3.954851 0.0971,1.706943 0.0722,4.318258 0,5.620364 z"
     id="path3"
     style="fill:#ffffff;fill-opacity:1;stroke:#ffffff;stroke-width:0.691108;stroke-dasharray:none;stroke-opacity:1" /><path
     class="a"
     d="M 81.996436,108.07979 V 83.917433 h -6.446609 v 9.083966 h -8.404504 v -9.083966 h -6.443058 v 24.162357 h 6.443058 v -9.469864 h 8.404504 v 9.469864 z"
     id="path4"
     style="fill:#ffffff;fill-opacity:1;stroke:#ffffff;stroke-width:0.691108;stroke-dasharray:none;stroke-opacity:1" /><path
     class="a"
     d="m 133.21894,83.917433 h -7.79607 l -6.3093,9.330183 h -0.68419 v -9.330183 h -6.44306 v 24.162357 h 6.44306 v -9.620198 h 0.68419 l 6.80292,9.620198 h 7.98546 l -9.20352,-12.67778 z"
     id="path5"
     style="fill:#ffffff;fill-opacity:1;stroke:#ffffff;stroke-width:0.691108;stroke-dasharray:none;stroke-opacity:1" /><path
     class="a"
     d="m 97.003808,117.05959 c -3.009049,0 -10.113814,0 -14.990794,-4.9409 l -1.118627,1.20504 c 3.741779,4.09926 9.266261,6.34836 16.121258,6.34836 6.854995,0 12.391315,-2.26567 16.139015,-6.31285 l -1.15296,-1.24529 c -4.87816,4.94564 -11.98174,4.94564 -14.997892,4.94564 z"
     id="path6"
     style="fill:#ffffff;fill-opacity:1;stroke:#ffffff;stroke-width:0.691108;stroke-dasharray:none;stroke-opacity:1" /><path
     class="a"
     d="m 84.533178,77.805816 c 4.042448,-2.542658 8.786849,-2.871736 12.47181,-2.871736 3.684962,0 8.435282,0.329078 12.471812,2.871736 a 14.559915,14.559915 0 0 1 2.5249,2.000509 l 1.12455,-1.210959 a 19.287744,19.287744 0 0 0 -2.20767,-2.012346 24.844186,24.844186 0 0 0 -27.809433,0 19.117286,19.117286 0 0 0 -2.219499,2.030102 l 1.118628,1.199122 a 14.559915,14.559915 0 0 1 2.524902,-2.006428 z"
     id="path7"
     style="fill:#ffffff;fill-opacity:1;stroke:#ffffff;stroke-width:0.691108;stroke-dasharray:none;stroke-opacity:1" /><path
     class="a"
     d="m 97.019194,114.39145 c 5.488966,0 9.756326,-1.71878 12.528626,-4.91841 l -1.59093,-1.71286 c -2.46809,2.65748 -6.26787,3.36772 -10.949534,3.36772 -4.681663,0 -8.487364,-0.71024 -10.949529,-3.36772 l -1.544771,1.65722 c 2.759281,3.25527 6.997045,4.97405 12.506138,4.97405 z"
     id="path8"
     style="fill:#ffffff;fill-opacity:1;stroke:#ffffff;stroke-width:0.691108;stroke-dasharray:none;stroke-opacity:1" /><path
     class="a"
     d="M 107.64201,80.729632 A 16.445601,16.445601 0 0 0 97.016823,77.598658 h -0.01894 a 16.444417,16.444417 0 0 0 -10.624003,3.130974 13.344221,13.344221 0 0 0 -1.86793,1.763762 l 1.544771,1.666696 c 2.649194,-2.7652 6.730705,-3.290778 10.956632,-3.291961 4.225927,-0.0012 8.307437,0.527944 10.956627,3.291961 l 1.54478,-1.666696 a 13.369079,13.369079 0 0 0 -1.86675,-1.763762 z"
     id="path9"
     style="fill:#ffffff;fill-opacity:1;stroke:#ffffff;stroke-width:0.691108;stroke-dasharray:none;stroke-opacity:1" /></svg>
