<?xml version="1.0" encoding="UTF-8"?>
<svg version="1.1" viewBox="0 0 192 192" xmlns="http://www.w3.org/2000/svg">
 <rect class="a" x="20" y="20" width="152" height="152" rx="10" style="fill:#728dbe"/>
 <g transform="matrix(.45769 0 0 .45769 202.8 37.846)">
  <path d="m-269.81 84.773v-47.785h8.5626v-8.2864h15.468v8.2864h8.2864v8.0102h7.734v8.2864h8.2864v7.4578h39.222v-7.4578h8.0102v-8.2864h7.4578v-8.0102h8.2864v-8.2864h16.297v8.2864h7.734v62.977h8.2864v24.307h7.734v24.031h-7.734v8.0102h-16.02v8.2864h-79.273v-8.2864h-24.307v-8.0102h-15.468v-6.6291h-8.5626v-17.401h24.031v-7.1816h-15.468v-8.2864h-15.744v-8.8388h15.744v-6.9053h15.468v-8.2864z" style="fill:#f8c18c;stroke-linejoin:round;stroke-width:3"/>
  <path d="m-182.25 132.83h-15.192v8.8388h-8.0102v14.639h8.0102v8.2864h38.946v-8.2864h8.5626v-14.639h-8.5626v-8.8388z" style="fill:#fff;stroke-linejoin:round;stroke-width:3"/>
  <path d="m-253.51 44.998h7.734v8.2864h8.2864v7.4578h7.734v8.0102h-7.734v8.0102h-16.02z" style="fill:#fff;stroke-linejoin:round;stroke-width:3"/>
  <path d="m-158.5 44.998h16.297v31.765h-7.734v-8.0102h-8.5626v-8.0102h-8.2864v-7.4578h8.2864z" style="fill:#fff;stroke-linejoin:round;stroke-width:3"/>
  <path d="m-276.99 84.773v-47.785h7.1816v47.785z" style="fill:#c39a54;stroke-linejoin:round;stroke-width:3"/>
  <path d="m-269.81 28.702v8.2864h8.5626v-8.2864z" style="fill:#c39a54;stroke-linejoin:round;stroke-width:3"/>
  <path d="m-261.25 21.52v7.1816h15.468v-7.1816z" style="fill:#c39a54;stroke-linejoin:round;stroke-width:3"/>
  <path d="m-245.78 28.702h8.2864v8.2864h-8.2864z" style="fill:#c39a54;stroke-linejoin:round;stroke-width:3"/>
  <path d="m-237.49 36.988v8.0102h7.734v-8.0102z" style="fill:#c39a54;stroke-linejoin:round;stroke-width:3"/>
  <path d="m-229.76 44.998h8.2864v8.2864h-8.2864z" style="fill:#c39a54;stroke-linejoin:round;stroke-width:3"/>
  <path d="m-221.47 53.285v7.4578h39.222v-7.4578z" style="fill:#c39a54;stroke-linejoin:round;stroke-width:3"/>
  <path d="m-182.25 44.998h8.0102v8.2864h-8.0102z" style="fill:#c39a54;stroke-linejoin:round;stroke-width:3"/>
  <path d="m-174.24 36.988v8.0102h7.4578v-8.0102z" style="fill:#c39a54;stroke-linejoin:round;stroke-width:3"/>
  <path d="m-166.78 28.702h8.2864v8.2864h-8.2864z" style="fill:#c39a54;stroke-linejoin:round;stroke-width:3"/>
  <path d="m-158.5 21.52h16.297v7.1816h-16.297z" style="fill:#c39a54;stroke-linejoin:round;stroke-width:3"/>
  <path d="m-142.2 28.702h7.734v8.2864h-7.734z" style="fill:#c39a54;stroke-linejoin:round;stroke-width:3"/>
  <path d="m-134.46 36.988h8.2864v62.977h-8.2864z" style="fill:#c39a54;stroke-linejoin:round;stroke-width:3"/>
  <path d="m-126.18 99.965h7.734v24.307h-7.734z" style="fill:#c39a54;stroke-linejoin:round;stroke-width:3"/>
  <path d="m-118.44 124.27h8.0102v24.031h-8.0102z" style="fill:#c39a54;stroke-linejoin:round;stroke-width:3"/>
  <path d="m-126.18 148.3h7.734v8.0102h-7.734z" style="fill:#c39a54;stroke-linejoin:round;stroke-width:3"/>
  <path d="m-142.2 156.31h16.02v8.2864l-16.02 1e-5z" style="fill:#c39a54;stroke-linejoin:round;stroke-width:3"/>
  <path d="m-284.72 99.965h7.734v8.8388h-7.734z" style="fill:#c39a54;stroke-linejoin:round;stroke-width:3"/>
  <path d="m-284.72 84.773h7.734v15.192h-7.734z" style="fill:#8e6f60;stroke-linejoin:round;stroke-width:3"/>
  <path d="m-284.72 108.8h7.734v8.2864h-7.734z" style="fill:#8e6f60;stroke-linejoin:round;stroke-width:3"/>
  <path d="m-284.72 117.09h-8.4245v24.583h8.4245z" style="fill:#8e6f60;stroke-linejoin:round;stroke-width:3"/>
  <path d="m-284.72 141.67v6.6291h7.734v-6.6291z" style="fill:#8e6f60;stroke-linejoin:round;stroke-width:3"/>
  <path d="m-276.99 148.3v8.0102h7.1816v-8.0102z" style="fill:#8e6f60;stroke-linejoin:round;stroke-width:3"/>
  <path d="m-269.81 156.31h8.5626v8.2864h-8.5626z" style="fill:#8e6f60;stroke-linejoin:round;stroke-width:3"/>
  <path d="m-221.47 99.965h8.0102v8.8388h8.0102v15.468h-16.02z" style="fill:#56595b;stroke-linejoin:round;stroke-width:3"/>
  <path d="m-158.5 99.965h8.5626v8.8388h7.734v15.468h-16.297z" style="fill:#56595b;stroke-linejoin:round;stroke-width:3"/>
  <path d="m-229.76 108.8h8.2864v15.468h-8.2864z" style="fill:#fff;stroke-linejoin:round;stroke-width:3"/>
  <path d="m-213.46 99.965h8.0102v8.8388h-8.0102z" style="fill:#fff;stroke-linejoin:round;stroke-width:3"/>
  <path d="m-205.45 108.8h8.0102v15.468h-8.0102z" style="fill:#fff;stroke-linejoin:round;stroke-width:3"/>
  <path d="m-166.78 108.8h8.2864v15.468h-8.2864z" style="fill:#fff;stroke-linejoin:round;stroke-width:3"/>
  <path d="m-149.93 99.965h7.734v8.8388h-7.734z" style="fill:#fff;stroke-linejoin:round;stroke-width:3"/>
  <path d="m-142.2 108.8h7.734v15.468h-7.734z" style="fill:#fff;stroke-linejoin:round;stroke-width:3"/>
  <path d="m-182.25 124.27h15.468v8.5626h-15.468z" style="fill:#ffd6d4;stroke-linejoin:round;stroke-width:3"/>
  <path d="m-182.25 132.83v8.8388h15.468v-8.8388z" style="fill:#ff837d;stroke-linejoin:round;stroke-width:3"/>
  <path d="m-182.25 141.67v6.6291h15.468v-6.6291z" style="fill:#c39a54;stroke-linejoin:round;stroke-width:3"/>
  <path d="m-189.43 148.3h7.1816v8.0102h-7.1816z" style="fill:#c39a54;stroke-linejoin:round;stroke-width:3"/>
  <path d="m-166.78 148.3h8.2864v8.0102h-8.2864z" style="fill:#c39a54;stroke-linejoin:round;stroke-width:3"/>
  <path d="m-276.99 84.773h31.212v8.2864h-15.468v6.9053h-15.744z" style="fill:#c39a54;stroke-linejoin:round;stroke-width:3"/>
  <path d="m-276.99 108.8h15.744v8.2864h15.468v7.1816h-24.031v17.401h8.5626v6.6291h15.468v8.0102h24.307v8.2864h-39.775v-8.2864h-8.5626v-8.0102h-7.1816v-6.6291h-7.734v-24.583h7.734z" style="fill:#c39a54;stroke-linejoin:round;stroke-width:3"/>
  <path d="m-261.25 164.6v7.862h7.734v-7.862z" style="fill:#56595b;stroke-linejoin:round;stroke-width:3"/>
  <path d="m-142.2 164.6v7.862h-16.297v-7.862z" style="fill:#56595b;stroke-linejoin:round;stroke-width:3"/>
  <path d="m-253.51 164.6h95.017v7.862h-8.2864v7.6172h-54.69v-7.6172h-32.041z" style="fill:#83868c;stroke-linejoin:round;stroke-width:3"/>
  <path d="m-261.25 172.46h-15.744v7.6172h15.744z" style="fill:#ba6561;stroke-linejoin:round;stroke-width:3"/>
  <path d="m-276.99 180.08h-7.734v8.137h7.734z" style="fill:#ba6561;stroke-linejoin:round;stroke-width:3"/>
  <path d="m-284.72 188.22h-8.4245v22.814h8.4245z" style="fill:#ba6561;stroke-linejoin:round;stroke-width:3"/>
  <path d="m-149.93 172.46h7.734v7.6172h-7.734z" style="fill:#ba6561;stroke-linejoin:round;stroke-width:3"/>
  <path d="m-142.2 180.08 7.734-1e-5v8.137h-7.734z" style="fill:#ba6561;stroke-linejoin:round;stroke-width:3"/>
  <path d="m-134.46 188.22h8.2864v8.1483h-8.2864z" style="fill:#ba6561;stroke-linejoin:round;stroke-width:3"/>
  <path d="m-134.46 196.36h-15.468v14.666h15.468z" style="fill:#f9de81;stroke-linejoin:round;stroke-width:3"/>
  <path d="m-134.46 196.36h8.2864v14.666h-8.2864z" style="fill:#c39a54;stroke-linejoin:round;stroke-width:3"/>
  <path d="m-166.78 196.36h8.2864v7.734h-8.2864z" style="fill:#fff;stroke-linejoin:round;stroke-width:3"/>
  <path d="m-166.78 196.36h-7.4578v-8.1483h7.4578z" style="fill:#fff;stroke-linejoin:round;stroke-width:3"/>
  <path d="m-276.99 196.36h15.744v14.666h-15.744z" style="fill:#f9de81;stroke-linejoin:round;stroke-width:3"/>
  <path d="m-284.72 211.03v-22.814h7.734v-8.137h15.744v-7.6172h39.775v7.6172l54.69-1e-5v-7.6172h16.849v7.6172h-8.5626v8.137h-23.754v22.814h-7.1816v-22.814h-32.041v8.1483h-8.2864v7.734h-7.734v6.932h-23.754v-14.666h-15.744v14.666z" style="fill:#ff837d;stroke-linejoin:round;stroke-width:3"/>
  <path d="m-237.49 211.03v-6.932h7.734v-7.734h8.2864v-8.1483h32.041v22.814z" style="fill:#ffd6d4;stroke-linejoin:round;stroke-width:3"/>
  <path d="m-182.25 188.22h8.0102v8.1483h7.4578v7.734h8.2864v-7.734h-8.2864v-8.1483h8.2864v-8.137h16.297v8.137h7.734v8.1483h-15.468v14.666h-32.317z" style="fill:#ffd6d4;stroke-linejoin:round;stroke-width:3"/>
  <path d="m-301.02 196.36h7.8721v7.734h-7.8721z" style="fill:#8e6f60;stroke-linejoin:round;stroke-width:3"/>
  <path d="m-301.02 196.36h-7.734v-8.1483h7.734z" style="fill:#8e6f60;stroke-linejoin:round;stroke-width:3"/>
  <path d="m-308.76 172.46h-7.8721v-7.862h7.8721z" style="fill:#8e6f60;stroke-linejoin:round;stroke-width:3"/>
  <path d="m-332.37 196.36h-8.2864v7.734h8.2864z" style="fill:#8e6f60;stroke-linejoin:round;stroke-width:3"/>
  <path d="m-340.66 196.36h-8.0102v-16.285h8.0102z" style="fill:#8e6f60;stroke-linejoin:round;stroke-width:3"/>
  <path d="m-348.67 180.08h-7.5959v-55.806h7.5959z" style="fill:#8e6f60;stroke-linejoin:round;stroke-width:3"/>
  <path d="m-316.63 132.83h7.8721v8.8388h-7.8721z" style="fill:#8e6f60;stroke-linejoin:round;stroke-width:3"/>
  <path d="m-348.67 117.09h8.0102v7.1816h-8.0102z" style="fill:#c39a54;stroke-linejoin:round;stroke-width:3"/>
  <path d="m-340.66 117.09v-8.2864h16.158v8.2864z" style="fill:#c39a54;stroke-linejoin:round;stroke-width:3"/>
  <path d="m-324.5 117.09h7.8721v7.1816h-7.8721z" style="fill:#c39a54;stroke-linejoin:round;stroke-width:3"/>
  <path d="m-316.63 124.27h7.8721v8.5626h-7.8721z" style="fill:#c39a54;stroke-linejoin:round;stroke-width:3"/>
  <path d="m-316.63 141.67h7.8721v22.926h-7.8721z" style="fill:#c39a54;stroke-linejoin:round;stroke-width:3"/>
  <path d="m-316.63 172.46h7.8721v7.6172h-7.8721z" style="fill:#c39a54;stroke-linejoin:round;stroke-width:3"/>
  <path d="m-308.76 180.08h7.734v8.137h-7.734z" style="fill:#c39a54;stroke-linejoin:round;stroke-width:3"/>
  <path d="m-301.02 204.1h7.8721v6.932h-7.8721z" style="fill:#c39a54;stroke-linejoin:round;stroke-width:3"/>
  <path d="m-332.37 204.1v6.932h7.8721v-6.932h7.8721v-7.734h7.8721v-8.1483h-15.744v8.1483h-7.8721z" style="fill:#c39a54;stroke-linejoin:round;stroke-width:3"/>
  <path d="m-332.37 196.36h-8.2864v-16.285h-8.0102v-55.806h8.0102v8.5626h24.031v8.8388h-24.031v22.926l24.031-1e-5v7.862h-15.744z" style="fill:#c39a54;stroke-linejoin:round;stroke-width:3"/>
  <path d="m-340.66 117.09h16.158v7.1816h7.8721v8.5626h-24.031z" style="fill:#f8c18c;stroke-linejoin:round;stroke-width:3"/>
  <path d="m-340.66 141.67h24.031v22.926l-24.031 1e-5z" style="fill:#f8c18c;stroke-linejoin:round;stroke-width:3"/>
  <path d="m-332.37 172.46h15.744v7.6172h7.8721v8.137h-15.744v8.1483h-7.8721z" style="fill:#f8c18c;stroke-linejoin:round;stroke-width:3"/>
  <path d="m-324.5 204.1h7.8721v-7.734h15.606v14.666h-23.478z" style="fill:#f8c18c;stroke-linejoin:round;stroke-width:3"/>
  <path d="m-356.26 124.27v-24.307h7.5959v-6.9053h8.0102v-8.2864h8.2864v-8.0102h7.8721v-8.0102h7.8721v-15.468h7.8721v-8.2864h7.734v-16.297h7.8721v-7.1816h8.4245v-23.892h7.734v-15.744h7.1816v-15.744h8.5626v-5.11h78.997v5.11h-7.1816v8.2864h-16.02v7.4578h-8.0102v8.1483h-8.0102v16.158h-8.2864v15.33h-7.734v7.1816h-8.2864v-7.1816h-15.468v7.1816h-8.5626v8.2864h-7.1816v39.775h-7.734v8.0102h-8.4245v8.2864h-7.8721v6.9053h-7.734v8.8388h-7.8721v8.2864h-7.8721v-8.2864h-16.158v8.2864h-8.0102v7.1816z" style="fill:#8c72bd;stroke-linejoin:round;stroke-width:3"/>
  <path d="m-221.47-9.9681v7.5959h8.0102v-7.5959z" style="fill:#bd9aff;stroke-linejoin:round;stroke-width:3"/>
  <path d="m-213.46-18.116h8.0102v-7.4578h16.02v-8.2864h7.1816v-5.11h32.317v5.11h-24.307v8.2864h-8.0102v7.4578h-15.192v8.1483h-16.02z" style="fill:#bd9aff;stroke-linejoin:round;stroke-width:3"/>
  <path d="m-332.37 6.1904v7.5959h-8.2864v7.734h8.2864v7.1816h7.8721v-7.1816h7.8721v-7.734h-7.8721v-7.5959z" style="fill:#9abeff;stroke-linejoin:round;stroke-width:3"/>
 </g>
</svg>
