<?xml version="1.0" encoding="UTF-8"?>
<svg version="1.1" viewBox="0 0 192 192" xmlns="http://www.w3.org/2000/svg">
 <circle class="a" cx="96" cy="96" r="88" style="fill:#ff837d"/>
 <path d="m110.39 132.8c-0.14056-0.36971-0.25557-0.81324-0.25557-0.98561 0-0.18324 1.0737-0.60779 2.5852-1.0222 9.8607-2.7037 16.257-6.8619 19.199-12.482 1.6732-3.1957 1.9067-7.5478 0.53967-10.06-1.4477-2.6599-4.4539-4.7847-7.923-5.6-2.3469-0.55158-6.7366-0.1302-9.1678 0.88005-0.3857 0.16028-0.44138 0.0255-0.44138-1.0681v-1.2515l2.4486-1.5946c2.826-1.8404 6.2081-4.9771 7.5558-7.0074 2.2002-3.3148 2.935-7.5006 1.7569-10.009-0.70848-1.5084-1.1717-1.9506-2.796-2.6691-1.5796-0.69873-4.2564-0.59166-5.8686 0.23471-2.2206 1.1382-4.1682 3.5066-5.1796 6.2986-0.50834 1.4033-0.51769 1.8157-0.46239 20.394l0.0564 18.961-0.56486 0.30231c-0.46208 0.2473-6.9642 2.5076-7.2135 2.5076-0.0405 0-0.0736-10.594-0.0736-23.543 0-23.061-0.0101-23.552-0.49426-23.99-0.65668-0.59428-1.6506-0.34204-2.7248 0.6915l-0.82303 0.7919-1.0738-1.0738 0.66302-1.1314c1.2778-2.1804 3.473-3.449 5.9681-3.449 3.0847 0 5.2946 2.102 5.2946 5.0362 0 0.55933 0.0718 1.017 0.15953 1.017 0.0877 0 0.83431-0.7364 1.659-1.6364 1.8457-2.0142 5.179-4.2694 7.5073-5.0791 5.3623-1.8648 10.735-1.1402 13.32 1.7966 1.1722 1.3317 1.5666 2.5314 1.5666 4.7653 0 2.2417-0.67601 4.0793-2.4579 6.6813-2.3445 3.4236-5.7712 6.4127-11.813 10.304-0.39769 0.25616-0.19174 0.27864 1.1554 0.1261 2.9644-0.33564 8.0535-0.18178 9.8364 0.2974 3.6021 0.96812 6.0273 2.5268 7.7296 4.968 1.4684 2.1057 1.958 4.0744 1.7935 7.2111-0.3461 6.5966-4.4754 11.936-12.354 15.975-4.8127 2.467-11.499 4.3964-17.027 4.9135-1.8099 0.16929-1.8273 0.16509-2.0808-0.50149zm-56.767-9.2806c-2.2536-1.5187-3.5159-4.5215-3.5159-8.364 0-6.189 3.7883-11.561 9.8702-13.996 2.8661-1.1476 5.037-1.4283 8.2017-1.0605 1.4448 0.16795 2.7838 0.36557 2.9756 0.43917 0.22881 0.0878 1.2791-1.1087 3.0539-3.4792 1.4878-1.9871 2.7987-3.717 2.9131-3.8442 0.2065-0.22968 2.2474 0.53383 2.2374 0.83702-3e-3 0.083-1.0809 1.6612-2.396 3.5072s-2.3911 3.4373-2.3911 3.5362c0 0.0989 0.83624 0.43934 1.8583 0.75661 3.2911 1.0216 7.2112 3.1838 9.4668 5.2216l1.0019 0.90518 0.41169-0.62832c1.3367-2.04 1.8236-4.8472 1.287-7.4206-0.51219-2.4565-1.4515-4.1263-3.4741-6.1762-1.8382-1.863-3.5937-2.8226-8.4078-4.596-7.8361-2.8866-13.281-7.7877-14.494-13.047-0.36934-1.6009-0.31142-4.4314 0.12497-6.1068 0.97355-3.7377 3.942-7.3618 7.6042-9.2838 3.9658-2.0813 9.7528-2.7074 13.694-1.4814 3.1311 0.97388 6.3671 2.8709 8.7078 5.1047l1.0089 0.96285 2.2698-2.4925c1.2484-1.3709 2.3833-2.4979 2.5221-2.5045 0.33681-0.016 1.3872 0.87236 1.3872 1.1732 0 0.26864-10.019 13.01-10.315 13.118-0.1048 0.0382-0.50976-0.52924-0.89991-1.2611-2.4321-4.562-4.8291-7.2379-7.9552-8.8806-3.8286-2.0119-6.2727-2.1372-8.7842-0.45049-1.3677 0.91854-2.2434 2.1442-2.7322 3.8238-0.33669 1.1571-0.35231 1.6346-0.0997 3.0483 0.84562 4.7318 3.3696 7.0311 10.609 9.665 5.969 2.1716 8.477 3.6024 11.442 6.5278 1.5065 1.4863 2.081 2.2919 3.0312 4.2503 2.4747 5.1005 2.5136 9.0692 0.13678 13.956-1.8667 3.8378-6.8133 8.3781-11.522 10.576l-2.0782 0.96989-1.8007-1.6672c-2.2369-2.0711-4.789-3.784-6.9857-4.6889-3.0374-1.2512-2.7117-1.3718-4.9622 1.8378-3.765 5.3696-8.266 10.791-9.481 11.419-1.0522 0.54412-2.5381 0.45766-3.5213-0.20488zm2.8407-3.741c0.31864-0.15178 2.4814-2.6463 4.8062-5.5433 4.1543-5.177 4.2152-5.2703 3.5458-5.4383-0.98548-0.24734-4.6824 0.30482-6.0289 0.90046-2.814 1.2448-4.3664 3.2614-4.5824 5.9529-0.1436 1.7889 0.38854 3.695 1.1567 4.1433 0.52653 0.30726 0.42319 0.30867 1.1026-0.015z" style="fill:#fff;stroke-width:.25221"/>
</svg>
