<?xml version="1.0" encoding="UTF-8"?><svg id="a" xmlns="http://www.w3.org/2000/svg" viewBox="0 0 192 192"><g id="b"><g id="c"><rect id="d" x="20" y="20" width="152" height="152" rx="10" ry="10" style="fill:#8e6f60;"/><path d="M101.88,118.94c0-11.18-7.06-22.94-26.47-22.94h-7.06c-12.18.16-22.19-9.58-22.35-21.76-.16-12.18,9.58-22.19,21.76-22.35h40c-11.76,2.94-17.65,11.18-17.65,21.18,0,11.18,7.06,22.94,26.47,22.94h7.06c12.18-.16,22.19,9.58,22.35,21.76.16,12.18-9.58,22.19-21.76,22.35h-40c11.76-2.94,17.65-11.18,17.65-21.18M46,119.53c0,11.37,9.22,20.59,20.59,20.59s20.59-9.22,20.59-20.59-9.22-20.59-20.59-20.59-20.59,9.22-20.59,20.59M146,72.47c0-11.37-9.22-20.59-20.59-20.59s-20.59,9.22-20.59,20.59,9.22,20.59,20.59,20.59,20.59-9.22,20.59-20.59" style="fill:#fff;"/></g></g></svg>