<?xml version="1.0" encoding="UTF-8"?>
<svg version="1.1" viewBox="0 0 192 192" xmlns="http://www.w3.org/2000/svg">
 <path d="m114.81 179.18c-3.3164-2.3229-3.5352-3.6456-3.9221-23.715-0.39603-20.541-0.48349-21.037-4.5288-25.65-3.2324-3.6861-6.7784-6.021-9.1442-6.021-3.2489 0-4.9773 2.607-6.6021 9.9582-3.756 16.994-5.4451 18.25-20.713 15.403-13.882-2.5888-28.361-5.8429-30.281-6.8056-2.8304-1.4195-4.0959-3.3362-4.0959-6.2037 0-2.6856 1.2417-4.7514 3.5723-5.9433 2.233-1.1419 6.8289-0.82623 17.619 1.2103 16.071 3.0332 17.403 2.1972 20.283-12.724 0.90373-4.6824 2.746-14.214 4.094-21.182 1.348-6.9676 2.6136-13.951 2.8125-15.519 0.42187-3.3253-0.5048-5.5677-2.8433-6.8802-1.4185-0.79619-1.8819-0.76985-3.9813 0.22637-3.7399 1.7747-4.8691 4.7-5.4129 14.023-0.51501 8.8288-1.3035 10.65-5.2636 12.157-1.8774 0.71456-2.5513 0.69874-4.475-0.10505-4.1755-1.7446-4.5541-3.0214-4.7901-16.156-0.33073-18.403-0.28314-18.465 21.299-27.524 16.167-6.7857 20-8.0579 24.157-8.018 7.0825 0.06808 10.535 2.7812 18.037 14.174 8.7593 13.302 15.178 18.606 27.295 22.559 5.9349 1.9359 8.5511 4.4827 8.5511 8.3243 0 3.4808-1.2874 5.3542-4.2985 6.2548-4.7526 1.4216-15.857-2.556-26.366-9.444-2.756-1.8065-5.6987-3.4571-6.5392-3.6681-4.3778-1.0988-7.3316 3.8652-7.4058 12.446-0.0557 6.4456 0.45566 7.5747 6.3799 14.087 2.3012 2.5295 4.9321 6.1668 5.8464 8.0829l1.6623 3.4838v24.387c0 22.907-0.0735 24.508-1.2132 26.391-2.0098 3.321-6.7456 4.4842-9.7343 2.3908z" style="fill:#bd9aff;stroke-width:.63342"/>
 <circle cx="114.35" cy="29.181" r="17.408" style="fill:#bd9aff;stroke-linecap:square;stroke-linejoin:round;stroke-width:5.0673"/>
</svg>
