<?xml version="1.0" encoding="UTF-8"?>
<svg version="1.1" viewBox="0 0 192 192" xmlns="http://www.w3.org/2000/svg">
 <g transform="matrix(3.3377 0 0 3.3377 -84.201 -84.184)">
  <path d="m50.36 31.06c1.65-2.75 5.63-2.75 7.27 0l1.85 3.09c0.96 1.6 2.86 2.39 4.67 1.93l3.49-0.88c3.11-0.78 5.92 2.04 5.14 5.14l-0.88 3.49c-0.45 1.81 0.33 3.71 1.93 4.67l3.09 1.85c2.75 1.65 2.75 5.63 0 7.27l-3.09 1.85c-1.6 0.96-2.39 2.86-1.93 4.67l0.88 3.49c0.78 3.11-2.04 5.92-5.14 5.14l-3.49-0.88c-1.81-0.45-3.71 0.33-4.67 1.93l-1.85 3.09c-1.65 2.75-5.63 2.75-7.27 0l-1.85-3.06c-0.96-1.6-2.86-2.39-4.67-1.93l-3.49 0.88c-3.11 0.77-5.92-2.04-5.14-5.15l0.88-3.49c0.45-1.81-0.33-3.71-1.93-4.67l-3.1-1.85c-2.75-1.65-2.75-5.63 0-7.27l3.09-1.85c1.6-0.96 2.39-2.86 1.93-4.67l-0.87-3.5c-0.78-3.11 2.03-5.92 5.14-5.14l3.49 0.88c1.81 0.45 3.71-0.33 4.67-1.93z" fill="#6750a4" style="fill:#8c72bd"/>
  <path d="m65.03 42.97c-1.16-1.16-3.8-0.59-6.98 1.25-0.95-3.55-2.41-5.82-4.05-5.82s-3.1 2.27-4.05 5.82c-3.19-1.84-5.82-2.41-6.98-1.25s-0.59 3.79 1.25 6.98c-3.55 0.95-5.82 2.41-5.82 4.05s2.27 3.1 5.82 4.05c-1.84 3.18-2.41 5.82-1.25 6.98s3.8 0.59 6.98-1.25c0.95 3.55 2.41 5.82 4.05 5.82s3.1-2.27 4.05-5.82c3.18 1.84 5.82 2.41 6.98 1.25s0.59-3.79-1.25-6.98c3.55-0.95 5.82-2.41 5.82-4.05s-2.27-3.1-5.82-4.05c1.84-3.18 2.41-5.82 1.25-6.98z" fill="#eaddff" fill-rule="evenodd" stroke-width="0" style="fill:#bd9aff"/>
 </g>
</svg>
