<?xml version="1.0" encoding="UTF-8"?>
<svg version="1.1" viewBox="0 0 192 192" xmlns="http://www.w3.org/2000/svg" xmlns:xlink="http://www.w3.org/1999/xlink">
 <defs>
  <linearGradient id="linearGradient35">
   <stop offset="0"/>
   <stop style="stop-opacity:0" offset="1"/>
  </linearGradient>
  <linearGradient id="linearGradient22" x1="-348.79" x2="-138.66" y1="215.02" y2="52.19" gradientTransform="matrix(.34552 0 0 .34552 186.54 46.934)" gradientUnits="userSpaceOnUse" xlink:href="#linearGradient35"/>
 </defs>
 <circle class="a" cx="96" cy="96" r="88" style="fill:#56595b"/>
 <circle cx="55.712" cy="93.338" r="2.3428" style="fill:#bd9aff"/>
 <circle cx="65.7" cy="85.488" r="1.3975" style="fill:#bd9aff"/>
 <circle cx="108.61" cy="128.15" r="2.1373" style="fill:#bd9aff"/>
 <circle cx="105.65" cy="63.95" r="1.7263" style="fill:#bd9aff"/>
 <circle cx="123.37" cy="111.18" r="1.3564" style="fill:#bd9aff"/>
 <path d="m90.165 87.739 5.6965-4.7664" style="fill:url(#linearGradient22);stroke-linecap:round;stroke-linejoin:round;stroke-width:2.7641;stroke:#bd9aff"/>
 <path d="m102.31 77.857 8.0216-6.6265" style="fill:url(#linearGradient22);stroke-linecap:round;stroke-linejoin:round;stroke-width:2.7641;stroke:#bd9aff"/>
 <path d="m115.8 66.639 4.5339-3.5458" style="fill:url(#linearGradient22);stroke-linecap:round;stroke-linejoin:round;stroke-width:2.7641;stroke:#bd9aff"/>
 <path d="m90.282 103.49 15.229-12.149" style="fill:url(#linearGradient22);stroke-linecap:round;stroke-linejoin:round;stroke-width:2.7641;stroke:#bd9aff"/>
 <path d="m112.25 86.112 2.7901-2.2088" style="fill:url(#linearGradient22);stroke-linecap:round;stroke-linejoin:round;stroke-width:2.7641;stroke:#bd9aff"/>
 <path d="m121.26 79.02 15.985-12.672" style="fill:url(#linearGradient22);stroke-linecap:round;stroke-linejoin:round;stroke-width:2.7641;stroke:#bd9aff"/>
 <path d="m132.08 85.472 3.8945-3.2551" style="fill:url(#linearGradient22);stroke-linecap:round;stroke-linejoin:round;stroke-width:2.7641;stroke:#bd9aff"/>
 <path d="m112.43 102.04 12.904-10.928" style="fill:url(#linearGradient22);stroke-linecap:round;stroke-linejoin:round;stroke-width:2.7641;stroke:#bd9aff"/>
 <path d="m104.23 108.84 2.3832-1.9763" style="fill:url(#linearGradient22);stroke-linecap:round;stroke-linejoin:round;stroke-width:2.7641;stroke:#bd9aff"/>
 <path transform="matrix(.36154 -.077618 .077618 .36154 178.84 9.4745)" d="m-312.26 186.92-1.5124 23.184 18.241 14.389-22.517 5.726-8.0483 21.795-12.404-19.645-23.215-0.91931 14.851-17.868-6.2996-22.363 21.582 8.6027z" style="fill:none;stroke-linecap:round;stroke-linejoin:round;stroke-width:8;stroke:#bd9aff"/>
 <path transform="matrix(.34435 -.028398 .028398 .34435 183.64 35.28)" d="m-294.3 124.19-0.47637 10.102 8.0514 6.1192-9.7544 2.6685-3.3316 9.5482-5.5522-8.4524-10.11-0.21802 6.323-7.8924-2.917-9.683 9.46 3.5746z" style="fill:none;stroke-linecap:round;stroke-linejoin:round;stroke-width:6;stroke:#bd9aff"/>
 <path transform="matrix(.33097 -.030354 .030354 .33097 178.47 38.763)" d="m-254.75 187.76-0.67979 10.421 8.1992 6.4678-10.121 2.5737-3.6176 9.7965-5.5753-8.8303-10.435-0.41322 6.6752-8.0312-2.8316-10.052 9.7008 3.8668z" style="fill:none;stroke-linecap:round;stroke-linejoin:round;stroke-width:6;stroke:#bd9aff"/>
</svg>
