<?xml version="1.0" encoding="UTF-8"?>
<svg version="1.1" viewBox="0 0 192 192" xmlns="http://www.w3.org/2000/svg">
 <defs>
  <clipPath id="clipPath10">
   <rect class="a" x="20" y="20" width="152" height="152" rx="10" style="fill:#fff"/>
  </clipPath>
 </defs>
 <rect class="a" x="20" y="20" width="152" height="152" rx="10" style="fill:#fff"/>
 <path transform="matrix(.3237 0 0 .3237 -19.219 97.119)" d="m249.61 136.47 3.4305 6.951 7.6708 1.1146-5.5507 5.4106 1.3103 7.6398-6.861-3.607-6.861 3.607 1.3103-7.6398-5.5507-5.4106 7.6708-1.1146z" style="fill:#728dbe;stroke-linecap:round;stroke-linejoin:round;stroke-width:15"/>
 <path transform="matrix(.3237 0 0 .3237 -23.087 80.159)" d="m249.61 136.47 3.4305 6.951 7.6708 1.1146-5.5507 5.4106 1.3103 7.6398-6.861-3.607-6.861 3.607 1.3103-7.6398-5.5507-5.4106 7.6708-1.1146z" style="fill:#728dbe;stroke-linecap:round;stroke-linejoin:round;stroke-width:15"/>
 <path transform="matrix(.3237 0 0 .3237 -22.343 63.2)" d="m249.61 136.47 3.4305 6.951 7.6708 1.1146-5.5507 5.4106 1.3103 7.6398-6.861-3.607-6.861 3.607 1.3103-7.6398-5.5507-5.4106 7.6708-1.1146z" style="fill:#728dbe;stroke-linecap:round;stroke-linejoin:round;stroke-width:15"/>
 <path transform="matrix(.3237 0 0 .3237 -18.55 46.24)" d="m249.61 136.47 3.4305 6.951 7.6708 1.1146-5.5507 5.4106 1.3103 7.6398-6.861-3.607-6.861 3.607 1.3103-7.6398-5.5507-5.4106 7.6708-1.1146z" style="fill:#728dbe;stroke-linecap:round;stroke-linejoin:round;stroke-width:15"/>
 <path transform="matrix(.3237 0 0 .3237 -10.814 31.289)" d="m249.61 136.47 3.4305 6.951 7.6708 1.1146-5.5507 5.4106 1.3103 7.6398-6.861-3.607-6.861 3.607 1.3103-7.6398-5.5507-5.4106 7.6708-1.1146z" style="fill:#728dbe;stroke-linecap:round;stroke-linejoin:round;stroke-width:15"/>
 <path transform="matrix(.3237 0 0 .3237 -.84659 17.975)" d="m249.61 136.47 3.4305 6.951 7.6708 1.1146-5.5507 5.4106 1.3103 7.6398-6.861-3.607-6.861 3.607 1.3103-7.6398-5.5507-5.4106 7.6708-1.1146z" style="fill:#728dbe;stroke-linecap:round;stroke-linejoin:round;stroke-width:15"/>
 <path transform="matrix(.3237 0 0 .3237 11.427 7.4124)" d="m249.61 136.47 3.4305 6.951 7.6708 1.1146-5.5507 5.4106 1.3103 7.6398-6.861-3.607-6.861 3.607 1.3103-7.6398-5.5507-5.4106 7.6708-1.1146z" style="fill:#728dbe;stroke-linecap:round;stroke-linejoin:round;stroke-width:15"/>
 <path transform="matrix(.3237 0 0 .3237 26.675 -1.5879)" d="m249.61 136.47 3.4305 6.951 7.6708 1.1146-5.5507 5.4106 1.3103 7.6398-6.861-3.607-6.861 3.607 1.3103-7.6398-5.5507-5.4106 7.6708-1.1146z" style="fill:#728dbe;stroke-linecap:round;stroke-linejoin:round;stroke-width:15"/>
 <path d="m135.4 22.743-16.621 20.828s11.79-0.18051 11.684 4.7157c-0.23976 11.093-19.94 5.2545-20.31 26.632-0.33042 19.109 27.35 24.615 27.35 24.615 13.366-1.4791 17.388 3.0484 19.776 8.6259 7.6035 0.45529 8.4296 3.3311 7.7843 6.7324-24.027 1.8473-34.773 20.924-38.08 49.651l-2.735 13.465 49.651 6.9428 13.465-35.135-3.787-61.854 1.0519-38.501-1.2623-34.924-23.984-13.886z" clip-path="url(#clipPath10)" style="fill:#728dbe;stroke-linecap:round;stroke-linejoin:round;stroke-width:8.926"/>
 <path d="m144.29 106.58 7.6265 0.10519c0.80284 0.53303 1.1559 1.216 1.3675 1.9461-1.1445 0.62229-2.6757 1.1586-4.2604 1.6831 0.40054-0.73451 0.72876-1.478 0.73636-2.2617h-5.5753z" style="fill:#728dbe;stroke-linecap:round;stroke-linejoin:round;stroke-width:8.926"/>
</svg>
