<?xml version="1.0" encoding="UTF-8"?>
<svg version="1.1" viewBox="0 0 192 192" xmlns="http://www.w3.org/2000/svg" xmlns:xlink="http://www.w3.org/1999/xlink">
 <defs>
  <linearGradient id="linearGradient9">
   <stop style="stop-color:#f8c18c" offset="0"/>
   <stop style="stop-color:#ff837d" offset="1"/>
  </linearGradient>
  <linearGradient id="linearGradient4" x1="-135" x2="-219.25" y1="82.5" y2="83.439" gradientTransform="matrix(.59696 0 0 .59696 188.38 36.435)" gradientUnits="userSpaceOnUse">
   <stop style="stop-color:#ff837d" offset="0"/>
   <stop style="stop-color:#f8c18c" offset="1"/>
  </linearGradient>
  <linearGradient id="linearGradient6" x1="-154.61" x2="-154.4" y1="180.31" y2="103.42" gradientTransform="matrix(.59696 0 0 .59696 188.38 36.435)" gradientUnits="userSpaceOnUse">
   <stop style="stop-color:#f8c18c" offset="0"/>
   <stop style="stop-color:#ff837d" offset="1"/>
  </linearGradient>
  <linearGradient id="linearGradient8" x1="-220.25" x2="-185" y1="54" y2="19.25" gradientTransform="matrix(.59696 0 0 .59696 188.38 36.435)" gradientUnits="userSpaceOnUse" xlink:href="#linearGradient9"/>
  <linearGradient id="linearGradient11" x1="-220.25" x2="-185" y1="54" y2="19.25" gradientTransform="matrix(.59696 0 0 .59696 217.03 36.435)" gradientUnits="userSpaceOnUse" xlink:href="#linearGradient9"/>
  <linearGradient id="linearGradient12" x1="-220.25" x2="-185" y1="54" y2="19.25" gradientTransform="matrix(.59696 0 0 .59696 245.69 36.435)" gradientUnits="userSpaceOnUse" xlink:href="#linearGradient9"/>
 </defs>
 <rect class="a" x="20" y="20" width="152" height="152" rx="10" style="fill:#56595b"/>
 <path d="m95.576 88.671c-5.7048 0-10.298 4.5927-10.298 10.298v34.808c0 5.7048 4.5927 10.298 10.298 10.298h0.51068c5.7048 0 10.298-4.5927 10.298-10.298v-29.804c0.0933-4.2821 1.6562-6.9968 3.8522-9.036l-4.8328-0.34628c-1.641-3.5004-5.1819-5.9194-9.317-5.9194z" style="fill:url(#linearGradient6)"/>
 <path d="m67.794 74.342c-5.7048 0-10.298 4.5927-10.298 10.298 0 5.7048 4.5927 10.298 10.298 10.298h5.5219c9.9395-0.14734 12.523 6.7591 12.238 16.416 4.7126-10.998 12.536-16.534 23.58-16.416h14.625c5.7048 0 10.298-4.5927 10.298-10.298 0-5.7048-4.5927-10.298-10.298-10.298z" style="fill:url(#linearGradient4)"/>
 <circle cx="67.346" cy="58.522" r="10.596" style="fill:url(#linearGradient8)"/>
 <circle cx="96" cy="58.522" r="10.596" style="fill:url(#linearGradient11)"/>
 <circle cx="124.65" cy="58.522" r="10.596" style="fill:url(#linearGradient12)"/>
</svg>
