<?xml version="1.0" encoding="UTF-8"?>
<svg id="a" version="1.1" viewBox="0 0 192 192" xmlns="http://www.w3.org/2000/svg"><rect x="23.648" y="35.268" width="144.69" height="133.8" rx="59" ry="59" style="fill:#f9de81;stroke-width:7.25;stroke:#56595b"/><path d="m163.35 141.77c3.964-3.1413 7.3671-6.3948 10.172-9.723 5.1981-6.1704 8.302-12.64 9.2369-19.184 0-.18698-.0748-.37396-.22438-.44876-.14959-.0748-.41144-.075-.52363.0746v6e-5c-3.9266 3.5152-7.7784 6.4322-11.182 8.9751" style="fill:#56595b"/><circle cx="53.304" cy="39.27" r="19.97" style="fill:#56595b"/><circle cx="135.13" cy="39.27" r="19.97" style="fill:#56595b"/><circle cx="71.666" cy="81.191" r="7.9654" style="fill:#56595b"/><circle cx="118.97" cy="81.191" r="7.9654" style="fill:#56595b"/><circle cx="94.603" cy="87.286" r="5.25" style="fill:#56595b"/><path d="m97.454 96.53c-1.7694-.4741-2.9093-2.5399-2.9514-4.294" style="fill:none;stroke-linecap:round;stroke-linejoin:round;stroke-width:2.5;stroke:#56595b"/></svg>
