<?xml version="1.0" encoding="UTF-8"?>
<svg version="1.1" viewBox="0 0 192 192" xmlns="http://www.w3.org/2000/svg">
 <rect class="a" x="20" y="20" width="152" height="152" rx="10" style="fill:#f9de81"/>
 <path d="m90.994 132.63c-5.0007-2.2712-8.1364-7.7222-7.5057-13.048 0.2486-2.099 1.3587-4.5102 4.8996-10.643l4.5782-7.9289-9.9731-17.265-10.12-0.26683c-9.219-0.24308-10.287-0.37077-11.997-1.4343-8.7822-5.4625-8.3592-18.126 0.74714-22.366 5.0632-2.3576 10.894-1.3848 14.463 2.4129 0.87605 0.93214 3.434 4.8648 5.6844 8.7393l4.0916 7.0445 20.283 0.28952 3.9159-6.8155c6.277-10.925 9.2499-13.333 15.871-12.854 4.1785 0.30225 7.7138 2.4446 9.9184 6.0104 1.4039 2.2707 1.6151 3.1118 1.6151 6.4317 0 3.3212-0.2113 4.1619-1.6202 6.4458-1.0917 1.7697-2.5636 3.1922-4.5125 4.3609 0 0-2.133 1.7344-2.8924 1.7344h-9.4894-9.4894l-1.2476 2.0012c-0.6862 1.1007-2.9962 5.0502-5.1333 8.7766l-3.8857 6.7754 4.2961 7.4112c5.0442 8.7018 5.8553 11.221 4.9358 15.33-0.76952 3.4386-3.9993 7.4-7.2298 8.8674-2.8089 1.2759-7.3818 1.2714-10.203-0.0101zm8.6861-5.3679c2.3956-1.4607 3.5423-3.454 3.5423-6.1579 0-1.8698-0.65385-3.4514-3.4021-8.2297-1.8712-3.2533-3.5703-5.9151-3.7758-5.9151-0.69128 0-6.9271 11.646-7.1949 13.437-0.55168 3.6901 3.2936 7.9116 7.2028 7.9076 1.0573-1e-3 2.6897-0.46992 3.6277-1.0418zm-0.03698-37.786 3.2694-5.7306-3.4028-0.1578c-1.8715-0.0868-4.955-0.0868-6.8521 0l-3.4493 0.1578 3.3158 5.7316c1.8237 3.1524 3.4359 5.7312 3.5827 5.7306s1.7381-2.5797 3.5362-5.7316zm-20.08-11.53c0-0.1078-1.5169-2.8095-3.3709-6.0037-2.1719-3.7419-4.0033-6.2348-5.1487-7.0084-6.0582-4.0918-13.76 2.9106-10.292 9.3576 1.8055 3.3566 3.2564 3.8431 11.474 3.847 4.0358 2e-3 7.3378-0.0847 7.3378-0.19249zm49.872-1.4545c5.0169-4.4049 2.7158-12.006-3.8189-12.615-3.8101-0.35491-5.5966 1.1135-9.5886 7.8818-1.8112 3.0708-3.3122 5.7634-3.3354 5.9835-0.0232 0.22013 3.3115 0.40024 7.4104 0.40024h7.4527z" style="fill:#56595b;stroke-width:.53366"/>
</svg>
