<?xml version="1.0" encoding="UTF-8"?>
<svg id="a" version="1.1" viewBox="0 0 192 192" xmlns="http://www.w3.org/2000/svg">
 <rect x="20" y="20" width="152" height="152" rx="10" fill="#9abeff"/>
 <path d="m67.521 56.001c-2.3486 0.01003-4.3986 0.15371-5.9224 0.29543-7.4657 0.69434-4.227 21.069-3.462 22.279-2.0952 6.4902 1.1697 15.326 5.2889 17.502 2.7546 1.4551 9.3268 2.451 18.689-4.474 1.6201 17.554 9.4767 42.796 9.4767 42.796 2.8 2.0639 5.7027 2.203 8.8166 0 0 0 7.8566-25.242 9.4767-42.796 9.3623 6.925 15.935 5.9291 18.689 4.474 4.1192-2.1759 7.3841-11.012 5.289-17.502 0.76492-1.2102 4.0037-21.585-3.462-22.279-5.7965-0.53909-19.227-1.108-27.592 5.7978-2.0874-1.143-4.4288-1.7422-6.8087-1.7426-2.3717 0.01242-4.7023 0.61949-6.7787 1.7656-6.1673-5.1113-15.104-6.1446-21.7-6.1163z" fill="#54688c"/>
 <circle cx="86.43" cy="77.235" r="2.5" fill="#9abeff"/>
 <circle cx="105.57" cy="77.235" r="2.5" fill="#9abeff"/>
</svg>
