<?xml version="1.0" encoding="UTF-8"?><svg id="a" xmlns="http://www.w3.org/2000/svg" width="192" height="192" xmlns:xlink="http://www.w3.org/1999/xlink" viewBox="0 0 192 192"><defs><style>.j{fill:#ececec;}.j,.k,.l{stroke-width:0px;}.k{fill:url(#h);}.l{fill:url(#f);}</style><linearGradient id="f" x1="101.77" y1="60.47" x2="152.24" y2="124.11" gradientTransform="translate(-18.61 180.54) scale(.98 -.98)" gradientUnits="userSpaceOnUse"><stop offset=".1" stop-color="#73ada4"/><stop offset=".7" stop-color="#54688c"/></linearGradient><linearGradient id="h" x1="76.31" y1="120.47" x2="109.79" y2="88.71" gradientTransform="translate(-18.61 180.54) scale(.98 -.98)" gradientUnits="userSpaceOnUse"><stop offset="0" stop-color="#f9de81"/><stop offset=".6" stop-color="#71a372"/></linearGradient></defs><g id="b"><g id="c"><circle id="d" class="j" cx="96" cy="96" r="88"/><g id="e"><path id="g" class="l" d="m133.33,62.01c-.9-.03-1.89.27-2.77.83l-55.03,35.32,5.34,9.44,51.27-42.69-45.63,52.66,6.86,12.13c.66,1.16,2.42,1.31,3.93.32.55-.36,1.02-.84,1.34-1.38l36.76-62.03c1.15-1.93.59-3.93-1.24-4.46-.26-.07-.54-.12-.83-.13Z"/><path id="i" class="k" d="m58.01,61.35c-.97-.13-1.87.56-1.99,1.53-.05.38.03.77.22,1.11l17.06,30.19,7.4-4.18-22.48-26.48,28.04,23.34,6.2-3.5-33.7-21.74c-.22-.14-.47-.24-.73-.27Z"/></g></g></g></svg>