<?xml version="1.0" encoding="UTF-8"?>
<svg version="1.1" viewBox="0 0 192 192" xmlns="http://www.w3.org/2000/svg">
 <circle class="a" cx="96" cy="96" r="88" style="fill:#ff837d"/>
 <style>.st1{fill:#fff}.st2{fill:#4a4a4a}</style>
 <g transform="translate(3.1717 -859.05)">
  <path d="m94.848 993.47c-0.434-0.812-0.605-5.723-0.487-13.978 0.1-7 0.09-12.726-0.021-12.726-0.391 0-7.927 5.913-13.153 10.318-2.905 2.448-7.603 6.876-10.44 9.84-5.487 5.73-6.877 6.314-8.65 3.629-0.855-1.294-0.717-1.575 2.413-4.902 4.129-4.389 12.594-11.555 21.959-18.589 7.184-5.396 10.081-8.424 7.04-7.36-0.798 0.28-2.559 0.516-3.912 0.525-3.468 0.024-4.24-1.594-3.77-7.9 0.434-5.835 1.062-7.627 3.595-10.253 3.41-3.536 6.575-2.002 3.673 1.78-1.542 2.01-1.995 3.397-2.304 7.06-0.322 3.831 0.289 5.072 2.037 4.136 1.443-0.772 1.892-2.632 2.404-9.962 0.391-5.598 1.276-7.518 3.464-7.518 0.641 0 1.312 0.382 1.492 0.85 0.179 0.467 0.1 4.94-0.176 9.939-0.277 5-0.342 9.09-0.145 9.09 0.196 0 2.293-1.218 4.66-2.705 2.367-1.488 7.445-4.468 11.285-6.623 5.556-3.117 6.841-4.087 6.292-4.748-0.466-0.562-0.551-2.644-0.263-6.423 0.471-6.186-0.03-6.945-2.708-4.096-1.14 1.214-1.47 2.45-1.752 6.555-0.251 3.664-0.676 5.477-1.543 6.58-1.243 1.58-3.216 2.008-3.93 0.853-0.227-0.366-0.21-3.767 0.038-7.557 0.396-6.058 0.625-7.066 1.9-8.34a4.925 4.925 0 0 1 3.503-1.45c1.336 0 2.308-0.408 2.782-1.168 0.401-0.642 1.597-1.47 2.658-1.84 1.642-0.572 2.112-0.49 3.148 0.546 1.047 1.047 1.219 2.088 1.219 7.394 0 3.397 0.269 6.342 0.598 6.545 0.328 0.203 1.936-0.302 3.571-1.122 1.636-0.82 3.506-1.408 4.155-1.306 1.153 0.182 2.208 1.294 2.227 2.349 0.022 1.24-3.846 3.908-7.216 4.976-2.005 0.636-6.302 2.57-9.547 4.299-3.246 1.729-6.6 3.51-7.455 3.958-0.854 0.448-4.348 2.57-7.765 4.716l-6.212 3.9-0.087 11.175c-0.048 6.146 0.212 12.903 0.577 15.015 0.522 3.019 0.491 4.049-0.144 4.815-1.173 1.412-4.195 1.245-5.01-0.277zm-41.246-7.972c-0.44-0.713-2.562-12.787-4.094-23.298-1.61-11.05-1.951-11.65-3.676-6.466-0.742 2.23-1.856 4.514-2.476 5.074-1.183 1.07-2.864 0.816-3.373-0.512-0.243-0.633 4.07-14.213 6.133-19.31 0.913-2.254 2.676-2.798 4.183-1.29 0.486 0.485 1.215 3.07 1.62 5.746 0.404 2.674 1.183 6.96 1.73 9.522 1.06 4.964 1.205 5.906 1.434 9.318l0.146 2.174 0.49-2.485c0.27-1.366 0.958-5.14 1.53-8.386 1.369-7.77 4.931-21.684 6.931-27.072 0.878-2.365 2.56-6.949 3.736-10.188 2.69-7.401 3.908-9.486 5.956-10.207 1.218-0.428 2.03-0.308 3.229 0.477 2.387 1.565 2.116 3.99-0.85 7.578-2.687 3.252-6.56 12.064-8.724 19.844-0.76 2.733-1.904 6.367-2.543 8.076-1.213 3.247-2.25 7.515-2.723 11.21-0.154 1.199-0.41 2.392-0.572 2.652-0.16 0.26-0.446 2.14-0.635 4.177-0.188 2.036-0.493 4.402-0.677 5.256s-0.762 4.768-1.285 8.697c-1.156 8.696-1.61 9.939-3.635 9.939-0.842 0-1.676-0.237-1.855-0.526zm11.838-16.095c-0.588-0.95 0.63-14.802 1.435-16.303 1.579-2.95 4.047-3.428 4.535-0.878 0.441 2.31-1.223 15.75-2.079 16.782-0.763 0.92-3.402 1.19-3.891 0.4zm9.185-5.185c-0.707-1.143 0.373-14.418 1.29-15.847 0.722-1.128 5.81-3.347 7.676-3.347 0.34 0 0.805 0.589 1.033 1.308 0.314 0.99-0.145 1.881-1.889 3.667-2.188 2.24-2.325 2.624-2.713 7.616-0.227 2.93-0.782 5.707-1.251 6.273-0.958 1.154-3.511 1.358-4.146 0.33zm28.978-13.228c-0.381-0.46-0.566-1.78-0.41-2.935 0.155-1.154 0.466-4.306 0.692-7.003 0.338-4.053 0.672-5.167 1.927-6.421 1.264-1.265 1.677-1.386 2.47-0.727 0.644 0.534 0.844 1.409 0.615 2.694-0.187 1.047-0.387 4.14-0.446 6.873-0.128 5.993-0.237 6.328-2.43 7.461-1.44 0.746-1.839 0.756-2.418 0.058zm-34.578-6.234c-1.064-0.779-1.068-0.91-0.073-2.43 1.493-2.278 3.214-3.1 4.145-1.977 0.979 1.179 0.31 3.096-1.49 4.276-1.222 0.8-1.637 0.821-2.582 0.13zm37.01-16.8c0-1.75 2.55-3.778 4.033-3.209 2.265 0.87 0.073 4.747-2.684 4.747-1.022 0-1.35-0.373-1.35-1.538z" style="fill:#fff"/>
 </g>
 <style type="text/css">.st0{fill:#fff}</style>
 <rect x="110.77" y="102.04" width="54.5" height="28.212" rx="12.824" style="fill:#bd9aff"/>
 <text x="137.89499" y="121.1882" style="fill:#ffffff;font-family:Now;font-size:13.441px;font-weight:500;stroke-linecap:round;stroke-linejoin:round;stroke-width:3.6002;text-align:center;text-anchor:middle" xml:space="preserve"><tspan x="137.89499" y="121.1882" style="stroke-width:3.6002">PULSE</tspan></text>
</svg>
