<?xml version="1.0" encoding="UTF-8"?>
<svg version="1.1" viewBox="0 0 192 192" xmlns="http://www.w3.org/2000/svg">
 <circle class="a" cx="96" cy="96" r="88" style="fill:#fff"/>
 <path d="m118.02 67.088a36.727 36.727 0 0 1 12.764 41.195 36.727 36.727 0 0 1-35.194 24.926 36.727 36.727 0 0 1-34.623-25.714 36.727 36.727 0 0 1 13.69-40.897" style="fill:none;stroke-linejoin:round;stroke-width:10.089;stroke:#9abeff"/>
 <path d="m88.052 56.385v24.125h2.2804v20.524h12.962v-20.524h1.9804v-24.125h-2.1004v6.3162h-0.84016v-8.9567h-2.0554v8.9567h-1.1252v-8.9567h-1.8754v8.9567h-1.1852v-8.9567h-1.6653v8.9567h-1.2902v-8.9567h-1.7703v8.9567h-1.2302v-6.3162z" style="fill:#9abeff"/>
</svg>
