<?xml version="1.0" encoding="UTF-8"?>
<svg version="1.1" viewBox="0 0 192 192" xmlns="http://www.w3.org/2000/svg">
 <circle class="a" cx="96" cy="96" r="88" style="fill:#73ada4"/>
 <g transform="matrix(2.0033 0 0 2.0033 47.902 48.031)" fill="#0b81a0" style="fill:#fff">
  <path d="m0.035 26.973c0.883 0.252 5.047-0.252 8.076-2.524 0.126 1.262 0.505 2.524 0.505 2.524-1.009 0.631-3.028 1.514-4.038 2.019 0.505 1.64 2.145 5.804 2.776 6.814 0.631 1.009 1.136 1.767 2.524 2.524-1.514-0.126-3.533-0.757-3.533-0.757-0.757-1.514-3.253-7.011-3.785-8.076-0.38-0.757-1.389-1.893-2.525-2.524z" style="fill:#fff"/>
  <path d="m6.597 30.002c0.757 0.126 2.019-0.252 2.65-0.757 0.252 0.631 0.631 1.262 0.631 1.262l-0.757 0.757c0.505 1.009 1.893 4.29 3.028 5.047-1.009-0.126-2.145-0.505-2.145-0.505-0.631-1.388-2.019-5.173-3.407-5.804z" style="fill:#fff"/>
  <path d="m47.984 26.973c-0.883 0.252-5.047-0.252-8.076-2.524-0.126 1.262-0.505 2.524-0.505 2.524 1.009 0.631 3.028 1.514 4.038 2.019-0.505 1.64-2.145 5.804-2.776 6.814-0.631 1.009-1.136 1.767-2.524 2.524 1.514-0.126 3.533-0.757 3.533-0.757 0.757-1.514 3.253-7.011 3.785-8.076 0.38-0.757 1.389-1.893 2.525-2.524z" style="fill:#fff"/>
  <path d="m41.423 30.002c-0.757 0.126-2.019-0.252-2.65-0.757-0.252 0.631-0.631 1.262-0.631 1.262l0.757 0.757c-0.505 1.009-1.893 4.29-3.028 5.047 1.009-0.126 2.145-0.505 2.145-0.505 0.631-1.388 2.019-5.173 3.407-5.804z" style="fill:#fff"/>
  <path d="m38.142 21.169c-7.066-2.524-12.618-6.561-14.132-11.609-1.514 5.047-7.066 9.085-14.132 11.609-0.505 3.912 0.252 8.959 5.047 13.123-4.29-6.309-2.943-9.566 1.136-11.987 4.038-2.397 7.949-4.669 7.949-4.669s3.912 2.271 7.949 4.669c4.078 2.422 5.426 5.678 1.136 11.987 4.794-4.164 5.552-9.211 5.047-13.123z" style="fill:#fff"/>
  <path d="m32.842 26.973c-3.281-1.262-7.823-3.659-8.833-7.066-1.009 3.407-5.552 5.804-8.833 7.066-0.379 1.767-0.252 5.3 2.776 8.58-3.785-5.3-0.735-6.776 1.009-7.823 2.524-1.514 5.047-2.776 5.047-2.776s2.524 1.262 5.047 2.776c1.745 1.047 4.795 2.524 1.009 7.823 3.031-3.28 3.157-6.813 2.778-8.58z" style="fill:#fff"/>
  <path d="m29.715 31.538c-1.668-0.905-4.949-2.42-5.706-4.565-0.757 2.145-4.038 3.659-5.706 4.565-0.245 1.141-0.225 3.385 1.92 5.53-2.65-3.155-0.23-4.626 0.525-5.041 1.62-0.89 3.261-1.793 3.261-1.793s1.64 0.903 3.261 1.793c0.755 0.415 3.175 1.886 0.525 5.041 2.145-2.145 2.165-4.389 1.92-5.53z" style="fill:#fff"/>
 </g>
</svg>
