<?xml version="1.0" encoding="UTF-8"?>
<svg version="1.1" viewBox="0 0 192 192" xmlns="http://www.w3.org/2000/svg">
 <circle class="a" cx="96" cy="96" r="88" style="fill:#fff"/>
 <path d="m62.386 82.886v20.45h49.011c3.0879 0 4.9696 1.8589 4.9696 4.9696v11.71h20.735v-12.11c0-13.676-8.585-25.019-25.019-25.019z" style="fill:#ff837d"/>
 <rect x="73.411" y="62.436" width="39.757" height="6.8546" ry="3.4273" style="fill:#ff837d"/>
 <rect x="89.576" y="59.237" width="6.7975" height="25.476" ry="3.3988" style="fill:#ff837d"/>
 <circle cx="73.411" cy="65.864" r="7.1688" style="fill:#ff837d"/>
 <circle cx="113.17" cy="65.864" r="7.1688" style="fill:#ff837d"/>
 <circle cx="93.004" cy="92.425" r="14.338" style="fill:#ff837d"/>
 <path d="m133 141.27c0 3.3796-2.7397 6.1193-6.1193 6.1193-3.3796 0-6.1193-2.7397-6.1193-6.1193 0-3.3796 6.1193-13.925 6.1193-13.925s6.1193 10.545 6.1193 13.925z" style="fill:#ff837d;stroke-linecap:round;stroke-linejoin:round;stroke-width:5.4326"/>
</svg>
