<?xml version="1.0" encoding="UTF-8"?>
<svg version="1.1" viewBox="0 0 192 192" xmlns="http://www.w3.org/2000/svg">
 <circle class="a" cx="96" cy="96" r="88" style="fill:#54688c"/>
 <style type="text/css">.st0{fill:url(#SVGID_1_);}
	.st1{fill:url(#SVGID_2_);}
	.st2{fill:url(#SVGID_3_);}
	.st3{fill:url(#SVGID_4_);}
	.st4{fill:#F7B91B;}
	.st5{fill:url(#SVGID_5_);}</style>
 <g transform="matrix(.13328 0 0 .13328 29.359 32.453)">
  <linearGradient id="SVGID_1_" x1="501.66" x2="430.26" y1="706.52" y2="530.36" gradientUnits="userSpaceOnUse">
   <stop style="stop-color:#E39717" offset=".124"/>
   <stop style="stop-color:#FAA51A" offset=".3703"/>
   <stop style="stop-color:#FAA51A" offset=".6262"/>
   <stop style="stop-color:#E39717" offset=".7933"/>
  </linearGradient>
  <path class="st0" d="m509.79 552.77c-22.07 4.46-53.14-1.4-75.24 4.79-40.03 11.21-72.18 37.27-120.78 60.84 63.78 12.08 108.79 28.02 151.98 46.73 8.48 3.67 16.9 7.53 25.33 11.52 6.3-6.17 20.93-8.01 28.32-12.51 29.73-18.1 51.93-35.96 95.52-53.61-38.53-24.87-72.33-42.91-105.13-57.76z" style="fill:#f8c18c"/>
  <linearGradient id="SVGID_2_" x1="437.79" x2="479.7" y1="292.34" y2="470.83" gradientUnits="userSpaceOnUse">
   <stop style="stop-color:#E39717" offset=".1808"/>
   <stop style="stop-color:#FAA51A" offset=".3703"/>
   <stop style="stop-color:#FAA51A" offset=".6457"/>
   <stop style="stop-color:#E39717" offset=".8512"/>
  </linearGradient>
  <path class="st1" d="m477.23 309.54c-22.91 4.66-45.28 2.43-68.55 9-55.41 15.64-114.02 44.63-180.35 78.61 92.43 2.5 160.23 16.6 223.95 36.08 12.74-3.06 35.03 2.52 47.71 0 61.12-12.13 114.06-27.96 199.34-23.87-58.46-35.55-110.45-59.63-160.44-78.67-20.7-7.89-41.09-14.87-61.66-21.15z" style="fill:#f8c18c"/>
  <linearGradient id="SVGID_3_" x1="305.69" x2="686.47" y1="550.35" y2="456.19" gradientUnits="userSpaceOnUse">
   <stop style="stop-color:#FAA51A" offset="0"/>
   <stop style="stop-color:#F7B91B" offset=".0957"/>
   <stop style="stop-color:#F7B91B" offset=".8525"/>
   <stop style="stop-color:#FAA51A" offset="1"/>
  </linearGradient>
  <path class="st2" d="m679.32 538.66c-0.03 0.19-0.17 0.32-0.32 0.32-77.18-2.14-133.61 5.77-188.62 17.89-55.08 12.13-109.07 28.78-176.6 61.54l-20.06-129.63c75.49-34.67 135.54-51.8 196.67-63.93 61.12-12.13 123.69-19.57 208.96-15.48z" style="fill:#f9de81"/>
  <linearGradient id="SVGID_4_" x1="218.68" x2="769.15" y1="343.95" y2="197.02" gradientUnits="userSpaceOnUse">
   <stop style="stop-color:#FAA51A" offset=".0281"/>
   <stop style="stop-color:#F7B91B" offset=".0957"/>
  </linearGradient>
  <path class="st3" d="m796.36 168.73c-83.02-10.76-151.51-10.37-214.51-5.3s-120.6 15.07-181.16 31.17-124.23 38.25-197.05 74.18l24.7 128.38c66.33-33.98 124.49-55.22 179.9-70.86s108.21-25.64 166.06-31.17 120.84-6.83 197.36 1.98z" style="fill:#f9de81"/>
  <linearGradient id="SVGID_5_" x1="448.96" x2="614.93" y1="725.27" y2="725.27" gradientUnits="userSpaceOnUse">
   <stop style="stop-color:#FEC23B" offset=".1118"/>
   <stop style="stop-color:#F7B91B" offset=".6909"/>
   <stop style="stop-color:#FAA51A" offset=".8881"/>
  </linearGradient>
  <path class="st5" d="m600.74 741.36 14.18-130.82c-74.89 30.32-103.66 46.16-165.96 93.18v136.28c54.25-46.46 84.89-66.95 151.77-98.63 0.01 0 0.01-0.01 0.01-0.01z" style="fill:#f9de81"/>
 </g>
</svg>
