<?xml version="1.0" encoding="UTF-8"?>
<svg version="1.1" viewBox="0 0 192 192" xmlns="http://www.w3.org/2000/svg">
 <circle class="a" cx="96" cy="96" r="88" style="fill:#9abeff"/>
 <path d="m81.363 57.357c-0.10649 0.0021-0.21543 0.01604-0.32446 0.04115-1.9873 0.45764-5.4448 1.2886-7.9834 2.0924-0.85312 0.27012-2.2095 0.78724-3.0357 1.1317-3.1673 1.3204-6.304 2.9288-9.4094 4.3969-0.80905 0.38246-2.1292 0.98507-2.9407 1.3627-1.7154 0.79833-3.7672 1.7712-5.1186 2.4137-0.80833 0.38431-1.1402 1.346-0.74231 2.1478l7.3566 14.826c0.41847 0.84335 1.3759 1.2712 2.2839 1.0225l7.6731-2.1019c0.32229-0.08831 0.64101 0.15332 0.64101 0.48748v48.057c0 0.89511 0.72562 1.6207 1.6207 1.6207h49.233c0.8951 0 1.6207-0.72562 1.6207-1.6207v-48.057c0-0.33417 0.31872-0.57579 0.64101-0.48748l7.6731 2.1019c0.908 0.24879 1.8654-0.1791 2.2839-1.0225l7.3566-14.826c0.39786-0.80182 0.066-1.7635-0.74231-2.1478-1.3514-0.6425-3.4032-1.6154-5.1186-2.4137-0.81152-0.37767-2.1317-0.98028-2.9407-1.3627-3.1054-1.468-6.2421-3.0764-9.4094-4.3969-0.82615-0.34442-2.1826-0.86154-3.0357-1.1317-2.5385-0.80377-5.9961-1.6347-7.9834-2.0924-0.87228-0.20087-1.6969 0.36246-1.9341 1.225-0.86791 3.1561-3.6336 10.008-11.41 10.851-0.44474 0.04821-1.0311 0.07281-1.6176 0.07281s-1.1728-0.02459-1.6176-0.07281c-7.7764-0.843-10.542-7.6952-11.41-10.851-0.20756-0.75476-0.86422-1.2811-1.6096-1.2662z" style="fill:#ff837d"/>
 <path d="m102.46 78.297-3.7796 6.1252-8.1812-3.5406 1.195 7.5592-8.5642 2.344 1.5669 1.081c1.7174-0.45081 3.2437-0.61099 4.5963-0.55238 4.4502 0.19283 6.7576 2.7104 7.7491 4.2465 0.96643-0.37333 2.4449-0.59797 4.2908 0.18202 1.9661 0.83078 2.6694 2.2945 2.8964 3.4425 1.703-0.32287 4.7402-0.63481 7.2046 0.5967l6.8628-4.5472-7.1777-3.3966 2.4881-7.8457-7.4642 2.0085z" style="fill:#f9de81"/>
 <path d="m79.063 102.79s-4.9459 0.0207-4.3538 3.3013c0.76254 4.2254 4.4974 3.1099 4.4974 3.1099s-0.1271 1.7908 2.7644 3.0953c2.4723 1.1153 9.0072 1.7335 11.541 1.6892 2.5224-0.0441 9.6033-0.73784 12.561-2.0425 2.9577-1.3047 2.0793-3.029 2.0793-3.029s2.1167-0.29922 3.7695-1.4168c1.9662-1.3295 1.8944-4.0925 0.4408-5.6163-3.0309-3.1772-9.234-1.2439-9.234-1.2439s0.49487-2.6683-2.2487-3.8276c-2.675-1.1303-4.306 0.33491-4.306 0.33491s-2.5387-6.7039-11.913-4.0668c-7.8221 2.2004-5.5978 9.7124-5.5978 9.7124z" style="fill:#fff"/>
</svg>
