<svg id="Camada_1" data-name="Camada 1" xmlns="http://www.w3.org/2000/svg" viewBox="0 0 192 192"><defs><style>.cls-1,.cls-4{fill:#f9de81;}.cls-1{isolation:isolate;}.cls-2{fill:#fdf5d9;}.cls-3{fill:#fff;}</style></defs><path id="rect2" class="cls-1" d="M29.9,20H162a9.86,9.86,0,0,1,9.9,9.9V162a9.86,9.86,0,0,1-9.9,9.9H29.9A9.86,9.86,0,0,1,20,162V29.9A9.86,9.86,0,0,1,29.9,20Z"/><polygon class="cls-2" points="102.91 43.44 92.62 96.79 98.91 97.56 102.91 43.44"/><polyline class="cls-2" points="98.72 97.45 109.83 50.57 92.77 97.03"/><polyline class="cls-2" points="98.97 98.34 113.65 60.95 92.4 96.36"/><polyline class="cls-2" points="98.78 98.66 122.02 60.42 92.92 95.98"/><polyline class="cls-2" points="98.46 98.9 133.44 58.78 93.03 95.54"/><polyline class="cls-2" points="98.38 99.64 139.07 65.49 93.09 94.83"/><polyline class="cls-2" points="97.97 100.98 129.82 80.34 93.11 93.69"/><polyline class="cls-2" points="97.44 101.28 136.12 84.78 93.7 93.32"/><polyline class="cls-2" points="96.88 100.36 148.6 89.59 94.51 94.17"/><polyline class="cls-2" points="96.18 101.1 142.46 98.39 95 93.42"/><polyline class="cls-2" points="95.45 101.06 137.64 105.32 95.59 93.43"/><polyline class="cls-2" points="94.94 99.85 126.18 108.49 95.83 94.5"/><polyline class="cls-2" points="94.86 94.44 63.16 103.89 96.9 99.57"/><polyline class="cls-2" points="94.99 93.53 52.32 98.93 96.55 100.57"/><polyline class="cls-2" points="95.28 93.75 42.57 90.86 96.03 100.37"/><polyline class="cls-2" points="95.91 93.42 44.29 82.22 95.43 100.69"/><polyline class="cls-2" points="97.05 92.88 56.04 77.79 94.55 101.34"/><polyline class="cls-2" points="97.27 93.94 61.56 72.79 94.74 99.82"/><polyline class="cls-2" points="97.59 94.59 68.54 70.5 94.14 99.83"/><polyline class="cls-2" points="97.92 94.45 63.52 53.87 93.54 99.72"/><polyline class="cls-2" points="98.22 94.91 70.8 49.19 93.26 99.28"/><polyline class="cls-2" points="98.65 95.58 81.84 54.61 92.93 98.87"/><polyline class="cls-2" points="98.94 96.03 88.5 51.02 92.61 98.42"/><polyline class="cls-2" points="99.16 96.36 95.71 42.92 91.92 97.88"/><polygon class="cls-3" points="98.17 54.52 92.94 97.03 99.9 97.19 98.17 54.52"/><polyline class="cls-3" points="99.88 97.3 104.22 59.59 92.94 97.03"/><polyline class="cls-3" points="99.75 98.03 107.96 67.43 93 96.48"/><polyline class="cls-3" points="99.74 98.48 114.56 66.39 93.27 95.95"/><polyline class="cls-3" points="99.45 98.84 123.49 64.24 93.37 95.45"/><polyline class="cls-3" points="99.13 99.32 128.43 69.04 93.67 94.99"/><polyline class="cls-3" points="98.47 99.92 122.17 81.31 94.05 94.59"/><polyline class="cls-3" points="98.07 100.19 127.51 84.3 94.49 94.25"/><polyline class="cls-3" points="97.78 100.37 137.82 87.26 94.97 93.99"/><polyline class="cls-3" points="97.05 100.15 133.58 94.46 95.53 94.23"/><polyline class="cls-3" points="96.47 100.17 130.28 100.26 96 94.19"/><polyline class="cls-3" points="95.97 99.27 121.43 103.62 96.27 95.01"/><polyline class="cls-3" points="95.49 95.03 71.06 104.87 97.51 98.9"/><polyline class="cls-3" points="95.53 94.32 62.08 101.83 97.31 99.7"/><polyline class="cls-3" points="95.78 93.58 53.72 96.07 96.87 100.47"/><polyline class="cls-3" points="96.36 93.54 54.45 89.21 96.32 100.51"/><polyline class="cls-3" points="97.12 93.65 63.4 85 95.77 100.46"/><polyline class="cls-3" points="97.37 94.47 67.41 80.66 95.81 99.26"/><polyline class="cls-3" points="97.67 94.95 72.77 78.33 95.34 99.31"/><polyline class="cls-3" points="98.5 94.27 67.69 65.54 94.27 99.81"/><polyline class="cls-3" points="98.93 94.66 73.15 61.34 93.87 99.44"/><polyline class="cls-3" points="99.37 95.28 82.31 64.78 93.52 99.01"/><polyline class="cls-3" points="99.62 95.76 87.31 61.5 93.25 98.53"/><polyline class="cls-3" points="99.6 96.15 92.34 54.64 92.88 98.01"/><circle class="cls-4" cx="96.18" cy="96.41" r="25.47"/><path class="cls-2" d="M67.33,119.19l-.3-.06-3.45-2.07a6.18,6.18,0,0,1-.61-.9Z"/><path class="cls-2" d="M69.72,119.24h-.09l-7.18-4.32a5.82,5.82,0,0,1-.18-.85Z"/><path class="cls-2" d="M62.27,112.46l9.66,6.71-9.71-5.85v-.07A5.16,5.16,0,0,1,62.27,112.46Z"/><path class="cls-2" d="M62.61,111.1l10.93,7.58L62.36,112A6,6,0,0,1,62.61,111.1Z"/><path class="cls-2" d="M63.23,109.92l11.91,8.26-12.37-7.44A5.07,5.07,0,0,1,63.23,109.92Z"/><path class="cls-2" d="M64.08,108.9l12.66,8.79-13.33-8A6,6,0,0,1,64.08,108.9Z"/><path class="cls-2" d="M65.18,108.07l13.16,9.13-14.07-8.47A5.86,5.86,0,0,1,65.18,108.07Z"/><path class="cls-2" d="M66.62,107.46l13.32,9.24L65.4,108A5.66,5.66,0,0,1,66.62,107.46Z"/><path class="cls-2" d="M68.28,107l13.26,9.21-14.65-8.82a6.43,6.43,0,0,1,1.32-.15A2.17,2.17,0,0,1,68.28,107Z"/><path class="cls-2" d="M68.74,105.72l14.4,10L68.33,106.8A8.27,8.27,0,0,1,68.74,105.72Z"/><path class="cls-2" d="M69.37,104.55l15.37,10.67-16-9.61A9.91,9.91,0,0,1,69.37,104.55Z"/><path class="cls-2" d="M91.15,113.25l-17.44-10.5,15.84,11L72.11,103.25l15.84,11-17.44-10.5,15.83,11-17-10.21a8.67,8.67,0,0,1,14.5,0l-5.38-3.24,5.87,4.07.67.47,6.59,4.57a1.58,1.58,0,0,1,.09.31l-14.82-8.92L92,112.21v.08l-16.66-10Z"/><path class="cls-2" d="M90.79,108.66l-4.67-2.81a6.37,6.37,0,0,1,2.47.81l1,.7A6.69,6.69,0,0,1,90.79,108.66Z"/><path class="cls-2" d="M91.32,125.61c-.18,0-.36-.06-.54-.09l-6.13-3.69a10.75,10.75,0,0,1-1.09-1.6Z"/><path class="cls-2" d="M95.57,125.71h-.16L82.64,118a10.78,10.78,0,0,1-.32-1.52Z"/><path class="cls-2" d="M82.32,113.65l17.19,11.94L82.22,115.18v-.13A9.32,9.32,0,0,1,82.32,113.65Z"/><path class="cls-2" d="M82.93,111.23l19.43,13.48-19.89-12A11,11,0,0,1,82.93,111.23Z"/><path class="cls-2" d="M84,109.12l21.18,14.71-22-13.24A10.59,10.59,0,0,1,84,109.12Z"/><path class="cls-2" d="M85.53,107.32,108.05,123,84.34,108.67A10.09,10.09,0,0,1,85.53,107.32Z"/><path class="cls-2" d="M87.5,105.84l23.4,16.23L85.87,107A10.52,10.52,0,0,1,87.5,105.84Z"/><path class="cls-2" d="M90.05,104.75l23.7,16.45L87.88,105.62A11.44,11.44,0,0,1,90.05,104.75Z"/><path class="cls-2" d="M93,103.94l23.6,16.38L90.54,104.63a10.64,10.64,0,0,1,2.35-.26C92.92,104.23,93,104.08,93,103.94Z"/><path class="cls-2" d="M93.82,101.65l25.62,17.79L93.1,103.58A15.92,15.92,0,0,1,93.82,101.65Z"/><path class="cls-2" d="M95,99.58l27.34,19L93.9,101.47A15.75,15.75,0,0,1,95,99.58Z"/><path class="cls-2" d="M133.69,115.05l-31-18.67,28.17,19.55-31-18.67L128,116.81,97,98.14l28.17,19.55L95,99.53a15.41,15.41,0,0,1,25.79,0l-9.57-5.76L121.64,101l1.19.83L134.57,110c.06.17.11.35.16.54L108.36,94.62l26.78,18.59s0,.09,0,.13L105.52,95.5Z"/><path class="cls-2" d="M133,106.88l-8.31-5a11.6,11.6,0,0,1,4.4,1.45l1.8,1.24A12.18,12.18,0,0,1,133,106.88Z"/><path class="cls-2" d="M87.49,133.64l-.31-.06-3.53-2.13a5.34,5.34,0,0,1-.63-.92Z"/><path class="cls-2" d="M90,133.69h-.1l-7.36-4.43a7.88,7.88,0,0,1-.19-.87Z"/><path class="cls-2" d="M82.3,126.74l9.92,6.88-10-6v-.08A5.29,5.29,0,0,1,82.3,126.74Z"/><path class="cls-2" d="M82.66,125.34l11.2,7.78-11.47-6.91A6.28,6.28,0,0,1,82.66,125.34Z"/><path class="cls-2" d="M83.28,124.13l12.23,8.48L82.81,125A5.68,5.68,0,0,1,83.28,124.13Z"/><path class="cls-2" d="M84.16,123.08l13,9-13.68-8.23A5.66,5.66,0,0,1,84.16,123.08Z"/><path class="cls-2" d="M85.29,122.23l13.5,9.37-14.44-8.69A5.61,5.61,0,0,1,85.29,122.23Z"/><path class="cls-2" d="M86.76,121.6l13.67,9.49-14.92-9A6.19,6.19,0,0,1,86.76,121.6Z"/><path class="cls-2" d="M88.47,121.14l13.61,9.44-15-9.05a6.74,6.74,0,0,1,1.36-.15A2.17,2.17,0,0,1,88.47,121.14Z"/><path class="cls-2" d="M88.94,119.82l14.78,10.26-15.19-9.15A8.16,8.16,0,0,1,88.94,119.82Z"/><path class="cls-2" d="M89.59,118.62l15.77,10.95L89,119.71A7.71,7.71,0,0,1,89.59,118.62Z"/><path class="cls-2" d="M111.94,127.54,94,116.77l16.26,11.28L92.4,117.28l16.25,11.28L90.76,117.79,107,129.06l-17.4-10.47a8.89,8.89,0,0,1,14.88,0L99,115.25l6,4.18.69.48,6.77,4.69.09.32-15.21-9.16,15.45,10.72v.08L95.69,116.27Z"/><path class="cls-2" d="M111.57,122.83l-4.8-2.88a6.85,6.85,0,0,1,2.54.83l1,.72A7.33,7.33,0,0,1,111.57,122.83Z"/></svg>