<?xml version="1.0" encoding="UTF-8"?><svg id="a" xmlns="http://www.w3.org/2000/svg" width="192" height="192" viewBox="0 0 192 192"><defs><style>.d{fill:#ff837d;}.d,.e,.f,.g,.h,.i{stroke-width:0px;}.e{fill:#56595b;}.f{fill:#ba6561;}.g{fill:#f9de81;}.h{fill:#83868c;}.i{fill:#a0a5af;}</style></defs><g id="b"><g id="c"><rect class="d" x="20" y="20" width="152" height="152" rx="10" ry="10"/><path class="f" d="m113.86,115.07c-.73-1.73-4.83,2.22-6.38,2.42-4.2-12.64-7.85-26.41-.78-38.82.3-.6-.42-1.2-.94-.72-4.6,3.71-9.68,7.54-15.41,9.2-2.76.53-6.32.03-8.59,1.79-.53,11.56-5.98,23.5-.42,34.57,0,1.78,1.43.25,1.77,1.49.12.56-.23,1.19-.46,1.67-.14.28-.09.66.22.82,1.14.59,1.53,1.9,1.81,3.09-1.28,1.68,6.42,1.15,7.7,2.41,1.38.03.64-2.23.51-3.07,2.22-.32-.02-1.7.37-2.94.45-1.06,1.8-1.97.76-3.2-2.25-1.81.34-2.76,1.03-4.49.34-.88.28-2.29.94-3.05.73.55,1.64.81,2.53.85.17.09.12.01.11.29-.78,3.81,2.71,3.73,2.35,6.51-.04.61.11,1.37.53,1.85-1.43.95.64,2.9,1.54,3.55-.46.83.28,1.63.26,2.44-.11.47.28.81.74.74,2.25-.78,4.84.7,6.8.16.64-1.05.2-2.12-.2-3.12.02-.23.21-.54.46-.56,1.24-.25.12-1.6-.22-2.22,2.93-2.47-.95-1.22.23-3.15.54-.41,2.04-1.37,1.09-2.06,1.06-1.99,1.61-4.2,1.64-6.45Z"/><path class="g" d="m82.06,92.43c.67-6.34-3.02-4.71-7.52-4.73-1.56-.49-2.35-3.32-3.84-3.18-.84.66-.64,1.83-.99,2.73-1.21.9-1.53,1.22-1.22,2.81-.83,2.39-1.99,2.61-.8,5.41-.21.8-.83,1.53-.42,2.4.25.5.05.88-.38,1.17-.58.65-.17,1.36,0,2.07.02.95-.74,1.73-.16,2.69-.16.67-1.99,2.11-.4,2.35,2.56-.52,5.58-1.16,8.04-.12.66.55-.09,1.49-.23,2.12.2,3.15,1.9,6.43,3.94,8.83.06.16.19.31.34.32.11.54.98.51.95-.08-.94-8.46,2.62-16.45,2.69-24.8Z"/><path class="g" d="m125.61,89.71c-1.1-7.04-6.14-12.9-11.8-16.91-.58-.32-2.65-1.35-1.86-2.26.4-.28.51-.78.18-1.08,4-2.85.77-4.89-2.62-5.43-3.03-3.51-7.35-4.18-11.6-5.35,3.16-4.72-7.53-2.29-8.67.29-1.54,3.81,14.29-3.59,17.31,11.58,0,1.89-1.43,4.4-.52,6.03-5.08,13.01-4.63,27.66.43,40.89.84,1.8,7.95-4.95,11.09-3.82,2,.1-.98-6.63-.87-8.05,2.92-.08,6.34-.18,8.59,1.98,3.32.51.95-15.29.34-17.86Z"/><path class="g" d="m105.61,74.33c-3.36,4.98-8.58,9.25-14.38,11.04-5.85,1.8-12.18,1.39-18.03-.19-1.79-.48-2.55,2.29-.76,2.77,6.57,1.77,13.81,2.18,20.32-.06,6.2-2.13,11.7-6.72,15.34-12.11,1.04-1.54-1.45-2.98-2.48-1.45Z"/><path class="e" d="m87.23,61.51c-2.45-.97-2.32-2.99-4.53-4.68-3.2-2.46,1.6,10.59,3.88,6.5.29-.06.53-.29.59-.57.45-.24.63-.94.06-1.24Z"/><path class="h" d="m106.32,68.13c-.82-4.93-7.08-9.18-11.88-8.21-8.19-2.78-10.78,5.86-14.47,11.1-7.79-.3-14.7,12.74-5.83,16.11,11.95,3.72,34.99-3.96,32.18-19Z"/><path class="e" d="m79.71,80.5c.45-1.72.03-3.55-.96-5.03-1.16-1.73-2.77-3.15-4.63-4.09-3.54-2.76-5.09-7.21-7.36-10.9-4.66-7.46,1.14,16.72,3.46,17.52-.97,4.25,2.08,4.96,5.89,5.13,2.37.11,3.16-.97,3.6-2.64Z"/><path class="e" d="m98.98,56.93c-.03-.19-.14-.32-.27-.39-1.62-.94-2.14,2.48-3.08,3.24-.78.13-1.32.41-1.13,1.5.27,1.53,1.94,2.51,2.61,3.81,2.7,1.7,2.35-6.62,1.86-8.16Zm-.98.81s-.03-.01-.04-.02c.01-.01.02-.03.03-.04,0,.02,0,.04.01.06Z"/><path class="i" d="m93.88,71.66c-.21-.21-.5-.36-.79-.42-.42-.08-.85-.06-1.27-.05-.44,0-.89.02-1.29.24-.52.3-.77.89-.74,1.48,0,.13.03.26.05.39-.06.3.03.61.25.86.36.39.85.52,1.36.56.38.04.81.03,1.17-.07.23-.06.43-.18.63-.3.2-.12.4-.18.57-.36.36-.36.47-.86.44-1.36-.02-.37-.12-.71-.39-.98Z"/><path class="e" d="m93.19,72.51c-.09-.17-.26-.28-.44-.34-.15-.05-.33-.03-.48-.03-.03,0-.05,0-.08,0-.02,0-.04,0-.05,0,0,0-.02,0-.03,0-.05,0-.1,0-.16,0-.22.02-.4.06-.6.16-.01,0-.02.01-.03.02,0,0,0,0,0,0,0,0,0,0-.01,0-.06.02-.11.05-.17.07-.08.05-.15.11-.2.19-.04.04-.08.1-.09.16-.05.09-.07.18-.06.28,0,.13.04.25.1.36.05.08.11.15.19.2.07.06.15.11.24.13.12.02.25.04.37.05.03,0,.07.01.1.02.14.03.29.03.43-.02.1,0,.21-.02.31-.05.04-.01.08-.02.12-.04.13-.05.24-.1.35-.18.09-.07.14-.12.21-.22.07-.12.1-.25.1-.39,0-.13-.04-.26-.1-.38Z"/><path class="e" d="m111.07,133.53c-.52-3.27-4.22-2.41-6.62-2.36-1.15.38-1.22,1.83-1.57,2.97-.2.66.13,1.38.78,1.63,1.48.57,3.89-.07,5.31.1,1.48.15,2.84-.75,2.11-2.34Zm-6.78.87s0,0-.01,0c0,0,0,0,0-.01,0,0,0,0,0,.01Z"/><path class="e" d="m92.62,131.97c-2.45-1.52-6.91-2.13-9.38-.23-1.51,1.01-2.54,2.27-.83,3.67,1.59.86,14.14.15,10.21-3.44Z"/><path class="e" d="m74.02,105.76c-.57-.24-1.19-.31-1.8-.36-.69-.06-1.39-.12-2.08-.18-.76-.06-1.58-.12-2.12.53-.49.59-.5,1.49-.29,2.19.38,1.33,1.64,2.02,2.76,2.69.03.04.06.08.09.11.61.58,1.47.39,2.04-.14.51-.47.98-.98,1.46-1.47.48-.48,1.01-1.01,1.14-1.71.15-.82-.52-1.37-1.2-1.66Z"/><path class="e" d="m122.69,105.57c-.88-.22-1.8-.32-2.71-.35-.49-.02-.98-.02-1.46,0-.39,0-.87-.05-1.26.1-.33,0-.67.22-.75.56-.2.9-.17,1.85.16,2.72.18.47.4.9.82,1.2.34.24.76.34,1.16.45.34.09.67.18.97.36.37.22.66.55,1.03.79.76.5,1.78.49,2.65.33.95-.18,1.3-1.01,1.39-1.88.04-.45.06-.9.08-1.35.03-.46.09-.93.08-1.39-.03-1.03-1.34-1.32-2.15-1.53Z"/></g></g></svg>