<?xml version="1.0" encoding="UTF-8"?><svg id="a" xmlns="http://www.w3.org/2000/svg" viewBox="0 0 192 192"><g id="b"><g id="c"><rect x="20" y="20" width="152" height="152" rx="10" ry="10" style="fill:#f9de81; isolation:isolate;"/><path d="M62.04,97.67c.36,0,.7.14.95.39l11.19,11.05c.26.26.62.4.99.39h.01c.34-.01.67-.15.91-.39l11.26-11.05c.25-.25.6-.39.95-.39l4.56.02c.39,0,.77.17,1.02.47l.12.14c.21.25.33.56.33.88l-.02,4.68c0,.36-.15.71-.4.96l-11.17,11.03c-.26.25-.4.6-.4.96h0c0,.37.14.72.4.98l11.17,11.03c.26.25.4.6.4.96l.02,4.68c0,.33-.11.64-.33.89l-.12.14c-.26.3-.63.47-1.02.47h-4.56c-.36.02-.7-.12-.95-.37l-11.26-11.05c-.24-.24-.57-.38-.91-.39h-.01c-.37-.01-.73.13-.99.39l-11.19,11.05c-.25.25-.59.39-.95.39h-4.56c-.39,0-.77-.17-1.02-.47l-.12-.14c-.21-.25-.33-.56-.33-.88v-4.68c0-.36.14-.71.4-.96l11.13-11.07c.26-.25.4-.6.4-.96s-.14-.71-.4-.96l-11.13-11.07c-.25-.25-.4-.6-.4-.96v-4.68c0-.32.12-.64.33-.88l.12-.14c.26-.3.63-.47,1.02-.47h4.56Z" style="fill:#8c72bd;"/><rect x="97.67" y="97.67" width="38.33" height="38.33" rx="1.5" ry="1.5" style="fill:#8c72bd;"/><path d="M116.91,100.44c-9.06,0-16.43,7.35-16.43,16.38s7.37,16.38,16.43,16.38,16.43-7.35,16.43-16.38-7.37-16.38-16.43-16.38Z" style="fill:#f9de81;"/><path d="M116.91,108.04c4.85,0,8.8,3.94,8.8,8.77s-3.95,8.77-8.8,8.77-8.8-3.94-8.8-8.77,3.95-8.77,8.8-8.77Z" style="fill:#8c72bd;"/><path d="M62.04,56c.36,0,.7.14.95.39l11.19,11.05c.26.26.62.4.99.39h.01c.34,0,.67-.15.91-.39l11.26-11.05c.25-.25.6-.39.95-.39h4.56c.39.02.77.19,1.02.49l.12.14c.21.25.33.56.33.89l-.02,4.68c0,.36-.15.71-.4.96l-11.57,11.43-7.76,7.89-11.6,11.46c-.25.25-.59.39-.95.39h-4.56c-.39,0-.77-.17-1.02-.47l-.12-.14c-.21-.25-.33-.56-.33-.88v-4.68c0-.36.14-.71.4-.96l11.13-11.07c.26-.25.4-.6.4-.96s-.14-.71-.4-.96l-11.13-11.07c-.26-.25-.4-.6-.4-.96v-4.68c0-.33.12-.64.33-.88l.12-.14c.26-.3.63-.47,1.02-.47h4.56Z" style="fill:#8c72bd;"/><path d="M116.83,56c10.54,0,19.17,8.03,19.17,18.58v1.18c0,10.44-8.45,18.41-18.85,18.57h-.32c-10.54,0-19.17-8.03-19.17-18.57v-1.18c0-10.54,8.63-18.58,19.17-18.58Z" style="fill:#8c72bd;"/><path d="M117.04,66.4c-4.82,0-8.74,3.92-8.74,8.74s3.92,8.74,8.74,8.74,8.74-3.92,8.74-8.74-3.92-8.74-8.74-8.74Z" style="fill:#f9de81;"/></g></g></svg>