<svg width="192" height="192" version="1.1" viewBox="0 0 192 192" xmlns="http://www.w3.org/2000/svg">
 <rect x="20" y="20" width="152" height="152" rx="9.9346" style="fill:#9abeff"/>
 <path d="m20 96v66.064c0 5.5038 4.4318 9.9356 9.9355 9.9356h132.13c5.5038 0 9.9356-4.4318 9.9356-9.9356v-66.064h-152z" style="fill:#98dc9a;paint-order:stroke fill markers"/>
 <path d="m20 96v32h152v-32h-152z" style="fill:#73ada4;paint-order:stroke fill markers"/>
 <path d="m64 124c0 4 4 8 8 8h48c4 0 8-4 8-8v-32l-32-28-32 28v32z" style="fill:#fff"/>
 <rect x="84" y="104" width="24" height="28" style="fill:#73ada4;paint-order:stroke fill markers"/>
 <path d="m96 52-40 34 8 10 32-28 32 28 8-10-40-34z" style="fill:#96dfd3"/>
</svg>
