<svg xmlns="http://www.w3.org/2000/svg" xmlns:xlink="http://www.w3.org/1999/xlink" viewBox="0 0 1280 701.46"><defs><clipPath id="a"><rect width="1280" height="640" style="fill:none"/></clipPath><mask id="b" x="667.83" y="399.18" width="37.3" height="30.22" maskUnits="userSpaceOnUse"><path d="M705.13,417.72c-4.33,3.08-13.06,9-14.81,10-3,1.85-3.28,1.63-3.84,1.65s-.87.2-3.84-1.65c-1.76-1.06-10.49-6.95-14.81-10V399.18h37.3Z" style="fill:#fff;fill-rule:evenodd"/></mask><mask id="c" x="496.09" y="394.96" width="47.07" height="46.78" maskUnits="userSpaceOnUse"><path d="M497,397.92a3,3,0,0,1,3-3H539a3,3,0,0,1,3,3V437a3,3,0,0,1-3,3H499.94a3,3,0,0,1-3-3Z" style="fill:#fff;fill-rule:evenodd"/></mask><mask id="d" x="746.77" y="557.57" width="48.59" height="49.78" maskUnits="userSpaceOnUse"><path d="M748,562.92a3,3,0,0,1,3-3H790a3,3,0,0,1,3,3V602a3,3,0,0,1-3,3H750.94a3,3,0,0,1-3-3Z" style="fill:#fff;fill-rule:evenodd"/></mask><linearGradient id="e" x1="2.17" y1="639.79" x2="2.91" y2="639.67" gradientTransform="matrix(399, 0, 0, -394.5, -398, 252875.5)" gradientUnits="userSpaceOnUse"><stop offset="0" stop-color="#fff"/><stop offset="1" stop-color="#fff" stop-opacity="0"/></linearGradient></defs><g style="clip-path:url(#a)"><rect width="1280" height="640" style="fill:#b1b5be"/><path d="M481,307H810a35,35,0,0,1,35,35v359.5H446V342A35,35,0,0,1,481,307Z" style="fill:#222;fill-rule:evenodd"/><path d="M557,335v12a14,14,0,0,0,14,14H719a14,14,0,0,0,14-14V335a15,15,0,0,1,15-15h60a25,25,0,0,1,25,25v356.5H458V345a25,25,0,0,1,25-25h59A15,15,0,0,1,557,335Z" style="fill:#4b4a4b;fill-rule:evenodd"/><circle cx="519.48" cy="500.46" r="24.5" style="fill:#9dbae3"/><polygon points="514.98 495.94 514.98 495.92 515.05 495.92 515.05 495.89 515.13 495.89 515.13 495.87 515.2 495.87 515.2 495.84 515.27 495.84 515.27 495.82 515.32 495.82 515.32 495.8 515.39 495.8 515.39 495.77 515.46 495.77 515.46 495.75 515.53 495.75 515.53 495.73 515.6 495.73 515.6 495.7 515.67 495.7 515.67 495.68 515.75 495.68 515.75 495.65 515.82 495.65 515.82 495.63 515.89 495.63 515.89 495.61 515.93 495.61 515.93 495.58 516.01 495.58 516.01 495.56 516.08 495.56 516.08 495.54 516.15 495.54 516.15 495.51 516.22 495.51 516.22 495.49 516.29 495.49 516.29 495.46 516.34 495.46 516.34 495.44 516.41 495.44 516.41 495.42 516.48 495.42 516.48 495.39 516.55 495.39 516.55 495.37 516.6 495.37 516.6 495.35 516.67 495.35 516.67 495.32 516.74 495.32 516.74 495.3 516.82 495.3 516.82 495.27 516.86 495.27 516.86 495.25 516.93 495.25 516.93 495.23 517.01 495.23 517.01 495.2 517.08 495.2 517.08 495.18 517.13 495.18 517.13 495.15 517.2 495.15 517.2 495.13 517.27 495.13 517.27 495.11 517.34 495.11 517.34 495.08 517.39 495.08 517.39 495.06 517.46 495.06 517.46 495.04 517.53 495.04 517.53 495.01 517.6 495.01 517.6 494.99 517.65 494.99 517.65 494.96 517.72 494.96 517.72 494.94 517.79 494.94 517.79 494.92 517.86 494.92 517.86 494.89 517.91 494.89 517.91 494.87 517.98 494.87 517.98 494.85 518.05 494.85 518.05 494.82 518.12 494.82 518.12 494.8 518.17 494.8 518.17 494.77 518.24 494.77 518.24 494.75 518.32 494.75 518.32 494.73 518.39 494.73 518.39 494.7 518.43 494.7 518.43 494.68 518.5 494.68 518.5 494.65 518.58 494.65 518.58 494.63 518.65 494.63 518.65 494.61 518.7 494.61 518.7 494.58 518.77 494.58 518.77 494.56 518.84 494.56 518.84 494.54 518.91 494.54 518.91 494.51 518.96 494.51 518.96 494.49 519.03 494.49 519.03 494.46 519.1 494.46 519.1 494.44 519.15 494.44 519.15 494.42 519.22 494.42 519.22 494.39 519.29 494.39 519.29 494.37 519.36 494.37 519.36 494.35 519.41 494.35 519.41 494.32 519.48 494.32 519.48 494.3 519.55 494.3 519.55 494.27 519.62 494.27 519.62 494.25 519.67 494.25 519.67 494.23 519.74 494.23 519.74 494.2 519.81 494.2 519.81 494.18 519.88 494.18 519.88 494.16 519.96 494.16 519.96 494.13 520 494.13 520 494.11 520.08 494.11 520.08 494.08 520.15 494.08 520.15 494.06 520.19 494.06 520.19 494.04 520.27 494.04 520.27 494.01 520.34 494.01 520.34 493.99 520.41 493.99 520.41 493.97 520.48 493.97 520.48 493.94 520.53 493.94 520.53 493.92 520.6 493.92 520.6 493.89 520.67 493.89 520.67 493.87 520.72 493.87 520.72 493.85 520.79 493.85 520.79 493.82 520.86 493.82 520.86 493.8 520.93 493.8 520.93 493.77 521 493.77 521 493.75 521.05 493.75 521.05 493.73 521.12 493.73 521.12 493.7 521.19 493.7 521.19 493.68 521.26 493.68 521.26 493.66 521.31 493.66 521.31 493.63 521.38 493.63 521.38 493.61 521.46 493.61 521.46 493.58 521.53 493.58 521.53 493.56 521.58 493.56 521.58 493.54 521.65 493.54 521.65 493.51 521.72 493.51 521.72 493.49 521.79 493.49 521.79 493.47 521.86 493.47 521.86 493.44 521.91 493.44 521.91 493.42 521.98 493.42 521.98 493.39 522.05 493.39 522.05 493.37 522.12 493.37 522.12 493.35 522.19 493.35 522.19 493.32 522.24 493.32 522.24 493.3 522.31 493.3 522.31 493.28 522.38 493.28 522.38 493.25 522.46 493.25 522.46 493.23 522.53 493.23 522.53 493.2 522.57 493.2 522.57 493.18 522.64 493.18 522.64 493.16 522.72 493.16 522.72 493.13 522.79 493.13 522.79 493.11 522.86 493.11 522.86 493.09 522.93 493.09 522.93 493.06 522.98 493.06 522.98 493.04 523.05 493.04 523.05 493.01 523.12 493.01 523.12 492.99 523.19 492.99 523.19 492.97 523.26 492.97 523.26 492.94 523.34 492.94 523.34 492.92 523.38 492.92 523.38 492.9 523.45 492.9 523.45 492.87 523.53 492.87 523.53 492.85 523.6 492.85 523.6 492.82 523.67 492.82 523.67 492.8 523.74 492.8 523.74 492.78 523.79 492.78 523.79 492.75 523.86 492.75 523.86 492.73 523.93 492.73 523.93 492.7 524 492.7 524 492.68 524.07 492.68 524.07 492.66 524.14 492.66 524.14 492.63 524.22 492.63 524.22 492.61 524.29 492.61 524.29 492.59 524.34 492.59 524.34 492.56 524.43 492.56 524.43 492.54 524.48 492.54 524.48 492.51 524.55 492.51 524.55 492.49 524.62 492.49 524.62 492.47 524.69 492.47 524.69 492.44 524.76 492.44 524.76 492.42 524.83 492.42 524.83 492.4 524.91 492.4 524.91 492.37 524.98 492.37 524.98 492.35 525.05 492.35 525.05 492.32 525.12 492.32 525.12 492.3 525.19 492.3 525.19 492.28 525.29 492.28 525.29 492.25 525.36 492.25 525.36 492.23 525.43 492.23 525.43 492.21 525.5 492.21 525.5 492.18 525.6 492.18 525.6 492.16 525.67 492.16 525.67 492.13 525.76 492.13 525.76 492.11 525.83 492.11 525.83 492.09 525.93 492.09 525.93 492.06 526.02 492.06 526.02 492.04 526.12 492.04 526.12 492.02 526.24 492.02 526.24 491.99 526.38 491.99 526.38 491.97 526.52 491.97 526.52 491.94 526.71 491.94 526.71 491.92 527.17 491.92 527.17 491.94 527.31 491.94 527.31 491.97 527.4 491.97 527.4 491.99 527.48 491.99 527.48 492.02 527.52 492.02 527.52 492.04 527.57 492.04 527.57 492.06 527.62 492.06 527.62 492.09 527.64 492.09 527.64 492.11 527.69 492.11 527.69 492.13 527.71 492.13 527.71 492.16 527.74 492.16 527.74 492.18 527.76 492.18 527.76 492.21 527.78 492.21 527.78 492.23 527.81 492.23 527.81 492.25 527.83 492.25 527.83 492.3 527.86 492.3 527.86 492.32 527.88 492.32 527.88 492.37 527.9 492.37 527.9 492.42 527.93 492.42 527.93 492.49 527.95 492.49 527.95 492.56 527.98 492.56 527.98 492.66 528 492.66 528 492.78 528.02 492.78 528.02 493.32 528 493.32 528 493.54 527.98 493.54 527.98 493.68 527.95 493.68 527.95 493.8 527.93 493.8 527.93 493.92 527.9 493.92 527.9 494.04 527.88 494.04 527.88 494.13 527.86 494.13 527.86 494.23 527.83 494.23 527.83 494.32 527.81 494.32 527.81 494.42 527.78 494.42 527.78 494.49 527.76 494.49 527.76 494.58 527.74 494.58 527.74 494.68 527.71 494.68 527.71 494.75 527.69 494.75 527.69 494.85 527.67 494.85 527.67 494.92 527.64 494.92 527.64 495.01 527.62 495.01 527.62 495.08 527.59 495.08 527.59 495.18 527.57 495.18 527.57 495.25 527.55 495.25 527.55 495.32 527.52 495.32 527.52 495.42 527.5 495.42 527.5 495.49 527.48 495.49 527.48 495.56 527.45 495.56 527.45 495.65 527.43 495.65 527.43 495.73 527.4 495.73 527.4 495.8 527.38 495.8 527.38 495.87 527.36 495.87 527.36 495.94 527.33 495.94 527.33 496.04 527.31 496.04 527.31 496.11 527.28 496.11 527.28 496.18 527.26 496.18 527.26 496.25 527.24 496.25 527.24 496.32 527.21 496.32 527.21 496.42 527.19 496.42 527.19 496.49 527.17 496.49 527.17 496.56 527.14 496.56 527.14 496.63 527.12 496.63 527.12 496.7 527.1 496.7 527.1 496.77 527.07 496.77 527.07 496.84 527.05 496.84 527.05 496.91 527.02 496.91 527.02 497.01 527 497.01 527 497.08 526.98 497.08 526.98 497.15 526.95 497.15 526.95 497.22 526.93 497.22 526.93 497.3 526.9 497.3 526.9 497.37 526.88 497.37 526.88 497.44 526.86 497.44 526.86 497.51 526.83 497.51 526.83 497.58 526.81 497.58 526.81 497.65 526.78 497.65 526.78 497.72 526.76 497.72 526.76 497.79 526.74 497.79 526.74 497.87 526.71 497.87 526.71 497.94 526.69 497.94 526.69 498.01 526.67 498.01 526.67 498.08 526.64 498.08 526.64 498.15 526.62 498.15 526.62 498.22 526.6 498.22 526.6 498.29 526.57 498.29 526.57 498.37 526.55 498.37 526.55 498.44 526.52 498.44 526.52 498.51 526.5 498.51 526.5 498.58 526.48 498.58 526.48 498.65 526.45 498.65 526.45 498.72 526.43 498.72 526.43 498.79 526.4 498.79 526.4 498.86 526.38 498.86 526.38 498.94 526.36 498.94 526.36 499.01 526.33 499.01 526.33 499.08 526.31 499.08 526.31 499.15 526.29 499.15 526.29 499.22 526.26 499.22 526.26 499.29 526.24 499.29 526.24 499.36 526.21 499.36 526.21 499.44 526.19 499.44 526.19 499.51 526.17 499.51 526.17 499.58 526.14 499.58 526.14 499.65 526.12 499.65 526.12 499.72 526.1 499.72 526.1 499.79 526.07 499.79 526.07 499.86 526.05 499.86 526.05 499.93 526.02 499.93 526.02 499.98 526 499.98 526 500.05 525.98 500.05 525.98 500.13 525.95 500.13 525.95 500.2 525.93 500.2 525.93 500.27 525.9 500.27 525.9 500.34 525.88 500.34 525.88 500.41 525.86 500.41 525.86 500.48 525.83 500.48 525.83 500.55 525.81 500.55 525.81 500.62 525.79 500.62 525.79 500.69 525.76 500.69 525.76 500.74 525.74 500.74 525.74 500.81 525.72 500.81 525.72 500.89 525.69 500.89 525.69 500.96 525.67 500.96 525.67 501.03 525.64 501.03 525.64 501.1 525.62 501.1 525.62 501.17 525.6 501.17 525.6 501.24 525.57 501.24 525.57 501.31 525.55 501.31 525.55 501.38 525.52 501.38 525.52 501.43 525.5 501.43 525.5 501.5 525.48 501.5 525.48 501.57 525.45 501.57 525.45 501.65 525.43 501.65 525.43 501.72 525.4 501.72 525.4 501.79 525.38 501.79 525.38 501.86 525.36 501.86 525.36 501.93 525.33 501.93 525.33 501.98 525.31 501.98 525.31 502.05 525.29 502.05 525.29 502.12 525.26 502.12 525.26 502.19 525.24 502.19 525.24 502.26 525.22 502.26 525.22 502.34 525.19 502.34 525.19 502.41 525.17 502.41 525.17 502.48 525.14 502.48 525.14 502.53 525.12 502.53 525.12 502.6 525.1 502.6 525.1 502.67 525.07 502.67 525.07 502.74 525.05 502.74 525.05 502.81 525.02 502.81 525.02 502.88 525 502.88 525 502.93 524.98 502.93 524.98 503 524.95 503 524.95 503.07 524.93 503.07 524.93 503.14 524.91 503.14 524.91 503.22 524.88 503.22 524.88 503.29 524.86 503.29 524.86 503.33 524.83 503.33 524.83 503.41 524.81 503.41 524.81 503.48 524.79 503.48 524.79 503.55 524.76 503.55 524.76 503.62 524.74 503.62 524.74 503.69 524.72 503.69 524.72 503.74 524.69 503.74 524.69 503.81 524.67 503.81 524.67 503.88 524.64 503.88 524.64 503.95 524.62 503.95 524.62 504.02 524.6 504.02 524.6 504.07 524.57 504.07 524.57 504.14 524.55 504.14 524.55 504.21 524.52 504.21 524.52 504.29 524.5 504.29 524.5 504.36 524.48 504.36 524.48 504.4 524.45 504.4 524.45 504.48 524.43 504.48 524.43 504.55 524.41 504.55 524.41 504.62 524.38 504.62 524.38 504.69 524.36 504.69 524.36 504.74 524.34 504.74 524.34 504.81 524.31 504.81 524.31 504.88 524.29 504.88 524.29 504.95 524.26 504.95 524.26 505 524.24 505 524.24 505.07 524.22 505.07 524.22 505.14 524.19 505.14 524.19 505.21 524.17 505.21 524.17 505.26 524.14 505.26 524.14 505.33 524.12 505.33 524.12 505.4 524.1 505.4 524.1 505.48 524.07 505.48 524.07 505.55 524.05 505.55 524.05 505.62 524.02 505.62 524.02 505.67 524 505.67 524 505.74 523.98 505.74 523.98 505.81 523.95 505.81 523.95 505.88 523.93 505.88 523.93 505.95 523.91 505.95 523.91 506.02 523.88 506.02 523.88 506.09 523.86 506.09 523.86 506.17 523.84 506.17 523.84 506.24 523.81 506.24 523.81 506.31 523.79 506.31 523.79 506.38 523.76 506.38 523.76 506.45 523.74 506.45 523.74 506.52 523.72 506.52 523.72 506.59 523.69 506.59 523.69 506.66 523.67 506.66 523.67 506.74 523.64 506.74 523.64 506.81 523.62 506.81 523.62 506.85 523.6 506.85 523.6 506.93 523.57 506.93 523.57 507 523.55 507 523.55 507.07 523.53 507.07 523.53 507.14 523.5 507.14 523.5 507.21 523.48 507.21 523.48 507.28 523.45 507.28 523.45 507.35 523.43 507.35 523.43 507.43 523.41 507.43 523.41 507.5 523.38 507.5 523.38 507.57 523.36 507.57 523.36 507.64 523.34 507.64 523.34 507.71 523.31 507.71 523.31 507.78 523.29 507.78 523.29 507.85 523.26 507.85 523.26 507.9 523.24 507.9 523.24 507.97 523.22 507.97 523.22 508.04 523.19 508.04 523.19 508.12 523.17 508.12 523.17 508.19 523.14 508.19 523.14 508.26 523.12 508.26 523.12 508.33 523.1 508.33 523.1 508.4 523.07 508.4 523.07 508.45 523.05 508.45 523.05 508.52 523.03 508.52 523.03 508.59 523 508.59 523 508.66 522.98 508.66 522.98 508.71 522.96 508.71 522.96 508.78 522.93 508.78 522.93 508.85 522.91 508.85 522.91 508.92 522.88 508.92 522.88 508.97 522.86 508.97 522.86 509.04 522.84 509.04 522.84 509.11 522.81 509.11 522.81 509.19 522.79 509.19 522.79 509.23 522.76 509.23 522.76 509.3 522.74 509.3 522.74 509.35 522.72 509.35 522.72 509.42 522.69 509.42 522.69 509.47 522.67 509.47 522.67 509.54 522.64 509.54 522.64 509.61 522.62 509.61 522.62 509.66 522.6 509.66 522.6 509.71 522.57 509.71 522.57 509.78 522.55 509.78 522.55 509.83 522.53 509.83 522.53 509.9 522.5 509.9 522.5 509.95 522.48 509.95 522.48 510.02 522.46 510.02 522.46 510.06 522.43 510.06 522.43 510.11 522.41 510.11 522.41 510.18 522.38 510.18 522.38 510.23 522.36 510.23 522.36 510.28 522.34 510.28 522.34 510.33 522.31 510.33 522.31 510.4 522.29 510.4 522.29 510.44 522.26 510.44 522.26 510.49 522.24 510.49 522.24 510.54 522.22 510.54 522.22 510.59 522.19 510.59 522.19 510.63 522.17 510.63 522.17 510.68 522.15 510.68 522.15 510.73 522.12 510.73 522.12 510.78 522.1 510.78 522.1 510.83 522.07 510.83 522.07 510.87 522.05 510.87 522.05 510.9 522.03 510.9 522.03 510.94 522 510.94 522 510.99 521.98 510.99 521.98 511.04 521.96 511.04 521.96 511.06 521.93 511.06 521.93 511.11 521.91 511.11 521.91 511.13 521.88 511.13 521.88 511.18 521.86 511.18 521.86 511.21 521.84 511.21 521.84 511.23 521.81 511.23 521.81 511.25 521.79 511.25 521.79 511.3 521.76 511.3 521.76 511.32 521.74 511.32 521.74 511.35 521.72 511.35 521.72 511.37 521.69 511.37 521.69 511.4 521.67 511.4 521.67 511.42 521.65 511.42 521.65 511.44 521.62 511.44 521.62 511.47 521.6 511.47 521.6 511.49 521.58 511.49 521.58 511.51 521.55 511.51 521.55 511.54 521.53 511.54 521.53 511.56 521.48 511.56 521.48 511.59 521.46 511.59 521.46 511.61 521.43 511.61 521.43 511.63 521.38 511.63 521.38 511.66 521.34 511.66 521.34 511.68 521.31 511.68 521.31 511.71 521.26 511.71 521.26 511.73 521.22 511.73 521.22 511.75 521.15 511.75 521.15 511.78 521.05 511.78 521.05 511.8 520.67 511.8 520.67 511.78 520.58 511.78 520.58 511.75 520.5 511.75 520.5 511.73 520.46 511.73 520.46 511.71 520.41 511.71 520.41 511.68 520.36 511.68 520.36 511.66 520.31 511.66 520.31 511.63 520.29 511.63 520.29 511.61 520.24 511.61 520.24 511.59 520.22 511.59 520.22 511.56 520.17 511.56 520.17 511.54 520.15 511.54 520.15 511.51 520.12 511.51 520.12 511.49 520.08 511.49 520.08 511.47 520.05 511.47 520.05 511.44 520.03 511.44 520.03 511.42 520 511.42 520 511.4 519.98 511.4 519.98 511.37 519.96 511.37 519.96 511.35 519.93 511.35 519.93 511.32 519.91 511.32 519.91 511.3 519.88 511.3 519.88 511.28 519.86 511.28 519.86 511.25 519.84 511.25 519.84 511.23 519.81 511.23 519.81 511.21 519.79 511.21 519.79 511.18 519.77 511.18 519.77 511.16 519.74 511.16 519.74 511.13 519.72 511.13 519.72 511.11 519.7 511.11 519.7 511.09 519.67 511.09 519.67 511.04 519.65 511.04 519.65 511.02 519.62 511.02 519.62 510.99 519.6 510.99 519.6 510.97 519.58 510.97 519.58 510.92 519.55 510.92 519.55 510.9 519.53 510.9 519.53 510.87 519.5 510.87 519.5 510.83 519.48 510.83 519.48 510.8 519.46 510.8 519.46 510.78 519.43 510.78 519.43 510.73 519.41 510.73 519.41 510.71 519.38 510.71 519.38 510.66 519.36 510.66 519.36 510.63 519.34 510.63 519.34 510.59 519.31 510.59 519.31 510.56 519.29 510.56 519.29 510.52 519.27 510.52 519.27 510.49 519.24 510.49 519.24 510.44 519.22 510.44 519.22 510.4 519.2 510.4 519.2 510.37 519.17 510.37 519.17 510.33 519.15 510.33 519.15 510.28 519.12 510.28 519.12 510.25 519.1 510.25 519.1 510.21 519.08 510.21 519.08 510.16 519.05 510.16 519.05 510.11 519.03 510.11 519.03 510.09 519 510.09 519 510.04 518.98 510.04 518.98 509.99 518.96 509.99 518.96 509.95 518.93 509.95 518.93 509.9 518.91 509.9 518.91 509.85 518.89 509.85 518.89 509.8 518.86 509.8 518.86 509.76 518.84 509.76 518.84 509.71 518.81 509.71 518.81 509.66 518.79 509.66 518.79 509.61 518.77 509.61 518.77 509.56 518.74 509.56 518.74 509.52 518.72 509.52 518.72 509.47 518.7 509.47 518.7 509.4 518.67 509.4 518.67 509.35 518.65 509.35 518.65 509.3 518.62 509.3 518.62 509.26 518.6 509.26 518.6 509.21 518.58 509.21 518.58 509.14 518.55 509.14 518.55 509.09 518.53 509.09 518.53 509.02 518.5 509.02 518.5 508.97 518.48 508.97 518.48 508.92 518.46 508.92 518.46 508.88 518.43 508.88 518.43 508.83 518.41 508.83 518.41 508.78 518.39 508.78 518.39 508.73 518.36 508.73 518.36 508.69 518.34 508.69 518.34 508.64 518.32 508.64 518.32 508.59 518.29 508.59 518.29 508.54 518.27 508.54 518.27 508.5 518.24 508.5 518.24 508.45 518.22 508.45 518.22 508.4 518.2 508.4 518.2 508.35 518.17 508.35 518.17 508.31 518.15 508.31 518.15 508.26 518.12 508.26 518.12 508.21 518.1 508.21 518.1 508.16 518.08 508.16 518.08 508.09 518.05 508.09 518.05 508.04 518.03 508.04 518.03 508 518 508 518 507.95 517.98 507.95 517.98 507.9 517.96 507.9 517.96 507.85 517.93 507.85 517.93 507.81 517.91 507.81 517.91 507.76 517.89 507.76 517.89 507.71 517.86 507.71 517.86 507.66 517.84 507.66 517.84 507.62 517.82 507.62 517.82 507.54 517.79 507.54 517.79 507.5 517.77 507.5 517.77 507.45 517.74 507.45 517.74 507.4 517.72 507.4 517.72 507.35 517.7 507.35 517.7 507.31 517.67 507.31 517.67 507.26 517.65 507.26 517.65 507.21 517.63 507.21 517.63 507.16 517.6 507.16 517.6 507.09 517.58 507.09 517.58 507.05 517.55 507.05 517.55 507 517.53 507 517.53 506.95 517.51 506.95 517.51 506.9 517.48 506.9 517.48 506.85 517.46 506.85 517.46 506.78 517.43 506.78 517.43 506.74 517.41 506.74 517.41 506.69 517.39 506.69 517.39 506.64 517.36 506.64 517.36 506.59 517.34 506.59 517.34 506.55 517.32 506.55 517.32 506.5 517.29 506.5 517.29 506.43 517.27 506.43 517.27 506.38 517.24 506.38 517.24 506.33 517.22 506.33 517.22 506.28 517.2 506.28 517.2 506.24 517.17 506.24 517.17 506.19 517.15 506.19 517.15 506.12 517.13 506.12 517.13 506.07 517.1 506.07 517.1 506.02 517.08 506.02 517.08 505.98 517.05 505.98 517.05 505.93 517.03 505.93 517.03 505.88 517.01 505.88 517.01 505.81 516.98 505.81 516.98 505.76 516.96 505.76 516.96 505.71 516.93 505.71 516.93 505.67 516.91 505.67 516.91 505.62 516.89 505.62 516.89 505.57 516.86 505.57 516.86 505.52 516.84 505.52 516.84 505.48 516.82 505.48 516.82 505.43 516.79 505.43 516.79 505.38 516.77 505.38 516.77 505.33 516.74 505.33 516.74 505.29 516.72 505.29 516.72 505.24 516.7 505.24 516.7 505.19 516.67 505.19 516.67 505.14 516.65 505.14 516.65 505.1 516.63 505.1 516.63 505.05 516.6 505.05 516.6 505.02 516.58 505.02 516.58 504.98 516.55 504.98 516.55 504.93 516.53 504.93 516.53 504.88 516.51 504.88 516.51 504.86 516.48 504.86 516.48 504.81 516.46 504.81 516.46 504.76 516.43 504.76 516.43 504.74 516.41 504.74 516.41 504.69 516.39 504.69 516.39 504.67 516.36 504.67 516.36 504.62 516.34 504.62 516.34 504.6 516.32 504.6 516.32 504.55 516.29 504.55 516.29 504.52 516.27 504.52 516.27 504.5 516.25 504.5 516.25 504.45 516.22 504.45 516.22 504.43 516.2 504.43 516.2 504.4 516.17 504.4 516.17 504.38 516.15 504.38 516.15 504.36 516.13 504.36 516.13 504.31 516.1 504.31 516.1 504.29 516.08 504.29 516.08 504.26 516.05 504.26 516.05 504.24 516.03 504.24 516.03 504.21 516.01 504.21 516.01 504.19 515.98 504.19 515.98 504.17 515.96 504.17 515.96 504.14 515.93 504.14 515.93 504.12 515.91 504.12 515.91 504.1 515.89 504.1 515.89 504.07 515.86 504.07 515.86 504.05 515.82 504.05 515.82 504.02 515.79 504.02 515.79 504 515.77 504 515.77 503.98 515.75 503.98 515.75 503.95 515.72 503.95 515.72 503.93 515.67 503.93 515.67 503.91 515.65 503.91 515.65 503.88 515.63 503.88 515.63 503.86 515.58 503.86 515.58 503.83 515.55 503.83 515.55 503.81 515.51 503.81 515.51 503.79 515.48 503.79 515.48 503.76 515.44 503.76 515.44 503.74 515.41 503.74 515.41 503.71 515.36 503.71 515.36 503.69 515.34 503.69 515.34 503.67 515.29 503.67 515.29 503.64 515.25 503.64 515.25 503.62 515.22 503.62 515.22 503.6 515.17 503.6 515.17 503.57 515.13 503.57 515.13 503.55 515.1 503.55 515.1 503.52 515.05 503.52 515.05 503.5 515.01 503.5 515.01 503.48 514.96 503.48 514.96 503.45 514.91 503.45 514.91 503.43 514.87 503.43 514.87 503.41 514.82 503.41 514.82 503.38 514.77 503.38 514.77 503.36 514.75 503.36 514.75 503.33 514.7 503.33 514.7 503.31 514.65 503.31 514.65 503.29 514.6 503.29 514.6 503.26 514.55 503.26 514.55 503.24 514.51 503.24 514.51 503.22 514.44 503.22 514.44 503.19 514.39 503.19 514.39 503.17 514.34 503.17 514.34 503.14 514.29 503.14 514.29 503.12 514.25 503.12 514.25 503.1 514.2 503.1 514.2 503.07 514.15 503.07 514.15 503.05 514.1 503.05 514.1 503.03 514.06 503.03 514.06 503 514.01 503 514.01 502.98 513.96 502.98 513.96 502.95 513.89 502.95 513.89 502.93 513.84 502.93 513.84 502.91 513.79 502.91 513.79 502.88 513.75 502.88 513.75 502.86 513.7 502.86 513.7 502.84 513.65 502.84 513.65 502.81 513.6 502.81 513.6 502.79 513.53 502.79 513.53 502.76 513.48 502.76 513.48 502.74 513.44 502.74 513.44 502.72 513.39 502.72 513.39 502.69 513.34 502.69 513.34 502.67 513.29 502.67 513.29 502.64 513.25 502.64 513.25 502.62 513.17 502.62 513.17 502.6 513.13 502.6 513.13 502.57 513.08 502.57 513.08 502.55 513.03 502.55 513.03 502.53 512.99 502.53 512.99 502.5 512.94 502.5 512.94 502.48 512.87 502.48 512.87 502.45 512.82 502.45 512.82 502.43 512.77 502.43 512.77 502.41 512.72 502.41 512.72 502.38 512.67 502.38 512.67 502.36 512.63 502.36 512.63 502.34 512.56 502.34 512.56 502.31 512.51 502.31 512.51 502.29 512.46 502.29 512.46 502.26 512.41 502.26 512.41 502.24 512.37 502.24 512.37 502.22 512.32 502.22 512.32 502.19 512.25 502.19 512.25 502.17 512.2 502.17 512.2 502.15 512.15 502.15 512.15 502.12 512.1 502.12 512.1 502.1 512.06 502.1 512.06 502.07 512.01 502.07 512.01 502.05 511.96 502.05 511.96 502.03 511.89 502.03 511.89 502 511.84 502 511.84 501.98 511.8 501.98 511.8 501.96 511.75 501.96 511.75 501.93 511.7 501.93 511.7 501.91 511.65 501.91 511.65 501.88 511.61 501.88 511.61 501.86 511.56 501.86 511.56 501.84 511.49 501.84 511.49 501.81 511.44 501.81 511.44 501.79 511.39 501.79 511.39 501.77 511.34 501.77 511.34 501.74 511.3 501.74 511.3 501.72 511.25 501.72 511.25 501.69 511.2 501.69 511.2 501.67 511.15 501.67 511.15 501.65 511.11 501.65 511.11 501.62 511.03 501.62 511.03 501.6 510.99 501.6 510.99 501.57 510.94 501.57 510.94 501.55 510.89 501.55 510.89 501.53 510.84 501.53 510.84 501.5 510.8 501.5 510.8 501.48 510.75 501.48 510.75 501.46 510.68 501.46 510.68 501.43 510.63 501.43 510.63 501.41 510.56 501.41 510.56 501.38 510.51 501.38 510.51 501.36 510.46 501.36 510.46 501.34 510.39 501.34 510.39 501.31 510.34 501.31 510.34 501.29 510.3 501.29 510.3 501.27 510.25 501.27 510.25 501.24 510.2 501.24 510.2 501.22 510.15 501.22 510.15 501.19 510.11 501.19 510.11 501.17 510.06 501.17 510.06 501.15 510.01 501.15 510.01 501.12 509.96 501.12 509.96 501.1 509.92 501.1 509.92 501.08 509.87 501.08 509.87 501.05 509.82 501.05 509.82 501.03 509.8 501.03 509.8 501 509.75 501 509.75 500.98 509.7 500.98 509.7 500.96 509.68 500.96 509.68 500.93 509.63 500.93 509.63 500.91 509.61 500.91 509.61 500.89 509.56 500.89 509.56 500.86 509.54 500.86 509.54 500.84 509.49 500.84 509.49 500.81 509.46 500.81 509.46 500.79 509.42 500.79 509.42 500.77 509.39 500.77 509.39 500.74 509.34 500.74 509.34 500.72 509.32 500.72 509.32 500.69 509.3 500.69 509.3 500.67 509.27 500.67 509.27 500.65 509.23 500.65 509.23 500.62 509.2 500.62 509.2 500.6 509.18 500.6 509.18 500.58 509.15 500.58 509.15 500.55 509.13 500.55 509.13 500.53 509.11 500.53 509.11 500.5 509.06 500.5 509.06 500.48 509.04 500.48 509.04 500.46 509.01 500.46 509.01 500.43 508.99 500.43 508.99 500.41 508.96 500.41 508.96 500.39 508.94 500.39 508.94 500.36 508.92 500.36 508.92 500.34 508.89 500.34 508.89 500.29 508.87 500.29 508.87 500.27 508.85 500.27 508.85 500.24 508.82 500.24 508.82 500.22 508.8 500.22 508.8 500.2 508.77 500.2 508.77 500.15 508.75 500.15 508.75 500.13 508.73 500.13 508.73 500.1 508.7 500.1 508.7 500.05 508.68 500.05 508.68 500.03 508.65 500.03 508.65 499.98 508.63 499.98 508.63 499.96 508.61 499.96 508.61 499.91 508.58 499.91 508.58 499.86 508.56 499.86 508.56 499.82 508.54 499.82 508.54 499.77 508.51 499.77 508.51 499.7 508.49 499.7 508.49 499.63 508.46 499.63 508.46 499.53 508.44 499.53 508.44 499.41 508.42 499.41 508.42 499.17 508.44 499.17 508.44 499.06 508.46 499.06 508.46 498.96 508.49 498.96 508.49 498.89 508.51 498.89 508.51 498.84 508.54 498.84 508.54 498.79 508.56 498.79 508.56 498.75 508.58 498.75 508.58 498.7 508.61 498.7 508.61 498.67 508.63 498.67 508.63 498.63 508.65 498.63 508.65 498.6 508.68 498.6 508.68 498.56 508.7 498.56 508.7 498.53 508.73 498.53 508.73 498.51 508.75 498.51 508.75 498.48 508.77 498.48 508.77 498.46 508.8 498.46 508.8 498.44 508.82 498.44 508.82 498.41 508.85 498.41 508.85 498.39 508.87 498.39 508.87 498.37 508.89 498.37 508.89 498.34 508.92 498.34 508.92 498.32 508.94 498.32 508.94 498.29 508.96 498.29 508.96 498.27 508.99 498.27 508.99 498.25 509.01 498.25 509.01 498.22 509.06 498.22 509.06 498.2 509.08 498.2 509.08 498.18 509.11 498.18 509.11 498.15 509.15 498.15 509.15 498.13 509.18 498.13 509.18 498.1 509.23 498.1 509.23 498.08 509.25 498.08 509.25 498.06 509.3 498.06 509.3 498.03 509.32 498.03 509.32 498.01 509.37 498.01 509.37 497.99 509.42 497.99 509.42 497.96 509.46 497.96 509.46 497.94 509.49 497.94 509.49 497.91 509.54 497.91 509.54 497.89 509.61 497.89 509.61 497.87 509.65 497.87 509.65 497.84 509.7 497.84 509.7 497.82 509.75 497.82 509.75 497.79 509.82 497.79 509.82 497.77 509.87 497.77 509.87 497.75 509.94 497.75 509.94 497.72 509.99 497.72 509.99 497.7 510.06 497.7 510.06 497.68 510.11 497.68 510.11 497.65 510.18 497.65 510.18 497.63 510.23 497.63 510.23 497.6 510.3 497.6 510.3 497.58 510.37 497.58 510.37 497.56 510.42 497.56 510.42 497.53 510.49 497.53 510.49 497.51 510.53 497.51 510.53 497.49 510.61 497.49 510.61 497.46 510.68 497.46 510.68 497.44 510.72 497.44 510.72 497.41 510.8 497.41 510.8 497.39 510.87 497.39 510.87 497.37 510.94 497.37 510.94 497.34 510.99 497.34 510.99 497.32 511.06 497.32 511.06 497.3 511.13 497.3 511.13 497.27 511.2 497.27 511.2 497.25 511.25 497.25 511.25 497.22 511.32 497.22 511.32 497.2 511.39 497.2 511.39 497.18 511.46 497.18 511.46 497.15 511.51 497.15 511.51 497.13 511.58 497.13 511.58 497.11 511.65 497.11 511.65 497.08 511.72 497.08 511.72 497.06 511.77 497.06 511.77 497.03 511.84 497.03 511.84 497.01 511.91 497.01 511.91 496.99 511.99 496.99 511.99 496.96 512.06 496.96 512.06 496.94 512.1 496.94 512.1 496.91 512.18 496.91 512.18 496.89 512.25 496.89 512.25 496.87 512.32 496.87 512.32 496.84 512.39 496.84 512.39 496.82 512.46 496.82 512.46 496.8 512.51 496.8 512.51 496.77 512.58 496.77 512.58 496.75 512.65 496.75 512.65 496.72 512.72 496.72 512.72 496.7 512.79 496.7 512.79 496.68 512.87 496.68 512.87 496.65 512.91 496.65 512.91 496.63 512.99 496.63 512.99 496.61 513.06 496.61 513.06 496.58 513.13 496.58 513.13 496.56 513.2 496.56 513.2 496.53 513.27 496.53 513.27 496.51 513.34 496.51 513.34 496.49 513.41 496.49 513.41 496.46 513.46 496.46 513.46 496.44 513.53 496.44 513.53 496.42 513.6 496.42 513.6 496.39 513.67 496.39 513.67 496.37 513.75 496.37 513.75 496.34 513.82 496.34 513.82 496.32 513.89 496.32 513.89 496.3 513.96 496.3 513.96 496.27 514.03 496.27 514.03 496.25 514.08 496.25 514.08 496.23 514.15 496.23 514.15 496.2 514.22 496.2 514.22 496.18 514.29 496.18 514.29 496.15 514.37 496.15 514.37 496.13 514.44 496.13 514.44 496.11 514.51 496.11 514.51 496.08 514.58 496.08 514.58 496.06 514.65 496.06 514.65 496.04 514.7 496.04 514.7 496.01 514.77 496.01 514.77 495.99 514.84 495.99 514.84 495.96 514.91 495.96 514.91 495.94 514.98 495.94" style="fill:#fff;fill-rule:evenodd"/><path d="M602.44,478c-6.1,0-6.87,0-9.26.14a16.34,16.34,0,0,0-5.45,1,11.44,11.44,0,0,0-6.57,6.55,16.37,16.37,0,0,0-1,5.45c-.11,2.39-.13,3.15-.13,9.24s0,6.85.13,9.24a16.36,16.36,0,0,0,1,5.44,11.49,11.49,0,0,0,6.57,6.56,16.6,16.6,0,0,0,5.45,1c2.39.11,3.16.13,9.26.13s6.87,0,9.26-.13a16.72,16.72,0,0,0,5.46-1,11,11,0,0,0,4-2.59,11.14,11.14,0,0,0,2.6-4,16.64,16.64,0,0,0,1-5.44c.11-2.39.14-3.16.14-9.24s0-6.85-.14-9.24a16.65,16.65,0,0,0-1-5.45,11.14,11.14,0,0,0-2.6-4,11,11,0,0,0-4-2.58,16.46,16.46,0,0,0-5.46-1c-2.39-.11-3.16-.14-9.26-.14" style="fill:#fff;fill-rule:evenodd"/><path d="M602.44,507.92a7.47,7.47,0,1,1,7.49-7.47,7.49,7.49,0,0,1-7.49,7.47m0-19A11.51,11.51,0,1,0,614,500.45a11.52,11.52,0,0,0-11.54-11.51" style="fill:#f0817e"/><path d="M617.13,488.48a2.7,2.7,0,1,1-2.7-2.69,2.69,2.69,0,0,1,2.7,2.69" style="fill:#f0817e;fill-rule:evenodd"/><path d="M686.48,525a24.5,24.5,0,1,0-24.5-24.5A24.5,24.5,0,0,0,686.48,525Z" style="fill:#575a5b;fill-rule:evenodd"/><path d="M686.26,483.2h0a.89.89,0,0,1,.89.89v17a.89.89,0,0,1-.89.89h0a.89.89,0,0,1-.9-.89v-17A.89.89,0,0,1,686.26,483.2Z" style="fill:#b1b6be;fill-rule:evenodd"/><path d="M685.48,500.91h0a.89.89,0,0,1,1.22-.33l10.08,5.82a.89.89,0,0,1,.33,1.22h0a.9.9,0,0,1-1.22.33l-10.08-5.82A.9.9,0,0,1,685.48,500.91Z" style="fill:#b1b6be;fill-rule:evenodd"/><path d="M747,416a23.5,23.5,0,1,1,24.84,23.91,2.49,2.49,0,0,1-.47,0H749.88a2.9,2.9,0,0,1-2.9-2.9V416Z" style="fill:#9ccc98;fill-rule:evenodd"/><path d="M767.11,411.34h0c.47-.78-.7-2.95-2.6-4.86l2.68,2.69a10.64,10.64,0,0,0-5-2.46h0c-3.14,3.12-1.68,9.59,3.21,14.49s11.36,6.34,14.5,3.21h0c.54-.86-.56-3.09-2.47-5l2.69,2.69a11.6,11.6,0,0,0-4.86-2.61h0a3.25,3.25,0,0,0-1,3c0,.09-3.08-.36-6.47-3.65s-3.74-6.47-3.65-6.47A3.29,3.29,0,0,0,767.11,411.34Z" style="fill:#fff;fill-rule:evenodd"/><circle cx="769.48" cy="500.46" r="24.5" style="fill:#f0817e"/><polygon points="762.72 493.89 762.72 493.84 762.77 493.84 762.77 493.79 762.82 493.79 762.82 493.69 762.87 493.69 762.87 493.64 762.92 493.64 762.92 493.54 762.97 493.54 762.97 493.49 763.02 493.49 763.02 493.44 763.07 493.44 763.07 493.39 763.12 493.39 763.12 493.29 763.16 493.29 763.16 493.24 763.21 493.24 763.21 493.19 763.26 493.19 763.26 493.14 763.31 493.14 763.31 493.09 763.36 493.09 763.36 493.04 763.41 493.04 763.41 492.99 763.46 492.99 763.46 492.89 763.51 492.89 763.51 492.85 763.56 492.85 763.56 492.8 763.61 492.8 763.61 492.75 763.66 492.75 763.66 492.69 763.71 492.69 763.71 492.64 763.76 492.64 763.76 492.6 763.8 492.6 763.8 492.55 763.85 492.55 763.85 492.5 763.95 492.5 763.95 492.44 764 492.44 764 492.4 764.05 492.4 764.05 492.35 764.1 492.35 764.1 492.3 764.15 492.3 764.15 492.25 764.2 492.25 764.2 492.2 764.25 492.2 764.25 492.15 764.35 492.15 764.35 492.1 764.4 492.1 764.4 492.05 764.45 492.05 764.45 492 764.54 492 764.54 491.95 764.59 491.95 764.59 491.9 764.64 491.9 764.64 491.85 764.74 491.85 764.74 491.8 764.79 491.8 764.79 491.75 764.89 491.75 764.89 491.7 764.94 491.7 764.94 491.65 765.04 491.65 765.04 491.6 765.09 491.6 765.09 491.55 765.19 491.55 765.19 491.5 765.24 491.5 765.24 491.45 765.33 491.45 765.33 491.4 765.43 491.4 765.43 491.35 765.53 491.35 765.53 491.3 765.58 491.3 765.58 491.25 765.68 491.25 765.68 491.2 765.78 491.2 765.78 491.15 765.88 491.15 765.88 491.1 765.98 491.1 765.98 491.05 766.07 491.05 766.07 491 766.22 491 766.22 490.95 766.32 490.95 766.32 490.9 766.42 490.9 766.42 490.85 766.57 490.85 766.57 490.8 766.67 490.8 766.67 490.75 766.81 490.75 766.81 490.7 766.96 490.7 766.96 490.65 767.11 490.65 767.11 490.6 767.26 490.6 767.26 490.55 767.41 490.55 767.41 490.5 767.6 490.5 767.6 490.45 767.8 490.45 767.8 490.4 768 490.4 768 490.35 768.24 490.35 768.24 490.3 768.49 490.3 768.49 490.25 768.79 490.25 768.79 490.2 769.23 490.2 769.23 490.15 769.87 490.15 769.87 490.1 770.91 490.1 770.91 490.15 771.5 490.15 771.5 490.2 771.89 490.2 771.89 490.25 772.19 490.25 772.19 490.3 772.39 490.3 772.39 490.35 772.63 490.35 772.63 490.4 772.83 490.4 772.83 490.45 772.98 490.45 772.98 490.5 773.13 490.5 773.13 490.55 773.32 490.55 773.32 490.6 773.42 490.6 773.42 490.65 773.57 490.65 773.57 490.7 773.72 490.7 773.72 490.75 773.82 490.75 773.82 490.8 773.97 490.8 773.97 490.85 774.06 490.85 774.06 490.9 774.16 490.9 774.16 490.95 774.26 490.95 774.26 491 774.36 491 774.36 491.05 774.46 491.05 774.46 491.1 774.56 491.1 774.56 491.15 774.66 491.15 774.66 491.2 774.75 491.2 774.75 491.25 774.8 491.25 774.8 491.3 774.9 491.3 774.9 491.35 775 491.35 775 491.4 775.05 491.4 775.05 491.45 775.15 491.45 775.15 491.5 775.2 491.5 775.2 491.55 775.3 491.55 775.3 491.6 775.35 491.6 775.35 491.65 775.45 491.65 775.45 491.7 775.49 491.7 775.49 491.75 775.54 491.75 775.54 491.8 775.64 491.8 775.64 491.85 775.69 491.85 775.69 491.9 775.74 491.9 775.74 491.95 775.84 491.95 775.84 492 775.89 492 775.89 492.05 775.94 492.05 775.94 492.1 775.99 492.1 775.99 492.15 776.04 492.15 776.04 492.2 776.09 492.2 776.09 492.25 776.14 492.25 776.14 492.3 776.23 492.3 776.23 492.35 776.28 492.35 776.28 492.4 776.33 492.4 776.33 492.44 776.38 492.44 776.38 492.5 776.43 492.5 776.43 492.55 776.48 492.55 776.48 492.6 776.53 492.6 776.53 492.69 776.58 492.69 776.58 492.75 776.63 492.75 776.63 492.8 776.68 492.8 776.68 492.85 776.73 492.85 776.73 492.89 776.78 492.89 776.78 492.94 776.83 492.94 776.83 492.99 776.88 492.99 776.88 493.09 776.92 493.09 776.92 493.14 776.97 493.14 776.97 493.19 777.02 493.19 777.02 493.24 777.07 493.24 777.07 493.34 777.12 493.34 777.12 493.39 777.17 493.39 777.17 493.49 777.22 493.49 777.22 493.54 777.27 493.54 777.27 493.64 777.32 493.64 777.32 493.69 777.37 493.69 777.37 493.79 777.42 493.79 777.42 493.84 777.47 493.84 777.47 493.94 777.52 493.94 777.52 494.04 777.57 494.04 777.57 494.09 777.62 494.09 777.62 494.19 777.66 494.19 777.66 494.29 777.71 494.29 777.71 494.39 777.76 494.39 777.76 494.49 777.81 494.49 777.81 494.59 777.86 494.59 777.86 494.69 777.91 494.69 777.91 494.84 777.96 494.84 777.96 494.94 778.01 494.94 778.01 495.09 778.06 495.09 778.06 495.24 778.11 495.24 778.11 495.39 778.16 495.39 778.16 495.54 778.21 495.54 778.21 495.69 778.26 495.69 778.26 495.89 778.31 495.89 778.31 496.14 778.36 496.14 778.36 496.39 778.4 496.39 778.4 496.74 778.45 496.74 778.45 498.48 778.4 498.48 778.4 498.98 778.36 498.98 778.36 499.33 778.31 499.33 778.31 499.63 778.26 499.63 778.26 499.93 778.21 499.93 778.21 500.13 778.16 500.13 778.16 500.38 778.11 500.38 778.11 500.58 778.06 500.58 778.06 500.73 778.01 500.73 778.01 500.93 777.96 500.93 777.96 501.08 777.91 501.08 777.91 501.23 777.86 501.23 777.86 501.38 777.81 501.38 777.81 501.48 777.76 501.48 777.76 501.63 777.71 501.63 777.71 501.77 777.66 501.77 777.66 501.87 777.62 501.87 777.62 501.97 777.57 501.97 777.57 502.12 777.52 502.12 777.52 502.22 777.47 502.22 777.47 502.32 777.42 502.32 777.42 502.42 777.37 502.42 777.37 502.52 777.32 502.52 777.32 502.62 777.27 502.62 777.27 502.72 777.22 502.72 777.22 502.77 777.17 502.77 777.17 502.87 777.12 502.87 777.12 502.97 777.07 502.97 777.07 503.07 777.02 503.07 777.02 503.12 776.97 503.12 776.97 503.22 776.92 503.22 776.92 503.27 776.88 503.27 776.88 503.37 776.83 503.37 776.83 503.42 776.78 503.42 776.78 503.52 776.73 503.52 776.73 503.57 776.68 503.57 776.68 503.62 776.63 503.62 776.63 503.72 776.58 503.72 776.58 503.77 776.53 503.77 776.53 503.82 776.48 503.82 776.48 503.87 776.43 503.87 776.43 503.97 776.38 503.97 776.38 504.02 776.33 504.02 776.33 504.07 776.28 504.07 776.28 504.12 776.23 504.12 776.23 504.17 776.18 504.17 776.18 504.22 776.14 504.22 776.14 504.32 776.09 504.32 776.09 504.37 776.04 504.37 776.04 504.42 775.99 504.42 775.99 504.47 775.94 504.47 775.94 504.52 775.89 504.52 775.89 504.57 775.79 504.57 775.79 504.62 775.74 504.62 775.74 504.67 775.69 504.67 775.69 504.72 775.64 504.72 775.64 504.77 775.59 504.77 775.59 504.82 775.54 504.82 775.54 504.87 775.49 504.87 775.49 504.92 775.4 504.92 775.4 504.97 775.35 504.97 775.35 505.02 775.3 505.02 775.3 505.07 775.2 505.07 775.2 505.12 775.15 505.12 775.15 505.17 775.1 505.17 775.1 505.22 775 505.22 775 505.27 774.95 505.27 774.95 505.32 774.85 505.32 774.85 505.37 774.75 505.37 774.75 505.42 774.71 505.42 774.71 505.47 774.61 505.47 774.61 505.52 774.51 505.52 774.51 505.57 774.41 505.57 774.41 505.62 774.31 505.62 774.31 505.67 774.21 505.67 774.21 505.72 774.11 505.72 774.11 505.77 774.01 505.77 774.01 505.82 773.87 505.82 773.87 505.87 773.77 505.87 773.77 505.92 773.62 505.92 773.62 505.96 773.47 505.96 773.47 506.01 773.27 506.01 773.27 506.06 773.13 506.06 773.13 506.12 772.88 506.12 772.88 506.17 772.63 506.17 772.63 506.21 772.24 506.21 772.24 506.26 771.15 506.26 771.15 506.21 770.86 506.21 770.86 506.17 770.61 506.17 770.61 506.12 770.46 506.12 770.46 506.06 770.32 506.06 770.32 506.01 770.17 506.01 770.17 505.96 770.07 505.96 770.07 505.92 769.92 505.92 769.92 505.87 769.82 505.87 769.82 505.82 769.72 505.82 769.72 505.77 769.63 505.77 769.63 505.72 769.58 505.72 769.58 505.67 769.48 505.67 769.48 505.62 769.43 505.62 769.43 505.57 769.33 505.57 769.33 505.52 769.28 505.52 769.28 505.47 769.18 505.47 769.18 505.42 769.13 505.42 769.13 505.37 769.08 505.37 769.08 505.32 769.03 505.32 769.03 505.27 768.98 505.27 768.98 505.22 768.93 505.22 768.93 505.17 768.88 505.17 768.88 505.12 768.84 505.12 768.84 505.07 768.79 505.07 768.79 505.02 768.74 505.02 768.74 504.97 768.69 504.97 768.69 504.87 768.64 504.87 768.64 504.82 768.59 504.82 768.59 504.72 768.54 504.72 768.54 504.67 768.49 504.67 768.49 504.77 768.44 504.77 768.44 504.97 768.39 504.97 768.39 505.12 768.34 505.12 768.34 505.32 768.29 505.32 768.29 505.52 768.24 505.52 768.24 505.72 768.2 505.72 768.2 505.92 768.14 505.92 768.14 506.12 768.1 506.12 768.1 506.31 768.05 506.31 768.05 506.51 768 506.51 768 506.71 767.95 506.71 767.95 506.91 767.9 506.91 767.9 507.11 767.85 507.11 767.85 507.31 767.8 507.31 767.8 507.51 767.75 507.51 767.75 507.66 767.7 507.66 767.7 507.86 767.65 507.86 767.65 508.06 767.6 508.06 767.6 508.26 767.55 508.26 767.55 508.41 767.5 508.41 767.5 508.56 767.46 508.56 767.46 508.71 767.41 508.71 767.41 508.86 767.36 508.86 767.36 508.96 767.31 508.96 767.31 509.11 767.26 509.11 767.26 509.21 767.21 509.21 767.21 509.36 767.16 509.36 767.16 509.46 767.11 509.46 767.11 509.56 767.06 509.56 767.06 509.66 767.01 509.66 767.01 509.76 766.96 509.76 766.96 509.86 766.91 509.86 766.91 509.96 766.86 509.96 766.86 510.06 766.81 510.06 766.81 510.16 766.76 510.16 766.76 510.26 766.72 510.26 766.72 510.31 766.67 510.31 766.67 510.4 766.62 510.4 766.62 510.5 766.57 510.5 766.57 510.61 766.52 510.61 766.52 510.65 766.47 510.65 766.47 510.75 766.42 510.75 766.42 510.85 766.37 510.85 766.37 510.9 766.32 510.9 766.32 511 766.27 511 766.27 511.05 766.22 511.05 766.22 511.15 766.17 511.15 766.17 511.2 766.12 511.2 766.12 511.3 766.07 511.3 766.07 511.35 766.02 511.35 766.02 511.45 765.98 511.45 765.98 511.5 765.93 511.5 765.93 511.6 765.88 511.6 765.88 511.65 765.83 511.65 765.83 511.75 765.78 511.75 765.78 511.8 765.73 511.8 765.73 511.85 765.68 511.85 765.68 511.95 765.63 511.95 765.63 512 765.58 512 765.58 512.05 765.53 512.05 765.53 512.15 765.48 512.15 765.48 512.2 765.43 512.2 765.43 512.25 765.38 512.25 765.38 512.35 765.33 512.35 765.33 512.4 765.28 512.4 765.28 512.45 765.24 512.45 765.24 512.5 765.14 512.5 765.14 512.45 765.04 512.45 765.04 512.2 764.99 512.2 764.99 511.85 764.94 511.85 764.94 511.4 764.89 511.4 764.89 510.75 764.84 510.75 764.84 508.96 764.89 508.96 764.89 508.41 764.94 508.41 764.94 508.06 764.99 508.06 764.99 507.76 765.04 507.76 765.04 507.56 765.09 507.56 765.09 507.31 765.14 507.31 765.14 507.11 765.19 507.11 765.19 506.91 765.24 506.91 765.24 506.71 765.28 506.71 765.28 506.46 765.33 506.46 765.33 506.26 765.38 506.26 765.38 506.06 765.43 506.06 765.43 505.87 765.48 505.87 765.48 505.62 765.53 505.62 765.53 505.42 765.58 505.42 765.58 505.22 765.63 505.22 765.63 505.02 765.68 505.02 765.68 504.77 765.73 504.77 765.73 504.57 765.78 504.57 765.78 504.37 765.83 504.37 765.83 504.17 765.88 504.17 765.88 503.92 765.93 503.92 765.93 503.72 765.98 503.72 765.98 503.52 766.02 503.52 766.02 503.32 766.07 503.32 766.07 503.12 766.12 503.12 766.12 502.87 766.17 502.87 766.17 502.67 766.22 502.67 766.22 502.47 766.27 502.47 766.27 502.27 766.32 502.27 766.32 502.02 766.37 502.02 766.37 501.82 766.42 501.82 766.42 501.63 766.47 501.63 766.47 501.43 766.52 501.43 766.52 501.18 766.57 501.18 766.57 500.98 766.62 500.98 766.62 500.78 766.67 500.78 766.67 500.58 766.72 500.58 766.72 500.38 766.67 500.38 766.67 500.28 766.62 500.28 766.62 500.13 766.57 500.13 766.57 499.98 766.52 499.98 766.52 499.83 766.47 499.83 766.47 499.63 766.42 499.63 766.42 499.38 766.37 499.38 766.37 499.08 766.32 499.08 766.32 497.78 766.37 497.78 766.37 497.53 766.42 497.53 766.42 497.29 766.47 497.29 766.47 497.13 766.52 497.13 766.52 496.99 766.57 496.99 766.57 496.84 766.62 496.84 766.62 496.74 766.67 496.74 766.67 496.64 766.72 496.64 766.72 496.54 766.76 496.54 766.76 496.44 766.81 496.44 766.81 496.34 766.86 496.34 766.86 496.24 766.91 496.24 766.91 496.19 766.96 496.19 766.96 496.09 767.01 496.09 767.01 496.04 767.06 496.04 767.06 495.99 767.11 495.99 767.11 495.94 767.16 495.94 767.16 495.84 767.21 495.84 767.21 495.79 767.26 495.79 767.26 495.74 767.31 495.74 767.31 495.69 767.36 495.69 767.36 495.64 767.46 495.64 767.46 495.59 767.5 495.59 767.5 495.54 767.55 495.54 767.55 495.49 767.65 495.49 767.65 495.44 767.7 495.44 767.7 495.39 767.8 495.39 767.8 495.34 767.9 495.34 767.9 495.29 768 495.29 768 495.24 768.14 495.24 768.14 495.19 768.29 495.19 768.29 495.14 768.64 495.14 768.64 495.09 768.84 495.09 768.84 495.14 769.18 495.14 769.18 495.19 769.33 495.19 769.33 495.24 769.48 495.24 769.48 495.29 769.58 495.29 769.58 495.34 769.67 495.34 769.67 495.39 769.72 495.39 769.72 495.44 769.77 495.44 769.77 495.49 769.87 495.49 769.87 495.54 769.92 495.54 769.92 495.59 769.97 495.59 769.97 495.69 770.02 495.69 770.02 495.74 770.07 495.74 770.07 495.79 770.12 495.79 770.12 495.89 770.17 495.89 770.17 495.99 770.22 495.99 770.22 496.09 770.27 496.09 770.27 496.19 770.32 496.19 770.32 496.34 770.37 496.34 770.37 496.59 770.41 496.59 770.41 497.53 770.37 497.53 770.37 497.83 770.32 497.83 770.32 498.08 770.27 498.08 770.27 498.28 770.22 498.28 770.22 498.48 770.17 498.48 770.17 498.63 770.12 498.63 770.12 498.83 770.07 498.83 770.07 498.98 770.02 498.98 770.02 499.18 769.97 499.18 769.97 499.33 769.92 499.33 769.92 499.48 769.87 499.48 769.87 499.68 769.82 499.68 769.82 499.83 769.77 499.83 769.77 499.98 769.72 499.98 769.72 500.13 769.67 500.13 769.67 500.33 769.63 500.33 769.63 500.48 769.58 500.48 769.58 500.63 769.53 500.63 769.53 500.83 769.48 500.83 769.48 500.98 769.43 500.98 769.43 501.18 769.38 501.18 769.38 501.38 769.33 501.38 769.33 501.57 769.28 501.57 769.28 501.87 769.23 501.87 769.23 502.32 769.28 502.32 769.28 502.62 769.33 502.62 769.33 502.77 769.38 502.77 769.38 502.87 769.43 502.87 769.43 503.02 769.48 503.02 769.48 503.07 769.53 503.07 769.53 503.17 769.58 503.17 769.58 503.22 769.63 503.22 769.63 503.32 769.67 503.32 769.67 503.37 769.72 503.37 769.72 503.42 769.77 503.42 769.77 503.47 769.82 503.47 769.82 503.52 769.87 503.52 769.87 503.57 769.92 503.57 769.92 503.62 769.97 503.62 769.97 503.67 770.07 503.67 770.07 503.72 770.12 503.72 770.12 503.77 770.22 503.77 770.22 503.82 770.27 503.82 770.27 503.87 770.37 503.87 770.37 503.92 770.51 503.92 770.51 503.97 770.66 503.97 770.66 504.02 770.81 504.02 770.81 504.07 771.2 504.07 771.2 504.12 771.45 504.12 771.45 504.07 771.89 504.07 771.89 504.02 772.09 504.02 772.09 503.97 772.24 503.97 772.24 503.92 772.39 503.92 772.39 503.87 772.49 503.87 772.49 503.82 772.58 503.82 772.58 503.77 772.68 503.77 772.68 503.72 772.78 503.72 772.78 503.67 772.88 503.67 772.88 503.62 772.93 503.62 772.93 503.57 773.03 503.57 773.03 503.52 773.08 503.52 773.08 503.47 773.13 503.47 773.13 503.42 773.23 503.42 773.23 503.37 773.27 503.37 773.27 503.32 773.32 503.32 773.32 503.27 773.37 503.27 773.37 503.22 773.42 503.22 773.42 503.17 773.47 503.17 773.47 503.12 773.52 503.12 773.52 503.07 773.57 503.07 773.57 503.02 773.62 503.02 773.62 502.97 773.67 502.97 773.67 502.92 773.72 502.92 773.72 502.87 773.77 502.87 773.77 502.77 773.82 502.77 773.82 502.72 773.87 502.72 773.87 502.67 773.92 502.67 773.92 502.62 773.97 502.62 773.97 502.52 774.01 502.52 774.01 502.47 774.06 502.47 774.06 502.37 774.11 502.37 774.11 502.32 774.16 502.32 774.16 502.22 774.21 502.22 774.21 502.12 774.26 502.12 774.26 502.07 774.31 502.07 774.31 501.97 774.36 501.97 774.36 501.87 774.41 501.87 774.41 501.77 774.46 501.77 774.46 501.68 774.51 501.68 774.51 501.57 774.56 501.57 774.56 501.48 774.61 501.48 774.61 501.38 774.66 501.38 774.66 501.23 774.71 501.23 774.71 501.13 774.75 501.13 774.75 500.98 774.8 500.98 774.8 500.83 774.85 500.83 774.85 500.73 774.9 500.73 774.9 500.53 774.95 500.53 774.95 500.38 775 500.38 775 500.23 775.05 500.23 775.05 500.03 775.1 500.03 775.1 499.83 775.15 499.83 775.15 499.58 775.2 499.58 775.2 499.33 775.25 499.33 775.25 499.03 775.3 499.03 775.3 498.63 775.35 498.63 775.35 498.08 775.4 498.08 775.4 496.59 775.35 496.59 775.35 496.24 775.3 496.24 775.3 495.99 775.25 495.99 775.25 495.79 775.2 495.79 775.2 495.59 775.15 495.59 775.15 495.44 775.1 495.44 775.1 495.29 775.05 495.29 775.05 495.19 775 495.19 775 495.04 774.95 495.04 774.95 494.94 774.9 494.94 774.9 494.84 774.85 494.84 774.85 494.74 774.8 494.74 774.8 494.64 774.75 494.64 774.75 494.59 774.71 494.59 774.71 494.49 774.66 494.49 774.66 494.39 774.61 494.39 774.61 494.34 774.56 494.34 774.56 494.24 774.51 494.24 774.51 494.19 774.46 494.19 774.46 494.14 774.41 494.14 774.41 494.04 774.36 494.04 774.36 493.99 774.31 493.99 774.31 493.94 774.26 493.94 774.26 493.89 774.21 493.89 774.21 493.84 774.16 493.84 774.16 493.79 774.11 493.79 774.11 493.74 774.06 493.74 774.06 493.69 774.01 493.69 774.01 493.64 773.97 493.64 773.97 493.59 773.92 493.59 773.92 493.54 773.87 493.54 773.87 493.49 773.82 493.49 773.82 493.44 773.77 493.44 773.77 493.39 773.67 493.39 773.67 493.34 773.62 493.34 773.62 493.29 773.57 493.29 773.57 493.24 773.47 493.24 773.47 493.19 773.42 493.19 773.42 493.14 773.32 493.14 773.32 493.09 773.27 493.09 773.27 493.04 773.18 493.04 773.18 492.99 773.08 492.99 773.08 492.94 772.98 492.94 772.98 492.89 772.88 492.89 772.88 492.85 772.78 492.85 772.78 492.8 772.68 492.8 772.68 492.75 772.58 492.75 772.58 492.69 772.44 492.69 772.44 492.64 772.34 492.64 772.34 492.6 772.19 492.6 772.19 492.55 771.99 492.55 771.99 492.5 771.85 492.5 771.85 492.44 771.65 492.44 771.65 492.4 771.35 492.4 771.35 492.35 771.05 492.35 771.05 492.3 770.46 492.3 770.46 492.25 769.67 492.25 769.67 492.3 769.13 492.3 769.13 492.35 768.84 492.35 768.84 492.4 768.54 492.4 768.54 492.44 768.34 492.44 768.34 492.5 768.14 492.5 768.14 492.55 768 492.55 768 492.6 767.85 492.6 767.85 492.64 767.7 492.64 767.7 492.69 767.55 492.69 767.55 492.75 767.46 492.75 767.46 492.8 767.36 492.8 767.36 492.85 767.21 492.85 767.21 492.89 767.11 492.89 767.11 492.94 767.01 492.94 767.01 492.99 766.91 492.99 766.91 493.04 766.81 493.04 766.81 493.09 766.76 493.09 766.76 493.14 766.67 493.14 766.67 493.19 766.57 493.19 766.57 493.24 766.52 493.24 766.52 493.29 766.42 493.29 766.42 493.34 766.37 493.34 766.37 493.39 766.27 493.39 766.27 493.44 766.22 493.44 766.22 493.49 766.17 493.49 766.17 493.54 766.07 493.54 766.07 493.59 766.02 493.59 766.02 493.64 765.98 493.64 765.98 493.69 765.93 493.69 765.93 493.74 765.83 493.74 765.83 493.79 765.78 493.79 765.78 493.84 765.73 493.84 765.73 493.89 765.68 493.89 765.68 493.94 765.63 493.94 765.63 493.99 765.58 493.99 765.58 494.04 765.53 494.04 765.53 494.09 765.48 494.09 765.48 494.14 765.43 494.14 765.43 494.19 765.38 494.19 765.38 494.24 765.33 494.24 765.33 494.29 765.28 494.29 765.28 494.34 765.24 494.34 765.24 494.44 765.19 494.44 765.19 494.49 765.14 494.49 765.14 494.54 765.09 494.54 765.09 494.59 765.04 494.59 765.04 494.69 764.99 494.69 764.99 494.74 764.94 494.74 764.94 494.79 764.89 494.79 764.89 494.89 764.84 494.89 764.84 494.94 764.79 494.94 764.79 495.04 764.74 495.04 764.74 495.09 764.69 495.09 764.69 495.19 764.64 495.19 764.64 495.29 764.59 495.29 764.59 495.34 764.54 495.34 764.54 495.44 764.5 495.44 764.5 495.54 764.45 495.54 764.45 495.64 764.4 495.64 764.4 495.74 764.35 495.74 764.35 495.84 764.3 495.84 764.3 495.99 764.25 495.99 764.25 496.09 764.2 496.09 764.2 496.24 764.15 496.24 764.15 496.34 764.1 496.34 764.1 496.54 764.05 496.54 764.05 496.69 764 496.69 764 496.88 763.95 496.88 763.95 497.08 763.9 497.08 763.9 497.33 763.85 497.33 763.85 497.68 763.8 497.68 763.8 499.18 763.85 499.18 763.85 499.43 763.9 499.43 763.9 499.68 763.95 499.68 763.95 499.83 764 499.83 764 499.98 764.05 499.98 764.05 500.08 764.1 500.08 764.1 500.23 764.15 500.23 764.15 500.33 764.2 500.33 764.2 500.43 764.25 500.43 764.25 500.53 764.3 500.53 764.3 500.58 764.35 500.58 764.35 500.68 764.4 500.68 764.4 500.73 764.45 500.73 764.45 500.83 764.5 500.83 764.5 500.88 764.54 500.88 764.54 500.93 764.59 500.93 764.59 500.98 764.64 500.98 764.64 501.08 764.69 501.08 764.69 501.13 764.74 501.13 764.74 501.18 764.79 501.18 764.79 501.28 764.84 501.28 764.84 501.63 764.79 501.63 764.79 501.82 764.74 501.82 764.74 502.02 764.69 502.02 764.69 502.22 764.64 502.22 764.64 502.42 764.59 502.42 764.59 502.62 764.54 502.62 764.54 502.82 764.5 502.82 764.5 502.87 764.45 502.87 764.45 502.97 764.4 502.97 764.4 503.02 764.3 503.02 764.3 503.07 764 503.07 764 503.02 763.85 503.02 763.85 502.97 763.76 502.97 763.76 502.92 763.66 502.92 763.66 502.87 763.56 502.87 763.56 502.82 763.46 502.82 763.46 502.77 763.41 502.77 763.41 502.72 763.31 502.72 763.31 502.67 763.26 502.67 763.26 502.62 763.16 502.62 763.16 502.57 763.12 502.57 763.12 502.52 763.07 502.52 763.07 502.47 763.02 502.47 763.02 502.42 762.92 502.42 762.92 502.37 762.87 502.37 762.87 502.32 762.82 502.32 762.82 502.27 762.77 502.27 762.77 502.22 762.72 502.22 762.72 502.17 762.67 502.17 762.67 502.12 762.62 502.12 762.62 502.07 762.57 502.07 762.57 501.97 762.52 501.97 762.52 501.92 762.47 501.92 762.47 501.87 762.42 501.87 762.42 501.82 762.38 501.82 762.38 501.73 762.33 501.73 762.33 501.68 762.28 501.68 762.28 501.57 762.23 501.57 762.23 501.52 762.18 501.52 762.18 501.43 762.13 501.43 762.13 501.33 762.08 501.33 762.08 501.28 762.03 501.28 762.03 501.18 761.98 501.18 761.98 501.08 761.93 501.08 761.93 500.98 761.88 500.98 761.88 500.83 761.83 500.83 761.83 500.73 761.78 500.73 761.78 500.58 761.73 500.58 761.73 500.48 761.68 500.48 761.68 500.33 761.63 500.33 761.63 500.13 761.59 500.13 761.59 499.93 761.54 499.93 761.54 499.73 761.49 499.73 761.49 499.48 761.44 499.48 761.44 499.13 761.39 499.13 761.39 498.58 761.34 498.58 761.34 497.73 761.39 497.73 761.39 497.24 761.44 497.24 761.44 496.94 761.49 496.94 761.49 496.69 761.54 496.69 761.54 496.44 761.59 496.44 761.59 496.29 761.63 496.29 761.63 496.09 761.68 496.09 761.68 495.94 761.73 495.94 761.73 495.79 761.78 495.79 761.78 495.64 761.83 495.64 761.83 495.54 761.88 495.54 761.88 495.39 761.93 495.39 761.93 495.29 761.98 495.29 761.98 495.14 762.03 495.14 762.03 495.04 762.08 495.04 762.08 494.94 762.13 494.94 762.13 494.84 762.18 494.84 762.18 494.74 762.23 494.74 762.23 494.64 762.28 494.64 762.28 494.54 762.33 494.54 762.33 494.49 762.38 494.49 762.38 494.39 762.42 494.39 762.42 494.29 762.47 494.29 762.47 494.24 762.52 494.24 762.52 494.14 762.57 494.14 762.57 494.04 762.62 494.04 762.62 493.99 762.67 493.99 762.67 493.89 762.72 493.89" style="fill:#fff;fill-rule:evenodd"/><path d="M686.48,393c-.57,0-1.26,0-3.79,2.26,0,0-15.61,13.61-17.16,14.94a4.55,4.55,0,0,0-1.55,4v23.18a3,3,0,0,0,3,3H706a3,3,0,0,0,3-3V414.19a4.55,4.55,0,0,0-1.55-4c-1.55-1.33-17.17-14.94-17.17-14.94C687.74,393,687,393,686.48,393Z" style="fill:#f0817e;fill-rule:evenodd"/><path d="M708.94,413.09a4,4,0,0,0-1.51-2.93c-1.55-1.33-17.17-14.94-17.17-14.94C687.74,393,687,393,686.48,393h0c-.57,0-1.26,0-3.79,2.26,0,0-15.61,13.61-17.16,14.94a3.58,3.58,0,0,0,0,5.86c1.55,1.34,14.89,10.39,17.11,11.73,3,1.85,3.27,1.63,3.84,1.65s.86.2,3.84-1.65c2.22-1.34,15.56-10.39,17.11-11.73A4,4,0,0,0,708.94,413.09Z" style="fill:#ba6561;fill-rule:evenodd"/><path d="M705.13,417.72c-4.33,3.08-13.06,9-14.81,10-3,1.85-3.28,1.63-3.84,1.65s-.87.2-3.84-1.65c-1.76-1.06-10.49-6.95-14.81-10V399.18h37.3Z" style="fill:#fff;fill-rule:evenodd"/><g style="mask:url(#b)"><path d="M686.61,414.39v2.75H691a4.78,4.78,0,1,1-.14-4.21l3-1.58a8.22,8.22,0,1,0,.93,3.81v-.77Z" style="fill:#b1b6be;fill-rule:evenodd"/></g><path d="M627.93,421.05a3,3,0,0,0,0-4.18L605.06,394a3,3,0,0,0-4.17,0L578,416.87a3,3,0,0,0,0,4.18s17.57,17.62,18.22,18.23a2.09,2.09,0,0,0,1.78.58h9.89a2.36,2.36,0,0,0,1.79-.6Z" style="fill:#9ccc98;fill-rule:evenodd"/><path d="M602.76,404.34a1.48,1.48,0,0,0-1.06.47l-13.17,13.9a1.49,1.49,0,0,0,0,2.12l1.15,1.09,3.48-.14,12.51-13.19a1.5,1.5,0,0,0-.09-2.13l-1.8-1.7a1.52,1.52,0,0,0-1.06-.42Zm.88,10.54a1.52,1.52,0,0,0-1.06.47l-8.37,8.75a1.5,1.5,0,0,0,0,2.13l1.15,1,3.48-.1,7.71-8a1.49,1.49,0,0,0,0-2.12l-1.85-1.71a1.49,1.49,0,0,0-1.06-.42ZM602.8,427a1.5,1.5,0,0,0-1,.47L600,429.3a1.65,1.65,0,0,0,0,2.22l1,1.13,3.43.05,1.06-1.14a1.58,1.58,0,0,0,0-2.17l-1.71-1.89a1.37,1.37,0,0,0-1-.43Z" style="fill:#fff"/><path d="M497,397.92a3,3,0,0,1,3-3H539a3,3,0,0,1,3,3V437a3,3,0,0,1-3,3H499.94a3,3,0,0,1-3-3Z" style="fill:#9dbae3;fill-rule:evenodd"/><g style="mask:url(#c)"><rect x="496.09" y="431.97" width="47.07" height="9.77" style="fill:#010101;fill-opacity:0.2499999850988388"/></g><path d="M509.32,407.4a7.5,7.5,0,0,1,5-1.76c1.9,0,3.8,0,5.7,0,0,2,0,4,0,6h-3.68a1.71,1.71,0,0,0-1.72,1.32c0,1.34,0,2.68,0,4h5.4c-.13,1.94-.37,3.87-.65,5.79-1.59,0-3.18,0-4.77,0,0,5.72,0,11.44,0,17.16h-7.09c0-5.72,0-11.45,0-17.17-1.15,0-2.3,0-3.46,0,0-1.92,0-3.85,0-5.77h3.45c0-1.87,0-3.74,0-5.61A6,6,0,0,1,509.32,407.4Z" style="fill:#fff;fill-rule:evenodd"/><path d="M620.54,577.16,603,568.23l-17.58,8.93v16.39a2.63,2.63,0,0,0,1.32,2.15l14.94,7.59a3.21,3.21,0,0,0,2.63,0l14.83-7.64a2.64,2.64,0,0,0,1.31-2.15V577.22Z" style="fill:#728dbe;fill-rule:evenodd"/><path d="M595.22,564.33a3.25,3.25,0,0,0-2.63,0L577.7,571.9c-.73.37-.72,1,0,1.34l7.74,3.93,17.51-8.9Z" style="fill:#9dbae3;fill-rule:evenodd"/><path d="M595.22,589.9a3.25,3.25,0,0,1-2.63,0l-14.89-7.56c-.73-.37-.72-1,0-1.34l7.74-3.93L603,586Z" style="fill:#9dbae3;fill-rule:evenodd"/><path d="M610.73,564.33a3.28,3.28,0,0,1,2.64,0l14.88,7.57c.73.37.73,1,0,1.34l-7.73,3.93L603,568.27Z" style="fill:#9dbae3;fill-rule:evenodd"/><path d="M610.73,589.9a3.28,3.28,0,0,0,2.64,0l14.88-7.56c.73-.37.73-1,0-1.34l-7.73-3.93L603,586Z" style="fill:#9dbae3;fill-rule:evenodd"/><path d="M670.62,590.59v13.79h30a5.18,5.18,0,0,0,4.11-2.43l6.3-11.36Z" style="fill:#9dbae3;fill-rule:evenodd"/><path d="M678.59,562l-14.8,26.21a5.56,5.56,0,0,0,0,4.86l6.3,11.35L688.51,572Z" style="fill:#9ccc98;fill-rule:evenodd"/><path d="M678.59,562l16.33,28.63h15.5l-14.8-26.21A5.24,5.24,0,0,0,691.5,562Z" style="fill:#f9de80;fill-rule:evenodd"/><path d="M748,562.92a3,3,0,0,1,3-3H790a3,3,0,0,1,3,3V602a3,3,0,0,1-3,3H750.94a3,3,0,0,1-3-3Z" style="fill:#b1b6be;fill-rule:evenodd"/><g style="mask:url(#d)"><polygon points="749.32 604.47 769.88 584.4 792.52 605.65 749.52 605.67 749.32 604.47" style="fill:#9dbae3;fill-rule:evenodd"/><polygon points="748.01 559.23 747.73 603.37 793.23 558.81 748.01 559.23" style="fill:#9ccc98;fill-rule:evenodd"/><polygon points="794.16 560.5 771.96 582.71 794.52 605.83 794.16 560.5" style="fill:#b1b6be;fill-rule:evenodd"/><polygon points="750.96 606.17 795.37 561.76 791.18 557.57 746.77 601.98 750.96 606.17" style="fill:#f9de80;fill-rule:evenodd"/><polygon points="770.46 586.63 791.18 607.35 795.37 603.16 774.64 582.44 770.46 586.63" style="fill:#f9de80;fill-rule:evenodd"/></g><path d="M768.25,597.44a2.47,2.47,0,0,0,3.86,0s10-11,10-17.55a11.93,11.93,0,0,0-23.86,0C758.25,586.47,768.25,597.44,768.25,597.44Z" style="fill:#f0817e;fill-rule:evenodd"/><path d="M770.31,579v2.75h4.4a4.77,4.77,0,1,1-.13-4.21l3-1.57a8.21,8.21,0,1,0,.93,3.81V579Z" style="fill:#fff;fill-rule:evenodd"/><path d="M498,581.52a23,23,0,1,1,24.31,23.4,2.32,2.32,0,0,1-.46,0h-21a2.84,2.84,0,0,1-2.83-2.84v-20.6Z" style="fill:#9dbae3;fill-rule:evenodd"/><polygon points="519.28 577.42 510.47 586.75 518.49 582.35 522.68 586.75 531.45 577.42 523.51 581.74 519.28 577.42" style="fill:#fff;fill-rule:evenodd"/><path d="M488.48,347H528" style="fill:none;stroke:#989898;stroke-linecap:square;stroke-width:10px"/><path d="M763,347h42" style="fill:none;stroke:#989898;stroke-linecap:square;stroke-width:10px"/><polyline points="579.98 339.96 651.2 339.96 709.98 339.96" style="fill:none;stroke:#010101;stroke-linecap:round;stroke-width:10px"/><path d="M481,307H810a35,35,0,0,1,35,35v359.5H446V342A35,35,0,0,1,481,307Z" style="fill-rule:evenodd;isolation:isolate;opacity:0.16304348409175873;fill:url(#e)"/><path d="M213.67,100.24h40.84a58.92,58.92,0,1,1,0,117.83H213.67ZM254.51,192c16.3,0,29.07-14.33,29.07-32.79s-12.77-32.8-29.07-32.8h-10.8V192Z" style="fill:#fff"/><path d="M456.19,126.36V146.2h36.33v25.92H456.19V192h43v26.12H426.15V100.24H499.2v26.12Z" style="fill:#fff"/><path d="M678.49,192v26.12H610.94V100.24h30V192Z" style="fill:#fff"/><path d="M858.57,126.36H829.7v91.71H799.85V126.36H771V100.24h87.59Z" style="fill:#fff"/><path d="M1027.65,197.45H986.41l-6.48,20.62H947.52l42.62-117.83h33.58l42.61,117.83h-32.2Zm-7.47-24.35L1007,131.47l-13,41.63Z" style="fill:#fff"/></g></svg>