<?xml version="1.0" encoding="UTF-8" standalone="no"?>
<svg
   xmlns:dc="http://purl.org/dc/elements/1.1/"
   xmlns:cc="http://creativecommons.org/ns#"
   xmlns:rdf="http://www.w3.org/1999/02/22-rdf-syntax-ns#"
   xmlns:svg="http://www.w3.org/2000/svg"
   xmlns="http://www.w3.org/2000/svg"
   xmlns:sodipodi="http://sodipodi.sourceforge.net/DTD/sodipodi-0.dtd"
   xmlns:inkscape="http://www.inkscape.org/namespaces/inkscape"
   width="1117.588"
   height="1224.2959"
   viewBox="0 0 295.69518 323.92829"
   version="1.1"
   id="svg1407"
   sodipodi:docname="template_tutorial.svg"
   inkscape:version="1.0.1 (3bc2e813f5, 2020-09-07)">
  <sodipodi:namedview
     pagecolor="#ffffff"
     bordercolor="#666666"
     borderopacity="1"
     objecttolerance="10"
     gridtolerance="10"
     guidetolerance="10"
     inkscape:pageopacity="0"
     inkscape:pageshadow="2"
     inkscape:window-width="1884"
     inkscape:window-height="1052"
     id="namedview103"
     showgrid="false"
     inkscape:zoom="0.37429402"
     inkscape:cx="825.46037"
     inkscape:cy="554.23814"
     inkscape:window-x="36"
     inkscape:window-y="0"
     inkscape:window-maximized="1"
     inkscape:current-layer="svg1407"
     inkscape:document-rotation="0"
     showguides="false"
     fit-margin-top="40"
     fit-margin-left="40"
     fit-margin-right="40"
     fit-margin-bottom="40"
     lock-margins="true" />
  <defs
     id="defs1401">
    <rect
       x="920.31506"
       y="60.416649"
       width="329.59186"
       height="167.43263"
       id="rect1072" />
    <rect
       x="920.31506"
       y="60.416649"
       width="329.59186"
       height="167.43263"
       id="rect1092" />
    <rect
       x="920.31506"
       y="60.416649"
       width="329.59186"
       height="167.43263"
       id="rect1098" />
    <rect
       x="920.31506"
       y="60.416649"
       width="329.59186"
       height="167.43263"
       id="rect1104" />
    <rect
       x="920.31506"
       y="60.416649"
       width="518.91364"
       height="353.93906"
       id="rect1110" />
  </defs>
  <metadata
     id="metadata1404">
    <rdf:RDF>
      <cc:Work
         rdf:about="">
        <dc:format>image/svg+xml</dc:format>
        <dc:type
           rdf:resource="http://purl.org/dc/dcmitype/StillImage" />
        <dc:title />
      </cc:Work>
    </rdf:RDF>
  </metadata>
  <g
     id="g9581">
    <rect
       style="fill:#ffffff;fill-opacity:1;stroke:none;stroke-width:1.45917;stroke-linecap:round;stroke-linejoin:round;stop-color:#000000"
       id="rect1013"
       width="295.69516"
       height="323.92831"
       x="5.5138216e-06"
       y="-7.1418299e-06" />
    <circle
       style="opacity:0.2;fill:#000000;fill-opacity:1;fill-rule:evenodd;stroke:none;stroke-width:0.264583;stroke-opacity:1"
       cx="33.866676"
       cy="161.96417"
       id="circle960"
       r="23.283333" />
    <rect
       style="opacity:0.2;fill:#000000;fill-opacity:1;fill-rule:evenodd;stroke:none;stroke-width:0.262854;stroke-opacity:1"
       width="40.216667"
       height="40.216667"
       x="13.758347"
       y="141.85583"
       rx="2.6285403"
       id="rect962"
       ry="2.6285403" />
    <rect
       style="opacity:0.2;fill:#000000;fill-opacity:1;fill-rule:evenodd;stroke:none;stroke-width:0.26638;stroke-opacity:1"
       width="33.866665"
       height="46.566666"
       x="145.03084"
       y="-57.150002"
       rx="2.666667"
       transform="rotate(90)"
       id="rect964"
       ry="2.6609526" />
    <rect
       style="opacity:0.2;fill:#000000;fill-opacity:1;fill-rule:evenodd;stroke:none;stroke-width:0.26638;stroke-opacity:1"
       width="33.866665"
       height="46.566666"
       x="16.933342"
       y="138.68083"
       rx="2.666667"
       id="rect966"
       ry="2.6609526" />
    <circle
       style="opacity:0.2;fill:#000000;fill-opacity:1;fill-rule:evenodd;stroke:none;stroke-width:0.271933;stroke-opacity:1"
       cx="33.866676"
       cy="161.96417"
       id="circle968"
       r="9.7895832" />
    <text
       xml:space="preserve"
       id="text1070"
       style="font-style:normal;font-variant:normal;font-weight:bold;font-stretch:normal;font-size:40px;line-height:1.25;font-family:'Now Alt';-inkscape-font-specification:'Now Alt Bold';letter-spacing:0px;word-spacing:0px;white-space:pre;shape-inside:url(#rect1072);fill:#4a4a4a;fill-opacity:1;"
       transform="matrix(0.26458333,0,0,0.26458333,-92.452206,5.0435821)"><tspan
         x="920.31445"
         y="95.037637"><tspan
           style="font-style:normal;font-variant:normal;font-weight:bold;font-stretch:normal;font-family:'Now Alt';-inkscape-font-specification:'Now Alt Bold';fill:#4a4a4a;fill-opacity:1">Circle:
</tspan></tspan><tspan
         x="920.31445"
         y="145.03764"><tspan
           style="font-style:normal;font-variant:normal;font-weight:bold;font-stretch:normal;font-family:'Now Alt';-inkscape-font-specification:'Now Alt Bold';fill:#4a4a4a;fill-opacity:1">176px x 176px</tspan></tspan></text>
    <text
       xml:space="preserve"
       id="text1090"
       style="font-style:normal;font-variant:normal;font-weight:bold;font-stretch:normal;font-size:40px;line-height:1.25;font-family:'Now Alt';-inkscape-font-specification:'Now Alt Bold';letter-spacing:0px;word-spacing:0px;white-space:pre;shape-inside:url(#rect1092);fill:#4a4a4a;fill-opacity:1;"
       transform="matrix(0.26458333,0,0,0.26458333,-92.400526,54.952319)"><tspan
         x="920.31445"
         y="95.037637"><tspan
           style="font-style:normal;font-variant:normal;font-weight:bold;font-stretch:normal;font-family:'Now Alt';-inkscape-font-specification:'Now Alt Bold';fill:#4a4a4a;fill-opacity:1">Square:
</tspan></tspan><tspan
         x="920.31445"
         y="145.03764"><tspan
           style="font-style:normal;font-variant:normal;font-weight:bold;font-stretch:normal;font-family:'Now Alt';-inkscape-font-specification:'Now Alt Bold';fill:#4a4a4a;fill-opacity:1">152px x 152px</tspan></tspan></text>
    <text
       xml:space="preserve"
       id="text1096"
       style="font-style:normal;font-variant:normal;font-weight:bold;font-stretch:normal;font-size:40px;line-height:1.25;font-family:'Now Alt';-inkscape-font-specification:'Now Alt Bold';letter-spacing:0px;word-spacing:0px;white-space:pre;shape-inside:url(#rect1098);fill:#4a4a4a;fill-opacity:1;"
       transform="matrix(0.26458333,0,0,0.26458333,-92.772596,99.397391)"><tspan
         x="920.31445"
         y="95.037637"><tspan
           style="font-style:normal;font-variant:normal;font-weight:bold;font-stretch:normal;font-family:'Now Alt';-inkscape-font-specification:'Now Alt Bold';fill:#4a4a4a;fill-opacity:1">Horizontal Slab:
</tspan></tspan><tspan
         x="920.31445"
         y="145.03764"><tspan
           style="font-style:normal;font-variant:normal;font-weight:bold;font-stretch:normal;font-family:'Now Alt';-inkscape-font-specification:'Now Alt Bold';fill:#4a4a4a;fill-opacity:1">176px x 128px</tspan></tspan></text>
    <text
       xml:space="preserve"
       id="text1102"
       style="font-style:normal;font-variant:normal;font-weight:bold;font-stretch:normal;font-size:40px;line-height:1.25;font-family:'Now Alt';-inkscape-font-specification:'Now Alt Bold';letter-spacing:0px;word-spacing:0px;white-space:pre;shape-inside:url(#rect1104);fill:#4a4a4a;fill-opacity:1;"
       transform="matrix(0.26458333,0,0,0.26458333,-91.971606,146.50815)"><tspan
         x="920.31445"
         y="95.037637"><tspan
           style="font-style:normal;font-variant:normal;font-weight:bold;font-stretch:normal;font-family:'Now Alt';-inkscape-font-specification:'Now Alt Bold';fill:#4a4a4a;fill-opacity:1">Vertical Slab:
</tspan></tspan><tspan
         x="920.31445"
         y="145.03764"><tspan
           style="font-style:normal;font-variant:normal;font-weight:bold;font-stretch:normal;font-family:'Now Alt';-inkscape-font-specification:'Now Alt Bold';fill:#4a4a4a;fill-opacity:1">128px x 176px</tspan></tspan></text>
    <text
       xml:space="preserve"
       id="text1108"
       style="font-style:normal;font-variant:normal;font-weight:bold;font-stretch:normal;font-size:40px;line-height:1.25;font-family:'Now Alt';-inkscape-font-specification:'Now Alt Bold';letter-spacing:0px;word-spacing:0px;white-space:pre;shape-inside:url(#rect1110);fill:#4a4a4a;fill-opacity:1;"
       transform="matrix(0.26458333,0,0,0.26458333,-92.111136,210.26391)"><tspan
         x="920.31445"
         y="95.037637"><tspan
           style="font-style:normal;font-variant:normal;font-weight:bold;font-stretch:normal;font-family:'Now Alt';-inkscape-font-specification:'Now Alt Bold';fill:#4a4a4a;fill-opacity:1">Free Form:
</tspan></tspan><tspan
         x="920.31445"
         y="145.03764"><tspan
           style="font-style:normal;font-variant:normal;font-weight:bold;font-stretch:normal;font-family:'Now Alt';-inkscape-font-specification:'Now Alt Bold';fill:#4a4a4a;fill-opacity:1">Sizes may vary. Make </tspan></tspan><tspan
         x="920.31445"
         y="195.03764"><tspan
           style="font-style:normal;font-variant:normal;font-weight:bold;font-stretch:normal;font-family:'Now Alt';-inkscape-font-specification:'Now Alt Bold';fill:#4a4a4a;fill-opacity:1">sure </tspan><tspan
           style="font-style:normal;font-variant:normal;font-weight:bold;font-stretch:normal;font-family:'Now Alt';-inkscape-font-specification:'Now Alt Bold';fill:#4a4a4a;fill-opacity:1">that the icon size </tspan></tspan><tspan
         x="920.31445"
         y="245.03764"><tspan
           style="font-style:normal;font-variant:normal;font-weight:bold;font-stretch:normal;font-family:'Now Alt';-inkscape-font-specification:'Now Alt Bold';fill:#4a4a4a;fill-opacity:1">does not </tspan><tspan
           style="font-style:normal;font-variant:normal;font-weight:bold;font-stretch:normal;font-family:'Now Alt';-inkscape-font-specification:'Now Alt Bold';fill:#4a4a4a;fill-opacity:1">exceed </tspan></tspan><tspan
         x="920.31445"
         y="295.03764"><tspan
           style="font-style:normal;font-variant:normal;font-weight:bold;font-stretch:normal;font-family:'Now Alt';-inkscape-font-specification:'Now Alt Bold';fill:#4a4a4a;fill-opacity:1">template dimensions</tspan></tspan></text>
    <circle
       style="opacity:0.5;fill:#000000;fill-opacity:1;fill-rule:evenodd;stroke:none;stroke-width:0.264584;stroke-opacity:1"
       cx="110.09972"
       cy="33.866665"
       id="circle977"
       r="23.283333" />
    <circle
       style="opacity:0.5;fill:#000000;fill-opacity:1;fill-rule:evenodd;stroke:none;stroke-width:0.264583;stroke-opacity:1"
       cx="109.83514"
       cy="33.602077"
       id="circle983"
       r="9.5249996" />
    <rect
       style="opacity:0.5;fill:#000000;fill-opacity:1;fill-rule:evenodd;stroke:none;stroke-width:0.262854;stroke-opacity:1"
       width="40.216667"
       height="40.216667"
       x="89.991386"
       y="64.176392"
       rx="2.6285403"
       id="rect981"
       ry="2.6285403" />
    <circle
       style="opacity:0.5;fill:#000000;fill-opacity:1;fill-rule:evenodd;stroke:none;stroke-width:0.264583;stroke-opacity:1"
       cx="110.09972"
       cy="84.284721"
       id="circle961"
       r="9.5249996" />
    <rect
       style="opacity:0.5;fill:#000000;fill-opacity:1;fill-rule:evenodd;stroke:none;stroke-width:0.267427;stroke-opacity:1"
       width="33.866669"
       height="46.933331"
       x="111.28714"
       y="-133.56641"
       rx="2.666667"
       transform="rotate(90)"
       id="rect979"
       ry="2.6819048" />
    <circle
       style="opacity:0.5;fill:#000000;fill-opacity:1;fill-rule:evenodd;stroke:none;stroke-width:0.264583;stroke-opacity:1"
       cx="110.09974"
       cy="128.22047"
       id="circle963"
       r="9.5249996" />
    <rect
       style="opacity:0.5;fill:#000000;fill-opacity:1;fill-rule:evenodd;stroke:none;stroke-width:0.267427;stroke-opacity:1"
       width="33.866669"
       height="46.933331"
       x="93.166382"
       y="151.86456"
       rx="2.666667"
       id="rect975"
       ry="2.6819048" />
    <circle
       style="opacity:0.5;fill:#000000;fill-opacity:1;fill-rule:evenodd;stroke:none;stroke-width:0.264583;stroke-opacity:1"
       cx="110.09972"
       cy="175.33122"
       id="circle966"
       r="9.5249996" />
    <g
       id="g9412">
      <path
         style="opacity:0.5;fill:#000000;fill-opacity:1;stroke:none;stroke-width:0.193788px;stroke-linecap:butt;stroke-linejoin:miter;stroke-opacity:1"
         d="m 97.204488,219.00551 c 8.905662,-2.45837 7.716212,-20.23164 13.715472,-10.45047 5.99925,9.78118 21.08056,-0.32472 13.48222,10.27566 -7.59833,10.60038 2.67288,18.50977 -9.14194,15.11075 -11.81481,-3.39902 -12.60407,7.546 -14.44433,-1.66669 -1.840252,-9.21268 -12.517072,-10.81088 -3.611422,-13.26925 z"
         id="path1064" />
      <path
         style="opacity:0.5;fill:#000000;fill-opacity:1;stroke:none;stroke-width:0.459748;stroke-opacity:1;stop-color:#000000"
         d="m 108.24622,243.76978 2e-5,6.57032 a 0.68429701,0.68429701 0 0 1 -0.68432,0.68432 h -2.04485 a 0.39508633,0.39508633 0 0 0 -0.34218,0.59264 l 4.58252,7.93737 a 0.39508165,0.39508165 0 0 0 0.68427,-7e-5 l 4.58288,-7.93742 a 0.39507001,0.39507001 0 0 0 -0.34208,-0.59264 h -2.04535 a 0.68429803,0.68429803 0 0 1 -0.68427,-0.68429 v -6.5703 a 0.68429746,0.68429746 0 0 0 -0.6843,-0.6843 l -2.338,-2e-5 a 0.68429708,0.68429708 0 0 0 -0.68432,0.68429 z"
         id="path985" />
      <path
         style="opacity:0.5;fill:#000000;fill-opacity:1;stroke:none;stroke-width:0.275193px;stroke-linecap:butt;stroke-linejoin:miter;stroke-opacity:1"
         d="m 91.776647,287.44238 c 12.646673,-3.49108 10.957583,-28.7304 19.476963,-14.84041 8.51938,13.88997 29.93594,-0.46114 19.14574,14.59216 -10.79018,15.0533 3.79568,26.28523 -12.98222,21.45838 -16.7779,-4.82687 -17.898714,10.71585 -20.512004,-2.36681 -2.6133,-13.08269 -17.775169,-15.35227 -5.128479,-18.84332 z"
         id="path1150" />
      <path
         style="opacity:0.5;fill:#000000;fill-opacity:1;stroke:none;stroke-width:0.192701;stroke-opacity:1;stop-color:#000000"
         d="m 78.980628,289.02689 2.66008,0.71276 a 0.28681981,0.28681981 0 0 1 0.20282,0.35129 l -0.22183,0.82788 a 0.16559854,0.16559854 0 0 0 0.20281,0.20283 l 3.71068,-0.99423 a 0.16559658,0.16559658 0 0 0 0.0742,-0.27704 l -2.7164,-2.71651 a 0.1655917,0.1655917 0 0 0 -0.27705,0.0742 l -0.22188,0.82809 a 0.28682024,0.28682024 0 0 1 -0.35128,0.2028 l -2.66008,-0.71276 a 0.28682,0.28682 0 0 0 -0.35128,0.20281 l -0.25364,0.94657 a 0.28681984,0.28681984 0 0 0 0.20281,0.35129 z"
         id="path1152" />
      <path
         style="opacity:0.5;fill:#000000;fill-opacity:1;stroke:none;stroke-width:0.192701;stroke-opacity:1;stop-color:#000000"
         d="m 140.8168,278.03996 -2.66007,0.71276 a 0.28681981,0.28681981 0 0 1 -0.35129,-0.2028 l -0.22183,-0.82789 a 0.16559854,0.16559854 0 0 0 -0.27706,-0.0742 l -2.71642,2.71636 a 0.16559658,0.16559658 0 0 0 0.0742,0.27704 l 3.71072,0.99436 a 0.1655917,0.1655917 0 0 0 0.20282,-0.20278 l -0.22189,-0.82809 a 0.28682024,0.28682024 0 0 1 0.20282,-0.35129 l 2.66007,-0.71276 a 0.28682,0.28682 0 0 0 0.20282,-0.35128 l -0.25363,-0.94657 a 0.28681984,0.28681984 0 0 0 -0.35129,-0.20281 z"
         id="path1159" />
      <g
         id="g1020"
         style="fill:#000000;fill-opacity:1">
        <circle
           style="opacity:0.2;fill:#000000;fill-opacity:1;fill-rule:evenodd;stroke:none;stroke-width:0.264583;stroke-opacity:1"
           cx="110.08884"
           cy="290.06168"
           id="circle993"
           r="23.283333" />
        <rect
           style="opacity:0.2;fill:#000000;fill-opacity:1;fill-rule:evenodd;stroke:none;stroke-width:0.262854;stroke-opacity:1"
           width="40.216667"
           height="40.216667"
           x="89.980515"
           y="269.95334"
           rx="2.6285403"
           id="rect995"
           ry="2.6285403" />
        <rect
           style="opacity:0.2;fill:#000000;fill-opacity:1;fill-rule:evenodd;stroke:none;stroke-width:0.26638;stroke-opacity:1"
           width="33.866665"
           height="46.566666"
           x="273.12833"
           y="-133.37216"
           rx="2.666667"
           transform="rotate(90)"
           id="rect997"
           ry="2.6609526" />
        <rect
           style="opacity:0.2;fill:#000000;fill-opacity:1;fill-rule:evenodd;stroke:none;stroke-width:0.26638;stroke-opacity:1"
           width="33.866665"
           height="46.566666"
           x="93.15551"
           y="266.77832"
           rx="2.666667"
           id="rect999"
           ry="2.6609526" />
        <circle
           style="opacity:0.2;fill:#000000;fill-opacity:1;fill-rule:evenodd;stroke:none;stroke-width:0.271933;stroke-opacity:1"
           cx="110.08884"
           cy="290.06168"
           id="circle1001"
           r="9.7895832" />
      </g>
    </g>
  </g>
</svg>
