<?xml version="1.0" encoding="UTF-8" standalone="no"?>
<!-- Created with Inkscape (http://www.inkscape.org/) -->

<svg
   width="192"
   height="192"
   viewBox="0 0 50.800001 50.800001"
   version="1.1"
   id="svg1"
   xml:space="preserve"
   xmlns="http://www.w3.org/2000/svg"
   xmlns:svg="http://www.w3.org/2000/svg"><defs
     id="defs1" /><g
     id="g1"
     transform="matrix(0.26458334,0,0,0.26458334,5.1277828,5.1593751)"><rect
       width="153"
       height="153"
       fill="#ffffff"
       rx="10"
       id="rect1"
       x="0"
       y="0"
       style="fill:#54688c" /></g><g
     id="g6"
     transform="translate(-1.341242,1.351918)"><path
       style="display:inline;fill:#ff837d;stroke-width:0.264583"
       d="m 11.552744,18.926175 4.6e-5,10.231438 h 3.768149 v -6.823466 h 2.12648 v 6.823466 h 4.176157 V 18.926175 Z"
       id="path2" /><path
       style="display:inline;fill:#f9de81;stroke-width:0.264583"
       d="m 21.780236,18.926175 1.587235,3.555471 v -3.555471 h 4.058005 l -3e-6,3.555471 1.695628,-3.555471 h 3.724502 v 10.231438 h -3.724502 l -1.696863,-3.475567 v 3.475567 h -4.056767 v -3.475567 l -1.587235,3.475567 h -4.332817 l 2.606585,-5.046962 -2.606585,-5.184476 z"
       id="path3" /><path
       style="display:inline;fill:#ffffff;stroke-width:0.264583"
       d="m 29.121101,20.18882 v 3.338427 l 1.545246,-0.983144 v 3.308454 h -1.545246 v 3.305056 h 6.74551 v -2.327016 h -1.155809 v -7.904422 h -3.196833 z"
       id="path4" /><path
       id="path6"
       style="display:inline;fill:#98dc9a;stroke-width:0.267323"
       d="m 37.234937,18.933406 c -2.270918,0 -4.166671,1.148882 -4.166671,3.300184 0,2.151303 1.184427,3.193096 3.027206,3.193096 1.842781,0 2.011247,-0.473714 2.011247,-0.473714 0,0 0.09159,1.402743 -2.013314,1.409013 -1.467972,0.0044 -2.215369,-0.29172 -2.215369,-0.29172 v 2.545826 c 0,0 1.714562,0.553899 3.326412,0.553899 1.611851,0 4.725293,-0.628417 4.725293,-4.915459 0,-4.287045 -2.423884,-5.321125 -4.694804,-5.321125 z m 0.0088,2.659771 c 0.04652,0.0011 0.09313,0.0047 0.139527,0.01056 0.587628,0.07348 1.024348,0.505597 0.975651,0.965367 -0.04884,0.459943 -0.565013,0.773352 -1.152902,0.700023 -0.587912,-0.07349 -1.024738,-0.50595 -0.975651,-0.965894 0.0445,-0.417898 0.477981,-0.72163 1.013375,-0.710045 z" /></g></svg>
