<?xml version="1.0" encoding="UTF-8" standalone="no"?>
<!-- Created with Inkscape (http://www.inkscape.org/) -->

<svg
   width="192"
   height="192"
   viewBox="0 0 50.800001 50.800001"
   version="1.1"
   id="svg1"
   xml:space="preserve"
   sodipodi:docname="_19.svg"
   inkscape:version="1.2.2 (b0a8486541, 2022-12-01)"
   inkscape:export-filename="_19.png"
   inkscape:export-xdpi="96"
   inkscape:export-ydpi="96"
   xmlns:inkscape="http://www.inkscape.org/namespaces/inkscape"
   xmlns:sodipodi="http://sodipodi.sourceforge.net/DTD/sodipodi-0.dtd"
   xmlns="http://www.w3.org/2000/svg"
   xmlns:svg="http://www.w3.org/2000/svg"><sodipodi:namedview
     id="namedview11"
     pagecolor="#505050"
     bordercolor="#eeeeee"
     borderopacity="1"
     inkscape:showpageshadow="0"
     inkscape:pageopacity="0"
     inkscape:pagecheckerboard="0"
     inkscape:deskcolor="#d1d1d1"
     showgrid="false"
     inkscape:zoom="0.61458334"
     inkscape:cx="-174.10169"
     inkscape:cy="279.05084"
     inkscape:window-width="1884"
     inkscape:window-height="1055"
     inkscape:window-x="36"
     inkscape:window-y="0"
     inkscape:window-maximized="1"
     inkscape:current-layer="svg1" /><defs
     id="defs1" /><rect
     style="fill:#54688c;fill-opacity:1;stroke:none;stroke-width:0.903023;stroke-linecap:round;stroke-linejoin:round;paint-order:stroke fill markers"
     id="rect290"
     width="46.566669"
     height="33.866669"
     x="2.1166658"
     y="8.4666662"
     rx="2.6458335" /><path
     style="display:inline;fill:#ff837d;stroke-width:0.230452"
     d="m 12.170834,20.938825 4e-5,8.911571 h 3.282053 v -5.943231 h 1.852162 v 5.943231 h 3.637429 v -8.911571 z"
     id="path2" /><path
     style="display:inline;fill:#f9de81;stroke-width:0.230452"
     d="m 21.078969,20.938825 1.38248,3.096811 v -3.096811 h 3.534518 l -2e-6,3.096811 1.47689,-3.096811 h 3.244038 v 8.911571 h -3.244038 l -1.477966,-3.027215 v 3.027215 h -3.53344 v -3.027215 l -1.38248,3.027215 h -3.77388 l 2.270333,-4.395898 -2.270333,-4.515673 z"
     id="path3" /><path
     style="display:inline;fill:#ffffff;stroke-width:0.230452"
     d="m 27.472855,22.038587 v 2.907766 l 1.345907,-0.856317 v 2.88166 h -1.345907 v 2.8787 h 5.875332 V 27.823568 H 32.341479 V 20.938825 H 29.55704 Z"
     id="path4" /><path
     id="path6"
     style="display:inline;fill:#98dc9a;stroke-width:0.232838"
     d="m 34.539998,20.945122 c -1.977967,0 -3.629166,1.000676 -3.629166,2.874458 0,1.873782 1.031634,2.781182 2.636693,2.781182 1.605061,0 1.751794,-0.412603 1.751794,-0.412603 0,0 0.07978,1.221787 -1.753594,1.227248 -1.278603,0.0039 -1.929585,-0.254087 -1.929585,-0.254087 v 2.217412 c 0,0 1.493382,0.482444 2.897302,0.482444 1.40392,0 4.115725,-0.54735 4.115725,-4.281358 0,-3.734013 -2.1112,-4.634696 -4.089169,-4.634696 z m 0.0076,2.316658 c 0.04052,9.59e-4 0.08112,0.0041 0.121528,0.0092 0.511824,0.064 0.892206,0.440376 0.849791,0.840835 -0.04254,0.400609 -0.492125,0.673589 -1.004177,0.609718 -0.512071,-0.06401 -0.892546,-0.440681 -0.849791,-0.841291 0.03876,-0.36399 0.416322,-0.628539 0.882649,-0.61845 z" /></svg>
