<?xml version="1.0" encoding="UTF-8"?>
<svg version="1.1" viewBox="0 0 192 192" xmlns="http://www.w3.org/2000/svg">
 <rect class="a" x="20" y="20" width="152" height="152" rx="10" style="fill:#ff837d"/>
 <path transform="matrix(.7167 0 0 .7167 197.66 24.5)" d="m-112.26 38.021h-51.055a12.286 12.286 157.5 0 0-8.6878 3.5986l-27.606 27.606a4.9783 4.9783 67.5 0 0 3.5202 8.4984h16.672a2.7695 2.7695 45 0 1 2.7695 2.7695v72.553a8.4577 8.4577 45 0 0 8.4577 8.4577h61.145a8.9624 8.9624 135 0 0 8.9624-8.9624v-113.34a1.1776 1.1776 45 0 0-1.1776-1.1776z" style="fill:#fff;stroke-linecap:round;stroke-linejoin:round;stroke-width:10"/>
 <text x="98.403145" y="131.52837" style="fill:#ff837d;font-family:Now;font-size:26.185px;font-weight:bold;stroke-linecap:round;stroke-linejoin:round;stroke-width:14.028;text-align:center;text-anchor:middle" xml:space="preserve"><tspan x="98.403145" y="131.52837" style="stroke-width:14.028">.FM</tspan></text>
</svg>
