<svg xmlns="http://www.w3.org/2000/svg" id="svg16" version="1.1" viewBox="0 0 192 192"><defs id="defs4"><style id="style2">.a{fill:none;stroke:#b1b5bd;stroke-linecap:round;stroke-linejoin:round;isolation:isolate;opacity:.63}</style></defs><path id="path820" d="m32 60 12 112s8 12 52 12 52-12 52-12l12-112Z" style="fill:#ccc;stroke:none;stroke-width:1px;stroke-linecap:butt;stroke-linejoin:miter;stroke-opacity:1"/><path id="path839" d="M32 48v12s0 16 64 16 64-16 64-16V48Z" style="fill:#ececec;stroke:none;stroke-width:1px;stroke-linecap:butt;stroke-linejoin:miter;stroke-opacity:1"/><rect id="rect818" width="128" height="32" x="32" y="32" rx="64" ry="16" style="opacity:1;vector-effect:none;fill:#83868c;fill-opacity:1;fill-rule:evenodd;stroke:none;paint-order:stroke fill markers"/><g id="g831" transform="matrix(.6834 -.34 .34 .6834 65.783 32.677)"><rect id="rect822" width="16.021" height="170.588" x="52" y="32" ry="4" style="opacity:1;vector-effect:none;fill:#f8c18c;fill-opacity:1;fill-rule:evenodd;stroke:none;paint-order:stroke fill markers"/><rect id="rect824" width="16" height="24" x="52" y="32" ry="4" style="opacity:1;vector-effect:none;fill:#fff;fill-opacity:1;fill-rule:evenodd;stroke:none;paint-order:stroke fill markers"/><path id="rect826" d="M52 48h16v8H52z" style="opacity:1;vector-effect:none;fill:#fff;fill-opacity:1;fill-rule:evenodd;stroke:none;paint-order:stroke fill markers"/></g><text xml:space="preserve" id="text843" x="71.057" y="147.185" style="font-style:normal;font-variant:normal;font-weight:400;font-stretch:normal;font-size:63.16035461px;line-height:1.25;font-family:Now;-inkscape-font-specification:Now;letter-spacing:0;word-spacing:0;fill:#83868c;fill-opacity:1;stroke:none;stroke-width:1.57900882"><tspan id="tspan841" x="71.057" y="147.185" style="font-style:normal;font-variant:normal;font-weight:700;font-stretch:normal;font-family:Now;-inkscape-font-specification:&quot;Now Bold&quot;;fill:#83868c;stroke-width:1.57900882">C</tspan></text><path id="path845" d="m66.807 31.956-8.392-1.158-6.363 5.594-1.492-8.34-7.286-4.321 7.47-3.997 1.86-8.265 6.108 5.87 8.436-.786-3.695 7.624z" style="opacity:1;vector-effect:none;fill:#9abeff;fill-opacity:1;fill-rule:evenodd;stroke:#9abeff;stroke-width:6.30638933;stroke-linejoin:round;stroke-miterlimit:4;stroke-dasharray:none;stroke-opacity:1;paint-order:stroke fill markers"/><path id="path845-9" d="m97.885 53.501-5.626-.776-4.265 3.75-1-5.59-4.884-2.897 5.007-2.68 1.247-5.54 4.095 3.935 5.654-.527-2.477 5.11z" style="opacity:1;vector-effect:none;fill:#ff837d;fill-opacity:1;fill-rule:evenodd;stroke:#ff837d;stroke-width:4.22723198;stroke-linejoin:round;stroke-miterlimit:4;stroke-dasharray:none;stroke-opacity:1;paint-order:stroke fill markers" transform="scale(.76947) rotate(24.618 76.879 144.095)"/><path id="path845-5" d="m168.933 43.551-8.392-1.158-6.362 5.594-1.492-8.34-7.287-4.321 7.47-3.997 1.86-8.265 6.109 5.87 8.435-.786-3.695 7.624z" style="opacity:1;vector-effect:none;fill:#98dc9a;fill-opacity:1;fill-rule:evenodd;stroke:#98dc9a;stroke-width:6.30638933;stroke-linejoin:round;stroke-miterlimit:4;stroke-dasharray:none;stroke-opacity:1;paint-order:stroke fill markers" transform="scale(.78717) rotate(39.288 159.5 81.01)"/><path id="path845-9-2" d="m97.885 53.501-5.626-.776-4.265 3.75-1-5.59-4.884-2.897 5.007-2.68 1.247-5.54 4.095 3.935 5.654-.527-2.477 5.11z" style="opacity:1;vector-effect:none;fill:#f9de81;fill-opacity:1;fill-rule:evenodd;stroke:#f9de81;stroke-width:4.22723198;stroke-linejoin:round;stroke-miterlimit:4;stroke-dasharray:none;stroke-opacity:1;paint-order:stroke fill markers" transform="scale(-.76947 .76947) rotate(24.618 15.6 -478.095)"/><path id="path845-9-6" d="m97.885 53.501-5.626-.776-4.265 3.75-1-5.59-4.884-2.897 5.007-2.68 1.247-5.54 4.095 3.935 5.654-.527-2.477 5.11z" style="opacity:1;vector-effect:none;fill:#bd9aff;fill-opacity:1;fill-rule:evenodd;stroke:#bd9aff;stroke-width:4.22723198;stroke-linejoin:round;stroke-miterlimit:4;stroke-dasharray:none;stroke-opacity:1;paint-order:stroke fill markers" transform="matrix(-.57804 .26486 .26486 .57804 106.876 2.677)"/></svg>