<svg xmlns="http://www.w3.org/2000/svg" width="192" height="192"><circle cx="96" cy="96" r="88" opacity=".63" style="fill:#ececec;opacity:1"/><path d="M105.23 77.004c-5.997 0-10.432 4.186-10.432 9.684 0 3.123 1.437 5.747 3.748 7.433-3.623 1.937-5.934 5.497-5.934 9.807 0 6.496 5.371 11.557 12.555 11.557 7.247 0 12.682-5.06 12.682-11.557 0-4.31-2.31-7.87-5.996-9.807 2.312-1.686 3.748-4.31 3.748-7.433 0-5.497-4.436-9.684-10.37-9.684zm32.082 0c-9.058 0-13.744 8.059-13.744 19.24 0 11.182 4.687 19.24 13.744 19.24 8.933 0 13.742-8.059 13.742-19.24 0-11.182-4.81-19.24-13.742-19.24zm-81.43.5L43.325 94.121c-1.812 2.499-3.186 5.37-3.06 8.682.124 7.183 6.308 12.807 13.805 12.619 7.308-.188 13.369-5.936 13.244-13.244-.125-7.06-6.123-12.117-12.12-12.555-.75 0-1.498.062-2.122.187l9.931-12.307h-7.121zm16.408 0v5.56h5.998v31.92h5.996v-37.48H72.29zm32.939 4.623c2.874 0 5.123 2.248 5.123 5.184s-2.25 5.185-5.123 5.185c-2.936 0-5.184-2.25-5.184-5.185 0-2.936 2.248-5.184 5.184-5.184zm32.082.438c5.435 0 7.746 5.559 7.746 13.68 0 8.12-2.311 13.68-7.746 13.68s-7.746-5.56-7.746-13.68c0-8.121 2.311-13.68 7.746-13.68zM53.508 94.682c4.498-.125 7.807 3.06 7.932 7.558.187 4.248-2.874 7.621-7.371 7.809-4.56.125-7.745-2.936-7.932-7.246-.125-4.498 2.873-7.934 7.371-8.121zm51.658 2.187c3.748 0 6.623 2.81 6.623 6.559 0 3.748-2.875 6.808-6.623 6.808-3.685 0-6.559-3.06-6.559-6.808 0-3.748 2.874-6.559 6.559-6.559z" style="fill:#4a4a4a"/></svg>