<svg xmlns="http://www.w3.org/2000/svg" width="192" height="192"><rect width="128" height="176" x="32" y="8" opacity=".63" rx="10.079" style="fill:#ff837d;opacity:1"/><path d="M35.02 10.877A10.042 10.042 0 0 0 32 18.078V57.6l8 6.4 12-28-6.595-20.864-10.385-4.258z" style="fill:#fff"/><path d="M35.033 10.883c-.05.048-.102.093-.15.143-.087.087-.168.18-.25.271-.146.16-.289.321-.424.49a10.068 10.068 0 0 0-.818 1.19c-.107.181-.208.366-.303.554a9.969 9.969 0 0 0-.186.381c-.085.188-.16.38-.234.575-.053.137-.106.273-.153.414-.062.188-.114.382-.166.576-.039.148-.082.294-.115.445-.054.25-.093.507-.129.764-.013.094-.032.186-.043.281-.04.365-.062.735-.062 1.111v.125l15.02 2.05-1.616-5.118-10.371-4.252z" style="fill:#ececec"/><circle cx="96" cy="96" r="36.5" opacity=".63" style="fill:none;stroke-width:1.0002;stroke:#b1b5bd"/><path d="M53.416 74.781 32 75.814V88.91c1.526 6.021 3.221 12.517 4.203 15.547 4.236 13.073 16.025 40.656 16.025 40.656l1.188-70.332z" style="fill:#56595b"/><path d="M43.623 162.32c.012-3.43 5.638-8.606 5.638-8.606s-2.742-8.25-2.374-12.464c.267-3.056 3.265-8.606 3.265-8.606s-2.887-4.14-2.968-6.528c-.057-1.69 1.78-4.748 1.78-4.748s-5.269-7.16-6.528-13.651c-2.242-11.556-.89-40.062-.89-40.062l59.648 8.605 43.92 28.785s-2.14 8.194-4.155 11.87c-.846 1.545-3.264 4.155-3.264 4.155s1.054 5.57.593 8.31c-.5 2.97-3.56 8.308-3.56 8.308s2.507 4.826 2.373 7.42c-.177 3.45-4.154 9.495-4.154 9.495s3.217 4.913 3.858 7.716c2.373 10.392-24.631 14.838-24.631 14.838L75.08 178.64l-25.521-7.122s-5.948-5.55-5.936-9.2z" style="fill:#fff"/><path d="M41.545 67.66s-1.351 28.507.89 40.063c1.26 6.492 6.53 13.65 6.53 13.65s-1.839 3.059-1.781 4.748c.08 2.39 2.969 6.527 2.969 6.527s-2.999 5.551-3.266 8.608c-.368 4.213 2.375 12.463 2.375 12.463s-.508.478-1.193 1.195c.683.373 1.329.765 1.873 1.203 1.925 1.55 2.917 4.254 3.146 6.715.208 2.23-1.678 6.506-1.678 6.506l4.827 1.469s-.882-3.279-.42-4.826c.355-1.194 1.063-2.915 2.308-2.938 2.382-.043 4.617 5.455 4.617 5.455s-1.825-7.226-3.148-10.7c-1.514-3.978-8.23-8.316-5.455-11.542 1.905-2.214 8.392 2.518 8.392 2.518s-3.037-5.201-4.617-7.764c-1.568-2.543-4.695-4.57-4.826-7.555-.202-4.628 6.506-7.763 6.506-7.763s-6.504-6.28-8.393-10.281c-3.197-6.774-4.408-22.033-4.408-22.033l7.555-.63s-4.023-2.003-5.246-3.777c-.617-.894-.84-3.148-.84-3.148s6.838 1.008 10.283 1.049c10.818.128 23.922-4.196 23.922-4.196L56.17 69.77l-14.625-2.109zm99.676 35.998s-2.135 6.751-3.357 10.072c-2.745 7.456-10.701 13.85-10.701 13.85s5.85-1.977 6.295 3.986c.25 3.37-4.618 9.024-4.618 9.024l-9.652 7.554s5.185-3.767 7.975-3.148c1.787.396 3.693 2.16 3.775 3.988.18 4.03-4.906 8.972-8.26 11.793 1.143-.75 2.416-1.384 3.434-1.302 1.34.106 2.817 1.217 3.148 2.52.58 2.278-7.763 8.183-7.763 8.183l14.639-3.696c.724-1.264 1.013-2.646.667-4.158-.64-2.803-3.857-7.715-3.857-7.715s3.977-6.045 4.154-9.496c.134-2.593-2.373-7.42-2.373-7.42s3.06-5.337 3.561-8.308c.461-2.738-.594-8.309-.594-8.309s2.42-2.61 3.266-4.154c1.523-2.78 3.11-8.117 3.797-10.566l-3.535-2.697zm-18.543 57.119c-1.557 1.022-2.861 2.266-2.861 2.266s1.248-.909 2.861-2.266zM73.002 150.75s5.14 9.943 13.057 10.386c3.626.203 9.496-5.342 9.496-5.342s4.688 4.816 10.09 4.155c5.282-.646 8.606-7.716 8.606-7.716s1.838 6.312 1.484 9.496c-.506 4.546-5.045 12.76-5.045 12.76l-17.212 5.639-15.728-5.045s-2.585-8.01-2.967-12.167c-.164-1.776.51-3.571.296-5.342-.284-2.36-2.077-6.825-2.077-6.825z" style="fill:#ececec"/><path d="M43.623 162.32s-1.37 6.095-1.484 9.2c-.135 3.665.684 10.026 1.023 12.476h97.672c-.898-1.623-2.076-3.98-2.25-5.65-.198-1.91 1.256-3.72 1.188-5.639-.128-3.598-2.97-10.387-2.97-10.387s-11.093 3.513-16.616 5.342c-8.73 2.89-16.928 8.483-26.115 8.902-6.304.288-12.125-3.775-18.398-4.451-4.329-.466-8.82 1.301-13.057.297-6.976-1.654-18.992-10.09-18.992-10.09z" style="fill:#56595b"/><path d="m65.422 8-6.367 3.871L56 28.001l36 24 28-16 1.373-23.538L114.32 8H65.422zM138.14 19.889c-.72.008-1.436.044-2.14.111-4.918.467-7.58 12.734-7.58 12.734l14.27 40.287s7.124 14.137 12.17 20.145c1.208 1.44 3.342 3.284 5.14 4.748V25.277c-3.177-1.436-12.936-5.492-21.86-5.388z" style="fill:#fff"/><path d="M69.737 102.97s2.692-10.983 6.825-14.244c5.163-4.074 19.29-4.155 19.29-4.155l3.56-4.45s17.328 6.164 21.07 13.65c1.286 2.572-.593 8.606-.593 8.606s-3.464-5.609-6.232-7.122c-3.51-1.92-11.87-1.78-11.87-1.78l-5.342-4.749-4.748 4.748s-7.341.158-10.683 1.484c-4.285 1.701-11.277 8.013-11.277 8.013zM59.174 12.799l2.938 14.689 8.183.84s-4.06-3.532-5.666-5.666c-2.26-3.002-5.455-9.863-5.455-9.863zm46.584 3.988s-2.05 5.264-1.26 7.764c1.269 4.008 8.815 9.021 8.815 9.021l3.986-6.714s-6.7-1.997-9.024-4.407c-1.434-1.487-2.517-5.664-2.517-5.664zM45.107 36.203s-5.705 5.024-8.014 8.014c-1.62 2.099-3.606 5.587-5.094 8.33v3.748l4.797-.21 8.31-19.882zM145.42 33.572s6.76 14.18 7.133 21.824c.376 7.73-7.558 23.552-7.558 23.552l7.376 10.846c.857 1.254 1.7 2.43 2.49 3.371 1.21 1.44 3.343 3.284 5.14 4.748V88.19c-1.411-2.031-2.527-4.262-3.251-6.354-2.265-6.543 3.174-13.644 2.937-20.564-.183-5.36-.904-10.968-3.357-15.738-2.468-4.8-10.91-11.961-10.91-11.961z" style="fill:#ececec"/><path d="M33.236 73.002s4.138-17.724 6.825-26.411c1.461-4.723 4.15-9.085 5.045-13.947 1.057-5.74.297-17.509.297-17.509l13.65-3.264s4.522 27.287 29.973 27.598c23.242.284 32.346-27.005 32.346-27.005l8.902 7.419 5.045.89s1.258 20.575 5.045 29.972c2.687 6.667 12.167 17.805 12.167 17.805s-.27 3.385 0 5.045c.2 1.235 1.22 2.31 1.187 3.56-.063 2.443-2.13 4.443-2.67 6.826-1.206 5.32.198 11.046-1.188 16.321-1 3.809-3.358 11.833-6.528 9.496-16.903-12.458-29.24-18.56-46.294-24.63C76.64 77.907 33.236 73 33.236 73z" style="fill:#56595b"/><path d="m59.055 11.871-13.65 3.264s.47 7.475.127 13.422c0 0 1.384 6.533.762 9.724-1.017 5.21-5.565 9.17-7.121 14.244-1.55 5.056-2.079 15.73-2.079 15.73l52.525 7.714S76.1 72.483 68.551 69.737c13.986.211 24.631 2.078 24.631 2.078S74.33 65.95 63.803 67.067c15.356-2.341 23.146 1.187 23.146 1.187s4.402-5.924 7.715-6.826c16.922-4.604 51.637 10.09 51.637 10.09s-16.76-21.883-27.006-28.488c11.993 2.614 18.992 9.793 18.992 9.793s-2.79-7.393-3.263-11.277c-.615-5.045.004-13.476.472-18.475l-.176-2.297-5.044-.89-8.903-7.42s-.378 1.105-1.136 2.83c-1.352 5.362-4.132 14.879-7.766 18.834-3.652 3.974-14.541 7.12-14.541 7.12l-5.045 6.53-5.045-5.342S73.9 40.8 68.848 36.501c-6.356-5.41-8.44-16.046-9.135-21.861-.473-1.694-.658-2.768-.658-2.768z" style="fill:#83868c"/><path d="M32 51.053V85.93c.88.395 2.82 1.24 4.197 1.467 1.795.297 4.06 1.061 5.455-.106.274-.228.211-1.048.211-1.048s2.587-.74 3.461-1.678c.257-.276.42-1.051.42-1.051s1.326-.014 1.889-.314c.72-.385 1.47-.995 1.68-1.784.194-.73-.526-2.203-.526-2.203s2.46-1.177 3.043-2.308c.53-1.027.106-3.463.106-3.463s2.457.63 3.672.42c1.88-.325 4.784-.643 5.14-2.518.407-2.14-2.949-3.207-4.406-4.826-3.067-3.406-5.288-7.78-9.129-10.281-3.745-2.439-11.159-4.295-15.213-5.184z" style="fill:#fff"/><rect width="2.077" height="28.934" x="95.258" y="125.08" ry="1.808" style="fill:#ececec;paint-order:stroke fill markers;stroke-width:1.1546"/><path d="M67.358 131.15s1.316 4.252 3.567 6.715c1.97 2.154 3.358 6.505 3.358 6.505s7.253-4.53 11.33-4.617c3.938-.084 11.122 3.987 11.122 3.987s3.781-3.412 9.652-2.937c2.869.231 7.764 3.777 7.764 3.777s-.681-4.941-.21-7.345c.633-3.226 3.987-9.023 3.987-9.023s-4.568 4.15-9.233 4.827c-3.891.565-11.75-1.05-11.75-1.05s-6.084 5.48-13.43 5.456c-5.164-.016-9.653-3.987-9.653-3.987l-2.728-2.937zM71.554 123.59c-3.688-6.768-14.499-11.814-15.318-24.236 7.019 14.575 16.577 13.534 16.577 13.534s5.596-.13 14.059 0c3.61.055 10.072 3.987 10.072 3.987s5.663-5.124 11.961-4.617c5.638.454 9.443 9.233 9.443 9.233s-6.588-3.962-10.282-4.196c-6.988-.444-11.961 6.085-11.961 6.085s-7.433-5.417-11.751-5.456c-4.666-.042-10.434 3.246-12.8 5.666z" style="fill:#ececec"/><path d="M94.665 139.03c-.074-2.427 1.78-4.896 1.78-4.896s2.023 1.894 1.93 4.6c-.094 2.705-1.633 4.747-1.633 4.747s-2.003-2.024-2.077-4.45z" style="fill:#979797"/><rect width="2.077" height="22.553" x="95.406" y="91.549" ry="1.41" style="fill:#ececec;paint-order:stroke fill markers;stroke-width:1.0193"/><path d="M77.304 23.592s6.467 2.64 9.2 4.748c1.58 1.22 4.006 4.451 4.006 4.451s2.894-3.242 4.748-4.303c1.439-.823 3.445-.458 4.748-1.483 1.133-.892 2.225-3.71 2.225-3.71l-4.748.594s-1.13-4.526-1.038-6.825c.104-2.59 1.78-7.568 1.78-7.568l-21.218-.148s4.544 6.068 5.49 9.644c.456 1.722 0 5.342 0 5.342z" style="fill:#ececec"/><path d="M76.398 8c1.001 1.24 2.315 2.726 3.428 3.426 2.887 1.816 6.383 3.069 9.793 2.967 2.424-.073 4.864-1.096 6.826-2.522 1.143-.83 2.42-2.377 3.515-3.871H76.4z" style="fill:#d8d8d8"/><path d="M139.44 19.92c4.034 1.896 13.75 6.584 20.557 10.822v-5.459c-2.642-1.212-11.663-5.08-20.557-5.363zM41.248 66.027s3.282 1.708 4.748 2.82c1.198.91 2.477 1.835 3.266 3.116.623 1.012 1.427 2.288 1.039 3.412-.197.57-1.725.414-2.524.148-1.598-.533-2.396-1.7-3.857-3.264-.797-.853-2.078-2.818-2.078-2.818s.105 2.084.594 2.967c1.186 2.142 4.635 2.7 5.341 5.045.44 1.459.34 3.803-1.039 4.45-1.802.847-3.715-1.523-5.342-2.671-1.457-1.029-3.857-3.71-3.857-3.71s1.454 2.846 2.523 4.007c1.341 1.455 4.483 2.502 4.155 4.453-.216 1.28-1.822.38-3.117.295-1.855-.121-3.5-1.341-5.045-2.373-1.223-.817-3.264-2.967-3.264-2.967s1.251 2.738 2.227 3.857c1.11 1.276 2.489 1.58 4.005 3.116 1.03 1.042-2.97-.28-4.302-.891-.865-.397-1.895-1.23-2.721-1.95v2.86c.88.395 2.82 1.24 4.197 1.467 1.795.297 4.06 1.061 5.455-.105.274-.23.211-1.05.211-1.05s2.587-.738 3.461-1.677c.257-.276.42-1.05.42-1.05s1.326-.015 1.889-.315c.72-.385 1.47-.995 1.68-1.783.194-.73-.526-2.203-.526-2.203s2.46-1.178 3.043-2.31c.53-1.025.106-3.462.106-3.462s2.457.63 3.672.42c1.88-.324 4.784-.643 5.14-2.518.125-.658-.129-1.208-.55-1.71-.274.54-.629 1.14-.995 1.439-1.174.96-2.786 1.53-4.302 1.484-1.552-.046-2.977-.978-4.305-1.78-1.653-1-2.714-2.866-4.451-3.71-1.501-.728-4.897-1.039-4.897-1.039z" style="fill:#ececec"/></svg>