<?xml version="1.0" encoding="UTF-8"?><svg id="a" xmlns="http://www.w3.org/2000/svg" width="192" height="192" viewBox="0 0 192 192"><g id="b"><circle cx="96" cy="96" r="88" style="fill:#8c72bd;"/><g><path d="M120.32,33.65c.62-1.59-.21-3.39-1.83-3.94-7.23-2.45-14.83-3.71-22.48-3.71-38.63,0-70,31.37-70,70s31.37,70,70,70c7.65,0,15.25-1.25,22.48-3.71,1.62-.55,2.46-2.35,1.83-3.94l-2.46-6.32c-.58-1.49-2.23-2.25-3.75-1.75-5.83,1.94-11.94,2.94-18.1,2.94-31.58,0-57.23-25.64-57.23-57.23s25.64-57.23,57.23-57.23c6.16,0,12.27,.99,18.1,2.94,1.52,.51,3.17-.25,3.75-1.75l2.46-6.32Z" style="fill:#bd9afe; fill-rule:evenodd;"/><path d="M136.65,149.16c1.04,1.36,3,1.58,4.31,.48,15.83-13.26,25.03-32.89,25.03-53.65s-9.21-40.38-25.03-53.65c-1.31-1.1-3.28-.87-4.31,.48l-4.12,5.39c-.97,1.27-.77,3.07,.45,4.11,12.8,10.84,20.24,26.8,20.24,43.67s-7.44,32.83-20.24,43.67c-1.22,1.03-1.42,2.84-.45,4.11l4.12,5.39Z" style="fill:#f7de81; fill-rule:evenodd;"/></g><g><path d="M118.7,126.32c1.03,1.38,3.04,1.63,4.34,.49,8.83-7.75,13.96-18.97,13.96-30.82s-5.13-23.07-13.96-30.82c-1.3-1.14-3.3-.89-4.34,.49l-3.87,5.17c-.92,1.23-.8,2.98,.34,4.02,5.93,5.38,9.36,13.05,9.36,21.14s-3.43,15.76-9.36,21.14c-1.14,1.03-1.26,2.79-.34,4.02l3.87,5.17Z" style="fill:#f7de81; fill-rule:evenodd;"/><path d="M96,124.54c-15.75,0-28.54-12.79-28.54-28.54s12.79-28.54,28.54-28.54c2.66,0,5.3,.37,7.85,1.1,1.46,.42,3-.39,3.55-1.81l2.36-6.04c.63-1.61-.22-3.45-1.88-3.95-3.85-1.17-7.85-1.76-11.88-1.76-22.63,0-41,18.37-41,41s18.37,41,41,41c4.03,0,8.04-.59,11.88-1.76,1.66-.5,2.51-2.34,1.88-3.95l-2.36-6.04c-.55-1.42-2.09-2.23-3.55-1.81-2.55,.73-5.19,1.1-7.85,1.1Z" style="fill:#bd9afe;"/></g><circle cx="96" cy="96" r="15" style="fill:#f7de81;"/></g></svg>