<?xml version="1.0" encoding="UTF-8"?><svg id="a" xmlns="http://www.w3.org/2000/svg" width="192" height="192" xmlns:xlink="http://www.w3.org/1999/xlink" viewBox="0 0 192 192"><defs><clipPath id="d"><path d="m96,184c48.6,0,88-39.4,88-88S144.6,8,96,8,8,47.4,8,96s39.4,88,88,88Z" style="fill:none;"/></clipPath></defs><g id="b"><g id="c"><g style="clip-path:url(#d);"><path d="m96,184c48.6,0,88-39.4,88-88S144.6,8,96,8,8,47.4,8,96s39.4,88,88,88Z" style="fill:#511119;"/><path id="e" d="m31.75,117.03c-1.08.02-2.37.11-3.18.37-1.62.52-1.33,3.64-1.33,3.64,0,0,.04,2.63-1.36,3.3-.06,1.57.16,3.41,1.36,4.96,2.02,2.6,4.33,7.57,8.14,13.11,3.81,5.54,10.16,14.2,12.65,18.25,2.48,4.04,5.54,8.6,6.98,11.26.8,1.48,5.83,11.76,6.32,13.17l104.89-8.42c1.86,0,3.59-.54,5.08-1.41-.68-.51-3.03-2.28-4.1-2.71-1.22-.49-4.94,0-4.94,0,0,0-.08-.2-1.68-2.53-1.59-2.33-7.59-4.45-9.63-5.72-2.04-1.27-12.7-4.21-12.7-4.21,0,0,.74-.65,1.68-1.92.94-1.27,1.14-2,1.14-2,0,0,1.31.24,3.39.73,2.08.49,4.33,1.75,7.35,3.35,3.02,1.59,6.78,1.02,8.45.69,1.67-.33,3.19-3.02,4.78-4.08,1.59-1.06,5.1-.45,5.1-.45,0,0-1.18-1.76-4.25-3.43-3.06-1.67-9.76-2.37-10.94-2.37s-2.61-.9-2.53-1.88-.61-2.04-1.55-3.23c-.94-1.18-5.06-1.18-5.06-1.18,0,0-3.55-.98-5.43-1.1-1.88-.12-6.57,0-10.74-.82-4.16-.82-9.76-1.18-10.58-1.26-.82-.08-21.19,0-25.11-.2-3.92-.2-5.14-.98-5.14-.98l-55.11-22.91s-.88-.04-1.96-.02Zm-5.87,7.31c-.18.09-.37.15-.6.16.23-.01.42-.08.6-.16Z" style="fill:#d2d2d2;"/><path id="f" d="m54.5,132.76c.69,1.39,2.43,11.78,4.39,16.86,1.96,5.08,4.97,17.09,6.7,20.79.9,1.92,7.15,14.98,8.17,16.93l92.48-10.67c1.86,0,3.59-.54,5.08-1.41-.68-.51-3.03-2.28-4.1-2.71-1.22-.49-4.94,0-4.94,0,0,0-.08-.2-1.68-2.53-1.59-2.33-7.59-4.45-9.63-5.72-2.04-1.27-12.7-4.21-12.7-4.21,0,0,.33-.34.77-.83l-11.09-2.48-26.21-8.43-12.82-8.09-34.42-7.5Z" style="fill:#dfdfdf;"/><path id="g" d="m74.16,133.72l-23.41-6.96c6.06,8.49,8.26,19.17,8.26,19.17,0,0,4.62,11.43,12.7,21.13,6.04,7.25,7.51,8.95,8.09,9.61h2.65c1.07-.49,2.45-1.23,3.93-2.33,3.12-2.31,4.97-3.7,6-5.31,1.04-1.62,1.96-5.05,3.06-6.35,1.1-1.31,2.21-2,2.41-2s7.39,6.21,8.62,6.66c1.22.45,2.98,1.59,4.78,1.1,1.8-.49,3.35-1.35,4.33-2.41.98-1.06,2.86-2.82,3.14-5.59.29-2.78.69-4.37.9-4.61.2-.24,4.37.37,6.7,1.27,2.33.9,6.17,2.53,8.13,2.9,1.61.3,2.26.28,2.67.25.38-.03,1.16-.12,1.16-.12,0,0,.74-.65,1.68-1.92.94-1.27,1.14-2,1.14-2,0,0,1.31.24,3.39.73,2.08.49,4.33,1.75,7.35,3.35,3.02,1.59,6.78,1.02,8.45.69,1.67-.33,3.19-3.02,4.78-4.08,1.59-1.06,5.1-.45,5.1-.45,0,0-1.18-1.76-4.25-3.43-3.06-1.67-9.76-2.37-10.94-2.37s-2.61-.9-2.53-1.88-.61-2.04-1.55-3.23c-.94-1.18-5.06-1.18-5.06-1.18,0,0-3.55-.98-5.43-1.1-1.88-.12-6.57,0-10.74-.82-4.16-.82-9.76-1.18-10.58-1.26-.82-.08-21.19,0-25.11-.2-3.92-.2-5.14-.98-5.14-.98l-14.67-6.25Z" style="fill:#ececec;"/><path id="h" d="m25.88,124.34c-.18.09-.37.15-.6.16-2.02.12-3.58,2.25-3.58,2.25,0,0-5.53.58-7.87,2.41l3.3,47.5h39.89c-.49-1.42-1.2-3.28-2-4.76-1.44-2.66-4.5-7.22-6.98-11.26s-8.84-12.7-12.65-18.25c-3.81-5.54-6.12-10.51-8.14-13.11-1.21-1.55-1.42-3.38-1.36-4.96Z" style="fill:#b02a3c;"/><path id="i" d="m119.34,21.67s-2.54.35-4.62,1.33c-2.08.98-5.66,3.46-5.66,3.46,0,0-.58-.34-7.22-2.54-6.64-2.19-13.22-2.25-24.94-1.91-11.72.35-22.4,8.31-25.23,10.16-2.83,1.85-12.65,13.05-16.34,16.92-3.7,3.87-7.45,7.33-7.45,7.33,0,0,.64.06,3.12-.58,2.48-.64,3.29-1.44,3.29-1.44l5.77-3.87s-3.81,7.33-4.73,9.76c-.92,2.43-.46,5.43-.46,5.43,0,0,2.66,10.63,3.75,24.6s-2.31,20.5-2.66,23.79c-.35,3.29-2.24,2.98-2.24,2.98l84.45-2.61s-.49,4.94-1.06,8.37c-.57,3.43-4.29,11.11-4.29,11.11,0,0,.61-.08,3.22-2.49,2.61-2.41,6.87-9.51,6.87-9.51,2.77-3.41,10.16-16.86,9.59-12.99-.58,3.87-1.5,8.31-1.5,8.31,0,0,8.08-15.71,10.22-21.65,2.14-5.95,4.33-20.04,4.33-20.04,0,0,.29.81,1.56,5.66s4.85,9.01,4.85,9.01c0,0-2.14-15.71-2.25-20.5-.12-4.79.75-17.09.58-19.46-.17-2.37-1.33-8.83-3.18-16.34-1.85-7.51-5.95-4.91-5.95-4.91,0,0-6.12,2.31-9.93,2.66-3.81.35-10.91-1.04-10.91-1.04,0,0-.23-.64-.41-4.04-.17-3.41-.58-4.97-.58-4.97h0Z" style="fill:#4a4a4a;"/><path id="j" d="m99.95,49.4c-.67,0-.84.01-1.05.05-.41.08-2.04,3.43-3.43,7.27s-3.35,6.94-5.02,15.35c-1.67,8.41-1.8,9.27-1.8,9.27,0,0-1.1-9.06-1.14-12.7s-.12-3.96-.12-3.96c0,0-3.56,6.53-5.81,14.21s-5.25,19.88-5.7,27.11c-.45,7.23-.37,10.25-.37,10.25,0,0-4.04-7.33-5.48-12.12-1.44-4.79-3.64-14.09-3.64-14.09,0,0-.31,5.59-.15,9.43s.28,6.29.28,6.29c0,0-3.14-5.51-4.37-9.72s-3.55-12.82-4.04-15.39c-.49-2.57-1.8-10.78-1.84-12.74l-.04-1.96s-2.86.04-5.02,2.29c-2.16,2.25-4.16,7.47-3.88,11.76s1.23,7.23,2,8.09,2.16,1.55,2.24,1.84c.08.29-.32,2.82-.16,3.06s.33.65.94,1.35.69,1.23.69,1.23c0,0-.86-.57-1.67.04s-1.47,1.71-2.04,3.47c-.57,1.76-1.06,3.55-2.69,5.47-1.63,1.92-1.67,1.84-1.67,1.84,0,0,1.22-2.7,1.26-4.17.04-1.47-.33-2.37-1.06-.9-.73,1.47-.9,5.43-4.49,10.33-3.59,4.9-4.34,5.03-5.1,5.33-.63.13-1.14.11-1.88.09.47,1.31,1.67,2.95,4.25,3.8,4.33,1.43,6.49,2.65,7.14,3.19s2.41,3.68,4.33,3.96,5.43.08,5.43.08c0,0,2.9,2,5.51,3.27,2.61,1.27,3.06,1.63,4.45,1.67,1.39.04,4.21-.2,4.94-.04.73.16,4.98,1.76,6.16,2.9s3.06,2.08,5.23,2.16c2.16.08,4.82,1.14,5.51,1.51.43.23,1.39.29,2.18.31,0-.11.06-.53.55-1.45.57-1.06,1.76-1.14,1.76-1.14,0,0,1.96,1.1,2.98,1.51,1.02.41,4.98.45,6.29.08,1.31-.37,3.1-2.29,3.1-2.29,0,0,6.25-9.35,8.53-12.41,2.23-2.99,5.84-9.19,6.02-9.5l.02-.06s4.62-9.3,5.17-11.18c.55-1.88,1.76-8.23,2.77-10.83s3.23-6.64,3.72-8.34c.49-1.7.87-6.41,1.04-11.64.17-5.23.43-10.34.26-11.14-.17-.81-4.96-4.48-10.72-6.93-5.76-2.45-12.01-5.15-16.37-5.15-2.18,0-3.35-.01-4.02-.01h0Z" style="fill:#d6c8ba;"/></g></g></g></svg>