<?xml version="1.0" encoding="UTF-8"?>
<svg id="a" width="192" height="192" version="1.1" viewBox="0 0 192 192" xmlns="http://www.w3.org/2000/svg">
 <defs>
  <clipPath id="d">
   <path d="m96,184c48.6,0,88-39.4,88-88S144.6,8,96,8,8,47.4,8,96s39.4,88,88,88Z" fill="none"/>
  </clipPath>
 </defs>
 <g id="b">
  <g id="c">
   <g clip-path="url(#d)">
    <path d="m96,184c48.6,0,88-39.4,88-88S144.6,8,96,8,8,47.4,8,96s39.4,88,88,88Z" fill="#ba6561"/>
    <path id="e" d="m31.75 117.03c-1.08 0.02-2.37 0.11-3.18 0.37-1.62 0.52-1.33 3.64-1.33 3.64s0.04 2.63-1.36 3.3c-0.06 1.57 0.16 3.41 1.36 4.96 2.02 2.6 4.33 7.57 8.14 13.11s10.16 14.2 12.65 18.25c2.48 4.04 5.54 8.6 6.98 11.26 0.8 1.48 5.83 11.76 6.32 13.17l104.89-8.42c1.86 0 3.59-0.54 5.08-1.41-0.68-0.51-3.03-2.28-4.1-2.71-1.22-0.49-4.94 0-4.94 0s-0.08-0.2-1.68-2.53c-1.59-2.33-7.59-4.45-9.63-5.72s-12.7-4.21-12.7-4.21 0.74-0.65 1.68-1.92 1.14-2 1.14-2 1.31 0.24 3.39 0.73 4.33 1.75 7.35 3.35c3.02 1.59 6.78 1.02 8.45 0.69s3.19-3.02 4.78-4.08 5.1-0.45 5.1-0.45-1.18-1.76-4.25-3.43c-3.06-1.67-9.76-2.37-10.94-2.37s-2.61-0.9-2.53-1.88-0.61-2.04-1.55-3.23c-0.94-1.18-5.06-1.18-5.06-1.18s-3.55-0.98-5.43-1.1-6.57 0-10.74-0.82c-4.16-0.82-9.76-1.18-10.58-1.26s-21.19 0-25.11-0.2-5.14-0.98-5.14-0.98l-55.11-22.91s-0.88-0.04-1.96-0.02zm-5.87 7.31c-0.18 0.09-0.37 0.15-0.6 0.16 0.23-0.01 0.42-0.08 0.6-0.16z" fill="#d2d2d2"/>
    <path id="f" d="m54.5 132.76c0.69 1.39 2.43 11.78 4.39 16.86s4.97 17.09 6.7 20.79c0.9 1.92 7.15 14.98 8.17 16.93l92.48-10.67c1.86 0 3.59-0.54 5.08-1.41-0.68-0.51-3.03-2.28-4.1-2.71-1.22-0.49-4.94 0-4.94 0s-0.08-0.2-1.68-2.53c-1.59-2.33-7.59-4.45-9.63-5.72s-12.7-4.21-12.7-4.21 0.33-0.34 0.77-0.83l-11.09-2.48-26.21-8.43-12.82-8.09-34.42-7.5z" fill="#dfdfdf"/>
    <path id="g" d="m74.16 133.72-23.41-6.96c6.06 8.49 8.26 19.17 8.26 19.17s4.62 11.43 12.7 21.13c6.04 7.25 7.51 8.95 8.09 9.61h2.65c1.07-0.49 2.45-1.23 3.93-2.33 3.12-2.31 4.97-3.7 6-5.31 1.04-1.62 1.96-5.05 3.06-6.35 1.1-1.31 2.21-2 2.41-2s7.39 6.21 8.62 6.66c1.22 0.45 2.98 1.59 4.78 1.1s3.35-1.35 4.33-2.41 2.86-2.82 3.14-5.59c0.29-2.78 0.69-4.37 0.9-4.61 0.2-0.24 4.37 0.37 6.7 1.27s6.17 2.53 8.13 2.9c1.61 0.3 2.26 0.28 2.67 0.25 0.38-0.03 1.16-0.12 1.16-0.12s0.74-0.65 1.68-1.92 1.14-2 1.14-2 1.31 0.24 3.39 0.73 4.33 1.75 7.35 3.35c3.02 1.59 6.78 1.02 8.45 0.69s3.19-3.02 4.78-4.08 5.1-0.45 5.1-0.45-1.18-1.76-4.25-3.43c-3.06-1.67-9.76-2.37-10.94-2.37s-2.61-0.9-2.53-1.88-0.61-2.04-1.55-3.23c-0.94-1.18-5.06-1.18-5.06-1.18s-3.55-0.98-5.43-1.1-6.57 0-10.74-0.82c-4.16-0.82-9.76-1.18-10.58-1.26s-21.19 0-25.11-0.2-5.14-0.98-5.14-0.98l-14.67-6.25z" fill="#ececec"/>
    <path id="h" d="m25.88,124.34c-.18.09-.37.15-.6.16-2.02.12-3.58,2.25-3.58,2.25,0,0-5.53.58-7.87,2.41l3.3,47.5h39.89c-.49-1.42-1.2-3.28-2-4.76-1.44-2.66-4.5-7.22-6.98-11.26s-8.84-12.7-12.65-18.25c-3.81-5.54-6.12-10.51-8.14-13.11-1.21-1.55-1.42-3.38-1.36-4.96Z" fill="#ff837d"/>
    <path id="i" d="m119.34 21.67s-2.54 0.35-4.62 1.33-5.66 3.46-5.66 3.46-0.58-0.34-7.22-2.54c-6.64-2.19-13.22-2.25-24.94-1.91-11.72 0.35-22.4 8.31-25.23 10.16s-12.65 13.05-16.34 16.92c-3.7 3.87-7.45 7.33-7.45 7.33s0.64 0.06 3.12-0.58 3.29-1.44 3.29-1.44l5.77-3.87s-3.81 7.33-4.73 9.76-0.46 5.43-0.46 5.43 2.66 10.63 3.75 24.6-2.31 20.5-2.66 23.79-2.24 2.98-2.24 2.98l84.45-2.61s-0.49 4.94-1.06 8.37-4.29 11.11-4.29 11.11 0.61-0.08 3.22-2.49 6.87-9.51 6.87-9.51c2.77-3.41 10.16-16.86 9.59-12.99-0.58 3.87-1.5 8.31-1.5 8.31s8.08-15.71 10.22-21.65c2.14-5.95 4.33-20.04 4.33-20.04s0.29 0.81 1.56 5.66 4.85 9.01 4.85 9.01-2.14-15.71-2.25-20.5c-0.12-4.79 0.75-17.09 0.58-19.46s-1.33-8.83-3.18-16.34-5.95-4.91-5.95-4.91-6.12 2.31-9.93 2.66-10.91-1.04-10.91-1.04-0.23-0.64-0.41-4.04c-0.17-3.41-0.58-4.97-0.58-4.97z" fill="#4a4a4a"/>
    <path id="j" d="m99.95 49.4c-0.67 0-0.84 0.01-1.05 0.05-0.41 0.08-2.04 3.43-3.43 7.27s-3.35 6.94-5.02 15.35-1.8 9.27-1.8 9.27-1.1-9.06-1.14-12.7-0.12-3.96-0.12-3.96-3.56 6.53-5.81 14.21-5.25 19.88-5.7 27.11-0.37 10.25-0.37 10.25-4.04-7.33-5.48-12.12-3.64-14.09-3.64-14.09-0.31 5.59-0.15 9.43 0.28 6.29 0.28 6.29-3.14-5.51-4.37-9.72-3.55-12.82-4.04-15.39-1.8-10.78-1.84-12.74l-0.04-1.96s-2.86 0.04-5.02 2.29-4.16 7.47-3.88 11.76 1.23 7.23 2 8.09 2.16 1.55 2.24 1.84-0.32 2.82-0.16 3.06 0.33 0.65 0.94 1.35 0.69 1.23 0.69 1.23-0.86-0.57-1.67 0.04-1.47 1.71-2.04 3.47-1.06 3.55-2.69 5.47-1.67 1.84-1.67 1.84 1.22-2.7 1.26-4.17-0.33-2.37-1.06-0.9-0.9 5.43-4.49 10.33-4.34 5.03-5.1 5.33c-0.63 0.13-1.14 0.11-1.88 0.09 0.47 1.31 1.67 2.95 4.25 3.8 4.33 1.43 6.49 2.65 7.14 3.19s2.41 3.68 4.33 3.96 5.43 0.08 5.43 0.08 2.9 2 5.51 3.27 3.06 1.63 4.45 1.67 4.21-0.2 4.94-0.04 4.98 1.76 6.16 2.9 3.06 2.08 5.23 2.16c2.16 0.08 4.82 1.14 5.51 1.51 0.43 0.23 1.39 0.29 2.18 0.31 0-0.11 0.06-0.53 0.55-1.45 0.57-1.06 1.76-1.14 1.76-1.14s1.96 1.1 2.98 1.51 4.98 0.45 6.29 0.08 3.1-2.29 3.1-2.29 6.25-9.35 8.53-12.41c2.23-2.99 5.84-9.19 6.02-9.5l0.02-0.06s4.62-9.3 5.17-11.18 1.76-8.23 2.77-10.83 3.23-6.64 3.72-8.34 0.87-6.41 1.04-11.64 0.43-10.34 0.26-11.14c-0.17-0.81-4.96-4.48-10.72-6.93s-12.01-5.15-16.37-5.15c-2.18 0-3.35-0.01-4.02-0.01z" fill="#d6c8ba"/>
   </g>
  </g>
 </g>
</svg>
