<svg xmlns="http://www.w3.org/2000/svg" id="svg16" version="1.1" viewBox="0 0 192 192"><defs id="defs4"><style id="style2">.a{fill:none;stroke:#b1b5bd;stroke-linecap:round;stroke-linejoin:round;isolation:isolate;opacity:.63}</style></defs><rect id="rect829" width="128" height="128" x="32" y="8" ry="64" style="opacity:1;vector-effect:none;fill:#56595b;fill-opacity:1;fill-rule:evenodd;paint-order:stroke fill markers"/><path id="path831" d="M52 136c0 12 36 44 44 44s44-32 44-44c0 0-16 12-44 12s-44-12-44-12z" style="fill:#98dc9a;stroke:#98dc9a;stroke-width:8;stroke-linecap:round;stroke-linejoin:round;stroke-miterlimit:4;stroke-dasharray:none;stroke-opacity:1"/><path id="path833" d="M96 48c-28 0-52 8-52 28 0 9.428 4 20 20 20 10.75 0 16-4 32-4s21.25 4 32 4c16 0 20-10.572 20-20 0-20-24-28-52-28z" style="fill:#fff;stroke:none;stroke-width:1px;stroke-linecap:butt;stroke-linejoin:miter;stroke-opacity:1"/><rect id="rect851" width="16" height="20" x="60" y="64" rx="8" ry="10" style="opacity:1;vector-effect:none;fill:#56595b;fill-opacity:1;fill-rule:evenodd;stroke:none;stroke-width:8;stroke-linecap:round;stroke-linejoin:round;stroke-miterlimit:4;stroke-dasharray:none;paint-order:stroke fill markers"/><rect id="rect851-7" width="16" height="20" x="116" y="64" rx="8" ry="10" style="opacity:1;vector-effect:none;fill:#56595b;fill-opacity:1;fill-rule:evenodd;stroke:none;stroke-width:8;stroke-linecap:round;stroke-linejoin:round;stroke-miterlimit:4;stroke-dasharray:none;paint-order:stroke fill markers"/></svg>