<?xml version="1.0" encoding="UTF-8"?>
<svg version="1.1" viewBox="0 0 192 192" xmlns="http://www.w3.org/2000/svg">
 <defs>
  <style>.cls-1 {
        fill: #eb1000;
      }

      .cls-2 {
        fill: #fff;
      }</style>
 </defs>
 <rect class="a" x="20" y="20" width="152" height="152" rx="10" style="fill:#ff837d"/>
 <g transform="matrix(2.6488 0 0 2.6488 18.996 30.679)">
  <g id="Outlined_Mnemonics_Logos" data-name="Outlined Mnemonics &amp;amp; Logos">
   <g id="Firefly_Mnemonic_One_Sparkle" data-name="Firefly Mnemonic One Sparkle">
    <path class="cls-2" d="m21.57 37.57c0 0.22-0.1 0.32-0.32 0.32h-4.57c-0.18 0-0.25-0.13-0.25-0.32v-23.63c0-0.21 0.07-0.29 0.28-0.29h14.65c0.25 0 0.31 0.07 0.35 0.31l0.41 3.99c0.04 0.22-0.07 0.32-0.31 0.32h-10.24v5.62h9.23c0.21 0 0.31 0.07 0.31 0.29v4.04c0 0.22-0.11 0.29-0.29 0.29h-9.25z"/>
    <path class="cls-2" d="m34.86 19.81c0-0.21 0.1-0.31 0.31-0.31h4.55c0.24 0 0.31 0.06 0.31 0.3v17.74c0 0.24-0.07 0.34-0.34 0.34h-4.46c-0.25 0-0.37-0.11-0.37-0.35v-17.73z"/>
    <path class="cls-2" d="m38.56 15.5 2.26 0.51c0.89 0.2 1.51-0.86 0.89-1.53l-1.57-1.7c-0.21-0.22-0.29-0.53-0.22-0.83l0.51-2.26c0.2-0.89-0.87-1.5-1.54-0.88l-1.7 1.57c-0.22 0.21-0.54 0.29-0.83 0.22l-2.26-0.51c-0.89-0.2-1.51 0.86-0.89 1.53l1.57 1.7c0.21 0.22 0.29 0.53 0.22 0.83l-0.51 2.26c-0.2 0.89 0.87 1.5 1.54 0.88l1.7-1.57c0.22-0.21 0.54-0.29 0.83-0.22z"/>
   </g>
  </g>
 </g>
</svg>
