<svg xmlns="http://www.w3.org/2000/svg" xml:space="preserve" id="svg15" width="192" height="192" fill="none" version="1.1"><g id="g2951" transform="matrix(.99346 0 0 .99346 .13 1.124)"><path id="path2" fill="#511119" fill-rule="evenodd" d="M30 19h133c5.52 0 10 4.48 10 10v133c0 5.52-4.48 10-10 10H30c-5.52 0-10-4.48-10-10V29c0-5.52 4.48-10 10-10z" clip-rule="evenodd" style="fill:#8c72bd;fill-opacity:1"/><path id="path4" fill="#ffb0ac" d="m89.2 119.84-9.13-14.45-9.14 14.45H60l14.96-22.22-14.09-20.93h10.86l8.34 13.09 8.34-13.09h10.86l-14.1 20.86 14.89 22.29z" style="fill:#bd9aff;fill-opacity:1"/><path id="path6" fill="#ffb0ac" d="M133 70.58v49.26l-9.14.07v-2.59c-2.16 1.94-4.89 3.1-8.2 3.1-7.98 0-14.24-6.62-14.24-14.96s6.26-14.96 14.25-14.96c3.31 0 6.04 1.15 8.2 3.1V70.58Zm-8.7 34.88c0-3.81-3.09-6.83-6.83-6.83-3.81 0-6.83 3.02-6.83 6.83s3.02 6.83 6.83 6.83c3.73 0 6.83-3.02 6.83-6.83z" style="fill:#bd9aff;fill-opacity:1"/></g><defs id="defs13"><clipPath id="clip0"><path id="rect2931" fill="#fff" d="M0 0h192v192H0z"/></clipPath><style id="style2">.cls-1{fill:#dc505e}.cls-2{fill:#511119}.cls-3{fill:#ffb0ac}</style></defs><g id="g2946" style="fill:none" transform="translate(12.802 -254.275)"><g id="g2929" clip-path="url(#clip0)"><path id="path2923" fill="#511119" fill-rule="evenodd" d="M30 19h133c5.52 0 10 4.48 10 10v133c0 5.52-4.48 10-10 10H30c-5.52 0-10-4.48-10-10V29c0-5.52 4.48-10 10-10z" clip-rule="evenodd"/><path id="path2925" fill="#ffb0ac" d="m89.2 119.84-9.13-14.45-9.14 14.45H60l14.96-22.22-14.09-20.93h10.86l8.34 13.09 8.34-13.09h10.86l-14.1 20.86 14.89 22.29z"/><path id="path2927" fill="#ffb0ac" d="M133 70.58v49.26l-9.14.07v-2.59c-2.16 1.94-4.89 3.1-8.2 3.1-7.98 0-14.24-6.62-14.24-14.96s6.26-14.96 14.25-14.96c3.31 0 6.04 1.15 8.2 3.1V70.58Zm-8.7 34.88c0-3.81-3.09-6.83-6.83-6.83-3.81 0-6.83 3.02-6.83 6.83s3.02 6.83 6.83 6.83c3.73 0 6.83-3.02 6.83-6.83z"/></g></g></svg>