<svg xmlns="http://www.w3.org/2000/svg" width="192" height="192" fill="none"><g clip-path="url(#a)"><path fill="#56595B" fill-rule="evenodd" d="M29 167c-2.76 0-5-2.24-5-5V29c0-2.76 2.24-5 5-5h133c2.76 0 5 2.24 5 5v133c0 2.76-2.24 5-5 5H29Z" clip-rule="evenodd"/><path fill="#9ABEFF" d="M162 29v133H29V29h133Zm0-10H29c-5.52 0-10 4.48-10 10v133c0 5.52 4.48 10 10 10h133c5.52 0 10-4.48 10-10V29c0-5.52-4.48-10-10-10Z"/><path fill="#fff" d="M72.88 69.6c-1.23.9-1.59 1.79-1.72 2.34-.03.11-.43 2.04.96 3.23.99.85 2.48.96 3.71.28 1.96-.84 4.92-2.09 8.53-3.58 11.31-4.65 14.26-5.49 17.13-6.05 2.21-.43 5.63-.94 9.97-.89-1.19.57-2.38 1.17-3.58 1.79-12.6 6.56-22.95 14.73-31.43 23.25-.1.19-.6 1.14-.22 1.99.47 1.04 2.11 1.63 3.8.93a79.51 79.51 0 0 1 6.22-3.1c3.44-1.53 5.88-2.32 9.8-3.59 0 0 7.75-2.5 12.49-1.38.13.03.51.12.53.3.02.15-.21.3-.34.37a131.018 131.018 0 0 0-27.4 20.68c-.11.22-.12.48 0 .66.18.27.65.36 1.03.09 3.43-3.19 6.49-5.57 8.74-7.2 4.15-3.01 7.63-5.01 13.69-8.46 3.57-2.03 6.58-3.66 8.7-4.78.21-.16 1.06-.84 1-1.71-.02-.34-.21-.96-1.54-1.7-2.92-1.63-7.01-1.4-7.47-1.38-4.07.26-8.28 1.04-13.23 2.64-1.96.63-3.56 1.23-4.63 1.65 3.44-2.71 7.28-5.5 11.55-8.25 6.52-4.2 12.77-7.49 18.43-10.09.29-.09 1.53-.54 2.07-1.77.62-1.41-.15-2.82-.38-3.23-.56-1.02-1.84-2.41-5.3-3.16-12.64-2.75-36.75 6.94-41.11 10.12Z"/><path fill="#56595B" d="M92.72 118.76c2.53-.52 4.18-2.23 4.95-3.01 1.2-1.23 1.86-2.36 2.26-3.03l.17-.29c.05-.08.11-.17.17-.25L94.59 122l-1.87-3.24Z"/><path fill="#9ABEFF" d="M102.61 105.51c-.46 0-.92.05-1.4.16-2.11.51-4.22 2.27-5.37 4.11-.4.64-.8 1.48-1.77 2.48-.68.7-1.57 1.59-2.77 1.65h-.06c-.2 0-.65-.06-1.95-.66-2.24-1.03-2.85-1.75-3.75-1.75-.06 0-.12 0-.19.01-.48.05-1.15.3-1.89 1.22L94.59 132l13.87-24.02c-.44-.38-2.9-2.47-5.85-2.47Z"/></g><defs><clipPath id="a"><path fill="#fff" d="M0 0h192v192H0z"/></clipPath></defs></svg>