<?xml version="1.0" encoding="UTF-8"?>
<svg version="1.0" viewBox="0 0 192 192" xmlns="http://www.w3.org/2000/svg"><rect x="8" y="32" width="176" height="128" rx="10" ry="10" fill="#8c72bd"/><path d="m85.273 48.89h-30.189l-31.383 40.151h6.0984l30.765-39.361v39.387h25.168v-4.7258h-19.779v-30.722h19.32z" fill="#fff"/><path d="m136.39 89.103v-40.173h4.1022l22.723 30.709v-30.709h5.0836v40.173h-4.0477l-22.775-30.715v30.715z" fill="#fff"/><path d="m110.01 48a21.648 20.999 0 00-21.645 21 21.648 20.999 0 0021.645 21 21.648 20.999 0 0021.652-21 21.648 20.999 0 00-21.652-21zm-.12301 4.5838a16.923 16.414 0 0116.923 16.417 16.923 16.414 0 01-16.923 16.416 16.923 16.414 0 01-16.923-16.416 16.923 16.414 0 0116.923-16.417z" fill="#fff"/><path d="m81.183 62.241c-15.557.000419-28.171 2.9983-28.183 6.6983-.0045 3.7028 12.615 6.7054 28.183 6.7054 15.572.000517 28.196-3.0021 28.191-6.7054-.008-2.4014-5.4151-4.6153-14.153-5.8085-.20578-.02632-.38523.1178-.40162.33722-.01631.2199.13774.40892.34326.43617 6.2582.83846 9.977 2.1893 9.9681 3.6298-.007 2.4641-10.721 4.4607-23.933 4.4607-13.212.000157-23.925-1.9966-23.933-4.4607-.01409-2.4669 10.706-4.4681 23.933-4.4678 1.0074-.000891 2.0139.01033 3.0137.03152.2073.0049.38716-.15865.40429-.40002.01743-.24137-.13908-.41415-.3463-.41993-1.0246-.02632-2.0549-.04189-3.0861-.04189z" fill="#fff"/><text x="66.001572" y="144.60001" style="fill:#ffffff;font-family:Now;font-size:58px" xml:space="preserve"><tspan x="66.001572" y="144.60001">Pa</tspan></text><text x="139.29907" y="130.10001" style="fill:#ffffff;font-family:Now;font-size:58px" xml:space="preserve"><tspan x="139.29907" y="130.10001">y</tspan></text></svg>
