<?xml version="1.0" encoding="UTF-8"?><svg id="a" xmlns="http://www.w3.org/2000/svg" width="192" height="192" viewBox="0 0 192 192"><g id="b"><g id="c"><rect x="32" y="8" width="128" height="176" rx="10" ry="10" style="fill:#fff; stroke-width:0px;"/><path d="m119.01,119.14c-15.87,6.16-24.35-6.41-38.72-2.54-4.61,1.24-3.98,1.63-7.31,3.3v17.25h46.03v-18.01Z" style="fill:#ececec; fill-rule:evenodd; stroke-width:0px;"/><path d="m117.7,81.91v-39.23c0-.36.15-.71.41-.95l3.09-2.88c1.14-1.06,1.82-2.59,1.59-4.13-.09-.61-.3-1.19-.63-1.71-.8-1.28-2.16-2.01-3.75-2.01h-44.78c-1.59,0-2.96.73-3.75,2.01-.33.52-.53,1.1-.63,1.71-.23,1.53.45,3.06,1.58,4.12l2.79,2.63c.52.49.67.83.67,1.19v39.24h0c-1.7,0-3.07,1.38-3.07,3.08v51.03c-1.07.42-1.97,1.34-2.44,2.59l-1.48,3.93c-2.03.57-3.53,2.44-3.53,4.65v2.39c0,1.92,1.56,3.47,3.47,3.47h3.83c0,4.39,3.56,7.95,7.95,7.95h33.96c4.39,0,7.95-3.56,7.95-7.95h0s3.83,0,3.83,0c1.92,0,3.47-1.56,3.47-3.47v-2.39c0-2.21-1.5-4.08-3.53-4.65l-1.48-3.93c-.47-1.25-1.37-2.17-2.44-2.59v-51.03c0-1.7-1.38-3.08-3.08-3.08h0Zm-44.86-45.88c-.18-.51-.11-.93.04-1.16.05-.09.22-.35.77-.35h44.78c.55,0,.71.26.76.35.14.23.22.64.04,1.16l-3.59,3.21c-.24.21-.55.33-.87.33h-37.53c-.32,0-.63-.12-.87-.34l-3.53-3.2Zm34.23,62.03h10.18v6.64h-10.18c-.97,0-1.76.79-1.76,1.76h0c0,.97.79,1.76,1.76,1.76h10.18v6.64h-10.15c-.97,0-1.76.79-1.76,1.76h0c0,.97.79,1.76,1.76,1.76h10.15v6.64h-10.18c-.97,0-1.76.79-1.76,1.76h0c0,.97.79,1.76,1.76,1.76h10.18v5.92c0,.72-.58,1.3-1.3,1.3h-39.91c-.72,0-1.3-.58-1.3-1.3v-47.73c0-.72.58-1.3,1.3-1.3h39.91c.72,0,1.3.58,1.3,1.3v7.82h-10.18c-.97,0-1.76.79-1.76,1.76h0c0,.97.79,1.76,1.76,1.76Zm-29.25-17.46v-36.22c0-.72.58-1.3,1.3-1.3h33.76c.72,0,1.3.58,1.3,1.3v36.22c0,.72-.58,1.3-1.3,1.3h-33.76c-.72,0-1.3-.58-1.3-1.3Zm-4.46,58.67h45.28c.51,0,.98.3,1.19.77l.71,1.57c.15.34-.1.73-.47.73h-48.12c-.38,0-.63-.39-.47-.73l.71-1.57c.21-.47.67-.77,1.19-.77Zm51.35,7.24v2.36c0,.36-.29.65-.65.65h-56.11c-.36,0-.65-.29-.65-.65v-2.36c0-.36.29-.65.65-.65h56.11c.36,0,.65.29.65.65Z" style="fill:#9abeff; stroke-width:0px;"/></g></g></svg>