<svg xmlns="http://www.w3.org/2000/svg" width="192" height="192"><path d="M96 40c-20.8 0-36.596 3.127-47.299 6.338-10.703 3.21-16.816 6.803-16.816 6.803a8 8 0 0 0-2.541 2.422S26.429 60.3 24.238 69.06 20 91.468 20 112c0 20.533 2.048 34.179 4.239 42.939 2.19 8.76 5.105 13.498 5.105 13.498a8 8 0 0 0 1.855 1.962s5.548 3.962 15.893 7.229c10.346 3.267 26.182 6.371 48.909 6.371 22.726 0 38.563-3.104 48.907-6.371 10.347-3.267 15.894-7.229 15.894-7.229a8.002 8.002 0 0 0 1.855-1.963s2.915-4.737 5.106-13.498c2.19-8.76 4.238-22.405 4.238-42.938s-2.048-34.18-4.238-42.94c-2.19-8.76-5.106-13.497-5.106-13.497a8.002 8.002 0 0 0-2.541-2.422s-6.113-3.592-16.816-6.803S116.801 40 96.001 40z" style="color-rendering:auto;color:#000;dominant-baseline:auto;fill:#728dbe;font-feature-settings:normal;font-variant-alternates:normal;font-variant-caps:normal;font-variant-ligatures:normal;font-variant-numeric:normal;font-variant-position:normal;image-rendering:auto;isolation:auto;mix-blend-mode:normal;shape-padding:0;shape-rendering:auto;solid-color:#000;text-decoration-color:#000;text-decoration-line:none;text-decoration-style:solid;text-indent:0;text-orientation:mixed;text-transform:none;white-space:normal"/><path d="M68.901 23.013c-3.526-2.237-3.393-6.487-1.473-8.726 1.77-2.065 6.09-1.652 8.16.113 10.084 8.605 16.307 15.542 20.964 15.752 3.737.169 21.562-13.094 34.451-20.738 2.307-1.368 6.508-2.31 8.046-.113 1.831 2.615 1.286 6.654-3.4 8.953-7.637 3.746-33.385 17.108-39.096 16.999-4.3-.083-19.813-7.267-27.651-12.24z" style="fill:#728dbe;stroke-width:1.0801"/><path d="M135.48 56.01a12.004 12.004 0 0 0-11.121 9.08s-4.64 18.487-.39 41.387c1.389 7.482 9.302 11.8 16.345 8.916 0 0 17.067-6.487 31.273-18.449-.694-12.242-2.18-21.202-3.757-27.592-15.324-9.622-28.918-12.994-28.918-12.994a12 12 0 0 0-3.432-.348z" style="color-rendering:auto;color:#000;dominant-baseline:auto;fill:#9abeff;font-feature-settings:normal;font-variant-alternates:normal;font-variant-caps:normal;font-variant-ligatures:normal;font-variant-numeric:normal;font-variant-position:normal;image-rendering:auto;isolation:auto;mix-blend-mode:normal;shape-padding:0;shape-rendering:auto;solid-color:#000;text-decoration-color:#000;text-decoration-line:none;text-decoration-style:solid;text-indent:0;text-orientation:mixed;text-transform:none;white-space:normal"/><path d="M42 56a30 30 0 0 0-14.762 3.926c-.936 2.237-2.034 5.27-3 9.135-1.984 7.935-3.836 19.936-4.17 37.373A30 30 0 0 0 42 116a30 30 0 0 0 30-30 30 30 0 0 0-30-30z" style="fill:#ff837d;paint-order:stroke fill markers;stroke-linecap:round;stroke-linejoin:round;stroke-width:24"/><path d="M60 136s12 12 36 12 36-12 36-12" style="fill:none;stroke-linecap:round;stroke-linejoin:round;stroke-width:8;stroke:#fff"/><path d="M88 68a12.001 12.001 0 0 0-11.969 11.145l-2 28A12.001 12.001 0 0 0 86 120h20a12.001 12.001 0 0 0 11.969-12.855l-2-28A12.001 12.001 0 0 0 104 68z" style="color-rendering:auto;color:#000;dominant-baseline:auto;fill:#98dc9a;font-feature-settings:normal;font-variant-alternates:normal;font-variant-caps:normal;font-variant-ligatures:normal;font-variant-numeric:normal;font-variant-position:normal;image-rendering:auto;isolation:auto;mix-blend-mode:normal;shape-padding:0;shape-rendering:auto;solid-color:#000;text-decoration-color:#000;text-decoration-line:none;text-decoration-style:solid;text-indent:0;text-orientation:mixed;text-transform:none;white-space:normal"/><circle cx="46" cy="86" r="10" style="fill:#56595b;paint-order:stroke fill markers"/><circle cx="146" cy="86" r="10" style="fill:#56595b;paint-order:stroke fill markers"/></svg>