<svg xmlns="http://www.w3.org/2000/svg" id="svg2" width="192" height="192" version="1.1"><g id="layer1" transform="translate(0 -860.362)"><rect id="rect2249" width="153" height="153" x="19.5" y="879.862" rx="10" style="fill:#575a5c;fill-opacity:1;fill-rule:evenodd;stroke:none;stroke-width:1;stroke-opacity:1"/><g id="g2133" transform="matrix(.87635 0 0 .87635 11.87 118.25)"><path id="path2255" d="M112.386 952.01v.004l.036-.003a1.506 1.302 0 0 0-.036 0zm.046 0c.13.003.26.02.382.049a1.506 1.302 0 0 0-.382-.048zm.385.05c.122.03.239.073.347.127a1.506 1.302 0 0 0-.347-.126zm.356.132c.105.054.202.118.29.192a1.506 1.302 0 0 0-.29-.192zm.308.209c.087.076.164.16.228.254a1.506 1.302 0 0 0-.228-.254zm5.932 8.797v28.958h16.731a1.506 1.302 0 0 0 1.303-1.954l-13.171-19.722z" style="fill:#fed5d3;fill-opacity:1;stroke-width:1.05322;paint-order:markers fill stroke"/><path id="path2263" d="M112.386 952.011a1.506 1.302 0 0 0-1.304.652l-13.173 19.723-10.562 15.817a1.506 1.302 0 0 0 1.304 1.953h23.735z" style="fill:#b96460;fill-opacity:1;stroke-width:1.05322;paint-order:markers fill stroke"/><path id="path2253" d="M80.81 941.278a3.67 3.828 0 0 0-3.15 1.914l-11.406 20.61-3.178 5.744-1.249 2.257-6.98 12.61a3.67 3.828 0 0 0-.028.053 3.67 3.828 0 0 0 3.148 5.69h5.4l3.856-8.39h27.23l3.855 8.39h5.397a3.67 3.828 0 0 0 3.137-5.717l-.013-.025-11.407-20.611-3.177-5.743-8.229-14.868-.012-.02a3.67 3.828 0 0 0-.016-.03 3.67 3.828 0 0 0-3.178-1.864zm.028 10.86 9.186 19.99H71.651Z" style="fill:#fe827c;fill-opacity:1;stroke-width:1.28103;paint-order:markers fill stroke"/><path id="path2251" d="m80.838 952.139-9.188 19.99h18.373z" style="fill:#fed5d3;fill-opacity:1;stroke-width:1.06627;paint-order:markers fill stroke"/><path id="path2310" d="M91.645 981.766H67.223l-3.855 8.39h25.277a1.506 1.302 0 0 1-.097-.003 1.506 1.302 0 0 1-.098-.009 1.506 1.302 0 0 1-.098-.015 1.506 1.302 0 0 1-.095-.018 1.506 1.302 0 0 1-.095-.025 1.506 1.302 0 0 1-.09-.031 1.506 1.302 0 0 1-.09-.035 1.506 1.302 0 0 1-.087-.04 1.506 1.302 0 0 1-.085-.045 1.506 1.302 0 0 1-.08-.05 1.506 1.302 0 0 1-.074-.055 1.506 1.302 0 0 1-.073-.058 1.506 1.302 0 0 1-.066-.063 1.506 1.302 0 0 1-.064-.065 1.506 1.302 0 0 1-.056-.07 1.506 1.302 0 0 1-.051-.072 1.506 1.302 0 0 1-.047-.075 1.506 1.302 0 0 1-.04-.076 1.506 1.302 0 0 1-.035-.08 1.506 1.302 0 0 1-.028-.083 1.506 1.302 0 0 1-.023-.081 1.506 1.302 0 0 1-.015-.085 1.506 1.302 0 0 1-.01-.085 1.506 1.302 0 0 1-.003-.084 1.506 1.302 0 0 1 .003-.085 1.506 1.302 0 0 1 .01-.085 1.506 1.302 0 0 1 .017-.085 1.506 1.302 0 0 1 .021-.083 1.506 1.302 0 0 1 .03-.08 1.506 1.302 0 0 1 .033-.08 1.506 1.302 0 0 1 .042-.078 1.506 1.302 0 0 1 .046-.075z" style="fill:#fed5d3;fill-opacity:1;stroke-width:1.06627;paint-order:markers fill stroke"/><path id="path2257" d="M112.428 952.012c-.079-.001-.157.004-.235.014v38.13h7.219v-28.96l-5.698-8.534c-.266-.398-.755-.645-1.286-.65z" style="fill:#fe827c;fill-opacity:1;stroke-width:2.46353;paint-order:markers fill stroke"/><circle id="circle2259" cx="112.408" cy="932.161" r="9.593" style="fill:#f7c08b;fill-opacity:1;stroke-width:2.99566;paint-order:markers fill stroke"/><path id="path2261" d="M80.811 941.278c-1.3.01-2.5.738-3.151 1.914l-14.585 26.354-8.227 14.868c-1.414 2.552.352 5.743 3.177 5.743H80.84v-48.879h-.028z" style="fill:#000;fill-opacity:.25;stroke-width:1.06627;paint-order:markers fill stroke"/></g></g><style id="style853" type="text/css">.st0{fill:#fff}</style></svg>