<?xml version="1.0" encoding="UTF-8"?>
<svg version="1.1" viewBox="0 0 192 192" xml:space="preserve" xmlns="http://www.w3.org/2000/svg">
	 <rect class="a" x="20" y="20" width="152" height="152" rx="10" fill="#56595b"/><path d="m48.524 110.81v-21.832a1 1 135 0 1 1-1h2.754a1 1 135 0 0 1-1v-1.9514a1 1 135 0 1 1-1h1.4575a1 1 135 0 0 1-1v-1.8279a1 1 135 0 1 1-1h14.176a1 1 45 0 1 1 1v1.8279a1 1 45 0 0 1 1h2.2601a1 1 45 0 1 1 1v1.9514a1 1 45 0 0 1 1h2.0749a1 1 45 0 1 1 1v21.832a1 1 135 0 1-1 1h-10.41a1 1 45 0 1-1-1v-5.7175a1 1 45 0 0-1-1h-5.5941a1 1 135 0 0-1 1v5.7175a1 1 135 0 1-1 1h-10.719a1 1 45 0 1-1-1z" fill="#f9de81" stroke-linecap="round" stroke-linejoin="round" stroke-width="2.4696"/><path d="m60.687 92.493v2.8775a1 1 45 0 0 1 1h6.5819a1 1 135 0 0 1-1v-2.8775a1 1 45 0 0-1-1h-6.5819a1 1 135 0 0-1 1z" fill="#56595b" stroke-linecap="round" stroke-linejoin="round" stroke-width="2.4696"/><path d="m84.626 110.81v-5.7175a1 1 135 0 1 1-1h5.6836a1 1 135 0 0 1-1v-14.114a1 1 45 0 0-1-1h-5.5963a1 1 45 0 1-1-1v-5.7793a1 1 135 0 1 1-1h25.417a1 1 45 0 1 1 1v5.7793a1 1 135 0 1-1 1h-6.2948a1 1 135 0 0-1 1v14.114a1 1 45 0 0 1 1h6.3822a1 1 45 0 1 1 1v5.7175a1 1 135 0 1-1 1h-25.591a1 1 45 0 1-1-1z" fill="#f9de81" stroke-linecap="round" stroke-linejoin="round" stroke-width="2.4696"/><path d="m115.54 81.194v5.7793a1 1 45 0 0 1 1h6.0329a1 1 45 0 1 1 1v21.832a1 1 45 0 0 1 1h9.8747a1 1 135 0 0 1-1v-21.832a1 1 135 0 1 1-1h6.0329a1 1 135 0 0 1-1v-5.7793a1 1 45 0 0-1-1h-25.94a1 1 135 0 0-1 1z" fill="#f9de81" stroke-linecap="round" stroke-linejoin="round" stroke-width="2.4696"/></svg>
