<?xml version="1.0" encoding="UTF-8"?>
<svg version="1.1" viewBox="0 0 192 192" xmlns="http://www.w3.org/2000/svg">
 <g transform="matrix(.23409 0 0 .23409 8.738 2.363)" style="clip-rule:evenodd;fill-rule:evenodd;stroke-linejoin:round;stroke-miterlimit:2">
  <path d="m91.031 221.3c-4.929-4.929-7.698-11.614-7.698-18.584v-77.711c0-22.996 18.671-41.667 41.667-41.667h275c174.77 0 316.67 141.89 316.67 316.67s-141.89 316.67-316.67 316.67h-275c-22.996 0-41.667-18.671-41.667-41.667v-381.74c0-3.006 1.811-5.717 4.589-6.868 2.778-1.15 5.975-0.514 8.101 1.612 40.393 40.392 165.64 165.64 205.38 205.38 2.048 2.048 2.661 5.128 1.552 7.804-1.108 2.676-3.719 4.421-6.616 4.421h-98.043v97.666c0 6.421 5.205 11.626 11.626 11.626h190.08c111.33 0 201.71-96.294 201.71-214.9s-90.382-214.9-201.71-214.9h-190.08c-6.421 0-11.626 5.205-11.626 11.626v114.77c0 2.858-1.721 5.434-4.361 6.527-2.64 1.094-5.679 0.489-7.7-1.531l-95.2-95.2z" style="fill:#f8c18c"/>
 </g>
</svg>
