<?xml version="1.0" encoding="UTF-8"?>
<svg version="1.1" viewBox="0 0 192 192" xmlns="http://www.w3.org/2000/svg">
 <circle class="a" cx="96" cy="96" r="88" style="fill:#f8c18c"/>
 <g transform="matrix(.81071 0 0 .81071 54.178 53.112)" stroke="#fff" stroke-linecap="round" stroke-linejoin="round" stroke-width="3" style="fill:none">
  <path d="m8.52 88c7 12 33 12 40 0s-13-23-16-34 0-26 0-26h-8s3 15 0 26-23 22-16 34z" fill="#999" style="fill:#fff"/>
  <path d="m20.34 36.87s-6.5-1.83-6.7-11.18c-0.19-9.3 6.87-13.74 13.44-14.66 31.06-4.34 54.32 40.14 54.32 40.14h-5.19s-24.65-36.24-34.11-27.34c-2.13 2.01-0.11 5.11-1.08 8.23-1.06 3.43-4.51 5.01-4.51 5.01" fill="#00000000" style="fill:none"/>
  <path d="m57.55 56.59 43.38 0.05s0.2 27.33-9.27 34.6c-6.57 5.04-18.26 5.04-24.83 0-9.48-7.29-9.28-34.65-9.28-34.65z" fill="#a80" style="fill:#fff"/>
 </g>
 <path d="m118.42 106.35v16.435" style="fill:#fff;stroke-linecap:round;stroke-linejoin:round;stroke-width:3;stroke:#f8c18c"/>
 <path d="m126.64 114.57h-16.435" style="fill:#fff;stroke-linecap:round;stroke-linejoin:round;stroke-width:3;stroke:#f8c18c"/>
 <path d="m124.23 108.76-11.621 11.621" style="fill:#fff;stroke-linecap:round;stroke-linejoin:round;stroke-width:3;stroke:#f8c18c"/>
 <path d="m124.23 120.38-11.621-11.621" style="fill:#fff;stroke-linecap:round;stroke-linejoin:round;stroke-width:3;stroke:#f8c18c"/>
 <rect transform="rotate(45)" x="129.7" y="20.219" width="15.328" height="15.328" style="fill:#f8c18c"/>
</svg>
