<svg xmlns="http://www.w3.org/2000/svg" viewBox="0 0 192 192"><circle cx="96" cy="96" r="88" style="fill:#9abeff;stroke:none;opacity:1;stroke-linecap:round;stroke-linejoin:round;isolation:isolate"/><path d="M50.542 83.593s-1.502-2.616-1.118-7.322c1.075-13.196 9.021-35.55 37.423-35.593 20.768-.031 44.998 12.202 45.356 42.712.133 11.267-2.988 23.06-3.205 36.148-.275 16.679 7.154 28.318 7.154 28.318l-12.83 22.481-26.06 6.086-30.55-25.508s4.87-10.901 4.838-20.254c-.06-17.18-15.86-26.719-21.008-47.068z" style="fill:#56595b;stroke:none;stroke-width:1px;stroke-linecap:butt;stroke-linejoin:miter;stroke-opacity:1"/><path d="M50.542 83.593s1.044 8.208 3.153 14.238c1.257 3.595-.185 6.247-2.127 10.77-.88 2.048 5.312 4.587 5.312 4.587s-.074 2.505.504 3.595c1.167 2.202 2.876 2.157 2.876 2.157s.043 2.456.79 3.308c.576.656 2.446.935 2.446.935s.304 2.543 1.48 4.953c1.008 2.065 5.094 2.876 8.506 1.763 3.801-1.24 8.71-4.775 8.71-4.775s-5.242-7.231-4.249-15.934c-2.84-1.478-5.996-5.302-5.996-5.302s-6.994-.715-12.199-4.895c-7.388-5.933-9.206-15.4-9.206-15.4ZM109.59 128.863l-9.924 9.35s-8.728 7.964-2.588 19.127c2.977 5.412 13.658 8.154 18.121 3.883 2.705-2.589 2.147-8.834-1.87-11.075-2.689-1.498-7.003.36-8.772 2.877-.966 1.374.142 5.034.142 5.034s-2.339-4.447-1.293-6.329c3.186-5.73 9.058-5.383 12.75-3.296 4.792 2.708 5.41 10.966 1.776 14.947-6.48 7.098-22.409 5.197-28.764-2.014-8.264-9.376-6.904-18.697-6.904-18.697s-3.032 1.659-9.348 1.44c-6.013-.21-11.71-4.265-17.69-3.596-9.18 1.026-12.768 14.116-14.18 24.113A88 88 0 0 0 96 184a88 88 0 0 0 58.785-22.654c-2.013-8.966-6.245-20.351-14.85-20.545-7.432-.168-9.89 2.4-16.396 2.156-9.198-.346-13.95-14.094-13.95-14.094z" style="fill:#fcecdc;stroke:none;stroke-width:1px;stroke-linecap:butt;stroke-linejoin:miter;stroke-opacity:1"/></svg>