<svg xmlns="http://www.w3.org/2000/svg" width="192" height="192"><rect width="153" height="153" x="19.5" y="19.5" rx="10" style="opacity:1;fill:#728dbe;stroke-width:4"/><path d="M96 60c-12.315.008-22.446 8.847-25.016 20.61C58.15 82.176 48 92.755 48 106c0 14.312 11.688 26 26 26 9.343-.004 17.416-5.18 22-12.727 4.582 7.549 12.659 12.72 22 12.727 14.312 0 26-11.688 26-26 0-13.247-10.154-23.827-22.992-25.39C118.44 68.846 108.313 60.01 96 60Z" style="color:#000;font-style:normal;font-variant:normal;font-weight:400;font-stretch:normal;font-size:medium;line-height:normal;font-family:sans-serif;font-variant-ligatures:normal;font-variant-position:normal;font-variant-caps:normal;font-variant-numeric:normal;font-variant-alternates:normal;font-feature-settings:normal;text-indent:0;text-align:start;text-decoration:none;text-decoration-line:none;text-decoration-style:solid;text-decoration-color:#000;letter-spacing:normal;word-spacing:normal;text-transform:none;writing-mode:lr-tb;direction:ltr;text-orientation:mixed;dominant-baseline:auto;baseline-shift:baseline;text-anchor:start;white-space:normal;shape-padding:0;clip-rule:nonzero;display:inline;overflow:visible;visibility:visible;opacity:1;isolation:auto;mix-blend-mode:normal;color-interpolation:sRGB;color-interpolation-filters:linearRGB;solid-color:#000;solid-opacity:1;vector-effect:none;fill:#fff;fill-opacity:1;fill-rule:nonzero;stroke:none;stroke-width:8;stroke-linecap:round;stroke-linejoin:round;stroke-miterlimit:4;stroke-dasharray:none;stroke-dashoffset:0;stroke-opacity:1;paint-order:stroke fill markers;color-rendering:auto;image-rendering:auto;shape-rendering:auto;text-rendering:auto;enable-background:accumulate"/><circle cx="96" cy="86" r="22" style="opacity:1;vector-effect:none;fill:#98dc9a;fill-opacity:1;stroke-width:4;paint-order:stroke fill markers"/><circle cx="74" cy="106" r="22" style="opacity:1;vector-effect:none;fill:#728dbe;fill-opacity:1;stroke-width:4;paint-order:stroke fill markers"/><circle cx="118" cy="106" r="22" style="opacity:1;vector-effect:none;fill:#9abeff;fill-opacity:1;stroke-width:4;paint-order:stroke fill markers"/><path d="M117.89 84A22 22 0 0 0 96 106a22 22 0 0 0 .11 2A22 22 0 0 0 118 86a22 22 0 0 0-.11-2ZM74.102 84.008A22 22 0 0 0 74 86a22 22 0 0 0 21.898 21.992A22 22 0 0 0 96 106a22 22 0 0 0-21.898-21.992Z" style="opacity:.25;vector-effect:none;fill:#fff;fill-opacity:1;stroke-width:4;paint-order:stroke fill markers"/></svg>