<svg xmlns="http://www.w3.org/2000/svg" width="192" height="192"><path d="m40 16 56 88 56-88" style="fill:none;stroke-linecap:round;stroke-linejoin:round;stroke-width:16;stroke:#71a372"/><path d="M96 16a84 84 0 0 0-84 84l84 16 84-16a84 84 0 0 0-84-84z" style="fill:#98dc9a;paint-order:normal"/><path d="M12 100a84 84 0 0 0 84 84 84 84 0 0 0 84-84h-16l-64 8-72-8H12z" style="fill:#56595b;paint-order:normal"/><path d="M28 100a68 68 0 0 0 68 68 68 68 0 0 0 68-68H28z" style="fill:#fff;paint-order:normal"/><circle cx="60" cy="64" r="8" style="fill:#71a372;paint-order:normal"/><circle cx="132" cy="64" r="8" style="fill:#71a372;paint-order:normal"/></svg>