<?xml version="1.0" encoding="UTF-8" standalone="no"?>
<svg
   xmlns:dc="http://purl.org/dc/elements/1.1/"
   xmlns:cc="http://creativecommons.org/ns#"
   xmlns:rdf="http://www.w3.org/1999/02/22-rdf-syntax-ns#"
   xmlns:svg="http://www.w3.org/2000/svg"
   xmlns="http://www.w3.org/2000/svg"
   xmlns:sodipodi="http://sodipodi.sourceforge.net/DTD/sodipodi-0.dtd"
   xmlns:inkscape="http://www.inkscape.org/namespaces/inkscape"
   viewBox="0 0 192 192"
   version="1.1"
   id="svg16"
   sodipodi:docname="angry_birds_go.svg"
   inkscape:version="0.92.4 (5da689c313, 2019-01-14)">
  <metadata
     id="metadata20">
    <rdf:RDF>
      <cc:Work
         rdf:about="">
        <dc:format>image/svg+xml</dc:format>
        <dc:type
           rdf:resource="http://purl.org/dc/dcmitype/StillImage" />
        <dc:title />
      </cc:Work>
    </rdf:RDF>
  </metadata>
  <sodipodi:namedview
     pagecolor="#ffffff"
     bordercolor="#666666"
     borderopacity="1"
     objecttolerance="10"
     gridtolerance="10"
     guidetolerance="10"
     inkscape:pageopacity="0"
     inkscape:pageshadow="2"
     inkscape:window-width="1920"
     inkscape:window-height="1017"
     id="namedview18"
     showgrid="true"
     inkscape:zoom="4.2349186"
     inkscape:cx="38.990772"
     inkscape:cy="85.734083"
     inkscape:window-x="-8"
     inkscape:window-y="-8"
     inkscape:window-maximized="1"
     inkscape:current-layer="svg16"
     inkscape:snap-global="false">
    <inkscape:grid
       type="xygrid"
       id="grid827"
       spacingx="4"
       spacingy="4" />
  </sodipodi:namedview>
  <defs
     id="defs4">
    <style
       id="style2">.a{fill:none;stroke:#b1b5bd;stroke-linecap:round;stroke-linejoin:round;isolation:isolate;opacity:0.63;}</style>
  </defs>
  <rect
     class="a"
     x="20"
     y="20"
     width="152"
     height="152"
     rx="10"
     id="rect6"
     style="fill:#f9de81;stroke:none;opacity:1" />
  <g
     id="g968"
     transform="translate(-4.3189877,-0.23994376)">
    <path
       style="fill:#ff837d;stroke-width:4.02631569"
       d="m 62.263,88.448 c 0,24.157 23.082,32.656 40.263,32.21 16.156,-0.42 36.237,-8.053 36.237,-32.21 0,-24.158 -24.158,-36.237 -24.158,-36.237 0,0 -8.052,-16.106 -20.131,-16.106 -1.898,0 -4.027,2.129 -4.027,4.027 0,4.026 4.027,4.026 4.027,4.026 0,0 -8.114,-2.98 -12.08,-2.013 -3.259,0.795 -6.039,2.013 -6.039,6.04 0,4.026 10.066,4.026 10.066,4.026 0,0 -24.158,12.079 -24.158,36.236 z"
       id="path915"
       inkscape:connector-curvature="0" />
    <path
       style="fill:#e2c9b0;stroke-width:4.02631569"
       d="m 100.513,92.474 c -23.441,0 -27.955,10.575 -27.956,18.77 8.272,6.942 20.086,9.67 29.97,9.414 8.781,-0.228 18.696,-2.617 25.942,-8.603 0.295,-8.29 -3.734,-19.581 -27.956,-19.581 z"
       id="path921"
       inkscape:connector-curvature="0" />
    <ellipse
       style="opacity:1;vector-effect:none;fill:#ffffff;fill-opacity:1;stroke-width:2.33032894;paint-order:stroke fill markers"
       ry="10.032"
       rx="11.598"
       cy="80.120972"
       cx="88.918999"
       id="path841-4" />
    <ellipse
       style="opacity:1;vector-effect:none;fill:#ffffff;fill-opacity:1;stroke-width:2.33705425;paint-order:stroke fill markers"
       ry="10.09"
       rx="11.598"
       cy="79.715027"
       cx="111.535"
       id="path841-3-7" />
    <path
       style="fill:#4a4a4a;stroke-width:2.28097725"
       d="m 75.349,72.872 24.82,6.147 25.748,-6.03 0.232,-8.7 -26.444,8.235 -24.008,-7.887 z"
       id="path839-1"
       inkscape:connector-curvature="0" />
    <ellipse
       style="opacity:1;vector-effect:none;fill:#4a4a4a;fill-opacity:1;stroke-width:2.07942677;paint-order:stroke fill markers"
       ry="5.1030002"
       rx="6.0890002"
       cy="80.758972"
       cx="108.925"
       id="path858" />
    <ellipse
       style="opacity:1;vector-effect:none;fill:#4a4a4a;fill-opacity:1;stroke-width:2.07942677;paint-order:stroke fill markers"
       ry="5.1030002"
       rx="6.0890002"
       cy="80.526978"
       cx="91.412003"
       id="path858-6" />
    <path
       style="fill:#c39a54;stroke-width:4.02631569"
       d="m 88.434,92.474 12.08,8.052 12.078,-8.052 -12.079,-8.053 z"
       id="path919"
       inkscape:connector-curvature="0" />
    <path
       style="fill:#f9de81;stroke-width:4.02631569"
       d="m 88.434,92.474 12.08,-12.08 12.078,12.08 -12.079,-4.027 z"
       id="path917"
       inkscape:connector-curvature="0" />
  </g>
  <path
     style="opacity:1;vector-effect:none;fill:#56595b;fill-opacity:1;fill-rule:evenodd;stroke:none;stroke-width:8;stroke-linecap:round;stroke-linejoin:round;stroke-miterlimit:4;stroke-dasharray:none;paint-order:stroke fill markers"
     d="M 30 124 C 24.46 124 20 128.46 20 134 L 20 162 C 20 167.54 24.46 172 30 172 L 44 172 L 44 134 C 44 128.46 39.54 124 34 124 L 30 124 z M 158 124 C 152.46 124 148 128.46 148 134 L 148 172 L 162 172 C 167.54 172 172 167.54 172 162 L 172 134 C 172 128.46 167.54 124 162 124 L 158 124 z "
     id="rect818" />
  <path
     style="opacity:1;vector-effect:none;fill:#ff837d;fill-opacity:1;fill-rule:evenodd;stroke:none;stroke-width:8;stroke-linecap:round;stroke-linejoin:round;stroke-miterlimit:4;stroke-dasharray:none;paint-order:stroke fill markers"
     d="M 20 156 L 20 162 C 20 167.54 24.46 172 30 172 L 162 172 C 167.54 172 172 167.54 172 162 L 172 156 L 20 156 z "
     id="rect835" />
  <path
     style="fill:#ff837d;stroke:none;stroke-width:1px;stroke-linecap:butt;stroke-linejoin:miter;stroke-opacity:1"
     d="m 44,160 v -36 c 0,0 0,-24 52,-24 52,0 52,24 52,24 v 36 z"
     id="path839"
     inkscape:connector-curvature="0"
     sodipodi:nodetypes="cczccc" />
  <path
     style="fill:#ba6561;stroke:none;stroke-width:1px;stroke-linecap:butt;stroke-linejoin:miter;stroke-opacity:1"
     d="m 56,128 v -8 c 12,-8 24,-8 24,-8 v 8 c 0,0 -12,0 -24,8 z"
     id="path841"
     inkscape:connector-curvature="0"
     sodipodi:nodetypes="ccccc" />
  <path
     style="fill:#ba6561;stroke:none;stroke-width:1px;stroke-linecap:butt;stroke-linejoin:miter;stroke-opacity:1"
     d="m 56,140 v -8 c 12,-8 24,-8 24,-8 v 8 c 0,0 -12,0 -24,8 z"
     id="path841-1"
     inkscape:connector-curvature="0"
     sodipodi:nodetypes="ccccc" />
  <path
     style="fill:#ba6561;stroke:none;stroke-width:1px;stroke-linecap:butt;stroke-linejoin:miter;stroke-opacity:1"
     d="m 56,152 v -8 c 12,-8 24,-8 24,-8 v 8 c 0,0 -12,0 -24,8 z"
     id="path841-13"
     inkscape:connector-curvature="0"
     sodipodi:nodetypes="ccccc" />
  <path
     style="fill:#ba6561;stroke:none;stroke-width:1px;stroke-linecap:butt;stroke-linejoin:miter;stroke-opacity:1"
     d="m 136,128 v -8 c -12,-8 -24,-8 -24,-8 v 8 c 0,0 12,0 24,8 z"
     id="path841-3"
     inkscape:connector-curvature="0"
     sodipodi:nodetypes="ccccc" />
  <path
     style="fill:#ba6561;stroke:none;stroke-width:1px;stroke-linecap:butt;stroke-linejoin:miter;stroke-opacity:1"
     d="m 136,140 v -8 c -12,-8 -24,-8 -24,-8 v 8 c 0,0 12,0 24,8 z"
     id="path841-1-6"
     inkscape:connector-curvature="0"
     sodipodi:nodetypes="ccccc" />
  <path
     style="fill:#ba6561;stroke:none;stroke-width:1px;stroke-linecap:butt;stroke-linejoin:miter;stroke-opacity:1"
     d="m 136,152 v -8 c -12,-8 -24,-8 -24,-8 v 8 c 0,0 12,0 24,8 z"
     id="path841-13-9"
     inkscape:connector-curvature="0"
     sodipodi:nodetypes="ccccc" />
  <style
     type="text/css"
     id="style853">.st0{fill:#898989}.st1{fill:#fff}</style>
</svg>
