<?xml version="1.0" encoding="utf-8"?>
<!-- Generator: Adobe Illustrator 26.1.0, SVG Export Plug-In . SVG Version: 6.00 Build 0)  -->
<svg version="1.1" id="a" xmlns="http://www.w3.org/2000/svg" xmlns:xlink="http://www.w3.org/1999/xlink" x="0px" y="0px"
	 width="192px" height="192px" viewBox="0 0 192 192" style="enable-background:new 0 0 192 192;" xml:space="preserve">
<g id="b" transform="matrix(1.0065789,0,0,1.0065789,-0.6315744,-0.6315744)">
	<path id="c" style="fill:#56595B;" d="M29.57,19.5h132.86c5.56,0,10.07,4.51,10.07,10.07v132.86c0,5.56-4.51,10.07-10.07,10.07
		H29.57c-5.56,0-10.07-4.51-10.07-10.07V29.57C19.5,24.01,24.01,19.5,29.57,19.5z"/>
	<g id="d" transform="translate(-9.5503908,-0.002106)">
		<path id="e" style="fill:#9ABEFF;" d="M119.91,110.86h22.4c1.77,0,3.2,1.43,3.21,3.2l0.04,9.04c0,1.75-1.41,3.18-3.16,3.19
			c0,0-0.01,0-0.02,0l-32.55-0.04c-1.77,0-3.2-1.43-3.2-3.2V82.99c0-2.1-0.53-4.16-1.55-5.99c-0.56-1.36-0.75-2.83-0.55-4.29
			l0.07-3.81c0.03-1.77,1.48-3.2,3.25-3.2h8.94c1.76,0,3.19,1.43,3.19,3.19l0,0L119.91,110.86L119.91,110.86z"/>
		<path id="f" style="fill:#FFFFFF;" d="M85.1,68.22l-19.46,55.56c-0.34,0.98,0.17,2.06,1.16,2.41c0.2,0.07,0.41,0.11,0.62,0.11
			h11.24c1.6,0,3.02-1.01,3.54-2.51l1.87-5.35c0.53-1.51,1.95-2.51,3.54-2.51h12.67c1.6,0,3.02,1,3.56,2.51l1.89,5.31
			c0.54,1.5,1.96,2.51,3.56,2.51h11.04c1.04,0,1.89-0.84,1.89-1.89c0-0.21-0.04-0.43-0.11-0.63l-19.55-55.51
			c-0.53-1.51-1.95-2.51-3.55-2.51H88.64c-1.6,0-3.02,1.01-3.54,2.51L85.1,68.22z M93.9,85.54l5.68,16.87H88.74L93.9,85.54z"/>
	</g>
</g>
</svg>
