<?xml version="1.0" encoding="UTF-8"?><svg id="a" xmlns="http://www.w3.org/2000/svg" width="192" height="192" viewBox="0 0 192 192"><g id="b"><g id="c"><path d="M143.68,48.32c40.86,40.86,26.3,121.66,26.3,121.66,0,0-80.8,14.55-121.66-26.3C7.47,102.82,22.02,22.02,22.02,22.02c0,0,80.8-14.55,121.66,26.3Z" style="fill:#fff;"/><path d="M140.44,51.56c38.08,38.08,24.52,113.4,24.52,113.4,0,0-75.31,13.57-113.4-24.52C13.48,102.35,27.04,27.04,27.04,27.04c0,0,75.31-13.57,113.4,24.52Z" style="fill:#56595b;"/><path d="M136.38,55.62c34.6,34.6,22.28,103.03,22.28,103.03,0,0-68.43,12.33-103.03-22.28C21.02,101.77,33.34,33.34,33.34,33.34c0,0,68.43-12.33,103.03,22.28Z" style="fill:#73ada4;"/><path d="M126.38,65.62c26.04,26.04,16.76,77.53,16.76,77.53,0,0-51.49,9.28-77.53-16.76S48.85,48.85,48.85,48.85c0,0,51.49-9.28,77.53,16.76Z" style="fill:#96dfd3;"/><path d="M113.56,96c0,29.11-17.56,52.71-17.56,52.71,0,0-17.56-23.6-17.56-52.71,0-29.11,17.56-52.71,17.56-52.71,0,0,17.56,23.6,17.56,52.71Z" style="fill:#56595b;"/><circle cx="107.37" cy="56.94" r="12.74" style="fill:#fff;"/></g></g><g id="d"/></svg>