<?xml version="1.0" encoding="UTF-8"?><svg id="a" xmlns="http://www.w3.org/2000/svg" viewBox="0 0 192 192"><g id="b"><g id="c"><circle cx="96" cy="96" r="88" style="fill:#8c72bd;"/><g style="isolation:isolate;"><text transform="translate(49.69 129.77)" style="fill:#fff; font-family:Now-Black, Now; font-size:73.65px; font-weight:800; isolation:isolate;"><tspan x="0" y="0">TV</tspan></text><rect x="87.73" y="79.89" width="11.88" height="6.88" style="fill:#fff;"/></g><path d="M100.33,100.33c-.94-3.52,1.15-7.14,4.67-8.08s7.14,1.15,8.08,4.67-1.15,7.14-4.67,8.08c-3.52.94-7.14-1.15-8.08-4.67Z" style="fill:#fff; stroke:#8c72bd; stroke-miterlimit:1.03; stroke-width:3px;"/><path d="M83.33,104.88c-.94-3.52,1.15-7.14,4.67-8.08s7.14,1.15,8.08,4.67-1.15,7.14-4.67,8.08-7.14-1.15-8.08-4.67Z" style="fill:#fff; stroke:#8c72bd; stroke-miterlimit:1.03; stroke-width:3px;"/><path d="M82.08,125.71c-3.52.94-7.14-1.15-8.08-4.67s1.15-7.14,4.67-8.08,7.14,1.15,8.08,4.67-1.15,7.14-4.67,8.08Z" style="fill:#fff; stroke:#8c72bd; stroke-miterlimit:1.03; stroke-width:3px;"/><path d="M129.24,106.24c.94,3.52-1.15,7.14-4.67,8.08s-7.14-1.15-8.08-4.67c-.94-3.52,1.15-7.14,4.67-8.08s7.14,1.15,8.08,4.67Z" style="fill:#fff; stroke:#8c72bd; stroke-miterlimit:1.03; stroke-width:3px;"/><path d="M93.92,148.22c-2.62,0-5.05-1.18-6.66-3.25-2.69-3.45-2.32-8.32.86-11.32,3.42-3.29,5.34-7.69,5.43-12.41.11-5.31,4.52-9.62,9.82-9.62h.21c3.38.07,6.44,1.84,8.19,4.73,2.44,4.04,6.3,6.89,10.88,8.03,4.55,1.09,7.36,5.65,6.28,10.17-.72,3.02-3.03,5.39-6.02,6.19-.71.19-1.45.29-2.19.29-.39,0-.78-.03-1.16-.08h-.1c-1.12-.16-2.32-.24-3.51-.24-6.04,0-12.01,2.02-16.8,5.69-1.53,1.19-3.32,1.81-5.21,1.81Z" style="fill:#fff;"/><path d="M103.36,113.13c.06,0,.12,0,.18,0,2.85.06,5.47,1.57,6.94,4.01,2.62,4.35,6.87,7.48,11.8,8.7.01,0,.03,0,.04.01,3.73.89,6.03,4.63,5.14,8.36-.59,2.48-2.49,4.43-4.95,5.09h0c-.59.16-1.19.24-1.8.24-.32,0-.64-.02-.96-.07-.02,0-.03,0-.05,0-1.26-.16-2.52-.25-3.77-.25-6.37,0-12.6,2.09-17.71,6-.01.01-.03.02-.04.03-1.27.99-2.77,1.47-4.26,1.47-2.07,0-4.11-.92-5.48-2.67-2.2-2.82-1.89-6.85.7-9.31.01,0,.02-.02.03-.03,3.66-3.52,5.77-8.36,5.87-13.44.1-4.54,3.8-8.15,8.32-8.15M103.36,110.13h0c-6.11,0-11.19,4.97-11.32,11.08-.08,4.32-1.84,8.35-4.95,11.34-3.75,3.55-4.19,9.28-1.02,13.35,1.9,2.43,4.76,3.83,7.84,3.83,2.23,0,4.34-.73,6.11-2.1,4.55-3.49,10.2-5.4,15.91-5.4,1.13,0,2.27.07,3.38.22.47.07.94.1,1.39.1.87,0,1.74-.12,2.58-.34,3.52-.95,6.24-3.74,7.09-7.29,1.27-5.32-2.02-10.69-7.34-11.97h-.02c-4.21-1.05-7.74-3.65-9.97-7.35-2.02-3.34-5.55-5.38-9.45-5.46-.08,0-.16,0-.24,0h0Z" style="fill:#8c72bd;"/><g style="isolation:isolate;"><text transform="translate(49.03 70.38)" style="fill:#fff; font-family:Now-Medium, Now; font-size:18.14px; font-weight:500; isolation:isolate;"><tspan x="0" y="0">Anime</tspan></text></g></g></g></svg>