<svg xmlns="http://www.w3.org/2000/svg" width="192" height="192"><rect width="88" height="128" x="52" y="8" ry="44" style="opacity:1;vector-effect:none;fill:#56595b;fill-opacity:1;stroke-width:4;paint-order:stroke fill markers"/><rect width="136" height="104" x="28" y="76" ry="10" style="opacity:1;vector-effect:none;fill:#56595b;fill-opacity:1;stroke-width:4;paint-order:stroke fill markers"/><path d="M96 24c-15.464 0-28 12.536-28 28s12.536 28 28 28a28.098 28.098 0 0 0 3.656-.274C98.713 85.213 96 88 96 88s28-12 28-32v-4c0-15.464-12.536-28-28-28z" style="opacity:1;vector-effect:none;fill:#fff;fill-opacity:1;stroke-width:4;paint-order:stroke fill markers"/><path d="M83.627 96.695a1.71 1.71 0 0 0-1.18.496c-.665.652-.698 1.69-.072 2.329l3.712 3.789a18.058 18.058 0 0 0-3.142 2.89l-.002-.006c-2.585 3.015-4.143 6.879-4.143 11.106v.656h36.5v-.656c0-5.74-2.864-10.802-7.287-13.99l3.711-3.79c.626-.638.595-1.676-.07-2.328-.665-.651-1.705-.662-2.33-.023l-4.3 4.389a18.854 18.854 0 0 0-7.974-1.766c-2.866 0-5.563.645-7.972 1.766l-4.301-4.389a1.578 1.578 0 0 0-1.15-.473zm5.851 12.06a1.457 1.457 0 0 1 1.46 1.458 1.457 1.457 0 0 1-1.46 1.457 1.457 1.457 0 0 1-1.457-1.457 1.457 1.457 0 0 1 1.457-1.457zm15.143 0a1.457 1.457 0 0 1 1.459 1.458 1.457 1.457 0 0 1-1.46 1.457 1.457 1.457 0 0 1-1.456-1.457 1.457 1.457 0 0 1 1.457-1.457zm-33.453 12.046c-2.572 0-4.643 1.987-4.643 4.455v21.877c0 2.468 2.071 4.453 4.643 4.453 2.57 0 4.64-1.985 4.64-4.453v-21.877c0-2.468-2.07-4.455-4.64-4.455zm51.765 0c-2.571 0-4.64 1.987-4.64 4.455v21.877c0 .13.027.254.039.383.204 2.283 2.167 4.07 4.601 4.07 2.572 0 4.643-1.985 4.643-4.453v-21.877c0-2.468-2.071-4.455-4.643-4.455zM78.8 121v30.633c0 1.511 1.33 2.728 2.983 2.728h2.976v10.88c0 2.289 1.768 4.164 4.1 4.425l.002-.023c.18.02.355.052.541.052 2.571 0 4.64-1.987 4.64-4.455v-10.879h6.016v10.88c0 2.467 2.07 4.454 4.64 4.454 2.572 0 4.643-1.987 4.643-4.455v-10.879h2.977c1.652 0 2.982-1.217 2.982-2.728V121H86.351Z" style="fill:#fefefe;fill-opacity:1;stroke:none;stroke-width:1.72511995;stroke-linecap:round;stroke-linejoin:round;stroke-miterlimit:4;stroke-dasharray:none;stroke-opacity:1"/></svg>