<?xml version="1.0" encoding="UTF-8"?>
<svg version="1.1" viewBox="0 0 192 192" xmlns="http://www.w3.org/2000/svg">
 <g id="svg-def-game-logo" transform="matrix(.32241 0 0 .32241 13.462 26.495)">
  <path d="m104.5 239.2v40.7h-21.3v-76.9h21.7l29.2 40.1 0.4-0.1v-40h1.6c11.6 0 23.2-0.1 34.8 0s21.5 4.1 29.5 12.5c6 6.2 9.1 13.8 9.9 22.4s-0.4 15.1-4.2 22c-5.3 10.1-13.9 16-24.9 18.7-3.5 0.8-7 1.3-10.6 1.3-11.7 0.1-23.5 0.1-35.2 0.1h-1.4l-29.2-41-0.3 0.2m52 21.1c5.9-0.2 11.6 0.4 17.4-0.6 9.1-1.6 14.2-7 15-16.2 0.6-6.7-1.3-12.5-6.9-16.7-3-2.3-6.7-3.7-10.5-3.9-4.7-0.3-9.3-0.1-13.9-0.2l-1 0.2z" style="fill:#f9de81"/>
  <path d="m364.4 280v-76.9h21.2v57.1h30.6v-57.2h1.8c11.4 0 22.8-0.1 34.1 0 11.4 0.1 22.2 4.3 30.2 13.2 6 6.7 9 14.6 9.4 23.5 0.4 6.6-0.9 13.3-3.7 19.3-5.3 10.5-14.1 16.8-25.4 19.7-3.5 0.9-7 1.3-10.6 1.3-28.7 0.1-57.5 0.1-86.2 0.1h-1.5m73.6-19.6h8.7c3 0 6-0.3 8.9-0.7 7.1-1.4 12.4-5.2 14.2-12.6 0.5-2.2 0.7-4.4 0.5-6.7-0.3-7.2-3.8-12.4-10.3-15.5-2.4-1.2-5.1-1.9-7.9-1.9-4.3-0.1-8.5-0.1-12.8-0.1l-1.3 0.2z" style="fill:#f9de81"/>
  <path d="m42 222.8c0 0.7-0.1 1.3-0.1 1.9v7.8h26.2v17.9h-26v9.9h36.7v19.7h-58.2v-76.9h57.5v19.7z" style="fill:#f9de81"/>
  <polygon points="360 279.9 301.7 279.9 301.7 203 359.3 203 359.3 222.7 323.3 222.7 323.3 232.4 349.2 232.4 349.2 250.3 323.3 250.3 323.3 260.3 360 260.3" style="fill:#f9de81"/>
  <polygon points="236.2 222.8 236.2 234 263.1 234 263.1 253.9 236.1 253.9 236.1 280 214.8 280 214.8 203.1 271.2 203.1 271.2 222.8" style="fill:#f9de81"/>
  <path d="m446.3 104.4-1.7 3-1-0.4c-15.5-9.3-31.9-16.8-48.4-24.2-9.6-4.4-19.4-8.3-29.5-11.6-5-1.6-9.8-1.6-14.3 1.4-0.7 0.4-1.3 0.9-1.9 1.5-5.6 4.6-8.5 11-11.1 17.5-3.2 7.8-5.4 16.1-6.5 24.5-0.3 2.2-0.5 4.4-0.8 6.5-0.7 6.4 1.9 11.4 7.6 14.5 5.4 3 11.2 5.1 17.2 6.2 8.6 1.8 17.1 3.5 25.7 5.4 6.9 1.6 13.5 4.7 19.1 9 3.4 2.5 6.7 5.2 10.1 7.9-0.5 0.8-0.9 1.6-1.4 2.4-2.1-1.3-4.1-2.4-6-3.6-4.9-3.3-10.2-6-15.7-7.9-6.2-2.1-12.6-3.3-19.1-3.6-9.5-0.5-18.8-2.1-27.9-4.8l-11.6-3.5c-5.9-1.8-11.2-4.9-16.2-8.5-2.6-1.9-3.7-4.5-3.7-7.6s1-6.6 2-9.8c1.9-5.9 3.7-11.6 6.6-17 0.3-0.7 0.6-1.3 0.8-1.9 0.7-2.3 2.1-4.3 3.9-5.9 3.3-3 3.6-6.8 1.4-11.4 1.7-8.8 4.3-17.4 7.9-25.7h33.2l1.9 1.4c8.5 6.7 17.2 13.1 26.6 18.8 4.1 2.4 8.3 4.6 12.6 6.5 13.4 6.1 26.4 13.1 39.3 20.1l0.9 0.8" style="fill:#56595b"/>
  <path d="m240.7 407.5c-6.8-11.7-13.5-23.3-20.1-34.8 1.4-10.2-1-19.5-5.6-28.4-3.7-7.2-8.2-13.9-12.7-20.8l-10.8-16.3-0.9-1.5c1.1-0.4 31.7-0.7 34.4-0.2 6 6.2 18.8 28.6 20.3 35.7-2.7 1.7-3.1 3-2.2 6.2 2.2 6.7 4.3 13.4 6.5 20 0.5 1.6 0.7 3.2 0.6 4.9-0.6 7.2-1.6 14.3-3.9 21.1-1.6 4.5-3.4 8.9-5.2 13.3 0 0.2-0.2 0.5-0.4 0.8" style="fill:#56595b"/>
  <path d="m443.1 109.9-1.9 3.3-2-1.1-21.8-12.2c-6.5-3.6-13.7-5.6-21.1-6.6-8.8-1.1-17.8 0-26.1 3.3-5.3 2.1-10.1 5.4-14 9.6-2 2-3.6 4.4-4.7 7-2.2 5.2-1.4 10 2.2 14.3s7.6 6.3 12.5 7.7c5.4 1.6 11 2.7 16.6 3.2 8.7 0.9 16 4.9 21.7 11.5 3 3.6 6 7.3 9.1 11-0.4 0.7-0.8 1.4-1.3 2.3l-1.5-1-7-5.6c-6.7-5.4-14.4-8.5-22.6-10.6-5.4-1.4-11-2.1-16.5-3.3s-9.5-2.3-14.2-3.6c-2.3-0.6-4.5-1.5-6.8-2.2-2.6-0.9-4.9-2.4-6.8-4.4-1.5-1.6-2.4-3.6-2.7-5.7-0.8-6.5 0.3-12.8 2.2-18.9 1.9-6.2 3.9-12.8 6-19.1 1.8-5.4 5.2-10.2 9.8-13.6 3.1-2.5 7.1-3.3 10.9-2.2 7.7 2.2 15.1 4.9 22.3 8.3 13.2 6 26.5 12 39.5 18.3 6 2.9 11.7 6.5 17.6 9.8 0.2 0.1 0.4 0.3 0.6 0.5" style="fill:#56595b"/>
  <path d="m208.7 196c-6.5 0-12.8-0.2-19.2 0.1-3.9 0.3-7.8-0.9-10.8-3.3-3.8-2.7-7.8-5.2-12-7.3-10.3-5.5-19.2-13.4-25.8-23.1-4.7-6.7-9.6-13.1-14.5-19.7s-9.7-14.5-12.5-23c-2.6-7.4-6.3-14.3-11.1-20.5-4.2-5.8-8.8-11.3-13.1-17-5.9-7.9-11.8-16-17.7-23.9l-0.8-1.3h4.6l0.4 0.4c2.9 3.6 6.3 6.5 9.6 9.6 6.5 6.1 11.7 13.1 16.5 20.6 4.7 7.5 8.7 17.2 12.1 26.3 1.4 3.9 2.9 7.8 4.5 11.6 2.4 5.9 6.5 10.7 10.8 15.4 5.3 5.8 11.4 10.8 17.2 16 7.3 6.5 14.7 12.8 22 19.1 3 2.6 6.4 4.5 10.4 5s5.2-0.9 5.4-4.4c0.1-3-0.1-6-0.7-8.9-1-5-1.9-10-2.7-15.1-0.7-3.9-0.2-7.9 0.4-11.6 2.1-13.5 4.5-26.9 8.8-40 0.8-2.4 1.6-4.8 2.5-7.3 0-0.1 0.1-0.2 0.1-0.2l5.6 3.1c-0.1 0.5-0.2 0.9-0.4 1.3-4.1 12.7-7.4 25.5-10.1 38.6-1.7 7.7-1.4 15.7 0.7 23.3 2.1 6.9 6.2 12.2 11.9 16.5 3.9 2.8 8 5.1 12.4 7 8.5 3.8 17 7.4 25.5 11.1l1.7 1-0.1 0.4-1.3 0.1h-11.6c-1-0.1-1.9-0.3-2.7-0.7-3.1-1.4-6.4-2.1-9.8-2.1-2.4 0.1-4.6 0.6-6.2 2.9" style="fill:#56595b"/>
  <path d="m401.7 181.7-8.2 14.3-2.3-0.3-12.7-1.8-10.8-1.1-11.8-1.3-6.8-0.5-8.5-0.7c-8.6-0.7-17.1-1.8-25.5-3.3-8.9-1.6-17.4-4.4-25.9-7.6l-11.5-4.5-1.7-0.9v-6.4l1.8 0.5c7 2.2 14.1 4.4 21.1 6.7 3.2 1 6.4 1 9.6 0.8l13.3-0.6 16.8-1.2c9.6-0.7 19.2-0.7 28.8 0 11.5 1 22.3 4.8 33.4 7.4l0.9 0.5" style="fill:#56595b"/>
  <rect x="275" y="203.1" width="21.2" height="76.9" style="fill:#f9de81"/>
  <path d="m269.2 343.3 1.2-0.2c0-2.2-0.1-4.3 0.1-6.5 0.1-2.2 1-6.2 3.4-8.5 0.6-0.7 1.1-1.5 1.5-2.3 0.8-1.6 0.4-2.9-1.1-3.9-1.1-0.6-2.2-1.1-3.3-1.5l-10.2-3.2-3.4-5.9 0.2-0.4 12.7 4.3c1.2-3.2 0.8-6.6 1.8-10.1 0.5 0.3 0.9 0.6 1.3 1 6.7 9.6 11.5 20.2 13.2 32 0.6 3.3 0.9 6.7 0.7 10-0.3 3.9-0.4 7.7-1.1 11.6-2.1 11.1-5.1 21.9-9 32.5-3.3 9-6.8 17.7-11.8 25.9-2.9 4.6-5.5 9.4-8.2 14.1l-1 1.8c-1.7-3-3.3-5.7-4.9-8.5 0.3-0.8 0.6-1.6 1-2.4 4.3-10.2 8.5-20.5 11.8-31.2 2.3-7.8 4.1-15.8 5.2-23.9 0.6-3.8 0.7-7.6 1.1-11.4 0.1-0.6 0.2-1.3 0.4-1.9 0.4-1.8 0.5-3.5-0.4-5.1-0.2-0.1-0.3-0.3-0.3-0.5l-0.9-5.8" style="fill:#56595b"/>
  <path d="m408.3 170.3-1 1.5-1.5-0.5-12.8-5.5c-9.4-4.3-19.7-6.4-30-6.2-8.1 0.1-16.2-0.1-24.3-0.9-2.7-0.3-5.4-0.9-8-1.6-7-2.1-14-4.2-21-6.4s-13.1-5.6-19.1-9.6c-0.7-0.5-1.4-1-2.1-1.6-5-4.2-6.6-9.7-4.5-16 1-2.8 2.3-5.6 3.5-8.3 0.3-0.5 0.7-1 1.1-1.3 3.8-4.2 8.3-7.7 13.4-10.3 4.4-2.2 8.9-4 13.4-5.9l1.5-0.4-0.6 1.8c-1.6 3.6-3.3 7.1-4.7 10.8-2.1 5.2-3.7 10.6-4.8 16.2-0.6 2.9 0.4 5.5 1.7 8 1.3 2.4 3.1 4.4 5.3 5.9 4.3 3 8.9 5.3 13.9 6.9 11 4 22.4 6.6 34.1 8 3 0.4 6.2 0.4 9.3 0.7 9.4 1 18.5 3.4 26.7 8.3l10.5 6.4" style="fill:#56595b"/>
  <path d="m435.8 122.6-2.8 4.9-3.4-1.3-9.5-3c-5.2-1.6-9.6 0.8-11.1 6.2-0.8 2.5-0.4 5.2 1.1 7.3 1 1.3 2.1 2.6 3 3.9l6.8 9.3c-1 1.9-2 3.6-3.1 5.5l-1.3-1.3c-2.7-3.1-5.3-6.3-8.1-9.3-5.9-6.4-12.8-10.9-21.5-12.5-3-0.5-6-0.7-9.1-1.1-5.1-0.6-9.9-2.4-14.5-4.7l-1.7-1.1c-3.6-2.7-4.2-6-1.7-9.6 2.9-4.3 6.9-7.7 11.6-9.7 11.4-4.7 22.9-4.6 34.4-0.1 4.2 1.7 8.3 3.7 12.2 5.9 5.6 3 11 6.3 16.5 9.5l2.2 1.2m-56.9-15.7-2.4 0.7c-4.9 1-9.3 3.2-13.6 5.9-0.9 0.6-1.5 1.4-1.8 2.4-0.5 2.4-0.4 4.7 1.6 6.5 0.7 0.6 1.2 1.3 1.9 1.9 3.2 2.7 6.7 4.7 11 4.2 2.1-0.3 4.1-0.8 6-1.6 4.2-1.3 5.3-6.6 4.2-9.5s-1.8-4.2-2.5-6.5c-0.6-2-2.3-3.6-4.4-4" style="fill:#56595b"/>
  <path d="m128.5 195.8-0.8-1c-11.1-15.1-23.3-29.5-34.9-44.2-1-1.2-1.8-2.5-2.6-3.9-17-29.3-34-58.6-50.9-88.1l-0.9-1.6c0.7-0.5 1.2-0.3 1.6 0.3 8.1 11.2 17.3 21.5 26.7 31.5 8.7 9.1 15.7 19.7 20.8 31.3 5.9 13.6 13.1 26.4 21.7 38.4 4.9 6.9 9.5 14.1 14.5 20.9 3.9 5.3 8.2 10.2 12.4 15.1l0.8 1.1h-8.4z" style="fill:#56595b"/>
  <path d="m443.3 157h-3l16.8-29.2c5.6-9.6 11.2-19.3 16.8-29l16.7-28.9 17-29.4h-9.8l4.4-7.9h-310c-0.1-0.9-0.1-1.6-0.1-2.2 1.3-0.6 312.4-0.7 314.5-0.1-1.4 2.4-2.7 4.8-4.2 7.5l9.6 0.2c-23.1 39.9-45.9 79.4-68.7 119" style="fill:#f9de81"/>
  <path d="m280.4 391c0.1-0.4 0.2-0.9 0.4-1.3 4.2-11.7 7.2-23.8 8.7-36.1 0.6-4.4 0.2-9-0.3-13.4-1.3-12-5.6-23.6-12.5-33.5l-0.3-0.6c-0.1-0.1 0-0.2 0-0.4h22.6c3.5 4.3 6 9.4 7.3 14.8 1.7 7.4 1.2 14.8-0.4 22.2-0.2 1.3-0.5 2.5-0.8 3.8-0.9 3.7-2.3 7.2-4.2 10.5-6.5 11-12.8 22-19.1 33l-0.9 1.4-0.5-0.4" style="fill:#56595b"/>
  <path d="m188.4 56.9h8.9c-0.3 0.7-0.6 1.3-1 1.9-4.9 8.5-9.4 17.3-13.4 26.3-3.7 8.4-6 17.3-6.8 26.4-0.5 4.8-0.4 9.8-0.7 14.7-0.3 6.9-1.7 13.8-4.2 20.3l-0.7 1.6c-2.4 4.8-6.6 7-11.9 6.1-7.6-1.3-13.7-5-18.6-10.7-3.6-4.2-6.7-8.8-9.3-13.7l-20.2-38.3c-5.9-11.2-12.3-22.1-19.2-32.9-0.4-0.5-0.7-1.1-1-1.7l1-0.2h2.7l1.1 1.9c10.6 18.3 21.1 36.7 30.8 55.5 1.3 2.4 2.2 5 3.5 7.3 1.3 2.4 3.9 7 6.1 10.3 4 6 10.3 10.1 17.4 11.3 4.7 0.8 8.8-0.8 12-4.2 4.2-4.6 6.2-10.2 6.8-16.4 0.4-4.1 1.1-8.2 1.6-12.2 0.3-2.8 0.7-5.6 0.7-8.5 0.2-5.7 1.6-11.3 2.9-16.8 1.3-5.6 3.8-11.9 6.5-17.5 1.5-3 2.8-6 4.2-9l0.8-1.5" style="fill:#56595b"/>
  <path d="m97 56.8h6.5l0.9 2.1c3.4 10 7.8 19.7 12.3 29.3s10.8 18.8 17.3 27.5c3.2 4.2 6.5 8.2 9.8 12.3 2.1 2.6 5 4.2 8.3 4.7 6.1 0.8 14.7-4.8 13.8-13-0.4-4.5-1.3-9-1.7-13.5-0.6-6-0.5-11.9 0.2-17.9 1.3-10.7 5.6-20.4 9.9-30 0.2-0.5 0.4-0.9 0.7-1.3h9.9c-0.2 0.6-0.4 1.1-0.6 1.6-2.2 5-4.3 9.9-6.4 14.8-3.9 9.4-6 19.4-6.2 29.6 0 1.2-0.5 2.3-0.7 3.5l-0.9 9.9c-0.5 4.3-1 8.7-2.6 12.8-0.7 2-1.7 4-2.9 5.8-3.3 5-7.5 6.7-13.3 5.1-2.4-0.7-4.6-1.6-6.8-2.7-1.9-0.8-3.1-2.4-4.3-3.9-6.3-8.4-11.1-17.7-16-26.9-8.6-16.1-17.5-32.1-26.4-47.9-0.2-0.6-0.4-1.1-0.8-1.9" style="fill:#56595b"/>
  <path d="m195.3 80.9c-2.4 0.9-3 1.6-2.9 4.7 0 2.3-0.4 4.6-1.3 6.7-4.8 12.7-8.3 25.9-10.3 39.4-0.5 3.5-1.2 6.9-1.6 10.3-0.8 6.3-0.5 12.7 0.8 18.9 0.6 3.2 1.6 6.2 2.2 9.3 0.3 2 0.4 4.1 0.2 6.1-0.1 1.7-1.1 2.4-2.7 2.1s-3.2-0.8-4.7-1.6c-2.2-1.3-4.2-2.7-6.2-4.3-7-6-13.9-12.2-20.9-18.3l-0.7-0.7 0.1-0.4 1.9 0.6c2.7 1.4 5.6 2.4 8.6 2.9 7.5 1.1 12.9-1.8 15.8-8.8 2.4-5.8 3.8-12 4.2-18.3 0.5-6.6 0.7-13.2 1.3-19.8 0.9-9.3 3.5-18.4 7.6-26.8 4.1-8.5 8.6-16.7 13-25.1l0.7-1h8.2c-4.4 8.1-8.8 15.9-13.3 24.1" style="fill:#56595b"/>
  <path d="m147.8 195.9h-7l-10.2-11.6c-14.2-16.2-25.4-34.3-34.9-53.6-7.6-15.5-16-30.5-27.2-43.7-5.3-6.2-11-12.2-16.3-18.5-3-3.3-5.6-7-8.3-10.6l-0.6-1h8.9l0.9 1.2c6.6 10.7 14.1 20.7 22.4 30.2 1.4 1.5 2.6 3.1 3.7 4.8 8.4 13.3 16.6 26.6 25 39.9 6.8 10.9 13.7 21.8 20.6 32.6 2.8 4.3 6 8.3 9.1 12.3 4.2 5.5 8.5 10.8 12.7 16.2 0.4 0.5 0.7 1.1 1.2 1.8" style="fill:#56595b"/>
  <path d="m457.8 84.5-5.8-3.3c-11.4-6.5-23.4-11.6-35.5-16.4-4.8-1.9-9.4-4.4-14-6.6-0.6-0.3-1.2-0.6-1.7-1 1.2-0.5 57.9-0.8 64.5-0.4l5.7 5-13.2 22.7" style="fill:#56595b"/>
  <path d="m283.1 154.4 1-1.6c1.2-2.2 0.9-4.2-1.2-5.6-1.3-0.9-2.7-1.6-4.2-2.1l-16.4-5c-1-0.3-1.8-0.9-2.3-1.8-1.3-1.9-2.1-4.1-2.5-6.4l20.9 6.2c0.7-3.2 1.3-6.3 1.9-9.4h0.4c0.1 0.3 0.2 0.7 0.2 1-0.1 3.9 1.5 7 4.1 9.8 3.2 3.3 6.8 6.1 10.8 8.2 7.3 4.2 15.2 6.9 23.4 9 6.5 1.6 13 3.1 19.5 4.5 2.4 0.5 5 0.4 7.4 0.7 1.4 0 2.8 0.2 4.2 0.4 19.8-2.2 38.1 2.7 55.6 12.2-0.3 0.4-0.5 0.8-0.7 1.2l-8.8-2.9c-6.1-1.8-12.1-3.8-18.3-5.3-4.7-1.2-9.5-1.8-14.4-1.9-1.8-0.1-3.6-0.4-5.4-0.4-1.6 0-3.2 0-4.7 0.2l-6.4 0.5c-1.1 0.1-2.3 0.3-3.4 0.6h-7.1c-10.9 0.2-21.7-1.5-32-5-6.5-2.4-13.2-4.3-19.8-6.5l-1.7-0.7" style="fill:#56595b"/>
  <path d="m262.8 56.9h7.6c-3 8.7-7.9 16-13.8 23.1h3.1c6-6.8 10.4-14.7 13.9-23.1h16.3c-1.5 8.6-4.7 16.8-9.3 24.1h-13.7c-0.8 4.3-1.6 8.5-2.4 12.8h-10.5c-0.7-4.2-1.6-8.5-2.3-12.8h-4.5c5.7-8.1 12.4-15 15.6-24.1" style="fill:#56595b"/>
  <path d="m256.3 462.6-5.7 9.4c-32.1-55.6-64-110.9-96.1-166.5l2.4-0.8c7.9 13.5 15.7 27 23.4 40.4l23.4 40.5 23.3 40.4 23.6 40.8 5.6-9.3c1.8 3 3.5 5.7 5.3 8.8l31.8-54.9 2.1 1.7-33.8 58.4-5.3-8.9" style="fill:#f9de81"/>
  <path d="m162.7 195.9h-11.6l-1.5-1.9c-7.4-9.9-15.1-19.5-22.2-29.6-5.9-8.3-11.3-17-16.7-25.6-8.5-13.6-16.7-27.4-25.3-40.9-3.8-5.9-8.3-11.4-12.5-17-5.6-7.3-11.6-14.4-16.5-22.3l-1.1-1.9h5.8c0.3 0.5 0.7 1 1 1.6 5.8 9.5 11.4 19.1 18.1 28 3.7 5 7.8 9.7 12.2 14.1 3.2 3.3 5.9 7.2 7.9 11.4 3.3 6.7 6.3 13.5 9.9 20 7.2 12.8 15.2 25 24.9 36.1 3.6 4.2 7.3 8.4 11.2 12.3s9.3 8.8 14 13.1l2.4 2v0.6" style="fill:#56595b"/>
  <path d="m64.2 56.8h3.3c0.4 0.6 0.9 1.1 1.3 1.7 6.3 8.5 12.5 17.1 18.9 25.7 3 4.1 6.5 7.9 9.7 11.9 4.5 5.5 8.3 11.5 11.4 18 0.9 1.8 1.6 3.7 2.3 5.6 2.4 7.5 6.1 14.6 10.8 21 6.8 9.1 13.4 18.3 20.3 27.3 4.9 6.5 10.9 12 17.8 16.2l16.8 10.5c0.5 0.3 0.9 0.7 1.1 1.2h-10.7l-2.5-2.2c-8.6-7.2-16.8-15.1-24.3-23.5-12.8-14.4-23.6-30.4-32.1-47.7-1.8-3.7-3.6-7.3-5.3-11-2.1-4.8-5-9.2-8.6-12.9-10.8-10.8-19.5-23-26.9-36.3-1-1.8-2.1-3.5-3.3-5.5" style="fill:#56595b"/>
  <path d="m236.3 185.1 3.6 6.6-1-0.1c-8.2-3.5-16.5-6.8-24.6-10.5-6.8-2.9-12.9-7.4-17.8-13.1-4.4-4.9-6.7-11.4-6.5-18 0-2.2-0.2-4.5 0-6.8 0.2-2.2 0.8-5.3 1.3-8 2.5-12.3 5.7-24.4 9.6-36.3 0.2-0.6 0.4-1.1 0.7-1.9l4.7 1.8c-0.1 0.6-0.3 1-0.4 1.5-4.1 12.2-7.4 24.7-9.9 37.4-2.7 13.6 1.9 24.3 12.6 32.7 4.5 3.4 9.4 5.9 14.5 8.3l13.2 6.4" style="fill:#56595b"/>
  <path d="m106.4 56.9h2.4c0.2 0.6 0.6 1.3 0.8 1.9 5.5 14.6 13 28.4 22.4 40.9 3.1 4.1 6.6 7.9 9.9 11.6 1.3 1.6 3.1 2.6 5.1 3.1 4.7 1.1 10.6-1.7 12.8-6 0.4-1 0.9-1.9 1.4-2.8h0.3c0.1 1.1 0.3 2.2 0.5 3.3 0.7 3.8 1.6 7.5 1.5 11.4-0.1 6.2-4.9 9.3-9.6 9.8-3.6 0.3-6.6-1.7-8.8-4.5s-5.9-7.3-8.6-11.1c-9.1-12.5-17.4-25.4-23.3-39.8-2.2-5.6-4.4-11.1-6.5-16.7-0.1-0.5-0.2-0.8-0.3-1.1" style="fill:#56595b"/>
  <path d="m403.6 177.9c0 0.2 0 0.4-0.1 0.5-0.1 0.3-0.3 0.5-0.4 0.7l-1.6-0.3-14.9-3.8c-5.3-1.3-10.6-2.4-16-3.6-1.9-0.3-3.9-0.4-5.9-0.4-3.1-0.2-6.2-0.5-9.3-0.6s-4.2 0.2-6.2 0.3l-1.9 0.2-21.7 1.3-15.1 1.3c-4.8 0.3-9.5-0.4-14-2l-18.8-6.4-1.5-0.6c-0.1-2.7 1.8-6 4.6-8.1l1.9 0.6c10.6 3.3 21.1 6.8 31.8 9.9 6.6 1.9 13.5 2.3 20.3 2l19.6-0.8c1-0.1 2-0.2 3-0.4l1.6-0.1c2.7 0.1 5.4 0.2 8.1 0.6 6 1 12.1 1.8 17.9 3.6l17.7 5.6 0.9 0.5" style="fill:#56595b"/>
  <path d="m158 56.9h4.5c-0.2 0.7-0.4 1.3-0.6 1.8-3.6 9.9-5 20.4-4.1 30.9 0.1 2.3 0.2 4.5 0.4 6.8 0.1 1.1 0.2 2.1 0.5 3.2 1.1 4.2-1.3 9.5-5.2 11.2-0.9 0.5-1.8 0.8-2.8 1.1-2.4 0.5-4.8-0.3-6.5-2.1-11.2-11.4-20.5-24.8-27.1-39.5-1.7-3.9-3.3-7.9-4.9-11.9-0.1-0.4-0.2-0.9-0.4-1.5h2.3l0.7 1.2c2.2 4.5 4.4 9.1 6.8 13.4 3.9 7.1 8.8 13.7 14.5 19.5 1.4 1.3 2.9 2.5 4.5 3.6 4.7 3.5 10.5 1.1 13.2-1.9s2.9-5.7 3.1-8.9c0.1-2.4 0-4.7-0.3-7-0.7-6.4-0.3-12.9 1.2-19.2 0-0.2 0.1-0.5 0.2-0.7" style="fill:#56595b"/>
  <path d="m245.1 168.5c2.9 0.7 5.8 1.4 8.7 2.2l20.6 6.1c0.7 0.1 1.4 0.2 2.1 0.2 0.1-0.1 0.1-0.3 0.1-0.4l18.6 7c5.9 2.2 11.7 4.5 18 5.7l4.5 0.6 15.2 2 1.3 0.1c3.1 0.2 6.2 0.2 9.3 0.8s7.1 0.7 10.7 1.1l15 1.6 0.7 0.1c-0.1 0.1-0.1 0.2-0.1 0.3h-59.7c-0.9 0-1.8-0.2-2.6-0.5-13.3-5.4-26.6-10.8-39.8-16.4-6.6-2.8-13.2-5.8-19.7-8.8-1-0.4-1.9-1-2.8-1.4-1.2-0.3-0.2-0.2-0.1-0.3" style="fill:#56595b"/>
  <path d="m0 37.9h9.7l-4.2-7.6c1.2-0.5 23.6-0.6 25.6-0.1 0.1 0.6 0.2 1.3 0.4 2.2h-21.8c1.6 2.7 2.8 5.1 4.4 7.8-3.3 0.2-6.3 0.1-9.6 0.3 27.8 48.2 55.6 96.4 83.4 144.4-2.2 0.6-2.9 0.3-3.9-1.4-3.1-5.3-6.2-10.6-9.2-16l-73.8-127.7c-0.3-0.4-0.5-1-1-1.9" style="fill:#f9de81"/>
  <path d="m235.1 175.7c-1.9 3.2-1.9 3.2-1.2 5.3l-1.3-0.4c-2.8-1.3-5.6-2.4-8.4-3.7-7.4-3.4-14.1-8.1-19.7-13.9-4.5-4.7-6.2-10.5-6.5-17-0.1-5.4 0.6-10.7 2.2-15.9l8-28 0.7-1.9 4.7 2.2c-0.3 0.8-0.4 1.6-0.7 2.2-3.4 8.8-5.8 17.9-8.2 26.9-1.4 5.1-1.5 10.5-0.4 15.7 1.4 6.1 4.7 11.6 9.4 15.7 3.9 3.6 8.4 6.6 13.3 8.8l6.8 3.3 1.3 0.7" style="fill:#56595b"/>
  <path d="m397.4 140.5c-0.8-0.3-1.6-0.6-2.3-1-4.2-2.2-8.8-3.1-13.4-3.7-6-0.8-11.9-2.1-17.6-4-3.4-1.1-6.4-3.2-8.8-5.9-2.2-2.5-3-6-2-9.3 1.4-4.7 4.2-8.8 8.1-11.7 8.9-7 19.1-9.5 30.3-9.2 5.9 0.2 11.6 0.8 17 3.2 3.3 1.4 6.5 2.7 9.6 4.5 6.8 3.8 13.7 7.7 20.4 11.6 0.4 0.2 0.7 0.4 1 0.7l-2.7 4.7-1.6-0.9-16.3-9.6c-6.2-3.6-12.6-6.8-19.7-8.3-3.3-0.8-6.7-1.4-10.2-1.6-3.3-0.1-6.6 0.2-9.8 0.8-7.1 1.1-13.6 3.9-18.9 8.8-2 1.8-3.7 4-4.9 6.5-1.8 3.6-1.3 7 1.5 9.9 1.4 1.3 3 2.4 4.7 3.3 4.9 2.4 10.3 3.5 15.7 4.5 5.3 1 9.1 1.7 13.6 2.9 1.9 0.4 3.6 1.5 5.4 2.4 0.4 0.3 0.8 0.6 1.2 1l-0.3 0.4" style="fill:#56595b"/>
  <path d="m239.3 172.5-2 1.5c-2.7-1.3-5.4-2.4-7.9-4-4.4-2.5-8.6-5.2-12.7-8.1-5.8-4.1-9.5-10.4-10.2-17.4-0.6-4.6-0.2-9.3 1.2-13.8 2.5-8.7 5.3-17.2 8-25.8 0.1-0.3 0.3-0.7 0.4-1l4.2 2.7c-0.2 0.6-0.4 1.2-0.6 1.7-3.1 7.7-5.5 15.6-7.3 23.7-1.8 8.4 0.5 15.8 5.9 22.2 4 4.7 8.9 8.5 14.4 11.4 7 3.8 14.2 7.3 21.3 10.8l1.5 0.8c0 0.1-0.1 0.2-0.1 0.4l-16.1-5.1" style="fill:#56595b"/>
  <path d="m152.4 56.9h2.7c-0.1 0.7-0.2 1.5-0.3 2.2-1.1 4.2-0.7 8.6-0.8 12.9 0 2.2-0.1 4.3-0.1 6.4s0.2 2 0.3 3c0.1 0.7 0.1 1.3 0.1 2-0.1 1.1-0.3 2.2-0.4 3.3-0.5 3.6-3 5.5-6 6.7s-5.1 0.1-7.1-1.9-4.5-4.6-6.7-7c-7.1-7.8-12.7-17-16.3-26.9-0.1-0.2-0.1-0.4-0.2-0.8l2.6-0.1 1 1.6c2.4 4.3 5.1 8.5 8.6 12.1 2 2.1 4.1 4 6.5 5.7 4.7 3.3 12 3.1 15.1-4.6 0.8-2.4 1.2-5 1.2-7.6-0.1-2.3-0.2-4.6-0.2-7" style="fill:#56595b"/>
  <path d="m217.7 367.7-35.9-62.2h5.9c0.4 0.4 0.7 0.9 1 1.3 7.3 11.6 14.7 23.1 21.9 34.6 3.2 5 5.8 10.5 6.9 16.3 0.6 3 0.5 6 0.7 9.1 0 0.3-0.1 0.5-0.1 0.7l-0.4 0.2" style="fill:#56595b"/>
  <path d="m329 56.9c-4.3 7.8-5.4 16.2-7.3 24.3h-16.5c2.8-8.1 3.8-16.2 5.4-24.3z" style="fill:#56595b"/>
  <path d="m266.9 363c0.1 0.8 0.1 1.7 0 2.5-0.8 5.7-1.8 11.4-3.1 16.9-3.3 13.5-8.2 26.3-13.7 39l-0.7 1.2-7-12.2c5.2-10.2 8.4-21.1 10.5-32.3 1.9 5.3 2.8 10.9 4.5 16.3h1.7c0.4-2.1 0.8-4.2 1.3-6.2 1.3-6.5 2.7-13.1 4.2-19.7 0.5-1.9 1.2-3.8 1.9-5.6z" style="fill:#56595b"/>
  <path d="m283.8 80.9c4.7-7.6 7.3-15.6 9-24h15c-1.2 8.2-2.2 16.3-5.4 24z" style="fill:#56595b"/>
  <path d="m239.2 165.9-4.6-2.6c-4.8-2.7-9.6-5.7-13.5-9.6s-6.6-9.3-6.5-15.5c0-4.4 0.7-8.8 2.2-13 1.7-4.8 3.3-9.6 5-14.4 0.3-0.8 0.6-1.6 1-2.4l3.8 3.3-0.7 1.9c-1.9 4.8-3.8 9.6-4.7 14.8-0.7 3.8-0.7 7.6-0.1 11.4 0.5 2.8 1.7 5.4 3.6 7.6 3.3 4.1 7.1 7.7 11.4 10.8 0.5 0.3 0.9 0.7 1.2 1.3 0.6 2 1.2 4.1 1.9 6.4" style="fill:#56595b"/>
  <path d="m370.4 56.9h6.7c1.9 1.5 3.9 3.2 5.9 4.8 7.8 6.2 15.9 11.7 24.9 16 11.4 5.3 22.9 10.8 34.2 16.2 2.2 1 4.2 2.3 6.2 3.4l1.5 1-2.2 3.8-0.9-0.3-41-21.4c-8.4-4.2-16.3-9.1-23.8-14.7l-10.3-7.5-1.3-1c0.1-0.1 0.1-0.3 0.1-0.3" style="fill:#56595b"/>
  <path d="m144.6 56.9h5.5c0.1 0.6 0.1 1.2 0.1 1.8-0.3 3.6-0.6 7.3-1.1 11-0.6 3.3-3.3 5.7-6.6 6-1.2 0.1-2.3-0.1-3.3-0.7-1.4-0.9-2.7-1.9-3.9-3-4.2-3.7-7.9-8-10.8-12.8l-1.3-2.4c1.4 0.1 2.8 0.1 4.2 0 1.9-0.2 3.7 0.3 5.2 1.5 1.3 1.1 2.8 1.7 4.5 1.9 2.6 0.4 4.9 0 6.7-2.1l0.8-1.2" style="fill:#56595b"/>
  <path d="m381.4 56.8h4.2l5.9 4.3c7.7 5.4 16 9.9 24.7 13.4 9.9 4.1 19.9 8.4 29.3 13.7l6.1 3.6 1.4 1c-0.7 1.2-1.3 2.2-1.9 3.4l-0.9-0.4c-13.4-7.8-27.5-14.5-41.7-20.7-5.9-2.6-11.5-5.9-16.7-9.8-3.1-2.4-6.4-4.7-9.6-7l-1-0.9c0.1-0.4 0.2-0.5 0.2-0.6" style="fill:#56595b"/>
  <path d="m456.4 86.9-1.8 3.1-0.8-0.3c-12.4-7.2-25.3-13.4-38.7-18.5-8.4-3.4-16.3-7.9-23.6-13.4-0.3-0.2-0.6-0.4-0.8-0.7 2.2-0.2 4.2-0.7 6.1 0.6 8.2 5.3 17.1 9.2 26.3 12.5 11.4 4 22.2 9.4 32.3 16l1 0.7" style="fill:#56595b"/>
  <path d="m431.7 129.7c-3.5 5.9-6.8 11.7-10.2 17.7l-1-1.2c-2.3-3-4.5-6.1-6.9-9-1.7-2.1-2.4-4.7-1.9-7.3 0.2-2.4 2.2-4.2 4.5-4.2 1.5-0.1 3.1 0.1 4.6 0.4 3.2 0.9 6.3 2 9.5 3l1.4 0.6" style="fill:#56595b"/>
  <path d="m228.4 113.8 3 3.5c-0.6 2-1.2 4-2 5.9-1.9 4.2-1.3 8.4-0.1 12.7 0.1 0.6 0.4 1.2 0.6 1.9l-0.6 1 4.8 8c1.5 2.6 3.2 5.1 3.1 8.3-0.2 0.1-0.3 0.1-0.4 0.1-3.6-2.6-7-5.3-9.8-8.9-3.5-4.4-5-10-4.2-15.6 0.9-5.9 3.2-11.2 5.6-16.9" style="fill:#56595b"/>
  <path d="m307.7 343.6c3.6-13.4 3-26.3-5.7-38.1h5.2c5.2 5.9 8.6 13 11.2 20.6l-10.4 17.7-0.3-0.2" style="fill:#56595b"/>
  <path d="m254.3 130.9c0.9 2.5 1.6 4.9 2.5 7.4l-1.6-0.4c-5-1.3-10.2-2.5-15.3-3.9-1.7-0.5-3.6-0.2-5 0.8l-2.4 1.5c-2.4-4.5-1.9-11.4 0.8-16.2l1.2 1.7c1.4 2.4 3.7 4.1 6.4 4.9 4.5 1.3 8.9 2.9 13.4 4.2" style="fill:#56595b"/>
  <path d="m228.7 305.4h14.5c3.1 1.3 5.7 2.4 8.4 3.3 1 0.3 1.9 1 2.4 1.9 1 1.8 2.1 3.5 3 5.2l-0.2 0.3-2.4-0.6-8.4-2c-1.7-0.6-3.7-0.3-5.2 0.7l-2.6 1.4c1.4 3.7 3.6 7.1 4.2 11.1l-13.7-21.3" style="fill:#56595b"/>
  <path d="m259.5 56.9c-0.7 4.5-9.4 17.7-15.8 24h-7.1c0.4-0.7 0.6-1.2 0.9-1.6 1.9-2.5 3.6-5 5.5-7.5 3.3-4.4 6.3-9.1 8.8-13.9l0.6-1z" style="fill:#56595b"/>
  <path d="m242 56.9h7c-4 8.9-10.2 16.2-15.7 24h-6.7c0.4-0.7 0.6-1.2 0.9-1.6 1.9-3 3.8-6.1 5.7-9.1 2.9-4.4 5.8-8.8 8.8-13.3" style="fill:#56595b"/>
  <path d="m231.4 56.8h7.5c-0.3 0.6-0.6 1.2-1 1.8l-9.6 14.4c-1.7 2.6-3.2 5.3-4.9 7.9h-6.3c4-8.4 8.8-16.5 14.3-24.1" style="fill:#56595b"/>
  <path d="m220.8 56.8h7.6c-5.2 8-10.4 15.7-14.2 24.1h-6.2c3.3-8.6 8-16.4 12.8-24.1" style="fill:#56595b"/>
  <path d="m211.9 56.9h6.2c-4.9 8-9.7 15.7-13.3 24h-6.4c3.9-8.5 8.7-16.2 13.5-24" style="fill:#56595b"/>
  <path d="m351.5 311.3 2.2 0.8c-9.7 17-19.4 33.7-29.2 50.7l-1.5-1.9c0.2-1.5 27.3-48.4 28.5-49.6" style="fill:#f9de81"/>
  <path d="m161.1 95.2c-2.6-13.2-0.1-25.8 4.3-38.4h6.8c-0.4 0.9-0.6 1.5-0.9 2.1-3.5 7.4-6.6 14.9-8.3 23-0.9 3.9-1.4 8-1.4 12 0 0.4 0 0.9-0.1 1.3h-0.4" style="fill:#56595b"/>
  <path d="m102.9 286.1h3.6l5.8 7.3h0.2v-7.1h3.6v13.1h-3.6l-5.6-7.1-0.4 0.1v7h-3.6z" style="fill:#f9de81"/>
  <path d="m101 164.9c8.8 9.7 16.1 20.5 24.1 30.6-0.1 0.1-0.1 0.3-0.1 0.4h-6.4l-17.9-30.9 0.3-0.1" style="fill:#56595b"/>
  <path d="m248.5 341.7c-0.8-1.9-1.6-3.9-2.4-5.9l0.1-0.4 20 6.5c0.2 2.1 0.4 4.2 0.7 6.5l-18.4-6.7" style="fill:#56595b"/>
  <path d="m148.6 299.3v-13.3c2.4 0.1 4.9-0.4 7.3 0.4 2.9 1.1 4.7 4 4.4 7.1-0.3 3-2.6 5.4-5.6 5.8-2 0.1-4.1 0.1-6.1 0m3.7-3.2c1.6 0.3 2.9-0.1 3.6-1.6 0.7-1.2 0.7-2.7-0.1-3.9-0.7-1.2-2.2-1.8-3.6-1.3z" style="fill:#f9de81"/>
  <path d="m323.4 294.1c1.3 1.7 2.5 3.3 3.9 5.3h-4.5l-2.7-4h-0.3v3.9h-3.7v-13.1c2.4 0 4.7-0.1 7 0.1s2.5 1.6 2.7 3.2-0.1 3.2-1.7 4.2l-0.7 0.4m-3.4-5.1v2.7c1.3 0.3 2.1-0.1 2.3-1.3 0.2-1.3-1-1.7-2.3-1.4" style="fill:#f9de81"/>
  <path d="m134.7 142.4c-0.9-0.6-1.7-1.3-2.4-2.1-2.7-3.2-5.3-6.4-7.9-9.6-2.5-3.3-4.5-8.5-5.9-13.1-0.9-3.1-2.1-6.2-3-9.3-0.2-0.6-0.3-1.1-0.3-1.7l0.4-0.2c6.5 11.9 13 23.7 19.5 35.5l-0.4 0.5" style="fill:#56595b"/>
  <path d="m191.9 286.1h3.6c0.1 0.6 0.1 1.1 0.1 1.7v6.2c0.1 1.6 0.8 2.5 2.2 2.5s2.1-0.9 2.2-2.4c0.1-1.6 0-4 0.1-5.9 0-0.7 0-1.3 0.1-2h3.5c0.1 0.6 0.1 1.1 0.1 1.7v6.1c0 2.3-0.9 4.2-3 5.2-2.2 1.2-5 0.9-7-0.6-0.6-0.5-1.1-1.2-1.3-1.9-0.9-3.6-0.4-7.1-0.6-10.6" style="fill:#f9de81"/>
  <path d="m324.5 315.4-4.2 7.2h-0.3c-2.2-6-5.5-11.6-9.2-17.1h7.6l6.1 9.9" style="fill:#56595b"/>
  <path d="m95.4 32.4c0.2-0.9 0.3-1.5 0.4-2 1.6-0.7 33.7-0.7 35.3 0-0.2 0.7-0.3 1.3-0.4 2z" style="fill:#f9de81"/>
  <path d="m244.8 286.9c-0.4 0.9-0.9 1.7-1.3 2.6-1.3-0.3-2.7-1.6-3.9 0.4l1.4 1 1.5 0.5c2 0.7 2.8 1.8 2.9 3.6 0.1 1.9-1 3.7-2.8 4.5-2.4 0.9-5.2 0.4-7.1-1.3l1.3-2.5c3.8 1.5 3.9 1.5 4.8-0.3-0.4-0.3-0.9-0.6-1.3-0.9l-1.3-0.4c-2.3-0.8-3.1-1.9-3-3.8 0-2.1 1.4-3.8 3.4-4.3 1.8-0.6 3.8-0.2 5.4 0.9" style="fill:#f9de81"/>
  <path d="m441.1 289.5c-2.8-1-3.1-1-3.6 0.7l2.1 0.9c2.7 0.9 3.6 2.1 3.4 4.3s-1.6 3.8-4 4.2c-2.1 0.4-4.2-0.2-5.9-1.5l1.4-2.7c3.6 1.6 4.5 1.6 4.6-0.6l-2.6-1c-2.3-0.8-3-1.8-2.8-4.2 0.1-2 1.7-3.6 3.6-3.9 1.8-0.3 3.7 0.2 5.2 1.2l-1.4 2.6" style="fill:#f9de81"/>
  <path d="m100.1 79.3c-0.4-0.4-0.7-0.8-1-1.3-2.4-3-4.7-6.1-7.2-9.1-1.2-1.3-2.5-2.6-3.8-3.9l-7.8-7.3-0.6-0.9h7.3c5.6 6.7 9.3 14.5 13.7 22l-0.6 0.5" style="fill:#56595b"/>
  <path d="m394.3 299.3v-13.2h7.6v2.8l-3.9 0.3v1.8l3.6 0.1v2.9l-3.6 0.2v1.9h3.9v3.1h-7.6z" style="fill:#f9de81"/>
  <path d="m281.4 193.5c-0.7-2.4-1.3-4.3-2-6.5l21.9 8.6c-0.1 0.1-0.1 0.2-0.1 0.3h-12.6c-0.9-0.1-1.9-0.3-2.7-0.6-1.7-0.6-3.2-1.3-4.5-1.8" style="fill:#56595b"/>
  <path d="m49.7 291.2v2.4h-29.3c0-0.3-0.1-0.7-0.1-1v-1.4z" style="fill:#f9de81"/>
  <path d="m458.7 293.4v-2.2h29.4c0 0.7 0.1 1.4 0.1 2.1-1.3 0.5-27.7 0.5-29.5 0.1" style="fill:#f9de81"/>
  <path d="m251.4 474.4c1.6-2.6 3-5 4.7-7.8l4.6 7.7-4.6 7.8-4.7-7.7" style="fill:#f9de81"/>
  <path d="m278.6 289.3-2.6-0.4v-2.9h9.1v2.9l-2.7 0.4v10h-3.8z" style="fill:#f9de81"/>
  <path d="m153.9 32.4-0.4-2.2c0.6-0.2 1.3-0.3 1.9-0.3h20.6l1.7 0.2v2.2h-23.8z" style="fill:#f9de81"/>
  <rect x="358.4" y="286.1" width="3.4" height="13.3" style="fill:#f9de81"/>
  <rect x="66.9" y="286.1" width="3.5" height="13.2" style="fill:#f9de81"/>
  <path d="m330.2 305.5-4.2 7.4-4.4-7.4z" style="fill:#56595b"/>
  <path d="m473.7 56.9-1.6 2.7-2.9-2.4 0.2-0.4h4.3z" style="fill:#56595b"/>
  <path d="m139.7 57.1h-3v-0.2h2.9c0 0.1 0 0.1 0.1 0.2" style="fill:#56595b"/>
  <path d="m214.5 195.6h2.3v0.2h-2.3v-0.2" style="fill:#56595b"/>
  <path d="m277.8 195.5c0.1-0.1 0.3-0.2 0.4-0.1s0.4 0.1 0.7 0.4l-0.7 0.2-0.5-0.1v-0.4" style="fill:#56595b"/>
  <path d="m375.1 126c-2.7 0-5.3-1-7.4-2.7-1.1-0.9-2.2-1.9-3.1-3-1.3-1.4-1.3-3.6 0.1-4.9 0.3-0.3 0.6-0.5 0.9-0.6 3.6-1.9 7.3-3.6 11-5.3 1.9-0.9 4.7 1 4.7 3.1 0.1 1.4 0.5 2.8 1.3 4.1 0.4 0.8 0.7 1.6 0.9 2.4 0.6 2-0.2 4.1-2.1 5-1.9 1.2-4 1.9-6.3 1.9" style="fill:#56595b"/>
 </g>
</svg>
