<?xml version="1.0" encoding="UTF-8"?>
<svg version="1.1" viewBox="0 0 192 192" xml:space="preserve" xmlns="http://www.w3.org/2000/svg">
	 <g><path transform="translate(.00055 -.0031)" d="m90.583 176.4a12.787 12.787 0 0 0 10.834 0l12.274-5.74a12.794 12.794 0 0 1 4.317-1.1562l13.498-1.1665a12.787 12.787 0 0 0 9.3831-5.4185l7.7583-11.107a12.787 12.787 0 0 1 3.1608-3.1608l11.107-7.7582a12.787 12.787 0 0 0 5.4185-9.3831l1.1631-13.498a12.783 12.783 0 0 1 1.1596-4.317l5.74-12.274a12.787 12.787 0 0 0 0-10.834l-5.74-12.274a12.787 12.787 0 0 1-1.1562-4.317l-1.1665-13.502a12.787 12.787 0 0 0-5.4185-9.3797l-11.104-7.7617a12.787 12.787 0 0 1-3.1608-3.1574l-7.7583-11.111a12.787 12.787 0 0 0-9.3831-5.415l-13.498-1.1665a12.787 12.787 0 0 1-4.317-1.1562l-12.274-5.74a12.787 12.787 0 0 0-10.834 0l-12.277 5.74a12.787 12.787 0 0 1-4.317 1.1562l-13.502 1.1665a12.787 12.787 0 0 0-9.3797 5.415l-7.7617 11.111a12.79 12.79 0 0 1-3.1574 3.1574l-11.111 7.7617a12.787 12.787 0 0 0-5.415 9.3797l-1.1665 13.502a12.787 12.787 0 0 1-1.1562 4.317l-5.74 12.27a12.787 12.787 0 0 0 0 10.834l5.74 12.274a12.783 12.783 0 0 1 1.1562 4.317l1.1665 13.498a12.787 12.787 0 0 0 5.415 9.3831l11.111 7.7617a12.79 12.79 0 0 1 3.1574 3.1574l7.7617 11.111a12.787 12.787 0 0 0 9.3797 5.4185l13.502 1.163a12.794 12.794 0 0 1 4.317 1.1596z" fill="#fff" stroke-width=".34208"/><path d="m71.352 88.804a24.648 27.182 0 0 1 24.648-27.182 24.648 27.182 0 0 1 24.648 27.182" fill="#56595b" stroke-linecap="round" stroke-linejoin="round" stroke-width="5.269"/><path d="m71.352 92.721v15.895a24.648 27.182 0 0 0 12.324 23.541 24.648 27.182 0 0 0 24.648 0 24.648 27.182 0 0 0 12.312-23.31h0.0117v-0.21326a24.648 27.182 0 0 0 9.2e-4 -0.0171h-9.2e-4v-15.895z" fill="#56595b" stroke-linecap="round" stroke-linejoin="round" stroke-width="7.6979"/><path d="m82.907 67.768-8.7552-8.7552 2.8098-2.8098 9.8954 9.8954z" fill="#56595b" stroke-linecap="round" stroke-linejoin="round" stroke-width="4.6071"/><path d="m108.93 67.768 8.7552-8.7552-2.8098-2.8098-9.8954 9.8954z" fill="#56595b" stroke-linecap="round" stroke-linejoin="round" stroke-width="4.6071"/><circle cx="85.351" cy="78.762" r="3.665" fill="#fff" stroke-linecap="round" stroke-linejoin="round" stroke-width="4.6071"/><circle cx="106.36" cy="78.762" r="3.665" fill="#fff" stroke-linecap="round" stroke-linejoin="round" stroke-width="4.6071"/></g></svg>
