<?xml version="1.0" encoding="UTF-8"?>
<svg version="1.1" viewBox="0 0 192 192" xmlns="http://www.w3.org/2000/svg">
 <path d="m113.26 62.427 20.131-21.882c3.7521-3.7521 6.3354-6.6688 12.004-6.7522h30.51l-9.1279 26.509-58.644 35.136z" style="fill:#a0a5af;stroke-linecap:round;stroke-linejoin:round;stroke-width:5.946"/>
 <path d="m16.099 158.21h28.884c20.386-27.217 44.021-48.086 63.145-62.77 2.7092-10.67 4.4181-21.674 5.1266-33.011-32.39 31.933-79.764 86.684-97.156 95.781z" style="fill:#ba6561;stroke-linecap:round;stroke-linejoin:round;stroke-width:5.946"/>
 <path d="m150.02 109.44 16.755-49.141c-21.715 9.378-41.263 21.09-58.644 35.136l-12.629 39.638z" style="fill:#f9de81;stroke-linecap:round;stroke-linejoin:round;stroke-width:5.946"/>
 <path d="m108.13 95.437c-24.84 18.978-45.888 39.902-63.145 62.77h17.506c10.503-8.5444 21.507-16.255 33.011-23.132 5.8769-12.379 10.087-25.592 12.629-39.638z" style="fill:#ff837d;stroke-linecap:round;stroke-linejoin:round;stroke-width:5.946"/>
 <path d="m83.871 158.21h48.266l17.881-48.766c-18.597 6.5268-37.22 12.935-54.518 25.633z" style="fill:#728dbe;stroke-linecap:round;stroke-linejoin:round;stroke-width:5.946"/>
 <path d="m62.489 158.21h21.382c4.7099-7.2106 8.5861-14.921 11.629-23.132-11.615 6.9556-22.619 14.666-33.011 23.132z" style="fill:#8c72bd;stroke-linecap:round;stroke-linejoin:round;stroke-width:5.946"/>
</svg>
