<?xml version="1.0" encoding="UTF-8"?>
<svg version="1.1" viewBox="0 0 192 192" xml:space="preserve" xmlns="http://www.w3.org/2000/svg">
	 <circle class="a" cx="96" cy="96" r="88" fill="#56595b"/><path d="m90.936 139.44c-6.0628-2.9057-13.694-9.7265-19.177-17.141-4.289-5.7996-4.9747-7.2066-3.2626-6.6951 0.5366 0.16032-0.41986-0.45497-2.1254-1.3673-3.7946-2.0298-6.5204-4.9629-8.6582-9.3169-1.4613-2.9763-1.6209-3.8498-1.6209-8.8762 0-4.5938 0.20689-5.9676 1.1754-7.805l1.1754-2.23h3.9295c2.1612 0 3.6393-0.18431 3.2846-0.40959-0.3547-0.22527-1.982-0.41343-3.6162-0.41813l-2.9713-9e-3 0.39468-3.7632c1.4668-13.985 11.445-25.528 25.175-29.125 6.4632-1.6929 16.849-1.58 23.17 0.25174 8.2193 2.3819 14.746 7.1329 19.051 13.867 2.7998 4.38 5.3298 11.819 5.3298 15.672v3.0382l-5.8538 0.40952 3.1677 0.10312c2.7817 0.0906 3.3043 0.29498 4.2887 1.6775 1.7054 2.395 2.5793 8.1082 1.8627 12.177-1.2692 7.2054-4.5784 11.879-10.434 14.735-1.8398 0.89739-2.9613 1.5661-2.4923 1.486 1.5913-0.27173 1.382 0.58257-1.038 4.2368-2.9704 4.4855-10.354 12.431-14.54 15.646-3.9582 3.0403-8.8118 5.3399-11.253 5.3315-1.0436-3e-3 -3.2773-0.6679-4.9637-1.4762zm7.9721-12.315 1.7842-0.97563-2.3694-0.17143c-1.3032-0.0943-3.4356-0.0943-4.7388 0l-2.3694 0.17143 1.6725 0.95331c2.1553 1.2285 3.8038 1.2346 6.0208 0.0223zm-14.941-13.717c2.7671-0.83099 2.9863-1.8428 1.6592-7.6603-2.2319-9.7842-11.035-16.931-20.87-16.946-4.7233-7e-3 -5.1593 0.71053-4.9114 8.0799 0.16623 4.9422 0.31773 5.5405 2.2588 8.9201 2.3388 4.0721 4.2672 5.8016 8.0916 7.2572 3.0937 1.1775 10.397 1.3624 13.772 0.34872zm-17.243-5.1382c-0.6558-0.65581-0.87608-2.0404-0.87608-5.5068 0-5.0219 0.54888-6.1184 2.8962-5.7856 1.2235 0.17344 1.2928 0.43185 1.4461 5.3952 0.161 5.2118-0.26825 6.7733-1.862 6.7733-0.40049 0-1.1224-0.39424-1.6042-0.87608zm6.483 0.20707c-0.42423-0.42423-0.669-2.5622-0.669-5.8432 0-5.0613 0.03055-5.1818 1.401-5.5258 2.4838-0.6234 3.059 0.49616 3.059 5.9541 0 4.3032-0.13703 5.003-1.0784 5.5068-1.3906 0.74421-1.8936 0.72717-2.7127-0.0919zm47.559 4.8253c6.672-1.9396 11.006-8.4584 11.097-16.691 0.0293-2.6444-0.26264-5.2085-0.71504-6.2806-0.72721-1.7235-0.9102-1.8119-3.7504-1.8119-6.2674 0-14.921 4.593-18.225 9.6732-2.4798 3.8131-4.8838 12.554-3.872 14.08 1.1916 1.7964 10.661 2.4277 15.465 1.031zm-5.8573-10.256c0-3.0482 0.2435-5.6926 0.54113-5.8766 0.29762-0.18395 1.2384 0.0653 2.0906 0.55384 5.5598 3.1873 7.6193 4.5318 7.8053 5.0956 0.11649 0.35309-0.49079 1.0112-1.3495 1.4624-0.85872 0.45123-2.9411 1.6003-4.6276 2.5536s-3.3799 1.7377-3.7632 1.7432c-0.51145 7e-3 -0.69688-1.4646-0.69688-5.532z" fill="#fff" stroke-width=".5575"/></svg>
