<svg xmlns="http://www.w3.org/2000/svg" width="192" height="192"><path fill="#f8c18c" d="M88.581 183.08c-10.787-.953-21.117-3.864-31.011-8.737-7.691-3.788-13.486-7.657-19.48-13.007-16.352-14.592-26.332-33.824-28.9-55.69-.569-4.843-.562-14.502.013-19.422 1.95-16.67 8.252-31.798 18.735-44.975 2.72-3.418 9.999-10.678 13.498-13.463 9.397-7.476 21.358-13.453 32.742-16.36 35.95-9.183 73.603 5.112 94.193 35.757 8.233 12.254 13.126 25.794 14.57 40.316.398 4.01.39 13.025-.016 17.13-2.941 29.774-21.104 56.081-48.015 69.544-8.7 4.353-17.92 7.165-27.816 8.485-4.282.572-14.25.798-18.513.422z"/><g stroke-width="0"><path fill="#fff" d="M117.73 59.972c-12.924-4.604-30.535-4.604-43.459 0-4.79 1.707-8.27 8.18-8.27 13.278v41.846a12.923 12.923 0 0 0 12.922 12.923h34.154A12.923 12.923 0 0 0 126 115.096V73.25c0-5.098-3.48-11.571-8.27-13.278z"/><g fill="#56595b" transform="translate(7.385 7.387) scale(.92308)"><rect width="54.167" height="33.583" x="68.917" y="72.185" rx="5.417" ry="5.417"/><circle cx="74.333" cy="115.52" r="5.417"/><circle cx="117.67" cy="115.52" r="5.417"/></g><path fill="#fff" d="M80.334 128.015 75 133.348v2.134h8.534L91 128.015zM111.665 128.015l5.333 5.333v2.134h-8.533l-7.467-7.467z"/></g></svg>