<?xml version="1.0" encoding="UTF-8"?>
<svg version="1.1" viewBox="0 0 192 192" xml:space="preserve" xmlns="http://www.w3.org/2000/svg"><defs><clipPath id="clipPath1679"><circle class="a" cx="96" cy="96" r="88" fill="#728dbe"/></clipPath><clipPath id="clipPath1683"><circle class="a" cx="96" cy="96" r="88" fill="#728dbe"/></clipPath></defs>
	 <circle class="a" cx="96" cy="96" r="88" fill="#728dbe"/><path d="m47.469 171.56c19.262-47.05 84.127-44.574 102.25 0v44.5h-103.5z" clip-path="url(#clipPath1683)" fill="#98dc9a" stroke-linejoin="round" stroke-width="12"/><path d="m134.47 126.44-13.125 20.125" fill="#56595b" stroke="#98dc9a" stroke-linecap="round" stroke-linejoin="round" stroke-width="5"/><path d="m77.401 164.12a4.9062 4.9062 0 0 1-0.90827 6.8626 4.9062 4.9062 0 0 1-6.8668-0.87664 4.9062 4.9062 0 0 1 0.845-6.8707 4.9062 4.9062 0 0 1 6.8745 0.81334" fill="#728dbe"/><path d="m127.28 164.12a4.9062 4.9062 0 0 1-0.90827 6.8626 4.9062 4.9062 0 0 1-6.8668-0.87664 4.9062 4.9062 0 0 1 0.84501-6.8707 4.9062 4.9062 0 0 1 6.8745 0.81334" fill="#728dbe"/><path d="m3.5659 109.46 11.49-6.5407 12.628 7.291 2.7513 19.756 34.434-0.99812 1.0976-17.917 11.49-8.3085 18.385 7.7782 17.147-28.107-15.556-12.374v-14.319l15.733-12.728-15.91-27.4-19.092 6.8943-20.506-13.081-32.704 1.7678-18.915 12.551-13.258 17.854 0.88389 24.218-0.88389 29.522 2.8284 10.253z" clip-path="url(#clipPath1679)" fill="#54688c"/><path d="m63.219 126.44 13.125 20.125" fill="#56595b" stroke="#98dc9a" stroke-linecap="round" stroke-linejoin="round" stroke-width="5"/><path d="m65.953 48.585a23.875 23.875 0 0 1-4.4198 33.395 23.875 23.875 0 0 1-33.415-4.266 23.875 23.875 0 0 1 4.112-33.435 23.875 23.875 0 0 1 33.453 3.9579" fill="#ff837d"/><path d="m34.502 49.535-5.3033 12.374 7.2478 2.6517 6.8943 16.175 15.114-32.88-15.291 5.3917z" fill="#fff"/><path d="m58.455 57.755-7.7782 15.733s5.8623 1.0013 8.8388-4.1543c3.4618-5.996-1.0607-11.579-1.0607-11.579z" fill="#fff"/><path d="m129.27 105.92a7.0938 7.0938 0 0 1-1.3132 9.9224 7.0938 7.0938 0 0 1-9.9284-1.2675 7.0938 7.0938 0 0 1 1.2218-9.9341 7.0938 7.0938 0 0 1 9.9396 1.176" fill="#f9de81"/><path d="m127.81 107.53v-15.25h6.9688v4.0625h-6.9688v-4.0625" fill="#f9de81" stroke="#f9de81" stroke-linecap="round" stroke-linejoin="round" stroke-width="5"/><rect transform="rotate(-30)" x="85.072" y="151.43" width="18.188" height="21.438" ry="4.1543" fill="#fff"/><path d="m160.92 85.874a2.0625 2.0625 0 0 1-0.38182 2.8849 2.0625 2.0625 0 0 1-2.8867-0.36852 2.0625 2.0625 0 0 1 0.35522-2.8883 2.0625 2.0625 0 0 1 2.8899 0.34192" fill="#728dbe"/><path d="m168.53 92.665a5.5 5.5 0 0 1-1.0182 7.6932 5.5 5.5 0 0 1-7.6978-0.98274 5.5 5.5 0 0 1 0.94727-7.7022 5.5 5.5 0 0 1 7.7065 0.91178" fill="#728dbe"/><path d="m167.46 93.48a4.1562 4.1562 0 0 1-0.76942 5.8136 4.1562 4.1562 0 0 1-5.8171-0.74264 4.1562 4.1562 0 0 1 0.71583-5.8204 4.1562 4.1562 0 0 1 5.8236 0.68901" fill="#fff"/><path d="m127.34 59.125 18 10.562-0.75-3.75s3.1859-4.7697 4.4375-6.9375c1.3279-2.2999 0.77468-5.422-1.5625-7.8125 0.44424-1.5 0.44804-3-0.4375-4.5-1.5988-0.05923-2.9198 0.27056-3.6875 1.375-2.6036-0.19246-5.6989-0.44268-7.1875 1.5-1.8724 2.4434-4.9375 8-4.9375 8z" fill="#ffd6d4"/><path d="m133.78 64.812 3.6875 2.1875s-2.0118 1.6221-3.4375 0.5c-1.0153-0.79909-0.25-2.6875-0.25-2.6875z" fill="#ffd6d4"/></svg>
