<?xml version="1.0" encoding="UTF-8"?><svg id="a" xmlns="http://www.w3.org/2000/svg" width="192" height="192" viewBox="0 0 192 192"><g id="b"><g id="c"><rect x="20" y="20" width="152" height="152" rx="10" ry="10" style="fill:#c39a54;"/><path id="d" d="m130.81,97.4c-.43-.36-1.11-.9-2.03-1.52v-7.1c0-18.1-14.68-32.78-32.78-32.78h0c-18.1,0-32.78,14.68-32.78,32.78v7.1c-.91.63-1.59,1.17-2.03,1.52-.37.3-.58.76-.58,1.25v8.51c0,.48.22.94.58,1.26,1.01.84,3.34,2.61,6.95,4.42v.82c0,2.23,1.43,4.03,3.21,4.03h0c1.78,0,3.21-1.81,3.21-4.03v-20.41c0-2.23-1.43-4.03-3.21-4.03h0c-1.7,0-3.09,1.66-3.21,3.76h0v-4.2c0-15.39,12.47-27.86,27.86-27.86h0c15.39,0,27.86,12.48,27.86,27.87v4.2h0c-.12-2.1-1.51-3.76-3.21-3.76h0c-1.78,0-3.21,1.81-3.21,4.03v20.41c0,2.23,1.43,4.03,3.21,4.03h0c1.78,0,3.21-1.81,3.21-4.03v-.82c3.61-1.81,5.94-3.58,6.95-4.42.38-.31.58-.77.58-1.26v-8.52c0-.48-.21-.94-.57-1.25Z" style="fill:#fff;"/><path id="e" d="m69.98,130.15h52.05c1.61,0,2.92,1.31,2.92,2.92h0c0,1.61-1.31,2.92-2.92,2.92h-52.05c-1.61,0-2.92-1.31-2.92-2.92h0c0-1.61,1.31-2.92,2.92-2.92h0Z" style="fill:#fff;"/><rect x="77.12" y="80.32" width="10.87" height="47.29" rx="3.58" ry="3.58" style="fill:#fff;"/><rect x="90.57" y="80.32" width="10.87" height="47.29" rx="3.58" ry="3.58" style="fill:#fff;"/><rect x="104.02" y="80.32" width="10.87" height="47.29" rx="3.58" ry="3.58" style="fill:#fff;"/></g></g></svg>