<?xml version="1.0" encoding="UTF-8"?><svg id="a" xmlns="http://www.w3.org/2000/svg" width="192" height="192" viewBox="0 0 192 192"><g id="b"><g id="c"><path d="m149.96,42.07c-15.01-14.83-33.18-22.35-54.02-22.35s-39.19,7.52-54.04,22.38c-14.86,14.84-22.4,33.04-22.4,54.06s7.54,39.19,22.4,54.06c13.21,13.22,29.08,20.6,47.21,22.06h78.27c2.76,0,5-2.24,5-5v-71.12c0-21.04-7.54-39.23-22.42-54.09h0Zm-23.8,66.6h0c-1.73,4.03-4.1,7.56-7.05,10.53-2.99,3.01-6.41,5.34-10.47,7.12-7.98,3.5-17.67,3.42-25.48,0-4.02-1.77-7.54-4.13-10.42-7.07-2.91-2.95-5.26-6.47-6.99-10.49-1.69-3.95-2.53-8.09-2.53-12.6s.84-8.65,2.55-12.64c1.71-4.03,4.01-7.45,6.98-10.47,2.9-2.93,6.41-5.32,10.38-7.05,3.93-1.71,8.25-2.59,12.82-2.59s8.72.84,12.69,2.57c4.04,1.77,7.47,4.1,10.45,7.1,2.95,3.01,5.34,6.54,7.07,10.55,1.71,3.92,2.53,8.01,2.53,12.53s-.82,8.61-2.53,12.51h0Z" style="fill:#98dc9a;"/><path d="m150.02,42.07c-8.69-8.59-18.51-14.65-29.24-18.29,0,0-7.98,6.51-12.31,20.52-.83,2.69-1.25,5.18-1.38,7.46-.17,2.97-2.78,5.14-5.73,4.73-3.37-.46-6.88-.5-10.46-.05-18.55,2.3-33.2,17.5-34.84,36.11-1.47,16.69,7.38,31.53,20.88,38.83,1.95,1.06,2.93,3.29,2.47,5.46-.58,2.73-1.55,5.89-3.11,9.47-6.25,14.38-18.16,16.38-18.16,16.38,9.68,5.59,20.35,8.78,31.96,9.58h77.41c2.76,0,5-2.24,5-5v-71.12c0-21.62-7.6-39.23-22.48-54.09h0Zm-86.11,54.09h0c0-18.42,15.63-33.25,34.32-31.95,15.78,1.1,28.55,13.88,29.66,29.66,1.31,18.69-13.53,34.32-31.95,34.32s-32.03-14.37-32.03-32.03Z" style="fill:#71a372;"/></g></g></svg>