<?xml version="1.0" encoding="UTF-8"?><svg id="a" xmlns="http://www.w3.org/2000/svg" width="192" height="192" xmlns:xlink="http://www.w3.org/1999/xlink" viewBox="0 0 192 192"><defs><style>.am,.an,.ao{fill:none;stroke:#979797;stroke-linecap:round;}.am,.ao{stroke-width:2px;}.ap{fill:#fff;}.ap,.aq,.ar,.as,.at{stroke-width:0px;}.aq{fill:url(#ab);}.ar{fill:#979797;}.an{stroke-width:.98px;}.ao{stroke-miterlimit:1.77;}.as{fill:url(#ac);}.at{fill:#d8d8d8;}</style><radialGradient id="ab" cx="103.08" cy="94.3" fx="103.08" fy="94.3" r="17.3" gradientUnits="userSpaceOnUse"><stop offset="0" stop-color="#f9de81"/><stop offset=".91" stop-color="#fff" stop-opacity="0"/></radialGradient><radialGradient id="ac" cx="92.14" cy="103.61" fx="92.14" fy="103.61" r="19.48" gradientUnits="userSpaceOnUse"><stop offset="0" stop-color="#98dc9a"/><stop offset=".91" stop-color="#fff" stop-opacity="0"/></radialGradient></defs><g id="b"><g id="c"><circle class="ap" cx="99.64" cy="100.03" r="30.6"/><g id="d"><path id="e" class="ap" d="m101,84.69c.34-1.69.75-2.98,1.21-4.38.46-1.4.97-2.89,2.08-4.81s2.83-4.26,4.7-6.67c1.88-2.41,3.91-4.9,6.2-7.26,2.29-2.35,4.83-4.57,8.28-7.27,3.45-2.7,7.81-5.87,12.16-8.55,4.35-2.68,8.69-4.86,12.54-6.46s7.21-2.62,10.36-2.99c3.15-.37,6.11-.1,8.37.48,2.26.58,3.84,1.45,4.88,2.31,1.05.86,1.57,1.7,1.61,2.91s-.37,2.78-1.27,4.71c-.9,1.93-2.28,4.22-3.38,6.5s-1.93,4.55-2.55,6.68c-.62,2.13-1.05,4.13-2.04,7.75-.99,3.62-2.55,8.88-4.13,12.95-1.58,4.07-3.19,6.96-5.26,9.86-2.08,2.9-4.62,5.82-7.3,8.08-2.68,2.25-5.48,3.84-8.9,5.31s-7.44,2.81-11.05,3.57c-3.61.76-6.81.92-9.43.85s-4.68-.39-6.59-.81-3.65-.96-5.02-1.76-2.39-1.89-3.27-3.38-1.62-3.41-2.12-5.44c-.5-2.03-.75-4.18-.73-6.3.02-2.11.3-4.19.64-5.88h0Z"/><path id="f" class="ao" d="m130.41,106.76c13.43-3.77,24.73-12.44,29.61-26.17,3.86-9.38,4.76-18.77,8.72-27.38,1.68-3.61,4.68-7.66,4.65-11.21-2.45-8.54-18.31-6.11-25.22-2.71-17.46,7.86-35.12,20.49-44.48,37.31"/><path id="g" class="at" d="m152.61,49.69c3.16-1.8,6.19-3.96,6.19-3.96,0,0-3.59,1.03-6.81,2.87-.45.26-.9.52-1.35.79-2.49,1.51-4.76,3.15-6.95,4.74-2.19,1.59-4.35,3.17-6.63,5.25-2.27,2.08-4.66,4.64-6.83,7.16-2.18,2.52-4.16,5.02-5.86,7.42-.44.63-.87,1.25-1.28,1.86-1.69,2.54-2.69,5.47-2.69,5.47,0,0,2.08-2.28,3.74-4.78.4-.61.82-1.22,1.26-1.83,1.67-2.36,3.63-4.83,5.79-7.33s4.51-5.03,6.73-7.06,4.33-3.57,6.52-5.16c2.19-1.59,4.42-3.21,6.86-4.68.43-.26.87-.52,1.32-.77h0Z"/></g><g id="h"><path id="i" class="ap" d="m113.57,105.03c2.01-.36,4.05-.42,6.26-.26,2.21.16,4.57.55,7.26,1.17,2.68.62,5.68,1.46,9.11,2.53,3.42,1.07,7.27,2.37,10.77,3.94s6.67,3.42,9.43,5.55,5.13,4.52,7.05,6.89c1.92,2.37,3.4,4.7,4.67,7.05s2.34,4.72,3.16,6.62,1.39,3.32,1.55,4.74-.08,2.83-.55,4.01c-.47,1.18-1.17,2.14-1.97,2.71-.8.57-1.71.75-2.89.58-1.18-.16-2.64-.66-3.78-.99s-1.95-.47-2.98-.35c-1.04.12-2.3.51-3.51,1.04-1.21.53-2.36,1.19-3.83,1.57-1.47.38-3.25.48-5.22.23-1.97-.25-4.13-.85-6.37-1.82-2.25-.97-4.58-2.32-6.62-3.72s-3.79-2.87-5.27-4.21-2.7-2.55-4.12-4.03c-1.42-1.48-3.05-3.22-4.92-5.19s-3.98-4.17-5.85-6.17-3.5-3.78-5.36-5.78c-1.86-2-3.94-4.2-5.13-5.93s-1.46-2.99-1.35-4.01c.1-1.02.58-1.8,1.4-2.51s1.96-1.35,3.52-2,3.54-1.3,5.55-1.66h0Z"/><path id="j" class="ao" d="m122.52,104.94c16.94,3.35,37.52,10.08,45.6,26.97,2.31,5.16,6.13,10.05,4.16,15.37-.93,2.23-2.38,3.67-4.87,3.29-6.96-2.18-7.56-1.41-14.1,1.27-16.72,3.21-33.16-20.62-44.26-31.25"/><path id="k" class="at" d="m153.52,130.8c2.67,2.71,5.65,5.22,5.65,5.22,0,0-2.03-3.34-4.76-6.1-.34-.34-.68-.68-1.02-1.01-2.09-2.01-4.15-3.67-6.16-5.07-2.01-1.41-3.95-2.56-6.22-3.56-2.25-1-4.82-1.83-7.21-2.56-2.4-.73-4.68-1.37-6.79-1.8-.08-.02-.17-.03-.25-.05-2.87-.56-5.79-.18-5.79-.18,0,0,2.8.87,5.54,1.41.08.02.16.03.24.05,2.05.41,4.29,1.04,6.67,1.77s4.89,1.55,7.07,2.51,4.05,2.07,6.01,3.44,3.97,2.99,6.01,4.95c.33.32.66.65.99.98h0Z"/></g><g id="l"><path id="m" class="ap" d="m78.6,94.34c-1.66-.84-3.09-1.94-4.3-3.33s-2.19-3.07-2.96-4.58-1.32-2.83-1.74-4.65c-.42-1.83-.72-4.15-.65-6.83.08-2.68.53-5.7,1.33-8.9.81-3.19,1.98-6.56,3.09-9.67,1.11-3.11,2.17-5.97,2.94-8.37.77-2.4,1.24-4.34,1.56-6.52.32-2.18.49-4.62.48-7.29-.02-2.67-.22-5.58-.57-8.21-.35-2.63-.84-4.97-1.02-7.19s-.04-4.33.45-6.08c.49-1.75,1.34-3.14,2.17-3.9.83-.76,1.63-.9,2.71-.79,1.08.1,2.43.45,4.43,1.34,2.01.89,4.67,2.34,7.27,4.22,2.6,1.88,5.15,4.19,7.31,6.79s3.95,5.49,5.4,8.33c1.45,2.85,2.57,5.65,3.54,8.91.97,3.26,1.8,6.97,2.34,9.75s.8,4.61.79,7.57c-.02,2.97-.31,7.07-.61,10.09-.3,3.02-.61,4.95-1.2,7.2-.59,2.25-1.48,4.83-2.44,7.1s-2.01,4.21-3.14,5.82-2.33,2.89-3.76,4.2c-1.44,1.31-3.12,2.64-4.85,3.67-1.73,1.02-3.52,1.74-5.72,2.24s-4.81.8-7.06.66c-2.25-.14-4.13-.73-5.78-1.57h0Z"/><path id="n" class="ao" d="m110.31,76.41c6.89-24.02.9-56.05-23.79-67.04-7.9-4.32-10.29,2.56-9.77,9.44,6.6,32.46-8.98,35.42-7.62,61.85"/><path id="o" class="at" d="m89.64,22.73c-1.1-1.96-2.85-3.45-2.85-3.45,0,0,.69,2.18,1.75,4.07.38.68.76,1.39,1.11,2.13,1.02,2.15,1.91,4.64,2.67,7.06.76,2.43,1.38,4.77,1.94,7.55s1.05,5.99,1.41,8.85c.37,2.86.6,5.37.73,7.96s.14,5.26-.07,7.77c-.12,1.51-.32,2.98-.56,4.43-.23,1.42.13,2.97.13,2.97,0,0,.88-1.32,1.11-2.76.24-1.47.44-2.97.57-4.52.21-2.58.2-5.31.07-7.93-.13-2.63-.37-5.17-.74-8.05-.37-2.88-.86-6.12-1.43-8.94-.57-2.82-1.2-5.22-1.97-7.68-.77-2.45-1.67-5-2.73-7.23-.37-.77-.75-1.5-1.15-2.21Z"/></g><g id="p"><path id="q" class="ap" d="m80.84,90.93c-.64-1.8-1.07-3.02-1.63-4.58s-1.24-3.48-1.94-5.14c-.7-1.66-1.41-3.07-2.64-5.17s-2.98-4.87-5.26-7.88-5.09-6.28-7.73-9.11c-2.64-2.83-5.12-5.21-7.38-7.01s-4.3-3-6.62-4.15c-2.32-1.15-4.93-2.24-7.48-3.11s-5.07-1.53-7.5-1.87c-2.43-.35-4.78-.4-6.48-.24-1.7.16-2.74.53-3.73,1.03s-1.93,1.16-2.61,1.81-1.11,1.33-1.2,2.02.13,1.4.92,2.56,2.14,2.76,3.08,4.23,1.47,2.8,1.85,4.38.61,3.42.65,5.58-.09,4.67-.16,7.13-.07,4.9.08,7.41.45,5.1.84,7.37c.39,2.27.87,4.22,1.54,6.05s1.53,3.55,3.09,5.45,3.82,3.97,6.7,5.89,6.4,3.66,9.44,4.91,5.62,1.99,8.58,2.62c2.96.62,6.3,1.13,9.02,1.48,2.72.35,4.81.56,6.64.62,1.84.06,3.43-.02,4.57-.19,1.14-.17,1.84-.43,2.71-.91.86-.48,1.89-1.19,2.75-2.04s1.56-1.85,2.02-3.09.67-2.75.66-4.38c0-1.63-.23-3.38-.76-5.45-.53-2.07-1.37-4.44-2-6.24Z"/><path id="r" class="ao" d="m78.94,84.18c-9.12-18.55-24.58-38.24-46.29-41.28-3.81-.47-7.32-.66-10.21.8-2.52,1.38-5.3,3.42-2.9,6.4,5.66,5.84,6.07,13.37,5.42,21.33-.22,12.14.48,25.28,12.26,32.18,10.78,7.2,22.61,9.1,35.1,9.58"/><path id="s" class="at" d="m35.35,53.4c-2.11-1.49-4.6-2.37-4.6-2.37,0,0,1.8,1.93,3.87,3.4,1.19.84,2.38,1.73,3.58,2.69,2.63,2.11,5.34,4.63,7.61,6.98,2.27,2.35,4.11,4.53,5.84,6.8s3.35,4.62,4.82,6.89c1.47,2.27,2.8,4.46,4,6.52.39.66.76,1.31,1.13,1.95,1.12,1.97,2.78,3.65,2.78,3.65,0,0-.55-2.29-1.68-4.27-.37-.64-.74-1.3-1.13-1.96-1.21-2.07-2.54-4.28-4.03-6.57-1.49-2.29-3.12-4.67-4.88-6.97-1.76-2.3-3.63-4.52-5.94-6.91-2.31-2.38-5.05-4.93-7.73-7.09-1.23-.99-2.44-1.89-3.64-2.74Z"/></g><g id="t"><path id="u" class="ap" d="m88.57,119.62c.53,1.27.8,1.98.89,3.49s0,3.83-.53,6.51c-.53,2.68-1.49,5.73-3,8.29s-3.58,4.62-5.89,6.66-4.86,4.04-7.35,5.69c-2.49,1.65-4.9,2.95-7.72,4.06-2.82,1.11-6.05,2.04-8.59,3.01-2.54.97-4.39,1.99-6.1,3.45s-3.28,3.33-4.27,4.49c-.99,1.16-1.39,1.59-1.91,1.89-.51.3-1.14.48-1.9.4s-1.65-.43-2.55-1.17c-.9-.73-1.8-1.85-2.56-3.23-.77-1.38-1.4-3.02-2.03-5.1-.63-2.08-1.26-4.61-1.51-7.3-.24-2.68-.1-5.52.38-8.32.48-2.8,1.29-5.55,2.25-8.1.96-2.55,2.06-4.88,3.09-6.75,1.03-1.87,1.99-3.26,3.98-5.25,1.99-1.99,5.03-4.58,7.7-6.59,2.67-2.02,4.97-3.46,7.29-4.77,2.32-1.31,4.65-2.49,6.91-3.28,2.25-.8,4.43-1.22,6.07-1.35s2.77.03,3.98.38c1.22.35,2.53.88,3.8,1.59,1.27.71,2.51,1.58,3.75,2.68s2.49,2.41,3.5,3.98c1.01,1.57,1.79,3.39,2.32,4.66h0Z"/><path id="v" class="ao" d="m73,105.77c-11.34,1.61-21.64,8.73-29.75,16.56-5.4,5.65-7.67,12.52-9.32,20.1-1.71,6.27,1.23,27.46,10.16,24.72,7.88-8.85,9.38-8.95,20.87-12.83,13.5-5.73,25.46-16.52,24.5-32.15"/><path id="w" class="at" d="m50.84,138.22c-1.18,2-1.72,4.32-1.72,4.32,0,0,1.65-1.72,2.81-3.68.61-1.03,1.24-2.05,1.91-3.04,1.52-2.24,3.25-4.36,5.03-6.27,1.78-1.92,3.61-3.64,5.26-4.98,1.64-1.34,3.1-2.31,4.68-3.2.22-.12.44-.25.66-.37,2.12-1.15,4.07-2.74,4.07-2.74,0,0-2.49.45-4.67,1.64-.23.12-.46.25-.68.38-1.63.92-3.16,1.93-4.86,3.32-1.7,1.38-3.57,3.14-5.38,5.09-1.82,1.96-3.59,4.12-5.15,6.42-.69,1.02-1.34,2.06-1.96,3.11Z"/></g><g id="x"><path id="y" class="ap" d="m105.06,112.54c1.96.38,3.93,1.24,5.78,2.66,1.85,1.41,3.56,3.37,5.36,5.64,1.8,2.26,3.68,4.83,5.23,7.23,1.56,2.4,2.79,4.64,3.85,6.87,1.05,2.23,1.92,4.44,2.81,7.31.89,2.86,1.8,6.38,2.47,9.65.68,3.27,1.12,6.31,1.6,9.49s.97,6.51,1.24,9.6.3,5.95.05,7.91c-.25,1.96-.78,3.03-1.36,3.8-.58.76-1.21,1.22-2.05,1.3-.85.08-1.91-.21-3.62-1.01s-4.05-2.09-7.35-3.72c-3.3-1.63-7.54-3.58-10.92-5.13-3.37-1.55-5.87-2.7-8.39-4.28-2.51-1.58-5.04-3.6-7.23-5.82-2.19-2.21-4.05-4.62-5.58-7.57-1.53-2.95-2.72-6.44-3.46-9.95-.74-3.51-1.03-7.05-1.08-10.35s.12-6.38.42-8.89c.3-2.51.72-4.46,1.18-5.78.46-1.32.97-2.01,1.5-2.58.52-.57,1.06-1.03,1.63-1.49.57-.46,1.18-.93,2.02-1.42s1.9-.99,2.98-1.44,2.18-.84,3.36-1.18,2.45-.66,4.05-.87,3.55-.33,5.51.04h0Z"/><path id="z" class="am" d="m113.43,117.6c11.21,11.51,17,27.79,18.73,43.78.45,5.74,4.35,20.48-2.12,22.61-3.69-.29-6.25-2.62-10.97-4.73-6.02-3.09-13.78-6.05-19.3-9.41-16.55-9.37-20.58-32.22-15.27-49.1"/><path id="aa" class="at" d="m114.91,154.25c.77,2.16,1.98,4.19,1.98,4.19,0,0-.25-2.35-1.03-4.53-.32-.89-.64-1.77-.97-2.63-.87-2.24-1.79-4.34-2.78-6.46-.99-2.13-2.06-4.29-3.24-6.46-1.18-2.17-2.47-4.34-3.96-6.5-.83-1.2-1.73-2.4-2.65-3.58-1.1-1.42-2.62-2.51-2.62-2.51,0,0,.73,1.71,1.82,3.12.91,1.18,1.8,2.36,2.62,3.54,1.47,2.12,2.74,4.26,3.91,6.4,1.17,2.15,2.22,4.29,3.21,6.41.99,2.11,1.9,4.19,2.75,6.4.33.85.65,1.72.96,2.61h0Z"/></g><circle class="aq" cx="103.08" cy="94.3" r="17.3"/><circle class="as" cx="92.14" cy="103.61" r="18.59"/><path id="ad" class="ar" d="m98.7,95.08s.03.06.05.09c.47.82,1.06,1.51,1.68,2.1.56.54,1.2,1.02,1.91,1.39h0c.6.32,1.25.53,1.9.62.48.08.99.06,1.5-.08.43-.12.81-.39,1.08-.75.29-.43.38-.89.35-1.3-.06-.66-.36-1.14-.63-1.47-.87-1.06-1.58-1.47-1.58-1.47,0,0,.51.67.95,1.84.12.34.22.75.13,1.05-.05.19-.16.38-.29.46-.07.05-.2.07-.34.07-.21.01-.46-.06-.75-.16-.41-.15-.8-.38-1.19-.66h0c-.45-.33-.86-.76-1.29-1.24-.46-.54-.89-1.08-1.2-1.65-.01-.02-.02-.04-.04-.06-.3-.54-.5-1.14-.65-1.82-.15-.7-.21-1.46-.16-1.85.05-.39.15-.54.32-.7.16-.16.35-.27.64-.35.29-.08.67-.11,1.08-.06.41.04.87.16,1.28.32.4.16.74.34,1.17.63.42.28.87.64,1.37,1.12.5.48,1.05,1.11,1.55,1.77s.95,1.34,1.36,2.14.8,1.74,1.1,2.6.5,1.63.6,2.22c.1.58.12.95.08,1.35-.03.4-.12.79-.23,1.05s-.25.47-.47.68-.45.39-.81.54-.83.28-1.42.3c-.59.02-1.33-.07-2.15-.28-.82-.21-1.74-.56-2.67-.98-.93-.43-1.86-.93-2.71-1.49-.86-.56-1.65-1.18-2.39-1.87s-1.44-1.45-2.09-2.29c-.66-.83-1.24-1.69-1.7-2.66-.46-.97-.81-2.12-.98-3.14-.18-1.02-.19-1.97-.15-2.81s.13-1.49.28-2.05.37-1.05.65-1.46c.28-.41.63-.76,1.08-1.09.45-.32.94-.58,1.58-.76.64-.17,1.49-.26,2.3-.26.81,0,1.59.1,2.42.25.84.15,1.68.34,2.51.61s1.64.59,2.42,1.02,1.58.99,2.37,1.58c.39.3.78.6,1.15.92.39.33.77.66,1.14,1,.85.79,1.62,1.6,2.31,2.47.72.91,1.33,1.88,1.82,2.87h0c.52,1.06.9,2.13,1.17,3.17.34,1.33.49,2.53.52,3.6.07,2.36-.19,3.87-.19,3.87,0,0,.63-1.38,1.03-3.81.18-1.12.26-2.43.12-3.91-.11-1.17-.36-2.42-.81-3.69h0c-.42-1.18-1-2.36-1.76-3.48-.71-1.05-1.54-2.02-2.45-2.92-.4-.39-.82-.77-1.25-1.13-.42-.35-.83-.68-1.25-1-.83-.63-1.74-1.27-2.68-1.79-.95-.52-1.92-.91-2.88-1.22-.96-.3-1.91-.52-2.83-.69-.92-.16-1.85-.29-2.85-.29-.98,0-2.05.09-3,.34-.97.26-1.74.67-2.41,1.16-.66.48-1.23,1.04-1.69,1.72-.46.67-.79,1.42-1.01,2.22-.22.8-.33,1.65-.37,2.61-.04.96-.03,2.1.19,3.36.21,1.24.63,2.6,1.19,3.79.57,1.21,1.28,2.24,2.01,3.16.73.92,1.51,1.79,2.36,2.57.85.79,1.75,1.5,2.73,2.14.97.64,2.01,1.2,3.05,1.67,1.03.47,2.09.87,3.1,1.13s1.99.39,2.88.36c.9-.03,1.68-.22,2.34-.5.67-.29,1.17-.65,1.6-1.08.43-.43.77-.9,1.02-1.51.24-.57.37-1.23.42-1.82.05-.63.03-1.24-.11-2.02-.13-.75-.37-1.64-.7-2.6-.33-.96-.76-2.01-1.24-2.94-.49-.94-1.02-1.76-1.59-2.52-.57-.75-1.2-1.47-1.8-2.05-.61-.59-1.18-1.04-1.72-1.41-.54-.37-1.07-.66-1.67-.89-.59-.23-1.26-.41-1.93-.48-.67-.07-1.36-.04-2.01.13-.66.17-1.28.49-1.8,1.02-.53.53-.92,1.25-1.04,2.18-.11.85.02,1.89.2,2.72.19.86.47,1.7.91,2.5h0Z"/><path id="ae" class="an" d="m80.39,105.33c.05-1.53.1-3.05.34-4.63s.67-3.22,1.36-4.89,1.62-3.36,2.64-4.66c1.02-1.3,2.12-2.22,3.22-3.14"/><path id="af" class="an" d="m82.39,107.21c.12-1.25.24-2.49.51-3.69.27-1.2.68-2.35,1.27-3.52s1.35-2.36,1.99-3.26c.65-.9,1.19-1.5,1.73-2.1"/><path id="ag" class="an" d="m83.75,108.86c.4-1.21.81-2.41,1.38-3.56s1.3-2.23,2.04-3.1c.74-.87,1.49-1.52,2.23-2.18"/><path id="ah" class="an" d="m86.04,111.17c.53-.93,1.06-1.86,1.69-2.73s1.37-1.69,2.31-2.59,2.08-1.9,3.21-2.89"/><path id="ai" class="an" d="m87.62,112.59c1.03-.46,2.05-.91,2.97-1.37s1.72-.9,2.53-1.41c.81-.51,1.63-1.07,2.44-1.72s1.63-1.38,2.44-2.11"/><path id="aj" class="an" d="m89.58,114.55c1.28-.14,2.56-.29,3.9-.7,1.34-.41,2.75-1.08,3.97-1.76s2.26-1.34,3.16-2.06,1.68-1.47,2.45-2.22"/><path id="ak" class="an" d="m91.31,116.85c1.72-.04,3.44-.08,5.06-.35,1.61-.27,3.12-.77,4.58-1.41,1.46-.64,2.88-1.43,4.26-2.45,1.39-1.02,2.74-2.28,4.1-3.54"/></g></g></svg>