<svg xmlns="http://www.w3.org/2000/svg" width="192" height="192" fill="none"><g clip-path="url(#a)"><path fill="#728DBE" d="M171.04 50.03v1.09h.66c-.21-.37-.42-.73-.66-1.09ZM37.45 154.36v.67h.68c-.23-.23-.45-.45-.68-.67Z"/><path fill="#D8D8D8" d="M156.19 80.8h-14.84v14.84h14.84V80.8Z"/><path fill="#fff" d="M141.35 80.8h-14.84v14.84h14.84V80.8Z"/><path fill="#D8D8D8" d="M156.19 51.12h-14.84v14.84h14.84V51.12Z"/><path fill="#fff" d="M141.35 51.12h-14.84v14.84h14.84V51.12Z"/><path fill="#D8D8D8" d="M126.51 51.12h-14.84v14.84h14.84V51.12Z"/><path fill="#fff" d="M111.66 51.12H96.82v14.84h14.84V51.12Z"/><path fill="#D8D8D8" d="M141.35 65.96h-14.84V80.8h14.84V65.96Z"/><path fill="#fff" d="M126.51 65.96h-14.84V80.8h14.84V65.96Z"/><path fill="#D8D8D8" d="M171.04 65.96H156.2V80.8h14.84V65.96Z"/><path fill="#fff" d="M156.19 65.96h-14.84V80.8h14.84V65.96Z"/><path fill="#D8D8D8" d="M126.51 80.8h-14.84v14.84h14.84V80.8Z"/><path fill="#fff" d="M111.66 80.8H96.82v14.84h14.84V80.8Z"/><path fill="#D8D8D8" d="M96.82 80.8H81.98v14.84h14.84V80.8Z"/><path fill="#fff" d="M81.98 80.8H67.14v14.84h14.84V80.8Z"/><path fill="#D8D8D8" d="M96.82 51.12H81.98v14.84h14.84V51.12Z"/><path fill="#fff" d="M81.98 51.12H67.14v14.84h14.84V51.12Z"/><path fill="#D8D8D8" d="M67.13 51.12H52.29v14.84h14.84V51.12Z"/><path fill="#fff" d="M52.29 51.12H37.45v14.84h14.84V51.12Z"/><path fill="#D8D8D8" d="M81.98 65.96H67.14V80.8h14.84V65.96Z"/><path fill="#fff" d="M67.13 65.96H52.29V80.8h14.84V65.96Z"/><path fill="#D8D8D8" d="M111.66 65.96H96.82V80.8h14.84V65.96Z"/><path fill="#fff" d="M96.82 65.96H81.98V80.8h14.84V65.96Z"/><path fill="#D8D8D8" d="M67.13 80.8H52.29v14.84h14.84V80.8Z"/><path fill="#fff" d="M52.29 80.8H37.45v14.84h14.84V80.8Z"/><path fill="#D8D8D8" d="M37.45 80.8H22.61v14.84h14.84V80.8Z"/><path fill="#fff" d="M22.61 80.81v14.84H13.3c.02-5.07.5-10.03 1.4-14.84h7.91Z"/><path fill="#D8D8D8" d="M37.45 51.12v14.84H22.61v-8.05c1.21-2.33 2.53-4.6 3.97-6.8h10.87v.01Z"/><path fill="#fff" d="M22.61 57.92v8.05h-3.67c1.08-2.76 2.3-5.45 3.67-8.05Z"/><path fill="#D8D8D8" d="M22.61 65.96V80.8H14.7c.95-5.13 2.39-10.09 4.24-14.84h3.67ZM52.29 65.96H37.45V80.8h14.84V65.96Z"/><path fill="#fff" d="M37.45 65.96H22.61V80.8h14.84V65.96Z"/><path fill="#728DBE" d="M182.69 80.81a86.66 86.66 0 0 0-3.95-14.84 86.206 86.206 0 0 0-7.03-14.84c-.21-.37-.42-.73-.66-1.09a87.323 87.323 0 0 0-10.41-13.75 88.749 88.749 0 0 0-4.43-4.46 87.17 87.17 0 0 0-13.47-10.38c-.46-.3-.91-.58-1.38-.85a87.067 87.067 0 0 0-14.84-7.15 85.714 85.714 0 0 0-14.84-4.04c-4.82-.88-9.78-1.35-14.84-1.39C96.55 8 96.28 8 96 8c-4.77 0-9.46.38-14.02 1.12-5.11.81-10.07 2.06-14.84 3.72A86.56 86.56 0 0 0 52.3 19.6c-1.03.58-2.04 1.19-3.03 1.82a86.725 86.725 0 0 0-11.81 8.87 87.943 87.943 0 0 0-6.09 5.97 88.174 88.174 0 0 0-8.76 11.16c-.81 1.21-1.58 2.43-2.31 3.68a86.915 86.915 0 0 0-7.03 14.84 85.753 85.753 0 0 0-3.95 14.84c-.85 4.85-1.3 9.81-1.32 14.87V96c0 4.94.4 9.79 1.2 14.49a85.47 85.47 0 0 0 3.82 14.84 85.503 85.503 0 0 0 6.87 14.84c.86 1.48 1.76 2.95 2.72 4.38 2.44 3.69 5.15 7.19 8.12 10.46 2.12 2.34 4.36 4.57 6.72 6.67 3.35 2.99 6.93 5.73 10.71 8.17 1.36.88 2.72 1.73 4.13 2.52a86.91 86.91 0 0 0 14.84 6.76c4.77 1.66 9.73 2.92 14.84 3.72 4.57.77 9.26 1.15 14.03 1.15.28 0 .55 0 .83-.01 5.07-.04 10.02-.51 14.84-1.39 5.12-.91 10.07-2.27 14.84-4.04a86.35 86.35 0 0 0 14.84-7.15c.84-.5 1.66-1.01 2.48-1.55 4.41-2.85 8.55-6.1 12.36-9.68a85.08 85.08 0 0 0 5.07-5.16c3.65-4.03 6.92-8.4 9.78-13.05.37-.59.73-1.19 1.07-1.79 2.74-4.69 5.05-9.66 6.87-14.84a85.47 85.47 0 0 0 3.82-14.84c.8-4.71 1.2-9.55 1.2-14.49v-.35c-.02-5.07-.47-10.03-1.31-14.85ZM178.7 96a82.375 82.375 0 0 1-5.37 29.33c-.69 1.83-1.45 3.63-2.28 5.4a80.721 80.721 0 0 1-5.17 9.45 80.999 80.999 0 0 1-9.67 12.46c-.75.82-1.54 1.61-2.33 2.39a82.54 82.54 0 0 1-12.51 10.08 77.886 77.886 0 0 1-8.21 4.76c-2.16 1.09-4.38 2.1-6.64 2.99-4.75 1.9-9.71 3.36-14.84 4.35a81.6 81.6 0 0 1-14.84 1.48c-.28.01-.55.01-.83.01-4.77 0-9.46-.4-14.02-1.2a81.162 81.162 0 0 1-23.13-7.64 73.883 73.883 0 0 1-6.55-3.7 82.539 82.539 0 0 1-14.16-11.14h-.68v-.67a82.054 82.054 0 0 1-11.32-14.18 73.674 73.674 0 0 1-3.52-6.1 79.96 79.96 0 0 1-3.93-8.75 81.969 81.969 0 0 1-4.1-14.84c-.86-4.69-1.3-9.54-1.3-14.48v-.35c.02-5.07.5-10.03 1.4-14.84.95-5.13 2.39-10.09 4.24-14.84a80.07 80.07 0 0 1 3.67-8.05c1.21-2.33 2.53-4.6 3.97-6.8a83.08 83.08 0 0 1 12.28-14.85c4.1-3.92 8.61-7.43 13.44-10.44 2.56-1.61 5.22-3.07 7.95-4.4 2.24-1.07 4.54-2.06 6.89-2.94 4.76-1.78 9.72-3.13 14.84-4 4.56-.79 9.25-1.19 14.02-1.19.28 0 .55 0 .83.01 5.07.04 10.03.55 14.84 1.48 5.13.99 10.09 2.45 14.84 4.35 1.78.7 3.53 1.47 5.24 2.29 3.33 1.61 6.54 3.42 9.61 5.46a82.71 82.71 0 0 1 11.79 9.38c1.05 1 2.07 2.03 3.05 3.09 3.42 3.63 6.51 7.56 9.22 11.76a80.17 80.17 0 0 1 5.62 10.15c.72 1.54 1.39 3.11 2.01 4.7 1.86 4.75 3.29 9.71 4.24 14.84.9 4.81 1.38 9.78 1.4 14.84V96h.01Z"/><path fill="#D8D8D8" d="M165.42 51.12h-9.22V39.36a81.23 81.23 0 0 1 9.22 11.76Z"/><path fill="#fff" d="M156.2 39.36v11.76h-14.84V36.28h11.79c1.05.99 2.06 2.02 3.05 3.08Z"/><path fill="#D8D8D8" d="M141.35 36.27h-14.84v14.84h14.84V36.27Z"/><path fill="#fff" d="M126.51 36.27h-14.84v14.84h14.84V36.27Z"/><path fill="#D8D8D8" d="M131.75 21.43h-5.24v-2.29c1.78.7 3.53 1.48 5.24 2.29Z"/><path fill="#fff" d="M126.51 19.14v2.29h-14.84V14.8c5.13.98 10.09 2.45 14.84 4.34Z"/><path fill="#D8D8D8" d="M111.67 14.8v6.64H96.83v-8.13c5.06.04 10.03.55 14.84 1.49Z"/><path fill="#fff" d="M96.83 13.31v8.12H81.98V14.5c4.56-.8 9.25-1.2 14.02-1.2.28 0 .55 0 .83.01Z"/><path fill="#D8D8D8" d="M126.51 21.43h-14.84v14.84h14.84V21.43Z"/><path fill="#fff" d="M111.66 21.43H96.82v14.84h14.84V21.43Z"/><path fill="#D8D8D8" d="M153.15 36.28h-11.79V26.9c4.21 2.75 8.16 5.9 11.79 9.38ZM173.06 65.96h-2.01v-4.7c.71 1.54 1.38 3.11 2.01 4.7Z"/><path fill="#fff" d="M171.04 61.27v4.7H156.2V51.12h9.22a80.17 80.17 0 0 1 5.62 10.15ZM177.3 80.81h-6.26V65.96h2.01a81.38 81.38 0 0 1 4.25 14.85Z"/><path fill="#D8D8D8" d="M178.7 95.65h-7.65V80.81h6.26c.89 4.81 1.37 9.77 1.39 14.84Z"/><path fill="#fff" d="M171.04 80.8H156.2v14.84h14.84V80.8ZM141.36 26.89v9.38h-14.84V21.43h5.24a83.29 83.29 0 0 1 9.6 5.46Z"/><path fill="#D8D8D8" d="M111.66 36.27H96.82v14.84h14.84V36.27Z"/><path fill="#fff" d="M96.82 36.27H81.98v14.84h14.84V36.27Z"/><path fill="#D8D8D8" d="M81.98 36.27H67.14v14.84h14.84V36.27Z"/><path fill="#fff" d="M67.13 36.27H52.29v14.84h14.84V36.27Z"/><path fill="#D8D8D8" d="M81.98 14.5v6.93H67.14V18.5c4.76-1.78 9.72-3.13 14.84-4Z"/><path fill="#fff" d="M67.14 18.5v2.94h-6.89c2.24-1.08 4.54-2.06 6.89-2.94Z"/><path fill="#D8D8D8" d="M67.14 21.43v14.84H52.3V25.83c2.56-1.61 5.22-3.07 7.95-4.4h6.89Z"/><path fill="#fff" d="M52.3 25.83v10.44H38.85A83.06 83.06 0 0 1 52.3 25.83Z"/><path fill="#D8D8D8" d="M96.82 21.43H81.98v14.84h14.84V21.43Z"/><path fill="#fff" d="M81.98 21.43H67.14v14.84h14.84V21.43Z"/><path fill="#D8D8D8" d="M52.3 36.28v14.84H37.45V37.64c.47-.47.93-.92 1.4-1.37H52.3v.01Z"/><path fill="#fff" d="M37.45 37.64v13.48H26.58a82.49 82.49 0 0 1 10.87-13.48Z"/><path fill="#D8D8D8" d="M171.04 125.34v5.4a80.721 80.721 0 0 1-5.17 9.45h-9.67v-14.84h14.84v-.01Z"/><path fill="#fff" d="M156.19 125.33h-14.84v14.84h14.84v-14.84ZM173.32 125.34c-.69 1.83-1.45 3.63-2.28 5.4v-5.4h2.28Z"/><path fill="#D8D8D8" d="M171.04 95.65H156.2v14.84h14.84V95.65Z"/><path fill="#fff" d="M156.19 95.65h-14.84v14.84h14.84V95.65ZM178.7 95.65V96c0 4.94-.43 9.79-1.27 14.49h-6.38V95.65h7.65Z"/><path fill="#D8D8D8" d="M141.35 95.65h-14.84v14.84h14.84V95.65Z"/><path fill="#fff" d="M126.51 95.65h-14.84v14.84h14.84V95.65Z"/><path fill="#D8D8D8" d="M156.19 110.49h-14.84v14.84h14.84v-14.84Z"/><path fill="#fff" d="M141.35 110.49h-14.84v14.84h14.84v-14.84Z"/><path fill="#D8D8D8" d="M177.43 110.49a81.969 81.969 0 0 1-4.1 14.84h-2.28v-14.84h6.38Z"/><path fill="#fff" d="M171.04 110.49H156.2v14.84h14.84v-14.84Z"/><path fill="#D8D8D8" d="M141.35 125.33h-14.84v14.84h14.84v-14.84Z"/><path fill="#fff" d="M126.51 125.33h-14.84v14.84h14.84v-14.84Z"/><path fill="#D8D8D8" d="M111.66 125.33H96.82v14.84h14.84v-14.84Z"/><path fill="#fff" d="M96.82 125.33H81.98v14.84h14.84v-14.84Z"/><path fill="#D8D8D8" d="M111.66 95.65H96.82v14.84h14.84V95.65Z"/><path fill="#fff" d="M96.82 95.65H81.98v14.84h14.84V95.65Z"/><path fill="#D8D8D8" d="M81.98 95.65H67.14v14.84h14.84V95.65Z"/><path fill="#fff" d="M67.13 95.65H52.29v14.84h14.84V95.65Z"/><path fill="#D8D8D8" d="M96.82 110.49H81.98v14.84h14.84v-14.84Z"/><path fill="#fff" d="M81.98 110.49H67.14v14.84h14.84v-14.84Z"/><path fill="#D8D8D8" d="M126.51 110.49h-14.84v14.84h14.84v-14.84Z"/><path fill="#fff" d="M111.66 110.49H96.82v14.84h14.84v-14.84Z"/><path fill="#D8D8D8" d="M81.98 125.33H67.14v14.84h14.84v-14.84Z"/><path fill="#fff" d="M67.13 125.33H52.29v14.84h14.84v-14.84Z"/><path fill="#D8D8D8" d="M52.29 125.33H37.45v14.84h14.84v-14.84Z"/><path fill="#fff" d="M37.45 125.34v14.84H26.13a73.674 73.674 0 0 1-3.52-6.1v-8.75h14.84v.01Z"/><path fill="#D8D8D8" d="M52.29 95.65H37.45v14.84h14.84V95.65Z"/><path fill="#fff" d="M37.45 95.65H22.61v14.84h14.84V95.65Z"/><path fill="#D8D8D8" d="M22.61 95.65v14.84h-8.04A83.34 83.34 0 0 1 13.3 96v-.35h9.31ZM37.45 110.49H22.61v14.84h14.84v-14.84Z"/><path fill="#fff" d="M22.61 110.49v14.84h-3.93a81.969 81.969 0 0 1-4.1-14.84h8.03Z"/><path fill="#D8D8D8" d="M67.13 110.49H52.29v14.84h14.84v-14.84Z"/><path fill="#fff" d="M52.29 110.49H37.45v14.84h14.84v-14.84Z"/><path fill="#D8D8D8" d="M22.61 125.34v8.75a79.96 79.96 0 0 1-3.93-8.75h3.93Z"/><path fill="#fff" d="M165.87 140.18a80.999 80.999 0 0 1-9.67 12.46v-12.46h9.67Z"/><path fill="#D8D8D8" d="M156.2 140.18v12.46c-.75.82-1.54 1.61-2.33 2.39h-12.51v-14.84h14.84v-.01Z"/><path fill="#fff" d="M141.35 140.18h-14.84v14.84h14.84v-14.84ZM153.87 155.02a82.54 82.54 0 0 1-12.51 10.08v-10.08h12.51ZM133.15 169.87c-2.16 1.09-4.38 2.1-6.64 2.99v-2.99h6.64Z"/><path fill="#D8D8D8" d="M126.51 169.87v2.99c-4.75 1.9-9.71 3.36-14.84 4.35v-7.34h14.84Z"/><path fill="#fff" d="M111.67 169.87v7.34c-4.81.93-9.78 1.44-14.84 1.48v-8.82h14.84Z"/><path fill="#D8D8D8" d="M126.51 140.18h-14.84v14.84h14.84v-14.84Z"/><path fill="#fff" d="M111.66 140.18H96.82v14.84h14.84v-14.84Z"/><path fill="#D8D8D8" d="M96.82 140.18H81.98v14.84h14.84v-14.84Z"/><path fill="#fff" d="M81.98 140.18H67.14v14.84h14.84v-14.84Z"/><path fill="#D8D8D8" d="M111.66 155.02H96.82v14.84h14.84v-14.84Z"/><path fill="#fff" d="M96.82 155.02H81.98v14.84h14.84v-14.84Z"/><path fill="#D8D8D8" d="M141.36 155.02v10.08a77.886 77.886 0 0 1-8.21 4.76h-6.64v-14.84h14.85Z"/><path fill="#fff" d="M126.51 155.02h-14.84v14.84h14.84v-14.84Z"/><path fill="#D8D8D8" d="M96.83 169.87v8.82c-.28.01-.55.01-.83.01-4.77 0-9.46-.4-14.02-1.2v-7.63h14.85Z"/><path fill="#fff" d="M81.98 169.87v7.63a81.162 81.162 0 0 1-14.84-4v-3.64h14.84v.01Z"/><path fill="#D8D8D8" d="M67.14 169.87v3.64a80.664 80.664 0 0 1-8.29-3.64h8.29ZM67.13 140.18H52.29v14.84h14.84v-14.84Z"/><path fill="#fff" d="M52.29 140.18H37.45v14.84h14.84v-14.84Z"/><path fill="#D8D8D8" d="M37.45 140.18v14.18a82.054 82.054 0 0 1-11.32-14.18h11.32ZM52.3 155.02v11.14a82.539 82.539 0 0 1-14.16-11.14H52.3ZM81.98 155.02H67.14v14.84h14.84v-14.84Z"/><path fill="#fff" d="M67.14 155.02v14.84h-8.29a73.883 73.883 0 0 1-6.55-3.7v-11.14h14.84Z"/></g><defs><clipPath id="a"><path fill="#fff" d="M0 0h192v192H0z"/></clipPath></defs></svg>