<?xml version="1.0" encoding="UTF-8"?>
<svg version="1.1" viewBox="0 0 192 192" xml:space="preserve" xmlns="http://www.w3.org/2000/svg">
	 <rect class="a" x="20" y="20" width="152" height="152" rx="10" fill="#ff837d"/><path d="m75.116 140c-0.93685-0.37692-1.2895-0.99068-1.2895-2.2443 0-1.6128 0.08977-1.6846 1.3736-1.0996 1.0871 0.49531 2.0959 0.37591 4.8362-0.57241 3.2011-1.1078 3.6437-1.1344 5.8623-0.35161 3.1045 1.0953 4.7978 1.071 8.1115-0.11674 2.6494-0.94957 2.7621-0.94181 5.5963 0.38566 0 0 1.828 1.3307 2.8924 1.3548 1.0863 0.0245 3.0114-1.2482 3.0114-1.2482 3.6801-1.5253 3.6504-1.525 6.947-0.0668 2.5576 1.1314 2.7974 1.142 5.6606 0.25234 1.6444-0.51097 3.3321-1.0707 3.7504-1.2438 0.54619-0.2261 0.70768 0.12894 0.57311 1.26-0.3635 3.0552-6.7435 4.8339-10.217 2.8484-1.899-1.0856-4.2425-1.0661-6.4069 0.0531-1.9411 1.0038-4.7767 0.86231-7.7775-0.38801-1.5565-0.64854-2.1687-0.65047-3.7252-0.0118-3.1855 1.3071-4.8837 1.3685-7.8952 0.2856-2.8211-1.0145-3.0012-1.0141-5.8891 0.0108-1.6384 0.58152-3.2369 1.137-3.5521 1.2343-0.31521 0.0974-1.1534-0.0565-1.8626-0.34181zm0-5.1638c-0.93814-0.3732-1.2895-0.98313-1.2895-2.2385 0-1.6238 0.08286-1.6878 1.4061-1.0848 1.14 0.51942 2.06 0.39612 4.8615-0.65158 3.2984-1.2335 3.5605-1.2502 5.7693-0.3664 2.9416 1.177 4.6126 1.1661 8.0438-0.0525 2.7094-0.96231 2.8028-0.95591 5.6732 0.38849 0 0 1.8445 1.3427 2.9184 1.3669 1.1732 0.0265 3.2521-1.3479 3.2521-1.3479 3.2255-1.3369 3.2734-1.3394 5.8659-0.30744 3.2846 1.3075 5.8067 1.2615 8.6765-0.15835l2.2474-1.1119v1.6754c0 1.4156-0.37774 1.8469-2.4357 2.781-3.1399 1.4253-4.8147 1.4083-8.1857-0.0829l-2.7436-1.2136-2.9281 1.2136c-3.6224 1.5014-4.9219 1.5176-7.5767 0.0948-1.9578-1.0493-2.2161-1.0622-4.1529-0.20798-3.1568 1.3923-4.8126 1.5114-7.1917 0.51734-2.6755-1.1179-5.0432-1.1589-7.0806-0.12274-2.4203 1.2309-3.7349 1.4639-5.1295 0.90907z" fill="#fff" stroke-width=".57311"/><path d="m122.4 127.81v-7.9023h-52.936l4.4612 7.9023z" fill="#fff" stroke-linejoin="round" stroke-width=".57311"/><path d="m110.8 117.58v-65.954l-38.046 65.954h9.0706l21.632-37.525v37.525z" fill="#fff" stroke-linejoin="round" stroke-width=".57311"/></svg>
