<?xml version="1.0" encoding="UTF-8"?>
<svg version="1.1" viewBox="0 0 192 192" xmlns="http://www.w3.org/2000/svg">
 <g>
  <g>
   <circle class="a" cx="96" cy="96" r="88" fill="#98dc9a"/>
   <path d="m80.292 66.619c-0.1197-0.92474-0.35923-2.7753-0.59963-4.4165s-0.4817-3.0729-0.92485-4.2647c-0.44316-1.1918-1.0887-2.1435-1.7789-2.9846-0.69015-0.84114-1.425-1.5715-2.1266-2.1245-0.70155-0.55295-1.3699-0.92812-2.3098-1.2285-0.93994-0.30038-2.1514-0.52548-4.1843-0.59143-2.033-0.06595-4.8872 0.0275-6.7256 0.12177-1.8385 0.09427-2.6611 0.18942-3.3994 0.36951-0.73834 0.18009-1.392 0.44522-2.1752 0.9542s-1.6953 1.2616-2.3596 1.9618c-0.66431 0.70015-1.0805 1.3474-1.5196 2.4494s-0.90091 2.6583-1.001 4.579c-0.10007 1.9207 0.16133 4.2053 0.70592 7.3314 0.54459 3.1261 1.3722 7.0934 2.478 10.993 1.1058 3.8991 2.4894 7.7299 3.7999 10.622s2.5473 4.845 4.0329 7.1134 3.2197 4.8522 4.8359 7.1774 3.1145 4.3918 4.9748 6.5251c1.8603 2.1332 4.0822 4.3331 6.4891 6.5195 2.4068 2.1864 4.9983 4.3592 7.9098 6.4481 2.9116 2.089 6.143 4.0941 9.2041 5.7308 3.0612 1.6366 5.9519 2.9049 9.0974 4.1352 3.1455 1.2304 6.5454 2.4228 9.8394 3.3212 3.2939 0.89838 6.4816 1.5028 8.868 1.8486 2.3864 0.3458 3.9713 0.43313 5.5337 0.40945 1.5624-0.0237 3.1022-0.15824 4.2386-0.47995s1.8702-0.8305 2.6656-1.4969c0.79535-0.66637 1.6524-1.4904 2.4067-2.5301 0.75431-1.0397 1.406-2.2955 1.6943-3.7871 0.28829-1.4916 0.21289-3.2196 0.21858-5.0273 6e-3 -1.8077 0.0925-3.695-0.0687-5.1909-0.16119-1.4959-0.57091-2.6007-1.2857-3.7998-0.71479-1.1991-1.735-2.4924-2.979-3.4504-1.244-0.958-2.712-1.5801-4.715-2.1056-2.0029-0.52552-4.5405-0.95415-6.6866-1.212-2.1461-0.25781-3.9006-0.34466-5.4564-0.41018-1.5559-0.0655-2.9131-0.10971-4.0069 0.2179-1.0939 0.3276-1.9235 1.0271-3.0368 2.0178s-2.5102 2.2724-3.8285 3.5082c-1.3183 1.2358-2.5578 2.4257-3.4599 3.3969-0.9021 0.97127-1.4666 1.7237-2.0485 2.0924s-1.1823 0.35367-2.5064-0.17996c-1.3241-0.53362-3.3719-1.5864-5.3195-2.8063-1.9476-1.2199-3.7949-2.6071-5.7729-4.2025-1.978-1.5954-4.0865-3.399-6.3285-5.6455-2.242-2.2465-4.6173-4.936-6.3702-7.2899-1.7529-2.354-2.8829-4.3724-3.8301-6.0206-0.94713-1.6482-1.7113-2.926-2.1733-3.7781-0.462-0.85213-0.62155-1.2786-0.53463-1.8187 0.08692-0.54019 0.42096-1.1933 1.0652-1.9266 0.64429-0.73334 1.5985-1.5464 2.5638-2.4897s1.9417-2.0167 2.8125-2.8961 1.6357-1.5646 2.1542-2.2242c0.51849-0.65965 0.79077-1.2942 1.127-2.1811 0.33621-0.88687 0.73632-2.026 0.89576-3.5241s0.07795-3.3552 0.04118-4.5541c-0.03677-1.1989-0.02876-1.7392-0.02475-2.0099 4e-3 -0.27069 4e-3 -0.2707-0.11568-1.1954z" fill="#ececec"/>
   <path d="m100.58 82.133c0.30087 0.40312 0.90175 1.2082 1.644 1.9775s1.6256 1.5029 2.4322 2.0105c0.8066 0.5076 1.5363 0.78961 2.3526 0.93531s1.7195 0.15554 2.578 0.1406c0.85846-0.01494 1.6722-0.0546 2.4612-0.19084 0.78898-0.13624 1.5535-0.3689 2.2691-0.81969 0.71566-0.45079 1.3831-1.1199 1.9431-1.7263 0.56006-0.60644 1.0128-1.1503 1.3871-1.7181 0.37435-0.56777 0.67041-1.1597 0.92028-1.7049 0.24988-0.54524 0.45355-1.0439 0.64933-1.4828 0.19577-0.43892 0.38362-0.81802 0.61679-1.1021 0.23316-0.28409 0.51119-0.4726 0.89625-0.54553 0.38506-0.07293 0.87625-0.0305 1.3096 0.07434 0.43333 0.10484 0.80863 0.27164 1.0039 0.61907s0.21162 0.87494 0.1341 1.4569c-0.0775 0.58196-0.2487 1.2187-0.4445 1.8605s-0.41619 1.2889-0.64707 1.8375c-0.23087 0.5486-0.47224 0.99896-0.80266 1.4879-0.33042 0.48894-0.74996 1.0166-1.2623 1.5291-0.51237 0.51243-1.1177 1.0098-1.7252 1.4303-0.60748 0.42056-1.2173 0.76441-1.7457 1.1376-0.52837 0.37321-0.97502 0.77562-1.5353 1.0747-0.56029 0.29908-1.2348 0.49496-1.7666 0.62202-0.53176 0.12706-0.92094 0.18524-1.179 0.30044s-0.38406 0.28713-0.43565 0.78326c-0.0516 0.49612-0.0289 1.3156-9.4e-4 2.0305 0.028 0.7149 0.0612 1.3252-0.11065 1.7768-0.1719 0.45163-0.54903 0.74572-1.0104 0.89691-0.46135 0.15119-1.0077 0.15937-1.492 0.06335-0.48427-0.09602-0.90662-0.29683-1.1555-0.69414s-0.32321-0.99164-0.32435-1.6503c-1e-3 -0.65862 0.0711-1.3813 0.0623-1.8075-9e-3 -0.42619-0.0998-0.5562-0.1259-0.72637-0.0261-0.17017 0.0137-0.38018-0.26999-0.61307-0.28366-0.23289-0.89206-0.48838-1.4715-0.66091s-1.1297-0.26174-1.8897-0.58183c-0.75997-0.32008-1.7296-0.8715-2.5146-1.4954-0.78502-0.62394-1.3851-1.3208-1.9165-2.0022s-0.9938-1.3476-1.4349-1.9641c-0.44114-0.61658-0.86098-1.1836-1.1602-1.7758-0.29918-0.5922-0.47718-1.2096-0.63865-1.7801s-0.30638-1.0941-0.31564-1.5237c-0.0093-0.42964 0.11768-0.76469 0.32488-1.0034 0.2072-0.23876 0.49404-0.38047 0.77843-0.49651 0.2844-0.11605 0.56612-0.20644 0.8469-0.25153 0.28078-0.04509 0.56021-0.04509 0.81622 0.07332 0.25601 0.11842 0.4886 0.35424 0.68582 0.68607 0.19722 0.33183 0.3596 0.75946 0.46798 1.2079 0.10839 0.44842 0.16311 0.91772 0.23683 1.2384 0.0737 0.32067 0.16595 0.49262 0.21174 0.578 0.0458 0.08538 0.0458 0.08537 0.34664 0.48849z" fill="#fff"/>
   <path d="m103.56 69.819c-2e-3 -0.95726-5e-3 -2.8728 0.094-4.1316 0.0995-1.2588 0.30231-1.8604 0.56151-2.4069s0.57473-1.0373 0.86784-1.385c0.29312-0.34768 0.56347-0.55179 0.82972-0.82314 0.26624-0.27135 0.52861-0.61019 1.0316-0.8714 0.50299-0.26121 1.2457-0.44447 1.9819-0.4912 0.7362-0.04673 1.4654 0.04276 2.0715 0.16102 0.60611 0.11826 1.089 0.26506 1.55 0.53392 0.46106 0.26886 0.90041 0.65917 1.2682 1.0815s0.66425 0.87633 0.87194 1.3158c0.2077 0.43945 0.32702 0.86427 0.37015 1.5042 0.0431 0.63989 0.0104 1.495-0.0115 2.7862s-0.033 3.0183-0.0386 4.3682c-6e-3 1.3499-6e-3 2.3225 0.0127 3.1688 0.0183 0.84629 0.0547 1.5662 0.0646 2.3999 0.01 0.83367-7e-3 1.7811-0.17836 2.4913-0.17141 0.71016-0.49734 1.1838-0.88201 1.642s-0.8282 0.90128-1.3474 1.2591-1.1146 0.63055-1.7147 0.8089c-0.6001 0.17835-1.2053 0.26222-1.7402 0.24724-0.53489-0.01498-0.99977-0.12919-1.5279-0.28223-0.52809-0.15304-1.1194-0.34501-1.6594-0.73125-0.53999-0.38624-1.0284-0.96743-1.4077-1.4912-0.3793-0.52381-0.64929-0.99032-0.78362-1.7811-0.13434-0.79083-0.13234-1.9057-0.14881-3.1747-0.0165-1.2689-0.0514-2.6917-0.0769-3.5907-0.0254-0.89898-0.0413-1.2741-0.0493-1.4621-8e-3 -0.18807-8e-3 -0.18807-9e-3 -1.1453z" fill="#fff"/>
  </g>
 </g>
</svg>
