<?xml version="1.0" encoding="UTF-8"?>
<svg version="1.1" viewBox="0 0 192 192" xmlns="http://www.w3.org/2000/svg">
 <rect class="a" x="20" y="20" width="152" height="152" rx="10" style="fill:#fff"/>
 <path d="m84.016 133.36c-0.21664-0.35053 1.6589-7.5385 4.1679-15.973 2.509-8.4347 4.4034-15.592 4.2098-15.905-0.19357-0.31318-3.3417-1.6978-6.9958-3.077-4.8457-1.8289-6.5294-2.8059-6.2209-3.6099 0.71918-1.8742 27.622-36.604 28.355-36.604 1.3454 0 0.63343 2.9191-4.3403 17.795-2.7668 8.275-4.8817 15.434-4.6997 15.909 0.18199 0.47506 3.4889 1.644 7.3487 2.5978 3.8598 0.95373 7.0178 1.9841 7.0178 2.2898 0 0.78521-26.984 36.697-27.787 36.982-0.36369 0.12868-0.83851-0.0529-1.0552-0.40337z" style="fill:#56595b;stroke-width:.77271"/>
</svg>
