<svg xmlns="http://www.w3.org/2000/svg" width="192" height="192"><g stroke-width="0"><rect width="152" height="152" x="20" y="20" fill="#f9de81" rx="9.935"/><path fill="#728dbe" d="M65.645 132.41s30.759 2.214 42.484 0c3.61-.682 18.226-4.189 18.226-21.309 0-15.676-17.02-22.448-17.02-22.448 1.953 8.73-1.728 15.974-8.711 17.288-7.525 1.416-31.628.335-31.628.335zM71.426 88.186s20.791 1.496 28.716 0c2.44-.46 12.32-2.831 12.32-14.403 0-10.596-11.504-15.173-11.504-15.173 1.32 5.902-1.168 10.797-5.888 11.686-5.086.957-21.378.226-21.378.226z"/></g></svg>