<svg xmlns="http://www.w3.org/2000/svg" width="192" height="192" viewBox="0 0 50.8 50.8"><path d="M26.307 93.738c0 8.675-4.744 16.243-11.78 20.248l-23 .004c-7.039-4.005-11.787-11.574-11.787-20.252 0-12.859 10.425-23.283 23.284-23.283 12.859 0 23.283 10.424 23.283 23.283z" style="fill:#99bdfe;fill-opacity:1;fill-rule:evenodd;stroke:none;stroke-width:.264583;stroke-opacity:1" transform="translate(22.376 -68.338)"/><path d="M-73.772 45.667c1.59 0 2.87 1.28 2.87 2.87v6.102c0 1.59-1.28 2.87-2.87 2.87s-2.87-1.28-2.87-2.87v-6.101c0-1.59 1.28-2.87 2.87-2.87z" style="fill:#fefefe;fill-opacity:1;stroke:none;stroke-width:.178485;stroke-miterlimit:4;stroke-dasharray:none;stroke-opacity:1;paint-order:markers fill stroke" transform="scale(-1 1) rotate(-47.818 -88.262 -8.932)"/><path d="M-69.71 50.149c1.59 0 2.87 1.28 2.87 2.87v6.101c0 1.59-1.28 2.87-2.87 2.87s-2.871-1.28-2.871-2.87V53.02c0-1.59 1.28-2.87 2.87-2.87z" style="fill:#fefefe;fill-opacity:1;stroke:none;stroke-width:.178485;stroke-miterlimit:4;stroke-dasharray:none;stroke-opacity:1;paint-order:markers fill stroke" transform="rotate(-47.818 -65.886 -59.406)"/><path d="M3.024 84.33c-6.368 0-11.494 5.94-11.494 13.318v16.339a23.283 23.283 0 0 0 11.494 3.034 23.283 23.283 0 0 0 11.494-3.035V97.648c0-7.378-5.127-13.318-11.494-13.318z" style="fill:#fefefe;fill-opacity:1;stroke:none;stroke-width:.714719;stroke-miterlimit:4;stroke-dasharray:none;stroke-opacity:1;paint-order:markers fill stroke" transform="translate(22.376 -68.338)"/><path d="M-2.536 89.52a.366.366 0 0 0-.37.334s-.045.46.102.95c.073.244.198.509.425.721.227.212.56.353.953.353.393 0 .726-.14.959-.348.232-.208.367-.469.451-.712.168-.486.144-.948.144-.948a.366.366 0 0 0-.381-.35.366.366 0 0 0-.35.38s.008.352-.105.679a.972.972 0 0 1-.248.406c-.108.097-.236.16-.47.16-.234 0-.354-.063-.453-.155a.895.895 0 0 1-.223-.397c-.098-.324-.074-.677-.074-.677a.366.366 0 0 0-.334-.395.366.366 0 0 0-.026-.002z" style="color:#000;font-style:normal;font-variant:normal;font-weight:400;font-stretch:normal;font-size:medium;line-height:normal;font-family:sans-serif;font-variant-ligatures:normal;font-variant-position:normal;font-variant-caps:normal;font-variant-numeric:normal;font-variant-alternates:normal;font-variant-east-asian:normal;font-feature-settings:normal;font-variation-settings:normal;text-indent:0;text-align:start;text-decoration:none;text-decoration-line:none;text-decoration-style:solid;text-decoration-color:#000;letter-spacing:normal;word-spacing:normal;text-transform:none;writing-mode:lr-tb;direction:ltr;text-orientation:mixed;dominant-baseline:auto;baseline-shift:baseline;text-anchor:start;white-space:normal;shape-padding:0;shape-margin:0;inline-size:0;clip-rule:nonzero;display:inline;overflow:visible;visibility:visible;opacity:1;isolation:auto;mix-blend-mode:normal;color-interpolation:sRGB;color-interpolation-filters:linearRGB;solid-color:#000;solid-opacity:1;vector-effect:none;fill:#52678b;fill-opacity:1;fill-rule:nonzero;stroke:none;stroke-width:.732467;stroke-linecap:round;stroke-linejoin:round;stroke-miterlimit:4;stroke-dasharray:none;stroke-dashoffset:0;stroke-opacity:1;color-rendering:auto;image-rendering:auto;shape-rendering:auto;text-rendering:auto;enable-background:accumulate;stop-color:#000;stop-opacity:1" transform="translate(22.376 -68.338)"/><path d="M1.802 92.434a1.545 1.545 0 0 0-1.207.596c-.482.609-.564 1.565-.001 2.049l1.88 1.618v1.932C1.464 98.535.4 98.208-.745 97.6a.55.55 0 0 0-.26-.064.55.55 0 0 0-.483.292.55.55 0 0 0 .228.743c3.152 1.673 6.054 1.415 8.579-.007a.55.55 0 0 0 .21-.748.55.55 0 0 0-.749-.21c-1.036.584-2.092.95-3.207 1.033v-1.942l1.88-1.618c.563-.484.482-1.44 0-2.05a1.532 1.532 0 0 0-2.207-.229l-.223.188-.222-.188a1.533 1.533 0 0 0-1-.367Z" style="fill:#52678b;fill-opacity:1;stroke:none;stroke-width:.613003;stroke-miterlimit:4;stroke-dasharray:none;stroke-opacity:1;paint-order:markers fill stroke" transform="translate(22.376 -68.338)"/><path d="M13.373 85.4c.234-.005.469.034.689.115.575.205 1.028.71 1.18 1.3a1.893 1.893 0 0 1-.464 1.78c-.212.196-.425.391-.64.586a.37.37 0 0 1-.543-.042.39.39 0 0 1 .083-.53l.51-.462c.476-.43.511-1.16.08-1.634a1.154 1.154 0 0 0-1.634-.08l-.412.373a.375.375 0 0 1-.543-.043.39.39 0 0 1 .083-.528l.284-.257c.347-.352.831-.57 1.327-.578zM-7.325 85.4a1.881 1.881 0 0 0-.689.115 1.903 1.903 0 0 0-1.18 1.3c-.167.62.017 1.319.463 1.78l.64.586a.37.37 0 0 0 .543-.042.39.39 0 0 0-.082-.53l-.51-.462a1.155 1.155 0 0 1-.081-1.634 1.154 1.154 0 0 1 1.634-.08l.412.373a.375.375 0 0 0 .543-.043.39.39 0 0 0-.082-.528L-6 85.978a1.935 1.935 0 0 0-1.326-.578z" style="fill:#52678b;fill-opacity:1;stroke:none;stroke-width:.0719561;stroke-miterlimit:4;stroke-dasharray:none;stroke-opacity:1;paint-order:markers fill stroke" transform="translate(22.376 -68.338)"/><path d="M6.274 89.52a.366.366 0 0 0-.354.35s-.024.462.143.948c.084.243.22.504.452.712.233.209.566.348.959.348.392 0 .725-.14.953-.353.227-.212.351-.477.425-.721.147-.49.101-.95.101-.95a.366.366 0 0 0-.396-.333.366.366 0 0 0-.334.395s.024.353-.073.677a.895.895 0 0 1-.223.397c-.1.092-.22.155-.453.155-.234 0-.362-.063-.47-.16a.972.972 0 0 1-.248-.406c-.113-.327-.105-.679-.105-.679a.366.366 0 0 0-.35-.38.366.366 0 0 0-.027 0z" style="color:#000;font-style:normal;font-variant:normal;font-weight:400;font-stretch:normal;font-size:medium;line-height:normal;font-family:sans-serif;font-variant-ligatures:normal;font-variant-position:normal;font-variant-caps:normal;font-variant-numeric:normal;font-variant-alternates:normal;font-variant-east-asian:normal;font-feature-settings:normal;font-variation-settings:normal;text-indent:0;text-align:start;text-decoration:none;text-decoration-line:none;text-decoration-style:solid;text-decoration-color:#000;letter-spacing:normal;word-spacing:normal;text-transform:none;writing-mode:lr-tb;direction:ltr;text-orientation:mixed;dominant-baseline:auto;baseline-shift:baseline;text-anchor:start;white-space:normal;shape-padding:0;shape-margin:0;inline-size:0;clip-rule:nonzero;display:inline;overflow:visible;visibility:visible;opacity:1;isolation:auto;mix-blend-mode:normal;color-interpolation:sRGB;color-interpolation-filters:linearRGB;solid-color:#000;solid-opacity:1;vector-effect:none;fill:#52678b;fill-opacity:1;fill-rule:nonzero;stroke:none;stroke-width:.732467;stroke-linecap:round;stroke-linejoin:round;stroke-miterlimit:4;stroke-dasharray:none;stroke-dashoffset:0;stroke-opacity:1;color-rendering:auto;image-rendering:auto;shape-rendering:auto;text-rendering:auto;enable-background:accumulate;stop-color:#000;stop-opacity:1" transform="translate(22.376 -68.338)"/></svg>