<svg xmlns="http://www.w3.org/2000/svg" xml:space="preserve" width="192" height="192"><circle cx="96" cy="96" r="88" fill="#fff"/><path fill="#56595b" d="M95.082 84.221q0 6.786-7.82 9.584 2.834.86 4.656 1.93 5.46 3.127 5.46 9.383 0 6.126-4.72 9.756-4.714 3.623-12.62 3.623-2.855 0-7.245-.395-4.383-.395-6.442-.395-1.793 0-3.386.237l-3.12.474q-.137 0-.467.079h-.466q-2.855-.065-2.855-2.432 0-2.16 2.08-2.16.538 0 1.815.273.868.187 1.406.187 3.422 0 3.422-4.936V82.636q0-5-3.422-5-.602 0-1.406.186-1.212.287-1.815.287-2.08 0-2.08-2.202 0-2.403 3.056-2.403h.86l3.25.581q1.392.25 3.788.25 2.518 0 7.167-.372 3.12-.46 6.7-.46 6.707 0 10.452 2.834 3.752 2.827 3.752 7.884zm-25.251 2.898q0 3.536.617 4.376.624.832 3.436.832h3.659q11.57 0 11.57-7.683 0-7.009-9.54-7.009-6.672 0-8.207.869-1.535.867-1.535 4.476zm0 13.537v7.388q0 4.326 1.442 5.324 1.442.997 7.87.997 12.266 0 12.266-9.319 0-8.587-11.808-8.587h-5.444q-3.537 0-4.06 1.6-.266.796-.266 2.597zM112.53 75.827q-.41 5.503-.46 13.056 2.088-2.662 4.24-3.738 2.153-1.083 5.417-1.083 6.52 0 10.366 4.577 3.852 4.57 3.852 12.152 0 8.3-4.118 13.236-4.117 4.928-11.098 4.928-6.786 0-9.813-4.885.237 1.887.237 2.08 0 2.346-2.296 2.346t-2.296-3.3q0-.925.23-1.384 0-1.521.23-3.236V81.207q-.065-2.446-.51-3.3-.437-.86-1.513-.86-.202 0-1.751.086-.739.043-1.284.043-2.288 0-2.288-2.038 0-2.094 2.661-2.094.804 0 1.334.079l1.6.23q1.062.15 1.729.15.732 0 2.066-.23t2.002-.23q1.463 0 1.463 1.859zm-.007 19.412q-.452 2.051-.452 5.76 0 6.328 1.033 8.695 2.009 4.67 7.633 4.67 4.462 0 7.08-3.487 2.619-3.486 2.619-9.368 0-6.012-2.49-9.434-2.489-3.422-6.821-3.422-3.042 0-5.503 1.887-2.453 1.887-3.099 4.699z"/></svg>