<?xml version="1.0" encoding="UTF-8" standalone="no"?>
<svg
   xml:space="preserve"
   width="192"
   height="192"
   version="1.1"
   id="svg8"
   sodipodi:docname="bitso_alpha.svg"
   inkscape:version="1.2.2 (b0a8486541, 2022-12-01)"
   inkscape:export-filename="bitso_alpha.png"
   inkscape:export-xdpi="96"
   inkscape:export-ydpi="96"
   xmlns:inkscape="http://www.inkscape.org/namespaces/inkscape"
   xmlns:sodipodi="http://sodipodi.sourceforge.net/DTD/sodipodi-0.dtd"
   xmlns="http://www.w3.org/2000/svg"
   xmlns:svg="http://www.w3.org/2000/svg"><defs
     id="defs12" /><sodipodi:namedview
     id="namedview10"
     pagecolor="#505050"
     bordercolor="#eeeeee"
     borderopacity="1"
     inkscape:showpageshadow="0"
     inkscape:pageopacity="0"
     inkscape:pagecheckerboard="0"
     inkscape:deskcolor="#d1d1d1"
     showgrid="false"
     inkscape:zoom="1.2291667"
     inkscape:cx="19.525424"
     inkscape:cy="96.40678"
     inkscape:window-width="1884"
     inkscape:window-height="1055"
     inkscape:window-x="36"
     inkscape:window-y="0"
     inkscape:window-maximized="1"
     inkscape:current-layer="svg8" /><rect
     width="152"
     height="152"
     x="20"
     y="20"
     fill="#56595b"
     rx="9.935"
     id="rect2" /><path
     fill="#ffffff"
     d="m 59.500133,61.415927 v 36.266706 c 0,0.984056 -0.0062,2.579917 0.06679,3.560417 1.13723,15.33881 16.679977,29.7746 29.493192,31.03384 0.977822,0.0962 2.575466,0.089 3.558632,0.089 h 9.967913 a 1.7810974,1.7810974 0 0 0 1.7811,-1.7811 v -17.84837 a 1.7810974,1.7810974 0 0 0 -1.7811,-1.7811 h -7.518013 c -0.984057,0 -2.587044,0.009 -3.549728,-0.18612 C 86.766062,109.80567 81.469078,105.21044 80.490365,99.769188 80.316708,98.802943 80.330067,97.200846 80.330067,96.21679 V 61.415037 A 1.7810974,1.7810974 0 0 0 78.548969,59.633939 H 61.28212 a 1.7810974,1.7810974 0 0 0 -1.781097,1.781098 z"
     id="path4"
     style="stroke-width:0.890549" /><path
     fill="#ffffff"
     d="m 87.609412,61.415927 v 17.119909 a 1.7810974,1.7810974 0 0 0 1.781097,1.781097 h 8.126257 c 0.984056,0 2.585264,-0.01247 3.553294,0.160299 4.48925,0.802384 8.93576,4.548032 9.77466,9.75418 0.15673,0.970698 0.1416,2.571014 0.1416,3.55507 V 126.8481 c 0,0.98317 0.76943,1.5647 1.68046,1.19512 4.94967,-2.01086 19.16728,-9.94476 19.81471,-34.905057 0.0258,-0.983166 0.0267,-2.578139 -0.0107,-3.562195 -0.75964,-19.862798 -14.26837,-29.247401 -29.90819,-29.904625 -0.98227,-0.04008 -2.578134,-0.03562 -3.56219,-0.03562 H 89.3914 a 1.7810974,1.7810974 0 0 0 -1.781098,1.781097 z"
     id="path6"
     style="stroke-width:0.890549" /></svg>
