<svg xmlns="http://www.w3.org/2000/svg" width="192" height="192" fill="none"><path fill="#54688C" d="M174 32H18c-5.52 0-10 4.48-10 10v108c0 5.52 4.48 10 10 10h156c5.52 0 10-4.48 10-10V42c0-5.52-4.48-10-10-10Z"/><path fill="url(#a)" d="M80.606 119.188a23.185 23.185 0 0 1-23.184-23.186h-.027v-28.62l17.752-17.75v23.89a23.182 23.182 0 0 1 5.46-.705 23.185 23.185 0 0 1 0 46.371Zm-6.365-12.037 19.515-11.15L74.24 84.848v22.302Z"/><path fill="url(#b)" d="M119.198 72.814A23.185 23.185 0 0 0 96.014 96h-.027v28.62l17.751 17.751V118.48a23.23 23.23 0 0 0 5.46.706 23.19 23.19 0 0 0 21.421-14.313 23.19 23.19 0 0 0-5.026-25.267 23.185 23.185 0 0 0-16.394-6.791h-.001Zm-6.365 12.037 19.514 11.151-19.514 11.151V84.851Z"/><defs><linearGradient id="a" x1="57.395" x2="103.792" y1="84.409" y2="84.409" gradientUnits="userSpaceOnUse"><stop stop-color="#fff"/><stop offset="1" stop-color="#D8D8D8"/></linearGradient><linearGradient id="b" x1="95.986" x2="142.383" y1="107.593" y2="107.593" gradientUnits="userSpaceOnUse"><stop stop-color="#fff"/><stop offset="1" stop-color="#D8D8D8"/></linearGradient></defs></svg>