<?xml version="1.0" encoding="UTF-8"?>
<svg version="1.1" viewBox="0 0 192 192" xmlns="http://www.w3.org/2000/svg">
 <defs>
  <filter id="filter7" x="-.33352" y="-.2726" width="1.667" height="1.5452" style="color-interpolation-filters:sRGB">
   <feGaussianBlur stdDeviation="2.3336493"/>
  </filter>
  <clipPath id="clipPath8">
   <rect class="a" x="20" y="20" width="152" height="152" rx="10" style="fill:none;stroke:#b2b6bd"/>
  </clipPath>
  <clipPath id="clipPath9">
   <rect class="a" x="20" y="20" width="152" height="152" rx="10" style="fill:none;stroke:#b2b6bd"/>
  </clipPath>
 </defs>
 <rect class="a" x="20" y="20" width="152" height="152" rx="10" style="fill:#56595b"/>
 <rect transform="rotate(-30)" x="-31.259" y="95.488" width="42.907" height="74.74" ry="21.453" style="fill:#c39a54;stroke-linecap:round;stroke-linejoin:round;stroke-width:4.2507"/>
 <circle cx="122.1" cy="165.13" r="90.097" clip-path="url(#clipPath9)" style="fill:#f9de81;stroke-linecap:round;stroke-linejoin:round;stroke-width:5.0345"/>
 <circle cx="152.41" cy="160.5" r="30.068" clip-path="url(#clipPath8)" style="fill:#fff;stroke-linecap:round;stroke-linejoin:round;stroke-width:4.4543"/>
 <ellipse cx="141.91" cy="150.7" rx="4.0376" ry="4.7526" style="fill:#56595b;stroke-linecap:round;stroke-linejoin:round;stroke-width:4"/>
 <ellipse cx="155.49" cy="153.77" rx="4.0376" ry="4.7526" style="fill:#56595b;stroke-linecap:round;stroke-linejoin:round;stroke-width:4"/>
 <ellipse transform="rotate(11.991 75.858 111.55)" cx="75.858" cy="111.55" rx="8.3964" ry="10.273" style="fill:#f8c18c;filter:url(#filter7);mix-blend-mode:normal;stroke-linecap:round;stroke-linejoin:round;stroke-width:4"/>
 <ellipse transform="rotate(22.498)" cx="120.32" cy="67.69" rx="4.7881" ry="6.2156" style="fill:#56595b;stroke-linecap:round;stroke-linejoin:round;stroke-width:4"/>
 <ellipse transform="rotate(12.055 116.13 123.78)" cx="116.13" cy="123.78" rx="8.3964" ry="10.273" style="fill:#f8c18c;filter:url(#filter7);stroke-linecap:round;stroke-linejoin:round;stroke-width:4"/>
 <ellipse transform="rotate(22.498)" cx="142.59" cy="64.26" rx="4.7881" ry="6.2156" style="fill:#56595b;stroke-linecap:round;stroke-linejoin:round;stroke-width:4"/>
 <path d="m87.613 121.81s-5.2081-3.6472-7.372-2.2602c-2.8967 1.8567-3.0856 7.2472-1.3715 10.23 3.1348 5.4562 11.803 7.0347 17.428 7.2565 6.9014 0.27215 11.918-4.4452 10.349-9.9926-0.84469-2.9877-7.7918-2.1413-7.7918-2.1413-4.3024 0.0793-8.0496-0.95167-11.242-3.0929z" style="fill:#56595b;stroke-linecap:round;stroke-linejoin:round;stroke-width:4"/>
 <path d="m87.587 121.82c-1.2968 2.3623-1.0679 4.2398 1.2407 5.5727 1.1636 0.51171 2.4955 0.85519 3.9955 1.0304 4.2235 0.48309 5.6676-1.0088 6.0321-3.5182-4.4595 0.0812-7.9752-1.3657-11.268-3.0849z" style="fill:#fff;stroke-linecap:round;stroke-linejoin:round;stroke-width:4"/>
 <path d="m70.75 25.814a8 8 0 0 0-8 8 8 8 0 0 0 0.22656 1.8867l2.6582 22.232a5.1152 5.1152 0 0 0 5.1152 5.1152 5.1152 5.1152 0 0 0 5.1152-5.1152l2.6602-22.232a8 8 0 0 0 0.22461-1.8867 8 8 0 0 0-8-8z" style="fill:#fff;stroke-linecap:round;stroke-linejoin:round;stroke-width:4"/>
 <path d="m35.5 37.349a8 8 0 0 0-2.9282 10.928 8 8 0 0 0 1.1396 1.5207l13.418 17.925a5.1152 5.1152 0 0 0 6.9875 1.8723 5.1152 5.1152 0 0 0 1.8723-6.9875l-8.8124-20.584a8 8 0 0 0-0.74884-1.7463 8 8 0 0 0-10.928-2.9282z" style="fill:#fff;stroke-linecap:round;stroke-linejoin:round;stroke-width:4"/>
</svg>
