<?xml version="1.0" encoding="UTF-8" standalone="no"?>
<svg
   xmlns:dc="http://purl.org/dc/elements/1.1/"
   xmlns:cc="http://creativecommons.org/ns#"
   xmlns:rdf="http://www.w3.org/1999/02/22-rdf-syntax-ns#"
   xmlns:svg="http://www.w3.org/2000/svg"
   xmlns="http://www.w3.org/2000/svg"
   xmlns:sodipodi="http://sodipodi.sourceforge.net/DTD/sodipodi-0.dtd"
   xmlns:inkscape="http://www.inkscape.org/namespaces/inkscape"
   viewBox="0 0 192 192"
   version="1.1"
   id="svg16"
   sodipodi:docname="blockinger.svg"
   inkscape:version="0.92.4 (5da689c313, 2019-01-14)">
  <metadata
     id="metadata20">
    <rdf:RDF>
      <cc:Work
         rdf:about="">
        <dc:format>image/svg+xml</dc:format>
        <dc:type
           rdf:resource="http://purl.org/dc/dcmitype/StillImage" />
        <dc:title></dc:title>
      </cc:Work>
    </rdf:RDF>
  </metadata>
  <sodipodi:namedview
     pagecolor="#ffffff"
     bordercolor="#666666"
     borderopacity="1"
     objecttolerance="10"
     gridtolerance="10"
     guidetolerance="10"
     inkscape:pageopacity="0"
     inkscape:pageshadow="2"
     inkscape:window-width="1920"
     inkscape:window-height="1017"
     id="namedview18"
     showgrid="true"
     inkscape:zoom="4.1676432"
     inkscape:cx="70.594568"
     inkscape:cy="87.045226"
     inkscape:window-x="-8"
     inkscape:window-y="-8"
     inkscape:window-maximized="1"
     inkscape:current-layer="svg16">
    <inkscape:grid
       type="xygrid"
       id="grid827"
       spacingx="4"
       spacingy="4" />
  </sodipodi:namedview>
  <defs
     id="defs4">
    <style
       id="style2">.a{fill:none;stroke:#b1b5bd;stroke-linecap:round;stroke-linejoin:round;isolation:isolate;opacity:0.63;}</style>
  </defs>
  <rect
     class="a"
     x="8"
     y="32"
     width="176"
     height="128"
     rx="10"
     id="rect14"
     style="fill:#56595b;stroke:none;opacity:1" />
  <path
     style="opacity:1;vector-effect:none;fill:#54688c;fill-opacity:1;fill-rule:evenodd;stroke:none;stroke-width:8;stroke-linecap:round;stroke-linejoin:round;stroke-miterlimit:4;stroke-dasharray:none;paint-order:stroke fill markers"
     d="M 18 32 C 14.718654 32 11.825147 33.573018 10.003906 36 L 16 36 L 16 48 L 8 48 L 8 52 L 16 52 L 16 64 L 8 64 L 8 68 L 16 68 L 16 80 L 8 80 L 8 84 L 16 84 L 16 96 L 8 96 L 8 100 L 16 100 L 16 112 L 8 112 L 8 116 L 16 116 L 16 128 L 8 128 L 8 132 L 16 132 L 16 144 L 8 144 L 8 148 L 16 148 L 16 159.80078 C 16.646157 159.931 17.31435 160 18 160 L 20 160 L 20 148 L 32 148 L 32 160 L 36 160 L 36 148 L 48 148 L 48 160 L 52 160 L 52 148 L 64 148 L 64 160 L 68 160 L 68 148 L 80 148 L 80 160 L 84 160 L 84 148 L 96 148 L 96 160 L 100 160 L 100 148 L 112 148 L 112 160 L 116 160 L 116 148 L 128 148 L 128 160 L 132 160 L 132 148 L 144 148 L 144 160 L 148 160 L 148 148 L 160 148 L 160 160 L 164 160 L 164 148 L 176 148 L 176 159.80078 C 177.4824 159.50202 178.83656 158.86916 180 157.99609 L 180 148 L 184 148 L 184 144 L 180 144 L 180 132 L 184 132 L 184 128 L 180 128 L 180 116 L 184 116 L 184 112 L 180 112 L 180 100 L 184 100 L 184 96 L 180 96 L 180 84 L 184 84 L 184 80 L 180 80 L 180 68 L 184 68 L 184 64 L 180 64 L 180 52 L 184 52 L 184 48 L 180 48 L 180 36 L 181.99609 36 C 180.17485 33.573018 177.28135 32 174 32 L 18 32 z M 20 36 L 32 36 L 32 48 L 20 48 L 20 36 z M 36 36 L 48 36 L 48 48 L 36 48 L 36 36 z M 52 36 L 64 36 L 64 48 L 52 48 L 52 36 z M 68 36 L 80 36 L 80 48 L 68 48 L 68 36 z M 84 36 L 96 36 L 96 48 L 84 48 L 84 36 z M 100 36 L 112 36 L 112 48 L 100 48 L 100 36 z M 116 36 L 128 36 L 128 48 L 116 48 L 116 36 z M 132 36 L 144 36 L 144 48 L 132 48 L 132 36 z M 148 36 L 160 36 L 160 48 L 148 48 L 148 36 z M 164 36 L 176 36 L 176 48 L 164 48 L 164 36 z M 20 52 L 32 52 L 32 64 L 20 64 L 20 52 z M 36 52 L 48 52 L 48 64 L 36 64 L 36 52 z M 52 52 L 64 52 L 64 64 L 52 64 L 52 52 z M 68 52 L 80 52 L 80 64 L 68 64 L 68 52 z M 84 52 L 96 52 L 96 64 L 84 64 L 84 52 z M 100 52 L 112 52 L 112 64 L 100 64 L 100 52 z M 116 52 L 128 52 L 128 64 L 116 64 L 116 52 z M 132 52 L 144 52 L 144 64 L 132 64 L 132 52 z M 148 52 L 160 52 L 160 64 L 148 64 L 148 52 z M 164 52 L 176 52 L 176 64 L 164 64 L 164 52 z M 20 68 L 32 68 L 32 80 L 20 80 L 20 68 z M 36 68 L 48 68 L 48 80 L 36 80 L 36 68 z M 52 68 L 64 68 L 64 80 L 52 80 L 52 68 z M 68 68 L 80 68 L 80 80 L 68 80 L 68 68 z M 84 68 L 96 68 L 96 80 L 84 80 L 84 68 z M 100 68 L 112 68 L 112 80 L 100 80 L 100 68 z M 116 68 L 128 68 L 128 80 L 116 80 L 116 68 z M 132 68 L 144 68 L 144 80 L 132 80 L 132 68 z M 148 68 L 160 68 L 160 80 L 148 80 L 148 68 z M 164 68 L 176 68 L 176 80 L 164 80 L 164 68 z M 20 84 L 32 84 L 32 96 L 20 96 L 20 84 z M 36 84 L 48 84 L 48 96 L 36 96 L 36 84 z M 52 84 L 64 84 L 64 96 L 52 96 L 52 84 z M 68 84 L 80 84 L 80 96 L 68 96 L 68 84 z M 84 84 L 96 84 L 96 96 L 84 96 L 84 84 z M 100 84 L 112 84 L 112 96 L 100 96 L 100 84 z M 116 84 L 128 84 L 128 96 L 116 96 L 116 84 z M 132 84 L 144 84 L 144 96 L 132 96 L 132 84 z M 148 84 L 160 84 L 160 96 L 148 96 L 148 84 z M 164 84 L 176 84 L 176 96 L 164 96 L 164 84 z M 20 100 L 32 100 L 32 112 L 20 112 L 20 100 z M 36 100 L 48 100 L 48 112 L 36 112 L 36 100 z M 52 100 L 64 100 L 64 112 L 52 112 L 52 100 z M 68 100 L 80 100 L 80 112 L 68 112 L 68 100 z M 84 100 L 96 100 L 96 112 L 84 112 L 84 100 z M 100 100 L 112 100 L 112 112 L 100 112 L 100 100 z M 116 100 L 128 100 L 128 112 L 116 112 L 116 100 z M 132 100 L 144 100 L 144 112 L 132 112 L 132 100 z M 148 100 L 160 100 L 160 112 L 148 112 L 148 100 z M 164 100 L 176 100 L 176 112 L 164 112 L 164 100 z M 20 116 L 32 116 L 32 128 L 20 128 L 20 116 z M 36 116 L 48 116 L 48 128 L 36 128 L 36 116 z M 52 116 L 64 116 L 64 128 L 52 128 L 52 116 z M 68 116 L 80 116 L 80 128 L 68 128 L 68 116 z M 84 116 L 96 116 L 96 128 L 84 128 L 84 116 z M 100 116 L 112 116 L 112 128 L 100 128 L 100 116 z M 116 116 L 128 116 L 128 128 L 116 128 L 116 116 z M 132 116 L 144 116 L 144 128 L 132 128 L 132 116 z M 148 116 L 160 116 L 160 128 L 148 128 L 148 116 z M 164 116 L 176 116 L 176 128 L 164 128 L 164 116 z M 20 132 L 32 132 L 32 144 L 20 144 L 20 132 z M 36 132 L 48 132 L 48 144 L 36 144 L 36 132 z M 52 132 L 64 132 L 64 144 L 52 144 L 52 132 z M 68 132 L 80 132 L 80 144 L 68 144 L 68 132 z M 84 132 L 96 132 L 96 144 L 84 144 L 84 132 z M 100 132 L 112 132 L 112 144 L 100 144 L 100 132 z M 116 132 L 128 132 L 128 144 L 116 144 L 116 132 z M 132 132 L 144 132 L 144 144 L 132 144 L 132 132 z M 148 132 L 160 132 L 160 144 L 148 144 L 148 132 z M 164 132 L 176 132 L 176 144 L 164 144 L 164 132 z "
     id="rect849" />
  <path
     style="opacity:1;vector-effect:none;fill:#98dc9a;fill-opacity:1;fill-rule:evenodd;stroke:none;stroke-width:8;stroke-linecap:round;stroke-linejoin:round;stroke-miterlimit:4;stroke-dasharray:none;paint-order:stroke fill markers"
     d="m 112,96 v 16 H 96 v 16 h 16 16 v -16 h 16 V 96 h -16 z"
     id="rect818"
     inkscape:connector-curvature="0" />
  <path
     style="opacity:1;vector-effect:none;fill:#ff837d;fill-opacity:1;fill-rule:evenodd;stroke:none;stroke-width:8;stroke-linecap:round;stroke-linejoin:round;stroke-miterlimit:4;stroke-dasharray:none;paint-order:stroke fill markers"
     d="m 48,96 v 16 h 16 v 16 H 80 96 V 112 H 80 V 96 H 64 Z"
     id="rect818-3"
     inkscape:connector-curvature="0" />
  <rect
     style="opacity:1;vector-effect:none;fill:#f9de81;fill-opacity:1;fill-rule:evenodd;stroke:none;stroke-width:8;stroke-linecap:round;stroke-linejoin:round;stroke-miterlimit:4;stroke-dasharray:none;paint-order:stroke fill markers"
     id="rect845"
     width="32"
     height="32"
     x="80"
     y="64" />
</svg>
