<svg xmlns="http://www.w3.org/2000/svg" width="192" height="192"><g style="display:inline"><path d="M93.108 17.341c-18.214 8.546-37.622 17.762-52.542 10.377-1.484-.734-3.684-2.29-4.89-3.423-1.386-1.303-2.985-2.9-4.514-4.094-1.3-1.016-2.706-.21-2.927 1.432-1.152 8.562-2.996 16.862-3.863 24.404-.19 1.646-.401 4.324-.495 5.978-1.854 32.603 8.708 55.061 21.787 74.278.933 1.37 2.474 3.57 3.456 4.905 15.123 20.547 37.345 38.471 44.69 43.952 1.326.989 3.502.873 4.79-.17 17.404-14.085 31.442-26.425 46.748-47.973.959-1.35 2.49-3.559 3.405-4.94 15.452-23.278 20.523-45.075 19.443-67.685a170.84 170.84 0 0 0-.42-5.985c-.753-8.321-2.192-17.108-4.186-26.75-.335-1.622-1.815-2.304-3.116-1.28-.761.6-1.314 1.152-1.78 1.671-1.107 1.231-2.996 3.155-4.404 4.024-9.23 5.697-27.98 5.618-55.806-8.605-1.475-.754-3.877-.82-5.376-.116zm5.51 17.447c29.407 12.871 41.09 11.459 52.149 9.683 1.636-.263 3.088.863 3.219 2.514 1.396 17.555.11 27.425-2.203 35.188-.473 1.588-2.007 2.061-3.343 1.081-20.729-15.198-40.69-30.08-58.62-44.127-1.303-1.021-1.129-2.393.387-3.061l2.924-1.287c1.516-.668 3.969-.655 5.487.01zM41.495 45.173l93.493 60.985a.282.282 117.744 0 1-.262.497l-94.35-38.834c-1.533-.631-2.842-2.484-2.804-4.139.095-4.083.458-11.521 1.05-17.17.173-1.647 1.485-2.244 2.873-1.339zm-1.198 30.44C63.962 96.61 90.2 117.762 113.18 138.16c1.239 1.1 1.298 2.953.124 4.122-7.463 7.435-11.71 10.911-15.426 13.716-1.322.999-3.393.88-4.608-.246-28.037-25.965-47.41-45.376-54.624-79.19-.346-1.62.412-2.047 1.651-.947Z" style="display:inline;fill:#f7c18c;fill-opacity:1;fill-rule:evenodd;stroke:none;stroke-width:.577986px;stroke-linecap:butt;stroke-linejoin:round;stroke-opacity:1"/></g></svg>