<svg xmlns="http://www.w3.org/2000/svg" id="svg16" version="1.1" viewBox="0 0 192 192"><defs id="defs4"><filter id="filter0_ii" width="126.001" height="126.59" x="32.815" y="35" color-interpolation-filters="sRGB" filterUnits="userSpaceOnUse"><feFlood id="feFlood911" flood-opacity="0" result="BackgroundImageFix"/><feBlend id="feBlend913" in="SourceGraphic" in2="BackgroundImageFix" mode="normal" result="shape"/><feColorMatrix id="feColorMatrix915" in="SourceAlpha" result="hardAlpha" type="matrix" values="0 0 0 0 0 0 0 0 0 0 0 0 0 0 0 0 0 0 127 0"/><feOffset id="feOffset917" dx="-10" dy="-41"/><feComposite id="feComposite919" in2="hardAlpha" k2="-1" k3="1" operator="arithmetic"/><feColorMatrix id="feColorMatrix921" type="matrix" values="0 0 0 0 0.443137 0 0 0 0 0.639216 0 0 0 0 0.447059 0 0 0 1 0"/><feBlend id="feBlend923" in2="shape" mode="normal" result="effect1_innerShadow"/><feColorMatrix id="feColorMatrix925" in="SourceAlpha" result="hardAlpha" type="matrix" values="0 0 0 0 0 0 0 0 0 0 0 0 0 0 0 0 0 0 127 0"/><feOffset id="feOffset927" dx="4" dy="3"/><feComposite id="feComposite929" in2="hardAlpha" k2="-1" k3="1" operator="arithmetic"/><feColorMatrix id="feColorMatrix931" type="matrix" values="0 0 0 0 0.878431 0 0 0 0 0.956863 0 0 0 0 0.878431 0 0 0 1 0"/><feBlend id="feBlend933" in2="effect1_innerShadow" mode="normal" result="effect2_innerShadow"/></filter><filter id="filter1_ii" width="140.759" height="76.967" x="21.121" y="87.941" color-interpolation-filters="sRGB" filterUnits="userSpaceOnUse"><feFlood id="feFlood936" flood-opacity="0" result="BackgroundImageFix"/><feBlend id="feBlend938" in="SourceGraphic" in2="BackgroundImageFix" mode="normal" result="shape"/><feColorMatrix id="feColorMatrix940" in="SourceAlpha" result="hardAlpha" type="matrix" values="0 0 0 0 0 0 0 0 0 0 0 0 0 0 0 0 0 0 127 0"/><feOffset id="feOffset942" dx="4" dy="4"/><feComposite id="feComposite944" in2="hardAlpha" k2="-1" k3="1" operator="arithmetic"/><feColorMatrix id="feColorMatrix946" type="matrix" values="0 0 0 0 0.878431 0 0 0 0 0.956863 0 0 0 0 0.878431 0 0 0 1 0"/><feBlend id="feBlend948" in2="shape" mode="normal" result="effect1_innerShadow"/><feColorMatrix id="feColorMatrix950" in="SourceAlpha" result="hardAlpha" type="matrix" values="0 0 0 0 0 0 0 0 0 0 0 0 0 0 0 0 0 0 127 0"/><feOffset id="feOffset952" dx="-1" dy="-4"/><feComposite id="feComposite954" in2="hardAlpha" k2="-1" k3="1" operator="arithmetic"/><feColorMatrix id="feColorMatrix956" type="matrix" values="0 0 0 0 0.443137 0 0 0 0 0.639216 0 0 0 0 0.447059 0 0 0 1 0"/><feBlend id="feBlend958" in2="effect1_innerShadow" mode="normal" result="effect2_innerShadow"/></filter><filter id="filter2_d" width="21.086" height="28.983" x="45.586" y="119.115" color-interpolation-filters="sRGB" filterUnits="userSpaceOnUse"><feFlood id="feFlood961" flood-opacity="0" result="BackgroundImageFix"/><feColorMatrix id="feColorMatrix963" in="SourceAlpha" result="hardAlpha" type="matrix" values="0 0 0 0 0 0 0 0 0 0 0 0 0 0 0 0 0 0 127 0"/><feOffset id="feOffset965" dy="-2"/><feColorMatrix id="feColorMatrix967" type="matrix" values="0 0 0 0 0.556863 0 0 0 0 0.435294 0 0 0 0 0.376471 0 0 0 0.5 0"/><feBlend id="feBlend969" in2="BackgroundImageFix" mode="normal" result="effect1_dropShadow"/><feBlend id="feBlend971" in="SourceGraphic" in2="effect1_dropShadow" mode="normal" result="shape"/></filter><filter id="filter3_d" width="32.249" height="30.614" x="84.045" y="120.359" color-interpolation-filters="sRGB" filterUnits="userSpaceOnUse"><feFlood id="feFlood974" flood-opacity="0" result="BackgroundImageFix"/><feColorMatrix id="feColorMatrix976" in="SourceAlpha" result="hardAlpha" type="matrix" values="0 0 0 0 0 0 0 0 0 0 0 0 0 0 0 0 0 0 127 0"/><feOffset id="feOffset978" dy="-2"/><feColorMatrix id="feColorMatrix980" type="matrix" values="0 0 0 0 0.556863 0 0 0 0 0.435294 0 0 0 0 0.376471 0 0 0 0.5 0"/><feBlend id="feBlend982" in2="BackgroundImageFix" mode="normal" result="effect1_dropShadow"/><feBlend id="feBlend984" in="SourceGraphic" in2="effect1_dropShadow" mode="normal" result="shape"/></filter><filter id="filter4_i" width="18.626" height="21.365" x="44.867" y="104.615" color-interpolation-filters="sRGB" filterUnits="userSpaceOnUse"><feFlood id="feFlood987" flood-opacity="0" result="BackgroundImageFix"/><feBlend id="feBlend989" in="SourceGraphic" in2="BackgroundImageFix" mode="normal" result="shape"/><feColorMatrix id="feColorMatrix991" in="SourceAlpha" result="hardAlpha" type="matrix" values="0 0 0 0 0 0 0 0 0 0 0 0 0 0 0 0 0 0 127 0"/><feOffset id="feOffset993" dx="-3" dy="2"/><feComposite id="feComposite995" in2="hardAlpha" k2="-1" k3="1" operator="arithmetic"/><feColorMatrix id="feColorMatrix997" type="matrix" values="0 0 0 0 0 0 0 0 0 0 0 0 0 0 0 0 0 0 0.25 0"/><feBlend id="feBlend999" in2="shape" mode="normal" result="effect1_innerShadow"/></filter><filter id="filter5_i" width="25.748" height="19.174" x="80.103" y="110.176" color-interpolation-filters="sRGB" filterUnits="userSpaceOnUse"><feFlood id="feFlood1002" flood-opacity="0" result="BackgroundImageFix"/><feBlend id="feBlend1004" in="SourceGraphic" in2="BackgroundImageFix" mode="normal" result="shape"/><feColorMatrix id="feColorMatrix1006" in="SourceAlpha" result="hardAlpha" type="matrix" values="0 0 0 0 0 0 0 0 0 0 0 0 0 0 0 0 0 0 127 0"/><feOffset id="feOffset1008" dx="-3" dy="2"/><feComposite id="feComposite1010" in2="hardAlpha" k2="-1" k3="1" operator="arithmetic"/><feColorMatrix id="feColorMatrix1012" type="matrix" values="0 0 0 0 0 0 0 0 0 0 0 0 0 0 0 0 0 0 0.25 0"/><feBlend id="feBlend1014" in2="shape" mode="normal" result="effect1_innerShadow"/></filter><filter id="filter6_i" width="39.767" height="74.9" x="101.662" y="89.865" color-interpolation-filters="sRGB" filterUnits="userSpaceOnUse"><feFlood id="feFlood1017" flood-opacity="0" result="BackgroundImageFix"/><feBlend id="feBlend1019" in="SourceGraphic" in2="BackgroundImageFix" mode="normal" result="shape"/><feColorMatrix id="feColorMatrix1021" in="SourceAlpha" result="hardAlpha" type="matrix" values="0 0 0 0 0 0 0 0 0 0 0 0 0 0 0 0 0 0 127 0"/><feOffset id="feOffset1023" dx="2" dy="2"/><feComposite id="feComposite1025" in2="hardAlpha" k2="-1" k3="1" operator="arithmetic"/><feColorMatrix id="feColorMatrix1027" type="matrix" values="0 0 0 0 0.592 0 0 0 0 0.592 0 0 0 0 0.592 0 0 0 1 0"/><feBlend id="feBlend1029" in2="shape" mode="normal" result="effect1_innerShadow"/></filter><filter id="filter7_i" width="46.018" height="41.635" x="44.867" y="53.119" color-interpolation-filters="sRGB" filterUnits="userSpaceOnUse"><feFlood id="feFlood1032" flood-opacity="0" result="BackgroundImageFix"/><feBlend id="feBlend1034" in="SourceGraphic" in2="BackgroundImageFix" mode="normal" result="shape"/><feColorMatrix id="feColorMatrix1036" in="SourceAlpha" result="hardAlpha" type="matrix" values="0 0 0 0 0 0 0 0 0 0 0 0 0 0 0 0 0 0 127 0"/><feOffset id="feOffset1038" dx="4" dy="4"/><feComposite id="feComposite1040" in2="hardAlpha" k2="-1" k3="1" operator="arithmetic"/><feColorMatrix id="feColorMatrix1042" type="matrix" values="0 0 0 0 0.992157 0 0 0 0 0.960784 0 0 0 0 0.85098 0 0 0 1 0"/><feBlend id="feBlend1044" in2="shape" mode="normal" result="effect1_innerShadow"/></filter><filter id="filter8_ii" width="59.028" height="72.449" x="116.46" y="22.459" color-interpolation-filters="sRGB" filterUnits="userSpaceOnUse"><feFlood id="feFlood1047" flood-opacity="0" result="BackgroundImageFix"/><feBlend id="feBlend1049" in="SourceGraphic" in2="BackgroundImageFix" mode="normal" result="shape"/><feColorMatrix id="feColorMatrix1051" in="SourceAlpha" result="hardAlpha" type="matrix" values="0 0 0 0 0 0 0 0 0 0 0 0 0 0 0 0 0 0 127 0"/><feOffset id="feOffset1053" dx="14" dy="1"/><feComposite id="feComposite1055" in2="hardAlpha" k2="-1" k3="1" operator="arithmetic"/><feColorMatrix id="feColorMatrix1057" type="matrix" values="0 0 0 0 1 0 0 0 0 0.839216 0 0 0 0 0.831373 0 0 0 1 0"/><feBlend id="feBlend1059" in2="shape" mode="normal" result="effect1_innerShadow"/><feColorMatrix id="feColorMatrix1061" in="SourceAlpha" result="hardAlpha" type="matrix" values="0 0 0 0 0 0 0 0 0 0 0 0 0 0 0 0 0 0 127 0"/><feOffset id="feOffset1063" dx="5" dy="-1"/><feComposite id="feComposite1065" in2="hardAlpha" k2="-1" k3="1" operator="arithmetic"/><feColorMatrix id="feColorMatrix1067" type="matrix" values="0 0 0 0 1 0 0 0 0 0.513726 0 0 0 0 0.490196 0 0 0 1 0"/><feBlend id="feBlend1069" in2="effect1_innerShadow" mode="normal" result="effect2_innerShadow"/></filter><clipPath id="clip0"><path id="rect1072" fill="#fff" d="M0 0h192v192H0z"/></clipPath><style id="style2">.a{fill:none;stroke:#b1b5bd;stroke-linecap:round;stroke-linejoin:round;isolation:isolate;opacity:.63}</style></defs><path id="path1225" d="M47.544 135.439s3.058 7.522 10.91 11.997c5.462 3.112 21.423 10.385 27.569 11.702 14.513 3.108 29.692 6.473 44.34 4.077 3.94-.645 10.957-4.842 10.957-4.842s8.822 4.414 12.312 4.227c7.507-.402 11.79-6.152 15.147-12.878 3.58-7.17 4.29-20.425-1.318-25.215-2.687-2.296-8.303-3.593-8.303-3.593s7.609-22.968 8.409-34.911c.388-5.794-1.784-17.328-1.784-17.328s6.575-18.309 3.313-20.386c-2.728-1.738-8.919 3.822-8.919 3.822s6.397-14.914 4.407-17.745c-1.021-1.453-9.278-2.711-13.58-1.112-2.55.947-6.371 5.096-6.371 5.096s2.363-4.403 1.019-5.86c-1.676-1.818-15.176.735-19.995 6.071-2.302 2.55-2.43 9.473-2.43 9.473l-13.25-2.294s2.324-4.845.434-6.361c-3.832-3.076-10.22.292-14.45 2.794-1.758 1.04-4.205 4.46-4.205 4.46s-15.08.414-27.405 12.774c-8.114 8.138-11.172 32.615-11.172 32.615s-10.568-2.476-14.775 1.441c-4.095 3.812-6.495 12.424-6.487 18.019.012 7.839-.312 15.918 5.586 21.082 2.403 2.104 10.041 2.875 10.041 2.875z" style="fill:#8e6f60;stroke:none;stroke-width:1.25289226px;stroke-linecap:butt;stroke-linejoin:miter;stroke-opacity:1"/><path id="path1227" d="M55.112 90.502c4.359-6.738 9.066-13.277 16.987-11.995 19.948 3.23 22.098 30.07 22.098 30.07s16.498-20.41 32.68-16.015c12.105 3.288 20.964 18.63 21.082 31.173.116 12.46-8.569 26.009-20.107 30.716-8.15 3.324-25.767-5.766-25.767-5.766s.476 3.804-.615 5.141c-1.56 1.914-4.56 2.273-7.028 2.343-4.354.123-8.554-1.84-12.613-3.424-3.278-1.279-7.143-2.14-9.37-4.865-1.106-1.354-2.18-2.662-1.441-5.045.231-.746.9-2.162.9-2.162s-13.296-3.075-17.82-6.478c-3.822-2.876-5.98-5.578-6.505-10.82-.341-3.415.226-6.875.721-10.271.995-6.82 3.054-16.815 6.798-22.602z" style="fill:#d3b69a;stroke:none;stroke-width:1.25289226px;stroke-linecap:butt;stroke-linejoin:miter;stroke-opacity:1"/><path id="path1229" d="M47.832 103.98s-3.58-.04-5.644 2.817c-1.256 1.738-1.716 3.895-1.771 6.667-.067 3.368-.32 5.893 2.5 7.735 1.71 1.118 1.469 1.265 2.283 1.209-.17-13.462 2.632-18.428 2.632-18.428z" style="fill:#d3b69a;stroke:none;stroke-width:1.25289226px;stroke-linecap:butt;stroke-linejoin:miter;stroke-opacity:1"/><path id="path1231" d="m154.265 130.582-9.73 17.298s3.137 2.723 5.045 2.703c3.308-.034 6.873-2.075 8.65-4.865 2.135-3.354 2.642-8.32.9-11.893-.854-1.752-4.865-3.243-4.865-3.243z" style="fill:#d3b69a;stroke:none;stroke-width:1.25289226px;stroke-linecap:butt;stroke-linejoin:miter;stroke-opacity:1"/><path id="path1233" d="m63.98 75.682-3.057 14.143 1.656 1.784 23.571 2.676L88.7 74.663l-1.912-1.402z" style="fill:#8e6f60;stroke:none;stroke-width:1.25289226px;stroke-linecap:butt;stroke-linejoin:miter;stroke-opacity:1"/><path id="path1235" d="m114.436 87.66-5.479 17.455 1.02 2.803 24.463 7.262 2.293-1.656 5.224-15.035-15.162-7.772z" style="fill:#8e6f60;stroke:none;stroke-width:1.25289226px;stroke-linecap:butt;stroke-linejoin:miter;stroke-opacity:1"/><path id="path1237" d="M52.098 117.789c-.387 5.302 1.552 10.806 8.469 13.514 3.866 1.513 8.689 2.899 12.327.9 2.679-1.47 5.993-10.424 6.052-14.775.11-8.062-2.325-17.731-10.27-19.1-10.362-1.784-15.957 10.962-16.578 19.46z" style="fill:#fff;stroke:none;stroke-width:1.25289226px;stroke-linecap:butt;stroke-linejoin:miter;stroke-opacity:1"/><path id="path1239" d="M100.674 129.554c2.831-11.287 8.671-20.797 23.5-17.171 9.258 2.264 12.334 10.836 11.171 17.839-.94 5.667-6.642 14.98-12.072 16.397-6.01 1.568-12.087-.394-18.2-3.964-2.92-1.707-5.917-7.044-4.399-13.101z" style="fill:#fff;stroke:none;stroke-width:1.25289226px;stroke-linecap:butt;stroke-linejoin:miter;stroke-opacity:1"/><path id="path1241" d="M66.513 116.334c.709-3.546 3.117-7.974 6.667-7.285 3.22.625 4.104 5.096 3.085 9.715-1.116 5.063-2.748 7.12-5.698 6.863-2.983-.26-4.917-4.974-4.054-9.293z" style="fill:#8e6f60;stroke:none;stroke-width:1.25289226px;stroke-linecap:butt;stroke-linejoin:miter;stroke-opacity:1"/><ellipse id="path1266" cx="94.509" cy="102.44" rx="3.249" ry="3.886" style="opacity:1;vector-effect:none;fill:#d3b69a;fill-opacity:1;fill-rule:evenodd;stroke:none;stroke-width:10.02313805;stroke-linecap:round;stroke-linejoin:round;stroke-miterlimit:4;stroke-dasharray:none;paint-order:stroke fill markers" transform="rotate(11.984)"/><path id="path1245" d="M115.795 129.681c.912-6.497 3.824-9.786 7.748-9.1 4.044.708 5.426 4.935 4.325 11.533-.585 3.5-3.311 7.823-7.68 6.983-4.34-.834-4.914-5.704-4.393-9.416z" style="fill:#8e6f60;stroke:none;stroke-width:1.25289226px;stroke-linecap:butt;stroke-linejoin:miter;stroke-opacity:1"/><ellipse id="path1266-3" cx="146.692" cy="104.669" rx="4.07" ry="4.868" style="opacity:1;vector-effect:none;fill:#d3b69a;fill-opacity:1;fill-rule:evenodd;stroke:none;stroke-width:12.55466557;stroke-linecap:round;stroke-linejoin:round;stroke-miterlimit:4;stroke-dasharray:none;paint-order:stroke fill markers" transform="rotate(11.984)"/><ellipse id="path1249" cx="109.76" cy="79.794" rx="3.695" ry="1.975" style="opacity:1;vector-effect:none;fill:#fff;fill-opacity:1;fill-rule:evenodd;stroke:none;stroke-width:10.02313805;stroke-linecap:round;stroke-linejoin:round;stroke-miterlimit:4;stroke-dasharray:none;paint-order:stroke fill markers" transform="rotate(24.872)"/><ellipse id="path1249-3" cx="165.758" cy="52.663" rx="3.695" ry="1.975" style="opacity:1;vector-effect:none;fill:#fff;fill-opacity:1;fill-rule:evenodd;stroke:none;stroke-width:10.02313805;stroke-linecap:round;stroke-linejoin:round;stroke-miterlimit:4;stroke-dasharray:none;paint-order:stroke fill markers" transform="rotate(30.725)"/><path id="path71" d="M85.51 140.003c2.746.914 7.356 3.146 11.348-2.384" style="fill:none;stroke:#8e6f60;stroke-width:2.50578451;stroke-linecap:round"/><ellipse id="path1289" cx="116.383" cy="79.927" rx="4.325" ry="1.712" style="opacity:1;vector-effect:none;fill:#ff837d;fill-opacity:1;fill-rule:evenodd;stroke:none;stroke-width:10.02313805;stroke-linecap:round;stroke-linejoin:round;stroke-miterlimit:4;stroke-dasharray:none;paint-order:stroke fill markers" transform="rotate(33.077)"/><ellipse id="path1289-2" cx="126.428" cy="149.872" rx="5.045" ry="2.252" style="opacity:1;vector-effect:none;fill:#ff837d;fill-opacity:1;fill-rule:evenodd;stroke:none;stroke-width:10.02313805;stroke-linecap:round;stroke-linejoin:round;stroke-miterlimit:4;stroke-dasharray:none;paint-order:stroke fill markers" transform="rotate(.241)"/><g id="g1340" transform="translate(-7.484 -7.505) scale(1.37059)"><path id="path1308" d="M30.22 45.16s-12.97-6.577-9.406-16.831c5.65-16.256 22.525-2.95 22.525-2.95z" style="fill:#ba6561;stroke:none;stroke-width:1px;stroke-linecap:butt;stroke-linejoin:miter;stroke-opacity:1"/><path id="path1310" d="m43.339 25.43 7.373 21.967s15.901-3.723 12.407-16.882c-3.443-12.961-19.78-5.084-19.78-5.084Z" style="fill:#ba6561;stroke:none;stroke-width:1px;stroke-linecap:butt;stroke-linejoin:miter;stroke-opacity:1"/><path id="path1318" d="M43.363 25.322a1 1 0 0 0-.733.316s-3.958 4.228-8.058 10.077c-4.1 5.848-8.402 13.3-9.008 20.084-.74 8.278 5.089 13.525 5.767 14.109l3.69 10.978a1 1 0 0 0 1.816.178l5.596-9.746c1.21-.37 8.33-2.864 9.6-11.77 1.04-7.295-.94-15.665-3.133-22.257-2.195-6.592-4.647-11.422-4.647-11.422a1 1 0 0 0-.89-.547z" style="color:#000;font-style:normal;font-variant:normal;font-weight:400;font-stretch:normal;font-size:medium;line-height:normal;font-family:sans-serif;font-variant-ligatures:normal;font-variant-position:normal;font-variant-caps:normal;font-variant-numeric:normal;font-variant-alternates:normal;font-feature-settings:normal;text-indent:0;text-align:start;text-decoration:none;text-decoration-line:none;text-decoration-style:solid;text-decoration-color:#000;letter-spacing:normal;word-spacing:normal;text-transform:none;writing-mode:lr-tb;direction:ltr;text-orientation:mixed;dominant-baseline:auto;baseline-shift:baseline;text-anchor:start;white-space:normal;shape-padding:0;clip-rule:nonzero;display:inline;overflow:visible;visibility:visible;opacity:1;isolation:auto;mix-blend-mode:normal;color-interpolation:sRGB;color-interpolation-filters:linearRGB;solid-color:#000;solid-opacity:1;vector-effect:none;fill:#56595b;fill-opacity:1;fill-rule:nonzero;stroke:none;stroke-width:2;stroke-linecap:round;stroke-linejoin:round;stroke-miterlimit:4;stroke-dasharray:none;stroke-dashoffset:0;stroke-opacity:1;color-rendering:auto;image-rendering:auto;shape-rendering:auto;text-rendering:auto;enable-background:accumulate"/><path id="path1312" d="M29.597 43.781c-2.075 3.938-3.682 8.086-4.033 12.018a15.875 15.875 0 0 0 .22 4.423c2.457 1.277 6.92 3.27 12.114 4.006 5.671.804 10.91-.714 13.404-1.623.32-.924.571-1.94.73-3.056.584-4.09.202-8.511-.619-12.774-1.91.177-6.853.537-11.43.012-4.746-.545-8.973-2.355-10.386-3.006z" style="fill:#ff837d;stroke:none;stroke-width:1px;stroke-linecap:butt;stroke-linejoin:miter;stroke-opacity:1"/></g></svg>