<?xml version="1.0" encoding="UTF-8"?><svg id="a" xmlns="http://www.w3.org/2000/svg" width="192" height="192" xmlns:xlink="http://www.w3.org/1999/xlink" viewBox="0 0 192 192"><defs><clipPath id="d"><path d="m149.89,183.11l-25.81-15.33-30.75-49.96-38.2-22.83c-5.31-9.36,1-52.43,21.01-52.8l5.73-11.28-.24-11.63c-.02-1.18.4-2.33,1.18-3.21l6.75-7.58c.72-.81,2.04-.57,2.43.45l5.97,15.65c91.34.64,106.39,61.85,61.94,132.28,4.11,4.6,7.51,11.32,3.22,16.98-2.94,3.78-7.04,13.05-13.23,9.26Z" style="fill:none;"/></clipPath></defs><g id="b"><g id="c"><g style="clip-path:url(#d);"><path d="m149.89,183.11l-25.81-15.33-51.22-44.19-17.74-28.6c-5.31-9.36,1-52.43,21.01-52.8l5.73-11.28-.22-10.79c-.03-1.73.58-3.4,1.73-4.69l5.77-6.48c.92-1.03,2.59-.72,3.08.57l5.75,15.06c91.34.64,106.39,61.85,61.94,132.28,4.11,4.6,7.51,11.32,3.22,16.98-2.94,3.78-7.04,13.05-13.23,9.26Z" style="fill:#83868c;"/><path d="m169.26,150.8c37.87-70.14,24.86-126.49-67.91-131.12-2.29-6.2-6.6-22.77-15.87-14.04-3.24,3.87-9.35,8.89-8.75,14.57,0,0,.2,9.54.2,9.54l-3.96,7.79c-20.41,2.66-29.45,47.37-22.01,60.06,0,0,17.74,28.6,17.74,28.6l52.19,45.33c6.77,2.33,29.53,22.65,37.05,15.85,8.84,3.56,19.3,7.43,19.3,7.43l-7.98-44.02Zm3.7-89.42c9.98,18.47,7.48,44.66-6.54,73.7l-17.32-95.57c10.79,5.28,18.85,12.59,23.86,21.87Zm-96.33,58.94l-16.49-26.58c-3.61-5.28-.09-46.42,17.07-46.78,1.35-.03,2.52-.97,3.14-2.18l6.47-12.72-.24-12.03c-.18-1.15,2.33-3.17,2.88-3.99l3.48,11.54c12.26-.08,24.96,4.22,34.86,11.86,18.35,14.16,16.71,55.92,10.57,85.12-2.75,13.06,6.43,20.79,15.45,32.77h0c6.94,8.16,7.64,12.19,1.9,18.69-1.63,1.84-4.34,2.25-6.46,1-7.02-4.14-24.07-14.52-24.41-14.64,0,0-48.21-42.04-48.21-42.04Z" style="fill:#b1b5bd;"/><path d="m107.65,34.28c-.47-.09-.89.39-.71.84l10.53,26.22c4.8,12.82-5.3,27.32-18.7,27.5-.48,0-.74.54-.4.88,4.46,4.4,23.94,23.6,32.05,31.59,1.47,1.45,3.93.61,4.21-1.45,3.79-27.51,12.42-77.89-26.98-85.59Z" style="fill:#56595b;"/><path d="m81.59,17.44l8.52-9.57c.47-.53,1.33-.37,1.59.29l20.6,54.12-29.76,4.85-.95-49.69" style="fill:#56595b;"/><path d="m159.91,156.87l-14.26-19.12c-2.24-3-3.15-6.79-2.5-10.48,5.19-29.5,17.25-90.23-40.16-102.81,51.92-3.41,51.55.37,98.67,17.45,0,0-1.77,107.25-2.18,107.12s-39.57,7.84-39.57,7.84Z" style="fill:#ff837d;"/><ellipse cx="98" cy="68.04" rx="13.66" ry="13.78" style="fill:#979797;"/><path d="m98,56.09c6.52,0,11.83,5.36,11.83,11.95s-5.31,11.95-11.83,11.95-11.83-5.36-11.83-11.95,5.31-11.95,11.83-11.95m0-3.66c-8.55,0-15.49,6.99-15.49,15.61s6.93,15.61,15.49,15.61,15.49-6.99,15.49-15.61-6.93-15.61-15.49-15.61h0Z" style="fill:#ececec;"/></g><path d="m10.93,135.1c2.07-14.88,28.89-37.13,49.41-41.28,48.09-9.71,70.84,66.13,63.89,74.07,0,0-18.99-22.1-61.96-30.66-27.74-5.53-52.56,6.6-51.34-2.13Z" style="fill:#ff837d;"/><path d="m8.86,146.01c-3.58-6.27,4.07-16.57,22.9-22.41,40.26-12.49,95.74,39.18,92.47,44.29,0,0-28.61-11.79-69.09-13-28.62-.85-42.87-2.91-46.28-8.88Z" style="fill:#ba6561;"/></g></g></svg>