<?xml version="1.0" encoding="UTF-8"?>
<svg version="1.1" viewBox="0 0 192 192" xmlns="http://www.w3.org/2000/svg">
 <g transform="matrix(1.7352 0 0 1.7352 16.126 2.2985)">
  <path d="m30.69 12.65 59.14 34.33c2.57 1.5 4.04 4.05 4.04 7.02s-1.47 5.52-4.04 7.02l-59.14 34.33c-2.58 1.5-5.53 1.5-8.12 0.01-2.58-1.49-4.06-4.05-4.06-7.03v-68.66c0-2.98 1.48-5.54 4.06-7.03 2.59-1.49 5.54-1.49 8.12 0.01z" fill="#0d0754" style="fill:#54688c"/>
  <path d="m18.51 84.71 18.78-36.49 12.61-24.42-17.79-10.33c-3-2.06-5.49-2.27-7.9-1.56-1.1 0.39-4.94 1.82-5.63 6.63z" fill="#4e75f3" style="fill:#9abeff"/>
  <path d="m18.51 88.7v-3.99l18.78-36.49 20.62 31.33-27.22 15.8c-2.72 1.54-5.7 1.33-7.69 0.24-3.52-1.91-4.02-4.45-4.31-5.47z" fill="#2e4db3" style="fill:#728dbe"/>
  <g fill="#aae2fa">
   <path d="m75.32 55.85c0-1.17 1.14-2.12 2.54-2.12h3.64c1.39 0 2.53 0.95 2.53 2.12l0.03 8.51-8.77 5.1z" style="fill:#96dfd3"/>
   <path d="m71.01 71.94-8.75 5.08v-31.84c0-1.28 1.13-2.33 2.53-2.33h3.64c1.4 0 2.53 1.05 2.54 2.33z" style="fill:#96dfd3"/>
   <path d="m49.19 66.3v-3.88c0-1.21 1.14-2.19 2.54-2.19h3.64c1.39 0 2.53 0.98 2.53 2.19l0.01 17.13z" style="fill:#96dfd3"/>
  </g>
 </g>
</svg>
