<?xml version="1.0" encoding="UTF-8"?><svg id="a" xmlns="http://www.w3.org/2000/svg" width="192" height="192" viewBox="0 0 192 192"><defs><style>.d{fill:#98dc9a;fill-rule:evenodd;}.d,.e,.f,.g,.h{stroke-width:0px;}.e{fill:#fdf5d9;}.f{fill:#8c72bd;}.g{fill:#f9de81;}.h{fill:#c39a54;}</style></defs><g id="b"><g id="c"><path class="d" d="m172,30v132c0,5.52-4.48,10-10,10H30c-5.52,0-10-4.48-10-10V30c0-5.52,4.48-10,10-10h132c5.52,0,10,4.48,10,10Z"/><path class="f" d="m125.46,126.13l-2.92-2.92c14.57-15.12,14.13-39.19-.99-53.77-14.73-14.2-38.05-14.2-52.77,0l-3.05-3.05c-.69-.67-1.61-1.03-2.57-1.02-1.03-.01-2.02.41-2.72,1.16-1.22,1.52-1.09,3.72.3,5.08l3.42,3.42h0c2.46,2.46,6.45,2.46,8.91,0h0s.7-.7.7-.7l.11-.11c12.31-11.91,31.95-11.58,43.86.73,11.63,12.02,11.63,31.11,0,43.13l-.11.11-.7.7c-2.46,2.46-2.46,6.45,0,8.91h0s3.56,3.56,3.56,3.56c.68.69,1.62,1.08,2.59,1.08,1.08,0,2.1-.49,2.79-1.32,1.14-1.53.96-3.67-.42-4.99Z"/><path class="g" d="m62.97,129.03v-57.19c.07-.97.92-1.7,1.9-1.63.87.07,1.56.76,1.63,1.63v53.62h53.66c.97.07,1.7.92,1.63,1.9-.07.87-.76,1.56-1.63,1.63l-57.19.04Z"/><path class="g" d="m69.09,67.33c-.57-.51-1.45-.47-1.96.1l-5.38,5.38c-.57.45-.67,1.28-.22,1.85.45.57,1.28.67,1.85.22.08-.07.16-.14.23-.23l5.38-5.39c.55-.51.6-1.37.1-1.94Z"/><path class="g" d="m67.23,65.52c-.56-.51-1.44-.47-1.95.09,0,0,0,0,0,0l-5.39,5.38c-.55.48-.59,1.32-.11,1.86.48.55,1.32.59,1.86.11.04-.04.08-.07.11-.12l5.38-5.38c.56-.52.61-1.39.1-1.96Z"/><path class="g" d="m124.68,122.92c.51.57.46,1.44-.1,1.96l-5.38,5.38c-.46.56-1.3.64-1.86.18-.56-.46-.64-1.3-.18-1.86.05-.07.11-.13.18-.18l5.39-5.39c.52-.56,1.38-.6,1.95-.09Z"/><path class="g" d="m126.54,124.78c.51.57.47,1.45-.1,1.96l-5.38,5.39c-.48.55-1.32.59-1.86.11-.55-.48-.59-1.32-.11-1.86.04-.04.07-.08.12-.11l5.38-5.38c.51-.57,1.39-.61,1.96-.1Z"/><polygon class="h" points="65.77 126.23 54.5 124.64 69.98 109.16 81.25 110.75 65.77 126.23"/><polygon class="h" points="65.77 126.23 67.36 137.5 82.84 122.02 81.25 110.75 65.77 126.23"/><rect class="e" x="52.77" y="92.18" width="88.75" height="5.38" transform="translate(-38.63 96.48) rotate(-45)"/><polygon class="g" points="137.5 54.5 123.01 58.38 133.62 68.99 137.5 54.5"/></g></g></svg>