<svg xmlns="http://www.w3.org/2000/svg" xml:space="preserve" width="192" height="192"><g transform="translate(1.627 -844.152) scale(.98305)"><circle cx="96.478" cy="970.086" r="59.2" style="opacity:1;fill:#fefefe;fill-opacity:1;stroke:none;stroke-width:20;stroke-linecap:round;stroke-linejoin:round;stroke-miterlimit:4;stroke-dasharray:none;stroke-opacity:1"/><ellipse cx="95.478" cy="973.196" rx="41.041" ry="24.625" style="opacity:1;fill:#dff3df;fill-opacity:1;stroke:none;stroke-width:20;stroke-linecap:round;stroke-linejoin:round;stroke-miterlimit:4;stroke-dasharray:none;stroke-opacity:1"/><path d="M97.133 1027.026a61.434 61.434 0 0 0 4.971.65 61.434 61.434 0 0 0 4.344.192 61.434 61.434 0 0 0 6.136-.25 61.434 61.434 0 0 0 6.08-.863 61.434 61.434 0 0 0 5.963-1.465 61.434 61.434 0 0 0 5.788-2.054 61.434 61.434 0 0 0 5.554-2.62 61.434 61.434 0 0 0 5.264-3.162 61.434 61.434 0 0 0 4.922-3.671 61.434 61.434 0 0 0 4.531-4.146 61.434 61.434 0 0 0 4.095-4.576 61.434 61.434 0 0 0 3.617-4.963 61.434 61.434 0 0 0 3.103-5.299 61.434 61.434 0 0 0 2.56-5.581 61.434 61.434 0 0 0 1.989-5.81 61.434 61.434 0 0 0 1.4-5.98 61.434 61.434 0 0 0 .795-6.09 61.434 61.434 0 0 0 .193-4.342 61.434 61.434 0 0 0-.251-6.137 61.434 61.434 0 0 0-.52-3.66 40.616 78.027 87.145 0 0-20.744.378 40.616 78.027 87.145 0 0-69.529 47.142 40.616 78.027 87.145 0 0 19.739 22.307z" style="opacity:1;fill:#98db9a;fill-opacity:1;stroke:none;stroke-width:20;stroke-linecap:round;stroke-linejoin:round;stroke-miterlimit:4;stroke-dasharray:none;stroke-opacity:1"/><path d="M36.44 954.531c-11.3 128.701 135.825 79.223 120.797 30.59-69.142 17.36-65.37-32.283-120.796-30.59Z" style="fill:#72a373;fill-opacity:1;fill-rule:evenodd;stroke:none;stroke-width:1.01071px;stroke-linecap:butt;stroke-linejoin:miter;stroke-opacity:1"/><path d="m124.493 885.898 31.098 18.582-9.291 15.549-31.097-18.582zm6.042-17.267 36.898 22.052a5.387 5.387 0 0 1 1.865 7.404l-3.658 6.12a5.387 5.387 0 0 1-7.404 1.865l-36.898-22.052a5.387 5.387 0 0 1-1.865-7.403l3.658-6.121a5.387 5.387 0 0 1 7.404-1.865z" style="opacity:1;fill:#72a373;fill-opacity:1;fill-rule:evenodd;stroke:none;stroke-width:1px;stroke-linecap:butt;stroke-linejoin:miter;stroke-opacity:1"/><circle cx="95.946" cy="970.849" r="66.564" style="opacity:1;fill:none;fill-opacity:1;stroke:#72a373;stroke-width:14.8972;stroke-linecap:round;stroke-linejoin:round;stroke-miterlimit:4;stroke-dasharray:none;stroke-opacity:1"/></g></svg>