<?xml version="1.0" encoding="UTF-8"?><svg id="uuid-69eb4f37-324f-438f-bb30-618688b15a9e" xmlns="http://www.w3.org/2000/svg" width="192" height="192" xmlns:xlink="http://www.w3.org/1999/xlink" viewBox="0 0 192 192"><defs><clipPath id="uuid-edb4a9fc-7058-46b8-85a9-dc48876240dd"><rect x="20" y="20" width="152" height="152" rx="10" ry="10" fill="none" stroke-width="0"/></clipPath></defs><g id="uuid-2635af35-223f-4f34-88b6-63d028a3de42"><g id="uuid-6c1d1b62-1fc2-4165-94dc-4308c8b17857"><g clip-path="url(#uuid-edb4a9fc-7058-46b8-85a9-dc48876240dd)"><rect x="20" y="20" width="152" height="152" rx="10" ry="10" fill="#fff" stroke-width="0"/><path d="m28.44,20c0-4.66,3.79-8.45,8.45-8.45s8.45,3.79,8.45,8.45-3.79,8.45-8.45,8.45-8.45-3.8-8.45-8.45Z" fill="#9abeff" stroke-width="0"/><path d="m11.55,20c0-4.66,3.79-8.45,8.45-8.45s8.45,3.79,8.45,8.45-3.79,8.45-8.45,8.45-8.45-3.8-8.45-8.45Z" fill="#98dc9a" stroke-width="0"/><path d="m58,12.68c4.03,2.33,5.42,7.5,3.09,11.54-2.33,4.03-7.5,5.42-11.54,3.09s-5.42-7.5-3.09-11.54,7.51-5.41,11.54-3.09Z" fill="#9abeff" stroke-width="0"/><path d="m91.78,12.68c4.03,2.33,5.42,7.5,3.09,11.54-2.33,4.03-7.5,5.42-11.54,3.09s-5.42-7.5-3.09-11.54,7.51-5.41,11.54-3.09Z" fill="#ff837d" stroke-width="0"/><path d="m49.56,27.31c4.03,2.33,5.42,7.5,3.09,11.54s-7.5,5.42-11.54,3.09c-4.03-2.33-5.42-7.5-3.09-11.54,2.33-4.03,7.51-5.41,11.54-3.09Z" fill="#9abeff" stroke-width="0"/><path d="m32.67,27.31c4.03,2.33,5.42,7.5,3.09,11.54s-7.5,5.42-11.54,3.09c-4.03-2.33-5.42-7.5-3.09-11.54,2.33-4.03,7.51-5.41,11.54-3.09Z" fill="#98dc9a" stroke-width="0"/><path d="m74.89,12.68c4.03,2.33,5.42,7.5,3.09,11.54-2.33,4.03-7.5,5.42-11.54,3.09s-5.42-7.5-3.09-11.54,7.51-5.41,11.54-3.09Z" fill="#f9de81" stroke-width="0"/><path d="m83.33,27.31c4.03,2.33,5.42,7.5,3.09,11.54s-7.5,5.42-11.54,3.09c-4.03-2.33-5.42-7.5-3.09-11.54,2.33-4.03,7.51-5.41,11.54-3.09Z" fill="#f9de81" stroke-width="0"/><path d="m66.45,27.31c4.03,2.33,5.42,7.5,3.09,11.54s-7.5,5.42-11.54,3.09c-4.03-2.33-5.42-7.5-3.09-11.54,2.33-4.03,7.51-5.41,11.54-3.09Z" fill="#9abeff" stroke-width="0"/><path d="m108.67,12.68c4.03,2.33,5.42,7.5,3.09,11.54-2.33,4.03-7.5,5.42-11.54,3.09s-5.42-7.5-3.09-11.54,7.51-5.41,11.54-3.09Z" fill="#ff837d" stroke-width="0"/><path d="m125.56,12.68c4.03,2.33,5.42,7.5,3.09,11.54-2.33,4.03-7.5,5.42-11.54,3.09s-5.42-7.5-3.09-11.54,7.51-5.41,11.54-3.09Z" fill="#f9de81" stroke-width="0"/><path d="m117.11,27.31c4.03,2.33,5.42,7.5,3.09,11.54s-7.5,5.42-11.54,3.09-5.42-7.5-3.09-11.54,7.51-5.41,11.54-3.09Z" fill="#f9de81" stroke-width="0"/><path d="m100.22,27.31c4.03,2.33,5.42,7.5,3.09,11.54-2.33,4.03-7.5,5.42-11.54,3.09-4.03-2.33-5.42-7.5-3.09-11.54,2.33-4.03,7.51-5.41,11.54-3.09Z" fill="#ff837d" stroke-width="0"/><path d="m142.45,12.68c4.03,2.33,5.42,7.5,3.09,11.54-2.33,4.03-7.5,5.42-11.54,3.09s-5.42-7.5-3.09-11.54c2.33-4.03,7.51-5.41,11.54-3.09Z" fill="#9abeff" stroke-width="0"/><path d="m159.33,12.68c4.03,2.33,5.42,7.5,3.09,11.54-2.33,4.03-7.5,5.42-11.54,3.09s-5.42-7.5-3.09-11.54c2.33-4.03,7.51-5.41,11.54-3.09Z" fill="#9abeff" stroke-width="0"/><path d="m41.11,41.94c4.03,2.33,5.42,7.5,3.09,11.54-2.33,4.03-7.5,5.42-11.54,3.09s-5.42-7.5-3.09-11.54,7.51-5.41,11.54-3.09Z" fill="#98dc9a" stroke-width="0"/><path d="m24.22,41.94c4.03,2.33,5.42,7.5,3.09,11.54-2.33,4.03-7.5,5.42-11.54,3.09s-5.42-7.5-3.09-11.54,7.51-5.41,11.54-3.09Z" fill="#98dc9a" stroke-width="0"/><path d="m58,41.94c4.03,2.33,5.42,7.5,3.09,11.54-2.33,4.03-7.5,5.42-11.54,3.09s-5.42-7.5-3.09-11.54,7.51-5.41,11.54-3.09Z" fill="#9abeff" stroke-width="0"/><path d="m91.78,41.94c4.03,2.33,5.42,7.5,3.09,11.54-2.33,4.03-7.5,5.42-11.54,3.09s-5.42-7.5-3.09-11.54,7.51-5.41,11.54-3.09Z" fill="#f9de81" stroke-width="0"/><path d="m74.89,41.94c4.03,2.33,5.42,7.5,3.09,11.54-2.33,4.03-7.5,5.42-11.54,3.09s-5.42-7.5-3.09-11.54,7.51-5.41,11.54-3.09Z" fill="#9abeff" stroke-width="0"/><path d="m108.67,41.94c4.03,2.33,5.42,7.5,3.09,11.54-2.33,4.03-7.5,5.42-11.54,3.09s-5.42-7.5-3.09-11.54,7.51-5.41,11.54-3.09Z" fill="#f9de81" stroke-width="0"/><path d="m125.56,41.94c4.03,2.33,5.42,7.5,3.09,11.54-2.33,4.03-7.5,5.42-11.54,3.09s-5.42-7.5-3.09-11.54,7.51-5.41,11.54-3.09Z" fill="#9abeff" stroke-width="0"/><path d="m142.45,41.94c4.03,2.33,5.42,7.5,3.09,11.54-2.33,4.03-7.5,5.42-11.54,3.09s-5.42-7.5-3.09-11.54c2.33-4.03,7.51-5.41,11.54-3.09Z" fill="#9abeff" stroke-width="0"/><path d="m159.33,41.94c4.03,2.33,5.42,7.5,3.09,11.54-2.33,4.03-7.5,5.42-11.54,3.09s-5.42-7.5-3.09-11.54c2.33-4.03,7.51-5.41,11.54-3.09Z" fill="#98dc9a" stroke-width="0"/><path d="m176.22,41.94c4.03,2.33,5.42,7.5,3.09,11.54-2.33,4.03-7.5,5.42-11.54,3.09s-5.42-7.5-3.09-11.54c2.33-4.03,7.51-5.41,11.54-3.09Z" fill="#98dc9a" stroke-width="0"/><path d="m176.22,12.68c4.03,2.33,5.42,7.5,3.09,11.54-2.33,4.03-7.5,5.42-11.54,3.09s-5.42-7.5-3.09-11.54c2.33-4.03,7.51-5.41,11.54-3.09Z" fill="#98dc9a" stroke-width="0"/><path d="m150.89,27.31c4.03,2.33,5.42,7.5,3.09,11.54s-7.5,5.42-11.54,3.09-5.42-7.5-3.09-11.54,7.51-5.41,11.54-3.09Z" fill="#9abeff" stroke-width="0"/><path d="m167.78,27.31c4.03,2.33,5.42,7.5,3.09,11.54s-7.5,5.42-11.54,3.09-5.42-7.5-3.09-11.54,7.51-5.41,11.54-3.09Z" fill="#98dc9a" stroke-width="0"/><path d="m134,27.31c4.03,2.33,5.42,7.5,3.09,11.54-2.33,4.03-7.5,5.42-11.54,3.09-4.03-2.33-5.42-7.5-3.09-11.54s7.51-5.41,11.54-3.09Z" fill="#9abeff" stroke-width="0"/><path d="m49.55,56.57c4.03,2.33,5.42,7.5,3.09,11.54s-7.5,5.42-11.54,3.09c-4.03-2.33-5.42-7.5-3.09-11.54,2.33-4.03,7.51-5.41,11.54-3.09Z" fill="#98dc9a" stroke-width="0"/><path d="m32.66,56.57c4.03,2.33,5.42,7.5,3.09,11.54s-7.5,5.42-11.54,3.09c-4.03-2.33-5.42-7.5-3.09-11.54,2.33-4.03,7.51-5.41,11.54-3.09Z" fill="#98dc9a" stroke-width="0"/><path d="m83.33,56.57c4.03,2.33,5.42,7.5,3.09,11.54s-7.5,5.42-11.54,3.09c-4.03-2.33-5.42-7.5-3.09-11.54,2.33-4.03,7.51-5.41,11.54-3.09Z" fill="#9abeff" stroke-width="0"/><path d="m66.44,56.57c4.03,2.33,5.42,7.5,3.09,11.54s-7.5,5.42-11.54,3.09c-4.03-2.33-5.42-7.5-3.09-11.54,2.33-4.03,7.51-5.41,11.54-3.09Z" fill="#9abeff" stroke-width="0"/><path d="m117.11,56.57c4.03,2.33,5.42,7.5,3.09,11.54s-7.5,5.42-11.54,3.09-5.42-7.5-3.09-11.54,7.51-5.41,11.54-3.09Z" fill="#9abeff" stroke-width="0"/><path d="m100.22,56.57c4.03,2.33,5.42,7.5,3.09,11.54-2.33,4.03-7.5,5.42-11.54,3.09-4.03-2.33-5.42-7.5-3.09-11.54,2.33-4.03,7.51-5.41,11.54-3.09Z" fill="#f9de81" stroke-width="0"/><path d="m150.89,56.57c4.03,2.33,5.42,7.5,3.09,11.54s-7.5,5.42-11.54,3.09c-4.03-2.33-5.42-7.5-3.09-11.54,2.33-4.03,7.51-5.41,11.54-3.09Z" fill="#98dc9a" stroke-width="0"/><path d="m167.77,56.57c4.03,2.33,5.42,7.5,3.09,11.54s-7.5,5.42-11.54,3.09c-4.03-2.33-5.42-7.5-3.09-11.54,2.33-4.03,7.51-5.41,11.54-3.09Z" fill="#98dc9a" stroke-width="0"/><path d="m134,56.57c4.03,2.33,5.42,7.5,3.09,11.54-2.33,4.03-7.5,5.42-11.54,3.09-4.03-2.33-5.42-7.5-3.09-11.54,2.33-4.03,7.51-5.41,11.54-3.09Z" fill="#9abeff" stroke-width="0"/><path d="m41.11,71.19c4.03,2.33,5.42,7.5,3.09,11.54-2.33,4.03-7.5,5.42-11.54,3.09s-5.42-7.5-3.09-11.54,7.51-5.41,11.54-3.09Z" fill="#98dc9a" stroke-width="0"/><path d="m24.22,71.19c4.03,2.33,5.42,7.5,3.09,11.54-2.33,4.03-7.5,5.42-11.54,3.09s-5.42-7.5-3.09-11.54,7.51-5.41,11.54-3.09Z" fill="#98dc9a" stroke-width="0"/><path d="m58,71.19c4.03,2.33,5.42,7.5,3.09,11.54-2.33,4.03-7.5,5.42-11.54,3.09s-5.42-7.5-3.09-11.54,7.51-5.41,11.54-3.09Z" fill="#98dc9a" stroke-width="0"/><path d="m91.78,71.19c4.03,2.33,5.42,7.5,3.09,11.54-2.33,4.03-7.5,5.42-11.54,3.09s-5.42-7.5-3.09-11.54,7.51-5.41,11.54-3.09Z" fill="#9abeff" stroke-width="0"/><path d="m49.56,85.82c4.03,2.33,5.42,7.5,3.09,11.54s-7.5,5.42-11.54,3.09c-4.03-2.33-5.42-7.5-3.09-11.54,2.33-4.03,7.51-5.41,11.54-3.09Z" fill="#98dc9a" stroke-width="0"/><path d="m32.67,85.82c4.03,2.33,5.42,7.5,3.09,11.54s-7.5,5.42-11.54,3.09c-4.03-2.33-5.42-7.5-3.09-11.54,2.33-4.03,7.51-5.41,11.54-3.09Z" fill="#98dc9a" stroke-width="0"/><path d="m74.89,71.19c4.03,2.33,5.42,7.5,3.09,11.54-2.33,4.03-7.5,5.42-11.54,3.09s-5.42-7.5-3.09-11.54,7.51-5.41,11.54-3.09Z" fill="#9abeff" stroke-width="0"/><path d="m83.33,85.82c4.03,2.33,5.42,7.5,3.09,11.54-2.33,4.03-7.5,5.42-11.54,3.09-4.03-2.33-5.42-7.5-3.09-11.54,2.33-4.03,7.51-5.41,11.54-3.09Z" fill="#9abeff" stroke-width="0"/><path d="m66.45,85.82c4.03,2.33,5.42,7.5,3.09,11.54s-7.5,5.42-11.54,3.09-5.42-7.5-3.09-11.54c2.33-4.03,7.51-5.41,11.54-3.09Z" fill="#98dc9a" stroke-width="0"/><path d="m108.67,71.19c4.03,2.33,5.42,7.5,3.09,11.54-2.33,4.03-7.5,5.42-11.54,3.09s-5.42-7.5-3.09-11.54,7.51-5.41,11.54-3.09Z" fill="#9abeff" stroke-width="0"/><path d="m125.56,71.19c4.03,2.33,5.42,7.5,3.09,11.54-2.33,4.03-7.5,5.42-11.54,3.09s-5.42-7.5-3.09-11.54,7.51-5.41,11.54-3.09Z" fill="#9abeff" stroke-width="0"/><path d="m117.11,85.82c4.03,2.33,5.42,7.5,3.09,11.54s-7.5,5.42-11.54,3.09-5.42-7.5-3.09-11.54c2.33-4.03,7.51-5.41,11.54-3.09Z" fill="#9abeff" stroke-width="0"/><path d="m100.22,85.82c4.03,2.33,5.42,7.5,3.09,11.54-2.33,4.03-7.5,5.42-11.54,3.09-4.03-2.33-5.42-7.5-3.09-11.54,2.33-4.03,7.51-5.41,11.54-3.09Z" fill="#9abeff" stroke-width="0"/><path d="m142.45,71.19c4.03,2.33,5.42,7.5,3.09,11.54-2.33,4.03-7.5,5.42-11.54,3.09s-5.42-7.5-3.09-11.54c2.33-4.03,7.51-5.41,11.54-3.09Z" fill="#98dc9a" stroke-width="0"/><path d="m159.33,71.19c4.03,2.33,5.42,7.5,3.09,11.54-2.33,4.03-7.5,5.42-11.54,3.09s-5.42-7.5-3.09-11.54c2.33-4.03,7.51-5.41,11.54-3.09Z" fill="#98dc9a" stroke-width="0"/><path d="m176.22,71.19c4.03,2.33,5.42,7.5,3.09,11.54-2.33,4.03-7.5,5.42-11.54,3.09s-5.42-7.5-3.09-11.54c2.33-4.03,7.51-5.41,11.54-3.09Z" fill="#98dc9a" stroke-width="0"/><path d="m150.89,85.82c4.03,2.33,5.42,7.5,3.09,11.54s-7.5,5.42-11.54,3.09-5.42-7.5-3.09-11.54c2.33-4.03,7.51-5.41,11.54-3.09Z" fill="#98dc9a" stroke-width="0"/><path d="m167.78,85.82c4.03,2.33,5.42,7.5,3.09,11.54s-7.5,5.42-11.54,3.09-5.42-7.5-3.09-11.54c2.33-4.03,7.51-5.41,11.54-3.09Z" fill="#98dc9a" stroke-width="0"/><path d="m134,85.82c4.03,2.33,5.42,7.5,3.09,11.54s-7.5,5.42-11.54,3.09-5.42-7.5-3.09-11.54c2.33-4.03,7.51-5.41,11.54-3.09Z" fill="#98dc9a" stroke-width="0"/><path d="m100.22,146.24c4.03,2.33,5.42,7.5,3.09,11.54-2.33,4.03-7.5,5.42-11.54,3.09-4.03-2.33-5.42-7.5-3.09-11.54,2.33-4.03,7.51-5.41,11.54-3.09Z" fill="#9abeff" stroke-width="0"/><path d="m97.06,134.17c1.01.58,1.36,1.88.77,2.88s-1.88,1.36-2.88.77-1.36-1.88-.77-2.88,1.88-1.35,2.88-.77Z" fill="#728dbe" stroke-width="0"/><path d="m96,125.88c1.16,0,2.11.95,2.11,2.11s-.95,2.11-2.11,2.11-2.11-.95-2.11-2.11.95-2.11,2.11-2.11Z" fill="#728dbe" stroke-width="0"/><path d="m96,117.88c1.16,0,2.11.95,2.11,2.11s-.95,2.11-2.11,2.11-2.11-.95-2.11-2.11.95-2.11,2.11-2.11Z" fill="#728dbe" stroke-width="0"/><path d="m96,109.88c1.16,0,2.11.95,2.11,2.11s-.95,2.11-2.11,2.11-2.11-.95-2.11-2.11.95-2.11,2.11-2.11Z" fill="#728dbe" stroke-width="0"/></g></g></g></svg>