<?xml version="1.0" encoding="UTF-8"?>
<svg version="1.1" viewBox="0 0 192 192" xmlns="http://www.w3.org/2000/svg">
 <rect class="a" x="20" y="20" width="152" height="152" rx="10" style="fill:#ffd6d4"/>
 <g id="group" transform="matrix(.14707 0 0 .14707 16.508 16.522)" fill="none">
  <path d="m383 382.8m-136.5 0c0-28.821 9.128-56.916 26.069-80.233s40.839-40.68 68.25-49.586c27.411-8.907 56.951-8.907 84.362 0 27.411 8.906 51.309 26.269 68.25 49.586s26.069 51.412 26.069 80.233-9.128 56.916-26.069 80.233-40.839 40.68-68.25 49.586c-27.411 8.907-56.951 8.907-84.362 0-27.411-8.906-51.309-26.269-68.25-49.586s-26.069-51.412-26.069-80.233" style="fill:#ececec"/>
  <path d="m698 383m-136.5 0c0-36.188 14.391-70.931 39.98-96.52s60.332-39.98 96.52-39.98 70.931 14.391 96.52 39.98 39.98 60.332 39.98 96.52-14.391 70.931-39.98 96.52-60.332 39.98-96.52 39.98-70.931-14.391-96.52-39.98-39.98-60.332-39.98-96.52" style="fill:#ececec;stroke:#fff"/>
  <path d="m383.4 697.8m-136.5 0c0-36.188 14.391-70.931 39.98-96.52s60.332-39.98 96.52-39.98 70.931 14.391 96.52 39.98 39.98 60.332 39.98 96.52-14.391 70.931-39.98 96.52-60.332 39.98-96.52 39.98-70.931-14.391-96.52-39.98-39.98-60.332-39.98-96.52" style="fill:#ececec;stroke:#fff"/>
  <path d="m698 698m-136.5 0c0-36.188 14.391-70.931 39.98-96.52s60.332-39.98 96.52-39.98 70.931 14.391 96.52 39.98 39.98 60.332 39.98 96.52-14.391 70.931-39.98 96.52-60.332 39.98-96.52 39.98-70.931-14.391-96.52-39.98-39.98-60.332-39.98-96.52" style="fill:#8c72bd;stroke:#fff"/>
  <path d="m634.9 648.9h125.2c5.311 0.026 10.402 2.157 14.148 5.922 3.747 3.766 5.852 8.866 5.852 14.178s-2.105 10.412-5.852 14.178c-3.746 3.765-8.837 5.896-14.148 5.922h-125.2c-5.311-0.026-10.402-2.157-14.148-5.922-3.747-3.766-5.852-8.866-5.852-14.178s2.105-10.412 5.852-14.178c3.746-3.765 8.837-5.896 14.148-5.922z" style="fill:#bd9aff;stroke:#bd9aff"/>
  <path d="m634.9 706.9h125.2c5.311 0.026 10.402 2.157 14.148 5.922 3.747 3.766 5.852 8.866 5.852 14.178s-2.105 10.412-5.852 14.178c-3.746 3.765-8.837 5.896-14.148 5.922h-125.2c-5.311-0.026-10.402-2.157-14.148-5.922-3.747-3.766-5.852-8.866-5.852-14.178s2.105-10.412 5.852-14.178c3.746-3.765 8.837-5.896 14.148-5.922z" style="fill:#bd9aff;stroke:#bd9aff"/>
  <path d="m366.9 443.9v-49.2l-37.9-58.8c-3.3-5.3-5.7-9.4-7-12.4-1.4-3-2.1-5.5-2.1-7.7 0-3.6 1.4-6.7 4.2-9.3s6.2-3.9 10.3-3.9c4.3 0 7.6 1.2 9.8 3.7 2.2 2.4 5.6 7.3 10 14.5l29 47.1 29.3-47.1c1.8-2.9 3.2-5.3 4.4-7.3s2.5-3.8 4-5.6c1.4-1.7 3.1-3.1 4.8-4 1.8-0.9 3.9-1.4 6.5-1.4 3.9 0 7.3 1.3 9.9 3.9s4 5.6 4 8.9c0 2.7-0.7 5.5-2 8.3-1.3 2.7-3.6 6.6-6.9 11.4l-38.8 59.6v49.2c0 6.4-1.5 11.2-4.4 14.4-3 3.2-6.7 4.8-11.3 4.8s-8.4-1.6-11.3-4.7-4.3-8-4.3-14.4z" style="fill:#bd9aff;stroke:#fff"/>
  <path d="m697.5 302.8c16.1 0 29.9 3.3 41.4 9.8s20.3 15.8 26.2 27.8 8.9 26.2 8.9 42.4c0 12-1.6 22.9-4.9 32.7-3.2 9.8-8.1 18.3-14.6 25.5s-14.5 12.7-23.9 16.5c-9.5 3.8-20.3 5.7-32.5 5.7s-23-2-32.6-5.9-17.6-9.4-24-16.6c-6.4-7.1-11.3-15.7-14.5-25.7-3.3-10-4.9-20.8-4.9-32.5 0-11.6 1.7-22.9 5.1-32.8s8.4-18.4 14.9-25.4 14.4-12.3 23.7-16 19.9-5.6 31.8-5.6zm44.6 79.8c0-11.4-1.8-21.2-5.5-29.5s-8.9-14.6-15.7-18.9-14.6-6.4-23.4-6.4c-6.3 0-12.1 1.2-17.4 3.5-5.3 2.4-9.9 5.8-13.8 10.3-3.8 4.5-6.9 10.3-9.1 17.3s-3.3 14.9-3.3 23.7c0 8.7 1.1 16.8 3.3 23.9s5.4 13 9.4 17.7c4.1 4.7 8.7 8.2 14 10.5s11 3.5 17.3 3.5c8 0 15.4-2 22.2-6 6.7-4 12.1-10.2 16.1-18.6s6-18.7 6-31z" style="fill:#bd9aff;stroke:#fff"/>
  <path d="m318.2 711.2v-74.6c0-6.3 1.4-11.1 4.3-14.3s6.6-4.8 11.3-4.8c4.6 0 8.7 1.6 11.6 4.8s4.3 7.9 4.3 14.3v76.3c0 8.7 1 15.9 2.9 21.8 1.9 5.8 5.4 10.3 10.3 13.6 4.9 3.2 11.9 4.8 20.7 4.8 12.3 0 21-3.3 26-9.8 5.1-6.5 7.6-16.4 7.6-29.7v-76.9c0-6.4 1.4-11.2 4.2-14.3s6.6-4.7 11.3-4.7 8.6 1.6 11.5 4.7 4.4 7.9 4.4 14.3v74.6c0 12.1-1.2 22.3-3.5 30.4-2.4 8.1-6.8 15.2-13.4 21.4-5.6 5.2-12.2 9-19.7 11.4s-16.2 3.6-26.2 3.6c-11.9 0-22.2-1.3-30.8-3.9s-15.6-6.6-21.1-12c-5.4-5.4-9.4-12.3-12-20.7-2.5-8.4-3.8-18.5-3.8-30.2z" style="fill:#bd9aff;stroke:#fff"/>
 </g>
</svg>
