<?xml version="1.0" encoding="UTF-8"?>
<svg version="1.1" viewBox="0 0 192 192" xmlns="http://www.w3.org/2000/svg">
 <rect class="a" x="20" y="20" width="152" height="152" rx="10" style="fill:#83868c"/>
 <g transform="matrix(.78559 0 0 .78559 4.5293 5.1021)">
  <g transform="matrix(.5 0 0 .5 59 62)" fill="none" stroke="#faf6f0" style="fill:none;stroke:#fff">
   <path d="m43 69h142m0 46v-52c0-14.36-11.641-26-26-26h-90c-14.36 0-26 11.64-26 26v90c0 14.359 11.64 26 26 26h55" stroke-linecap="round" stroke-linejoin="round" stroke-miterlimit="12" stroke-width="12" style="fill:none;stroke:#fff"/>
   <path d="m103 110 10.999-11v43.428" stroke-linecap="round" stroke-linejoin="round" stroke-width="12" style="fill:none;stroke:#fff"/>
   <g stroke-width="8">
    <path d="m163.07 136.71c0 6.172 5.142 16.715 7.714 21.215 2.571-4.5 7.714-15.043 7.714-21.215 0-6.171-5.143-7.714-7.714-7.714-2.572 0-7.714 1.543-7.714 7.714z" style="fill:none;stroke:#fff"/>
    <path d="m178.5 186.86c0-6.171-5.143-16.714-7.714-21.214-2.572 4.5-7.714 15.043-7.714 21.214 0 6.172 5.142 7.715 7.714 7.715 2.571 0 7.714-1.543 7.714-7.715z" style="fill:none;stroke:#fff"/>
    <path d="m195.86 154.07c-6.171 0-16.714 5.142-21.214 7.714 4.5 2.571 15.043 7.714 21.214 7.714 6.172 0 7.715-5.143 7.715-7.714 0-2.572-1.543-7.714-7.715-7.714z" style="fill:none;stroke:#fff"/>
    <path d="m145.71 170.01c6.172 0 16.715-5.143 21.215-7.714-4.5-2.572-15.043-7.714-21.215-7.714-6.171 0-7.714 5.142-7.714 7.714 0 2.571 1.543 7.714 7.714 7.714z" style="fill:none;stroke:#fff"/>
    <path d="m194.77 174.86c-4.364-4.364-15.456-8.182-20.456-9.546 1.364 5 5.182 16.092 9.546 20.456s9.091 1.818 10.91 0c1.818-1.819 4.364-6.546 0-10.91z" style="fill:none;stroke:#fff"/>
    <path d="m146.8 149.22c4.364 4.364 15.455 8.182 20.456 9.546-1.364-5.001-5.183-16.092-9.546-20.456-4.364-4.364-9.092-1.818-10.91 0s-4.364 6.546 0 10.91z" style="fill:none;stroke:#fff"/>
    <path d="m183.86 138.31c-4.364 4.364-8.182 15.455-9.546 20.456 5-1.364 16.092-5.182 20.456-9.546s1.818-9.092 0-10.91c-1.819-1.818-6.546-4.364-10.91 0z" style="fill:none;stroke:#fff"/>
    <path d="m157.71 185.77c4.363-4.364 8.182-15.456 9.546-20.456-5.001 1.364-16.092 5.182-20.456 9.546s-1.818 9.091 0 10.91c1.818 1.818 6.546 4.364 10.91 0z" style="fill:none;stroke:#fff"/>
   </g>
   <path d="m170.79 169c3.984 0 7.214-3.23 7.214-7.214s-3.23-7.214-7.214-7.214-7.214 3.23-7.214 7.214 3.23 7.214 7.214 7.214z" fill="#faf6f0" stroke="none" style="fill:none;stroke:#fff"/>
  </g>
 </g>
</svg>
