<?xml version="1.0" encoding="UTF-8"?><svg id="a" xmlns="http://www.w3.org/2000/svg" width="192" height="192" viewBox="0 0 192 192"><g id="b"/><g id="c"><g id="d"><path d="M184,96.39c-.19,48.61-39.83,87.81-88.39,87.61-48.55-.19-87.81-39.78-87.61-88.39C8.19,47,47.83,7.81,96.39,8c48.65,.19,87.81,39.78,87.61,88.39Z" style="fill:#728dbe;"/><g><path d="M96,136c22.09,0,40-17.91,40-40s-17.91-40-40-40-40,17.91-40,40,17.91,40,40,40Z"/><path d="M96,136c22.09,0,40-17.91,40-40s-17.91-40-40-40-40,17.91-40,40,17.91,40,40,40Zm0-8.96c17.14,0,31.04-13.9,31.04-31.04s-13.9-31.04-31.04-31.04-31.04,13.9-31.04,31.04,13.9,31.04,31.04,31.04Z" style="fill:#ececec; fill-rule:evenodd;"/><path d="M96,127.04c17.14,0,31.04-13.9,31.04-31.04s-13.9-31.04-31.04-31.04-31.04,13.9-31.04,31.04,13.9,31.04,31.04,31.04Z" style="fill:#54688c;"/><path d="M96,116.28c11.2,0,20.28-9.08,20.28-20.28s-9.08-20.28-20.28-20.28-20.28,9.08-20.28,20.28,9.08,20.28,20.28,20.28Z" style="fill:#728dbe;"/><path d="M106.42,96c0,5.75-4.67,10.42-10.42,10.42s-10.42-4.67-10.42-10.42,4.67-10.42,10.42-10.42,10.42,4.67,10.42,10.42Z" style="fill:#56595b;"/></g></g></g></svg>