<svg xmlns="http://www.w3.org/2000/svg" width="192" height="192"><rect width="153" height="153" x="19.5" y="19.5" ry="10.066" style="opacity:1;vector-effect:none;fill:#56595b;fill-opacity:1;stroke-width:4.02631569;paint-order:stroke fill markers"/><path d="M65 107h62.135v30H65z" style="opacity:1;vector-effect:none;fill:#54688c;fill-opacity:1;paint-order:stroke fill markers"/><path d="M90 121s8.14-.103 12 1c7 2 14 8 14 8l-5 8-26-2 1-15z" style="fill:#f1e9e0"/><path d="m86 121-.172 2.586L83 125l16 11s2-4-1.706-7.712c-1.099-.837 0 0-1.294-1.288 1.777-.251 3.205-2 5-2 6 7 9 9 9 9l4.893-4.893c-2.196-1.718-7.504-5.567-12.893-7.107-3.86-1.103-12-1-12-1Z" style="fill:#9abeff"/><path d="m102 120-1 1s2 5 3 9c.542 2.17-3 5-8 5-5.548 0-10-14-10-14l-1 22-20.936 29.5h46.358c-1.188-3.166-4.026-11.86-3.223-21.5.347-4.162 5.801-4 5.801-11s-4.422-6.93-6-9c-2.442-3.203-5-11-5-11z" style="opacity:1;fill:#8c72bd"/><path d="m102 120-1 1s2 5 3 9c.24.956-.318 2.039-1.441 2.953 1.36-.136 6.69-.456 8.441 3.047.745 1.49.527 3.419 0 5-1 3-2.866 4-5 4-2 0-3-2-5-2H90l-11 19 8-8c3-1 5 0 5 0s1 2.1 4 2.1 5-1.1 5-1.1l3-1s-1 3-1 11v7.5h6.885c-1.084-4.555-3.16-15.82-2.686-21.5.347-4.162 5.801-4 5.801-11s-4.422-6.93-6-9c-2.442-3.203-5-11-5-11zm-18 41s-5 6-15 10c-1.173-1.173-1.306-2.677-1.223-3.73l-3.713 5.23h13.504C82.146 168.373 84 161 84 161z" style="fill:#54688c"/><path d="m72 89-1 11s-2 1-2 8c0 16 27 14 27 14s27 2 27-14c0-7-2-8-2-8l-1-11H72z" style="opacity:1;fill:#f1e9e0"/><path d="M77 91c-1 3-5 3-5 3h-.455L71 100s-1.344.736-1.822 4.89c.9-.57 9.749-5.89 26.822-5.89 16.183 0 25.914 5.378 26.822 5.9-.477-4.163-1.822-4.9-1.822-4.9l-.545-6H120s-4 0-5-3h-10v2H87v-2H77z" style="fill:#9abeff"/><path d="M80 103c-2 0-4-1-4-1s-1.88-.264-2-1c-.076-.465 1-1 1-1v-1s-2-.255-2-1 2-1 2-1 0-8 6-8c10 0 11 4 11 4s-1 10-12 10z" style="opacity:1;fill:#4a4a4a"/><path d="M80 103s-4 0-4-5c0-3.145 1.855-8 5-8 11 0 11 3 11 3v7c0 3-4 3-4 3z" style="opacity:1;fill:#fff"/><rect width="6" height="10" x="86" y="89" ry="3" style="opacity:1;vector-effect:none;fill:#4a4a4a;fill-opacity:1;paint-order:stroke fill markers"/><path d="M73.914 31.947C63.046 31.903 63 47 63 47s5-4 11-4c3.683 0 5.727 2.163 6.555 3.307C57.702 53.293 44 74.589 44 87c0 8.233 9 23 9 23s-3 8-3 16c0 16 8 22 17 22 10 0 18-7 18-13 0-8-3-11-3-11s-3.205 2-5 2c-6 0-6-11.675-6-18 0-11 1-14 1-14s4 0 5-3h10v2h18v-2h10c1 3 5 3 5 3s1 3 1 14c0 6.325 0 18-6 18-1.795 0-5-2-5-2s-3 3-3 11c0 6 8 13 18 13 9 0 17-6 17-22 0-8-3-16-3-16s9-14.767 9-23c0-15-20-43-52-43a53.3 53.3 0 0 0-8.078.623C87.538 42.81 84.999 32.909 75 32a12.56 12.56 0 0 0-1.086-.053z" style="opacity:1;fill:#ffd6d4"/><path d="M129.418 161.9c-1.692-.03-3.357.44-4.418 1.5-4 4-8 7.6-8 7.6l1.5 1.5h16.875l.625-.5c2.4-1.92.397-6.677-2-8.6-1.17-.938-2.89-1.47-4.582-1.5z" style="fill:#54688c"/><path d="M112 103c2 0 4-1 4-1s1.88-.264 2-1c.075-.465-1-1-1-1v-1s2-.255 2-1-2-1-2-1 0-8-6-8c-10 0-11 4-11 4s1 10 12 10z" style="opacity:1;fill:#4a4a4a"/><path d="M112 103s4 0 4-5c0-3.145-1.855-8-5-8-11 0-11 3-11 3v7c0 3 4 3 4 3z" style="opacity:1;fill:#fff"/><path d="M112.664 133.684c-.602-.028-1.164.066-1.664.316-4.134 16.534-6.338 30.994-7.328 38.5h18.303c-.991-4.36-1.975-10.049-1.975-15.5.007-5.754 3-17 3-17s-6.125-6.125-10.336-6.316z" style="fill:#f1e9e0"/><path d="M110.744 135.053a348.21 348.21 0 0 0-4.553 21.486c.48-1.216 3.086-7.539 5.809-7.539 4 0 8 10 8 10l.041-.111A48.687 48.687 0 0 1 120 157c.007-5.754 3-17 3-17s-.841-.819-2.05-1.842l-10.206-3.105z" style="fill:#9abeff"/><rect width="6" height="10" x="-106" y="89" ry="3" style="opacity:1;vector-effect:none;fill:#4a4a4a;fill-opacity:1;paint-order:stroke fill markers" transform="scale(-1 1)"/><path d="M94 44s-4 3-4 6c3-4 6-5 6-5s3 1 6 5c0-3-4-6-4-6h-4zM68 62s-7 5-10 13c-3.619-.724-6.69-3.525-8.123-5.027C46.052 76.084 44 82.206 44 87c0 8.233 9 23 9 23s3.317-20.161 6-30c3-11 9-18 9-18zm56 0s6 7 9 18c2.683 9.839 6 30 6 30s9-14.767 9-23c0-4.794-2.052-10.916-5.877-17.027C140.69 71.475 137.62 74.276 134 75c-3-8-10-13-10-13zm-48 6s-5 1-6 7c-.55 3.304-1 10-1 10s0 6-3 9c-2-1-2-4-2-4s-.985 6.65-1 10c-.017 3.682 1 11 1 11s0-4 2-5c1 4 .601 4.606 1 7 2 12 7 16 7 16s-7 0-14-15c1 17 5 20 5 20s-7-1-12-9c2.821 15.986 10.853 22.171 11.813 22.861A19.09 19.09 0 0 0 67 148c10 0 18-7 18-13 0-8-3-11-3-11s-3.205 2-5 2c-6 0-6-11.675-6-18 0-11 1-14 1-14s4 0 5-3h10v2h18v-2h10c1 3 5 3 5 3s1 3 1 14c0 6.325 0 18-6 18-1.795 0-5-2-5-2s-3 3-3 11c0 6 8 13 18 13 .739 0 1.466-.056 2.188-.139.959-.69 8.991-6.875 11.812-22.861-5 8-12 9-12 9s4-3 5-20c-7 15-14 15-14 15s5-4 7-16c.399-2.394 0-3 1-7 2 1 2 5 2 5s1.017-7.318 1-11c-.015-3.35-1-10-1-10s0 3-2 4c-3-3-3-9-3-9s-.45-6.696-1-10c-1-6-6-7-6-7s1.804 3.02 2 4c1 5 0 11 0 11s0 2-2 2h-9s0-5-2-11c1 9 0 11 0 11s0 2-2 2H89c-2 0-2-2-2-2s-1-2 0-11c-2 6-2 11-2 11h-9c-2 0-2-2-2-2s-1-6 0-11c.196-.98 2-4 2-4z" style="opacity:1;fill:#bd9aff"/><path d="M73 93.924c-.313.044-.64.076-1 .076l-1 6s-2 1-2 8c0 3.88 1.595 6.694 4 8.742V93.924z" style="opacity:1;fill:#f1e9e0"/><path d="M106.018 117.25s-2.52-.18-4.71 1.057c-1.364.77-3.328.943-3.328.943a.25.25 0 1 0 .04.498s2.023-.153 3.535-1.006c2.027-1.144 4.427-.994 4.427-.994a.25.25 0 1 0 .036-.498z" style="color:#000;font-style:normal;font-variant:normal;font-weight:400;font-stretch:normal;font-size:medium;line-height:normal;font-family:sans-serif;font-variant-ligatures:normal;font-variant-position:normal;font-variant-caps:normal;font-variant-numeric:normal;font-variant-alternates:normal;font-feature-settings:normal;text-indent:0;text-align:start;text-decoration:none;text-decoration-line:none;text-decoration-style:solid;text-decoration-color:#000;letter-spacing:normal;word-spacing:normal;text-transform:none;writing-mode:lr-tb;direction:ltr;text-orientation:mixed;dominant-baseline:auto;baseline-shift:baseline;text-anchor:start;white-space:normal;shape-padding:0;clip-rule:nonzero;display:inline;overflow:visible;visibility:visible;opacity:1;isolation:auto;mix-blend-mode:normal;color-interpolation:sRGB;color-interpolation-filters:linearRGB;solid-color:#000;solid-opacity:1;vector-effect:none;fill:#4a4a4a;fill-opacity:1;fill-rule:nonzero;stroke:none;stroke-width:.5;stroke-linecap:round;stroke-linejoin:round;stroke-miterlimit:4;stroke-dasharray:none;stroke-dashoffset:0;stroke-opacity:1;color-rendering:auto;image-rendering:auto;shape-rendering:auto;text-rendering:auto;enable-background:accumulate"/><path d="M93 104s1-2 3-2 3 2 3 2-1-1-3-1-3 1-3 1z" style="fill:#4a4a4a"/><path d="M67.975 33.98C63.03 38.09 63 47 63 47s3.609-2.875 8.37-3.746c-.67-.826-1.715-2.29-2.37-4.254-.694-2.083-.947-3.803-1.025-5.02zm16.45 3.18C83.908 38.4 82.923 40.078 81 42c-1.07 1.07-2.417 1.56-3.447 1.791a7.865 7.865 0 0 1 2.986 2.522 52.136 52.136 0 0 1 7.379-1.69c-.187-.891-1.015-4.304-3.492-7.463z" style="fill:#bd9aff"/><path d="M119 93.924c.313.044.64.076 1 .076l1 6s2 1 2 8c0 3.88-1.595 6.694-4 8.742z" style="opacity:1;fill:#f1e9e0"/><path d="M73 93.924c-.106.015-.228.014-.338.025C72.261 94 72 94 72 94l-1 6s-1.337.736-1.818 4.865l-.004.026c.309-.196 1.627-.965 3.822-1.873v-9.094zm46 0v9.209c2.16.87 3.52 1.594 3.822 1.767-.477-4.163-1.822-4.9-1.822-4.9l-1-6s-.26-.002-.662-.05c-.11-.012-.232-.011-.338-.026z" style="fill:#9abeff"/><path d="M71.5 102c-.706 0-1.358.212-1.906.568-.329 1.19-.588 2.897-.592 5.383A3.485 3.485 0 0 0 71.5 109h3c1.939 0 3.5-1.561 3.5-3.5s-1.561-3.5-3.5-3.5h-3z" style="opacity:1;vector-effect:none;fill:#ff837d;fill-opacity:1;paint-order:stroke fill markers"/><path d="M78 115c0-3 2-5 4-5 2.404 0 6 1 6 6 0 2-1 3-1 3s-6 1.728-6-.3c0-2-3-1.7-3-3.7z" style="fill:#9abeff"/><path d="M68 146c-3 0-4.825 6.506-4 10 .922 3.906 4 8 9 8 9.69 0 19-22 19-22h3s4 0 4-4v-5s0-4-5-6c-2.495-.998-7-4-7-4v-8c0-2-2.869-4.118-5-4-1.883.104-4 2.114-4 4 0 1.414 3 1 3 3v5l-5 13s-1.486 6.888-4 9c-1.052.884-2.626 1-4 1z" style="fill:#f1e9e0"/><path d="M120.5 102c.706 0 1.358.212 1.906.568.329 1.19.588 2.897.592 5.383A3.485 3.485 0 0 1 120.5 109h-3a3.492 3.492 0 0 1-3.5-3.5c0-1.939 1.561-3.5 3.5-3.5z" style="opacity:1;vector-effect:none;fill:#ff837d;fill-opacity:1;paint-order:stroke fill markers"/><path d="M91 132c-2.236 0-3.769.694-5 2-1.446 1.534-2 4-2 6s-6 8-10 8c-1.153 0-2.583-1.406-3.38-2.291-.836.246-1.766.291-2.62.291-3 0-4.825 6.506-4 10 .922 3.906 4 8 9 8 9.69 0 19-22 19-22h3s4 0 4-4v-4s-1-2-8-2z" style="fill:#9abeff"/><path d="M92 142s2-2.51 2-4c0-2-3-3-3-3s2 1 2 3c0 1.374-1 4-1 4z" style="fill:#54688c"/></svg>