<svg xmlns="http://www.w3.org/2000/svg" xml:space="preserve" width="192" height="192"><rect width="152" height="152" x="20" y="20" fill="#8c72bd" rx="9.935"/><path fill="none" stroke="#ff837d" stroke-width="1.502" d="M89.223 82.205h13.553c.324 0 .634.54.863 1.499.229.959.358 2.261.358 3.617v42.571c0 1.357-.129 2.659-.358 3.618-.229.96-.54 1.499-.863 1.499H89.223c-.214 0-.425-.237-.61-.686-.186-.449-.34-1.095-.447-1.872a19.154 19.154 0 0 1-.164-2.559v-42.57c0-.899.057-1.781.164-2.559.107-.778.261-1.423.447-1.873.185-.448.396-.685.61-.685zM96 73.004v7.92"/><path fill="none" stroke="#ff837d" stroke-width="1.201" d="M94.5 76.01c-8.933 0 .736-12.249 1.5-19.709M97.5 76.01c8.933 0-.736-12.249-1.5-19.709"/></svg>