<svg xmlns="http://www.w3.org/2000/svg" xml:space="preserve" id="Layer_1" x="0" y="0" style="enable-background:new 0 0 192 192" version="1.1" viewBox="0 0 192 192"><style>.st1{fill:#ff837d}</style><path d="M29.5 19.6h133c5.5 0 10 4.5 10 10v133c0 5.5-4.5 10-10 10h-133c-5.5 0-10-4.5-10-10v-133c0-5.5 4.5-10 10-10z" style="fill:#fff"/><path d="M166 130.9c-.4.4-.9.5-1.5.5h-28.6c-1.1 0-1.4-.3-1.4-1.3v-3.4c0-.9.3-1.2 1.2-1.2.9 0 1.8 0 2.7-.1 1.6-.2 2.3-1.2 1.8-2.7-1.1-3.6-2.3-7.1-3.4-10.7-.1-.4-.4-.6-.8-.6h-22.1c-.4 0-.6.1-.8.5-1.3 3.1-2.5 6.2-3.8 9.4-.2.5-.3 1-.4 1.6-.2 1.3.4 2.2 1.7 2.4 1.3.2 2.6.2 3.9.2 1.1 0 1.3.2 1.3 1.4v3.5c0 .8-.3 1.1-1.1 1.1H95c-.7 0-1.1-.3-1.1-1v-3.9c0-.7.4-1 1.1-1.1.9-.1 1.8-.1 2.6-.2 1.7-.2 2.8-1.2 3.4-2.7 2.7-6.5 5.4-13 8.1-19.4 4.2-9.9 8.3-19.9 12.5-29.8l4.8-11.4c.6-1.4.8-1.5 2.2-1.5h7.1c1.3 0 1.5.2 1.9 1.3 3.7 10.5 7.4 21 11.1 31.6 3.4 9.5 6.7 19.1 10.1 28.6.1.3.2.5.3.8.7 1.8 2 2.6 3.9 2.6.5 0 1 .1 1.5 0 .6 0 1.1.1 1.4.5.1 1.7.1 3.4.1 5zm-39.2-52.2c-.1 0-.2 0-.2-.1-3.7 9.1-7.3 18.1-11 27.3h19.5c-2.8-9.1-5.6-18.2-8.3-27.2zM27 92.9c.1-1.1.3-2.1.4-3.2 1.2-8.8 4.4-16.5 11.2-22.5 4-3.5 8.7-5.7 14-6.7 4-.8 8-.8 12-.2 2.3.4 4.6 1.1 6.7 2.1.4.2.8.4 1.3.5 1.3.4 2.3 0 2.8-1.3.5-1.1 1.1-1.4 2.3-1.3 1 .1 1.9 0 2.9 0s1.2.3 1.2 1.3v17.6c0 1-.2 1.2-1.3 1.2h-3.4c-1.1 0-1.2-.1-1.5-1.3-.5-1.8-.9-3.7-1.5-5.5-1.2-3.3-3.3-5.8-6.7-6.9-3.2-1-6.4-1.4-9.6-.2-2.8 1.1-4.7 3.2-6.2 5.7-1.9 3.2-3 6.8-3.8 10.5-.7 3.5-1.2 7.2-1.1 10.8.1 4.1.3 8.3.7 12.4.3 3.4 1 6.8 2.2 10 1 2.6 2.2 4.9 4.2 6.9 2.9 2.8 6.4 3.5 10.3 3.1 1.9-.2 3.7-.6 5.5-1.5 2.6-1.4 4.3-3.5 5.2-6.2.7-1.9 1.1-3.9 1.5-5.8.2-.9.4-1.1 1.3-1.1h3.7c.9 0 1.1.3 1.1 1.2v17.7c0 .9-.3 1.1-1.1 1.1h-3.9c-.5 0-.9-.2-1.1-.7-.6-1.1-1.2-1.4-2.5-1.1-1.9.4-3.8 1-5.7 1.4-7.8 1.5-15.5 1.4-22.8-2.1-6.1-2.9-10.5-7.5-13.6-13.4-2.6-4.9-4-10.1-4.4-15.5 0-.3-.1-.7-.2-1-.1-1.8-.1-3.9-.1-6z" class="st1"/><path d="M93.2 92c1.3 1.9 2.5 3.7 3.8 5.6.2-.3.4-.4.5-.6 1-1.5 1.8-3.1 2.3-4.8.2-.6.5-.8 1.1-.8h5.7c.7 0 .8.2.6.8-.1.3-.2.5-.3.7-.3.9-.7 1.4-1.8 1.3-.7-.1-1.1.4-1.5.9-1.2 1.7-2.3 3.3-3.5 5-.2.3-.5.6-.8.9.9 1.3 2.1 2 3.7 2.1h1.2c.5 0 .6.2.4.7-.2.6-.5 1.2-.7 1.7-.1.2-.4.4-.6.4-1.8 0-3.7.3-5.5-.4-.6-.2-1.1-.5-1.6-.8-.4-.3-.6-.3-1 0-3.8 2.3-7.7 2.5-11.7.7-5-2.3-5.6-8.3-1.3-11.9.9-.7 2-1.2 3.1-1.8.2-.1.4-.2.7-.3-.2-.3-.4-.6-.5-.8-2.7-4.2-.7-9 4.2-10.1 2.2-.5 4.4-.5 6.5.6 3.3 1.7 4 5.8 1.3 8.3-1 .9-2.2 1.5-3.3 2.2-.4.1-.6.2-1 .4zm-5.5 1.9c-1.3.6-2.4 2.1-2.7 3.9-.5 2.4.4 4.9 2.8 5.6 1.9.6 3.5.2 5-1.2.4-.4.5-.7.1-1.2l-3.3-4.5c-.6-.8-1.3-1.7-1.9-2.6zm6.5-8.7v-.3c0-1.4-.8-2.4-1.9-2.5-1.4-.1-2.4.7-2.7 2.1-.3 1.8.5 3.3 1.5 4.8.1.1.4.1.6 0 1.6-.9 2.5-2.2 2.5-4.1z" class="st1"/></svg>