<?xml version="1.0" encoding="UTF-8"?>
<svg version="1.1" viewBox="0 0 192 192" xmlns="http://www.w3.org/2000/svg" xmlns:xlink="http://www.w3.org/1999/xlink">
 <defs>
  <linearGradient id="linearGradient2" x1="172" x2="19.5" y1="172" y2="19.5" gradientUnits="userSpaceOnUse">
   <stop style="stop-color:#bd9aff" offset="0"/>
   <stop style="stop-color:#9abeff" offset="1"/>
  </linearGradient>
 </defs>
 <circle cx="96" cy="96" r="88" style="fill-rule:evenodd;fill:url(#linearGradient2)"/>
 <path d="m52.075 104.58q-1.0321-2.636-1.0321-5.8065 0-3.1712 0.84801-6.1569 0.84801-2.9871 2.3961-5.4009 1.5488-2.4152 3.5945-4.2216 2.0464-1.8248 4.572-2.8201 2.5249-0.99595 5.1985-0.99595 3.5945 0 5.769 1.6408 2.1944 1.6408 2.1944 3.9074 0 1.5304-1.4016 2.6-1.3824 1.0505-2.9673 1.0505-0.51673 0-0.86641-0.16564-0.35039-0.18404-0.35039-0.46081 0-0.12954 0.18404-0.31358 0.51673-0.3872 0.84801-1.1064 0.33198-0.71847 0.33198-1.5297 0-1.788-1.1064-2.7833-1.0873-0.99595-2.9673-0.99595-1.3272 0-2.876 0.66397-1.5481 0.66326-3.1521 2.1016-1.5856 1.4192-2.8753 3.3913-1.272 1.9537-2.1023 4.8297-0.81049 2.876-0.81049 6.1569 0 5.2353 2.6729 8.5721 2.6913 3.3552 6.765 3.3552 2.5808 0 5.3648-0.88481 2.7833-0.86713 4.2946-2.1391 0.25837-0.25766 0.57195-0.25766 0.22085 0 0.36808 0.22085 0.14794 0.22156 0.14794 0.53443 0 1.0512-0.73758 2.0096-0.73758 0.97684-2.1377 1.7512-1.3831 0.7744-3.7056 1.18t-5.1985 0.29446q-2.5992-0.12883-4.9217-1.1241-2.3041-0.99595-4.0921-2.7465-1.7696-1.7328-2.8208-4.3505z" style="fill:#fff"/>
 <path d="m81.09 95.14q0.09202-0.29447 0.57124-0.29447 0.49762-0.0184 1.1248 0.22085 0.62645 0.22156 1.2352 0.53443 0.60805 0.31358 0.99524 0.66397 0.3872 0.33199 0.33198 0.53443-0.8112 2.876-0.7928 4.5897 0.0184 1.696 0.71847 1.936 0.66397 0.20244 1.6224-0.4056 0.95844-0.62646 1.6224-1.5113 0.34968-0.46153 0.44241-0.49833 0.09202-0.0552 0.34968 0.16634 0.25837 0.23926 0.3872 0.66326 0.12954 0.4056-0.07362 0.7928-1.1425 1.604-2.6176 2.6176-1.4745 1.0136-2.9305 1.0136-1.5672 0-2.6176-1.3272-1.0328-1.3449-1.1984-3.6497-2.6176 4.9769-5.6593 4.9769-2.1752 0-3.2073-2.3041-1.0136-2.3225-0.16564-5.9177 0.424-1.8617 1.2713-3.4097 0.86641-1.5672 1.936-2.6176 1.0689-1.0505 2.3225-1.7696 1.2536-0.73758 2.4704-1.0505 1.2161-0.33269 2.3784-0.33269 2.1377 0 3.3906 0.94145 1.2727 0.93932 1.18 2.3034-0.05521 1.1248-0.84801 1.788-0.7928 0.64556-2.212 0.62716-1.4008-0.0368-2.5065-0.71918-0.49762-0.33199-0.31358-0.44241 0.95844-0.46011 1.272-1.0689 0.33198-0.62716 0-1.0512-0.31358-0.424-1.0505-0.424-1.4016 0-2.8208 1.6776t-2.1568 4.4057q-0.66326 2.5808-0.49762 4.3689 0.18404 1.788 1.0512 1.788 1.0689 0 2.3409-1.696 1.2904-1.7144 2.2673-4.7561z" style="fill:#fff"/>
 <path d="m102.53 106.16q-1.7328 0-2.7649-1.1609-1.0321-1.18-1.18-3.6313-0.14723-2.452 1.0328-6.2312 0.16564-0.53443 0.42401-1.2345 0.27606-0.71918 0.44241-1.1616 0.16563-0.46081 0.27606-0.88482 0.11113-0.44241 0-0.64556-0.11043-0.22085-0.46011-0.22085-0.66396 0-1.6967 1.1432-1.0321 1.1241-2.1745 3.0409-1.1248 1.8992-2.3232 4.664-1.1793 2.7649-2.0825 5.7513 0.05521 0.0736-0.09202 0.22085-0.14794 0.12953-0.51674 0.23996-0.36808 0.11042-0.8296 0.11042-1.9721 0-1.9169-2.5249 0.01841-0.59035 0.66397-5.2537 0.66326-4.6825 0.66326-6.3049 0-0.62645-0.09202-1.0505-0.09202-0.44241-0.18404-0.62645-0.07433-0.18404-0.07433-0.20316 0-0.11042 0.29518-0.29447 0.31358-0.20316 0.84801-0.36879 0.53443-0.16635 1.0505-0.16635 1.272 0 1.9537 0.62716 0.68237 0.62645 0.84872 2.0825 0.16564 1.4384-0.42471 3.816 3.5216-7.1338 6.6921-7.1338 2.4881 0 3.1705 1.8985 0.68166 1.8801-0.23996 5.7697-0.77369 3.5209-0.8112 5.0697-0.0184 1.5297 0.70077 1.788 0.75599 0.22085 1.6592-0.31358 0.92163-0.53443 1.6592-1.5665 0.34968-0.46153 0.4424-0.49833 0.092-0.0552 0.34969 0.16634 0.25836 0.23926 0.38719 0.66326 0.12954 0.42471-0.0736 0.82961-2.636 3.5945-5.6225 3.5945z" style="fill:#fff"/>
 <path d="m112.34 102.96q0.68166 0 1.8616-0.94003 1.1793-0.95843 2.212-2.5256-1.2536-0.7744-1.8808-2.3041-0.62645-1.5488-0.57124-3.1712 0.0736-2.3961 1.088-3.8153 1.0136-1.4377 2.4881-1.4377 2.2305 0 3.208 2.028 0.99525 2.0273 0.14724 5.5114-0.22156 0.90322-0.55284 1.7144 1.4929-0.40561 3.2066-3.2441 0.51673-0.7928 0.79279-0.55355 0.29518 0.22156 0.0743 0.92163-1.6776 4.6825-5.1433 4.9776-1.6217 2.6544-4.0185 4.3498-2.3961 1.696-4.4241 1.696-1.7328 0-2.636-1.3088-0.88482-1.3088-0.81121-3.7417 0.0368-1.1984 0.31358-4.0185 0.29518-2.8208 0.29518-4.6272 0-0.62645-0.092-1.1609-0.0743-0.53514-0.16635-0.8112-0.0736-0.27606-0.0736-0.29518 0-0.11042 0.35039-0.29447 0.36809-0.20316 0.95844-0.36879 0.58964-0.16635 1.1057-0.16635 1.2904 0 1.9728 0.64556 0.68166 0.62645 0.8296 2.12 0.14724 1.4929-0.46081 3.9442-0.4056 1.696-0.62716 2.968-0.22085 1.2536-0.23925 2.1384t0.16563 1.3272q0.20316 0.4424 0.62716 0.4424zm4.1841-10.047q0 2.8208 1.1248 4.1848 0.44241-1.1609 0.71847-2.4152 0.44241-2.1936 0.23996-3.4097-0.18404-1.2175-0.92162-1.2175-0.47922 0-0.82961 0.7567-0.33198 0.73688-0.33198 2.1009z" style="fill:#fff"/>
 <path d="m132.3 95.14q0.092-0.29447 0.57124-0.29447 0.49762-0.0184 1.1241 0.22085 0.62716 0.22156 1.2352 0.53443 0.60875 0.31358 0.99595 0.66397 0.38649 0.33199 0.33128 0.53443-0.81121 2.876-0.7928 4.5897 0.0184 1.696 0.71918 1.936 0.66397 0.20244 1.6224-0.4056 0.95844-0.62646 1.6217-1.5113 0.35039-0.46153 0.44241-0.49833 0.092-0.0552 0.35039 0.16634 0.25836 0.23926 0.38719 0.66326 0.12883 0.4056-0.0736 0.7928-1.1432 1.604-2.6176 2.6176-1.4745 1.0136-2.9305 1.0136-1.5672 0-2.6184-1.3272-1.032-1.3449-1.1977-3.6497-2.6176 4.9769-5.6593 4.9769-2.1752 0-3.2073-2.3041-1.0144-2.3225-0.16634-5.9177 0.42471-1.8617 1.272-3.4097 0.86642-1.5672 1.936-2.6176 1.0689-1.0505 2.3218-1.7696 1.2543-0.73758 2.4704-1.0505 1.2175-0.33269 2.3784-0.33269 2.1377 0 3.3913 0.94145 1.272 0.93932 1.18 2.3034-0.0552 1.1248-0.84801 1.788-0.7928 0.64556-2.212 0.62716-1.4008-0.0368-2.5065-0.71918-0.49833-0.33199-0.31358-0.44241 0.95844-0.46011 1.272-1.0689 0.33127-0.62716 0-1.0512-0.31358-0.424-1.0512-0.424-1.4008 0-2.8201 1.6776t-2.1568 4.4057q-0.66326 2.5808-0.49762 4.3689 0.18404 1.788 1.0505 1.788 1.0689 0 2.3416-1.696 1.2904-1.7144 2.2673-4.7561z" style="fill:#fff"/>
</svg>
