<svg xmlns="http://www.w3.org/2000/svg" width="192" height="192"><circle cx="96" cy="96" r="88" style="fill:#73ada4;fill-rule:evenodd;stroke:none;fill-opacity:1"/><path d="M33.946 108.119q-1.458-3.724-1.458-8.203 0-4.48 1.198-8.698 1.198-4.22 3.385-7.63 2.188-3.412 5.078-5.964 2.891-2.578 6.459-3.984 3.567-1.407 7.344-1.407 5.078 0 8.15 2.318 3.1 2.318 3.1 5.52 0 2.162-1.98 3.673-1.953 1.484-4.192 1.484-.73 0-1.224-.234-.495-.26-.495-.651 0-.183.26-.443.73-.547 1.198-1.563.469-1.015.469-2.161 0-2.526-1.563-3.932-1.536-1.407-4.192-1.407-1.875 0-4.063.938-2.187.937-4.453 2.969-2.24 2.005-4.062 4.791-1.797 2.76-2.97 6.823-1.145 4.063-1.145 8.698 0 7.396 3.776 12.11 3.802 4.74 9.557 4.74 3.646 0 7.579-1.25 3.932-1.225 6.067-3.022.365-.364.808-.364.312 0 .52.312.209.313.209.755 0 1.485-1.042 2.839-1.042 1.38-3.02 2.474-1.954 1.094-5.235 1.667-3.281.573-7.344.416-3.672-.182-6.953-1.588-3.255-1.407-5.781-3.88-2.5-2.448-3.985-6.146z" style="font-style:normal;font-variant:normal;font-weight:400;font-stretch:normal;font-size:53.33333206px;line-height:1.25;font-family:&quot;Elixir Brush&quot;;-inkscape-font-specification:&quot;Elixir Brush&quot;;letter-spacing:0;word-spacing:0;fill:#fff;fill-opacity:1;stroke:none"/><path d="M74.936 94.785q.13-.416.807-.416.703-.026 1.589.312.885.313 1.745.755.859.443 1.406.938.547.469.469.755-1.146 4.063-1.12 6.484.026 2.396 1.015 2.735.938.286 2.292-.573 1.354-.885 2.292-2.135.494-.652.625-.704.13-.078.494.235.365.338.547.937.183.573-.104 1.12-1.614 2.266-3.698 3.698-2.083 1.432-4.14 1.432-2.214 0-3.698-1.875-1.459-1.9-1.693-5.156-3.698 7.031-7.995 7.031-3.073 0-4.531-3.255-1.432-3.281-.234-8.36.599-2.63 1.796-4.817 1.224-2.214 2.735-3.698 1.51-1.484 3.281-2.5 1.771-1.042 3.49-1.484 1.718-.47 3.36-.47 3.02 0 4.79 1.33 1.798 1.327 1.667 3.254-.078 1.589-1.198 2.526-1.12.912-3.125.886-1.979-.052-3.541-1.016-.703-.469-.443-.625 1.354-.65 1.797-1.51.469-.886 0-1.485-.443-.599-1.484-.599-1.98 0-3.985 2.37t-3.047 6.224q-.937 3.646-.703 6.172.26 2.526 1.485 2.526 1.51 0 3.307-2.396 1.823-2.422 3.203-6.719z" style="font-style:normal;font-variant:normal;font-weight:400;font-stretch:normal;font-size:53.33333206px;line-height:1.25;font-family:&quot;Elixir Brush&quot;;-inkscape-font-specification:&quot;Elixir Brush&quot;;letter-spacing:0;word-spacing:0;fill:#fff;fill-opacity:1;stroke:none"/><path d="M105.222 110.358q-2.448 0-3.906-1.64-1.458-1.667-1.667-5.13-.208-3.464 1.459-8.803.234-.755.599-1.744.39-1.016.625-1.641.234-.651.39-1.25.157-.625 0-.912-.156-.312-.65-.312-.938 0-2.397 1.615-1.458 1.588-3.072 4.296-1.589 2.683-3.282 6.589-1.666 3.906-2.942 8.125.078.104-.13.312-.209.183-.73.339-.52.156-1.172.156-2.786 0-2.708-3.567.026-.834.938-7.422.937-6.615.937-8.907 0-.885-.13-1.484-.13-.625-.26-.885-.105-.26-.105-.287 0-.156.417-.416.443-.287 1.198-.521.755-.235 1.484-.235 1.797 0 2.76.886.964.885 1.199 2.942.234 2.032-.6 5.391 4.975-10.078 9.454-10.078 3.515 0 4.479 2.682.963 2.656-.339 8.151-1.093 4.974-1.146 7.162-.026 2.161.99 2.526 1.068.312 2.344-.443 1.302-.755 2.344-2.213.494-.652.625-.704.13-.078.494.235.365.338.547.937.183.6-.104 1.172-3.724 5.078-7.943 5.078z" style="font-style:normal;font-variant:normal;font-weight:400;font-stretch:normal;font-size:53.33333206px;line-height:1.25;font-family:&quot;Elixir Brush&quot;;-inkscape-font-specification:&quot;Elixir Brush&quot;;letter-spacing:0;word-spacing:0;fill:#fff;fill-opacity:1;stroke:none"/><path d="M119.077 105.827q.963 0 2.63-1.328 1.666-1.354 3.125-3.568-1.771-1.094-2.657-3.255-.885-2.188-.807-4.48.104-3.385 1.537-5.39 1.432-2.031 3.515-2.031 3.151 0 4.532 2.865 1.406 2.864.208 7.786-.313 1.276-.781 2.422 2.109-.573 4.53-4.583.73-1.12 1.12-.782.417.313.105 1.302-2.37 6.615-7.266 7.032-2.291 3.75-5.677 6.145-3.385 2.396-6.25 2.396-2.448 0-3.724-1.849-1.25-1.849-1.146-5.286.052-1.693.443-5.677.417-3.985.417-6.537 0-.885-.13-1.64-.105-.756-.235-1.146-.104-.39-.104-.417 0-.156.495-.416.52-.287 1.354-.521.833-.235 1.562-.235 1.823 0 2.787.912.963.885 1.172 2.995.208 2.109-.651 5.572-.573 2.396-.886 4.193-.312 1.771-.338 3.021-.026 1.25.234 1.875.287.625.886.625zm5.911-14.193q0 3.985 1.589 5.912.625-1.64 1.015-3.412.625-3.099.339-4.817-.26-1.72-1.302-1.72-.677 0-1.172 1.069-.469 1.041-.469 2.968z" style="font-style:normal;font-variant:normal;font-weight:400;font-stretch:normal;font-size:53.33333206px;line-height:1.25;font-family:&quot;Elixir Brush&quot;;-inkscape-font-specification:&quot;Elixir Brush&quot;;letter-spacing:0;word-spacing:0;fill:#fff;fill-opacity:1;stroke:none"/><path d="M147.28 94.785q.13-.416.807-.416.703-.026 1.588.312.886.313 1.745.755.86.443 1.407.938.546.469.468.755-1.146 4.063-1.12 6.484.026 2.396 1.016 2.735.938.286 2.292-.573 1.354-.885 2.291-2.135.495-.652.625-.704.13-.078.495.235.365.338.547.937.182.573-.104 1.12-1.615 2.266-3.698 3.698t-4.14 1.432q-2.214 0-3.699-1.875-1.458-1.9-1.692-5.156-3.698 7.031-7.995 7.031-3.073 0-4.531-3.255-1.433-3.281-.235-8.36.6-2.63 1.797-4.817 1.224-2.214 2.735-3.698 1.51-1.484 3.28-2.5 1.772-1.042 3.49-1.484 1.72-.47 3.36-.47 3.02 0 4.791 1.33 1.797 1.327 1.667 3.254-.078 1.589-1.198 2.526-1.12.912-3.125.886-1.979-.052-3.541-1.016-.704-.469-.443-.625 1.354-.65 1.797-1.51.468-.886 0-1.485-.443-.599-1.485-.599-1.979 0-3.984 2.37t-3.047 6.224q-.937 3.646-.703 6.172.26 2.526 1.484 2.526 1.51 0 3.308-2.396 1.823-2.422 3.203-6.719z" style="font-style:normal;font-variant:normal;font-weight:400;font-stretch:normal;font-size:53.33333206px;line-height:1.25;font-family:&quot;Elixir Brush&quot;;-inkscape-font-specification:&quot;Elixir Brush&quot;;letter-spacing:0;word-spacing:0;fill:#fff;fill-opacity:1;stroke:none"/></svg>