<?xml version="1.0" encoding="UTF-8"?>
<svg version="1.1" viewBox="0 0 192 192" xmlns="http://www.w3.org/2000/svg" xmlns:xlink="http://www.w3.org/1999/xlink">
 <defs>
  <linearGradient id="linearGradient2" x1="-159.21" x2="-162.73" y1="-518.84" y2="-295.33" gradientTransform="matrix(.35342 0 0 .35342 151.94 239.81)" gradientUnits="userSpaceOnUse">
   <stop style="stop-color:#f8c18c" offset="0"/>
   <stop style="stop-color:#9abeff" offset="1"/>
  </linearGradient>
 </defs>
 <circle class="a" cx="96" cy="96" r="88" style="fill:#56595b"/>
 <path d="m73.051 135.56c-3.9279-0.65501-6.6592-1.469-9.4838-2.8265-6.8683-3.3184-11.414-9.8066-11.414-17.369v-39.376c0-4.159 2.6623-9.4946 5.9103-12.956 2.7915-2.9752 6.3665-4.5692 10.789-5.7781 2.9493-0.80616 3.0518-0.80925 26.816-0.80925 26.674 0 25.997-0.0557 31.278 2.5741 3.1164 1.552 7.3105 5.6603 9.0984 8.9121 2.1318 3.8772 3.8014 10.408 3.8014 14.869v1.3881h-18.286l-0.18092-1.6051c-0.2304-2.0441-1.796-4.5828-3.7413-6.0665-2.9011-2.2127-3.405-2.2615-22.193-2.1489-16.682 0.10003-16.945 0.11267-18.913 0.90842-2.6562 1.0417-7.1836 5.2528-7.5465 8.3664v24.755c1.4792 6.0662 8.6218 9.1889 9.1889 9.1889 5.6403 0 24.963 0.0124 37.685-0.76438 2.1479-0.13115 3.9036-2.771 4.7381-4.3848 0.30537-0.59051 0.64838-1.8603 0.76225-2.8218l0.20703-1.7481h18.279v1.5648c0 2.6258-0.71742 6.9134-1.6576 9.9068-2.46 7.8317-7.2517 15.269-15.306 15.513-16.565 0.49975-33.169 0.70885-49.832 0.70885z" style="fill:url(#linearGradient2);stroke-width:.35342"/>
</svg>
