<svg xmlns="http://www.w3.org/2000/svg" xml:space="preserve" width="192" height="192"><path fill="#fff" d="M111.35 182.65c.013-.08.05-.152.05-.236v-42.441s.558.135 1.509.277a29.833 29.833 0 0 0 3.863.322c.785.016 1.628.004 2.506-.054s1.793-.165 2.722-.33c.93-.166 1.875-.39 2.815-.694.47-.151.94-.323 1.404-.515.465-.192.926-.405 1.381-.641.88-.458 1.69-.933 2.432-1.414.741-.481 1.415-.967 2.025-1.447.61-.481 1.157-.957 1.645-1.415s.917-.9 1.29-1.312c.748-.825 1.275-1.535 1.616-2.04s.494-.8.494-.8v-16.518c-.415-.6-.88-1.2-1.395-1.793a23.288 23.288 0 0 0-1.681-1.742 24.277 24.277 0 0 0-4.115-3.098 22.905 22.905 0 0 0-2.385-1.242 21.368 21.368 0 0 0-2.569-.957c-.883-.266-1.792-.475-2.724-.617s-1.887-.219-2.86-.219c-.852.025-1.655.083-2.412.176-.757.092-1.467.22-2.14.377s-1.308.346-1.909.564c-.6.219-1.167.466-1.707.742a14.84 14.84 0 0 0-1.543.914c-.49.332-.96.69-1.414 1.073-.453.383-.889.793-1.316 1.224-.427.432-.845.887-1.258 1.364a19.417 19.417 0 0 0-1.617 2.16 22.105 22.105 0 0 0-1.324 2.357 26.16 26.16 0 0 0-1.06 2.522 31.4 31.4 0 0 0-.825 2.642c-.238.898-.44 1.81-.613 2.729s-.315 1.848-.432 2.777c-.117.93-.209 1.86-.28 2.787-.07.927-.12 1.85-.154 2.762 0 0 .058 47.964 0 51.52-.003.213.042.412.127.6.086.187.213.363.375.525.102.101.24.188.368.28a88 88 0 0 0 11.11-1.169zM91.758 183.81c.128-.091.266-.178.367-.28.163-.162.29-.337.375-.525.086-.187.13-.387.127-.6-.058-3.555 0-51.52 0-51.52a69.963 69.963 0 0 0-.154-2.761 56.724 56.724 0 0 0-.28-2.787c-.116-.93-.258-1.858-.431-2.777s-.375-1.832-.613-2.729a31.404 31.404 0 0 0-.825-2.643 26.164 26.164 0 0 0-1.06-2.521c-.396-.815-.835-1.602-1.324-2.357s-1.027-1.478-1.618-2.16c-.412-.478-.83-.932-1.257-1.364a20.273 20.273 0 0 0-1.317-1.225c-.453-.383-.923-.74-1.414-1.072a14.797 14.797 0 0 0-3.25-1.656c-.6-.219-1.235-.407-1.908-.565s-1.384-.284-2.14-.377a26.135 26.135 0 0 0-2.413-.175c-.972 0-1.927.076-2.86.218s-1.84.352-2.724.618c-.883.265-1.741.587-2.568.957s-1.624.787-2.385 1.242a24.05 24.05 0 0 0-5.797 4.84c-.514.592-.98 1.193-1.394 1.793v16.518s.154.296.494.8.868 1.215 1.615 2.04c.374.412.803.854 1.291 1.312a25.03 25.03 0 0 0 1.645 1.414c.61.481 1.284.967 2.025 1.447.741.481 1.55.957 2.432 1.415.454.236.915.448 1.38.64a18.8 18.8 0 0 0 1.405.516c.94.303 1.884.528 2.814.693.93.165 1.845.271 2.723.33s1.72.07 2.506.055a30.28 30.28 0 0 0 3.863-.322c.95-.142 1.508-.278 1.508-.278v42.441c0 .085.038.156.05.237a88 88 0 0 0 11.112 1.168z"/><path fill="#fff" d="M111.35 182.65c.013-.08.05-.152.05-.236v-42.441s.558.135 1.509.277a29.833 29.833 0 0 0 3.863.322c.785.016 1.628.004 2.506-.054s1.793-.165 2.722-.33c.93-.166 1.875-.39 2.815-.694.47-.151.94-.323 1.404-.515.465-.192.926-.405 1.381-.641.88-.458 1.69-.933 2.432-1.414.741-.481 1.415-.967 2.025-1.447.61-.481 1.157-.957 1.645-1.415s.917-.9 1.29-1.312c.748-.825 1.275-1.535 1.616-2.04s.494-.8.494-.8v-16.518c-.415-.6-.88-1.2-1.395-1.793a23.288 23.288 0 0 0-1.681-1.742 24.277 24.277 0 0 0-4.115-3.098 22.905 22.905 0 0 0-2.385-1.242 21.368 21.368 0 0 0-2.569-.957c-.883-.266-1.792-.475-2.724-.617s-1.887-.219-2.86-.219c-.852.025-1.655.083-2.412.176-.757.092-1.467.22-2.14.377s-1.308.346-1.909.564c-.6.219-1.167.466-1.707.742a14.84 14.84 0 0 0-1.543.914c-.49.332-.96.69-1.414 1.073-.453.383-.889.793-1.316 1.224-.427.432-.845.887-1.258 1.364a19.417 19.417 0 0 0-1.617 2.16 22.105 22.105 0 0 0-1.324 2.357 26.16 26.16 0 0 0-1.06 2.522 31.4 31.4 0 0 0-.825 2.642c-.238.898-.44 1.81-.613 2.729s-.315 1.848-.432 2.777c-.117.93-.209 1.86-.28 2.787-.07.927-.12 1.85-.154 2.762 0 0 .058 47.964 0 51.52-.003.213.042.412.127.6.086.187.213.363.375.525.102.101.24.188.368.28a88 88 0 0 0 11.11-1.169zM91.758 183.81c.128-.091.266-.178.367-.28.163-.162.29-.337.375-.525.086-.187.13-.387.127-.6-.058-3.555 0-51.52 0-51.52a69.963 69.963 0 0 0-.154-2.761 56.724 56.724 0 0 0-.28-2.787c-.116-.93-.258-1.858-.431-2.777s-.375-1.832-.613-2.729a31.404 31.404 0 0 0-.825-2.643 26.164 26.164 0 0 0-1.06-2.521c-.396-.815-.835-1.602-1.324-2.357s-1.027-1.478-1.618-2.16c-.412-.478-.83-.932-1.257-1.364a20.273 20.273 0 0 0-1.317-1.225c-.453-.383-.923-.74-1.414-1.072a14.797 14.797 0 0 0-3.25-1.656c-.6-.219-1.235-.407-1.908-.565s-1.384-.284-2.14-.377a26.135 26.135 0 0 0-2.413-.175c-.972 0-1.927.076-2.86.218s-1.84.352-2.724.618c-.883.265-1.741.587-2.568.957s-1.624.787-2.385 1.242a24.05 24.05 0 0 0-5.797 4.84c-.514.592-.98 1.193-1.394 1.793v16.518s.154.296.494.8.868 1.215 1.615 2.04c.374.412.803.854 1.291 1.312a25.03 25.03 0 0 0 1.645 1.414c.61.481 1.284.967 2.025 1.447.741.481 1.55.957 2.432 1.415.454.236.915.448 1.38.64a18.8 18.8 0 0 0 1.405.516c.94.303 1.884.528 2.814.693.93.165 1.845.271 2.723.33s1.72.07 2.506.055a30.28 30.28 0 0 0 3.863-.322c.95-.142 1.508-.278 1.508-.278v42.441c0 .085.038.156.05.237a88 88 0 0 0 11.112 1.168z"/><path fill="#fff" d="M111.35 182.65c.013-.08.05-.152.05-.236v-42.441s.558.135 1.509.277a29.833 29.833 0 0 0 3.863.322c.785.016 1.628.004 2.506-.054s1.793-.165 2.722-.33c.93-.166 1.875-.39 2.815-.694.47-.151.94-.323 1.404-.515.465-.192.926-.405 1.381-.641.88-.458 1.69-.933 2.432-1.414.741-.481 1.415-.967 2.025-1.447.61-.481 1.157-.957 1.645-1.415s.917-.9 1.29-1.312c.748-.825 1.275-1.535 1.616-2.04s.494-.8.494-.8v-16.518c-.415-.6-.88-1.2-1.395-1.793a23.288 23.288 0 0 0-1.681-1.742 24.277 24.277 0 0 0-4.115-3.098 22.905 22.905 0 0 0-2.385-1.242 21.368 21.368 0 0 0-2.569-.957c-.883-.266-1.792-.475-2.724-.617s-1.887-.219-2.86-.219c-.852.025-1.655.083-2.412.176-.757.092-1.467.22-2.14.377s-1.308.346-1.909.564c-.6.219-1.167.466-1.707.742a14.84 14.84 0 0 0-1.543.914c-.49.332-.96.69-1.414 1.073-.453.383-.889.793-1.316 1.224-.427.432-.845.887-1.258 1.364a19.417 19.417 0 0 0-1.617 2.16 22.105 22.105 0 0 0-1.324 2.357 26.16 26.16 0 0 0-1.06 2.522 31.4 31.4 0 0 0-.825 2.642c-.238.898-.44 1.81-.613 2.729s-.315 1.848-.432 2.777c-.117.93-.209 1.86-.28 2.787-.07.927-.12 1.85-.154 2.762 0 0 .058 47.964 0 51.52-.003.213.042.412.127.6.086.187.213.363.375.525.102.101.24.188.368.28a88 88 0 0 0 11.11-1.169zM91.758 183.81c.128-.091.266-.178.367-.28.163-.162.29-.337.375-.525.086-.187.13-.387.127-.6-.058-3.555 0-51.52 0-51.52a69.963 69.963 0 0 0-.154-2.761 56.724 56.724 0 0 0-.28-2.787c-.116-.93-.258-1.858-.431-2.777s-.375-1.832-.613-2.729a31.404 31.404 0 0 0-.825-2.643 26.164 26.164 0 0 0-1.06-2.521c-.396-.815-.835-1.602-1.324-2.357s-1.027-1.478-1.618-2.16c-.412-.478-.83-.932-1.257-1.364a20.273 20.273 0 0 0-1.317-1.225c-.453-.383-.923-.74-1.414-1.072a14.797 14.797 0 0 0-3.25-1.656c-.6-.219-1.235-.407-1.908-.565s-1.384-.284-2.14-.377a26.135 26.135 0 0 0-2.413-.175c-.972 0-1.927.076-2.86.218s-1.84.352-2.724.618c-.883.265-1.741.587-2.568.957s-1.624.787-2.385 1.242a24.05 24.05 0 0 0-5.797 4.84c-.514.592-.98 1.193-1.394 1.793v16.518s.154.296.494.8.868 1.215 1.615 2.04c.374.412.803.854 1.291 1.312a25.03 25.03 0 0 0 1.645 1.414c.61.481 1.284.967 2.025 1.447.741.481 1.55.957 2.432 1.415.454.236.915.448 1.38.64a18.8 18.8 0 0 0 1.405.516c.94.303 1.884.528 2.814.693.93.165 1.845.271 2.723.33s1.72.07 2.506.055a30.28 30.28 0 0 0 3.863-.322c.95-.142 1.508-.278 1.508-.278v42.441c0 .085.038.156.05.237a88 88 0 0 0 11.112 1.168z"/><path fill="#9abeff" d="M55.152 18.09A88 88 0 0 0 8 96a88 88 0 0 0 72.646 86.646c-.013-.08-.05-.152-.05-.236v-42.441s-.558.135-1.509.277a29.833 29.833 0 0 1-3.863.322c-.785.016-1.628.004-2.506-.054s-1.793-.165-2.722-.33c-.93-.166-1.875-.39-2.815-.694-.47-.151-.94-.323-1.404-.515a17.352 17.352 0 0 1-1.381-.641c-.88-.458-1.69-.933-2.432-1.414a27.082 27.082 0 0 1-2.025-1.447c-.61-.481-1.157-.957-1.645-1.415-.488-.458-.917-.9-1.29-1.312-.748-.825-1.276-1.535-1.616-2.04s-.494-.8-.494-.8v-16.518c.415-.6.88-1.2 1.394-1.793a23.288 23.288 0 0 1 1.682-1.742 24.277 24.277 0 0 1 4.115-3.098 22.905 22.905 0 0 1 2.385-1.242c.827-.37 1.685-.691 2.569-.957.883-.266 1.792-.475 2.724-.617s1.887-.219 2.86-.219c.852.025 1.655.083 2.412.176.757.092 1.467.22 2.14.377s1.308.346 1.908.564c.601.219 1.168.466 1.707.742.54.277 1.053.583 1.543.914.491.332.961.69 1.415 1.073.453.383.889.793 1.316 1.224a27.8 27.8 0 0 1 1.258 1.364 19.417 19.417 0 0 1 1.617 2.16c.489.755.928 1.542 1.324 2.357.396.815.748 1.66 1.06 2.522a31.4 31.4 0 0 1 .825 2.642c.238.898.44 1.81.613 2.729s.315 1.848.432 2.777c.117.93.209 1.86.28 2.787.07.927.12 1.85.153 2.762 0 0-.057 47.964 0 51.52.004.213-.041.412-.127.6a1.806 1.806 0 0 1-.375.525c-.1.101-.24.188-.367.28A88 88 0 0 0 96 184a88 88 0 0 0 4.243-.186c-.128-.091-.266-.178-.368-.279a1.806 1.806 0 0 1-.375-.525 1.376 1.376 0 0 1-.126-.6c.057-3.555 0-51.52 0-51.52.033-.911.083-1.835.154-2.762.07-.926.162-1.857.28-2.787.116-.93.258-1.857.43-2.777s.376-1.831.614-2.729c.238-.897.512-1.78.824-2.642a26.14 26.14 0 0 1 1.06-2.522c.397-.815.836-1.602 1.325-2.357a19.41 19.41 0 0 1 1.617-2.16c.413-.477.831-.932 1.258-1.364a20.27 20.27 0 0 1 1.316-1.224c.454-.383.924-.74 1.415-1.073a14.84 14.84 0 0 1 1.543-.914c.54-.276 1.106-.523 1.707-.742.6-.218 1.235-.407 1.908-.564a20.144 20.144 0 0 1 2.14-.377c.757-.093 1.56-.151 2.412-.176.973 0 1.928.076 2.86.219s1.84.351 2.724.617c.884.266 1.742.587 2.569.957s1.623.788 2.385 1.242a24.05 24.05 0 0 1 5.797 4.84c.514.592.98 1.193 1.394 1.793v16.518s-.154.297-.494.8-.868 1.215-1.615 2.04c-.374.412-.803.854-1.291 1.312s-1.034.934-1.645 1.415c-.61.48-1.284.966-2.025 1.447-.742.48-1.551.956-2.432 1.414a17.34 17.34 0 0 1-1.38.64c-.466.193-.935.365-1.405.516a21.33 21.33 0 0 1-2.814.694c-.93.165-1.845.27-2.723.33s-1.72.07-2.506.054a30.877 30.877 0 0 1-3.863-.322 18.966 18.966 0 0 1-1.508-.277v42.44c0 .085-.038.157-.05.237A88 88 0 0 0 183.998 96a88 88 0 0 0-47.023-77.869 41.048 41.135 0 0 1 .072 2.004 41.048 41.135 0 0 1-.789 8.025 41.048 41.135 0 0 1-2.336 7.717 41.048 41.135 0 0 1-3.793 7.111 41.048 41.135 0 0 1-5.105 6.235 41.048 41.135 0 0 1-6.22 5.115 41.048 41.135 0 0 1-7.096 3.8 41.048 41.135 0 0 1-7.702 2.34A41.048 41.135 0 0 1 96 61.27a41.048 41.135 0 0 1-8.008-.791 41.048 41.135 0 0 1-7.701-2.34 41.048 41.135 0 0 1-7.096-3.801 41.048 41.135 0 0 1-6.22-5.115 41.048 41.135 0 0 1-5.106-6.235 41.048 41.135 0 0 1-3.793-7.11 41.048 41.135 0 0 1-2.336-7.718 41.048 41.135 0 0 1-.79-8.025 41.048 41.135 0 0 1 .202-2.045z"/><path fill="#98dc9a" d="M55.152 18.09a41.048 41.135 0 0 0-.201 2.045 41.048 41.135 0 0 0 .789 8.025 41.048 41.135 0 0 0 2.336 7.717 41.048 41.135 0 0 0 3.793 7.111 41.048 41.135 0 0 0 5.105 6.235 41.048 41.135 0 0 0 6.221 5.115 41.048 41.135 0 0 0 7.096 3.8 41.048 41.135 0 0 0 7.7 2.34A41.048 41.135 0 0 0 96 61.27a41.048 41.135 0 0 0 8.007-.791 41.048 41.135 0 0 0 7.702-2.34 41.048 41.135 0 0 0 7.095-3.801 41.048 41.135 0 0 0 6.221-5.115 41.048 41.135 0 0 0 5.106-6.235 41.048 41.135 0 0 0 3.793-7.11 41.048 41.135 0 0 0 2.335-7.718 41.048 41.135 0 0 0 .79-8.025 41.048 41.135 0 0 0-.073-2.004A88 88 0 0 0 96 8a88 88 0 0 0-40.848 10.09z"/><path fill="#98dc9a" d="M55.152 18.09a41.048 41.135 0 0 0-.201 2.045 41.048 41.135 0 0 0 .789 8.025 41.048 41.135 0 0 0 2.336 7.717 41.048 41.135 0 0 0 3.793 7.111 41.048 41.135 0 0 0 5.105 6.235 41.048 41.135 0 0 0 6.221 5.115 41.048 41.135 0 0 0 7.096 3.8 41.048 41.135 0 0 0 7.7 2.34A41.048 41.135 0 0 0 96 61.27a41.048 41.135 0 0 0 8.007-.791 41.048 41.135 0 0 0 7.702-2.34 41.048 41.135 0 0 0 7.095-3.801 41.048 41.135 0 0 0 6.221-5.115 41.048 41.135 0 0 0 5.106-6.235 41.048 41.135 0 0 0 3.793-7.11 41.048 41.135 0 0 0 2.335-7.718 41.048 41.135 0 0 0 .79-8.025 41.048 41.135 0 0 0-.073-2.004A88 88 0 0 0 96 8a88 88 0 0 0-40.848 10.09z"/><path fill="#98dc9a" d="M55.152 18.09a41.048 41.135 0 0 0-.201 2.045 41.048 41.135 0 0 0 .789 8.025 41.048 41.135 0 0 0 2.336 7.717 41.048 41.135 0 0 0 3.793 7.111 41.048 41.135 0 0 0 5.105 6.235 41.048 41.135 0 0 0 6.221 5.115 41.048 41.135 0 0 0 7.096 3.8 41.048 41.135 0 0 0 7.7 2.34A41.048 41.135 0 0 0 96 61.27a41.048 41.135 0 0 0 8.007-.791 41.048 41.135 0 0 0 7.702-2.34 41.048 41.135 0 0 0 7.095-3.801 41.048 41.135 0 0 0 6.221-5.115 41.048 41.135 0 0 0 5.106-6.235 41.048 41.135 0 0 0 3.793-7.11 41.048 41.135 0 0 0 2.335-7.718 41.048 41.135 0 0 0 .79-8.025 41.048 41.135 0 0 0-.073-2.004A88 88 0 0 0 96 8a88 88 0 0 0-40.848 10.09z"/><rect width="10.011" height="18.75" x="73.45" y="102.89" fill="#98dc9a" rx="4.961" ry="2.901" transform="rotate(-30)"/><circle cx="75.954" cy="39.35" r="3.906" fill="#71a372"/><circle cx="116.27" cy="39.35" r="3.906" fill="#71a372"/><circle cx="65.948" cy="121.85" r="3.906" fill="#56595b"/><circle cx="126.11" cy="121.85" r="3.906" fill="#56595b"/><rect width="10.011" height="18.75" x="-93.018" y="6.784" fill="#98dc9a" rx="4.961" ry="2.901" transform="scale(-1 1) rotate(-30)"/></svg>