<?xml version="1.0" encoding="UTF-8"?>
<svg version="1.1" viewBox="0 0 192 192" xml:space="preserve" xmlns="http://www.w3.org/2000/svg">
	 <circle class="a" cx="96" cy="96" r="88" fill="#728dbe"/><path d="m79.919 87.508s4.7178-5.0123 6.7763-7.0708c0.5372-0.53719 1.7419-0.53719 2.2791 0 2.064 2.064 6.5311 7.0708 6.5311 7.0708v12.744l-6.3032 3.8878-5.5024-0.81397-3.7809-4.8838z" fill="#98dc9a"/><g transform="matrix(.73672 0 0 .73672 173.82 25.185)" fill="#fff" stroke-linejoin="round" stroke-width=".90853" aria-label="SUBE"><path d="m-139.59 110.37c4.7486 0 8.7764-2.7983 8.7764-7.5469 0-9.4124-11.702-7.0805-11.702-11.49 0-1.4415 1.1024-2.1199 2.4591-2.1199 1.4415 0 2.8831 0.80556 4.155 2.2047l3.731-3.5614c-1.8655-2.1623-4.7062-3.6038-7.8436-3.6038-4.0278 0-8.1404 2.4167-8.1404 7.5045 0 8.6492 11.744 6.5717 11.744 11.024 0 1.3991-1.1872 2.3319-3.1375 2.3319-2.3319 0-4.155-1.3144-5.0878-3.3071l-4.6214 2.8831c1.6535 3.1798 5.215 5.6813 9.6668 5.6813z"/><path d="m-116.9 110.37c6.0205 0 10.6-3.6886 10.6-8.4796v-17.298h-5.5966v16.238c0 2.5863-2.1623 4.579-5.003 4.579-2.7983 0-4.9606-1.9927-4.9606-4.579v-16.238h-5.5966v17.298c0 4.791 4.6214 8.4796 10.557 8.4796z"/><path d="m-86.123 97.145c1.9079-1.0176 3.1375-2.7983 3.1375-5.4694 0-4.4942-3.3918-7.0805-7.6741-7.0805h-10.769v25.439h11.744c4.2398 0 7.5469-2.4591 7.5469-6.9533 0-3.0951-1.6111-5.003-3.9854-5.9357zm-2.4591-4.8758c0 1.4839-1.2295 2.7559-2.7559 2.7559h-4.4942v-5.4694h4.4942c1.5263 0 2.7559 1.1871 2.7559 2.7135zm-1.9079 12.804h-5.3422v-5.4694h5.3422c1.5687 0 2.7559 1.2719 2.7559 2.7559 0 1.5263-1.1871 2.7135-2.7559 2.7135z"/><path d="m-62.889 89.513v-4.9182h-15.306v25.439h15.306v-4.9182h-9.7092v-5.3422h8.31v-4.9182h-8.31v-5.3422z"/></g><path d="m61.611 84.675c-6.1145 7.0032-6.0788 16.405 0 23.161" fill="none" stroke="#fff" stroke-linecap="round" stroke-linejoin="round" stroke-width=".73672"/><path d="m58.895 80.623c-8.3661 9.3569-8.5556 21.632 0 31.08" fill="none" stroke="#fff" stroke-linecap="round" stroke-linejoin="round" stroke-width="1.4734"/><path d="m55.729 75.651c-10.491 12.26-10.989 29.187 0 40.698" fill="none" stroke="#fff" stroke-linecap="round" stroke-linejoin="round" stroke-width="2.2102"/><path d="m130.39 84.675c6.1145 7.0032 6.0788 16.405 0 23.161" fill="none" stroke="#fff" stroke-linecap="round" stroke-linejoin="round" stroke-width=".73672"/><path d="m133.11 80.623c8.3661 9.3569 8.5556 21.632 0 31.08" fill="none" stroke="#fff" stroke-linecap="round" stroke-linejoin="round" stroke-width="1.4734"/><path d="m136.27 75.651c10.491 12.26 10.989 29.187 0 40.698" fill="none" stroke="#fff" stroke-linecap="round" stroke-linejoin="round" stroke-width="2.2102"/></svg>
