<svg xmlns="http://www.w3.org/2000/svg" id="Layer_1" data-name="Layer 1" viewBox="0 0 192 192"><defs><style>.cls-2{fill:#fff}</style></defs><circle id="circle4" cx="98.7" cy="93.61" r="88" style="fill:#728dbe;isolation:isolate;opacity:.63"/><path d="m103.83 79-5.48-25.79h12.48a3.17 3.17 0 0 1 3.1 2.48l4.22 18.84ZM112 93.63l19.1-16.19 5.62 10.42a3 3 0 0 1-.68 3.7l-13.83 12ZM103.69 108l21.37 6.94-5.31 9.2a2.71 2.71 0 0 1-3.14 1.23l-15.68-4.9ZM87.29 107.51l4.19 20.6-9.94-.11a2.52 2.52 0 0 1-2.45-2l-3.24-15ZM79.31 94.19l-14.37 11.9-4.09-7.82a2.24 2.24 0 0 1 .54-2.75L71.8 86.7ZM86.68 79.41l-15.94-5.53 4.12-6.83a2 2 0 0 1 2.38-.88L89 70.09Z" class="cls-2"/></svg>