<?xml version="1.0" encoding="UTF-8" standalone="no"?>
<!-- Created with Inkscape (http://www.inkscape.org/) -->

<svg
   width="192"
   height="192"
   viewBox="0 0 192 192"
   version="1.1"
   id="svg1"
   xml:space="preserve"
   xmlns="http://www.w3.org/2000/svg"
   xmlns:svg="http://www.w3.org/2000/svg"
   xmlns:rdf="http://www.w3.org/1999/02/22-rdf-syntax-ns#"
   xmlns:cc="http://creativecommons.org/ns#"><defs
     id="defs1" /><g
     id="layer1"><rect
       style="display:inline;fill:#83868c;stroke-width:0.52;stroke-opacity:0.15;paint-order:stroke fill markers"
       id="rect1"
       width="152"
       height="152"
       x="20"
       y="20"
       ry="10.315853"
       rx="0" /><g
       id="layer2"
       transform="matrix(1.1260913,0,0,1.1260913,-12.131182,-12.127166)"><rect
         style="fill:#4a4a4a;stroke-width:0.50578;stroke-opacity:0.15;paint-order:stroke fill markers"
         id="rect2"
         width="55.350018"
         height="54.895084"
         x="68.324989"
         y="68.55246"
         ry="6.1201186" /><rect
         style="fill:#4a4a4a;stroke-width:0.532816;stroke-opacity:0.15;paint-order:stroke fill markers"
         id="rect3"
         width="3.0633128"
         height="10.390421"
         x="89.930885"
         y="56.058666"
         rx="0"
         ry="0.92030257" /><rect
         style="fill:#4a4a4a;stroke-width:0.532816;stroke-opacity:0.15;paint-order:stroke fill markers"
         id="rect3-4"
         width="3.0633128"
         height="10.390421"
         x="80.932495"
         y="56.058998"
         rx="0"
         ry="0.92030257" /><rect
         style="fill:#4a4a4a;stroke-width:0.532816;stroke-opacity:0.15;paint-order:stroke fill markers"
         id="rect3-1"
         width="3.0633128"
         height="10.390421"
         x="108.0516"
         y="56.058998"
         rx="0"
         ry="0.92030257" /><rect
         style="fill:#4a4a4a;stroke-width:0.532816;stroke-opacity:0.15;paint-order:stroke fill markers"
         id="rect3-4-7"
         width="3.0633128"
         height="10.390421"
         x="99.053215"
         y="56.05933"
         rx="0"
         ry="0.92030257" /><rect
         style="fill:#4a4a4a;stroke-width:0.532816;stroke-opacity:0.15;paint-order:stroke fill markers"
         id="rect3-7"
         width="3.0633128"
         height="10.390421"
         x="89.930389"
         y="125.59003"
         rx="0"
         ry="0.92030257" /><rect
         style="fill:#4a4a4a;stroke-width:0.532816;stroke-opacity:0.15;paint-order:stroke fill markers"
         id="rect3-4-1"
         width="3.0633128"
         height="10.390421"
         x="80.931999"
         y="125.59036"
         rx="0"
         ry="0.92030257" /><rect
         style="fill:#4a4a4a;stroke-width:0.532816;stroke-opacity:0.15;paint-order:stroke fill markers"
         id="rect3-1-0"
         width="3.0633128"
         height="10.390421"
         x="108.0511"
         y="125.59036"
         rx="0"
         ry="0.92030257" /><rect
         style="fill:#4a4a4a;stroke-width:0.532816;stroke-opacity:0.15;paint-order:stroke fill markers"
         id="rect3-4-7-6"
         width="3.0633128"
         height="10.390421"
         x="99.052719"
         y="125.5907"
         rx="0"
         ry="0.92030257" /><rect
         style="fill:#4a4a4a;stroke-width:0.532816;stroke-opacity:0.15;paint-order:stroke fill markers"
         id="rect3-8"
         width="3.0633128"
         height="10.390421"
         x="89.927666"
         y="-135.9847"
         rx="0"
         ry="0.92030257"
         transform="rotate(90)" /><rect
         style="fill:#4a4a4a;stroke-width:0.532816;stroke-opacity:0.15;paint-order:stroke fill markers"
         id="rect3-4-5"
         width="3.0633128"
         height="10.390421"
         x="80.929276"
         y="-135.98436"
         rx="0"
         ry="0.92030257"
         transform="rotate(90)" /><rect
         style="fill:#4a4a4a;stroke-width:0.532816;stroke-opacity:0.15;paint-order:stroke fill markers"
         id="rect3-1-02"
         width="3.0633128"
         height="10.390421"
         x="108.04839"
         y="-135.98436"
         rx="0"
         ry="0.92030257"
         transform="rotate(90)" /><rect
         style="fill:#4a4a4a;stroke-width:0.532816;stroke-opacity:0.15;paint-order:stroke fill markers"
         id="rect3-4-7-0"
         width="3.0633128"
         height="10.390421"
         x="99.049995"
         y="-135.98404"
         rx="0"
         ry="0.92030257"
         transform="rotate(90)" /><rect
         style="fill:#4a4a4a;stroke-width:0.532816;stroke-opacity:0.15;paint-order:stroke fill markers"
         id="rect3-7-6"
         width="3.0633128"
         height="10.390421"
         x="89.927162"
         y="-66.453346"
         rx="0"
         ry="0.92030257"
         transform="rotate(90)" /><rect
         style="fill:#4a4a4a;stroke-width:0.532816;stroke-opacity:0.15;paint-order:stroke fill markers"
         id="rect3-4-1-0"
         width="3.0633128"
         height="10.390421"
         x="80.928772"
         y="-66.452995"
         rx="0"
         ry="0.92030257"
         transform="rotate(90)" /><rect
         style="fill:#4a4a4a;stroke-width:0.532816;stroke-opacity:0.15;paint-order:stroke fill markers"
         id="rect3-1-0-9"
         width="3.0633128"
         height="10.390421"
         x="108.04789"
         y="-66.452995"
         rx="0"
         ry="0.92030257"
         transform="rotate(90)" /><rect
         style="fill:#4a4a4a;stroke-width:0.532816;stroke-opacity:0.15;paint-order:stroke fill markers"
         id="rect3-4-7-6-6"
         width="3.0633128"
         height="10.390421"
         x="99.049507"
         y="-66.452644"
         rx="0"
         ry="0.92030257"
         transform="rotate(90)" /><path
         id="path5"
         style="fill:#ffffff;stroke-width:0.584316;stroke-opacity:0.15;paint-order:stroke fill markers"
         d="m 112.04652,87.025888 -31.871376,0.03072 a 26.014504,26.014504 0 0 0 -0.370906,0.276532 l 16.172721,23.12113 16.218801,-23.312067 a 26.014504,26.014504 0 0 0 -0.14924,-0.116318 z M 96.086698,81.54573 a 26.014504,26.014504 0 0 0 -15.911554,5.510883 l 31.871376,-0.03072 A 26.014504,26.014504 0 0 0 96.086698,81.545734 Z" /><path
         id="path5-4"
         style="fill:#ececec;stroke-width:0.456559;stroke-opacity:0.15;paint-order:stroke fill markers"
         d="m 108.53803,92.148401 -24.90285,0.024 a 20.326546,20.326546 0 0 0 -0.289808,0.21607 L 95.981998,110.45427 108.65464,92.239284 a 20.326546,20.326546 0 0 0 -0.11661,-0.09088 z M 96.067743,87.866456 A 20.326546,20.326546 0 0 0 83.63518,92.172408 l 24.90285,-0.02401 A 20.326546,20.326546 0 0 0 96.067743,87.86646 Z" /><path
         id="path5-1"
         style="fill:#d8d8d8;stroke-width:0.331639;stroke-opacity:0.15;paint-order:stroke fill markers"
         d="m 105.10749,97.157082 -18.089161,0.01744 a 14.764988,14.764988 0 0 0 -0.210514,0.156951 l 9.179111,13.122797 9.205264,-13.231167 a 14.764988,14.764988 0 0 0 -0.0847,-0.06602 z m -9.058279,-3.110361 a 14.764988,14.764988 0 0 0 -9.030882,3.127799 l 18.089161,-0.01744 a 14.764988,14.764988 0 0 0 -9.058279,-3.110359 z" /></g><text
       xml:space="preserve"
       style="font-style:normal;font-variant:normal;font-weight:normal;font-stretch:normal;font-size:17.6785px;font-family:Now;-inkscape-font-specification:Now;letter-spacing:0px;display:none;fill:#ffffff;stroke-width:0.313393;stroke-opacity:0.15;paint-order:stroke fill markers"
       x="74.686363"
       y="109.71946"
       id="text1"><tspan
         id="tspan1"
         x="74.686363"
         y="109.71946"
         style="stroke-width:0.313393">MAC</tspan></text><text
       xml:space="preserve"
       style="font-style:normal;font-variant:normal;font-weight:normal;font-stretch:normal;font-size:5.33333px;font-family:Now;-inkscape-font-specification:Now;letter-spacing:0px;display:none;fill:#ffffff;stroke-width:0.52;stroke-opacity:0.15;paint-order:stroke fill markers"
       x="78.970009"
       y="116.96805"
       id="text2"><tspan
         id="tspan2"
         x="78.970009"
         y="116.96805"
         style="font-size:5.33333px">CHANGE MY</tspan></text></g><metadata
     id="metadata1"><rdf:RDF><cc:Work
         rdf:about="" /></rdf:RDF></metadata></svg>
