<?xml version="1.0" encoding="UTF-8"?><svg id="a" xmlns="http://www.w3.org/2000/svg" width="192" height="192" viewBox="0 0 192 192"><g id="b"><g id="c"><rect id="d" x="19.5" y="19.5" width="153" height="153" rx="10" ry="10" style="fill:#56595b;"/><path d="m59.5,96.03c0-6.06,4.5-10.51,11.27-10.51,6.06,0,10.2,3.54,11.06,8.59h-6.67c-.66-1.72-2.32-2.83-4.39-2.88-2.78.05-4.8,2.07-4.8,4.8s2.02,4.75,4.8,4.8c2.07-.05,3.74-1.16,4.39-2.88h6.67c-.86,5.05-5,8.59-11.06,8.59-6.77,0-11.27-4.45-11.27-10.51Z" style="fill:#fff;"/><path d="m84.96,102.85c0-2.02,1.67-3.69,3.64-3.69s3.74,1.67,3.74,3.69-1.72,3.69-3.74,3.69-3.64-1.67-3.64-3.69Z" style="fill:#fff;"/><path d="m121.89,100.88v5.25c-.45.2-1.06.4-1.72.4-2.73,0-4.95-1.36-6.21-3.44-1.62,2.12-3.99,3.44-6.92,3.44-5.61,0-10.01-4.65-10.01-10.51s4.4-10.51,10.01-10.51c2.32,0,4.24.81,5.76,2.17v-1.77h6.41v12.98c0,1.67.91,1.97,1.77,1.97h.91Zm-8.79-4.85c0-2.68-2.17-4.8-4.8-4.8s-4.8,2.12-4.8,4.8,2.12,4.8,4.8,4.8,4.8-2.12,4.8-4.8Z" style="fill:#fff;"/><path d="m125.43,79c0-1.97,1.61-3.54,3.54-3.54s3.54,1.57,3.54,3.54-1.62,3.54-3.54,3.54-3.54-1.62-3.54-3.54Zm.3,6.92h6.41v20.21h-6.41v-20.21Z" style="fill:#fff;"/></g></g></svg>