<?xml version="1.0" encoding="UTF-8"?><svg id="a" xmlns="http://www.w3.org/2000/svg" width="192" height="192" viewBox="0 0 192 192"><g id="b"><g id="c"><path id="d" d="m17.99,32.5h156c5.52,0,10,4.44,10,9.92v107.16c0,5.48-4.48,9.92-10,9.92H17.99c-5.52,0-10-4.44-10-9.92V42.42c0-5.48,4.48-9.92,10-9.92Z" style="fill:#56595b;"/><path d="m92.12,99.75c.97-.17,2.25-.3,3.88-.3s2.91.13,3.88.3c.87.15,1.5-.82,1.02-1.56l-4.05-6.18c-.4-.61-1.3-.61-1.7,0l-4.05,6.18c-.48.74.14,1.71,1.02,1.56Z" style="fill:#96dfd3;"/><path d="m101.17,104.06c-1.3.17-3,.3-5.17.3s-3.88-.13-5.17-.3c-1.16-.15-2,.82-1.35,1.56l5.39,6.18c.54.61,1.73.61,2.27,0l5.39-6.18c.64-.74-.19-1.71-1.35-1.56Z" style="fill:#96dfd3;"/><path d="m145.9,75.5c-3.15-3.15-7.51-5.1-12.32-5.1-6.32,0-11.86,3.37-14.91,8.4-2.64-3.48-6.07-6.34-10.01-8.3-3.82-1.91-8.13-2.98-12.68-2.98s-8.86,1.07-12.68,2.98c-3.93,1.95-7.34,4.79-9.98,8.25-.73-1.18-1.58-2.27-2.56-3.25-3.19-3.19-7.6-5.14-12.47-5.1-9.64.08-17.28,8.23-17.28,17.87v6.66c0,10.52,7.38,18.63,16.86,18.92,2.79.09,5.44-.48,7.81-1.56.7-.32,1.11-1.08.95-1.83-.43-2.02-.66-4.12-.66-6.27,0-2.28.25-4.5.74-6.64.23-1,.5-1.98.83-2.94-.03.46-.04.92-.04,1.39,0,4.65,1.12,9.05,3.1,12.92.63,1.24,1.35,2.43,2.15,3.55,5.16,7.26,13.64,12,23.23,12s18.07-4.74,23.23-12c.81-1.14,1.54-2.34,2.18-3.6,1.96-3.87,3.07-8.24,3.07-12.88,0-.45-.01-.89-.03-1.33.31.94.58,1.9.8,2.88.49,2.14.74,4.36.74,6.65,0,2.14-.23,4.23-.65,6.24-.16.75.25,1.5.94,1.82,2.37,1.1,5.03,1.68,7.84,1.6,9.5-.27,16.91-8.4,16.91-17.91v-8.13c0-4.81-1.95-9.17-5.1-12.32Zm-84.66,5.07c-5.97,0-11.29,2.77-14.76,7.09.32-2.83,1.61-5.38,3.52-7.29,2.23-2.23,5.31-3.61,8.71-3.61,4.26,0,8,2.16,10.22,5.44-2.35-1.05-4.95-1.63-7.7-1.63Zm35.03,35.61c-10.83.16-19.73-8.21-20.44-18.82h0c.02-.31.03-.62.03-.92v-2.14c.86-10.35,9.54-18.49,20.12-18.49,11.51,0,20.77,9.64,20.16,21.28-.55,10.48-9.36,18.94-19.86,19.09Zm34.78-35.61c-2.74,0-5.34.59-7.69,1.63,2.21-3.28,5.96-5.44,10.22-5.44,3.4,0,6.48,1.38,8.71,3.61,1.92,1.91,3.2,4.46,3.53,7.29-3.47-4.32-8.79-7.09-14.76-7.09Z" style="fill:#96dfd3;"/></g></g></svg>