<?xml version="1.0" encoding="UTF-8"?><svg id="a" xmlns="http://www.w3.org/2000/svg" xmlns:xlink="http://www.w3.org/1999/xlink" viewBox="0 0 192 192"><defs><clipPath id="d"><circle cx="96" cy="96" r="88" style="fill:none;"/></clipPath></defs><g id="b"><g id="c"><g style="clip-path:url(#d);"><circle cx="96" cy="96" r="88" style="fill:#fff;"/><path d="M96.18,7.5c-13.48,0-26.25,3.19-37.6,8.5h75.55c-11.71-5.31-24.47-8.5-37.95-8.5ZM67.8,24.49h-23.77c-3.55,2.48-6.74,5.31-9.93,8.5h21.64c3.55-3.19,7.8-6.02,12.06-8.5ZM112.85,49.63h58.53c-1.77-2.83-3.9-5.66-6.03-8.5h-52.5v8.5ZM47.58,41.13h-21.28c-2.13,2.83-4.26,5.66-6.03,8.5h21.28c2.13-2.83,3.9-5.66,6.03-8.5ZM112.85,32.99h45.05c-3.19-3.19-6.38-6.02-9.93-8.5h-35.12s0,8.5,0,8.5ZM184.5,96v-4.25h-30.51c-1.06-2.83-2.48-5.66-4.26-8.5h33.7c-.35-2.83-1.06-5.66-1.77-8.5h-37.6c-2.48-3.19-5.32-5.66-8.16-8.5h43.63c-1.06-2.83-2.13-5.66-3.55-8.5h-97.19v42.13h34.05v42.13H20.62c1.77,2.83,3.9,5.66,6.03,8.5h52.5v8.5h-45.05c3.19,3.19,6.38,6.02,9.93,8.5h34.76v8.5h-20.57c11.35,5.31,24.12,8.5,37.95,8.5s26.25-2.83,37.6-8.5h-9.58c4.26-2.48,8.16-5.31,11.71-8.5h12.06c3.55-2.48,6.74-5.31,9.93-8.5h-13.83c2.13-2.48,3.9-5.31,5.68-8.5h15.61c2.13-2.83,4.26-5.31,6.03-8.5h-17.38c1.06-2.83,2.13-5.66,2.84-8.5h19.15c1.42-2.83,2.48-5.66,3.55-8.5h-21.28c.35-2.83.35-5.66.35-8.5h23.06c.71-2.83,1.06-5.66,1.77-8.5h-25.18c-.35-2.83-1.06-5.66-1.77-8.5h27.67c.35-.71.35-2.12.35-3.54ZM47.58,125.38H12.47c1.06,2.83,2.13,5.66,3.55,8.5h39.73c-2.84-2.48-5.68-5.31-8.16-8.5ZM38.01,108.74H8.56c.35,2.83,1.06,5.66,1.77,8.5h31.92c-1.77-2.83-3.19-5.66-4.26-8.5ZM33.04,83.26c0-2.83.35-5.66.35-8.5H9.98c-.71,2.83-1.06,5.66-1.77,8.5h24.83ZM38.01,58.12h-21.99c-1.42,2.83-2.48,5.66-3.55,8.5h22.7c.71-2.83,1.42-5.66,2.84-8.5ZM33.39,91.75H7.5v8.5h27.31c-.35-2.83-1.06-5.66-1.42-8.5Z" style="fill:#728dbe;"/></g></g></g></svg>