<?xml version="1.0" encoding="UTF-8"?><svg id="a" xmlns="http://www.w3.org/2000/svg" width="192" height="192" viewBox="0 0 192 192"><g id="b"><g id="c"><path d="m152.27,166.15l-91.29,17.31c-23.61,3.93-44.86-14.17-44.86-37.77V45.74c0-23.61,21.25-41.71,44.86-36.99l91.29,16.53c13.38,3.15,23.61,14.95,23.61,28.33v84.21c0,14.17-10.23,25.97-23.61,28.33" style="fill:#f8c18c;"/><path d="m71.83,124.14v-56.29c0-2.65,1.99-4.64,4.64-3.97l53.42,7.54c1.52.21,2.88-.97,2.88-2.5v-7.5c0-1.25-.92-2.31-2.15-2.5l-51.49-7.63c-10.6-1.99-19.87,6.62-19.87,17.22v55.63c0,10.6,9.27,18.54,19.87,16.56l51.49-7.63c1.24-.18,2.15-1.25,2.15-2.5v-7.5c0-1.53-1.36-2.71-2.88-2.5l-53.42,7.54c-2.65.66-4.64-1.32-4.64-3.97" style="fill:#fff;"/></g></g></svg>