<?xml version="1.0" encoding="UTF-8"?><svg id="a" xmlns="http://www.w3.org/2000/svg" width="192" height="192" viewBox="0 0 192 192"><defs><style>.d{fill:#f8c18c;fill-rule:evenodd;}.d,.e{stroke-width:0px;}.e{fill:#fff;}</style></defs><g id="b"><g id="c"><path class="d" d="m172,30v132c0,5.52-4.48,10-10,10H30c-5.52,0-10-4.48-10-10V30c0-5.52,4.48-10,10-10h132c5.52,0,10,4.48,10,10Z"/><path class="e" d="m88.6,82.76c-.04-2.34-1.16-4.53-3.04-5.93-1.46-1.14-2.85-2.39-4.15-3.71-.88-.8-1.44-1.88-1.6-3.05-.1-.99.62-1.88,1.61-1.98.09,0,.18-.01.28,0,1.3.03,2.56.43,3.63,1.16,1.39.99,2.68,2.11,3.86,3.34,1.35,1.26,2.87,2.32,4.53,3.14.66.24,1.38.24,2.04,0,2.18-.59,3.69-2.15,5.28-3.59.96-.96,1.97-1.88,3.03-2.73,1.22-.92,2.58-1.62,4.03-2.08,1.01-.37,2.13-.33,3.11.13.78.41,1.17,1.31.94,2.16-.49,1.4-1.46,2.57-2.74,3.32-1.94,1.33-3.96,2.55-5.88,3.9-1.15.85-1.91,2.11-2.13,3.52-.33,1.91.27,3.87,1.62,5.26,1.6,1.89,3.19,3.86,4.72,5.83,1.19,1.38,2.53,2.61,4.01,3.67.99.81,2.09,1.48,3.27,1.98.52.18,1.09.21,1.63.08,1.46-.3,2.83-.94,3.98-1.89,1.69-1.37,3.21-2.93,4.83-4.39,1.62-1.52,3.55-2.66,5.67-3.34,1.08-.39,2.25-.42,3.35-.09,1.17.4,1.8,1.68,1.4,2.86-.03.09-.07.18-.11.27-.85,1.59-2.13,2.9-3.69,3.78-1.89,1.24-3.86,2.4-5.67,3.78-2.54,1.77-3.51,5.06-2.34,7.93.47,1.04,1.11,2,1.89,2.83,1.66,2.01,3.33,4.03,4.95,6.07.81,1.02,1.4,2.19,1.73,3.45.14.58.21,1.18.19,1.78.06,1.34-.98,2.47-2.32,2.53-.06,0-.12,0-.18,0-1.41-.06-2.77-.55-3.89-1.42-1.5-1.09-2.78-2.46-3.78-4.03-.74-1.05-1.5-2.08-2.3-3.08-.97-1.3-2.06-2.5-3.26-3.59-.55-.48-.86-.47-1.45,0-1.38,1.21-2.6,2.6-3.61,4.14-1.29,1.71-2.37,3.58-4.08,4.93-.52.47-1.19.76-1.89.81-.1,0-.26-.06-.3.08s.09.19.16.27c1.15,1.42,2.32,2.83,3.47,4.25.94,1.13,1.55,2.5,1.77,3.96.28,2.16-1.14,3.52-3.58,2.74-1.84-.64-3.43-1.86-4.53-3.48-1.41-1.89-2.74-3.78-4.32-5.58-.4-.43-.82-.85-1.25-1.26-.6-.57-1.04-.54-1.71.11-1.16,1.19-2.22,2.48-3.16,3.86-.82,1.26-1.77,2.43-2.83,3.5-.5.54-1.16.92-1.89,1.08-1.02.2-2.02-.47-2.22-1.5-.03-.14-.04-.28-.03-.42-.04-1.31.32-2.6,1.04-3.69.81-1.37,1.73-2.68,2.62-4.02.82-1.26,1.19-2.76,1.04-4.26-.12-2.09-1.16-4.02-2.83-5.27-.94-.71-1.69-1.55-2.57-2.29-.46-.4-.94-.77-1.37-1.2-.11-.11-.2-.36-.41-.24s-.12.32-.11.49c.07,1.34.48,2.64,1.2,3.78.87,1.32,1.76,2.63,2.62,3.95.68,1.03,1.17,2.19,1.43,3.4.2.76.2,1.57,0,2.33-.33.67-.96,1.15-1.7,1.28-1.17.06-2.3-.42-3.06-1.3-1.31-1.39-2.5-2.9-3.55-4.5-1.01-1.52-2.22-2.9-3.6-4.1-.54-.43-.79-.44-1.31,0-1.42,1.25-2.69,2.66-3.78,4.2-1.12,1.43-2.11,2.97-3.27,4.37-1.23,1.62-2.93,2.82-4.88,3.43-1.07.44-2.29.25-3.17-.5-.43-.41-.7-.97-.74-1.57-.09-2,.58-3.95,1.89-5.46,1.58-2.08,3.3-4.05,4.97-6.07.84-.87,1.5-1.89,1.97-3,.7-1.81.57-3.84-.35-5.55-.74-1.26-1.8-2.3-3.07-3.01-1.89-1.22-3.78-2.42-5.67-3.69-1.19-.76-2.13-1.85-2.72-3.14-.55-1.09-.11-2.42.98-2.97.16-.08.34-.15.52-.19,1.49-.33,3.05-.11,4.39.61,1.64.7,3.14,1.69,4.45,2.9,1.59,1.44,3.07,2.99,4.72,4.32,1.11.91,2.4,1.57,3.78,1.94,1.11.24,2.28,0,3.21-.65,1.83-1.2,3.56-2.56,5.17-4.05.52-.47.46-1.07.6-1.61.34-1.17.87-2.28,1.58-3.27.9-1.25,1.7-2.55,2.42-3.91.4-.89.58-1.86.55-2.83Zm7.7,26.89c.93-.03,1.85-.3,2.66-.77,2.05-1.11,3.57-2.83,5.25-4.38,1.09-1.03,2.31-1.92,3.63-2.63.41-.21.43-.4.23-.77-.83-1.43-2-2.64-3.39-3.52-1.42-1.01-2.71-2.17-3.86-3.48-1.01-1.14-1.62-2.56-2.63-3.69-.85-1.06-1.8-2.04-2.83-2.93-.19-.19-.49-.19-.68,0-1.03.77-1.92,1.7-2.65,2.76-.21.26-.05.35.15.47.61.35.97,1,.94,1.7-.1.97-.48,1.89-1.11,2.64-1.17,1.4-2.5,2.67-3.95,3.78-1.01.94-2.1,1.78-3.06,2.77-.26.26-.23.42.15.53,1.43.49,2.72,1.31,3.78,2.39,1.57,1.62,3.32,3.06,5.21,4.31.61.51,1.37.81,2.16.87v-.04Zm6.72,5.52c-.03.78.12,1.55.44,2.26,0,.08,0,.23.13.21s.08-.17.09-.26c.05-.39.13-.77.24-1.14.6-1.7,1.45-3.29,2.53-4.72.63-.82,1.2-1.7,1.69-2.61,0-.07.18-.15.07-.25s-.17,0-.27.09c-.67.46-1.38.89-2.06,1.34-1.82,1.06-2.91,3.02-2.86,5.12v-.04Z"/><path class="e" d="m110.38,85.54c-.14-2.33,1.06-4.53,3.09-5.67,2.64-1.57,6.06-.71,7.63,1.94.21.36.39.74.52,1.14.36.97.5,2.02.39,3.05-.26,2.39-1.8,4.45-4.03,5.37-2.92,1.03-6.13-.48-7.2-3.38-.29-.78-.43-1.61-.4-2.45Z"/><path class="e" d="m81.7,87.49c.09,2.31-1.16,4.46-3.21,5.52-1.98,1.05-4.39.78-6.09-.69-2.07-1.68-2.92-4.45-2.13-6.99.74-3.04,3.81-4.91,6.85-4.17,1.35.33,2.53,1.14,3.32,2.28.89,1.16,1.34,2.6,1.26,4.05Z"/><path class="e" d="m89.7,65.65c-.07-2.24,1.21-4.3,3.25-5.23,2.15-1.01,4.71-.28,5.99,1.72,1,1.36,1.32,3.1.86,4.72-.4,1.79-1.68,3.26-3.4,3.9-1.88.74-4.02.19-5.33-1.35-.93-1.03-1.42-2.38-1.37-3.77Z"/><path class="e" d="m91.43,99.51c-.12-2.4,1.32-4.61,3.57-5.46,2.2-.81,4.67.09,5.82,2.14,1.39,2.28,1.05,5.22-.82,7.12-1.85,1.97-4.94,2.07-6.91.22-.45-.42-.81-.92-1.07-1.47-.42-.78-.63-1.66-.6-2.55Z"/></g></g></svg>