<svg xmlns="http://www.w3.org/2000/svg" width="192" height="192"><rect width="153" height="153" x="19.5" y="19.5" rx="10" style="fill:#ccc;stroke-width:4"/><path d="M103.45 61.044c-4.27-.15-8.866.576-13.612 2.34-7.898 2.937-22.148 9.382-22.148 9.382a6.07 6.07 0 0 0-1.074.624s-2.914 2.076-4.86 5.765c-1.944 3.688-2.82 9.798.27 15.694 2.843 5.423 8.089 7.838 11.9 8.45 3.811.612 6.993-.133 6.993-.133.277-.062.549-.144.814-.246l20.208-7.66c7.81-2.743 3.368-14.44-4.296-11.316l-19.56 7.414c-.131.024-.98.193-2.238-.008-1.352-.216-2.2-.411-3.094-2.118-1.362-2.598-.841-3.366-.28-4.43.475-.901.903-1.224 1.07-1.367 1.103-.494 13.92-6.248 20.52-8.701 6.93-2.577 11.68-1.942 15.59.032 3.91 1.975 7.115 5.7 9.236 10.134 2.142 4.479-.345 11.515-4.434 13.954-9.451 5.64-23.894 12.016-23.894 12.016-.855.375-3.397 1.607-5.7 2.707-.622.298-.528.608-.367.883 1.062 1.818 2.406 3.682 3.422 5.248l6.094 9.4c4.372 6.875 14.661.206 10.163-6.587l-2.294-3.537c5.212-2.421 12.129-5.766 18.784-9.737 9.853-5.878 14.346-18.718 9.155-29.568-3.01-6.29-7.798-12.232-14.7-15.718-3.451-1.743-7.397-2.768-11.668-2.917z" style="color-rendering:auto;color:#000;dominant-baseline:auto;fill:#56595b;font-feature-settings:normal;font-variant-alternates:normal;font-variant-caps:normal;font-variant-ligatures:normal;font-variant-numeric:normal;font-variant-position:normal;image-rendering:auto;isolation:auto;mix-blend-mode:normal;shape-padding:0;shape-rendering:auto;solid-color:#000;stroke-width:4;text-decoration-color:#000;text-decoration-line:none;text-decoration-style:solid;text-indent:0;text-orientation:mixed;text-transform:none;white-space:normal"/></svg>