<?xml version="1.0" encoding="UTF-8"?><svg id="a" xmlns="http://www.w3.org/2000/svg" width="192" height="192" viewBox="0 0 192 192"><defs><style>.d{fill:#e0f4e0;}.d,.e{stroke-width:0px;}.e,.f{fill:#73ada4;}.g,.h,.f{stroke-width:.87px;}.g,.h,.f,.i{stroke:#73ada4;stroke-linecap:round;stroke-linejoin:round;}.g,.i{fill:none;}.h{fill:#56595b;}.i{stroke-width:1.73px;}</style></defs><g id="b"><g id="c"><rect class="d" x="20" y="20" width="152" height="152" rx="10" ry="10"/><path class="i" d="m83.1,68.75h-8.99v8.44"/><path class="i" d="m74.11,85.31v34.75h5.85"/><path class="i" d="m109.4,68.75h8.99v20.79"/><path class="i" d="m85.26,120.06h33.13v-10.28"/><path class="i" d="m118.4,104.8v-11.26"/><circle class="e" cx="70.6" cy="80.27" r="2.65"/><circle class="e" cx="55.3" cy="91.78" r="4.3"/><circle class="e" cx="66.56" cy="100.33" r="2.03"/><circle class="e" cx="61.83" cy="109.55" r="2.44"/><path class="h" d="m61.83,109.55l-6.52-17.78"/><path class="h" d="m74.11,94.78l-18.81-3"/><path class="h" d="m70.6,80.27l-15.29,11.5"/><path class="h" d="m66.56,100.33l7.55,4.3"/><circle class="f" cx="67.09" cy="122.16" r="2.11"/><circle class="f" cx="79.28" cy="130.6" r="2.28"/><circle class="f" cx="83.88" cy="109.54" r="2.81"/><circle class="f" cx="84.07" cy="96.73" r="1.97"/><circle class="f" cx="84.12" cy="83.92" r="2.99"/><circle class="f" cx="96.87" cy="79.33" r="2.3"/><circle class="f" cx="93.52" cy="91.21" r="2.39"/><circle class="f" cx="108.92" cy="91.23" r="3.25"/><circle class="f" cx="109.07" cy="81.53" r="3.66"/><circle class="f" cx="128.37" cy="90.77" r="2.99"/><circle class="f" cx="137.82" cy="87.94" r="2.22"/><circle class="f" cx="138.19" cy="99.83" r="2.55"/><circle class="f" cx="138.86" cy="115.12" r="2.14"/><circle class="f" cx="128.26" cy="108.5" r="2.72"/><circle class="f" cx="108.59" cy="106.39" r="2.91"/><circle class="f" cx="93.64" cy="106.22" r="2.66"/><path class="g" d="m67.09,122.16l12.19,8.43,4.59-21.05.19-12.82.06-12.8,12.75-4.59,12.19,2.2"/><path class="g" d="m93.52,91.21l15.41.02,19.44-.46-.11,17.72,10.6,6.62"/><path class="g" d="m93.64,106.22l14.95.17,19.67,2.11-9.86,6.42"/><path class="g" d="m118.4,68.75l9.98,22.03"/><path class="f" d="m87.81,66.26c-.96,3.24-3.25,5.29-5.63,7.25h28.42c-2.28-1.88-4.44-4.02-6.01-7.47l-16.78.22Z"/><circle class="e" cx="96.43" cy="63.88" r="4.76"/><circle class="d" cx="96.43" cy="63.88" r="2.23"/></g></g></svg>