<?xml version="1.0" encoding="UTF-8"?>
<svg version="1.1" viewBox="0 0 192 192" xmlns="http://www.w3.org/2000/svg" xmlns:xlink="http://www.w3.org/1999/xlink">
 <defs>
  <linearGradient id="linearGradient5" x1="-92.255" x2="-289.2" y1="69.606" y2="170.42" gradientTransform="matrix(.88838 0 0 .88838 266.94 -4.5452)" gradientUnits="userSpaceOnUse">
   <stop style="stop-color:#f8c18c" offset="0"/>
   <stop style="stop-color:#ff837d" offset=".39975"/>
   <stop style="stop-color:#728dbe" offset=".68118"/>
   <stop style="stop-color:#9abeff" offset="1"/>
  </linearGradient>
 </defs>
 <path d="m110.38 45.145a26.992 26.992 0 0 0-22.761 12.496 26.992 26.992 0 0 0-12.451-3.0486 26.992 26.992 0 0 0-26.783 24.062 34.231 34.231 0 0 0-4.1348-0.262 34.231 34.231 0 0 0-34.23 34.232 34.231 34.231 0 0 0 34.23 34.23h97.94a39.783 39.783 0 0 0 39.783-39.783 39.783 39.783 0 0 0-29.067-38.299 26.992 26.992 0 0 0-21.966-14.115 26.992 26.992 0 0 0-20.559-9.5136z" style="fill:url(#linearGradient5);stroke-linecap:round;stroke-linejoin:round;stroke-width:17.768"/>
</svg>
