<?xml version="1.0" encoding="UTF-8"?>
<svg version="1.1" viewBox="0 0 192 192" xmlns="http://www.w3.org/2000/svg">
 <rect class="a" x="20" y="20" width="152" height="152" rx="10" style="fill:#ba6561"/>
 <path d="m97.126 75.87c-6.566-1.85e-4 -12.301 4.4418-13.942 10.799-1.9004-0.82466-3.9498-1.2502-6.0214-1.2504-7.5707-6.7e-5 -13.976 5.5961-14.992 13.098-5.9771 1.9469-10.022 7.5192-10.022 13.805-2.13e-4 8.019 6.5005 14.52 14.519 14.519 1.8131-1.4e-4 3.6102-0.33988 5.2982-1.0017 4.3038 5.3946 10.83 8.5363 17.731 8.5359 5.1523 5e-5 10.151-1.7542 14.173-4.9739 2.2019 1.5045 4.8067 2.3093 7.4735 2.3093 3.4144-4e-5 6.6969-1.3184 9.1628-3.68 0.4331 0.0349 0.86742 0.0525 1.3019 0.0528 9.0276-1.2e-4 16.346-7.3187 16.345-16.346-1.2e-4 -9.0271-7.318-16.345-16.345-16.345-4.6563-1.97e-4 -8.0805-0.33422-11.182 3.139-0.33433-0.6139-1.708 1.1077-2.0976 0.52727 1.9423-2.5191 2.9957-5.6105 2.9958-8.7914-3.1e-4 -7.9521-6.447-14.398-14.399-14.398z" style="fill:#fff;stroke-linecap:round;stroke-linejoin:round;stroke-width:5.8678"/>
 <path d="m85.515 92.429 7.7482 7.8878-2.5827 2.7223c2.7456 3.7926 6.0496 7.1199 9.912 9.9819l2.7921-2.7223 7.4689 7.6086s-2.5635 4.1073-4.607 4.0486c-11.726-0.33672-24.705-12.985-25.059-24.71-0.06517-2.1574 4.3278-4.8164 4.3278-4.8164z" style="fill:#ba6561;stroke-linecap:round;stroke-linejoin:round;stroke-width:5.8678"/>
 <circle cx="117.79" cy="79.687" r="22.063" style="fill:#ff837d;stroke-linecap:round;stroke-linejoin:round;stroke-width:5.8678"/>
 <text x="118.43575" y="85.772446" style="fill:#ffffff;font-family:Now;font-size:16.201px;font-weight:bold;stroke-linecap:round;stroke-linejoin:round;stroke-width:8.6792;text-align:center;text-anchor:middle" xml:space="preserve"><tspan x="118.43575" y="85.772446" style="stroke-width:8.6792">2.0</tspan></text>
</svg>
