<svg xmlns="http://www.w3.org/2000/svg" width="192" height="192" fill="none"><g clip-path="url(#a)"><path fill="#9ABEFF" fill-rule="evenodd" d="M173 29v133c0 5.52-4.47 10-10 10H30c-.43 0-.85-.03-1.26-.08a9.65 9.65 0 0 1-2.68-.72C22.5 169.66 20 166.13 20 162V29c0-5.53 4.48-10 10-10h133c5.53 0 10 4.47 10 10Z" clip-rule="evenodd"/><path fill="#FFB0AC" d="M167.08 157.19c-2.21-1.65-4.41-3.31-6.62-4.96l-.15-.12c-.05-.03-.1-.08-.15-.11-3.33-2.49-6.66-4.98-9.99-7.48-3.95-2.96-7.91-5.92-11.87-8.87-.54-.41-1.09-.82-1.63-1.22.61-.56 1.45-1.36 2.41-2.36.63-.65 1.31-1.39 2.04-2.22 3.15-3.6 7.04-8.87 9.89-15.56 1.96-4.59 3.43-9.86 3.84-15.72.1-1.49 1.06-17.2-5.26-25.25-.61-.77-2.88-3.5-6.05-6.92-.63-.69-1.31-1.4-2.01-2.13-1.62-1.68-3.01-3.04-3.94-3.94-.01-.2-.02-.39-.02-.59-.03-1.03-.05-2.07-.07-3.12-.07-5.96.17-11.65.63-17.05 1.24.36 3.06.74 5.26.71 2.45-.03 4.9-.05 5.65-1.43 1-1.84-1.63-5.02-2.69-6.31a16.387 16.387 0 0 0-3.62-3.24c-5.41-2.62-10.07-3.71-13.27-4.22-4.56-.72-6.4-.3-7.24-.06-3.67 1.05-5.64 3.63-8.28 6.69-3.86 4.49-7.38 8.57-11.65 11.9-2.54 1.99-8.37 6.43-16.78 7.45-2.15.26-3.96.24-5.23.17-2.03-3.72-4.29-6.07-5.93-7.51-1.02-.89-1.95-1.55-6.2-4.3-2.95-1.91-5.42-3.49-7.19-4.6-.55-.4-1.59-1-2.89-.95 0 0-1.24.04-2.48.9-9.33 6.44-10.2 18.93-10.2 18.93-.37 5.38.84 10.23 3.28 19.61.07.3.15.59.23.9.37 1.39 1.38 5.17 1.63 10.28.01.08.02.16.02.25.07 1.66.05 3.05.01 4.03 0 .06 0 .12-.01.18v.07l-.03.06c-8.46 17.54-16.68 39.31-21.69 64.98-1.16 5.88-2.06 11.6-2.76 17.13.84.37 1.73.61 2.68.72.4.06.83.09 1.25.09h132.74c1.89-2.64 3.69-6.19 4.23-10.53.08-.64.13-1.27.15-1.86.03-.85.01-1.65-.04-2.42Zm-50.97-78.32c.4-.48.98-1.03 1.81-1.52 6.56-3.03 13.12-6.04 19.69-9.07 1.05-.48 2.12-.98 3.17-1.46.27.2.56.44.87.7.91.77 1.93 1.8 2.87 3.13 3.26 4.57 4.76 11.44 2.35 17.28-3.77 9.11-16.29 13.85-24.51 9.33-5.08-2.79-6.92-8.24-7.48-10.2-.19-.66-1.37-5.08 1.23-8.19Z"/><path fill="#FF837D" d="M146.87 87.92c-3.77 9.11-16.29 13.85-24.51 9.33-5.08-2.79-6.92-8.24-7.48-10.2-.19-.65-1.37-5.07 1.23-8.19.4-.48.98-1.03 1.81-1.52 6.56-3.03 13.12-6.04 19.69-9.07.71-.02 1.29-.09 1.73-.15.98-.14 1.6-.24 2.3-.61.91.77 1.93 1.8 2.87 3.13 3.28 4.57 4.78 11.44 2.36 17.28Z"/><path fill="#7A1B1C" d="M129.6 90.58c-.89 0-1.73-.57-2.02-1.46l-2.14-6.54c-.37-1.12.24-2.32 1.36-2.68 1.12-.36 2.32.24 2.68 1.36l2.14 6.54c.37 1.12-.24 2.32-1.36 2.68-.22.06-.44.1-.66.1ZM138.67 85.78c-.87 0-1.68-.53-2-1.4l-1.97-5.4c-.4-1.1.16-2.32 1.27-2.73 1.1-.4 2.32.16 2.73 1.27l1.97 5.4a2.132 2.132 0 0 1-2 2.86Z"/><path fill="#000" d="M121.95 101.42c-.5.68-1.27 1.66-2.3 2.75-1.15 1.21-3.95 4.15-7.72 6.18-.86-.86-1.7-1.53-2.48-2.07-5.97-4.1-13.12-3.61-18-2.53-5.47-5.61-7.07-12.4-7.61-15.51h2.52c.41.67 1.04 1.63 1.92 2.69.12.14.24.28.38.43v.01c.17.72.38 1.47.65 2.25 1.38 3.95 3.56 6.72 5.1 8.34 3.95.03 7.9.08 11.85.11 1.12-.58 2.24-1.16 3.37-1.74 6.05.28 11.15-.68 12.32-.91Z"/><path fill="#fff" d="M109.63 102.31c-1.12.58-2.24 1.16-3.37 1.74-3.95-.03-7.9-.08-11.85-.11a23.322 23.322 0 0 1-5.1-8.34c-.27-.78-.48-1.53-.65-2.25 3.51 4.02 7.62 5.74 9.82 6.65 3.62 1.5 7.55 2.13 11.15 2.31Z"/><path fill="#B02A3C" d="M111.93 110.34c-2.51 1.35-5.44 2.3-8.59 2.08-4.8-.33-8.09-3.22-10.45-5.3-.51-.45-.99-.91-1.45-1.38 4.88-1.08 12.04-1.56 18 2.53.79.54 1.63 1.21 2.49 2.07Z"/><path fill="#56595B" d="M78.68 132.05c-.65.9-2.25 1.13-3.46.16-3.9-2.07-7.28-3.38-9.65-4.2-6.45-2.22-11.21-3.79-16.51-2.35-3.37.91-5.6 2.67-6.66 3.53-7.49 6.02-8.67 15.71-13.19 40.18-.15.85-.31 1.7-.47 2.55a9.65 9.65 0 0 1-2.68-.72C22.5 169.66 20 166.13 20 162v-1.07c.17-.04.33-.06.48-.07 1.19-3.51 2.59-7.22 4.24-11.08 1.34-3.14 2.73-6.09 4.11-8.84.09-3.88.19-7.77.27-11.65-.3-.1-4-1.47-4.99-5.32-.82-3.24.77-6.22 2.58-7.79.63-.54 1.25-.88 1.7-1.1v-7.29c1.46-1.93 3.14-3.92 5.05-5.92 5.85-6.13 11.98-10.28 17.12-13.08.02-.01.03-.02.04-.03-.02.07-.03.14-.05.2l-.03.13c-1.45 5.95-2.41 8.6-3.04 9.92-.68 1.43-1 2.99-1.62 4.45-.11.26-.25.7-.27 1.25-.02.54.09.96.19 1.23 1.24.93 3.1 2.3 5.42 3.87 4.79 3.23 5.78 3.43 10.62 6.46 8.94 5.59 13.23 9.7 14.72 11.19.92.91 1.65 1.68 2.14 2.22.45.79.45 1.73 0 2.37Z"/><path fill="#C39A54" d="M162.59 148.16c-4.06 9.77-13.71 16.65-24.96 16.65-14.93 0-27.03-12.1-27.03-27.02 0-13.4 9.74-24.51 22.52-26.65-11.24 2.85-19.55 13.03-19.55 25.15 0 14.32 11.62 25.94 25.95 25.94 10.05 0 18.77-5.72 23.07-14.07Z"/><path fill="#F9DE81" d="M164.65 137.79c0 3.67-.73 7.17-2.07 10.37-4.3 8.36-13.01 14.08-23.07 14.08-14.33 0-25.95-11.62-25.95-25.94 0-12.12 8.31-22.3 19.55-25.15 1.46-.26 2.97-.38 4.5-.38 14.94-.01 27.04 12.08 27.04 27.02Z"/><path fill="#56595B" d="M124.83 151.79c-.35 2.03-1.18 3.57-1.82 4.52-.05.09-.11.17-.16.25-.82.6-1.69 1.25-2.58 1.95a75.065 75.065 0 0 0-6.8 6.11 72.927 72.927 0 0 0-6.36 7.38H92.18c-3.25-3.97-8.51-11.82-6.85-19.73.43-2.03 1.31-6.21 4.54-7.39 2.35-.86 4.77.32 5.67.82.57-.56 1.45-1.38 2.6-2.24 0 0 5.12-3.8 12.48-4.46.99-.09 2.01-.12 3.09-.07 1.81.07 3.72.35 5.7.93 1.05.31 2.18.77 2.47 1.73.48 1.55-1.62 3.33-1.88 3.55-.11.22-.25.57-.29 1.03-.02.23 0 .43.03.6 1.69-.74 3.49-.77 4.52.16 1.21 1.1.87 3.1.57 4.86ZM173 136.27v13.39a34.41 34.41 0 0 1-1.75 5.66c-1.21 1.73-2.61 3.18-4.12 4.28-3.01 2.21-6.43 3.08-9.43 2.24-.9-.25-2.41-.83-3.97-2.36-.15-.15-.31-.31-.47-.48 1.62-.89 4.06-2.53 6.09-5.38a17.723 17.723 0 0 0 1.55-2.63c.11-.25.22-.48.31-.71-.24-1.01-2.75-11.58-1.75-14.04.19-.45.61-1.51 1.43-1.64.32-.06.62.06.82.16.07-.56-.03-.96-.11-1.21-.18-.51-.52-.97-.82-1.3-.31-.33-.56-.54-.57-.54.77-2.35.82-2.46.82-2.46.31-.65.9-1.23 1.63-1.67 1.1-.65 2.5-1 3.71-.82 3.31.49 4.95 4.83 6.03 7.68.24.63.44 1.25.6 1.83ZM143.54 66.39c-.31.19-.63.37-.94.56-.6.35-.89.53-.94.55-.71.37-1.33.47-2.3.61-.44.07-1.03.14-1.73.15-7.32.25-14.65.51-21.96.76a71.1 71.1 0 0 0-4.65 4.36c-4.18 4.27-4.85 6-7.28 7.4-2.41 1.39-4.66 1.36-9.38 1.15-12.56-.55-17.72-1.07-17.72-1.07-11.8-1.17-14.85-1.6-19.25-.08-3.06 1.05-5.35 2.57-6.84 3.7-.64-.19-1.27-.42-1.75-.99-.83-.97-.94-2.46-.29-3.78-.62 1.29-1.74 3.15-3.74 4.61-1.95 1.4-3.37 1.45-5.47 2.51-1.62.81-3.84 2.32-6 5.39-.48-.31-1.58-1.15-2.01-2.59-.12-.39-.42-1.56.32-3.49 1.4-3.66 4.82-5.68 6.91-6.87 1.39-.8 3.56-1.85 6.46-2.55-.17-.13-.44-.3-.78-.46-1.98-.91-3.91-.21-5.68.2-1.47.36-6.93 1.66-8.84-.49-.57-.64-.71-1.46-.74-2.09.3-.89 1.19-3.14 3.41-4.32 1.32-.71 2.75-.84 4.98-.54 2.26.31 7 .94 11.36 4.28.08.18.62 1.39 2 1.81 1.19.37 2.18-.1 2.39-.2 3.28-1.19 6.58-2.37 9.89-3.55a2140.67 2140.67 0 0 1 42.8-14.76c2.28-1.32 3.94-2.62 5.02-3.54 4.37-3.71 5.16-6.32 8.68-7.28 1.1-.3 2.15-.35 4.19-.45 2.79-.14 4.17-.21 5.27.12 4.39 1.33 6.49 7.63 7.53 10.79.68 2.03.47 2.28 1.06 3.37.02.04.04.08.07.11 0 .2.01.39.02.59.93.9 2.32 2.26 3.94 3.94.68.74 1.36 1.46 1.99 2.14Z"/><path fill="#fff" d="M108.26 72.41c-.44 3.09-2.68 5.93-5.81 6.79-2.07.57-4.33.2-6.16-.79 1.58.2 3.24-.01 4.6-.61.37-.15 3.52-1.61 3.71-4.11.11-1.5-.88-2.82-1.53-3.66-1.45-1.92-2.65-1.87-3.03-3.28-.31-1.16.27-2.02.31-2.69 1.35-.37 2.86-.4 4.33.34 2.98 1.49 3.97 5.19 3.58 8.01ZM131.27 63.3c-.19.65-.67 2.33-2.08 3.3-.98.66-2.28.91-3.66.8.99-.65 1.77-1.63 2.21-2.68.76-1.82.75-4.43-.61-5.64-1.04-.92-2.55-.79-2.8-1.77-.16-.62.35-1.03.12-1.4-.37-.6-2.15-.25-3.37.16-.62.21-1.88.64-3.06 1.34.29-.78.73-1.53 1.35-2.18 1.28-1.33 2.85-1.73 3.56-1.86.33-.01 4.9 0 7.29 3.67.32.49 1.95 3.12 1.05 6.26Z"/><path fill="#000" d="M104.59 73.68c-.19 2.51-3.34 3.96-3.71 4.11-1.36.6-3.02.82-4.6.61-1.83-.97-3.25-2.55-3.66-4.44-.81-3.61 2.42-6.66 3-7.19.3-.28 2.25-2.07 4.72-2.73-.04.66-.63 1.53-.31 2.69.38 1.41 1.58 1.36 3.03 3.28.65.85 1.64 2.17 1.53 3.67ZM127.75 64.72a6.107 6.107 0 0 1-2.21 2.68c-.01-.01-.01 0-.01 0-3.09-.24-6.56-2.26-7.58-5.35-.43-1.33-.49-3.04.08-4.62 1.18-.71 2.44-1.13 3.06-1.34 1.22-.41 3.01-.76 3.37-.16.23.37-.28.78-.12 1.4.25.98 1.76.85 2.8 1.77 1.35 1.19 1.37 3.8.61 5.62Z"/><path fill="#C39A54" d="M132.97 147.32c-1.48-4.04-2.97-8.09-4.45-12.13 2.93 1.7 5.85 3.41 8.78 5.11.91-4.22 1.83-8.45 2.74-12.67l5.1 10.47c2.21-1.57 4.42-3.14 6.64-4.72-.66 4.55-1.32 9.1-1.97 13.65-5.62.11-11.23.2-16.84.29ZM126.72 133.94a2.14 2.14 0 1 0 0-4.28 2.14 2.14 0 0 0 0 4.28ZM139.85 126.1a2.22 2.22 0 1 0 0-4.44 2.22 2.22 0 0 0 0 4.44ZM153.04 131.42a2.03 2.03 0 1 0 0-4.06 2.03 2.03 0 0 0 0 4.06Z"/><path fill="#F4806D" d="M59.76 37.9c3.41 1.64 7.86 4.31 12.13 8.6 1.88 1.89 3.41 3.77 4.65 5.51-2.73.92-6.21 2.44-9.83 4.98-6.33 4.45-9.9 9.83-11.72 13.12-1.63-3.4-3.25-8.12-3.41-13.82-.11-3.69-.24-8.24 2.59-12.78 1.79-2.89 4.09-4.65 5.59-5.61Z"/></g><defs><clipPath id="a"><path fill="#fff" d="M0 0h192v192H0z"/></clipPath></defs></svg>