<?xml version="1.0" encoding="UTF-8"?>
<svg version="1.1" viewBox="0 0 192 192" xmlns="http://www.w3.org/2000/svg">
 <circle class="a" cx="96" cy="96" r="88" style="fill:#56595b"/>
 <g id="group" transform="matrix(.1765 0 0 .1765 50.816 50.378)" stroke-linecap="round" stroke-linejoin="round">
  <path d="m253 256h6v129h-6z" fill="#ff4d4d" stroke="#00000000" stroke-width="22.927" style="fill:#ff837d"/>
  <g fill="#fff" stroke="#00000000">
   <path d="m253 400h6v50h-6z" style="fill:#fff"/>
   <path d="m152.06 355.7 4.24 4.24-35.36 35.36-4.24-4.24z" style="fill:#fff"/>
   <path d="m391.06 116.7 4.24 4.24-35.36 35.36-4.24-4.24z" style="fill:#fff"/>
   <path d="m112 253v6h-50v-6z" style="fill:#fff"/>
   <path d="m450 253v6h-50v-6z" style="fill:#fff"/>
   <path d="m355.7 359.94 4.24-4.24 35.36 35.36-4.24 4.24z" style="fill:#fff"/>
   <path d="m116.7 120.94 4.24-4.24 35.36 35.36-4.24 4.24z" style="fill:#fff"/>
  </g>
  <path d="m256 256m-225 0c-0.151-47.606 14.811-94.054 42.721-132.62 27.909-38.568 67.351-67.3 112.62-82.04s94.065-14.74 139.33 0 84.709 43.472 112.62 82.04c27.91 38.567 42.872 85.015 42.721 132.62 0.151 47.606-14.811 94.054-42.721 132.62-27.909 38.568-67.351 67.3-112.62 82.04s-94.065 14.74-139.33 0-84.709-43.472-112.62-82.04c-27.91-38.567-42.872-85.015-42.721-132.62" fill-opacity=".0092012" stroke="#d0bcff" stroke-width="40" style="fill:none;stroke:#bd9aff"/>
  <g fill="#d0bcff" stroke="#d0bcff">
   <path d="m201 63h55v30h-25c-5.266 0-10.44-1.386-15-4.019s-8.348-6.421-10.981-10.981-4.019-9.734-4.019-15z" style="fill:#bd9aff;stroke:#bd9aff"/>
   <path d="m256 63h55c0 7.953-3.163 15.589-8.787 21.213s-13.26 8.787-21.213 8.787h-25z" style="fill:#bd9aff;stroke:#bd9aff"/>
   <path d="m201 63.85h55v-30h-55z" style="fill:#bd9aff;stroke:#bd9aff"/>
   <path d="m256 63.85h55v-30h-55z" style="fill:#bd9aff;stroke:#bd9aff"/>
  </g>
  <path d="m348.58 113.44-92.59 142.58c-2.946-1.912-5.361-4.529-7.002-7.586-1.64-3.058-2.45-6.449-2.346-9.832s1.117-6.64 2.938-9.442l71.86-110.65c1.819-2.802 4.382-5.052 7.429-6.523 3.048-1.47 6.475-2.11 9.934-1.855 3.46 0.255 6.833 1.396 9.777 3.308z" fill="#696ad6" stroke="#696ad6" stroke-width=".97544" style="fill:#8c72bd;stroke:#8c72bd"/>
  <g>
   <path d="m348.58 113.44c2.945 1.912 5.335 4.566 6.929 7.695 1.594 3.128 2.336 6.622 2.152 10.128s-1.288 6.903-3.201 9.847l-70.8 109.03c-1.912 2.945-4.566 5.335-7.695 6.929-3.128 1.594-6.622 2.336-10.128 2.152s-6.903-1.288-9.847-3.201z" fill="#696ad6" stroke="#696ad6" style="fill:#8c72bd;stroke:#8c72bd"/>
   <path d="m477.89 58.81-12.44-12.44-28.28 28.28 39.65 39.65c7.498-7.498 11.829-17.564 12.031-27.966 0.203-10.403-3.739-20.31-10.951-27.524z" fill="#d0bcff" stroke="#d0bcff" style="fill:#bd9aff;stroke:#bd9aff"/>
   <path d="m453.11 34.03 12.44 12.44-28.28 28.28-39.65-39.65c7.498-7.498 17.564-11.829 27.966-12.031 10.403-0.203 20.31 3.739 27.524 10.951z" fill="#d0bcff" stroke="#d0bcff" style="fill:#bd9aff;stroke:#bd9aff"/>
  </g>
 </g>
</svg>
