<?xml version="1.0" encoding="UTF-8"?>
<svg version="1.1" viewBox="0 0 192 192" xml:space="preserve" xmlns="http://www.w3.org/2000/svg">
	 <path d="m128.12 151.64c-1.9509 15.972-15.561 28.349-32.065 28.349-16.516 0-30.138-12.394-32.071-28.395-9.0366 3.8728-19.723 3.5892-28.893-1.7078-15.451-8.9151-20.742-28.667-11.827-44.118 2.2577-3.9018 5.1985-7.1552 8.5909-9.6966-12.915-9.6619-16.852-27.677-8.5909-41.988 8.2783-14.334 25.871-19.926 40.708-13.54 1.8641-16.064 15.515-28.534 32.083-28.534 16.539 0 30.172 12.423 32.077 28.447 14.802-6.2811 32.308-0.67731 40.552 13.604 8.2667 14.31 4.3302 32.32-8.5851 41.982 12.95 9.6503 16.91 27.689 8.6372 42.022-8.2609 14.299-25.802 19.897-40.616 13.575" fill="#f8c18c"/><path d="m70.213 147.68c0-4.5444 0.7931-8.1162 3.2361-12.533-7.2652 12.128-22.843 16.169-35.081 9.1003-12.36-7.1378-16.597-22.936-9.4592-35.296 4.307-7.462 10.559-12.012 19.729-13.06-4.1912-0.43417-7.0163-1.453-10.27-3.3287-12.36-7.1378-16.597-22.942-9.4592-35.301 7.1321-12.354 22.936-16.591 35.296-9.4534 3.8207 2.2056 6.449 4.5791 9.0366 8.7414-2.3098-4.3418-3.0277-7.8094-3.0277-12.238 0-14.276 11.572-25.848 25.842-25.848 14.276 0 25.842 11.572 25.842 25.848 0 4.2954-0.70047 7.6704-2.9061 11.92 2.5703-4.0176 5.1348-6.3042 8.8514-8.4462 12.354-7.1378 28.158-2.9003 35.296 9.4534 7.1321 12.36 2.9003 28.164-9.4592 35.296-3.5024 2.0262-6.5532 3.074-11.057 3.4039 4.5328 0.38207 7.5894 1.5225 11.103 3.5545 12.36 7.1321 16.591 22.936 9.4592 35.296-7.1378 12.36-22.936 16.591-35.296 9.4592-3.8092-2.1998-6.4258-4.5559-9.0135-8.7009 2.2866 4.307 3.0219 7.7457 3.0219 12.134 0 14.276-11.566 25.842-25.842 25.842-14.27 0-25.842-11.566-25.842-25.842" fill="#f9de81"/><path d="m70.213 147.68c0-4.5444 0.7931-8.1162 3.2361-12.533-7.2652 12.128-22.843 16.169-35.081 9.1003-12.36-7.1378-16.597-22.936-9.4592-35.296 4.307-7.462 10.559-12.012 19.729-13.06-4.1912-0.43417-7.0163-1.453-10.27-3.3287-12.36-7.1378-16.597-22.942-9.4592-35.301 7.1321-12.354 22.936-16.591 35.296-9.4534 3.8207 2.2056 6.449 4.5791 9.0366 8.7414-2.3098-4.3418-3.0277-7.8094-3.0277-12.238 0-14.276 11.572-25.848 25.842-25.848 14.276 0 25.842 11.572 25.842 25.848 0 4.2954-0.70047 7.6704-2.9061 11.92 2.5703-4.0176 5.1348-6.3042 8.8514-8.4462 12.354-7.1378 28.158-2.9003 35.296 9.4534 7.1321 12.36 2.9003 28.164-9.4592 35.296-3.5024 2.0262-6.5532 3.074-11.057 3.4039 4.5328 0.38207 7.5894 1.5225 11.103 3.5545 12.36 7.1321 16.591 22.936 9.4592 35.296-7.1378 12.36-22.936 16.591-35.296 9.4592-3.8092-2.1998-6.4258-4.5559-9.0135-8.7009 2.2866 4.307 3.0219 7.7457 3.0219 12.134 0 14.276-11.566 25.842-25.842 25.842-14.27 0-25.842-11.566-25.842-25.842z" fill="none" stroke="#f8c18c" stroke-miterlimit="3.864" stroke-width=".86835"/><path d="m70.213 95.997c0-14.27 11.572-25.842 25.842-25.842 14.276 0 25.842 11.572 25.842 25.842 0 14.27-11.566 25.842-25.842 25.842-14.27 0-25.842-11.572-25.842-25.842" fill="#f8c18c"/></svg>
