<?xml version="1.0" encoding="UTF-8"?><svg id="a" xmlns="http://www.w3.org/2000/svg" width="192" height="192" xmlns:xlink="http://www.w3.org/1999/xlink" viewBox="0 0 192 192"><defs><clipPath id="d"><circle id="e" cx="96" cy="96" r="88" style="fill:none;"/></clipPath></defs><g id="b"><g id="c"><g style="clip-path:url(#d);"><circle id="f" cx="95.94" cy="96" r="88" style="fill:#bd9aff;"/><path d="m63.56,136.43c-5.15,2.01-7.75,2.51-12.23,6.25.6-1.4.13-3.14,1.87-4.35,2.68-2.07,10.56-2.52,13.37-4.19l.24.57-3.17,1.08h0l-.07.64Z" style="fill:#56595b;"/><path d="m21.16,144.76c5.08-2.88,9.3-3.54,9.3-3.54l13.84-.33,7.36,1.47,2.6-2.16c.89-.74,1.89-1.34,2.96-1.79l10.02-4.15,55.65.33,4.61,11.7,6.89,3.21,11.37,3.21,20.8-2.14c-46.08,59.06-121.86,33.84-145.47-5.75l.07-.07Z" style="fill:#fff;"/><path d="m71.32,75.8l1.54-2.07s27.09-9.97,33.37-9.43l5.22,2.34,9.97,8.23,4.21,8.56,1.54,18.86-1.74,10.57-.2,5.02-.47,9.3-1.07,5.28-10.63,3.01-1.34,1.27-4.35,3.81-10.5,4.82-8.83,1.07-5.28-1.34-3.81-.33-3.68-1.2-4.41-5.75-4.08-5.15-2.41-7.29.2-4.61-.8-5.69,2.54-8.56,1.2-3.28-.47-3.95-.47-1.74-.94-4.55-1-3.21-.27-3.28,1-1.47,2.34-.8,1.2-1.47,2.41-6.96h0Z" style="fill:#fcecdc;"/><path d="m46.8,144.07c-3.61,2.68-5.62,5.28-10.63,11.1-1.87,2.34-1.87,2.41-5.02,5.82l1.67,1.67c1.27-2.34,1.4-2.34,3.28-5.35,3.14-4.82,6.96-9.83,10.7-13.24h0Z" style="fill:#56595b;"/><path d="m48.2,143.73c-3.88,3.75-6.09,7.36-12.04,17.32-.94,1.74-.67,1-1.94,3.08l1.81,1.81c.47-1.07-.47,1.07.13-.47,3.08-6.89,7.83-16.39,12.04-21.74h0Z" style="fill:#56595b;"/><path d="m37.46,144.25c3.64-1.66,10.35-1.52,14.19-1.9-7.44-3.58-21.44-2.73-29.7,1.54,7.16.12,11.88-1.98,12.24.8h.08c1.08.2,2.18.01,3.18-.44Z" style="fill:#56595b;"/><path d="m37.5,166.54l2.01,1.81c2.21-7.83,5.69-17.59,10.23-24.88-3.88,4.95-5.35,7.62-12.24,23.07h0Z" style="fill:#56595b;"/><path d="m158.47,150.18c-12.89.86-17.27.35-31-3.96.51,1.31,1.36,2.88,2.96,3.06,13.27,2.26,9.81,11.95,22.87,7.64,3.16-2.8,10.25-5.86,14.33-6.67l-9.16-.07h0Z" style="fill:#56595b;"/><path d="m117.39,187.97c12.69-4.12,7.33-22.92,10.3-35.65-2.81,13.11-6.42,26.15-10.3,35.65h0Z" style="fill:#56595b;"/><path d="m85.03,153.39c-1.27-1.87-3.41-4.82-4.08-5.75-.8-.94-11.44,8.53-12.51,9.03-.52.24-10.43,8.56-12.51,9.36-2.01.6,3.14.2,3.95-.47,0,.6.27,2.21.27,2.21l9.97-5.62c1.61,7.75-6.36,13.18-10.17,16.45,1.41.44,15.02,5.58,16.12,5.35.47-4.21,1.27-18.39,2.01-17.32.94,1.07,5.75-2.47,5.15-3.01,2.21,1.74,4.35,3.41,6.55,5.02-1.47-5.08-3.21-10.1-4.75-15.25h0Z" style="fill:#56595b;"/><path d="m126.31,152.07c-5.07,11.85-10.97,25.71-16.59,36.79,11.99-3.82,11.79-26.16,16.59-36.79h0Z" style="fill:#56595b;"/><path d="m125,151.33c-7.97,12.06-13.93,26.18-21,38.59,10.85-5.75,14.09-27.38,21-38.59Z" style="fill:#56595b;"/><path d="m79.55,116.47c3.86-.47,7.45,2.93,10.77,3.74-.6.97-10.7-.2-10.77-3.74h0Z" style="fill:#56595b;"/><path d="m103.28,113.39c8.36-.34-3.5,6.42-5.28,5.22-2.72,1.74-2.86,1.72-7.83,1.67,2.15-1.92,9.88-4.52,13.11-6.89h0Z" style="fill:#56595b;"/><path d="m115.6,81.35c.8,2.68.47,2.34-.6,4.21-.13.13.8,0,1.07.6.13.13,2.01-2.21-.47-4.82h0Z" style="fill:#56595b;"/><path d="m85.5,72.32c3.54-.14,7.56.08,10.3,2.61,2.7-2.73,6.72-2.87,10.3-2.47-3.55-.13-8.44.07-10.17,3.75-2.64-2.97-6.59-3.94-10.43-3.88h0Z" style="fill:#56595b;"/><path d="m91.12,70.72c2.84,1.17,6.2,1.22,9.03,0-2.82.94-6.19.56-9.03,0h0Z" style="fill:#56595b;"/><path d="m91.12,86.17l.8-4.35h-1.14v-3.41l-1.54.8-.8-2.47s-1.4,2.21-1.27,2.21c-.13,0-2.01-2.01-1.87-2.01-.13,0-.13,1.54-.13,1.54l-1.87-1.27h0l.13,1.54-2.34-.6.13,1.27-2.81-.13c.76,1.72-.2,1.74-2.04,1.39-.62-.29-3.07,5.04-1.87,3.93,1.42-2.24,3.82-2.67,2.95-1.74-.76.79-1.28,1.82-.51,2.85-.45-2.09,5.53.04,2.81-2.34h0s2.34-.13,2.21-.47c-2.22-2.56,6.29-.27,7.29.94l1.87,2.34h0Z" style="fill:#56595b;"/><path d="m76.27,86.5c2.21-.8,5.15-2.01,6.69-2.21,1.74.33,3.88.6,5.15,1.74h0l2.21,1.87h0c.33.33.13,1.4-.33,1.54s-1.07-.13-1.07-.13h0l-.13-1.07h0c-1.4,4.21-7.62,2.21-6.42-2.47h0l-.8.8-1.54-.13-.47,1.07h0c0,.33-1.07-.6-.94-.47-.13-.13-2.21,1.54-2.34,1.27,0-.4,2.81-1.81,0-1.81h0Z" style="fill:#56595b;"/><path d="m97.81,86.5c-1.99,1.57-5.12,2.37-.33,1.74-.13,0-2.47,2.47-2.47,2.47,0,0,2.21-.94,2.21-1.07.01.16.69.5.6.47-.06.12-1.27,2.47-1.27,2.47,1.76-1.06,2.28-2.02,4.35-.74,0,0,.94-1.4.8-1.27.13-.13,1.54-.33,1.54,0,.21-1.31-.6-2.62,1.54-3.08-1.45,5.6,8.24,5.7,5.82.94h-.1s-.09,0-.09,0h0s.12-.13.12,0l-1.07,1.74s-1.74-1.07-1.27-1.07v-1.87c-.13,0-.94-.33-1.4-.6,3.12-.41,6.57,2.72,6.29,3.14,1.43.28,4.06,2.19,5.48,2.94,2.47,2.34-.33-1.4-1.54-2.34-1.07-.94,1.13.11,1.59.16-.12-2.07-5.98-2.25-6.74-3.91,0,0,3.42,1.08,3.36,1.2.16-.32.33-1.04-.21-1.53-3.19-1.8-6.18-1.22-9.09-1.03.07-.33,2.11-1.16,2.71-1.38.63-.11-3.67.38-5.75,1.33-1.81.93,1.77-2.67,4.68-2.52,2.25,0,3.12.18,4.07.64.82.33,2.47.98,3.04,1.84,1.06-1.07.44-2.86,0-4.09-.13.6-.33,1.4-.47,2.01-.47-1.54-1.27-3.14-1.87-4.68,0,2.34-1.4,2.81-1.54.47-2.38.52-4.36,1.26-6.76,2.01.13-.47.33-1.07.47-1.74-.33.13-.6.33-1.07.33.13-.47.33-1.07.47-1.74-2.03,1.6-3.34,3.73-4.88,5.28-1.34.67-.4,1.74-1.2,3.48h0Z" style="fill:#56595b;"/><path d="m116.94,108.5c.91-2.18,9.99-6.4,8.22-9.56-4.17-.84-6.8,4.18.6-6.09-4.2,2.28-8.84,5.57-12.51,6.42-1.32,7.4-17.5,5.55-16.72-2.07.13.26-.84-6.22-5.89-5.82-3.94,2.47-3.48,7.77-4.21,12.04,0,.47-.33-3.54-.13-5.28-3.55,4.37-16.57-.64-14.38-6.55-2.09-1.16-2.8-7.5-3.28-4.68-.09,0-.66-.89-1.01-1.44-.12-.2-.41-.19-.54,0-1.22,1.72-.93-.97-2.27.51l.12,4.35c.01.43.19.83.49,1.13l.6.6v.8h0s.36.51.66.92c.25.34.3.78.13,1.17-.13.3-.25.59-.18.59-.13,0,.55,1.16.44,1.58-.07.28-.77.76-.77.62,0,.1-.91-1.1-1.41-1.77-.21-.29-.32-.63-.29-.99.04-.5.1-1.23.18-1.63.05-.26.06-.52,0-.77-.62-2.3-1.7-5.78-.07-7.61h0l2.9-1.48c.32-.16.71-.14.99.07,2.87,2.19,2.62,4.81,4.81,5.88,1.87-1.27,4.82-1.4,7.83-.33,2.34.8,4.21,2.34,5.15,3.88,4.35-6.69,9.5-3.14,12.04.6,1.07-.8,2.47-1.4,4.21-1.54,2.34-.33,4.82.13,6.55,1.07,1.11-.95,1.37-.38,2.68-1.07l1.27-1.74.74,1.4c-.94.47-2.21,2.01-2.94,2.34,3.79,5.56,11.01-2.53,14.31-4.41l-2.81.47c-.82.16,2.1-1.37,2.49-3.83.42-2.18-4.27,3.86-4.24,2.99-.1-.98,2.7-6.48,2.11-5.53-.62.88-4.21,4.29-3.26,2.85,3.92-8.01-4.32-15.8-2.93-14.87,2.35,20.92.62-9.19-17.25-5.49-10.75,2.33-19.1,5.93-27.21,8.85-1.07.6-.81-.81-1.09-1.82-7.68-27.85-20.28-9.95-37.39-3.75h0c54.45-36.32,65.16-45.92,121.55-33-3.99,2.09-13.79.82-19.49,3.51-2.96,1.38-10.52,4.94-13.24,6.55l1.27,15.12c9.7,5.75,10.43,11.57,12.64,16.52-1.4-1.07-3.41-3.88-2.68-3.14.94.8-.2,11.7-1.14,13.58h0c3.91.65,3.56,3.47,1.74,8.43-1.27,3.14-2.94,2.81-2.68,4.35.8,5.15-3.88,4.55-3.41,5.95-5.4,15.19,5.21,33.14-15.33,28.27-.07-.02-.09-.12-.02-.14,1.13-.33,5.03-2.05,10.33-6.13.98-.76-4.68,1.39-5.9,1.43,3.92-2,6.63-4.44,6.24-4.71-.13-.17-6.36,1.86-5.95,1.27.33-.13,3.14-1.4,5.75-4.68.32-.45-3.8,1.39-5.05,1.38,6.64-6.64,7.81-5.49.12-3.58,7.87-7.11,7.09-5.88-.22-3.29,1.01-.94,8.56-8.43,5.62-6.42-3.14,2.01-8.2,3.33-5.73,1.93,9.23-6.71,6.1-8.71-1.16-4.21Z" style="fill:#56595b;"/><path d="m67.84,88.64c1.26,1.12,1.34,7.89-.54,3.15-.9-.91-.25-2.38.54-3.15h0Z" style="fill:#56595b;"/><path d="m70.18,72.59c-.03.85.55,2.72,1.63,2.54-.51.57-1.83,9.52-3.64,8.41,0,0,.76-1.12.88-1.35.21-.43.39-1.38.53-1.38-.13,0-3.28,2.21-3.28,2.21,0,0,1.07-4.08,1.07-4.21,0,.13-3.28,3.88-3.14,3.88-.13,0-.47-1.4-.47-1.4,0,0-2.81,3.61-2.81,3.41,0,.13,3.75-8.29,3.75-8.29,0,0-5.62,5.15-5.62,5.02,0,.13,2.81-5.48,2.81-5.48,0,0-3.14,1.54-2.94,1.54-.13,0,2.47-3.61,2.68-3.75,1.31.02,4.46-.89,5.62-1.67l2.94.54h0Z" style="fill:#56595b;"/><path d="m100.69,103.36c2.28,4.41-6.58,3.38-3.93.49-.01-.14,1.29-1.98,1.33-1.89-.11.02-1.19.14-1.19.14l.35-1.18-.7-.15h0v-3.58h0c-.84,3.3-1.96,5.4-5.05,8.49,7.05,1.99-5.91,7.41-5.75,2.81l-.87-3.78c-.07-.31-.28-.58-.58-.72l-.87-.41c-.78,7.03,5.87,12.12,12.41,6.73,1.39-.5,12.64-4.77,4.84-6.94h0Z" style="fill:#56595b;"/><path d="m85.06,100.03c-11.1,2.68-10.9,12.04-10.63,13.24.46.92.79-7.06,8.9-9.37.19-.05.26-.28.13-.43-.46-.49-.94-1.6,1.61-3.44h0Z" style="fill:#56595b;"/><path d="m101.75,108.04c14.26-.04,9.2,5.9,6.29,14.18-1.34-2.95,5.46-11.55-6.29-14.18h0Z" style="fill:#56595b;"/><path d="m77.54,113.02c-.54-.3-3.63,1.72-5.07,6.08-.34,1.03-.04,2.19.76,2.93,1.51,1.41,2.12.4,1.64.02-.47-2.61-1.4-4.15,2.68-9.03h0Z" style="fill:#56595b;"/><path d="m114.66,114.13c2.85,10.21-2.87,21.21-13.24,24.01,9.17-4.19,14.14-14.13,13.24-24.01h0Z" style="fill:#56595b;"/><path d="m93.32,122.69c4.68-1.4,9.63-2.47,13.44-4.68.94,6.89-8.76,15.92-9.83,16.52-1.74,1.07,16.79-15.25-3.61-11.84h0Z" style="fill:#56595b;"/><path d="m70.99,113.92c-4.32,5.47-1.36,15.05,3.88,18.93-6.14-2.82-9.53-14.11-3.88-18.93h0Z" style="fill:#56595b;"/><path d="m66.69,97.48c4.01,5.54-3.79,14.02-1.62,22.51-1.18,1.72,2.6,13.68,5.98,14.53,2.47.33,1.4,0,4.81,2.94.6.47,2.01.6-.13.94-11.84.66-13.74-13.89-11.57-18.12,0-.01-.03-.08-.03-.09-.01-.04-.02-.07-.04-.11-.02-.07-.05-.14-.07-.21-.04-.14-.09-.27-.13-.41-.08-.26-.16-.52-.24-.78-.14-.48-.26-.96-.36-1.44-.09-.43-.17-.86-.23-1.29-.05-.38-.09-.77-.11-1.16-.02-.35-.02-.7,0-1.04.02-.32.05-.63.1-.95.04-.29.1-.58.18-.87s.15-.55.25-.82.19-.52.3-.78.22-.51.34-.76.25-.51.37-.77.26-.52.39-.79.27-.55.39-.83c.13-.29.26-.59.38-.89.13-.32.25-.64.36-.97.12-.35.23-.71.32-1.07.1-.39.2-.79.27-1.19.09-.44.16-.88.21-1.32.06-.49.11-.99.14-1.48.01-.2.02-.4.03-.6,0-.24.03-.48-.04-.72l-.1-.37-.26-.96c-.02-.07.12-.07.1-.15Z" style="fill:#56595b;"/><polygon points="38.78 68.89 37.71 72.97 36.44 69.23 38.78 68.89 38.78 68.89 38.78 68.89" style="fill:#56595b;"/><polygon points="37.76 73.52 38.89 79.74 37.29 81.15 37.76 73.52 37.76 73.52 37.76 73.52" style="fill:#56595b;"/><polygon points="38.56 81.01 37.29 81.61 37.29 84.16 38.69 82.89 38.56 81.01 38.56 81.01 38.56 81.01" style="fill:#56595b;"/><polygon points="38.89 83.82 37.49 84.76 37.49 86.3 38.89 86.3 38.89 83.82 38.89 83.82 38.89 83.82" style="fill:#56595b;"/><polygon points="37.49 86.96 38.69 87.23 38.89 88.84 37.49 90.04 37.49 86.96 37.49 86.96 37.49 86.96" style="fill:#56595b;"/><path d="m38.37,90.56c3.65,4.11,4.84,12.47,5.29,17.41.03.35-.24.65-.6.65-.42,0-.88,0-.88,0h0s.33-2.34.33-2.47c-.59.8-1.94,3.2-3.14,2.61,0,.13,1.4-2.94,1.4-2.94l-2.94,2.81s2.81-4.21,1.07-3.54c-1.54.6-1.07,3.54-2.01,3.54h-.94c-.6,0,1.27-4.21,2.01-5.62-2.68-.8-2.34,5.62-3.61,5.62h-.69c-.82,0-1.46-.7-1.39-1.52l.09-.98c.25-2.87.83-5.71,1.72-8.45h0c.35-1.06.8-2.07,1.36-3.04.91-1.56,2.25-3.89,2.91-4.08h0Z" style="fill:#56595b;"/><path d="m81.29,90.52c3.28,1.07,5.15,3.75,4.35,5.75-.8,1.87-4.08,2.68-7.36,1.54-3.28-1.07-5.28-3.75-4.55-5.75,1-1.81,4.28-2.61,7.56-1.54h0Z" style="fill:#fff;"/><path d="m103.42,93.99c-3.61.33-5.95,2.68-5.02,5.02s4.55,4.08,8.09,3.61c3.75-.33,5.95-2.47,5.02-4.82-.74-2.61-4.48-4.15-8.09-3.81h0Z" style="fill:#fff;"/><path d="m82,114.48c-1.09-.26-1.9-.48-3.24-.12-.85.22-1.44,1.01-1.45,1.88,0,1.27.3,2.28.55,3.41.05.21.34.21.39,0,.57-2.37,2.01-3.95,3.75-5.17h0Z" style="fill:#56595b;"/><path d="m60.08,156.06c.94-1.27,2.34-1.87,3.14-1.4,2.45,2.97-6.99,7.56-3.14,1.4h0Z" style="fill:#56595b;"/><path d="m94.39,162.62c-.76-3.13-4.95-2.91-3.88.74.69,3.59,4.95,3.03,3.88-.74h0Z" style="fill:#56595b;"/><path d="m122.92,134.66s4.8,11.96,4.74,12c-1.12,1.98-11.11,6.47-13,7.86h0c-2.7,4.39-5.3,7.15-10.8,6.89-2.42.95-4.33,5.5-6.37,7.69-.89,1.39-4.48,4.6-4.9,5.08h0l7.11-20.47c.16-.22,1.71,5.63,1.78,5.63h0c.09-.02.65-7.19.87-7.01.05.02,1.89,4.43,1.98,4.39.52-.16,6.47-2,6.84-2.06.25-.29,4.21-3.63,5.81-5.03,1.48-1.84.4-5.05.97-6.57.41,1.44,1.73,4.78,1.73,4.78h0l.25-7.52h0l2.69,5.51s-1.67-9.08-1.47-9.08c-.13,0,2.4,4.06,2.4,4.06h0l-.64-6.15h0Z" style="fill:#56595b;"/><path d="m65.38,137.25c-3.57,3.96-6.86,7.61-10.5,11.44-.21.22.02.57.3.47,2.5-.9,6.94-4.45,10.71-4.31,4.17-.03-5.02-1.3-4.05-1.21.82-.08,3.25-1.63,4.23-2.28.15-.1.1-.34-.08-.37l-2.33-.37h0c.63-1.26.9-2.17,1.72-3.36h0Z" style="fill:#56595b;"/><path d="m76.74,138.93c4.21,3.75,3.88,6.09,13.11,6.89,11.57-2.47,15.99-6.55,23.01-10.3,1.83-.64-7.76,8.56-12.71,10.43-5.02,1.87-8.76.47-9.7.94-7.36,3.14-14.18-1.07-13.71-7.96h0Z" style="fill:#56595b;"/><path d="m101.12,147.9c4.92-1.09,6.93-5.18,15.21-10.75.1-.07.22.07.13.16-9.51,10.26-4.96,10.48-9.09,11.86-10.03,1.87-8.7,2.03-8.35.72.05-.2.39-.72.39-.72h0l.21-.29c.37-.5.9-.85,1.5-.98Z" style="fill:#56595b;"/><path d="m93.59,124.89c-1.95,0-3.73-.5-5.61-.25-.94.12-1.69.86-1.84,1.8-.38,2.41-.04,4.47.8,6.64.02.05.1.04.11-.02.22-4.58,1.03-7.11,6.54-8.16h0Z" style="fill:#56595b;"/><path d="m70.71,137.62c4.82,1.54,6.69,6.11,8.25,7.24-.98-.33-3.44-1.12-4.42-1.47-1.2-.43-2.08-1.46-2.31-2.71-.1-.55-.24-1.19-.74-2.06h0l-.77-1Z" style="fill:#56595b;"/><path d="m78.48,130.78c.15,7.27,2,12.02,8.16,10.97,2.78,4.52,9.05-3.03,9.83-3.28-4.97,1.83-9.91,1.63-11.35-2.98-3.49,4.61-5.49-1.62-6.65-4.71h0Z" style="fill:#56595b;"/><path d="m98.94,97.4c4.21,4.35,7.02,3.41,10.43,3.41.27.67-9.03,2.68-10.43-3.41h0Z" style="fill:#56595b;"/><path d="m74.4,92.12c3.61,5.02,6.55,4.55,9.97,5.02.2.6-9.3,1.34-9.97-5.02h0Z" style="fill:#56595b;"/><path d="m113.86,96.47c1.54.47,1.54.8,1.54,1.87.13-.47.47-1.27.33-1.74-.27,0-1.07,0-1.87-.13h0Z" style="fill:#56595b;"/><path d="m85.63,86.03c.94.13,1.54.6,2.34,1.07h0l-1.07,1.07h0s-1.4-.47-1.27-.33h0v-1.81h0Z" style="fill:#fff;"/><path d="m107.88,87.14l-.09,1.67c-.01.26.12.5.34.64l1.17.71c.12.09.29.06.37-.07l.91-1.64c-.38-.6-1.49-1.07-2.7-1.3h0Z" style="fill:#fff;"/><path d="m62.17,54.52c8.88-3.5,21.72-2.91,31.77-3.09,1.27-.02,2.5-.44,3.49-1.22,9.53-7.46,21.98-10.7,33.82-13.82-11.96,4.68-23.75,10.03-33.09,17.34-.97.76-2.19,1.11-3.4.92-7.23-1.18-20.17-1.72-32.6-.13h0Z" style="fill:#fff;"/><path d="m117.14,61.69c-.46,2.41-2.06,4.49-4.68,3.14h0c1.43-1.58,2.66-2.55,4.68-3.14Z" style="fill:#fff;"/><path d="m116.34,65.34c1.96,2.19,2.89-.71,5.15-.6-1.47-.67-3.48-.2-5.15.6h0Z" style="fill:#fff;"/><path d="m96,8C47.4,8,8,47.4,8,96s39.4,88,88,88,88-39.4,88-88S144.6,8,96,8Zm0,171c-45.84,0-83-37.16-83-83S50.16,13,96,13s83,37.16,83,83-37.16,83-83,83Z" style="fill:#f8c18c;"/></g></g></g></svg>