<?xml version="1.0" encoding="UTF-8" standalone="no"?>
<svg
   xml:space="preserve"
   width="192"
   height="192"
   version="1.1"
   id="svg6"
   sodipodi:docname="cove_security.svg"
   inkscape:export-filename="cove_security.png"
   inkscape:export-xdpi="96"
   inkscape:export-ydpi="96"
   inkscape:version="1.2.2 (b0a8486541, 2022-12-01)"
   xmlns:inkscape="http://www.inkscape.org/namespaces/inkscape"
   xmlns:sodipodi="http://sodipodi.sourceforge.net/DTD/sodipodi-0.dtd"
   xmlns="http://www.w3.org/2000/svg"
   xmlns:svg="http://www.w3.org/2000/svg"><defs
     id="defs10" /><sodipodi:namedview
     id="namedview8"
     pagecolor="#505050"
     bordercolor="#eeeeee"
     borderopacity="1"
     inkscape:showpageshadow="0"
     inkscape:pageopacity="0"
     inkscape:pagecheckerboard="0"
     inkscape:deskcolor="#d1d1d1"
     showgrid="false"
     inkscape:zoom="1.7383042"
     inkscape:cx="82.839357"
     inkscape:cy="106.13793"
     inkscape:window-width="1884"
     inkscape:window-height="1055"
     inkscape:window-x="36"
     inkscape:window-y="0"
     inkscape:window-maximized="1"
     inkscape:current-layer="svg6" /><rect
     width="152"
     height="152"
     x="20"
     y="20"
     fill="#96dfd3"
     rx="9.935"
     id="rect2" /><path
     fill="#ffffff"
     d="M 62.11683,93.150047 C 63.255869,78.443323 73.182053,65.841633 87.21277,61.28928 c 1.498435,-0.48585 3.985686,-1.083893 5.541168,-1.332999 14.566012,-2.326568 29.137732,4.383114 36.840032,16.963886 0.82242,1.343457 0.25385,3.066278 -1.15045,3.778415 L 117.88031,86.0572 c -1.40431,0.713088 -3.09956,0.131208 -4.01516,-1.149498 a 18.299737,18.299737 0 0 0 -12.51042,-7.492177 c -1.561188,-0.202517 -4.130206,-0.168289 -5.690442,0.04374 -8.401126,1.13999 -14.651579,7.311528 -15.807733,15.697442 -0.214877,1.559285 -0.214877,4.127353 0,5.686638 1.157104,8.385915 7.406607,14.557445 15.807733,15.697435 1.560236,0.21203 4.129254,0.24721 5.690442,0.0437 a 18.298786,18.298786 0 0 0 12.51042,-7.49218 c 0.9156,-1.27975 2.61085,-1.86163 4.01611,-1.14949 l 10.56226,5.35861 c 1.4043,0.71309 1.97287,2.43496 1.15045,3.77842 -7.70135,12.58077 -22.27307,19.29045 -36.840032,16.96388 -1.555482,-0.24815 -4.042733,-0.84619 -5.541168,-1.333 -14.030717,-4.5514 -23.956901,-17.15404 -25.09594,-31.860759 -0.1217,-1.569745 -0.1217,-4.128304 0,-5.698999 z"
     id="path4"
     style="stroke-width:0.999996" /></svg>
