<?xml version="1.0" encoding="UTF-8"?>
<svg version="1.1" viewBox="0 0 192 192" xmlns="http://www.w3.org/2000/svg">
 <circle class="a" cx="96" cy="96" r="88" style="fill:#56595b"/>
 <path d="m75.508 126.45c-5.5786-1.4991-8.5613-6.4785-8.9906-15.01-0.23951-4.7585 0.17084-8.4484 2.7295-24.544 1.228-7.7251 2.2979-14.607 2.3775-15.292l0.14479-1.2463-2.2051 0.17005c-2.8129 0.21691-5.0057 1.0413-6.6725 2.5085-2.9381 2.5862-3.7802 6.9634-1.7332 9.0093 0.60359 0.60327 0.99112 0.7323 2.1483 0.71532 1.3025-0.0191 1.4119 0.0314 1.4119 0.65253 0 2.6619-3.5771 4.9169-7.1979 4.5375-4.8188-0.50484-7.513-3.4217-7.5447-8.1682-0.03-4.4856 2.4466-8.4969 6.7364-10.911 1.9197-1.0803 5.8029-2.3173 8.3814-2.6699 2.8972-0.39614 12.779-0.39016 14.216 9e-3 1.4374 0.39909 2.5736 1.552 3.0297 3.0742 0.50773 1.6946 0.19114 4.047-2.7521 20.449 0 0-1.7682 9.1544-2.4695 13.762-0.60334 3.964-0.51658 7.6047-0.0558 11.35 0.13683 0.59574 0.80827 1.646 0.80827 1.646 1.0024 2.0414 2.3433 3.0068 4.4833 3.2276 4.415 0.45567 8.3481-3.8057 11.757-12.738 0.82472-2.1611 1.3226-4.7516 3.5488-18.464 2.0894-12.87 2.5913-16.54 2.5987-19.005 9e-3 -3.0473 0.0111-3.0554 0.74986-3.2631 0.40732-0.11454 2.1452-0.20825 3.8618-0.20825 3.5678 0 4.6484 0.40786 5.665 2.1382 1.0126 1.7236 0.76964 4.4888-1.5118 17.207-2.5665 14.307-3.1255 18.067-3.3477 22.513-0.20622 4.1272 0.15316 6.8052 1.2064 8.9897 0.86774 1.7998 2.085 2.62 4.2147 2.8398 1.3125 0.13545 1.7983 0.0414 3.1155-0.60301 5.1049-2.4976 9.9137-12.25 12.766-25.891 2.0614-9.8585 2.2155-17.056 0.56758-26.514-0.17741-1.0182-0.17254-1.0241 1.1129-1.3478 3.675-0.92538 6.6458 0.57076 7.5895 3.8222 0.66103 2.2776 0.46917 7.786-0.42671 12.251-1.3265 6.611-5.8051 21.189-8.503 27.679-5.0849 12.23-10.945 17.789-18.74 17.778-3.9339-6e-3 -7.1633-1.2606-9.5498-3.7107-1.4184-1.4562-3.2341-4.7236-3.5446-6.3786l-0.18252-0.97289-1.4349 2.0568c-2.9087 4.1694-7.084 7.515-10.684 8.561-1.9123 0.55558-5.5926 0.55217-7.6738-7e-3z" style="fill:#fff;stroke-width:.28375"/>
</svg>
