<?xml version="1.0" encoding="UTF-8"?>
<svg style="clip-rule:evenodd;fill-rule:evenodd;stroke-linejoin:round;stroke-miterlimit:2" version="1.1" viewBox="0 0 192 192" xmlns="http://www.w3.org/2000/svg" xmlns:xlink="http://www.w3.org/1999/xlink">
 <path d="m172 32.481v132c0 5.519-4.481 10-10 10h-132c-5.519 0-10-4.481-10-10v-132c0-5.519 4.481-10 10-10h132c5.519 0 10 4.481 10 10z" style="fill:#fff"/>
 <path d="m62.998 69.728 31.504-9.92c0.975-0.307 2.021-0.308 2.997-2e-3l31.496 9.87c2.085 0.654 3.505 2.586 3.505 4.771v43.415c0 1.252-0.777 2.372-1.95 2.81l-32.798 12.258c-1.13 0.422-2.374 0.422-3.504-1e-3l-31.502-11.798c-1.953-0.731-3.246-2.597-3.246-4.682v-41.951c0-2.183 1.416-4.113 3.498-4.769zm65.369 6.842c-0.253-0.019-0.531 0.022-0.823 0.131l-27.925 10.435c-1.172 0.438-2.116 1.797-2.116 3.049v37.652c0 1.251 0.944 1.905 2.116 1.467l27.925-10.433c1.172-0.438 2.116-1.797 2.116-3.049v-37.652c0-0.938-0.533-1.542-1.293-1.6zm-7.318 24.555c0.185 0.022 0.365 0.072 0.534 0.15 0.623 0.285 1.027 0.905 1.037 1.59 4e-3 0.264-0.052 0.526-0.162 0.766 0 0-2.26 4.881-6.94 7.379v3.782c0 0.964-0.786 1.761-1.75 1.775h-0.027c-0.974 0-1.775-0.801-1.775-1.775v-2.691c-1.853 0.182-3.534-0.034-4.663-0.657-1.579-0.871-2.443-2.111-2.443-2.111-0.556-0.799-0.356-1.914 0.442-2.47 0.291-0.203 0.636-0.314 0.991-0.319 0.589-8e-3 1.146 0.277 1.483 0.761 0 0 0.385 0.553 1.246 1.028s2.017 0.844 3.94 0.125c3.846-1.437 6.269-6.307 6.269-6.307 0.319-0.698 1.056-1.113 1.819-1.025zm-27.177-38.273-28.67 9.08c-0.576 0.183-0.91 0.454-0.91 0.739 0 0.255 0.266 0.5 0.74 0.68l29.012 11.047c0.519 0.198 1.223 0.309 1.957 0.309s1.438-0.111 1.957-0.309l29.012-11.047c0.473-0.18 0.74-0.425 0.74-0.68 0-0.286-0.334-0.557-0.91-0.739l-28.67-9.08c-1.228-0.389-3.028-0.389-4.256 0zm-30.242 13.718c-0.76 0.058-1.29 0.662-1.29 1.601v37.652c0 1.251 0.944 2.611 2.116 3.049l27.925 10.433c1.172 0.438 2.113-0.216 2.113-1.467v-37.652c0-1.251-0.941-2.611-2.113-3.049l-27.925-10.436c-0.293-0.109-0.573-0.15-0.826-0.131zm7.305 12.522c1.02 0.155 1.821 1.375 2.828 2.91 0.184 0.282 0.369 0.563 0.556 0.843 0.189 0.279 0.38 0.557 0.573 0.834 1.42 2.053 2.533 3.662 0.913 4.516-1.158 0.61-2.714 0.354-4.117-0.534 0.249 2.093 1.326 4.773 3.289 7.469 2.163 2.971 4.707 5.009 6.842 5.895-0.615-1.895-0.197-3.683 1.203-4.42 1.618-0.853 2.596 0.637 3.938 2.683 0.179 0.272 0.362 0.552 0.556 0.84 0.189 0.28 0.38 0.559 0.573 0.837 1.42 2.053 2.533 3.662 0.913 4.516-0.131 0.069-0.268 0.127-0.412 0.175-4.055 2.54-11.607-1.259-16.868-8.486s-6.237-15.143-2.181-17.683l6e-3 8e-3c0.09-0.063 0.183-0.12 0.281-0.172 0.405-0.213 0.77-0.281 1.11-0.229z" style="fill:url(#_Linear1)"/>
 <defs>
  <linearGradient id="_Linear1" x2="1" gradientTransform="matrix(73 -49.141 49.141 73 59.5 119.92)" gradientUnits="userSpaceOnUse">
   <stop style="stop-color:#ff837d" offset="0"/>
   <stop style="stop-color:#c17b93" offset=".27"/>
   <stop style="stop-color:#9073ba" offset=".5"/>
   <stop style="stop-color:#93bfcd" offset=".86"/>
   <stop style="stop-color:#96dbd2" offset="1"/>
  </linearGradient>
  <linearGradient id="linearGradient5" x2="1" gradientTransform="matrix(73 -49.141 49.141 73 58.818 120.84)" gradientUnits="userSpaceOnUse" xlink:href="#_Linear1"/>
 </defs>
 <path d="m114.28 90.263c1.361 0.021 2.329 1.05 2.329 2.691v8.401c0 2.1-1.585 4.383-3.553 5.118s-3.55-0.365-3.55-2.465v-8.399c0-2.1 1.583-4.383 3.55-5.118 0.43-0.161 0.843-0.235 1.224-0.229z" style="fill:url(#linearGradient5)"/>
</svg>
