<?xml version="1.0" encoding="UTF-8"?>
<svg version="1.1" viewBox="0 0 192 192" xmlns="http://www.w3.org/2000/svg">
 <path d="m85.168 173.93c-24.426-2.8336-35.808-7.2281-46.627-18.003-10.95-10.904-16.752-26.207-15.602-41.151 0.34202-4.4445 1.8684-10.588 5.2745-21.23 2.6363-8.2367 4.7932-16.306 4.7932-17.932 0-1.6261-0.69129-6.3366-1.5362-10.468-2.0008-9.7832-3.4228-21.932-3.5157-30.036-0.08309-7.2518 1.6097-11.289 5.4712-13.048 6.0593-2.7608 17.367 1.694 29.707 11.703l4.8485 3.9327 3.1811-1.351c7.465-3.1704 14.207-4.3514 24.839-4.3514 10.636 0 17.374 1.181 24.848 4.3552l3.19 1.3548 4.4383-3.6153c9.3843-7.644 19.751-12.969 25.249-12.969 5.6486 0 8.5987 2.6384 10.036 8.9756 1.0748 4.7386-0.29511 21.029-2.7874 33.146-1.0884 5.2914-1.9788 10.905-1.9788 12.474s2.1569 9.5924 4.7932 17.829c3.4061 10.642 4.9325 16.786 5.2745 21.23 1.5621 20.299-10.077 41.218-28.124 50.545-10.539 5.4473-23.462 8.1432-41.328 8.622-6.3998 0.17152-12.9 0.16521-14.445-0.014z" style="fill:#d8d8d8;stroke-width:3.2099;stroke:#56595b"/>
 <path d="m62.992 45.841s-18.787-13.851-24.161-9.9746c-7.1555 5.1618 2.3274 32.916 2.3274 32.916 5.2089-10.603 12.487-18.25 21.833-22.941z" style="fill:#fff"/>
 <path d="m127.93 45.841s18.787-13.851 24.161-9.9746c7.1555 5.1618-2.3274 32.916-2.3274 32.916-5.2089-10.603-12.487-18.25-21.833-22.941z" style="fill:#fff"/>
 <path d="m71.375 68.824c4.5453 3.7094 7.2098 8.0457 7.9935 13.009" style="fill:none;stroke-linecap:round;stroke-linejoin:round;stroke-width:3.2099;stroke:#ccc"/>
 <path d="m65.763 73.603c4.2669 1.7917 6.6128 4.8395 7.0376 9.1433" style="fill:none;stroke-linecap:round;stroke-linejoin:round;stroke-width:3.2099;stroke:#ccc"/>
 <path d="m57.673 94.384c9.716-2.0688 17.068 0.44332 22.055 7.5363" style="fill:none;stroke-linecap:round;stroke-linejoin:round;stroke-width:6.4199;stroke:#56595b"/>
 <path d="m120.25 68.824c-4.5453 3.7094-7.2098 8.0457-7.9935 13.009" style="fill:none;stroke-linecap:round;stroke-linejoin:round;stroke-width:3.2099;stroke:#ccc"/>
 <path d="m125.86 73.603c-4.2669 1.7917-6.6128 4.8395-7.0376 9.1433" style="fill:none;stroke-linecap:round;stroke-linejoin:round;stroke-width:3.2099;stroke:#ccc"/>
 <path d="m133.95 94.384c-9.716-2.0688-17.068 0.44332-22.055 7.5363" style="fill:none;stroke-linecap:round;stroke-linejoin:round;stroke-width:6.4199;stroke:#56595b"/>
 <circle cx="80.241" cy="125.2" r="14.186" style="fill:#fff"/>
 <circle cx="111.38" cy="125.2" r="14.186" style="fill:#fff"/>
 <ellipse cx="96.019" cy="114.08" rx="7.4809" ry="2.9092" style="fill:#fff"/>
 <path d="m109.64 112.67c-1e-5 4.4299-6.0384 12.002-13.487 12.002-7.4487 0-13.487-7.8689-13.487-12.299 0-4.4299 6.0384-3.7431 13.487-3.7431 7.4487 0 13.487-0.38967 13.487 4.0402z" style="fill:#56595b;stroke-linecap:round;stroke-linejoin:round;stroke-width:5.1625"/>
 <path d="m95.983 122.51v8.5421c-7.3143 10.188-16.509 11.494-27.585 3.9184" style="fill:none;stroke-linecap:round;stroke-linejoin:round;stroke-width:4.8149;stroke:#56595b"/>
 <path d="m95.983 122.51v8.5421c7.3143 10.188 16.509 11.494 27.585 3.9184" style="fill:none;stroke-linecap:round;stroke-linejoin:round;stroke-width:4.8149;stroke:#56595b"/>
 <path d="m47.476 113.45c10.566-1.6994 19.506 0.73885 26.82 7.3147" style="fill:none;stroke-linecap:round;stroke-linejoin:round;stroke-width:4.8149;stroke:#a0a5af"/>
 <path d="m42.822 129.96c8.8663-4.6179 18.176-5.9847 27.929-4.1007" style="fill:none;stroke-linecap:round;stroke-linejoin:round;stroke-width:4.8149;stroke:#a0a5af"/>
 <path d="m144.15 113.45c-10.566-1.6994-19.506 0.73885-26.82 7.3147" style="fill:none;stroke-linecap:round;stroke-linejoin:round;stroke-width:4.8149;stroke:#a0a5af"/>
 <path d="m148.8 129.96c-8.8663-4.6179-18.176-5.9847-27.929-4.1007" style="fill:none;stroke-linecap:round;stroke-linejoin:round;stroke-width:4.8149;stroke:#a0a5af"/>
</svg>
