<?xml version="1.0" encoding="UTF-8"?><svg id="uuid-93a6efca-8d3e-452e-ba9d-35d6e5467bc3" xmlns="http://www.w3.org/2000/svg" width="192" height="192" xmlns:xlink="http://www.w3.org/1999/xlink" viewBox="0 0 192 192"><defs><clipPath id="uuid-1e028128-2bb5-4b8b-a650-691e7201070d"><path d="m107.53,64.58c.05-.9.6-1.41,1.28-1.79,2.38-1.35,4.79-2.62,7.18-3.95,2.43-1.35,5.02-2.02,7.71-2.45,1.34-.21,2.67-.47,4.02-.68.83-.13,1.67-.2,2.5-.28,1.08-.1,2.16-.22,3.24-.27,3.28-.16,5.41,1.58,6.76,4.37,1.17,2.41.95,4.88-.12,7.3-.58,1.31-1.1,2.64-1.67,3.95-.12.27-.3.51-.52.71-.5.44-1.02.88-1.57,1.24-.46.3-1.06.2-1.41-.23-.16-.2-.31-.41-.46-.62-.76-1.04-1.83-1.44-3.08-1.5-1.82-.09-3.63-.21-5.45-.33h-.01c-.88-.06-2.19.29-2.91.78s-1.49,1.03-2.24,1.54c-.8.55-1.47,1.26-2.06,2.03-.33.42-.69.82-1.05,1.22-.74.79-1.95.92-2.83.3-.07-.05-.14-.1-.21-.15-.54-.43-.99-.95-1.52-1.4-.54-.46-1.22-.71-2.01-.28-.72.39-1.09,1.23-.95,2.04.19,1.12.4,2.25.64,3.36.16.72,0,1.32-.45,1.88-.6.75-1.18,1.51-1.77,2.25-.24.3-.29.73-.08,1.06.6.9,1.36,1.62,2.28,2.18,2.9,1.77,5.89,3.35,9.14,4.39.79.25,1.5.64,2.1,1.25.5.51,1.08.94,1.63,1.4.69.57,1.53.69,2.38.82.68.1,1.38.17,2.05.33,1.52.37,2.53,1.72,2.56,3.28s-.46,3.02-.78,4.52c-.53,2.5-1.33,4.94-2.29,7.31-.67,1.64-1.38,3.28-2.4,4.74-1.28,1.84-2.56,3.69-3.97,5.43-1.16,1.43-2.52,2.7-3.77,4.06-1.65,1.81-3.66,3.11-5.78,4.28-2.44,1.35-4.9,2.67-7.31,4.07-2.75,1.6-5.69,2.64-8.8,3.28-3.82.78-7.68,1-11.55.73-4.57-.32-9.04-1.19-13.41-2.59-4.35-1.39-8.54-3.17-12.51-5.43-2.18-1.24-4.15-2.76-6.04-4.38-.14-.12-.26-.25-.38-.38-.79-.93-.9-1.37,0-2.53.55-.7,1.36-1.07,2.17-1.38.77-.29,1.55-.55,2.34-.79,1.67-.5,3.08-1.45,4.37-2.58,1.54-1.36,3.02-2.79,4.61-4.09,1.14-.92,2.38-1.73,3.64-2.49,1.21-.73,2.58-.8,3.91-.46.56.15,1.09.58,1.54.98.66.58,1.21,1.28,1.85,1.89,1.48,1.43,3.81,1.18,5.11.24.58-.42.81-1.05,1.04-1.69.25-.68.45-1.39.8-2.02.48-.87,1.54-1.23,2.47-.92.24.08.48.17.71.26.71.29,1.53.26,2.2-.13.77-.46,1.05-1.17.98-2.03-.06-.67-.17-1.34-.22-2.01-.03-.35,0-.71,0-1.07,0-.78.44-1.25,1.13-1.5.49-.18,1-.3,1.49-.47,1.44-.5,1.86-2.38.81-3.49-.63-.66-1.35-1.25-2.12-1.72-.8-.49-1.15-1.13-1.21-2-.06-.91-.15-1.81-.17-2.72-.05-2.24.43-4.39,1.1-6.51.69-2.19,1.77-4.19,2.76-6.24.99-2.04,2-4.07,3.35-5.89.45-.61.99-1.14,1.57-1.64,2.19-1.9,4.35-3.83,6.09-6.16.64-.85,1.5-.81,2.39-.61.38.09.75.24,1.19.37Z" fill="none" stroke-width="0"/></clipPath></defs><g id="uuid-7aa6e80c-c555-44bb-b350-867941dbc7d3"><g id="uuid-77269e8d-dac1-4cd7-a4bb-afde4fe3e07f"><circle cx="96" cy="96" r="88" fill="#9abeff" stroke-width="0"/><g clip-path="url(#uuid-1e028128-2bb5-4b8b-a650-691e7201070d)"><path d="m107.53,64.58c.05-.9.6-1.41,1.28-1.79,2.38-1.35,4.79-2.62,7.18-3.95,2.43-1.35,5.02-2.02,7.71-2.45,1.34-.21,2.67-.47,4.02-.68.83-.13,1.67-.2,2.5-.28,1.08-.1,2.16-.22,3.24-.27,3.28-.16,5.41,1.58,6.76,4.37,1.17,2.41.95,4.88-.12,7.3-.57,1.3-1.09,2.63-1.66,3.94-.12.27-.31.53-.53.72-.53.46-1.06.92-1.65,1.3-.56.36-.9.25-1.32-.27-.16-.2-.31-.42-.47-.63-.76-1.04-1.83-1.44-3.08-1.5-1.82-.09-3.63-.21-5.45-.33-.38-.03-.75-.14-1.14-.19-.15-.02-.34,0-.46.07-1.2.81-2.39,1.63-3.57,2.45-.8.55-1.46,1.24-2.05,2.02-.56.73-1.22,1.38-1.84,2.06-.23.25-.53.33-.83.18-.49-.26-1-.52-1.43-.86-.54-.43-.99-.95-1.52-1.4-.41-.35-.89-.57-1.44-.48-1.17.19-1.74.99-1.53,2.16.2,1.15.4,2.3.66,3.44.16.72,0,1.32-.45,1.88-.61.76-1.2,1.54-1.81,2.3-.27.34-.28.64-.04,1.01.6.9,1.36,1.62,2.28,2.18,2.9,1.77,5.89,3.35,9.14,4.39.79.25,1.5.64,2.1,1.25.5.51,1.08.94,1.63,1.4.69.57,1.53.69,2.38.82.66.1,1.34.17,1.99.32,1.72.4,2.58,1.5,2.62,3.27.03,1.38-.35,2.69-.66,4.01-.59,2.52-1.27,5.02-2.24,7.43-.72,1.78-1.46,3.57-2.56,5.15-1.28,1.84-2.56,3.69-3.97,5.43-1.16,1.43-2.52,2.7-3.77,4.06-1.65,1.81-3.66,3.11-5.78,4.28-2.44,1.35-4.9,2.67-7.31,4.07-2.75,1.6-5.69,2.64-8.8,3.28-3.82.78-7.68,1-11.55.73-4.57-.32-9.04-1.19-13.41-2.59-4.35-1.39-8.54-3.17-12.51-5.43-2.18-1.24-4.15-2.76-6.04-4.38-.14-.12-.26-.25-.38-.38-.79-.93-.9-1.37,0-2.53.55-.7,1.36-1.07,2.17-1.38.77-.29,1.55-.55,2.34-.79,1.67-.5,3.08-1.45,4.37-2.58,1.54-1.36,3.02-2.79,4.61-4.09,1.14-.92,2.38-1.73,3.64-2.49,1.21-.73,2.58-.8,3.91-.46.56.15,1.09.58,1.54.98.66.58,1.21,1.28,1.85,1.89,1.48,1.43,3.81,1.18,5.11.24.58-.42.81-1.05,1.04-1.69.25-.68.45-1.39.8-2.02.57-1.03,1.35-1.28,2.47-.92.25.08.49.17.73.27.75.3,1.47.28,2.17-.13.78-.46,1.05-1.17.98-2.03-.06-.67-.17-1.34-.22-2.01-.03-.35,0-.71,0-1.07,0-.78.44-1.25,1.13-1.5.49-.18,1-.3,1.49-.47,1.53-.53,2.03-2.17.94-3.36-.65-.71-1.42-1.35-2.25-1.86-.8-.49-1.15-1.13-1.21-2-.06-.91-.15-1.81-.17-2.72-.05-2.24.43-4.39,1.1-6.51.69-2.19,1.77-4.19,2.76-6.24,1.03-2.13,2.09-4.25,3.53-6.13.53-.69,1.22-1.26,1.89-1.84,2.01-1.76,3.98-3.57,5.59-5.73.64-.85,1.5-.81,2.39-.61.38.09.75.24,1.19.37Z" fill="#fff" stroke-width="0"/><path d="m103.22,74.8c3.83,1.6,2.97,6.35,5.26,9.87,3.73-.64,5.35-2.16,5.55-3.96l31.97-7.19,3.4-25.7s-41.8,4.6-42.1,4.6-14,18.7-14,18.7l.97,1.8c-1.89.96-4.4,2.72-5.66,5.84-1.51,3.73-.99,8.82,1.39,10.13.93.51,1.55.11,3.17.27.63.06,1.64.32,2.23.54,1.19.45,3.38,1.27,5.15,1.94,2.95,1.12,5.46,3.22,6.94,6,3.31,6.22,3.04,14.82-5.19,15.36-3.34,1.37-4.63,7.85-7.16,8.85-5.02,1.94-10.59,3.22-17.56,3.26-.28,0-.33.4-.05.46,5.87,1.17,14.77,2.6,20.93-1.59,1.16-.79,2.04-1.93,2.61-3.21s1.42-3.05,1.88-3.64c1.36-1.45,2.71-1.66,4.09-1.66,1.54,0,3.07-.46,4.36-1.31,4.7-3.08,6.08-6.94,6.44-15.2.34-2.13-.98-4.63-3.32-5.43-1.8-.5-3.49.47-5.08-.48-.45-.27-.94-.46-1.46-.54-1.3-.2-1.89-.53-4.04-1.05-2.32-.56-4.48-2.48-6.25-3.4-5.81-3.7-.96-13.98,5.55-13.25Z" fill="#728dbe" stroke-width="0"/></g></g></g></svg>