<?xml version="1.0" encoding="UTF-8"?>
<svg version="1.1" viewBox="0 0 192 192" xmlns="http://www.w3.org/2000/svg">
 <defs>
  <clipPath id="clipPath5">
   <rect class="a" x="20" y="20" width="152" height="152" rx="10" style="fill:#ffd6d4"/>
  </clipPath>
 </defs>
 <rect class="a" x="20" y="20" width="152" height="152" rx="10" style="fill:#ffd6d4"/>
 <path d="m16.006 47.801s12.74 4.0016 19.326 4.1228c15.432 0.28397 30.224-9.2231 45.608-7.9879 25.099 2.0152 47.057 18.205 71.376 24.737 7.8576 2.1105 23.964 4.6381 23.964 4.6381l-0.25768 100.23-138.63 6.6995-34.786-16.491 11.595-79.363" clip-path="url(#clipPath5)" style="fill:#f8c18c;stroke-linecap:round;stroke-linejoin:round;stroke-width:6.1266"/>
 <path d="m74.685 67.342a16.813 16.813 0 0 0-16.814 16.814 16.813 16.813 0 0 0 16.814 16.814 16.813 16.813 0 0 0 1.7515-0.0912c-2.2711 6.429-6.5276 11.742-12.768 15.939 0 0-3.2244 2.7002 0.51602 6.4407 3.2251 3.2251 7.4727-0.12863 7.4727-0.12863 13.828-9.5554 20.442-22.546 19.841-38.973a16.813 16.813 0 0 0-16.814-16.814z" style="fill:#fff;stroke-linecap:round;stroke-linejoin:round;stroke-width:6.4738"/>
 <path d="m117.28 67.342a16.813 16.813 0 0 0-16.814 16.814 16.813 16.813 0 0 0 16.814 16.814 16.813 16.813 0 0 0 1.7515-0.0912c-2.2711 6.429-6.5276 11.742-12.768 15.939 0 0-3.2244 2.7002 0.51602 6.4407 3.2251 3.2251 7.4727-0.12863 7.4727-0.12863 13.828-9.5554 20.442-22.546 19.841-38.973a16.813 16.813 0 0 0-16.814-16.814z" style="fill:#fff;stroke-linecap:round;stroke-linejoin:round;stroke-width:6.4738"/>
</svg>
