<?xml version="1.0" encoding="UTF-8"?><svg id="a" xmlns="http://www.w3.org/2000/svg" width="192" height="192" viewBox="0 0 192 192"><g id="b"><g id="c"><rect x="20" y="20" width="152" height="152" rx="10" ry="10" style="fill:#9abeff;"/><path d="m131.9,114.89h-.01s-3.4-1.56-3.85-5.52v-32.12s.44-.19-.57-.81l-12.03-6.94s-.31-.62-1.44.31l-10.26,6.32-10.2-5.58s-.44-.44-.95-.12c-.82.49-12.9,6.81-12.9,6.81l-8.94-5.15s-.44-.62-.94-.19l-9.82,6.2s-1.39.5.56,1.55l.32.12,6.8,4.84v28.39l-3.53,1.99s-1.13.55-.06,1.23l12.4,6.45,9.51-5.27s.82-.49.13-1.23l-2.28-1.42-.02-12.65h6.78v9.86l-3.09,1.92s-1.01.49.32,1.37l14.23,7.44,9.58-5.89s1-.12.37-.87l-4.62-3.08-.04-11.29,6.61-9.38h-6.64l-.04-13.64,6.18,3.1s.75.25.94,1.3v30.69s.75,6.38,8.75,9.05l9.26-6.51s.44-.56-.5-1.3Zm-50.39-1.56h0s0,0,0,0c0,0-.57-.12-.57-.31l.13-33.11s.1-1.16,1.84-1.19l.06,35.52-1.46-.91Zm9.07-21.14h-1.2l-5.58,8.15-.04-21.42,5.93,3.04s.7.5.88.99v9.24Zm15.82-14.02l.05,14.03h-1.51v-.99l-.13-12.46s-.29-1.14,1.59-.57Zm-.65,33.6h0s-.76-.3-.82-.55v-9.12h1.54l.03,10.18-.76-.51Z" style="fill:#fff;"/></g></g></svg>