<svg xmlns="http://www.w3.org/2000/svg" width="192" height="192"><style>.st0{fill:#fff}</style><path d="m92 84 60 28v40l-60-28zM32 144l60-20V84l-60 20z" style="fill:#c39a54;stroke-width:4"/><path d="m36 112 60-20 60 28-60 20z" style="fill:#728dbe;stroke-width:4"/><path d="m92 172 60-20v-40l-60 20z" style="fill:#c39a54;stroke-width:4"/><path d="m32 104 60 28v40l-60-28zM92 132l28 28 60-22-28-26z" style="fill:#f9de81;stroke-width:4"/><path d="m92 84-60 17.538-17.879 8.773L32 104z" style="fill:#f9de81;stroke-width:4"/><path d="M92 64v4H80v4h-8v8h-8v12h4v8h-4v12h8v4h12v-4h8v8h12v-8h8v-4h4v4h12v4h12v-12h-8V92h-12v-4h-4v-8h-4v-8h-8v-8z" style="fill:#c39a54;paint-order:stroke fill markers;stroke-width:4"/><path d="M120 20h12v12h-12zM136 36h12v12h-12zM144 52h12v12h-12zM136 68h12v12h-12zM128 84h12v12h-12z" style="fill:#ff837d;paint-order:stroke fill markers;stroke-width:4"/><path d="M80 52v12h12V52zm20 8v12h12V60zm-28 8v12h12V68zm16 8v12h4v12h12V88h-4V76zm24 4v12h12V80zm-52 4v12h12v8h12V92H72v-8zm24 20v12h12v-12zm24-8v12h12V96zm-52 8v12h12v-12z" style="fill:#f9de81;paint-order:stroke fill markers;stroke-width:4"/><path d="M116 100h12v12h-12z" style="fill:#ff837d;paint-order:stroke fill markers;stroke-width:4"/><path d="M76 112h12v12H76zM48 100h12v12H48z" style="fill:#54688c;paint-order:stroke fill markers;stroke-width:4"/><path d="M56 92h12v12H56zM44 96h12v12H44zM32 80h12v12H32z" style="fill:#54688c;paint-order:stroke fill markers;stroke-width:4"/><path d="M52 72h12v12H52z" style="fill:#728dbe;paint-order:stroke fill markers;stroke-width:4"/><path d="M40 56h12v12H40z" style="fill:#54688c;paint-order:stroke fill markers;stroke-width:4"/><path d="M52 36h12v12H52z" style="fill:#728dbe;paint-order:stroke fill markers;stroke-width:4"/><path d="M72 28h12v12H72zM64 52h12v12H64zM60 108h12v12H60z" style="fill:#54688c;paint-order:stroke fill markers;stroke-width:4"/><path d="M48 88h12v12H48z" style="fill:#728dbe;paint-order:stroke fill markers;stroke-width:4"/><path d="m53.876 114.21-.078 7.11 15.46 6.812.227-6.641-15.609-7.281z" style="fill:#c39a54;stroke-width:4"/><path d="M53.796 129.46c.23-.756 1.316-1.552 2.034-1.22 5.72 2.64 6.98 3.253 11.39 5.39 1.161.563 2.337 2.13 1.932 3.356-.267.807-1.568 1.376-2.339 1.017-5.335-2.486-7.177-3.233-11.492-5.288-1.081-.516-1.875-2.109-1.525-3.255z" style="fill:#8e6f60;stroke-width:4"/></svg>