<?xml version="1.0" encoding="UTF-8"?>
<svg version="1.1" viewBox="0 0 192 192" xmlns="http://www.w3.org/2000/svg">
 <circle class="a" cx="96" cy="96" r="88" style="fill:#54688c"/>
 <circle cx="94.39" cy="97.62" r="39.698" style="fill:none;stroke-linecap:round;stroke-linejoin:round;stroke-width:3.1568;stroke:#96dfd3"/>
 <path d="m91.869 85.851c9.3882-18.902 24.534-29.291 45.439-31.169-2.128 21.781-12.518 37.302-31.169 46.565z" style="fill:#54688c;stroke-linecap:round;stroke-linejoin:round;stroke-width:3.1568;stroke:#96dfd3"/>
 <path d="m93.466 87.573-2.9263 6.3957 7.7006 7.3023 5.7884-2.3014z" style="fill:none;stroke-linecap:round;stroke-linejoin:round;stroke-width:3.1568;stroke:#96dfd3"/>
 <path d="m101.62 71.413c-9.241-5.5179-16.582-3.1028-21.016 7.7726 5.2165-0.4302 9.3064 1.1424 12.27 4.7178 2.2355-4.3079 5.1508-8.4713 8.7459-12.49z" style="fill:none;stroke-linecap:round;stroke-linejoin:round;stroke-width:3.1568;stroke:#96dfd3"/>
 <path d="m121.32 90.621c4.9211 10.688 2.1416 17.767-8.3386 21.073 0.40699-4.14-0.95626-8.1031-4.0898-11.889 4.6648-2.5871 8.818-5.6388 12.428-9.1835z" style="fill:none;stroke-linecap:round;stroke-linejoin:round;stroke-width:3.1568;stroke:#96dfd3"/>
 <path d="m122.26 57.84c4.8496 3.9388 8.637 7.8775 11.362 11.816" style="fill:none;stroke-linecap:round;stroke-linejoin:round;stroke-width:3.1568;stroke:#96dfd3"/>
 <circle cx="114.69" cy="77.456" r="5.4515" style="fill:none;stroke-linecap:round;stroke-linejoin:round;stroke-width:3.2404;stroke:#96dfd3"/>
 <path d="m91.652 95.024c-5.4624 5.7385-12.051 10.1-19.767 13.085-1.611-3.8982-4.9745-5.6685-10.09-5.3108 0.34385-2.8968-0.93958-4.6671-3.8503-5.3108-2.1058-9.2186 2.892-17.567 6.6244-26.071l-6.864 11.033-2.4058 8.2533 0.035 14.03 5.4608 14.037 8.4107 9.5371 10.384 6.1489 9.8437 2.5514 9.404 0.0607 17.543-6.3972c-6.2236 1.6334-12.224 4.3088-18.783 4.3742-1.0014-4.788-4.0056-7.1976-9.0127-7.2289 0.75106-4.2873-0.62588-6.5717-4.1308-6.8534 1.6087-8.0692 6.7364-14.646 12.424-20.984z" style="fill:#96dfd3"/>
 <path d="m67.603 88.359c-0.64172 1.8477-1.8698 3.0205-3.7507 3.452 2.1243 0.56427 3.2086 1.7039 3.6511 3.6843 0.48682-1.6264 1.4383-3.1533 3.2528-3.7175-2.0579-0.96257-2.8656-1.7481-3.1533-3.4188z" style="fill:#fff"/>
 <path d="m72.319 73.748c-0.27417 0.78942-0.79888 1.2905-1.6025 1.4748 0.9076 0.24109 1.3709 0.72797 1.5599 1.5741 0.20799-0.69488 0.61452-1.3472 1.3898-1.5883-0.87924-0.41126-1.2243-0.74688-1.3472-1.4607z" style="fill:#fff"/>
 <path d="m80.734 91.712c-0.38759 1.116-1.1294 1.8244-2.2654 2.085 1.2831 0.34081 1.938 1.0291 2.2053 2.2253 0.29404-0.98234 0.86874-1.9045 1.9647-2.2454-1.243-0.58139-1.7308-1.0558-1.9045-2.0649z" style="fill:#fff"/>
 <path d="m102.06 109.37c-0.5219 1.5027-1.5207 2.4566-3.0504 2.8075 1.7277 0.4589 2.6095 1.3857 2.9694 2.9964 0.39594-1.3228 1.1698-2.5645 2.6455-3.0234-1.6737-0.78285-2.3306-1.4217-2.5645-2.7805z" style="fill:#fff"/>
 <path d="m109.31 121.98c-0.34296 0.9875-0.99933 1.6143-2.0046 1.8449 1.1353 0.30156 1.7148 0.91062 1.9513 1.9691 0.26018-0.86924 0.76871-1.6852 1.7385-1.9868-1.0998-0.51444-1.5315-0.93428-1.6852-1.8272z" style="fill:#fff"/>
 <path d="m98.721 121.85c-0.34296 0.9875-0.99932 1.6143-2.0046 1.8449 1.1353 0.30156 1.7148 0.91062 1.9513 1.9691 0.26018-0.86924 0.76872-1.6852 1.7385-1.9868-1.0998-0.51444-1.5315-0.93428-1.6852-1.8272z" style="fill:#fff"/>
</svg>
