<svg xmlns="http://www.w3.org/2000/svg" id="svg2" width="192" height="192" version="1.1"><g id="layer1" transform="translate(0 -860.362)"><rect id="rect2144" width="153" height="153" x="19.5" y="877.509" rx="10" style="fill:#575a5c;fill-opacity:1;fill-rule:evenodd;stroke:none;stroke-opacity:1"/><g id="g2138" style="fill:#fefefe;fill-opacity:1" transform="translate(59.5 931.018) scale(.0158)"><g id="g2082" class="dbd_logo_horizontal" style="fill:#fefefe;fill-opacity:1"><path id="path2076" d="M3674.04 2214.08c1.93 8.62 24.2 16.18 24.2 5.27.01-13.46-32.7-9.52-24.2-5.27zm41.04 15.26c1.15 5.29 22.03 13.94 28.22 13.94-.59 0 46.07 16.99 39.18.23-2.86-6.94-67.4-30.33-67.4-14.17zM2177.3 1948.6c2.36 2.23 17.72 11.23 16.18 1.19-1.61-10.51-16.43-5.91-19.73-14.7-.32-.83-3.36-27.39-11.54-33.74-8.18-6.35-4.46 17.16-16.77 17.16-10.08 0-13.42-7.91-14.9 2.2-2.14 14.6-8.29 35.12-15.78 37.1-7.5 1.97-22.49 21.64-15.78 21.08 6.7-.56 4.74-6.15 13.42-3.95s16.55-22.66 28.41-19.11c15.07 4.53 24.24-18.8 36.49-7.23zm-710.64-241.77c0 8.68 5.48 13.16 8.89 14.46 12.34 4.71 37.59 13.94 40.56 15.93 17.08 11.52 38.66 29.16 53.96 29.23-7.27-.03-30.12-26.42-53.68-43.84-23.57-17.42-49.73-24.46-49.73-15.78zm3055.84 533.66c16.65 8.97 81.46 19.83 91.28 18.85 9.32-.94 4.35-5.82-6.17-8.64-14.18-3.8-35.6-12.65-42.23-16.62-10.43-6.25-11.34 7.99-19.6 7.3-7.8-.65-12.81-3.21-20.51-4.44-2.1-.34-7.9.79-2.77 3.55zm-205.48-88.5c2.19-6.04-86.38-41.22-95.24-15.26 6.28 19.65 87.36 36.94 95.24 15.26zm-427.75 109.04c-9.24-5.25.99-25.45-8.24-30.38-9.72-5.18-17.05-8.29-27.69-11.24-11.75-3.27-34.08-32.65-47.75-5.33 2.32-.49 4.58-.83 6.84-1.58-11.82 26.17 9 39.06 32.49 50.75 2.83 1.41 25.18 18.33 31.57 14.49 3.51-2.1 17.59-13.98 12.78-16.71z" style="fill:#fefefe;fill-opacity:1"/><path id="path2078" d="M4361.95 2232.09c-20.3-2.52-35.12-17.61-55.19-19.85-46.01-5.11-36-3.03-78.41-26.23-22.27-12.18-16.43-10.37-65.88-24.05-8.19-2.26-17.89-9.47-24.7-13.53-11.28-6.73-20.36 5.42-7.4 15.11 15.07 11.27 56.55 15.85 61.95 25.82 5.4 9.96-2.91 12.38-3.95 13.41-4.91 4.91-20.4 1.41-26.05 0-22.45-5.61-41.97-22.35-65.8-24.86-15.39-1.62-31.09 1.85-46.27-1.18-18.25-3.65-34.33-13.58-52.29-17.66-10.44-2.37-27.69-8.65-35.32-16.28-13.02-13.02-20.62-7.84-37.32-8.24-74.64-1.76-109.38-26.78-182.89-41.48-26.21-5.24-45.64-14.78-73.59-16.38-15.67-.89-26.09-10.45-40.85-10.45-4.12 0-19.81 2.5-22.59-1.87-4.69-7.38-10.13-17.47-20.62-17.47-12.08 0-43.6 7.5-56.62.89-13.01-6.61-18.49-14.81-22.51-24.17-9.86-23.01 17.04-18.46 30.78-27.62 10.71-7.14 63.8 10.56 75.1 11.17 31.43 1.69 60.88 7.06 91.83 11.33 15.69 2.16 30.93 7.67 43.01 18.55 11.23 10.11 33.7 3.11 47.26 2.66 26.34-.88 17.83 18.72 44.26 22.68 35.85 5.38 8.42 17.33 43.44 18.85 31.33 1.36 66.38 7.75 91.85 26.4 17.34 12.7 31.37 11.89 51.68 17.48 13.91 3.83 22.41 15.81 35.77 15.81 41.59 0 21.34-42.3 69.45-23.68 18.24 7.06 36.37-1.19 53.54 7.4 10.2 5.1 53.47-1.95 29.2-11.05-28.19-10.57-57.9-4.66-85.62-20.98-20.69-12.19-35.97-24.19-61.15-21.14-20.06 2.43-45.34-.75-63.17-8.39-13.86-5.94-25.97-11.97-39.08-19.64-22.2-12.98-35.46-12.28-60.27-16.98-51.23-9.71-10.12-16.9-60.27-32.12-46.91-14.24-94.8-16.19-140.72-32.58-21.22-7.58-31.83-14.69-54.81-14.69-13.76 0-55.88-3.09-53.66-19.21 2-14.55-7.71-34.08-22.9-35.25-13.93-1.07-16.95 24.61-28.41 24.47-12.22-.16-25.53-12.63-41.33-12.63-25.82 0-52.27-4.63-73.11-21.31-15.13-12.11-71.88-21.76-91.26-12.07-8.83 4.42-19.85-9.24-29.5-9.24-5.21 0-10.71 6.32-15.29 8.19-13.99 5.7-22.73-7.65-36.39-10.06-71.67-12.65-146.34-41.12-191.39-71.49-1.96-1.32-4.34-.53-6.19-1.9-1.19-.89-1.87-3.93-3-4.84-6.14-4.91-25.84-7.5-35.02-7.5-20.72 0-32.23-7.03-50.69-15.49-11.88-5.44-23.4-5.95-36.62-5.32-26.06 1.24-26.09 0-36.06-21.95-15.94-35.14-57.75-7.25-113.81-17.65-15.87-2.94-29.25-11.67-43.67-19.93-11.14-6.38-36.52-11.36-39.98-23.45-3-10.51-8.57-7.14-16.97-4.34-2.95.98-18.32-17.64-21.64-19.62-27.45-16.37-102.88 6.63-127.51-23.9-12.25-15.18-27.14-18.33-57.5-18.33-20.36 0-36.33 3.04-54.02-11.38-21.99-17.93-34.1-57.03-86.72-66.5-8.93-1.61-38.47-12.16-47.82-11.64-14.59.81-20.63-21.02-35.07-22.83-19.47-2.43-29.49-8.58-48.4-26.31-8.43-7.9-30.99-12.45-42.09-15.79-9.55-2.86-27.07-18.3-53.67-10.52-20.39 5.96-14.92 3.68-30.52-10.52-28.4-25.85-38.64-20.31-75.77-30.52-19.66-5.41-67.49-31.62-88.39-30.52-22.91 1.21-43.16-5.15-66.3-5.26-19.44-.09-51.81 3.95-69.45 13.68-6.5 3.58-28.48-8.86-35.21-17.56-6.14-7.93-14.45-3.94-20.47-9.53-7.57-7.02 3.47-22.07-4.07-28.71-4.03-3.55-12.45 2.11-17.26 1.68-13.21-1.19-22.31-8.14-32.52-15.63-16.33-11.96-6.13 4.63-35.69-4.45-6.61-2.03-61.41-14.28-68.01-16.1-17.18-4.73-33.94.9-48.01-2.06-16.98-3.57-33.94-13.42-48.14-14.2-20.79-1.16-162.07-23.42-187.33-19.21-21.97 3.66-36.43 5.46-50.32 3.9l-9.76 404.83c32.27 5.48 95.95-2.16 136.25-1.06 17.56.48 34.92 10.03 52.24 7.64 24.36-3.36 27.2 21.44 41.53 19.57 14.34-1.88 19.07-12.62 28.93-12.88 9.89-.26 33.19 15.52 49.22 15.52 15.26 0 31.38 31.56 35.25 19.47 7.99-24.99 8.86-22.09 37.86-26.04 17.36-2.37 23.41 11.6 36.97 11.6 5.94 0 18.74 5.23 23.01 5.76 12.63 1.58 14.25 9.09 22.77 6.08 14.37-5.07 17.24 13.47 24.08 22.59 7.14 9.52 21.85-4.79 25.49 16.02.32 1.82-7.07 15.95-7.25 16.24-6.32 10.12 1.74 7.74 1.38 16.97-.96 24.96-89.35-6.08-136.18-12.4-11.58-1.56-23.04-14.99-29.49-22.69-3.71-4.43-4.3-1.93-3.66.07.45 1.41 14.88 29.97 33.31 32.05 24.79 2.8 114.29 62.14 138.5 65.3 10.52 1.37 27.08-5.38 36.83 2.1 20.24 15.53 24.46 29.51 49.46 33.68 8.98 1.49 45.26 22.78 63.38 15.52 13.47-5.38 31.2.07 48.78 10.41 5.46 3.21 29.5 19.69 54.43 37.34 28.25 20 84.48 32.06 89.25 37.52 9.66 11.03 25.04-1.64 19.73-7.89-3.69-4.35-75.75-20.53-104.64-39.08-28.89-18.55-38.34-42.71-58.73-45.38-20.39-2.66-49.13-16.53-22.2-30.75 7.33-3.87 6.94 8.76 15.09 8.66 15.06-.18 24.76-11.29 37.27-17.54 12.59-6.29 34.49 1.48 45.92 7.72 12.92 7.05 24.33 24.03 40.72 24.03 9.14 0 14.55 13.28 22.57-.29 1.63-2.77 2.44-14.15 2.62-19.73.04-1.46 1.7-.83 2.17-.4 9.55 8.97 33.72-11.39 38.21-3.55 8.18 14.32 34.94.73 40.88 16.78 4.25 11.47 25.12 70 41.14 65.19 12.78-3.83 34.53 5.69 44.31 17.28 1.65 1.96 1.27 5.21 3.77 7.48 2.5 2.27 2.33-4.87 3.46-5.77 13.1-10.42 25.43 46.22-2.6 40.6 5.34-7.34 5.56-15.96 1.38-23.53-.62-1.13-1.9-4.89-2.17-3.31-.27 1.58 2.24 8.27 2.53 11.34 2.26 24.45-28.01 6.8-27.39 6.02-7.56 9.46-19.21-8.88-30.58-5.82-29.43 7.92-23.68 32.15 7.3 28.71 11.82-1.31 16.97-10.12 30.29-6.71 13.2 3.39 17.57 15.27 28.91 20.13 13.45 5.76 26.45-22.66 47.39-14.47 11.31 4.42 101.87-33.38 114.02-31.6 34.3 5.01 60.16 6.18 70.74 5.72 16.26-.71 15.7 38.77 31.42 37.98 7.35-.37 26.27 14.33 32.41 18.94 15.57 11.68 54.67-38.7 67.47-20.73 15.54 21.83 57.77 1.99 67.58 32.84 2.41 7.55 4.65 28.62 14.87 27.85 11.41-.85 53.94-14.1 59.06-4.37 5.71 10.86 24.59-8.5 40.42-7.18 13.35 1.11 25.56-2.17 39.07-1.28 40.1 2.64 77.91 19.74 117.99 25.75 14.98 2.25 11.4 22.51 23.65 20.82 19.89-2.75 22.7-7.56 42.77-5.86 27.13 2.3 99.23-58.19 112.73-52.06 15.06 6.85 28.29-2.95 41.83 3.16s7.35 6.87 11.05 18.15c4.42 13.49-5.23 60.63 26.69 44.67 9.62-4.81 18.74-16.23 28.56-19.41 11.55-3.74 29.83 0 42.22 0 10.39 0 76.85-14.66 61.17 7.1 25.12 5.76 41.95 4.73 66.3 4.73 13.07 0 34 2.38 44.75 10.2 7.92 5.76 12.71 20.76 24.23 20.76 27.76 0 45.69-.27 68.34 19.56 13.85 12.12 22.38 15.58 40.25 14.21 15.83-1.22 26.35 12.08 40.19 11.58 13.31-.49 28.69-28.87 20.18-31.7-13.6-4.53-33.75-26.02-23.08-45.34 12.8-23.2 62.43 8.55 77.34 10.42 25.78 3.22 8.36 36.67 9.28 48.73.91 12.07 34.52 10.3 38.67-14.06 1.4-8.21-9.03-16.62-4.44-24.41 3.45-5.87 11.79-7.91 13.91.58 4.33 17.34 21.17-19.5 29.07 19.96 1.27 6.39-5.26 12.1-11.31 15.95-6.42 4.08-10.06 1.3-11.36 4.75-2.07 5.52 5.71 15.81 11.85 14.1 19.19-5.37 4.66-11.67 9.77-16.38 21.44-19.76-1.62-36.41 12.24-42.32 14.05-5.99 35.96 10.54 49.22 12.54 24.94 3.75 3.71-2.42 27.75 7.83 21.07 8.98 20.91 10.33 43 14.35 9.11 1.66 7.27 7 14.5 8.88 13.8 3.6 7.17-4.73 19.37-1.97 7.35 1.66 21.99 29.41 36.04 35.3 15.83 6.62 27.25-4.27 41.3-3.7 1.65.07 3.47-1.25.76-3.07-22.49-13.54 26.17-25.18 14.6.02-2.74 5.97 1.43 3.78 2.67 3.95 16.02 2.3 29.84-6.29 46.75.05 21.42 8.03 46.88 21.77 69.6 23.5 42.28 3.22 38.69-25.72 79.15-11.54 16.58 5.8 14.87 8.8 32.06 12.41 17.99 3.79 5.39-1.28 21.88-.98 21.88.39 41.63 17.97 62.73 22.92 23.31 5.46 27.59 7.48 36.86-9.21.43-1.91.85-3.81 1.28-5.73-6.31-4.23-32.39.46-39.98-.48zm-2576.84-456.3v15.79c-21.77 32.66-36.68-2.7-42.62-20.52-3.63-50.6 67.93-33.23 42.62 4.73zm1402.79 185.77c-15.89-5.3-6.35-18.59-27.13-7.4-12.38 6.67-17.99 4.52-32.23 2.48-13.84-1.97-37.99 3.33-57.34 4.33-19.67 1.02-70.12 1.23-89.98-12.63-17.41-12.14-42.78-4.45-61.97 3.45-12.17 5.01-23.16 6.91-36.31 5.52-13.62-1.43-7.39-12.85-10.26-22.88-7.2-25.2-19.98-5.6-34.96-21.52-2.06-2.19 1.3-12.34 1.82-13.71 4.38-11.49-11.7-5.72-18.15-10.56-9.42-7.07-26.48 4.08-35.71-4.46-7.04-6.52-30.56-13.95-33.22-22.67-8.02-26.32-26.89-34.36-37.38-41.21-5.74-3.74-21.4-16.88-21.4-16.88s23.46.5 30.45 6.65c7.56 6.65 16.96 15.82 24.44 29.8 15.03 28.13 49.61 36.32 79.93 33.29 64.91-6.49 9.61-13.28 72.69.92 12.11 2.73 23.07-16.05 52.41-4.67 13.78 5.35 31.33 17.24 45.38 16.73 27.01-1.01 10.29 12.72 26.34 17.31 20.1 5.75 2.1-14.81 12.57-17.11 10.45-2.28 30.23 44.93 43.96 44.93 11.04 0 18.79-4.4 29.99-3.15 8.38.93 16.36 9.02 24.61 11.35 15.79 4.45 74.84 8.3 74.84 18.63-.01 7.38-19.3 4.82-23.39 3.46zm241.62 81.49c-10.38-6.92-26.7-3.18-41.45-8.38-10.25-3.62-23.1-3.16-33.94-3.16-5.02 0-24.85 1.28-44.2-5.52-19-6.69 13.03-32.66-34.32-27.13-7.23.84-35.48-2.57-27.15-8.12 26.74-17.83 83.6 13.59 112.78 13.59 32.43 0 89.61-25.25 93.13 24.03.62 8.6-10.88 24-24.85 14.69zm1175.57 226.08c-13.47-.96-20.82-10.13-36.15-10.42-9.94-.19-19.96.09-29.88.09-26.27 0-23.58-18.51-41.78-26.15-19.35-8.12-63.56-19.27-82.4-11.2.38 13.54 16.47 12.71 27.62 18.28 14.54 7.27 9.51 25.83 26.79 29.09 11.55 2.18 18.06 18.05 29.89 18.71 22.98 1.27 43.52 6.94 63.69 16.49 6.61 3.13 25.12-8.94 30.52 0 2.7 4.47 22.2-2.54 25.91-15.13 2.81-9.45-3.12-18.97-14.21-19.76zm-252.82-103.98c-32.77-2.46 8.89 15.77 16.04 19.51 6.34 3.31 26.64 3.94 35.1-1.88s-41.08-14.62-51.14-17.63zm-3165.93-925.89c-2.85-1.4-6.19-3.62-10.04-6.38l-3.36 223.01-1.78-226.75c-20.33-14.91-53.07-39.41-104.92-45.57-27.2-3.23-64.83 2.37-84.96-2.37-9.31-2.19-17.48 4.56-20.52 6.31-7.91 4.56-18.57-3.08-27.57-2.23-48.26 4.53-82.67-13.99-140.8-23.02-9.3-1.45-39.48-9.29-46.53-22.16-14.25-25.98-41.49-20.4-56.73-23.54-15.66-3.23-30.26-2.21-40.91-8.76-14.3-8.78-15.73-1.04-26.06-13.68-8.2-10.03-37.36-29.47-94.61-27.85-10.8.3-50.48 6.6-60.09-1.08-11.3-9.04-89.17-8.69-104.95-11.06-28.95-4.34-45.08 14.71-57.61 19.73-29.21 11.71-53.82 49.44-51.43 88.65 2.48 40.52-3.1 78.17 5.92 92.34 14.73 23.15 32.81 24.52 29.47 44.2-3.34 19.68 9.07 38.38 23.15 54.72 10.01 11.62 24.21 27.26 32.62 13.68 3.97-6.41 37.14 10.96 42.09 14.73 9.54 7.24 89.73 37.77 101.52 31.4 15.27-8.25 52.21 6.59 52.64 6.75 30.5 11.44 25.9 11.19 50.51 35.52 10.38 10.26 46.88 13.55 74.19 17.37 34.21 4.78 102.6 52.09 110.06 64.31 7.68 12.59 15.82 8.45 22.53 20.92 1.91 3.54 31.47 13.29 45.5 14.74 22.89 2.37 28.62-7.41 54.21 15.05 5.06 4.45 47.07 2.09 75.5 9.68 12.46 3.32 43.13 25.62 88.11 26.57 37.09.79 15.12-8.64 53.67-5.52 21.65 1.75 76.7 9.76 86.3 30.51 2.13 4.61 8.39 7.52 17.41 9.28l-2.21-407.21c-8.87-2.48-18.42-6.45-30.32-12.29zm32.9 486.28 1.6-66.42c-.67-.11-1.32-.23-1.97-.36zm-990.67-478.75c3.43-20.09-9.14-31.93-11.67-34-2.53-2.07-6.52-5.87-8.55-8.86-3.29-4.84-9.44-13.67-13.23-18.09-3.79-4.42-6.59-9.44-14.89-9.64-8.3-.19-9.45-4.44-22.39-15.56-6.07-5.21-15.46-.95-17.91 1.36-7.33 6.93-11.14 1.95-16.7 5.14-22.42 12.89-22.69 21.63-22.79 30.79-.09 9.16-3.46 17.59-4.48 21.59-3.35 13.09 1.31 23.71 4.4 29.77 3.79 7.44 12.57 13.07 20.18 17.97 7.62 4.9 16.02 5.64 25.33 9.64 10.89 4.68 17.61 10.72 30.72 12.19 6.87.77 16.33-5.48 22.39-9.52 5.92-3.94 15.12-6.05 23.47-7.96 2.1-.48 4.18-.85 5.67-4.51 4.59-11.27-1.08-11.35.45-20.31zM64.94 1086.58c-.28-1.81-1.15-3.52-2.63-5.15-1.48-1.62-2.05-7.39-3.12-10.31-1.06-2.92-4.11-6.77-8.19-9.23-4.07-2.46-7.78-2.52-11.43-6.27-3.65-3.76-4.77-2.97-12.36-4.28-7.6-1.31-10.65-1.58-12.45-1.31-1.81.28-5.81 1.2-6.91 4.14-1.09 2.94-2.6 3.01-4.61 5.75-2 2.73-2.23 6.13-3.19 13.98-.96 7.85 10.59 12.32 11.46 14.03.88 1.71 8.63 7.56 9.95 10.13 1.32 2.57 10.6 7.58 13.71 7.5 1.78-.05 13.66.72 20.29-.29 6.63-1.01 9.67-7.33 9.03-11.55-.64-4.21.72-5.34.45-7.14zm35.97 27.32c1.42 3.01 3.38 3.4 6.22 4.74 2.72 1.28 26.15 2.2 36.27-1.13 4.85-1.59 15.85-7.75 23.09-19.04 3.29-5.13 5.16-5.19 8.29-8.02 1.8-1.64 5.2-5.14 6.44-8.95 1.2-3.68 1.97-6.15.84-9.44-.86-2.5-1.35-4.8-1.71-7.39-.48-3.41-1.65-6.22-.79-9.71.73-2.96 1.71-5.08.68-7.93-1.04-2.9-1.95-6.65-4.8-8.54-5.19-3.46-15.03-16.09-27-13.92-1.92.35-8.31 3.18-10.89 5.68-5.12 4.94-14.63 8.28-16.3 10.08-4.49 4.83-10.63 4.95-15.26 6.97-7.43 3.24-14.28 11.59-19.29 16.69-2.71 2.76-6.17 5.81-6.53 9.92-.27 3.19.67 6.19 1.72 9.15 1.45 4.08 2.51 8.28 3.94 12.37 1.49 4.27 4.04 6.7 7.51 9.48 3.17 2.54 5.81 5.26 7.57 8.99z" style="fill:#fefefe;fill-opacity:1"/><path id="path2080" d="M630.85 1093.86c2.1 2.63 17.36 3.68 18.94 3.68 1.58 0 2.63-2.11 2.63-4.74 0-2.63-2.46-4.91-2.85-11.63-.27-4.66.97-12.69-4.52-17.83-6.36-5.95-20.52.27-22.89 11.84-2.36 11.57 6.58 16.05 8.69 18.68zm-93.21 356.61c-8.39-.79-17.07-20.23-31.58-22.3-14.51-2.07-13.53-4.54-20.44-1.78-6.91 2.77-6.31 4.22-17.89 6.32-14.92 2.71-12.91-3.43-21.85 3.69 0 0-4.1 4.98-4.75 7.67-2.35 9.7-4.45 28.11 6.91 38.68 4.35 4.05 5.53 4.14 16.58 6.91 11.05 2.77 50.43-4.14 56.65-8.98 6.22-4.84 18.7-18.86 23.82-20.61 13.68-4.67 7.31-8.21-7.45-9.6z" style="fill:#fefefe;fill-opacity:1"/></g><g id="g2090" class="dbd_logo_vertical1" style="fill:#fefefe;fill-opacity:1"><path id="path2084" d="m1379.26 798.39-11.05.2-38.12 16.41-20.52 17.37 1.32 8.42 15 8.68 39.98-8.42 12.6-11.29 11.68-28.36 1.24-8.1 3.7-6.11-5.97 5.15zm-54.53-42.56-4.21-14.73.79 12.89-5.52 5.01-17.37 3.67-13.94 2.9-10.52 19.99-12.11 9.9-14.99-2.17-23.71-11.16-15.23-10.25-6.57-.13-13.42-7.49-14.73 2.36 8.15 3.42 11.45 10.79 57.87 47.85 18.42 5.69 18.28-13.82 2.37-11.57-1.58-7.63 8.69-18.94 20.25-17.1z" style="fill:#fefefe;fill-opacity:1"/><path id="path2086" d="m1452.06 764.26 11.84-59.19-31.57-67.87-3.45-14.74-9.87-67.05-4.45 43.98-6.4-14.12-18.22-210.63-14.21 123.65-6.84-11.57-12.1 37.88-9.74-8.42-10.26-16.31-9.47 1.31-12.07 7.03-15.29-52.34-8.35 33.67-32.21 11.86-53.6 7.15-33.94 16.58-33.15 7.89-33.15 27.62-6.31 59.19-14.21 29.99-11.05 27.62-1.58 32.36 6.31 31.57-4.73 12.63 3.16 20.52-4.74 22.1 1.58 113.65-28.41 121.54 21.28 66.81 12.63 164.16 15.79-227.3-1.58 276.23-6.98 29.44-.09 388.33 12.63 12.63 7.07 646.11L1134 1860.5l8.38 43.79-.49 145.63 11.05 47.35v246.24l17.36 124.7v159.43l11.05 47.35-.14 139.42 16.68 86.82 15.79 244.66 20.52-220.98-5.26-13.16.68-63.68 21.18-48.37.76-165.76 19.76-77.33 6.31-129.44 1.58-96.28 4.44 21.04 7.37 364.63 24.5-463.01 1.81-65.78-5.79-18.94-.37-31.86 18.15-47.35v-41.83l-2.76-15.23-.82-393.31 7.89-54.46-.76 365.69 13.39-57.1 7.13-137.05 20.52-66.3-.14-169.99 8.27-18.43-1.43-105.74-6.84-15.78.14-75.2 46.9-180.86-.36-229.03 11.05-15.78-7.21-45.27 4.87-38.91zm-232.82 961.28-3.94-727.68-6.58-4.47-5.26 158.37-4.21-246.24-10.52-8.42h-7.37l-8.42 558.78-4.21-535.63-8.95-11.58-3.16 34.73-6.31-71.55 12.1-27.36 2.11-21.05 10.52-11.58 14.73 10.52 4.21 26.31 6.32 27.36 17.89 13.68 20.78 17.36zm196.12-925.38-9.86 40.12 7.1 20.25-1.58 20.52-6.05-3.68-5-1.05-21.84 11.31-7.36 23.42-11.84 235.98-6.05-237.3-8.42 15.79-2.11-21.05-19.99-27.36-16.84-5.26-14.47 17.1-9.73 84.97-6.31-98.92-5.26 10.52-10.52-4.21-12.63-27.36-87.34-69.98-24.2-6.84 10.52 13.68 14.21 11.05-13.68 14.2-34.2-22.1-10.29-36.32v-42.62l-5.52-27.62-4.35 57.92-5.12-12.14-2.34-47.08 18.15-50.77 14.18-63.93 37.1-26.05 21.74-5.65 45.38-16.97 70.24 11.45 67.48 30.78 70.11 78.53 19.47 56.43-9.47 67.08z" style="fill:#fefefe;fill-opacity:1"/><path id="path2088" d="M1197.67 597.1s-11.45 5.09-15.27 8.9c-3.82 3.82 5.09 11.45 5.09 11.45s11.45 0 31.81-2.54 27.99 0 41.99 0c13.99 0 26.72 1.27 35.63 1.27 8.91 0 19.08-10.18 19.08-10.18l-6.36-2.55c-6.36-2.54-7.64-10.18-7.64-10.18l6.36-3.82 45.81 16.54s-10.18-17.81-14-21.63c-3.81-3.81-27.99-21.63-27.99-21.63l-19.09-8.91-20.36 1.27-19.08-5.09v-8.91l-29.26-1.27-26.72 2.54-30.54 17.81-21.63 30.54-1.27 14 5.09 13.99s7.63-7.63 11.45-15.27c3.82-7.63 0 0 5.09-3.82s8.91-5.09 16.54-10.18c7.63-5.06 15.27 7.67 15.27 7.67z" style="fill:#fefefe;fill-opacity:1"/></g><g id="g2096" class="dbd_logo_vertical2" style="fill:#fefefe;fill-opacity:1"><path id="path2092" d="m2130.03 459.61-4.73-27.62-2.63-70.5-20.94-35.6-.92-18.86-15.67-11.75-8.01-57.7-4.44 30.26-12.92-141.55-8.92 90.52-6.97 7.3-4.64 40.04-6.84-10-2.24-58.4-12.23-61.56-10.66 75.77-6.62-15.85L1989.51 0l-19.73 164.16-14.45 7.44-15.66 46.17-5.4 13.48-6.71-15-8.68 13.81-20.7 15.17-41.22 16.29-59.98 56.03-30.78 28.42-19.73 39.46-15.79 27.62-18.94 13.42 3.16 25.26-5.52 16.57.79 18.94-2.37 8.68v14.21l-4.74 22.1 6.32 7.89-3.18 22.88 3.16 12.63 1.58 31.57 17.1 28.94 7.6 123.63 7.37 34.72 2.4-100.48 7.36 16.84 1.05 188.36 37.89 108.39.52 71.56-11.87 27.35 26.83 579.3 9.47-48.93 11.05-393.04 15.55 108.92v226.25l2.1 104.17-13.15 70.5.53 271.5 28.41 90.5v156.8l16.84 78.92v204.68l22.33 326.2 11.05-282.54 5.79 74.7-.24 303.09 12.41 35.78 16 194.67 24.73-309.38v-147.33l13.68-55.77.52-61.04-9.76-47.37.79-117.6 29.2-82.87.5-389.27 15.28-63.75v-77.35l9.98-155.95 7.1 691.34 21.31-277.01 40.25-636.88-.47-320.49-15.81-63.42.03-258.6 11.84-63.93 2.34 282.27 7.1-61.56 15.82-302.79-5.53-34.73 11.05-57.61v-97.08l-3.16-16.58zm-373.95-55.94 26.58-23.17-23.02 27.79-2.55 11.22 6.87 2.86-5.77 1.36-5.96-4.62zm4.06 103.82-6.31-4.74-6.84 8.42-4.21-7.89-6.32 72.08-7.37-78.92 2.9-9.73 17.63 2.89 8.95 12.1 8.42 4.73 7.37 10.52zm329.37-77.61 3.39 28.93-12.6 134.58-2.89-129.83-7.89-14.74-9.34-14.07-7.5-8.03-4.21-12.63-9.47-12.1-5.26 23.15-6.31 16.84-7.37 52.62-3.16-106.29-17.89 1.05-9.73 24.73-12.62-16.31-1.84-23.15 13.68-8.68-22.1 5 1.5 29.47 11.13 29.46-11.5 24.64-.08 17.97-7.37 53.14-12.37 911.05-15.29-907.37-9.47 473.54-2.63-471.44-6.15-22.09 6.05-28.95-.12-13.15-23.37-4.75-12.09-21.35-12.42-.73-6.31-5.26-4.74 1.58 7.36 10.26 8.68 5-12.24 260.45-4.87-257.03-14.99-12.89-18.15 7.37-8.42-6.32-11.05 6.58-11.57 4.47 3.15 8.95-5.79 37.36-5.26-36.83-11.71 2.6-7.23 8.45-12.1-5.79-8.42 2.63-7.63 2.37-13.42 6.05-4.47 23.68-2.11-26.57 19.21-21.84 21.83-7.1 8.42-12.89 6.58-15.26-.92 9.6 3.55 5.13 11.84 8.94 11.05-3.68 5.53-8.42-.39-33.54-2.76-12.63-5.52-6.31 18.15-10.66 1.18-12.23 15-11.05 4.34 1.58 12.63 5.13 14.6 22.1-14.21 16.18-.39 9.07 7.89 3.16 6.31 10.65 2.1 8.02 29 14.78 18.89 2.06 23.15-17.36-2.1-38.41-16.84-17.89-3.15-12.63-22.1-22.1h-39.99l-37.88-18.95 14.73-15.78 34.73-6.31 12.63-12.63-22.1 5.26 29.47-15.79 54.72-4.73 104.71 39.46 49.46 67.87-3.68 20.52 5.52 32.1z" style="fill:#fefefe;fill-opacity:1"/><path id="path2094" d="M2032.92 315.69c-2.11-1.05-13.68-8.42-15.78-8.94-2.11-.53-11.58-7.37-11.58-7.37l-38.41-14.73-29.99-6.31-21.57 1.58 3.16-5.26-17.36 8.94.53 15.26 25.78 6.84 13.15 10 15.26 2.1 7.37 7.89h-11.05l16.84 12.1 46.87 5.82-6.36-4.25-20.52-5.79 6.31-5.79 3.68 3.68 14.15 3.29 18.47 7.23 18.42-1.05s-6.84-15.26-7.89-16.84c-1.06-1.55-7.38-7.34-9.48-8.4z" style="fill:#fefefe;fill-opacity:1"/></g><g id="g2102" class="dbd_logo_vertical3" style="fill:#fefefe;fill-opacity:1"><path id="path2098" d="m2750.88 787.67 7.37-109.44 1.05-51.57v-35.78l9.47-39.99 27.36-69.45-3.68-57.35-32.1-66.82-27.53-21.7-6.41-15.14-11.3-7.76-12.91-51.17-8.93 33.66-17.64-2.6-46.05-24.21-18.94 4.21-15.08-28.96-5.96-69.43-5.79 85.24-6.31-27.89-3.15 51.83-9.47 6.31-11.05-52.88-7.89-16.57-10.52-136.01-10 179.95-16.84 22.62-4.99 43.15-41.04 49.46-6.32 57.88-18.94 57.88 5.26 49.46 5.26 26.3-12.63 48.41 15.15 37.85 18.26 339.66 7.1-250.19 5.79-14.72.15 62.09 7.89 29.46.37 170.48-24.2 47.34v198.89l25.78 94.71v286.23l51.04 158.9v69.97l-24.73 84.72 2.1 285.7-13.79 67.32 19.97 67.36 18.28 293.6 18.24-291.77 17.81 49.74v189.42l19.99 340.43 28.41-237.3.79-116.29 30.52-71.56.26-368.83 29.2-107.87v-116.81l25.52-138.37v-166.79l7.89-48.41-.27-378.32 19.99-94.71 1.05 406.2 10.52-52.62 14.73-437.76.79-61.55v-67.35zm-15.37-268.9-18.41 21.05-6.2 46.07-10.63 26.01 13.68 21.05 21.05 10.52-10.53 33.67-15.54 12.14-11.45 68.92-7.1-42.36-13.67 463.84-10 110.22 2.37-587.98v-18.94l7.1-1.58 15.79-7.5 11.05-12.63-15.39-8.68-8.29-13.81-12.63-6.31-2.37-74.19-8.68 52.88-6.97-1.16-3.68-9.49-5.66-154.3-11.57 162.58-7.37 14.21-7.37 2.37-19.32-13.98-.42-15.22-6.57-8.94-11.3-.29 8.41 6.34-6.32 12.37-7.89 3.94-16.57-7.89-31.57-10.26-25.65 2.37-11.44-3.16-3.95 23.68 12.63 21.31 21.99 11.01 22.62-.52 6.84-7.89 23.27-4.44 12.89-9.48 9.73 7.63 5.53-2.11 2.26 15.22 14.2 11.05 8.42 14.2 15.79 9.47 8.88 4.26-.76 30-23 895.5-3.16-889.47-7.1 3.16-15.89 93.36-4.21-71.03-16.31-19.99 4.21-27.89 3.27 20.82 9.48 5 11.57-24.2-6.32-31.31-11.84-21.31-16.57 13.41-15 24.86-.79 28.81-9.08-22.1 1.97-15-10.26 11.84-15 268.34-9.47-276.23-18.15-7.89-1.58-18.94-10.26-11.05-26.05-28.41 8.68-72.61 11.05-6.31 5.52 20.52 41.98 6.01-27.82-14.72 1.62-9.45-3.27-31.6-18.41-29.46 1.58-56.83 14.71-37.74 34.59-32.74 64.98-26.31 27.36.01-26.31-3.43-22.36-.26 25.52-10.51 77.87 5.26 69.46 48.93 29.46 66.82 5 43.94-17.37 33.15z" style="fill:#fefefe;fill-opacity:1"/><path id="path2100" d="m2706.49 357.43-22.09-13.47-20.48-4.85-16.44 3.16-15.12-1.71-5.68-2.37 19.09 1.31 14.21-3.15-29.02-3.29-41.33 3.2-22.09 12.19-3.85-.79-14.08 3.95-18.41 12.49 9.6-1.45 4.65 1.83-4.98 1.28-17.82 10.26-3.56 11.55-9.86 9.55 18.68-8.29 4.08-4.61 7.05-3.06 10.32 3.73-1.59 10.12-3.43 2.44 14.62-.2 24.97-3.91 37.77-4.49 28.5-7.05 12.82-5.78-16.33 3.08-22.85.13-19.96-7.05 21.11 2.05 35.19-7.19 21.37 1.93 33.68 13.28 6.93 7.88 2.14-9.62-12.76-14.17z" style="fill:#fefefe;fill-opacity:1"/></g><g id="g2110" class="dbd_logo_vertical4" style="fill:#fefefe;fill-opacity:1"><path id="path2104" d="m3332.02 776.87-65.08-19.23-1.93 11.89-5.44 9.16 7.89 14.21 6.05 21.14 9.32 4.13 14.73 11.58 36.04 4.2 22.89-4.2-1.58-22.89z" style="fill:#fefefe;fill-opacity:1"/><path id="path2106" d="m3388.43 970.89 20.23-50.57-6.92-24.8 4.1-67.11-27.62-74.19-26.84-41.83-53.08-23.86-14.82-10.18-14.28-1.53-5.9-8.74-6.52-.39-6.84-11.05-7.1 13.03-7.5-103-6.31 94.32L3216 457.76l-15.79 207.57-11.84 5.53-4.73-4.74-9.47-7.89-18.94-119.17-13.61 160.99-8.49-37.87-18.94 44.2-8.68 24.47-30.78 26.04-22.47 114.94 4.09 22.12 8.01 9.45-3.44 15.22 12.48 67.41-.23 87.34-14.07 57.85.1 199.96 28.15 180.21 12.26-137.61 14.2 59.98-.42 117.35-3.14 56.61 16.22 627.71 16.72-586.46 9.66-60.5-1.94 420.64 33.15 92.34.79 176-11.02 52.68v92.33l19.04 82.42-.1 152.77 23.22 382.49 19.73-215.2 11.73-143.13 24.57-68.91-.26-237.83 10.63-43.86 11.84 411.96 35.68-559.09-19.58-177.34 1.94-190.45 28.42-72.61 1.05-320.96 24.2-63.67 1.05-100.5 6.31-45.25 9.99 433.03 28.05-634.84zm-124.68 8.81-7.23 4.48-5 71.3-4.32 42.07-6.34-83.51-7.08-15.66-5.13.12-14.23 62.89-10.25 746.61-12.63-786.47-6.31-10.26-6.71 21.31-3.53-44.75-11.84-2.36 5.5-9.32 13.02-5.53 6.32-7.89 12.63-12.62 26.59-1.47 14.21 3.16 14.47 2.63 11.57 16.83 1.29 3.96 1.32 4.08zm118-146-16.31 9.73 8.42 17.89-3.68 20.52-13.68 38.28-14.73 363.18-8.42-399.35-7.63 101.02-5.79-111.55-10.79-15.26-10-4.21-15.79 3.68-5.48 17.02 6.54 13.5-7.37 35.79-2.63-20-7.08-13.17-16.44-5.56-5.68 3.73-10.61-8.05-23.3-.39-21.7 8.29-10.68 13.18.15-12.25 3.68-8.95 10-12.1 6.32-10.52 3.26-8.92-3.26-6.99-1.6-7.35 6.08 6.44 6.55 1.87 11.18-6.07 3.58-16.86 4.32 17.38 15.26 4.74 7.21-4.96-1.68-13.19-3.95-6.05-6.32-14.21-12.63-11.31-13.15 7.63-8.95 15.26-1.18-15.78 2.37-17.56-5.13-9.28-7.48-22.64-5.57 7.71-13.01-2.43-50.51 29.2-13.41 47.35 21.31 3.16 15 .79 16.21-8.44 8.68 1.18-5.53 13.42-13.05 15.14.79 18.94-6.31 11.05-7.89 144.43-7.1-150.35-10.26-9.87-5.52-11.84-4.73 26.04-7.1-27.62-7.47-13.18-15.79-13.68 1.58-32.1 23.15-31.56 17.89-7.89 30.76-27.08 7.49-11.05-27.62 16.57 22.1-26.04 55.25-18.15h56.04l42.78 18.92 21.57 30.51 11.42 16.86 12.26 8.92 26.41 36.06z" style="fill:#fefefe;fill-opacity:1"/><path id="path2108" d="m3276.03 716.91 11.13 4.64v-8.35l-13.91-6.49-22.26-2.78-20.41.92-17.62 3.71s-19.48 5.57-24.12 5.57c-4.64 0-8.35 3.71-8.35 3.71l-9.28 9.27-7.42 12.06 25.04-3.71 13.91 3.71 16.7 3.71 9.28-8.35 7.42-.92 12.99-4.64 2.78-12.06 12.06-1.85z" style="fill:#fefefe;fill-opacity:1"/></g></g></g><style id="style853" type="text/css"></style></svg>