<?xml version="1.0" encoding="UTF-8"?><svg id="a" xmlns="http://www.w3.org/2000/svg" width="192" height="192" viewBox="0 0 192 192"><g id="b"><g id="c"><rect x="20" y="20" width="152" height="152" rx="10" ry="10" style="fill:#ff837d;"/><path d="m128.45,97.24c2-5.61,3.17-11.42,4.05-17.3-.44-5.61-14.06-2.32-17.87-1.55-9.37,2.35-18.78,4.7-27.88,7.96-8.94,3.12-17.68-.63-25.16-5.48-.88-.57-2.05.04-2.08,1.09-.29,11.96,2.76,24.87,12.87,32.12.06.04.11.08.16.12-1.53,1.31-2.46,3.29-2.34,5.49.19,3.4,3.03,6.2,6.44,6.33,3.74.15,6.83-2.76,6.98-6.43,7.49,1.98,15.53,3.29,23.05.88.62-.18,1-.3,1.28-.29.45,3.44,3.5,6.07,7.12,5.83,3.37-.22,6.12-3.04,6.26-6.42.1-2.49-1.15-4.68-3.07-5.93.05-.05.1-.11.16-.17,4.77-4.39,7.84-10.22,10.02-16.25Z" style="fill:#f8c18c;"/><circle cx="72.34" cy="74.13" r="8.15" style="fill:#f8c18c;"/><circle cx="86.79" cy="74.13" r="8.15" style="fill:#f8c18c;"/></g></g></svg>