<?xml version="1.0" encoding="UTF-8"?>
<svg version="1.1" viewBox="0 0 192 192" xml:space="preserve" xmlns="http://www.w3.org/2000/svg"><defs><clipPath id="clipPath470"><rect class="a" x="20" y="20" width="152" height="152" rx="10" fill="none" stroke="#b2b6bd"/></clipPath><clipPath id="clipPath474"><rect class="a" x="20" y="20" width="152" height="152" rx="10" fill="none" stroke="#b2b6bd"/></clipPath><clipPath id="clipPath478"><rect class="a" x="20" y="20" width="152" height="152" rx="10" fill="none" stroke="#b2b6bd"/></clipPath><clipPath id="clipPath482"><rect class="a" x="20" y="20" width="152" height="152" rx="10" fill="none" stroke="#b2b6bd"/></clipPath><clipPath id="clipPath486"><rect class="a" x="20" y="20" width="152" height="152" rx="10" fill="none" stroke="#b2b6bd"/></clipPath><clipPath id="clipPath490"><rect class="a" x="20" y="20" width="152" height="152" rx="10" fill="none" stroke="#b2b6bd"/></clipPath></defs>
	 <rect x="20" y="10.438" width="22.75" height="169.87" rx="0" clip-path="url(#clipPath490)" fill="#ff837d" stroke-linecap="round" stroke-linejoin="round" stroke-width="5.2642"/><rect x="42.75" y="10.438" width="26.193" height="169.87" clip-path="url(#clipPath486)" fill="#f8c18c" stroke-linecap="round" stroke-linejoin="round" stroke-width="5.147"/><rect x="68.943" y="8" width="27.057" height="172.31" clip-path="url(#clipPath482)" fill="#f9de81" stroke-linecap="round" stroke-linejoin="round" stroke-width="5"/><rect x="96" y="8.4853" width="26.25" height="171.83" clip-path="url(#clipPath478)" fill="#98dc9a" stroke-linecap="round" stroke-linejoin="round" stroke-width="5"/><rect x="122.25" y="9.1924" width="27.25" height="171.12" clip-path="url(#clipPath474)" fill="#9abeff" stroke-linecap="round" stroke-linejoin="round" stroke-width="5"/><rect x="149.5" y="9.1924" width="22.5" height="171.12" clip-path="url(#clipPath470)" fill="#bd9aff" stroke-linecap="round" stroke-linejoin="round" stroke-width="5.1578"/><rect x="20" y="10.438" width="22.75" height="169.87" rx="0" clip-path="url(#clipPath490)" fill="#ff837d" stroke-linecap="round" stroke-linejoin="round" stroke-width="5.2642"/><rect x="42.75" y="10.438" width="26.193" height="169.87" clip-path="url(#clipPath486)" fill="#f8c18c" stroke-linecap="round" stroke-linejoin="round" stroke-width="5.147"/><rect x="68.943" y="8" width="27.057" height="172.31" clip-path="url(#clipPath482)" fill="#f9de81" stroke-linecap="round" stroke-linejoin="round" stroke-width="5"/><rect x="96" y="8.4853" width="26.25" height="171.83" clip-path="url(#clipPath478)" fill="#98dc9a" stroke-linecap="round" stroke-linejoin="round" stroke-width="5"/><rect x="122.25" y="9.1924" width="27.25" height="171.12" clip-path="url(#clipPath474)" fill="#9abeff" stroke-linecap="round" stroke-linejoin="round" stroke-width="5"/><rect x="149.5" y="9.1924" width="22.5" height="171.12" clip-path="url(#clipPath470)" fill="#bd9aff" stroke-linecap="round" stroke-linejoin="round" stroke-width="5.1578"/><rect x="20" y="10.438" width="22.75" height="169.87" rx="0" clip-path="url(#clipPath490)" fill="#ff837d" stroke-linecap="round" stroke-linejoin="round" stroke-width="5.2642"/><rect x="42.75" y="10.438" width="26.193" height="169.87" clip-path="url(#clipPath486)" fill="#f8c18c" stroke-linecap="round" stroke-linejoin="round" stroke-width="5.147"/><rect x="68.943" y="8" width="27.057" height="172.31" clip-path="url(#clipPath482)" fill="#f9de81" stroke-linecap="round" stroke-linejoin="round" stroke-width="5"/><rect x="96" y="8.4853" width="26.25" height="171.83" clip-path="url(#clipPath478)" fill="#98dc9a" stroke-linecap="round" stroke-linejoin="round" stroke-width="5"/><rect x="122.25" y="9.1924" width="27.25" height="171.12" clip-path="url(#clipPath474)" fill="#9abeff" stroke-linecap="round" stroke-linejoin="round" stroke-width="5"/><rect x="149.5" y="9.1924" width="22.5" height="171.12" clip-path="url(#clipPath470)" fill="#bd9aff" stroke-linecap="round" stroke-linejoin="round" stroke-width="5.1578"/><g transform="matrix(.30437 0 0 .30437 18.354 16.16)"><path d="m37.5 511.99c-1.7-1.2-1.9-2.5-1.7-8.3 0.4-9.3 3.9-31.291 6.8-41.591 13.4-46.1 45.1-87.9 87.2-114.9 4.5-2.9 8.2-5.5 8.2-5.8 0-0.4-5.6-8.3-12.4-17.8-17.4-24.1-17.6-24.4-17.6-28.3 0-7.9 6.9-13.6 14-11.4 4.6 1.4 4.8 1.6 22 25.6 7.9 11 14.6 20.3 15 20.8 0.3 0.4 2.9-0.2 5.6-1.4 15.9-7.1 40.7-13.6 62.4-16.5 17.5-2.3 50.4-1.5 68 1.6 15 2.6 32.3 7.5 46.5 13.1 5.8 2.2 10.9 3.8 11.4 3.5 0.4-0.3 7.9-10.4 16.6-22.5 17.6-24.5 19.6-26.3 26.6-24.2 5.9 1.8 9.9 8 8.5 13.5-0.3 1.3-7.1 11.4-15.2 22.6-8 11.1-14.8 20.8-15.1 21.5-0.2 0.8 2.5 3.2 6.8 6 53.5 34.6 86.7 89.78 93.1 151.18 1.1 11.3 1.1 11.4-1.1 13.3-2.4845 0.66571-10 0.02-218 0.02-183.7 0-215.48-9e-3 -217.6-9e-3zm424.2-17.891c-2.3-21.6-10.8-46.5-23.3-68.7-15.5-27.2-42.7-54.6-70.5-71-6.8-4-7.9-5.1-7.9-7.4 0-2.6-0.2-2.7-4.2-2.3-3.4 0.4-6.1-0.3-12.7-3.1-55.4-23.9-115.9-24.9-168.3-2.9-8.9 3.7-12.5 4.7-17 4.7-5.6 0.1-5.8 0.2-5.8 2.8 0 2.2-1.4 3.5-9.9 8.7-34.8 21.4-60.2 49.2-77 84.2-8.8 18.3-14.1 36.2-16.6 55.7l-0.7 5.2h414.5z" fill="#56595b"/><path d="m44.4 501.4c0.3-0.9 0.6-2 0.6-2.5s45.7-0.9 114.8-0.9h114.8l6.3-5.3c16.1-13.6 29.6-34.9 35.3-55.5 1.8-6.5 2.6-8.1 3.8-7.6 0.8 0.4 3.6 1.2 6.2 1.7 11.4 2.6 27.5-6.4 23.8-13.4-1.5-2.7-5.3-2.4-8.9 0.7-4.2 3.5-9.1 4.7-14 3.4s-9.8-5-8-6c2-1.3 0.5-21.8-2.6-33-3.3-12.2-10.7-27.5-18.3-37.6-7.4-9.9-19.3-21.4-22.1-21.4-1.4 0-2.1-0.6-2.1-2 0-2.4-1.3-2.4 14.2 0 21 3.2 38.4 8.2 57.8 16.5 4.7 2 8.7 3.2 9.5 2.8 0.7-0.5 9.2-11.6 18.7-24.8 12.5-17.3 17.9-24 19.3-24 1.1 0 2.1 0.7 2.3 1.7 0.2 0.9-7.1 12-16.2 24.6-10.7 14.8-16.6 23.9-16.6 25.5 0 2 1.4 3.3 7.9 7.1 30.9 18.2 57.5 46.2 74 77.7 11.6 22.2 17.6 42 20.6 68.2l0.6 5.7h-211.1c-192.2 0-211.2-0.1-210.6-1.6z" fill="#a0a5af"/><path d="m45.4 493.8c1.7-18.6 7.4-38.4 16.7-57.7 16.8-35 42.2-62.8 77-84.2 8-4.9 9.9-6.5 9.9-8.4 0-1.5-6.1-10.9-16.1-24.6-10.9-15.1-15.9-22.8-15.7-24.3 0.7-5.1 4.1-1.6 21.1 21.9 14.8 20.5 17.7 24 19.8 23.9 1.3-0.1 7.5-2.3 13.7-4.8 25.7-10.6 52.8-15.7 83.7-15.8 10.8 0 20.9 0.5 23.1 1.1 3.2 0.8 6.1 3.1 12.5 9.9 14 14.5 23.3 30.5 28.5 49.3 2.1 7.5 2.7 12.5 3.1 24.9l0.6 15.4-2.4-1.5c-3.4-2.2-5.9-7.7-5.9-12.9 0-5-1.3-7-4.5-7-3.3 0-4.5 2-4.5 7.6 0 9.3 3.8 16.4 11.5 21.3l4.2 2.7-1.8 7.1c-5.8 22.4-19 43.5-36 58l-6.3 7.3-116.4-0.021-117.01 0.34415zm219.6-19.9c6-2.7 9.8-6.4 12.6-12.3 1.6-3.6 2-5.4 1.3-6.7-2.3-4.4-7.2-3.6-8.9 1.5-1.6 4.8-6.9 9.2-12.1 10.1-2.7 0.5-4.4 0.4-4.7-0.3-0.1-0.5-1.1-0.8-2-0.6-2.9 0.7-8.1-3.3-10.4-8.1-2.4-4.9-4.6-6.2-7.8-4.5-2.6 1.4-2.5 4.2 0.1 9.7 5.4 11.3 20.3 16.5 31.9 11.2zm-76.3-44.7c4.5-2.4 9.9-8.1 11.8-12.6 3.5-8.4 2.4-16.7-2.3-17.4-3.7-0.5-5.2 1.5-5.2 7 0 8.2-4.2 13.7-11.7 15.7-5.4 1.5-11 0.1-14.3-3.4-2.3-2.5-5.5-3.2-7.6-1.7-4.8 3.3 1.4 11 11.6 14.3 4 1.3 13.3 0.3 17.7-1.9z" fill="#ccc"/></g><path d="m69.616 122.2-4.87 3.5308" fill="none" stroke="#fff" stroke-linecap="round" stroke-linejoin="round" stroke-width="3"/><path d="m61.24 127.99c-8.8568 5.831-14.507 13.023-19.358 20.515" fill="none" stroke="#fff" stroke-linecap="round" stroke-linejoin="round" stroke-width="3"/><path d="m89.706 154.83c2.9731 6.4218 9.6528 6.156 12.588 0" fill="none" stroke="#56595b" stroke-linecap="round" stroke-linejoin="round" stroke-width="3.1969"/><path d="m112.83 137.87c-0.65339 7.2392 5.4248 10.433 11.197 6.4646" fill="none" stroke="#56595b" stroke-linecap="round" stroke-linejoin="round" stroke-width="3.2836"/><path d="m78.681 137.67c0.65961 7.3081-5.4765 10.533-11.304 6.5262" fill="none" stroke="#56595b" stroke-linecap="round" stroke-linejoin="round" stroke-width="3.3149"/></svg>
