<?xml version="1.0" encoding="UTF-8"?><svg id="a" xmlns="http://www.w3.org/2000/svg" width="192" height="192" viewBox="0 0 192 192"><defs><style>.d{fill:#ff837d;}.d,.e{stroke-width:0px;}.e{fill:#fff;}</style></defs><g id="b"><g id="c"><rect class="d" x="20" y="20" width="152" height="152" rx="10" ry="10"/><path class="e" d="m83.37,59.5h14.22c9.16,0,15.33.39,18.38,1.23s5.26,2.21,6.49,4.16c1.3,1.88,1.88,4.16,1.82,6.43-.06,2.4-.84,7.01-2.34,13.9l-5.46,25.59c-1.36,6.56-2.6,10.91-3.7,13.18-.97,2.08-2.47,3.9-4.35,5.2s-4.03,2.14-6.3,2.6c-2.34.45-5.78.71-10.39.71h-24.03l15.65-73Zm16.24,12.47l-10.2,48.06c2.79,0,4.61-.58,5.52-1.62.91-1.1,1.82-4.09,2.92-8.96l6.04-28.38c.71-3.31,1.04-5.46,1.04-6.36,0-.84-.39-1.56-1.04-2.01-.71-.52-2.14-.71-4.29-.71Z"/></g></g></svg>