<?xml version="1.0" encoding="UTF-8" standalone="no"?>
<svg
   id="svg2"
   width="192"
   height="192"
   version="1.1"
   sodipodi:docname="divider.svg"
   xml:space="preserve"
   inkscape:version="1.2.2 (b0a8486541, 2022-12-01)"
   inkscape:export-filename="../../png/divider.png"
   inkscape:export-xdpi="96"
   inkscape:export-ydpi="96"
   xmlns:inkscape="http://www.inkscape.org/namespaces/inkscape"
   xmlns:sodipodi="http://sodipodi.sourceforge.net/DTD/sodipodi-0.dtd"
   xmlns="http://www.w3.org/2000/svg"
   xmlns:svg="http://www.w3.org/2000/svg"><defs
     id="defs7645" /><sodipodi:namedview
     id="namedview7643"
     pagecolor="#505050"
     bordercolor="#eeeeee"
     borderopacity="1"
     inkscape:showpageshadow="0"
     inkscape:pageopacity="0"
     inkscape:pagecheckerboard="0"
     inkscape:deskcolor="#505050"
     showgrid="false"
     inkscape:zoom="3.1819805"
     inkscape:cx="42.426407"
     inkscape:cy="96.166523"
     inkscape:window-width="1912"
     inkscape:window-height="1054"
     inkscape:window-x="0"
     inkscape:window-y="0"
     inkscape:window-maximized="0"
     inkscape:current-layer="svg2" /><style
     id="style853"
     type="text/css">.st0{fill:#fff}</style><g
     id="g1269"><path
       style="fill:#9abeff;stroke-width:2;stroke-linecap:round;stroke-linejoin:round;stroke-opacity:0.709861;stop-color:#000000;fill-opacity:1"
       d="M 32.101562,19.924057 H 159.89844 c 4.155,0 7.5,3.345 7.5,7.5 v 57.151894 c 0,4.155 -3.345,7.5 -7.5,7.5 H 32.101562 c -4.155,0 -7.5,-3.345 -7.5,-7.5 V 27.424057 c 0,-4.155 3.345,-7.5 7.5,-7.5 z"
       id="path1234" /><path
       style="fill:#ffffff;stroke-linecap:round;stroke-linejoin:round;stroke-opacity:0.456088;stop-color:#000000"
       d="M 42.232578,29.135853 H 86.87904 c 2.77,0 5,2.23 5,5 v 43.728302 c 0,2.77 -2.23,5 -5,5 H 42.232578 c -2.77,0 -5,-2.23 -5,-5 V 34.135853 c 0,-2.77 2.23,-5 5,-5 z"
       id="path339" /><path
       style="fill:#ffffff;stroke-linecap:round;stroke-linejoin:round;stroke-opacity:0.456088;stop-color:#000000"
       d="m 104.12142,29.135853 h 46.646 c 2.216,0 4,1.784 4,4 v 16.939352 c 0,2.216 -1.784,4 -4,4 h -46.646 c -2.216,0 -4,-1.784 -4,-4 V 33.135853 c 0,-2.216 1.784,-4 4,-4 z"
       id="path337" /><path
       style="fill:#ffffff;stroke-linecap:round;stroke-linejoin:round;stroke-opacity:0.456088;stop-color:#000000"
       d="m 104.12142,57.924805 h 46.646 c 2.216,0 4,1.784 4,4 v 16.939352 c 0,2.216 -1.784,4 -4,4 h -46.646 c -2.216,0 -4,-1.784 -4,-4 V 61.924805 c 0,-2.216 1.784,-4 4,-4 z"
       id="rect8368" /></g><g
     id="g1276"><path
       style="fill:#9abeff;stroke-width:2;stroke-linecap:round;stroke-linejoin:round;stroke-opacity:0.709861;stop-color:#000000;fill-opacity:1"
       d="M 32.101562,172.07594 H 159.89844 c 4.155,0 7.5,-3.345 7.5,-7.5 v -57.15189 c 0,-4.155 -3.345,-7.500001 -7.5,-7.500001 H 32.101562 c -4.155,0 -7.5,3.345001 -7.5,7.500001 v 57.15189 c 0,4.155 3.345,7.5 7.5,7.5 z"
       id="path1232" /><path
       style="fill:#ffffff;stroke-linecap:round;stroke-linejoin:round;stroke-opacity:0.456088;stop-color:#000000"
       d="m 65.739273,114.62141 h 18.050058 v 18.05005 H 65.739273 Z"
       id="path333" /><path
       style="fill:#ffffff;stroke-linecap:round;stroke-linejoin:round;stroke-opacity:0.456088;stop-color:#000000"
       d="m 108.21067,114.62141 h 18.05006 v 18.05005 h -18.05006 z"
       id="path331" /><path
       style="fill:#ffffff;stroke-linecap:round;stroke-linejoin:round;stroke-opacity:0.456088;stop-color:#000000"
       d="m 65.739273,139.32852 h 18.050058 v 18.05006 H 65.739273 Z"
       id="path329" /><path
       style="fill:#ffffff;stroke-linecap:round;stroke-linejoin:round;stroke-opacity:0.456088;stop-color:#000000"
       d="m 108.21067,139.32852 h 18.05006 v 18.05006 h -18.05006 z"
       id="rect8386" /></g></svg>
