<svg xmlns="http://www.w3.org/2000/svg" width="192" height="192"><path d="M96.271 8.006a8 8 0 0 0-7.822 5.352l-2.594 7.412a76 76 0 0 0-35.982 14.9l-6.59-2.965a8 8 0 0 0-3.101-.703 8 8 0 0 0-7.555 11.102l2.935 6.972a76 76 0 0 0-14.797 35.78l-7.408 2.593a8 8 0 0 0 0 15.102l7.412 2.594a76 76 0 0 0 14.78 35.812l-2.923 6.94a8 8 0 0 0 10.656 10.397l6.63-2.982a76 76 0 0 0 35.942 14.922l2.594 7.408a8 8 0 0 0 15.102 0l2.594-7.412a76 76 0 0 0 35.982-14.9l6.59 2.965a8 8 0 0 0 10.656-10.398l-2.936-6.973a76 76 0 0 0 14.797-35.779l7.408-2.594a8 8 0 0 0 0-15.102l-7.412-2.593a76 76 0 0 0-14.779-35.812l2.922-6.94a8 8 0 0 0-7.621-11.1 8 8 0 0 0-3.035.701l-6.63 2.983a76 76 0 0 0-35.942-14.922l-2.594-7.408a8 8 0 0 0-7.28-5.352z" style="color-rendering:auto;color:#000;dominant-baseline:auto;fill:#9abeff;font-feature-settings:normal;font-variant-alternates:normal;font-variant-caps:normal;font-variant-ligatures:normal;font-variant-numeric:normal;font-variant-position:normal;image-rendering:auto;isolation:auto;mix-blend-mode:normal;shape-padding:0;shape-rendering:auto;solid-color:#000;text-decoration-color:#000;text-decoration-line:none;text-decoration-style:solid;text-indent:0;text-orientation:mixed;text-transform:none;white-space:normal"/><path d="m96 96-60.748 45.561a76 76 0 0 0 .297.396l-2.922 6.94a8 8 0 0 0 10.656 10.398l6.629-2.983a76 76 0 0 0 35.943 14.922l2.594 7.409a8 8 0 0 0 15.102 0l2.593-7.412a76 76 0 0 0 35.982-14.9l6.59 2.964a8 8 0 0 0 10.656-10.398l-2.935-6.972a76 76 0 0 0 .27-.395L95.998 96.001z" style="fill:#f9de81"/><circle cx="96" cy="96" r="64" style="fill:#728dbe;paint-order:stroke fill markers"/><path d="M96.271 8.006a8 8 0 0 0-7.822 5.352l-2.594 7.412a76 76 0 0 0-5.856 1.088V60h32V21.887a76 76 0 0 0-5.855-1.12l-2.594-7.408a8 8 0 0 0-7.28-5.351z" style="fill:#98dc9a;opacity:.5;paint-order:stroke fill markers;stroke-linecap:round;stroke-linejoin:round;stroke-width:8"/><path d="M60 100h24V60h24v40h24l-36 36z" style="fill:#f9de81;stroke-linecap:round;stroke-linejoin:round;stroke-width:8;stroke:#f9de81"/></svg>