<?xml version="1.0" encoding="UTF-8"?>
<svg version="1.1" viewBox="0 0 192 192" xmlns="http://www.w3.org/2000/svg">
 <rect class="a" x="20" y="20" width="152" height="152" rx="10" style="fill:#54688c"/>
 <g transform="matrix(3.6979 0 0 3.6979 51.625 51.625)" fill="#1C274C" style="fill:none">
  <path d="m21.194 2.8062c1.0749 1.075 1.0749 2.8179 0 3.8929l-0.4956 0.49555c-0.1443-0.03124-0.326-0.0788-0.5331-0.15065-0.5543-0.19232-1.2828-0.55577-1.9681-1.241-0.6853-0.68526-1.0487-1.4138-1.241-1.9681-0.0719-0.20709-0.1194-0.38881-0.1507-0.53311l0.4956-0.49555c1.075-1.075 2.8179-1.075 3.8929 0z" style="fill:#fff"/>
  <path d="m14.58 13.313c-0.404 0.404-0.606 0.606-0.8288 0.7798-0.2627 0.2049-0.547 0.3806-0.8478 0.524-0.255 0.1215-0.526 0.2118-1.0681 0.3925l-2.8583 0.9528c-0.26674 0.0889-0.56083 0.0195-0.75965-0.1793-0.19882-0.1989-0.26824-0.4929-0.17933-0.7597l0.95278-2.8583c0.18068-0.5421 0.27102-0.8131 0.39255-1.0681 0.14335-0.3008 0.31905-0.5851 0.52399-0.8478 0.17377-0.2228 0.37577-0.42476 0.77977-0.82877l4.9161-4.9161c0.2637 0.69419 0.726 1.5528 1.533 2.3598 0.8071 0.80703 1.6657 1.2693 2.3599 1.5331z" style="fill:#fff"/>
  <path d="M 20.5355,20.5355 C 22,19.0711 22,16.714 22,12 22,10.4517 22,9.15774 21.9481,8.0661 l -6.3621,6.3622 c -0.3513,0.3514 -0.6152,0.6154 -0.9122,0.847 -0.3486,0.272 -0.7258,0.5051 -1.125,0.6953 -0.34,0.1621 -0.6942,0.28 -1.1655,0.437 L 9.45143,17.3849 C 8.64568,17.6535 7.75734,17.4438 7.15678,16.8432 6.55621,16.2427 6.34651,15.3543 6.61509,14.5486 L 7.59235,11.6167 C 7.74936,11.1454 7.86732,10.7912 8.02935,10.4512 8.21958,10.052 8.45272,9.6748 8.72466,9.32615 8.9563,9.02918 9.22032,8.76528 9.57173,8.41404 L 15.9339,2.05188 C 14.8423,2 13.5483,2 12,2 7.28595,2 4.92893,2 3.46447,3.46447 2,4.92893 2,7.28595 2,12 2,16.714 2,19.0711 3.46447,20.5355 4.92893,22 7.28595,22 12,22 c 4.714,0 7.0711,0 8.5355,-1.4645 z" style="fill:#fff"/>
 </g>
</svg>
