<svg xmlns="http://www.w3.org/2000/svg" xml:space="preserve" viewBox="0 0 192 192"><circle cx="96" cy="96" r="88" fill="#56595b" class="a"/><path fill="none" stroke="#98dc9a" stroke-linecap="round" stroke-width="9.836" d="M67.254 113.02a33.533 33.533 0 0 1-4.326-22.727 33.524 33.524 0 0 1 66.173.18 33.526 33.526 0 0 1-4.45 22.703"/><path fill="#f8c18c" fill-opacity=".965" d="M96 104.1c-2.063 0-3.722 2.058-3.722 4.613v17.695l-7.211-7.21a3.444 3.444 0 0 0-4.88 0l-.383.381a3.444 3.444 0 0 0 0 4.88l13.641 13.642a3.445 3.445 0 0 0 2.507 1.013c.017 0 .033.003.05.003a.404.404 0 0 0 .048-.003 3.439 3.439 0 0 0 2.508-1.013l13.64-13.641a3.444 3.444 0 0 0 0-4.88l-.382-.383a3.444 3.444 0 0 0-4.88 0l-7.211 7.211v-17.695c0-2.556-1.66-4.613-3.722-4.613z"/><path fill="#98dc9a" fill-opacity=".965" d="M83.014 87.773a3.342 3.342 0 0 1 3.345-3.344 3.342 3.342 0 0 1 3.344 3.344 3.342 3.342 0 0 1-3.344 3.344 3.342 3.342 0 0 1-3.344-3.344M103.475 87.773a3.342 3.342 0 0 1 3.345-3.344 3.342 3.342 0 0 1 3.344 3.344 3.342 3.342 0 0 1-3.344 3.344 3.342 3.342 0 0 1-3.344-3.344M128.09 61.725l.65.65a2.093 2.093 0 0 1 .543 2.027 2.094 2.094 0 0 1-.543.941l-6.77 6.77a2.1 2.1 0 0 1-2.968 0l-.65-.65a2.093 2.093 0 0 1-.542-2.026c.095-.357.282-.681.543-.941l6.769-6.771a2.093 2.093 0 0 1 2.027-.543c.357.095.68.283.941.543zM63.126 61.725l-.65.65a2.093 2.093 0 0 0-.543 2.027c.096.357.283.68.543.941l6.77 6.77a2.093 2.093 0 0 0 2.028.542c.357-.095.68-.282.941-.543l.648-.648a2.093 2.093 0 0 0 .543-2.027 2.093 2.093 0 0 0-.543-.941l-6.769-6.771a2.093 2.093 0 0 0-2.027-.543 2.093 2.093 0 0 0-.941.543z"/></svg>