<?xml version="1.0" encoding="UTF-8"?>
<svg version="1.1" viewBox="0 0 192 192" xml:space="preserve" xmlns="http://www.w3.org/2000/svg">
	 <circle class="a" cx="96" cy="96" r="88" fill="#ba6561"/><g transform="matrix(.43563 0 0 .43563 36.962 36.995)"><g transform="translate(0 -26.067)" fill-rule="evenodd"><path d="m50.99 179.63c-21.653 19.856-16.747 60.171 9.3984 73.904 19.049 11.125 45.814 7.0829 59.797-10.303 13.902-13.669 27.481-27.658 41.262-41.449-22.196-21.965-44.104-44.301-66.291-66.318-14.722 14.722-29.444 29.444-44.166 44.166z" fill="#ff837d"/><path d="m184.54 63.299c-20.097 0.38749-34.775 16.346-47.358 30.112-9.302 9.3014-18.604 18.603-27.906 27.904 22.111 22.111 44.221 44.221 66.332 66.332 17.993-19.092 39.375-35.458 53.889-57.531 11.763-24.564-2.3314-57.911-29.15-64.74-5.1072-1.6105-10.465-2.1987-15.807-2.0762z" fill="#fff"/></g></g></svg>
