<svg width="192" height="192" viewBox="0 0 192 192" fill="none" xmlns="http://www.w3.org/2000/svg">
<mask id="mask0_216_112" style="mask-type:luminance" maskUnits="userSpaceOnUse" x="20" y="20" width="152" height="152">
<path d="M162.065 20H29.9346C24.4479 20 20 24.4479 20 29.9346V162.065C20 167.552 24.4479 172 29.9346 172H162.065C167.552 172 172 167.552 172 162.065V29.9346C172 24.4479 167.552 20 162.065 20Z" fill="white"/>
</mask>
<g mask="url(#mask0_216_112)">
<path d="M162.065 20H29.9346C24.4479 20 20 24.4479 20 29.9346V162.065C20 167.552 24.4479 172 29.9346 172H162.065C167.552 172 172 167.552 172 162.065V29.9346C172 24.4479 167.552 20 162.065 20Z" fill="#54688C"/>
</g>
<path d="M83.0234 89.5752V89.5752C90.2108 82.4581 101.789 82.4581 108.977 89.5752V89.5752" stroke="white" stroke-width="6" stroke-linecap="round"/>
<path d="M72.9767 79.2124V79.2124C85.6615 66.4234 106.338 66.4234 119.023 79.2124V79.2124" stroke="white" stroke-width="6" stroke-linecap="round"/>
<rect x="60" y="102.01" width="72" height="33.9896" rx="6" fill="white"/>
<rect x="65.8604" y="107.813" width="60.2791" height="22.3834" fill="#54688C"/>
<rect x="103.535" y="115.275" width="5.86046" height="5.80311" rx="2" fill="white"/>
<rect x="114.419" y="115.275" width="5.86046" height="5.80311" rx="2" fill="white"/>
</svg>
