<?xml version="1.0" encoding="UTF-8"?><svg id="a" xmlns="http://www.w3.org/2000/svg" width="192" height="192" viewBox="0 0 192 192"><g id="b"><g id="c"><path id="d" d="m18,32.5h156c5.52,0,10,4.44,10,9.92v107.16c0,5.48-4.48,9.92-10,9.92H18c-5.52,0-10-4.44-10-9.92V42.42c0-5.48,4.48-9.92,10-9.92Z" style="fill:#9abeff;"/><g id="e"><path d="m82.9,93.01v5.98c0,5.6-4.66,10.15-10.39,10.15h-16.51v-26.29h16.51c5.73,0,10.39,4.55,10.39,10.15Zm-6.77,5.98v-5.98c0-1.96-1.63-3.54-3.62-3.54h-9.75v13.07h9.75c2,0,3.62-1.59,3.62-3.54h0Zm8.68-16.13h25.65v6.61h-9.44v19.62h-6.76v-19.62h-9.44m36.11,0v5.29h11.41v6.61h-11.41v7.73h-6.76v-26.23h21.84v6.61" style="fill:#56595b;"/></g></g></g></svg>