<svg xmlns="http://www.w3.org/2000/svg" width="192" height="192"><path d="m122 114-10 6-7 29 10 10 7 8 10-6v-11l-10-6zM92 131l-10 6-7 29 11 10 6 8 10-6v-11l-10-6z" style="fill:#f8c18c"/><path d="M102 125v30l10 6 10 6v-11l-10-6v-19zM72 142v30l10 6 10 6v-11l-10-6v-19z" style="fill:#f4806d"/><path d="M88 157 33 58h110v67z" style="fill:#f9de81"/><path d="M88 157V89L33 58v67z" style="fill:#c39a54"/><path d="M159 32 98 46l19 60 42-24zM88 89l-1-62-54 31Z" style="fill:#f9de81"/><path d="m88 89-1-62-54 31Z" style="opacity:.25;fill:#fff"/><path d="m75 32 42 25v49L75 82Z" style="fill:#c39a54"/><path d="M159 32 117 8 75 32l42 25ZM37 22l15-8 15 8-15 9z" style="fill:#f9de81"/><path d="m122 84 10-6V67l-10 6zM143 71l10-6V54l-10 6z" style="fill:#4a4a4a"/><path d="M177 86v10l-25 15-25-25Z" style="fill:#f8c18c"/><path d="M127 86v10l25 15v-10z" style="fill:#f4806d"/><path d="m127 86 25-14 25 14-25 15z" style="fill:#f8c18c"/><path d="m92 161 10 6-10 6-10-6zM127 86l25-14 25 14-25 15zM122 144l10 6-10 6-10-6zM159 32 117 8 75 32l42 25Z" style="opacity:.25;fill:#fff"/><path d="M52 49 37 22h30v18z" style="fill:#f9de81"/><path d="M52 49V31l-15-9v18z" style="fill:#c39a54"/><path d="m37 22 15-8 15 8-15 9z" style="opacity:.25;fill:#fff"/></svg>