<?xml version="1.0" encoding="UTF-8"?>
<svg version="1.1" viewBox="0 0 192 192" xmlns="http://www.w3.org/2000/svg">
 <defs>
  <clipPath id="clipPath53">
   <path d="m-216.41 131.25c39.193-5.8594 79.167-8.5938 119.92-8.2031l-3.3203 26.367-76.563 17.578-52.148-16.211z" style="fill:#f9de81;stroke-width:5"/>
  </clipPath>
 </defs>
 <path d="m63.264 75.281c-2.9078-3.7643-6.4879-4.5568-10.74-2.3776-21.697 11.517-34.347 28.891-36.323 49.173-0.56404 5.7888 6.83 13.816 14.405 11.27l20.011 2.8047c3.7528-1.5733 7.0303-3.8003 9.8324-6.681 0 0-1.4945 4.0308 0.37817 5.6725 4.2325 3.7106 14.843-0.96117 14.843-0.96117 14.036-2.5593 27.477-7.2578 40.324-14.096l13.281 3.0814 5.4094-6.7617s2.8108 1.7539 4.2969 1.4674c9.235-1.7802 13.946-11.985 13.946-11.985l10.667-18.5c2.5947-3.8723 3.0044-8.7531 1.2292-14.642l3.1514-4.6641c-6.0927-0.42019-11.345 0.6723-15.757 3.2775 0 0 2.6264-3.5429 1.3236-6.87-0.89054-2.2743-4.2544-1.7333-4.2544-1.7333l-23.45 8.7815-4.3453-6.8857-2.8043-3.7551c-9.7553-1.6804-18.758 1.0125-27.984 2.6472-10.649 1.8868-27.439 11.737-27.439 11.737z" style="fill:#f8c18c;stroke-width:4.5637"/>
 <path d="m27.549 125.56 3.5296 6.4288 16.765 4.6641-0.63028-2.5211 10.084-9.9899 1.6387 3.0884 6.9016-2.7102-0.88239-1.3866 1.1975-0.78786 5.8931 5.9876-0.47271 2.143 8.1936 7.4058 1.166-7.6579 21.728-9.5766 18.342-0.77577 4.3647 6.744 4.538-13.819 6.0822-2.8678 2.8047-7.1222 20.547 4.475 0.81936 2.6472 9.139-8.2567-0.23133-8.0328-14.598-5.441-15.803-11.611 4.2229-10.211 6.1137-0.18908 0.56725-6.87-1.4503 0.27241-20.278-0.93592-1.4028 0.03322 2.5842 5.1053-0.12606 3.2144-4.8532-7.2482-5.1053 5.3574-1.2606-1.8278-15.631 11.219-0.56725-1.9539c-6.0133 2.6607-12.268 4.6673-18.845 5.7986l-0.0064 1.9841c-10.587-0.98816-20.094-3.2725-29.9-5.1986l-0.40968-4.475-13.393 7.973-0.12606 8.0045 8.2567 5.3889-6.8385 12.952 1.0715 2.8362-10.084 4.0968-4.6641-3.5611z" style="fill:#8c72bd;stroke-width:4.5637"/>
 <g transform="matrix(.91274 0 0 .91274 223.44 -1.3753)">
  <path d="m-177.05 131.06-0.82864-1.5192-3.7289 6.422 8.0102-1.1049-1.1739-1.4501 3.7289-2.4169 7.803 7.1125-0.41432 3.3836 5.8695 6.0076 1.4501-16.711-3.936-1.9335 0.0691-6.2839z" style="fill:#fff;stroke-width:5"/>
  <path d="m-158.2 122.29-0.27622 5.5933 4.1432 1.5882-0.82864 9.2532 4.9718-2.9002 0.0691-12.222 0.82864-1.1048-3.5908-2.1407-0.48337 4.1432z" style="fill:#fff;stroke-width:5"/>
  <path d="m-150.26 119.67 0.13811 1.2602 2.6068 1.0013-1.243 2.5377 0.46726 10.15 4.6875-1.6602-0.29296-4.3945 2.4902 3.3203 2.8809-0.63477-1.2695-14.209-3.8086 0.53711 0.14649 5.3711-2.7344-4.3945z" style="fill:#fff;stroke-width:5"/>
  <path d="m-138.53 131.25 0.58594-14.746h3.7109l6.3477 8.9355-4.9805 0.58594-2.4902 1.6602 0.0488 3.3203z" style="fill:#fff;stroke-width:5"/>
  <path d="m-132.86 115.43 9.7168-1.3184 0.29297 2.3438-4.834 0.39062 6.9824 5.2734 0.53711 2.5879 0.53711 4.3945-6.0547-0.83008-5.9082 2.0996-1.2695-4.3457 4.9805-0.58594 1.9043-0.0976-0.0488-1.7578z" style="fill:#fff;stroke-width:5"/>
  <path d="m-122.85 116.46 0.58593-2.9297 11.377-0.19531 2.0996 5.2734-1.3184 4.0527-3.5645-6.3965 0.14649 12.402-6.1035 0.43945-0.53711-4.3945h1.416l0.19531-7.7148z" style="fill:#fff;stroke-width:5"/>
  <path d="m-108.79 118.6 2.9297-5.5664 8.3496 0.14648 0.39062-1.5625 3.125 4.1016-5.1758 3.8574 0.09766-3.418-3.9551-0.0977-5.2246 19.531-4.3457-5.2734 2.4902-7.666z" style="fill:#fff;stroke-width:5"/>
  <path d="m-215.03 122.64 0.41432 16.435 18.506 5.3862-2.4859-4.2813 28.588-18.921-3.2186-22.12 6.8868-1.1969 1.0274-8.0329-22.788-5.3862v-4.2813l-12.43 8.1483 11.049 8.7007 0.41432-5.11h2.0716l-7.3197 23.616 3.1765 3.0384-19.749 7.3197z" style="fill:#fff;stroke-width:5"/>
 </g>
 <g transform="matrix(.91274 0 0 .91274 223.44 -1.3753)" clip-path="url(#clipPath53)" style="fill:#f9de81">
  <path d="m-177.05 131.06-0.82864-1.5192-3.7289 6.422 8.0102-1.1049-1.1739-1.4501 3.7289-2.4169 7.803 7.1125-0.41432 3.3836 5.8695 6.0076 1.4501-16.711-3.936-1.9335 0.0691-6.2839z" style="fill:#f9de81;stroke-width:5"/>
  <path d="m-158.2 122.29-0.27622 5.5933 4.1432 1.5882-0.82864 9.2532 4.9718-2.9002 0.0691-12.222 0.82864-1.1048-3.5908-2.1407-0.48337 4.1432z" style="fill:#f9de81;stroke-width:5"/>
  <path d="m-150.26 119.67 0.13811 1.2602 2.6068 1.0013-1.243 2.5377 0.46726 10.15 4.6875-1.6602-0.29296-4.3945 2.4902 3.3203 2.8809-0.63477-1.2695-14.209-3.8086 0.53711 0.14649 5.3711-2.7344-4.3945z" style="fill:#f9de81;stroke-width:5"/>
  <path d="m-138.53 131.25 0.58594-14.746h3.7109l6.3477 8.9355-4.9805 0.58594-2.4902 1.6602 0.0488 3.3203z" style="fill:#f9de81;stroke-width:5"/>
  <path d="m-132.86 115.43 9.7168-1.3184 0.29297 2.3438-4.834 0.39062 6.9824 5.2734 0.53711 2.5879 0.53711 4.3945-6.0547-0.83008-5.9082 2.0996-1.2695-4.3457 4.9805-0.58594 1.9043-0.0976-0.0488-1.7578z" style="fill:#f9de81;stroke-width:5"/>
  <path d="m-122.85 116.46 0.58593-2.9297 11.377-0.19531 2.0996 5.2734-1.3184 4.0527-3.5645-6.3965 0.14649 12.402-6.1035 0.43945-0.53711-4.3945h1.416l0.19531-7.7148z" style="fill:#f9de81;stroke-width:5"/>
  <path d="m-108.79 118.6 2.9297-5.5664 8.3496 0.14648 0.39062-1.5625 3.125 4.1016-5.1758 3.8574 0.09766-3.418-3.9551-0.0977-5.2246 19.531-4.3457-5.2734 2.4902-7.666z" style="fill:#f9de81;stroke-width:5"/>
  <path d="m-215.03 122.64 0.41432 16.435 18.506 5.3862-2.4859-4.2813 28.588-18.921c-5.2699-11.326 0.14384-21.283 4.6956-31.35l-22.788-5.3862v-4.2813l-12.43 8.1483 11.049 8.7007 0.41432-5.11h2.0716l-7.3197 23.616 3.1765 3.0384-19.749 7.3197z" style="fill:#f9de81;stroke-width:5"/>
 </g>
 <path d="m70.974 116.95 3.7437 2.9414 0.26741-2.8523-0.93592-1.337z" style="fill:#8c72bd;stroke-width:4.5637"/>
 <path d="m100.17 110-0.0445 2.4958 2.0055-0.66851z" style="fill:#8c72bd;stroke-width:4.5637"/>
 <path d="m56.936 82.59 6.3286 0.17827-2.5849 19.966-5.259 2.1392 3.6545-20.323z" style="fill:#8c72bd;stroke-width:4.5637"/>
 <path d="m67.131 90.772 4.8216-1.4181 1.7018 10.589 2.3005-0.31514-1.0084-11.912 5.9561-1.103 0.2206 17.049-10.904 6.2398z" style="fill:#fff;stroke-width:4.5637"/>
 <path d="m74.183 80.985h4.0111l3.4763 4.4122v-3.3871h3.4763l5.5709 11.097 0.17828 6.3731-3.1197 1.337-0.89136-3.8328-1.6936 0.40111 0.2674 5.2144-4.3362 1.0601 0.54792-18.174-7.0862 0.89135z" style="fill:#fff;stroke-width:4.5637"/>
 <path d="m83.581 79.363v1.0715h2.3951l4.742 12.673 0.55238 7.9373 5.0422-1.7648-2.8362-6.807 5.7355 3.4665 1.0715-3.9077 0.4412-3.6556-6.4919-2.1429 3.1514-7.1852 1.5757-0.37817-0.37817-2.0799 1.7017-1.6387-7.2482 1.9539-2.7732 5.3574-1.6387-4.538z" style="fill:#fff;stroke-width:4.5637"/>
 <path d="m99.097 97.743 3.9219-9.27-4.8467-9.6135 19.465-13.205v10.072l-8.7352 3.3871-0.17827 8.8244-3.298 6.9525 6.1503-4.635 48.4-2.3175 0.35655-4.2785 8.7352 9.9831-9.9831 10.072 0.17827-4.5459-46.35-4.635-5.7938 4.5459z" style="fill:#fff;stroke-width:4.5637"/>
 <path d="m112.02 80.272 4.0111-1.8718 4.7666 10.165-6.3658 0.63028z" style="fill:#fff;stroke-width:4.5637"/>
 <path d="m112.83 96.192 16.324 1.3551-0.0315 1.6702-16.419-1.7648z" style="fill:#fff;stroke-width:4.5637"/>
 <path d="m117 80.468 0.2046-2.9637 8.3512-4.1598 2.8993 3.7502-2.5211 1.103-0.0631 1.103 6.0507 8.4142-7.0276 0.69331-3.4665-7.5318-3.3849 1.8151z" style="fill:#fff;stroke-width:4.5637"/>
 <path d="m118.8 66.947 0.17827 4.4122 3.1643 2.1838 3.6991-2.0055 3.5208 5.0807-2.1617 1.0282 9.4262 10.292 14.262-0.93592-15.732-10.518 7.3091-16.579 5.6601-0.31197-9.1809-8.7352-11.097 7.7993 4.947 0.17827-2.8969 13.147-5.7046-9.6266z" style="fill:#fff;stroke-width:4.5637"/>
 <path d="m40.579 80.718 8.6015 7.6879-0.86907 1.6267-8.5792-8.245z" style="fill:#fff;stroke-width:4.5637"/>
 <path d="m42.095 95.514s-15.461 2.8919-17.575-5.7365c-3.5867-14.642 24.037-23.188 24.037-23.188l-19.253-10.741" style="fill:none;stroke-linecap:round;stroke-linejoin:round;stroke-width:2.7382;stroke:#fff"/>
 <path d="m32.156 62.356-2.8523-6.5068 10.161 1.1142" style="fill:none;stroke-linecap:round;stroke-linejoin:round;stroke-width:2.7382;stroke:#fff"/>
 <path d="m74.316 74.006c19.245 1.1345 35.968-6.9751 50.17-24.329l-9.5487 3.5926" style="fill:none;stroke-linecap:round;stroke-linejoin:round;stroke-width:2.7382;stroke:#fff"/>
 <path d="m124.49 49.677-2.2375 8.6663" style="fill:none;stroke-linecap:round;stroke-linejoin:round;stroke-width:2.7382;stroke:#fff"/>
 <path d="m149.86 73.097 1.5153 1.9164 10.295-4.5904-1.1142-2.0055 6.8188 0.62394-3.0752 4.7242 4.1894 7.8439" style="fill:none;stroke-linecap:round;stroke-linejoin:round;stroke-width:2.7382;stroke:#fff"/>
 <path d="m161.11 69.42 3.1866 4.3453" style="fill:none;stroke-linecap:round;stroke-linejoin:round;stroke-width:2.7382;stroke:#fff"/>
 <path d="m161.49 73.587-0.22284 2.8523s-6.2825-0.61679-6.9745 1.6716c-0.50536 1.6712 1.7021 3.6347 3.5635 3.8386 1.9131 0.20954 5.9959-0.02835 5.9959-0.02835l-0.44567-2.5403 8.0667-7.4428 2.986-1.6936" style="fill:none;stroke-linecap:round;stroke-linejoin:round;stroke-width:2.7382;stroke:#fff"/>
 <path d="m157.86 81.95 0.85295-2.4601" style="fill:none;stroke-linecap:round;stroke-linejoin:round;stroke-width:2.7382;stroke:#fff"/>
 <path d="m172.89 73.817 1.5687-3.5724-3.2705-0.80805" style="fill:none;stroke-linecap:round;stroke-linejoin:round;stroke-width:2.7382;stroke:#fff"/>
 <circle cx="33.538" cy="139.55" r="2.0947" style="fill:#f9de81"/>
 <circle cx="51.097" cy="141.6" r="2.0947" style="fill:#f9de81"/>
 <circle cx="146.65" cy="123.26" r="2.0947" style="fill:#f9de81"/>
 <circle cx="152.07" cy="112.42" r="2.0947" style="fill:#f9de81"/>
 <circle cx="159.03" cy="122.15" r="1.1808" style="fill:#f9de81"/>
</svg>
