<?xml version="1.0" encoding="UTF-8"?>
<svg version="1.1" viewBox="0 0 192 192" xml:space="preserve" xmlns="http://www.w3.org/2000/svg">
	 <rect class="a" x="20" y="20" width="152" height="152" rx="10" fill="#ff837d"/><path d="m73.17 120.22c-13.627-2.9576-12.486-17.666 2.4822-31.987 4.9571-4.7429 9.8279-8.1685 15.815-11.123 8.0403-3.9672 15.466-5.883 22.824-5.8883 10.77-0.0076 16.01 5.2705 13.403 13.499-3.6919 11.651-26.012 25.946-40.579 25.99-2.7425 8e-3 -3.5025-0.13706-5.1514-0.98534-2.2046-1.1342-3.1753-2.7025-3.1753-5.1304 0-6.8464 11.163-16.176 22.11-18.479 2.7518-0.57879 7.2613-0.59958 4.952-0.0228-7.2592 1.813-11.119 3.745-14.919 7.4671-2.5592 2.5069-3.6023 4.4875-3.6163 6.8666-0.02035 3.4732 2.4046 4.6939 8.6948 4.3769 13.491-0.67981 28.262-13.063 28.322-23.744 0.0209-3.7196-1.261-5.64-4.8145-7.2119-3.785-1.6743-11.508-1.2353-18.356 1.0434-15.568 5.1799-30.916 19.803-33.392 31.817-0.62775 3.0454-0.062 6.0843 1.4929 8.0195 4.9774 6.1948 20.863 5.3656 35.188-1.8368 1.6978-0.85363 3.2184-1.5488 3.3791-1.5449 0.60037 0.0148-3.6122 2.4501-6.9205 4.0008-9.8855 4.6336-20.361 6.4739-27.738 4.8729zm38.942-27.967-0.80184-1.2974-2.7157 0.92368c-1.4936 0.50803-2.8805 0.86874-3.082 0.80159-0.20144-0.0671 0.68629-0.8604 1.9727-1.7628 2.4758-1.7367 2.6435-2.0428 1.7592-3.2119-0.91956-1.2158-0.66482-1.3905 1.9058-1.3073 2.4056 0.0779 2.5139 0.039 4.7668-1.7105 1.2679-0.98463 2.3939-1.7016 2.5022-1.5933 0.10828 0.10829-0.23645 0.97219-0.76606 1.9198l-0.96295 1.7229 1.3927 0.0448c0.76598 0.0246 1.9036 0.15737 2.5281 0.29497 1.0382 0.22876 0.85997 0.34646-2.0817 1.3745-3.1925 1.1158-3.2241 1.1396-4.1341 3.1114-0.50431 1.0929-1.044 1.987-1.1992 1.987-0.15524 0-0.64309-0.58382-1.0841-1.2974z" fill="#fff" stroke-width=".37849"/></svg>
