<svg xmlns="http://www.w3.org/2000/svg" id="svg2" width="192" height="192" version="1.1"><g id="layer1" transform="translate(0 -860.362)"><path id="path948" d="M179 974.445h-51.672l25.839 44.745a5.001 5.001 0 0 1-1.83 6.831l-22.661 13.093a4.999 4.999 0 0 1-6.83-1.829l-46.725-80.928 46.724-80.917a5.001 5.001 0 0 1 6.83-1.83l22.663 13.077a5 5 0 0 1 1.83 6.83l-25.84 44.764H179a5 5 0 0 1 5 5v26.164a5 5 0 0 1-5 5z" style="fill:#97db99;fill-opacity:1;stroke-width:1.37505"/><path id="path950" d="M13.001 974.445h51.682l-25.831 44.745a5.002 5.002 0 0 0 1.83 6.831l22.66 13.093a4.998 4.998 0 0 0 6.829-1.829l44.217-76.597a8.66 8.66 0 0 0 0-8.66L70.171 875.44a5 5 0 0 0-6.83-1.83l-22.66 13.077a5 5 0 0 0-1.831 6.83l25.832 44.764H13a5 5 0 0 0-5 5l.001 26.164a5 5 0 0 0 5 5z" style="fill:#bd9aff;fill-opacity:1;stroke-width:1.37505"/></g><style id="style853" type="text/css">.st0{fill:#fff}</style></svg>