<?xml version="1.0" encoding="UTF-8" standalone="no"?>
<svg
   width="192"
   height="192"
   version="1.1"
   id="svg6"
   sodipodi:docname="edenred.svg"
   inkscape:export-filename="edenred.png"
   inkscape:export-xdpi="96"
   inkscape:export-ydpi="96"
   inkscape:version="1.2.2 (b0a8486541, 2022-12-01)"
   xmlns:inkscape="http://www.inkscape.org/namespaces/inkscape"
   xmlns:sodipodi="http://sodipodi.sourceforge.net/DTD/sodipodi-0.dtd"
   xmlns="http://www.w3.org/2000/svg"
   xmlns:svg="http://www.w3.org/2000/svg">
  <defs
     id="defs10" />
  <sodipodi:namedview
     id="namedview8"
     pagecolor="#505050"
     bordercolor="#eeeeee"
     borderopacity="1"
     inkscape:showpageshadow="0"
     inkscape:pageopacity="0"
     inkscape:pagecheckerboard="0"
     inkscape:deskcolor="#d1d1d1"
     showgrid="false"
     inkscape:zoom="1.2291667"
     inkscape:cx="19.525424"
     inkscape:cy="96.40678"
     inkscape:window-width="1884"
     inkscape:window-height="1055"
     inkscape:window-x="36"
     inkscape:window-y="0"
     inkscape:window-maximized="1"
     inkscape:current-layer="svg6" />
  <rect
     width="152"
     height="152"
     x="20"
     y="20"
     fill="#fff"
     rx="9.935"
     id="rect2" />
  <path
     fill="#ba6561"
     d="m 62.735432,116.24734 c 2.177944,2.24601 4.832312,3.1308 7.826985,3.1308 7.214438,0.0681 14.360816,0 21.575254,0.0681 0.612547,0 0.748668,-0.20418 0.816729,-0.74867 0.408365,-2.58631 0.816729,-5.24068 1.293154,-7.82698 0.136122,-0.81673 0.06806,-1.08898 -0.884789,-1.08898 -5.717102,0.0681 -11.366144,-0.0681 -17.083246,0.0681 -4.560069,0.13612 -5.580981,-2.246 -5.580981,-5.58098 0,-1.42927 0.06806,-2.92661 0,-4.355884 -0.06806,-0.816729 0.272243,-0.952851 0.952851,-0.952851 5.58098,0 11.0939,0 16.674881,0.06806 0.88479,0 1.225093,-0.204182 1.361215,-1.088972 0.340303,-2.450187 0.816729,-4.900374 1.225093,-7.282499 0.136121,-0.748669 0,-0.952851 -0.816729,-0.952851 -6.125466,0 -12.250933,0 -18.376399,0.06806 -0.88479,0 -1.088972,-0.204182 -1.020912,-1.088972 0.06806,-2.926612 0.06806,-5.853223 0,-8.711774 0,-0.748669 0.204183,-0.952851 0.952851,-0.952851 6.874134,0 13.680208,0 20.554343,0.06806 0.816729,0 1.157033,-0.204182 1.293154,-1.088972 0.340304,-2.518247 0.748668,-5.104555 1.225093,-7.622803 0.136122,-0.816729 0,-1.020911 -0.816728,-1.020911 H 68.11223 c 8.371471,-8.30341 23.821259,-13.271844 38.6585,-7.078317 14.49694,5.989345 23.88932,20.826587 22.32392,37.161165 -1.5654,16.879062 -14.49694,30.014792 -30.491208,32.601102 -8.167289,1.29315 -15.926213,-0.13613 -23.140652,-4.15171 -5.240677,-2.85855 -9.596564,-6.53383 -12.727358,-11.63839 z"
     class="st1"
     id="path4"
     style="stroke-width:0.680607" />
</svg>
