<svg xmlns="http://www.w3.org/2000/svg" width="192" height="192"><rect width="152" height="152" x="20" y="20" opacity=".63" rx="9.935" style="fill:#54688c;opacity:1"/><path d="M59.998 85.387a11.432 11.432 0 0 0-11.441 11.441 11.433 11.433 0 0 0 11.441 11.443c5.226 0 9.572-3.466 11.002-8.197h-3.629c-1.21 2.86-4.072 4.785-7.373 4.785-4.346 0-7.811-3.3-8.031-7.535h19.42l.055-.715c-.165-6.326-5.173-11.223-11.443-11.223zm27.592 0a11.432 11.432 0 0 0-11.441 11.441 11.433 11.433 0 0 0 11.441 11.443c5.226 0 9.572-3.466 11.002-8.197h-3.63c-1.211 2.86-4.071 4.785-7.372 4.785-4.346 0-7.811-3.3-8.031-7.535h19.418l.054-.715c-.165-6.326-5.17-11.223-11.44-11.223zm28.416 0c-3.136 0-5.223.892-7.316 2.676-2.513 2.141-3.365 4.787-3.41 7.164-.093 4.773 0 12.604 0 12.604h3.41V95.893c0-4.016 3.3-7.096 7.316-7.096.66 0 1.21.056 1.705.22v-3.466a7.793 7.793 0 0 0-1.705-.164zm15.936 0a11.432 11.432 0 0 0-11.441 11.441c0 6.326 5.115 11.443 11.441 11.443s11.443-5.117 11.443-11.443a11.433 11.433 0 0 0-11.443-11.441zm-71.943 3.41a7.897 7.897 0 0 1 7.537 5.446H52.41c1.1-3.191 4.07-5.446 7.59-5.446zm27.592 0a7.897 7.897 0 0 1 7.537 5.446H80c1.1-3.191 4.071-5.446 7.592-5.446zm44.352 0c4.4 0 8.031 3.576 8.031 8.031 0 4.456-3.63 8.032-8.031 8.032a8.005 8.005 0 0 1-8.031-8.032 8.005 8.005 0 0 1 8.031-8.03z" style="fill:#fff"/></svg>