<svg xmlns="http://www.w3.org/2000/svg" id="svg2" width="192" height="192" version="1.1"><g id="layer1" transform="translate(0 -860.362)"><path id="rect980" d="M172.5 110.975h-153V162.5c0 5.54 4.46 10 10 10h133c5.54 0 10-4.46 10-10v-51.525z" style="fill:#70a270;fill-opacity:1;fill-rule:evenodd;stroke:none;stroke-opacity:1" transform="translate(0 860.362)"/><path id="path44300" d="M29.5 19.5c-5.54 0-10 4.46-10 10v81.475h153V29.5c0-5.54-4.46-10-10-10h-133z" style="fill:#d8d8d8;fill-opacity:1;fill-rule:evenodd;stroke:none;stroke-opacity:1" transform="translate(0 860.362)"/></g><g id="layer2"><g id="g48098" transform="translate(15.52)"><path id="path41624" d="M102.514 131.309c1.127-.232 3.739-.764 5.802-1.182 4.217-.855 3.773-1.82-.627-1.365l-2.605.27 2.21-1.992c2.687-2.422 4.49-5.308 5.86-9.382.887-2.634.928-3.997.289-9.577-.876-7.643-2.993-13.011-8.346-21.155-3.231-4.916-9.751-12.199-11.205-12.516-.51-.112-.297-.86.65-2.263 1.825-2.71 1.582-4.663-.82-6.601-3.293-2.655-6.682-1.338-7.26 2.821-.225 1.622-.369 1.71-2.431 1.487-1.206-.13-3.393-.122-4.86.02-2.332.224-2.8.052-3.738-1.371-1.416-2.148-2.743-2.72-4.665-2.013-4.115 1.514-5.213 6.213-2.048 8.766l1.69 1.362-1.387 4.27c-1.51 4.655-1.53 6.057-.118 8.581.854 1.527.796 1.919-.704 4.762-.9 1.703-1.873 4.382-2.163 5.952-.29 1.57-1.305 4.708-2.253 6.974-.95 2.267-1.763 5.385-1.809 6.93-.05 1.732-.382 2.84-.864 2.891-.43.046-2.392-1.225-4.36-2.826-4.254-3.458-5.924-3.573-8.346-.57-1.552 1.924-1.586 2.153-.892 6.009 1.603 8.906 6.711 12.15 21.052 13.366 10.211.866 25.26.136 33.948-1.648zm-28.621 1.08c-2.152-.114-5.789-.445-8.081-.735l-4.168-.528.079-2.77c.257-9 7.442-17.191 19.288-21.99 3.844-1.556 6.013-2.006 13.737-2.85 8.147-.889 9.644-.892 13.396-.03l4.224.969.257 5.163c.302 6.08-.762 10.102-3.652 13.797-4.676 5.978-8.258 7.388-21.37 8.413-5.388.422-11.558.674-13.71.56zm14.014-39.274c-1.969-.14-6.13-.772-9.248-1.404-3.117-.632-6.204-1.092-6.859-1.022-1.314.14-2.564-1.784-2.84-4.374-.265-2.478 2.397-9.542 3.486-9.253 1.387.369 4.191-2.901 4.002-4.667-.16-1.49-.116-1.51 3.645-1.61 7.206-.19 15.238 4.607 21.463 12.823 2.714 3.582 2.646 4.346-.576 6.481-3.663 2.429-7.852 3.398-13.073 3.026z" style="fill:#56595b;stroke-width:.595271"/><path id="path47300" d="M103.116 102.844c1.861-.004 3.175.211 5.05.642l4.223.969.258 5.164c.303 6.08-.762 10.1-3.652 13.795-4.676 5.978-8.257 7.388-21.37 8.414-5.387.421-11.558.674-13.71.56-2.153-.113-5.788-.443-8.08-.734l-4.168-.527.078-2.772c.257-9 7.442-17.19 19.289-21.988 3.843-1.557 6.012-2.006 13.736-2.85 4.074-.444 6.484-.669 8.346-.673z" style="fill:#fefefe;stroke-width:.595271"/><path id="path47298" d="M80.133 70.785c7.206-.192 15.238 4.607 21.463 12.822 2.714 3.582 2.647 4.347-.575 6.483-3.663 2.428-7.852 3.397-13.074 3.025-1.969-.14-6.128-.772-9.246-1.404-3.117-.632-6.204-1.092-6.86-1.022-1.314.141-2.564-1.784-2.841-4.375-.265-2.478 2.397-9.541 3.486-9.252 1.387.369 4.193-2.902 4.004-4.668-.16-1.49-.118-1.509 3.643-1.609z" style="fill:#fefefe;stroke-width:.595271"/></g></g><style id="style853" type="text/css">.st0{fill:#fff}</style></svg>