<svg xmlns="http://www.w3.org/2000/svg" width="192" height="192" fill="none"><rect width="152" height="104" x="20" y="62" fill="#56595b" rx="10"/><path fill="#b1b5bd" fill-rule="evenodd" d="M36 79a5 5 0 1 0 0 10 5 5 0 0 0 0-10zm120 42a5 5 0 1 0 .001 10.001A5 5 0 0 0 156 121zm-5-16a5 5 0 1 1 10.001.001A5 5 0 0 1 151 105zm5-26a5 5 0 1 0 0 10 5 5 0 0 0 0-10zm-25 47a5 5 0 1 1 10.001.001A5 5 0 0 1 131 126zm5-26a5 5 0 1 0 .001 10.001A5 5 0 0 0 136 100zm-5-16a5 5 0 1 1 10 0 5 5 0 0 1-10 0zm-15 37a5 5 0 1 0 .001 10.001A5 5 0 0 0 116 121zm-5-16a5 5 0 1 1 10.001.001A5 5 0 0 1 111 105zm5-26a5 5 0 1 0 0 10 5 5 0 0 0 0-10zm-25 47a5 5 0 1 1 10 0 5 5 0 0 1-10 0zm5-26a5 5 0 1 0 0 10 5 5 0 0 0 0-10zm-5-16a5 5 0 1 1 10 0 5 5 0 0 1-10 0zm-15 37a5 5 0 1 0 0 10 5 5 0 0 0 0-10zm-5-16a5 5 0 1 1 10 0 5 5 0 0 1-10 0zm5-26a5 5 0 1 0 0 10 5 5 0 0 0 0-10zm-25 47a5 5 0 1 1 10 0 5 5 0 0 1-10 0zm5-26a5 5 0 1 0 0 10 5 5 0 0 0 0-10zm-5-16a5 5 0 1 1 10 0 5 5 0 0 1-10 0zm-15 37a5 5 0 1 0 0 10 5 5 0 0 0 0-10zm-5-16a5 5 0 1 1 10 0 5 5 0 0 1-10 0zm29 40a5 5 0 0 0 0 10h75a5 5 0 0 0 0-10z" clip-rule="evenodd"/><path fill="#9abeff" fill-rule="evenodd" d="M133.007 111c5.522 0 9.993-4.477 9.993-10.001V36c0-5.52-4.474-10-9.993-10H58.993C53.47 26 49 30.477 49 36V101C49 106.52 53.474 111 58.993 111h18.806a10 10 0 0 1 7.142 3L96 125.284l11.238-11.238a10 10 0 0 1 7.01-2.928z" clip-rule="evenodd" style="fill:#f9de81;fill-opacity:1"/><path d="M116.29 80.958c.67 6.003-3.043 11.788-9.598 14.952-6.555 3.163-14.83 3.163-21.384 0-6.555-3.164-10.269-8.95-9.598-14.952h40.58z" style="fill:#8e6f60;fill-opacity:1;stroke:#8e6f60;stroke-width:3;stroke-linecap:butt;stroke-linejoin:round;stroke-miterlimit:4;stroke-dasharray:none;stroke-opacity:1;stop-color:#000"/><circle cx="114.188" cy="55.553" r="7.133" style="fill:#8e6f60;fill-opacity:1;stroke-width:13.5957;stroke-linecap:round;stroke-linejoin:round;stop-color:#000"/><circle cx="77.812" cy="55.553" r="7.133" style="fill:#8e6f60;fill-opacity:1;stroke-width:13.5957;stroke-linecap:round;stroke-linejoin:round;stop-color:#000"/></svg>