<?xml version="1.0" encoding="UTF-8" standalone="no"?>
<svg
   viewBox="0 0 192 192"
   version="1.1"
   id="svg3"
   sodipodi:docname="emuready.svg"
   inkscape:version="1.4.2 (f4327f4, 2025-05-13)"
   xml:space="preserve"
   xmlns:inkscape="http://www.inkscape.org/namespaces/inkscape"
   xmlns:sodipodi="http://sodipodi.sourceforge.net/DTD/sodipodi-0.dtd"
   xmlns:xlink="http://www.w3.org/1999/xlink"
   xmlns="http://www.w3.org/2000/svg"
   xmlns:svg="http://www.w3.org/2000/svg"><defs
     id="defs1"><linearGradient
       id="linearGradient4"
       inkscape:collect="always"><stop
         style="stop-color:#ff837d;stop-opacity:1"
         offset="0"
         id="stop4" /><stop
         style="stop-color:#bd9aff;stop-opacity:1"
         offset="1"
         id="stop5" /></linearGradient><linearGradient
       inkscape:collect="always"
       xlink:href="#linearGradient4"
       id="linearGradient5"
       x1="54.48996"
       y1="63.485943"
       x2="139.05222"
       y2="129.28514"
       gradientUnits="userSpaceOnUse" /></defs><sodipodi:namedview
     id="namedview3"
     pagecolor="#505050"
     bordercolor="#ffffff"
     borderopacity="1"
     inkscape:showpageshadow="0"
     inkscape:pageopacity="0"
     inkscape:pagecheckerboard="1"
     inkscape:deskcolor="#505050"
     inkscape:zoom="3.890625"
     inkscape:cx="83.919679"
     inkscape:cy="100.11245"
     inkscape:window-width="1920"
     inkscape:window-height="986"
     inkscape:window-x="-11"
     inkscape:window-y="-11"
     inkscape:window-maximized="1"
     inkscape:current-layer="svg3" /><rect
     class="a"
     x="20"
     y="20"
     width="152"
     height="152"
     rx="10"
     id="rect1"
     style="opacity:1;stroke:none;fill:#54688c" /><path
     style="fill:url(#linearGradient5);fill-opacity:1"
     d="m 64.164607,128.46575 c -4.67759,-0.72328 -8.262411,-3.9998 -9.696286,-8.86239 -0.678616,-2.30133 -0.453532,-6.69138 0.798352,-15.57104 0.12074,-0.85641 0.366939,-2.8584 0.54711,-4.448869 1.210462,-10.685441 1.989741,-16.742444 2.389688,-18.57403 1.75008,-8.014618 7.135724,-14.261292 14.52521,-16.84743 2.255603,-0.789405 5.183457,-0.885409 26.025886,-0.853385 18.011413,0.02768 18.018513,0.02787 19.646433,0.527776 5.92983,1.820966 10.69791,5.98125 13.37704,11.671845 1.23326,2.619512 1.81991,4.919418 2.45289,9.616398 0.24731,1.835159 0.54985,3.987299 0.67231,4.782535 0.12246,0.795235 0.37777,2.847276 0.56736,4.560091 0.54233,4.899526 0.9427,8.243499 1.31835,11.010949 0.71508,5.26812 1.2223,10.59906 1.10058,11.56706 -1.16843,9.29146 -8.39535,12.40044 -13.8064,11.17223 -2.92525,-0.66397 -4.0551,-1.48478 -10.17178,-7.38951 -2.79707,-2.70014 -5.3496,-5.04408 -5.67231,-5.20876 -1.35738,-0.69266 -2.99571,-0.79838 -12.331573,-0.79575 -10.016407,0.003 -10.796911,0.0728 -12.551488,1.12514 -0.461882,0.27703 -2.441378,2.06774 -4.39888,3.97936 -5.854867,5.71764 -7.125014,6.84238 -8.41732,7.45374 -1.976255,0.93492 -4.530589,1.36926 -6.375172,1.08404 z m 29.822663,-22.6762 c 1.158947,-0.34146 1.660427,-0.80624 12.30049,-11.400224 6.10075,-6.074337 11.381,-11.434641 11.73389,-11.911787 0.53614,-0.724928 0.64161,-1.082623 0.64161,-2.175968 0,-1.565222 -0.35713,-2.480677 -1.36376,-3.495837 -1.27598,-1.286802 -3.02448,-1.704491 -4.47626,-1.069313 -0.33693,0.147412 -4.99156,4.637343 -10.34362,9.977626 -8.239403,8.221264 -9.867415,9.746929 -10.6208,9.953105 -0.580428,0.158843 -4.292582,0.245116 -10.677287,0.248147 -5.383132,0.0026 -9.925856,0.09227 -10.094942,0.199356 -0.464589,0.294245 -0.723965,2.388893 -0.470852,3.802461 0.512906,2.864444 2.528869,5.178064 5.115929,5.871304 1.872349,0.50172 16.55351,0.50263 18.255602,0.001 z M 89.297345,85.796022 c 0.198547,-0.239234 0.250957,-1.26076 0.191164,-3.725928 -0.07578,-3.124143 -0.126714,-3.474972 -0.635582,-4.377621 -1.017942,-1.805661 -0.915794,-1.780301 -7.44895,-1.849349 -5.551377,-0.05867 -5.819308,-0.04196 -6.674827,0.4163 -1.406585,0.75344 -3.092295,2.685447 -3.567394,4.08862 -0.512047,1.5123 -0.592116,4.849141 -0.129775,5.408333 0.275092,0.332718 1.180076,0.369244 9.148557,0.369244 7.540819,0 8.883552,-0.04854 9.116807,-0.329599 z"
     id="path4"
     sodipodi:nodetypes="ssssssssssssscssscsssscssssssscsssccsssssssss" /></svg>
