<?xml version="1.0" encoding="UTF-8"?>
<svg version="1.1" viewBox="0 0 192 192" xmlns="http://www.w3.org/2000/svg">
 <circle class="a" cx="96" cy="96" r="88" style="fill:#fff"/>
 <text x="95.894569" y="141.96837" style="fill:#ffffff;font-family:Now;font-size:168.78px;font-weight:900;stroke-linecap:round;stroke-linejoin:round;stroke-width:4;stroke:#56595b;text-align:center;text-anchor:middle" xml:space="preserve"><tspan x="95.894569" y="141.96837" style="stroke-width:4">e</tspan></text>
 <g transform="matrix(2.2203 -.59494 .59494 2.2203 37.387 58.754)" style="fill:#98dc9a;stroke:#56595b">
  <path d="m1.497 8.8878 6.7574 6.7574 6.7574-6.7574c0.7956-0.79565 1.2426-1.8748 1.2426-3v-0.1903c0-2.238-1.8143-4.0523-4.0523-4.0523-1.2311 0-2.3954 0.55959-3.1644 1.5209l-0.78331 0.97914-0.78331-0.97914c-0.76902-0.96127-1.9333-1.5209-3.1644-1.5209-2.238 0-4.0523 1.8143-4.0523 4.0523v0.1903c0 1.1252 0.44699 2.2044 1.2426 3z" fill="#000" style="fill:#98dc9a;stroke-width:1.7401;stroke:#56595b"/>
 </g>
</svg>
