<?xml version="1.0" encoding="UTF-8"?>
<svg version="1.1" viewBox="0 0 192 192" xmlns="http://www.w3.org/2000/svg">
 <circle class="a" cx="96" cy="96" r="88" style="fill:#98dc9a"/>
 <path d="m95.548 140.17c-11.386-0.92241-20.742-4.9134-28.175-12.02-3.5291-3.3739-6.0744-6.905-8.4179-11.679-4.0746-8.2997-5.569-17.901-4.2379-27.227 0.32594-2.2835 1.3132-6.5263 1.7887-7.6869l0.27606-0.67381 2.501 1.605c3.6486 2.3415 4.1969 2.5872 5.773 2.5872 2.3505 0 3.039-0.50011 6.2544-4.5433 6.3081-7.9321 8.5244-11.633 9.445-15.771 0.4518-2.0307 0.33239-4.4897-0.30395-6.2593-0.24733-0.68779-0.46886-1.3891-0.49231-1.5585-0.0921-0.66547 6.256-2.5778 10.691-3.2206 9.7258-1.4096 19.839 0.40511 27.55 4.9438 8.4394 4.9668 15.007 13.089 18.091 22.375 1.4218 4.2803 1.7542 6.1653 1.7592 9.974 5e-3 3.9313-0.26325 5.2336-1.6926 8.215-0.80373 1.6765-1.2186 2.2402-2.8472 3.8686-2.161 2.1606-3.7419 3.1017-6.6036 3.9307-3.1782 0.92068-4.4399 0.97059-24.586 0.97244-12.569 1e-3 -19.337 0.0757-19.852 0.2187-2.0922 0.58102-2.4835 2.0501-1.0864 4.0786 1.091 1.5841 2.3755 2.6301 4.5771 3.7273 3.4662 1.7274 8.041 2.5407 13.13 2.3341 5.4022-0.21929 9.1998-1.2454 14.383-3.8864 4.4314-2.2577 6.5699-2.7141 9.339-1.9928 1.7526 0.45648 2.7904 1.0544 4.2303 2.437 1.8859 1.8109 2.9992 4.3503 3.334 7.604 0.50067 4.8669-2.9715 9.1952-10.333 12.88-7.1829 3.5958-16.52 5.4124-24.497 4.7662zm17.149-52.902c0.93317-0.56426 1.2292-1.5694 0.81552-2.7691-1.1879-3.4453-4.8674-6.8501-9.0537-8.378-2.7444-1.0016-4.9477-1.3237-8.181-1.196-5.4703 0.21607-9.2934 1.7455-12.611 5.0449-3.6037 3.5844-4.2704 6.9451-1.5033 7.578 0.52762 0.12067 6.6726 0.18759 15.364 0.16729 14.044-0.0328 14.506-0.0464 15.169-0.44716z" style="fill:#fff;stroke-width:5;stroke:#56595b"/>
 <path d="m61.979 80.468c-2.9304-1.7442-7.9524-5.1838-9.5009-6.5071-3.8962-3.3296-5.6056-6.8981-5.0141-10.467 0.5703-3.4417 2.8252-6.014 6.2956-7.182 1.7444-0.58705 4.4418-0.49002 6.3952 0.23004l1.2889 0.47514 0.87377-0.7894c1.1457-1.0351 3.1585-1.9612 4.8839-2.2471 3.8439-0.63695 7.8205 1.5306 9.5368 5.1983 0.53548 1.1443 0.6733 1.7359 0.74273 3.188 0.19434 4.0648-1.5064 7.4983-7.3604 14.859-2.9318 3.6866-3.4764 4.0898-5.5363 4.0979-0.99078 4e-3 -1.3698-0.12062-2.6052-0.85598z" style="fill:#98dc9a;stroke-width:5;stroke:#56595b"/>
</svg>
