<?xml version="1.0" encoding="UTF-8"?><svg id="a" xmlns="http://www.w3.org/2000/svg" width="192" height="192" xmlns:xlink="http://www.w3.org/1999/xlink" viewBox="0 0 192 192"><defs><clipPath id="d"><circle cx="96" cy="96" r="88" style="fill:none;"/></clipPath></defs><g id="b"><g id="c"><g style="clip-path:url(#d);"><circle cx="96" cy="96" r="88" style="fill:none;"/><circle cx="96" cy="96" r="88" style="fill:#98dc9a;"/><path d="m87.36,99.55c-10.06,0-20.11,0-30.17,0-.79,0-1.59.04-2.38.03-2.14-.03-3.79-1.66-3.76-3.84.17-10.32,3.33-19.59,9.77-27.66,4.14-5.19,9.2-9.31,15.14-12.31,4.5-2.28,9.26-3.7,14.26-4.37,3.32-.45,6.65-.52,9.98-.18,8.48.87,16.18,3.77,22.96,9,5.18,4,9.4,8.83,12.49,14.62,2.29,4.3,3.85,8.84,4.64,13.67.57,3.44.8,6.88.56,10.35-.68,9.56-3.95,18.1-10.05,25.53-3.97,4.83-8.72,8.7-14.26,11.59-4.69,2.45-9.66,3.99-14.92,4.66-3.31.42-6.62.51-9.93.16-9.38-.99-17.72-4.48-24.9-10.64-3.29-2.82-6.14-6.04-8.49-9.68-.4-.63-.76-1.33-.93-2.05-.35-1.51.44-3.01,1.81-3.74,1.31-.7,3-.45,4.08.62.3.29.55.63.79.98,1.5,2.23,3.08,4.41,4.98,6.32,3.93,3.94,8.52,6.88,13.72,8.86,3.03,1.15,6.16,1.86,9.38,2.14,1.5.13,3.01.26,4.5.22,8.78-.25,16.65-3.01,23.43-8.67,5-4.18,8.74-9.31,11.13-15.37,1.4-3.54,2.24-7.22,2.47-11.03.18-2.95.17-5.89-.35-8.81-1.13-6.41-3.64-12.21-7.66-17.34-4.63-5.91-10.52-10.05-17.61-12.46-4.66-1.58-9.48-2.22-14.39-1.89-4.12.27-8.11,1.19-11.95,2.76-5.23,2.14-9.76,5.27-13.54,9.44-4.52,4.99-7.56,10.78-9.02,17.37-.3,1.35-.46,2.74-.7,4.11-.08.43.08.52.48.52,7.74,0,15.48,0,23.22,0,10.75,0,21.51,0,32.26,0,.45,0,.91-.02,1.36,0,.42.02.49-.14.41-.52-.47-2.13-1.21-4.16-2.29-6.06-3.13-5.49-7.83-8.86-13.98-10.1-4.28-.86-8.49-.32-12.47,1.53-5.64,2.62-9.28,6.99-11.11,12.9-.14.47-.43.54-.83.54-1.83,0-3.66,0-5.49-.01-1.19,0-1.19-.01-.93-1.17,1.09-4.69,3.28-8.81,6.55-12.33,3.49-3.75,7.7-6.38,12.62-7.84,3.1-.92,6.27-1.3,9.5-1.06,6.14.45,11.6,2.6,16.26,6.67,5.15,4.49,8.33,10.09,9.39,16.84.22,1.38.27,2.81.26,4.21-.01,2.13-1.59,3.53-3.86,3.54-3.72,0-7.45-.01-11.17-.01-7.09,0-14.19,0-21.28,0h0Z" style="fill:#fff;"/><path d="m69.58,101.47h6.13c.26,0,.49.17.57.43.57,1.88,1.35,3.63,2.41,5.26,3.12,4.8,7.48,7.89,13.06,9.11,4.41.97,8.71.41,12.84-1.46,3.36-1.52,6.05-3.82,8.21-6.78,1.05-1.44,2.39-2,3.9-1.63,2.34.57,3.53,3.4,2.17,5.36-4.37,6.27-10.33,10.22-17.82,11.61-9.08,1.68-17.04-.85-23.85-6.97-4.14-3.73-6.95-8.71-8.19-14.14,0-.02,0-.03-.01-.05-.09-.37.2-.73.58-.73Z" style="fill:#fff;"/></g></g></g></svg>