<?xml version="1.0" encoding="UTF-8"?><svg id="a" xmlns="http://www.w3.org/2000/svg" width="192" height="192" viewBox="0 0 192 192"><g id="b"><g id="c"><rect x="19.5" y="19.5" width="153" height="153" rx="10" ry="10" style="fill:#f9de81;"/><path id="d" d="m84.91,77.55c0-3.24,2.55-5.87,5.68-5.87h10.82c3.13,0,5.68,2.63,5.68,5.87v1.63h-22.18v-1.63Zm23.36,18.89c-.71,0-1.31.48-1.56,1.15-.81,2.22-2.88,3.8-5.31,3.8h-10.82c-3.13,0-5.68-2.64-5.68-5.88v-4.93h32.49c.9,0,1.63-.73,1.63-1.63v-11.23c0-10.04-7.91-18.21-17.62-18.21h-10.82c-9.72,0-17.62,8.17-17.62,18.21v17.64c0,10.04,7.91,18.21,17.62,18.21h10.82c8.81,0,16.12-6.58,17.42-15.29.15-.97-.64-1.84-1.62-1.84h-8.94Z" style="fill:#56595b; fill-rule:evenodd;"/><rect id="e" x="72.97" y="121.29" width="44.85" height="11.21" rx="2" ry="2" style="fill:#fff;"/></g></g></svg>