<svg xmlns="http://www.w3.org/2000/svg" width="192" height="192"><rect width="153" height="153" x="19.5" y="19.5" opacity=".63" rx="10" style="fill:#98dc9a;stroke:#b1b5bd;stroke-width:0;stroke-miterlimit:4;stroke-dasharray:none;fill-opacity:1;opacity:1"/><path d="M90.023 125.882c-3.824-1.364-7.137-4.028-8.493-6.827-1.108-2.29-1.265-3.827-1.265-12.424 0-11.21.42-12.704 4.56-16.248 8.409-7.198 23.497-3.937 26.376 5.7.991 3.317 1.003 11.562.019 12.546-.524.525-4.034.746-11.81.746H88.346v2.207c0 4.114 1.425 5.747 6.437 7.376 1.666.54 6.07-.773 7.72-2.304l1.416-1.312 3.4 1.834c1.87 1.009 3.4 2.15 3.401 2.538.004 1.436-4.963 5.15-8.154 6.098-3.962 1.177-9.356 1.207-12.543.07zm13.24-25.785c0-1.861-.367-2.73-1.548-3.66-4.836-3.804-13.37-1.047-13.37 4.32v1.781h14.919zm-33.98 2.534c-8.898-3.076-12.084-9.86-8.072-17.193.933-1.706 4.784-6.877 8.559-11.492 9.08-11.104 10.46-11.44 6.283-1.53-1.014 2.406-2.17 5.892-2.567 7.747-.647 3.017-.6 3.539.45 4.949.756 1.014 2.181 1.797 3.999 2.197l2.825.622-1.823 2.176c-2.11 2.52-3.644 7.144-3.644 10.99 0 2.375-.161 2.682-1.399 2.664-.77-.011-2.844-.52-4.61-1.13zm47.034-1.851c0-4.165-1.547-8.66-3.79-11.014-1.977-2.076-2.327-3.1-.865-2.54 2.867 1.1 7.141-1.612 7.141-4.532 0-2.036-2.687-10.405-4.48-13.95-.922-1.826-1.04-2.575-.49-3.108.826-.802 1.973.392 10.373 10.796 7.822 9.688 9.44 13.61 7.61 18.451-1.5 3.971-7.314 7.945-12.706 8.684l-2.793.383z" style="fill:#fff;stroke-width:.999999;fill-opacity:1"/></svg>