<?xml version="1.0" encoding="UTF-8"?>
<svg id="Layer_1" data-name="Layer 1" xmlns="http://www.w3.org/2000/svg" xmlns:xlink="http://www.w3.org/1999/xlink" viewBox="0 0 192 192">
  <defs>
    <style>
      .cls-1 {
        fill: #fff;
      }

      .cls-2 {
        fill: url(#radial-gradient);
      }

      .cls-3 {
        fill: #f9de81;
      }

      .cls-4 {
        fill: #ccc;
      }

      .cls-5 {
        fill: none;
        stroke: #fff;
        stroke-linecap: round;
        stroke-linejoin: round;
        stroke-width: 4px;
      }
    </style>
    <radialGradient id="radial-gradient" cx="99.95" cy="97.27" fx="99.95" fy="97.27" r="76.2" gradientUnits="userSpaceOnUse">
      <stop offset="0" stop-color="#98dc9a"/>
      <stop offset=".38" stop-color="#7aaa93"/>
      <stop offset=".8" stop-color="#5e7a8e"/>
      <stop offset="1" stop-color="#54688c"/>
    </radialGradient>
  </defs>
  <g>
    <path class="cls-2" d="m108.98,174.07c-8.29,0-12.95-5.34-14.77-8.03l-8.33-.87c-1.52-.16-2.68-1.43-2.69-2.96-.11-15.18-2.25-24.6-3.57-28.98-13.99,7.07-23.86,17.05-23.97,17.16-.59.6-1.36.9-2.14.9-.73,0-1.45-.26-2.03-.79l-5.89-5.41c-.75.12-1.71.21-2.81.21-3.68,0-10.59-1.14-15.48-8.8-5.47-8.55-2.22-16.92.93-21.15l-1.77-7.69c-.35-1.53.53-3.07,2.03-3.54,14.05-4.39,22.61-9.87,26.36-12.64-8-8.57-23.34-17.41-23.5-17.51-1.34-.77-1.88-2.42-1.25-3.83l3.11-6.92c-2.27-4.34-3.95-12.45,2.14-20.03,3.57-4.44,8.55-6.79,14.39-6.79,2.61,0,4.85.48,6.26.87l6.64-4.19c.48-.3,1.04-.46,1.6-.46.23,0,.46.03.68.08.78.18,1.46.67,1.88,1.35,5.47,8.9,15.38,17.49,20.13,21.32,7.08-13.3,8.88-27.53,8.89-27.68.18-1.52,1.48-2.64,2.98-2.64.12,0,.24,0,.36.02l8.54,1.02c2.15-1.93,7.08-5.64,13.3-5.64,2.9,0,5.71.8,8.36,2.38,9.04,5.39,9.77,13.21,9.55,16.84l6.18,4.92c1.29,1.02,1.51,2.89.5,4.19-7.54,9.68-12.21,20.62-14.2,25.9,4.89.82,9.92,1.24,14.99,1.24,8.43,0,14.04-1.18,14.09-1.19.21-.04.42-.07.63-.07.58,0,1.15.17,1.64.49.67.44,1.14,1.12,1.3,1.91l1.65,8.03c4.4,2.27,10.52,7.98,9.81,17.73-.72,9.88-8.05,14.64-12.92,16.19l-3.33,7.53c-.49,1.11-1.59,1.79-2.74,1.79-.33,0-.67-.06-1.01-.17-11.48-4.08-22.98-5.2-28.51-5.5,2.63,18.61,8.53,27.53,8.59,27.62.47.69.63,1.55.44,2.36-.19.81-.7,1.51-1.43,1.93l-7.34,4.22c-1.03,5.15-4.99,13.2-14.64,14.94-1.22.22-2.44.33-3.61.33Z"/>
    <path class="cls-4" d="m120.98,23.47c2.14,0,4.45.54,6.82,1.96,10.13,6.04,7.91,15.57,7.91,15.57l7.49,5.96c-10.81,13.87-15.83,30.04-15.83,30.04,7.06,1.48,13.59,1.94,18.98,1.94,8.91,0,14.72-1.26,14.72-1.26l1.96,9.53s10.3,3.74,9.45,15.4c-.85,11.66-12.09,13.87-12.09,13.87l-3.91,8.85c-16.05-5.71-32.01-5.79-32.9-5.79-.03,0-.04,0-.04,0,2.47,22.13,9.53,32.43,9.53,32.43l-8.6,4.94s-1.11,11.83-12.43,13.87c-1.09.2-2.11.28-3.08.28-9.11,0-12.98-7.86-12.98-7.86l-9.81-1.02c-.17-22.98-4.85-33.11-4.85-33.11-16.28,7.4-27.83,19.21-27.83,19.21l-7.02-6.45s-1.5.46-3.71.46c-3.56,0-8.98-1.19-12.95-7.42-6.45-10.09,1.66-18.77,1.66-18.77l-2.11-9.13c20.62-6.45,29.74-15.11,29.74-15.11-7.57-9.79-26.3-20.51-26.3-20.51l3.74-8.34s-6.21-8.85,1.11-17.96c3.64-4.53,8.3-5.67,12.05-5.67,3.79,0,6.67,1.16,6.67,1.16l7.83-4.94c7.74,12.6,23.57,24.26,23.57,24.26,8.94-14.81,10.98-31.83,10.98-31.83l9.96,1.19s5.24-5.79,12.24-5.79m0-6c-6.36,0-11.43,3.19-14.26,5.5l-7.22-.86c-.24-.03-.48-.04-.72-.04-2.99,0-5.58,2.24-5.95,5.29-.02.13-1.48,11.6-6.91,23.31-5-4.28-12.26-11.15-16.57-18.16-.84-1.37-2.19-2.34-3.75-2.7-.45-.1-.91-.16-1.36-.16-1.12,0-2.23.32-3.2.92l-5.56,3.5c-1.53-.34-3.52-.65-5.74-.65-6.79,0-12.57,2.74-16.73,7.91-6.46,8.03-5.36,16.62-3.1,21.93l-2.55,5.67c-1.26,2.82-.19,6.13,2.49,7.66,3.94,2.26,13.69,8.42,20.31,14.5-4.37,2.81-11.79,6.82-22.56,10.19-2.99.94-4.76,4.02-4.06,7.08l1.48,6.41c-3.34,5.2-6.1,14.2-.24,23.37,4.2,6.57,10.59,10.18,18.01,10.18.64,0,1.24-.03,1.79-.07l4.88,4.48c1.15,1.06,2.61,1.58,4.06,1.58,1.56,0,3.12-.6,4.29-1.8.09-.09,8.14-8.21,19.89-14.82,1.14,4.96,2.42,13.03,2.5,24.57.02,3.06,2.34,5.61,5.38,5.92l6.97.73c3,3.87,8.51,8.19,16.45,8.19,1.35,0,2.75-.13,4.15-.38,10.39-1.87,15.12-10,16.72-15.94l6.22-3.57c1.45-.83,2.49-2.24,2.86-3.87.37-1.63.05-3.35-.9-4.73-.03-.05-4.81-7.39-7.51-22.65,5.95.54,14.95,1.86,23.95,5.06.66.24,1.34.35,2.01.35,2.31,0,4.5-1.35,5.49-3.57l2.81-6.36c5.59-2.21,12.91-7.75,13.68-18.35.76-10.36-5.17-16.82-10.13-19.88l-1.38-6.7c-.32-1.57-1.26-2.94-2.6-3.82-.98-.64-2.12-.97-3.28-.97-.42,0-.85.04-1.27.14-.04,0-5.39,1.12-13.46,1.12-3.63,0-7.24-.22-10.79-.66,2.37-5.64,6.47-14.06,12.37-21.63,2.02-2.6,1.58-6.34-1-8.38l-4.98-3.97c-.1-5.47-2.53-12.92-11.08-18.02-3.12-1.86-6.45-2.81-9.9-2.81h0Z"/>
  </g>
  <g>
    <polyline class="cls-5" points="157.26 101.43 146.96 101.43 143.47 105.6 137.34 94.28 129.51 104.06 123.64 93.34 115.72 102.62 109.94 91.47 106.02 96.91 96 96 106.45 70.96 116.23 75.21 114.19 52.83 96.91 66.02 106.45 70.96"/>
    <polyline class="cls-5" points="120.49 39.13 114.19 52.83 103.89 48.4 114.19 52.83 124.57 57.51"/>
    <path class="cls-5" d="m49.68,54.7l8.09,7.23s6.04-6.13,10.04-2.38c5.12,4.79-.51,10.98-.51,10.98,0,0,4.26-7.23,10.04-2.72s0,11.4,0,11.4c0,0,4.6-6.3,10.04-2.47s0,11.23,0,11.23l8.62,8.02-15.26,8.32s-8.85-10.89-19.06-4.17-4.51,17.87-4.51,17.87c0,0,6.89,9.45,17.96,4.77,12.6-5.33,5.62-18.47,5.62-18.47"/>
    <line class="cls-5" x1="57.17" y1="118.02" x2="42.87" y2="126.87"/>
    <polyline class="cls-5" points="116.36 118.87 101.17 122.45 89.14 125.42 101.17 122.45 96 96"/>
    <polyline class="cls-5" points="90.96 135.42 104.37 132.26 118.19 128.87 104.37 132.26 109.26 155.72"/>
  </g>
  <g>
    <circle class="cls-3" cx="120.49" cy="39.13" r="8.09"/>
    <circle class="cls-3" cx="49.68" cy="54.7" r="8.09"/>
    <circle class="cls-3" cx="42.87" cy="126.87" r="8.09"/>
    <circle class="cls-3" cx="109.26" cy="155.72" r="8.09"/>
    <circle class="cls-3" cx="157.26" cy="101.43" r="8.09"/>
  </g>
  <path class="cls-1" d="m66.65,108.04c-.68-.79-1.94-.67-2.45.24l-3.63,6.53c-.55,1,.17,2.22,1.31,2.22h7.58c1.14,0,1.86-1.23,1.31-2.23l-.71-1.26,6.82-4.15c1.12-.71,1.56-2.07.78-3.02l-.12-.17c-.62-.75-2.03-1.05-3.19-.31l-6.11,4.17"/>
</svg>