<?xml version="1.0" encoding="UTF-8" standalone="no"?>
<svg
   xmlns:dc="http://purl.org/dc/elements/1.1/"
   xmlns:cc="http://creativecommons.org/ns#"
   xmlns:rdf="http://www.w3.org/1999/02/22-rdf-syntax-ns#"
   xmlns:svg="http://www.w3.org/2000/svg"
   xmlns="http://www.w3.org/2000/svg"
   xmlns:sodipodi="http://sodipodi.sourceforge.net/DTD/sodipodi-0.dtd"
   xmlns:inkscape="http://www.inkscape.org/namespaces/inkscape"
   viewBox="0 0 192 192"
   version="1.1"
   id="svg16"
   sodipodi:docname="everdale.svg"
   inkscape:version="0.92.4 (5da689c313, 2019-01-14)">
  <metadata
     id="metadata20">
    <rdf:RDF>
      <cc:Work
         rdf:about="">
        <dc:format>image/svg+xml</dc:format>
        <dc:type
           rdf:resource="http://purl.org/dc/dcmitype/StillImage" />
        <dc:title />
      </cc:Work>
    </rdf:RDF>
  </metadata>
  <sodipodi:namedview
     pagecolor="#ffffff"
     bordercolor="#666666"
     borderopacity="1"
     objecttolerance="10"
     gridtolerance="10"
     guidetolerance="10"
     inkscape:pageopacity="0"
     inkscape:pageshadow="2"
     inkscape:window-width="1920"
     inkscape:window-height="1017"
     id="namedview18"
     showgrid="true"
     inkscape:zoom="7.0654576"
     inkscape:cx="72.791951"
     inkscape:cy="108.50094"
     inkscape:window-x="-8"
     inkscape:window-y="-8"
     inkscape:window-maximized="1"
     inkscape:current-layer="svg16"
     inkscape:snap-global="true">
    <inkscape:grid
       type="xygrid"
       id="grid827"
       spacingx="4"
       spacingy="4" />
  </sodipodi:namedview>
  <defs
     id="defs4">
    <style
       id="style2">.a{fill:none;stroke:#b1b5bd;stroke-linecap:round;stroke-linejoin:round;isolation:isolate;opacity:0.63;}</style>
  </defs>
  <rect
     class="a"
     x="20"
     y="20"
     width="152"
     height="144"
     rx="10"
     id="rect6"
     style="opacity:1;isolation:isolate;fill:#9abeff;stroke:none;stroke-linecap:round;stroke-linejoin:round" />
  <path
     style="opacity:1;vector-effect:none;fill:#98dc9a;fill-opacity:1;fill-rule:evenodd;stroke:none;stroke-width:16;stroke-linecap:round;stroke-linejoin:round;stroke-miterlimit:4;stroke-dasharray:none;stroke-opacity:1;paint-order:stroke fill markers"
     d="M 20 96 L 20 162 C 20 167.54 24.46 172 30 172 L 162 172 C 167.54 172 172 167.54 172 162 L 172 96 L 20 96 z "
     id="rect883" />
  <rect
     style="opacity:1;vector-effect:none;fill:#8e6f60;fill-opacity:1;fill-rule:evenodd;stroke:none;stroke-width:16;stroke-linecap:round;stroke-linejoin:round;stroke-miterlimit:4;stroke-dasharray:none;stroke-opacity:1;paint-order:stroke fill markers"
     id="rect908"
     width="44"
     height="40"
     x="88"
     y="96"
     ry="20" />
  <rect
     style="opacity:1;vector-effect:none;fill:#8e6f60;fill-opacity:1;fill-rule:evenodd;stroke:none;stroke-width:16;stroke-linecap:round;stroke-linejoin:round;stroke-miterlimit:4;stroke-dasharray:none;stroke-opacity:1;paint-order:stroke fill markers"
     id="rect910"
     width="40"
     height="36"
     x="88"
     y="80"
     ry="18" />
  <rect
     style="opacity:1;vector-effect:none;fill:#d3b69a;fill-opacity:1;fill-rule:evenodd;stroke:none;stroke-width:16;stroke-linecap:round;stroke-linejoin:round;stroke-miterlimit:4;stroke-dasharray:none;stroke-opacity:1;paint-order:stroke fill markers"
     id="rect844"
     width="56"
     height="56"
     x="64"
     y="72"
     ry="12" />
  <path
     style="fill:none;stroke:#8e6f60;stroke-width:5;stroke-linecap:round"
     inkscape:connector-curvature="0"
     d="m 93.840506,110.51963 c 0.239944,3.32547 -1.956562,7.43553 -7.330062,7.43553 -5.3736,0 -8.290138,-3.87011 -8.170166,-7.43553"
     id="path16"
     sodipodi:nodetypes="csc" />
  <rect
     style="opacity:1;vector-effect:none;fill:#56595b;fill-opacity:1;fill-rule:evenodd;stroke:none;stroke-width:16;stroke-linecap:round;stroke-linejoin:round;stroke-miterlimit:4;stroke-dasharray:none;stroke-opacity:1;paint-order:stroke fill markers"
     id="rect914-2"
     width="8.4580173"
     height="2.1220026"
     x="95.647583"
     y="96.701088"
     ry="1.0610013"
     rx="4.2290087" />
  <path
     style="clip-rule:evenodd;fill:#ffffff;fill-rule:evenodd"
     inkscape:connector-curvature="0"
     d="m 91.704715,104.02283 h 12.872805 c 0.033,-0.2652 0.05,-0.5354 0.05,-0.8096 0,-3.5767 -2.904,-6.4762 -6.487,-6.4762 -3.581904,0 -6.486005,2.8995 -6.486005,6.4762 0,0.2742 0.0171,0.5444 0.0502,0.8096 z"
     id="path8-8" />
  <rect
     style="opacity:1;vector-effect:none;fill:#56595b;fill-opacity:1;fill-rule:evenodd;stroke:none;stroke-width:16;stroke-linecap:round;stroke-linejoin:round;stroke-miterlimit:4;stroke-dasharray:none;stroke-opacity:1;paint-order:stroke fill markers"
     id="rect914"
     width="8.4580173"
     height="2.1220026"
     x="67.364204"
     y="96.539871"
     ry="1.0610013"
     rx="4.2290087" />
  <path
     style="clip-rule:evenodd;fill:#ffffff;fill-rule:evenodd"
     inkscape:connector-curvature="0"
     d="m 68.100346,103.78289 h 12.8726 c 0.0331,-0.2652 0.0502,-0.5354 0.0502,-0.8096 0,-3.5767 -2.9041,-6.4762 -6.4865,-6.4762 -3.5824,0 -6.4865,2.8995 -6.4865,6.4762 0,0.2742 0.017,0.5444 0.0502,0.8096 z"
     id="path10-1" />
  <path
     style="clip-rule:evenodd;fill:#56595b;fill-rule:evenodd"
     inkscape:connector-curvature="0"
     d="m 93.310115,104.10402 h 8.714405 c 0.023,-0.1918 0.034,-0.3871 0.034,-0.5854 0,-2.5861 -1.966,-4.6825 -4.391,-4.6825 -2.425404,0 -4.391405,2.0964 -4.391405,4.6825 0,0.1983 0.0115,0.3936 0.034,0.5854 z"
     id="path12-1" />
  <path
     style="clip-rule:evenodd;fill:#56595b;fill-rule:evenodd"
     inkscape:connector-curvature="0"
     d="m 69.705646,103.78309 h 8.7148 c 0.0224,-0.1918 0.0339,-0.3871 0.0339,-0.5853 0,-2.5861 -1.966,-4.6826 -4.3913,-4.6826 -2.4253,0 -4.3913,2.0965 -4.3913,4.6826 0,0.1982 0.0115,0.3935 0.0339,0.5853 z"
     id="path14-7" />
  <path
     style="fill:#8e6f60;stroke:none;stroke-width:1px;stroke-linecap:butt;stroke-linejoin:miter;stroke-opacity:1"
     d="m 108,112 c 0,0 0,4 4,4 4,0 4,-4 4,-4 V 96 c 0,-4 4,-4 4,-4 l 4,-4 -4,-4 -8,-8 -4,4 z"
     id="path906"
     inkscape:connector-curvature="0"
     sodipodi:nodetypes="cscscccccc" />
  <path
     style="fill:#f9de81;stroke:none;stroke-width:1px;stroke-linecap:butt;stroke-linejoin:miter;stroke-opacity:1"
     d="m 76,68 c 0,0 29.59823,9.200317 39.8391,16 2.48378,1.649165 5.24552,5.140942 8,4 3.89542,-1.613535 5.61354,-8.104582 4,-12 -1.14094,-2.754477 -2.49826,-1.891404 -3.44107,-4.719831 C 123.45522,68.451742 126.577,65.180167 123.8391,64 96,52 76,68 76,68 Z"
     id="path902"
     inkscape:connector-curvature="0"
     sodipodi:nodetypes="csssssc" />
  <path
     style="fill:none;stroke:#8e6f60;stroke-width:16;stroke-linecap:round;stroke-linejoin:round;stroke-miterlimit:4;stroke-dasharray:none;stroke-opacity:1"
     d="m 64,84 c 0,0 15.171221,-13.432714 24,-12 9.30635,1.510213 20,16 20,16"
     id="path896"
     inkscape:connector-curvature="0"
     sodipodi:nodetypes="csc" />
  <path
     style="fill:none;stroke:#8e6f60;stroke-width:16;stroke-linecap:round;stroke-linejoin:round;stroke-miterlimit:4;stroke-dasharray:none;stroke-opacity:1"
     d="m 88,72 4,12"
     id="path898"
     inkscape:connector-curvature="0"
     sodipodi:nodetypes="cc" />
  <rect
     style="opacity:1;vector-effect:none;fill:#d3b69a;fill-opacity:1;fill-rule:evenodd;stroke:none;stroke-width:16;stroke-linecap:round;stroke-linejoin:round;stroke-miterlimit:4;stroke-dasharray:none;stroke-opacity:1;paint-order:stroke fill markers"
     id="rect947"
     width="8"
     height="16"
     x="116"
     y="92"
     ry="4" />
</svg>
