<svg xmlns="http://www.w3.org/2000/svg" width="192" height="192"><rect width="153" height="153" x="19.5" y="-220.5" rx="10" style="fill:#f9de81;fill-opacity:1;fill-rule:evenodd;stroke:none"/><path d="M95.938-122.688c-4.75 0-8.75 4-8.75 8.876 0 4.75 4 8.75 8.75 8.75 5 0 8.874-4 8.874-8.75 0-4.876-3.874-8.876-8.874-8.876z" style="font-style:normal;font-variant:normal;font-weight:700;font-stretch:normal;font-size:100px;line-height:125%;font-family:&quot;Now Alt&quot;;-inkscape-font-specification:&quot;Now Alt Bold&quot;;letter-spacing:0;word-spacing:0;fill:#e85e5c;fill-opacity:1;stroke:none;stroke-width:1px;stroke-linecap:butt;stroke-linejoin:miter;stroke-opacity:1"/><path d="m88.063-182.938 1.874 50.875h12l2-50.875z" style="font-style:normal;font-variant:normal;font-weight:700;font-stretch:normal;font-size:100px;line-height:125%;font-family:&quot;Now Alt&quot;;-inkscape-font-specification:&quot;Now Alt Bold&quot;;letter-spacing:0;word-spacing:0;fill:#4a4a4a;fill-opacity:1;stroke:none;stroke-width:1px;stroke-linecap:butt;stroke-linejoin:miter;stroke-opacity:1"/><rect width="153" height="153" x="19.5" y="19.5" rx="10" style="fill:#f9de81;fill-opacity:1;fill-rule:evenodd;stroke:none"/><path d="M95.938 117.313c-4.75 0-8.75 4-8.75 8.875 0 4.75 4 8.75 8.75 8.75 5 0 8.875-4 8.875-8.75 0-4.875-3.875-8.875-8.875-8.875z" style="font-style:normal;font-variant:normal;font-weight:700;font-stretch:normal;font-size:100px;line-height:125%;font-family:&quot;Now Alt&quot;;-inkscape-font-specification:&quot;Now Alt Bold&quot;;letter-spacing:0;word-spacing:0;fill:#ff837d;fill-opacity:1;stroke:none;stroke-width:1px;stroke-linecap:butt;stroke-linejoin:miter;stroke-opacity:1"/><path d="m88.063 57.063 1.875 50.875h12l2-50.875z" style="font-style:normal;font-variant:normal;font-weight:700;font-stretch:normal;font-size:100px;line-height:125%;font-family:&quot;Now Alt&quot;;-inkscape-font-specification:&quot;Now Alt Bold&quot;;letter-spacing:0;word-spacing:0;fill:#56595b;fill-opacity:1;stroke:none;stroke-width:1px;stroke-linecap:butt;stroke-linejoin:miter;stroke-opacity:1"/></svg>