<svg xmlns="http://www.w3.org/2000/svg" id="svg16" version="1.1" viewBox="0 0 192 192"><defs id="defs4"><style id="style2">.a{fill:none;stroke:#b1b5bd;stroke-linecap:round;stroke-linejoin:round;isolation:isolate;opacity:.63}</style></defs><rect id="rect2" width="152" height="98" x="20" y="76" rx="10" style="fill:#a0a5af"/><path id="path832" d="M14.013 18.013v27.74H177.7v-27.74" style="fill:none;stroke:#83868c;stroke-width:12;stroke-linecap:round;stroke-linejoin:round;stroke-miterlimit:4;stroke-dasharray:none;stroke-opacity:1"/><path id="path836" d="m76 28 4-16h32l4 16z" style="fill:#ff837d;stroke:#ff837d;stroke-width:8;stroke-linecap:round;stroke-linejoin:round;stroke-miterlimit:4;stroke-dasharray:none;stroke-opacity:1"/><rect id="rect6-3" width="152" height="48" x="20" y="22" rx="10" style="fill:#a0a5af"/><path id="path8" d="M42 35c-5.523 0-10 4.477-10 10s4.477 10 10 10 10-4.477 10-10-4.477-10-10-10zm108 0c-5.523 0-10 4.477-10 10s4.477 10 10 10 10-4.477 10-10-4.477-10-10-10z" style="fill:#56595b;stroke:none"/><path id="path10" d="M96 89c-19.271 0-35 15.729-35 35s15.729 35 35 35 35-15.729 35-35-15.729-35-35-35zm0 10c13.867 0 25 11.133 25 25s-11.133 25-25 25c-13.866 0-25-11.133-25-25s11.134-25 25-25zm0 5c-9.26 0-17.094 6.41-19.336 15H87.32c1.713-3.001 4.93-5 8.68-5 5.581 0 10 4.418 10 10s-4.419 10-10 10c-3.75 0-6.967-1.999-8.68-5H76.664c2.242 8.59 10.077 15 19.336 15 10.986 0 20-9.014 20-20s-9.014-20-20-20z" style="color:#000;font-variant-ligatures:normal;font-variant-position:normal;font-variant-caps:normal;font-variant-numeric:normal;font-variant-alternates:normal;font-feature-settings:normal;text-indent:0;text-decoration:none;text-decoration-line:none;text-decoration-style:solid;text-decoration-color:#000;text-transform:none;text-orientation:mixed;dominant-baseline:auto;white-space:normal;shape-padding:0;isolation:auto;mix-blend-mode:normal;solid-color:#000;fill:#ccc;color-rendering:auto;image-rendering:auto;shape-rendering:auto"/></svg>