<?xml version="1.0" encoding="UTF-8"?>
<svg version="1.1" viewBox="0 0 192 192" xmlns="http://www.w3.org/2000/svg" xmlns:xlink="http://www.w3.org/1999/xlink">
 <defs>
  <linearGradient id="linearGradient27" x1="-526.34" x2="-248.61" y1="-34.384" y2="242.57" gradientTransform="matrix(.28979 0 0 .28979 201.85 59.218)" gradientUnits="userSpaceOnUse">
   <stop style="stop-color:#f8c18c" offset="0"/>
   <stop style="stop-color:#54688c" offset="1"/>
  </linearGradient>
 </defs>
 <circle class="a" cx="96" cy="96" r="88" style="fill:#fff"/>
 <path d="m92.995 142.57c-3.294-1.0808-5.3928-3.7658-7.5757-9.6915-1.1206-3.0421-1.7642-4.2399-2.8136-5.2367-1.5127-1.4369-2.8495-1.0061-7.9076 2.5484-2.8054 1.9714-4.9299 2.7804-7.3015 2.7804-4.4502 0-7.2461-3.2994-6.722-7.9325 0.19569-1.7296 0.56918-2.9087 2.3768-7.5033 1.2176-3.0948 1.2485-4.7902 0.09716-5.329-0.39847-0.18644-2.4897-0.46239-4.6471-0.61322-2.8255-0.19753-4.2844-0.43588-5.2162-0.85219-1.4371-0.64209-2.8209-1.9038-3.2112-2.9278-0.34037-0.89298-0.32551-3.3098 0.02606-4.2344 0.4176-1.0984 2.4519-3.1883 4.2928-4.4102 2.5205-1.673 4.4089-3.6224 4.4089-4.5512 0-1.1657-0.61824-1.9239-3.3044-4.0527-3.344-2.6501-5.2319-4.7854-5.8342-6.5987-1.1705-3.5241 0.7696-7.216 4.4858-8.5359 0.87476-0.3107 2.8963-0.53809 5.9907-0.6739 6.809-0.29882 7.0837-0.58216 5.7326-5.9133-1.1663-4.6018-1.1789-8.3532-0.03586-10.681 1.6479-3.3555 5.1606-4.7472 9.0243-3.5751 1.8242 0.55338 3.4069 1.4882 6.4472 3.8079 4.7405 3.617 5.3645 3.4361 8.3629-2.4243 0.91436-1.7871 2.1346-3.7279 2.7117-4.3127 2.0439-2.0715 4.9556-2.9067 7.3089-2.0966 2.8698 0.98794 4.4546 2.9701 6.5029 8.1331 2.8469 7.176 4.0175 7.6415 12.739 5.0651 3.0012-0.88659 7.0692-0.87076 8.9078 0.03469 1.6799 0.82732 3.4787 2.8099 3.9368 4.339 0.84307 2.8139 0.25913 5.7815-2.2219 11.291-1.3518 3.0023-1.6778 4.3984-1.2245 5.2454 0.44303 0.82781 0.84337 1.0069 4.9327 2.2066 4.1264 1.2106 5.3859 1.7964 7.0026 3.2569 2.4006 2.1688 3.0661 5.2365 1.7333 7.9898-1.127 2.3282-3.136 3.6218-10.006 6.4438-3.6346 1.4929-4.8556 3.2488-4.2227 6.073 0.16529 0.73758 1.0145 3.0835 1.887 5.2132 1.8885 4.6093 2.4606 6.6677 2.4606 8.8541 0 2.3792-0.73821 4.234-2.3112 5.807-1.818 1.818-3.6224 2.4124-6.7786 2.2329-2.5058-0.14243-3.8653-0.59985-9.6092-3.2331-1.598-0.73261-3.5064-1.4144-4.2407-1.515-1.2311-0.16874-1.4178-0.10688-2.3954 0.79359-0.87437 0.80544-1.2863 1.6268-2.3506 4.6867-2.1789 6.2648-3.3873 8.1781-6.0101 9.5162-1.3048 0.66564-4.2126 0.97371-5.4276 0.57505zm3.9518-6.0055c0.52421-0.57912 1.2324-1.9467 1.6778-3.2398 1.9225-5.5824 2.3146-6.5101 3.3802-7.9982 1.5606-2.1793 3.8974-3.3685 6.6145-3.3662 2.5036 2e-3 3.5145 0.30223 7.8973 2.3445 4.6999 2.19 6.697 2.7289 8.243 2.2242 1.5038-0.49097 2.2392-1.8609 1.9869-3.7009-0.0984-0.71722-1.002-3.3905-2.0081-5.9407-1.0061-2.5501-1.9895-5.4163-2.1854-6.3693-0.87799-4.2711 0.64731-7.9203 4.2847-10.251 0.75267-0.48226 2.962-1.5251 4.9096-2.3174 5.1472-2.0939 6.3899-3.1299 5.4589-4.5507-0.72731-1.11-1.6793-1.5853-5.4598-2.7261-4.0792-1.2308-5.5592-1.9303-6.8807-3.2517-2.5448-2.5448-2.4528-5.7204 0.34185-11.802 2.1058-4.5824 2.4148-6.4497 1.2844-7.7627-0.63505-0.73762-0.87038-0.81101-2.5357-0.79084-1.1904 0.01441-3.1993 0.40796-5.715 1.1195-3.5118 0.99332-4.1296 1.0855-6.5202 0.97265-5.3815-0.25402-7.6916-2.4902-10.613-10.274-1.0862-2.8937-1.9415-4.2072-2.9766-4.5712-1.2835-0.45138-2.165 0.49028-4.3277 4.6228-2.2587 4.3161-3.7159 5.9889-5.8281 6.6904-2.9324 0.97397-5.4225 0.18602-9.8406-3.1139-4.2054-3.141-5.9561-3.7743-7.1456-2.5848-1.0053 1.0053-1.0348 2.4154-0.14244 6.808 0.45536 2.2414 0.82389 4.8659 0.81894 5.8323-0.01709 3.3386-1.8649 5.6943-5.2351 6.674-0.84515 0.2457-3.5001 0.54723-5.8998 0.67007-3.7048 0.18965-4.4814 0.31158-5.147 0.80801-0.43111 0.32156-0.82098 0.77301-0.86639 1.0032-0.13651 0.69217 1.1288 2.287 3.1253 3.939 4.8634 4.0244 6.0775 5.7815 6.0827 8.8034 5e-3 3.0771-1.4842 5.1416-5.8833 8.1546-2.6469 1.8129-3.4891 2.8343-2.8577 3.4656 0.20061 0.20061 1.8787 0.4238 4.0964 0.54486 4.4936 0.24528 6.3085 0.77749 8.0148 2.3503 1.4411 1.3284 1.947 2.6193 1.9254 4.9129-0.01684 1.7915-0.43313 3.2526-2.1448 7.5286-1.1713 2.926-1.4942 5.5513-0.77174 6.2738 0.54007 0.54007 2.2783 0.38935 3.6465-0.31622 0.68271-0.35205 2.5084-1.501 4.057-2.5533 3.3753-2.2934 4.7618-2.8683 6.9175-2.8683 2.3386 0 3.7303 0.51267 5.3534 1.9719 1.8183 1.6348 2.5657 2.9293 4.2973 7.4426 1.5608 4.0682 2.5931 5.7792 3.7368 6.194 1.0893 0.39507 1.7943 0.14563 2.8337-1.0026z" style="fill:url(#linearGradient27);stroke-width:.28979"/>
 <g>
  <path d="m87.882 78.865a2.8979 2.8979 0 0 0-2.8979 2.8979v27.303a2.8979 2.8979 0 0 0 2.8979 2.8979 2.8979 2.8979 0 0 0 2.8979-2.8979v-27.303a2.8979 2.8979 0 0 0-2.8979-2.8979z" style="fill:url(#linearGradient27);stop-color:#000000;stroke-linecap:round;stroke-linejoin:round;stroke-width:.28979"/>
  <path d="m101.26 78.865a2.8979 2.8979 0 0 0-2.8979 2.8979v27.303a2.8979 2.8979 0 0 0 2.8979 2.8979 2.8979 2.8979 0 0 0 2.8979-2.8979v-27.303a2.8979 2.8979 0 0 0-2.8979-2.8979z" style="fill:url(#linearGradient27);stop-color:#000000;stroke-linecap:round;stroke-linejoin:round;stroke-width:.28979"/>
 </g>
</svg>
