<svg xmlns="http://www.w3.org/2000/svg" viewBox="0 0 192 192"><rect width="152" height="140" x="20" y="32" rx="10" style="opacity:1;isolation:isolate;fill:#9abeff;stroke:none;stroke-linecap:round;stroke-linejoin:round"/><path d="M30 20c-5.54 0-10 4.46-10 10v38h152V30c0-5.54-4.46-10-10-10H30z" style="opacity:1;vector-effect:none;fill:#96dfd3;fill-opacity:1;fill-rule:evenodd;stroke:none;stroke-width:12;stroke-linecap:round;stroke-linejoin:round;stroke-miterlimit:4;stroke-dasharray:none;paint-order:stroke fill markers"/><path d="M20 60h152v12H20z" style="opacity:1;vector-effect:none;fill:#fff;fill-opacity:1;fill-rule:evenodd;stroke:none;stroke-width:8;stroke-linecap:round;stroke-linejoin:round;stroke-miterlimit:4;stroke-dasharray:none;paint-order:stroke fill markers"/><path d="M44.465 20a6 6 0 0 0 .52.824l14.054 19.26-14.465 22.578a6 6 0 1 0 10.106 6.473l16.677-26.033a6 6 0 0 0-.205-6.774L59.236 20ZM83.7 20a6 6 0 0 0 .52.824l14.054 19.26L83.81 62.662a6 6 0 1 0 10.106 6.473l16.678-26.033a6 6 0 0 0-.206-6.774L98.471 20Zm37.24 0a6 6 0 0 0 .519.824l14.055 19.26-14.465 22.578a6 6 0 1 0 10.105 6.473l16.678-26.033a6 6 0 0 0-.205-6.774L135.71 20Z" style="color:#000;font-style:normal;font-variant:normal;font-weight:400;font-stretch:normal;font-size:medium;line-height:normal;font-family:sans-serif;font-variant-ligatures:normal;font-variant-position:normal;font-variant-caps:normal;font-variant-numeric:normal;font-variant-alternates:normal;font-feature-settings:normal;text-indent:0;text-align:start;text-decoration:none;text-decoration-line:none;text-decoration-style:solid;text-decoration-color:#000;letter-spacing:normal;word-spacing:normal;text-transform:none;writing-mode:lr-tb;direction:ltr;text-orientation:mixed;dominant-baseline:auto;baseline-shift:baseline;text-anchor:start;white-space:normal;shape-padding:0;clip-rule:nonzero;display:inline;overflow:visible;visibility:visible;opacity:1;isolation:auto;mix-blend-mode:normal;color-interpolation:sRGB;color-interpolation-filters:linearRGB;solid-color:#000;solid-opacity:1;vector-effect:none;fill:#fff;fill-opacity:1;fill-rule:nonzero;stroke:none;stroke-width:12;stroke-linecap:round;stroke-linejoin:round;stroke-miterlimit:4;stroke-dasharray:none;stroke-dashoffset:0;stroke-opacity:1;color-rendering:auto;image-rendering:auto;shape-rendering:auto;text-rendering:auto;enable-background:accumulate"/><path d="M86.003 98.23v43.865l28.333-22.148z" style="fill:#fff;stroke:#fff;stroke-width:12;stroke-linecap:round;stroke-linejoin:round;stroke-miterlimit:4;stroke-dasharray:none;stroke-opacity:1"/></svg>