<?xml version="1.0" encoding="UTF-8"?>
<svg version="1.1" viewBox="0 0 192 192" xml:space="preserve" xmlns="http://www.w3.org/2000/svg">
	 <circle class="a" cx="96" cy="96" r="88" fill="#fff"/><g transform="matrix(.18146 0 0 .18146 72.77 71.722)" fill="#fff"><path d="m100.25 26.384c-1.2438-0.26075-2.5485-0.22945-3.8101 0.10763-9.4492 2.5187-18.523 6.2785-26.983 11.183-2.2444 1.3032-3.7383 3.5891-4.0362 6.1673l-2.7123 24.421c-1.069 1.0211-2.1022 2.0542-3.089 3.089l-24.443 2.7984c-2.5801 0.30018-4.8664 1.8094-6.1673 4.0577-4.8996 8.4615-8.6554 17.535-11.172 26.983-0.67131 2.525-0.10605 5.216 1.5284 7.2543l15.262 19.105v4.4452l-15.305 19.158c-1.6308 2.0402-2.2025 4.731-1.5284 7.2543 2.5142 9.4507 6.2742 18.525 11.183 26.983 1.3032 2.2444 3.5891 3.749 6.1673 4.0469l24.389 2.7123c1.0211 1.069 2.0435 2.0914 3.0782 3.0782l2.8522 24.443c0.30018 2.5801 1.7986 4.8664 4.0469 6.1673 8.4615 4.8996 17.535 8.6662 26.983 11.183 2.525 0.67132 5.2159 0.0953 7.2543-1.5391l19.115-15.251c1.4802 0.0411 2.9542 0.0411 4.4344 0l19.158 15.337c2.0402 1.6308 4.7417 2.1918 7.2651 1.5176 9.4507-2.5142 18.525-6.2742 26.983-11.183 2.2444-1.3032 3.7382-3.5891 4.0362-6.1673l2.7123-24.378c1.069-1.0142 2.1022-2.0474 3.089-3.089l24.443-2.8738c2.5801-0.30017 4.8664-1.7986 6.1673-4.0469 4.8996-8.4615 8.6554-17.535 11.172-26.983 0.67132-2.525 0.10605-5.2267-1.5284-7.2651l-15.262-19.105c0.0411-1.4802 0.0411-2.965 0-4.4452l15.337-19.158c1.6308-2.0402 2.2025-4.731 1.5284-7.2543-2.5142-9.4507-6.2742-18.525-11.183-26.983-1.3032-2.2444-3.5891-3.749-6.1673-4.0469l-24.389-2.7123c-1.0142-1.069-2.0366-2.0914-3.0782-3.0782l-2.8845-24.443c-0.30017-2.5801-1.7986-4.8664-4.0469-6.1673-8.4615-4.8996-17.535-8.6554-26.983-11.172-2.525-0.67132-5.216-0.10605-7.2543 1.5284l-19.115 15.251h-4.4344l-19.169-15.305c-1.0201-0.81541-2.2004-1.3645-3.4442-1.6252z" fill="#56595b" stroke-width="1.0279"/></g><path d="m99.24 63.07 1e-6 10.295v-10.297l-1e-6 2e-3" fill="none" stroke="#56595b" stroke-linecap="round" stroke-linejoin="round" stroke-width="3"/><path d="m110.09 73.808a10.739 10.739 0 0 0 6.4389-2.2299 10.739 10.739 0 0 0 1.9883-15.021l-0.1211-0.15625a10.739 10.739 0 0 0-7.918-4.0586 10.739 10.739 0 0 0-7.1309 2.2773 10.739 10.739 0 0 0-4.1106 8.4397" fill="none" stroke="#56595b" stroke-linecap="round" stroke-linejoin="round" stroke-width="3"/><path d="m130.61 82.6a10.739 10.739 0 0 0 1.7303-14.816l-0.1211-0.15625a10.739 10.739 0 0 0-7.918-4.0586 10.739 10.739 0 0 0-3.4193 0.39173" fill="none" stroke="#56595b" stroke-linecap="round" stroke-linejoin="round" stroke-width="3"/><path d="m130.58 104.83a10.739 10.739 0 0 0 6.4389-2.2299 10.739 10.739 0 0 0 1.9883-15.021l-0.1211-0.15625a10.739 10.739 0 0 0-7.918-4.0586 10.739 10.739 0 0 0-7.1309 2.2773 10.739 10.739 0 0 0-4.1106 8.4397" fill="none" stroke="#56595b" stroke-linecap="round" stroke-linejoin="round" stroke-width="3"/><path d="m113.87 116.2c0.0156 0.25649 0.0404 0.51235 0.0744 0.76706 0.78105 5.86 6.1513 9.9867 12.015 9.2326l0.19586-0.0267c3.0721-0.45303 5.7977-2.2137 7.4738-4.8279 1.3911-2.1681 1.9565-4.764 1.5932-7.3142-0.46508-3.2619-1.7862-7.5533-4.6382-9.2033" fill="none" stroke="#56595b" stroke-linecap="round" stroke-linejoin="round" stroke-width="3"/><path d="m99.24 128.93 1e-6 -10.295v10.297l-1e-6 -2e-3" fill="none" stroke="#56595b" stroke-linecap="round" stroke-linejoin="round" stroke-width="3"/><path d="m120.35 126.14a10.739 10.739 0 0 1-1.8299 9.3057l-0.1211 0.15625a10.739 10.739 0 0 1-7.918 4.0586 10.739 10.739 0 0 1-7.1309-2.2773 10.739 10.739 0 0 1-4.1106-8.4397" fill="none" stroke="#56595b" stroke-linecap="round" stroke-linejoin="round" stroke-width="3"/><path d="m92.76 63.07-1e-6 10.295v-10.297l1e-6 2e-3" fill="none" stroke="#56595b" stroke-linecap="round" stroke-linejoin="round" stroke-width="3"/><path d="m81.908 73.808a10.739 10.739 0 0 1-6.4389-2.2299 10.739 10.739 0 0 1-1.9883-15.021l0.12109-0.15625a10.739 10.739 0 0 1 7.918-4.0586 10.739 10.739 0 0 1 7.1309 2.2773 10.739 10.739 0 0 1 4.1106 8.4397" fill="none" stroke="#56595b" stroke-linecap="round" stroke-linejoin="round" stroke-width="3"/><path d="m61.39 82.6a10.739 10.739 0 0 1-1.7303-14.816l0.12109-0.15625a10.739 10.739 0 0 1 7.918-4.0586 10.739 10.739 0 0 1 3.4193 0.39173" fill="none" stroke="#56595b" stroke-linecap="round" stroke-linejoin="round" stroke-width="3"/><path d="m61.421 104.83a10.739 10.739 0 0 1-6.4389-2.2299 10.739 10.739 0 0 1-1.9883-15.021l0.12109-0.15625a10.739 10.739 0 0 1 7.918-4.0586 10.739 10.739 0 0 1 7.1309 2.2773 10.739 10.739 0 0 1 4.1106 8.4397" fill="none" stroke="#56595b" stroke-linecap="round" stroke-linejoin="round" stroke-width="3"/><path d="m78.135 116.2c-0.01563 0.25649-0.04046 0.51235-0.07444 0.76706-0.78105 5.86-6.1513 9.9867-12.015 9.2326l-0.19586-0.0267c-3.0721-0.45303-5.7977-2.2137-7.4738-4.8279-1.3911-2.1681-1.9072-4.8388-1.5932-7.3142 0.4323-3.408 1.7863-7.5533 4.6382-9.2033" fill="none" stroke="#56595b" stroke-linecap="round" stroke-linejoin="round" stroke-width="3"/><path d="m92.76 128.93-1e-6 -10.295v10.297l1e-6 -2e-3" fill="none" stroke="#56595b" stroke-linecap="round" stroke-linejoin="round" stroke-width="3"/><path d="m71.65 126.14a10.739 10.739 0 0 0 1.8299 9.3057l0.12109 0.15625a10.739 10.739 0 0 0 7.918 4.0586 10.739 10.739 0 0 0 7.1309-2.2773 10.739 10.739 0 0 0 4.1106-8.4397" fill="none" stroke="#56595b" stroke-linecap="round" stroke-linejoin="round" stroke-width="3"/><path d="m103.73 89.702a10.386 10.386 0 0 1-1.9226 14.527 10.386 10.386 0 0 1-14.536-1.8557 10.386 10.386 0 0 1 1.7887-14.544 10.386 10.386 0 0 1 14.552 1.7217" fill="#fff"/><text x="94.839844" y="102.99993" fill="#56595b" font-family="Now" font-size="18.667px" font-weight="bold" stroke-linecap="round" stroke-linejoin="round" stroke-width="3" text-align="center" text-anchor="middle" xml:space="preserve"><tspan x="94.839844" y="102.99993">F</tspan></text></svg>
