<?xml version="1.0" encoding="UTF-8"?>
<svg version="1.1" viewBox="0 0 192 192" xmlns="http://www.w3.org/2000/svg">
 <defs>
  <clipPath id="clip0_35_22">
   <rect width="262" height="60" fill="#fff"/>
  </clipPath>
 </defs>
 <rect class="a" x="8" y="32" width="176" height="128" rx="10" style="fill:#9abeff"/>
 <g transform="matrix(2.0633 0 0 2.0633 9.7604 34.101)" style="fill:none">
  <g clip-path="url(#clip0_35_22)">
   <path d="m19.923 42.893 20.653-20.587 2.3025-2.2798c0.34886-0.36142 0.76749-0.62555 1.214-0.82015 0.46051-0.18068 0.94891-0.27804 1.4513-0.27804 0.47443 0 0.94891 0.08344 1.3815 0.25027 0.43261 0.16676 0.83733 0.41703 1.1862 0.73676l0.11159 0.11116c0.34886 0.34757 0.62801 0.7646 0.80937 1.2233 0.1954 0.4448 0.29307 0.93136 0.29307 1.4318 0 0.50041-0.09767 1.0008-0.29307 1.4457-0.18136 0.45872-0.46051 0.87575-0.80937 1.2233l-10.926 10.885 1.842 1.835 11.024-10.982v-0.01392c0.57216-0.59771 1.0187-1.2789 1.3118-2.0156 0.29301-0.75068 0.44653-1.543 0.44653-2.3771 0-0.84798-0.16744-1.6682-0.47443-2.4327-0.32096-0.76454-0.78147-1.4596-1.3815-2.0573l-0.11165-0.11122c-0.60005-0.55606-1.2838-1.0009-2.0374-1.2928-0.7396-0.30583-1.549-0.45874-2.3723-0.45874-0.82335 0-1.6327 0.16681-2.3862 0.45874-0.75358 0.30582-1.4513 0.75066-2.0374 1.3206l-0.01398 0.01392-9.9217 9.8698-0.16744 0.18068-0.18142-0.18068-10.912-10.871c-0.01395 0.11121-0.02791 0.22242-0.02791 0.33362v3.3084l9.0984 9.0635 0.18142 0.18068-0.18142 0.16682-9.0984 9.0635-0.25118 0.25027v3.0721c0 0.18068 0.02791 0.36142 0.06977 0.5421zm43.776-22.131 0.25113-0.25021v-3.0582c0-0.19462-0.0279-0.37533-0.06977-0.54214l-23.011 22.923-0.15352 0.15291c-0.34886 0.34751-0.76749 0.62555-1.214 0.80623-0.46051 0.19466-0.94891 0.29196-1.4513 0.29196-0.50232 0-1.0047-0.0973-1.4512-0.29196-0.46051-0.18068-0.87914-0.45872-1.228-0.80623-0.34886-0.36142-0.62801-0.77846-0.80937-1.2233-0.1954-0.45872-0.29307-0.94528-0.29307-1.4457 0-0.50041 0.09767-0.98697 0.29307-1.4457 0.18136-0.44487 0.46051-0.8619 0.80937-1.2094l10.926-10.898-1.842-1.835-10.926 10.898c-0.60005 0.59777-1.0606 1.2928-1.3815 2.0574-0.3209 0.76454-0.47443 1.5847-0.47443 2.4327s0.15352 1.682 0.47443 2.4466c0.32096 0.75068 0.78147 1.4596 1.3815 2.0574 0.60005 0.59771 1.2978 1.0564 2.0653 1.3762 0.76749 0.30582 1.6048 0.47264 2.456 0.47264 0.82335 0 1.6187-0.15291 2.3723-0.4448 0.7396-0.30582 1.4233-0.73676 2.0234-1.3067h0.01398l10.089-10.051 0.16744-0.16676 0.18142 0.16676 10.801 10.759 0.22323 0.22243c0.01398-0.0973 0.0279-0.1946 0.0279-0.2919v-3.3502l-0.25113-0.25021-8.9589-8.9245-0.18142-0.16682 0.18142-0.18074z" clip-rule="evenodd" fill="#fff" fill-rule="evenodd" style="fill:#fff;stroke-width:.61582"/>
  </g>
 </g>
</svg>
