<svg xmlns="http://www.w3.org/2000/svg" id="svg2" width="192" height="192" version="1.1"><g id="layer1" transform="translate(0 -860.362)"><g id="g962" style="stroke-width:.934105" transform="matrix(1.07054 0 0 1.07054 -6.772 -67.465)"><path id="path1179" d="M157.681 1020.784V911.94c0-5.54-4.46-10-10-10H44.32c-5.54 0-10 4.46-10 10v108.843c0 5.54 4.46 10 10 10H147.68c5.54 0 10-4.46 10-10z" style="fill:#b1b5bd;fill-opacity:1;stroke-width:.934105"/><path id="path1181" fill="#9abeff" fill-rule="evenodd" d="M147.726 1030.784c5.523 0 9.955-4.478 9.955-10V891.94c0-5.523-4.477-10-10-10H54.066c-5.523 0-10 4.477-10 10v134.443c0 4.4-2.36 4.058-2.36 4.058.715.217 1.762.342 2.36.342z" clip-rule="evenodd" style="fill:#d7d7d7;fill-opacity:1;stroke-width:.872552"/><rect id="rect1183" width="65.04" height="4.051" x="55.039" y="1009.673" rx="2.563" ry="2.502" style="fill:#83868c;fill-opacity:1;stroke:#84878d;stroke-width:.698789;stroke-linecap:round;stroke-linejoin:round;stroke-opacity:1;paint-order:markers fill stroke"/><rect id="rect1185" width="77.409" height="4.051" x="55.039" y="945.381" rx="2.104" ry="2.502" style="fill:#83868c;fill-opacity:1;stroke:#84878d;stroke-width:.762353;stroke-linecap:round;stroke-linejoin:round;stroke-opacity:1;paint-order:markers fill stroke"/><rect id="rect1187" width="36.718" height="4.051" x="55.039" y="966.812" rx="2.104" ry="2.502" style="fill:#83868c;fill-opacity:1;stroke:#84878d;stroke-width:.525042;stroke-linecap:round;stroke-linejoin:round;stroke-opacity:1;paint-order:markers fill stroke"/><rect id="rect1189" width="40.161" height="4.051" x="55.039" y="988.242" rx="2.104" ry="2.502" style="fill:#83868c;fill-opacity:1;stroke:#84878d;stroke-width:.549112;stroke-linecap:round;stroke-linejoin:round;stroke-opacity:1;paint-order:markers fill stroke"/><rect id="rect1193" width="60.309" height="30.657" x="69.539" y="898.627" rx="3.787" ry="3.787" style="fill:#b1b5bd;fill-opacity:1;stroke:none;stroke-width:.640796;stroke-linecap:round;stroke-linejoin:round;stroke-miterlimit:4;stroke-dasharray:none;stroke-opacity:1;paint-order:markers fill stroke"/><rect id="rect1191" width="33.657" height="33.657" x="108.409" y="962.731" rx="3.787" ry="3.787" style="fill:#b1b5bd;fill-opacity:1;stroke:none;stroke-width:.640796;stroke-linecap:round;stroke-linejoin:round;stroke-miterlimit:4;stroke-dasharray:none;stroke-opacity:1;paint-order:markers fill stroke"/><path id="path1195" d="M115.412 988.82 122 980.25l4.391 7.045 8.672-16.997" style="fill:none;stroke:#83868c;stroke-width:2.33526;stroke-linecap:round;stroke-linejoin:round;stroke-miterlimit:4;stroke-dasharray:none;stroke-opacity:1"/></g></g><style id="style853" type="text/css">.st0{fill:#fff}</style></svg>