<?xml version="1.0" encoding="UTF-8"?><svg id="a" xmlns="http://www.w3.org/2000/svg" xmlns:xlink="http://www.w3.org/1999/xlink" viewBox="0 0 192 192"><defs><style>.f,.g{fill:#fff;}.g{fill-rule:evenodd;}.h{clip-path:url(#d);}.i{fill:none;}.j{fill:#9abeff;}.k{fill:#ececec;}</style><clipPath id="d"><path d="M183.99887,96.38821c-.19319,48.60834-39.83159,87.80518-88.38598,87.61078-48.55465-.19318-87.80537-39.77881-87.61178-88.38599C8.19518,47.00461,47.83357,7.80655,96.38809,8.00101c48.6516,.1944,87.8052,39.77881,87.61079,88.38721" style="fill:none;"/></clipPath></defs><g id="b"><g id="c"><g style="clip-path:url(#d);"><path d="M183.99887,96.38821c-.19319,48.60834-39.83159,87.80518-88.38598,87.61078-48.55465-.19318-87.80537-39.77881-87.61178-88.38599C8.19518,47.00461,47.83357,7.80655,96.38809,8.00101c48.6516,.1944,87.8052,39.77881,87.61079,88.38721" style="fill:#fff;"/><g><path d="M6.33333,96C6.33333,46.47844,46.47844,6.33333,96,6.33333s89.66667,40.14511,89.66667,89.66667-40.14511,89.66667-89.66667,89.66667S6.33333,145.52156,6.33333,96Z" style="fill:#ececec;"/><path d="M164.96413,153.30895c3.7899-4.55567,7.13746-9.49286,9.97541-14.74553H110.01864c-1.08721,0-1.86985-1.04387-1.56499-2.08745l13.13497-44.95662c.2566-.87814,1.18555-1.37339,2.0577-1.09678l60.96676,19.36143c.69343-4.4935,1.05359-9.09728,1.05359-13.78506,0-.60883-.00597-1.21633-.01793-1.82232l-57.89761-17.91734c-.85707-.26467-1.33932-1.17179-1.07929-2.03035l16.42872-54.54425c-2.2726-1.40558-4.61259-2.71249-7.01417-3.91476l-16.66949,56.15711c-.25868,.86723-1.17433,1.3577-2.03977,1.09259L48.14879,51.81152c-.68505-.20997-1.15282-.84242-1.15282-1.55886V20.89524c-5.26358,3.44136-10.14339,7.42122-14.56097,11.86121l.16827,11.88367c.01584,1.11142-1.06105,1.91244-2.12107,1.57769l-7.40901-2.40157c-2.94314,4.10584-5.54817,8.47051-7.77432,13.05323l16.3357,5.17884c.68296,.21117,1.14878,.84272,1.14878,1.55766v61.76972c0,.90205-.73258,1.63268-1.63462,1.63028l-19.32653-.04588c.97962,2.66265,2.08199,5.26583,3.3002,7.80295h15.88257c.9004,0,1.63029,.72988,1.63029,1.63028v2.17009c0,8.20898,6.36618,14.74553,14.36071,14.74553h46.24095c1.08601,0,1.86835,1.04192,1.56558,2.0849l-8.63251,29.73929c2.5703,.27947,5.17332,.45133,7.80414,.50961l9.08592-31.15977c.2028-.69566,.84048-1.17403,1.56514-1.17403h60.33895Zm-66.33884-14.74553c.72511,0,1.36309-.47883,1.56558-1.17508l14.01506-48.20913c.24867-.85497-.23478-1.75134-1.08586-2.01317l-64.01408-19.7047c-1.0485-.32265-2.11001,.46134-2.11001,1.55826v66.80764c0,1.52014,1.18435,2.73618,2.66489,2.73618h48.96443Z" style="fill:#fff; fill-rule:evenodd;"/><g><path d="M126.95982,89.96695c0-16.83925-13.86788-30.46695-31.00396-30.46695s-30.91568,13.6277-30.91568,30.46695c0,16.29481,9.84258,30.63894,29.04745,42.00999,1.20253,.71203,2.70188,.69599,3.88908-.04132,17.94284-11.14243,28.98311-25.70541,28.98311-41.96867Z" style="fill:#9abeff;"/><path d="M116.42468,91.8618c.42641-.08146,.86304,.09688,1.10287,.45635,1.35587,2.03233,2.65124,3.93945,4.02002,5.91872,.17665,.26053,.08828,.69483,0,1.0422-3.62157,10.85672-15.63448,18.49983-27.20584,17.19702-12.27792-1.38965-21.37593-9.64075-23.58418-21.45283-.1632-.88232-.25094-1.83875-.33303-2.73244l-.02034-.22056c-.17664-.95545,.08837-1.82396,.70666-2.60563,.70657-.90849,1.34628-1.84986,1.98079-2.78371,.23732-.34934,.474-.6977,.7132-1.04273,.27442-.39595,.80632-.51621,1.23408-.29136,13.08164,6.87631,26.90346,9.28281,41.38578,6.51496Zm-33.98295,8.14705c0,.07734,.06417,.13846,.14205,.13846h7.14625c.07779,0,.14205-.06112,.14205-.13846,0-2.03385-1.66336-3.6826-3.71522-3.6826s-3.71513,1.64875-3.71513,3.6826Zm19.8143,0c0,.07725,.06426,.13846,.14214,.13846h7.14616c.07788,0,.14205-.06121,.14205-.13846,0-2.03385-1.66327-3.6826-3.71513-3.6826s-3.71522,1.64875-3.71522,3.6826Zm-12.34855,6.6632c-.03907-.28875,.20254-.52616,.49596-.52616h11.32123c.29351,0,.53503,.23741,.49534,.52607-.33312,2.4211-2.93507,4.38406-6.15595,4.38406-3.13197,0-5.82022-1.89996-6.15657-4.38397Z" style="fill:#fff; fill-rule:evenodd;"/></g></g></g></g></g><g id="e"/></svg>