<?xml version="1.0" encoding="UTF-8"?>
<svg version="1.1" viewBox="0 0 192 192" xmlns="http://www.w3.org/2000/svg">
 <defs>
  <linearGradient id="_Linear1" x2="1" gradientTransform="matrix(-46.733 164.28 -164.28 -46.733 505.94 436.01)" gradientUnits="userSpaceOnUse">
   <stop style="stop-color:#ff837d" offset="0"/>
   <stop style="stop-color:#f9de81" offset="1"/>
  </linearGradient>
 </defs>
 <g transform="translate(-402.51 -424.51)" style="clip-rule:evenodd;fill-rule:evenodd;stroke-linejoin:round;stroke-miterlimit:2">
  <path d="m446.62 495.53c-1.2741-4.1225-0.16351-8.4606-1.9338-20.185-2.9144-19.302-15.749-24.622-10.176-29.932 4.827-4.5987 29.314-3.7326 42.891 0.75524 23.261 7.6894 66.484 28.93 88.969 48.182 9.1622 7.8445 16.841 21.674 16.443 31.21-0.75838 18.175-22.041 30.384-27.432 31.906 7.6859-27.317-9.1439-46.118-31.108-46.118h-53.838c-13.103 0-20.912-6.4232-23.815-15.818zm95.912 70.552-45.594 27.716c-10.382 6.2941-23.351 6.502-33.93 0.54417-10.579-5.9578-16.727-20.449-16.849-32.815-0.22444-22.715-16.266-45.861-16.266-45.861 12.569 1.2992 14.701 10.245 40.542 9.8172h53.838c9.0836 0.72853 13.619 3.2812 18.197 11.068 5.3242 9.0551 1.457 23.806 0.0617 29.53z" style="fill:url(#_Linear1);stroke-width:.19652"/>
 </g>
</svg>
