<?xml version="1.0" encoding="UTF-8" standalone="no"?>
<svg
   xmlns:dc="http://purl.org/dc/elements/1.1/"
   xmlns:cc="http://creativecommons.org/ns#"
   xmlns:rdf="http://www.w3.org/1999/02/22-rdf-syntax-ns#"
   xmlns:svg="http://www.w3.org/2000/svg"
   xmlns="http://www.w3.org/2000/svg"
   xmlns:sodipodi="http://sodipodi.sourceforge.net/DTD/sodipodi-0.dtd"
   xmlns:inkscape="http://www.inkscape.org/namespaces/inkscape"
   viewBox="0 0 192 192"
   version="1.1"
   id="svg16"
   sodipodi:docname="flare_rpg.svg"
   inkscape:version="0.92.4 (5da689c313, 2019-01-14)">
  <metadata
     id="metadata20">
    <rdf:RDF>
      <cc:Work
         rdf:about="">
        <dc:format>image/svg+xml</dc:format>
        <dc:type
           rdf:resource="http://purl.org/dc/dcmitype/StillImage" />
        <dc:title></dc:title>
      </cc:Work>
    </rdf:RDF>
  </metadata>
  <sodipodi:namedview
     pagecolor="#ffffff"
     bordercolor="#666666"
     borderopacity="1"
     objecttolerance="10"
     gridtolerance="10"
     guidetolerance="10"
     inkscape:pageopacity="0"
     inkscape:pageshadow="2"
     inkscape:window-width="1920"
     inkscape:window-height="1017"
     id="namedview18"
     showgrid="true"
     inkscape:zoom="2.9469688"
     inkscape:cx="-7.0482916"
     inkscape:cy="91.844102"
     inkscape:window-x="-8"
     inkscape:window-y="-8"
     inkscape:window-maximized="1"
     inkscape:current-layer="svg16"
     inkscape:snap-global="false">
    <inkscape:grid
       type="xygrid"
       id="grid827"
       spacingx="4"
       spacingy="4" />
  </sodipodi:namedview>
  <defs
     id="defs4">
    <style
       id="style2">.a{fill:none;stroke:#b1b5bd;stroke-linecap:round;stroke-linejoin:round;isolation:isolate;opacity:0.63;}</style>
  </defs>
  <path
     style="fill:#f8c18c;stroke:none;stroke-width:2.12263703px;stroke-linecap:butt;stroke-linejoin:miter;stroke-opacity:1"
     d="m 38.199974,89.952677 c 0,0 12.965046,8.426003 16.026186,26.650293 6.09165,-5.33021 5.857884,-16.31074 4.29418,-24.429554 -3.225984,-16.749508 -3.055876,-37.943857 -3.055876,-37.943857 0,0 11.666716,22.609683 21.391166,19.353914 25.29107,-8.467509 14.006121,-65.4467865 14.006121,-65.4467865 0,0 30.721999,19.2220745 35.651949,70.0306085 17.43334,-3.365923 18.8446,-17.825974 18.8446,-17.825974 0,0 6.60033,17.002145 6.87573,37.434545 l -23.68308,10.950244 27.65491,15.96657 -25.85476,14.92725 18.22456,10.52196 c 0,0 -1.99113,9.04647 -10.60241,14.35406 -3.7479,2.31002 -12.47818,4.32916 -12.47818,4.32916 l -26.699939,-15.41523 27.015479,-15.59739 -26.952719,-15.56116 -29.357149,16.94936 26.331814,15.20267 -25.333029,14.62603 18.969838,10.95225 c 0,0 -6.123944,4.72406 -12.613735,3.61354 -20.330993,-3.47896 -38.549439,-12.43636 -44.055623,-40.23575 -2.472384,-12.48243 6.698342,-25.16815 7.385057,-36.16126 0.446094,-7.14122 -1.98509,-17.245493 -1.98509,-17.245493 z"
     id="path829"
     inkscape:connector-curvature="0"
     sodipodi:nodetypes="ccscsccccccccsccccccccsssc" />
</svg>
