<?xml version="1.0" encoding="UTF-8"?><svg id="a" xmlns="http://www.w3.org/2000/svg" viewBox="0 0 192 192"><g id="b"><g id="c"><rect x="20" y="20" width="152" height="152" rx="10" ry="10" style="fill:#ff837d;"/><path d="M63.9,80.58v-13.76c0-.79.04-1.59.19-2.37.97-5.04,4.81-8.03,9.4-8.42,2.45-.21,4.9.45,7.03,1.68l28.85,16.66c2.85,1.64,5.01,4.34,5.74,7.54.93,4.05-.37,8.16-4.28,10.88-.71.49-1.64.5-2.39.07l-28.54-16.44c-5.62-2.89-12.71-1.35-16.01,4.16Z" style="fill:#fff;"/><path d="M92.02,127.48l-11.91,6.88c-.69.4-1.4.76-2.15,1.02-4.85,1.68-9.35-.15-11.99-3.93-1.41-2.02-2.06-4.46-2.06-6.92v-33.32c0-3.29,1.25-6.51,3.66-8.74,3.04-2.83,7.25-3.76,11.56-1.73.78.37,1.25,1.17,1.26,2.03l.03,32.94c.3,6.31,5.18,11.69,11.61,11.78Z" style="fill:#fff;"/><path d="M118.57,79.68l11.91,6.88c.69.4,1.36.83,1.96,1.35,3.88,3.36,4.55,8.18,2.59,12.35-1.04,2.23-2.83,4.02-4.96,5.25l-28.85,16.66c-2.85,1.64-6.26,2.17-9.4,1.2-3.97-1.22-6.88-4.4-7.28-9.15-.07-.86.39-1.67,1.13-2.1l28.51-16.49c5.31-3.42,7.53-10.33,4.4-15.94Z" style="fill:#fff;"/></g></g></svg>