<?xml version="1.0" encoding="UTF-8"?>
<svg version="1.1" viewBox="0 0 192 192" xml:space="preserve" xmlns="http://www.w3.org/2000/svg">
	 <rect class="a" x="20" y="20" width="152" height="152" rx="10" fill="#fff"/><rect x="55.264" y="59.028" width="81.473" height="81.473" rx="11.638" ry="10.459" fill="#f8c18c" stroke="#f8c18c" stroke-linecap="round" stroke-linejoin="round" stroke-width="2.3044"/><rect x="63.132" y="67.256" width="65.015" height="65.015" rx="0" ry="0" fill="#fff"/><path d="m59.989 78.944h70.067v8.962h-70.23z" fill="#f8c18c"/><path d="m77.913 93.202h-8.962v3.5033h0.8962c-1.9578 10.571-3.7629 21.153-2.5257 31.937h12.465c0.39736-10.646-0.50638-21.292-2.933-31.937h1.0592z" fill="#f8c18c" stroke-linecap="round" stroke-linejoin="round" stroke-width="4.6088"/><path d="m104.31 117.68h-3.707l4.0606-7.0331-2.8372-1.638-4.9595 8.6712h-13.088v5.9475c0 2.5444 2.8531 5.3976 5.3976 5.3976h9.0231c2.8565 0 6.0595-3.203 6.0595-6.0596 0-1.7647 0.0509-5.2856 0.0509-5.2856z" fill="#f8c18c" stroke-linecap="round" stroke-linejoin="round" stroke-width="4.6088"/><circle cx="99.615" cy="95.789" r="3.9751" fill="#f8c18c" stroke-linecap="round" stroke-linejoin="round" stroke-width="4.6088"/><circle cx="110.22" cy="95.789" r="3.9751" fill="#f8c18c" stroke-linecap="round" stroke-linejoin="round" stroke-width="4.6088"/><path d="m116.9 92.908 6.1355 6.1355" fill="#9abeff" stroke="#f8c18c" stroke-linecap="round" stroke-linejoin="round" stroke-width="2.3044"/><path d="m123.03 92.908-6.1355 6.1355" fill="#9abeff" stroke="#f8c18c" stroke-linecap="round" stroke-linejoin="round" stroke-width="2.3044"/><rect x="67.077" y="50.347" width="8.5139" height="10.51" fill="#f8c18c"/><rect x="116.37" y="50.347" width="8.5139" height="10.51" fill="#f8c18c"/></svg>
