<svg viewBox="0 0 192 192" xml:space="preserve" xmlns="http://www.w3.org/2000/svg"><rect x="20" y="20" width="152" height="152" rx="10" style="fill:#fff;opacity:1;stroke:none;stroke-linecap:round;stroke-linejoin:round;isolation:isolate"/><path d="M2.5 77.5a55.023 55.023 0 0 1 16.109-38.891A55.023 55.023 0 0 1 57.5 22.5a55.023 55.023 0 0 1 38.891 16.109A55.023 55.023 0 0 1 112.5 77.5a55.023 55.023 0 0 1-16.109 38.891A55.023 55.023 0 0 1 57.5 132.5a55.023 55.023 0 0 1-38.891-16.109A55.023 55.023 0 0 1 2.5 77.5" fill="#475be5" style="fill:#728dbe" transform="matrix(.4182 0 0 .4182 55.852 55.852)"/><path d="M79.9 66.307c5.82 0 11.408 2.315 15.524 6.431a21.963 21.963 0 0 1 6.43 15.525c0 5.821-2.314 11.41-6.43 15.525A21.963 21.963 0 0 1 79.9 110.22a21.963 21.963 0 0 1-15.525-6.43 21.963 21.963 0 0 1-6.43-15.526 21.99 21.99 0 0 1 6.437-15.518A21.99 21.99 0 0 1 79.9 66.307m0-2.09a24.057 24.057 0 0 0-17.004 7.042 24.057 24.057 0 0 0-7.043 17.004 24.057 24.057 0 0 0 7.043 17.004A24.057 24.057 0 0 0 79.9 112.31a24.057 24.057 0 0 0 17.004-7.043 24.057 24.057 0 0 0 7.043-17.004 24.057 24.057 0 0 0-7.043-17.004 24.057 24.057 0 0 0-17.004-7.043z" fill="#fff"/><path d="M76.5 59a56.524 56.524 0 0 1 16.548-39.952A56.524 56.524 0 0 1 133 2.5a56.524 56.524 0 0 1 39.952 16.548A56.524 56.524 0 0 1 189.5 59a56.524 56.524 0 0 1-16.548 39.952A56.524 56.524 0 0 1 133 115.5a56.524 56.524 0 0 1-39.952-16.548A56.524 56.524 0 0 1 76.5 59" fill="#4964e5" style="fill:#728dbe" transform="matrix(.4182 0 0 .4182 55.852 55.852)"/><path d="M111.474 57.943c5.987 0 11.735 2.381 15.968 6.615a22.592 22.592 0 0 1 6.615 15.968c0 5.987-2.381 11.736-6.615 15.97a22.592 22.592 0 0 1-15.968 6.614 22.592 22.592 0 0 1-15.97-6.615 22.592 22.592 0 0 1-6.614-15.969 22.615 22.615 0 0 1 6.622-15.96 22.615 22.615 0 0 1 15.962-6.623m0-2.09a24.681 24.681 0 0 0-17.448 7.226A24.681 24.681 0 0 0 86.8 80.526a24.681 24.681 0 0 0 7.227 17.448 24.681 24.681 0 0 0 17.448 7.227 24.681 24.681 0 0 0 17.447-7.227 24.681 24.681 0 0 0 7.227-17.448 24.681 24.681 0 0 0-7.227-17.447 24.681 24.681 0 0 0-17.447-7.227z" fill="#fff"/><path d="M45.5 144a45.513 45.513 0 0 1 13.327-32.173A45.513 45.513 0 0 1 91 98.5a45.513 45.513 0 0 1 32.173 13.327A45.513 45.513 0 0 1 136.5 144a45.513 45.513 0 0 1-13.327 32.173A45.513 45.513 0 0 1 91 189.5a45.513 45.513 0 0 1-32.173-13.327A45.513 45.513 0 0 1 45.5 144" fill="#455ed7" style="fill:#54688c" transform="matrix(.4182 0 0 .4182 55.852 55.852)"/><path d="M93.909 98.091a17.99 17.99 0 0 1 12.716 5.267 17.99 17.99 0 0 1 5.267 12.716 17.99 17.99 0 0 1-5.267 12.716 17.99 17.99 0 0 1-12.716 5.267 17.99 17.99 0 0 1-12.716-5.267 17.99 17.99 0 0 1-5.267-12.716 17.99 17.99 0 0 1 5.267-12.716 17.99 17.99 0 0 1 12.716-5.267m0-2.091a20.08 20.08 0 0 0-14.194 5.88 20.08 20.08 0 0 0-5.88 14.194 20.08 20.08 0 0 0 5.88 14.194 20.08 20.08 0 0 0 14.194 5.88 20.08 20.08 0 0 0 14.194-5.88A20.073 20.073 0 0 0 93.91 96z" fill="#fff"/><path d="M105.5 135.5a42.011 42.011 0 0 1 12.302-29.698A42.011 42.011 0 0 1 147.5 93.5a42.011 42.011 0 0 1 29.698 12.302A42.011 42.011 0 0 1 189.5 135.5a42.011 42.011 0 0 1-12.302 29.698A42.011 42.011 0 0 1 147.5 177.5a42.011 42.011 0 0 1-29.698-12.302A42.011 42.011 0 0 1 105.5 135.5" fill="#498ce5" style="fill:#728dbe" transform="matrix(.4182 0 0 .4182 55.852 55.852)"/><path d="M117.538 96c4.38 0 8.584 1.741 11.68 4.838a16.525 16.525 0 0 1 4.839 11.681c0 4.38-1.742 8.584-4.838 11.681a16.525 16.525 0 0 1-11.681 4.838c-4.38 0-8.584-1.741-11.681-4.838a16.525 16.525 0 0 1-4.839-11.68 16.545 16.545 0 0 1 4.845-11.675A16.545 16.545 0 0 1 117.538 96m0-2.091c-4.934 0-9.671 1.962-13.16 5.45a18.617 18.617 0 0 0-5.45 13.16c0 4.934 1.962 9.67 5.45 13.16a18.617 18.617 0 0 0 13.16 5.45c4.934 0 9.67-1.962 13.159-5.45a18.617 18.617 0 0 0 5.45-13.16c0-4.934-1.961-9.67-5.45-13.16a18.617 18.617 0 0 0-13.16-5.45z" fill="#fff"/><path d="M96.5 85a32.511 32.511 0 0 1 9.519-22.981A32.511 32.511 0 0 1 129 52.5a32.511 32.511 0 0 1 22.981 9.519A32.511 32.511 0 0 1 161.5 85a32.511 32.511 0 0 1-9.519 22.981A32.511 32.511 0 0 1 129 117.5a32.511 32.511 0 0 1-22.981-9.519A32.511 32.511 0 0 1 96.5 85" fill="#49aae6" style="fill:#728dbe" transform="matrix(.4182 0 0 .4182 55.852 55.852)"/><path d="M109.8 78.854a12.55 12.55 0 0 1 8.872 3.674 12.55 12.55 0 0 1 3.675 8.872 12.55 12.55 0 0 1-3.675 8.871 12.55 12.55 0 0 1-8.871 3.675 12.55 12.55 0 0 1-8.872-3.675 12.55 12.55 0 0 1-3.674-8.871 12.55 12.55 0 0 1 3.674-8.872 12.55 12.55 0 0 1 8.872-3.674m0-2.091c-3.88 0-7.606 1.543-10.35 4.287a14.644 14.644 0 0 0-4.287 10.35c0 3.88 1.543 7.606 4.287 10.35a14.644 14.644 0 0 0 10.35 4.287c3.88 0 7.606-1.543 10.35-4.287a14.644 14.644 0 0 0 2.326-17.669 14.642 14.642 0 0 0-12.676-7.318z" fill="#fff"/><path d="M80.5 138.5a36.003 36.003 0 0 1 24.875-34.238 36.007 36.007 0 0 1 40.25 13.078 36.003 36.003 0 0 1 0 42.32 36.005 36.005 0 0 1-40.25 13.078A36.005 36.005 0 0 1 80.5 138.5" fill="#49aae6" style="fill:#9abeff" transform="matrix(.4182 0 0 .4182 55.852 55.852)"/><path d="M104.573 99.764c3.714 0 7.28 1.477 9.907 4.103a14.015 14.015 0 0 1 4.103 9.907c0 3.714-1.477 7.28-4.103 9.906a14.015 14.015 0 0 1-9.907 4.104 14.015 14.015 0 0 1-14.01-14.01 14.031 14.031 0 0 1 14.01-14.01m0-2.091a16.108 16.108 0 0 0-11.385 4.716 16.108 16.108 0 0 0-4.716 11.385c0 4.268 1.698 8.366 4.716 11.385a16.108 16.108 0 0 0 11.385 4.716c4.269 0 8.367-1.698 11.385-4.716a16.108 16.108 0 0 0 2.56-19.436 16.105 16.105 0 0 0-13.945-8.05z" fill="#fff"/><path d="M43.5 98a43.515 43.515 0 0 1 12.741-30.759A43.515 43.515 0 0 1 87 54.5a43.515 43.515 0 0 1 30.759 12.741A43.515 43.515 0 0 1 130.5 98a43.515 43.515 0 0 1-12.741 30.759A43.515 43.515 0 0 1 87 141.5a43.515 43.515 0 0 1-30.759-12.741A43.515 43.515 0 0 1 43.5 98" fill="#49bfe7" style="fill:#9abeff" transform="matrix(.4182 0 0 .4182 55.852 55.852)"/><path d="M92.236 79.69c4.546 0 8.91 1.808 12.124 5.022a17.152 17.152 0 0 1 5.023 12.124 17.152 17.152 0 0 1-17.146 17.146c-4.547 0-8.91-1.807-12.125-5.021a17.152 17.152 0 0 1-5.022-12.125c0-4.545 1.808-8.91 5.022-12.124a17.152 17.152 0 0 1 12.124-5.022m0-2.091c-5.1 0-9.997 2.028-13.603 5.634A19.245 19.245 0 0 0 73 96.836c0 5.1 2.028 9.997 5.634 13.603a19.245 19.245 0 0 0 13.603 5.635c5.1 0 9.997-2.028 13.603-5.635a19.245 19.245 0 0 0 5.635-13.603c0-5.1-2.029-9.996-5.635-13.603A19.245 19.245 0 0 0 92.236 77.6z" fill="#fff"/><path d="M79 107a32.008 32.008 0 0 1 9.373-22.627A32.008 32.008 0 0 1 111 75a32.008 32.008 0 0 1 22.627 9.373A32.008 32.008 0 0 1 143 107a32.008 32.008 0 0 1-9.373 22.627A32.008 32.008 0 0 1 111 139a32.008 32.008 0 0 1-22.627-9.373A32.008 32.008 0 0 1 79 107" fill="#e8d82d" style="fill:#f9de81" transform="matrix(.4182 0 0 .4182 55.852 55.852)"/><path d="M111 78c7.688 0 15.07 3.057 20.506 8.494A29.008 29.008 0 0 1 140 107c0 7.688-3.057 15.07-8.494 20.506A29.008 29.008 0 0 1 111 136a29.008 29.008 0 0 1-20.506-8.494A29.008 29.008 0 0 1 82 107c0-7.688 3.057-15.07 8.494-20.506A29.008 29.008 0 0 1 111 78m0-6a35.015 35.015 0 0 0-24.749 10.251A35.015 35.015 0 0 0 76 107c0 9.279 3.69 18.187 10.251 24.749A35.015 35.015 0 0 0 111 142c9.279 0 18.187-3.69 24.749-10.251A35 35 0 0 0 111 72z" fill="#fff" style="fill:#fff" transform="matrix(.4182 0 0 .4182 55.852 55.852)"/></svg>