<svg xmlns="http://www.w3.org/2000/svg" viewBox="0 0 192 192"><rect width="145" height="145" x="23.5" y="23.5" fill="#fff" rx="6"/><path fill="#56595b" d="M162.5 27.5a2 2 0 0 1 2 2v133a2 2 0 0 1-2 2h-133a2 2 0 0 1-2-2v-133a2 2 0 0 1 2-2h133m0-8h-133a10 10 0 0 0-10 10v133a10 10 0 0 0 10 10h133a10 10 0 0 0 10-10v-133a10 10 0 0 0-10-10Z"/><path fill="#56595b" d="M167.19 92.05H99.95V24.81h-7.9v67.24H24.81v7.9h67.24v67.24h7.9v-.99h66.37V99.95h.87v-7.9z"/><text fill="#56595b" font-family="Now-Bold, Now" font-size="24.78" font-weight="700" transform="translate(34.88 54.1)">1</text></svg>