<?xml version="1.0" encoding="UTF-8"?>
<svg version="1.1" viewBox="0 0 192 192" xml:space="preserve" xmlns="http://www.w3.org/2000/svg">
	 <circle class="a" cx="96" cy="96" r="88" fill="#71a372"/><path d="m49.278 113.25 19.07-25.387q0.71514-0.95352 1.7283-1.4303 1.0131-0.47676 2.0858-0.47676 1.0727 0 2.0858 0.47676 1.0131 0.47676 1.7283 1.4303l16.21 21.573q0.71513 0.95352 1.6687 1.4303 0.95351 0.47677 2.1454 0.47677 2.9797 0 4.2908-2.6818 1.3111-2.6818-0.47675-5.0656l-12.157-16.091 14.064-18.713q0.71513-0.95352 1.7282-1.4303t2.0858-0.47676q1.0727 0 2.0858 0.47676 1.0131 0.47676 1.7282 1.4303l33.373 44.458q1.7878 2.3838 0.47675 5.006-1.3111 2.6222-4.2908 2.6222h-85.817q-2.9797 0-4.2908-2.6222-1.3111-2.6222 0.47676-5.006z" fill="#fff" stroke-width=".11919"/></svg>
