<svg xmlns="http://www.w3.org/2000/svg" viewBox="0 0 192 192"><defs><linearGradient id="a" x1="96" x2="96" y1="70.97" y2="184.58" gradientUnits="userSpaceOnUse"><stop offset="0" stop-color="#8c72bd"/><stop offset=".17" stop-color="#728dbe"/><stop offset=".41" stop-color="#9abeff"/><stop offset=".85" stop-color="#7baa96"/><stop offset="1" stop-color="#71a372"/></linearGradient><linearGradient id="b" x1="96" x2="96" y1="9.77" y2="60.88" gradientUnits="userSpaceOnUse"><stop offset="0" stop-color="#f9de81"/><stop offset=".18" stop-color="#fbbf80"/><stop offset=".49" stop-color="#ff837d"/><stop offset=".57" stop-color="#f68282"/><stop offset=".69" stop-color="#dd7e90"/><stop offset=".86" stop-color="#b578a6"/><stop offset="1" stop-color="#8c72bd"/></linearGradient></defs><path fill="url(#a)" d="M157.29 68H34.71a2.16 2.16 0 0 0-2.21 2.1v95.65a9.77 9.77 0 0 0 10 9.51h6.58v3.45A5.39 5.39 0 0 0 54.6 184h16.56a5.39 5.39 0 0 0 5.52-5.25v-3.45h38.64v3.45a5.39 5.39 0 0 0 5.52 5.25h16.56a5.39 5.39 0 0 0 5.52-5.25v-3.45h6.58a9.77 9.77 0 0 0 10-9.51V70.14a2.16 2.16 0 0 0-2.21-2.14ZM67 102.6a4 4 0 0 1-4.08 3.88 4 4 0 0 1-4.08-3.88V80.7a4 4 0 0 1 4.08-3.88A4 4 0 0 1 67 80.7Z"/><path fill="url(#b)" d="M149.5 8h-107a9.77 9.77 0 0 0-10 9.51v43.18a2.16 2.16 0 0 0 2.21 2.1h122.58a2.16 2.16 0 0 0 2.21-2.1V17.51a9.77 9.77 0 0 0-10-9.51ZM67 50.06a4 4 0 0 1-4.08 3.88 4 4 0 0 1-4.08-3.88v-21.9a4 4 0 0 1 4.08-3.88A4 4 0 0 1 67 28.16Z"/></svg>