<svg xmlns="http://www.w3.org/2000/svg" viewBox="0 0 192 192"><defs><linearGradient id="a" x1="96" x2="96" y1="85.11" y2="134.53" gradientUnits="userSpaceOnUse"><stop offset="0" stop-color="#8c72bd"/><stop offset=".17" stop-color="#728dbe"/><stop offset=".41" stop-color="#9abeff"/><stop offset=".85" stop-color="#7baa96"/><stop offset="1" stop-color="#71a372"/></linearGradient><linearGradient id="b" x1="96" x2="96" y1="58.49" y2="80.72" gradientUnits="userSpaceOnUse"><stop offset="0" stop-color="#f9de81"/><stop offset=".18" stop-color="#fbbf80"/><stop offset=".49" stop-color="#ff837d"/><stop offset=".57" stop-color="#f68282"/><stop offset=".69" stop-color="#dd7e90"/><stop offset=".86" stop-color="#b578a6"/><stop offset="1" stop-color="#8c72bd"/></linearGradient></defs><rect width="153" height="153" x="19.5" y="19.5" fill="#96dfd3" rx="10"/><path fill="#fff" d="M116.37 72.85v46.3h-7.56L83.19 84.73v34.42h-7.56v-46.3h7.56l25.7 34.34V72.85ZM75.63 65.28v-7.56h40.75v7.56zM75.62 134.28v-7.56h40.75v7.56z"/><rect width="153" height="153" x="19.5" y="19.5" fill="#56595b" rx="10"/><path fill="url(#a)" d="M122.66 83.84H69.34a.94.94 0 0 0-1 .91v41.61a4.25 4.25 0 0 0 4.35 4.13h2.86V132a2.35 2.35 0 0 0 2.4 2.28h7.2A2.35 2.35 0 0 0 87.6 132v-1.51h16.8V132a2.35 2.35 0 0 0 2.41 2.28H114a2.34 2.34 0 0 0 2.4-2.28v-1.51h2.86a4.25 4.25 0 0 0 4.35-4.13V84.75a.94.94 0 0 0-.95-.91Zm-39.29 15a1.74 1.74 0 0 1-1.78 1.69 1.73 1.73 0 0 1-1.77-1.69v-9.5a1.72 1.72 0 0 1 1.77-1.68 1.73 1.73 0 0 1 1.78 1.68Z"/><path fill="url(#b)" d="M119.27 57.72H72.73a4.25 4.25 0 0 0-4.35 4.14v18.78a.93.93 0 0 0 1 .91h53.32a.93.93 0 0 0 1-.91V61.86a4.25 4.25 0 0 0-4.43-4.14ZM83.37 76a1.73 1.73 0 0 1-1.78 1.68A1.72 1.72 0 0 1 79.82 76v-9.51a1.73 1.73 0 0 1 1.77-1.69 1.74 1.74 0 0 1 1.78 1.69Z"/></svg>