<svg xmlns="http://www.w3.org/2000/svg" viewBox="0 0 192 192"><rect width="176" height="127" x="8" y="32.5" fill="#bd9aff" rx="10"/><path fill="#fff" d="M110 75.78H82c-13.74 0-21.93 9.19-21.93 20.51S68.25 116.8 82 116.8h5.73a12.77 12.77 0 0 1 4.39.78v4.83c0 2.51 1.75 3.64 3.89 3.64s3.91-1.13 3.91-3.64v-4.83a12.81 12.81 0 0 1 4.39-.78H110c13.74 0 21.91-9.19 21.91-20.51S123.77 75.78 110 75.78Zm0 33.61h-5.7a14.15 14.15 0 0 0-4.12.68l-.27.1V99.63c0-2.52-1.75-3.63-3.91-3.63s-3.89 1.11-3.89 3.63v10.54a13 13 0 0 0-4.39-.78H82c-9.38 0-14-5.86-14-13.1s4.63-13.1 14-13.1h28c9.36 0 14 5.87 14 13.1s-4.61 13.1-14 13.1Z"/></svg>