<?xml version="1.0" encoding="UTF-8"?>
<svg version="1.1" viewBox="0 0 192 192" xml:space="preserve" xmlns="http://www.w3.org/2000/svg">
	 <circle class="a" cx="96" cy="96" r="88" fill="#98dc9a"/><path d="m124.14 99.518h-56.288c-1.9349 0-3.518 1.5831-3.518 3.518v21.108c0 1.9349 1.5831 3.518 3.518 3.518h56.288c1.9349 0 3.518-1.5831 3.518-3.518v-21.108c0-1.9349-1.5831-3.518-3.518-3.518zm-45.734 21.108c-3.8698 0-7.036-3.1662-7.036-7.036 0-3.8698 3.1662-7.036 7.036-7.036 3.8698 0 7.036 3.1662 7.036 7.036 0 3.8698-3.1662 7.036-7.036 7.036zm45.734-56.288h-56.288c-1.9349 0-3.518 1.5831-3.518 3.518v21.108c0 1.9349 1.5831 3.518 3.518 3.518h56.288c1.9349 0 3.518-1.5831 3.518-3.518v-21.108c0-1.9349-1.5831-3.518-3.518-3.518zm-45.734 21.108c-3.8698 0-7.036-3.1662-7.036-7.036 0-3.8698 3.1662-7.036 7.036-7.036 3.8698 0 7.036 3.1662 7.036 7.036s-3.1662 7.036-7.036 7.036z" fill="#56595b" stroke-width="3.518"/></svg>
