<?xml version="1.0" encoding="UTF-8" standalone="no"?>
<svg
   version="1.1"
   viewBox="0 0 192 192"
   xml:space="preserve"
   id="svg8"
   xmlns="http://www.w3.org/2000/svg"
   xmlns:svg="http://www.w3.org/2000/svg"><defs
   id="defs8" />
	 <rect
   class="a"
   x="20"
   y="20"
   width="152"
   height="152"
   rx="10"
   fill="#56595b"
   id="rect1" /><g
   transform="translate(1.091,-1.1975)"
   fill="#ffffff"
   stroke-linecap="round"
   stroke-linejoin="round"
   stroke-width="8.4542"
   aria-label="FUTO"
   id="g8"><path
     d="M 70.574,72.813 V 67.8943 H 56.817 v 22.19 h 5.6583 v -8.6539 h 6.8418 v -4.8817 h -6.8418 v -3.7352 z"
     id="path5" /><path
     d="m 82.26,90.38 c 5.3255,0 9.5045,-3.2175 9.5045,-7.3595 v -15.126 h -5.6583 v 14.053 c 0,1.9601 -1.7012,3.5133 -3.8462,3.5133 -2.145,0 -3.8462,-1.5533 -3.8462,-3.5133 v -14.053 h -5.6583 v 15.126 c 0,4.142 4.179,7.3595 9.5045,7.3595 z"
     id="path6" /><path
     d="M 109.85,67.895 H 93.356 v 4.9187 h 5.4364 v 17.271 h 5.6213 v -17.271 h 5.4364 z"
     id="path7" /><path
     d="m 121.61,67.6 c -6.324,0 -11.391,5.1036 -11.391,11.391 0,6.287 5.0666,11.391 11.391,11.391 6.287,0 11.391,-5.1036 11.391,-11.391 0,-6.287 -5.1036,-11.391 -11.391,-11.391 z m -0.0176,5.082 c 0.38897,-0.01076 0.77464,0.12816 1.0644,0.41797 l 4.8438,4.8438 c 0.57961,0.57961 0.55399,1.5398 -0.0586,2.1523 l -4.7266,4.7266 c -0.61258,0.61258 -1.5727,0.6382 -2.1523,0.05859 l -4.8438,-4.8438 c -0.57961,-0.57961 -0.55399,-1.5398 0.0586,-2.1523 l 4.7266,-4.7266 c 0.30629,-0.30629 0.69892,-0.4658 1.0879,-0.47656 z"
     id="path8" /></g><g
   id="g18"
   transform="matrix(0.81276151,0,0,0.81276151,20.065122,14.473705)"><path
     id="rect18"
     style="fill:#ffffff;fill-rule:evenodd;stroke-width:1.59491;stroke-linecap:round;stroke-linejoin:round;stroke-miterlimit:3.4;paint-order:stroke fill markers"
     d="m 72.047798,123.56418 h 47.904412 c 0.85748,0 1.54779,0.69032 1.54779,1.5478 v 9.80763 c 0,0.85748 -0.69031,1.54781 -1.54779,1.54781 H 72.047798 c -0.857479,0 -1.547797,-0.69033 -1.547797,-1.54781 v -9.80763 c 0,-0.85748 0.690318,-1.5478 1.547797,-1.5478 z"
     transform="matrix(1.2303732,0,0,1.2303732,-24.687589,-17.808059)" /><path
     id="rect8"
     style="fill:#ffffff;fill-rule:evenodd;stroke-width:0.917954;stroke-linecap:round;stroke-linejoin:round;stroke-miterlimit:3.4;paint-order:stroke fill markers"
     d="m 51.817344,98.22168 h 11.222359 c 0.981167,0 1.77106,0.789892 1.77106,1.771064 v 11.222346 c 0,0.98117 -0.789893,1.77107 -1.77106,1.77107 H 51.817344 c -0.981168,0 -1.77106,-0.7899 -1.77106,-1.77107 V 99.992744 c 0,-0.981172 0.789892,-1.771064 1.77106,-1.771064 z" /><path
     id="rect9"
     style="fill:#ffffff;fill-rule:evenodd;stroke-width:0.917954;stroke-linecap:round;stroke-linejoin:round;stroke-miterlimit:3.4;paint-order:stroke fill markers"
     d="m 69.817058,98.22168 h 11.222359 c 0.981167,0 1.77106,0.789892 1.77106,1.771064 v 11.222346 c 0,0.98117 -0.789893,1.77107 -1.77106,1.77107 H 69.817058 c -0.981168,0 -1.77106,-0.7899 -1.77106,-1.77107 V 99.992744 c 0,-0.981172 0.789892,-1.771064 1.77106,-1.771064 z" /><path
     id="rect10"
     style="fill:#ffffff;fill-rule:evenodd;stroke-width:0.917954;stroke-linecap:round;stroke-linejoin:round;stroke-miterlimit:3.4;paint-order:stroke fill markers"
     d="m 87.817058,98.22168 h 11.222355 c 0.981167,0 1.771067,0.789892 1.771067,1.771064 v 11.222346 c 0,0.98117 -0.7899,1.77107 -1.771067,1.77107 H 87.817058 c -0.981168,0 -1.77106,-0.7899 -1.77106,-1.77107 V 99.992744 c 0,-0.981172 0.789892,-1.771064 1.77106,-1.771064 z" /><path
     id="rect11"
     style="fill:#ffffff;fill-rule:evenodd;stroke-width:0.917954;stroke-linecap:round;stroke-linejoin:round;stroke-miterlimit:3.4;paint-order:stroke fill markers"
     d="m 105.81705,98.22168 h 11.22236 c 0.98117,0 1.77107,0.789892 1.77107,1.771064 v 11.222346 c 0,0.98117 -0.7899,1.77107 -1.77107,1.77107 h -11.22236 c -0.98116,0 -1.77105,-0.7899 -1.77105,-1.77107 V 99.992744 c 0,-0.981172 0.78989,-1.771064 1.77105,-1.771064 z" /><path
     id="rect12"
     style="fill:#ffffff;fill-rule:evenodd;stroke-width:0.917954;stroke-linecap:round;stroke-linejoin:round;stroke-miterlimit:3.4;paint-order:stroke fill markers"
     d="m 123.81705,98.22168 h 11.22236 c 0.98117,0 1.77107,0.789892 1.77107,1.771064 v 11.222346 c 0,0.98117 -0.7899,1.77107 -1.77107,1.77107 h -11.22236 c -0.98116,0 -1.77105,-0.7899 -1.77105,-1.77107 V 99.992744 c 0,-0.981172 0.78989,-1.771064 1.77105,-1.771064 z" /><path
     id="rect13"
     style="fill:#ffffff;fill-rule:evenodd;stroke-width:0.917954;stroke-linecap:round;stroke-linejoin:round;stroke-miterlimit:3.4;paint-order:stroke fill markers"
     d="M 51.817062,116.222 H 63.03942 c 0.981167,0 1.77106,0.78989 1.77106,1.77106 v 11.22235 c 0,0.98117 -0.789893,1.77107 -1.77106,1.77107 H 51.817062 c -0.981168,0 -1.771061,-0.7899 -1.771061,-1.77107 v -11.22235 c 0,-0.98117 0.789893,-1.77106 1.771061,-1.77106 z" /><path
     id="rect14"
     style="fill:#ffffff;fill-rule:evenodd;stroke-width:0.917954;stroke-linecap:round;stroke-linejoin:round;stroke-miterlimit:3.4;paint-order:stroke fill markers"
     d="m 69.816775,116.222 h 11.222359 c 0.981167,0 1.77106,0.78989 1.77106,1.77106 v 11.22235 c 0,0.98117 -0.789893,1.77107 -1.77106,1.77107 H 69.816775 c -0.981167,0 -1.77106,-0.7899 -1.77106,-1.77107 v -11.22235 c 0,-0.98117 0.789893,-1.77106 1.77106,-1.77106 z" /><path
     id="rect15"
     style="fill:#ffffff;fill-rule:evenodd;stroke-width:0.917953;stroke-linecap:round;stroke-linejoin:round;stroke-miterlimit:3.4;paint-order:stroke fill markers"
     d="M 87.816775,116.222 H 99.03913 c 0.98116,0 1.77106,0.78989 1.77106,1.77106 v 11.22235 c 0,0.98116 -0.7899,1.77106 -1.77106,1.77106 H 87.816775 c -0.981167,0 -1.77106,-0.7899 -1.77106,-1.77106 v -11.22235 c 0,-0.98117 0.789893,-1.77106 1.77106,-1.77106 z" /><path
     id="rect16"
     style="fill:#ffffff;fill-rule:evenodd;stroke-width:0.917954;stroke-linecap:round;stroke-linejoin:round;stroke-miterlimit:3.4;paint-order:stroke fill markers"
     d="m 105.81678,116.222 h 11.22236 c 0.98117,0 1.77106,0.78989 1.77106,1.77106 v 11.22235 c 0,0.98117 -0.78989,1.77107 -1.77106,1.77107 h -11.22236 c -0.98116,0 -1.77106,-0.7899 -1.77106,-1.77107 v -11.22235 c 0,-0.98117 0.7899,-1.77106 1.77106,-1.77106 z" /><path
     id="rect17"
     style="fill:#ffffff;fill-rule:evenodd;stroke-width:0.917954;stroke-linecap:round;stroke-linejoin:round;stroke-miterlimit:3.4;paint-order:stroke fill markers"
     d="m 123.81678,116.222 h 11.22236 c 0.98116,0 1.77106,0.78988 1.77106,1.77106 v 11.22235 c 0,0.98116 -0.7899,1.77107 -1.77106,1.77107 h -11.22236 c -0.98117,0 -1.77106,-0.78991 -1.77106,-1.77107 v -11.22235 c 0,-0.98118 0.78989,-1.77106 1.77106,-1.77106 z" /></g></svg>
