<svg xmlns="http://www.w3.org/2000/svg" xmlns:xlink="http://www.w3.org/1999/xlink" xml:space="preserve" viewBox="0 0 192 192"><defs><linearGradient id="a" x1="-83.294" x2="-167.58" y1="84.808" y2="84.808" gradientTransform="translate(157.41 -5.894)" gradientUnits="userSpaceOnUse"><stop offset="0" stop-color="#ff837d"/><stop offset="1" stop-color="#ff837d" stop-opacity=".5"/></linearGradient><linearGradient id="b" x1="-87.194" x2="-169" y1="98.217" y2="98.217" gradientTransform="translate(157.41 -5.894)" gradientUnits="userSpaceOnUse"><stop offset="0" stop-color="#ff837d"/><stop offset="1" stop-color="#ff837d" stop-opacity=".5"/></linearGradient><linearGradient id="c" x1="-90.748" x2="-169" y1="110.44" y2="110.44" gradientTransform="translate(157.41 -5.894)" gradientUnits="userSpaceOnUse"><stop offset="0" stop-color="#ff837d"/><stop offset="1" stop-color="#ff837d" stop-opacity=".5"/></linearGradient><linearGradient id="d" x1="-70.241" x2="-160.18" y1="117.6" y2="117.6" gradientTransform="translate(157.41 -5.894)" gradientUnits="userSpaceOnUse"><stop offset="0" stop-color="#fff"/><stop offset="1" stop-color="#fff" stop-opacity=".5"/></linearGradient><linearGradient id="e" x1="-70.261" x2="-160.18" y1="121.43" y2="121.43" gradientTransform="translate(157.41 -5.894)" gradientUnits="userSpaceOnUse"><stop offset="0" stop-color="#fff"/><stop offset="1" stop-color="#fff" stop-opacity=".5"/></linearGradient><linearGradient xlink:href="#a" id="k" x1="-83.294" x2="-147.74" y1="84.808" y2="84.808" gradientTransform="translate(157.41 -5.894)" gradientUnits="userSpaceOnUse"/><linearGradient xlink:href="#b" id="l" x1="-87.194" x2="-149.41" y1="98.217" y2="98.217" gradientTransform="translate(157.41 -5.894)" gradientUnits="userSpaceOnUse"/><linearGradient xlink:href="#c" id="m" x1="-90.748" x2="-149.41" y1="110.44" y2="110.44" gradientTransform="translate(157.41 -5.894)" gradientUnits="userSpaceOnUse"/><linearGradient xlink:href="#d" id="n" x1="-70.241" x2="-148" y1="117.6" y2="117.6" gradientTransform="translate(157.41 -5.894)" gradientUnits="userSpaceOnUse"/><linearGradient xlink:href="#e" id="o" x1="-70.261" x2="-147.21" y1="121.43" y2="121.43" gradientTransform="translate(157.41 -5.894)" gradientUnits="userSpaceOnUse"/><clipPath id="j"><circle cx="96" cy="96" r="88" fill="#56595b" class="a"/></clipPath><clipPath id="i"><circle cx="96" cy="96" r="88" fill="#56595b" class="a"/></clipPath><clipPath id="h"><circle cx="96" cy="96" r="88" fill="#56595b" class="a"/></clipPath><clipPath id="g"><circle cx="96" cy="96" r="88" fill="#56595b" class="a"/></clipPath><clipPath id="f"><circle cx="96" cy="96" r="88" fill="#56595b" class="a"/></clipPath></defs><circle cx="96" cy="96" r="88" fill="#56595b" class="a"/><path fill="#ff837d" d="m75.331 74.737-9.912 34.079h9.578l3.357-12.529h17.469l2.057-7.675H80.232l1.704-6.36h17.897l1.987-7.416zM100.72 89.549l4.343 9.912-9.243 8.798h6.57l5.569-5.568 2.339 5.68h7.016l-4.566-9.133 9.745-9.745h-6.515l-5.93 5.93-2.312-5.874z"/><text xml:space="preserve" x="86.488" y="117.178" fill="#fff" stroke-linecap="round" stroke-linejoin="round" stroke-width="1.371" font-family="Now" font-size="8.528" font-weight="bold"><tspan x="86.488" y="117.178">RACER</tspan></text><path fill="url(#a)" d="M75.331 74.737h-85.5v8.356l83.071-.003z" clip-path="url(#f)"/><path fill="url(#b)" d="m71.426 88.166-83.012.075v8.24h80.594z" clip-path="url(#g)"/><path fill="url(#c)" d="m67.905 100.27-79.492.527v8.687l77.006-.669z" clip-path="url(#h)"/><path fill="url(#d)" d="m87.171 110.79-89.938-.014v2.006l89.933-.144z" clip-path="url(#i)"/><path fill="url(#e)" d="M87.152 114.61H-2.766v2.006l89.914-.158z" clip-path="url(#j)"/><path fill="url(#k)" d="M76.276 74.737h-86.445v8.356l84.016-.003z" clip-path="url(#f)"/><path fill="url(#l)" d="m72.371 88.166-83.957.075v8.24h81.539z" clip-path="url(#g)"/><path fill="url(#m)" d="m69.086 100.27-80.673.527v8.687l78.187-.669z" clip-path="url(#h)"/><path fill="url(#n)" d="m87.171 110.79-89.938-.014v2.006l89.933-.144z" clip-path="url(#i)"/><path fill="url(#o)" d="M87.152 114.61H-2.766v2.006l89.914-.158z" clip-path="url(#j)"/></svg>