<svg xmlns="http://www.w3.org/2000/svg" xml:space="preserve" width="192" height="192"><circle cx="96" cy="96" r="88" fill="#56595b"/><path fill="#9abeff" d="m95.995 60.591-19.485.066a23.072 23.072 0 0 0-22.674 19.042l-7.263 37.242a12.4 12.4 0 0 0 7.562 13.547z"/><path fill="#f8c18c" d="m115.48 60.524-19.485.066 41.891 69.95a12.4 12.4 0 0 0 7.53-13.6l-7.262-37.374-.088.071a23.028 23.028 0 0 0-22.586-19.114z"/><path fill="#fff" d="m95.995 60.591-41.86 69.897a12.4 12.4 0 0 0 .001.001 12.4 12.4 0 0 0 13.428-2.61l19.131-21.168 18.602-.085 19.13 21.253a12.4 12.4 0 0 0 13.46 2.66z"/></svg>