<svg xmlns="http://www.w3.org/2000/svg" xml:space="preserve" style="fill-rule:evenodd;clip-rule:evenodd;stroke-linejoin:round;stroke-miterlimit:2" viewBox="0 0 192 192"><defs><clipPath id="a" clipPathUnits="userSpaceOnUse"/></defs><path d="M172 29.935c0-5.483-4.452-9.935-9.935-9.935H29.935C24.452 20 20 24.452 20 29.935v132.13c0 5.483 4.452 9.935 9.935 9.935h132.13c5.483 0 9.935-4.452 9.935-9.935z" style="fill:#56595b;fill-opacity:1;stroke-width:.993464"/><path d="M97.037 76.482c-21.317 0-39.02 16.153-41.258 36.804h12.75c2.127-13.714 13.999-24.15 28.508-24.15 10.161 0 19.027 5.118 24.16 12.896.76 1.152 2.403 2.145 3.784 2.145h8.74c1.38 0 2.135-1.06 1.598-2.331-6.285-14.875-21.107-25.364-38.282-25.364ZM55.78 122.137c2.239 20.65 19.94 36.802 41.258 36.802 17.175 0 31.997-10.488 38.282-25.363.537-1.272-.217-2.332-1.598-2.332h-8.74c-1.381 0-3.024.993-3.784 2.145-5.133 7.778-13.999 12.898-24.16 12.898-14.509 0-26.38-10.437-28.508-24.15z" style="color:#000;clip-rule:nonzero;fill:#99bdfe;fill-opacity:1;stroke-width:.633333;stroke-linejoin:miter;stroke-dashoffset:6"/><path d="M2.14-577.878h284.185v108.151H2.14z" clip-path="url(#a)" style="fill:#99bdfe;fill-opacity:1;fill-rule:evenodd;stroke:none;stroke-width:24.4371;stroke-dasharray:none;stroke-dashoffset:6;stroke-opacity:1;stop-color:#000" transform="matrix(.60535 -.18616 .18616 .60535 96.729 372.898)"/><text xml:space="preserve" x="13.532" y="82.235" style="font-weight:700;font-size:22.1925px;line-height:1.25;font-family:Now;-inkscape-font-specification:&quot;Now Bold&quot;;letter-spacing:2.21667px;word-spacing:0;fill:#56595b;fill-opacity:1;stroke-width:.554813" transform="rotate(-17.094)"><tspan x="13.532" y="82.235" style="fill:#56595b;fill-opacity:1;stroke-width:.554813">GARMIN</tspan></text></svg>