<?xml version="1.0" encoding="UTF-8" standalone="no"?>
<svg
   viewBox="0 0 192 192"
   version="1.1"
   id="svg14"
   sodipodi:docname="glo_lottery.svg"
   inkscape:version="1.2.2 (b0a8486541, 2022-12-01)"
   inkscape:export-filename="glo_lottery.png"
   inkscape:export-xdpi="96"
   inkscape:export-ydpi="96"
   xml:space="preserve"
   xmlns:inkscape="http://www.inkscape.org/namespaces/inkscape"
   xmlns:sodipodi="http://sodipodi.sourceforge.net/DTD/sodipodi-0.dtd"
   xmlns="http://www.w3.org/2000/svg"
   xmlns:svg="http://www.w3.org/2000/svg"><defs
     id="defs18" /><sodipodi:namedview
     id="namedview16"
     pagecolor="#505050"
     bordercolor="#eeeeee"
     borderopacity="1"
     inkscape:showpageshadow="0"
     inkscape:pageopacity="0"
     inkscape:pagecheckerboard="0"
     inkscape:deskcolor="#d1d1d1"
     showgrid="false"
     inkscape:zoom="3.4766084"
     inkscape:cx="-45.158954"
     inkscape:cy="91.468455"
     inkscape:window-width="1918"
     inkscape:window-height="1053"
     inkscape:window-x="0"
     inkscape:window-y="0"
     inkscape:window-maximized="1"
     inkscape:current-layer="svg14"
     showguides="true" /><path
     id="circle24078"
     style="fill:#9abeff;stroke-width:2;stroke-linecap:round;stop-color:#000000"
     d="M 184.5,96 A 88.5,88.5 0 0 1 96,184.5 88.5,88.5 0 0 1 7.5,96 88.5,88.5 0 0 1 96,7.5 88.5,88.5 0 0 1 184.5,96 Z" /><path
     id="circle25339"
     style="fill:#728dbe;stroke-width:2;stroke-linecap:round;stop-color:#000000"
     d="M 166.31659,96 A 70.316589,70.316589 0 0 1 96,166.31659 70.316589,70.316589 0 0 1 25.683411,96 70.316589,70.316589 0 0 1 96,25.683411 70.316589,70.316589 0 0 1 166.31659,96 Z" /><path
     id="path1912"
     style="fill:#f9de81;fill-opacity:1;stroke:none;stroke-width:2;stroke-linecap:round;stroke-linejoin:round;stroke-dasharray:none;stroke-opacity:1;stop-color:#000000"
     d="m 97.924357,56.001776 c -0.233014,-0.0058 -0.465565,0.0037 -0.697744,0.02684 -1.11445,0.110821 -2.18995,0.558086 -2.94994,1.366592 -0.911883,-1.935227 -2.644222,-0.709279 -4.700502,-0.935145 1.424683,0.722936 3.205257,1.297754 3.108895,2.667126 -8.492766,7.125153 -8.681901,14.536738 -8.37296,22.107011 -4.854153,1.575808 -4.685691,-13.823021 -16.92552,-8.668161 -6.298946,2.652826 -10.731922,12.948793 -9.99966,22.544651 -0.149552,11.51447 4.571668,25.72247 14.173755,26.22536 3.935207,-0.13004 6.589931,-2.95003 5.134012,-5.41683 -0.216869,-0.36744 -0.622469,-0.47795 -0.912438,-0.72665 -2.031424,-1.74229 -2.863242,-5.0383 -1.981765,-8.03646 0.720018,-2.44905 3.043257,-4.40088 5.755377,-5.85448 2.712127,-1.453556 6.944982,-1.923976 8.889046,-1.781516 1.94407,0.14246 4.189951,-0.72492 4.36195,-2.237739 l 0.0041,-0.01445 c 0.745363,2.383379 2.212073,3.108425 4.366078,3.532085 -2.022838,0 -3.315323,0.0592 -4.353692,0.95785 -6.733918,0.64494 -6.725647,-1.38947 -8.998455,0.42731 -0.421713,0.33225 -0.454589,0.70217 -0.344745,1.06933 l -0.0021,0.002 c -0.03566,2.24969 4.758807,3.49245 4.155515,0.67092 -0.01659,-0.21958 -0.08977,-0.43894 -0.210562,-0.65853 0.996616,-0.0654 1.7913,0.97461 3.166696,0.74936 0.897951,-0.14704 1.519882,-0.41533 2.599004,-0.47686 1.368459,-0.078 1.332967,-0.91657 2.109604,-0.96045 0.776636,-0.0439 1.343595,-0.003 1.930307,0.002 l 2.099434,0.0227 c 0.983863,1.03317 2.605083,3.2422 3.610533,5.08447 1.82927,3.35173 3.20244,7.38237 2.09943,9.71477 -0.65023,1.375 -1.10681,2.22223 -2.06021,3.12541 -1.05951,1.00373 -2.84789,1.55518 -4.264933,1.43473 l -0.006,0.0145 c -2.398748,0.0126 -6.176919,-2.76357 -5.076211,-6.1249 0.005,-0.016 0.0092,-0.0315 0.01445,-0.0475 0.0031,-0.008 0.0072,-0.0179 0.01036,-0.0268 0.05483,-0.15753 0.119102,-0.31707 0.196112,-0.47686 0.79117,0.0556 1.551635,-0.46765 1.835198,-1.22621 0.331312,0.22395 0.885794,0.34175 1.814554,0.28074 7.24399,-1.72589 -0.399805,-9.58346 -4.595219,-3.74677 -2.631888,-0.3869 -4.218202,1.2266 -4.935836,3.57543 -0.729249,-5.16789 -8.102988,-3.48582 -8.397733,0.67504 -4.12503,1.74291 -3.081406,9.55293 -0.243593,12.54499 5.243381,11.49082 21.451741,10.03786 25.335651,3.90161 2.75739,-0.842 6.34956,-5.638 5.77808,-8.49476 3.79753,-2.51663 3.45764,-15.44436 0.58422,-22.918296 5.35826,2.152846 10.20536,8.677096 8.63719,12.658526 -0.83859,2.12908 -3.14091,3.80745 -5.03493,4.38672 -3.25662,0.99602 -1.07686,7.95656 4.24841,6.49235 10.06688,-2.76791 14.86752,-16.20175 15.01189,-24.945476 1.94821,-3.810371 0.48626,-15.653258 -5.88751,-21.083093 -14.38927,-12.258363 -20.27786,2.757199 -30.550164,4.708758 -7.941607,-4.52535 -10.100959,-15.363388 -0.175469,-20.738354 0.64884,-0.04126 1.17014,0.08907 1.87443,-0.251849 1.013833,-0.490756 0.960453,-1.796002 6.913473,-0.916566 -0.55412,-1.660714 -2.15683,-2.454812 -4.22983,-2.054019 -0.68849,-1.366669 -2.278703,-2.110263 -3.909863,-2.151041 z"
     sodipodi:nodetypes="scccccsccssscscccccccccsscccssscccccccccccccccsssccccsccss" /></svg>
