<?xml version="1.0" encoding="UTF-8"?>
<svg id="Layer_1" data-name="Layer 1" xmlns="http://www.w3.org/2000/svg" viewBox="0 0 192 192">
  <defs>
    <style>
      .cls-1 {
        fill: #728dbe;
      }

      .cls-2 {
        fill: #71a372;
      }

      .cls-3 {
        fill: #ff837d;
      }

      .cls-4 {
        fill: #c39a54;
      }

      .cls-5 {
        fill: #f9de81;
      }

      .cls-6 {
        fill: #9abeff;
      }

      .cls-7 {
        fill: #98dc9a;
      }
    </style>
  </defs>
  <circle class="cls-3" cx="39.9" cy="158.25" r="13.75"/>
  <path class="cls-7" d="m108.67,65.6H42.08c-8.69,0-15.92,7.24-15.92,15.92s7.24,15.92,15.92,15.92h65.87c8.69,0,15.92-7.24,15.92-15.92.72-8.69-6.51-15.92-15.2-15.92Z"/>
  <circle class="cls-2" cx="42.08" cy="81.52" r="15.92"/>
  <path class="cls-5" d="m72.48,107.58h-31.12c-7.96,0-15.2,6.51-15.2,14.48s6.51,15.2,15.2,15.2h31.12c7.96,0,15.2-6.51,15.2-15.2-.72-7.96-7.24-14.48-15.2-14.48Z"/>
  <circle class="cls-4" cx="72.48" cy="122.06" r="15.2"/>
  <path class="cls-6" d="m148.48,20H43.52c-9.41,0-17.37,7.96-17.37,17.37s7.96,17.37,17.37,17.37h104.95c9.41,0,17.37-7.96,17.37-17.37s-7.96-17.37-17.37-17.37Z"/>
  <circle class="cls-1" cx="148.48" cy="37.37" r="17.37"/>
</svg>