<svg xmlns="http://www.w3.org/2000/svg" id="svg2" width="192" height="192" version="1.1"><g id="layer1" transform="translate(0 -860.362)"><g id="g1067" transform="translate(-659.454 76.105)"><path id="path1052" d="m842.954 850.597-39.773 29.83v63.33h29.773c5.54 0 10-4.46 10-10v-1.931z" style="fill:#97db99;fill-opacity:1;fill-rule:evenodd;stroke:none;stroke-opacity:1"/><path id="path1054" d="M667.954 850.597v83.16c0 5.54 4.46 10 10 10H707.728v-63.33Z" style="fill:#99bdfe;fill-opacity:1;fill-rule:evenodd;stroke:none;stroke-opacity:1"/><path id="path1056" fill="#fbbc04" d="M803.182 828.723v51.704l39.772-29.83V834.69c0-14.756-16.843-23.168-28.636-14.319" style="fill:#f8dd7f;fill-opacity:1;stroke-width:1.98864"/><path id="path1058" fill="#ea4335" d="M707.727 880.427v-51.704l47.727 35.795 47.728-35.795v51.704l-47.728 35.796" style="fill:#fe827c;fill-opacity:1;stroke-width:1.98864"/><path id="path1060" fill="#c5221f" d="M667.954 834.689v15.909l39.773 29.83v-51.705l-11.136-8.353c-11.813-8.849-28.637-.437-28.637 14.319" style="fill:#b96460;fill-opacity:1;stroke-width:1.98864"/></g></g><style id="style853" type="text/css">.st0{fill:#fff}</style></svg>