<svg id="Camada_1" data-name="Camada 1" xmlns="http://www.w3.org/2000/svg" viewBox="0 0 192 192"><defs><style>.cls-1{fill:#fff;isolation:isolate;}.cls-2{fill:#98dc9a;}.cls-3{fill:#f9de81;}.cls-4{fill:#9abeff;}.cls-5{opacity:0.05;}</style></defs><path id="rect2" class="cls-1" d="M29.9,20H162a9.86,9.86,0,0,1,9.9,9.9V162a9.86,9.86,0,0,1-9.9,9.9H29.9A9.86,9.86,0,0,1,20,162V29.9A9.86,9.86,0,0,1,29.9,20Z"/><polygon class="cls-2" points="135.09 70.22 125.63 70.22 124.43 70.22 124.08 71.38 121.35 80.44 118.62 71.38 118.27 70.22 117.06 70.22 107.66 70.22 105.27 70.22 106.16 72.45 115.68 96.25 116.08 97.27 117.18 97.27 125.45 97.27 126.55 97.27 126.96 96.25 136.6 72.45 137.5 70.22 135.09 70.22"/><path class="cls-3" d="M108.83,73.67a15.65,15.65,0,0,0-11-3.92c-9.08,0-15.19,5.62-15.19,14s6.11,14,15.19,14a15.65,15.65,0,0,0,11-3.93,14.32,14.32,0,0,0,0-20.14Zm-7.91,10.07a2.93,2.93,0,0,1-3.08,3.08,3.08,3.08,0,1,1,0-6.15A2.93,2.93,0,0,1,100.92,83.74Z"/><path class="cls-4" d="M85.72,71.84V70.22H73.61V71a12.14,12.14,0,0,0-5.52-1.28c-7.38,0-13.16,6.14-13.16,14,0,6.83,4.37,12.37,10.36,13.7l-1,.38L56.14,101l-1.56.6.66,1.54c2.35,5.52,7.39,8.43,14.58,8.43,10.14,0,16-5.93,16-16.26Zm-15,15a3.08,3.08,0,1,1,0-6.15,3.08,3.08,0,1,1,0,6.15Zm3,9.6c-.2,3.92-2.3,4.39-3.89,4.39a3.33,3.33,0,0,1-3.44-2.09l-.48-1.16a13.12,13.12,0,0,0,2.19.18A12.3,12.3,0,0,0,73.71,96.42Z"/><path class="cls-3" d="M123.51,94.69a8.54,8.54,0,0,0-7.22,1v-.93H104.24v27h12.05V109.26c0-3.33,2.35-4,4.33-4a10.2,10.2,0,0,1,2.06.21l1.94.39V95.06Z"/><path class="cls-4" d="M94.2,94.31a11.6,11.6,0,0,0-4.63.93V83.92H88l-8.81-.06H77.52v38h1.61l8.81.06h1.63v-.52a11.43,11.43,0,0,0,4.63.93c7.35,0,13.1-6.15,13.1-14S101.55,94.31,94.2,94.31Zm-2,10.92a3.08,3.08,0,1,1-3.07,3.08A3,3,0,0,1,92.17,105.23Z"/><path class="cls-5" d="M77.52,109.28V83.84h1.63l6.6,0V82.27l-6.58,0H75.9v26.58a6.77,6.77,0,0,0-1-.09,6.26,6.26,0,0,0-5.24,2.84h.17a20.53,20.53,0,0,0,6.08-.86h0l.39-.13c.42-.15.84-.3,1.23-.48v10.55A6.33,6.33,0,0,0,81.21,115,6.24,6.24,0,0,0,77.52,109.28Z"/><path class="cls-4" d="M73.81,109.78a6.27,6.27,0,0,0-6.26,6.27,6.29,6.29,0,1,0,6.26-6.27Z"/></svg>