<?xml version="1.0" encoding="UTF-8"?>
<svg version="1.1" viewBox="0 0 192 192" xml:space="preserve" xmlns="http://www.w3.org/2000/svg">
	 <g transform="matrix(3.0907 0 0 3.0907 -70.899 -71.27)"><path d="m30 57.24c0-13.25 10.75-24 24-24s24 10.75 24 24-10.75 24-24 24-24-10.75-24-24z" fill="#9abeff"/><path d="m71.34 55.16c1.11 0 2.01 0.9 2.01 2 0 2.56-0.5 5.09-1.48 7.44-0.97 2.36-2.4 4.5-4.2 6.3-1.81 1.8-3.95 3.24-6.3 4.22-2.37 0.97-4.9 1.47-7.44 1.47-1.11 0-2.01-0.9-2.01-2 0-1.12 0.9-2.01 2-2.01 2.03 0 4.03-0.4 5.9-1.18 1.87-0.77 3.57-1.9 5-3.34 1.43-1.43 2.57-3.13 3.34-5 0.78-1.86 1.17-3.87 1.17-5.9 0-1.1 0.9-2 2.01-2z" fill="#728dbe" fill-rule="evenodd"/><path d="m30 53.88c0-14.85 12.03-26.88 26.88-26.88h5.28c1.06 0 1.92 0.86 1.92 1.92v28.32c0 5.57-4.51 10.08-10.08 10.08s-10.08-4.51-10.08-10.08 4.51-10.08 10.08-10.08c1 0 1.97 0.15 2.88 0.42v-7.62c-12.63-5.64-26.88 3.6-26.88 17.44z" fill="#54688c" fill-rule="evenodd"/><path d="m51.12 57.24c0-1.6 1.29-2.88 2.88-2.88 1.6 0 2.88 1.29 2.88 2.88 0 1.6-1.29 2.88-2.88 2.88-1.6 0-2.88-1.29-2.88-2.88z" fill="#fff"/></g></svg>
