<?xml version="1.0" encoding="UTF-8"?>
<svg version="1.1" viewBox="0 0 192 192" xmlns="http://www.w3.org/2000/svg">
 <circle class="a" cx="96" cy="96" r="88" style="fill:#fff"/>
 <path d="m95.023 55.437h-0.74598v10.091c-2.7154 0.7609-4.7295 3.2002-4.7295 6.1357 0 0.59492 0.08952 1.1451 0.22566 1.6598l-10.608 5.9622c-0.38418-0.3618-0.81125-0.68257-1.2663-0.96604l-0.01306-0.0093-0.01306-0.0074c-2.568-1.4565-5.731-0.96791-7.7414 0.97537l-8.2188-4.6791-0.64341-0.36553-0.37112 0.63968-0.97723 1.6878-0.37672 0.649 0.65273 0.37299 8.2058 4.6717c-0.71054 2.7135 0.45878 5.6489 3.0268 7.1054l0.0056 0.0018 0.0037 0.0035c0.42148 0.22938 0.84855 0.41588 1.2924 0.55388v12.159c-0.44381 0.13801-0.87088 0.3245-1.2924 0.55576l-0.0037 2e-3 -0.0056 2e-3c-2.568 1.4584-3.7373 4.3919-3.0268 7.1054l-8.2058 4.6717-0.65273 0.37298 0.37672 0.64901 0.97723 1.6878 0.37112 0.63968 0.64341-0.36553 8.2188-4.6791c2.0104 1.9433 5.1734 2.4319 7.7414 0.97536l0.01306-7e-3 0.01306-9e-3c0.45505-0.28347 0.88212-0.60423 1.2663-0.96603l10.608 5.9622c-0.13614 0.51473-0.22566 1.0649-0.22566 1.6598 0 2.9354 2.0141 5.3766 4.7295 6.1357v10.091h3.4464v-10.091c2.7154-0.75903 4.7295-3.2002 4.7295-6.1357 0-0.59119-0.0895-1.1451-0.23871-1.6673 2.2062-1.2271 4.405-2.4636 6.5982-3.6963 1.3428-0.75529 2.6836-1.5087 4.0227-2.2603 0.38418 0.3618 0.81125 0.68444 1.2663 0.96791l0.0131 9e-3 0.0131 7e-3c2.568 1.4565 5.7291 0.9679 7.7414-0.97537l8.2188 4.6791 0.64341 0.36553 0.37298-0.63967 0.97537-1.6878 0.37672-0.649-0.65273-0.37299-8.2058-4.6717c0.71055-2.7135-0.45877-5.6471-3.0268-7.1054l-4e-3 -2e-3 -5e-3 -2e-3c-0.42156-0.23124-0.84863-0.41773-1.2925-0.55574v-12.159c0.44386-0.13801 0.87093-0.3245 1.2924-0.55389l5e-3 -0.0035 4e-3 -0.0018c2.568-1.4565 3.7374-4.3919 3.0268-7.1054l8.2058-4.6717 0.65273-0.37299-0.37672-0.649-0.97537-1.6878-0.37298-0.63968-0.64341 0.36553-8.2188 4.6791c-2.0123-1.9433-5.1734-2.4319-7.7414-0.97537l-0.0131 0.0074-0.0131 0.0093c-0.45504 0.28347-0.88211 0.60611-1.2663 0.96604l-10.621-5.9528c0.14919-0.52218 0.23871-1.0761 0.23871-1.6691 0-2.9354-2.0141-5.3748-4.7295-6.1357v-10.091h-0.74598zm20.802 46.545c-1.6393 0.40282-3.1275 1.4341-4.0469 3.0044-0.88772 1.4845-1.0705 3.2021-0.67512 4.7537l-10.634 5.9883c-1.1693-1.0984-2.7247-1.7717-4.4684-1.7717-1.7437 0-3.2991 0.67325-4.4684 1.7717l-10.634-5.9883c0.39537-1.5516 0.2126-3.2692-0.67511-4.7537-0.91942-1.5703-2.4076-2.6016-4.0469-3.0044v-11.964c1.6393-0.4047 3.1275-1.436 4.0469-3.0063 0.88771-1.4845 1.0705-3.2021 0.67511-4.7537l10.634-5.9883c1.1693 1.0985 2.7247 1.7717 4.4684 1.7717 1.7437 0 3.2991-0.67324 4.4684-1.7717l10.634 5.9883c-0.39537 1.5516-0.2126 3.2692 0.67512 4.7537 0.91942 1.5703 2.4076 2.6016 4.0469 3.0063z" stroke="#000" stroke-width="1.492" style="fill:#56595b;stroke:#56595b"/>
</svg>
