<?xml version="1.0" encoding="UTF-8"?><svg id="a" xmlns="http://www.w3.org/2000/svg" width="192" height="192" viewBox="0 0 192 192"><g id="b"><g id="c"><rect x="19.5" y="19.5" width="153" height="153" rx="10" ry="10" style="fill:#fff;"/><g><path id="d" d="M118.12,86.54c-2.51,0-4.54,1.92-4.54,4.29v52.49l9.46-9.35,9.46,9.35v-52.49c0-2.37-2.03-4.29-4.54-4.29h-9.84Z" style="fill:#96dfd3; fill-rule:evenodd;"/><rect x="59.5" y="59.5" width="18.93" height="18.93" rx="4.54" ry="4.54" style="fill:#56595b;"/><rect x="86.54" y="59.5" width="18.93" height="18.93" rx="4.54" ry="4.54" style="fill:#56595b;"/><rect x="113.57" y="59.5" width="18.93" height="18.93" rx="4.54" ry="4.54" style="fill:#56595b;"/><rect x="59.5" y="86.54" width="18.93" height="18.93" rx="4.54" ry="4.54" style="fill:#56595b;"/><rect x="86.54" y="86.54" width="18.93" height="18.93" rx="4.54" ry="4.54" style="fill:#56595b;"/><rect x="59.5" y="113.57" width="18.93" height="18.93" rx="4.54" ry="4.54" style="fill:#56595b;"/><rect x="86.54" y="113.57" width="18.93" height="18.93" rx="4.54" ry="4.54" style="fill:#56595b;"/></g></g></g><g id="e"/></svg>