<svg xmlns="http://www.w3.org/2000/svg" xml:space="preserve" viewBox="0 0 192 192"><circle cx="96" cy="96" r="88" fill="#fff" class="a"/><path fill="#98dc9a" d="M96 53.39c-23.409 0-42.61 19.201-42.61 42.61S72.591 138.61 96 138.61s42.61-19.201 42.61-42.61c0-1.907-.13-3.785-.377-5.629H117.02c.469 1.792.72 3.677.72 5.629 0 12.13-9.609 21.739-21.739 21.739S74.261 108.129 74.261 96c0-12.13 9.61-21.739 21.74-21.739 6.713 0 12.65 2.947 16.618 7.633h23.568C130.323 65.348 114.473 53.39 96 53.39z" color="#000"/><path fill="#98dc9a" d="M90.947 90.544v16.09h44.637V90.371z"/></svg>