<?xml version="1.0" encoding="UTF-8"?><svg id="a" xmlns="http://www.w3.org/2000/svg" width="192" height="192" viewBox="0 0 192 192"><g id="b"><g id="c"><path id="d" d="m18,32.5h156c5.52,0,10,4.44,10,9.92v107.16c0,5.48-4.48,9.92-10,9.92H18c-5.52,0-10-4.44-10-9.92V42.42c0-5.48,4.48-9.92,10-9.92Z" style="fill:#9abeff;"/><path d="m94.65,68.78v13.98l-17.03,9.01c-1.21.64-3.41,1.21-4.76,1.21h-21.86v-12.35h18.53c1.56,0,3.83-.57,5.18-1.28l19.94-10.58Z" style="fill:#fff;"/><path d="m51,111.44v-12.35h23.14c1.56,0,3.83-.57,5.18-1.28l30.45-16.04c1.21-.64,3.41-1.21,4.76-1.21h26.47v12.35h-23.14c-1.56,0-3.83.57-5.18,1.28l-30.45,16.04c-1.21.64-3.41,1.21-4.76,1.21,0,0-26.47,0-26.47,0Z" style="fill:#fff;"/><path d="m97.35,123.22v-13.91l17.03-9.01c1.21-.64,3.41-1.21,4.76-1.21h21.86v12.35h-18.53c-1.56,0-3.83.57-5.18,1.28l-19.94,10.5Z" style="fill:#fff;"/></g></g></svg>