<svg xmlns="http://www.w3.org/2000/svg" xml:space="preserve" style="fill-rule:evenodd;clip-rule:evenodd;stroke-linejoin:round;stroke-miterlimit:2" viewBox="0 0 192 192"><path d="M164.5 21.5c0-5.519-4.481-10-10-10h-133c-5.519 0-10 4.481-10 10v133c0 5.519 4.481 10 10 10h133c5.519 0 10-4.481 10-10v-133Z" style="fill:#fff" transform="translate(5.576 8)"/><path d="M70.969 35.204s5.147 12.34 21.119 7.833c0 0-8.688 8.564-7.571 33.389 0 0 38.816-4.209 19.949-32.525 0 0 14.696 4.629 17.952-7.501 0 0 10.963 6.093 17.715 0 0 0-4.448 11.303-12.313 5.187 0 0 18.881 27.982-23.354 39.242l27.561 13.598s-.859 5.089-8.555 8.316c-7.695 3.227-19.006 1.862-19.006 1.862s1.455-30.459-23.27-20.927l-9.731 3.078s1.291-37.414-1.787-45.169c0 0-4.171 11.451-14.299-1.686 0 0 8.639 3.842 15.59-4.697" style="fill:#f8c18c" transform="scale(.6444) rotate(-24.31 242.855 9.918)"/><path d="M142.032 86.015H47.235v60.084a21.527 21.527 0 0 0 21.526 21.525h51.745a21.523 21.523 0 0 0 21.526-21.525V86.015Z" style="fill:#9abeff" transform="matrix(.6444 0 0 .6444 32.348 34.79)"/></svg>