<svg xmlns="http://www.w3.org/2000/svg" xml:space="preserve" viewBox="0 0 192 192"><rect width="153" height="153" x="19.5" y="19.5" rx="10" ry="10" style="opacity:1;fill:#99bdfe;fill-opacity:1;fill-rule:evenodd;stroke:none"/><path fill="#87BEFF" d="M.2 192.3V.3"/><g fill="#fafbfc" style="stroke-width:2.01136"><path d="M48 112.4c.9-10.6 4.9-19 8.2-27.7C63.6 65.1 72.7 46.2 83.1 28c1.4-2.4 2.3-6.1 6.1-5.1 3.6.9 3 4.5 3.4 7.3 1.2 8.7 2.4 17.3 3.6 26 .5 3.6 2.1 5.6 6.1 6.2 10.7 1.6 21.4 3.7 32.1 5.5 2.3.4 4.6.8 6.2 3.4C110 84.9 79.5 98.4 48 112.4ZM143.5 80.4c1.3 4.4-.4 8-1.7 11.6-8.4 24.9-19.1 48.7-32.1 71.5l-1.8 3c-1 1.8-2.2 3.4-4.5 3-2.5-.5-3.4-2.5-3.5-4.7-.5-9.3-2.7-18.5-3.7-27.7-.5-4.7-2.5-6.6-7.1-7.2-11.4-1.7-22.6-3.9-34-5.8-1.5-.3-2.6-.6-2.9-2.1-.3-1.6 1.4-1.7 2.2-2.1 29.7-13.2 59.3-26.3 89.1-39.5z" style="stroke-width:4.04559" transform="matrix(.49717 0 0 .49717 48.28 48.198)"/></g></svg>