<?xml version="1.0" encoding="UTF-8"?>
<svg version="1.1" viewBox="0 0 192 192" xmlns="http://www.w3.org/2000/svg">
 <rect class="a" x="20" y="20" width="152" height="152" rx="10" style="fill:#9abeff"/>
 <path d="m56.162 103.66c-2.4288-1.3273-0.93569-3.539 4.1996-6.2209 2.5866-1.3508 2.9499-1.4186 7.6548-1.4269 3.7556-7e-3 4.9393-0.14557 4.9393-0.57955 0-1.3048-1.0882-1.6245-5.529-1.6245-3.6758 0-4.5229-0.12406-4.7418-0.69449-0.72475-1.8887-0.56236-1.9407 5.99-1.9206 7.9267 0.02442 11.015 1.0138 11.391 3.6488 0.1128 0.79129 0.47235 0.96361 2.2471 1.077 2.5624 0.16364 2.6738 1.0814 0.30051 2.4756-1.3592 0.79849-2.4916 0.92705-9.8772 1.1214-4.5881 0.12074-8.589 0.37937-8.8908 0.57474-0.30185 0.19536-0.54882 0.63432-0.54882 0.97548 0 0.49833 1.1868 0.64429 6.037 0.74243l6.037 0.12215v2.1953l-9.0006 0.097c-7.3152 0.0788-9.2267-0.0265-10.208-0.56284zm21.514-0.0755c-0.90554-0.37152-1.6464-0.81624-1.6464-0.98828 0-0.17203 0.75451-0.65303 1.6767-1.0689 1.59-0.71697 1.7603-0.71622 3.2929 0.0146 0.88891 0.42389 1.6162 0.89509 1.6162 1.0471 0 0.24265-2.9518 1.8243-3.198 1.7136-0.05217-0.0235-0.83577-0.34664-1.7413-0.71816zm9.5494 0.35103-3.5124-0.24878 1.5367-0.87811c1.2975-0.74141 2.6026-0.91227 8.3847-1.0976 4.8886-0.15671 7.0556-0.39193 7.5736-0.82209 0.53601-0.44509 0.72567-1.3344 0.72567-3.4027v-2.8001h3.7457c2.9245 0 3.8011 0.14439 3.9984 0.65858 0.21121 0.55041 1.5047 0.65858 7.8754 0.65858 7.075 0 7.6023-0.0552 7.3392-0.76834-0.4694-1.2722-1.0377-1.4132-5.7259-1.4202l-4.5003-7e-3v-2.7131l6.6956 0.15352c7.6926 0.17638 9.4257 0.7064 10.634 3.2521 0.67038 1.4127 0.84338 1.5028 2.8878 1.5028 2.4218 0 2.6338 0.29491 1.1868 1.6504-1.8179 1.7029-3.0871 1.862-14.856 1.862h-11.396l-0.46706 1.0251c-1.5063 3.306-8.4141 4.3658-22.125 3.3947zm3.2869-9.3591c-0.0035-2.7166-0.12724-5.3919-0.27542-5.9451-0.26777-0.99963-0.24559-1.005 3.6282-0.8781l3.8976 0.12768 0.12621 4.0593c0.07471 2.4027-0.07414 4.4337-0.36471 4.9767-0.61482 1.1488-3.691 2.5765-5.5789 2.5892l-1.4269 0.01z" style="fill:#fff;stroke-width:.43905"/>
</svg>
