<svg xmlns="http://www.w3.org/2000/svg" xml:space="preserve" style="fill-rule:evenodd;clip-rule:evenodd;stroke-linejoin:round;stroke-miterlimit:2" viewBox="0 0 192 192"><circle cx="88" cy="88" r="88" style="fill:#ff837d" transform="translate(8 8)"/><path d="M71.884 134.681h-17.02c-11.666 0-21.137-9.471-21.137-21.136V71.272c0-11.666 9.471-21.137 21.137-21.137h82.272c11.666 0 21.137 9.471 21.137 21.137v42.273c0 11.665-9.471 21.136-21.137 21.136h-17.02l-20.873 20.143a4.67 4.67 0 0 1-6.486 0l-20.873-20.143Z" style="fill:#fff" transform="translate(19.733 13.342) scale(.79445)"/><path d="M98.001 43.585c.293-1.458-.184-2.951-1.303-4.081-1.12-1.131-2.768-1.783-4.504-1.783h-12.87c-2.87 0-5.323 1.761-5.807 4.17L52.331 147.252c-.293 1.457.183 2.95 1.303 4.081 1.119 1.13 2.767 1.782 4.503 1.782h12.871c2.87 0 5.322-1.761 5.806-4.17l21.187-105.36Z" style="fill:#ff837d" transform="matrix(.27489 0 0 .3228 56.818 58.013)"/><path d="M98.001 43.585c.293-1.458-.184-2.951-1.303-4.081-1.12-1.131-2.768-1.783-4.504-1.783h-12.87c-2.87 0-5.323 1.761-5.807 4.17L52.331 147.252c-.293 1.457.183 2.95 1.303 4.081 1.119 1.13 2.767 1.782 4.503 1.782h12.871c2.87 0 5.322-1.761 5.806-4.17l21.187-105.36Z" style="fill:#ff837d" transform="matrix(.27489 0 0 .3228 69.527 58.013)"/><path d="M75.006 155.731c0-1.445-.427-2.616-.953-2.616H55.79c-.527 0-.954 1.171-.954 2.616v4.153c0 1.445.427 2.616.954 2.616h18.263c.526 0 .953-1.171.953-2.616v-4.153Z" style="fill:#ff837d" transform="matrix(1.69872 0 0 .61903 -24.99 -16.712)"/><path d="M75.006 155.731c0-.694-.102-1.359-.283-1.85-.181-.49-.427-.766-.684-.766H55.803c-.256 0-.502.276-.683.766-.182.491-.284 1.156-.284 1.85v4.153c0 .694.102 1.359.284 1.85.181.49.427.766.683.766h18.236c.257 0 .503-.276.684-.766.181-.491.283-1.156.283-1.85v-4.153Z" style="fill:#ff837d" transform="matrix(1.67525 0 0 .61903 -25.911 -1.943)"/><text x="117.808" y="105.607" style="font-family:&quot;MicrosoftSansSerif&quot;,&quot;Microsoft Sans Serif&quot;,sans-serif;font-size:41.032px;fill:#ff837d;stroke:#ff837d;stroke-width:4.03px" transform="translate(17.052 16.782) scale(.79445)">1</text></svg>