<svg xmlns="http://www.w3.org/2000/svg" xml:space="preserve" viewBox="0 0 192 192"><defs><clipPath id="b"><path fill="#474559" stroke="#353544" stroke-linecap="round" stroke-width="3" d="M493.41 98.821c3.237 1.869 18.688 28.632 18.688 32.369 0 3.738-15.452 30.501-18.688 32.369-3.237 1.869-34.14 1.869-37.377 0-3.237-1.869-18.688-28.632-18.688-32.369 0-3.738 15.452-30.501 18.688-32.369 3.237-1.869 34.14-1.869 37.377 0z" color="#000" style="isolation:auto;mix-blend-mode:normal;paint-order:stroke markers fill"/></clipPath><clipPath id="a"><path fill="#333fa4" fill-opacity=".52" d="M368.01-162.76c1.643.949 9.487 14.535 9.487 16.432s-7.844 15.484-9.487 16.432c-1.643.949-17.331.949-18.974 0-1.643-.949-9.487-14.535-9.487-16.432 0-1.897 7.844-15.484 9.487-16.432 1.643-.949 17.331-.949 18.974 0z" color="#000" style="isolation:auto;mix-blend-mode:normal;paint-order:stroke markers fill" transform="matrix(8.52 0 0 8.5298 -1513 1530)"/></clipPath></defs><path fill="#f8c18c" d="m1424.6 79.705-39.855 69.031 39.855 69.033h79.715l39.855-69.033-39.855-69.031zm229.86 130.02-39.856 69.033 39.856 69.035h79.711l39.858-69.035-39.858-69.033zm-229.08 130.17-39.857 69.035 39.857 69.033h79.713l39.857-69.033-39.857-69.035z" clip-path="url(#a)" color="#000" style="isolation:auto;mix-blend-mode:normal;paint-order:stroke markers fill" transform="matrix(.53241 0 0 .53241 -726.06 -54.034)"/><path fill="#83868c" stroke="#56595b" stroke-linecap="round" stroke-linejoin="round" stroke-width="8.0009048" d="M132.705 30.925c6.513 3.76 37.606 57.616 37.606 65.136 0 7.522-31.095 61.377-37.606 65.136-6.514 3.76-68.7 3.76-75.214 0-6.514-3.76-37.606-57.616-37.606-65.136 0-7.521 31.094-61.377 37.606-65.136 6.514-3.76 68.7-3.76 75.214 0z"/><g clip-path="url(#b)" transform="translate(-860.184 -167.95) scale(2.0123)"><path fill="#56595b" d="m461.4 108.54-12.796 22.164 12.796 22.164 43.476 55.562h36.47l18.236-31.678-18.236-31.678-54.353-36.534z"/><path fill="none" stroke="#f8c18c" stroke-linecap="round" stroke-linejoin="round" stroke-width="3.976" d="m487.29 109.42 12.571 21.773-12.571 21.773h-25.142l-12.571-21.773 12.571-21.773z"/></g><text xml:space="preserve" x="103.922" y="61.681" fill="#83868c" stroke-linecap="round" stroke-linejoin="round" stroke-width="17.554" font-family="Now" font-size="66.874" font-weight="bold" transform="rotate(30)"><tspan x="103.922" y="61.681">H</tspan></text></svg>