<svg xmlns="http://www.w3.org/2000/svg" width="192" height="192"><rect width="153" height="153" x="19.5" y="19.5" opacity=".63" rx="10" style="fill:#ba6561;stroke:#b1b5bd;stroke-width:0;stroke-miterlimit:4;stroke-dasharray:none;fill-opacity:1;opacity:1"/><path d="M93.013 132.382c-8.233-.678-16.064-4.198-22.146-9.954-3.115-2.948-5.586-6.314-7.59-10.34-7.072-14.21-3.971-31.588 7.59-42.53 8.695-8.229 20.705-11.691 32.366-9.332 15.41 3.119 27.102 15.786 28.99 31.407 1.568 12.986-3.964 25.831-14.492 33.652-7.06 5.243-16.013 7.814-24.718 7.097zm5.975-6.948c2.47-.27 4.106-.628 6.464-1.41 4.228-1.403 7.733-3.53 10.988-6.666 4.473-4.31 7.207-9.24 8.6-15.511.336-1.515.392-2.319.401-5.765.012-4.51-.243-6.219-1.447-9.69-3.042-8.766-9.867-15.55-18.542-18.43-4.024-1.335-7.903-1.812-11.81-1.453-2.947.271-4.472.584-7.093 1.454-8.642 2.868-15.512 9.696-18.542 18.43-1.204 3.47-1.46 5.18-1.448 9.69.012 4.467.21 5.784 1.416 9.386 2.908 8.692 9.894 15.67 18.575 18.556 4.21 1.4 8.296 1.862 12.438 1.409z" style="fill:#fff;fill-opacity:1;stroke:none;stroke-width:.177955"/><path d="M47.507 93.687h96.986v4.627H47.507z" style="fill:#ba6561;fill-opacity:1;stroke:#8c72bd;stroke-width:0;stroke-miterlimit:4;stroke-dasharray:none"/><circle cx="96" cy="96" r="30.214" style="fill:#56595b;fill-opacity:1;stroke:#8c72bd;stroke-width:0;stroke-miterlimit:4;stroke-dasharray:none"/><circle cx="96" cy="96" r="8.091" style="fill:#fff;fill-opacity:1;stroke:#8c72bd;stroke-width:0;stroke-miterlimit:4;stroke-dasharray:none"/></svg>