<svg xmlns="http://www.w3.org/2000/svg" viewBox="0 0 192 192"><rect x="19.5" y="19.5" width="153" height="153" rx="10" style="fill:#71a372"/><path d="M114.34,88.85h0a3,3,0,0,0,.57-.08l2.64,42.88.72,0-2.56-43.19c.41-.15,1.15-.59.7-1.17a.63.63,0,0,0,0-.86c.42-.25.42-.55,0-.9a.36.36,0,0,0,.17-.34c0-.45-.41-.67-1.1-.64.06-.22.49-.79.25-.94.09-.31,0-.45-.26-.43-.1,0-.22.08-.34.3-.32,0-1,.06-.87.54-.48.12-.76.19-.82.22-.32.13-.46.71-.67,1-.8,1.42-3,1.06-4.42.94a14.25,14.25,0,0,1-4.44-.88c0-.7,0-1.62.1-2.32.06-.88-.1-3.27-.1-3.27a6.76,6.76,0,0,0,.26-3.34c.38.14.08-.38-.12-.73,0-.43-.19-.63-.35-1a10.33,10.33,0,0,0-1.25-2.45.47.47,0,0,0,0-.3c0-.21-.17-.06-.2-.29.31-3.16,2.24-1.37,2.43-2.53,0-.25-.3-.7.07-.87s-.29-.51.19-.84-.15-.77.33-.87c.65-.13.63-.51.3-1-.18-.24-.74-.88-.64-1.2s.34-.3.35-.5-.09-.54-.09-.79a3.9,3.9,0,0,0,1.9-.5,1.4,1.4,0,0,0,.63-1.58c-.16-.41-2.88-.1-3.16-.09-.06-.07-.82-.54-1-.68a5.24,5.24,0,0,0-1.43-.55,7.79,7.79,0,0,0-2.8-.08c-1.58.14-3.34,2.71-2.88,4.21a2.65,2.65,0,0,1,0,.76,5.61,5.61,0,0,0,.59,2.2c.4.8,1.32.76.75,3.41-.38-.08.17.29-.69.72,0,0-1,.38-1,.41a2,2,0,0,0-.51-1c-.78-1-.11-2.4-.71-3.09a3.73,3.73,0,0,0-3-.58c-1.33.18-5.53,1.7-5.79,3.47-.54.8-.93.59-1.09,3.72-.06,1,.41,3.35,1.54,3.23,0,.3.28.68,0,.88a.59.59,0,0,0-.1.92A23.79,23.79,0,0,1,88,84.55c.06,1.42.23,3.67.21,4.85,0,2.75.69,3.32.83,3.52a3.92,3.92,0,0,0,2.91.41c0,.23.1.57.41.68l0,0h0c-.41,1.75.07,2.23.82,4.26-.15.38-3.89,7.94-3.89,7.94-.19.39-1.66,3.13-2.32,4.47l-.57.41s-3.13,1.29-7.21,5.49c-3.46,3.57-4,4.17-4,4.17s.22.15.16.22a6.76,6.76,0,0,0-1.63,1.51s-.4.6.5,1.71l1.48,1.21.33-.07s2.27,3.17,2.71,3.8v0a5.39,5.39,0,0,0,2.66,1.21c.24.06.93.47,1.15-.46a3.59,3.59,0,0,0,.18-.64,1.48,1.48,0,0,0-.65-1.55l-.71-.55c-.23-.42-.52-1-.83-1.59,0,0-.71-1.63-.47-1.83,0,.11.22.22.22.22l1-1.21,1.4-1.17,4.5-3.51.84-.8.09,0,.12-.23,3.91-3.69,0,0a16.94,16.94,0,0,0,2-1.73c.1,0,2.59-3.33,2.61-3.46a9.58,9.58,0,0,0,1.58-2.84c.11-.36.79.62.93,1,1,2.3,1.93,4.57,2.1,4.78a15,15,0,0,0,.93,2.51v.55a34.44,34.44,0,0,0,.33,9.82c.81,4.91,1,5.66,1,5.66s.25-.08.28,0a6.8,6.8,0,0,0,.24,2.21s.24.68,1.67.62l1.85-.47.14-.31h3.52c.34,0,2.4-.35,2.69-.43s1.05-.05.78-1a3.39,3.39,0,0,0-.16-.65,1.46,1.46,0,0,0-1.32-1s-1.2-.16-2.62-.41c0,0-1.73-.39-1.75-.7a.66.66,0,0,0,.31,0l-.37-1.54-.1-1.82-.15-5.71-.71-5.28c0-1,.38-1.73,0-2.7a55.16,55.16,0,0,0-4.17-13.32c-.24-.51.13-.69-.5-1.18,0-.14-.08-.26-.12-.37a8,8,0,0,0,0-1.75c0-.16.82-.54.74-.53a32.41,32.41,0,0,0-.43-3.28c3.32.47,5.93-1.15,9.16-1.47a4.89,4.89,0,0,0,1.54.29c-.24,0-.58,0,.15,0" style="fill:#fefefe;fill-rule:evenodd"/></svg>