<?xml version="1.0" encoding="UTF-8"?>
<svg version="1.1" viewBox="0 0 192 192" xmlns="http://www.w3.org/2000/svg">
 <rect class="a" x="20" y="20" width="152" height="152" rx="10" style="fill:#bd9aff"/>
 <path d="m79.717 61.083c-12.367 0-22.323 9.9557-22.323 22.323v10.465c0 11.623 8.7942 21.113 20.118 22.214 1.5847 1.0779 2.9144 2.2692 3.0625 3.9855v8.1198c0.52386 2.6193 2.0256 3.3527 4.5052 2.2002l19.832-14.406c10.919-1.4736 19.286-10.777 19.286-22.113v-10.465c0-12.367-9.9568-22.323-22.324-22.323z" style="fill:#fff;stroke-linecap:round;stroke-linejoin:round;stroke-width:2.9423"/>
 <rect x="69.364" y="69.883" width="43.376" height="37.299" ry="11.315" style="fill:#bd9aff;stroke-linecap:round;stroke-linejoin:round;stroke-width:2.6822"/>
 <path transform="matrix(.53643 0 0 .53643 172.04 47.881)" d="m-52.417 43.26-26.234 20.987a8.6492 8.6492 115.67 0 0-3.2461 6.7539v8.7314a11.591 11.591 65.823 0 0 3.8884 8.6615l26.066 23.18a4.4791 4.4791 155.77 0 0 7.4556-3.3546l-0.10409-61.207a4.8167 4.8167 25.621 0 0-7.8257-3.753z" style="fill:#fff;stroke-linecap:round;stroke-linejoin:round;stroke-width:5"/>
 <text x="90.996231" y="96.995262" style="fill:#ffffff;font-family:Now;font-size:22.307px;font-weight:bold;stroke-linecap:round;stroke-linejoin:round;stroke-width:5.9751;text-align:center;text-anchor:middle" xml:space="preserve"><tspan x="90.996231" y="96.995262" style="stroke-width:5.9751">Hi</tspan></text>
</svg>
