<?xml version="1.0" encoding="UTF-8"?><svg id="a" xmlns="http://www.w3.org/2000/svg" width="192" height="192" viewBox="0 0 192 192"><defs><style>.k{fill:#ff837d;}.k,.l{fill-rule:evenodd;stroke-width:0px;}.l{fill:#728dbe;}</style></defs><g id="b"><g id="c"><g id="d"><path id="e" class="l" d="m172.88,71.98c-65.76-7.69-94.12-53.76-94.12-53.76,0,0,1.03-.61,17.71-10.21,31.2,41.9,76.41,44.09,76.41,44.09,0,0-.03,5.72,0,19.89h0Z"/><path id="f" class="l" d="m172.44,105.52C84.8,97.29,49.37,34.6,49.37,34.6c0,0-1.61.64,17.04-9.65,41.71,58.66,106.47,61.01,106.47,61.01v19.55h-.44Z"/><path id="g" class="l" d="m19.99,51.86s-6.68,4.08,17.12-10.03c54.3,78.91,135.77,78.2,135.77,78.2v19.64s-94.68-.92-152.89-87.8Z"/></g><path id="h" class="k" d="m172.88,85.96v19.55s-64.76,2.35-106.47,61.01c-18.65-10.3-17.04-9.65-17.04-9.65,0,0,35.42-62.68,123.07-70.91h.44Z"/><path id="i" class="k" d="m172.88,52.09v19.89s-81.47-.96-135.77,77.95c-23.8-14.11-17.12-10.03-17.12-10.03C78.2,53.01,172.88,52.09,172.88,52.09Z"/><path id="j" class="k" d="m172.88,120.02c-.03,14.16,0,19.64,0,19.64,0,0-45.21,2.44-76.41,44.34-16.68-9.6-17.71-10.21-17.71-10.21,0,0,28.36-46.07,94.12-53.76h0Z"/></g></g></svg>