<?xml version="1.0" encoding="UTF-8"?>
<svg version="1.1" viewBox="0 0 192 192" xmlns="http://www.w3.org/2000/svg">
 <defs>
  <clipPath id="clipPath5">
   <rect class="a" x="20" y="20" width="152" height="152" rx="10" style="fill:#fff"/>
  </clipPath>
 </defs>
 <rect class="a" x="20" y="20" width="152" height="152" rx="10" style="fill:#fff"/>
 <path d="m99.09 173.55s-5.9314-12.34-7.4489-18.957c-3.4476-15.034 4.1847-32.936 20.278-40.969 6.5314-3.2601 13.673-6.3176 20.278-8.4881 27.804-9.1378 42.21 12.145 42.21 12.145" clip-path="url(#clipPath5)" style="fill:none;stroke-linecap:round;stroke-linejoin:round;stroke-width:6.1496;stroke:#9abeff"/>
 <circle cx="108.52" cy="83.267" r="9.2176" style="fill:#9abeff"/>
 <circle cx="120.98" cy="148.49" r="11.141" style="fill:#9abeff"/>
 <path d="m147.81 119.63 5.8761 1.5745-3.1593 11.791 13.597-0.8557 0.73154 6.145-22.093 2.4873z" style="fill:#9abeff"/>
 <path d="m107.86 90.363 4.0538 23.263 5.8221-1.9013-4.9014-23.556z" style="fill:#9abeff"/>
</svg>
