<svg xmlns="http://www.w3.org/2000/svg" width="192" height="192"><path d="M50.781-207.948h94.427v91.699H50.781z" style="fill:#fff;fill-opacity:1"/><path d="m83.77-93.2-12.063-8.809-14.854-2.341c-8.17-1.288-14.878-2.366-14.907-2.396-.03-.03-1.107-6.741-2.396-14.913l-2.343-14.858-8.853-12.143-8.854-12.143 8.854-12.147 8.853-12.147 2.341-14.853c1.288-8.17 2.366-14.877 2.396-14.906.03-.03 6.741-1.108 14.913-2.396l14.858-2.343 12.143-8.853L96-237.301l12.142 8.853 12.143 8.853 14.858 2.343c8.172 1.288 14.883 2.367 14.913 2.396.03.029 1.108 6.737 2.396 14.906l2.34 14.853 8.854 12.147 8.854 12.147-8.854 12.143-8.853 12.143-2.343 14.858c-1.289 8.172-2.367 14.883-2.396 14.913-.03.03-6.737 1.108-14.906 2.396l-14.853 2.34-12.1 8.82c-6.656 4.851-12.16 8.816-12.231 8.81-.072-.006-5.559-3.974-12.193-8.82zm25.602-39.605.087-14.206 14.87-.087 14.872-.086V-174.427h-29.908v-28.911H81.71v28.904l-14.704.087-14.705.086-.087 13.538-.087 13.539 14.709.086 14.708.087.087 14.206.087 14.207h27.567z" style="fill:#71a372;fill-opacity:1;stroke-width:1"/><path d="M43.983 41.81h108.621v105.484H43.983z" style="fill:#fff;fill-opacity:1;stroke-width:1.15033"/><path d="m81.932 173.81-13.877-10.135-17.087-2.693c-9.398-1.48-17.114-2.721-17.148-2.756-.033-.035-1.274-7.754-2.756-17.155l-2.695-17.091-10.185-13.969L8 96.042 18.184 82.07 28.37 68.097l2.693-17.086c1.48-9.397 2.721-17.113 2.756-17.147.035-.033 7.754-1.274 17.155-2.756l17.091-2.695 13.968-10.184L96 8.045l13.968 10.184 13.968 10.184 17.091 2.695c9.4 1.482 17.12 2.723 17.155 2.756.035.034 1.275 7.75 2.756 17.147l2.693 17.086 10.185 13.973L184 96.042l-10.184 13.97-10.185 13.968-2.695 17.091c-1.482 9.4-2.723 17.12-2.756 17.155-.034.035-7.75 1.275-17.147 2.756l-17.086 2.693-13.92 10.146c-7.655 5.58-13.986 10.14-14.068 10.134-.083-.007-6.395-4.572-14.027-10.146zm29.45-45.56.1-16.342 17.106-.1 17.107-.099V80.37h-34.404V47.114H79.562v33.25l-16.915.1-16.916.1-.1 15.573-.1 15.573 16.92.1 16.92.1.1 16.341.1 16.342h31.712z" style="fill:#71a372;fill-opacity:1;stroke-width:1.15033"/></svg>