<?xml version="1.0" encoding="UTF-8"?><svg id="a" xmlns="http://www.w3.org/2000/svg" viewBox="0 0 192 192"><g id="b"><g id="c"><circle cx="96" cy="96" r="88" style="fill:#ff837d;"/><rect x="69.2" y="48.71" width="53.6" height="94.59" rx="10.53" ry="10.53" transform="translate(-14.72 17.44) rotate(-9.64)" style="fill:#56595b;"/><rect x="71.65" y="53.03" width="48.71" height="85.94" rx="9.57" ry="9.57" transform="translate(-14.72 17.44) rotate(-9.64)" style="fill:#9abeff;"/><path d="M93.47,131.25l16.05-2.67" style="fill:none; stroke:#56595b; stroke-linecap:round; stroke-linejoin:round; stroke-width:3.46px;"/><rect x="79.55" y="49.86" width="17.94" height="8.8" rx="2.57" ry="2.57" transform="translate(-7.2 14.05) rotate(-8.72)" style="fill:#56595b;"/><path d="M56.69,76.57v18.04h-4.6v-7.03h-6.49v7.03h-4.6v-18.04h4.6v7h6.49v-7h4.6Z" style="fill:#fff; stroke:#56595b; stroke-miterlimit:10; stroke-width:1.1px;"/><path d="M59.4,85.59c0-5.11,4.12-9.26,9.26-9.26s9.26,4.15,9.26,9.26-4.15,9.26-9.26,9.26-9.26-4.15-9.26-9.26ZM73.41,85.59c0-2.74-2.04-4.75-4.75-4.75s-4.78,2.01-4.78,4.75,2.04,4.75,4.78,4.75,4.75-2.01,4.75-4.75Z" style="fill:#fff; stroke:#56595b; stroke-miterlimit:10; stroke-width:1.1px;"/><path d="M92.05,80.57h-4.42v14.04h-4.57v-14.04h-4.42v-4h13.41v4Z" style="fill:#fff; stroke:#56595b; stroke-miterlimit:10; stroke-width:1.1px;"/><path d="M117.15,76.57l-4.72,18.04h-5.38l-2.83-11.48-2.86,11.48h-5.38l-4.69-18.04h4.87l2.77,11.87,3.19-11.87h4.18l3.19,11.87,2.8-11.87h4.87Z" style="fill:#98dc9a; stroke:#56595b; stroke-miterlimit:10; stroke-width:1.1px;"/><path d="M118.44,76.57h4.6v18.04h-4.6v-18.04Z" style="fill:#98dc9a; stroke:#56595b; stroke-miterlimit:10; stroke-width:1.1px;"/><path d="M131.22,80.57v3.04h5.56v3.97h-5.56v7.03h-4.6v-18.04h11.18v4h-6.58Z" style="fill:#98dc9a; stroke:#56595b; stroke-miterlimit:10; stroke-width:1.1px;"/><path d="M144.42,80.57v3.04h5.56v3.97h-5.56v3.04h6.58v4h-11.18v-18.04h11.18v4h-6.58Z" style="fill:#98dc9a; stroke:#56595b; stroke-miterlimit:10; stroke-width:1.1px;"/><path d="M56.69,97.39v18.04h-4.6v-7.03h-6.49v7.03h-4.6v-18.04h4.6v7h6.49v-7h4.6Z" style="fill:#ff837d; stroke:#56595b; stroke-miterlimit:10; stroke-width:1.1px;"/><path d="M59.4,106.41c0-5.11,4.12-9.26,9.26-9.26s9.26,4.15,9.26,9.26-4.15,9.26-9.26,9.26-9.26-4.15-9.26-9.26ZM73.41,106.41c0-2.74-2.04-4.75-4.75-4.75s-4.78,2.01-4.78,4.75,2.04,4.75,4.78,4.75,4.75-2.01,4.75-4.75Z" style="fill:#ff837d; stroke:#56595b; stroke-miterlimit:10; stroke-width:1.1px;"/><path d="M92.05,101.39h-4.42v14.04h-4.57v-14.04h-4.42v-4h13.41v4Z" style="fill:#ff837d; stroke:#56595b; stroke-miterlimit:10; stroke-width:1.1px;"/><path d="M106.35,111.43v4h-10.34v-18.04h4.6v14.04h5.74Z" style="fill:#fff; stroke:#56595b; stroke-miterlimit:10; stroke-width:1.1px;"/><path d="M110.17,97.39h4.6v18.04h-4.6v-18.04Z" style="fill:#fff; stroke:#56595b; stroke-miterlimit:10; stroke-width:1.1px;"/><path d="M136,97.39v18.04h-4.84l-8.12-11.06v11.06h-4.6v-18.04h4.81l8.15,11.03v-11.03h4.6Z" style="fill:#fff; stroke:#56595b; stroke-miterlimit:10; stroke-width:1.1px;"/><path d="M144.42,101.39v3.04h5.56v3.97h-5.56v3.04h6.58v4h-11.18v-18.04h11.18v4h-6.58Z" style="fill:#fff; stroke:#56595b; stroke-miterlimit:10; stroke-width:1.1px;"/></g></g></svg>