<svg xmlns="http://www.w3.org/2000/svg" data-name="Layer 1" viewBox="0 0 192 192"><path d="M124.56 171.34a14.83 14.83 0 0 0-2 0c-4.79.69-8.83-1.11-12.74-3.61a19.69 19.69 0 0 0-22 .16 18.36 18.36 0 0 1-12 3.48c-2.66-.2-5.35 0-8-.06a11.84 11.84 0 0 1-9.49-4.92 198.64 198.64 0 0 1-13.43-19.34 185.87 185.87 0 0 1-12-23.87c-.57-1.35-1.08-2.72-1.73-4A9.54 9.54 0 0 0 21 113.74c-4.9.7-7.16-.75-8.21-5.56a52.15 52.15 0 0 1-1.51-9.4c-.13-4.23-.57-8.5.55-12.73.57-2.16.58-4.46.95-6.68.72-4.37 3.72-6.37 8.04-5.64 5.39 1 8.05-.35 10.48-5.35 1.87-3.83 3.64-7.7 5.48-11.54a13.82 13.82 0 0 0 .56-9 25.83 25.83 0 0 0-6.73-12.93 36.11 36.11 0 0 1-3.26-4c-1.62-2.19-1.35-3.52 1.1-4.75a49.26 49.26 0 0 1 14.31-4.78c8.42-1.38 16.88-1.55 24.38 3.02 3.55 2.16 6.33 1.93 9.91.69a66 66 0 0 1 26.69-3.49 72.48 72.48 0 0 1 40.6 15.76 80.09 80.09 0 0 1 13.89 14.78c2 2.61 3.23 2.82 5.88 1a7.64 7.64 0 0 0 .62-.51c3-2.44 2.93-2.84-.63-4.35-4.29-1.83-6.92-4.81-7.14-9.66a6.38 6.38 0 0 1 4-6.7c2.87-1.3 5.72-1.34 8.29.67 2.84 2.22 4.76 5 4.61 8.83a14.9 14.9 0 0 0 .06 2c.1 1.05.63 1.34 1.62.89 2.65-1.19 3.46-3.6 3.83-6.13a17.07 17.07 0 0 0-.36-3.93 9.92 9.92 0 0 1 0-1.09c.29.2.74.34.85.62 2.73 6.75-.25 12.67-4.77 14.74a4.21 4.21 0 0 0-2.24 2.57c-1.53 3.78-3.81 7-7.69 8.79-1.45.66-1.59 1.43-.9 2.79a62.26 62.26 0 0 1 6 18.47 76.76 76.76 0 0 1 .52 21.42c-1.67 13.65-7.11 25.75-13.78 37.5-5.39 9.51-11.75 18.36-18.15 27.19-2 2.8-5 3.86-8.33 4.07-2 .12-4 0-6 0Zm44.51-129.42a6.64 6.64 0 0 0-2.1-5.25 3.54 3.54 0 0 0-3.72-.6c-1.34.42-1.5 1.65-1.53 2.91-.07 2.87 1.83 4.23 4.05 5.26 2.52 1.16 3.33.57 3.3-2.32Z" style="fill:#9abeff"/><path d="M98.7 43.87a49.75 49.75 0 1 0 49.74 49.74A49.75 49.75 0 0 0 98.7 43.87Zm23.58 86.61-3.35-5.8-3.45 2 3.36 5.8a43.58 43.58 0 0 1-18.15 4.87v-6.71h-4v6.71a43.5 43.5 0 0 1-18.15-4.87l3.35-5.8-3.45-2-3.35 5.8a43.92 43.92 0 0 1-13-12.88l33.56-19.87a5.12 5.12 0 1 0-2.09-4.12 5.2 5.2 0 0 0 .07.69l-33.58 19.88A43.61 43.61 0 0 1 55 95.6h6.71v-4H55a43.58 43.58 0 0 1 4.87-18.15l5.8 3.36 2-3.45L61.83 70a44.07 44.07 0 0 1 13.28-13.26l3.35 5.81 3.45-2-3.35-5.81a43.49 43.49 0 0 1 18.15-4.86v6.7h4v-6.7a43.58 43.58 0 0 1 18.15 4.86l-3.36 5.81 3.45 2 3.35-5.81A44.1 44.1 0 0 1 135.57 70l-5.81 3.35 2 3.45 5.81-3.36a43.58 43.58 0 0 1 4.86 18.15h-6.7v4h6.7a43.49 43.49 0 0 1-4.86 18.15l-5.81-3.35-2 3.45 5.81 3.35a44.07 44.07 0 0 1-13.29 13.29Z" style="fill:#fff"/></svg>