<?xml version="1.0" encoding="UTF-8" standalone="no"?>
<svg
   xml:space="preserve"
   width="192"
   height="192"
   version="1.1"
   id="svg1575"
   sodipodi:docname="hubspot.svg"
   inkscape:version="1.2.2 (b0a8486541, 2022-12-01)"
   xmlns:inkscape="http://www.inkscape.org/namespaces/inkscape"
   xmlns:sodipodi="http://sodipodi.sourceforge.net/DTD/sodipodi-0.dtd"
   xmlns="http://www.w3.org/2000/svg"
   xmlns:svg="http://www.w3.org/2000/svg"><defs
     id="defs1579" /><sodipodi:namedview
     id="namedview1577"
     pagecolor="#505050"
     bordercolor="#eeeeee"
     borderopacity="1"
     inkscape:showpageshadow="0"
     inkscape:pageopacity="0"
     inkscape:pagecheckerboard="0"
     inkscape:deskcolor="#505050"
     showgrid="false"
     inkscape:zoom="1.125"
     inkscape:cx="-316.44444"
     inkscape:cy="198.22222"
     inkscape:window-width="1912"
     inkscape:window-height="1054"
     inkscape:window-x="0"
     inkscape:window-y="0"
     inkscape:window-maximized="1"
     inkscape:current-layer="svg1575" /><rect
     class="a"
     x="20"
     y="20"
     width="152"
     height="152"
     rx="10"
     style="fill:#f8c18c"
     id="rect674" /><path
     id="path2130"
     style="fill:#ffffff;fill-opacity:1;stroke:none;stroke-width:7.99999;stroke-linecap:round;stroke-linejoin:round;stroke-opacity:0.404616;stop-color:#000000"
     d="m 66.32252,56 a 8.418977,8.418977 0 0 0 -8.41915,8.41915 8.418977,8.418977 0 0 0 8.41915,8.41914 8.418977,8.418977 0 0 0 4.14295,-1.11272 l 25.30334,19.76439 a 20.866724,20.866724 0 0 0 -3.40525,11.40525 20.866724,20.866724 0 0 0 3.8544,12.00441 l -7.56144,7.56232 a 6.9286484,6.9286484 0 0 0 -2.07368,-0.31943 6.9286484,6.9286484 0 0 0 -6.92875,6.92875 6.9286484,6.9286484 0 0 0 6.92875,6.92874 6.9286484,6.9286484 0 0 0 6.92874,-6.92874 6.9286484,6.9286484 0 0 0 -0.31855,-2.0728 l 7.49349,-7.4935 a 20.866724,20.866724 0 0 0 12.54357,4.25678 20.866724,20.866724 0 0 0 20.86654,-20.86653 20.866724,20.866724 0 0 0 -17.64042,-20.61328 v -9.21774 a 7.6737219,7.6737219 0 0 0 4.46592,-6.96933 7.6737219,7.6737219 0 0 0 -7.67351,-7.67351 7.6737219,7.6737219 0 0 0 -7.6735,7.67351 7.6737219,7.6737219 0 0 0 4.46591,6.96845 v 9.2248 a 20.866724,20.866724 0 0 0 -9.94573,4.43944 L 74.42488,66.67725 A 8.418977,8.418977 0 0 0 74.74167,64.41915 8.418977,8.418977 0 0 0 66.32252,56 Z m 46.90757,36.19413 a 10.700482,10.700482 0 0 1 10.7002,10.70108 10.700482,10.700482 0 0 1 -10.7002,10.7002 10.700482,10.700482 0 0 1 -10.7002,-10.7002 10.700482,10.700482 0 0 1 10.7002,-10.70108 z" /></svg>
