<?xml version="1.0" encoding="UTF-8" standalone="no"?>
<svg
   xmlns:dc="http://purl.org/dc/elements/1.1/"
   xmlns:cc="http://creativecommons.org/ns#"
   xmlns:rdf="http://www.w3.org/1999/02/22-rdf-syntax-ns#"
   xmlns:svg="http://www.w3.org/2000/svg"
   xmlns="http://www.w3.org/2000/svg"
   xmlns:sodipodi="http://sodipodi.sourceforge.net/DTD/sodipodi-0.dtd"
   xmlns:inkscape="http://www.inkscape.org/namespaces/inkscape"
   viewBox="0 0 192 192"
   version="1.1"
   id="svg16"
   sodipodi:docname="hyper_front.svg"
   inkscape:version="0.92.4 (5da689c313, 2019-01-14)">
  <metadata
     id="metadata20">
    <rdf:RDF>
      <cc:Work
         rdf:about="">
        <dc:format>image/svg+xml</dc:format>
        <dc:type
           rdf:resource="http://purl.org/dc/dcmitype/StillImage" />
        <dc:title></dc:title>
      </cc:Work>
    </rdf:RDF>
  </metadata>
  <sodipodi:namedview
     pagecolor="#ffffff"
     bordercolor="#666666"
     borderopacity="1"
     objecttolerance="10"
     gridtolerance="10"
     guidetolerance="10"
     inkscape:pageopacity="0"
     inkscape:pageshadow="2"
     inkscape:window-width="1920"
     inkscape:window-height="1017"
     id="namedview18"
     showgrid="true"
     inkscape:zoom="8.3352865"
     inkscape:cx="78.752464"
     inkscape:cy="112.68632"
     inkscape:window-x="-8"
     inkscape:window-y="-8"
     inkscape:window-maximized="1"
     inkscape:current-layer="svg16"
     inkscape:snap-global="false">
    <inkscape:grid
       type="xygrid"
       id="grid827"
       spacingx="4"
       spacingy="4" />
  </sodipodi:namedview>
  <defs
     id="defs4">
    <style
       id="style2">.a{fill:none;stroke:#b1b5bd;stroke-linecap:round;stroke-linejoin:round;isolation:isolate;opacity:0.63;}</style>
  </defs>
  <circle
     class="a"
     cx="96"
     cy="96"
     r="88"
     id="circle8"
     style="fill:#56595b;stroke:none;opacity:1" />
  <g
     id="g874"
     transform="matrix(0.31827952,0,0,0.31827952,140.87616,58.218137)"
     style="fill:#ffffff">
    <path
       sodipodi:nodetypes="ccccccccc"
       inkscape:connector-curvature="0"
       id="path829"
       d="m -149.48496,-11.952199 5.75865,89.499024 h 5.5187 l 2.87933,-51.827853 c 0,0 10.71473,0.343794 22.55472,4.318988 -0.1872,-0.133132 5.99858,-19.435445 5.99858,-19.435445 -17.01987,-5.4343037 -27.11364,-4.7988752 -27.11364,-4.7988752 l 1.19972,-17.9957818 z"
       style="fill:#ffffff" />
    <path
       inkscape:connector-curvature="0"
       id="path831"
       d="m -109.6543,30.517847 6.47848,-18.475669 6.958371,2.639381 -7.678201,18.47567 z"
       style="fill:#ffffff;stroke:none;stroke-width:1px;stroke-linecap:butt;stroke-linejoin:miter;stroke-opacity:1" />
    <path
       inkscape:connector-curvature="0"
       id="path833"
       d="m -102.45599,37.236273 6.238541,-12.956963 10.077638,5.998594 -7.6782,11.757244 z"
       style="fill:#ffffff;stroke:none;stroke-width:1px;stroke-linecap:butt;stroke-linejoin:miter;stroke-opacity:1" />
    <path
       sodipodi:nodetypes="ccccccccc"
       inkscape:connector-curvature="0"
       id="path835"
       d="m -153.80395,25.958916 c 0.73113,0.0062 -1.91955,-19.6753887 -1.91955,-19.6753887 0,0 -49.09917,5.5691157 -75.82223,45.5893147 l 15.83629,11.517301 c 10.1248,-14.692068 22.79465,-22.31477 22.79465,-22.31477 l -2.15949,-3.359213 11.99719,-7.6782 1.91955,4.798875 c 0,0 13.22344,-7.097292 27.35359,-8.877919 z"
       style="fill:#ffffff" />
    <path
       sodipodi:nodetypes="ccccccccc"
       inkscape:connector-curvature="0"
       id="path837"
       d="m -65.151691,5.1978858 -53.784079,79.4036232 1.86633,1.357327 30.370184,-42.755797 c 0,0 8.287445,5.246653 22.904892,25.110548 l 17.64525,-11.028282 C -59.111598,37.329974 -74.822645,26.74545 -74.822645,26.74545 L -61.07971,7.9125396 Z"
       style="fill:#ffffff;stroke:none;stroke-width:1px;stroke-linecap:butt;stroke-linejoin:miter;stroke-opacity:1" />
    <path
       sodipodi:nodetypes="ccccccccccc"
       inkscape:connector-curvature="0"
       id="path839"
       d="m -266.33758,63.87003 11.03742,-21.115051 80.6211,53.507459 -3.35921,5.278762 -55.66696,-25.194094 -2.63938,7.678201 7.91815,2.399437 c 0,0 -14.55868,41.765506 6.95837,77.981726 l -16.79607,10.07764 c -30.14195,-51.15444 -6.71842,-101.016329 -6.71842,-101.016329 z"
       style="fill:#ffffff;stroke:none;stroke-width:1px;stroke-linecap:butt;stroke-linejoin:miter;stroke-opacity:1" />
    <path
       inkscape:connector-curvature="0"
       id="path841"
       d="m -260.57893,189.60056 2.87933,4.55893 78.70155,-51.82785 z"
       style="fill:#ffffff;stroke:none;stroke-width:1px;stroke-linecap:butt;stroke-linejoin:miter;stroke-opacity:1" />
    <path
       inkscape:connector-curvature="0"
       id="path843"
       d="m -226.50691,176.40366 10.07764,-7.43826 3.8391,4.31899 -10.31759,7.6782 z"
       style="fill:#ffffff;stroke:none;stroke-width:1px;stroke-linecap:butt;stroke-linejoin:miter;stroke-opacity:1" />
    <path
       sodipodi:nodetypes="ccccc"
       inkscape:connector-curvature="0"
       id="path845"
       d="m -229.02632,188.40084 15.23643,-12.47707 c 0,0 7.78305,9.0884 17.63586,16.1962 0.0262,-0.18885 -12.23713,16.31618 -12.23713,16.31618 -11.83724,-7.88785 -20.63516,-20.03531 -20.63516,-20.03531 z"
       style="fill:#ffffff;stroke:none;stroke-width:1px;stroke-linecap:butt;stroke-linejoin:miter;stroke-opacity:1" />
    <path
       inkscape:connector-curvature="0"
       id="path847"
       d="m -211.87034,216.95415 45.70928,-63.22518 -40.19058,67.30423 z"
       style="fill:#ffffff;stroke:none;stroke-width:1px;stroke-linecap:butt;stroke-linejoin:miter;stroke-opacity:1" />
    <path
       sodipodi:nodetypes="ccccscccccccccccsccc"
       inkscape:connector-curvature="0"
       id="path849"
       d="m -192.07498,206.87651 -7.43826,11.39733 10.07764,5.03882 1.31969,-3.11927 c 24.81772,11.69012 47.61237,11.87008 64.2026,9.12751 16.59023,-2.74258 26.97603,-8.40768 26.97603,-8.40768 l 3.719128,7.91815 5.038819,-2.75936 -3.8391,-6.71842 c 9.518363,-4.33215 17.755838,-10.91744 17.755838,-10.91744 l -11.757244,-16.19621 c 0,0 -7.027252,5.64694 -14.396621,8.39804 l -21.23503,-41.75022 19.55542,48.58861 -8.03812,3.35922 -1.91955,-5.39874 c 0,0 -8.97284,3.4764 -22.51713,4.43478 -13.54429,0.95838 -31.66005,-0.60125 -49.94588,-10.67332 l -5.03882,8.87792 z"
       style="fill:#ffffff;stroke:none;stroke-width:1px;stroke-linecap:butt;stroke-linejoin:miter;stroke-opacity:1" />
    <path
       sodipodi:nodetypes="cccccccc"
       inkscape:connector-curvature="0"
       id="path851"
       d="m -95.257674,157.08818 43.549793,29.873 -6.118566,3.8391 22.914629,15.59635 -15.95626,9.95766 -24.23432,-29.39311 4.43896,-2.87932 z"
       style="fill:#ffffff;stroke:none;stroke-width:1px;stroke-linecap:butt;stroke-linejoin:miter;stroke-opacity:1" />
    <path
       sodipodi:nodetypes="ccccc"
       inkscape:connector-curvature="0"
       id="path853"
       d="m -62.625322,166.44599 c 7.125676,-11.58576 10.317582,-24.59424 10.317582,-24.59424 l 19.79536,5.39874 c 0,0 -3.581018,16.77374 -12.836991,29.873 z"
       style="fill:#ffffff;stroke:none;stroke-width:1px;stroke-linecap:butt;stroke-linejoin:miter;stroke-opacity:1" />
    <path
       sodipodi:nodetypes="ccccccccccccccc"
       inkscape:connector-curvature="0"
       id="path855"
       d="m -102.33602,127.69507 0.83981,-2.27946 50.628132,11.15738 c 0,0 5.434938,-26.62516 -4.318988,-51.70788 l 9.717723,-3.719129 -3.719128,-7.318284 -56.146839,26.753733 -1.55964,-2.759357 75.582289,-44.269624 5.158791,8.757947 -13.796767,6.478482 c 19.021224,35.334062 9.117863,71.503242 9.117863,71.503242 l 15.596345,3.47918 -0.959775,3.8391 z"
       style="fill:#ffffff;stroke:none;stroke-width:1px;stroke-linecap:butt;stroke-linejoin:miter;stroke-opacity:1" />
    <path
       sodipodi:nodetypes="ccccc"
       inkscape:connector-curvature="0"
       id="path857"
       d="m -27.233617,51.033039 5.038819,9.117863 4.558931,-2.159494 -5.278762,-9.717723 z"
       style="fill:#ffffff;stroke:none;stroke-width:1px;stroke-linecap:butt;stroke-linejoin:miter;stroke-opacity:1" />
  </g>
</svg>
