<svg xmlns="http://www.w3.org/2000/svg" width="192" height="192"><circle cx="96" cy="96" r="88" opacity=".63" style="fill:#728dbe;font-variant-east_asian:normal;opacity:1"/><path d="m107.72 111.58-11.723.42-10.832.174s1.032 7.11.89 10.682C85.624 133.78 77.45 146.3 77.45 146.3s-8.535-1.26-11.87.888c-2.941 1.894-5.046 9.2-5.046 9.2l-8.902 1.484s-8.372-5.908-12.76-4.748c-2.96.782-5.121 2.001-6.732 3.354a87.998 87.998 0 0 0 63.857 27.52 87.998 87.998 0 0 0 65.062-28.897 32.372 32.372 0 0 0-2.3-.79c-3.318-.99-7.174-.998-10.386.297-1.364.55-3.264 2.967-3.264 2.967l-8.605-.89s-2.133-12.39-14.244-16.914c-3.308-1.236-10.387 2.076-10.387 2.076s-4.681-10.634-5.342-16.32c-.539-4.635 1.187-13.947 1.187-13.947z" style="fill:#9abeff"/><path d="m96 108-6.975 1.799s2.853 18.29 1.485 27.3c-1.109 7.304-7.715 20.774-7.715 20.774s-6.017-1.259-8.31.297c-2.236 1.516-3.264 7.42-3.264 7.42l-4.451 1.185s-6.255-4.383-9.793-4.154c-3.319.214-7.436 1.932-8.606 5.045-.247.656.032 1.614.408 2.476A87.996 87.996 0 0 0 96 184a88.003 88.003 0 0 0 48.887-14.91c-2.064-2.112-3.22-5.58-6.006-6.468-4.493-1.432-13.947 2.375-13.947 2.375s1.52-4.363.594-6.233c-1.5-3.025-5.333-4.509-8.605-5.342-3.361-.855-10.387.594-10.387.594s-5.015-12.216-5.64-18.695c-.848-8.808 2.67-26.412 2.67-26.412z" style="fill:#e0f4e0"/><path d="M96 44C72 60 76.6 84 76.6 84s-6.799 4-6.799 8c0 16 10.2 28 10.2 28s0-8 6.5-8c5.5 0 9.5 8 9.5 8s4-8 9.5-8c6.5 0 6.5 8 6.5 8s10.198-12 10.198-28c0-4-6.799-8-6.799-8S120 60 96 44z" style="fill:#ff837d;stroke-linecap:round;stroke-linejoin:round;stroke-width:8;stroke:#ff837d"/><path d="m75.227 93.796 4.197 16.787" style="fill:#fff;stroke-linecap:round;stroke-linejoin:round;stroke-width:6;stroke:#ba6561"/><circle cx="96" cy="68" r="8" style="fill:#fff;paint-order:stroke fill markers"/><path d="m116.77 93.796-4.197 16.787" style="fill:#fff;stroke-linecap:round;stroke-linejoin:round;stroke-width:6;stroke:#ba6561"/><circle cx="146" cy="110" r="6" style="fill:#9abeff;paint-order:stroke fill markers"/><circle cx="46" cy="74" r="6" style="fill:#9abeff;paint-order:stroke fill markers"/><circle cx="48" cy="112" r="4" style="fill:#9abeff;opacity:.5;paint-order:stroke fill markers"/><circle cx="144" cy="80" r="4" style="fill:#9abeff;opacity:.5;paint-order:stroke fill markers"/><circle cx="122" cy="46" r="6" style="fill:#9abeff;opacity:.25;paint-order:stroke fill markers"/></svg>