<svg xmlns="http://www.w3.org/2000/svg" width="192" height="192"><path d="m76 144 4 17.594c8.213 6.334 13.914 9.82 13.914 9.82a4 4 0 0 0 4.172 0s5.7-3.486 13.914-9.82L116 144z" style="fill:#96dfd3;paint-order:stroke fill markers"/><path d="M76 76h40v40H76z" style="fill:#b1b5bd;paint-order:stroke fill markers"/><path d="M76 112h40v32H76z" style="fill:#a3cac8;paint-order:stroke fill markers;stroke-width:1.118"/><path d="M48 76h32v40H48z" style="fill:#d4bba5;paint-order:stroke fill markers;stroke-width:1.118"/><path d="M76 48h40v32H76z" style="fill:#b7a8de;paint-order:stroke fill markers"/><path d="M112 76h32v40h-32z" style="fill:#92a1be;paint-order:stroke fill markers;stroke-width:1.118"/><path d="M48 22.51c-6.122 2.054-11.49 5.324-15.828 9.662-4.339 4.339-7.608 9.706-9.662 15.828H48V22.51z" style="fill:#ff837d;paint-order:stroke fill markers"/><path d="M48 48h32v32H48z" style="fill:#d9a5b2;paint-order:stroke fill markers"/><path d="M80 22.5 76 48h40l-4-25.5c-7.491 2.401-12.961 5.999-16 8.336-3.04-2.337-8.509-5.935-16-8.336z" style="fill:#bd9aff;paint-order:stroke fill markers"/><path d="M64 20c-5.727 0-11.104.867-16 2.51V48h32V22.5A52.221 52.221 0 0 0 64 20z" style="fill:#de8fbe;paint-order:stroke fill markers"/><path d="M21.605 80c2.291 11.522 6.876 22.249 12.668 32L48 116V76z" style="fill:#f8c18c;paint-order:stroke fill markers"/><path d="M22.51 48C20.868 52.895 20 58.273 20 64c0 5.485.576 10.821 1.606 16H48V48H22.51z" style="fill:#fca285;paint-order:stroke fill markers"/><path d="M112 48h32v32h-32z" style="fill:#9c93ce;paint-order:stroke fill markers"/><path d="M128 20a52.22 52.22 0 0 0-16 2.5V48h32V22.51c-4.896-1.643-10.272-2.51-16-2.51z" style="fill:#a586de;paint-order:stroke fill markers"/><path d="M144 76v40l13.727-4c5.792-9.75 10.377-20.478 12.668-32z" style="fill:#728dbe;paint-order:stroke fill markers"/><path d="M144 48v32h26.395c1.03-5.18 1.605-10.515 1.605-16 0-5.727-.867-11.105-2.51-16H144z" style="fill:#7f80be;paint-order:stroke fill markers"/><path d="M144 22.51V48h25.49c-2.054-6.122-5.323-11.489-9.662-15.828-4.339-4.338-9.707-7.608-15.828-9.662z" style="fill:#8c72bd;paint-order:stroke fill markers"/><path d="M48 112v19.168a184.466 184.466 0 0 0 9.133 10.121c.903.928 1.804 1.82 2.705 2.71H80v-32H48z" style="fill:#b6cdae;paint-order:stroke fill markers"/><path d="M34.273 112c4.102 6.906 8.812 13.304 13.727 19.168V112H34.273z" style="fill:#c8cf93;paint-order:stroke fill markers"/><path d="M112 112v32h20.162c.9-.89 1.802-1.783 2.705-2.71A184.54 184.54 0 0 0 144 131.167V112h-32z" style="fill:#95b8d3;paint-order:stroke fill markers"/><path d="M144 112v19.168c4.915-5.864 9.624-12.262 13.727-19.168H144z" style="fill:#86a6df;paint-order:stroke fill markers"/><path d="M59.838 144c7.238 7.156 14.332 13.098 20.162 17.594V144H59.838z" style="fill:#97deb6;paint-order:stroke fill markers"/><path d="M112 144v17.594c5.83-4.496 12.924-10.438 20.162-17.594H112z" style="fill:#98cfe9;paint-order:stroke fill markers"/><path d="m64 48 16 8 16-8-16-8z" style="fill:#cea2c4"/><path d="m32 48 16 8 16-8-16-8z" style="fill:#f09d94"/><path d="m64 80 16 8 16-8-16-8z" style="fill:#c7b3b3"/><path d="m32 80 16 8 16-8-16-8z" style="fill:#ecb694"/><path d="M73.912 20.957 80 24l1.783-.893a52.6 52.6 0 0 0-7.871-2.15z" style="fill:#d293d4"/><path d="M54.189 20.904a46.177 46.177 0 0 0-7.93 2.225l1.74.87 6.19-3.095z" style="fill:#f18898"/><path d="M24.059 44.029c-1.322 2.946-2.327 6.109-3.01 9.445L32 48l-7.941-3.971z" style="fill:#fd9582"/><path d="M20.68 74.34a85.565 85.565 0 0 0 1.984 10.328L32 80l-11.32-5.66z" style="fill:#f9b589"/><path d="m128 48-16 8-16-8 16-8z" style="fill:#af9cdf"/><path d="m160 48-16 8-16-8 16-8z" style="fill:#9587cb"/><path d="m128 80-16 8-16-8 16-8z" style="fill:#a6a9c3"/><path d="m160 80-16 8-16-8 16-8z" style="fill:#8994c0"/><path d="M118.09 20.957a52.594 52.594 0 0 0-7.871 2.15l1.783.893 6.088-3.043z" style="fill:#b291f1"/><path d="M137.81 20.904 144 24l1.74-.87a46.153 46.153 0 0 0-7.93-2.226z" style="fill:#997ccf"/><path d="m167.94 44.029-7.941 3.97 10.95 5.475c-.682-3.336-1.687-6.499-3.01-9.445z" style="fill:#837bbd"/><path d="M171.32 74.34 160 80l9.336 4.668a85.584 85.584 0 0 0 1.984-10.328z" style="fill:#6b82b5"/><path d="m64 112 16 8 16-8-16-8z" style="fill:#b6c6b3"/><path d="m48 104-14.238 7.12c.493.844.994 1.682 1.504 2.513L48 120l16-8-16-8z" style="fill:#ccca99"/><path d="m64 144 16 8 16-8-16-8z" style="fill:#9bdabd"/><path d="M55.83 139.92c.434.455.869.927 1.303 1.373a198.537 198.537 0 0 0 4.111 4.09l2.756-1.38-8.17-4.083z" style="fill:#9fdaa2"/><path d="m128 112-16 8-16-8 16-8z" style="fill:#9fbcc7"/><path d="m144 104-16 8 16 8 12.734-6.367c.51-.83 1.011-1.669 1.504-2.514L144 104z" style="fill:#8caacf"/><path d="m128 144-16 8-16-8 16-8z" style="fill:#97d5d7"/><path d="m136.17 139.92-8.17 4.084 2.756 1.379a198.539 198.539 0 0 0 4.111-4.09c.434-.446.869-.918 1.303-1.373z" style="fill:#96c3ea"/></svg>