<svg xmlns="http://www.w3.org/2000/svg" id="svg2" width="192" height="192" version="1.1"><g id="layer1" transform="translate(0 -860.362)"><rect id="rect1020" width="152" height="152" x="20" y="880.362" rx="9.935" ry="9.935" style="fill:#73ada4;fill-opacity:1;fill-rule:evenodd;stroke:none;stroke-width:.993464;stroke-opacity:1"/><text xml:space="preserve" id="text1117" x="81.298" y="979.122" style="font-style:normal;font-variant:normal;font-weight:500;font-stretch:normal;font-size:65.495px;line-height:1.25;font-family:Now;-inkscape-font-specification:&quot;Now Medium&quot;;letter-spacing:0;word-spacing:0;fill:#fff;fill-opacity:1;stroke-width:1.63736"><tspan id="tspan1115" x="81.298" y="979.122" style="font-style:normal;font-variant:normal;font-weight:500;font-stretch:normal;font-family:Now;-inkscape-font-specification:&quot;Now Medium&quot;;fill:#fff;fill-opacity:1;stroke-width:1.63736">.tv</tspan></text><g id="g1059" style="fill:#fff;fill-opacity:1" transform="matrix(1.03043 0 0 1.03043 -11.633 930.498)"><circle id="circle1022" cx="68.9" cy="25.1" r="9" class="st0" style="fill:#fff;fill-opacity:1"/><g id="g1032" style="fill:#fff;fill-opacity:1"><path id="path1024" d="M49.6 25.1c0 4.9 4 9 9 9v-18c-5 0-9 4.1-9 9z" class="st0" style="fill:#fff;fill-opacity:1"/><path id="path1026" d="M79.3 16.1v18c4.9 0 9-4 9-9s-4.1-9-9-9z" class="st0" style="fill:#fff;fill-opacity:1"/><path id="path1028" d="M68.9 44.4c4.9 0 9-4 9-9H60c0 5 4 9 8.9 9z" class="st0" style="fill:#fff;fill-opacity:1"/><path id="path1030" d="M60 14.8h17.9c0-4.9-4-9-9-9-4.9 0-8.9 4-8.9 9z" class="st0" style="fill:#fff;fill-opacity:1"/></g><g id="g1042" style="fill:#fff;fill-opacity:1"><path id="path1034" d="M50.1 14.8h8.5V6.3c-4.7 0-8.5 3.8-8.5 8.5z" class="st0" style="fill:#fff;fill-opacity:1"/><path id="path1036" d="M79.3 6.3v8.5h8.5c0-4.7-3.8-8.5-8.5-8.5Z" class="st0" style="fill:#fff;fill-opacity:1"/><path id="path1038" d="M50.1 35.4h8.5v8.5c-4.7 0-8.5-3.8-8.5-8.5z" class="st0" style="fill:#fff;fill-opacity:1"/><path id="path1040" d="M79.3 43.9v-8.5h8.5c0 4.7-3.8 8.5-8.5 8.5z" class="st0" style="fill:#fff;fill-opacity:1"/></g><g id="g1057" style="fill:#fff;fill-opacity:1"><g id="g1049" style="fill:#fff;fill-opacity:1"><path id="path1045" d="M89.6 32.8V17.4c2.6 1.6 4.4 4.4 4.4 7.7s-1.8 6.1-4.4 7.7z" class="st0" style="fill:#fff;fill-opacity:1"/><path id="path1047" d="M48.2 17.4v15.4c-2.6-1.6-4.4-4.4-4.4-7.7.1-3.3 1.8-6.1 4.4-7.7z" class="st0" style="fill:#fff;fill-opacity:1"/></g><g id="g1055" style="fill:#fff;fill-opacity:1"><path id="path1051" d="M76.6 4.4H61.2C62.8 1.8 65.6 0 68.9 0s6.2 1.8 7.7 4.4z" class="st0" style="fill:#fff;fill-opacity:1"/><path id="path1053" d="M61.2 45.8h15.4c-1.6 2.6-4.4 4.4-7.7 4.4-3.2 0-6.1-1.8-7.7-4.4z" class="st0" style="fill:#fff;fill-opacity:1"/></g></g></g></g><style id="style853" type="text/css">.st0{fill:#fff}</style></svg>