<?xml version="1.0" encoding="UTF-8"?>
<svg version="1.1" viewBox="0 0 192 192" xmlns="http://www.w3.org/2000/svg">
 <defs>
  <clipPath id="clip2">
   <path d="m307 0h141v184.71h-141z"/>
  </clipPath>
 </defs>
 <g transform="matrix(.90967 0 0 .90967 -247.32 11.987)">
  <g clip-path="url(#clip2)" style="fill:#ff837d">
   <path d="m438.3 80.504c-0.5-0.89844-0.90234-1.6992-1.5-2.3984-3.3008-5-7.5-9-12.5-11.902-3-1.8984-6.4023-3.1992-10-4.0977l-45-12.102c-3.5-0.89844-7-1.3984-10.301-1.3984-6.8008-0.10156-13.301 1.6992-19.699 5.3984-0.60156 0.30078-1.1992 0.69922-1.6992 1.1016-3 1.8984-5.6016 4-7.9023 6.5977-4.1992 4.4023-7.0977 9.9023-8.6992 16.199l-12.102 45c-2.7969 10.5-1.5 20.5 3.9023 29.898 5.3984 9.5 13.398 15.602 24 18.402l45.098 12.098c10.5 2.8008 20.402 1.4023 29.801-4 9.5-5.3984 15.602-13.398 18.5-23.797l12.102-45c2.5-9.7031 1.6992-18.801-2.6992-27.602-0.40234-0.89844-0.80078-1.6992-1.3008-2.3984zm1.5-53.102c-7.5-13-18.5-21.5-33.199-25.398-14.602-3.8984-28.402-2.1016-41.5 5.3984-13 7.6016-21.5 18.703-25.402 33.301-0.59766 2.3008-1.0977 4.5-1.5 6.6992 7.8008-4 15.402-5.7969 22.902-5.5 2.7969-6.7969 7.5977-12.098 14.199-16 8.0977-4.5977 16.699-5.7969 25.801-3.3984 9.0977 2.5 16 7.6992 20.598 15.801 3.8008 6.5977 5.1992 13.5 4.4023 20.801 6.1992 3.3984 11.898 9.0977 17 16.797 0.89844-2.1992 1.6992-4.3984 2.3984-6.7969 3.6992-14.602 1.8984-28.602-5.6992-41.703" style="fill:#ff837d"/>
  </g>
  <path d="m358.4 108.1h34.402c-0.5-5.6992-2-10-4.6992-12.801-2.9023-2.9961-7.1016-4.4961-12.5-4.4961-4.9023 0-9 1.5-12.102 4.4961-3.1992 3.1016-4.8984 7.3008-5.1016 12.801m40.5 24.902h16.902c-2.5 8.8984-7.1992 15.699-14.199 20.398-7 4.8984-15.703 7.3008-26.301 7.3008-12.801 0-22.801-3.9023-30-11.801-7.1992-7.6992-10.801-18.602-10.801-32.898 0-13.602 3.5-24.199 10.5-31.898 7.1992-7.9023 17.199-11.801 30-11.801 13.5 0 24 3.8008 31.398 11.5 7.2031 7.8984 10.801 18.797 10.801 32.898v3.5c0 1.0976-0.0977 1.8008-0.30078 2.1992h-58.398c0.19922 6.6016 1.8984 11.5 5.1016 14.699 2.8984 3.4024 7.2969 5.1016 13.199 5.1016 3.8008 0 7.0977-0.69921 9.8008-2.1992 0.69922-0.20313 1.2969-0.60157 1.8984-1.1016s1.1992-1.1016 1.8984-1.8008c0.20312-0.59765 1.1016-1.5 2.5-2.5 1.2031-1 3.3008-1.5976 6-1.5976" style="fill:#fff"/>
 </g>
</svg>
