<svg viewBox="0 0 192 192" version="1.1" id="svg196" xml:space="preserve" xmlns="http://www.w3.org/2000/svg"><defs id="defs184"><style id="style182"></style></defs><g id="group" transform="matrix(5.1647 0 0 5.1647 34.167 34.024)" style="fill:#98dc9a" fill="#abe87c"><path id="path" d="M11.4 24H6.2c-1 0-2-.2-2.9-.7-1.8-.9-2.8-2.4-3.2-4.4-.1-.5-.1-1.1-.1-1.6V7.8c0-1.1.1-2.2.6-3.2.8-1.9 2.3-2.9 4.3-3.3.6-.1 1.3-.2 1.9-.2H16c.2 0 .3 0 .4-.2.3-.6.9-.9 1.5-.9h4c.1 0 .3 0 .4.1.9.2 1.6.9 1.6 1.8.1 1.3 0 2.7 0 4 0 .2 0 .3-.1.5-.1.5-.4.9-.9 1.2-.2.1-.2.2-.2.4v9.2c0 1.1-.1 2.2-.6 3.2-.8 1.9-2.3 3-4.3 3.3-.6.1-1.3.2-1.9.2-1.4.1-2.9.1-4.5.1zm-9.3-4.4c.1 0 .1-.1.1-.1 1.4-.9 2.7-1.8 4.1-2.7.5-.3 1-.5 1.5-.5.7 0 1.3.3 1.8.8 1.1.9 2.4.9 3.5 0 1.5-1.3 3-2.6 4.6-3.9.9-.8 2.2-.8 3.2-.1.1 0 .1.1.2.1V8H17.9c-1.1-.1-1.8-.8-1.9-1.9-.1-1 0-1.9 0-2.9v-.3H6.6c-.5 0-.9 0-1.4.1-1.6.3-2.8 1.2-3.2 2.9-.2.7-.2 1.4-.2 2V17.8c0 .6.1 1.2.3 1.8zm17.2-16v2.5c0 .5.3.8.8.7.4 0 .7-.3.7-.8V3.5c.1.1.2.2.3.2.3.2.7.2 1 0 .3-.3.3-.7 0-.9l-1.5-1.5c-.3-.3-.7-.3-1 0l-1.5 1.5c-.3.3-.2.7 0 .9.2.3.6.3.9.1.1 0 .2-.1.3-.2z" style="fill:#98dc9a"/><path id="path_1" d="M8 10.7c-1.5 0-2.7-1.2-2.7-2.7 0-1.5 1.2-2.7 2.8-2.7 1.5 0 2.7 1.2 2.7 2.7-.1 1.5-1.3 2.7-2.8 2.7z" style="fill:#98dc9a"/></g></svg>