<svg width="192" height="192" viewBox="0 0 192 192" fill="none" xmlns="http://www.w3.org/2000/svg">
<path opacity="0.63" d="M96 132.5C116.158 132.5 132.5 116.158 132.5 96C132.5 75.8416 116.158 59.5 96 59.5C75.8416 59.5 59.5 75.8416 59.5 96C59.5 116.158 75.8416 132.5 96 132.5Z" stroke="#B1B5BD" stroke-linecap="round" stroke-linejoin="round" stroke-dasharray="10 10"/>
<path d="M162 20H30C24.4772 20 20 24.4772 20 30V162C20 167.523 24.4772 172 30 172H162C167.523 172 172 167.523 172 162V30C172 24.4772 167.523 20 162 20Z" fill="#96DFD3"/>
<path d="M55.1813 84.2519V70.9072L114.882 64.8201L141.103 76.5261L130.567 104.386L112.072 99.0014L55.1813 104.386L52.8401 84.2519H55.1813Z" fill="white"/>
<path d="M122.572 96.32C117.612 96.32 113.972 92.68 113.972 88C113.972 83.32 117.612 79.68 122.572 79.68C127.532 79.68 131.172 83.32 131.172 88C131.172 92.68 127.532 96.32 122.572 96.32ZM122.572 92.8C125.252 92.8 127.372 90.68 127.372 88C127.372 85.32 125.252 83.2 122.572 83.2C119.852 83.2 117.772 85.32 117.772 88C117.772 90.68 119.852 92.8 122.572 92.8Z" fill="#4A4A4A"/>
<path d="M107.488 79.68C110.888 79.68 113.248 82.32 113.248 85.84V96H109.448V86.24C109.448 84.56 108.208 83.2 106.568 83.2C104.848 83.2 103.728 84.68 103.728 86.24V96H99.9284V86.24C99.9284 84.56 98.6884 83.2 97.0484 83.2C95.3284 83.2 94.2084 84.68 94.2084 86.24V96H90.4084V80H94.2084V81.64C95.2084 80.44 96.5684 79.68 98.1684 79.68C99.9684 79.68 101.608 80.68 102.648 82.2C103.688 80.64 105.408 79.68 107.488 79.68Z" fill="#4A4A4A"/>
<path d="M83.8047 79.68C87.2047 79.68 89.5647 82.32 89.5647 85.84V96H85.7647V86.24C85.7647 84.56 84.5247 83.2 82.8847 83.2C81.1647 83.2 80.0447 84.68 80.0447 86.24V96H76.2447V86.24C76.2447 84.56 75.0047 83.2 73.3647 83.2C71.6447 83.2 70.5247 84.68 70.5247 86.24V96H66.7247V80H70.5247V81.64C71.5247 80.44 72.8847 79.68 74.4847 79.68C76.2847 79.68 77.9247 80.68 78.9647 82.2C80.0047 80.64 81.7247 79.68 83.8047 79.68Z" fill="#4A4A4A"/>
<path d="M61.5222 96V72H65.4422V96H61.5222Z" fill="#4A4A4A"/>
<path d="M50.581 128.435C47.221 128.435 44.421 126.58 43.196 123.955L46.136 122.17C46.871 123.955 48.481 125.145 50.616 125.145C52.576 125.145 54.011 124.13 54.011 122.415C54.011 117.97 44.071 119.685 44.071 112.72C44.071 108.94 47.046 106.875 50.336 106.875C52.821 106.875 55.026 108.03 56.356 109.675L53.941 111.88C52.996 110.69 51.736 110.06 50.336 110.06C48.796 110.06 47.501 110.83 47.501 112.475C47.501 116.78 57.441 114.96 57.441 122.415C57.441 126.195 54.361 128.435 50.581 128.435ZM66.6077 128.435C62.2677 128.435 59.0827 125.25 59.0827 121.155C59.0827 117.06 62.2677 113.875 66.6077 113.875C70.3177 113.875 73.1177 116.15 73.8877 119.37H70.4227C69.7577 117.935 68.3227 116.955 66.6077 116.955C64.2627 116.955 62.4077 118.775 62.4077 121.155C62.4077 123.535 64.2627 125.355 66.6077 125.355C68.3227 125.355 69.7577 124.375 70.4227 122.94H73.8877C73.1177 126.16 70.3177 128.435 66.6077 128.435ZM83.0009 128.435C78.6609 128.435 75.4759 125.25 75.4759 121.155C75.4759 117.06 78.6609 113.875 83.0009 113.875C87.3409 113.875 90.5259 117.06 90.5259 121.155C90.5259 125.25 87.3409 128.435 83.0009 128.435ZM83.0009 125.355C85.3459 125.355 87.2009 123.5 87.2009 121.155C87.2009 118.81 85.3459 116.955 83.0009 116.955C80.6209 116.955 78.8009 118.81 78.8009 121.155C78.8009 123.5 80.6209 125.355 83.0009 125.355ZM99.1096 128.435C95.4346 128.435 93.2296 126.335 93.2296 122.975V114.155H96.5196V122.555C96.5196 124.27 97.6046 125.355 99.1096 125.355C100.615 125.355 101.7 124.27 101.7 122.555V114.155H104.99V122.975C104.99 126.335 102.785 128.435 99.1096 128.435ZM116.088 116.955H112.553V123.43C112.553 124.655 113.358 125.425 114.408 125.425H116.018V127.98C115.668 128.225 114.793 128.435 113.988 128.435C111.433 128.435 109.228 126.405 109.228 123.815V116.955H106.918V114.155H109.228V108.415H112.553V114.155H116.088V116.955ZM123.085 125.04H131.695V128.155H116.4L124.905 118.075C127.39 115.17 127.775 114.33 127.775 113.105C127.775 110.9 126.27 109.99 124.66 109.99C122.875 109.955 121.44 111.215 121.58 113.28H118.185C117.975 109.43 121.09 106.84 124.835 106.84C128.37 106.875 131.1 109.22 131.17 112.72C131.205 115.17 130.295 116.535 127.32 120.07L123.085 125.04ZM148.467 120.595V123.745H146.507V128.155H143.147V123.745H133.102L142.272 107.155H146.507V120.595H148.467ZM137.687 120.595H143.147V110.445L137.687 120.595Z" fill="#4A4A4A"/>
</svg>
