<?xml version="1.0" encoding="UTF-8"?>
<svg version="1.1" viewBox="0 0 192 192" xmlns="http://www.w3.org/2000/svg">
 <defs>
  <style>.cls-1 {
        fill: #154f3a;
        stroke: #154f3a;
        stroke-miterlimit: 10;
      }</style>
 </defs>
 <rect class="a" x="20" y="20" width="152" height="152" rx="10" style="fill:#fff"/>
 <g transform="matrix(.082497 0 0 .082497 47.082 53.849)" style="fill:#71a372">
  <path class="cls-1" transform="translate(-25.9,-53.21)" d="m421 56.18c13.17 0 26.36 0.51 39.5-0.09 36.63-1.69 73.29 0.22 109.88-1.16 33.63-1.25 67.25-1.3 100.88-1.17 19.66 0.07 39.33 0 59 0.63 22.25 0.66 44.54 1.39 66.72 3.14 18 1.42 36.11 2 54.16 2.75 17.6 0.73 35.21 1 52.78 2.11 15.94 1 31.92 1.07 47.83 2.12 20.76 1.36 41.69 1.76 62.35 4.83 27.15 4.07 54 10.36 77.57 24.76 31.64 19.32 49.93 48.72 59 84.41a555.44 555.44 0 0 1 11.55 61.87c2.39 17.74 4.09 35.6 5.39 53.48 2.58 35.18 4.09 70.39 5.19 105.65 0.87 27.79 1.33 55.59 2 83.38 1.43 62.47 0.69 124.94 0.53 187.41q-0.15 45.45-2 90.9-1.77 41.82-6.63 83.48c-2.1 18.12-3.77 36.3-5.34 54.49-1.33 15.32-4.78 30.39-9 45.18-5 17.91-10.77 35.58-20.68 51.62-14.69 23.76-35.23 39.92-61.44 49.36-17.85 6.43-36 11.44-54.83 13.76-11.66 1.44-23.4 2.45-35.13 3.12-22.21 1.26-44.4 2.93-66.67 3.37-13.24 0.26-26.5 1.31-39.77 1.84-24.4 1-48.78 2.63-73.18 3.69-11.64 0.5-23.3 0.52-35 1.06-16.62 0.75-33.28 0.4-49.89 1.27-25.13 1.33-50.28 1-75.42 1-53.12 0.14-106.25 0.39-159.35-0.56-25.63-0.46-51.28 0.28-76.87-0.9-23.65-1.09-47.29-0.08-70.92-0.91-17.23-0.61-34.51-1.25-51.65-3-30.7-3.11-61.43-6.37-91.46-13.84-27.31-6.8-51.53-18.87-70.73-40.33-15.64-17.47-24.86-37.8-31.07-60.06-7.17-25.73-11.39-51.84-14.11-78.43q-3.56-34.73-5-69.55c-1.11-25.08-3.26-50.1-4.79-75.16-2.9-47.6-1.64-95.26-2-142.89-0.36-46.82-0.71-93.65 0.47-140.46 0.49-19.45 1.24-38.91 2.69-58.31 2.1-28.37 3.45-56.78 5-85.18 1.13-20.54 2.84-41.08 5-61.54 2.48-23.82 4.22-47.78 11.75-70.81 10.4-31.81 27.2-59.1 55-78.59 15.11-10.56 32.57-15.86 50.11-20.58 19.32-5.19 39-8.23 58.92-10.26 17.8-1.81 35.61-3 53.45-4.18 20.77-1.36 41.55-1.27 62.3-2 17.91-0.72 35.91-0.63 53.91-0.72zm-134.49 356.09a24.92 24.92 0 0 1-1.8 1.9c-17.2 12.54-34.44 25-51.6 37.63-2.08 1.53-3.31 1-5.08-0.43-7.93-6.6-16-13-24-19.57-6.66-5.47-13.89-6-21.4-2.24-9.21 4.59-18.32 9.4-27.43 14.18-7.43 3.9-12.93 14.63-10.78 23.28 3.18 12.8 11.26 23.34 16.57 36.26 4.69-8.49 11.34-12.9 19.42-15.27a66.38 66.38 0 0 1 16.7-2.47c24-0.81 47.91 0.9 71.86 1.41 27.81 0.58 55.45 3 83.14 5.12 31 2.4 61.8 5.47 92.42 11 24.64 4.44 49.2 9.2 73.28 16.15 35.71 10.31 69.2 25.73 101.53 44a408.53 408.53 0 0 1 125.71 109c34.68 45.56 54.48 97.69 61.59 154.57a219.5 219.5 0 0 1-3.83 76.43c-8 35-23 67.14-42.32 97.29-5.16 8-10.14 16.22-15.54 24.87 2.44 0 4.07 0.09 5.68 0a280.86 280.86 0 0 0 66.69-13c25.94-8.23 50.56-19.3 72.42-35.69 27.94-20.99 47.26-48.98 62.75-79.69 24.94-49.5 42-102.12 59.69-154.42 14-41.35 23.53-84 33.5-126.47 9.75-41.55 18.21-83.36 24.07-125.66 3.51-25.36 6.44-50.78 9-76.26 2.62-25.84 5-51.69 5.7-77.66 0.81-28.82-0.25-57.6-2.07-86.35-1.72-27.4-7.17-54-20-78.62-21.42-41.24-60.07-60.87-105.65-55.82-26.07 2.83-49.82 13.07-72.22 26.47-26.2 15.72-49.29 35.63-73 54.6-42 33.49-83.4 67.68-126.54 99.68-26.55 19.72-53.83 38.44-81.23 56.92-42.86 28.91-86.51 56.34-135.37 74.36q-27.53 10.14-55.63 18.44c-1.21 0.35-3 1.7-4-0.27-1.15-2.24 0.92-2.78 2.28-3.61 3.7-2.23 7.29-4.67 11.12-6.63a253.25 253.25 0 0 0 77.22-61.39c1.62-1.88 3.53-3.65 4.19-6.36-15.88 1.62-31.28 3.89-46.73 5.72-23.65 2.8-47.38 3.9-71.13 4.54-13.46 0.36-26.93 0.31-40.41-0.48a362.7 362.7 0 0 0-45.92 0.64 229.4 229.4 0 0 0-28.1 3.7c-17.67 3.42-33.32 11.92-49.4 19.35-3.91 1.81-8 3.43-11.27 6.3-1 0.86-2 1.95-1.43 3.39s2 0.91 3.11 0.83c24.43-1.67 48.83-0.01 74.24 0.33zm-35.86 120c-18.47-0.32-35.91 0.82-53.33 2.08-2 0.15-5.22-0.78-4.44 3.81 3 17.83 6.32 35.62 10.17 53.31 12.35 56.82 28.11 112.7 46 168 13.33 41.38 26.9 82.62 45.77 121.92 15.44 32.13 33.59 62.27 59.21 87.49 25.11 24.73 53.39 44.17 87.53 54.3 29.41 8.7 59.75 10.65 90.14 11.79 35 1.31 69.72-0.09 104-8.7 47.1-11.82 80.57-39.58 101.22-83.36 11.83-25.07 16.81-51.7 18.43-79 1.46-24.84 0.21-49.65-6.1-73.82-12-46.11-33.44-87-68.91-119.64-20-18.41-43-32.39-67.18-44.27-30.57-15-62.88-21.75-97-17.93-23.47 2.64-44.82 11.41-65 23.38-1.18 0.7-2.13 2.29-3.84 0.75-1.53-1.39-0.21-2.52 0.32-3.52 3.79-7.12 5.88-14.78 7.52-22.6 5.35-25.44-5.58-46-29.61-55.74-13.19-5.32-27.17-7.4-41.12-9-20.93-2.44-41.93-4.56-63-5.9-23.92-1.57-47.77-3.8-70.78-3.35zm316.17-208.82c-3.27-3.37-5.94-6.3-8.81-9a1446.8 1446.8 0 0 0-122.85-105c-31.78-24.13-63-49-95.69-71.91-23.47-16.47-49-25.88-78.47-22.54-19.79 2.21-37.18 9.36-51.39 22.71-25.61 24.05-36.61 55.46-37.73 89.54-1.59 50.43-0.6 100.92 1.73 151.36 0.12 2.48 0.7 4.95 1.14 7.88 2.42-2.19 4.28-3.84 6.11-5.51 25.56-23.13 55.84-36.38 89.74-40.39 18.62-2.2 37.55-2.15 56.35-2.24 42.94-0.2 85.89 0.51 128.69-4.06 13.39-1.43 26.86-2.06 40.25-3.32 19.34-1.82 38.65-3.87 58-5.87 4.11-0.4 8.33-1.05 12.93-1.65z" style="fill:#71a372"/>
  <path class="cls-1" transform="translate(-25.9,-53.21)" d="m811.51 271a5.49 5.49 0 0 1 1.31 1c0.85 1.4-0.56 2-1.19 2.9-9.53 12.81-19.18 25.53-28.6 38.43-10.1 13.84-20.11 27.81-28.13 43-14.79 27.94-17.76 57.41-9.7 88 5.48 20.79 16.15 39.25 26 58.08 17.93 34.28 36.37 68.31 48.88 105.12 7.13 21 12.34 42.39 17 64 3.91 18.19 7.62 36.4 9.54 55 2.45 23.6 1.91 47.16 0.11 70.75-0.66 8.47-1.79 16.86-3.19 25.23-0.26 1.57 0.14 3.72-2.26 3.73-2.23 0-1.66-2-1.9-3.39-4.72-28.83-9.47-57.67-17.32-85.87-9.84-35.41-23.21-69.54-37.84-103.2-20.77-47.78-47.92-91.78-77.92-134.26-11.41-16.13-23.91-31.57-32.94-49.28-5.07-9.94-9.26-20.2-9.88-31.6-1-17.75 6-32.09 18.87-43.74 17.41-15.71 36-30 54.49-44.44 24-18.78 48.19-37.23 71.1-57.3 0.94-0.89 1.78-2.04 3.57-2.16z" style="fill:#71a372"/>
  <path class="cls-1" transform="translate(-25.9,-53.21)" d="m424.42 908.68c7.74 8.41 15.86 14.18 25.89 17a40 40 0 0 0 30.8-3.32c3.22-1.72 6.45-3.47 9.48-5.5 19.32-12.94 40.19-15 61.89-7.94 24.06 7.85 46.49 5.68 67.25-9.16 11.64-8.31 18.38-20.45 24.09-33.07a144.61 144.61 0 0 0 12.69-54.51c2.24-59.7-22.72-105.81-70.93-140.06-18.34-13-39.08-20.45-61-24.38a50.16 50.16 0 0 0-36.32 7.26 33.72 33.72 0 0 0-12.94 42.83c13.09 29.71 36.13 47.26 68 52 14.82 2.19 27.81-4.82 39.14-14.3 1.77-1.49 3.28-3.3 5-4.9 0.81-0.76 1.56-1.82 3-0.94 1.85 1.14 0.59 2.37 0 3.37-6 10.62-14 19.37-25 25-9.62 5-20.12 6.48-30.74 7.34-28.49 2.31-52.57 13-69.67 36.81a88.69 88.69 0 0 0-11.15 21.63c-0.87 2.39-1 3.68 2.2 3.42a43.62 43.62 0 0 1 21.36 3.84c8.12 3.61 14.34-0.35 20.14-5.55 1.3-1.17 1.89-4.21 4.52-2.2 2.34 1.79 2.65 7.78 0.73 9.41-6 5.12-7.59 11.62-3.95 17.71 1.91 3.17 5 5.32 8 7.39 8.33 5.69 13.38 18.84 11 28.6-0.29 1.13-0.13 2.46-1.74 2.55s-1.91-1.09-2.19-2.25-0.44-2.29-0.69-3.43c-2.24-10-6.75-13.81-16.91-13.77a4.46 4.46 0 0 1-4.37-2.56c-14.33-23.21-44.25-25.44-65-8.21a44.6 44.6 0 0 0-4.63 5.19c-0.91 1-1.25 3.13-3.3 2.18-2.63-1.21-0.49-3.11 0-4.19 5.66-13.82 12.56-27 19.72-40.14 8.45-15.42 17.32-30.61 23.2-47.32 4-11.28 3.69-22.43 1.06-33.83-3.32-14.39-7.48-28.57-10.63-43-5.8-26.65 11.5-51.78 32.2-62.16 25-12.52 50.42-11.45 75.87-2.71 46 15.79 80.83 45.29 106.3 86.59a199.72 199.72 0 0 1 29 87.12c5.53 57.82-10.75 109-47.75 153.6-12.04 14.56-28.61 22.28-46.04 28.31-28.24 9.75-55.9 6.75-83.28-3.25-1.43-0.52-3.9-0.81-3.33-2.94s2.83-1 4.28-0.7c15.56 2.84 28.26-3.3 39.89-12.69 1.9-1.54 4.15-3.54 2.8-6.31s-4.19-1.79-6.67-1.46c-10.69 1.42-21.39 2.83-32.11 4a34.79 34.79 0 0 1-12.9-0.59c-3-0.79-5.28-2.25-5.84-5.37s1.34-5 3.53-6.7c1.58-1.19 3.43-2 5.05-3.19s4.74-1.65 3.72-4.44c-0.9-2.46-3.66-1.74-5.78-1.71a36.87 36.87 0 0 0-20.82 6.28c-25.56 17.46-59.91-0.34-65.46-27.24a50 50 0 0 1-0.66-13.44z" style="fill:#71a372"/>
 </g>
</svg>
