<svg xmlns="http://www.w3.org/2000/svg" xml:space="preserve" style="fill-rule:evenodd;clip-rule:evenodd;stroke-linejoin:round;stroke-miterlimit:2" viewBox="0 0 192 192"><path d="M164.5 21.5c0-5.519-4.481-10-10-10h-133c-5.519 0-10 4.481-10 10v133c0 5.519 4.481 10 10 10h133c5.519 0 10-4.481 10-10v-133Z" style="fill:#f9de81" transform="translate(8 8)"/><path d="M93.693 108.332c5.013 16.155 19.614 28.398 37.506 30.725a47.91 47.91 0 0 1-6.206.401c-25.154 0-45.576-19.473-45.576-43.458s20.422-43.458 45.576-43.458c2.105 0 4.177.136 6.206.401-20.408 2.654-36.534 18.209-39.033 37.754.599 5.488 3.396 11.256 11.475 14.364-2.986 1.582-6.772 2.618-9.948 3.271Z" style="fill:#fff" transform="translate(21.452 35.26) scale(.67312)"/><path d="M82.149 135.898c1.661 2.365 2.731 6.073 2.731 10.239s-1.07 7.874-2.731 10.239c-1.661-2.365-2.732-6.073-2.732-10.239s1.071-7.874 2.732-10.239Z" style="fill:#fff" transform="matrix(.67312 0 0 1.07002 50.852 -103.447)"/><path d="M82.149 135.898c1.661 2.365 2.731 6.073 2.731 10.239s-1.07 7.874-2.731 10.239c-1.661-2.365-2.732-6.073-2.732-10.239s1.071-7.874 2.732-10.239Z" style="fill:#fff" transform="matrix(.58294 -.33656 .535 .92667 -43.403 -48.559)"/><path d="M82.149 135.898c1.661 2.365 2.731 6.073 2.731 10.239s-1.07 7.874-2.731 10.239c-1.661-2.365-2.732-6.073-2.732-10.239s1.071-7.874 2.732-10.239Z" style="fill:#fff" transform="matrix(.33656 -.58294 .92667 .535 -97.586 46.104)"/><path d="M82.149 135.898c1.661 2.365 2.731 6.073 2.731 10.239s-1.07 7.874-2.731 10.239c-1.661-2.365-2.732-6.073-2.732-10.239s1.071-7.874 2.732-10.239Z" style="fill:#fff" transform="matrix(0 -.67312 1.07002 0 -97.179 155.176)"/><path d="M82.149 135.898c1.661 2.365 2.731 6.073 2.731 10.239s-1.07 7.874-2.731 10.239c-1.661-2.365-2.732-6.073-2.732-10.239s1.071-7.874 2.732-10.239Z" style="fill:#fff" transform="matrix(-.33656 -.58294 .92667 -.535 -42.29 249.43)"/><path d="M82.149 135.898c1.661 2.365 2.731 6.073 2.731 10.239s-1.07 7.874-2.731 10.239c-1.661-2.365-2.732-6.073-2.732-10.239s1.071-7.874 2.732-10.239Z" style="fill:#fff" transform="matrix(-.58294 -.33656 .535 -.92667 52.373 303.614)"/></svg>