<?xml version="1.0" encoding="UTF-8"?>
<svg version="1.1" viewBox="0 0 192 192" xml:space="preserve" xmlns="http://www.w3.org/2000/svg">
	 <rect class="a" x="20" y="20" width="152" height="152" rx="10" fill="#728dbe"/><path d="m56.623 136.55c0.98122-6.8612 4.06-13.487 8.0705-17.368 1.9219-1.86 4.2958-5.1817 5.2754-7.3817 2.2021-4.9456 6.7971-10.5 8.6863-10.5 1.8592 0 1.8302-4.3261-0.0523-7.7997-2.9076-5.3653-2.9453-5.3885-6.0905-3.7568-4.2903 2.2258-4.9541 0.57459-2.5553-6.3568 1.1601-3.3521 2.1092-8.3653 2.1092-11.14 0-6.0155 1.6626-9.565 6.4489-13.767 1.9531-1.7148 3.5511-3.5816 3.5511-4.1484 0-0.5668 0.65264-1.0306 1.4503-1.0306s1.8383-0.69326 2.3125-1.5406c0.52148-0.93183 1.5267-1.2856 2.544-0.89522 0.92498 0.35495 1.5011 0.93571 1.2802 1.2906-0.22089 0.35487 2.2208 0.49456 5.4259 0.31042 7.5102-0.43146 11.89 1.6183 16.764 7.8448 2.0477 2.6161 5.6579 5.9895 8.0227 7.4965 5.3909 3.4354 5.2787 5.7936-0.30899 6.4935-3.4734 0.43509-3.9858 0.82453-3.9476 3 0.0241 1.375 1.2419 4.2627 2.7062 6.4171 2.7338 4.0222 2.7686 5.583 0.12441 5.583-2.0512 0-0.76211 4.0247 1.8859 5.888 1.0849 0.7634 3.0397 3.8009 4.3439 6.75 2.3985 5.4235 4.3966 6.9782 4.3966 3.421 0-2.534 1.3181-3.2683 4.454-2.4812 2.805 0.70402 3.3043 3.1131 1.3963 6.7379-1.4445 2.7443-2.788 3.6495-5.4453 3.6689-2.8478 0.0208-4.8263-2.4963-6.8504-8.7151-2.0452-6.284-5.1225-10.57-5.9373-8.2696-0.29221 0.825-0.66314 2.85-0.82429 4.5-0.28586 2.9269-0.43879 3.0075-6.2771 3.3069-3.7268 0.19113-6.6545 0.91357-7.7612 1.9152-1.6988 1.5374-1.6885 1.6908 0.23412 3.4821 1.1062 1.0306 2.0113 2.8024 2.0113 3.9374 0 1.135 1.1995 4.38 2.6656 7.211 4.4176 8.5305 5.1107 10.006 7.2502 15.434l2.0549 5.2134h-60.093z" fill="#fff"/></svg>
