<?xml version="1.0" encoding="UTF-8"?>
<svg version="1.1" viewBox="0 0 192 192" xmlns="http://www.w3.org/2000/svg" xmlns:xlink="http://www.w3.org/1999/xlink">
 <defs>
  <linearGradient id="linearGradient7" x1="20" x2="172" y1="172" y2="20" gradientUnits="userSpaceOnUse">
   <stop style="stop-color:#f9de81" offset="0"/>
   <stop style="stop-color:#bd9aff" offset="1"/>
  </linearGradient>
  <linearGradient id="linearGradient8" x1="20.379" x2="172.38" y1="172.45" y2="20.453" gradientUnits="userSpaceOnUse">
   <stop style="stop-color:#f9de81" offset="0"/>
   <stop style="stop-color:#bd9aff" offset="1"/>
  </linearGradient>
 </defs>
 <g transform="translate(-.3795 -.453)" style="fill:none">
  <path d="m96.38 20.24c-20.744 0-23.345 0.088-31.492 0.46-8.13 0.37-13.682 1.658-18.54 3.541-5.023 1.948-9.282 4.554-13.528 8.791s-6.858 8.488-8.81 13.5c-1.889 4.847-3.18 10.387-3.55 18.5-0.372 8.128-0.46 10.723-0.46 31.42 0 20.7 0.088 23.295 0.46 31.423 0.37 8.112 1.662 13.652 3.55 18.5 1.952 5.012 4.564 9.262 8.81 13.499s8.505 6.843 13.528 8.791c4.858 1.884 10.41 3.172 18.54 3.542 8.147 0.371 10.748 0.459 31.491 0.459 20.744 0 23.345-0.088 31.492-0.459 8.129-0.37 13.682-1.658 18.54-3.542 5.023-1.948 9.282-4.554 13.528-8.791s6.858-8.487 8.81-13.499c1.888-4.848 3.179-10.388 3.55-18.5 0.372-8.128 0.46-10.723 0.46-31.422 0-20.698-0.088-23.293-0.46-31.422-0.371-8.112-1.662-13.652-3.55-18.5-1.952-5.011-4.564-9.262-8.81-13.499s-8.505-6.843-13.528-8.79c-4.858-1.884-10.411-3.172-18.54-3.543-8.147-0.371-10.748-0.459-31.492-0.459z" clip-rule="evenodd" fill="#ff837d" fill-rule="evenodd" style="fill:url(#linearGradient8)"/>
 </g>
 <circle cx="87.833" cy="100.11" r="27.904" style="fill:#fff"/>
 <circle cx="115.56" cy="80.496" r="16.507" style="fill:#fff"/>
 <path d="m100.03 75.018a16.507 16.507 0 0 0-0.97543 5.4775 16.507 16.507 0 0 0 16.499 16.507 27.904 27.904 0 0 0-15.524-21.985z" style="fill:url(#linearGradient7)"/>
</svg>
