<?xml version="1.0" encoding="UTF-8" standalone="no"?>
<svg
   xml:space="preserve"
   width="192"
   height="192"
   version="1.1"
   id="svg2156"
   sodipodi:docname="intesa_mobile.svg"
   inkscape:version="1.2.2 (b0a8486541, 2022-12-01)"
   inkscape:export-filename="intesa_mobile.png"
   inkscape:export-xdpi="96"
   inkscape:export-ydpi="96"
   xmlns:inkscape="http://www.inkscape.org/namespaces/inkscape"
   xmlns:sodipodi="http://sodipodi.sourceforge.net/DTD/sodipodi-0.dtd"
   xmlns="http://www.w3.org/2000/svg"
   xmlns:svg="http://www.w3.org/2000/svg"><defs
     id="defs2160" /><sodipodi:namedview
     id="namedview2158"
     pagecolor="#505050"
     bordercolor="#eeeeee"
     borderopacity="1"
     inkscape:showpageshadow="0"
     inkscape:pageopacity="0"
     inkscape:pagecheckerboard="0"
     inkscape:deskcolor="#d1d1d1"
     showgrid="false"
     inkscape:zoom="1.2291667"
     inkscape:cx="-23.18644"
     inkscape:cy="97.220336"
     inkscape:window-width="1884"
     inkscape:window-height="1055"
     inkscape:window-x="36"
     inkscape:window-y="0"
     inkscape:window-maximized="1"
     inkscape:current-layer="svg2156" /><rect
     width="152"
     height="152"
     x="20"
     y="20"
     fill="#98dc9a"
     rx="9.935"
     id="rect2148" /><g
     fill="none"
     stroke="#ffffff"
     stroke-linecap="round"
     stroke-linejoin="round"
     stroke-width="5.565"
     id="g2152"
     transform="matrix(0.85,0,0,0.85,14.399575,14.399841)"><path
       stroke-width="4.17375"
       d="M 75.548,120.534 V 96.103 c 0,-8.586 -6.146,-15.547 -13.728,-15.547 -7.583,0 -13.729,6.96 -13.729,15.547 v 24.43 m 61.635,0.001 V 96.103 c 0,-8.586 -6.147,-15.547 -13.729,-15.547 -7.582,0 -13.729,6.96 -13.729,15.547 v 24.43 m 61.643,0.001 V 96.103 c 0,-8.586 -6.147,-15.547 -13.729,-15.547 -7.582,0 -13.728,6.96 -13.728,15.547 v 24.43"
       id="path2150" /></g><path
     fill="none"
     stroke="#ffffff"
     stroke-linecap="round"
     stroke-width="3.53855"
     d="m 55.269275,75.141691 81.461445,0.2533"
     id="path2154" /></svg>
