<svg xmlns="http://www.w3.org/2000/svg" viewBox="0 0 192 192"><rect width="176" height="127" x="8" y="32.5" fill="#ff837d" rx="10"/><path fill="#fff" d="M70 109V97.64l-9.58 5.64ZM59.5 116.25l9.58-5.65-9.58-5.68ZM76 91.35l5.54 9.82 5.5-9.82ZM83.11 104l5.54 9.83 5.5-9.83ZM90.2 114.78h11.09L95.75 105ZM59.5 101.64 69.08 96l-9.58-5.69v11.33ZM59.5 87.08l9.58-5.64-9.58-5.69v11.33ZM122 101.64l9.58-5.64-9.58-5.69v11.33ZM122 87.08l9.58-5.64-9.58-5.69v11.33ZM110 101.17l5.54-9.82h-11.1l5.55 9.82ZM102.85 92.3l-5.51 9.82h11l-5.54-9.82ZM102.89 113.84l5.5-9.83h-11l5.55 9.83ZM122.92 103.28l9.58 5.72V97.64ZM122 116.25l9.58-5.65-9.58-5.68ZM94.19 102.12l-5.54-9.82-5.5 9.82Z"/></svg>