<svg xmlns="http://www.w3.org/2000/svg" width="192" height="192"><rect width="152" height="152" x="20" y="20" opacity=".63" rx="9.935" style="fill:#fff;stroke:none;stroke-width:.999958;stroke-miterlimit:4;stroke-dasharray:none;opacity:1;fill-opacity:1;stroke-opacity:1"/><g style="stroke:#9abeff;stroke-opacity:1"><path d="M51.52 87.577v43.566h8.418V87.577ZM94.445 67.667v63.476h8.419V67.667ZM65.452 87.577h23.963v8.483l-13.182 24.25h13.182v10.833H65.452v-7.865l12.932-25.01H65.452ZM106.328 87.577l9.957 42.182s5.617 20.27 15.4 21.83l2.04-11.735c-6.253-1.875-8.385-10.095-8.385-10.095l11.177-42.182h-10.013l-5.53 29.973-4.978-29.973z" style="fill:#fff;stroke:#9abeff;stroke-width:17.1;stroke-linecap:butt;stroke-linejoin:round;stroke-miterlimit:4;stroke-dasharray:none;stroke-opacity:1;fill-opacity:1;paint-order:stroke markers fill"/><circle cx="55.715" cy="74.064" r="6.123" style="opacity:1;fill:#fff;fill-opacity:1;stroke:#9abeff;stroke-width:17.1;stroke-miterlimit:4;stroke-dasharray:none;stroke-opacity:1;stroke-linejoin:round;paint-order:stroke markers fill"/></g><g style="fill:#fff;fill-opacity:1;stroke:none"><path d="M51.52 87.577v43.566h8.418V87.577ZM94.445 67.667v63.476h8.419V67.667ZM65.452 87.577h23.963v8.483l-13.182 24.25h13.182v10.833H65.452v-7.865l12.932-25.01H65.452ZM106.328 87.577l9.957 42.182s5.617 20.27 15.4 21.83l2.04-11.735c-6.253-1.875-8.385-10.095-8.385-10.095l11.177-42.182h-10.013l-5.53 29.973-4.978-29.973z" style="fill:#fff;fill-opacity:1;stroke:none;stroke-width:17.1;stroke-linecap:butt;stroke-linejoin:round;stroke-miterlimit:4;stroke-dasharray:none;stroke-opacity:1;paint-order:stroke markers fill"/><circle cx="55.715" cy="74.064" r="6.123" style="opacity:1;fill:#fff;fill-opacity:1;stroke:none;stroke-width:17.1;stroke-linejoin:round;stroke-miterlimit:4;stroke-dasharray:none;stroke-opacity:1;paint-order:stroke markers fill"/></g><path d="M131.457 30.82c13.164 8.718 18.228 22.83 17.534 36.698M123.833 38.93c10.516 6.965 14.562 18.238 14.007 29.316M118.134 46.557c7.552 5.002 10.457 13.097 10.059 21.053M112.674 53.782c4.915 3.256 6.806 8.525 6.547 13.703" style="fill:none;stroke:#9abeff;stroke-width:4.5;stroke-linecap:round;stroke-linejoin:miter;stroke-opacity:1;stroke-miterlimit:4;stroke-dasharray:none"/></svg>