<?xml version="1.0" encoding="UTF-8"?>
<svg version="1.1" viewBox="0 0 192 192" xmlns="http://www.w3.org/2000/svg">
 <path d="m151.86 62.472-9.9109-18.314c-4.1654-6.5354-10.342-9.049-18.529-7.5409-5.8172-4.1654-13.071-6.0327-21.761-5.6018-6.3918-2.1545-12.496-2.0109-18.314 0.43091-6.7509-1.9391-12.927-0.71818-18.529 3.6627-7.9-0.50272-12.927 2.7291-15.082 9.6954l15.944 9.9109 12.62 8.3942 12.588-1.2842 15.103 5.9608 11.398-2.9445 15.409 1.6129 6.7829-3.552z" style="fill:#f9de81;stroke-linecap:round;stroke-linejoin:round;stroke-width:6.2402;stroke:#c39a54"/>
 <path d="m151.86 62.472 8.6181 65.498c-3.7126 2.88-4.4003 6.7683-14.435 7.5409-6.3512 8.6056-14.913 14.632-34.903 7.3254-13.677 4.5118-27.306 9.6274-42.66-7.11-12.899 1.5715-24.886 0.31531-32.103-15.728-6.3309-2.817-13.752-2.7712-15.728-17.021l29.086-58.172c4.6395 6.3412 10.163 8.7034 15.944 9.9109 7.3528 10.419 16.152 9.7515 25.208 7.11 7.9992 3.6477 15.228 9.7336 26.501 3.0163 7.635 2.9208 15.128 3.7069 22.192-1.9391 4.8839 2.2272 8.5002 0.65157 12.281-0.43091z" style="fill:#f9de81;stroke-linecap:round;stroke-linejoin:round;stroke-width:6.2402;stroke:#c39a54"/>
 <path d="m136.11 54.731c2.3727-16.817 24.747-19.732 41.896-6.551-5.6675 0.49834-14.382 5.2624-26.143 14.292-6.8759 0.2634-12.127-2.317-15.752-7.7413z" style="fill:#96dfd3;stroke-linecap:round;stroke-linejoin:round;stroke-width:3.1201;stroke:#73ada4"/>
 <path d="m131.23 57.168c6.1579-7.3674 17.899-10.675 34.431-11.173" style="fill:none;stroke-linecap:round;stroke-linejoin:round;stroke-width:3.1201;stroke:#73ada4"/>
 <path d="m144.89 48.903c5.3694 2.8439 9.3742 6.1187 12.014 9.8244" style="fill:none;stroke-linecap:round;stroke-linejoin:round;stroke-width:1.56;stroke:#73ada4"/>
 <path d="m158.46 46.152c3.3638 2.1943 5.794 4.4603 7.2905 6.7982" style="fill:none;stroke-linecap:round;stroke-linejoin:round;stroke-width:1.56;stroke:#73ada4"/>
 <path d="m153.4 47.027c0.10602-2.8414 1.792-5.0365 5.058-6.5852" style="fill:none;stroke-linecap:round;stroke-linejoin:round;stroke-width:1.56;stroke:#73ada4"/>
 <path d="m144.36 49.068c0.41688-2.065 1.4083-3.8427 2.9743-5.3332" style="fill:none;stroke-linecap:round;stroke-linejoin:round;stroke-width:1.56;stroke:#73ada4"/>
 <path d="m40.431 81.544c-2.1837 7.719-2.7423 15.235-1.6758 22.548" style="fill:none;stroke-linecap:round;stroke-linejoin:round;stroke-width:2.3401;stroke:#c39a54"/>
 <path d="m128.64 106.83c-3.7579 8.8362-10.36 15.235-19.805 19.196" style="fill:none;stroke-linecap:round;stroke-linejoin:round;stroke-width:2.3401;stroke:#c39a54"/>
 <circle cx="39.25" cy="106.57" r="3.4659" style="fill:#c39a54"/>
 <circle cx="106.71" cy="125.44" r="3.4659" style="fill:#c39a54"/>
 <ellipse transform="rotate(33.536)" cx="128.44" cy="21.443" rx="5.023" ry="3.6072" style="fill:#c39a54"/>
 <ellipse transform="matrix(-.96157 .27457 .27457 .96157 0 0)" cx="-40.379" cy="95.116" rx="5.023" ry="3.6072" style="fill:#c39a54"/>
 <path d="m74.1 82.001c-2.5011 5.2687-1.9433 11.304 2.0948 12.302 4.1557 1.0276 6.7793-5.5477 7.8079-10.196l-1.333 3.1123-8.6839-1.4473z" style="fill:#ffd6d4;stroke-linecap:round;stroke-linejoin:round;stroke-width:2.3401;stroke:#c39a54"/>
 <path d="m36.375 120-18.848 11.059c-2.2934-1.8536-3.4697-4.3165-3.5287-7.3889" style="fill:none;stroke-linecap:round;stroke-linejoin:round;stroke-width:3.1201;stroke:#c39a54"/>
 <path d="m108.22 143.8-0.55067 14.755-2.1816 5.4845 7.1604-3.6564" style="fill:none;stroke-linecap:round;stroke-linejoin:round;stroke-width:3.1201;stroke:#c39a54"/>
</svg>
