<svg xmlns="http://www.w3.org/2000/svg" xml:space="preserve" width="192" height="192"><circle cx="96" cy="96" r="88" fill="#bd9aff"/><path fill="#fff" d="M93.336 101.3 51.074 86.636a1.052 1.052 89.807 0 1-.007-1.986l42.938-15.223a8.494 8.494 179.93 0 1 5.658-.007l43.058 15.151a1.036 1.036 90.342 0 1-.012 1.958l-43.697 14.792a8.753 8.753.217 0 1-5.676-.021z"/><path fill="#fff" d="M71.608 96.824s-.768 9.898-.768 14.84c0 3.322 4.31 5.487 7.42 6.652 11.581 4.34 26.118 4.617 37.1-.511 2.684-1.254 5.799-3.775 5.799-6.738 0-4.345-.597-14.328-.597-14.328l-23.73 8.187zM66.065 89.745c-2.561 4.31-4.417 8.857-4.264 14.072 0 0-3.59 1.424-3.668 4.69-.063 2.695 2.9 4.094 2.9 4.094l-2.473 18.422c3.99 2.397 7.319 1.647 10.405-.255l-2.985-18.081s2.876-1.13 2.9-4.195c.023-3.036-3.07-4.59-3.07-4.59-.101-7.275 2.67-10.13 5.457-12.963z"/></svg>