<?xml version="1.0" encoding="UTF-8" standalone="no"?>
<svg
   xml:space="preserve"
   viewBox="0 0 192 192"
   version="1.1"
   id="svg6"
   sodipodi:docname="jetisteam.svg"
   inkscape:version="1.2.2 (b0a8486541, 2022-12-01)"
   inkscape:export-filename="jetisteam.png"
   inkscape:export-xdpi="96"
   inkscape:export-ydpi="96"
   xmlns:inkscape="http://www.inkscape.org/namespaces/inkscape"
   xmlns:sodipodi="http://sodipodi.sourceforge.net/DTD/sodipodi-0.dtd"
   xmlns="http://www.w3.org/2000/svg"
   xmlns:svg="http://www.w3.org/2000/svg"><defs
     id="defs10" /><sodipodi:namedview
     id="namedview8"
     pagecolor="#505050"
     bordercolor="#eeeeee"
     borderopacity="1"
     inkscape:showpageshadow="0"
     inkscape:pageopacity="0"
     inkscape:pagecheckerboard="0"
     inkscape:deskcolor="#d1d1d1"
     showgrid="false"
     inkscape:zoom="1.2291667"
     inkscape:cx="19.525424"
     inkscape:cy="96.40678"
     inkscape:window-width="1884"
     inkscape:window-height="1055"
     inkscape:window-x="36"
     inkscape:window-y="0"
     inkscape:window-maximized="1"
     inkscape:current-layer="svg6" /><circle
     cx="96"
     cy="96"
     r="88"
     fill="#56595b"
     class="a"
     id="circle2"
     style="fill:#56595b" /><path
     fill="#ffffff"
     d="M 106.95,78.8085 V 63.15 c 0,-2.0075 -1.6425,-3.65 -3.65,-3.65 H 88.7 a 3.6605444,3.6605444 0 0 0 -3.65,3.65 v 15.6585 c 0,0.4745 0.1825,0.949 0.5475,1.2775 l 9.125,9.125 c 0.73,0.73 1.8615,0.73 2.5915,0 l 9.125,-9.125 c 0.3285,-0.3285 0.511,-0.7665 0.511,-1.2775 z M 78.8085,85.05 H 63.15 A 3.6605444,3.6605444 0 0 0 59.5,88.7 v 14.6 c 0,2.0075 1.6425,3.65 3.65,3.65 h 15.6585 c 0.4745,0 0.949,-0.1825 1.2775,-0.5475 l 9.125,-9.125 c 0.73,-0.73 0.73,-1.8615 0,-2.5915 L 80.086,85.561 C 79.7575,85.2325 79.3195,85.05 78.8085,85.05 Z M 85.05,113.1915 V 128.85 c 0,2.0075 1.6425,3.65 3.65,3.65 h 14.6 c 2.0075,0 3.65,-1.6425 3.65,-3.65 v -15.6585 c 0,-0.4745 -0.1825,-0.949 -0.5475,-1.2775 l -9.125,-9.125 c -0.73,-0.73 -1.8615,-0.73 -2.5915,0 l -9.125,9.125 c -0.3285,0.3285 -0.511,0.7665 -0.511,1.2775 z m 26.8275,-27.594 -9.125,9.125 c -0.73,0.73 -0.73,1.8615 0,2.5915 l 9.125,9.125 c 0.3285,0.3285 0.803,0.5475 1.2775,0.5475 h 15.695 c 2.0075,0 3.65,-1.6425 3.65,-3.65 v -14.6 c 0,-2.0075 -1.6425,-3.65 -3.65,-3.65 h -15.6585 c -0.511,-0.0365 -0.949,0.146 -1.314,0.511 z"
     id="path4"
     style="stroke-width:0.811111" /></svg>
