<svg xmlns="http://www.w3.org/2000/svg" xml:space="preserve" viewBox="0 0 192 192"><circle cx="96" cy="96" r="88" fill="#56595b" class="a"/><path fill="#fff" d="M109.5 74.805V55.5c0-2.475-2.025-4.5-4.5-4.5H87a4.513 4.513 0 0 0-4.5 4.5v19.305c0 .585.225 1.17.675 1.575l11.25 11.25c.9.9 2.295.9 3.195 0l11.25-11.25c.405-.405.63-.945.63-1.575zM74.805 82.5H55.5A4.513 4.513 0 0 0 51 87v18c0 2.475 2.025 4.5 4.5 4.5h19.305c.585 0 1.17-.225 1.575-.675l11.25-11.25c.9-.9.9-2.295 0-3.195L76.38 83.13c-.405-.405-.945-.63-1.575-.63zm7.695 34.695V136.5c0 2.475 2.025 4.5 4.5 4.5h18c2.475 0 4.5-2.025 4.5-4.5v-19.305c0-.585-.225-1.17-.675-1.575l-11.25-11.25c-.9-.9-2.295-.9-3.195 0l-11.25 11.25c-.405.405-.63.945-.63 1.575zm33.075-34.02-11.25 11.25c-.9.9-.9 2.295 0 3.195l11.25 11.25c.405.405.99.675 1.575.675h19.35c2.475 0 4.5-2.025 4.5-4.5v-18c0-2.475-2.025-4.5-4.5-4.5h-19.305c-.63-.045-1.17.18-1.62.63z"/></svg>