<?xml version="1.0" encoding="UTF-8"?><svg id="a" xmlns="http://www.w3.org/2000/svg" viewBox="0 0 192 192"><g id="b"><g id="c"><g id="d"><rect id="e" x="20" y="20" width="152" height="152" rx="10" ry="10" style="fill:#fff;"/><g id="f"><path id="g" d="M125.27,120.6c-.01,5.22-4.52,10.23-9.79,10.23-12.94,0-26.03-.02-39.04,0-5.12,0-9.23-4.51-9.63-10.19.06-2.4-.09-20.35-.09-20.35h0c-1.39-.96,0,0,0,0-4.38-.54-6.28-2.9-6.95-5.69-.69-2.86-.08-5.52,2.33-7.59,8.97-7.72,17.87-15.53,26.89-23.2,4.27-3.63,9.95-3.51,14.25.17,8.8,7.52,17.5,15.16,26.3,22.69,2.56,2.19,3.5,4.9,2.67,8.02-.88,3.3-3.47,4.87-6.94,5.61h0" style="fill:#728dbe;"/><ellipse id="h" cx="80.8" cy="103.16" rx="4.66" ry="4.67" style="fill:#fff;"/><ellipse id="i" cx="111.16" cy="103.43" rx="4.66" ry="4.67" style="fill:#fff;"/><ellipse id="j" cx="96.06" cy="84.13" rx="4.66" ry="4.67" style="fill:#fff;"/><ellipse id="k" cx="89.36" cy="113.85" rx="4.66" ry="4.67" style="fill:#fff;"/><ellipse id="l" cx="83.82" cy="89.98" rx="4.66" ry="4.67" style="fill:#fff;"/><ellipse id="m" cx="108.3" cy="89.96" rx="4.66" ry="4.67" style="fill:#fff;"/><ellipse id="n" cx="102.54" cy="113.91" rx="4.66" ry="4.67" style="fill:#fff;"/></g></g></g></g></svg>