<svg xmlns="http://www.w3.org/2000/svg" width="192" height="192"><rect width="153" height="153" x="19.5" y="19.5" rx="10" style="fill:#ff837d;fill-rule:evenodd;stroke:#ff837d;opacity:1;fill-opacity:1;stroke-opacity:0;stroke-width:.9;stroke-miterlimit:4;stroke-dasharray:none"/><path d="M51.97 152.05c.163-.507 1.175-4.224 2.25-8.26l1.954-7.34-2.467-2.691c-10.298-11.23-15.991-28.457-14.287-43.223 1.656-14.34 7.555-26.41 17.542-35.885 8.07-7.658 17.22-12.383 28.519-14.73 5.356-1.112 14.643-1.197 20.292-.186 17.548 3.14 32.564 14.112 40.706 29.74 4.471 8.582 6.4 16.568 6.4 26.49-.001 11.632-3.223 22.205-9.75 31.996-3.066 4.598-10.366 11.905-14.838 14.85-17.594 11.59-38.786 13.15-57.055 4.2l-2.807-1.376-8.183 3.668c-4.5 2.018-8.27 3.668-8.377 3.668-.106 0-.06-.414.102-.921z" style="opacity:1;fill:#fff;fill-opacity:1;stroke-width:.40941101"/><path d="M93.51 142.07c-1.699-.257-2.107-1.491-2.107-6.381v-4.52h-4.518c-5.384 0-6.304-.398-6.294-2.726.011-2.777 1.026-3.284 6.579-3.284h4.233v-4.353c0-3.798.107-4.489.83-5.41 1.042-1.322 3.186-1.447 4.38-.254.708.709.8 1.336.8 5.41v4.607l4.308.006c5.418.008 6.265.37 6.437 2.75.211 2.93-.388 3.255-5.998 3.255h-4.746v4.519c0 5.756-.679 6.866-3.903 6.38z" style="opacity:.92000002;fill:#ff837d;stroke-width:.40069473;fill-opacity:1"/><path d="M79.129 108.75c-.143-.782-.653-3.315-1.133-5.629l-.872-4.207-1.475-.124-1.475-.125v-4.383c0-3.431.118-4.384.545-4.384.366 0 .482-.33.354-1.001-.174-.913-.068-1.002 1.199-1.002.765 0 2.483-.114 3.818-.254 2.338-.244 2.433-.218 2.564.701.134.949.172.956 5.805 1.066l5.67.111 1.908 2.233 1.907 2.233-.718 1.996c-.394 1.098-1.299 3.38-2.009 5.07l-1.291 3.072-3.662.115-3.662.115.998-2.768c.55-1.522.999-2.838.999-2.923 0-.085-.81-.09-1.801-.011-1.608.128-1.78.235-1.601 1.004.67 2.895 2.142 10.066 2.077 10.12-.043.037-1.835.14-3.982.23l-3.904.165-.26-1.42zM44.122 103.322V97.11h15.464l1.484-1.52 1.483-1.52V83.889h10.419v17.846l-3.914 3.9-3.914 3.898H44.122ZM97.414 103.322V97.11H108.47l1.483-1.52c1.452-1.486 1.484-1.586 1.484-4.608v-3.088h10.418V101.734l-3.914 3.9-3.914 3.898H97.414z" style="opacity:.92000002;fill:#4a4a4a;stroke-width:.40069473;fill-opacity:1"/><path d="M123.058 103.322V97.11h9.46l1.28-1.321 1.281-1.322V85.09h-16.028V75.073h15.427l.013 2.353c.01 1.86.236 2.689 1.076 3.958 1.481 2.239 4.1 3.464 6.85 3.205 1.143-.108 2.394-.329 2.78-.491.655-.277.7.275.7 8.455v8.751l-4.1 4.114-4.1 4.114h-14.639zM44.122 89.898v-4.407h15.226v1.445c0 1.25-.388 1.845-2.873 4.407l-2.872 2.963h-9.481zM97.414 79.896v-4.793l8.615-.115 8.616-.116v2.215c-.001 2.202-.016 2.23-2.716 4.908l-2.715 2.694h-11.8z" style="opacity:.92000002;fill:#4a4a4a;stroke-width:.40069473;fill-opacity:1"/><path d="m43.807 79.58.114-4.307 7.513-.109 7.513-.109v1.723c0 1.595-.2 1.922-2.715 4.416l-2.714 2.694h-9.824z" style="opacity:1;fill:#4a4a4a;stroke-width:.40069473;fill-opacity:1"/><path d="M140.088 83.62c-1.305-.35-3.36-2.086-4.052-3.425-.846-1.636-.58-5.155.503-6.642.94-1.29 3.901-2.888 5.352-2.888 1.613 0 4.51 1.665 5.506 3.165 1.077 1.62 1.221 4.678.305 6.45-1.274 2.464-4.92 4.063-7.614 3.34z" style="opacity:.92000002;fill:#4a4a4a;stroke-width:.40069473;fill-opacity:1"/><path d="M143.865 78.825c.457-.58.83-1.277.83-1.549 0-1.064-1.658-2.604-2.804-2.604s-2.805 1.54-2.805 2.604c0 1.065 1.659 2.605 2.805 2.605.759 0 1.424-.356 1.974-1.056z" style="opacity:1;fill:#fff;fill-opacity:1;stroke-width:.40069473"/><path d="M60.95 78.88v-3.807H70.168V82.686H60.95ZM71.369 78.88v-3.807h7.212v2.235c0 2.053-.125 2.363-1.54 3.807-1.397 1.425-1.732 1.57-3.606 1.57h-2.066z" style="opacity:.92000002;fill:#4a4a4a;stroke-width:.40069473;fill-opacity:1"/><path d="M73.372 66.315v-2.347l4.107-.21c4.099-.21 7.406-1.109 6.928-1.883-.144-.233-1.299-.295-2.834-.151l-2.591.242v-2.238c0-1.231.18-2.35.4-2.486.221-.136.401-1.86.401-3.83v-3.583h5.27l-.13 5.61-.131 5.61h3.105c1.708 0 3.106.099 3.106.22 0 .12-.255.707-.565 1.302-.773 1.478-2.51 3.032-4.514 4.036-1.874.939-7.63 2.055-10.6 2.055h-1.952zM106.63 67.66v-1.002h-9.617v-2.003c0-1.75.104-2.004.818-2.004.764 0 .81-.207.702-3.105-.103-2.719-.208-3.098-.846-3.045-.529.043-.655-.122-.458-.601.149-.364.687-1.834 1.196-3.266l.926-2.605 2.638-.118c1.643-.074 2.637.04 2.637.3 0 .273 2.096.42 6.01.42h6.011v4.006h-5.209v2.404H116.247v1.703l.001 1.703h-2.305c-2.216 0-2.31.043-2.431 1.102l-.127 1.102h5.663v4.007h-2.805c-2.724 0-2.805.029-2.805 1.002 0 .957-.106 1.002-2.404 1.002-2.297 0-2.404-.045-2.404-1.002z" style="opacity:.92000002;fill:#ff837d;stroke-width:.40069473;fill-opacity:1"/><path d="M106.556 61.55c-.114-.998-.279-1.103-1.73-1.103-1.45 0-1.614.105-1.729 1.102-.122 1.062-.059 1.102 1.73 1.102 1.788 0 1.851-.04 1.73-1.102zM106.63 55.84c0-1.13-.095-1.203-1.554-1.203-1.546 0-2.102.368-2.579 1.703-.218.613.027.701 1.942.701 2.167 0 2.19-.013 2.19-1.202z" style="opacity:.92000002;fill:#fff;stroke-width:.40069473;fill-opacity:1"/><path d="M72.322 59.546c.135-.606.363-2.68.507-4.608l.261-3.506h4.808l-.265 3.706c-.406 5.658-.32 5.51-3.152 5.51h-2.404zM87.236 57.743c-.109-.717-.294-2.43-.413-3.807l-.216-2.504h2.171c2.513 0 2.443-.112 2.848 4.508l.272 3.105h-2.232c-2.212 0-2.235-.013-2.43-1.302z" style="opacity:.92000002;fill:#ff837d;stroke-width:.40069473;fill-opacity:1"/></svg>