<?xml version="1.0" encoding="UTF-8"?>
<svg version="1.1" viewBox="0 0 192 192" xml:space="preserve" xmlns="http://www.w3.org/2000/svg">
	 <g><circle class="a" cx="96" cy="96" r="88" fill="#98dc9a"/><path d="m99.222 71.254a21.991 21.991 0 0 1 21.994 21.991 21.991 21.991 0 0 1-0.0505 0.70214 13.401 13.401 0 0 1 0.0963-0.0023 13.401 13.401 0 0 1 13.4 13.402 13.401 13.401 0 0 1-13.4 13.4h-45.059a18.864 18.864 0 0 1-18.864-18.864 18.864 18.864 0 0 1 18.864-18.864 18.864 18.864 0 0 1 3.38 0.3419 21.991 21.991 0 0 1 19.639-12.109z" fill="#fff" stroke-width="1.1748"/></g></svg>
