<?xml version="1.0" encoding="UTF-8"?><svg id="a" xmlns="http://www.w3.org/2000/svg" viewBox="0 0 192 192"><g id="b"><g id="c"><circle id="d" cx="96" cy="96" r="88" style="fill:#56595b;"/><path d="M97.28,94.65l-.13.16c-.26,3.52.77,40.57-.58,42.88,2.29-.5,23.13-9.88,20.58-4.06-.44,1-1.35,1.72-2.4,2.05-7.71,2.4-15.41,5.01-22.72,8.4-1.26.72-2.91-.38-2.92-1.79.8-2.49,3.9-3.93,3.94-6.94.28-25.39.05-50.81.12-76.22.08-.92.68-1.72,1.59-1.91,13.9-1.79,27.73-4.19,41.27-7.78,1.05-.28,2.2-.08,3,.65,3.94,3.58-13.12,5.54-15.58,6.46,0,11.35.55,22.82,1.03,34.14h18.4s.6.3.69.36c1.43,1,.84,3.24-.78,3.62,0,0-18.02,0-18.02,0,.68,11.45,1.71,23.25,5.18,34.22.8,3.73,4.75,12.71,9.09,9.75.89-.61,1.46-1.58,1.76-2.62.95-3.31.71-7.99,1.19-11.12.38-2.5,3.41-2.62,4.02-.25-.44,3.22-.26,8.29-1.35,12.28-.96,3.51-4.17,6.08-7.8,5.95-14.19-.52-14.89-38.16-16.21-48.21h-23.36ZM120.5,90.67c-.77-11.05-.67-22.46-1.18-33.39-7.3,1.51-14.73,2.66-22.14,3.68l.05,29.71h23.27Z" style="fill:#ececec;"/><path d="M53.72,79.61l17.24-1.82c2.9-4.07,5.49-8.35,8.11-12.61,1.52-1.82,4.28-.14,3.39,2.07-7.57,12.82-16.46,25.36-26.76,36.19l23.93-3.97c-.24-2.5-5.77-10.9-1.87-11.08.95-.04,1.83.53,2.27,1.37,2.65,5.08,4.68,11.32,6.04,16.87.3,1.22-.54,2.52-1.8,2.56-.54.02-1.08-.18-1.47-.63-.86-.92-1.1-4.13-1.88-5.27,0,0-32.73,5.45-32.73,5.45-2.97-.07-2.67-3.13-.54-4.15,1.18-.56,2.24-1.36,3.24-2.21,6.68-5.67,11.81-13.22,17.02-20.18-38.98,4.52-15.96,2.41.04-32.6.48-1.05,1.47-1.85,2.62-1.9,6.86-.3-15.14,29.71-16.85,31.9Z" style="fill:#ececec;"/><path d="M53.42,117.28c5.12-.03-.88,15.12-.99,18.5-.35,1.47-.84,4.08-1.46,5.35-.98,2.01-4.04,1.24-3.76-1.21,2.22-4.65,2.89-21.52,6.21-22.64Z" style="fill:#ececec;"/><path d="M66.56,116.9c4.35-.33,3.58,14.74,4.28,18.18.8,2.25-2.89,6.37-3.45,3.26-1.11-6.25-1.11-12.68-2.37-18.85-.17-.85.1-1.77.81-2.27.22-.16.47-.28.72-.32Z" style="fill:#ececec;"/><path d="M78.29,114.8c.64-.81,1.83-.81,2.58-.1,2.62,2.51,3.4,11.5,4.8,14.45,1.16,2.37-2.37,4.36-3.59,1.88,0,0-4.18-14.46-4.18-14.46-.16-.64,0-1.29.39-1.78Z" style="fill:#ececec;"/></g></g></svg>