<svg xmlns="http://www.w3.org/2000/svg" xml:space="preserve" style="fill-rule:evenodd;clip-rule:evenodd;stroke-linejoin:round;stroke-miterlimit:2" viewBox="0 0 192 192"><path d="M164.5 21.5c0-5.519-4.481-10-10-10h-133c-5.519 0-10 4.481-10 10v133c0 5.519 4.481 10 10 10h133c5.519 0 10-4.481 10-10v-133Z" style="fill:#bd9aff" transform="translate(8 8)"/><path d="M102.656 136.827 89.274 87.566l20.17-23.273L96 58.475 67.994 84.897V51.509l-18.089 5.275v79.973l18.089 1.024v-29.006l9.225-9.612 10.504 38.051 14.933-.387ZM135.588 130.682l3.972 11.122-9.215 5.799-8.897-6.197 4.687-10.565 9.453-.159ZM113.358 45.624l18.618 78.546 12.412-72.146-31.03-6.4Z" style="fill:#fff" transform="matrix(.75368 0 0 .74801 23.782 27.732)"/></svg>