<?xml version="1.0" encoding="UTF-8"?>
<svg version="1.1" viewBox="0 0 192 192" xml:space="preserve" xmlns="http://www.w3.org/2000/svg" xmlns:xlink="http://www.w3.org/1999/xlink"><defs><linearGradient id="linearGradient1788"><stop stop-color="#bd9aff" offset="0"/><stop stop-color="#9abeff" offset="1"/></linearGradient><linearGradient id="linearGradient1790" x1="20" x2="172" y1="20" y2="172" gradientUnits="userSpaceOnUse" xlink:href="#linearGradient1788"/><clipPath id="clipPath1883"><rect class="a" x="20" y="20" width="152" height="152" rx="10" fill="url(#linearGradient1790)"/></clipPath><clipPath id="clipPath1889"><rect class="a" x="20" y="20" width="152" height="152" rx="10" fill="url(#linearGradient1790)"/></clipPath><clipPath id="clipPath1895"><rect class="a" x="20" y="20" width="152" height="152" rx="10" fill="url(#linearGradient1790)"/></clipPath><clipPath id="clipPath1901"><rect class="a" x="20" y="20" width="152" height="152" rx="10" fill="url(#linearGradient1790)"/></clipPath><clipPath id="clipPath1907"><rect class="a" x="20" y="20" width="152" height="152" rx="10" fill="url(#linearGradient1790)"/></clipPath><clipPath id="clipPath1913"><rect class="a" x="20" y="20" width="152" height="152" rx="10" fill="url(#linearGradient1790)"/></clipPath><clipPath id="clipPath1919"><rect class="a" x="20" y="20" width="152" height="152" rx="10" fill="url(#linearGradient1790)"/></clipPath><clipPath id="clipPath1925"><rect class="a" x="20" y="20" width="152" height="152" rx="10" fill="url(#linearGradient1790)"/></clipPath><clipPath id="clipPath1931"><rect class="a" x="20" y="20" width="152" height="152" rx="10" fill="url(#linearGradient1790)"/></clipPath><clipPath id="clipPath1937"><rect class="a" x="20" y="20" width="152" height="152" rx="10" fill="url(#linearGradient1790)"/></clipPath><clipPath id="clipPath1943"><rect class="a" x="20" y="20" width="152" height="152" rx="10" fill="url(#linearGradient1790)"/></clipPath><clipPath id="clipPath1949"><rect class="a" x="20" y="20" width="152" height="152" rx="10" fill="url(#linearGradient1790)"/></clipPath><clipPath id="clipPath1955"><rect class="a" x="20" y="20" width="152" height="152" rx="10" fill="url(#linearGradient1790)"/></clipPath><clipPath id="clipPath1961"><rect class="a" x="20" y="20" width="152" height="152" rx="10" fill="url(#linearGradient1790)"/></clipPath><clipPath id="clipPath1967"><rect class="a" x="20" y="20" width="152" height="152" rx="10" fill="url(#linearGradient1790)"/></clipPath><clipPath id="clipPath1973"><rect class="a" x="20" y="20" width="152" height="152" rx="10" fill="url(#linearGradient1790)"/></clipPath><clipPath id="clipPath1979"><rect class="a" x="20" y="20" width="152" height="152" rx="10" fill="url(#linearGradient1790)"/></clipPath><clipPath id="clipPath1985"><rect class="a" x="20" y="20" width="152" height="152" rx="10" fill="url(#linearGradient1790)"/></clipPath><clipPath id="clipPath1991"><rect class="a" x="20" y="20" width="152" height="152" rx="10" fill="url(#linearGradient1790)"/></clipPath><clipPath id="clipPath1997"><rect class="a" x="20" y="20" width="152" height="152" rx="10" fill="url(#linearGradient1790)"/></clipPath><clipPath id="clipPath2003"><rect class="a" x="20" y="20" width="152" height="152" rx="10" fill="url(#linearGradient1790)"/></clipPath><clipPath id="clipPath2009"><rect class="a" x="20" y="20" width="152" height="152" rx="10" fill="url(#linearGradient1790)"/></clipPath><clipPath id="clipPath2015"><rect class="a" x="20" y="20" width="152" height="152" rx="10" fill="url(#linearGradient1790)"/></clipPath><clipPath id="clipPath2021"><rect class="a" x="20" y="20" width="152" height="152" rx="10" fill="url(#linearGradient1790)"/></clipPath><clipPath id="clipPath2027"><rect class="a" x="20" y="20" width="152" height="152" rx="10" fill="url(#linearGradient1790)"/></clipPath><clipPath id="clipPath2033"><rect class="a" x="20" y="20" width="152" height="152" rx="10" fill="url(#linearGradient1790)"/></clipPath><clipPath id="clipPath2039"><rect class="a" x="20" y="20" width="152" height="152" rx="10" fill="url(#linearGradient1790)"/></clipPath><clipPath id="clipPath2045"><rect class="a" x="20" y="20" width="152" height="152" rx="10" fill="url(#linearGradient1790)"/></clipPath><clipPath id="clipPath2051"><rect class="a" x="20" y="20" width="152" height="152" rx="10" fill="url(#linearGradient1790)"/></clipPath><clipPath id="clipPath2057"><rect class="a" x="20" y="20" width="152" height="152" rx="10" fill="url(#linearGradient1790)"/></clipPath><clipPath id="clipPath2063"><rect class="a" x="20" y="20" width="152" height="152" rx="10" fill="url(#linearGradient1790)"/></clipPath><clipPath id="clipPath2069"><rect class="a" x="20" y="20" width="152" height="152" rx="10" fill="url(#linearGradient1790)"/></clipPath><clipPath id="clipPath2075"><rect class="a" x="20" y="20" width="152" height="152" rx="10" fill="url(#linearGradient1790)"/></clipPath><clipPath id="clipPath2081"><rect class="a" x="20" y="20" width="152" height="152" rx="10" fill="url(#linearGradient1790)"/></clipPath><clipPath id="clipPath2087"><rect class="a" x="20" y="20" width="152" height="152" rx="10" fill="url(#linearGradient1790)"/></clipPath></defs>
	 <rect class="a" x="20" y="20" width="152" height="152" rx="10" fill="url(#linearGradient1790)"/><path d="m55.455 172 8.9248-25.642 12.939-13.371 19.611-8.2845 21.454 5.8958 19.06 6.4882 2.9181 34.914z" clip-path="url(#clipPath2087)" fill="#ffd6d4"/><path d="m100.1 131.54c-1.2201 5.4504-3.3063 9.5622-5.8828 12.916l-0.96057-13.906 1.8066-6.902 4.4006 0.23161z" clip-path="url(#clipPath2081)" fill="#ffd6d4"/><path d="m100.1 131.54c-1.2201 5.4504-3.3063 9.5622-5.8828 12.916l-0.96057-13.906 1.8066-6.902 4.4006 0.23161z" clip-path="url(#clipPath2075)" fill-opacity=".25"/><rect x="71.783" y="170.8" width="8.9054" height="1.8297" ry=".91486" clip-path="url(#clipPath2069)" fill="#ba6561"/><path d="m61.055 171.02c1.6594-1.2154 3.4457-2.3402 5.5357-3.248-0.06752-0.0405 3.0627-1.0921 4.8712-1.1827 5.2039-0.26073 14.711 1.1321 14.658 1.1552 0 0-0.87373 0.70294-0.63815 1.0345 0.39471 0.55558 1.9571 2.1018 1.9571 2.1018l-4.609-0.0231v1.1449h-2.7793v-0.82063h-4.4122v0.82063h-0.99592v-0.79747h-2.4319v0.79747h-0.97276v-1.6428l-5.4433 0.15335-0.47368 1.4895h-4.3563z" clip-path="url(#clipPath2063)" fill="#8e6f60"/><path d="m77.838 109.23 4.4182-43.284h9.9574l-2.4238 28.038 22.404-28.103h12.185l-20.635 25.614 10.125 17.536-13.396-1.8885-4.262-7.7209-6.6992 7.838z" clip-path="url(#clipPath2057)" fill="#9abeff"/><path d="m40.33 172s-5.6349-64.889 55.29-64.985c63.553-0.10003 64.247 64.307 61.84 64.985h-2.2273c0.64256-10.1-1.6157-20.004-8.2541-29.61 3.2121 9.8064 3.5851 19.927 2.3583 29.61h-17.949c-1.854-8.5598-3.7358-17.513-7.468-26.073 0.37048 7.2276 0.0106 14.212-2.2273 20.57-0.93657-7.6864-2.8631-15.373-5.8958-23.059 0.17242 10.076-1.1774 18.31-4.3236 24.369-2.914-14.896-7.7859-29.257-14.543-43.105-0.36433 23.296-8.7704 35.461-17.425 44.939l3.4065-20.57c-4.5294 8.8622-9.6356 17.319-17.589 22.928 1.6272-4.9523 2.86-10.334 3.9633-16.508l-7.8611 14.543-0.73698 1.9653z" clip-path="url(#clipPath2051)" fill="#f9de81" stroke="#56595b" stroke-linecap="round" stroke-linejoin="round" stroke-width="1.4823"/><path d="m45.112 172c0.21382-13.478 2.9162-26.724 8.1886-39.502" clip-path="url(#clipPath2045)" fill="none" stroke="#56595b" stroke-linecap="round" stroke-linejoin="round" stroke-width="1.4823"/><path d="m60.965 172c0.62592-12.361 2.3759-24.497 6.4854-36.161" clip-path="url(#clipPath2039)" fill="none" stroke="#56595b" stroke-linecap="round" stroke-linejoin="round" stroke-width="1.4823"/><path d="m63.054 152.78c7.5741-4.5514 15.843-5.7664 25.163-1.9407" clip-path="url(#clipPath2033)" fill="none" stroke="#56595b" stroke-linecap="round" stroke-linejoin="round" stroke-width="1.4823"/><path d="m77.828 153.41c1.9194-0.43816 4.0021-0.54999 6.2303-0.37058" clip-path="url(#clipPath2027)" fill="none" stroke="#56595b" stroke-linecap="round" stroke-linejoin="round" stroke-width="1.4823"/><path d="m69.219 164.37s1.8783-1.2622 2.9479-1.5722c1.9769-0.57306 6.1578-0.45856 6.1578-0.45856" clip-path="url(#clipPath2021)" fill="none" stroke="#56595b" stroke-linecap="round" stroke-linejoin="round" stroke-width="1.4823"/><path d="m80.356 162.93c1.7622 0.5944 3.2597 1.2946 4.5856 2.0635" clip-path="url(#clipPath2015)" fill="none" stroke="#56595b" stroke-linecap="round" stroke-linejoin="round" stroke-width="1.4823"/><path d="m69.285 155.49c1.1183-3.9899 2.0274-7.9586 2.6369-11.897" clip-path="url(#clipPath2009)" fill="none" stroke="#56595b" stroke-linecap="round" stroke-linejoin="round" stroke-width="1.4823"/><path d="m82.911 149.07c0.86997-3.8731 1.3462-7.6674 1.3429-11.366" clip-path="url(#clipPath2003)" fill="none" stroke="#56595b" stroke-linecap="round" stroke-linejoin="round" stroke-width="1.4823"/><path d="m115.8 143.44c-1.0387-4.8913-2.6298-9.7827-4.7166-14.674" clip-path="url(#clipPath1997)" fill="none" stroke="#56595b" stroke-linecap="round" stroke-linejoin="round" stroke-width="1.4823"/><path d="m123.92 145.93c-1.3198-5.1097-3.1675-10.219-5.5355-15.329" clip-path="url(#clipPath1991)" fill="none" stroke="#56595b" stroke-linecap="round" stroke-linejoin="round" stroke-width="1.4823"/><path d="m130.5 167.92c0.32117-7.6554-0.77105-17.187-5.2059-26.975" clip-path="url(#clipPath1985)" fill="none" stroke="#56595b" stroke-linecap="round" stroke-linejoin="round" stroke-width="1.4823"/><path d="m106.78 149.34s5.9357-1.8789 9.0086-1.9815c3.1331-0.10462 6.2736 0.58281 9.2992 1.4031 2.32 0.62902 6.6975 2.6733 6.6975 2.6733" clip-path="url(#clipPath1979)" fill="none" stroke="#56595b" stroke-linecap="round" stroke-linejoin="round" stroke-width="1.4823"/><path d="m142.85 172c-8e-3 -4.1134-0.58407-8.2899-2.1618-12.578" clip-path="url(#clipPath1973)" fill="none" stroke="#56595b" stroke-linecap="round" stroke-linejoin="round" stroke-width="1.4823"/><path d="m147.9 172c-0.35813-6.1541-1.367-12.494-2.9479-18.998" clip-path="url(#clipPath1967)" fill="none" stroke="#56595b" stroke-linecap="round" stroke-linejoin="round" stroke-width="1.4823"/><path d="m150.45 137.58c5.7726 6.4906 11.82 12.49 18.143 16.932" clip-path="url(#clipPath1961)" fill="none" stroke="#56595b" stroke-linecap="round" stroke-linejoin="round" stroke-width="1.4823"/><path d="m107.54 164.83c2.2434-1.2473 4.2003-1.8772 6.064-2.3066" clip-path="url(#clipPath1955)" fill="none" stroke="#56595b" stroke-linecap="round" stroke-linejoin="round" stroke-width="1.4823"/><path d="m115.57 161.55c2.4015 0.45891 4.7288 1.1775 6.9557 2.2475" clip-path="url(#clipPath1949)" fill="none" stroke="#56595b" stroke-linecap="round" stroke-linejoin="round" stroke-width="1.4823"/><path d="m61.893 131.06c-1.0255 1.8868-1.7074 3.8881-1.9918 6.0218" clip-path="url(#clipPath1943)" fill="none" stroke="#fdf5d9" stroke-linecap="round" stroke-linejoin="round" stroke-width="1.4823"/><path d="m78.013 130.09c-0.8704 1.9301-1.2588 3.8602-1.3897 5.7902" clip-path="url(#clipPath1937)" fill="none" stroke="#fdf5d9" stroke-linecap="round" stroke-linejoin="round" stroke-width="1.4823"/><path d="m90.335 129.63c-0.59156 3.119-0.54631 6.238-0.27793 9.357" clip-path="url(#clipPath1931)" fill="none" stroke="#fdf5d9" stroke-linecap="round" stroke-linejoin="round" stroke-width="1.4823"/><path d="m106.73 130.42c1.207 3.2271 1.723 6.4542 1.9455 9.6813" clip-path="url(#clipPath1925)" fill="none" stroke="#fdf5d9" stroke-linecap="round" stroke-linejoin="round" stroke-width="1.4823"/><path d="m128.32 132.04c1.2727 1.8961 2.0466 3.8634 2.4551 5.8829" clip-path="url(#clipPath1919)" fill="none" stroke="#fdf5d9" stroke-linecap="round" stroke-linejoin="round" stroke-width="1.4823"/><path d="m134.34 131.34c1.3897 2.0567 2.3283 3.933 3.1036 5.7439" clip-path="url(#clipPath1913)" fill="none" stroke="#fdf5d9" stroke-linecap="round" stroke-linejoin="round" stroke-width="1.4823"/><path d="m109.13 172 1.2292-2.2109 7.1077-0.3603 1.5231 0.32755 1.6047 2.2436z" clip-path="url(#clipPath1907)" fill="#ba6561"/><path d="m130.29 172s-3.3815-4.3874-4.9101-4.7811c-1.5286-0.39374-9.8666-0.48638-9.8666-0.48638l-5.2575 0.0463-0.79905 0.0926-1.5402 0.34738c-0.98357 0.23081-1.5298 0.92943-2.2234 1.5055l2.2582-0.9496 1.2854-0.34741c-1.1732 0.85935-2.4611 1.3976-3.4973 2.6404 0.63171-0.14939 1.2502-0.32518 1.7602-0.71799l2.3856 0.0926-1.158 2.5577h0.81063s0.9496-1.3302 1.3202-1.5849c0.37057-0.25477 1.1349-0.32425 1.1349-0.32425s5.9755 0.0231 6.1145 0.0231c0.13896 0 0.34741-0.0231 0.55586 0.1158 0.20845 0.13897 0.57902 0.60219 0.57902 0.60219l0.69483 1.168h1.3202l-1.158-1.4228c-0.21325-0.39446-0.1569-0.68622 0.27793-0.83379l3.7984-0.0231s0.30109-0.0463 0.6485 0.13897c0.34742 0.18528 2.0382 2.1408 2.0382 2.1408z" clip-path="url(#clipPath1901)" fill="#8e6f60"/><path d="m92.213 65.941 4.1271 3.9305-1.4042 17.651-5.1467 6.4559z" clip-path="url(#clipPath1895)" fill="#56595b"/><path d="m96.209 99.416-6.6992 7.838 8.0103-0.22252 1.7858-2.0053z" clip-path="url(#clipPath1889)" fill="#56595b"/><path d="m124.38 65.875 4.3891 4.2581-20.635 25.614 8.1562 13.908-2.4206-0.63038-10.125-17.536z" clip-path="url(#clipPath1883)" fill="#56595b"/></svg>
