<?xml version="1.0" encoding="UTF-8"?>
<svg version="1.1" viewBox="0 0 192 192" xml:space="preserve" xmlns="http://www.w3.org/2000/svg">
	 <rect class="a" x="8" y="32" width="176" height="128" rx="10" fill="#96dfd3"/><path d="m162.47 124.31-13.613-22.854-13.613 22.854v-92.315h27.225z" fill="#ff837d" stroke="#00000000" stroke-linecap="round" stroke-linejoin="round" stroke-width="3.3406"/><path d="m156.16 32v81.232l6.3109 10.824v-92.056z" fill="#ba6561" stroke="#00000000" stroke-width="1.7304"/><path d="m32.728 73.064v49.036" fill="#00000000" stroke="#56595b" stroke-linecap="round" stroke-linejoin="round" stroke-width="3.1636"/><path d="m37.474 73.064v49.036" fill="#00000000" stroke="#56595b" stroke-linecap="round" stroke-linejoin="round" stroke-width="3.1636"/><path d="m50.128 73.064v45.872" fill="#00000000" stroke="#56595b" stroke-linecap="round" stroke-linejoin="round" stroke-width="3.1636"/><path d="m62.782 73.064v45.872" fill="#00000000" stroke="#56595b" stroke-linecap="round" stroke-linejoin="round" stroke-width="3.1636"/><path d="m42.219 118.94v-45.872h3.1636v45.872z" stroke="#56595b" stroke-linecap="round" stroke-linejoin="round" stroke-width="3.1636"/><path d="m54.873 118.94v-45.872h3.1636v45.872z" stroke="#56595b" stroke-linecap="round" stroke-linejoin="round" stroke-width="3.1636"/><path d="m67.528 118.94v-45.872h1.5818v45.872z" stroke="#56595b" stroke-linecap="round" stroke-linejoin="round" stroke-width="3.1636"/><path d="m91.255 73.064v45.872" fill="#00000000" stroke="#56595b" stroke-linecap="round" stroke-linejoin="round" stroke-width="3.1636"/><path d="m96 73.064v45.872" fill="#00000000" stroke="#56595b" stroke-linecap="round" stroke-linejoin="round" stroke-width="3.1636"/><path d="m108.65 73.064v45.872" fill="#00000000" stroke="#56595b" stroke-linecap="round" stroke-linejoin="round" stroke-width="3.1636"/><path d="m83.346 118.94v-45.872h3.1636v45.872z" stroke="#56595b" stroke-linecap="round" stroke-linejoin="round" stroke-width="3.1636"/><path d="m100.75 118.94v-45.872h3.1636v45.872z" stroke="#56595b" stroke-linecap="round" stroke-linejoin="round" stroke-width="3.1636"/><path d="m113.4 73.064v49.036" fill="#00000000" stroke="#56595b" stroke-linecap="round" stroke-linejoin="round" stroke-width="3.1636"/><path d="m118.15 73.064v49.036" fill="#00000000" stroke="#56595b" stroke-linecap="round" stroke-linejoin="round" stroke-width="3.1636"/><path d="m73.855 73.064v49.036" fill="#00000000" stroke="#56595b" stroke-linecap="round" stroke-linejoin="round" stroke-width="3.1636"/><path d="m78.6 73.064v49.036" fill="#00000000" stroke="#56595b" stroke-linecap="round" stroke-linejoin="round" stroke-width="3.1636"/></svg>
