<svg xmlns="http://www.w3.org/2000/svg" xml:space="preserve" width="192" height="192"><circle cx="96" cy="96" r="88" fill="#fff"/><path fill="#ff837d" d="M70.5 88.388h29a4 4 0 0 1 4 4v29a4 4 0 0 1-4 4h-29a4 4 0 0 1-4-4v-29a4 4 0 0 1 4-4z"/><path fill="#fff" d="M88.4 101.26v-5.577c0-.715-.585-1.3-1.3-1.3h-5.2c-.715 0-1.3.585-1.3 1.3v5.577a.61.61 0 0 0 .195.455l3.25 3.25c.26.26.663.26.923 0l3.25-3.25a.627.627 0 0 0 .182-.455zm-10.023 2.223H72.8c-.715 0-1.3.585-1.3 1.3v5.2c0 .715.585 1.3 1.3 1.3h5.577a.61.61 0 0 0 .455-.195l3.25-3.25a.644.644 0 0 0 0-.923l-3.25-3.25a.627.627 0 0 0-.455-.182zm2.223 10.023v5.577c0 .715.585 1.3 1.3 1.3h5.2c.715 0 1.3-.585 1.3-1.3v-5.577a.61.61 0 0 0-.195-.455l-3.25-3.25a.644.644 0 0 0-.923 0l-3.25 3.25a.627.627 0 0 0-.182.455zm9.555-9.828-3.25 3.25a.644.644 0 0 0 0 .923l3.25 3.25a.662.662 0 0 0 .455.195h5.59c.715 0 1.3-.585 1.3-1.3v-5.2c0-.715-.585-1.3-1.3-1.3h-5.577a.581.581 0 0 0-.468.182z"/><path fill="#9abeff" d="M121.5 66.613h-29a4 4 0 0 0-4 4v29a4 4 0 0 0 4 4h29a4 4 0 0 0 4-4v-29a4 4 0 0 0-4-4z"/><path fill="#fff" d="M117.9 75.188H97.1a2.597 2.597 0 0 0-2.587 2.6l-.013 13c0 1.43 1.17 2.6 2.6 2.6h20.8c1.43 0 2.6-1.17 2.6-2.6v-13c0-1.43-1.17-2.6-2.6-2.6zm-11.7 3.9h2.6v2.6h-2.6zm0 3.9h2.6v2.6h-2.6zm-3.9-3.9h2.6v2.6h-2.6zm0 3.9h2.6v2.6h-2.6zm-1.3 2.6h-2.6v-2.6h2.6zm0-3.9h-2.6v-2.6h2.6zm10.4 9.1h-7.8c-.715 0-1.3-.585-1.3-1.3s.585-1.3 1.3-1.3h7.8c.715 0 1.3.585 1.3 1.3s-.585 1.3-1.3 1.3zm1.3-5.2h-2.6v-2.6h2.6zm0-3.9h-2.6v-2.6h2.6zm3.9 3.9H114v-2.6h2.6zm0-3.9H114v-2.6h2.6z"/></svg>