<svg xmlns="http://www.w3.org/2000/svg" id="svg2" width="192" height="192" version="1.1"><defs id="defs4"><style id="style907">.cls-1{fill:#00a88e}.cls-2{fill:#009a82}.cls-3{fill:#586266}.cls-4{fill:#e0eae8}.cls-5,.cls-8{fill:none}.cls-5{stroke:#a8aaae;stroke-linecap:round;stroke-miterlimit:10;stroke-width:5px}.cls-6{fill:#a35f27}.cls-7{fill:#ffc31a}.st0,.st1{stroke:#000;stroke-width:3;stroke-miterlimit:10}.st1{fill:none;stroke-width:2}.st2,.st3{fill:#728dbe}.st3{stroke:#000;stroke-width:3;stroke-miterlimit:10}.st4,.st5{fill:#71a372}.st5{stroke:#000;stroke-width:3;stroke-miterlimit:10}.st6,.st7{fill:#ff837d}.st7{stroke:#000;stroke-width:3;stroke-miterlimit:10}.st8,.st9{fill:#fff}.st9{stroke:#000;stroke-width:3;stroke-miterlimit:10}.st10{fill:#f9de81}.st11,.st12{stroke:#000;stroke-miterlimit:10}.st11{fill:#f9de81;stroke-width:3}.st12{stroke-width:4}.st13{fill:url(#SVGID_1_)}.st14{clip-path:url(#SVGID_3_)}.st0{fill:#fff}</style></defs><g id="layer1" transform="translate(0 -860.362)"><path id="path1179" fill="#14bf96" d="M24.701 904.829a22.373 22.373 0 0 0-10.37 17.596V990.3a22.373 22.373 0 0 0 10.37 17.597l60.898 34.062a23.567 23.567 0 0 0 20.74 0l60.96-34.062a22.373 22.373 0 0 0 10.37-17.597v-67.874a22.373 22.373 0 0 0-10.37-17.596L106.4 870.766a23.567 23.567 0 0 0-20.74 0z" style="fill:#97db99;fill-opacity:1;stroke-width:6.28459"/><g id="g1185" transform="matrix(.99988 0 0 .99988 -75.478 590.314)"><path id="path1181" d="M129.127 356.638c-.072.77-.117 1.595-.128 2.274-.278 17.571 10.736 33.357 27.158 39.61a45.213 45.213 0 0 0 15.342 2.717 45.213 45.213 0 0 0 15.342-2.717c16.423-6.253 27.436-22.039 27.158-39.61-.01-.68-.056-1.505-.128-2.275-.103-1.098-1.194-1.98-2.297-1.926-21.854 1.068-37.95 19.588-37.95 42.153v.978h-4.25v-.978c0-22.565-16.096-41.085-37.95-42.153-1.103-.054-2.194.828-2.297 1.927z" style="fill:#fff;fill-opacity:1;stroke-width:4.24994"/><circle id="circle1183" cx="171.287" cy="343.697" r="12.75" fill="#fff" style="stroke-width:4.24994"/></g></g></svg>