<?xml version="1.0" encoding="UTF-8" standalone="no"?>
<svg
   viewBox="0 0 192 192"
   version="1.1"
   id="svg16"
   sodipodi:docname="kørekort.svg"
   inkscape:version="1.4 (86a8ad7, 2024-10-11)"
   xml:space="preserve"
   xmlns:inkscape="http://www.inkscape.org/namespaces/inkscape"
   xmlns:sodipodi="http://sodipodi.sourceforge.net/DTD/sodipodi-0.dtd"
   xmlns="http://www.w3.org/2000/svg"
   xmlns:svg="http://www.w3.org/2000/svg"
   xmlns:rdf="http://www.w3.org/1999/02/22-rdf-syntax-ns#"
   xmlns:cc="http://creativecommons.org/ns#"
   xmlns:dc="http://purl.org/dc/elements/1.1/"><metadata
     id="metadata20"><rdf:RDF><cc:Work
         rdf:about=""><dc:format>image/svg+xml</dc:format><dc:type
           rdf:resource="http://purl.org/dc/dcmitype/StillImage" /></cc:Work></rdf:RDF></metadata><sodipodi:namedview
     pagecolor="#ffffff"
     bordercolor="#666666"
     borderopacity="1"
     objecttolerance="10"
     gridtolerance="10"
     guidetolerance="10"
     inkscape:pageopacity="0"
     inkscape:pageshadow="2"
     inkscape:window-width="2240"
     inkscape:window-height="1294"
     id="namedview18"
     showgrid="false"
     inkscape:zoom="5.6568543"
     inkscape:cx="102.70726"
     inkscape:cy="103.1492"
     inkscape:window-x="-11"
     inkscape:window-y="-11"
     inkscape:window-maximized="1"
     inkscape:current-layer="svg16"
     inkscape:showpageshadow="2"
     inkscape:pagecheckerboard="0"
     inkscape:deskcolor="#d1d1d1"
     showguides="false"><inkscape:grid
       type="xygrid"
       id="grid827"
       spacingx="4"
       spacingy="4"
       originx="0"
       originy="0"
       units="px"
       visible="false" /></sodipodi:namedview><defs
     id="defs4"><rect
       x="65.491024"
       y="73.634985"
       width="64.473028"
       height="43.179962"
       id="rect2" /><rect
       x="52.307741"
       y="64.544873"
       width="161.98373"
       height="72.021013"
       id="rect1" /><style
       id="style2">.a{fill:none;stroke:#b1b5bd;stroke-linecap:round;stroke-linejoin:round;isolation:isolate;opacity:0.63;}</style></defs><rect
     class="a"
     x="20"
     y="20"
     width="152"
     height="152"
     rx="10"
     id="rect6"
     style="display:inline;opacity:1;fill:#ffd6d4;stroke:none"
     inkscape:label="bg" /><path
     id="path1-0"
     style="display:inline;opacity:1;fill:#54688c"
     inkscape:label="ring"
     d="M 96,39 A 57,57 0 0 0 39,96 57,57 0 0 0 96,153 57,57 0 0 0 153,96 57,57 0 0 0 96,39 Z m 0,7 A 50,50 0 0 1 146,96 50,50 0 0 1 96,146 50,50 0 0 1 46,96 50,50 0 0 1 96,46 Z" /><path
     d="m 67.609221,111 h 15.191753 c 3.694497,0 11.191599,-3.05121 11.420944,-15.106098 C 94.466097,83.05929 83.89568,81.420923 80.731459,81.413675 l -13.092245,-0.02999 z m 6.584217,-5.45 -0.05999,-18.67 H 81 c 2.52555,0 6.792691,2.008963 6.765988,8.983907 C 87.734738,104.0264 84.128756,105.55 81,105.55 Z M 117.38419,111 h 8.26034 L 112.6162,93.990478 122.99778,81.460314 115.72722,81.333065 c -9.33404,12.360184 -0.21484,0.02017 -9.52722,12.308766 V 81.4 H 99.8 V 111 h 6.4 V 94.499242 C 117.18998,110.99807 106.48511,94.472732 117.38419,111 Z"
     id="text3"
     style="font-size:41.3333px;line-height:1;font-family:Now;-inkscape-font-specification:Now;text-align:center;text-anchor:middle;display:inline;opacity:1;fill:#54688c"
     aria-label="DK"
     sodipodi:nodetypes="csssccccsssccccccccccccc" /></svg>
