<svg xmlns="http://www.w3.org/2000/svg" xml:space="preserve" id="svg16" version="1.1" viewBox="0 0 192 192"><defs id="defs4"><style id="style2">.a{fill:none;stroke:#b1b5bd;stroke-linecap:round;stroke-linejoin:round;isolation:isolate;opacity:.63}</style></defs><rect id="rect6" width="152" height="152" x="20" y="-229.763" class="a" rx="10" style="opacity:1;fill:#bd9aff;stroke:none"/><rect id="rect6-2" width="152" height="152" x="20" y="-229.763" class="a" rx="10" style="opacity:.75;isolation:isolate;fill:#ff837d;stroke:none;stroke-linecap:round;stroke-linejoin:round"/><path id="path845" d="M69.857-184.944c-3.004.094-5.01 2.511-4.96 6.338.037 2.9-.657 7.432 2.621 7.86 2.613.34 5.005-2.85 6.896-4.791 1.91-1.963 6.419-5.028 4.3-7.616-1.654-2.022-5.616-1.893-8.857-1.791zm12.852 6.968c-2.278 1.787-3.174 2.828-5.232 4.772-3.31 3.127-6.466 6.204-8.95 9.112-.479.561-1.566 1.467.005 5.296.805 1.96 1.512 4.152 2.941 4.982 2.846 1.654 5.809-2.739 7.839-4.785 2.73-2.751 5.601-4.86 7.419-7.841 1.827-2.997.357-6.388-.021-9.726-.201-1.771-2.083-3.314-4-1.81zm-1.889 23.614c-1.364 1.281-2.4 2.346-4.455 4.314-2.019 1.934.213 4.537 3.814 8.336 2.813 2.968 6.285 6.587 9.891 8.562 2.185 1.196 5.306-2.8 7.174-4.672 2.972-2.979-1.217-4.935-3.17-6.525-3.72-3.03-5.76-5.84-8.973-9.37-1.421-1.562-2.665-2.162-4.28-.645zm31.508 9.732c-3.802.061-6.196 3.544-8.678 5.928-2.568 2.467-4.154 3.582-6.762 6.746-2.648 3.213 1.522 5.223 7.32 7.005 2.794.86 5.235-2.764 7.021-4.608 3.873-3.998 6.79-6.8 9.523-9.888 2.839-3.209-1.077-4.92-4.947-5.158-.847-.053-2.627-.03-3.477-.025zm12.2 8.08c-3.154.486-6.031 4.807-8.254 6.996-2.381 2.347-5.246 5.311-1.151 6.759 2.94 1.038 6.394 1.559 9.397.42 3.467-1.315 3.527-4.6 3.267-7.358-.257-2.734-.143-7.295-3.258-6.816z" style="fill:#fff;stroke-width:.3125"/><rect id="rect1599" width="152" height="152" x="20" y="20" class="a" rx="10" style="fill:#ff837d;stroke:none;opacity:1;fill-opacity:1"/><path id="path1603" d="M65.66 59.817c-3.481.11-5.805 2.91-5.747 7.342.044 3.36-.76 8.61 3.037 9.104 3.027.394 5.797-3.3 7.987-5.549 2.214-2.273 7.436-5.823 4.982-8.821-1.917-2.343-6.506-2.193-10.26-2.076zm14.886 8.072c-2.64 2.07-3.677 3.276-6.061 5.528-3.833 3.622-7.49 7.186-10.367 10.555-.554.65-1.814 1.7.006 6.134.932 2.272 1.752 4.81 3.407 5.771 3.296 1.916 6.728-3.173 9.08-5.542 3.163-3.187 6.488-5.63 8.594-9.084 2.116-3.47.413-7.398-.025-11.265-.232-2.052-2.412-3.84-4.634-2.097zm-2.188 27.354c-1.58 1.483-2.78 2.717-5.16 4.996-2.34 2.24.246 5.256 4.417 9.656 3.258 3.439 7.28 7.63 11.458 9.918 2.53 1.386 6.146-3.244 8.31-5.412 3.442-3.45-1.41-5.716-3.672-7.558-4.31-3.51-6.672-6.765-10.394-10.853-1.647-1.81-3.087-2.505-4.96-.747zm36.497 11.273c-4.405.07-7.177 4.105-10.052 6.866-2.975 2.857-4.813 4.15-7.833 7.814-3.068 3.722 1.763 6.05 8.479 8.115 3.237.995 6.064-3.202 8.133-5.338 4.486-4.63 7.866-7.877 11.03-11.454 3.29-3.717-1.247-5.698-5.73-5.975-.98-.06-3.042-.034-4.027-.028zm14.133 9.36c-3.655.562-6.987 5.566-9.562 8.103-2.758 2.718-6.077 6.152-1.334 7.828 3.405 1.204 7.407 1.807 10.885.487 4.016-1.523 4.086-5.329 3.785-8.522-.298-3.167-.166-8.451-3.774-7.896z" style="opacity:1;fill:#fff;stroke-width:.361984"/></svg>