<svg xmlns="http://www.w3.org/2000/svg" xml:space="preserve" width="192" height="192"><circle cx="96" cy="96" r="88" fill="#9abeff"/><path fill="#fff" d="M74.253 143.8s-15.508-17.566-15.508-35.229c0-19.165 18.879-48.04 18.879-48.04s.474-13.553 5.563-14.496c3.716-.689 7.585 8.428 7.585 8.428h10.282s4.314-9.026 8.09-8.26c4.97 1.01 5.563 14.16 5.563 14.16S133.64 90.4 133.25 108.572c-.451 21.022-15.17 34.892-15.17 34.892-4.542 1.479-9.88 2.626-18.206 2.528l-2.183-2.434h-2.74l-2.145 2.145c-6.25.356-12.615-.23-18.552-1.902z"/><path fill="#9abeff" d="m92.827 71.833 1.264 1.449a2.723 2.723 1.137 0 0 4.032.08l1.52-1.609a1.293 1.293 66.684 0 0-.94-2.18h-4.848a1.364 1.364 114.45 0 0-1.028 2.26zM105.66 62.719a4.074 4.074 0 0 0-2.955 2.955c-.134.534-.134 1.446 0 1.98a4.074 4.074 0 0 0 2.955 2.955c.534.134 1.446.134 1.98 0a4.074 4.074 0 0 0 2.955-2.955c.134-.534-.326-.99-.878-.99h-2.067a1 1 45 0 1-1-1v-2.066c0-.553-.456-1.013-.99-.88zM84.872 62.719a4.074 4.074 0 0 0-2.955 2.955c-.134.534-.134 1.446 0 1.98a4.074 4.074 0 0 0 2.955 2.955c.534.134 1.446.134 1.98 0a4.074 4.074 0 0 0 2.955-2.955c.134-.534-.326-.99-.878-.99h-2.067a1 1 45 0 1-1-1v-2.066c0-.553-.456-1.013-.99-.879z"/><ellipse cx="96.255" cy="108.17" fill="none" stroke="#9abeff" stroke-width="2.785" rx="25.265" ry="27.057"/><path fill="none" stroke="#f8c18c" stroke-linecap="round" stroke-width="3.371" d="m76.703 102.61 5.125-2.582 4.953 2.582M105.78 102.61l5.125-2.582 4.953 2.582M91.242 96.447l5.125-2.582 4.953 2.582"/></svg>