<?xml version="1.0" encoding="UTF-8"?>
<svg version="1.1" viewBox="0 0 192 192" xmlns="http://www.w3.org/2000/svg">
 <defs>
  <linearGradient id="gradient_0" x1="40.34" x2="72.34" y1="54.06" y2="54.06" gradientUnits="userSpaceOnUse">
   <stop stop-color="#F86AB9FF" offset="0"/>
   <stop stop-color="#190DC0CC" offset="1"/>
  </linearGradient>
 </defs>
 <g transform="matrix(2.5882 0 0 2.5882 -43.765 -43.765)">
  <path d="m54 54m-34 0a34 34 45 1 1 68 0 34 34 0 1 1-68 0" fill="#000000FF" style="fill:#56595b"/>
  <g fill="#383838">
   <path d="m41.08 81.28c-3.59-1.64-6.87-3.98-9.57-6.87-2.69-2.9-4.79-6.34-6.17-10.05-1.37-3.72-2.01-7.7-1.86-11.66s1.1-7.89 2.75-11.49c1.67-3.6 4.05-6.86 6.97-9.54s6.37-4.77 10.09-6.13 7.7-1.98 11.66-1.81c3.95 0.18 7.86 1.16 11.43 2.83-7.18-3.3-15.64-3.59-23.01-0.84-3.69 1.37-7.1 3.46-9.99 6.13s-5.23 5.91-6.87 9.48c-1.65 3.56-2.61 7.45-2.77 11.37-0.17 3.93 0.45 7.88 1.8 11.58 2.68 7.4 8.38 13.65 15.55 16.99z" style="fill:#979797"/>
   <path d="m42.77 77.62c-3.11-1.41-5.95-3.44-8.29-5.94-2.34-2.51-4.16-5.5-5.36-8.71-1.19-3.22-1.74-6.67-1.61-10.11 0.13-3.43 0.95-6.84 2.38-9.96 1.45-3.12 3.51-5.95 6.05-8.27 2.53-2.32 5.52-4.14 8.75-5.31 3.22-1.18 6.68-1.72 10.1-1.57 3.43 0.16 6.81 1.01 9.9 2.47-6.23-2.85-13.55-3.1-19.94-0.71-3.19 1.18-6.15 3-8.64 5.31-2.5 2.31-4.52 5.12-5.94 8.21-1.43 3.08-2.26 6.45-2.4 9.85-0.15 3.4 0.39 6.83 1.55 10.03 2.32 6.41 7.25 11.83 13.46 14.73z" style="fill:#979797"/>
   <path d="m44.41 74.06c-2.65-1.2-5.06-2.92-7.06-5.05-1.99-2.13-3.55-4.66-4.57-7.4s-1.49-5.68-1.38-8.6 0.81-5.82 2.03-8.47c1.23-2.65 2.98-5.06 5.14-7.04 2.15-1.98 4.69-3.53 7.44-4.52s5.68-1.45 8.6-1.31c2.91 0.14 5.79 0.87 8.41 2.11-5.29-2.42-11.51-2.61-16.93-0.58-2.71 1.01-5.22 2.54-7.34 4.51-2.12 1.96-3.84 4.34-5.05 6.96s-1.91 5.47-2.03 8.36 0.34 5.79 1.32 8.51c1.96 5.45 6.14 10.06 11.41 12.52z" style="fill:#979797"/>
   <path d="m64.99 25.04c3.81 1.38 7.35 3.51 10.34 6.25 2.99 2.75 5.42 6.09 7.13 9.78s2.69 7.71 2.85 11.77c0.17 4.06-0.48 8.16-1.88 11.98-1.42 3.81-3.58 7.35-6.35 10.32-2.77 2.98-6.12 5.4-9.82 7.09-3.69 1.69-7.72 2.65-11.77 2.8-4.06 0.14-8.13-0.54-11.92-1.97 7.62 2.79 16.29 2.4 23.61-1.02 3.66-1.7 6.99-4.12 9.72-7.08 2.74-2.96 4.86-6.47 6.25-10.26 1.4-3.78 2.06-7.83 1.91-11.86-0.15-4.02-1.1-8.02-2.78-11.68-3.35-7.36-9.69-13.29-17.29-16.12z" style="fill:#979797"/>
   <path d="m63.89 28.01c3.42 1.24 6.6 3.15 9.29 5.61 2.68 2.47 4.87 5.47 6.41 8.78 1.53 3.31 2.41 6.92 2.56 10.57 0.16 3.65-0.43 7.33-1.68 10.76-1.27 3.43-3.22 6.6-5.71 9.27-2.48 2.68-5.5 4.85-8.82 6.37s-6.93 2.38-10.57 2.51c-3.64 0.12-7.3-0.49-10.7-1.77 6.84 2.5 14.62 2.15 21.19-0.92 3.29-1.52 6.27-3.7 8.72-6.36s4.36-5.81 5.61-9.2c1.26-3.39 1.85-7.03 1.72-10.64-0.13-3.62-0.99-7.2-2.5-10.5-3-6.6-8.69-11.92-15.51-14.47z" style="fill:#979797"/>
   <path d="m62.49 31.81c2.92 1.05 5.64 2.68 7.94 4.78s4.17 4.67 5.49 7.49c1.32 2.83 2.07 5.92 2.19 9.04 0.13 3.12-0.37 6.26-1.45 9.2-1.09 2.93-2.75 5.64-4.87 7.93s-4.7 4.16-7.54 5.45-5.93 2.02-9.04 2.13c-3.11 0.1-6.24-0.43-9.14-1.53 5.84 2.13 12.49 1.82 18.09-0.82 2.8-1.31 5.35-3.15 7.44-5.42s3.73-4.95 4.79-7.85c1.07-2.89 1.58-6 1.46-9.08-0.11-3.09-0.85-6.14-2.13-8.95-2.55-5.64-7.4-10.19-13.22-12.37z" style="fill:#979797"/>
  </g>
  <path d="m27.4 32.82c-3.8 4.77-6.34 10.57-7.14 16.92l33.74 4.26z" fill="#3a3a3a" style="fill:#979797"/>
  <path d="m54 54 26.6 21.18c3.8-4.76 6.34-10.57 7.14-16.92z" fill="#3a3a3a" style="fill:#979797"/>
  <path d="m54 54m-17.62 0a17.625 17.625 135 1 1 35.25 0 17.625 17.625 45 1 1-35.25 0" fill="#a1b0b7" style="fill:#b1b5bd"/>
  <path d="m54 54m-16.43 0a16.43 16.43 45 1 1 32.86 0 16.43 16.43 135 1 1-32.86 0" fill="#86959e" style="fill:#979797"/>
  <path d="m70.31 55.92c0.07-0.63 0.12-1.27 0.12-1.92 0-9.07-7.36-16.43-16.43-16.43s-16.43 7.36-16.43 16.43c0 0.65 0.04 1.29 0.12 1.92z" fill="#ce4141" style="fill:#ff837d"/>
  <g fill="#fff">
   <path d="m54 54m-3.11 0a3.115 3.115 0 1 1 6.23 0 3.115 3.115 0 1 1-6.23 0" style="fill:#fff"/>
   <path d="m44.02 34.47a3.68 3.68 0 0 0-3.68 3.68v31.81a3.68 3.68 0 0 0 3.68 3.68 3.68 3.68 0 0 0 3.68-3.68v-31.81a3.68 3.68 0 0 0-3.68-3.68z" stroke="url(#gradient_0)" stroke-linecap="round" stroke-linejoin="round" stroke-width="1.49" style="fill:#fff;stroke:#56595b"/>
   <path d="m69.46 34.56a3.68 3.68 0 0 0-3.51 1.1l-14.71 16a3.68 3.68 0 0 0 0.01 4.99l14.71 15.81a3.68 3.68 69.53 0 0 5.2 0.19 3.68 3.68 0 0 0 0.19-5.2l-12.39-13.32 12.4-13.49a3.68 3.68 0 0 0-0.22-5.2 3.68 3.68 0 0 0-1.69-0.88z" stroke="url(#gradient_1)" stroke-linecap="round" stroke-linejoin="round" stroke-width="1.49" style="fill:#fff;stroke:#56595b"/>
  </g>
 </g>
</svg>
