<?xml version="1.0" encoding="UTF-8"?><svg id="a" xmlns="http://www.w3.org/2000/svg" viewBox="0 0 192 192"><g id="b"><g id="c"><path id="d" d="M147.44,99.85c-1.77-9.09-10.58-15.03-19.68-13.26,0,0-.02,0-.02,0l-12,2.35c-.08.02-.15.02-.23.02-.38-.01-.72-.24-.88-.59-.18-.35-.13-.77.13-1.06l8.41-10.49c.99-1.25,1.8-2.63,2.39-4.1,3.33-8.33-.72-17.78-9.04-21.11-.09-.03-.17-.07-.26-.1-1.81-.69-3.74-1.05-5.68-1.05-6.72.06-12.74,4.17-15.25,10.4l-15.5,38.76c-.32.8-.54,1.64-.66,2.5-.8,5.84,3.28,11.22,9.12,12.03l40.42,5.55c.76.1,1.52.15,2.28.15,9.27,0,16.79-7.51,16.79-16.78,0-1.08-.1-2.16-.31-3.23h-.01Z" style="fill:#f9de81;"/><g id="e"><path id="f" d="M127.93,89.04l-12,2.35c-1.95.38-3.83-.89-4.21-2.84-.2-1.03.06-2.1.72-2.93l8.4-10.49c.84-1.05,1.52-2.22,2.02-3.47,2.8-7.02-.62-14.98-7.64-17.77-.06-.03-.13-.05-.19-.07-7.05-2.6-14.88.91-17.63,7.91l-15.5,38.76c-.24.61-.41,1.25-.51,1.91-.61,4.43,2.49,8.51,6.92,9.12h.14l40.27,5.53c1.55.21,3.13.16,4.67-.13,7.7-1.51,12.72-8.98,11.21-16.69-1.51-7.7-8.98-12.72-16.69-11.21h0v.03Z" style="fill:none;"/><path id="g" d="M41.31,52.13c3.3-1.9,4.42-6.12,2.52-9.41-1.9-3.3-6.12-4.42-9.41-2.52-3.3,1.9-4.42,6.12-2.52,9.41,1.9,3.3,6.12,4.42,9.41,2.52Z" style="fill:#56595b;"/><path id="h" d="M18.34,65.4c3.3-1.9,4.42-6.12,2.52-9.41-1.9-3.3-6.12-4.42-9.41-2.52-3.3,1.9-4.42,6.12-2.52,9.41,1.9,3.3,6.12,4.42,9.41,2.52Z" style="fill:#56595b;"/><path id="i" d="M150.94,35.88c-11.33-19.61-36.31-26.5-56.09-15.47l-.53.3c-1.26.72-2.47,1.51-3.65,2.36l-.09.06c-13.43,9.29-23.11,23.06-27.32,38.84-.26.98-.5,1.97-.73,2.96-.34,1.47-1.81,2.39-3.28,2.05-.22-.05-.43-.13-.63-.23-5.46-2.8-11.21-5.01-17.14-6.6-2.1-.56-4.21-1.04-6.35-1.45-3.3-.62-6.56,1.26-7.67,4.43-.72,2.05-1.36,4.12-1.92,6.22-5.96,22.16-2.84,45.78,8.66,65.63l.1.18.24.41.27.46c12.67,21.3,33.89,36.13,58.26,40.7,3.3.62,6.56-1.26,7.67-4.43.72-2.05,1.36-4.12,1.92-6.22,1.58-5.88,2.53-11.91,2.85-17.99.08-1.51,1.36-2.67,2.87-2.59.23.01.46.05.68.12,14.64,4.67,30.42,4.3,44.83-1.04,3.27-.93,6.42-2.27,9.36-3.97,1.62-.94,3.18-1.98,4.66-3.13,18.1-14.02,21.41-40.07,7.38-58.17-5.04-6.5-11.89-11.36-19.7-13.95,2.17-10.07.51-20.58-4.67-29.49h0ZM144.62,100.27c1.51,7.7-3.51,15.17-11.22,16.68,0,0,0,0,0,0-1.54.29-3.11.34-4.67.13l-40.27-5.53h-.14c-4.43-.61-7.53-4.69-6.92-9.12.09-.65.26-1.29.51-1.91l15.5-38.76c2.75-6.99,10.58-10.5,17.63-7.91,7.06,2.69,10.6,10.6,7.9,17.66-.02.06-.05.13-.07.19-.5,1.25-1.19,2.41-2.02,3.47l-8.4,10.49c-1.24,1.55-.99,3.81.56,5.04.82.66,1.89.92,2.93.72l12-2.35c7.7-1.51,15.16,3.5,16.68,11.2h0Z" style="fill:#56595b;"/></g></g></g></svg>