<?xml version="1.0" encoding="UTF-8"?><svg id="a" xmlns="http://www.w3.org/2000/svg" viewBox="0 0 192 192"><g id="b"><g id="c"><rect id="d" x="20" y="20" width="152" height="152" rx="10" ry="10" style="fill:#98dc9a;"/><path d="M67.73,107.8c-2.9-.28-6.45-2.34-8.2-4.66-6.21-8.22-.94-19.31,9.15-19.99h14.83c-4.61-6.6-3.21-15.59,3.04-20.59,12.33-9.86,29.97,3.72,23.29,18.29-.36.8-.88,1.49-1.21,2.3h14.71c10.57.63,15.72,12.99,8.45,20.84-1.5,1.62-5.28,3.81-7.5,3.81h-4.82l21.55,25h-32.44l-12.52-14.28c-.25-.04-2.04,2.25-2.36,2.61-3.43,3.86-6.81,7.79-10.24,11.67h-32.44l21.55-25c-1.55-.11-3.29.15-4.82,0ZM102.71,82.13c7.72-6.79,1.85-19.22-8.19-17.77-4.61.67-8.41,4.51-8.76,9.21-.69,9.2,9.98,14.69,16.95,8.56ZM108.62,102.92h14.35c2.57,0,5.56-2.01,6.59-4.36,2.11-4.79-1.12-9.97-6.23-10.41h-54.65c-5.75.51-8.92,6.92-5.39,11.71,1.23,1.67,3.64,3.06,5.75,3.06h14.46l-21.67,24.88h19.35l14.78-16.9,14.86,16.9h19.35l-21.55-24.88Z" style="fill:#56595b;"/><path d="M108.62,102.92l21.55,24.88h-19.35l-14.86-16.9-14.78,16.9h-19.35l21.67-24.88h-14.46c-2.11,0-4.53-1.39-5.75-3.06-3.53-4.79-.35-11.2,5.39-11.71h54.65c5.11.43,8.34,5.61,6.23,10.41-1.03,2.35-4.02,4.36-6.59,4.36h-14.35Z" style="fill:#fff;"/><path d="M102.71,82.13c-6.97,6.13-17.64.64-16.95-8.56.35-4.7,4.15-8.55,8.76-9.21,10.04-1.45,15.91,10.98,8.19,17.77Z" style="fill:#fff;"/></g></g></svg>