<svg xmlns="http://www.w3.org/2000/svg" xml:space="preserve" style="fill-rule:evenodd;clip-rule:evenodd;stroke-linejoin:round;stroke-miterlimit:2" viewBox="0 0 192 192"><path d="M164.5 21.5c0-5.519-4.481-10-10-10h-133c-5.519 0-10 4.481-10 10v133c0 5.519 4.481 10 10 10h133c5.519 0 10-4.481 10-10v-133Z" style="fill:#fff" transform="translate(8 8)"/><path d="M154.298 111.543c0-.722-.553-1.308-1.236-1.308H40.722c-.682 0-1.236.586-1.236 1.308v.003c0 7.018 2.635 13.748 7.324 18.711 4.689 4.962 11.05 7.75 17.681 7.75h64.802c6.632 0 12.992-2.788 17.681-7.75 4.69-4.963 7.324-11.693 7.324-18.711v-.003Z" style="fill:#f8c18c" transform="matrix(.85174 0 0 .80487 13.387 18.962)"/><path d="M154.298 92.803c0-10.781-4.348-21.12-12.087-28.743-7.739-7.623-18.236-11.906-29.181-11.906H78.652c-10.945 0-21.442 4.283-29.181 11.906-7.739 7.623-12.087 17.962-12.087 28.743v.001h116.914v-.001Z" style="fill:#f8c18c" transform="matrix(.83642 0 0 .84917 15.75 17.673)"/><g transform="matrix(.85174 0 0 .78727 13.387 20.901)"><circle cx="84.253" cy="82.596" r="5.027" style="fill:#ba6561"/><circle cx="107.215" cy="85.079" r="2.544" style="fill:#ba6561"/><circle cx="107.215" cy="85.079" r="2.544" style="fill:#ba6561" transform="translate(26.81 -13.546)"/><circle cx="107.215" cy="85.079" r="2.544" style="fill:#ba6561" transform="translate(5.089 -22.98)"/><circle cx="107.215" cy="85.079" r="2.544" style="fill:#ba6561" transform="translate(-22.962 -21.614)"/><circle cx="107.215" cy="85.079" r="2.544" style="fill:#ba6561" transform="translate(-39.843 -15.036)"/><circle cx="119.898" cy="74.077" r="2.11" style="fill:#ba6561"/><circle cx="131.591" cy="85.465" r="2.186" style="fill:#ba6561"/><circle cx="91.783" cy="73.365" r="1.474" style="fill:#ba6561"/><circle cx="55.84" cy="86.889" r="2.084" style="fill:#ba6561"/></g><path d="M145.509 103.404s-13.108 16.334-16.285 17.764c-3.178 1.43-1.93 2.948-9.088-2.681-7.158-5.629-21.312-8.447-21.052-8.252.26.195 11.989-16.65 11.989-16.65l34.436 9.819Z" style="fill:#f9de81" transform="matrix(.85174 0 0 .78727 13.387 20.901)"/><path d="M47.72 98.979h-7.761A2.98 2.98 0 0 1 36.98 96a2.98 2.98 0 0 1 2.979-2.979h114.068A2.98 2.98 0 0 1 157.006 96a2.98 2.98 0 0 1-2.979 2.979h-1.797v4.699h-3.742v1.058h5.539a2.98 2.98 0 0 1 2.979 2.979 2.98 2.98 0 0 1-2.979 2.979H39.959a2.98 2.98 0 0 1-2.979-2.979 2.98 2.98 0 0 1 2.979-2.979h12.353v-1.058H47.72v-4.699Z" style="fill:#ba6561" transform="matrix(.85174 0 0 .78727 13.387 20.901)"/><path d="M149.663 106.382c8.405 1.907 8.54-10.382 0-8.721-8.54 1.661-47.067 5.743-68.416 1.318C59.899 94.554 47.352 96 47.352 96s-14.786.859-7.393 12.03 19.029-4.626 29.269-4.626c10.24 0 12.667 16.34 40.669 2.978 0 0 10.404-5.782 39.766 0" style="fill:#98dc9a" transform="matrix(.85174 0 0 .78727 13.387 20.901)"/></svg>