<svg xmlns="http://www.w3.org/2000/svg" xml:space="preserve" width="192" height="192"><path fill="#FF877F" d="M183 170.837c0 6.718-5.445 12.163-12.163 12.163H21.163C14.445 183 9 177.555 9 170.837V21.163C9 14.445 14.445 9 21.163 9h149.674C177.555 9 183 14.445 183 21.163v149.674z"/><g fill="#FFF"><path d="M61 140h3v18h-3zM67.926 148.4l6.025-8.4h-3.696l-6.053 8.486 6.67 9.514h3.898zM103 142.43c0-1.084-1.171-2.43-2.326-2.43h-8.381c-1.156 0-2.293 1.346-2.293 2.43v14.441c0 1.083 1.137 2.129 2.293 2.129h8.381c1.155 0 2.326-1.046 2.326-2.129V142.43zM100 155h-7v-12h7v12zM88 140h-3v8h-5v-8h-3v8.624c0 1.147.051 2.376 1.2 2.376H85v4h-8v3h8.715c1.148 0 2.285-.886 2.285-2.034V149h-.216c.006 0 .216-.311.216-.376V140zM115 155h-7v-12h7v-3h-8.046c-1.148 0-1.954 1.089-1.954 2.237v13.729c0 1.148.806 2.034 1.954 2.034H115v-3zM130 143v-3h-9.146c-1.148 0-1.854 1.089-1.854 2.237v13.729c0 1.148.706 2.034 1.854 2.034H130v-3h-8v-4h8v-3h-8v-5h8zM141.726 140H132v18h3v-15h5v5h-4.103l5.648 10h3.42l-4.268-7h1.027c1.149 0 2.274-1.605 2.274-2.754v-6.009c.002-1.148-1.123-2.237-2.272-2.237zM156.157 140H147v3h8v4h-6.546c-1.148 0-2.454 1.433-2.454 2.58v6.386c0 1.148 1.306 2.034 2.454 2.034H159v-15.763c0-1.148-1.694-2.237-2.843-2.237zM155 155h-6v-4h6v4zM50.921 148.807l-.019.019.019.019z"/><path d="m55.859 153.885-5.041-4.98.083-.078-.398-.079L55 143.905V136h-7.326L42 141.055V141h9v7.689L42.187 141H34v17h8.113H42v-.502l.297.025L51 148.961V158h-8.926l5.79 4.467 8.032-.205-.037-8.377zm-21.706-5.235.162-.043-.133.048L42 141.041v16.482l-7.847-8.873z"/></g><path fill="#FFF" d="M37.854 32.283s-5.602 1.38-6.251 1.705c0 0 2.679-1.38 5.602-2.111l.649.406z"/><path fill="#B1B5BC" d="m37.042 29.928-.406 2.111 13.841 3.572-1.766 2.436s-1.614 0-1.614 1.461l3.415 51.144 2.438 1.136-17.859 6.658s-.811.108-.811 1.081l.325 2.166s-.081.73.487.975l14.531 8.929 1.926.081L62 117.929v1.623l16.097 10.391s2.933 1.786 6.424-.405l20.261-12.745c-.001-.001 6.351 4.127 12.28 4.222 5.114.08 9.349-3.491 9.349-3.491l26.146-19.727.977-6.495 1.057-.73 6.09-48.546c.078-.626-.398-.659-.719-.946-.187-.17.038-.44.038-.68v-3.978s-.377-1.569-2.109-1.731l-34.608-1.19s-40.875-1.516-45.637-.649l-19.949-2.49-20.655-.434z"/><path fill="#97999B" d="m158.329 60.776.271-2.165c-.439-1.794-2.19-3.905-8.393-2.489-9.958 2.273-44.812 8.335-44.812 13.206 0 0 8.009 1.948 11.689 2.381 3.681.433 6.387.65 14.612-2.056l26.633-8.877z"/><path fill="#56595B" d="M158.372 60.437c1.236-9.867 2.302-18.36 2.309-18.412.077-.626-.399-.659-.72-.946-.186-.169.039-.439.039-.679v-3.978s-.377-1.569-2.109-1.731l-34.608-1.19s-40.875-1.516-45.637-.649l-19.949-2.49-20.637-.433-.415 2.111 13.837 3.572-1.768 2.436s-1.614 0-1.614 1.461l1.117 16.741 57.18 13.08.866-.216s9.416 2.176 13.205 2.272c4.222.109 10.282-1.623 19.916-4.654l18.988-6.295z"/><path fill="#97999B" d="M121.43 36.098s-.578 6.617-2.201 7.997c0 0-1.229.446-1.229 1.339v15.668l4.494.974.301-15.993s.108-1.217.677-1.867.907-2.598 1.395-4.141c.486-1.542.981-3.653.981-3.653s-2.267 0-4.418-.324z"/><path fill="#FFF" d="m158.651 41.212-17.292 1.624s3.979-.162 3.491.082-7.388 1.055-7.388 1.055l22.162-2.192c.001 0-1.785-.244-.973-.569zM109.536 43.161s6.576 1.055 15.669.974c0 0-3.572.405-9.093.081-5.52-.324-6.819-.568-6.576-1.055zM110.592 44.541s5.195.568 9.417.649c4.222.082 9.011-.243 12.258-.406 0 0-6.656.812-11.933.812s-9.742-1.055-9.742-1.055zM120.983 36.017s-.73.73-.812 1.461c0 0-1.624.081-4.628-.163-3.004-.243-3.41-.243-3.41-.243s.406-1.624 1.218-1.624c.813 0 6.739.569 7.632.569zM122.201 35.529s3.085.244 5.763.082c2.68-.163 27.439-.649 27.439-.649l-25.004.811s-6.575.406-8.198-.244z"/><path fill="#97999B" d="m107.345 44.054-.974 20.295.081-19.159s.081-1.136.893-1.136zM104.585 43.892s-.975.325-.975.649l-44.406-3.896 45.381 3.247zM45.242 34.231s-9.011-.812-13.801 1.298l6.981-3.247 6.82 1.949zM55.146 39.67l-6.9-.974s.162-.163.568-.244l.731-.812c-.001 0 .405 1.543 5.601 2.03z"/><path fill="#262626" d="m50.193 35.448 15.425 3.572 9.903.162-17.86-8.821s-1.055 1.515-1.136 2.408l-19.89-.73 13.372 3.451.186-.042z"/><path fill="#56595B" d="m74.025 77.284-13.052 2.3s-1.258-.094-.825 1.205L105 98.12V87.08l-30.975-9.796z"/><path fill="#97999B" d="m54.957 61.535 5.844 11.04 26.736 8.876-27.06-8.443z"/><path fill="#56595B" d="m104.656 116.887.149-.095s.09.058.251.156l.379-9.078-.402-.018-.377 9.035z"/><path fill="#D7D8DB" d="M72.437 77.5s-3.571.325-4.626-.406c-1.056-.73-2.598-2.517-4.709-2.03-2.111.487-1.461 1.056-1.055 1.949s.812 2.111.244 2.354L72.437 77.5z"/><path fill="#97999B" d="M63 91.301v-.974l-25.968 10.5 42.341 25.626s1.626 1.218 3.575-.406l15.932-11.474 4.332-6.169 1.788-.866V98.12L75.016 86.701 63 91.301z"/><path fill="#FFF" d="M67.404 83.426s-1.542 0-2.517-.406c-.974-.406-1.705-.244-1.705.649l.081 1.624-2.841 3.897-25.33 9.255s-.81.203-.729.893c.042.352.735.686.735.686l44.32 26.889s1.299 1.082 2.707 0l18.076-11.69 3.938-6.427 1.691-.934-.596-.324-1.38.812-4.101 6.495-17.859 11.812s-1.339.852-2.436-.203L35.053 99.541s-.528-.406.325-.771l25.247-9.133 3.044-4.181-.041-1.786s-.149-.676.663-.541c.813.135 2.058.514 3.113.297z"/><path fill="#56595B" d="m55.088 85.997-5.021-2.019.024.358 4.878 1.962zM105.234 108.268l.596-.406s7.197 3.979 13.123 3.734c0 0 3.41 0 7.551-3.085l27.032-17.21-26.951 17.535s-3.978 3.085-7.794 3.166c-4.383.094-10.228-1.786-13.557-3.734zM147.291 96.372 139 101.761v.781l8.142-5.37z"/><path fill="#FFF" d="M147.291 96.697 139 102.084v.783l8.142-5.371z"/><path fill="#56595B" d="M147.291 97.996 139 103.383v.783l8.142-5.371z"/><path fill="#FFF" d="M147.291 98.32 139 103.708v.782l8.142-5.37z"/><path fill="#56595B" d="M147.291 99.619 139 105.007v.782l8.142-5.37z"/><path fill="#FFF" d="M147.291 99.944 139 105.332v.782l8.142-5.37z"/><path fill="#D7D8DB" d="m45.593 98.553 17.671-7.252 4.55-1.84L105 105.156v1.082l-24.911 17.319L43 102.774v-.756l1.676-.759-.976-.324 2.868-1.299-.893-.434z"/><path fill="#56595B" d="m45.593 98.553 35.558 19.267 18.725-9.742-18.4 10.5-35.829-19.376z"/><path fill="#56595B" d="m44.457 101.259 35.719 19.267 24.355-14.829-24.355 15.37-36.152-19.591z"/><path fill="#56595B" d="M43 102.018v.756l37.205 20.783 25.139-17.319-25.003 16.561zM109.239 106.184c-1.373 0-2.49-1.189-2.49-2.651s1.117-2.651 2.49-2.651c1.372 0 2.49 1.189 2.49 2.651s-1.118 2.651-2.49 2.651zm0-4.979c-1.193 0-2.165 1.044-2.165 2.327s.972 2.327 2.165 2.327 2.164-1.044 2.164-2.327-.97-2.327-2.164-2.327z"/><path fill="#D7D8DB" d="M109.239 105.721c-1.134 0-2.057-.982-2.057-2.188 0-1.207.923-2.189 2.057-2.189s2.057.982 2.057 2.189c0 1.205-.923 2.188-2.057 2.188zm0-4.053c-.955 0-1.731.836-1.731 1.864s.776 1.863 1.731 1.863 1.731-.835 1.731-1.863-.776-1.864-1.731-1.864z"/><path fill="#97999B" d="m96.684 35.773 14.774.542s-1.678 3.68-2.003 4.6c0 0-.486-.054-1.516-.433-1.027-.379-10.714-4.276-11.255-4.709z"/><path fill="#FFF" d="M108.884 102.04h.403v1.61h-.403z"/><path fill="#FFF" d="M110 102.444v.453c0 .173.188.393.188.635 0 .549-.427.996-.935.996s-.75-.447-.75-.996c0-.302.496-.57.496-.752v-.4c0 .225-.828.654-.828 1.152 0 .728.469 1.32 1.156 1.32.687 0 1.229-.593 1.229-1.32.001-.451-.556-.849-.556-1.088zM57.662 30.361 76.74 40.644s7.063-6.575 31.418.163l.216-.325s-9.254-5.52-30.794-7.631l-19.918-2.49z"/><path fill="#D6D7D8" d="M77.146 36.422C71.219 33.825 59.61 31.39 59.61 31.39l-.031.005 17.16 9.25s7.063-6.575 31.418.163c-27.927-8.363-31.011-4.386-31.011-4.386z"/><path fill="#F9DE90" d="M76.902 39.589s2.029-1.299 3.734-1.705l-3.491-1.461c-4.276-1.874-11.509-3.664-15.207-4.515l14.964 7.681z"/><path fill="#99BEF9" d="m80.465 35.523 4.108 1.833c.349-.029.716-.056 1.098-.08l-4.028-1.796c-.431.004-.823.019-1.178.043zm6.978.395 2.857 1.274c.461.012.929.031 1.404.058l-2.328-1.039a74.7 74.7 0 0 0-1.933-.293zm-9.382.016 3.857 1.72c.292-.043.622-.087.983-.13l-4.035-1.799a6.523 6.523 0 0 0-.805.209zm7.276-.266 3.378 1.506c.424-.002.856.001 1.298.01l-2.955-1.318a59.768 59.768 0 0 0-1.721-.198zm-2.319-.165 3.841 1.713c.389-.016.788-.027 1.2-.034l-3.564-1.589a35.326 35.326 0 0 0-1.477-.09zm8.815 1.151a97.736 97.736 0 0 0-2.15-.391l2.243 1c.508.031 1.023.07 1.542.12l-1.635-.729zM77.579 32.851l-.446-.056c-.001.473.024 1.123.175 1.274.244.243.649.568.974 0 .325-.568 1.218.162 1.218-.082 0-.21.003-.54.417-.887a149.34 149.34 0 0 0-2.338-.249zm-5.711 1.055c.487 0 1.056-.649 1.461 0s.568-.406.974.081c.406.487 1.056.73 1.38.082.308-.616.688.223.866-1.347l-4.235-.529c-.301.611-.798 1.713-.446 1.713z"/><path fill="#97999B" d="M116.924 34.042s-.974.054-2.868.27-2.11 1.407-2.11 1.407l-3.031 6.819 3.41-6.981s.419-.839 1.758-1.001l2.761-.244.08-.27z"/><path fill="#87DCA4" d="M116 34h4v1h-4z"/><path fill="#FF877F" d="M121 34h4v1h-4z"/><path fill="#97999B" d="m53.535 58.579 2.147 32.377-.671.268-2.148-32.881zM105.272 70.858l.134 32.78-.671.269-.134-33.283z"/></svg>