<svg xmlns="http://www.w3.org/2000/svg" fill="none" viewBox="0 0 192 192">
  <mask id="a" width="153" height="153" x="19" y="19" maskUnits="userSpaceOnUse" style="mask-type:luminance">
    <path fill="#fff" d="M161.56 19.5H29.44a9.93 9.93 0 0 0-9.93 9.93v132.14a9.93 9.93 0 0 0 9.93 9.93h132.14a9.93 9.93 0 0 0 9.93-9.94V29.44a9.93 9.93 0 0 0-9.94-9.93Z"/>
  </mask>
  <g mask="url(#a)">
    <path fill="#728DBE" d="M161.56 19.5H29.44a9.93 9.93 0 0 0-9.93 9.93v132.14a9.93 9.93 0 0 0 9.93 9.93h132.14a9.93 9.93 0 0 0 9.93-9.94V29.44a9.93 9.93 0 0 0-9.94-9.93Z"/>
    <path fill="#B02A3C" d="M171.5 95.5h-152v76h152v-76Z"/>
    <path fill="#fff" d="M51.9 117.64h-4.45V129h1.86v-4.83h2.59c1.84 0 3.28-1.4 3.28-3.24 0-1.82-1.44-3.3-3.28-3.3Zm-.26 4.92H49.3v-3.24h2.33c.98 0 1.72.65 1.72 1.63 0 1-.74 1.61-1.72 1.61Zm10.25 1.5a3.12 3.12 0 0 0 2.46-3.09 3.28 3.28 0 0 0-3.28-3.33h-4.45V129h1.86v-4.77h1.57l3.01 4.77h2.08l-3.25-4.94Zm-3.41-1.44v-3.26h2.37c.96 0 1.68.66 1.68 1.63 0 .97-.72 1.63-1.68 1.63h-2.37Zm13.35 6.53a5.83 5.83 0 1 0 0-11.67 5.83 5.83 0 0 0 0 11.67Zm0-1.84c-2.24 0-4-1.74-4-4 0-2.25 1.76-3.99 4-3.99 2.25 0 4 1.75 4 4s-1.75 4-4 4Zm14.55-9.67h-7.86v1.72h3.01V129h1.84v-9.64h3.01v-1.72Zm7.9 1.68v-1.68h-6.52V129h6.51v-1.69h-4.66v-3.14h4.04v-1.7H89.6v-3.15h4.66Zm7.6 9.83a5.8 5.8 0 0 0 5.11-3.05l-1.59-.85a3.94 3.94 0 0 1-3.52 2.06c-2.24 0-4-1.74-4-4 0-2.25 1.76-3.99 4-3.99 1.53 0 2.86.82 3.52 2.07l1.6-.86a5.84 5.84 0 1 0-5.11 8.62Zm13.56-11.51h-7.86v1.72h3V129h1.85v-9.64h3v-1.72Zm1.38 11.36h1.85v-11.36h-1.86V129Zm9.82.15a5.83 5.83 0 1 0 0-11.67 5.83 5.83 0 0 0 0 11.67Zm0-1.84c-2.23 0-4-1.74-4-4 0-2.25 1.77-3.99 4-3.99 2.26 0 4 1.75 4 4s-1.74 4-4 4Zm16.07-9.67v8.42l-6.3-8.42h-1.86V129h1.85v-8.45l6.3 8.45h1.85v-11.36h-1.84ZM63.39 132.9l-6.36 14.18-6.34-14.18h-3.16V151h2.95v-12.46L56.03 151H58l5.61-12.49V151h2.93v-18.1h-3.14ZM81.5 151h3.19l-6.55-18.1h-3.28L68.3 151h3.2l1.3-3.83h7.39l1.3 3.83Zm-7.82-6.43 2.84-8.44 2.83 8.44h-5.67ZM86.61 151h2.95v-18.1h-2.95V151Zm12.1.24c3.25 0 5.9-1.93 5.9-5.19 0-6.42-8.56-4.85-8.56-8.56 0-1.42 1.12-2.08 2.44-2.08 1.2 0 2.3.54 3.1 1.56l2.1-1.9a6.71 6.71 0 0 0-5.2-2.4c-2.83 0-5.4 1.77-5.4 5.03 0 6 8.57 4.52 8.57 8.35 0 1.48-1.24 2.36-2.93 2.36a4.04 4.04 0 0 1-3.86-2.57l-2.53 1.54a6.93 6.93 0 0 0 6.36 3.86Zm17.24 0a9.3 9.3 0 1 0 0-18.59 9.3 9.3 0 0 0 0 18.6Zm0-2.92a6.29 6.29 0 0 1-6.36-6.37c0-3.59 2.8-6.36 6.36-6.36a6.27 6.27 0 0 1 6.37 6.36 6.27 6.27 0 0 1-6.37 6.37Zm25.6-15.42v13.42L131.5 132.9h-2.96V151h2.96v-13.45L141.5 151h2.96v-18.1h-2.93Z"/>
    <path fill="#F9DE81" d="M127.37 71.91H146v-2.37h-19.92V43.49h-7.92v20.89c0 5.92 3 7.53 9.21 7.53ZM71.49 71.91H55.21c-6.1 0-9.21-1.61-9.21-7.53V43.49h7.93v25.94h15.21c.66.93 1.45 1.77 2.35 2.48ZM95.57 43c-15.2 0-24 6.24-24 15.39 0 8.72 9.09 14.21 22.36 14.21 4.17.06 8.32-.52 12.32-1.72v-3A23.21 23.21 0 0 1 96 70.19c-10.27 0-16-6.25-16-12.39 0-7.31 6.3-12.48 16-12.48 3.48.02 6.92.79 10.07 2.26v-3.23A43.65 43.65 0 0 0 95.57 43Z"/>
  </g>
</svg>
