<svg xmlns="http://www.w3.org/2000/svg" xml:space="preserve" width="192" height="192"><circle cx="96" cy="96" r="88" fill="#fff"/><path fill="#56595b" d="m138.3 59.55-1.565.128c-5.468.45-13.847 4.407-19.529 8.747l-1.675 1.28-2.067-.807c-6.025-2.35-13.826-3.391-21.707-2.899-5.78.361-9.538 1.11-13.584 2.71l-2.07.82-1.066-.821c-1.871-1.442-4.612-3.43-8.066-5.152-4.689-2.336-9.307-3.758-12.21-3.758h-1.073l-.629 2.278c-1.521 5.51-2.061 9.113-2.06 13.723.002 7.847 2.246 14.358 6.803 19.735l1.126 1.329h-3.522c-3.272 0-3.548.029-3.89.408-.48.531-.471 1.54.019 2.025.347.344.852.399 4.788.525l4.4.143v2.893l-4.3.772c-3.354.602-4.398.863-4.753 1.19-.757.697-.507 2.007.454 2.373.342.13 1.68-.047 4.656-.617 2.297-.44 4.339-.8 4.537-.8.252 0 .493.345.798 1.143.24.629.412 1.16.382 1.18-.03.02-1.817.85-3.97 1.843-4.15 1.916-4.673 2.326-4.392 3.447.05.201.27.45.54.66.77.591 1.24.336 1.914.057.796-.342 2.013-.883 3.34-1.49l4.088-1.87.325.502c2.314 3.564 7.132 8.714 10.54 11.264 3.085 2.309 6.92 4.75 10.723 6.822 3.573 1.948 5.182 2.617 7.128 2.966 1.782.32 6.308.104 7.997-.382 2.013-.578 8.34-3.706 11.178-5.524 6.135-3.933 11.044-8.432 14.484-13.275.732-1.03 1.389-1.875 1.46-1.876.072 0 1.787.742 3.81 1.65 3.432 1.542 3.719 1.637 4.282 1.403.832-.345 1.17-1.203.775-1.967-.243-.468-.964-.883-3.81-2.185-1.93-.883-3.54-1.627-3.576-1.654-.152-.108.891-2.506 1.091-2.508.119-.002 1.925.31 4.012.694 2.086.383 3.946.643 4.132.577.68-.24 1.048-.734 1.048-1.407-.4-1.688-1.49-1.556-2.751-1.779-2.297-.405-5.976-1.099-6.008-1.15-.028-.043-.018-.724.02-1.514l.071-1.438 3.98-.134c3.94-.131 3.984-.136 4.435-.648.707-2.548-1.613-2.327-3.416-2.319h-3.032l1.16-1.368c4.323-5.09 6.588-11.136 6.887-18.38.195-4.699-.375-9.018-1.991-15.063zm-82.922 2.494c.116-.12 2.81 1.695 4.301 2.897 2.879 2.32 4.635 5.661 5.689 10.825.39 1.917.391 1.922-.014 2.493-1.191 1.674-3.048 6.6-3.73 9.895-.197.947-.412 2.587-.479 3.645l-.12 1.925-1.421-1.418c-3.353-3.345-5.473-7.667-6.15-12.544-.342-2.455-.263-6.778.177-9.769.343-2.338 1.527-7.722 1.747-7.948zm81.544.097c.029-.001.048.005.06.018.087.094.44 1.355.784 2.803 2.357 9.932 1.81 17.123-1.769 23.281H136c-.573.986-1.658 2.36-2.8 3.546l-1.863 1.935-.01-1.214c-.023-3.599-2.02-10.48-3.986-13.73l-.708-1.17.429-2.006c1.098-5.138 2.698-8.211 5.475-10.526 1.7-1.416 3.96-2.919 4.386-2.937zM96.23 69.376c2.85 0 5.699.09 6.973.269 13.36 1.871 20.988 7.725 23.852 19.066 1.08 4.276 1.59 12.393.948 15.112-.895 3.793-2.93 7.306-6.683 11.538-2.322 2.617-7.075 6.504-10.804 8.833v-.002c-2.295 1.433-2.178 1.422-2.34.202-.386-2.915-2.368-5.706-5.51-7.766-.775-.508-.898-.72-1.583-2.714-.87-2.532-2.325-5.701-3.066-6.673-.286-.376-.829-.83-1.207-1.01-.635-.304-.742-.304-1.377 0-.378.18-.917.63-1.198 1-.762 1-2.052 3.82-2.925 6.387l-.774 2.273-1.425 1.004c-2.664 1.873-4.61 4.743-4.86 7.168-.066.636-.167 1.155-.222 1.155-.056 0-1.248-.76-2.651-1.687-5.926-3.92-11.539-9.3-14.279-13.688-1.044-1.672-2.118-4.024-2.566-5.618-.508-1.802-.572-4.78-.183-8.578.884-8.646 3.241-14.55 7.518-18.832 4.067-4.073 9.54-6.086 17.376-7.175 1.283-.178 4.135-.266 6.986-.265zM78.596 94.652c-4.752-.083-8.698 4.792-8.698 11.057 0 2.272.475 4.092 1.53 5.87 1.01 1.702 2.048 2.415 4.046 2.783 5.067.768 12.208-3.607 12.424-9.522-.004-2.09-.439-3.431-1.768-5.466-1.658-2.537-4.082-4.248-6.575-4.64a6.977 6.977 0 0 0-.96-.082zm34.805 0a6.949 6.949 0 0 0-.96.082c-2.492.391-4.916 2.102-6.574 4.64-1.33 2.034-1.764 3.376-1.768 5.466.216 5.914 7.357 10.29 12.424 9.522 1.998-.368 3.036-1.082 4.046-2.784 1.055-1.778 1.53-3.598 1.53-5.87 0-6.265-3.947-11.14-8.698-11.057zm-34.053 7.198a4.95 4.95 0 1 1 0 9.9 4.95 4.95 0 0 1 0-9.9zm33.3 0a4.95 4.95 0 1 1 0 9.9 4.95 4.95 0 0 1 0-9.9zm-33.3 2.7a2.25 2.25 0 1 0 0 4.5 2.25 2.25 0 0 0 0-4.5zm33.3 0a2.25 2.25 0 1 0 0 4.5 2.25 2.25 0 0 0 0-4.5zm-21.702 13.205c.052-.006.13.022.24.07 2.19.956 3.226 1.16 5.441 1.07 1.802-.072 2.475-.19 3.532-.621.718-.294 1.342-.497 1.388-.45.187.186-.201 1.511-.585 2-.225.286-.971.82-1.66 1.186-.688.366-1.656 1.053-2.15 1.526-.496.474-.91.86-.922.86-.013 0-.422-.408-.91-.905-.489-.498-1.51-1.233-2.272-1.633-1.516-.798-1.938-1.282-2.125-2.437-.077-.479-.09-.653.023-.666zm5.212 6.854.87.963c1.057 1.17 2.688 2.178 4.05 2.501 1.652.392 1.678.409 1.013.705-1.51.673-3.576.117-5.1-1.374l-.85-.834-.897.827c-.493.454-1.19.977-1.549 1.163-.805.417-2.507.563-3.396.29-.838-.257-.696-.505.37-.648 1.315-.177 3.03-1.138 4.308-2.414z"/></svg>