<?xml version="1.0" encoding="UTF-8" standalone="no"?>
<svg
   id="svg2"
   width="192"
   height="192"
   version="1.1"
   sodipodi:docname="lenovo_tips.svg"
   inkscape:version="1.2.2 (b0a8486541, 2022-12-01)"
   inkscape:export-filename="lenovo_tips.png"
   inkscape:export-xdpi="96"
   inkscape:export-ydpi="96"
   xmlns:inkscape="http://www.inkscape.org/namespaces/inkscape"
   xmlns:sodipodi="http://sodipodi.sourceforge.net/DTD/sodipodi-0.dtd"
   xmlns="http://www.w3.org/2000/svg"
   xmlns:svg="http://www.w3.org/2000/svg">
  <defs
     id="defs9" />
  <sodipodi:namedview
     id="namedview7"
     pagecolor="#505050"
     bordercolor="#eeeeee"
     borderopacity="1"
     inkscape:showpageshadow="0"
     inkscape:pageopacity="0"
     inkscape:pagecheckerboard="0"
     inkscape:deskcolor="#d1d1d1"
     showgrid="false"
     inkscape:zoom="1.2291667"
     inkscape:cx="19.525424"
     inkscape:cy="96.40678"
     inkscape:window-width="1884"
     inkscape:window-height="1055"
     inkscape:window-x="36"
     inkscape:window-y="0"
     inkscape:window-maximized="1"
     inkscape:current-layer="svg2" />
  <circle
     id="circle962"
     cx="96"
     cy="96"
     r="88"
     style="fill:#bd9aff;fill-opacity:1;fill-rule:evenodd;stroke:none;stroke-opacity:1" />
  <path
     id="path956"
     d="M 95.83603,59.499998 C 79.93268,59.590298 67.0877,72.508157 67.0877,88.412299 a 28.914677,28.914677 0 0 0 13.69651,24.585751 c 1.56206,0.96559 2.92291,3.07262 2.92291,4.90954 v 2.21001 h 24.58497 v -2.21001 c 0,-1.83771 1.36244,-3.94395 2.92291,-4.90954 A 28.914677,28.914677 0 0 0 124.9123,88.412299 C 124.9123,72.444788 111.96751,59.499998 96,59.499998 Z M 83.70792,125.96898 v 2.73043 a 3.7926602,3.7926602 0 0 0 3.80058,3.80058 h 16.983 a 3.7926602,3.7926602 0 0 0 3.80059,-3.80058 v -2.73043 z"
     style="fill:#ffffff;fill-opacity:1;stroke-width:5.2037;stop-color:#000000" />
  <style
     id="style853"
     type="text/css">.st0{fill:#fff}</style>
</svg>
