<?xml version="1.0" encoding="UTF-8" standalone="no"?>
<svg
   id="Layer_1"
   viewBox="0 0 192 192"
   version="1.1"
   sodipodi:docname="lenskart.svg"
   width="192"
   height="192"
   inkscape:version="1.2.2 (b0a8486541, 2022-12-01)"
   inkscape:export-filename="lenskart.png"
   inkscape:export-xdpi="96"
   inkscape:export-ydpi="96"
   xmlns:inkscape="http://www.inkscape.org/namespaces/inkscape"
   xmlns:sodipodi="http://sodipodi.sourceforge.net/DTD/sodipodi-0.dtd"
   xmlns="http://www.w3.org/2000/svg"
   xmlns:svg="http://www.w3.org/2000/svg">
  <sodipodi:namedview
     id="namedview8"
     pagecolor="#ffffff"
     bordercolor="#000000"
     borderopacity="0.25"
     inkscape:showpageshadow="2"
     inkscape:pageopacity="0.0"
     inkscape:pagecheckerboard="0"
     inkscape:deskcolor="#d1d1d1"
     showgrid="false"
     inkscape:zoom="1.6644737"
     inkscape:cx="-21.027668"
     inkscape:cy="133.0751"
     inkscape:window-width="1884"
     inkscape:window-height="1055"
     inkscape:window-x="36"
     inkscape:window-y="0"
     inkscape:window-maximized="1"
     inkscape:current-layer="Layer_1" />
  <defs
     id="defs1">
    <style
       id="style1">.cls-1{fill:#fff;}.cls-2{fill:#54688c;}</style>
  </defs>
  <rect
     class="cls-2"
     width="152"
     height="152"
     rx="9.9399996"
     ry="9.9399996"
     id="rect1"
     x="20"
     y="20" />
  <g
     id="Layer_2"
     transform="matrix(0.77272727,0,0,0.77272727,34.382727,39.996591)">
    <path
       class="cls-1"
       d="m 53.79,90.05 c 9.57,-0.2 17.2,-6.76 17.54,-16.96 0.95,4.23 2.79,7.96 4.83,11.14 -5.73,4.43 -11.16,6.42 -16.85,6.42 -1.94,0 -3.74,-0.2 -5.53,-0.6 z"
       id="path1" />
    <path
       class="cls-1"
       d="m 134.74,72.25 c 0,0.95 -0.6,1.59 -1.55,1.59 H 131 l 0.1,-1.39 c 0.4,-5.57 -0.8,-9.35 -3.14,-12.68 l 5.33,1.54 c 1.15,0.4 1.45,0.94 1.45,2.44 z"
       id="path2" />
    <path
       class="cls-1"
       d="m 24.74,63.74 c 0,-1.49 0.3,-2.09 1.4,-2.44 l 5.58,-1.54 c -2.54,3.58 -3.79,8.4 -3.59,12.63 l 0.1,1.44 h -1.99 c -0.9,0 -1.5,-0.65 -1.5,-1.59 z"
       id="path3" />
    <path
       class="cls-1"
       d="M 44.02,59.22 C 46.91,55.59 51,53.8 56.33,53.8 c 9.67,0 17.39,5.87 21.13,15.67 l 1.99,5.07 c 4.83,12.68 11.11,19 18.44,21.34 C 86.48,94.19 77.5,87.38 73.72,76.19 L 72.03,71.07 C 68.39,60.58 62.71,55.8 53.74,55.8 c -3.64,0 -7.23,1.34 -9.72,3.43 z"
       id="path4" />
    <path
       class="cls-1"
       d="m 110.41,50.26 c 11.36,1.49 19.49,10.15 19.49,20.44 0,9 -6.78,16.31 -16,17.06 6.18,-3.78 8.52,-8.85 8.52,-15.77 0,-9.9 -4.59,-18.65 -12.01,-21.73 z"
       id="path5" />
    <path
       class="cls-1"
       d="M 91.22,49.72 C 86.78,51.51 83.1,54.1 79.86,57.68 75.47,53.25 72.63,51.56 67.65,49.77 l 23.58,-0.05 z"
       id="path6" />
    <path
       class="cls-1"
       d="m 80.66,58.72 c 6.03,-6.27 13.51,-9.65 20.09,-9.65 8.17,0 16.3,5.32 19.14,14.92 -3.74,-6.32 -10.12,-8.21 -14.7,-8.21 -9.12,0 -17.1,7.61 -17.1,17.16 C 86.1,65.73 82.96,61 80.66,58.72 Z"
       id="path7" />
    <path
       class="cls-1"
       d="m 29.52,72.39 c 0,-13.78 10.62,-23.32 26.02,-23.32 14.16,0 25.32,7.71 30.1,20.79 l 1.4,4.08 c 3.99,10.94 10.52,16.16 20.14,16.16 7.18,0 15.5,-2.44 19.79,-7.36 -3.64,8.21 -11.61,12.93 -21.33,12.93 -11.16,0 -19.34,-7.36 -24.17,-20.09 L 79.28,69.86 C 74.89,58.52 66.97,52.3 56.65,52.3 c -11.66,0 -19.64,8.26 -19.64,19.89 0,11.63 8.77,19.89 21.93,19.89 4.29,0 8.02,-0.85 11.76,-2.64 -4.19,4.03 -10.12,6.22 -16.7,6.22 -14.11,0 -24.47,-9.85 -24.47,-23.27 z"
       id="path8" />
  </g>
</svg>
