<?xml version="1.0" encoding="UTF-8" standalone="no"?>
<svg
   xml:space="preserve"
   viewBox="0 0 192 192"
   version="1.1"
   id="svg332"
   sodipodi:docname="letstalk_im.svg"
   inkscape:version="1.2.2 (b0a8486541, 2022-12-01)"
   inkscape:export-filename="letstalk_im.png"
   inkscape:export-xdpi="96"
   inkscape:export-ydpi="96"
   xmlns:inkscape="http://www.inkscape.org/namespaces/inkscape"
   xmlns:sodipodi="http://sodipodi.sourceforge.net/DTD/sodipodi-0.dtd"
   xmlns="http://www.w3.org/2000/svg"
   xmlns:svg="http://www.w3.org/2000/svg"><sodipodi:namedview
     id="namedview334"
     pagecolor="#505050"
     bordercolor="#eeeeee"
     borderopacity="1"
     inkscape:showpageshadow="0"
     inkscape:pageopacity="0"
     inkscape:pagecheckerboard="0"
     inkscape:deskcolor="#d1d1d1"
     showgrid="false"
     inkscape:zoom="1.2291667"
     inkscape:cx="19.525424"
     inkscape:cy="96.40678"
     inkscape:window-width="1884"
     inkscape:window-height="1055"
     inkscape:window-x="36"
     inkscape:window-y="0"
     inkscape:window-maximized="1"
     inkscape:current-layer="svg332" /><defs
     id="defs326"><linearGradient
       id="a"
       x1="96"
       x2="96"
       y1="20"
       y2="172"
       gradientUnits="userSpaceOnUse"><stop
         offset="0"
         stop-color="#98dc9a"
         id="stop321" /><stop
         offset="1"
         stop-color="#9abeff"
         id="stop323" /></linearGradient></defs><rect
     width="152"
     height="152"
     x="20"
     y="20"
     fill="url(#a)"
     class="a"
     rx="10"
     id="rect328" /><path
     fill="#ffffff"
     d="m 111.28305,124.17244 c 0,0 -3.63651,-6.35505 -6.56727,-8.33576 -2.10821,-1.42466 -4.787263,-1.97001 -7.325664,-2.14686 -5.941306,-0.19577 -13.31221,3.50654 -18.25,1.26262 -1.576013,-0.7732 -2.586932,-2.53018 -3.220298,-4.16788 -0.761685,-1.9692 -0.505048,-2.65192 -0.505048,-6.31475 0,-3.66283 0.252524,-12.481432 0.252524,-18.691713 0,-2.669187 0.663801,-5.729087 2.589399,-7.577365 1.599045,-1.53653 4.162122,-1.7907 6.377259,-1.894341 7.87184,1.604802 16.237208,2.627236 23.870508,4.672105 1.65087,0.482839 3.48763,0.783071 4.79878,1.895164 1.31115,1.110447 2.65191,2.702089 2.65191,4.420404 0,6.789358 0.12668,12.574379 0.12668,19.702626 0,1.39917 -3.03111,1.50528 -3.03111,2.90444 v 13.76626 c 0,0 6.94646,-0.88424 7.57736,-1.13677 0.63172,-0.25252 3.4136,-0.89987 4.92628,-1.76849 2.04815,-1.17378 4.10947,-2.5894 5.4305,-4.54625 0.91632,-1.35721 1.51514,-3.03522 1.51514,-4.67211 V 81.483544 c 0,-1.041353 -0.29201,-2.099157 -0.75675,-3.031111 -0.77731,-1.552158 -1.95932,-2.920065 -3.28446,-4.041206 -2.00703,-1.696929 -4.95342,-3.124059 -6.86009,-3.887389 -14.22196,-3.923582 -29.393963,-6.15188 -43.027791,-8.742101 -0.75675,-0.125851 -2.864133,-0.522322 -4.293731,-0.378375 -3.538626,0.354521 -7.326486,0.976371 -10.230101,3.03111 -1.464146,1.036418 -2.439694,2.712783 -3.156961,4.357068 C 59.937599,70.974597 59.5,73.419227 59.5,75.80052 v 43.3198 c 0,2.92006 2.048159,5.697 4.168702,7.70403 1.858972,1.76191 4.468935,2.63218 6.946467,3.28446 1.673074,0.44007 3.476112,0.69341 5.177976,0.37838 11.735374,-2.17155 35.489085,-6.31475 35.489085,-6.31475 z"
     id="path330"
     style="stroke-width:0.822554" /></svg>
