<?xml version="1.0" encoding="UTF-8"?>
<svg version="1.1" viewBox="0 0 192 192" xmlns="http://www.w3.org/2000/svg">
 <rect class="a" x="8" y="32" width="176" height="128" rx="10" style="fill:#fff"/>
 <style type="text/css">.st0{fill:#3C3C3C;}</style>
 <g transform="matrix(.027738 0 0 .027738 40.553 85.12)" style="fill:#56595b">
  <g style="fill:#56595b">
   <path class="st0" d="m264.48 137.67v250.35c0 10.5 8.28 18.79 18.79 18.79 10.5 0 18.79-8.28 18.79-18.79v-250.35c0-9.95-8.28-18.8-18.79-18.8s-18.79 8.86-18.79 18.8m-53.11 244.82c0-10.5-8.28-18.23-18.79-18.23h-151.41v-336.56c0-10.5-8.85-19.35-19.36-19.35-10.49 0.01-19.33 8.85-19.33 19.35v347.61c0 14.36 11.61 25.97 25.97 25.97h164.14c10.49-0.01 18.78-8.29 18.78-18.79m96.76-349.26c0-13.83-11.06-24.89-24.86-24.89-13.83 0-24.88 11.06-24.88 24.89 0 13.8 11.05 25.41 24.88 25.41 13.8 0 24.86-11.61 24.86-25.41m230.48 206.69h-126.56v-22.67c0-39.78 23.76-63.55 63.55-63.55 39.24 0 63.01 23.77 63.01 63.55zm37.58 8.83v-28.73c0-60.23-40.35-101.13-100.58-101.13-60.78 0-101.13 40.9-101.13 101.13v85.66c0 60.23 40.35 101.13 101.13 101.13 27.64 0 54.15-5.53 79.03-17.68 6.62-3.32 10.49-9.4 10.49-16.58 0-9.96-8.28-17.68-18.79-17.68-2.77 0-4.97 0.55-7.73 1.65-19.9 8.85-40.9 15.48-63.01 15.48-39.79 0-63.55-26.53-63.55-66.31v-30.95h138.16c14.37-0.01 25.98-11.61 25.98-25.99m230.49 59.68c0 39.79-23.76 63.55-63 63.55-22.11 0-43.66-3.32-63.55-9.4v-186.78c17.14-16.03 39.79-22.1 63.55-22.1 39.24 0 63 23.75 63 63.55zm37.59-2.75v-85.66c0-61.35-39.25-101.13-100.58-101.13-22.66 0-44.21 6.08-63.55 16.58v-108.33c0-10.49-8.28-18.79-18.79-18.79-10.5 0-18.79 8.3-18.79 18.79v341.52c0 11.06 7.18 21.01 17.68 24.33 26.53 8.84 54.15 13.81 83.44 13.81 60.25 0.01 100.59-40.89 100.59-101.12m92.9-113.3c0-28.19 25.97-38.69 47.52-38.69 20.99 0 40.9 4.43 57.47 12.15 2.78 1.12 4.97 1.66 7.19 1.66 10.49 0 18.79-7.18 18.79-17.14 0-7.73-4.41-14.36-11.61-17.68-18.79-8.28-40.34-13.8-67.42-13.8-49.18 0-89.52 29.29-89.52 75.16 0 39.22 22.11 59.13 48.08 70.18l51.95 21.55c23.21 9.95 34.82 22.1 34.82 45.31 0 25.42-23.21 40.9-49.18 40.9-22.11 0-41.46-6.08-59.14-13.8-2.77-1.12-4.97-2.22-7.74-2.22-11.05 0-18.79 7.74-18.79 17.68 0 7.74 3.87 13.81 11.05 17.13 21.01 9.96 44.22 16.03 72.94 16.03 50.86 0 88.42-35.93 88.42-81.8 0-33.72-22.09-60.23-55.25-73.49l-51.96-21.01c-12.15-4.97-27.62-16.02-27.62-38.12m225.52 116.05v-91.17c0-39.81 23.76-63.55 63.55-63.55 19.33 0 38.12 5.52 55.8 14.36 2.78 1.1 5.53 1.66 8.3 1.66 10.5 0 18.79-7.75 18.79-17.68 0-6.63-3.87-13.27-10.5-16.58-22.66-11.06-46.97-16.58-72.38-16.58-60.79 0-101.14 40.89-101.14 101.13v85.66c0 60.23 40.35 101.13 101.14 101.13 25.41 0 49.73-5.53 72.38-16.58 6.63-3.31 10.5-9.39 10.5-16.58 0-9.95-8.84-17.68-18.79-17.68-2.77 0-6.08 1.12-8.3 2.21-16.57 8.3-36.47 13.81-55.8 13.81-39.79-0.01-63.55-23.77-63.55-63.56m403.47 79.59v-168.01c0-60.24-40.34-101.14-100.58-101.14-22.66 0-44.22 6.09-63.55 16.59v-108.3c0-10.5-8.28-18.81-18.79-18.81s-18.79 8.31-18.79 18.81v360.86c0 10.5 8.28 18.79 18.79 18.79s18.79-8.28 18.79-18.79v-209.46c17.14-16.02 39.79-24.86 63.55-24.86 39.24 0 63 23.77 63 63.55v170.77c0 10.5 8.3 18.79 18.8 18.79 10.49 0 18.78-8.29 18.78-18.79m227.74-148.1h-126.55v-22.67c0-39.78 23.76-63.55 63.55-63.55 39.24 0 63 23.77 63 63.55zm37.58 8.83v-28.73c0-60.23-40.34-101.13-100.57-101.13-60.79 0-101.13 40.9-101.13 101.13v85.66c0 60.23 40.34 101.13 101.13 101.13 27.64 0 54.15-5.53 79.02-17.68 6.63-3.32 10.5-9.4 10.5-16.58 0-9.96-8.28-17.68-18.79-17.68-2.77 0-4.97 0.55-7.74 1.65-19.89 8.85-40.89 15.48-63 15.48-39.79 0-63.55-26.53-63.55-66.31v-30.95h138.16c14.37-0.01 25.97-11.61 25.97-25.99m193.48-107.21c0-8.28-6.08-16.58-14.93-18.24-13.26-2.77-26.53-4.41-39.77-4.41-39.81 0-72.4 29.84-72.4 76.26v192.87c0 10.5 8.28 18.79 18.79 18.79 10.5 0 18.79-8.28 18.79-18.79v-194.53c0-24.31 15.48-38.69 34.82-38.69 9.38 0 17.67 1.1 26.51 2.78 3.31 0.55 6.63 1.65 9.39 1.65 10.51-0.01 18.8-7.73 18.8-17.69" style="fill:#56595b"/>
   <path class="st0" d="m2843.6 291.3c0 49.74-29.29 72.95-72.37 72.95h-76.28v-145.34h67.42c45.87 0 81.23 32.06 81.23 72.39m-85.1-109.42h-63.55v-130.96h72.94c42.01 0 64.66 24.32 64.66 65.76 0 36.47-32.03 65.2-74.05 65.2m67.97 16.59c28.19-19.36 44.78-48.65 44.78-81.8 0-63.55-42.55-102.79-103.36-102.79h-85.64c-14.39 0-25.98 11.59-25.98 25.97v335.45c0 14.36 11.59 25.97 25.98 25.97h88.98c66.29 0 111.09-41.99 111.09-109.97-0.01-40.33-22.69-73.49-55.85-92.83m249.32-56.93c0-8.28-6.08-16.58-14.93-18.24-13.26-2.77-26.51-4.41-39.78-4.41-39.78 0-72.4 29.84-72.4 76.26v192.87c0 10.5 8.28 18.79 18.79 18.79s18.77-8.28 18.77-18.79v-194.53c0-24.31 15.5-38.69 34.83-38.69 9.39 0 17.67 1.1 26.53 2.78 3.3 0.55 6.63 1.65 9.39 1.65 10.51-0.01 18.8-7.73 18.8-17.69m183.5 221.04c-19.88 6.08-41.46 9.4-63 9.4-56.37 0-63.55-28.19-63.55-50.29s7.18-48.64 63.55-48.64h63zm37.58 6.08v-165.78c0-56.36-44.2-83.99-96.16-83.99-27.06 0-55.82 6.08-81.78 22.1-6.09 3.88-9.4 9.96-9.4 16.59 0 11.05 8.85 17.68 18.8 17.68 3.31 0 6.08-1.12 8.83-2.78 21.01-12.15 41.44-18.77 63.55-18.77 34.82 0 58.58 17.13 58.58 49.73v34.82h-63c-33.69 0-59.68 6.62-76.81 22.1-16.03 14.93-24.32 35.37-24.32 61.35 0 25.97 8.28 46.96 24.32 61.35 17.13 15.48 43.12 23.76 76.81 23.76 28.73 0 56.37-4.97 82.9-13.81 10.5-3.34 17.68-13.29 17.68-24.35m101.2-60.23v-91.17c0-39.81 23.75-63.55 63.53-63.55 19.36 0 38.13 5.52 55.83 14.36 2.75 1.1 5.52 1.66 8.28 1.66 10.49 0 18.77-7.75 18.77-17.68 0-6.63-3.84-13.27-10.49-16.58-22.64-11.05-46.96-16.58-72.4-16.58-60.79 0-101.13 40.9-101.13 101.13v85.66c0 60.23 40.34 101.13 101.13 101.13 25.43 0 49.75-5.53 72.4-16.58 6.65-3.31 10.49-9.39 10.49-16.58 0-9.95-8.82-17.68-18.77-17.68-2.77 0-6.08 1.12-8.28 2.22-16.59 8.28-36.47 13.8-55.83 13.8-39.78-0.01-63.53-23.77-63.53-63.56m403.46 79.59v-168.01c0-60.24-40.34-101.13-100.59-101.13-22.64 0-44.18 6.08-63.55 16.58v-108.3c0-10.5-8.28-18.8-18.77-18.8-10.52 0-18.79 8.3-18.79 18.8v360.86c0 10.5 8.27 18.79 18.79 18.79 10.49 0 18.77-8.28 18.77-18.79v-209.46c17.14-16.02 39.81-24.86 63.55-24.86 39.25 0 63.02 23.77 63.02 63.55v170.77c0 10.5 8.28 18.79 18.77 18.79 10.52 0 18.8-8.29 18.8-18.79m194.02-245.38c0-10.5-8.28-18.24-18.23-18.24h-63.57v-97.24c0-10.52-8.28-18.8-18.77-18.8-10.5 0-18.8 8.28-18.8 18.8v303.93c0 44.78 32.63 75.72 72.41 75.72 10.49 0 21.01-1.1 31.5-2.77 9.39-1.66 15.46-9.39 15.46-18.24 0-11.06-9.93-17.68-17.67-17.68-5.54 0-21.01 2.22-29.29 2.22-19.35 0-34.83-14.37-34.83-38.14v-171.87h63.57c9.94 0 18.22-7.18 18.22-17.69" style="fill:#56595b"/>
   <path class="st0" d="m2330.9 357.69c-15.91 10.73-33.85 16.08-53.82 16.08-8.88 0-17.3-1.66-25.26-4.99-7.96-3.34-14.89-8.05-20.81-14.16-5.92-6.1-10.64-13.32-14.15-21.64-3.52-8.32-5.27-17.47-5.27-27.47 0-10.73 2.12-20.72 6.39-29.97 4.24-9.24 9.71-17.66 16.37-25.24 6.66-7.59 14.05-14.43 22.2-20.55 8.13-6.09 16.28-11.55 24.42-16.36l93.79 104.87c-13.33 15.57-27.95 28.7-43.86 39.43m-82.96-238.63c-4.25-8.51-6.39-17.01-6.39-25.52 0-15.55 4.91-28.12 14.71-37.75 9.8-9.61 22.11-14.42 36.9-14.42h0.16c11.78 0.21 22.5 2.7 31.03 8.28 8.8 5.65 15.51 14.45 18.8 25.5 0.84 2.73 1.53 5.56 1.9 8.44 1.4 10.99 0.11 19.42-1.66 26.09-2.9 10.95-9.61 20.62-18.08 29.39-6.23 6.24-13.16 12.04-20.47 17.2l-17.24 12.1c-0.07 0.05-0.15 0.1-0.22 0.15l-22.51-25.05c-7.03-7.76-12.67-15.9-16.93-24.41m172.87 198.11 53.83-62.71c3.32-3.7 5-8.13 5-13.32 0-5.17-1.59-9.34-4.72-12.49-3.14-3.14-7.3-4.71-12.48-4.71-5.56 0-10.19 2.22-13.88 6.66l-51.05 60.49-87.43-97.31c8.05-5.23 0 0 16.95-11.59 7.79-5.32 16.99-13.31 22.84-18.8 11.22-11.32 22.21-26.26 27.06-44.12 3.96-14.62 3.78-26.24 3.78-26.24s-0.07-8.68-0.96-14.46c-0.71-4.56-1.66-9.13-3.01-13.62-5.22-17.86-17.29-35.18-33.97-44.99-15.59-9.4-33.15-12.46-48.31-12.45h-1.3c-12.95 0-24.69 2.13-35.23 6.39-10.55 4.25-19.62 10.17-27.2 17.75-7.59 7.59-13.5 16.75-17.76 27.47-4.25 10.74-6.39 22.4-6.39 34.97 0 12.96 3.05 25.62 9.16 38.01 6.1 12.4 16 26.19 29.69 41.34l12.21 13.33c-24.43 15.53-44.22 32.82-59.39 51.88-15.18 19.06-22.76 41.53-22.76 67.42 0 14.43 2.78 27.84 8.33 40.23 5.54 12.4 12.93 23.13 22.19 32.19 9.25 9.06 20.08 16.18 32.47 21.37 12.4 5.17 25.62 7.78 39.68 7.78 24.78 0 46.89-6.11 66.32-18.32 19.42-12.21 37.08-27.38 53-45.51l52.16 58.27c3.7 3.7 7.96 5.56 12.77 5.56 5.17 0 9.34-1.67 12.48-5 3.14-3.34 4.72-7.59 4.72-12.77 0-4.07-1.67-8.13-5-12.2z" style="fill:#56595b"/>
   <path class="st0" d="m4.42 592.4h69.16c35.34 0 88.23 23.65 88.23 90.01s-52.89 90.01-88.23 90.01h-69.16zm21.36 160.19h40.68c41.19 0 72.47-20.85 72.47-70.18s-31.28-70.18-72.47-70.18h-40.68z" style="fill:#56595b"/>
   <path class="st0" d="m227.92 592.4h21.36v180.02h-21.36z" style="fill:#56595b"/>
   <path class="st0" d="m325.81 592.4h113.15v19.83h-91.79v56.45h85.69v19.83h-85.69v64.08h96.37v19.83h-117.73z" style="fill:#56595b"/>
   <path class="st0" d="m696.28 624.18c-7.12-11.44-19.83-16.53-32.8-16.53-18.82 0-38.39 8.9-38.39 30.26 0 16.53 9.15 23.9 37.89 33.06 27.97 8.9 53.91 18.05 53.91 53.4 0 35.85-30.77 52.63-63.31 52.63-20.85 0-43.23-6.87-55.43-24.92l18.31-15c7.63 13.22 22.88 20.09 38.39 20.09 18.31 0 39.16-10.68 39.16-31.28 0-22.12-15-25.94-47.04-36.62-25.43-8.39-44.75-19.58-44.75-49.58 0-34.58 29.75-51.87 61.28-51.87 20.09 0 37.12 5.59 50.35 21.1z" style="fill:#56595b"/>
   <path class="st0" d="m910.12 629.52c-10.68-14.49-27.72-21.87-45.01-21.87-40.17 0-68.65 35.34-68.65 74.76 0 41.7 28.22 74.76 68.65 74.76 21.87 0 39.41-8.9 52.13-25.17l16.02 13.48c-16.02 21.6-39.41 31.52-68.14 31.52-51.62 0-91.54-39.92-91.54-94.59 0-52.89 38.14-94.59 91.54-94.59 24.41 0 48.31 8.39 63.57 28.22z" style="fill:#56595b"/>
   <path class="st0" d="m994.79 592.4h21.36v76.28h96.11v-76.28h21.36v180.02h-21.36v-83.91h-96.11v83.91h-21.36z" style="fill:#56595b"/>
   <path class="st0" d="m1210.2 592.4h31.78l61.02 141.12h0.51l61.54-141.12h31.02v180.02h-21.36v-151.03h-0.51l-64.58 151.04h-12.97l-64.58-151.04h-0.51v151.04h-21.36z" style="fill:#56595b"/>
   <path class="st0" d="m1472.6 592.4h113.15v19.83h-91.79v56.45h85.69v19.83h-85.69v64.08h96.37v19.83h-117.73z" style="fill:#56595b"/>
   <path class="st0" d="m1655.1 592.4h46.02c34.83 0 71.7 5.09 71.7 49.58 0 26.19-17.04 43.23-45.01 47.55l51.11 82.89h-26.19l-48.82-80.86h-27.46v80.86h-21.36v-180.02zm21.36 79.33h19.07c23.65 0 54.41 0 54.41-29.75 0-25.94-22.63-29.75-43.48-29.75h-30z" style="fill:#56595b"/>
   <path class="st0" d="m1827.3 753.35 104-141.12h-102.47v-19.83h128.41v18.31l-104 141.88h105.27v19.83h-131.2v-19.07z" style="fill:#56595b"/>
   <path class="st0" d="m2105.4 624.18c-7.12-11.44-19.83-16.53-32.8-16.53-18.82 0-38.39 8.9-38.39 30.26 0 16.53 9.15 23.9 37.89 33.06 27.97 8.9 53.91 18.05 53.91 53.4 0 35.85-30.77 52.63-63.31 52.63-20.85 0-43.23-6.87-55.43-24.92l18.31-15c7.63 13.22 22.88 20.09 38.39 20.09 18.31 0 39.16-10.68 39.16-31.28 0-22.12-15-25.94-47.04-36.62-25.43-8.39-44.75-19.58-44.75-49.58 0-34.58 29.75-51.87 61.28-51.87 20.09 0 37.12 5.59 50.35 21.1z" style="fill:#56595b"/>
   <path class="st0" d="m2193.2 592.4h53.4c33.06 0 63.06 11.7 63.06 49.33 0 39.41-33.56 49.84-58.99 49.84h-36.11v80.86h-21.36zm21.36 79.33h36.11c21.36 0 36.11-9.66 36.11-29.75s-14.75-29.75-36.11-29.75h-36.11z" style="fill:#56595b"/>
   <path class="st0" d="m2375.7 592.4h113.15v19.83h-91.79v56.45h85.69v19.83h-85.69v64.08h96.37v19.83h-117.73z" style="fill:#56595b"/>
   <path class="st0" d="m2543.3 753.35 104-141.12h-102.47v-19.83h128.41v18.31l-104 141.88h105.27v19.83h-131.2v-19.07z" style="fill:#56595b"/>
   <path class="st0" d="m2736 592.4h21.36v180.02h-21.36z" style="fill:#56595b"/>
   <path class="st0" d="m2892.4 592.4h20.09l76.53 180.02h-24.92l-18.31-44.24h-90.01l-18.56 44.24h-24.16zm9.66 27.46h-0.51l-37.38 88.49h73.48z" style="fill:#56595b"/>
   <path class="st0" d="m3044.7 592.4h21.36v160.19h82.38v19.83h-103.74z" style="fill:#56595b"/>
   <path class="st0" d="m3203.6 592.4h21.36v180.02h-21.36z" style="fill:#56595b"/>
   <path class="st0" d="m3386.9 624.18c-7.12-11.44-19.83-16.53-32.8-16.53-18.82 0-38.39 8.9-38.39 30.26 0 16.53 9.15 23.9 37.89 33.06 27.97 8.9 53.91 18.05 53.91 53.4 0 35.85-30.77 52.63-63.31 52.63-20.85 0-43.23-6.87-55.43-24.92l18.31-15c7.63 13.22 22.88 20.09 38.39 20.09 18.31 0 39.16-10.68 39.16-31.28 0-22.12-15-25.94-47.04-36.62-25.43-8.39-44.75-19.58-44.75-49.58 0-34.58 29.75-51.87 61.28-51.87 20.09 0 37.12 5.59 50.35 21.1z" style="fill:#56595b"/>
   <path class="st0" d="m3595.4 612.23h-59.5v160.19h-21.36v-160.19h-59.5v-19.83h140.36z" style="fill:#56595b"/>
   <path class="st0" d="m3652.4 592.4h113.15v19.83h-91.79v56.45h85.69v19.83h-85.69v64.08h96.37v19.83h-117.73z" style="fill:#56595b"/>
   <path class="st0" d="m3834.9 592.4h26.95l104.25 149.51h0.51v-149.51h21.36v180.02h-26.95l-104.25-149.51h-0.51v149.51h-21.36z" style="fill:#56595b"/>
  </g>
 </g>
</svg>
