<svg xmlns="http://www.w3.org/2000/svg" width="192" height="192"><path d="M56.432 22.074c3.536.068 6.974.626 10.266 1.586C79.865 27.5 90.73 36.995 98.907 45.172l64 64a4 4 0 0 1 0 5.656l-64 64a4 4 0 0 1-5.656 0l-64-64c-8.295-8.294-17.285-19.745-20.561-33.395-3.276-13.649-.214-29.487 14.56-44.262 11.082-11.08 22.574-15.3 33.183-15.098z" style="color-rendering:auto;color:#000;dominant-baseline:auto;fill:#bd9aff;font-feature-settings:normal;font-variant-alternates:normal;font-variant-caps:normal;font-variant-ligatures:normal;font-variant-numeric:normal;font-variant-position:normal;image-rendering:auto;isolation:auto;mix-blend-mode:normal;shape-padding:0;shape-rendering:auto;solid-color:#000;text-decoration-color:#000;text-decoration-line:none;text-decoration-style:solid;text-indent:0;text-orientation:mixed;text-transform:none;white-space:normal"/><path d="M56.432 22.074c3.536.068 6.974.626 10.266 1.586C79.865 27.5 90.73 36.995 98.907 45.172l64 64a4 4 0 0 1 0 5.656l-20 20-107.26-107.26c7.061-3.993 14.097-5.626 20.781-5.498z" style="fill:#fff;opacity:.25"/><path d="m12.211 52.133 106.7 106.7-20 20a4 4 0 0 1-5.656 0l-64-64C20.96 106.538 11.97 95.088 8.694 81.438c-2.187-9.114-1.542-19.204 3.521-29.301z" style="fill:#8c72bd"/><path d="M135.85 22.074a39.296 39.296 0 0 0-10.266 1.586c-13.167 3.84-24.032 13.335-32.209 21.512l-64 64a4 4 0 0 0 0 5.656l64 64a4 4 0 0 0 5.656 0l64-64c8.295-8.294 17.285-19.745 20.561-33.395s.214-29.487-14.56-44.262c-11.082-11.08-22.574-15.3-33.183-15.098z" style="color-rendering:auto;color:#000;dominant-baseline:auto;fill:#ececec;font-feature-settings:normal;font-variant-alternates:normal;font-variant-caps:normal;font-variant-ligatures:normal;font-variant-numeric:normal;font-variant-position:normal;image-rendering:auto;isolation:auto;mix-blend-mode:normal;shape-padding:0;shape-rendering:auto;solid-color:#000;text-decoration-color:#000;text-decoration-line:none;text-decoration-style:solid;text-indent:0;text-orientation:mixed;text-transform:none;white-space:normal"/><path d="m180.07 52.133-106.7 106.7 20 20a4 4 0 0 0 5.656 0l64-64c8.295-8.295 17.285-19.745 20.561-33.395 2.188-9.114 1.543-19.204-3.521-29.301z" style="fill:#fff"/><path d="M135.85 22.074a39.296 39.296 0 0 0-10.266 1.586c-13.167 3.84-24.032 13.335-32.209 21.512l-64 64a4 4 0 0 0 0 5.656l20 20 107.26-107.26c-7.061-3.993-14.097-5.626-20.781-5.498z" style="fill:#d8d8d8"/></svg>