<?xml version="1.0" encoding="UTF-8"?>
<svg version="1.1" viewBox="0 0 192 192" xmlns="http://www.w3.org/2000/svg" xmlns:xlink="http://www.w3.org/1999/xlink">
 <defs>
  <linearGradient id="linearGradient20" x1="144.29" x2="173.67" y1="121.68" y2="228.17" gradientUnits="userSpaceOnUse">
   <stop style="stop-color:#e0f4e0" offset="0"/>
   <stop style="stop-color:#98dc9a" offset="1"/>
  </linearGradient>
  <linearGradient id="linearGradient23" x1="101.34" x2="35.929" y1="171.08" y2="79.962" gradientUnits="userSpaceOnUse">
   <stop style="stop-color:#b2f219" offset="0"/>
   <stop style="stop-color:#b2f219;stop-opacity:0" offset="1"/>
  </linearGradient>
  <linearGradient id="linearGradient32" x1="122.29" x2="140.79" y1="82.268" y2="73.884" gradientUnits="userSpaceOnUse">
   <stop style="stop-color:#e0f4e0" offset="0"/>
   <stop style="stop-color:#98dc9a" offset="1"/>
  </linearGradient>
 </defs>
 <g transform="matrix(.87216 0 0 .87216 11.685 12.443)">
  <g transform="translate(-8.4302 -51.851)">
   <ellipse cx="105.1" cy="160.95" rx="83.063" ry="81.008" style="fill:#71a372;paint-order:normal"/>
   <ellipse cx="105.91" cy="160.5" rx="77.499" ry="75.533" style="fill:url(#linearGradient20);stroke-linecap:round;stroke-linejoin:round;stroke-width:1.3831"/>
   <ellipse cx="95.707" cy="163.23" rx="72.715" ry="72.482" style="fill:#71a372;paint-order:normal"/>
   <ellipse cx="95.497" cy="163.32" rx="66.781" ry="66.492" style="fill:#fff;paint-order:normal"/>
  </g>
  <g transform="translate(-8.4302 -51.851)" style="fill:url(#linearGradient23)">
   <path d="m109.25 104.6c-3.3291-0.0292-4.7017 0.99291-5.3441 3.7964s-8.4549 42.169-8.4549 42.169-0.86108 3.9792 0.70087 4.468c0.83874 0.26252 1.5186 0.73007 5.0813-3.3291 3.5628-4.0592 28.27-28.345 28.27-28.345s3.1692-3.4956 3.066-5.3736c-0.10325-1.8791-0.70124-2.8429-3.5199-5.104-3.1988-2.566-15.843-8.2469-19.799-8.2816z" style="fill:#98dc9a;stroke-linecap:round;stroke-linejoin:round"/>
   <path d="m141.8 123.67c-3.0177-1.7373-4.8571-1.6337-7.0566 0.25798-2.1995 1.8917-32.571 29.369-32.571 29.369-6.3872 6.0647-0.53681 5.7309 5.131 4.3344 5.5842-1.3836 37.215-13.024 37.215-13.024s4.901-1.7672 5.888-3.3091c0.98763-1.5428 0.99737-2.6148-0.27014-5.8586-1.4694-4.6793-4.2271-8.9386-8.3355-11.769z" style="fill:#98dc9a;stroke-linecap:round;stroke-linejoin:round;stroke-width:1.0094"/>
   <path d="m154.37 150.48c-1.6105-2.9138-3.1751-3.607-5.9325-2.7889s-41.917 11.51-45.965 13.651c-1.2373 0.65432-3.078 1.418-2.9648 2.7506 0.13851 1.6308 0.49455 2.4241 5.7806 3.5324 5.286 1.1083 41.787 9.547 41.787 9.547s4.9734 1.1664 6.5584 0.1537c1.5858-1.0133 1.9662-1.9664 2.5504-5.5324 0.66302-4.0468 0.0998-17.85-1.8141-21.313z" style="fill:#98dc9a;stroke-linecap:round;stroke-linejoin:round"/>
   <path d="m148.77 181.25c-1.3009-0.8545-35.451-8.7071-42.724-10.802-9.2202-2.6558-10.589 0.5357-6.7148 5.5739 6.1244 7.9646 16.295 30.733 25.277 37.668 7.1112 5.4917 34.266-25.804 24.162-32.44z" style="fill:#98dc9a;stroke-linecap:round;stroke-linejoin:round"/>
   <path d="m98.69 223.44c4.0828 0.0276 10.539 0.16131 15.197-1.5357 5.7923-2.1102 5.2413-4.078 3.3456-8.3344-5.0233-11.279-20.438-38.311-20.438-38.311-2.2319-4.8714-4.7363-6.3252-9.1547 2.5431-1.2978 2.6049-7.5035 14.98-11.388 25.57-4.7029 12.822-4.4536 13.874 2.231 16.35 6.7333 2.494 18.568 3.7065 20.207 3.7176z" style="fill:#98dc9a;stroke-linecap:round;stroke-linejoin:round;stroke-width:1.0094"/>
   <path d="m87.201 169.8c-1.904-5.3646-43.365 9.6479-43.365 9.6479-4.1943 1.9639-5.2401 3.7565-2.2718 9.7553 1.7249 3.4858 9.3727 13.86 15.959 19.642 7.5361 6.6166 9.8244 5.3484 12.573-0.13531 6.8498-13.666 18.446-35.133 17.105-38.91z" style="fill:#98dc9a;stroke-linecap:round;stroke-linejoin:round;stroke-width:1.0094"/>
   <path d="m35.539 171.79c1.4059 3.1856 2.9504 4.19 5.8427 3.9654 2.8923-0.22457 36.333-8.5069 36.333-8.5069 9.146-0.47033 4.2385-5.992-1.574-6.5296-5.9636-0.55161-30.411-7.4188-30.411-7.4188-7.949-1.8674-9.7677-0.26313-11.003 3.9531-1.3794 4.7066-0.82663 9.8246 0.81208 14.537z" style="fill:#98dc9a;stroke-linecap:round;stroke-linejoin:round;stroke-width:1.0094"/>
   <path d="m84.68 158.97c5.2729-2.145-12.6-38.156-12.6-38.156-4.3075-12.732-14.489-4.9886-14.489-4.9886-4.0666 2.159-12.233 11.592-16.328 19.416-4.8415 9.252-2.5117 11.508 3.1865 13.779 14.003 5.58 36.518 11.46 40.23 9.9495z" style="fill:#98dc9a;stroke-linecap:round;stroke-linejoin:round;stroke-width:1.0094"/>
   <path d="m79.185 105.99c-3.0911 1.6031-5.222 2.9433-4.4144 5.7297 1.2478 4.305 7.81 30.437 13.335 39.459 1.7247 2.8163 3.8453 2.9693 5.0864-0.45561 2.0252-5.5887 5.2617-38.234 5.2617-38.234 1.1091-7.2484 1.2841-8.5135-4.9052-9.1095-5.4917-0.52879-9.7631 0.67915-14.363 2.6104z" style="fill:#98dc9a;stroke-linecap:round;stroke-linejoin:round;stroke-width:1.0094"/>
  </g>
  <g transform="translate(-8.4302 -51.851)">
   <path d="m84.667 174.63s3.4072 2.4263 7.661 2.4263c4.3367 0 8.2011-2.7609 8.2011-2.7609" style="fill:none;stroke-linecap:round;stroke-width:5.9;stroke:#71a372"/>
   <g transform="translate(-3.3875 .35044)">
    <circle cx="123.75" cy="164.61" r="10.893" style="fill:#71a372;stroke-width:.27048"/>
    <circle cx="122.26" cy="161.06" r="3.4459" style="fill:#fff;paint-order:normal"/>
   </g>
   <circle cx="70.985" cy="164.97" r="10.077" style="fill:#71a372;stroke-width:.25023"/>
   <circle cx="69.421" cy="161.41" r="2.9762" style="fill:#fff;paint-order:normal"/>
   <path d="m110.33 80.456s-2.9633-0.29796 1.8674-0.15205c1.9484 0.05885 1.5666-4.9064 1.8997-8.6088 0.68302-9.8268-0.48406-18.607 11.295-18.343 12.48 0.28023 6.9774 15.772 4.3949 25.03-0.72988 2.6166-1.106 4.9087 1.005 5.5456 2.6313 0.79383-0.25948 2.3958-0.81422 0.33633" style="fill:#71a372;stroke-linecap:round;stroke-linejoin:round"/>
   <path d="m112.6 85.195c0.23489-0.11874 1.6274-0.78105 3.4429-5.5241 2.0857-5.4486-1.4988-23.063 7.3372-23.163 11.169-0.1274 5.5839 9.44 3.4929 16.978-1.7583 7.2798-2.7433 11.781 0.86553 14.089 0.66828 0.42752 4.0841 1.5273 5.6028 2.5595 2.3165 1.5745-22.388-0.05029-22.388-0.05029s-0.57549-3.5882 0.70257-4.7018c0.19542-0.17028 0.75386-0.1001 0.94408-0.18696z" style="fill:url(#linearGradient32);stroke-linecap:round;stroke-linejoin:round"/>
   <path d="m115.16 61.801s-10.077-7.1035-27.175-7.2687c-17.098-0.1652-30.396 8.838-38.491 15.611-8.0946 6.7731-14.868 19.08-18.254 29.405-3.3865 10.325-6.0297 23.293-6.1949 24.449-0.1652 1.1564-0.84165 3.4535 0.99118 5.2863 2.0433 2.0434 40.223 0.85795 62.444-16.685 7.8469-6.1949 14.62-15.776 14.62-15.776s7.6648-14.128 10.077-27.34c0.21044-1.1526 2.8456-0.48918 2.7476 0.28852-1.4205 11.277 2.1986 2.203-0.76527-7.9702z" style="fill:#71a372;stroke-linecap:round;stroke-linejoin:round"/>
   <path d="m106.69 65.076s-7.7085-3.9424-20.793-3.5044c-14.719 0.49284-26.907 8.4083-34.284 16.12-7.4601 7.798-12.613 16.944-15.761 31.623-2.9596 13.8-4.419 14.166-4.2951 14.248s31.429-1.902 50.48-15.15c19.343-13.451 23.392-30.167 24.297-38.314 0.4146-3.7314 0.35632-5.0225 0.35632-5.0225z" style="fill:#98dc9a;stroke-linecap:round;stroke-linejoin:round"/>
   <path d="m107.43 64.733c-0.82565 0.25949-13.539 1.797-20.298 3.76-3.1741 0.92177-6.7564 2.2399-10.772 3.6851-21.238 7.6434-31.89 28.21-32.824 30.663-0.9345 2.453 0.81768 2.2194 0.81768 2.2194s0.46724 0.11682 3.6796-3.6796c13.69-16.71 30.082-29.28 51.93-31.169 16.094-1.3916 5.258-0.57791 6.76-0.77166 6.605-0.85198 0.70749-4.7078 0.70749-4.7078z" style="fill:#71a372;stroke-linecap:round;stroke-linejoin:round"/>
   <path d="m62.851 80.321s-2.7159-2.015-5.8698-1.3141c-3.1539 0.70087-4.6433 3.6504-4.322 4.3512 0.32123 0.70087 5.753-0.05841 5.753-0.05841l1.7814 1.4894 3.3875-2.6867z" style="fill:#71a372;stroke-linecap:round;stroke-linejoin:round"/>
   <path d="m69.362 78.387s2.3487 2.3163 2.3262 5.5471c-0.0083 1.1882-0.35819 3.4603-1.1125 4.9871-0.82786 1.6757-2.0837 2.5046-2.5082 1.2194-0.39398-1.193-0.21006-3.7358-1.0822-7.1759l-1.5542-1.1758 2.0489-3.8073z" style="fill:#71a372;stroke-linecap:round;stroke-linejoin:round"/>
   <path d="m86.595 68.656s-2.115-2.6388-5.3435-2.762c-3.2285-0.12321-5.4182 2.3513-5.2855 3.1107 0.13268 0.75948 5.5791 1.4048 5.5791 1.4048l1.3447 1.893 3.9589-1.7381z" style="fill:#71a372;stroke-linecap:round;stroke-linejoin:round"/>
   <path d="m89.287 68.017s2.6239 1.9335 3.157 5.12c0.33831 2.0219-0.16278 3.3738-0.57088 4.6327-0.50094 1.5453-1.5936 2.4952-2.0544 1.8151-0.67688-0.99896-0.9745-3.7933-2.0309-6.8089-0.29203-0.87609-1.8576-0.78924-1.8576-0.78924l3.4642-1.8738z" style="fill:#71a372;stroke-linecap:round;stroke-linejoin:round"/>
   <path d="m131.82 89.299c-0.55421-0.26523-3.3935-1.2573-4.2298-1.851-0.50467-0.35826-0.94554-0.7651-1.2553-1.1691-0.20355-0.26551-0.32619-0.5374-0.45861-0.76676-0.30937-0.53584-1.652 2.0495-1.652 2.0495l7.1344 2.0082z" style="fill:#98dc9a;stroke-linecap:round;stroke-linejoin:round"/>
  </g>
 </g>
</svg>
