<?xml version="1.0" encoding="UTF-8"?><svg id="a" xmlns="http://www.w3.org/2000/svg" xmlns:xlink="http://www.w3.org/1999/xlink" viewBox="0 0 192 192"><defs><clipPath id="d"><path d="M143.03,36.05l-8.12,41.29c-13.19-15.94-29.38-18.68-38.91-18.68s-25.72,2.74-38.91,18.68l-8.12-41.29c-.46-2.35-2.55-4.05-4.97-4.05H13.06c-3.18,0-5.58,2.87-4.97,5.95l23.3,118.48c.41,2.07,2.24,3.56,4.37,3.56h37.57c2.02,0,3.67-1.6,3.7-3.59.29-18.19,2.78-33.89,7.08-44.49,5.08-12.51,10.02-12.51,11.87-12.51s6.79,0,11.87,12.51c4.3,10.6,6.79,26.29,7.08,44.49.03,1.99,1.68,3.59,3.7,3.59h37.57c2.13,0,3.97-1.49,4.37-3.56l23.3-118.48c.61-3.09-1.79-5.95-4.97-5.95h-30.93c-2.42,0-4.51,1.7-4.97,4.05Z" style="fill:none;"/></clipPath></defs><g id="b"><g id="c"><g style="clip-path:url(#d);"><path d="M143.83,32l-8.92,45.34c11.87,14.34,21.32,39.35,21.32,82.66h3.67l25.18-128h-41.25Z" style="fill:#728dbe;"/><path d="M96,58.66c-18.11,0-60.23,9.88-60.23,101.34h41.25c0-19.72,2.52-36.79,7.11-48.08,5.08-12.51,10.02-12.51,11.87-12.51s6.79,0,11.87,12.51c4.58,11.29,7.11,28.36,7.11,48.08h3.67l16.26-82.66c-13.19-15.94-29.38-18.68-38.91-18.68Z" style="fill:#9abeff;"/><path d="M118.65,160h37.57c0-43.31-9.45-68.32-21.32-82.66l-16.26,82.66Z" style="fill:#9abeff;"/><path d="M6.92,32h41.25l25.18,128h-41.25L6.92,32Z" style="fill:#98dc9a;"/></g></g></g></svg>