<svg xmlns="http://www.w3.org/2000/svg" xml:space="preserve" viewBox="0 0 192 192"><rect width="152" height="152" x="20" y="20" fill="#bd9aff" class="a" rx="10"/><path fill="#8c72bd" d="M83.375 81.33H63.753a4.929 4.929 0 0 1-4.928-4.93V63.723a4.929 4.929 0 0 1 4.928-4.929h19.622a4.929 4.929 0 0 1 4.928 4.93v12.675a4.927 4.927 0 0 1-4.928 4.932z"/><path fill="#54688c" d="M128.277 81.33H96.586a4.929 4.929 0 0 1-4.929-4.93V63.723a4.929 4.929 0 0 1 4.929-4.929h31.691a4.929 4.929 0 0 1 4.929 4.93v12.675a4.926 4.926 0 0 1-4.929 4.932z"/><path fill="#fff" d="M105.268 107.327H63.784a4.993 4.993 0 0 1-4.993-4.994V89.65a4.993 4.993 0 0 1 4.993-4.994h41.481a4.993 4.993 0 0 1 4.994 4.994v12.684a4.992 4.992 0 0 1-4.991 4.994z"/><path fill="#8c72bd" d="M129.645 107.143H117.18a3.563 3.563 0 0 1-3.563-3.563V88.213a3.563 3.563 0 0 1 3.563-3.564h12.466a3.563 3.563 0 0 1 3.564 3.564v15.367a3.563 3.563 0 0 1-3.564 3.563zM91.584 133.206H63.776a4.953 4.953 0 0 1-4.951-4.952v-12.678a4.953 4.953 0 0 1 4.95-4.952h27.811a4.953 4.953 0 0 1 4.952 4.952v12.678a4.955 4.955 0 0 1-4.954 4.952z"/><path fill="#54688c" d="M104.775 133.163h23.474a4.932 4.932 0 0 0 4.931-4.931v-12.676a4.932 4.932 0 0 0-4.931-4.932h-23.474a4.932 4.932 0 0 0-4.932 4.932v12.676a4.932 4.932 0 0 0 4.932 4.931z"/></svg>