<svg xmlns="http://www.w3.org/2000/svg" id="svg2" width="192" height="192" version="1.1"><g id="layer1" transform="translate(0 -860.362)"><path id="path1046" d="m29.461 880.363-.042.002a8.86 8.86 0 0 0-1.602.157c-.11.02-.219.046-.328.07-.21.049-.419.098-.622.16a8.682 8.682 0 0 0-4.627 3.433v.002a8.63 8.63 0 0 0-1.439 3.971v.002c-.03.292-.044.589-.044.889v9.266h25.545v-9.264a8.678 8.678 0 0 1 8.705-8.687z" style="fill:#70a270;fill-opacity:1;fill-rule:evenodd;stroke:none;stroke-width:.869497;stroke-opacity:1"/><rect id="rect1048" width="110.545" height="151.999" x="41.052" y="880.362" rx="8.704" ry="8.686" style="opacity:.520286;fill:#56595b;fill-opacity:1;fill-rule:evenodd;stroke:none;stroke-width:.869497;stroke-opacity:1"/><rect id="rect1050" width="110.545" height="151.999" x="-151.597" y="-1032.362" rx="8.704" ry="8.686" style="fill:#97db99;fill-opacity:1;fill-rule:evenodd;stroke:none;stroke-width:.869497;stroke-opacity:1" transform="scale(-1)"/><path id="path1052" d="M61.348 1014.411v9.264a8.678 8.678 0 0 1-8.706 8.687h109.895a8.678 8.678 0 0 0 8.706-8.687v-9.264z" style="fill:#70a270;fill-opacity:1;fill-rule:evenodd;stroke:none;stroke-width:.869497;stroke-opacity:1"/><path id="path1054" d="M41.052 898.313v-9.264a8.678 8.678 0 0 0-8.705-8.687H121.3c4.822 0 8.93 3.88 8.705 8.687v9.264z" style="fill:#97db99;fill-opacity:1;fill-rule:evenodd;stroke:none;stroke-width:.869497;stroke-opacity:1"/><path id="path1056" d="m72.645 956.834 14.208 14.208 33.152-33.152" style="fill:none;stroke:#fff;stroke-width:8.63632;stroke-linecap:round;stroke-linejoin:round;stroke-miterlimit:4;stroke-dasharray:none;stroke-opacity:1;paint-order:normal"/></g><style id="style853" type="text/css">.st0{fill:#fff}</style></svg>