<?xml version="1.0" encoding="UTF-8"?>
<svg xmlns="http://www.w3.org/2000/svg" version="1.1" viewBox="0 0 192 192">
  <defs>
    <style>
      .cls-1 {
        fill: #9abeff;
      }
    </style>
  </defs>
  <!-- Generator: Adobe Illustrator 28.6.0, SVG Export Plug-In . SVG Version: 1.2.0 Build 709)  -->
  <g>
    <g id="Layer_1">
      <g>
        <path class="cls-1" d="M96.41,140.66c-4.48-1.67-8.68-4.21-13.11-4.67-9.73-1.02-19.58-1.1-29.38-1.35-7.02-.19-14.06-.04-21.09-.05-6.06,0-6.61-.56-6.62-6.66,0-14.91,0-29.82.01-44.74,0-15.6.11-31.19-.06-46.79-.04-3.48,1.14-4.41,4.57-4.36,12.09.16,24.19-.15,36.27.11,12.42.27,22.53,4.88,28.82,16.5,3.96-8.43,10.63-13.31,19.48-15.32,2.97-.68,6.06-1.17,9.1-1.2,11.81-.14,23.62.01,35.43-.12,3.14-.04,4.41.66,4.39,4.07-.13,31.19-.1,62.38,0,93.58.01,3.63-1.08,5.12-5.07,5.06-13.07-.2-26.15-.28-39.22,0-5.27.11-10.61.89-15.74,2.09-3.08.72-5.81,2.84-7.78,3.86ZM70.47,89.06c5.32,0,10.48.09,15.65-.04,2.53-.06,3.5.8,3.45,3.31-.12,6.01-.03,12.03-.03,18.05,0,5.43,0,10.86,0,16.49h12.4v-38.04h19.35v-12.68h-19.55v-17.62h-12.22c0,4.84-.13,9.45.05,14.05.11,2.81-.82,3.92-3.83,3.8-5.01-.2-10.03-.05-15.27-.05v12.73Z"/>
        <path class="cls-1" d="M90.94,158.98c-5.39-4.18-11.17-5.17-17.31-5.16-20.11.02-40.21,0-60.32,0-1.66,0-3.32,0-5.31,0V52.7h10.81c0,1.57,0,3.16,0,4.75,0,26.54.01,53.08.02,79.63,0,4.71.6,5.33,5.6,5.33,15.19,0,30.37-.14,45.56-.02,8.74.07,15.84,3.37,19.86,11.34.78,1.55.76,3.49,1.1,5.26Z"/>
        <path class="cls-1" d="M100.64,160c.37-9.62,8.43-16.99,18.33-17.05,15.18-.11,30.37-.03,45.55-.06,7.69-.01,8.46-.77,8.46-8.13,0-25.72.01-51.44.02-77.15,0-1.6,0-3.21,0-5.04h10.99v101.06c-1.71.08-3.33.23-4.95.24-20.1,0-40.21-.02-60.31,0-6.56,0-12.71,1.33-18.1,6.15Z"/>
      </g>
    </g>
  </g>
</svg>