<?xml version="1.0" encoding="UTF-8"?>
<svg version="1.1" viewBox="0 0 192 192" xml:space="preserve" xmlns="http://www.w3.org/2000/svg">
	 <circle class="a" cx="96" cy="96" r="88" fill="#56595b"/><path d="m92.789 132.79c-0.43434-1.1319-0.28118-3.3417 0.2701-3.8971 0.421-0.42412 0.37938-0.47349-0.21003-0.2491-0.61269 0.23325-0.7351 0.037-0.7351-1.1786 0-0.82245 0.36638-1.9243 0.84012-2.5265 0.46206-0.58742 0.84012-1.2055 0.84012-1.3735s-0.39319 0.19442-0.87375 0.80536c-1.9358 2.4609-2.2928-0.78956-0.41237-3.7546 1.7218-2.715 2.1262-5.1192 2.1262-12.639v-6.5337l-1.5168 1.3318c-1.3759 1.208-3.8122 2.5366-5.7292 3.1242-0.4967 0.15224-0.7351 0.65416-0.7351 1.5477 0 1.0862-0.14068 1.2856-0.78762 1.1164-0.58183-0.15215-0.96698 0.17016-1.4741 1.2336-0.85605 1.7952-1.5188 1.4568-1.5188-0.77527 0-1.1877-0.15832-1.6396-0.52507-1.499-0.28879 0.11077-1.6045 0.44294-2.9237 0.73813l-2.3987 0.53673-0.46567 2.3522c-0.93877 4.742-1.4251 4.9408-2.6858 1.0978l-0.80776-2.4624-1.1131 1.3333c-0.6122 0.73332-1.4099 1.3333-1.7727 1.3333-0.74036 0-1.1695 0.84776-1.1695 2.3103 0 1.2168-0.40026 2.3103-0.84564 2.3103-0.18464 0-0.46569-0.94513-0.62456-2.1003-0.19085-1.3876-0.48928-2.1003-0.87953-2.1003-0.76353 0-0.75018-0.8583 0.03683-2.3673 0.34512-0.66174 0.62866-1.5108 0.63009-1.8868 0.0043-1.128 1.1333-1.7272 2.9315-1.5558 0.9265 0.0883 1.7334 0.0244 1.7932-0.14204 0.05973-0.16648 2.1879-0.71278 4.7292-1.214 8.179-1.6131 14.52-5.42 16.973-10.191 0.98193-1.9092 1.0012-3.0505 0.32806-19.399-0.21392-5.195-0.11033-4.9104-1.7367-4.7703-0.79622 0.0686-1.5643 8e-3 -1.7068-0.13438-0.14251-0.1425 0.48233-1.7436 1.3885-3.558 0.90619-1.8144 2.0659-4.5204 2.5771-6.0133 0.51123-1.4929 1.0313-2.879 1.1556-3.0803 0.12437-0.20123 0.68892 1.0202 1.2546 2.7144s1.7735 4.6286 2.684 6.5209c0.91058 1.8924 1.6556 3.5154 1.6556 3.6068 0 0.0913-0.80336 0.14976-1.7852 0.12982l-1.7852-0.0363-0.3311 5.8808c-0.18211 3.2344-0.27662 8.5272-0.21003 11.762 0.11147 5.4145 0.20022 5.9918 1.1192 7.2803 3.5328 4.9533 9.2073 7.9783 17.904 9.5445 1.848 0.33283 3.4105 0.75641 3.4721 0.94131 0.0616 0.1849 0.74915 0.2618 1.5278 0.17089 2.1915-0.25584 2.9753 0.41301 3.6166 3.0864 0.51736 2.1566 0.50453 2.4164-0.13712 2.7755-0.48137 0.26939-0.70792 0.9384-0.70792 2.0905 0 1.8709-0.95832 2.1428-1.1677 0.33127-0.2599-2.2482-0.55054-2.9075-1.2816-2.9075-0.41422 0-1.1724-0.56708-1.6848-1.2602-0.51243-0.6931-1.0936-1.2602-1.2915-1.2602-0.19789 0-0.48506 0.80337-0.63815 1.7852-0.1531 0.98189-0.52568 2.2361-0.82795 2.7871-0.73414 1.3383-1.1484 0.64843-1.7336-2.8873l-0.45112-2.7255-2.7078-0.7245c-1.4893-0.39847-2.8496-0.73144-3.0228-0.73994-0.17328-8e-3 -0.31505 0.83518-0.31505 1.8748 0 2.3033-0.54692 2.4076-1.6516 0.31504-0.45737-0.86637-0.83994-1.3158-0.85015-0.99871-0.0294 0.91355-1.2017-0.24149-1.3585-1.3385-0.095-0.66455-0.98268-1.3331-3.2807-2.471-1.7327-0.85796-3.5028-1.9937-3.9334-2.5239-0.76925-0.94714-0.78025-0.82791-0.62917 6.8178l0.15378 7.7818 1.3643 2.7712c1.2294 2.4973 1.811 5.3985 1.0823 5.3985-0.15508 0-0.66545-0.33079-1.1342-0.7351-0.76571-0.66051-0.75842-0.61214 0.07194 0.47671 1.0882 1.4269 1.276 4.0389 0.29048 4.0389-0.51024 0-0.53959 0.15061-0.15074 0.77326 0.52517 0.84094 0.16458 3.8474-0.46145 3.8474-0.20221 0-0.49215-0.56684-0.64431-1.2596s-0.67412-1.538-1.1599-1.8783c-1.0827-0.75836-1.8426-0.25781-2.6914 1.7728-0.64738 1.5487-0.78646 1.6339-1.1445 0.70075zm-2.8453-23.489c-0.03852-1.0396-0.08576-2.2138-0.10501-2.6093-0.01924-0.39545 0.48956-1.0098 1.1307-1.3652 1.0343-0.57333 1.2111-0.57515 1.5688-0.0161 0.70536 1.1026 0.46734 3.6019-0.45466 4.774-1.3351 1.6974-2.0577 1.4328-2.1398-0.78347zm9.5696 0.43483c-0.8416-1.2844-0.887-4.1494-0.07642-4.8221 0.47319-0.39271 0.84021-0.3435 1.7155 0.23004 0.89734 0.58796 1.0601 0.94007 0.83826 1.8134-0.15142 0.59604-0.37702 1.698-0.50132 2.4489-0.26921 1.6261-1.0422 1.7551-1.9761 0.32982zm-31.314-5.5805c0.06191-1.611 8.8228-8.2445 14.044-10.633 2.6937-1.2326 3.9051-2.3175 4.994-4.4726 0.57177-1.1316 0.63751-2.222 0.40771-6.7624-0.30721-6.07-0.078-7.7696 1.0192-7.5568 0.61183 0.11869 0.72009 0.67004 0.72009 3.6673 0 2.4481 0.16068 3.5815 0.52507 3.7038 0.28879 0.0969 0.52507 0.45021 0.52507 0.78519 0 0.33497 0.49783 1.5915 1.1063 2.7922 2.4459 4.8267 1.5651 10.028-2.1773 12.856-1.7314 1.3087-1.9676 1.3762-3.1312 0.89417-0.69221-0.28673-1.2586-0.69561-1.2586-0.90864s1.0273-1.3715 2.2828-2.5744c1.2556-1.2029 2.4025-2.6124 2.5487-3.1322 0.22605-0.80374 0.10448-0.94513-0.81263-0.94513-0.78169 0-1.0785 0.2209-1.0785 0.80278 0 0.96072-2.1316 2.8414-4.1886 3.6955-3.9094 1.6233-7.8618 3.861-9.6868 5.4843-1.8393 1.636-4.348 3.0392-5.4338 3.0392-0.23845 0-0.42084-0.3308-0.4053-0.7351zm52.536-0.13586c-0.54621-0.2187-1.9096-1.2216-3.0297-2.2287-1.9995-1.7977-7.5614-4.9449-9.6291-5.4486-1.2447-0.30322-5.1386-3.5553-4.8384-4.0409 0.11457-0.18538-0.16761-0.43536-0.62708-0.55551-0.62282-0.16287-0.83539-0.0101-0.83539 0.60032 0 0.94828 3.6179 4.9834 4.4681 4.9834 0.86512 0 0.68741 0.71206-0.36098 1.4464-1.4942 1.0466-2.5546 0.77457-4.4096-1.1313-4.0643-4.1757-4.0308-7.2053 0.174-15.738 0.48864-0.9916 0.60745-2.0788 0.44641-4.085-0.16756-2.0875-0.0745-2.854 0.39344-3.2424 1.1835-0.98221 1.4504 0.47062 1.246 6.7816-0.15549 4.8012-0.0681 6.3334 0.41431 7.2663 0.91616 1.7717 3.6318 4.0421 6.4014 5.3519 4.1108 1.9441 13.07 8.739 13.07 9.9126 0 0.66015-1.3994 0.72235-2.8834 0.12816zm-5.3455-0.36331c-0.21025-0.19834-1.8945-0.73497-3.7428-1.1925-3.0219-0.74807-3.3605-0.93223-3.3605-1.8279 0-1.6322 1.8383-1.5124 5.2428 0.34174 2.7332 1.4885 3.4649 2.2839 2.5955 2.8212-0.19404 0.11993-0.52484 0.0558-0.7351-0.14256zm-40.075-0.53194c0.0016-0.29926 1.327-1.2653 2.9455-2.1467 3.4143-1.8595 5.2428-1.9748 5.2428-0.33055 0 0.88278-0.33734 1.0998-2.7304 1.7564-4.348 1.1931-5.4611 1.3401-5.4579 0.72084zm-9.8657-2.0055c-1.1547-1.2053-1.1785-1.3131-0.64524-2.9289 0.62135-1.8827 0.51266-2.1039-3.6074-7.3405-1.6041-2.0389-1.87-2.6092-1.4686-3.1504 0.26959-0.36349 0.81464-1.3678 1.2112-2.2318 0.82853-1.8051 1.7712-2.0779 1.7712-0.51261 0 1.6761 1.3382 3.8652 4.9972 8.1744 2.2852 2.6913 3.3909 4.3389 3.3962 5.0605 0.0086 1.183-2.7282 4.1808-3.8169 4.1808-0.35134 0-1.1783-0.56311-1.8377-1.2514zm56.365-0.76162c-0.8555-0.87611-1.5546-1.963-1.5535-2.4153 1e-3 -0.45232 1.3243-2.3658 2.9404-4.2522 1.6162-1.8864 2.9417-3.5876 2.9457-3.7805 4e-3 -0.19289 0.47656-0.79586 1.0501-1.3399 0.68764-0.65226 1.0429-1.4477 1.0429-2.335 0-1.5445 0.91155-3.0316 1.5982-2.6073 0.25599 0.15821 0.3686 0.54002 0.25024 0.84846s0.36246 1.1385 1.0685 1.8445 1.2837 1.4011 1.2837 1.5446-1.2415 1.7862-2.7589 3.6504c-3.1185 3.8313-3.7419 5.0762-3.122 6.2345 0.67008 1.252 0.49318 2.3054-0.55209 3.2874-1.3884 1.3044-2.4191 1.1373-4.1933-0.67959zm-50.807-5.5697c-0.86637-1.1666-1.5752-2.2712-1.5752-2.4548 0-0.18358 0.36614-0.66513 0.81365-1.0701 0.90802-0.82175 1.7067-0.56582 1.7067 0.54691 0 0.99778 0.82088 1.7395 1.9252 1.7395 1.2042 0 7.2474-3.7052 8.056-4.9393 0.34687-0.52939 0.74766-1.5345 0.89064-2.2336 0.42046-2.0558 1.0896-1.6171 1.2281 0.80528 0.16896 2.9547-0.43587 3.7986-4.2192 5.887-1.6889 0.93232-3.5244 2.178-4.0788 2.7681-1.609 1.7127-2.9096 1.4253-4.7471-1.0489zm45.448 1.0484c-0.79573-0.59044-2.7826-1.8132-4.4153-2.7174-3.905-2.1624-4.4824-2.8564-4.7155-5.6669-0.15588-1.8797-0.0716-2.3038 0.45768-2.3038 0.37697 0 0.76286 0.51963 0.92118 1.2404 0.38231 1.7407 1.6867 3.2571 3.6736 4.2707 0.93479 0.47689 2.0766 1.2183 2.5374 1.6476s1.4157 0.90746 2.122 1.0626c1.0279 0.22576 1.4357 0.0949 2.0435-0.65571 0.41764-0.51577 0.75935-1.2135 0.75935-1.5505 0-1.0339 1.87-0.48669 2.0234 0.59205 0.171 1.2032-2.667 5.1545-3.7023 5.1545-0.14198 0-0.90922-0.48309-1.705-1.0735z" fill="#9abeff" stroke-width=".42006"/></svg>
