<svg xmlns="http://www.w3.org/2000/svg" xml:space="preserve" width="192" height="192"><path fill="#FF877F" d="M179 168.958c0 6.099-4.943 11.042-11.042 11.042H24.042C17.944 180 13 175.057 13 168.958V25.042C13 18.944 17.944 14 24.042 14h143.916C174.057 14 179 18.944 179 25.042v143.916z"/><g fill="#FFF"><path d="M96.092 50.991c-25.41 0-46.009 20.599-46.009 46.009s20.599 46.009 46.009 46.009S142.101 122.41 142.101 97s-20.599-46.009-46.009-46.009zm0 81.712c-19.718 0-35.703-15.985-35.703-35.703 0-19.718 15.985-35.703 35.703-35.703 19.719 0 35.703 15.985 35.703 35.703 0 19.718-15.984 35.703-35.703 35.703z"/><path d="M96.092 70.131a26.744 26.744 0 0 0-15.264 4.756 8.833 8.833 0 1 1 1.646 17.511 8.834 8.834 0 0 1-8.699-10.365A26.74 26.74 0 0 0 69.223 97c0 14.84 12.03 26.869 26.869 26.869 14.84 0 26.869-12.029 26.869-26.869 0-14.839-12.029-26.869-26.869-26.869z"/></g></svg>