<?xml version="1.0" encoding="UTF-8" standalone="no"?>
<svg
   xml:space="preserve"
   viewBox="0 0 192 192"
   version="1.1"
   id="svg10"
   sodipodi:docname="lspatch.svg"
   inkscape:version="1.2.2 (b0a8486541, 2022-12-01)"
   inkscape:export-filename="lspatch.png"
   inkscape:export-xdpi="96"
   inkscape:export-ydpi="96"
   xmlns:inkscape="http://www.inkscape.org/namespaces/inkscape"
   xmlns:sodipodi="http://sodipodi.sourceforge.net/DTD/sodipodi-0.dtd"
   xmlns="http://www.w3.org/2000/svg"
   xmlns:svg="http://www.w3.org/2000/svg"><defs
     id="defs14" /><sodipodi:namedview
     id="namedview12"
     pagecolor="#505050"
     bordercolor="#eeeeee"
     borderopacity="1"
     inkscape:showpageshadow="0"
     inkscape:pageopacity="0"
     inkscape:pagecheckerboard="0"
     inkscape:deskcolor="#d1d1d1"
     showgrid="false"
     inkscape:zoom="1.2291667"
     inkscape:cx="19.525424"
     inkscape:cy="96.40678"
     inkscape:window-width="1884"
     inkscape:window-height="1055"
     inkscape:window-x="36"
     inkscape:window-y="0"
     inkscape:window-maximized="1"
     inkscape:current-layer="svg10" /><path
     fill="#98dc9a"
     d="m 96,184 c 48.601,0 88,-39.399 88,-88 C 184,47.399 144.601,8 96,8 47.399,8 8,47.399 8,96 c 0,48.601 39.399,88 88,88 z"
     id="path2"
     style="clip-rule:evenodd;fill-rule:evenodd" /><path
     fill="#ffffff"
     d="m 64.445812,78.083115 49.739808,49.739805 13.9059,-13.90591 -49.739801,-49.739801 z m -3.744043,-1.604266 a 2.2691172,2.2691172 0 0 0 0,3.208532 l 51.879581,51.879579 a 2.2676045,2.2676045 0 0 0 3.20853,0 l 16.04569,-16.04568 a 2.2698736,2.2698736 0 0 0 0,-3.20929 L 79.955985,60.433165 a 2.2691172,2.2691172 0 0 0 -3.208532,0 z"
     id="path4"
     style="clip-rule:evenodd;fill-rule:evenodd;stroke-width:0.756372" /><path
     fill="#ffffff"
     d="m 115.25286,60.432409 a 2.2691172,2.2691172 0 0 0 -3.20853,0 L 60.164745,112.31124 a 2.2691172,2.2691172 0 0 0 0,3.20928 l 16.044927,16.04493 a 2.2691172,2.2691172 0 0 0 3.209288,0 l 51.87958,-51.878825 a 2.2698736,2.2698736 0 0 0 0,-3.209288 z m -16.577415,29.73073 a 3.7820932,3.7820932 0 1 1 -5.348309,-5.349066 3.7820932,3.7820932 0 0 1 5.348309,5.349066 z m -8.022842,8.022842 a 3.781862,3.781862 0 1 1 -5.348309,-5.347553 3.781862,3.781862 0 0 1 5.348309,5.347553 z m 16.044927,0 a 3.781862,3.781862 0 1 1 -5.34831,-5.347553 3.781862,3.781862 0 0 1 5.34831,5.347553 z m -8.022085,8.022839 a 3.7820932,3.7820932 0 1 1 -5.348309,-5.34906 3.7820932,3.7820932 0 0 1 5.348309,5.34906 z"
     id="path6"
     style="clip-rule:evenodd;fill-rule:evenodd;stroke-width:0.756372" /></svg>
