<?xml version="1.0" encoding="UTF-8" standalone="no"?>
<svg
   xml:space="preserve"
   style="enable-background:new 0 0 192 192"
   viewBox="0 0 192 192"
   version="1.1"
   id="svg463"
   sodipodi:docname="lumapps.svg"
   inkscape:version="1.2.2 (b0a8486541, 2022-12-01)"
   inkscape:export-filename="lumapps.png"
   inkscape:export-xdpi="96"
   inkscape:export-ydpi="96"
   xmlns:inkscape="http://www.inkscape.org/namespaces/inkscape"
   xmlns:sodipodi="http://sodipodi.sourceforge.net/DTD/sodipodi-0.dtd"
   xmlns="http://www.w3.org/2000/svg"
   xmlns:svg="http://www.w3.org/2000/svg"><defs
     id="defs467" /><sodipodi:namedview
     id="namedview465"
     pagecolor="#505050"
     bordercolor="#eeeeee"
     borderopacity="1"
     inkscape:showpageshadow="0"
     inkscape:pageopacity="0"
     inkscape:pagecheckerboard="0"
     inkscape:deskcolor="#d1d1d1"
     showgrid="false"
     inkscape:zoom="0.43457604"
     inkscape:cx="-398.08913"
     inkscape:cy="-146.11942"
     inkscape:window-width="1884"
     inkscape:window-height="1055"
     inkscape:window-x="36"
     inkscape:window-y="0"
     inkscape:window-maximized="1"
     inkscape:current-layer="svg463" /><path
     d="M29.5 19.5h133c5.5 0 10 4.5 10 10v133c0 5.5-4.5 10-10 10h-133c-5.5 0-10-4.5-10-10v-133c0-5.5 4.5-10 10-10z"
     style="fill:#fff"
     id="path453" /><path
     d="m 132.41636,80.683235 v 9.479126 c 0,1.093746 -0.36459,1.822909 -1.38542,2.40624 -2.98957,1.677076 -5.90622,3.427069 -8.89579,5.104145 -1.60416,0.947913 -2.40624,0.437498 -2.40624,-1.458327 0,-5.760392 0,-11.520784 0.14583,-17.20826 0,-1.385411 -0.36458,-2.187491 -1.67707,-2.916654 -4.95832,-2.697906 -9.84371,-5.541643 -14.72911,-8.385381 -2.04166,-1.166662 -2.04166,-1.968742 0.0729,-3.135404 2.84374,-1.677076 5.76039,-3.281236 8.60413,-4.958312 0.87499,-0.510414 1.60416,-0.510414 2.47915,0 5.54165,3.20832 11.15621,6.416639 16.77077,9.552043 0.87499,0.510414 1.16666,1.020829 1.09374,1.968741 -0.0729,3.135404 0,6.343723 0,9.479127 0,0.07292 0,0.07292 -0.0729,0.07292 z"
     style="fill:#ff837d;stroke-width:0.729164"
     id="path455" /><path
     d="m 115.06226,115.46434 v 5.03123 c 0,0.94791 -0.29166,1.60416 -1.09374,2.04165 -5.68748,3.28124 -11.37495,6.63539 -17.06243,9.98954 -0.656247,0.36459 -1.166662,0.36459 -1.749993,0 -5.614559,-3.35415 -11.229118,-6.63538 -16.916594,-9.91662 -0.874996,-0.51041 -1.239578,-1.16666 -1.239578,-2.18749 v -10.13537 c 0,-2.11458 0.729163,-2.55208 2.552072,-1.45833 5.104145,2.98957 10.281206,5.97914 15.385351,8.96871 0.874997,0.51041 1.458328,0.51041 2.260407,0 5.031225,-2.98957 10.135375,-5.97914 15.239515,-8.8958 1.89583,-1.09374 2.55208,-0.72916 2.55208,1.45833 0.0729,1.74999 0.0729,3.42707 0.0729,5.10415 z"
     style="fill:#9abeff;stroke-width:0.729164"
     id="path457" /><path
     d="m 59.499999,80.683235 v -9.624959 c 0,-0.874996 0.291666,-1.458327 1.093746,-1.895825 5.614559,-3.135404 11.229119,-6.343723 16.770762,-9.552043 0.874996,-0.510414 1.604159,-0.583331 2.479156,0 2.916654,1.749993 5.906225,3.427069 8.822879,5.104145 1.677076,1.020829 1.677076,1.895825 0,2.843738 -5.104145,2.916654 -10.20829,5.833308 -15.385351,8.677046 -0.947913,0.510415 -1.312495,1.093746 -1.312495,2.187491 0.07292,5.833308 0.07292,11.666617 0.07292,17.499925 0,2.187491 -0.656248,2.624989 -2.552073,1.531244 -2.843738,-1.60416 -5.614559,-3.281236 -8.458297,-4.885396 -1.020829,-0.583331 -1.458327,-1.239578 -1.458327,-2.479156 v -9.479126 c 0,0.07292 0,0.07292 -0.07292,0.07292 z"
     style="fill:#98dc9a;stroke-width:0.729164"
     id="path459" /><path
     d="m 111.1977,83.162391 c 0,-0.583331 0.0729,-1.239578 -0.58334,-1.531243 -0.29166,-0.218749 -0.51041,-0.437499 -0.80207,-0.583331 -4.22915,-2.479156 -8.4583,-4.885396 -12.687451,-7.437469 -0.947913,-0.58333 -1.60416,-0.437498 -2.40624,0.07292 -4.156232,2.479156 -8.239548,4.812479 -12.39578,7.291635 -0.510415,0.291666 -1.093746,0.510415 -1.385411,1.093746 -0.07292,0.145832 -0.145833,0.291665 -0.145833,0.437498 0,5.468727 -0.07292,11.01037 -0.07292,16.479096 0,0.656248 0.364582,1.093747 0.947913,1.385407 4.447897,2.62499 8.895795,5.17706 13.343693,7.80205 0.656247,0.36458 1.239578,0.4375 1.968741,0 4.374988,-2.55207 8.822888,-5.17706 13.197868,-7.72913 0.72916,-0.4375 1.09374,-1.020829 1.09374,-1.895825 -0.0729,-5.177061 -0.0729,-10.281206 -0.0729,-15.385351 z"
     style="fill:#f9de81;stroke-width:0.729164"
     id="path461" /></svg>
