<svg xmlns="http://www.w3.org/2000/svg" id="svg16" version="1.1" viewBox="0 0 192 192"><defs id="defs4"><style id="style2">.a{fill:none;stroke:#b1b5bd;stroke-linecap:round;stroke-linejoin:round;isolation:isolate;opacity:.63}</style></defs><path id="circle8" d="M96 8A88 88 0 0 0 8 96a88 88 0 0 0 88 88 88 88 0 0 0 13.158-1.063l72.283-66.306A88 88 0 0 0 184 96 88 88 0 0 0 96 8z" style="fill:#728dbe;opacity:1;stroke:none"/><path id="path829" d="M101.033 38.33s-6.22.295-9.06 11.074c-8.255 8.016-7.409 26.463-7.409 26.463s-8.952 7.873-15.53 11.506c-2.236 1.235-4.323 1.36-7.264 5.393-2.2 3.015-4.675 10.224-6.329 14.957-1.781 2.503-9.977 7.498-10.21 11.289-.638 10.364 11.29 13.879 11.29 13.879s1.258 5.124 9.995 8.27c1.23-1.413 2.99-1.113 4.1-.577 1.78.86 5.994 7.298 11.505 13.16 4.9-4.374 11.186-5.133 13.59-4.818 9.669 1.265 12.157 25.484 12.746 34.095a88 88 0 0 0 72.984-66.39c-5.784-.547-17.484-1.947-24.966-4.881-6.422-2.518-18.862-8.778-21.573-12.37-5.522-9.29-14.238-19.99-14.238-19.99s3.553-10.775 1.797-25.599c.544-2.255 2.142-4.157 2.732-6.4 1.429-5.427 5.106-8.989 5.106-8.989s-8.018.17-14.309 12.008c-1.837.854-4.095 2.52-7.031 5.928-2.4 2.785-6.488 9.03-6.488 9.03s-.586-2.674-2.014-5.608c-1.369-2.814-3.233-6.507-3.523-8.701-.002-1.732 1.114-.688 1.941-4.819.302-1.509-.078-3.126.36-4.601.356-1.204 1.798-3.309 1.798-3.309z" style="fill:#56595b"/></svg>