<?xml version="1.0" encoding="UTF-8"?>
<svg version="1.1" viewBox="0 0 192 192" xml:space="preserve" xmlns="http://www.w3.org/2000/svg">
	 <g transform="matrix(.42969 0 0 .42969 8 8)">
	<path class="st0" d="m204.8 0c-112.9 0-204.8 91.9-204.8 204.8s91.9 204.8 204.8 204.8 204.8-91.9 204.8-204.8c-0.1-112.9-91.9-204.8-204.8-204.8" fill="#54688c"/>
	<path class="st1" d="m388.2 204.8c0-101.3-82.1-183.4-183.5-183.4-101.3 0-183.5 82.1-183.5 183.4s82.2 183.5 183.5 183.5c101.4-0.1 183.5-82.2 183.5-183.5" fill="#fff"/>
	<path class="st2" d="m321.6 204.8c0-64.5-52.3-116.8-116.8-116.8s-116.8 52.3-116.8 116.8 52.3 116.8 116.8 116.8 116.8-52.3 116.8-116.8" fill="#728dbe"/>
	<path class="st0" d="m204.8 330.8c-69.5 0-126-56.6-126-126.1s56.5-126 126-126 126.1 56.5 126.1 126c-0.1 69.6-56.6 126.1-126.1 126.1zm0-245c-65.6 0-119 53.4-119 119s53.4 119 119 119 119-53.4 119-119-53.4-119-119-119z" fill="#54688c"/>
	<path class="st2" d="m204.8 401.2c-108.3 0-196.4-88.1-196.4-196.4s88.1-196.4 196.4-196.4 196.4 88.1 196.4 196.4c-0.1 108.3-88.1 196.4-196.4 196.4m0-388.6c-106 0-192.1 86.2-192.1 192.2 0 105.9 86.2 192.1 192.1 192.1s192.1-86.2 192.1-192.1c0-106-86.2-192.2-192.1-192.2" fill="#728dbe"/>
	<g fill="#728dbe">
		<path class="st2" d="m40.9 200.3-3.3 0.8-0.9-3.4 5.5-1.6h2.8v19.2h-4.1z"/>
		<path class="st2" d="m49.8 210c0-2.4 1.1-3.7 3.1-4.6-1.5-0.9-2.4-2.1-2.4-4.2v-0.1c0-2.9 2.7-5.2 6.7-5.2s6.7 2.3 6.7 5.2v0.1c0 2-0.9 3.3-2.4 4.2 1.9 1 3.1 2.2 3.1 4.5v0.1c0 3.5-3.1 5.6-7.3 5.6s-7.5-2.3-7.5-5.6zm10.6-0.3c0-1.5-1.4-2.4-3.3-2.4s-3.3 0.9-3.3 2.3c0 1.3 1.2 2.4 3.3 2.4s3.3-1 3.3-2.3zm-0.5-8c0-1.2-1-2.3-2.7-2.3s-2.7 1-2.7 2.2v0.1c0 1.3 1.1 2.3 2.7 2.3s2.7-1 2.7-2.3z"/>
	</g>
	<g fill="#728dbe">
		<path class="st2" d="m351.7 207.4c-1 0.8-2.2 1.3-3.9 1.3-4.1 0-6.8-2.3-6.8-6.1v-0.1c0-3.8 3-6.7 7.3-6.7 2.6 0 4 0.6 5.5 2.1 1.4 1.4 2.2 3.4 2.2 7.2v0.1c0 6.2-2.9 10.4-8.3 10.4-2.8 0-4.6-0.9-6.3-2.3l2.2-3.2c1.4 1.1 2.6 1.6 4.2 1.6 2.9 0 3.7-2.7 3.9-4.3zm0.1-5c0-1.7-1.2-3-3.3-3s-3.2 1.2-3.2 2.9v0.1c0 1.7 1.3 2.9 3.3 2.9 2-0.1 3.2-1.3 3.2-2.9z"/>
		<path class="st2" d="m369.4 211.1h-9.3l-0.7-3 10.4-12.1h3.5v11.7h2.6v3.4h-2.6v4.1h-4v-4.1zm0-3.4v-5.9l-5.1 5.9z"/>
	</g>
	<path class="st1" d="m204.8 323.8c-65.6 0-119-53.4-119-119s53.4-119 119-119 119 53.4 119 119-53.4 119-119 119m0-233.6c-63.2 0-114.6 51.4-114.6 114.6s51.4 114.6 114.6 114.6 114.6-51.4 114.6-114.6-51.4-114.6-114.6-114.6" fill="#fff"/>
	<path class="st3" d="m202.6 102.3c-58.7 0-92.6 7.7-92.6 7.7s-13.5 51.5-5.8 117.4c3.2 27.7 25.7 87.2 100.3 107.6 74.6-20.3 97.1-79.9 100.3-107.6 7.7-66-5.8-117.4-5.8-117.4s-33.9-7.7-92.6-7.7z" fill="#54688c"/>
	<path class="st4" d="m294.5 212.1c-0.7 20-3.8 79.8-90.1 112.7-85.6-32-90.1-93.9-90.1-112.7z" fill="#9abeff"/>
	<path class="st5" d="m291.9 208.8c2.3-49.6-6.1-89.8-6.1-89.8s-32.2-6.2-81.3-6.2c-49.2 0-81.9 6.8-81.9 6.8s-8.9 40.4-6.5 89.1h175.8z" fill="#fff"/>
	<g fill="#728dbe">
		<path class="st2" d="m207.1 323-91.1-110.1c-3.3 22.7 15.1 89.6 91.1 110.1z"/>
		<path class="st2" d="m143.2 212.2 84.3 101.7c8.5-4.1 14.8-8.1 20.8-12.9l-73.6-88.8z"/>
		<path class="st2" d="m201.7 212.3 62.3 75.1c6.1-6.9 11.3-13.2 15-19.8l-45.8-55.3z"/>
		<path class="st2" d="m293 212.3-31.1-0.1 26.1 31.5c4.5-9.7 5-26 5-31.4z"/>
	</g>
	<path class="st0" d="m241.2 253.5c-0.2-0.7-0.8-1.3-1.5-1.6l-5.2-1.8c-0.5-0.2-0.9-0.1-1.4 0-0.4-1.8-1.4-3.4-2.9-4.5-0.2-0.1-0.4-0.3-0.6-0.4-0.3-0.2-0.7-0.4-1.1-0.6-0.7-0.3-1.4-0.5-2-0.7-1.5-0.5-3-1-4.9-2.3-1.8-1.3-2.6-2.5-3.4-3.6-0.2-0.3-0.4-0.5-0.6-0.8-0.5-0.8-1.2-1.5-1.9-2.1-1.3-0.9-2.9-1.4-4.5-1.4-0.4 0-0.7 0.1-1.1 0.1v-0.1c0.1-0.6-0.1-1.3-0.4-1.8l-3.2-4.3c-0.5-0.6-1.2-1-2-1s-1.5 0.3-1.9 0.9l-3.4 4.3c-0.4 0.5-0.6 1.2-0.5 1.9-0.3 0-0.5-0.1-0.8-0.1-1.6 0-3.2 0.5-4.5 1.4-0.2 0.1-0.4 0.3-0.5 0.4-0.3 0.3-0.6 0.5-0.9 0.9-0.5 0.6-0.9 1.1-1.3 1.7-1 1.3-1.8 2.5-3.8 3.9-1.8 1.3-3.2 1.7-4.5 2.1-0.3 0.1-0.6 0.2-0.9 0.3-0.9 0.2-1.8 0.6-2.6 1.2-1.6 1.1-2.6 2.8-3 4.7-0.5-0.2-1.1-0.2-1.7-0.1l-5.1 1.7c-0.7 0.2-1.3 0.8-1.6 1.5-0.2 0.7-0.1 1.5 0.3 2.1l3.1 4.5c0.4 0.5 0.9 0.8 1.5 1-0.8 1.7-1 3.8-0.4 5.6 0.1 0.2 0.2 0.4 0.2 0.6 0.1 0.4 0.3 0.8 0.6 1.2 0.4 0.6 0.8 1.2 1.2 1.7 1 1.3 1.9 2.5 2.6 4.8 0.7 2.1 0.6 3.5 0.6 4.9v1c-0.1 1 0 1.9 0.4 2.8 0.6 1.8 1.9 3.3 3.4 4.2-0.2 0.4-0.4 0.8-0.3 1.2v5.4c0 0.8 0.4 1.5 1 1.9s1.4 0.6 2.1 0.4l5.3-1.5c0.5-0.1 0.8-0.5 1.1-0.8 1.6 1.5 3.8 2.2 5.9 2.1 0.4 0 0.8-0.1 1.3-0.2 0.7-0.2 1.4-0.4 2-0.6 1.5-0.5 3-1 5.4-1 2.2 0 3.5 0.5 4.9 0.9 0.3 0.1 0.6 0.2 0.9 0.3 0.9 0.4 1.9 0.5 2.8 0.5 1.9 0 3.8-0.8 5.2-2.1 0.3 0.4 0.6 0.6 1.1 0.8l5.2 1.6c0.7 0.2 1.5 0.1 2.2-0.3 0.6-0.4 1-1.1 1-1.9l0.1-5.4c0-0.4-0.1-0.8-0.3-1.2 1.6-0.9 2.9-2.4 3.4-4.2 0.1-0.2 0.1-0.4 0.2-0.7 0.1-0.4 0.2-0.8 0.2-1.3 0.1-0.7 0.1-1.4 0.1-2.1 0-1.6 0-3.1 0.7-5.4 0.7-2.1 1.5-3.2 2.4-4.3 0.2-0.3 0.4-0.5 0.6-0.8 0.6-0.7 1.1-1.6 1.4-2.5 0.6-1.9 0.4-4-0.5-5.8 0.5-0.2 0.9-0.4 1.2-0.8l3.2-4.4c0.5-0.5 0.7-1.2 0.4-2z" fill="#54688c"/>
	<path class="st6" d="m201.6 265.2c0-1.7 1.4-3 3.1-3s3.1 1.4 3.1 3c0 1.7-1.4 3-3.1 3s-3.1-1.4-3.1-3z" fill="#f9de81"/>
	<path class="st7" d="m204.6 239.4c-0.5-1.9-1.7-3.5-3.2-4.4l3.2-4.1 3 4.1c-1.5 1-2.5 2.5-3 4.4m-24.5 17.8c-1.6-1.1-2.7-2.5-3.3-4.2l-4.8 1.6 2.9 4.2c1.4-1 3.3-1.6 5.2-1.6m9.5 28.3c-1.5 1.2-3.2 1.8-5.1 1.8v5.1l5-1.5c-0.6-1.6-0.6-3.5 0.1-5.4m30 0.1c0.7 1.8 0.7 3.6 0.1 5.3l4.9 1.5 0.1-5.1c-1.7 0.1-3.5-0.5-5.1-1.7m9.3-28.3c2-0.1 3.7 0.4 5.1 1.5l3-4.1-4.9-1.7c-0.4 1.6-1.6 3.2-3.2 4.3m-30.5 28.4c-2.3 0-4.1-1.8-4.1-4.1 0-0.3-0.3-0.4-0.5-0.2-1.5 1.8-2.6 3.4-2.7 5.3-0.1 2.8 2.3 5.1 5.2 5.1h0.5c0.3 0 0.5 0 0.9-0.1 2-0.5 3.8-1.5 7.2-1.5 2.9 0 4.4 0.8 5.9 1.2 0.6 0.2 1.3 0.4 2 0.4 2.9 0 5.2-2.3 5.2-5.1 0-2-1.2-3.5-2.7-5.3-0.1-0.2-0.4 0-0.4 0.2 0 2.2-1.9 4.1-4.1 4.1-1.7 0-3.9-1.5-6.1-1.5-1.9 0-4.6 1.5-6.3 1.5zm-2.7-5.6c0 1.9 1.5 3.4 3.4 3.4 0.2 0 0.4 0 0.7-0.1 0.1 0 0.2 0 0.3-0.1h0.1c1.2-0.4 2.3-0.9 4.4-0.9s3.1 0.6 4.3 0.9c0.4 0.1 0.8 0.2 1.2 0.2 1.9 0 3.4-1.5 3.4-3.4 0-0.5-0.1-1-0.3-1.4-0.1-0.2-0.2-0.4-0.3-0.5 0 0-5.8-7.9-6-8.1-0.3-0.4-0.7-0.2-0.9-0.1-0.3 0.1-1 0.3-1.5 0.3s-1.1-0.1-1.4-0.3c-0.4-0.2-0.7-0.3-0.9 0.1-0.2 0.3-4.4 6-5.7 7.8-0.5 0.6-0.8 1.3-0.8 2.2zm26.7-2.6c-0.7 2.2-3 3.3-5.2 2.6-0.3-0.1-0.5 0.1-0.3 0.4 1.3 1.9 2.4 3.5 4.3 4.2 2.7 0.9 5.7-0.6 6.5-3.3 0.1-0.2 0.1-0.3 0.1-0.5 0.1-0.2 0.1-0.5 0.2-0.8 0.2-2.1-0.3-4 0.8-7.3 0.9-2.7 2.1-3.9 3-5.2 0.4-0.5 0.8-1.1 1-1.7 0.9-2.7-0.6-5.7-3.3-6.5-1.9-0.6-3.8 0.1-6 0.9-0.2 0.1-0.2 0.3 0.1 0.4 2.2 0.7 3.4 3 2.7 5.2-0.5 1.6-2.6 3.2-3.3 5.3-0.6 1.7 0 4.6-0.6 6.3zm-6.2 0.8c1.8 0.6 3.8-0.4 4.4-2.2 0.1-0.2 0.1-0.4 0.1-0.7v-0.3-0.1c0-1.2-0.2-2.5 0.4-4.4 0.7-2 1.5-2.8 2.2-3.8 0.2-0.3 0.4-0.7 0.6-1.1 0.6-1.8-0.4-3.7-2.2-4.3-0.5-0.1-1-0.2-1.4-0.1-0.2 0-0.4 0-0.6 0.1 0 0-9.4 3-9.7 3.1-0.4 0.2-0.4 0.6-0.4 0.8 0 0.3-0.1 1-0.2 1.5-0.1 0.4-0.4 1-0.7 1.3s-0.5 0.6-0.2 0.9 4.3 6 5.7 7.8c0.5 0.7 1.2 1.2 2 1.5zm5.6-26.2c1.9 1.3 2.3 3.9 0.9 5.7-0.2 0.2 0 0.5 0.3 0.4 2.3-0.6 4.1-1.2 5.3-2.8 1.7-2.3 1.2-5.5-1.1-7.2-0.1-0.1-0.3-0.2-0.5-0.3-0.2-0.2-0.4-0.3-0.8-0.4-1.9-0.8-3.9-1-6.7-3-2.3-1.7-3.1-3.2-4.1-4.5-0.3-0.5-0.8-1-1.4-1.5-2.3-1.7-5.6-1.2-7.2 1.1-1.1 1.6-1.1 3.6-1 5.9 0 0.2 0.3 0.3 0.4 0 1.3-1.8 3.9-2.2 5.8-0.9 1.4 1 2.3 3.5 4.1 4.7 1.6 1.5 4.6 1.8 6 2.8zm-1.1 6.2c1.1-1.5 0.8-3.7-0.8-4.8-0.1-0.1-0.3-0.3-0.6-0.4-0.1 0-0.2-0.1-0.3-0.1h-0.1c-1.2-0.4-2.4-0.6-4.1-1.8s-2.2-2.3-2.9-3.2c-0.2-0.3-0.5-0.6-0.8-0.9-1.5-1.1-3.7-0.8-4.8 0.8-0.3 0.4-0.5 0.8-0.6 1.3 0 0.2-0.1 0.4-0.1 0.6v10.1c0 0.5 0.4 0.5 0.7 0.6s1 0.4 1.3 0.6c0.4 0.3 0.8 0.7 1 1s0.4 0.6 0.8 0.4 7.1-2.3 9.2-3c0.9-0.1 1.6-0.6 2.1-1.2zm-23.3-13.4c1.8-1.3 4.4-0.9 5.8 0.9 0.2 0.2 0.5 0.2 0.5-0.1 0.1-2.3 0.1-4.3-1-5.9-1.6-2.3-4.9-2.8-7.2-1.1-0.2 0.1-0.3 0.2-0.4 0.3-0.2 0.1-0.4 0.3-0.6 0.6-1.4 1.6-2.2 3.4-5 5.4-2.3 1.7-4 2-5.5 2.4-0.6 0.2-1.3 0.4-1.8 0.8-2.3 1.7-2.9 4.9-1.1 7.2 1.2 1.6 3.1 2.2 5.3 2.8 0.2 0.1 0.3-0.2 0.2-0.4-1.3-1.8-0.9-4.4 0.9-5.7 1.4-1 4-1.1 5.8-2.4 1.4-1 2.7-3.8 4.1-4.8zm5.6 3c-1.1-1.5-3.3-1.9-4.8-0.8-0.2 0.1-0.3 0.2-0.5 0.4l-0.3 0.3c-0.7 1-1.3 2.1-3 3.3s-2.9 1.3-4 1.8c-0.4 0.1-0.8 0.3-1.1 0.5-1.5 1.1-1.9 3.2-0.8 4.8 0.3 0.4 0.7 0.7 1.1 0.9 0.2 0.1 0.3 0.2 0.5 0.2 0 0 9.4 3 9.7 3.1 0.5 0.1 0.7-0.2 0.8-0.4 0.2-0.2 0.6-0.8 1-1.1s0.9-0.5 1.3-0.6 0.7-0.2 0.7-0.6v-9.6c0.1-0.7-0.1-1.5-0.6-2.2zm-20 17.9c-0.7-2.2 0.5-4.5 2.6-5.2 0.3-0.1 0.3-0.4 0.1-0.5-2.2-0.8-4.1-1.5-5.9-0.9-2.7 0.8-4.2 3.8-3.3 6.5 0 0.2 0.1 0.3 0.2 0.5s0.2 0.5 0.4 0.8c1.1 1.8 2.6 3.1 3.7 6.4 0.9 2.7 0.6 4.4 0.6 6-0.1 0.6 0 1.3 0.2 2 0.9 2.7 3.8 4.2 6.5 3.3 1.9-0.6 3-2.2 4.3-4.2 0.1-0.2-0.1-0.4-0.3-0.3-2.2 0.7-4.5-0.5-5.2-2.6-0.5-1.6 0.2-4.1-0.5-6.2-0.6-1.9-2.9-4-3.4-5.6zm4.5-4.3c-1.8 0.6-2.8 2.5-2.2 4.3 0 0.2 0.1 0.4 0.3 0.6 0.1 0.1 0.1 0.2 0.2 0.2 0 0 0 0.1 0.1 0.1 0.7 1 1.6 1.9 2.3 3.8 0.7 2 0.4 3.1 0.5 4.3 0 0.4 0 0.8 0.2 1.2 0.6 1.8 2.5 2.8 4.3 2.2 0.5-0.1 0.9-0.4 1.2-0.7l0.4-0.4s5.8-7.9 5.9-8.2c0.3-0.4 0-0.7-0.2-0.9s-0.6-0.8-0.7-1.3c-0.1-0.4-0.2-1-0.2-1.4s0-0.7-0.4-0.8-7.1-2.3-9.2-3c-0.8-0.2-1.6-0.3-2.5 0z" fill="#ff837d"/>
	<path class="st6" d="m233.4 159.4 21.1-7.3s-1.8 8.8-1.3 15.6c0.6 8.8 5.7 15.5 5.7 15.5l-26 9z" fill="#f9de81"/>
	<g>
		<path class="st8" d="m258.9 183.2s-4.6-6.6-5.4-14.3c-0.6-5.8 0-10.8 1-16.8-0.9 4-4.3 15.3-13.8 25.8-3.8 4.2-5.5 7.9-6.2 10.5l-0.4-49.7s-5 1.8-5.5 1.9c-0.6 0.2-0.9 0.6-0.9 0.7 0 0.3-0.2 0.5-0.6 0.6s-3.3 1.2-5.3 1.8c-0.4 0.1-0.2 0.5 0 0.5 2.4-0.1 5.8-0.4 6.1-0.4 0.5-0.1 0.7-0.3 0.7-0.6v-0.1c0.1-0.4 0.4-0.7 0.8-0.7 0.3 0 2.1-0.2 3.2-0.4l-0.5 53.5h2.4v-3.8z" fill="#c39a54"/>
	</g>
	<g>
		<path class="st6" d="m165.4 193.6s-3.9-2.9-5-8.4c-1.1-5.6 1.7-8.8 1.7-8.8l25.6-8.8s-1.6 5.1-0.1 10.9c1.9 7.3 5.8 12.2 5.8 12.2s-9.4-1.8-18.5-0.6c-8.6 1.1-9.5 3.5-9.5 3.5z" fill="#f9de81"/>
	</g>
	<path class="st6" d="m136 187.2s3.2-8.7 12.5-18.2c7.1-7.2 11.7-9.3 11.7-9.3s-4.1 5.9-5.8 15.6c-1.1 6 0.1 13.6 0.1 13.6s-4.8-1-10.3-1.6c-4.6-0.5-8.2-0.1-8.2-0.1z" fill="#f9de81"/>
	<path class="st8" d="m160.2 159.7s-4 5.9-5.7 15.6c-1.1 6 0.1 13.6 0.1 13.6s-1.2-0.3-4-0.9c-11.4-2.6 9.6-28.3 9.6-28.3z" fill="#c39a54"/>
	<path class="st8" d="m175.2 166.7-0.2-23c-0.5 0.2-5 1.7-5.5 1.9-0.6 0.2-0.9 0.6-0.9 0.8 0 0.3-0.2 0.5-0.6 0.6s-3.3 1.1-5.3 1.8c-0.4 0.1-0.2 0.5 0 0.5 2.3-0.1 5.8-0.4 6.1-0.4 0.5-0.1 0.7-0.3 0.8-0.6v-0.1c0.1-0.4 0.4-0.7 0.8-0.7 0.3 0 2-0.2 3.2-0.3l-0.2 19.6h1.8z" fill="#c39a54"/>
	<path class="st8" d="m205 145.9h1.8v-22.1s-5 1.8-5.5 1.9c-0.6 0.2-0.9 0.6-0.9 0.7 0 0.3-0.2 0.5-0.6 0.6s-3.3 1.1-5.3 1.8c-0.4 0.1-0.2 0.5 0 0.5 2.4-0.1 5.8-0.4 6.1-0.4 0.5-0.1 0.7-0.3 0.8-0.6 0.1-0.4 0.4-0.7 0.8-0.7 0.3 0 1.9-0.2 3.1-0.3z" fill="#c39a54"/>
	<path class="st6" d="m200.5 129h0.1c0.5-0.1 0.7-0.3 0.7-0.6s0.2-0.5 0.5-0.6l-0.6-1.9c-0.6 0.2-0.8 0.6-0.8 0.7 0 0.3-0.2 0.4-0.5 0.5z" fill="#f9de81"/>
	<path class="st6" d="m168.7 148.8h0.1c0.5-0.1 0.7-0.3 0.7-0.6 0.1-0.3 0.2-0.5 0.5-0.6l-0.6-1.9c-0.6 0.2-0.8 0.6-0.8 0.7 0 0.3-0.2 0.4-0.5 0.5z" fill="#f9de81"/>
	<path class="st6" d="m227.7 143.8h0.1c0.5-0.1 0.7-0.3 0.7-0.6 0.1-0.3 0.2-0.5 0.5-0.6l-0.6-1.9c-0.6 0.2-0.8 0.6-0.8 0.7 0 0.3-0.2 0.4-0.5 0.5z" fill="#f9de81"/>
	<path class="st8" d="m193.4 190.7s-4.1-6-5.7-12.4c-1.4-5.5 0-10.7 0-10.7s-2.7 9.4-9.2 14.5c-4.5 3.6-15.6 6.9-13 11.5 0.4-0.6 1.5-1.8 6-2.9 0.5-0.1 1.1-0.2 1.7-0.3v7.6h2.4v-7.9c8.3-0.9 17.8 0.6 17.8 0.6z" fill="#c39a54"/>
	<g>
		<path class="st6" d="m162.7 174.8s-3-1.8-2.6-7.6c0.4-6 3.4-8.6 3.4-8.8l19.9-6.8s-1.5 3-0.4 7.5c1.2 5.4 4.7 8.5 4.7 8.5s-10 0.1-19 3.2c-4.4 1.5-6 4-6 4z" fill="#f9de81"/>
	</g>
	<g>
		<path class="st8" d="m174.5 162.3c5.7-4.7 8.8-10.7 8.8-10.7s-0.8 3.8-0.2 7.2c1.1 5.8 4.5 8.8 4.5 8.8s-8.1 0.1-16.8 2.6c-5.8 1.6-7.6 3.9-8.1 4.7-1.9-4.4 6-7.8 11.8-12.6z" fill="#c39a54"/>
	</g>
	<g>
		<path class="st6" d="m197.2 195.1s-5.5-4.1-6.8-11.8c-1.1-6.1 3-10.5 3-10.5l31.1-10.7s-1.7 6.9-0.1 13.5c1.8 7.4 8.6 16.6 8.6 16.6s-12.9-3.7-24.1-2.3c-10.7 1.4-11.7 5.2-11.7 5.2z" fill="#f9de81"/>
	</g>
	<g>
		<path class="st6" d="m190.9 145.8c-0.2-4.7 3.1-8.5 3.2-8.7l22.3-7.8s-1.5 3.5-1.1 6.5c0.7 5.7 3.9 8.7 3.9 8.7s-8.8-0.5-19.1 3.1c-5.7 2-6.3 4.7-6.3 4.7s-2.7-0.7-2.9-6.5z" fill="#f9de81"/>
	</g>
	<g>
		<path class="st8" d="m208.5 139.8c4-3.5 7.9-10.4 7.9-10.4s-1.5 3.5-1.1 6.5c0.7 5.7 3.9 8.7 3.9 8.7s-9.5-0.1-18.6 3.1c-3.9 1.4-6.4 3.5-6.7 4.7-1.3-4.4 9.1-7.8 14.6-12.6z" fill="#c39a54"/>
	</g>
	<g>
		<path class="st6" d="m194.1 171.5s-3.2-3.7-3.8-9.5c-0.6-6 2.9-8.4 3.2-8.6l25.8-8.9s-0.7 1.9-0.1 7.1c0.6 4.4 4.9 10.4 4.9 10.4s-13.8 0.4-22.3 3.7c-5.4 2.1-7.7 5.8-7.7 5.8z" fill="#f9de81"/>
	</g>
	<g>
		<path class="st8" d="m211.2 156.6c5.6-4.8 8.1-12 8.1-12s-0.7 4.1 0 7.3c1.3 5.6 5.3 10.3 5.3 10.3s-12 0.2-20.7 3.1c-5.7 1.9-9.2 5.3-9.7 6.3-1.3-4.9 11.4-10.2 17-15z" fill="#c39a54"/>
	</g>
	<g>
		<path class="st8" d="m233.5 192.7s-7-9.1-9.1-17.1c-1.3-5.3-0.3-11.3 0.1-13.4-0.8 2.8-3.6 11.9-10.5 18.3-6.6 6.1-19.6 9-16.8 14.7 0.5-0.9 2-3.1 7.3-4.4l-0.1 7.3h2.5v-7.8c11.5-1.8 26.6 2.4 26.6 2.4z" fill="#c39a54"/>
	</g>
	<path class="st9" d="m245.5 209.8c1.6-0.3 3.2-0.7 5.6-1.3-0.1-0.1-0.3-0.2-0.4-0.3-2.6-2.9-2.2-6-0.6-7.5 5.8-5.4 5.7-9.4 5.7-9.4s-14.1 2.9-32.7 3.9c-1.2 0.1-5.5 2-6.8 2-2.6 0.1-5.2 0.2-7.9 0.2-35.1 0.3-44.9-2.2-56.4-4.3-11.7-2.2-16.8-4.5-16.8-4.5l-0.4 1.2s9.2 3.6 15.8 6.8c1.4 0.7 6.9 8.9 8.7 11.7h-41.7c-2.3-47.8 6.9-86.9 6.9-86.9s31.9-6.8 79.9-6.8v-5.1c-50.9 0-84.8 7.2-84.8 7.2s-14.8 52.2-7 114.4c3.3 25.9 24.7 74.4 91.6 96.9l2.9-4.1-2.9-4.1c-63-21.1-81.4-63.8-84.6-88.1-0.7-5.4-1.2-10.8-1.6-16h86.5v-7.3h-44.4c1-3.2 4.1-4 8-3.1 4 1 8 2 11.8 1.8 9.5-0.5 8.1-3 9-3 9.8 0.6 13.5 3 22 2.8 7.8-0.1 10.5-2.2 11.2-2.2 9.5-0.1 13.1 4.3 22.6 5.1h0.8z" fill="#f9de81"/>
	<path class="st10" d="m289.1 116.7s-33.8-7.2-84.7-7.2v5.1c48 0 79.8 6.8 79.8 6.8s9.3 39.1 6.9 86.9h-41.8c-3.3-3.2-1.4-7.4-0.3-8.4 4.9-4.4 4.9-7.4 4.9-7.4s-11.3 2.8-29.9 3.6c-1.2 0-6.4 2.4-7.7 2.4-2.6 0.1-6.2 0.2-8.9 0.2-24.2 0-36.1-0.5-57.1-5 0.4 0.5 0.6 0.7 1 1.3 0.1 0.2 9.2 2.5 9.3 2.7 1.4 1.9 3.2 3.2 5.4 4.4 3.4 1.8 8.4 3.3 12.5 3.6 9.5 0.6 7.7-3 8.6-3 9.7-0.2 16 3.3 24.5 3.2 7.8-0.1 8-2.6 8.8-2.6 7.7-0.4 15.5 2.9 22.2 5.1h-38.2v7.3h86.2c-0.4 5.3-0.9 10.6-1.6 16-3.2 24.4-21.6 67-84.6 88.1v8.2c66.9-22.5 88.4-70.9 91.6-96.9 7.9-62.2-6.9-114.4-6.9-114.4z" fill="#c39a54"/>
	<g fill="#54688c">
		<polygon class="st0" points="91.1 125.9 87.9 132 69.5 122.4 77.4 136.6 77.3 136.7 61.3 138.3 79.5 147.9 76.3 154 48.2 139.2 51.7 132.5 67.5 131.4 59.5 117.7 63 111.1"/>
		<path class="st0" d="m80.3 89.2 4.4-4.7 32.6 12-5 5.3-7.2-2.8-9.2 9.8 3.2 7-4.9 5.2zm18.7 7.5-10.4-4 4.6 10.1z"/>
		<polygon class="st0" points="146.1 78.6 141 81.7 117.4 72.4 127.9 89.7 122 93.3 105.5 66.1 111 62.8 133.9 71.8 123.8 55.1 129.7 51.5"/>
		<path class="st0" d="m148.2 60.6c-2.5-8.8 1.9-17.8 11.3-20.5 5.7-1.7 9.8-0.7 13.4 1.2l-2.9 6.2c-3-1.5-5.7-2.1-8.8-1.2-5.1 1.5-7.6 6.8-6.1 12.1v0.1c1.5 5.2 6.4 8.5 11.6 7 3.5-1 5.2-3 7-5.9l5.5 3.1c-2.2 4.3-5.1 7.4-10.9 9.1-8.9 2.6-17.6-2.4-20.1-11.2z"/>
		<polygon class="st0" points="213.1 34.4 213.9 66.2 206.9 66.4 206.6 53.6 193.7 54 194.1 66.7 187.1 66.9 186.3 35.1 193.2 34.9 193.6 47.5 206.4 47.2 206.1 34.6"/>
		<path class="st0" d="m254.2 70.5 5.8-2.8c1.6 3.3 3.7 6 7 7.5 2.6 1.2 4.6 0.9 5.4-0.8v-0.1c0.8-1.6 0.1-2.9-4.1-6.3-5.1-4.2-8.1-7.5-5.5-13.2v-0.1c2.4-5.2 8.2-6.7 14.1-4 4.2 1.9 7.2 4.9 9 8.6l-5.5 3.3c-1.7-3-3.8-5.2-6.2-6.3s-4.2-0.6-4.9 0.8v0.1c-0.9 1.9 0.1 3.1 4.5 6.7 5.1 4.2 7.5 7.9 5.1 12.9v0.1c-2.6 5.7-8.5 6.9-14.7 4.1-4.2-2.2-7.9-5.8-10-10.5z"/>
		<polygon class="st0" points="306.1 76.6 290.8 96.7 285.2 92.5 300.6 72.4 292.9 66.5 296.8 61.4 317.7 77.3 313.8 82.5"/>
		<path class="st0" d="m350.8 117.5 6.5 13c1.8 3.6 2.2 6.9 1.3 9.7-0.8 2.4-2.6 4.3-5.3 5.7h-0.1c-4.6 2.3-8.7 1.3-11.9-1.7l-6.7 12-3.7-7.3 6-10.7-2.5-4.9-9.1 4.6-3.1-6.2zm-7.5 19.5c1.5 3 4 4 6.4 2.8h0.1c2.7-1.3 3.1-3.9 1.6-6.9l-3.1-6.2-8.1 4.1z"/>
		<polygon class="st0" points="252.3 47.6 253.7 41.6 230.2 36.5 223.5 67.5 247.2 72.7 248.5 66.6 231.6 62.9 233 56.4 244.7 58.9 248 53.3 234.4 50.3 235.7 44"/>
		<polygon class="st0" points="317.3 104.2 325.1 113.5 331.4 111.4 322.1 100.2 327 96.1 337.9 109.1 342.7 105.1 327.3 86.8 302.9 107.2 318.5 125.7 323.2 121.7 312.2 108.5"/>
		<g>
			<path class="st0" d="m150.9 357.6c0-9.3 6.9-16.8 16.9-16.8 6.1 0 9.7 2 12.8 5l-4.5 5.2c-2.5-2.3-5-3.6-8.3-3.6-5.5 0-9.4 4.5-9.4 10.1v0.1c0 5.5 3.8 10.2 9.4 10.2 3.7 0 6-1.5 8.5-3.8l4.5 4.6c-3.3 3.6-7 5.8-13.3 5.8-9.5-0.2-16.6-7.6-16.6-16.8z"/>
			<path class="st0" d="m187.7 341.3h7.1v32.3h-7.1z"/>
			<path class="st0" d="m211.3 347.9h-9.8v-6.6h26.8v6.6h-9.8v25.8h-7.1v-25.8z"/>
			<path class="st0" d="m243.7 360.9-12.4-19.6h8.3l7.7 13 7.8-13h8.1l-12.4 19.4v12.9h-7.1z"/>
		</g>
	</g>
</g></svg>
