<svg xmlns="http://www.w3.org/2000/svg" xml:space="preserve" style="fill-rule:evenodd;clip-rule:evenodd;stroke-linejoin:round;stroke-miterlimit:2" viewBox="0 0 192 192"><path d="M164.5 21.5c0-5.519-4.481-10-10-10h-133c-5.519 0-10 4.481-10 10v133c0 5.519 4.481 10 10 10h133c5.519 0 10-4.481 10-10v-133Z" style="fill:#f8c18c" transform="translate(8 8)"/><path d="M116.431 57.31c1.627-9.103 2.955-14.395 9.662-15.04 19.361-1.863 30.308 8.429 32.793 17.036 2.322 8.042-7.823 16.472-13.064 8.83-14.208-20.716-19.563-15.18-21.573-7.385a42.81 42.81 0 0 1 19.786 24.407l6.087 19.283a38.66 38.66 0 0 1-36.866 50.297H78.744a38.658 38.658 0 0 1-37.061-49.66l5.703-19.214a42.82 42.82 0 0 1 21.138-25.733c-2.134-7.452-7.577-12.157-21.404 8.005-5.242 7.642-15.387-.788-13.065-8.83 2.486-8.607 13.433-18.899 32.794-17.036 6.612.636 7.996 5.789 9.593 14.658a42.812 42.812 0 0 1 12.014-1.715h14.725c4.589 0 9.048.73 13.25 2.097Z" style="fill:#56595b" transform="matrix(.7905 0 0 .7905 19.74 18.22)"/><path d="M136.693 85.575c-4.219-14.71-16.619-24.711-30.636-24.711H86.639c-14.222 0-26.752 10.29-30.799 25.293l-6.419 23.8c-2.845 10.547-.999 21.953 4.981 30.771 5.98 8.817 15.391 14.01 25.389 14.01h33.521c10.094 0 19.584-5.293 25.551-14.252 5.968-8.959 7.698-20.51 4.66-31.103l-6.83-23.808Z" style="fill:#fff" transform="matrix(.75495 0 0 .68605 22.817 27.246)"/><circle cx="75.51" cy="105.726" r="14.184" style="fill:#56595b" transform="matrix(.7905 0 0 .7905 20.485 17.626)"/><circle cx="70.882" cy="100.155" r="4.82" style="fill:#fff" transform="matrix(.8397 0 0 .8397 16.609 13.581)"/><circle cx="70.882" cy="100.155" r="4.82" style="fill:#fff" transform="matrix(.50956 0 0 .50956 48.809 53.15)"/><circle cx="70.882" cy="100.155" r="4.82" style="fill:#fff" transform="translate(66.637 85.7) scale(.22144)"/><circle cx="75.51" cy="105.726" r="14.184" style="fill:#56595b" transform="matrix(.7905 0 0 .7905 53.08 18.152)"/><circle cx="70.882" cy="100.155" r="4.82" style="fill:#fff" transform="matrix(.8397 0 0 .8397 49.204 14.107)"/><circle cx="70.882" cy="100.155" r="4.82" style="fill:#fff" transform="matrix(.50956 0 0 .50956 81.404 53.676)"/><circle cx="70.882" cy="100.155" r="4.82" style="fill:#fff" transform="translate(99.232 86.226) scale(.22144)"/><path d="M68.108 124.077a.365.365 0 0 1 .394.546 51.07 51.07 0 0 1-1.18 1.979.592.592 0 0 1-.96.066l-.001-.001a.427.427 0 0 1-.071-.426c.216-.523.796-1.758 1.818-2.164Z" style="fill:#f8c18c" transform="scale(-.7905) rotate(-58.551 -286.201 184.223)"/><path d="M68.108 124.077a.365.365 0 0 1 .394.546 51.07 51.07 0 0 1-1.18 1.979.592.592 0 0 1-.96.066l-.001-.001a.427.427 0 0 1-.071-.426c.216-.523.796-1.758 1.818-2.164Z" style="fill:#f8c18c" transform="scale(-.7905) rotate(-58.551 -284.83 181.072)"/><path d="M68.108 124.077a.365.365 0 0 1 .394.546 51.07 51.07 0 0 1-1.18 1.979.592.592 0 0 1-.96.066l-.001-.001a.427.427 0 0 1-.071-.426c.216-.523.796-1.758 1.818-2.164Z" style="fill:#f8c18c" transform="scale(-.7905) rotate(-58.551 -283.091 177.971)"/><path d="M68.108 124.077a.365.365 0 0 1 .394.546 51.07 51.07 0 0 1-1.18 1.979.592.592 0 0 1-.96.066l-.001-.001a.427.427 0 0 1-.071-.426c.216-.523.796-1.758 1.818-2.164Z" style="fill:#f8c18c" transform="scale(.7905 -.7905) rotate(-58.551 -163.978 -33.087)"/><path d="M68.108 124.077a.365.365 0 0 1 .394.546 51.07 51.07 0 0 1-1.18 1.979.592.592 0 0 1-.96.066l-.001-.001a.427.427 0 0 1-.071-.426c.216-.523.796-1.758 1.818-2.164Z" style="fill:#f8c18c" transform="matrix(.41243 .67438 .67438 -.41243 -37.038 123.36)"/><path d="M68.108 124.077a.365.365 0 0 1 .394.546 51.07 51.07 0 0 1-1.18 1.979.592.592 0 0 1-.96.066l-.001-.001a.427.427 0 0 1-.071-.426c.216-.523.796-1.758 1.818-2.164Z" style="fill:#f8c18c" transform="matrix(.41243 .67438 .67438 -.41243 -34.29 123.36)"/></svg>