<?xml version="1.0" encoding="UTF-8"?>
<svg version="1.1" viewBox="0 0 192 192" xml:space="preserve" xmlns="http://www.w3.org/2000/svg">
	 <circle class="a" cx="96" cy="96" r="88" fill="#98dc9a"/><path d="m82.51 73.054 3.7684-10.908a4.4299 4.4299 175.16 0 1 8.0717-0.68278l37.725 68.827a3.0723 3.0723 134.19 0 1-4.0944 4.2114l-72.177-36.958a4.1491 4.1491 94.581 0 1 0.61211-7.6402l13.316-4.3145a20.062 20.062 135.55 0 0 12.778-12.534z" fill="#fff" stroke-linejoin="round" stroke-width="3.6136"/><path d="m88.265 85.577 1.3425-3.8862a2.2149 2.2149 175.16 0 1 4.0359-0.34139l16.373 29.871a1.5362 1.5362 134.19 0 1-2.0472 2.1057l-31.356-16.056a2.0746 2.0746 94.581 0 1 0.30605-3.8201l4.9568-1.6061a10.031 10.031 135.55 0 0 6.3891-6.2672z" fill="#98dc9a" stroke-linejoin="round" stroke-width="1.6167"/><path d="m92.291 105.3-7.8583 13.611" fill="none" stroke="#98dc9a" stroke-linecap="round" stroke-linejoin="round" stroke-width="3.6136"/><path d="m101.83 96.285 15.439-8.914" fill="none" stroke="#98dc9a" stroke-linecap="round" stroke-linejoin="round" stroke-width="3.6136"/></svg>
