<svg xmlns="http://www.w3.org/2000/svg" width="192" height="192"><rect width="152" height="152" x="20" y="20" opacity=".63" rx="9.935" style="fill:#98dc9a;stroke:none;stroke-width:.999958;stroke-miterlimit:4;stroke-dasharray:none;fill-opacity:1;opacity:1"/><path d="M57.225 135.753c.277-.903 2.035-5.354 3.907-9.89 8.831-21.405 12.323-37.016 12.492-55.853.108-12.114.157-12.492 1.783-13.808 2.355-1.908 7.118-1.785 10.146.26 3.51 2.37 6.196 7.391 13.622 25.461l3.316 8.066 6.097-6.273c6.708-6.902 9.915-11.244 12.144-16.445.808-1.885 1.58-3.537 1.713-3.671.43-.43 5.852 2.59 8.204 4.57 3.597 3.026 4.377 5.229 4.35 12.286-.013 3.472-.335 8.572-.716 11.334-.381 2.761-.99 10.887-1.353 18.056-.533 10.528-.94 13.667-2.112 16.319-1.174 2.654-1.802 3.284-3.27 3.284-2.213 0-3.578-1.929-5.908-8.346-1.428-3.935-1.778-6.573-2.115-15.938-.222-6.173-.516-11.596-.653-12.051-.137-.455-1.805.612-3.706 2.37-5.068 4.691-13.257 10.767-15.104 11.207-2.309.55-4.766-1.688-6.28-5.72-2.225-5.924-6.901-14.77-7.461-14.113-.294.345-1.272 4.779-2.173 9.853-2.47 13.917-8.572 30.677-12.758 35.046-1.685 1.76-6.985 3.935-12.64 5.188-1.857.412-1.986.31-1.525-1.192z" style="fill:#fff;fill-opacity:1;stroke-width:.999998"/></svg>