<svg xmlns="http://www.w3.org/2000/svg" viewBox="0 0 172.67 175.38"><circle cx="86.33" cy="90.76" r="79.78" fill="#fff"/><path fill="#56595b" d="M68.51 120.42q1.14-5.83 2.27-11.67Q74.62 89 78.45 69.22q2.88-14.85 5.78-29.71c.07-.38.08-.71.63-.7h11c-.34 1.74-.68 3.42-1 5.1a1 1 0 0 0 .26.86c2.89 2 5.81 4 8.84 6.1.68-.85 1.46-1.76 2.15-2.74a1.08 1.08 0 0 0-.14-1c-1.66-2.52-3.35-5-5-7.52-.16-.24-.3-.48-.54-.85.82 0 1.52-.05 2.22 0a1.18 1.18 0 0 1 .66.56c1.35 2.07 2.7 4.14 4 6.24a.82.82 0 0 0 1.18.41 21.62 21.62 0 0 0 6.5-3.66 1.16 1.16 0 0 0 .33-.91c-.11-.85-.34-1.68-.55-2.66h1.65a.72.72 0 0 1 .42.32c.08.11 0 .28.08.42.37 1.83.37 1.84 2.2 2.13a18.58 18.58 0 0 0 6.69-.19.86.86 0 0 0 .83-.87 16.21 16.21 0 0 1 .36-1.76h2c-.18.87-.4 1.73-.52 2.6a1.07 1.07 0 0 0 .27.84 20.83 20.83 0 0 0 7.3 3.94l3-4.62c.48-.75 1.33-1.56 1.26-2.27s-1-1.37-1.68-2c-1.53-1.48-3.09-2.92-4.65-4.38-.16-.14-.35-.26-.63-.48v5.94h-.1V16.6a85.44 85.44 0 0 1 27.68 29.09 84.72 84.72 0 0 1 11.15 53.06 86.3 86.3 0 0 1-169.14 12.6C-7.36 72.61 10.49 35 39.33 16.77v15.02a1.74 1.74 0 0 1-.53 1.14 73.29 73.29 0 0 0-24.15 70.56c0 .13.06.26.15.63.24-.45.38-.7.51-1q15-31.65 29.89-63.3a1.54 1.54 0 0 1 1.66-1.06H67.8l.48 67.67a7.31 7.31 0 0 1-.57-.48q-8.16-8.58-16.38-17.26a1.93 1.93 0 0 1-.41-1.22V65.23l-.17-.06q-8.14 17.3-16.32 34.68h16.55v-4.87l12.14 12.27-11.79 12.65v-7.12H29.44a1.06 1.06 0 0 0-1.17.72c-1.66 3.72-3.39 7.42-5 11.15a1.4 1.4 0 0 0 0 1.15 73 73 0 0 0 37.6 31.54l.48.14q2.49-12.81 5-25.61H51.33a17.26 17.26 0 0 0 0-2.69c-.34-2.26.56-3.83 2.17-5.4 4.8-4.69 9.42-9.55 14.11-14.35a5.13 5.13 0 0 0 .49-.7l.23.15v11.6Zm13.07-7.68c-.45 2.25-.86 4.28-1.22 6.31a1.29 1.29 0 0 0 .3.9 131 131 0 0 0 15.29 15.06 2.62 2.62 0 0 1 .74 1.11q1.77 5.08 3.46 10.21c.19.56.41.82 1.07.81h24.61a.92.92 0 0 0 1-.75q1.71-5.16 3.48-10.29a2.72 2.72 0 0 1 .62-1 72.9 72.9 0 0 1 2.79-2.45 120.38 120.38 0 0 0 19.83-22 1.15 1.15 0 0 0 .18-.92c-1.19-3.3-2.43-6.58-3.68-9.86a.76.76 0 0 0-.51-.44h-3.87c0 .63.08 1.16.11 1.7a39.91 39.91 0 0 1 .36 5.75c-.21 2.72-.76 5.41-1.23 8.09a1.39 1.39 0 0 1-.76.87 49.11 49.11 0 0 1-18.15 2.73 1.83 1.83 0 0 1-1.14-.58 38.59 38.59 0 0 1-2.41-3.15 1.2 1.2 0 0 0-1.37-.54c-1.39.2-2.79.37-4.2.5a43.6 43.6 0 0 1-11-.51 1.11 1.11 0 0 0-1.31.48c-.73 1.07-1.57 2.06-2.32 3.11a1.66 1.66 0 0 1-1.45.73 52 52 0 0 1-17.42-2.54c-.87-.28-1.4-.65-1.46-1.61a12.64 12.64 0 0 0-.34-1.72Zm61.51-13.26h-59c-.17 1.16-.3 2.3-.51 3.42a1 1 0 0 0 .67 1.27c3 1.33 5.86 2.81 8.88 4a57.5 57.5 0 0 0 19.28 4.19 52.57 52.57 0 0 0 17.63-2.8 72 72 0 0 0 12.76-5.42c.39-.21.71-.39.63-1-.1-1.17-.22-2.38-.34-3.66Zm6.87-47.36-.69.34a39.39 39.39 0 0 0-17.75 18.83 3.93 3.93 0 0 0 .76 4.94 7.57 7.57 0 0 0 .88.82 10.48 10.48 0 0 0 12.12 1c5.05-2.76 7.97-7.36 10.33-12.36a1.31 1.31 0 0 0-.05-.89c-.56-1.51-1.07-3-1.73-4.5-1.23-2.73-2.5-5.4-3.87-8.18ZM93.4 51.8a5 5 0 0 0-.16.48c-1.06 5.47-2.13 10.93-3.17 16.41a1.52 1.52 0 0 0 .19 1 25.13 25.13 0 0 0 5.64 6.68c3 2.35 6.25 3.68 10.09 2.9a9 9 0 0 0 6.6-4.64 2.34 2.34 0 0 0 .18-1.6 20.72 20.72 0 0 0-1.28-3.18 37.61 37.61 0 0 0-13.21-15c-1.56-1.16-3.21-2.04-4.88-3.05Zm-15.53 80.25c-.08.26-.14.44-.18.63-.65 3.33-1.29 6.66-1.94 10-1.06 5.44-2.14 10.88-3.18 16.33a1.2 1.2 0 0 0 .2 1 4.32 4.32 0 0 0 1.72.87 74.38 74.38 0 0 0 15.56.89c.26 0 .52-.07.89-.12-.19-.28-.27-.43-.38-.56-3.31-4.23-6.64-8.46-9.91-12.72a3.63 3.63 0 0 1-.68-1.86q-.48-6.2-.82-12.41a2.64 2.64 0 0 0-1.28-2.05Zm22.75 17.69c.35 3.52.68 7 1 10.49a69 69 0 0 0 24.71-10.49Zm-3.61 5.63c.47-2 .94-3.86 1.37-5.77a1.93 1.93 0 0 0-.12-.91q-1.89-5.61-3.8-11.19a2.23 2.23 0 0 0-.6-.91q-5.53-5.23-11.13-10.45a3.61 3.61 0 0 0-.3-.25 152.64 152.64 0 0 1 12.08 29.48Zm45.88-70c.89.77 1.62 1.45 2.42 2a2.17 2.17 0 0 0 1.21.45q4.27.06 8.55 0a1.77 1.77 0 0 0 1.15-.51c1-1.1 1.89-2.24 2.78-3.41a1.76 1.76 0 0 0 .3-1.1c-.11-1.46-.27-2.92-.47-4.37s-.48-2.92-.76-4.6c-3.74 5.68-8.01 10.39-15.18 11.51Zm1.81 40.66c-3.91 3.59-7.81 7.15-11.69 10.74a1.81 1.81 0 0 0-.45.8q-1.68 4.89-3.33 9.79a4 4 0 0 0-.14.6l.23.19c2.68-2.34 5.36-4.67 8-7a2.33 2.33 0 0 0 .47-.81q3.27-6.75 6.51-13.51c.15-.32.29-.59.4-.83Zm-17-81.44c-1.22 5.53-2.47 11.18-3.74 16.9l1.8.76 8.93-13.91Zm-18.68 3.74a1.46 1.46 0 0 0 .14.25c2.78 4.33 5.58 8.64 8.3 13 .52.83 1 .44 1.56.28s.67-.6.54-1.17c-.81-3.58-1.59-7.17-2.39-10.76-.4-1.82-.82-3.64-1.2-5.31Zm8.72-4.46 3.45 17.24h1.31l3.45-17.24Zm9.75 43.82c-1-3-1.91-5.91-2.83-8.78s-1.19-3-4.13-2.56a1 1 0 0 0-.86.78c-.83 2.63-1.69 5.25-2.54 7.87-.26.81-.51 1.62-.82 2.59a21.52 21.52 0 0 1 11.18.1Zm-10.91-21.15.46.86c.73 1.37 1.09 1.53 2.62 1.17.64-.15 1 .18.84.86a4.74 4.74 0 0 1-.55 1.16c-.51.92-1 1.82-1.5 2.63a2.55 2.55 0 0 0 3 1.28 3.51 3.51 0 0 1 1.37 0 2.23 2.23 0 0 0 2.51-1.12c-.07-.14-.14-.3-.22-.45-.56-1-1.17-1.91-1.66-2.92a3.45 3.45 0 0 1-.1-1.3 4.44 4.44 0 0 1 1 0 1.73 1.73 0 0 0 2.06-.83c.59-.91 1-1.79-.07-2.64l-.09-.15c-.91-1.51-2.48-1.77-4-2.08s-2.54.57-3.78 1a1 1 0 0 0-.37.33c-.45.68-.96 1.41-1.52 2.2Zm-15.71 18.8a18.56 18.56 0 0 1-10.74-5.74c-.32-.33-.6-.58-1.1-.35s-1.13.22-1.26 1c-.27 1.81-.68 3.61-1 5.41a2 2 0 0 0 1.78 2.15h8.88a1.3 1.3 0 0 0 .79-.2c.84-.66 1.66-1.41 2.65-2.27Zm39.05-34.45c2.13-1.56 4.14-3 6.24-4.54l-4.22-5.41c-1.51 2.28-3 4.41-4.36 6.56a.59.59 0 0 0 0 .52c.75.97 1.54 1.9 2.34 2.87Zm-32.22-1.2-2.27 2.62a48.72 48.72 0 0 1 10.15 12.46 9.34 9.34 0 0 1 .62-.81 1.11 1.11 0 0 0 0-1.64c-.9-1.22-1.72-2.51-2.56-3.77q-2.97-4.41-5.94-8.86Zm30.63 2.6-2.24-2.6c-.2.28-.37.51-.53.75q-3.76 5.61-7.54 11.23c-.95 1.41-.95 1.41.1 2.76 0 0 .09 0 .22.08a48.76 48.76 0 0 1 9.99-12.22Zm-28.65 31.55 4.65 3.23.31-.78c1.14-3.19 2.25-6.38 3.44-9.55.3-.81.2-1.31-.64-1.64-1.9 3.49-4.11 6.77-7.76 8.74Zm16.65-8.69a1.2 1.2 0 0 0-.61 1.74c.84 2.17 1.59 4.38 2.37 6.57.41 1.14.83 2.29 1.24 3.4l4.35-3.23c-3.42-1.94-5.49-5.12-7.35-8.48Zm5.32 12.43.15.23h10.53c-1.38-1.17-2.32-2.68-4.28-2.61a6.82 6.82 0 0 1-1.43-.32c-.18 0-.43-.1-.56 0-1.45.88-2.92 1.81-4.4 2.7Zm-20.13.23.14-.26-4.65-2.5a.72.72 0 0 0-.33-.07 6.24 6.24 0 0 0-5.11 2.83Z"/><rect width="99.73" height="40.14" x="36.47" fill="#ff837d" rx="1.49"/><path fill="#fff" d="M119.78 9.69V3.74h-16.56l-2.72 19.88-2.7-19.88h-6l.67 5.3a9.45 9.45 0 0 0-8.52-5.3h-6v29l-4.35-29h-7.79l-4.48 30.02v-30h-7.51l-2.7 16.87-2.63-16.89H41v32.64h5.9V20.69l2.68 15.73h3.14l2.61-15.73v15.69h11.4l.69-5H72l.68 5h11.19V25.79l1.37-.2 2.83 10.8h5.79l-3.72-12.7a9.44 9.44 0 0 0 3.44-8.31l3.51 21h6.87l4.69-29.59v29.59h11.13v-5.87h-5.28v-7.48h5.28v-6h-5.28V9.69ZM68.11 26.18l1.62-14 1.68 14Zm17.15-6.44a3.22 3.22 0 0 1-1.39.33V9.57c.46 0 3.9.14 3.9 5.19 0 2.65-1.17 4.31-2.54 5m46.4 10.77v5.87H120.8V3.69h5.85v26.82Z"/></svg>