<svg xmlns="http://www.w3.org/2000/svg" xml:space="preserve" width="192" height="192"><circle cx="96" cy="96" r="88" fill="#fff"/><path fill="#728dbe" fill-rule="evenodd" d="M59.916 101.98c.303-3.127 2.162-6.159 5.683-10.205a17.497 17.497 0 0 1-2.237-8.588c0-9.708 7.87-17.577 17.577-17.577a17.5 17.5 0 0 1 8.34 2.1c3.799-3.38 6.704-5.183 9.72-5.523a14.8 14.8 0 0 1 8.983 1.849c4.572 2.604 7.114 9.113 12.197 22.13 7.918 20.276 11.876 30.413 9.082 36.785a16.723 16.723 0 0 1-8.331 8.482c-6.31 2.898-16.473-.923-36.8-8.564-13.05-4.906-19.575-7.36-22.238-11.906a14.925 14.925 0 0 1-1.976-8.984zm25.256-28.455a10.589 10.589 0 0 1 4.358 3.544 10.5 10.5 0 0 1 1.955 6.118c0 5.825-4.722 10.546-10.546 10.546-2.212 0-4.264-.68-5.96-1.844a10.589 10.589 0 0 1-3.626-4.298 10.507 10.507 0 0 1-.923-5.298 10.549 10.549 0 0 1 14.742-8.768z" clip-rule="evenodd"/><circle cx="80.938" cy="83.188" r="11.234" fill="#9abeff"/></svg>