<?xml version="1.0" encoding="UTF-8"?>
<svg version="1.1" viewBox="0 0 192 192" xml:space="preserve" xmlns="http://www.w3.org/2000/svg">
	 <circle class="a" cx="96" cy="96" r="88" fill="#fff"/><g transform="matrix(.48584 0 0 .48584 -8.8337 -9.0953)" fill="#56595b"><g transform="matrix(.73283 0 0 .73283 56.755 57.293)" fill="#56595b"><g transform="matrix(6.5625,0,0,6.5625,190.59,187.54)"><path d="m12.657 2.7574c2.3431-2.3431 6.1421-2.3431 8.4852 0 2.3432 2.3431 2.3432 6.1421 0 8.4852l-9.8995 9.8995c-2.3431 2.3432-6.1421 2.3432-8.4852 0-2.3431-2.3431-2.3431-6.1421 0-8.4852zm7.071 7.0711-4.2426 4.2427-5.6569-5.6569 4.2427-4.2426c1.5621-1.5621 4.0947-1.5621 5.6568 0s1.5621 4.0948 0 5.6569z" clip-rule="evenodd" fill="#56595b" fill-rule="evenodd"/></g><g transform="matrix(4.4054,0,0,4.4054,93.13,96.182)"><path class="clr-i-outline clr-i-outline-path-1" d="m31.47 3.84a5.78 5.78 0 0 0-7.37-0.63 16.08 16.08 0 0 1 8.2 7.65 5.73 5.73 0 0 0-0.83-7.02z"/><path class="clr-i-outline clr-i-outline-path-2" d="m11.42 3.43a5.77 5.77 0 0 0-7.64 0.41 5.72 5.72 0 0 0-0.38 7.64 16.08 16.08 0 0 1 8.02-8.05z"/><path class="clr-i-outline clr-i-outline-path-3" d="m16.4 4.09a14 14 0 0 0-8.29 23.79l-2.55 2.55a1.0077 1.0077 0 1 0 1.44 1.41l2.66-2.66a13.9 13.9 0 0 0 16.88-0.08l2.74 2.74a1 1 0 0 0 1.41-1.41l-2.69-2.65a14 14 0 0 0-11.6-23.69zm3.18 25.81a12 12 0 1 1 10.34-10.34 12 12 0 0 1-10.34 10.34z"/><path class="clr-i-outline clr-i-outline-path-4" d="m13.003 21.677 4.9735-4.3372v-7.84c0-1.2 1.8-1.2 1.8 0v9l-5.9735 4.8372c-1.08 0.52667-1.87-1.0933-0.79-1.62z"/><rect width="36" height="36" fill-opacity="0"/></g></g></g></svg>
