<?xml version="1.0" encoding="UTF-8" standalone="no"?>
<svg
   data-name="Layer 1"
   version="1.1"
   viewBox="0 0 192 192"
   id="svg18"
   sodipodi:docname="meganum.svg"
   xml:space="preserve"
   inkscape:version="1.2.2 (b0a8486541, 2022-12-01)"
   inkscape:export-filename="meganum.png"
   inkscape:export-xdpi="96"
   inkscape:export-ydpi="96"
   xmlns:inkscape="http://www.inkscape.org/namespaces/inkscape"
   xmlns:sodipodi="http://sodipodi.sourceforge.net/DTD/sodipodi-0.dtd"
   xmlns="http://www.w3.org/2000/svg"
   xmlns:svg="http://www.w3.org/2000/svg"><sodipodi:namedview
     id="namedview20"
     pagecolor="#505050"
     bordercolor="#eeeeee"
     borderopacity="1"
     inkscape:showpageshadow="0"
     inkscape:pageopacity="0"
     inkscape:pagecheckerboard="0"
     inkscape:deskcolor="#d1d1d1"
     showgrid="false"
     inkscape:zoom="1.2291667"
     inkscape:cx="-180.20338"
     inkscape:cy="134.64406"
     inkscape:window-width="1884"
     inkscape:window-height="1055"
     inkscape:window-x="36"
     inkscape:window-y="0"
     inkscape:window-maximized="1"
     inkscape:current-layer="svg18" /><defs
     id="defs4"><style
       id="style2">.cls-1 {
        fill: #fff;
      }

      .cls-2 {
        fill: #4a4a4a;
      }

      .cls-3 {
        fill: #97db99;
      }

      .cls-4 {
        fill: #a0a5af;
      }</style></defs><rect
     class="cls-2"
     x="20"
     y="20"
     width="152"
     height="152"
     rx="9.93"
     ry="9.93"
     id="rect6"
     style="fill:#56595b;fill-opacity:1" /><rect
     class="cls-3"
     x="59.5"
     y="59.588837"
     width="33.986389"
     height="33.986389"
     rx="6.2708669"
     ry="6.2708669"
     id="rect8"
     style="stroke-width:0.658013" /><rect
     class="cls-1"
     x="98.513611"
     y="59.588837"
     width="33.986389"
     height="33.986389"
     rx="6.2708669"
     ry="6.2708669"
     id="rect10"
     style="stroke-width:0.658013" /><rect
     class="cls-4"
     x="59.5"
     y="98.424782"
     width="33.986389"
     height="33.986389"
     rx="6.2708669"
     ry="6.2708669"
     id="rect12"
     style="stroke-width:0.658013" /><path
     class="cls-3"
     d="m 126.22255,101.71485 c 1.64504,0 2.9808,1.33576 2.9808,2.9808 v 21.43807 c 0,1.64503 -1.33576,2.9808 -2.9808,2.9808 h -21.43807 c -1.64504,0 -2.9808,-1.33577 -2.9808,-2.9808 v -21.43807 c 0,-1.64504 1.33576,-2.9808 2.9808,-2.9808 h 21.43807 m 0,-3.290069 h -21.43807 c -3.46773,0 -6.27087,2.809719 -6.27087,6.270869 v 21.43807 c 0,3.46773 2.80972,6.27086 6.27087,6.27086 h 21.43807 c 3.46773,0 6.27087,-2.80971 6.27087,-6.27086 v -21.43807 c 0,-3.46773 -2.80972,-6.270869 -6.27087,-6.270869 z"
     id="path14"
     style="stroke-width:0.658013" /></svg>
