<?xml version="1.0" encoding="UTF-8"?>
<svg version="1.1" viewBox="0 0 192 192" xml:space="preserve" xmlns="http://www.w3.org/2000/svg">
	 <circle class="a" cx="96" cy="96" r="88" fill="#ff837d"/><path d="m56.299 113.55c-0.86846-0.86846-0.47681-20.209 0.45588-22.442 2.3409-5.6026 6.9448-6.8397 15.999-4.2992 2.9693 0.8332 5.6733 1.2121 6.9058 0.96776 1.1141-0.22089 5.3966-2.351 9.5167-4.7337 8.5437-4.9408 11.522-5.6528 14.863-3.554 2.7548 1.7302 3.925 3.6804 4.355 7.258 0.19447 1.618 0.36853 3.0153 0.3868 3.1052 0.1152 0.56669 2.5383-0.46849 13.471-5.755 6.7318-3.2552 12.654-5.7594 13.16-5.5651 0.687 0.26362 0.8714 1.3932 0.72603 4.4476l-0.19484 4.0942-3.1782 1.7139c-1.748 0.94266-3.435 2.1194-3.7489 2.6149-0.31385 0.49553-0.57516 5.6953-0.58066 11.555l-0.01 10.592h-8.1715l-0.18304-8.2712c-0.11897-5.3762-0.44816-8.1644-1.0031-8.6249-0.59044-0.49003-2.1867-0.0536-5.7004 1.5585-5.6633 2.5983-6.7532 2.7108-9.5781 0.98829-2.5814-1.574-3.6375-3.4339-4.0975-7.216-0.25305-2.0808-0.6854-2.9971-1.4864-3.1503-0.62125-0.11882-4.1346 1.4855-7.8076 3.5651-5.7357 3.2476-7.2479 3.8174-10.717 4.0383-2.512 0.15994-5.4061-0.14031-7.6555-0.79422-4.5893-1.3342-6.1389-1.3254-6.9024 0.039-0.3356 0.59969-0.45681 4.0955-0.26935 7.7685 0.18746 3.673 0.14765 9.1583-0.0885 10.099h-4.2302-4.2367z" fill="#fff" stroke-width=".65372"/></svg>
