<?xml version="1.0" encoding="UTF-8"?>
<svg version="1.1" viewBox="0 0 192 192" xmlns="http://www.w3.org/2000/svg">
 <defs>
  <clipPath id="clipPath3">
   <rect class="a" x="32" y="8" width="128" height="176" rx="10" style="fill:#728dbe"/>
  </clipPath>
 </defs>
 <rect class="a" x="32" y="8" width="128" height="176" rx="10" style="fill:#728dbe"/>
 <circle cx="56.152" cy="48.641" r="6.179" style="fill:#fff"/>
 <circle cx="135.85" cy="48.641" r="6.179" style="fill:#fff"/>
 <rect x="82.046" y="60.639" width="26.75" height="37.45" ry="4.9933" style="fill:#fff"/>
 <path transform="matrix(1.3894 0 0 .91307 232.6 -20.057)" d="m-81.975 127.76-13.855 23.998a3.3487 3.3487 180 0 1-5.8001 0l-13.855-23.998a3.3487 3.3487 120 0 1 2.9-5.023h27.71a3.3487 3.3487 60 0 1 2.9 5.023z" style="fill:#fff"/>
 <path d="m20.788 141.68h151.21v50.315h-160.4z" clip-path="url(#clipPath3)" style="fill:#9abeff"/>
</svg>
