<?xml version="1.0" encoding="UTF-8"?><svg id="a" xmlns="http://www.w3.org/2000/svg" width="192" height="192" xmlns:xlink="http://www.w3.org/1999/xlink" viewBox="0 0 192 192"><defs><clipPath id="d"><circle cx="96" cy="96" r="88" style="fill:none;"/></clipPath></defs><g id="b"><g id="c"><g style="clip-path:url(#d);"><circle cx="96" cy="96" r="88" style="fill:#fff;"/><path d="m80.56,26.92l34.04.6-23.54,46.72,17.02.95-17.02,45.38,48.22-56.73h-17.02l29.12-40.03c-15.34-11.79-34.53-18.81-55.38-18.81C45.74,5,5,45.74,5,96c0,15.06,3.68,29.24,10.15,41.75l2.06-3.18L80.56,26.92h0Z" style="fill:#f8c18c; fill-rule:evenodd;"/><path d="m177.1,57.22l-27.79,106.26h-35.93l15.5-51.42-51.06,48.22-8.51-48.22-28.36,52.95-2.19,1.71c15.64,12.67,35.55,20.28,57.25,20.28,50.26,0,91-40.74,91-91,0-14.37-3.35-27.96-9.28-40.05l-.63,1.27h0Z" style="fill:#f8c18c; fill-rule:evenodd;"/></g></g></g></svg>