<?xml version="1.0" encoding="UTF-8" standalone="no"?>
<svg
   viewBox="0 0 192 192"
   version="1.1"
   id="svg14"
   sodipodi:docname="metamask.svg"
   xml:space="preserve"
   inkscape:version="1.2.2 (b0a8486541, 2022-12-01)"
   inkscape:export-filename="metamask.png"
   inkscape:export-xdpi="96"
   inkscape:export-ydpi="96"
   xmlns:inkscape="http://www.inkscape.org/namespaces/inkscape"
   xmlns:sodipodi="http://sodipodi.sourceforge.net/DTD/sodipodi-0.dtd"
   xmlns="http://www.w3.org/2000/svg"
   xmlns:svg="http://www.w3.org/2000/svg"><defs
     id="defs18"><style
       id="style143">.a{fill:none;stroke:#b1b5bd;stroke-linecap:round;stroke-linejoin:round;isolation:isolate;opacity:0.63;}</style></defs><sodipodi:namedview
     id="namedview16"
     pagecolor="#505050"
     bordercolor="#eeeeee"
     borderopacity="1"
     inkscape:showpageshadow="0"
     inkscape:pageopacity="0"
     inkscape:pagecheckerboard="0"
     inkscape:deskcolor="#d1d1d1"
     showgrid="false"
     inkscape:zoom="0.61458333"
     inkscape:cx="-603.66102"
     inkscape:cy="-34.983051"
     inkscape:window-width="1884"
     inkscape:window-height="1055"
     inkscape:window-x="36"
     inkscape:window-y="0"
     inkscape:window-maximized="1"
     inkscape:current-layer="svg14" /><path
     fill="#f8c18c"
     d="m 160.26289,95.888005 -31.04509,-9.02682 -0.0336,-0.0448 -21.46949,-19.095195 56.7704,-42.009429 -48.33716,18.042439 -0.0112,0.0112 0.0112,-0.0112 H 75.852049 L 27.514886,25.711763 83.870911,68.169173 62.815798,86.816387 31.625113,95.888005 21.231951,128.12025 l 9.631594,32.91541 33.766577,-9.30681 0.056,-0.39198 -0.056,0.39198 20.271146,-9.78839 2.822281,-1.99351 h 16.440911 l 2.82228,1.99351 20.20395,9.78839 33.83377,9.30681 9.68759,-32.91541 z"
     id="path2"
     style="stroke-width:1.11995" /><path
     fill="#d3b69a"
     d="m 64.641321,151.72885 18.80401,8.90363 -0.1232,-5.59977 1.57914,-13.10345 z"
     id="path4"
     style="stroke-width:1.11995"
     sodipodi:nodetypes="ccccc" /><path
     fill="#9abeff"
     d="m 83.781313,119.6758 -16.79929,-4.91659 11.8715,-5.45417 z m 24.437367,0 4.9278,-10.37076 11.97229,5.45417 z"
     id="path6"
     style="stroke-width:1.11995;fill:#708cbd;fill-opacity:1" /><path
     fill="#8e6f60"
     d="m 108.56587,160.63248 0.17919,-5.59977 -1.54553,-1.25434 H 84.800471 l -1.46714,1.28794 0.1232,5.59976 -18.81521,-8.93722 6.58532,5.38697 13.32744,9.19482 h 22.847039 l 13.43943,-9.19482 6.51813,-5.38697 z"
     id="path8"
     style="stroke-width:1.11995" /><path
     fill="#56595b"
     d="m 107.09873,141.92926 -2.82228,-1.99351 H 87.712345 l -2.81108,1.99351 -1.59033,13.12585 1.48954,-1.27674 h 22.399055 l 1.52313,1.28794 z"
     id="path10"
     style="stroke-width:1.11995" /><path
     fill="#8e6f60"
     d="M 167.01621,72.492191 172,48.245213 l -7.51489,-22.55585 -57.38638,42.49101 22.08547,18.636014 31.19069,9.082818 6.87651,-8.030062 -3.00148,-2.172708 4.7598,-4.334218 -3.63984,-2.811081 4.7598,-3.628647 z M 20.000003,48.267612 l 5.050987,24.224579 -3.236664,2.407899 4.815797,3.628647 -3.639846,2.811081 4.759799,4.334217 -3.001473,2.172709 6.87651,8.030061 31.190685,-9.082817 22.08547,-18.613615 -57.386382,-42.46861 z"
     id="path12"
     style="stroke-width:1.11995" /><path
     fill="#d3b69a"
     d="m 127.35868,151.72885 -18.80401,8.90363 0.1232,-5.59977 -1.57914,-13.10345 z"
     id="path1009"
     style="stroke-width:1.11995"
     sodipodi:nodetypes="ccccc" /></svg>
