<?xml version="1.0" encoding="UTF-8"?>
<svg version="1.1" viewBox="0 0 192 192" xmlns="http://www.w3.org/2000/svg">
 <rect class="a" x="20" y="20" width="152" height="152" rx="10" style="fill:#728dbe"/>
 <path d="m91.863 96.126a18.486 18.486 0 0 0-18.486 18.486 13.438 13.438 0 0 0-13.438 13.438 13.438 13.438 0 0 0 13.438 13.438h40.313a15.469 15.469 0 0 0 15.469-15.469 15.469 15.469 0 0 0-15.469-15.469 15.469 15.469 0 0 0-3.6902 0.48096 18.486 18.486 0 0 0-18.136-14.905z" style="fill:#fff;stroke-linecap:round;stroke-linejoin:round;stroke-width:3.75"/>
 <path d="m119.73 83.956a15.291 15.291 0 0 0-14.855 11.828 16.829 16.829 0 0 1 7.1577 10.657 14.082 14.082 0 0 1 3.3594-0.43783 14.082 14.082 0 0 1 11.865 6.512 15.291 15.291 0 0 0 7.7644-13.269 15.291 15.291 0 0 0-15.291-15.291z" style="fill:#f9de81;stroke-linecap:round;stroke-linejoin:round;stroke-width:3.0582"/>
 <path d="m95.609 80.237 8.3969 7.734" style="fill:#f9de81;stroke-linecap:round;stroke-linejoin:round;stroke-width:3.75;stroke:#f9de81"/>
 <path d="m132.51 86.534 7.1816-7.1816" style="fill:#f9de81;stroke-linecap:round;stroke-linejoin:round;stroke-width:3.75;stroke:#f9de81"/>
 <path d="m138.37 100.57 10.717-0.33146" style="fill:#f9de81;stroke-linecap:round;stroke-linejoin:round;stroke-width:3.75;stroke:#f9de81"/>
 <path d="m132.95 114.6 7.8445 7.4025" style="fill:#f9de81;stroke-linecap:round;stroke-linejoin:round;stroke-width:3.75;stroke:#f9de81"/>
 <path d="m117.71 80.568-0.11048-9.3913" style="fill:#f9de81;stroke-linecap:round;stroke-linejoin:round;stroke-width:3.75;stroke:#f9de81"/>
 <path class="a" d="m30 20c-5.54 0-10 4.46-10 10v82.516l84.871-92.516h-74.871z" style="fill:#fff"/>
 <path d="m50.25 38.272c-4.1289-0.02713-8.2255 0.26869-12.177 2.0182-0.22949 14.131 3.975 22.601 12.177 25.968 8.2017-3.3673 12.406-11.837 12.177-25.968-3.9512-1.7496-8.0478-2.0454-12.177-2.0182z" style="fill:#ff837d"/>
 <rect x="47.895" y="42.779" width="4.9783" height="16.617" ry="0" style="fill:#fff"/>
 <rect transform="rotate(90)" x="48.598" y="-58.693" width="4.9783" height="16.617" ry="0" style="fill:#fff"/>
</svg>
