<?xml version="1.0" encoding="UTF-8"?>
<svg version="1.1" viewBox="0 0 192 192" xmlns="http://www.w3.org/2000/svg">
 <circle class="a" cx="96" cy="96" r="88" style="fill:#fff"/>
 <path d="m69.771 102.48-12.945 2.5342c4.1194 17.812 20.14 31.183 39.164 31.183 19.1 0 35.172-13.476 39.213-31.394l-13.123-1.8106h-6e-3c-3.0577 11.557-13.522 19.995-26.084 19.995-12.747 0-23.333-8.6893-26.213-20.508z" style="fill:#728dbe;stroke-linecap:round;stroke-linejoin:round;stroke-width:.60041"/>
 <path d="m95.99 55.798c-20.322 0-37.218 15.256-39.837 34.887l13.066 1.8845c1.6697-13.345 12.949-23.563 26.771-23.563 13.853 0 25.152 10.262 26.783 23.651h8e-3l13.066-1.813c-2.549-19.708-19.48-35.047-39.857-35.047z" style="fill:#9abeff;stroke-linecap:round;stroke-linejoin:round;stroke-width:.60041"/>
</svg>
