<svg xmlns="http://www.w3.org/2000/svg" xml:space="preserve" viewBox="0 0 192 192"><path fill="#FFF" d="M0 0h192v192H0z"/><circle cx="97.7" cy="67" r="38.2" fill="#71A372"/><circle cx="129.6" cy="102.4" r="35.2" fill="#98DC9A"/><circle cx="102.4" cy="136.1" r="27.1" fill="#E0F4E0"/><path fill="#73ADA4" d="M97.7 125.5c0 3.2-2.6 5.7-5.7 5.7H33c-3.2 0-5.7-2.6-5.7-5.7v-59c0-3.2 2.6-5.7 5.7-5.7h59c3.2 0 5.7 2.6 5.7 5.7v59z"/><path fill="#FFF" d="M49 110.4V107c0-.4.1-.6.5-.3 3.7 2.5 7.9 3.4 12.3 3.5 1.7 0 3.4-.4 5-1.2 2.3-1.2 2.8-4.2 1-6-1.1-1.2-2.5-1.9-4-2.6-2.5-1.2-5.1-2.1-7.5-3.4-1.5-.8-3-1.6-4.3-2.8-3.9-3.5-4-9.7-1.2-13.3 1.6-2 3.7-3.4 6.2-4.2 2.4-.8 4.9-1.1 7.4-1.2 3.4-.1 6.8.3 10.1 1.3.5.1.7.4.7.9v6.1c0 .6-.1.6-.6.3-2.7-1.5-5.7-2.1-8.8-2.2-2.2-.1-4.4.1-6.4 1.1-2.6 1.3-3 4.2-.9 6.1 1.3 1.2 2.9 1.8 4.5 2.5 2.8 1.2 5.6 2.2 8.2 3.7 2.1 1.2 3.9 2.8 4.9 5.1.8 1.9 1 3.9.8 6-.6 5.1-3.7 7.8-8.4 9.1-3.2.9-6.5.9-9.8.7-2.4-.1-4.7-.5-6.9-1.1-.8-.2-1.6-.6-2.5-.9-.3-.1-.4-.4-.4-.7.1-.8.1-2 .1-3.1z"/></svg>