<?xml version="1.0" encoding="UTF-8" standalone="no"?>
<svg
   xmlns:dc="http://purl.org/dc/elements/1.1/"
   xmlns:cc="http://creativecommons.org/ns#"
   xmlns:rdf="http://www.w3.org/1999/02/22-rdf-syntax-ns#"
   xmlns:svg="http://www.w3.org/2000/svg"
   xmlns="http://www.w3.org/2000/svg"
   xmlns:xlink="http://www.w3.org/1999/xlink"
   xmlns:sodipodi="http://sodipodi.sourceforge.net/DTD/sodipodi-0.dtd"
   xmlns:inkscape="http://www.inkscape.org/namespaces/inkscape"
   viewBox="0 0 192 192"
   version="1.1"
   id="svg16"
   sodipodi:docname="microsoft_365.svg"
   inkscape:version="0.92.4 (5da689c313, 2019-01-14)">
  <metadata
     id="metadata20">
    <rdf:RDF>
      <cc:Work
         rdf:about="">
        <dc:format>image/svg+xml</dc:format>
        <dc:type
           rdf:resource="http://purl.org/dc/dcmitype/StillImage" />
        <dc:title></dc:title>
      </cc:Work>
    </rdf:RDF>
  </metadata>
  <sodipodi:namedview
     pagecolor="#ffffff"
     bordercolor="#666666"
     borderopacity="1"
     objecttolerance="10"
     gridtolerance="10"
     guidetolerance="10"
     inkscape:pageopacity="0"
     inkscape:pageshadow="2"
     inkscape:window-width="1920"
     inkscape:window-height="1017"
     id="namedview18"
     showgrid="true"
     inkscape:zoom="1.0419108"
     inkscape:cx="88.294736"
     inkscape:cy="102.74752"
     inkscape:window-x="-8"
     inkscape:window-y="-8"
     inkscape:window-maximized="1"
     inkscape:current-layer="svg16"
     inkscape:snap-global="true">
    <inkscape:grid
       type="xygrid"
       id="grid827"
       spacingx="4"
       spacingy="4" />
  </sodipodi:namedview>
  <defs
     id="defs4">
    <linearGradient
       inkscape:collect="always"
       id="linearGradient892">
      <stop
         style="stop-color:#54688c;stop-opacity:1"
         offset="0"
         id="stop888" />
      <stop
         style="stop-color:#9abeff;stop-opacity:1"
         offset="1"
         id="stop890" />
    </linearGradient>
    <linearGradient
       id="linearGradient886"
       inkscape:collect="always">
      <stop
         id="stop882"
         offset="0"
         style="stop-color:#bd9aff;stop-opacity:1" />
      <stop
         id="stop884"
         offset="1"
         style="stop-color:#8c72bd;stop-opacity:1" />
    </linearGradient>
    <linearGradient
       inkscape:collect="always"
       id="linearGradient870">
      <stop
         style="stop-color:#bd9aff;stop-opacity:1"
         offset="0"
         id="stop866" />
      <stop
         style="stop-color:#8c72bd;stop-opacity:1"
         offset="1"
         id="stop868" />
    </linearGradient>
    <linearGradient
       inkscape:collect="always"
       id="linearGradient862">
      <stop
         style="stop-color:#728dbe;stop-opacity:1"
         offset="0"
         id="stop858" />
      <stop
         style="stop-color:#bd9aff;stop-opacity:1"
         offset="1"
         id="stop860" />
    </linearGradient>
    <style
       id="style2">.a{fill:none;stroke:#b1b5bd;stroke-linecap:round;stroke-linejoin:round;isolation:isolate;opacity:0.63;}</style>
    <linearGradient
       inkscape:collect="always"
       xlink:href="#linearGradient862"
       id="linearGradient864"
       x1="56"
       y1="132"
       x2="56"
       y2="56"
       gradientUnits="userSpaceOnUse" />
    <linearGradient
       inkscape:collect="always"
       xlink:href="#linearGradient870"
       id="linearGradient872"
       x1="92"
       y1="164"
       x2="156"
       y2="108"
       gradientUnits="userSpaceOnUse" />
    <linearGradient
       inkscape:collect="always"
       xlink:href="#linearGradient886"
       id="linearGradient880"
       x1="92"
       y1="164"
       x2="156"
       y2="108"
       gradientUnits="userSpaceOnUse" />
    <linearGradient
       inkscape:collect="always"
       xlink:href="#linearGradient892"
       id="linearGradient894"
       x1="64"
       y1="64"
       x2="136"
       y2="64"
       gradientUnits="userSpaceOnUse" />
  </defs>
  <path
     style="fill:url(#linearGradient880);stroke:none;stroke-width:1px;stroke-linecap:butt;stroke-linejoin:miter;stroke-opacity:1;fill-opacity:1"
     d="m 124.29102,73.707031 v 26.394529 c 0,6.82518 -4.44097,12.88781 -9.81641,17.73438 l 42.65625,35.96094 c 2.61031,-1.68054 5.1876,-3.41199 7.71094,-5.22657 C 177.7189,139.31014 176,120 176,120 l -6.35938,-24.697266 z"
     id="path839"
     inkscape:connector-curvature="0"
     sodipodi:nodetypes="csccsccc" />
  <path
     style="fill:url(#linearGradient894);stroke:none;stroke-width:1px;stroke-linecap:butt;stroke-linejoin:miter;stroke-opacity:1;fill-opacity:1"
     d="M 64.304929,80.42615 84.940092,68.428962 c 0,0 11.543712,-6.357207 22.554718,0 17.66386,10.198235 38.79035,21.174828 51.92723,32.368288 C 174.66618,113.78623 176,120 176,120 c 0,0 -0.23994,-34.391754 -0.23994,-51.58791 0,-22.617015 -12.35836,-25.657111 -12.35836,-25.657111 0,0 -36.396,-21.149149 -54.98829,-31.88341 -11.020293,-6.3625714 -24.91298,-0.02911 -24.91298,-0.02911 0,0 -16.248545,9.650573 -22.074827,14.876513 -13.5938,12.193091 2.879326,54.707178 2.879326,54.707178 z"
     id="path835"
     inkscape:connector-curvature="0"
     sodipodi:nodetypes="ccsscscscsc" />
  <path
     style="fill:url(#linearGradient864);stroke:none;stroke-width:1px;stroke-linecap:butt;stroke-linejoin:miter;stroke-opacity:1;fill-opacity:1"
     d="m 32.872296,152.40928 23.754432,9.83769 41.750215,-30.23291 -13.916738,-8.63798 c 0,0 -10.764565,-4.36449 -16.532004,-13.7059 -5.246596,-8.49781 -3.863216,-21.805773 -3.863216,-21.805773 0,0 0.239944,-30.552665 0.239944,-48.948528 0,-18.47508 19.195501,-28.07342 19.195501,-28.07342 0,0 -36.133532,20.986196 -54.227291,31.432633 -14.276989,8.242824 -13.196907,26.15387 -13.196907,26.15387 0,0 -0.239944,37.591018 -0.239944,56.386788 0,19.57238 17.036008,27.59353 17.036008,27.59353 z"
     id="path829"
     inkscape:connector-curvature="0"
     sodipodi:nodetypes="ccccscscscsc" />
  <path
     style="fill:url(#linearGradient872);stroke:none;stroke-width:1px;stroke-linecap:butt;stroke-linejoin:miter;stroke-opacity:1;fill-opacity:1"
     d="M 119.54883 112.41406 C 111.43297 123.01057 95.738281 129.85547 95.738281 129.85547 C 95.738281 129.85547 70.164368 144.76906 57.345703 152.16992 C 46.831557 158.24026 32.873047 152.41016 32.873047 152.41016 L 80.621094 179.52344 C 80.621094 179.52344 95.955164 188.54111 111.57422 179.52344 C 129.35881 169.2555 148.16927 160.55985 164.8418 148.57031 C 165.38092 148.18262 165.88579 147.77594 166.37695 147.36328 L 119.54883 112.41406 z "
     id="path831" />
</svg>
