<?xml version="1.0" encoding="UTF-8"?><svg id="a" xmlns="http://www.w3.org/2000/svg" width="192" height="192" xmlns:xlink="http://www.w3.org/1999/xlink" viewBox="0 0 192 192"><defs><clipPath id="d"><path d="m156.3,141.74c2.25-3.65-1.24-7.39-5.34-6.19-7.08,2.08-16.56,4.4-23.64,4.4-23.93,0-49.81-19.23-49.81-44.46,0-10.14,8.2-18.61,18.49-18.61s18.49,8.33,18.49,18.61c0,4.74-1.43,8.23-3.09,10.68-1.97,2.9-2.41,7.23.65,8.92,4.52,2.5,11.68,5.22,21.44,5.22,20.03,0,38.51-17.09,38.51-34.64,0-35.16-32.43-65.66-74.97-65.66S20,54.03,20,96s34.49,76,77.03,76c35.09,0,52.05-18.53,59.28-30.26Z" style="fill:none;"/></clipPath><mask id="e" x="18.97" y="20" width="153.03" height="161.31" maskUnits="userSpaceOnUse"><g id="f"><path d="m156.3,141.74c2.25-3.65-1.24-7.39-5.34-6.19-7.08,2.08-16.56,4.4-23.64,4.4-23.93,0-49.81-19.23-49.81-44.46,0-10.14,8.2-18.61,18.49-18.61s18.49,8.33,18.49,18.61c0,4.74-1.43,8.23-3.09,10.68-1.97,2.9-2.41,7.23.65,8.92,4.52,2.5,11.68,5.22,21.44,5.22,20.03,0,38.51-17.09,38.51-34.64,0-35.16-32.43-65.66-74.97-65.66S20,54.03,20,96s34.49,76,77.03,76c35.09,0,52.05-18.53,59.28-30.26Z" style="fill:#c4c4c4;"/></g></mask></defs><g id="b"><g id="c"><g style="clip-path:url(#d);"><path d="m156.3,141.74c2.25-3.65-1.24-7.39-5.34-6.19-7.08,2.08-16.56,4.4-23.64,4.4-23.93,0-49.81-19.23-49.81-44.46,0-10.14,8.2-18.61,18.49-18.61s18.49,8.33,18.49,18.61c0,4.74-1.43,8.23-3.09,10.68-1.97,2.9-2.41,7.23.65,8.92,4.52,2.5,11.68,5.22,21.44,5.22,20.03,0,38.51-17.09,38.51-34.64,0-35.16-32.43-65.66-74.97-65.66S20,54.03,20,96s34.49,76,77.03,76c35.09,0,52.05-18.53,59.28-30.26Z" style="fill:#96dfd3;"/><g style="mask:url(#e);"><path d="m115.51,92.9c0,10.09-6.32,18.18-14.89,24.82-8.65,6.7,120.68,56.17-48.27,63.59-26.38,0-33.38-68.14-33.38-88.41s22.41-36.71,48.78-36.71,47.76,16.43,47.76,36.71Z" style="fill:#9abeff;"/><path d="m98.57,116.16c12.84,7.24,43.14,13.44,54.43,10.86,12.32-2.82,19-42.62,19,29.25,0,26.55-38.08,15.22-64.7,15.22s-45.7-22.23-45.7-46.01c0-27.4,13.86-47.05,33.38-48.6,4.62,2.59-4.13,39.29,3.59,39.29Z" style="fill:#728dbe;"/></g></g><rect x="88.25" y="135.32" width="83.14" height="36.68" rx="4.08" ry="4.08" style="fill:#f9de81;"/><path d="m99.72,153.93c0-5.31,4.32-9.62,9.71-9.62,3.75,0,7.03,2.12,8.64,5.25l-4.16,2.09c-.82-1.62-2.46-2.65-4.48-2.65-2.87,0-5.01,2.09-5.01,4.93s2.14,4.93,5.01,4.93c2.02,0,3.66-1.03,4.48-2.65l4.16,2.09c-1.61,3.12-4.89,5.25-8.64,5.25-5.39,0-9.71-4.31-9.71-9.62Z" style="fill:#56595b;"/><path d="m131.63,160.02h-6.62l-1.04,3.28h-5.2l6.84-18.73h5.39l6.84,18.73h-5.17l-1.04-3.28Zm-1.2-3.87l-2.11-6.62-2.08,6.62h4.19Z" style="fill:#56595b;"/><path d="m158.47,144.56v18.73h-5.08l-8.51-11.49v11.49h-4.82v-18.73h5.04l8.54,11.46v-11.46h4.82Z" style="fill:#56595b;"/></g></g></svg>