<?xml version="1.0" encoding="UTF-8" standalone="no"?>
<svg
   xml:space="preserve"
   width="192"
   height="192"
   overflow="visible"
   version="1.1"
   id="svg10"
   sodipodi:docname="microsoft_intune.svg"
   inkscape:version="1.2.2 (b0a8486541, 2022-12-01)"
   inkscape:export-filename="microsoft_intune.png"
   inkscape:export-xdpi="96"
   inkscape:export-ydpi="96"
   xmlns:inkscape="http://www.inkscape.org/namespaces/inkscape"
   xmlns:sodipodi="http://sodipodi.sourceforge.net/DTD/sodipodi-0.dtd"
   xmlns="http://www.w3.org/2000/svg"
   xmlns:svg="http://www.w3.org/2000/svg"><defs
     id="defs14" /><sodipodi:namedview
     id="namedview12"
     pagecolor="#505050"
     bordercolor="#eeeeee"
     borderopacity="1"
     inkscape:showpageshadow="0"
     inkscape:pageopacity="0"
     inkscape:pagecheckerboard="0"
     inkscape:deskcolor="#d1d1d1"
     showgrid="false"
     inkscape:zoom="1.2291667"
     inkscape:cx="19.525424"
     inkscape:cy="96.40678"
     inkscape:window-width="1884"
     inkscape:window-height="1055"
     inkscape:window-x="36"
     inkscape:window-y="0"
     inkscape:window-maximized="1"
     inkscape:current-layer="svg10" /><path
     fill="#9CC2F9"
     d="M153.373 21H36.804C27.02 21 19 28.843 19 38.627V155.195C19 164.98 27.02 173 36.804 173H153.373c9.784 0 17.627-8.02 17.627-17.805V38.627A17.565 17.565 0 0 0 153.373 21z"
     id="path2"
     style="fill:#9abeff" /><path
     d="m 96.150562,112.19269 c -2.7375,-1.35202 -2.431812,-4.2743 -2.431812,-4.2743 v -1.65315 h 23.57292 v 4.06443 l 8.65126,-6.7601 -8.65126,-6.759346 v 4.132106 H 63.302083 V 71.286078 h 48.666667 v 11.40625 h 5.32292 V 69.503661 c 0,-1.493458 -1.61589,-2.019666 -3.10935,-2.019666 H 62.271718 c -1.493458,0 -2.771719,0.526208 -2.771719,2.019666 v 33.526009 c 0,1.4927 1.278261,3.23557 2.771719,3.23557 H 82.3125 v 1.65315 c 0,0 0.523166,2.92228 -2.213573,4.2743 -2.494167,1.23112 -6.40423,0.9163 -6.40423,0.9163 h -3.548864 v 4.5625 h 35.739587 v -4.5625 h -3.11315 c 0,0 -4.128302,0.31482 -6.621708,-0.9163 z"
     id="path4"
     style="fill:#ffffff;stroke-width:0.760417" /><path
     d="M 129.86364,84.213161 H 93.385687 c -0.810604,-2.28125 -2.813542,-3.501718 -5.157906,-3.501718 -3.061438,0 -5.543438,2.487322 -5.543438,5.54876 0,3.060677 2.48124,5.338885 5.543438,5.338885 2.293417,0 4.261375,-0.541416 5.103917,-3.583083 h 35.366222 v 31.937505 h -16.72917 v -12.16667 h -3.04167 v 14.5749 c 0,1.4927 1.0585,2.15427 2.5512,2.15427 h 18.38536 c 1.49345,0 2.63636,-0.66157 2.63636,-2.15427 V 86.942297 c 0,-1.493459 -1.14291,-2.729136 -2.63636,-2.729136 z m -7.24906,38.781249 h -3.80208 v -1.52083 h 3.80208 z"
     id="path6"
     style="fill:#ffffff;stroke-width:0.760417" /></svg>
