<?xml version="1.0" encoding="UTF-8" standalone="no"?>
<svg
   xmlns:dc="http://purl.org/dc/elements/1.1/"
   xmlns:cc="http://creativecommons.org/ns#"
   xmlns:rdf="http://www.w3.org/1999/02/22-rdf-syntax-ns#"
   xmlns:svg="http://www.w3.org/2000/svg"
   xmlns="http://www.w3.org/2000/svg"
   xmlns:sodipodi="http://sodipodi.sourceforge.net/DTD/sodipodi-0.dtd"
   xmlns:inkscape="http://www.inkscape.org/namespaces/inkscape"
   viewBox="0 0 192 192"
   version="1.1"
   id="svg16"
   sodipodi:docname="microsoft_defender.svg"
   inkscape:version="0.92.4 (5da689c313, 2019-01-14)">
  <metadata
     id="metadata20">
    <rdf:RDF>
      <cc:Work
         rdf:about="">
        <dc:format>image/svg+xml</dc:format>
        <dc:type
           rdf:resource="http://purl.org/dc/dcmitype/StillImage" />
        <dc:title></dc:title>
      </cc:Work>
    </rdf:RDF>
  </metadata>
  <sodipodi:namedview
     pagecolor="#ffffff"
     bordercolor="#666666"
     borderopacity="1"
     objecttolerance="10"
     gridtolerance="10"
     guidetolerance="10"
     inkscape:pageopacity="0"
     inkscape:pageshadow="2"
     inkscape:window-width="1920"
     inkscape:window-height="1017"
     id="namedview18"
     showgrid="true"
     inkscape:zoom="2.9469688"
     inkscape:cx="56.840988"
     inkscape:cy="87.045226"
     inkscape:window-x="-8"
     inkscape:window-y="-8"
     inkscape:window-maximized="1"
     inkscape:current-layer="svg16"
     inkscape:snap-global="true">
    <inkscape:grid
       type="xygrid"
       id="grid827"
       spacingx="4"
       spacingy="4" />
  </sodipodi:namedview>
  <defs
     id="defs4">
    <style
       id="style2">.a{fill:none;stroke:#b1b5bd;stroke-linecap:round;stroke-linejoin:round;isolation:isolate;opacity:0.63;}</style>
  </defs>
  <path
     style="fill:#728dbe;stroke:#728dbe;stroke-width:8;stroke-linecap:round;stroke-linejoin:round;stroke-miterlimit:4;stroke-dasharray:none;stroke-opacity:1"
     d="M 96,12 C 64,12 48,36 28,36 h -8 v 56 c 0,44 76,88 76,88 0,0 76,-44 76,-88 V 36 h -8 C 144,36 128,12 96,12 Z"
     id="path829"
     inkscape:connector-curvature="0"
     sodipodi:nodetypes="zccscsccz" />
  <path
     style="opacity:1;vector-effect:none;fill:#9abeff;fill-opacity:1;fill-rule:evenodd;stroke:none;stroke-width:8;stroke-linecap:round;stroke-linejoin:round;stroke-miterlimit:4;stroke-dasharray:none;paint-order:stroke fill markers"
     d="M 96 8 C 79 8 66.158106 14.445926 55.515625 20.527344 C 44.873144 26.608761 36.4 32 28 32 L 20 32 A 4.0004 4.0004 0 0 0 16 36 L 16 92 L 96 92 L 96 8 z "
     id="rect847" />
  <path
     style="opacity:1;vector-effect:none;fill:#54688c;fill-opacity:1;fill-rule:evenodd;stroke:none;stroke-width:8;stroke-linecap:round;stroke-linejoin:round;stroke-miterlimit:4;stroke-dasharray:none;paint-order:stroke fill markers"
     d="M 96 92 L 96 183.99609 A 4.0004 4.0004 0 0 0 98.003906 183.46094 C 98.003906 183.46094 117.29079 172.30807 136.62305 155.51953 C 155.95531 138.73099 176 116.30303 176 92 L 96 92 z "
     id="rect847-1" />
</svg>
