<?xml version="1.0" encoding="UTF-8" standalone="no"?>
<svg
   xml:space="preserve"
   id="Layer_1"
   x="0"
   y="0"
   style="enable-background:new 0 0 192 192"
   version="1.1"
   viewBox="0 0 192 192"
   sodipodi:docname="microsoft_flow.svg"
   inkscape:version="1.2.2 (b0a8486541, 2022-12-01)"
   inkscape:export-filename="microsoft_flow.png"
   inkscape:export-xdpi="96"
   inkscape:export-ydpi="96"
   xmlns:inkscape="http://www.inkscape.org/namespaces/inkscape"
   xmlns:sodipodi="http://sodipodi.sourceforge.net/DTD/sodipodi-0.dtd"
   xmlns="http://www.w3.org/2000/svg"
   xmlns:svg="http://www.w3.org/2000/svg"><defs
     id="defs13" /><sodipodi:namedview
     id="namedview11"
     pagecolor="#505050"
     bordercolor="#eeeeee"
     borderopacity="1"
     inkscape:showpageshadow="0"
     inkscape:pageopacity="0"
     inkscape:pagecheckerboard="0"
     inkscape:deskcolor="#d1d1d1"
     showgrid="false"
     inkscape:zoom="0.86915209"
     inkscape:cx="-140.36669"
     inkscape:cy="262.8999"
     inkscape:window-width="1884"
     inkscape:window-height="1055"
     inkscape:window-x="36"
     inkscape:window-y="0"
     inkscape:window-maximized="1"
     inkscape:current-layer="Layer_1" /><style
     id="style2">.st1{fill:#fff}</style><rect
     style="fill:#728dbe;fill-opacity:1;stroke-width:7.86371;stroke-linecap:round;stroke-linejoin:round;paint-order:stroke fill markers"
     id="rect448"
     width="176"
     height="128"
     x="8"
     y="32"
     rx="10" /><path
     d="m 63.619047,107.62754 h 6.59612 c 2.173722,0.075 3.29806,1.19929 3.373016,3.37301 v 0.29983 c 0.07496,3.67283 0.974427,4.42239 4.797178,3.67283 0.974427,-0.22486 1.049383,-0.97442 1.274251,-1.64903 2.548501,-7.72045 5.097001,-15.365957 7.645502,-23.086415 1.274251,-3.897707 2.848325,-5.022046 6.9709,-5.022046 3.747795,0 3.747795,0 4.047619,-3.672839 0.224868,-2.623457 1.349206,-3.747796 3.972667,-3.747796 h 12.51763 c 2.47355,0 3.67284,1.124339 3.67284,3.597884 0.075,4.347442 0.075,8.619929 0,12.967372 0,2.398589 -1.27425,3.597883 -3.74779,3.597883 h -12.36773 c -2.773367,0 -3.972661,-1.199294 -4.122573,-3.972663 -0.224868,-3.447972 -0.224868,-3.373016 -3.67284,-3.447972 -1.499118,0 -2.173721,0.449736 -2.623456,1.873898 -2.473545,7.645504 -5.022046,15.216054 -7.495591,22.786594 -1.274251,3.7478 -2.998236,5.02205 -6.9709,5.097 -3.522927,0.075 -3.522927,0.075 -3.747795,3.52293 -0.149912,2.62346 -1.27425,3.82275 -3.972663,3.82275 -4.197531,0.075 -8.320106,0.075 -12.517637,0 -2.548501,0 -3.747795,-1.3492 -3.747795,-3.82275 v -12.44268 c 0,-2.77337 1.124338,-3.82275 3.897707,-3.82275 2.098765,0.075 4.122575,0.075 6.22134,0.075 z m -4.872134,9.81922 v 3.52293 c 0,0.89947 0.299824,1.42416 1.274251,1.42416 h 6.895943 c 0.899471,0 1.349207,-0.37478 1.349207,-1.34921 v -6.89594 c 0,-0.89947 -0.37478,-1.34921 -1.349207,-1.34921 h -6.895943 c -0.899471,0 -1.424162,0.37478 -1.349207,1.27425 0.149912,1.1993 0.07496,2.24868 0.07496,3.37302 z"
     class="st1"
     id="path6"
     style="stroke-width:0.749559" /><path
     d="m 96.074956,64.377977 h 32.006174 c 5.99647,0 10.41887,4.347442 10.41887,10.268959 v 34.254854 c 0,5.92151 -4.4224,10.26896 -10.41887,10.26896 h -27.80864 c -1.199298,0 -2.023813,-0.14992 -2.023813,-1.72399 0,-1.42416 0.449735,-1.94885 1.948853,-1.94885 8.91975,0.075 17.91446,0 26.83422,0 0.97442,0 1.94885,-0.075 2.84832,-0.29983 2.99824,-0.82451 4.72222,-2.99823 4.72222,-6.07143 V 74.272156 c 0,-3.447971 -2.32363,-5.921516 -5.7716,-6.296296 C 128.306,67.9009 127.7813,67.9009 127.25661,67.9009 H 64.893298 c -2.02381,0 -3.822751,0.299824 -5.396826,1.723986 -1.424162,1.274251 -2.023809,2.923281 -2.023809,4.872134 v 25.260141 c 0,1.948859 -0.149912,2.023809 -2.098765,2.098769 -1.349207,0 -1.798942,-0.44973 -1.798942,-1.79894 0,-8.619935 0,-17.31482 0.07496,-25.934749 0.07496,-5.546738 4.57231,-9.819224 10.194003,-9.819224 10.643739,0.07496 21.43739,0.07496 32.231041,0.07496 z"
     class="st1"
     id="path8"
     style="stroke-width:0.749559" /></svg>
