<?xml version="1.0" encoding="UTF-8"?>
<svg version="1.1" viewBox="0 0 192 192" xml:space="preserve" xmlns="http://www.w3.org/2000/svg"><defs><clipPath id="clipPath1022"><rect x="-214.75" y="6.5" width="172" height="120.5" ry="9.5" stroke-linecap="round" stroke-linejoin="round" stroke-width="15"/></clipPath><clipPath id="clipPath1026"><rect x="-214.75" y="6.5" width="172" height="120.5" ry="9.5" stroke-linecap="round" stroke-linejoin="round" stroke-width="15"/></clipPath><clipPath id="clipPath1030"><rect x="-214.75" y="6.5" width="172" height="120.5" ry="9.5" stroke-linecap="round" stroke-linejoin="round" stroke-width="15"/></clipPath><clipPath id="clipPath1034"><rect x="-214.75" y="6.5" width="172" height="120.5" ry="9.5" stroke-linecap="round" stroke-linejoin="round" stroke-width="15"/></clipPath><clipPath id="clipPath1038"><rect x="-214.75" y="6.5" width="172" height="120.5" ry="9.5" stroke-linecap="round" stroke-linejoin="round" stroke-width="15"/></clipPath><clipPath id="clipPath1042"><rect x="-214.75" y="6.5" width="172" height="120.5" ry="9.5" stroke-linecap="round" stroke-linejoin="round" stroke-width="15"/></clipPath><clipPath id="clipPath1046"><rect x="-214.75" y="6.5" width="172" height="120.5" ry="9.5" stroke-linecap="round" stroke-linejoin="round" stroke-width="15"/></clipPath><clipPath id="clipPath1050"><rect x="-214.75" y="6.5" width="172" height="120.5" ry="9.5" stroke-linecap="round" stroke-linejoin="round" stroke-width="15"/></clipPath><clipPath id="clipPath1054"><rect x="-214.75" y="6.5" width="172" height="120.5" ry="9.5" stroke-linecap="round" stroke-linejoin="round" stroke-width="15"/></clipPath><clipPath id="clipPath1058"><rect x="-214.75" y="6.5" width="172" height="120.5" ry="9.5" stroke-linecap="round" stroke-linejoin="round" stroke-width="15"/></clipPath><clipPath id="clipPath1062"><rect x="-214.75" y="6.5" width="172" height="120.5" ry="9.5" stroke-linecap="round" stroke-linejoin="round" stroke-width="15"/></clipPath></defs>
	 <path transform="matrix(.85644 0 0 .85644 206.27 21.477)" d="m-158 6.5v60h-58.75v-60z" clip-path="url(#clipPath1062)" fill="#728dbe" stroke-linecap="round" stroke-linejoin="round" stroke-width="15"/><path transform="matrix(.85644 0 0 .85644 206.27 21.477)" d="m-158 6.5h55.5v60h-55.5z" clip-path="url(#clipPath1058)" fill="#728dbe" stroke-linecap="round" stroke-linejoin="round" stroke-width="15"/><path transform="matrix(.85644 0 0 .85644 206.27 21.477)" d="m-102.5 6.5h63.25v60h-63.25z" clip-path="url(#clipPath1054)" fill="#9abeff" stroke-linecap="round" stroke-linejoin="round" stroke-width="15"/><path transform="matrix(.85644 0 0 .85644 206.27 21.477)" d="m-216.75 66.5v61h58.75v-61z" clip-path="url(#clipPath1050)" fill="#54688c" stroke-linecap="round" stroke-linejoin="round" stroke-width="15"/><path transform="matrix(.85644 0 0 .85644 206.27 21.477)" d="m-158 66.5v61h55.5v-61z" clip-path="url(#clipPath1046)" fill="#54688c" stroke-linecap="round" stroke-linejoin="round" stroke-width="15"/><path transform="matrix(.85644 0 0 .85644 206.27 21.477)" d="m-102.5 66.5v29h63.5v-29z" clip-path="url(#clipPath1042)" fill="#9abeff" stroke-linecap="round" stroke-linejoin="round" stroke-width="15"/><path transform="matrix(.85644 0 0 .85644 206.27 21.477)" d="m-102.5 95.5v32h63v-32z" clip-path="url(#clipPath1038)" fill="#9abeff" stroke-linecap="round" stroke-linejoin="round" stroke-width="15"/><path transform="matrix(.85644 0 0 .85644 206.27 21.477)" d="m-158 6.5v60h-58.75v-60z" clip-path="url(#clipPath1034)" fill-opacity=".25" stroke-linecap="round" stroke-linejoin="round" stroke-width="15"/><path transform="matrix(.85644 0 0 .85644 206.27 21.477)" d="m-158 66.5v61h55.5v-61z" clip-path="url(#clipPath1030)" fill-opacity=".5" stroke-linecap="round" stroke-linejoin="round" stroke-width="15"/><path transform="matrix(.85644 0 0 .85644 206.27 21.477)" d="m-102.5 95.5v32h63v-32z" clip-path="url(#clipPath1026)" fill-opacity=".5" stroke-linecap="round" stroke-linejoin="round" stroke-width="15"/><path transform="matrix(.85644 0 0 .85644 206.27 21.477)" d="m-102.5 66.5v29h63.5v-29z" clip-path="url(#clipPath1022)" fill-opacity=".25" stroke-linecap="round" stroke-linejoin="round" stroke-width="15"/><path transform="matrix(.85644 0 0 .85644 206.27 21.477)" d="m-216.75 66.5v61h58.75v-61z" clip-path="url(#clipPath1050)" fill-opacity=".25" stroke-linecap="round" stroke-linejoin="round" stroke-width="15"/><circle cx="73.625" cy="83.248" r="24.087" fill="#9abeff" stroke-linecap="round" stroke-linejoin="round" stroke-width="12.847"/><path d="m25.385 164.96a47.533 52.029 0 0 1 47.533-52.029 47.533 52.029 0 0 1 47.533 52.029" fill="#9abeff" stroke-linecap="round" stroke-linejoin="round" stroke-width="16.216"/></svg>
