<?xml version="1.0" encoding="UTF-8"?><svg id="uuid-9dc4a549-d85d-4f9a-88a1-5264d74986e2" xmlns="http://www.w3.org/2000/svg" width="192" height="192" viewBox="0 0 192 192"><g id="uuid-bebb03b9-2a58-4709-ad71-546280959488"><g id="uuid-2183d3ba-57b8-4bbf-9ff6-bb7f69c29ef6"><circle cx="96" cy="96" r="83" fill="#fff" stroke-width="0"/><path d="m96,18c43.01,0,78,34.99,78,78s-34.99,78-78,78S18,139.01,18,96,52.99,18,96,18m0-10C47.4,8,8,47.4,8,96s39.4,88,88,88,88-39.4,88-88S144.6,8,96,8h0Z" fill="#728dbe" stroke-width="0"/><path d="m66.97,73.01l-.58-13.49c1.76.33,3.85.42,8.63.42,5.78,0,13.4-.33,17.34-.83,1.67-.17,2.34-.42,3.43-1.01l9.05,7.71c-.84,1.17-1.09,1.68-2.01,4.02-.76,1.84-4.19,12.48-5.53,17.01,6.2,1.26,9.63,2.18,14.32,4.1.58-4.1.67-6.28.67-13.74,0-1.93-.08-3.01-.33-4.77l14.58.5c-.42,2.01-.5,2.85-.59,6.11-.33,7.88-.67,11.64-1.51,17.34q5.78,2.93,8.72,4.52c1.51.84,1.84,1.01,2.84,1.34l-4.86,15.66c-2.34-2.09-5.61-4.35-10.39-7.04-4.19,9.97-11.14,17.26-21.7,23.04-3.52-4.69-6.2-7.54-10.47-10.89,6.2-2.93,9.05-4.77,12.32-7.87,3.18-3.1,5.28-6.12,7.29-10.64-5.36-2.43-8.79-3.52-14.75-4.78-3.43,10.22-6.2,16.75-8.63,20.69-3.27,5.28-7.7,8.04-12.82,8.04-3.94,0-7.95-1.76-10.89-4.78-3.35-3.43-5.11-8.21-5.11-13.74,0-8.21,3.94-15.33,10.8-19.77,4.44-2.85,9.13-4.1,16.59-4.53,1.51-4.94,2.77-9.21,3.94-13.99-3.69.33-8.29.58-13.91.83-3.02.09-4.02.17-6.45.51Zm12.74,25.47c-3.94.67-6.28,1.93-8.38,4.61-1.59,1.84-2.34,4.02-2.34,6.36,0,2.6,1.25,4.53,2.84,4.53,1.93,0,4.11-4.36,7.88-15.5Z" fill="#56595b" stroke-width="0"/></g></g></svg>