<?xml version="1.0" encoding="UTF-8"?>
<svg version="1.1" viewBox="0 0 192 192" xmlns="http://www.w3.org/2000/svg">
 <g transform="matrix(.14594 0 0 .14594 13.262 46.352)">
  <path class="chili-rod_svg__primary" d="m1123 204.67c-9.76-62.85-40.88-113.35-91.61-151.35-39.33-29.49-83.79-44.4-132.62-45.77v-0.07h-573.99a206.67 206.67 0 0 0-25.35 1.62c-49 6.69-94.78 22.59-136.77 48.94-65.26 40.96-109.76 98.69-135.83 170.75-17.52 48.43-22.37 98.5-17 149.72 4.2 39.82 14.38 77.91 32.26 113.7 40.83 81.75 107 133.36 193.1 161 35.85 11.51 72.84 16.61 110.2 19.65 3.87 0.31 3.71-1.72 3.64-4.27a158.48 158.48 0 0 1 2.58-35.59c11.53-57.83 43.86-100.86 94.39-130.5 34.13-20 71.23-28.46 110.75-28.34 110.92 0.33 221.85 0.11 332.77 0.16a235 235 0 0 0 32-2c66.81-9.13 120.63-40.69 160.18-95.21 37.43-51.53 51.11-109.46 41.3-172.44z" fill="#fc3c65" style="fill:#ff837d"/>
  <path class="chili-rod_svg__primary" d="m587.85 612.53v-45.1c0-12.72-4.91-20.23-14.59-20.23-6.51 0-16.77 3-16.77 21.39v43.94h-19.23v-45.1c0-12-5.34-20.23-15.9-20.23-10.26 0-15.46 6.5-15.46 24.42v40.91h-19.23v-80.22h17.64v6.79h0.29c3.9-6.22 11.56-9.54 21-9.54a26.68 26.68 0 0 1 23.12 12.58c6.51-9.11 15-12.58 25.88-12.58 17.05 0 32.52 10.12 32.52 34.69v48.28zm30.5-40.04a42.9 42.9 0 0 1 42.79-42.93 42.31 42.31 0 0 1 42.49 42.64c0 24-17.92 42.93-42.49 42.93a43 43 0 0 1-42.79-42.64zm66.06 0.15c0-13.16-9.83-25.44-23.42-25.44-12.86 0-23.42 11.85-23.42 25.29s9.83 25 23.57 25c13.58 0.01 23.27-11.56 23.27-24.85zm29.59 39.89v-107h19.22v34a35.93 35.93 0 0 1 25-10c23.42 0 40.33 20.24 40.33 41.63 0 22.55-14.75 43.94-39.9 43.94-11.56 0-19.37-3.47-27-12.28v9.68zm65.33-40.33c0-14-10-25-23.56-25-13 0-23.7 11-23.7 24.14 0 14.45 9.83 26.16 24.14 26.16 13.62 0 23.16-10.7 23.16-25.3zm30.97-49v-17.63h19.23v17.63zm0 89.33v-80.22h19.23v80.22zm34.84 0v-107h19.22v107z" fill="#fc3c65" style="fill:#ff837d"/>
  <path class="chili-rod_svg__secondary" d="m459.89 302.6c-21.53 50.24-74.78 83.47-129.17 83.47-77.8 0-145.79-65-145.79-146.54 0-77.8 65-144.28 144.66-144.28 55.52 0 108.77 32.11 131.81 85.36h-58.92c-20-23-43.43-37-74.78-37-50.61 0-91 47.21-91 96.69 0 50.23 41.54 97.44 92.91 97.44 26.06 0 47.21-9.44 70.25-35.13zm162.78 77.81v-109.15c0-43.44-14.36-61.57-43.06-61.57s-42.3 20.4-42.3 62.32v108.4h-50.23v-279.49h50.23v84.6c15.48-14.73 32.86-21.91 54.39-21.91 25.3 0 81.2 17.76 81.2 88.76v128zm90.64-233.41v-46.08h50.23v46.08zm0 233.41v-209.62h50.23v209.62zm91.01 0v-279.49h50.24v279.49zm90.27-233.41v-46.08h50.23v46.08zm0 233.41v-209.62h50.23v209.62z" fill="#fff"/>
 </g>
</svg>
