<?xml version="1.0" encoding="UTF-8" standalone="no"?>
<svg
   version="1.1"
   viewBox="0 0 192 192"
   xml:space="preserve"
   id="svg118"
   sodipodi:docname="minecraft_education.svg"
   inkscape:version="1.2.2 (b0a8486541, 2022-12-01)"
   xmlns:inkscape="http://www.inkscape.org/namespaces/inkscape"
   xmlns:sodipodi="http://sodipodi.sourceforge.net/DTD/sodipodi-0.dtd"
   xmlns="http://www.w3.org/2000/svg"
   xmlns:svg="http://www.w3.org/2000/svg"><defs
   id="defs122"><mask
     id="a"
     width="155"
     height="177"
     x="19"
     y="8"
     mask-type="alpha"
     maskUnits="userSpaceOnUse"><path
       fill="#fff"
       fill-rule="evenodd"
       d="M91.97 9.902a10 10 0 0 1 10.043.028l67.033 39.175A10 10 0 0 1 174 57.738v77.524a10 10 0 0 1-4.954 8.633l-67.033 39.175a9.997 9.997 0 0 1-10.043.028l-67.967-39.212A10 10 0 0 1 19 135.224V57.776a10 10 0 0 1 5.003-8.662L91.97 9.902Z"
       clip-rule="evenodd"
       id="path261" /></mask><mask
     maskUnits="userSpaceOnUse"
     id="mask472"><g
       id="g476"
       transform="translate(357.51425,184.43671)"><path
         fill="#ffffff"
         fill-rule="evenodd"
         d="m -265.54425,-174.53471 a 10,10 0 0 1 10.043,0.028 l 67.033,39.175 a 10,10 0 0 1 4.954,8.633 v 77.524 a 10,10 0 0 1 -4.954,8.633 l -67.033,39.175 a 9.997,9.997 0 0 1 -10.043,0.028 l -67.967,-39.212 a 10,10 0 0 1 -5.003,-8.662 v -77.448 a 10,10 0 0 1 5.003,-8.662 z"
         clip-rule="evenodd"
         id="path474" /></g></mask><mask
     maskUnits="userSpaceOnUse"
     id="mask478"><g
       id="g482"
       transform="translate(357.51425,184.43671)"><path
         fill="#ffffff"
         fill-rule="evenodd"
         d="m -265.54425,-174.53471 a 10,10 0 0 1 10.043,0.028 l 67.033,39.175 a 10,10 0 0 1 4.954,8.633 v 77.524 a 10,10 0 0 1 -4.954,8.633 l -67.033,39.175 a 9.997,9.997 0 0 1 -10.043,0.028 l -67.967,-39.212 a 10,10 0 0 1 -5.003,-8.662 v -77.448 a 10,10 0 0 1 5.003,-8.662 z"
         clip-rule="evenodd"
         id="path480" /></g></mask><mask
     maskUnits="userSpaceOnUse"
     id="mask484"><g
       id="g488"
       transform="translate(357.51425,184.43671)"><path
         fill="#ffffff"
         fill-rule="evenodd"
         d="m -265.54425,-174.53471 a 10,10 0 0 1 10.043,0.028 l 67.033,39.175 a 10,10 0 0 1 4.954,8.633 v 77.524 a 10,10 0 0 1 -4.954,8.633 l -67.033,39.175 a 9.997,9.997 0 0 1 -10.043,0.028 l -67.967,-39.212 a 10,10 0 0 1 -5.003,-8.662 v -77.448 a 10,10 0 0 1 5.003,-8.662 z"
         clip-rule="evenodd"
         id="path486" /></g></mask><mask
     maskUnits="userSpaceOnUse"
     id="mask490"><g
       id="g494"
       transform="translate(357.51425,184.43671)"><path
         fill="#ffffff"
         fill-rule="evenodd"
         d="m -265.54425,-174.53471 a 10,10 0 0 1 10.043,0.028 l 67.033,39.175 a 10,10 0 0 1 4.954,8.633 v 77.524 a 10,10 0 0 1 -4.954,8.633 l -67.033,39.175 a 9.997,9.997 0 0 1 -10.043,0.028 l -67.967,-39.212 a 10,10 0 0 1 -5.003,-8.662 v -77.448 a 10,10 0 0 1 5.003,-8.662 z"
         clip-rule="evenodd"
         id="path492" /></g></mask><mask
     maskUnits="userSpaceOnUse"
     id="mask496"><g
       id="g500"
       transform="translate(357.51425,184.43671)"><path
         fill="#ffffff"
         fill-rule="evenodd"
         d="m -265.54425,-174.53471 a 10,10 0 0 1 10.043,0.028 l 67.033,39.175 a 10,10 0 0 1 4.954,8.633 v 77.524 a 10,10 0 0 1 -4.954,8.633 l -67.033,39.175 a 9.997,9.997 0 0 1 -10.043,0.028 l -67.967,-39.212 a 10,10 0 0 1 -5.003,-8.662 v -77.448 a 10,10 0 0 1 5.003,-8.662 z"
         clip-rule="evenodd"
         id="path498" /></g></mask></defs><sodipodi:namedview
   id="namedview120"
   pagecolor="#505050"
   bordercolor="#eeeeee"
   borderopacity="1"
   inkscape:showpageshadow="0"
   inkscape:pageopacity="0"
   inkscape:pagecheckerboard="0"
   inkscape:deskcolor="#d1d1d1"
   showgrid="false"
   inkscape:zoom="2.4583333"
   inkscape:cx="28.271187"
   inkscape:cy="90.915255"
   inkscape:window-width="1884"
   inkscape:window-height="1055"
   inkscape:window-x="36"
   inkscape:window-y="0"
   inkscape:window-maximized="1"
   inkscape:current-layer="svg118" />
	 <path
   d="M 17.549267,129.61658 V 51.547423 l 77.974112,44.465474 v 78.416733 z"
   fill="#d3b69a"
   id="path60"
   style="stroke-width:1.35772"
   clip-path="none" /><path
   d="M 85.218251,168.48823 27.142948,134.94836 V 67.328253 l 58.669987,33.872507 z"
   fill="#56595b"
   id="path62"
   style="stroke-width:1.35772"
   clip-path="none" /><path
   d="m 85.218251,168.48823 -10.155507,-5.86334 v -55.23494 l 10.703213,6.17955 z"
   fill="#98dc9a"
   id="path64"
   style="stroke-width:1.35772"
   clip-path="none" /><path
   d="M 75.062473,162.62286 56.706039,152.02446 56.478199,84.261792 75.396731,95.184277 Z"
   fill="#9abeff"
   id="path66"
   style="stroke-width:1.35772"
   clip-path="none" /><path
   d="m 56.706039,152.03261 -9.607665,-5.37374 v -44.46276 l 9.607665,5.37374 z"
   fill="#f8c18c"
   id="path68"
   style="stroke-width:1.35772"
   clip-path="none" /><path
   d="M 47.39205,146.77821 27.137517,134.95705 V 79.386747 L 47.337741,91.04892 Z"
   fill="#ff837d"
   id="path70"
   style="stroke-width:1.35772"
   clip-path="none" /><path
   d="M 47.39205,112.75364 27.137517,101.34441 V 91.032356 L 47.39205,102.44159 Z"
   fill="#ffffff"
   id="path72"
   style="stroke-width:1.35772"
   clip-path="none" /><path
   d="m 85.218251,168.48823 10.302549,5.94819 v 11.70222 L 17.546688,141.12057 v -11.49666 z"
   fill="#8e6f60"
   id="path74"
   style="stroke-width:1.35772"
   clip-path="none" /><path
   d="m 27.148379,91.02869 -9.596532,-5.159217 v 10.998111 l 9.596532,5.159216 z"
   fill="#8e6f60"
   id="path76"
   style="stroke-width:1.35772"
   clip-path="none" /><path
   d="m 85.761341,123.88698 9.754843,5.90162 v 11.20123 l -9.970857,-5.75676 z"
   fill="#8e6f60"
   id="path78"
   style="stroke-width:1.35772"
   clip-path="none" /><path
   d="m 38.064483,73.636241 v -10.38795 l 9.33001,4.920258 v 10.854328 z"
   fill="#8e6f60"
   id="path80"
   style="stroke-width:1.35772"
   clip-path="none" /><path
   d="M 17.549267,51.554211 96.69238,5.8613542 174.45333,50.757227 95.523379,96.327889 Z"
   fill="#d3b69a"
   id="path82"
   style="stroke-width:1.35772"
   clip-path="none" /><path
   d="M 104.52509,91.13052 27.299086,45.926444 19.794808,50.259078 97.104993,95.415634 Z"
   fill="#8e6f60"
   id="path84"
   style="stroke-width:1.35772"
   clip-path="none" /><path
   d="M 142.13406,69.41236 64.905337,24.209642 57.401058,28.542276 134.98279,73.541336 Z"
   fill="#8e6f60"
   id="path86"
   style="stroke-width:1.35772"
   clip-path="none" /><path
   d="m 66.508809,57.18741 9.289686,-5.363419 -9.304485,-5.371972 -8.964511,5.175645 z"
   fill="#8e6f60"
   id="path88"
   style="stroke-width:1.35772"
   clip-path="none" /><path
   d="m 134.39503,51.672333 9.28969,-5.363419 -9.30449,-5.371972 -8.96451,5.175646 z"
   fill="#8e6f60"
   id="path90"
   style="stroke-width:1.35772"
   clip-path="none" /><path
   d="M 95.523379,174.43506 V 96.325173 l 78.902801,-45.554369 -0.0849,89.034136 -78.818619,46.33234 z"
   fill="#d3b69a"
   id="path92"
   style="stroke-width:1.35772"
   clip-path="none" /><path
   d="m 104.52509,113.32388 -0.12599,-11.11066 58.84649,-33.974341 v 67.091951 l -58.80441,33.9499 z"
   fill="#56595b"
   id="path94"
   style="stroke-width:1.35772"
   clip-path="none" /><path
   d="m 104.44363,170.19896 20.55323,-11.86665 0.001,-56.11068 -20.47041,11.11067 z"
   fill="#ff837d"
   id="path96"
   style="stroke-width:1.35772"
   clip-path="none" /><path
   d="m 95.523379,174.43506 78.828121,-45.6114 -0.0104,10.98114 -78.818621,46.33235 z"
   fill="#8e6f60"
   id="path98"
   style="stroke-width:1.35772"
   clip-path="none" /><path
   d="m 124.986,157.39562 9.63876,-5.56504 v -45.28554 l -9.63917,5.56517 z"
   fill="#f8c18c"
   id="path100"
   style="stroke-width:1.35772"
   clip-path="none" /><path
   d="m 104.52509,124.78308 20.47041,-11.81832 0.0244,10.9233 -20.52879,12.05755 z"
   fill="#ffffff"
   id="path102"
   style="stroke-width:1.35772"
   clip-path="none" /><path
   d="M 134.62584,151.82895 V 84.76415 L 152.83157,74.253327 V 141.34528 Z"
   fill="#9abeff"
   id="path104"
   style="stroke-width:1.35772"
   clip-path="none" /><path
   d="M 152.83293,141.34731 V 86.772224 l 10.406,-5.627496 v 54.194932 z"
   fill="#98dc9a"
   id="path106"
   style="stroke-width:1.35772"
   clip-path="none" /><path
   d="m 95.523379,129.79308 8.984471,-5.18719 v 11.3332 l -8.984471,5.18719 z"
   fill="#8e6f60"
   id="path108"
   style="stroke-width:1.35772"
   clip-path="none" /><path
   d="M 125.32543,90.135308 V 79.118189 l -10.57382,6.104872 V 96.24018 Z"
   fill="#8e6f60"
   id="path110"
   style="stroke-width:1.35772"
   clip-path="none" /><path
   d="m 163.2426,91.02869 8.46161,-4.885364 v 10.16569 l -8.46161,4.885364 z"
   fill="#8e6f60"
   id="path112"
   style="stroke-width:1.35772"
   clip-path="none" /><path
   d="M 95.523379,174.43506 V 96.325173 l 78.902801,-45.554369 -0.0849,89.034136 -78.818619,46.33234 z"
   fill="#56595b"
   fill-opacity="0.5"
   id="path114"
   style="stroke-width:1.35772"
   clip-path="none" /></svg>
