<?xml version="1.0" encoding="UTF-8"?>
<svg version="1.1" viewBox="0 0 192 192" xmlns="http://www.w3.org/2000/svg">
 <rect class="a" x="20" y="20" width="152" height="152" rx="10" style="fill:#f9de81"/>
 <path d="m61.521 93.228c-3.4106-1.7931-6.4999-4.1216-9.1183-7.2351l-2.3787 11.2c3.4746 3.494 7.7466 4.3298 11.993 5.2529z" style="fill:#56595b;stroke-linecap:round;stroke-linejoin:round;stroke-width:4.2049"/>
 <circle cx="77.625" cy="96.376" r="19.062" style="fill:#d2d2d2;stroke-linecap:round;stroke-linejoin:round;stroke-width:4.2049"/>
 <circle cx="77.625" cy="96.376" r="13.105" style="fill:#fff;stroke-linecap:round;stroke-linejoin:round;stroke-width:4.2049"/>
 <circle cx="82.461" cy="96.376" r="4.8357" style="fill:#f8c18c;stroke-linecap:round;stroke-linejoin:round;stroke-width:4.2049"/>
 <circle cx="82.461" cy="96.376" r="2.1726" style="fill:#56595b;stroke-linecap:round;stroke-linejoin:round;stroke-width:4.2049"/>
 <path d="m130.48 93.228c3.4106-1.7931 6.4999-4.1216 9.1183-7.2351l2.3787 11.2c-3.4746 3.494-7.7466 4.3298-11.993 5.2529z" style="fill:#56595b;stroke-linecap:round;stroke-linejoin:round;stroke-width:4.2049"/>
 <circle transform="scale(-1,1)" cx="-114.37" cy="96.376" r="19.062" style="fill:#d2d2d2;stroke-linecap:round;stroke-linejoin:round;stroke-width:4.2049"/>
 <circle transform="scale(-1,1)" cx="-114.37" cy="96.376" r="13.105" style="fill:#fff;stroke-linecap:round;stroke-linejoin:round;stroke-width:4.2049"/>
 <circle transform="scale(-1,1)" cx="-109.54" cy="96.376" r="4.8357" style="fill:#f8c18c;stroke-linecap:round;stroke-linejoin:round;stroke-width:4.2049"/>
 <circle transform="scale(-1,1)" cx="-109.54" cy="96.376" r="2.1726" style="fill:#56595b;stroke-linecap:round;stroke-linejoin:round;stroke-width:4.2049"/>
 <path d="m61.62 70.333c6.8576-6.1822 14.022-8.6807 21.408-8.5236" style="fill:none;stroke-linecap:round;stroke-linejoin:round;stroke-width:4.2049;stroke:#56595b"/>
 <path d="m126.82 70.333c-6.8576-6.1822-14.022-8.6807-21.408-8.5236" style="fill:none;stroke-linecap:round;stroke-linejoin:round;stroke-width:4.2049;stroke:#56595b"/>
 <path d="m85.321 126.23c6.4603 4.7753 13.298 5.7767 20.813 0" style="fill:none;stroke-linecap:round;stroke-linejoin:round;stroke-width:4.2049;stroke:#56595b"/>
</svg>
