<svg xmlns="http://www.w3.org/2000/svg" xml:space="preserve" width="192" height="192"><rect width="153" height="153" x="19.5" y="19.5" rx="10" style="opacity:1;fill:#9bbfff;fill-opacity:1;fill-rule:evenodd;stroke:none"/><path fill="#fff" d="M130.135 87.612a1.473 1.473 0 0 0-2.92-.269h-3.108C123.963 71.966 111.41 59.5 96 59.5c-15.41 0-27.963 12.466-28.107 27.843h-3.108a1.471 1.471 0 0 0-2.92.269c0 18.238 14.38 33.181 32.396 34.09v6.693h-5.277c-2.286 0-4.138 1.838-4.138 4.105h22.31c0-2.267-1.853-4.105-4.139-4.105H97.74v-6.692c18.017-.91 32.395-15.853 32.395-34.091ZM96 63.249c13.434 0 24.363 10.929 24.363 24.363S109.433 111.974 96 111.974c-13.434 0-24.363-10.929-24.363-24.362 0-13.434 10.93-24.363 24.363-24.363ZM64.84 88.95h3.082c.7 14.882 13.026 26.773 28.078 26.773s27.377-11.891 28.078-26.773h3.081c-.703 16.58-14.409 29.852-31.159 29.852S65.545 105.53 64.84 88.95z" style="stroke-width:.516277"/><path fill="#9abefc" d="M-102.567 172.658c0 6.495-5.266 11.761-11.76 11.761h-152.39c-6.494 0-11.76-5.266-11.76-11.761V20.269c0-6.496 5.266-11.76 11.76-11.76h152.39c6.494 0 11.76 5.264 11.76 11.76z" style="fill:#9bbfff;fill-opacity:1"/><path fill="#fff" d="M-124.404 80.216a2.85 2.85 0 0 0-5.655-.52h-6.02c-.28-29.785-24.594-53.931-54.444-53.931s-54.163 24.146-54.443 53.931h-6.02a2.85 2.85 0 0 0-5.654.52c0 35.326 27.85 64.271 62.747 66.032v12.962h-10.22c-4.428 0-8.016 3.561-8.016 7.952h43.214c0-4.392-3.589-7.952-8.017-7.952h-10.22v-12.962c34.9-1.761 62.748-30.706 62.748-66.032zm-66.118-47.19c26.021 0 47.19 21.169 47.19 47.19 0 26.021-21.17 47.189-47.19 47.189-26.02 0-47.189-21.169-47.189-47.189s21.17-47.19 47.19-47.19zm-60.354 49.783h5.968c1.358 28.824 25.232 51.857 54.386 51.857 29.154 0 53.028-23.033 54.386-51.857h5.968c-1.362 32.113-27.91 57.82-60.354 57.82-32.443 0-58.99-25.707-60.354-57.82z"/></svg>