<svg xmlns="http://www.w3.org/2000/svg" xmlns:xlink="http://www.w3.org/1999/xlink" xml:space="preserve" viewBox="0 0 192 192"><path fill="#FFF" d="M0 0h192v192H0z"/><g fill="#8ABFFF"><path d="M79.8 129.7c-10.7 0-21.3.1-32 0-15.3-.1-26.9-13.1-25.3-28.4 1-10.3 9.3-19.5 19.5-21.5 1.4-.3 2.1-.8 2.6-2.1C49.3 66.1 57.7 58.3 70 55.6c15.9-3.4 29.2 1.4 39.6 14 4 4.9 6.3 10.6 7.1 16.9.1.9.4 1.4 1.4 1.7 10.5 2.9 17 13.3 15 23.9-1.9 10.3-10.7 17.6-21.1 17.6H79.8zm36.9-32.3c-.1.4-.2.7-.3 1.1-.4 1.6-.8 3.3-1.3 4.9-.9 2.5-3.8 3.6-6.2 2.5-2.3-1.1-3.3-3.4-2.3-6 2.4-6.6 2.2-13.1-.9-19.4-4.3-8.8-11.5-14-21-16-12.3-2.6-24.1 2.8-30.1 13.7-1 1.7-1 1.7 1 2.4 3.8 1.2 7.1 3.3 9.9 6.1 1.3 1.3 1.6 3 1 4.7-.6 1.7-1.8 2.7-3.6 3-1.8.3-3.2-.5-4.5-1.7-3.3-3.1-7.1-5.1-11.8-4.7-8.4.6-15.1 8.2-14.9 16.7.2 8.6 7.2 15.6 15.8 15.8 4.4.1 8.9 0 13.3 0h51.7c4.9 0 8.5-2.5 10.6-6.8 2.2-4.4 1.7-8.7-1.4-12.5-1.4-1.9-3-3.1-5-3.8zM169.7 108.5c-.1 9.7-2.9 18.6-8.2 26.7-2.1 3.2-6.5 3-8.1-.3-.8-1.7-.6-3.3.4-4.9 2.5-3.7 4.3-7.7 5.3-12 2.8-11.3.9-21.9-5.4-31.7-1.2-1.8-1.2-3.8 0-5.5 1-1.5 3-2.2 4.8-1.7 1.1.3 2 .9 2.7 1.8 4.5 6.7 7.2 14.1 8 22.1.3 1.9.4 3.7.5 5.5zM151.6 108.6c-.1 6.9-2.1 13.2-5.9 19-1.5 2.3-4.4 2.9-6.5 1.5-2.2-1.5-2.8-4.2-1.2-6.6 5.8-9 5.8-18.1.7-27.4-.3-.5-.6-.9-.9-1.4-1.3-2.2-.7-5 1.4-6.3 2-1.3 4.9-.8 6.3 1.2 3.4 4.9 5.3 10.3 5.9 16.2.1 1.3.1 2.5.2 3.8z"/></g><image xlink:href="../delta-logo.png" width="240" height="240" overflow="visible" transform="translate(-109 303) scale(.9999)"/></svg>