<?xml version="1.0" encoding="UTF-8"?>
<svg version="1.1" viewBox="0 0 192 192" xmlns="http://www.w3.org/2000/svg">
 <defs>
  <clipPath id="clipPath9">
   <rect class="a" x="8" y="32" width="176" height="128" rx="10" style="fill:#fff"/>
  </clipPath>
 </defs>
 <rect class="a" x="8" y="32" width="176" height="128" rx="10" style="fill:#fff"/>
 <path class="a" d="m18 32c-5.54 0-10 4.46-10 10v15.031h176v-15.031c0-5.54-4.46-10-10-10h-156z" style="fill:#9abeff"/>
 <g transform="matrix(.47072 0 0 .47072 50.81 47.979)">
  <rect x="8" y="51.09" width="176" height="89.78" rx="16" fill="#fff"/>
  <path d="m184 61.22a10 10 0 0 0-9.89-10.13h-43.75l25 41.74 2.31 0.3 1.44 1.87v1.78l1.57 0.32 1.46 2v1.72l1.64 0.3 1.64 1.79v4a27.29 27.29 0 0 0 6.57 4.38c2.2 0.84 2.45 4.37 3.78 6.26 1.66 2.74 3.94 3.83 3.46 5.37-1.11 4.1-5.31 11-9.22 11.33h-15.47v6.63h19.38a10.13 10.13 0 0 0 10.08-10.18v-69.48" fill="#ff837d"/>
  <path d="m77.47 134.35h-7.47c0-18.71 6.32-29.06 13.9-31.11 1-0.19 0.54-5.3-0.78-6.86h-4.4c-0.7 0-0.29-1.31-0.29-1.31l3.57-7.58-0.48-2.07h-13.13l10.77-7.53c0.5-19.89 20.84-21.4 33.14-13.13 7.29 4.83 7.85 14.4 7.29 21-0.08 0.43-1.89 0.15-1.89 0.15s-1.24 7.29 2 7.29h14.3c5.84-0.23 11.47 3.72 11.47 3.72l1.37-5-31.35-40.83h-97.36a10 10 0 0 0-10.13 10.13v69.52a10 10 0 0 0 2.92 7.18 10.2 10.2 0 0 0 7.21 3h63.21c-1.55-2.65-3.32-5.67-3.86-6.56" fill="#9abeff"/>
  <path d="m22 119.59a6.92 6.92 0 1 1 7 6.92h-0.1a6.85 6.85 0 0 1-6.9-6.83v-0.09" fill="#fff"/>
 </g>
 <path d="m8 138.11h24" style="fill:#9abeff;stroke-linejoin:round;stroke-width:4;stroke:#b1b5bd"/>
 <path d="m40.812 138.11h24" style="fill:#9abeff;stroke-linejoin:round;stroke-width:4;stroke:#b1b5bd"/>
 <path d="m74.113 138.11h24" style="fill:#9abeff;stroke-linejoin:round;stroke-width:4;stroke:#b1b5bd"/>
 <path d="m107.32 138.11h24" style="fill:#9abeff;stroke-linejoin:round;stroke-width:4;stroke:#b1b5bd"/>
 <path d="m141.69 138.11h24" style="fill:#9abeff;stroke-linejoin:round;stroke-width:4;stroke:#b1b5bd"/>
 <path d="m174.62 138.11h24" clip-path="url(#clipPath9)" style="fill:#9abeff;stroke-linejoin:round;stroke-width:4;stroke:#b1b5bd"/>
 <text x="49.932747" y="152.83961" style="fill:#d2d2d2;font-family:Now;font-size:10.186px;font-weight:500;stroke-linejoin:round;stroke-width:1.2732" xml:space="preserve"><tspan x="49.932747" y="152.83961" style="stroke-width:1.2732">SEC</tspan></text>
 <text x="80.638939" y="152.83961" style="fill:#d2d2d2;font-family:Now;font-size:10.186px;font-weight:500;stroke-linejoin:round;stroke-width:1.2732" xml:space="preserve"><tspan x="80.638939" y="152.83961" style="stroke-width:1.2732">ROW</tspan></text>
 <text x="118.23203" y="152.83961" style="fill:#d2d2d2;font-family:Now;font-size:10.186px;font-weight:500;stroke-linejoin:round;stroke-width:1.2732" xml:space="preserve"><tspan x="118.23203" y="152.83961" style="stroke-width:1.2732">SEAT</tspan></text>
 <text x="54.74559" y="50.585938" style="fill:#ffffff;font-family:Now;font-size:16.702px;font-weight:500;stroke-linejoin:round;stroke-width:2.0878" xml:space="preserve"><tspan x="54.74559" y="50.585938" style="stroke-width:2.0878">BALLPARK</tspan></text>
</svg>
