<svg xmlns="http://www.w3.org/2000/svg" viewBox="0 0 192 192"><rect width="152" height="152" x="20" y="20" rx="10" style="opacity:1;fill:#8c72bd;fill-opacity:1;stroke:none;stroke-linecap:round;stroke-linejoin:round;isolation:isolate"/><path d="M68.65 76.902c-6.02.035-12.014.295-16.988.762s-8.628.883-11.316 2.229a2.9 2.9 0 0 0-1.602 2.593v66.817c.001 2.08 2.126 3.482 4.04 2.666.661-.283 4.51-1.016 9.17-1.377s10.429-.56 16.25-.576c5.82-.017 11.7.147 16.581.5s8.92 1.059 10.287 1.507c.322.106.694.104 1.002.114.361.011.689-.012 1.004-.114 1.37-.44 5.406-1.154 10.287-1.507 4.881-.353 10.762-.517 16.582-.5 5.82.017 11.59.215 16.25.576 4.66.36 8.508 1.094 9.17 1.377 1.913.816 4.038-.586 4.04-2.666V82.486a2.9 2.9 0 0 0-1.602-2.593c-2.689-1.346-6.343-1.762-11.317-2.229-4.974-.467-10.968-.727-16.988-.762-5.174-.03-10.316.117-14.879.442a13.148 13.148 0 0 1 .527 3.674 13.148 13.148 0 0 1-.187 2.115c4.38-.314 9.427-.461 14.504-.432 5.874.034 11.743.292 16.482.737 3.508.329 6.063.842 7.66 1.242v60.925c-1.973-.335-4.21-.583-6.96-.796-4.863-.377-10.744-.577-16.684-.594-5.94-.017-11.931.15-17.016.517-3.13.227-5.693.542-7.972.948V93.79a13.148 13.148 0 0 1-2.975.375 13.148 13.148 0 0 1-2.824-.342v51.856c-2.28-.406-4.843-.721-7.973-.948-5.084-.367-11.075-.534-17.016-.517-5.94.017-11.82.217-16.683.594-2.75.213-4.987.46-6.961.796V84.68c1.598-.4 4.152-.913 7.66-1.243 4.74-.444 10.608-.702 16.483-.736 5.018-.029 10.006.116 14.351.422a13.148 13.148 0 0 1-.185-2.105 13.148 13.148 0 0 1 .529-3.686c-4.526-.317-9.614-.46-14.73-.43Z" style="color:#000;fill:#fff;stroke-linejoin:round;-inkscape-stroke:none" transform="translate(-.075 .142)"/><g transform="translate(-.075 .142)"><circle cx="96" cy="81.461" r="4.994" style="opacity:1;fill:#fff;fill-opacity:1;stroke:none;stroke-width:5.8;stroke-linejoin:round;stroke-miterlimit:4;stroke-dasharray:none;stroke-opacity:1"/><path d="M82.382 68.566c7.374-7.267 19.56-7.496 27.236.161M68.628 55.567c16.414-14.99 38.874-15.164 54.744.263" style="fill:none;stroke:#fff;stroke-width:9.9;stroke-linecap:round;stroke-linejoin:miter;stroke-miterlimit:4;stroke-dasharray:none;stroke-opacity:1"/></g><path d="M65.482 97.482v15.74H50.018v7.464h15.464v15.332h7.463v-15.332h15.606v-7.463H72.945v-15.74Z" style="opacity:1;fill:#fff;fill-opacity:1;stroke:none;stroke-width:8.35541;stroke-linecap:round;stroke-linejoin:round;stroke-miterlimit:4;stroke-dasharray:none;stroke-opacity:1" transform="translate(-.075 .142)"/><path d="M103.59 113.223h38.533v7.463H103.59z" style="opacity:1;fill:#fff;fill-opacity:1;stroke:none;stroke-width:9.9;stroke-linecap:round;stroke-linejoin:round;stroke-miterlimit:4;stroke-dasharray:none;stroke-opacity:1" transform="translate(-.075 .142)"/></svg>