<svg width="192" height="192" viewBox="0 0 192 192" fill="none" xmlns="http://www.w3.org/2000/svg">
<mask id="mask0_119_3" style="mask-type:luminance" maskUnits="userSpaceOnUse" x="20" y="20" width="152" height="152">
<path d="M162.065 20H29.9346C24.4479 20 20 24.4479 20 29.9346V162.065C20 167.552 24.4479 172 29.9346 172H162.065C167.552 172 172 167.552 172 162.065V29.9346C172 24.4479 167.552 20 162.065 20Z" fill="white"/>
</mask>
<g mask="url(#mask0_119_3)">
<path d="M162.065 20H29.9346C24.4479 20 20 24.4479 20 29.9346V162.065C20 167.552 24.4479 172 29.9346 172H162.065C167.552 172 172 167.552 172 162.065V29.9346C172 24.4479 167.552 20 162.065 20Z" fill="#F9DE81"/>
</g>
<path d="M113.049 135.066C103.913 130.649 103.558 123.502 110.625 86.3418C111.485 81.8165 112.263 77.6438 112.354 77.0692L112.517 76.0244L111.589 77.0692C105.386 84.0475 98.4584 97.8382 94.7287 110.633C93.5413 114.707 92.5088 115.716 88.2319 116.984C83.735 118.316 83.8106 112.46 88.6738 82.7219C89.5649 77.2732 89.568 77.3037 88.2684 78.8198C82.3708 85.6996 75.1814 102.814 70.749 120.525C70.0091 123.481 69.5114 124.064 66.4389 125.569C60.3152 128.568 59.813 126.386 62.3408 107.76C64.9536 88.5081 67.5684 68.8414 67.5153 68.8414C67.3393 68.8414 63.5089 73.9346 61.6222 76.6774C57.7587 82.294 57.4393 82.5373 56.4775 80.5954C55.4199 78.4598 55.8103 77.4108 60.8514 68.8414C64.3225 62.9409 68.9331 57.2521 70.9243 56.4129C72.8966 55.5817 77.754 56.0828 78.8201 57.2274C79.4622 57.9169 79.6038 56.9134 75.0633 83.8604C73.3407 94.0838 72.8496 97.5263 73.2935 96.2674C81.836 72.0401 89.3083 62.7277 97.092 66.6082C101.334 68.723 101.301 67.5451 97.603 84.701C96.6673 89.0422 95.9029 92.6859 95.9042 92.7983C95.9055 92.9106 96.5879 91.295 97.4206 89.2082C104.394 71.731 113.073 62.2208 119.474 65.0413C123.593 66.8558 124.395 68.4176 123.462 72.8076C116.224 106.878 114.949 123.637 118.94 132.228C120.209 134.961 120.216 135.115 119.086 135.591C117.44 136.285 115.16 136.086 113.049 135.066ZM64.1518 134.251C62.1188 133.239 62.4396 132.093 64.914 131.526C65.6501 131.358 70.3068 130.23 75.2622 129.019C87.0661 126.136 90.5147 125.366 94.9449 124.627C101.312 123.564 100.788 123.583 100.965 124.41C101.174 125.382 102.296 129.466 102.5 129.993C102.64 130.356 102.327 130.44 100.254 130.595C89.7136 131.379 80.9825 132.349 71.7453 133.762C64.9795 134.796 65.2167 134.781 64.1518 134.251ZM133.061 132.416C131.123 131.318 127.507 130.118 124.415 129.548L122.055 129.112L122.051 127.252C122.049 126.229 121.878 124.686 121.672 123.824C121.466 122.962 121.293 122.169 121.288 122.061C121.261 121.503 127.82 122.106 130.925 122.946C134.854 124.01 136.186 125.777 135.98 129.652C135.776 133.485 135.465 133.78 133.061 132.416Z" fill="#56595B"/>
</svg>
