<svg xmlns="http://www.w3.org/2000/svg" id="svg2" width="192" height="192" version="1.1"><g id="layer1" transform="translate(0 -860.362)"><rect id="rect923" width="152" height="152" x="20" y="880.362" rx="9.935" ry="9.935" style="fill:#f58f8a;fill-opacity:1;fill-rule:evenodd;stroke:none;stroke-width:.993464;stroke-opacity:1"/><rect id="rect983" width="152" height="152" x="20" y="880.362" rx="9.935" ry="9.935" style="fill:#f58f8a;fill-opacity:1;fill-rule:evenodd;stroke:none;stroke-width:.993464;stroke-opacity:1"/><path id="path953" d="M87.805 916.814c-4.995 0-8.851 2.278-11.042 6.135-2.016-3.681-5.522-6.135-9.992-6.135-4.031 0-7.274 1.928-9.553 4.995v-4.294H46v35.057h11.218v-20.333c0-2.542 1.578-5.522 4.996-5.522 3.067 0 5.083 2.454 5.083 5.522v20.333h11.218v-20.333c0-2.542 1.578-5.522 4.996-5.522 3.067 0 5.17 2.454 5.17 5.522v20.333h11.131v-22.174c0-8.15-4.294-13.584-12.007-13.584z" style="font-style:normal;font-variant:normal;font-weight:700;font-stretch:normal;font-size:232.308px;line-height:1.25;font-family:now;-inkscape-font-specification:&quot;now Bold&quot;;letter-spacing:0;word-spacing:0;fill:#fff;fill-opacity:1;stroke-width:1.75285"/><path id="path955" d="M126.543 953.273c11.744 0 19.457-7.713 19.457-18.23s-7.713-18.23-19.457-18.23S107 924.527 107 935.044s7.8 18.23 19.544 18.23zm0-9.904c-4.82-.087-8.326-3.593-8.326-8.326 0-4.732 3.506-8.238 8.326-8.326 4.733.088 8.326 3.594 8.326 8.326 0 4.733-3.593 8.239-8.326 8.326z" style="font-style:normal;font-variant:normal;font-weight:700;font-stretch:normal;font-size:232.308px;line-height:1.25;font-family:now;-inkscape-font-specification:&quot;now Bold&quot;;letter-spacing:0;word-spacing:0;fill:#fff;fill-opacity:1;stroke-width:1.75285"/><path id="path957" d="M87.805 959.451c-4.995 0-8.851 2.28-11.042 6.135-2.016-3.68-5.522-6.135-9.992-6.135-4.031 0-7.274 1.929-9.553 4.996v-4.294H46v35.057h11.218v-20.334c0-2.541 1.578-5.521 4.996-5.521 3.067 0 5.083 2.454 5.083 5.521v20.334h11.218v-20.334c0-2.541 1.578-5.521 4.996-5.521 3.067 0 5.17 2.454 5.17 5.521v20.334h11.131v-22.174c0-8.15-4.294-13.585-12.007-13.585z" style="font-style:normal;font-variant:normal;font-weight:700;font-stretch:normal;font-size:232.308px;line-height:1.25;font-family:now;-inkscape-font-specification:&quot;now Bold&quot;;letter-spacing:0;word-spacing:0;fill:#fff;fill-opacity:1;stroke-width:1.75285"/><path id="path959" d="M126.543 995.91c11.744 0 19.457-7.712 19.457-18.229s-7.713-18.23-19.457-18.23S107 967.164 107 977.681s7.8 18.23 19.544 18.23zm0-9.903c-4.82-.087-8.326-3.593-8.326-8.326 0-4.733 3.506-8.238 8.326-8.326 4.733.088 8.326 3.593 8.326 8.326 0 4.733-3.593 8.238-8.326 8.326z" style="font-style:normal;font-variant:normal;font-weight:700;font-stretch:normal;font-size:232.308px;line-height:1.25;font-family:now;-inkscape-font-specification:&quot;now Bold&quot;;letter-spacing:0;word-spacing:0;fill:#fff;fill-opacity:1;stroke-width:1.75285"/></g><style id="style853" type="text/css">.st0{fill:#fff}</style></svg>