<?xml version="1.0" encoding="UTF-8"?>
<svg version="1.1" viewBox="0 0 192 192" xmlns="http://www.w3.org/2000/svg">
 <circle class="a" cx="96" cy="96" r="88" style="fill:#f8c18c"/>
 <path d="m122.04 108.52q0.89214-0.25289 1.6789-0.71653 0.78678-0.46363 1.4331-1.1099 0.64628-0.63926 1.1099-1.426l15.188-24.84c3.969 11.366 3.5405 23.8-1.145 34.843-1.1731 2.7537-2.5711 5.3669-4.2149 7.8326-1.6438 2.4657-3.5405 4.7839-5.6128 6.9334-2.0723 2.1074-4.3272 4.0392-6.7578 5.7533-2.4306 1.714-5.0016 3.1822-7.7202 4.4326-10.902 4.9314-23.266 5.6479-34.674 1.8897q-4.2149-1.3909-8.1487-3.5335c-2.6062-1.433-5.0719-3.0768-7.362-4.9735-2.2901-1.8897-4.3975-3.962-6.3293-6.252-1.8897-2.2901-3.5756-4.7206-5.0368-7.3268-1.4682-2.5711-2.6835-5.2897-3.6459-8.1136-0.92727-2.824-1.6438-5.7182-2.0723-8.6475q-0.64628-4.4326-0.42851-8.9004c0.10537-2.9644 0.49876-5.9359 1.1802-8.8301 0.63925-2.8942 1.6087-5.7182 2.7818-8.4368 1.1802-2.7467 2.6132-5.3599 4.2921-7.7905 1.6438-2.4657 3.5405-4.7839 5.6479-6.8983 2.0723-2.1074 4.3624-3.9971 6.8281-5.683 4.8963-3.393 10.369-5.8235 16.157-7.2144 5.7533-1.3628 11.759-1.6438 17.66-0.8219 5.8938 0.8219 11.577 2.7467 16.761 5.6409 5.1843 2.9012 9.7574 6.7578 13.551 11.366l-13.551 22.198-10.045-14.436q-0.60413-0.8219-1.3909-1.4682-0.78678-0.64628-1.714-1.0748-0.96942-0.39338-1.9669-0.49876-1.0046-0.14049-2.0372 0-1.0045 0.17563-1.9318 0.56901-0.92727 0.43554-1.714 1.1099-0.78678 0.64627-1.3628 1.5033-0.56901 0.85702-0.89215 1.8194l-6.6454 19.515-5.8657-7.5025q-0.60413-0.78677-1.426-1.3979-0.78677-0.569-1.7562-0.92727-0.92727-0.35826-1.9318-0.46363-0.99752-0.0702-1.995 0.10537-1.0045 0.18264-1.8967 0.64628-0.89215 0.42851-1.6438 1.1099-0.75165 0.67438-1.3277 1.4963-0.53388 0.85702-0.8219 1.8264l-8.219 26.413q-0.17562 0.67438-0.21074 1.3909-0.04215 0.71653 0.07025 1.3979 0.07025 0.7095 0.32314 1.3558 0.21074 0.6814 0.53388 1.2855c0.71653 1.2153 1.714 2.255 2.9645 2.8942 1.2504 0.6814 2.6483 0.96942 4.0392 0.85702 1.4331-0.10537 2.7537-0.63926 3.8987-1.4612 1.1099-0.85703 1.9669-2.0372 2.4306-3.3649l4.0744-13.045 5.5777 7.1161q0.60413 0.78678 1.3909 1.3558 0.8219 0.61115 1.714 0.96941 0.93429 0.35124 1.9318 0.46364 1.0045 0.0702 1.9669-0.0702 0.96942-0.18264 1.8967-0.61115 0.89214-0.42852 1.6438-1.0748 0.75166-0.63925 1.3207-1.4612 0.54091-0.8219 0.85702-1.7492l6.3645-18.588 8.1839 11.759q0.50578 0.75165 1.2153 1.3558 0.6814 0.61115 1.5033 1.0045 0.8219 0.42851 1.714 0.60413 0.89917 0.21777 1.8264 0.17562 0.92727-0.0351 1.7843-0.28099m35.033-51.4c0 0.9343-0.14049 1.8616-0.42851 2.7537-0.25289 0.92727-0.6814 1.7913-1.1802 2.5711-0.53388 0.75165-1.1802 1.4682-1.8967 2.0793-0.7095 0.60413-1.5314 1.0678-2.3954 1.426-0.85702 0.39339-1.7843 0.61116-2.7116 0.71653-0.93429 0.0702-1.8967 0.0351-2.824-0.14752-0.89917-0.17562-1.7913-0.49876-2.6483-0.9624-0.82189-0.42851-1.5735-0.99752-2.2128-1.6789-1.3628-1.3206-2.255-3.0417-2.6132-4.8963-0.39339-1.8616-0.17562-3.7864 0.53388-5.5074 0.71653-1.7492 1.9318-3.2525 3.5054-4.3202 1.5736-1.0397 3.4351-1.6087 5.2896-1.6438 2.543 0 4.9735 1.0326 6.7578 2.824q0.68141 0.67438 1.2153 1.4612 0.49876 0.78677 0.85702 1.6438t0.57603 1.7913q0.17562 0.92727 0.17562 1.8897" fill="#e2750f" fill-rule="evenodd" style="fill:#fff;stroke-width:.070248"/>
</svg>
