<?xml version="1.0" encoding="UTF-8"?>
<svg version="1.1" viewBox="0 0 192 192" xmlns="http://www.w3.org/2000/svg" xmlns:xlink="http://www.w3.org/1999/xlink">
 <defs>
  <linearGradient id="linearGradient2" x1="-789.76" x2="-1238.1" y1="292.43" y2="-158.31" gradientTransform="matrix(.17785 0 0 .17785 276.33 84.072)" gradientUnits="userSpaceOnUse">
   <stop style="stop-color:#9abeff" offset="0"/>
   <stop style="stop-color:#bd9aff" offset="1"/>
  </linearGradient>
 </defs>
 <circle class="a" cx="96" cy="96" r="88" style="fill:#56595b"/>
 <path d="m90.16 135.74c-8.5767-1.4688-15.847-5.1043-21.848-10.925-1.8231-1.7684-5.4698-6.1521-5.1177-6.1521 0.05093 0 0.59658 0.34847 1.2126 0.77438 3.0663 2.1199 6.5583 3.4822 10.813 4.2185 2.5379 0.43918 6.5028 0.47932 8.9203 0.0903 5.7452-0.92449 9.453-2.4042 19.181-7.6545 3.5777-1.931 6.029-3.0748 8.8038-4.1078 6.6177-2.4638 13.339-3.1636 18.757-1.9529 1.1214 0.2506 2.1099 0.52664 2.1967 0.61342 0.31545 0.31545-2.0406 5.0588-3.747 7.5437-0.35621 0.51872-0.55507 0.6583-0.83389 0.58525-3.5924-0.94121-6.1101-1.0664-9.5524-0.475-4.0592 0.69737-6.949 1.7635-14.024 5.1735-9.2757 4.4709-13.438 5.8261-18.941 6.1666l-1.9564 0.12106 1.3339 0.3178c3.5814 0.85321 6.6561 1.0318 10.067 0.58466 3.8864-0.50947 6.6913-1.2991 13.401-3.7725 4.3432-1.6011 6.517-2.2444 9.2573-2.7394 2.2548-0.40734 6.0916-0.53364 6.4142-0.21114 0.33965 0.33966-3.3238 3.4152-6.7778 5.6903-4.9543 3.2632-10.379 5.2909-16.555 6.1887-2.6764 0.38906-8.5179 0.34752-11.004-0.0782zm-18.23-17.875c-5.0548-0.79434-9.6041-2.999-11.91-5.7719-1.1702-1.4071-1.8612-3.1109-2.7748-6.8419-0.83845-3.4242-1.1255-5.9733-1.1133-9.8871 0.01157-3.7095 0.2437-5.7859 1.0477-9.3708 2.5096-11.19 10.537-21.2 21.029-26.223 3.3732-1.615 7.775-2.9672 11.507-3.5347 2.0551-0.31254 7.4483-0.42134 9.6041-0.19374 2.2634 0.23895 5.0376 0.70754 5.4245 0.91627 0.33423 0.1803 0.32935 0.18199-2.0453 0.70785-8.9956 1.992-17.137 7.8318-21.716 15.576-3.553 6.0096-4.9971 13.02-4.0807 19.81 1.058 7.8387 4.0681 12.627 9.0238 14.354 1.5749 0.5489 4.362 0.73426 6.3572 0.4228 4.6348-0.72352 9.644-3.7719 12.708-7.7334 1.2701-1.6422 1.764-2.4482 3.9352-6.421 3.994-7.3081 7.2433-11.325 12.741-15.75 2.5626-2.0629 7.4351-5.274 7.6606-5.0486 0.054 0.054-0.3791 1.5145-0.9625 3.2455-1.9462 5.7744-2.6365 9.2899-2.6303 13.395 5e-3 3.0812 0.39193 5.0937 1.3555 7.0439 1.4684 2.9717 4.6879 5.029 7.8702 5.029 0.51704 0 0.90805 0.0806 0.90805 0.18721 0 0.64536-1.181 5.1484-1.3503 5.1484-0.0496 0-0.34636-0.13261-0.65942-0.29469-0.31305-0.16207-1.3431-0.55802-2.2891-0.87987-4.2065-1.4312-9.4585-1.5073-15.888-0.23027-4.2728 0.84873-8.5548 2.422-14.851 5.4564-9.2369 4.4518-14.594 6.3436-19.737 6.9697-2.013 0.24505-7.3921 0.19757-9.1642-0.0809z" style="fill:url(#linearGradient2);stroke-width:.17785"/>
</svg>
