<?xml version="1.0" encoding="UTF-8"?>
<svg version="1.1" viewBox="0 0 192 192" xml:space="preserve" xmlns="http://www.w3.org/2000/svg">
	 <rect class="a" x="20" y="20" width="152" height="152" rx="10" fill="#56595b"/><g transform="translate(-178.86 -6.1539)" fill="#bd9aff"><text x="286.93073" y="118.86981" font-family="Now" font-size="42.075px" font-weight="bold" stroke-linecap="round" stroke-linejoin="round" stroke-width="7.8891" xml:space="preserve"><tspan x="286.93073" y="118.86981" stroke-width="7.8891">o</tspan></text><path transform="matrix(1.6842 0 0 1.6842 183.69 14.954)" d="m52.5 41.6c-2.4 0-4.3 0.9-5.5 2.8l-1.2 2-1.2-2c-1.2-1.9-3.1-2.8-5.5-2.8-2.1 0-3.8 0.8-5.1 2.2-1.2 1.4-1.9 3.4-1.9 5.9v12h4.7v-11.7c0-2.4 1.1-3.7 3.1-3.7 2.3 0 3.4 1.4 3.4 4.4v6.4h4.7v-6.4c0-2.9 1.1-4.4 3.4-4.4 2.1 0 3.1 1.2 3.1 3.7v11.7h4.7v-12c0-2.4-0.6-4.4-1.9-5.9-1.1-1.5-2.7-2.2-4.8-2.2z"/></g></svg>
