<?xml version="1.0" encoding="UTF-8"?>
<svg version="1.1" viewBox="0 0 192 192" xmlns="http://www.w3.org/2000/svg">
 <rect class="a" x="20" y="20" width="152" height="152" rx="10" style="fill:#54688c"/>
 <path d="m69.259 64.815c-8.1563 0-14.722 6.5656-14.722 14.722v28.243c0 8.1563 6.5656 14.723 14.722 14.723h15.123l8.7136 12.419c1.4689 1.4689 3.105 1.4689 4.9078 0l8.4757-12.419h16.263c8.1563 0 14.722-6.567 14.722-14.723v-28.243c0-8.1563-6.5656-14.722-14.722-14.722z" style="fill:#fff"/>
 <path d="m71.362 69.721c-5.9924-1e-6 -10.817 4.8246-10.817 10.817v26.542c0 5.9924 4.8246 10.816 10.817 10.816h16.626l7.6117 10.918 7.5578-10.918h17.08c5.9924 0 10.817-4.8231 10.817-10.816v-26.542c0-5.9924-4.8246-10.817-10.817-10.817z" style="fill:#54688c"/>
 <path d="m101.61 82.842h20.632" style="fill:#fff;stroke-linecap:round;stroke-linejoin:round;stroke-width:3.626;stroke:#9abeff"/>
 <path d="m101.61 93.759h20.632" style="fill:#fff;stroke-linecap:round;stroke-linejoin:round;stroke-width:3.626;stroke:#f8c18c"/>
 <path d="m101.61 105.08h20.632" style="fill:#fff;stroke-linecap:round;stroke-linejoin:round;stroke-width:3.626;stroke:#ff837d"/>
 <circle cx="79.825" cy="93.809" r="13.971" style="fill:#bd9aff"/>
</svg>
