<svg xmlns="http://www.w3.org/2000/svg" id="svg16" version="1.1" viewBox="0 0 192 192"><defs id="defs4"><style id="style2">.a{fill:none;stroke:#b1b5bd;stroke-linecap:round;stroke-linejoin:round;isolation:isolate;opacity:.63}</style></defs><path id="path2" d="M90.558 10.679a9.786 9.786 0 0 1 9.848.028l65.736 38.507A9.834 9.834 0 0 1 171 57.7v76.2a9.834 9.834 0 0 1-4.858 8.487l-65.736 38.507a9.783 9.783 0 0 1-9.848.027l-66.652-38.543A9.834 9.834 0 0 1 19 133.864V57.737a9.833 9.833 0 0 1 4.906-8.514z" style="clip-rule:evenodd;fill:#ececec;fill-rule:evenodd;stroke-width:.98179001"/><path id="path4" d="M170.05 53.664 94.51 95.309v86.806c2.02.198 4.087-.16 5.9-1.221l65.733-38.504a9.833 9.833 0 0 0 4.857-8.485v-76.21c0-1.426-.38-2.774-.95-4.031z" style="clip-rule:evenodd;fill:#d8d8d8;fill-rule:evenodd;stroke-width:.98179001"/><path id="path6" d="M95.486 9.363a9.783 9.783 0 0 0-4.928 1.317L23.906 49.223a9.816 9.816 0 0 0-4.172 4.789l.047.097 74.73 41.2 75.54-41.646.041-.054a9.801 9.801 0 0 0-3.949-4.397l-65.736-38.506a9.78 9.78 0 0 0-4.92-1.343Z" style="opacity:1;fill:#fff"/><path id="rect855" d="M95.486 9.363a9.783 9.783 0 0 0-4.927 1.317L76 19.098V96H52l42.5 48L136 96h-24V17.498l-11.594-6.791a9.782 9.782 0 0 0-4.92-1.344z" style="opacity:1;vector-effect:none;fill:#96dfd3;fill-opacity:1;fill-rule:evenodd;stroke:none;stroke-width:8;stroke-linejoin:round;stroke-miterlimit:4;stroke-dasharray:none;stroke-opacity:1;paint-order:stroke fill markers"/><path id="path4-7" d="m112 85.666-17.49 9.643v48.68L136 96h-24V85.666z" style="clip-rule:evenodd;fill:#73ada4;fill-rule:evenodd;stroke-width:.98179001"/><path id="rect855-9" d="M94.959 9.396a9.76 9.76 0 0 0-4.4 1.284L76 19.098v66.006l18.51 10.205V9.645l.449-.249z" style="opacity:1;vector-effect:none;fill:#e0f4e0;fill-opacity:1;fill-rule:evenodd;stroke:none;stroke-width:8;stroke-linejoin:round;stroke-miterlimit:4;stroke-dasharray:none;stroke-opacity:1;paint-order:stroke fill markers"/></svg>