<svg xmlns="http://www.w3.org/2000/svg" xml:space="preserve" style="fill-rule:evenodd;clip-rule:evenodd;stroke-linejoin:round;stroke-miterlimit:2" viewBox="0 0 192 192"><path d="M164.5 21.5c0-5.519-4.481-10-10-10h-133c-5.519 0-10 4.481-10 10v133c0 5.519 4.481 10 10 10h133c5.519 0 10-4.481 10-10v-133Z" style="fill:#54688c" transform="translate(8 8)"/><path d="M82.226 59.858c.473.362.825.871 1.021 1.464l22.926 69.267-20.754 1.232a4.427 4.427 0 0 1-1.495-2.141L61.502 61.935l20.724-2.077ZM131.186 59.855c.473.362.826.87 1.023 1.463l23.091 69.464a1.691 1.691 0 0 1-1.606 2.227h-14.175a7.522 7.522 0 0 1-7.138-5.15l-22.062-66.367 20.867-1.637Z" style="fill:#f8c18c" transform="matrix(.8132 0 0 .8132 17.872 17.91)"/><path d="m82.226 59.858-22.459 67.988a7.524 7.524 0 0 1-7.143 5.163H38.455a1.692 1.692 0 0 1-1.607-2.224l22.946-69.461a3.318 3.318 0 0 1 3.151-2.278h17.152c.806 0 1.562.291 2.129.812Z" style="fill:url(#a)" transform="matrix(.8132 0 0 .8132 17.872 17.91)"/><path d="m131.186 59.855-23.232 70.191a4.319 4.319 0 0 1-4.1 2.963H88.532l-1.51-.241-1.332-.679-.271-.268 23.334-70.499a3.318 3.318 0 0 1 3.15-2.276h17.157l1.031.164.91.463.185.182Z" style="fill:url(#b)" transform="matrix(.8132 0 0 .8132 17.872 17.91)"/><defs><linearGradient id="a" x1="0" x2="1" y1="0" y2="0" gradientTransform="scale(78.1294) rotate(-71.203 1.485 .437)" gradientUnits="userSpaceOnUse"><stop offset="0" style="stop-color:#f8c18c;stop-opacity:1"/><stop offset="1" style="stop-color:#f9de81;stop-opacity:1"/></linearGradient><linearGradient id="b" x1="0" x2="1" y1="0" y2="0" gradientTransform="scale(78.1294) rotate(-71.203 1.485 .437)" gradientUnits="userSpaceOnUse"><stop offset="0" style="stop-color:#f8c18c;stop-opacity:1"/><stop offset="1" style="stop-color:#f9de81;stop-opacity:1"/></linearGradient></defs></svg>