<?xml version="1.0" encoding="UTF-8"?>
<svg version="1.1" viewBox="0 0 192 192" xmlns="http://www.w3.org/2000/svg" xmlns:xlink="http://www.w3.org/1999/xlink">
 <defs>
  <linearGradient id="linearGradient2" x1="20" x2="172" y1="172" y2="20" gradientUnits="userSpaceOnUse">
   <stop style="stop-color:#728dbe" offset="0"/>
   <stop style="stop-color:#bd9aff" offset=".29303"/>
   <stop style="stop-color:#bd9aff" offset=".68939"/>
   <stop style="stop-color:#728dbe" offset="1"/>
  </linearGradient>
 </defs>
 <rect class="a" x="20" y="20" width="152" height="152" rx="10" style="fill:url(#linearGradient2)"/>
 <g transform="matrix(.0075065 0 0 -.0074604 64.976 157.8)" style="fill:#fff">
  <path d="m5783 5e3c-317-17-524-75-763-216-333-196-418-530-188-739 49-43 111-80 292-172 272-137 339-177 396-239 41-45 42-47 38-105-5-75-43-130-113-170-81-45-155-60-330-66-222-8-417 8-775 60-10 1-29-36-61-123-26-69-48-130-48-136-2-21 299-66 564-85 210-15 599-6 743 16 365 57 711 256 812 469 88 186 54 356-96 479-37 30-148 93-294 167-254 129-361 196-397 249-29 43-30 108-3 160 69 136 259 183 657 161 170-9 398-33 523-55l35-7 44 124c24 68 46 128 48 135 6 15-8 19-152 43-256 44-647 65-932 50z" style="fill:#fff"/>
  <path d="m365 4006c-198-549-362-1001-363-1006-2-6 146-10 391-10h394l193 531c228 625 243 655 427 829 130 123 273 182 443 184 99 1 151-19 182-68 16-26 18-43 14-101-4-60-37-161-234-700-126-346-232-640-236-652l-7-23h390c369 0 391 1 400 18 6 10 91 242 191 516 99 273 193 523 209 554 66 131 251 327 361 382 144 72 342 97 426 53 56-30 78-78 71-152-3-39-77-254-241-704-130-356-236-649-236-652s177-5 393-5h393l267 725c228 619 268 736 273 798 19 226-107 387-356 454-101 27-380 24-519-6-208-44-423-128-625-244l-79-45-28 58c-62 131-208 223-396 250-316 45-720-57-1099-279l-51-29-26 58c-49 105-180 202-319 235-35 8-103 17-153 21l-90 6z" style="fill:#fff"/>
  <path d="m7730 4989c-144-10-348-35-463-57l-89-17-50-139c-27-76-47-140-45-142s56 5 120 16c152 26 366 48 548 56l147 7 10 31c5 17 28 82 51 144l40 112-77-1c-42-1-129-6-192-10z" style="fill:#fff"/>
  <path d="m7615 4503c-219-17-323-28-454-49-85-13-156-26-158-28-6-6-513-1407-513-1418 0-4 177-8 393-8h392l270 746c149 411 272 751 273 755 3 8-113 10-203 2z" style="fill:#fff"/>
 </g>
 <g transform="matrix(.125 0 0 .125 33.451 81.009)">
  <path d="m785.15-94.162c-165.55-135.79-403.96-135.79-569.51 0-8.916 7.3245-10.207 20.49-2.8831 29.406 7.3236 8.9167 20.489 10.209 29.406 2.8859 150.14-123.12 366.33-123.12 516.47 0 8.9174 7.3228 22.083 6.0308 29.406-2.8859 7.3237-8.9167 6.0329-22.082-2.8831-29.406zm-83.746 93.379c-117.74-93.216-284.13-93.216-401.87 0-9.0384 7.166-10.557 20.302-3.3919 29.341 7.165 9.0391 20.301 10.559 29.341 3.3951 102.54-81.165 247.43-81.165 349.97 0 9.0394 7.1668 22.178 5.6473 29.342-3.3937 7.1668-9.0395 5.6473-22.178-3.3937-29.342zm-84.216 93.353c-69.593-50.577-163.84-50.577-233.43 0-9.3282 6.7907-11.385 19.858-4.5945 29.186 6.7907 9.3282 19.858 11.385 29.186 4.5946 54.923-39.943 129.33-39.943 184.25 0 9.3282 6.7907 22.395 4.7336 29.186-4.5946 6.7907-9.3282 4.7336-22.395-4.5946-29.186z" style="fill:#fff;stroke-width:2.6105"/>
 </g>
</svg>
