<?xml version="1.0" encoding="UTF-8"?><svg id="a" xmlns="http://www.w3.org/2000/svg" width="192" height="192" viewBox="0 0 192 192"><defs><style>.d{fill:#ff837d;}.d,.e{stroke-width:0px;}.e{fill:#fff;}</style></defs><g id="b"><g id="c"><rect class="d" x="20" y="20" width="152" height="152" rx="10" ry="10"/><path class="e" d="m65.43,30l-11.46,23.68-11.46-23.68h-12.51v35.79h8.77v-25.61l11.2,21.63h8l11.2-21.63v25.61h8.78V30h-12.53Z"/><path class="e" d="m121.89,30v7.13h15.66l-.04,28.65h8.77l.04-28.65h15.68v-7.13h-40.11Z"/><path class="e" d="m153.22,149.31c-.22,1.42-.79,2.61-1.72,3.48-.88.84-2.05,1.42-3.52,1.77-1.45.33-3.56.53-5.81.53s-4.38-.29-6.13-.89c-1.69-.57-3.03-1.57-3.96-2.97-.95-1.4-1.43-3.45-1.43-6.04v-3.67c0-2.61.48-4.63,1.43-6.04.94-1.4,2.27-2.39,3.96-2.97,1.74-.58,3.8-.89,6.13-.89s4.36.2,5.81.53c1.47.33,2.64.93,3.52,1.77.92.89,1.5,2.06,1.72,3.48h8.78c-.24-2.95-1.25-5.47-3.01-7.48-1.61-1.84-3.83-3.19-6.6-4.01-2.7-.8-6.22-1.22-10.21-1.22-4.2,0-7.85.6-10.86,1.79-3.04,1.2-5.39,3.21-7.02,5.96-1.56,2.64-2.37,6.16-2.42,10.49v.4l.48.02-.48.02v.4c.06,4.32.86,7.84,2.42,10.49,1.61,2.75,3.98,4.76,7.02,5.96,2.99,1.19,6.64,1.79,10.86,1.79s7.54-.42,10.21-1.22c2.77-.82,4.99-2.17,6.6-4.01,1.76-2.01,2.77-4.52,3.01-7.48l-8.78.02h0Z"/></g></g></svg>