<?xml version="1.0" encoding="UTF-8"?>
<svg version="1.1" viewBox="0 0 192 192" xml:space="preserve" xmlns="http://www.w3.org/2000/svg">
	 <circle class="a" cx="96" cy="96" r="88" fill="#fff"/><path d="m123.62 77.014c0-7.4459-6.6368-13.14-13.996-12.007l-21.26 3.2707c-5.9267 0.91176-10.301 6.0112-10.301 12.007v26.614c-1.3807-0.65572-2.9254-1.0229-4.5558-1.0229-5.8708 0-10.63 4.7592-10.63 10.63s4.7592 10.63 10.63 10.63c5.8708 0 10.63-4.7589 10.63-10.63v-36.222c0-2.9983 2.1874-5.548 5.1507-6.0039l21.26-3.2707c3.6795-0.56613 6.9979 2.2809 6.9979 6.0039v20.774c-1.3807-0.65572-2.9254-1.0229-4.5558-1.0229-5.8708 0-10.63 4.7592-10.63 10.63s4.7592 10.63 10.63 10.63c5.8708 0 10.63-4.7589 10.63-10.63zm-6.0743 30.381c0-2.516-2.0398-4.5558-4.5558-4.5558-2.516 0-4.5557 2.0398-4.5557 4.5558s2.0398 4.5558 4.5557 4.5558c2.516 0 4.5554-2.0398 4.5558-4.5558zm-39.483 9.1115c0-2.516-2.0398-4.5557-4.5558-4.5557-2.516 0-4.5557 2.0398-4.5557 4.5557 0 2.516 2.0398 4.5558 4.5557 4.5558 2.516 0 4.5554-2.0398 4.5558-4.5558z" fill="#56595b" fill-rule="evenodd" stroke-width="3.0372"/></svg>
