<?xml version="1.0" encoding="UTF-8"?>
<svg version="1.1" viewBox="0 0 192 192" xml:space="preserve" xmlns="http://www.w3.org/2000/svg">
	 <rect class="a" x="20" y="20" width="152" height="152" rx="10" fill="#bd9aff"/><path d="m102.08 75.462s-18.371 18.371-27.22 27.22c-0.74842 0.74842-4.7635 7.7708 1.7983 13.579 6.2343 5.5185 12.401 0.12399 12.401 0.12399l11.61-11.61c1.335-0.969 1.9459-0.0459 1.5907 0.91797 0 0-2.6388 3.7846-3.7452 5.701-0.62148 1.0764 1.1103 5.0519 5.8593 6.3244 7.5472 2.0223 11.285-2.8834 11.285-2.8834l9.9826-9.9209c0.77988-0.7215 2.3608-0.59185 1.6736 1.0543 0 0-3.0268 3.6852-3.9062 5.2085-0.78965 1.3677 4.0655 7.5027 8.7426 7.5027 10.346 0 10.851-8.433 10.851-8.433v-28.584c-0.34631-1.7186-1.0613-3.3231-2.4799-4.7118-5.4759 1.2688-11.203 5.5104-17.175 12.649l-0.29869-0.08563c1.3556 1.9033 2.0847 4.1816 2.086 6.5183 0 6.2109-5.0349 11.246-11.246 11.246s-11.246-5.0349-11.246-11.246c9e-3 -4.5389 2.7461-8.6272 6.9389-10.366l-0.12331-0.03562c-1.2839-3.7256-3.2217-7.2643-7.3787-10.169z" fill="#fff"/><path d="m114.17 84.886c2.9949-0.31702 4.7045 0.79401 6.2314 2.1081 3.0531-5.8012 7.9836-10.351 14.757-13.672-4.5896-0.57135-10.087 2.3826-16.989 10.789 0.0558-6.5637-4.3171-8.5251-8.3395-10.851 2.7828 3.8752 4.2029 7.7505 4.3403 11.626z" fill="#fff"/><path d="m74.681 74.567c-2.8244 0-5.0982 2.2738-5.0982 5.0982s2.2738 5.0982 5.0982 5.0982h16.888l9.8196-10.196z" fill="#fff"/><path d="m67.102 85.559c-2.8244 0-5.0982 2.2738-5.0982 5.0982s2.2738 5.0982 5.0982 5.0982h13.475l10.196-10.196z" fill="#fff"/><path d="m54.098 96.58c-2.8244 0-5.0982 2.2738-5.0982 5.0982 0 2.8244 2.2738 5.0982 5.0982 5.0982h18.165c0.41079-1.6354 0.7002-2.8702 1.4784-4.0952 1.5348-2.416 6.0723-6.0716 6.0723-6.0716l0.07125-0.02945z" fill="#fff"/><path d="m60.902 107.55c-2.8244 4e-3 -5.0982 2.2738-5.0982 5.0982s2.2737 5.0982 5.0982 5.0982h16.389l-1.875-1.2139c-2.5583-2.2238-3.7017-5.2102-3.3557-8.9968z" fill="#fff"/><circle cx="113.81" cy="96" r="10.39" fill="#fff"/><path transform="matrix(.35075 0 0 .35075 191.76 62.241)" d="m-196.5 96.25-15.336 7.5685-2.4592 16.924-11.937-12.246-16.855 2.8909 7.958-15.137-7.958-15.137 16.855 2.8909 11.937-12.246 2.4592 16.924z" fill="#bd9aff"/></svg>
