<svg xmlns="http://www.w3.org/2000/svg" xml:space="preserve" viewBox="0 0 192 192"><rect width="152" height="152" x="20" y="20" fill="#d3b69a" class="a" rx="10"/><path fill="#8e6f60" d="M87.537 59.102 61.733 76.673a18.908 18.908 117.87 0 0-8.266 15.628v33.151a10 10 45 0 0 10 10h65.106a9.959 9.959 134.88 0 0 9.96-10l-.137-33.15a18.947 18.947 61.94 0 0-8.32-15.61l-25.995-17.61a14.723 14.723 179.93 0 0-16.545.02z"/><text xml:space="preserve" x="73.693" y="129.724" fill="#d3b69a" stroke-linecap="round" stroke-linejoin="round" stroke-width="6" font-family="Now" font-size="37.333" font-weight="500"><tspan x="73.693" y="129.724">iO</tspan></text><path fill="none" stroke="#d3b69a" stroke-linecap="round" stroke-linejoin="round" stroke-width="7.137" d="M72.304 88.963A26.508 26.508 0 0 1 96 74.336a26.508 26.508 0 0 1 23.712 14.659"/><path fill="none" stroke="#d3b69a" stroke-linecap="round" stroke-linejoin="round" stroke-width="7.137" d="M82.186 92.161a15.448 12.215 0 0 1 13.809-6.74 15.448 12.215 0 0 1 13.818 6.755"/></svg>