<svg xmlns="http://www.w3.org/2000/svg" width="192" height="192"><path d="M8 108s0-92 88-92 88 92 88 92 0 68-88 68-88-68-88-68z" style="fill:#9abeff"/><ellipse cx="96" cy="150" rx="56" ry="18" style="fill:#728dbe;paint-order:stroke fill markers"/><path d="M60 40.1c-16.468 0-30 12.477-30 28s13.532 28 30 28 30-12.477 30-28-13.532-28-30-28zm72 0c-16.468 0-30 12.477-30 28s13.532 28 30 28 30-12.477 30-28-13.532-28-30-28zm-72 4c14.46 0 26 10.805 26 24s-11.54 24-26 24-26-10.805-26-24 11.54-24 26-24zm72 0c14.46 0 26 10.805 26 24s-11.54 24-26 24-26-10.805-26-24 11.54-24 26-24z" style="color-rendering:auto;color:#000;dominant-baseline:auto;fill:#728dbe;font-feature-settings:normal;font-variant-alternates:normal;font-variant-caps:normal;font-variant-ligatures:normal;font-variant-numeric:normal;font-variant-position:normal;image-rendering:auto;isolation:auto;mix-blend-mode:normal;paint-order:stroke fill markers;shape-padding:0;shape-rendering:auto;solid-color:#000;text-decoration-color:#000;text-decoration-line:none;text-decoration-style:solid;text-indent:0;text-orientation:mixed;text-transform:none;white-space:normal"/><ellipse cx="60" cy="70" rx="28" ry="26" style="fill:#fff;paint-order:stroke fill markers"/><circle cx="66" cy="70" r="14" style="fill:#56595b;paint-order:stroke fill markers"/><circle cx="64" cy="64" r="4" style="fill:#fff;paint-order:stroke fill markers"/><path d="M56.866 72.813c1.45-3.012 4.219 2.965 9.652 2.728 6.493-.283 7.012-8.256 9.233-5.456 2.767 3.488-1.44 9.467-9.233 9.653-6.484.154-11.37-3.357-9.652-6.925z" style="fill:#f8c18c"/><ellipse cx="-132" cy="70" rx="28" ry="26" style="fill:#fff;paint-order:stroke fill markers" transform="scale(-1 1)"/><circle cx="126" cy="70" r="14" style="fill:#56595b;paint-order:stroke fill markers"/><circle cx="124" cy="64" r="4" style="fill:#fff;paint-order:stroke fill markers"/><path d="M116.87 72.813c1.45-3.012 4.219 2.965 9.652 2.728 6.493-.283 7.012-8.256 9.233-5.456 2.768 3.488-1.44 9.467-9.232 9.653-6.485.154-11.371-3.357-9.653-6.925z" style="fill:#f8c18c"/><path d="M80 96s4-4 16-4 16 4 16 4 0 28-16 28-16-28-16-28z" style="fill:#ba6561"/><path d="M96 105.79c-7.398.096-11.746 2.429-14 4.207 2 7 6 14 14 14 8.027 0 12.024-7.047 14.018-14.07-2.25-1.842-6.603-4.233-14.018-4.137z" style="fill:#ff837d"/></svg>