<?xml version="1.0" encoding="UTF-8"?>
<svg version="1.1" viewBox="0 0 192 192" xmlns="http://www.w3.org/2000/svg">
 <rect class="a" x="20" y="20" width="152" height="152" rx="10" style="fill:#fff"/>
 <path d="m62.129 88.043c-2.3955 0-4.324 1.9285-4.324 4.324v11.867c5.5178 3.1945 11.077 5.4181 16.681 6.6605 0.0055-0.0899 0.01408-0.17889 0.01408-0.27025v-18.257c0-2.3955-1.9285-4.324-4.324-4.324z" style="fill:#ff837d;stroke-linecap:round;stroke-linejoin:round;stroke-width:4.8044"/>
 <path d="m81.827 80.236c-2.3955 0-4.324 1.9285-4.324 4.324v26.908c5.4012 0.85583 10.845 0.80255 16.335-0.16515v-26.743c0-2.3955-1.9285-4.324-4.324-4.324z" style="fill:#f9de81;stroke-linecap:round;stroke-linejoin:round;stroke-width:4.8044"/>
 <path d="m101.16 70.867c-2.3955 0-4.324 1.9285-4.324 4.324v35.313c0 0.059 0.0061 0.11613 0.0084 0.17454 5.2778-1.2481 10.599-3.3306 15.966-6.272v-29.215c0-2.3955-1.9285-4.324-4.324-4.324z" style="fill:#98dc9a;stroke-linecap:round;stroke-linejoin:round;stroke-width:4.8044"/>
 <path d="m54.562 109.18c29.78 18.31 63.356 9.7358 80.114-20.899" style="fill:none;stroke-linecap:round;stroke-linejoin:round;stroke-width:4.8044;stroke:#9abeff"/>
 <path d="m119.06 91.886 15.614-3.6033 2.7626 14.774" style="fill:none;stroke-linecap:round;stroke-linejoin:round;stroke-width:4.8044;stroke:#9abeff"/>
</svg>
