<?xml version="1.0" encoding="UTF-8"?><svg id="a" xmlns="http://www.w3.org/2000/svg" viewBox="0 0 192 192"><g id="b"><g id="c"><circle cx="96" cy="96" r="88" style="fill:#71a372; isolation:isolate;"/><g style="isolation:isolate;"><path d="M90.94,87.18h-10.61v33.61h-9.98v-33.61h-7.04v-8.4h7.04v-19.01c0-7.67,6.51-13.76,14.29-13.76,2.42,0,5.04.53,6.09,1.26v7.77h-4.94c-3.05,0-5.46,2.31-5.46,5.99v17.75h10.61v8.4Z" style="fill:#e0f4e0;"/><path d="M135.8,99.78c0,12.18-9.45,21.85-21.32,21.85-5.36,0-9.98-2-13.55-5.25v29.62h-9.98v-67.23h9.98v4.41c3.57-3.26,8.19-5.25,13.55-5.25,11.87,0,21.32,9.66,21.32,21.85ZM125.82,99.78c0-7.04-5.57-12.6-12.61-12.6s-12.6,5.57-12.6,12.6,5.57,12.6,12.6,12.6,12.61-5.57,12.61-12.6Z" style="fill:#e0f4e0;"/></g></g></g></svg>