<?xml version="1.0" encoding="UTF-8"?>
<svg id="Layer_1" data-name="Layer 1" xmlns="http://www.w3.org/2000/svg" viewBox="0 0 192 192">
  <defs>
    <style>
      .cls-1 {
        fill: #bc99ff;
        fill-rule: evenodd;
      }

      .cls-2 {
        fill: #8b72bc;
      }
    </style>
  </defs>
  <path id="rect979" class="cls-1" d="m184.69,42.08v107.84c0,5.57-4.54,10.08-10.14,10.08H17.44c-5.6,0-10.14-4.51-10.14-10.08V42.08c0-5.57,4.54-10.08,10.14-10.08h157.11c5.6,0,10.14,4.51,10.14,10.08Z"/>
  <g>
    <path class="cls-2" d="m38.72,79.68h6.89s4.16,1.3,2.21,6.11-8.19,2.73-9.1,1.82-1.04-4.55,0-7.93Z"/>
    <g>
      <path class="cls-2" d="m46.65,92.16l-1.56,18.98h-6.5s-2.6-1.28-2.73-3.17,1.17-13.99,1.17-13.99c0,0,.26-4.03,5.59-4.16s4.03,2.34,4.03,2.34Z"/>
      <path class="cls-2" d="m69.92,80.01l-7.28-.33-1.04,10.4s-3.58-.26-5.04.03c-1.67.34-8.74,2.9-8.8,11.28-.03,3.93,1.66,6.32,3.48,7.75,1.64,1.29,3.68,1.98,5.77,2.07l1.73.08s.09,0,.13,0c.31,0,.61-.05.9-.15,1.08-.35,2.26-.28,3.29.2l.03.02c.19.09.41.15.62.16l5.89.27s2.66-25.16,2.79-28.4c.13-3.26-2.47-3.38-2.47-3.38Zm-11.22,24.05c-1.95,0-3.54-1.59-3.54-3.54s1.59-3.53,3.54-3.53,3.53,1.58,3.53,3.53-1.58,3.54-3.53,3.54Z"/>
      <path class="cls-2" d="m104.5,89.26c-5.29-.09-10.4,5.28-10.4,5.28-6.93-7.62-14.65-4.42-17.25-2.68-2.6,1.73-5.62,4.13-5.46,10.66.17,6.53,5.2,9.96,10.84,9.79,5.63-.17,10.66-4.77,10.66-4.77,2.51,3.9,7.88,4.77,9.92,4.77s12.96-1.91,12.96-11.37-5.98-11.6-11.27-11.68Zm-18.89,14.12c-1.74.78-7.54,2.69-6.76-3.03,4.42-7.54,9.79.69,9.79.69,0,0-1.3,1.56-3.03,2.34Zm15.51.35c-1.3-.61-3.03-2.98-3.03-2.98,0,0,6.06-6.81,9.44-.74,0,5.98-5.11,4.34-6.41,3.73Z"/>
      <path class="cls-2" d="m126.86,111.8l.17-10.66c0-.48.12-.96.37-1.37.3-.49.85-.98,1.8-.98,1.91,0,2.34.52,2.43,1.13s0,8.67,0,8.67c0,0-.09,3.21,2.56,3.21,1.52,0,6.89,0,6.89,0,0,0,.65.26.65-3.06,0-2.33.13-5.5.21-7.16.07-1.52,1.29-2.76,2.8-2.78.02,0,.04,0,.07,0,2.25,0,2.04,1.88,2.04,2.16s0,7.98,0,7.98c0,0-.42,2.87,2.42,2.86,2.82,0,6.89,0,6.89,0v-13.07c0-2.7-1.06-5.34-3.05-7.17-1.39-1.28-3.36-2.3-6.09-2.31-7.28-.02-9.56,3.1-9.56,3.1,0,0-3.06-3.38-7.74-3.38s-9.3,3.97-10.4,5.98-1.89,3.84-2.15,6.7-.26,6.32-.26,6.32c0,0-.17,3.82,3.12,3.82s6.83,0,6.83,0Z"/>
    </g>
  </g>
</svg>