<?xml version="1.0" encoding="UTF-8" standalone="no"?>
<svg
   xml:space="preserve"
   viewBox="0 0 192 192"
   version="1.1"
   id="svg8"
   sodipodi:docname="my_link_manager.svg"
   inkscape:version="1.1.1 (3bf5ae0d25, 2021-09-20)"
   inkscape:export-filename="/home/jphilippe/github/android/resources/vectors/my_link_manager.png"
   inkscape:export-xdpi="96"
   inkscape:export-ydpi="96"
   xmlns:inkscape="http://www.inkscape.org/namespaces/inkscape"
   xmlns:sodipodi="http://sodipodi.sourceforge.net/DTD/sodipodi-0.dtd"
   xmlns="http://www.w3.org/2000/svg"
   xmlns:svg="http://www.w3.org/2000/svg"><defs
     id="defs12" /><sodipodi:namedview
     id="namedview10"
     pagecolor="#505050"
     bordercolor="#eeeeee"
     borderopacity="1"
     inkscape:pageshadow="0"
     inkscape:pageopacity="0"
     inkscape:pagecheckerboard="0"
     showgrid="false"
     inkscape:zoom="3.4739583"
     inkscape:cx="92.113943"
     inkscape:cy="96"
     inkscape:window-width="1884"
     inkscape:window-height="1055"
     inkscape:window-x="36"
     inkscape:window-y="0"
     inkscape:window-maximized="1"
     inkscape:current-layer="svg8" /><rect
     width="152"
     height="152"
     x="20"
     y="20"
     rx="10"
     style="fill:#9abeff;opacity:1;stroke:none;stroke-linecap:round;stroke-linejoin:round;isolation:isolate"
     id="rect2" /><path
     d="m 78.491763,58.7463 a 5.2710728,5.2710728 0 0 0 -5.282203,5.282998 v 48.298292 a 5.2710728,5.2710728 0 0 0 5.282203,5.2822 h 48.726017 a 5.2710728,5.2710728 0 0 0 5.28221,-5.2822 V 64.029298 A 5.2710728,5.2710728 0 0 0 127.21778,58.7463 Z m 27.807887,6.684642 11.39284,0.0016 7.35565,0.01908 v 29.411474 l -9.46249,-6.032715 -9.30031,6.032715 0.008,-29.424194 z"
     style="fill:#ffffff;stroke-width:0.00197425;stroke-opacity:0.14902"
     id="path4" /><path
     d="m 117.84195,125.57603 0.008,7.57667 -51.236734,0.10097 c -6.948594,0.0215 -7.09806,-8.16579 -7.09806,-8.16579 L 59.5,74.810749 h 7.590186 l 0.02147,50.754151 z"
     style="fill:#ffffff;stroke:none;stroke-width:0.00300485;stroke-opacity:0.14902"
     id="path6" /></svg>
