<?xml version="1.0" encoding="UTF-8"?>
<svg version="1.1" viewBox="0 0 192 192" xmlns="http://www.w3.org/2000/svg">
 <rect class="a" x="20" y="20" width="152" height="152" rx="10" style="fill:#98dc9a"/>
 <path d="m59.412 115.94c2.6524-13.219 7.1553-26.021 16.684-35.55 4.7171-4.7171 12.943-5.1809 19.168-5.2619 7.897-0.10276 16.066 0.72548 22.029 5.9036 9.7724 8.4859 13.846 36.275 13.846 36.275l-32.969 10.313-31.828-3.0802z" style="fill:#979797"/>
 <ellipse cx="112.24" cy="110.47" rx="11.124" ry="11.412" style="fill:#fff"/>
 <circle cx="110.67" cy="109.54" r="8.4624" style="fill:#98dc9a"/>
 <ellipse transform="scale(-1,1)" cx="-80.172" cy="110.47" rx="11.124" ry="11.412" style="fill:#fff"/>
 <circle transform="scale(-1,1)" cx="-81.744" cy="109.54" r="8.4624" style="fill:#98dc9a"/>
 <path d="m80.46 161.25-7.187 10.753h44.919l-9.1121-10.753s25.566-6.9293 28.235-26.951c0.80196-6.0161 2.9548-13.331-6.1746-16.986-8.3076-3.3259-17.354-1.5341-25.012 1.7831 0 0-7.6598 3.1055-11.679 3.0109-3.4017-0.0801-9.7538-3.0109-9.7538-3.0109s-17.88-7.3116-25.283-3.1495c-7.3339 4.1232-8.4407 11.423-7.3154 17.711 4.0804 22.8 28.363 27.593 28.363 27.593z" style="fill:#83868c;stroke-linecap:round;stroke-linejoin:round;stroke-width:.26972"/>
 <path d="m76.16 134.87c4.4491 4.9839 10.438 7.0587 17.968 6.2245l0.57753-2.8877 0.99865 2.8676c7.0587 0.32085 13.461-1.2847 19.151-4.7285" style="fill:none;stroke-linecap:round;stroke-linejoin:round;stroke-width:2.6972;stroke:#56595b"/>
 <path d="m83.315 120.11c2.5375-1.8627 7.2223 1.8839 11.134 1.9889 3.7808 0.1015 8.1015-2.8531 11.554-1.3083 1.2484 0.55865 2.5061 2.1103 2.2234 3.4485-1.1039 5.2249-13.386 8.8028-13.386 8.8028s-10.244-3.8987-12.206-8.4398c-0.60053-1.3903-0.54022-3.596 0.68062-4.4921z" style="fill:#ffd6d4"/>
 <ellipse cx="110.67" cy="109.54" rx="3.177" ry="5.1236" style="fill:#56595b"/>
 <ellipse transform="scale(-1,1)" cx="-81.744" cy="109.54" rx="3.177" ry="5.1236" style="fill:#56595b"/>
 <path d="m59.852 113.83s-8.343-7.2431-10.259-13.097c-1.4506-4.4329-0.47902-11.381-0.6417-16.043-0.04778-1.3696-1.1706-3.1469-0.19251-4.1069 0.93319-0.91595 2.617 0.41981 3.9144 0.25668 8.0724-1.015 23.466-0.64669 23.422-0.44919z" style="fill:#979797"/>
 <path d="m61.265 108.03s-1.3516 1.6583-2.2386 1.5077c-4.2983-0.72985-6.4108-6.3551-7.8287-10.478-1.6694-4.8537-0.32085-15.395-0.32085-15.395s7.3941 1.3836 10.396 3.4652c2.7121 1.8809 6.2245 7.7004 6.2245 7.7004z" style="fill:#ffd6d4"/>
 <path d="m129.24 115.42s11.746-8.1506 13.163-14.685c0.98814-4.5584 0.47902-11.381 0.64169-16.043 0.0478-1.3696 1.1706-3.1469 0.19252-4.1069-0.93318-0.91595-2.617 0.41981-3.9144 0.25668-8.0724-1.015-23.466-0.64669-23.422-0.44919z" style="fill:#979797"/>
 <path d="m130.73 108.03s1.3516 1.6583 2.2386 1.5077c4.2983-0.72985 6.4108-6.3551 7.8288-10.478 1.6694-4.8537 0.32085-15.395 0.32085-15.395s-7.3941 1.3836-10.396 3.4652c-2.7121 1.8809-6.2245 7.7004-6.2245 7.7004z" style="fill:#ffd6d4"/>
</svg>
