<?xml version="1.0" encoding="UTF-8"?>
<svg version="1.1" viewBox="0 0 192 192" xmlns="http://www.w3.org/2000/svg">
 <circle class="a" cx="96" cy="96" r="88" style="fill:#56595b"/>
 <g transform="translate(-1398.5,-641)" style="fill:#231f20">
  <path d="m1513.7 746.9-19.229-25.849-19.229 25.849c-6.4937-0.63045-17.653-4.8545-17.653-12.357 0-9.4568 16.392-18.283 36.944-18.283 21.624 0 36.944 8.8263 36.944 18.283 0 7.5654-11.222 11.789-17.653 12.294m-19.355-33.351c-26.605 0-45.14 10.402-45.14 23.831 0 6.3045 4.0349 13.366 12.609 17.653 8.0067 3.9718 19.229 5.3588 20.805 5.548l11.726-34.234 11.726 34.234c7.1725-0.80349 14.185-2.6734 20.805-5.548 8.5741-4.2871 12.609-11.348 12.609-17.653-0.063-13.492-18.535-23.831-45.14-23.831" style="fill:#fff;stroke-width:.063045"/>
 </g>
</svg>
