<?xml version="1.0" encoding="UTF-8" standalone="no"?>
<svg
   viewBox="0 0 192 192"
   version="1.1"
   id="svg3"
   sodipodi:docname="mylo.svg"
   inkscape:version="1.4.2 (ebf0e940d0, 2025-05-08)"
   xml:space="preserve"
   inkscape:export-filename="mylo.png"
   inkscape:export-xdpi="96"
   inkscape:export-ydpi="96"
   xmlns:inkscape="http://www.inkscape.org/namespaces/inkscape"
   xmlns:sodipodi="http://sodipodi.sourceforge.net/DTD/sodipodi-0.dtd"
   xmlns="http://www.w3.org/2000/svg"
   xmlns:svg="http://www.w3.org/2000/svg"><defs
     id="defs1" /><sodipodi:namedview
     id="namedview3"
     pagecolor="#505050"
     bordercolor="#ffffff"
     borderopacity="1"
     inkscape:showpageshadow="0"
     inkscape:pageopacity="0"
     inkscape:pagecheckerboard="1"
     inkscape:deskcolor="#505050"
     inkscape:zoom="1.9883063"
     inkscape:cx="106.37194"
     inkscape:cy="103.60577"
     inkscape:window-width="1504"
     inkscape:window-height="988"
     inkscape:window-x="0"
     inkscape:window-y="0"
     inkscape:window-maximized="0"
     inkscape:current-layer="svg3" /><rect
     class="a"
     x="8"
     y="32"
     width="176"
     height="128"
     rx="10"
     id="rect3"
     style="opacity:1;stroke:none;fill:#54688c;fill-opacity:1" /><g
     style="fill:#ff837d;fill-opacity:1"
     id="g1"
     transform="matrix(1.4877378,0,0,1.4877378,-471.92408,-44.988677)"><g
       id="g50"
       transform="rotate(-16.89638,354.18671,117.24861)"
       style="fill:#ff837d;fill-opacity:1"><path
         d="m 361.609,86.5718 4.325,1.3224 0.06,3.1415 0.024,0.0075 c 0.597,-0.8583 1.361,-1.4516 2.294,-1.7785 0.932,-0.3261 1.87,-0.3454 2.816,-0.0562 0.946,0.2892 1.667,0.7934 2.116,1.4962 0.449,0.7038 0.63,1.5994 0.542,2.6866 l 0.024,0.0074 c 0.687,-0.8673 1.489,-1.4537 2.406,-1.7575 0.917,-0.3041 1.864,-0.3073 2.841,-0.0085 0.737,0.2253 1.315,0.5978 1.733,1.1187 0.419,0.5209 0.664,1.1613 0.737,1.9236 0.072,0.7623 -0.035,1.6111 -0.322,2.5452 l -2.693,8.7658 -5.527,-1.69 2.208,-7.1864 c 0.128,-0.4172 0.136,-0.7711 0.024,-1.0613 -0.113,-0.2904 -0.328,-0.4844 -0.649,-0.5823 -0.24,-0.0734 -0.462,-0.0768 -0.666,-0.0124 -0.204,0.0657 -0.386,0.1972 -0.543,0.3963 -0.157,0.199 -0.284,0.4562 -0.382,0.7737 l -2.154,7.0124 -5.527,-1.69 2.208,-7.1872 c 0.129,-0.4171 0.136,-0.7711 0.024,-1.0612 -0.112,-0.2904 -0.328,-0.4844 -0.648,-0.5823 -0.353,-0.1078 -0.669,-0.063 -0.948,0.1343 -0.28,0.1982 -0.495,0.5389 -0.643,1.0232 l -2.155,7.0122 -5.526,-1.6894 z"
         fill="#1d1f3f"
         id="path6"
         style="fill:#ff837d;fill-opacity:1" /><path
         d="m 391.126,95.5964 -3.898,7.3846 1.317,-8.1737 -5.594,-1.7103 -1.529,13.78 3.227,0.986 -2.16,4.094 5.592,1.709 8.638,-16.3596 z"
         fill="#1d1f3f"
         id="path7"
         style="fill:#ff837d;fill-opacity:1" /><path
         d="m 400.065,117.379 -2.385,-0.729 c -3.663,-1.12 -4.739,-3.558 -3.659,-7.072 l 3.678,-11.972 5.367,1.6408 -3.783,12.3112 c -0.121,0.394 0.087,0.806 0.465,0.921 l 1.666,0.51 z"
         fill="#1d1f3f"
         id="path8"
         style="fill:#ff837d;fill-opacity:1" /><path
         d="m 403.343,112.994 c 0.883,0.88 2.022,1.533 3.418,1.96 1.396,0.427 2.705,0.522 3.932,0.287 1.225,-0.235 2.283,-0.778 3.172,-1.629 0.889,-0.851 1.542,-1.955 1.959,-3.312 0.417,-1.357 0.496,-2.636 0.238,-3.839 -0.259,-1.202 -0.83,-2.242 -1.713,-3.122 -0.882,-0.88 -2.022,-1.533 -3.418,-1.96 -1.395,-0.427 -2.706,-0.523 -3.932,-0.287 -1.225,0.235 -2.283,0.779 -3.172,1.629 -0.889,0.851 -1.542,1.955 -1.959,3.312 -0.417,1.357 -0.496,2.638 -0.237,3.839 0.257,1.202 0.828,2.242 1.712,3.122 z m 5.75,-2.399 c -0.311,0.095 -0.64,0.089 -0.988,-0.017 -0.347,-0.106 -0.624,-0.286 -0.827,-0.538 -0.205,-0.252 -0.322,-0.568 -0.354,-0.949 -0.031,-0.381 0.025,-0.808 0.17,-1.281 0.146,-0.473 0.339,-0.858 0.579,-1.155 0.239,-0.298 0.515,-0.494 0.825,-0.589 0.31,-0.095 0.64,-0.09 0.988,0.017 0.349,0.106 0.623,0.286 0.828,0.538 0.203,0.252 0.322,0.568 0.353,0.949 0.032,0.382 -0.025,0.807 -0.17,1.281 -0.145,0.473 -0.338,0.858 -0.578,1.155 -0.241,0.298 -0.516,0.494 -0.826,0.589 z"
         fill="#1d1f3f"
         id="path9"
         style="fill:#ff837d;fill-opacity:1" /></g></g></svg>
