<svg xmlns="http://www.w3.org/2000/svg" viewBox="0 0 176 127"><rect width="176" height="127" fill="#fff" rx="10"/><path fill="#56595b" fill-rule="evenodd" d="M75.32 63.05c5.48 2.3 9.31 5.61 12.62 13 3.44-7.39 7-11.08 12.74-13.38 4.71-1.78 9.55-3.44 14.27-5.22a.48.48 0 0 1 .12.38 36.93 36.93 0 0 1 .38 5.61c0 20.25-13.37 24.33-27.51 24.2-14 .13-27.39-4-27.39-24.2a23.87 23.87 0 0 1 .25-4.34 6.31 6.31 0 0 0 .25-.89c4.72 1.66 9.43 3.32 14.27 4.84Zm36.57-14c-.13-.13-.13-.38-.26-.51-5.09-7.52-14.14-9.17-23.69-9.17s-18.86 1.78-23.7 9.43a3.23 3.23 0 0 0-.51.89c8.41 4.81 17.84 4.81 24.21 17.06 5.86-12.61 15.54-12.74 24-17.71Zm6.88-4.33a6.24 6.24 0 0 1-.89-1c-7.39-8-19.62-9.68-29.94-9.68S65 35.66 57.74 44.2c-.12.13-.25.38-.38.51-3.69 4.33-5.86 10.44-5.86 18.73 0 25.48 20.77 29.55 36.44 29.55 15.92 0 36.56-4.07 36.56-29.55 0-8.29-2.17-14.4-5.73-18.73Z"/></svg>