<svg xmlns="http://www.w3.org/2000/svg" width="192" height="192"><style>.st0{fill:#fff}</style><path d="M146.2 19.5 19.5 144.2v18.305c0 5.54 4.46 10 10 10h133c5.54 0 10-4.46 10-10v-133c0-5.54-4.46-10-10-10z" style="fill:#56595b;stroke-width:4"/><path d="m123.9 19.5.102.5-104 104-.5-.75v20.945c3.524 1.65 9.978 4.19 17.03 4.086 26.662-.396 25.925-14.135 43.43-21 12.527-4.912 41.829-1.642 57.532-29.336 9.958-17.564-3.058-37.753-2.875-47.75.179-9.822 8.588-25.43 11.578-30.695z" style="fill:#73ada4;stroke-width:4"/><path d="m107.88 19.5.125.5-24 12-64 76-.5-.5v16.172c.845.246 9.82 2.84 14.727 2.46 26.716-2.06 23.849-11.913 39.406-14.96 9.527-1.866 27.593-2.324 39.117-18.406 9.661-13.482-.502-26.463-.57-39.695-.087-16.78 10.198-30.578 12.578-33.57z" style="fill:#f9de81;stroke-width:4"/><path d="m79.25 19.5.75.5-36 20-24 44-.5-1.5v25.227c.29.012 6.748.282 10.125.281 7.218-.002 52.533-7.97 56.953-33.367 1.317-7.566-2.358-17.266-1.148-23.008 3.275-15.554 19.394-29.73 22.227-32.133z" style="fill:#f8c18c;stroke-width:4"/><path d="M29.5 19.5c-5.54 0-10 4.46-10 10v48.828L20 84s18.273 4.86 34.273-11.141c4.714-4.714-.205-14.48 1.727-20.86 1.393-4.6 4-9.332 8-12 12-8 16-20 16-20l-9-.5z" style="fill:#ff837d;stroke-width:4"/><path d="M124 148s16-44 16-52c0-5.424-3.966-16-16-16s-16 10.575-16 16c0 8 16 52 16 52z" style="fill:#fff;stroke-linecap:round;stroke-linejoin:round;stroke-width:8;stroke:#fff"/><circle cx="124" cy="96" r="12" style="fill:#56595b;paint-order:stroke fill markers;stroke-width:4"/></svg>