<svg xmlns="http://www.w3.org/2000/svg" width="192" height="192"><path d="M136.542 165.104c-6.443-1.854-15.844-9.726-21.55-18.046-10.154-14.808-16.554-37.284-16.554-58.138 0-10.306-.4-11.232-4.859-11.232-6.884 0-15.523 7.025-29.111 23.673-15.346 18.801-18.455 21.555-26.32 23.311-9.96 2.224-18.142-4.444-18.132-14.777.006-6.052 2.145-10.503 7.996-16.637 9.23-9.677 26.022-18.905 41.935-23.044 5.877-1.529 9.684-1.943 18.193-1.978l10.76-.045 1.367-5.571c4.27-17.392 14.74-28.004 34.095-34.555 8.198-2.775 22.795-2.798 28.905-.047 8.264 3.722 10.816 8.731 6.952 13.643-3.592 4.567-17.597 9.843-40.812 15.374-18.257 4.35-23.536 6.947-23.536 11.581 0 1.98.716 2.754 4.607 4.98 6.641 3.8 19.09 14.618 24.865 21.608 9.945 12.038 17.177 24.613 20.562 35.75 2.21 7.272 2.092 20.993-.223 26.014-3.649 7.914-10.215 10.705-19.14 8.136z" style="fill:#9abeff;fill-opacity:1;stroke-width:.999998"/></svg>