<?xml version="1.0" encoding="UTF-8"?>
<svg id="Layer_1" data-name="Layer 1" xmlns="http://www.w3.org/2000/svg" viewBox="0 0 192 192">
  <defs>
    <style>
      .cls-1 {
        font-family: Now-Bold, Now;
        font-size: 20.58px;
        font-weight: 700;
      }

      .cls-1, .cls-2 {
        fill: #56595b;
      }

      .cls-3 {
        fill: #96dfd3;
      }
    </style>
  </defs>
  <path class="cls-3" d="M15.85,58.03c-3.17,7.65-1.57,16.15,4.33,29.64,7.19,16.43,16.01,29.4,24.85,40.56,0,0,21.77,27.51,43.45,39.52,6.34,3.51,12.7,5.01,12.7,5.01,4.68,1.1,8.43,1.23,9.49,1.23,10.41,.04,20.07-10.4,25.6-16.96,19.37-23,28.7-46.68,32.65-58,4.37-12.5,5.54-19.55,7.55-31.62,.8-4.78,3.54-22.23-2.79-32.87-.38-.63-.76-1.2-.76-1.2-1.21-1.8-5.53-7.7-16.57-11.51-13.58-4.69-30.4-3.82-32.86-3.68-11.53,.67-25.68,1.57-46.29,6.55-22.6,5.46-38.12,12.23-50.96,21.53-4.32,3.13-8.19,6.44-10.4,11.79Z"/>
  <g>
    <path class="cls-2" d="M122.83,67.14c-8.34,.17-17.48,.75-27.28,1.95-10.66,1.31-20.4,3.15-29.11,5.2-1.14,.27-1.69,1.58-1.06,2.58,4.5,7.23,9.8,14.98,16.02,22.99,6.33,8.15,12.63,15.31,18.62,21.55,.81,.84,2.2,.66,2.75-.37,2.88-5.38,5.74-11.11,8.51-17.2,5.54-12.15,9.85-23.74,13.23-34.46,.35-1.12-.49-2.26-1.67-2.24Zm-3.83,5.6c-1.63,5.19-3.56,10.68-5.85,16.38-3.11,7.76-6.43,14.79-9.74,21.08-.27,.52-.97,.62-1.38,.19-4.68-4.88-9.63-10.55-14.56-17.07-4.07-5.38-7.57-10.59-10.57-15.5-.3-.49-.04-1.14,.52-1.28,5.86-1.47,12.52-2.79,19.9-3.7,7.64-.94,14.66-1.26,20.86-1.23,.58,0,.98,.56,.81,1.11Z"/>
    <text class="cls-1" transform="translate(126.33 75.78)"><tspan x="0" y="0">2</tspan></text>
  </g>
</svg>