<?xml version="1.0" encoding="UTF-8"?>
<svg id="Layer_1" data-name="Layer 1" xmlns="http://www.w3.org/2000/svg" viewBox="0 0 192 192">
  <defs>
    <style>
      .cls-1 {
        fill: #fff;
      }

      .cls-2 {
        fill: #c39a54;
      }

      .cls-3 {
        fill: #98dc9a;
        isolation: isolate;
      }
    </style>
  </defs>
  <path class="cls-3" d="m30,20h132c5.5,0,10,4.5,10,10v132c0,5.5-4.5,10-10,10H30c-5.5,0-10-4.5-10-10V30c0-5.5,4.5-10,10-10Z"/>
  <g>
    <path class="cls-1" d="m133.18,105.63c-2.82-.34-18.88-1.67-22.49-1.96-.3-.02-.43-.39-.22-.6,2-2.05,9.98-9.18,24.13-9.1.13,0,.25-.07.32-.18l3.16-5.54c.14-.24-.03-.54-.31-.55l-22.68-.27c-.29,0-.47-.33-.3-.57,1.98-2.82,10.87-15.33,13.09-15.33s2.07,4.98,1.91,7.04c-.03.34.39.53.62.27.81-.9,2.11-3.03,2.76-7.82.58-4.24-1.09-5.27-2.59-5.4-1.05-.09-2.08.3-2.88.98-1.97,1.66-6.79,5.93-8.01,8.98-1.54,3.85-11.94,8.77-11.94,8.77,0,0-4.74,2.36-5.09,6.49-.02.19.13.36.33.38l14.5,1.31c.34.03.46.48.17.66-2.44,1.58-9.18,6.1-11.3,9.23-2.51,3.71-7.29-5.51-7.64-6.19-.01-.03-.02-.05-.02-.08-.04-.47-.47-4.7-3.66-4.97-3.27-.28-9.16,9.93-9.52,10.56-.01.02-.02.04-.02.06-.11.5-1.3,6.21.11,9.87.23.59-.05,1.26-.6,1.57-3.11,1.72-12.05,6.82-14.82,10.29-3.37,4.24-12.13,4.82-12.13,4.82,0,0-6.65,1.15-2.99-8.67,3.48-9.34,11.65-13.46,15.1-20.89.15-.33-.22-.66-.53-.46-1.85,1.23-5.58,3.27-6.38.25-.85-3.26,9.42-19.91,9.73-20.4-.34.32-11.19,10.7-12.8,18.81-1.02,5.15-.2,7,.55,7.67.5.44.8,1.08.72,1.74v.12c-.08.52-.3,1.01-.66,1.39-2.19,2.34-10.18,11.59-9.76,21.49.36,8.43,9.67,5.4,14.57,3.21,1.69-.76,3.25-1.77,4.64-3,3.37-3,11.14-9.56,17.06-11.78,5.12-1.92,8.42,3.24,9.37,4.97.13.24.48.25.62.01,1.13-1.88,4.16-8.31-4.74-11.41-10.17-3.55-.64-13.18-.03-13.78.02-.02.04-.03.07-.05.32-.13,2.45-.95,3.43.92,1.04,1.98,1.06,8.23,6.78,9.83.19.05.31.24.26.43-.65,2.51-4.47,18.18.67,22.88,13.97,12.77,25.42,1.93,25.43,1.92,0,0,0,0,0,0,.01,0,10.79-8,11.76-15.7.96-7.7-4.53-11.85-7.71-12.23Zm5.21,13.2c-1.9,5.23-7.61,8.95-11.09,10.8-1.94,1.03-4.06,1.64-6.26,1.77-3.58.2-9.24-.18-13.68-3.71-6.47-5.14-2.33-16-1.63-17.69.06-.14.19-.22.34-.22h15.39c1.25,0,2.49.08,3.73.25,4.77.65,15.37,2.79,13.19,8.81Z"/>
    <polygon class="cls-2" points="110.35 65.61 106.59 70.18 110.35 74.23 113.82 69.03 110.35 65.61"/>
    <polygon class="cls-2" points="95.93 75.83 92.17 80.41 95.93 84.46 99.39 79.26 95.93 75.83"/>
    <polygon class="cls-2" points="88.7 76.6 84.95 81.17 88.7 85.22 92.17 80.02 88.7 76.6"/>
    <polygon class="cls-2" points="129.22 50.79 125.47 55.37 129.22 59.42 132.69 54.21 129.22 50.79"/>
    <path class="cls-2" d="m112.47,118.47s3.15-5.97,5.61-4.46c2.3,1.41-1.13,5.56-1.13,5.56,0,0-1.75,3.3-.37,3.91,2.63,1.16,8.22-6.1,8.22-6.1,0,0-6.42,11.25-9.5,9.57-2.83-1.54-.51-6.49-.51-6.49,0,0,2.82-3.79,1.47-4.37s-3.79,2.38-3.79,2.38Z"/>
    <path class="cls-2" d="m93.02,125.5c-.4-.92-1.5-1.31-2.42-.89-1.17.53-3.16,1.65-4.33,3.56s-4.35,3.07-6.12,3.55c-.92.25-1.8.64-2.59,1.18-2.59,1.77-8.15,5.8-8.89,8.3,0,0,9.38-7.32,14-8.03,4.62-.71,4.88-4.43,4.88-4.43,0,0,1.09,3.03,3.69,2.72.22-.03.43-.1.63-.2.65-.34,1.83-1.31,1.59-3.81-.08-.86-.25-1.5-.45-1.96Z"/>
    <path class="cls-2" d="m97.7,59.14s.51-4.24,4.3-4.5,5.59.45,5.59.45c0,0-.64,7.83-9.18,8.35,0,0,6.36-3.15,6.94-5.84,0,0-4.43-1.67-7.64,1.54Z"/>
    <path class="cls-2" d="m84.95,56.38s-1.12-1.4-2.34-1.79c-.98-.32-1.84,5.13-2.13,7.29-.1.71,0,1.44.36,2.07.26.46.64.95,1.2,1.3.39.24.63.56.79.9.43.92.16,2.02-.57,2.71-.84.8-2.3,1.82-4.27,1.78-3.21-.06-2.31,6.49-2.31,6.49,0,0,3.92,10.66,3.15,19.07s-11.05,15.99-11.05,15.99c0,0,8.43-9.12,9.76-14.58s-2.05-16.18-2.05-16.18c0,0-3.31-8.95-.32-12.52,0,0,2.51-.95,3.6-2.18,1.5-1.7-4.24-.19-4.24-.19,0,0-.04-2.24,2.52-4.17s-3.23-5.59-3.23-5.59l.26-3.85s3.72,1.35,4.16,4.57c0,0,.2,2.57,1.36,2.56.88,0,1.13-3.88,1.2-5.75.03-.86.32-1.71.89-2.36.8-.9,2.04-1.42,3.26,1.63,2.03,5.07,0,2.83,0,2.83Z"/>
  </g>
</svg>