<?xml version="1.0" encoding="UTF-8"?><svg id="a" xmlns="http://www.w3.org/2000/svg" width="192" height="192" xmlns:xlink="http://www.w3.org/1999/xlink" viewBox="0 0 192 192"><defs><clipPath id="d"><path d="m96.99,183.83c-.64.23-1.35.23-1.99,0-8.54-2.99-69.41-26.75-69.41-94.41V28.27c0-1.62,1.1-3.03,2.67-3.42L95.15,8.11c.56-.14,1.15-.14,1.71,0l66.88,16.75c1.57.39,2.67,1.8,2.67,3.42v61.14c0,68.33-60.86,91.49-69.41,94.42h0Z" style="fill:none;"/></clipPath></defs><g id="b"><g id="c"><g style="clip-path:url(#d);"><path d="m96.99,183.83c-.64.23-1.35.23-1.99,0-8.54-2.99-69.41-26.75-69.41-94.41V28.27c0-1.62,1.1-3.03,2.67-3.42L95.15,8.11c.56-.14,1.15-.14,1.71,0l66.88,16.75c1.57.39,2.67,1.8,2.67,3.42v61.14c0,68.33-60.86,91.49-69.41,94.42h0Z" style="fill:#d3b69a;"/><polygon points="24.44 111.44 82.44 93 97.89 84.89 110.33 84.89 137.11 86.11 167.22 109.78 156.67 147.78 73.89 137.89 34.67 138.89 24.44 111.44" style="fill:#8e6f60;"/><path d="m38.28,111.27c-1.6,1.51-5.19.78-7.25.92-2.94.38-8.83,1.25-12.43,1.04,1.34-.87,5.77-2.52,6.1-2.65,2.71-1.92,6.54-3.16,9.32-3.22.81-.16.2,1.08,1.04,1.15.82-.08,1.99.31,2.42,1.73.15.33,1.34.42.81,1.04Z" style="fill:#fff;"/><path d="m98.84,87.47c-.83.35-2.6,2.13-3.42,2.72-.83.47.12.71-.71,1.65-1.06,1.18-2.36,1.89-2.48,2.24-.12.47-.24.83-2.48,1.42-1.77.47-3.78,1.06-3.78.35,0-.35.71-2.36,2.48-3.07,4.92-2.21,8.53-6.4,12.64-6.61.35,0-1.65.94-2.24,1.3Zm8.27,0c-1.14.87-3.44,3.57-4.84,2.13.6-1.12,4.51-2.61,5.67-3.31.12,0-.47.71-.83,1.18Zm-4.96,4.25c-.64.17-1.05,1.77-1.77.94-.55-.41,2.47-1.74,1.77-.94Zm28.7-2.72c.83,0,2.13,1.89,3.19,3.07,1.18,1.42,5.67,4.96,5.08,4.72-2.48-1.18-4.02-1.54-4.84-3.19-.47-.94-4.49-4.61-3.42-4.61Zm4.25-.83c1.08-.5,2.21,3.91,3.07,3.66.35-.35.59-1.18,1.06-.83,1.14,1.18,2.81,4.19,3.54,5.67,1.44.76,2.63,2.21,2.13,3.42.23-.5-2.35-2.62-2.36-3.07-.5-.86-1.99-2.97-2.72-3.42-.35,0,.94,1.18.83,1.54-.12.35-.47.59-.83.12-1.7-1.88-4.47-4.63-4.72-7.09Zm14.88,9.92c.71.24.35.59,1.06,1.3.71.71,1.65.83,1.42,1.3-.38.94-4.14-3.5-2.48-2.6Zm-25.86-11.46c1.61-.32,1.82,1.2,2.48,2.01,1.58,1.26-.03,1.28-1.18,1.18-.84.21-2.22-.26-1.89-1.3,0-.35.47-.12.47-.47.03-.18-.69-1.69.12-1.42Zm-15.59,2.95c-.47.35-1.18,1.42-1.65,1.77-.7.33-.67,1.76-1.54,1.3-1.81-1.71,7.18-7.1,3.19-3.07Zm62.47,21.38c-1.15-1.64-4.9-3.47-5.67-4.96-.12-.71-1.89-1.54-2.13-2.36-3.58-3.49-8.73-8.31-13.94-10.51-2.77-3.08-6.5-4.35-9.21-6.38-2.71-2.09-3.69-4.23-7.44-4.25.12-1.3-.71-1.18-.71-2.01-.12-1.65-2.01-1.77-2.48-2.95-.12-.24-2.72-2.01-3.78-3.07-.83-.71-1.06-.24-2.6-.59-1.41.16-3.79,2.86-5.31,3.54-.59.35-2.36,0-2.72.24-1.77,1.42-2.6,1.06-3.19,2.13-.35.71-1.18.47-2.01,1.42-.24.24-.94.71-1.42.83-.59.24-.83,1.06-2.01,1.3-3.9.01-5.87.32-10.04.35-4.27.32-8.87,4.11-13.82,5.9-.31,3.34-3.77,1.68-2.01,3.78.24.24.47.94,0,1.3-.59.35-.83,1.06-1.06,1.42-1.42,1.01-1.26,1.44-.71,2.95.16,1.31-.75,1.8-.35,2.36,1.23.13,4.59-2.02,5.67-2.48.47-.12,1.18.35,2.24.12.35-.12.83.59,1.54,0,1.12-1.37,2.57.42,3.07-1.3,1.54-1.77,5.7-3.01,7.32-4.84.24-.24,3.07-1.89.59.24-.24.24-.24.71-.24,1.06.12,1.09-1.57,2.16-2.13,2.95-1.06,1.54,3.78-1.42,4.37-2.01-.08-.15,4.24-2.97,3.07-1.77-.35.35.24.35-.59,1.3-.35.47,0,.83-.47,1.3-.12.24-1.42,1.54-.24,2.24.59.35,2.48-1.06,1.54.35-1.42,2.24-3.66,4.84-3.9,5.79.14,1.8,5.9-5.18,6.73-5.55.59-.47,0-.71.47-1.54,1.24-1.39,2.66-7.05,5.79-7.44,1.74-1.07,5.9-4.05,6.5-4.13.67,1.45-.67,5.27.12,7.2.94,1.42,1.89,1.77,1.89,2.72-1.46,4.33,2.29,6.11,4.02,7.91.24.47,1.65,1.3,1.89,1.3,0,0,.47-1.18,0-1.89-.88-.89-2.64-6.26-2.95-6.26.82,1.45,6.03,6.83,4.84,2.83,0-.59-.83-.83-.71-2.01,0-.59-.24-1.3-.47-1.42-.71-.24,0-1.3-1.3-2.6-.24-.35.35-.59.24-.94-.24-.47.47-.35.83-.59.47-.35,1.06-1.18,1.3-.59.47.94,1.06.83,1.89.83.87,1.3,1.5,2.69,3.54,3.66,1.42.95,1.89,1.77,4.37,5.67,1.89,2.83,9.57,5.31,9.68,4.72,0,0-.59-1.65-.59-2.13-.46-3.02-3.26-3.24,1.54-2.13,2.98,1.24,11.53,6.28,13.11,7.56,4.79.16,4.78,2.35,8.03,1.42Z" style="fill:#fff;"/><path d="m158.68,133.87c1.45-.92,0-2.31,1.39-3.84-.35-.12-.35-.58-.35-.81-.58-.12-.81-.35-.58-.93-.7.12-1.16,0-.93-.7-.58.12-.7-.47-.7-.47,0,0,0,.93-.81.81.35.47,0,.93-.7.7.12.35.35.58-.58.58.7.23.81.58.35.7.81.35.47,1.4-.7.7-.12.35-1.63.7-.81-.47-1.86.23-1.98-.35-1.16-1.16-.35-.12-1.51.47-1.51-.35-.81.35-.93-1.05.23-1.05-.23,0-1.16-.12-.7-.7-.81.12-.93-.12-.81-.58-.7.12-1.05-.7.35-.81-.35-.12-.7-.35-.35-.58-.47,0-.81-.35-.7-.7-.23-.12-.7-.35-.23-.93-.23,0-.58,0-.7-.81,0,.35,0,1.05-.7.93.7.93,0,1.28-1.28,1.05,1.05.35.58,1.28.12,1.4,1.16.47.35,1.51-.93,1.16.35.35-.23.58-.93.58,2.09,1.38-1.92,1.58-.93.35-.35-.12-.58-.23-.23-.58-.35,0-.7-.12-.23-.58-.35-.12-1.28-1.05-.12-.81-.23-.12-.7-.35-.35-.58-.35-.23-.47-.81-.58-1.51-.23.58-.12.93-.47,1.05.23.35-.12.58-.58.58.23.23.7,1.28-.93,1.4.47.23,1.05,1.05-.23,1.4,2.51.55-1.97,2.57-.58.23-.81-.12-1.16-.93-.23-1.63-.58-.23-1.28-.7-.7-.81-.58-.23-.58-.81.12-1.05-.58-.23-1.74-.7-.35-1.16-.23-.12-1.28-.23-.47-.58-1.28-.35-1.16-1.4-1.16-1.4,0,0-.12.93-.93.7.81.7-.7.81-.7.81,0,0,1.05,1.4-.47,1.4,1.16.23-.47.81-.23.81,1.74.47.23.93-.93.93.58.12.81,1.4-.35,1.51,2.44,2.31-3.17,2.33-.7-.35,0,0-1.4-.58-.58-1.28-.35,0-2.09-1.05-.7-1.4-.47-.23-.93-.93-.58-1.16-.58.12-1.4-.7-.7-1.51-.58-.35-.47-1.05-.7-1.86,0,.7-.12,1.74-.93,1.74.47.35.7,1.51-.35,1.63.47.12.58,1.28-.81,1.51,2.5,1.33-2.46,2.46-.93.23-.7-.12-.81-.7-.12-.81-.35-.35-1.63-.93-.12-1.16-.7-.23-1.63-1.16-.81-1.28-.35-.23-.23-.81.7-.81-.47-.12-1.74-.93-1.05-1.28-1.05-.23-1.16-1.86-1.16-1.86,0,0-.12,2.44-1.28,2.33.47.12.93,1.4-.58,1.16.12.47.12,1.16-.35,1.4.81.47.23,1.16-.58,1.28.81.35.12,1.4-.93,1.74-.7-.23,1.98.81-.35.93.35.12.58.47-.35.7.81.47,0,1.4-.58,1.28.47.35.93,1.05-.47.58.23.35,0,.58-.47.7.7.35,1.74,1.05-.35,1.51.35.23.81,1.4-.81,1.16.81.47-.12.7-.58.7.47.35,1.98,1.74-1.05,1.28,3.89,2.96-2.98.78-10.46.47-9.53-.81-9.42-.93-10.23-1.4-.93-.47,0-1.05,1.05-1.28-1.74.12-1.28-.7-.81-.81-1.51-.35-3.02-.81.12-1.28-.35-.23-1.28-1.16-.81-1.4-2.67.12-2.67-.81-1.98-.93-.47-.23.81-.47,1.98-.58-.7-.35-2.56-.23-1.4-.7-1.28.23-3.02-1.16.23-1.4-.58-.35-1.16-.58-.47-.81-1.86,0-1.86-.93-.81-1.4-.7-.23-.81-.7-.47-.81-1.98-.58-1.63-1.16-.12-1.16-1.16-.23-1.74-1.05-1.16-1.05-.47-.47-.12-.93.35-1.16-1.05-.7-1.05-1.16-.23-1.51-.93.12-1.51-.35-.93-.7-1.16-.12-1.4-1.05,0-1.05-.47-.12-1.51,0-1.28-.58-.7-.12-.81-1.4,0-1.63-.93-.12-1.51-1.86-1.51-1.86,0,0,0,1.98-.93,1.86.35,0,.7.58.23.7.93.93.35,1.16-.58.7.35.47-.35.93-.58.93.58.23,1.63,1.86-.35,1.51.58.47-.35.7-1.28.7.35.12,3.95,1.4,0,1.63.35.23.81,1.28,0,1.63.35.23.7.58.23.81.35.7-1.05.58-1.28.35.23.7,0,.7-.35.7.58.35-.12.93-.58,1.05.7-.12,1.28.23.7.47.81.81-1.28.58-1.51.7.7.35,1.16,1.05-.58,1.28,2.33.23,1.28,1.05.47.81.58.47-.12.93-.7,1.05.35-.12,1.16,1.4-.12,1.74.7.23.35.81-.7.93.47.81-1.16.7-.7.23-.7-.23-1.16-.93-.47-1.16-1.16-.12-1.74-1.4,0-1.4-.58-.35-1.4-.58-.47-.93-2.09-.12-1.51-.81-1.05-1.16-.47-.23-.12-.47.12-.7-.58,0-.93-.35-.35-.81-.93-.12-1.51-.35-1.4-.7-1.28.35-1.05-.35-.58-.47-.23-.47.7-.47,1.05-.23-.35-.23-.81-1.05,0-.93-1.98-.58-1.86-1.4-1.05-1.86-.47.12-1.4-.58-.93-.81-.58-.12-1.05-.7-.58-1.05-.47,0-.58-.58-.93-1.4.12.35.23,1.86-.35,1.86.35.35-.12,1.63-1.05,1.63.47.12.23.47.12.7,1.4,0,.93.81.12.81.23.35-.47.47-1.16.35.7.58,0,.81-.23.93.47.23.58.81-.35.7.23.35-.12.47-.58.47.7.35-.12.47-.81.47.81.23.7,1.05.23,1.16.7-.12,1.05.7.58.81,1.05.58-1.05.81-1.51.7,1.86.58,1.86,1.28.58,1.4.35.23-.47.35-1.05.23,2.14.68-1.07,1.7-1.63,1.28-.58-.47-.35-1.16.93-1.28-1.28-.23-2.33-.47-1.4-.81-.35-.12-.23-.35.58-.47-.58-.23-1.86-.23-1.4-.58-1.28-.12-.93-.93,0-1.05-1.05,0-1.16-.35-.81-.7-.58.12-.47-.93-.47-1.51,0,.23-.23,1.16-.81,1.28.81.7.12,1.28-.35.93.23.35-.58.7-.93.58,1.05.12,1.28.35.58.47,1.05.47.35,1.05-.47.47.23.35-.23.58-.7.47.23.35.47.93-.23.81.35.47,0,.81-.81,1.05.58,0,.58.58-.35.81,1.4.12,1.28.93.47.93.58.58-.81.81-.7.81l-.93.23c-2.09-4.1-1.46-17.47-1.74-20.46,0-.7-.12-3.6,0-4.07.12-.58,3.26-.81,3.26,0,.47,1.5,2.22,1.74,2.79,3.72,1.91,1.87,5.3.32,7.91-.81.13-1.65,1.27-1.14,2.09-2.09.23-.47,0-.58,0-.93.22-.39,1-1.17,1.16-1.51.22-.73,1.27-.19,1.86-.47-.19-1.6,1.04-1.34,2.67-1.4,1.31-.02.43-1.88,1.4-2.21,1.73.16.48-.56,1.74-1.86.35-.58-.12-.47-.12-.93.12-.35.58-.93.47-1.98-.69-1.33-.83-2.03.58-2.91.27-.67,1.85-1.87,1.05-2.79-.12-.23-.7-.47-.46-.93,1.52-.48,3.04-1.94,2.32-3.72-1.82-1.44-3.11.18-5.46,0-1.86-.25-2.74.05-3.72-.58-.46-.74,1.94-2.03,1.51-3.14-.12-.81.7-.81.58-1.63-.12-1.4.81-1.28.7-1.74-.28-.95-2.72-1.6-2.79-2.33.34-1.44-1.19-1.64-3.14-2.44-2.96-1.11-8.09-1.21-6.51-3.95-.16-.74-2.22-.61-1.74-1.86.12-.46.7-.35,1.16-.35s-.12-1.05.23-1.28.7-.23,1.16-.7c2.05-.77,3.74,2.54,5.12-.93,1.24-2.11-1.89-.57-1.63-1.63.12-.7,1.4-.81,1.74-1.16s.35-.93,1.4-.81c1.95.56,3.75.76,3.84-1.63-.03-1.03,1.48-1.62.81-2.56-.44-.81.17-1.45-.7-2.21-.68-1.07-2.22-.83-3.49-1.39-.55-1.33-2.28-.34-3.6-.47-1.98-.09-2.05-.48-1.86-1.63-.47-.23-.81-.58-.93-1.16-.12-.58.12-1.28.12-1.74-.21-.67-1.58-1.77-.23-2.33.7,0,.46-.81.58-1.28.65-1.01,2.09-1.16,3.49-1.86,1.4-.7,0-.93.58-2.09.35-.81-.7-.47-1.05-.7-.59-1.25.5-2.32-1.51-2.67-.75-.94,1.74-1.35,1.4-2.67,0-.7.81-.58.81-1.16-.23-1.4-.58-1.63-.93-1.86-.75-1.38,1.46-.66-.23-2.56,1.23-1.62-.61-.53-.93-2.21,1.27-2.2,3.14-4.84-1.98-4.19-2.09.23-1.16,1.28-1.63,1.51-1.8.73-1.18,3.25-2.56,3.84-3.18.74-1.31-2.55-2.79-3.26-1.67-.8.07-2.21-2.67-2.21-.98-2.36,2.53-4.98,1.28-7.44.69-4.99-5.4-5.28-2.21-6.39.93-.23.35-.7.7-1.4.58-.93-.47-.7-.93-.81-.86-.42-2.34-1.86-3.37-1.86-1.58-.09-2.18,1.68-3.49,1.86-3.26.24-3.95,2.1-6.74,2.56-.93.12-.7,1.05-1.16,1.51-.47.58.23.58.23,1.16s-.23,1.4-.7,1.63c-.93.47.12,1.16-1.05,1.98-.58.35,0,1.28-.58,1.86-.58.83.71,1.38-.35,2.44-.15,2.46,2.69,1.05,4.3.58,1.44-.58,1.28,1.24,1.05,1.98.29,2.24-3.9.47-3.72,1.98.85,1.53,4.87-.74,3.02,3.02-.7,2.19,3.25,3.08,4.07,1.98,0-.47,0-1.28.93-1.4.58.12.47.81.47,1.28s.47,0,.81.47c.23.47,0,.58.47,1.4.07,1.28.26,7.45-.93,7.67-1.06-.21-.49-1.71-.7-3.02-.68-1.06-.98-1.43-1.39-2.91-.12-.46-1.16-.35-1.63-.35-1.2-.44-3.37-.74-3.49.93,0,.93-.35.7-.46,1.16,0,.47.7.12.7.58s0,.93-.7,1.16c-1.26-.1-2.72-.07-3.95-.7-1.22.14-2.76-.27-2.91,1.16,0,.35,1.05.93-.7,1.4-2.19.75-3.29,2.09-1.86,3.37-.61,1.61,1.12,1.21-.46,2.67-.81.7-.47,1.28-.58,1.86s-1.4,1.05-.81,1.4c.47.23.7-.7,1.86.12.35.23.7-1.05,1.28.12-.06.9-2.05,1.26-1.98,2.67-1.83,1.19-1.21,2.42.81,2.21,1.72.38,1.38,2.5,3.6,1.63.35-.12,1.63.35,1.98,1.05,1.42,1.82,6.05-1.81,8.49-.12,1.41.22,1.94,1.23.23,1.51-.7,0,.46,1.63-2.67.7-.93-.35-.93-.7-3.49-.7-2.41.5-2.91,1.45-5,.46-.7-.12-1.74,1.05-5.23.58-.81-.12-1.4.81-1.63,1.28-.23.81.93,0,1.28.58s-.93.93-.12,1.63c1.29,1.23,2.1-.72,3.14.23.81.46.12,1.16.23,1.86.12.47,1.05-.23,1.16.47-1.86,2.98,1.81.48,2.33,2.21-.51,1.3-4.71-.18-5.12-.23-1.6,1.3-4.16-1.34-6.16-.12-1.44.71-2.18,1.5-.46,2.33.58.7-.7.7-.7,1.4.9,1.02,1.72.19,3.02.12,1.74-.93,1.05.46.7.81s0,1.05-.58,1.63c-.6.94-1.56,1.06-1.39,2.33-.1,1.24.78.89,1.28,1.86.53.28,3.12.28,3.72.7.73,1.3,1.28,1.22,2.44,1.05.35.12.23.35.58.7.58.47,1.51,0,1.63.7.23,1.05-.47.81-.7.93-.23,3.77-7.83.9-4.77,4.88.12.7-.7.35-.81,1.05-.35.93-.23.23-1.28,1.51-1.31.44-3.3,1.63-2.21,2.67,2,.46,2.71,1.45,4.77.23,1.2-.67,1.01-1.1,1.98-.35.89-.15.77-3.05,2.33-2.67,1.35.38,1.12,1.85,2.79,1.98,1.14.05,1.74.58,2.91.12.48-.87.65-1.59,1.74-1.98,1.31-.89,5.12-1.16,5.46.81.2,2.05-1.55,4.08-3.72,3.95-1.16-.12.81.81-1.28.93-2.16.26-4.82-1.31-6.98-.35-.11,1.07-3.15,2.23-1.86,3.95,2.47.7,1.79,2.94-.81,3.02-1.42-.14-5.47-1.19-6.39,0-1.29,1.39-1.09,3.31.93,3.14,1.16.31,2.44.19,3.37-.12.7.12.35.58.93.7.33.35,1.69.12,1.63.35-.12.81.35.93.58,1.05.92-.16,1.86.36,2.44,1.74,1.35.54,1.3,2.06-1.4,1.98-2.24.67.36,2.25,1.86,1.63,2.66-.68,6.13.28,8.6,0,.25,2.88-.62,14.9-.81,17.9-1.98-.47-1.4-1.86-.93-1.86-1.51,0-1.4-.7-.47-1.16-1.05.23-1.05-.35-.35-.93-1.05.23-1.63-.35-.7-.7-.81,0-1.16-.35-.23-.93-1.16,0-.93-.47-.58-.81-.7-.12-1.05-.35-.58-1.05-.47,0-.58-.58-.35-.93-.81-.47-.81-1.63-.81-1.63,0,0-.12,1.4-.7,2.09.23.12.35.93-.23,1.16.35.12.7.58.12.93.12.23.12.47-.47.7.81.7.23.81-.93.7.7.47.58,1.05.12,1.16.58.23.47,1.51-.7.93.12.47.47.81-.93.58.35.23,1.74.58.58,1.16.23.12.12.47-1.98.93.58.12,1.16.35.7.7.58.47-1.16,1.05-1.86,1.28,2.46.88-2.67,2.15-2.56,1.98,0,0,.23-.12.35-.35-.35.12-.7,0-.47-.12-.35-.12-.58-.35-.23-.47-.23-.23-.58-.35-.35-.47-.12-.12-.7-.35-.23-.35-.35-.47-.47-1.05-.47-1.05,0,0-.12,1.05-.47,1.28.35.12,0,.58-.47.81.35.12-.12.47-.47.58.85.35-.05.44-.47.7.25.27.3.7.47.93h0c.25,2.3,1.91,3.3,3.6,4.3.35.47,2.67,2.67,3.49,3.6,1.85,1.38.82,3,1.63,4.42,3.01,2.12,7.24,8.96,7.67,12.79,1.66,4.21,7.15,4.58,7.79,10.58,0,1.91.63,1.41,1.63,2.21.56,1.04,2.53,2.68,2.32,3.49.12,2.91,1.96,5.08,4.07,7.56.2,1.09,6.03,3,5.58,4.53.13,2.14-.34,3.68,1.74,4.88,2.23,3.61,4.5,4.3,8.72,7.91,3.92,3.77,10.64,6.88,16.04,9.3,10.25,2.15,12.03-4.49,18.02-9.42,10.79-9.02,7.45-3.36,14.18-15.69,1.75-1.07,3.46-2.65,3.72-5,3.28-2.95,13.48-8.67,10.81-13.25,2.18-4.05,9.42-7.98,8.25-13.49,5.08-5.1,3.26-7.37,5.23-13.49l6.98-8.6ZM40.56,43.08c-1.49-2.71,2.37-1,3.14.12.93,0,1.63.7,1.51.93-.23.47,1.05,1.05.35,1.4-.93.47-.7.7-1.63.7-2.34-.17-1.78-1.01-2.21-2.09-.7-.46-.93-.35-1.16-1.05m10.93-25.58c2.18-1.06,1.21,3.52.93,4.3l-.7.12c-.12-.12,0-.58-.23-.47s-.23.23-.47,0c-.43-.37.15-1.43,0-1.74.01-.14.2-2.37.47-2.21Zm-4.65,3.14c.48-.21,1.52.94,1.51,1.63-.12.81.12,1.05,0,1.51-2.19.8-2.05-1.79-1.51-3.14Zm-.47,5.35c.06-.71.53-1.54,1.16-.7.23.23.7-.12.81.23.77,1.99-1.43,2.76-1.98.47Zm-1.16,4.07c-.21-.69-.44-1.17-.23-1.86,1.86-.96.94,4.63.23,1.86Zm6.74,6.63c.4-.76.09-2.71,1.16-1.63,3.68.34,1.38,7.98.58,10.46-1.6,2.49-1-1.3-1.05-2.09-.52-1.67-.67-5.22-.7-6.74Zm5,2.44c.1-.7.92-2.2,1.63-2.21.03.74-.72,3.48-1.63,2.21Zm1.98,2.79c.97-.45.97-1.23,1.98-.7.58,1.86-4.13,2.99-1.98.7Zm.35,3.49c2.53-2.29,3.1-.26.81,1.4-1.1.19-2.27-.54-.81-1.4Zm-6.86,5.81c.25-2.35,1.56-.83,1.63.7-.01,2.24.16,4.04-1.05,5.35-1.39.97-.64-4.98-.58-6.05Zm-8.25,2.56c-.68.19-5.3.32-4.19-.81,1.28.23.47-.35.93-.47.47-.12,1.63-.35,1.98-.35,1.23-.6,4.08,1.28,1.28,1.63Zm11.97,3.49c.38-1.19,5.42-1.12,2.91.47-1.13.09-2.62.59-2.91-.47Zm-2.33,2.44c2.28-1.14,1.21,1.08-.35,1.16-1.08-.33-.06-1.1.35-1.16Zm-17.21-4.65c1.05-.1,3.05-.11,3.49.58-.02.81-1.21.18-1.51.81-.09.29-2.17.17-2.09-.35.12-.47-.47-.81.12-1.05Zm22.55,16.04c-1.64,1.74-3.85.38-5.81-.23-1.14-.78,1.01-.87-.12-1.98-.05-1.56,4.59-.36,5.46-.12,2.61.11,1.69,1.22.47,2.33Zm-6.05,1.74c1.2-.55,5.64.5,6.63,1.63.56,1,.64,1.71,1.4,2.44.3,1.17.69,1.09.93,2.09-1,.48.3,1.74-1.28,1.4-1.03.47-1.62-.87-2.33-1.28-.89,0-.95-.61-1.74-1.05-3.2-.12-4.92-2.68-3.6-5.23Zm.12,8.95c1.19-.33,2.24-.96,3.02-.12,1.39.88,2.01,1.14,3.26,2.09.47,2.51,1.52,2.63-1.51,3.14-.81.12-.58-.46-1.16-.58-.7-.12-1.05-.23-1.4-.58-.35-.58.12-.81-.58-.93-1.16.04-1.72-.51-1.28-1.28-.23-.46-.7-.46-.47-.81.23-.47,0-1.16.12-.93Zm-10.23.81c.96-1.31,2,.18,3.14.23.44.28-.32,1.29-.23,1.74-.41,1.09-5.33-.46-2.91-1.98Zm10.58,5.23c.41.1.69.71,1.16.46.35,0,.12-.46.58-.46,1.07.02-.42,2.03,1.16,1.74-.22.81.37,4.17-1.16,4.19-.51-.19-.26,2.35-1.28,1.74-.23-.12-.12-.12-.12-.46.07-.67-1.26,1.14-1.16-.93.4-1.06-.52-7.21.81-6.28Zm-9.42,10c.55-2.06,2.9-.74,2.33,1.16-.55.3-.77,1.47-1.4,1.16-.34.76-.49.24-1.05.12-.42-.22-.24-1.88.12-2.44Zm-10.46-17.9c-1.65-1.25,1.15-1.66,1.86-2.67.91-.51.67.49.7,1.16-.39.93-1.58,1.41-2.56,1.51Z" style="fill:#71a372;"/><path d="m56.72,101.32c-1.36-1.45,11.74-4.75,6.39-1.63,2.63.88-1.71,1.88-2.79,2.21-.95.06-2.37.09-3.37.12-.35-.23.35-.7-.23-.7Z" style="fill:#fff;"/><path d="m151.7,142.48c.12,0,.12-.12.23-.35.47-.81,1.16-1.4,1.63-1.98.7-.7,3.72-4.42,5.23-5.7l.23-.12c-7.09-.58-18.72.58-23.37,1.05-5.23.58-7.67.81-7.67.81-10.58,1.51-7.44,1.63,6.98,3.49,4.3.47,4.65.7,5.81.81s1.63.47,5.46.93c1.74.23,4.77,1.05,5.46,1.05h0Z" style="fill:#fff;"/><path d="m115.4,152.95c-.2-1.09-1.09-2.37-1.68-3.06-.59-.69-1.88-1.48-2.57-1.78-.69-.4-1.38-.49-2.27-.69-.79-.2-1.58-.2-2.67-.49-1.09-.3-2.27-.69-2.77-.89-.4-.2-.69-.3-1.19-.49-.49-.1-.89-.3-1.48-.4-.59-.1-1.68-.59-2.37-.89-.79-.2-1.78-.2-2.27-.3-.49-.1-.99-.2-1.28-.2-1.98-.2-1.68-.4-3.85-.3-1.98.2-3.56.89-3.56.89,0,0-.99.59-.89.4-.3.2-.69.79-1.19,1.48-.49.69-.99.69-1.58.79-.59,0-1.19-.1-2.07-.3-.79-.2-.99.1-1.38.1s-.99.49-1.48.69c-.49.2-.89.79-1.28,1.09-.69.49-.79.99-.99,1.68-.1.69,0,1.19-.1,1.78v.89s.2,1.38.59,1.98c.4.79.3,1.48.49,1.98s.49.79.49.99.4.69.3,1.48c0,.79.3,1.28.49,1.68.2.4.59.3.79.3.3.1.99-.1,1.28-.1s.69.3.69.3c0,0,.3.4.99,1.48.69,1.09,1.19.89,1.19.89,0,0,.49.2.99-.89.1-.2.4-.89.59-1.19s.2-.3.4-.49.4-.2.89-.69c.3-.3.59-.2.79-.2s.99.49,1.19.59c.2.2,1.58.79,1.98,1.09s2.17.59,2.47.59.99.4,1.09.59.59.69.79.89.2.59.3.79.59,1.78.69,1.98c.2.59.3.59.2.79-.1.1-.4.4-.59.89-.1.2-.1.3.2.3h1.88c.1,0,.1-.3.1-.3v-.79c0-.1.1-.1.2-.3q.1-.2.4-.79c.3-.59.59-.69,1.09-1.19.59-.59.79-.59.89-.99.1-.3.3-.59.4-.89.2-.59.3-.99.49-1.48s.59-.79.89-.89c.3-.1.49-.2.79-.2.3-.1.3.2.3.49s.3.3.49.2c.2-.1.89-.4,1.58-.79.59-.3,1.38-.59,1.68-.79.4-.1.99-.3,1.38-.3.59.1,1.38.59,1.88.89.49.3,1.09.69,1.78,1.48.69.89.49,1.48.49,1.78,0,.2-.2,1.09-.3,1.28s0,.59-.1.89-.2.89-.2.89c0,0-.4.4-.59.49-.2.2-.2.89-.3,1.19-.1.3.1.2.3.2h1.68c.4,0,.3-.3.3-.3,0,0,.1-.89.1-1.19v-.4c0-.1.2-.2.2-.2.1,0,0-.49.1-1.19.1-.69.69-2.17.89-2.77.2-.59-.1-.69-.3-.69-.1,0-.1-.3-.3-.59-.2-.2-.3-.59-.59-1.68-.4-1.09-.49-1.38-.4-1.98.1-.59.49-1.09.89-2.07.49-1.09.3-.59.49-1.78.2-1.19-.1-1.38-.1-1.78s.4,0,.4,0l.1.49s.1.99.1,1.28c.1.3-.1,1.28-.2,1.78-.1.49-.4.79-.4.79,0,0,0,.3-.3.69-.2.4-.3.69-.3.89-.1.2.2.59.3.79.1.2,0,.49.1.69s.3,0,.3,0c0,0,.2-.1.3-.4.2-.3.3-.49.49-.89.2-.4.1-.59-.1-.99-.2-.4.1-.89.4-1.98.2-1.19.1-1.68,0-2.67Zm-34.57,1.58c-.2,0-.4.1-.59.1s-.4.1-.69,0-.1-.3,0-.4.2-.1.2-.2c.1,0,.2-.2.4-.2.3,0,.3.2.69.3s.2.4,0,.4Zm2.07-1.58c0-1.28-1.19-1.19-1.19-1.19,0,0,.2-.69.4-1.09.2-.49,0-.59,0-1.19-.1-.59,0-.99.89-.1.79.89.79,1.98.79,1.98,0,0,.1.69-.89,1.58Z" style="fill:#fff;"/><path d="m92.68,33.17v9.12h-2.47l-4.15-5.59v5.59h-2.35v-9.12h2.46l4.16,5.58v-5.58h2.35Z" style="fill:#fff;"/><path d="m100,40.69h-3.23l-.51,1.6h-2.54l3.33-9.12h2.63l3.33,9.12h-2.52l-.51-1.6Zm-.58-1.88l-1.03-3.22-1.01,3.22h2.04Z" style="fill:#fff;"/><path d="m109.72,35.19h-2.26v7.1h-2.34v-7.1h-2.26v-2.02h6.85v2.02Z" style="fill:#fff;"/><path d="m111,33.17h2.35v9.12h-2.35v-9.12Z" style="fill:#fff;"/><path d="m115.26,37.73c0-2.58,2.11-4.68,4.73-4.68s4.73,2.1,4.73,4.68-2.12,4.68-4.73,4.68-4.73-2.1-4.73-4.68Zm7.16,0c0-1.38-1.04-2.4-2.43-2.4s-2.44,1.02-2.44,2.4,1.04,2.4,2.44,2.4,2.43-1.02,2.43-2.4Z" style="fill:#fff;"/><path d="m135.54,33.17v9.12h-2.47l-4.15-5.59v5.59h-2.35v-9.12h2.46l4.16,5.58v-5.58h2.35Z" style="fill:#fff;"/><path d="m142.87,40.69h-3.23l-.51,1.6h-2.54l3.33-9.12h2.63l3.33,9.12h-2.52l-.51-1.6Zm-.58-1.88l-1.03-3.22-1.01,3.22h2.04Z" style="fill:#fff;"/><path d="m152.25,40.27v2.02h-5.29v-9.12h2.35v7.1h2.93Z" style="fill:#fff;"/><path d="m107.68,47.99c0,1.58-1.23,2.74-2.83,2.74h-1.75v3.57h-2.35v-9.12h4.1c1.6,0,2.83,1.26,2.83,2.81Zm-2.26.02c0-.47-.4-.81-.95-.81h-1.37v1.64h1.37c.55,0,.95-.35.95-.84Z" style="fill:#fff;"/><path d="m113.65,52.71h-3.23l-.51,1.6h-2.54l3.33-9.12h2.63l3.33,9.12h-2.52l-.51-1.6Zm-.58-1.88l-1.03-3.22-1.01,3.22h2.04Z" style="fill:#fff;"/><path d="m125.44,54.3h-2.64l-2.15-3.34h-.54v3.34h-2.35v-9.12h4.1c1.64,0,2.83,1.29,2.83,2.87,0,1.25-.74,2.26-1.8,2.63l2.55,3.62Zm-3.01-6.16c0-.55-.4-.94-.95-.94h-1.37v1.88h1.37c.55,0,.95-.4.95-.94Z" style="fill:#fff;"/><path d="m129.13,50.23h-.15v4.07h-2.35v-9.12h2.35v3.05h.26l2.78-3.05h3l-3.89,4,4.46,5.12h-3.12l-3.33-4.07Z" style="fill:#fff;"/><path d="m89.81,64.34l1.92-1.19c.32.68.97,1.11,1.77,1.11.6,0,.91-.26.91-.62,0-1.38-4.2-.62-4.2-3.78,0-1.95,1.61-2.78,3.07-2.78,1.15,0,2.24.52,2.97,1.35l-1.54,1.47c-.49-.52-1-.79-1.46-.79-.37,0-.68.18-.68.58,0,1.38,4.18.52,4.18,3.98,0,1.75-1.52,2.77-3.29,2.77s-3.04-.94-3.66-2.1Z" style="fill:#fff;"/><path d="m100.85,59.21v1.53h2.84v2.01h-2.84v1.53h3.37v2.02h-5.72v-9.12h5.72v2.02h-3.37Z" style="fill:#fff;"/><path d="m113.76,66.31h-2.64l-2.15-3.34h-.54v3.34h-2.35v-9.12h4.1c1.64,0,2.83,1.29,2.83,2.87,0,1.25-.74,2.26-1.8,2.63l2.55,3.62Zm-3.01-6.16c0-.55-.4-.94-.95-.94h-1.37v1.88h1.37c.55,0,.95-.4.95-.94Z" style="fill:#fff;"/><path d="m123.12,57.19l-3.33,9.12h-2.63l-3.33-9.12h2.64l2.01,6.06,2.01-6.06h2.63Z" style="fill:#fff;"/><path d="m124.27,57.19h2.35v9.12h-2.35v-9.12Z" style="fill:#fff;"/><path d="m128.54,61.75c0-2.58,2.11-4.68,4.73-4.68,1.83,0,3.43,1.03,4.21,2.55l-2.03,1.02c-.4-.79-1.2-1.29-2.18-1.29-1.4,0-2.44,1.02-2.44,2.4s1.04,2.4,2.44,2.4c.98,0,1.78-.5,2.18-1.29l2.03,1.02c-.78,1.52-2.38,2.55-4.21,2.55-2.63,0-4.73-2.1-4.73-4.68Z" style="fill:#fff;"/><path d="m141.61,59.21v1.53h2.84v2.01h-2.84v1.53h3.37v2.02h-5.72v-9.12h5.72v2.02h-3.37Z" style="fill:#fff;"/></g></g></g></svg>