<?xml version="1.0" encoding="UTF-8" standalone="no"?>
<!-- Created with Inkscape (http://www.inkscape.org/) -->

<svg
   width="192"
   height="192"
   viewBox="0 0 50.799999 50.800001"
   version="1.1"
   id="svg5"
   sodipodi:docname="naukri.svg"
   inkscape:version="1.3 (0e150ed6c4, 2023-07-21)"
   xml:space="preserve"
   inkscape:export-filename="naukri.png"
   inkscape:export-xdpi="96"
   inkscape:export-ydpi="96"
   xmlns:inkscape="http://www.inkscape.org/namespaces/inkscape"
   xmlns:sodipodi="http://sodipodi.sourceforge.net/DTD/sodipodi-0.dtd"
   xmlns="http://www.w3.org/2000/svg"
   xmlns:svg="http://www.w3.org/2000/svg"><sodipodi:namedview
     id="namedview7"
     pagecolor="#c4c4c4"
     bordercolor="#000000"
     borderopacity="1"
     inkscape:pageshadow="0"
     inkscape:pageopacity="0"
     inkscape:pagecheckerboard="false"
     inkscape:document-units="px"
     showgrid="false"
     units="px"
     width="192px"
     inkscape:zoom="1.1883979"
     inkscape:cx="251.59923"
     inkscape:cy="158.19617"
     inkscape:window-width="1884"
     inkscape:window-height="1055"
     inkscape:window-x="36"
     inkscape:window-y="0"
     inkscape:window-maximized="1"
     inkscape:current-layer="layer1"
     inkscape:showpageshadow="2"
     inkscape:deskcolor="#d1d1d1" /><defs
     id="defs2"><inkscape:path-effect
       effect="fillet_chamfer"
       id="path-effect20"
       is_visible="true"
       lpeversion="1"
       nodesatellites_param="F,0,0,1,0,1.288692,0,1 @ F,0,0,1,0,1,0,1 @ F,0,0,1,0,1,0,1 @ F,0,0,1,0,1,0,1 @ F,0,0,1,0,1,0,1 @ F,0,0,1,0,1,0,1 @ F,0,0,1,0,1,0,1"
       radius="1"
       unit="px"
       method="auto"
       mode="F"
       chamfer_steps="1"
       flexible="false"
       use_knot_distance="true"
       apply_no_radius="true"
       apply_with_radius="true"
       only_selected="false"
       hide_knots="false" /><inkscape:path-effect
       effect="fillet_chamfer"
       id="path-effect18"
       is_visible="true"
       lpeversion="1"
       nodesatellites_param="F,0,0,1,0,1.0144893,0,1 @ F,0,0,1,0,1,0,1 @ F,0,0,1,0,2,0,1 @ F,0,0,1,0,2,0,1 @ F,0,0,1,0,0.23502557,0,1 @ F,0,0,1,0,2,0,1 @ F,0,0,1,0,1,0,1"
       radius="1"
       unit="px"
       method="auto"
       mode="F"
       chamfer_steps="1"
       flexible="false"
       use_knot_distance="true"
       apply_no_radius="true"
       apply_with_radius="true"
       only_selected="false"
       hide_knots="false" /><style
       id="style2980">.a{fill:none;stroke:#b1b5bd;stroke-linecap:round;stroke-linejoin:round;isolation:isolate;opacity:0.63;}</style></defs><g
     inkscape:label="Calque 1"
     inkscape:groupmode="layer"
     id="layer1"><rect
       class="a"
       x="5.2916665"
       y="5.2916665"
       width="40.216667"
       height="40.216667"
       rx="2.6458333"
       id="rect15"
       style="fill:#ffffff;fill-opacity:1;stroke:none;stroke-width:0.264583;opacity:1" /><path
       style="fill:none;fill-opacity:0.782881;stroke:#708cbd;stroke-width:0.2794;stroke-linecap:round;stroke-linejoin:miter;stroke-dasharray:none;stroke-opacity:1;opacity:1"
       d="M 109.7102,35.903093 C 101.61818,34.15122 95.339576,31.905636 90.748543,29.558792 90.256798,29.307422 89.468502,28.882386 88.989469,28.60756 83.4592,25.434788 75.820513,19.193082 80.406237,10.53548 c 0.516699,-0.9754995 1.549339,-2.446803 2.267997,-3.2849831 0.528901,-0.6168654 1.135114,-1.2530578 1.829819,-1.9030475 0.806409,-0.7545052 2.197844,-1.8855309 3.09423,-2.5306687 7.099751,-5.1097611 12.997197,-4.9632129 14.220687,-4.8674805 0.12888,0.010085 0.13836,0.069295 0.0226,0.1280021 -1.862006,0.94427163 -15.430635,8.1624955 -14.2433,17.4192457 0.14021,1.093111 0.750067,2.792923 1.22957,3.787352 1.807588,3.748708 4.683117,6.278073 8.224782,9.191563 0.426472,0.35083 1.118658,0.919079 1.558454,1.253091 3.988784,3.029369 9.030884,5.239837 11.134684,6.050302 0.52243,0.201262 0.51205,0.242789 -0.0356,0.124237 z"
       id="path15"
       sodipodi:nodetypes="cssscssc"
       inkscape:path-effect="#path-effect18"
       inkscape:original-d="M 110.70262,36.113553 C 101.58696,34.220284 94.697316,31.70321 89.863246,29.09383 83.979058,25.917611 74.491183,18.858721 81.449689,8.830692 c 1.021915,-1.4727 2.481001,-3.102164 4.561648,-4.79719 8.70039,-7.087884 16.040563,-6.0610496 16.040563,-6.0610496 0,0 -17.811738,8.5927517 -13.98951,19.4648376 1.798562,5.115897 5.300763,8.01793 9.76331,11.672322 5.01977,4.110703 12.30777,6.881468 12.87692,7.003941 z"
       transform="matrix(0.5512831,0,0,0.5512831,-26.128067,16.738696)" /><path
       style="fill:#708cbd;fill-opacity:1;stroke:none;stroke-width:0.264583;stroke-linecap:round;stroke-linejoin:round;stroke-dasharray:none;stroke-opacity:1;opacity:1"
       d="M 107.80362,32.110305 C 97.51312,29.779087 90.392458,26.606835 86.166848,23.484775 85.722691,23.156612 85.025541,22.593907 84.611117,22.228907 82.574485,20.435161 81.351166,18.709128 80.62049,17.228061 80.37622,16.73293 80.047737,15.89752 79.898226,15.366088 79.248807,13.057751 79.362734,10.240711 81.246624,7.0340184 81.526335,6.5579039 82.027287,5.8146359 82.360192,5.374051 83.112939,4.3778216 84.067363,3.3199492 85.276844,2.2277005 85.6867,1.8575717 86.372316,1.2811625 86.805838,0.93903332 92.744956,-3.7480345 97.8913,-4.3082518 99.982919,-4.3125913 c 0.551441,-0.00114 0.599291,0.2553881 0.119031,0.52802 -3.239673,1.8390898 -14.233814,8.7830037 -12.275542,17.3348153 0.123122,0.537676 0.414808,1.386054 0.628523,1.895193 3.590971,8.554894 15.509819,14.75831 19.408799,16.471392 0.65103,0.286042 0.63402,0.350725 -0.0601,0.193476 z"
       id="path16"
       sodipodi:nodetypes="csssscsc"
       inkscape:path-effect="#path-effect20"
       inkscape:original-d="M 109.06208,32.387753 C 97.402062,29.886807 89.630309,26.313935 85.375456,22.873606 82.395686,20.464266 80.9292,18.137668 80.216366,16.313707 79.178399,13.65781 79.077569,10.209013 81.779408,6.1879516 c 0.952398,-1.4174243 2.312228,-2.9857285 4.251338,-4.6171342 8.108541,-6.8218503 14.949394,-5.8335566 14.949394,-5.8335566 0,0 -16.442655,8.3095926 -12.880436,18.7736102 3.562219,10.464017 19.960496,17.654243 20.962376,17.876882 z"
       transform="matrix(0.5512831,0,0,0.5512831,-26.128067,16.738696)" /><path
       id="path17"
       style="fill:#ff837d;fill-opacity:1;stroke-width:0.161625;stroke-linecap:round;opacity:1"
       d="m 20.659148,16.226842 c 0,1.144132 -1.011853,2.071634 -2.26004,2.071634 -1.248188,0 -2.260041,-0.927502 -2.260041,-2.071634 0,-1.144133 1.011853,-2.071634 2.260041,-2.071634 0.319871,0 0.624223,0.06091 0.899997,0.170771 0.0382,0.01522 0.02558,0.07274 -0.04107,0.170468 -0.06941,0.10175 -0.241881,0.2222 -0.203963,0.240707 0.168058,0.08203 0.615601,-0.225552 0.683282,-0.179895 0.05381,0.03633 0.105824,0.07475 0.155864,0.115191 0.04239,0.03429 -0.438364,0.344805 -0.427724,0.424328 0.01075,0.08038 0.05562,0.09656 0.205,0.03616 0.167122,-0.06757 0.440178,-0.259318 0.45939,-0.238375 0.08635,0.09415 0.16372,0.195457 0.23091,0.302798 0.04339,0.0693 -0.481248,0.221549 -0.495873,0.301938 -0.01152,0.06328 -0.0082,0.145323 0.09977,0.134998 0.166603,-0.01593 0.589068,-0.03616 0.602833,0.0067 0.05964,0.185773 0.09164,0.382393 0.09164,0.585864 z"
       sodipodi:nodetypes="sssssssssssssssss" /></g></svg>
