<?xml version="1.0" encoding="UTF-8"?>
<svg version="1.1" viewBox="0 0 192 192" xmlns="http://www.w3.org/2000/svg">
 <circle class="a" cx="96" cy="96" r="88" style="fill:#fff"/>
 <g transform="matrix(1.1423 0 0 1.1423 69.381 55.984)" fill="#fff" style="fill:#56595b">
  <path d="m14.011 59.555v-34.197l25.13 22.846c1.4323 1.3021 1.5384 3.5188 0.2363 4.9511-1.3021 1.4324-3.5188 1.5375-4.9511 0.2354l-13.405-12.186v18.352c-1e-4 1.9357-1.5692 3.5049-3.5049 3.5049s-3.5048-1.5692-3.5049-3.5049z" style="fill:#56595b"/>
  <path d="m10.51 70.064c5.8043 0 10.51-4.7054 10.51-10.51s-4.7054-10.51-10.51-10.51c-5.8044 0-10.51 4.7054-10.51 10.51s4.7054 10.51 10.51 10.51z" style="fill:#56595b"/>
  <path d="m1.75 40.287v-33.28c0-1.36 0.78695-2.597 2.0186-3.1738 1.2316-0.57675 2.6857-0.38916 3.7305 0.48145l25.78 21.483v-15.288c1e-4 -1.9356 1.5692-3.5049 3.5049-3.5049 1.9355 1.4e-4 3.5047 1.5694 3.5048 3.5049v22.772c-1e-4 1.3599-0.787 2.597-2.0185 3.1738-1.2316 0.5768-2.6857 0.3892-3.7305-0.4814l-25.78-21.484v25.798c0 1.9358-1.5691 3.5049-3.5049 3.5049s-3.5049-1.5691-3.5049-3.5049z" style="fill:#56595b"/>
  <path d="m43.79 0c-5.8043 0-10.51 4.7054-10.51 10.51 0 5.8043 4.7054 10.51 10.51 10.51s10.51-4.7054 10.51-10.51c0-5.8044-4.7054-10.51-10.51-10.51z" style="fill:#56595b"/>
 </g>
</svg>
