<?xml version="1.0" encoding="UTF-8"?><svg id="a" xmlns="http://www.w3.org/2000/svg" width="192" height="192" xmlns:xlink="http://www.w3.org/1999/xlink" viewBox="0 0 192 192"><defs><clipPath id="d"><rect id="e" x="19.5" y="19.5" width="153" height="153" rx="10" ry="10" style="fill:none;"/></clipPath></defs><g id="b"><g id="c"><g style="clip-path:url(#d);"><rect id="f" x="19.5" y="19.5" width="153" height="153" rx="10" ry="10" style="fill:#56595b;"/></g><circle cx="120.33" cy="127.67" r="39.33" style="fill:#bd9aff;"/><circle cx="53.44" cy="88.33" r="22" style="fill:#96dfd3;"/><circle cx="155.22" cy="51.44" r="4.44" style="fill:#96dfd3;"/><circle cx="113.11" cy="28.22" r="4.22" style="fill:#bd9aff;"/><circle cx="35.87" cy="33.46" r="1.01" style="fill:#fff;"/><circle cx="65.08" cy="42.18" r="1.01" style="fill:#fff;"/><circle cx="75.44" cy="34.47" r="1.01" style="fill:#fff;"/><circle cx="92.69" cy="44.21" r="1.01" style="fill:#fff;"/><circle cx="94.28" cy="57.96" r="1.01" style="fill:#fff;"/><circle cx="83.53" cy="69.46" r="1.01" style="fill:#fff;"/><circle cx="56.5" cy="57.96" r="1.01" style="fill:#fff;"/><circle cx="24.32" cy="72.46" r="1.01" style="fill:#fff;"/><circle cx="25.33" cy="48.08" r="1.01" style="fill:#fff;"/><circle cx="97.78" cy="77.79" r="1.01" style="fill:#fff;"/><circle cx="63.03" cy="114.88" r="1.01" style="fill:#fff;"/><circle cx="63.58" cy="133.92" r="1.01" style="fill:#fff;"/><circle cx="43.49" cy="160.08" r="1.01" style="fill:#fff;"/><circle cx="71.17" cy="164.25" r="1.01" style="fill:#fff;"/><circle cx="44.5" cy="142.17" r="1.01" style="fill:#fff;"/><circle cx="27.75" cy="133.58" r="1.01" style="fill:#fff;"/><circle cx="26.17" cy="111.75" r="1.01" style="fill:#fff;"/><circle cx="88.67" cy="92.68" r="1.01" style="fill:#fff;"/><circle cx="113.47" cy="63.86" r="1.01" style="fill:#fff;"/><circle cx="126.25" cy="67.35" r="1.01" style="fill:#fff;"/><circle cx="138.86" cy="82.29" r="1.01" style="fill:#fff;"/><circle cx="147.81" cy="62.13" r="1.01" style="fill:#fff;"/><circle cx="149.83" cy="31.88" r="1.01" style="fill:#fff;"/><circle cx="165.83" cy="40.54" r="1.01" style="fill:#fff;"/><circle cx="128.28" cy="37.13" r="1.01" style="fill:#fff;"/><circle cx="114.49" cy="48.08" r="1.01" style="fill:#fff;"/><circle cx="160.68" cy="84.74" r=".79" style="fill:#fff;"/><circle cx="168.29" cy="92.68" r=".63" style="fill:#fff;"/><circle cx="159.89" cy="106.26" r=".86" style="fill:#fff;"/><circle cx="154.4" cy="158.06" r="1.01" style="fill:#fff;"/><circle cx="165.17" cy="162.33" r="1.01" style="fill:#fff;"/><circle cx="165.17" cy="139.42" r="1.01" style="fill:#fff;"/></g></g></svg>