<svg xmlns="http://www.w3.org/2000/svg" xml:space="preserve" width="192" height="192"><rect width="128" height="176" x="32" y="8" rx="10.079" style="fill:#ffb0ac;stroke-width:1.0068;fill-opacity:1"/><path d="M42.078 8A10.056 10.056 0 0 0 32 18.078v155.84a10.056 10.056 0 0 0 10.078 10.078H56v-176H42.078z" style="opacity:1;paint-order:stroke fill markers;fill:#000;fill-opacity:.15000001"/><path d="M111.9 127.26c-9.246-2.16-17.618-5.806-17.618-7.67 0-2.203 7.109-2.983 14.415-1.582 2.35.45 6.81.965 9.913 1.144 4.935.284 6.071.178 9.075-.843 1.89-.641 4.24-1.595 5.224-2.119 1.719-.915 1.751-.99.833-1.908-.832-.832-1.511-.905-5.26-.567-4.712.426-17.918.953-22.988.918a856.947 856.947 0 0 0-8.542.012c-6.847.043-7.165.03-9.076-.38a370.88 370.88 0 0 0-2.816-.592c-2.153-.44-3.323-2.125-3.323-4.785 0-2.068-.286-2.723-1.923-4.405-1.058-1.086-2.357-2.824-2.888-3.86-1.17-2.287-2.179-7.42-1.768-8.993.22-.839-.276-1.768-1.854-3.48-2.587-2.807-3.953-5.297-3.522-6.42.432-1.126 3.536-1.906 7.608-1.91 3.173-.002 3.65-.172 7.3-2.614 4-2.676 8.75-4.54 13.13-5.152 2.16-.302 2.978-.843 6.501-4.299 2.364-2.319 4.484-3.953 5.126-3.953 1.682 0 2.598 1.968 3.264 7.016.59 4.47.689 4.696 3.172 7.272 2.38 2.47 3.155 3.972 3.988 7.734.239 1.079.649 1.468 1.545 1.468 1.876 0 6.577 2.557 8.176 4.446 2.032 2.404 3.788 6.545 4.227 9.97.356 2.78.545 3.073 3.563 5.533 3.657 2.98 4.683 4.977 4.683 9.113 0 2.67-.178 3.113-1.962 4.898-2.37 2.369-7.092 4.578-12.291 5.75-4.17.939-12.425 1.073-15.911.259zm12.295-.995c1.165 0 1.22-.122.718-1.564-.382-1.096-.368-1.895.047-2.67.562-1.05.457-1.105-2.087-1.105-2.379 0-2.713.142-2.998 1.277-.428 1.707 1.158 4.79 2.248 4.372.445-.17 1.377-.31 2.072-.31zm-10.193-1.277c-.183-.728.042-1.978.522-2.906.97-1.875.875-1.972-2.357-2.422-3.044-.423-3.747.05-4.112 2.764-.276 2.064-.207 2.205 1.242 2.535 1.286.292 4.382 1.09 4.882 1.258.079.026 0-.527-.177-1.23zm21.842-1.91c.25-.244-.05-.948-.667-1.565-.617-.616-1.122-1.601-1.122-2.189 0-1.19-.63-1.339-2.17-.515-1.258.673-1.333 2.518-.172 4.177.673.96 1.17 1.153 2.27.881.774-.19 1.611-.546 1.86-.79zm-32.414-.95c.019-.515.216-1.596.44-2.403.373-1.356.286-1.468-1.137-1.468-3.43 0-5.273 3.151-2.445 4.184 2.214.809 3.104.72 3.142-.314zm37.032-6.783c0-1.82-1.09-4.029-1.99-4.029-.412 0-1.217.25-1.789.557-.843.45-.932.757-.47 1.621.315.586.422 1.537.239 2.114-.294.923-.076 1.047 1.839 1.047 1.949 0 2.171-.134 2.171-1.31zm-48.163-3.795c1.08-.756 1.22-.756 1.51 0 .408 1.06 1.6 1.08 2.001.033.17-.44.555-.8.858-.8.303 0 .55.36.55.8 0 1.317 1.022.906 1.39-.558.187-.748.231-1.47.097-1.603-.471-.472-11.654-.635-11.939-.174-.518.838-1.215.491-1.39-.693-.299-2.034-1.505-1.797-1.505.295 0 2.238 1.24 3.152 3.63 2.675.913-.183 1.733-.068 1.943.271.504.816 1.455.734 2.855-.246zm11.326-.234c.73-1.363 1.468-1.351 2.594.04l.897 1.108 1.52-1.196c1.382-1.086 1.567-1.114 2.019-.307.614 1.099 2.04 1.143 3.412.105 1.31-.99 1.837-1.015 1.837-.085 0 .974 4.475 1.399 7.85.746a75.68 75.68 0 0 1 5.038-.768c2.164-.238 2.603-.507 3.47-2.13.943-1.767.946-1.894.059-2.548-.546-.402-.935-1.386-.935-2.364 0-1.026-.271-1.677-.698-1.677-.385 0-1.166-.352-1.735-.782-1.007-.759-.99-.82.565-2.087 1.826-1.49 1.48-2.416-.557-1.488-2.61 1.189-3.03.488-1.523-2.534 1.1-2.207.676-2.588-1.309-1.175-2.282 1.625-2.912 1.469-2.45-.61.614-2.758.556-3.283-.383-3.478-.609-.127-1.074.393-1.496 1.672-.772 2.341-2.044 3.524-2.681 2.493-.318-.514-.758-.094-1.572 1.502-.622 1.219-.907 2.216-.634 2.216.458 0 2.728 4.139 2.728 4.974 0 .2-.36.365-.8.365s-.802-.224-.802-.497c0-.274-.74-1.026-1.647-1.67-1.492-1.064-1.725-1.096-2.48-.34-.755.755-.7.99.583 2.516 2.12 2.519 1.155 3.349-1.372 1.181-.589-.505-1.411-.658-2.316-.43-1.168.293-1.293.485-.747 1.144.892 1.073.601 1.253-2.966 1.833-3.159.515-4.802 1.517-5.359 3.269-.632 1.993.92 2.815 1.89 1.002zm-3.013-4.583c8.648-2.23 15.799-9.057 17.177-16.4l.37-1.973h-2.462c-3.047 0-3.272-1.014-.593-2.67 1.027-.635 1.868-1.495 1.868-1.912 0-.938-.432-.93-2.135.044-2.89 1.651-3.592.377-1.297-2.35 1.519-1.805 1.394-2.368-.77-3.487-1.37-.708-1.506-1.102-2.073-5.947-.334-2.854-.845-5.426-1.134-5.716-.346-.346-1.844.87-4.373 3.549-3.03 3.21-4.167 4.074-5.357 4.074h-1.51l1.087 1.844c1.144 1.938 1.196 4.6.098 4.96-.356.117-1.878-1.11-3.383-2.727-1.61-1.73-3.038-2.824-3.47-2.658-.587.225-.527.566.297 1.7 1.244 1.711 1.85 5.383 1.072 6.491-.474.675-.749.55-1.75-.8-.653-.882-1.924-2.414-2.825-3.405-1.493-1.644-1.74-1.74-2.796-1.08l-1.158.724 1.822 1.88c1.949 2.011 2.89 4.467 1.938 5.056-.316.196-1.76-.665-3.209-1.912l-2.633-2.268-5.51.141c-3.03.078-5.69.317-5.91.53-.222.214.92 1.992 2.535 3.95 2.859 3.467 2.938 3.652 2.962 6.913.013 1.843.333 4.072.711 4.953.64 1.492.88 1.601 3.528 1.601 3.336 0 4.024.887 1.643 2.118-.9.465-1.635 1.054-1.635 1.31 0 1.011 1.711 1.027 3.345.031 2.41-1.469 2.67-1.347 2.265 1.053-.345 2.04-.299 2.126 1.42 2.621 2.779.8 8.246.69 11.845-.237zM83.204 96.325c-1.607-.935-1.162-2.111.66-1.747 1.797.36 4.278-.932 4.278-2.226 0-.434.36-.789.8-.789 2.027 0 .362 3.53-2.16 4.583-2.121.886-2.345.898-3.578.18zm13.08-1.196c1.447-1.158 1.212-3.38-.4-3.785-1.705-.428-1.696-1.047.024-1.83 2.007-.915 2.435-.769 2.067.701-.268 1.067-.067 1.442 1.041 1.947 1.075.49 1.554.476 2.203-.062.456-.379.987-.532 1.178-.34.593.592-1.646 1.947-2.792 1.688-.747-.168-1.243.121-1.601.934-.285.649-1 1.25-1.587 1.337-1.001.148-1.01.111-.133-.59zm-19.838-9.653-1.205-1.283 1.684-.37c2.053-.45 2.291-.252 1.842 1.538-.433 1.725-.791 1.743-2.321.115zm26.73.675c-.634-.234-1.153-.813-1.153-1.286 0-.681.339-.786 1.623-.504 1.823.4 4.25-.829 4.25-2.153 0-.434.36-.788.8-.788 1.266 0 .938 2.059-.547 3.436-1.557 1.442-3.328 1.904-4.973 1.295zm2.984-12.04c-1.262-.33-1.177-.819.399-2.299 1.533-1.44 1.617-1.403 2.117.932.39 1.817.004 2.026-2.516 1.367z" style="fill:#56595b;stroke-width:.53387"/><rect width="128" height="176" x="32" y="-199.458" rx="10.079" style="fill:#ff837d;stroke-width:1.0068"/><rect width="128" height="176" x="32" y="-199.458" rx="10.079" style="opacity:.25;fill:#bd9aff;stroke-width:1.0068"/><path d="M42.078-199.458A10.056 10.056 0 0 0 32-189.38v155.84a10.056 10.056 0 0 0 10.078 10.078H56v-176H42.078Z" style="opacity:.25;paint-order:stroke fill markers"/><path d="M111.9-80.198c-9.246-2.16-17.618-5.806-17.618-7.67 0-2.203 7.109-2.982 14.415-1.581 2.35.45 6.81.965 9.913 1.143 4.935.284 6.071.179 9.075-.842 1.89-.642 4.24-1.596 5.224-2.12 1.719-.915 1.751-.99.833-1.908-.832-.832-1.511-.905-5.26-.566-4.712.425-17.918.952-22.988.917a856.947 856.947 0 0 0-8.542.012c-6.847.043-7.165.03-9.076-.38a370.88 370.88 0 0 0-2.816-.591c-2.153-.44-3.323-2.126-3.323-4.786 0-2.067-.286-2.723-1.923-4.404-1.058-1.087-2.357-2.824-2.888-3.861-1.17-2.287-2.179-7.42-1.768-8.993.22-.838-.276-1.768-1.854-3.48-2.587-2.807-3.953-5.296-3.522-6.419.432-1.127 3.536-1.906 7.608-1.91 3.173-.003 3.65-.173 7.3-2.615 4-2.675 8.75-4.539 13.13-5.152 2.16-.302 2.978-.843 6.501-4.299 2.364-2.318 4.484-3.953 5.126-3.953 1.682 0 2.598 1.969 3.264 7.016.59 4.47.689 4.696 3.172 7.273 2.38 2.47 3.155 3.97 3.988 7.734.239 1.078.649 1.468 1.545 1.468 1.876 0 6.577 2.557 8.176 4.446 2.032 2.403 3.788 6.544 4.227 9.969.356 2.78.545 3.074 3.563 5.533 3.657 2.98 4.683 4.977 4.683 9.113 0 2.67-.178 3.113-1.962 4.898-2.37 2.37-7.092 4.579-12.291 5.75-4.17.94-12.425 1.074-15.911.26zm12.295-.995c1.165 0 1.22-.122.718-1.564-.382-1.095-.368-1.894.047-2.669.562-1.05.457-1.106-2.087-1.106-2.379 0-2.713.143-2.998 1.278-.428 1.706 1.158 4.79 2.248 4.371.445-.17 1.377-.31 2.072-.31zm-10.193-1.277c-.183-.728.042-1.978.522-2.906.97-1.875.875-1.972-2.357-2.421-3.044-.423-3.747.05-4.112 2.763-.276 2.065-.207 2.205 1.242 2.535 1.286.293 4.382 1.09 4.882 1.258.079.027 0-.527-.177-1.23zm21.842-1.91c.25-.244-.05-.948-.667-1.564-.617-.617-1.122-1.602-1.122-2.19 0-1.19-.63-1.339-2.17-.514-1.258.673-1.333 2.518-.172 4.176.673.96 1.17 1.153 2.27.882.774-.191 1.611-.547 1.86-.79zm-32.414-.95c.019-.514.216-1.595.44-2.403.373-1.356.286-1.468-1.137-1.468-3.43 0-5.273 3.152-2.445 4.184 2.214.81 3.104.72 3.142-.313zm37.032-6.782c0-1.821-1.09-4.03-1.99-4.03-.412 0-1.217.251-1.789.557-.843.451-.932.758-.47 1.622.315.586.422 1.537.239 2.113-.294.924-.076 1.048 1.839 1.048 1.949 0 2.171-.135 2.171-1.31zm-48.163-3.796c1.08-.756 1.22-.756 1.51 0 .408 1.06 1.6 1.08 2.001.034.17-.44.555-.801.858-.801.303 0 .55.36.55.8 0 1.317 1.022.906 1.39-.558.187-.748.231-1.469.097-1.603-.471-.471-11.654-.634-11.939-.174-.518.839-1.215.491-1.39-.692-.299-2.035-1.505-1.798-1.505.295 0 2.238 1.24 3.152 3.63 2.674.913-.183 1.733-.068 1.943.272.504.816 1.455.734 2.855-.247zm11.326-.233c.73-1.363 1.468-1.352 2.594.04l.897 1.107 1.52-1.195c1.382-1.087 1.567-1.115 2.019-.307.614 1.098 2.04 1.142 3.412.105 1.31-.99 1.837-1.015 1.837-.085 0 .973 4.475 1.398 7.85.745a75.68 75.68 0 0 1 5.038-.768c2.164-.237 2.603-.507 3.47-2.13.943-1.766.946-1.893.059-2.547-.546-.402-.935-1.387-.935-2.365 0-1.025-.271-1.676-.698-1.676-.385 0-1.166-.352-1.735-.782-1.007-.76-.99-.82.565-2.088 1.826-1.489 1.48-2.416-.557-1.488-2.61 1.189-3.03.488-1.523-2.534 1.1-2.206.676-2.588-1.309-1.175-2.282 1.626-2.912 1.47-2.45-.609.614-2.759.556-3.284-.383-3.479-.609-.126-1.074.393-1.496 1.672-.772 2.342-2.044 3.524-2.681 2.493-.318-.514-.758-.094-1.572 1.502-.622 1.22-.907 2.217-.634 2.217.458 0 2.728 4.138 2.728 4.973 0 .201-.36.366-.8.366-.441 0-.802-.224-.802-.498s-.74-1.025-1.647-1.67c-1.492-1.063-1.725-1.095-2.48-.34-.755.755-.7.991.583 2.516 2.12 2.519 1.155 3.35-1.372 1.182-.589-.505-1.411-.658-2.316-.431-1.168.293-1.293.485-.747 1.144.892 1.074.601 1.253-2.966 1.834-3.159.514-4.802 1.516-5.359 3.268-.632 1.993.92 2.816 1.89 1.003zm-3.013-4.583c8.648-2.23 15.799-9.057 17.177-16.401l.37-1.973h-2.462c-3.047 0-3.272-1.013-.593-2.67 1.027-.634 1.868-1.495 1.868-1.911 0-.94-.432-.93-2.135.043-2.89 1.652-3.592.378-1.297-2.35 1.519-1.805 1.394-2.367-.77-3.487-1.37-.708-1.506-1.101-2.073-5.947-.334-2.854-.845-5.426-1.134-5.715-.346-.346-1.844.869-4.373 3.548-3.03 3.21-4.167 4.075-5.357 4.075h-1.51l1.087 1.843c1.144 1.938 1.196 4.6.098 4.96-.356.117-1.878-1.11-3.383-2.727-1.61-1.73-3.038-2.823-3.47-2.658-.587.226-.527.567.297 1.7 1.244 1.712 1.85 5.384 1.072 6.492-.474.675-.749.549-1.75-.801-.653-.881-1.924-2.413-2.825-3.405-1.493-1.644-1.74-1.739-2.796-1.08l-1.158.724 1.822 1.88c1.949 2.012 2.89 4.468 1.938 5.056-.316.196-1.76-.664-3.209-1.912l-2.633-2.268-5.51.142c-3.03.077-5.69.316-5.91.53-.222.214.92 1.991 2.535 3.95 2.859 3.466 2.938 3.651 2.962 6.912.013 1.843.333 4.072.711 4.953.64 1.493.88 1.602 3.528 1.602 3.336 0 4.024.886 1.643 2.118-.9.465-1.635 1.054-1.635 1.308 0 1.012 1.711 1.029 3.345.032 2.41-1.468 2.67-1.347 2.265 1.053-.345 2.04-.299 2.126 1.42 2.622 2.779.8 8.246.69 11.845-.238zm-17.408-10.408c-1.607-.936-1.162-2.112.66-1.747 1.797.36 4.278-.932 4.278-2.227 0-.434.36-.788.8-.788 2.027 0 .362 3.529-2.16 4.583-2.121.886-2.345.897-3.578.179zm13.08-1.196c1.447-1.159 1.212-3.38-.4-3.786-1.705-.427-1.696-1.046.024-1.83 2.007-.914 2.435-.769 2.067.702-.268 1.066-.067 1.441 1.041 1.947 1.075.49 1.554.476 2.203-.063.456-.379.987-.532 1.178-.34.593.593-1.646 1.947-2.792 1.689-.747-.169-1.243.12-1.601.934-.285.648-1 1.25-1.587 1.336-1.001.148-1.01.112-.133-.59zm-19.838-9.654-1.205-1.282 1.684-.37c2.053-.451 2.291-.253 1.842 1.537-.433 1.726-.791 1.744-2.321.115zm26.73.676c-.634-.235-1.153-.814-1.153-1.287 0-.68.339-.786 1.623-.504 1.823.4 4.25-.828 4.25-2.153 0-.433.36-.788.8-.788 1.266 0 .938 2.06-.547 3.436-1.557 1.443-3.328 1.904-4.973 1.296zm2.984-12.04c-1.262-.33-1.177-.82.399-2.3 1.533-1.44 1.617-1.403 2.117.933.39 1.816.004 2.025-2.516 1.367z" style="fill:#56595b;stroke-width:.53387"/></svg>