<svg xmlns="http://www.w3.org/2000/svg" width="192" height="192"><path d="M96 868.362c48.237 0 88 39.763 88 88s-39.763 88-88 88-88-39.11-88-87.348c0-48.889 39.763-88.652 88-88.652z" style="stroke-width:6.51852;fill:#ff837d;fill-opacity:1" transform="translate(0 -860.362)"/><path d="M127.69 955.375c-2.526-10.464-11.907-17.32-22.371-18.041l-.361-.361-1.443-5.413c0-3.247 2.165-5.051 3.608-3.608 1.804.722 5.051 2.887 5.773 2.887 1.443.721 3.608 0 5.412-1.444.722-.721 1.083-1.804.722-2.525-.36-.722-.722-1.083-1.082-1.805-3.609-4.33-10.825-6.855-15.877-3.969-1.804 1.083-3.608 2.887-4.69 4.691-2.165 3.97-.722 8.3-.361 12.629 0 .36-3.608 1.443-3.97 1.804-4.69 2.165-7.937 6.495-9.38 11.546-2.526 9.382 4.33 22.732 15.515 20.567 13.35-2.525 11.185-16.597 11.185-16.597-1.443-3.97-2.165-6.134-2.886-8.66 0 .36 2.165.721 2.526.721 1.082.361 2.164 1.083 3.247 1.805 5.412 3.969 6.495 10.824 5.412 16.958-1.443 9.382-9.02 17.68-19.123 17.68-15.155 0-28.505-12.628-27.062-28.144.721-9.381 7.577-17.32 15.876-21.288.722-.361 1.443-1.083 1.804-1.804.722-.722 1.083-1.444 1.083-2.165 0-.361 0-1.083-.361-1.444v-.721c-1.083-2.165-3.608-3.248-6.134-2.165-12.629 5.773-21.65 18.041-21.289 32.113.361 13.35 8.66 25.98 21.289 31.392 11.907 5.051 26.7 3.608 35.721-6.134 6.495-7.577 9.743-18.763 7.217-28.505zm-24.536 3.247c-.722 2.887-4.69 6.856-8.3 4.33-1.803-1.083-2.886-2.887-2.886-4.33v-2.526c.361-2.886 1.444-5.412 3.609-6.855 1.082-1.083 2.525-1.804 4.33-2.165l3.608 10.103c-.361 0-.361.721-.361 1.443z" style="stroke-width:3.60824;fill:#fff" transform="translate(0 -860.362)"/></svg>