<svg xmlns="http://www.w3.org/2000/svg" id="svg2" width="192" height="192" version="1.1"><defs id="defs4"><style id="style1026">.cls-1{fill:#fff}.cls-3{fill:url(#radial-gradient-2)}.cls-4{fill:url(#radial-gradient-3)}.cls-5,.cls-6{fill:#002d6a}.cls-6,.cls-7{stroke-width:.25px}.cls-6{stroke:#000;stroke-miterlimit:10}.cls-7{fill:none;stroke:#002d6a}</style></defs><g id="layer1" transform="translate(0 -860.362)"><g id="g939" style="stroke-width:1" transform="matrix(.98305 0 0 .98305 -1231.983 -30.05)"><path id="path935" d="M1412.39 978.719c-5.622-1.524-11.577-.86-17.393 1.385-17.225 6.627-33.517 27.038-38.595 45.949-6.76 25.295 5.829 50.692 28.126 56.64a37.781 37.781 0 0 0 19.492-.044c15.193-4.023 28.38-17.077 33.185-34.96 6.775-25.273-2.459-62.97-24.815-68.97" style="fill:#f8c28d;fill-opacity:1;stroke-width:.999999"/><path id="path937" d="M1324.97 62.527c-8.715-.025-17.065 3.243-24.603 8.739-22.328 16.248-37.969 52.055-37.984 81.353.026 39.175 28.056 71.006 62.584 70.969a56.53 56.53 0 0 0 28.152-7.613c1.532-.879 2.95-1.958 4.406-2.971-.46-.611-.954-1.197-1.386-1.828a52.991 52.991 0 0 1-4.78-8.62 56.186 56.186 0 0 1-3.158-9.355 57.187 57.187 0 0 1-1.492-9.75 55.547 55.547 0 0 1 0-8.062c.19-2.68.562-5.348 1.102-7.983a67.034 67.034 0 0 1 2.097-7.789 72.132 72.132 0 0 1 2.983-7.492 93.263 93.263 0 0 1 5.338-9.756 88.902 88.902 0 0 1 6.492-9.04 83.061 83.061 0 0 1 7.597-8.118 77.066 77.066 0 0 1 8.653-6.988c.097-.067.205-.118.302-.184-10.108-29.271-31.448-55.502-56.298-55.512z" style="fill:#fefefe;fill-opacity:1;stroke-width:.999999" transform="translate(0 860.362)"/></g></g></svg>