<?xml version="1.0" encoding="UTF-8" standalone="no"?>
<svg
   xml:space="preserve"
   style="fill-rule:evenodd;clip-rule:evenodd;stroke-linejoin:round;stroke-miterlimit:2"
   viewBox="0 0 192 192"
   version="1.1"
   id="svg6"
   sodipodi:docname="nextbike.svg"
   inkscape:export-filename="nextbike.png"
   inkscape:export-xdpi="96"
   inkscape:export-ydpi="96"
   inkscape:version="1.2.2 (b0a8486541, 2022-12-01)"
   xmlns:inkscape="http://www.inkscape.org/namespaces/inkscape"
   xmlns:sodipodi="http://sodipodi.sourceforge.net/DTD/sodipodi-0.dtd"
   xmlns="http://www.w3.org/2000/svg"
   xmlns:svg="http://www.w3.org/2000/svg"><defs
     id="defs10" /><sodipodi:namedview
     id="namedview8"
     pagecolor="#505050"
     bordercolor="#eeeeee"
     borderopacity="1"
     inkscape:showpageshadow="0"
     inkscape:pageopacity="0"
     inkscape:pagecheckerboard="0"
     inkscape:deskcolor="#d1d1d1"
     showgrid="false"
     inkscape:zoom="1.7383042"
     inkscape:cx="-15.532379"
     inkscape:cy="125.12195"
     inkscape:window-width="1884"
     inkscape:window-height="1055"
     inkscape:window-x="36"
     inkscape:window-y="0"
     inkscape:window-maximized="1"
     inkscape:current-layer="svg6" /><circle
     cx="88"
     cy="88"
     r="88"
     style="fill:#728dbe"
     transform="translate(8 8)"
     id="circle2" /><path
     d="m 66.380306,86.920811 c 0.508613,1.235203 -0.799249,1.017226 0.07266,2.979019 0.581272,1.235203 3.705609,6.53931 14.241165,8.573762 1.017226,0.217977 6.684628,0.871909 10.753533,-1.45318 1.380521,-0.799249 -1.889135,-0.72659 -3.560292,-6.975264 -0.581272,-2.252429 -0.72659,-5.594743 -4.286881,-8.646422 -3.705609,-3.196996 -9.518329,-4.650176 -15.403709,-4.504858 -2.833701,0.07266 -8.210467,0.435954 -8.646421,1.162544 -0.508613,1.017226 2.979019,2.325088 3.996245,3.560291 0.799249,0.944568 -0.290636,1.453181 -0.07266,2.179771 0.363295,1.45318 2.688383,2.615724 2.90636,3.124337 z m 51.660554,0.217977 c -8.13781,0 -14.45914,6.611969 -14.45914,14.749782 0,8.06515 6.32133,14.5318 14.45914,14.5318 8.21047,0 14.45914,-6.53931 14.45914,-14.5318 0,-8.137813 -6.24867,-14.749782 -14.45914,-14.749782 z m 0,25.067352 c -5.30411,0 -9.66365,-4.65017 -9.66365,-10.31757 0,-5.812725 4.35954,-10.53556 9.66365,-10.53556 5.37677,0 9.73631,4.722835 9.73631,10.53556 0,5.74006 -4.35954,10.31757 -9.73631,10.31757 z m -9.88163,-24.631398 c 3.34232,-1.743816 8.13781,-2.833701 8.13781,-6.248675 0,-2.90636 -3.77827,-4.940812 -5.37676,-5.594743 -1.23521,-0.508613 -2.61573,-0.145318 -3.12434,1.017226 -0.50861,1.017226 0.29063,2.252429 1.67116,2.761042 1.45318,0.508613 2.10711,1.235203 1.88913,1.816475 -0.21798,0.653931 -1.96179,0.871908 -5.15879,2.470407 -1.67116,0.799249 -3.12434,2.107111 -4.50486,3.63295 -1.45318,1.525839 -2.906358,4.286881 -3.705607,5.958038 -3.051678,5.81272 -8.864399,7.556538 -9.808966,7.701858 v 0.87191 c 0,5.6674 -4.35954,10.31757 -9.736306,10.31757 -5.304108,0 -9.663648,-4.65017 -9.663648,-10.31757 0,-1.74382 0.435954,-3.414979 1.089885,-4.868159 -1.017226,-0.72659 -2.90636,-2.397747 -3.850927,-3.414973 -0.871908,1.45318 -2.107111,4.432199 -2.107111,8.283132 0,8.06514 6.321333,14.5318 14.459142,14.5318 7.2659,0 12.933303,-5.01348 14.241165,-11.6981 5.304107,-2.17977 7.483873,-5.37677 9.082373,-8.719085 1.38052,-3.124337 3.12434,-6.757287 6.46665,-8.501103 z"
     style="fill:#ffffff;fill-rule:nonzero;stroke-width:0.72659"
     id="path4" /></svg>
