<?xml version="1.0" encoding="UTF-8"?>
<svg version="1.1" viewBox="0 0 192 192" xmlns="http://www.w3.org/2000/svg">
 <rect class="a" x="20" y="20" width="152" height="152" rx="10" style="fill:#728dbe"/>
 <path d="m62.869 131.75c1.8049-0.0423 4.7584-0.0423 6.5633 0s0.32816 0.0769-3.2816 0.0769c-3.6098 0-5.0865-0.0346-3.2816-0.0769zm36.516-0.0806c-3.7329-0.48459-8.8939-2.475-12.051-4.6476-3.3496-2.3051-6.4547-5.9294-9.2005-10.739-2.604-4.5612-2.5764-4.3971-2.544-15.147 0.01526-5.0598 0.09884-10.258 0.18575-11.553l0.15803-2.3529 2.6991 4.3342c1.4845 2.3838 3.5809 5.7831 4.6586 7.554 6.1662 10.132 9.411 14.846 11.545 16.772 2.9267 2.6423 8.3113 3.9833 12.704 3.1639 2.1123-0.39404 5.5939-2.2035 7.3269-3.8079 1.7758-1.6441 2.871-3.2607 3.7654-5.5581l0.64395-1.6541 0.0701-23.962 0.0701-23.962h13.13l-0.078 24.829c-0.0769 24.494-0.0851 24.854-0.60712 26.687-1.2802 4.4941-3.3812 8.1812-6.5822 11.551-4.6711 4.9174-10.429 7.6436-17.969 8.5076-2.4758 0.28369-5.6695 0.27758-7.9246-0.0152zm-39.866-31.622 0.06743-31.392 0.5555-1.3622c2.0871-5.118 7.9686-8.1701 13.172-6.8354 3.3883 0.869 6.4926 3.0608 7.8312 5.5291 1.2156 2.2416 2.8668 4.9619 5.679 9.3557 1.6565 2.5882 3.8883 6.1546 4.9596 7.9255 2.7571 4.5575 7.6627 12.631 9.6693 15.913 2.8093 4.5951 2.577 6.1797 2.6506-18.08l0.0633-20.866 13.003-0.132-0.022 15.05c-0.0121 8.2776-0.11019 18.784-0.21798 23.347-0.17191 7.2777-0.25672 8.4839-0.69037 9.8187-0.93373 2.874-3.2374 5.6179-5.8161 6.9278-2.4743 1.2568-6.6023 1.6746-9.395 0.95092-4.3478-1.1266-6.2606-2.8987-10.359-9.597-1.5665-2.5601-3.3808-5.5136-4.0318-6.5633-0.65096-1.0497-1.8285-2.9674-2.6168-4.2615-3.0805-5.0572-6.1568-10.078-9.4806-15.473l-1.827-2.9654-0.06301 27.051-0.06302 27.051h-13.135z" style="fill:#fff;stroke-width:.24767"/>
</svg>
