<?xml version="1.0" encoding="UTF-8" standalone="no"?>
<svg
   version="1.1"
   viewBox="0 0 192 192"
   xml:space="preserve"
   id="svg12"
   sodipodi:docname="nonocross.svg"
   inkscape:export-filename="nonocross.png"
   inkscape:export-xdpi="96"
   inkscape:export-ydpi="96"
   inkscape:version="1.2.2 (b0a8486541, 2022-12-01)"
   xmlns:inkscape="http://www.inkscape.org/namespaces/inkscape"
   xmlns:sodipodi="http://sodipodi.sourceforge.net/DTD/sodipodi-0.dtd"
   xmlns="http://www.w3.org/2000/svg"
   xmlns:svg="http://www.w3.org/2000/svg"><defs
   id="defs16" /><sodipodi:namedview
   id="namedview14"
   pagecolor="#505050"
   bordercolor="#eeeeee"
   borderopacity="1"
   inkscape:showpageshadow="0"
   inkscape:pageopacity="0"
   inkscape:pagecheckerboard="0"
   inkscape:deskcolor="#d1d1d1"
   showgrid="false"
   inkscape:zoom="2.4583333"
   inkscape:cx="22.779661"
   inkscape:cy="85.627119"
   inkscape:window-width="1884"
   inkscape:window-height="1055"
   inkscape:window-x="36"
   inkscape:window-y="0"
   inkscape:window-maximized="1"
   inkscape:current-layer="svg12" />
	 <rect
   class="a"
   x="20"
   y="20"
   width="152"
   height="152"
   rx="10"
   fill="#fff"
   id="rect2" /><path
   d="m 73.029602,66.240984 -13.14915,55.481536 c -1.112986,4.70796 1.80108,9.42695 6.509547,10.54052 4.707967,1.11298 9.426952,-1.80108 10.540523,-6.50955 l 7.748916,-32.730129 z"
   fill="#54688c"
   id="path4"
   style="stroke-width:5.51793" /><path
   d="M 107.49186,99.158935 89.181386,64.36945 72.907727,66.427636 84.557647,93.209262 102.87897,128.00876 Z"
   fill="#728dbe"
   id="path6"
   style="stroke-width:5.51793" /><path
   d="m 123.29054,59.5053 c -3.94591,0.135741 -7.313,2.894199 -8.22289,6.735767 l -7.74892,32.730131 -4.61247,28.851002 16.27366,-2.06921 13.13746,-55.470679 c 1.11908,-4.711223 -1.79665,-9.437804 -6.51013,-10.55054 -0.75872,-0.17823 -1.53838,-0.253826 -2.31696,-0.226237 z"
   fill="#9abeff"
   id="path8"
   style="stroke-width:5.51793" /></svg>
