<svg xmlns="http://www.w3.org/2000/svg" viewBox="0 0 175.55 164.45"><path fill="#71a372" d="M149.59 129.27c.4 1.92-2.09-.7-1.26-.49 3.72.94 12.7-22.55 25.06-56 5.48 9.91 3.43 60.8-45.07 81a130.46 130.46 0 0 1-30 8.93c-27.59 4.51-54.11-.34-80.15-9.18-6-2.06-12.11-4-17.7-7.23 3.08-.71 5.88.79 8.7 1.42 11.45 2.59 23 4.51 34.62 6a216.25 216.25 0 0 0 40.29 1.24c13.61-.79 27-3.27 39.76-8.55a79.45 79.45 0 0 0 25.75-17.14Z"/><path fill="#98dc9a" d="M12.96 150.07c11.45 2.59 23 4.51 34.61 6a217.08 217.08 0 0 0 40.29 1.24c13.61-.79 27-3.27 39.76-8.55a79.33 79.33 0 0 0 25.78-17.12s61.29-72-20-80.24c-.88-.09.79-1.1 1.11-1.5 9-11.5 18-23 27.07-34.43 1.63-2 1.71-3.06-.77-4.43-6-3.33-11.77-6.92-17.6-10.48-1.5-.95-2.13-.71-2.61 1-1.08 3.82-2.29 7.62-3.43 11.42-3.27 10.87-6.49 21.77-9.73 32.61-.37-.05-.5 0-.56-.08l-2.24-3a49.29 49.29 0 0 0-24.09-18c-9.77-3.54-19.77-3.75-29.84-1.9a55.7 55.7 0 0 0-31.61 17c-5.38 5.75-9.21 12.45-12.64 19.42-1.74 5.08-3.68 10.09-4.68 15.37l-5 32.48a136.47 136.47 0 0 1-10.71 27.57l-4.65 8.26c-2.71 4.3-1.79 3.43 3.15 5Z"/><path fill="#fff" d="M81.88 103.86v21.07c0 1.48-.47 2.06-1.88 2.28-4.64.71-9.28 1.13-13.91.21-3.95-.77-6.19-3.21-6.7-7.21a25.91 25.91 0 0 1-.18-3.29c0-12.87.1-25.73-.06-38.58a11.76 11.76 0 0 1 5.51-10.56c6.48-4.46 13.83-6.48 21.57-7.1a51.18 51.18 0 0 1 19.72 1.77c10.48 3.33 16.53 10.86 16.73 21.78.24 13.72.06 27.46.12 41.17 0 1.11-.36 1.49-1.41 1.67a39.24 39.24 0 0 1-14.37.35 7.63 7.63 0 0 1-6.66-7 23.24 23.24 0 0 1-.22-3.53c0-9.85-.16-19.72 0-29.58.16-8.12-5-9.51-10.43-9.07-.23 0-.47.07-.69.11-6.92 1-7.12 1.27-7.12 8.23-.02 5.76-.02 11.53-.02 17.28Z"/></svg>