<?xml version="1.0" encoding="UTF-8" standalone="no"?>
<svg
   viewBox="0 0 192 192"
   version="1.1"
   id="svg16"
   sodipodi:docname="nosurf_for_reddit.svg"
   inkscape:version="1.2.2 (b0a8486541, 2022-12-01)"
   inkscape:export-filename="nosurf_for_reddit.png"
   inkscape:export-xdpi="96"
   inkscape:export-ydpi="96"
   xmlns:inkscape="http://www.inkscape.org/namespaces/inkscape"
   xmlns:sodipodi="http://sodipodi.sourceforge.net/DTD/sodipodi-0.dtd"
   xmlns="http://www.w3.org/2000/svg"
   xmlns:svg="http://www.w3.org/2000/svg">
  <defs
     id="defs20" />
  <sodipodi:namedview
     id="namedview18"
     pagecolor="#505050"
     bordercolor="#eeeeee"
     borderopacity="1"
     inkscape:showpageshadow="0"
     inkscape:pageopacity="0"
     inkscape:pagecheckerboard="0"
     inkscape:deskcolor="#d1d1d1"
     showgrid="false"
     inkscape:zoom="1.2291667"
     inkscape:cx="13.016949"
     inkscape:cy="-72.813559"
     inkscape:window-width="1884"
     inkscape:window-height="1055"
     inkscape:window-x="36"
     inkscape:window-y="0"
     inkscape:window-maximized="1"
     inkscape:current-layer="svg16" />
  <circle
     style="fill:#56595b;stroke-width:4.4;stroke-linecap:round;stroke-linejoin:round;paint-order:stroke fill markers"
     id="path415"
     cx="96"
     cy="96"
     r="88" />
  <path
     d="m 37.5515,46.779125 c 0,0 -17.2645,12.687125 -17.61925,50.059625 -0.336875,35.52725 29.9805,74.41087 75.508125,75.229 28.169625,0.506 65.546245,-19.16888 66.838745,-51.73713 0.73975,-18.645 -12.386,-40.672495 -38.59212,-40.551495 C 93.50025,79.919375 91.458375,106.63287 68.5935,106.90787 46.308875,107.17462 36.6275,98.9975 32.322375,82.699625 26.4305,60.39025 37.5515,46.779125 37.5515,46.779125 Z"
     style="fill:#ffffff;stroke-width:0.727273"
     id="path6" />
  <path
     d="m 108.11513,56.47975 c 0,0 -4.72175,-10.7745 -19.23213,-18.409875 -15.774,-8.2995 -40.2105,-1.694 -50.00325,18.943375 -6.059625,12.76825 -4.8015,33.92125 9.81475,41.25 8.36825,4.1965 21.15025,2.75413 26.516875,-9.246875 6.182,-13.82425 -5.603125,-20.284 -0.99825,-30.790375 4.489375,-10.239625 10.23,-12.973125 18.568,-11.567875 11.413875,1.923625 15.334005,9.821625 15.334005,9.821625 z"
     style="fill:#ffffff;stroke-width:0.501666"
     id="path8" />
  <path
     d="m 86.87,136.38375 c 0,0 4.8015,10.26575 18.95712,17.27825 15.38763,7.62163 38.76813,0.68475 47.71525,-19.42325 5.53575,-12.441 3.82525,-32.7855 -10.42525,-39.499625 -8.15925,-3.8445 -20.43662,-2.154625 -25.32337,9.531495 -5.62787,13.46126 5.87537,19.404 1.68712,29.63125 -4.081,9.96875 -9.54525,12.73663 -17.60962,11.58025 C 90.831375,143.89813 86.87,136.38375 86.87,136.38375 Z"
     style="fill:#56595b;stroke-width:0.483325"
     id="path10" />
  <path
     d="m 44.496625,71.1345 c 0,0 -3.100625,3.447125 -3.48425,9.9 -0.41525,7.0125 5.929,14.713875 14.9325,14.876125 C 61.516375,96.011 68.907,92.11975 69.16275,85.67925 69.309875,81.9915 66.713875,77.6355 61.5315,77.66025 55.56125,77.68775 55.158375,82.9705 50.636,83.024125 46.229125,83.07775 44.315125,81.46075 43.464,78.23775 42.298,73.825375 44.496625,71.1345 44.496625,71.1345 Z"
     style="fill:#56595b;stroke-width:0.197757"
     id="path12" />
  <path
     d="m 146.699,121.22438 c 0,0 3.102,-3.44713 3.48425,-9.9 0.41662,-7.0125 -5.929,-14.715255 -14.9325,-14.877505 -5.57012,-0.099 -12.96213,3.792245 -13.21787,10.232745 -0.14575,3.68638 2.45025,8.04375 7.63125,8.019 5.97024,-0.0275 6.37449,-5.31025 10.89549,-5.36525 4.40688,-0.0523 6.32226,1.56475 7.17338,4.78775 1.16463,4.411 -1.034,7.10325 -1.034,7.10326 z"
     style="fill:#ffffff;stroke-width:0.197757"
     id="path14" />
</svg>
