<?xml version="1.0" encoding="UTF-8"?>
<svg version="1.1" viewBox="0 0 192 192" xmlns="http://www.w3.org/2000/svg">
 <defs>
  <clipPath id="clipPath14">
   <rect class="a" x="32" y="8" width="128" height="176" rx="10" style="fill:#728dbe"/>
  </clipPath>
  <clipPath id="clipPath15">
   <rect class="a" x="32" y="8" width="128" height="176" rx="10" style="fill:#728dbe"/>
  </clipPath>
  <clipPath id="clipPath16">
   <rect class="a" x="32" y="8" width="128" height="176" rx="10" style="fill:#728dbe"/>
  </clipPath>
 </defs>
 <rect class="a" x="32" y="8" width="128" height="176" rx="10" style="fill:#728dbe"/>
 <circle cx="94.952" cy="98.637" r="14.062" style="fill:#fff;stroke-linecap:round;stroke-linejoin:round;stroke-width:2"/>
 <circle cx="84.699" cy="59.672" r="6.9336" style="fill:#fff;stroke-linecap:round;stroke-linejoin:round;stroke-width:2"/>
 <circle cx="114.78" cy="70.805" r="6.9336" style="fill:#fff;stroke-linecap:round;stroke-linejoin:round;stroke-width:2"/>
 <circle cx="115.95" cy="119.63" r="6.9336" style="fill:#fff;stroke-linecap:round;stroke-linejoin:round;stroke-width:2"/>
 <circle cx="89.972" cy="132.33" r="6.9336" style="fill:#fff;stroke-linecap:round;stroke-linejoin:round;stroke-width:2"/>
 <circle cx="67.511" cy="85.844" r="6.9336" style="fill:#fff;stroke-linecap:round;stroke-linejoin:round;stroke-width:2"/>
 <path d="m84.699 59.672 8.6914 30.762" style="fill:none;stroke-linecap:round;stroke-linejoin:round;stroke-width:4;stroke:#fff"/>
 <path d="m114.78 70.805-16.113 20.996" style="fill:none;stroke-linecap:round;stroke-linejoin:round;stroke-width:4;stroke:#fff"/>
 <path d="m115.95 119.63-15.918-14.355" style="fill:none;stroke-linecap:round;stroke-linejoin:round;stroke-width:4;stroke:#fff"/>
 <path d="m89.972 132.33 3.418-25.098" style="fill:none;stroke-linecap:round;stroke-linejoin:round;stroke-width:4;stroke:#fff"/>
 <path d="m67.511 85.844 19.434 9.2773" style="fill:none;stroke-linecap:round;stroke-linejoin:round;stroke-width:4;stroke:#fff"/>
 <path d="m162.74 79.443s-19.556 2.2646-19.531 5.8594c0.0636 9.3804 0.0146 36.621 0.0146 36.621l21.763-7.8125 1.3672-37.5z" clip-path="url(#clipPath16)" style="fill:#9abeff"/>
 <path d="m162.74 111.07s-19.534 2.2646-19.509 5.8594c0.0636 9.3804-0.0174 36.621-0.0174 36.621l21.773-7.8125 1.3672-37.5z" clip-path="url(#clipPath15)" style="fill:#728dbe"/>
 <path d="m162.74 111.07s-19.534 2.2646-19.509 5.8594c0.0636 9.3804-0.0174 36.621-0.0174 36.621l21.773-7.8125 1.3672-37.5z" clip-path="url(#clipPath15)" style="fill-opacity:.15"/>
 <path d="m162.74 146.54s-19.548 2.2646-19.523 5.8594c0.0636 9.3804-8e-3 26.539-8e-3 26.539l21.777 2.2693 1.3672-37.5z" clip-path="url(#clipPath14)" style="fill:#54688c"/>
 <path d="m142.69 178.94c-1.4356 2.3312-3.6998 4.0179-6.7926 5.0601h14.708c6.2665-0.5944 8.0195-4.7898 8.6327-6.158l-9.8756-5.9954z" style="fill:#54688c"/>
</svg>
