<?xml version="1.0" encoding="UTF-8"?>
<svg id="Layer_1" data-name="Layer 1" xmlns="http://www.w3.org/2000/svg" viewBox="0 0 192 192">
  <defs>
    <style>
      .cls-1 {
        fill: #56595b;
      }

      .cls-2 {
        fill: #98dc9a;
        isolation: isolate;
      }
    </style>
  </defs>
  <path class="cls-2" d="m30,20h132c5.5,0,10,4.5,10,10v132c0,5.5-4.5,10-10,10H30c-5.5,0-10-4.5-10-10V30c0-5.5,4.5-10,10-10Z"/>
  <path class="cls-1" d="m99.48,114.47c2.55-1.22,5.11-2.13,7.69-2.74s5.23-.91,7.95-.91c2.09,0,4.13.17,6.13.52s4.01.87,6.04,1.56v-34.43c-1.91-.81-3.9-1.42-5.95-1.83s-4.13-.61-6.22-.61c-2.72,0-5.42.35-8.08,1.04s-5.19,1.74-7.56,3.13v34.25Zm-3.48,8.43c-.81,0-1.58-.1-2.3-.3s-1.41-.48-2.04-.83c-2.26-1.33-4.64-2.33-7.13-3s-5.04-1-7.65-1c-2.43,0-4.82.32-7.17.96s-4.59,1.54-6.74,2.69c-1.22.64-2.39.61-3.52-.09s-1.7-1.71-1.7-3.04v-41.9c0-.64.16-1.25.48-1.83s.8-1.01,1.43-1.3c2.72-1.33,5.52-2.36,8.39-3.09s5.81-1.09,8.82-1.09c3.36,0,6.65.43,9.87,1.3s6.3,2.17,9.26,3.91c2.96-1.74,6.04-3.04,9.26-3.91s6.51-1.3,9.87-1.3c3.01,0,5.95.36,8.82,1.09s5.67,1.75,8.39,3.09c.64.29,1.12.72,1.43,1.3s.48,1.19.48,1.83v41.9c0,1.33-.57,2.35-1.7,3.04s-2.3.72-3.52.09c-2.14-1.16-4.39-2.06-6.74-2.69s-4.74-.96-7.17-.96c-2.61,0-5.16.33-7.65,1s-4.87,1.67-7.13,3c-.64.35-1.32.62-2.04.83-.72.2-1.49.3-2.3.3Zm6.95-37.21c0-.52.19-1.06.57-1.61s.8-.91,1.26-1.09c1.68-.58,3.36-1.01,5.04-1.3s3.45-.43,5.3-.43c1.16,0,2.3.07,3.43.22s2.25.33,3.35.57c.52.12.97.41,1.35.87s.57.99.57,1.56c0,.99-.32,1.71-.96,2.17s-1.45.58-2.43.35c-.81-.17-1.67-.3-2.56-.39s-1.81-.13-2.74-.13c-1.51,0-2.98.14-4.43.43s-2.84.67-4.17,1.13c-1.04.41-1.9.38-2.56-.09s-1-1.22-1-2.26Zm0,19.12c0-.52.19-1.06.57-1.61s.8-.91,1.26-1.09c1.68-.58,3.36-1.01,5.04-1.3s3.45-.43,5.3-.43c1.16,0,2.3.07,3.43.22s2.25.33,3.35.57c.52.12.97.41,1.35.87s.57.99.57,1.56c0,.99-.32,1.71-.96,2.17s-1.45.58-2.43.35c-.81-.17-1.67-.3-2.56-.39s-1.81-.13-2.74-.13c-1.51,0-2.98.13-4.43.39s-2.84.62-4.17,1.09c-1.04.41-1.9.39-2.56-.04s-1-1.17-1-2.22Zm0-9.56c0-.52.19-1.06.57-1.61.38-.55.8-.91,1.26-1.09,1.68-.58,3.36-1.01,5.04-1.3s3.45-.43,5.3-.43c1.16,0,2.3.07,3.43.22s2.25.33,3.35.57c.52.12.97.41,1.35.87s.57.99.57,1.56c0,.99-.32,1.71-.96,2.17s-1.45.58-2.43.35c-.81-.17-1.67-.3-2.56-.39s-1.81-.13-2.74-.13c-1.51,0-2.98.14-4.43.43s-2.84.67-4.17,1.13c-1.04.41-1.9.38-2.56-.09s-1-1.22-1-2.26Z"/>
</svg>