<svg xmlns="http://www.w3.org/2000/svg" xml:space="preserve" viewBox="0 0 192 192"><rect width="152" height="152" x="20" y="20" rx="10" ry="10" style="fill:#fff;fill-opacity:1;stroke:none;stroke-width:201.127;stroke-linecap:square;stroke-linejoin:round;stroke-miterlimit:2;stroke-dashoffset:6;paint-order:stroke fill markers;stop-color:#000"/><path fill="#e20917" d="M117.978 76.1v8l5.4-1.9v22.2c-.6 6.4-7.3 4.4-9.5 2.7-.7-.5-5.7-4-5.7-4 4.9-1.7 12.5-8 8.7-16.5-4.7-8.7-13.1-5.8-13.1-5.8l-22.8 8v7.8l3.3-1.2v11l-14.6-13.8-15.1 5.3v7.9l4.6-1.7v22.5l-4.5 1.6v8.3l17.2-6v-18.6l9.5 8.6 24.3-6.5s3.2 2.6 5.6 4.3c4.1 3 9.1 3.6 14.7 2.1 6.1-1.7 11.4-7.1 11.4-15V69.3zm-14.7 20.6c-1.6.6-6.4 2.3-6.4 2.3v-7.6s3.3-1.2 4.9-1.7c1.6-.6 3 1 3.1 2.6.1 1.4.4 3.4-1.6 4.4zm25.8-27.5c4.6 0 8.3-3.7 8.3-8.3 0-4.6-3.7-8.3-8.3-8.3-4.6 0-8.3 3.7-8.3 8.3.1 4.6 3.8 8.3 8.3 8.3z" style="fill:#ff837d;fill-opacity:1" transform="matrix(.97926 0 0 .97926 1.99 1.99)"/><path fill="#af191b" d="M12.4 79.5 7 74.1l.5-2.2 9.8-.4v6.3z" style="fill:#ba6561;fill-opacity:1" transform="matrix(.97926 0 0 .97926 55.437 53.5)"/><path fill="#1d1e1c" d="M137.378 104.9c-.4 6.3-4.4 11.5-12.9 12-4 .3-6.3-1.1-8.3-2.2-3.6-1.8-9.6-7.2-13.3-8.6-2.7-1.1-6.4-1.5-10.1-.7-3.7.9-5.8 2.2-7.3 3.3-1.5 1.2-3.9 3.5-4.5 4.1-.6.6-2.3 2.6-2.4 2.6-.1 0-.6-.5-.8-.8-.2-.3-.5-.8-.6-.9-.2 0-1.1 1.3-1.1 2-.1.7.3 1.7.3 2 0 .2-.3.4-.4.5-.1 0-.8-.9-.9-.9-.1 0-.4.6-.5 1-.1.4.1 1.4.1 1.4-.9.7-2.4 1.6-4.1 2-1.1.3-6.3.8-6.4.9-.2.1-2.5 2.1-2.5 2.1l.1 2 .5-.5.9 1.5.5-1s.7 1 1.1 1.5c.2-.8 1.1-2.5 2.4-2.9 1.3-.5 7.8-.6 8-.7 0 .2-.4 1.2-.4 1.2 0 .1 1.4 1.6 1.5 1.6.1 0 .8-.2.9-.3.1 0 .1-.2.2-.3 0 0 .5 0 .8-.1-.7-.2-.7-.6-.5-1 .2-.4 1.2-.5 1.8-.1.6.4.9 1 .6 1.6-.2.6-1 .3-1.1.3.1.1.6.4.6.5v.2s.2.2.3.2c.1 0 2.3-1.2 2.4-1.3.2-.1.6-.6.9-1.1 0 0-.7-.5-.7-1.4 0-.9.8-1.4 1.7-1.3.9.1 1.3.9 1.1 1.9-.2.8-4.2 5.4-7.8 7.2-2.4 1.4-4.5 1.2-4.7 1.2-.1 0-2.3 1.9-2.3 1.9l-.1 1.7.4-.2.6 1.7.4-.7 1.3 1.4.3-1.2 1.6 1.2s.1-.6.1-1.1c.2-.2 2.7-2.4 2.9-2.6.3-.2 3.8-2 7-4.2 3.6-2.4 7.1-5 7.1-5.6-.4-.4-2.2-2-2.1-3.8.1-1.8 2.1-3.5 4.5-4.6 2.4-1.1 5.5-.7 7.6.9 1.4 1 7.6 5.2 15.8 4.8 8.6-.5 13.7-3.3 16.7-8.5 3.1-5 2.9-8.9 2.8-9.8z" style="fill:#56595b;fill-opacity:1" transform="matrix(.97926 0 0 .97926 1.99 1.99)"/><path fill="#fff" d="m76.785 122.342.587-2.448.783.294-.979 2.056z"/></svg>