<?xml version="1.0" encoding="UTF-8" standalone="no"?>
<svg
   viewBox="0 0 192 192"
   version="1.1"
   id="svg3"
   sodipodi:docname="nte.svg"
   inkscape:version="1.4.4 (dcaf3e7d9e, 2026-05-05)"
   xml:space="preserve"
   inkscape:export-filename="nte.png"
   inkscape:export-xdpi="96"
   inkscape:export-ydpi="96"
   xmlns:inkscape="http://www.inkscape.org/namespaces/inkscape"
   xmlns:sodipodi="http://sodipodi.sourceforge.net/DTD/sodipodi-0.dtd"
   xmlns="http://www.w3.org/2000/svg"
   xmlns:svg="http://www.w3.org/2000/svg"><defs
     id="defs1"><clipPath
       clipPathUnits="userSpaceOnUse"
       id="clipPath64"><rect
         class="a"
         x="20"
         y="20"
         width="152"
         height="152"
         rx="10"
         id="rect65"
         style="display:inline;opacity:1;fill:#f9de81;fill-opacity:1;stroke:none" /></clipPath><clipPath
       clipPathUnits="userSpaceOnUse"
       id="clipPath70"><rect
         class="a"
         x="20"
         y="20"
         width="152"
         height="152"
         rx="10"
         id="rect70"
         style="display:inline;opacity:1;fill:#f9de81;fill-opacity:1;stroke:none" /></clipPath><clipPath
       clipPathUnits="userSpaceOnUse"
       id="clipPath71"><rect
         class="a"
         x="20"
         y="20"
         width="152"
         height="152"
         rx="10"
         id="rect71"
         style="display:inline;opacity:1;fill:#f9de81;fill-opacity:1;stroke:none" /></clipPath><clipPath
       clipPathUnits="userSpaceOnUse"
       id="clipPath72"><rect
         class="a"
         x="20"
         y="20"
         width="152"
         height="152"
         rx="10"
         id="rect72"
         style="display:inline;opacity:1;fill:#f9de81;fill-opacity:1;stroke:none" /></clipPath><clipPath
       clipPathUnits="userSpaceOnUse"
       id="clipPath74"><rect
         class="a"
         x="20"
         y="20"
         width="152"
         height="152"
         rx="10"
         id="rect75"
         style="display:inline;opacity:1;fill:#f9de81;fill-opacity:1;stroke:none" /></clipPath><clipPath
       clipPathUnits="userSpaceOnUse"
       id="clipPath75"><rect
         class="a"
         x="20"
         y="20"
         width="152"
         height="152"
         rx="10"
         id="rect76"
         style="display:inline;opacity:1;fill:#f9de81;fill-opacity:1;stroke:none" /></clipPath><clipPath
       clipPathUnits="userSpaceOnUse"
       id="clipPath80"><rect
         class="a"
         x="20"
         y="20"
         width="152"
         height="152"
         rx="10"
         id="rect81"
         style="display:inline;opacity:1;fill:#f9de81;fill-opacity:1;stroke:none" /></clipPath><clipPath
       clipPathUnits="userSpaceOnUse"
       id="clipPath81"><rect
         class="a"
         x="20"
         y="20"
         width="152"
         height="152"
         rx="10"
         id="rect82"
         style="display:inline;opacity:1;fill:#f9de81;fill-opacity:1;stroke:none" /></clipPath><clipPath
       clipPathUnits="userSpaceOnUse"
       id="clipPath82"><rect
         class="a"
         x="20"
         y="20"
         width="152"
         height="152"
         rx="10"
         id="rect83"
         style="display:inline;opacity:1;fill:#f9de81;fill-opacity:1;stroke:none" /></clipPath><clipPath
       clipPathUnits="userSpaceOnUse"
       id="clipPath83"><rect
         class="a"
         x="20"
         y="20"
         width="152"
         height="152"
         rx="10"
         id="rect84"
         style="display:inline;opacity:1;fill:#f9de81;fill-opacity:1;stroke:none" /></clipPath></defs><sodipodi:namedview
     id="namedview3"
     pagecolor="#505050"
     bordercolor="#ffffff"
     borderopacity="1"
     inkscape:showpageshadow="0"
     inkscape:pageopacity="0"
     inkscape:pagecheckerboard="1"
     inkscape:deskcolor="#505050"
     inkscape:zoom="4"
     inkscape:cx="85.5"
     inkscape:cy="98.25"
     inkscape:window-width="1920"
     inkscape:window-height="1048"
     inkscape:window-x="0"
     inkscape:window-y="0"
     inkscape:window-maximized="1"
     inkscape:current-layer="svg3"
     showgrid="false" /><rect
     class="a"
     x="20"
     y="20"
     width="152"
     height="152"
     rx="10"
     id="rect1"
     style="display:inline;opacity:1;fill:#f9de81;fill-opacity:1;stroke:none" /><path
     style="display:inline;fill:#73ada4;stroke:none;stroke-width:1;stroke-dasharray:none;stroke-opacity:1;paint-order:markers fill stroke"
     d="m 37.918601,133.81996 c 0.74257,14.36554 3.323271,27.74132 8.396893,39.77475 l 55.684656,-0.35355 61.20893,-46.18291 -16.13087,-30.714951 z"
     id="path15"
     sodipodi:nodetypes="cccccc"
     inkscape:label="backhair"
     clip-path="url(#clipPath64)" /><path
     style="display:inline;fill:#d6c8ba;stroke:none;stroke-width:1;stroke-dasharray:none;stroke-opacity:1;paint-order:markers fill stroke"
     d="m 155.38671,131.03573 c 0,8.16692 10.28631,8.52947 16.61701,8.52947 l 0.30936,-21.52256 -8.3085,1.23743 z"
     id="path20"
     sodipodi:nodetypes="ccccc"
     inkscape:label="shoulder"
     clip-path="url(#clipPath70)" /><path
     style="display:inline;fill:#ffffff;stroke:none;stroke-width:1;stroke-dasharray:none;stroke-opacity:1;paint-order:markers fill stroke"
     d="m 99.0625,172.4205 0.1875,-9.858 6.5,-4.75 0.25,-3.1875 -6.09375,-8.375 c -5.407762,-7.43221 20.97189,-16.41667 32.09689,-21.4375 6.30791,1.00459 7.15311,9.84375 8.55936,13.6875 l 16.33211,-7.23614 c 4.32753,5.00603 8.74527,7.64376 15.18887,6.65426 l 0.29152,34.37738 z"
     id="path17"
     sodipodi:nodetypes="ccccscccccc"
     inkscape:label="dress"
     clip-path="url(#clipPath71)" /><g
     id="g63"
     inkscape:label="she has wifi??"><path
       style="fill:#9abeff;fill-opacity:1;stroke:#56595b;stroke-width:1.17668;stroke-linejoin:round;stroke-dasharray:none;stroke-opacity:1;paint-order:markers fill stroke"
       d="m 121.2719,158.80534 4.12806,0.0143 z"
       id="path58" /><path
       style="fill:#56595b;fill-opacity:1;stroke:none;stroke-width:1;stroke-linejoin:round;stroke-dasharray:none;stroke-opacity:1;paint-order:markers fill stroke"
       d="m 132.008,160.20388 c -3.56093,0.82481 -5.14901,0.59793 -7.44672,-0.30936 0.82628,-5.62188 4.3087,-7.74542 9.96578,-7.00478 0.20624,2.73268 -0.65848,5.31362 -2.51906,7.31414 z"
       id="path61"
       sodipodi:nodetypes="cccc" /><path
       style="fill:#ffffff;fill-opacity:1;stroke:none;stroke-width:1;stroke-linejoin:round;stroke-dasharray:none;stroke-opacity:1;paint-order:markers fill stroke"
       d="m 132.008,160.20388 c -3.47807,0.79719 -4.59106,0.49202 -5.23149,0.3747 1.16879,-4.99212 4.41891,-5.17016 7.64531,-5.21397 -0.33514,1.57259 -0.68582,2.86085 -2.41382,4.83927 z"
       id="path62"
       sodipodi:nodetypes="cccc" /><path
       style="fill:#9abeff;fill-opacity:1;stroke:none;stroke-width:1;stroke-linejoin:round;stroke-dasharray:none;stroke-opacity:1;paint-order:markers fill stroke"
       d="m 132.008,160.20388 c -2.3726,0.555 -3.68374,0.57639 -4.34761,0.51376 1.76541,-4.51703 3.28672,-4.29275 6.51312,-4.33656 -0.33514,1.57259 -0.43751,1.84438 -2.16551,3.8228 z"
       id="path63"
       sodipodi:nodetypes="cccc" /><path
       style="fill:#9abeff;fill-opacity:1;stroke:#56595b;stroke-width:1;stroke-linejoin:round;stroke-dasharray:none;stroke-opacity:1;paint-order:markers fill stroke"
       d="m 134.14062,153.14062 1.5,-2.53125 z"
       id="path57" /></g><path
     style="fill:#54688c;fill-opacity:1;stroke:none;stroke-width:1;stroke-linejoin:round;stroke-dasharray:none;stroke-opacity:1;paint-order:markers fill stroke"
     d="m 144.91269,171.05355 c 5.31237,-0.90741 10.74398,-4.07654 15.12222,-7.863 l -11.03426,3.46568 z"
     id="path60"
     sodipodi:nodetypes="cccc"
     inkscape:label="bowieshadow" /><path
     style="fill:#9abeff;fill-opacity:1;stroke:none;stroke-width:1;stroke-linejoin:round;stroke-dasharray:none;stroke-opacity:1;paint-order:markers fill stroke"
     d="m 144.90625,164.5625 c 2.36875,-6.92736 5.96826,-8.98519 10.25,-8.34375 l 4.96875,6.9375 c -2.11179,1.81777 -4.76127,-0.17751 -15.5,8.15625 z"
     id="path59"
     sodipodi:nodetypes="ccccc"
     inkscape:label="bowie" /><g
     id="g64"
     inkscape:label="catbell"
     style="display:inline"
     clip-path="url(#clipPath72)"><circle
       style="display:inline;fill:#f9de81;stroke:none;stroke-width:1;stroke-dasharray:none;stroke-opacity:1;paint-order:markers fill stroke"
       id="path21"
       cx="136.91354"
       cy="167.31914"
       r="8.9272232"
       inkscape:label="catbell" /><path
       id="path22"
       style="display:inline;fill:#8e6f60;stroke:none;stroke-width:1;stroke-dasharray:none;stroke-opacity:1;paint-order:markers fill stroke"
       inkscape:label="catbell-lock"
       d="m 136.49414,166.23633 a 1.6351844,1.6351844 0 0 0 -1.63476,1.63476 1.6351844,1.6351844 0 0 0 1.63476,1.63477 1.6351844,1.6351844 0 0 0 0.33789,-0.0352 h 0.002 l 1.24414,2.04492 1.67188,-0.0312 -1.99219,-2.57422 a 1.6351844,1.6351844 0 0 0 0.3711,-1.03907 1.6351844,1.6351844 0 0 0 -1.63477,-1.63476 z" /></g><path
     style="display:inline;fill:#d6c8ba;stroke:none;stroke-width:1;stroke-dasharray:none;stroke-opacity:1;paint-order:markers fill stroke"
     d="m 97.978483,139.78617 33.808547,-15.60054 c 4.52552,13.0874 2.34681,23.0685 -3.53554,26.42811 l -0.26516,3.18198 -2.25391,-1.5026 c -14.44768,7.3323 -21.00217,-6.20314 -27.753937,-12.50695 z"
     id="path19"
     sodipodi:nodetypes="cccccc"
     inkscape:label="neck" /><path
     style="display:inline;fill:#73ada4;stroke:none;stroke-width:1;stroke-dasharray:none;stroke-opacity:1;paint-order:markers fill stroke"
     d="m 150.20841,104.93658 c 2.72073,12.26437 1.19951,23.68821 -4.6328,33.47957 7.64922,-1.61602 11.70709,-4.80719 12.63953,-9.36916 -0.14104,2.24931 -0.74346,4.32774 -1.59099,5.98831 1.66291,-2.04836 3.49634,-4.16826 4.06587,-7.13736 1.00582,2.72679 -0.76584,5.83933 -1.72358,8.83884 3.89348,-3.69029 6.93265,-10.03606 6.0546,-18.38478 2.61206,4.01149 4.16423,7.77359 4.77298,11.31371 3.26212,-3.08689 2.5624,-10.03136 1.41421,-17.41251 l 2.2981,2.2981 c 1.10916,-11.39858 0.12719,-22.612644 -14.58408,-32.615302 -4.3573,4.571997 -8.1451,10.357291 -8.71384,23.000582 z"
     id="path18"
     sodipodi:nodetypes="cccccccccccc"
     inkscape:label="backhair but detailed"
     clip-path="url(#clipPath74)" /><path
     style="display:inline;fill:#fcecdc;stroke:none;stroke-width:1;stroke-dasharray:none;stroke-opacity:1;paint-order:markers fill stroke"
     d="M 119.08487,140.04428 C 88.207671,141.28605 84.341867,139.32106 78.523985,135.20295 55.446772,118.86805 32.527223,102.44149 35.896679,70.730627 l 105.765131,-4.255592 0.92122,34.189175 c -1.28078,18.98174 -21.07164,36.45987 -23.49816,39.38007 z"
     id="path1"
     sodipodi:nodetypes="cscccc"
     inkscape:label="face" /><path
     style="display:inline;fill:#ffffff;stroke:none;stroke-width:1;stroke-dasharray:none;stroke-opacity:1;paint-order:markers fill stroke"
     d="M 29.610096,74.246212 18.904058,67.307727 19.79899,103.85631 c 0.8934,1.12636 1.472224,2.66168 3.137786,2.78423 1.266183,-0.9619 2.526638,-1.92623 2.165515,-3.57973 1.199181,0.7856 1.047308,2.13646 1.107075,3.00344 4.510028,-8.499906 7.241479,-18.109226 3.40073,-31.818038 z"
     id="path14"
     sodipodi:nodetypes="ccccccc"
     inkscape:label="fur that needs to be behind the hair"
     clip-path="url(#clipPath75)" /><path
     style="display:inline;fill:#96dfd3;stroke:none;stroke-width:1;stroke-dasharray:none;stroke-opacity:1;paint-order:markers fill stroke"
     d="m 83.454255,124.45079 c -11.03362,18.9793 -21.360786,14.47514 -27.838019,13.58611 l 9.342739,9.26518 c -11.674584,1.54171 -13.32917,-3.96855 -16.899935,-8.32053 -0.354934,2.27721 1.562016,4.87812 2.715867,7.38007 -3.508631,-2.14573 -6.208633,-5.36497 -6.494465,-8.56088 0.547377,4.40453 -0.713174,8.63181 2.361624,13.28413 -9.972292,-11.53395 -10.186126,-25.5645 -12.98893,-39.02583 l -13.785115,11.05475 v -9.91882 C 26.2845,106.02778 31.279296,97.801188 30.819188,88.08856 30.585508,83.155709 30.258312,78.027747 29.166051,74.273062 L 17.830258,66.715867 V 44.98893 l 9.800738,-0.354244 c 0.751879,-15.892844 5.345653,-17.526267 16.177122,-29.697416 11.004876,1.161711 28.984687,-3.553868 27.61667,8.673032 0.795073,-2.223295 0.873575,-5.640874 3.202518,-5.307719 h 54.789664 c 1.35779,7.913973 -0.58461,14.525236 -3.42435,20.782288 19.56529,8.802372 26.26222,28.05712 36.14123,44.897041 3.62951,7.464224 -1.56174,13.837219 -5.20396,20.401848 -0.78839,-4.552438 -0.78028,-9.270812 -3.30627,-13.461251 1.11168,9.280321 -1.02519,15.319411 -3.57196,19.749081 -0.33779,-4.12947 -1.15271,-7.10265 -2.92251,-9.71218 -1.0605,12.03373 -11.54215,10.65847 -16.53136,11.69004 9.10441,-19.462178 7.99376,-33.30778 4.01476,-41.210336 -9.70689,3.419334 -22.36878,2.470411 -35.660521,0.590406 3.566911,2.584525 7.837161,4.195782 14.024851,5.36072 -3.40585,1.276687 -7.58551,3.227189 -14.379095,0.897582 3.162115,1.450642 6.810375,2.664713 8.578795,5.348239 l -1.15933,2.201794 c -3.07924,0.179977 -5.00277,-0.556272 -7.065221,-1.055568 2.467811,0.856978 4.939661,1.71261 6.592901,2.841111 l -1.27925,1.882136 c -1.81882,0.41854 -2.09487,0.02896 -2.83395,-0.118081 l 2.12546,1.535056 -1.77121,0.944649 C 94.032074,93.539743 88.637359,89.314352 82.656826,86.553505 l 9.092251,12.398524 C 76.884976,94.781104 70.583683,81.313798 66.952029,72.619926 61.289762,78.504929 60.038104,85.286798 59.749077,91.926198 l -1.416974,-4.309962 c -3.242144,8.222691 -3.112111,12.735994 -4.369004,18.774904 11.453873,20.61719 22.294396,24.34826 29.491156,18.05965 z"
     id="path2"
     sodipodi:nodetypes="ccccccccccscccccccccccccccccccccccccccccccccc"
     inkscape:label="hair"
     clip-path="url(#clipPath80)" /><path
     style="display:inline;fill:#ffffff;stroke:none;stroke-width:1;stroke-dasharray:none;stroke-opacity:1;paint-order:markers fill stroke"
     d="m 134.43868,46.624853 c 1.93768,3.14282 3.12389,6.415707 2.38648,7.866563 l 2.78423,-1.59099 c -0.0928,2.309747 -0.53146,4.704316 2.38649,6.275573 -0.14106,-1.236571 -0.56908,-2.980849 0,-2.96101 3.82494,5.157215 3.61097,6.327977 4.28684,8.441087 0.79237,-0.931534 1.71753,-2.02907 2.29809,-2.695844 l 3.75651,5.922019 c 4.74869,0.507943 4.88086,-0.723669 5.74524,-1.679379 -3.75251,-0.680533 -4.08341,-4.251366 -4.22055,-8.838835 2.37409,0.591388 2.63445,1.253233 3.33667,1.90035 2.68393,-2.112177 2.67397,-5.181398 0.88388,-8.883029 4.34664,1.087359 3.97743,1.950153 4.86136,2.872621 0.95737,-8.633253 -4.14524,-12.353013 -7.15946,-17.766057 0.52515,-2.187684 0.0342,-4.161454 -1.67938,-5.877826 1.14986,-0.558987 2.39804,-1.019643 2.69585,-2.430679 -2.32402,-3.88271 -5.98592,-4.746627 -10.6066,-3.447146 1.18968,-1.080705 2.1294,-2.252303 1.06066,-4.154252 l -18.208,0.176777 c 2.60845,10.780369 -11.07682,26.327272 5.39169,26.870057 z"
     id="path13"
     sodipodi:nodetypes="cccccccccccccccccccc"
     inkscape:label="fur"
     clip-path="url(#clipPath81)" /><path
     style="display:inline;fill:#56595b;stroke:none;stroke-width:1;stroke-dasharray:none;stroke-opacity:1;paint-order:markers fill stroke"
     d="M 49.585863,83.792153 C 48.513396,69.936999 48.116437,56.154872 53.121397,42.956737 62.132991,36.288801 71.128031,29.602588 87.946406,31.55464 v 4.949747 c -30.4028,5.66269 -35.317867,31.310724 -38.360543,47.287766 z"
     id="path4"
     sodipodi:nodetypes="ccccc"
     inkscape:label="hair thingy" /><path
     style="display:inline;fill:#ff837d;stroke:none;stroke-width:1;stroke-dasharray:none;stroke-opacity:1;paint-order:markers fill stroke"
     d="m 70.220139,33.335779 0.881835,-0.448608 c -0.655094,-1.26171 -7.593212,-6.631806 -11.7329,-2.808834 -23.749178,21.932195 -16.705566,103.358333 -2.92627,111.028673 2.655422,1.72097 5.31048,1.45348 7.800277,1.31118 -10.50568,-6.23852 -11.054696,-17.7209 -12.051199,-26.58055 5.262209,7.71701 16.487065,25.03981 31.173431,8.738 C 41.35856,139.86041 43.737564,21.211046 70.220139,33.335779 Z"
     id="path3"
     sodipodi:nodetypes="ccsccccc"
     inkscape:label="red (evil) hair" /><path
     style="display:inline;fill:#b02a3c;stroke:none;stroke-width:1;stroke-dasharray:none;stroke-opacity:1;paint-order:markers fill stroke"
     d="m 108.01056,127.27922 c 4.21547,0.30031 7.02241,-1.78963 9.30287,-4.77297 -1.91726,-2.03136 -4.37324,-3.30849 -7.46881,-3.69021 -2.14475,1.4303 -2.19594,4.75942 -1.83406,8.46318 z"
     id="path5"
     sodipodi:nodetypes="cccc"
     inkscape:label="mouth" /><path
     style="display:inline;fill:#ff837d;stroke:none;stroke-width:1;stroke-dasharray:none;stroke-opacity:1;paint-order:markers fill stroke"
     d="m 108.01056,127.27922 c 4.21547,0.30031 7.02241,-1.78963 9.30287,-4.77297 -1.91726,-2.03136 -3.89629,-2.89345 -6.38605,-1.98873 -2.26589,0.82337 -3.2787,3.05794 -2.91682,6.7617 z"
     id="path6"
     sodipodi:nodetypes="ccsc"
     inkscape:label="tongue" /><path
     style="display:inline;fill:#d3b69a;stroke:none;stroke-width:1;stroke-dasharray:none;stroke-opacity:1;paint-order:markers fill stroke"
     d="m 98.553007,105.13794 c 1.745483,0.52721 3.020443,0.17221 4.463613,0.13258 -1.51065,-0.94047 -2.94655,-3.33877 -4.375224,-5.877823 -0.612187,1.824433 -1.298749,3.637303 -0.08839,5.745243 z"
     id="path7"
     sodipodi:nodetypes="cccc"
     inkscape:label="nose" /><g
     id="g13"
     inkscape:label="a cat"
     style="display:inline"
     clip-path="url(#clipPath82)"><path
       style="display:inline;fill:#4a4a4a;stroke:none;stroke-width:1;stroke-dasharray:none;stroke-opacity:1;paint-order:markers fill stroke"
       d="M 88.849651,42.873699 C 85.577163,41.148831 83.824785,30.923732 88.381282,25.808058 93.368158,20.209188 101.17658,18.770699 107.9375,19.6875 l 6.625,1.875 c 2.77083,-1.69664 5.54167,-3.150295 8.3125,-3.5625 3.7096,1.642109 0.88903,5.96326 0.4375,9.3125 3.27264,1.942239 4.7519,6.076379 4.84375,11.90625 7.18163,-1.557853 11.03677,13.038584 -0.84375,12.15625 -1.60914,-0.119507 -2.14483,-2.946647 -2.25,-4.3125 -5.27882,9.213411 -18.76584,5.007197 -36.212849,-4.188801 z"
       id="path8"
       sodipodi:nodetypes="sscccccscs"
       inkscape:label="that cat thing?" /><path
       style="display:inline;fill:#ff837d;stroke:none;stroke-width:1;stroke-dasharray:none;stroke-opacity:1;paint-order:markers fill stroke"
       d="m 101.48437,31.765625 c 0,0 -4.316581,1.903325 -6.062495,2.84375 -1.326313,0.71441 -0.543671,2.251012 0.25,2.640625 2.556008,1.254743 7.562495,2.875 7.562495,2.875 1.56944,0.596647 2.3012,-0.424689 1.82813,-2.078125 -0.76347,-2.668439 -1.50765,-4.512914 -3.57813,-6.28125 z"
       id="path9"
       sodipodi:nodetypes="cssssc"
       inkscape:label="cat-mouth" /><path
       style="fill:#ffffff;stroke:none;stroke-width:1;stroke-dasharray:none;stroke-opacity:1;paint-order:markers fill stroke"
       d="m 102.13408,32.363472 -0.29962,4.229304 2.27924,-1.306965 c -0.45354,-0.968915 -0.97438,-2.031965 -1.97962,-2.922339 z"
       id="path10"
       sodipodi:nodetypes="cccc"
       inkscape:label="cat-tooth" /><ellipse
       style="fill:none;stroke:#ffffff;stroke-width:1.90253;stroke-dasharray:none;stroke-opacity:1;paint-order:markers fill stroke"
       id="path11"
       cx="111.11504"
       cy="-45.008041"
       rx="5.965663"
       ry="3.4769204"
       transform="rotate(36.284812)"
       inkscape:label="cat-eye2" /><ellipse
       style="fill:none;stroke:#ffffff;stroke-width:1.11455;stroke-dasharray:none;stroke-opacity:1;paint-order:markers fill stroke"
       id="path12"
       cx="78.821571"
       cy="60.346722"
       rx="5.196568"
       ry="1.7732365"
       transform="rotate(-23.490379)"
       inkscape:label="cat-eye1" /></g><path
     style="display:inline;fill:#4a4a4a;stroke:none;stroke-width:1;stroke-dasharray:none;stroke-opacity:1;paint-order:markers fill stroke"
     d="m 86.885746,129.66571 c 2.112372,-8.20678 6.27888,4.7823 5.17922,7.53185 -3.695521,9.24014 -6.163389,17.25263 -9.245084,25.87894 0.405755,0.18785 7.945037,-7.5653 11.028936,-6.76171 3.829834,0.99797 3.555141,5.83363 3.555141,5.83363 0,0 3.689341,-1.62045 4.960801,-0.27621 2.17146,2.29575 1.18219,5.04918 1.18219,5.04918 0,0 2.01403,-1.34059 3.62392,1.50261 1.50536,2.65859 -0.70711,4.15424 -0.70711,4.15424 l -37.565043,-0.13258 c 5.995676,-13.96536 13.900925,-26.90502 17.987029,-42.77995 z"
     id="path16"
     sodipodi:nodetypes="sscscscsccs"
     inkscape:label="hand!!!"
     clip-path="url(#clipPath83)" /><g
     id="g41"
     inkscape:label="her left eye"
     style="display:inline"><path
       style="display:inline;fill:#54688c;stroke:none;stroke-width:1;stroke-dasharray:none;stroke-opacity:1;paint-order:markers fill stroke"
       d="m 131.46875,83.34375 c -3.09795,-2.984486 -5.62191,-6.103384 -8.21875,-9.25 l 12.125,-3.6875 c -1.22056,3.293475 -2.36888,5.683965 -3.90625,12.9375 z"
       id="path27"
       sodipodi:nodetypes="cccc"
       inkscape:label="eyelash?" /><path
       style="display:inline;fill:#96dfd3;stroke:none;stroke-width:1;stroke-dasharray:none;stroke-opacity:1;paint-order:markers fill stroke"
       d="m 108.54089,87.61495 c -1.21901,-5.490336 -1.63926,-12.4092 3.56372,-14.850353 l 6.159,0.995479 z"
       id="path28"
       sodipodi:nodetypes="cccc" /><path
       style="display:inline;fill:#ffffff;stroke:none;stroke-width:1;stroke-dasharray:none;stroke-opacity:1;paint-order:markers fill stroke"
       d="m 108.46875,88.875 c 10.9393,9.49951 23.30327,4.220459 22.375,-9.75 -1.79944,-7.863105 -22.76863,-10.833695 -22.375,9.75 z"
       id="path25"
       sodipodi:nodetypes="ccc"
       inkscape:label="eye1" /><ellipse
       style="display:inline;fill:#ff837d;stroke:none;stroke-width:1.16442;stroke-dasharray:none;stroke-opacity:1;paint-order:markers fill stroke"
       id="path29"
       cx="96.459854"
       cy="109.91257"
       rx="8.2594261"
       ry="9.5459414"
       transform="rotate(-13.559201)"
       inkscape:label="iris" /><ellipse
       style="display:inline;fill:#56595b;stroke:none;stroke-width:1.12313;stroke-dasharray:none;stroke-opacity:1;paint-order:markers fill stroke"
       id="path32"
       cx="90.14595"
       cy="114.38345"
       rx="2.7795937"
       ry="3.4744921"
       transform="rotate(-16.990215)"
       inkscape:label="iris" /><ellipse
       style="display:inline;fill:#ececec;stroke:none;stroke-width:1.05813;stroke-dasharray:none;stroke-opacity:1;paint-order:markers fill stroke"
       id="path33"
       cx="143.65776"
       cy="6.5465775"
       rx="2.901581"
       ry="0.93412727"
       transform="rotate(29.818541)"
       inkscape:label="longer eye sparkle" /><path
       sodipodi:type="star"
       style="display:inline;fill:#ffffff;stroke:none;stroke-width:1;stroke-dasharray:none;stroke-opacity:1;paint-order:markers fill stroke"
       id="path31"
       inkscape:flatsided="false"
       sodipodi:sides="4"
       sodipodi:cx="118.74974"
       sodipodi:cy="80.565979"
       sodipodi:r1="5.2231455"
       sodipodi:r2="2.6115727"
       sodipodi:arg1="1.152572"
       sodipodi:arg2="1.9379702"
       inkscape:rounded="0.35"
       inkscape:randomized="0"
       d="m 120.87106,85.33895 c -1.23087,0.547055 -1.80163,-1.851938 -3.05882,-2.335471 -1.25719,-0.483534 -3.28841,0.914695 -3.83547,-0.31618 -0.54706,-1.230875 1.85194,-1.801633 2.33547,-3.05882 0.48353,-1.257187 -0.91469,-3.288415 0.31618,-3.835471 1.23088,-0.547055 1.80163,1.851938 3.05882,2.335471 1.25719,0.483534 3.28842,-0.914695 3.83547,0.31618 0.54706,1.230875 -1.85194,1.801633 -2.33547,3.05882 -0.48353,1.257187 0.9147,3.288415 -0.31618,3.835471 z"
       transform="matrix(0.67012457,-0.10351636,0.10351636,0.67012457,32.457725,40.713029)"
       inkscape:label="eye sparkle!!!" /><circle
       style="display:inline;fill:#ffffff;stroke:none;stroke-width:1;stroke-dasharray:none;stroke-opacity:1;paint-order:markers fill stroke"
       id="path34"
       cx="117.33553"
       cy="91.040001"
       r="1.1932427"
       inkscape:label="a normal, qhite sparkle" /><ellipse
       style="display:inline;fill:#9abeff;stroke:none;stroke-width:1;stroke-dasharray:none;stroke-opacity:1;paint-order:markers fill stroke"
       id="path35"
       cx="112.34711"
       cy="83.025139"
       rx="0.96674752"
       ry="1.5642304"
       inkscape:label="a festival?" /><ellipse
       style="display:inline;fill:#9abeff;stroke:none;stroke-width:1.249;stroke-dasharray:none;stroke-opacity:1;paint-order:markers fill stroke"
       id="path36"
       cx="112.65095"
       cy="80.759323"
       rx="0.82864076"
       ry="0.64633977"
       inkscape:label="is she in a disco?" /><ellipse
       style="display:inline;fill:#96dfd3;stroke:none;stroke-width:1;stroke-dasharray:none;stroke-opacity:1;paint-order:markers fill stroke"
       id="path37"
       cx="89.086487"
       cy="109.34537"
       rx="0.5800485"
       ry="0.74025244"
       transform="rotate(-13.407005)"
       inkscape:label="dude why are her eyes sparkling green" /><ellipse
       style="display:inline;fill:#96dfd3;stroke:none;stroke-width:1.37683;stroke-dasharray:none;stroke-opacity:1;paint-order:markers fill stroke"
       id="path38"
       cx="111.77963"
       cy="83.026566"
       rx="0.47124848"
       ry="0.89493203"
       inkscape:label="a green sparkle?" /><path
       style="display:inline;fill:#ffd6d4;stroke:none;stroke-width:1;stroke-dasharray:none;stroke-opacity:1;paint-order:markers fill stroke"
       d="m 121.00365,89.515299 c -1.58923,0.02887 -1.27582,2.484615 0.41984,2.320194 1.30987,-0.127012 2.82836,-0.63187 3.54658,-1.734621 0.84592,-1.298816 -0.39116,-2.527488 -1.8893,-1.624136 -0.66291,0.399723 -1.30315,1.024502 -2.07712,1.038563 z"
       id="path39"
       sodipodi:nodetypes="sssss"
       inkscape:label="what even is this wobbly thing" /><ellipse
       style="display:inline;fill:#ffd6d4;stroke:none;stroke-width:1;stroke-dasharray:none;stroke-opacity:1;paint-order:markers fill stroke"
       id="path40"
       cx="147.73674"
       cy="40.503887"
       rx="1.5136504"
       ry="0.49718446"
       transform="rotate(19.415705)"
       inkscape:label="maybe lonegr sparkle" /><ellipse
       style="fill:#ffd6d4;stroke:none;stroke-width:1;stroke-dasharray:none;stroke-opacity:1;paint-order:markers fill stroke"
       id="path41"
       cx="126.46163"
       cy="85.383141"
       rx="1.1711456"
       ry="0.24306795"
       inkscape:label="short pink sparkle" /></g><g
     id="g54"
     inkscape:label="her right eye"><path
       style="display:inline;fill:#54688c;stroke:none;stroke-width:1;stroke-dasharray:none;stroke-opacity:1;paint-order:markers fill stroke"
       d="m 67.392005,113.40755 c -4.205718,-2.19524 -9.208022,-2.67758 -13.698874,-3.95738 5.626336,-2.69155 9.141617,-5.96091 11.799937,-10.172442 z"
       id="path43"
       sodipodi:nodetypes="cccc" /><path
       style="display:inline;fill:#ffffff;stroke:none;stroke-width:1;stroke-dasharray:none;stroke-opacity:1;paint-order:markers fill stroke"
       d="M 62.811199,108.51256 C 75.913006,121.49102 85.82039,110.53286 86.0625,99.4375 75.77413,88.017845 61.67562,95.512181 62.811199,108.51256 Z"
       id="path42"
       sodipodi:nodetypes="ccc" /><path
       style="display:inline;fill:#96dfd3;stroke:none;stroke-width:1;stroke-dasharray:none;stroke-opacity:1;paint-order:markers fill stroke"
       d="m 58.538182,107.38415 c 1.459192,-1.62729 4.029869,-2.04244 4.055568,-5.63415 0.293621,0.63672 0.842438,0.606 1.3125,0.78125 -0.220155,-0.72009 -0.328036,-1.4893 -0.3125,-2.3125 l 1.0625,0.40625 c 0.03271,-0.46383 0.05861,-0.937652 -0.125,-1.71875 0.267781,0.413817 0.636473,0.499121 0.84375,0.5 0.02306,-0.298093 0.01739,-0.598798 0.195312,-0.882813 C 67.985223,96.539141 73.394005,90.455982 83.125,96.46875 80.207638,92.332385 77.438503,89.430317 69.25,91.4375 c -0.779679,-0.838546 -1.262488,-1.618184 -3.064721,-1.918544 1.001355,0.574187 1.736883,0.971497 1.533471,2.199794 -3.68074,1.072444 -6.311539,3.277508 -11.772748,2.503791 1.072997,1.218414 2.728038,2.469741 4.741498,2.277459 -1.066159,2.889753 -1.599032,6.90533 -2.149318,10.88415 z"
       id="path44"
       sodipodi:nodetypes="ccccccccccccccc" /><ellipse
       style="display:inline;fill:#ff837d;stroke:none;stroke-width:1.07627;stroke-dasharray:none;stroke-opacity:1;paint-order:markers fill stroke"
       id="path45"
       cx="47.224113"
       cy="119.81979"
       rx="8.2401667"
       ry="9.7873001"
       transform="rotate(-14.137508)" /><ellipse
       style="display:inline;fill:#ff837d;stroke:none;stroke-width:1.16442;stroke-dasharray:none;stroke-opacity:1;paint-order:markers fill stroke"
       id="ellipse46"
       cx="48.470436"
       cy="118.88736"
       rx="8.2594261"
       ry="9.5459414"
       transform="rotate(-13.559201)"
       inkscape:label="iris" /><ellipse
       style="display:inline;fill:#56595b;stroke:none;stroke-width:1.12313;stroke-dasharray:none;stroke-opacity:1;paint-order:markers fill stroke"
       id="ellipse47"
       cx="41.705437"
       cy="120.47015"
       rx="2.7795937"
       ry="3.4744921"
       transform="rotate(-16.990215)"
       inkscape:label="iris" /><ellipse
       style="display:inline;fill:#ececec;stroke:none;stroke-width:1.05813;stroke-dasharray:none;stroke-opacity:1;paint-order:markers fill stroke"
       id="ellipse48"
       cx="114.94099"
       cy="46.029213"
       rx="2.901581"
       ry="0.93412727"
       transform="rotate(29.818541)"
       inkscape:label="longer eye sparkle" /><path
       sodipodi:type="star"
       style="display:inline;fill:#ffffff;stroke:none;stroke-width:1;stroke-dasharray:none;stroke-opacity:1;paint-order:markers fill stroke"
       id="path48"
       inkscape:flatsided="false"
       sodipodi:sides="4"
       sodipodi:cx="118.74974"
       sodipodi:cy="80.565979"
       sodipodi:r1="5.2231455"
       sodipodi:r2="2.6115727"
       sodipodi:arg1="1.152572"
       sodipodi:arg2="1.9379702"
       inkscape:rounded="0.35"
       inkscape:randomized="0"
       d="m 120.87106,85.33895 c -1.23087,0.547055 -1.80163,-1.851938 -3.05882,-2.335471 -1.25719,-0.483534 -3.28841,0.914695 -3.83547,-0.31618 -0.54706,-1.230875 1.85194,-1.801633 2.33547,-3.05882 0.48353,-1.257187 -0.91469,-3.288415 0.31618,-3.835471 1.23088,-0.547055 1.80163,1.851938 3.05882,2.335471 1.25719,0.483534 3.28842,-0.914695 3.83547,0.31618 0.54706,1.230875 -1.85194,1.801633 -2.33547,3.05882 -0.48353,1.257187 0.9147,3.288415 -0.31618,3.835471 z"
       transform="matrix(0.67012457,-0.10351636,0.10351636,0.67012457,-12.090002,60.688796)"
       inkscape:label="eye sparkle!!!" /><circle
       style="display:inline;fill:#ffffff;stroke:none;stroke-width:1;stroke-dasharray:none;stroke-opacity:1;paint-order:markers fill stroke"
       id="circle48"
       cx="72.787804"
       cy="111.01577"
       r="1.1932427"
       inkscape:label="a normal, qhite sparkle" /><ellipse
       style="display:inline;fill:#9abeff;stroke:none;stroke-width:1;stroke-dasharray:none;stroke-opacity:1;paint-order:markers fill stroke"
       id="ellipse49"
       cx="67.799377"
       cy="103.00091"
       rx="0.96674752"
       ry="1.5642304"
       inkscape:label="a festival?" /><ellipse
       style="display:inline;fill:#9abeff;stroke:none;stroke-width:1.249;stroke-dasharray:none;stroke-opacity:1;paint-order:markers fill stroke"
       id="ellipse50"
       cx="68.103218"
       cy="100.73509"
       rx="0.82864076"
       ry="0.64633977"
       inkscape:label="is she in a disco?" /><ellipse
       style="display:inline;fill:#96dfd3;stroke:none;stroke-width:1;stroke-dasharray:none;stroke-opacity:1;paint-order:markers fill stroke"
       id="ellipse51"
       cx="41.121078"
       cy="118.4476"
       rx="0.5800485"
       ry="0.74025244"
       transform="rotate(-13.407005)"
       inkscape:label="dude why are her eyes sparkling green" /><ellipse
       style="display:inline;fill:#96dfd3;stroke:none;stroke-width:1.37683;stroke-dasharray:none;stroke-opacity:1;paint-order:markers fill stroke"
       id="ellipse52"
       cx="67.231903"
       cy="103.00233"
       rx="0.47124848"
       ry="0.89493203"
       inkscape:label="a green sparkle?" /><path
       style="display:inline;fill:#ffd6d4;stroke:none;stroke-width:1;stroke-dasharray:none;stroke-opacity:1;paint-order:markers fill stroke"
       d="m 76.455923,109.49107 c -1.58923,0.0289 -1.27582,2.48461 0.41984,2.32019 1.30987,-0.12701 2.82836,-0.63187 3.54658,-1.73462 0.84592,-1.29882 -0.39116,-2.52749 -1.8893,-1.62414 -0.66291,0.39973 -1.30315,1.0245 -2.07712,1.03857 z"
       id="path52"
       sodipodi:nodetypes="sssss"
       inkscape:label="what even is this wobbly thing" /><ellipse
       style="display:inline;fill:#ffd6d4;stroke:none;stroke-width:1;stroke-dasharray:none;stroke-opacity:1;paint-order:markers fill stroke"
       id="ellipse53"
       cx="112.36271"
       cy="74.152206"
       rx="1.5136504"
       ry="0.49718446"
       transform="rotate(19.415705)"
       inkscape:label="maybe lonegr sparkle" /><ellipse
       style="display:none;fill:#ffd6d4;stroke:none;stroke-width:1;stroke-dasharray:none;stroke-opacity:1;paint-order:markers fill stroke"
       id="ellipse54"
       cx="81.913902"
       cy="105.35891"
       rx="1.1711456"
       ry="0.24306795"
       inkscape:label="short pink sparkle" /></g></svg>
