<svg xmlns="http://www.w3.org/2000/svg" xml:space="preserve" id="svg2" width="192" height="192" version="1.1"><g id="layer1" transform="translate(0 -860.362)"><rect id="rect401" width="152" height="152" x="20" y="880.362" rx="9.935" ry="9.935" style="fill:#8c72bd;fill-opacity:1;fill-rule:evenodd;stroke:none;stroke-width:.993464;stroke-opacity:1"/><path id="path781" d="M112.712 979.617a14.143 14.143 0 0 0 10.46-4.452c-8.364 0-13.779-5.692-14.078-14.759-.07-2.08-.099-7.243-.099-13.225v-11.006a2 2 45 0 0-2-2H99.78a2 2 135 0 0-2 2v15.586c0 5.312-.042 9.918.329 13.083 1.034 8.856 6.44 14.763 14.603 14.763m-33.428-46.5a14.145 14.145 0 0 0-10.466 4.452c8.362 0 13.775 5.692 14.076 14.76.071 2.08.093 13.216.093 13.216v11.005a2 2 45 0 0 2 2h7.23a2 2 135 0 0 2-2v-15.586c0-5.313.043-9.916-.33-13.083-1.032-8.856-6.44-14.764-14.603-14.764zm59.165 27.362c.114-2.086 0-4.205 0-6.272v-18.014a2 2 45 0 0-2-2h-7.223a2 2 135 0 0-2 2v16.338c0 5.705.039 10.79 0 11.832-.2 4.949-1.557 8.183-4.086 10.826h.585a14.852 14.852 0 0 0 13.095-7.975c1.095-2.128 1.501-4.409 1.627-6.73m-84.896-8.223c-.114 2.088 0 4.206 0 6.274v18.015a2 2 45 0 0 2 2h7.22a2 2 135 0 0 2-2V960.2c0-5.704-.04-10.79 0-11.832.2-4.948 1.556-8.182 4.087-10.826h-.587a14.85 14.85 0 0 0-13.095 7.976c-1.093 2.127-1.5 4.408-1.625 6.73" style="fill:#fff;fill-opacity:1;stroke-width:1.96975"/></g><style id="style853" type="text/css">.st0{fill:#fff}</style></svg>