<?xml version="1.0" encoding="UTF-8"?>
<svg data-name="Layer 1" version="1.1" viewBox="0 0 192 192" xmlns="http://www.w3.org/2000/svg">
 <defs>
  <style>.cls-1 {
        fill: #bd9aff;
        fill-rule: evenodd;
      }

      .cls-2 {
        fill: #fff;
      }

      .cls-3 {
        fill: #8c72bd;
      }</style>
 </defs>
 <path class="cls-1" d="m174.56,32.1H54.04c-5.3,0-10.4,2-14.29,5.6l-25.68,23.76c-4.31,3.98-6.76,9.58-6.76,15.45v73.12c0,5.57,4.54,10.08,10.13,10.08h157.12c5.59,0,10.13-4.51,10.13-10.08V42.18c0-5.57-4.54-10.08-10.13-10.08Z"/>
 <g transform="matrix(.68294 0 0 .68294 31.039 30.37)">
  <path class="cls-3" d="m93.6 73.23v49.46h23.93v-73.39c-13.22 0-23.93 10.71-23.93 23.93z"/>
  <path class="cls-3" d="m93.6 125.88c0 9.4 7.62 17.02 17.02 17.02h6.91v-17.02z"/>
  <path class="cls-3" d="m144.83 122.69v-73.39h-23.93v93.6h34.21c9.4 0 17.02-7.62 17.02-17.02h-27.3z"/>
  <rect class="cls-3" x="148.2" y="76.95" width="23.93" height="45.74"/>
  <path class="cls-3" d="m148.2 49.3v24.11h23.93v-0.18c0-13.22-10.71-23.93-23.93-23.93z"/>
  <path class="cls-2" d="m22.04 118.8c-2.17 0-3.93-1.76-3.93-3.93v-13.4c0-2.17 1.76-3.93 3.93-3.93s3.93 1.76 3.93 3.93v13.4c0 2.17-1.76 3.93-3.93 3.93z"/>
  <path class="cls-2" d="m33.26 118.8c-2.17 0-3.93-1.76-3.93-3.93v-23.89c0-2.17 1.76-3.93 3.93-3.93s3.93 1.76 3.93 3.93v23.89c0 2.17-1.76 3.93-3.93 3.93z"/>
  <path class="cls-2" d="m44.4 118.8c-2.17 0-3.93-1.76-3.93-3.93v-23.89c0-6.44 5.61-11.12 13.34-11.12s13.34 4.68 13.34 11.12v16.14c0 2.56 3.54 3.49 5.91 3.49s5.91-0.93 5.91-3.49v-22.19c0-2.17 1.76-3.93 3.93-3.93s3.93 1.76 3.93 3.93v22.19c0 6.58-5.8 11.36-13.78 11.36s-13.78-4.78-13.78-11.36v-16.14c0-2.66-3.95-3.25-5.47-3.25s-5.47 0.58-5.47 3.25v23.89c0 2.17-1.76 3.93-3.93 3.93z"/>
 </g>
</svg>
