<svg xmlns="http://www.w3.org/2000/svg" id="svg2" width="192" height="192" version="1.1"><defs id="defs4"><style id="style2075">.cls-1{fill:#ffa41a}.st0{fill:#fff}</style></defs><g id="layer1" transform="translate(0 -860.362)"><rect id="rect915" width="153" height="153" x="19.5" y="879.862" rx="10" ry="10" style="fill:#575a5c;fill-opacity:1;fill-rule:evenodd;stroke:none;stroke-opacity:1"/><path id="path913" d="M68.213 951.448c2.485-2.793 8.663-8.435 18.524-9.189v-3.533c-11.623.933-22.006 8.962-25.753 12.195-.837.721-1.177 2.183-.724 3.19 2.305 5.118 10.086 19.195 26.477 20.742v-3.756c-11.637-1.464-17.23-11.9-19.067-16.224-.432-1.016-.191-2.6.543-3.425zm18.524 12.18v3.44c-8.318-1.483-12.147-8.317-13.553-11.68-.425-1.019-.057-2.535.789-3.244 2.158-1.81 6.613-4.856 12.764-5.52v3.773l-.017-.002c-2.885-.346-5.379 1.19-6.86 2.41-.852.702-1.185 2.246-.73 3.252 1.046 2.319 3.355 6.143 7.607 7.572m0-29.42v4.517c.429-.033.857-.06 1.288-.075 13.218-.446 22.767 8.453 26.107 12.093.746.814.725 2.203-.026 3.014-3.533 3.815-13.613 13.604-24.03 13.604-1.186 0-2.296-.11-3.339-.294v4.03c.892.113 1.816.18 2.78.18 11.318 0 19.69-5.434 27.657-12.13.845-.71 2.252-.776 3.208-.225 1.495.86 3.525 1.927 4.981 2.81.943.572.944 1.732.043 2.37-8.686 6.136-25.76 10.904-35.704 10.904-1.02 0-2.001-.061-2.965-.154v3.662a2 2 45 0 0 2 2H130.5a2 2 135 0 0 2-2V934.21a2 2 45 0 0-2-2H88.737a2 2 135 0 0-2 2zm0 12.414v-4.364c.424-.03.851-.052 1.288-.066 9.082-.285 15.786 5.803 18.472 8.73.747.812.76 2.247.051 3.094-2.67 3.2-9.295 10.175-16.283 10.175-1.305 0-2.475-.21-3.528-.563v-13.232c4.03.487 5.268 2.096 7.348 5.553.57.946 1.71 1.14 2.555.427l3.154-2.66c.844-.711.967-1.992.161-2.746-1.881-1.76-5.632-4.49-10.81-4.49-.832 0-1.628.059-2.408.142" style="fill:#98db9a;fill-opacity:1;fill-rule:nonzero;stroke-width:0;stroke-linecap:butt;stroke-linejoin:miter;stroke-miterlimit:10"/></g></svg>