<svg xmlns="http://www.w3.org/2000/svg" xmlns:xlink="http://www.w3.org/1999/xlink" xml:space="preserve" viewBox="0 0 192 192"><path fill="#F8C18C" d="M187.1 91.6C187.1 41 146.1 0 95.5 0S3.9 41 3.9 91.6c0 47.3 35.9 86.3 82 91.1l9.4 9.4 9.3-9.3c46.3-4.7 82.5-43.7 82.5-91.2z"/><g fill="#FFF"><path d="M76.3 105.1c.3-.4.5-.6.6-.8 1.2-2.1 2.4-4.3 3.8-6.4.5-.9.4-1.5-.1-2.2-3.4-4.5-7.5-8.1-12.7-10.4-7.9-3.6-15.9-3.9-24-1.2-6 2-10.9 5.7-14.8 10.7-4.8 6.3-6.7 13.4-6 21.2.7 7.3 3.9 13.5 9.1 18.6 4.3 4.2 9.4 6.9 15.2 8.2 5.4 1.2 10.7 1.1 16-.5 6.9-2 12.7-5.7 16.8-11.6 3.1-4.5 5.6-9.3 8.3-14 .9-1.6 1.9-3.2 2.9-5 2.4 6.7 4.8 13.2 7.2 19.9.4-.7.7-1.1.9-1.5 1.8-3.1 3.5-6.2 5.3-9.3 3.5-6 7-12 10.4-18 2.3-4.1 5.3-7.4 9.5-9.6 8.1-4.2 16.3-4 24.1.8 5.4 3.3 8.9 8.2 10.1 14.6 1.9 9.5-2.3 18.4-10.2 23.3-6.1 3.9-12.8 4.7-19.7 2.5-6.5-2-11.3-6.2-14.2-12.5-.1-.3-.3-.5-.5-.8-.2.2-.6.4-.7.7-1.2 2.1-2.4 4.3-3.7 6.3-.5.7-.4 1.3.1 2 2.1 3 4.6 5.6 7.6 7.6 6.9 4.8 14.6 6.7 22.9 5.7 6.7-.8 12.5-3.5 17.5-8 4.7-4.3 7.8-9.6 9.2-15.9 1-4.6.9-9.2-.2-13.8-1.7-6.5-5.1-12-10.4-16.2-7-5.6-15-8-23.9-7-10.2 1.2-18 6.1-23.5 14.7-2.6 4.1-4.9 8.3-7.3 12.5-.5.8-1 1.6-1.6 2.6-2.5-6.7-4.8-13.2-7.3-19.8-.3.4-.6.7-.8 1-4.4 7.6-8.8 15.3-13.2 22.9-1.9 3.3-3.7 6.7-5.9 9.8-3.2 4.5-7.6 7.2-13 8.6-4.4 1.1-8.7 1-13-.3-6.1-2-10.8-5.7-13.7-11.5-3.6-7.3-3.3-14.6.8-21.5 3.7-6.2 9.4-9.8 16.6-10.8 6.7-1 12.7.7 18.1 4.8 3.5 2.4 5.8 5.6 7.4 9.6zm21.6-57.6c.1.5.1.8.2 1.1.7 2.1 1.5 4.1 2.3 6.2.1.3.7.7 1.1.7 1.4.1 2.8 0 4.2.1 3.2.1 6.2 2.2 7.2 5 2.1 6.1 4.1 12.2 6.1 18.3.3.9.7 1 1.5.8 2-.5 4-1.1 6-1.6 1-.2 1.1-.6.8-1.5-2.1-5.8-4.2-11.6-6.3-17.5-2.1-6.1-6.2-10.1-12.6-11.2-2.8-.5-5.8-.3-8.7-.4h-1.8zM58.8 65.7c-1.2 1.5-1.2 1.5.2 2.4 3.1 2 5.9 4.3 7.7 7.5.7 1.2 1.4 1.6 2.7 1.6 5.7 0 11.5 0 17.2.1.7 0 .8-.4.6-.9-.8-2.2-1.6-4.4-2.5-6.6-.1-.3-.7-.7-1.1-.7-1.8-.1-3.6 0-5.4 0-3.5-.1-7.2-.1-10.8-.3-3.1-.3-5.9-1.5-8.6-3.1zm76.6-19.8c-4.2-6.6-9.7-11.1-16.7-14.1-.3.5-.5.8-.7 1.3-.5 1.4-.5 1.3.9 2.1 1.8 1 3.7 2 5.4 3.2 3.2 2.2 5.8 5.1 8 8.4.2.3.7.6.9.5.7-.5 1.5-1 2.2-1.4zm-19-7.9c-.2.1-.4.1-.5.2-.9.6-.8 2 .2 2.4 4.3 2 7.8 4.8 10.5 8.7.8 1.2.8 1.2 2.3.4.7-.4.7-.7.3-1.3-2.5-3.6-5.6-6.5-9.4-8.8-1.1-.5-2.2-1-3.4-1.6zm-2.6 5.5c-.3.4-.6.8-.8 1.2-.3.6.2.8.6 1 3.5 1.6 6.4 3.9 8.4 7.1.5.9 1 .3 1.5 0 .6-.3.7-.8.3-1.3-1.9-2.6-4.2-4.8-7-6.5-.9-.5-1.9-.9-3-1.5z"/><path d="M76.3 105.1c-1.7-4-3.9-7.2-7.2-9.7-5.3-4.1-11.4-5.8-18.1-4.8-7.2 1-12.9 4.6-16.6 10.8-4.2 6.9-4.5 14.2-.8 21.5 2.9 5.8 7.6 9.5 13.7 11.5 4.3 1.4 8.6 1.5 13 .3 5.3-1.4 9.8-4.1 13-8.6 2.2-3.1 4-6.5 5.9-9.8 4.4-7.6 8.8-15.3 13.2-22.9.2-.3.4-.5.8-1 2.5 6.7 4.8 13.1 7.3 19.8.6-1 1.1-1.8 1.6-2.6 2.4-4.2 4.7-8.4 7.3-12.5 5.5-8.6 13.4-13.5 23.5-14.7 8.9-1 16.9 1.3 23.9 7 5.2 4.2 8.7 9.6 10.4 16.2 1.2 4.6 1.3 9.2.2 13.8-1.4 6.3-4.5 11.6-9.2 15.9-5 4.5-10.8 7.2-17.5 8-8.4 1-16-.8-22.9-5.7-3-2.1-5.5-4.7-7.6-7.6-.5-.7-.5-1.2-.1-2 1.3-2.1 2.5-4.2 3.7-6.3.2-.3.5-.4.7-.7.2.3.4.5.5.8 2.9 6.3 7.7 10.5 14.2 12.5 6.9 2.2 13.6 1.3 19.7-2.5 7.8-4.9 12.1-13.8 10.2-23.3-1.3-6.3-4.7-11.3-10.1-14.6-7.8-4.8-15.9-5-24.1-.8-4.2 2.2-7.2 5.5-9.5 9.6-3.4 6-7 12-10.4 18-1.8 3.1-3.5 6.2-5.3 9.3-.2.4-.5.8-.9 1.5-2.5-6.7-4.8-13.2-7.2-19.9-1.1 1.8-2 3.4-2.9 5-2.8 4.7-5.3 9.5-8.3 14-4.1 6-9.9 9.6-16.8 11.6-5.3 1.5-10.7 1.6-16 .5-5.8-1.3-10.9-4-15.2-8.2-5.2-5.2-8.4-11.3-9.1-18.6-.7-7.8 1.2-14.9 6-21.2 3.9-5.1 8.8-8.7 14.8-10.7 8.1-2.7 16.1-2.4 23.9 1.1 5.2 2.3 9.4 5.9 12.7 10.4.6.8.7 1.4.1 2.2-1.3 2.1-2.5 4.3-3.8 6.4-.2.4-.3.6-.7 1zM97.9 47.5h1.8c2.9.1 5.9-.1 8.7.4 6.4 1.1 10.5 5.1 12.6 11.2 2 5.8 4.1 11.7 6.3 17.5.3.9.2 1.3-.8 1.5-2 .5-4 1.1-6 1.6-.8.2-1.2.1-1.5-.8-2-6.1-4.1-12.2-6.1-18.3-.9-2.8-4-4.9-7.2-5-1.4 0-2.8 0-4.2-.1-.4 0-1-.4-1.1-.7-.8-2-1.5-4.1-2.3-6.2-.1-.3-.1-.6-.2-1.1zM58.8 65.7c2.7 1.6 5.5 2.8 8.6 3 3.6.3 7.3.3 10.9.4h5.4c.4 0 1 .4 1.1.7.9 2.2 1.7 4.4 2.5 6.6.2.5.1.9-.6.9-5.7 0-11.5-.1-17.2-.1-1.3 0-2-.5-2.7-1.6-1.9-3.2-4.6-5.6-7.7-7.5-1.5-.9-1.5-.9-.3-2.4zM135.4 45.9c-.7.5-1.5 1-2.3 1.3-.2.1-.7-.2-.9-.5-2.2-3.3-4.7-6.2-8-8.4-1.7-1.2-3.5-2.2-5.4-3.2-1.4-.7-1.5-.7-.9-2.1.2-.4.4-.8.7-1.3 7.1 3 12.6 7.6 16.8 14.2zM116.4 38c1.1.6 2.3 1.1 3.4 1.7 3.8 2.2 6.9 5.1 9.4 8.8.4.6.4 1-.3 1.3-1.5.8-1.5.8-2.3-.4-2.6-4-6.2-6.8-10.5-8.7-1-.4-1.1-1.8-.2-2.4.2-.2.3-.2.5-.3zM113.8 43.5c1.2.6 2.2 1 3.1 1.6 2.8 1.7 5.1 3.9 7 6.5.4.6.3 1-.3 1.3-.5.3-1 .8-1.5 0-2-3.3-4.9-5.6-8.4-7.1-.4-.2-.9-.4-.6-1 .1-.5.4-.9.7-1.3z"/></g><image xlink:href="30E0AF75.jpg" width="240" height="240" overflow="visible" transform="translate(457.05 512.757)"/></svg>