<?xml version="1.0" encoding="UTF-8"?>
<svg version="1.1" viewBox="0 0 192 192" xmlns="http://www.w3.org/2000/svg">
 <circle class="a" cx="96" cy="96" r="88" style="fill:#9abeff"/>
 <path transform="matrix(1.1828 0 0 1.1828 225.83 -21.377)" d="m-109.77 65.03 16.246 9.3796-1e-6 18.759-16.246 9.3796-16.246-9.3796v-18.759z" style="fill:#fff;stroke-linejoin:round;stroke-width:20"/>
 <path transform="matrix(.78855 0 0 .78855 182.56 11.659)" d="m-109.77 65.03 16.246 9.3796-1e-6 18.759-16.246 9.3796-16.246-9.3796v-18.759z" style="fill:#9abeff;stroke-linejoin:round;stroke-width:20"/>
 <path d="m96 94.365v42.044" style="fill:#fff;stroke-linejoin:round;stroke-width:7.8855;stroke:#fff"/>
 <path d="m96 94.365s-3.0104 5.9804-7.4241 13.665c-1.8883 3.2877-7.4381 7.5612-7.4381 14.903 0 7.3169-0.07704 13.476-0.07704 13.476" style="fill:none;stroke-linejoin:round;stroke-width:7.8855;stroke:#fff"/>
 <path d="m96 94.365-15.94 15.939c-5.9552 3.0289-13.245 6.5393-13.245 11.551v14.554" style="fill:none;stroke-linejoin:round;stroke-width:7.8855;stroke:#fff"/>
 <path d="m96 94.365s3.0104 5.9804 7.4241 13.665c1.8883 3.2877 7.4381 7.5612 7.4381 14.903 0 7.3169 0.077 13.476 0.077 13.476" style="fill:none;stroke-linejoin:round;stroke-width:7.8855;stroke:#fff"/>
 <path d="m96 94.365 15.94 15.939c5.9552 3.0289 13.245 6.5393 13.245 11.551v14.554" style="fill:none;stroke-linejoin:round;stroke-width:7.8855;stroke:#fff"/>
</svg>
