<?xml version="1.0" encoding="UTF-8"?>
<svg version="1.1" viewBox="0 0 192 192" xmlns="http://www.w3.org/2000/svg">
 <defs>
  <style>.b{fill:#2fa462;stroke-width:0px;}</style>
 </defs>
 <circle class="a" cx="96" cy="96" r="88" style="fill:#fff"/>
 <path class="b" d="m59.784 82.596v40.223c0 0.4632 0.15054 0.84534 0.44583 1.1464 0.29529 0.30108 0.67743 0.44583 1.1464 0.44583h69.237c0.4632 0 0.84534-0.15054 1.1464-0.44583s0.44583-0.67743 0.44583-1.1464v-40.223zm1.9918 49.58c-2.5823 0-4.852-0.97851-6.809-2.9413-1.957-1.957-2.9413-4.2325-2.9413-6.809v-44.473c0-1.1059 0.17949-2.1655 0.53268-3.1671 0.35319-1.0017 0.88587-1.9339 1.598-2.7792l7.2607-8.7834c0.85113-1.1059 1.9107-1.9512 3.1845-2.5302 1.2738-0.579 2.6171-0.8685 4.0414-0.8685h54.617c1.4186 0 2.7734 0.2895 4.0646 0.8685 1.2912 0.579 2.3565 1.4243 3.2077 2.5302l7.3128 8.8818c0.71217 0.85113 1.2391 1.7833 1.598 2.8024 0.35319 1.019 0.53268 2.0844 0.53268 3.1961v44.322c0 2.5823-0.97851 4.852-2.9413 6.809-1.957 1.957-4.2325 2.9413-6.809 2.9413zm0.02895-57.338h68.334l-5.6394-6.7164c-0.16791-0.16791-0.35319-0.30108-0.57321-0.39951-0.21423-0.0984-0.44004-0.15054-0.67164-0.15054h-54.565c-0.2316 0-0.45741 0.0521-0.67164 0.15054-0.21423 0.0984-0.4053 0.2316-0.57321 0.39951zm48.763 22.141h-29.147c-2.1423 0-3.8793-1.737-3.8793-3.8793 0-2.1423 1.737-3.8793 3.8793-3.8793h29.147c2.1423 0 3.8793 1.737 3.8793 3.8793 0 2.1423-1.737 3.8793-3.8793 3.8793z" style="fill:#56595b"/>
</svg>
