<svg xmlns="http://www.w3.org/2000/svg" xml:space="preserve" viewBox="0 0 192 192"><path fill="#FFF" d="M0 0h192v192H0z"/><path fill="#F8C18C" d="M60.5 43.8c.2-.3.1-.6.1-.9V27.1c0-.6.2-.8.8-.8h103.2c.6 0 .7.2.7.8v103.2c0 .7-.2.8-.8.8h-15.8c-.3 0-.6 0-.9.1H61.4c-1.1 0-1 .1-1-1V44.8c.1-.4.1-.7.1-1zm36.4 28.6v-14c0-.9-.2-1.1-1.1-1.1h-3.4c-.9 0-1.1.2-1.1 1.1v10.2c0 .5-.1.6-.6.6H80.5c-.6 0-.8-.1-.8-.8V58.3c0-1-.2-1.1-1.2-1.1h-3.3c-1 0-1.2.2-1.2 1.2v27.7c0 1.1.2 1.3 1.3 1.3h3c1.2 0 1.3-.2 1.3-1.3V75c0-.7.2-.8.8-.8h10c.6 0 .7.1.7.7v11.3c0 1 .2 1.2 1.2 1.2h3.1c1 0 1.2-.2 1.2-1.2.3-4.5.3-9.1.3-13.8zm6.1.2v13.5c0 1.3.2 1.4 1.5 1.4h2.9c1.1 0 1.3-.2 1.3-1.3v-9.4c0-.6.1-.7.7-.7 2.5.2 5 .2 7.4-.4 3.4-.8 6-2.7 6.9-6.3.5-1.9.5-3.9 0-5.8-.5-2.2-1.8-3.9-3.8-5-1.4-.8-3-1.2-4.6-1.4-3.6-.4-7.2-.2-10.8.3-1.2.2-1.5.5-1.5 1.7v13.4zm25.7-.2v14c0 .9.3 1.2 1.1 1.2h3.4c.8 0 1.1-.3 1.1-1.1V58.4c0-.8-.3-1-1-1h-3.4c-1 0-1.2.2-1.2 1.2v13.8z"/><path fill="#B02A3C" d="M60.5 43.8v86.4c0 1.1-.1 1 1 1h86.4v34.1c0 .6-.1.8-.7.8H26.4c-.6 0-.7-.1-.7-.7V44.6c0-.4-.1-.7.5-.7h34.1c.1-.1.2-.1.2-.1z"/><path fill="#FEFDFD" d="M96.9 72.4v13.9c0 1-.2 1.2-1.2 1.2h-3.1c-1 0-1.2-.2-1.2-1.2V75c0-.6-.2-.7-.7-.7h-10c-.6 0-.8.1-.8.8v11.1c0 1.2-.2 1.3-1.3 1.3h-3c-1.1 0-1.3-.2-1.3-1.3V58.5c0-1 .2-1.2 1.2-1.2h3.3c1 0 1.2.2 1.2 1.1v10.1c0 .6.2.8.8.8H91c.5 0 .6-.1.6-.6V58.5c0-.9.2-1.1 1.1-1.1h3.4c.9 0 1.1.2 1.1 1.1-.3 4.6-.3 9.3-.3 13.9zM103 72.6V59.2c0-1.3.2-1.6 1.5-1.7 3.6-.5 7.2-.7 10.8-.3 1.6.2 3.2.6 4.6 1.4 2 1.1 3.3 2.8 3.8 5 .5 1.9.5 3.9 0 5.8-.9 3.6-3.5 5.5-6.9 6.3-2.4.6-4.9.5-7.4.4-.6 0-.7.1-.7.7v9.4c0 1.1-.2 1.3-1.3 1.3h-2.9c-1.3 0-1.5-.2-1.5-1.4V72.6zm5.7-5.9V71c0 .2-.1.5.3.5 2 0 4 .3 6-.2 1.7-.4 2.9-1.4 3.3-3.2.2-.7.2-1.5.1-2.2-.2-2.3-1.2-3.5-3.4-4-2-.4-3.9-.2-5.9-.1-.4 0-.4.2-.4.5v4.4zM128.7 72.4V58.6c0-1 .2-1.2 1.2-1.2h3.4c.8 0 1 .3 1 1v28.1c0 .8-.3 1.1-1.1 1.1h-3.4c-.9 0-1.1-.3-1.1-1.2v-14z"/><path fill="#F8C18C" d="M108.7 66.7v-4.4c0-.3 0-.5.4-.5 2-.1 4-.3 5.9.1 2.2.5 3.3 1.7 3.4 4 .1.8 0 1.5-.1 2.2-.4 1.8-1.6 2.8-3.3 3.2-2 .5-4 .2-6 .2-.4 0-.3-.3-.3-.5v-4.3z"/></svg>