<svg xmlns="http://www.w3.org/2000/svg" id="svg2" width="192" height="192" version="1.1"><g id="layer1" transform="translate(0 -860.362)"><rect id="rect983" width="85.623" height="135.219" x="28.46" y="899.553" rx="12.247" ry="12.247" style="fill:#99bdfe;fill-opacity:1;fill-rule:evenodd;stroke:none;stroke-width:.721758;stroke-opacity:1"/><rect id="rect981" width="85.623" height="135.219" x="77.917" y="877.952" rx="12.247" ry="12.247" style="fill:#96dfd3;fill-opacity:1;fill-rule:evenodd;stroke:none;stroke-width:.721758;stroke-opacity:1"/><path id="path985" d="M95.798 936.869v10.196H70.986a2.572 2.572 0 0 0-2.572 2.571v13.612a2.572 2.572 0 0 0 2.572 2.571h24.812v10.199a1.238 1.238 0 0 0 2.01.968l23.75-18.94a2.05 2.05 0 0 0 0-3.207L97.808 935.9a1.238 1.238 0 0 0-2.01.968z" style="fill:#fff;fill-opacity:1;stroke:#99bdfe;stroke-width:0;stroke-linecap:round;stop-color:#000"/></g><style id="style853" type="text/css">.st0{fill:#fff}</style></svg>