<svg xmlns="http://www.w3.org/2000/svg" xml:space="preserve" viewBox="0 0 192 192"><rect width="152" height="152" x="20" y="20" fill="#98dc9a" class="a" rx="10"/><text xml:space="preserve" x="70.428" y="128.04" fill="#fff" stroke-linecap="round" stroke-linejoin="round" stroke-width="5.732" font-family="Now" font-size="85.598" font-weight="900"><tspan x="70.428" y="128.04">S</tspan></text><path fill="#fff" d="M88.081 64.326s-.325-2.324.06-3.384c.504-1.387 1.503-2.706 2.78-3.445 2.896-1.675 9.912-1.571 9.912-1.571l.483 5.439s-2.478.362-3.021 1.39-.605 1.39-.605 1.39zM108.11 126.39s.467 3.203-.06 4.666c-.5 1.388-1.503 2.706-2.78 3.445-2.896 1.675-9.912 1.571-9.912 1.571l-.483-5.439s2.478-.362 3.021-1.39c.544-1.027.605-2.672.605-2.672z"/></svg>