<svg xmlns="http://www.w3.org/2000/svg" xml:space="preserve" viewBox="0 0 192 192"><circle cx="96" cy="96" r="88" fill="#9abeff" class="a"/><path fill="#fff" d="M134.99 80.406a3.91 3.91 0 0 0-3.899-3.899h-3.898V68.71c0-4.288-3.509-7.797-7.797-7.797h-54.58c-4.289 0-7.798 3.509-7.798 7.797v54.58c0 4.289 3.51 7.797 7.798 7.797h54.58c4.288 0 7.797-3.508 7.797-7.797v-7.797h3.898c2.145 0 3.899-1.754 3.899-3.899s-1.754-3.898-3.899-3.898h-3.898v-7.797h3.898A3.91 3.91 0 0 0 134.99 96a3.91 3.91 0 0 0-3.899-3.899h-3.898v-7.797h3.898a3.91 3.91 0 0 0 3.899-3.898zm-19.493 42.885H68.714a3.91 3.91 0 0 1-3.899-3.899V72.61a3.91 3.91 0 0 1 3.899-3.898h46.783a3.91 3.91 0 0 1 3.899 3.898v46.783a3.91 3.91 0 0 1-3.899 3.899zM74.562 99.899h15.594a1.93 1.93 0 0 1 1.95 1.95v11.695a1.93 1.93 0 0 1-1.95 1.95H74.562a1.93 1.93 0 0 1-1.95-1.95v-11.696a1.93 1.93 0 0 1 1.95-1.949zm23.392-23.392h11.696a1.93 1.93 0 0 1 1.95 1.95v7.797a1.93 1.93 0 0 1-1.95 1.949H97.954a1.93 1.93 0 0 1-1.95-1.95v-7.797a1.93 1.93 0 0 1 1.95-1.949zm-23.392 0h15.594a1.93 1.93 0 0 1 1.95 1.95V94.05a1.93 1.93 0 0 1-1.95 1.95H74.562a1.93 1.93 0 0 1-1.95-1.95V78.456a1.93 1.93 0 0 1 1.95-1.949zm23.392 15.594h11.696a1.93 1.93 0 0 1 1.95 1.95v19.492a1.93 1.93 0 0 1-1.95 1.95H97.954a1.93 1.93 0 0 1-1.95-1.95V94.05a1.93 1.93 0 0 1 1.95-1.949z"/></svg>