<?xml version="1.0" encoding="UTF-8"?>
<svg version="1.1" viewBox="0 0 192 192" xmlns="http://www.w3.org/2000/svg">
 <circle class="a" cx="96" cy="96" r="88" style="fill:#96dfd3"/>
 <circle cx="95.622" cy="97.374" r="38.905" style="fill:#fff"/>
 <circle cx="82.26" cy="91.278" r="12.968" style="fill:#fff;stroke-linejoin:round;stroke-width:2.1054;stroke:#96dfd3"/>
 <circle cx="110.3" cy="91.278" r="12.968" style="fill:#fff;stroke-linejoin:round;stroke-width:2.1054;stroke:#96dfd3"/>
 <path d="m74.527 95.387c5.0853 3.2897 10.116 3.2897 15.092 0" style="fill:none;stroke-linecap:round;stroke-linejoin:round;stroke-width:2.1054;stroke:#96dfd3"/>
 <path d="m102.75 95.387c5.0853 3.2897 10.116 3.2897 15.092 0" style="fill:none;stroke-linecap:round;stroke-linejoin:round;stroke-width:2.1054;stroke:#96dfd3"/>
 <path d="m89.814 101.82 5.8572 7.0903 6.5872-7.4596v0" style="fill:none;stroke-linecap:round;stroke-linejoin:round;stroke-width:2.1054;stroke:#96dfd3"/>
 <path d="m54.451 98.547s16.915 12.902 25.065 21.052c5.0982 5.0982-1.9191 20.47-1.9191 20.47" style="fill:none;stroke-linecap:round;stroke-linejoin:round;stroke-width:2.1054;stroke:#96dfd3"/>
 <path d="m137.55 98.547s-16.915 12.902-25.065 21.052c-5.0982 5.0982 1.9191 20.47 1.9191 20.47" style="fill:none;stroke-linecap:round;stroke-linejoin:round;stroke-width:2.1054;stroke:#96dfd3"/>
 <path d="m67.361 74.355-3.9545-8.8395 15.353 1.512z" style="fill:#fff;stroke-linecap:round;stroke-linejoin:round;stroke-width:2.1054;stroke:#fff"/>
 <path d="m123.74 74.355 3.9545-8.8395-15.353 1.512z" style="fill:#fff;stroke-linecap:round;stroke-linejoin:round;stroke-width:2.1054;stroke:#fff"/>
</svg>
