<?xml version="1.0" encoding="UTF-8"?>
<svg version="1.1" viewBox="0 0 192 192" xmlns="http://www.w3.org/2000/svg"><rect x="20" y="20" width="152" height="152" rx="10" ry="10" fill="#f8c18c"/><path d="m42.989 73.011c-12.637 0-22.989 10.351-22.989 22.989v22.989h9.9617v-4.0859c3.7104 2.5708 8.2001 4.0859 13.027 4.0859 12.637 0 22.989-10.351 22.989-22.989s-10.351-22.989-22.989-22.989zm0 9.9617c7.2535 0 13.027 5.7733 13.027 13.027 0 7.2535-5.7733 13.027-13.027 13.027-7.2535 0-13.027-5.7733-13.027-13.027 0-7.2535 5.7733-13.027 13.027-13.027z" fill="#fff"/><path d="m110.87 118.84h11.503l-26.369-45.672-26.369 45.672h11.503l14.866-25.748z" fill="#fff"/><path d="m129.09 73.011v45.977h42.912v-9.9617h-32.95v-36.015z" fill="#fff"/></svg>
