<svg xmlns="http://www.w3.org/2000/svg" width="192" height="192"><rect width="104" height="176" x="44" y="8" ry="12" style="fill:#728dbe;paint-order:stroke fill markers"/><path d="M78.58 31.848C63.738 31.232 44 60 44 60v112c0 6.648 5.352 12 12 12h80c6.648 0 12-5.352 12-12V60s-13.597-20.472-24-20c-11.302.513-12.759 25.28-24 24-12.498-1.423-7.615-29.803-20-32a10.646 10.646 0 0 0-1.42-.152z" style="fill:#f9de81"/><path d="M110.86 87.75c-.99-.01-1.945.07-2.86.25-13.906 2.735-13.853 31.112-28 32-16.023 1.005-36-32-36-32v84c0 6.648 5.353 12 12 12h80c6.649 0 12-5.352 12-12v-64s-22.3-20.107-37.14-20.25z" style="fill:#ff837d"/><path d="M44 140v32c0 6.648 5.352 12 12 12h80c6.648 0 12-5.352 12-12v-32H44z" style="fill:#fff;paint-order:stroke fill markers"/><circle cx="96" cy="160" r="8" style="fill:#56595b;paint-order:stroke fill markers"/></svg>