<?xml version="1.0" encoding="UTF-8" standalone="no"?>
<svg
   viewBox="0 0 176 176"
   version="1.1"
   id="svg12"
   sodipodi:docname="panera_bread_alt.svg"
   inkscape:version="1.2.2 (b0a8486541, 2022-12-01)"
   inkscape:export-filename="panera_bread_alt.png"
   inkscape:export-xdpi="96"
   inkscape:export-ydpi="96"
   xmlns:inkscape="http://www.inkscape.org/namespaces/inkscape"
   xmlns:sodipodi="http://sodipodi.sourceforge.net/DTD/sodipodi-0.dtd"
   xmlns="http://www.w3.org/2000/svg"
   xmlns:svg="http://www.w3.org/2000/svg">
  <defs
     id="defs16" />
  <sodipodi:namedview
     id="namedview14"
     pagecolor="#505050"
     bordercolor="#eeeeee"
     borderopacity="1"
     inkscape:showpageshadow="0"
     inkscape:pageopacity="0"
     inkscape:pagecheckerboard="0"
     inkscape:deskcolor="#d1d1d1"
     showgrid="false"
     inkscape:zoom="1.3409091"
     inkscape:cx="17.898305"
     inkscape:cy="88.372881"
     inkscape:window-width="1884"
     inkscape:window-height="1055"
     inkscape:window-x="36"
     inkscape:window-y="0"
     inkscape:window-maximized="1"
     inkscape:current-layer="svg12" />
  <circle
     cx="88"
     cy="88"
     r="88"
     fill="#f9de81"
     id="circle2" />
  <path
     fill="#8e6f60"
     d="m 64.547649,127.57472 c -1.064918,-0.31213 -2.102295,-0.72524 -3.148852,-1.08328 -0.128525,-0.0459 -0.367213,-0.0551 -0.394754,0 a 0.55999998,0.55999998 0 0 0 0,0.44066 2.3409835,2.3409835 0 0 0 0.385573,0.56 9.4098357,9.4098357 0 0 0 4.590164,2.59803 15.468852,15.468852 0 0 0 6.426229,0.13771 49.720654,49.720654 0 0 0 7.665574,-1.89115 39.117375,39.117375 0 0 0 4.360655,-1.78098 35.803277,35.803277 0 0 0 6.187541,-3.67213 c 1.028197,-0.75279 1.992131,-1.5882 2.965246,-2.39607 a 1.3036065,1.3036065 0 0 0 0.413115,-1.49639 0.65180325,0.65180325 0 0 0 -0.26623,-0.36722 c -0.07344,0 -0.266229,0.10099 -0.358033,0.20197 -0.0918,0.10098 -0.376393,0.45902 -0.56918,0.68853 -0.192787,0.2295 -0.403934,0.1836 -0.578361,0 a 1.3678688,1.3678688 0 0 1 -0.28459,-0.4682 c -0.220328,-0.73443 -0.459016,-1.45967 -0.615082,-2.21246 a 7.7206554,7.7206554 0 0 0 -1.074098,-2.85508 c -0.605902,-0.91803 -1.175082,-1.76263 -1.780984,-2.62558 a 2.1665573,2.1665573 0 0 1 -0.413114,-1.61573 7.7757374,7.7757374 0 0 0 0.08262,-1.30361 2.2767212,2.2767212 0 0 0 -0.220328,-0.91803 7.2432784,7.2432784 0 0 0 -1.744262,-2.24 q -0.81705,-0.71607 -1.597377,-1.45967 a 1.12,1.12 0 0 1 -0.293771,-1.01902 6.4262292,6.4262292 0 0 1 1.239344,-2.919345 0.74360653,0.74360653 0 0 1 1.055738,-0.27541 c 0.84459,0.394754 1.68,0.826225 2.51541,1.266885 a 2.7540982,2.7540982 0 0 1 1.294426,1.45967 12.430163,12.430163 0 0 0 2.52459,3.45181 c 0.0918,0.10098 0.312131,0.0918 0.477377,0.12852 0,-0.16525 0.06426,-0.36721 0,-0.50492 -0.348852,-0.73442 -0.716066,-1.45967 -1.083279,-2.18492 a 19.416393,19.416393 0 0 0 -4.21377,-5.609176 1.6065573,1.6065573 0 0 0 -1.055738,-0.56918 H 85.04732 a 1.5514753,1.5514753 0 0 0 -1.294426,0.743606 13.697049,13.697049 0 0 0 -1.891147,3.98426 3.139672,3.139672 0 0 0 0.376393,3.02033 17.442622,17.442622 0 0 0 1.698361,1.83607 1.9278688,1.9278688 0 0 1 0.752786,1.57901 c 0,0.71607 0,1.42295 -0.07344,2.12984 a 7.7665571,7.7665571 0 0 0 0.477377,3.51606 1.8360655,1.8360655 0 0 0 1.083279,1.0741 c 0.504918,0.17443 0.991475,0.37639 1.496393,0.54164 a 1.092459,1.092459 0 0 1 0.789508,0.75279 11.934426,11.934426 0 0 1 0.422295,1.83606 3.2314753,3.2314753 0 0 0 1.055738,2.30427 1.9186884,1.9186884 0 0 1 0.220328,0.25704 c 0.30295,0.38558 0.29377,0.45902 -0.06426,0.76197 a 21.86754,21.86754 0 0 1 -4.865573,3.02033 27.063605,27.063605 0 0 1 -4.709508,1.7259 20.435409,20.435409 0 0 1 -4.333115,0.77115 13.118688,13.118688 0 0 1 -6.132459,-1.19344 7.8032784,7.8032784 0 0 1 -3.020327,-2.16656 2.4878688,2.4878688 0 0 1 0.0918,-3.48853 c 1.184262,-0.97311 2.396065,-1.89114 3.598688,-2.80918 0.146886,0.26623 0.27541,0.49574 0.413115,0.71607 a 6.334426,6.334426 0 0 0 1.597377,1.91869 0.71606554,0.71606554 0 0 0 0.807869,0.0918 c 0.257049,-0.16524 0.08262,-0.41311 0,-0.62426 -0.358033,-1.48721 -0.780328,-2.95607 -1.083279,-4.44328 a 26.751474,26.751474 0 0 1 -0.348852,-6.35279 11.181639,11.181639 0 0 1 0.706885,-3.67213 9.9606553,9.9606553 0 0 1 4.259672,-4.76459 c 0.780328,-0.477374 1.597377,-0.91803 2.396065,-1.358686 a 1.9095081,1.9095081 0 0 0 0.348853,-0.321311 l -0.05508,-0.128525 a 10.685901,10.685901 0 0 0 -1.340328,0.137705 22.620327,22.620327 0 0 0 -12.531147,8.574427 c -0.642623,0.91803 -1.193442,1.90951 -1.836065,2.85508 a 2.9377048,2.9377048 0 0 1 -1.468853,1.39541 c -0.761967,0.24787 -1.533115,0.48656 -2.295082,0.70689 a 8.2622947,8.2622947 0 0 0 -3.791475,1.93705 4.1678687,4.1678687 0 0 0 -0.936393,1.49639 2.0931147,2.0931147 0 0 0 0.192787,-0.0918 7.9685243,7.9685243 0 0 1 4.883934,-1.4964 c 1.266885,0 2.52459,0.11935 3.782295,0.14689 a 4.5901637,4.5901637 0 0 0 2.203278,-0.49574 c 0.54164,-0.26623 1.064918,-0.58754 1.624918,-0.81705 0.56,-0.22951 1.055738,0 1.12,0.68852 a 2.3318032,2.3318032 0 0 1 -1.028196,2.20328 11.48459,11.48459 0 0 1 -3.112131,1.59738 12.402622,12.402622 0 0 0 -1.652459,0.66098 2.9560655,2.9560655 0 0 0 -1.68,3.33246 7.9593439,7.9593439 0 0 0 2.708196,4.59017 12.990163,12.990163 0 0 0 3.378361,2.24918 8.8314751,8.8314751 0 0 1 -3.442623,-0.39476 z M 60.609288,97.114396 c -1.377049,0.55082 -2.80918,0.982295 -4.20459,1.514754 a 22.207212,22.207212 0 0 0 -6.609835,3.67213 7.2432784,7.2432784 0 0 0 -2.598033,3.99344 2.0196721,2.0196721 0 0 0 0,0.3305 1.4413114,1.4413114 0 0 0 0.348852,-0.41312 9.5750816,9.5750816 0 0 1 2.23082,-2.32262 17.644589,17.644589 0 0 1 6.233442,-2.7541 c 1.257705,-0.32131 2.533771,-0.55082 3.782295,-0.91803 a 15.331147,15.331147 0 0 0 7.665574,-4.590167 7.5003276,7.5003276 0 0 0 1.891147,-4.094426 v -1.349508 c 0.440656,0.358033 0.807869,0.651803 1.165902,0.918033 a 12.650491,12.650491 0 0 0 3.819016,2.414426 6.3160653,6.3160653 0 0 0 5.287869,-0.394754 16.653114,16.653114 0 0 0 3.286557,-2.570492 c 0.532459,-0.495738 1.074098,-0.973115 1.615738,-1.459672 a 1.7442622,1.7442622 0 0 1 0,0.587541 3.139672,3.139672 0 0 0 0.835409,2.919344 4.9757375,4.9757375 0 0 0 1.992131,1.055738 12.375081,12.375081 0 0 0 4.066886,0.321311 c 0.165245,0 0.330491,-0.06426 0.596721,-0.110164 a 2.5980327,2.5980327 0 0 0 -0.413115,-0.229508 l -1.542295,-0.596721 a 3.617049,3.617049 0 0 1 -2.010492,-1.744262 8.8957373,8.8957373 0 0 1 -0.918032,-3.479345 5.2327867,5.2327867 0 0 1 0.385573,-2.616393 11.558032,11.558032 0 0 0 0.605902,-1.716721 7.7481964,7.7481964 0 0 0 0.29377,-1.523935 1.2668852,1.2668852 0 0 0 -0.468196,-1.064918 c -0.05508,0.128525 -0.100984,0.220328 -0.137705,0.321312 -0.26623,0.642623 -0.477377,1.321967 -0.798689,1.937049 a 19.122622,19.122622 0 0 1 -3.185573,4.333115 18.360655,18.360655 0 0 1 -5.003279,3.672131 4.5259015,4.5259015 0 0 1 -3.571147,0.28459 15.358688,15.358688 0 0 1 -5.159344,-2.910164 14.688524,14.688524 0 0 1 -4.544262,-6.683278 24.263606,24.263606 0 0 1 -1.138361,-7.105574 34.664917,34.664917 0 0 1 0.514098,-6.683278 c 0.08262,-0.468197 0.146886,-0.918033 0.229509,-1.496394 l -0.229509,0.238689 a 10.594098,10.594098 0 0 0 -1.955409,3.617049 20.086557,20.086557 0 0 0 -0.780328,6.563934 v 0.367213 l -0.100984,0.05508 a 7.9409833,7.9409833 0 0 1 -0.862951,-0.798688 10.768524,10.768524 0 0 1 -2.322622,-6.187541 21.481966,21.481966 0 0 1 0.918032,-7.509508 18.764589,18.764589 0 0 1 3.185574,-6.260983 18.149507,18.149507 0 0 1 6.371147,-5.196066 21.849179,21.849179 0 0 1 4.74623,-1.69836 27.081966,27.081966 0 0 1 4.590163,-0.633443 22.546884,22.546884 0 0 1 6.563934,0.55082 20.967868,20.967868 0 0 1 7.628853,3.672131 45.066228,45.066228 0 0 1 7.270819,6.912786 40.209834,40.209834 0 0 0 4.50754,4.681967 15.817704,15.817704 0 0 0 9.43738,3.64459 17.855737,17.855737 0 0 0 6.59147,-0.86295 19.177704,19.177704 0 0 0 7.01377,-3.892459 c 0.36722,-0.330492 0.67935,-0.716066 1.01902,-1.074099 l -0.0643,-0.06426 c -0.40394,0.201967 -0.80787,0.422295 -1.22099,0.596721 a 24.236065,24.236065 0 0 1 -5.42557,1.478033 21.114753,21.114753 0 0 1 -6.42623,0.201967 13.008524,13.008524 0 0 1 -7.50033,-3.672131 c -1.58819,-1.579016 -3.05705,-3.268196 -4.53508,-4.948196 a 36.629507,36.629507 0 0 0 -8.262294,-6.931148 26.301638,26.301638 0 0 0 -9.27213,-3.525245 30.340982,30.340982 0 0 0 -19.140983,3.194754 23.988196,23.988196 0 0 0 -6.343607,5.012459 22.684589,22.684589 0 0 0 -4.718688,8.060327 29.780982,29.780982 0 0 0 -1.386229,11.576393 20.288524,20.288524 0 0 0 1.670819,6.921967 11.934426,11.934426 0 0 0 3.424262,4.672787 c 0.807869,0.642623 1.67082,1.211803 2.487869,1.836065 a 14.403934,14.403934 0 0 1 3.011148,2.965246 3.617049,3.617049 0 0 1 0.789508,1.946229 3.1029507,3.1029507 0 0 1 -0.918033,2.23082 11.080655,11.080655 0 0 1 -4.305574,2.80918 z M 59.167977,80.67243 a 3.672131,3.672131 0 0 1 0,0.550819 c 0,0.376394 -0.348852,0.514099 -0.642623,0.28459 a 0.78950816,0.78950816 0 0 1 -0.302951,-0.440655 c -0.201967,-1.285246 -0.385573,-2.579672 -0.56,-3.874099 -0.0459,-0.30295 0,-0.559999 0.385574,-0.624262 a 0.47737703,0.47737703 0 0 1 0.578361,0.413115 16.900983,16.900983 0 0 1 0.413114,1.771803 c 0.100984,0.633443 0.137705,1.276066 0.201968,1.918689 z m 1.95541,2.882622 a 0.8354098,0.8354098 0 0 1 -0.615082,-0.119344 0.91803275,0.91803275 0 0 1 -0.293771,-0.596721 c -0.137705,-1.156721 -0.247868,-2.322623 -0.358032,-3.433443 0,-0.330491 0,-0.679344 0.312131,-0.780327 0.312131,-0.100984 0.514098,0.201967 0.633442,0.459016 a 2.8550819,2.8550819 0 0 1 0.229509,0.817049 c 0.119344,1.046557 0.201967,2.093115 0.30295,3.139672 0.01836,0.229508 0.03672,0.468197 -0.211147,0.514098 z m 2.230819,1.349509 a 0.44983605,0.44983605 0 0 1 -0.761967,0.119344 1.4780327,1.4780327 0 0 1 -0.302951,-0.670164 c -0.128524,-1.266885 -0.229508,-2.53377 -0.330491,-3.800656 a 2.3226229,2.3226229 0 0 1 0,-0.615082 c 0.05508,-0.312131 0.30295,-0.449836 0.550819,-0.266229 a 1.0006557,1.0006557 0 0 1 0.403935,0.587541 c 0.146885,1.037377 0.238688,2.093115 0.339672,3.139672 0,0.348852 0.06426,0.706885 0.100983,1.12918 a 1.2209836,1.2209836 0 0 1 0,0.376394 z m 50.326554,35.582949 a 2.5429507,2.5429507 0 0 0 -0.83541,0.15607 c -0.91803,0.34885 -1.83606,0.71606 -2.81836,1.10163 a 14.247868,14.247868 0 0 1 -2.9377,0.91804 7.1239341,7.1239341 0 0 1 -3.58951,-0.32131 13.770491,13.770491 0 0 0 -1.37705,-0.34886 l -0.0826,0.13771 a 2.3042622,2.3042622 0 0 0 0.91803,1.00065 9.4373767,9.4373767 0 0 0 5.5082,1.0741 19.379671,19.379671 0 0 0 4.37901,-1.03737 5.8386883,5.8386883 0 0 0 1.53312,-0.80787 0.91803275,0.91803275 0 0 0 0.32131,-1.19345 1.0740983,1.0740983 0 0 0 -1.01902,-0.67934 z"
     id="path4"
     style="stroke-width:0.918033" />
  <path
     fill="#8e6f60"
     d="m 76.931911,80.011446 a 2.7540982,2.7540982 0 0 1 -0.615082,0 c -0.330492,-0.07344 -0.651803,-0.211147 -0.982295,-0.266229 -0.192787,0 -0.468197,0 -0.56,0.08262 -0.0918,0.08262 0,0.385574 0,0.56 a 1.2944262,1.2944262 0 0 0 0.376393,0.431476 3.1580327,3.1580327 0 0 0 4.085246,-0.385574 1.4045901,1.4045901 0 0 0 0.385574,-1.478033 5.8662293,5.8662293 0 0 0 -0.495738,-1.092459 3.1213113,3.1213113 0 0 1 0.229508,-3.672131 3.5527867,3.5527867 0 0 1 2.304262,-1.184262 c 0.918033,-0.165246 1.836066,-0.28459 2.818361,-0.431475 a 1.9186884,1.9186884 0 0 0 1.478033,-1.11082 h -1.000656 c -1.41377,0 -2.827541,0 -4.232131,0.110164 a 3.672131,3.672131 0 0 0 -2.506229,1.083279 4.2872129,4.2872129 0 0 0 -1.211804,3.672131 16.405245,16.405245 0 0 0 0.459017,1.753442 8.2622947,8.2622947 0 0 1 0.27541,0.918033 0.77114751,0.77114751 0 0 1 -0.807869,1.009836 z M 100.0847,101.30981 a 2.9009835,2.9009835 0 0 0 -2.451151,2.48786 2.4603278,2.4603278 0 0 1 -0.918032,1.90033 c -0.670164,0.50492 -1.303607,1.05574 -1.973771,1.56066 a 1.3862295,1.3862295 0 0 0 -0.615082,1.12918 c 0,0.54164 -0.0918,1.0741 -0.119344,1.61574 -0.06426,1.29442 -0.137705,2.58885 -0.156066,3.88327 a 16.166557,16.166557 0 0 0 0.615082,4.07607 3.672131,3.672131 0 0 0 2.643935,3.00197 12.659672,12.659672 0 0 0 2.26754,0.34885 18.076065,18.076065 0 0 0 5.352129,-0.33049 14.559999,14.559999 0 0 0 4.84722,-2.15738 7.0413112,7.0413112 0 0 0 2.53377,-2.82754 6.4262292,6.4262292 0 0 0 0.42229,-3.00197 3.7455736,3.7455736 0 0 0 -1.83606,-3.28655 8.5285242,8.5285242 0 0 1 -1.6341,-1.40459 3.0662294,3.0662294 0 0 1 -0.80787,-2.64394 c 0.0643,-0.4682 0.33049,-0.6059 0.76197,-0.42229 a 3.0203277,3.0203277 0 0 1 0.6977,0.37639 12.219016,12.219016 0 0 0 3.99344,1.78098 5.1226227,5.1226227 0 0 1 1.65246,0.72525 6.279344,6.279344 0 0 1 2.92853,4.09442 h 0.0826 a 1.2577049,1.2577049 0 0 0 0.0459,-0.25704 c 0,-0.5141 0,-1.03738 -0.0734,-1.55148 a 4.8104916,4.8104916 0 0 0 -2.23082,-3.76393 27.889835,27.889835 0 0 0 -2.62558,-1.43213 c -1.15672,-0.56 -2.3777,-0.99148 -3.4977,-1.59738 a 21.01377,21.01377 0 0 0 -5.7377,-2.17574 9.391475,9.391475 0 0 0 -4.16787,-0.12852 z m 0.91803,11.01639 a 4.2688523,4.2688523 0 0 0 0.40393,-0.52328 c 0.55082,-1.03738 1.01902,-2.11148 1.64328,-3.09377 0.62426,-0.9823 1.51476,-2.07475 2.27672,-3.11213 l 0.16525,-0.12853 a 11.934426,11.934426 0 0 1 0.91803,1.19345 c 0.81705,1.31278 1.65246,2.61639 2.35017,3.99344 a 4.8104916,4.8104916 0 0 1 -1.38623,5.81115 10.584918,10.584918 0 0 1 -3.60787,1.94623 13.46754,13.46754 0 0 1 -4.323936,0.91803 15.487212,15.487212 0 0 1 -2.258361,-0.16525 1.8360655,1.8360655 0 0 1 -1.606557,-1.7259 23.868851,23.868851 0 0 1 0.192787,-7.09639 l 0.08262,-0.55082 a 1.1291803,1.1291803 0 0 1 0.752787,-1.01902 2.6806556,2.6806556 0 0 0 1.836065,-2.35934 3.167213,3.167213 0 0 1 2.028855,-2.54295 c 0.48656,-0.20197 0.91803,-0.43148 1.44131,-0.64263 a 2.6163933,2.6163933 0 0 1 1.52394,0 c 0.24787,0 0.48655,0.11935 0.7895,0.19279 a 11.20918,11.20918 0 0 0 -3.48852,7.01377 3.8190162,3.8190162 0 0 0 0.28459,1.89115 z"
     id="path6"
     style="stroke-width:0.918033" />
  <path
     fill="#8e6f60"
     d="m 117.17847,86.942593 a 23.024261,23.024261 0 0 0 9.08852,-7.592131 c 0.39475,-0.56918 0.71607,-1.184262 1.0741,-1.780983 h -0.0643 c -0.55082,0.514098 -1.08328,1.046557 -1.65246,1.542295 a 22.950819,22.950819 0 0 1 -8.2623,4.590164 23.55672,23.55672 0 0 1 -5.90295,1.074098 24.089179,24.089179 0 0 1 -7.62885,-0.918033 14.247868,14.247868 0 0 1 -6.554754,-3.809836 29.854425,29.854425 0 0 1 -4.268852,-5.636721 c -1.175082,-1.946229 -2.276721,-3.956721 -3.451803,-5.90295 a 18.039344,18.039344 0 0 0 -4.158688,-4.966557 7.5278685,7.5278685 0 0 0 -6.894426,-1.66164 c -0.486558,0.128525 -0.918033,0.339672 -1.40459,0.504918 v 0.0918 l 0.633442,-0.0918 a 6.6832784,6.6832784 0 0 1 3.295738,0.28459 7.7665571,7.7665571 0 0 1 3.607869,2.754099 19.700983,19.700983 0 0 1 2.754098,5.306229 50.491801,50.491801 0 0 0 3.956721,8.868196 22.372458,22.372458 0 0 0 4.810492,5.847869 15.946229,15.946229 0 0 0 6.554753,3.36 19.076721,19.076721 0 0 0 7.95934,0.29377 23.602622,23.602622 0 0 0 6.50886,-2.157377 z M 78.474206,105.30325 a 41.862293,41.862293 0 0 0 -0.229508,-2.15738 c 0,-0.1377 -0.137705,-0.35803 -0.220328,-0.36721 a 0.67934423,0.67934423 0 0 0 -0.413115,0.22033 3.4059015,3.4059015 0 0 0 -0.403934,0.59672 8.4183603,8.4183603 0 0 0 -0.973115,4.46164 15.900327,15.900327 0 0 0 0.660983,4.09442 9.0150816,9.0150816 0 0 0 2.634754,4.27804 6.3527866,6.3527866 0 0 0 1.257705,0.73442 h 0.348853 a 1.3036065,1.3036065 0 0 0 0,-0.33049 c -0.220328,-0.58754 -0.459017,-1.17508 -0.688525,-1.75344 a 32.681966,32.681966 0 0 1 -1.97377,-9.77705 z"
     id="path8"
     style="stroke-width:0.918033" />
  <path
     fill="#8e6f60"
     d="m 128.80994,69.73866 a 0.2019672,0.2019672 0 0 0 -0.16524,0.05508 20.123278,20.123278 0 0 1 -6.55476,3.892458 23.299671,23.299671 0 0 1 -7.34426,1.38623 14.036721,14.036721 0 0 1 -5.88459,-1.064918 17.993442,17.993442 0 0 1 -4.98492,-3.323279 64.032784,64.032784 0 0 1 -5.159342,-5.508196 57.138358,57.138358 0 0 0 -5.214426,-5.508197 19.866229,19.866229 0 0 0 -5.700983,-3.727213 16.102294,16.102294 0 0 0 -11.539672,-0.486557 8.6386882,8.6386882 0 0 0 -4.535082,3.36918 5.8111473,5.8111473 0 0 0 -0.918033,4.516721 15.606557,15.606557 0 0 1 0.431476,-1.533114 6.9678686,6.9678686 0 0 1 4.911475,-4.241312 13.412458,13.412458 0 0 1 5.508196,-0.211147 13.853114,13.853114 0 0 1 6.077377,2.340983 20.885245,20.885245 0 0 1 4.773771,4.782951 c 1.009836,1.349508 1.955409,2.754098 2.928524,4.121967 a 48.435408,48.435408 0 0 0 4.415738,5.508196 15.478032,15.478032 0 0 0 9.060981,4.902295 19.076721,19.076721 0 0 0 7.95017,-0.596721 22.592786,22.592786 0 0 0 7.19737,-3.424262 15.294426,15.294426 0 0 0 4.59017,-4.911475 z M 72.809944,84.105872 a 0.33967212,0.33967212 0 0 0 -0.247869,0.192787 c 0,0.07344 0.08262,0.201967 0.165246,0.266229 0.440655,0.358033 0.918033,0.706886 1.349508,1.064918 a 3.9750818,3.9750818 0 0 0 2.607213,1.055738 2.5613114,2.5613114 0 0 0 1.579016,-0.413115 c 0.817049,-0.532459 1.606558,-1.110819 2.386885,-1.68 a 0.47737703,0.47737703 0 0 0 0.119345,-0.413114 c 0,-0.07344 -0.247869,-0.156066 -0.367213,-0.137705 a 6.6281965,6.6281965 0 0 1 -2.331804,0 7.8124587,7.8124587 0 0 0 -2.53377,0 13.513442,13.513442 0 0 1 -1.836066,0.0918 c -0.30295,-0.01836 -0.605901,-0.0459 -0.890491,-0.02754 z m 1.367868,-11.998688 a 4.9757375,4.9757375 0 0 0 -2.285901,-0.56 h -4.76459 a 1.8360655,1.8360655 0 0 0 1.450492,1.083279 c 0.541639,0.100983 1.092459,0.128524 1.634098,0.229508 a 14.541639,14.541639 0 0 1 2.267541,0.532459 2.0288524,2.0288524 0 0 0 2.019672,-0.358033 0.37639343,0.37639343 0 0 0 0.0459,-0.596721 1.1383606,1.1383606 0 0 0 -0.367214,-0.330492 z"
     id="path10"
     style="stroke-width:0.918033" />
</svg>
