<svg xmlns="http://www.w3.org/2000/svg" xml:space="preserve" id="svg16" version="1.1" viewBox="0 0 192 192"><defs id="defs4"><style id="style2">.a{fill:none;stroke:#b1b5bd;stroke-linecap:round;stroke-linejoin:round;isolation:isolate;opacity:.63}</style></defs><rect id="rect6" width="152" height="152" x="20" y="20" class="a" rx="10" style="fill:#f58f8a;stroke:none;opacity:1;fill-opacity:1"/><path id="path829" d="M54.093 93.177s5.082-13.623 16.083-21.296c5.982-4.173 14.058-6.472 21.296-7.246 1.139-.122 2.503-1.24 2.474-2.386-.03-1.21-1.529-2.367-2.74-2.386-4.285-.067-13.28 1.825-22.71 7.865-13.61 8.718-14.403 25.45-14.403 25.45Z" style="fill:#fff;stroke:none;stroke-width:.86892402px;stroke-linecap:butt;stroke-linejoin:miter;stroke-opacity:1"/><path id="path831" d="M106.427 70.155c-3.136 3.229-6.13 4.353-8.265 4.377-1.554.017-4.715-1.831-7.132-1.678-14.779.936-29.7 21.212-31.9 26.465 0 0-1.773 1.936-5.214.751 2.081 2.15 3.976 2.164 3.976 2.164l-3.976 1.37s2.76.739 4.375 2.386c3.138 3.2 6.258 8.577 11.266 13.166 7.644 7.005 19.871 13.252 31.104 12.99 13.801-.322 33.483-6.585 33.315-19.44-.168-12.841-20.366-10.767-19.972-20.235.233-5.606 5.635-8.019 10.162-8.308 7.277-.464 9.898 5.39 9.898 5.39s-1.386-11.113-9.986-11.133c-6.969-.015-15.579 5.75-15.64 13.874-.113 14.835 19.583 11.862 19.617 20.411.059 15.11-34.639 13.61-34.639 13.61s5.433-4.713 6.54-23.329c.722-12.148-2.034-20.148-2.034-20.148s4.684.983 9.455-4.153c-5.81 1.78-9.984 0-9.984 0s8.567-.161 9.034-8.53zm-17.611 9.757c.786.011 1.913.145 3.275.63 0 0 1.449 2.751 2.563 8.394-2.085-.09-3.006 2.121-3.006 2.121s1.781 1.776 1.325 4.506c-.804 4.814-3.888 2.739-3.888 2.739s-2.044 12.16 4.684 15.111c-.387 3.935-3.644 10.268-5.654 10.427-2.646.21-5.59-13.894-5.214-22.975.604-14.552 4.682-20.855 4.682-20.855s.446-.11 1.233-.098zm-7.772 2.926s-3.244 8.164-3.092 18.558c.2 13.667 2.74 19.439 2.74 19.439s-11.728-6.727-17.143-19.174c7.081-12.94 17.495-18.823 17.495-18.823z" style="fill:#fff;stroke:none;stroke-width:.86892402px;stroke-linecap:butt;stroke-linejoin:miter;stroke-opacity:1"/><g id="g5017" transform="translate(0 -229.424)"><rect id="rect6-6" width="152" height="152" x="20" y="20" class="a" rx="10" style="opacity:1;fill:#ba6561;stroke:none"/><rect id="rect6-1" width="152" height="152" x="20" y="20" class="a" rx="10" style="opacity:.25;isolation:isolate;fill:#bd9aff;stroke:none;stroke-linecap:round;stroke-linejoin:round"/><path id="path829-2" d="M54.093 93.177s5.082-13.623 16.083-21.296c5.982-4.173 14.058-6.472 21.296-7.246 1.139-.122 2.503-1.24 2.474-2.386-.03-1.21-1.529-2.367-2.74-2.386-4.285-.067-13.28 1.825-22.71 7.865-13.61 8.718-14.403 25.45-14.403 25.45Z" style="fill:#fff;stroke:none;stroke-width:.868924px;stroke-linecap:butt;stroke-linejoin:miter;stroke-opacity:1"/><path id="path831-9" d="M106.427 70.155c-3.136 3.229-6.13 4.353-8.265 4.377-1.554.017-4.715-1.831-7.132-1.678-14.779.936-29.7 21.212-31.9 26.465 0 0-1.773 1.936-5.214.751 2.081 2.15 3.976 2.164 3.976 2.164l-3.976 1.37s2.76.739 4.375 2.386c3.138 3.2 6.258 8.577 11.266 13.166 7.644 7.005 19.871 13.252 31.104 12.99 13.801-.322 33.483-6.585 33.315-19.44-.168-12.841-20.366-10.767-19.972-20.235.233-5.606 5.635-8.019 10.162-8.308 7.277-.464 9.898 5.39 9.898 5.39s-1.386-11.113-9.986-11.133c-6.969-.015-15.579 5.75-15.64 13.874-.113 14.835 19.583 11.862 19.617 20.411.059 15.11-34.639 13.61-34.639 13.61s5.433-4.713 6.54-23.329c.722-12.148-2.034-20.148-2.034-20.148s4.684.983 9.455-4.153c-5.81 1.78-9.984 0-9.984 0s8.567-.161 9.034-8.53zm-17.611 9.757c.786.011 1.913.145 3.275.63 0 0 1.449 2.751 2.563 8.394-2.085-.09-3.006 2.121-3.006 2.121s1.781 1.776 1.325 4.506c-.804 4.814-3.888 2.739-3.888 2.739s-2.044 12.16 4.684 15.111c-.387 3.935-3.644 10.268-5.654 10.427-2.646.21-5.59-13.894-5.214-22.975.604-14.552 4.682-20.855 4.682-20.855s.446-.11 1.233-.098zm-7.772 2.926s-3.244 8.164-3.092 18.558c.2 13.667 2.74 19.439 2.74 19.439s-11.728-6.727-17.143-19.174c7.081-12.94 17.495-18.823 17.495-18.823z" style="fill:#fff;stroke:none;stroke-width:.868924px;stroke-linecap:butt;stroke-linejoin:miter;stroke-opacity:1"/></g></svg>