<?xml version="1.0" encoding="UTF-8" standalone="no"?>
<svg
   width="192"
   height="192"
   version="1.1"
   id="svg15"
   sodipodi:docname="papara.svg"
   inkscape:version="1.2.2 (b0a8486541, 2022-12-01)"
   inkscape:export-filename="papara.png"
   inkscape:export-xdpi="96"
   inkscape:export-ydpi="96"
   xml:space="preserve"
   xmlns:inkscape="http://www.inkscape.org/namespaces/inkscape"
   xmlns:sodipodi="http://sodipodi.sourceforge.net/DTD/sodipodi-0.dtd"
   xmlns="http://www.w3.org/2000/svg"
   xmlns:svg="http://www.w3.org/2000/svg"><sodipodi:namedview
     id="namedview17"
     pagecolor="#505050"
     bordercolor="#eeeeee"
     borderopacity="1"
     inkscape:showpageshadow="0"
     inkscape:pageopacity="0"
     inkscape:pagecheckerboard="0"
     inkscape:deskcolor="#d1d1d1"
     showgrid="false"
     inkscape:zoom="1.2291667"
     inkscape:cx="-164.74576"
     inkscape:cy="38.644067"
     inkscape:window-width="1884"
     inkscape:window-height="1055"
     inkscape:window-x="36"
     inkscape:window-y="0"
     inkscape:window-maximized="1"
     inkscape:current-layer="svg15" /><defs
     id="defs7" /><style
     type="text/css"
     id="style131">
	.st0{fill-rule:evenodd;clip-rule:evenodd;}
</style><circle
     cx="96"
     cy="96"
     r="88"
     fill="#ffffff"
     id="circle9" /><path
     d="m 99.231217,59.500001 h -6.257141 c -12.097145,0 -21.900003,9.802858 -21.900003,21.9 V 132.5 h 11.680003 v -18.77143 c 2.711428,1.25144 5.84,2.08572 8.96857,2.08572 h 6.465711 c 12.514303,0 22.734303,-10.22 22.734303,-22.73429 V 81.400001 c 0.20857,-12.097143 -9.59429,-21.9 -21.691443,-21.9 z m 10.429003,33.58 c 0,6.04857 -5.00572,11.054289 -11.054293,11.054289 h -6.674711 c -5.005715,0 -8.968568,-3.96286 -8.968568,-8.968569 v -13.55715 c 0,-5.631428 4.588568,-10.219998 10.219998,-10.219998 h 6.257141 c 5.631443,0 10.220643,4.58857 10.220433,10.219998 z"
     id="path325"
     style="fill:#56595b;stroke-width:2.08571"
     sodipodi:nodetypes="ssscccssscscssssssscc" /><path
     d="M 147.31343,-10.242379 Z"
     id="path327" /></svg>
