<svg xmlns="http://www.w3.org/2000/svg" width="192" height="192"><g style="stroke-width:.762373" transform="matrix(1.3117 0 0 1.3117 -26.759 -24.48)"><g style="fill:#96dfd3;stroke:none;stroke-width:.234884"><path d="M85.098 18.164a4 4 0 0 1 3.953 4.608l-2.77 18a4 4 0 0 1-3.953 3.392H60.192a4 4 0 0 1-3.954-3.392l-2.769-18a4 4 0 0 1 3.954-4.608h27.675z" style="opacity:1;fill:#96dfd3;stroke:none;stroke-width:.234884;stroke-linecap:round;stroke-linejoin:round;isolation:isolate" transform="matrix(3.24808 0 0 3.2434 -137.87 11.653)"/></g><path d="M93.98 28.806c-16.86 0-30.529 13.669-30.529 30.529v11.232h11.276V59.335c0-10.634 8.62-19.256 19.253-19.256 10.634 0 19.254 8.622 19.254 19.256v31.53l-26.148 26.148 8.592 7.353 17.556-17.556v25.668l11.276-1.631V59.335c0-16.86-13.67-30.53-30.53-30.53z" style="fill:#728dbe;stroke-width:3.04949;stroke-linecap:round;stroke-linejoin:round;stroke-dashoffset:1.9;paint-order:markers fill stroke;stop-color:#000"/><circle cx="118.66" cy="94.985" r="11.532" style="fill:#fff;stroke:none;stroke-width:3.04949;stroke-linecap:round;stroke-linejoin:round;stroke-miterlimit:4;stroke-dasharray:none;stroke-dashoffset:1.9;paint-order:markers fill stroke;stop-color:#000"/><circle cx="117.622" cy="137.468" r="11.532" style="fill:#fff;stroke:none;stroke-width:3.04949;stroke-linecap:round;stroke-linejoin:round;stroke-miterlimit:4;stroke-dasharray:none;stroke-dashoffset:1.9;paint-order:markers fill stroke;stop-color:#000"/><circle cx="88.317" cy="124.192" r="11.532" style="fill:#fff;stroke:none;stroke-width:3.04949;stroke-linecap:round;stroke-linejoin:round;stroke-miterlimit:4;stroke-dasharray:none;stroke-dashoffset:1.9;paint-order:markers fill stroke;stop-color:#000"/></g></svg>