<?xml version="1.0" encoding="UTF-8"?><svg id="uuid-c04ed15c-3dd9-423d-82eb-29245c4fcf84" xmlns="http://www.w3.org/2000/svg" width="192" height="192" xmlns:xlink="http://www.w3.org/1999/xlink" viewBox="0 0 192 192"><defs><clipPath id="uuid-f9529382-5cd6-4d26-8512-59c3a7925cfe"><circle cx="96" cy="96" r="88" fill="#fff" stroke-width="0"/></clipPath></defs><g id="uuid-7153e92c-d834-4285-9ea0-33b72e6e0656"><g id="uuid-51ed2d0b-e4cc-4290-b72b-45ecd8736dfc"><circle cx="96" cy="96" r="88" fill="#fff"/><g clip-path="url(#uuid-f9529382-5cd6-4d26-8512-59c3a7925cfe)"><path d="m108.41,101.13c-2.13.82-8.47,1.11-12.63-.34-7.34-2.55-9.76-10.12-4.08-19.84,7.64-13.08,29.13-18.85,48.54-9.9,0,0-11.59-11.93-31.46-12.07-16.4-.14-36.83,11.29-38.91,25.93-1.99,13.92,12.47,23.22,28.45,20.48,7.3-1.25,10.1-4.29,10.1-4.29" fill="#ff837d" stroke-width="0"/><path d="m70.35,74.03c-14.26,6.02-20.66,15.83-19.13,26.43,1.89,13.34,21.38,25.03,41.92,19.45,16.84-4.57,22.67-14.95,23.68-23.13,0,0-9.25,19.03-35.57,12.94-10.9-2.51-16.17-10.42-17.28-16.9-2.05-11.99,6.4-18.79,6.4-18.79" fill="#ff837d" stroke-width="0"/><path d="m99,86.88c2.78-1.65,8.09-2.25,13.2-.22,7.75,3.08,11.53,10.12,6.46,20.7-6.82,14.24-31.54,24.48-50.21,15.55,0,0,1.29,1.37,4.83,3.18,9.31,4.71,30.66,12.51,52.43.74,17-9.15,18.43-25.37,11.15-35.21-7.06-9.52-20.36-11.43-27.6-10.08-7.14,1.33-10.22,5.33-10.22,5.33" fill="#ff837d" stroke-width="0"/></g></g></g></svg>