<?xml version="1.0" encoding="UTF-8"?>
<svg version="1.1" viewBox="0 0 192 192" xml:space="preserve" xmlns="http://www.w3.org/2000/svg"><defs><clipPath id="clipPath372"><path d="m173 30v132c0 5.519-4.481 10-10 10h-132c-5.519 0-10-4.481-10-10v-132c0-5.519 4.481-10 10-10h132c5.519 0 10 4.481 10 10z" clip-rule="evenodd" fill="#fff" fill-rule="evenodd" stroke-linejoin="round" stroke-miterlimit="2"/></clipPath><clipPath id="clipPath376"><path d="m173 30v132c0 5.519-4.481 10-10 10h-132c-5.519 0-10-4.481-10-10v-132c0-5.519 4.481-10 10-10h132c5.519 0 10 4.481 10 10z" clip-rule="evenodd" fill="#fff" fill-rule="evenodd" stroke-linejoin="round" stroke-miterlimit="2"/></clipPath></defs>
	 <g transform="translate(-1)" clip-rule="evenodd" fill-rule="evenodd" stroke-linejoin="round" stroke-miterlimit="2"><g id="bg">
        <path d="m173 30v132c0 5.519-4.481 10-10 10h-132c-5.519 0-10-4.481-10-10v-132c0-5.519 4.481-10 10-10h132c5.519 0 10 4.481 10 10z" fill="#fff"/>
        <g id="bottom" fill-rule="nonzero">
            <path d="m1 152h192c0 12.444-11.31 22.532-25.263 22.532h-141.47c-13.953 0-25.263-10.088-25.263-22.532z" clip-path="url(#clipPath376)" fill="#728dbe" stroke-width="1.1929"/>
            <rect x="21" y="152" width="152" height="10" clip-path="url(#clipPath372)" fill="#9abeff"/>
        </g>
    </g><g id="icon" transform="matrix(.75032 0 0 .75032 25.03 26.088)">
        <rect x="37.345" y="88.67" width="39.405" height="2" fill="#728dbe"/>
        <rect x="114" y="88.67" width="40.493" height="2" fill="#728dbe"/>
        <rect x="37.345" y="86.67" width="39.405" height="2" fill="#9abeff"/>
        <rect x="114" y="86.687" width="40.493" height="2" fill="#9abeff"/>
        <g id="text" fill-rule="nonzero">
            <g id="Business" fill="#728dbe">
                <path d="m49.741 110.64c2.031-0.919 3.371-2.761 3.371-5.217 0-3.608-2.834-6.135-6.364-6.135h-8.361v23.011h9.166c3.493 0 6.288-2.489 6.288-6.059 0-2.802-1.684-4.796-4.1-5.6zm0.921-5.025c0 2.264-1.88 3.992-4.183 3.992h-5.68v-7.869h5.68c2.303 0 4.183 1.612 4.183 3.877zm-3.416 14.233h-6.447v-7.868h6.447c2.264 0 4.145 1.727 4.145 3.992 0 2.264-1.881 3.876-4.145 3.876z"/>
                <path d="m63.702 122.6c3.416 0 5.751-2.258 5.751-5.827v-9.818h-2.335v9.55c0 2.302-1.42 3.722-3.416 3.722-1.958 0-3.417-1.42-3.417-3.722v-9.55h-2.335v9.818c0 3.569 2.297 5.827 5.752 5.827z"/>
                <path d="m78.316 122.6c2.688 0 4.908-1.799 4.908-4.445 0-2.763-2.297-3.838-4.293-4.644-1.882-0.806-2.842-1.228-2.842-2.571 0-1.305 0.883-1.919 2.151-1.919 0.998 0 1.881 0.422 2.303 1.228l2.069-1.074c-0.575-1.379-2.529-2.527-4.488-2.527-2.264 0-4.447 1.569-4.447 4.369 0 2.417 1.608 3.646 4.332 4.682 1.843 0.729 2.842 1.228 2.842 2.456 0 1.343-1.152 2.11-2.535 2.11-1.42 0-2.801-0.806-3.031-1.918l-2.298 0.921c0.575 1.839 2.873 3.332 5.329 3.332z"/>
                <path d="m88.712 104.08c0.881 0 1.647-0.728 1.647-1.609 0-0.957-0.766-1.647-1.647-1.647-0.92 0-1.686 0.69-1.686 1.647 0 0.881 0.766 1.609 1.686 1.609zm-1.187 18.219h2.374v-15.337h-2.374z"/>
                <path d="m101.87 106.65c-1.42 0-2.725 0.574-3.723 1.531v-1.224h-2.374v15.337h2.374v-9.78c0-1.957 1.574-3.491 3.531-3.491 1.958 0 3.493 1.534 3.493 3.491v9.78h2.374v-9.78c0-3.261-2.719-5.864-5.675-5.864z"/>
                <path d="m127.84 114.47c-0.115-4.411-3.606-7.821-7.979-7.821-4.411 0-7.974 3.564-7.974 7.975 0 4.414 3.563 7.977 7.974 7.977 3.644 0 6.674-2.411 7.672-5.713h-2.532c-0.844 1.996-2.839 3.34-5.14 3.34-3.03 0-5.447-2.304-5.601-5.26h13.541zm-7.979-5.448c2.455 0 4.526 1.575 5.255 3.803h-10.549c0.768-2.228 2.839-3.803 5.294-3.803z"/>
                <path d="m136.01 122.6c2.688 0 4.908-1.799 4.908-4.445 0-2.763-2.297-3.838-4.293-4.644-1.882-0.806-2.842-1.228-2.842-2.571 0-1.305 0.883-1.919 2.15-1.919 0.999 0 1.882 0.422 2.304 1.228l2.068-1.074c-0.574-1.379-2.528-2.527-4.487-2.527-2.264 0-4.447 1.569-4.447 4.369 0 2.417 1.608 3.646 4.332 4.682 1.843 0.729 2.842 1.228 2.842 2.456 0 1.343-1.152 2.11-2.535 2.11-1.42 0-2.801-0.806-3.031-1.918l-2.298 0.921c0.575 1.839 2.873 3.332 5.329 3.332z"/>
                <path d="m148.7 122.6c2.687 0 4.908-1.799 4.908-4.445 0-2.763-2.297-3.838-4.294-4.644-1.881-0.806-2.841-1.228-2.841-2.571 0-1.305 0.883-1.919 2.15-1.919 0.999 0 1.882 0.422 2.304 1.228l2.068-1.074c-0.574-1.379-2.529-2.527-4.487-2.527-2.265 0-4.447 1.569-4.447 4.369 0 2.417 1.608 3.646 4.332 4.682 1.843 0.729 2.841 1.228 2.841 2.456 0 1.343-1.152 2.11-2.534 2.11-1.421 0-2.801-0.806-3.031-1.918l-2.298 0.921c0.575 1.839 2.872 3.332 5.329 3.332z"/>
            </g>
            <g id="for" fill="#728dbe">
                <path d="m89.381 87.85h-2.442v-4.909c0-0.844 0.639-1.392 1.369-1.392l1.05 0.022v-1.093c-0.251-0.159-0.753-0.296-1.21-0.296-1.414 0-2.621 1.139-2.621 2.577v5.091h-1.529v1.366h1.529v7.758h1.412v-7.758h2.442z"/>
                <path d="m95.407 97.158c2.625 0 4.745-2.12 4.745-4.745 0-2.626-2.12-4.746-4.745-4.746-2.626 0-4.746 2.12-4.746 4.746 0 2.625 2.12 4.745 4.746 4.745zm0-1.412c-1.85 0-3.334-1.484-3.334-3.333 0-1.85 1.484-3.334 3.334-3.334 1.826 0 3.333 1.484 3.333 3.334 0 1.849-1.507 3.333-3.333 3.333z"/>
                <path d="m107.3 87.667c-1.301 0-2.351 0.57-3.035 1.481v-1.298h-1.412v9.124h1.412v-4.951c0-1.666 1.369-2.944 3.035-2.944 0.273 0 0.502 0.023 0.707 0.092v-1.435c-0.205-0.046-0.434-0.069-0.707-0.069z"/>
            </g>
            <path id="paytm" d="m48.82 49.089h-11.475v27h5.94v-10.935h5.535c4.545 0 8.055-3.375 8.055-7.92 0-4.5-3.51-8.145-8.055-8.145zm-0.945 11.16h-4.59v-5.94h4.59c1.89 0 3.33 1.215 3.33 2.97 0 1.8-1.44 2.97-3.33 2.97zm26.903 15.84h6.345l-9.72-27h-6.66l-9.72 27h6.345l1.665-5.085h10.08zm-10.17-10.035 3.465-10.71 3.465 10.71zm38.739-16.965h-6.615l-5.76 9.135-5.76-9.135h-6.705l9.495 14.31v12.69h5.94v-12.735zm18.781 0h-19.53v5.265h6.84v21.735h5.895v-21.735h6.795zm25.975 0-8.595 18.675-8.505-18.675h-6.435v27h5.94v-16.11l7.29 16.11h3.42l7.335-16.065v16.065h5.94v-27z" fill="#9abeff"/>
        </g>
    </g></g></svg>
