<svg xmlns="http://www.w3.org/2000/svg" width="192" height="192"><path d="M29.5 879.862h133c5.54 0 10 4.46 10 10v133c0 5.54-4.46 10-10 10h-133c-5.54 0-10-4.46-10-10v-133c0-5.54 4.46-10 10-10z" style="fill:#fff;fill-opacity:1;fill-rule:evenodd;stroke:none;stroke-opacity:1" transform="translate(0 -860.362)"/><path d="M83.506 927.933c-2.099 6.622-4.343 18.082-6.44 26.888l-7.574 30.297c9.9.283 14.636.215 17.801 0 14.438-.98 49.387-10.314 53.775-24.236 1.874-7.162-3.812-11.988-6.818-14.772-10.518-9.74-30.236-14.803-50.744-18.177zM48.486 925.185c-9.865-.027-18.506.783-28.986 2.369v95.308c0 5.54 4.46 10 10 10h15.631a495.58 495.58 0 0 0 3.818-.022c8.583-35.343 17.642-70.696 26.225-106.039-10.597-1.064-19.014-1.592-26.688-1.613z" style="fill:#fe837e;fill-opacity:1;fill-rule:evenodd;stroke:none;stroke-opacity:1" transform="translate(0 -860.362)"/><path d="M29.5 879.862c-5.54 0-10 4.46-10 10v11.182c44.218-1.943 108.329 7.854 124.219 40.145 6.716 13.63 1.289 29.733-5.682 37.113-17.828 18.828-37.034 21.586-73.09 25.373-2.272 9.846-4.544 19.316-6.816 29.162l90.682.025H162.5c5.54 0 10-4.46 10-10v-133c0-.347-.017-.688-.05-1.025-.005-.045-.015-.087-.02-.131a9.994 9.994 0 0 0-.326-1.63c-.02-.064-.031-.13-.051-.194a9.933 9.933 0 0 0-.336-.918v-.002a9.984 9.984 0 0 0-2.848-3.82c0-.001 0-.002-.002-.003a9.975 9.975 0 0 0-1.592-1.072s0-.002-.002-.002a9.937 9.937 0 0 0-2.558-.95c-.066-.014-.128-.037-.194-.05h-.002c-.042-.009-.087-.011-.13-.02a10.1 10.1 0 0 0-1.89-.183h-13.687z" style="fill:#fe837e;fill-opacity:1;fill-rule:evenodd;stroke:none;stroke-opacity:1" transform="translate(0 -860.362)"/></svg>