<svg xmlns="http://www.w3.org/2000/svg" viewBox="0 0 192 192"><rect width="151.7" height="151.7" x="20.15" y="20.15" rx="9.98" style="opacity:1;isolation:isolate;fill:#98dc9a;stroke:none;stroke-width:.998026;stroke-linecap:round;stroke-linejoin:round"/><g style="font-weight:700;font-size:53.3333px;font-family:Now;-inkscape-font-specification:&quot;Now Bold&quot;;fill:#728dbe;stroke-width:12.2377;stroke-linecap:round;stroke-linejoin:round"><path d="M100.97 100.472H82.333v43.851h9.647v-17.76h8.99c7.381 0 13.082-5.481 13.082-12.863 0-7.308-5.7-13.228-13.082-13.228zm-1.535 18.125H91.98v-9.647h7.455c3.07 0 5.408 1.973 5.408 4.823 0 2.924-2.338 4.824-5.408 4.824z" aria-label="P" style="stroke-width:13.416"/></g><g fill="#d8d8d8"><path d="M115.184 75.781c-10.4-10.4-27.26-10.4-37.66 0a3.37 3.37 0 1 0 4.767 4.767c7.767-7.767 20.359-7.767 28.126 0a3.371 3.371 0 0 0 4.767-4.767z" style="fill:#fff" transform="matrix(1.09629 0 0 1.09629 -9.613 4.507)"/><path d="M123.469 63.287c-14.7-14.7-38.531-14.7-53.23 0a3.36 3.36 0 1 0 4.753 4.752c12.074-12.074 31.65-12.074 43.724 0a3.36 3.36 0 0 0 4.753-4.752z" style="fill:#fff" transform="matrix(1.09629 0 0 1.09629 -9.613 4.507)"/><path d="M130.767 51.807c-19.006-19.005-49.82-19.005-68.826 0a3.334 3.334 0 1 0 4.715 4.714c16.4-16.402 42.994-16.402 59.396 0a3.334 3.334 0 0 0 4.715-4.714z" style="fill:#fff" transform="matrix(1.09629 0 0 1.09629 -9.613 4.507)"/></g></svg>