<?xml version="1.0" encoding="UTF-8"?>
<svg version="1.1" viewBox="0 0 192 192" xmlns="http://www.w3.org/2000/svg">
 <rect class="a" x="20" y="20" width="152" height="152" rx="10" style="fill:#98dc9a"/>
 <path d="m121.88 66.419h-15.456c-1.553-4.2892-5.6204-7.3952-10.427-7.3952-4.8069 0-8.8743 3.106-10.427 7.3952h-15.456c-4.0674 0-7.3952 3.3279-7.3952 7.3952v51.767c0 4.0674 3.3279 7.3952 7.3952 7.3952h51.767c4.0674 0 7.3952-3.3278 7.3952-7.3952v-51.767c0-4.0674-3.3279-7.3952-7.3952-7.3952zm-25.883 0c2.0337 0 3.6976 1.6639 3.6976 3.6976s-1.6639 3.6976-3.6976 3.6976c-2.0337 0-3.6976-1.6639-3.6976-3.6976s1.6639-3.6976 3.6976-3.6976zm-7.3952 51.767-14.79-14.79 5.2136-5.2136 9.5768 9.5399 24.367-24.367 5.2136 5.2506z" fill="@android:color/white" style="fill:#fff;stroke-width:3.6976"/>
</svg>
