<svg xmlns="http://www.w3.org/2000/svg" id="svg2" width="192" height="192" version="1.1"><g id="layer1" transform="translate(0 -860.362)"><path id="path1025" fill="#229bd8" d="M161.929 957.072a36.523 36.523 0 0 1-8.764 23.806l-.297.313-3.764 3.78-.188.141-39.802 39.834-9.589 9.6a4.995 4.995 179.992 0 1-7.068 0l-20.053-20.067 13.122-13.154 10.466 10.482 19.308-19.339 21.12-21.104 2.983-2.984a18.165 18.165 0 0 0 .641-21.557 18.832 18.832 0 0 0-5.78-5.373 18.244 18.244 0 0 0-24.197 5.389 42.263 42.263 0 0 0-1.719-5.764 44.767 44.767 0 0 0-6.873-12.185 36.585 36.585 0 0 1 23.682-8.607c1.296 0 2.561 0 3.811.187a36.741 36.741 0 0 1 32.96 36.57z" style="fill:#99bdfe;fill-opacity:1;stroke-width:1.02217"/><path id="path1027" fill="#229bd8" d="M102.24 947.23a36.757 36.757 0 1 0-63.343 33.742l4.045 4.03 10.748 10.763 13.122 13.122 7.029-7.03 6.17-6.092 10.748-10.763 4.046-4.03c.421-.485.843-1 1.234-1.562a36.585 36.585 0 0 0 7.576-22.37 37.13 37.13 0 0 0-1.375-9.81zm-21.26 21.26-2.765 2.78-11.403 11.357-11.263-11.262-3-3.015a18.168 18.168 0 1 1 28.43.14z" style="fill:#99bdfe;fill-opacity:1;stroke-width:1.02217"/><path id="path1029" fill="#229bd8" fill-rule="evenodd" d="M82.011 895.196a18.391 18.391 0 0 1-10.653 16.699 18.23 18.23 0 0 1-14.466.484 18.449 18.449 0 1 1 25.135-17.183z" clip-rule="evenodd" style="fill:#99bdfe;fill-opacity:1;stroke-width:1.02217"/><path id="path1031" fill="#229bd8" fill-rule="evenodd" d="M146.87 895.196a18.369 18.369 0 0 1-3.937 11.372 16.67 16.67 0 0 1-3.125 3.125 18.416 18.416 0 1 1 7.124-14.528z" clip-rule="evenodd" style="fill:#99bdfe;fill-opacity:1;stroke-width:1.02217"/></g><style id="style853" type="text/css">.st0{fill:#fff}</style></svg>