<svg xmlns="http://www.w3.org/2000/svg" id="svg2" width="192" height="192" version="1.1"><g id="layer1" transform="translate(0 -860.362)"><path id="path1076" d="m87.204 873.442-75.745 131.19a6.53 6.53 0 0 0 5.654 9.794h42.341l28.807 28.57a4.712 4.712 0 0 0 8.03-3.346V977.792a8.895 8.895 0 0 1 8.915-8.915 8.898 8.898 0 0 1 8.918 8.915v36.634h60.763a6.53 6.53 0 0 0 5.654-9.794L104.8 873.442a10.159 10.159 0 0 0-17.595 0z" style="fill:#fff;fill-opacity:1;stroke-width:19.241;stroke-linecap:round;stop-color:#000"/><path id="path1078" d="M96.09 868.363a10.159 10.159 0 0 0-8.887 5.08l-12.996 22.509h43.59l-12.997-22.51a10.159 10.159 0 0 0-8.71-5.079z" style="fill:#99bdfe;fill-opacity:1;stroke-width:20.6536;stroke-linecap:round;stop-color:#000"/></g><style id="style853" type="text/css">.st0{fill:#fff}</style></svg>