<?xml version="1.0" encoding="UTF-8"?>
<svg version="1.1" viewBox="0 0 192 192" xml:space="preserve" xmlns="http://www.w3.org/2000/svg">
	 <path d="m101.53 18.158a78 78 0 0 0-22.059 1.6172l-10.812 19.477a55.2 55.2 0 0 0-8.1797 4.7188l-22.287-0.39844a76.5 76.5 0 0 0-15.934 27.35l37.869 23.195a36 36 0 0 1 4.6934-16.117 36 36 0 0 1 33.063-17.951 36 36 0 0 1 16.115 4.7734 36 36 0 0 1 13.178 49.178 36 36 0 0 1-13.318 13.025l34.793 21.311 5.1543 0.0918a76.5 76.5 0 0 0 16.434-28.617l-11.422-19.066a55.2 55.2 0 0 0-4e-3 -9.4414l11.463-19.104a76.95 76.95 0 0 0-16.562-28.613l-22.197 0.34766a66.225 66.225 0 0 0-8.1836-4.7266l-10.826-19.5a78 78 0 0 0-10.977-1.5488zm-68.352 73.697a60.075 60.075 0 0 0-0.03125 8.9062l-11.426 19.039a76.95 76.95 0 0 0 16.562 28.613l22.197-0.34766a66.225 66.225 0 0 0 8.1836 4.7266l10.826 19.5a78 78 0 0 0 33.035-0.0684l10.812-19.477a55.2 55.2 0 0 0 3.7402-2.1582l-30.098-18.826a36 36 0 0 1-18.982-4.5859 36 36 0 0 1-14.695-16.479z" fill="#96dfd3" stroke="#96dfd3" stroke-width="2"/><path transform="translate(173.75 8.2577)" d="m-72.82 82.016 32.07-55.547 32.07 55.547z" fill="#f9de81" stroke="#f9de81" stroke-linecap="round" stroke-linejoin="round" stroke-width="2.6667"/><text transform="scale(1.0329 .96819)" x="121.97442" y="84.041306" fill="#96dfd3" font-family="Now" font-size="38.415px" font-weight="bold" stroke-linecap="round" stroke-linejoin="round" stroke-width="2" xml:space="preserve"><tspan x="121.97442" y="84.041306" fill="#96dfd3" stroke-width="2">!</tspan></text></svg>
