<?xml version="1.0" encoding="UTF-8"?><svg id="a" xmlns="http://www.w3.org/2000/svg" width="192" height="192" viewBox="0 0 192 192"><g id="b"><g id="c"><rect x="20" y="20" width="152" height="152" rx="10" ry="10" style="fill:#56595b;"/><path d="m117.28,63.42c-14.78-11.74-36.28-9.28-48.02,5.51-4.84,6.1-7.46,13.66-7.42,21.45.02,2.55.31,5.08.88,7.56.9,3.82,2.42,7.1,6.72,7.1,2.31-.19,4.55-.88,6.58-2.02,6.3-3.07,10.1-6.34,10.1-9.62,0-2.6-2.12-5.11-4.05-7.98-2.1-3.11-4.1-6.85-4.1-9.54,0-2.4,1.55-3.87,4.5-4.66,2.25-.53,4.56-.77,6.87-.73,7.02,0,10.99,1.47,12.88,2.94,1.57,1.42,2.86,3.13,3.78,5.04.73,1.48,1.94,2.67,3.42,3.38,2.04.74,4.15,1.28,6.3,1.62,2.82.61,5.86.92,5.86,4.87-.04,1.56-.33,3.11-.86,4.58-1.92,6.13-6.53,11.05-12.52,13.36-3.36,1.4-6.93,2.24-10.57,2.48-3.95.29-8.32.1-12.23.4-3.57.16-7.06,1.14-10.19,2.86-2.89,1.72-5.23,4.23-6.72,7.25-1.2,2.52-1.79,5.28-1.72,8.07,0,3.49,1.2,8.68,5.23,8.68,2.67,0,3.64-2.35,4.92-4.03,2.08-2.98,4.99-5.28,8.36-6.62,1.7-.6,3.49-.94,5.29-1.01.61-.04,1.24-.06,1.85-.06h0c1.2,0,2.37.04,3.57.04,14.52-.01,27.45-9.19,32.24-22.9,1.27-3.68,1.91-7.55,1.91-11.45-.03-10.35-4.76-20.13-12.88-26.55Z" style="fill:#fff;"/><circle cx="98.86" cy="79.74" r="2.31" style="fill:#fff;"/></g></g></svg>