<?xml version="1.0" encoding="UTF-8"?>
<svg version="1.1" viewBox="0 0 192 192" xmlns="http://www.w3.org/2000/svg">
 <g transform="matrix(3.5208 0 0 3.5208 -17.101 -16.655)" style="clip-rule:evenodd;fill-rule:evenodd;stroke-linejoin:round;stroke-miterlimit:2">
  <path d="m37.774 11.471c14.639 3.752 19.034 16.557 15.889 31.304-0.696 3.261-2.563 6.661-6.356 8.693-3.204 1.717-8.07 2.537-15.338 0.55l-9.634-2.404c-10.684-2.622-13.957-10.881-12.308-17.791 3.627-15.201 15.543-23.48 27.747-20.352z" fill="#a4bff7" style="fill:#9abeff"/>
  <path d="m36.76 15.429c12.289 3.15 15.547 14.114 12.907 26.493-0.947 4.44-4.937 9.365-16.664 6.143l-9.684-2.417c-7.854-1.923-10.53-7.8-9.318-12.877 3.016-12.639 12.611-19.943 22.759-17.342z" fill="#d8e7fe" style="fill:#ececec"/>
  <path d="m27.471 24.991c-1.457-0.698-7.229 3.213-7.663 8.926-0.182 2.39 4.55 3.237 5.071-0.169 0.725-4.743 3.715-8.218 2.592-8.757zm10.746 2.005c-2.083 0.327-0.382 5.901-0.595 10.727-0.123 2.8 4.388 3.464 4.703 2.011 1.098-5.073-2.066-13.058-4.108-12.738z" fill="#6081e6" style="fill:#728dbe"/>
 </g>
</svg>
