<?xml version="1.0" encoding="UTF-8"?><svg id="a" xmlns="http://www.w3.org/2000/svg" width="192" height="192" viewBox="0 0 192 192"><defs><style>.f{fill:#fff;}.f,.g{stroke-width:0px;}.h{fill:none;stroke:#9abeff;stroke-linecap:round;stroke-linejoin:round;stroke-width:4.35px;}.g{fill:#54688c;}</style></defs><g id="b"><g id="c"><g id="d"><g id="e"><rect class="g" x="20" y="20" width="152" height="152" rx="10" ry="10"/><path class="h" d="m79.77,112.87c-45.97-31.84-1.26-68.66,12.25-37.02,5.57-18.13,31.44-14.34,33.18,7.95"/><path class="f" d="m96.59,101.99l-11.7,12.25s-2.5,4.36.46,7.31c2.73,2.73,7.31,2.29,7.31,2.29,0,0,5.92-.62,8.78,0,3.14.69,8.78,4.02,8.78,4.02,0,0,4.47,1.38,6.95-1.1,3.16-3.16,1.55-8.41,1.55-8.41l-4.75-11.88s-2.21-4.43-7.5-5.85c-6.13-1.65-9.87,1.37-9.87,1.37h0Z"/><ellipse class="f" cx="87.54" cy="95.55" rx="4.7" ry="6.08" transform="translate(-21.75 25.91) rotate(-15)"/><ellipse class="f" cx="103.72" cy="88.44" rx="6.03" ry="7.43"/><ellipse class="f" cx="118.99" cy="95.05" rx="6.45" ry="5.67" transform="translate(-27.67 136.09) rotate(-54.25)"/><ellipse class="f" cx="126.35" cy="108.85" rx="6.45" ry="5.67" transform="translate(-40.38 104.92) rotate(-39.39)"/></g></g></g></g></svg>