<?xml version="1.0" encoding="UTF-8" standalone="no"?>
<!-- Created with Inkscape (http://www.inkscape.org/) -->

<svg
   width="192"
   height="192"
   viewBox="0 0 192 192"
   version="1.1"
   id="svg1"
   inkscape:version="1.4 (86a8ad7, 2024-10-11)"
   xml:space="preserve"
   sodipodi:docname="philippine_airlines.svg"
   inkscape:export-filename="philippine_airlines.png"
   inkscape:export-xdpi="96"
   inkscape:export-ydpi="96"
   xmlns:inkscape="http://www.inkscape.org/namespaces/inkscape"
   xmlns:sodipodi="http://sodipodi.sourceforge.net/DTD/sodipodi-0.dtd"
   xmlns="http://www.w3.org/2000/svg"
   xmlns:svg="http://www.w3.org/2000/svg"><sodipodi:namedview
     id="namedview1"
     pagecolor="#ffffff"
     bordercolor="#000000"
     borderopacity="0.25"
     inkscape:showpageshadow="2"
     inkscape:pageopacity="0.0"
     inkscape:pagecheckerboard="true"
     inkscape:deskcolor="#d1d1d1"
     inkscape:document-units="px"
     inkscape:zoom="2.2774731"
     inkscape:cx="132.6031"
     inkscape:cy="101.64774"
     inkscape:window-width="1920"
     inkscape:window-height="991"
     inkscape:window-x="-9"
     inkscape:window-y="-9"
     inkscape:window-maximized="1"
     inkscape:current-layer="svg1"
     showguides="false" /><defs
     id="defs1" /><rect
     style="display:inline;fill:#728dbe;fill-opacity:1;stroke-width:1.5;stroke-linecap:round;stroke-miterlimit:4.05"
     id="rect4"
     width="152"
     height="152"
     x="20"
     y="19.990768"
     rx="10"
     ry="10" /><path
     d="M 97.325116,171.99077 124.03629,33.194466 20,123.34429 l 1e-6,38.61844 c 0,5.55553 4.478377,10.02804 10.041204,10.02804 z"
     style="display:inline;fill:#54688c;stroke-width:1.50001;stroke-linecap:round;stroke-miterlimit:4.05"
     id="path34"
     sodipodi:nodetypes="cccssc" /><path
     d="m 44.431641,171.99077 c 21.339463,-18.4031 42.117563,-36.57151 63.457029,-54.97461 -0.83866,-5.45018 -2.08922,-12.86615 -2.56054,-18.500001 l 1.4121,-50.31836 c -1.59105,1.378402 -3.12184,2.705583 -4.71289,4.083985 l -1.53515,47.128906 -3.716799,17.0293 C 94.214619,109.6917 90.723346,102.91934 89.404297,95.844284 l -4.277344,-28.921875 -4.255859,3.6875 3.716797,27.886718 c 0.444899,7.755633 -0.102783,14.095003 -0.320313,20.904303 -3.688193,-6.62451 -8.629392,-12.39194 -11.033203,-20.392584 l -5.908203,-16.664062 -3.888672,3.36914 6.556641,19.158206 3.683593,19.4668 c -4.966411,-5.46112 -8.019692,-8.05125 -15.371093,-17.08985 L 51.318359,96.211471 47.46875,99.547409 c 1.986274,3.063081 3.97271,6.126371 5.958984,9.189451 3.565056,7.10995 6.153162,14.08083 9.052735,21.09571 -5.044656,-3.54212 -10.088157,-7.08484 -15.132813,-10.62696 -3.428431,-2.43727 -7.183251,-6.50395 -10.853515,-10.15039 -1.190176,1.03111 -2.380137,2.06264 -3.570313,3.09375 3.44683,3.51723 7.063348,6.90581 10.128906,10.70899 l 11.115235,16.29687 c -6.405844,-2.74432 -12.156964,-4.94246 -19.341797,-8.33594 -4.474645,-2.89622 -8.949183,-5.79322 -13.423828,-8.68945 -0.467705,0.4052 -0.934639,0.80965 -1.402344,1.21485 v 3.39062 c 4.124479,2.73823 8.248568,5.47661 12.373047,8.21484 5.576994,4.29276 10.97847,9.99401 16.46289,15.02735 C 39.069643,148.19611 28.555838,147.54675 20,143.99663 v 4.49219 c 2.774903,1.17649 5.549316,2.35476 8.324219,3.53125 l 16.009765,9.19531 c -8.107933,0.0129 -15.332027,0.4176 -24.333984,0.0332 v 0.71485 c 0,1.32792 0.263128,2.59016 0.728516,3.74804 5.686204,1.21567 12.494016,4.15969 18.697265,6.2793 1.539709,-0.0641 3.466151,0.064 5.00586,0 z"
     style="baseline-shift:baseline;display:inline;overflow:visible;vector-effect:none;fill:#f9de81;stroke-linecap:round;stroke-miterlimit:4.05;enable-background:accumulate;stop-color:#000000;stop-opacity:1"
     id="path49" /><path
     d="M 172,61.332565 43.685547,171.99077 H 162 c 5.54,0 10,-4.46 10,-10 z"
     style="display:inline;fill:#ff837d;stroke-width:1.5;stroke-linecap:round;stroke-miterlimit:4.05"
     id="path53" /></svg>
