<?xml version="1.0" encoding="UTF-8"?><svg id="a" xmlns="http://www.w3.org/2000/svg" width="192" height="192" viewBox="0 0 192 192"><defs><style>.f{fill:#ff837d;}.f,.g{stroke-width:0px;}.g{fill:#fff;}</style></defs><g id="b"><g id="c"><g id="d"><g id="e"><rect class="f" x="20" y="20" width="152" height="152" rx="10" ry="10"/><path class="g" d="m99.18,59.5s-25.53,1.8-25.53,16.42c0,7.47,11.24,11.36,11.24,14.39,0,9.3.81,25.5,1.22,33.22.19,3.62,2.27,6.98,5.59,8.44.05.02.1.04.14.06,3.97,1.67,8.34-1.42,8.29-5.74-.09-7.64-.3-26.46-.3-37,0-2.79,11.47-16.64,11.47-16.64l-6.58.27c-1.49.06-3.01-.34-4.14-1.33-.66-.58-1.14-1.26-1.44-2.06-.26-.68-.31-1.41-.28-2.13l.3-7.91Z"/><path class="g" d="m105.12,60.48l10.83-.88c1.2-.1,2.21.8,2.25,2l.14,3.71c.05,1.2-.89,2.25-2.09,2.35l-10.83.88c-1.2.1-2.21-.8-2.25-2l-.14-3.71c-.05-1.2.89-2.25,2.09-2.35Z"/><rect class="f" x="106.05" y="62.4" width="9.26" height="3.34" rx=".98" ry=".98" transform="translate(-3.37 6.21) rotate(-3.16)"/></g></g></g></g></svg>