<svg xmlns="http://www.w3.org/2000/svg" xml:space="preserve" width="192" height="192"><rect width="152" height="152" x="20" y="20" fill="#728dbe" rx="9.935"/><path fill="#fff" d="M91.494 54.932c-8.146 3.952-16.351 7.87-28.723 9.286-2.743.314-5.06 2.655-5.086 5.416-.47 49.228 16.668 59.03 33.825 67.429 2.48 1.214 6.502 1.214 8.983 0 17.156-8.397 34.293-18.201 33.823-67.43-.027-2.76-2.344-5.1-5.087-5.415-12.372-1.416-20.575-5.334-28.72-9.286-2.485-1.205-6.53-1.205-9.014 0z"/><path fill="none" stroke="#728dbe" stroke-linecap="round" stroke-linejoin="round" stroke-width="5.754" d="M78.378 89.476 93 104.098l23.205-23.205"/></svg>