<?xml version="1.0" encoding="UTF-8"?>
<svg id="Layer_1" data-name="Layer 1" xmlns="http://www.w3.org/2000/svg" xmlns:xlink="http://www.w3.org/1999/xlink" viewBox="0 0 192 192">
  <defs>
    <style>
      .cls-1 {
        fill: url(#linear-gradient-2);
      }

      .cls-2 {
        fill: #56595b;
        isolation: isolate;
      }

      .cls-3 {
        fill: url(#linear-gradient-3);
      }

      .cls-4 {
        fill: url(#linear-gradient);
      }
    </style>
    <linearGradient id="linear-gradient" x1="107.4" y1="101.51" x2="103" y2="144.05" gradientTransform="translate(59.49 -39.55) scale(.42 1.3)" gradientUnits="userSpaceOnUse">
      <stop offset=".28" stop-color="#f8c18c"/>
      <stop offset=".73" stop-color="#ff837d"/>
    </linearGradient>
    <linearGradient id="linear-gradient-2" x1="-4.02" y1="94.99" x2="-8.44" y2="137.68" gradientTransform="translate(76.94 -99.96) scale(.42 1.57)" gradientUnits="userSpaceOnUse">
      <stop offset=".28" stop-color="#ff837d"/>
      <stop offset=".73" stop-color="#8e6f60"/>
    </linearGradient>
    <linearGradient id="linear-gradient-3" x1="51.88" y1="89.94" x2="47.43" y2="132.94" gradientTransform="translate(77.03 -154.19) scale(.42 2.21)" gradientUnits="userSpaceOnUse">
      <stop offset=".28" stop-color="#96dfd3"/>
      <stop offset=".73" stop-color="#98dc9a"/>
    </linearGradient>
  </defs>
  <path class="cls-2" d="m30.14,19.68h132c5.5,0,10,4.5,10,10v132c0,5.5-4.5,10-10,10H30.14c-5.5,0-10-4.5-10-10V29.68c0-5.5,4.5-10,10-10Z"/>
  <g>
    <rect class="cls-4" x="95.88" y="97.54" width="15.31" height="45.07" rx="7.66" ry="7.66" transform="translate(115.23 -38.04) rotate(45)"/>
    <rect class="cls-1" x="66.66" y="56" width="15.31" height="54.61" rx="7.66" ry="7.66" transform="translate(80.67 -28.15) rotate(45)"/>
    <rect class="cls-3" x="90.16" y="54.47" width="15.31" height="76.86" rx="7.66" ry="7.66" transform="translate(94.34 -41.95) rotate(45)"/>
  </g>
</svg>