<?xml version="1.0" encoding="UTF-8" standalone="no"?>
<svg
   version="1.1"
   viewBox="0 0 192 192"
   id="svg8"
   sodipodi:docname="pickme.svg"
   inkscape:version="1.2.2 (b0a8486541, 2022-12-01)"
   inkscape:export-filename="pickme.png"
   inkscape:export-xdpi="96"
   inkscape:export-ydpi="96"
   xmlns:inkscape="http://www.inkscape.org/namespaces/inkscape"
   xmlns:sodipodi="http://sodipodi.sourceforge.net/DTD/sodipodi-0.dtd"
   xmlns="http://www.w3.org/2000/svg"
   xmlns:svg="http://www.w3.org/2000/svg">
  <defs
     id="defs12" />
  <sodipodi:namedview
     id="namedview10"
     pagecolor="#505050"
     bordercolor="#eeeeee"
     borderopacity="1"
     inkscape:showpageshadow="0"
     inkscape:pageopacity="0"
     inkscape:pagecheckerboard="0"
     inkscape:deskcolor="#d1d1d1"
     showgrid="false"
     inkscape:zoom="1.2291667"
     inkscape:cx="19.525424"
     inkscape:cy="96.40678"
     inkscape:window-width="1884"
     inkscape:window-height="1055"
     inkscape:window-x="36"
     inkscape:window-y="0"
     inkscape:window-maximized="1"
     inkscape:current-layer="svg8" />
  <rect
     class="a"
     x="20"
     y="20"
     width="152"
     height="152"
     rx="10"
     style="fill:#f9de81"
     id="rect2" />
  <path
     d="m 82.505056,132.5 c -0.286145,0 -0.230303,-8.2482 -0.301179,-17.72937 C 82.053955,94.713731 82.096035,94.988167 78.56549,91.040265 72.265552,83.995212 68.776475,76.034577 68.64045,68.396504 c -0.05451,-3.065411 0.04973,-3.720637 0.739577,-4.648629 0.863639,-1.161859 2.566733,-1.609707 3.42194,-0.899991 0.284928,0.236468 1.317293,2.471674 2.294206,4.967213 2.155397,5.506063 4.553173,9.687992 7.240022,12.628037 2.983796,3.264756 4.454137,3.96246 11.465064,5.440358 7.200571,1.51783 11.043471,2.920238 14.744771,5.380617 6.67683,4.438785 14.82592,15.578421 14.82592,20.266111 0,2.15731 -0.47012,2.85541 -1.91756,2.84769 -2.03226,-0.0109 -2.82486,-0.56266 -5.48784,-3.82023 -6.13019,-7.49894 -9.18765,-10.0555 -11.37041,-9.50821 -1.94213,0.48744 -1.9368,0.44625 -2.14322,16.58866 l -0.22884,14.86171 h -9.75561 z"
     style="fill:#56595b;stroke-width:0.387384"
     id="path4" />
  <circle
     cx="96.29129"
     cy="69.35743"
     r="9.8574257"
     style="fill:#56595b;stroke-width:0.795467"
     id="circle6" />
</svg>
