<?xml version="1.0" encoding="UTF-8" standalone="no"?>
<svg
   viewBox="0 0 192 192"
   version="1.1"
   id="svg6"
   sodipodi:docname="picnic_online.svg"
   inkscape:version="1.2.2 (b0a8486541, 2022-12-01)"
   inkscape:export-filename="picnic_online.png"
   inkscape:export-xdpi="96"
   inkscape:export-ydpi="96"
   xmlns:inkscape="http://www.inkscape.org/namespaces/inkscape"
   xmlns:sodipodi="http://sodipodi.sourceforge.net/DTD/sodipodi-0.dtd"
   xmlns="http://www.w3.org/2000/svg"
   xmlns:svg="http://www.w3.org/2000/svg">
  <defs
     id="defs10" />
  <sodipodi:namedview
     id="namedview8"
     pagecolor="#505050"
     bordercolor="#eeeeee"
     borderopacity="1"
     inkscape:showpageshadow="0"
     inkscape:pageopacity="0"
     inkscape:pagecheckerboard="0"
     inkscape:deskcolor="#d1d1d1"
     showgrid="false"
     inkscape:zoom="1.2291667"
     inkscape:cx="-37.423728"
     inkscape:cy="97.220336"
     inkscape:window-width="1884"
     inkscape:window-height="1055"
     inkscape:window-x="36"
     inkscape:window-y="0"
     inkscape:window-maximized="1"
     inkscape:current-layer="svg6" />
  <rect
     width="153"
     height="153"
     x="19.5"
     y="19.5"
     fill="#ff837d"
     rx="10"
     id="rect2" />
  <path
     fill="#ffffff"
     d="m 91.232059,86.954241 h 0.06848 a 0.96728424,0.96728424 0 0 0 0.727604,0.57352 10.023804,10.023804 0 0 0 1.121365,0.13696 h 5.195942 a 4.8449812,4.8449812 0 0 0 1.121365,-0.13696 0.71048311,0.71048311 0 0 0 0.684805,-0.75328 c 0,-0.33384 0.0942,-0.6848 0.0942,-1.01864 l 0.1284,-5.92355 v -2.22561 q 0,-5.5041 -0.0856,-10.99965 c 0,-1.25832 -0.0942,-2.51665 -0.13696,-3.75785 0,-0.54785 -0.196884,-0.77041 -0.744726,-0.85601 a 7.1305113,7.1305113 0 0 0 -1.215564,-0.11128 h -4.665221 c -0.462242,0 -0.924484,0.0856 -1.386726,0.11128 a 0.97584428,0.97584428 0 0 0 -0.778963,0.46224 c 0,0.37665 -0.111281,0.77897 -0.128401,1.14705 0,1.84041 -0.136961,3.67226 -0.136961,5.5041 0,4.61386 0,9.2534 0.06848,13.86726 -0.02568,1.35249 0.0428,2.68786 0.06848,3.98042 z m -4.725141,15.134149 c 0,-0.77897 0,-1.54937 -0.05136,-2.302649 a 7.3188321,7.3188321 0 0 0 -0.11128,-0.85601 1.9859287,1.9859287 0 0 0 -1.498007,-0.428 h -4.091698 a 17.556637,17.556637 0 0 0 -2.22561,0.13696 c -0.778963,0.0856 -0.975844,0.32528 -1.001524,1.06145 0,1.789049 -0.10272,3.578089 -0.128401,5.367139 v 9.2962 c -0.479362,-0.65912 -0.856003,-1.34392 -1.258325,-2.02873 l -4.904902,-8.44019 c -0.856003,-1.52369 -1.763367,-3.04738 -2.627931,-4.596739 a 1.2240854,1.2240854 0 0 0 -1.078565,-0.77041 c -0.291041,0 -0.599202,-0.0856 -0.856004,-0.0856 -1.258325,0 -2.568011,-0.0428 -3.783536,0 a 22.82962,22.82962 0 0 0 -2.405371,0.15408 c -0.616322,0.0685 -0.813203,0.29104 -0.856003,0.90737 -0.0428,0.950159 -0.0856,1.926009 -0.111281,2.876169 v 19.0632 c 0,2.47386 0.0856,4.94771 0.128401,7.39588 0,0.75328 0.248241,0.99296 0.975844,1.07856 a 11.556051,11.556051 0 0 0 1.326806,0.11128 c 1.215525,0 2.43105,0.0514 3.646576,0 a 14.081262,14.081262 0 0 0 1.900328,-0.1284 c 0.744723,-0.11128 0.992964,-0.19688 1.052885,-1.06144 v -0.1284 c 0.05136,-1.21553 0.09416,-2.43105 0.11128,-3.64658 v -10.31485 l 0.530722,0.85601 8.217636,13.5163 a 1.4637664,1.4637664 0 0 0 1.284006,0.79608 c 0.308161,0 0.633443,0.0856 0.950164,0.0856 a 42.920028,42.920028 0 0 0 5.743785,-0.11128 1.9688086,1.9688086 0 0 0 0.547843,-0.1284 0.59920263,0.59920263 0 0 0 0.419442,-0.50504 c 0,-0.17976 0.06848,-0.33384 0.0856,-0.5136 0.05136,-1.07857 0.09416,-2.16569 0.111281,-3.24426 v -5.70098 c 0.0086,-5.88931 0.15408,-11.81285 -0.0428,-17.71072 z M 111.83607,91.901941 a 18.532481,18.532481 0 0 0 8.96236,2.31977 17.342636,17.342636 0 0 0 11.12805,-3.88625 c 0.19688,-0.15408 0.36808,-0.33385 0.57352,-0.53073 -0.11128,-0.24824 -0.17976,-0.46224 -0.29104,-0.66768 a 30.071412,30.071412 0 0 0 -2.33689,-3.86058 14.552064,14.552064 0 0 0 -1.39529,-1.712 c -0.46224,-0.51361 -0.6848,-0.51361 -1.284,-0.15408 -0.59921,0.35952 -1.12137,0.65912 -1.71201,0.95016 a 9.2790807,9.2790807 0 0 1 -7.11339,0.61632 6.9079503,6.9079503 0 0 1 -3.6209,-2.56801 7.8666745,7.8666745 0 0 1 -1.18984,-6.62547 6.4713884,6.4713884 0 0 1 2.71353,-4.02322 8.5001173,8.5001173 0 0 1 6.84803,-1.30112 10.109404,10.109404 0 0 1 3.52673,1.41241 0.7532833,0.7532833 0 0 0 0.75329,0.15408 c 0.19688,-0.19688 0.40232,-0.39377 0.57352,-0.59065 a 23.112101,23.112101 0 0 0 3.56098,-5.6325 6.5997889,6.5997889 0 0 1 0.1284,-0.73616 c -0.22256,-0.17121 -0.37665,-0.32529 -0.50505,-0.41945 a 17.479597,17.479597 0 0 0 -8.85963,-3.20145 17.120075,17.120075 0 0 0 -4.02322,0.13696 18.21576,18.21576 0 0 0 -5.05042,1.38673 15.168386,15.168386 0 0 0 -6.30019,5.05898 16.332552,16.332552 0 0 0 -2.91897,8.94524 17.856238,17.856238 0 0 0 0.75328,6.16322 14.980066,14.980066 0 0 0 7.07915,8.76548 z m 17.74496,29.309569 c -0.35952,-0.47936 -0.75329,-0.92448 -1.15561,-1.3696 a 3.7150563,3.7150563 0 0 0 -0.65912,-0.47936 l -1.18985,0.70192 a 10.460366,10.460366 0 0 1 -6.76243,1.54936 7.4557927,7.4557927 0 0 1 -4.28001,-1.98592 7.5756332,7.5756332 0 0 1 -1.98593,-7.70404 7.062031,7.062031 0 0 1 6.37722,-5.32434 10.066604,10.066604 0 0 1 6.65115,1.52369 4.4597795,4.4597795 0 0 0 0.57353,0.28248 l 0.46224,-0.39376 c 0.33384,-0.37665 0.66768,-0.72761 0.97584,-1.10425 a 24.824109,24.824109 0 0 0 2.86762,-4.70802 0.95016417,0.95016417 0 0 0 0.11128,-0.95017 17.120075,17.120075 0 0 0 -8.56004,-3.424009 18.22432,18.22432 0 0 0 -3.05594,-0.0685 20.355769,20.355769 0 0 0 -5.56402,1.08712 15.039986,15.039986 0 0 0 -7.07059,5.033309 16.07575,16.07575 0 0 0 -3.26993,9.51876 18.027439,18.027439 0 0 0 0.5136,5.19594 14.971506,14.971506 0 0 0 7.43011,9.86972 17.813438,17.813438 0 0 0 7.86667,2.11433 16.589353,16.589353 0 0 0 4.81931,-0.37664 17.582317,17.582317 0 0 0 6.4029,-2.84193 c 0.44513,-0.33384 0.85601,-0.73616 1.39529,-1.1556 -0.0942,-0.21401 -0.11128,-0.37665 -0.17976,-0.50505 a 31.766299,31.766299 0 0 0 -2.71353,-4.48546 z m -38.280491,7.68692 c 0,0.66768 0.256802,0.90736 0.924484,0.97584 0.487923,0.0685 0.967285,0.0856 1.455207,0.11128 1.035764,0 2.080089,0.0428 3.141534,0 0.796083,0 1.566486,-0.0685 2.36257,-0.13696 a 1.3524859,1.3524859 0 0 0 0.950166,-0.39376 c 0,-0.50504 0.11128,-0.99297 0.11128,-1.48089 0.0428,-2.34545 0.1284,-4.68234 0.1284,-7.04491 0,-4.20298 0,-8.39739 -0.0856,-12.59181 0,-1.06145 -0.0685,-2.12289 -0.13696,-3.18434 a 0.7532833,0.7532833 0 0 0 -0.744725,-0.856 7.9180347,7.9180347 0 0 0 -1.266886,-0.11128 h -4.014657 c -0.667683,0 -1.301126,0.0856 -1.968809,0.1284 a 0.85600375,0.85600375 0 0 0 -0.856004,0.5136 c 0,0.46224 -0.09416,0.856 -0.11128,1.34393 0,2.14001 -0.136961,4.28002 -0.136961,6.45427 0,4.21153 0,8.43163 0.06848,12.65173 0.0428,1.21553 0.11128,2.43105 0.179761,3.6209 z m -0.17976,-32.964709 a 4.6309803,4.6309803 0 1 0 4.65666,-4.59674 4.6138602,4.6138602 0 0 0 -4.682341,4.59674 c 0,0 0.02568,0 0.02568,0 z m -3.757857,-22.11914 a 13.6447,13.6447 0 0 0 -0.530722,-3.00457 10.657247,10.657247 0 0 0 -2.756332,-4.66522 12.574695,12.574695 0 0 0 -4.999062,-2.97889 25.16651,25.16651 0 0 0 -8.191956,-1.30113 c -2.568011,0 -5.136023,0.0599 -7.704034,0.10272 -0.856004,0 -1.789048,0.0942 -2.670732,0.15408 -0.624882,0.0514 -0.856003,0.26536 -0.856003,0.85601 0,0.856 -0.0856,1.712 -0.102721,2.56801 0,1.71201 -0.05136,3.49249 -0.05136,5.25586 v 10.93117 c 0,3.29561 0.09416,6.56555 0.136961,9.8526 v 0.85601 c 0.05136,0.59064 0.205441,0.7704 0.796083,0.856 a 7.9009146,7.9009146 0 0 0 0.856004,0.11128 c 1.455206,0 2.893293,0.0428 4.348499,0 0.710483,0 1.395286,-0.0685 2.097209,-0.15408 a 0.7532833,0.7532833 0 0 0 0.770403,-0.7704 6.5741088,6.5741088 0 0 0 0,-0.71049 v -2.85049 c 0.393762,0 0.684803,0.0685 0.967285,0.0685 0.975844,0 1.968808,0 2.936093,-0.0685 a 22.91522,22.91522 0 0 0 3.535295,-0.39376 16.923194,16.923194 0 0 0 5.658185,-2.02873 11.128049,11.128049 0 0 0 4.48546,-4.7765 13.113977,13.113977 0 0 0 1.326805,-5.32434 c 0.05992,-0.86457 0,-1.74625 -0.05136,-2.58514 z m -9.416041,3.42402 a 4.3998593,4.3998593 0 0 1 -2.568011,2.47385 8.9965994,8.9965994 0 0 1 -3.098734,0.61632 c -1.189845,0.0428 -2.36257,0 -3.595216,0 v -9.8954 h 1.540807 a 15.048546,15.048546 0 0 1 3.869137,0.28248 9.0821998,9.0821998 0 0 1 1.857528,0.66768 4.0317777,4.0317777 0 0 1 2.26841,3.24426 5.2644231,5.2644231 0 0 1 -0.222561,2.65361 z"
     id="path4"
     style="stroke-width:0.856004" />
</svg>
