<svg xmlns="http://www.w3.org/2000/svg" xmlns:xlink="http://www.w3.org/1999/xlink" viewBox="0 0 192 192"><defs><linearGradient id="a"><stop offset="0" style="stop-color:#bd9aff;stop-opacity:1"/><stop offset=".5" style="stop-color:#728dbe;stop-opacity:1"/><stop offset="1" style="stop-color:#96dfd3;stop-opacity:1"/></linearGradient><linearGradient xlink:href="#a" id="b" x1="32" x2="160" y1="160" y2="32" gradientUnits="userSpaceOnUse"/></defs><rect width="152" height="152" x="20" y="20" rx="10" style="opacity:1;isolation:isolate;fill:url(#b);fill-opacity:1;stroke:none;stroke-linecap:round;stroke-linejoin:round"/><path d="M72 80s30.553-20.977 36-16c5.447 4.977-46.107 33.104-39.164 39.344C75.779 109.584 108.64 74.988 116 80c7.36 5.012-32.386 28.959-28.054 33.555C92.28 118.152 113.373 98.245 116 100c2.627 1.756-13.986 22.737-12 24 3.001 1.909 10.928-11.135 16-8 1.134.701-.51 2.768 0 4 .722 1.742 4 4 4 4" style="fill:none;stroke:#fff;stroke-width:8;stroke-linecap:round;stroke-linejoin:round;stroke-miterlimit:4;stroke-dasharray:none;stroke-opacity:1"/></svg>