<?xml version="1.0" encoding="UTF-8"?>
<svg version="1.1" viewBox="0 0 192 192" xml:space="preserve" xmlns="http://www.w3.org/2000/svg">
	 <g transform="matrix(1.4118 0 0 1.4118 14.857 15.874)" stroke="#00000000" stroke-width="3.0935"><path d="m106.21 87.93-27.7 19.45a20.88 29.74 90 0 1-42.06 0l-27.71-19.45a20.88 29.74 90 0 1 0-29.52l27.71-19.45a29.74 20.88 0 0 1 42.06 0l27.7 19.45a29.74 20.88 0 0 1 0 29.52z" fill="#54688c"/><path d="m106.21 71.52-27.7 19.45a29.74 20.88 0 0 1-42.06 0l-27.71-19.45a29.74 20.88 0 0 1 0-29.52l27.71-19.45a29.74 20.88 0 0 1 42.06 0l27.7 19.45a29.74 20.88 0 0 1 0 29.52z" fill="#728dbe" stroke-opacity=".8"/><path d="m106.21 55.1-27.7 19.45a20.88 29.74 90 0 1-42.06 0l-27.71-19.45a29.74 20.88 0 0 1 0-29.52l27.71-19.45a29.74 20.88 0 0 1 42.06 0l27.7 19.45a20.88 29.74 90 0 1 0 29.52z" fill="#9abeff" stroke-opacity=".8"/></g></svg>
