<svg xmlns="http://www.w3.org/2000/svg" width="192" height="192"><path d="M136 117.51s16-19.556 16-35.2c0-23.79-31.725-57.976-60-58.667C54.252 22.721 8 47.11 8 97.954c0 39.651 40 86.044 84 86.044 32 0 60-31.289 60-31.289s-32 15.644-48 15.644c-32 0-60-31.289-60-58.667C44 78.397 67.415 54.93 92 54.93c24 0 41.675 16.648 48 35.2 4 11.733-4 27.378-4 27.378z" style="fill:#8e6f60;stroke-width:.98883"/><path d="M52 148.8v22.558c.47.303.934.615 1.408.909H76v-11.951c-5.321-3.146-10.197-7.075-14.459-11.516z" style="fill:#73ada4;paint-order:stroke fill markers;stroke-width:.98883"/><path d="M134.28 78.4a53.076 53.076 0 0 1 5.719 11.733c4 11.733-4 27.378-4 27.378s7.26-8.894 12-19.479V78.4z" style="fill:#56595b;paint-order:stroke fill markers;stroke-width:.98883"/><path d="M56 74.489s-16 7.822-16 35.2c0 23.79 31.725 57.976 60 58.667 37.748.922 84-23.467 84-74.311 0-39.651-40-86.044-84-86.044-32 0-60 31.289-60 31.289s20-15.644 48-15.644c32 0 60 31.289 60 58.667 0 31.289-23.415 54.756-48 54.756-24 0-41.675-16.648-48-35.2-4-11.733 4-27.378 4-27.378z" style="fill:#71a372;stroke-width:.98883"/><path d="M52 31.467h24v23.467H52zM28 54.933h24V78.4H28z" style="fill:#71a372;paint-order:stroke fill markers;stroke-width:.98883"/><path d="M28 48.234a70.074 70.074 0 0 0-5.889 6.7H28z" style="fill:#fdf5d9;paint-order:stroke fill markers;stroke-width:.98883"/><path d="M10.508 78.4C8.888 84.417 8 90.932 8 97.956c0 1.297.045 2.602.13 3.911H28V78.4z" style="fill:#fcecdc;paint-order:stroke fill markers;stroke-width:.98883"/><path d="M100 8c-8.426 0-16.567 2.18-24 5.376v11.223a77.155 77.155 0 0 1 12-.955c4.082 0 8.098.516 12 1.46z" style="fill:#73ada4;paint-order:stroke fill markers;stroke-width:.98883"/><path d="M76 54.933v3.323c5.112-2.154 10.526-3.323 16-3.323zm16 0c2.754 0 5.42.23 8 .645v-.645z" style="fill:#71a372;paint-order:stroke fill markers;stroke-width:.98883"/><path d="M100 31.467h24v23.467h-24z" style="fill:#c39a54;paint-order:stroke fill markers;stroke-width:.98883"/><path d="M124 12.511v18.956h24v-5.036c-7.325-5.892-15.425-10.703-24-13.92z" style="fill:#728dbe;paint-order:stroke fill markers;stroke-width:.98883"/><path d="M124 54.933v11.77A53.552 53.552 0 0 1 134.281 78.4H148V66.092c-1.703-3.742-3.903-7.502-6.49-11.159z" style="fill:#83868c;paint-order:stroke fill markers;stroke-width:.98883"/><path d="M28 101.87h24v23.467H28z" style="fill:#f9de81;paint-order:stroke fill markers;stroke-width:.98883"/><path d="M13.764 125.33c3.34 8.2 8.01 16.172 13.719 23.467h.518V125.33z" style="fill:#4a4a4a;paint-order:stroke fill markers;stroke-width:.98883"/><path d="M28 148.8v.676c6.763 8.5 14.936 16.03 24 21.882V148.8z" style="fill:#98dc9a;paint-order:stroke fill markers;stroke-width:.98883"/><path d="M52 136.3v12.495h9.541A69.35 69.35 0 0 1 52 136.3z" style="fill:#71a372;paint-order:stroke fill markers;stroke-width:.98883"/><path d="M76 148.8v11.934c7.747 4.554 16.01 7.426 24 7.622V148.8z" style="fill:#4a4a4a;paint-order:stroke fill markers;stroke-width:.98883"/><path d="M76 160.32v11.951h24v-4.093c-8.52-.69-16.677-3.528-24-7.858z" style="fill:#71a372;paint-order:stroke fill markers;stroke-width:.98883"/><path d="M53.408 172.27c7.085 4.39 14.692 7.746 22.592 9.72v-9.72z" style="fill:#f9de81;paint-order:stroke fill markers;stroke-width:.98883"/><path d="M100 172.27v11.086c8.635-1.34 16.802-4.67 24-8.674v-2.412z" style="fill:#4a4a4a;paint-order:stroke fill markers;stroke-width:.98883"/><path d="M148 154.58c-5.087 2.332-14.393 6.397-24 9.56v8.128h4.107c8.841-5.48 15.81-11.591 19.893-15.51z" style="fill:#73ada4;paint-order:stroke fill markers;stroke-width:.98883"/><path d="M124 164.14c-7.259 2.39-14.555 4.217-20 4.217-1.342 0-2.674-.074-4-.182v4.093h24z" style="fill:#56595b;paint-order:stroke fill markers;stroke-width:.98883"/><path d="M124 148.8v16.859c8.308-2.046 16.48-5.257 24-9.642V148.8z" style="fill:#96dfd3;paint-order:stroke fill markers;stroke-width:.98883"/><path d="M124 129.41c-7.263 4.896-15.562 7.66-24 7.66v11.733h24z" style="fill:#56595b;paint-order:stroke fill markers;stroke-width:.98883"/><path d="M148 78.4h24v23.467h-24zM148 31.467v23.467h24v-.781c-4.888-8.253-11.077-15.986-18.211-22.686z" style="fill:#98dc9a;paint-order:stroke fill markers;stroke-width:.98883"/><path d="M172 54.933V78.4h10.057c-1.92-7.965-5.223-15.917-9.602-23.467z" style="fill:#f9de81;paint-order:stroke fill markers;stroke-width:.98883"/><path d="M172 101.87v23.467h5.137c3.36-6.965 5.624-14.787 6.478-23.467zM148 125.33v23.467h10.428c5.129-4.2 9.737-9.066 13.572-14.632v-8.834z" style="fill:#98dc9a;paint-order:stroke fill markers;stroke-width:.98883"/><path d="M88.438 23.633c-4.09.07-8.259.45-12.438 1.102v6.732h24v-6.784c-2.678-.615-5.354-.974-8-1.039a85.442 85.442 0 0 0-3.563-.011z" style="fill:#71a372;paint-order:stroke fill markers;stroke-width:.98883"/><path d="M139.54 54.933c4.578 7.459 7.513 15.551 8.256 23.467H148V54.933z" style="fill:#98dc9a;stroke-width:.98883"/><path d="M144.76 101.87c-3.247 9.416-8.735 17.455-15.523 23.467h18.766V101.87z" style="fill:#fff;paint-order:stroke fill markers;stroke-width:.98883"/><path d="M115.61 31.467a66.523 66.523 0 0 1 8.387 5.796v-5.796z" style="fill:#8e6f60;stroke-width:.98883"/><path d="M8.129 101.87c.5 7.764 2.477 15.713 5.635 23.467H28V101.87z" style="fill:#d3b69a;paint-order:stroke fill markers;stroke-width:.98883"/><path d="M52 125.33v13.802a86.394 86.394 0 0 0 8.537 9.665H76v-17.944a50.618 50.618 0 0 1-7.957-5.523z" style="fill:#fdf5d9;paint-order:stroke fill markers;stroke-width:.98883"/><path d="M52 28.222a129.705 129.705 0 0 0-3.871 3.245H52z" style="fill:#ececec;paint-order:stroke fill markers;stroke-width:.98883"/><path d="M124 31.467h24v23.467h-24z" style="fill:#73ada4;paint-order:stroke fill markers;stroke-width:.98883"/><path d="M124 31.467v5.796c6.197 5.016 11.502 11.093 15.539 17.671h8.46V31.467z" style="fill:#71a372;paint-order:stroke fill markers;stroke-width:.98883"/><path d="M100 8v17.105c5.478 1.327 10.726 3.518 15.613 6.361H124V12.51C116.295 9.62 108.218 8 100 8z" style="fill:#728dbe;paint-order:stroke fill markers;stroke-width:.98883"/><path d="M76 13.376c-9.482 4.077-17.756 9.798-24 14.846v3.245h1.5c5.953-2.74 13.628-5.472 22.5-6.868z" style="fill:#d3b69a;paint-order:stroke fill markers;stroke-width:.98883"/><path d="M28 78.4v23.467h16.51C45.556 93.725 48.203 86.27 52 79.81V78.4z" style="fill:#f8c18c;paint-order:stroke fill markers;stroke-width:.98883"/><path d="M52 54.933V78.4h.846c5.8-9.236 13.988-16.282 23.154-20.144v-3.323z" style="fill:#ececec;paint-order:stroke fill markers;stroke-width:.98883"/><path d="M56 74.489s-16 7.822-16 35.2c0 4.901 1.363 10.245 3.748 15.644H68v-.036c-7.506-6.356-13.017-14.68-16-23.43-4-11.733 4-27.378 4-27.378z" style="fill:#fff;paint-order:stroke fill markers;stroke-width:.98883"/><path d="M28 125.33h24v23.467H28z" style="fill:#e0f4e0;paint-order:stroke fill markers;stroke-width:.98883"/><path d="M43.748 125.33c2.05 4.641 4.862 9.32 8.252 13.802V125.33z" style="fill:#fcecdc;paint-order:stroke fill markers;stroke-width:.98883"/><path d="M100 148.8v19.556c7.798.19 15.958-.716 24-2.696V148.8z" style="fill:#54688c;paint-order:stroke fill markers;stroke-width:.98883"/><path d="M148 148.8v7.217a80.29 80.29 0 0 0 10.428-7.217z" style="fill:#728dbe;paint-order:stroke fill markers;stroke-width:.98883"/><path d="M52 31.847c-8.844 3.995-17.09 9.451-24 16.387v6.7h24z" style="fill:#f9de81;paint-order:stroke fill markers;stroke-width:.98883"/><path d="M76 31.467h24v23.467H76z" style="fill:#d3b69a;paint-order:stroke fill markers;stroke-width:.98883"/><path d="M172 78.4v23.467h11.615c.25-2.535.385-5.14.385-7.822 0-5.14-.678-10.393-1.944-15.644z" style="fill:#73ada4;paint-order:stroke fill markers;stroke-width:.98883"/><path d="M76 172.27v9.72c5.228 1.307 10.583 2.013 16 2.013 2.701 0 5.37-.239 8-.647V172.27z" style="fill:#c39a54;paint-order:stroke fill markers;stroke-width:.98883"/></svg>