<svg xmlns="http://www.w3.org/2000/svg" xml:space="preserve" style="fill-rule:evenodd;clip-rule:evenodd;stroke-linecap:round;stroke-linejoin:round;stroke-miterlimit:1.5" viewBox="0 0 192 192"><path d="M29.5 19.5c-5.519 0-10 4.481-10 10v28.25L70 122l64.25 50.5h28.25c5.519 0 10-4.481 10-10v-28.25L122 70 57.75 19.5H29.5z" style="fill:#ff837d"/><path d="M57.75 19.5v38.25H96V96h38.25v38.25h38.25V96L142 50 96 19.5H57.75z" style="opacity:1;vector-effect:none;fill:#f8c18c;fill-opacity:1;stroke-width:38.25;paint-order:stroke fill markers"/><path d="M19.5 57.75V96L50 142l46 30.5h38.25v-38.25H96V96H57.75V57.75H19.5z" style="opacity:1;vector-effect:none;fill:#bd9aff;fill-opacity:1;stroke-width:38.25;paint-order:stroke fill markers"/><path d="M19.5 96v38.25l38.25 38.25H96v-38.25H57.75V96H19.5z" style="opacity:1;vector-effect:none;fill:#8c72bd;fill-opacity:1;stroke-width:38.25;paint-order:stroke fill markers"/><path d="M96 19.5v38.25h38.25V96h38.25V57.75L134.25 19.5H96z" style="opacity:1;vector-effect:none;fill:#f9de81;fill-opacity:1;stroke-width:38.25;paint-order:stroke fill markers"/><path d="M19.5 134.25v28.25c0 5.519 4.481 10 10 10h1.47L39 167l5.03 5.5h13.72v-38.25H19.5z" style="opacity:1;vector-effect:none;fill:#54688c;fill-opacity:1;stroke-width:38.25;paint-order:stroke fill markers"/><path d="M134.25 19.5v38.25h38.25V29.5c0-5.519-4.481-10-10-10h-28.25z" style="opacity:1;vector-effect:none;fill:#98dc9a;fill-opacity:1;stroke-width:38.25;paint-order:stroke fill markers"/><path d="M111.24 108.258a6 6 0 0 0-5.754 3.756l-7.773 16.113a6 6 0 1 0 10.808 5.213l.838-1.735c.245.223.515.461.746.682 2.503 2.393 3.89 3.877 3.704 7.328-.134 2.48-.709 3.706-4.246 3.977-4.74.363-9.816-.076-15.258-.301a6 6 0 1 0-.494 11.99c5.04.208 10.617.739 16.668.276 8.606-.66 14.906-7.724 15.314-15.297.425-7.898-4.141-13.535-7.397-16.647-1.388-1.327-2.324-2.177-2.906-2.767.607-2.227 1.182-4.394 1.266-4.71a6 6 0 0 0-3.195-7.33 6 6 0 0 0-.526-.212 6 6 0 0 0-.008-.002 6 6 0 0 0-.341-.102 6 6 0 0 0-.243-.07 6 6 0 0 0-1.203-.162zm-40.99 4.236a19.103 19.103 0 0 0-8.232 1.773 6 6 0 0 0-2.045-.345 6 6 0 0 0-5.489 3.715L30.971 172.5h13.058l9.194-21.451c.859.34 1.795.694 2.816 1.043 3.702 1.266 7.932 2.858 13.166 1.785 4.92-1.009 8.994-2.982 11.77-6.11 2.775-3.127 3.933-6.747 4.838-10.279.67-2.616 1.794-6.22 1.386-10.58-.407-4.36-3.267-9.448-8.351-12.19a18.373 18.373 0 0 0-8.598-2.224zm-.69 11.799c.967-.073 2.089.177 3.592.988 2.151 1.16 1.973 1.41 2.098 2.742.125 1.333-.369 3.779-1.063 6.489-.749 2.926-1.448 4.457-2.187 5.29-.74.834-1.837 1.63-5.205 2.321-.151.031-3.921-.377-6.873-1.387-.174-.06-.143-.067-.313-.127l4.928-13.6a9.464 9.464 0 0 1 2.358-1.769c.886-.48 1.699-.875 2.666-.947z" style="color:#000;font-style:normal;font-variant:normal;font-weight:400;font-stretch:normal;font-size:medium;line-height:normal;font-family:sans-serif;font-variant-ligatures:normal;font-variant-position:normal;font-variant-caps:normal;font-variant-numeric:normal;font-variant-alternates:normal;font-feature-settings:normal;text-indent:0;text-align:start;text-decoration:none;text-decoration-line:none;text-decoration-style:solid;text-decoration-color:#000;letter-spacing:normal;word-spacing:normal;text-transform:none;writing-mode:lr-tb;direction:ltr;text-orientation:mixed;dominant-baseline:auto;baseline-shift:baseline;text-anchor:start;white-space:normal;shape-padding:0;clip-rule:nonzero;display:inline;overflow:visible;visibility:visible;opacity:1;isolation:auto;mix-blend-mode:normal;color-interpolation:sRGB;color-interpolation-filters:linearRGB;solid-color:#000;solid-opacity:1;vector-effect:none;fill:#fff;fill-opacity:1;fill-rule:nonzero;stroke:none;stroke-width:12;stroke-linecap:round;stroke-linejoin:miter;stroke-miterlimit:4;stroke-dasharray:none;stroke-dashoffset:0;stroke-opacity:1;color-rendering:auto;image-rendering:auto;shape-rendering:auto;text-rendering:auto;enable-background:accumulate"/></svg>