<?xml version="1.0" encoding="UTF-8"?>
<svg version="1.1" viewBox="0 0 192 192" xmlns="http://www.w3.org/2000/svg">
 <circle class="a" cx="96" cy="96" r="88" style="fill:#9abeff"/>
 <path d="m96.796 50.573c0.0746-0.0011 0.14799-0.0011 0.22481-0.0011 0.39314-0.0023 0.78741-0.0034 1.1806-0.0034 0.31745 0 0.63376-0.0023 0.95008-0.0045 6.1908-0.04971 12.438 0.95573 18.057 3.6467 0.0746 0.03502 0.14799 0.06891 0.22481 0.10506 2.0741 0.97494 3.9879 2.1736 5.7626 3.623 0.1062 0.08699 0.1062 0.08699 0.21465 0.1751 1.3828 1.1365 2.6446 2.3577 3.7393 3.7789 0.0474 0.05988 0.0938 0.11975 0.14234 0.18075 3.0005 3.832 4.6273 8.4886 4.6307 13.347v0.26774c-1e-3 1.3782-0.0689 2.7034-0.36715 4.0534-0.0294 0.13669-0.0294 0.13669-0.0587 0.27678-0.79645 3.684-2.4639 6.9488-4.799 9.8906-0.0734 0.09264-0.0734 0.09264-0.14799 0.18753-1.2675 1.5997-2.7429 3.0999-4.3708 4.3313-0.13443 0.10506-0.26774 0.209-0.40104 0.31406-3.571 2.7644-7.6447 4.7041-11.913 6.1253-0.11184 0.0373-0.22368 0.0746-0.33778 0.11297-3.4366 1.1308-7.0098 1.812-10.592 2.2809-0.12991 0.017-0.25983 0.035-0.39313 0.0531-1.1026 0.13556-2.2075 0.20335-3.3146 0.27113-0.16945 0.0102-0.33891 0.0203-0.50837 0.0305-0.41121 0.026-0.82355 0.0508-1.2348 0.0757 9e-3 2.9124 0.02033 5.8259 0.03276 8.7383 0.0056 1.3523 0.01017 2.7056 0.01469 4.0579 0.0034 1.1794 0.0079 2.3588 0.01356 3.5382 0.0034 0.62473 0.0056 1.2483 0.0068 1.8719 0.0023 0.58858 0.0045 1.1783 0.0079 1.7669 0.0011 0.21464 0.0011 0.42929 0.0011 0.64393 0.0023 1.7115 0.09603 3.3993 0.50272 5.0701 0.02372 0.0983 0.04745 0.19657 0.07117 0.29711 0.54452 2.1182 1.5432 3.9879 2.9643 5.6474 0.0768 0.0915 0.15252 0.18301 0.2316 0.27678 0.99527 1.1568 2.1905 2.0561 3.4106 2.9587 2.1374 1.5918 2.1374 1.5918 2.317 2.5046 9e-3 0.11862 0.0181 0.23837 0.0282 0.36038-7.3374 0.18301-14.35-1.4765-20.9-4.7448-0.23498-0.11636-0.46883-0.23159-0.70381-0.34682-1.0269-0.5095-2.0482-1.0269-3.0592-1.5669-5.0328-2.6672-10.06-4.3234-15.774-4.4872-0.1751-6e-3 -0.1751-6e-3 -0.3536-0.0102-0.10393-3e-3 -0.209-6e-3 -0.31745-9e-3 -0.2395-0.0192-0.2395-0.0192-0.35247-0.13218 0-0.64167 0.18866-0.97381 0.62473-1.4359 0.74222-0.68912 1.5545-1.2992 2.3622-1.9092 3.3485-2.5306 5.5943-5.7367 6.2552-9.9358 0.31858-2.3215 0.26661-4.668 0.27-7.0053 0.0011-0.51289 0.0023-1.0258 0.0045-1.5387 0.0023-0.88569 0.0045-1.7714 0.0056-2.6582 0.0023-1.2811 0.0056-2.5622 9e-3 -3.8421 0.0056-2.0798 0.01017-4.1584 0.01469-6.2371 0.0045-2.0188 9e-3 -4.0364 0.01469-6.0552 0-0.12427 0-0.24854 0.0011-0.37732 0.0011-0.62473 0.0023-1.2506 0.0045-1.8753 0.01243-5.1786 0.02485-10.357 0.03615-15.536 0.3344 0.32648 0.59875 0.65071 0.86197 1.0382 1.759 2.4368 4.8702 3.6569 7.752 4.137 4.6499 0.67782 9.4692-0.33213 13.338-3.0174 0.18979-0.12427 0.18979-0.12427 0.30276-0.12427v22.142c3.702-0.88117 6.6811-2.1769 9.3766-4.8577 0.0802-0.08021 0.0802-0.08021 0.16267-0.16155 4.3031-4.3279 6.1061-10.755 6.0936-16.721-1e-3 -0.1028-1e-3 -0.20674-1e-3 -0.31406-0.0124-4.5109-1.0653-9.3201-4.2737-12.681-1.6245-1.6121-3.7834-2.4628-6.0484-2.4887-2.0199 0.02259-3.9382 0.63716-5.4102 2.0708-0.07908 0.08021-0.15703 0.16155-0.23837 0.24515-0.06439 0.06213-0.12878 0.12427-0.19544 0.18866-0.92297 0.96025-1.3127 2.256-1.3161 3.5552 0.01695 0.70494 0.16268 1.2404 0.60778 1.7917 0.81 0.71285 1.6618 0.92862 2.7113 1.0167-0.0531 1.5838-0.9433 2.674-2.0335 3.728-2.6706 2.4921-6.6415 3.6682-10.224 3.658-0.07908-0.0011-0.15816-0.0011-0.2395-0.0011-2.9485-0.01017-5.696-0.76933-7.9509-2.7531-0.08586-0.07569-0.17172-0.15025-0.26096-0.2282-1.7025-1.5906-2.5113-3.7326-2.709-6.0202-0.07908-2.7542 1.0427-5.3876 2.857-7.421 0.07908-0.09377 0.15703-0.18753 0.23837-0.28356 4.6952-5.4678 12.869-7.0415 19.699-7.5702 0.82243-0.05761 1.6415-0.07456 2.4662-0.07682z" fill="#fff" style="fill:#fff;stroke-width:.11297"/>
</svg>
