<?xml version="1.0" encoding="UTF-8"?><svg id="a" xmlns="http://www.w3.org/2000/svg" width="192" height="192" viewBox="0 0 192 192"><g id="b"><g id="c"><rect x="8" y="32" width="176" height="128" rx="10" ry="10" style="fill:#fff; isolation:isolate;"/><path d="m92.52,66.71c-16.16,0-29.28,13.12-29.28,29.29s13.12,29.29,29.28,29.29,29.28-13.12,29.28-29.29-13.1-29.29-29.28-29.29Z" style="fill:#f9de81;"/><path d="m74.47,88.1c-2.95,0-5.34,2.39-5.34,5.34s2.39,5.34,5.34,5.34,5.34-2.39,5.34-5.34-2.39-5.34-5.34-5.34Zm2.66,6.84c-.15.27-.49.37-.76.22,0,0,0,0-.01,0l-2.17-1.21s-.01-.01-.03-.01c-.01-.01-.03-.03-.05-.04-.01-.01-.04-.03-.05-.04l-.04-.04s-.03-.03-.04-.05c-.01-.01-.01-.03-.03-.04-.01-.01-.02-.03-.03-.05-.01-.01-.01-.04-.03-.05s-.01-.04-.01-.05-.01-.04-.01-.05v-2.45c0-.31.26-.57.57-.57s.57.26.57.57v2.02l1.87,1.05c.29.16.39.51.23.79Z" style="fill:#728dbe;"/><path d="m98.67,119.79h-48.39c-2.36,0-4.27-1.91-4.27-4.27v-15.21c0-2.36,1.91-4.27,4.27-4.27h11.94c.25,0,.45-.2.45-.45v-10.86c0-2.36,1.91-4.27,4.27-4.27h15.06c2.36,0,4.27,1.91,4.27,4.27v10.86c0,.25.2.45.45.45h11.93c2.36,0,4.27,1.91,4.27,4.27v15.22c.01,2.35-1.91,4.26-4.26,4.26Zm-48.39-19.94c-.25,0-.45.2-.45.45v15.22c0,.25.2.45.45.45h48.39c.25,0,.45-.2.45-.45v-15.22c0-.25-.2-.45-.45-.45h-11.94c-2.36,0-4.27-1.91-4.27-4.27v-10.86c0-.25-.2-.45-.45-.45h-15.07c-.25,0-.45.2-.45.45v10.86c0,2.36-1.91,4.27-4.27,4.27h-11.94Z" style="fill:#728dbe;"/><path d="m56.4,109.49h-1.41c-.94,0-1.7-.76-1.7-1.7v-1.41c0-.94.76-1.7,1.7-1.7h1.41c.94,0,1.7.76,1.7,1.7v1.41c0,.94-.76,1.7-1.7,1.7Zm7.71,0h-1.41c-.94,0-1.7-.76-1.7-1.7v-1.41c0-.94.76-1.7,1.7-1.7h1.41c.94,0,1.7.76,1.7,1.7v1.41c0,.94-.76,1.7-1.7,1.7Zm22.46,0h-1.41c-.94,0-1.7-.76-1.7-1.7v-1.41c0-.94.76-1.7,1.7-1.7h1.41c.94,0,1.7.76,1.7,1.7v1.41c0,.94-.76,1.7-1.7,1.7Zm7.71,0h-1.41c-.94,0-1.7-.76-1.7-1.7v-1.41c0-.94.76-1.7,1.7-1.7h1.41c.94,0,1.7.76,1.7,1.7v1.41c0,.94-.76,1.7-1.7,1.7Zm48,10.31h-47.12v-3.84h46.86c-7.82-10.01-14.51-9.41-14.79-9.39h-.24s-25.97.01-25.97.01v-3.82h25.88c1.3-.11,9.54-.3,18.32,11.1.86,1.11,1,2.6.38,3.86-.62,1.27-1.91,2.08-3.32,2.07h0Z" style="fill:#728dbe;"/><path d="m120.55,113.19h-12.76c-1.05,0-1.91-.85-1.91-1.91s.85-1.91,1.91-1.91h12.76c1.05,0,1.91.85,1.91,1.91s-.85,1.91-1.91,1.91Zm9.76,0h-3.12c-1.05,0-1.91-.85-1.91-1.91s.85-1.91,1.91-1.91h3.12c1.05,0,1.91.85,1.91,1.91s-.85,1.91-1.91,1.91Z" style="fill:#728dbe;"/></g></g></svg>