<?xml version="1.0" encoding="UTF-8" standalone="no"?>
<svg
   version="1.1"
   viewBox="0 0 192 192"
   id="svg10"
   sodipodi:docname="plexus.svg"
   inkscape:version="1.2.2 (b0a8486541, 2022-12-01)"
   inkscape:export-filename="plexus.png"
   inkscape:export-xdpi="96"
   inkscape:export-ydpi="96"
   xmlns:inkscape="http://www.inkscape.org/namespaces/inkscape"
   xmlns:sodipodi="http://sodipodi.sourceforge.net/DTD/sodipodi-0.dtd"
   xmlns="http://www.w3.org/2000/svg"
   xmlns:svg="http://www.w3.org/2000/svg">
  <defs
     id="defs14" />
  <sodipodi:namedview
     id="namedview12"
     pagecolor="#505050"
     bordercolor="#eeeeee"
     borderopacity="1"
     inkscape:showpageshadow="0"
     inkscape:pageopacity="0"
     inkscape:pagecheckerboard="0"
     inkscape:deskcolor="#d1d1d1"
     showgrid="false"
     inkscape:zoom="1.7383042"
     inkscape:cx="59.253151"
     inkscape:cy="87.72918"
     inkscape:window-width="1884"
     inkscape:window-height="1055"
     inkscape:window-x="36"
     inkscape:window-y="0"
     inkscape:window-maximized="1"
     inkscape:current-layer="svg10" />
  <rect
     class="a"
     x="20"
     y="20"
     width="152"
     height="152"
     rx="10"
     style="fill:#56595b"
     id="rect2" />
  <path
     d="m 69.322173,132.3647 c -1.189898,-0.28835 -1.908948,-0.8395 -2.423597,-1.86149 -0.565749,-1.1096 -0.638749,-2.555 -0.19345,-3.81425 0.1679,-0.48545 1.726448,-2.70465 3.843446,-5.48229 1.960048,-2.5696 7.080993,-9.32939 11.387989,-15.01974 4.299696,-5.694 7.887642,-10.435339 7.971592,-10.54119 0.13505,-0.1679 -8.424191,-11.986588 -18.560231,-25.630276 -3.328798,-4.482195 -3.511297,-4.807045 -3.503997,-6.215944 0.0073,-1.284798 0.335799,-2.149847 1.167999,-3.076947 1.288449,-1.445398 4.080696,-1.646148 5.584494,-0.4015 0.3066,0.2555 5.266946,6.847394 11.030289,14.654737 8.606693,11.672688 10.51199,14.158337 10.712741,13.961237 0.135049,-0.1314 5.051592,-6.588244 10.928082,-14.344487 11.64715,-15.377435 11.17994,-14.844536 13.24219,-15.052586 1.76295,-0.182499 3.34705,0.6935 4.0588,2.230149 0.41975,0.905199 0.4526,2.730197 0.073,3.628096 -0.1533,0.3577 -4.28145,5.912995 -9.17974,12.336988 -4.89099,6.431294 -9.928,13.045088 -11.17994,14.698536 l -2.2776,3.007597 0.4307,0.56575 c 0.23725,0.31025 4.0296,5.46039 8.43149,11.43908 4.39825,5.98601 9.271,12.60344 10.82954,14.71679 1.5549,2.11335 2.9273,4.12815 3.0441,4.4822 0.12045,0.3504 0.1825,1.1972 0.146,1.87975 -0.12411,2.14255 -1.4235,3.6427 -3.4091,3.93469 -1.1461,0.1679 -2.62799,-0.20804 -3.3799,-0.85409 -0.35039,-0.3066 -5.42389,-7.09559 -11.27119,-15.08909 -5.84364,-7.99349 -10.694485,-14.57808 -10.774785,-14.62554 -0.07665,-0.0475 -5.230445,6.6211 -11.446389,14.81899 -10.037491,13.23489 -11.395289,14.95039 -12.099738,15.28619 a 5.0552452,5.0552452 0 0 1 -3.182797,0.36864 z"
     fill="#e54a3a"
     style="fill:#ff837d;stroke-width:0.365"
     id="path4" />
  <path
     d="m 62.19008,68.281716 c -2.281247,0.795699 -3.365297,3.573346 -2.244747,5.748745 0.328499,0.638749 0.872348,1.138799 2.503897,2.306798 0.5037,0.3139 24.673976,16.935984 27.546523,19.355931 C 84.622959,87.911397 75.399418,75.19481 74.815418,74.66191 72.93202,73.169061 68.953524,70.625014 67.099326,69.329265 65.201328,67.986066 63.861778,67.701367 62.19008,68.281716 Z m 67.61983,-0.25185 c 2.28125,0.795699 3.36531,3.573347 2.24476,5.748745 -0.3285,0.638749 -0.87235,1.138799 -2.5039,2.306798 -0.50371,0.3139 -24.67398,16.935984 -27.54653,19.355931 5.85095,-7.832892 15.97239,-21.115229 16.55639,-21.648129 1.8834,-1.496498 4.48949,-3.420046 6.34004,-4.715796 1.898,-1.343198 3.23755,-1.627898 4.90924,-1.047549 z m 0,54.822954 c 2.28125,-0.7957 3.36531,-3.57335 2.24476,-5.74875 -0.3285,-0.63875 -0.87235,-1.1388 -2.5039,-2.30679 -0.50371,-0.3139 -24.67398,-16.935992 -27.54653,-19.35594 5.85095,7.83289 15.51249,21.22473 16.09649,21.75763 1.88705,1.49285 4.94939,3.31054 6.79994,4.60629 1.898,1.3432 3.23755,1.6279 4.90924,1.04756 z m -67.61983,0.2482 c -2.281247,-0.79206 -3.365297,-3.5697 -2.244747,-5.7451 0.328499,-0.63875 0.872348,-1.1388 2.503897,-2.3068 0.5037,-0.3139 24.673976,-16.935982 27.546523,-19.35593 -5.850943,7.82559 -15.972384,21.11158 -16.556383,21.64813 a 151.91286,151.91286 0 0 1 -6.340044,4.7158 c -1.897998,1.34319 -3.237548,1.6279 -4.909246,1.0439 z"
     fill="#fff"
     style="fill:#ffffff;stroke-width:0.365"
     id="path6" />
</svg>
