<?xml version="1.0" encoding="UTF-8"?>
<svg version="1.1" viewBox="0 0 192 192" xml:space="preserve" xmlns="http://www.w3.org/2000/svg">
	 <rect class="a" x="8" y="32" width="176" height="128" rx="10" fill="#ff837d"/><path d="m53.525 82.376v-12.539c0.70263-5.1698 3.4564-8.4405 9.0664-9.0664h14.371c4.2328 0 7.8936 4.2744 9.9345 7.909h41.667c5.0778 0.07691 9.8039 1.8868 9.8039 5.6603v8.0358z" fill="#fff" stroke-linecap="round" stroke-linejoin="round" stroke-width="3.8581"/><path d="m53.429 87.295v33.758c0.84306 6.006 4.3174 9.3134 10.176 10.176h65.442c5.4913-0.921 8.7909-3.9746 9.5246-9.5246v-34.409z" fill="#fff" stroke-linecap="round" stroke-linejoin="round" stroke-width="3.8581"/><path transform="matrix(.77161 0 0 .77161 288.48 17.947)" d="m-232.57 120-24.786 14.31a2.3094 2.3094 30 0 1-3.4641-2v-28.621a2.3094 2.3094 150 0 1 3.4641-2l24.786 14.31a2.3094 2.3094 90 0 1 0 4z" fill="#ff837d" stroke-linecap="round" stroke-linejoin="round" stroke-width="5"/></svg>
