<?xml version="1.0" encoding="UTF-8"?>
<svg version="1.1" viewBox="0 0 192 192" xmlns="http://www.w3.org/2000/svg">
 <defs>
  <clipPath id="clipPath11">
   <rect class="a" x="20" y="20" width="152" height="152" rx="10" style="fill:#fff"/>
  </clipPath>
  <clipPath id="clipPath13">
   <rect class="a" x="20" y="20" width="152" height="152" rx="10" style="fill:#fff"/>
  </clipPath>
  <clipPath id="clipPath15">
   <rect class="a" x="20" y="20" width="152" height="152" rx="10" style="fill:#fff"/>
  </clipPath>
  <clipPath id="clipPath16">
   <rect class="a" x="20" y="20" width="152" height="152" rx="10" style="fill:#fff"/>
  </clipPath>
  <clipPath id="clipPath17">
   <rect class="a" x="20" y="20" width="152" height="152" rx="10" style="fill:#fff"/>
  </clipPath>
 </defs>
 <rect class="a" x="20" y="20" width="152" height="152" rx="10" style="fill:#fff"/>
 <path d="m80.273 149.61-28.711-46.289s-12.991-33.573 16.406-53.516c31.021-21.044 57.617 4.6875 57.617 4.6875l22.656 33.984-58.984 64.062z" style="fill:#f9de81"/>
 <path d="m20 172c70.272-13.191 119.86-60.877 152-137.62l12 95.312-1.1875 62.312-150.81-8z" clip-path="url(#clipPath17)" style="fill:#56595b"/>
 <path d="m112.7 149.8 15.43-12.695" style="fill:#56595b;stroke-linecap:round;stroke-linejoin:round;stroke-width:10;stroke:#83868c"/>
 <path d="m139.84 125.98 9.375-11.133" style="fill:#56595b;stroke-linecap:round;stroke-linejoin:round;stroke-width:10;stroke:#83868c"/>
 <path d="m160 99.609 9.1118-12.257" clip-path="url(#clipPath16)" style="fill:#56595b;stroke-linecap:round;stroke-linejoin:round;stroke-width:10;stroke:#83868c"/>
 <path d="m86.179 168.21 12.844-8.2141" clip-path="url(#clipPath15)" style="fill:#56595b;stroke-linecap:round;stroke-linejoin:round;stroke-width:10;stroke:#83868c"/>
 <path d="m71.401 174.84-8.8388 6.2148" clip-path="url(#clipPath13)" style="fill:#56595b;stroke-linecap:round;stroke-linejoin:round;stroke-width:10;stroke:#83868c"/>
 <path d="m175.26 72.092 3.5843-5.7774" clip-path="url(#clipPath11)" style="fill:#56595b;stroke-linecap:round;stroke-linejoin:round;stroke-width:10;stroke:#83868c"/>
 <path d="m73.242 90.82 13.477 22.852" style="fill:#f9de81;stroke-linecap:round;stroke-linejoin:round;stroke-width:8;stroke:#56595b"/>
 <path d="m108.98 69.336 13.867 22.656" style="fill:#f9de81;stroke-linecap:round;stroke-linejoin:round;stroke-width:8;stroke:#56595b"/>
 <path d="m108.28 99.299-8.6317 5.4552s4.9084 7.4522 9.1841 3.1765c3.1435-3.1435-0.55242-8.6317-0.55242-8.6317z" style="fill:#56595b"/>
</svg>
