<?xml version="1.0" encoding="UTF-8"?>
<svg version="1.1" viewBox="0 0 192 192" xmlns="http://www.w3.org/2000/svg">
 <circle class="a" cx="96" cy="96" r="88" style="fill:#73ada4"/>
 <style type="text/css">.st0{fill:#000000;}</style>
 <g transform="matrix(-.10938 0 0 .10938 147.17 51.723)" style="fill:#56595b">
  <rect class="st0" x="152.45" y="446.59" width="281.24" height="65.414" style="fill:#56595b"/>
  <path class="st0" d="m209.14 277.88-37.896 139.18h241.34s8.442-121.14 19.004-243.57c6.908-80.147-61.224-160.44-157.07-149.05-6.084 0.721-11.855 1.957-17.476 3.428l-75.066-27.292c-3.624-1.318-7.691-0.329-10.305 2.502-2.615 2.832-3.285 6.949-1.689 10.46l23.39 51.362c-28.522 27.498-46.601 62.202-58.166 83.029-15.834 28.496-54.646 106.54-54.646 106.54-4.89 9.533-1.544 21.218 7.639 26.737l45.452 27.271c10.563 6.341 23.875 5.848 33.953-1.266zm4.303-137.46c11.273 0 20.415 9.132 20.415 20.404 0 11.263-9.142 20.405-20.415 20.405-11.263 0-20.405-9.142-20.405-20.405 0-11.272 9.142-20.404 20.405-20.404z" style="fill:#56595b"/>
 </g>
 <g transform="matrix(.10938 0 0 .10938 44.827 81.594)" style="fill:#fff">
  <rect class="st0" x="163.01" y="471.1" width="281.24" height="65.414" style="fill:#fff"/>
  <path class="st0" d="m209.14 277.88-37.896 139.18h241.34s8.442-121.14 19.004-243.57c6.908-80.147-61.224-160.44-157.07-149.05-6.084 0.721-11.855 1.957-17.476 3.428l-75.066-27.292c-3.624-1.318-7.691-0.329-10.305 2.502-2.615 2.832-3.285 6.949-1.689 10.46l23.39 51.362c-28.522 27.498-46.601 62.202-58.166 83.029-15.834 28.496-54.646 106.54-54.646 106.54-4.89 9.533-1.544 21.218 7.639 26.737l45.452 27.271c10.563 6.341 23.875 5.848 33.953-1.266zm4.303-137.46c11.273 0 20.415 9.132 20.415 20.404 0 11.263-9.142 20.405-20.415 20.405-11.263 0-20.405-9.142-20.405-20.405 0-11.272 9.142-20.404 20.405-20.404z" style="fill:#fff"/>
 </g>
</svg>
