<?xml version="1.0" encoding="UTF-8" standalone="no"?>
<svg
   xml:space="preserve"
   id="Layer_1"
   x="0"
   y="0"
   style="enable-background:new 0 0 192 192"
   version="1.1"
   viewBox="0 0 192 192"
   sodipodi:docname="pods_companion.svg"
   inkscape:version="1.2.2 (b0a8486541, 2022-12-01)"
   inkscape:export-filename="pods_companion.png"
   inkscape:export-xdpi="96"
   inkscape:export-ydpi="96"
   xmlns:inkscape="http://www.inkscape.org/namespaces/inkscape"
   xmlns:sodipodi="http://sodipodi.sourceforge.net/DTD/sodipodi-0.dtd"
   xmlns="http://www.w3.org/2000/svg"
   xmlns:svg="http://www.w3.org/2000/svg"><defs
     id="defs11" /><sodipodi:namedview
     id="namedview9"
     pagecolor="#505050"
     bordercolor="#eeeeee"
     borderopacity="1"
     inkscape:showpageshadow="0"
     inkscape:pageopacity="0"
     inkscape:pagecheckerboard="0"
     inkscape:deskcolor="#d1d1d1"
     showgrid="false"
     inkscape:zoom="1.2291667"
     inkscape:cx="19.525424"
     inkscape:cy="96.40678"
     inkscape:window-width="1884"
     inkscape:window-height="1055"
     inkscape:window-x="36"
     inkscape:window-y="0"
     inkscape:window-maximized="1"
     inkscape:current-layer="Layer_1" /><style
     id="style2">.st1{fill:#fff}</style><path
     d="M29.5 19.5h133c5.5 0 10 4.5 10 10v133c0 5.5-4.5 10-10 10h-133c-5.5 0-10-4.5-10-10v-133c0-5.5 4.5-10 10-10z"
     style="fill:#f8c18c"
     id="path4" /><path
     d="m 80.934766,86.737784 c -1.518693,0.479588 -2.797593,1.119038 -4.076493,1.2789 -5.435324,0.879244 -9.831541,-1.2789 -13.987966,-4.476149 -2.238074,-1.758487 -3.27718,-3.836699 -3.117318,-6.634292 0.159863,-2.477869 0.07993,-5.035668 0.239794,-7.513536 0.07993,-1.438762 0.479587,-2.877525 1.678556,-3.836699 3.037387,-2.5578 6.314567,-4.795874 10.231198,-5.675118 4.955736,-1.119037 9.192092,0.239794 12.709066,3.91663 3.037387,3.19725 4.636011,7.193811 5.914911,11.270304 1.358831,4.556081 1.998281,9.192092 1.998281,13.908035 v 37.168021 c 0,1.2789 -0.159862,2.63773 -0.159862,3.91663 0,0.79931 -0.399657,1.35883 -1.119038,1.59863 -2.557799,0.87924 -5.19553,1.11903 -7.833261,0.47958 -1.278899,-0.31972 -1.838418,-1.19897 -1.838418,-2.39793 -0.07993,-1.83842 -0.239794,-3.67684 -0.239794,-5.51526 0,-11.2703 0,-22.5406 -0.07993,-33.810909 -0.07993,-1.119037 -0.239794,-2.397937 -0.319726,-3.676837 z m 30.373864,-0.159862 c -0.0799,1.358831 -0.31972,2.557799 -0.31972,3.836699 0,11.190369 0,22.380739 -0.0799,33.571119 0,1.91835 -0.0799,3.8367 -0.2398,5.75505 -0.0799,1.67855 -0.55952,2.318 -2.15814,2.39793 -2.15815,0.15987 -4.39622,0.2398 -6.55436,0.0799 -1.5187,-0.0799 -1.998284,-0.71938 -2.078215,-2.23807 -0.07993,-0.95917 -0.159863,-1.91835 -0.159863,-2.87752 V 89.135721 c 0,-5.435323 0.719378,-10.710785 2.557798,-15.826384 1.11904,-3.197249 2.5578,-6.234636 4.79588,-8.872367 4.15642,-4.636011 9.35195,-5.994842 15.26686,-3.91663 2.95746,1.039106 5.51526,2.877524 7.9132,4.795874 1.2789,1.039106 1.83841,2.397937 1.91834,3.996562 0.0799,3.27718 0.15987,6.634292 0,9.911472 0,0.959175 -0.55951,2.078213 -1.19896,2.717662 -3.19725,3.357112 -7.03395,5.675118 -11.74989,6.314568 -2.23808,0.319725 -4.39622,0 -6.47443,-0.959175 -0.39966,-0.239794 -0.79932,-0.399656 -1.43877,-0.719381 z"
     class="st1"
     id="path6"
     style="stroke-width:0.799312" /></svg>
