<?xml version="1.0" encoding="UTF-8"?>
<svg version="1.1" viewBox="0 0 192 192" xmlns="http://www.w3.org/2000/svg">
 <circle class="a" cx="96" cy="96" r="88" style="fill:#56595b"/>
 <path d="m91.24 137.46c-0.32662-0.0579-1.6093-0.27776-2.8505-0.48863-10.355-1.7592-20.269-8.0892-26.733-17.069-1.8099-2.5139-4.5412-7.8986-5.5425-10.927-1.5234-4.6072-2.2841-9.7264-2.0978-14.117 0.45695-10.769 4.3171-19.867 11.687-27.544 6.8227-7.1077 15.658-11.462 25.649-12.64 4.0234-0.47451 13.946 0.0903 13.526 0.76991-0.0692 0.11197-0.65848 0.20358-1.3095 0.20358-2.8282 0-8.2857 1.621-12.171 3.6151-6.605 3.3897-11.628 7.8716-13.965 12.46-0.83 1.63-1.0072 2.2301-1.104 3.7389-0.0797 1.2418-0.0233 1.9081 0.18237 2.156 0.41772 0.50333 2.312 0.45957 3.3313-0.077 1.1385-0.59928 2.282-2.3645 2.6046-4.0206 0.14608-0.74992 0.32378-1.6643 0.39488-2.0319 0.27799-1.4374 2.2218-1.3362 4.2632 0.22204l1.1095 0.84691 0.8985-0.40517c1.2214-0.5508 2.2706-1.6868 2.7113-2.936 0.41356-1.1722 0.48564-3.7223 0.13153-4.6537-0.68633-1.8052 1.8469-0.15332 2.9036 1.8933 0.68073 1.3185 0.80914 3.6455 0.30727 5.5679-0.99625 3.816-3.1977 7.11-8.1854 12.248-2.6724 2.7528-3.3772 3.6324-4.0916 5.1071-1.2926 2.668-1.6929 4.9976-1.3809 8.0371 0.13856 1.3502 0.4774 3.0605 0.75297 3.8006 1.5791 4.2411 5.2689 7.6164 9.8102 8.9742 1.9442 0.58127 5.8946 0.58127 7.8388 0 5.429-1.6232 9.4421-5.9595 10.437-11.277 0.65695-3.5126 0.35389-5.8802-1.2765-9.9726-2.3298-5.848-2.614-9.6083-0.98-12.97 0.74471-1.5323 1.5981-2.666 1.8313-2.4328 0.0779 0.0779 0.39554 1.343 0.70584 2.8113 0.31031 1.4683 0.70104 3.1542 0.8683 3.7464l0.30411 1.0767 0.69229-0.94448c1.035-1.412 2.0821-2.4885 2.4205-2.4885 0.32745 0 0.61162 0.90691 1.0606 3.385 0.15979 0.88187 0.41142 1.6034 0.55918 1.6034s0.63127-0.37413 1.0745-0.83139c0.94323-0.97317 1.2372-1.021 1.8237-0.29693 0.25582 0.31582 0.74415 0.55851 1.1937 0.59323l0.76074 0.0588-0.14028-1.2465c-0.82821-7.3595-6.7701-16.086-14.387-21.128-1.2684-0.83964-1.8409-1.3653-1.8409-1.6901 0-0.44483 0.11215-0.46277 1.9906-0.31839 2.6578 0.2043 7.012 1.3284 9.6431 2.4894 5.392 2.3794 10.351 6.7544 14.289 12.606 3.6616 5.4412 5.5188 10.295 6.644 17.365 1.1255 7.0717 2e-3 15.179-3.0917 22.312-1.9697 4.5414-5.1835 9.1661-8.963 12.898-4.8768 4.8154-9.6684 7.7478-16.236 9.9365-4.7174 1.5721-6.8338 1.9126-12.471 2.0066-2.7436 0.0457-5.2556 0.0358-5.5822-0.022z" style="fill:#f8c18c;stroke-width:.23754"/>
 <circle cx="96" cy="96" r="6.7908" style="fill:#f8c18c;stroke-linecap:round;stroke-linejoin:round;stroke-width:2.7553"/>
 <circle cx="96" cy="96" r="9.1886" style="fill:none;stroke-linecap:round;stroke-linejoin:round;stroke-width:2.2203;stroke:#f8c18c"/>
</svg>
