<svg xmlns="http://www.w3.org/2000/svg" xml:space="preserve" style="fill-rule:evenodd;clip-rule:evenodd;stroke-linejoin:round;stroke-miterlimit:2" viewBox="0 0 192 192"><path d="M19.5 29.5v91.979h153V29.5c0-5.519-4.481-10-10-10h-133c-5.519 0-10 4.481-10 10Z" style="fill:#98dc9a"/><path d="M172.5 121.479h-153V162.5c0 5.519 4.481 10 10 10h133c5.519 0 10-4.481 10-10v-41.021Z" style="fill:#71a372"/><path d="M94.929 92.327c15.863 0 28.741 12.878 28.741 28.741 0 35.504-41.352 35.813-41.352 35.813v-10.045s-16.13-7.818-16.13-25.768c0-15.863 12.879-28.741 28.741-28.741Z" style="fill:#ebebeb" transform="matrix(.78759 0 0 .78759 21.235 23.432)"/><text x="36.259" y="63.195" style="font-family:&quot;Now-Medium&quot;,&quot;Now&quot;;font-weight:500;font-size:49.232px;fill:#fff" transform="translate(41.25 39.415) scale(.48795)">P<tspan x="68.653px 114.464px 157.689px" y="63.195px 63.195px 63.195px">ONS</tspan></text></svg>