<?xml version="1.0" encoding="UTF-8"?>
<svg version="1.1" viewBox="0 0 192 192" xml:space="preserve" xmlns="http://www.w3.org/2000/svg"><path d="m83.51 12.217v30.789s-2.171-4.4408-8.0921-3.2566c-5.921 1.1842-27.632 20.033-27.632 20.033s-3.5289 2.4518-2.4671 6.4145c0.78693 2.9369 3.1561 4.5814 5.4276 4.2434 3.4364-0.51131 6.5454-2.1941 8.8816-3.9474 2.3467-1.7612 15-12.039 15-12.039l9.2763 8.0921v12.829l-30.789 30.789s-9.5958-15.825-12.237-18.553c-2.9366-3.0324-5.892-2.5361-8.455-1.2878-2.329 1.1343-4.2104 4.0072-3.8157 6.7704 0.39473 2.7632 2.797 7.149 2.797 7.149l14.605 23.684s2.3558 3.8611 5.329 3.8557c2.4459-5e-3 3.8099 0.14942 6.9079-2.4741 3.8014-3.2192 16.184-16.184 16.184-16.184l9.4737 13.224v29.408s-6.1801 5.3012-9.3979 8.1768c-2.3888 2.1348-3.6095 6.3733-2.3505 9.3192 1.0018 2.344 4.2833 3.7729 6.6517 3.7729s4.8993-2.3216 4.8993-2.3216v9.079h6.7105v-167.57z" fill="#f8c18c" stroke-linejoin="bevel" stroke-width="3.5115"/><style type="text/css">.st0{fill:#FFFFFF;}</style><g transform="matrix(1.018 0 0 .96878 -11.811 4.4669)" fill="#9abeff"><path d="m110.58 46.984s20.986 15.039 31.526 24.407c1.8991 1.688 2.4407 4.2712 2.4407 4.2712l4.8812 21.559s10.202 8.9424 17.668 14.394c2.8069 2.0496 7.3876 4.5524 3.661 9.7628-4.1156 5.754-8.2004 1.4363-11.186-0.81356-6.9928-5.2688-11.141-9.212-17.668-14.191-2.9475-2.2482-3.0508-5.0848-3.0508-5.0848l-3.4576-16.678-22.983 26.441s12.994 18.69 19.729 27.864c2.445 3.3305 3.9143 7.7436 0.2034 11.797-7.3812 8.0616-23.186 23.186-23.186 23.186l0.2034-21.152 8.757-9.2285-8.3502-8.4663z" stroke-width="4"/><rect x="108" y="8" width="5.6994" height="172.97" rx="0" ry="0" stroke-width="4.7334" style="paint-order:stroke fill markers"/><circle cx="142.2" cy="45.456" r="17.797" stroke-width="4" style="paint-order:stroke fill markers"/></g></svg>
