<?xml version="1.0" encoding="UTF-8" standalone="no"?>
<svg
   id="a"
   width="192"
   height="192"
   viewBox="0 0 192 192"
   version="1.1"
   sodipodi:docname="prayer_times.svg"
   inkscape:version="1.2.2 (b0a8486541, 2022-12-01)"
   inkscape:export-filename="prayer_times.png"
   inkscape:export-xdpi="96"
   inkscape:export-ydpi="96"
   xmlns:inkscape="http://www.inkscape.org/namespaces/inkscape"
   xmlns:sodipodi="http://sodipodi.sourceforge.net/DTD/sodipodi-0.dtd"
   xmlns="http://www.w3.org/2000/svg"
   xmlns:svg="http://www.w3.org/2000/svg">
  <defs
     id="defs10" />
  <sodipodi:namedview
     id="namedview8"
     pagecolor="#505050"
     bordercolor="#eeeeee"
     borderopacity="1"
     inkscape:showpageshadow="0"
     inkscape:pageopacity="0"
     inkscape:pagecheckerboard="0"
     inkscape:deskcolor="#d1d1d1"
     showgrid="false"
     inkscape:zoom="2.4583333"
     inkscape:cx="-19.525424"
     inkscape:cy="116.54237"
     inkscape:window-width="1884"
     inkscape:window-height="1055"
     inkscape:window-x="36"
     inkscape:window-y="0"
     inkscape:window-maximized="1"
     inkscape:current-layer="a" />
  <rect
     id="c"
     x="20"
     y="20"
     width="152"
     height="152"
     rx="10"
     style="fill:#98dc9a;stroke-width:0.993465" />
  <path
     id="e"
     d="M 74.998704,59.63796 C 66.413714,59.63796 59.5,66.551674 59.5,75.136664 v 41.726676 c 0,8.58498 6.913714,15.4987 15.498704,15.4987 H 117.0013 c 8.58498,0 15.4987,-6.91372 15.4987,-15.4987 V 75.136664 c 0,-8.58499 -6.91372,-15.498704 -15.4987,-15.498704 z m 4.556587,7.883369 h 32.897299 c 6.72451,0 12.14039,5.415875 12.14039,12.140389 v 32.684442 c 0,5.54202 -3.68153,10.18532 -8.74265,11.65162 v -3.25583 c 0,-1.97084 -4.55659,-2.10486 -4.55659,-2.10486 H 80.706263 c -4.824622,0 -4.682721,1.49785 -4.682721,1.49785 v 3.83131 C 71.025486,122.46053 67.40702,117.84876 67.40702,112.34616 V 79.661718 c 0,-6.724514 5.415874,-12.140389 12.140388,-12.140389 z"
     style="fill:#ffffff;stroke-width:0.788337" />
  <path
     id="f"
     d="m 95.834448,70.911178 -1.127321,13.409611 c 0,0 -1.702808,1.127321 -1.032722,3.295248 l -13.33866,10.429698 c 0,0 -13.17311,9.948815 -4.651188,18.754535 h 40.473223 c 8.52192,-8.80572 -4.6512,-18.754535 -4.6512,-18.754535 L 98.167926,87.616037 c 0.670087,-2.160043 -1.032721,-3.295248 -1.032721,-3.295248 z"
     style="fill:#ffffff;stroke-width:0.788337" />
</svg>
