<?xml version="1.0" encoding="UTF-8" standalone="no"?>
<svg
   xml:space="preserve"
   width="192"
   height="192"
   version="1.1"
   id="svg10"
   sodipodi:docname="predictwind.svg"
   inkscape:version="1.2.2 (b0a8486541, 2022-12-01)"
   inkscape:export-filename="predictwind.png"
   inkscape:export-xdpi="96"
   inkscape:export-ydpi="96"
   xmlns:inkscape="http://www.inkscape.org/namespaces/inkscape"
   xmlns:sodipodi="http://sodipodi.sourceforge.net/DTD/sodipodi-0.dtd"
   xmlns="http://www.w3.org/2000/svg"
   xmlns:svg="http://www.w3.org/2000/svg"><defs
     id="defs14" /><sodipodi:namedview
     id="namedview12"
     pagecolor="#505050"
     bordercolor="#eeeeee"
     borderopacity="1"
     inkscape:showpageshadow="0"
     inkscape:pageopacity="0"
     inkscape:pagecheckerboard="0"
     inkscape:deskcolor="#d1d1d1"
     showgrid="false"
     inkscape:zoom="1.2291667"
     inkscape:cx="-73.220339"
     inkscape:cy="60.610169"
     inkscape:window-width="1884"
     inkscape:window-height="1055"
     inkscape:window-x="36"
     inkscape:window-y="0"
     inkscape:window-maximized="1"
     inkscape:current-layer="svg10" /><rect
     width="152"
     height="152"
     x="20"
     y="20"
     fill="#9abeff"
     rx="9.935"
     id="rect2"
     style="fill:#9abeff" /><path
     fill="#ffffff"
     d="m 111.36087,59.696012 c -15.53004,6.769485 -27.087607,16.744903 -34.945563,28.056375 -0.702599,1.011148 -0.418585,1.289213 0.622302,0.631224 8.114461,-5.127857 16.681707,-8.323382 24.810291,-8.776168 1.22899,-0.0684 2.34943,-1.048322 2.60966,-2.252034 1.26467,-5.829712 4.41931,-11.254966 7.77394,-16.637097 0.65204,-1.045348 0.25873,-1.514491 -0.86989,-1.0223 z"
     id="path4"
     style="stroke-width:0.743491" /><path
     fill="#ffffff"
     d="m 101.41296,81.96654 c -8.05052,0.812636 -16.438585,3.073592 -25.733709,9.223006 -1.027504,0.67955 -2.469133,2.037165 -3.170245,3.050543 -3.276565,4.733807 -4.603696,9.365751 -5.13901,13.955321 -0.142007,1.22305 0.569514,1.58661 1.544231,0.83271 9.074307,-7.01037 19.216267,-11.733027 30.900971,-13.148633 1.223042,-0.148699 2.111512,-1.223786 2.117462,-2.455008 0.0134,-2.726381 0.46766,-5.938262 1.21561,-9.471331 0.25502,-1.204455 -0.51004,-2.110027 -1.73531,-1.985864 z m -25.794675,41.12769 c 2.274339,-2.00966 5.252764,-3.71002 10.848277,-4.25797 1.226016,-0.12045 3.222289,-0.21041 4.45351,-0.24684 6.367257,-0.19182 13.345668,0.26617 18.578348,0.29442 1.23123,0.007 3.23865,-0.0513 4.42972,-0.35688 4.30705,-1.1078 9.60962,-4.66168 12.28024,-6.68398 0.97992,-0.74275 1.51078,-0.43643 0.99851,0.68178 -2.05203,4.47805 -7.19848,7.8416 -12.16797,9.41408 -1.17397,0.37175 -3.13158,0.78439 -4.35165,0.95465 -7.93603,1.10706 -18.433375,-0.0699 -25.107693,0.17323 -1.231221,0.0446 -3.217086,0.26989 -4.436411,0.44386 a 247.44866,247.44866 0 0 0 -4.929345,0.7658 c -1.214864,0.2 -1.518952,-0.36654 -0.59628,-1.18215 z m 8.379887,4.08177 c 1.485495,-0.40744 3.144966,-0.69591 4.779159,-0.84982 1.226761,-0.11524 3.228982,-0.14795 4.453511,-0.0208 3.427494,0.35464 6.798478,1.50334 10.225978,1.94646 1.22155,0.15762 3.22303,0.18066 4.45053,0.0766 1.35836,-0.11524 2.84237,-0.31227 4.01932,-0.48625 1.21932,-0.17992 1.5933,0.45725 0.6394,1.23122 -1.55241,1.25799 -4.34422,2.8788 -8.75089,3.3249 -1.22527,0.12416 -3.22675,0.12862 -4.455742,0.0461 -5.760568,-0.38438 -12.420016,-2.22898 -15.602157,-3.47507 -1.110032,-0.4342 -0.945721,-1.46766 0.241634,-1.7933 z"
     id="path6"
     style="stroke-width:0.743491" /><rect
     width="36.799828"
     height="6.4170723"
     x="31.05529"
     y="126.66422"
     fill="#ffffff"
     rx="3.568013"
     transform="matrix(0.96061001,-0.2779,0.26849991,0.96327971,0,0)"
     id="rect8"
     style="stroke-width:0.743491" /></svg>
