<?xml version="1.0" encoding="UTF-8"?>
<svg version="1.1" viewBox="0 0 192 192" xmlns="http://www.w3.org/2000/svg">
 <circle class="a" cx="96" cy="96" r="88" style="fill:#fff"/>
 <g transform="matrix(.49137 0 0 .49137 56.167 62.573)">
  <g transform="translate(-22.812 -69.168)">
   <path d="m106.06 69.168c-20.995 0.0195-41.206 7.9759-56.58 22.274l14.058 15.972c-0.45414 0.29818-0.90113 0.6045-1.3451 0.91416 9.7533-6.825 21.369-10.486 33.273-10.486 18.163 9e-4 34.756 8.4409 45.517 22.037 8.3071-9.191 16.743-18.52 23.854-26.385-15.597-15.574-36.736-24.322-58.777-24.325z" style="fill:#f8c18c;stroke-linecap:round;stroke-width:.57997"/>
   <path d="m51.266 122.99 75.489 45.426-11.581 10.248z" style="fill:#728dbe;stroke-linecap:round;stroke-width:.52917"/>
   <path transform="rotate(-47.853)" d="m41.29 184.95-35.565 0.0207c-2.1421 12.891-8.6131 24.659-18.29 33.441-6.8339 6.182-15.042 10.649-23.945 13.029l6.2034 31.807c16.525-2.3011 31.966-9.4918 44.337-20.687 16.376-14.824 26.183-35.547 27.263-57.609z" style="fill:#ff837d"/>
   <path d="m49.493 91.451c-16.976 15.728-26.661 37.781-26.681 60.922 0.0037 16.814 5.1648 33.233 14.686 47.092l12.026-8.1611c-7.8295-10.147-12.138-22.6-12.147-35.416 0.01993-19.528 9.8493-37.747 26.173-48.465z" style="fill:#98dc9a"/>
  </g>
 </g>
</svg>
