<svg xmlns="http://www.w3.org/2000/svg" viewBox="0 0 176 127"><rect width="176" height="127" fill="#56595b" rx="10"/><path fill="#fff" d="M85.54 74.67a5.45 5.45 0 0 1-3.93-.64 5.21 5.21 0 0 1-2.42-3.86v-1a4.51 4.51 0 0 1 3.34-3.86q3.28 3.62 6.58 7.21a6.19 6.19 0 0 1-3.57 2.15Zm9.89-3a12.19 12.19 0 0 1 .47-2.94 4.64 4.64 0 0 1 2.21-3 3.14 3.14 0 0 1 .74-.15 3.07 3.07 0 0 1 .05-.68c-.07-.31 0-.63 0-1a11.22 11.22 0 0 1 0-1.42c0-.6-.05-1.2 0-1.79a1.73 1.73 0 0 1-.05-.45 8.16 8.16 0 0 0-4.19 1.13 8.3 8.3 0 0 0-3.83 5.17c-2.83-3.04-5.62-6.14-8.44-9.2a3.18 3.18 0 0 1-.75-2.51 3.23 3.23 0 0 1 1.67-2.33 3.12 3.12 0 0 1 4.27 1.53c1.58-.81 3.18-1.57 4.75-2.4a10.58 10.58 0 0 0-.91-1.47 8.41 8.41 0 1 0-12.69 11 10.05 10.05 0 0 0-3.47 3.42 9.89 9.89 0 0 0-1.4 5.36 10.45 10.45 0 0 0 8.29 9.9 11.68 11.68 0 0 0 4.25 0 11.9 11.9 0 0 0 6.32-3.4c.7.81 1.45 1.59 2.17 2.39h7.19c-2.22-2.42-4.43-4.86-6.65-7.29M63.34 64.08a5.6 5.6 0 0 1-3.46 1.66h-2.8V52.88a15 15 0 0 1 3.28.18 6 6 0 0 1 3.34 2 7 7 0 0 1-.36 9.02Zm7-7.56a11.45 11.45 0 0 0-4.22-6.6 12.07 12.07 0 0 0-7.19-2.31H52.5a1 1 0 0 0-1 1v29.3a1 1 0 0 0 1 1h3.58a1 1 0 0 0 1-1v-6.84a29.8 29.8 0 0 0 4-.12 10.59 10.59 0 0 0 5.84-2.81 12.26 12.26 0 0 0 3.68-7.72 13.07 13.07 0 0 0-.27-3.9M118.67 70.55a3.19 3.19 0 0 1-1.14 1.91 5.46 5.46 0 0 1-2.49 1 36.56 36.56 0 0 1-5.13.17V65.5h3.83a7.16 7.16 0 0 1 3.57 1 3.13 3.13 0 0 1 1.38 2.16 5.83 5.83 0 0 1-.02 1.89Zm-8.76-17.84a23.56 23.56 0 0 1 3.76.15 4 4 0 0 1 2.41 1.22 3.69 3.69 0 0 1 .74 2.47 3.5 3.5 0 0 1-1.06 2.69 4.79 4.79 0 0 1-2.89 1h-3Zm13.73 13a8 8 0 0 0-3.72-3.64V62a7.24 7.24 0 0 0 2.34-3.9 9 9 0 0 0 0-3.32 8.49 8.49 0 0 0-1.23-3 9.11 9.11 0 0 0-3.55-3.08 12.06 12.06 0 0 0-3.65-.9c-.75-.06-1.51-.12-2.27-.13h-6.26a1 1 0 0 0-1 1v29.3a1 1 0 0 0 1 1h9.67a11 11 0 0 0 6.86-3 8.51 8.51 0 0 0 2.61-5.12 9.46 9.46 0 0 0-.8-5.12"/></svg>