<svg xmlns="http://www.w3.org/2000/svg" xml:space="preserve" id="svg10" width="192" height="192" fill="none" version="1.1"><g id="g8426" transform="translate(8 8)"><path id="path2" fill="#DC505E" fill-rule="evenodd" d="M88.255 0C136.72 0 176 39.906 176 87.998c0 48.603-39.791 87.997-87.745 87.997C39.791 176.507 0 137.112 0 87.997 0 39.907 39.791 0 88.255 0Z" clip-rule="evenodd" style="fill:#ff837d;fill-opacity:1"/><g id="g610" transform="translate(17.982 16.779) scale(.79566)"><path id="path4" fill="#fff" fill-rule="evenodd" d="M155.084 57.3h1.021c-.511 2.559-1.531 4.094-3.061 5.629-2.041 1.023-4.081 1.534-7.653 1.534h-3.06c-11.224-.511-13.774 11.256-12.754 20.465 1.02 5.628 3.061 11.255 6.122 15.348 3.061 3.07 7.142 5.116 11.223 2.047 3.061-2.558 4.081-8.698 4.081-11.767 0-6.14-2.041-15.349-9.693-15.349-2.04 0-4.081 1.023-6.121 3.07-1.021 1.535-1.531 4.604-1.531 8.186h-1.53c-1.021-7.163 2.55-13.302 10.203-13.814 9.182 0 14.794 7.163 14.794 16.372s-5.612 17.906-14.794 17.906c-5.102 0-8.673-1.535-11.734-5.628-3.061-3.58-4.081-9.209-4.081-16.371 0-9.21 1.531-14.837 4.081-18.93 3.061-4.093 6.632-6.14 12.244-6.14h4.591c3.061.512 5.102 0 6.122-.51.51-.512 1.53-1.024 1.53-2.047z" clip-rule="evenodd"/><path id="path6" fill="#fff" fill-rule="evenodd" d="m90.806 72.65 11.223 25.068 10.203-23.022 1.02-2.047h8.673v1.023h-1.02c-1.021 0-2.551 1.024-2.551 2.558v26.604c0 1.535 1.02 2.558 2.551 2.558h1.02v.512h-11.733v-1.023h1.02c1.02 0 2.551-1.023 2.551-2.558V77.765l-12.754 28.139h-.51l-12.244-28.65v25.069c0 1.535 1.02 2.558 2.04 2.558h.511v1.023h-8.672v-1.023h1.02c1.02 0 2.55-1.023 2.55-2.558V76.23c0-1.534-.51-2.558-2.55-2.558-1.53 0-3.061 1.535-4.081 3.582l-11.734 26.092c-1.02 2.046-2.55 3.07-4.59 3.07l-2.552-.512-.51-3.581c1.02 1.023 2.04 1.535 2.55 1.535 1.531.511 2.552 0 3.062-1.024l1.53-3.07-10.713-21.999c-1.02-2.046-2.04-3.581-3.57-3.581v-1.023h10.712v1.023h-1.02c-1.02 0-1.02 1.535-.51 2.558l8.162 17.395 7.652-16.372c1.02-1.535 0-3.07-1.02-3.07v-1.023h14.284z" clip-rule="evenodd"/><path id="path8" fill="#fff" fill-rule="evenodd" d="M42.342 95.16V75.207H27.038v28.139c0 1.535 1.02 2.558 2.04 2.558h1.02H18.875v-1.023h.51c1.02 0 2.041-1.023 2.041-2.558V75.719c0-1.535-1.02-2.558-2.04-2.558h-.51v-1.023h31.628v1.023h-.51c-1.02 0-2.04 1.023-2.04 2.558v26.604c0 1.535 1.02 2.558 2.04 2.558h1.02v1.023H39.281v-1.023h1.02c1.02 0 2.04-1.023 2.04-2.558z" clip-rule="evenodd"/></g></g><style id="style853" type="text/css">.st0{fill:#fff}</style><g id="g630" style="fill:none" transform="translate(3.756 -194.521)"><path id="path612" fill="#dc505e" fill-rule="evenodd" d="M88.255 0C136.72 0 176 39.906 176 87.998c0 48.603-39.791 87.997-87.745 87.997C39.791 176.507 0 137.112 0 87.997 0 39.907 39.791 0 88.255 0Z" clip-rule="evenodd"/><path id="path614" fill="#fff" fill-rule="evenodd" d="M155.084 57.3h1.021c-.511 2.559-1.531 4.094-3.061 5.629-2.041 1.023-4.081 1.534-7.653 1.534h-3.06c-11.224-.511-13.774 11.256-12.754 20.465 1.02 5.628 3.061 11.255 6.122 15.348 3.061 3.07 7.142 5.116 11.223 2.047 3.061-2.558 4.081-8.698 4.081-11.767 0-6.14-2.041-15.349-9.693-15.349-2.04 0-4.081 1.023-6.121 3.07-1.021 1.535-1.531 4.604-1.531 8.186h-1.53c-1.021-7.163 2.55-13.302 10.203-13.814 9.182 0 14.794 7.163 14.794 16.372s-5.612 17.906-14.794 17.906c-5.102 0-8.673-1.535-11.734-5.628-3.061-3.58-4.081-9.209-4.081-16.371 0-9.21 1.531-14.837 4.081-18.93 3.061-4.093 6.632-6.14 12.244-6.14h4.591c3.061.512 5.102 0 6.122-.51.51-.512 1.53-1.024 1.53-2.047z" clip-rule="evenodd"/><path id="path616" fill="#fff" fill-rule="evenodd" d="m90.806 72.65 11.223 25.068 10.203-23.022 1.02-2.047h8.673v1.023h-1.02c-1.021 0-2.551 1.024-2.551 2.558v26.604c0 1.535 1.02 2.558 2.551 2.558h1.02v.512h-11.733v-1.023h1.02c1.02 0 2.551-1.023 2.551-2.558V77.765l-12.754 28.139h-.51l-12.244-28.65v25.069c0 1.535 1.02 2.558 2.04 2.558h.511v1.023h-8.672v-1.023h1.02c1.02 0 2.55-1.023 2.55-2.558V76.23c0-1.534-.51-2.558-2.55-2.558-1.53 0-3.061 1.535-4.081 3.582l-11.734 26.092c-1.02 2.046-2.55 3.07-4.59 3.07l-2.552-.512-.51-3.581c1.02 1.023 2.04 1.535 2.55 1.535 1.531.511 2.552 0 3.062-1.024l1.53-3.07-10.713-21.999c-1.02-2.046-2.04-3.581-3.57-3.581v-1.023h10.712v1.023h-1.02c-1.02 0-1.02 1.535-.51 2.558l8.162 17.395 7.652-16.372c1.02-1.535 0-3.07-1.02-3.07v-1.023h14.284z" clip-rule="evenodd"/><path id="path618" fill="#fff" fill-rule="evenodd" d="M42.342 95.16V75.207H27.038v28.139c0 1.535 1.02 2.558 2.04 2.558h1.02H18.875v-1.023h.51c1.02 0 2.041-1.023 2.041-2.558V75.719c0-1.535-1.02-2.558-2.04-2.558h-.51v-1.023h31.628v1.023h-.51c-1.02 0-2.04 1.023-2.04 2.558v26.604c0 1.535 1.02 2.558 2.04 2.558h1.02v1.023H39.281v-1.023h1.02c1.02 0 2.04-1.023 2.04-2.558z" clip-rule="evenodd"/></g></svg>