<svg xmlns="http://www.w3.org/2000/svg" viewBox="0 0 192 192"><path fill="#56595b" d="M159.33 58.74a5.26 5.26 0 0 1-.33 2.34 9.84 9.84 0 0 1-4.67 5 1.94 1.94 0 0 0-.67.42 3.59 3.59 0 0 0 1 .39 10.47 10.47 0 0 1 3.47 1.68 3.94 3.94 0 0 1 .8 1.11c.59 1.31.27 4-.75 6.45-.93 2.23-2.16 3.09-5 3.52l-1 .14.93 1c1.76 1.85 2.43 3.17 2.51 5.09a5.71 5.71 0 0 1-3.35 5.85 9 9 0 0 1-3.8.89 13.33 13.33 0 0 0-1.64.19 2.61 2.61 0 0 0 .13.7c.11.36.38 1.33.64 2.15a11.14 11.14 0 0 1 .59 4.4c-.41 2.16-2.07 3.34-5.62 4a16.64 16.64 0 0 1-6.37-.07l-.67-.19s-.06.77-.1 1.68a5.92 5.92 0 0 1-1 3.62c-.86 1.2-2 1.64-4 1.52a13.7 13.7 0 0 1-3.51-.77c-.18-.06-.22.07-.27.81-.15 2.28-2.29 4.66-5 5.61a7.52 7.52 0 0 1-5.95-1.11 14.94 14.94 0 0 1-1.82-1.5 14.91 14.91 0 0 0-1.51-1.28l-.38-.26-.44 1a6.73 6.73 0 0 1-4.51 3.56 6.46 6.46 0 0 1-4.65-.94c-1.07-.66-1.39-.84-1.45-.77a17.94 17.94 0 0 0-.43 1.86 21.38 21.38 0 0 1-.62 2.52 5.6 5.6 0 0 1-2 2.42c-.6.41-.65.48-.59.82 0 .19.32 2.81.63 5.8.67 6.3.93 8.49 1 8.62s.54-.48 1.08-1.17q6.75-8.66 12.52-12.48a30.11 30.11 0 0 1 8.84-3.83 12.24 12.24 0 0 1 3.87-.28c3.71 0 5.22.3 7.54 1.41 2.07 1 4.34 2.91 7.36 6.24 3.41 3.75 4.78 5.57 6 8 4 8 2.14 17.05-4.35 21.33-2.6 1.72-5.11 2.11-7.45 1.18a5.17 5.17 0 0 1-2-1.25c0-.08.32-.25.73-.37a39 39 0 0 0 4.65-2c2.08-1.09 2.85-2 2.85-3.33 0-1-.44-1.84-1.76-3.15a6.91 6.91 0 0 0-2.12-1.6 5.78 5.78 0 0 0-5.13-.24 10.57 10.57 0 0 0-3.9 2.64c-2 1.93-3 3.17-5.35 7.19-2.64 4.43-4 5.94-5.82 6.4-1.31.34-2.1 0-3.32-1.22-.93-1-.77-1.05-1.84.93a26.41 26.41 0 0 1-2.15 3.59c-.95 1-1.82.73-3-1a29.14 29.14 0 0 1-1.81-3.59l-.23-.55-.22.29c-.14.18-.83 1.39-1.56 2.7-2.23 4.05-3 4.83-4.16 4.23a6.9 6.9 0 0 1-2-2.35 8.81 8.81 0 0 0-.64-1 2.14 2.14 0 0 0-.37.85c-1.27 4-3.74 5.92-7.87 6.25-2.75.23-7.09-.8-11.08-2.59a12.89 12.89 0 0 1-6.09-4.9c-1.47-2.09-1.89-2.4-3.72-2.73a34.7 34.7 0 0 0-7.11-.18c-1.64.36-2.9 1.41-2.9 2.4s1.63 1.95 4.42 2.89c2.1.71 2.56 1 2.56 1.53s-.86 1.23-1.66 1.48a12.7 12.7 0 0 1-2.7.26 8.46 8.46 0 0 1-5.11-1 7.62 7.62 0 0 1-2.64-2 7.66 7.66 0 0 1-2-2.74c-1.07-2.18-1.1-2.43-1-7.75l.06-4.52.47-1.8a26.84 26.84 0 0 1 1.86-5.31 25.6 25.6 0 0 1 6.75-8.63A35.72 35.72 0 0 1 73.67 128a27.06 27.06 0 0 1 7.41.2 38.54 38.54 0 0 1 7.68 2.67c2.41 1.05 2.66 1.14 2.7.92s-.27-3-.82-6.76l-.34-2.37-1-.76a9.3 9.3 0 0 1-2.81-3.45 17.35 17.35 0 0 1-1.73-7.36 15 15 0 0 0-.15-2 15.79 15.79 0 0 0-.67 2 31.21 31.21 0 0 1-1.86 5.46 7.85 7.85 0 0 1-4.41 4.06 14.48 14.48 0 0 1-5.89-.07c-3.6-.91-4.25-1.64-4.47-5.08a6.53 6.53 0 0 0-.22-1.61 4.06 4.06 0 0 0-1.67.19 15.52 15.52 0 0 1-5 .35 13.67 13.67 0 0 1-4.75-1.53 9.79 9.79 0 0 1-3-2.94 8.9 8.9 0 0 1-.27-6.14c.17-.72.34-1.62.4-2l.07-.7-2.27-.08a63.54 63.54 0 0 1-7-.53c-2.11-.43-3.29-1.75-3.89-4.42a28.43 28.43 0 0 1-.18-6.17 6.66 6.66 0 0 1 1.74-3.72 8.34 8.34 0 0 0 .89-1.2c0-.19-.61-.55-3.43-2-3.75-2-4.2-2.38-5.15-4.3-1.76-3.49-.86-7.22 2.22-9.22a13 13 0 0 1 5.64-1.76 1.22 1.22 0 0 0 .64-.11 10.5 10.5 0 0 0-.78-1.89A25.09 25.09 0 0 1 39.39 61c-1.15-4.42 0-7.82 2.91-8.69a8.87 8.87 0 0 1 5 .2 5.88 5.88 0 0 0 1.15.21 4.28 4.28 0 0 0-.43-1.44 10.24 10.24 0 0 1-.9-4.94 4.4 4.4 0 0 1 .46-2.51c1.08-2.24 3.84-4 7-4.45 1.92-.27 3.4.26 6.26 2.23a15.29 15.29 0 0 0 1.58 1s.1-1.18.18-2.59.21-3 .28-3.46c.73-5.23 3.48-7.74 7.66-7 .41.06 1.45.32 2.31.55 1.64.44 2.16.52 2.29.31a7.68 7.68 0 0 0 .32-1 7.07 7.07 0 0 1 3.75-4.56 6.65 6.65 0 0 1 5.38-.46 4.8 4.8 0 0 1 2.64 2.14l.62.95.63-.73a28.67 28.67 0 0 1 3.85-3.8 7.89 7.89 0 0 1 2.69-1.49 2.88 2.88 0 0 1 1.9-.1c1.19.25 2 .78 4.06 2.79 3.91 3.75 4 3.78 6.54 2a14.77 14.77 0 0 1 4.27-2.16 17 17 0 0 1 5.21-.1 8.47 8.47 0 0 1 5.61 4.87 17.47 17.47 0 0 1 .75 2.31c.28 1.17.37 1.37.58 1.41a9.59 9.59 0 0 0 1.61-.23 21.6 21.6 0 0 1 4.49-.33l3.13-.07 1 .53a3.83 3.83 0 0 1 2.12 2.19 8.44 8.44 0 0 1 .2 5 3.3 3.3 0 0 0-.13.81s1.57.09 3.4.14c3.3.09 3.35.1 4.36.48 2.41.89 3.39 2.15 3.49 4.5a11.92 11.92 0 0 1-.14 2.44 7.82 7.82 0 0 0-.14 1.29 3.07 3.07 0 0 0 .84-.17c2.85-.79 5.29 0 7.94 2.68a10.78 10.78 0 0 1 2.9 4.61 7 7 0 0 1 .32 2.38Zm-1.58 2.67c1.26-2.59.45-6-2.05-8.78a9.87 9.87 0 0 0-4.63-2.78 7.62 7.62 0 0 0-1.11-.14 7.83 7.83 0 0 0-3.26 1.22c-.8.54-3.69 3.08-6.23 5.48l-1.06 1 .44.75A28.42 28.42 0 0 1 143 66l.21.91h.53c.27 0 1.46-.06 2.63-.13 3.56-.2 5.49-.64 7.59-1.72a9.71 9.71 0 0 0 3.79-3.65ZM156 77.6c1.6-1.41 2.79-6.13 1.89-7.6-.49-.82-1.72-1.56-3.58-2.15a7.44 7.44 0 0 0-2.68-.39 15.12 15.12 0 0 0-2.55.13c-.51.09-1.62.2-2.44.26s-1.91.1-2.38.13l-.91.07v1.82c0 1.73-.14 4-.32 5.52l-.09.68.87.36a49.77 49.77 0 0 0 6.92 2.19c1.78.25 4.37-.25 5.27-1.02Zm-1.9 11.09c.37-.66.37-.67.33-2.47a5 5 0 0 0-.34-2.47 11.9 11.9 0 0 0-2.44-3.08l-.8-.77-4-1.33c-2.2-.72-4.06-1.32-4.13-1.32A8.67 8.67 0 0 0 142 79a44.83 44.83 0 0 1-3.39 7.53 5.08 5.08 0 0 0-.29.53 37.11 37.11 0 0 0 5 3l2.92 1.64 1.55-.11a11.37 11.37 0 0 0 3.94-.68 5.9 5.9 0 0 0 2.37-2.22Zm-7.1 58.19a31.85 31.85 0 0 0 .06-6.79c-.62-3.88-3.48-8.41-8.72-13.78-2.5-2.58-4.13-3.89-5.92-4.75a10.43 10.43 0 0 0-3.93-1.19 30.67 30.67 0 0 0-6.77.12c-6.19 1.31-12.57 5.82-18.43 13-.89 1.1-3.26 4.22-3.82 5l-.27.42.5 1.18a8.24 8.24 0 0 1 .5 1.37c0 .27.31.22.59-.1.14-.15.89-1.17 1.66-2.26 4.46-6.25 6.77-8.1 12.87-10.24a17.14 17.14 0 0 1 5.9-1.13c2.06-.08 3.46 0 3 .2a17.52 17.52 0 0 1-2.11.26 23.15 23.15 0 0 0-9.13 2.49 17.56 17.56 0 0 0-5.45 3.79 28.7 28.7 0 0 0-4 5.12c-.71 1-1.54 2.19-1.85 2.6l-.56.72.29.78c.82 2.21 1.81 5.18 2.18 6.62s.61 2.58 1.49 7.32a15.06 15.06 0 0 0 1.52 4.61c.57 1.09 1.43 2.21 1.71 2.21s.69-.56 1.63-2.37c1.69-3.16 2.15-3.86 2.6-3.86a4.54 4.54 0 0 1 1.26 1.07 7.72 7.72 0 0 0 1.34 1.24 2.47 2.47 0 0 0 1.94-.05c1.1-.56 2.35-2.18 5-6.61a28.35 28.35 0 0 1 4.07-5.65 14.7 14.7 0 0 1 5.74-4 9.72 9.72 0 0 1 4.36 0 11.5 11.5 0 0 1 5.11 4.48 3.11 3.11 0 0 1 .42 1.74 3.3 3.3 0 0 1-1.36 2.8 13.24 13.24 0 0 1-3.91 2.34 4.14 4.14 0 0 0-1.45.81c0 .13.28.22.87.32 2.36.41 5-.68 7.35-3a14.19 14.19 0 0 0 3.72-6.83Zm0-46.39c.45-1.19-.08-4.21-1.23-7.09l-.4-1-1.56-.86c-.86-.46-2.36-1.33-3.36-1.92s-2-1.16-2.2-1.28l-.38-.24-.68.77c-.37.44-1.09 1.29-1.6 1.91s-2 2.2-3.33 3.53a21.64 21.64 0 0 0-2.41 2.63c0 .58 4.47 5.21 5.44 5.63a10.82 10.82 0 0 0 6.18.55c3.21-.43 5.03-1.29 5.53-2.63Zm-.4-54.76c0-1.21 0-1.35-.32-1.89a4.38 4.38 0 0 0-3-2 38.08 38.08 0 0 0-6.28-.24 4.34 4.34 0 0 0-1.26.29 61.85 61.85 0 0 0-4.86 5.11c-.18.28-.13.35 1.73 2.33 2 2.15 4 4.47 5.33 6.18l.8 1 2.87-2.63c4.27-3.89 4.42-4 4.56-4.55a15.57 15.57 0 0 0 .44-3.6ZM142 74.58a21.77 21.77 0 0 0 .22-4.25 17.15 17.15 0 0 0-.92-6.69c-1.36-4-6-10.46-10.59-14.62-.65-.58-1.63-1.5-2.18-2a43.19 43.19 0 0 0-10.15-7 40.41 40.41 0 0 0-13.85-4.2 75.55 75.55 0 0 0-9.09-.18 34.74 34.74 0 0 0-9.67 2A61.35 61.35 0 0 0 70 47.42a92.56 92.56 0 0 0-7.81 7.67C57 61 53.56 66.88 52.2 72a13.47 13.47 0 0 0-.43 4.07c-.09 3.71.24 5.33 1.6 8.09A24 24 0 0 0 58.54 91a34.93 34.93 0 0 0 5.15 4.15 54.62 54.62 0 0 0 27.18 9.48 66.24 66.24 0 0 0 24.54-2.18 43.5 43.5 0 0 0 14.13-7.07A35.08 35.08 0 0 0 142 74.58Zm-6.79-34.3a13 13 0 0 0 .44-4.05 4.25 4.25 0 0 0-.32-1.31 5.46 5.46 0 0 0-1.77-1.74c-.37-.19-.81-.23-3.1-.25a13.74 13.74 0 0 0-4.31.32c-2.86.63-2.63.51-3.11 1.61a48.69 48.69 0 0 0-2 4.82c0 .35 0 .43 1.16 1.18 2 1.36 4.52 3.16 6 4.35a10.33 10.33 0 0 0 1.58 1.14 52.44 52.44 0 0 0 4.23-4.42 11.93 11.93 0 0 0 1.23-1.65Zm-2.43 69c1.16-.78 1.57-1.88 1.55-4.12v-1.59l-2.09-2.2c-1.14-1.21-2.41-2.62-2.82-3.12s-.72-.88-.75-.88-.25.15-.52.32c-1.11.74-2.7 1.67-4.29 2.53-.93.5-1.84 1-2 1.15s-.35.24-.13.63a39.15 39.15 0 0 0 4.27 5.79 6.8 6.8 0 0 0 5 1.84c1.22-.04 1.32-.07 1.81-.39Zm-7.29 2.41a4.12 4.12 0 0 0-.11-2.56c-.14-.27-.94-1.43-1.79-2.56s-1.93-2.66-2.41-3.39a9.61 9.61 0 0 0-.94-1.32s-.56.19-1.18.43c-1 .4-3.92 1.32-5.82 1.86l-.73.19V111l.9.78c.48.44 1.29 1.16 1.78 1.62a7.68 7.68 0 0 0 4.92 2.1 3.17 3.17 0 0 0 1.89-.5 6.9 6.9 0 0 0 3.52-3.35ZM121.43 36c1-2.39 1.24-3.11 1.07-4a13.85 13.85 0 0 0-1.29-3.75 7.27 7.27 0 0 0-4.74-3.36A8.12 8.12 0 0 0 112 25a10.76 10.76 0 0 0-3.77 1.83 14.29 14.29 0 0 1-1.86 1.17l-.87.43-.14.75c-.09.41-.27 1.68-.41 2.81s-.28 2.19-.32 2.38 0 .31 1.34.53a52.23 52.23 0 0 1 12.48 3.87 6.55 6.55 0 0 0 1.21.45c.26.03.65-.69 1.77-3.22Zm-10.3 75.16c.51-2 .68-5.84.27-6.33-.17-.2-.46-.19-1.85 0a86.07 86.07 0 0 1-8.85 1h-.61v.84c0 .47.06 1.52.13 2.34.3 3.56 1 4.86 3.26 6a3.76 3.76 0 0 0 2.46.54 3.31 3.31 0 0 0 2.12-.41 5.93 5.93 0 0 0 2.45-2.25 10.66 10.66 0 0 0 .62-1.73Zm-6.85-82.27c.06-.57.06-.58-.54-1-.33-.24-1.39-1.18-2.35-2.1-2.47-2.33-3.34-3.06-3.82-3.21a4.16 4.16 0 0 0-3.43.4c-2 1.07-5.77 5.1-5.77 6.2 0 .43 1.07 5.95 1.17 6a4.86 4.86 0 0 0 1.22-.14 60.42 60.42 0 0 1 8.55-.56c3.24-.06 4.17-.11 4.25-.23a22.85 22.85 0 0 0 .37-2.49c.16-1.26.3-2.56.35-2.87Zm-.45 129.26-.19-1.6a52.47 52.47 0 0 0-2.4-10.57c-.9-2.74-1.26-3.65-1.56-3.91a3.4 3.4 0 0 0-1.09-.28c-1.15-.14-2.25-.62-4.67-2-7.07-4-9.22-4.89-14-5.6a25 25 0 0 0-6.75-.2c-2.7.4-4.88 1.34-8.68 3.68a24.63 24.63 0 0 1-2.25 1.33 21.44 21.44 0 0 1 3.07-2.38 23.51 23.51 0 0 1 7.23-3.07c1.09-.27 1.45-.3 4.49-.3a18.93 18.93 0 0 1 6.73.77 36.23 36.23 0 0 1 9.57 4.26 23 23 0 0 0 4.86 2.42c.47.14.64.16.64 0a67.15 67.15 0 0 0-6.27-6.86 54.46 54.46 0 0 0-9.49-4.12c-.6-.18-1.68-.43-2.36-.55a29.91 29.91 0 0 0-6.35-.27c-3.47.31-8.88 2.3-12.82 4.7a28.15 28.15 0 0 0-6.85 5.9 25.75 25.75 0 0 0-4.91 10.5c-.32 1.43-.34 1.74-.39 5.41 0 2.36 0 4.22.08 4.72a8.81 8.81 0 0 0 .9 2.41 7 7 0 0 0 1.91 2.69 8.11 8.11 0 0 0 5.53 2.77c1.74.18 4-.11 4.39-.56.08-.12.13-.22.11-.23s-.69-.25-1.48-.5a14.67 14.67 0 0 1-4.2-2 2.93 2.93 0 0 1-1-2c0-1.55 1.84-3.07 4.11-3.43a29.09 29.09 0 0 1 8.09.54c1.39.42 1.88.84 3.34 2.91a9.28 9.28 0 0 0 3.06 3.1 28 28 0 0 0 10.22 3.8 16.83 16.83 0 0 0 4.51-.05c2.85-.6 4.75-2.6 5.62-5.88.4-1.49.6-1.91.92-1.91s.56.35 1.76 2.31c.91 1.49 1.46 2.18 1.74 2.18.44 0 1.22-1.26 3.66-5.82Zm-3.74-44.61-.38-1.36a19.54 19.54 0 0 1-.62-4.89 3.67 3.67 0 0 0-.11-1.1c-.07-.12-1-.19-3.21-.28a74.85 74.85 0 0 1-7.52-.5c-1.06-.13-2.09-.29-2.27-.32-.36-.08-.36-.07-.36.6 0 .36.07 1.87.13 3.33.25 5.18.45 6.39 1.49 8.54a8.33 8.33 0 0 0 3.34 4 1.87 1.87 0 0 1 .29.2 16.23 16.23 0 0 0 2.61.44 10.58 10.58 0 0 0 1.87-.42c.69-.21 1.28-.41 1.28-.41l.25-.14a5.23 5.23 0 0 0 2-1.82 14.44 14.44 0 0 0 .94-3.87Zm-2.16 23.68c0-.06-.06-1.05-.2-2.18s-.49-4.18-.76-6.82c-.24-2.25-.47-4.4-.58-5.28a21.14 21.14 0 0 1-2.65.57 17.29 17.29 0 0 1-2.31-.19c.15.87.34 2.16.56 3.84l.66 4.86.72.8a40.91 40.91 0 0 0 4.56 4.4ZM87.27 36c1.07-.35 1.21-.44 1.16-.66s-.24-1.34-.5-2.64c-1-5.4-1.44-6.35-3.15-7.21a4.18 4.18 0 0 0-1.78-.35 5 5 0 0 0-3.11.52 6.75 6.75 0 0 0-2.91 2.88c-.61 1.28-.58 2 .28 4.51a44.23 44.23 0 0 0 2.15 5.47.93.93 0 0 0 .51.45 7.81 7.81 0 0 0 1.85-.67c2.82-1.3 4.23-1.87 5.5-2.3Zm-3.07 70.69a4 4 0 0 0 .34-1.67 22.82 22.82 0 0 0-2.29-.68c-1.19-.29-2.93-.77-3.86-1s-2.49-.77-3.46-1.1l-1.76-.62-.45 1c-.69 1.48-3.51 7.81-4 9l-.45 1.06.09 2.12c.1 3.2.21 3.45 1.71 4.2a10.9 10.9 0 0 0 5.34.95c1.76 0 1.84-.06 2.63-.44a6.51 6.51 0 0 0 1.77-1.4c1.39-1.46 1.73-2.2 3.08-6.86.46-1.71 1.05-3.72 1.31-4.56Zm-6.76-66a5.08 5.08 0 0 0 1.28-1c0-.08-.28-.68-.57-1.32s-.86-2.09-1.26-3.18c-1-2.8-1.25-3.3-1.39-3.38s-1.07-.34-2.25-.64a13 13 0 0 0-3.82-.61c-1.62-.05-1.71 0-2.3.28A5.19 5.19 0 0 0 65 33.11c-.9 1.71-1.05 2.6-1.27 6.92l-.17 3.26 1.86 2.33a25 25 0 0 0 2 2.35A28.27 28.27 0 0 0 70 46a83.74 83.74 0 0 1 7.44-5.34ZM72 101.35c.06-.23-.15-.37-1.72-1.17a63.13 63.13 0 0 1-6.9-4c-1.15-.78-2.15-1.45-2.23-1.49a4.56 4.56 0 0 0-1.15.91c-.59.55-2.15 1.89-3.5 3l-2.44 2-.16 1.13c-.08.63-.31 1.7-.48 2.39a9.54 9.54 0 0 0-.33 2.69 3.82 3.82 0 0 0 .46 2.41c1.13 2.36 3.74 3.81 7.5 4.2a13.69 13.69 0 0 0 5-.54c1-.28 1-.3 1.32-.91.38-.79 4.53-10.23 4.63-10.62Zm-7-50.84a12.83 12.83 0 0 0 1.46-1.77c0-.45-2.84-3.84-4-4.75a42.13 42.13 0 0 0-4.14-2.89l-.92-.54h-1.76a7 7 0 0 0-4.19.86 5.76 5.76 0 0 0-2.81 2.69l-.47 1v1.69a7.12 7.12 0 0 0 .36 2.8 12.06 12.06 0 0 0 2.22 4.38c1.45 1.55 6.28 5.37 6.62 5.25.08 0 .86-.92 1.74-2 1.57-1.98 3.11-3.71 5.89-6.72Zm-5.52 44.2.81-.74-.44-.35A51.23 51.23 0 0 1 55 88.56c-.59-.75-1.42-1.94-1.87-2.67s-.87-1.41-1-1.5-.23-.18-.59 0a47.7 47.7 0 0 1-5.88.87c-2.61.3-2.4.19-3.55 1.62-1.5 1.87-1.79 2.92-1.68 6.18a10.23 10.23 0 0 0 .86 4.54c1 1.85 1.86 2.1 8.58 2.37l3.15.13.52-.4c1.38-1.14 5.2-4.33 5.92-4.99Zm-2.93-34.24c.17-.25.13-.3-.86-1-.56-.47-1.69-1.42-2.59-2.13-3.26-2.72-4.32-3.38-6.26-3.93a6.47 6.47 0 0 0-5 .2 3.73 3.73 0 0 0-1.53 1.8A3.86 3.86 0 0 0 40 57.6a9.8 9.8 0 0 0 .32 2.85 24.79 24.79 0 0 0 2.07 5.18 6 6 0 0 0 3.3 3 59.4 59.4 0 0 0 5.45 2.51 4.68 4.68 0 0 0 .75-1.6 53.86 53.86 0 0 1 4.66-9.07Zm-5.09 22.88c.21-.09.27-.18.22-.33a30.93 30.93 0 0 1-.93-3.94 23.81 23.81 0 0 1 .16-6.27c.05-.36 0-.44-.37-.66s-5.66-2.73-6.72-3.15a3.58 3.58 0 0 0-2.36-.32c-3.46.32-6.12 1.74-7.22 3.82a3.38 3.38 0 0 0-.45 2.27 6.33 6.33 0 0 0 .69 3.43c.85 1.69 1.27 2 5.29 4.15A29.74 29.74 0 0 1 42.6 84l.66.5 2.74-.33a43.44 43.44 0 0 0 5.46-.82Z"/><path fill="#f9de81" d="M155.7 52.63c2.5 2.74 3.31 6.19 2.05 8.78a9.71 9.71 0 0 1-3.75 3.65c-2.1 1.08-4 1.52-7.59 1.72-1.17.07-2.36.13-2.63.13h-.53L143 66a28.42 28.42 0 0 0-3.16-7.86l-.44-.75 1.06-1c2.54-2.4 5.43-4.94 6.23-5.48a7.83 7.83 0 0 1 3.31-1.2 7.62 7.62 0 0 1 1.11.14 9.87 9.87 0 0 1 4.59 2.78ZM157.87 70c.9 1.47-.29 6.19-1.89 7.6-.88.77-3.47 1.27-5.27 1a49.77 49.77 0 0 1-6.92-2.19l-.87-.36.09-.68c.18-1.53.3-3.79.32-5.52v-1.8l.91-.07c.47 0 1.56-.1 2.38-.13s1.93-.17 2.44-.26a15.12 15.12 0 0 1 2.55-.13 7.44 7.44 0 0 1 2.68.39c1.86.59 3.09 1.33 3.58 2.15ZM154.43 86.22c0 1.8 0 1.81-.33 2.47a5.9 5.9 0 0 1-2.36 2.2 11.37 11.37 0 0 1-3.94.68l-1.55.11-2.92-1.68a37.11 37.11 0 0 1-5-3 5.08 5.08 0 0 1 .29-.53A44.83 44.83 0 0 0 142 79a8.67 8.67 0 0 1 .7-1.71c.07 0 1.93.6 4.13 1.32l4 1.33.8.77a11.9 11.9 0 0 1 2.44 3.08 5 5 0 0 1 .36 2.43Z"/><path fill="#98dc9a" d="M147.06 140.09a31.85 31.85 0 0 1-.06 6.79 14.19 14.19 0 0 1-3.75 6.81c-2.33 2.34-5 3.43-7.35 3-.59-.1-.87-.19-.87-.32a4.14 4.14 0 0 1 1.45-.81 13.24 13.24 0 0 0 3.91-2.34 3.3 3.3 0 0 0 1.36-2.8 3.11 3.11 0 0 0-.42-1.74 11.5 11.5 0 0 0-5.11-4.48 9.72 9.72 0 0 0-4.36 0 14.7 14.7 0 0 0-5.74 4 28.35 28.35 0 0 0-4.07 5.65c-2.7 4.43-4 6-5 6.61a2.47 2.47 0 0 1-1.94.05 7.72 7.72 0 0 1-1.34-1.24 4.54 4.54 0 0 0-1.26-1.07c-.45 0-.91.7-2.6 3.86-.94 1.81-1.33 2.37-1.63 2.37s-1.14-1.12-1.71-2.21a15.06 15.06 0 0 1-1.52-4.61c-.88-4.74-1.1-5.83-1.49-7.32s-1.36-4.41-2.18-6.62l-.29-.78.56-.72c.31-.41 1.14-1.58 1.85-2.6a28.7 28.7 0 0 1 4-5.12 17.56 17.56 0 0 1 5.45-3.79 23.15 23.15 0 0 1 9.13-2.49 17.52 17.52 0 0 0 2.11-.26c.5-.18-.9-.28-3-.2a17.14 17.14 0 0 0-5.9 1.13c-6.1 2.14-8.41 4-12.87 10.24-.77 1.09-1.52 2.11-1.66 2.26-.28.32-.59.37-.59.1a8.24 8.24 0 0 0-.5-1.37l-.5-1.18.27-.42c.56-.78 2.93-3.9 3.82-5 5.86-7.21 12.24-11.72 18.43-13a30.67 30.67 0 0 1 6.77-.12 10.43 10.43 0 0 1 3.93 1.19c1.79.86 3.42 2.17 5.92 4.75 5.27 5.39 8.13 9.92 8.75 13.8Z"/><path fill="#f9de81" d="M145.78 93.4c1.15 2.88 1.68 5.9 1.23 7.09-.51 1.34-2.33 2.2-5.53 2.62a10.82 10.82 0 0 1-6.18-.55c-1-.42-5.44-5-5.44-5.63a21.64 21.64 0 0 1 2.41-2.63c1.31-1.33 2.81-2.92 3.33-3.53s1.23-1.47 1.6-1.91l.68-.77.38.24c.22.12 1.2.71 2.2 1.28s2.5 1.46 3.36 1.92l1.56.86ZM146.29 43.84c.31.54.33.68.32 1.89a15.57 15.57 0 0 1-.44 3.64c-.14.51-.29.66-4.56 4.55l-2.87 2.63-.8-1c-1.32-1.71-3.33-4-5.33-6.18-1.86-2-1.91-2.05-1.73-2.33a61.85 61.85 0 0 1 4.89-5.13 4.34 4.34 0 0 1 1.23-.31 38.08 38.08 0 0 1 6.27.21 4.38 4.38 0 0 1 3.02 2.03Z"/><path fill="#d3b69a" d="M142.25 70.33a21.77 21.77 0 0 1-.22 4.25 35.08 35.08 0 0 1-12.49 20.76 43.5 43.5 0 0 1-14.13 7.07 66.24 66.24 0 0 1-24.54 2.18 54.62 54.62 0 0 1-27.18-9.48A34.93 34.93 0 0 1 58.54 91a24 24 0 0 1-5.17-6.8c-1.36-2.76-1.69-4.38-1.6-8.09A13.47 13.47 0 0 1 52.2 72c1.36-5.12 4.81-11 10-16.91a92.56 92.56 0 0 1 7.8-7.67 61.35 61.35 0 0 1 15.8-9.82 34.74 34.74 0 0 1 9.67-2 75.55 75.55 0 0 1 9.09.18A40.41 40.41 0 0 1 118.41 40a43.19 43.19 0 0 1 10.15 7c.55.54 1.53 1.46 2.18 2 4.6 4.16 9.23 10.57 10.59 14.62a17.15 17.15 0 0 1 .92 6.71Zm-9.6 8.85-.08-.48a10.9 10.9 0 0 0-1.22-2.7c-.53-.72-2.19-1.58-2.41-1.23-.05.07.2.43.54.79a5.2 5.2 0 0 1 .64.76s-.67.57-1.46 1.23c-7.16 5.64-14.35 8.31-24.91 9.21a92.49 92.49 0 0 1-11.4-.07A84.46 84.46 0 0 1 74.08 83c-2.09-.63-2-.57-2-1.7v-.62l-.54.62a5.62 5.62 0 0 0-.76 1 3.34 3.34 0 0 0-.06 1.92c.14.18.33 0 .82-.66.14-.21.28-.18 2.44.47a93.66 93.66 0 0 0 17.81 3.64 97.06 97.06 0 0 0 13.21 0c9.88-1 17.18-3.78 24.1-9.17a14.78 14.78 0 0 1 1.77-1.26c.08 0 .25.19.4.4a6.41 6.41 0 0 0 .84 1Zm-10.57-10.89a24.05 24.05 0 0 0 .43-7.48c-.29-2.66-.92-4.21-2.3-5.57a4.54 4.54 0 0 0-3.06-1.5 2.17 2.17 0 0 0-1.3.24 4.81 4.81 0 0 0-2 2.25c-.9 1.87-1.15 3.2-1.15 6.34a14.89 14.89 0 0 0 1.3 7c2.07 4.21 5.49 4.5 7.35.62a12.39 12.39 0 0 0 .73-1.9Zm-32.52-3.75c0-2.86 0-3.29-.28-4.26-.85-3.33-2.39-5.6-4.16-6.14a3 3 0 0 0-2.18-.07c-2.14.68-3.43 2.62-3.81 5.67a26.65 26.65 0 0 0 .26 6.4 12.47 12.47 0 0 0 2.69 6 3.64 3.64 0 0 0 2.86 1.41c2 0 3.43-1.5 4.27-4.62.32-1.16.33-1.34.35-4.39Z"/><path fill="#f9de81" d="M135.68 36.23a13 13 0 0 1-.44 4.05 11.93 11.93 0 0 1-1.18 1.65 52.44 52.44 0 0 1-4.23 4.42 10.33 10.33 0 0 1-1.58-1.14c-1.52-1.19-4-3-6-4.35-1.14-.75-1.21-.83-1.16-1.18a48.69 48.69 0 0 1 2-4.82c.48-1.1.25-1 3.11-1.61a13.74 13.74 0 0 1 4.31-.32c2.29 0 2.73.06 3.1.25a5.46 5.46 0 0 1 1.77 1.74 4.25 4.25 0 0 1 .3 1.31ZM134.36 105.12c0 2.24-.39 3.34-1.55 4.12-.49.32-.59.35-1.82.35a6.8 6.8 0 0 1-5-1.84 39.15 39.15 0 0 1-4.27-5.79c-.22-.39-.2-.4.13-.63s1.1-.65 2-1.15c1.59-.86 3.18-1.79 4.29-2.53.27-.17.5-.32.52-.32s.35.41.75.88 1.68 1.91 2.82 3.12l2.09 2.2Z"/><path fill="#56595b" d="m132.57 78.7.08.48-.59-.56a6.41 6.41 0 0 1-.84-1c-.15-.21-.32-.4-.4-.4a14.78 14.78 0 0 0-1.77 1.26c-6.92 5.39-14.22 8.16-24.1 9.17a97.06 97.06 0 0 1-13.21 0A93.66 93.66 0 0 1 73.93 84c-2.16-.65-2.3-.68-2.44-.47-.49.7-.68.84-.82.66a3.34 3.34 0 0 1 .06-1.92 5.62 5.62 0 0 1 .76-1l.54-.62v.62c0 1.13-.05 1.07 2 1.7a84.46 84.46 0 0 0 18.27 3.67 92.49 92.49 0 0 0 11.4.07c10.56-.9 17.75-3.57 24.91-9.21.79-.66 1.46-1.2 1.46-1.23a5.2 5.2 0 0 0-.64-.76c-.34-.36-.59-.72-.54-.79.22-.35 1.88.51 2.41 1.23a10.9 10.9 0 0 1 1.27 2.75Z"/><path fill="#f9de81" d="M125.41 109.09a4.12 4.12 0 0 1 .11 2.56A6.9 6.9 0 0 1 122 115a3.17 3.17 0 0 1-1.86.51 7.68 7.68 0 0 1-4.92-2.1c-.49-.46-1.3-1.18-1.78-1.62l-.9-.78v-6.71l.73-.19c1.9-.54 4.81-1.46 5.82-1.86.62-.24 1.14-.43 1.18-.43a9.61 9.61 0 0 1 .94 1.32c.48.73 1.56 2.27 2.41 3.39s1.65 2.29 1.79 2.56Z"/><path fill="#56595b" d="M122.51 60.81a24.05 24.05 0 0 1-.43 7.48 12.39 12.39 0 0 1-.76 1.92c-1.86 3.88-5.28 3.59-7.35-.62a14.89 14.89 0 0 1-1.3-7c0-3.14.25-4.47 1.15-6.34a4.81 4.81 0 0 1 2-2.25 2.17 2.17 0 0 1 1.3-.24 4.54 4.54 0 0 1 3.06 1.5c1.41 1.34 2.04 2.89 2.33 5.55Zm-6.46-.49c.6-.23.63-1.3 0-1.94a1.06 1.06 0 0 0-1.74.33 1.24 1.24 0 0 0 1.74 1.61Z"/><path fill="#f9de81" d="M122.5 32c.17.92 0 1.64-1.07 4s-1.51 3.25-1.77 3.25a6.55 6.55 0 0 1-1.21-.45A52.23 52.23 0 0 0 106 34.93c-1.38-.22-1.39-.22-1.34-.53s.18-1.25.32-2.38.32-2.4.41-2.81l.14-.75.87-.43a14.29 14.29 0 0 0 1.87-1.16A10.76 10.76 0 0 1 112 25a8.12 8.12 0 0 1 4.46-.18 7.27 7.27 0 0 1 4.74 3.36 13.85 13.85 0 0 1 1.3 3.82ZM111.4 104.83c.41.49.24 4.3-.27 6.33a10.66 10.66 0 0 1-.62 1.81 5.93 5.93 0 0 1-2.45 2.25 3.31 3.31 0 0 1-2.12.41 3.76 3.76 0 0 1-2.46-.54c-2.25-1.14-3-2.44-3.26-6-.07-.82-.13-1.87-.13-2.34v-.84h.61a86.07 86.07 0 0 0 8.85-1c1.39-.27 1.68-.28 1.85-.08ZM103.74 27.88c.6.43.6.44.54 1 0 .31-.19 1.61-.35 2.91a22.85 22.85 0 0 1-.37 2.49c-.08.12-1 .17-4.25.23a60.42 60.42 0 0 0-8.55.56 4.86 4.86 0 0 1-1.22.14c-.1-.1-1.17-5.62-1.17-6 0-1.1 3.75-5.13 5.77-6.2a4.16 4.16 0 0 1 3.43-.4c.48.15 1.35.88 3.82 3.21.96.88 2.02 1.82 2.35 2.06Z"/><path fill="#98dc9a" d="m103.64 156.55.19 1.6-1.2 2.26c-2.44 4.56-3.22 5.82-3.66 5.82-.28 0-.83-.69-1.74-2.18-1.2-2-1.48-2.31-1.76-2.31s-.52.42-.92 1.91c-.87 3.28-2.77 5.28-5.62 5.88a16.83 16.83 0 0 1-4.51.05 28 28 0 0 1-10.22-3.8 9.28 9.28 0 0 1-3.06-3.1c-1.46-2.07-2-2.49-3.34-2.91a29.09 29.09 0 0 0-8.09-.54c-2.27.36-4.1 1.88-4.11 3.43a2.93 2.93 0 0 0 1 2 14.67 14.67 0 0 0 4.2 2c.79.25 1.45.48 1.48.5s0 .11-.11.23c-.38.45-2.65.74-4.39.56a8.11 8.11 0 0 1-5.53-2.68 7 7 0 0 1-1.91-2.69 8.81 8.81 0 0 1-.9-2.41c-.08-.5-.1-2.36-.08-4.72 0-3.67.07-4 .39-5.41a25.75 25.75 0 0 1 4.91-10.5 28.15 28.15 0 0 1 6.85-5.9c3.94-2.4 9.35-4.39 12.82-4.7a29.91 29.91 0 0 1 6.35.27c.68.12 1.76.37 2.36.55a54.46 54.46 0 0 1 9.49 4.12 67.15 67.15 0 0 1 6.27 6.86c0 .12-.17.1-.64 0a23 23 0 0 1-4.86-2.42 36.23 36.23 0 0 0-9.54-4.32 18.93 18.93 0 0 0-6.73-.77c-3 0-3.4 0-4.49.3a23.51 23.51 0 0 0-7.23 3.07 21.44 21.44 0 0 0-3.07 2.4 24.63 24.63 0 0 0 2.27-1.34c3.8-2.34 6-3.28 8.68-3.68a25 25 0 0 1 6.75.2c4.76.71 6.91 1.57 14 5.6 2.42 1.37 3.52 1.85 4.67 2a3.4 3.4 0 0 1 1.09.28c.3.26.66 1.17 1.56 3.91a52.47 52.47 0 0 1 2.38 10.58Z"/><path fill="#f9de81" d="m99.71 112.18.38 1.36-.32 1.95a14.44 14.44 0 0 1-.94 3.87 5.23 5.23 0 0 1-2 1.82l-.25.14s-.59.2-1.28.41a10.58 10.58 0 0 1-1.87.42 16.23 16.23 0 0 1-2.61-.44 1.87 1.87 0 0 0-.29-.2 8.33 8.33 0 0 1-3.34-4c-1-2.15-1.24-3.36-1.49-8.54-.06-1.46-.13-3-.13-3.33 0-.67 0-.68.36-.6.18 0 1.21.19 2.27.32a74.85 74.85 0 0 0 7.52.5c2.24.09 3.14.16 3.21.28a3.67 3.67 0 0 1 .11 1.1 19.54 19.54 0 0 0 .67 4.94Z"/><path fill="#98dc9a" d="M97.73 135c.14 1.13.22 2.12.2 2.18a40.91 40.91 0 0 1-4.56-4.4l-.72-.8-.65-4.82c-.22-1.68-.41-3-.56-3.84a17.29 17.29 0 0 0 2.31.19 21.14 21.14 0 0 0 2.65-.57c.11.88.34 3 .58 5.28.26 2.64.61 5.71.75 6.78Z"/><path fill="#56595b" d="M89.28 60.28c.25 1 .28 1.4.28 4.26 0 3 0 3.23-.35 4.38-.84 3.08-2.21 4.62-4.27 4.62a3.64 3.64 0 0 1-2.86-1.41 12.47 12.47 0 0 1-2.69-6 26.65 26.65 0 0 1-.26-6.4c.38-3.05 1.67-5 3.81-5.67a3 3 0 0 1 2.18.07c1.77.55 3.31 2.87 4.16 6.15Zm-6.11 1.27a2.25 2.25 0 0 0-.09-2.73 2.12 2.12 0 0 0-2-.2 1.61 1.61 0 0 0-.73 1.44c.04 1.58 1.91 2.58 2.82 1.49Z"/><path fill="#f9de81" d="M88.43 35.34c0 .22-.09.31-1.16.66-1.23.43-2.68 1-5.55 2.3a7.81 7.81 0 0 1-1.85.67.93.93 0 0 1-.51-.45 44.23 44.23 0 0 1-2.15-5.47c-.86-2.52-.89-3.23-.28-4.51a6.75 6.75 0 0 1 2.91-2.88 5 5 0 0 1 3.16-.52 4.18 4.18 0 0 1 1.83.35c1.71.86 2.14 1.81 3.15 7.21.21 1.3.42 2.48.45 2.64ZM84.54 105a4 4 0 0 1-.34 1.67c-.26.84-.85 2.85-1.31 4.46-1.35 4.66-1.69 5.4-3.08 6.86a6.51 6.51 0 0 1-1.77 1.4c-.79.38-.87.4-2.63.44a10.9 10.9 0 0 1-5.34-.95c-1.5-.75-1.61-1-1.71-4.2l-.09-2.12.45-1.06c.49-1.19 3.31-7.52 4-9l.45-1 1.76.62c1 .33 2.52.83 3.46 1.1s2.67.76 3.86 1a22.82 22.82 0 0 1 2.29.78ZM78.72 39.7a5.08 5.08 0 0 1-1.28 1A83.74 83.74 0 0 0 70 46a28.27 28.27 0 0 1-2.53 2 25 25 0 0 1-2-2.35l-1.87-2.36.17-3.29c.22-4.32.37-5.21 1.27-6.92a5.19 5.19 0 0 1 2.09-2.26c.59-.32.68-.33 2.3-.28a13 13 0 0 1 3.82.61c1.18.3 2.19.59 2.25.64s.36.58 1.39 3.38c.4 1.09 1 2.52 1.26 3.18s.55 1.27.57 1.35ZM70.27 100.18c1.57.8 1.78.94 1.72 1.17-.09.39-4.24 9.83-4.64 10.6-.35.61-.36.63-1.32.91a13.69 13.69 0 0 1-5 .54c-3.76-.39-6.37-1.84-7.5-4.2a3.82 3.82 0 0 1-.46-2.41 9.54 9.54 0 0 1 .33-2.69c.17-.69.4-1.76.48-2.39l.16-1.13 2.44-2c1.35-1.09 2.91-2.43 3.5-3a4.56 4.56 0 0 1 1.18-.93c.08 0 1.08.71 2.23 1.49a63.13 63.13 0 0 0 6.88 4.04ZM66.44 48.74A12.83 12.83 0 0 1 65 50.51c-2.76 3-4.3 4.74-5.85 6.65-.88 1.07-1.66 2-1.74 2-.34.12-5.17-3.7-6.62-5.25a12.06 12.06 0 0 1-2.22-4.38 7.12 7.12 0 0 1-.36-2.8V45l.47-1a5.76 5.76 0 0 1 2.81-2.69 7 7 0 0 1 4.19-.86h1.76l.92.54A42.13 42.13 0 0 1 62.47 44c1.13.9 3.97 4.29 3.97 4.74ZM60.27 94l-.81.74c-.72.66-4.54 3.85-5.92 5l-.52.4-3.15-.13c-6.72-.27-7.63-.52-8.58-2.37a10.23 10.23 0 0 1-.86-4.64c-.11-3.26.18-4.31 1.68-6.18 1.15-1.43.94-1.32 3.55-1.62a47.7 47.7 0 0 0 5.88-.87c.36-.14.41-.14.59 0s.52.77 1 1.5 1.28 1.92 1.87 2.67a51.23 51.23 0 0 0 4.87 5.06ZM55.69 59.42c1 .75 1 .8.86 1a53.86 53.86 0 0 0-4.64 9.07 4.68 4.68 0 0 1-.75 1.6 59.4 59.4 0 0 1-5.45-2.51 6 6 0 0 1-3.3-3 24.79 24.79 0 0 1-2.07-5.18 9.8 9.8 0 0 1-.34-2.8 3.86 3.86 0 0 1 .32-2.19 3.73 3.73 0 0 1 1.53-1.8 6.47 6.47 0 0 1 5-.2c1.94.55 3 1.21 6.26 3.93.89.71 2.02 1.66 2.58 2.08ZM51.68 83c0 .15 0 .24-.22.33a43.44 43.44 0 0 1-5.44.82l-2.76.32-.66-.47a29.74 29.74 0 0 0-2.83-1.64c-4-2.12-4.44-2.46-5.29-4.15a6.33 6.33 0 0 1-.69-3.43 3.38 3.38 0 0 1 .45-2.27c1.1-2.08 3.73-3.47 7.22-3.83a3.58 3.58 0 0 1 2.36.32c1.06.43 6.2 2.87 6.72 3.16s.42.3.37.66a23.81 23.81 0 0 0-.16 6.27 30.93 30.93 0 0 0 .93 3.91Z"/><path fill="none" stroke="#56595b" stroke-miterlimit="10" stroke-width="1.5" d="M130.82 77.25c.08 0 .25.19.4.4a6.41 6.41 0 0 0 .84 1l.59.56-.08-.48a10.9 10.9 0 0 0-1.22-2.73c-.53-.72-2.19-1.58-2.41-1.23-.05.07.2.43.54.79a5.2 5.2 0 0 1 .64.76s-.67.57-1.46 1.23c-7.16 5.64-14.35 8.31-24.91 9.21a92.49 92.49 0 0 1-11.4-.07A84.46 84.46 0 0 1 74.08 83c-2.09-.63-2-.57-2-1.7v-.62l-.54.62a5.62 5.62 0 0 0-.76 1 3.34 3.34 0 0 0-.06 1.92c.14.18.33 0 .82-.66.14-.21.28-.18 2.44.47a93.66 93.66 0 0 0 17.81 3.64 97.06 97.06 0 0 0 13.21 0c9.88-1 17.18-3.78 24.1-9.17a14.78 14.78 0 0 1 1.72-1.25Z"/><path fill="none" stroke="#56595b" stroke-miterlimit="10" stroke-width="1.5" d="M158.11 68.58a10.47 10.47 0 0 0-3.47-1.68 3.59 3.59 0 0 1-1-.39 1.94 1.94 0 0 1 .67-.42 9.84 9.84 0 0 0 4.67-5 5.26 5.26 0 0 0 .33-2.34 7 7 0 0 0-.28-2.42 10.78 10.78 0 0 0-2.9-4.61c-2.65-2.65-5.09-3.47-7.94-2.68a3.07 3.07 0 0 1-.84.17 7.82 7.82 0 0 1 .14-1.29 11.92 11.92 0 0 0 .14-2.44c-.1-2.35-1.08-3.61-3.49-4.5-1-.38-1.06-.39-4.36-.48-1.83-.05-3.36-.11-3.4-.14a3.3 3.3 0 0 1 .13-.81 8.44 8.44 0 0 0-.2-5 3.83 3.83 0 0 0-2.12-2.19l-1-.53-3.13.07a21.6 21.6 0 0 0-4.49.33 9.59 9.59 0 0 1-1.61.23c-.21 0-.3-.24-.58-1.41a17.47 17.47 0 0 0-.75-2.31A8.47 8.47 0 0 0 117 23.9a17 17 0 0 0-5.24.06 14.77 14.77 0 0 0-4.19 2.12c-2.51 1.8-2.63 1.77-6.54-2-2.1-2-2.87-2.54-4.06-2.79a2.88 2.88 0 0 0-1.9.1 7.89 7.89 0 0 0-2.69 1.49 28.67 28.67 0 0 0-3.85 3.8l-.63.73-.62-.95a4.8 4.8 0 0 0-2.64-2.14 6.65 6.65 0 0 0-5.38.46 7.07 7.07 0 0 0-3.75 4.56 7.68 7.68 0 0 1-.32 1c-.13.21-.65.13-2.29-.31-.86-.23-1.9-.49-2.31-.55-4.18-.75-6.93 1.76-7.66 7-.07.5-.2 2-.28 3.46s-.15 2.58-.18 2.59a15.29 15.29 0 0 1-1.58-1c-2.86-2-4.34-2.5-6.26-2.23-3.21.47-6 2.21-7 4.45a4.4 4.4 0 0 0-.46 2.51 10.24 10.24 0 0 0 .9 4.94 4.28 4.28 0 0 1 .43 1.44 5.88 5.88 0 0 1-1.15-.21 8.87 8.87 0 0 0-5-.2c-2.92.87-4.06 4.27-2.91 8.69a25.09 25.09 0 0 0 1.89 4.69 10.5 10.5 0 0 1 .78 1.89 1.22 1.22 0 0 1-.64.11 13 13 0 0 0-5.64 1.76c-3.08 2-4 5.73-2.22 9.22.95 1.92 1.4 2.3 5.15 4.3 2.82 1.5 3.43 1.86 3.43 2a8.34 8.34 0 0 1-.89 1.2 6.66 6.66 0 0 0-1.74 3.72 28.43 28.43 0 0 0 .18 6.17c.6 2.67 1.78 4 3.89 4.42a63.54 63.54 0 0 0 7 .53l2.28.07-.07.7c-.06.38-.23 1.28-.4 2a8.9 8.9 0 0 0 .27 6.14 9.79 9.79 0 0 0 3 2.94 13.67 13.67 0 0 0 4.75 1.53 15.52 15.52 0 0 0 5-.35 4.06 4.06 0 0 1 1.67-.19 6.53 6.53 0 0 1 .22 1.61c.22 3.44.87 4.17 4.47 5.08a14.48 14.48 0 0 0 5.89.07 7.85 7.85 0 0 0 4.41-4.06 31.21 31.21 0 0 0 1.86-5.46 15.79 15.79 0 0 1 .67-2 15 15 0 0 1 .15 2 17.35 17.35 0 0 0 1.73 7.36 9.3 9.3 0 0 0 2.81 3.45l1 .76.34 2.37c.55 3.8.87 6.48.82 6.76s-.29.13-2.7-.92a38.54 38.54 0 0 0-7.68-2.67 27.06 27.06 0 0 0-7.41-.2 35.72 35.72 0 0 0-16.14 7.2 25.6 25.6 0 0 0-6.75 8.63 26.84 26.84 0 0 0-1.86 5.31l-.47 1.8-.06 4.52c0 5.32 0 5.57 1 7.75a7.66 7.66 0 0 0 2 2.74 7.62 7.62 0 0 0 2.64 2 8.46 8.46 0 0 0 5.11 1 12.7 12.7 0 0 0 2.7-.26c.8-.25 1.66-1 1.66-1.48s-.46-.82-2.56-1.53c-2.79-.94-4.42-2-4.42-2.89s1.26-2 2.9-2.4a34.7 34.7 0 0 1 7.11.18c1.83.33 2.25.64 3.72 2.73a12.89 12.89 0 0 0 6.09 4.9c4 1.79 8.33 2.82 11.08 2.59 4.13-.33 6.6-2.29 7.87-6.25a2.14 2.14 0 0 1 .37-.85 8.81 8.81 0 0 1 .64 1 6.9 6.9 0 0 0 2 2.35c1.17.6 1.93-.18 4.16-4.23.73-1.31 1.42-2.52 1.56-2.7l.22-.29.23.55a29.14 29.14 0 0 0 1.81 3.59c1.17 1.73 2 2 3 1a26.41 26.41 0 0 0 2.15-3.59c1.07-2 .91-1.9 1.84-.93 1.22 1.26 2 1.56 3.32 1.22 1.81-.46 3.18-2 5.82-6.4 2.4-4 3.31-5.26 5.35-7.19a10.57 10.57 0 0 1 3.9-2.64 5.78 5.78 0 0 1 5.13.24 6.91 6.91 0 0 1 2.12 1.6c1.32 1.31 1.76 2.1 1.76 3.15 0 1.37-.77 2.24-2.85 3.33a39 39 0 0 1-4.65 2c-.41.12-.73.29-.73.37a5.17 5.17 0 0 0 2 1.25c2.34.93 4.85.54 7.45-1.18 6.49-4.28 8.34-13.35 4.35-21.33-1.19-2.39-2.56-4.21-6-8-3-3.33-5.29-5.24-7.36-6.24-2.32-1.11-3.83-1.4-7.54-1.41a12.24 12.24 0 0 0-3.87.28 30.11 30.11 0 0 0-8.84 3.83q-5.79 3.83-12.52 12.48c-.54.69-1 1.23-1.08 1.17s-.38-2.32-1-8.62c-.31-3-.59-5.61-.63-5.8-.06-.34 0-.41.59-.82a5.6 5.6 0 0 0 2-2.42 21.38 21.38 0 0 0 .62-2.52 17.94 17.94 0 0 1 .43-1.86c.06-.07.38.11 1.45.77a6.46 6.46 0 0 0 4.65.94 6.73 6.73 0 0 0 4.51-3.56l.44-1 .38.26a14.91 14.91 0 0 1 1.51 1.28 14.94 14.94 0 0 0 1.82 1.5 7.52 7.52 0 0 0 5.95 1.11c2.72-1 4.86-3.33 5-5.61 0-.74.09-.87.27-.81a13.7 13.7 0 0 0 3.51.77c1.95.12 3.11-.32 4-1.52a5.92 5.92 0 0 0 1-3.62c0-.91.09-1.68.1-1.68l.67.19a16.64 16.64 0 0 0 6.37.07c3.55-.68 5.21-1.86 5.62-4a11.14 11.14 0 0 0-.59-4.4c-.26-.82-.53-1.79-.64-2.15a2.61 2.61 0 0 1-.13-.7 13.33 13.33 0 0 1 1.64-.19 9 9 0 0 0 3.8-.89 5.71 5.71 0 0 0 3.35-5.85c-.08-1.92-.75-3.24-2.51-5.09l-.93-1 1-.14c2.86-.43 4.09-1.29 5-3.52 1-2.42 1.34-5.14.75-6.45a3.94 3.94 0 0 0-.96-.98Z"/><path fill="none" stroke="#56595b" stroke-miterlimit="10" stroke-width="1.5" d="M150 49.71a7.62 7.62 0 0 1 1.11.14 9.87 9.87 0 0 1 4.63 2.78c2.5 2.74 3.31 6.19 2.05 8.78a9.71 9.71 0 0 1-3.79 3.65c-2.1 1.08-4 1.52-7.59 1.72-1.17.07-2.36.13-2.63.13h-.53L143 66a28.42 28.42 0 0 0-3.16-7.86l-.44-.75 1.06-1c2.54-2.4 5.43-4.94 6.23-5.48a7.83 7.83 0 0 1 3.31-1.2ZM137 41.6a38.08 38.08 0 0 1 6.27.21 4.38 4.38 0 0 1 3 2c.31.54.33.68.32 1.89a15.57 15.57 0 0 1-.44 3.64c-.14.51-.29.66-4.56 4.55l-2.87 2.63-.8-1c-1.32-1.71-3.33-4-5.33-6.18-1.86-2-1.91-2.05-1.73-2.33a61.85 61.85 0 0 1 4.89-5.13 4.34 4.34 0 0 1 1.25-.28ZM123.07 34.86c.48-1.1.25-1 3.11-1.61a13.74 13.74 0 0 1 4.31-.32c2.29 0 2.73.06 3.1.25a5.46 5.46 0 0 1 1.77 1.74 4.25 4.25 0 0 1 .32 1.31 13 13 0 0 1-.44 4.05 11.93 11.93 0 0 1-1.18 1.65 52.44 52.44 0 0 1-4.23 4.42 10.33 10.33 0 0 1-1.58-1.14c-1.52-1.19-4-3-6-4.35-1.14-.75-1.21-.83-1.16-1.18a48.69 48.69 0 0 1 1.98-4.82ZM104.63 34.4c0-.19.18-1.25.32-2.38s.32-2.4.41-2.81l.14-.75.87-.43a14.29 14.29 0 0 0 1.87-1.16A10.76 10.76 0 0 1 112 25a8.12 8.12 0 0 1 4.46-.18 7.27 7.27 0 0 1 4.74 3.36 13.85 13.85 0 0 1 1.3 3.82c.17.92 0 1.64-1.07 4s-1.51 3.25-1.77 3.25a6.55 6.55 0 0 1-1.21-.45A52.23 52.23 0 0 0 106 34.93c-1.41-.22-1.42-.22-1.37-.53ZM94.14 23a4.16 4.16 0 0 1 3.43-.4c.48.15 1.35.88 3.82 3.21 1 .92 2 1.86 2.35 2.1.6.43.6.44.54 1 0 .31-.19 1.61-.35 2.91a22.85 22.85 0 0 1-.37 2.49c-.08.12-1 .17-4.25.23a60.42 60.42 0 0 0-8.55.56 4.86 4.86 0 0 1-1.22.14c-.1-.1-1.17-5.62-1.17-6 0-1.17 3.75-5.24 5.77-6.24ZM76.93 28.54a6.75 6.75 0 0 1 2.91-2.88 5 5 0 0 1 3.16-.52 4.18 4.18 0 0 1 1.83.35c1.71.86 2.14 1.81 3.15 7.21.26 1.3.47 2.48.5 2.64s-.09.31-1.16.66c-1.23.43-2.68 1-5.55 2.3a7.81 7.81 0 0 1-1.85.67.93.93 0 0 1-.51-.45 44.23 44.23 0 0 1-2.15-5.47c-.91-2.52-.94-3.23-.33-4.51ZM63.77 40c.22-4.32.37-5.21 1.27-6.92a5.19 5.19 0 0 1 2.09-2.26c.59-.32.68-.33 2.3-.28a13 13 0 0 1 3.82.61c1.18.3 2.19.59 2.25.64s.36.58 1.39 3.38c.4 1.09 1 2.52 1.26 3.18s.55 1.24.57 1.32a5.08 5.08 0 0 1-1.28 1A83.74 83.74 0 0 0 70 46a28.27 28.27 0 0 1-2.53 2 25 25 0 0 1-2-2.35l-1.87-2.36ZM48.19 46.72V45l.47-1a5.76 5.76 0 0 1 2.81-2.69 7 7 0 0 1 4.19-.86h1.76l.92.54A42.13 42.13 0 0 1 62.47 44c1.13.91 4 4.3 4 4.75A12.83 12.83 0 0 1 65 50.51c-2.76 3-4.3 4.74-5.85 6.65-.88 1.07-1.66 2-1.74 2-.34.12-5.17-3.7-6.62-5.25a12.06 12.06 0 0 1-2.22-4.38 7.12 7.12 0 0 1-.38-2.81ZM40.34 60.45A9.8 9.8 0 0 1 40 57.6a3.86 3.86 0 0 1 .32-2.19 3.73 3.73 0 0 1 1.53-1.8 6.47 6.47 0 0 1 5-.2c1.94.55 3 1.21 6.26 3.93.86.71 2 1.64 2.59 2.08 1 .75 1 .8.86 1a53.86 53.86 0 0 0-4.64 9.07 4.68 4.68 0 0 1-.75 1.6 59.4 59.4 0 0 1-5.45-2.51 6 6 0 0 1-3.3-3 24.79 24.79 0 0 1-2.08-5.13ZM39.77 82.35c-4-2.12-4.44-2.46-5.29-4.15a6.33 6.33 0 0 1-.69-3.43 3.38 3.38 0 0 1 .45-2.27c1.1-2.08 3.73-3.47 7.22-3.83a3.58 3.58 0 0 1 2.36.32c1.06.43 6.2 2.87 6.72 3.16s.42.3.37.66a23.81 23.81 0 0 0-.16 6.27 30.93 30.93 0 0 0 .93 3.92c0 .15 0 .24-.22.33a43.44 43.44 0 0 1-5.44.82l-2.76.32-.66-.47a29.74 29.74 0 0 0-2.83-1.65ZM49.87 99.93c-6.72-.27-7.63-.52-8.58-2.37a10.23 10.23 0 0 1-.86-4.56c-.11-3.26.18-4.31 1.68-6.18 1.15-1.43.94-1.32 3.55-1.62a47.7 47.7 0 0 0 5.88-.87c.36-.14.41-.14.59 0s.52.77 1 1.5 1.28 1.92 1.87 2.67a51.23 51.23 0 0 0 4.87 5.06l.44.35-.81.74c-.72.66-4.54 3.85-5.92 5l-.52.4ZM66 112.86a13.69 13.69 0 0 1-5 .54c-3.76-.39-6.37-1.84-7.5-4.2a3.82 3.82 0 0 1-.46-2.41 9.54 9.54 0 0 1 .33-2.69c.17-.69.4-1.76.48-2.39l.16-1.13 2.44-2c1.35-1.09 2.91-2.43 3.5-3a4.56 4.56 0 0 1 1.18-.93c.08 0 1.08.71 2.23 1.49a63.13 63.13 0 0 0 6.9 4c1.57.8 1.78.94 1.72 1.17-.09.39-4.24 9.83-4.64 10.6-.34.65-.34.67-1.34.95ZM84.2 106.69c-.26.84-.85 2.85-1.31 4.46-1.35 4.66-1.69 5.4-3.08 6.86a6.51 6.51 0 0 1-1.77 1.4c-.79.38-.87.4-2.63.44a10.9 10.9 0 0 1-5.34-.95c-1.5-.75-1.61-1-1.71-4.2l-.09-2.12.45-1.06c.49-1.19 3.31-7.52 4-9l.45-1 1.76.62c1 .33 2.52.83 3.46 1.1s2.67.76 3.86 1a22.82 22.82 0 0 1 2.29.68 4 4 0 0 1-.34 1.77ZM99.47 138.52c.56-.78 2.93-3.9 3.82-5 5.86-7.21 12.24-11.72 18.43-13a30.67 30.67 0 0 1 6.77-.12 10.43 10.43 0 0 1 3.93 1.19c1.79.86 3.42 2.17 5.92 4.75 5.24 5.37 8.1 9.9 8.72 13.78a31.85 31.85 0 0 1-.06 6.79 14.19 14.19 0 0 1-3.75 6.81c-2.33 2.34-5 3.43-7.35 3-.59-.1-.87-.19-.87-.32a4.14 4.14 0 0 1 1.45-.81 13.24 13.24 0 0 0 3.91-2.34 3.3 3.3 0 0 0 1.36-2.8 3.11 3.11 0 0 0-.42-1.74 11.5 11.5 0 0 0-5.11-4.48 9.72 9.72 0 0 0-4.36 0 14.7 14.7 0 0 0-5.74 4 28.35 28.35 0 0 0-4.07 5.65c-2.7 4.43-4 6-5 6.61a2.47 2.47 0 0 1-1.94.05 7.72 7.72 0 0 1-1.34-1.24 4.54 4.54 0 0 0-1.26-1.07c-.45 0-.91.7-2.6 3.86-.94 1.81-1.33 2.37-1.63 2.37s-1.14-1.12-1.71-2.21a15.06 15.06 0 0 1-1.52-4.61c-.88-4.74-1.1-5.83-1.49-7.32s-1.36-4.41-2.18-6.62l-.29-.78.56-.72c.31-.41 1.14-1.58 1.85-2.6a28.7 28.7 0 0 1 4-5.12 17.56 17.56 0 0 1 5.45-3.79 23.15 23.15 0 0 1 9.13-2.49 17.52 17.52 0 0 0 2.11-.26c.5-.18-.9-.28-3-.2a17.14 17.14 0 0 0-5.9 1.13c-6.1 2.14-8.41 4-12.87 10.24-.77 1.09-1.52 2.11-1.66 2.26-.28.32-.59.37-.59.1a8.24 8.24 0 0 0-.5-1.37l-.5-1.18Z"/><path fill="none" stroke="#56595b" stroke-miterlimit="10" stroke-width="1.5" d="M98.83 140.76c0 .12-.17.1-.64 0a23 23 0 0 1-4.86-2.42 36.23 36.23 0 0 0-9.57-4.34 18.93 18.93 0 0 0-6.73-.77c-3 0-3.4 0-4.49.3a23.51 23.51 0 0 0-7.23 3.07 21.44 21.44 0 0 0-3.07 2.4 24.63 24.63 0 0 0 2.27-1.34c3.8-2.34 6-3.28 8.68-3.68a25 25 0 0 1 6.75.2c4.76.71 6.91 1.57 14 5.6 2.42 1.37 3.52 1.85 4.67 2a3.4 3.4 0 0 1 1.09.28c.3.26.66 1.17 1.56 3.91a52.47 52.47 0 0 1 2.4 10.57l.19 1.6-1.2 2.26c-2.44 4.56-3.22 5.82-3.66 5.82-.28 0-.83-.69-1.74-2.18-1.2-2-1.48-2.31-1.76-2.31s-.52.42-.92 1.91c-.87 3.28-2.77 5.28-5.62 5.88a16.83 16.83 0 0 1-4.51.05 28 28 0 0 1-10.22-3.8 9.28 9.28 0 0 1-3.06-3.1c-1.46-2.07-2-2.49-3.34-2.91a29.09 29.09 0 0 0-8.09-.54c-2.27.36-4.1 1.88-4.11 3.43a2.93 2.93 0 0 0 1 2 14.67 14.67 0 0 0 4.2 2c.79.25 1.45.48 1.48.5s0 .11-.11.23c-.38.45-2.65.74-4.39.56a8.11 8.11 0 0 1-5.53-2.68 7 7 0 0 1-1.91-2.69 8.81 8.81 0 0 1-.9-2.41c-.08-.5-.1-2.36-.08-4.72 0-3.67.07-4 .39-5.41a25.75 25.75 0 0 1 4.91-10.5 28.15 28.15 0 0 1 6.85-5.9c3.94-2.4 9.35-4.39 12.82-4.7a29.91 29.91 0 0 1 6.35.27c.68.12 1.76.37 2.36.55a54.46 54.46 0 0 1 9.49 4.12 67.15 67.15 0 0 1 6.28 6.89ZM97.73 135c.14 1.13.22 2.12.2 2.18a40.91 40.91 0 0 1-4.56-4.4l-.72-.8-.65-4.82c-.22-1.68-.41-3-.56-3.84a17.29 17.29 0 0 0 2.31.19 21.14 21.14 0 0 0 2.65-.57c.11.88.34 3 .58 5.28.26 2.64.61 5.71.75 6.78ZM99.77 115.49a14.44 14.44 0 0 1-.94 3.87 5.23 5.23 0 0 1-2 1.82l-.25.14s-.59.2-1.28.41a10.58 10.58 0 0 1-1.87.42 16.23 16.23 0 0 1-2.61-.44 1.87 1.87 0 0 0-.29-.2 8.33 8.33 0 0 1-3.34-4c-1-2.15-1.24-3.36-1.49-8.54-.06-1.46-.13-3-.13-3.33 0-.67 0-.68.36-.6.18 0 1.21.19 2.27.32a74.85 74.85 0 0 0 7.52.5c2.24.09 3.14.16 3.21.28a3.67 3.67 0 0 1 .11 1.1 19.54 19.54 0 0 0 .62 4.89l.38 1.36ZM111.13 111.16a10.66 10.66 0 0 1-.62 1.81 5.93 5.93 0 0 1-2.45 2.25 3.31 3.31 0 0 1-2.12.41 3.76 3.76 0 0 1-2.46-.54c-2.25-1.14-3-2.44-3.26-6-.07-.82-.13-1.87-.13-2.34v-.84h.61a86.07 86.07 0 0 0 8.85-1c1.39-.23 1.68-.24 1.85 0 .41.41.24 4.22-.27 6.25ZM90.87 104.59a54.62 54.62 0 0 1-27.18-9.48A34.93 34.93 0 0 1 58.54 91a24 24 0 0 1-5.17-6.8c-1.36-2.76-1.69-4.38-1.6-8.09A13.47 13.47 0 0 1 52.2 72c1.36-5.12 4.81-11 10-16.91a92.56 92.56 0 0 1 7.8-7.67 61.35 61.35 0 0 1 15.8-9.82 34.74 34.74 0 0 1 9.67-2 75.55 75.55 0 0 1 9.09.18A40.41 40.41 0 0 1 118.41 40a43.19 43.19 0 0 1 10.15 7c.55.54 1.53 1.46 2.18 2 4.6 4.16 9.23 10.57 10.59 14.62a17.15 17.15 0 0 1 .92 6.69 21.77 21.77 0 0 1-.22 4.25 35.08 35.08 0 0 1-12.49 20.76 43.5 43.5 0 0 1-14.13 7.07 66.24 66.24 0 0 1-24.54 2.2ZM125.52 111.65A6.9 6.9 0 0 1 122 115a3.17 3.17 0 0 1-1.86.51 7.68 7.68 0 0 1-4.92-2.1c-.49-.46-1.3-1.18-1.78-1.62l-.9-.78v-6.71l.73-.19c1.9-.54 4.81-1.46 5.82-1.86.62-.24 1.14-.43 1.18-.43a9.61 9.61 0 0 1 .94 1.32c.48.73 1.56 2.27 2.41 3.39s1.65 2.29 1.79 2.56a4.12 4.12 0 0 1 .11 2.56ZM134.36 105.12c0 2.24-.39 3.34-1.55 4.12-.49.32-.59.35-1.82.35a6.8 6.8 0 0 1-5-1.84 39.15 39.15 0 0 1-4.27-5.79c-.22-.39-.2-.4.13-.63s1.1-.65 2-1.15c1.59-.86 3.18-1.79 4.29-2.53.27-.17.5-.32.52-.32s.35.41.75.88 1.68 1.91 2.82 3.12l2.09 2.2ZM147 100.49c-.51 1.34-2.33 2.2-5.53 2.62a10.82 10.82 0 0 1-6.18-.55c-1-.42-5.44-5-5.44-5.63a21.64 21.64 0 0 1 2.41-2.63c1.31-1.33 2.81-2.92 3.33-3.53s1.23-1.47 1.6-1.91l.68-.77.38.24c.22.12 1.2.71 2.2 1.28s2.5 1.46 3.36 1.92l1.56.86.4 1c1.16 2.89 1.69 5.91 1.23 7.1ZM154.09 83.75a5 5 0 0 1 .34 2.47c0 1.8 0 1.81-.33 2.47a5.9 5.9 0 0 1-2.36 2.2 11.37 11.37 0 0 1-3.94.68l-1.55.11-2.92-1.68a37.11 37.11 0 0 1-5-3 5.08 5.08 0 0 1 .29-.53A44.83 44.83 0 0 0 142 79a8.67 8.67 0 0 1 .7-1.71c.07 0 1.93.6 4.13 1.32l4 1.33.8.77a11.9 11.9 0 0 1 2.46 3.04ZM156 77.6c-.88.77-3.47 1.27-5.27 1a49.77 49.77 0 0 1-6.92-2.19l-.87-.36.09-.68c.18-1.53.3-3.79.32-5.52v-1.8l.91-.07c.47 0 1.56-.1 2.38-.13s1.93-.17 2.44-.26a15.12 15.12 0 0 1 2.55-.13 7.44 7.44 0 0 1 2.68.39c1.86.59 3.09 1.33 3.58 2.15.88 1.47-.31 6.19-1.89 7.6Z"/><path fill="none" stroke="#56595b" stroke-miterlimit="10" stroke-width="1.5" d="M121.32 70.21a12.39 12.39 0 0 0 .76-1.92 24.05 24.05 0 0 0 .43-7.48c-.29-2.66-.92-4.21-2.3-5.57a4.54 4.54 0 0 0-3.06-1.5 2.17 2.17 0 0 0-1.3.24 4.81 4.81 0 0 0-2 2.25c-.9 1.87-1.15 3.2-1.15 6.34a14.89 14.89 0 0 0 1.3 7c2 4.23 5.46 4.52 7.32.64Z"/><path fill="none" stroke="#56595b" stroke-miterlimit="10" stroke-width="1.5" d="M114.35 58.71a1.06 1.06 0 0 1 1.74-.33c.59.64.56 1.71 0 1.94a1.24 1.24 0 0 1-1.74-1.61ZM82.08 72.13a3.64 3.64 0 0 0 2.86 1.41c2 0 3.43-1.5 4.27-4.62.32-1.15.33-1.33.35-4.38 0-2.86 0-3.29-.28-4.26-.85-3.33-2.39-5.6-4.16-6.14a3 3 0 0 0-2.18-.07c-2.14.68-3.43 2.62-3.81 5.67a26.65 26.65 0 0 0 .26 6.4 12.47 12.47 0 0 0 2.69 5.99Z"/><path fill="none" stroke="#56595b" stroke-miterlimit="10" stroke-width="1.5" d="M81.12 58.62a2.12 2.12 0 0 1 2 .2 2.25 2.25 0 0 1 .09 2.73c-.91 1.09-2.78.09-2.78-1.49a1.61 1.61 0 0 1 .69-1.44Z"/><circle cx="81.99" cy="60.43" r="1.89" fill="#fff"/><circle cx="115.38" cy="59.25" r="1.33" fill="#fff"/></svg>