<svg xmlns="http://www.w3.org/2000/svg" xml:space="preserve" width="192" height="192" baseProfile="tiny" overflow="visible"><path fill="#99BEF9" d="M171 161.957c0 6.099-4.944 11.043-11.043 11.043H30.043C23.944 173 19 168.056 19 161.957V32.043C19 25.944 23.944 21 30.043 21h129.914C166.056 21 171 25.944 171 32.043v129.914z"/><g fill="#FFF"><path d="M82 54H52v30h30V54zm-6 24H59V61h17v17z"/><path d="M64 66h6v6h-6zM52 140h30v-31H52v31zm7-24h17v17H59v-17z"/><path d="M64 121h6v7h-6zM108 54v30h30V54h-30zm23 24h-17V61h17v17z"/><path d="M120 66h6v6h-6zM89 63h6v7h-6zM95 84h7V70h-7v6h-6v21h6zM89 103h6v10h-6zM89 120h6v7h-6zM95 97h6v6h-6zM101 90h21v7h-21zM122 97h9v6h-9zM101.486 140H108v-7h-7v-6h-6v13zM116 133h6v7h-6zM122 126h7v7h-7zM108 120h14v6h-14zM122 113v7h16v-17h-7v10zM131 90h7v7h-7zM114 103h8v6h-8zM129 133h9v7h-9zM101 103v10h-6v7h13v-17zM82 97v-7h-6v7h-8v6h21v-6zM52 90v13h7v-6h9v-7zM95 54h7v9h-7z"/></g></svg>