<svg xmlns="http://www.w3.org/2000/svg" width="192" height="192"><rect width="152" height="152" x="20" y="20" fill="#9abeff" rx="9.935"/><g fill="#fff"><path d="M116.52 74.071c-11.496-10.761-29.535-10.761-41.031 0a36.534 36.534 0 0 0-1.414 1.414c-10.76 11.496-10.76 29.535 0 41.03.377.404 1.01 1.038 1.414 1.415 9.806 9.178 24.372 10.528 35.578 4.048.478-.277.54-.832.15-1.222l-5.514-5.514c-.39-.39-1.109-.509-1.616-.29a20.499 20.499 0 0 1-21.912-3.708 25.663 25.663 0 0 1-1.414-1.413 20.501 20.501 0 0 1 0-27.661 25.667 25.667 0 0 1 1.414-1.414 20.501 20.501 0 0 1 27.66 0 25.667 25.667 0 0 1 1.415 1.414 20.499 20.499 0 0 1 3.707 21.912c-.218.507-.1 1.225.29 1.616l5.514 5.514c.39.39.946.328 1.222-.15 6.48-11.206 5.13-25.772-4.048-35.578a36.532 36.532 0 0 0-1.414-1.414z" color="#000" style="-inkscape-stroke:none"/><g stroke-width="0"><path d="m110.07 102.43 1.926 1.926c.39.39.455 1.078.128 1.523a28.936 28.936 0 0 1-6.24 6.24c-.445.327-1.132.262-1.523-.128l-1.926-1.926a1 1 90 0 1 0-1.414l6.22-6.221a1 1 0 0 1 1.415 0zM113.08 106.84a28.918 28.918 0 0 1-6.242 6.24c-.445.326-.498.895-.108 1.286l5.744 5.743c.39.39 1.078.457 1.523.13a28.978 28.978 0 0 0 6.24-6.242c.327-.445.262-1.132-.129-1.523l-5.743-5.743c-.39-.39-.958-.336-1.285.109zM121.19 114.95a29.02 29.02 0 0 1-6.24 6.24c-.446.328-.392.72.132.895l9.554 3.185a.5.5 135 0 0 .633-.633l-3.185-9.554c-.175-.524-.567-.578-.894-.133z"/></g></g></svg>