<?xml version="1.0" encoding="UTF-8" standalone="no"?>
<svg
   xml:space="preserve"
   viewBox="0 0 192 192"
   version="1.1"
   id="svg10"
   sodipodi:docname="quillpad.svg"
   inkscape:version="1.2.2 (b0a8486541, 2022-12-01)"
   inkscape:export-filename="quillpad.png"
   inkscape:export-xdpi="96"
   inkscape:export-ydpi="96"
   xmlns:inkscape="http://www.inkscape.org/namespaces/inkscape"
   xmlns:sodipodi="http://sodipodi.sourceforge.net/DTD/sodipodi-0.dtd"
   xmlns="http://www.w3.org/2000/svg"
   xmlns:svg="http://www.w3.org/2000/svg"><defs
     id="defs14" /><sodipodi:namedview
     id="namedview12"
     pagecolor="#505050"
     bordercolor="#eeeeee"
     borderopacity="1"
     inkscape:showpageshadow="0"
     inkscape:pageopacity="0"
     inkscape:pagecheckerboard="0"
     inkscape:deskcolor="#d1d1d1"
     showgrid="false"
     inkscape:zoom="1.7383042"
     inkscape:cx="-63.855338"
     inkscape:cy="101.53574"
     inkscape:window-width="1884"
     inkscape:window-height="1055"
     inkscape:window-x="36"
     inkscape:window-y="0"
     inkscape:window-maximized="1"
     inkscape:current-layer="svg10" /><rect
     width="152"
     height="152"
     x="20"
     y="20"
     fill="#56595b"
     class="a"
     rx="10"
     id="rect2" /><g
     fill="#98dc9a"
     stroke-miterlimit="3"
     color="#000000"
     id="g8"
     transform="matrix(0.72429795,0,0,0.72429795,26.475986,27.332436)"><path
       d="m 15.627,10.094 c -1.11,0 -2.02,0.909 -2.02,2.02 0,1.11 0.91,2.019 2.02,2.019 0.349,0 0.677,-0.09 0.964,-0.247 A 1.024,1.024 0 0 1 16.48,13.772 c -0.041,-0.05 -0.096,-0.114 -0.13,-0.194 -0.02,-0.048 -0.01,-0.095 -0.003,-0.134 l -0.017,0.032 c -0.004,0.009 -0.007,0.015 -0.014,0.024 -0.003,0.005 -0.008,0.011 -0.02,0.015 a 0.045,0.045 0 0 1 -0.036,-0.006 0.631,0.631 0 0 1 -0.133,-0.143 1.025,1.025 0 0 1 -0.05,-0.073 c -0.139,0.053 -0.29,0.082 -0.45,0.082 -0.702,0 -1.262,-0.56 -1.262,-1.262 0,-0.702 0.56,-1.262 1.262,-1.262 0.702,0 1.262,0.56 1.262,1.262 0,0.237 -0.064,0.458 -0.176,0.647 0.077,0.056 0.163,0.156 0.23,0.227 a 1.093,1.093 0 0 1 0.139,0.188 c 0.003,0.007 0.006,0.01 0.007,0.023 v 0.013 a 0.038,0.038 0 0 1 -0.015,0.022 0.038,0.038 0 0 1 -0.032,0.004 h -0.02 c 0.023,0.01 0.046,0.02 0.068,0.035 a 0.742,0.742 0 0 1 0.113,0.1 c 0.277,-0.346 0.443,-0.784 0.443,-1.259 0,-1.11 -0.908,-2.02 -2.019,-2.02 z m 1.049,2.725 c -0.039,0.057 -0.082,0.111 -0.129,0.161 l 0.064,0.074 c 0.095,0.11 0.202,0.235 0.29,0.352 0.045,0.06 0.081,0.11 0.119,0.166 0.049,-0.046 0.095,-0.095 0.139,-0.146 a 0.692,0.692 0 0 0 -0.11,-0.097 0.336,0.336 0 0 0 -0.085,-0.047 l -0.037,-0.01 A 0.363,0.363 0 0 1 16.903,13.265 L 16.892,13.26 a 0.037,0.037 0 0 1 -0.01,-0.007 0.031,0.031 0 0 1 -0.006,-0.01 0.088,0.088 0 0 1 -0.004,-0.009 v -0.012 c 0.004,-0.024 0.02,-0.034 0.033,-0.041 a 0.152,0.152 0 0 1 0.044,-0.014 c 0.014,-0.003 0.032,10e-4 0.048,10e-4 0,-10e-4 0,-0.002 -0.002,-0.003 a 1.034,1.034 0 0 0 -0.103,-0.13 c -0.067,-0.072 -0.153,-0.169 -0.216,-0.216 z m -0.178,0.211 c -2.196,-2.227 -1.098,-1.113 0,0 z m -0.051,0.046 c -0.091,0.077 -0.193,0.141 -0.304,0.19 a 0.89,0.89 0 0 0 0.04,0.058 0.543,0.543 0 0 0 0.095,0.103 c 0.006,-0.014 0.012,-0.028 0.025,-0.049 a 0.544,0.544 0 0 1 0.085,-0.1 0.06,0.06 0 0 1 0.015,-0.008 0.038,0.038 0 0 1 0.015,-0.004 0.04,0.04 0 0 1 0.029,0.012 c 0.01,0.011 0.01,0.02 0.01,0.025 l -0.002,0.01 a 0.261,0.261 0 0 0 -0.041,0.238 0.737,0.737 0 0 0 0.119,0.176 0.972,0.972 0 0 0 0.123,0.122 l 0.02,-0.012 a 0.247,0.247 0 0 1 0.007,-0.025 0.157,0.157 0 0 1 0.032,-0.06 0.037,0.037 0 0 1 0.025,-0.011 c 0.013,-10e-4 0.023,0.006 0.028,0.01 0.01,0.01 0.009,0.014 0.01,0.019 0.047,-0.033 0.093,-0.068 0.137,-0.104 a 3.133,3.133 0 0 0 -0.153,-0.195 c -0.078,-0.092 -0.145,-0.179 -0.219,-0.273 a 42.854,42.854 0 0 0 -0.096,-0.122 z m 0.611,0.094 z"
       style="paint-order:markers stroke fill"
       transform="matrix(22.677,0,0,22.677,-258.374,-180.135)"
       id="path4" /><path
       d="m 15.635,12.013 -0.008,0.034 c 0,0 0.058,0.087 0.083,0.12 l 0.029,0.04 -0.014,0.018 -0.008,0.01 -0.018,0.006 -0.003,0.003 0.004,-10e-4 0.01,-10e-4 h 0.002 l -0.005,0.01 -0.005,0.007 a 0.164,0.164 0 0 0 -0.014,0.026 c -0.002,0.005 -0.007,0.019 -0.003,0.024 0.002,0.002 0.004,-0.008 0.005,-0.01 a 0.163,0.163 0 0 1 0.007,-0.015 l 0.011,-0.021 c 0.004,-0.008 0.007,-0.015 0.012,-0.022 h 0.011 c 0.01,-10e-4 0.021,-0.004 0.03,0 l -0.012,-0.015 -0.022,0.005 0.014,-0.015 0.002,-0.002 0.02,0.029 c -0.007,0.004 -0.015,0.009 -0.016,0.015 0,0.005 0.003,0.01 0,0.016 -0.003,0.008 -0.009,0.016 -0.011,0.025 -0.002,0.007 0,0.014 -0.002,0.021 -0.006,0.015 -0.018,0.019 -0.027,0.031 a 0.033,0.033 0 0 0 -0.005,0.016 l -10e-4,0.01 0.007,-0.002 c 0.007,-0.017 0.021,-0.031 0.032,-0.046 l 0.01,-0.015 c 0.002,-0.009 -0.002,-0.016 -0.002,-0.024 0,-0.007 0.008,-0.014 0.01,-0.02 l 0.007,-0.011 0.006,-0.005 0.018,0.026 c -0.023,0.044 -0.048,0.086 -0.056,0.135 v 0.035 l 0.002,0.007 c 0.002,-0.004 0.003,-0.014 0.004,-0.018 a 0.259,0.259 0 0 1 0.028,-0.066 c 0.017,-0.04 0.02,-0.05 0.034,-0.074 l 0.03,0.045 c -0.006,0.008 -0.013,0.019 -0.02,0.023 -0.005,0.004 -0.012,0.003 -0.018,0.004 l -0.008,0.004 c -0.004,10e-4 -0.008,0.002 -0.01,0.005 l -0.002,0.004 0.006,-0.002 0.019,-0.002 c 0.016,-0.002 0.027,-0.015 0.038,-0.026 a 1.536,1.536 0 0 1 0.02,0.031 0.022,0.022 0 0 0 -0.006,0.006 l -0.014,0.023 a 0.198,0.198 0 0 1 -0.071,0.054 c -0.008,0.003 -0.015,0.006 -0.021,0.01 l -0.007,0.007 c 0.002,0.002 0.004,0.001 0.006,0.002 0.02,0.004 0.039,-0.01 0.055,-0.02 0.023,-0.013 0.052,-0.02 0.062,-0.047 l 0.005,-0.018 0.012,0.023 a 0.27,0.27 0 0 0 -0.078,0.101 c -0.003,0.007 -0.006,0.015 -0.006,0.022 l 0.001,0.004 c 0,-0.007 0.016,-0.03 0.017,-0.032 0.01,-0.014 0.02,-0.033 0.036,-0.04 l 0.036,-0.041 a 0.753,0.753 0 0 1 0.012,0.026 c -0.016,0.007 -0.027,0.022 -0.039,0.034 a 0.21,0.21 0 0 0 -0.042,0.06 c -0.007,0.018 -0.01,0.036 -0.015,0.054 -0.002,0.006 -0.014,0.042 -0.012,0.046 l 0.002,-0.003 0.002,-0.008 c 0.004,-0.01 0.026,-0.073 0.032,-0.08 0.023,-0.045 0.028,-0.048 0.047,-0.072 a 0.104,0.104 0 0 1 0.026,-0.022 h 0.002 l 0.006,0.014 a 0.443,0.443 0 0 0 -0.062,0.126 c -0.002,0.005 -0.007,0.032 0,0.038 10e-4,0.001 0.003,-0.004 0.003,-0.006 l 0.012,-0.03 a 0.476,0.476 0 0 1 0.047,-0.08 l 0.012,-0.015 a 0.506,0.506 0 0 1 0.011,0.034 l -0.002,-10e-4 a 0.076,0.076 0 0 0 -0.033,0.048 c -0.004,0.009 -0.01,0.017 -0.015,0.025 l -0.02,0.034 a 0.366,0.366 0 0 1 -0.043,0.054 l -0.004,0.006 0.01,-0.005 a 0.082,0.082 0 0 0 0.029,-0.025 c 0.005,-0.007 0.008,-0.015 0.012,-0.022 0.013,-0.02 0.027,-0.04 0.038,-0.062 0.005,-0.008 0.008,-0.027 0.013,-0.032 a 0.05,0.05 0 0 1 0.017,-0.011 v 0.003 a 0.654,0.654 0 0 1 0.005,0.032 l -0.003,0.006 -0.014,0.022 c -0.015,0.027 -0.024,0.058 -0.035,0.087 -0.007,0.018 -0.016,0.037 -0.018,0.057 a 0.041,0.041 0 0 0 0,0.015 c 0.003,0.008 0.008,0.019 0.008,0.029 l 0.003,-0.01 0.01,-0.048 c 0.008,-0.034 0.022,-0.046 0.044,-0.072 l 0.008,-0.01 c 0,0.1 -0.018,0.165 0.017,0.193 0.028,-0.017 0.032,-0.02 0.059,-0.031 0.039,-0.017 0.048,-0.018 0.057,-0.02 0.002,0.011 -0.033,0.039 -0.06,0.078 -0.037,0.052 -0.045,0.056 -0.036,0.078 0.012,0.033 0.051,0.145 0.084,0.215 0.015,0.031 0.06,0.11 0.097,0.158 0.056,0.074 0.08,0.1 0.127,0.136 0.01,0.008 0.017,-0.032 0.051,-0.084 0.034,-0.052 0.083,-0.102 0.089,-0.096 0.005,0.006 -0.031,0.079 -0.041,0.12 a 0.263,0.263 0 0 0 0.002,0.143 c 0.03,0.074 0.083,0.136 0.124,0.186 0.075,0.09 0.168,0.162 0.183,0.164 0.012,0.001 0.013,-0.049 0.026,-0.092 a 0.128,0.128 0 0 1 0.025,-0.046 c 0.007,-0.008 0.01,0.048 0.013,0.06 0.004,0.022 0.007,0.043 0.013,0.065 0.032,0.12 0.147,0.214 0.24,0.28 0.018,0.012 0.024,-0.022 0.04,-0.064 a 0.323,0.323 0 0 1 0.036,-0.07 c 0.003,-0.004 0.001,0.08 0.003,0.107 a 0.193,0.193 0 0 0 0.017,0.068 c 0.053,0.086 0.24,0.113 0.277,0.13 0.031,0.013 0.068,0.035 0.1,0.088 0.018,0.03 0.015,0.103 0.027,0.096 0.003,-0.002 0.005,-0.006 0.007,-0.013 0.008,-0.026 0.007,-0.086 0.007,-0.106 -0.001,-0.236 -0.081,-0.528 -0.22,-0.703 a 0.27,0.27 0 0 0 -0.069,-0.057 c -0.003,-0.002 0.007,0 0.01,0 0.023,0.003 0.045,0.001 0.092,0.028 0.015,0.009 -0.004,-0.053 -0.012,-0.07 a 0.782,0.782 0 0 0 -0.167,-0.244 0.555,0.555 0 0 0 -0.181,-0.123 c -0.008,-0.002 -0.068,-0.016 -0.067,-0.021 0.003,-0.023 0.079,-0.04 0.145,-0.024 0.018,0.01 -0.047,-0.1 -0.134,-0.193 -0.07,-0.075 -0.162,-0.18 -0.233,-0.228 -0.015,-0.01 -0.055,0 -0.099,-10e-4 a 0.627,0.627 0 0 1 -0.121,-0.017 c -0.012,-0.003 0.024,-0.038 0.073,-0.044 0.042,-0.007 0.065,-0.009 0.062,-0.012 -0.105,-0.116 -0.24,-0.192 -0.459,-0.279 a 0.482,0.482 0 0 1 -0.006,-0.002 0.022,0.022 0 0 1 0.009,-0.009 0.087,0.087 0 0 0 -0.014,0.006 l -0.013,-0.005 0.004,-0.009 a 0.41,0.41 0 0 0 0.037,0.001 0.117,0.117 0 0 0 -0.012,0.006 l -0.002,0.001 a 0.154,0.154 0 0 1 0.029,-0.005 h 0.011 c 0.002,0 -0.001,-0.003 -0.003,-0.004 0.01,-0.003 0.022,-0.009 0.032,-0.008 0.018,0.001 0.03,0.015 0.045,0.024 0.011,0.006 0.054,0.01 0.066,0.003 h -0.005 a 0.236,0.236 0 0 1 -0.063,-0.027 0.162,0.162 0 0 0 -0.104,-0.028 l -0.032,0.007 a 0.382,0.382 0 0 1 -0.045,0.003 h -0.014 l -0.022,-0.001 a 1.326,1.326 0 0 1 -0.054,-0.035 0.067,0.067 0 0 1 0.025,-0.01 c 0.03,-0.005 0.063,0.008 0.098,0.006 0.027,-0.002 0.037,-0.02 0.07,-0.016 0.01,0.001 0.02,0.006 0.03,0.01 a 0.062,0.062 0 0 0 0.035,0 l 0.005,-0.002 v -0.003 c 0,-0.002 -0.003,10e-4 -0.005,10e-4 h -0.014 a 0.122,0.122 0 0 1 -0.04,-0.011 0.1,0.1 0 0 0 -0.04,-0.01 c -0.02,10e-4 -0.025,0.003 -0.043,0.008 -0.026,0.007 -0.048,-0.004 -0.06,-0.004 -0.04,0.003 -0.033,-0.007 -0.073,0.012 l -0.013,0.003 a 1.589,1.589 0 0 1 -0.013,-0.008 l -0.008,-0.006 c 0.01,-0.004 0.019,-0.011 0.034,-0.02 0.023,-0.01 0.054,-0.008 0.078,-0.013 0.012,-0.003 0.031,-0.01 0.046,-0.012 A 0.188,0.188 0 0 1 16.081,12.27 c -0.024,-0.004 -0.016,0.001 -0.037,0.005 -0.017,0.003 -0.036,0 -0.058,0.005 a 0.27,0.27 0 0 0 -0.068,0.024 0.656,0.656 0 0 1 -0.02,-0.015 0.027,0.027 0 0 0 0.01,-0.01 l 0.004,-0.005 c 0.002,-0.004 0.007,-0.01 0.008,-0.015 l -0.003,0.002 -0.004,0.003 -0.006,0.004 a 0.997,0.997 0 0 1 -0.02,0.013 0.59,0.59 0 0 1 -0.015,-0.013 0.247,0.247 0 0 0 0.102,-0.058 c 0.005,-0.005 0.017,-0.01 0.014,-0.017 l -0.033,0.013 c -0.036,0.016 -0.077,0.036 -0.117,0.028 l 0.009,-10e-4 c 0.006,-0.004 0.01,-0.011 0.014,-0.017 a 0.17,0.17 0 0 1 0.008,-0.009 l -0.024,0.015 -0.009,0.004 c 10e-4,-0.007 0.002,-0.002 0.016,-0.021 0.006,-0.007 0.01,-0.013 0.009,-0.023 h 0.023 c 0.004,0.003 0.014,0.006 0.018,0.01 0.001,0.002 -0.002,0 -10e-4,0.004 0,10e-4 0.002,0.002 0.003,10e-4 0.002,-0.002 -0.006,-0.016 -0.006,-0.017 a 0.023,0.023 0 0 0 -0.005,-0.005 0.197,0.197 0 0 0 -0.069,0 l 0.003,-0.001 h -0.014 a 0.041,0.041 0 0 0 -0.011,0.005 H 15.8 l -0.007,0.002 -0.002,0.005 -0.01,-0.01 0.008,-10e-4 c 0.011,-0.003 0.018,-0.013 0.028,-0.017 0.005,-0.002 0.008,-10e-4 0.012,-0.002 l 0.012,-0.005 0.006,-0.003 h -10e-4 l -0.007,-10e-4 a 0.057,0.057 0 0 0 -0.023,0.004 0.057,0.057 0 0 0 -0.009,0.004 c -0.006,0.004 -0.01,0.01 -0.016,0.01 h -0.009 l -0.008,0.001 -0.03,-0.039 a 0.712,0.712 0 0 0 -0.11,-0.114 z m 0.191,0.16 h 0.009 -0.004 a 0.03,0.03 0 0 0 -0.005,0 z m 0.043,0.034 h 10e-4 c 0.003,-0.002 0.013,-0.004 0.013,-0.009 0,-0.003 -0.007,0.002 -0.014,0.01 z m 0.228,0.066 0.02,0.002 -0.012,-0.003 h -0.008 z m 0.15,0.064 c 0,0.004 0.006,0 0,0 z m -0.375,0.477 a 0.115,0.115 0 0 1 -0.003,0.009 l -0.002,0.005 a 0.018,0.018 0 0 0 0.005,-0.014 z m -0.062,-0.093 -0.003,0.005 z m -0.016,-0.17 v 0.002 -0.001 z m 0.05,-0.37 h 0.013 a 0.122,0.122 0 0 1 -0.03,0.044 0.718,0.718 0 0 1 -0.02,-0.021 l 0.002,-0.006 0.006,-0.012 a 0.079,0.079 0 0 1 0.029,-0.005 z m -0.071,0.203 h -10e-4 z m 0.276,0.147 c 0.083,0.055 0.178,0.141 0.263,0.237 0.09,0.103 0.19,0.212 0.273,0.31 a 4.609,4.609 0 0 1 0.49,0.642 c 0.082,0.124 0.166,0.25 0.228,0.384 0.005,0.01 0.04,0.083 0.038,0.097 v 0.002 a 7.19,7.19 0 0 0 -0.286,-0.408 c -0.11,-0.14 -0.165,-0.228 -0.266,-0.346 -0.078,-0.091 -0.144,-0.178 -0.218,-0.272 -0.1,-0.128 -0.198,-0.25 -0.301,-0.375 -0.093,-0.111 -0.164,-0.193 -0.22,-0.27 z"
       style="paint-order:markers stroke fill"
       transform="matrix(22.677,0,0,22.677,-258.374,-180.135)"
       id="path6" /></g></svg>
