<?xml version="1.0" encoding="UTF-8"?>
<svg version="1.1" viewBox="0 0 192 192" xmlns="http://www.w3.org/2000/svg">
 <circle class="a" cx="96" cy="96" r="88" style="fill:#98dc9a"/>
 <rect x="72.755" y="73.637" width="47.059" height="30.576" ry="2.6377" style="fill:#fff;stroke-linecap:round;stroke-linejoin:round;stroke-width:2.2777"/>
 <circle cx="83.765" cy="89.051" r="4.4668" style="fill:#98dc9a;stroke-linecap:round;stroke-linejoin:round;stroke-width:2.2777"/>
 <circle cx="108.43" cy="89.051" r="4.4668" style="fill:#98dc9a;stroke-linecap:round;stroke-linejoin:round;stroke-width:2.2777"/>
 <rect x="89.05" y="105.22" width="13.904" height="3.2715" rx="0" ry="0" style="fill:#98dc9a;stroke-linecap:round;stroke-linejoin:round;stroke-width:2.2777"/>
 <rect x="74.265" y="109.88" width="43.913" height="24.662" ry="2.894" style="fill:#fff;stroke-linecap:round;stroke-linejoin:round;stroke-width:2.2777"/>
 <path d="m73.95 117.93h26.172v13.778" style="fill:none;stroke-linecap:round;stroke-linejoin:round;stroke-width:2.2777;stroke:#98dc9a"/>
 <path d="m78.48 121.95h16.609" style="fill:none;stroke-linecap:round;stroke-linejoin:round;stroke-width:2.2777;stroke:#98dc9a"/>
 <circle cx="109.75" cy="121.5" r="3.8925" style="fill:none;stroke-linecap:round;stroke-linejoin:round;stroke-width:2.2777;stroke:#98dc9a"/>
 <path d="m72.812 128.31a5.761 5.761 0 0 1-4.9891-2.8805 5.761 5.761 0 0 1 0-5.761 5.761 5.761 0 0 1 4.9891-2.8805" style="fill:#fff"/>
 <path transform="scale(-1,1)" d="m-119.19 128.31a5.761 5.761 0 0 1-4.9892-2.8805 5.761 5.761 0 0 1 0-5.761 5.761 5.761 0 0 1 4.9892-2.8805" style="fill:#fff"/>
 <path d="m105.5 55.149c-4.5309 5.6047-6.8222 12.243-9.9649 18.489-1.1418-1.6401-1.5718-3.3395-1.2901-5.0982l1.6015-0.04449-1.2011-1.0677c-0.16312-1.3642 0.02965-2.6692 0.57832-3.9148l1.8684 0.9787-1.2011-1.6905c0.519-1.6905 1.3939-3.203 2.6247-4.5376l1.557 0.93421-0.9787-2.4912c1.2308-1.5867 2.8175-2.9954 4.76-4.2262l0.93421 1.2901 0.0445-1.8239c2.3281-0.88972 4.5376-1.2456 6.6284-1.0677-0.29657 2.2095-0.94903 4.3597-1.9574 6.4505l-2.0019 0.22243 1.5125 1.1122c-0.089 1.038-0.53383 1.8388-1.3346 2.4023l-2.3578 0.35589 1.646 0.80075c-0.13346 1.0232-0.5635 1.9277-1.2901 2.7137l-2.6692 0.04449 1.4236 1.0677c-0.47452 1.2604-1.2456 2.4023-2.3133 3.4254l-2.1353 0.26692 1.6905 0.84524c-1.2643 1.7884-3.0625 2.8057-5.3945 3.0519 2.8324-6.2633 5.0767-12.772 9.2203-18.489z" style="fill:#fff"/>
</svg>
