<svg xmlns="http://www.w3.org/2000/svg" viewBox="0 0 231.51 176"><defs><clipPath id="a" transform="translate(-4.59 -8)"><circle cx="96" cy="96" r="88" fill="none"/></clipPath></defs><g clip-path="url(#a)"><circle cx="91.4" cy="88" r="88" fill="#728dbe"/><circle cx="91.41" cy="88" r="36" fill="#96dfd3"/><path fill="#98dc9a" d="M152.65 141.37c-6.72-8.47-14.15-8.55-16-16.33-.65-2.81 1.3-8.18 5.2-18.93 5.28-14.56 7.76-17.1 8.91-18.18 4.15-3.9 7.38-4.08 8.16-7.42 1.2-5.12-5-10.66-6.31-11.88-6.2-5.63-10.45-3.69-15.2-8.91-.85-.94-1.33-1.68-5.2-12.25-5.17-14.14-5.52-16.11-4.45-18.18 1.83-3.55 5.19-2.3 10-6.68 5.77-5.24 4.75-10.45 7.79-13 6-5 24.2 3.53 39.71 16.7 10.87 9.22 56.3 47.78 44.17 92.41-10.32 38-56.71 60-67.55 52-5.95-4.45.84-16.72-9.23-29.35Z"/><path fill="#fff" d="M72.04 36c-1.46-1.76 2.89-5.15 2.6-10.76-.18-3.44-2-6.41-3.34-8.54-2.33-3.76-3.84-4.06-3.71-5.57.28-3.38 8.22-6.73 15.21-5.56 1.62.27 6.88 1.14 10 5.93a12.84 12.84 0 0 1 1.86 9.65c-.62 2.48-3.38 4.87-8.91 9.65-3.74 3.24-6.23 5-9.65 5.57-1.43.23-3.27.56-4.06-.37Z"/><path fill="#98dc9a" d="M80.41 5c-3.24-7-29.67-1.43-42.55 2.23-15.33 4.39-23 6.57-26.45 13.4-1.83 3.62-2.51 11-3.86 25.65A55.46 55.46 0 0 1 5.96 56a48.34 48.34 0 0 1-2.55 7.23 9.65 9.65 0 0 1 .44 2.2 12.5 12.5 0 0 0 .42 3.45c.61 1.75 2.18 2.84 3.25 4.3 1 1.31 1 2.58 2.92 2a21.38 21.38 0 0 0 3-1.07c.07-.11.15-.21.23-.32a24.62 24.62 0 0 1 6.43-6.18c2.53-1.64 4.16-2 7.67-3.22 12.69-4.45 14.25-8 20-7.17 2.66.36 3.86 1.31 5.69.49 2.75-1.23 3.83-5 4.71-8.16a31.35 31.35 0 0 0 1-5.69c.57-6-.65-6.58.24-8.66 1.81-4.2 7.14-2.58 9.65-6.93 2.1-3.64-.82-6.2 1.49-9.65 2.1-3.15 5.26-2.09 7.91-5.44 1.69-2.11 3.03-5.85 1.95-8.18ZM4.48 100.09v-.12c-.35-.12-.69-.21-1-.34A2 2 0 0 1 2.2 98.1q-.45-.18-.9-.39c-.24 1.73-.46 3.46-.65 5.16a19.57 19.57 0 0 1 2.76-1 1.7 1.7 0 0 1 1.07-1.78ZM54.72 146.81c-16-11-19-28.89-29.69-28.45-3.36.14-6.26 2-8.41.25a3.79 3.79 0 0 1-.84-1 5 5 0 0 1-.51-.27c-.88-.55-1.55-1.54-2.48-2-1.71-.81-3.2 3.27-3.53 4.47-.62 2.32-4.22 1.33-3.6-1A14.69 14.69 0 0 1 7.27 115c-1.27.35-2.52.73-3.76 1.17-1.82.64-3-1.78-1.92-3a1.88 1.88 0 0 1 .18-3.56l.38-.14a2 2 0 0 1 .46-2.38c-.78-.09-1.55-.19-2.33-.31-.12 1.45-.2 2.84-.24 4.14-.11 4-1 36.65 21.77 52.95 1.15.81 16.45 11.41 34.89 7.67 10-2 21.61-8.41 21-13.61-.51-4.78-10.8-2.71-22.98-11.12Z"/></g></svg>