<?xml version="1.0" encoding="UTF-8" standalone="no"?>
<svg
   version="1.1"
   viewBox="0 0 192 192"
   xml:space="preserve"
   id="svg10"
   sodipodi:docname="raven.svg"
   inkscape:version="1.2.2 (b0a8486541, 2022-12-01)"
   inkscape:export-filename="raven.png"
   inkscape:export-xdpi="96"
   inkscape:export-ydpi="96"
   xmlns:inkscape="http://www.inkscape.org/namespaces/inkscape"
   xmlns:sodipodi="http://sodipodi.sourceforge.net/DTD/sodipodi-0.dtd"
   xmlns="http://www.w3.org/2000/svg"
   xmlns:svg="http://www.w3.org/2000/svg"><defs
   id="defs14" /><sodipodi:namedview
   id="namedview12"
   pagecolor="#505050"
   bordercolor="#eeeeee"
   borderopacity="1"
   inkscape:showpageshadow="0"
   inkscape:pageopacity="0"
   inkscape:pagecheckerboard="0"
   inkscape:deskcolor="#d1d1d1"
   showgrid="false"
   inkscape:zoom="1.2291667"
   inkscape:cx="19.525424"
   inkscape:cy="96.40678"
   inkscape:window-width="1884"
   inkscape:window-height="1055"
   inkscape:window-x="36"
   inkscape:window-y="0"
   inkscape:window-maximized="1"
   inkscape:current-layer="svg10" />
	 <circle
   class="a"
   cx="96"
   cy="96"
   r="88"
   fill="#fff"
   id="circle2" /><path
   d="m 77.384439,70.728847 c 13.59465,-3.64264 29.261861,-7.840745 41.553641,-11.134232 1.90495,-0.510436 5.85237,1.125549 5.12388,2.958264 -1.5921,4.005297 -3.09647,7.842896 -4.99936,11.466186 -0.77667,1.478832 -1.92998,3.11117 -3.54348,3.543485 -14.31188,3.834847 -31.003338,8.307373 -43.621045,11.688062 -1.796079,0.481257 -4.627323,-2.214978 -3.944495,-3.944495 1.42018,-3.597061 3.456024,-7.897935 5.297166,-11.793841 0.70991,-1.502051 2.529304,-2.354124 4.134037,-2.784117 z"
   fill="#56595b"
   stroke-linecap="round"
   stroke-linejoin="round"
   stroke-width="9.54498"
   id="path4"
   style="fill:#56595b" /><path
   d="m 77.384439,92.205264 c 13.59465,-3.64264 29.261861,-7.840745 41.553641,-11.134232 1.90495,-0.510435 5.85237,1.125549 5.12388,2.958264 -1.5921,4.005297 -3.09647,7.842896 -4.99936,11.466187 -0.77667,1.478831 -1.92998,3.111169 -3.54348,3.543484 -14.31188,3.834843 -31.003338,8.307373 -43.621045,11.688063 -1.796079,0.48126 -4.627323,-2.21498 -3.944495,-3.9445 1.42018,-3.59706 3.456024,-7.897931 5.297166,-11.793837 0.70991,-1.50205 2.529304,-2.354124 4.134037,-2.784117 z"
   fill="#56595b"
   stroke-linecap="round"
   stroke-linejoin="round"
   stroke-width="9.54498"
   id="path6" /><path
   d="m 77.384439,113.92162 c 13.59465,-3.64264 29.261861,-7.84075 41.553641,-11.13423 1.90495,-0.51044 5.85237,1.12554 5.12388,2.95826 -1.5921,4.0053 -3.09647,7.84289 -4.99936,11.46619 -0.77667,1.47883 -1.92998,3.11117 -3.54348,3.54348 -14.31188,3.83485 -31.003338,8.30737 -43.621045,11.68806 -1.796079,0.48127 -4.627323,-2.21498 -3.944495,-3.94449 1.42018,-3.59706 3.456024,-7.89794 5.297166,-11.79384 0.70991,-1.50205 2.529304,-2.35413 4.134037,-2.78412 z"
   fill="#56595b"
   stroke-linecap="round"
   stroke-linejoin="round"
   stroke-width="9.54498"
   id="path8" /></svg>
