<?xml version="1.0" encoding="UTF-8" standalone="no"?>
<svg
   version="1.1"
   viewBox="0 0 192 192"
   id="svg2051"
   sodipodi:docname="rbtlui2&lt;.svg"
   xml:space="preserve"
   inkscape:export-filename="rbtlui2.png"
   inkscape:export-xdpi="96"
   inkscape:export-ydpi="96"
   inkscape:version="1.2.2 (b0a8486541, 2022-12-01)"
   xmlns:inkscape="http://www.inkscape.org/namespaces/inkscape"
   xmlns:sodipodi="http://sodipodi.sourceforge.net/DTD/sodipodi-0.dtd"
   xmlns="http://www.w3.org/2000/svg"
   xmlns:svg="http://www.w3.org/2000/svg"><defs
     id="defs2055"><style
       id="style2174">.a{fill:none;stroke:#b1b5bd;stroke-linecap:round;stroke-linejoin:round;isolation:isolate;opacity:0.63;}</style></defs><sodipodi:namedview
     id="namedview2053"
     pagecolor="#505050"
     bordercolor="#eeeeee"
     borderopacity="1"
     inkscape:showpageshadow="0"
     inkscape:pageopacity="0"
     inkscape:pagecheckerboard="0"
     inkscape:deskcolor="#d1d1d1"
     showgrid="false"
     inkscape:zoom="2.4583333"
     inkscape:cx="-14.237288"
     inkscape:cy="77.898305"
     inkscape:window-width="1884"
     inkscape:window-height="1055"
     inkscape:window-x="36"
     inkscape:window-y="0"
     inkscape:window-maximized="1"
     inkscape:current-layer="svg2051" /><g
     transform="matrix(0.34048532,0,0,0.34048532,8.8343609,6.406908)"
     id="g2049"><path
       d="M 256,25.6 C 192,147.2 51.2,89.6 51.2,89.6 V 256 c 0,179.2 204.8,230.4 204.8,230.4 0,0 204.8,-51.2 204.8,-230.4 V 89.6 c 0,0 -140.8,57.6 -204.8,-64 z"
       fill="#ff8080"
       stroke="#00000000"
       stroke-width="0.64"
       style="fill:#ff837d"
       id="path2035" /><path
       d="m 256.01,25.595 c -64,121.6 -204.81,64 -204.81,64 v 166.41 c 0,179.2 204.81,230.39 204.81,230.39 0,0 35.211,-8.8333 76.426,-31.907 V 94.548 l 0.0185,-0.01852 c -28.568,-10.154 -56.306,-30.662 -76.444,-68.926 z"
       style="fill:#96dfd3"
       id="path2037" /><path
       d="M 256,25.6 C 192,147.2 51.2,89.6 51.2,89.6 V 256 c 0,179.2 204.8,230.4 204.8,230.4 0,0 204.8,-51.2 204.8,-230.4 V 89.6 c 0,0 -140.8,57.6 -204.8,-64 z"
       fill="#00000000"
       stroke="#808080"
       stroke-linecap="square"
       stroke-width="19.2"
       style="fill:none;stroke:#56595b"
       id="path2039" /><g
       stroke-width="0.54528"
       id="g2047"><path
         d="m 363.28,366.39 c 28.46,-39.2 25.05,-94.52 -10.27,-129.85 -39.12,-39.11 -102.77,-39.11 -141.88,0 -39.12,39.12 -39.12,102.76 0,141.89 35.32,35.32 90.64,38.73 129.84,10.28 l 7.76,7.74 22.31,-22.31 z m -29.72,-7.41 c -28.43,28.43 -74.54,28.43 -102.98,0 -28.44,-28.44 -28.44,-74.55 0,-102.98 28.44,-28.43 74.55,-28.43 102.98,0 28.44,28.43 28.44,74.55 0,102.98 z"
         stroke="#808080"
         style="fill:#56595b;stroke:#56595b"
         id="path2041" /><path
         d="m 241.3,272.22 c -14.77,18.97 -15.99,45.07 -3.68,65.22 1.17,1.9 3.66,2.51 5.57,1.34 1.9,-1.17 2.51,-3.66 1.34,-5.56 -10.57,-17.29 -9.52,-39.79 3.15,-56.04 1.38,-1.76 1.06,-4.31 -0.7,-5.67 -1.76,-1.38 -4.31,-1.06 -5.67,0.7 z"
         stroke="#808080"
         style="fill:#56595b;stroke:#56595b"
         id="path2043" /><path
         d="m 455.16,446.37 -75.34,-67.3 -26.16,26.16 67.29,75.34 c 6.84,8.85 19.16,7.55 30.23,-3.52 11.07,-11.07 12.83,-23.85 3.97,-30.69 z"
         stroke="#00000000"
         style="fill:#56595b"
         id="path2045" /></g></g></svg>
