<?xml version="1.0" encoding="UTF-8"?><svg id="a" xmlns="http://www.w3.org/2000/svg" width="192" height="192" viewBox="0 0 192 192"><g id="b"><g id="c"><rect id="d" x="19.5" y="19.5" width="153" height="153" rx="10" ry="10" style="fill:#fff;"/><path d="m134.9,85.19h-26.99c-.61,0-1.1-.49-1.1-1.1v-26.99c0-.61-.49-1.1-1.1-1.1h-19.44c-.61,0-1.1.49-1.1,1.1v26.99c0,.61-.49,1.1-1.1,1.1h-26.99c-.61,0-1.1.49-1.1,1.1v19.44c0,.61.49,1.1,1.1,1.1h26.99c.61,0,1.1.49,1.1,1.1v26.99c0,.61.49,1.1,1.1,1.1h19.44c.61,0,1.1-.49,1.1-1.1v-26.99c0-.61.49-1.1,1.1-1.1h26.99c.61,0,1.1-.49,1.1-1.1v-19.44c0-.61-.49-1.1-1.1-1.1Z" style="fill:#ff837d;"/></g></g></svg>