<svg xmlns="http://www.w3.org/2000/svg" id="svg16" version="1.1" viewBox="0 0 192 192"><defs id="defs4"><style id="style2">.a{fill:none;stroke:#b1b5bd;stroke-linecap:round;stroke-linejoin:round;isolation:isolate;opacity:.63}</style></defs><path id="path831" d="M95.527 183.727c-19.272-.92-24.755-1.423-31.948-2.928-5.828-1.22-9.149-2.359-13.584-4.658-6.717-3.483-10.747-8.231-12.68-14.944-1.021-3.547-1.387-11.963-.744-17.133.632-5.079 2.74-15.785 4.457-22.636.8-3.193 2.204-9.555 3.12-14.138.916-4.582 2.633-12.215 3.815-16.962 1.182-4.746 2.412-9.951 2.734-11.567.537-2.696 1.324-10.12 1.104-10.404-.052-.067-.467.078-.923.322-1.634.874-9.108 3.246-12.857 4.08-2.99.664-4.898.846-8.778.833-4.42-.014-5.271-.125-7.846-1.016-6.237-2.158-9.315-5.677-10.705-12.237-.681-3.215-.68-5.59.004-9.18.75-3.938 2.376-7.076 5.095-9.835 4.113-4.172 9.303-6.27 16.574-6.698 7.651-.45 15.38 1.203 25.889 5.536.473.195.554-.463.575-4.64.02-3.83.195-5.473.823-7.706 2.237-7.948 7.702-15.076 14.21-18.532 2.266-1.205 2.873-1.365 5.14-1.36 1.91.005 2.963.21 4.097.8 2.337 1.216 3.064 2.368 3.064 4.857 0 2.733-.666 4.563-3.174 8.72-3.152 5.225-3.79 7.044-3.764 10.74.011 1.717.302 4.278.645 5.692.576 2.369.696 2.564 1.531 2.482 3.172-.31 10.181-.353 12.718-.078 3.948.427 9.326 1.558 14.023 2.948 2.091.618 4.02 1.04 4.286.939.677-.26 3.365-4.297 4.474-6.72 2.197-4.8 2.444-8.4 1.026-14.959-1.458-6.746-1.147-9.99 1.196-12.435 2.203-2.3 5.553-2.01 11.713 1.014 3.903 1.916 6.23 4.192 7.888 7.715 2.906 6.172 2.271 13.096-2.054 22.4-.845 1.817-1.98 4.006-2.524 4.865-.543.858-.932 1.56-.863 1.56.068 0 1.113-.4 2.32-.891 11.066-4.497 28.378-4.161 36.718.711 9.469 5.533 11.793 17.209 4.796 24.096-3.339 3.287-8.11 4.99-14.97 5.345-6.99.362-14.426-1.217-19.16-4.067l-2.108-1.27.007 1.717c.033 8.629 1.357 26.92 3.526 48.723 1.489 14.971 1.66 17.602 1.502 23.135-.197 6.949-.776 9.845-2.985 14.956-1.884 4.357-3.406 6.688-6.538 10.017-4.544 4.829-9.513 7.926-16.076 10.02-7.71 2.461-14.764 3.25-24.788 2.77z" style="fill:#56595b;fill-opacity:1;stroke-width:.36722574"/><path id="rect840" d="M77.396 12.132c-1.488.024-3.097.45-4.761 1.283-4.502 2.252-8.666 7.797-10.19 13.567-1.425 5.394-.709 14.137 1.586 19.36.97 2.207 1.418 2.345 2.68.825.607-.732 6.58-3.787 8.619-4.408 1.23-.375 1.452-.589 1.367-1.318-.43-3.695-.484-9.343-.103-10.87.603-2.411 2.156-5.833 3.547-7.812 3.026-4.304 3.795-7.284 2.253-8.732-1.374-1.291-3.086-1.926-4.998-1.895zm43.938 1.275c-1.814-.076-1.589.912-.468 6.414 1.066 5.235 1.194 10.03.354 13.271-.825 3.184-2.969 7.879-4.807 10.525-.883 1.272-1.606 2.435-1.606 2.585 0 .15.537.53 1.193.842.657.313 3.26 1.667 5.784 3.008 2.525 1.341 4.7 2.442 4.834 2.446.135.003.94-.779 1.789-1.738 5.736-6.48 9.507-15.49 9.072-21.676-.364-5.186-2.442-8.912-6.628-11.884-3.308-2.349-5.293-3.254-7.92-3.612-.65-.088-1.178-.163-1.597-.18zM33.175 38.651c-4.72-.075-8.796.734-12.552 2.438-3.073 1.393-4.743 2.974-6.14 5.81-1.111 2.26-1.186 2.658-1.185 6.304.002 4.612.653 7.137 2.514 9.755 3.003 4.223 6.362 5.765 14.716 6.756.202.024 1.855-.123 3.673-.328 7.377-.829 12.752-2.403 19.109-5.594l4.052-2.035.62-1.964c.341-1.08 1.426-3.369 2.41-5.086l1.791-3.121-1-2.347c-.912-2.137-1.227-2.49-3.526-3.945-3.463-2.193-7.001-3.61-12.143-4.866-4.606-1.125-8.668-1.718-12.339-1.777Zm6.4 9.096c7.35-.04 18.444 1.795 20.485 3.835.485.485.456.737-.259 2.207-.443.913-1.315 1.969-1.936 2.346-1.253.762-11.432 3.725-15.845 4.613-3.02.607-10.04.722-11.806.192-2.439-.73-3.705-2.956-3.132-5.505.837-3.726 3.13-5.925 7.482-7.176 1.19-.342 2.954-.5 5.012-.512zm113.24.93c-7.926-.033-10.383.354-17.374 2.733-4.076 1.388-5.945 2.288-5.945 2.864 0 .157 1.055 1.126 2.345 2.154l2.346 1.87 3.254-1.455c5.167-2.31 9.133-3.255 14.652-3.495 3.892-.169 5.196-.09 6.977.425 4.916 1.42 6.826 4.597 4.847 8.063-.962 1.686-2.62 2.635-5.549 3.177-2.173.401-7.868-.077-15.285-1.283-1.717-.28-3.172-.459-3.235-.399-.312.303 1.073 2.723 2.17 3.794 3.691 3.6 7.89 5.342 15.57 6.46.606.088 3.25.102 5.876.031 3.523-.095 5.415-.329 7.217-.892 5.403-1.69 7.851-4.514 7.545-8.703-.362-4.94-3.981-9.612-9.488-12.245-5.377-2.57-7.921-3.066-15.923-3.1zM37.68 51.99c-3.835.006-4.579.141-5.96.774-1.374.63-1.743.986-1.743 1.681 0 2.473 4.434 3.407 11.632 2.45 3.55-.471 12.237-2.564 12.237-2.947 0-.28-1.305-.608-5.875-1.474-1.313-.248-5.114-.464-8.447-.48-.685-.003-1.296-.005-1.844-.005zm115.424 5.512c-4.675-.039-10.85.505-11.32 1.266-.256.414.476.586 6.072 1.427 4.845.728 13.034.985 13.383.42.296-.478-1.738-2.087-3.367-2.664-.828-.293-2.643-.431-4.768-.449zM136.83 62.83c-.493.046-.57.377-.627 1.186-.131 1.844-1.426 4.463-2.764 5.592-1.92 1.619-3.468 2.1-6.146 1.907-2.645-.189-8.546-2.325-10.534-3.813-1.474-1.103-1.71-1.095-2.34.082-.749 1.398-4.226 4.46-6.181 5.44-3.617 1.816-8.862 1.91-11.613.21-1.361-.84-2.477-3.247-2.942-6.346-.142-.951-.316-1.73-.385-1.73-.07 0-.835.675-1.703 1.5-.867.825-3.13 2.264-5.03 3.199-3.217 1.582-3.681 1.707-6.793 1.821-2.958.11-3.509.026-4.81-.729-1.472-.855-3.461-3.797-3.48-5.148-.011-.899-.833-.8-1.785.213-.442.47-1.587 1.253-2.544 1.74-1.503.766-2.252.886-5.539.889l-3.801.004-1.205-1.435c-1.162-1.383-1.22-1.407-1.615-.667-.226.422-.413 1.646-.414 2.72-.005 3.356-.5 5.892-4.222 21.599-.885 3.736-2.123 9.355-2.75 12.485-.628 3.131-2.285 10.402-3.682 16.158-2.388 9.841-2.82 12.087-4.271 22.218-.77 5.38-.499 12.488.625 16.341 1.141 3.912 2.231 5.874 4.776 8.595 2.842 3.037 5.28 4.643 10.14 6.68 6.756 2.83 13.214 4.167 23.807 4.93 12.66.91 15.37 1.015 24.237.936 7.874-.07 9.756-.199 13.22-.909 4.876-1 8.372-2.402 13.112-5.26 4.861-2.932 7.834-6.173 10.196-11.116 4.377-9.163 4.404-11.388.58-47.74-.73-6.946-1.991-27.872-2.285-37.93-.13-4.503-.377-8.272-.546-8.376-.17-.105-.308-.747-.308-1.426 0-.88.312-1.549 1.086-2.323l1.087-1.086-1.133-.227c-.679-.136-1.123-.211-1.418-.184zm-30.668 19.49c.885.02 1.606.304 3.113 1.088 2.065 1.074 2.49 1.484 3.374 3.25 2.01 4.01 2.294 7.876.878 11.934-.742 2.129-1.268 2.923-3.062 4.624-2.287 2.17-4.845 3.639-6.332 3.638-.492 0-1.468-.29-2.17-.643-1.538-.773-3.152-3.27-3.88-6.003-.756-2.843-.68-7.483.167-10.299.386-1.284.808-2.85.937-3.481.405-1.985 2.94-3.695 6-4.05a7.04 7.04 0 0 1 .975-.058zm-24.997.348c2.094.04 4.345 1.471 6.18 4.2 1.734 2.58 2.25 4.482 2.034 7.5-.366 5.13-5.124 11.385-8.658 11.385-.38 0-1.247-.374-1.925-.83-1.679-1.132-3.537-3.652-4.071-5.52-1.062-3.712.057-11.27 2.11-14.257 1.167-1.698 2.701-2.51 4.33-2.478zm22.48 3.61c-1.599-.04-2.02.583-2.563 2.745-.613 2.438-.752 6.105-.279 7.309.24.61.31.584.693-.258.43-.945 1.946-1.918 3.826-2.458 2.356-.675 5.445 1.434 5.445 3.719 0 1.512.596 1.337.854-.25.727-4.482-2.82-10.17-6.664-10.686-.51-.069-.942-.112-1.311-.121zm-24.01.382c-.753-.04-1.242.354-1.548 1.19-.41 1.124-1.005 7.622-.696 7.619.078 0 .955-.414 1.949-.918.994-.504 2.197-.917 2.674-.917 1.17 0 3.11.842 3.768 1.636.705.85.887.212.421-1.476-.647-2.345-2.678-5.301-4.295-6.253-.943-.555-1.688-.85-2.273-.881zm-8.761 54.164c.267-.011.56.147 1.112.464 1.386.794 2.793 3.434 2.793 5.238 0 2.566-.994 4.937-2.746 6.552-1.402 1.293-1.875 1.513-3.213 1.5-.863-.007-2.022-.259-2.575-.559-2.198-1.192-2.737-4.506-1.25-7.688 1.03-2.207 2.665-4.223 3.424-4.223.304 0 .974-.332 1.49-.737.454-.357.697-.537.965-.547zm33.226 2.388c5.401.007 7.859 2.891 6.015 7.06-2.183 4.936-6.307 7.964-9.322 6.847-1.497-.554-2.275-2.574-2.258-5.855.017-3.065.28-3.751 2.405-6.31 1.35-1.625 1.567-1.744 3.16-1.742zm-35.518 1.49-.757 1.225c-1 1.619-.956 2.627.165 3.748.72.72 1.227.898 2.296.81 1.204-.1 1.386-.243 1.491-1.164.175-1.525-.515-2.876-1.943-3.805zm33.005 2.547v2.387c0 3.544 1.397 4.694 3.855 3.171 1.507-.933 2.394-2.564 1.984-3.646-.394-1.039-2.385-1.912-4.359-1.912z" style="opacity:1;vector-effect:none;fill:#fff;fill-opacity:1;fill-rule:evenodd;stroke:none;stroke-width:.36722574;paint-order:stroke fill markers"/></svg>