<?xml version="1.0" encoding="UTF-8"?>
<svg version="1.1" viewBox="0 0 192 192" xmlns="http://www.w3.org/2000/svg">
 <circle class="a" cx="96" cy="96" r="88" style="fill:#fff"/>
 <path d="m56.866 100.21v-4.0625h5.5752v-5.3591h5.2726v-4.9269h5.4455v-9.5944h6.3531v-20.053h4.9701v9.8105h6.0938v-5.2294h11.194v5.2726h5.2726v4.8837h5.8777v5.3158h5.2726v4.4947h6.2234v5.143h5.1862v4.9269h5.7912v5.143h-5.8345v4.4515h-5.2726v9.9834h-6.1802v5.3591h-5.3158v4.4515h-5.7048v5.4023h-11.237v-5.2294h-11.064v-4.5379h-5.0998v-5.4887h-6.3531v-4.754h-5.3158v-5.4023z" style="fill:#56595b;stroke-linecap:round;stroke-linejoin:round;stroke-width:3.5404"/>
 <path d="m68.016 105.62h-11.41v30.166h5.3158v-10.156h6.0938z" style="fill:#9abeff;stroke-linecap:round;stroke-linejoin:round;stroke-width:3.5404"/>
 <rect x="79.296" y="80.506" width="5.4887" height="5.4887" style="fill:#fff;stroke-linecap:round;stroke-linejoin:round;stroke-width:3.5404"/>
</svg>
