<?xml version="1.0" encoding="UTF-8"?>
<svg id="Icons" xmlns="http://www.w3.org/2000/svg" viewBox="0 0 192 192">
  <defs>
    <style>
      .cls-1 {
        fill: #56595b;
      }

      .cls-2 {
        fill: #d3b69a;
      }
    </style>
  </defs>
  <g id="Done">
    <g id="River">
      <rect class="cls-1" x="20" y="20" width="152" height="152" rx="10" ry="10"/>
      <path class="cls-2" d="M67.86,124.06l23.13-50.69c.08-.17.42-.08.33.17l-16.62,48.02c2.51-.75,5.01-1.42,7.6-1.92l11.02-45.51c.08-.25.42-.17.33.08l-6.43,44.59c2.09-.25,4.26-.42,6.43-.5l2.09-43.92c0-.25.33-.25.33,0l2.09,43.92c2.17.08,4.34.25,6.43.5l-6.43-44.59c0-.25.33-.25.33-.08l11.02,45.51c2.59.5,5.09,1.17,7.6,1.92l-16.45-48.02c-.08-.25.25-.33.33-.17l23.13,50.69c4.18,1.84,8.18,4.01,11.86,6.6l-40-69.31-40,69.31c3.67-2.59,7.68-4.76,11.86-6.6"/>
    </g>
  </g>
</svg>