<?xml version="1.0" encoding="UTF-8"?>
<svg version="1.1" viewBox="0 0 192 192" xmlns="http://www.w3.org/2000/svg">
 <rect class="a" x="20" y="20" width="152" height="152" rx="10" style="fill:#8c72bd"/>
 <path id="Daisywheel" d="m90.145 80.659c-7.1398 2.5637-9.5967 9.5064-9.5967 9.5064-0.9605 2.5625-3.512 4.4859-6.3899 4.4859h-13.538c-3.7296 0-6.8193-3.1019-6.8193-6.8358 0-3.741 2.5574-6.7301 6.8193-6.7301l10.738 0.01901-15.536-15.609c-2.6591-2.6718-2.6591-6.9439 0-9.6038 2.6662-2.6695 6.9328-2.6695 9.5931 0l15.454 15.455v-10.654c0-3.7351 2.9856-6.8275 6.8193-6.8275 3.7367 0 6.7199 3.0924 6.7199 6.8275v13.559c0 2.8845-1.7069 5.5575-4.2643 6.4081m-2.4557 57.45c-3.7249 0-6.7152-2.4639-6.6052-6.73l0.01774-10.825-15.58 15.626c-2.6615 2.6766-7.0334 2.6766-9.5908 0-2.6615-2.6623-2.6615-7.0425 0-9.6015l15.413-15.493h-10.616c-3.8372 0-6.8169-3.0936-6.8169-6.8215 0-3.741 2.9797-6.8382 6.8169-6.8382h13.533c2.8768 0 5.4365 1.7048 6.3994 4.2709 2.4521 7.2552 9.3719 9.7108 9.3719 9.7108 2.6698 0.95991 4.4831 3.4155 4.4831 6.4069v13.565c0 3.7386-2.9891 6.73-6.8264 6.73m43.583-27.126-10.758-0.0118 15.551 15.607c2.665 2.6647 2.665 6.9392 0 9.6015-2.6591 2.6766-6.9281 2.6766-9.5896 0l-15.452-15.481v10.68c0 4.063-3.0932 6.837-6.8216 6.837-3.7332 0-6.8228-3.0983-6.8228-6.837v-13.565c0-2.8845 1.811-5.5527 4.3719-6.4069 7.1375-2.4556 9.5884-9.4981 9.5884-9.4981 0.95931-2.5578 3.519-4.4835 6.3958-4.4835h13.537c3.7343 0 6.8205 3.0971 6.8205 6.8382 0 3.728-2.7703 6.7194-6.8205 6.7194m0.10765-16.441h-13.538c-2.8756 0-5.543-1.7084-6.3934-4.2709-2.4545-7.1554-9.4843-9.7203-9.4843-9.7203-2.5586-0.96228-4.4784-3.4155-4.4784-6.4093v-13.558c0-3.7339 3.0909-6.7194 6.8252-6.7194 3.7272 0 6.7128 2.774 6.7128 6.7194l2e-3 10.867 15.555-15.667c2.665-2.6659 6.9293-2.6659 9.5931 0 2.665 2.6611 2.665 7.0401 0 9.712l-15.344 15.376h10.55c3.7284 0 6.8181 3.0971 6.8181 6.8358 0 3.7375-3.0897 6.8346-6.8181 6.8346" fill="#fff" style="fill-rule:evenodd;fill:#fff"/>
</svg>
