<?xml version="1.0" encoding="UTF-8"?><svg id="a" xmlns="http://www.w3.org/2000/svg" xmlns:xlink="http://www.w3.org/1999/xlink" viewBox="0 0 192 192"><defs><clipPath id="d"><path id="e" d="M30,20h132c5.52,0,10,4.48,10,10v132c0,5.52-4.48,10-10,10H30c-5.52,0-10-4.48-10-10V30c0-5.52,4.48-10,10-10Z" style="clip-rule:evenodd; fill:none;"/></clipPath></defs><g id="b"><g id="c"><g style="clip-path:url(#d);"><path id="f" d="M30,20h132c5.52,0,10,4.48,10,10v132c0,5.52-4.48,10-10,10H30c-5.52,0-10-4.48-10-10V30c0-5.52,4.48-10,10-10Z" style="fill:#56595b; fill-rule:evenodd;"/><rect x="20" y="20" width="76" height="76" style="fill:#f9de81;"/><rect x="96" y="20" width="76" height="76" style="fill:#9abeff;"/><rect x="96" y="96" width="76" height="76" style="fill:#ff837d;"/><rect x="20" y="96" width="76" height="76" style="fill:#96dfd3;"/><path d="M40.5,68.01v-2.98c5.75,2.61,11.3,3.92,16.67,3.92,3.51,0,6.36-.46,8.56-1.37-1.4-.72-2.44-1.61-3.14-2.69-.7-1.08-1.05-2.35-1.05-3.8,0-1.91.69-3.55,2.07-4.92,1.38-1.37,3.03-2.05,4.96-2.05s3.53.68,4.89,2.04c1.36,1.36,2.04,2.99,2.04,4.91,0,3.05-1.86,5.59-5.59,7.61-3.73,2.02-8.4,3.04-14.02,3.04-4.86,0-9.99-1.23-15.39-3.7ZM63.38,61.11c0,1.39.51,2.59,1.53,3.59,1.02,1,2.24,1.51,3.66,1.51s2.63-.49,3.61-1.47c.99-.98,1.48-2.18,1.48-3.59s-.5-2.67-1.49-3.68c-.99-1.01-2.2-1.51-3.62-1.51s-2.65.5-3.66,1.5c-1.01,1-1.51,2.22-1.51,3.65ZM75.5,48v2.98c-5.75-2.63-11.3-3.94-16.67-3.94-3.51,0-6.37.46-8.58,1.39,1.41.7,2.46,1.6,3.16,2.68.7,1.08,1.05,2.35,1.05,3.81,0,1.91-.69,3.55-2.07,4.92-1.38,1.37-3.03,2.05-4.96,2.05s-3.55-.68-4.9-2.04c-1.35-1.36-2.03-2.99-2.03-4.91,0-3.06,1.86-5.6,5.59-7.63,3.73-2.02,8.4-3.04,14.02-3.04,4.87,0,10,1.24,15.39,3.72ZM52.62,54.9c0-1.4-.51-2.6-1.54-3.6-1.03-1-2.25-1.5-3.67-1.5s-2.62.49-3.61,1.47c-.98.98-1.47,2.18-1.47,3.59s.5,2.67,1.49,3.68c.99,1.01,2.2,1.51,3.62,1.51s2.65-.5,3.66-1.51c1.01-1.01,1.51-2.22,1.51-3.64Z" style="fill:#c39a54; stroke:#c39a54; stroke-linejoin:round; stroke-width:1.9px;"/><path d="M147.69,72.75c-2,1.83-3.91,2.75-5.74,2.75-1.59,0-2.93-.53-4.01-1.58-1.08-1.06-1.62-2.36-1.62-3.9,0-2.07,1.08-5.4,3.25-10.01l1.66-3.53c1.28-2.74,1.92-4.95,1.92-6.65,0-2.17-.63-3.91-1.89-5.23-1.26-1.32-2.93-1.97-5.01-1.97-1.95,0-3.53.59-4.73,1.76s-1.81,2.71-1.81,4.61c0,1.75.57,3.81,1.7,6.16l.67,1.4c1.12,2.32,1.68,4.03,1.68,5.12,0,1.77-.67,3.3-2,4.61-1.33,1.3-2.9,1.96-4.71,1.96s-3.46-.66-4.77-1.97c-1.31-1.31-1.96-2.91-1.96-4.79s.65-3.38,1.94-4.7c1.29-1.32,2.83-1.98,4.62-1.98.65,0,1.36.12,2.15.36-1.25-2.39-1.87-4.5-1.87-6.33,0-2.39.86-4.37,2.59-5.96,1.72-1.59,3.89-2.38,6.5-2.38,2.86,0,5.16.84,6.89,2.52,1.73,1.68,2.6,3.91,2.6,6.69,0,1.38-.14,2.58-.43,3.58-.29,1-.97,2.66-2.04,4.97l-1.19,2.6c-2.12,4.59-3.18,7.56-3.18,8.91,0,.99.3,1.81.89,2.45.59.64,1.35.96,2.27.96,1.21,0,2.6-.69,4.15-2.06l1.51,1.64ZM122.24,61.5c0,1.36.45,2.51,1.36,3.43.91.93,2.02,1.39,3.35,1.39s2.4-.47,3.31-1.4c.92-.93,1.37-2.06,1.37-3.39s-.45-2.49-1.37-3.42c-.91-.93-2.03-1.39-3.36-1.39s-2.39.47-3.3,1.4c-.91.93-1.37,2.06-1.37,3.37Z" style="fill:#728dbe; stroke:#728dbe; stroke-linejoin:round; stroke-width:1.77px;"/><path d="M48.51,130.86v13.43s-2.74,0-2.74,0v-19.9c0-2.75-.75-5.25-2.26-7.5h1.77c.73,0,1.41.39,1.77,1.02.68,1.23,1.16,2.69,1.46,4.4.67-1.66,1.43-3.07,2.25-4.23.56-.78,1.41-1.28,2.35-1.45h.03c.8-.16,1.63.19,2.02.9.8,1.41,1.32,3.12,1.57,5.15.49-1.55,1.29-3.08,2.39-4.57.57-.77,1.41-1.3,2.36-1.48h0c.79-.15,1.6.22,2,.92.99,1.75,1.48,3.64,1.48,5.67v5.22c.58-1.65,1.19-3.01,1.82-4.1.3-.52.77-.92,1.34-1.13h0c.87-.32,1.84.05,2.27.87,1.4,2.6,2.1,5.31,2.1,8.13,0,2.64-.58,5.12-1.75,7.44-1.17,2.32-2.91,4.48-5.25,6.48.22,1.6,1.17,3.42,2.83,5.46h-3.22c-.78-.99-1.47-2.29-2.07-3.92-1.71.97-3.81,1.66-6.29,2.05v-2.35c2.34-.48,4.26-1.17,5.76-2.05-.18-1.18-.28-2.38-.28-3.57v-16.66c0-2.71-.39-4.76-1.18-6.14-.86.93-1.62,2.02-2.28,3.28-1.4,2.68-2.01,5.69-2.01,8.71v13.34h-2.76v-18.27c0-3.39-.4-5.75-1.2-7.07-.47.55-.91,1.13-1.33,1.75-2.01,2.98-2.95,6.56-2.95,10.16ZM64.96,143.57c1.6-1.63,2.8-3.38,3.6-5.25s1.19-3.85,1.19-5.95-.48-4.32-1.44-6.39c-.4.49-.78,1.03-1.13,1.62-1.52,2.51-2.22,5.43-2.22,8.37v7.59Z" style="fill:#73ada4; stroke:#73ada4; stroke-linejoin:round; stroke-width:1.9px;"/><path d="M116.5,148.65v-3.28h35v3.28h-35ZM130.34,135.83v3.06h-13.84v-3.28h9.7c-1.76-1.8-2.64-3.82-2.64-6.06,0-2.78,1.03-5.18,3.09-7.18,2.06-2.01,4.51-3.01,7.36-3.01s5.3,1,7.36,3.01c2.06,2.01,3.09,4.4,3.09,7.18,0,2.24-.88,4.26-2.64,6.06h9.68v3.28h-13.84v-3.06c2.36-1.52,3.54-3.56,3.54-6.12,0-1.93-.71-3.59-2.13-4.99-1.42-1.4-3.11-2.1-5.06-2.1s-3.66.7-5.07,2.1c-1.42,1.4-2.12,3.06-2.12,4.99,0,2.56,1.17,4.6,3.52,6.12Z" style="fill:#ba6561; stroke:#ba6561; stroke-linejoin:round; stroke-width:2.25px;"/></g></g></g></svg>