<?xml version="1.0" encoding="UTF-8"?>
<svg version="1.1" viewBox="0 0 192 192" xml:space="preserve" xmlns="http://www.w3.org/2000/svg" xmlns:xlink="http://www.w3.org/1999/xlink"><defs><linearGradient id="linearGradient379" x1="39" x2="67.003" y1="46.5" y2="46.5" gradientUnits="userSpaceOnUse"><stop stop-color="#9abeff" offset="0"/><stop stop-color="#bd9aff" offset="1"/></linearGradient></defs><circle class="a" cx="96" cy="96" r="88" fill="#56595b"/><g transform="matrix(1.5062 0 0 1.5062 16.168 12.404)"><path d="m49.77 32c-4.79-2.84-10.77 0.71-10.77 6.4v16.2c0 2.57 1.22 4.7 3 6.01v-3.34c0-3.77 4.73-5.45 7.1-2.53l3.65 4.49 10.66-6.33c4.79-2.85 4.79-9.95 0-12.8z" fill="url(#linearGradient379)" fill-rule="evenodd"/><path d="m42 73v-16.73c0-3.77 4.73-5.45 7.1-2.53l13.6 16.74c2.12 2.61 0.26 6.52-3.1 6.52h-13.6c-2.21 0-4-1.79-4-4z" fill="none" stroke="#fff" stroke-width="6"/></g></svg>
