<?xml version="1.0" encoding="UTF-8"?><svg id="a" xmlns="http://www.w3.org/2000/svg" width="192" height="192" xmlns:xlink="http://www.w3.org/1999/xlink" viewBox="0 0 192 192"><defs><clipPath id="d"><rect id="e" x="19.5" y="19.5" width="153" height="153" rx="10" ry="10" style="fill:none;"/></clipPath><mask id="g" x="59.5" y="70.43" width="73.04" height="51.12" maskUnits="userSpaceOnUse"><g id="h"><path id="i" d="m59.58,70.43h72.96v50.97H59.58v-50.97Z" style="fill:#fff; fill-rule:evenodd;"/></g></mask></defs><g id="b"><g id="c"><g style="clip-path:url(#d);"><rect id="f" x="19.5" y="19.5" width="153" height="153" rx="10" ry="10" style="fill:#fff;"/></g><g style="mask:url(#g);"><path d="m89.88,76.01c2.36-2.45,5.63-3.97,9.25-3.97,4.83,0,9.01,2.68,11.27,6.68,2-.89,4.17-1.36,6.36-1.35,8.69,0,15.75,7.11,15.75,15.88s-7.05,15.88-15.75,15.88c-1.06,0-2.1-.11-3.11-.31-1.97,3.51-5.74,5.9-10.03,5.9-1.75,0-3.47-.39-5.04-1.16-2,4.69-6.65,7.99-12.07,7.99s-10.46-3.57-12.31-8.58c-.82.17-1.66.26-2.51.26-6.73,0-12.18-5.53-12.18-12.31,0-4.56,2.45-8.53,6.09-10.68-.77-1.78-1.17-3.7-1.17-5.63,0-7.83,6.36-14.16,14.19-14.16,4.59,0,8.69,2.19,11.27,5.58" style="fill:#9abeff; fill-rule:evenodd;"/></g></g></g></svg>