<?xml version="1.0" encoding="UTF-8" standalone="no"?>
<svg
   xml:space="preserve"
   style="fill-rule:evenodd;clip-rule:evenodd;stroke-linejoin:round;stroke-miterlimit:2"
   viewBox="0 0 192 192"
   version="1.1"
   id="svg14"
   sodipodi:docname="samsung_smart_things.svg"
   inkscape:version="1.2.2 (b0a8486541, 2022-12-01)"
   inkscape:export-filename="samsung_smart_things.png"
   inkscape:export-xdpi="96"
   inkscape:export-ydpi="96"
   xmlns:inkscape="http://www.inkscape.org/namespaces/inkscape"
   xmlns:sodipodi="http://sodipodi.sourceforge.net/DTD/sodipodi-0.dtd"
   xmlns="http://www.w3.org/2000/svg"
   xmlns:svg="http://www.w3.org/2000/svg"><defs
     id="defs18" /><sodipodi:namedview
     id="namedview16"
     pagecolor="#505050"
     bordercolor="#eeeeee"
     borderopacity="1"
     inkscape:showpageshadow="0"
     inkscape:pageopacity="0"
     inkscape:pagecheckerboard="0"
     inkscape:deskcolor="#d1d1d1"
     showgrid="false"
     inkscape:zoom="1.2291667"
     inkscape:cx="19.525424"
     inkscape:cy="96.40678"
     inkscape:window-width="1884"
     inkscape:window-height="1055"
     inkscape:window-x="36"
     inkscape:window-y="0"
     inkscape:window-maximized="1"
     inkscape:current-layer="svg14" /><path
     d="M164.5 21.5c0-5.519-4.481-10-10-10h-133c-5.519 0-10 4.481-10 10v133c0 5.519 4.481 10 10 10h133c5.519 0 10-4.481 10-10v-133Z"
     style="fill:#fff"
     transform="translate(8 8)"
     id="path2" /><path
     d="m 96.025159,84.593336 c 8.051961,0 14.589201,6.537238 14.589201,14.589202 0,8.051962 -6.53724,14.589202 -14.589201,14.589202 -8.051964,0 -14.589202,-6.53724 -14.589202,-14.589202 0,-8.051964 6.537238,-14.589202 14.589202,-14.589202 z m 0,4.867177 c 5.366061,0 9.722021,4.355967 9.722021,9.722025 0,5.366062 -4.35596,9.722022 -9.722021,9.722022 -5.366058,0 -9.722025,-4.35596 -9.722025,-9.722022 0,-5.366058 4.355967,-9.722025 9.722025,-9.722025 z m 21.325331,0.850646 c -0.67969,-4.992103 2.28565,-9.914345 7.24488,-11.526053 5.57482,-1.811425 11.57126,1.244327 13.38268,6.819143 1.81143,5.574816 -1.2435,11.572078 -6.81914,13.382681 -4.85567,1.57801 -10.0327,-0.536688 -12.48354,-4.793207 l -3.39437,1.102963 -1.26734,-3.901467 z m 17.25785,-3.612165 c 1.20734,3.7149 -0.82845,7.711705 -4.54418,8.919048 -3.7149,1.20652 -7.71088,-0.829278 -8.91822,-4.545 -1.20734,-3.7149 0.82928,-7.710883 4.54418,-8.918226 3.7149,-1.207342 7.7117,0.829278 8.91822,4.544178 z"
     style="fill:#9abeff;stroke-width:0.821881"
     id="path4" /><path
     d="m 111.00235,116.79197 c 4.53774,-2.18907 10.13541,-0.88992 13.20072,3.32854 3.44548,4.7422 2.39229,11.38944 -2.34991,14.83492 -4.74221,3.44548 -11.38997,2.39332 -14.83492,-2.34992 -3.00126,-4.13038 -2.58985,-9.7075 0.70098,-13.35373 l -2.09789,-2.8874 3.31888,-2.41094 z m 8.76834,15.29697 c -3.15999,2.29622 -7.59027,1.59514 -9.88674,-1.56563 -2.29544,-3.16025 -1.59411,-7.58975 1.56667,-9.88622 3.15999,-2.29622 7.58974,-1.59411 9.88596,1.56588 2.29622,3.15999 1.59436,7.59053 -1.56589,9.88597 z"
     style="fill:#9abeff;stroke-width:0.821881"
     id="path6" /><path
     d="m 83.854865,118.93751 c 3.484169,3.63918 3.978376,9.36435 0.913615,13.58321 -3.445392,4.74226 -10.09274,5.79473 -14.835008,2.34934 -4.742268,-3.4454 -5.79588,-10.09293 -2.34934,-14.83501 3.000788,-4.13073 8.432079,-5.46288 12.916775,-3.45986 l 2.097795,-2.88747 3.318524,2.41142 z M 72.01615,132.00372 c -3.160324,-2.29576 -3.862592,-6.72585 -1.566168,-9.88666 2.296242,-3.15966 6.725673,-3.86144 9.88648,-1.56502 3.160324,2.29576 3.861444,6.72567 1.565685,9.886 -2.29576,3.16032 -6.726338,3.86192 -9.885997,1.56568 z"
     style="fill:#9abeff;stroke-width:0.821881"
     id="path8" /><path
     d="m 94.127437,76.089338 c -4.957584,-0.89585 -8.723441,-5.237023 -8.723441,-10.451033 0,-5.861653 4.759511,-10.621163 10.621163,-10.621163 5.861651,0 10.621161,4.75951 10.621161,10.621163 0,5.106344 -3.61134,9.375191 -8.416878,10.391036 v 9.168899 h -4.102005 z m 1.897722,-17.529069 c 3.906398,0 7.078031,3.171637 7.078031,7.078036 0,3.906398 -3.171633,7.077213 -7.078031,7.077213 -3.906399,0 -7.078036,-3.170815 -7.078036,-7.077213 0,-3.906399 3.171637,-7.078036 7.078036,-7.078036 z"
     style="fill:#9abeff;stroke-width:0.821881"
     id="path10" /><path
     d="m 73.476254,93.851239 c -2.383982,4.438109 -7.676397,6.678151 -12.635215,5.066938 -5.574762,-1.81135 -8.630556,-7.808683 -6.819206,-13.383446 1.81135,-5.574762 7.808683,-8.630556 13.383445,-6.819206 4.856422,1.577947 7.800371,6.331685 7.281504,11.215934 l 8.720142,2.833346 -1.26759,3.90124 z M 57.391547,86.629618 c 1.207144,-3.715206 5.203639,-5.751522 8.918845,-4.544379 3.715206,1.207144 5.75074,5.203386 4.543597,8.918591 -1.207144,3.715206 -5.202858,5.751776 -8.918063,4.544633 -3.715206,-1.207144 -5.751522,-5.20364 -4.544379,-8.918845 z"
     style="fill:#9abeff;stroke-width:0.821881"
     id="path12" /></svg>
