<svg xmlns="http://www.w3.org/2000/svg" viewBox="0 0 153 153"><rect width="153" height="153" fill="#73ada4" rx="10"/><path fill="#fff" d="M108.3 108.89a44 44 0 0 0 12.48-39.34l-9.69 7v.95a33.85 33.85 0 0 1-10.72 24.65 34.72 34.72 0 0 1-23.87 9.5h-.06a34.7 34.7 0 0 1-25.09-10.76 33.69 33.69 0 0 1 1.43-48.19 34.65 34.65 0 0 1 23.72-9.36 34.69 34.69 0 0 1 19.51 5.95l8.76-6.36a45.12 45.12 0 0 0-26-9.76h-2.24A45.14 45.14 0 0 0 46.34 44.6c-.26.23-.48.49-.73.73s-.62.52-.9.81a43.88 43.88 0 0 0-13.1 29.14h-.06c-.05.74-.05 1.47-.05 2.22a43.92 43.92 0 0 0 11.67 29.77c.22.24.47.45.7.69s.55.62.84.91a45 45 0 0 0 29.54 12.93v.07h2.25a45.09 45.09 0 0 0 30.15-11.51l1-.89c.15-.14.28-.3.43-.44l.24-.22Z"/><path fill="#fff" d="M59.65 65.64v12.91l17.12 10.73 41-30.2a44.37 44.37 0 0 0-5.39-8.94l-35.61 26.2Z"/></svg>