<svg xmlns="http://www.w3.org/2000/svg" viewBox="0 0 192 192"><defs><linearGradient id="a" x1="57.44" x2="136.97" y1="31.22" y2="168.97" gradientTransform="matrix(1 0 0 -1 0 194)" gradientUnits="userSpaceOnUse"><stop offset="0" stop-color="#8c72bd"/><stop offset=".46" stop-color="#728dbe"/><stop offset=".71" stop-color="#9abeff"/><stop offset="1" stop-color="#98dc9a"/></linearGradient></defs><path fill="url(#a)" d="M160.66 63.61h3.27A20.09 20.09 0 0 1 184 83.68v24.64a20.09 20.09 0 0 1-20.07 20.07h-26.34c-6.26 0-9.2 3.18-9.2 9.23v26.31A20.09 20.09 0 0 1 108.32 184H83.68a20.1 20.1 0 0 1-20.07-20.07v-26.31c0-6.55-3.21-9.23-9.27-9.23H28.07A20.09 20.09 0 0 1 8 108.32V83.68a20.09 20.09 0 0 1 20.07-20.07h26.28c5.86 0 9.26-3.3 9.26-9.35V28.07A20.09 20.09 0 0 1 83.68 8h24.64a20.09 20.09 0 0 1 20.07 20.07v26.19c0 6.41 2.34 9.35 9.06 9.35h4.65l-13.55 18.45A20.27 20.27 0 0 1 109.94 62V35.76c0-6.42-2.43-9.32-9.31-9.32h-9.39c-5.83 0-9.2 3.1-9.2 9.32V62A20.09 20.09 0 0 1 62 82.05H35.77c-6.76 0-9.32 4.41-9.32 9.35v9.29c0 5.55 3.37 9.26 9.22 9.26H62A20.09 20.09 0 0 1 82.05 130v26.27c0 6 3 9.27 9.12 9.27h9.49c5.85 0 9.29-3.51 9.29-9.37V130A20.1 20.1 0 0 1 130 110h26.34c6.36 0 9.2-3.2 9.2-9.36v-9.33c0-6.36-3.35-9.26-9.4-9.26h-9Z"/></svg>