<?xml version="1.0" encoding="UTF-8"?>
<svg version="1.1" viewBox="0 0 192 192" xmlns="http://www.w3.org/2000/svg">
 <rect x="40.582" y="23.991" width="109.41" height="137.82" ry="34.607" style="fill:#728dbe;stroke-linecap:round;stroke-linejoin:round;stroke-width:42.744"/>
 <rect x="55.582" y="40.372" width="79.792" height="100.51" ry="25.238" style="fill:#fff;stroke-linecap:round;stroke-linejoin:round;stroke-width:31.172"/>
 <path d="m134.04 79.634 14.533 10.686-17.311 11.541-0.42744-22.013z" style="fill:#fff;stroke-linecap:round;stroke-linejoin:round;stroke-width:42.744"/>
 <path d="m55.821 79.634-14.533 10.686 17.311 11.541 0.42744-22.013z" style="fill:#fff;stroke-linecap:round;stroke-linejoin:round;stroke-width:42.744"/>
 <rect x="68.644" y="56.979" width="13.464" height="16.884" ry="0" style="fill:#728dbe;stroke-linecap:round;stroke-linejoin:round;stroke-width:42.744"/>
 <rect x="88.306" y="56.979" width="13.464" height="16.884" ry="0" style="fill:#728dbe;stroke-linecap:round;stroke-linejoin:round;stroke-width:42.744"/>
 <rect x="107.97" y="56.979" width="13.464" height="16.884" ry="0" style="fill:#728dbe;stroke-linecap:round;stroke-linejoin:round;stroke-width:42.744"/>
 <rect x="68.644" y="79.847" width="13.464" height="16.884" ry="0" style="fill:#728dbe;stroke-linecap:round;stroke-linejoin:round;stroke-width:42.744"/>
 <rect x="88.306" y="79.847" width="13.464" height="16.884" ry="0" style="fill:#728dbe;stroke-linecap:round;stroke-linejoin:round;stroke-width:42.744"/>
 <rect x="107.97" y="79.847" width="13.464" height="16.884" ry="0" style="fill:#728dbe;stroke-linecap:round;stroke-linejoin:round;stroke-width:42.744"/>
 <rect x="68.644" y="102.72" width="13.464" height="16.884" ry="0" style="fill:#728dbe;stroke-linecap:round;stroke-linejoin:round;stroke-width:42.744"/>
 <rect x="88.306" y="102.72" width="13.464" height="16.884" ry="0" style="fill:#728dbe;stroke-linecap:round;stroke-linejoin:round;stroke-width:42.744"/>
 <rect x="107.97" y="102.72" width="13.464" height="16.884" ry="0" style="fill:#728dbe;stroke-linecap:round;stroke-linejoin:round;stroke-width:42.744"/>
 <circle cx="85.125" cy="129.1" r="3.5136" style="fill:#728dbe;stroke-linecap:round;stroke-linejoin:round;stroke-width:42.744"/>
 <circle cx="95.175" cy="129.1" r="3.5136" style="fill:#728dbe;stroke-linecap:round;stroke-linejoin:round;stroke-width:42.744"/>
 <circle cx="105.22" cy="129.1" r="3.5136" style="fill:#728dbe;stroke-linecap:round;stroke-linejoin:round;stroke-width:42.744"/>
 <path d="m43.756 129.32-20.401 36.722 39.291-12.09z" style="fill:#728dbe;stroke-linecap:round;stroke-linejoin:round;stroke-width:42.744"/>
</svg>
