<?xml version="1.0" encoding="UTF-8" standalone="no"?>
<!-- Created with Inkscape (http://www.inkscape.org/) -->

<svg
   width="192"
   height="192"
   viewBox="0 0 192 192"
   version="1.1"
   id="svg1"
   xml:space="preserve"
   xmlns="http://www.w3.org/2000/svg"
   xmlns:svg="http://www.w3.org/2000/svg"><defs
     id="defs1"><style
       id="style1">.a{fill:none;stroke:#b1b5bd;stroke-linecap:round;stroke-linejoin:round;isolation:isolate;opacity:0.63;}</style></defs><g
     id="layer1"><path
       style="fill:#ffffff;fill-opacity:1;stroke:#56595b;stroke-width:3.59355;stroke-dasharray:none;stroke-opacity:1"
       d="m 55.455542,48.493958 -0.03033,-8.541893 17.425203,-4.700473 0.694021,22.767191 z"
       id="path20" /><path
       style="fill:#e85e5c;fill-opacity:1;stroke:#fcfcfc;stroke-width:3.59355;stroke-dasharray:none;stroke-opacity:1"
       d="m 102.39821,15.672295 23.87963,4.867561 c 0,0 5.82489,1.448282 5.63532,9.332825 l 0.26829,40.384703 -61.281238,-6.012314 0.858925,-46.080802 c 0,0 -0.857246,-9.3688228 8.037616,-7.590943 9.397787,1.878403 22.601457,5.09897 22.601457,5.09897 z"
       id="path10" /><path
       d="m 113.60173,60.407567 a 12.74071,13.705427 0 0 1 -8.73679,3.790065 12.74071,13.705427 0 0 1 -11.676221,-8.520629 l -25.031283,-5.803012 1.796773,108.912469 69.445251,12.5802 -1.15105,-105.24592 z"
       style="fill:#8c72bd;stroke-width:11.4994"
       id="path18" /><path
       d="m 113.60173,60.407567 a 12.74071,13.705427 0 0 1 -8.73679,3.790065 12.74071,13.705427 0 0 1 -11.676221,-8.520629 l -10.690794,-2.478984 -6.816505,24.146933 27.88647,-7.470642 -19.79538,40.12978 10.412856,16.03619 -14.261879,17.33885 20.180003,13.15856 -2.728853,7.21517 34.509253,6.2522 3.67216,-10.32864 -30.1633,-21.2356 21.26928,-32.06396 L 104.57296,92.8 114.95494,60.722003 Z"
       style="fill:#ff837d;stroke-width:11.4994"
       id="path19" /><g
       id="g17"
       transform="matrix(1.4374177,0,0,1.4374177,-43.806737,-45.192103)"><path
         style="fill:#8c72bd;fill-opacity:1;stroke-width:8"
         d="m 67.085462,71.248769 10.806662,-5.111864 1.250559,75.769195 -11.86061,6.09739 z"
         id="path3" /><path
         style="fill:#000000;fill-opacity:0.15;stroke-width:8"
         d="m 67.085462,71.248769 10.806662,-5.111864 1.250559,75.769195 -11.86061,6.09739 z"
         id="path5" /></g><g
       id="g16"
       transform="matrix(1.4374177,0,0,1.4374177,-43.806737,-45.192103)"><path
         style="display:inline;fill:#8c72bd;fill-opacity:1;stroke-width:8"
         d="m 67.282073,148.00349 49.293107,8.53529 10.87952,-5.88149 -48.312017,-8.75119 z"
         id="path4" /><path
         style="fill:#000000;fill-opacity:0.25;stroke-width:8"
         d="m 67.282073,148.00349 49.293107,8.53529 10.87952,-5.88149 -48.312017,-8.75119 z"
         id="path6" /></g><g
       id="g18"
       transform="matrix(1.4374177,0,0,1.4374177,-43.806737,-45.192103)"><path
         style="fill:#8c72bd;fill-opacity:1;stroke-width:8"
         d="m 67.085462,71.248769 -4.391537,-5.111864 10.420148,-3.632232 4.778051,3.632232 z"
         id="path8" /><path
         style="fill:#000000;fill-opacity:0.25;stroke-width:8"
         d="m 67.085462,71.248769 -4.391537,-5.111864 10.420148,-3.632232 4.778051,3.632232 z"
         id="path7" /></g><path
       style="display:inline;fill:#f8c18c;fill-opacity:1;stroke-width:11.4994"
       d="m 125.82451,92.8 0.16234,11.93631 -26.8669,8.28471 c 0,0 0.08327,7.22948 -1.80263,9.86075 -1.314814,1.83441 -12.902262,5.55106 -12.902262,5.55106 l -1.103101,-3.76405 10.433395,-4.45183 0.627962,-10.74629 9.404536,-3.53407 c 0,0 -7.597849,3.62305 -8.934566,-2.18632 -1.486954,-6.462312 4.61071,-7.31141 4.61071,-7.31141 l 12.007486,-4.075743 -0.12807,5.450237 -10.48358,3.665366 10.50113,-2.687632 0.20024,4.560462 2.09799,-0.95406 -0.20006,-2.08952 3.85368,-2.212692 0.10148,3.279892 0.70887,-0.36573 -0.3114,-3.227339 3.38065,-2.120865 0.22275,4.523694 0.88873,-0.410798 -0.34916,-4.553327 z"
       id="path11" /><path
       d="m 84.070649,103.20045 c -3.142726,2.18034 -2.852924,5.07706 -2.852924,5.07706 0,0 -0.271657,6.64616 2.728322,6.96333 2.476898,-0.13828 4.239785,-1.6956 4.239785,-1.6956 0,0 0.05025,3.0399 -6.605967,4.42085 l 1.156687,4.13815 c 0,0 8.542469,-0.75805 8.812869,-7.33405 0.232071,-5.64389 -0.764127,-10.34639 -0.764127,-10.34639 0,0 -0.744273,-2.18128 -2.680753,-2.48375 -1.623566,-0.16492 -2.72119,0.36212 -4.033892,1.2604 z m 2.671125,3.71389 c 2.512157,1.58602 -0.0125,3.77231 -0.0125,3.77231 0,0 -1.97852,1.54447 -2.230775,-0.99173 -0.326302,-3.28069 2.24321,-2.78058 2.24321,-2.78058 z"
       style="display:inline;fill:#f8c18c;fill-opacity:1;stroke-width:11.4994"
       id="path14" /></g></svg>
