<?xml version="1.0" encoding="UTF-8"?>
<svg version="1.1" viewBox="0 0 192 192" xmlns="http://www.w3.org/2000/svg">
 <circle class="a" cx="96" cy="96" r="88" style="fill:#56595b"/>
 <g transform="matrix(4.6973 0 0 4.6973 58.422 59.552)" style="fill:#fff">
  <path d="m11.57 4.87a0.62 0.62 0 0 0-0.05 0.88c1 1.11 1.1 4.79 0.51 7.22a0.63 0.63 0 0 0 0.46 0.76h0.15a0.63 0.63 0 0 0 0.61-0.47c0.6-2.48 0.65-6.75-0.8-8.36a0.63 0.63 0 0 0-0.88-0.03zm-3.57-0.77a4.67 4.67 0 0 1 1.89 0.39 0.62241 0.62241 0 1 0 0.5-1.14 5.88 5.88 0 0 0-2.39-0.5c-3 0-5.43 2.15-5.43 4.79a13.5 13.5 0 0 1-0.49 4.65 0.62 0.62 0 0 0 0.34 0.81 0.52 0.52 0 0 0 0.24 0.05 0.63 0.63 0 0 0 0.58-0.38 14.34 14.34 0 0 0 0.58-5.13c0-1.95 1.88-3.54 4.18-3.54z" style="fill:#fff"/>
  <path d="m13.6 2.44a8.27 8.27 0 0 0-5.6-2.15 8.5 8.5 0 0 0-3.7 0.84 0.62 0.62 0 0 0-0.3 0.87 0.63 0.63 0 0 0 0.84 0.29 7.38 7.38 0 0 1 3.16-0.75c3.65 0 6.73 2.79 6.73 6.1a0.63 0.63 0 0 0 0.63 0.62 0.62 0.62 0 0 0 0.64-0.62 7 7 0 0 0-2.4-5.2zm-11.44 1.1a0.64 0.64 0 0 0-0.87 0.16 7.05 7.05 0 0 0-1.29 3.93 0.63 0.63 0 0 0 0.62 0.63 0.62 0.62 0 0 0 0.62-0.62 5.74 5.74 0 0 1 1.08-3.23 0.62 0.62 0 0 0-0.16-0.87zm5.84 1.87a2.9 2.9 0 0 0-2.2 0.8 0.61 0.61 0 0 0 0 0.88 0.62 0.62 0 0 0 0.88 0 1.83 1.83 0 0 1 1.32-0.43 1.62 1.62 0 0 1 1.65 1.18c0.33 0.93 0 4.93-0.55 6.4a0.63 0.63 0 0 0 0.38 0.8 0.78 0.78 0 0 0 0.21 0 0.62 0.62 0 0 0 0.59-0.42 18 18 0 0 0 0.72-3.62 10.9 10.9 0 0 0-0.12-3.53 2.87 2.87 0 0 0-2.88-2.06zm-2.32 2.93a0.62 0.62 0 0 0-0.57 0.66 11.09 11.09 0 0 1-0.79 4.65 0.62 0.62 0 0 0 0.18 0.86 0.6 0.6 0 0 0 0.34 0.11 0.61 0.61 0 0 0 0.52-0.29 11.93 11.93 0 0 0 1-5.43 0.62 0.62 0 0 0-0.68-0.56z" style="fill:#fff"/>
  <path d="m7.9 7.66a0.63 0.63 0 0 0-0.52 0.72 15.66 15.66 0 0 1-0.78 5.95 0.63 0.63 0 0 0 0.29 0.84 0.63 0.63 0 0 0 0.83-0.29 16.6 16.6 0 0 0 0.9-6.71 0.62 0.62 0 0 0-0.72-0.51z" style="fill:#fff"/>
 </g>
 <path d="m136.86 109.86c-0.86374-0.75803-2.8654-4.1721-2.5117-4.284 0.48105-0.15219 2.9897 2.5386 3.3314 3.5733 0.23774 0.71829-0.28994 1.1756-0.81964 0.71075zm-12.909-4.4454c-0.2038-0.89282-0.17134-1.6355 0.0722-1.6505 0.65879-0.0405 1.3424 2.5155 0.78174 2.9228-0.35621 0.25871-0.5808-0.0759-0.85395-1.2722zm-14.339 4.0071c-0.73935-0.63653-0.53267-2.0732 0.4944-3.4366 1.2348-1.6392 1.7284-1.3569 0.96887 0.55432-0.32824 0.82594-0.68815 1.9016-0.79981 2.3902-0.14574 0.63791-0.33286 0.77669-0.66346 0.49207zm8.1079-4.3041c-0.12321-1.6499 0.23633-2.3696 0.81868-1.6388 0.72775 0.91328 0.7086 2.1101-0.0403 2.516-0.57143 0.30972-0.70058 0.16418-0.77834-0.87715zm7.3156-5.4857c-0.60835-0.31593-0.58087-0.8573 0.0537-1.0581 0.33855-0.10711 0.67052-0.021 0.73771 0.19139 0.16372 0.51746-0.35986 1.0908-0.79143 0.86668zm-24.907 7.4429c-1.1553-0.0893-0.85852-1.0596 0.61019-1.9953 1.7172-1.094 1.9641-0.89938 1.0137 0.79894-0.70422 1.2584-0.71527 1.2666-1.6239 1.1963zm32.912-11.301c-0.65484-0.44596-1.6148-1.4734-2.1332-2.2832-0.51844-0.80982-1.4312-1.7261-2.0283-2.0362-1.1667-0.60592-2.158-0.22575-1.6155 0.61958 0.18208 0.28378 0.52473 0.81022 0.76135 1.1699 0.28247 0.42934 0.20241 0.72598-0.23319 0.86379-0.36487 0.11544-0.74621-0.05184-0.84741-0.37171-0.1012-0.31988-1.1052-0.63547-2.231-0.70128-2.0211-0.11815-2.0585-0.10253-2.9543 1.2359-0.499 0.74556-0.88737 1.8208-0.86304 2.3894 0.0533 1.2458-0.89218 1.3562-1.4682 0.17135-0.25832-0.5314-0.70628-0.75692-1.1958-0.60205-0.4305 0.1362-1.2313-0.11832-1.7795-0.56559-0.75747-0.618-1.3512-0.7011-2.473-0.34618-1.0718 0.3391-1.7933 0.26131-2.6337-0.28392-0.89277-0.57926-1.5838-0.63034-3.022-0.22341-1.0255 0.29015-2.2374 0.79368-2.6932 1.119-0.68558 0.48932-0.87678 0.43919-1.1076-0.29039-0.1642-0.51902 0.0318-1.1234 0.47651-1.469 0.72653-0.5647 0.67958-0.63572-1.224-1.8515-1.0888-0.69536-2.1177-1.4545-2.2865-1.687-0.21865-0.30104-0.65545-0.10635-1.5178 0.67649-1.719 1.5606-2.7347 1.99-2.9673 1.2546-0.12017-0.37982 0.49015-1.0821 1.5937-1.8339 1.5189-1.0347 1.7141-1.3346 1.2952-1.9898-0.27127-0.42433-0.71358-1.4592-0.9829-2.2998l-0.4898-1.5282-2.8755 0.96848c-3.0014 1.0109-4.4174 0.8957-3.792-0.30851 0.24983-0.48106 0.76256-0.63756 2.1589-0.65892 2.2769-0.03488 3.371-0.71965 2.7429-1.7167-0.25112-0.3986-0.2907-1.4455-0.08795-2.3265 0.45137-1.9613 0.47142-5.3782 0.0329-5.6059-0.17679-0.09181-0.99005 0.04461-1.8072 0.30315-1.1617 0.36755-1.5031 0.31308-1.565-0.24974-0.06021-0.54728 0.29744-0.80346 1.492-1.0688 1.4005-0.31102 1.5398-0.45317 1.282-1.3085-0.15862-0.52789-0.1315-1.4038 0.06125-1.9467 0.59809-1.6846-0.16235-3.08-2.1869-4.0132-1.9387-0.89357-2.297-1.3756-1.9388-2.6083 0.18307-0.62993 0.43142-0.61698 1.5995 0.08342 0.76053 0.45603 1.4847 1.1512 1.6092 1.5449 0.30453 0.96256 1.3354 1.4484 2.3752 1.1194 0.46876-0.1483 1.6016-1.3193 2.5175-2.6022 0.91589-1.2829 1.9237-2.4144 2.2396-2.5143 0.36897-0.11674 0.43009-0.6376 0.17095-1.4567-0.33881-1.0709-0.27112-1.2566 0.4229-1.1604 1.176 0.16312 4.8517-1.1182 8.1451-2.8394 2.473-1.2924 2.933-1.4232 3.7275-1.0601 0.67163 0.30694 1.5772 0.16342 3.4962-0.55412 2.5654-0.95926 2.6014-0.99463 3.8249-3.7628 1.1106-2.5127 1.4031-2.8475 2.9013-3.3216 2.0816-0.65857 3.8932 0.03315 3.9833 1.521 0.0339 0.55881 0.10933 0.99426 0.16772 0.96768 0.0583-0.02684 1.0079-0.71799 2.11-1.5365 1.6882-1.2537 1.9926-1.7016 1.9321-2.8433-0.0951-1.7982 0.82788-2.737 2.2511-2.2895 1.8434 0.57953 1.9299 2.1272 0.22718 4.0647-0.82156 0.9348-1.4574 1.7912-1.4129 1.9031 0.23683 0.5961 3.8743 1.4774 4.3579 1.0559 0.69949-0.60981 1.5827-0.88815 2.5115-0.79144 0.43808 0.0456 1.0703-0.42063 1.5747-1.1614 0.80716-1.1853 0.80208-1.2614-0.12035-1.8004-0.52972-0.30953-1.1868-0.38457-1.4601-0.16675-0.35409 0.28215-0.49687 0.14776-0.49621-0.46625 4.3e-4 -0.47426-0.22896-0.92027-0.50977-0.99112-0.91248-0.23024-1.0469-1.7325-0.35724-3.9922 1.2244-4.0118 3.9346-5.5876 7.5474-4.3884 1.1489 0.38138 2.423 0.58775 2.8312 0.4586 1.0146-0.32101 1.9788 0.24921 2.3373 1.3823 0.33584 1.0615-0.20757 1.4602-0.86526 0.63489-0.23701-0.29744-0.60827-0.48471-0.82501-0.41614-0.37229 0.11778-0.27338 0.59015 0.91115 4.3513 0.44834 1.4237 0.40289 1.5559-0.55582 1.614-1.8014 0.10914-2.0707 2.5101-0.4579 4.0834 0.77652 0.75753 0.83042 1.1821 0.50003 3.9389-0.26051 2.1735-0.67047 3.3889-1.3824 4.0984-0.55662 0.5547-1.1727 1.5811-1.3691 2.2808-0.29783 1.0612-0.51576 1.2426-1.3134 1.0933-0.79352-0.14849-1.0985 0.09478-1.7912 1.4287-0.72355 1.3932-0.73429 1.7347-0.0806 2.5602 0.41486 0.52392 0.83677 1.2133 0.93759 1.532 0.25909 0.81894-1.1993 2.4697-2.1323 2.4136-0.65587-0.0394-0.8478-0.41048-1.1992-2.3185-0.40864-2.219-0.44667-2.2699-1.6427-2.1974-1.5772 0.09555-2.332 1.0053-2.0523 2.4736 0.19054 1 0.0692 1.1753-0.85195 1.2311-1.2672 0.07677-1.2135 0.48293 0.24075 1.8197 1.6315 1.4998 1.3001 3.4572-1.0034 5.927-1.2522 1.3425-1.9104 2.515-2.1212 3.7779-0.4002 2.3985-0.29941 2.6073 1.1804 2.4454 0.88693-0.09708 1.5898 0.2303 2.4278 1.1307 1.4516 1.5598 1.27 2.1065-0.42859 1.2906-1.1391-0.54711-1.2949-0.5286-1.4395 0.17094-0.14364 0.69511-0.51269 0.83486-3.2392 1.2267l-3.0771 0.44224-0.9876 2.046-0.98761 2.046 1.264 1.4124c0.69519 0.77681 1.8213 1.7293 2.5025 2.1166 0.68291 0.38829 1.4048 1.2296 1.6091 1.8754 0.4564 1.4426 0.33003 1.4934-1.1709 0.47134zm8.8505-4.599c-0.6574-0.42291-0.64914-0.50161 0.0612-0.58367 0.45161-0.05215 0.97097 0.11167 1.1542 0.36407 0.47533 0.65492-0.31635 0.79796-1.2154 0.21959zm-56.564 16.561c-0.22941-0.72511 1.2544-2.5675 1.9304-2.3969 1.0204 0.25746 0.81505 1.1933-0.45404 2.0694-1.0489 0.72408-1.3311 0.78669-1.4764 0.32753zm49.003-17.052c-1.0867-0.59424-1.3781-0.91828-0.94816-1.0543 0.60939-0.1928 2.9205 0.86733 3.0953 1.4198 0.1894 0.59866-0.64301 0.45695-2.1471-0.36553zm-34.483 9.516c-0.22927-0.19738-0.30687-0.57066-0.17245-0.82951 0.33179-0.63887 1.6234-0.27034 1.4508 0.41395-0.17496 0.69341-0.74163 0.87763-1.2783 0.41555zm-12.76 2.8443c-0.0972-0.833 1.6561-2.3702 2.3127-2.0277 0.50602 0.26393-0.78695 2.3256-1.6247 2.5907-0.34797 0.11009-0.63709-0.1265-0.68803-0.56302zm68.937-23.553c-5.5034-1.0011-7.6391-2.7253-2.4052-1.9418 2.8333 0.42416 5.1478 1.1915 5.3299 1.7671 0.18917 0.59793-0.40344 0.63332-2.9247 0.1747zm-61.175 19.147c-0.58954-0.50755-0.18422-1.0836 0.50911-0.72355 0.38795 0.20147 0.46765 0.42877 0.24212 0.69068-0.18484 0.2147-0.52291 0.22952-0.75129 0.0329zm2.6749-2.8334c-0.52686-0.66118-0.32911-1.4975 0.40935-1.7312 0.84456-0.2672 1.4097 0.40632 1.0607 1.2642-0.39065 0.96042-0.93824 1.1344-1.47 0.46717zm-3.1931 0.91332c-0.68485-0.35565-0.57332-0.87196 0.24421-1.1306 0.45596-0.14426 0.90728 0.0139 1.0155 0.35588 0.19765 0.62474-0.60177 1.1164-1.2597 0.77473zm58.78-33.667c-0.58954-0.50756-0.18423-1.0836 0.50911-0.72355 0.38795 0.20147 0.46764 0.42876 0.24221 0.69065-0.18484 0.2147-0.52291 0.22952-0.75129 0.03289zm3.997-3.2871c-0.32878-0.41259-0.25142-0.60706 0.26543-0.66736 0.77321-0.09023 1.1358 0.56883 0.54792 0.99583-0.19216 0.13956-0.55816-0.0082-0.81335-0.32847zm-71.278 21.837c-0.44362-0.38194 0.12228-1.3236 0.96233-1.6014 0.26653-0.08747 1.0596-0.12734 1.7628-0.08728 1.0236 0.05831 1.1826 0.18668 0.79734 0.6437-0.6702 0.79499-3.0075 1.4884-3.5225 1.045zm-9.6626-2.102c-2.1233 0.35187-3.9226 0.64194-3.9985 0.6446-0.07594 0.0026-0.07847-0.23146-0.0054-0.52037 0.0816-0.32342 0.81852-0.63076 1.9179-0.79989 5.6594-0.87066 7.1943-1.0144 7.2989-0.68361 0.13886 0.43892-0.21319 0.53072-5.2129 1.3593zm82.827-26.041c-0.46398-0.24095-0.56012-0.51497-0.35642-1.0158 0.55875-1.3737 2.1017-1.1407 2.0149 0.30423-0.0519 0.86469-0.77022 1.1729-1.6585 0.71161zm-69.503 14.647c-0.10289-0.32522-0.05537-0.74432 0.10563-0.93132 0.36351-0.42223 1.614 0.33249 1.3603 0.821-0.33377 0.6427-1.2751 0.71354-1.466 0.11032zm18.682-14.782c-0.46904-0.10363-1.4551-0.79954-2.1913-1.5465-0.84853-0.86092-1.6236-1.2679-2.1174-1.1117-1.1761 0.37209-2.2154 0.21959-2.3962-0.35156-0.0888-0.28079 0.0446-1.5709 0.29643-2.867 0.25187-1.2961 0.29821-2.9153 0.10299-3.5985-0.28027-0.98067-0.15865-1.3361 0.57804-1.6892 0.83698-0.40111 0.94051-0.32346 1.0058 0.75453 0.0675 1.1141 0.14315 1.1588 1.0382 0.6135 2.5255-1.5386 2.7021-1.5785 4.232-0.95525l1.5511 0.63188-0.9463 1.6366c-1.1035 1.9086-1.1231 1.6508 0.24809 3.2715 1.3175 1.5573 1.8377 3.0613 1.3242 3.8288-0.65586 0.98037-1.8364 1.5792-2.7258 1.3827zm19.63-12.738c-0.0493-0.42693 0.13268-0.93758 0.40436-1.1348 0.31596-0.22934 0.52627-0.07882 0.58359 0.4177 0.0493 0.42693-0.13268 0.93759-0.40436 1.1348-0.31597 0.22933-0.52627 0.07882-0.58359-0.41771zm-6.0092-2.364c-0.45241-0.3895-0.30053-1.2592 0.25028-1.4335 0.21237-0.06719 0.50298 0.24715 0.64579 0.69855 0.27382 0.86549-0.24765 1.2932-0.89607 0.73493z" style="fill-opacity:.75;fill:#ff837d;stroke-width:.43041"/>
 <path d="m70.755 128.44c-2.9509 1.7964-4.9666 2.5795-5.506 2.1391-0.26195-0.21387-0.7661-0.22303-1.1203-0.0204-0.50956 0.29154-1.1401-0.0657-3.0192-1.7107-1.3063-1.1436-2.2728-2.2046-2.1477-2.3578 0.12507-0.15318 0.0037-0.46118-0.26979-0.68446-0.27345-0.22326-0.48547-1.0495-0.47116-1.836 0.01432-0.78653-0.14734-1.5716-0.35923-1.7446-0.21189-0.17301-0.14497-0.60885 0.14871-0.96855 0.29368-0.35968 0.45277-1.0687 0.35353-1.5755-0.14353-0.73304 0.16231-1.24 1.4953-2.4784 0.92166-0.8563 2.1189-2.1157 2.6605-2.7987 0.91048-1.1482 1.1599-1.1962 3.3078-0.63718 1.2777 0.33253 2.6032 0.83331 2.9456 1.1129 0.34238 0.27955 1.2894 0.74248 2.1044 1.0287 1.2424 0.43633 1.5088 0.69287 1.6479 1.5872 0.09128 0.58671 0.59349 1.503 1.116 2.0362 0.70393 0.71828 0.81312 1.196 0.42146 1.844-0.29075 0.48101-0.30438 1.0577-0.03034 1.2814 0.27404 0.22375 0.46794 0.44739 0.43092 0.49697-0.03678 0.0498-0.43486 0.98421-0.88405 2.077-0.72626 1.7667-1.0391 2.1222-2.8243 3.2089zm6.9376-12.24c-1.9576 0.16286-2.1831 0.0705-3.7249-1.5252-0.90263-0.93424-1.6438-2.0246-1.6469-2.423-0.0032-0.39842 0.64066-1.5893 1.4308-2.6465 1.327-1.7754 1.5392-1.8978 2.777-1.6085 0.75685 0.17707 1.5739 0.0275 1.8769-0.34347 0.91096-1.1157 1.556-0.60043 1.2238 0.97765-0.33865 1.6089-0.11592 1.9913 1.3239 2.2732 1.2282 0.24044 1.1935 1.1546-0.12779 3.3666-0.97512 1.6324-1.1955 1.7681-3.1326 1.9293zm-16.407 18.109c-0.19157-0.15642-0.09236-0.59788 0.22048-0.98102 0.31284-0.38315 0.72553-0.56865 0.91711-0.41224 0.19157 0.15642 0.09236 0.59788-0.22048 0.98103-0.31284 0.38315-0.72553 0.56865-0.91711 0.41223zm11.785-28.12c-0.72068-0.58378-1.1826-1.2179-1.0261-1.4095 0.36223-0.44365 1.7656 0.70222 2.0899 1.7064 0.18357 0.56846-0.08892 0.49241-1.0638-0.29691zm-18.061 16.61c-0.19157-0.15642-0.22034-0.44114-0.06392-0.63271 0.15642-0.19158 0.44114-0.22034 0.63271-0.0639 0.19157 0.15642 0.22033 0.44114 0.06392 0.63271-0.15642 0.19157-0.44114 0.22034-0.63271 0.0639z" style="fill-opacity:.75;fill:#ff837d;stroke-width:.44967"/>
</svg>
