<svg xmlns="http://www.w3.org/2000/svg" viewBox="0 0 192 192"><rect x="19.5" y="19.5" width="153" height="153" rx="10" style="fill:#fff"/><path d="M109.26,119.85H81.51c-3,0-5.94,0-8.9,0-5.2.09-9-2.35-11.76-6.53a14.5,14.5,0,0,1,10-22.23l1-.18a12.88,12.88,0,0,1,6.86-9.4,12.72,12.72,0,0,1,11.57-.18,18.86,18.86,0,0,1,21.19-8.49c7.15,2,12.73,8.43,13.33,15.28-1.16-.17-2.26-.35-3.39-.53-.47-.09-.41-.56-.5-.86a15,15,0,0,0-28.13-2.26c-.33.69-.63,1.37-1,2.2-3.36-2.85-7-4.12-11.13-2.14s-5.52,5.52-5.31,10a25.5,25.5,0,0,0-3.62,0,11,11,0,0,0,1.69,21.9c10.35,0,20.68,0,31,0a2.12,2.12,0,0,1,1.87.81,18.39,18.39,0,0,0,2.94,2.58Z" style="fill:#56595b"/><path d="M118.6,107c-1.36-1.31-2.67-2.61-4-3.89-.92-.86-1.84-1-2.58-.24s-.78,1.72.17,2.64c1.93,1.9,3.89,3.8,5.82,5.67a3.49,3.49,0,0,0,.92.72q6.31-6.51,12.64-13c3.3,4.92,2.53,13.11-3.53,17.71a13.71,13.71,0,0,1-16.8-21.66c5.91-4.72,14.25-3.47,18.29,1.16-3.57,3.59-7.19,7.18-10.93,10.92Z" style="fill:#9abeff"/></svg>