<?xml version="1.0" encoding="UTF-8"?>
<svg version="1.1" viewBox="0 0 192 192" xml:space="preserve" xmlns="http://www.w3.org/2000/svg">
	 <rect class="a" x="20" y="20" width="152" height="152" rx="10" fill="#9abeff"/><path d="m63.174 125.76-5.2702-7.2118 71.471-51.592 5.64 7.6741z" fill="#fff" stroke-linecap="round" stroke-linejoin="round" stroke-width="1.4794"/><path d="m68.721 129.37-13.407-18.215 4.7749-3.2502-2.1248-2.942 4.4784-3.2689-2.1575-2.6152 6.2764-4.8707 21.804 29.453-6.3744 5.0995-2.321-2.7786-4.2496 3.4651-2.7132-3.2689z" fill="#728dbe" stroke-linecap="round" stroke-linejoin="round" stroke-width="1.4794"/><path d="m62.1 107.94-2.1085-2.5498 2.844-2.0267 1.9614 2.6152z" fill="#fff" stroke-linecap="round" stroke-linejoin="round" stroke-width="1.4794"/><path d="m63.489 99.6 3.367 4.4458 2.4844-1.7325-3.2362-4.4131z" fill="#fff" stroke-linecap="round" stroke-linejoin="round" stroke-width="1.4794"/><path d="m136.69 80.739-13.449-18.184-4.5143 3.6035-2.1842-2.8982-4.4447 3.3147-1.8622-2.833-6.5056 4.56 21.71 29.523 6.7532-4.5862-1.9702-3.0374 4.5646-3.0382-2.323-3.5569z" fill="#728dbe" stroke-linecap="round" stroke-linejoin="round" stroke-width="1.4794"/><path d="m118.16 68.089-1.8142-2.7669-2.7756 2.1195 1.9201 2.6456z" fill="#fff" stroke-linecap="round" stroke-linejoin="round" stroke-width="1.4794"/><path d="m109.79 66.957 3.2545 4.5287-2.3884 1.8627-3.2619-4.3942z" fill="#fff" stroke-linecap="round" stroke-linejoin="round" stroke-width="1.4794"/></svg>
