<svg xmlns="http://www.w3.org/2000/svg" xml:space="preserve" width="192" height="192"><circle cx="95.597" cy="95.591" r="84.784" fill="#FF877F"/><path fill="#FFA6A4" d="M136.105 153.085c-6.99 0-12.657 5.667-12.657 12.656a12.61 12.61 0 0 0 3.442 8.67 84.712 84.712 0 0 0 21.329-12.34c-1.573-5.2-6.401-8.986-12.114-8.986zm-71.843 0c-6.99 0-12.656 5.667-12.656 12.656 0 .853.086 1.685.247 2.49a84.357 84.357 0 0 0 18.822 8.42c3.736-2.2 6.244-6.261 6.244-10.91-.001-6.989-5.667-12.656-12.657-12.656zM109.191 152.761c-6.869 2.747-12.901 3.822-18.099 3.735-.596 4.302-.86 9.021-.86 14.164 0 3.169.233 6.377.674 9.586a85.261 85.261 0 0 0 19.668-1.19c-.511-4.172-.786-9.227-.786-15.352 0-4.137.31-8.101 1.008-11.762-.526.327-1.062.601-1.605.819zm27.573-29.518c-3.52 0-6.79.147-9.831.439a129.592 129.592 0 0 1-3.265 8.912c3.388-1.66 7.504-2.579 12.47-2.579 12.319 0 20.173 8.946 23.134 21.557a85.133 85.133 0 0 0 10.172-14.3c-6.298-8.739-16.485-14.029-32.68-14.029z"/><path fill="#FFF" d="M120.986 32.337H69.795c-6.236 0-11.292 5.056-11.292 11.292V147.33c0 6.236 5.056 11.292 11.292 11.292h51.191c6.236 0 11.293-5.056 11.293-11.292V43.63c0-6.237-5.056-11.293-11.293-11.293zM95.673 154.671c-5.093 0-9.222-4.13-9.222-9.223s4.129-9.222 9.222-9.222a9.222 9.222 0 1 1 0 18.445z"/><path fill="#FFA6A4" d="M69.795 53.605h51.191v78.669H69.795z"/><path fill="#FFF" d="M107.53 93.128v-7.34c0-4.67-3.8-8.469-8.47-8.469h-6.775c-4.67 0-8.47 3.799-8.47 8.469v7.34h-2.447v20.702h28.607V93.128h-2.445zm-11.198 9.676v3.498a.753.753 0 1 1-1.505 0v-3.498a2.634 2.634 0 1 1 1.505 0zm5.552-9.676H89.463v-7.34a2.826 2.826 0 0 1 2.823-2.823h6.775a2.826 2.826 0 0 1 2.823 2.823v7.34z"/></svg>