<svg id="Camada_1" data-name="Camada 1" xmlns="http://www.w3.org/2000/svg" viewBox="0 0 192 192"><defs><style>.cls-1{fill:#9abeff;isolation:isolate;}.cls-2{fill:#fff;}</style></defs><path class="cls-1" d="M171.9,92v7.82a76,76,0,0,1-73.21,72H29.9A9.86,9.86,0,0,1,20,162V96A76,76,0,0,1,93.31,20h5.38A76,76,0,0,1,171.9,92Z"/><path class="cls-2" d="M137.52,93.21c0-20.85-18.59-37.75-41.52-37.75S54.48,72.36,54.48,93.21c0,17.55,13.17,32.3,31,36.54,1.45,1.09-1.55,2.58-2.46,3.16s-3.86,2-3.86,2a.75.75,0,0,0-.36.88h0a.74.74,0,0,0,.64.52,59.48,59.48,0,0,0,45.9-16.45h0A36,36,0,0,0,137.52,93.21Zm-36.44.47a3.23,3.23,0,0,1-3.2,2.82,3,3,0,0,1-.42,0,3.22,3.22,0,0,1-2.79-3.61c.12-1,.23-4.17-.78-6.09a3.23,3.23,0,1,1,5.72-3C101.75,87.82,101.15,93.09,101.08,93.68Zm24.86-2.47A3.24,3.24,0,0,1,122.73,94l-.41,0a3.25,3.25,0,0,1-2.8-3.62c.13-1,.24-4.17-.77-6.09a3.23,3.23,0,0,1,5.71-3C126.61,85.36,126,90.62,125.94,91.21Z"/></svg>