<?xml version="1.0" encoding="UTF-8"?>
<svg version="1.1" viewBox="0 0 192 192" xmlns="http://www.w3.org/2000/svg">
 <g transform="translate(-1.9904 -.57244)" clip-rule="evenodd" style="fill:none">
  <path d="m75.408 181.45a5 5 0 0 1-5.58 0.773l-21.856-10.849a5.001 5.001 0 0 1-2.766-4.794l0.984-15.588a5.002 5.002 0 0 0-1.092-3.446l-8.911-11.096a4.998 4.998 0 0 0-3.096-1.804l-14.407-2.345a5 5 0 0 1-4.091-3.916l-5.186-24.897a5 5 0 0 1 2.03-5.117l11.176-7.814a5 5 0 0 0 2.02-3.026l3.23-14.724a5 5 0 0 0-0.525-3.52l-6.14-10.93a5 5 0 0 1 0.487-5.612l16.73-20.475a5 5 0 0 1 5.29-1.63l11.146 3.295a5 5 0 0 0 3.619-0.306l14.537-7.129a5 5 0 0 0 2.43-2.608l4.232-10.42a5 5 0 0 1 4.612-3.12l26.675-0.11a5 5 0 0 1 4.653 3.119l4.166 10.26a4.998 4.998 0 0 0 2.464 2.623l15.095 7.268a5 5 0 0 0 3.587 0.29l11.215-3.316a5 5 0 0 1 5.273 1.612l16.544 20.037a4.999 4.999 0 0 1 0.504 5.632l-6.06 10.787a4.996 4.996 0 0 0-0.523 3.53l3.532 15.954a5 5 0 0 0 2.017 3.017l11.121 7.775a5 5 0 0 1 2.028 5.126l-5.113 24.32a5.002 5.002 0 0 1-4.09 3.906l-14.401 2.344a4.994 4.994 0 0 0-3.079 1.785l-9.609 11.843a5 5 0 0 0-1.107 3.465l0.973 15.406a5 5 0 0 1-2.801 4.81l-21.698 10.571a5 5 0 0 1-5.547-0.79l-11.753-10.651a4.998 4.998 0 0 0-3.651-1.286l-6.697 0.393-7.28-0.457a4.999 4.999 0 0 0-3.67 1.285l-11.642 10.55z" fill="#b1b5bd" fill-rule="evenodd"/>
  <path d="m98 131c19.33 0 35-15.67 35-35s-15.67-35-35-35-35 15.67-35 35 15.67 35 35 35z" fill="#4a4a4a" fill-rule="evenodd"/>
  <path d="m98.5 150c29.547 0 53.5-23.953 53.5-53.5s-23.953-53.5-53.5-53.5-53.5 23.953-53.5 53.5 23.953 53.5 53.5 53.5z" stroke="#f9de81" stroke-width="10" style="stroke:#728dbe"/>
 </g>
</svg>
