<svg xmlns="http://www.w3.org/2000/svg" xmlns:xlink="http://www.w3.org/1999/xlink" xml:space="preserve" viewBox="0 0 192 192"><circle cx="96" cy="96" r="96" fill="#89BEFF"/><image xlink:href="30E0AF75.jpg" width="241" height="241" overflow="visible" transform="translate(-274.333 -179)"/><g fill="#FFF"><path d="M140.8 51.6c-5.3 23.7-10.7 47.4-15.9 71.1-.6 2.9-1.6 3.9-4.7 2.8-10.4-3.5-20.9-6.9-31.4-10-3.4-1-3.5-2.1-1.3-4.6 7.4-8.6 14.7-17.2 21.9-25.9 1.1-1.4 2.7-2.5 3-4.8-2.2-.2-3.2 1.5-4.5 2.5-10.4 8.6-20.8 17.2-31 26-2.4 2.1-4.5 2.6-7.6 1.4-8.9-3.5-18-6.7-28.2-10.4C52.5 94.2 62.7 89.1 73 84c21-10.4 42-20.9 63-31.3 1.3-.7 2.8-1.1 4.1-1.7.3.2.5.4.7.6zM85.7 140.9v-16.3c0-1.4.6-2.3 2.2-1.8.3.1.6.2 1 .2 9.8 2 9.9 2.1 4 10.1-2 2.7-3.9 5.3-5.9 7.9-.5.1-.9 0-1.3-.1zM140.2 51c.2-.1.4-.1.7-.2 0 .2-.1.5-.1.7-.2-.1-.4-.3-.6-.5z"/></g></svg>