<?xml version="1.0" encoding="UTF-8"?>
<svg version="1.1" viewBox="0 0 192 192" xmlns="http://www.w3.org/2000/svg">
 <circle class="a" cx="96" cy="96" r="88" style="fill:#56595b"/>
 <ellipse cx="64.352" cy="120.3" rx="13.387" ry="11.845" style="fill:#fff;stroke-linecap:round;stroke-linejoin:round;stroke-width:24.146"/>
 <ellipse cx="114.69" cy="120.3" rx="13.387" ry="11.845" style="fill:#fff;stroke-linecap:round;stroke-linejoin:round;stroke-width:24.146"/>
 <path transform="matrix(1.4668 0 0 1.4668 247.39 -53.178)" d="m-120.54 110.19v-29.974a3.0129 3.0129 134.88 0 1 3-3.0129l33.198-0.14248a2.9872 2.9872 44.877 0 1 3 2.9871v38.217h-1.1217a3.9097 3.9097 37.5 0 1-3.7765-2.8978l-1.2705-4.7415v-20.876l-28.151-0.42058v28.936l-2.539-2.4952a7.8236 7.8236 67.251 0 1-2.3398-5.58z" style="fill:#fff;stroke-linecap:round;stroke-linejoin:round;stroke-width:16"/>
</svg>
