<?xml version="1.0" encoding="UTF-8" standalone="no"?>
<svg
   xml:space="preserve"
   viewBox="0 0 192 192"
   version="1.1"
   id="svg30"
   sodipodi:docname="shoot-i-smoke.svg"
   inkscape:version="1.2.2 (b0a8486541, 2022-12-01)"
   inkscape:export-filename="shoot-i-smoke.png"
   inkscape:export-xdpi="96"
   inkscape:export-ydpi="96"
   xmlns:inkscape="http://www.inkscape.org/namespaces/inkscape"
   xmlns:sodipodi="http://sodipodi.sourceforge.net/DTD/sodipodi-0.dtd"
   xmlns:xlink="http://www.w3.org/1999/xlink"
   xmlns="http://www.w3.org/2000/svg"
   xmlns:svg="http://www.w3.org/2000/svg"><defs
     id="defs34" /><sodipodi:namedview
     id="namedview32"
     pagecolor="#505050"
     bordercolor="#eeeeee"
     borderopacity="1"
     inkscape:showpageshadow="0"
     inkscape:pageopacity="0"
     inkscape:pagecheckerboard="0"
     inkscape:deskcolor="#d1d1d1"
     showgrid="false"
     inkscape:zoom="3.4766083"
     inkscape:cx="121.95794"
     inkscape:cy="133.89486"
     inkscape:window-width="1884"
     inkscape:window-height="1055"
     inkscape:window-x="36"
     inkscape:window-y="0"
     inkscape:window-maximized="1"
     inkscape:current-layer="svg30" /><image
     xlink:href="E61276B.jpg"
     width="180"
     height="180"
     overflow="visible"
     transform="translate(-6192 -6192)"
     id="image4" /><rect
     style="opacity:1;fill:#ffffff;fill-opacity:1;stroke-width:7.5;stroke-linecap:round;stroke-linejoin:round;paint-order:stroke fill markers"
     id="rect24512"
     width="152"
     height="152"
     x="20"
     y="20"
     rx="10" /><g
     id="g24938"
     transform="matrix(1.0735294,0,0,1.0735294,-271.16934,44.14853)"><path
       fill-rule="evenodd"
       clip-rule="evenodd"
       d="m 347.02076,20.8 v 13 h -16 c -3.3137,0 -6,2.6863 -6,6 0,3.3137 2.6863,6 6,6 h -5 c -3.866,0 -7,3.134 -7,7 0,3.866 3.134,7 7,7 h -5 c -4.41828,0 -8,3.5817 -8,8 0,4.4183 3.58172,8 8,8 h 42 c 4.4183,0 8,-3.5817 8,-8 0,-4.4183 -3.5817,-8 -8,-8 h -5 c 3.866,0 7,-3.134 7,-7 0,-3.866 -3.134,-7 -7,-7 h -11 c 6.6274,0 12,-5.3726 12,-12 v -1 c 0,-6.6274 -5.3726,-12 -12,-12 z"
       fill="#f7f0df"
       id="path792"
       style="fill:#fdf5d9;fill-opacity:1" /><rect
       x="313.02075"
       y="59.799999"
       width="37"
       height="16"
       fill="#f8a65d"
       id="rect794"
       style="fill:#f8c18c" /><rect
       x="345.02075"
       y="22.799999"
       width="15"
       height="11"
       fill="#777d89"
       id="rect796"
       style="fill:#979797" /><path
       id="rect798"
       style="fill:#ff837d"
       d="m 345.02076,17.8 15,6.232438 V 27.8 h -15 z"
       sodipodi:nodetypes="ccccc" /><rect
       x="350.02075"
       y="59.799999"
       width="5"
       height="16"
       fill="#e5d98d"
       id="rect800"
       style="fill:#f9de81" /><path
       id="path804"
       style="opacity:1;fill:#44464a;fill-opacity:0.25"
       d="m 325.02148,39.800781 c 0,3.313697 2.68631,6 6,6 h 16 c 4.43887,0 8.30504,-2.416959 10.38086,-6 z m -6,13 c 0,3.865996 3.13401,7 7,7 h 32 c 3.866,0 7,-3.134004 7,-7 z m -6,15 c 0,4.418296 3.58173,8 8,8 h 42 c 4.4183,0 8,-3.581704 8,-8 z" /><path
       fill-rule="evenodd"
       clip-rule="evenodd"
       d="m 325.10956,40.8341 c -0.0584,-0.336 -0.0888,-0.6815 -0.0888,-1.0341 0,-3.3137 2.6863,-6 6,-6 h 16 v -13 c 1.7844,0 3.4779,0.38949 5,1.08808 4.1311,1.89602 7,6.06892 7,10.91192 v 1 c 0,2.6124 -0.8348,5.0298 -2.2521,7 -2.1784,3.0281 -5.7329,5 -9.7479,5 h 11 c 0.3306,0 0.6558,0.0229 0.9742,0.0672 3.4049,0.4741 6.0258,3.3974 6.0258,6.9328 0,0.7343 -0.1131,1.4422 -0.3227,2.1072 -0.335,1.0624 -0.9164,2.0153 -1.6773,2.7918 -1.2705,1.2965 -3.0413,2.101 -5,2.101 h 5 c 1.4249,0 2.7628,0.3725 3.9216,1.0255 2.4344,1.3717 4.0784,3.9811 4.0784,6.9745 0,4.4183 -3.5817,8 -8,8 h -42 c -4.41828,0 -8,-3.5817 -8,-8 0,-2.9934 1.64404,-5.6028 4.07844,-6.9745 1.15876,-0.653 2.49666,-1.0255 3.92156,-1.0255 h 5 c -1.9587,0 -3.7295,-0.8045 -5,-2.101 -0.7609,-0.7765 -1.3423,-1.7294 -1.6773,-2.7918 -0.2096,-0.665 -0.3227,-1.3729 -0.3227,-2.1072 0,-2.5804 1.3962,-4.8347 3.4744,-6.0486 1.0354,-0.6048 2.24,-0.9514 3.5256,-0.9514 h 5 c -2.087,0 -3.9251,-1.0655 -5,-2.6822 -0.4502,-0.6771 -0.7666,-1.451 -0.9112,-2.2837 z m -4.8146,1.4174 c -0.1794,-0.7883 -0.2742,-1.6088 -0.2742,-2.4515 0,-6.0751 4.9249,-11 11,-11 h 11 v -13 h 5 c 9.3888,0 17,7.61116 17,17 v 1 c 0,2.7853 -0.6699,5.4142 -1.8572,7.7343 4.586,1.687 7.8572,6.0943 7.8572,11.2657 0,1.2888 -0.2032,2.5301 -0.5792,3.6937 3.9293,2.2363 6.5792,6.4618 6.5792,11.3063 0,7.1797 -5.8203,13 -13,13 h -42 c -7.1797,0 -13,-5.8203 -13,-13 0,-4.8445 2.64987,-9.07 6.57922,-11.3063 -0.37605,-1.1636 -0.57922,-2.4049 -0.57922,-3.6937 0,-4.554 2.53672,-8.5154 6.2742,-10.5485 z"
       fill="#44464a"
       id="path806"
       style="fill:#56595b" /></g></svg>
