<?xml version="1.0" encoding="UTF-8"?>
<svg version="1.1" viewBox="0 0 192 192" xml:space="preserve" xmlns="http://www.w3.org/2000/svg">
	 <circle class="a" cx="96" cy="96" r="88" fill="#fff"/><g transform="translate(-4.2141 -3.5175)"><path d="m130 94c0 18.225-14.775 33-33 33-5.665 0-15.654-3.942-15.654-3.942l-13.73 2.25a1 1 0 0 1-1.157-1.088l1.483-14.566s-3.942-9.99-3.942-15.654c0-18.225 14.775-33 33-33s33 14.775 33 33z" fill="#ff837d"/><path d="m103.43 121.53c0 9.1125 7.3875 16.5 16.5 16.5 2.8325 0 7.827-1.971 7.827-1.971l6.865 1.125a0.5 0.5 0 0 0 0.5785-0.544l-0.7415-7.283s1.971-4.995 1.971-7.827c0-9.1125-7.3875-16.5-16.5-16.5s-16.5 7.3875-16.5 16.5z" fill="#9abeff" stroke-width=".5"/><path d="m119.93 105.04c-9.1125 0-16.5 7.3875-16.5 16.5 0 1.6297 0.23952 3.2025 0.67969 4.6894 10.538-2.3142 19.192-9.6569 23.305-19.393-2.2469-1.146-4.7892-1.7969-7.4844-1.7969z" fill="#728dbe"/></g></svg>
