<?xml version="1.0" encoding="UTF-8"?>
<svg id="Icons" xmlns="http://www.w3.org/2000/svg" xmlns:xlink="http://www.w3.org/1999/xlink" viewBox="0 0 192 192">
  <defs>
    <style>
      .cls-1 {
        fill: #fff;
        fill-rule: evenodd;
      }

      .cls-2, .cls-3 {
        fill: none;
      }

      .cls-3 {
        stroke: #fff;
        stroke-width: 5.07px;
      }

      .cls-4 {
        fill: #f9de81;
      }

      .cls-5 {
        clip-path: url(#clippath);
      }
    </style>
    <clipPath id="clippath">
      <rect class="cls-2" x="48.33" y="95.9" width="95.34" height="71" rx="10.03" ry="10.03"/>
    </clipPath>
  </defs>
  <g id="Done">
    <g id="Piixel_IMS" data-name="Piixel IMS">
      <g>
        <path class="cls-1" d="M159.72,18c0-5.52-4.48-10-10-10h-77.69c-2.67,0-5.24,1.06-7.13,2.94l-29.64,29.49c-1.91,1.9-2.98,4.48-2.98,7.17v126.39c0,5.52,4.48,10,10,10h107.45c5.52,0,10-4.48,10-10V18Z"/>
        <g class="cls-5">
          <rect class="cls-4" x="48.33" y="95.9" width="95.34" height="71" rx="10.03" ry="10.03"/>
          <path class="cls-3" d="M71.66,93.26v27.06h74.54M101.58,93.51v25.79M45.5,143.07h100.36M124.91,141.55v27.5"/>
        </g>
      </g>
    </g>
  </g>
</svg>