<svg xmlns="http://www.w3.org/2000/svg" width="192" height="192"><circle cx="96" cy="96" r="88" fill="#f8c18c"/><g fill="#fff" stroke-width="0"><path d="M104.21 55.891 90.956 78.848l42.736.315c-4.32-9.19-16.781-22.373-29.482-23.272zM65.271 69.174l13.254 22.957 21.641-36.853c-10.118-.853-27.766 3.347-34.895 13.896zM57.205 109.82h26.509L62.618 72.652c-5.798 8.336-10.985 25.719-5.413 37.168zM88.492 136.23l13.254-22.957-42.736-.315c4.32 9.19 16.781 22.373 29.482 23.272zM127.32 122.83l-13.254-22.957-21.641 36.853c10.118.853 27.766-3.347 34.895-13.896zM134.79 82.628h-26.509l21.096 37.168c5.798-8.336 10.985-25.719 5.413-37.168z"/></g></svg>