<svg xmlns="http://www.w3.org/2000/svg" id="svg2" width="192" height="192" version="1.1"><g id="layer1" transform="translate(0 -860.362)"><circle id="circle907" cx="96" cy="956.362" r="88" style="fill:#f8c18c;fill-opacity:1;fill-rule:evenodd;stroke:none;stroke-opacity:1"/><path id="path969" d="M76.348 985.57c-5.11-.637-9.836-2.435-12.262-4.665-2.253-2.071-4.573-7.43-4.58-10.582l-.006-2.734h12.12l.42 1.912c.517 2.355 3.523 4.982 6.294 5.5 1.14.214 9.743.296 19.118.184 18.259-.22 19.769-.47 21.157-3.516.942-2.07.891-5.3-.116-7.296-1.418-2.81-3.883-3.141-23.657-3.18-10.157-.02-20.082-.346-22.192-.73-5.636-1.023-8.83-3.13-10.83-7.143-1.453-2.914-1.669-4.154-1.657-9.497.023-9.921 2.089-12.987 10.542-15.646 4.308-1.355 5.667-1.435 24.502-1.435 17.383 0 20.492.152 24.235 1.184 7.235 1.995 10.808 6.119 10.819 12.485l.004 2.09h-6.28c-5.86 0-6.323-.094-6.915-1.421-.35-.783-1.648-2.013-2.887-2.734-2.109-1.229-3.31-1.312-18.976-1.312-19.342 0-20.484.226-21.572 4.267-.941 3.495-.19 6.82 1.84 8.152 1.447.949 4.408 1.134 22.919 1.435 20.732.337 21.352.384 25.088 1.93 5.186 2.145 7.68 5.41 8.671 11.36 1.284 7.702-.997 14.664-5.858 17.88-4.751 3.145-8.38 3.657-27.55 3.887-9.73.117-19.805-.051-22.39-.374z" style="fill:#fff;fill-opacity:1;fill-rule:nonzero;stroke:none;stroke-width:7.73011;stroke-linecap:butt;stroke-linejoin:miter;stroke-miterlimit:4;stroke-dasharray:none;stroke-opacity:1"/></g><style id="style853" type="text/css">.st0{fill:#fff}</style></svg>