<?xml version="1.0" encoding="UTF-8"?>
<svg version="1.1" viewBox="0 0 192 192" xml:space="preserve" xmlns="http://www.w3.org/2000/svg">
	 <path d="m18.877 63.648v58.983c0 9.9232 6.0562 11.576 6.0562 11.576l63.865 42.997c9.9094 6.616 7.1572-7.7168 7.1572-7.7168v-54.021z" fill="#56595b" fill-rule="evenodd" stroke-width=".15332"/><path d="m173.12 63.648v58.983c0 9.9232-6.0563 11.576-6.0563 11.576s-53.955 36.382-63.864 42.997c-9.9094 6.616-7.1572-7.7168-7.1572-7.7168v-54.021z" fill="#56595b" fill-rule="evenodd" stroke-width=".15332"/><path d="m103.16 14.197c-4.408-2.7543-11.018-2.7543-14.874 0l-66.105 45.169c-4.407 2.7552-4.407 7.7122 0 10.466l66.105 45.721c4.4065 2.7537 11.018 2.7537 14.874 0l66.655-46.272c4.4081-2.7537 4.4081-7.7122 0-10.466z" fill="#83868c" fill-rule="evenodd" stroke-width=".15332"/><path d="m96 179.87c-3.3118 0-5.5197-2.1174-5.5197-4.7653v-59.312c0-2.6464 2.2079-4.7653 5.5197-4.7653 3.3118 0 5.5197 2.119 5.5197 4.7653v58.782c0 3.1784-2.2079 5.2958-5.5197 5.2958z" fill="#83868c" fill-rule="evenodd" stroke-width=".15332"/><path d="m151.03 101.2c0 5.5151 0.54891 7.7199-5.5028 11.581l-13.755 8.8223c-6.0518 3.8607-8.252 0.55198-8.252-4.4112v-14.337c0-1.1024 0-1.6544-1.6513-2.7568-14.305-9.9263-68.696-47.974-78.599-55.142 8.5164-5.8735 16.985-11.665 25.209-17.033 7.1526 4.4115 58.864 38.551 80.322 53.439 0.92099 0.66175 1.6795 1.6414 1.6795 2.1934v17.645z" fill="#979797" fill-rule="evenodd" stroke-width=".15332"/><path d="m151.18 101.13v-17.064c0-1.1009-0.68356-1.4712-1.6544-2.2018-21.787-15.19-74.395-49.863-81.208-54.027l-11.399 7.7892c18.746 12.66 68.9 45.687 82.132 55.045 1.6544 1.1009 1.6544 2.2017 1.6544 2.7522v22.447l5.5136-3.1818c5.826-3.3621 4.9616-6.6052 4.9616-11.559z" fill="#ccc" fill-rule="evenodd" stroke-width=".15332"/></svg>
