<?xml version="1.0" encoding="UTF-8"?><svg id="a" xmlns="http://www.w3.org/2000/svg" width="192" height="192" xmlns:xlink="http://www.w3.org/1999/xlink" viewBox="0 0 192 192"><defs><clipPath id="d"><circle cx="96" cy="96" r="88" style="fill:none;"/></clipPath></defs><g id="b"><g id="c"><g style="clip-path:url(#d);"><circle cx="96" cy="96" r="88" style="fill:#9abeff;"/><path d="m121.11,13.24c7.99-.15,15.92,1.48,23.21,4.75-5.46-3.49-11.3-6.36-17.39-8.56-14.96-5.52-31.11-7.03-46.83-4.37-15.74,2.67-30.51,9.41-42.85,19.55-.78.58-2.84,2.49-3.66,3.17-.82.68-2.68,2.53-3.39,3.41-.71.89-2.3,2.43-3.38,3.42s-2.4,2.83-3.11,3.72l-2.43,3.2c-.65.89-2.13,3.1-2.74,4-.61.89-1.02,1.67-1.29,2.08-.27.4-.88,1.43-1.04,1.7-.17.28-1.76,3.21-2.17,3.89-.4.68-1.62,3.41-2.09,4.37l-1.59,3.72c0,.4-1.21,3.41-1.41,3.78-.21.37-.71,2.18-.98,3.07-.58,1.71-1.09,3.69-1.56,5.42-.27,1.06-.8,3.69-1.04,4.74v.82c-3.95,21.73-.07,44.15,10.92,63.24,1.12,1.85,2.64,4.37,3.92,6.11.48.72,1.33,1.95,1.86,2.64l1.97,2.59,3.11,3.69,3.38,3.41c.65.58,1.66,1.68,2.34,2.22l1.21,1.06.31.24.31.24.61.52c.77.64,1.76,1.33,2.57,1.91l.65.45.67.45c.71.47,1.97,1.26,2.75,1.67.77.41,1.01.61,1.38.78l2.13,1.06c.68.34,1.56.71,2.2.99,1.59.65,3.39,1.23,4.88,1.77.88.21,1.82.52,2.7.75l2.34.52,2.37.4c2.72.41,5.46.61,8.22.62,6.72-.2,13.34-1.64,19.52-4.27,6.55-2.83,12.46-6.94,17.39-12.09,4.94-5.17,8.81-11.27,11.37-17.94l.57-1.5c0-.51.58-1.84.74-2.32.31-1.23.74-2.7.98-3.92,0-.45.27-1.13.34-1.57.39-2.36.66-4.74.78-7.13h0c0-1.53-1.16-2.8-2.68-2.95-.82-.08-1.65-.19-2.54-.29-13.75-1.72-26.33-8.64-35.14-19.34-8.85-10.75-13.31-24.46-12.46-38.37.82-13.9,6.89-26.97,16.97-36.57,10.03-9.55,23.34-14.9,37.2-14.92h-.07,0ZM44.75,152.21c-2.09-1.76-4.06-3.65-5.92-5.66-7.89-8.48-13.95-18.49-17.79-29.41-7.79-22.11-6.07-46.46,4.75-67.26,5.34-10.26,12.74-19.3,21.74-26.57.67-.58,1.76-1.34,2.43-1.85,2.7-2.03,5.53-3.88,8.46-5.56,9.39-5.28,19.75-8.64,30.45-9.87l3.95-.34h7.95l-3.96.31-3.92.51-3.89.66c-11.8,2.18-22.99,6.92-32.77,13.88-9.81,6.98-17.99,16.01-23.97,26.47-12.12,21.23-14.41,46.69-6.25,69.74,3.28,9.18,8.16,17.71,14.41,25.19l.6.75.31.37.34.34c1.68,1.95,3.48,3.8,5.38,5.53,13.95,12.31,33.85,15.23,50.75,7.45-16.95,9.57-38.04,7.71-53.05-4.68Zm11.41-15.64l-.61-.64-.34-.31-2.26-2.32c-6.81-7.27-12.09-15.83-15.53-25.17-6.98-18.91-6.06-39.83,2.55-58.06,4.25-9,10.26-17.06,17.68-23.69,3.68-3.26,7.68-6.14,11.94-8.6,1.49-.82,3.39-1.81,4.88-2.59.57-.31,1.12-.48,1.65-.75,6.68-2.99,13.77-4.92,21.04-5.73.95,0,2.64-.28,3.59-.31h2.71c2.71-.04,5.42.07,8.12.34-4.18.05-8.35.43-12.48,1.13-11.89,1.98-23.12,6.85-32.69,14.18-9.61,7.36-17.28,16.95-22.35,27.94-10.77,23.96-8,51.83,7.27,73.2.57.71,1.52,2.08,2.13,2.8,1.01,1.27,2.3,2.8,3.38,3.99,6.02,6.88,14.17,11.53,23.16,13.22,8.96,1.68,18.23.29,26.31-3.95-15.13,10.76-36.85,7.75-50.14-4.67h0Zm9.16-24.57c2.87,4.17,6.28,7.93,10.16,11.17,9.62,7.89,22.54,10.45,34.44,6.83-9.85,4.31-21.11,3.99-30.69-.89-4.85-2.41-9.21-5.72-12.82-9.75-6.24-6.8-10.96-14.85-13.84-23.61-5.85-17.75-3.82-37.16,5.58-53.32,4.63-7.96,10.91-14.84,18.41-20.18.74-.54,1.9-1.26,2.71-1.77,1.49-.99,3.38-1.94,4.84-2.8,1.45-.85,2.5-1.23,3.62-1.71,6.83-2.92,14.13-4.6,21.55-4.94h6.3l2.33.2c1.29,0,2.57.34,3.86.51h-6.97c-5.9.38-11.72,1.52-17.32,3.41-9.38,3.08-17.91,8.32-24.89,15.31-7,7.01-12.27,15.56-15.39,24.96-6.33,19.1-3.31,40.07,8.14,56.62v-.03h0Z" style="fill:#728dbe;"/><path d="m154.75,167.23c.74-.58,2.84-2.49,3.66-3.17l3.39-3.42,3.38-3.41c.78-.92,2.4-2.8,3.11-3.72l2.43-3.2c.65-.89,2.14-3.11,2.74-4l1.29-2.08c.2-.27.88-1.43,1.05-1.71.17-.27,1.76-3.17,2.13-3.89.37-.71,1.66-3.42,2.14-4.37.47-.95,1.12-2.63,1.59-3.72,0-.37,1.22-3.41,1.38-3.78.17-.37.74-2.19,1.02-3.07.57-1.71,1.08-3.69,1.56-5.43.27-1.06.77-3.69,1.04-4.74v-.78c3.95-21.71.08-44.12-10.92-63.24-1.12-1.88-2.64-4.36-3.92-6.14-.59-.9-1.21-1.77-1.86-2.63l-1.97-2.55c-.67-.79-2.46-2.98-3.14-3.72-.68-.74-2.23-2.42-3.39-3.41-.6-.58-1.65-1.68-2.3-2.22l-1.21-1.03-.31-.28-.31-.24-.64-.51c-.74-.65-1.73-1.34-2.54-1.91l-.68-.45-.64-.45c-.74-.47-1.97-1.26-2.74-1.67-.78-.41-1.02-.61-1.39-.78l-2.13-1.06-2.2-.99c-1.59-.65-3.39-1.23-4.88-1.78l-2.7-.71-2.34-.54-2.37-.41c-2.72-.41-5.47-.62-8.22-.62-6.71.2-13.33,1.64-19.52,4.27-6.55,2.83-12.46,6.94-17.39,12.1-4.94,5.17-8.81,11.27-11.37,17.94l-.57,1.53c-.17.48-.57,1.81-.74,2.29-.34,1.23-.74,2.7-.98,3.92,0,.45-.27,1.13-.34,1.57-.43,2.39-.72,4.81-.85,7.24h0c0,1.64,1.27,2.98,2.91,3.08,6.17.41,12.23,1.88,17.9,4.36,6.58,2.88,12.52,7.05,17.47,12.26,4.96,5.22,8.84,11.38,11.41,18.11,2.57,6.75,3.78,13.94,3.57,21.15-.39,9.09-2.97,17.96-7.53,25.84-4.54,7.85-10.93,14.47-18.61,19.28-15.54,9.75-34.91,11.13-51.67,3.69,19.1,12.11,42.02,16.7,64.31,12.89,15.77-2.71,30.56-9.49,42.9-19.68h0Zm-7.44-127.7c2.1,1.77,4.09,3.66,5.99,5.66,15.12,16.28,23.24,37.85,22.59,60.06-.61,22.2-9.94,43.27-25.97,58.65-.82.74-2.13,2.05-3.01,2.73l-1.56,1.3-.8.68-.37.31-2.03,1.53c-2.73,2.01-5.58,3.86-8.53,5.52l-3.59,1.91c-12.03,6-25.4,8.85-38.84,8.26,21.78-1.19,42.25-10.76,57.14-26.69,13.33-14.32,21.18-32.88,22.19-52.42,1.03-19.55-4.86-38.83-16.63-54.47-.71-1.03-1.66-2.08-2.44-3.04l-.6-.74-.31-.38-.31-.37c-6.61-8.1-15.71-13.78-25.88-16.16-10.16-2.36-20.81-1.28-30.28,3.08,16.98-9.69,38.18-7.87,53.25,4.57Zm-13.53,13.65c1.08.86,2.16,1.88,3.18,2.8,8.71,8.46,15.22,18.92,18.96,30.47,3.75,11.56,4.63,23.89,2.56,35.87-2.07,11.97-7.02,23.26-14.44,32.89-7.39,9.59-17.02,17.22-28.05,22.2l-1.69.71-.4.17-.45.17-.84.34c-.88.31-2.5.95-3.38,1.23-9.23,3.02-19,4.06-28.66,3.07,4.77-.08,9.53-.59,14.21-1.5,11.52-2.27,22.33-7.25,31.53-14.54,9.24-7.32,16.61-16.72,21.52-27.44,10.97-24.46,7.79-52.95-8.29-74.4-.61-.85-1.52-1.91-2.16-2.73-.65-.82-2-2.26-2.92-3.42-6.08-6.6-14.17-11.01-23.01-12.55-8.83-1.53-17.91-.09-25.84,4.09,14.3-10.24,34.84-8.19,48.2,2.7l-.04-.14h0Zm-36.2,122.22l2.81-1.19,2.74-1.34c1.04-.51,2.3-1.27,3.38-1.84l3.22-2.01c.92-.66,2.2-1.54,3.07-2.23,12.64-9.6,21.23-23.58,24.06-39.2,2.85-15.64-.23-31.78-8.66-45.27l-1.66-2.52-1.79-2.43-1.9-2.38c-1.91-2.32-4.04-4.44-6.36-6.35-9.61-7.85-22.49-10.41-34.38-6.83,12.01-5.23,25.9-3.66,36.44,4.13,3.5,2.53,6.68,5.52,9.44,8.87,6.84,8.13,11.58,17.81,13.8,28.2,2.23,10.41,1.87,21.2-1.04,31.43-2.9,10.21-8.27,19.56-15.64,27.21-7.34,7.62-16.45,13.3-26.53,16.53-9.09,2.84-18.73,3.48-28.11,1.88,9.26.34,18.49-1.2,27.13-4.54,0,0-.03-.13-.03-.13Z" style="fill:#728dbe;"/></g></g></g></svg>