<?xml version="1.0" encoding="UTF-8"?>
<svg version="1.1" viewBox="0 0 192 192" xmlns="http://www.w3.org/2000/svg">
 <circle class="a" cx="96" cy="96" r="88" style="fill:#9abeff"/>
 <path d="m60.522 134.55c-1.6835-1.2784-2.1776-3.5922-1.3445-6.297 0.6282-2.0396 10.118-25.147 23.177-56.436 3.0223-7.2412 4.3785-9.5878 7.0445-12.189 3.952-3.8562 8.2511-3.8556 12.436 0.0017 2.7394 2.5251 4.3623 5.3728 8.0912 14.197 7.4611 17.657 15.646 36.941 18.643 43.928 4.842 11.285 5.1978 12.554 4.1932 14.958-0.88423 2.1163-2.7368 2.9362-5.224 2.3119-1.695-0.42543-25.416-13.271-26.601-14.405-1.1878-1.1367-0.35289-3.6333 1.3587-4.0629 1.0912-0.27386 3.9623 1.031 12.687 5.766 6.2023 3.366 11.401 5.9955 11.554 5.8433 0.23705-0.237-11.875-29.317-22.872-54.913-4.4395-10.333-6.8521-12.567-10.487-9.7074-1.9776 1.5556-2.5864 2.7993-9.2491 18.895-3.0722 7.4218-8.4252 20.33-11.896 28.685-8.0912 19.479-7.5008 17.851-6.3111 17.401 2.4935-0.94438 16.048-8.8136 22.513-13.071 6.4842-4.2693 13.553-9.8915 13.058-10.386-0.1064-0.1064-3.3944 0.70179-7.3067 1.796-7.7988 2.1812-11.483 2.492-12.888 1.0871-2.4115-2.4115-0.19644-6.83 7.0683-14.099 5.3316-5.335 11.513-9.944 14.262-10.634 1.7462-0.43826 3.0329 0.69971 3.0329 2.6822 0 1.3255-0.51335 1.891-3.0146 3.3212-3.7445 2.1409-10.405 7.7938-13.021 11.05l-1.9672 2.4493 1.6801-0.36824c0.92404-0.20254 4.1212-1.0191 7.1048-1.8146 6.8689-1.8314 9.9159-1.8817 11.492-0.18967 3.211 3.4466-0.40289 8.42-12.323 16.959-9.5602 6.8486-29.562 17.96-32.331 17.96-0.88856 0-2.0409-0.323-2.5608-0.71777z" style="fill:#fff;stroke-width:.57422"/>
</svg>
