<?xml version="1.0" encoding="UTF-8" standalone="no"?>
<svg
   viewBox="0 0 192 192"
   version="1.1"
   id="svg3"
   xml:space="preserve"
   width="192"
   height="192"
   xmlns="http://www.w3.org/2000/svg"
   xmlns:svg="http://www.w3.org/2000/svg"><defs
     id="defs1"><style
       id="style1">.a{fill:none;stroke:#b1b5bd;stroke-linecap:round;stroke-linejoin:round;isolation:isolate;opacity:0.63;}</style><style
       id="style1-6">.a{fill:none;stroke:#b1b5bd;stroke-linecap:round;stroke-linejoin:round;isolation:isolate;opacity:0.63;}</style></defs><rect
     class="a"
     x="20.5"
     y="20.5"
     width="152"
     height="152"
     rx="10"
     id="rect1-2"
     style="opacity:1;isolation:isolate;fill:#54688c;fill-opacity:1;stroke:none;stroke-linecap:round;stroke-linejoin:round" /><style
     type="text/css"
     id="style1-3">
	.st0{fill:url(#SVGID_1_);}
	.st1{fill:#1E1E1E;}
	.st2{fill:#1F1F1F;}
</style><rect
     style="display:inline;fill:#f9f9f9;fill-opacity:1;stroke:none;stroke-width:0.29398"
     id="rect23"
     width="26.456858"
     height="42.591465"
     x="84.150764"
     y="48.676735"
     ry="5.5528002" /><path
     d="M 106.6454,48.910575 84.151237,69.986974 v 1.367339 L 107.66363,49.323686 c -0.32132,-0.170567 -0.66284,-0.307634 -1.01823,-0.413111 z"
     style="fill:#54688c;fill-opacity:1;stroke-width:0.102344"
     id="path38" /><path
     d="M 101.91888,48.675898 84.151237,65.32251 v 1.367338 l 19.226133,-18.01395 z"
     style="fill:#54688c;fill-opacity:1;stroke-width:0.102344"
     id="path37" /><path
     d="M 96.71717,48.675898 84.151237,60.448581 v 1.367338 L 98.175664,48.675898 Z"
     style="fill:#54688c;fill-opacity:1;stroke-width:0.102344"
     id="path36" /><path
     d="m 93.233853,48.675898 h -1.458494 l -7.624122,7.143128 v 1.365398 z"
     style="fill:#54688c;fill-opacity:1;stroke-width:0.102344"
     id="path35" /><path
     d="M 109.39754,50.766664 84.151237,74.420641 v 1.367338 L 109.95416,51.61228 c -0.15981,-0.299605 -0.34663,-0.58223 -0.55662,-0.845616 z"
     style="fill:#54688c;fill-opacity:1;stroke-width:0.102344"
     id="path39" /><path
     d="m 110.60002,54.090944 -25.773841,24.150485 0.705972,0.705973 25.075619,-23.494938 v -1.223816 c 0,-0.0466 -0.007,-0.09139 -0.008,-0.137704 z"
     style="fill:#54688c;fill-opacity:1;stroke-width:0.102344"
     id="path40" /><path
     d="M 110.60777,58.860141 86.949916,81.026532 87.655889,81.732504 110.60777,60.227479 Z"
     style="fill:#54688c;fill-opacity:1;stroke-width:0.102344"
     id="path41" /><path
     d="M 110.60777,63.516848 89.292816,83.487741 89.998789,84.193713 110.60777,64.884186 Z"
     style="fill:#54688c;fill-opacity:1;stroke-width:0.102344"
     id="path42" /><path
     d="M 110.60777,68.082399 92.021674,85.497048 92.727646,86.203022 110.60777,69.449737 Z"
     style="fill:#54688c;fill-opacity:1;stroke-width:0.102344"
     id="path43" /><rect
     style="display:inline;fill:#f9f9f9;fill-opacity:1;stroke:none;stroke-width:0.247103"
     id="rect52"
     width="22.238169"
     height="35.800026"
     x="13.382063"
     y="84.960236"
     ry="4.667376"
     transform="rotate(-30)" /><path
     d="m 70.542184,57.603037 -7.516415,24.79588 0.574654,0.995331 7.856583,-25.918427 c -0.305585,0.01088 -0.611793,0.05463 -0.914822,0.127216 z"
     style="fill:#54688c;fill-opacity:1;stroke-width:0.086025"
     id="path53" /><path
     d="m 67.002963,59.418634 -5.93754,19.584865 0.574655,0.99533 6.424571,-21.193159 z"
     style="fill:#54688c;fill-opacity:1;stroke-width:0.086025"
     id="path54" /><path
     d="M 63.21647,61.604767 59.017046,75.455605 59.5917,76.450936 64.278156,60.991803 Z"
     style="fill:#54688c;fill-opacity:1;stroke-width:0.086025"
     id="path55" /><path
     d="m 60.680849,63.068709 -1.061686,0.612965 -2.547791,8.403926 0.573839,0.993918 z"
     style="fill:#54688c;fill-opacity:1;stroke-width:0.086025"
     id="path56" /><path
     d="m 73.325618,57.797499 -8.436502,27.82883 0.574654,0.99533 8.622423,-28.442543 c -0.242244,-0.15093 -0.497021,-0.278144 -0.760575,-0.381617 z"
     style="fill:#54688c;fill-opacity:1;stroke-width:0.086025"
     id="path57" /><path
     d="M 75.598048,59.711981 66.9862,88.123947 67.796801,88.341148 76.175903,60.699816 75.661567,59.80896 c -0.01959,-0.03392 -0.04347,-0.0636 -0.06366,-0.0969 z"
     style="fill:#54688c;fill-opacity:1;stroke-width:0.086025"
     id="path58" /><path
     d="m 77.608055,63.180377 -7.905415,26.07839 0.810602,0.2172 7.669467,-25.30026 z"
     style="fill:#54688c;fill-opacity:1;stroke-width:0.086025"
     id="path59" /><path
     d="m 79.56514,66.570148 -7.122648,23.495558 0.810601,0.2172 6.886701,-22.717427 z"
     style="fill:#54688c;fill-opacity:1;stroke-width:0.086025"
     id="path60" /><path
     d="m 81.483915,69.893563 -6.210541,20.487921 0.810601,0.217201 5.974594,-19.709791 z"
     style="fill:#54688c;fill-opacity:1;stroke-width:0.086025"
     id="path61" /><rect
     style="display:inline;fill:#f9f9f9;fill-opacity:1;stroke:none;stroke-width:0.247103"
     id="rect43"
     width="22.238169"
     height="35.800026"
     x="133.31697"
     y="-11.992101"
     ry="4.667376"
     transform="rotate(30)" /><path
     d="m 137.72824,65.897114 -25.23207,5.888533 -0.57465,0.995331 26.37431,-6.155213 c -0.16222,-0.259204 -0.35322,-0.50251 -0.56759,-0.728651 z"
     style="fill:#54688c;fill-opacity:1;stroke-width:0.086025"
     id="path44" /><path
     d="m 134.38628,63.739858 -19.92976,4.650372 -0.57466,0.99533 21.5661,-5.032738 z"
     style="fill:#54688c;fill-opacity:1;stroke-width:0.086025"
     id="path45" /><path
     d="m 130.59979,61.553725 -14.09489,3.288611 -0.57466,0.99533 15.73123,-3.670977 z"
     style="fill:#54688c;fill-opacity:1;stroke-width:0.086025"
     id="path46" /><path
     d="m 128.06416,60.089783 -1.06168,-0.612964 -8.55191,1.995511 -0.57384,0.993919 z"
     style="fill:#54688c;fill-opacity:1;stroke-width:0.086025"
     id="path47" /><path
     d="m 138.95155,68.404869 -28.31872,6.60819 -0.57466,0.99533 28.94318,-6.754034 c 0.01,-0.285254 -0.008,-0.569504 -0.0498,-0.849486 z"
     style="fill:#54688c;fill-opacity:1;stroke-width:0.086025"
     id="path48" /><path
     d="m 138.42978,71.330093 -28.91141,6.747903 0.2172,0.810602 28.12764,-6.564151 0.51434,-0.890856 c 0.0196,-0.03392 0.0333,-0.06945 0.0521,-0.103577 z"
     style="fill:#54688c;fill-opacity:1;stroke-width:0.086025"
     id="path49" /><path
     d="m 136.43106,74.805008 -26.53726,6.192905 0.2172,0.810601 25.74541,-6.008176 z"
     style="fill:#54688c;fill-opacity:1;stroke-width:0.086025"
     id="path50" /><path
     d="m 134.47398,78.194778 -23.90908,5.579385 0.2172,0.810602 23.11722,-5.394655 z"
     style="fill:#54688c;fill-opacity:1;stroke-width:0.086025"
     id="path51" /><path
     d="m 132.5552,81.518194 -20.84833,4.865474 0.2172,0.810602 20.05648,-4.680745 z"
     style="fill:#54688c;fill-opacity:1;stroke-width:0.086025"
     id="path52" /><ellipse
     style="fill:#54688c;fill-opacity:1;stroke:none;stroke-width:3.56368;stroke-dasharray:none;stroke-opacity:1"
     id="path62"
     cx="96"
     cy="104.54781"
     rx="46.218159"
     ry="30.832403" /><path
     id="ellipse1"
     style="fill:none;stroke:#9abeff;stroke-width:3.56368"
     d="m 142.21816,104.54781 a 46.21816,30.832403 0 0 1 -46.218161,30.8324 46.21816,30.832403 0 0 1 -46.21816,-30.8324 46.21816,30.832403 0 0 1 46.21816,-30.832406 46.21816,30.832403 0 0 1 46.218161,30.832406 z" /><path
     style="font-weight:bold;font-size:33.7439px;font-family:'Now Alt';-inkscape-font-specification:'Now Alt Bold';display:inline;fill:#f9de81;stroke-width:11.7433"
     d="m 74.175144,116.23341 c 3.170681,0 5.108321,-1.93763 5.108321,-4.57987 0,-2.81839 -2.325167,-3.94574 -4.333265,-4.7208 -1.021664,-0.42275 -1.514882,-0.63413 -1.514882,-1.16258 0,-0.45799 0.352298,-0.81029 1.127353,-0.81029 0.915975,0 1.761491,0.49322 2.184249,1.02167 l 2.254706,-2.53654 c -1.056894,-1.0569 -2.783154,-1.86718 -4.756023,-1.86718 -3.205911,0 -5.249239,2.11378 -5.249239,4.50941 0,2.81838 2.818384,3.76958 4.438954,4.36849 1.268273,0.49322 1.69103,0.84552 1.69103,1.33874 0,0.56367 -0.493217,0.88073 -1.233043,0.88073 -0.739826,0 -1.72626,-0.28183 -2.360396,-1.47964 l -3.311601,1.65579 c 0.845515,2.18426 3.45252,3.38207 5.953836,3.38207 z m 23.603952,-0.28184 -6.693661,-7.71532 6.165214,-6.3766 H 91.86049 l -4.896942,5.07309 V 91.819172 h -4.474185 v 24.132398 h 4.474185 v -6.48228 l 4.967401,6.48228 z m 9.899574,-14.37375 c -1.6558,0 -3.02977,0.84551 -3.94575,2.21947 v -1.93764 h -4.50941 v 14.09192 h 4.50941 v -6.72889 c 0,-2.32517 1.58534,-3.6639 3.80483,-3.6639 0.52844,0 0.98643,0 1.3035,0.0352 v -3.87527 c -0.31707,-0.10569 -0.73983,-0.14092 -1.16258,-0.14092 z m 9.47682,14.65559 c 4.2628,0 6.6232,-2.21948 6.6232,-5.672 v -8.70176 h -4.47418 v 8.10285 c 0,1.33874 -0.91597,2.28995 -2.14902,2.28995 -1.19781,0 -2.11378,-0.95121 -2.11378,-2.28995 v -8.10285 h -4.50943 v 8.70176 c 0,3.45252 2.3604,5.672 6.62321,5.672 z"
     id="text62"
     aria-label="skru" /></svg>
