<svg xmlns="http://www.w3.org/2000/svg" xml:space="preserve" id="svg2" width="192" height="192" version="1.1"><defs id="defs4"><style id="style215">.cls-1{fill:#152828}.st0{fill:#fff}</style></defs><g id="layer1" transform="translate(0 -860.362)"><circle id="circle697" cx="96" cy="956.362" r="88" style="fill:#56595b;fill-opacity:1;fill-rule:evenodd;stroke:none;stroke-opacity:1"/><path id="path1062" d="M97.628 919.862c-23.913 0-26.012 23.492-26.851 25.59-1.678 2.098-2.52 4.194-3.36 6.71-.839 2.938 0 6.294 2.098 6.294 2.937 0-.834-5.867 2.941-5.867 4.615 0 10.066 7.546 11.325 11.742-2.518 4.195-5.874 7.133-8.391 5.875-2.937-.84-5.031-3.774-5.031-6.711 0-2.517-2.517-2.52-2.098.836.42 4.195 2.51 7.555 5.867 9.652 3.776 2.937 6.72 6.71 8.817 11.324 1.258 2.937 2.515 4.196 6.71 4.196 4.196 0 .841 3.36 3.778 3.36 2.937 0 1.255-3.778 2.933-3.778 1.679 0-.003 3.777 2.934 3.777 4.615 0 2.517-5.872 4.195-6.71 1.678-.84 21.822-11.748 21.403-25.173-.42-13.424-10.07-12.585-12.168-18.878-2.098-5.874 13.007-22.239-15.102-22.239zm8.391 30.63c5.873 0 11.324 4.614 11.324 10.487v.418c0 5.874-4.615 10.907-10.488 10.907-5.874 0-11.324-4.615-11.324-10.489 0-5.873 4.615-11.324 10.488-11.324zM86.296 967.69c3.356 3.776 6.716 7.547 9.653 11.742 0 1.259-2.103 1.683-2.942.844-2.517-1.678-5.03-1.683-7.547-.844-1.678.84-3.356-.416-2.097-5.03.839-2.518 1.675-4.614 2.933-6.712z" style="fill:#fff;fill-opacity:1;stroke-width:4.19531"/></g></svg>