<?xml version="1.0" encoding="UTF-8"?>
<svg version="1.1" viewBox="0 0 192 192" xmlns="http://www.w3.org/2000/svg">
 <rect class="a" x="20" y="20" width="152" height="152" rx="10" style="fill:#ababff"/>
 <path d="m127.24 64.76v46.86h-46.86v-46.86h46.86m0-7.81h-46.86c-4.2955 0-7.81 3.5145-7.81 7.81v46.86c0 4.2955 3.5145 7.81 7.81 7.81h46.86c4.2955 0 7.81-3.5145 7.81-7.81v-46.86c0-4.2955-3.5145-7.81-7.81-7.81zm-33.192 37.761 6.5994 8.8253 9.6844-12.106 13.004 16.284h-39.05zm-37.098-22.141v54.67c0 4.2955 3.5145 7.81 7.81 7.81h54.67v-7.81h-54.67v-54.67z" fill="#fff" style="stroke-width:3.905"/>
</svg>
