<?xml version="1.0" encoding="UTF-8" standalone="no"?>
<svg
   version="1.1"
   viewBox="0 0 192 192"
   xml:space="preserve"
   id="svg12"
   sodipodi:docname="smarthq.svg"
   inkscape:version="1.2.2 (b0a8486541, 2022-12-01)"
   inkscape:export-filename="smarthq.png"
   inkscape:export-xdpi="96"
   inkscape:export-ydpi="96"
   xmlns:inkscape="http://www.inkscape.org/namespaces/inkscape"
   xmlns:sodipodi="http://sodipodi.sourceforge.net/DTD/sodipodi-0.dtd"
   xmlns="http://www.w3.org/2000/svg"
   xmlns:svg="http://www.w3.org/2000/svg"><defs
   id="defs16" /><sodipodi:namedview
   id="namedview14"
   pagecolor="#505050"
   bordercolor="#eeeeee"
   borderopacity="1"
   inkscape:showpageshadow="0"
   inkscape:pageopacity="0"
   inkscape:pagecheckerboard="0"
   inkscape:deskcolor="#d1d1d1"
   showgrid="false"
   inkscape:zoom="1.2291667"
   inkscape:cx="19.525424"
   inkscape:cy="96.40678"
   inkscape:window-width="1884"
   inkscape:window-height="1055"
   inkscape:window-x="36"
   inkscape:window-y="0"
   inkscape:window-maximized="1"
   inkscape:current-layer="svg12" />
	 <rect
   class="a"
   x="20"
   y="20"
   width="152"
   height="152"
   rx="10"
   fill="#bd9aff"
   id="rect2" /><path
   d="M 83.876748,126.34963 H 66.472111 a 3.195417,3.195417 0 0 1 -3.195417,-3.19542 V 86.339013 a 6.3271652,6.3271652 0 0 1 2.571671,-5.092057 l 28.34974,-20.908412 a 4.2956789,4.2956789 0 0 1 5.127685,0.02101 l 26.8415,20.137518 a 6.3921121,6.3921121 0 0 1 2.55602,5.113066 v 37.543752 a 3.195417,3.195417 0 0 1 -3.19542,3.19542 h -17.26324 c -0.0276,0 -0.0504,-0.0225 -0.0512,-0.0501 -0.0236,-0.8249 -0.54098,-11.56581 -11.442785,-11.89095 -12.875134,-0.38327 -12.893507,11.94048 -12.893507,11.94048 z"
   fill="#ffffff"
   stroke-linecap="round"
   stroke-linejoin="round"
   stroke-width="1.03124"
   id="path4" /><path
   d="m 78.71615,118.01758 -4.318367,-4.31837 c 11.698422,-17.219302 34.301207,-14.85709 42.539787,0 l -4.18951,4.18951 c -6.30136,-13.79541 -25.977942,-14.41133 -34.031191,0.12891 z"
   fill="#bd9aff"
   stroke-linecap="round"
   stroke-linejoin="round"
   stroke-width="1.03124"
   id="path6" /><path
   d="m 67.11439,103.7101 3.931641,4.6407 c 15.517743,-17.334336 36.321509,-16.02741 49.500199,0 l 4.31845,-4.76956 C 105.89349,84.582093 84.469817,85.927363 67.11391,103.71015 Z"
   fill="#bd9aff"
   stroke-linecap="round"
   stroke-linejoin="round"
   stroke-width="1.03124"
   id="path8" /><circle
   cx="96.182297"
   cy="126.30169"
   r="6.1983099"
   fill="#ffffff"
   stroke-linecap="round"
   stroke-linejoin="round"
   stroke-width="1.03124"
   id="circle10" /></svg>
