<svg xmlns="http://www.w3.org/2000/svg" id="svg2" width="192" height="192" version="1.1"><g id="layer1" transform="translate(0 -860.362)"><path id="rect985" d="M29.5 879.862h133c5.54 0 10 4.46 10 10v133c0 5.54-4.46 10-10 10h-133c-5.54 0-10-4.46-10-10v-133c0-5.54 4.46-10 10-10z" style="fill:#9ad2ff;fill-opacity:1;fill-rule:evenodd;stroke:none;stroke-opacity:1"/><path id="path882" d="m145 19.5-25.322 44.316a40 40 0 0 0-6.213-3.746L120 47l-8.969 11.959A40 40 0 0 0 96 56a40 40 0 0 0-2.408.084L85 20l1 33-9 3-22-36 18.338 43.092a40 40 0 0 0-11.48 12.162L20 52l38.887 29.166a40 40 0 0 0-1.73 5.479L20 82l32 10 1 5h3.035a40 40 0 0 0 3.469 15.248L20 132l42.5-14.166a40 40 0 0 0 9.37 10.006L40 172l36.518-41.082a40 40 0 0 0 7.414 3.205L82 147l4.842-12.105A40 40 0 0 0 96 136a40 40 0 0 0 6.465-.541L104.5 172.5h5l-6.133-37.209a40 40 0 0 0 7.201-2.043L130 172.5h10l-24.672-41.531a40 40 0 0 0 7.46-5.324l41.974 46.591a9.96 9.96 0 0 0 5.808-3.834l-46.984-43.46a40 40 0 0 0 10.656-17.235L160 112l-24.766-8.256A40 40 0 0 0 136 96a40 40 0 0 0-1.621-11.19L160 72l-27.46 7.846a40 40 0 0 0-8.868-12.666L160 19.5h-15z" style="fill:#54758c;fill-opacity:1" transform="translate(0 860.362)"/><circle id="path880" cx="96" cy="956.362" r="35" style="opacity:1;vector-effect:none;fill:#b1b5bd;fill-opacity:1;paint-order:stroke fill markers"/><ellipse id="path3070" cx="96" cy="948.362" rx="30" ry="25" style="opacity:1;vector-effect:none;fill:#979797;fill-opacity:1;stroke-width:1.15470064;paint-order:stroke fill markers"/><path id="path3066" d="M96 926.362c-4.085 0-9.225 1.038-13.586 2.914-2.18.938-4.164 2.08-5.709 3.537C75.16 934.27 74 936.165 74 938.362c0 5.389 1 13 3.799 13.433 1.6-.216 9.886-3.408 18.201-3.433 8.315-.025 16.658 3.117 18.316 3.234C118 951.362 118 943.73 118 938.362c0-2.348-1.11-4.408-2.678-5.944-1.568-1.535-3.587-2.66-5.785-3.539-4.396-1.756-9.542-2.517-13.537-2.517z" style="color:#000;font-style:normal;font-variant:normal;font-weight:400;font-stretch:normal;font-size:medium;line-height:normal;font-family:sans-serif;font-variant-ligatures:normal;font-variant-position:normal;font-variant-caps:normal;font-variant-numeric:normal;font-variant-alternates:normal;font-feature-settings:normal;text-indent:0;text-align:start;text-decoration:none;text-decoration-line:none;text-decoration-style:solid;text-decoration-color:#000;letter-spacing:normal;word-spacing:normal;text-transform:none;writing-mode:lr-tb;direction:ltr;text-orientation:mixed;dominant-baseline:auto;baseline-shift:baseline;text-anchor:start;white-space:normal;shape-padding:0;clip-rule:nonzero;display:inline;overflow:visible;visibility:visible;opacity:1;isolation:auto;mix-blend-mode:normal;color-interpolation:sRGB;color-interpolation-filters:linearRGB;solid-color:#000;solid-opacity:1;vector-effect:none;fill:#ececec;fill-opacity:1;fill-rule:nonzero;stroke:none;stroke-width:4;stroke-linecap:round;stroke-linejoin:round;stroke-miterlimit:4;stroke-dasharray:none;stroke-dashoffset:0;stroke-opacity:1;color-rendering:auto;image-rendering:auto;shape-rendering:auto;text-rendering:auto;enable-background:accumulate"/></g><style id="style853" type="text/css">.st0{fill:#898989}.st1{fill:#fff}</style></svg>