<svg xmlns="http://www.w3.org/2000/svg" viewBox="0 0 192 192"><path d="M30 20h132c5.54 0 10 4.46 10 10v132c0 5.54-4.46 10-10 10H30c-5.54 0-10-4.46-10-10V30c0-5.54 4.46-10 10-10z" style="opacity:1;isolation:isolate;fill:#9abeff;fill-opacity:1;stroke:none;stroke-linecap:round;stroke-linejoin:round"/><path d="M86.096 245.245c-115 0-209-66.2-209-147s93.7-147 209-147 209 66.2 209 147-93.7 147-209 147m0-312c-139 0-252 73.2-252 165s113 165 252 165 252-74 252-165-113-165-252-165" class="st0" style="fill:#fff" transform="matrix(.20399 0 0 .20399 78.437 75.96)"/><path d="M97.096 184.245h-27.6c-8.7 0-13.4-3.9-13.4-11v-63c0-3.9 1.6-5.5 5.5-5.5h35.5c22.3 0 40.5 17.9 40.9 40.2.3 21.5-16.9 39.1-38.4 39.4-.8 0-1.6 0-2.5-.1m-40.9-161c0-7.1 4.7-11 13.4-11h18.1c18.7-.8 34.6 13.7 35.4 32.4v1.5c-.3 19.3-16.1 34.8-35.4 34.6h-26c-3.9 0-5.5-1.6-5.5-5.5zm111 70.1c-5.5-2.4-5.5-3.2 0-6.3 14.1-8.7 22.5-24.3 22-40.9 0-30.7-40.9-61.4-106-61.4-37.8-.2-74.5 12-105 34.6-5.5 4.7-4.7 7.1-3.1 8.7l9.5 11c3.1 3.2 4.7 2.4 6.3.8 7.1-5.5 7.9-2.4 7.9 3.9v109c0 6.3-.8 9.5-7.9 3.9-1.6-1.6-3.1-2.4-6.3.8l-10.2 11.8c-1.6 2.4-3.1 4.7 3.2 8.7 31.6 21.6 68.8 33.4 107 33.9 73.2 0 119-30.7 119-71.7.6-27.6-22.2-41-36.4-46.5" class="st0" style="fill:#fff" transform="matrix(.20399 0 0 .20399 78.437 75.96)"/></svg>