<?xml version="1.0" encoding="UTF-8" standalone="no"?>
<svg
   xml:space="preserve"
   viewBox="0 0 192 192"
   version="1.1"
   id="svg10"
   sodipodi:docname="sonic_drive_in.svg"
   inkscape:version="1.2.2 (b0a8486541, 2022-12-01)"
   inkscape:export-filename="sonic_drive_in.png"
   inkscape:export-xdpi="96"
   inkscape:export-ydpi="96"
   xmlns:inkscape="http://www.inkscape.org/namespaces/inkscape"
   xmlns:sodipodi="http://sodipodi.sourceforge.net/DTD/sodipodi-0.dtd"
   xmlns="http://www.w3.org/2000/svg"
   xmlns:svg="http://www.w3.org/2000/svg"><defs
     id="defs14" /><sodipodi:namedview
     id="namedview12"
     pagecolor="#505050"
     bordercolor="#eeeeee"
     borderopacity="1"
     inkscape:showpageshadow="0"
     inkscape:pageopacity="0"
     inkscape:pagecheckerboard="0"
     inkscape:deskcolor="#d1d1d1"
     showgrid="false"
     inkscape:zoom="4.9166667"
     inkscape:cx="48.61017"
     inkscape:cy="97.728814"
     inkscape:window-width="1884"
     inkscape:window-height="1055"
     inkscape:window-x="36"
     inkscape:window-y="0"
     inkscape:window-maximized="1"
     inkscape:current-layer="svg10" /><rect
     style="opacity:1;fill:#9abeff;fill-opacity:1;stroke:none;stroke-width:5;stroke-linecap:round;stroke-linejoin:round;stroke-dasharray:none;paint-order:stroke fill markers"
     id="rect8822"
     width="176"
     height="128"
     x="8"
     y="32"
     rx="10" /><g
     id="g9711"><path
       fill="#ffffff"
       stroke="#9abeff"
       stroke-width="7.63278"
       d="m 56.004811,75.063377 c -4.191545,-1.123143 -6.406651,2.044199 -5.332138,6.055523 1.34473,5.020073 5.027991,12.505252 4.709778,15.751337 -0.400386,4.092493 -8.235567,13.506113 -10.327279,19.389383 -1.144328,3.2186 1.189939,6.19197 5.051593,5.15646 12.208362,-3.27087 41.685265,-11.32936 41.685265,-11.32936 0,0 29.90729,8.69493 42.99206,12.20054 2.98264,0.79946 6.74902,-1.89887 5.81784,-5.37319 -1.70977,-6.38262 -5.80881,-15.11797 -5.80881,-18.637931 0,-3.817313 8.19079,-15.874152 11.94941,-22.383276 1.67457,-2.900485 -1.1306,-7.407192 -5.97952,-6.106934 -13.62599,3.651685 -51.670144,14.901776 -51.670144,14.901776 0,0 -22.697645,-6.840172 -33.088055,-9.624328 z"
       id="path1804"
       sodipodi:nodetypes="sscsccccscccs"
       style="opacity:1;fill:#ffffff;stroke:#728dbe;stroke-width:3;stroke-dasharray:none" /><text
       xml:space="preserve"
       x="74.534943"
       y="105.76173"
       fill="#ff837d"
       stroke-width="4.15677"
       font-family="Now"
       font-size="22.2456px"
       font-weight="500"
       id="text1808"
       transform="skewX(-9.0419525)"
       style="letter-spacing:-0.903464px;opacity:1"><tspan
         x="74.534943"
         y="105.76173"
         id="tspan1806"
         style="font-style:normal;font-variant:normal;font-weight:bold;font-stretch:normal;font-family:Now;-inkscape-font-specification:'Now Bold';stroke-width:4.15677">SONIC</tspan></text></g></svg>
