<svg xmlns="http://www.w3.org/2000/svg" id="svg2" width="192" height="192" version="1.1"><g id="layer1" transform="translate(0 -860.362)"><circle id="path835" cx="96" cy="956.362" r="88" style="fill:#f9de81;stroke:none;stroke-width:7.00731;stroke-linecap:square;stroke-linejoin:round;stop-color:#000"/><path id="path1056" d="M96 924.608c-20.128 0-36.5 16.37-36.5 36.498 0 10.372 4.361 19.736 11.326 26.38.739.706 2.088.83 2.973.319l3.155-1.821c-.31-.231-.608-.374-.912-.618-6.998-5.764-11.457-14.473-11.457-24.26 0-17.38 14.035-31.413 31.415-31.413s31.415 14.034 31.415 31.413c0 9.792-4.467 18.502-11.47 24.266-.313.22-.59.399-.905.608l3.157 1.823c.885.511 2.233.388 2.973-.318 6.965-6.644 11.33-16.007 11.33-26.379 0-20.128-16.372-36.498-36.5-36.498z" style="color:#000;font-style:normal;font-variant:normal;font-weight:400;font-stretch:normal;font-size:medium;line-height:normal;font-family:sans-serif;font-variant-ligatures:normal;font-variant-position:normal;font-variant-caps:normal;font-variant-numeric:normal;font-variant-alternates:normal;font-variant-east-asian:normal;font-feature-settings:normal;font-variation-settings:normal;text-indent:0;text-align:start;text-decoration:none;text-decoration-line:none;text-decoration-style:solid;text-decoration-color:#000;letter-spacing:normal;word-spacing:normal;text-transform:none;writing-mode:lr-tb;direction:ltr;text-orientation:mixed;dominant-baseline:auto;baseline-shift:baseline;text-anchor:start;white-space:normal;shape-padding:0;shape-margin:0;inline-size:0;clip-rule:nonzero;display:inline;overflow:visible;visibility:visible;isolation:auto;mix-blend-mode:normal;color-interpolation:sRGB;color-interpolation-filters:linearRGB;solid-color:#000;solid-opacity:1;vector-effect:none;fill:#fff;fill-opacity:1;fill-rule:nonzero;stroke:none;stroke-width:5.08518;stroke-linecap:round;stroke-linejoin:round;stroke-miterlimit:4;stroke-dasharray:none;stroke-dashoffset:0;stroke-opacity:1;color-rendering:auto;image-rendering:auto;shape-rendering:auto;text-rendering:auto;enable-background:accumulate;stop-color:#000"/><path id="path1060" d="M62.499 966.648c1.308 8.07 5.663 15.594 12.009 20.748 2.182-1.269 4.38-2.51 6.552-3.797 1.136-.764 1.236-2.415.435-3.454-3.187-5.504-6.347-11.025-9.551-16.52-.765-1.135-2.415-1.236-3.454-.435l-5.991 3.458z" style="fill:#fff;fill-opacity:1;stroke:none;stroke-width:5.29984;stroke-linecap:round;stroke-linejoin:round;stroke-miterlimit:4;stroke-dasharray:none;stroke-opacity:1;stop-color:#000"/><path id="path1062" d="M129.501 966.648c-1.308 8.07-5.663 15.594-12.009 20.748-2.182-1.269-4.38-2.51-6.552-3.797-1.136-.764-1.236-2.415-.435-3.454 3.187-5.504 6.347-11.025 9.551-16.52.765-1.135 2.415-1.236 3.454-.435l5.991 3.458z" style="fill:#fff;fill-opacity:1;stroke:none;stroke-width:5.29984;stroke-linecap:round;stroke-linejoin:round;stroke-miterlimit:4;stroke-dasharray:none;stroke-opacity:1;stop-color:#000"/></g><style id="style853" type="text/css">.st0{fill:#fff}</style></svg>