<?xml version="1.0" encoding="UTF-8" standalone="no"?>
<svg
   width="192"
   height="192"
   fill="none"
   version="1.1"
   id="svg14"
   sodipodi:docname="soop.svg"
   xml:space="preserve"
   inkscape:version="1.2.2 (b0a8486541, 2022-12-01)"
   inkscape:export-filename="soop.png"
   inkscape:export-xdpi="96"
   inkscape:export-ydpi="96"
   xmlns:inkscape="http://www.inkscape.org/namespaces/inkscape"
   xmlns:sodipodi="http://sodipodi.sourceforge.net/DTD/sodipodi-0.dtd"
   xmlns:xlink="http://www.w3.org/1999/xlink"
   xmlns="http://www.w3.org/2000/svg"
   xmlns:svg="http://www.w3.org/2000/svg"><sodipodi:namedview
     id="namedview16"
     pagecolor="#505050"
     bordercolor="#eeeeee"
     borderopacity="1"
     inkscape:showpageshadow="0"
     inkscape:pageopacity="0"
     inkscape:pagecheckerboard="0"
     inkscape:deskcolor="#d1d1d1"
     showgrid="false"
     inkscape:zoom="1.7383042"
     inkscape:cx="74.78553"
     inkscape:cy="81.401173"
     inkscape:window-width="1884"
     inkscape:window-height="1055"
     inkscape:window-x="36"
     inkscape:window-y="0"
     inkscape:window-maximized="1"
     inkscape:current-layer="svg14" /><defs
     id="defs12"><linearGradient
       id="linearGradient6810"
       x1="28.846"
       y1="8.89033"
       x2="65.1832"
       y2="37.1509"
       gradientUnits="userSpaceOnUse"><stop
         stop-color="#0082FF"
         id="stop6790"
         offset="0"
         style="stop-color:#9abeff;stop-opacity:1;" /><stop
         offset="0.6008274"
         stop-color="#40F7D7"
         id="stop6804"
         style="stop-color:#96dfd3;stop-opacity:1;" /><stop
         offset="0.94"
         stop-color="#82FFB0"
         id="stop6808"
         style="stop-color:#98dc9a;stop-opacity:1;" /></linearGradient><linearGradient
       inkscape:collect="always"
       xlink:href="#linearGradient6810"
       id="linearGradient349"
       gradientUnits="userSpaceOnUse"
       x1="28.846"
       y1="8.89033"
       x2="65.1832"
       y2="37.1509"
       gradientTransform="matrix(1.026808,0,0,1.026808,48.021958,72.896717)" /></defs><style
     type="text/css"
     id="style3535">
	.st0{fill:url(#SVGID_1_);}
	.st1{fill:#FFFFFF;}
</style><rect
     class="a"
     x="20"
     y="20"
     width="152"
     height="152"
     rx="10"
     id="rect10352"
     style="isolation:isolate;fill:#56595b;fill-opacity:1;stroke:none;stroke-width:0.999999;stroke-linecap:round;stroke-linejoin:round" /><path
     d="m 105.20798,83.23996 c -3.77958,0 -7.17503,1.643508 -9.511326,4.25427 -0.0996,0.112231 -0.273131,0.112231 -0.372629,0 -2.336399,-2.610762 -5.731847,-4.25427 -9.511322,-4.25427 -7.047394,0 -12.760041,5.712749 -12.760041,12.76004 0,7.04739 5.712647,12.76004 12.760041,12.76004 3.779475,0 7.174923,-1.64341 9.511322,-4.25417 0.0995,-0.11223 0.273029,-0.11223 0.372629,0 2.336296,2.61076 5.731746,4.25417 9.511326,4.25417 7.04739,0 12.76004,-5.71265 12.76004,-12.76004 0,-7.047291 -5.71265,-12.76004 -12.76004,-12.76004 z m 0,19.39527 c -2.04161,0 -3.74765,-0.98378 -4.79396,-2.0952 -0.333,-0.35466 -0.746494,-0.840852 -1.200754,-1.253012 -0.216862,-0.196531 -0.432492,-0.372629 -0.639291,-0.53086 -0.853585,-0.608589 -1.912738,-0.969718 -3.062352,-0.969718 -1.149717,0 -2.208767,0.361129 -3.062455,0.969718 -0.207928,0.158231 -0.422326,0.334329 -0.63929,0.53086 -0.455492,0.41216 -0.867653,0.898352 -1.200647,1.253012 -1.046317,1.11142 -2.752359,2.0952 -4.793961,2.0952 -0.05237,0 -0.1034,-0.002 -0.155664,-0.004 -0.0881,-0.002 -0.176098,-0.005 -0.262863,-0.0103 -0.05997,-0.004 -0.119931,-0.009 -0.178665,-0.0141 -0.03573,-0.003 -0.07147,-0.006 -0.105864,-0.009 C 81.777963,102.24731 79.180037,99.427382 79.180037,96 v 0.02813 c 0,-0.0192 0,-0.0383 0,-0.05617 V 96 c 0,-3.426048 2.597926,-6.24597 5.930843,-6.598166 0.03707,-0.0038 0.07527,-0.0064 0.112332,-0.01027 0.0574,-0.005 0.114797,-0.0088 0.172196,-0.01273 0.0881,-0.005 0.176098,-0.0076 0.26543,-0.01017 0.05103,0 0.102065,-0.0038 0.153097,-0.0038 2.041602,0 3.747644,0.983785 4.793961,2.095099 0.333097,0.354762 0.74649,0.840956 1.200749,1.253117 0.216965,0.196428 0.432595,0.372526 0.639291,0.530757 0.853586,0.608692 1.912738,0.96982 3.062352,0.96982 1.149717,0 2.208767,-0.361128 3.062455,-0.96982 0.208031,-0.158231 0.422326,-0.334329 0.639291,-0.530757 0.455492,-0.412161 0.867656,-0.898355 1.200746,-1.253117 1.04632,-1.111314 2.75226,-2.095099 4.79386,-2.095099 0.051,0 0.10083,0.0025 0.15187,0.0038 0.0893,0.0026 0.17866,0.0051 0.26666,0.01017 0.0562,0.0039 0.11233,0.0077 0.1685,0.01273 0.0395,0.0026 0.0791,0.0065 0.11859,0.01027 3.20539,0.33936 5.72928,2.960288 5.91688,6.209006 0,0.02166 0.002,0.0421 0.004,0.06253 0.002,0.05997 0.004,0.121266 0.005,0.181232 0.001,0.09056 0.002,0.179897 0,0.270461 -10e-4,0.06767 -10e-4,0.136566 -0.005,0.204232 0,0.01396 -0.002,0.02803 -0.002,0.0421 -0.1799,3.255084 -2.70759,5.884845 -5.91811,6.224305 -0.0408,0.004 -0.0803,0.007 -0.12117,0.0103 -0.0548,0.005 -0.10976,0.009 -0.1646,0.0128 -0.0881,0.005 -0.17866,0.007 -0.26799,0.0103 -0.051,0 -0.10083,0.004 -0.15187,0.004 z"
     fill="url(#paint0_linear_4840_8613)"
     id="path341"
     style="fill:url(#linearGradient349);stroke-width:1.02681" /><text
     xml:space="preserve"
     style="font-weight:bold;font-size:40px;line-height:1.25;font-family:Now;-inkscape-font-specification:'Now Bold';letter-spacing:0px;white-space:pre;inline-size:56.5428;display:inline;fill:#ffffff"
     x="30.426058"
     y="36.090141"
     id="text10269"
     transform="matrix(0.82857404,0,0,0.82857404,27.627129,78.525257)"><tspan
       x="30.426058"
       y="36.090141"
       id="tspan10569">S</tspan></text><text
     xml:space="preserve"
     style="font-weight:bold;font-size:40px;line-height:1.25;font-family:Now;-inkscape-font-specification:'Now Bold';letter-spacing:0px;white-space:pre;inline-size:56.5428;display:inline;fill:#ffffff"
     x="30.426058"
     y="36.090141"
     id="text10323"
     transform="matrix(0.82857404,0,0,0.82857404,92.865636,78.525257)"><tspan
       x="30.426058"
       y="36.090141"
       id="tspan10571">P</tspan></text></svg>
