<?xml version="1.0" encoding="UTF-8" standalone="no"?>
<svg
   version="1.1"
   viewBox="0 0 192 192"
   xml:space="preserve"
   id="svg6"
   sodipodi:docname="soul_searching.svg"
   inkscape:version="1.2.2 (b0a8486541, 2022-12-01)"
   inkscape:export-filename="soul_searching.png"
   inkscape:export-xdpi="96"
   inkscape:export-ydpi="96"
   xmlns:inkscape="http://www.inkscape.org/namespaces/inkscape"
   xmlns:sodipodi="http://sodipodi.sourceforge.net/DTD/sodipodi-0.dtd"
   xmlns="http://www.w3.org/2000/svg"
   xmlns:svg="http://www.w3.org/2000/svg"><defs
   id="defs10" /><sodipodi:namedview
   id="namedview8"
   pagecolor="#505050"
   bordercolor="#eeeeee"
   borderopacity="1"
   inkscape:showpageshadow="0"
   inkscape:pageopacity="0"
   inkscape:pagecheckerboard="0"
   inkscape:deskcolor="#d1d1d1"
   showgrid="false"
   inkscape:zoom="1.2291667"
   inkscape:cx="-73.220339"
   inkscape:cy="146.84746"
   inkscape:window-width="1884"
   inkscape:window-height="1055"
   inkscape:window-x="36"
   inkscape:window-y="0"
   inkscape:window-maximized="1"
   inkscape:current-layer="svg6" />
	 <rect
   class="a"
   x="20"
   y="20"
   width="152"
   height="152"
   rx="10"
   fill="#54688c"
   id="rect2" /><path
   d="m 135.74895,72.06083 0.3302,-0.923603 c -1.68218,-1.44699 -0.95637,-3.400212 -0.95637,-3.400212 l -5.09166,-3.073074 -0.50154,0.574747 c -1.3987,-0.820839 -3.03413,-1.960941 -4.7833,-3.544997 -5.06206,-4.587052 -12.11028,-1.886233 -16.81236,7.233321 -1.15725,2.246051 -3.50297,6.607177 -6.3767,11.89671 l -1.730472,-0.917427 -2.69928,5.083935 1.67592,0.890924 c -0.64328,1.179035 -1.29749,2.378399 -1.96257,3.59646 l -1.904933,-1.010834 -2.699276,5.083935 1.839488,0.976611 c -0.764769,1.397156 -1.531048,2.792768 -2.289624,4.175857 l -1.965659,-1.043599 -2.699276,5.083936 1.895583,1.0062 c -5.498219,10.00456 -10.002844,18.16414 -10.002844,18.16414 0,0 -0.90336,2.17907 -2.260031,1.52796 -1.355128,-0.6495 -2.077765,-1.22269 0,-3.87368 2.079394,-2.64789 8.828611,-10.39396 8.706814,-26.187341 0,0 -0.239865,-1.834855 3.615159,-4.890774 l -24.326072,2.548143 c 0,0 3.093316,1.207083 4.92191,2.851951 2.179063,1.959398 4.942153,9.069631 -1.325449,17.730131 -6.266059,8.66135 -5.783243,13.96041 0.844203,18.03548 6.62905,4.07773 16.029252,4.383 19.402703,-3.15722 3.375252,-7.54176 26.271406,-59.405496 26.271406,-59.405496 0,0 1.80681,-6.012256 9.03875,-2.241333 l 4.08082,2.15719 -0.57473,0.658848 z"
   fill="#ffffff"
   stroke-width="0.18159"
   id="path4" /></svg>
