<svg xmlns="http://www.w3.org/2000/svg" xml:space="preserve" id="svg14" x="0" y="0" style="enable-background:new 0 0 192 192" version="1.1" viewBox="0 0 192 192"><style>.st1{fill:#4a4a4a}</style><path id="rect2" d="M29.9 20H162c5.5 0 9.9 4.4 9.9 9.9V162c0 5.5-4.4 9.9-9.9 9.9H29.9c-5.5 0-9.9-4.4-9.9-9.9V29.9c0-5.5 4.4-9.9 9.9-9.9z" style="fill:#f9de81;enable-background:new"/><path d="M95.1 37.6c2.5.3 5.1.5 7.5 1 12.6 2.4 22.3 9.1 29.1 19.9 4.7 7.4 6.8 15.6 6.5 24.4-.2 6.2-2.2 11.9-4.2 17.6-2.7 7.8-5.2 15.7-7.8 23.5-.1.2-.1.3-.3.7-1.7-.6-3.5-1.1-5.1-1.8-.2-.1-.3-.9-.2-1.3 2.1-6.4 4.3-12.8 6.3-19.2 1.6-4.9 3.3-9.8 4.4-14.8 1.8-8.2.4-16.1-3.5-23.4-5.8-11.1-15.1-17.7-27.4-19.7-16.6-2.7-32.6 6.1-39.5 21.5-4.2 9.4-4.1 18.9-.8 28.5 3.3 9.2 6.2 18.6 9.4 28.1-1.9.6-3.8 1.3-5.8 2-1.5-4.5-2.9-8.8-4.4-13.2-2.1-6.5-4.4-12.9-6.3-19.5-.8-2.9-1-5.9-1.5-8.9-.1-.4-.2-.8-.2-1.3v-.9c.1-.5.2-.9.2-1.4.4-7.6 2.5-14.7 6.5-21.2 6.8-10.6 16.5-17.3 29-19.6 2.5-.5 5-.7 7.5-1h.6zM98.6 154.4c0-2.9-.4-2.6 2.6-2.6h26.3c3.1 0 2.6-.2 2.6 2.6H98.6zM140.8 142c-.6.7-1.1.5-1.8-.1-1.8-1.9-3.6-3.7-5.8-5.9v2.6c0 .9.1 1.8 0 2.7-.1.4-.6.8-.9 1.2-.2-.4-.5-.8-.5-1.2v-6.6c0-.4.2-.8.3-1.2.4.2.8.3 1.1.5l4.8 4.8c.3.3.7.6 1.3 1.2v-5.4c0-1.3.5-1.3 1.5-.7v8.1zM94.3 154.4v-.1c0-2.7 0-2.7 2.9-2.3v2.5c-1-.1-2-.1-2.9-.1zM89.9 154.4v-.7c0-1-.2-2 1.4-1.9 1.7 0 1.4.9 1.4 1.9v.7h-2.8zM81.5 154.4v-2.5h2.3v2.5h-2.3zM85.9 154.4v-2.5h2.3v2.5h-2.3zM77.2 154.4V152c2.2-.6 2.3-.5 2.3 2.4h-2.3zM72.9 154.4V153c-.1-.8.3-1.2 1.1-1.2 1 0 1.2.5 1.1 1.2 0 .5-.1.9-.2 1.4h-2zM64.5 154.4v-2.5h1.7v2.5h-1.7zM68.8 154.4v-2.5h1.7v2.5h-1.7zM60.1 154.4V152c1.8-.4 2.1.3 1.4 2.4h-1.4zM55.8 154.4V153c-.1-1 .4-1.3 1.5-1.1v2.5h-1.5zM51.7 154.4v-2.5c.8-.3 1.2-.2 1.2.7v1.7c-.4.1-.8.1-1.2.1z" class="st1"/><path d="M71.7 122c-2.4-7.1-4.7-14-7-20.9-.3-.9-.2-1.3.8-1.5 2.1-.6 4.2-1.4 6.4-2.1 1.8-.6 3.1.1 3.7 1.9 1.8 5.5 3.7 10.9 5.5 16.4.6 1.8 0 3.1-1.8 3.7-2.5.8-5 1.6-7.6 2.5zM117.6 121.9c-2.5-.8-5-1.6-7.5-2.6-1.7-.6-2.2-1.8-1.6-3.6 1.8-5.4 3.5-10.7 5.3-16.1.6-1.9 1.8-3.2 4.4-2.2 2 .8 4.1 1.4 6.1 2.1.3.1.7.7.6.9-2.3 7-4.7 14-7 21.1 0 .2-.1.2-.3.4zM80.7 133.7h3.1v3.7h3.9c1.1 0 2.2.1 3.3.3.9.2 1.6.7 1.5 1.9-.1 1.6-.1 3.2 0 4.8.1 1.2-.6 1.9-1.5 1.9-2.9.1-5.9.1-8.8 0-.9 0-1.5-.8-1.5-1.8v-10.8zm8.9 8.4c0-3.3 0-3.3-3.3-3.3H86c-1.9 0-2.2.3-2.2 2.2v1.6c-.1 2-.2 2.5 2.6 2.5 3.9.1 3.2-.4 3.2-3zM66.7 140.3c-.3-1.8.1-2.5 1.6-2.6 2.6-.1 5.1-.1 7.7 0 1.5.1 2 .8 2.1 2.4v3.5c0 2.3 0 2.6-2.3 2.8-2.5.3-5.2.2-7.7 0-1.9-.2-1.8-.6-1.9-2.8-.1-1.5 1-1.8 1.9-2 2.2-.3 4.3-.3 6.6-.5.5-1.6.1-2.1-2-2.2-1.3-.1-2.7-.3-3.7 1.1-.3.4-1.5.2-2.3.3zm5.3 5v-.1c.6 0 1.3.1 1.9 0 .4-.1.8-.6.9-1.1.1-.3-.3-1-.6-1.1-1.4-.1-2.9-.1-4.4 0-.3 0-.7.7-.7 1.1 0 .3.4.8.7.9.7.1 1.5.2 2.2.3zM108.8 146.8c-1.4-.1-2.8-.2-4.1-.4-1.9-.4-2.2-.8-2.1-2.9 0-1.6 1.2-1.9 2.3-2 1.9-.2 3.9-.1 5.8-.1.3 0 .7-.3.7-.4-.1-.5-.1-1.2-.4-1.6-.9-.9-4.3-.8-5 .2-.8 1.1-1.8.6-2.7.5-.2 0-.5-.6-.4-.8.1-.5.3-1 .7-1.3.5-.3 1.3-.5 1.9-.5 2.6.1 5.1.2 7.7.4 1 .1 1.3.7 1.3 1.7 0 1.6-.1 3.2 0 4.8.1 1.1-.5 1.7-1.4 1.9-1.4.2-2.9.3-4.3.5zm-.2-1.6c.6 0 1.3.1 1.9-.1.5-.1 1.1-.7 1.1-1-.1-.5-.6-1.1-1.1-1.2-1.2-.2-2.5-.1-3.8 0-.3 0-.8.7-.8 1 0 .4.5 1 .9 1.1.5.3 1.2.2 1.8.2zM51.8 143.5h2.6c.1 1.5 1.2 1.8 2.5 1.7h.7c2.7 0 2.7 0 2.7-2.7v-8.7c3.1-.4 3.1-.4 3.1 2.5v7.2c0 2.3-.1 2.7-2.3 3-2.5.3-5.1.2-7.6-.1-1.9-.3-1.8-.6-1.7-2.9zM128.6 141.1v-1.9c-.9-.5-1.5-.9-2.2-1.3.8-.2 1.5-.4 2.3-.5.4-.1.8 0 1.4 0v4.5c0 .2-.4.6-.6.6-2.1 0-4.2.5-6.1-.8-1.6-1.1-2.5-2.9-2.1-4.6.4-1.9 1.8-3.2 3.8-3.5 1.3-.2 2.7-.2 4-.2.4 0 .7.5 1.1.8-.4.2-.7.5-1.1.5-1.2.1-2.5 0-3.7.3-2 .4-2.8 1.6-2.7 3.2.1 1.6 1.4 2.7 3.2 2.9.8.1 1.7 0 2.7 0zM98.3 146.5c-.3.1-.4.1-.5.1-2.4.1-2.4.1-2.4-2.2 0-1.5.1-3.1 0-4.6-.1-1.1.4-1.8 1.5-1.9 1.3-.2 2.6-.4 4-.4.3 0 .6.4.9.6-.3.3-.5.7-.8.8-2.6.5-2.6.4-2.6 3-.1 1.4-.1 3-.1 4.6z" class="st1"/></svg>