<svg xmlns="http://www.w3.org/2000/svg" viewBox="0 0 192 192"><rect width="152" height="152" x="20" y="20" rx="10" style="fill:#54688c;stroke:none;opacity:1;stroke-linecap:round;stroke-linejoin:round;isolation:isolate"/><path d="M73.173 125.815c1.53-1.004 5.445.718 5.445.718s.955 4.773-.642 5.988c-23.53 17.898-51.493 32.688-51.493 32.688s23.12-23.93 46.69-39.394z" style="fill:#f8c18c;stroke:none;stroke-width:1.78221118px;stroke-linecap:butt;stroke-linejoin:miter;stroke-opacity:1"/><path d="M73.173 125.815s-6.56 2.813-20.353 19.842c19.134-7.334 25.156-13.136 25.156-13.136l.642-5.988z" style="fill:#f9de81;stroke:none;stroke-width:1.78221118px;stroke-linecap:butt;stroke-linejoin:miter;stroke-opacity:1"/><path d="m81.238 121.828-8.065 3.987 4.803 6.706 5.89-7.25.453-2.99zM171.587 27.491l10.174-4.025s3.67-.643 1.79 2.613c-2.006 3.475-5.718 8.52-5.718 8.52l-6.73-.946z" style="fill:#56595b;stroke:none;stroke-width:1.78221118px;stroke-linecap:butt;stroke-linejoin:miter;stroke-opacity:1"/><path d="M65.56 111.678c1.531-1.004 5.446.718 5.446.718s.955 4.773-.643 5.988c-23.53 17.898-39.19 23.589-39.19 23.589s10.817-14.831 34.388-30.295z" style="fill:#f8c18c;stroke:none;stroke-width:1.78221118px;stroke-linecap:butt;stroke-linejoin:miter;stroke-opacity:1"/><path d="M65.56 111.678s-8.61 5.505-15.995 16.638c13.752-3.874 20.798-9.932 20.798-9.932l.643-5.988z" style="fill:#f9de81;stroke:none;stroke-width:1.78221118px;stroke-linecap:butt;stroke-linejoin:miter;stroke-opacity:1"/><path d="m73.626 107.69-8.065 3.988 4.802 6.706 5.89-7.25.454-2.99z" style="fill:#56595b;stroke:none;stroke-width:1.78221118px;stroke-linecap:butt;stroke-linejoin:miter;stroke-opacity:1"/><path d="m75.348 98.9-.272 5.89-1.45 2.9 2.628 3.444 2.99-.815 5.89 1.087-2.084-7.884z" style="fill:#b1b5bd;stroke:none;stroke-width:1.78221118px;stroke-linecap:butt;stroke-linejoin:miter;stroke-opacity:1"/><path d="m171.587 27.491 6.246 7.109-18.655 15.224-8.071 10.472-63.616 49.117-9.787-12.506 63.253-48.754 12.325-5.981z" style="fill:#fff;stroke:none;stroke-width:1.78221118px;stroke-linecap:butt;stroke-linejoin:miter;stroke-opacity:1"/><path d="M77.704 96.907 75.348 98.9l9.787 12.505 2.356-1.993 24.014-18.306-1.721-1.994-23.924 17.943-2.81-3.534 23.471-18.758-2.696-3.347-23.856 18.48zM118.396 68.98l3.076 4.357 15.891-12.303-2.82-3.973zM124.932 77.566l15.763-12.303 1.538 2.05-15.635 12.304z" style="fill:#56595b;stroke:none;stroke-width:1.78221118px;stroke-linecap:butt;stroke-linejoin:miter;stroke-opacity:1"/><path d="m140.957 48.153 10.15 12.143 8.071-10.472-5.896-7.652zM126.598 82.436l9.738-2.747s4.336-.952 2.265 2.9c-1.773 3.296-4.698 8.562-4.698 8.562l-6.539-2.49z" style="fill:#d8d8d8;stroke:none;stroke-width:1.78221118px;stroke-linecap:butt;stroke-linejoin:miter;stroke-opacity:1"/><path d="m85.203 114.732-2.062 5.464-1.903 1.632 2.628 3.443 1.994-1.45 4.854-.63-.051-5.532z" style="fill:#b1b5bd;stroke:none;stroke-width:1.78221118px;stroke-linecap:butt;stroke-linejoin:miter;stroke-opacity:1"/><path d="m85.203 114.732 41.395-32.296 7.305 8.715-43.19 32.04Z" style="fill:#fff;stroke:none;stroke-width:1.78221118px;stroke-linecap:butt;stroke-linejoin:miter;stroke-opacity:1"/><path d="m86.228 116.526 10.381-8.202 2.691 2.948-10.925 8.362zM89.817 121.877l10.765-8.042 1.185 1.25-11.053 8.106z" style="fill:#56595b;stroke:none;stroke-width:1.78221118px;stroke-linecap:butt;stroke-linejoin:miter;stroke-opacity:1"/><path d="M54.678 99.632c1.53-1.004 5.445.718 5.445.718s.955 4.773-.642 5.988c-23.53 17.898-51.493 32.688-51.493 32.688s23.12-23.93 46.69-39.394z" style="fill:#f8c18c;stroke:none;stroke-width:1.78221118px;stroke-linecap:butt;stroke-linejoin:miter;stroke-opacity:1"/><path d="M54.678 99.632s-6.56 2.814-20.353 19.842c19.134-7.334 25.156-13.136 25.156-13.136l.642-5.988z" style="fill:#f9de81;stroke:none;stroke-width:1.78221118px;stroke-linecap:butt;stroke-linejoin:miter;stroke-opacity:1"/><path d="m62.743 95.645-8.065 3.987 4.803 6.706 5.89-7.25.453-2.99z" style="fill:#56595b;stroke:none;stroke-width:1.78221118px;stroke-linecap:butt;stroke-linejoin:miter;stroke-opacity:1"/><path d="m108.103 56.254 9.737-2.748s4.337-.951 2.266 2.9c-1.773 3.297-4.698 8.562-4.698 8.562l-6.539-2.49z" style="fill:#d8d8d8;stroke:none;stroke-width:1.78221118px;stroke-linecap:butt;stroke-linejoin:miter;stroke-opacity:1"/><path d="m66.708 88.55-2.062 5.464-1.903 1.63 2.628 3.445 1.994-1.45 4.854-.631-.051-5.532z" style="fill:#b1b5bd;stroke:none;stroke-width:1.78221118px;stroke-linecap:butt;stroke-linejoin:miter;stroke-opacity:1"/><path d="m66.708 88.55 41.395-32.296 7.305 8.714-43.19 32.04z" style="fill:#fff;stroke:none;stroke-width:1.78221118px;stroke-linecap:butt;stroke-linejoin:miter;stroke-opacity:1"/><path d="m67.733 90.344 10.381-8.202 2.691 2.947-10.925 8.362zM71.322 95.694l10.765-8.042 1.185 1.25-11.053 8.106z" style="fill:#56595b;stroke:none;stroke-width:1.78221118px;stroke-linecap:butt;stroke-linejoin:miter;stroke-opacity:1"/></svg>