<?xml version="1.0" encoding="UTF-8" standalone="no"?>
<svg
   id="a"
   width="192"
   height="192"
   viewBox="0 0 192 192"
   version="1.1"
   sodipodi:docname="spark_nz.svg"
   inkscape:version="1.2.2 (b0a8486541, 2022-12-01)"
   inkscape:export-filename="spark_nz.png"
   inkscape:export-xdpi="96"
   inkscape:export-ydpi="96"
   xmlns:inkscape="http://www.inkscape.org/namespaces/inkscape"
   xmlns:sodipodi="http://sodipodi.sourceforge.net/DTD/sodipodi-0.dtd"
   xmlns="http://www.w3.org/2000/svg"
   xmlns:svg="http://www.w3.org/2000/svg">
  <sodipodi:namedview
     id="namedview4054"
     pagecolor="#505050"
     bordercolor="#eeeeee"
     borderopacity="1"
     inkscape:showpageshadow="0"
     inkscape:pageopacity="0"
     inkscape:pagecheckerboard="0"
     inkscape:deskcolor="#d1d1d1"
     showgrid="false"
     inkscape:zoom="1.2291667"
     inkscape:cx="-204.61016"
     inkscape:cy="168"
     inkscape:window-width="1884"
     inkscape:window-height="1055"
     inkscape:window-x="36"
     inkscape:window-y="0"
     inkscape:window-maximized="1"
     inkscape:current-layer="a" />
  <defs
     id="defs4043" />
  <rect
     x="19.58"
     y="19.440001"
     width="152.92"
     height="152.92"
     rx="10.060526"
     style="fill:#8c72bd"
     id="rect4045"
     clip-path="none"
     transform="matrix(0.99398378,0,0,0.99398378,0.53779875,0.64713663)" />
  <g
     id="g4189"
     transform="matrix(0.99398378,0,0,0.99398378,0.53779875,0.64713663)">
    <rect
       x="19.5"
       y="19.5"
       width="153"
       height="153"
       rx="10"
       ry="10"
       style="fill:none"
       id="rect4187" />
  </g>
  <path
     d="m 126.5328,103.46732 c -6.35177,-0.96135 -17.18412,0.95277 -23.77623,-3.90548 0.35193,-0.35192 0.71243,-0.652342 1.12444,-1.004265 3.19305,1.184518 8.16288,2.901215 11.41602,4.025645 0.66951,0.19742 1.36477,-2.12012 0.77251,-2.36904 0,0 -7.33887,-2.540702 -10.11133,-3.544969 6.1286,-4.961248 11.75936,-10.780844 18.63472,-14.669158 -0.0429,-0.0515 0.0172,-0.08584 0.12017,-0.120169 0,-0.120169 0.0601,-0.291838 0,-0.412007 -0.12017,0 -0.18025,0.06009 -0.29184,0.06009 v -0.06009 c -0.48925,0.266088 -0.99568,0.515009 -1.47635,0.772513 0,0 -0.0601,0 -0.0601,0.06008 -3.87973,1.905532 -7.77663,3.939815 -11.53619,6.034183 4.21449,-2.514958 8.77231,-5.364672 13.25289,-7.038449 0.36909,0.145919 0.34334,0.789679 -0.0601,0.884098 -5.57926,3.364722 -10.25725,7.939714 -15.20133,12.128449 2.24887,-1.896947 4.49774,-3.725228 6.74661,-5.562091 -1.83686,1.536442 -3.66514,3.072884 -5.44192,4.66941 0.24033,-0.180253 0.47209,-0.351922 0.71242,-0.532175 -1.41627,1.416273 -3.00421,2.712378 -4.37757,4.137234 2.38621,-1.982782 4.73808,-4.042816 7.09854,-6.034182 2.74671,-2.446291 5.66509,-4.686577 8.63497,-6.858197 0.94418,-0.892681 4.01707,-1.605109 2.42913,-3.253137 1.5536,1.80253 -1.87979,2.497792 -2.90122,3.373306 0.66951,-0.978516 4.48057,-1.888364 2.54071,-3.313221 0.23175,-0.08584 0.48926,-0.214587 0.73818,-0.360506 -0.0687,0.02575 -0.13734,0.0515 -0.20601,0.06008 -0.0601,0 -0.12016,0.06009 -0.18025,0.06009 -0.22317,0.163086 -0.24034,0.103001 -0.47209,0.06008 1.1931,-0.454924 2.9613,-1.879781 1.36477,-2.892631 0.30042,0.111585 0.50643,0.283254 0.61801,0.497841 -0.0515,-0.111585 -0.12017,-0.214587 -0.21458,-0.326172 -1.39053,-1.227437 -3.57073,0 -5.12434,0.506425 -1.27035,0.506425 -2.67804,0.927016 -3.74239,1.733862 1.13302,-0.935599 5.10716,-4.557825 1.94845,-5.029916 -4.30032,2.283204 -7.50196,6.343188 -11.35594,9.28732 -0.82401,0.712428 -1.64803,1.43344 -2.47204,2.154452 l 0.103,-0.78968 c 4.12007,-4.034233 8.22297,-8.085633 12.18853,-12.257202 1.06435,-1.974199 -0.81543,-2.549292 -2.17162,-1.562192 0.0172,-0.01717 0.0343,-0.02575 0.0429,-0.04292 v -0.06008 c 0.92702,-1.090101 -0.59226,-1.742445 -1.30469,-0.772513 -2.44629,2.806797 -5.37325,5.064251 -8.1028,7.570625 0.47209,-0.351922 0.8841,-0.652344 1.36478,-0.944182 -3.17589,2.746712 -6.50628,5.510591 -9.579157,8.343137 -0.27468,-1.716695 0.68667,-3.690894 -1.00427,-3.43339 0.0601,-1.536441 0.0601,-3.132968 0.12017,-4.66941 0.0515,-0.437757 -0.84977,-0.755346 -1.30469,-0.532175 -0.120167,0.0515 -0.231747,0.120168 -0.351917,0.180253 -0.11159,0.06867 -0.0858,0.188836 -0.18026,0.291838 v 0.180253 c 0,0 0,0.103002 0,0.120169 v 7.999798 l -0.0343,0.04292 c -0.103,-0.206003 -0.21458,-0.377673 -0.26608,-0.592259 -0.420593,-4.308905 -0.618013,-8.815229 -0.652347,-13.192801 0.240338,-2.429123 0.772517,-7.218702 0.772517,-7.338871 0.0515,-2.19737 -2.257455,-2.343289 -2.36904,-0.120169 -0.09442,0.386257 0.497841,4.866831 0.180253,6.506274 -0.618011,-3.124385 -0.755346,-6.557774 -2.128702,-9.467572 0.334755,-1.570776 -1.562193,-2.051451 -2.429124,-1.244604 -2.085784,2.884047 0.343339,7.210119 0.120169,10.592008 -1.579359,-3.441974 -3.150135,-6.969782 -4.789579,-10.411755 0.59226,1.364772 1.244604,2.720961 1.836864,4.137235 -0.712429,-1.304689 -1.304688,-2.720962 -1.948449,-4.085734 -0.09442,0.04292 -0.180253,0.08583 -0.274671,0.120168 0.0086,0 0.01717,0 0.03433,0 1.759612,3.785313 3.441973,7.707961 5.321754,11.476106 -0.01717,0.240337 0.0515,0.472091 0.06008,0.712428 -1.364772,-3.072884 -2.720961,-6.094267 -4.085734,-9.167151 -0.463507,-0.927015 -0.901264,-2.008533 -1.364772,-2.961298 0,-0.02575 0,-0.04292 0,-0.0515 -0.214587,0.09442 -0.437757,0.19742 -0.652344,0.291838 0.652344,1.442024 1.201686,2.961299 1.82828,4.429073 -0.59226,-1.364773 -1.18452,-2.781046 -1.776779,-4.197319 -0.06867,-0.04292 -0.08584,-0.163086 -0.06009,-0.223171 -0.07725,0.03433 -0.154502,0.06867 -0.231753,0.103002 0.978516,2.24887 1.965615,4.506324 2.944131,6.763778 l -0.454924,0.266088 c -0.257504,-0.412007 -0.532175,-0.772513 -0.832597,-1.055768 -0.824013,-1.948448 -2.369039,-5.68226 -2.429123,-5.793845 -0.772513,-1.759612 -3.004216,-1.287521 -2.540709,0.59226 0.351923,1.26177 0.901265,2.506374 1.364773,3.725228 -0.995683,-1.304688 -2.008533,-0.343339 -1.596527,1.124435 -1.055767,-1.450607 -2.094367,0.06867 -1.304688,1.416273 0.437758,0.927016 0.781097,1.948449 1.18452,2.901215 -5.905431,-8.085633 4.712327,14.40307 5.201586,15.733509 -0.824014,-1.716695 -1.596527,-3.43339 -2.429124,-5.150085 0.995683,2.39479 2.154452,4.806746 3.072884,7.158618 -3.029966,-1.218853 -11.53619,-5.218753 -14.437404,-6.326021 -1.038601,-0.600843 -1.60511,0.454924 -1.416274,0.824014 -1.064351,-0.231754 -3.132968,-1.716695 -3.012799,0.240337 -6.351772,-2.695211 -6.540608,1.656611 -1.124436,3.373306 -0.240337,-0.06009 -0.412006,-0.06009 -0.652344,-0.120169 -0.120168,0.532175 -0.351922,1.244604 -0.351922,1.244604 0,0 8.815228,3.785312 13.312969,5.622176 -7.175815,-2.59221 -14.497519,-4.300321 -21.947975,-5.733761 -0.798263,-0.163086 -1.201686,1.596526 -0.412007,1.776779 1.665195,0.09442 3.132969,0.429174 4.669411,1.004266 -0.231754,0.480675 -0.240338,1.021434 -0.472091,1.476358 4.772412,1.424857 9.596324,2.84113 14.317236,4.257404 -0.120169,0.351922 -0.240338,0.712428 -0.351923,1.06435 -3.26172,-1.090101 -6.746611,-2.386206 -9.939664,-3.373305 1.768196,0.755346 3.725228,1.23602 5.502008,2.008533 -4.214486,-1.141602 -8.042716,-2.540709 -12.12845,-4.197319 -0.703845,-0.19742 -1.115852,1.484941 -0.291838,1.476357 3.544975,0.995684 7.124284,1.914115 10.531923,3.193053 -0.532175,-0.120169 -1.064351,-0.291838 -1.596526,-0.412007 5.296004,1.60511 10.428922,3.613639 15.673425,5.381839 -0.884098,0.9871 -16.385854,14.27432 -10.943931,13.1928 3.871148,-4.62649 9.493324,-7.7423 14.016815,-11.88811 0.214587,-0.34334 0.489258,0.0172 0.772512,0 -1.896947,2.0257 -3.733811,4.06856 -5.562091,6.16293 -0.04292,0.0944 -0.08584,0.18884 -0.154503,0.27467 -0.0515,0.0687 -0.111585,0.12017 -0.171669,0.17167 -1.819697,1.93128 -5.287421,5.39901 -5.287421,5.39901 0.120169,0.12017 0.180253,0.18025 0.291838,0.29183 -0.824013,0.77252 -1.716694,1.59653 -2.600792,2.36904 l 0.240337,0.24034 c -0.403423,0.31759 -0.824014,0.7296 -1.244604,1.00427 -0.403423,0.36909 0.686678,1.75961 1.18452,1.59652 -0.781097,1.04719 -3.141552,2.0772 -2.188786,3.60506 -0.497842,0.44634 -1.064351,0.84118 -1.536442,1.30469 -0.309006,0.36909 0.557925,1.38194 0.944182,1.12444 -0.06867,0.33475 0.369089,0.91843 0.712428,0.77251 0.06009,0 0.06009,-0.0601 0.06009,-0.0601 2.223119,-1.73387 4.308904,-3.50206 6.506273,-5.20159 -0.703845,2.1802 -6.291687,5.32175 -5.09,6.91828 0,0 0.120168,-0.0257 0.120168,0.0601 0,0 0.06009,0 0.06009,0.0601 h 0.472091 c 0.08583,-0.0172 0.206003,0.0515 0.240337,-0.0601 0,0 0.06009,0 0.06009,-0.0601 0,0 0.06008,0 0.06008,-0.0601 0.0515,-0.0515 0.128752,-0.12876 0.180253,-0.18026 v -0.12017 l 0.06008,-0.0601 c 0,0 0,-0.0601 0.06008,-0.0601 0,0 0,-0.0601 0.06009,-0.0601 0,0 0,-0.0601 0.06008,-0.0601 0.111585,-0.11159 0.240337,-0.24034 0.351923,-0.35193 0.549342,-1.10726 1.107268,-2.20595 1.65661,-3.31322 1.253188,-1.27893 2.514958,-2.55787 3.776729,-3.82823 0,0 0,0 0,0 0.06008,-0.0858 0.120169,-0.17167 0.17167,-0.26608 0.02575,-0.0429 0.04292,-0.0944 0.07725,-0.13734 0.04292,-0.0687 0.103002,-0.12875 0.145919,-0.19742 -0.01717,0.0258 -0.04292,0.0515 -0.06008,0.0858 0.02575,-0.0343 0.04292,-0.0601 0.06008,-0.0944 0.01717,-0.0258 0.03433,-0.0429 0.0515,-0.0601 0.360506,-0.54934 0.918432,-0.94418 1.450607,-1.35619 0.04292,-0.0429 0.08584,-0.0858 0.137336,-0.12875 0.154502,-0.12017 0.309005,-0.23175 0.472091,-0.34334 3.716644,-3.65656 7.544874,-7.21012 11.639192,-10.41175 -5.819596,5.99126 -11.630609,11.99111 -17.39012,18.04246 l -0.06009,0.0601 c 6.540608,-6.36036 12.832295,-12.96963 19.287068,-19.39866 1.364766,7.61354 2.283203,17.60471 3.965563,23.72473 0.12017,0.29183 0.412,0.65234 0.77251,0.65234 2.120117,-0.9871 -0.18884,-12.64346 -0.12017,-15.3215 2.068617,4.02565 6.214437,12.12845 6.214437,12.12845 0.19742,0.309 1.55361,-0.18884 1.41627,-0.59226 -1.65661,-4.08574 -3.31322,-8.22297 -4.96983,-12.24862 1.20169,1.33902 2.19737,2.81538 3.08147,4.36899 l 0.31759,0.76393 c -0.0429,-0.0944 -0.0944,-0.19742 -0.13734,-0.28326 0.0601,0.14592 0.13734,0.29184 0.20601,0.43776 l 1.33902,3.27889 v 0 c 0.9871,2.47204 2.21453,4.90116 4.66941,5.39042 1.04718,-0.22317 1.13302,-1.50211 0.71243,-2.30895 3.05571,0.30042 -6.11144,-14.59191 -6.74661,-17.0382 0.24033,0.12017 0.53217,0.18025 0.77251,0.24034 2.90121,6.03418 5.85393,12.00828 8.81523,17.98237 -2.78105,-5.97409 -5.56209,-11.88811 -8.34314,-17.80212 2.67804,0.84118 7.51912,2.50637 9.18432,2.96988 -3.09005,-1.0901 -6.18869,-2.24887 -9.30449,-3.2703 -0.0172,-0.0429 -0.0429,-0.0858 -0.0601,-0.13734 -0.18026,-0.0601 -0.36909,-0.12017 -0.53218,-0.16309 -0.18025,-0.35192 -0.35192,-0.71242 -0.53217,-1.06435 0.29183,0.0601 0.53217,0.18026 0.77251,0.24034 0.009,0.0258 0.0258,0.0429 0.0343,0.0687 6.36036,2.1287 13.00397,3.69948 19.19265,6.19727 1.02144,0.0772 2.35187,-4.24024 0.82402,-4.13724 0.49784,-0.64376 -1.84545,-1.60511 -4.96125,-2.60937 0.29183,-0.103 0.4635,-0.79827 0.23175,-0.94419 -2.75529,-0.82401 -5.46767,-1.93986 -8.22297,-2.78104 8.81523,-0.24034 17.51029,-0.82401 14.19707,-1.41627 z M 85.658298,83.115904 c 0.463508,1.081518 0.995683,2.051451 1.364773,3.132969 -2.326122,-3.673728 -4.454824,-8.265887 -5.733762,-12.068366 1.450608,3.021383 2.969883,5.871097 4.377573,8.935397 z M 81.040389,64.06059 c 0.64376,1.424857 1.373356,2.875464 1.716695,4.265987 q -0.06008,0 -0.06008,-0.06008 C 82.190579,66.84164 81.62407,65.442534 81.040394,64.052011 Z m -0.231754,-1.708111 h 0.06008 c 0.824014,1.896948 1.656611,3.725228 2.480624,5.68226 -0.120168,0.06009 -0.240337,0.120169 -0.351922,0.180253 -0.652344,-1.982782 -1.914115,-3.725228 -2.248871,-5.793845 0.334756,0.781096 0.669512,1.725278 1.004267,2.540708 -0.291838,-0.884098 -0.59226,-1.716695 -0.944182,-2.600793 z m -1.064351,12.360204 c 2.566459,4.720911 4.944081,10.823761 6.858196,15.261418 C 84.173357,85.004269 81.93307,79.862767 79.744284,74.712683 Z M 76.07914,89.441925 c -1.974199,-0.454924 -4.137235,-0.652344 -6.094267,-1.244604 l 3.845397,0.291839 c 0,0 -2.068618,-0.944183 -4.437657,-1.948449 0.76393,0.257504 1.562193,0.44634 2.248871,0.824013 1.450607,0.703845 2.969882,1.339022 4.437656,2.068618 z M 67.444165,84.24034 c 1.004266,0.351922 2.008533,0.712428 2.961298,1.06435 -0.515008,-0.120168 -1.124435,-0.334755 -1.65661,-0.472091 h 0.06008 c -0.875514,-0.19742 -1.587943,-0.463507 -2.429123,-0.824013 0.351922,-0.06009 0.772512,0.120168 1.064351,0.240337 z m 6.214435,7.218702 c 0.291838,0.180253 0.712429,0.351922 1.004267,0.59226 -2.703795,-1.218854 -5.399006,-2.317539 -8.162885,-3.493475 0.120169,0 0.240338,0.06009 0.412007,0.06009 1.115852,0.180253 2.283204,0.703845 3.43339,0.712428 0.07725,0.03433 1.733862,1.193103 1.776779,1.124435 1.80253,0.703845 5.399006,2.291788 7.158618,3.132969 -1.896948,-0.772513 -3.785312,-1.536442 -5.68226,-2.308955 0,0.120169 0.06008,0.180253 0.06008,0.180253 z m 5.321755,9.527658 c 0.712428,0.18025 1.416273,0.412 2.188786,0.59226 q -0.06009,0.0601 -0.120169,0.12017 c -0.712428,-0.24034 -1.416273,-0.4721 -2.068617,-0.71243 z m -3.845397,7.75087 c 2.19737,-2.06861 4.24882,-4.3089 6.506274,-6.32602 0.291838,0.12017 0.59226,0.18026 0.884098,0.35193 -2.480624,2.00853 -4.909748,3.96556 -7.390372,5.97409 z m 7.871046,-6.3861 c -0.291838,-0.12017 -0.652344,-0.24034 -0.944182,-0.29184 0,-0.0601 0.120169,-0.12017 0.120169,-0.18025 0.351922,0.12017 0.712428,0.18025 1.064351,0.29184 -0.06009,0.0601 -0.120169,0.12016 -0.240338,0.18025 z M 78.628432,91.999801 c -1.785363,-0.154503 -3.244553,-1.476358 -4.849663,-2.128702 2.497791,0.532175 4.832496,1.072934 7.218702,1.776779 1.793946,0.824014 3.587893,1.656611 5.381839,2.480624 l -1.304688,0.824014 c -2.077201,-0.9871 -4.411906,-1.836864 -6.44619,-2.961299 z m 5.733761,10.823759 c 0.120169,-0.12017 0.180253,-0.18025 0.291838,-0.24034 0.120169,0.0601 0.291839,0.0601 0.412007,0.12017 -0.06008,0.12017 -0.180253,0.18025 -0.240337,0.29184 -0.180253,-0.0601 -0.351922,-0.12017 -0.472091,-0.18025 z m -5.150085,14.78933 c -0.918431,0.85834 -1.957032,1.64802 -2.901214,2.48062 0.120169,-0.12017 0.291838,-0.18025 0.412007,-0.29184 -2.266038,2.00853 -4.738078,3.83681 -7.098534,5.73376 0,-0.12017 0.120169,-0.24033 0.240337,-0.29184 3.40764,-2.84971 6.695111,-5.79384 10.059833,-8.69506 -0.17167,0.31759 -0.523592,0.69527 -0.712429,1.06436 z m 0.291839,-7.45046 c -0.06009,0.0601 -0.120169,0.12017 -0.180253,0.18025 0,0 0.06008,-0.0601 0.06008,-0.12017 2.188786,-1.93128 4.171569,-4.77241 6.386105,-6.3861 -0.351922,0.41201 -0.772513,0.82401 -1.124435,1.2446 l 1.244604,-1.2446 c 0.120168,0.0601 0.180253,0.0601 0.291838,0.12017 -0.412007,0.47209 -0.824014,0.82401 -1.244604,1.30469 -0.03433,0.0858 -0.08584,0.14592 -0.120168,0.24033 -1.793947,1.51928 -3.622227,3.05572 -5.321755,4.66941 z m 2.188786,5.73376 c 1.390523,-1.60511 3.330388,-2.84113 5.098584,-4.04282 z m 5.09,-12.54045 -0.240337,0.24033 c -0.437757,-0.0601 -0.300422,-0.24892 0,-0.47209 0.120169,0 0.180253,0.0601 0.291838,0.12017 0,0.0601 -0.06008,0.0601 -0.06008,0.12017 z m 0.772513,-7.630711 c 0,0.06008 -0.06008,0.120168 -0.120169,0.180253 -0.44634,-0.154503 -0.901265,-0.266088 -1.364772,-0.472091 0.412007,-0.180253 0.884098,-0.412007 1.244604,-0.59226 0.0515,0.266088 0.506425,0.712428 0.240337,0.884098 z M 94.001435,79.99152 c 0.09442,0.952765 0.377671,1.939865 0.412005,2.901214 -0.180251,-0.454924 -0.575091,-0.952766 -0.592257,-1.476358 0.04292,-0.480674 0.103001,-0.944182 0.180252,-1.416273 z m -0.351922,2.781045 c 0.283255,0.532176 0.506425,1.158769 0.824011,1.656611 0,0.343339 -0.01717,0.61801 0.06008,1.004267 -0.283254,-0.678095 -0.789677,-1.424857 -0.944179,-2.188786 0,-0.120169 0.06008,-0.351923 0.06008,-0.472092 z m -0.291838,-7.810962 c 0,0.180253 -0.06008,0.412007 -0.06008,0.652344 -0.137336,1.030017 -0.17167,2.145869 -0.291839,3.132969 0.120169,-1.064351 0.291839,-2.188786 0.412007,-3.253137 0.03433,1.390523 -0.266088,2.909798 -0.351922,4.317488 -0.08584,-0.145919 -0.154503,-0.351923 -0.240338,-0.472092 0.231754,-1.424856 0.39484,-2.995632 0.532176,-4.377572 z M 90.816966,62.661484 c 1.725279,5.227336 3.064301,10.883846 1.948449,16.385853 -1.399106,-2.266037 -2.094368,-4.746661 -2.514958,-7.304537 0.08584,0.772513 0.180253,1.545026 0.266088,2.343289 -0.145919,-0.309005 -0.317589,-0.721012 -0.472091,-1.064351 -0.0515,-2.300371 -0.781097,-4.506324 -0.884098,-6.806695 0,0 0,0.01717 0.0086,0.02575 -0.300421,-1.759612 -0.738179,-6.729444 1.648027,-3.570725 z M 90.516545,74.72985 c 0.351922,0.772512 0.712428,1.536442 1.064351,2.369039 h -0.06009 c -0.334755,-0.652345 -0.832597,-1.373356 -1.004266,-2.128702 0.06008,-0.06008 0,-0.180253 0,-0.240337 z m -0.120169,0.06008 c -0.180253,-0.240337 -0.291838,-0.59226 -0.472091,-0.884098 0,-0.240337 -0.06008,-0.472091 -0.06008,-0.772513 0.283254,0.540759 0.532175,1.055768 0.532175,1.656611 z m -1.141602,34.11931 c 0.02575,-0.0601 0.04292,-0.12017 0.06867,-0.17167 1.0386,-0.87551 2.111535,-1.78536 3.141552,-2.65229 0.180252,0.0601 0.291838,0.12017 0.472091,0.18025 -1.201687,0.8841 -2.437707,1.7682 -3.682311,2.6523 z m 4.566409,-3.4763 c -0.180253,0.18025 -0.291839,0.35192 -0.472092,0.47209 -0.180253,-0.0601 -0.291838,-0.12017 -0.472091,-0.18026 0.180253,-0.18025 0.412007,-0.35192 0.59226,-0.53217 0.120169,0.0601 0.291838,0.0601 0.412007,0.12017 0,0.0601 -0.06008,0.0601 -0.06008,0.12017 z M 93.529344,84.961351 c -0.08583,-0.180253 -0.0515,-0.42059 -0.06008,-0.652344 0.489258,1.141603 1.210267,2.102952 1.184517,3.313222 -0.351922,-0.884098 -0.77251,-1.77678 -1.124433,-2.660878 z m 4.317479,29.990659 c -0.29184,-0.65235 -0.65234,-1.36477 -0.82401,-1.65661 -0.18025,-0.31759 -0.66951,-1.70811 -0.77251,-2.42913 0.52359,0.97852 1.12443,2.07721 1.59652,3.13297 v 0.94419 z m 4.909747,-16.033929 c -0.18025,0.180253 -0.35192,0.291839 -0.53217,0.472092 -0.47209,-0.240338 -0.94418,-0.472092 -1.47636,-0.652345 -0.18026,-0.351922 -0.29184,-0.712428 -0.47209,-1.004266 0.0601,-0.120169 0.18025,-0.180253 0.29183,-0.240337 0.88411,0.351922 1.83687,0.712428 2.72097,1.004266 -0.12017,0.120169 -0.29184,0.240337 -0.53218,0.412007 z m 17.98238,-15.02108 c -5.27883,3.914064 -10.14566,8.240135 -15.08116,12.540456 -0.94418,-0.02575 -1.9227,-0.669511 -2.90122,-0.884098 0,0 0,-0.06008 0.0601,-0.06008 5.1415,-5.184419 11.43319,-8.197218 17.92229,-11.596274 z m -6.3861,2.308954 c 2.40337,-1.708111 5.07283,-2.926965 7.75088,-4.137235 -2.56646,1.373356 -5.21876,2.755296 -7.75088,4.137235 z m 11.4761,-8.403221 c 0.0601,0.01717 0.11159,0.03433 0.16309,0.06008 -0.41201,-0.09442 -0.8326,-0.103002 -1.25319,-0.06867 0.35192,-0.0515 0.80685,-0.188836 1.0901,0.01717 z m -7.69079,4.137234 c 0.0601,-0.06008 0.18025,-0.180253 0.18025,-0.180253 0,0 -0.0601,-0.06008 -0.12017,-0.180253 2.05145,-1.356189 4.55783,-1.991366 6.91828,-2.660877 v 0.06009 c -2.57504,1.519275 -5.99984,2.514958 -8.34313,4.025649 0.309,-0.369089 0.96993,-0.686678 1.36477,-1.064351 z m 1.47636,-5.321754 c -5.95693,6.660776 -13.55331,11.853779 -20.231247,17.862211 -0.0601,0 -0.24034,-0.06008 -0.29184,-0.120169 -0.0429,-0.07725 0.103,-0.120168 0.12017,-0.180253 0.59226,-0.472091 1.184517,-1.004266 1.776777,-1.476357 6.42902,-5.098584 12.01686,-11.201435 18.63472,-16.094015 z M 98.258833,87.742397 c 1.43344,-1.999949 3.965567,-3.570725 5.793847,-5.381838 -1.91412,2.05145 -3.88832,4.094317 -5.793847,6.154351 z m 0.0601,3.43339 c 5.793837,-6.111434 11.570517,-12.437455 18.222707,-17.690541 -5.91401,6.137184 -11.84519,12.17995 -17.922287,18.222717 -0.18026,-0.291839 -0.29184,-0.351923 -0.29184,-0.532176 z m 0.59226,15.913763 0.65234,0.94418 c -0.24033,-0.0601 -0.412,-0.12017 -0.65234,-0.24034 v -0.71243 z m 3.433387,13.1928 c -1.07294,-2.55788 -3.416217,-5.12434 -3.373307,-8.04272 1.184517,2.60079 2.308957,5.32175 3.373307,8.04272 z m -3.373307,-12.06837 c 0.35193,0.12017 0.65235,0.24034 1.00427,0.29184 1.665187,2.06003 3.441967,5.09 3.785307,7.75088 -1.56219,-2.63513 -4.643657,-4.84108 -4.789577,-8.04272 z m 9.467567,16.56611 c 0.69526,1.05576 1.58795,1.95703 2.12871,3.07288 -0.90985,-0.9356 -1.69095,-2.06003 -2.30896,-3.25314 0.0601,0.0601 0.12017,0.12017 0.18025,0.18026 z m -0.59226,-3.25314 c -1.55361,-1.8197 -3.02996,-3.64798 -3.54497,-6.03418 z m 17.25279,-9.04698 0.0343,-0.0343 c 0.19741,-0.0515 0.30042,-0.11158 0.40343,-0.206 0.0601,-0.0601 0.12015,-0.0601 0.18025,-0.0601 0.11158,0.31758 0,1.06435 -0.53218,0.77251 -6.76378,-1.75103 -13.5018,-3.6909 -20.23125,-5.56209 -0.0858,-0.0172 -0.309,-0.009 -0.29184,-0.12017 6.81528,1.89695 13.74215,3.48489 20.52309,5.50201 0.11159,-0.13734 0.0601,-0.26609 -0.0772,-0.29184 z m -15.55325,-4.13724 -0.24892,-0.0687 c -1.82829,-0.54076 -3.54498,-1.20169 -5.00416,-2.12871 1.74244,0.50643 3.28747,0.91844 5.09,1.47636 2.39479,0.87552 4.82391,1.59653 7.25303,2.35187 l 1.13302,0.39484 c -2.67804,-0.72101 -5.56209,-1.26177 -8.22297,-2.03428 z m 7.33887,-0.75534 c -3.71664,-1.07294 -7.5277,-2.06862 -8.79806,-2.62654 2.30037,0.3605 5.83676,1.63944 8.79806,2.62654 z m -5.13292,-3.39047 c 0,-0.12017 -0.0601,-0.24034 -0.12016,-0.35193 12.45462,-0.43775 16.63477,0 0.12016,0.35193 z"
     style="fill:#ffffff;stroke-width:0.858347"
     id="path4049" />
</svg>
