<svg xmlns="http://www.w3.org/2000/svg" xml:space="preserve" width="192" height="192"><rect width="152" height="152" x="20" y="20" fill="#56595b" rx="9.935"/><path fill="#96dfd3" d="M134.44 71.477 98.225 50.748a3.507 3.507.094 0 0-3.475-.006l-37.446 21.27A3.453 3.453 120.32 0 0 55.556 75l-.07 16.418a3.517 3.517 60.624 0 0 1.705 3.03l36.876 22.158a3.37 3.37.307 0 0 3.44.019l13.432-7.877a1.167 1.167 89.873 0 0-.004-2.015l-37.2-21.592a1.177 1.177 89.658 0 1-.012-2.029l20.966-12.506a3.434 3.434 179.4 0 1 3.456-.036l18.702 10.634a3.567 3.567.345 0 0 3.489.021l14.088-7.788a1.125 1.125 90.427 0 0 .014-1.96z"/><path fill="#9abeff" d="m57.556 120.52 36.215 20.729a3.507 3.507.094 0 0 3.475.006l37.446-21.27a3.453 3.453 120.32 0 0 1.747-2.988l.072-16.418a3.517 3.517 60.624 0 0-1.706-3.03L97.929 75.39a3.37 3.37.307 0 0-3.44-.018l-13.432 7.876a1.167 1.167 89.873 0 0 .005 2.016l37.199 21.592a1.177 1.177 89.658 0 1 .012 2.028L97.307 121.39a3.434 3.434 179.4 0 1-3.456.036l-18.702-10.634a3.567 3.567.345 0 0-3.49-.02l-14.088 7.787a1.125 1.125 90.427 0 0-.015 1.96z"/></svg>