<?xml version="1.0" encoding="UTF-8" standalone="no"?>
<svg
   id="a"
   width="192"
   height="192"
   viewBox="0 0 192 192"
   version="1.1"
   sodipodi:docname="spendcatcher.svg"
   inkscape:version="1.2.2 (b0a8486541, 2022-12-01)"
   inkscape:export-filename="spendcatcher.png"
   inkscape:export-xdpi="96"
   inkscape:export-ydpi="96"
   xmlns:inkscape="http://www.inkscape.org/namespaces/inkscape"
   xmlns:sodipodi="http://sodipodi.sourceforge.net/DTD/sodipodi-0.dtd"
   xmlns="http://www.w3.org/2000/svg"
   xmlns:svg="http://www.w3.org/2000/svg">
  <defs
     id="defs14" />
  <sodipodi:namedview
     id="namedview12"
     pagecolor="#505050"
     bordercolor="#eeeeee"
     borderopacity="1"
     inkscape:showpageshadow="0"
     inkscape:pageopacity="0"
     inkscape:pagecheckerboard="0"
     inkscape:deskcolor="#d1d1d1"
     showgrid="false"
     inkscape:zoom="1.2291667"
     inkscape:cx="96"
     inkscape:cy="96.40678"
     inkscape:window-width="1884"
     inkscape:window-height="1055"
     inkscape:window-x="36"
     inkscape:window-y="0"
     inkscape:window-maximized="1"
     inkscape:current-layer="a" />
  <rect
     x="8"
     y="32"
     width="176"
     height="128"
     rx="10"
     ry="10"
     style="isolation:isolate;fill:#ffffff;stroke-width:0px"
     id="rect2" />
  <path
     d="M 92.300719,70.067476 138.5,83.589594 c 0,0 -8.97869,36.123376 -16.78288,36.123376 0,0 -36.834248,-21.048147 -32.769886,-35.729303 2.178993,-7.873736 3.353485,-13.916191 3.353485,-13.916191 z"
     style="fill:#9abeff;stroke-width:0px"
     id="path4" />
  <path
     d="M 67.42775,119.71297 C 46.310065,116.75355 55.481924,83.983667 55.481924,83.983667 h 33.457583 c 0,0 -0.394073,38.696433 -21.519484,35.729303 z"
     style="fill:#9abeff;stroke-width:0px"
     id="path6" />
  <path
     id="d"
     d="m 137.21733,119.71297 c -7.00832,-0.8886 -30.305,-4.73661 -30.79952,-35.729303 H 88.947234 C 84.898326,98.688004 77.302759,119.71297 67.42775,119.71297 c 21.024961,2.95941 60.11547,2.95941 69.78958,0 z"
     style="fill:#728dbe;stroke-width:0px" />
</svg>
