<?xml version="1.0" encoding="UTF-8" standalone="no"?>
<svg
   viewBox="0 0 192 192"
   version="1.1"
   id="svg3"
   xml:space="preserve"
   width="192"
   height="192"
   sodipodi:docname="sponge.svg"
   inkscape:version="1.2.2 (b0a8486541, 2022-12-01)"
   inkscape:export-filename="sponge.png"
   inkscape:export-xdpi="96"
   inkscape:export-ydpi="96"
   xmlns:inkscape="http://www.inkscape.org/namespaces/inkscape"
   xmlns:sodipodi="http://sodipodi.sourceforge.net/DTD/sodipodi-0.dtd"
   xmlns="http://www.w3.org/2000/svg"
   xmlns:svg="http://www.w3.org/2000/svg"><sodipodi:namedview
     id="namedview1"
     pagecolor="#ffffff"
     bordercolor="#000000"
     borderopacity="0.25"
     inkscape:showpageshadow="2"
     inkscape:pageopacity="0.0"
     inkscape:pagecheckerboard="0"
     inkscape:deskcolor="#d1d1d1"
     inkscape:zoom="0.51928154"
     inkscape:cx="-169.46491"
     inkscape:cy="51.032047"
     inkscape:window-width="1884"
     inkscape:window-height="1055"
     inkscape:window-x="36"
     inkscape:window-y="0"
     inkscape:window-maximized="1"
     inkscape:current-layer="svg3"
     showgrid="false" /><defs
     id="defs1"><style
       id="style1">.a{fill:none;stroke:#b1b5bd;stroke-linecap:round;stroke-linejoin:round;isolation:isolate;opacity:0.63;}</style></defs><path
     id="rect1"
     style="opacity:1;fill:#73ada4;fill-opacity:1;stroke:none"
     class="a"
     d="m 29.857422,18.005859 c -3.763148,0.04616 -7.462204,1.948065 -9.614968,5.046586 C 18.564328,25.326396 17.884697,28.202097 18,31 c 0.0039,43.714153 -0.0078,87.42863 0.0059,131.14258 0.04616,3.76315 1.948065,7.4622 5.046586,9.61497 2.27391,1.67812 5.149611,2.35775 7.947514,2.24245 43.714153,-0.004 87.42863,0.008 131.14258,-0.006 3.76315,-0.0462 7.4622,-1.94806 9.61497,-5.04659 C 173.43567,166.6736 174.1153,163.7979 174,161 173.995,117.21518 174.0108,73.430062 173.992,29.645422 173.9139,24.883956 170.69245,20.380999 166.213,18.765625 163.4072,17.640749 160.34081,18.091211 157.4,18 114.88585,18.0039 72.371373,17.9922 29.857422,18.0059 Z" /><rect
     style="fill:#c39a54;fill-opacity:1;stroke:none;stroke-width:0.655258"
     id="rect6"
     width="73"
     height="41.505283"
     x="59.5"
     y="85.469185"
     ry="13.814436" /><rect
     style="fill:#f9de81;fill-opacity:1;stroke:none;stroke-width:0.655258"
     id="rect7"
     width="73"
     height="41.505283"
     x="59.5"
     y="80.408478"
     ry="13.814436" /><circle
     style="fill:#c39a54;fill-opacity:1;stroke:none;stroke-width:0.881816"
     id="path7"
     cx="85.414803"
     cy="113.76099"
     r="3.681776" /><circle
     style="fill:#c39a54;fill-opacity:1;stroke:none;stroke-width:0.881816"
     id="circle7"
     cx="109.73459"
     cy="121.08298"
     r="3.681776" /><circle
     style="fill:#ffffff;fill-opacity:1;stroke:none;stroke-width:1.11609"
     id="path8"
     cx="86.183769"
     cy="82.830299"
     r="9.9809475" /><circle
     style="fill:#ffffff;fill-opacity:1;stroke:none;stroke-width:1.04929"
     id="circle8"
     cx="106.50505"
     cy="90.376007"
     r="9.3836222" /><circle
     style="fill:#ffffff;fill-opacity:1;stroke:none;stroke-width:0.72615"
     id="circle9"
     cx="102.43834"
     cy="71.519318"
     r="6.493783" /></svg>
