<?xml version="1.0" encoding="UTF-8" standalone="no"?>
<svg
   width="192"
   height="192"
   version="1.1"
   id="svg10"
   sodipodi:docname="sportsbet.svg"
   inkscape:version="1.2.2 (b0a8486541, 2022-12-01)"
   inkscape:export-filename="sportsbet.png"
   inkscape:export-xdpi="96"
   inkscape:export-ydpi="96"
   xmlns:inkscape="http://www.inkscape.org/namespaces/inkscape"
   xmlns:sodipodi="http://sodipodi.sourceforge.net/DTD/sodipodi-0.dtd"
   xmlns="http://www.w3.org/2000/svg"
   xmlns:svg="http://www.w3.org/2000/svg">
  <defs
     id="defs14" />
  <sodipodi:namedview
     id="namedview12"
     pagecolor="#505050"
     bordercolor="#eeeeee"
     borderopacity="1"
     inkscape:showpageshadow="0"
     inkscape:pageopacity="0"
     inkscape:pagecheckerboard="0"
     inkscape:deskcolor="#d1d1d1"
     showgrid="false"
     inkscape:zoom="0.86915209"
     inkscape:cx="-143.81833"
     inkscape:cy="35.091672"
     inkscape:window-width="1884"
     inkscape:window-height="1055"
     inkscape:window-x="36"
     inkscape:window-y="0"
     inkscape:window-maximized="1"
     inkscape:current-layer="svg10" />
  <circle
     cx="96"
     cy="96"
     r="88"
     opacity=".63"
     style="fill:#728dbe;stroke:#728dbe;fill-opacity:1;opacity:1;stroke-opacity:1"
     id="circle2" />
  <g
     style="stroke-width:0.719041"
     id="g8"
     transform="matrix(0.7194804,0,0,0.7194804,26.930963,24.389582)">
    <path
       d="m 47.899,142.467 c -4.186,-0.523 -12.297,-2.886 -15.577,-4.538 -1.889,-0.951 -2.152,-1.19 -2.152,-1.951 0,-0.88 1.715,-8.182 2.79,-11.877 0.323,-1.112 0.736,-2.59 0.917,-3.286 l 0.329,-1.263 5.426,2.74 c 6.707,3.387 10.194,4.61 13.133,4.605 2.559,-0.004 4.812,-0.922 6.143,-2.504 0.734,-0.872 0.853,-1.25 0.73,-2.331 -0.266,-2.366 -2.1,-4.088 -8.94,-8.395 -5.2,-3.274 -6.83,-4.85 -8.536,-8.259 -1.837,-3.67 -2.236,-5.548 -1.774,-8.344 0.932,-5.644 3.247,-10.11 7.117,-13.73 5.572,-5.212 9.865,-6.613 20.3,-6.624 6.425,-0.006 10.445,0.414 14.599,1.525 2.792,0.747 6.383,2.353 7.723,3.453 l 0.706,0.58 -0.95,3.887 c -1.36,5.565 -3.068,10.891 -3.553,11.078 -0.23,0.087 -1.964,-0.617 -3.856,-1.566 -4.388,-2.2 -7.172,-2.98 -10.641,-2.98 -5.235,0 -7.76,1.55 -7.76,4.762 0,0.942 0.195,1.91 0.463,2.293 0.62,0.887 3.62,2.983 7.745,5.412 7.64,4.5 10.938,9.382 10.908,16.148 -0.022,4.873 -1.958,9.21 -5.898,13.21 -3.94,4 -9.126,6.638 -14.703,7.481 -3.672,0.555 -11.915,0.82 -14.69,0.474 z"
       style="fill:#ffffff;fill-opacity:1;stroke:#ffffff;stroke-width:0.223643;stroke-opacity:1"
       transform="matrix(0.76044,0,0,0.76051,22.41,22.261)"
       id="path4" />
    <path
       d="m 121.402,144.723 c -1.65,-0.172 -2.22,-0.43 -2.817,-1.272 -0.646,-0.915 -2.308,-5.276 -3.365,-8.829 -1.275,-4.29 -2.095,-5.42 -2.966,-4.091 -0.209,0.318 -0.798,2.377 -1.31,4.577 -0.512,2.199 -1.216,5.038 -1.565,6.308 l -0.635,2.31 -10.11,0.057 c -10.499,0.06 -12.767,-0.069 -13.727,-0.782 -0.942,-0.7 -0.854,-1.685 0.62,-6.914 1.765,-6.268 3.543,-12.842 12.1,-44.73 6.045,-22.535 9.951,-36.946 11.245,-41.488 l 0.235,-0.824 9.171,0.013 c 8.756,0.012 15.076,0.21 15.346,0.48 0.146,0.145 -1,4.6 -4.228,16.437 l -2.308,8.463 0.459,0.372 c 0.618,0.501 1.802,0.588 11.34,0.83 8.914,0.226 9.683,0.327 12.525,1.64 9.107,4.208 13.21,12.971 11.68,24.952 -2.093,16.41 -11.7,31.821 -24.205,38.831 -5.315,2.979 -11.532,4.28 -17.485,3.66 z m 0.564,-16.51 c 0.718,-0.124 2.048,-0.488 2.955,-0.807 1.42,-0.5 1.868,-0.799 3.213,-2.138 1.781,-1.774 3.813,-4.746 5.396,-7.893 2.323,-4.618 3.304,-9 3.335,-14.887 0.027,-5.238 -0.536,-7.065 -2.647,-8.587 -1.234,-0.89 -3.112,-1.514 -5.048,-1.678 -1.737,-0.147 -6.417,0.448 -6.957,0.885 -0.257,0.207 -3.15,10.98 -5.74,21.366 -1.52,6.1 -2.466,11.19 -2.243,12.078 0.38,1.514 4.047,2.302 7.736,1.661 z"
       style="fill:#f9de81;fill-opacity:1;stroke:#f9de81;stroke-width:0.158139;stroke-opacity:1"
       transform="matrix(0.76044,0,0,0.76051,22.41,22.261)"
       id="path6" />
  </g>
</svg>
