<?xml version="1.0" encoding="UTF-8" standalone="no"?>
<svg
   viewBox="0 0 192 192"
   version="1.1"
   id="svg3"
   xml:space="preserve"
   width="192"
   height="192"
   sodipodi:docname="spreeder.svg"
   inkscape:version="1.3.2 (091e20ef0f, 2023-11-25)"
   xmlns:inkscape="http://www.inkscape.org/namespaces/inkscape"
   xmlns:sodipodi="http://sodipodi.sourceforge.net/DTD/sodipodi-0.dtd"
   xmlns="http://www.w3.org/2000/svg"
   xmlns:svg="http://www.w3.org/2000/svg"><sodipodi:namedview
     id="namedview1"
     pagecolor="#ffffff"
     bordercolor="#999999"
     borderopacity="1"
     inkscape:showpageshadow="2"
     inkscape:pageopacity="0"
     inkscape:pagecheckerboard="0"
     inkscape:deskcolor="#d1d1d1"
     inkscape:zoom="1.2291667"
     inkscape:cx="96"
     inkscape:cy="96"
     inkscape:window-width="912"
     inkscape:window-height="1007"
     inkscape:window-x="0"
     inkscape:window-y="0"
     inkscape:window-maximized="0"
     inkscape:current-layer="svg3" /><defs
     id="defs1"><style
       id="style1">.a{fill:none;stroke:#b1b5bd;stroke-linecap:round;stroke-linejoin:round;isolation:isolate;opacity:0.63;}</style></defs><rect
     class="a"
     x="20"
     y="20"
     width="152"
     height="152"
     rx="10"
     id="rect1"
     style="opacity:1;fill:#98dc9a;fill-opacity:1;stroke:none" /><style
     type="text/css"
     id="style1-2">
	.st0{fill:#2DAAE1;}
	.st1{fill:none;stroke:#2DAAE1;stroke-width:1.1435;}
</style><g
     id="g1"
     transform="matrix(2.5700935,0,0,2.5700935,-99.71262,58.733644)"
     style="fill:#ffffff"><path
       class="st0"
       d="m 63.2,2.6 v 1 c 3,0 8.5,0.6 11.5,4.6 v 16.2 c -3.3,-2.1 -7.1,-3.2 -11,-3.3 -0.9,0 -1.8,0.1 -2.7,0.2 V 3.7 c 0.5,0 1.2,-0.1 2.1,-0.1 l 0.1,-1 m 0,0 c -1,0 -2.1,0.1 -3.1,0.2 v 19.8 c 1.2,-0.3 2.5,-0.4 3.7,-0.4 4.3,0.1 8.6,1.6 12,4.2 V 7.9 C 72.6,3.4 66.8,2.6 63.2,2.6 Z"
       id="path1"
       style="fill:#ffffff" /><path
       class="st0"
       d="m 89,3.6 c 0.7,0 1.4,0 2.1,0.1 v 17.7 c -0.9,-0.1 -1.8,-0.2 -2.7,-0.2 -3.9,0.1 -7.7,1.2 -11,3.3 V 8.2 C 80.5,4.2 85.9,3.6 89,3.6 m 0,-1 c -3.6,0 -9.4,0.8 -12.5,5.3 v 18.5 c 3.4,-2.6 7.7,-4.1 12,-4.2 1.2,0 2.5,0.1 3.7,0.4 V 2.8 C 91.1,2.7 90.1,2.6 89,2.6 Z"
       id="path2"
       style="fill:#ffffff" /><polyline
       class="st0"
       points="90.8,5.4 80.2,11.8 83.6,15.4 77.7,22.2 88.4,15.8 85.2,12.4 "
       id="polyline10"
       style="fill:#9abeff;fill-opacity:1" /></g></svg>
