<?xml version="1.0" encoding="UTF-8" standalone="no"?>
<svg
   viewBox="0 0 192 192"
   version="1.1"
   id="svg13"
   sodipodi:docname="spriggy.svg"
   inkscape:version="1.2.2 (b0a8486541, 2022-12-01)"
   inkscape:export-filename="spriggy.png"
   inkscape:export-xdpi="96"
   inkscape:export-ydpi="96"
   xmlns:inkscape="http://www.inkscape.org/namespaces/inkscape"
   xmlns:sodipodi="http://sodipodi.sourceforge.net/DTD/sodipodi-0.dtd"
   xmlns="http://www.w3.org/2000/svg"
   xmlns:svg="http://www.w3.org/2000/svg">
  <sodipodi:namedview
     id="namedview15"
     pagecolor="#505050"
     bordercolor="#eeeeee"
     borderopacity="1"
     inkscape:showpageshadow="0"
     inkscape:pageopacity="0"
     inkscape:pagecheckerboard="0"
     inkscape:deskcolor="#d1d1d1"
     showgrid="false"
     inkscape:zoom="2.4583334"
     inkscape:cx="71.593218"
     inkscape:cy="99.457624"
     inkscape:window-width="1884"
     inkscape:window-height="1055"
     inkscape:window-x="36"
     inkscape:window-y="0"
     inkscape:window-maximized="1"
     inkscape:current-layer="svg13" />
  <defs
     id="defs5" />
  <rect
     width="152"
     height="152"
     x="-172"
     y="20"
     rx="10"
     style="isolation:isolate;fill:#8c72bd;fill-opacity:1;stroke:none;stroke-linecap:round;stroke-linejoin:round"
     transform="rotate(-90)"
     id="rect7" />
  <path
     d="m 126.05903,122.26699 a 0.4579978,0.4579978 0 0 1 0.42301,0.4474 l 0.16539,1.88076 c 0,0.28306 -0.21204,0.49404 -0.49404,0.49404 -1.43549,-0.0466 -3.17524,-0.61172 -4.65738,-1.52878 a 7.2092247,7.2092247 0 0 1 -1.36445,-1.03474 c -2.42251,0.0233 -3.71593,-0.98808 -4.3743,-1.88182 -1.12909,-1.52878 -1.24677,-3.83361 -0.28201,-6.16176 1.78747,-4.32766 2.39813,-6.70352 2.44584,-9.45575 0.0466,-3.05756 -0.61173,-5.927466 -2.11718,-9.313681 -1.92847,-4.281007 -4.91606,-8.303331 -9.17268,-12.277946 l -0.33608,-0.318054 c -0.85556,-0.808917 -1.79382,-1.695228 -2.6038,-2.692857 -3.692607,0.447396 -7.432922,0.447396 -11.078882,0.447396 -3.574927,0 -8.090234,-0.188712 -12.112557,-0.893732 l -0.09436,0.0933 c -3.551604,3.927967 -7.549543,8.703018 -9.973115,14.206413 -3.598251,8.139001 -2.868847,16.840961 1.929528,22.697391 4.374303,5.36345 10.936818,7.38628 13.546981,7.99694 7.973615,1.90514 18.134385,0 24.179535,-4.53863 l 0.79937,-0.63505 c 0.18871,-0.14206 0.4474,-0.14206 0.61173,0.0233 l 1.48213,1.34007 a 0.50040501,0.50040501 0 0 1 0.07,0.61173 c -1.38247,2.21365 -1.97512,4.13258 -2.4628,5.71331 l -0.0297,0.0965 c -0.75273,2.54019 -1.48213,4.91606 -5.12809,4.91606 h -3.78591 c -0.28307,0 -0.56507,-0.0233 -0.82376,-0.11768 a 2.7034593,2.7034593 0 0 1 -1.905145,-2.84659 l 0.141004,-1.62207 c -3.997939,0.72834 -8.137942,0.8227 -11.94823,0.18765 l 0.141004,1.43442 a 2.7034593,2.7034593 0 0 1 -1.905143,2.84659 2.3981274,2.3981274 0 0 1 -0.8227,0.11768 h -3.786963 c -3.612034,0 -4.347799,-2.38541 -5.12067,-4.89379 l -0.0074,-0.0223 -0.04241,-0.13676 c -0.485562,-1.57543 -1.080323,-3.50284 -2.47446,-5.71967 a 21.670081,21.670081 0 0 1 -2.916556,-2.93988 c -5.456747,-6.6802 -6.350478,-16.48792 -2.328155,-25.613948 2.375863,-5.386776 6.045147,-9.996439 9.502394,-13.877758 -0.752728,-0.210976 -1.482132,-0.446336 -2.163827,-0.70502 -3.221888,-1.270096 -5.974115,-3.574927 -7.385215,-6.162827 -0.94144,-1.740815 -1.317804,-3.621575 -1.200124,-5.879759 0.141004,-2.705579 1.317804,-5.904142 4.140003,-6.797874 1.88182,-0.611724 3.856936,0.07103 5.174739,0.729404 3.29292,1.646459 5.667723,4.068971 7.055499,7.174238 1.341128,2.986528 1.482132,5.856435 0.399688,8.325595 a 7.8845594,7.8845594 0 0 1 -0.799376,1.458807 c 2.846584,0.376364 6.232799,0.58734 10.043086,0.58734 3.081944,0 6.257183,0 9.361387,-0.282008 a 8.1241601,8.1241601 0 0 1 -0.75273,-2.634547 c -0.18765,-1.76414 0,-4.468659 0.84709,-6.302771 1.74082,-3.693667 4.09229,-6.162827 7.87926,-8.255622 1.29342,-0.70608 3.38728,-1.270096 4.89273,-0.964764 3.05756,0.611724 4.25663,3.974615 4.35097,6.680195 0.14101,3.551603 -1.0114,6.914494 -3.15191,9.24371 -1.62314,1.763079 -3.73926,2.963203 -6.70352,3.810287 a 42.199409,42.199409 0 0 1 -2.32815,0.564016 c 0.32866,0.329716 0.67958,0.658372 1.02943,0.988088 0.17494,0.164328 0.34987,0.328656 0.52268,0.494044 4.51636,4.256623 7.73824,8.560954 9.80772,13.195001 1.69417,3.786964 2.39919,7.008843 2.35254,10.513803 -0.0466,3.15085 -0.7294,5.7854 -2.65787,10.48942 -0.56401,1.36445 -0.5884,2.70558 -0.071,3.4106 l 0.14206,0.141 c -0.21203,-1.01141 -0.071,-2.06947 0.51737,-3.08088 0.77605,-1.29342 2.13944,-1.92847 3.59825,-1.69417 1.48213,0.25975 2.63455,1.36446 2.91656,2.82326 0.21203,1.05806 -0.0944,2.21048 -0.84709,3.22189 a 5.6412183,5.6412183 0 0 1 -0.9637,1.01141 c 0.98703,0.54069 1.99844,0.80044 2.70452,0.87041 m -17.61701,2.47022 c -1.9995,1.05806 -4.20998,1.90514 -6.53813,2.51581 l -0.18872,1.88182 a 0.47071996,0.47071996 0 0 0 0.47072,0.51736 h 3.17524 c 1.45775,0 1.64646,-0.32865 2.42252,-2.91655 l 0.0965,-0.30109 v -0.001 c 0.16327,-0.51419 0.34668,-1.08881 0.5619,-1.69629 m -24.085179,4.42095 -0.164328,-1.69311 a 30.204531,30.204531 0 0 1 -6.539191,-2.63454 54.938533,54.938533 0 0 1 0.611724,1.92846 c 0.776052,2.5879 0.964764,2.91656 2.422511,2.91656 h 3.199624 c 0.282008,0 0.492984,-0.2343 0.46966,-0.51737 M 79.417467,76.919907 c 0.541752,-0.659432 1.035796,-1.317804 1.341128,-2.046148 0.940379,-2.164888 0.305331,-4.493043 -0.399688,-6.045147 -1.129092,-2.516867 -3.05756,-4.468659 -5.763139,-5.833111 -0.870408,-0.424072 -1.693108,-0.658372 -2.374804,-0.658372 -0.258684,0 -0.494044,0.02332 -0.70608,0.0933 -1.341128,0.424072 -2.069471,2.446896 -2.163827,4.257683 -0.09436,1.76414 0.164328,3.080884 0.870407,4.374304 1.081384,1.999499 3.362892,3.881319 5.950791,4.892731 0.917056,0.376364 2.022824,0.681695 3.245212,0.964764 m 24.579213,-2.11718 c 0.11768,0.94038 0.4474,1.787464 0.94038,2.586839 1.20013,-0.210975 2.42357,-0.469659 3.57599,-0.846023 2.42251,-0.682756 4.13894,-1.623136 5.38571,-2.987588 1.62314,-1.76414 2.51687,-4.445335 2.42252,-7.220887 -0.0466,-1.740815 -0.72835,-3.739255 -2.06948,-3.997939 -0.11768,-0.02438 -0.23536,-0.02438 -0.37636,-0.02438 -0.75273,0 -1.8585,0.283068 -2.61122,0.70608 -3.26854,1.810788 -5.19807,3.833611 -6.67914,6.985527 -0.56507,1.223448 -0.75273,3.410599 -0.5884,4.798375 m 17.194,44.618745 c 0.30533,-0.16539 0.61067,-0.40075 0.84603,-0.72941 0.282,-0.35304 0.39968,-0.70608 0.32971,-1.01141 -0.071,-0.37636 -0.35304,-0.54069 -0.61172,-0.5884 h -0.14101 c -0.23536,0 -0.42301,0.11768 -0.56507,0.35304 -0.35198,0.61172 -0.2343,1.31674 0.14206,1.97618 m -29.636272,-2.3059 c -5.315743,-0.51736 -10.090794,-4.09229 -11.571865,-8.70195 -1.29342,-3.999 -0.02332,-8.772996 3.175239,-11.901587 2.422512,-2.35148 5.833111,-3.786963 9.408038,-3.927967 a 13.644518,13.644518 0 0 1 4.491983,0.540691 c 4.916057,1.435484 9.761077,5.998499 9.502397,11.924913 -0.14101,3.24627 -1.66979,6.30383 -4.30433,8.58533 -2.610167,2.25819 -6.068474,3.55161 -9.431366,3.55161 -0.423012,0 -0.847084,-0.0233 -1.270096,-0.071 m 1.552104,-21.709305 h -0.446336 c -2.869907,0.11768 -5.622135,1.246772 -7.550602,3.151915 -2.422512,2.37587 -3.4106,5.99744 -2.445836,9.00835 1.17574,3.57493 4.939379,6.35048 9.172678,6.77455 2.987588,0.28201 6.186151,-0.77711 8.562014,-2.82326 2.02282,-1.76414 3.19856,-4.09229 3.31624,-6.56145 0.14101,-3.4106 -2.37586,-7.597253 -7.479566,-9.102709 a 10.572116,10.572116 0 0 0 -3.128592,-0.447396 m -3.927967,12.700955 c 0.82376,0 1.505456,-1.50545 1.505456,-3.36289 0,-1.85849 -0.681696,-3.36395 -1.505456,-3.36395 -0.8227,0 -1.505456,1.50546 -1.505456,3.36395 0,1.85744 0.682756,3.36289 1.505456,3.36289 m 8.631986,-3.36289 c 0,1.85744 -0.681696,3.36289 -1.505456,3.36289 -0.822699,0 -1.504395,-1.50545 -1.504395,-3.36289 0,-1.85849 0.681696,-3.36395 1.504395,-3.36395 0.82376,0 1.505456,1.50546 1.505456,3.36395"
     style="fill:#ffffff;fill-opacity:1;fill-rule:evenodd;stroke:none;stroke-width:1.06018"
     id="path9"
     clip-path="none" />
</svg>
