<?xml version="1.0" encoding="UTF-8" standalone="no"?>
<svg
   viewBox="0 0 192 192"
   version="1.1"
   id="svg3"
   sodipodi:docname="square_point_of_sale.svg"
   xml:space="preserve"
   inkscape:version="1.2.2 (b0a8486541, 2022-12-01)"
   inkscape:export-filename="square_point_of_sale.png"
   inkscape:export-xdpi="202.28027"
   inkscape:export-ydpi="202.28027"
   xmlns:inkscape="http://www.inkscape.org/namespaces/inkscape"
   xmlns:sodipodi="http://sodipodi.sourceforge.net/DTD/sodipodi-0.dtd"
   xmlns="http://www.w3.org/2000/svg"
   xmlns:svg="http://www.w3.org/2000/svg"><sodipodi:namedview
     id="namedview3"
     pagecolor="#505050"
     bordercolor="#ffffff"
     borderopacity="1"
     inkscape:showpageshadow="0"
     inkscape:pageopacity="0"
     inkscape:pagecheckerboard="1"
     inkscape:deskcolor="#505050"
     inkscape:zoom="3.001521"
     inkscape:cx="34.6491"
     inkscape:cy="87.455661"
     inkscape:window-width="1884"
     inkscape:window-height="1055"
     inkscape:window-x="36"
     inkscape:window-y="0"
     inkscape:window-maximized="1"
     inkscape:current-layer="svg3"
     showgrid="false" /><defs
     id="defs1"><style
       id="style1">.a{fill:none;stroke:#b1b5bd;stroke-linecap:round;stroke-linejoin:round;isolation:isolate;opacity:0.63;}</style><style
       id="style235">.a{fill:none;stroke:#b1b5bd;stroke-linecap:round;stroke-linejoin:round;isolation:isolate;opacity:0.63;}</style></defs><g
     id="g883"
     transform="matrix(1.66811,0,0,1.66811,-64.13856,-64.13856)"><rect
       style="display:inline;fill:#56595b;fill-opacity:1;stroke:none;stroke-width:1.92;stroke-linecap:round;stroke-linejoin:round;stroke-miterlimit:8.7;paint-order:markers stroke fill"
       id="rect4"
       width="24.618404"
       height="24.618404"
       x="83.690796"
       y="83.690796"
       rx="2.5" /><path
       id="path7"
       style="baseline-shift:baseline;display:inline;overflow:visible;vector-effect:none;fill:#56595b;fill-opacity:1;stroke-linecap:round;stroke-linejoin:round;stroke-miterlimit:8.7;paint-order:markers stroke fill;enable-background:accumulate;stop-color:#000000"
       d="m 65.439453,50.439453 c -8.31,0 -15,6.69 -15,15 v 61.121097 c 0,8.31 6.69,15 15,15 h 61.121097 c 8.31,0 15,-6.69 15,-15 V 65.439453 c 0,-8.31 -6.69,-15 -15,-15 z m 8.730469,16.230469 h 43.660158 c 4.155,0 7.5,3.345 7.5,7.5 v 43.660158 c 0,4.155 -3.345,7.5 -7.5,7.5 H 74.169922 c -4.155,0 -7.5,-3.345 -7.5,-7.5 V 74.169922 c 0,-4.155 3.345,-7.5 7.5,-7.5 z" /></g></svg>
