<?xml version="1.0" encoding="UTF-8"?>
<svg version="1.1" viewBox="0 0 192 192" xml:space="preserve" xmlns="http://www.w3.org/2000/svg">
	 <circle class="a" cx="96" cy="96" r="88" fill="#fff"/><path d="m88.338 49.431c2.4891 0.26505 4.9831 0.74689 7.3381 1.5952 1.5591 0.56161 3.0625 1.3277 4.4156 2.2844 1.9241 1.3605 3.6195 3.0499 5.1558 4.8368 1.0808 1.2571 2.0844 2.6111 2.8204 4.0966 1.0714 2.1625 2.1375 4.4688 2.257 6.8791 0.32235 6.5013-0.0704 12.872-4.2223 19.066l-3.6116 3.8286c-1.089 1.1571-0.8508 1.8675 0.71466 2.1312l5.2324 0.9061c5.4366 1.1401 12.303 3.5393 20.598 7.1977 5.5302 2.4418 10.575 1.5825 15.136-2.5779 0.26126-0.24781 0.58722-0.32788 0.72744-0.17866l0.15314 0.15315c0.10859 0.1167 0.12869 0.31208 0.0511 0.49772-0.55302 1.4719-0.74871 2.965-0.58705 4.4794-2.9182 9.648-5.3856 16.237-7.4019 19.768-5.7429 10.056-13.872 17.918-26.124 17.905-8.2953-0.017-16.591 9e-3 -24.886 0.0766-10.712 1.089-21.347-2.419-25.792-10.58-5.6231-10.325-3.9392-24.669 6.4576-34.674 0.8593-2.8076 0.82527-5.3515-0.1021-7.6317-0.18844-0.45942-0.61919-0.77134-1.1103-0.804-6.4576-0.36584-11.845-3.5552-15.774-7.9379-1.6973-1.8933-2.6673-7.1467-2.6673-7.1467-0.65511-1.7526-0.10635-2.3014 1.6463-1.6463 3.9392 1.4889 7.9294 1.6208 11.971 0.39562 0.47463-0.14743 0.82221-0.5546 0.89334-1.0465 1.1996-8.6186 5.9262-14.898 12.02-19.499 2.3147-1.7476 5.5015-1.9626 8.3742-2.3628 2.0854-0.29058 4.223-0.23488 6.3168-0.01193z" fill="#f9de81" stroke-width="1.2762"/><circle cx="79.001" cy="70.892" r="7.8961" fill="#fff" fill-opacity=".99792"/></svg>
