<?xml version="1.0" encoding="UTF-8"?>
<svg version="1.1" viewBox="0 0 192 192" xmlns="http://www.w3.org/2000/svg">
 <circle class="a" cx="96" cy="96" r="88" style="fill:#96dfd3"/>
 <g transform="matrix(.28598 0 0 .28598 9.6717 14.169)" stroke="#000" stroke-width="3">
  <g fill="#fff">
   <path d="m367.65 327.81c0 35.33-29.24 64.01-65.25 64.01-36.02 0-65.26-28.68-65.26-64.01 0-35.32 29.24-64 65.26-64 36.01 0 65.25 28.68 65.25 64z" style="fill:#fff;stroke:#56595b"/>
   <path d="m282.38 186.41c0 16.4-13.15 29.72-29.35 29.72s-29.35-13.32-29.35-29.72 13.15-29.72 29.35-29.72 29.35 13.32 29.35 29.72z" style="fill:#fff;stroke:#56595b"/>
   <path d="m378.23 186.41c0 16.4-13.15 29.72-29.35 29.72s-29.36-13.32-29.36-29.72 13.16-29.72 29.36-29.72 29.35 13.32 29.35 29.72z" style="fill:#fff;stroke:#56595b"/>
   <path d="m368.04 233.23c0 37.61-30.06 68.14-67.09 68.14-37.02 0-67.08-30.53-67.08-68.14 0-37.6 30.06-68.14 67.08-68.14 37.03 0 67.09 30.54 67.09 68.14z" style="fill:#fff;stroke:#56595b"/>
   <path d="m328.94 242.53c0 14.03-12.18 25.42-27.19 25.42-15 0-27.18-11.39-27.18-25.42s12.18-25.42 27.18-25.42c15.01 0 27.19 11.39 27.19 25.42z" style="fill:#fff;stroke:#56595b"/>
   <path d="m274.57 213.19c0 4.29-3.21 7.77-7.17 7.77s-7.17-3.48-7.17-7.77c0-4.28 3.21-7.77 7.17-7.77s7.17 3.49 7.17 7.77z" style="fill:#fff;stroke:#56595b"/>
   <path d="m343.28 213.17c0.01 4.28-3.19 7.78-7.14 7.79-3.96 0.01-7.18-3.46-7.2-7.74-0.01-4.29 3.19-7.78 7.14-7.79 3.96-0.02 7.18 3.45 7.2 7.74z" style="fill:#fff;stroke:#56595b"/>
  </g>
  <path d="m301.11 279.28-3.72 3.72m8.53-0.28-3.73-3.44m-1.24-11.57 0.69 13.29" fill="#000000FF" fill-opacity="0" style="stroke:#56595b"/>
  <g fill="#fff">
   <path d="m267.4 322.74c0 14.03-11.76 25.42-26.23 25.42-14.48 0-26.24-11.39-26.24-25.42s11.76-25.42 26.24-25.42c14.47 0 26.23 11.39 26.23 25.42z" style="fill:#fff;stroke:#56595b"/>
   <path d="m388.81 322.74c0 14.03-11.8 25.42-26.35 25.42-14.54 0-26.35-11.39-26.35-25.42s11.81-25.42 26.35-25.42c14.55 0 26.35 11.39 26.35 25.42z" style="fill:#fff;stroke:#56595b"/>
   <path d="m291.84 391.82c0-13.13-13.11-23.78-29.25-23.78-16.15 0-29.26 10.65-29.26 23.78 0 13.12 13.11 23.78 29.26 23.78 16.14 0 29.25-10.66 29.25-23.78z" style="fill:#fff;stroke:#56595b"/>
   <path d="m370.94 391.82c0 13.12-13.11 23.78-29.26 23.78s-29.26-10.66-29.26-23.78c0-13.13 13.11-23.78 29.26-23.78s29.26 10.65 29.26 23.78z" style="fill:#fff;stroke:#56595b"/>
  </g>
 </g>
</svg>
