<?xml version="1.0" encoding="UTF-8"?>
<svg version="1.1" viewBox="0 0 192 192" xmlns="http://www.w3.org/2000/svg">
 <rect class="a" x="20" y="20" width="152" height="152" rx="10" style="fill:#9abeff"/>
 <path transform="matrix(.32433 0 0 .32433 203.21 40.657)" d="m-318.45 59.186 29.46 59.693 65.875 9.5722a12.338 12.338 72 0 1 6.838 21.045l-47.668 46.464 11.253 65.609a12.338 12.338 144 0 1-17.902 13.007l-58.92-30.976-58.92 30.976a12.338 12.338 36 0 1-17.902-13.007l11.253-65.609-47.668-46.464a12.338 12.338 108 0 1 6.838-21.045l65.875-9.5722 29.46-59.693a12.338 12.338 2.1519e-6 0 1 22.128 1e-6z" style="fill:#fff;stroke-linecap:round;stroke-linejoin:round;stroke-width:2"/>
 <path d="m66.099 97.334s6.5968-4.6754 9.5682-6.7608c2.9201-2.0494 5.5634 1.028 2.521 3.2085-1.1216 0.80385-2.3944 1.4747-3.4377 2.4064-1.9263 1.7202 1.3965 5.3433 3.3231 3.6668 3.3284-2.8962 7.9982-6.2698 10.485-8.0785 2.8123-2.0455 5.5372 0.64022 2.6356 2.8647-3.4778 2.6662-8.4814 6.5189-12.834 9.6255-3.6262 2.5882 0.23763 6.2676 3.1512 3.7242 1.2-1.0476 2.5184-1.9513 3.7814-2.922 2.279-1.7515 4.6102 0.91763 2.4637 2.7502-3.7039 3.162-7.9835 5.6048-11.688 8.7661-2.8935 2.4692 0.90884 5.7153 3.0939 3.9533 4.1123-3.3159 9.2374-6.9558 12.719-9.4536 2.9035-2.0828 5.4501 0.75736 2.3491 3.0366-6.2182 4.5704-18.793 13.522-18.793 13.522 0.52109 1.6924 2.1543 1.5884 4.0679 1.0313l16.836-9.0118 1.0411 16.255-26.982 6.2391-19.041-23.66 0.97232-18.555 1.2964-9.3181z" style="fill:#9abeff;stroke-linecap:round;stroke-linejoin:round;stroke-width:.91671"/>
 <circle cx="81.353" cy="88.697" r="2.0769" style="fill:#9abeff"/>
 <circle cx="90.578" cy="103.14" r="2.0769" style="fill:#9abeff"/>
</svg>
