<svg xmlns="http://www.w3.org/2000/svg" width="192" height="192"><defs><linearGradient id="a" x1="164" x2="164" y1="80" y2="172" gradientUnits="userSpaceOnUse"><stop offset="0" style="stop-color:#54688c"/><stop offset="1" style="stop-color:#d3b69a"/></linearGradient></defs><path d="M29.936 20a9.914 9.914 0 0 0-9.935 9.935V96l4 40 68 24 60 8 20-13.885V29.934A9.914 9.914 0 0 0 162.064 20H29.935z" style="fill:url(#a)"/><path d="M160 132c-45.296 0-117.86 30.333-135.83 38.158A9.899 9.899 0 0 0 29.936 172h132.13a9.915 9.915 0 0 0 9.935-9.936v-28.25c-2.521-.934-6.372-1.814-12-1.814z" style="fill:#54688c"/><path d="M20 93.656v68.408a9.91 9.91 0 0 0 8.826 9.871l136.31-.422a9.911 9.911 0 0 0 6.86-9.449v-7.95l-15.314 5.07c-7.506 1.609-18.355 1.316-29.117-.788-11.378-2.224-14.945-3.484-14.945-5.281 0-.734-1.101-1.837-2.446-2.45-1.789-.814-2.445-1.872-2.445-3.947 0-3.67-2.173-5.393-6.955-5.513-3.16-.08-4.232-.65-6.022-3.211-2.598-3.717-7.035-4.375-8.045-1.194-.633 1.996-3.421 2.772-3.421.954 0-.552-1.027-1.393-2.28-1.87-2.014-.765-3.815-4.184-6.084-11.55-.535-1.738-2.392-1.518-2.392.283 0 3.16-3.842 9.02-6.32 9.642-3.222.809-7.198-1.76-7.989-5.158-2.564-11.022-6.337-16.909-6.97-10.879-.437 4.155-2.223 9.777-3.106 9.777-.462 0-1.08-1.87-1.371-4.156-2.124-16.655-3.966-20.065-6.965-12.889-1.224 2.93-1.877 3.44-4.07 3.178-2.972-.354-3.93-1.734-4.739-6.817-.609-3.832-2.86-5.466-5.039-3.658-2.112 1.753-4.275-.735-4.275-4.916 0-2.563-.515-4.193-1.69-5.086z" style="fill:#56595b;stroke-width:.97778"/><circle cx="130" cy="74" r="26" style="fill:#728dbe;opacity:.25;paint-order:stroke fill markers"/><path d="M133.67 48.293A26 26 0 0 1 144 69a26 26 0 0 1-26 26 26 26 0 0 1-3.67-.293A26 26 0 0 0 130 100a26 26 0 0 0 26-26 26 26 0 0 0-22.33-25.707z" style="fill:#fff;paint-order:stroke fill markers"/><path d="M62 44a2 2 0 0 0-2 2 2 2 0 0 0 2 2 2 2 0 0 0 2-2 2 2 0 0 0-2-2zm-14 4a4 4 0 0 0-4 4 4 4 0 0 0 4 4 4 4 0 0 0 4-4 4 4 0 0 0-4-4zm22 0a2 2 0 0 0-2 2 2 2 0 0 0 2 2 2 2 0 0 0 2-2 2 2 0 0 0-2-2zm0 20a2 2 0 0 0-2 2 2 2 0 0 0 2 2 2 2 0 0 0 2-2 2 2 0 0 0-2-2zm-4 4a2 2 0 0 0-2 2 2 2 0 0 0 2 2 2 2 0 0 0 2-2 2 2 0 0 0-2-2zm-4 4a2 2 0 0 0-2 2 2 2 0 0 0 2 2 2 2 0 0 0 2-2 2 2 0 0 0-2-2zm22 12a4 4 0 0 0-4 4 4 4 0 0 0 4 4 4 4 0 0 0 4-4 4 4 0 0 0-4-4zm-22 12a2 2 0 0 0-2 2 2 2 0 0 0 2 2 2 2 0 0 0 2-2 2 2 0 0 0-2-2z" style="fill:#fff;opacity:.25;paint-order:stroke fill markers"/></svg>