<?xml version="1.0" encoding="UTF-8"?><svg id="a" xmlns="http://www.w3.org/2000/svg" width="192" height="192" viewBox="0 0 192 192"><g id="b"><g id="c"><rect x="20" y="20" width="152" height="152" rx="10" ry="10" style="fill:#98dc9a;"/><path d="m120.71,81.83v-20.33c0-1.1-.9-2-2-2h-20.71c-1.1,0-2,.9-2,2v7.22c0,1.67-1.38,3.03-3.08,3.03h-19.63c-1.1,0-2,.9-2,2v20.25c0,1.1.9,2,2,2h19.63c1.7,0,3.08,1.36,3.08,3.03v6.11c0,1.67-1.38,3.03-3.08,3.03h-19.63c-1.1,0-2,.9-2,2v20.33c0,1.1.9,2,2,2h20.71c1.1,0,2-.9,2-2v-7.14c0-1.67,1.38-3.03,3.08-3.03h19.63c1.1,0,2-.9,2-2v-20.33c0-1.1-.9-2-2-2h-19.63c-1.7,0-3.08-1.36-3.08-3.03v-6.11c0-1.67,1.38-3.03,3.08-3.03h19.63c1.1,0,2-.9,2-2Z" style="fill:#71a372;"/></g></g></svg>