<?xml version="1.0" encoding="UTF-8"?>
<svg version="1.1" viewBox="0 0 192 192" xmlns="http://www.w3.org/2000/svg">
 <circle class="a" cx="96" cy="96" r="88" style="fill:#56595b"/>
 <g transform="matrix(.40196 0 0 .40196 32.208 27.868)">
  <path d="m145 275c-28-66-43-91-92-101 36-11 45-1 85 42 26-79 35-119 118-126l-17-6 9-13 34 23-29 38-7-11 7-15s-99-7-108 169z" fill="#50554b" style="fill:#83868c"/>
  <path d="m56 173c26-12 54-2 79 34 20-129 119-121 119-121l-17-9 4-13 38 25-27 37-9-13 13-15s-108-10-115 156c-26-91-85-81-85-81z" fill="#00bd70" style="fill:#98dc9a"/>
 </g>
</svg>
