<?xml version="1.0" encoding="UTF-8"?>
<svg version="1.1" viewBox="0 0 192 192" xmlns="http://www.w3.org/2000/svg">
 <defs>
  <clipPath id="clipPath3">
   <circle class="a" cx="96" cy="96" r="88" style="fill:#9abeff"/>
  </clipPath>
 </defs>
 <circle class="a" cx="96" cy="96" r="88" style="fill:#9abeff"/>
 <path d="m45.256 171.58c3.9709-14.905 10.945-28.685 19.753-41.776-9.4162-19.324-13.363-41.222-12.487-65.389 14.307 4.3027 33.948 33.573 33.375 60.848 5.6638-2.3567 11.667-2.334 17.936-0.45408-0.5533-20.511 1.4844-42.464 8.1736-60.621 15.974 15.878 17.507 44.403 16.12 66.07 11.354 17.255 15.993 34.511 22.931 51.766l-106.48 4.5409z" clip-path="url(#clipPath3)" style="fill:#ccc;stroke-linejoin:round;stroke-width:1.2844;stroke:#56595b"/>
 <ellipse cx="75.779" cy="145.2" rx="2.8917" ry="4.6788" style="fill:#56595b"/>
 <ellipse cx="111.31" cy="145.2" rx="2.8917" ry="4.6788" style="fill:#56595b"/>
 <path d="m101.22 154.78a5.222 5.222 0 0 1-2.611 4.5224 5.222 5.222 0 0 1-5.222 0 5.222 5.222 0 0 1-2.611-4.5224" style="fill:none;stroke-linecap:round;stroke-linejoin:round;stroke-width:2.5687;stroke:#56595b"/>
</svg>
