<svg xmlns="http://www.w3.org/2000/svg" width="192" height="192"><path d="M24 76c-4.216 0-4 8-4 12 0 1.886 4 4 4 4 2.813-4 8.484 3.09 10.781 1.09 2.297-2 1.22-13.09 1.22-13.09s-4-4-12-4zm0 52c-4 8-8 8-8 12 0 4.807-4 12 8 12 8 0 16-8 16-8s-.467-13.432-3.74-16.213c-3.272-2.781-9.349 5.09-12.26.213z" style="fill:#c39a54"/><circle cx="96" cy="96" r="36.5" opacity=".63" style="fill:none;stroke-width:1.0002;stroke:#b1b5bd"/><path d="M48 72V28s0-8 8-8c4.807 0 11.522 3.216 12 8 4 40 4 44 4 44z" style="fill:#98dc9a"/><path d="M92 48c-24 0-18.293 8-28 8-8 0-16 0-16 4v12l-12 8s-6.374 4-12 12c-8 8-8 12-8 12s-8 0-8 8c0 4 8 4 8 4s4 8 8 12c5.822 9.752 16 16 16 16s32 16 76 16c26.998 0 68-16 68-44 0-32-28-40-28-40v-4h-20V60c0-4-24-4-24-4s-12.82-8-20-8z" style="fill:#f9de81"/><path d="M92 48c-1.385 0-2.646.032-3.842.082 3.8 3.946-4.014 9.412-4.014 9.412l24.018-1.289c.841 1.022 5.88 8.634-20.162 19.795 32 0 48-4 48-4V60c0-4-24-4-24-4s-12.82-8-20-8zm9.56 14.531a1.889 1.889 0 0 0-1.888 1.889 1.889 1.889 0 0 0 1.889 1.888 1.889 1.889 0 0 0 1.888-1.888 1.889 1.889 0 0 0-1.888-1.889zm-17.835.42a1.889 1.889 0 0 0-1.89 1.887 1.889 1.889 0 0 0 1.89 1.888 1.889 1.889 0 0 0 1.888-1.888 1.889 1.889 0 0 0-1.888-1.887zm8.814 0a1.889 1.889 0 0 0-1.889 1.887 1.889 1.889 0 0 0 1.89 1.888 1.889 1.889 0 0 0 1.886-1.888 1.889 1.889 0 0 0-1.887-1.887zm-18.047.418a1.889 1.889 0 0 0-1.889 1.889 1.889 1.889 0 0 0 1.89 1.888 1.889 1.889 0 0 0 1.888-1.888 1.889 1.889 0 0 0-1.889-1.89z" style="fill:#c39a54"/><path d="M30.922 103.17a4.83 10.176 0 0 0-4.83 10.176 4.83 10.176 0 0 0 4.83 10.176 4.83 10.176 0 0 0 4.828-10.176 4.83 10.176 0 0 0-4.828-10.176zm22.752 2.285a6.761 11.205 0 0 0-6.762 11.205 6.761 11.205 0 0 0 6.762 11.205 6.761 11.205 0 0 0 6.762-11.205 6.761 11.205 0 0 0-6.762-11.205zm28.098.387a10.526 13.077 0 0 0-10.527 13.078 10.526 13.077 0 0 0 10.527 13.076 10.526 13.077 0 0 0 10.525-13.076 10.526 13.077 0 0 0-10.525-13.078z" style="fill:#c39a54;paint-order:stroke fill markers;stroke-width:1.071"/><ellipse cx="82" cy="120" rx="10" ry="12" style="fill:#fff;paint-order:stroke fill markers"/><ellipse cx="54.243" cy="117.93" rx="6.61" ry="10.282" style="fill:#fff;paint-order:stroke fill markers"/><path d="M151.31 92.365a1 1 0 0 0-.81 1.623s1.53 1.967 3.064 5.957c1.472 3.83 2.893 9.483 2.816 16.832-17.545 1.152-51.242.78-51.242.78a1 1 0 1 0-.021 2s33.39.378 51.193-.772c-.728 12.364-7.624 19.016-7.778 19.162-25.847 8.428-61.896 14.443-100.16 3.012-19.146-5.72-19.557-22.094-32.346-28.785-3.506.086-6.575-1.115-7.904-1.729-.073.484-.121.995-.121 1.555 0 4 8 4 8 4s4 8 8 12c5.822 9.751 16 16 16 16s32 16 76 16c24.672 0 61.032-13.364 67.115-37.035-5.739 3.223-16.615 8.792-31.027 13.787 2.347-3.246 5.781-9.38 6.234-18.125 11.253-1.01 21.051-5.871 25.367-8.315a45.99 45.99 0 0 0-.302-2.14c-3.63 2.12-13.546 7.35-25.008 8.44.052-7.529-1.408-13.38-2.948-17.384-1.617-4.206-3.347-6.463-3.347-6.463a1 1 0 0 0-.774-.4zm28.365 8.95a1.775 1.315 71.475 0 0-.258.05 1.775 1.315 71.475 0 0-.683 2.1 1.775 1.315 71.475 0 0 1.81 1.265 1.775 1.315 71.475 0 0 .684-2.1 1.775 1.315 71.475 0 0-1.553-1.316zm-7.451 2.796a1.929 1.929 0 1 0 .002 3.858 1.929 1.929 0 0 0-.002-3.858zm-9.455 3.314a1.929 1.929 0 1 0-.002 3.858 1.929 1.929 0 0 0 .002-3.858zm-47.48 1.186a1.929 1.929 0 1 0-.002 3.858 1.929 1.929 0 0 0 .002-3.858zm11.277.594a1.929 1.929 0 1 0-.002 3.858 1.929 1.929 0 0 0 .002-3.858zm11.572 0a1.929 1.929 0 1 0 .002 3.857 1.929 1.929 0 0 0-.002-3.857zm10.09 0a1.929 1.929 0 1 0 .002 3.857 1.929 1.929 0 0 0-.002-3.857zm-125.29 20.719zm-.807 1.277zm17.232 13.387c-.095.087-.215.19-.332.295.154-.136.214-.187.332-.295zm-.926.813z" style="fill:#c39a54"/><ellipse cx="32" cy="114.88" rx="4.721" ry="9.338" style="fill:#fff;paint-order:stroke fill markers"/><path d="M120.87 60.852a1.888 1.888 0 1 0 .004 3.777 1.888 1.888 0 0 0-.004-3.777zm-9.652 1.049a1.889 1.889 0 1 0 0 3.777 1.889 1.889 0 0 0 0-3.777z" style="opacity:.25;paint-order:stroke fill markers;stroke-linecap:round;stroke-linejoin:round;stroke-width:2"/></svg>