<?xml version="1.0" encoding="UTF-8" standalone="no"?>
<svg
   version="1.1"
   viewBox="0 0 192 192"
   xml:space="preserve"
   id="svg14"
   sodipodi:docname="subtune.svg"
   inkscape:version="1.2.2 (b0a8486541, 2022-12-01)"
   inkscape:export-filename="subtune.png"
   inkscape:export-xdpi="96"
   inkscape:export-ydpi="96"
   xmlns:inkscape="http://www.inkscape.org/namespaces/inkscape"
   xmlns:sodipodi="http://sodipodi.sourceforge.net/DTD/sodipodi-0.dtd"
   xmlns="http://www.w3.org/2000/svg"
   xmlns:svg="http://www.w3.org/2000/svg"><defs
   id="defs18" /><sodipodi:namedview
   id="namedview16"
   pagecolor="#505050"
   bordercolor="#eeeeee"
   borderopacity="1"
   inkscape:showpageshadow="0"
   inkscape:pageopacity="0"
   inkscape:pagecheckerboard="0"
   inkscape:deskcolor="#d1d1d1"
   showgrid="false"
   inkscape:zoom="1.7383042"
   inkscape:cx="18.408746"
   inkscape:cy="81.976447"
   inkscape:window-width="1884"
   inkscape:window-height="1055"
   inkscape:window-x="36"
   inkscape:window-y="0"
   inkscape:window-maximized="1"
   inkscape:current-layer="svg14" />
	 <rect
   class="a"
   x="20"
   y="20"
   width="152"
   height="152"
   rx="10"
   fill="#728dbe"
   id="rect2" /><path
   d="m 96.864821,111.5519 a 6.1446296,6.1446296 0 0 1 -1.003225,8.63159 6.1446296,6.1446296 0 0 1 -8.631591,-1.00264 6.1446296,6.1446296 0 0 1 1.001979,-8.63159 6.1446296,6.1446296 0 0 1 8.631591,1.00139"
   fill="#ffffff"
   stroke-linecap="round"
   stroke-linejoin="round"
   stroke-width="1.92038"
   id="path4" /><path
   d="M 98.191544,115.36509 V 99.961144 l 4.563026,4.563026 c 0.94948,2.6213 0.84123,4.75776 -0.382,6.38323 0.0993,1.7406 1.29075,2.23308 2.64057,2.54453 2.8294,-1.19837 3.75736,-4.47937 2.78454,-9.84201 0,0 -7.11844,-7.838545 -10.082095,-10.802363 -0.906192,-0.906192 -3.696797,-0.225343 -3.696797,1.056228 V 110.955 Z"
   fill="#ffffff"
   stroke-linecap="round"
   stroke-linejoin="round"
   stroke-width="1.92038"
   id="path6" /><path
   d="M 75.570793,96.988687 H 64.156989 C 61.961707,96.988687 59.5,99.45031 59.5,101.64568 v 18.38803 c 0,2.84036 3.184883,6.02525 6.02525,6.02525 h 9.194015 c 0.889577,0 2.311173,-0.44479 2.311173,-1.33437 V 98.684433 c 0,-0.745731 -0.713938,-1.695414 -1.459645,-1.695414 z"
   fill="#ffffff"
   stroke-linecap="round"
   stroke-linejoin="round"
   stroke-width="1.92038"
   id="path8" /><path
   d="m 116.42921,96.988687 h 11.4138 c 2.19528,0 4.65699,2.461623 4.65699,4.656993 v 18.38803 c 0,2.84036 -3.18497,6.02525 -6.02525,6.02525 h -9.19401 c -0.88958,0 -2.31118,-0.44479 -2.31118,-1.33437 V 98.684433 c 0,-0.745731 0.71394,-1.695414 1.45965,-1.695414 z"
   fill="#ffffff"
   stroke-linecap="round"
   stroke-linejoin="round"
   stroke-width="1.92038"
   id="path10" /><path
   d="M 67.251568,96.988687 A 29.127259,29.127259 0 0 1 96.378827,67.861428 29.127259,29.127259 0 0 1 125.50609,96.988687"
   fill="none"
   stroke="#ffffff"
   stroke-linecap="round"
   stroke-linejoin="round"
   stroke-width="3.84077"
   id="path12" /></svg>
