<svg xmlns="http://www.w3.org/2000/svg" width="192" height="192"><g transform="translate(0 -860.362)"><rect width="152" height="152" x="20" y="880.362" rx="9.935" style="fill:#98db9a;fill-opacity:1;fill-rule:evenodd;stroke:none;stroke-width:.993464"/><path d="M79.172 963.967h18.473s1.652-.029 1.652-1.417c0-1.23-1.719-1.953-1.719-1.953l-7.108-3.593s-5.848-2.277-5.848-8.214c0-9.406 10.501-8.827 10.501-8.827h11.46v5.094a.968.968 0 0 0 1.587.746l13.94-11.548a1.706 1.706 0 0 0 0-2.628l-13.936-11.542a.969.969 0 0 0-1.586.746v5.094H91.63s-11.353.39-17.884 6.921c-3.744 3.744-5.997 8.44-5.997 14.709 0 3.653 1.104 7.273 2.901 10.386 1.32 2.284 3.292 3.951 4.71 4.945.931.653 2.674 1.081 3.812 1.081z" style="fill:#fefefe;fill-opacity:1;stroke:none;stroke-width:1.00368"/><path d="M112.323 948.757H93.85s-1.652.03-1.652 1.417c0 1.23 1.719 1.953 1.719 1.953l7.108 3.594s5.848 2.276 5.848 8.213c0 9.406-10.501 8.827-10.501 8.827h-11.46v-5.093a.968.968 0 0 0-1.587-.746l-13.94 11.547a1.706 1.706 0 0 0 0 2.628l13.936 11.543a.969.969 0 0 0 1.586-.746V986.8h14.958s11.369.162 18.326-6.796c3.744-3.744 6.06-9.07 6.06-15.34 0-3.653-1.104-6.2-2.901-9.313-1.384-2.395-3.674-4.324-5.25-5.462-.92-.666-2.639-1.132-3.777-1.132z" style="fill:#f8dd81;fill-opacity:1;stroke:none;stroke-width:1.00368"/></g></svg>