<?xml version="1.0" encoding="UTF-8" standalone="no"?>
<svg
   xml:space="preserve"
   id="Layer_1"
   x="0"
   y="0"
   style="enable-background:new 0 0 192 192"
   version="1.1"
   viewBox="0 0 192 192"
   sodipodi:docname="sunnytrack.svg"
   inkscape:version="1.2.2 (b0a8486541, 2022-12-01)"
   inkscape:export-filename="sunnytrack.png"
   inkscape:export-xdpi="96"
   inkscape:export-ydpi="96"
   xmlns:inkscape="http://www.inkscape.org/namespaces/inkscape"
   xmlns:sodipodi="http://sodipodi.sourceforge.net/DTD/sodipodi-0.dtd"
   xmlns="http://www.w3.org/2000/svg"
   xmlns:svg="http://www.w3.org/2000/svg"><defs
     id="defs13" /><sodipodi:namedview
     id="namedview11"
     pagecolor="#505050"
     bordercolor="#eeeeee"
     borderopacity="1"
     inkscape:showpageshadow="0"
     inkscape:pageopacity="0"
     inkscape:pagecheckerboard="0"
     inkscape:deskcolor="#d1d1d1"
     showgrid="false"
     inkscape:zoom="1.7383042"
     inkscape:cx="84.565177"
     inkscape:cy="100.38519"
     inkscape:window-width="1884"
     inkscape:window-height="1055"
     inkscape:window-x="36"
     inkscape:window-y="0"
     inkscape:window-maximized="1"
     inkscape:current-layer="Layer_1" /><style
     id="style2">.st1{fill:#f9de81}</style><rect
     style="fill:#ffffff;fill-opacity:1;stroke-width:3.413;stroke-linecap:round;stroke-linejoin:round;paint-order:stroke fill markers"
     id="rect915"
     width="152"
     height="152"
     x="20"
     y="20"
     rx="10" /><circle
     cx="96.037979"
     cy="96"
     r="20.533957"
     class="st1"
     id="circle6"
     style="stroke-width:0.593467" /><path
     d="m 91.94306,59.50178 h 8.07115 v 11.988033 h -8.07115 z m 0,61.00841 h 8.07115 v 11.98803 H 91.94306 Z M 132.5,91.924662 v 8.071151 h -11.98803 v -8.071151 z m -61.011967,0.0036 v 8.071151 H 59.5 v -8.071151 z m 53.101057,26.989688 -5.70738,5.70738 -8.47649,-8.47649 5.70678,-5.70737 z m -43.138527,-43.141486 -5.706778,5.706779 -8.477083,-8.476489 5.707372,-5.707372 z m 37.565277,-8.46462 5.70737,5.707372 -8.47649,8.47649 -5.70737,-5.706779 z m -43.145647,43.142086 5.707372,5.70737 -8.477082,8.47649 -5.706779,-5.70678 z"
     class="st1"
     id="path8"
     style="stroke-width:0.593467" /></svg>
