<?xml version="1.0" encoding="UTF-8"?>
<svg version="1.1" viewBox="0 0 192 192" xmlns="http://www.w3.org/2000/svg">
 <circle class="a" cx="96" cy="96" r="88" style="fill:#8c72bd"/>
 <g transform="matrix(.14726 0 0 .14726 58.3 58.3)" fill="#fff" stroke="#00000000">
  <path d="m395.64 302.54h-58.182v-58.182c0-6.982-4.655-11.636-11.636-11.636h-23.273l20.945-27.927c3.491-4.655 2.327-12.8-2.327-16.291s-12.8-2.327-16.291 2.327l-34.909 46.545c-2.327 3.491-3.491 8.145-1.164 11.636s5.819 6.983 10.474 6.983h34.909v46.545h-116.36v-93.091h46.545l-20.945 27.927c-3.491 4.655-2.327 12.8 2.327 16.291s12.8 2.327 16.291-2.327l34.909-46.545c2.327-3.491 3.491-8.145 1.164-11.636s-5.818-6.982-10.473-6.982h-81.455c-6.982 0-11.636 4.655-11.636 11.636v104.73c-6.982 0-11.636 4.655-11.636 11.636s4.655 11.636 11.636 11.636h221.09c6.982 0 11.636 4.655 11.636 11.636 0 6.982-4.655 11.636-11.636 11.636h-279.27c-6.982 0-11.636-4.655-11.636-11.636 0-6.982 4.655-11.636 11.636-11.636h11.636c11.636 0 11.636-10.473 11.636-18.618v-167.56c0-64 52.364-116.36 116.36-116.36s116.36 52.364 116.36 116.36v128c0 6.982 4.655 11.636 11.636 11.636s11.636-4.655 11.636-11.636v-128c0-76.8-62.836-139.64-139.64-139.64s-139.64 62.836-139.64 139.64v162.91c-19.782 0-34.909 15.127-34.909 34.909s15.127 34.909 34.909 34.909h279.27c19.782 0 34.909-15.127 34.909-34.909-1e-3 -19.781-15.128-34.909-34.91-34.909"/>
  <path d="m186.18 395.64c-6.982 0-11.636 4.655-11.636 11.636v93.091c0 6.982 4.655 11.636 11.636 11.636s11.636-4.655 11.636-11.636v-93.091c0-6.981-4.654-11.636-11.636-11.636z"/>
  <path d="m325.82 395.64c-6.982 0-11.636 4.655-11.636 11.636v93.091c0 6.982 4.655 11.636 11.636 11.636s11.636-4.655 11.636-11.636v-93.091c1e-3 -6.981-4.654-11.636-11.636-11.636z"/>
 </g>
</svg>
