<svg xmlns="http://www.w3.org/2000/svg" id="svg2" width="192" height="192" version="1.1"><g id="layer1" transform="translate(0 -860.362)"><g id="g1033" transform="matrix(.86997 0 0 .86997 888.203 450.648)"><path id="path1026" d="M-914.793-374.422c-28.85 1.557-40.977 18.32-44.23 27.246-12.644 37.898-20.51 86.983-26.19 122.416-.11.692-.22 1.376-.33 2.057l-1.846 16.842c-.11 2.659.14 5.538.856 8.334 3.544 10.274 14.23 18.93 37.77 10.306l.001.014c22.237-9.698 48.505-21.749 75.668-35.268 15.465-8.942 38.118-29.502 39.28-55.47-.21-19.261-.854-39.454-2.163-59.106l-.01.014v-.135c-.107-1.614-.219-3.483-.335-5.428-.225-3.734-.466-7.75-.725-10.794-.384-2.112-.876-4.02-1.482-5.745-3.774-8.419-11.166-12.478-18.963-14.42-3.556-.616-7.925-.727-12.567-.845a460.6 460.6 0 0 0-.66-.018z" style="fill:#74ada4;fill-opacity:1;stroke-width:6.00073" transform="translate(0 860.362)"/><path id="path1006" fill="#fff" d="M-875.685 521.208a3.944 3.944 0 0 1 3.944 3.945v12.41a4.064 4.064 0 0 1-4.064 4.064c-13.465 0-24.38 10.915-24.38 24.38v16.11c0 25.052-20.308 45.36-45.359 45.36a3.944 3.944 0 0 1-3.944-3.945v-12.41a4.063 4.063 0 0 1 4.063-4.064c13.465 0 24.38-10.916 24.38-24.38v-16.11c0-25.052 20.309-45.36 45.36-45.36z" style="stroke-width:6.00073"/></g></g><style id="style853" type="text/css">.st0{fill:#fff}</style></svg>