<svg width="192" height="192" version="1.1" viewBox="0 0 192 192" xmlns="http://www.w3.org/2000/svg">
 <circle cx="96" cy="96" r="88" fill="#98dc9a"/>
 <path d="m66 67.594v6.9249a3.4772 3.4772 60.094 0 0 1.7288 3.0057l45.878 26.688a3.4772 3.4772 60.094 0 1 1.7288 3.0057 3.1027 3.1027 124.36 0 1-1.6918 2.4743 3.0956 3.0956 1.4633 0 1-3.1717-0.081l-42.73-24.098a1.1682 1.1682 149.71 0 0-1.7421 1.0175v26.9a3.4259 3.4259 59.724 0 0 1.7416 2.9832l26.343 14.873a3.5631 3.5631 0.14136 0 0 3.4881 9e-3l26.681-14.89a3.4065 3.4065 120.42 0 0 1.7464-2.9746v-12.369a3.6365 3.6365 61.19 0 0-1.689-3.0711l-7.2867-4.6208a1.2023 1.2023 91.368 0 1 0.0492-2.0603l7.1883-4.0909a3.4394 3.4394 120.18 0 0 1.7382-2.9892v-16.636a2 2 45 0 0-2-2h-56a2 2 135 0 0-2 2z" fill="#fff"/>
 <path d="m76.925 103.1v4.5289a1.7236 1.7236 59.879 0 0 0.86813 1.4963l13.92 7.9586a2.3016 2.3016 6.2744 0 0 1.8234 0.20047l5.0176-1.5541a0.44281 0.44281 96.675 0 0 0.09412-0.80429l-20.862-12.317a0.57087 0.57087 150.28 0 0-0.86111 0.49158z" fill="#98dc9a"/>
 <path d="m115.34 78.814v-1.2948a1 1 45 0 0-1-1h-26.272a0.26666 0.26666 104.93 0 0-0.13277 0.49791l15.179 8.7152a1.7559 1.7559 0.20028 0 0 1.7379 0.0061l9.617-5.4325a1.7134 1.7134 120.27 0 0 0.87069-1.4918z" fill="#98dc9a"/>
</svg>
