<?xml version="1.0" encoding="UTF-8" standalone="no"?>
<svg
   xml:space="preserve"
   style="fill-rule:evenodd;clip-rule:evenodd;stroke-linejoin:round;stroke-miterlimit:2"
   viewBox="0 0 192 192"
   version="1.1"
   id="svg6"
   sodipodi:docname="swiggy.svg"
   inkscape:version="1.2.2 (b0a8486541, 2022-12-01)"
   inkscape:export-filename="swiggy.png"
   inkscape:export-xdpi="96"
   inkscape:export-ydpi="96"
   xmlns:inkscape="http://www.inkscape.org/namespaces/inkscape"
   xmlns:sodipodi="http://sodipodi.sourceforge.net/DTD/sodipodi-0.dtd"
   xmlns="http://www.w3.org/2000/svg"
   xmlns:svg="http://www.w3.org/2000/svg"><defs
     id="defs10" /><sodipodi:namedview
     id="namedview8"
     pagecolor="#505050"
     bordercolor="#eeeeee"
     borderopacity="1"
     inkscape:showpageshadow="0"
     inkscape:pageopacity="0"
     inkscape:pagecheckerboard="0"
     inkscape:deskcolor="#d1d1d1"
     showgrid="false"
     inkscape:zoom="1.7383042"
     inkscape:cx="94.920097"
     inkscape:cy="104.41211"
     inkscape:window-width="1884"
     inkscape:window-height="1055"
     inkscape:window-x="36"
     inkscape:window-y="0"
     inkscape:window-maximized="1"
     inkscape:current-layer="svg6" /><path
     d="M164.5 21.5c0-5.519-4.481-10-10-10h-133c-5.519 0-10 4.481-10 10v133c0 5.519 4.481 10 10 10h133c5.519 0 10-4.481 10-10v-133Z"
     style="fill:#fff"
     transform="translate(8 8)"
     id="path2" /><path
     d="m 83.925517,113.97136 a 3.4861264,3.4861264 0 0 1 2.998196,-5.25909 c 2.245625,-0.002 4.668738,-0.002 6.411801,-0.002 a 2.4447416,2.4447416 0 0 1 2.445377,2.44538 v 4.44545 c 0,0.67178 0.544549,1.21632 1.216328,1.21632 h 6.36e-4 a 1.2182358,1.2182358 0 0 0 1.216327,-1.21632 v -9.39219 c 0,-0.41859 -0.339706,-0.75766 -0.75766,-0.75766 H 81.083815 a 3.2685616,3.2685616 0 0 1 -2.907862,-1.7755 c -3.787027,-7.389925 -6.670079,-14.649082 -6.670079,-19.631444 0,-13.1614 10.381404,-23.917499 23.397761,-24.517393 l 0.86008,-0.02481 h 0.02545 l 0.260187,-0.0019 0.315533,0.0019 c 13.401225,0.169854 23.386305,10.981934 24.128065,22.575214 0.14949,2.336596 -14.01766,2.361406 -18.50319,2.311149 a 1.363279,1.363279 0 0 1 -1.34356,-1.363278 v -8.38388 a 1.3486474,1.3486474 0 0 0 -1.349281,-1.349285 h -0.0029 a 1.3492836,1.3492836 0 0 0 -1.349915,1.349285 v 11.970517 c 0,0.409683 0.332073,0.741119 0.741757,0.741119 h 13.381259 a 6.7801342,6.7801342 0 0 1 6.51677,8.654245 C 112.69691,114.86071 96.049386,132.5 96.049386,132.5 c 0,0 -6.037106,-8.34317 -12.123832,-18.52864 z m 11.138428,-54.451645 -0.01526,6.36e-4 z m 0.136138,-0.0051 -0.02799,0.0012 0.0439,-0.0019 z m 0.139318,-0.0045 -0.02862,0.0012 0.05852,-0.0019 z m 0.139954,-0.0032 -0.02417,6.36e-4 0.06934,-0.0019 z m 0.139954,-0.0032 -0.01781,6.36e-4 0.08334,-0.0012 z m 0.227742,-0.0026 -0.09733,6.37e-4 h 0.0369 l 0.04199,-6.37e-4 z"
     style="fill:#f8c18c;stroke-width:0.636154"
     id="path4" /></svg>
