<?xml version="1.0" encoding="UTF-8" standalone="no"?>
<svg
   version="1.1"
   viewBox="0 0 192 192"
   id="svg6"
   sodipodi:docname="swile.svg"
   inkscape:version="1.2.2 (b0a8486541, 2022-12-01)"
   inkscape:export-filename="swile.png"
   inkscape:export-xdpi="96"
   inkscape:export-ydpi="96"
   xmlns:inkscape="http://www.inkscape.org/namespaces/inkscape"
   xmlns:sodipodi="http://sodipodi.sourceforge.net/DTD/sodipodi-0.dtd"
   xmlns="http://www.w3.org/2000/svg"
   xmlns:svg="http://www.w3.org/2000/svg">
  <defs
     id="defs10" />
  <sodipodi:namedview
     id="namedview8"
     pagecolor="#505050"
     bordercolor="#eeeeee"
     borderopacity="1"
     inkscape:showpageshadow="0"
     inkscape:pageopacity="0"
     inkscape:pagecheckerboard="0"
     inkscape:deskcolor="#d1d1d1"
     showgrid="false"
     inkscape:zoom="1.7383042"
     inkscape:cx="36.817492"
     inkscape:cy="122.82085"
     inkscape:window-width="1884"
     inkscape:window-height="1055"
     inkscape:window-x="36"
     inkscape:window-y="0"
     inkscape:window-maximized="1"
     inkscape:current-layer="svg6" />
  <circle
     class="a"
     cx="96"
     cy="96"
     r="88"
     style="fill:#56595b"
     id="circle2" />
  <g
     id="g240"
     transform="matrix(0.93576574,0,0,0.93576574,6.166255,2.1662644)">
    <path
       d="m 57.886,113.18 c 3.8186,0 6.5393,-2.4344 6.5393,-5.8711 0,-3.6277 -3.0549,-5.0596 -5.6324,-6.1098 -1.8616,-0.76372 -2.7685,-1.1456 -2.7685,-2.3389 0,-1.0978 0.76372,-1.7184 2.0525,-1.7184 1.241,0 2.3389,0.57279 2.8639,1.432 l 2.8639,-2.3389 c -1.0024,-1.6229 -3.4367,-2.9117 -6.0143,-2.9117 -3.5799,0 -6.2529,2.4344 -6.2529,5.7756 0,3.389 2.8162,4.821 5.6802,5.8711 2.0048,0.81145 2.9117,1.3365 2.9117,2.4344 0,1.1933 -1.0501,1.8616 -2.3866,1.8616 -1.3842,0 -2.9117,-0.66825 -3.4845,-2.148 l -3.6754,1.6706 c 0.90692,2.6253 4.105,4.3914 7.3031,4.3914 z m 34.176,-19.475 -4.105,14.177 -4.63,-14.177 h -3.8186 l -4.63,14.081 -4.105,-14.081 H 65.666 l 6.5871,19.093 h 4.821 l 4.3436,-12.935 4.2959,12.935 h 4.8687 l 6.4916,-19.093 z m 10.788,-3.389 c 1.4797,0 2.7208,-1.241 2.7208,-2.673 0,-1.5274 -1.241,-2.7207 -2.7208,-2.7207 -1.4797,0 -2.7207,1.1933 -2.7207,2.7207 0,1.432 1.241,2.673 2.7207,2.673 z m -2.2434,22.482 h 4.4868 V 93.705 h -4.4868 z m 11.026,0 h 4.5346 V 78.813 h -4.5346 z m 29.785,-9.6419 c -0.0955,-5.7279 -4.2959,-9.8329 -10.072,-9.8329 -5.8234,0 -10.215,4.2004 -10.215,9.9283 0,5.7279 4.3436,9.9283 10.262,9.9283 4.9164,0 8.5918,-2.9117 9.6897,-7.0644 h -4.5346 c -0.81145,2.0048 -2.7207,3.2935 -5.1551,3.2935 -3.1981,0 -5.4415,-2.2434 -5.6802,-5.4415 h 15.656 z m -10.024,-6.0143 c 2.4821,0 4.2482,1.3842 5.0596,3.5799 h -10.358 c 0.85918,-2.148 2.7208,-3.5799 5.2983,-3.5799 z"
       style="fill:#ffffff;stroke-width:0.31822;stroke-linecap:round;stroke-linejoin:round"
       aria-label="swile"
       id="path4" />
  </g>
</svg>
