<svg xmlns="http://www.w3.org/2000/svg" xmlns:xlink="http://www.w3.org/1999/xlink" xml:space="preserve" viewBox="0 0 192 192"><path fill="#88BFFF" d="M172 192H20c-11 0-20-9-20-20V20C0 9 9 0 20 0h152c11 0 20 9 20 20v152c0 11-9 20-20 20z"/><image xlink:href="D:\DESIGN\туццццц\Новая папка (4)\marvin\30E0AF75.jpg" width="241" height="241" overflow="visible" transform="translate(4.215 -195) scale(.7734)"/><path fill="#88BFFF" d="M129 106.1c-3.8 0-7.5.1-11.3 0-5.6-.2-9.8-4.5-9.8-10 0-5.6 4.1-10 9.7-10.1 7.7-.1 15.3 0 23-.1 2 0 2.7.7 2.7 2.7-.1 4.9-.1 9.9 0 14.8.1 2.4-.9 2.8-3 2.7-3.8-.1-7.6 0-11.3 0z"/><path fill="#FEFEFE" d="M95.5 161c-36-.3-64.8-29.6-64.5-65.5.2-35.8 29.7-64.9 65.5-64.5 36 .4 64.9 29.7 64.5 65.5-.3 35.9-29.7 64.9-65.5 64.5z"/><path fill="#88BFFF" d="M39.9 101.9C37.5 67.6 61.6 43 89.3 40.1c29-3.1 55.2 15.3 61.4 43.7 4.7 21.7-1.9 40-18.2 54.9-2.5 2.3-3.2 2.7-5.5-.9-.4-.6-.7-1.3-1.1-1.9-10.1-16.5-9.3-7.7-.2-21.2 9.2-10.9 7.6-27.4-.7-39.1-8.4-11.8-22.8-17.5-37.4-13.8-14.2 3.6-23.1 12.9-26.2 27.5-2.6 12.1.9 22.5 9.1 31.3 2.3 2.5 2.7 4.1.8 7-2.5 4-3.4 5.8-5.1 8.7-3.3 5.7-3.4 5.8-8.4 1.1C46 126 40 112.2 39.9 101.9z"/><path fill="#88BFFF" d="M115.4 117.5c-2.6-4.5-5.1-9-7.9-13.4-1.2-1.9-.5-3.5 0-5.3 1.4-5.4-.7-9.6-4.9-12.6-4.4-3.2-9.2-3.1-13.5.2-4.1 3.1-6.5 7.5-4.5 12.7 2 5.3-3.1.5-5.3 3.9-5.1 7.7 0 5.7-4.9-2.2-8.2-13.1-7.9-20.1 5-29 12.9-8.8 30.4-5.9 39.9 6.4 9.6 12.4 7.2 30.9-3.9 39.3z"/><path fill="#88BFFF" d="M76.1 117.5c2.6-4.5 5.5-8.8 7.9-13.4 2.3-4.6.5-3.5 0-5.3-1.4-5.4.7-9.6 4.9-12.6 4.4-3.2 9.2-3.1 13.5.2 4.1 3.1 7.3 8.5 5.4 13.7-2 5.3 2.2-.5 4.4 2.9 5.1 7.7 0 5.7 4.9-2.2 8.2-13.1 7.9-20.1-5-29-12.9-8.8-30.4-5.9-39.9 6.4-9.7 12.4-7.2 30.9 3.9 39.3z"/><circle cx="96" cy="94.9" r="12.1" fill="#FEFEFE"/><path fill="#88BFFF" d="M96.1 152.1c-8.6.2-16.5-2.1-24.3-5.4-2.6-1.1-2.8-2.2-1.5-4.5 6.7-11.6 13.3-23.2 20-34.8 2.6-4.4 8.6-4.5 11.2-.1 6.8 11.6 13.3 23.2 20.2 34.7 1.6 2.8.9 3.7-1.8 4.8-7.6 3.3-15.4 5.4-23.8 5.3z"/></svg>