<?xml version="1.0" encoding="UTF-8" standalone="no"?>
<svg
   xml:space="preserve"
   viewBox="0 0 192 192"
   version="1.1"
   id="svg6"
   sodipodi:docname="synology_ds_video.svg"
   inkscape:version="1.2.2 (b0a8486541, 2022-12-01)"
   inkscape:export-filename="synology_ds_video.png"
   inkscape:export-xdpi="96"
   inkscape:export-ydpi="96"
   xmlns:inkscape="http://www.inkscape.org/namespaces/inkscape"
   xmlns:sodipodi="http://sodipodi.sourceforge.net/DTD/sodipodi-0.dtd"
   xmlns="http://www.w3.org/2000/svg"
   xmlns:svg="http://www.w3.org/2000/svg"><defs
     id="defs10" /><sodipodi:namedview
     id="namedview8"
     pagecolor="#505050"
     bordercolor="#eeeeee"
     borderopacity="1"
     inkscape:showpageshadow="0"
     inkscape:pageopacity="0"
     inkscape:pagecheckerboard="0"
     inkscape:deskcolor="#d1d1d1"
     showgrid="false"
     inkscape:zoom="1.7383042"
     inkscape:cx="100.09756"
     inkscape:cy="106.13793"
     inkscape:window-width="1884"
     inkscape:window-height="1055"
     inkscape:window-x="36"
     inkscape:window-y="0"
     inkscape:window-maximized="1"
     inkscape:current-layer="svg6" /><rect
     style="fill:#ff837d;stroke-width:3.413;stroke-linecap:round;stroke-linejoin:round;paint-order:stroke fill markers"
     id="rect345"
     width="152"
     height="152"
     x="20"
     y="20"
     rx="10" /><path
     fill="#fefefe"
     d="m 132.38558,65.048848 c 0,-3.375392 -2.11677,-5.434953 -5.43495,-5.434953 H 64.763323 c -3.089342,0 -5.263323,2.116771 -5.263323,5.263323 v 62.416152 c 0,2.8605 2.517241,5.1489 5.148903,5.09169 10.469436,-0.0572 20.881661,-0.0572 31.351097,-0.0572 10.41223,0 20.76724,-0.0572 31.17947,0.0572 2.97492,0.0572 5.32053,-2.40282 5.32053,-5.32054 -0.17163,-20.65282 -0.11442,-41.305641 -0.11442,-62.015672 z m -6.57915,25.115204 c -0.0572,1.487461 -1.02978,2.517241 -2.46003,2.574451 -1.087,0.05721 -2.2312,0.05721 -3.31819,0 -1.60188,-0.05721 -2.57445,-1.08699 -2.63166,-2.688871 V 87.0175 c 0.0572,-1.659091 1.02978,-2.631661 2.68887,-2.688871 0.97257,-0.05721 1.94514,0 2.91772,0 1.77351,0.05721 2.74608,1.02978 2.80329,2.803291 z m 0,14.931818 c -0.0572,1.48746 -1.02978,2.51724 -2.51724,2.57445 -1.087,0.0572 -2.2312,0.0572 -3.31819,0 -1.48746,-0.0572 -2.51724,-1.08699 -2.57445,-2.63166 v -3.14655 c 0.0572,-1.60188 1.08699,-2.631663 2.74608,-2.631663 h 2.91771 c 1.71631,0 2.68888,1.029783 2.74609,2.688873 z M 79.180251,68.13819 c 0,-1.887931 0.62931,-2.517242 2.517241,-2.517242 h 28.490598 c 1.88793,0 2.51724,0.629311 2.51724,2.517242 v 23.856583 c 0,1.887931 -0.62931,2.517241 -2.51724,2.517241 H 81.583072 c -1.716301,0 -2.402821,-0.68652 -2.402821,-2.402821 z m -4.748433,51.48903 c 0,1.77351 -0.68652,2.63166 -2.460031,3.03213 -1.430251,0.34326 -2.803292,0.28605 -4.233542,0 -0.572101,-0.11442 -1.029781,-0.45768 -1.258621,-1.02978 -0.800941,-1.83072 -0.45768,-3.71865 -0.34326,-5.60658 0.05721,-1.02978 1.1442,-1.77351 2.288401,-1.83072 1.201411,-0.0572 2.402821,-0.0572 3.604232,0 1.430251,0.0572 2.345611,1.1442 2.402821,2.57445 0.05721,0.97257 0.05721,1.88793 0,2.8605 z m 0,-14.35972 c -0.05721,1.37304 -1.1442,2.34561 -2.574451,2.40282 h -1.601881 c -0.62931,0 -1.201411,0.0572 -1.830721,0 -1.315831,-0.11442 -2.345611,-1.02978 -2.402821,-2.40282 -0.05721,-1.20141 -0.05721,-2.40282 0,-3.60423 0.05721,-1.37304 1.02978,-2.288403 2.345611,-2.402823 1.201411,-0.05721 2.402821,-0.05721 3.604232,0 1.315831,0.05721 2.288401,1.029783 2.402821,2.402823 0.11442,1.20141 0.11442,2.40282 0.05721,3.60423 z m 0,-15.332288 c -0.05721,1.773511 -1.02978,2.803291 -2.746081,2.803291 h -3.146552 c -1.487461,-0.05721 -2.517241,-1.02978 -2.517241,-2.517241 0,-1.086991 -0.05721,-2.231191 0,-3.318182 0.05721,-1.544671 0.91536,-2.460031 2.460031,-2.574451 1.144201,-0.05721 2.288401,-0.05721 3.432602,0 1.487461,0.05721 2.460031,1.08699 2.517241,2.574451 0.05721,0.5721 0,1.144201 0,1.716301 0,0.40047 0.05721,0.85815 0,1.315831 z m 0,-14.531348 c -0.05721,1.37304 -1.1442,2.402821 -2.574451,2.402821 -1.086991,0.05721 -2.173981,0.05721 -3.203762,0 -1.601881,-0.05721 -2.574451,-1.029781 -2.631661,-2.631661 v -3.203762 c 0.05721,-1.544671 1.02978,-2.517242 2.574451,-2.517242 h 3.318182 c 1.373041,0.05721 2.402821,0.972571 2.460031,2.402822 0.11442,1.1442 0.11442,2.345611 0.05721,3.547022 z m 38.216302,48.571316 c 0,1.77351 -0.62931,2.40282 -2.40282,2.40282 H 81.754702 c -2.002351,0 -2.574451,-0.5721 -2.574451,-2.57445 v -23.74216 c 0,-1.887934 0.62931,-2.460034 2.517241,-2.460034 h 28.605018 c 1.77351,0 2.40282,0.62931 2.40282,2.402824 -0.0572,7.95219 -0.0572,15.9616 -0.0572,23.971 z m 13.15831,-3.94749 c -0.0572,1.43025 -0.85815,2.40282 -2.2884,2.51724 -1.25863,0.11442 -2.57446,0.11442 -3.89029,0 -1.25862,-0.11442 -2.17398,-1.08699 -2.23119,-2.46003 -0.0572,-1.1442 -0.0572,-2.34561 0,-3.48981 0.0572,-1.25862 1.02978,-2.2884 2.2884,-2.40282 1.31583,-0.0572 2.57445,-0.11442 3.89029,0 1.20141,0.0572 2.17398,1.08699 2.23119,2.2884 0.0572,0.5721 0,1.20141 0,1.77351 z m 0,-44.738246 c -0.0572,1.43025 -1.02978,2.460031 -2.46003,2.517241 -1.14421,0.05721 -2.28841,0.05721 -3.43261,0 -1.48746,-0.05721 -2.51724,-1.144201 -2.51724,-2.688872 v -2.917711 c 0.0572,-1.773511 1.02978,-2.803292 2.8605,-2.803292 h 3.14656 c 1.31583,0.05721 2.34561,1.029781 2.40282,2.345612 z"
     id="path4"
     style="stroke-width:0.5721" /></svg>
