<?xml version="1.0" encoding="UTF-8"?>
<svg version="1.1" viewBox="0 0 192 192" xmlns="http://www.w3.org/2000/svg" xmlns:xlink="http://www.w3.org/1999/xlink">
 <defs>
  <linearGradient id="linearGradient5">
   <stop style="stop-color:#bd9aff" offset="0"/>
   <stop style="stop-color:#ff837d" offset="1"/>
  </linearGradient>
  <linearGradient id="linearGradient6" x1="172" x2="88.74" y1="63.929" y2="63.929" gradientUnits="userSpaceOnUse" xlink:href="#linearGradient5"/>
  <linearGradient id="linearGradient7" x1="20" x2="96.013" y1="136.08" y2="136.08" gradientUnits="userSpaceOnUse" xlink:href="#linearGradient5"/>
 </defs>
 <rect class="a" x="20" y="20" width="152" height="152" rx="10" style="fill:#ff837d"/>
 <path class="a" d="m30 20c-5.54 0-10 4.46-10 10v47.441h152v-47.441c0-5.54-4.46-10-10-10h-132z" style="fill:url(#linearGradient6)"/>
 <path class="a" d="m20 110.15v51.848c0 5.54 4.46 10 10 10h132c5.54 0 10-4.46 10-10v-51.848h-152z" style="fill:url(#linearGradient7)"/>
 <path d="m97.402 137.12c14.954 0 27.637-8.8119 27.637-23.765 0-29.64-36.85-22.297-36.85-36.182 0-4.5395 3.4714-6.6757 7.7438-6.6757 4.5395 0 9.0789 2.5368 13.084 6.9427l11.749-11.215c-5.8746-6.8092-14.82-11.349-24.7-11.349-12.684 0-25.635 7.6103-25.635 23.632 0 27.237 36.983 20.695 36.983 34.714 0 4.406-3.7384 7.3433-9.88 7.3433-7.3433 0-13.084-4.1389-16.022-10.414l-14.553 9.0789c5.207 10.014 16.422 17.891 30.441 17.891z" style="fill:#fff;stroke-linecap:round;stroke-linejoin:round;stroke-width:34.332" aria-label="S"/>
</svg>
