<svg xmlns="http://www.w3.org/2000/svg" id="svg2" width="192" height="192" version="1.1"><g id="layer1" transform="translate(0 -860.362)"><path id="path2122" d="M96.978 868.362a6.849 6.849 0 0 0-4.904 2.013l-72.679 72.68c-4.328 4.328-1.263 11.73 4.859 11.73h13.188a2.29 2.29 0 0 1 2.29 2.29v77.877a6.871 6.871 0 0 0 6.872 6.872H72.86v-30.676c-10.222-2.88-10.222-12.137-10.222-12.137v-32.658a2.29 2.29 0 0 1 2.29-2.29h2.407a2.29 2.29 0 0 1 2.29 2.29v14.392a2.29 2.29 0 0 0 2.291 2.29h2.411a2.29 2.29 0 0 0 2.291-2.29v-21.38a2.29 2.29 0 0 1 2.29-2.29h1.41a2.29 2.29 0 0 1 2.29 2.29v21.38a2.29 2.29 0 0 0 2.29 2.29h2.408a2.29 2.29 0 0 0 2.29-2.29v-14.392a2.29 2.29 0 0 1 2.29-2.29h2.412a2.29 2.29 0 0 1 2.29 2.29v32.658s0 9.258-10.222 12.137v30.676h30.918v-25.938c-5.257-6.71-8.836-13.803-8.836-30.922 0-8.688 5.517-16.662 10.84-22.333 3.784-4.03 9.775-1.076 9.775 4.452v74.74h18.324a6.871 6.871 0 0 0 6.871-6.87v-77.878a2.291 2.291 0 0 1 2.29-2.29h11.198c6.08 0 9.163-7.314 4.921-11.668l-19.37-19.88c.602-.777.961-1.751.961-2.81V895.23a4.58 4.58 0 0 0-4.58-4.58h-4.582a4.58 4.58 0 0 0-4.58 4.58v14.888l-38.662-39.68a6.848 6.848 0 0 0-4.876-2.077z" style="fill:#99bdfe;fill-opacity:1;stroke-width:2.29052"/><path id="rect2409" d="M-1620.038 639.212h1087.346v1222.296h-1087.346z" style="fill:#fff;fill-opacity:1;stroke-width:1.148;stop-color:#000"/></g><style id="style853" type="text/css">.st0{fill:#fff}</style></svg>