<?xml version="1.0" encoding="UTF-8" standalone="no"?>
<svg
   xmlns:dc="http://purl.org/dc/elements/1.1/"
   xmlns:cc="http://creativecommons.org/ns#"
   xmlns:rdf="http://www.w3.org/1999/02/22-rdf-syntax-ns#"
   xmlns:svg="http://www.w3.org/2000/svg"
   xmlns="http://www.w3.org/2000/svg"
   xmlns:sodipodi="http://sodipodi.sourceforge.net/DTD/sodipodi-0.dtd"
   xmlns:inkscape="http://www.inkscape.org/namespaces/inkscape"
   viewBox="0 0 192 192"
   version="1.1"
   id="svg16"
   sodipodi:docname="tapet_wallpapers.svg"
   inkscape:version="0.92.4 (5da689c313, 2019-01-14)">
  <metadata
     id="metadata20">
    <rdf:RDF>
      <cc:Work
         rdf:about="">
        <dc:format>image/svg+xml</dc:format>
        <dc:type
           rdf:resource="http://purl.org/dc/dcmitype/StillImage" />
        <dc:title></dc:title>
      </cc:Work>
    </rdf:RDF>
  </metadata>
  <sodipodi:namedview
     pagecolor="#ffffff"
     bordercolor="#666666"
     borderopacity="1"
     objecttolerance="10"
     gridtolerance="10"
     guidetolerance="10"
     inkscape:pageopacity="0"
     inkscape:pageshadow="2"
     inkscape:window-width="1920"
     inkscape:window-height="1017"
     id="namedview18"
     showgrid="true"
     inkscape:zoom="2.9469688"
     inkscape:cx="219.58"
     inkscape:cy="95.395277"
     inkscape:window-x="-8"
     inkscape:window-y="-8"
     inkscape:window-maximized="1"
     inkscape:current-layer="svg16"
     inkscape:snap-global="true">
    <inkscape:grid
       type="xygrid"
       id="grid827"
       spacingx="4"
       spacingy="4" />
  </sodipodi:namedview>
  <defs
     id="defs4">
    <style
       id="style2">.a{fill:none;stroke:#b1b5bd;stroke-linecap:round;stroke-linejoin:round;isolation:isolate;opacity:0.63;}</style>
  </defs>
  <rect
     class="a"
     x="20"
     y="20"
     width="152"
     height="152"
     rx="10"
     id="rect6"
     style="fill:#54688c;stroke:none;opacity:1" />
  <circle
     class="a"
     cx="96"
     cy="96"
     r="36.5"
     id="circle10" />
  <path
     style="fill:#8c72bd;stroke:none;stroke-width:1px;stroke-linecap:butt;stroke-linejoin:miter;stroke-opacity:1"
     d="M 56 20 C 56 20 24 52 24 100 C 24 148 40 172 40 172 L 162 172 C 167.54 172 172 167.54 172 162 L 172 30 C 172 24.46 167.54 20 162 20 L 56 20 z "
     id="path848" />
  <path
     style="fill:#ba6561;stroke:none;stroke-width:1px;stroke-linecap:butt;stroke-linejoin:miter;stroke-opacity:1"
     d="M 104 20 C 104 20 56 44 56 100 C 56 148 80 172 80 172 L 162 172 C 167.54 172 172 167.54 172 162 L 172 30 C 172 24.46 167.54 20 162 20 L 104 20 z "
     id="path850" />
  <path
     style="fill:#ff837d;stroke:none;stroke-width:1px;stroke-linecap:butt;stroke-linejoin:miter;stroke-opacity:1"
     d="M 140 32 C 111.65294 32 84 60 84 96 C 84 152 124 172 124 172 L 162 172 C 167.54 172 172 167.54 172 162 L 172 44 C 172 44 160 32 140 32 z "
     id="path852" />
  <path
     style="fill:#f9de81;stroke:none;stroke-width:1px;stroke-linecap:butt;stroke-linejoin:miter;stroke-opacity:1"
     d="m 172,72 c 0,-12 -12,-20 -28,-20 -19.82142,0 -40,24.178575 -40,44 0,60 68,64 68,64 V 88 c 0,0 -5.01858,4 -8,4 -8,0 -8,-12 -8,-12 0,0 4,4 8,4 4.8074,0 8,-7.192598 8,-12 z"
     id="path854"
     inkscape:connector-curvature="0"
     sodipodi:nodetypes="sssccscss" />
  <path
     style="fill:#54688c;stroke:none;stroke-width:1px;stroke-linecap:butt;stroke-linejoin:miter;stroke-opacity:1"
     d="m 156,80 c 0,0 8,0 8,-4 0,-8 -9.33333,-12 -16,-12 -16,0 -24,18.666667 -24,32 0,36 48,44 48,44 0,0 0,-44 0,-52 -12,5.786314 -16,-8 -16,-8 z"
     id="path856"
     inkscape:connector-curvature="0"
     sodipodi:nodetypes="csssccc" />
  <path
     style="fill:#8c72bd;stroke:none;stroke-width:1px;stroke-linecap:butt;stroke-linejoin:miter;stroke-opacity:1"
     d="m 156,80 c 0,0 4,0 4,-4 0,-4 -8,-4 -8,-4 0,0 -16,0 -16,20 0,28 36,28 36,28 v -16 c 0,0 -24,0 -24,-16 0,-3.771236 8,-8 8,-8 z"
     id="path860"
     inkscape:connector-curvature="0"
     sodipodi:nodetypes="cscsccsc" />
  <path
     style="fill:#ba6561;stroke:none;stroke-width:1px;stroke-linecap:butt;stroke-linejoin:miter;stroke-opacity:1"
     d="m 156,80 c 0,0 -8,0 -8,8 0,16 24,16 24,16 V 88 c 0,0 -3.56941,1.497429 -5.45501,1.497429 C 159.13599,89.497429 156,80 156,80 Z"
     id="path858"
     inkscape:connector-curvature="0"
     sodipodi:nodetypes="csccsc" />
</svg>
