<svg xmlns="http://www.w3.org/2000/svg" viewBox="0 0 192 192"><rect width="152" height="152" x="20" y="20" rx="10" style="fill:#fff;stroke:none;opacity:1;stroke-linecap:round;stroke-linejoin:round;isolation:isolate"/><path d="M140.223 40.63c-3.065.013-7.905 21.506-11.172 22.32-4.51 1.122-17.92 1.158-30.104 1.915-22.678 1.41-33.787 6.064-38.832 6.04-4.48-.023-14.787-18.97-17.976-18.84-5.297.216-12.363 31.664-9.13 49.474 7.369 40.584 48.755 34.53 48.755 34.53L77 172h49.973l-8.6-40.61s43.72-5.33 41.674-43.119c-1.219-22.512-14.6-47.661-19.824-47.64z" style="fill:#56595b;stroke:none;stroke-width:1px;stroke-linecap:butt;stroke-linejoin:miter;stroke-opacity:1"/><path d="M35.523 88.163c-.02-2.64.703-5.946 3.883-6.903 7.138-2.148 13.688-3.915 21.573-4.17 23.14-.752 22.084 3.79 33.078 2.588 12.754-1.394 13.634-8.246 36.818-11.218 5.755-.738 15.512-1.989 19.415-.144 2.417 1.143 3.522 3.664 3.74 6.328.267 3.275-2.627 7.38-3.02 10.643-.669 5.528.813 16.618-3.884 23.442-5.435 7.897-19.28 10.605-28.62 7.335-8.628-3.02-12.115-12.614-16.826-21.141-1.61-2.913-3.457-4.286-5.61-4.027-2.53.304-4.543 3.252-5.033 5.752-1.158 5.911-.772 16.915-10.067 24.162-5.122 3.993-22.935 7.902-31.065-1.294-5.425-6.137-5.718-15.382-9.348-22.724-1.476-2.985-5.008-5.299-5.034-8.629z" style="fill:#96dfd3;stroke:none;stroke-width:1px;stroke-linecap:butt;stroke-linejoin:miter;stroke-opacity:1"/><path d="M47.797 89.797c2.7-5.498 8.947-6.199 15.05-6.712 6.236-.525 16.026-.765 20.238 3.864 1.777 1.954 3.358 10.516 2.847 15.865-.484 5.063-1.763 10.777-5.491 14.237-3.608 3.348-9.216 4.434-14.136 4.271-4.524-.15-9.016-.347-13.322-4.881-3.7-3.896-4.973-8.992-5.491-14.34-.304-3.13-.699-10.261.305-12.304z" style="fill:#56595b;stroke:none;stroke-width:1px;stroke-linecap:butt;stroke-linejoin:miter;stroke-opacity:1"/><rect width="5.321" height="9.492" x="60.218" y="102.548" rx="2.661" ry="4.746" style="opacity:1;vector-effect:none;fill:#fff;fill-opacity:1;fill-rule:evenodd;stroke:none;stroke-width:8;stroke-linecap:round;stroke-linejoin:round;stroke-miterlimit:4;stroke-dasharray:none;stroke-opacity:1;paint-order:stroke fill markers" transform="rotate(-6.47)"/><path d="M143.19 78.362c-3.325-5.144-10.175-3.867-16.223-2.9-6.18.99-16.35 3.108-19.327 8.613-1.256 2.324-.225 12.236 1.556 17.305 1.686 4.799 4.402 8.818 8.852 11.28 4.307 2.384 9.3 1.99 14.036.65 4.356-1.233 8.668-2.504 11.76-7.94 2.656-4.67 2.667-9.922 1.886-15.238-.981-9.7-1.304-9.857-2.54-11.77z" style="fill:#56595b;stroke:none;stroke-width:1px;stroke-linecap:butt;stroke-linejoin:miter;stroke-opacity:1"/><rect width="5.321" height="9.492" x="103.156" y="102.352" rx="2.661" ry="4.746" style="opacity:1;vector-effect:none;fill:#fff;fill-opacity:1;fill-rule:evenodd;stroke:none;stroke-width:8;stroke-linecap:round;stroke-linejoin:round;stroke-miterlimit:4;stroke-dasharray:none;stroke-opacity:1;paint-order:stroke fill markers" transform="rotate(-6.47)"/></svg>