<?xml version="1.0" encoding="UTF-8"?>
<svg version="1.1" viewBox="0 0 192 192" xmlns="http://www.w3.org/2000/svg">
 <defs>
  <linearGradient id="gradient_1" x2="0" y1="50" y2="108" gradientUnits="userSpaceOnUse"/>
  <clipPath id="clipPath1">
   <rect class="a" width="108" height="108" rx="7.1053" style="fill:#728dbe"/>
  </clipPath>
 </defs>
 <rect class="a" x="20" y="20" width="152" height="152" rx="10" style="fill:#728dbe"/>
 <g transform="matrix(1.4074 0 0 1.4074 20 20)">
  <g fill="none" stroke="#fff" stroke-opacity=".066667" stroke-width=".5">
   <path d="m12 20h84" style="stroke-opacity:1;stroke:#d8d8d8"/>
   <path d="m12 28h84" style="stroke-opacity:1;stroke:#d8d8d8"/>
   <path d="m12 36h84" style="stroke-opacity:1;stroke:#d8d8d8"/>
   <path d="m12 44h84" style="stroke-opacity:1;stroke:#d8d8d8"/>
   <path d="m12 52h84" style="stroke-opacity:1;stroke:#d8d8d8"/>
   <path d="m12 60h84" style="stroke-opacity:1;stroke:#d8d8d8"/>
   <path d="m12 68h84" style="stroke-opacity:1;stroke:#d8d8d8"/>
   <path d="m12 76h84" style="stroke-opacity:1;stroke:#d8d8d8"/>
   <path d="m12 84h84" style="stroke-opacity:1;stroke:#d8d8d8"/>
   <path d="m20 12v84" style="stroke-opacity:1;stroke:#d8d8d8"/>
   <path d="m28 12v84" style="stroke-opacity:1;stroke:#d8d8d8"/>
   <path d="m36 12v84" style="stroke-opacity:1;stroke:#d8d8d8"/>
   <path d="m44 12v84" style="stroke-opacity:1;stroke:#d8d8d8"/>
   <path d="m52 12v84" style="stroke-opacity:1;stroke:#d8d8d8"/>
   <path d="m60 12v84" style="stroke-opacity:1;stroke:#d8d8d8"/>
   <path d="m68 12v84" style="stroke-opacity:1;stroke:#d8d8d8"/>
   <path d="m76 12v84" style="stroke-opacity:1;stroke:#d8d8d8"/>
   <path d="m84 12v84" style="stroke-opacity:1;stroke:#d8d8d8"/>
   <path d="m92 12v84" style="stroke-opacity:1;stroke:#d8d8d8"/>
  </g>
  <path d="m0 76c2.6667 0 5.3333-0.33333 8-1 2.6667-0.66667 5.3333-0.33333 8 1s5.3333-3.3333 8-14c2.6667-6.6667 5.3333-6.6667 8 0 2.6667 5.3333 5.3333 6 8 2s5.3333-1.3333 8 8c2.6667 6.6667 5.3333 6.6667 8 0l8-20c2.6667-6.6667 5.3333-4 8 8s5.3333 14 8 6c2.6667-6.6667 5.3333-7.3333 8-2s5.3333 7 8 5 5.3333-1.6667 8 1c1.3333 1.3333 2.6667 2 4 2v24c0 11.887 0.96274 12-12 12h-84c-12.963 0-12 0-12-12z" clip-path="url(#clipPath1)" fill="url(#gradient_1)" style="fill:#9abeff;stroke:#9abeff"/>
  <path d="m0 76q4 0 8-1t8 1 8-14q4-10 8 0 4 8 8 2t8 8q4 10 8 0t8-20 8 8 8 6q4-10 8-2t8 5 8 1q2 2 4 2" fill-opacity="0" stroke="#fff" stroke-opacity=".53333" stroke-width=".8" style="fill:none;stroke-opacity:1;stroke:#fff"/>
 </g>
</svg>
