<?xml version="1.0" encoding="UTF-8" standalone="no"?>
<svg
   xml:space="preserve"
   viewBox="0 0 192 192"
   version="1.1"
   id="svg14"
   sodipodi:docname="taskade.svg"
   inkscape:version="1.2.2 (b0a8486541, 2022-12-01)"
   inkscape:export-filename="taskade.png"
   inkscape:export-xdpi="96"
   inkscape:export-ydpi="96"
   xmlns:inkscape="http://www.inkscape.org/namespaces/inkscape"
   xmlns:sodipodi="http://sodipodi.sourceforge.net/DTD/sodipodi-0.dtd"
   xmlns="http://www.w3.org/2000/svg"
   xmlns:svg="http://www.w3.org/2000/svg"><defs
     id="defs18" /><sodipodi:namedview
     id="namedview16"
     pagecolor="#505050"
     bordercolor="#eeeeee"
     borderopacity="1"
     inkscape:showpageshadow="0"
     inkscape:pageopacity="0"
     inkscape:pagecheckerboard="0"
     inkscape:deskcolor="#d1d1d1"
     showgrid="false"
     inkscape:zoom="0.86915209"
     inkscape:cx="-163.37762"
     inkscape:cy="168.55508"
     inkscape:window-width="1884"
     inkscape:window-height="1055"
     inkscape:window-x="36"
     inkscape:window-y="0"
     inkscape:window-maximized="1"
     inkscape:current-layer="svg14" /><circle
     cx="96"
     cy="96"
     r="96"
     fill="#FF8680"
     id="circle2" /><g
     id="g322"
     transform="matrix(0.59606963,0,0,0.59606963,38.590999,38.516722)"><path
       fill="#fefdfd"
       d="m 27.4,101.8 c 0.1,-0.1 0,-0.1 0,-0.1 -3.7,-5.3 -2.8,-10.3 2.5,-13.8 1.2,-0.7 1,-1.2 0.2,-2.2 -4.8,-5.6 -2.8,-12.6 4.2,-14.8 1.4,-0.4 1.5,-1 0.7,-2.1 -3.1,-4.8 0.2,-12 5.8,-12.9 3.2,-0.5 3.2,-0.5 3.2,-3.6 -0.1,-6.3 5,-10.5 11.1,-9 1.5,0.4 1.8,0 1.9,-1.4 0.4,-7.1 7.1,-10.8 13.4,-7.4 1.2,0.7 1.6,0.5 2.1,-0.9 2.1,-6.7 9.7,-8.7 14.8,-3.8 1.1,1.1 1.6,0.9 2.4,-0.3 3.8,-5.9 11.4,-5.8 15.1,0.2 0.8,1.2 1.3,1.4 2.4,0.4 5.4,-4.7 12.5,-2.7 14.6,4.2 0.4,1.3 0.9,1.5 2.1,0.9 6.4,-3.2 12.8,0.5 13.1,7.6 0.1,1.8 0.7,1.9 2.2,1.6 4.4,-0.9 8.5,1.2 10,5.3 0.7,1.9 0.9,3.9 0.3,5.9 -0.4,1.4 0.1,1.6 1.3,1.6 5.1,0.2 8,3.7 8.7,7.6 0.3,2 -0.1,3.9 -1.2,5.6 -0.7,1.1 -0.8,1.8 0.8,2.3 6.8,2.1 8.7,9.6 3.8,14.8 -0.8,0.8 -1.2,1.4 0,2.2 4.7,3.3 5.6,6.6 3.5,12.1 -0.4,0.6 -0.9,1.2 -1.3,1.8 h -0.2 c -0.9,0.8 -2.5,1.1 -2.9,2.2 -0.4,1.2 1.2,1.9 1.8,2.8 3.1,4.8 0.8,11.2 -4.8,13.1 -2.1,0.7 -2.1,0.7 -1.1,2.9 2.7,5.8 -1.5,12.5 -7.9,12.5 -1.8,0 -1.9,0.6 -1.6,2.1 1.3,6.8 -4.2,12 -10.9,10.4 -1.5,-0.4 -1.9,0 -1.9,1.4 -0.4,7.1 -7.1,10.8 -13.4,7.4 -1.3,-0.7 -1.6,-0.5 -2.1,0.9 -2.1,6.7 -9.7,8.7 -14.8,3.8 -1.2,-1.1 -1.6,-0.8 -2.4,0.3 -3.8,5.8 -11.4,5.8 -15,-0.1 -0.9,-1.4 -1.4,-1.5 -2.7,-0.4 -5,4.5 -12.4,2.5 -14.4,-4 -0.5,-1.8 -1.1,-1.8 -2.6,-1 -6,3 -12.5,-0.9 -12.7,-7.6 -0.1,-1.8 -0.6,-2 -2.2,-1.7 -6.5,1.3 -11.9,-4.2 -10.3,-10.7 0.4,-1.8 -0.1,-2.1 -1.7,-2.2 -6.6,-0.4 -10.4,-7.1 -7.2,-13 0.8,-1.5 0.7,-2 -1,-2.6 -6,-1.9 -8.1,-8.8 -4.2,-13.8 1.9,-2.5 1.9,-2.5 -1,-4 0,-0.3 -0.2,-0.5 -0.5,-0.5 z m 31.8,29.4 c 1.7,1.2 3.3,2.5 5,3.5 8.5,4.8 17.7,6.8 27.2,7.4 10.7,0.6 21.2,-0.4 31.3,-4.3 4.9,-1.9 9.6,-4.3 13.3,-8.1 4.9,-4.3 7.4,-9.8 7.5,-16.3 0.1,-6.4 0.1,-12.9 0,-19.3 0,-1.4 0.4,-1.9 1.8,-1.9 2.1,0 4.2,-0.3 6.2,-1.3 1.4,-0.7 2.4,-1.7 2,-3.4 -0.4,-1.9 -1.5,-2.7 -3.4,-2.7 -3.5,0 -6.6,-0.8 -9.2,-3.4 -0.7,-0.7 -1.2,-2.2 -2.1,-2.1 -0.9,0.2 -1.7,1.4 -2.4,2.2 -3.9,4.1 -12.6,5.1 -17.2,-0.9 -0.3,-0.3 -0.5,-0.7 -0.8,-1 -0.6,-0.6 -1,-0.7 -1.4,0.2 -0.7,1.7 -2.4,2.8 -3.8,3.6 -3.4,1.8 -10.1,2.6 -14,-1.8 -0.8,-0.9 -1.6,-1.9 -2.6,-3 -2.2,4 -5.5,6.2 -10.1,6.2 -4.8,0 -8.2,-2.2 -10.7,-6.3 -2.5,4 -5.8,6.3 -10.5,6.3 -4.7,0 -8,-2.4 -10.5,-6.2 -2.7,4.3 -6.3,6.4 -11.2,6.3 -2,-0.1 -3.2,0.9 -3.5,2.8 -0.3,1.8 0.8,2.8 2.2,3.4 1.9,0.8 3.8,1.2 5.8,1.1 1.5,0 1.9,0.5 1.9,2 -0.1,6.4 -0.1,12.9 0,19.3 0.1,6.3 2.5,11.6 7.1,15.9 0.1,0.4 0.4,0.6 0.8,0.7 0.6,0.4 1,0.8 1.3,1.1 z"
       id="path6" /><path
       fill="#fe5b96"
       d="m 165.2,103.5 c 0.4,0.1 0.9,-0.4 1.4,0.1 -0.5,0.7 -1,0.5 -1.4,-0.1 z m -0.6,2.9 c 0,0 0.1,0 0.1,0.1 v 0.2 c -0.1,0 -0.2,-0.1 -0.2,-0.1 0,-0.2 0.1,-0.2 0.1,-0.2 z M 27.4,101.8 c 0.3,0.1 0.5,0.3 0.6,0.6 z m 30.7,28.3 c 0.7,0 1.1,0.3 1.1,1.1 z"
       id="path8" /><path
       fill="#fefdfd"
       d="m 132.7,122.1 c -1.1,0.7 -2.3,1.2 -3.6,1.3 -2.7,0.1 -4.8,-1.1 -5.6,-3.2 -0.9,-2.3 0,-4.9 2.2,-6.5 0.4,-0.4 1,-0.4 1.5,-0.5 0.1,-0.1 0.3,-0.1 0.4,-0.2 4.1,-0.2 6.7,1.9 6.7,5.4 -0.1,1.5 -0.7,2.7 -1.6,3.7 z m -64.8,-8.6 c 1.7,1.1 2.7,2.7 2.8,4.8 0.1,2.6 -1.6,4.7 -4.3,5 -1.9,0.2 -3.9,0.4 -5.4,-1.1 -0.7,-1.6 -1.6,-3.2 -1.1,-5.1 0.8,-2.9 3.3,-4.5 6.3,-4 0.5,0.1 1.1,0.3 1.7,0.4 z"
       id="path10" /><path
       fill="#fd6289"
       d="m 127.6,113 c -0.1,0.1 -0.3,0.1 -0.4,0.2 0,-0.3 0.1,-0.4 0.4,-0.2 z"
       id="path12" /></g></svg>
