<svg xmlns="http://www.w3.org/2000/svg" id="Layer_1" data-name="Layer 1" viewBox="0 0 192 192"><defs><style>.cls-1{fill:#fff}.cls-2{fill:#56595b}</style></defs><path d="M95.42 138.65c-6.37 0-12.9-4.34-15.53-8.52A31.57 31.57 0 0 1 75 112.29c.12-4.84 3.67-8.4 9-9.06a11.72 11.72 0 0 1 1.28-.08 9 9 0 0 1 1.44.12c-.06-.13-1.91-4-2.39-5-2.93-6.1-5.95-12.4-7.47-19.42s-.17-14.46 3.94-21.34c.91-1.51 3.65-6.1 9.52-6.1a15.23 15.23 0 0 1 4.29.68l3.93 1.19 1.53.48c5.13 1.57 8.34 5.53 9 11.15a57.68 57.68 0 0 1 .31 6.07v2a11 11 0 0 1-.25 2.38c-.86 4.44-4 7.54-7.61 7.54a6.29 6.29 0 0 1-2.26-.42 12.65 12.65 0 0 1-1.78-.84c.64 1.55 1.35 3.11 2.07 4.71l.52 1.15 2 4.38c2.64 5.76 5.37 11.71 7.5 17.92 1.71 5 3 10.32 1 16-1.93 5.47-5.12 9.25-9.74 11.56a12.38 12.38 0 0 1-5.54 1.26Z" class="cls-1"/><path d="M89.86 117.19a29.29 29.29 0 0 0 .19 3.4 2.85 2.85 0 0 0 2.56 2.66c1.58.19 2.25-1 2.67-2.21a10.55 10.55 0 0 0 .39-5.58c-1.06-5.71-3.67-10.8-6.12-16-3.3-7-6.94-13.89-8.6-21.53-1.41-6.55.14-12.8 3.45-18.34 2.31-3.85 4.79-4.84 9.1-3.58 1.81.53 3.61 1.1 5.41 1.65 3.8 1.17 5.68 4 6.14 7.7.31 2.56.25 5.17.33 7.75a6.52 6.52 0 0 1-.17 1.45c-.55 2.85-2.49 4.77-4.33 4.06-2.48-1-5.25-3.24-3.68-6.57a11 11 0 0 0 .72-5.36 2 2 0 0 0-3.58-1.39 11.8 11.8 0 0 0-2.69 12.07 97.93 97.93 0 0 0 4.79 11.83c3.27 7.25 6.77 14.4 9.36 21.94 1.5 4.37 2.62 8.73 1 13.29a15.43 15.43 0 0 1-7.69 9.24c-5.51 2.75-13.32-1.94-15.72-5.76a27.31 27.31 0 0 1-4.23-15.54c.07-2.8 2-4.64 5.4-5 2.43-.3 3.78.71 4.64 3.5a14 14 0 0 1 .66 6.32Z" class="cls-2"/><path d="M118.21 132.35c-2 0-5.51-.78-6.72-6a24.63 24.63 0 0 1-.1-8.46c.12-1.13.24-2.2.27-3.21.18-7.93.64-16.49 1.41-26.18.1-1.36.23-2.73.36-4.09a89.91 89.91 0 0 0 .57-12.15c0-.53-.08-1.06-.13-1.59 0-.3-.06-.61-.08-.94l-1.74.12a5.52 5.52 0 0 1-.57 0 6.61 6.61 0 0 1-6.68-5.73l-.06-.29a18.9 18.9 0 0 1-.39-2.76 8.56 8.56 0 0 1 2.15-6.34 7.77 7.77 0 0 1 5.6-2.43c1.44 0 2.88-.08 4.32-.14 2.17-.08 4.41-.16 6.65-.16 1.87 0 3.55.06 5.13.18.68 0 1.37.07 2.06.07s1.61 0 2.42-.05h.48c4.89 0 8.07 3.07 8.11 7.83 0 5.26-3.13 8.8-8.08 9-.52 0-1 .08-1.54.13l-.85.09c.08 1.4.17 2.73.26 4.06a128.28 128.28 0 0 1 .46 13.53v4.48l.12 6.18c.11 5.35.21 10.69.33 16 0 1.47.13 2.93.21 4.39l.13 2.44v.27a14.21 14.21 0 0 0 0 1.72c0 .74.05 1.48 0 2.22a5.7 5.7 0 0 1-4.31 5.66l-1.18.32c-2.13.58-4.35 1.19-6.63 1.63a10.84 10.84 0 0 1-1.98.2Z" class="cls-1"/><path d="M127.4 91.37c.15 7.44.29 14.88.46 22.31 0 2.23.22 4.45.33 6.67-.12 1.4.09 2.79 0 4.19a1.62 1.62 0 0 1-1.32 1.67c-2.49.67-5 1.39-7.5 1.88s-3.31-.3-3.86-2.68c-.82-3.57.19-7.1.27-10.65.2-8.66.72-17.3 1.4-25.94.44-5.57 1.2-11.13 1-16.74-.07-1.6-.36-3.21-.28-4.8.09-1.88-.86-2.06-2.32-1.87-1.25.15-2.51.23-3.76.32a2.56 2.56 0 0 1-2.91-2.38 17.49 17.49 0 0 1-.38-2.48c-.12-2.47 1.25-4.36 3.7-4.41 5.23-.11 10.47-.54 15.7-.14a46.72 46.72 0 0 0 5 0c2.87-.08 4.21 1.16 4.23 3.72 0 3.06-1.43 4.75-4.14 4.88-1.18 0-2.36.25-3.54.3-3 .15-3 .13-2.84 3.28.32 6.07 1 12.12.77 18.21Z" class="cls-2"/><path d="M148.32 140.62a22.24 22.24 0 0 1-4.46-.49A18.43 18.43 0 0 1 130.74 130c-3.93-7.77-4.28-14.77-1.08-21.37 2.23-4.59 6.13-7 8.87-8.48 1.2-.63 2.41-1.21 3.62-1.77A11.84 11.84 0 0 1 135 87.24a126.32 126.32 0 0 1 3.18-26.85c.94-4 5-7.09 9.52-7.09a9.08 9.08 0 0 1 2.28.29 6.41 6.41 0 0 1 5 4.61 10.12 10.12 0 0 1 4.73-3.76 9.8 9.8 0 0 1 3-.5c4.51 0 7.76 3.37 7.92 8.2a49.66 49.66 0 0 1-1.64 12.46c-.3 1.31-.59 2.62-.84 3.94-.3 1.6-.61 3.18-.92 4.77 0 .28-.11.57-.17.86a22.33 22.33 0 0 1 4.73-3.17 9.23 9.23 0 0 1 4.47-1.33 6.82 6.82 0 0 1 5.42 2.71c2.92 3.6 3.1 7.86.47 11.1A38.22 38.22 0 0 1 172 102c-.67.41-1.36.81-2 1.21-1.11.65-2.17 1.27-3.16 1.94l.08 1.35a74 74 0 0 1 0 13.31 26.53 26.53 0 0 1-9.5 17.61 13.52 13.52 0 0 1-9.1 3.2Z" class="cls-1"/><path d="M178.47 85c-1.44-1.77-3.06-1.26-4.7-.36a17.36 17.36 0 0 0-4.26 3 20.06 20.06 0 0 1-7.86 5c.13-1.34.15-2.53.36-3.69.68-3.71 1.44-7.41 2.14-11.12 1-5.14 2.57-10.18 2.4-15.51-.1-3.25-2.41-4.91-5.52-3.9a7 7 0 0 0-3.83 5.07c-.35 6.64-1.62 13.18-2.28 19.78-.25 2.49-1.67 3.61-3.86 3.52s-3.34-1.38-3.48-3.86a52.85 52.85 0 0 1 .63-8.14c.47-4.82 2.06-9.41 2.82-14.18.3-1.87-.51-2.57-2.05-3-2.72-.71-6.12 1.11-6.74 3.74a123 123 0 0 0-3.06 26 7.81 7.81 0 0 0 6.31 7.86 29 29 0 0 0 9.52 1c-.09.66-.63.79-1 1-4.33 2.59-9.07 4.34-13.53 6.68-2.93 1.54-5.55 3.48-7.06 6.61-3 6.11-1.85 12 1 17.7a14.32 14.32 0 0 0 10.26 7.93c3.49.71 7 .7 10-1.79a22.45 22.45 0 0 0 8.06-14.94c.58-4.9.14-9.78-.13-14.67a2.5 2.5 0 0 1 1.16-2.45c1.93-1.4 4-2.5 6.06-3.74a34.69 34.69 0 0 0 9.11-7.65c1.4-1.78 1.22-3.89-.47-5.89ZM154 123.28c-1.88 3.37-5.18 4.35-8.94 2.51-2.24-1.1-3-4.58-1.86-7.62 1.31-3.46 3.86-5.73 6.88-7.61 1.35-.85 2.75-1.64 4.1-2.49 1.05-.66 1.5-.46 1.45.83-.06 1.47 0 2.93 0 4.4.02 3.42.08 6.83-1.63 9.98Z" class="cls-2"/><path d="M69.61 139.77a12.68 12.68 0 0 1-2.81-.34 7.23 7.23 0 0 1-5.83-7v-7.79l-2.27-.06c0 .55-.23 3.07-.23 3.07a12.71 12.71 0 0 1-.21 1.79c-1 4.85-7.6 7.54-11.79 7.54a10 10 0 0 1-1.85-.17 7.71 7.71 0 0 1-5.2-3.3 9.31 9.31 0 0 1-1-7.36c1.63-7.47 2.8-15.22 3.92-22.72 1-6.48 2-13.19 3.31-19.78a100.54 100.54 0 0 1 6.26-21.1c1.15-2.64 3.72-5.87 9.46-6.33h.72c5.22 0 7.2 4.47 7.85 5.94a57 57 0 0 1 4.66 19.92c.62 11 2.14 21.93 3.69 32.11.75 5 1.5 10.82.68 16.83-.71 5.31-4.39 8.75-9.36 8.75Z" class="cls-1"/><path d="M74.2 114.81c-1.64-10.79-3.11-21.58-3.73-32.5a53 53 0 0 0-4.31-18.49c-.87-2-2-3.66-4.45-3.46-2.66.21-4.87 1.23-6 3.86a98.68 98.68 0 0 0-6 20.26c-2.82 14.12-4.18 28.52-7.25 42.57-.73 3.33.39 5.24 2.92 5.72 3.2.6 8.34-1.81 8.82-4.14a10.39 10.39 0 0 0 .14-1.25c.13-1.82.3-3.63.35-5.45 0-1.16.48-1.61 1.65-1.56q3.66.16 7.34.19c1.07 0 1.5.4 1.46 1.49-.06 1.67 0 3.36 0 5v5.25a3.06 3.06 0 0 0 2.65 3.07c3.91.93 6.58-1 7.12-4.94.68-5.23.09-10.43-.71-15.62Zm-11.76-2.09c-1.81-.14-3.63-.16-5.44-.22-.71 0-1.21-.14-1.13-1.06 1-10.42 1.71-20.87 4.52-31a12.43 12.43 0 0 1 .61-1.3c.9 3.58.86 6.72 1.17 9.8.73 7.22 1.33 14.45 2.07 21.67.17 1.54-.15 2.23-1.8 2.11Z" class="cls-2"/><path d="M24.72 135.42a6.13 6.13 0 0 1-5.8-4.46 17.28 17.28 0 0 1-.57-8.18 66.79 66.79 0 0 0 .54-8.44c.05-5 .18-10 .3-15 .2-8.16.41-16.58.29-24.85h-4.14c-2.95-.21-6.91-1.13-7.3-6.74-.47-6.68 3.73-8.54 6.27-9.06s4.81-1 7.21-1.62a121.19 121.19 0 0 1 14.9-2.88 22.65 22.65 0 0 1 2.58-.1 18.15 18.15 0 0 1 5.32.76c4.21 1.29 5.39 4.15 5.68 6.24V66.22c0 2.78-1.57 5.78-6 6.22-.93.08-1.87.18-2.81.28L38.6 73c0 7.2-.19 14.44-.41 21.45-.17 5-.33 10.28-.4 15.4a60 60 0 0 0 .66 8.17c.17 1.37.33 2.74.47 4.1.18 2 .68 7.23-4 10.77l-.36.27-.4.19a6.86 6.86 0 0 1-2.9.62c-.4 0-.8 0-1.2-.08l-.28.1c-.87.31-1.74.62-2.6 1a7 7 0 0 1-2.46.43Z" class="cls-1"/><path d="M45.85 61.56c-.19-1.66-1.39-2.33-2.77-2.75a15.28 15.28 0 0 0-6.21-.47c-7.39.81-14.49 3-21.74 4.45-2.35.47-3.17 1.87-3 4.71.15 2.17.81 2.71 3.47 2.9a50.64 50.64 0 0 1 5.08 0c2.81-.08 2.83-.08 2.88 2.9.26 13.68-.42 27.36-.56 41a71.27 71.27 0 0 1-.59 9 13.13 13.13 0 0 0 .38 6.22c.48 1.36 1.35 2.08 2.9 1.49 1.29-.5 2.61-.95 3.91-1.42a5.16 5.16 0 0 0 2.81-.06c2.4-1.83 2.62-4.37 2.36-7.08-.41-4.24-1.19-8.44-1.14-12.72.16-13 1-26 .79-38.95 0-1.26.43-1.71 1.67-1.8 2.5-.17 5-.49 7.49-.72 1.35-.13 2.29-.62 2.3-2.14s-.09-3.02-.03-4.56Z" class="cls-2"/></svg>