<svg xmlns="http://www.w3.org/2000/svg" viewBox="0 0 192 192"><path fill="#f9de81" fill-rule="evenodd" d="M116.72 31.11C34.43 17.22-28.78 38 72.14 147.15 138.1 218.45 233.67 51 116.72 31.11Z"/><path fill="#56595b" fill-rule="evenodd" d="M47.1 55.23H119a5.08 5.08 0 0 1 5 5v11.95a5.08 5.08 0 0 1-5 5h-13.73a5.08 5.08 0 0 0-5 5V151a7.69 7.69 0 0 1-7.79 7.64H73.82A7.8 7.8 0 0 1 66 151V82.26a5.08 5.08 0 0 0-5-5H47.25a5.08 5.08 0 0 1-5-5V60.27a4.86 4.86 0 0 1 4.89-5Zm99.24-16.94a5.08 5.08 0 0 0-5-5h-12.1a5.08 5.08 0 0 0-5 5V50.2a5.08 5.08 0 0 0 5 5h12.06a5.08 5.08 0 0 0 5-5Z"/></svg>