<?xml version="1.0" encoding="UTF-8"?><svg id="a" xmlns="http://www.w3.org/2000/svg" width="192" height="192" viewBox="0 0 192 192"><defs><style>.d{fill:#ff837d;}.d,.e{stroke-width:0px;}.e{fill:#fff;fill-rule:evenodd;}</style></defs><g id="b"><g id="c"><path class="e" d="m172,30v132c0,5.52-4.48,10-10,10H30c-5.52,0-10-4.48-10-10V30c0-5.52,4.48-10,10-10h132c5.52,0,10,4.48,10,10Z"/><polygon class="d" points="109.34 69.33 96.01 82.65 96.01 82.69 109.34 96 96.01 109.32 96.01 109.35 109.34 122.67 136 96 109.34 69.33"/><polygon class="d" points="82.67 69.33 95.98 82.65 95.98 82.69 82.67 96 95.98 109.32 95.98 109.35 82.67 122.67 56 96 82.67 69.33"/></g></g></svg>