<?xml version="1.0" encoding="UTF-8"?>
<svg version="1.1" viewBox="0 0 192 192" xmlns="http://www.w3.org/2000/svg">
 <circle class="a" cx="96" cy="96" r="88" style="fill:#56595b"/>
 <g transform="translate(-.5 -.5)" style="fill:none">
  <path d="m80.454 80.353v-0.085h0.255v-0.085h0.255v-0.085h0.255v-0.085h0.255v-0.085h0.17v-0.085h0.255v-0.085h0.255v-0.085h0.255v-0.085h0.255v-0.084h0.255v-0.085h0.255v-0.085h0.255v-0.085h0.254v-0.085h0.17v-0.085h0.255v-0.085h0.255v-0.085h0.255v-0.085h0.255v-0.085h0.255v-0.085h0.17v-0.085h0.255v-0.085h0.255v-0.084h0.255v-0.085h0.17v-0.085h0.255v-0.085h0.255v-0.085h0.255v-0.085h0.17v-0.085h0.255v-0.085h0.254v-0.085h0.255v-0.085h0.17v-0.085h0.255v-0.085h0.255v-0.085h0.255v-0.084h0.17v-0.086h0.255v-0.084h0.255v-0.085h0.255v-0.085h0.17v-0.085h0.255v-0.085h0.255v-0.086h0.255v-0.085h0.17v-0.085h0.255v-0.085h0.255v-0.085h0.255v-0.085h0.17v-0.085h0.254v-0.085h0.255v-0.084h0.255v-0.085h0.17v-0.085h0.255v-0.085h0.255v-0.085h0.255v-0.085h0.17v-0.085h0.255v-0.085h0.255v-0.085h0.255v-0.085h0.17v-0.085h0.255v-0.085h0.255v-0.085h0.17v-0.084h0.255v-0.086h0.254v-0.084h0.256v-0.085h0.17v-0.085h0.254v-0.085h0.255v-0.085h0.255v-0.085h0.17v-0.085h0.255v-0.085h0.255v-0.085h0.255v-0.085h0.255v-0.085h0.17v-0.085h0.255v-0.085h0.255v-0.084h0.17v-0.085h0.255v-0.085h0.255v-0.085h0.255v-0.085h0.254v-0.085h0.17v-0.085h0.255v-0.085h0.255v-0.085h0.17v-0.085h0.255v-0.085h0.255v-0.085h0.255v-0.085h0.255v-0.084h0.17v-0.086h0.255v-0.084h0.255v-0.085h0.255v-0.084h0.17v-0.085h0.255v-0.085h0.255v-0.085h0.255v-0.085h0.17v-0.085h0.254v-0.085h0.255v-0.085h0.255v-0.085h0.255v-0.085h0.17v-0.085h0.255v-0.084h0.255v-0.085h0.255v-0.085h0.255v-0.085h0.17v-0.085h0.255v-0.085h0.255v-0.085h0.255v-0.085h0.255v-0.085h0.17v-0.085h0.255v-0.085h0.255v-0.085h0.254v-0.085h0.255v-0.084h0.255v-0.085h0.17v-0.085h0.255v-0.085h0.255v-0.085h0.255v-0.085h0.255v-0.085h0.255v-0.085h0.17v-0.085h0.255v-0.085h0.255v-0.085h0.255v-0.085h0.255v-0.085h0.255v-0.085h0.17v-0.085h0.255v-0.084h0.254v-0.085h0.255v-0.085h0.255v-0.085h0.255v-0.085h0.255v-0.085h0.255v-0.085h0.17v-0.085h0.34v-0.085h0.17v-0.085h0.255v-0.085h0.255v-0.085h0.255v-0.085h0.255v-0.084h0.255v-0.085h0.255v-0.085h0.255v-0.085h0.255v-0.085h0.254v-0.085h0.255v-0.085h0.34v-0.085h0.255v-0.085h0.255v-0.085h0.255v-0.085h0.34v-0.085h0.255v-0.085h0.34v-0.085h0.255v-0.085h0.34v-0.084h0.34v-0.085h0.34v-0.085h0.424v-0.085h0.51v-0.085h0.51v-0.085h0.68v-0.085h1.615v0.085h0.51v0.085h0.339v0.085h0.255v0.085h0.17v0.085h0.17v0.085h0.17v0.084h0.085v0.085h0.17v0.085h0.085v0.085h0.085v0.085h0.085v0.085h0.085v0.085h0.085v0.085h0.085v0.17h0.085v0.085h0.085v0.17h0.085v0.17h0.085v0.254h0.085v0.255h0.085v0.34h0.085v0.424h0.085v1.954h-0.085v0.764h-0.085v0.51h-0.085v0.424h-0.085v0.425h-0.085v0.425h-0.085v0.34h-0.085v0.339h-0.085v0.34h-0.085v0.34h-0.085v0.254h-0.085v0.34h-0.085v0.34h-0.085v0.254h-0.085v0.34h-0.085v0.255h-0.085v0.34h-0.085v0.255h-0.085v0.34h-0.085v0.254h-0.085v0.255h-0.085v0.34h-0.085v0.254h-0.085v0.255h-0.085v0.34h-0.085v0.254h-0.085v0.255h-0.085v0.255h-0.084v0.255h-0.085v0.34h-0.085v0.254h-0.085v0.255h-0.085v0.255h-0.085v0.255h-0.085v0.34h-0.085v0.254h-0.085v0.255h-0.085v0.255h-0.085v0.255h-0.085v0.254h-0.085v0.255h-0.085v0.255h-0.085v0.34h-0.085v0.254h-0.085v0.255h-0.085v0.255h-0.085v0.255h-0.085v0.255h-0.085v0.254h-0.085v0.255h-0.085v0.255h-0.085v0.255h-0.085v0.254h-0.085v0.255h-0.085v0.255h-0.085v0.255h-0.085v0.255h-0.085v0.254h-0.085v0.255h-0.085v0.255h-0.085v0.255h-0.085v0.255h-0.085v0.254h-0.085v0.255h-0.085v0.255h-0.085v0.255h-0.085v0.255h-0.085v0.254h-0.085v0.255h-0.085v0.255h-0.085v0.255h-0.085v0.254h-0.085v0.255h-0.085v0.255h-0.085v0.255h-0.085v0.254h-0.084v0.255h-0.085v0.255h-0.085v0.255h-0.085v0.255h-0.085v0.254h-0.085v0.255h-0.085v0.255h-0.085v0.255h-0.085v0.17h-0.085v0.255h-0.085v0.254h-0.085v0.255h-0.085v0.255h-0.085v0.255h-0.085v0.254h-0.085v0.255h-0.085v0.255h-0.085v0.255h-0.085v0.254h-0.085v0.17h-0.085v0.255h-0.085v0.255h-0.085v0.255h-0.085v0.255h-0.085v0.254h-0.085v0.255h-0.085v0.255h-0.085v0.255h-0.085v0.254h-0.085v0.17h-0.085v0.255h-0.085v0.255h-0.085v0.255h-0.085v0.254h-0.085v0.255h-0.085v0.255h-0.085v0.255h-0.085v0.17h-0.085v0.254h-0.085v0.255h-0.085v0.255h-0.085v0.255h-0.085v0.255h-0.085v0.254h-0.085v0.255h-0.085v0.17h-0.085v0.255h-0.085v0.255h-0.084v0.254h-0.085v0.255h-0.085v0.255h-0.085v0.17h-0.085v0.255h-0.085v0.254h-0.085v0.255h-0.085v0.255h-0.085v0.255h-0.085v0.17h-0.085v0.254h-0.085v0.255h-0.085v0.255h-0.085v0.255h-0.085v0.254h-0.085v0.17h-0.085v0.255h-0.085v0.255h-0.085v0.255h-0.085v0.254h-0.085v0.17h-0.085v0.255h-0.085v0.255h-0.085v0.255h-0.085v0.254h-0.085v0.17h-0.085v0.255h-0.085v0.255h-0.085v0.255h-0.085v0.254h-0.085v0.17h-0.085v0.255h-0.085v0.255h-0.085v0.255h-0.085v0.17h-0.085v0.254h-0.085v0.255h-0.085v0.255h-0.085v0.17h-0.085v0.255h-0.085v0.254h-0.085v0.255h-0.085v0.255h-0.085v0.255h-0.085v0.17h-0.085v0.254h-0.085v0.255h-0.085v0.255h-0.085v0.255h-0.084v0.254h-0.085v0.255h-0.085v0.255h-0.085v0.255h-0.085v0.255h-0.085v0.254h-0.085v0.255h-0.085v0.255h-0.085v0.255h-0.085v0.255h-0.085v0.254h-0.085v0.255h-0.085v0.17h-0.085v0.255h-0.085v0.254h-0.085v0.255h-0.085v0.255h-0.085v0.255h-0.085v0.255h-0.085v0.254h-0.085v0.255h-0.085v0.255h-0.085v0.255h-0.085v0.255h-0.085v0.254h-0.085v0.255h-0.085v0.255h-0.085v0.17h-0.085v0.255h-0.085v0.254h-0.085v0.255h-0.085v0.255h-0.085v0.255h-0.085v0.254h-0.085v0.255h-0.085v0.17h-0.085v0.255h-0.085v0.255h-0.085v0.254h-0.085v0.17h-0.085v0.255h-0.085v0.255h-0.085v0.255h-0.085v0.17h-0.085v0.254h-0.085v0.255h-0.085v0.255h-0.085v0.17h-0.084v0.255h-0.085v0.169h-0.085v0.255h-0.085v0.17h-0.085v0.255h-0.085v0.255h-0.085v0.169h-0.085v0.17h-0.085v0.255h-0.085v0.17h-0.085v0.255h-0.085v0.17h-0.085v0.254h-0.085v0.17h-0.085v0.17h-0.085v0.255h-0.085v0.17h-0.085v0.17h-0.085v0.169h-0.085v0.255h-0.085v0.17h-0.085v0.17h-0.085v0.17h-0.085v0.17h-0.085v0.17h-0.085v0.169h-0.085v0.17h-0.085v0.17h-0.085v0.17h-0.085v0.17h-0.085v0.085h-0.085v0.17h-0.085v0.169h-0.085v0.17h-0.085v0.085h-0.085v0.17h-0.085v0.085h-0.085v0.17h-0.085v0.085h-0.085v0.085h-0.085v0.085h-0.085v0.17h-0.085v0.084h-0.085v0.085h-0.085v0.085h-0.085v0.085h-0.085v0.085h-0.085v0.085h-0.084v0.085h-0.085v0.085h-0.085v0.085h-0.085v0.085h-0.085v0.085h-0.17v0.085h-0.085v0.085h-0.085v0.085h-0.17v0.084h-0.17v0.085h-0.085v0.085h-0.17v0.085h-0.17v0.085h-0.255v0.085h-0.34v0.085h-1.36v-0.085h-0.34v-0.085h-0.255v-0.085h-0.17v-0.085h-0.17v-0.085h-0.17v-0.085h-0.17v-0.084h-0.084v-0.085h-0.17v-0.085h-0.085v-0.085h-0.17v-0.085h-0.085v-0.085h-0.085v-0.085h-0.17v-0.085h-0.085v-0.085h-0.085v-0.085h-0.085v-0.085h-0.085v-0.085h-0.085v-0.085h-0.085v-0.085h-0.085v-0.084h-0.085v-0.085h-0.085v-0.085h-0.085v-0.085h-0.085v-0.085h-0.085v-0.085h-0.085v-0.085h-0.085v-0.085h-0.085v-0.085h-0.085v-0.085h-0.085v-0.17h-0.085v-0.085h-0.085v-0.085h-0.085v-0.084h-0.085v-0.17h-0.085v-0.085h-0.085v-0.085h-0.085v-0.17h-0.085v-0.085h-0.085v-0.085h-0.085v-0.17h-0.085v-0.085h-0.085v-0.17h-0.084v-0.084h-0.085v-0.17h-0.085v-0.085h-0.086v-0.17h-0.084v-0.085h-0.085v-0.17h-0.085v-0.17h-0.085v-0.085h-0.085v-0.17h-0.085v-0.169h-0.085v-0.085h-0.085v-0.17h-0.085v-0.17h-0.085v-0.17h-0.086v-0.085h-0.085v-0.17h-0.085v-0.17h-0.085v-0.169h-0.085v-0.17h-0.085v-0.17h-0.085v-0.17h-0.085v-0.17h-0.085v-0.17h-0.085v-0.17h-0.085v-0.169h-0.085v-0.17h-0.085v-0.17h-0.085v-0.17h-0.085v-0.255h-0.085v-0.17h-0.085v-0.169h-0.085v-0.17h-0.085v-0.17h-0.085v-0.255h-0.085v-0.17h-0.085v-0.255h-0.085v-0.169h-0.085v-0.17h-0.085v-0.17h-0.085v-0.17h-0.085v-0.17h-0.085v-0.17h-0.085v-0.17h-0.085v-0.169h-0.085v-0.17h-0.085v-0.17h-0.085v-0.17h-0.085v-0.17h-0.085v-0.17h-0.084v-0.17h-0.086v-0.169h-0.084v-0.17h-0.085v-0.17h-0.085v-0.17h-0.085v-0.255h-0.085v-0.17h-0.085v-0.17h-0.085v-0.169h-0.085v-0.17h-0.085v-0.17h-0.085v-0.17h-0.085v-0.17h-0.085v-0.17h-0.085v-0.17h-0.085v-0.169h-0.085v-0.255h-0.085v-0.17h-0.085v-0.17h-0.085v-0.17h-0.085v-0.17h-0.085v-0.169h-0.085v-0.17h-0.085v-0.17h-0.085v-0.17h-0.085v-0.255h-0.085v-0.17h-0.085v-0.17h-0.085v-0.169h-0.085v-0.17h-0.085v-0.17h-0.085v-0.255h-0.085v-0.17h-0.085v-0.17h-0.085v-0.169h-0.085v-0.17h-0.085v-0.17h-0.085v-0.17h-0.085v-0.255h-0.085v-0.17h-0.085v-0.169h-0.085v-0.17h-0.085v-0.17h-0.085v-0.17h-0.085v-0.255h-0.085v-0.17h-0.085v-0.17h-0.084v-0.169h-0.086v-0.17h-0.084v-0.17h-0.086v-0.255h-0.085v-0.17h-0.084v-0.17h-0.085v-0.169h-0.085v-0.17h-0.085v-0.17h-0.085v-0.17h-0.085v-0.17h-0.085v-0.17h-0.085v-0.17h-0.085v-0.169h-0.085v-0.17h-0.085v-0.17h-0.085v-0.17h-0.085v-0.17h-0.085v-0.17h-0.085v-0.17h-0.085v-0.085h-0.085v-0.169h-0.085v-0.17h-0.085v-0.17h-0.085v-0.085h-0.085v-0.17h-0.085v-0.17h-0.085v-0.085h-0.085v-0.17h-0.085v-0.084h-0.085v-0.17h-0.085v-0.085h-0.085v-0.17h-0.085v-0.085h-0.085v-0.085h-0.085v-0.17h-0.085v-0.085h-0.085v-0.085h-0.085v-0.085h-0.085v-0.085h-0.085v-0.169h-0.085v-0.085h-0.085v-0.085h-0.085v-0.085h-0.085v-0.085h-0.085v-0.085h-0.085v-0.085h-0.085v-0.085h-0.085v-0.085h-0.084v-0.085h-0.086v-0.085h-0.085v-0.085h-0.17v-0.085h-0.084v-0.084h-0.085v-0.085h-0.085v-0.085h-0.085v-0.085h-0.17v-0.085h-0.085v-0.085h-0.085v-0.085h-0.17v-0.085h-0.085v-0.085h-0.17v-0.085h-0.085v-0.085h-0.17v-0.085h-0.085v-0.085h-0.17v-0.085h-0.085v-0.084h-0.17v-0.085h-0.17v-0.085h-0.085v-0.085h-0.17v-0.085h-0.17v-0.085h-0.085v-0.085h-0.17v-0.085h-0.17v-0.085h-0.17v-0.085h-0.17v-0.085h-0.17v-0.085h-0.17v-0.085h-0.17v-0.085h-0.084v-0.084h-0.17v-0.085h-0.17v-0.085h-0.17v-0.085h-0.17v-0.085h-0.17v-0.085h-0.254v-0.085h-0.17v-0.085h-0.17v-0.085h-0.17v-0.085h-0.17v-0.085h-0.17v-0.085h-0.17v-0.085h-0.17v-0.085h-0.17v-0.084h-0.17v-0.085h-0.17v-0.085h-0.255v-0.085h-0.17v-0.085h-0.17v-0.085h-0.17v-0.085h-0.17v-0.085h-0.17v-0.085h-0.17v-0.085h-0.255v-0.085h-0.17v-0.085h-0.17v-0.085h-0.17v-0.085h-0.17v-0.084h-0.17v-0.085h-0.17v-0.085h-0.254v-0.085h-0.17v-0.085h-0.17v-0.085h-0.17v-0.085h-0.17v-0.085h-0.17v-0.085h-0.255v-0.085h-0.17v-0.085h-0.17v-0.085h-0.17v-0.085h-0.17v-0.085h-0.17v-0.084h-0.255v-0.085h-0.17v-0.085h-0.17v-0.085h-0.17v-0.085h-0.17v-0.085h-0.17v-0.085h-0.254v-0.085h-0.17v-0.085h-0.17v-0.085h-0.17v-0.085h-0.17v-0.085h-0.17v-0.085h-0.17v-0.085h-0.255v-0.084h-0.17v-0.085h-0.17v-0.085h-0.17v-0.085h-0.17v-0.085h-0.17v-0.085h-0.17v-0.085h-0.17v-0.085h-0.255v-0.085h-0.17v-0.085h-0.17v-0.085h-0.17v-0.085h-0.17v-0.085h-0.17v-0.084h-0.17v-0.085h-0.17v-0.085h-0.17v-0.085h-0.254v-0.085h-0.17v-0.085h-0.17v-0.085h-0.17v-0.085h-0.17v-0.085h-0.17v-0.085h-0.17v-0.085h-0.255v-0.085h-0.17v-0.085h-0.255v-0.085h-0.17v-0.085h-0.17v-0.084h-0.255v-0.085h-0.17v-0.085h-0.17v-0.085h-0.17v-0.085h-0.17v-0.085h-0.17v-0.085h-0.17v-0.085h-0.17v-0.085h-0.17v-0.085h-0.17v-0.085h-0.17v-0.085h-0.17v-0.085h-0.17v-0.084h-0.084v-0.085h-0.17v-0.085h-0.17v-0.085h-0.085v-0.085h-0.17v-0.085h-0.085v-0.085h-0.17v-0.085h-0.085v-0.085h-0.17v-0.085h-0.085v-0.085h-0.17v-0.085h-0.085v-0.085h-0.17v-0.085h-0.085v-0.085h-0.085v-0.084h-0.085v-0.085h-0.17v-0.085h-0.085v-0.085h-0.085v-0.085h-0.085v-0.085h-0.085v-0.085h-0.085v-0.085h-0.17v-0.085h-0.084v-0.085h-0.086v-0.085h-0.085v-0.085h-0.084v-0.085h-0.085v-0.084h-0.085v-0.085h-0.085v-0.17h-0.085v-0.085h-0.085v-0.085h-0.085v-0.085h-0.085v-0.085h-0.085v-0.17h-0.085v-0.085h-0.085v-0.085h-0.085v-0.17h-0.085v-0.085h-0.085v-0.17h-0.085v-0.084h-0.085v-0.17h-0.085v-0.17h-0.085v-0.17h-0.085v-0.17h-0.085v-0.254h-0.085v-0.255h-0.085v-0.34h-0.085v-0.425h-0.085v-0.849h0.085v-0.425h0.085v-0.34h0.085v-0.254h0.085v-0.17h0.085v-0.17h0.085v-0.17h0.085v-0.17h0.085v-0.084h0.085v-0.17h0.085v-0.085h0.085v-0.17h0.085v-0.085h0.085v-0.085h0.085v-0.085h0.085v-0.085h0.085v-0.085h0.085v-0.085h0.085v-0.085h0.085v-0.084h0.085v-0.085h0.085v-0.085h0.085v-0.085h0.085v-0.085h0.084v-0.085h0.085v-0.085h0.17v-0.085h0.085v-0.085h0.085v-0.085h0.17v-0.085h0.085v-0.085h0.17v-0.085h0.085v-0.084h0.17v-0.085h0.085v-0.085h0.17v-0.085h0.17v-0.085h0.17v-0.085h0.085v-0.085h0.17v-0.085h0.255v-0.085h0.17v-0.085h0.17v-0.085h0.17v-0.085h0.255v-0.085h0.17v-0.085h0.255v-0.085h0.17v-0.084h0.255v-0.085h0.17v-0.085h0.255v-0.085h0.17v-0.085h0.254v-0.085h0.255v-0.085h0.17v-0.085h0.255v-0.085h0.17v-0.085h0.255v-0.085h0.255v-0.085h0.17v-0.085h0.255v-0.084h0.255v-0.085h0.255v-0.085h0.17v-0.085h0.255v-0.085h0.255v-0.085h0.255v-0.085h0.17v-0.085h0.255v-0.085h0.254v-0.085h0.255v-0.085h0.17v-0.084h0.255v-0.085h0.255v-0.085h0.255v-0.085h0.17v-0.084h0.255v-0.085h0.255v-0.085h0.255v-0.085h0.255v-0.085h0.17v-0.085h0.255v-0.085h0.255v-0.085h0.255v-0.085h0.255v-0.085h0.255v-0.085h0.17v-0.085h0.254v-0.085h0.255v-0.084h0.255v-0.085h0.255v-0.085h0.255v-0.087h0.17v-0.085h0.255v-0.085h0.255v-0.085h0.255v-0.085h0.255v-0.085h0.255v-0.085h0.255v-0.085h0.255v-0.085h0.17v-0.085h0.254v-0.085h0.255v-0.085h0.255v-0.084h0.255v-0.085h0.255v-0.085h0.255v-0.085h0.255v-0.085h0.255v-0.085h0.17v-0.085h0.255v-0.085h0.255v-0.085h0.255v-0.085h0.255v-0.085h0.255v-0.085h0.255v-0.085h0.255v-0.084h0.255v-0.085h0.17v-0.085h0.254v-0.085h0.255v-0.085h0.255v-0.085h0.255z" clip-rule="evenodd" fill="#fff" fill-rule="evenodd"/>
 </g>
 <path d="m71.964 58.189c-0.82011 3.393-1.9627 6.5281-6.0455 7.3109 4.1586 0.22963 5.1261 2.6292 6.0455 5.0614 0.50876-2.9057 2.4376-4.5687 5.0614-5.6238-3.1072-1.0876-4.87-3.2752-5.0614-6.7485z" style="fill:#fff;stroke-linecap:round;stroke-linejoin:round;stroke-width:2.2495"/>
 <path d="m115.71 37.939c-0.82011 3.393-1.9627 6.5281-6.0455 7.3109 4.1586 0.22963 5.1261 2.6292 6.0455 5.0614 0.50876-2.9057 2.4376-4.5687 5.0614-5.6238-3.1072-1.0876-4.87-3.2752-5.0614-6.7485z" style="fill:#fff;stroke-linecap:round;stroke-linejoin:round;stroke-width:2.2495"/>
 <path d="m101.9 63.189c-0.43897 1.8161-1.0505 3.4942-3.2359 3.9132 2.2259 0.12291 2.7437 1.4073 3.2359 2.7091 0.27231-1.5553 1.3047-2.4454 2.7091-3.0101-1.6631-0.58215-2.6066-1.7531-2.7091-3.6121z" style="fill:#fff;stroke-linecap:round;stroke-linejoin:round;stroke-width:1.204"/>
 <path d="m147.72 111.69c-0.98584 4.0786-2.3593 7.8472-7.2671 8.7882 4.9989 0.27603 6.1619 3.1604 7.2671 6.0841 0.61155-3.4928 2.9302-5.4919 6.0841-6.7601-3.735-1.3074-5.854-3.9371-6.0841-8.1121z" style="fill:#fff;stroke-linecap:round;stroke-linejoin:round;stroke-width:2.704"/>
 <path d="m101.12 141.94c-0.80355 3.3244-1.923 6.3962-5.9234 7.1632 4.0745 0.22499 5.0225 2.576 5.9234 4.9591 0.49847-2.8469 2.3884-4.4764 4.9591-5.5101-3.0444-1.0657-4.7715-3.2091-4.9591-6.6121z" style="fill:#fff;stroke-linecap:round;stroke-linejoin:round;stroke-width:2.204"/>
 <path d="m42.082 94.866c-0.52666 2.1789-1.2604 4.1921-3.8822 4.6948 2.6705 0.14746 3.2918 1.6884 3.8822 3.2502 0.3267-1.8659 1.5653-2.9339 3.2502-3.6114-1.9953-0.69844-3.1273-2.1033-3.2502-4.3337z" style="fill:#fff;stroke-linecap:round;stroke-linejoin:round;stroke-width:1.4446"/>
 <path d="m55.832 76.366c-0.52666 2.1789-1.2604 4.1921-3.8822 4.6948 2.6705 0.14746 3.2918 1.6884 3.8822 3.2502 0.3267-1.8659 1.5653-2.9339 3.2502-3.6114-1.9953-0.69844-3.1273-2.1033-3.2502-4.3337z" style="fill-opacity:.5;fill:#fff;stroke-linecap:round;stroke-linejoin:round;stroke-width:1.4446"/>
 <path d="m148.58 65.366c-0.52665 2.1789-1.2604 4.1921-3.8822 4.6948 2.6705 0.14746 3.2918 1.6884 3.8822 3.2502 0.3267-1.8659 1.5653-2.9339 3.2502-3.6114-1.9953-0.69844-3.1273-2.1033-3.2502-4.3337z" style="fill-opacity:.5;fill:#fff;stroke-linecap:round;stroke-linejoin:round;stroke-width:1.4446"/>
 <path d="m143.33 95.616c-0.52665 2.1789-1.2604 4.1921-3.8822 4.6948 2.6705 0.14746 3.2918 1.6884 3.8822 3.2502 0.3267-1.8659 1.5653-2.9339 3.2502-3.6114-1.9953-0.69844-3.1273-2.1033-3.2502-4.3337z" style="fill-opacity:.5;fill:#fff;stroke-linecap:round;stroke-linejoin:round;stroke-width:1.4446"/>
 <path d="m132.08 141.37c-0.52666 2.1789-1.2604 4.1921-3.8822 4.6948 2.6705 0.14746 3.2918 1.6884 3.8822 3.2502 0.3267-1.8659 1.5653-2.9339 3.2502-3.6114-1.9953-0.69844-3.1273-2.1032-3.2502-4.3337z" style="fill-opacity:.5;fill:#fff;stroke-linecap:round;stroke-linejoin:round;stroke-width:1.4446"/>
 <path d="m86.082 127.87c-0.52666 2.1789-1.2604 4.1921-3.8822 4.6948 2.6705 0.14746 3.2918 1.6884 3.8822 3.2502 0.3267-1.8659 1.5653-2.9339 3.2502-3.6114-1.9953-0.69844-3.1273-2.1032-3.2502-4.3337z" style="fill-opacity:.5;fill:#fff;stroke-linecap:round;stroke-linejoin:round;stroke-width:1.4446"/>
 <path d="m69.832 139.12c-0.52666 2.1789-1.2604 4.1921-3.8822 4.6948 2.6705 0.14746 3.2918 1.6884 3.8822 3.2502 0.3267-1.8659 1.5653-2.9339 3.2502-3.6114-1.9953-0.69844-3.1273-2.1032-3.2502-4.3337z" style="fill-opacity:.5;fill:#fff;stroke-linecap:round;stroke-linejoin:round;stroke-width:1.4446"/>
 <path d="m60.582 124.12c-0.52666 2.1789-1.2604 4.1921-3.8822 4.6948 2.6705 0.14746 3.2918 1.6884 3.8822 3.2502 0.3267-1.8659 1.5653-2.9339 3.2502-3.6114-1.9953-0.69844-3.1273-2.1032-3.2502-4.3337z" style="fill-opacity:.5;fill:#fff;stroke-linecap:round;stroke-linejoin:round;stroke-width:1.4446"/>
</svg>
