<svg xmlns="http://www.w3.org/2000/svg" viewBox="0 0 192 192"><rect width="176" height="128" x="8" y="32" rx="10" style="fill:#ff837d;stroke:none;opacity:1;stroke-linecap:round;stroke-linejoin:round;isolation:isolate"/><path d="M33.979 32c-6.564 2.962-12.833 6.887-19.131 10.305-2.385 1.293-5.039 2.387-6.848 4.404v99.799c10.736 5.042 25.68-3.923 37.967-1.694 5.996 1.088 11.003 6.106 17.084 6.508 13.832.915 26.612-9.681 40.474-9.558 13.993.124 26.744 11.66 40.678 10.37 12.353-1.143 26.93-5.306 33.764-15.66 2.758-4.178 4.736-8.867 6.033-13.837V89.635c-1.04-4.667-2.45-9.183-4.203-13.364-2.821-6.724-9.895-10.966-16.068-14.847-10.925-6.869-23.096-14.182-36-14.238-6.976-.03-15.303 13.077-19.526 7.525-4.548-5.979 16.404-11.206 13.424-18.102A21.034 21.034 0 0 0 118.908 32h-84.93z" style="fill:#f8c18c;stroke:none;stroke-width:1px;stroke-linecap:butt;stroke-linejoin:miter;stroke-opacity:1"/><path d="M53.377 32a155.622 155.622 0 0 0-13.309 3.797c-6.041 2.016-12.614 4.222-16.882 8.95-3.384 3.746-2.132 10.455-5.694 14.032-2.286 2.296-6.64 1.76-9.492 3.112v78.76c6.624 5.897 18.43 3.824 27.594 4.163 4.773.177 9.516-2.362 14.236-1.628 5.068.787 8.91 6.148 14.035 6.306 8.257.254 15.06-7.264 23.186-8.746 9.404-1.715 19.37-2.176 28.678 0 6.701 1.567 11.643 9.66 18.507 9.152 15.061-1.112 29.384-12.92 37.221-25.83 6.384-10.516 7.74-24.696 4.678-36.611-2.549-9.916-9.49-19.276-18.102-24.812-7.102-4.566-16.495-6.535-24.812-5.086-8.603 1.498-13.648 13.286-22.373 13.627-5.545.216-9.36-8.338-14.848-7.526-8.443 1.25-10.415 20.41-18.508 17.695-4.819-1.615-4.16-10.267-2.441-15.05 3.994-11.123 17.93-15.407 26.644-23.389 3.112-2.85 10.265-4.676 9.153-8.746A6.465 6.465 0 0 0 109.8 32H53.377z" style="fill:#f9de81;stroke:none;stroke-width:1px;stroke-linecap:butt;stroke-linejoin:miter;stroke-opacity:1"/><path d="M172 32v112s0 4-4 4H8v2c0 5.54 4.46 10 10 10h156c5.54 0 10-4.46 10-10V42c0-5.54-4.46-10-10-10z" style="opacity:1;vector-effect:none;fill:#56595b;fill-opacity:1;fill-rule:evenodd;stroke:none;stroke-width:8;stroke-linecap:round;stroke-linejoin:round;stroke-miterlimit:4;stroke-dasharray:none;paint-order:stroke fill markers"/><path d="M27.236 62.18C20.306 62.362 13.4 66.297 8 71.54v57.218c3.95 1.703 9.337-.03 13.764.8 13.559 2.546 26.283 9.77 40.066 10.374 16.413.718 32.185-7.857 48.611-8.135 7.728-.13 15.267 2.612 22.983 3.05 21.948 1.25 31.119-18.638 31.728-34.17.705-17.937-13.762-32.942-26.236-29.083-7.944 2.457-18.036 10.179-27.459 14.44-12.632 5.71-25.213 17.351-38.848 14.847-19.032-3.496-24.037-37.023-43.32-38.645a18.655 18.655 0 0 0-2.053-.056z" style="fill:#fff;stroke:none;stroke-width:1px;stroke-linecap:butt;stroke-linejoin:miter;stroke-opacity:1"/></svg>