<?xml version="1.0" encoding="UTF-8"?>
<svg version="1.1" viewBox="0 0 192 192" xmlns="http://www.w3.org/2000/svg">
 <g transform="matrix(8.7348 0 0 8.7348 8.6525 8.6525)">
  <path d="m7.8833 9.4345v2.6568" style="fill:#56595b;stroke-linecap:round;stroke-linejoin:round;stroke-width:.9;stroke:#fff"/>
  <path d="m12.117 9.4345v2.6568" style="fill:#56595b;stroke-linecap:round;stroke-linejoin:round;stroke-width:.9;stroke:#fff"/>
  <path d="m4.2839 2.2248h11.432c0.90689 0 1.8742 0.76167 1.637 1.637l-1.2145 4.4816c-0.2372 0.87532-0.7301 1.637-1.637 1.637h-9.0032c-0.90689 0-1.3998-0.76167-1.637-1.637l-1.2145-4.4816c-0.2372-0.87532 0.7301-1.637 1.637-1.637z" style="fill:#56595b;stroke-linecap:round;stroke-linejoin:round;stroke-width:.9;stroke:#fff"/>
  <rect x="3.3704" y="12.627" width="13.259" height="5.1484" ry="1.3273" style="fill:#56595b;stroke-linecap:round;stroke-linejoin:round;stroke-width:.9;stroke:#fff"/>
  <path d="m5.6526 3.8526h8.6948" style="fill:none;stroke-linecap:round;stroke-linejoin:round;stroke-width:.9;stroke:#728dbe"/>
  <rect x="9.0268" y="13.828" width="5.5978" height="2.6259" style="fill:#56595b;stroke-linecap:round;stroke-linejoin:round;stroke-width:.6;stroke:#fff"/>
  <path transform="matrix(1.1377 0 0 1.1377 -1.7136 -.30791)" d="m8.2352 13.681-2.0044 1.1573v-2.3145z" style="fill:#56595b;stroke-linecap:round;stroke-linejoin:round;stroke-width:.52736;stroke:#fff"/>
  <path d="m12.042 5.9693h3.0996" style="stroke-linecap:round;stroke-linejoin:round;stroke-width:.9;stroke:#728dbe"/>
  <path d="m5.6526 8.086h3.9323" style="stroke-linecap:round;stroke-linejoin:round;stroke-width:.9;stroke:#728dbe"/>
  <path d="m4.8588 5.9693h5.6138" style="stroke-linecap:round;stroke-linejoin:round;stroke-width:.9;stroke:#728dbe"/>
  <path d="m12.003 8.086h2.3448" style="stroke-linecap:round;stroke-linejoin:round;stroke-width:.9;stroke:#728dbe"/>
 </g>
</svg>
