<svg xmlns="http://www.w3.org/2000/svg" id="svg2" width="192" height="192" version="1.1"><defs id="defs4"><clipPath id="clip0"><path id="rect860" fill="#fff" d="M0 0h192v192H0z"/></clipPath></defs><g id="layer1" transform="translate(0 -860.362)"><circle id="circle1036" cx="96" cy="956.362" r="88" style="fill:#575a5c;fill-opacity:1;fill-rule:evenodd;stroke:none;stroke-opacity:1"/><g id="g877" style="fill:none" transform="translate(58.09 919.219) scale(.38292)"><g id="g858" clip-path="url(#clip0)"><path id="path852" fill="#96dfd3" fill-rule="evenodd" d="M98 12h30v.166s3.182 21.428 13.813 29.631C152.445 50 167 50 167 50v30s-13.321-.189-21.633-2.86C137.056 74.468 128 67.5 128 67.5V123c0 28.719-23.281 52-52 52s-52-23.281-52-52 23.281-52 52-52c2.72 0 5.392.209 8 .612V102.5a21.93 21.93 0 0 0-8-1.5c-12.15 0-22 9.85-22 22s9.85 22 22 22c11.476 0 20.9-8.787 21.91-20H98V75.87z" clip-rule="evenodd"/><path id="path854" fill="#ff837d" fill-rule="evenodd" d="M105 19h30v.166s3.182 21.428 13.813 29.631C159.445 57 174 57 174 57v30s-13.321-.189-21.633-2.86C144.056 81.468 135 74.5 135 74.5V130c0 28.719-23.281 52-52 52s-52-23.281-52-52 23.281-52 52-52c2.72 0 5.392.209 8 .612V109.5a21.93 21.93 0 0 0-8-1.5c-12.15 0-22 9.85-22 22s9.85 22 22 22c11.476 0 20.9-8.787 21.91-20h.09V82.87z" clip-rule="evenodd"/><path id="path856" fill="#fff" fill-rule="evenodd" d="M84 78.01v24.49a21.93 21.93 0 0 0-8-1.5c-12.15 0-22 9.85-22 22 0 7.868 4.13 14.771 10.34 18.66C68.23 147.87 75.132 152 83 152c11.476 0 20.9-8.787 21.91-20h.09V19h24.467c1.832 7.001 5.581 17.577 12.346 22.797.603.465 1.219.904 1.844 1.318 1.483 2.2 3.192 4.167 5.156 5.682 5.908 4.558 13.027 6.583 18.187 7.483V80s-13.321-.189-21.633-2.86C137.056 74.468 128 67.5 128 67.5V123c0 28.719-23.281 52-52 52a51.789 51.789 0 0 1-33.104-11.896A51.79 51.79 0 0 1 31 130c0-28.719 23.281-52 52-52 .334 0 .667.003 1 .01z" clip-rule="evenodd"/></g></g><path id="path927" d="m78.232 913.158-11.973 15.7a.99.99 63.665 0 0 .787 1.59h4.759l-2.066 10.672a.469.469 24.142 0 0 .833.373l11.973-15.7a.99.99 63.665 0 0-.787-1.59h-4.76l2.066-10.672a.469.469 24.142 0 0-.832-.373z" style="fill:#ff837d;fill-opacity:1;stroke:none;stroke-width:1.14162;paint-order:markers fill stroke"/><path id="path979" d="m76.706 912.08-11.973 15.699a.99.99 63.665 0 0 .787 1.59h4.76l-2.066 10.672a.469.469 24.142 0 0 .832.374l11.973-15.7a.99.99 63.665 0 0-.787-1.59h-4.759l2.066-10.672a.469.469 24.142 0 0-.833-.373z" style="fill:#96dfd3;fill-opacity:1;stroke:none;stroke-width:1.14162;paint-order:markers fill stroke"/><path id="path987" d="m77.12 914.616-10.684 14.01a1.135 1.135 0 0 0-.228.743h4.07l-.208 1.079h1.735l-1.648 8.508 10.685-14.007a1.135 1.135 0 0 0 .23-.746H77l.209-1.079h-1.736z" style="fill:#fff;fill-opacity:1;stroke:none;stroke-width:1.14162;paint-order:markers fill stroke"/></g><style id="style853" type="text/css">.st0{fill:#fff}</style></svg>