<svg xmlns="http://www.w3.org/2000/svg" xml:space="preserve" id="Layer_2" width="192" height="192" data-name="Layer 2" version="1.1"><defs id="defs4"><style id="style2">.cls-2{fill:#73ada4}</style></defs><path id="path6" d="M96 43.951v.283s-44.033-6.651-68.506 61.187c0 0 4.044 62.249 68.506 63.36 64.503-1.111 68.506-63.36 68.506-63.36C140.033 37.583 96 43.951 96 43.951Z" style="stroke-width:1.01085;fill:#fff"/><path id="path8" d="M80.605 118.572a1.264 1.264 0 0 0-.122-1.294c-1.738-2.254-4.286-3.406-6.732-4.7-1.01-.465-1.739-.617-1.88.95-.435 4.964-3.255 8.087-8.087 8.825-3.851.617-6.965-1.223-8.885-4.559-2.366-4.124-1.294-7.773 1.91-11.362a.657.657 0 0 0-.354-1.071l-5.418-1.274c-2.022-.455-4.498-1.88-5.873-.212-1.375 1.667.334 4.043.94 5.913 3.558 11.12 11.19 16.416 22.785 16.073 5.448-.152 9.461-2.376 11.716-7.289z" class="cls-2" style="stroke-width:1.01085"/><path id="path10" d="M96 154.205a43.163 43.163 0 0 0-6.955-10.574c-2.89-3.497-1.9-6.49 2.325-8.248a13.839 13.839 0 0 1 8.087-.546c5.63 1.01 6.854 4.882 3.184 9.31-1.425 1.729-2.85 3.467-4.114 5.317A49.097 49.097 0 0 0 96 154.205z" class="cls-2" style="stroke-width:1.01085"/><path id="path12" d="M110.92 118.087a1.284 1.284 0 0 1 .132-1.304c1.728-2.254 4.276-3.396 6.722-4.69 1.01-.465 1.738-.627 1.88.94.435 4.973 3.255 8.087 8.087 8.835 3.851.616 6.965-1.223 8.885-4.56 2.366-4.123 1.294-7.783-1.91-11.361a.657.657 0 0 1 .354-1.072l5.418-1.263c2.021-.465 4.498-1.89 5.883-.223 1.385 1.668-.344 4.044-.95 5.914-3.559 11.12-11.19 16.426-22.785 16.083-5.408-.162-9.451-2.396-11.716-7.299z" class="cls-2" style="stroke-width:1.01085"/><path id="path14" d="M169.398 23.218s-4.892 24.463-18.6 29.315c0 0 4.893-7.824 1.961-19.57 0 0 0 15.658-17.619 20.55 0 0-17.609-11.745-39.14-11.745S56.86 53.544 56.86 53.544c-17.62-4.892-17.62-20.55-17.62-20.55-2.88 11.756 1.962 19.54 1.962 19.54-13.708-4.893-18.6-29.316-18.6-29.316 0 36.21 17.62 47.955 17.62 47.955-10.767 12.717-12.728 34.248-12.728 34.248 12.01-25.504 15.012-28.304 17.62-30.325a144.924 144.924 0 0 0 9.785 5.873c12.13 6.671 17.851 7.56 26.423 12.716A72.498 72.498 0 0 1 96 105.421a72.498 72.498 0 0 1 14.678-11.746c8.572-5.155 14.263-6.065 26.423-12.717a144.926 144.926 0 0 0 9.785-5.873c2.608 2.022 5.61 4.832 17.62 30.326 0 0-1.961-21.531-12.727-34.248 0 .01 17.62-11.736 17.62-47.945z" class="cls-2" style="stroke-width:1.01085;fill:#73ada4;fill-opacity:1"/></svg>