<?xml version="1.0" encoding="UTF-8" standalone="no"?>
<svg
   width="192"
   height="192"
   version="1.1"
   id="svg10"
   sodipodi:docname="timetac.svg"
   inkscape:version="1.2.2 (b0a8486541, 2022-12-01)"
   inkscape:export-filename="timetac.png"
   inkscape:export-xdpi="96"
   inkscape:export-ydpi="96"
   xmlns:inkscape="http://www.inkscape.org/namespaces/inkscape"
   xmlns:sodipodi="http://sodipodi.sourceforge.net/DTD/sodipodi-0.dtd"
   xmlns="http://www.w3.org/2000/svg"
   xmlns:svg="http://www.w3.org/2000/svg">
  <defs
     id="defs14" />
  <sodipodi:namedview
     id="namedview12"
     pagecolor="#505050"
     bordercolor="#eeeeee"
     borderopacity="1"
     inkscape:showpageshadow="0"
     inkscape:pageopacity="0"
     inkscape:pagecheckerboard="0"
     inkscape:deskcolor="#d1d1d1"
     showgrid="false"
     inkscape:zoom="0.43457604"
     inkscape:cx="-149.57106"
     inkscape:cy="194.44238"
     inkscape:window-width="1884"
     inkscape:window-height="1055"
     inkscape:window-x="36"
     inkscape:window-y="0"
     inkscape:window-maximized="1"
     inkscape:current-layer="svg10" />
  <rect
     width="152"
     height="152"
     x="20"
     y="20"
     fill="#728dbe"
     rx="10"
     id="rect2"
     style="fill:#728dbe" />
  <g
     id="g1583"
     transform="matrix(0.67415938,0,0,0.67415938,30.645304,31.230138)">
    <g
       fill="#ffffff"
       id="g8">
      <path
         d="M 93.43,140.83 C 70.225,139.038 52.048,119.379 52.048,96.073 c 0,-24.753 20.138,-44.891 44.892,-44.891 24.753,0 44.892,20.138 44.892,44.891 a 4.6235,4.6235 0 1 0 9.247,0 c 0,-29.852 -24.288,-54.138 -54.139,-54.138 -29.853,0 -54.139,24.286 -54.139,54.138 0,13.724 5.144,26.813 14.484,36.858 9.29,9.991 21.874,16.069 35.431,17.116 a 4.625,4.625 0 0 0 4.967,-4.252 4.622,4.622 0 0 0 -4.254,-4.965 z"
         id="path4" />
      <path
         d="m 127.76,140.97 c -10.179,-0.21 -17.303,-3.136 -21.176,-8.696 -2.774,-3.986 -2.924,-8.086 -2.932,-8.412 V 99.875 l 21.985,-6.208 a 4.6238551,4.6238551 0 1 0 -2.512,-8.9 l -19.473,5.499 V 67.145 a 4.624,4.624 0 1 0 -9.247,0 v 56.652 c -0.006,0.876 0.107,6.977 4.232,13.229 3.843,5.824 11.979,12.84 28.932,13.188 l 0.097,0.001 a 4.623,4.623 0 0 0 4.62,-4.528 4.62,4.62 0 0 0 -4.526,-4.717 z m 18.7,-34.9 a 4.623,4.623 0 0 0 -4.623,4.624 v 34.601 a 4.6235,4.6235 0 1 0 9.247,0 v -34.601 a 4.625,4.625 0 0 0 -4.624,-4.624 z"
         id="path6" />
    </g>
  </g>
</svg>
