<?xml version="1.0" encoding="UTF-8"?>
<svg version="1.1" viewBox="0 0 192 192" xml:space="preserve" xmlns="http://www.w3.org/2000/svg">
	 <circle class="a" cx="96" cy="96" r="88" fill="#9abeff"/><path d="m66.13 57.918v22.849h-7.6164v-22.849h7.6164m-7.6164 76.164v-22.849h7.6164v22.849h-7.6164m11.425-38.082c0 4.2271-3.3893 7.6164-7.6164 7.6164-4.189 0-7.6164-3.3893-7.6164-7.6164 0-4.189 3.4274-7.6164 7.6164-7.6164 4.2271 0 7.6164 3.4274 7.6164 7.6164m41.89-30.466c16.832 0 30.466 13.633 30.466 30.466 0 16.832-13.633 30.466-30.466 30.466-13.709 0-25.286-9.0635-29.133-21.516l-8.9492-8.9493 8.9492-8.9492c3.8463-12.453 15.423-21.516 29.133-21.516m0 7.6164c-12.605 0-22.849 10.244-22.849 22.849 0 12.605 10.244 22.849 22.849 22.849 12.605 0 22.849-10.244 22.849-22.849 0-12.605-10.244-22.849-22.849-22.849m-3.8082 26.657v-19.041h5.7123v15.994l11.425 6.8547-3.1227 4.7983z" fill="#f8c18c" stroke-width="3.8082"/></svg>
