<svg xmlns="http://www.w3.org/2000/svg" viewBox="0 0 192 192"><circle cx="96" cy="96" r="88" fill="#f9de81"/><path fill="#56595b" d="M31.08 91.18h-8.27v-5.07h22.51v5.07h-8.24v13.93h-6ZM47.44 105.11v-19h6v19ZM73 96.54V86.11h5.52v19h-5.17L63.07 94.62v10.49h-5.52v-19h5.36ZM88.46 105.11h-5.8v-19h5.8v7.15h1.6l7-7.15h7.28l-9.28 9.11 9.64 9.89H97l-6.92-7.2h-1.6Z"/><path fill="#56595b" d="M129.21 95.66c0 5.68-4.68 10.08-12.43 10.08s-12.48-4.4-12.48-10.08 4.7-10.07 12.51-10.07 12.4 4.41 12.4 10.07Zm-6.08 0c0-3.12-2.51-5.39-6.35-5.39s-6.36 2.27-6.36 5.39 2.48 5.45 6.39 5.45 6.32-2.33 6.32-5.45ZM137.81 90.94v3.44h12.8v4h-12.8v6.73H132v-19h19.08v4.83ZM159.62 90.94v3.44h12.8v4h-12.8v6.73h-5.81v-19h19.07v4.83Z"/></svg>