<?xml version="1.0" encoding="UTF-8"?><svg id="uuid-75a1e60c-3a37-4c92-85f6-51ab33b74d16" xmlns="http://www.w3.org/2000/svg" width="192" height="192" xmlns:xlink="http://www.w3.org/1999/xlink" viewBox="0 0 192 192"><defs><linearGradient id="uuid-9605eb96-635b-4255-a91c-17c75d935c76" x1="93.61" y1="136.9" x2="107.78" y2="137.28" gradientTransform="translate(0 194) scale(1 -1)" gradientUnits="userSpaceOnUse"><stop offset="0" stop-color="#98dc9a"/><stop offset=".5" stop-color="#9abeff"/><stop offset="1" stop-color="#728dbe"/></linearGradient><linearGradient id="uuid-7f4f75d4-715f-40f7-b152-adc81aed256c" x1="107.78" y1="126.1" x2="71.13" y2="126.1" gradientTransform="translate(0 194) scale(1 -1)" gradientUnits="userSpaceOnUse"><stop offset="0" stop-color="#f9de81"/><stop offset=".5" stop-color="#98dc9a"/><stop offset="1" stop-color="#728dbe"/></linearGradient><linearGradient id="uuid-eeec26c1-53f5-4d7e-a7a7-11fb3c898dd4" x1="120.87" y1="123.7" x2="71.13" y2="123.7" gradientTransform="translate(0 194) scale(1 -1)" gradientUnits="userSpaceOnUse"><stop offset="0" stop-color="#728dbe"/><stop offset=".5" stop-color="#9abeff"/><stop offset="1" stop-color="#98dc9a"/></linearGradient><linearGradient id="uuid-b8d4caa1-a34d-48ad-96ca-823989aa4e00" x1="120.87" y1="88.92" x2="85.65" y2="88.92" gradientTransform="translate(0 194) scale(1 -1)" gradientUnits="userSpaceOnUse"><stop offset="0" stop-color="#f9de81"/><stop offset=".5" stop-color="#98dc9a"/><stop offset="1" stop-color="#728dbe"/></linearGradient></defs><g id="uuid-a2c323d5-8d79-4598-ad97-405da4fd03da"><g id="uuid-79e65ce5-678f-4a4c-8fb7-5a2f94a01a1b"><rect x="20" y="20" width="152" height="152" rx="10" ry="10" fill="#98dc9a" stroke-width="0"/><polygon points="93.52 51 93.52 58.09 107.78 62.83 107.78 53.78 93.52 51" fill="url(#uuid-9605eb96-635b-4255-a91c-17c75d935c76)" fill-rule="evenodd" stroke-width="0"/><polygon points="71.13 58.57 71.13 82.03 107.78 62.85 107.78 53.78 71.13 58.57" fill="url(#uuid-7f4f75d4-715f-40f7-b152-adc81aed256c)" fill-rule="evenodd" stroke-width="0"/><polygon points="71.13 82.02 120.87 79 120.87 69.17 71.13 58.57 71.13 82.02" fill="url(#uuid-eeec26c1-53f5-4d7e-a7a7-11fb3c898dd4)" fill-rule="evenodd" stroke-width="0"/><polygon points="85.65 89.08 85.65 141 120.87 79 120.87 69.17 85.65 89.08" fill="url(#uuid-b8d4caa1-a34d-48ad-96ca-823989aa4e00)" fill-rule="evenodd" stroke-width="0"/></g></g></svg>