<svg xmlns="http://www.w3.org/2000/svg" xmlns:xlink="http://www.w3.org/1999/xlink" xml:space="preserve" viewBox="0 0 192 192"><image xlink:href="30E0AF75.jpg" width="241" height="241" overflow="visible" transform="translate(-274.333 -179)"/><path fill="#FFBE88" d="M154.8 151.6c-1.9 1.2-4.1 1.2-6.3 1.2H50.1c-5.9 0-7-1.1-7-7 0-4.7.1-9.3 0-14-.1-3 1.3-4.8 4.3-4.9 3.1-.1 3.7 2.3 4.2 4.6.2.8 0 1.7.1 2.5.1 10.2.1 10.2 10.5 10.2 26.3 0 52.6-.1 78.9.1 5 .1 7.2-1.1 6.1-6.2-.4-1.8 1.2-4-1.3-5.2-7.6-4-12-9.9-11.8-18.8.1-8.5 4.3-13.9 12-16.9 2.3-2.4.7-5.3 1.1-8 .4-2.6-.5-3.9-3.5-3.8-7.2.2-14.5.2-21.8.3-2.6-2.9-3.2-5.8.1-8.7 10.2 0 20.4-.1 30.6-.1l3.3 3v19.8c.2 3-1.4 4.5-4.3 5.1-6.4 1.4-8.9 4-9.1 9.3-.2 6.3 1.7 8.9 8.5 10.7 2.1.5 3.7 1.4 4.8 3.1l-.3 21.9c-.1.7-.4 1.2-.7 1.8z"/><path fill="#FFBE88" d="M91.1 122c-8.3 3.6-16.8 6.9-26 3.7-15.3-5.3-25.7-15.4-28.9-31.9-1.9-21 10.6-37.6 29.8-41.7 1.2-.3 2.1-.6 2.6-1.9.5-1.5-.9-1.6-1.5-2.1-4.3-3.2-4.5-4.6-1-8.8 4.8 0 9.7 0 14.6-.1 3 3.1 3.8 5.9-.8 8.3-1.2.6-2.4 1.6-2 3.1.4 1.4 1.8 1.3 2.9 1.4 3 .4 5.8 1.5 8.4 2.9 2.3 1.3 3.6 3.4 1.8 5.8-1.3 1.7-2.5 3.3-5.9 1.7-13.8-6.4-36 .9-39.7 19.6-2.4 12 2.5 24.9 13.7 31.7 9.9 6 23.9 4.9 33.1-3.2 7.9-7 11.1-16 9.9-26.5-.4-3-.6-5.9 3.5-6.3 4-.4 4.5 2.8 5 5.6 2.1 12.8-4.2 29.8-18.4 38.2-.6.2-.6 0-1.1.5z"/><path fill="#FFBE88" d="M62.9 79.1c2.5 0 3.6 1.8 5 3.1 5.8 5.6 5.7 5.6 11.5-.2 8.9-8.9 17.9-17.8 26.8-26.8 2.2-2.3 4.6-4.5 7.5-1.5 2.7 2.8.6 5.1-1.6 7.2-11.8 11.7-23.7 23.4-35.3 35.3-2.5 2.5-4.1 2.8-6.6-.1-3-3.5-6.5-6.7-9.9-9.8-1.5-1.4-1.6-2.9-1.1-4.5.6-1.5 2-2.5 3.7-2.7z"/><path fill="#60DB91" d="M91.2 191.9c-1.1-.5-2.3-.3-3.4-.4-15.5-1.4-29.8-6.3-42.8-14.8-16.4-10.6-28.5-24.9-36.3-42.8-3.5-8.1-5.8-16.5-6.9-25.2-.4-3.3-.8-6.6-.7-9.9v-5.3c.5-19.5 6.4-37.2 17.8-53C32.6 21.7 50.8 9.2 73.4 3.4 82.3 1.1 91.3.2 100.5.6 128 2 151 13.1 169.2 33.8c10.1 11.5 16.8 24.7 20.4 39.5 1.7 6.8 2.6 13.7 2.7 20.7 0 .3-.2.8.2 1v2.3c-.4.2-.2.6-.2.9-.4 19.8-6.3 37.8-18 53.8-13.3 18.3-30.9 30.6-52.8 36.6-6.3 1.7-12.6 2.8-19.1 3-.2 0-.5-.1-.7.2-3.5.1-7 .1-10.5.1zm5.5-2.3c51.4 0 93.4-41.9 93.4-93.4 0-51.5-41.9-93.4-93.3-93.4-51.5 0-93.4 41.9-93.4 93.4-.1 51.4 41.8 93.4 93.3 93.4z"/><path fill="#4CB8AB" d="M1.1 93.6v5.3H.9v-5.3h.2z"/><path fill="#FEFEFE" d="M96.7 189.6c-51.4 0-93.4-42-93.3-93.4 0-51.5 41.9-93.4 93.4-93.4 51.5 0 93.3 42 93.3 93.4-.1 51.6-42 93.5-93.4 93.4zM5.9 96.1c0 50 40.8 90.8 90.8 90.8 49.8 0 90.7-40.3 90.7-90.8C187.4 46 147 5.5 96.8 5.4 46.5 5.4 6.1 46 5.9 96.1z"/><path fill="#60DB91" d="M5.9 96.1C6.1 46 46.5 5.4 96.8 5.4c50.3 0 90.6 40.6 90.7 90.7 0 50.5-40.9 90.8-90.7 90.8-50.1 0-90.8-40.7-90.9-90.8zm90.8 80.5c6.6-.1 14.5-1.1 20.3-2.7 16.5-4.4 30.2-13.1 41.2-26.1 8.1-9.5 13.5-20.4 16.6-32.5.9-3.7.8-7.6 2.8-11.1.7-1.3.5-2.9.1-4.3-.2-.7-.2-1 .7-1.1 2.1-.3 3.7-1.5 5-3.1.7-.9.7-1.5 0-2.4-1.4-1.6-3-2.7-5.2-3-.7-.1-.8-.3-.6-1 .5-1.7.4-3.4-.2-5.1-.1-.3-.1-.8-.7-.8-.7 0-.7-.5-.8-1-1.9-10.8-5.8-20.7-11.7-29.9-18.2-28.2-52.3-42.3-85.1-34.8-21.2 4.9-37.8 16.6-49.8 34.7-6 9-9.8 18.9-11.7 29.5-.1.3.1.9-.4 1-1.1.1-1 1-1.2 1.7a7.5 7.5 0 0 0 0 4.2c.2.8.1.9-.7 1.1-2.2.4-3.9 1.5-5.3 3.3-.5.6-.5 1.1 0 1.8 1.3 1.8 2.9 3 5.1 3.4 1 .2 1 .5.8 1.3-.4 1.7-.3 3.3.3 4.9.2.5.6.9.7 1.6 1.3 10.9 4.6 21.1 10.3 30.4 15.9 25.9 39.3 38.9 69.5 40z"/><path fill="#FEFEFE" d="M96.7 176.6c-30.2-1.1-53.6-14.1-69.4-40.1-5.7-9.3-9-19.6-10.3-30.4-.1-.6-.5-1-.7-1.6-.6-1.6-.8-3.3-.3-4.9.2-.8.2-1.1-.8-1.3C13 98 11.3 96.7 10 95c-.5-.6-.5-1.1 0-1.8 1.3-1.8 3.1-3 5.3-3.3.8-.1 1-.3.7-1.1-.4-1.4-.5-2.8 0-4.2.2-.7.1-1.5 1.2-1.7.4-.1.3-.6.4-1 1.9-10.6 5.8-20.5 11.7-29.5 12-18.1 28.6-29.9 49.8-34.7 32.8-7.5 66.9 6.6 85.1 34.8 5.9 9.2 9.8 19.2 11.7 29.9.1.5.1 1 .8 1 .5 0 .5.5.7.8.6 1.7.7 3.4.2 5.1-.2.7 0 .9.6 1 2.1.3 3.8 1.4 5.2 3 .7.9.7 1.5 0 2.4-1.3 1.6-3 2.7-5 3.1-.9.1-.9.4-.7 1.1.4 1.4.6 3.1-.1 4.3-2 3.5-1.8 7.4-2.8 11.1-3.1 12.1-8.5 22.9-16.6 32.5-11 13-24.8 21.7-41.2 26.1-5.8 1.6-13.7 2.6-20.3 2.7zm-73.9-73c-.5.3-.9.6-1.4.7-1.1.3-1.1.9-1 1.9.4 2.2.7 4.4 1.2 6.5 4.3 18.8 14.1 34 29.6 45.4 16.3 12 34.7 16.7 54.8 14.4 9.8-1.1 19.1-4 27.6-8.9 21.9-12.5 34.9-31.1 39.2-56 .4-2.2.4-2.2-1.5-3.4-.2-.1-.4-.3-.6-.4-2.7-2.4-3.6-5.3-2.7-8.8.1-.3.2-.5.1-.8-1-3.4-.2-6.3 2.2-8.8 2.3-.9 2.9-2.5 2-4.7-.1-.3-.2-.7-.3-1.1-4.4-19-14.4-34.4-30.2-45.9-15-10.9-31.8-15.6-50.3-14.4-11.2.7-21.9 3.7-31.6 9.3-20.5 11.6-33.3 28.8-38.6 51.7-.7 2.9-.7 3 1.9 4.6 2.5 2.5 3.4 5.4 2.4 8.8-.1.3-.1.6 0 .9 1.1 3.6-.1 6.6-2.8 9zm-4.3-12.5h-1.8c-1.8 0-3.4.8-4.7 2-.8.7-.8 1.3 0 2.1 1.5 1.4 3.3 2.2 5.3 2 .9-.1 1.2.1.7 1-.8 1.5-1.1 3-.8 4.7.2.9.6 1 1.4.9 4.6-.7 7.2-4.8 5.7-9.3-.1-.3-.3-.7-.1-1.1 1.6-2.7 0-7.3-3.6-8.7-1-.4-2.2-1-3-.3-.7.7-.6 2-.4 3.1.1 1.4.7 2.4 1.3 3.6zm156.7 6.5h1.8c2.1 0 3.7-.9 5.1-2.4.5-.5.5-.9 0-1.4-1.3-1.4-2.8-2.2-4.7-2.3h-2.2c.4-.8.7-1.5 1-2.2.3-.7.4-1.5.4-2.2 0-2.5-.4-2.8-2.8-2.1-3.5 1-5.6 4.9-4.6 8.2.2.6.5 1.1.3 1.8-1.5 4.4 1 8.4 5.6 9.2 1 .2 1.3-.2 1.5-1.1.1-1.9-.3-3.7-1.4-5.5z"/><path fill="#70DFD4" d="M170.2 85.5c-2.4 2.5-3.2 5.4-2.2 8.8.1.3 0 .6-.1.8-.9 3.5 0 6.4 2.7 8.8-.1.3-.2.6-.2 1-.6 5.9-2.1 11.6-4.1 17.2-.5 0-1.1-.1-1.6-.1h-136c-.5 0-1.1 0-1.6.1-2.3-5.9-3.6-12.1-4.3-18.4 2.8-2.5 3.9-5.4 2.9-9.1-.1-.3-.1-.6 0-.9 1-3.4.1-6.3-2.4-8.8.4-1.8.6-3.6 1.1-5.4.9-3.7 1.9-7.4 3.5-10.8h137.8c2.2 5.3 3.7 11 4.5 16.8zm-56.1 22.2.3 2.1c.3 2 1.8 3.5 3.9 3.7 1.2.1 2.2-.2 3.3-.7 2.4-1.3 4.2-3.3 6-5.3.5-.6.8-1.3 1.6-1.8-.1.7-.2 1.1-.2 1.6-.2 2-.3 4.1 1.5 5.4 1.9 1.3 4 .8 5.8-.3 3.4-1.9 5.6-4.9 7.2-8.5.1-.3.2-.5-.1-.8-.7-.7-.9-.2-1.2.4-1.5 2.7-3.3 5.2-6.2 6.5-1.8.8-2.6.3-2.5-1.6 0-2.6.6-5.2 1.3-7.6 1.7-5.8 4.4-11.2 7-16.6 1.3-2.6 2.7-5.1 3.5-7.9.3-.9.3-1.7-.6-2.2-.9-.6-1.6-.1-2.3.4-.9.8-1.5 1.7-2 2.7-2.5 4.1-4.2 8.5-6 13-1.8 4.3-3.2 8.7-5.7 12.7-1.7 2.6-3.5 5.1-6.2 6.8-.9.5-1.9.9-2.8.3-.9-.5-.8-1.5-.7-2.4.7-5.1 3.3-9 7.5-11.8 1.3-.8 2.7-1 4.2-.7.4.1.8.5 1.1 0 .3-.5.3-1 0-1.5-.4-.7-1.1-.9-1.8-1-1.9-.1-3.7.3-5.3 1.2-4.2 2.4-7.3 6-9.3 10.4-.8 1.7-3.4 3.1-5.3 2.8-.9-.1-1-.3-.5-1.2 1.3-2 2.5-4.1 3-6.5.3-1.9.4-3.8-1.2-5.1-1.5-1.3-3.3-1.2-5-.6-2.1.7-3 2.5-3.4 4.5-.2.7-.4.8-1 .6-1.3-.4-2.4.1-3.3.9-1.3 1.2-2.2 2.7-2.9 4.4-.8 1.8-3.3 3.3-5.2 3.1-.9-.1-1.3-.3-.7-1.3 1.5-2.2 2.6-4.5 3.1-7.1.6-3.7-2-6.1-5.7-5.2-2.4.6-3.5 2.3-4 4.5-.2.6-.3 1-1.2.7-1.3-.4-2.4.1-3.3 1-2.7 2.7-4 6.1-3.7 9.9.2 3.1 1.8 4.3 4.9 4.1 1.4-.1 2.6-.6 3.7-1.3 1.4-.8 2.5-1.9 3.6-3.1.3-.3.6-.8 1.1-.6 2.3.6 4.4.3 6.4-1.2v1.9c.1 3.1 1.6 4.5 4.7 4.3 1 0 2-.4 2.9-.8 1.8-.9 3.3-2.1 4.6-3.7.3-.4.6-.8 1.2-.6 2 .5 4 0 5.9-.9zm-54.3-9.4c2.7 0 5.4-.2 8 .3.7.1 1.1.2 1 1.1-.7 4.7-2.3 8.9-5.7 12.3-1.9 1.8-4.2 2.6-6.8 1.6-2.3-.9-3.6-2.8-4.3-5.1-.7-2.2-.9-4.5-.6-6.8 1.1-8.9 4.8-16.5 11.3-22.7 1.6-1.5 3.4-2.5 5.6-2.9 2.7-.4 4.1 1.1 3.4 3.8-.6 2.2-1.8 4.1-3.3 5.7-.7.7-.6 1.1 0 1.6 1.1 1.2 2.9 1 4.1-.6 1.6-1.9 2.3-4.1 2.3-6.5.1-4.1-2.3-6.4-6.3-6.5-3 0-5.6 1.1-8.1 2.7-5.4 3.6-8.9 8.6-11.5 14.4-2.2 5.1-3.5 10.3-2.5 15.9.8 4.3 3 7.7 7.3 9.1 4.3 1.5 8.2.2 11.4-2.9.5-.5.9-1 1.3-1.5.1.1.2.2.3.2v1.6c.2 1.4.8 2.5 2.2 3.1 1.2.5 1.4.4 1.3-.9 0-2.3-.2-4.6.1-6.9.5-3 1.6-5.8 2.4-8.7.8-2.6.8-2.6-1.8-3.5-2.2-.7-4.4-1.6-6.8-1.7-2.3.2-3.6 1.3-4.3 3.8zm39.3-12.9c-.6-4.5-3.9-10.1-6.3-10.8 1.4 1.7 2.6 3.5 3.5 5.5 1.6 3.5 1.9 7 .4 10.6-.7 1.7-.8 1.7-2.1.5-2.3-2-3.4-4.5-3.6-7.5-.2-2.8.1-5.5.8-8.1-.8 1.8-1.2 3.7-1.4 5.7-.4 4.7.9 8.8 4.9 11.7.9.6 2 1.1 3.1 1 8-.5 11.8-7.7 11.9-14.2-.2.5-.4 1-.6 1.6-.5 1.8-1.2 3.5-2.2 5.1-2 3.3-4.7 5.6-8.6 6.4-1.1.2-1.2-.2-1-1 .2-1.1.8-2.1.9-3.1.3-1.9 1.3-3.3 2.6-4.6 1.7-1.7 3.8-3 6.1-3.9.3-.1.6-.1.7-.6-3.6.9-6.6 2.7-9.1 5.7z"/><path fill="#60DB91" d="M22.8 103.6c.7 6.3 2.1 12.5 4.3 18.4.1.3.3.6.4.9.3.7.5 1.4.8 2.1.1.2.2.3.3.5 3.2 7.6 7.6 14.4 13.2 20.5 7.6 8.4 16.7 14.8 27.3 19 8.9 3.6 18.2 5.3 27.8 5.4 4.3 0 8.6-.4 12.8-1.1 9.4-1.7 18.2-5 26.3-10.1 7.6-4.7 14.2-10.7 19.6-17.8 3.8-4.9 7-10.2 9.4-16 .1-.3.2-.5.4-.8.2-.6.5-1.3.7-1.9.1-.3.3-.5.4-.8 2-5.6 3.5-11.3 4.1-17.2 0-.3.2-.6.2-1 .2.1.4.3.6.4 1.9 1.2 1.9 1.2 1.5 3.4-4.3 24.8-17.4 43.5-39.2 56-8.6 4.9-17.8 7.8-27.6 8.9C86 174.7 67.6 170 51.3 158c-15.5-11.4-25.3-26.6-29.6-45.4-.5-2.2-.8-4.4-1.2-6.5-.2-.9-.1-1.6 1-1.9.3 0 .8-.3 1.3-.6zM27.8 68.7c-1.6 3.5-2.6 7.1-3.5 10.8-.4 1.8-.7 3.6-1.1 5.4-2.6-1.6-2.6-1.6-1.9-4.6 5.2-22.9 18-40.1 38.4-51.7 9.8-5.5 20.4-8.6 31.6-9.3 18.5-1.2 35.4 3.6 50.3 14.4 15.8 11.5 25.8 26.8 30.2 45.9.1.4.1.8.3 1.1.9 2.3.3 3.9-2 4.7-.8-5.8-2.2-11.5-4.6-16.9 0-.4-.2-.7-.4-1-.1-.6-.4-1.2-.7-1.7-.1-.4-.2-.7-.5-1-.1-.4-.2-.8-.4-1.2-4.9-10-11.7-18.5-20.4-25.5-12.5-10-26.7-15.4-42.7-16.3-7.3-.4-14.5.3-21.6 2.1C62.5 28.2 49 37 38.4 50.2c-3.6 4.6-6.8 9.5-9.1 14.8-.2.3-.3.6-.5.9-.3.6-.5 1.3-.8 1.9 0 .2-.2.5-.2.9z"/><path fill="#70DFD4" d="M18.5 91.1c-.5-1.2-1.1-2.2-1.3-3.4-.2-1.1-.3-2.4.4-3.1.8-.7 2-.1 3 .3 3.6 1.4 5.2 5.9 3.6 8.7-.2.4 0 .7.1 1.1 1.5 4.5-1 8.6-5.7 9.3-.8.1-1.2 0-1.4-.9-.3-1.7-.1-3.3.8-4.7.6-1 .3-1.1-.7-1-2.1.2-3.8-.6-5.3-2-.8-.7-.8-1.3 0-2.1 1.4-1.2 2.9-2 4.7-2 .5-.2 1.1-.2 1.8-.2zM175.2 97.6c1.2 1.8 1.6 3.6 1.3 5.5-.1.9-.4 1.3-1.5 1.1-4.6-.7-7.1-4.8-5.6-9.2.3-.8-.1-1.2-.3-1.8-1.1-3.3 1.1-7.2 4.6-8.2 2.4-.7 2.8-.4 2.8 2.1 0 .8-.1 1.5-.4 2.2-.3.7-.6 1.3-1 2.2h2.2c1.9.1 3.4.9 4.7 2.3.5.5.4.9 0 1.4-1.4 1.5-3 2.4-5.1 2.4-.5.1-1 0-1.7 0z"/><path fill="#FEFEFE" d="M114.1 107.7c-1.9.9-3.8 1.4-5.9.8-.6-.2-.9.2-1.2.6-1.3 1.5-2.8 2.8-4.6 3.7-.9.4-1.9.8-2.9.8-3.1.1-4.6-1.2-4.7-4.3v-1.9c-2.1 1.5-4.2 1.8-6.4 1.2-.6-.2-.8.3-1.1.6-1.1 1.2-2.2 2.3-3.6 3.1-1.2.7-2.4 1.2-3.7 1.3-3.1.2-4.6-1-4.9-4.1-.3-3.8 1-7.2 3.7-9.9.9-.9 2-1.5 3.3-1 .9.3 1-.1 1.2-.7.6-2.2 1.7-3.9 4-4.5 3.7-.9 6.3 1.5 5.7 5.2-.4 2.6-1.6 4.9-3.1 7.1-.7 1-.2 1.2.7 1.3 1.9.2 4.4-1.3 5.2-3.1.7-1.6 1.5-3.2 2.9-4.4 1-.8 2-1.4 3.3-.9.6.2.8 0 1-.6.5-2 1.4-3.8 3.4-4.5 1.7-.6 3.5-.6 5 .6 1.6 1.4 1.5 3.3 1.2 5.1-.5 2.4-1.6 4.5-3 6.5-.5.8-.4 1 .5 1.2 1.9.3 4.5-1.1 5.3-2.8 2-4.4 5.1-8 9.3-10.4 1.6-.9 3.4-1.4 5.3-1.2.7.1 1.4.3 1.8 1 .3.5.3 1 0 1.5-.3.6-.7.1-1.1 0-1.5-.3-3-.2-4.2.7-4.2 2.8-6.8 6.7-7.5 11.8-.1.9-.2 1.9.7 2.4 1 .6 2 .3 2.8-.3 2.7-1.7 4.6-4.1 6.2-6.8 2.5-4 3.9-8.4 5.7-12.7 1.8-4.4 3.6-8.8 6-13 .6-1 1.2-1.9 2-2.7.7-.6 1.4-1 2.3-.4.8.6.8 1.4.6 2.2-.9 2.8-2.3 5.3-3.5 7.9-2.6 5.4-5.3 10.8-7 16.6-.8 2.5-1.3 5-1.3 7.6 0 1.9.8 2.4 2.5 1.6 2.9-1.3 4.7-3.8 6.2-6.5.3-.6.5-1.1 1.2-.4.3.3.2.5.1.8-1.5 3.5-3.7 6.6-7.2 8.5-1.9 1-3.9 1.6-5.8.3-1.8-1.3-1.7-3.4-1.5-5.4 0-.5.1-.9.2-1.6-.8.5-1.1 1.3-1.6 1.8-1.8 2-3.5 4-6 5.3-1 .5-2.1.9-3.3.7-2-.2-3.5-1.7-3.9-3.7-.2-.6-.2-1.3-.3-2 .1 0 .1 0 .2-.1-.1 0-.2 0-.2.1zm-31.4-8.2c-2.2 2.9-3.8 6.1-3.4 9.8.1 1.4 1.4 1.9 2.9 1.2 1.3-.7 2.3-1.7 3.3-2.8.3-.3.4-.6 0-1-1.9-2-2.5-4.5-2.8-7.2zm19.9.1c-.1 0-.2-.1-.3-.1-1.9 2.8-3.4 5.9-3.3 9.5 0 1.7 1.2 2.4 2.8 1.7 1.2-.5 2.1-1.5 3-2.4.7-.7.9-1.2.1-2-1-1-1.5-2.4-1.8-3.8-.3-1-.4-2-.5-2.9zm2.9.7c.1 1.4.4 2.7.9 4.1.1.3.2.7.6.8.4.1.5-.4.7-.6l1.2-2.1c.9-1.8 1.5-3.6 1.3-5.7-.1-.7-.3-1.3-1.1-1.6-.7-.2-1.3.1-1.8.6-1.3 1.2-1.7 2.7-1.8 4.5zm-18.3 5.2c.4-.5.6-.8.8-1.1 1.4-2.3 2.5-4.6 2.4-7.4 0-.7-.2-1.4-1-1.7-.8-.3-1.4.1-1.9.6-.4.4-.7.8-1 1.3-1.4 2.8-.6 5.4.7 8.3zM59.8 98.3c.6-2.6 2-3.6 4.4-3.5 2.4.1 4.6 1 6.8 1.7 2.6.8 2.6.8 1.8 3.5-.8 2.9-1.9 5.7-2.4 8.7-.4 2.3-.1 4.6-.1 6.9 0 1.3-.2 1.4-1.3.9-1.4-.6-2-1.7-2.2-3.1-.1-.5 0-1.1 0-1.6-.1-.1-.2-.2-.3-.2-.4.5-.9 1.1-1.3 1.5-3.3 3.1-7.1 4.4-11.4 2.9-4.3-1.5-6.5-4.8-7.3-9.1-1-5.6.2-10.8 2.5-15.9 2.6-5.8 6.1-10.8 11.5-14.4 2.4-1.6 5.1-2.8 8.1-2.7 4 0 6.4 2.4 6.3 6.5 0 2.4-.8 4.6-2.3 6.5-1.3 1.5-3 1.7-4.1.6-.6-.6-.7-1 0-1.6 1.6-1.6 2.7-3.5 3.3-5.7.7-2.7-.6-4.2-3.4-3.8-2.2.3-4.1 1.4-5.6 2.9-6.5 6.2-10.1 13.8-11.3 22.7-.3 2.3-.1 4.6.6 6.8.7 2.3 2 4.2 4.3 5.1 2.6 1 4.9.3 6.8-1.6 3.4-3.3 5-7.6 5.7-12.3.1-.8-.3-.9-1-1.1-2.7-.7-5.3-.5-8.1-.6zM27.8 68.7c-.1-.4.1-.6.3-.9h135.4c.6 0 1.2 0 1.8-.1.2.3.4.6.4 1H27.8zM27.5 122.9c-.1-.3-.3-.6-.4-.9.5 0 1.1-.1 1.6-.1h136c.5 0 1.1 0 1.6.1-.1.3-.3.5-.4.8h-137c-.4 0-.9.1-1.4.1z"/><path fill="#FEFEFE" d="M99.1 85.4c2.5-2.9 5.5-4.7 9-5.8-.1.4-.5.4-.7.6-2.2 1-4.3 2.2-6.1 3.9-1.3 1.3-2.4 2.7-2.6 4.6-.1 1.1-.7 2.1-.9 3.1-.2.8 0 1.2 1 1 3.9-.8 6.6-3 8.6-6.4.9-1.6 1.6-3.3 2.2-5.1.2-.5.3-1.1.6-1.6 0 6.5-3.9 13.7-11.9 14.2-1.2.1-2.3-.4-3.1-1-4-2.9-5.3-7-4.9-11.7.2-1.9.6-3.9 1.4-5.7-.6 2.7-1 5.4-.8 8.1.3 2.9 1.4 5.5 3.6 7.5 1.3 1.2 1.5 1.2 2.1-.5 1.5-3.6 1.1-7.1-.4-10.6-.9-2-2.1-3.8-3.5-5.5 2.5.8 5.8 6.3 6.4 10.9z"/><path fill="#70DFD4" d="M164.9 125.5c-2.4 5.7-5.6 11.1-9.4 16-5.5 7.1-12 13-19.6 17.8-8.1 5-16.9 8.4-26.3 10.1-4.3.8-8.6 1.2-12.8 1.1-9.6 0-18.9-1.8-27.8-5.4-10.5-4.3-19.6-10.6-27.3-19-5.5-6.1-10-12.9-13.2-20.5h79.6c18.9 0 37.9-.1 56.8-.1zm-52.2 9.8c-3.6-3-9.6-1.6-10.9 4.2-.4 1.6-.5 3.2-.3 4.7.8 5.7 4.7 7.9 10.1 5.8.3-.1.5-.1.7.2.6 1 1.5.8 2.4.6.9-.2 1-1 1-1.8 0-.9-.1-1.8-.1-2.6 0-.5.1-1.1.7-1.1 1.4 0 1.8-.8 1.7-2-.1-1-.8-1.6-2.2-1.5-1.7.2-3.3.1-5 0-.4 0-.8 0-1.1.1-.8.2-1.2.8-1.1 1.6.1.8.5 1.3 1.4 1.3.5 0 1.2-.1 1.3.7.1.8-.1 1.5-.9 1.9-1.1.7-2.7.2-3.5-.9-1.3-1.9-1.1-6.3.3-8.2.7-.9 1.7-1.2 2.8-1 1 .2 1.7.8 1.9 1.9 0 .3.1.6.2.8.4.9 1.1 1.1 2 .9.9-.2 1.6-.5 1.5-1.6-.1-1.2 0-2.3.2-3.5.1-.8-.2-1.4-1-1.7-.8-.3-1.4 0-1.8.7-.1.3-.2.4-.3.5zm-37.9 15.5v-.2c1.4.1 2.8.2 4.3.2 1.2 0 1.8-.8 1.6-2-.1-1.2-1-1.3-1.9-1.2-1.4.2-1.7 0-1.8-1.5-.1-2.2 0-4.4 0-6.7 0-.3.1-.6.2-.9.2-.7.7-.8 1.3-.7.7 0 .8.5.8 1 0 .3-.1.7-.1 1 0 1.5.5 2.2 1.7 2.2s1.8-.7 1.8-2.2c0-1.2-.1-2.4 0-3.6.1-1.1-.4-1.6-1.5-1.5-4.2.3-8.4.3-12.7 0-1.1-.1-1.6.5-1.4 1.5.2 1.1.2 2.2 0 3.4-.1.4 0 .8.2 1.2.3.9.9 1.3 1.8 1.2 1-.1 1.4-.6 1.5-1.6v-1.6c0-.6.1-1 .7-1.1.6-.1 1.1 0 1.3.6.1.3.2.6.2 1v6.7c0 1.4-.3 1.6-1.7 1.5-1.4-.2-2 .2-2.1 1.3-.1 1.3.5 1.8 1.9 1.8 1.4.2 2.6.2 3.9.2zm44.5-5.6c.2 4.6 3.2 6.1 6.4 5.9 4.6-.3 5.8-3.6 5.6-6.7-.2-3.9-2.8-6.2-6.4-5.9-3.8.3-6 2.9-5.6 6.7zm-35.9-.4c0 4 2.3 6.4 6.2 6.3 3.7-.1 5.9-2.5 5.9-6.5 0-3.8-2.4-6.2-6.1-6.2-3.8.1-6 2.4-6 6.4z"/><path fill="#60DB91" d="M27.5 122.9c.5 0 1-.1 1.5-.1h137c-.2.6-.5 1.3-.7 1.9-.3 0-.7-.1-1-.1H29.5c-.4 0-.9-.2-1.3.3-.2-.6-.5-1.3-.7-2z"/><path fill="#FEFEFE" d="M28.2 125c.3-.5.8-.3 1.3-.3h134.8c.3 0 .7 0 1 .1-.1.3-.2.5-.4.8H28.5l-.3-.6z"/><path fill="#70DFD4" d="M29.4 65c2.3-5.4 5.4-10.3 9.1-14.8 10.5-13.2 24-22 40.3-26.1 7.1-1.8 14.3-2.5 21.6-2.1 15.9.9 30.2 6.3 42.7 16.3 8.7 7 15.5 15.5 20.4 25.5.2.4.3.8.4 1.2-.6 0-1.2.1-1.8.1-44.2-.1-88.5-.1-132.7-.1zm56.2-18.3v-3.8c0-.8.5-1.2 1.3-1.1.8.1 1 .6.9 1.3-.1.3-.1.7-.1 1 0 1.3.6 2 1.8 2 1.1 0 1.7-.7 1.7-2s-.1-2.6 0-3.9c.1-1.1-.4-1.5-1.5-1.5-2.8.2-5.6.3-8.4.2-1.5-.1-2.9-.1-4.4-.2-.6 0-1.2.1-1.2.8 0 1.7 0 3.5.1 5.2.1.8.7 1.3 1.6 1.3.9 0 1.5-.4 1.7-1.3.2-.6 0-1.2 0-1.7-.1-.6 0-1.1.7-1.2.7-.1 1.2.1 1.4.9.1.3.1.7.1 1V50c0 1.6-.2 1.7-1.8 1.6-.7-.1-1.4-.1-1.8.6-.4.6-.3 1.3.1 1.9.4.6 1 .8 1.7.7 2.6-.2 5.2-.2 7.8 0 .6.1 1.4-.1 1.7-.8.3-.6.4-1.3 0-1.9-.4-.6-1-.6-1.7-.5-1.6.2-1.8 0-1.8-1.5.1-1.2.1-2.3.1-3.4zm31.8 2c0-3.9-2.2-6.3-6-6.4-3.7 0-6.1 2.4-6.1 6.3s2.3 6.3 6 6.4c3.7.1 6-2.3 6.1-6.3zm-13.4 0c0-3.9-2.2-6.3-6-6.4-3.7 0-6 2.3-6.1 6.2-.1 4 2.2 6.4 6 6.5 3.8.1 6.1-2.3 6.1-6.3z"/><path fill="#60DB91" d="M165.2 67.6c-.6 0-1.2.1-1.8.1H28c.3-.6.5-1.3.8-1.9.6 0 1.2.1 1.8.1h133.8c.4.6.7 1.1.8 1.7z"/><path fill="#FEFEFE" d="M164.5 65.9H30.7c-.6 0-1.2 0-1.8-.1.2-.3.3-.6.5-.9h132.8c.6 0 1.2-.1 1.8-.1.3.4.4.7.5 1.1z"/><path fill="#70DFD4" d="M82.7 99.5c.4 2.7.9 5.2 2.8 7.2.4.4.2.7 0 1-1 1.1-2 2.2-3.3 2.8-1.5.7-2.8.3-2.9-1.2-.4-3.7 1.2-6.9 3.4-9.8zM102.6 99.6c.1.9.3 1.9.5 2.8.3 1.4.8 2.8 1.8 3.8.8.8.6 1.3-.1 2-.9.9-1.8 1.9-3 2.4-1.6.7-2.7 0-2.8-1.7-.1-3.6 1.4-6.6 3.3-9.5 0 .1.2.1.3.2zM105.5 100.3c0-1.8.5-3.3 1.7-4.5.5-.5 1.1-.8 1.8-.6.7.2 1 .9 1.1 1.6.2 2-.4 3.9-1.3 5.7-.3.7-.8 1.4-1.2 2.1-.2.3-.3.7-.7.6-.4-.1-.4-.5-.6-.8-.4-1.4-.7-2.7-.8-4.1zM87.2 105.5c-1.4-2.9-2.1-5.5-.7-8.4.2-.5.6-.9 1-1.3.5-.5 1.1-.9 1.9-.6.8.3 1 1 1 1.7.1 2.8-1 5.1-2.4 7.4-.2.4-.4.7-.8 1.2z"/><path fill="#4CB8AB" d="M114.1 107.7c.1 0 .1-.1.2-.1-.1 0-.2.1-.2.1z"/><path fill="#FEFEFE" d="M112.7 135.3c.1-.1.2-.3.3-.4.4-.8 1-1 1.8-.7.8.3 1.1.9 1 1.7-.2 1.2-.3 2.3-.2 3.5.1 1.1-.7 1.5-1.5 1.6-.9.2-1.6 0-2-.9-.1-.3-.2-.6-.2-.8-.1-1.1-.8-1.7-1.9-1.9-1.1-.2-2.1.1-2.8 1-1.4 1.8-1.6 6.3-.3 8.2.8 1.2 2.4 1.6 3.5.9.7-.4 1-1.1.9-1.9-.1-.8-.7-.7-1.3-.7-.9 0-1.3-.5-1.4-1.3-.1-.8.3-1.4 1.1-1.6.3-.1.7-.1 1.1-.1 1.7.2 3.3.2 5 0 1.4-.2 2.1.4 2.2 1.5.1 1.2-.3 1.9-1.7 2-.7 0-.7.6-.7 1.1 0 .9.1 1.8.1 2.6s-.1 1.6-1 1.8c-.8.2-1.8.4-2.4-.6-.2-.3-.3-.4-.7-.2-5.5 2.1-9.3-.1-10.1-5.8-.2-1.6-.1-3.2.3-4.7 1.4-5.9 7.3-7.2 10.9-4.3zM74.8 150.8H71c-1.4 0-2-.6-1.9-1.8.1-1.1.6-1.5 2.1-1.3 1.3.1 1.7-.1 1.7-1.5v-6.7c0-.3-.1-.7-.2-1-.2-.6-.8-.7-1.3-.6-.7.1-.8.5-.7 1.1 0 .5.1 1.1 0 1.6-.1.9-.5 1.5-1.5 1.6-.9.1-1.6-.3-1.8-1.2-.1-.4-.2-.8-.2-1.2.2-1.1.2-2.2 0-3.4-.2-1 .3-1.6 1.4-1.5 4.2.3 8.4.3 12.7 0 1.1-.1 1.6.4 1.5 1.5-.1 1.2 0 2.4 0 3.6.1 1.5-.6 2.2-1.8 2.2-1.2 0-1.8-.7-1.7-2.2 0-.3 0-.7.1-1 0-.6-.1-1-.8-1-.6 0-1.1.1-1.3.7-.1.3-.2.6-.2.9 0 2.2-.1 4.4 0 6.7 0 1.5.3 1.7 1.8 1.5 1-.1 1.8-.1 1.9 1.2.1 1.2-.4 2-1.6 2-1.4 0-2.8-.1-4.3-.2-.1-.2-.1-.1-.1 0zM119.3 145.2c-.3-3.8 1.8-6.4 5.6-6.7 3.6-.3 6.2 2 6.4 5.9.2 3.1-1 6.5-5.6 6.7-3.2.1-6.2-1.4-6.4-5.9zm8.2-.4c0-.7 0-1.4-.3-2.1-.4-.8-.9-1.3-1.8-1.3s-1.6.4-1.9 1.2c-.6 1.5-.6 3 0 4.5.4.8 1 1.2 1.9 1.1.9 0 1.4-.5 1.7-1.3.4-.7.3-1.4.4-2.1zM83.4 144.8c0-4 2.2-6.3 6-6.4 3.7-.1 6.1 2.4 6.1 6.2 0 4-2.2 6.5-5.9 6.5-3.9.1-6.2-2.3-6.2-6.3zm3.8-.1c0 .9.1 1.7.5 2.4s1 1.1 1.9 1c.8 0 1.4-.4 1.7-1.1.6-1.5.6-3 0-4.5-.3-.7-.9-1.1-1.7-1.1-.8 0-1.5.3-1.9 1-.4.7-.6 1.5-.5 2.3zM85.6 46.7V50c0 1.6.2 1.7 1.8 1.5.7-.1 1.3-.1 1.7.5.4.6.3 1.3 0 1.9-.4.7-1.1.8-1.7.8-2.6-.2-5.2-.2-7.8 0-.6.1-1.3-.1-1.7-.7-.4-.6-.4-1.3-.1-1.9.4-.7 1.1-.7 1.8-.6 1.6.2 1.8 0 1.8-1.6v-6.3c0-.3 0-.7-.1-1-.2-.7-.7-1-1.4-.9-.7.1-.8.6-.7 1.2.1.6.2 1.1 0 1.7-.3.9-.8 1.3-1.7 1.3-.9 0-1.5-.4-1.6-1.3-.1-1.7-.1-3.5-.1-5.2 0-.7.6-.8 1.2-.8 1.5.1 2.9.2 4.4.2 2.8.1 5.6 0 8.4-.2 1.1-.1 1.5.4 1.5 1.5-.1 1.3 0 2.6 0 3.9 0 1.3-.6 2-1.7 2s-1.7-.7-1.8-2c0-.3 0-.7.1-1 .1-.7 0-1.3-.9-1.3-.8-.1-1.3.3-1.3 1.1-.1 1.4-.1 2.6-.1 3.9zM117.4 48.7c0 4-2.3 6.4-6 6.3-3.8 0-6-2.4-6-6.4 0-3.9 2.4-6.4 6.1-6.3 3.6.1 5.9 2.5 5.9 6.4zm-3.8.1c.1-.7 0-1.3-.3-2-.3-.9-.9-1.4-1.8-1.5-1-.1-1.6.4-2 1.3-.6 1.4-.6 2.8 0 4.3.4.8 1 1.3 2 1.2 1-.1 1.5-.6 1.8-1.5.2-.6.3-1.2.3-1.8zM104 48.7c0 3.9-2.4 6.4-6.1 6.3-3.8-.1-6.1-2.5-6-6.5 0-3.8 2.4-6.2 6.1-6.2 3.8.1 6.1 2.5 6 6.4zm-3.8 0c0-.8-.1-1.5-.4-2.2-.7-1.5-2.5-1.6-3.5-.3-.9 1.2-.9 3.8 0 5 .9 1.3 2.8 1.1 3.5-.3.4-.7.5-1.4.4-2.2z"/><path fill="#70DFD4" d="M127.5 144.8c0 .7 0 1.4-.3 2.1-.4.7-.9 1.2-1.7 1.3-.9 0-1.6-.3-1.9-1.1-.7-1.5-.7-3 0-4.5.3-.8 1-1.2 1.9-1.2.9 0 1.4.6 1.8 1.3.2.7.1 1.4.2 2.1zM87.2 144.7c0-.8.1-1.6.5-2.3.4-.7 1-1.1 1.9-1 .8 0 1.4.4 1.7 1.1.6 1.5.6 3 0 4.5-.3.7-.9 1.1-1.7 1.1-.8 0-1.5-.3-1.9-1-.5-.7-.6-1.5-.5-2.4zM113.6 48.8c.1.6 0 1.3-.2 1.9-.3.9-.8 1.4-1.8 1.5-1 .1-1.6-.4-2-1.2-.6-1.4-.6-2.8 0-4.3.4-.8 1-1.3 2-1.3 1 .1 1.5.6 1.8 1.5.1.5.2 1.2.2 1.9zM100.2 48.7c0 .8-.1 1.5-.4 2.2-.7 1.5-2.5 1.6-3.5.3-.9-1.2-.9-3.8 0-5 .9-1.3 2.8-1.2 3.5.3.4.7.5 1.4.4 2.2z"/></svg>