<?xml version="1.0" encoding="UTF-8" standalone="no"?>
<svg
   xml:space="preserve"
   viewBox="0 0 192 192"
   version="1.1"
   id="svg14"
   sodipodi:docname="torguard.svg"
   inkscape:version="1.2.2 (b0a8486541, 2022-12-01)"
   inkscape:export-filename="torguard.png"
   inkscape:export-xdpi="96"
   inkscape:export-ydpi="96"
   xmlns:inkscape="http://www.inkscape.org/namespaces/inkscape"
   xmlns:sodipodi="http://sodipodi.sourceforge.net/DTD/sodipodi-0.dtd"
   xmlns:xlink="http://www.w3.org/1999/xlink"
   xmlns="http://www.w3.org/2000/svg"
   xmlns:svg="http://www.w3.org/2000/svg"><defs
     id="defs18"><style
       id="style325">.a{fill:none;stroke:#b1b5bd;stroke-linecap:round;stroke-linejoin:round;isolation:isolate;opacity:0.63;}</style></defs><sodipodi:namedview
     id="namedview16"
     pagecolor="#505050"
     bordercolor="#eeeeee"
     borderopacity="1"
     inkscape:showpageshadow="0"
     inkscape:pageopacity="0"
     inkscape:pagecheckerboard="0"
     inkscape:deskcolor="#d1d1d1"
     showgrid="false"
     inkscape:zoom="3.4766083"
     inkscape:cx="44.296045"
     inkscape:cy="114.62321"
     inkscape:window-width="1884"
     inkscape:window-height="1055"
     inkscape:window-x="36"
     inkscape:window-y="0"
     inkscape:window-maximized="1"
     inkscape:current-layer="svg14" /><image
     xlink:href="AF77CF0D.jpg"
     width="180"
     height="180"
     overflow="visible"
     transform="translate(-6192 -6192)"
     id="image2" /><g
     id="g323"
     transform="matrix(0.99553698,0,0,0.99553698,0.4284508,0.4284498)"><path
       d="M 96.55,7.5 C 65.417,7.5 40.353,34.811 40.353,68.736 v 75.692 H 152.748 V 68.736 C 152.748,34.81 127.684,7.5 96.55,7.5 Z m 0,19.443 c 21.642,0 39.065,19.555 39.065,43.845 v 54.198 H 57.487 V 70.788 c 0,-24.29 17.422,-43.845 39.063,-43.845 z"
       style="fill:#575a5c;fill-opacity:1;stroke-width:3.96641;stroke-linecap:round"
       transform="matrix(0.88159,0,0,0.88159,11.369,11.367)"
       id="path4" /><path
       d="m 79.338,80.349 c -20.112,1.376 -37.276,16.502 -42.705,37.667 -0.412,1.605 -2.015,2.942 -3.656,3.168 -13.502,1.86 -24.079,13.746 -25.349,28.535 -0.142,1.65 -0.142,4.342 0,5.993 1.293,15.073 12.247,27.09 26.047,28.623 1.646,0.182 3.036,0.165 3.088,0.165 h 118.9 c 1.657,0 4.35,0.02 5.992,-0.187 11.96,-1.503 21.432,-11.903 22.7,-24.971 0.16,-1.649 0.16,-4.343 0,-5.991 -1.161,-11.924 -9.178,-21.76 -19.886,-24.44 -1.607,-0.402 -2.94,-0.874 -2.94,-1.28 -1.421,-18.07 -12.375,-30.086 -26.175,-31.62 -1.646,-0.182 -4.342,-0.182 -5.988,0.003 -2.581,0.29 -5.116,0.955 -7.536,1.976 -1.526,0.644 -3.494,0.23 -4.562,-1.036 C 108.986,87.14 97.54,81.19 85.334,80.35 83.681,80.236 82.336,80.247 82.336,80.247 Z"
       style="fill:#ffffff;fill-opacity:1;stroke-width:3.92693;stroke-linecap:round"
       transform="matrix(0.88159,0,0,0.88159,11.369,11.367)"
       id="path6" /><path
       d="m 53.778,179.437 h 2.887 c 2.487,0 2.487,0 2.656,-2.48 0.55,-6.288 2.81,-23.49 11.704,-39.463 11.142,-20.007 27.499,-29.379 33.605,-32.345 0.264,-0.128 0.228,-0.702 0.089,-0.94 -0.139,-0.237 -0.59,-0.575 -0.921,-0.485 -5.8,1.566 -21.817,8.187 -37.52,30.842 -12.567,18.129 -14.632,35.976 -14.956,42.384 -0.053,2.487 -0.053,2.487 2.456,2.487 z"
       style="fill:#99dc9b;fill-opacity:1;stroke:none;stroke-width:0.496384px;stroke-linecap:butt;stroke-linejoin:miter;stroke-opacity:1"
       transform="matrix(0.88159,0,0,0.88159,11.369,11.367)"
       id="path8" /><path
       d="m 73.423,179.486 h 3.065 c 2.501,0 2.501,0 2.83,-2.478 0.852,-5.215 3.733,-17.916 12.794,-30.907 11.815,-16.939 24.363,-24.79 30.622,-27.197 0.27,-0.104 0.233,-0.57 0.091,-0.762 -0.142,-0.193 -0.605,-0.467 -0.944,-0.395 -5.946,1.271 -20.74,8.29 -34.696,25.395 -7.854,9.892 -13.366,21.513 -15.83,33.888 -0.448,2.456 -0.448,2.456 2.068,2.456 z"
       style="fill:#99dc9b;fill-opacity:1;stroke:none;stroke-width:0.452719px;stroke-linecap:butt;stroke-linejoin:miter;stroke-opacity:1"
       transform="matrix(0.88159,0,0,0.88159,11.369,11.367)"
       id="path10" /><path
       d="m 95.019,179.537 h 2.797 c 2.488,0 2.488,0 3.264,-2.373 1.604,-4.548 5.802,-14.84 13.542,-23.829 10.288,-11.948 17.458,-16.456 25.722,-20.818 0.203,-0.106 0.184,-0.446 0.072,-0.598 -0.111,-0.15 -0.475,-0.366 -0.741,-0.309 -4.667,0.997 -15.823,5.136 -29.262,19.031 -7.274,7.692 -13.266,16.653 -17.053,26.553 -0.849,2.343 -0.849,2.343 1.659,2.343 z"
       style="fill:#99dc9b;fill-opacity:1;stroke:none;stroke-width:0.355313px;stroke-linecap:butt;stroke-linejoin:miter;stroke-opacity:1"
       transform="matrix(0.88159,0,0,0.88159,11.369,11.367)"
       id="path12" /></g></svg>
