<?xml version="1.0" encoding="UTF-8" standalone="no"?>
<svg
   version="1.1"
   viewBox="0 0 192 192"
   xml:space="preserve"
   id="svg20"
   sodipodi:docname="trivago.svg"
   inkscape:version="1.2.2 (b0a8486541, 2022-12-01)"
   inkscape:export-filename="trivago.png"
   inkscape:export-xdpi="96"
   inkscape:export-ydpi="96"
   xmlns:inkscape="http://www.inkscape.org/namespaces/inkscape"
   xmlns:sodipodi="http://sodipodi.sourceforge.net/DTD/sodipodi-0.dtd"
   xmlns="http://www.w3.org/2000/svg"
   xmlns:svg="http://www.w3.org/2000/svg"><defs
   id="defs24" /><sodipodi:namedview
   id="namedview22"
   pagecolor="#505050"
   bordercolor="#eeeeee"
   borderopacity="1"
   inkscape:showpageshadow="0"
   inkscape:pageopacity="0"
   inkscape:pagecheckerboard="0"
   inkscape:deskcolor="#d1d1d1"
   showgrid="false"
   inkscape:zoom="6.9532166"
   inkscape:cx="82.551722"
   inkscape:cy="107.93566"
   inkscape:window-width="1884"
   inkscape:window-height="1055"
   inkscape:window-x="36"
   inkscape:window-y="0"
   inkscape:window-maximized="1"
   inkscape:current-layer="svg20" />
	 <rect
   class="a"
   x="20"
   y="20"
   width="152"
   height="152"
   rx="10"
   fill="#fff"
   id="rect2" /><path
   d="m 70.226058,88.489367 c -1.568886,0 -2.870729,0.801134 -3.738625,2.102977 v -1.835932 h -4.272714 v 13.352238 h 4.272714 v -6.375696 c 0,-2.203119 1.502127,-3.47158 3.605103,-3.47158 0.500709,0 0.934656,0.06676 1.235082,0.133521 V 88.62289 c -0.300426,-0.100141 -0.700992,-0.133523 -1.10156,-0.133523 z"
   id="path685"
   style="font-weight:bold;font-size:27.7971px;line-height:1.25;font-family:Now;-inkscape-font-specification:'Now Bold';letter-spacing:0px;fill:#ff837d;fill-opacity:1;stroke-width:0.667611" /><path
   d="m 75.433439,86.519913 c 1.268462,0 2.33664,-1.068178 2.33664,-2.33664 0,-1.301843 -1.068178,-2.336642 -2.33664,-2.336642 -1.268462,0 -2.33664,1.034799 -2.33664,2.336642 0,1.268462 1.068178,2.33664 2.33664,2.33664 z m -2.136357,15.588737 h 4.239334 V 88.756412 h -4.239334 z"
   id="path687"
   style="font-weight:bold;font-size:27.7971px;line-height:1.25;font-family:Now;-inkscape-font-specification:'Now Bold';letter-spacing:0px;fill:#ff837d;fill-opacity:1;stroke-width:0.667611" /><path
   d="m 89.620186,88.756412 -2.803969,8.779093 -2.837349,-8.779093 h -4.539759 l 5.340893,13.352238 h 4.005669 l 5.407654,-13.352238 z"
   id="path689"
   style="font-weight:bold;font-size:27.7971px;line-height:1.25;font-family:Now;-inkscape-font-specification:'Now Bold';letter-spacing:0px;fill:#f8c18c;fill-opacity:1;stroke-width:0.667611" /><path
   d="m 110.88364,98.637064 c -0.56747,0 -1.16832,-0.200283 -1.16832,-1.301842 v -8.57881 h -4.23934 v 1.16832 c -1.00141,-0.901275 -2.26987,-1.435365 -3.80538,-1.435365 -3.705245,0 -6.609356,3.071014 -6.609356,6.943161 0,3.872148 2.904111,6.943162 6.609356,6.943162 1.93607,0 3.50496,-0.8679 4.57314,-2.26988 0.83452,1.36861 2.30326,2.26988 4.10581,2.26988 0.43394,0 0.83451,-0.13353 1.13494,-0.26704 v -3.471586 z m -8.37853,-0.03338 c -1.76917,0 -3.171152,-1.401985 -3.171152,-3.171156 0,-1.769171 1.401982,-3.171154 3.171152,-3.171154 1.7358,0 3.17116,1.401983 3.17116,3.171154 0,1.769171 -1.43536,3.171156 -3.17116,3.171156 z"
   id="path691"
   style="font-weight:bold;font-size:27.7971px;line-height:1.25;font-family:Now;-inkscape-font-specification:'Now Bold';letter-spacing:0px;fill:#f8c18c;fill-opacity:1;stroke-width:0.667611" /><path
   d="m 128.07466,88.756412 h -4.27272 v 1.335223 c -1.10156,-1.001417 -2.53692,-1.602268 -4.17256,-1.602268 -3.70525,0 -6.60937,3.037633 -6.60937,6.943161 0,3.872148 2.90412,6.943162 6.60937,6.943162 1.66903,0 3.13777,-0.63423 4.23933,-1.66903 v 1.76917 c 0,2.47016 -1.3686,3.97229 -3.53835,3.97229 -1.5355,0 -2.70383,-0.83451 -3.20453,-2.16974 l -3.90553,1.56889 c 1.10156,2.73721 3.6051,4.3061 7.11006,4.3061 4.87357,0 7.77768,-2.97088 7.77768,-7.91121 z m -7.37711,9.847272 c -1.76917,0 -3.17115,-1.401985 -3.17115,-3.171156 0,-1.769171 1.40198,-3.171154 3.17115,-3.171154 1.76917,0 3.20453,1.401983 3.20453,3.171154 0,1.769171 -1.43536,3.171156 -3.20453,3.171156 z"
   id="path693"
   style="font-weight:bold;font-size:27.7971px;line-height:1.25;font-family:Now;-inkscape-font-specification:'Now Bold';letter-spacing:0px;fill:#9abeff;stroke-width:0.667611" /><path
   d="m 138.58952,102.37569 c 4.47299,0 7.41048,-2.937492 7.41048,-6.943162 0,-4.00567 -2.93749,-6.943161 -7.41048,-6.943161 -4.47301,0 -7.44388,2.937491 -7.44388,6.943161 0,4.00567 2.97087,6.943162 7.44388,6.943162 z m 0,-3.772006 c -1.83594,-0.03338 -3.17116,-1.368605 -3.17116,-3.171156 0,-1.802551 1.33522,-3.137774 3.17116,-3.171154 1.80254,0.03338 3.17115,1.368603 3.17115,3.171154 0,1.802551 -1.36861,3.137774 -3.17115,3.171156 z"
   id="path695"
   style="font-weight:bold;font-size:27.7971px;line-height:1.25;font-family:Now;-inkscape-font-specification:'Now Bold';letter-spacing:0px;fill:#9abeff;stroke-width:0.667611" /><path
   fill="#e32851"
   d="m 57.385062,94.978067 h -4.041871 a 0.21359481,0.21359481 0 0 0 -0.208666,0.1947 3.2203525,3.2203525 0 0 1 -3.209673,2.965682 c -2.030793,0 -2.852312,-1.725189 -2.852312,-1.725189 A 3.222817,3.222817 0 0 1 46.7045,94.976424 c 0,-0.01643 0.009,-0.03286 0.02464,-0.04108 l 1.155877,-0.638319 7.306585,-4.04105 a 0.34914536,0.34914536 0 0 0 0.180734,-0.305605 v -4.343368 a 0.20948721,0.20948721 0 0 0 -0.312177,-0.18402 l -8.285014,4.58243 A 0.04682655,0.04682655 0 0 1 46.7045,89.96434 v -6.828462 a 0.20948721,0.20948721 0 0 0 -0.323679,-0.175805 l -3.972041,2.571353 a 0.34914536,0.34914536 0 0 0 -0.159375,0.294925 v 9.151716 a 7.6754473,7.6754473 0 0 0 15.345965,0.220167 0.21113025,0.21113025 0 0 0 -0.210308,-0.220167 z"
   id="path265"
   style="fill:#ff837d;stroke-width:0.821518"
   clip-path="none"
   transform="matrix(0.96069246,0,0,0.96069246,5.4113155,3.7735195)" /></svg>
