<svg xmlns="http://www.w3.org/2000/svg" xml:space="preserve" viewBox="0 0 192 192"><rect width="152" height="152" x="20" y="20" fill="#728dbe" class="a" rx="10"/><g fill="#96dfd3"><path d="M59.044 111.488V88.689c0-1.335.191-1.524 1.52-1.524h43.549c.025-.45.06-.82.063-1.19.007-1.612-.005-3.22.007-4.831.01-1.072.296-1.357 1.354-1.36 8.666-.002 17.333-.002 26 0 1.07 0 1.416.33 1.416 1.41.007 7.379.007 14.754 0 22.132 0 1.16-.387 1.508-1.634 1.508-7.933.002-15.869 0-23.802 0h-1.256v2.066c0 1.317.007 2.634-.003 3.953-.007 1.001-.364 1.358-1.382 1.36-5.125.005-10.247.003-15.372.003H60.608c-.556.002-1.137.075-1.564-.728zm2.1-1.45h42.927V89.34H61.145v20.697zm63.444-16.92-.166.028-3.049-7.116h-2.55v12.486h2.22v-6.525l.197-.042c1.013 2.21 2.027 4.424 3.01 6.565h2.589V86.028h-2.251v7.09zm-7.634-4.926v-2.253l-6.236.033v2.218h1.814v8.171h-2.004v2.178h6.589v-2.178l-1.996-.01.002-8.159z"/><path d="M66.258 95.327H62.8V93.5h8.863v1.826h-3.456v10.38h-1.95zM73.456 101.05V93.5h1.96v7.71c0 1.98.732 2.831 1.899 2.831 1.177 0 1.93-.852 1.93-2.832v-7.709h1.885v7.548c0 3.332-1.41 4.882-3.815 4.882-2.416 0-3.86-1.55-3.86-4.882zM83.56 93.501h2.05l2.9 6.855.997 2.608h.046c-.081-1.247-.263-2.793-.263-4.156v-5.305h1.86v12.206H89.1L86.2 98.848l-.995-2.601h-.047c.08 1.298.264 2.769.264 4.12v5.342h-1.86zM94.108 93.501h7.035v1.826H96.06v3.121h4.305v1.826H96.06v3.607h5.253v1.826h-7.205z"/></g></svg>