<svg width="192" height="192" viewBox="0 0 192 192" fill="none" xmlns="http://www.w3.org/2000/svg">
<g clip-path="url(#clip0_2001_102)">
<path d="M39.3811 37.8085C40.8853 27.5797 49.6612 20 60 20V20C70.3388 20 79.1147 27.5797 80.6189 37.8085L86.8179 79.9621C87.4969 84.5789 91.4579 88 96.1244 88V88C100.682 88 104.583 84.7333 105.384 80.247L110.836 49.7197C112.667 39.4662 121.584 32 132 32V32C142.416 32 151.333 39.4662 153.164 49.7197L156.11 66.2135C158.456 79.3562 168.61 89.722 181.701 92.3403V92.3403C184.475 92.8949 184.644 96.7962 181.93 97.5897L181.004 97.8603C168.137 101.622 158.51 112.345 156.153 125.542L153.164 142.28C151.333 152.534 142.416 160 132 160V160C121.584 160 112.667 152.534 110.836 142.28L105.384 111.753C104.583 107.267 100.682 104 96.1244 104V104C91.4579 104 87.4969 107.421 86.8179 112.038L80.6189 154.192C79.1147 164.42 70.3388 172 60 172V172C49.6612 172 40.8853 164.42 39.3811 154.192L35.1542 125.449C33.2292 112.359 23.9114 101.561 11.244 97.7402L10.3432 97.4686C7.75489 96.688 7.92129 92.9686 10.5689 92.4223V92.4223C23.437 89.767 33.2721 79.3497 35.1838 66.3503L39.3811 37.8085Z" fill="url(#paint0_linear_2001_102)"/>
</g>
<defs>
<linearGradient id="paint0_linear_2001_102" x1="155.5" y1="36.5" x2="32.5" y2="172" gradientUnits="userSpaceOnUse">
<stop offset="0.35" stop-color="#98DC9A"/>
<stop offset="0.87" stop-color="#F9DE81"/>
</linearGradient>
<clipPath id="clip0_2001_102">
<rect width="192" height="192" fill="white"/>
</clipPath>
</defs>
</svg>
