<svg xmlns="http://www.w3.org/2000/svg" id="svg2" width="192" height="192" version="1.1"><g id="layer1" transform="translate(0 -860.362)"><path id="rect985" d="M29.5 879.862h133c5.54 0 10 4.46 10 10v133c0 5.54-4.46 10-10 10h-133c-5.54 0-10-4.46-10-10v-133c0-5.54 4.46-10 10-10z" style="fill:#728dbe;fill-opacity:1;fill-rule:evenodd;stroke:none;stroke-opacity:1"/><path id="path865" d="M92.703 59.727 72.916 72.916 82.619 82l9.785-7 .3-15.273zm6.594 0L99 75l10 7 10.084-9.084-19.787-13.19zm-29.19 19.677V112.596L80 106V86l-9.893-6.596zm51.786 0L112 86v20l9.893 6.596V79.404zM96 79.512l-9.893 6.595v19.786L96 112.488l9.893-6.595V86.107L96 79.512zM82.62 110l-9.704 9.082 19.787 13.191L92.404 117l-9.785-7zm26.38 0-10 7 .297 15.273 19.787-13.191L109 110z" style="fill:#fff;stroke-width:3.29758191" transform="translate(0 860.362)"/></g><style id="style853" type="text/css">.st0{fill:#898989}.st1{fill:#fff}</style></svg>