<?xml version="1.0" encoding="UTF-8" standalone="no"?>
<svg
   viewBox="0 0 192 192"
   version="1.1"
   id="svg5"
   sodipodi:docname="tver.svg"
   xml:space="preserve"
   inkscape:version="1.2.2 (b0a8486541, 2022-12-01)"
   inkscape:export-filename="tver.png"
   inkscape:export-xdpi="96"
   inkscape:export-ydpi="96"
   xmlns:inkscape="http://www.inkscape.org/namespaces/inkscape"
   xmlns:sodipodi="http://sodipodi.sourceforge.net/DTD/sodipodi-0.dtd"
   xmlns:xlink="http://www.w3.org/1999/xlink"
   xmlns="http://www.w3.org/2000/svg"
   xmlns:svg="http://www.w3.org/2000/svg"><defs
     id="defs5"><linearGradient
       id="linearGradient9"
       inkscape:collect="always"><stop
         style="stop-color:#9abeff;stop-opacity:1;"
         offset="0"
         id="stop9" /><stop
         style="stop-color:#728dbe;stop-opacity:1;"
         offset="1"
         id="stop10" /></linearGradient><linearGradient
       inkscape:collect="always"
       xlink:href="#linearGradient9"
       id="linearGradient8"
       x1="72.346611"
       y1="72.655022"
       x2="103.68967"
       y2="117.41755"
       gradientUnits="userSpaceOnUse"
       gradientTransform="matrix(1.5133727,0,0,1.5133727,-46.622371,-50.007776)" /><linearGradient
       inkscape:collect="always"
       xlink:href="#linearGradient9"
       id="linearGradient10"
       gradientUnits="userSpaceOnUse"
       x1="36.346611"
       y1="72.655022"
       x2="67.689667"
       y2="117.41755"
       gradientTransform="matrix(1.5133727,0,0,1.5133727,-46.622371,-50.007776)" /></defs><sodipodi:namedview
     id="namedview5"
     pagecolor="#505050"
     bordercolor="#ffffff"
     borderopacity="1"
     inkscape:showpageshadow="0"
     inkscape:pageopacity="0"
     inkscape:pagecheckerboard="1"
     inkscape:deskcolor="#d1d1d1"
     showgrid="false"
     inkscape:zoom="1.1692709"
     inkscape:cx="-169.3363"
     inkscape:cy="137.26503"
     inkscape:window-width="1884"
     inkscape:window-height="1055"
     inkscape:window-x="36"
     inkscape:window-y="0"
     inkscape:window-maximized="1"
     inkscape:current-layer="svg5"><inkscape:grid
       id="grid5"
       units="px"
       originx="0"
       originy="0"
       spacingx="1"
       spacingy="1"
       empcolor="#0099e5"
       empopacity="0.30196078"
       color="#0099e5"
       opacity="0.14901961"
       empspacing="5"
       dotted="false"
       gridanglex="30"
       gridanglez="30"
       visible="false" /></sodipodi:namedview><rect
     width="152"
     height="152"
     x="20"
     y="20"
     rx="10"
     style="isolation:isolate;fill:#ffffff;stroke:none;stroke-linecap:round;stroke-linejoin:round"
     id="rect1" /><g
     id="g247"
     transform="matrix(0.66077576,0,0,0.66077576,32.806933,33.043926)"><path
       style="font-weight:bold;font-size:77.3333px;line-height:103.111px;font-family:'Now Alt';-inkscape-font-specification:'Now Alt Bold';letter-spacing:-4.83333px;white-space:pre;fill:url(#linearGradient10);fill-opacity:1;stroke-width:3;stroke-linecap:round;stroke-linejoin:round;paint-order:fill markers stroke"
       d="M 74.346614,67.000027 H 32.3933 V 78.310021 H 47.086626 V 125 H 59.749954 V 78.310021 h 14.59666 z"
       id="text5" /><path
       style="font-weight:bold;font-size:77.3333px;line-height:103.111px;font-family:'Now Alt';-inkscape-font-specification:'Now Alt Bold';letter-spacing:-4.83333px;white-space:pre;fill:url(#linearGradient8);fill-opacity:1;stroke-width:3;stroke-linecap:round;stroke-linejoin:round;paint-order:fill markers stroke"
       d="M 109.62999,67.000027 95.806661,108.47001 81.983334,67.000027 H 67.77334 L 88.653331,125 h 14.306659 l 20.87999,-57.999973 z"
       id="path10" /><path
       style="font-size:53.9625px;line-height:71.95px;font-family:'Now Alt';-inkscape-font-specification:'Now Alt';letter-spacing:0px;white-space:pre;fill:#56595b;stroke-width:3;stroke-linecap:round;stroke-linejoin:round;paint-order:fill markers stroke"
       d="m 158.93894,99.76002 c -3.84483,0 -6.94767,1.68633 -8.97127,4.38446 v -3.84483 h -4.18209 v 26.98125 h 4.18209 v -14.63733 c 0,-4.92408 4.04719,-8.70145 8.97127,-8.70145 0.80944,0 1.48397,0.0674 2.09104,0.26981 v -4.24955 c -0.60707,-0.1349 -1.2816,-0.20236 -2.09104,-0.20236 z"
       id="path6" /><path
       style="font-size:53.9625px;line-height:71.95px;font-family:'Now Alt';-inkscape-font-specification:'Now Alt';letter-spacing:0px;white-space:pre;fill:#56595b;stroke-width:3;stroke-linecap:round;stroke-linejoin:round;paint-order:fill markers stroke"
       d="m 141.09589,113.52046 c -0.20236,-7.75711 -6.34059,-13.76044 -14.03025,-13.76044 -7.75711,0 -14.03025,6.27314 -14.03025,14.03025 0,7.75711 6.27314,14.03025 14.03025,14.03025 6.40805,0 11.73685,-4.24954 13.49063,-10.05051 h -4.45191 c -1.48397,3.50756 -4.99153,5.86842 -9.03872,5.86842 -5.3288,0 -9.57834,-4.04719 -9.84816,-9.24108 h 23.81096 z m -14.03025,-9.57834 c 4.317,0 7.95947,2.76558 9.24108,6.67786 h -18.54961 c 1.34906,-3.91228 4.99153,-6.67786 9.30853,-6.67786 z"
       id="text6" /></g></svg>
