<svg xmlns="http://www.w3.org/2000/svg" id="svg2" width="192" height="192" version="1.1"><g id="layer1" transform="translate(0 -860.362)"><rect id="rect1173" width="152" height="152" x="20" y="880.362" rx="9.935" ry="9.935" style="fill:#bd9aff;fill-opacity:1;fill-rule:evenodd;stroke:none;stroke-width:.993464;stroke-opacity:1"/><path id="path1175" d="m75.982 925.696-9.5 9.5a6.036 6.036 112.5 0 0-1.768 4.268v41.928a2.5 2.5 45 0 0 2.5 2.5h10.643a2.5 2.5 45 0 1 2.5 2.5v8.036a1.036 1.036 22.5 0 0 1.768.732l9.5-9.5a6.036 6.036 157.5 0 1 4.268-1.768h5.428a6.036 6.036 157.5 0 0 4.268-1.767l19.929-19.93a6.036 6.036 112.5 0 0 1.768-4.267v-31.5a2.5 2.5 45 0 0-2.5-2.5H80.25a6.036 6.036 157.5 0 0-4.268 1.768z" style="fill:#56595b;fill-opacity:1;stroke-width:.0260714"/><path id="path1177" d="m121.01 958.882-8.307 8.307a3.621 3.621 157.5 0 1-2.56 1.06h-7.429a3.621 3.621 157.5 0 0-2.56 1.061l-7.004 7.004a.621.621 22.5 0 1-1.06-.44v-6.125a1.5 1.5 45 0 0-1.5-1.5h-8.733a1.5 1.5 45 0 1-1.5-1.5v-36.107a1.5 1.5 135 0 1 1.5-1.5h38.714a1.5 1.5 45 0 1 1.5 1.5v25.679a3.621 3.621 112.5 0 1-1.06 2.56z" style="color:#000;font-style:normal;font-variant:normal;font-weight:400;font-stretch:normal;font-size:medium;line-height:normal;font-family:sans-serif;font-variant-ligatures:normal;font-variant-position:normal;font-variant-caps:normal;font-variant-numeric:normal;font-variant-alternates:normal;font-variant-east-asian:normal;font-feature-settings:normal;font-variation-settings:normal;text-indent:0;text-align:start;text-decoration:none;text-decoration-line:none;text-decoration-style:solid;text-decoration-color:#000;letter-spacing:normal;word-spacing:normal;text-transform:none;writing-mode:lr-tb;direction:ltr;text-orientation:mixed;dominant-baseline:auto;baseline-shift:baseline;text-anchor:start;white-space:normal;shape-padding:0;shape-margin:0;inline-size:0;clip-rule:nonzero;display:inline;overflow:visible;visibility:visible;isolation:auto;mix-blend-mode:normal;color-interpolation:sRGB;color-interpolation-filters:linearRGB;solid-color:#000;solid-opacity:1;vector-effect:none;fill:#fff;fill-opacity:1;fill-rule:nonzero;stroke:none;stroke-width:.0260714;stroke-linecap:butt;stroke-linejoin:miter;stroke-miterlimit:4;stroke-dasharray:none;stroke-dashoffset:0;stroke-opacity:1;color-rendering:auto;image-rendering:auto;shape-rendering:auto;text-rendering:auto;enable-background:accumulate;stop-color:#000"/><rect id="rect1179" width="5.214" height="15.643" x="109.036" y="938.267" class="st1" rx="2.5" ry="2.5" style="fill:#56595b;fill-opacity:1;stroke-width:.0260714"/><rect id="rect1181" width="5.214" height="15.643" x="94.696" y="938.267" class="st1" rx="2.5" ry="2.5" style="fill:#56595b;fill-opacity:1;stroke-width:.0260714"/></g><style id="style853" type="text/css">.st1{fill:#9146ff}</style></svg>