<?xml version="1.0" encoding="UTF-8"?>
<svg version="1.1" viewBox="0 0 192 192" xml:space="preserve" xmlns="http://www.w3.org/2000/svg">
	 <circle class="a" cx="96" cy="96" r="88" fill="#fff"/><g transform="matrix(5.8233 0 0 5.8233 52.001 64.168)"><path d="m6.8035 4.7607-2.2396 1.7296" fill="none" stroke="#ff837d" stroke-width=".7925"/><path transform="matrix(.96765 0 0 .96765 .066617 .35563)" d="m4.2012 5.6777c-0.56596 0-1.0273 0.46454-1.0273 1.0312 0 0.568 0.46131 1.0332 1.0273 1.0332 0.56603 0 1.0293-0.46492 1.0293-1.0332 0-0.567-0.46334-1.0312-1.0293-1.0312zm0 0.66211c0.20424 0 0.36914 0.16404 0.36914 0.36914 0 0.2051-0.16544 0.37109-0.36914 0.37109-0.20352 1e-7 -0.36719-0.16549-0.36719-0.37109 0-0.20561 0.16312-0.36914 0.36719-0.36914z" fill="#f9de81"/><path d="m8.5226 6.8457a3.3593 3.3593 0 0 1-3.1006 3.3493 3.3593 3.3593 0 0 1-3.5782-2.8335 3.3593 3.3593 0 0 1 2.5495-3.7858" fill="none" stroke="#bd9aff" stroke-width="1.2715"/><path transform="scale(-1)" d="m-6.5889-4.0871a3.3593 3.3593 0 0 1-3.1006 3.3493 3.3593 3.3593 0 0 1-3.5782-2.8335 3.3593 3.3593 0 0 1 2.5495-3.7858" fill="none" stroke="#ff837d" stroke-width="1.2715"/><path d="m4.7363 1.6154 6.166 8.4183" fill="none" stroke="#f8c18c" stroke-width="1.2715"/></g></svg>
