<svg xmlns="http://www.w3.org/2000/svg" width="192" height="192"><g transform="translate(0 -860.362)"><circle cx="96" cy="956.362" r="88" style="fill:#738dbe;fill-opacity:1;fill-rule:evenodd;stroke:none"/><path d="m74.998 917.87-8.924 9.942a.892.892 65.954 0 0 .664 1.489h2.346a1 1 45 0 1 1 1v24.34c0 14.05 11.756 25.39 25.916 25.39a26.12 26.12 0 0 0 12.548-3.201c.484-.265.868-.048.868.504v5.09a1 1 135 0 1-1 1h-2.346a.892.892 114.046 0 0-.664 1.488l8.924 9.943a1.795 1.795 0 0 0 2.672 0l8.924-9.943a.892.892 65.954 0 0-.664-1.488h-2.346a1 1 45 0 1-1-1V930.3a1 1 45 0 0-1-1h-10.5a1 1 135 0 0-1 1V954.64c0 7.158-5.787 12.89-13.416 12.89-7.63 0-13.416-5.732-13.416-12.89V930.3a1 1 135 0 1 1-1h2.346a.892.892 114.046 0 0 .664-1.489l-8.924-9.943a1.795 1.795 0 0 0-2.672 0z" style="color:#000;font-style:normal;font-variant:normal;font-weight:400;font-stretch:normal;font-size:medium;line-height:normal;font-family:sans-serif;font-variant-ligatures:normal;font-variant-position:normal;font-variant-caps:normal;font-variant-numeric:normal;font-variant-alternates:normal;font-variant-east-asian:normal;font-feature-settings:normal;font-variation-settings:normal;text-indent:0;text-align:start;text-decoration:none;text-decoration-line:none;text-decoration-style:solid;text-decoration-color:#000;letter-spacing:normal;word-spacing:normal;text-transform:none;writing-mode:lr-tb;direction:ltr;text-orientation:mixed;dominant-baseline:auto;baseline-shift:baseline;text-anchor:start;white-space:normal;shape-padding:0;shape-margin:0;inline-size:0;clip-rule:nonzero;display:inline;overflow:visible;visibility:visible;opacity:1;isolation:auto;mix-blend-mode:normal;color-interpolation:sRGB;color-interpolation-filters:linearRGB;solid-color:#000;solid-opacity:1;vector-effect:none;fill:#fefefe;fill-opacity:1;fill-rule:nonzero;stroke:none;stroke-width:12.5;stroke-linecap:round;stroke-linejoin:round;stroke-miterlimit:4;stroke-dasharray:none;stroke-dashoffset:0;stroke-opacity:1;paint-order:markers fill stroke;color-rendering:auto;image-rendering:auto;shape-rendering:auto;text-rendering:auto;enable-background:accumulate;stop-color:#000;stop-opacity:1"/></g></svg>