<svg xmlns="http://www.w3.org/2000/svg" width="192" height="192"><circle cx="95.5" cy="95.5" r="88" style="display:inline;fill:#e85e5c;fill-opacity:1;stroke:none;opacity:1"/><g style="display:inline;opacity:1"><path d="M68.208 60.893v21.711c0 12.228.232 23.083.58 24.873 1.51 7.992 7.375 16.164 14.169 19.624 4.064 2.087 3.833 2.326 4.936-3.877.871-5.01 3.659-10.439 7.375-14.554 6.155-6.8 13.645-10.319 22.413-10.378l5.11-.06v-37.34H95.5Zm5.806 5.368H116.985v26.244h-1.859c-3.135 0-8.942 1.67-12.949 3.638-7.839 3.997-15.04 11.811-18.059 19.744-1.8 4.713-2.322 4.712-5.748-.12-4.065-5.666-4.356-7.693-4.356-29.882zm43.848 36.154c-1.385.001-2.808.075-3.896.231-10.685 1.73-19.976 10.855-22.24 21.89-1.278 6.143-1.684 5.726 5.11 5.428 5.4-.179 6.329-.418 10.277-2.386 7.897-3.937 13.647-11.81 15.156-20.697.349-2.028.58-3.818.464-3.937-.362-.335-2.563-.531-4.87-.529z" style="opacity:1;fill:#fff;fill-opacity:1;stroke:none;stroke-width:.36900902"/></g></svg>