<?xml version="1.0" encoding="UTF-8"?>
<svg version="1.1" viewBox="0 0 192 192" xmlns="http://www.w3.org/2000/svg">
 <g style="fill:none">
  <rect x="20" y="20" width="152" height="152" rx="10" fill="#9abeff" style="fill:#54688c"/>
  <path d="m52 62a2 2 0 0 1 2-2h84a2 2 0 0 1 2 2v52.232c0 0.843-0.528 1.595-1.321 1.881l-42 15.165c-0.439 0.158-0.92 0.158-1.358 0l-42-15.165a2 2 0 0 1-1.321-1.881z" clip-rule="evenodd" fill="#ff837d" fill-rule="evenodd" style="fill:#fff"/>
  <path d="m81.692 107.22c9.68 0 14.74-4.712 14.74-12.15v-17.892h-10.853v16.494c0 2.283-1.687 4.05-3.887 4.05-2.127 0-3.74-1.767-3.74-4.05v-16.495h-10.927v17.894c0 7.437 5.06 12.149 14.667 12.149zm32.34 0c7.113 0 11.147-4.27 11.147-9.867 0-6.112-5.134-8.542-9.387-10.235-1.613-0.663-2.42-0.958-2.42-1.62 0-0.516 0.44-1.105 1.833-1.105 1.907 0 3.667 1.105 4.694 2.062l4.766-6.259c-2.566-2.135-6.086-3.608-10.266-3.608-7.48 0-11.66 4.86-11.66 9.793 0 6.26 6.82 8.1 9.46 9.131 2.42 0.884 3.006 1.547 3.006 2.21 0 0.736-0.733 1.178-1.98 1.178-1.1 0-3.006-0.295-4.62-2.872l-7.626 3.976c1.906 4.86 7.7 7.216 13.053 7.216z" clip-rule="evenodd" fill="#fff" fill-rule="evenodd" style="fill:#54688c"/>
 </g>
</svg>
