<svg xmlns="http://www.w3.org/2000/svg" id="svg2" width="192" height="192" version="1.1"><g id="layer1" transform="translate(0 -860.362)"><path id="path961" d="M63.234 878.757a4.664 4.664 0 0 0-.982.127 146.897 146.897 0 0 0-41.219 16.625c-2.374 1.409-4.033 4.852-3.687 7.591 4.06 32.177 15.358 63.712 34.502 89.995 1.625 2.232 4.318 5.81 6.06 7.953 9.717 11.95 21.916 21.461 34.086 30.832 1.106.85 2.557 1.269 4.006 1.26v-69.342c-1.11.015-2.223-.543-3.037-1.682-16.409-22.962-24.387-51.237-25.668-79.297-.11-2.413-1.832-4.102-4.06-4.062z" style="fill:#708cbd;fill-opacity:1;stroke-width:1.21825"/><path id="path1117" d="M128.766 878.757c.318.006.646.047.982.127a146.897 146.897 0 0 1 41.219 16.625c2.374 1.409 4.033 4.852 3.687 7.591-4.06 32.177-15.358 63.712-34.502 89.995-1.625 2.232-4.318 5.81-6.06 7.953-9.717 11.95-21.916 21.461-34.086 30.832-1.106.85-2.557 1.269-4.006 1.26v-69.342c1.11.015 2.223-.543 3.037-1.682 16.409-22.962 24.387-51.237 25.668-79.297.11-2.413 1.832-4.102 4.06-4.062z" style="fill:#54688c;fill-opacity:1;stroke-width:1.21825"/></g><style id="style853" type="text/css">.st0{fill:#fff}</style></svg>