<svg xmlns="http://www.w3.org/2000/svg" width="192" height="192"><path d="m40 48 56 68 56-68" style="fill:none;stroke-linecap:round;stroke-linejoin:round;stroke-width:16;stroke:#71a372"/><path d="M12 136.4s0 11.455 11.455 11.455h145.09C180 147.855 180 136.4 180 136.4s0-84.763-84-84.763S12 136.4 12 136.4z" style="fill:#98dc9a;stroke-width:.95455"/><path d="M172.55 100.92 14.03 143.19c1.585 2.469 4.403 4.664 9.418 4.664h145.09c11.455 0 11.455-11.453 11.455-11.453s-.022-16.825-7.447-35.48z" style="fill:#979797"/><circle cx="18" cy="142" r="10" style="fill:#ff837d;paint-order:stroke fill markers"/><circle cx="174" cy="102" r="10" style="fill:#96dfd3;paint-order:stroke fill markers"/><circle cx="62" cy="110" r="14" style="fill:#71a372;paint-order:stroke fill markers"/><circle cx="62" cy="110" r="10" style="fill:#fff;paint-order:stroke fill markers"/><circle cx="-130" cy="110" r="14" style="fill:#71a372;paint-order:stroke fill markers" transform="scale(-1 1)"/><path d="m143.92 108.55-26.707 7.121a14 14 0 0 0 12.785 8.324 14 14 0 0 0 14-14 14 14 0 0 0-.078-1.445z" style="fill:#56595b;paint-order:stroke fill markers"/><circle cx="-130" cy="110" r="10" style="fill:#fff;paint-order:stroke fill markers" transform="scale(-1 1)"/></svg>