<svg xmlns="http://www.w3.org/2000/svg" xml:space="preserve" id="svg2" width="192" height="192" version="1.1"><defs id="defs4"><style id="style3336">.cls-1{fill:none}.cls-158,.cls-159,.cls-160,.cls-2,.cls-5,.cls-6,.cls-8{isolation:isolate}.cls-3{clip-path:url(#clip-path)}.cls-107,.cls-109,.cls-111,.cls-4{fill:#fff}.cls-100,.cls-102,.cls-104,.cls-106,.cls-108,.cls-11,.cls-110,.cls-112,.cls-114,.cls-116,.cls-118,.cls-120,.cls-122,.cls-124,.cls-126,.cls-128,.cls-13,.cls-130,.cls-132,.cls-134,.cls-136,.cls-138,.cls-140,.cls-142,.cls-144,.cls-146,.cls-148,.cls-15,.cls-150,.cls-152,.cls-154,.cls-156,.cls-17,.cls-19,.cls-21,.cls-23,.cls-26,.cls-28,.cls-31,.cls-33,.cls-34,.cls-36,.cls-38,.cls-4,.cls-40,.cls-42,.cls-44,.cls-46,.cls-48,.cls-50,.cls-52,.cls-54,.cls-56,.cls-58,.cls-60,.cls-62,.cls-64,.cls-66,.cls-68,.cls-70,.cls-72,.cls-74,.cls-76,.cls-78,.cls-80,.cls-82,.cls-84,.cls-86,.cls-88,.cls-9,.cls-90,.cls-92,.cls-94,.cls-96,.cls-98{fill-rule:evenodd}.cls-5,.cls-6{font-size:14px;fill:#444;font-family:Arial-ItalicMT,Arial;font-style:italic}.cls-6{font-size:13px}.cls-7{letter-spacing:-.02em}.cls-8{font-size:16px;font-family:Arial-BoldMT,Arial}.cls-158,.cls-159,.cls-160,.cls-8{font-weight:700}.cls-100,.cls-102,.cls-104,.cls-106,.cls-108,.cls-109,.cls-11,.cls-110,.cls-112,.cls-114,.cls-116,.cls-118,.cls-120,.cls-122,.cls-124,.cls-126,.cls-127,.cls-128,.cls-13,.cls-130,.cls-131,.cls-132,.cls-134,.cls-135,.cls-136,.cls-138,.cls-139,.cls-140,.cls-142,.cls-143,.cls-144,.cls-146,.cls-147,.cls-148,.cls-149,.cls-15,.cls-150,.cls-152,.cls-153,.cls-154,.cls-156,.cls-17,.cls-19,.cls-21,.cls-23,.cls-26,.cls-28,.cls-31,.cls-33,.cls-34,.cls-36,.cls-38,.cls-40,.cls-42,.cls-44,.cls-46,.cls-48,.cls-50,.cls-52,.cls-54,.cls-56,.cls-58,.cls-60,.cls-62,.cls-64,.cls-66,.cls-68,.cls-70,.cls-72,.cls-74,.cls-76,.cls-78,.cls-80,.cls-82,.cls-84,.cls-86,.cls-88,.cls-9,.cls-90,.cls-92,.cls-94,.cls-96,.cls-98{fill-opacity:.5}.cls-9{fill:url(#Transparent_44_)}.cls-10{fill:url(#Unnamed_Pattern_79)}.cls-11{fill:url(#Transparent_77_)}.cls-12{fill:#ececec}.cls-13{fill:url(#Transparent_78_)}.cls-115,.cls-117,.cls-119,.cls-14{fill:#d8d8d8}.cls-15{fill:url(#Transparent_79_)}.cls-16{fill:#d2d2d2}.cls-17{fill:url(#Transparent_80_)}.cls-18{fill:#ccc}.cls-19{fill:url(#Transparent_90_)}.cls-121,.cls-20{fill:#b1b5bd}.cls-21{fill:url(#Transparent_96_)}.cls-22{fill:#a0a5af}.cls-23{fill:url(#Transparent_98_)}.cls-24{fill:#979797}.cls-25{letter-spacing:-.07em}.cls-26{fill:url(#Transparent_100_)}.cls-27{fill:#83868c}.cls-28{fill:url(#Transparent_157_)}.cls-29{fill:#56595b}.cls-30{letter-spacing:-.04em}.cls-31{fill:url(#Transparent_158_)}.cls-158,.cls-159,.cls-160,.cls-32{fill:#4a4a4a}.cls-33{fill:url(#Transparent_159_)}.cls-34{fill:url(#Transparent_160_)}.cls-35{fill:#fcecdc}.cls-36{fill:url(#Transparent_161_)}.cls-37{fill:#f8c18c}.cls-38{fill:url(#Transparent_162_)}.cls-39{fill:#ffd6d4}.cls-40{fill:url(#Transparent_163_)}.cls-139,.cls-141,.cls-41{fill:#ff837d}.cls-42{fill:url(#Transparent_164_)}.cls-43{fill:#ba6561}.cls-44{fill:url(#Transparent_165_)}.cls-45{fill:#e0f4e0}.cls-46{fill:url(#Transparent_166_)}.cls-135,.cls-137,.cls-47{fill:#98dc9a}.cls-48{fill:url(#Transparent_167_)}.cls-49{fill:#71a372}.cls-50{fill:url(#Transparent_168_)}.cls-51{fill:#d3b69a}.cls-52{fill:url(#Transparent_169_)}.cls-53{fill:#8e6f60}.cls-54{fill:url(#Transparent_170_)}.cls-127,.cls-129,.cls-55{fill:#9abeff}.cls-56{fill:url(#Transparent_171_)}.cls-57{fill:#728dbe}.cls-58{fill:url(#Transparent_172_)}.cls-59{fill:#fdf5d9}.cls-60{fill:url(#Transparent_173_)}.cls-131,.cls-133,.cls-61{fill:#f9de81}.cls-62{fill:url(#Transparent_174_)}.cls-63{fill:#c39a54}.cls-64{fill:url(#Transparent_175_)}.cls-153,.cls-155,.cls-65{fill:#bd9aff}.cls-66{fill:url(#Transparent_176_)}.cls-67{fill:#8c72bd}.cls-68{fill:url(#Transparent_177_)}.cls-69{fill:#96dfd3}.cls-70{fill:url(#Transparent_178_)}.cls-71{fill:#73ada4}.cls-72{fill:url(#Transparent_179_)}.cls-157,.cls-73{fill:#ababff}.cls-74{fill:url(#Transparent_180_)}.cls-75{fill:#54688c}.cls-76{fill:url(#Transparent_181_)}.cls-77{fill:#ffb0ac}.cls-78{fill:url(#Transparent_182_)}.cls-79{fill:#f58f8a}.cls-80{fill:url(#Transparent_183_)}.cls-81{fill:#f4806d}.cls-82{fill:url(#Transparent_184_)}.cls-83{fill:#e85e5c}.cls-84{fill:url(#Transparent_185_)}.cls-85{fill:#dc505e}.cls-86{fill:url(#Transparent_186_)}.cls-87{fill:#b02a3c}.cls-88{fill:url(#Transparent_187_)}.cls-89{fill:#7a1b1c}.cls-90{fill:url(#Transparent_188_)}.cls-91{fill:#511119}.cls-92{fill:url(#Transparent_189_)}.cls-93{fill:#f1e9e0}.cls-94{fill:url(#Transparent_190_)}.cls-95{fill:#d7d0b8}.cls-96{fill:url(#Transparent_191_)}.cls-97{fill:#e2c9b0}.cls-98{fill:url(#Transparent_192_)}.cls-99{fill:#d4b79a}.cls-100{fill:url(#Transparent_193_)}.cls-101{fill:#bf9e73}.cls-102{fill:url(#Transparent_194_)}.cls-103{fill:#d4c6b8}.cls-104{fill:url(#Transparent_195_)}.cls-105{fill:#d6c8ba}.cls-106{fill:url(#Transparent_196_)}.cls-107{fill-opacity:.7}.cls-108{fill:url(#Transparent_197_)}.cls-110{fill:url(#Transparent_198_)}.cls-111,.cls-113,.cls-121,.cls-125{fill-opacity:.25}.cls-112{fill:url(#Transparent_199_)}.cls-113{fill:#f4f2f2}.cls-114{fill:url(#Transparent_200_)}.cls-115{fill-opacity:.3}.cls-116{fill:url(#Transparent_201_)}.cls-117{fill-opacity:.1}.cls-118{fill:url(#Transparent_202_)}.cls-119{fill-opacity:.2}.cls-120{fill:url(#Transparent_203_)}.cls-122{fill:url(#Transparent_204_)}.cls-123{fill-opacity:.15}.cls-124{fill:url(#Transparent_205_)}.cls-126{fill:url(#Transparent_206_)}.cls-128{fill:url(#Transparent_207_)}.cls-129,.cls-133,.cls-137,.cls-141,.cls-145,.cls-151,.cls-155,.cls-157{fill-opacity:.75}.cls-130{fill:url(#Transparent_208_)}.cls-132{fill:url(#Transparent_209_)}.cls-134{fill:url(#Transparent_210_)}.cls-136{fill:url(#Transparent_211_)}.cls-138{fill:url(#Transparent_212_)}.cls-140{fill:url(#Transparent_213_)}.cls-142{fill:url(#Transparent_214_)}.cls-143,.cls-145{fill:#f9c28c}.cls-144{fill:url(#Transparent_215_)}.cls-146{fill:url(#Transparent_216_)}.cls-147,.cls-151{fill:#99cdcd}.cls-148{fill:url(#Transparent_217_)}.cls-149{fill:#719898}.cls-150{fill:url(#Transparent_218_)}.cls-152{fill:url(#Transparent_219_)}.cls-154{fill:url(#Transparent_220_)}.cls-156{fill:url(#Transparent_221_)}.cls-158,.cls-159,.cls-160{font-size:72px;font-family:NowAlt-Bold,Now Alt}.cls-158,.cls-159,.cls-161{letter-spacing:.03em}.cls-160{letter-spacing:-.03em}.st0{fill:#fff}</style></defs><g id="layer1" transform="translate(0 -860.362)"><path id="path1265" d="M101.061 873.164c-6.628 6.294-19.993 21.158-22.934 40.993-2.936 19.804 3.185 39.262 14.055 40.874 10.87 1.611 22.374-15.233 25.31-35.038 2.941-19.834-5.536-37.937-10.052-45.883-1.364-2.4-4.377-2.847-6.379-.946z" style="fill:#97db99;fill-opacity:1;fill-rule:evenodd;stroke:none;stroke-width:3.2647;stroke-linecap:round;stroke-linejoin:round;stroke-dasharray:none;stroke-dashoffset:6;stroke-opacity:1;stop-color:#000"/><path id="path1267" d="M156.349 903.42c-9.137-.236-29.098.825-45.203 12.77-16.08 11.927-25.51 30.014-18.964 38.84 6.547 8.827 26.592 5.05 42.672-6.877 16.105-11.946 22.912-30.74 25.336-39.553.733-2.662-1.082-5.108-3.841-5.18z" style="fill:#97db99;fill-opacity:1;fill-rule:evenodd;stroke:none;stroke-width:3.2647;stroke-linecap:round;stroke-linejoin:round;stroke-dasharray:none;stroke-dashoffset:6;stroke-opacity:1;stop-color:#000"/><path id="path1269" d="M40.572 890.864c-.236 9.136.824 29.098 12.77 45.202 11.927 16.08 30.014 25.511 38.84 18.965 8.826-6.547 5.05-26.592-6.878-42.673-11.945-16.104-30.74-22.911-39.553-25.336-2.661-.732-5.107 1.082-5.179 3.842z" style="fill:#97db99;fill-opacity:1;fill-rule:evenodd;stroke:none;stroke-width:3.2647;stroke-linecap:round;stroke-linejoin:round;stroke-dasharray:none;stroke-dashoffset:6;stroke-opacity:1;stop-color:#000"/><path id="path2839" d="M79.932 906.138a56.788 56.788 0 0 0-1.805 8.02c-2.937 19.803 3.184 39.26 14.055 40.872 8.826-6.547 5.05-26.592-6.877-42.672a56.776 56.776 0 0 0-5.373-6.22z" style="fill:#70a270;fill-opacity:.5;fill-rule:evenodd;stroke:none;stroke-width:3.2647;stroke-linecap:round;stroke-linejoin:round;stroke-dasharray:none;stroke-dashoffset:6;stroke-opacity:1;stop-color:#000"/><path id="path2852" d="M118.092 911.798a56.777 56.777 0 0 0-6.946 4.392c-16.08 11.928-25.511 30.014-18.964 38.84 10.87 1.612 22.374-15.233 25.31-35.037.412-2.774.593-5.512.6-8.195z" style="fill:#70a270;fill-opacity:.5;fill-rule:evenodd;stroke:none;stroke-width:3.2647;stroke-linecap:round;stroke-linejoin:round;stroke-dasharray:none;stroke-dashoffset:6;stroke-opacity:1;stop-color:#000"/><path id="path1263" d="M94.79 937.437c-17.198-2.55-37.731 5.906-41.93 34.219-4.672 31.511 14.844 58.067 22.93 67.521 1.795 2.098 5.335 2.623 7.661 1.136 10.483-6.701 36.864-26.452 41.537-57.963 4.197-28.312-12.998-42.363-30.197-44.913z" style="fill:#f8c18c;fill-opacity:1;fill-rule:evenodd;stroke:none;stroke-width:3.2647;stroke-linecap:round;stroke-linejoin:round;stroke-dasharray:none;stroke-dashoffset:6;stroke-opacity:1;stop-color:#000"/><path id="path2865" d="M88.223 937.014c-8.685.167-17.574 3.25-24.366 10.274 10.365 8.734 21.842 12.55 28.325 7.742 4.322-3.206 5.615-9.65 4.416-17.28a39.883 39.883 0 0 0-1.807-.314 39.661 39.661 0 0 0-6.568-.421z" style="fill:#d3b69a;fill-opacity:.5;fill-rule:evenodd;stroke:none;stroke-width:3.2647;stroke-linecap:round;stroke-linejoin:round;stroke-dasharray:none;stroke-dashoffset:6;stroke-opacity:1;stop-color:#000"/><path id="path2947" d="M88.223 937.014c-3.058.06-6.14.488-9.149 1.313 2.33 9.166 6.958 15.791 13.108 16.703 6.15.912 12.501-4.085 17.39-12.182-4.553-2.866-9.664-4.653-14.781-5.412a39.661 39.661 0 0 0-6.568-.422z" style="fill:#f9c;fill-opacity:.133333;fill-rule:evenodd;stroke:none;stroke-width:3.2647;stroke-linecap:round;stroke-linejoin:round;stroke-dasharray:none;stroke-dashoffset:6;stroke-opacity:1;stop-color:#000"/><path id="path2960" d="M92.969 937.214c-3.36 6.951-3.993 13.495-.787 17.816 4.808 6.483 16.899 6.16 29.351.81-5.6-10.908-16.165-16.835-26.742-18.404-.603-.09-1.211-.16-1.822-.222z" style="fill:#d3b69a;fill-opacity:.5;fill-rule:evenodd;stroke:none;stroke-width:3.2647;stroke-linecap:round;stroke-linejoin:round;stroke-dasharray:none;stroke-dashoffset:6;stroke-opacity:1;stop-color:#000"/></g></svg>