<?xml version="1.0" encoding="UTF-8"?>
<svg version="1.1" viewBox="0 0 192 192" xmlns="http://www.w3.org/2000/svg">
 <rect class="a" x="8" y="32" width="176" height="128" rx="10" style="fill:#9abeff"/>
 <rect class="a" x="46.313" y="59.864" width="99.374" height="72.272" rx="5.6462" style="fill:#fff"/>
 <rect x="60.887" y="64.587" width="13.596" height="7.3461" ry="2.6314" style="fill:#9abeff;stroke-linejoin:round;stroke-width:3.1756"/>
 <rect x="79.416" y="64.587" width="13.596" height="7.3461" ry="2.6314" style="fill:#9abeff;stroke-linejoin:round;stroke-width:3.1756"/>
 <rect x="98.165" y="64.587" width="13.596" height="7.3461" ry="2.6314" style="fill:#9abeff;stroke-linejoin:round;stroke-width:3.1756"/>
 <rect x="117.35" y="64.587" width="13.596" height="7.3461" ry="2.6314" style="fill:#9abeff;stroke-linejoin:round;stroke-width:3.1756"/>
 <rect x="60.887" y="120.07" width="13.596" height="7.3461" ry="2.6314" style="fill:#9abeff;stroke-linejoin:round;stroke-width:3.1756"/>
 <rect x="79.416" y="120.07" width="13.596" height="7.3461" ry="2.6314" style="fill:#9abeff;stroke-linejoin:round;stroke-width:3.1756"/>
 <rect x="98.165" y="120.07" width="13.596" height="7.3461" ry="2.6314" style="fill:#9abeff;stroke-linejoin:round;stroke-width:3.1756"/>
 <rect x="117.35" y="120.07" width="13.596" height="7.3461" ry="2.6314" style="fill:#9abeff;stroke-linejoin:round;stroke-width:3.1756"/>
 <rect x="60.887" y="74.784" width="70.227" height="42.114" ry="2.6881" style="fill:#9abeff"/>
 <path d="m78.759 78.841 33.661 33.661" style="fill:#9abeff;stroke-linecap:round;stroke-linejoin:round;stroke-width:3.1756;stroke:#fff"/>
 <path d="m88.626 88.709 11.513-11.732 1.0964 24.341z" style="fill:#fff;stroke-linecap:round;stroke-linejoin:round;stroke-width:3.1756;stroke:#fff"/>
 <path d="m100.47 107.46-20.832-20.832v14.579h7.8943l12.938 12.121z" style="fill:#fff;stroke-linecap:round;stroke-linejoin:round;stroke-width:3.1756;stroke:#fff"/>
</svg>
