<svg xmlns="http://www.w3.org/2000/svg" viewBox="0 0 176 127"><rect width="176" height="127" fill="#9abeff" rx="10"/><path fill="#fff" d="M125.92 65.5c.28-2 1.63-3.58 3.51-3.58 2.31 0 3.19 1.57 3.47 3.58Zm12 3.14v-.62c0-5.34-3-9.64-8.81-9.64s-8.66 4.23-8.66 9.61 3.47 9.28 8.91 9.28c3.69 0 7.51-2.07 8.61-6.06h-5.14a3.58 3.58 0 0 1-3.38 2.2c-2.61 0-3.7-2.53-3.7-4.77Zm-25.53 8.05h5V49.74h-5Zm-8.16-8.88c0 2.5-1.38 5-4.41 5a5 5 0 0 1 0-9.93c3 0 4.41 2.44 4.41 5m-13.57 8.88h5v-1.73h.07a6.73 6.73 0 0 0 5.12 2.31c5.39 0 8.45-4.69 8.45-9.53 0-4.66-3.39-9.36-8.57-9.36a6.94 6.94 0 0 0-5.07 2.3V49.74h-5v26.94Zm-4.05-24.02a3 3 0 1 0-5.94 0 3 3 0 1 0 5.94 0Zm-8.14 7.66a8.3 8.3 0 0 0-5.47-2 5.45 5.45 0 0 0-5.58 5.74c0 2.86 1.75 3.9 3.51 4.66s3.5 1.12 3.5 2.68a1.89 1.89 0 0 1-2 1.91 4.91 4.91 0 0 1-3.72-2.06l-2.36 3.1a8.08 8.08 0 0 0 6.26 2.86c3.69 0 6.84-2.35 6.84-6.28 0-3.07-1.79-4.3-3.62-5.1s-3.61-1.15-3.61-2.45a1.53 1.53 0 0 1 1.54-1.52 3.27 3.27 0 0 1 2.56 1.42l2.15-2.93Zm-13.34-7.66a3 3 0 1 0-3 3 3 3 0 0 0 3-3Zm-7.92 6.21-8 18.1h-3.1L38 58.95h5.51l4.1 10 4.09-10Z"/></svg>