<?xml version="1.0" encoding="UTF-8"?><svg id="a" xmlns="http://www.w3.org/2000/svg" width="192" height="192" xmlns:xlink="http://www.w3.org/1999/xlink" viewBox="0 0 192 192"><defs><style>.q{fill:none;}.q,.r,.s,.t,.u{stroke-width:0px;}.v{clip-path:url(#e);}.r{fill:#fff;}.s{fill:rgba(253,245,217,1);}.t{fill:#f8c18c;}.u{fill:rgba(226,201,176,1);}</style><clipPath id="e"><path class="q" d="m89.4,24.53l-48.76,127.47h110.55L102.46,24.53c-2.31-6.04-10.74-6.04-13.05,0Z"/></clipPath></defs><g id="b"><g id="c"><g id="d"><rect class="t" x="20" y="152" width="152" height="20" rx="10" ry="10"/><g class="v"><polygon class="t" points="95.93 7.47 40.64 152 95.9 152 95.93 152 151.19 152 95.93 7.47"/><rect class="r" x="61.79" y="60.71" width="68.21" height="30.82"/><rect class="r" x="38.29" y="121.16" width="115.21" height="30.82"/></g></g><g id="f"><g id="g"><path id="h" class="s" d="m172,156.75c-15.79,5.68-33.22-1.76-40.33-17.22-7.02-15.43-1.48-33.78,12.84-42.51-6.06-.38-12.12.78-17.64,3.36-18.42,8.77-26.39,31.11-17.8,49.9,0,0,0,0,0,0,8.59,18.79,30.49,26.92,48.92,18.16h0c5.55-2.64,10.37-6.66,14.02-11.69Z"/><circle id="i" class="u" cx="116.68" cy="120.23" r="2.75"/><circle id="j" class="u" cx="127.22" cy="159.49" r="2.75"/><circle id="k" class="u" cx="127.99" cy="150.22" r="4.02"/><circle id="l" class="u" cx="121.91" cy="134.83" r="1.93"/><circle id="m" class="u" cx="124.39" cy="112.51" r="1.65"/><circle id="n" class="u" cx="113.92" cy="131.44" r="3.86"/><circle id="o" class="u" cx="138.81" cy="162.24" r="1.93"/><circle id="p" class="u" cx="117.78" cy="145.22" r="3.31"/></g></g></g></g></svg>