<?xml version="1.0" encoding="UTF-8" standalone="no"?>
<svg
   id="uuid-2b3a432d-e084-4168-b3b1-59d07b4cd0ad"
   width="192"
   height="192"
   viewBox="0 0 192 192"
   version="1.1"
   sodipodi:docname="waifu2x.svg"
   inkscape:version="1.2.2 (b0a8486541, 2022-12-01)"
   inkscape:export-filename="waifu2x.png"
   inkscape:export-xdpi="96"
   inkscape:export-ydpi="96"
   xmlns:inkscape="http://www.inkscape.org/namespaces/inkscape"
   xmlns:sodipodi="http://sodipodi.sourceforge.net/DTD/sodipodi-0.dtd"
   xmlns="http://www.w3.org/2000/svg"
   xmlns:svg="http://www.w3.org/2000/svg">
  <defs
     id="defs1334" />
  <sodipodi:namedview
     id="namedview1332"
     pagecolor="#505050"
     bordercolor="#eeeeee"
     borderopacity="1"
     inkscape:showpageshadow="0"
     inkscape:pageopacity="0"
     inkscape:pagecheckerboard="0"
     inkscape:deskcolor="#d1d1d1"
     showgrid="false"
     inkscape:zoom="0.61458333"
     inkscape:cx="-128.54237"
     inkscape:cy="39.864407"
     inkscape:window-width="1884"
     inkscape:window-height="1055"
     inkscape:window-x="36"
     inkscape:window-y="0"
     inkscape:window-maximized="1"
     inkscape:current-layer="uuid-2b3a432d-e084-4168-b3b1-59d07b4cd0ad" />
  <rect
     x="20"
     y="20"
     width="152"
     height="152"
     rx="10"
     ry="10"
     fill="#56595b"
     stroke-width="0"
     id="rect1323" />
  <path
     d="m 84.360642,101.13575 13.156606,15.40107 H 83.74022 l -6.195101,-7.35383 -6.268091,7.35383 H 57.5 L 70.656605,101.05363 57.5,85.570441 h 13.621922 l 6.350207,7.426822 6.350206,-7.426822 H 97.526372 L 84.369766,101.12662 Z"
     fill="#9abeff"
     stroke-width="0"
     id="path1325" />
  <path
     d="m 130.49088,106.91115 v 9.62567 H 97.517248 L 114.75222,93.407836 c 4.25172,-5.748031 4.6258,-6.788151 4.6258,-8.503437 0,-3.503562 -2.46345,-4.105737 -3.95064,-4.105737 -2.39045,0 -4.25171,1.788277 -3.65866,4.771779 h -10.5928 C 100.28178,77.067004 107.74509,71.1 115.94744,71.1 c 8.20235,0 14.02338,5.519935 13.95039,12.910261 -0.073,5.218848 -1.86127,8.129359 -7.38121,15.446694 l -5.74803,7.463315 H 130.5 Z"
     fill="#9abeff"
     stroke-width="0"
     id="path1327" />
</svg>
