<svg xmlns="http://www.w3.org/2000/svg" viewBox="0 0 153 153"><rect width="153" height="153" fill="#728dbe" rx="10"/><path fill="#9abeff" d="M81.74 98.74v3.47a1.5 1.5 0 0 1-1.65 1.68h-7.18a1.55 1.55 0 0 1-1.69-1.68v-3.56a.62.62 0 0 0-.49-.69c-1.58-.61-3.15-1.27-4.7-1.95a.54.54 0 0 0-.73.11c-.83.86-1.67 1.69-2.52 2.53a1.56 1.56 0 0 1-2.45 0q-2.51-2.49-5-5a1.57 1.57 0 0 1 0-2.5c.93-.93 1.88-1.86 2.73-2.7l-2.38-5.72h-3.91a1.49 1.49 0 0 1-1.67-1.65v-7.22a1.51 1.51 0 0 1 1.63-1.65h3.62a.55.55 0 0 0 .64-.46c.37-1.12.79-2.23 1.23-3.32a2.32 2.32 0 0 1 2.34-1.53h6.15c-.42.51-.79.93-1.13 1.38a14.92 14.92 0 0 0 5.59 22.77 15.61 15.61 0 0 0 6.78 1.45h25.81a4.51 4.51 0 0 0 4.62-4.6V51.21a4.48 4.48 0 0 0-4.56-4.59H65.98a4.5 4.5 0 0 0-4.6 4.56v.53H55.8a8.86 8.86 0 0 1 .33-3.29 10.17 10.17 0 0 1 8.45-7.36 12.29 12.29 0 0 1 1.49-.09h36.61a10.11 10.11 0 0 1 10 7.72 10.61 10.61 0 0 1 .29 2.38v37.59a10.12 10.12 0 0 1-8.9 10 8.86 8.86 0 0 1-1 0H81.74Z"/><path fill="#fff" d="M91.68 103.24h5.6a19.6 19.6 0 0 1-.17 2.2 9.94 9.94 0 0 1-7.24 8.15 9.83 9.83 0 0 1-2.85.42H50.18a10.13 10.13 0 0 1-10-8.19 6.63 6.63 0 0 1-.14-1.48V66.12a10.11 10.11 0 0 1 6-9.1 9.89 9.89 0 0 1 4.1-.83h21.05v-.87c0-1 0-2 .12-3a1.38 1.38 0 0 1 1.51-1.26h7.36a1.5 1.5 0 0 1 1.58 1.63v4.15a22.69 22.69 0 0 1 5.35 2.15.61.61 0 0 0 .55-.14c.88-.84 1.72-1.7 2.58-2.55a1.59 1.59 0 0 1 2.46 0c1.68 1.68 3.36 3.35 5 5a1.55 1.55 0 0 1 0 2.41l-2.89 2.88a21.76 21.76 0 0 1 2.23 5.24.63.63 0 0 0 .49.31h3.62a1.66 1.66 0 0 1 1.75 1.73c-.06 2.39 0 4.79 0 7.18a1.49 1.49 0 0 1-1.65 1.67h-3.62c-.35 0-.5.08-.62.46a36.05 36.05 0 0 1-1.3 3.46 2.18 2.18 0 0 1-2.17 1.37h-6.18c.74-1 1.52-2 2.16-3.1a13.78 13.78 0 0 0 1.9-5.65 14.37 14.37 0 0 0-3.23-11.14 14.79 14.79 0 0 0-9-5.38 22.61 22.61 0 0 0-4-.35H50.54a4.61 4.61 0 0 0-4.77 3.75 3.34 3.34 0 0 0-.06.62v37.25a4.45 4.45 0 0 0 3.79 4.27 17.88 17.88 0 0 0 1.94.11h35.4a4.56 4.56 0 0 0 4.66-3.53c.07-.51.1-1.04.18-1.62Z"/><path fill="#fff" d="M68.06 77.5a8.45 8.45 0 1 1 8.44 8.46 8.35 8.35 0 0 1-8.44-8.46Z"/></svg>