<?xml version="1.0" encoding="UTF-8"?>
<svg version="1.1" viewBox="0 0 192 192" xml:space="preserve" xmlns="http://www.w3.org/2000/svg" xmlns:xlink="http://www.w3.org/1999/xlink"><defs><clipPath id="clip_path"><path d="m51.2 34.13h409.6v409.6h-409.6z"/></clipPath><linearGradient id="linearGradient320" x1="426.95" x2="85.054" y1="341.33" y2="148.05" gradientUnits="userSpaceOnUse"><stop stop-color="#bd9aff" offset="0"/><stop stop-color="#728dbe" offset="1"/></linearGradient></defs>
	 <circle class="a" cx="96" cy="96" r="88" fill="#fff"/><path id="path" transform="matrix(.24792 0 0 .24792 32.532 35.336)" d="m102.4 341.33c-7.11 0-12.23-3.13-15.36-9.38-3.13-6.26-2.56-12.23 1.71-17.92l68.26-90.88c3.42-4.55 7.97-6.83 13.66-6.83 5.68 0 10.24 2.28 13.65 6.83l63.15 84.05h128l-85.34-113.49-42.66 56.32-21.34-28.16 50.35-66.99c3.41-4.55 7.96-6.83 13.65-6.83s10.24 2.28 13.66 6.83l119.46 159.15c4.27 5.69 4.84 11.66 1.71 17.92-3.13 6.25-8.25 9.38-15.36 9.38zm34.13-34.13h68.27l-34.13-45.65z" clip-path="url(#clip_path)" fill="url(#linearGradient320)"/></svg>
