<?xml version="1.0" encoding="UTF-8"?>
<svg version="1.1" viewBox="0 0 192 192" xml:space="preserve" xmlns="http://www.w3.org/2000/svg">
	 <rect class="a" x="20" y="20" width="152" height="152" rx="10" fill="#f9de81"/><g transform="matrix(.13662 0 0 .13662 23.324 24.954)"><path d="m755.4 274.2v491.6c0 13.8-11.2 25-25 25h-396.8c-13.8 0-25-11.2-25-25v-378l138.5-138.5h283.3c13.8-0.1 25 11.1 25 24.9z" fill="#f2f2f2"/><path d="m447.1 249.2-11.1 104.6c-1.3 12.7-12.5 23.9-25 25l-102.5 8.9 0.1-0.2 135.5-135.9z" fill="#d8d8d8"/><path d="m755.4 511.7v40.3l-94.6 168.7v-161.3h-118.8l118.8-210v162.3z" fill="#f9de81"/><path d="m602 325.5-150.9 269.2h151.9c-0.3 65.4-0.6 130.7-1 196.1" fill="none" stroke="#f9de81" stroke-width="12.783"/></g></svg>
