<?xml version="1.0" encoding="UTF-8" standalone="no"?>
<svg
   width="192"
   height="192"
   version="1.1"
   id="svg3187"
   sodipodi:docname="wash.svg"
   inkscape:version="1.2.2 (b0a8486541, 2022-12-01)"
   inkscape:export-filename="wash.png"
   inkscape:export-xdpi="96"
   inkscape:export-ydpi="96"
   xmlns:inkscape="http://www.inkscape.org/namespaces/inkscape"
   xmlns:sodipodi="http://sodipodi.sourceforge.net/DTD/sodipodi-0.dtd"
   xmlns="http://www.w3.org/2000/svg"
   xmlns:svg="http://www.w3.org/2000/svg">
  <defs
     id="defs3191" />
  <sodipodi:namedview
     id="namedview3189"
     pagecolor="#505050"
     bordercolor="#eeeeee"
     borderopacity="1"
     inkscape:showpageshadow="0"
     inkscape:pageopacity="0"
     inkscape:pagecheckerboard="0"
     inkscape:deskcolor="#d1d1d1"
     showgrid="false"
     inkscape:zoom="2.4583333"
     inkscape:cx="87.050848"
     inkscape:cy="111.25424"
     inkscape:window-width="1884"
     inkscape:window-height="1055"
     inkscape:window-x="36"
     inkscape:window-y="0"
     inkscape:window-maximized="1"
     inkscape:current-layer="svg3187" />
  <rect
     width="152"
     height="152"
     x="20"
     y="20"
     opacity=".63"
     rx="9.935"
     style="display:inline;opacity:1;fill:#fff;fill-opacity:1;stroke:none;stroke-width:.999958;stroke-miterlimit:4;stroke-dasharray:none;stroke-opacity:1"
     id="rect3177" />
  <path
     d="M 75.166962,87.461423 70.631337,103.16922 65.515243,87.461423 H 61.295995 L 56.179901,103.06347 51.643389,87.461423 H 46 l 7.278448,21.155227 h 5.327011 l 4.799717,-14.332165 4.746544,14.332165 h 5.380184 l 7.172988,-21.155227 z"
     style="font-weight:500;font-size:47.6117px;line-height:1.25;font-family:'Now Alt';-inkscape-font-specification:'Now Alt Medium';fill:#728dbe;fill-opacity:1;stroke-width:1.0563"
     id="path3179" />
  <path
     d="m 104.75576,104.49153 c -0.89684,0 -1.68823,-0.846 -1.68823,-2.69706 v -6.081923 c 0,-5.235932 -4.219249,-8.673234 -9.810351,-8.673234 -5.643389,0 -9.810351,3.225803 -9.810351,8.196917 h 5.011521 c 0,-2.538876 2.056008,-3.966938 4.79883,-3.966938 2.690535,0 4.799716,1.481381 4.799716,4.126007 v 1.532923 h -7.647997 c -4.271535,0 -6.961184,2.380696 -6.961184,6.082818 0,3.70212 2.900567,6.02861 7.488479,6.02861 3.429635,0 6.27703,-1.269 7.858916,-3.33245 1.002304,2.06345 2.848281,3.33245 5.379301,3.33245 0.58135,0 1.26728,-0.15818 1.84686,-0.423 v -4.12512 z m -12.553172,0.79357 c -2.162354,0 -3.533321,-0.95264 -3.533321,-2.43313 0,-1.48049 1.265508,-2.43313 3.216944,-2.43313 h 6.170684 v 0.47632 c -0.632754,2.69706 -2.900567,4.38994 -5.854307,4.38994 z"
     style="font-weight:500;font-size:47.6117px;line-height:1.25;font-family:'Now Alt';-inkscape-font-specification:'Now Alt Medium';fill:#f8c18c;fill-opacity:1;stroke-width:1.0563"
     id="path3181" />
  <path
     d="m 115.83162,109.03965 c 4.21836,0 7.22528,-2.69706 7.22528,-6.50493 0,-4.019368 -3.37558,-5.606498 -6.22386,-6.769743 -2.05601,-0.845995 -3.05831,-1.268993 -3.05831,-2.591306 0,-1.216563 0.84367,-1.904379 2.26781,-1.904379 1.37097,0 2.58419,0.635385 3.16377,1.587131 l 3.16466,-2.591307 c -1.10776,-1.798629 -3.79741,-3.225803 -6.64481,-3.225803 -3.95604,0 -6.90978,2.696167 -6.90978,6.398287 0,3.75544 3.11237,5.341682 6.27614,6.504926 2.21553,0.900204 3.21695,1.481384 3.21695,2.697944 0,1.32231 -1.15917,2.06256 -2.63648,2.06256 -1.5296,0 -3.21695,-0.74025 -3.8497,-2.37981 l -4.0615,1.85106 c 1.00142,2.90856 4.53562,4.86537 8.06983,4.86537 z m 22.30947,-22.001225 c -1.95144,0 -3.74424,0.740246 -5.16838,1.956809 V 70.960951 h -5.01064 v 37.655699 h 5.01064 V 95.870727 c 0,-2.274058 1.7928,-4.178437 4.06061,-4.178437 a 3.9170507,3.9278374 0 0 1 3.95605,3.966938 V 108.61665 H 146 V 95.182911 c 0,-4.600546 -3.48103,-8.144486 -7.85891,-8.144486 z"
     style="font-weight:500;font-size:47.6117px;line-height:1.25;font-family:'Now Alt';-inkscape-font-specification:'Now Alt Medium';fill:#728dbe;fill-opacity:1;stroke-width:1.0563"
     id="path3183" />
</svg>
