<?xml version="1.0" encoding="UTF-8"?>
<svg version="1.1" viewBox="0 0 192 192" xmlns="http://www.w3.org/2000/svg">
 <g style="fill:none">
  <rect x="20" y="20" width="152" height="152" rx="10" fill="#9abeff" style="fill:#56595b"/>
  <g clip-rule="evenodd" fill="#fff" fill-rule="evenodd">
   <path d="m63.077 79.352s-3.76-4.302-2.163-8.04c1.598-3.736 8.266-6.312 8.903-6.312 0.712 0-2.976 1.27-2.841 5.09 0.067 1.913 2.282 4.31 3.293 6.15 1.01 1.84 0.808 3.112 0.808 3.112v25l-8 3v-11.645s-1.476-0.107-2.82 0c-1.343 0.108-2.198 2.358-2.198 2.358s-0.074-2.596-0.056-3.812c0.064-4.402 5.074-4.402 5.074-4.402zm44 0h8l0.101 41.653-8.062 7.145-0.02-16.328s-3.74 0-6.628 3.978c0.072-7.111 6.621-9.927 6.621-9.927l-0.012-10.166s-1.2-0.11-2.819 0c-1.62 0.11-2.199 2.358-2.199 2.358s-0.074-2.596-0.056-3.812c0.064-4.402 5.074-4.402 5.074-4.402zm-29.077 2.648h8v22l-8 3zm47 0h8l6e-3 24.124-8.023 6.004z"/>
   <path d="m63 107 8-3 6 5-5 6zm15 0 7.978-3.1 6.022 5.1-5 6zm22.06-24.979-8.196 2.848-5.652-4.828 5.476-5.97zm-14.143-0.127-8.152 2.83-5.765-4.749 5.392-5.975zm47.125 0.156-8.024 2.886-6.018-4.96 5.392-5.976zm-5.613 28.342-5.411 4.545s-1.424-1.483-2.316-2.029-2.494-0.916-2.494-0.916l0.482-6.878s3.536 1.293 5.24 2.217c1.705 0.923 4.499 3.061 4.499 3.061zm-12.314-30.995-5.115 4.603-6-5 4.948-5.337z"/>
   <path d="m92.048 82h8l-0.06 18.183-7.94 8.787z"/>
  </g>
  <path d="m70.5 82.5 3-3m41 6 5.538-5.84m-44.237 29.925 2.699-3.085m6-24 3-3m15 2 2.668-2.922" stroke="#fff" stroke-linecap="square"/>
  <path d="m114.23 120.89 3.069 3.008v-47.123" stroke="#fff"/>
 </g>
</svg>
