<svg xmlns="http://www.w3.org/2000/svg" xmlns:xlink="http://www.w3.org/1999/xlink" viewBox="0 0 192 192"><defs><mask id="a" x="66.33" y="59.5" width="48.66" height="73" maskUnits="userSpaceOnUse"><path d="M66.33,59.5H115v72.94H66.33Z" style="fill:#fff;fill-rule:evenodd"/></mask></defs><rect x="19.5" y="19.5" width="153" height="153" rx="10" style="fill:#9abeff"/><g style="mask:url(#a)"><path d="M109.38,71.26a13.42,13.42,0,0,0-26.63,0L80.72,86,73,79.21a2.42,2.42,0,0,0-3.25.06,8.68,8.68,0,0,0-1.55,12.18,8,8,0,0,0,.67.77L76.49,100l0,0a7.74,7.74,0,0,1,1.7,6.53,6.17,6.17,0,0,0-.12,1.35l-.37,2.72a18.17,18.17,0,0,0-.19,2.65c0,9.79,7,18,16.23,19.2a20.82,20.82,0,0,0,2.37,0h2.38c.09,0,.14-.17.23-.19a19.15,19.15,0,0,0,16.11-21.66Z" style="fill:#56595b;fill-rule:evenodd"/></g><path d="M106.11,124.59a7.79,7.79,0,0,0-7.73,7.85h15.47A7.8,7.8,0,0,0,106.11,124.59Zm-20.14,0a7.8,7.8,0,0,0-7.74,7.85H93.7A7.79,7.79,0,0,0,86,124.59Z" style="fill:#f8c18c;fill-rule:evenodd"/><path d="M91.57,69.77a2.16,2.16,0,1,0,1.9,2.14A2,2,0,0,0,91.57,69.77Zm9,0a2.16,2.16,0,1,0,1.9,2.14A2,2,0,0,0,100.56,69.77ZM96,123.87c5.51,0,10-7.57,10-16.92S101.55,90,96,90s-10,7.58-10,16.92S90.53,123.87,96,123.87Z" style="fill:#fff;fill-rule:evenodd"/><path d="M96,76.32c-2,0-5,1.68-7.33,1.82a.18.18,0,0,0-.16.19.43.43,0,0,0,.16.28A9.93,9.93,0,0,0,96,81.9a11.15,11.15,0,0,0,7.54-3.29c.06-.06.06-.21.06-.28s0-.19-.15-.19C101.25,78,98,76.32,96,76.32Z" style="fill:#f8c18c;fill-rule:evenodd"/></svg>