<?xml version="1.0" encoding="UTF-8" standalone="no"?>
<svg
   version="1.1"
   viewBox="0 0 192 192"
   xml:space="preserve"
   id="svg12"
   sodipodi:docname="wearfit.svg"
   inkscape:version="1.2.2 (b0a8486541, 2022-12-01)"
   inkscape:export-filename="wearfit.png"
   inkscape:export-xdpi="96"
   inkscape:export-ydpi="96"
   xmlns:inkscape="http://www.inkscape.org/namespaces/inkscape"
   xmlns:sodipodi="http://sodipodi.sourceforge.net/DTD/sodipodi-0.dtd"
   xmlns="http://www.w3.org/2000/svg"
   xmlns:svg="http://www.w3.org/2000/svg"><defs
   id="defs16" /><sodipodi:namedview
   id="namedview14"
   pagecolor="#505050"
   bordercolor="#eeeeee"
   borderopacity="1"
   inkscape:showpageshadow="0"
   inkscape:pageopacity="0"
   inkscape:pagecheckerboard="0"
   inkscape:deskcolor="#d1d1d1"
   showgrid="false"
   inkscape:zoom="1.7383042"
   inkscape:cx="-20.134566"
   inkscape:cy="113.61648"
   inkscape:window-width="1884"
   inkscape:window-height="1055"
   inkscape:window-x="36"
   inkscape:window-y="0"
   inkscape:window-maximized="1"
   inkscape:current-layer="svg12" />
	 <circle
   class="a"
   cx="96"
   cy="96"
   r="88"
   fill="#9abeff"
   id="circle2" /><path
   d="m 72.196962,61.897453 c -0.898053,0.174967 -1.791563,0.405025 -2.67599,0.691468 -2.566844,0.83139 -6.412117,3.051394 -8.415708,4.858424 -6.704805,6.046991 -9.237976,15.501693 -6.454699,24.091448 0.831723,2.566746 3.401249,6.137343 5.144651,8.203093 L 92.843503,138.9004 a 4.1307177,4.1307177 0 0 0 6.313445,0 L 132.20523,99.741886 c 1.74341,-2.06575 4.31289,-5.636347 5.14456,-8.203093 2.78298,-8.589266 0.24886,-18.044848 -6.45617,-24.091448 -2.00369,-1.80703 -5.84886,-4.027053 -8.41571,-4.85862 -9.82707,-3.183544 -20.78574,0.597015 -26.477978,9.619644 -3.325092,-5.270634 -8.446446,-8.753621 -14.091114,-10.103118 -2.624011,-0.62738 -7.064254,-0.723732 -9.712443,-0.207798 z"
   fill="#ffffff"
   stroke-linecap="round"
   stroke-linejoin="round"
   stroke-width="9.28134"
   id="path4" /><path
   d="m 96.734784,144.0948 c -3.093193,-9.73799 -7.381805,-16.91423 -3.937877,-40.66013 10.005233,-9.630218 19.281183,-12.946793 28.571823,-16.392484 -11.82988,1.918134 -21.35251,1.615951 -40.202987,19.872434 1.408622,20.56843 7.777081,24.93427 12.546426,34.52445 l 0.09157,3.75463 2.289427,1.28205 z"
   fill="#9abeff"
   stroke-linecap="round"
   stroke-linejoin="round"
   stroke-width="5.81451"
   id="path6" /><path
   d="m 79.637501,108.03251 0.979966,3.59311 -5.634683,6.04308 c 0.986916,-3.28261 1.874573,-6.57765 4.654815,-9.63619 z"
   fill="#9abeff"
   stroke-linecap="round"
   stroke-linejoin="round"
   stroke-width="5.18498"
   id="path8" /><path
   d="m 90.508068,97.111043 -5.219928,4.121027 c 0,0 -1.569453,-1.10732 -2.125169,-1.869875 -1.284107,-1.761805 -1.082749,-4.28597 0.293628,-5.502142 1.386793,-1.225374 4.050351,-1.236925 5.538263,0.389089 0.734872,0.803032 1.513167,2.861881 1.513167,2.861881 z"
   fill="#9abeff"
   stroke-linecap="round"
   stroke-linejoin="round"
   stroke-width="5.81451"
   id="path10" /></svg>
