<?xml version="1.0" encoding="UTF-8" standalone="no"?>
<svg
   version="1.1"
   viewBox="0 0 192 192"
   xml:space="preserve"
   id="svg22"
   sodipodi:docname="webapps_sandboxed_browser.svg"
   inkscape:version="1.2.2 (b0a8486541, 2022-12-01)"
   inkscape:export-filename="webapps_sandboxed_browser.png"
   inkscape:export-xdpi="96"
   inkscape:export-ydpi="96"
   xmlns:inkscape="http://www.inkscape.org/namespaces/inkscape"
   xmlns:sodipodi="http://sodipodi.sourceforge.net/DTD/sodipodi-0.dtd"
   xmlns="http://www.w3.org/2000/svg"
   xmlns:svg="http://www.w3.org/2000/svg"><defs
   id="defs26" /><sodipodi:namedview
   id="namedview24"
   pagecolor="#505050"
   bordercolor="#eeeeee"
   borderopacity="1"
   inkscape:showpageshadow="0"
   inkscape:pageopacity="0"
   inkscape:pagecheckerboard="0"
   inkscape:deskcolor="#d1d1d1"
   showgrid="false"
   inkscape:zoom="1.2291667"
   inkscape:cx="-36.610169"
   inkscape:cy="51.661017"
   inkscape:window-width="1884"
   inkscape:window-height="1055"
   inkscape:window-x="36"
   inkscape:window-y="0"
   inkscape:window-maximized="1"
   inkscape:current-layer="svg22" />
	 <rect
   class="a"
   x="20"
   y="20"
   width="152"
   height="152"
   rx="10"
   fill="#f8c18c"
   id="rect2" /><path
   d="M 95.214273,73.363538 60.698012,91.336007 95.907689,109.11377 130.45213,91.495697 Z"
   fill="#f9de81"
   stroke="#56595b"
   stroke-linecap="round"
   stroke-linejoin="round"
   stroke-width="1.92602"
   id="path4" /><path
   d="m 59.367541,92.028569 -4.17237,-2.408939 -0.38915,12.84614 40.355648,22.29949 42.191661,-22.20897 -0.32793,-13.151858 -4.85289,2.976055 -1.72022,-0.885131 L 95.907851,109.11343 60.698175,91.335665 Z"
   fill="#56595b"
   stroke="#56595b"
   stroke-linecap="round"
   stroke-linejoin="round"
   stroke-width="1.92602"
   id="path6" /><path
   d="m 55.650247,90.304421 -0.212798,11.168109 39.482899,21.54715 v -13.24153 z"
   fill="#8e6f60"
   id="path8"
   style="stroke-width:0.853961" /><path
   d="m 135.93115,90.304421 0.21279,11.168109 -39.482895,21.54715 v -13.24153 z"
   fill="#8e6f60"
   id="path10"
   style="stroke-width:0.853961" /><path
   d="M 60.698012,91.336007 54.4629,88.001373 95.554662,67.234743 137.53711,87.781905 130.45247,91.495356 95.214614,73.363196 Z"
   fill="#8e6f60"
   stroke="#56595b"
   stroke-linecap="round"
   stroke-linejoin="round"
   stroke-width="1.92602"
   id="path12" /><path
   d="m 88.771135,86.484653 0.612171,11.377326 c 3.154105,4.118571 8.762496,3.230701 12.098064,0.361131 l 0.59564,-11.412338 c -1.89989,0.744355 -3.452648,1.773592 -6.433912,1.630554 -2.68383,0.163507 -4.848365,-0.750291 -6.871741,-1.957109 z"
   fill="#ff837d"
   stroke="#56595b"
   stroke-linecap="round"
   stroke-linejoin="round"
   stroke-width="1.92602"
   id="path14" /><ellipse
   cx="95.64296"
   cy="84.334373"
   rx="8.0651512"
   ry="4.1073828"
   fill="#ff837d"
   stroke="#56595b"
   stroke-linecap="round"
   stroke-linejoin="round"
   stroke-width="1.92602"
   id="ellipse16" /><path
   d="m 89.038425,84.721223 c 0.903064,-0.02331 0.923046,0.244642 1.338413,0.07967 0.217641,-0.08646 0.282175,-0.388672 0.481506,-0.511599 0.418723,-0.258221 0.922535,-0.430918 1.414416,-0.421311 0.466238,0.0091 0.876848,0.31951 1.324153,0.451404 0.436382,0.128692 0.869247,0.325248 1.324152,0.331038 0.368467,0.0043 0.728941,-0.125489 1.07898,-0.240757 0.37664,-0.124029 0.711256,-0.357229 1.087776,-0.481498 0.478389,-0.15788 0.973345,-0.280637 1.47462,-0.331038 0.489166,-0.04919 0.98402,-0.0017 1.474619,0.03006 0.45321,0.02972 0.9011,0.11923 1.35421,0.150468 0.37042,0.02553 0.84736,-0.228828 1.11348,0.03015 0.28629,0.278553 0.54668,0.474307 0.0652,1.19657 -0.48151,0.722255 -1.10981,1.082908 -1.10981,1.082908 -1.02005,0.60089 -2.206292,1.035685 -3.623355,1.239525 -1.31826,0.213986 -2.717988,0.296914 -4.288594,0.006 -0.848999,-0.151245 -1.693917,-0.314642 -2.487162,-0.633136 -0.03645,0.006 -1.32902,-0.504802 -1.706129,-0.915788 -0.359586,-0.391934 -1.096657,-1.042259 -0.316358,-1.062669 z"
   fill="#f9de81"
   id="path18"
   style="stroke-width:0.853961" /><path
   d="m 91.550779,91.238655 c 0,0 0.802109,2.116031 1.561212,2.915338 0.951825,1.002209 2.261802,1.641228 3.54949,2.143358 1.126972,0.439457 2.346685,0.724466 3.556319,0.722255 1.18829,-0.0017 2.4367,-0.173995 3.49091,-0.722255 0.83107,-0.432199 1.66659,-1.069758 2.04643,-1.926025 0.42344,-0.954728 0.54218,-2.206123 0.0602,-3.132671 -0.4732,-0.90964 -1.58436,-1.378464 -2.55224,-1.71706 -0.23451,-0.08207 -0.74291,-0.0602 -0.74291,-0.0602"
   fill="none"
   stroke="#56595b"
   stroke-linecap="round"
   stroke-linejoin="round"
   stroke-width="1.92602"
   id="path20" /></svg>
