<svg xmlns="http://www.w3.org/2000/svg" width="192" height="192" fill="none"><g clip-path="url(#a)"><g clip-path="url(#b)"><path fill="#FF837D" d="M171.9 32.4c-.3-1-1.5-1.6-2.5-1.3-12.9 4.1-23.3 12.2-23.3 20.1v78.6L119.7 119c-5.2 7-10.1 11.2-19.3 15.8l41.7 17.2c.4.2.7.4 1.1.6l21.9 9c.6.2 1.2.4 1.9.4 2.8 0 5-2.2 5-5V33c0-.2 0-.4-.1-.6Z"/><path fill="#FF837D" d="M171.9 32.4c-.3-1-1.5-1.6-2.5-1.3-12.9 4.1-23.3 12.2-23.3 20.1v78.6L119.7 119c-5.2 7-10.1 11.2-19.3 15.8l41.7 17.2c.4.2.7.4 1.1.6l21.9 9c.6.2 1.2.4 1.9.4 2.8 0 5-2.2 5-5V33c0-.2 0-.4-.1-.6Z"/><path fill="#9ABEFF" d="M121.9 100.3c0 6.7-2.3 12.9-6.7 18.3-3.9 4.8-9.3 9-16.3 12.7l-.5.2-52 21.4-20.5 8.5c-2.5 1-5.5-.2-6.5-2.7-.3-.6-.4-1.2-.4-1.9V33c0-1.1.9-2 2-2 .2 0 .4 0 .6.1 12.9 4.1 23.3 12.2 23.3 20.1v78.7L75 117.5s.1 0 .2-.1l11.3-4.7c4-1.9 7.2-3.8 9-5.4 0 0 .1 0 .1.1 1-.9 1.9-1.7 2.6-2.6 1.3-1.7 1.9-3.1 1.9-4.5 0-3.1-.7-5.2-1.8-6.3-.7-.8-1.6-1.1-2.7-1.1s-2 .4-2.7 1.1c-1.1 1.1-1.8 3.2-1.8 6.3 0 1.4.5 2.7 1.7 4.3-3 2.6-11.4 6.6-19.9 9.5-2.4-4.3-3.7-8.9-3.7-13.8 0-8.5 2.7-15.8 7.7-21.2 4.9-5.3 11.6-8.1 18.7-8.1h.1c7.1 0 13.9 2.9 18.7 8.1 4.9 5.4 7.5 12.8 7.5 21.2Z"/></g></g><defs><clipPath id="a"><path fill="#fff" d="M0 0h192v192H0z"/></clipPath><clipPath id="b"><path fill="#fff" d="M19 31h153v130.8H19z"/></clipPath></defs></svg>