<svg xmlns="http://www.w3.org/2000/svg" id="svg2" width="192" height="192" version="1.1"><g id="layer1" transform="translate(0 -860.362)"><g id="g982" transform="translate(-506.467 -360.866)"><path id="path978" fill="#9abeff" fill-rule="evenodd" d="M521.467 1317.228v71c0 5.523 4.477 10 10 10h74c.548 0 1.086-.044 1.611-.129 42.59-2.39 76.39-37.682 76.39-80.87 0-44.736-36.266-81-81-81-44.221 0-80.165 35.435-80.986 79.46-.01.178-.015.358-.015.54z" clip-rule="evenodd" style="fill:#fefefe;fill-opacity:1"/><path id="path980" d="m603.795 1283.268 9.15 18.539a5.706 5.706 36 0 0 4.296 3.121l20.459 2.973a1.48 1.48 72 0 1 .82 2.525l-14.804 14.431a5.706 5.706 108 0 0-1.641 5.05l3.495 20.377a1.48 1.48 144 0 1-2.149 1.56l-18.298-9.62a5.706 5.706 0 0 0-5.311 0l-18.299 9.62a1.48 1.48 36 0 1-2.148-1.56l3.495-20.376a5.706 5.706 72 0 0-1.642-5.051l-14.804-14.43a1.48 1.48 108 0 1 .821-2.526l20.459-2.973a5.706 5.706 144 0 0 4.296-3.122l9.15-18.538a1.48 1.48 0 0 1 2.655 0z" style="fill:#95ded2;fill-opacity:1;stroke:none;stroke-width:9.28327;stroke-linecap:butt;stroke-linejoin:miter;stroke-miterlimit:4;stroke-dasharray:none;stroke-opacity:1;paint-order:markers fill stroke"/></g></g><style id="style853" type="text/css">.st0{fill:#fff}</style></svg>