<?xml version="1.0" encoding="UTF-8" standalone="no"?>
<svg
   xml:space="preserve"
   width="192"
   height="192"
   version="1.1"
   id="svg6"
   sodipodi:docname="wger.svg"
   inkscape:version="1.2.2 (b0a8486541, 2022-12-01)"
   inkscape:export-filename="wger.png"
   inkscape:export-xdpi="96"
   inkscape:export-ydpi="96"
   xmlns:inkscape="http://www.inkscape.org/namespaces/inkscape"
   xmlns:sodipodi="http://sodipodi.sourceforge.net/DTD/sodipodi-0.dtd"
   xmlns="http://www.w3.org/2000/svg"
   xmlns:svg="http://www.w3.org/2000/svg"><defs
     id="defs10" /><sodipodi:namedview
     id="namedview8"
     pagecolor="#505050"
     bordercolor="#eeeeee"
     borderopacity="1"
     inkscape:showpageshadow="0"
     inkscape:pageopacity="0"
     inkscape:pagecheckerboard="0"
     inkscape:deskcolor="#d1d1d1"
     showgrid="false"
     inkscape:zoom="1.2291667"
     inkscape:cx="96"
     inkscape:cy="96.40678"
     inkscape:window-width="1884"
     inkscape:window-height="1055"
     inkscape:window-x="36"
     inkscape:window-y="0"
     inkscape:window-maximized="1"
     inkscape:current-layer="svg6" /><rect
     width="152"
     height="152"
     x="20"
     y="20"
     fill="#728dbe"
     rx="9.935"
     id="rect2" /><path
     fill="#ffffff"
     d="m 71.714353,74.749765 v 3.035411 h -7.589471 v 3.036355 H 56.535411 V 91.446413 H 53.5 v 9.107177 h 3.035411 v 10.62488 h 7.589471 v 3.03541 h 7.589471 v 3.03541 h 10.624882 v -16.69665 h 27.321525 v 16.6976 h 10.62489 v -3.03635 h 7.58947 v -3.03541 h 7.58852 V 100.55359 H 138.5 v -9.107177 h -3.03636 V 80.821531 h -7.58852 v -3.036355 h -7.58947 V 74.749765 H 109.66076 V 91.446413 H 82.339235 V 74.749765 Z m 3.035411,3.035411 h 4.55406 v 36.427754 h -4.55406 z m 37.947356,0 h 4.55217 v 36.427754 h -4.55217 z m -45.536827,3.037299 h 4.55406 v 30.356945 h -4.55406 z m 53.124407,0 h 4.55406 v 30.356945 h -4.55406 z m -60.71199,3.034467 h 4.554061 V 108.14211 H 59.57271 Z m 68.30335,0 h 4.55406 v 24.285178 h -4.55406 z M 82.341124,94.481824 H 109.6636 v 3.03541 H 82.341124 Z"
     id="path4"
     style="stroke-width:0.944434" /></svg>
