<?xml version="1.0" encoding="UTF-8"?>
<svg version="1.1" viewBox="0 0 192 192" xmlns="http://www.w3.org/2000/svg">
 <circle class="a" cx="96" cy="96" r="88" style="fill:#fff"/>
 <path d="m91.5 99.825-4.05 3.9375q-1.2375 1.2375-3.0938 1.2375t-3.2062-1.35q-1.2375-1.2375-1.2375-3.15t1.2375-3.15l11.7-11.7q1.35-1.35 3.15-1.35t3.15 1.35l11.7 11.7q1.2375 1.2375 1.2938 3.0938t-1.2938 3.2062q-1.2375 1.2375-3.0938 1.2938t-3.2062-1.1812l-4.05-3.9375v23.175h24.75q4.725 0 7.9875-3.2625t3.2625-7.9875-3.2625-7.9875-7.9875-3.2625h-6.75v-9q0-9.3375-6.5812-15.919t-15.919-6.5812-15.919 6.5812-6.5812 15.919h-2.25q-6.525 0-11.138 4.6125t-4.6125 11.138 4.6125 11.138 11.138 4.6125h6.75q1.9125 0 3.2062 1.2938t1.2938 3.2062-1.2938 3.2062-3.2062 1.2938h-6.75q-10.238 0-17.494-7.0875t-7.2562-17.325q0-8.775 5.2875-15.638t13.838-8.775q2.8125-10.35 11.25-16.762t19.125-6.4125q13.162 0 22.331 9.1688t9.1688 22.331q7.7625 0.9 12.881 6.6938t5.1188 13.556q0 8.4375-5.9062 14.344t-14.344 5.9062h-24.75q-3.7125 0-6.3562-2.6438t-2.6438-6.3562zm4.5 0.675z" fill="@android:color/white" style="fill:#ff837d;stroke-width:.1125"/>
</svg>
