<?xml version="1.0" encoding="UTF-8"?>
<svg version="1.1" viewBox="0 0 192 192" xmlns="http://www.w3.org/2000/svg">
 <rect class="a" x="20" y="20" width="152" height="152" rx="10" style="fill:#f9de81"/>
 <path d="m55.696 72.394v-11.118c0-3.4211 3.8362-7.2573 7.2573-7.2573h11.04" style="fill:none;stroke-linejoin:round;stroke-width:4;stroke:#fff"/>
 <path d="m136.3 72.394v-11.118c0-3.4211-3.8362-7.2573-7.2573-7.2573h-11.04" style="fill:none;stroke-linejoin:round;stroke-width:4;stroke:#fff"/>
 <path d="m55.696 119.61v11.118c0 3.4211 3.8362 7.2573 7.2573 7.2573h11.04" style="fill:none;stroke-linejoin:round;stroke-width:4;stroke:#fff"/>
 <path d="m136.3 119.61v11.118c0 3.4211-3.8362 7.2573-7.2573 7.2573h-11.04" style="fill:none;stroke-linejoin:round;stroke-width:4;stroke:#fff"/>
 <path d="m88.359 79.07a8.1424 8.1424 0 0 1 8.1424-8.1424 8.1424 8.1424 0 0 1 8.1424 8.1424" style="fill:#fff"/>
 <path d="m82.486 77.876h4.0147" style="fill:none;stroke-linejoin:round;stroke-width:2.4706;stroke:#fff"/>
 <path d="m86.887 68.071 2.6636 2.6636" style="fill:none;stroke-linejoin:round;stroke-width:2.4706;stroke:#fff"/>
 <path d="m96.538 64.133v3.3198" style="fill:none;stroke-linejoin:round;stroke-width:2.4706;stroke:#fff"/>
 <path d="m106.19 68.148-2.2776 2.2776" style="fill:none;stroke-linejoin:round;stroke-width:2.4706;stroke:#fff"/>
 <path d="m110.43 78.108h-3.7059" style="fill:none;stroke-linejoin:round;stroke-width:2.4706;stroke:#fff"/>
 <path d="m96.615 82.045v11.118l-6.5625-5.4044" style="fill:none;stroke-linecap:round;stroke-linejoin:round;stroke-width:2.4706;stroke:#fff"/>
 <path d="m96.615 93.163 6.4081-5.5588" style="fill:#56595b;stroke-linecap:round;stroke-linejoin:round;stroke-width:2.4706;stroke:#fff"/>
 <text transform="skewX(-11.331)" x="120.97655" y="122.96598" style="fill:#ffffff;font-family:Now;font-size:19.982px;font-weight:bold;stroke-linecap:round;stroke-linejoin:round;stroke-width:5.4496;text-align:center;text-anchor:middle" xml:space="preserve"><tspan x="120.97655" y="122.96598" style="fill:#ffffff;stroke-width:5.4496">20:56</tspan></text>
</svg>
