<?xml version="1.0" encoding="UTF-8"?><svg id="a" xmlns="http://www.w3.org/2000/svg" width="192" height="192" xmlns:xlink="http://www.w3.org/1999/xlink" viewBox="0 0 192 192"><defs><style>.e{fill:#ececec;}.e,.f,.g,.h{stroke-width:0px;}.i{clip-path:url(#d);}.f{fill:#fff;}.j,.g{fill:#8c72bd;}.h{fill:#bd9aff;}</style><clipPath id="d"><rect class="g" x="20" y="20" width="152" height="152" rx="10" ry="10"/></clipPath></defs><g id="b"><g id="c"><rect class="j" x="20" y="20" width="152" height="152" rx="10" ry="10"/><g class="i"><rect class="g" x="20" y="20" width="152" height="152" rx="10" ry="10"/><polygon class="f" points="272.89 59.38 196.02 15 144.8 44.57 119.15 59.38 106.34 66.78 68.06 88.88 68.06 241.34 196.02 241.34 196.02 162.94 323.99 88.88 272.89 59.38"/><polygon class="e" points="68.06 88.88 196.02 162.94 196.02 241.34 68.06 241.34 68.06 88.88"/><polygon class="g" points="89.62 147.61 102.2 164.98 102.18 108.63 79.64 95.54 79.64 151.95 89.62 147.61"/><polygon class="h" points="79.64 95.54 102.18 108.59 154.79 78.19 132.24 65.18 79.64 95.54"/></g><path class="f" d="m117.14,78.78l9.16,11.39-3.42,2.06-11.49-4.97,6.58,7.93-3.42,2.06-16.55-6.95,3.13-1.88,11.39,4.93-6.39-7.93,2.48-1.49.41-.24,11.5,4.8-6.5-7.81,3.13-1.88Z"/><path class="f" d="m137.74,78.67c2.27,1.62,1.76,3.56-.5,4.92l-6.24,3.75-12.85-9.17,5.72-3.44c2.28-1.37,5.39-1.52,7.66.1,1.35.96,1.6,2,1.1,2.97,1.73-.42,3.55-.25,5.12.87Zm-11.72-1.94l-2.39,1.44,2.76,1.97,2.39-1.44c.81-.49.82-1.34.07-1.87s-2.02-.59-2.84-.1Zm8.38,3.46c-.75-.54-2.02-.61-2.86-.11l-2.84,1.71,2.76,1.97,2.84-1.71c.83-.5.87-1.31.09-1.86Z"/></g></g></svg>