<svg xmlns="http://www.w3.org/2000/svg" width="192" height="192" fill="none"><g clip-path="url(#a)"><g clip-path="url(#b)"><path fill="#96DFD3" d="M173 29v117.36c-2.33-.08-9.57-.21-16.75 1.16-3.25.62-6.41 1.53-8.3 2.12a53.917 53.917 0 0 1 6.75 6.84v-.24c.25-.07.88-.2 1.57.06.34.13.59.31.76.45 1.79 1.57 4.66 4.59 6.25 9.21.22.63.4 1.25.54 1.84-1.15-1.3-2.29-2.34-3.27-3.15-.41-.08-.86-.15-1.35-.22h-.01c-1.41-.19-3.12-.28-5.06-.1-2.02.19-3.77.61-5.19 1.09.33.49.65.99.99 1.49.51.94.22 2.02-.42 2.42-.13.09-.27.14-.43.17.3.59.58 1.22.82 1.9.08.2.14.41.2.6H30c-.26 0-.53-.01-.78-.03 2.1-1.41 3.54-3.11 4.78-4.62 3.49-4.21 5.25-8.7 6.17-12.13 2.82-1.28 7.35-3.79 11.5-8.45 5.81-6.51 7.57-13.53 8.17-16.78 1.49-.4 4.06-1.26 6.72-3.12-3.63-4.33-4.76-8.81-6.39-15.03-2.28-8.69-2.67-16.91-2.12-24.16-1.55 1.72-2.88 4.76-4.46 8.3a35.23 35.23 0 0 0-2.96 11.95c-2.77 1.25-7.85 4-12.19 9.48a31.404 31.404 0 0 0-3.19 4.9c.93 2.77 2.28 5.85 4.24 8.99.68 1.09 1.39 2.09 2.08 3.02-1.47-1.11-3.16-2.6-4.83-4.56a30.012 30.012 0 0 1-2.99-4.21 33.386 33.386 0 0 0-2.25 9.89v.01c.97 4.45 2.64 7.85 3.88 10-.41-.51-.82-1.04-1.21-1.59a38.596 38.596 0 0 1-4.21-7.52 41.96 41.96 0 0 0-4.16 2.87c-2.78 2.2-4.17 3.91-5.81 5.58V29C20 23.48 24.48 19 30 19h133c5.53 0 10 4.48 10 10Z"/><path fill="#728DBE" d="M142.21 68.79c-.05 1.19-.14 2.94-.38 5.05-.55 4.82-1.42 7.86-1.87 10.03-.65 3.14-1.1 7.68-.11 13.71-.37-.62-.78-1.39-1.21-2.28.67-8.37.41-16 .28-19.55-.03-.6-.1-1.93-.35-3.72v-.01c0-.02-.01-.03-.01-.05-.03-.11-.06-.23-.09-.36-.05-.2-.1-.4-.16-.61-.03-.12-.07-.23-.1-.36-.06-.19-.12-.38-.18-.58-.04-.14-.09-.29-.14-.44-.01-.04-.03-.09-.04-.14-.08-.26-.17-.52-.27-.79-.08-.25-.18-.51-.28-.77-.3-.81-.66-1.67-1.09-2.58-2.12-4.48-5.24-11.11-11.48-12.79-1.2-.32-5.29-1.22-10.8 1.81a68.332 68.332 0 0 0-8.97-4.4 68.268 68.268 0 0 0-8.23-2.71c-1.46.76-3.5 1.95-5.68 3.71-11.72 9.52-13.31 24.81-13.92 30.6-.48 4.5-.68 11.44 1.28 19.84.01.01.01.02.01.03v.01c.67 2.07 1.24 3.74 1.62 4.85-1.95-3.6-3.94-6.39-5.52-8.39a42.664 42.664 0 0 0-2.92-3.38c-.15-.15-.29-.3-.43-.43-1.27-1.25-2.3-2.04-3.15-2.55-.13-.08-.25-.14-.36-.2-.35-.2-.66-.34-.94-.44-.09-.04-.19-.07-.27-.1-.09-.03-.19-.07-.26-.09-.15-.04-.29-.08-.42-.11-1.49-.37-2.92-.73-4.11-.01-3.65 2.26-3.07 13.89 3.28 19.19.98.82 4.05 3.38 7.74 3.27 1.01-.03 2.55-.26 5.76-.38h.15c.82 2.1 2 4.57 3.66 7.18 1.2 1.9 2.6 4.11 4.43 6.27 2.08 2.47 4.71 4.87 8.19 6.63-2.37.54-4.34-.02-5.07-.25 3.43 1.37 6.94 2.86 10.52 4.48 1.45.65 2.92 1.33 4.39 2.02 3.19 1.5 6.43 3.12 9.7 4.85 1.73.91 3.46 1.85 5.2 2.82 3.21 1.79 6.31 3.6 9.29 5.43a168.6 168.6 0 0 0-16.36-7.37 157.608 157.608 0 0 0-18.6-5.97c-2.75-.71-5.3-1.32-7.68-1.9-8.41-2.07-14.56-3.95-19.55-9.81l-.14-.17c-3.63-4.33-4.76-8.81-6.39-15.03-2.28-8.69-2.67-16.91-2.12-24.16.22-2.99.6-5.81 1.08-8.42-3.42.91-9.01 2.97-14.15 7.79-7.03 6.6-8.99 14.42-9.87 18.16-.79 3.33-2.27 8.88-.44 15.24.17.6.37 1.23.59 1.87.93 2.77 2.28 5.85 4.24 8.99.68 1.09 1.39 2.09 2.08 3.02-1.47-1.11-3.16-2.6-4.83-4.56a30.012 30.012 0 0 1-2.99-4.21 30.81 30.81 0 0 1-2.27-4.73c-.56 2.62-1.05 6.33-.6 10.74.14 1.36.35 2.65.62 3.87v.01c.97 4.45 2.64 7.85 3.88 10-.41-.51-.82-1.04-1.21-1.59a38.596 38.596 0 0 1-4.21-7.52c-2.11-4.96-3.09-10-3.47-14.63-.64-5.18-.99-12.96.93-22.1a67.575 67.575 0 0 1 8.55-21.5c-1.43.29-3.14.86-4.83 1.97-6.18 4.1-6.64 12.02-6.69 13.22-.38-7.77 2.65-14.64 8.12-17.55 1.27-.67 3.32-1.49 6.2-1.53.3-.48.6-.95.89-1.43-1.13-.13-2.92-.19-4.98.41-3.33.97-5.36 3.08-6.16 4.04.43-1 1.16-2.29 2.43-3.42 3.88-3.45 9.25-2.35 9.99-2.18 1.52-1.88 3.06-3.76 4.61-5.64 2.26-2.76 4.51-5.51 6.77-8.23-2.51.75-5.26 1.8-8.12 3.29-9.51 4.94-15.23 12.15-18.27 16.83 1.9-4.22 5.75-11.3 13.06-17.77a52.682 52.682 0 0 1 16.4-9.87c-.06-.67-.37-5.48 3.29-8.93 2.29-2.17 4.92-2.66 5.98-2.8.62-.55 1.57-1.42 2.68-2.51C74.8 28.7 76.07 24.21 81.22 19h23.47c1.18 1.77 2.87 4.75 5.03 9.79.76 1.78 1.35 3.28 1.73 4.28.71.05 4.94.45 7.46 3.98a9.234 9.234 0 0 1 1.59 3.94 52.01 52.01 0 0 1 8.5 6.42c3.47 3.22 5.99 6.44 7.79 9.1.62 2.03 1.06 3.65 1.36 4.73.41 1.5.54 2.07 1 2.9.52.93.95 1.26 1.8 2.52.59.87 1 1.62 1.26 2.13Z"/><path fill="#E4DCCC" d="M142.24 97.28c.74 2.9 1.36 7.39-.22 12.23-.27.82-.57 1.57-.9 2.28-.53 1.92-1.33 3.3-1.92 4.11-.91 1.25-1.73 2.39-3.02 2.69-.88.2-1.88 0-2.8-.48 2.69-5.42 4.14-12.33 4.91-19.08.62-.8 1.25-1.49 1.84-1.95.5-.39 1.12-.75 1.6-.52.31.14.45.5.51.72Z"/><path fill="#F1E9E0" d="M138.64 95.3c-.1 1.22-.22 2.46-.36 3.71-.76 6.57-2.15 13.29-4.71 18.65-.06.14-.14.29-.2.43-1.65 3.34-3.77 6.11-6.48 7.94-.61.66-1.29 1.3-2.01 1.91-10.39.31-25.53-1.1-39.6-10.24a62.657 62.657 0 0 1-6.7-5.05h-.15c-3.21.12-4.75.36-5.76.38-3.7.11-6.77-2.46-7.74-3.27-6.35-5.3-6.93-16.93-3.28-19.19 1.18-.72 2.62-.37 4.11.01.13.03.26.07.42.11.08.03.17.06.26.09s.18.06.27.1c.27.1.59.25.94.44.11.06.23.13.36.2.85.51 1.89 1.3 3.15 2.55l.43.43c.88.9 1.84 2.01 2.92 3.38 1.57 2 3.56 4.79 5.52 8.39-.38-1.11-.95-2.78-1.62-4.85v-.01c0-.01 0-.02-.01-.03-1.95-8.4-1.75-15.33-1.28-19.84.61-5.79 2.2-21.08 13.92-30.6 2.18-1.77 4.22-2.96 5.68-3.71 2.49.65 5.27 1.52 8.23 2.71 3.46 1.39 6.45 2.93 8.97 4.4 5.52-3.03 9.61-2.13 10.8-1.81 6.24 1.68 9.37 8.31 11.48 12.79.42.9.79 1.77 1.09 2.58.1.26.2.53.28.77.1.27.2.54.27.79.02.04.03.09.04.14.05.15.1.3.14.44.06.2.12.39.18.58.03.13.07.24.1.36.06.21.11.42.16.61.03.13.07.25.09.36 0 .02.01.03.01.05v.01c.25 1.79.32 3.12.35 3.72.14 3.58.4 11.2-.27 19.57Z"/><path fill="#D7D0B8" d="M122.55 137.37a25.169 25.169 0 0 1-3.69 3.56c-1.22.97-2.7 1.99-4.47 2.91-3.27-1.73-6.51-3.34-9.7-4.85-1.47-.7-2.93-1.37-4.39-2.02-3.58-1.62-7.09-3.11-10.52-4.48.73.24 2.7.79 5.07.25.72.37 1.48.7 2.28 1 7.96 3.03 15.32 1.07 18.69-.2 1.01-.37 1.66-.69 1.87-.79 1.46-.73 3.2-1.77 4.9-3.01.06.47.1.95.14 1.44.16 2.32.05 4.4-.18 6.19ZM112.52 144.72c-.22.09-.44.19-.67.28a.16.16 0 0 1-.08.03c-1.73.81-3.69 1.49-5.86 1.95-9.35 2.01-16.74-1.29-19.1-2.5.19-1.31.2-2.32.2-2.76-.32-1.45-.6-3.08-.77-4.88 2.37.59 4.92 1.19 7.68 1.9 1.3.33 2.63.69 4.03 1.08 4.04 1.15 8.96 2.71 14.57 4.9Z"/><path fill="#728DBE" d="M77.74 166.38c-1.02.6-2.25 1.1-3.68 1.26-2.6.3-5.2-.6-6.78-1.15-.38-.14-.7-.25-.9-.34a6.9 6.9 0 0 0-2.56.37c-.82.29-1.44.68-1.85.99l.72.03c.77.07 1.67.21 2.65.54.71.24 1.33.51 1.85.78a14.311 14.311 0 0 1-.2 3.13H46.9c1.37-4.55 1.74-6.12 4.14-8.45 1.34-1.3 4.11-3.59 8.63-4.92 1.39-.09 3.51-.22 6.12-.25 2.24-.03 3.43.02 4.16.01.47 0 1.91-.03 3.76-.38.87 1.96 1.76 3.88 2.68 5.72.22.45.44.89.67 1.33.16.32.32.65.49.96.05.12.12.24.19.37Z"/><path fill="#F1E9E0" d="M67.19 170.19c.02-.46.02-.9 0-1.32-.52-.27-1.14-.54-1.85-.78-.98-.32-1.88-.47-2.65-.54-.25-.02-.49-.03-.72-.03.42-.31 1.04-.71 1.85-.99 1.05-.37 1.97-.4 2.56-.37.2.09.52.2.9.34 1.58.54 4.18 1.45 6.78 1.15 1.43-.16 2.66-.66 3.68-1.26 0 .01.01.02.02.03.06.12.12.23.19.35.04.09.08.18.13.26.91 1.72 1.84 3.37 2.78 4.98H66.99c.1-.58.18-1.18.2-1.82ZM107.76 172H96.82a32.872 32.872 0 0 1-5.78-6.53 33.3 33.3 0 0 1-4.69-10.55c2.41 2.75 5.53 5.93 9.45 9.14.08.06.16.13.24.2 3.43 2.65 7.32 5.29 11.72 7.74ZM112.82 147.43c1.05-.44 2.02-.92 2.94-1.42 1.64.68 3.33 1.4 5.07 2.19-1.03 1.78-2.49 3.54-4.56 4.82-3.2 1.98-6.43 1.97-9.43 1.91-8.4-.14-15.07-3.71-19.09-6.47 3.61 1.1 13.95 3.68 25.07-1.03ZM122.99 140.81c-.06.95-.21 2.12-.55 3.43-.26 1-.6 1.88-.92 2.63-.11.25-.22.48-.33.7-.53-.31-1.05-.6-1.59-.9-.84-.47-1.68-.93-2.52-1.39 2.43-1.47 4.39-3.06 5.91-4.47Z"/><path fill="#F1E9E0" d="M124.37 149.85c.24.11.48.23.71.35-.67 9.01-3.54 16.44-6.36 21.8h-7.11a122.36 122.36 0 0 1-14.76-9.87c-3.79-2.97-7.14-5.95-10.09-8.83l.06-3.35c4.08 2.6 11.99 6.76 21.66 6.42 6.38-.22 9.42-2.25 10.26-2.85a15.12 15.12 0 0 0 4.09-4.39c.49.22.99.46 1.5.7.02 0 .02.01.04.02ZM125.07 142.14c.14 1.73.2 3.54.14 5.46-.02.76-.05 1.5-.11 2.23-.25-.15-.5-.31-.76-.45-.02-.01-.03-.02-.05-.03-.39-.23-.78-.46-1.18-.68.33-.58.6-1.13.82-1.63.29-.91.55-1.89.78-2.95.15-.68.26-1.32.36-1.95Z"/><path fill="#56595B" d="M131.41 145.79c2.47 10.33-.81 19.79-4.25 26.21h-1.45c3.8-6.94 7.4-17.15 4-27.53-.56-1.69-1.38-3.62-2.62-5.66.74.27 1.46.56 2.16.86.87 1.83 1.62 3.87 2.16 6.12Z"/><path fill="#F1E9E0" d="M173 146.36V162c0 2.72-1.09 5.19-2.85 6.99-.66.68-1.44 1.28-2.28 1.74-.43.24-.88.45-1.35.62-.87-1.34-1.79-2.51-2.71-3.54 0-.01-.01-.02-.01-.02-.14-.6-.31-1.22-.54-1.84-1.59-4.62-4.46-7.64-6.25-9.21a2.71 2.71 0 0 0-.76-.45c-.7-.26-1.33-.13-1.57-.06v.24c-.6-.73-1.22-1.45-1.9-2.18-1.58-1.73-3.2-3.27-4.85-4.66 1.89-.59 5.05-1.5 8.3-2.12 7.2-1.37 14.44-1.23 16.77-1.15Z"/><path fill="#F1E9E0" d="M163.8 167.8c-1.15-1.3-2.29-2.34-3.27-3.15-.41-.08-.86-.15-1.35-.22h-.01c-1.41-.19-3.12-.28-5.06-.1-2.02.19-3.77.61-5.19 1.09.33.49.65.99.99 1.49.51.94.22 2.02-.42 2.42-.13.09-.27.14-.43.17.3.59.58 1.22.82 1.9.08.2.14.41.2.6h-14.82c.38-1.17.74-2.4 1.06-3.67 1.56-6.14 1.93-11.89 1.7-16.93-.13-2.69-.43-5.19-.8-7.43.23.15.45.31.67.46.22.15.44.31.65.46.65.46 1.25.91 1.82 1.36.37.3.74.59 1.09.88.43.37.84.71 1.23 1.05.19.17.37.34.56.5.76.7 1.4 1.33 1.94 1.88.32-.12.65-.23.98-.35.08-.03.73-.25 1.77-.58a53.917 53.917 0 0 1 6.75 6.84v-.24c.25-.07.88-.2 1.57.06.34.13.59.31.76.45 1.79 1.57 4.66 4.59 6.25 9.21.23.64.41 1.26.54 1.85Z"/><path fill="#54688C" d="M66.56 126.87a21.637 21.637 0 0 1-6.72 3.12c-.59 3.25-2.36 10.27-8.17 16.78a34.527 34.527 0 0 1-11.5 8.45c-.92 3.43-2.68 7.92-6.17 12.13-1.24 1.5-2.68 3.2-4.78 4.62-5.16-.4-9.22-4.71-9.22-9.97v-17.2c1.65-1.67 3.03-3.38 5.81-5.58.97-.76 2.35-1.78 4.16-2.87 1.08 2.56 2.46 5.08 4.21 7.52.39.55.8 1.08 1.21 1.59a35.05 35.05 0 0 1-3.88-10v-.01c.14-1.9.56-5.6 2.25-9.89.8 1.35 1.78 2.78 2.99 4.21 1.67 1.95 3.36 3.44 4.83 4.56-.7-.93-1.4-1.93-2.08-3.02a42.794 42.794 0 0 1-4.24-8.99c.85-1.61 1.9-3.26 3.19-4.9 4.34-5.48 9.42-8.23 12.19-9.48.19-2.76.8-7.11 2.96-11.95 1.58-3.54 2.92-6.59 4.46-8.3-.55 7.24-.16 15.47 2.12 24.16 1.62 6.22 2.75 10.7 6.38 15.02ZM146.18 150.21c-.33.12-.65.23-.98.35a50.22 50.22 0 0 0-10.25-8.03 47.499 47.499 0 0 0-9.52-4.31c-.73-.25-1.49-.47-2.26-.68-.2-.06-.41-.12-.62-.17.23-1.79.34-3.88.19-6.18-.03-.48-.08-.97-.14-1.44.78-.56 1.55-1.16 2.29-1.8.71-.61 1.39-1.25 2.01-1.91 2.71-1.83 4.83-4.6 6.48-7.94.07-.14.14-.29.2-.43.48 1.89.84 4.06.9 6.46.03 1.19-.02 2.3-.11 3.34 2.09 1.98 4.62 4.8 6.86 8.61a39.303 39.303 0 0 1 4.95 14.13Z"/><path fill="#473830" d="M88.97 60.68C84 63.6 82.66 68.9 82.39 70.1c.91-1.75 2.57-4.29 5.45-6.36 1.69-1.22 4.81-3.45 8.36-2.91.79.12 2.05.76 4.58 2.03 3.2 1.61 4.48 2.62 6.69 2.69 1.14.04 2.08-.19 2.69-.38 0-.16-.01-.38-.07-.64-.71-3.23-6.79-4.37-8.72-4.73-4.19-.79-8.25-1.55-12.4.88ZM137.57 68.7c-2.72-2.54-4.71-2.97-6.12-2.75-1.53.24-3.21 1.35-6.58 1.55-1.25.07-2.29-.01-2.94-.08 1.01-1.61 2.17-2.4 2.84-2.78 3.53-2 8.18-.76 10.89 1.67.98.87 1.58 1.8 1.91 2.39ZM105.29 81.04c-.24-.88-.84-2.62-2.42-4.08-1.05-.98-2.23-1.52-3.31-1.83-1.51-.43-2.87-.38-3.54-.37-.31.01-.61.03-.92.07-.2.02-.39.05-.59.08-.03 0-.05.01-.08.02-.65.11-1.29.27-1.89.47-2.49.82-4.39 2.24-4.71 3.19a.83.83 0 0 0-.03.38c.11.55 1.11 1.02 2.17 1.5.04.03.09.05.14.07.53.24 1 .39 1.37.49-.42.07-.92.1-1.47.03-.59-.08-1.1-.25-1.56-.48-.01 0-.02-.01-.03-.02-1.13-.56-1.84-1.43-2.11-1.78a1.28 1.28 0 0 0-.38-.41c-.58-.39-1.28-.12-1.37-.09.23-.17.6-.4 1.12-.54.54-.15 1-.14 1.29-.11.62-.72 4.42-4.98 9.95-4.74 1.23.05 4.07.17 6.22 2.44 2.1 2.2 2.16 4.99 2.15 5.71ZM138.23 83.18c.01.05-.38.17-.82.16-.31-.01-.56-.08-.73-.14-.18.22-.42.46-.76.64-.98.53-2.07.2-2.61-.03-.07-.03-.13-.06-.18-.08a.565.565 0 0 1-.16-.08c.08.01.2.03.35.05.64.06 1.8.08 2.31-.61.79-1.06-.39-3.3-1.81-4.41-1-.79-2.28-1.14-3.6-1.15-1.45-.01-2.95.4-4.21 1.09-.27.14-.53.3-.77.47-1.5 1.05-2.29 2.4-2.69 3.23.13-1.06.49-2.61 1.64-3.93 3.08-3.53 9.76-3.14 11.87-.44.26.34 1.41 1.82 1.1 3.56-.08.43-.22.77-.34.99.13.2.32.43.62.55.4.18.78.09.79.13Z"/><path fill="#fff" d="M92.53 75.4c-1.02 1.29-1.42 3.33-.99 5.62-.03 0-.05 0-.08.01-.37-.1-.84-.26-1.37-.49-.04-.02-.09-.04-.14-.07-1.05-.48-2.06-.94-2.17-1.5a.82.82 0 0 1 .03-.38c.33-.96 2.23-2.38 4.72-3.19ZM105.29 81.04c-.71-.13-1.45-.24-2.26-.34-.7-2.42-1.92-4.39-3.48-5.57 1.09.31 2.26.85 3.31 1.83 1.59 1.46 2.19 3.2 2.43 4.08ZM125.24 79.09c.24-.17.49-.32.77-.47-.78 1.01-1.22 2.28-1.45 3.48-.73.04-1.4.13-2 .22.39-.84 1.18-2.19 2.68-3.23ZM135.62 83.09c-.51.69-1.67.67-2.31.61a6.39 6.39 0 0 0-.33-2.43c-.6-1.73-1.92-3.03-2.76-3.74 1.32.01 2.59.36 3.6 1.15 1.41 1.11 2.59 3.35 1.8 4.41Z"/><path fill="#BA688C" d="M102.43 79.04c-3.43-1.93-7.24-2.12-9.97-.41-.41.26-.76.54-1.09.84-.04-1.65.37-3.09 1.16-4.08.6-.2 1.23-.36 1.89-.47a.31.31 0 0 1 .08-.02c.2-.03.39-.06.59-.08.31-.03.61-.06.92-.07.67-.02 2.03-.07 3.54.37 1.18.91 2.18 2.26 2.88 3.92ZM133.1 81.7c-3.03-1.9-6.15-2.21-8.12-1.16.24-.68.57-1.34 1.02-1.92 1.26-.69 2.76-1.1 4.21-1.09.84.71 2.16 2.01 2.76 3.74.05.15.1.29.13.43Z"/><path fill="#D994C4" d="M103.03 80.7c-1.43-.16-3.01-.27-4.73-.27-2.58 0-4.87.25-6.77.59a10.6 10.6 0 0 1-.16-1.54c.32-.31.68-.59 1.09-.84 2.73-1.72 6.54-1.52 9.97.41.23.51.43 1.07.6 1.65ZM133.31 83.7c-.15-.02-.27-.04-.35-.05-.6-.27-1.25-.54-1.96-.77l-.3-.09c.02-.65-.16-1.25-.52-1.72-.12-.14-.65-.84-1.29-.77-.65.07-1.28.88-1.64 1.84-.96-.09-1.87-.09-2.69-.04.1-.52.24-1.05.43-1.56 1.97-1.05 5.09-.73 8.12 1.16.18.69.23 1.37.2 2Z"/><path fill="#fff" d="M130.86 79.34c.18 0 .43.07.53.27.17.3-.04.8-.43.93-.36.12-.79-.1-.86-.41-.09-.38.35-.79.76-.79Z"/><path fill="#473830" d="M96.64 77.53c.81-.11 1.52.45 1.6 1.15.1.81-.67 1.56-1.44 1.48-.56-.06-1.02-.55-1.11-1.11-.09-.64.29-1.29.95-1.52ZM130.7 82.79c-1.2-.36-2.36-.56-3.45-.65.36-.95.99-1.77 1.64-1.84.64-.07 1.17.63 1.29.77.35.47.53 1.07.52 1.72Z"/><path fill="#fff" d="M127.06 79.21c.03.01.47.1.58.43.15.47-.44 1.21-1.13 1.25-.4.03-.91-.17-.99-.49-.13-.5.79-1.34 1.54-1.19ZM93.8 75.98c.48.01.94.33 1.08.75.27.79-.59 1.87-1.4 1.75-.52-.07-1-.63-.99-1.26.03-.69.65-1.26 1.31-1.24ZM99.35 76.35c.46-.03.96.27 1.06.73.11.55-.41 1.11-.99 1.14-.47.02-.99-.32-1.04-.82-.06-.56.46-1.02.97-1.05Z"/><path fill="#D7D0B8" d="M124.52 108.94c.2-.18.42-.38.65-.62-.2.26-.44.47-.65.62Z"/><path fill="#BA688C" d="M121.81 97.09c-4.5-1.78-8.71-.65-13.17.55-4.11 1.1-7.37 2.75-9.71 4.16 1.24 2.52 5.22 9.8 13.39 12.61 2.4.82 6.28 2.16 10.14.32 6.01-2.85 6.6-10.85 6.64-11.35-1.29-2.03-3.6-4.83-7.29-6.29Zm1.59 12.72c-4.83 3.18-11.9 1.66-17.24-1.76-.01 0-.02-.01-.03-.01-1.37-.88-2.62-1.88-3.68-2.95-.25-.25-.48-.5-.71-.76-.35-.39-.61-.72-.78-.94 1.95-1.28 5.53-3.24 10.36-3.78 8.42-.96 14.7 3 16.52 4.25-.48 1.26-1.03 2.28-1.59 3.1-.09.13-.18.25-.27.37-.25.35-.51.65-.76.93a.21.21 0 0 0-.04.06c-.2.26-.44.48-.65.62-.01.01-.02.01-.03.02l-.28.25c-.31.25-.58.45-.82.6Z"/><path fill="#fff" d="M124.22 109.2c-.31.25-.58.46-.82.61-4.83 3.18-11.9 1.66-17.24-1.76 1.7.76 3.24 1.04 4.29 1.14h13.66c.04 0 .07 0 .11.01ZM127.84 103.86c-.48 1.26-1.03 2.28-1.59 3.1-.03-.23-.07-.41-.08-.44-.21-.86-.97-1.8-3-2.65-3.39-1.41-7.48-1.37-11.83-.75-.05.01-.13.02-.22.03a33.29 33.29 0 0 0-8.66 1.95c-.25-.25-.48-.5-.71-.76-.35-.39-.61-.72-.78-.94 1.95-1.28 5.53-3.24 10.36-3.78 8.41-.97 14.69 2.99 16.51 4.24Z"/><path fill="#511119" d="M126.25 106.97c-.09.13-.18.25-.27.37-.25.35-.51.65-.76.93a.21.21 0 0 0-.04.06c-.2.26-.44.48-.65.62-.01.01-.02.01-.03.02l-.28.25c-.03-.01-.07-.01-.1-.01h-13.66c-1.05-.1-2.59-.38-4.29-1.14-.01 0-.02-.01-.03-.01-1.37-.88-2.62-1.88-3.68-2.95 2.19-.81 5.13-1.63 8.66-1.95.09-.01.17-.02.22-.03 4.35-.62 8.44-.66 11.83.75 2.03.85 2.79 1.79 3 2.65.01.03.05.21.08.44Z"/><path fill="#D7D0B8" d="M125.17 108.32c-.2.26-.44.48-.65.62.21-.18.42-.38.65-.62Z"/><path fill="#E4DCCC" d="M72.95 108.03c-.51.18-1.24.4-2.14.49-2.94.31-5.17-.94-5.77-1.3-2.29-1.37-3.34-3.29-3.78-4.23-.81-1.74-1.15-3.68-1.21-5.6-.03-1.24.06-2.52.66-3.61.26-.47.62-.91 1.09-1.18.74-.43 1.68-.41 2.48-.12s1.49.83 2.12 1.41c1.36 1.25 2.49 2.72 3.61 4.19 2.44 3.19.94 1.49 2.95 4.24 0 0 1.71 2.35 1.44 3.68-.04.21-.16.33-.16.33-.26.27-.74.19-.94.16-3.6-.59-3.09-.5-4.21-.75-.85-.19-1.7-.4-2.45-.84-1.12-.67-1.88-1.81-2.53-2.95-.33-.57-.65-1.22-.48-1.85.18-.69.86-1.1 1.43-1.53.49-.36.94-.79 1.33-1.25.1-.12.21-.28.27-.52.12-.46-.06-.87-.16-1.07-.36-.8-1.75-2.19-3.04-1.92-1.91.4-2.13 4.14-2.14 4.39-.17 3.57 2.46 6.1 2.95 6.58 1.13 1.09 2.24 1.63 2.96 1.97 2.32 1.1 4.46 1.27 5.72 1.28ZM124.89 127.95c-.74.64-1.5 1.24-2.29 1.8-1.7 1.24-3.44 2.28-4.9 3.01-.21.1-.86.42-1.87.79-3.37 1.27-10.74 3.22-18.69.2-.8-.31-1.56-.64-2.28-1-3.48-1.76-6.1-4.16-8.19-6.63-1.83-2.17-3.23-4.37-4.43-6.27a42.47 42.47 0 0 1-3.66-7.18c2.01 1.74 4.23 3.44 6.7 5.05 14.08 9.13 29.22 10.55 39.61 10.23Z"/><path fill="#D7D0B8" d="M139 103.01c.24.05.01 1.21.36 3.15.24 1.35.65 2.42.96 3.13-.5.33-1.12.81-1.73 1.48-.52.57-.9 1.12-1.18 1.59-.15-.96-.28-2.38-.11-4.06.29-2.8 1.34-5.36 1.7-5.29Z"/><path fill="#56595B" d="M122.83 149.13a15.12 15.12 0 0 1-4.09 4.39c-.84.6-3.88 2.63-10.26 2.85-9.67.34-17.58-3.82-21.66-6.42l-.06 3.35c2.95 2.88 6.3 5.87 10.09 8.83a122.36 122.36 0 0 0 14.76 9.87h-3.86c-4.4-2.45-8.3-5.09-11.72-7.74-.08-.07-.16-.14-.24-.2-3.92-3.2-7.05-6.38-9.45-9.14-.03-.03-.05-.06-.08-.08-.83-.89-1.67-1.78-2.5-2.67.04-.06.09-.13.14-.19 1.84-2.56 2.59-5.41 2.9-7.49 2.36 1.21 9.75 4.51 19.1 2.5 2.2-.48 4.18-1.17 5.94-1.99.23-.09.45-.19.67-.28 1.05.41 2.13.84 3.24 1.29-.92.5-1.9.98-2.94 1.42-11.12 4.7-21.46 2.12-25.07 1.04 4.02 2.76 10.69 6.32 19.09 6.47 2.99.06 6.22.07 9.43-1.91 2.07-1.28 3.54-3.03 4.56-4.82.67.29 1.34.59 2.01.92ZM125.43 138.22c-.06 1.73-.26 3.7-.71 5.86-.23 1.06-.49 2.04-.78 2.95-.22.5-.49 1.05-.82 1.63-.64-.37-1.28-.75-1.93-1.1.11-.22.22-.45.33-.7.32-.75.65-1.62.92-2.63.34-1.3.49-2.47.55-3.43-1.51 1.4-3.48 2.99-5.92 4.45-.89-.48-1.78-.96-2.68-1.43 1.77-.92 3.26-1.94 4.47-2.91 1.87-1.49 3.08-2.85 3.6-3.47.03-.03.05-.07.08-.09.21.05.42.11.62.17l.75.21c.22.05.43.12.64.19.05.02.1.03.14.04.26.1.51.18.74.26Z"/><path fill="#473830" d="M125.71 172h-6.99c2.81-5.36 5.69-12.79 6.36-21.8 1.25.6 2.52 1.23 3.8 1.9-1.24-.76-2.51-1.52-3.78-2.27.06-.73.09-1.47.11-2.23.05-1.91-.01-3.73-.14-5.46.22-1.41.32-2.72.37-3.91.56.19 1.11.37 1.66.58 1.24 2.04 2.06 3.97 2.62 5.66 3.4 10.38-.21 20.59-4.01 27.53Z"/><path fill="#473830" d="M136.34 168.33c-.32 1.28-.68 2.5-1.06 3.67h-8.12c3.44-6.43 6.72-15.89 4.25-26.21-.08-.35-.17-.7-.27-1.04-.08-.31-.17-.61-.26-.91-.46-1.49-1.01-2.88-1.62-4.17 2.07.88 3.97 1.85 5.69 2.87.81.47 1.57.94 2.3 1.43h.01c.37 2.24.67 4.73.8 7.43.21 5.04-.16 10.79-1.72 16.93Z"/><path fill="#56595B" d="M155.54 159.5v.1c-3.43.09-6.88.16-10.3.26-.68-1.03-1.36-2.06-2.04-3.08-.08-.04-.49-.23-1.01-.21-1.22-1.68-2.58-3.43-4.15-5.18-.13-2.69-.43-5.19-.8-7.43.23.15.45.31.67.46.22.15.44.31.65.46.65.46 1.25.91 1.82 1.36.37.3.74.59 1.09.88.43.36.85.71 1.23 1.05.19.17.37.34.56.5.76.7 1.4 1.33 1.94 1.88.32-.12.65-.23.98-.35-.11-.73-.25-1.52-.43-2.35.73.56 1.46 1.15 2.19 1.78a53.917 53.917 0 0 1 6.75 6.84c-.01.71-.02 1.41-.02 2.12.28.29.57.59.87.91Z"/><path fill="#F9DE81" d="M149.49 169.32c-.13.09-.27.14-.43.17-.75.15-1.76-.26-2.17-1.28-2.18-3.03-4.35-6.06-6.54-9.1-.19-.98.25-1.93 1.03-2.34.27-.14.54-.2.8-.21.52-.02.94.17 1.01.21.68 1.02 1.36 2.05 2.04 3.08 1.22 1.84 2.46 3.7 3.68 5.55.33.49.65.99.99 1.49.52.95.23 2.03-.41 2.43ZM163.8 167.8c-1.15-1.3-2.29-2.34-3.27-3.15-.41-.08-.86-.15-1.35-.22h-.01c-.26-.45-.56-.92-.88-1.39a32.27 32.27 0 0 0-2.75-3.53c-.3-.32-.59-.63-.87-.91 0-.71.01-1.41.02-2.12v-.24c.25-.07.88-.2 1.57.06.34.13.59.31.76.45 1.79 1.57 4.66 4.59 6.25 9.21.22.63.4 1.25.53 1.84Z"/><path fill="#56595B" d="M166.52 171.35c-1.1.42-2.28.65-3.52.65h-12.91c-.06-.2-.13-.4-.2-.6-.25-.69-.53-1.32-.82-1.9.15-.03.3-.08.43-.17.64-.4.93-1.48.42-2.42-.33-.49-.65-.99-.99-1.49 1.43-.48 3.17-.9 5.19-1.09 1.94-.18 3.65-.09 5.06.1h.01c.49.07.94.14 1.35.22.99.82 2.12 1.85 3.27 3.15 0 0 .01.01.01.02.91 1.03 1.84 2.19 2.7 3.53Z"/><path fill="#473830" d="M96.82 172H80.85c-.94-1.61-1.87-3.26-2.78-4.98a1.23 1.23 0 0 0-.14-.25c-.06-.12-.13-.24-.18-.36-.01-.01-.02-.02-.02-.03-.07-.13-.14-.25-.2-.37-.17-.31-.33-.64-.49-.96-.23-.43-.45-.88-.67-1.33-.92-1.84-1.81-3.76-2.68-5.72 2.43-.46 5.56-1.48 8.13-3.73.75-.65 1.39-1.37 1.94-2.1.83.89 1.67 1.78 2.5 2.67.03.03.05.06.08.08a33.3 33.3 0 0 0 4.69 10.55c1.87 2.76 3.91 4.91 5.79 6.53Z"/></g></g><defs><clipPath id="a"><path fill="#fff" d="M0 0h192v192H0z"/></clipPath><clipPath id="b"><path fill="#fff" d="M20 19h153v153H20z"/></clipPath></defs></svg>