<?xml version="1.0" encoding="UTF-8"?>
<svg version="1.1" viewBox="0 0 192 192" xmlns="http://www.w3.org/2000/svg">
 <defs>
  <clipPath id="clipPath7">
   <rect class="a" x="20" y="20" width="152" height="152" rx="10" style="fill:#728dbe"/>
  </clipPath>
 </defs>
 <rect class="a" x="20" y="20" width="152" height="152" rx="10" style="fill:#728dbe"/>
 <path d="m55.655 80.691s1.1686-20.851-18.472-20.851c-23.078 0-25.469 27.288-25.469 27.288h41.702s-7.3213 12.965-8.6762 20.151c-0.51016 2.706 0.27988 5.2989 0.27988 8.2564 0 1.4843-1.6643 3.1486-3.1486 3.1486h-11.685s-3.8833 0.0736-3.8833 3.8833c0 3.3478 3.1136 3.1136 3.1136 3.1136h13.504" clip-path="url(#clipPath7)" style="fill:none;stroke-linecap:round;stroke-linejoin:round;stroke-width:2.7988;stroke:#96dfd3"/>
 <path d="m21.399 92.975c4.5291 5.8818 6.2529 12.854 6.036 20.582" style="fill:none;stroke-linecap:round;stroke-linejoin:round;stroke-width:2.7988;stroke:#96dfd3"/>
 <path d="m30.701 132.16h11.973" style="fill:none;stroke-linecap:round;stroke-linejoin:round;stroke-width:2.7988;stroke:#96dfd3"/>
 <path d="m70.38 90.304s1.6271 16.327 5.2444 16.327c5.2677 0 2.1602-14.215 7.4214-13.952 4.9491 0.2469 0.68498 13.744 5.6402 13.754 3.7783 8e-3 8.213-19.79 8.213-19.79" style="fill:none;stroke-linecap:round;stroke-linejoin:round;stroke-width:2.7988;stroke:#fff"/>
 <path d="m100.36 98.615v7.9161" style="fill:none;stroke-linecap:round;stroke-linejoin:round;stroke-width:2.7988;stroke:#fff"/>
 <path d="m105.21 90.501s16.624-1.8147 16.624 1.1874c0 3.8396-15.535 10.067-15.535 13.259 0 3.1453 19.79 1.1874 19.79 1.1874" style="fill:none;stroke-linecap:round;stroke-linejoin:round;stroke-width:2.7988;stroke:#fff"/>
 <circle cx="100.62" cy="93.606" r="1.7935" style="fill:#96dfd3"/>
</svg>
