<?xml version="1.0" encoding="UTF-8"?><svg id="a" xmlns="http://www.w3.org/2000/svg" width="192" height="192" xmlns:xlink="http://www.w3.org/1999/xlink" viewBox="0 0 192 192"><defs><clipPath id="e"><path id="f" d="m29.45,79.56c.17-3.08.51-9.24,1.43-15.05.91-5.82,2.39-11.29,4.28-15.63,1.88-4.33,4.16-7.53,6.44-10.72-.8,0-1.6,0-2.91-.85-1.31-.85-3.14-2.57-4.51-4.79-1.37-2.22-2.28-4.96-1.83-7.87.46-2.91,2.28-5.99,4.35-8.28,2.07-2.3,4.38-3.81,6.53-4.72s4.15-1.23,6.12-1.21c1.97.02,3.85.35,5.5,1.08,1.65.73,3.05,1.84,4.13,3.02s1.85,2.44,2.25,3.89c.4,1.45.43,3.11.46,4.76.66-.71,1.31-1.43,3.18-2.44,1.87-1.01,4.95-2.32,8.33-3.42,3.38-1.09,7.11-1.98,11.02-2.54,3.91-.56,8.07-.78,11.43-.84,3.36-.06,5.96.06,8.74.4,2.78.34,5.75.91,8.41,1.51s5.09,1.23,6.97,1.86c1.88.63,3.25,1.25,4.62,1.88,0-1.2,0-2.39.53-3.81.53-1.41,1.58-3.04,3.05-4.33,1.47-1.3,3.35-2.27,5.39-2.85,2.04-.58,4.23-.78,6.4-.44,2.17.35,4.25,1.22,6.03,2.29s3.24,2.32,4.45,3.79c1.21,1.47,2.18,3.15,2.89,5.04.71,1.89,1.17,4.01.88,6.16s-1.31,4.35-2.44,5.9-2.35,2.47-3.22,2.98c-.87.51-1.38.63-1.9.74,1.25,1.45,2.51,2.91,3.86,4.84s2.81,4.37,3.95,6.38c1.14,2.01,1.97,3.61,2.82,5.6.86,2,1.74,4.39,2.49,6.87.76,2.48,1.38,5.05,1.84,7.36.46,2.31.74,4.36.97,6.46.23,2.1.4,4.23.51,5.9.12,1.67.17,2.86.23,4.06-1.17-.74-2.34-1.48-4.07-2.37s-4.06-1.96-6.24-2.77c-2.18-.81-4.23-1.38-6.43-1.77s-4.53-.58-6.86-.6c-2.32-.01-4.63.16-7.73.83-3.09.67-6.97,1.84-10.35,3.12-3.38,1.28-6.26,2.68-9.11,4.1s-5.62,2.83-8.21,3.96c-2.59,1.13-4.99,1.95-7.31,2.49s-4.58.8-6.57.6c-2-.2-3.73-.85-5.65-1.62-1.91-.77-3.99-1.65-5.83-2.45s-3.44-1.51-5.82-2.38c-2.38-.87-5.55-1.9-8.6-2.71-3.05-.81-5.99-1.41-8.92-1.81-2.94-.4-5.93-.6-8.81-.44-2.88.16-5.67.67-8.01,1.3s-4.22,1.37-5.7,2.07c-1.48.7-2.57,1.35-3.65,2.01v-1.21q0-.24.17-3.32h0Z" style="fill:none;"/></clipPath><clipPath id="t"><path id="u" d="m112,83.35c4.42-2.09,10.69-4.76,16.09-6.45,5.4-1.68,9.93-2.38,14.23-2.32,4.3.06,8.37.87,12.96,2.85,4.59,1.98,9.7,5.11,13.3,8.02,3.6,2.91,5.69,5.58,7.67,9.01,1.98,3.43,3.83,7.61,5,12.84,1.16,5.23,1.63,11.5,1.16,16.73-.46,5.23-1.86,9.41-3.72,13.19-1.86,3.78-4.18,7.15-7.15,10.51-2.96,3.37-6.56,6.74-12.14,10.28-5.58,3.54-13.13,7.26-19.81,9.88-6.68,2.61-12.49,4.12-19.23,5.29s-14.41,1.98-21.09,2.27c-6.68.29-12.37.06-18.88-.76-6.51-.81-13.83-2.21-20.62-4.18-6.8-1.98-13.07-4.53-19.23-7.96-6.16-3.43-12.2-7.73-17.02-12.32s-8.42-9.47-10.75-14.41c-2.32-4.94-3.37-9.93-3.37-15.57,0-5.64,1.05-11.91,3.31-17.66,2.27-5.75,5.75-10.98,10.17-14.87,4.42-3.89,9.76-6.45,14.93-7.84,5.17-1.39,10.17-1.63,15.22-1.16,5.05.47,10.17,1.63,14.93,3.2,4.76,1.57,9.18,3.54,12.55,5s5.69,2.38,7.67,2.96c1.98.58,3.6.81,5.93.52,2.32-.29,5.34-1.1,8.13-2.27s5.34-2.67,9.76-4.76h0Z" style="fill:none;"/></clipPath></defs><g id="b"><g id="c"><path id="d" d="m55.1,168.52c.46.75,1.36,2.24,2.43,3.47,1.06,1.22,2.31,2.21,4.24,3.41s4.54,2.62,7.16,3.72c2.61,1.1,5.21,1.87,8.14,2.54s6.18,1.24,9.69,1.66c3.51.41,7.34.67,10.78.69,3.44.01,6.53-.21,9.87-.7,3.34-.48,7-1.23,10.48-2.32,3.48-1.09,6.82-2.51,9.39-3.81s4.37-2.47,5.95-3.67,2.96-2.43,3.91-3.5c.96-1.07,1.5-1.98,2.04-2.9-1.54.6-3.08,1.2-4.93,1.8-1.84.6-3.98,1.2-6.33,1.78-2.34.59-4.88,1.16-7.4,1.6s-5.05.76-8.2,1.09-6.91.67-10.29.9-6.38.34-9.24.31c-2.86-.03-5.57-.2-8.15-.46s-5.04-.6-7.52-.96c-2.48-.36-5-.73-7.25-1.14-2.26-.41-4.25-.87-6.01-1.31-1.76-.44-3.27-.87-4.77-1.36-1.5-.49-2.98-1.04-3.72-1.32q-.74-.28-.29.47h0Z" style="fill:#f58f8a;"/><g style="clip-path:url(#e);"><path id="g" d="m29.45,79.56c.17-3.08.51-9.24,1.43-15.05.91-5.82,2.39-11.29,4.28-15.63,1.88-4.33,4.16-7.53,6.44-10.72-.8,0-1.6,0-2.91-.85-1.31-.85-3.14-2.57-4.51-4.79-1.37-2.22-2.28-4.96-1.83-7.87.46-2.91,2.28-5.99,4.35-8.28,2.07-2.3,4.38-3.81,6.53-4.72s4.15-1.23,6.12-1.21c1.97.02,3.85.35,5.5,1.08,1.65.73,3.05,1.84,4.13,3.02s1.85,2.44,2.25,3.89c.4,1.45.43,3.11.46,4.76.66-.71,1.31-1.43,3.18-2.44,1.87-1.01,4.95-2.32,8.33-3.42,3.38-1.09,7.11-1.98,11.02-2.54,3.91-.56,8.07-.78,11.43-.84,3.36-.06,5.96.06,8.74.4,2.78.34,5.75.91,8.41,1.51s5.09,1.23,6.97,1.86c1.88.63,3.25,1.25,4.62,1.88,0-1.2,0-2.39.53-3.81.53-1.41,1.58-3.04,3.05-4.33,1.47-1.3,3.35-2.27,5.39-2.85,2.04-.58,4.23-.78,6.4-.44,2.17.35,4.25,1.22,6.03,2.29s3.24,2.32,4.45,3.79c1.21,1.47,2.18,3.15,2.89,5.04.71,1.89,1.17,4.01.88,6.16s-1.31,4.35-2.44,5.9-2.35,2.47-3.22,2.98c-.87.51-1.38.63-1.9.74,1.25,1.45,2.51,2.91,3.86,4.84s2.81,4.37,3.95,6.38c1.14,2.01,1.97,3.61,2.82,5.6.86,2,1.74,4.39,2.49,6.87.76,2.48,1.38,5.05,1.84,7.36.46,2.31.74,4.36.97,6.46.23,2.1.4,4.23.51,5.9.12,1.67.17,2.86.23,4.06-1.17-.74-2.34-1.48-4.07-2.37s-4.06-1.96-6.24-2.77c-2.18-.81-4.23-1.38-6.43-1.77s-4.53-.58-6.86-.6c-2.32-.01-4.63.16-7.73.83-3.09.67-6.97,1.84-10.35,3.12-3.38,1.28-6.26,2.68-9.11,4.1s-5.62,2.83-8.21,3.96c-2.59,1.13-4.99,1.95-7.31,2.49s-4.58.8-6.57.6c-2-.2-3.73-.85-5.65-1.62-1.91-.77-3.99-1.65-5.83-2.45s-3.44-1.51-5.82-2.38c-2.38-.87-5.55-1.9-8.6-2.71-3.05-.81-5.99-1.41-8.92-1.81-2.94-.4-5.93-.6-8.81-.44-2.88.16-5.67.67-8.01,1.3s-4.22,1.37-5.7,2.07c-1.48.7-2.57,1.35-3.65,2.01v-1.21q0-.24.17-3.32h0Z" style="fill:#ffd6d4;"/><path id="h" d="m131.18,23.11c1.23.59,3.69,1.75,5.75,3.11,2.06,1.35,3.71,2.88,5.36,4.41.44-.52.89-1.05,1.39-1.85.5-.81,1.07-1.89,1.29-3.2.22-1.31.1-2.84-.36-4.15-.46-1.31-1.27-2.4-2.32-3.25-1.05-.85-2.34-1.45-3.63-1.65-1.29-.2-2.58,0-3.79.48-1.21.48-2.34,1.25-3.13,1.96-.79.71-1.23,1.35-1.47,1.94-.24.59-.28,1.11-.32,1.63t1.23.59h0Z" style="fill:#f58f8a;"/><path id="i" d="m55.71,25.34c-1.16.72-3.47,2.16-5.36,3.74s-3.36,3.28-4.83,4.99c-.5-.47-1-.94-1.59-1.69-.59-.74-1.28-1.76-1.64-3.04-.37-1.28-.42-2.81-.11-4.17.31-1.35.99-2.53,1.94-3.49s2.16-1.71,3.42-2.05c1.26-.35,2.56-.29,3.82.05,1.26.34,2.47.98,3.33,1.59.86.61,1.37,1.2,1.68,1.76.31.55.41,1.07.5,1.59t-1.16.72h0Z" style="fill:#f58f8a;"/><path id="j" d="m29.45,83.49c-.06-2.74-.11-5.47.05-8.81.17-3.34.57-7.38,1.11-10.86.54-3.48,1.23-6.44,1.92-8.83.69-2.38,1.42-4.23,2.17-5.87.76-1.64,1.55-3.09,2.37-4.42s1.64-2.52,2.38-3.55c.74-1.03,1.48-2.14,2.14-2.99-.51,1.37-1.11,2.99-1.55,4.65-.44,1.65-.81,3.59-1.13,5.76-.31,2.17-.57,4.56-.94,7.09-.37,2.52-.86,5.17-1.14,7.87-.29,2.69-.37,5.43-.37,7.74,0,2.31.09,4.19.24,5.62.16,1.43.38,2.39.61,3.36-.74.26-1.48.51-2.32.83-.84.31-1.78.68-2.72,1.1-.94.41-1.88.87-2.82,1.33Z" style="fill:#ffb0ac; isolation:isolate;"/><ellipse id="k" cx="122" cy="66.9" rx="7.06" ry="6.57" style="fill:#56595b; isolation:isolate; opacity:.96;"/><circle id="l" cx="123.37" cy="64.85" r="2.4" style="fill:#fff; isolation:isolate; opacity:.96;"/><ellipse id="m" cx="66.57" cy="67.24" rx="7.06" ry="6.57" style="fill:#56595b; isolation:isolate; opacity:.96;"/><circle id="n" cx="67.94" cy="65.19" r="2.4" style="fill:#fff; isolation:isolate; opacity:.96;"/><path id="o" d="m125.41,55.58c-.42-.08-1.27-.24-2.06-.22-.79.02-1.51.22-2.22.16s-1.39-.38-1.81-.93-.59-1.31-.22-2.02c.36-.71,1.25-1.35,2.38-1.75,1.13-.4,2.5-.56,3.89-.46s2.8.46,3.89.87c1.09.4,1.85.85,2.74,1.67s1.89,2.04,2.6,3.19c.71,1.15,1.11,2.24,1.31,3.73s.2,3.39.2,5.28c-.36-.89-.73-1.77-1.21-2.68-.48-.91-1.09-1.83-1.83-2.7-.75-.87-1.63-1.67-2.5-2.3-.87-.63-1.71-1.07-2.5-1.33-.79-.26-1.51-.34-1.88-.38q-.36-.04-.79-.12h0Z" style="fill:#56595b;"/><path id="p" d="m64.66,55.45c.42-.08,1.27-.24,2.06-.22.79.02,1.51.22,2.22.16s1.39-.38,1.81-.93.59-1.31.22-2.02c-.36-.71-1.25-1.35-2.38-1.75-1.13-.4-2.5-.56-3.89-.46-1.39.1-2.8.46-3.89.87-1.09.4-1.85.85-2.74,1.67s-1.89,2.04-2.6,3.19c-.71,1.15-1.11,2.24-1.31,3.73s-.2,3.39-.2,5.28c.36-.89.73-1.77,1.21-2.68.48-.91,1.09-1.83,1.83-2.7.75-.87,1.63-1.67,2.5-2.3.87-.63,1.71-1.07,2.5-1.33.79-.26,1.51-.34,1.88-.38q.36-.04.79-.12h0Z" style="fill:#56595b;"/></g><path id="q" d="m157.03,157.8c1.05,2.26,2.1,4.52,2.78,6.01s1.01,2.22.93,2.98c-.08.77-.57,1.57-2.9,2.9-2.34,1.33-6.53,3.19-8.99,4.15-2.46.97-3.19,1.05-3.87.93-.69-.12-1.33-.44-2.1-1.85-.77-1.41-1.65-3.91-2.11-5.35-.46-1.44-.49-1.82-.52-2.19.07.24.15.49,1.86-.23,1.72-.72,5.09-2.4,7.85-3.78,2.76-1.39,4.91-2.48,7.07-3.57h0Z" style="fill:#ececec;"/><path id="r" d="m54.1,167.44c-.97,2.74-1.94,5.48-2.74,7.14-.81,1.65-1.45,2.22-2.06,2.5-.6.28-1.17.28-3.67-.48-2.5-.77-6.94-2.3-9.35-3.35-2.42-1.05-2.82-1.61-3.03-2.26-.2-.65-.2-1.37.44-3.39.65-2.02,1.94-5.32,3.23-8.63l2.32,1.08,6.69,3.63,4.42,1.93,3.75,1.83Z" style="fill:#ececec;"/><path id="s" d="m47.77,79.01c.88-.23,2.65-.68,4.33-.94s3.28-.31,5.1-.23,3.88.31,6.08.66c2.2.34,4.53.8,6.81,1.48,2.28.68,4.5,1.6,6.59,2.48,2.08.88,4.02,1.74,5.78,2.53s3.38,1.54,5.06,2.09,3.44.88,5.47.88,4.31-.34,6.56-1.08c2.25-.74,4.48-1.88,7.16-3.25,2.68-1.37,5.82-2.97,8.69-4.24,2.87-1.28,5.51-2.26,7.79-2.94,2.28-.68,4.22-1.08,6.3-1.37,2.08-.29,4.31-.46,6.47-.37,2.17.09,4.28.43,6.39.77-2.22.17-4.45.34-6.94.8-2.49.46-5.26,1.2-7.57,1.92-2.31.73-4.16,1.44-6.33,2.3-2.17.86-4.65,1.85-7.21,3.01-2.56,1.16-5.17,2.46-7.92,3.66-2.75,1.2-5.63,2.28-7.85,2.95-2.22.67-3.79.93-5.64.83-1.85-.1-3.99-.56-6.03-1.23-2.04-.67-3.98-1.55-5.96-2.45-1.98-.9-4.01-1.81-6.02-2.64-2.01-.83-4.01-1.57-6.02-2.2-2.01-.63-4.03-1.14-6.08-1.55-2.05-.41-4.13-.73-6.04-1-1.91-.27-3.65-.5-5.26-.6-1.61-.1-3.1-.07-4.58-.04t.88-.23h0Z" style="fill:#ffb0ac; isolation:isolate;"/><g style="clip-path:url(#t);"><path id="v" d="m112,83.35c4.42-2.09,10.69-4.76,16.09-6.45,5.4-1.68,9.93-2.38,14.23-2.32,4.3.06,8.37.87,12.96,2.85,4.59,1.98,9.7,5.11,13.3,8.02,3.6,2.91,5.69,5.58,7.67,9.01,1.98,3.43,3.83,7.61,5,12.84,1.16,5.23,1.63,11.5,1.16,16.73-.46,5.23-1.86,9.41-3.72,13.19-1.86,3.78-4.18,7.15-7.15,10.51-2.96,3.37-6.56,6.74-12.14,10.28-5.58,3.54-13.13,7.26-19.81,9.88-6.68,2.61-12.49,4.12-19.23,5.29s-14.41,1.98-21.09,2.27c-6.68.29-12.37.06-18.88-.76-6.51-.81-13.83-2.21-20.62-4.18-6.8-1.98-13.07-4.53-19.23-7.96-6.16-3.43-12.2-7.73-17.02-12.32s-8.42-9.47-10.75-14.41c-2.32-4.94-3.37-9.93-3.37-15.57,0-5.64,1.05-11.91,3.31-17.66,2.27-5.75,5.75-10.98,10.17-14.87,4.42-3.89,9.76-6.45,14.93-7.84,5.17-1.39,10.17-1.63,15.22-1.16,5.05.47,10.17,1.63,14.93,3.2,4.76,1.57,9.18,3.54,12.55,5s5.69,2.38,7.67,2.96c1.98.58,3.6.81,5.93.52,2.32-.29,5.34-1.1,8.13-2.27s5.34-2.67,9.76-4.76h0Z" style="fill:#ffd6d4;"/><path id="w" d="m8.93,109.82c1.21,3.42,2.42,6.85,4.18,10.55,1.76,3.7,4.06,7.67,6.32,11.22,2.27,3.55,4.51,6.66,7.2,9.63,2.69,2.96,5.84,5.78,9.17,8.53s6.84,5.44,10.85,8.03c4.01,2.59,8.58,5.11,12.53,7.09s7.36,3.46,11.78,5.02c4.42,1.56,9.86,3.21,13.87,4.34,4,1.13,6.53,1.74,9.07,2.35-4.84-.49-9.68-.98-13.8-1.5-4.12-.52-7.5-1.07-11.67-2.05-4.17-.98-9.15-2.39-13.41-3.82-4.27-1.44-7.84-2.9-11.59-4.89-3.75-1.99-7.69-4.49-11.03-6.83s-6.16-4.57-8.76-7.1c-2.6-2.54-5.02-5.41-7.05-8.16-2.03-2.75-3.66-5.38-5.02-8.53-1.36-3.15-2.45-6.82-2.97-10.24s-.45-6.48-.3-8.71.39-3.58.64-4.92Z" style="fill:#ffb0ac; isolation:isolate;"/></g><ellipse cx="125.08" cy="96.32" rx="8.43" ry="8.28" style="fill:#f58f8a; isolation:isolate;"/><ellipse cx="59.13" cy="95.3" rx="8.51" ry="8.28" style="fill:#f58f8a; isolation:isolate;"/></g></g></svg>