<svg xmlns="http://www.w3.org/2000/svg" width="192" height="192"><g transform="translate(0 -1)"><rect width="152" height="152" x="20" y="21" fill="#b1b5bd" rx="9.935"/><path fill="#f9de81" d="m74.16 95.663-.692-.259s8.381-4.144 6.686-13.561c-2-11.108-14.597-10.735-14.597-10.735H55.106v8.852h8.664a6.216 6.216 0 0 1 0 12.431h-8.664v8.662h9.371a6.97 6.97 0 1 1 0 13.938h-9.371v8.776h10.211s14.083.432 16.318-12.418c1.894-10.893-7.475-15.686-7.475-15.686zM153.94 71.377a3.953 3.953 0 0 0-5.344 1.652l-12.773 24.207c-.04.039-.075.082-.114.121V76.194a3.955 3.955 0 1 0-7.909 0v45.2a3.954 3.954 0 1 0 7.909 0v-7.02c.035-.06.076-.113.108-.176l3.159-5.984 9.187 14.327a3.952 3.952 0 0 0 5.456 1.231 3.957 3.957 0 0 0 1.231-5.457l-11.616-18.172 12.357-23.422a3.954 3.954 0 0 0-1.651-5.344z"/><g fill="#56595b"><path d="M95.268 73.322c-5.149 0-9.323 4.174-9.323 9.322v32.958c0 5.149 4.174 9.324 9.323 9.324 5.148 0 9.322-4.175 9.322-9.324V82.645c0-5.149-4.174-9.323-9.322-9.323zm2.258 42.845a2.261 2.261 0 0 1-2.26 2.262 2.263 2.263 0 0 1-2.26-2.262V82.079a2.26 2.26 0 0 1 4.52 0zM116.31 73.322a9.322 9.322 0 0 0-9.322 9.322v32.958c0 5.149 4.173 9.324 9.322 9.324s9.322-4.175 9.322-9.324V82.645c.001-5.149-4.174-9.323-9.322-9.323zm2.26 42.845a2.262 2.262 0 1 1-4.522 0V82.079a2.262 2.262 0 0 1 4.522 0zM52.538 121.16l-16.271 4.129v-2.222l8.232-1.932a119.65 119.65 0 0 1 5.625-1.207v-.047c-1.617-.268-3.548-.774-5.648-1.329l-8.208-2.172v-2.197l8.255-1.981c1.931-.457 3.862-.893 5.576-1.133v-.048c-1.787-.339-3.597-.798-5.624-1.305l-8.208-2.148v-2.148l16.271 4.61v2.196l-8.473 2.054c-2.076.506-3.669.844-5.311 1.062v.049c1.617.288 3.21.651 5.311 1.255l8.473 2.316zM46.599 93.691c4.321 0 6.204 2.992 6.204 5.816 0 3.162-2.317 5.601-6.01 5.601-3.911 0-6.204-2.559-6.204-5.793-.001-3.355 2.436-5.624 6.01-5.624zm.121 9.269c2.559 0 4.49-1.473 4.49-3.548 0-2.028-1.907-3.549-4.539-3.549-1.98 0-4.49.99-4.49 3.5 0 2.512 2.319 3.597 4.539 3.597zM44.5 91.011c-1.376 0-2.559.024-3.646.097v-1.859l2.293-.072v-.096c-1.569-.531-2.558-1.811-2.558-3.234 0-.242.023-.411.072-.604h2.003a3.21 3.21 0 0 0-.072.724c0 1.497 1.135 2.559 2.728 2.849.29.048.627.097.989.097h6.229v2.1zM35.398 73.269H49.52c1.038 0 2.22-.024 3.017-.096v1.907l-2.028.096v.049c1.304.651 2.292 2.076 2.292 3.982 0 2.824-2.389 4.997-5.938 4.997-3.886.024-6.276-2.391-6.276-5.238 0-1.787.845-2.994 1.787-3.524v-.048h-6.976zm10.212 2.125c-.266 0-.627.024-.894.096-1.352.314-2.462 1.473-2.462 3.066 0 2.196 1.931 3.5 4.515 3.5 2.366 0 4.321-1.159 4.321-3.453 0-1.424-.942-2.727-2.535-3.113a3.72 3.72 0 0 0-.917-.096z"/></g></g></svg>