<?xml version="1.0" encoding="UTF-8" standalone="no"?>
<svg
   xmlns:dc="http://purl.org/dc/elements/1.1/"
   xmlns:cc="http://creativecommons.org/ns#"
   xmlns:rdf="http://www.w3.org/1999/02/22-rdf-syntax-ns#"
   xmlns:svg="http://www.w3.org/2000/svg"
   xmlns="http://www.w3.org/2000/svg"
   xmlns:sodipodi="http://sodipodi.sourceforge.net/DTD/sodipodi-0.dtd"
   xmlns:inkscape="http://www.inkscape.org/namespaces/inkscape"
   viewBox="0 0 192 192"
   version="1.1"
   id="svg16"
   sodipodi:docname="xenowerk.svg"
   inkscape:version="0.92.4 (5da689c313, 2019-01-14)">
  <metadata
     id="metadata20">
    <rdf:RDF>
      <cc:Work
         rdf:about="">
        <dc:format>image/svg+xml</dc:format>
        <dc:type
           rdf:resource="http://purl.org/dc/dcmitype/StillImage" />
        <dc:title></dc:title>
      </cc:Work>
    </rdf:RDF>
  </metadata>
  <sodipodi:namedview
     pagecolor="#ffffff"
     bordercolor="#666666"
     borderopacity="1"
     objecttolerance="10"
     gridtolerance="10"
     guidetolerance="10"
     inkscape:pageopacity="0"
     inkscape:pageshadow="2"
     inkscape:window-width="1920"
     inkscape:window-height="1017"
     id="namedview18"
     showgrid="true"
     inkscape:zoom="8.3352865"
     inkscape:cx="75.22733"
     inkscape:cy="128.10608"
     inkscape:window-x="-8"
     inkscape:window-y="-8"
     inkscape:window-maximized="1"
     inkscape:current-layer="svg16">
    <inkscape:grid
       type="xygrid"
       id="grid827"
       spacingx="4"
       spacingy="4" />
  </sodipodi:namedview>
  <defs
     id="defs4">
    <style
       id="style2">.a{fill:none;stroke:#b1b5bd;stroke-linecap:round;stroke-linejoin:round;isolation:isolate;opacity:0.63;}</style>
  </defs>
  <rect
     class="a"
     x="8"
     y="32"
     width="176"
     height="128"
     rx="10"
     id="rect14"
     style="fill:#96dfd3;stroke:none;opacity:1" />
  <path
     style="fill:#4a4a4a;stroke:none;stroke-width:1px;stroke-linecap:butt;stroke-linejoin:miter;stroke-opacity:1"
     d="M 76 100 C 35.069324 100 15.564087 112.795 8 119.69531 L 8 150 C 8 155.54 12.46 160 18 160 L 76 160 L 76 100 z M 116 100 L 116 160 L 174 160 C 179.54 160 184 155.54 184 150 L 184 119.69531 C 176.43591 112.795 156.93068 100 116 100 z "
     id="path890-0" />
  <rect
     style="opacity:1;vector-effect:none;fill:#56595b;fill-opacity:1;fill-rule:evenodd;stroke:none;stroke-width:8;stroke-linecap:round;stroke-linejoin:round;stroke-miterlimit:4;stroke-dasharray:none;paint-order:stroke fill markers"
     id="rect884-0"
     width="40"
     height="40"
     x="-48"
     y="76"
     ry="20"
     transform="scale(-1,1)" />
  <rect
     style="opacity:1;vector-effect:none;fill:#56595b;fill-opacity:1;fill-rule:evenodd;stroke:none;stroke-width:8.71779823;stroke-linecap:round;stroke-linejoin:round;stroke-miterlimit:4;stroke-dasharray:none;paint-order:stroke fill markers"
     id="rect888-3"
     width="24"
     height="60"
     x="-40"
     y="96"
     ry="12"
     transform="scale(-1,1)" />
  <rect
     style="opacity:1;vector-effect:none;fill:#ffffff;fill-opacity:1;fill-rule:evenodd;stroke:none;stroke-width:6.85714293;stroke-linecap:round;stroke-linejoin:round;stroke-miterlimit:4;stroke-dasharray:none;paint-order:stroke fill markers"
     id="rect886-3"
     width="24"
     height="24"
     x="-40"
     y="84"
     ry="12"
     transform="scale(-1,1)" />
  <rect
     style="opacity:1;vector-effect:none;fill:#56595b;fill-opacity:1;fill-rule:evenodd;stroke:none;stroke-width:8.71779823;stroke-linecap:round;stroke-linejoin:round;stroke-miterlimit:4;stroke-dasharray:none;paint-order:stroke fill markers"
     id="rect888"
     width="24"
     height="60"
     x="152"
     y="96"
     ry="12" />
  <rect
     style="opacity:1;vector-effect:none;fill:#56595b;fill-opacity:1;fill-rule:evenodd;stroke:none;stroke-width:8;stroke-linecap:round;stroke-linejoin:round;stroke-miterlimit:4;stroke-dasharray:none;paint-order:stroke fill markers"
     id="rect884"
     width="40"
     height="40"
     x="144"
     y="76"
     ry="20" />
  <path
     style="fill:#ff837d;stroke:none;stroke-width:1px;stroke-linecap:butt;stroke-linejoin:miter;stroke-opacity:1"
     d="M 96 92 C 96 92 71.30608 91.763208 60 96 C 47.84415 100.55523 33.47381 106.42449 28 118.19531 C 20.917268 133.42593 18.029129 149.37619 16.839844 159.92773 C 17.220984 159.97147 17.606769 160 18 160 L 174 160 C 174.39323 160 174.77902 159.97147 175.16016 159.92773 C 173.97087 149.37619 171.08273 133.42593 164 118.19531 C 158.52619 106.42449 144.15585 100.55523 132 96 C 120.69392 91.763208 96 92 96 92 z "
     id="path882" />
  <path
     style="fill:#ba6561;stroke:none;stroke-width:1px;stroke-linecap:butt;stroke-linejoin:miter;stroke-opacity:1"
     d="M 96 92 C 96 92 32 96 32 128 C 32 146.70919 49.284098 155.68401 65.888672 160 L 126.11133 160 C 142.7159 155.68401 160 146.70919 160 128 C 160 96 96 92 96 92 z "
     id="path880" />
  <path
     style="opacity:1;vector-effect:none;fill:#56595b;fill-opacity:1;fill-rule:evenodd;stroke:none;stroke-width:8;stroke-linecap:round;stroke-linejoin:round;stroke-miterlimit:4;stroke-dasharray:none;paint-order:stroke fill markers"
     d="M 96 124 C 69.408 124 48 132.88301 48 143.91602 L 48 144.08398 C 48 150.60399 55.479718 156.37145 67.083984 160 L 124.91602 160 C 136.52028 156.37145 144 150.60399 144 144.08398 L 144 143.91602 C 144 132.88301 122.592 124 96 124 z "
     id="rect876" />
  <path
     style="opacity:1;fill:#ff837d;stroke:none;stroke-width:1px;stroke-linecap:butt;stroke-linejoin:miter;stroke-opacity:1"
     d="M 96 8 C 96 8 40 8 44 72 C 45.42123 94.73964 52 124 68 136 C 75.54247 141.65685 96 140 96 140 C 96 140 116.45753 141.65685 124 136 C 140 124 146.57877 94.73964 148 72 C 152 8 96 8 96 8 z "
     id="path829" />
  <rect
     style="opacity:1;vector-effect:none;fill:#ba6561;fill-opacity:1;fill-rule:evenodd;stroke:none;stroke-width:8;stroke-linecap:round;stroke-linejoin:round;stroke-miterlimit:4;stroke-dasharray:none;paint-order:stroke fill markers"
     id="rect831"
     width="32"
     height="24"
     x="80"
     y="20"
     rx="16" />
  <rect
     style="opacity:1;vector-effect:none;fill:#ff837d;fill-opacity:1;fill-rule:evenodd;stroke:none;stroke-width:8;stroke-linecap:round;stroke-linejoin:round;stroke-miterlimit:4;stroke-dasharray:none;paint-order:stroke fill markers"
     id="rect833"
     width="24"
     height="16"
     x="84"
     y="24"
     rx="16" />
  <path
     style="fill:#ba6561;stroke:none;stroke-width:1px;stroke-linecap:butt;stroke-linejoin:miter;stroke-opacity:1"
     d="M 52 36 C 44 72 54.830078 89.677734 67.830078 97.677734 C 80.830078 105.67773 96 104 96 104 L 60 68 L 56 44 C 54.66667 41.333333 53.33333 38.666667 52 36 z M 96 104 C 96 104 111.16992 105.67773 124.16992 97.677734 C 137.16992 89.677734 148 72 140 36 C 138.66667 38.666667 137.33333 41.333333 136 44 L 132 68 L 96 104 z "
     id="path846" />
  <path
     style="fill:#96dfd3;stroke:none;stroke-width:1px;stroke-linecap:butt;stroke-linejoin:miter;stroke-opacity:1"
     d="m 56,44 c 0,0 -5.048567,22.20608 1.757812,37.294922 C 67.999462,103.99929 96,104 96,104 c 0,0 28.00054,-7.1e-4 38.24219,-22.705078 C 141.04857,66.20608 136,44 136,44 c 0,0 -1.68552,6.58044 -8.88477,12.339844 C 117.11523,64.339844 107.07608,68 96,68 84.923915,68 74.884766,64.339844 64.884766,56.339844 57.685516,50.58044 56,44 56,44 Z"
     id="path835"
     inkscape:connector-curvature="0"
     sodipodi:nodetypes="cscscszsc" />
  <rect
     style="opacity:1;vector-effect:none;fill:#83868c;fill-opacity:1;fill-rule:evenodd;stroke:none;stroke-width:8;stroke-linecap:round;stroke-linejoin:round;stroke-miterlimit:4;stroke-dasharray:none;paint-order:stroke fill markers"
     id="rect854"
     width="40"
     height="19.999985"
     x="-136"
     y="112"
     ry="7.9999924"
     transform="scale(-1,1)" />
  <path
     style="fill:#a0a5af;stroke:none;stroke-width:1px;stroke-linecap:butt;stroke-linejoin:miter;stroke-opacity:1"
     d="m 96,104 v 40 h 12 c 0,0 4,0 4,-4 V 125.99998 L 116,112 c 0,0 4,-8 -8,-8 -4,0 -12,0 -12,0 z"
     id="path848"
     inkscape:connector-curvature="0"
     sodipodi:nodetypes="cccsccsc" />
  <path
     style="fill:#d2d2d2;stroke:none;stroke-width:1px;stroke-linecap:butt;stroke-linejoin:miter;stroke-opacity:1"
     d="m 108,104 c 3.682,0 5.85256,0.75468 7.09961,1.79883 L 104,128 h -8 v -24 z"
     id="path850"
     inkscape:connector-curvature="0" />
  <rect
     style="opacity:1;vector-effect:none;fill:#56595b;fill-opacity:1;fill-rule:evenodd;stroke:none;stroke-width:8;stroke-linecap:round;stroke-linejoin:round;stroke-miterlimit:4;stroke-dasharray:none;paint-order:stroke fill markers"
     id="rect852"
     width="4"
     height="25.876591"
     x="-104"
     y="112"
     ry="2"
     transform="scale(-1,1)" />
  <rect
     style="opacity:1;vector-effect:none;fill:#b1b5bd;fill-opacity:1;fill-rule:evenodd;stroke:none;stroke-width:8;stroke-linecap:round;stroke-linejoin:round;stroke-miterlimit:4;stroke-dasharray:none;paint-order:stroke fill markers"
     id="rect856"
     width="16"
     height="12"
     x="-132"
     y="116"
     ry="6"
     transform="scale(-1,1)" />
  <rect
     style="opacity:1;vector-effect:none;fill:#56595b;fill-opacity:1;fill-rule:evenodd;stroke:none;stroke-width:8;stroke-linecap:round;stroke-linejoin:round;stroke-miterlimit:4;stroke-dasharray:none;paint-order:stroke fill markers"
     id="rect858"
     width="8"
     height="8"
     x="-128"
     y="116"
     ry="4"
     transform="scale(-1,1)" />
  <rect
     style="opacity:1;vector-effect:none;fill:#ffffff;fill-opacity:1;fill-rule:evenodd;stroke:none;stroke-width:6.85714293;stroke-linecap:round;stroke-linejoin:round;stroke-miterlimit:4;stroke-dasharray:none;paint-order:stroke fill markers"
     id="rect886"
     width="24"
     height="24"
     x="152"
     y="84"
     ry="12" />
  <rect
     style="opacity:1;vector-effect:none;fill:#83868c;fill-opacity:1;fill-rule:evenodd;stroke:none;stroke-width:8;stroke-linecap:round;stroke-linejoin:round;stroke-miterlimit:4;stroke-dasharray:none;paint-order:stroke fill markers"
     id="rect854-6"
     width="40"
     height="19.999985"
     x="56"
     y="112"
     ry="7.9999924" />
  <path
     style="fill:#a0a5af;stroke:none;stroke-width:1px;stroke-linecap:butt;stroke-linejoin:miter;stroke-opacity:1"
     d="m 96,104 v 40 H 84 c 0,0 -4,0 -4,-4 V 125.99998 L 76,112 c 0,0 -4,-8 8,-8 4,0 12,0 12,0 z"
     id="path848-8"
     inkscape:connector-curvature="0"
     sodipodi:nodetypes="cccsccsc" />
  <path
     style="fill:#d2d2d2;stroke:none;stroke-width:1px;stroke-linecap:butt;stroke-linejoin:miter;stroke-opacity:1"
     d="m 84,104 c -3.682,0 -5.85256,0.75468 -7.09961,1.79883 L 88,128 h 8 v -24 z"
     id="path850-2"
     inkscape:connector-curvature="0" />
  <rect
     style="opacity:1;vector-effect:none;fill:#56595b;fill-opacity:1;fill-rule:evenodd;stroke:none;stroke-width:8;stroke-linecap:round;stroke-linejoin:round;stroke-miterlimit:4;stroke-dasharray:none;paint-order:stroke fill markers"
     id="rect852-1"
     width="4"
     height="25.876591"
     x="88"
     y="112"
     ry="2" />
  <rect
     style="opacity:1;vector-effect:none;fill:#b1b5bd;fill-opacity:1;fill-rule:evenodd;stroke:none;stroke-width:8;stroke-linecap:round;stroke-linejoin:round;stroke-miterlimit:4;stroke-dasharray:none;paint-order:stroke fill markers"
     id="rect856-9"
     width="16"
     height="12"
     x="60"
     y="116"
     ry="6" />
  <rect
     style="opacity:1;vector-effect:none;fill:#56595b;fill-opacity:1;fill-rule:evenodd;stroke:none;stroke-width:8;stroke-linecap:round;stroke-linejoin:round;stroke-miterlimit:4;stroke-dasharray:none;paint-order:stroke fill markers"
     id="rect858-3"
     width="8"
     height="8"
     x="64"
     y="116"
     ry="4" />
</svg>
