<?xml version="1.0" encoding="UTF-8" standalone="no"?>
<svg
   xml:space="preserve"
   width="192"
   height="192"
   version="1.1"
   id="svg27"
   sodipodi:docname="xmind.svg"
   inkscape:version="1.2.2 (b0a8486541, 2022-12-01)"
   inkscape:export-filename="xmind.png"
   inkscape:export-xdpi="96"
   inkscape:export-ydpi="96"
   xmlns:inkscape="http://www.inkscape.org/namespaces/inkscape"
   xmlns:sodipodi="http://sodipodi.sourceforge.net/DTD/sodipodi-0.dtd"
   xmlns:xlink="http://www.w3.org/1999/xlink"
   xmlns="http://www.w3.org/2000/svg"
   xmlns:svg="http://www.w3.org/2000/svg"><defs
     id="defs31"><linearGradient
       inkscape:collect="always"
       id="linearGradient8622"><stop
         style="stop-color:#ff837d;stop-opacity:1;"
         offset="0"
         id="stop8618" /><stop
         style="stop-color:#f8c18c;stop-opacity:1;"
         offset="1"
         id="stop8620" /></linearGradient><linearGradient
       id="b-7"
       x1="85.393997"
       x2="98.190002"
       y1="102.736"
       y2="74.017998"
       gradientUnits="userSpaceOnUse"
       gradientTransform="translate(-7.012848e-6)"><stop
         offset=".097"
         style="stop-color:#ff877f"
         id="stop416" /><stop
         offset="1"
         style="stop-color:#fdc394"
         id="stop418" /></linearGradient><linearGradient
       id="c-5"
       x1="94.507004"
       x2="106.449"
       y1="118.243"
       y2="97.769997"
       gradientUnits="userSpaceOnUse"
       gradientTransform="translate(-7.012848e-6)"><stop
         offset=".097"
         style="stop-color:#ff877f"
         id="stop425" /><stop
         offset="1"
         style="stop-color:#fdc394"
         id="stop427" /></linearGradient><linearGradient
       inkscape:collect="always"
       xlink:href="#linearGradient8622"
       id="linearGradient8624"
       x1="62.201015"
       y1="124.27254"
       x2="174.93092"
       y2="29.015776"
       gradientUnits="userSpaceOnUse" /></defs><sodipodi:namedview
     id="namedview29"
     pagecolor="#505050"
     bordercolor="#eeeeee"
     borderopacity="1"
     inkscape:showpageshadow="0"
     inkscape:pageopacity="0"
     inkscape:pagecheckerboard="0"
     inkscape:deskcolor="#d1d1d1"
     showgrid="false"
     inkscape:zoom="2.4583333"
     inkscape:cx="76.067797"
     inkscape:cy="72.61017"
     inkscape:window-width="1884"
     inkscape:window-height="1055"
     inkscape:window-x="36"
     inkscape:window-y="0"
     inkscape:window-maximized="1"
     inkscape:current-layer="svg27" /><linearGradient
     id="a"
     x1="51.278"
     x2="187.775"
     y1="134.879"
     y2="18.857"
     gradientUnits="userSpaceOnUse"><stop
       offset=".097"
       style="stop-color:#ff877f"
       id="stop2" /><stop
       offset="1"
       style="stop-color:#fdc394"
       id="stop4" /></linearGradient><linearGradient
     id="b"
     x1="85.394"
     x2="98.19"
     y1="102.736"
     y2="74.018"
     gradientUnits="userSpaceOnUse"><stop
       offset=".097"
       style="stop-color:#ff877f"
       id="stop11" /><stop
       offset="1"
       style="stop-color:#fdc394"
       id="stop13" /></linearGradient><rect
     style="fill:url(#linearGradient8624);stroke-width:3.413;stroke-linecap:round;stroke-linejoin:round;paint-order:stroke fill markers;fill-opacity:1"
     id="rect405"
     width="152"
     height="152"
     x="20"
     y="20"
     rx="10" /><linearGradient
     id="c"
     x1="94.507"
     x2="106.449"
     y1="118.243"
     y2="97.77"
     gradientUnits="userSpaceOnUse"><stop
       offset=".097"
       style="stop-color:#ff877f"
       id="stop20" /><stop
       offset="1"
       style="stop-color:#fdc394"
       id="stop22" /></linearGradient><path
     fill="#ffffff"
     d="m 96.08833,92.491742 c -3.117181,0 -5.768479,-1.408943 -7.156951,-2.606827 l -0.04518,-0.04024 -26.570861,-23.68521 a 3.7871761,3.7871761 0 1 1 5.040007,-5.654125 l 26.506626,23.628033 c 0.657177,0.514589 2.313886,1.467532 4.249418,-0.02118 L 124.59402,60.505344 a 3.7877701,3.7877701 0 1 1 5.04,5.654125 l -26.57086,23.685916 a 3.6056522,3.6056522 0 0 1 -0.15882,0.133412 c -2.31883,1.850121 -4.677183,2.512945 -6.81601,2.512945 z"
     id="path414"
     style="stroke-width:0.705883" /><path
     fill="url(#b)"
     d="m 90.113027,90.743975 c 0.250589,0.156 0.517413,0.308471 0.801884,0.456001 l 7.195775,-7.087775 c -1.935532,1.488708 -3.592241,0.536471 -4.249418,0.02118 L 93.030443,83.39291 Z"
     opacity="0.71"
     id="path421"
     style="fill:url(#b-7);stroke-width:0.705883" /><path
     fill="#ffffff"
     d="m 95.861036,99.554105 c 3.117886,0 5.768474,1.408235 7.156954,2.606125 0.0148,0.0134 0.0303,0.0261 0.0452,0.0409 l 26.57086,23.68521 a 3.7869126,3.7869126 0 1 1 -5.04,5.65342 l -26.505952,-23.628 c -0.657884,-0.51458 -2.314592,-1.46753 -4.250124,0.0219 L 67.354642,131.5391 a 3.7866778,3.7866778 0 1 1 -5.039301,-5.65342 l 26.570861,-23.68521 c 0.05153,-0.0466 0.104471,-0.0911 0.158824,-0.13412 2.318827,-1.85012 4.676477,-2.512235 6.81601,-2.512235 z"
     id="path423"
     style="stroke-width:0.705883" /><path
     fill="url(#c)"
     d="m 101.83563,101.30046 a 10.767545,10.767545 0 0 0 -0.80259,-0.45529 l -7.195066,7.08777 c 1.935532,-1.48941 3.59224,-0.53718 4.250124,-0.0219 l 0.83153,0.74118 z"
     opacity="0.71"
     id="path430"
     style="fill:url(#c-5);stroke-width:0.705883" /></svg>
