<?xml version="1.0" encoding="UTF-8"?>
<svg id="Layer_1" data-name="Layer 1" xmlns="http://www.w3.org/2000/svg" viewBox="0 0 192 192">
  <defs>
    <style>
      .cls-1 {
        fill: #728dbe;
      }

      .cls-2 {
        fill: #ff837d;
      }

      .cls-3 {
        fill: #f8c18c;
      }
    </style>
  </defs>
  <path class="cls-1" d="m148.27,76.79c-1.23-3.44-3.44-6.4-6.34-8.61l-4.06-2.4-17.41-10.03h0l-24.05-13.9-32.17-18.52c-11.87-6.89-27.13-2.77-34.02,9.1-2.15,3.81-3.32,8.12-3.32,12.49v12.92c.37-3.88,1.85-7.5,4.37-10.46,4.98-5.97,14.27-8,21.65-5.23h0l4.92,2.83h0l79.1,45.7,4.43,2.52.37.18c.43.37.86.8,1.11,1.29.49.74.55,1.6.18,2.4,5.35-5.17,7.69-13.47,5.23-20.3Z"/>
  <path class="cls-2" d="m48.87,147.04V44.93c0-.55.12-1.05.43-1.54,0,0,0-.06.06-.06.55-.86,1.54-1.41,2.52-1.41h.12c.12,0,.25,0,.37.06h.12l.18.06.18.06.06.06h0c-7.44-2.77-16.67-.74-21.65,5.23-2.52,2.89-4.06,6.58-4.37,10.4v89.25c-.06,8.92,4.74,17.16,12.43,21.59,7.69,4.49,17.22,4.49,24.91,0l9.78-5.66c-3.14,1.17-6.52,1.48-9.84.86-7.75-1.35-14.21-8.61-15.38-16.55l.06-.25Z"/>
  <path class="cls-3" d="m152.7,74.4l-10.83-6.27c2.89,2.21,5.11,5.17,6.34,8.61,2.46,6.83.12,15.13-5.17,20.36-.25.49-.55.92-1.05,1.23h-.06q-.06.06-.12.12h0l-.06.06-4.8,2.77-78.86,45.52-4.8,2.83c-.92.55-2.03.55-2.95,0-.68-.37-1.23-1.05-1.41-1.85v-.12c0-.06-.06-.12-.06-.25h-.06c1.23,7.87,7.69,15.01,15.38,16.36,3.32.62,6.7.31,9.84-.86l5.54-3.2,17.9-10.33,21.96-12.67,33.22-19.19c11.93-6.89,15.99-22.08,9.1-34.02-2.21-3.81-5.35-6.95-9.1-9.1h.06Z"/>
</svg>