<?xml version="1.0" encoding="UTF-8"?><svg id="uuid-a2abd3e2-5ca4-4290-bfff-4eda9abb0431" xmlns="http://www.w3.org/2000/svg" width="192" height="192" xmlns:xlink="http://www.w3.org/1999/xlink" viewBox="0 0 192 192"><defs><clipPath id="uuid-0673ded3-aa45-47d6-a494-ba63e5adf5b0"><rect x="20" y="20" width="152" height="152" rx="10" ry="10" fill="none" stroke-width="0"/></clipPath></defs><g id="uuid-43e075ae-da7f-45c7-a4a3-55cf1fd797d9"><g id="uuid-b5cfeda3-97e7-4d66-8e0e-0a625ef52e32"><g clip-path="url(#uuid-0673ded3-aa45-47d6-a494-ba63e5adf5b0)"><rect x="20" y="20" width="152" height="152" rx="10" ry="10" fill="#56595b" stroke-width="0"/></g></g><path d="m117.96,118.22s.07-.47.2-.67l-1.33.02c-7.21-.44-13.11-5.81-13.11-13,0-.29,0-.58.04-.82-.36-1.13-.33-2.34.07-3.46.09-.24.22-.44.33-.67l4.04-7.39,13.26,3.35c2.38.62,4.81-.81,5.43-3.19.6-2.37-.84-4.79-3.21-5.39,0,0,0,0,0,0l-16.57-4.21c-1.95-.51-4.01.37-4.99,2.13l-5.23,9.14,4.99-29.59c.28-2.46-1.5-4.68-3.95-4.95-2.28-.25-4.38,1.25-4.87,3.49l-5.37,31.94-1.51-28.61c-.13-2.45-2.22-4.32-4.67-4.19-.01,0-.02,0-.04,0-2.45.12-4.33,2.2-4.21,4.65,0,0,0,0,0,.01l1.51,28.72-5.17-14.46v-.04c-.86-2.28-3.38-3.45-5.68-2.66-2.29.81-3.51,3.31-2.73,5.61,0,0,7.45,22.62,10.87,30.78,4.79,11.31,11.4,17.74,21.38,17.74,9.03,0,16.19-4.75,20.49-14.28h.02Z" fill="#fff" stroke-width="0"/><path d="m117.96,118.19c1.77-4.1,5.32-13.57,6.52-16.7.86-2.29-.31-4.85-2.6-5.71-.01,0-.03,0-.04-.01-2.31-.89-4.88.29-5.77,2.62l-2.2,5.7-.04.07c-.57,1.44-1.75,2.55-3.22,3.04-2.77,1-5.82-.44-6.81-3.21-.43-1.19-.42-2.49.02-3.67l.27-.49c-1.03,1.84-1.57,3.92-1.55,6.03,0,6.94,5.66,12.04,12.69,12.51.91,0,1.84-.04,2.71-.18h.02Z" fill="#ccc" stroke-width="0"/></g></svg>