<?xml version="1.0" encoding="UTF-8"?><svg id="uuid-be8a0810-0f60-4125-9685-314b1c7f1814" xmlns="http://www.w3.org/2000/svg" width="192" height="192" xmlns:xlink="http://www.w3.org/1999/xlink" viewBox="0 0 192 192"><defs><clipPath id="uuid-0311d8b3-6669-4398-84f0-970489737341"><rect x="20" y="20" width="152" height="152" rx="10" ry="10" fill="none" stroke-width="0"/></clipPath><linearGradient id="uuid-706ca816-e7ec-4e67-b27e-7bfe8b36e549" x1="59.5" y1="98" x2="167.17" y2="98" gradientTransform="translate(0 194) scale(1 -1)" gradientUnits="userSpaceOnUse"><stop offset="0" stop-color="#fff"/><stop offset="1" stop-color="#ababff"/></linearGradient><linearGradient id="uuid-271ce229-d77c-4b26-92b7-58a89ef72748" x1="59.5" y1="88.25" x2="212.45" y2="88.25" gradientTransform="translate(0 194) scale(1 -1)" gradientUnits="userSpaceOnUse"><stop offset="0" stop-color="#fff"/><stop offset="1" stop-color="#ababff"/></linearGradient></defs><g id="uuid-8266b517-3d28-45dd-a1a4-3551e015fb70"><g id="uuid-050f6b31-2f8a-4bff-b6c3-83ec39ac73c6"><g clip-path="url(#uuid-0311d8b3-6669-4398-84f0-970489737341)"><rect x="20" y="20" width="152" height="152" rx="10" ry="10" fill="#ababff" stroke-width="0"/></g></g><path d="m121.85,129.38h-51.73c-1.39,0-2.77-.26-4.06-.78-1.28-.51-2.46-1.26-3.45-2.22-.98-.94-1.76-2.07-2.3-3.32-.54-1.24-.81-2.57-.81-3.92v-24.25c0-2,.46-3.98,1.33-5.78.88-1.82,2.16-3.42,3.73-4.69l23.48-19c4.65-3.74,11.27-3.74,15.92,0l23.48,19c1.57,1.27,2.85,2.87,3.73,4.69.87,1.8,1.32,3.78,1.32,5.78v24.25c0,1.35-.28,2.69-.81,3.93-.54,1.25-1.33,2.38-2.31,3.32-1,.96-2.17,1.71-3.46,2.22-1.29.51-2.68.77-4.07.77h0Z" fill="url(#uuid-706ca816-e7ec-4e67-b27e-7bfe8b36e549)" stroke-width="0"/><path d="m121.85,129.38h-51.73c-1.39,0-2.77-.26-4.06-.78-1.28-.51-2.46-1.26-3.45-2.22-.98-.94-1.76-2.07-2.3-3.32-.54-1.24-.81-2.57-.81-3.92v-24.25c0-2,.46-3.98,1.33-5.78.88-1.82,2.16-3.42,3.73-4.69l1.96-1.59c13.37-2.08,27.05.48,38.77,7.25,7.45,4.32,13.82,10.28,18.62,17.44,3.35,5,5.84,10.52,7.38,16.34-.5.94-1.15,1.8-1.93,2.54-1,.96-2.17,1.71-3.46,2.22-1.29.51-2.68.77-4.07.77h0Z" fill="url(#uuid-271ce229-d77c-4b26-92b7-58a89ef72748)" stroke-width="0"/><path d="m109.69,129.38h-39.57c-2.8,0-5.49-1.06-7.51-2.99-.98-.94-1.76-2.07-2.3-3.32-.54-1.24-.81-2.57-.81-3.91v-11.62c9.01-4.5,19.49-5.04,28.92-1.5,5.46,2.05,10.33,5.43,14.15,9.84,3.38,3.89,5.82,8.51,7.12,13.51Z" fill="#fff" stroke-width="0"/></g></svg>