<?xml version="1.0" encoding="UTF-8"?><svg id="uuid-2cab8d9b-a494-485f-ad3b-d2dfc69f2dbb" xmlns="http://www.w3.org/2000/svg" width="192" height="192" xmlns:xlink="http://www.w3.org/1999/xlink" viewBox="0 0 192 192"><defs><clipPath id="uuid-9727bc47-7dab-434b-b860-857c5b04838b"><circle cx="96" cy="96" r="88" fill="#f9de81" stroke-width="0"/></clipPath></defs><g id="uuid-4e362d13-aefa-4179-8ede-463f0ce835a5"><g id="uuid-515a43d0-2fca-45e4-80e9-39398635cfab"><circle cx="96" cy="96" r="88" fill="#f9de81"/><g clip-path="url(#uuid-9727bc47-7dab-434b-b860-857c5b04838b)"><path d="m137.89,127.07c-1.93-2.21-5.22-2.65-7.62-.96-7.45,5.26-16.5,8.33-26.24,8.33-24.23,0-42.38-18.77-42.38-40.25,0-20.15,16.07-36.63,36.03-36.63,18.8,0,32.41,14.59,32.41,30.39,0,14.8-11.7,26.82-26.07,26.82-13.13,0-22.39-9.94-22.39-20.56,0-9.54,7.37-17.02,16.05-17.02,7.67,0,12.43,5.62,12.43,10.75,0,4.46-3.16,7.16-6.08,7.16-1.03,0-1.4-.22-1.84-.46,1.99-2.48,1.6-6.1-.87-8.09-1.26-1.02-2.9-1.45-4.5-1.2-2.19.37-4.11,1.68-5.24,3.59-.97,1.58-1.48,3.41-1.46,5.27,0,7.56,7.05,12.48,13.91,12.48,10.02,0,17.56-8.75,17.56-18.75,0-13.65-13.23-24.66-28.7-21.88-12.06,2.16-21.09,12.31-22.54,24.47-2.27,19.08,13.4,35.82,33.71,35.82s37.55-17.48,37.55-38.41c0-22.5-19.07-41.95-43.92-41.95-26.47,0-47.54,21.8-47.54,48.22,0,28.17,23.66,51.78,53.92,51.78,12.15,0,23.46-3.84,32.76-10.37,2.83-1.99,3.35-5.96,1.08-8.56h0Z" fill="#56595b" stroke-width="0"/></g></g></g></svg>