<?xml version="1.0" encoding="UTF-8"?><svg id="uuid-47ae42c2-ec42-4f57-9b95-d0fc4de397ea" xmlns="http://www.w3.org/2000/svg" width="192" height="192" viewBox="0 0 192 192"><g id="uuid-8310b081-eb9a-4c8a-899d-bcf86d4e1970"><g id="uuid-eee176ac-bae6-4c68-a7b0-72e98e9692a8"><path d="m43.61,24.97c13.03-9.67,28.42-15.52,44.47-16.97v26.61c-10.37,1.35-20.28,5.33-28.75,11.62-10.61,7.88-18.41,18.97-22.26,31.63-3.84,12.66-3.53,26.22.91,38.69,4.43,12.47,12.75,23.17,23.72,30.54,10.97,7.37,24.01,11.01,37.2,10.39,13.19-.62,25.83-5.47,36.07-13.84,10.23-8.37,17.5-19.81,20.75-32.64,2.27-8.95,2.49-18.24.71-27.19l22.3-17.96-.02-.14c6.02,16.59,6.94,34.64,2.59,51.81-4.64,18.32-15.03,34.67-29.65,46.63-14.61,11.95-32.68,18.89-51.52,19.77-18.85.89-37.48-4.32-53.15-14.85-15.67-10.53-27.55-25.83-33.88-43.63-6.33-17.81-6.79-37.18-1.3-55.27,5.49-18.09,16.64-33.92,31.8-45.18Z" fill="#f9de81" stroke-width="0"/><path d="m161.91,37.39l.09.23-14.9,23.72c-5.42-8.05-12.68-14.74-21.18-19.48v53.97c0,16.56-13.4,29.98-29.92,29.98s-29.92-13.42-29.92-29.98,13.4-29.98,29.92-29.98c6.19,0,11.95,1.89,16.72,5.11V9.23c19.43,3.74,36.58,13.89,49.19,28.16Z" fill="#ff837d" stroke-width="0"/></g></g></svg>