<?xml version="1.0" encoding="UTF-8" standalone="no"?>
<svg
   id="uuid-7e1916b4-0c1f-45aa-8b06-32c71a84ea9c"
   width="192"
   height="192"
   viewBox="0 0 192 192"
   version="1.1"
   sodipodi:docname="yandex_eats_vendor.svg"
   inkscape:version="1.2.2 (b0a8486541, 2022-12-01)"
   inkscape:export-filename="yandex_eats_vendor.png"
   inkscape:export-xdpi="96"
   inkscape:export-ydpi="96"
   xmlns:inkscape="http://www.inkscape.org/namespaces/inkscape"
   xmlns:sodipodi="http://sodipodi.sourceforge.net/DTD/sodipodi-0.dtd"
   xmlns="http://www.w3.org/2000/svg"
   xmlns:svg="http://www.w3.org/2000/svg">
  <sodipodi:namedview
     id="namedview463"
     pagecolor="#505050"
     bordercolor="#eeeeee"
     borderopacity="1"
     inkscape:showpageshadow="0"
     inkscape:pageopacity="0"
     inkscape:pagecheckerboard="0"
     inkscape:deskcolor="#d1d1d1"
     showgrid="false"
     inkscape:zoom="1.2291667"
     inkscape:cx="96"
     inkscape:cy="96.40678"
     inkscape:window-width="1884"
     inkscape:window-height="1055"
     inkscape:window-x="36"
     inkscape:window-y="0"
     inkscape:window-maximized="1"
     inkscape:current-layer="uuid-7e1916b4-0c1f-45aa-8b06-32c71a84ea9c" />
  <defs
     id="defs452" />
  <circle
     cx="96"
     cy="96"
     r="88"
     fill="#56595b"
     id="circle454" />
  <path
     d="m 129.7085,122.418 c -1.6405,-1.8785 -4.437,-2.2525 -6.477,-0.816 -6.3325,4.471 -14.025,7.0805 -22.304,7.0805 -20.5955,0 -36.023,-15.9545 -36.023,-34.2125 0,-17.1275 13.6595,-31.1355 30.6255,-31.1355 15.98,0 27.5485,12.4015 27.5485,25.8315 0,12.58 -9.945,22.797 -22.1595,22.797 -11.1605,0 -19.0315,-8.449 -19.0315,-17.476 0,-8.109 6.2645,-14.467 13.6425,-14.467 6.5195,0 10.5655,4.777 10.5655,9.1375 0,3.791 -2.686,6.086 -5.168,6.086 -0.8755,0 -1.19,-0.187 -1.564,-0.391 1.6915,-2.108 1.36,-5.185 -0.7395,-6.8765 -1.071,-0.867 -2.465,-1.2325 -3.825,-1.02 -1.8615,0.3145 -3.4935,1.428 -4.454,3.0515 -0.8245,1.343 -1.258,2.8985 -1.241,4.4795 0,6.426 5.9925,10.608 11.8235,10.608 8.517,0 14.926,-7.4375 14.926,-15.9375 0,-11.6025 -11.2455,-20.961 -24.395,-18.598 -10.251,1.836 -17.9265,10.4635 -19.159,20.7995 -1.9295,16.218 11.39,30.447 28.6535,30.447 17.2635,0 31.9175,-14.858 31.9175,-32.6485 0,-19.125 -16.2095,-35.6575 -37.332,-35.6575 -22.4995,0 -40.409,18.53 -40.409,40.987 0,23.9445 20.111,44.013 45.832,44.013 10.3275,0 19.941,-3.264 27.846,-8.8145 2.4055,-1.6915 2.8475,-5.066 0.918,-7.276 v 0 z"
     fill="#ffffff"
     stroke-width="0"
     id="path456" />
</svg>
