<?xml version="1.0" encoding="UTF-8"?><svg id="uuid-79638a39-807b-4303-aada-6b2a887903b6" xmlns="http://www.w3.org/2000/svg" width="192" height="192" viewBox="0 0 192 192"><g id="uuid-6e688ea3-f98b-4046-8801-ea40396d9cbb"><g id="uuid-e8e26ecd-287d-481f-8d76-f07994db3fff"><path d="m95.58,109.54c-13.81,0-64.49,0-64.49,51.51,5.09-2.91,14.12-8.15,24.2-13.5,11.27-5.92,24.82-11.73,40.34-11.73s29.8,5.82,41.07,11.73c10.07,5.35,19.11,10.59,24.2,13.5,0-49.9-51.51-51.51-65.32-51.51Z" fill="#f9de81" stroke-width="0"/><path d="m181.17,139.56L108.06,34.98c-4.76-6.85-14.18-8.55-21.03-3.79-1.48,1.03-2.76,2.31-3.79,3.79L10.14,139.56c-4.29,7.22-1.91,16.56,5.31,20.85,6.45,3.83,14.74,2.39,19.51-3.4,21.55-30.79,40.45-44.39,60.7-44.39s39.15,13.6,60.59,44.39c4.75,6.86,14.17,8.57,21.03,3.81.04-.02.07-.05.11-.08,6.89-4.66,8.69-14.02,4.03-20.91-.06-.09-.13-.18-.19-.28h-.05Z" fill="#f8c18c" stroke-width="0"/></g></g></svg>