<?xml version="1.0" encoding="UTF-8"?><svg id="uuid-9f2058ae-76d0-4df7-839a-b6309a4d3a7c" xmlns="http://www.w3.org/2000/svg" width="192" height="192" viewBox="0 0 192 192"><g id="uuid-9ca8d3c8-7b5c-49fa-8b0a-668cf93c1304"><g id="uuid-91e263a9-cf08-460b-9f6d-cc8e06b0e406"><path d="m64.42,130.53c-31.21,0-56.42-25.11-56.42-56.11s25.26-56.06,56.42-56.06,56.32,25.11,56.32,56.06-25.21,56.11-56.37,56.11h.05Zm-14.08-52.54c9.69.76,18.16-6.48,18.92-16.17.76-9.69-6.48-18.16-16.17-18.92-.9-.07-1.8-.07-2.7,0-9.69.73-16.96,9.18-16.23,18.87.65,8.66,7.52,15.55,16.18,16.22Z" fill="#f9de81" stroke-width="0"/><path d="m180.01,173.54l-3.99-7.97-56.01-55.7-16.05,15.94,48.09,47.83,28-.1h-.05Z" fill="#c39a54" stroke-width="0"/><path d="m180.01,173.54l3.99-15.94-84.01-83.5-27.95,31.78,27.95,27.85,20.03-19.88,60,59.68Z" fill="#f9de81" stroke-width="0"/></g></g></svg>