<?xml version="1.0" encoding="UTF-8"?>
<svg version="1.1" viewBox="0 0 192 192" xmlns="http://www.w3.org/2000/svg">
 <rect class="a" x="20" y="20" width="152" height="152" rx="10" style="fill:#ff837d"/>
 <path d="m61.27 55.723h30.467v33.546s0.16332 4.2945 4.2945 4.2945c4.8466 0 4.7807-4.7807 4.7807-4.7807v-25.767c8.3513 5.1098 14.563 2.733 18.637-7.1305 3.431 4.3801 7.3204 6.1627 11.668 5.3479v50.562c-0.9141 14.924-9.7733 22.973-26.577 24.147-11.117 0.82564-21.165 0.12339-30.143-2.1068v-18.637c17.685 3.9725 26.815 3.9725 27.388 0v-11.992s-15.687 10.773-28.869 3.1625c-15.324-8.8476-11.645-50.645-11.645-50.645z" style="fill:#fff;stroke-linecap:round;stroke-linejoin:round;stroke-width:16.595"/>
</svg>
