<?xml version="1.0" encoding="UTF-8" standalone="no"?>
<svg
   xmlns:dc="http://purl.org/dc/elements/1.1/"
   xmlns:cc="http://creativecommons.org/ns#"
   xmlns:rdf="http://www.w3.org/1999/02/22-rdf-syntax-ns#"
   xmlns:svg="http://www.w3.org/2000/svg"
   xmlns="http://www.w3.org/2000/svg"
   xmlns:sodipodi="http://sodipodi.sourceforge.net/DTD/sodipodi-0.dtd"
   xmlns:inkscape="http://www.inkscape.org/namespaces/inkscape"
   viewBox="0 0 192 192"
   version="1.1"
   id="svg16"
   sodipodi:docname="yoodo.svg"
   inkscape:version="0.92.4 (5da689c313, 2019-01-14)">
  <metadata
     id="metadata20">
    <rdf:RDF>
      <cc:Work
         rdf:about="">
        <dc:format>image/svg+xml</dc:format>
        <dc:type
           rdf:resource="http://purl.org/dc/dcmitype/StillImage" />
        <dc:title></dc:title>
      </cc:Work>
    </rdf:RDF>
  </metadata>
  <sodipodi:namedview
     pagecolor="#ffffff"
     bordercolor="#666666"
     borderopacity="1"
     objecttolerance="10"
     gridtolerance="10"
     guidetolerance="10"
     inkscape:pageopacity="0"
     inkscape:pageshadow="2"
     inkscape:window-width="1920"
     inkscape:window-height="1017"
     id="namedview18"
     showgrid="true"
     inkscape:zoom="5.8939376"
     inkscape:cx="106.46682"
     inkscape:cy="100.6185"
     inkscape:window-x="-8"
     inkscape:window-y="-8"
     inkscape:window-maximized="1"
     inkscape:current-layer="svg16"
     inkscape:snap-global="false">
    <inkscape:grid
       type="xygrid"
       id="grid827"
       spacingx="4"
       spacingy="4" />
  </sodipodi:namedview>
  <defs
     id="defs4">
    <style
       id="style2">.a{fill:none;stroke:#b1b5bd;stroke-linecap:round;stroke-linejoin:round;isolation:isolate;opacity:0.63;}</style>
  </defs>
  <rect
     class="a"
     x="20"
     y="20"
     width="152"
     height="152"
     rx="10"
     id="rect6"
     style="fill:#ff837d;stroke:none;opacity:1" />
  <path
     style="fill:#ffffff;stroke:none;stroke-width:0.70472926px;stroke-linecap:butt;stroke-linejoin:miter;stroke-opacity:1"
     d="m 102.76999,88.805377 4.30446,-25.826795 c 0,0 1.22954,-7.645633 8.0111,-7.174109 6.68767,0.464997 5.261,8.130657 5.261,8.130657 l -8.48936,52.61014 c 0,0 -4.01724,21.58235 -23.913696,20.44621 -17.971869,-1.02624 -16.859157,-18.29398 -16.859157,-18.29398 0,0 -0.327124,-9.34811 8.130657,-8.96764 5.447083,0.24504 5.739288,6.21757 5.739288,6.21757 0,0 -0.798478,7.17554 5.021877,7.29367 7.410777,0.15042 8.250225,-8.01109 8.250225,-8.01109 l 1.315251,-7.65238 c 0,0 -4.194006,1.36306 -6.337127,1.19568 C 73.940935,107.26882 75.747507,90.479337 75.747507,90.479337 l 2.869645,-17.696138 c 0,0 2.273476,-6.820722 7.771952,-6.33713 7.890293,0.693952 5.380582,8.7285 5.380582,8.7285 l -2.271802,13.152534 c 0,0 -1.268896,6.207389 4.78274,6.695836 7.207756,0.581761 8.489366,-6.217562 8.489366,-6.217562 z"
     id="path829"
     inkscape:connector-curvature="0"
     sodipodi:nodetypes="ccsccscscsccsccsccsc" />
</svg>
