<svg xmlns="http://www.w3.org/2000/svg" viewBox="0 0 192 192"><path d="M180 46.7c-9.29-10.78-36-22.58-68.31-29.77s-61.6-7.19-74.43-1.54C33.15 16.93 28.53 21 27 28.74a17.14 17.14 0 0 0 3.6 15.91c3.59 4.1 9.24 7.7 16.42 11.8C32.64 59 21.35 62.61 15.19 67.23A18.79 18.79 0 0 0 8 82.12v69.29a18.79 18.79 0 0 0 7.19 14.89c11.29 8.21 39.52 14.37 72.88 14.37s61.6-6.16 72.89-14.37c3.59-2.57 7.19-7.19 7.19-14.89V82.12a14 14 0 0 0-.52-4.62 15.63 15.63 0 0 0 5.14-2A18.2 18.2 0 0 0 183 62.61a15.54 15.54 0 0 0-3-15.91Z" style="fill:#98dc9a"/><ellipse cx="105.54" cy="43.49" rx="15.91" ry="65.19" style="fill:#f9de81" transform="rotate(-77.68 105.539 43.491)"/><path d="M34.69 140.12c-7.18 2.57-11.29 5.65-11.29 9.24 0 8.72 28.74 15.91 65.19 15.91 35.93 0 65.19-7.19 65.19-15.91 0-3.59-4.11-6.67-11.3-9.24-13.86 4.11-32.85 6.16-53.89 6.16s-40.04-2.05-53.9-6.16Zm0-34.39c-7.18 2.57-11.29 5.65-11.29 8.73 0 8.72 29.26 15.91 65.19 15.91s65.19-7.19 65.19-15.91c0-3.6-4.11-6.68-11.3-9.24-13.86 4.1-32.85 6.16-53.89 6.16-21.05.51-40.04-2.06-53.9-5.65Zm64.16-31.31a259 259 0 0 1-33.36-9.75C40.85 67.23 23.4 72.88 23.4 80.06 23.4 88.79 52.66 96 88.59 96s65.19-7.19 65.19-15.92c-14.89.5-33.88-1.08-54.93-5.66Z" style="fill:#fff"/></svg>