<?xml version="1.0" encoding="UTF-8" standalone="no"?>
<svg
   xml:space="preserve"
   width="192"
   height="192"
   version="1.1"
   id="svg12"
   sodipodi:docname="zapp.svg"
   inkscape:version="1.2.2 (b0a8486541, 2022-12-01)"
   inkscape:export-filename="zapp.png"
   inkscape:export-xdpi="96"
   inkscape:export-ydpi="96"
   xmlns:inkscape="http://www.inkscape.org/namespaces/inkscape"
   xmlns:sodipodi="http://sodipodi.sourceforge.net/DTD/sodipodi-0.dtd"
   xmlns="http://www.w3.org/2000/svg"
   xmlns:svg="http://www.w3.org/2000/svg"><defs
     id="defs16" /><sodipodi:namedview
     id="namedview14"
     pagecolor="#505050"
     bordercolor="#eeeeee"
     borderopacity="1"
     inkscape:showpageshadow="0"
     inkscape:pageopacity="0"
     inkscape:pagecheckerboard="0"
     inkscape:deskcolor="#d1d1d1"
     showgrid="false"
     inkscape:zoom="1.7383042"
     inkscape:cx="-9.7796463"
     inkscape:cy="61.266608"
     inkscape:window-width="1884"
     inkscape:window-height="1055"
     inkscape:window-x="36"
     inkscape:window-y="0"
     inkscape:window-maximized="1"
     inkscape:current-layer="svg12" /><circle
     cx="96"
     cy="96"
     r="88"
     opacity=".63"
     style="fill:#ffb0ac;opacity:1;fill-opacity:1"
     id="circle2" /><path
     d="m 80.354999,59.500784 a 3.9028475,3.9028475 0 0 0 -3.902848,3.902848 3.9028475,3.9028475 0 0 0 3.902848,3.902847 3.9028475,3.9028475 0 0 0 0.586316,-0.0469 l 4.56761,7.504854 -12.016662,1.233287 c -5.91816,0.606534 -10.267417,5.868828 -9.752267,11.795883 l 1.983772,22.805697 c 0.452879,5.19598 4.488356,9.12713 9.464365,9.60913 l -2.663091,6.69533 a 4.0435636,4.0435636 0 1 0 7.51375,2.98819 l 4.133331,-10.39196 28.957577,-2.97282 7.32613,10.75345 a 4.0435636,4.0435636 0 1 0 6.6832,-4.55305 l -5.23318,-7.68277 c 4.08966,-1.86491 6.76488,-6.15026 6.35405,-10.86668 l -1.98539,-22.805696 a 10.515691,10.515691 0 0 0 -11.6123,-9.602654 l -17.904091,1.839012 1.547876,-6.016822 a 3.9028475,3.9028475 0 0 0 3.260725,-3.849473 3.9028475,3.9028475 0 0 0 -3.902843,-3.902847 3.9028475,3.9028475 0 0 0 -3.903657,3.903656 3.9028475,3.9028475 0 0 0 1.4201,3.008411 l -1.851952,7.208865 -4.255446,0.436705 -5.424037,-8.909588 a 3.9028475,3.9028475 0 0 0 0.608961,-2.084861 3.9028475,3.9028475 0 0 0 -3.902847,-3.902848 z m 34.859561,21.628213 a 1.8341604,1.8341604 0 0 1 2.02501,1.674035 l 1.91585,22.029328 a 1.9037097,1.9037097 0 0 1 -1.69992,2.05656 l -40.163905,4.12282 a 1.8317343,1.8317343 0 0 1 -2.023399,-1.67323 L 73.351547,87.308371 a 1.9020923,1.9020923 0 0 1 1.698296,-2.055748 l 40.164717,-4.124435 z"
     style="fill:#ffffff;stroke-width:0.808713;paint-order:stroke fill markers"
     id="path4" /></svg>
