<?xml version="1.0" encoding="UTF-8" standalone="no"?>
<svg
   width="192"
   height="192"
   version="1.1"
   id="svg251"
   sodipodi:docname="zattoo.svg"
   inkscape:version="1.2.2 (b0a8486541, 2022-12-01)"
   inkscape:export-filename="zattoo.png"
   inkscape:export-xdpi="96"
   inkscape:export-ydpi="96"
   xmlns:inkscape="http://www.inkscape.org/namespaces/inkscape"
   xmlns:sodipodi="http://sodipodi.sourceforge.net/DTD/sodipodi-0.dtd"
   xmlns="http://www.w3.org/2000/svg"
   xmlns:svg="http://www.w3.org/2000/svg">
  <defs
     id="defs255" />
  <sodipodi:namedview
     id="namedview253"
     pagecolor="#505050"
     bordercolor="#eeeeee"
     borderopacity="1"
     inkscape:showpageshadow="0"
     inkscape:pageopacity="0"
     inkscape:pagecheckerboard="0"
     inkscape:deskcolor="#d1d1d1"
     showgrid="false"
     inkscape:zoom="1.7383042"
     inkscape:cx="-8.0538264"
     inkscape:cy="80.250627"
     inkscape:window-width="1884"
     inkscape:window-height="1055"
     inkscape:window-x="36"
     inkscape:window-y="0"
     inkscape:window-maximized="1"
     inkscape:current-layer="svg251" />
  <rect
     width="152"
     height="152"
     x="20"
     y="20"
     fill="#56595b"
     rx="9.935"
     id="rect243" />
  <g
     id="g431"
     transform="matrix(0.57906047,0,0,0.57906047,40.409584,40.410055)">
    <path
       fill="#f8c18c"
       d="m 101.74,62.12 c 4.1,0.5 7.8,1.2 11.3,2.3 16.6,5.6 28.8,16.1 33.9,33.1 5.3,17.8 0.5,33.5 -12.7,46.4 -11.9,11.6 -26.6,16.2 -43.2,14.9 -14.1,-1.1 -26.1,-6.7 -35.7,-17.1 -18.2,-19.7 -16.1,-49.6 4.6,-67 6.2,-5.2 13.2,-8.8 21,-10.9 0.4,-0.1 0.7,-0.2 1.2,-0.4 -2.8,-3.5 -5.5,-6.9 -8.3,-10.3 -1.6,-2 -3.3,-4.1 -4.9,-6.1 -1.3,-1.6 -1.2,-2.3 0.5,-3.7 1.8,-1.5 2.6,-1.5 3.8,0.1 4.8,5.9 9.5,11.8 14.2,17.7 0.6,0.8 1.3,1 2.3,1.1 3.7,0.3 5.8,-1.5 8,-4.3 5.9,-7.9 12.2,-15.6 18.3,-23.4 1.6,-2 2.6,-2.4 5.3,0.8 0.4,1 -0.1,1.7 -0.7,2.4 -5.8,7.4 -11.7,14.8 -17.5,22.3 -0.3,0.6 -0.7,1.2 -1.4,2.1 z m -25.5,71.5 c 0.6,0.4 1.3,0.3 2,0.4 11.5,2 23,3.1 34.7,2.3 5.9,-0.4 8.8,-2.8 9.9,-8.5 2,-9.5 2,-19.1 1.3,-28.8 -0.1,-1 -0.1,-2.1 -0.5,-3 0.2,-1.8 -0.2,-3.5 -0.5,-5.3 -0.9,-4.3 -3.5,-7 -7.7,-8.1 -1.9,-0.5 -3.8,-0.5 -5.7,-0.5 -7.6,-0.2 -15.1,0.4 -22.6,1.5 -6.6,1 -13.2,2.3 -19.6,4.4 -4,1.3 -6.5,4.1 -7.4,8.1 -0.3,1.6 -0.5,3.2 -0.6,4.9 -0.5,7.5 -0.5,14.9 1,22.3 0.9,4.3 3.4,7.3 7.8,8.5 2.6,0.6 5.2,1.4 7.9,1.8 z"
       class="st1"
       id="path245" />
    <path
       fill="#56595b"
       d="m 123.75,95.901 c 0.331,1.018 0.37,1.949 0.44,2.977 0.706,9.774 0.553,19.651 -1.364,29.323 -1.21,5.804 -4.136,8.247 -9.988,8.655 -11.804,0.916 -23.407,-0.306 -35.009,-2.342 -0.47,-0.113 -0.76,-0.126 -2.018,-0.408 -2.623,-1.425 -4.439,-3.563 -4.943,-6.72 -1.21,-7.94 -1.312,-15.78 -0.202,-23.721 0.303,-2.138 1.513,-3.462 3.33,-4.277 a 11.453,11.453 0 0 1 2.623,-0.916 c 8.374,-2.545 16.95,-3.97 25.626,-4.785 5.75,-0.51 11.502,-0.713 17.353,-0.102 1.614,0.204 3.143,0.993 4.152,2.317 z"
       class="st0"
       id="path247" />
    <path
       fill="#fcecdc"
       d="m 123.75,95.901 c -1.01,-1.321 -2.426,-2.032 -4.043,-2.235 -5.761,-0.61 -11.522,-0.407 -17.385,0.101 -8.692,0.813 -17.284,2.236 -25.673,4.776 -0.91,0.305 -1.82,0.61 -2.628,0.914 -1.82,0.813 -3.032,2.236 -3.335,4.268 -1.112,7.926 -1.01,15.851 0.202,23.675 0.505,3.048 2.325,5.182 4.952,6.706 -2.728,-0.508 -5.356,-1.22 -7.984,-1.93 -4.346,-1.22 -6.974,-4.166 -7.884,-8.637 -1.516,-7.52 -1.516,-15.038 -1.01,-22.66 0.1,-1.625 0.202,-3.352 0.606,-4.978 0.91,-4.166 3.335,-6.91 7.48,-8.23 6.468,-2.134 13.138,-3.455 19.81,-4.471 7.58,-1.118 15.16,-1.728 22.842,-1.525 1.92,0.102 3.942,0 5.761,0.508 4.245,1.118 6.873,3.862 7.783,8.23 0.303,1.931 0.707,3.659 0.505,5.488 z"
       class="st2"
       id="path249" />
  </g>
</svg>
