<?xml version="1.0" encoding="UTF-8" standalone="no"?>
<svg
   version="1.1"
   viewBox="0 0 192 192"
   id="svg6"
   sodipodi:docname="zen_com.svg"
   inkscape:version="1.2.2 (b0a8486541, 2022-12-01)"
   inkscape:export-filename="zen_com.png"
   inkscape:export-xdpi="96"
   inkscape:export-ydpi="96"
   xmlns:inkscape="http://www.inkscape.org/namespaces/inkscape"
   xmlns:sodipodi="http://sodipodi.sourceforge.net/DTD/sodipodi-0.dtd"
   xmlns="http://www.w3.org/2000/svg"
   xmlns:svg="http://www.w3.org/2000/svg">
  <defs
     id="defs10" />
  <sodipodi:namedview
     id="namedview8"
     pagecolor="#505050"
     bordercolor="#eeeeee"
     borderopacity="1"
     inkscape:showpageshadow="0"
     inkscape:pageopacity="0"
     inkscape:pagecheckerboard="0"
     inkscape:deskcolor="#d1d1d1"
     showgrid="false"
     inkscape:zoom="0.86915209"
     inkscape:cx="44.871318"
     inkscape:cy="76.511351"
     inkscape:window-width="1884"
     inkscape:window-height="1055"
     inkscape:window-x="36"
     inkscape:window-y="0"
     inkscape:window-maximized="1"
     inkscape:current-layer="svg6" />
  <rect
     class="a"
     x="20"
     y="20"
     width="152"
     height="152"
     rx="10"
     style="fill:#fff"
     id="rect2" />
  <path
     d="M 90.655794,132.24167 C 75.971712,129.92621 63.987917,118.9348 60.384996,104.47743 c -1.095342,-4.39431 -1.105663,-12.571731 -0.02131,-16.916555 1.675583,-6.712735 4.967277,-12.534511 9.844376,-17.412286 4.885811,-4.885812 10.737703,-8.191211 17.412286,-9.834224 3.805866,-0.937064 12.244349,-1.110569 13.794142,-0.283665 1.79012,0.954913 2.5047,3.592769 1.40031,5.169375 -0.98994,1.413337 -2.42096,1.894008 -4.860523,1.632777 -3.190434,-0.341664 -5.537873,0.06201 -6.613082,1.137133 -0.760107,0.760107 -0.889352,1.200579 -0.889352,3.031648 0,2.739962 -0.5278,3.489394 -3.34905,4.755196 -2.888597,1.296003 -4.405394,2.34837 -6.871606,4.767293 -2.505802,2.457752 -4.09459,5.033515 -5.336113,8.650733 -0.80968,2.359114 -0.959059,3.377052 -0.972087,6.624756 -0.02616,6.496849 1.867953,11.027019 6.567062,15.705999 4.396258,4.37748 9.398557,6.44592 15.589254,6.44592 6.062277,0 11.133617,-2.11074 15.497897,-6.44973 3.93073,-3.90856 6.22825,-8.56867 6.507,-13.19774 0.10017,-1.663654 0.0868,-1.687172 -1.22342,-2.144833 -5.89986,-2.060915 -8.74041,-8.596592 -6.21583,-14.303403 1.57957,-3.570859 5.43949,-6.114645 9.27844,-6.114645 3.30675,0 5.24923,0.827885 7.71155,3.286618 3.48813,3.48305 4.78861,8.067025 4.80765,16.946166 0.01,4.441687 -0.12617,5.959917 -0.76005,8.502687 -3.27748,13.14868 -13.56235,23.58184 -26.57906,26.96058 -3.74208,0.9715 -10.867978,1.36774 -14.447212,0.80328 z M 107.65441,69.828818 c -1.40124,-0.854414 -1.85366,-1.697916 -1.85366,-3.456064 0,-3.108799 3.78362,-4.712475 6.24061,-2.645046 2.05779,1.7315 1.61493,5.073021 -0.82594,6.231218 -1.51308,0.717987 -2.21192,0.692448 -3.56097,-0.1301 z"
     style="fill:#56595b;stroke-width:0.348846"
     id="path4" />
</svg>
