<?xml version="1.0" encoding="UTF-8"?>
<svg version="1.1" viewBox="0 0 192 192" xmlns="http://www.w3.org/2000/svg">
 <rect class="a" x="20" y="20" width="152" height="152" rx="10" style="fill:#fff"/>
 <path d="m89.683 138.84c-17.358-2.7371-31.524-15.73-35.783-32.82-1.2948-5.1945-1.307-14.861-0.02519-19.997 1.9807-7.9351 5.8718-14.817 11.637-20.583 5.7755-5.7755 12.693-9.6828 20.583-11.625 4.4989-1.1077 14.474-1.3128 16.306-0.33532 2.1161 1.1288 2.9608 4.247 1.6553 6.1107-1.1702 1.6707-2.8618 2.2389-5.7456 1.9301-3.7714-0.40388-6.5463 0.0733-7.8173 1.3442-0.89852 0.89852-1.0513 1.4192-1.0513 3.5837 0 3.2389-0.62391 4.1248-3.9589 5.6211-3.4146 1.532-5.2076 2.776-8.1229 5.6354-2.9621 2.9053-4.8402 5.9501-6.3078 10.226-0.95712 2.7887-1.1337 3.992-1.1491 7.8311-0.03092 7.6799 2.2081 13.035 7.7629 18.566 5.1968 5.1746 11.11 7.6197 18.428 7.6197 7.1662 0 13.161-2.4951 18.32-7.6242 4.6465-4.6203 7.3624-10.129 7.6919-15.601 0.11842-1.9666 0.10256-1.9944-1.4462-2.5354-6.9742-2.4362-10.332-10.162-7.3477-16.908 1.8672-4.2211 6.43-7.2281 10.968-7.2281 3.9089 0 6.2051 0.97864 9.1158 3.8851 4.1233 4.1173 5.6606 9.536 5.6831 20.032 0.0113 5.2505-0.14914 7.0452-0.89845 10.051-3.8743 15.543-16.032 27.876-31.419 31.87-4.4235 1.1484-12.847 1.6168-17.078 0.94955zm20.094-73.778c-1.6564-1.01-2.1912-2.0071-2.1912-4.0854 0-3.6749 4.4726-5.5706 7.377-3.1267 2.4325 2.0468 1.909 5.9968-0.97635 7.3659-1.7886 0.84873-2.6147 0.81854-4.2094-0.15379z" style="fill:#56595b;stroke-width:.41237"/>
</svg>
