<svg xmlns="http://www.w3.org/2000/svg" id="svg2" width="192" height="192" version="1.1"><defs id="defs4"><style id="style909">.cls-1{fill:#0bf;fill-rule:evenodd}.st0{fill:#fff}</style></defs><g id="layer1" transform="translate(0 -860.362)"><path id="path975" d="M93.483 1044.362h4.937a12.77 12.77 0 0 0 12.78-12.779v-22.17H80.703v22.17a12.77 12.77 0 0 0 12.779 12.78z" style="fill:#d3b69a;fill-opacity:1;stroke-width:.968095"/><path id="path977" d="M96 868.362c-29.43 0-53.245 20.62-53.245 46.179v63.313l76.189-104.942A59.509 59.509 0 0 0 96 868.362z" style="fill:#f9de81;fill-opacity:1;stroke-width:.968095"/><path id="path979" d="M80.704 1009.414h56.15a12.334 12.334 0 0 0 12.294-12.392v-81.9z" style="fill:#97db99;fill-opacity:1;stroke-width:.968095"/><path id="path981" d="M149.245 914.54c0-18.393-12.391-34.173-30.301-41.628l-76.19 104.845v19.168a12.334 12.334 0 0 0 12.296 12.392h25.654l68.541-94.292Z" style="fill:#ffb0ac;fill-opacity:1;stroke-width:.968095"/></g></svg>