<svg xmlns="http://www.w3.org/2000/svg" viewBox="0 0 192 192"><defs><linearGradient id="a" x1="18.52" x2="173.48" y1="96" y2="96" gradientTransform="rotate(45 95.995 96.002)" gradientUnits="userSpaceOnUse"><stop offset="0" stop-color="#ababff"/><stop offset="1" stop-color="#bd9aff"/></linearGradient></defs><ellipse cx="96" cy="96" fill="url(#a)" rx="65.27" ry="88" transform="rotate(-45 96.002 95.995)"/><path fill="#fff" d="M110.93 111.61H93.25L116 79.75a8.35 8.35 0 0 0 1.4-4.8 9.05 9.05 0 0 0-9-9H81.5a7.14 7.14 0 1 0 0 14.28H98l-22.74 32a8.35 8.35 0 0 0-1.4 4.8 9.06 9.06 0 0 0 9.05 9h28a7.2 7.2 0 1 0 0-14.39Z"/></svg>