<?xml version="1.0" encoding="UTF-8"?>
<svg version="1.1" viewBox="0 0 192 192" xmlns="http://www.w3.org/2000/svg">
 <rect class="a" x="20" y="20" width="152" height="152" rx="10" style="fill:#ff837d"/>
 <path d="m85.613 128.21c-4.1206-3.4501-7.6724-6.61-7.8929-7.0219-0.22045-0.41191-0.40082-3.5718-0.40082-7.0221 0-7.0364 0.20524-7.7856 2.6422-9.6444l1.4844-1.1322-1.8489-1.722c-1.0169-0.94712-1.9526-2.1394-2.0795-2.6495-0.12683-0.51013-0.17813-3.0043-0.11401-5.5426 0.09559-3.7842 0.22849-4.6365 0.73819-4.7341 0.5007-0.0959 4.1796 2.7573 10.045 7.7903 0.5313 0.4559 0.84286 0.35402 2.1091-0.6897 0.81713-0.67354 1.4857-1.3687 1.4857-1.5448 0-0.17608-3.0743-2.8885-6.8318-6.0277-3.7575-3.1392-7.0162-6.0521-7.2416-6.4732-0.24232-0.45277-0.36445-3.27-0.29885-6.8938 0.09809-5.4184 0.19078-6.1434 0.80038-6.2604 0.70793-0.13588 14.019 10.682 15.57 12.654 0.73995 0.9407 0.81391 1.6157 0.81391 7.4282 0 6.9302-0.25368 8.0038-2.2319 9.4448l-1.0492 0.76428 3.2811 3.2811v5.2268c0 4.2181-0.11349 5.2703-0.58808 5.4524-0.58428 0.22421-2.8027-1.4018-7.6566-5.6119l-2.4197-2.0987-4.1214 3.4225 6.4727 5.3885c9.3013 7.7433 8.3525 6.1522 8.2223 13.788-0.09457 5.5456-0.20066 6.4713-0.7539 6.5775-0.36233 0.0696-3.9198-2.6193-8.1359-6.1494zm11.804 5.6478c-0.34907-0.42061-0.4493-2.2353-0.35049-6.346 0.1116-4.6428 0.27444-5.9644 0.84141-6.8288 0.94844-1.446 1.0368-7.9295 0.10809-7.9295-0.87652 0-1.1235-1.5587-0.94624-5.9718 0.11418-2.8427 0.35104-4.2354 0.84975-4.9966 1.033-1.5765 0.96274-6.0347-0.11202-7.1095-0.71629-0.71629-0.80321-1.3374-0.80122-5.7246 0.0012-2.7066 0.18057-5.5631 0.39853-6.3477 0.3185-1.1465 1.4772-2.3294 5.9022-6.0259 9.9211-8.2877 10.196-8.4907 10.814-7.9782 0.45653 0.37889 0.55938 2.8098 0.55938 13.221 0 11.079-0.0826 12.826-0.62798 13.278-0.56948 0.47263-0.56948 0.55391 0 0.87261 0.54758 0.30644 0.62771 1.879 0.62587 12.283-2e-3 10.659-0.0769 12.049-0.70303 13.032-0.79377 1.2466-14.919 13.145-15.616 13.154-0.24913 3e-3 -0.67296-0.25896-0.94184-0.58294zm10.095-21.41c1.9036-1.6046 3.5695-3.322 3.702-3.8164 0.13253-0.49446 0.24343-1.8481 0.24645-3.0081 5e-3 -1.7457-0.11564-2.1078-0.69755-2.1016-0.38666 4e-3 -2.556 1.5551-4.8207 3.4466l-4.1177 3.4392v6.8369l1.1132-0.9396c0.61228-0.51678 2.6707-2.2524 4.5743-3.857zm-0.36733-18.885c3.9903-3.4099 4.4796-4.1655 4.2504-6.564-0.0948-0.99197-0.3162-1.3468-0.81636-1.3082-0.37749 0.0291-2.4965 1.5658-4.7088 3.4147l-4.0225 3.3617-0.0114 2.7609c-0.0133 3.2082-0.61463 3.3968 5.3088-1.6651z" style="fill:#fff;stroke-width:.40173"/>
 <path d="m86.961 57.56 7.8337 6.3774v5.122l-2.561-1.7576v3.8666l1.0545 0.80346v4.9212l-5.6242-4.7705v-4.419l1.5065 1.0545v-3.8666l-2.2597-1.8078z" style="fill:#fff;stroke-linecap:round;stroke-linejoin:round;stroke-width:1.6069"/>
 <path d="m97.306 63.837 7.3316-5.9757v5.2727l-4.419 3.5653v4.0675l4.6199-3.7662v5.2727l-7.5324 5.8251z" style="fill:#fff;stroke-linecap:round;stroke-linejoin:round;stroke-width:1.6069"/>
</svg>
