<?xml version="1.0" encoding="UTF-8" standalone="no"?>
<svg
   id="a"
   viewBox="0 0 192 192"
   version="1.1"
   sodipodi:docname="zoho_connect.svg"
   width="192"
   height="192"
   inkscape:version="1.3.2 (091e20ef0f, 2023-11-25)"
   inkscape:export-filename="zoho_connect.png"
   inkscape:export-xdpi="96"
   inkscape:export-ydpi="96"
   xmlns:inkscape="http://www.inkscape.org/namespaces/inkscape"
   xmlns:sodipodi="http://sodipodi.sourceforge.net/DTD/sodipodi-0.dtd"
   xmlns="http://www.w3.org/2000/svg"
   xmlns:svg="http://www.w3.org/2000/svg">
  <sodipodi:namedview
     id="namedview4"
     pagecolor="#ffffff"
     bordercolor="#000000"
     borderopacity="0.25"
     inkscape:showpageshadow="2"
     inkscape:pageopacity="0.0"
     inkscape:pagecheckerboard="0"
     inkscape:deskcolor="#d1d1d1"
     showgrid="false"
     inkscape:zoom="2.875"
     inkscape:cx="88"
     inkscape:cy="88"
     inkscape:window-width="1366"
     inkscape:window-height="719"
     inkscape:window-x="0"
     inkscape:window-y="0"
     inkscape:window-maximized="1"
     inkscape:current-layer="a" />
  <defs
     id="defs1">
    <style
       id="style1">.cls-1{fill:#fff;}.cls-2{stroke:#728dbe;}.cls-2,.cls-3,.cls-4{fill:none;stroke-miterlimit:10;stroke-width:9px;}.cls-3{stroke:#ff837d;}.cls-5{fill:#56595b;}.cls-4{stroke:#f9de81;}</style>
  </defs>
  <circle
     id="circle1"
     class="cls-1"
     cx="96"
     cy="96"
     r="88" />
  <g
     id="Layer_2"
     transform="translate(3.1749992,9.9350014)">
    <path
       class="cls-5"
       d="m 63.72,99.64 c -0.83,0 -1.6,-0.43 -2.02,-1.15 -2.99,-5.03 -4.53,-10.8 -4.46,-16.65 0.02,-1.28 1.06,-2.31 2.35,-2.31 h 0.03 c 1.3,0.02 2.33,1.08 2.31,2.38 v 0 c -0.07,4.99 1.25,9.9 3.79,14.19 0.66,1.11 0.3,2.55 -0.81,3.22 -0.36,0.22 -0.77,0.34 -1.2,0.33 z m 40.35,-40.32 c -0.42,0 -0.83,-0.11 -1.2,-0.33 -4.29,-2.56 -9.21,-3.88 -14.21,-3.81 h -0.03 c -1.3,0 -2.35,-1.03 -2.36,-2.33 -0.01,-1.3 1.03,-2.35 2.33,-2.36 5.86,-0.08 11.63,1.46 16.67,4.47 1.11,0.66 1.48,2.1 0.82,3.21 -0.42,0.72 -1.2,1.15 -2.03,1.15 v 0 z m -0.68,50.96 c -1.3,0 -2.34,-1.06 -2.34,-2.35 0,-0.84 0.46,-1.62 1.19,-2.04 4.35,-2.45 7.95,-6.04 10.4,-10.4 0.63,-1.13 2.06,-1.53 3.19,-0.9 1.13,0.63 1.53,2.06 0.9,3.19 -2.87,5.1 -7.09,9.32 -12.19,12.19 -0.35,0.19 -0.75,0.3 -1.15,0.3 v 0 z"
       id="path1" />
    <circle
       class="cls-4"
       cx="117.43"
       cy="74.650002"
       r="12.5"
       id="circle2" />
    <circle
       class="cls-2"
       cx="68.220001"
       cy="61.459999"
       r="12.5"
       id="circle3" />
    <circle
       class="cls-3"
       cx="81.400002"
       cy="110.67"
       r="12.5"
       id="circle4" />
  </g>
</svg>
