<?xml version="1.0" encoding="UTF-8" standalone="no"?>
<svg
   id="a"
   viewBox="0 0 192 192"
   version="1.1"
   sodipodi:docname="zoho_desk.svg"
   width="192"
   height="192"
   inkscape:version="1.3.2 (091e20ef0f, 2023-11-25)"
   inkscape:export-filename="zoho_desk.png"
   inkscape:export-xdpi="96"
   inkscape:export-ydpi="96"
   xmlns:inkscape="http://www.inkscape.org/namespaces/inkscape"
   xmlns:sodipodi="http://sodipodi.sourceforge.net/DTD/sodipodi-0.dtd"
   xmlns="http://www.w3.org/2000/svg"
   xmlns:svg="http://www.w3.org/2000/svg">
  <sodipodi:namedview
     id="namedview1"
     pagecolor="#ffffff"
     bordercolor="#000000"
     borderopacity="0.25"
     inkscape:showpageshadow="2"
     inkscape:pageopacity="0.0"
     inkscape:pagecheckerboard="0"
     inkscape:deskcolor="#d1d1d1"
     showgrid="false"
     inkscape:zoom="2.875"
     inkscape:cx="88"
     inkscape:cy="88"
     inkscape:window-width="1366"
     inkscape:window-height="719"
     inkscape:window-x="0"
     inkscape:window-y="0"
     inkscape:window-maximized="1"
     inkscape:current-layer="a" />
  <defs
     id="defs1">
    <style
       id="style1">.cls-1{fill:#71a372;}.cls-2{fill:none;stroke:#fff;stroke-linecap:round;stroke-width:4px;}</style>
  </defs>
  <circle
     id="circle1"
     class="cls-1"
     cx="96"
     cy="96"
     r="88" />
  <path
     class="cls-2"
     d="m 121.1416,109.39639 -4.03,15.42 c -0.6,2.28 -2.66,3.87 -5.01,3.87 H 82.271608 c -2.62,0 -5.21,0.66 -7.51,1.92 l -6.79,3.72 c -0.92,0.51 -2.08,0.17 -2.59,-0.76 -0.21,-0.38 -0.28,-0.83 -0.2,-1.25 l 7.47,-41.090007 c 0.41,-2.28 2.4,-3.94 4.72,-3.94 H 106.7616 c 2.3,0 4.25,-1.69 4.58,-3.96 l 1.07,-7.37 c 0.28,-1.89 -1.03,-3.65 -2.93,-3.92 -0.16,-0.02 -0.33,-0.04 -0.5,-0.04 -1.51,-0.49 -2.33,-2.11 -1.84,-3.62 0.04,-0.12 0.09,-0.24 0.14,-0.35 l 0.88,-6.61 c 0.3,-2.27 2.24,-3.97 4.53,-3.97 h 10.55 c 1.99,0 3.61,1.61 3.61,3.61 0,0.12 0,0.25 -0.02,0.37 l -2.88,27.8 c -0.26,2.51 -1.66,4.76 -3.81,6.1 l -18.88,11.790007 c -2.049992,1.28 -4.679992,1.2 -6.649992,-0.2 l -11.73,-8.360007"
     id="path1" />
</svg>
