<?xml version="1.0" encoding="UTF-8" standalone="no"?>
<svg
   id="a"
   viewBox="0 0 192 192"
   version="1.1"
   sodipodi:docname="zoho_vault.svg"
   width="192"
   height="192"
   inkscape:export-filename="zoho_vault.png"
   inkscape:export-xdpi="96"
   inkscape:export-ydpi="96"
   inkscape:version="1.3.1 (91b66b0783, 2023-11-16)"
   xmlns:inkscape="http://www.inkscape.org/namespaces/inkscape"
   xmlns:sodipodi="http://sodipodi.sourceforge.net/DTD/sodipodi-0.dtd"
   xmlns="http://www.w3.org/2000/svg"
   xmlns:svg="http://www.w3.org/2000/svg">
  <sodipodi:namedview
     id="namedview7"
     pagecolor="#ffffff"
     bordercolor="#000000"
     borderopacity="0.25"
     inkscape:showpageshadow="2"
     inkscape:pageopacity="0.0"
     inkscape:pagecheckerboard="0"
     inkscape:deskcolor="#d1d1d1"
     showgrid="false"
     inkscape:zoom="2.875"
     inkscape:cx="88"
     inkscape:cy="88"
     inkscape:window-width="1366"
     inkscape:window-height="719"
     inkscape:window-x="0"
     inkscape:window-y="0"
     inkscape:window-maximized="1"
     inkscape:current-layer="a" />
  <defs
     id="defs1">
    <style
       id="style1">.c{fill:#728dbe;}.d{fill:#fff;}.e{fill:#ff837d;}</style>
  </defs>
  <circle
     id="b"
     class="d"
     cx="96"
     cy="96"
     r="88" />
  <g
     id="g7"
     transform="translate(8,7.995)">
    <path
       class="c"
       d="m 113.88,128 h -7.85 c -3.03,0 -5.49,-2.46 -5.49,-5.49 v -3.21 c 0,-0.43 -0.35,-0.78 -0.78,-0.78 H 76.23 c -0.43,0 -0.78,0.35 -0.78,0.78 v 3.22 c 0,3.03 -2.46,5.49 -5.49,5.49 h -7.84 c -3.03,0 -5.49,-2.46 -5.49,-5.49 v -4.25 C 51.6,117.16 48.01,112.69 48,107.54 V 58.98 C 48,52.92 52.92,48.01 58.98,48 h 58.04 c 6.06,0 10.97,4.92 10.98,10.98 v 48.55 c 0,5.16 -3.59,9.62 -8.63,10.73 v 4.25 c 0,3.03 -2.46,5.48 -5.49,5.49 M 76.23,113.8 h 23.53 c 3.03,0 5.49,2.46 5.49,5.49 v 3.22 c 0,0.43 0.35,0.78 0.78,0.78 h 7.85 c 0.43,0 0.78,-0.35 0.78,-0.78 v -6.36 c 0,-1.3 1.05,-2.35 2.35,-2.35 v 0 c 3.47,0 6.29,-2.81 6.29,-6.29 v 0 -48.53 c 0,-3.47 -2.81,-6.29 -6.29,-6.29 H 58.98 c -3.47,0 -6.29,2.81 -6.29,6.29 v 0 48.55 c 0,3.47 2.81,6.29 6.29,6.29 v 0 c 1.3,0 2.35,1.05 2.35,2.34 0,0 0,0 0,0 v 6.35 c 0,0.43 0.35,0.78 0.78,0.78 h 7.84 c 0.43,0 0.78,-0.35 0.78,-0.78 v -3.23 c 0,-3.03 2.46,-5.49 5.49,-5.49"
       id="path1" />
    <path
       class="e"
       d="m 73.06,97.28 c -0.5,0 -0.98,-0.16 -1.38,-0.45 -1.05,-0.76 -1.29,-2.22 -0.53,-3.27 0,0 0,0 0.01,-0.01 L 78.8,83.04 c 0.77,-1.05 2.23,-1.28 3.29,-0.52 1.05,0.77 1.28,2.23 0.52,3.29 l -7.64,10.51 c -0.45,0.61 -1.15,0.96 -1.91,0.97 z"
       id="path2" />
    <path
       class="e"
       d="m 88.34,97.28 c -0.76,0 -1.46,-0.36 -1.91,-0.97 L 78.79,85.8 c -0.77,-1.05 -0.53,-2.52 0.52,-3.29 1.05,-0.77 2.52,-0.53 3.29,0.52 l 7.64,10.54 c 0.76,1.05 0.53,2.52 -0.52,3.29 -0.4,0.29 -0.89,0.44 -1.38,0.43 z"
       id="path3" />
    <path
       class="e"
       d="m 80.69,86.77 c -1.29,0 -2.35,-1.04 -2.35,-2.33 0,0 0,-0.01 0,-0.02 V 71.53 c 0,-1.3 1.05,-2.35 2.35,-2.35 1.3,0 2.35,1.05 2.35,2.35 v 12.9 c 0,1.29 -1.04,2.35 -2.33,2.35 0,0 -0.01,0 -0.02,0"
       id="path4" />
    <path
       class="e"
       d="m 80.69,86.79 c -1.16,0 -2.14,-0.85 -2.32,-1.99 -0.18,-1.14 0.5,-2.25 1.59,-2.61 L 92.3,78.21 c 0.8,-0.26 1.68,-0.07 2.3,0.49 0.63,0.56 0.9,1.42 0.73,2.24 -0.17,0.82 -0.78,1.49 -1.58,1.75 l -12.34,3.98 c -0.24,0.08 -0.48,0.12 -0.73,0.12 z"
       id="path5" />
    <path
       class="e"
       d="m 80.71,86.79 c -0.25,0 -0.49,-0.04 -0.72,-0.12 L 67.64,82.7 c -1.24,-0.4 -1.91,-1.73 -1.51,-2.97 0.4,-1.24 1.73,-1.91 2.97,-1.51 l 12.33,3.98 c 1.1,0.36 1.77,1.46 1.59,2.61 -0.18,1.15 -1.16,1.99 -2.32,1.99 h 0.01 z"
       id="path6" />
    <path
       class="c"
       d="m 107.58,97.24 c -1.29,0 -2.35,-1.04 -2.35,-2.33 0,0 0,-0.01 0,-0.02 v -23.3 c 0,-1.3 1.05,-2.35 2.35,-2.35 1.3,0 2.35,1.05 2.35,2.35 v 23.3 c 0,1.29 -1.04,2.35 -2.33,2.35 0,0 -0.01,0 -0.02,0"
       id="path7" />
  </g>
</svg>
