<?xml version="1.0" encoding="UTF-8" standalone="no"?>
<!-- Generator: Adobe Illustrator 26.5.3, SVG Export Plug-In . SVG Version: 6.00 Build 0)  -->

<svg
   version="1.1"
   id="a"
   x="0px"
   y="0px"
   viewBox="0 0 192 192"
   style="enable-background:new 0 0 192 192;"
   xml:space="preserve"
   sodipodi:docname="zoho_calendar.svg"
   inkscape:export-filename="zoho_calendar.png"
   inkscape:export-xdpi="96"
   inkscape:export-ydpi="96"
   inkscape:version="1.3.1 (91b66b0783, 2023-11-16)"
   xmlns:inkscape="http://www.inkscape.org/namespaces/inkscape"
   xmlns:sodipodi="http://sodipodi.sourceforge.net/DTD/sodipodi-0.dtd"
   xmlns="http://www.w3.org/2000/svg"
   xmlns:svg="http://www.w3.org/2000/svg"><defs
   id="defs2" /><sodipodi:namedview
   id="namedview2"
   pagecolor="#ffffff"
   bordercolor="#000000"
   borderopacity="0.25"
   inkscape:showpageshadow="2"
   inkscape:pageopacity="0.0"
   inkscape:pagecheckerboard="0"
   inkscape:deskcolor="#d1d1d1"
   showgrid="false"
   inkscape:zoom="2.484375"
   inkscape:cx="96"
   inkscape:cy="95.798742"
   inkscape:window-width="1366"
   inkscape:window-height="719"
   inkscape:window-x="0"
   inkscape:window-y="0"
   inkscape:window-maximized="1"
   inkscape:current-layer="a" />
<style
   type="text/css"
   id="style1">
	.st0{fill:#FFFFFF;}
	.st1{fill:#F8C18C;}
	.st2{fill:#728DBE;}
</style>
<circle
   id="circle1"
   class="st0"
   cx="96"
   cy="96"
   r="88" />
<g
   id="g2">
	<path
   class="st1"
   d="M110.1,114.4c-4.8,0-8.7-3.9-8.7-8.7c-0.1-2.2,0.7-4.3,2.2-5.8c0.4-0.4,0.8-0.7,1.3-1   c-0.4-0.5-0.6-1.1-0.6-1.7c0.1-1.2,1.2-2.1,2.4-2c2.2,0.3,4.2,1,6.1,2.1h0.9c1.2,0,2.2,1,2.1,2.2l0,0l0,0c1.7,1.6,2.7,3.7,2.8,5.9   c0.2,2.3-0.6,4.5-2.2,6.2C114.9,113.5,112.5,114.5,110.1,114.4z M111.6,101.7c-1.7-0.1-3.5,0.3-4.9,1.3c-0.7,0.7-1,1.7-0.9,2.7   c0,2.4,1.9,4.3,4.3,4.3c1.2,0,2.4-0.4,3.3-1.3c0.7-0.8,1.1-1.8,1-2.9C114.1,104.1,113.1,102.6,111.6,101.7z"
   id="path1" />
	<path
   class="st2"
   d="M76,126.1c-4.9,0-9-3.7-9.5-8.6l-0.3-3l-2-0.3c-5-0.9-8.4-5.5-7.8-10.6l2.1-16.5c0.1-1.2,0.8-2.4,1.7-3.1   c1.8-1.4,4.3-1.4,6.1,0.1c0.9,0.8,1.5,2,1.6,3.2l2.9,29.9c0.2,2.6,2.5,4.6,5.1,4.6h46c2.8,0,5.1-2.3,5.1-5.1c0-0.2,0-0.3,0-0.5   l-4.4-45.9c-0.2-2.6-2.5-4.6-5.1-4.6H71.7c-1.4,0-2.8,0.6-3.8,1.7s-1.4,2.5-1.3,3.9l0.3,3c0,0.2,0.2,0.3,0.4,0.3h46.6   c1.2,0,2.2,1,2.2,2.2c0,1.2-1,2.2-2.2,2.2H67.3c-2.5,0-4.5-1.8-4.7-4.3l-0.3-3c-0.3-2.7,0.6-5.3,2.4-7.3s4.4-3.1,7.1-3.1h45.8   c4.9,0,9,3.7,9.5,8.6l4.4,45.9c0.3,2.7-0.6,5.3-2.4,7.3s-4.4,3.1-7,3.1L76,126.1L76,126.1z M63.3,87.2c-0.3,0-0.4,0.2-0.4,0.3   L60.8,104c-0.3,2.7,1.5,5.2,4.2,5.7l0.8,0.1l-2.1-22.3C63.7,87.4,63.6,87.2,63.3,87.2L63.3,87.2z"
   id="path2" />
</g>
</svg>
