<?xml version="1.0" encoding="UTF-8" standalone="no"?>
<!-- Created with Inkscape (http://www.inkscape.org/) -->

<svg
   width="192"
   height="192"
   viewBox="0 0 192 192"
   version="1.1"
   id="svg1"
   xml:space="preserve"
   inkscape:version="1.2.2 (b0a8486541, 2022-12-01)"
   sodipodi:docname="zorg_messenger.svg"
   inkscape:export-filename="zorg_messenger.png"
   inkscape:export-xdpi="96"
   inkscape:export-ydpi="96"
   xmlns:inkscape="http://www.inkscape.org/namespaces/inkscape"
   xmlns:sodipodi="http://sodipodi.sourceforge.net/DTD/sodipodi-0.dtd"
   xmlns="http://www.w3.org/2000/svg"
   xmlns:svg="http://www.w3.org/2000/svg"><sodipodi:namedview
     id="namedview1"
     pagecolor="#ffffff"
     bordercolor="#999999"
     borderopacity="1"
     inkscape:showpageshadow="2"
     inkscape:pageopacity="0"
     inkscape:pagecheckerboard="true"
     inkscape:deskcolor="#d1d1d1"
     inkscape:document-units="px"
     showgrid="false"
     inkscape:zoom="2"
     inkscape:cx="29.5"
     inkscape:cy="79.75"
     inkscape:window-width="1884"
     inkscape:window-height="1055"
     inkscape:window-x="36"
     inkscape:window-y="0"
     inkscape:window-maximized="1"
     inkscape:current-layer="svg1"
     showguides="true"
     guidecolor="#45577e"
     guideopacity="0.63921569"><inkscape:grid
       id="grid1"
       units="px"
       originx="0"
       originy="0"
       spacingx="2"
       spacingy="2"
       empcolor="#0099e5"
       empopacity="0.4"
       color="#0099e5"
       opacity="0.25098039"
       empspacing="8"
       dotted="false"
       gridanglex="30"
       gridanglez="30"
       visible="true" /></sodipodi:namedview><defs
     id="defs1"><inkscape:path-effect
       effect="fillet_chamfer"
       id="path-effect16"
       nodesatellites_param="F,0,0,1,0,0,0,1 @ F,0,0,1,0,3.9999972,0,1 @ F,0,0,1,0,4.0000025,0,1 @ F,0,0,1,0,0,0,1 @ F,0,0,1,0,4.000003,0,1 @ F,0,0,1,0,3.9999967,0,1 @ F,0,0,1,0,0,0,1 @ F,0,0,1,0,3.9999962,0,1 @ F,0,0,1,0,3.9999972,0,1 @ F,0,0,1,0,0,0,1 @ F,0,0,1,0,3.9999976,0,1 @ F,0,0,1,0,4.000003,0,1"
       is_visible="true"
       lpeversion="1"
       radius="0"
       unit="px"
       method="auto"
       mode="F"
       chamfer_steps="1"
       flexible="false"
       use_knot_distance="true"
       apply_no_radius="true"
       apply_with_radius="true"
       only_selected="false"
       hide_knots="false" /><inkscape:path-effect
       effect="fillet_chamfer"
       id="path-effect14"
       nodesatellites_param="F,0,0,1,0,0,0,1 @ F,0,0,1,0,3.9999972,0,1 @ F,0,0,1,0,4.0000025,0,1 @ F,0,0,1,0,0,0,1 @ F,0,0,1,0,4.000003,0,1 @ F,0,0,1,0,3.9999967,0,1 @ F,0,0,1,0,0,0,1 @ F,0,0,1,0,3.9999962,0,1 @ F,0,0,1,0,3.9999972,0,1 @ F,0,0,1,0,0,0,1 @ F,0,0,1,0,3.9999976,0,1 @ F,0,0,1,0,4.000003,0,1"
       is_visible="true"
       lpeversion="1"
       radius="0"
       unit="px"
       method="auto"
       mode="F"
       chamfer_steps="1"
       flexible="false"
       use_knot_distance="true"
       apply_no_radius="true"
       apply_with_radius="true"
       only_selected="false"
       hide_knots="false" /><inkscape:path-effect
       effect="fillet_chamfer"
       id="path-effect11"
       nodesatellites_param="F,0,0,1,0,0,0,1 @ F,0,0,1,0,3.9999972,0,1 @ F,0,0,1,0,4.0000025,0,1 @ F,0,0,1,0,0,0,1 @ F,0,0,1,0,4.000003,0,1 @ F,0,0,1,0,3.9999967,0,1 @ F,0,0,1,0,0,0,1 @ F,0,0,1,0,3.9999962,0,1 @ F,0,0,1,0,3.9999972,0,1 @ F,0,0,1,0,0,0,1 @ F,0,0,1,0,3.9999976,0,1 @ F,0,0,1,0,4.000003,0,1"
       is_visible="true"
       lpeversion="1"
       radius="0"
       unit="px"
       method="auto"
       mode="F"
       chamfer_steps="1"
       flexible="false"
       use_knot_distance="true"
       apply_no_radius="true"
       apply_with_radius="true"
       only_selected="false"
       hide_knots="false" /></defs><g
     id="g8"
     style="display:inline;opacity:1;mix-blend-mode:normal;stroke-width:1.39677"
     transform="matrix(0.71588718,0,0,0.71599046,28.97765,25.897374)"
     inkscape:label="bg"><ellipse
       style="display:none;opacity:1;fill:#98dc9a;fill-opacity:1;fill-rule:evenodd;stroke-width:6.98384;stroke-linecap:round;stroke-linejoin:round;stroke-miterlimit:1;stroke-dasharray:none;paint-order:markers fill stroke"
       id="path9"
       cx="93.621384"
       cy="97.910004"
       inkscape:label="circle"
       rx="122.92439"
       ry="122.90668" /><rect
       style="display:inline;fill:#98dc9a;fill-opacity:1;fill-rule:evenodd;stroke-width:1.95096;stroke-linecap:round;stroke-linejoin:round;stroke-miterlimit:1;paint-order:markers fill stroke"
       id="rect1-0"
       width="212.32394"
       height="212.29333"
       x="-12.540586"
       y="-8.2366676"
       rx="16.762417"
       ry="16.76"
       inkscape:label="square" /><rect
       style="display:none;opacity:1;mix-blend-mode:normal;fill:#f9de81;fill-opacity:1;fill-rule:evenodd;stroke-width:1.95096;stroke-linecap:round;stroke-linejoin:round;stroke-miterlimit:1;paint-order:markers fill stroke"
       id="rect8"
       width="245.84879"
       height="178.77333"
       x="-29.303011"
       y="8.5233297"
       rx="16.762417"
       ry="16.76"
       inkscape:label="h-slab" /><rect
       style="display:none;opacity:1;mix-blend-mode:normal;fill:#f9de81;fill-opacity:1;fill-rule:evenodd;stroke-width:1.95096;stroke-linecap:round;stroke-linejoin:round;stroke-miterlimit:1;paint-order:markers fill stroke"
       id="rect9"
       width="178.79912"
       height="245.81332"
       x="4.2218204"
       y="-24.99667"
       rx="16.762417"
       ry="16.76"
       inkscape:label="v-slab" /></g><g
     id="g5"
     inkscape:label="logo"
     transform="matrix(0.71588718,0,0,0.71599046,28.97765,25.897374)"
     style="display:none;opacity:1;mix-blend-mode:normal;stroke-width:1.39677"><path
       id="path10"
       style="display:inline;opacity:1;fill:#f9ffff;fill-opacity:1;fill-rule:evenodd;stroke-width:5;stroke-linecap:round;stroke-linejoin:round;stroke-miterlimit:1;stroke-dasharray:none;paint-order:markers fill stroke"
       d="m 96.000003,36.999999 c -32.5848,-1e-6 -59.000001,26.415198 -59.000002,58.999998 0.015,11.534843 3.410859,22.812283 9.767579,32.437503 -0.04207,4.0625 -5.964601,11.25766 -5.046876,15.14453 0.917725,3.88687 1.810736,4.74837 5.656251,5.65625 3.845515,0.90788 11.242396,-4.88266 14.902344,-4.9668 9.877785,6.9421 21.647527,10.68674 33.720704,10.72852 32.584807,0 59.000007,-26.4152 59.000007,-59.000003 0,-32.584802 -26.4152,-59.000002 -59.000007,-58.999998 z"
       transform="matrix(1.3968681,0,0,1.3966667,-40.477956,-36.169999)"
       sodipodi:nodetypes="scczzccss"
       inkscape:label="cloud" /><path
       style="opacity:1;fill:none;fill-opacity:1;fill-rule:evenodd;stroke:#98dc9a;stroke-width:5;stroke-linecap:round;stroke-linejoin:round;stroke-miterlimit:1;stroke-dasharray:none;stroke-opacity:1;paint-order:markers fill stroke"
       d="M 88,88 H 77.999997 A 3.9999972,3.9999972 135 0 0 74,91.999997 v 8.000001 A 4.0000025,4.0000025 45 0 0 78.000002,104 H 88 v 10 a 4.000003,4.000003 45 0 0 4.000003,4 H 100 a 3.9999967,3.9999967 135 0 0 4,-4 v -10 h 10 a 3.9999962,3.9999962 135 0 0 4,-4 V 91.999997 A 3.9999972,3.9999972 45 0 0 114,88 H 104 V 77.999998 A 3.9999976,3.9999976 45 0 0 100,74 H 92.000003 A 4.000003,4.000003 135 0 0 88,78.000003 Z"
       id="path11"
       sodipodi:nodetypes="ccccccccccccc"
       inkscape:label="cross"
       transform="matrix(1.3968681,0,0,1.3966667,-40.477956,-36.169999)"
       inkscape:path-effect="#path-effect11"
       inkscape:original-d="M 88,88 H 74 v 16 h 14 v 14 h 16 v -14 h 14 V 88 H 104 V 74 H 88 Z" /></g><g
     id="g13"
     inkscape:label="logo-small"
     transform="matrix(0.44287934,0,0,0.44294323,54.537021,52.631427)"
     style="display:inline;opacity:1;mix-blend-mode:normal;stroke-width:2.06023"><path
       id="path12"
       style="display:inline;opacity:1;fill:#f9ffff;fill-opacity:1;fill-rule:evenodd;stroke-width:7.375;stroke-linecap:round;stroke-linejoin:round;stroke-miterlimit:1;stroke-dasharray:none;paint-order:markers fill stroke"
       d="m 96.000003,36.999999 c -32.5848,-1e-6 -59.000001,26.415198 -59.000002,58.999998 0.015,11.534843 3.410859,22.812283 9.767579,32.437503 -0.04207,4.0625 -5.964601,11.25766 -5.046876,15.14453 0.917725,3.88687 1.810736,4.74837 5.656251,5.65625 3.845515,0.90788 11.242396,-4.88266 14.902344,-4.9668 9.877785,6.9421 21.647527,10.68674 33.720704,10.72852 32.584807,0 59.000007,-26.4152 59.000007,-59.000003 0,-32.584802 -26.4152,-59.000002 -59.000007,-58.999998 z"
       transform="matrix(1.3968681,0,0,1.3966667,-40.477956,-36.169999)"
       sodipodi:nodetypes="scczzccss"
       inkscape:label="cloud" /><path
       style="opacity:1;fill:none;fill-opacity:1;fill-rule:evenodd;stroke:#98dc9a;stroke-width:4.425;stroke-linecap:round;stroke-linejoin:round;stroke-miterlimit:1;stroke-dasharray:none;stroke-opacity:1;paint-order:markers fill stroke"
       d="M 88,88 H 77.999997 A 3.9999972,3.9999972 135 0 0 74,91.999997 v 8.000001 A 4.0000025,4.0000025 45 0 0 78.000002,104 H 88 v 10 a 4.000003,4.000003 45 0 0 4.000003,4 H 100 a 3.9999967,3.9999967 135 0 0 4,-4 v -10 h 10 a 3.9999962,3.9999962 135 0 0 4,-4 V 91.999997 A 3.9999972,3.9999972 45 0 0 114,88 H 104 V 77.999998 A 3.9999976,3.9999976 45 0 0 100,74 H 92.000003 A 4.000003,4.000003 135 0 0 88,78.000003 Z"
       id="path13"
       sodipodi:nodetypes="ccccccccccccc"
       inkscape:label="cross"
       transform="matrix(1.3968681,0,0,1.3966667,-40.477956,-36.169999)"
       inkscape:path-effect="#path-effect14"
       inkscape:original-d="M 88,88 H 74 v 16 h 14 v 14 h 16 v -14 h 14 V 88 H 104 V 74 H 88 Z" /></g><g
     id="g15"
     inkscape:label="logo-cloud-small"
     transform="matrix(0.71588718,0,0,0.71599046,28.97765,25.897374)"
     style="display:none;opacity:1;mix-blend-mode:normal;stroke-width:1.39677"><path
       id="path14"
       style="display:inline;opacity:1;fill:#f9ffff;fill-opacity:1;fill-rule:evenodd;stroke-width:6.98384;stroke-linecap:round;stroke-linejoin:round;stroke-miterlimit:1;stroke-dasharray:none;paint-order:markers fill stroke"
       d="m 93.621387,42.043341 c -30.858754,-10e-7 -55.874719,25.012354 -55.87472,55.86666 0.0142,10.922259 3.230183,21.600779 9.250182,30.714829 -0.03984,3.84675 -5.648651,10.6598 -4.779539,14.34024 0.869112,3.68045 1.71482,4.4962 5.356634,5.35587 3.641815,0.85966 10.646877,-4.62336 14.112954,-4.70303 9.35455,6.57342 20.500839,10.11919 31.934489,10.15876 30.858763,0 55.874723,-25.01236 55.874723,-55.866669 0,-30.854307 -25.01596,-55.866664 -55.874723,-55.86666 z"
       sodipodi:nodetypes="scczzccss"
       inkscape:label="cloud" /><path
       style="opacity:1;fill:none;fill-opacity:1;fill-rule:evenodd;stroke:#98dc9a;stroke-width:5;stroke-linecap:round;stroke-linejoin:round;stroke-miterlimit:1;stroke-dasharray:none;stroke-opacity:1;paint-order:markers fill stroke"
       d="M 88,88 H 77.999997 A 3.9999972,3.9999972 135 0 0 74,91.999997 v 8.000001 A 4.0000025,4.0000025 45 0 0 78.000002,104 H 88 v 10 a 4.000003,4.000003 45 0 0 4.000003,4 H 100 a 3.9999967,3.9999967 135 0 0 4,-4 v -10 h 10 a 3.9999962,3.9999962 135 0 0 4,-4 V 91.999997 A 3.9999972,3.9999972 45 0 0 114,88 H 104 V 77.999998 A 3.9999976,3.9999976 45 0 0 100,74 H 92.000003 A 4.000003,4.000003 135 0 0 88,78.000003 Z"
       id="path15"
       sodipodi:nodetypes="ccccccccccccc"
       inkscape:label="cross"
       transform="matrix(1.3968681,0,0,1.3966667,-40.477956,-36.169999)"
       inkscape:path-effect="#path-effect16"
       inkscape:original-d="M 88,88 H 74 v 16 h 14 v 14 h 16 v -14 h 14 V 88 H 104 V 74 H 88 Z" /></g></svg>
