<?xml version="1.0" encoding="UTF-8"?><svg id="a" xmlns="http://www.w3.org/2000/svg" width="192" height="192" xmlns:xlink="http://www.w3.org/1999/xlink" viewBox="0 0 192 192"><defs><clipPath id="d"><rect x="19.5" y="19.5" width="153" height="153" rx="10" ry="10" style="fill:none;"/></clipPath></defs><g id="b"><g id="c"><g style="clip-path:url(#d);"><rect x="19.5" y="19.5" width="153" height="153" rx="10" ry="10" style="fill:#728dbe;"/><path d="m170.37,36.08c.14.33.22.66.21,1.03-.02,1.05,0,2.09-.04,3.14-.03.95-.1,1.9-.16,2.84,0,.04-.02.07-.04.15-.09-.06-.17-.1-.23-.16-.68-.67-1.35-1.33-2.02-2.01-.12-.12-.21-.29-.24-.45-.53-2.92-1.77-5.51-3.69-7.78-2.24-2.64-4.95-4.66-8.05-6.18-.33-.16-.66-.31-.99-.47-.01.03-.04.07-.03.08.68.94.97,2.02,1.2,3.13.32,1.57.28,3.16.26,4.75,0,.04-.02.08-.04.13-.21.03-.3-.14-.43-.26-.58-.53-1.13-1.1-1.75-1.58-1.99-1.56-4.24-2.62-6.64-3.39-1.58-.51-3.2-.83-4.84-1.08-2.96-.45-5.95-.49-8.94-.43-1.4.03-2.79.1-4.19.2-1.02.07-2,.35-2.98.62-2.66.75-5.2,1.82-7.72,2.93-3.65,1.61-7.23,3.37-10.75,5.25-1.16.62-2.32,1.24-3.47,1.88-1.99,1.11-4.12,1.51-6.36,1.26-1.62-.17-3.22-.49-4.79-.9-1.38-.36-2.76-.7-4.17-.91-.66-.1-1.32-.19-1.98-.06-.33.06-.65.19-.97.29-.11.04-.22.09-.36.15,0-.1-.02-.18,0-.25.61-2.23,1.35-4.41,2.31-6.51,1.61-3.51,3.69-6.7,6.33-9.53,3.56-3.82,7.78-6.65,12.67-8.5.63-.24,1.28-.43,1.93-.65.1-.03.23-.02.21-.18h16.07c.05.08.1.17.16.24-.23.05-.46.12-.68.23-1.34.63-2.68,1.24-3.99,1.93-1.67.87-3.33,1.78-4.96,2.72-3.81,2.21-7.43,4.7-10.85,7.49-3.41,2.78-6.54,5.84-9.43,9.16,0,0-.01.02-.05.12.17-.1.29-.16.41-.22,2.56-1.54,5.1-3.11,7.69-4.6,2.37-1.35,4.78-2.63,7.2-3.88,3.39-1.75,6.85-3.36,10.4-4.76,2.7-1.06,5.45-2.01,8.26-2.75,1.76-.46,3.53-.86,5.34-1.07.14-.02.28,0,.51,0-1.77,2.21-3.5,4.35-5.27,6.55.71-.19,1.33-.36,1.96-.52,1.96-.48,3.95-.88,5.95-1.16,1.26-.18,2.53-.29,3.8-.45,2.73-.35,5.47-.31,8.22-.3,1.29,0,2.57.15,3.86.28,1.41.14,2.8.34,4.19.61.7.14,1.4.32,2.1.48.34.08.62.26.87.49,3.9,3.67,6.89,7.98,9.04,12.87Zm-34.07-3.7c1.41,2.09,2.95,4.06,4.78,5.81.84.8,1.73,1.53,2.71,2.14,1.21.76,2.52,1.19,3.97,1.14.56-.02,1.11-.03,1.67-.05,1.29-.05,2.58-.1,3.86-.17,1.34-.07,2.68-.19,4.03-.09.29.02.58.11.87.17.07.02.14.04.23.07.03-.23-.1-.36-.21-.49-1.42-1.71-2.89-3.38-4.49-4.94-1.14-1.11-2.36-2.13-3.7-2.98-.78-.5-1.61-.92-2.52-1.11-.91-.19-1.84-.34-2.77-.41-2.55-.2-5.1-.1-7.64.23-.33.04-.67.1-1.09.16.13.22.21.38.3.52Zm-62.25,26.58c.02-.16.03-.32.07-.48.27-1.1.43-2.21.42-3.34-.01-1.05-.17-2.08-.35-3.11-.34-1.97-1.37-3.48-2.93-4.68-.97-.75-2.07-1.24-3.19-1.69-.07-.03-.16-.01-.3-.02.07.09.1.14.14.17.79.69,1.25,1.58,1.41,2.6.18,1.15.28,2.32.41,3.47.09.78.13,1.57.25,2.35.14.91.38,1.81.81,2.64.29.57.67,1.06,1.33,1.24.39.11.52.37.56.74.13,1.32.33,2.64.64,3.93.04.16.08.31.13.51.29-.08.56-.13.81-.21,2.37-.77,4.51-1.91,6.23-3.77,1.48-1.6,2.32-3.49,2.62-5.63.06-.44.05-.89,0-1.35-.13.01-.22.02-.32.03-.92.17-1.78.48-2.58.96-1.88,1.13-3.47,2.6-4.9,4.25-.4.46-.78.93-1.17,1.4-.02,0-.05-.01-.07-.02Zm4.06-21.96c.05,1.98-.41,3.85-1.27,5.62-.34.71-.74,1.39-1.15,2.06-.42.69-.5,1.36-.2,2.13.69,1.76,1.49,3.46,2.43,5.1.04.07.1.12.15.18.06-.04.11-.06.15-.09,1.44-1.18,2.7-2.52,3.65-4.12.66-1.12,1.1-2.33,1.23-3.63.16-1.57-.2-3.05-.9-4.44-.94-1.85-2.28-3.36-3.9-4.63-.05-.04-.11-.07-.18-.11,0,.67-.01,1.31,0,1.94Zm80.85-4.71c-.14,1.34-.06,2.68.01,4.02.06,1.11.51,2.04,1.4,2.73.4.31.78.63,1.18.94,1.09.85,2.18,1.7,3.28,2.55.06.05.14.07.25.13.06-.22.16-.41.16-.61,0-.46.02-.92-.05-1.38-.17-1.19-.54-2.32-1.05-3.41-1.06-2.24-2.66-3.98-4.87-5.13-.07-.04-.14-.06-.26-.11-.02.12-.03.19-.04.25Zm8.18,18.05c.13-.02.25-.06.43-.1-.09-.07-.13-.11-.17-.13-1.57-.84-3.13-1.68-4.71-2.51-.87-.46-.92-.47-1.77.01-.95.53-1.87,1.1-2.81,1.65-1.93,1.14-3.97,1.99-6.14,2.56-1.95.51-3.89.48-5.84-.01-1.98-.49-3.82-1.31-5.62-2.25-1.95-1.02-3.8-2.21-5.58-3.51-.11-.08-.22-.15-.41-.28.12.28.2.48.29.67,1,2.12,2.24,4.1,3.88,5.8,2.28,2.36,5.01,3.92,8.26,4.5.82.15,1.67.17,2.51.21.33.01.49.1.65.4.71,1.37,1.78,2.42,3.08,3.24,1.89,1.21,3.97,1.91,6.15,2.39,1.6.35,3.21.52,4.84.65.61.05,1.21.16,1.79.36,1.06.36,2.17.5,3.28.55,1.19.05,2.39.1,3.58.15.05,0,.11.02.21.03.02,1.36.01,2.73.02,4.1,0,1.37,0,2.74,0,4.12,0,1.39,0,2.77,0,4.16,0,1.37,0,2.74,0,4.12,0,1.37,0,2.74,0,4.12,0,1.36.02,2.73-.02,4.09-.03,0-.06,0-.1.01-.03-.07-.07-.13-.1-.2-.5-1.29-.98-2.59-1.5-3.87-.61-1.54-1.24-3.07-1.89-4.6-.82-1.94-1.68-3.86-2.8-5.65-1-1.6-2.14-3.08-3.58-4.3-.76-.65-1.58-1.19-2.54-1.5-.07-.02-.15-.04-.29-.08.23.36.41.66.6.95,1.12,1.76,1.82,3.68,2,5.75.13,1.54.06,3.09-.24,4.62-.54,2.82-1.56,5.47-2.69,8.09-.77,1.78-1.98,3.2-3.57,4.3-1.25.87-2.63,1.45-4.1,1.84-2.38.63-4.81.8-7.27.65-.36-.02-.73-.09-1.09-.14-.19-.02-.39-.04-.53.11-.41.45-.82.9-1.28,1.41.43-.03.76-.08,1.09-.07,1.39.01,2.76.16,4.12.42,3.41.65,6.55,1.99,9.57,3.68,2.34,1.31,4.54,2.82,6.65,4.48.12.1.23.21.37.35-.22.1-.36.01-.51-.03-.89-.27-1.78-.58-2.68-.82-1.96-.5-3.95-.83-5.96-1.07-4.05-.48-8.12-.6-12.2-.53-.49,0-.98.02-1.46.07-.41.05-.69-.08-.94-.4-1.22-1.5-2.69-2.71-4.36-3.69-1.9-1.11-3.94-1.81-6.09-2.21-1.99-.37-4-.54-6.04-.45-1.89.08-3.76.29-5.6.73-.23.06-.39-.04-.56-.15-.71-.45-1.41-.92-2.15-1.32-.96-.52-2.02-.78-3.1-.92-.55-.07-1.5.03-2.01.27.16.2.32.41.48.6.59.72.68,1.51.33,2.37-.25.61-.65,1.13-1.09,1.61-.82.9-1.75,1.66-2.7,2.41-.6.47-1.17.97-1.58,1.63-.22.36-.35.74-.23,1.16.02.08.05.16.09.23.11.17.26.28.5.12.6-.4,1.2-.8,1.84-1.13,1.93-.98,3.95-1.74,6.04-2.3,1.84-.49,3.71-.85,5.61-.95,2.02-.11,4.04-.05,6.05.32,4.63.85,8.59,2.97,11.94,6.24.97.95,1.86,1.98,2.78,2.98,2.54,2.78,5.24,5.39,8.19,7.75,2.39,1.91,4.88,3.67,7.53,5.21,2.38,1.38,4.85,2.55,7.43,3.49.11.04.22.07.34.08-5.46-4.22-10.02-9.23-13.54-15.16-.49-.82-.99-1.64-1.35-2.54.06-.03.1-.06.13-.07,1.71-.21,3.43-.39,5.15-.37,1.41.02,2.83,0,4.23.12,4.02.33,7.91,1.21,11.55,2.99.99.48,1.91,1.08,2.87,1.61.19.11.26.24.26.46-.01.69,0,1.38,0,2.12-2.28.04-4.52.2-6.75,1.02.19.06.29.09.39.12,1.8.55,3.61,1.09,5.41,1.64.23.07.46.15.7.21.19.05.26.16.25.35,0,.31,0,.62,0,.94,0,8.38,0,16.76,0,25.14,0,1.39-.23,2.76-.55,4.11-.48,2.02-1.08,4.01-1.9,5.92-.29.68-.61,1.36-.92,2.05-5.43-1.38-10.77-3-15.92-5.18-.01.02-.03.05-.04.07.05.07.09.14.15.21,2.09,2.39,4.18,4.79,6.26,7.18.17.19.31.39.47.59-.02.03-.04.05-.06.08-.14-.04-.28-.06-.42-.11-1.87-.66-3.74-1.31-5.59-2-4.37-1.63-8.67-3.47-12.91-5.41-4.2-1.92-8.31-4.02-12.31-6.33-2.58-1.48-5.12-3.03-7.57-4.72-2.35-1.62-4.62-3.35-6.79-5.2-.16-.14-.33-.27-.54-.36.29.42.57.84.87,1.26,1.75,2.46,3.46,4.93,5.25,7.36,3.34,4.53,6.82,8.94,10.49,13.2,2.75,3.19,5.61,6.28,8.59,9.25,2.32,2.31,4.72,4.53,7.27,6.59.84.68,1.71,1.34,2.57,2.01.15.11.28.25.45.4-.12.08-.19.14-.27.17-2.23.91-4.51,1.63-6.87,2.15-1.85.41-3.72.61-5.61.61-5.15,0-10.29,0-15.44,0-.05,0-.11,0-.16,0-.3.03-.48-.1-.64-.37-1.21-2.08-2.41-4.16-3.49-6.3-.12-.24-.35.4-.52.11-.12,1.29-.16,1.65-.26,2.87-.1,1.21-.18,2.43-.27,3.67-.59,0-1.13,0-1.67,0-.18,0-.24-.15-.31-.28-.63-1.29-1.27-2.58-1.88-3.89-2.56-5.5-4.89-11.1-6.91-16.82-1.22-3.46-2.26-6.97-3.13-10.53-.53-2.16-.96-4.34-1.27-6.55-.02-.17-.03-.35-.1-.54-.02.13-.06.25-.07.38-.18,1.51-.37,3.02-.54,4.53-.14,1.32-.25,2.65-.37,3.97-.1,1.14-.2,2.27-.27,3.41-.15,2.32-.3,4.63-.4,6.95-.12,2.66-.23,5.32-.26,7.98-.02,2.42.07,4.83.13,7.25.03,1.22.12,2.44.18,3.66,0,.15,0,.29,0,.43-.39.1-15.16.12-15.7.03-.02-.09-.05-.19-.06-.3-.1-1.94-.29-3.87-.24-5.82.03-.96.1-1.92.15-2.89.03-.53.06-1.06.12-1.58.09-.92.18-1.84.3-2.75.53-3.96,1.41-7.85,2.56-11.67.67-2.21,1.41-4.39,2.25-6.54.5-1.28,1.03-2.54,1.54-3.81.03-.08.07-.17.03-.29-.12.12-.24.24-.36.37-3.39,3.73-6.62,7.6-9.52,11.72-1.85,2.63-3.61,5.33-5.01,8.24-.44.9-.81,1.84-1.21,2.76-.07.17-.15.34-.22.51-.03,0-.07,0-.1-.01-.06-.27-.14-.53-.17-.8-.22-1.7-.36-3.4-.25-5.12.16-2.53.74-4.96,1.65-7.31,1.12-2.9,2.72-5.52,4.55-8.01,1.2-1.63,2.41-3.25,3.39-5.03.59-1.07,1.12-2.17,1.35-3.39,0-.05.04-.1.06-.17.09-.02.18-.05.27-.06,1.43-.15,2.77-.63,4.11-1.14,2.6-1,5-2.37,7.37-3.81,1.81-1.1,3.54-2.32,5.24-3.59.3-.23.56-.26.9-.12,1.74.72,3.54,1.22,5.38,1.57,1.78.34,3.57.55,5.38.51,1.87-.04,3.73-.25,5.56-.69,2.15-.52,4.22-1.24,6.13-2.36.27-.16.47-.1.71.04.89.55,1.77,1.11,2.68,1.63,2.88,1.62,5.93,2.81,9.13,3.62,1.97.5,3.96.8,5.98.99,2.05.19,4.1.2,6.14.04,2.69-.22,5.35-.66,7.97-1.37,1.61-.44,3.18-.99,4.75-1.58.22-.08.45-.17.67-.32-.08-.01-.17-.03-.25-.04-.96-.07-1.92-.13-2.88-.21-1.16-.09-2.33-.17-3.49-.29-1.23-.13-2.46-.26-3.68-.45-1.57-.24-3.14-.49-4.69-.79-3.56-.69-7.06-1.6-10.49-2.8-3.68-1.29-7.25-2.85-10.6-4.86-2.82-1.68-5.45-3.62-7.8-5.93-1.08-1.06-2.08-2.18-2.9-3.46-.03-.04-.07-.08-.12-.14-.21.36-.21.74-.22,1.12-.06,1.46.24,2.87.75,4.22.34.91.76,1.8,1.15,2.69.07.17.16.34.24.54-.12.04-.2.09-.29.1-1.93.35-3.87.53-5.84.41-3.21-.19-6.19-1.11-8.82-3.01-.47-.34-.89-.76-1.32-1.15-.1-.09-.16-.21-.28-.37-.23.44-.42.79-.59,1.14-1.97,4.05-5.01,7.01-9.1,8.89-.41.19-.83.34-1.25.5-.14.05-.28.08-.52.14.26-.52.5-.95.69-1.39.2-.45.38-.9.52-1.37.15-.48.28-.96.38-1.46.1-.49.17-.99.22-1.49.05-.49.08-.97.09-1.46.02-.5,0-1,0-1.59-.12.12-.19.17-.24.24-2.18,2.92-4.47,5.74-6.99,8.38-.66.69-1.28,1.4-1.96,2.07-2.47,2.47-5.11,4.76-7.95,6.8-2.12,1.52-4.35,2.87-6.75,3.93-1.92.85-3.89,1.53-5.97,1.85-.55.09-1.11.11-1.66.16-.09,0-.18-.02-.26-.03-.05-.18.08-.24.18-.3,1.51-.88,2.82-2.03,4.12-3.18,2.18-1.93,4.09-4.12,5.9-6.4,3.18-4,5.87-8.31,8.29-12.81,1.4-2.61,2.72-5.25,3.83-8,.48-1.18,1.19-2.2,2.21-2.97,1.65-1.22,3.45-1.57,5.42-.93.3.1.58.22.87.34.74.3,1.5.45,2.3.45,1.37,0,2.69-.3,4.01-.64.06-.02.12-.05.25-.1-.17-.07-.28-.13-.4-.17-3.62-1.14-6.64-3.24-9.35-5.83-.31-.3-.43-.61-.43-1.04,0-1.43.19-2.84.45-4.24.56-2.99,1.28-5.94,2.11-8.86.94-3.31,1.94-6.61,2.91-9.91.06-.19.13-.38.21-.57.17-.43.17-.43-.19-.76-.71-.64-1.49-1.17-2.33-1.62-1.55-.83-3.21-1.31-4.93-1.63-2.01-.38-4.05-.44-6.09-.36-.6.02-1.19.07-1.79.1-.11,0-.21,0-.34,0,0-.07-.01-.13,0-.17.45-1.3.85-2.61,1.35-3.88,1.14-2.93,2.72-5.61,4.67-8.08,1.59-2,2.77-4.21,3.35-6.72.22-.95.37-1.92.39-2.9,0-.04-.01-.08-.03-.14-.48.08-.95.18-1.43.23-.49.05-.97-.04-1.48-.17.04-.13.06-.24.11-.35.86-2.04,1.43-4.15,1.83-6.32.12-.67.49-1.04,1.1-1.2.59-.16,1.19-.23,1.81-.18,2.51.21,4.95.83,7.39,1.38,1.76.4,3.52.77,5.29,1.14,1.22.25,2.41.19,3.62-.18,1.76-.53,3.45-1.23,5.11-2,3.79-1.76,7.58-3.53,11.36-5.3,1.4-.66,2.84-1.23,4.32-1.67,1.4-.41,2.83-.67,4.28-.72,1.27-.05,2.52.15,3.72.57.42.14.79.34.99.78.59,1.25,1.56,2.17,2.68,2.95,1.54,1.07,3.22,1.84,4.98,2.48.12.05.25.1.35.14-.13.84-.25,1.65-.37,2.51.34-.03.63-.04.9-.08,1.99-.3,4-.31,6.01-.43,1.87-.11,3.75-.12,5.62-.04,1.61.06,3.23.17,4.83.31,2.92.25,5.66,1.09,8.21,2.55,1.46.84,2.89,1.73,4.29,2.66.26.17.38.37.37.69-.01.76,0,1.52,0,2.27h1.6v3.58h-1.62v1.68c-.16.01-.32.03-.48.03-1.18-.01-2.32.18-3.45.51-.53.16-1.06.32-1.61.45-.98.23-1.97.16-2.95.04-3.22-.38-6.28-1.35-9.31-2.42-.38-.14-.77-.28-1.15-.41-.01,0-.02-.02-.07-.07.08-.09.17-.18.26-.26,1.45-1.2,3.05-2.17,4.78-2.93,2.35-1.03,4.79-1.73,7.32-2.17.25-.04.51-.07.77-.11Zm-32.85,14.74c-1.02-.22-2.06-.38-3.1-.46-1.62-.12-3.25-.16-4.88-.21-.72-.02-1.44.03-2.16.07-1.91.1-3.82.21-5.73.34-1.08.08-2.16.19-3.22.45-1.46.36-2.65,1.09-3.45,2.4-.08.13-.16.25-.24.38-.81,1.39-1.63,2.79-2.44,4.19-.51.87-1,1.76-1.55,2.71.61-.35,1.14-.67,1.69-.96.54-.29,1.08-.61,1.74-.76-.03.1-.03.15-.05.2-.57,1.21-.98,2.47-1.3,3.76-.39,1.6-.64,3.22-.54,4.88.04.58.23,1.08.59,1.53.52.66,1.18,1.16,1.91,1.56,1.24.68,2.56,1.12,3.95,1.35.82.14,1.63.25,2.47.11,1-.16,1.96-.44,2.9-.8,1.96-.77,3.9-1.57,5.85-2.37.4-.16.77-.38,1.23-.6-1.46.2-2.82.43-4.18.58-1.74.19-3.48.37-5.23.47-1.3.08-2.48-.16-3.57-.86-.64-.41-1.27-.85-1.71-1.48-.37-.52-.32-.89.22-1.24.38-.24.81-.44,1.25-.58,1.29-.43,2.63-.67,3.97-.87,1.34-.19,2.69-.35,4.04-.51,1.44-.17,2.88-.34,4.33-.46,1.08-.09,2.17-.12,3.25-.14,2.04-.03,4.07-.04,6.11-.06.17,0,.34-.02.6-.03-.13-.19-.19-.33-.29-.42-.33-.28-.65-.58-1.01-.81-.72-.45-1.53-.69-2.35-.9-1.84-.47-3.73-.74-5.61-.96-1.94-.23-3.9-.33-5.85-.33-2.12,0-4.24.04-6.35.07-.17,0-.33-.01-.57-.02.3-.52.52-.98.82-1.4.29-.41.61-.8.98-1.14,1.14-1.06,2.5-1.69,4.04-1.85,1.62-.17,3.24-.34,4.87-.39,1.75-.06,3.5,0,5.25.04,1.68.04,3.36.14,5.05.17,1.2.02,2.38.16,3.55.42,2.33.51,4.58,1.26,6.7,2.36.03.02.07,0,.18.02-.21-.28-.36-.55-.57-.75-.62-.61-1.23-1.23-1.9-1.77-1.74-1.4-3.68-2.49-5.7-3.45-1.28-.61-2.57-1.19-3.96-1.48Z" style="fill:#fff;"/></g></g></g></svg>