<?xml version="1.0" encoding="UTF-8" standalone="no"?>
<svg
   width="256"
   height="256"
   version="1.1"
   viewBox="0 0 256 256"
   id="svg10"
   sodipodi:docname="ic_launcher_omega.svg"
   inkscape:version="1.2 (dc2aedaf03, 2022-05-15)"
   inkscape:export-filename="ic_launcher_omega.png"
   inkscape:export-xdpi="96"
   inkscape:export-ydpi="96"
   xmlns:inkscape="http://www.inkscape.org/namespaces/inkscape"
   xmlns:sodipodi="http://sodipodi.sourceforge.net/DTD/sodipodi-0.dtd"
   xmlns="http://www.w3.org/2000/svg"
   xmlns:svg="http://www.w3.org/2000/svg">
  <defs
     id="defs14" />
  <sodipodi:namedview
     id="namedview12"
     pagecolor="#505050"
     bordercolor="#eeeeee"
     borderopacity="1"
     inkscape:showpageshadow="0"
     inkscape:pageopacity="0"
     inkscape:pagecheckerboard="0"
     inkscape:deskcolor="#505050"
     showgrid="false"
     inkscape:zoom="1.7383042"
     inkscape:cx="-90.030272"
     inkscape:cy="138.06559"
     inkscape:window-width="1884"
     inkscape:window-height="1052"
     inkscape:window-x="36"
     inkscape:window-y="0"
     inkscape:window-maximized="1"
     inkscape:current-layer="svg10" />
  <rect
     x="2e-06"
     y="2e-06"
     width="256"
     height="256"
     rx="0"
     opacity="0.63"
     style="opacity:1;fill:#56595b;stroke-width:1.68421"
     id="rect2"
     ry="0" />
  <g
     id="g239"
     transform="matrix(1.3705052,0,0,1.3705052,-47.424664,-47.424666)"
     style="stroke-width:0.729658">
    <circle
       cx="128.0547"
       cy="82.73558"
       r="9.0200424"
       style="fill:#9abeff;stroke-width:1.2546;paint-order:stroke fill markers"
       id="circle4" />
    <path
       d="m 123.73422,72.23916 c 0,0 -8.05403,3.379644 -7.448,11.548092 0.56991,7.680439 7.99619,8.952202 7.99619,8.952202 0,0 -20.85372,-1.018317 -21.56807,21.252316 -0.45428,14.1432 22.43717,39.10639 15.82825,58.12499 -2.21558,6.37507 -9.81505,11.65266 -16.56449,11.64407 -30.601391,-0.0388 -35.451783,-20.07059 -35.451783,-20.07059 0,0 7.608691,1.73288 15.223166,1.7829 7.614475,0.05 15.234734,0.0405 17.113148,-4.83585 2.014879,-5.2307 -16.927135,-30.2153 -16.564489,-46.74072 0.893157,-40.722658 41.435448,-41.655847 41.435448,-41.655847 z"
       style="fill:#9abeff;stroke-width:1.14055"
       id="path6" />
    <path
       d="m 132.26578,72.23916 c 0,0 8.05403,3.379644 7.448,11.548092 -0.5699,7.680439 -7.99619,8.952202 -7.99619,8.952202 0,0 20.85372,-1.018317 21.56807,21.252316 0.45428,14.1432 -22.43717,39.10639 -15.82826,58.12499 2.21558,6.37507 9.81505,11.65266 16.56449,11.64407 30.6014,-0.0388 35.45179,-20.07059 35.45179,-20.07059 0,0 -7.60869,1.73288 -15.22317,1.7829 -7.61447,0.05 -15.23473,0.0405 -17.11314,-4.83585 -2.01488,-5.2307 16.92713,-30.2153 16.56449,-46.74072 C 172.8087,73.173912 132.26641,72.240723 132.26641,72.240723 Z"
       style="fill:#9abeff;stroke-width:1.14055"
       id="path8" />
  </g>
</svg>
