<?xml version="1.0" encoding="UTF-8" standalone="no"?>
<svg
   xml:space="preserve"
   width="256"
   height="256"
   style="clip-rule:evenodd;fill-rule:evenodd;stroke-linejoin:round;stroke-miterlimit:2"
   version="1.1"
   id="svg19"
   sodipodi:docname="ic_launcher_smart.svg"
   inkscape:version="1.2.2 (b0a8486541, 2022-12-01)"
   xmlns:inkscape="http://www.inkscape.org/namespaces/inkscape"
   xmlns:sodipodi="http://sodipodi.sourceforge.net/DTD/sodipodi-0.dtd"
   xmlns:xlink="http://www.w3.org/1999/xlink"
   xmlns="http://www.w3.org/2000/svg"
   xmlns:svg="http://www.w3.org/2000/svg"><sodipodi:namedview
     id="namedview21"
     pagecolor="#505050"
     bordercolor="#eeeeee"
     borderopacity="1"
     inkscape:showpageshadow="0"
     inkscape:pageopacity="0"
     inkscape:pagecheckerboard="0"
     inkscape:deskcolor="#d1d1d1"
     showgrid="false"
     inkscape:zoom="1.3037281"
     inkscape:cx="-66.348189"
     inkscape:cy="147.65348"
     inkscape:window-width="1884"
     inkscape:window-height="1055"
     inkscape:window-x="36"
     inkscape:window-y="0"
     inkscape:window-maximized="1"
     inkscape:current-layer="svg19" /><path
     d="M 0,-1.5e-6 H 256 V 256 H 0 Z"
     style="fill:#56595b;fill-opacity:1;fill-rule:evenodd;stroke-width:3.16475;stroke-linecap:round;stroke-linejoin:round;stroke-dashoffset:6;stop-color:#000000"
     id="path2" /><path
     fill-rule="evenodd"
     clip-rule="evenodd"
     d="m 116.60873,141.90605 c 1.70877,-5.63809 5.96011,-11.32064 13.84803,-15.77419 4.47739,-2.52847 8.84693,-5.00326 13.04675,-7.38806 -2.5382,6.229 -7.3013,11.97064 -14.36033,15.98833 l -0.006,0.004 z m -17.655367,10.10518 c -4.812542,-2.75669 -9.814474,-5.62291 -14.023706,-8.03536 l -20.342188,11.64321 c -4.36311,2.46341 -7.140749,7.0693 -7.140749,12.25906 0,2.52357 0.750152,4.93494 1.835222,6.91098 1.07247,1.95329 2.758741,3.9971 5.137761,5.34698 l 50.027027,28.69465 v 5.2e-4 l 0.0657,0.037 c 4.18302,2.33981 8.88759,3.38176 13.87675,3.38176 4.99297,0 9.7013,-1.04303 13.91362,-3.35411 l 0.0563,-0.0309 0.0556,-0.0322 c 4.52024,-2.58972 11.30172,-6.54559 20.12588,-11.69305 l 0.01,-0.004 c 6.43395,-3.75314 13.95376,-8.13945 22.47376,-13.09178 20.212,-11.58247 26.59554,-37.62395 15.41476,-57.06831 -3.84367,-6.68331 -9.31857,-11.85354 -15.54054,-15.38385 -1.88387,-1.06907 -7.70898,-4.35869 -14.5029,-8.19366 -4.13966,2.3745 -8.88867,5.0927 -14.08493,8.05758 9.55984,5.39521 19.19336,10.83381 21.70881,12.26068 4.19444,2.37993 7.81039,5.81862 10.33451,10.20874 7.43961,12.93724 3.09283,30.38171 -10.27486,38.03219 v -5.5e-4 l -0.0401,0.0236 c -8.61109,5.00489 -16.16722,9.41236 -22.60877,13.16982 -8.72278,5.08837 -15.40063,8.98409 -19.88184,11.55212 -1.84269,0.99913 -4.15973,1.60795 -7.15822,1.60795 -3.01312,0 -5.28354,-0.61424 -7.04272,-1.59167 L 71.543808,168.15136 c -0.01454,-0.0208 -0.02638,-0.0446 -0.04279,-0.0716 -0.02638,-0.0462 -0.04806,-0.0937 -0.06771,-0.14197 -0.02054,-0.0483 -0.0334,-0.0894 -0.0422,-0.1214 0.0013,-0.007 0.0025,-0.011 0.003,-0.0161 l 0.0028,-0.01 8.77e-4,-0.001 0.0011,-0.001 0.0058,-0.004 c 0.003,-0.004 0.01454,-0.0138 0.03781,-0.0268 h 1.16e-4 l 0.04981,-0.0281 z m -27.561789,15.80509 c 0,0 0,0 0,0 -0.0088,-0.0274 -0.0088,-0.0422 -0.0088,-0.0422 l 1.75e-4,10e-4 c 7.04e-4,0.004 0.0058,0.0394 0.0058,0.10291 0,-0.0286 0.0022,-0.0487 0.0058,-0.0618 z"
     fill="url(#paint0_linear_787_28642)"
     id="path639"
     style="fill:url(#linearGradient649);stroke-width:5.42124;stroke-linejoin:round;stroke-miterlimit:2" /><path
     fill-rule="evenodd"
     clip-rule="evenodd"
     d="m 156.1182,111.56444 21.03823,11.89746 0.11422,0.0646 0.11657,0.0601 c 2.95839,1.52933 5.54703,3.54278 7.76483,6.0951 -3.67233,0.47816 -7.11155,1.98309 -10.01572,3.87619 l -40.67497,23.32544 v 0 l -0.0639,0.0374 c -1.28592,0.75573 -3.65228,1.41007 -6.55157,1.422 -2.88193,0.011 -5.36105,-0.61585 -6.8519,-1.46643 -0.81916,-0.46731 -2.30727,-1.32062 -4.2535,-2.43902 2.05464,6.15961 6.8996,10.59853 12.20917,10.60829 0.27751,0 1.35909,-0.0237 1.35909,-0.0237 -4.94037,0.50038 -8.62734,-0.26346 -12.61252,-2.29101 -0.43478,-0.22113 -34.500107,-19.74794 -41.744532,-23.90116 l -5.047154,5.3101 0.02054,0.011 0.08058,0.0466 0.314696,0.1812 1.199649,0.69119 4.324662,2.49107 c 3.603428,2.07526 8.467197,4.87587 13.508426,7.7784 10.073153,5.7991 20.880403,12.01672 23.733053,13.64471 4.18357,2.38752 9.24864,3.31781 13.81764,3.29883 4.53814,-0.0185 9.51321,-0.97798 13.52277,-3.32267 l 40.83009,-23.41542 0.19781,-0.1134 0.18951,-0.12581 c 3.39366,-2.25306 5.52095,-2.08825 6.94567,-1.27236 1.25395,0.71776 2.19291,2.00368 2.39458,4.75659 l 13.92171,-0.50742 c 10e-4,-7.96057 -1.96575,-15.38495 -6.06852,-22.05903 -4.00086,-6.50821 -9.35164,-11.53153 -15.92653,-14.95775 l -13.713,-7.75453 c -4.14399,2.37667 -8.89028,5.09326 -14.07898,8.05326 z"
     fill="url(#paint1_linear_787_28642)"
     id="path641"
     style="fill:url(#linearGradient651);stroke-width:5.42124;stroke-linejoin:round;stroke-miterlimit:2" /><path
     fill-rule="evenodd"
     clip-rule="evenodd"
     d="m 130.45512,126.13023 c -24.1966,13.66261 -14.00252,39.00855 -1.3374,39.0324 0.2781,0 1.27399,0 1.27399,0 -4.94037,0.50038 -8.71194,-0.40606 -12.69765,-2.4336 -0.48627,-0.24776 -43.089212,-24.67205 -43.089212,-24.67205 -5.233759,-2.95296 -9.686185,-7.42549 -12.918802,-12.94377 C 51.93967,108.47434 58.094953,86.940783 74.976217,77.334343 L 117.91958,52.92634 c 2.98658,-1.470781 6.40197,-2.206171 10.24616,-2.206171 3.84367,0 7.51439,0.887563 11.01109,2.662696 l 47.24179,26.618078 c 3.03101,1.510305 5.14368,3.858025 5.14368,7.073364 0,2.813898 -1.61771,4.963371 -4.05346,6.468304 0,0 -25.90975,15.003279 -57.05372,32.587619 z"
     stroke="url(#paint2_linear_787_28642)"
     stroke-width="13.9403"
     id="path643"
     style="fill:none;stroke:#ffffff;stroke-linejoin:round;stroke-miterlimit:2;stroke-opacity:1" /><defs
     id="defs17"><linearGradient
       id="linearGradient17148"
       x1="29.835199"
       y1="20.5221"
       x2="18.612"
       y2="34.0522"
       gradientUnits="userSpaceOnUse"><stop
         stop-color="#0629DB"
         id="stop17144"
         offset="0"
         style="stop-color:#9abeff;stop-opacity:1;" /><stop
         offset="1"
         stop-color="#111191"
         id="stop17146"
         style="stop-color:#ababff;stop-opacity:1;" /></linearGradient><linearGradient
       id="linearGradient17142"
       x1="28.2917"
       y1="19.5194"
       x2="18.869499"
       y2="24.938499"
       gradientUnits="userSpaceOnUse"><stop
         stop-color="#0629DA"
         id="stop17138"
         offset="0"
         style="stop-color:#9abeff;stop-opacity:1;" /><stop
         offset="1"
         stop-color="#166DFA"
         id="stop17140"
         style="stop-color:#ffffff;stop-opacity:1;" /></linearGradient><linearGradient
       inkscape:collect="always"
       xlink:href="#linearGradient17148"
       id="linearGradient649"
       gradientUnits="userSpaceOnUse"
       x1="29.835199"
       y1="20.5221"
       x2="18.612"
       y2="34.0522"
       gradientTransform="matrix(5.4212415,0,0,5.4212415,41.680676,36.690589)" /><linearGradient
       inkscape:collect="always"
       xlink:href="#linearGradient17142"
       id="linearGradient651"
       gradientUnits="userSpaceOnUse"
       x1="28.2917"
       y1="19.5194"
       x2="18.869499"
       y2="24.938499"
       gradientTransform="matrix(5.4212415,0,0,5.4212415,41.680676,36.690589)" /></defs><style
     type="text/css"
     id="style3535">
	.st0{fill:url(#SVGID_1_);}
	.st1{fill:#FFFFFF;}
</style></svg>
