<svg xmlns="http://www.w3.org/2000/svg" xml:space="preserve" width="256" height="256" fill="none"><path d="M0 0h256v256H0z" style="fill:#9abeff;fill-opacity:1;fill-rule:evenodd;stroke-width:4.10946;stroke-linecap:round;stroke-linejoin:round;stroke-dashoffset:6;stop-color:#000"/><path fill="#fff" fill-rule="evenodd" d="M127.726 118.975v31.997h37.475c-7.66 12.308-21.063 20.238-37.201 20.238-24.892 0-43.493-18.323-43.493-43.21s18.6-43.21 43.493-43.21c17.506 0 31.73 9.024 38.841 23.245l36.109-18.323C189 62.364 160.55 43.767 128 43.767c-46.775 0-84.25 37.74-84.25 84.233 0 46.49 37.475 84.233 84.25 84.233 46.501 0 84.25-37.742 84.25-84.233v-9.025z" clip-rule="evenodd" style="stroke-width:1.54228"/></svg>