<svg xmlns="http://www.w3.org/2000/svg" xml:space="preserve" width="256" height="256" style="clip-rule:evenodd;fill-rule:evenodd;stroke-linejoin:round;stroke-miterlimit:2"><path d="M0 0h256v256H0z" style="fill:#fff;fill-opacity:1;fill-rule:evenodd;stroke-width:7.49206;stroke-linecap:round;stroke-linejoin:round;stroke-dashoffset:6;stop-color:#000"/><path d="M176.474 82.37v67.452h-17.12v15.284h-6.263v7.51l-.077.032h-10.455v3.25A67.031 67.031 0 0 1 128 177.489a66.605 66.605 0 0 1-25.07-4.865v1.442H88.68v11.719H73.821V82.37Zm-73.545 30.365c.554 13.358 11.575 24.036 25.071 24.036 13.848 0 25.091-11.244 25.091-25.092 0-13.85-11.243-25.093-25.09-25.093-13.497 0-24.518 10.678-25.072 24.036z" style="fill:#8c72bd;stroke-width:1.16021"/><path d="M102.93 172.624v20.42c0 10.607-8.6 19.206-19.207 19.206h-3.387c-10.607 0-19.206-8.6-19.206-19.207V110.62c0-36.907 29.963-66.87 66.87-66.87 16.55 0 31.701 6.025 43.379 15.994-.192-.049-59.437-14.976-68.05 47.339-.249 1.25-.4 65.54-.4 65.54z" style="fill:#9abeff;stroke-width:1.16021"/><path d="M128.584 86.604a10.652 10.652 0 0 0-.584-.018c-12.283 0-22.518 8.846-24.673 20.508l.001-.011c8.613-62.315 67.858-47.388 68.05-47.338-.338-.29.345.281 0 0 14.964 12.27 23.492 30.038 23.492 50.876 0 33.81-25.147 61.793-57.743 66.25.18-.134 49.669-34.39 10.551-80.754l-.044-.052c-4.487-5.629-11.342-9.288-19.05-9.46Z" style="fill:#bd9aff;stroke-width:1.16021"/><path d="M176.474 82.37v67.452h-17.12v15.284h-6.263v7.51l-.077.032h-10.455v3.25A67.031 67.031 0 0 1 128 177.489a66.605 66.605 0 0 1-25.07-4.865v1.442H88.68v11.719H73.821V82.37Zm-73.545 30.365c.554 13.358 11.575 24.036 25.071 24.036 13.848 0 25.091-11.244 25.091-25.092 0-13.85-11.243-25.093-25.09-25.093-13.497 0-24.518 10.678-25.072 24.036z" style="fill:#8c72bd;stroke-width:1.16021"/><path d="M102.93 172.624v20.42c0 10.607-8.6 19.206-19.207 19.206h-3.387c-10.607 0-19.206-8.6-19.206-19.207V110.62c0-36.907 29.963-66.87 66.87-66.87 16.55 0 31.701 6.025 43.379 15.994-.192-.049-59.437-14.976-68.05 47.339-.249 1.25-.4 65.54-.4 65.54z" style="fill:#9abeff;stroke-width:1.16021"/><path d="M128.584 86.604a10.652 10.652 0 0 0-.584-.018c-12.283 0-22.518 8.846-24.673 20.508l.001-.011c8.613-62.315 67.858-47.388 68.05-47.338-.338-.29.345.281 0 0 14.964 12.27 23.492 30.038 23.492 50.876 0 33.81-25.147 61.793-57.743 66.25.18-.134 49.669-34.39 10.551-80.754l-.044-.052c-4.487-5.629-11.342-9.288-19.05-9.46Z" style="fill:#bd9aff;stroke-width:1.16021"/><path d="M176.474 82.37v67.452h-17.12v15.284h-6.263v7.51l-.077.032h-10.455v3.25A67.031 67.031 0 0 1 128 177.489a66.605 66.605 0 0 1-25.07-4.865v1.442H88.68v11.719H73.821V82.37Zm-73.545 30.365c.554 13.358 11.575 24.036 25.071 24.036 13.848 0 25.091-11.244 25.091-25.092 0-13.85-11.243-25.093-25.09-25.093-13.497 0-24.518 10.678-25.072 24.036z" style="fill:#8c72bd;stroke-width:1.16021"/><path d="M102.93 172.624v20.42c0 10.607-8.6 19.206-19.207 19.206h-3.387c-10.607 0-19.206-8.6-19.206-19.207V110.62c0-36.907 29.963-66.87 66.87-66.87 16.55 0 31.701 6.025 43.379 15.994-.192-.049-59.437-14.976-68.05 47.339-.249 1.25-.4 65.54-.4 65.54z" style="fill:#9abeff;stroke-width:1.16021"/><path d="M128.584 86.604a10.652 10.652 0 0 0-.584-.018c-12.283 0-22.518 8.846-24.673 20.508l.001-.011c8.613-62.315 67.858-47.388 68.05-47.338-.338-.29.345.281 0 0 14.964 12.27 23.492 30.038 23.492 50.876 0 33.81-25.147 61.793-57.743 66.25.18-.134 49.669-34.39 10.551-80.754l-.044-.052c-4.487-5.629-11.342-9.288-19.05-9.46Z" style="fill:#bd9aff;stroke-width:1.16021"/></svg>