<svg xmlns="http://www.w3.org/2000/svg" xml:space="preserve" width="256" height="256" style="clip-rule:evenodd;fill-rule:evenodd;stroke-linejoin:round;stroke-miterlimit:2"><path d="M0 0h256v256H0z" style="fill:#fff;fill-rule:evenodd;stroke-width:3.16475;stroke-linecap:round;stroke-linejoin:round;stroke-dashoffset:6;stop-color:#000"/><g style="stroke-width:.729658"><path d="m71.871 96.303 3.11 15.677c6.253 10.942 17.126 6.163 17.126 6.163s24.035 2.08 37.51 2.08c13.448 0 3.67 15.806 3.644 15.861-8.257 12.438-27.129 12.161-27.129 12.161H75.833a17.588 17.588 0 0 1-15.261-8.844 680285.42 680285.42 0 0 1-20.003-34.912 5.398 5.398 0 0 1 4.657-8.082z" style="fill:#728dbe;stroke-width:.729658" transform="rotate(-30 108.003 160.033) scale(1.47384)"/><path d="M74.47 82.007 126.262 96c6.264 9.573 10.794 18.888 10.794 26.349 0 5.766-1.48 10.248-3.795 13.735.026-.055 6.449-13.735-6.999-13.735H90.5s-9.266.573-15.519-10.369z" style="fill:url(#a);stroke-width:.729658" transform="rotate(-30 108.003 160.033) scale(1.47384)"/><path d="M96 122.357c-22.626.353-15.752-2.702-29.93-26.357-27.944-46.62 11.622-51.772 13.217-51.772h34.422a22.027 22.027 0 0 1 18.951 10.799l15.952 26.925A9.306 9.306 0 0 1 140.606 96H96c-19.6 0-21.468 26.274 0 26.357z" style="fill:#9abeff;stroke-width:.729658" transform="rotate(-30 108.003 160.033) scale(1.47384)"/></g><defs><linearGradient id="a" x1="0" x2="1" y1="0" y2="0" gradientTransform="rotate(-179.828 68.614 56.766) scale(59.91457)" gradientUnits="userSpaceOnUse"><stop offset="0" style="stop-color:#728dbe;stop-opacity:1"/><stop offset="1" style="stop-color:#9abeff;stop-opacity:1"/></linearGradient></defs></svg>