<?xml version="1.0" encoding="UTF-8" standalone="no"?>
<svg
   width="256"
   height="256"
   viewBox="0 0 256 256"
   version="1.1"
   xml:space="preserve"
   style="clip-rule:evenodd;fill-rule:evenodd;stroke-linejoin:round;stroke-miterlimit:2"
   id="svg15"
   sodipodi:docname="ic_launcher_poco.svg"
   inkscape:version="1.2 (dc2aedaf03, 2022-05-15)"
   inkscape:export-filename="ic_launcher_poco.png"
   inkscape:export-xdpi="96"
   inkscape:export-ydpi="96"
   xmlns:inkscape="http://www.inkscape.org/namespaces/inkscape"
   xmlns:sodipodi="http://sodipodi.sourceforge.net/DTD/sodipodi-0.dtd"
   xmlns="http://www.w3.org/2000/svg"
   xmlns:svg="http://www.w3.org/2000/svg"><defs
   id="defs19">
        
        
    
            
            
            
        </defs><sodipodi:namedview
   id="namedview17"
   pagecolor="#505050"
   bordercolor="#eeeeee"
   borderopacity="1"
   inkscape:showpageshadow="0"
   inkscape:pageopacity="0"
   inkscape:pagecheckerboard="0"
   inkscape:deskcolor="#505050"
   showgrid="false"
   inkscape:zoom="1.7383041"
   inkscape:cx="-9.2043731"
   inkscape:cy="131.73759"
   inkscape:window-width="1884"
   inkscape:window-height="1052"
   inkscape:window-x="36"
   inkscape:window-y="0"
   inkscape:window-maximized="1"
   inkscape:current-layer="svg15" />
    <rect
   style="fill:#ffffff;fill-opacity:1;fill-rule:evenodd;stroke-width:7.49206;stroke-linecap:round;stroke-linejoin:round;stroke-dashoffset:6;stop-color:#000000"
   id="rect360"
   width="256"
   height="256"
   x="2e-06"
   y="2e-06" /><path
   d="m 176.4735,82.369617 v 67.452463 h -17.11874 v 15.28379 h -6.2633 v 7.5099 l -0.0777,0.0318 h -10.45473 v 3.25011 c -4.68437,1.04149 -9.55795,1.59166 -14.55871,1.59166 -8.86466,0 -17.3302,-1.7284 -25.07068,-4.86562 v 1.44221 h -14.2503 v 11.71882 H 73.821575 V 82.369617 Z m -73.54406,30.365623 c 0.55335,13.35819 11.57415,24.03553 25.07068,24.03553 13.84794,0 25.09134,-11.2434 25.09134,-25.09134 0,-13.849531 -11.2434,-25.092941 -25.09134,-25.092941 -13.49653,0 -24.51733,10.677336 -25.07068,24.035541 z"
   style="fill:#8c72bd;stroke-width:1.16021"
   id="path6" /><path
   d="m 102.92944,172.62373 c 0,0 0,20.41971 0,20.41971 0,10.60738 -8.599113,19.20649 -19.206483,19.20649 -1.125771,0 -2.259494,0 -3.386853,0 -10.607375,0 -19.206489,-8.59911 -19.206489,-19.20649 v -82.423 c 0,-36.90718 29.963332,-66.870507 66.870505,-66.870507 16.54947,0 31.70127,6.024785 43.37877,15.994542 -0.19228,-0.04931 -59.43691,-14.976896 -68.05033,47.338045 -0.24806,1.24981 -0.39912,65.54121 -0.39912,65.54121 z"
   style="fill:#9abeff;stroke-width:1.16021"
   id="path8" /><path
   d="m 128.58368,86.60398 c -0.20195,-0.0111 -0.39593,-0.01754 -0.58356,-0.01754 -12.28331,0 -22.51861,8.84557 -24.67315,20.50717 l 10e-4,-0.011 c 8.61342,-62.314936 67.85794,-47.387334 68.05033,-47.33804 -0.33869,-0.289396 0.34505,0.281442 0,0 14.96418,12.270589 23.49173,30.038065 23.49173,50.87596 0,33.80972 -25.14701,61.7934 -57.74349,66.25037 0.18126,-0.13362 49.66911,-34.39008 10.55173,-80.753421 l -0.0446,-0.05249 C 143.14692,90.436161 136.29212,86.7774 128.58344,86.604083 Z"
   style="fill:#bd9aff;stroke-width:1.16021"
   id="path10" />
<path
   d="m 176.4735,82.369617 v 67.452463 h -17.11874 v 15.28379 h -6.2633 v 7.5099 l -0.0777,0.0318 h -10.45473 v 3.25011 c -4.68437,1.04149 -9.55795,1.59166 -14.55871,1.59166 -8.86466,0 -17.3302,-1.7284 -25.07068,-4.86562 v 1.44221 h -14.2503 v 11.71882 H 73.821575 V 82.369617 Z m -73.54406,30.365623 c 0.55335,13.35819 11.57415,24.03553 25.07068,24.03553 13.84794,0 25.09134,-11.2434 25.09134,-25.09134 0,-13.849531 -11.2434,-25.092941 -25.09134,-25.092941 -13.49653,0 -24.51733,10.677336 -25.07068,24.035541 z"
   style="fill:#8c72bd;stroke-width:1.16021"
   id="path244" /><path
   d="m 102.92944,172.62373 c 0,0 0,20.41971 0,20.41971 0,10.60738 -8.599113,19.20649 -19.206483,19.20649 -1.125771,0 -2.259494,0 -3.386853,0 -10.607375,0 -19.206489,-8.59911 -19.206489,-19.20649 v -82.423 c 0,-36.90718 29.963332,-66.870507 66.870505,-66.870507 16.54947,0 31.70127,6.024785 43.37877,15.994542 -0.19228,-0.04931 -59.43691,-14.976896 -68.05033,47.338045 -0.24806,1.24981 -0.39912,65.54121 -0.39912,65.54121 z"
   style="fill:#9abeff;stroke-width:1.16021"
   id="path246" /><path
   d="m 128.58368,86.60398 c -0.20195,-0.0111 -0.39593,-0.01754 -0.58356,-0.01754 -12.28331,0 -22.51861,8.84557 -24.67315,20.50717 l 10e-4,-0.011 c 8.61342,-62.314936 67.85794,-47.387334 68.05033,-47.33804 -0.33869,-0.289396 0.34505,0.281442 0,0 14.96418,12.270589 23.49173,30.038065 23.49173,50.87596 0,33.80972 -25.14701,61.7934 -57.74349,66.25037 0.18126,-0.13362 49.66911,-34.39008 10.55173,-80.753421 l -0.0446,-0.05249 C 143.14692,90.436161 136.29212,86.7774 128.58344,86.604083 Z"
   style="fill:#bd9aff;stroke-width:1.16021"
   id="path248" /><path
   d="m 176.4735,82.369617 v 67.452463 h -17.11874 v 15.28379 h -6.2633 v 7.5099 l -0.0777,0.0318 h -10.45473 v 3.25011 c -4.68437,1.04149 -9.55795,1.59166 -14.55871,1.59166 -8.86466,0 -17.3302,-1.7284 -25.07068,-4.86562 v 1.44221 h -14.2503 v 11.71882 H 73.821575 V 82.369617 Z m -73.54406,30.365623 c 0.55335,13.35819 11.57415,24.03553 25.07068,24.03553 13.84794,0 25.09134,-11.2434 25.09134,-25.09134 0,-13.849531 -11.2434,-25.092941 -25.09134,-25.092941 -13.49653,0 -24.51733,10.677336 -25.07068,24.035541 z"
   style="fill:#8c72bd;stroke-width:1.16021"
   id="path250" /><path
   d="m 102.92944,172.62373 c 0,0 0,20.41971 0,20.41971 0,10.60738 -8.599113,19.20649 -19.206483,19.20649 -1.125771,0 -2.259494,0 -3.386853,0 -10.607375,0 -19.206489,-8.59911 -19.206489,-19.20649 v -82.423 c 0,-36.90718 29.963332,-66.870507 66.870505,-66.870507 16.54947,0 31.70127,6.024785 43.37877,15.994542 -0.19228,-0.04931 -59.43691,-14.976896 -68.05033,47.338045 -0.24806,1.24981 -0.39912,65.54121 -0.39912,65.54121 z"
   style="fill:#9abeff;stroke-width:1.16021"
   id="path252" /><path
   d="m 128.58368,86.60398 c -0.20195,-0.0111 -0.39593,-0.01754 -0.58356,-0.01754 -12.28331,0 -22.51861,8.84557 -24.67315,20.50717 l 10e-4,-0.011 c 8.61342,-62.314936 67.85794,-47.387334 68.05033,-47.33804 -0.33869,-0.289396 0.34505,0.281442 0,0 14.96418,12.270589 23.49173,30.038065 23.49173,50.87596 0,33.80972 -25.14701,61.7934 -57.74349,66.25037 0.18126,-0.13362 49.66911,-34.39008 10.55173,-80.753421 l -0.0446,-0.05249 C 143.14692,90.436161 136.29212,86.7774 128.58344,86.604083 Z"
   style="fill:#bd9aff;stroke-width:1.16021"
   id="path254" /></svg>
