<?xml version="1.0" encoding="UTF-8" standalone="no"?>
<svg
   xmlns:dc="http://purl.org/dc/elements/1.1/"
   xmlns:cc="http://creativecommons.org/ns#"
   xmlns:rdf="http://www.w3.org/1999/02/22-rdf-syntax-ns#"
   xmlns:svg="http://www.w3.org/2000/svg"
   xmlns="http://www.w3.org/2000/svg"
   xmlns:sodipodi="http://sodipodi.sourceforge.net/DTD/sodipodi-0.dtd"
   xmlns:inkscape="http://www.inkscape.org/namespaces/inkscape"
   viewBox="0 0 192 192"
   version="1.1"
   id="svg16"
   sodipodi:docname="3c-sett.svg"
   inkscape:version="0.92.4 (5da689c313, 2019-01-14)">
  <metadata
     id="metadata20">
    <rdf:RDF>
      <cc:Work
         rdf:about="">
        <dc:format>image/svg+xml</dc:format>
        <dc:type
           rdf:resource="http://purl.org/dc/dcmitype/StillImage" />
        <dc:title></dc:title>
      </cc:Work>
    </rdf:RDF>
  </metadata>
  <sodipodi:namedview
     pagecolor="#ffffff"
     bordercolor="#666666"
     borderopacity="1"
     objecttolerance="10"
     gridtolerance="10"
     guidetolerance="10"
     inkscape:pageopacity="0"
     inkscape:pageshadow="2"
     inkscape:window-width="1920"
     inkscape:window-height="1017"
     id="namedview18"
     showgrid="true"
     inkscape:zoom="4.9166667"
     inkscape:cx="95.787749"
     inkscape:cy="93.402596"
     inkscape:window-x="-8"
     inkscape:window-y="-8"
     inkscape:window-maximized="1"
     inkscape:current-layer="svg16"
     inkscape:snap-global="false">
    <inkscape:grid
       type="xygrid"
       id="grid827"
       spacingx="4"
       spacingy="4" />
  </sodipodi:namedview>
  <defs
     id="defs4">
    <style
       id="style2">.a{fill:none;stroke:#b1b5bd;stroke-linecap:round;stroke-linejoin:round;isolation:isolate;opacity:0.63;}</style>
  </defs>
  <path
     id="path847"
     style="font-style:normal;font-variant:normal;font-weight:500;font-stretch:normal;font-size:168.37748718px;line-height:1.25;font-family:Now;-inkscape-font-specification:'Now Medium';letter-spacing:0px;word-spacing:0px;fill:#ffffff;fill-opacity:1;stroke:none;stroke-width:4.20943689"
     d="M 47.956653,83.520276 88.36725,32.165142 H 7.967 V 50.897138 H 52.166091 L 14.491628,99.937081 h 0.631415 33.465026 c 11.575952,0 20.626242,7.787459 20.626242,19.573879 0,11.9969 -8.839818,21.25766 -20.836714,21.25766 -10.734065,0 -19.994826,-7.57699 -19.994826,-17.46916 L 7.967,123.50993 c 0,20.41577 18.10058,36.6221 40.200125,36.6221 23.362377,0 41.042013,-17.89011 41.042013,-39.77918 0,-23.151904 -18.311052,-37.674462 -41.252485,-36.832574 z"
     inkscape:connector-curvature="0" />
  <rect
     style="opacity:1;vector-effect:none;fill:#9abeff;fill-opacity:1;fill-rule:evenodd;stroke:none;stroke-width:8;stroke-linecap:round;stroke-linejoin:round;stroke-miterlimit:4;stroke-dasharray:none;paint-order:stroke fill markers"
     id="rect862"
     width="96"
     height="96"
     x="80"
     y="48"
     ry="46" />
  <path
     inkscape:connector-curvature="0"
     d="m 121.02098,124.07959 c -0.67668,0.61324 -1.88776,0.78141 -2.70538,0.37546 l -6.25233,-3.10413 c -0.81748,-0.40585 -1.43363,-1.47167 -1.37605,-2.38398 l 0.22649,-3.58673 c 0.0575,-0.91075 -0.35851,-2.22514 -0.92837,-2.9347 l -1.6773,-2.08847 c -0.57025,-0.71004 -1.75989,-1.404 -2.66589,-1.55145 l -3.23939,-0.52721 c -0.90211,-0.14681 -1.78402,-0.98915 -1.9696,-1.87999 l -1.494559,-7.175442 c -0.185687,-0.891496 0.270547,-2.038386 1.017539,-2.560602 l 2.4068,-1.682651 c 0.74768,-0.522713 1.5128,-1.671253 1.70773,-2.559543 l 0.63257,-2.882964 c 0.19548,-0.8909 -0.009,-2.259051 -0.45449,-3.052124 l -1.27157,-2.263412 c -0.4465,-0.794758 -0.33998,-2.012382 0.23723,-2.718824 l 4.84321,-5.927555 c 0.57752,-0.70684 1.75652,-1.069642 2.63008,-0.811375 l 2.18438,0.645816 c 0.87505,0.258707 2.2493,0.142359 3.06977,-0.259999 l 2.97636,-1.459636 c 0.82034,-0.402284 1.76422,-1.415133 2.10655,-2.258127 l 0.80945,-1.993351 c 0.34309,-0.844845 1.36251,-1.532785 2.2736,-1.536552 l 7.73248,-0.03203 c 0.9126,-0.0038 1.9313,0.67998 2.27447,1.525121 l 0.79236,1.951226 c 0.34356,0.846066 1.2904,1.853728 2.11129,2.248942 l 3.15729,1.520131 c 0.82244,0.395975 2.2014,0.506424 3.073,0.248742 l 2.19579,-0.649187 c 0.8747,-0.258607 2.05414,0.101395 2.63656,0.806784 l 4.77679,5.785486 c 0.58142,0.704196 0.68979,1.92116 0.24297,2.716479 l -1.24648,2.218645 c -0.44725,0.796078 -0.64994,2.163602 -0.45329,3.051991 l 0.72924,3.294301 c 0.1969,0.88948 0.96114,2.03323 1.70884,2.555975 l 2.39161,1.672012 c 0.74685,0.522151 1.19962,1.67165 1.01212,2.563541 l -1.46664,6.975552 c -0.18789,0.89364 -1.07285,1.73734 -1.97129,1.88357 l -3.23482,0.52647 c -0.90082,0.14661 -2.09514,0.83745 -2.67092,1.54712 l -1.89781,2.33914 c -0.57428,0.70784 -0.99321,2.01998 -0.93586,2.92836 l 0.22386,3.54511 c 0.0575,0.90943 -0.56279,1.97151 -1.37928,2.3693 l -6.20211,3.02153 c -0.8192,0.39911 -2.03257,0.22482 -2.70836,-0.38759 l -2.77498,-2.51487 c -0.67658,-0.61314 -1.9656,-1.06673 -2.87269,-1.01343 l 0.39043,-0.0229 c -0.90997,0.0534 -2.38259,0.0506 -3.29817,-0.007 l 0.19976,0.0125 c -0.91155,-0.0572 -2.19697,0.39161 -2.87573,1.00676 l -2.7473,2.48977 z"
     style="fill:#ffffff;fill-rule:evenodd;stroke-width:0.3303915"
     id="path2" />
  <path
     id="path849"
     style="font-style:normal;font-variant:normal;font-weight:500;font-stretch:normal;font-size:168.37748718px;line-height:1.25;font-family:Now;-inkscape-font-specification:'Now Medium';letter-spacing:0px;word-spacing:0px;fill:#ffffff;fill-opacity:1;stroke:none;stroke-width:4.14294291"
     d="m 128,159.48398 c 24.23622,0 45.15808,-13.46456 55.92973,-33.35069 l -17.40035,-9.32162 c -7.25016,13.67171 -21.75046,22.57904 -38.52938,22.57904 -24.44336,0 -43.708048,-19.05754 -43.708048,-43.708049 0,-24.650511 19.264688,-43.708049 43.708048,-43.708049 16.77892,0 31.27922,8.907326 38.52938,22.579039 l 17.40035,-9.321622 C 173.15808,45.345902 152.23622,31.881337 128,31.881337 c -35.21502,0 -63.801321,28.586308 -63.801321,63.801324 0,35.215019 28.586301,63.801319 63.801321,63.801319 z"
     inkscape:connector-curvature="0" />
  <circle
     cx="128.09508"
     cy="96.189392"
     r="11.916315"
     style="fill:#9abeff;fill-rule:evenodd;stroke-width:0.34046614"
     id="circle6" />
</svg>
