<svg xmlns="http://www.w3.org/2000/svg" width="192" height="192"><path d="M90.558 10.679a9.786 9.786 0 0 1 9.848.028l65.736 38.507A9.834 9.834 0 0 1 171 57.7v76.2a9.834 9.834 0 0 1-4.858 8.487l-65.736 38.507a9.783 9.783 0 0 1-9.848.027l-66.652-38.543A9.834 9.834 0 0 1 19 133.864V57.737a9.833 9.833 0 0 1 4.906-8.514z" style="clip-rule:evenodd;fill-rule:evenodd;fill:#98dc9a;stroke-width:.98179"/><path d="M90.558 10.679a9.786 9.786 0 0 1 9.848.028l65.736 38.507A9.834 9.834 0 0 1 171 57.7v76.2a9.834 9.834 0 0 1-4.858 8.487l-65.736 38.507a9.783 9.783 0 0 1-9.848.027l-66.652-38.543A9.834 9.834 0 0 1 19 133.864V57.737a9.833 9.833 0 0 1 4.906-8.514z" style="clip-rule:evenodd;fill-rule:evenodd;fill:#fff;opacity:.25"/><path d="M170.05 53.664 94.51 95.309v86.806c2.02.198 4.087-.16 5.9-1.221l65.733-38.504a9.833 9.833 0 0 0 4.857-8.485v-76.21c0-1.426-.38-2.774-.95-4.031z" style="clip-rule:evenodd;fill-rule:evenodd;fill:#71a372;stroke-width:.98179"/><path d="M19.781 54.11c-.459 1.146-.781 2.35-.781 3.625v76.132a9.822 9.822 0 0 0 4.903 8.508l66.653 38.55c1.231.713 2.584 1.057 3.953 1.19V95.31z" style="clip-rule:evenodd;fill-rule:evenodd;fill:#98dc9a;stroke-width:.98179"/><path d="m91.994 127.61-9.192-9.193-7.059 7.058-2.12-2.121-29.359 29.358c-3.71 3.71-3.71 9.725 0 13.435s9.725 3.71 13.435 0l29.358-29.358-2.121-2.121z" style="clip-rule:evenodd;fill-rule:evenodd;fill:#56595b"/><ellipse cx="112.21" cy="96.648" rx="36.674" ry="36.098" style="fill:#fff;opacity:.25;paint-order:stroke fill markers"/><path d="M112.5 55.031c-10.631 0-21.263 4.043-29.346 12.125-16.165 16.165-16.165 42.525 0 58.689 16.165 16.165 42.525 16.165 58.689 0 16.166-16.165 16.166-42.525 0-58.689-8.082-8.082-18.713-12.125-29.344-12.125zm0 9.938c8.051 0 16.102 3.086 22.273 9.257a31.423 31.423 0 0 1 0 44.547v.002a31.424 31.424 0 0 1-44.547 0 31.427 31.427 0 0 1 0-44.549c6.172-6.171 14.222-9.258 22.273-9.258z" style="color-rendering:auto;color:#000;dominant-baseline:auto;fill:#83868c;font-feature-settings:normal;font-variant-alternates:normal;font-variant-caps:normal;font-variant-ligatures:normal;font-variant-numeric:normal;font-variant-position:normal;image-rendering:auto;isolation:auto;mix-blend-mode:normal;shape-padding:0;shape-rendering:auto;solid-color:#000;text-decoration-color:#000;text-decoration-line:none;text-decoration-style:solid;text-indent:0;text-orientation:mixed;text-transform:none;white-space:normal"/></svg>