<?xml version="1.0" encoding="UTF-8" standalone="no"?>
<svg
   width="192"
   height="192"
   viewBox="0 0 50.800003 50.8"
   version="1.1"
   id="svg1407"
   sodipodi:docname="three_d_geeks.svg"
   inkscape:version="1.2 (dc2aedaf03, 2022-05-15)"
   inkscape:export-filename="G:\My Drive\delta-icons\3d_geeks\3d_geeks.png"
   inkscape:export-xdpi="96"
   inkscape:export-ydpi="96"
   xmlns:inkscape="http://www.inkscape.org/namespaces/inkscape"
   xmlns:sodipodi="http://sodipodi.sourceforge.net/DTD/sodipodi-0.dtd"
   xmlns="http://www.w3.org/2000/svg"
   xmlns:svg="http://www.w3.org/2000/svg"
   xmlns:rdf="http://www.w3.org/1999/02/22-rdf-syntax-ns#"
   xmlns:cc="http://creativecommons.org/ns#"
   xmlns:dc="http://purl.org/dc/elements/1.1/">
  <sodipodi:namedview
     pagecolor="#ffffff"
     bordercolor="#666666"
     borderopacity="1"
     objecttolerance="10"
     gridtolerance="10"
     guidetolerance="10"
     inkscape:pageopacity="0"
     inkscape:pageshadow="2"
     inkscape:window-width="1680"
     inkscape:window-height="1022"
     id="namedview103"
     showgrid="false"
     inkscape:zoom="2.9943522"
     inkscape:cx="33.563186"
     inkscape:cy="113.5471"
     inkscape:window-x="1920"
     inkscape:window-y="0"
     inkscape:window-maximized="1"
     inkscape:current-layer="svg1407"
     inkscape:document-rotation="0"
     showguides="false"
     fit-margin-top="40"
     fit-margin-left="40"
     fit-margin-right="40"
     fit-margin-bottom="40"
     lock-margins="true"
     inkscape:showpageshadow="0"
     inkscape:pagecheckerboard="0"
     inkscape:deskcolor="#d1d1d1" />
  <defs
     id="defs1401" />
  <metadata
     id="metadata1404">
    <rdf:RDF>
      <cc:Work
         rdf:about="">
        <dc:format>image/svg+xml</dc:format>
        <dc:type
           rdf:resource="http://purl.org/dc/dcmitype/StillImage" />
        <dc:title />
      </cc:Work>
    </rdf:RDF>
  </metadata>
  <g
     id="g4180"
     transform="translate(-84.699719,-58.884724)">
    <rect
       style="opacity:1;fill:#56595b;fill-opacity:1;fill-rule:evenodd;stroke:none;stroke-width:0.262854;stroke-opacity:1"
       width="40.216667"
       height="40.216667"
       x="89.991386"
       y="64.176392"
       rx="2.6285403"
       id="rect981"
       ry="2.6285403" />
    <g
       id="g4107"
       transform="matrix(0.65582734,0,0,0.65582734,-5.6083548,98.359387)">
      <g
         id="g4095">
        <g
           id="g4050"
           style="opacity:1">
          <path
             style="color:#000000;font-style:normal;font-variant:normal;font-weight:normal;font-stretch:normal;font-size:medium;line-height:normal;font-family:sans-serif;font-variant-ligatures:normal;font-variant-position:normal;font-variant-caps:normal;font-variant-numeric:normal;font-variant-alternates:normal;font-variant-east-asian:normal;font-feature-settings:normal;font-variation-settings:normal;text-indent:0;text-align:start;text-decoration:none;text-decoration-line:none;text-decoration-style:solid;text-decoration-color:#000000;letter-spacing:normal;word-spacing:normal;text-transform:none;writing-mode:lr-tb;direction:ltr;text-orientation:mixed;dominant-baseline:auto;baseline-shift:baseline;text-anchor:start;white-space:normal;shape-padding:0;shape-margin:0;inline-size:0;clip-rule:nonzero;display:inline;overflow:visible;visibility:visible;isolation:auto;mix-blend-mode:normal;color-interpolation:sRGB;color-interpolation-filters:linearRGB;solid-color:#000000;solid-opacity:1;vector-effect:none;fill:#97db99;fill-opacity:1;fill-rule:nonzero;stroke:none;stroke-width:0.079375;stroke-linecap:square;stroke-linejoin:miter;stroke-miterlimit:4;stroke-dasharray:none;stroke-dashoffset:0;stroke-opacity:1;color-rendering:auto;image-rendering:auto;shape-rendering:auto;text-rendering:auto;enable-background:accumulate;stop-color:#000000;stop-opacity:1"
             d="m 162.11902,-28.319635 h 10.0971 c 1.4862,0 3.0917,1.276749 3.0917,2.119722 v 3.713029 c -0.9057,3.05022 -1.412,4.861382 -2.42163,6.108801 -1.00962,1.247419 -2.19124,1.725385 -3.18835,1.732283 l -6.38595,0.04418 c -0.99711,0.0069 -2.9921,-1.272111 -3.75284,-2.779265 -0.4858,-0.962455 -0.99347,-4.432305 -1.03979,-5.017638 l -0.17672,-2.232986 c -0.11526,-1.456379 1.62758,-3.688126 3.77648,-3.688126 z"
             id="path4052" />
          <path
             style="color:#000000;font-style:normal;font-variant:normal;font-weight:normal;font-stretch:normal;font-size:medium;line-height:normal;font-family:sans-serif;font-variant-ligatures:normal;font-variant-position:normal;font-variant-caps:normal;font-variant-numeric:normal;font-variant-alternates:normal;font-variant-east-asian:normal;font-feature-settings:normal;font-variation-settings:normal;text-indent:0;text-align:start;text-decoration:none;text-decoration-line:none;text-decoration-style:solid;text-decoration-color:#000000;letter-spacing:normal;word-spacing:normal;text-transform:none;writing-mode:lr-tb;direction:ltr;text-orientation:mixed;dominant-baseline:auto;baseline-shift:baseline;text-anchor:start;white-space:normal;shape-padding:0;shape-margin:0;inline-size:0;clip-rule:nonzero;display:inline;overflow:visible;visibility:visible;isolation:auto;mix-blend-mode:normal;color-interpolation:sRGB;color-interpolation-filters:linearRGB;solid-color:#000000;solid-opacity:1;vector-effect:none;fill:#97db99;fill-opacity:1;fill-rule:nonzero;stroke:none;stroke-width:0.079375;stroke-linecap:square;stroke-linejoin:miter;stroke-miterlimit:4;stroke-dasharray:none;stroke-dashoffset:0;stroke-opacity:1;color-rendering:auto;image-rendering:auto;shape-rendering:auto;text-rendering:auto;enable-background:accumulate;stop-color:#000000;stop-opacity:1"
             d="m 162.11914,-28.359375 c -1.08819,0 -2.0698,0.564228 -2.76562,1.310547 -0.69583,0.746318 -1.10978,1.674459 -1.05079,2.419922 l 0.17774,2.234375 c 0.0236,0.297885 0.16183,1.309057 0.35547,2.371093 0.19363,1.062037 0.43846,2.166766 0.6875,2.660157 0.38462,0.762004 1.07808,1.462393 1.80078,1.972656 0.7227,0.510263 1.47257,0.831694 1.98828,0.828125 l 6.38477,-0.04297 c 1.00957,-0.007 2.20467,-0.492711 3.2207,-1.748047 1.01737,-1.256978 1.5221,-3.073067 2.42773,-6.123046 l 0.002,-0.0039 v -3.71875 c 0,-0.446682 -0.41297,-0.979488 -1.00586,-1.408203 -0.5929,-0.428715 -1.37054,-0.751953 -2.125,-0.751953 z m 0,0.08008 h 10.09766 c 0.73173,0 1.49867,0.315926 2.08008,0.736328 0.5814,0.420403 0.9707,0.94746 0.9707,1.34375 v 3.707031 c -0.90443,3.046086 -1.41101,4.852963 -2.41211,6.089844 -1.00321,1.239502 -2.17356,1.709985 -3.1582,1.716797 l -6.38477,0.04492 c -0.4814,0.0033 -1.2291,-0.310147 -1.94336,-0.814453 -0.71426,-0.504306 -1.39927,-1.198209 -1.77539,-1.94336 -0.23676,-0.469064 -0.48646,-1.580789 -0.67969,-2.640624 -0.19323,-1.059836 -0.33272,-2.075834 -0.35547,-2.363282 l -0.17578,-2.232422 c -0.0563,-0.710916 0.34334,-1.625725 1.02735,-2.359375 0.68401,-0.733649 1.64827,-1.285156 2.70898,-1.285156 z"
             id="path4054" />
        </g>
        <g
           id="g4044"
           style="opacity:1">
          <path
             style="color:#000000;font-style:normal;font-variant:normal;font-weight:normal;font-stretch:normal;font-size:medium;line-height:normal;font-family:sans-serif;font-variant-ligatures:normal;font-variant-position:normal;font-variant-caps:normal;font-variant-numeric:normal;font-variant-alternates:normal;font-variant-east-asian:normal;font-feature-settings:normal;font-variation-settings:normal;text-indent:0;text-align:start;text-decoration:none;text-decoration-line:none;text-decoration-style:solid;text-decoration-color:#000000;letter-spacing:normal;word-spacing:normal;text-transform:none;writing-mode:lr-tb;direction:ltr;text-orientation:mixed;dominant-baseline:auto;baseline-shift:baseline;text-anchor:start;white-space:normal;shape-padding:0;shape-margin:0;inline-size:0;clip-rule:nonzero;display:inline;overflow:visible;visibility:visible;isolation:auto;mix-blend-mode:normal;color-interpolation:sRGB;color-interpolation-filters:linearRGB;solid-color:#000000;solid-opacity:1;vector-effect:none;fill:#97db99;fill-opacity:1;fill-rule:nonzero;stroke:none;stroke-width:0.079375;stroke-linecap:square;stroke-linejoin:miter;stroke-miterlimit:4;stroke-dasharray:none;stroke-dashoffset:0;stroke-opacity:1;color-rendering:auto;image-rendering:auto;shape-rendering:auto;text-rendering:auto;enable-background:accumulate;stop-color:#000000;stop-opacity:1"
             d="m 190.74271,-28.319635 h -10.0971 c -1.4862,0 -3.0917,1.276749 -3.0917,2.119722 v 3.713029 c 0.9057,3.05022 1.412,4.861382 2.42163,6.108801 1.00962,1.247419 2.19124,1.725385 3.18835,1.732283 l 6.38595,0.04418 c 0.99711,0.0069 2.9921,-1.272111 3.75284,-2.779265 0.4858,-0.962455 0.99347,-4.432305 1.03979,-5.017638 l 0.17672,-2.232986 c 0.11526,-1.456379 -1.62758,-3.688126 -3.77648,-3.688126 z"
             id="path4046" />
          <path
             style="color:#000000;font-style:normal;font-variant:normal;font-weight:normal;font-stretch:normal;font-size:medium;line-height:normal;font-family:sans-serif;font-variant-ligatures:normal;font-variant-position:normal;font-variant-caps:normal;font-variant-numeric:normal;font-variant-alternates:normal;font-variant-east-asian:normal;font-feature-settings:normal;font-variation-settings:normal;text-indent:0;text-align:start;text-decoration:none;text-decoration-line:none;text-decoration-style:solid;text-decoration-color:#000000;letter-spacing:normal;word-spacing:normal;text-transform:none;writing-mode:lr-tb;direction:ltr;text-orientation:mixed;dominant-baseline:auto;baseline-shift:baseline;text-anchor:start;white-space:normal;shape-padding:0;shape-margin:0;inline-size:0;clip-rule:nonzero;display:inline;overflow:visible;visibility:visible;isolation:auto;mix-blend-mode:normal;color-interpolation:sRGB;color-interpolation-filters:linearRGB;solid-color:#000000;solid-opacity:1;vector-effect:none;fill:#97db99;fill-opacity:1;fill-rule:nonzero;stroke:none;stroke-width:0.079375;stroke-linecap:square;stroke-linejoin:miter;stroke-miterlimit:4;stroke-dasharray:none;stroke-dashoffset:0;stroke-opacity:1;color-rendering:auto;image-rendering:auto;shape-rendering:auto;text-rendering:auto;enable-background:accumulate;stop-color:#000000;stop-opacity:1"
             d="m 180.64648,-28.359375 c -0.75446,0 -1.53405,0.323238 -2.12695,0.751953 -0.5929,0.428715 -1.00586,0.961521 -1.00586,1.408203 v 3.71875 l 0.002,0.0039 c 0.90563,3.049979 1.41233,4.866068 2.42969,6.123046 1.01603,1.255336 2.20918,1.741063 3.21875,1.748047 l 6.38477,0.04297 c 0.5157,0.0036 1.26558,-0.317862 1.98828,-0.828125 0.7227,-0.510263 1.41616,-1.210652 1.80078,-1.972656 0.24904,-0.493391 0.49582,-1.59812 0.68945,-2.660157 0.19364,-1.062036 0.3319,-2.073208 0.35547,-2.371093 l 0.17578,-2.234375 c 0.059,-0.745463 -0.353,-1.673604 -1.04882,-2.419922 -0.69583,-0.746319 -1.67939,-1.310547 -2.76758,-1.310547 z m 0,0.08008 h 10.09571 c 1.06071,0 2.02497,0.551507 2.70898,1.285156 0.68401,0.73365 1.08556,1.648459 1.0293,2.359375 l -0.17774,2.232422 c -0.0227,0.287448 -0.16028,1.303446 -0.35351,2.363282 -0.19323,1.059835 -0.44488,2.17156 -0.68164,2.640624 -0.37612,0.745151 -1.06113,1.439054 -1.77539,1.94336 -0.71426,0.504306 -1.46,0.817784 -1.94141,0.814453 l -6.38672,-0.04492 c -0.98464,-0.0068 -2.15499,-0.477295 -3.1582,-1.716797 -1.0011,-1.236881 -1.50768,-3.043758 -2.41211,-6.089844 v -3.707031 c 0,-0.39629 0.39125,-0.923347 0.97266,-1.34375 0.5814,-0.420402 1.34834,-0.736328 2.08007,-0.736328 z"
             id="path4048" />
        </g>
      </g>
      <path
         id="rect3989"
         style="fill:#56595b;fill-opacity:1;stroke:none;stroke-width:0.079375;stroke-linecap:square"
         d="m 162.39463,-25.33585 h 9.41966 c 0.50586,0 1.07976,0.456546 0.9131,0.963833 l -1.74513,5.311845 c -0.18748,0.57068 -1.33502,1.471908 -1.84088,1.471908 h -5.2667 c -0.50585,0 -1.4399,-0.581394 -1.53163,-1.107419 l -0.96092,-5.510658 c -0.0917,-0.526025 0.50665,-1.129509 1.0125,-1.129509 z"
         sodipodi:nodetypes="sssssssss" />
      <path
         id="rect3989-0"
         style="fill:#56595b;fill-opacity:1;stroke:none;stroke-width:0.079375;stroke-linecap:square;stroke-opacity:1"
         d="m 190.4671,-25.33585 h -9.41966 c -0.50586,0 -1.07976,0.456546 -0.9131,0.963833 l 1.74513,5.311845 c 0.18748,0.57068 1.33502,1.471908 1.84088,1.471908 h 5.2667 c 0.50585,0 1.4399,-0.581394 1.53163,-1.107419 l 0.96092,-5.510658 c 0.0917,-0.526025 -0.50665,-1.129509 -1.0125,-1.129509 z"
         sodipodi:nodetypes="sssssssss" />
      <path
         id="rect4078"
         style="fill:#97db99;fill-opacity:1;stroke:#97db99;stroke-width:0.264583;stroke-linecap:round;stroke-miterlimit:4;stroke-dasharray:none;stroke-opacity:1"
         d="m 175.89891,-26.288677 h 1.06352 c 0.50586,0 0.9131,0.234805 0.9131,0.526469 v 3.74244 c 0,0.291664 -0.40724,-1.098024 -0.9131,-1.098024 h -1.06352 c -0.50586,0 -0.9131,1.389688 -0.9131,1.098024 v -3.74244 c 0,-0.291664 0.40724,-0.526469 0.9131,-0.526469 z"
         sodipodi:nodetypes="sssssssss" />
    </g>
  </g>
</svg>
