<?xml version="1.0" encoding="UTF-8" standalone="no"?>
<svg
   width="192"
   height="192"
   version="1.1"
   viewBox="0 0 192 192"
   id="svg18"
   sodipodi:docname="fifty_two_weeks.svg"
   xml:space="preserve"
   inkscape:version="1.2 (dc2aedaf03, 2022-05-15)"
   inkscape:export-filename="fifty_two_weeks.png"
   inkscape:export-xdpi="96"
   inkscape:export-ydpi="96"
   xmlns:inkscape="http://www.inkscape.org/namespaces/inkscape"
   xmlns:sodipodi="http://sodipodi.sourceforge.net/DTD/sodipodi-0.dtd"
   xmlns="http://www.w3.org/2000/svg"
   xmlns:svg="http://www.w3.org/2000/svg"><defs
     id="defs22" /><sodipodi:namedview
     id="namedview20"
     pagecolor="#505050"
     bordercolor="#eeeeee"
     borderopacity="1"
     inkscape:showpageshadow="0"
     inkscape:pageopacity="0"
     inkscape:pagecheckerboard="0"
     inkscape:deskcolor="#505050"
     showgrid="false"
     inkscape:zoom="3.4766083"
     inkscape:cx="-1.5820016"
     inkscape:cy="101.82338"
     inkscape:window-width="1680"
     inkscape:window-height="1022"
     inkscape:window-x="1920"
     inkscape:window-y="0"
     inkscape:window-maximized="1"
     inkscape:current-layer="svg18" /><g
     id="g259"
     transform="matrix(0.8974359,0,0,0.8974359,9.8461536,8.0512818)"><path
       d="m 16,20 c 0,0 -8,20 -8,36 0,12 8,24 8,24 0,0 -8,20 -8,40 0,56 68,56 88,56 20,0 88,0 88,-56 0,-20 -8,-40 -8,-40 0,0 8,-12 8,-24 0,-16 -8,-36 -8,-36 0,0 -20,4 -40,16 C 116,28 100,28 96,28 92,28 76,28 56,36 36,24 16,20 16,20 Z"
       style="fill:#ffb0ac"
       id="path2" /><path
       d="m 20,72 c -4,-24 0,-36 0,-36 0,0 8,0 24,8 0,0 -12,8 -24,28 z"
       style="fill:#ff837d"
       id="path4" /><circle
       cx="42"
       cy="98"
       r="10"
       style="fill:#56595b;paint-order:stroke fill markers"
       id="circle6" /><path
       d="m 96,100 c -28,0 -48,4 -48,24 0,22.627 12,48 48,48 36,0 48,-25.373 48,-48 0,-20 -20,-24 -48,-24 z"
       style="fill:#ff837d"
       id="path8" /><rect
       x="68"
       y="120"
       width="12"
       height="24"
       ry="6"
       style="fill:#ba6561;paint-order:stroke fill markers"
       id="rect10" /><path
       d="m 172,72 c 4,-24 0,-36 0,-36 0,0 -8,0 -24,8 0,0 12,8 24,28 z"
       style="fill:#ff837d"
       id="path12" /><circle
       transform="scale(-1,1)"
       cx="-150"
       cy="98"
       r="10"
       style="fill:#56595b;paint-order:stroke fill markers"
       id="circle14" /><rect
       transform="scale(-1,1)"
       x="-124"
       y="120"
       width="12"
       height="24"
       ry="6"
       style="fill:#ba6561;paint-order:stroke fill markers"
       id="rect16" /></g></svg>
