<svg xmlns="http://www.w3.org/2000/svg" viewBox="0 0 192 192"><rect width="152" height="152" x="20" y="20" rx="10" style="fill:#ba6561;stroke:none;opacity:1;stroke-linecap:round;stroke-linejoin:round;isolation:isolate"/><path d="M56.09 45.305 20 59.104V162c0 5.54 4.46 10 10 10h118.256l-21.983-65.715-20.423-46.023-22.147-13.23-27.613-1.727z" style="fill:#ccc;stroke:none;stroke-width:1px;stroke-linecap:butt;stroke-linejoin:miter;stroke-opacity:1"/><path d="M66.176 40.959c-8.08-.07-16.56 1.356-25.186 4.3-6.144 2.098-15.153 5.99-20.99 8.575v8.754c4.799-2.147 16.829-7.455 23.574-9.758 15.721-5.367 30.217-5.044 42.21.145 11.991 5.188 21.663 15.266 27.56 30.32 10.65 27.19 27.462 77.938 31.011 88.705h8.428c-1.651-5.03-20.408-62.053-31.99-91.623-6.549-16.718-17.785-28.667-31.832-34.744-7.023-3.039-14.705-4.604-22.785-4.674z" style="color:#000;font-style:normal;font-variant:normal;font-weight:400;font-stretch:normal;font-size:medium;line-height:normal;font-family:sans-serif;font-variant-ligatures:normal;font-variant-position:normal;font-variant-caps:normal;font-variant-numeric:normal;font-variant-alternates:normal;font-feature-settings:normal;text-indent:0;text-align:start;text-decoration:none;text-decoration-line:none;text-decoration-style:solid;text-decoration-color:#000;letter-spacing:normal;word-spacing:normal;text-transform:none;writing-mode:lr-tb;direction:ltr;text-orientation:mixed;dominant-baseline:auto;baseline-shift:baseline;text-anchor:start;white-space:normal;shape-padding:0;clip-rule:nonzero;display:inline;overflow:visible;visibility:visible;opacity:1;isolation:auto;mix-blend-mode:normal;color-interpolation:sRGB;color-interpolation-filters:linearRGB;solid-color:#000;solid-opacity:1;vector-effect:none;fill:#a0a5af;fill-opacity:1;fill-rule:nonzero;stroke:none;stroke-width:8;stroke-linecap:round;stroke-linejoin:round;stroke-miterlimit:4;stroke-dasharray:none;stroke-dashoffset:0;stroke-opacity:1;color-rendering:auto;image-rendering:auto;shape-rendering:auto;text-rendering:auto;enable-background:accumulate"/><rect width="7.047" height="9.343" x="43.937" y="47.641" ry="2.622" style="opacity:1;vector-effect:none;fill:#a0a5af;fill-opacity:1;fill-rule:evenodd;stroke:none;stroke-width:4.40449429;stroke-linecap:round;stroke-linejoin:round;stroke-miterlimit:4;stroke-dasharray:none;paint-order:stroke fill markers" transform="rotate(-3.484)"/><rect width="7.613" height="9.166" x="57.694" y="41.105" ry="2.622" style="opacity:1;vector-effect:none;fill:#a0a5af;fill-opacity:1;fill-rule:evenodd;stroke:none;stroke-width:4.40449429;stroke-linecap:round;stroke-linejoin:round;stroke-miterlimit:4;stroke-dasharray:none;paint-order:stroke fill markers" transform="rotate(3.406)"/><rect width="7.6" height="10.182" x="69.384" y="36.124" ry="2.622" style="opacity:1;vector-effect:none;fill:#a0a5af;fill-opacity:1;fill-rule:evenodd;stroke:none;stroke-width:4.40449429;stroke-linecap:round;stroke-linejoin:round;stroke-miterlimit:4;stroke-dasharray:none;paint-order:stroke fill markers" transform="rotate(7.435)"/><rect width="7.905" height="11.449" x="86.286" y="17.439" ry="2.622" style="opacity:1;vector-effect:none;fill:#a0a5af;fill-opacity:1;fill-rule:evenodd;stroke:none;stroke-width:4.40449429;stroke-linecap:round;stroke-linejoin:round;stroke-miterlimit:4;stroke-dasharray:none;paint-order:stroke fill markers" transform="rotate(19.847)"/><rect width="8.34" height="12.039" x="97.983" y="8.735" ry="2.622" style="opacity:1;vector-effect:none;fill:#a0a5af;fill-opacity:1;fill-rule:evenodd;stroke:none;stroke-width:4.40449429;stroke-linecap:round;stroke-linejoin:round;stroke-miterlimit:4;stroke-dasharray:none;paint-order:stroke fill markers" transform="rotate(25.13)"/><rect width="7.905" height="11.449" x="109.146" y="-2.617" ry="2.622" style="opacity:1;vector-effect:none;fill:#a0a5af;fill-opacity:1;fill-rule:evenodd;stroke:none;stroke-width:4.40449429;stroke-linecap:round;stroke-linejoin:round;stroke-miterlimit:4;stroke-dasharray:none;paint-order:stroke fill markers" transform="rotate(31.127)"/><rect width="7.1" height="11.33" x="119.168" y="-13.871" ry="2.622" style="opacity:1;vector-effect:none;fill:#a0a5af;fill-opacity:1;fill-rule:evenodd;stroke:none;stroke-width:4.40449429;stroke-linecap:round;stroke-linejoin:round;stroke-miterlimit:4;stroke-dasharray:none;paint-order:stroke fill markers" transform="rotate(36.606)"/><rect width="7.613" height="9.166" x="122.387" y="-42.723" ry="2.622" style="opacity:1;vector-effect:none;fill:#a0a5af;fill-opacity:1;fill-rule:evenodd;stroke:none;stroke-width:4.40449429;stroke-linecap:round;stroke-linejoin:round;stroke-miterlimit:4;stroke-dasharray:none;paint-order:stroke fill markers" transform="rotate(50.473)"/><rect width="6.243" height="8.642" x="125.287" y="-58.868" ry="2.577" style="opacity:1;vector-effect:none;fill:#a0a5af;fill-opacity:1;fill-rule:evenodd;stroke:none;stroke-width:4.40449429;stroke-linecap:round;stroke-linejoin:round;stroke-miterlimit:4;stroke-dasharray:none;paint-order:stroke fill markers" transform="rotate(57.771)"/><path d="M60.26 72.918s-20.633 19.675-32.647 32.791c-2.505 2.735 4.17 3.309 4.17 3.309s23.71-9.932 35.092-1.582c8.397 6.16 10.791 16.925 9.924 29.625-.89 13.031-12.252 30.088-15.656 34.939H77.84c2.274-3.84 10.474-18.568 10.752-31.918.374-18.012-5.537-29.724-18.985-37.537-13.029-7.57-33.941 1.15-33.941 1.15L57.24 82.986l39.117 18.985-.43-13.088L60.26 72.918z" style="fill:#a0a5af;stroke:none;stroke-width:1px;stroke-linecap:butt;stroke-linejoin:miter;stroke-opacity:1"/></svg>