<svg xmlns="http://www.w3.org/2000/svg" id="svg2" width="192" height="192" version="1.1"><defs id="defs4"><style id="style6" type="text/css">.fil1,.fil3{fill:#008061;fill-rule:nonzero}.fil3{fill:#ed1b2d}.fil2{fill:#f5821f}.fil0,.fil2{fill-rule:nonzero}.fil0,.st0{fill:#fff}</style></defs><g id="layer1" transform="translate(0 -860.362)"><path id="path1280" d="M114.876 1032.862H78.818a3.99 3.99 0 0 1-3.99-3.99v-1.455a1.614 1.614 0 0 0-1.614-1.614H44.865c-3.041 0-5.519-3.179-5.519-7.099L26.32 886.966c0-3.922 3.042-7.104 6.795-7.104H158.91c3.73 0 6.77 3.182 6.77 7.104l-12.878 131.738c0 3.92-2.478 7.1-5.52 7.1l-26.801.012a1.615 1.615 0 0 0-1.614 1.615v1.441a3.99 3.99 0 0 1-3.99 3.99z" style="fill:#fff;fill-rule:nonzero;stroke-width:.628998"/><path id="path1282" d="M133.447 899.15c-8.292 3.109-33.534 20.2-39.838 31.69h-41.31a3 3 0 0 1-3-2.993l-.06-25.704a2.986 2.986 0 0 1 2.986-2.992z" style="fill:#f8c18c;fill-opacity:1;fill-rule:nonzero;stroke-width:.628998"/><path id="path1284" d="M116.349 989.952c-1.12 10.693-1.24 23.556-1.25 37.137a2.994 2.994 0 0 1-2.994 2.993H81.59a2.98 2.98 0 0 1-2.985-2.993c.078-13.581.687-26.444 1.807-37.137z" style="fill:#ff837d;fill-opacity:1;fill-rule:nonzero;stroke-width:.628998"/><path id="path1286" d="M54.04 968.924v4.445h5.839v4.447H54.04v4.45h5.839v5.098H46.534V963.64h13.345v5.284z" style="fill:#70a270;fill-opacity:1;fill-rule:nonzero;stroke-width:.628998"/><path id="path1288" d="M85.097 968.924v4.445h5.813v4.447h-5.813v4.45h5.813v5.098H77.59V963.64h13.32v5.284z" style="fill:#70a270;fill-opacity:1;fill-rule:nonzero;stroke-width:.628998"/><path id="path1290" d="M119.268 968.924v4.445h5.838v4.447h-5.838v4.45h5.838v5.098H111.76V963.64h13.345v5.284z" style="fill:#70a270;fill-opacity:1;fill-rule:nonzero;stroke-width:.628998"/><path id="path1292" d="M62.38 987.364V963.64h7.507v18.626h5.838v5.098z" style="fill:#70a270;fill-opacity:1;fill-rule:nonzero;stroke-width:.628998"/><path id="path1294" d="M98.833 963.64h-6.549l3.728 23.724h9.64l4.515-23.724h-5.569l-2.919 16.034z" style="fill:#70a270;fill-opacity:1;fill-rule:nonzero;stroke-width:.628998"/><path id="path1296" d="M141.367 962.961c-1.833.024-3.916.661-5.884 2.067v-1.389h-7.212v23.721h7.212v-16.685c.4-2.588 4.072-1.892 4.072-.41v17.1h7.237v-20.11c0-2.664-2.368-4.333-5.425-4.294z" style="fill:#70a270;fill-opacity:1;fill-rule:nonzero;stroke-width:.628998"/><path id="path1298" d="M119.734 960.304c.68-8.38 11.325-21.654 22.431-26.711 1.504-.685 2.787-2.428 2.787-4.08v-29.04c0-1.653-1.225-2.449-2.721-1.747-31.598 14.822-52.087 36.708-56.62 61.49l34.123.088z" style="fill:#ff837d;fill-opacity:1;fill-rule:nonzero;stroke-width:.628998"/></g></svg>