<svg xmlns="http://www.w3.org/2000/svg" width="192" height="192"><path d="M140 16 44 64l24 12-24 12 8 4 120-60-8-4z" style="fill:#98dc9a"/><path d="M140 16 44 64l24 12-24 12 8 4 120-60-8-4z" style="fill:#fff;opacity:.25"/><path d="M20 104v48l32 16v-48l-32-16z" style="fill:#56595b"/><path d="M44 56 20 68v8l24 12v-8l24-12-16-8z" style="fill:#98dc9a"/><path d="M68 68 44 80v8l24-12z" style="fill:#71a372"/><path d="M84 44 60 56v8l24-12z" style="fill:#4a4a4a"/><path d="M76 40 52 52l8 4 24-12z" style="fill:#83868c"/><path d="M52 52v8l8 4v-8z" style="fill:#56595b"/><path d="M20 76v28l32 16V92z" style="fill:#98dc9a"/><path d="M20 104v8l16 8v-8z" style="fill:#56595b"/><path d="M44 108v8l-8 4v-8z" style="fill:#4a4a4a"/><path d="m20 104 8-4 16 8-8 4z" style="fill:#83868c"/><path d="M20 152v8l32 16v-8l-24-12z" style="fill:#98dc9a"/><path d="M172 60 52 120v48l120-60z" style="fill:#4a4a4a"/><path d="M172 108 52 168v8l120-60v-8zM172 32 52 92v28l120-60z" style="fill:#71a372"/><path d="m140 16-16 8v8l16 8v-8l16-8-8-4z" style="fill:#98dc9a"/><path d="m156 24-16 8v8l16-8z" style="fill:#71a372"/><path d="m92 56-16 8v8l16-8z" style="fill:#d8d8d8"/><path d="m68 60 8 4 16-8-8-4z" style="fill:#fff"/><path d="M68 60v8l8 4v-8z" style="fill:#ececec"/><path d="M108 32 84 44l24 12 24-12-16-8z" style="fill:#56595b"/><path d="m92 32-8 4 24 12 8-4-16-8zM108 24l-8 4 24 12 8-4-16-8z" style="fill:#83868c"/><path d="M84 36v8l24 12v-8zM100 28v8l24 12v-8z" style="fill:#56595b"/><path d="M116 44v8l-8 4v-8zM132 36v8l-8 4v-8z" style="fill:#4a4a4a"/><path d="M44 56 20 68l24 12 24-12-16-8zM124 24l16 8 16-8-16-8z" style="fill:#fff;opacity:.25"/><path d="M164 48v24l-16 8V56zM140 60v20l-16 8V68z" style="fill:#4a4a4a"/><path d="M138.52 72.34c-8.578-.23-18.869 5.659-27.312 15.629-13.696 16.173-18.522 38.06-10.779 48.887 1.606 2.224 3.683 3.86 6.14 4.838l18.065 10.244 16.188-26.703a66.033 66.033 0 0 0 8.07-13.312l16.398-27.051c-8.466-4.216-16.94-9.41-26.77-12.531z" style="fill:#83868c;paint-order:stroke fill markers;stroke-width:.92805"/><ellipse cx="193.7" cy="-51.118" rx="24.304" ry="38.696" style="fill:#fff;paint-order:stroke fill markers;stroke-width:.95044" transform="matrix(.58167 .81342 -.64626 .76312 0 0)"/><ellipse cx="191.64" cy="-31.516" rx="18.122" ry="30.259" style="fill:#e0f4e0;paint-order:stroke fill markers;stroke-width:1.0052" transform="matrix(.65836 .7527 -.61084 .79175 0 0)"/><path d="M156.48 91.754a17.601 30.565 31.882 0 0-22.99 13.896 17.601 30.565 31.882 0 0-6.553 37.598 17.601 30.565 31.882 0 0 .895.908 17.601 30.565 31.882 0 0 24.064-13.742 17.601 30.565 31.882 0 0 6.553-37.598 17.601 30.565 31.882 0 0-.891-.906 17.601 30.565 31.882 0 0-.002-.002 17.601 30.565 31.882 0 0-1.076-.154z" style="fill:#4a4a4a;paint-order:stroke fill markers;stroke-width:.99558"/></svg>