<svg width="192" height="192" version="1.1" viewBox="0 0 192 192" xmlns="http://www.w3.org/2000/svg">
 <rect x="32" y="8" width="128" height="176" rx="10.079" style="fill:#ff837d;stroke-width:1.0067"/>
 <path d="m39.469 156.09s-2.6816 9.0047-2.9688 13.652c-0.2184 3.5351 0.31331 8.8364 0.85352 13.084 1.4085 0.74608 3.0137 1.1719 4.7246 1.1719h107.84c5.5836 0 10.078-4.4945 10.078-10.078v-14.113c-0.81352-1.9636-1.5332-3.4199-1.5332-3.4199l-119-0.29687z" style="fill:#56595b"/>
 <path d="m42.078 8c-0.62926 0-1.2412 0.064521-1.8379 0.17383-1.3088 3.7945-2.6923 7.806-4.0371 11.709-1.4388 4.1759-2.756 8.3956-4.2031 12.568v66.926c1.0288-0.90959 1.9651-1.801 2.7207-2.6348 3.6686-4.0479 5.7815-9.2709 8.6055-13.947 2.6134-4.3276 7.7148-13.059 7.7148-13.059l3.5625 7.7168s2.7188 19.739 3.2637 29.676c0.08666 1.5803 0.2746 3.1894 0 4.748-1.0044 5.7012-3.7747 10.95-5.9355 16.32-3.8351 9.532-12.463 28.191-12.463 28.191s15.837 14.397 53.416 12.762c45.681-1.9876 65.582-12.465 65.582-12.465s-13.623-27.044-19.586-40.951c-0.87595-2.043-2.2934-4.011-2.373-6.2324-0.381-10.633 5.527-20.578 9.1992-30.564 3.4739-9.447 10.621-25.099 14.293-33.006v-27.854c0-5.5836-4.4945-10.078-10.078-10.078h-107.84z" style="fill:#fff"/>
 <path d="m70.033 72.705-15.076 7.3945c0.72124 5.4348 2.4765 19.122 2.9102 27.029 0.08666 1.5803 0.2746 3.1894 0 4.748-1.0044 5.7012-3.7747 10.95-5.9355 16.32-3.8351 9.532-12.463 28.191-12.463 28.191s15.407 13.981 51.848 12.811c1.2038-3.6271 3.2845-10.689 2.7539-14.887-0.67672-5.3546-0.96066-10.115-3.2637-11.871-3.7472-2.8566-10.306 7.5207-14.838 6.2324-8.6664-2.4633-8.9293-16.512-8.9023-25.521 0.014118-4.7243 4.8253-8.6298 4.748-13.354-0.097358-5.9508-6.0938-10.682-6.5293-16.617-0.51268-6.9877 4.748-20.477 4.748-20.477z" style="fill:#ececec"/>
 <path d="m82.201 104.75c-0.34254-11.721 0.06959-14.775 1.4838-28.488 0.52305-5.0719 5.3861 7.0528 4.7481 14.541-0.58272 6.8392-6.0831 19.037-6.2318 13.947z" style="fill:#ececec"/>
 <path d="m38.875 34.424-6.875 15.559v49.395c1.0288-0.90959 1.9651-1.801 2.7207-2.6348 3.6686-4.0479 5.7815-9.2709 8.6055-13.947 2.6134-4.3276 7.7148-13.059 7.7148-13.059l1.8301 3.9668-0.64258-32.158-13.354-7.1211z" style="fill:#ececec"/>
 <path d="m55.225 8c-1.4233 1.4897-17.092 18.108-18.131 29.094-1.948 20.606 15.729 40.359 15.729 40.359s-3.5213 4.7285-3.2637 7.418c0.29834 3.1138 4.3737 7.4594 5.9336 4.748 2.1071-3.6625 3.2295-4.4998 6.5293-6.8242 6.3208-4.4523 14.571-7.3726 22.256-6.5293 12.015 1.3184 21.296 11.448 31.754 17.508 7.4127 4.295 14.5 9.5958 21.959 13.355 0.92221 0.46484 2.3943-0.03236 2.9688-0.89063 1.1059-1.6523-1.5015-4.1666-0.59375-5.9356 0.87641-1.7079 2.9707 0.36736 5.1934-4.5996 1.8365-4.1039-0.62323-4.6306 0.44532-6.6777 4.0415-7.743 9.745-20.327 13.996-30.127v-20.85c-2.6803-3.9859-6.5498-14.259-8.6406-29.936-0.47074-0.066876-0.94772-0.11328-1.4375-0.11328h-32.34c-2.8511 3.8596-13.4 16.177-32.117 16.334-18.708 0.15678-12.374-14.834-11.695-16.334h-18.545z" style="fill:#56595b"/>
 <path d="m55.492 133.54s-6.5848 8.5457-6.8242 17.213c-0.11812 4.2757 0.49006 8.3413 1.252 11.719 3.0402 1.3217 6.7461 2.6594 11.229 3.7988-1.4707-4.2233-3.4102-10.097-4.1719-14.035-1.187-6.1377-1.4844-18.695-1.4844-18.695z" style="fill:#fff"/>
 <path d="m82.498 111.58c-0.83682 14.798-0.15702 18.604-0.59351 29.675-0.20931 5.309 5.7152-4.2158 6.5286-14.541 0.6606-8.386-5.6291-20.545-5.9351-15.134z" style="fill:#ececec"/>
 <path d="m113.02 124.61c-4.6102 0.18441-9.388 5.3364-9.9941 9.8926-0.46056 3.4619 4.864 5.4154 5.666 8.8144 1.9037 8.0682-2.5155 24.384-2.6777 24.979 5.4311-0.47187 10.373-1.0684 14.912-1.7305 2.1974-5.929 6.2315-18.244 4.7617-25.348-1.3723-6.6327-5.0175-15.835-11.75-16.576-0.30458-0.03352-0.61063-0.04355-0.91797-0.03125z" style="fill:#ececec"/>
 <path d="m81.836 139.75s-1.6984-1.8003-1.6787-6.0853c0.01199-2.6023 1.8885-5.6656 1.8885-5.6656s1.9329 4.6562 1.4689 6.2951c-0.67586 2.387-1.6787 5.4558-1.6787 5.4558z" style="fill:#979797"/>
 <path d="m73.596 56.086c-2.3432-1.9774-3.789-1.5621-5.0449 1.7812-3.3439 8.9015-9.2812 26.975-9.2812 26.975 0.74878-0.62351 1.6162-1.2469 2.752-2.0469 6.3208-4.4523 14.571-7.3726 22.256-6.5293 10.145 1.1132 18.344 8.4933 26.945 14.416l1.248 0.125s-25.597-23.515-38.875-34.721z" style="fill:#83868c"/>
 <path d="m92.549 8c-1.8766 1.7242-4.1204 3.9249-5.3027 5.6504-2.6285 3.8361-5.6387 12.762-5.6387 12.762l7.7148 1.1855s1.1165-8.8157 2.375-13.057c0.57667-1.9433 1.6961-4.5005 2.6289-6.541h-1.7773z" style="fill:#ececec"/>
 <path d="m56.666 8c-3.9734 5.5643-11.645 17.089-12.746 24.643-1.5529 10.648 6.5486 17.975 14.541 20.18 7.688 2.1204 13.984-9.5805 21.959-9.4961 5.215 0.055213 13.805 12.896 27.303 12.166 8.6589-0.46816 16.234-7.4337 21.959-13.947 7.1469-8.132 13.792-26.632 16.125-33.545h-28.225c-2.8511 3.8596-13.4 16.177-32.117 16.334-18.708 0.15678-12.374-14.834-11.695-16.334h-17.104z" style="fill:#83868c"/>
</svg>
