<?xml version="1.0" encoding="UTF-8" standalone="no"?>
<svg
   viewBox="0 0 192 192"
   version="1.1"
   id="svg16"
   sodipodi:docname="acastus-photon.svg"
   inkscape:version="1.2.1 (9c6d41e410, 2022-07-14, custom)"
   xmlns:inkscape="http://www.inkscape.org/namespaces/inkscape"
   xmlns:sodipodi="http://sodipodi.sourceforge.net/DTD/sodipodi-0.dtd"
   xmlns="http://www.w3.org/2000/svg"
   xmlns:svg="http://www.w3.org/2000/svg">
  <sodipodi:namedview
     id="namedview18"
     pagecolor="#ffffff"
     bordercolor="#666666"
     borderopacity="1.0"
     inkscape:showpageshadow="2"
     inkscape:pageopacity="0.0"
     inkscape:pagecheckerboard="0"
     inkscape:deskcolor="#d1d1d1"
     showgrid="false"
     inkscape:zoom="1.754102"
     inkscape:cx="69.551258"
     inkscape:cy="115.72873"
     inkscape:window-width="1600"
     inkscape:window-height="864"
     inkscape:window-x="0"
     inkscape:window-y="0"
     inkscape:window-maximized="1"
     inkscape:current-layer="svg16" />
  <defs
     id="defs4">
    <style
       id="style2">.a{fill:none;stroke:#b1b5bd;stroke-linecap:round;stroke-linejoin:round;isolation:isolate;opacity:0.63;}</style>
  </defs>
  <rect
     class="a"
     x="20"
     y="20"
     width="152"
     height="152"
     rx="10"
     id="rect6"
     style="display:inline;stroke:#98dc9a;stroke-opacity:1;fill:#98dc9a;fill-opacity:1;opacity:1" />
  <g
     id="g5947"
     transform="translate(143.74539,27.018591)"
     style="stroke:#8c72bd;stroke-opacity:1">
    <path
       id="path2659"
       style="fill:#ffffff;fill-opacity:1;stroke:none;stroke-width:0.195666;stroke-linecap:round;stroke-linejoin:round;stroke-opacity:1;paint-order:markers fill stroke"
       d="m -63.663708,17.851782 c -15.966729,1.31e-4 -28.913363,12.670443 -28.921439,28.304525 h -0.05784 l 0.07186,0.219075 c 0.05939,5.727416 1.892017,11.303757 5.254304,15.990742 l 0.0596,0.18227 23.59353,35.437616 23.705697,-35.611124 c 3.35323,-4.701676 5.171263,-10.289511 5.210486,-16.02404 l 0.06309,-0.194539 h -0.05959 c -0.008,-15.633599 -12.953467,-28.303873 -28.919698,-28.304525 z m 0,17.55231 a 11.216654,11.216654 0 0 1 11.216655,11.216654 11.216654,11.216654 0 0 1 -11.216655,11.216655 11.216654,11.216654 0 0 1 -11.216654,-11.216655 11.216654,11.216654 0 0 1 11.216654,-11.216654 z" />
    <circle
       style="fill:none;fill-opacity:1;stroke:#ffffff;stroke-width:3;stroke-linecap:round;stroke-linejoin:round;stroke-dasharray:none;stroke-opacity:1;paint-order:markers fill stroke"
       id="path5217"
       cx="-63.663704"
       cy="57.918896"
       r="49" />
    <path
       style="fill:none;fill-opacity:1;stroke:#ffffff;stroke-width:6.3;stroke-linecap:round;stroke-linejoin:miter;stroke-dasharray:none;stroke-opacity:1"
       d="M 94.886522,92.062514 136.10055,126.86228"
       id="path8127"
       sodipodi:nodetypes="cc"
       transform="translate(-120.57763,0.53164273)" />
  </g>
</svg>
