<?xml version="1.0" encoding="UTF-8"?>
<svg version="1.1" viewBox="0 0 192 192" xml:space="preserve" xmlns="http://www.w3.org/2000/svg"><circle class="a" cx="96" cy="96" r="88" fill="#fff"/><path d="m69.88 81.633 2.1473-6.3649 4.7465 4.1663 2.4396-5.9898 4.3851 4.5881 2.9244-5.7426 3.9902 4.9746 3.3868-5.4513 3.565 5.3231 3.8226-5.1186 3.1133 5.6314 4.2311-4.7471 2.6361 5.8961 4.6064-4.3383 2.1397 6.1166-7.0692 29.962-12.124-2.6338h-5.4383l-13.894 4.5161z" fill="#8e6f60" stroke-linecap="round" stroke-linejoin="round" stroke-width="2.653"/><g transform="matrix(2.106 0 0 2.106 44.931 44.711)"><path class="a" d="m11.838 35.701c-1.46 0.5286-2.6384-0.4373-3.1874-2.1807l-3.7563-11.928a2.9686 2.9686 0 0 1 1.2289-3.4842l2.6066-1.1759 0.9333-0.4117c1.086-0.4791 1.8025-0.21 2.1839 1.0117l4.5625 14.619c0.3824 1.225 0.2744 1.795-0.718 2.1544z" fill="#fff" stroke="#56595b" stroke-linecap="round" stroke-linejoin="round"/><path class="a" d="m16.409 32.151c5.6835-2.4493 8.6072-2.8933 14.936-0.8938" fill="none" stroke="#56595b" stroke-linecap="round" stroke-linejoin="round"/><path class="a" d="m11.946 17.449 0.92-2.94 2.2538 1.9783 2.275 8.384" fill="none" stroke="#56595b" stroke-linecap="round" stroke-linejoin="round"/><path class="a" d="m8.7294 16.932 0.7073 2.23-2.11 0.7474" fill="none" stroke="#56595b" stroke-linecap="round" stroke-linejoin="round"/><path class="a" d="m9.4367 19.162 0.7073 2.23-2.11 0.7474" fill="none" stroke="#56595b" stroke-linecap="round" stroke-linejoin="round"/><path class="a" d="m10.144 21.392 0.7073 2.23-2.11 0.7474" fill="none" stroke="#56595b" stroke-linecap="round" stroke-linejoin="round"/><path class="a" d="m10.851 23.621 0.7074 2.23-2.11 0.7474" fill="none" stroke="#56595b" stroke-linecap="round" stroke-linejoin="round"/><path class="a" d="m11.559 25.851 0.7073 2.23-2.11 0.7475" fill="none" stroke="#56595b" stroke-linecap="round" stroke-linejoin="round"/><path class="a" d="m12.266 28.081 0.7073 2.23-2.11 0.7475" fill="none" stroke="#56595b" stroke-linecap="round" stroke-linejoin="round"/><path class="a" d="m12.973 30.311 0.7073 2.23-2.11 0.7475" fill="none" stroke="#56595b" stroke-linecap="round" stroke-linejoin="round"/><path class="a" d="m13.681 32.541 0.7074 2.23" fill="none" stroke="#56595b" stroke-linecap="round" stroke-linejoin="round"/><path class="a" d="m15.12 16.488 1.1584-2.8442 2.0824 2.1786 1.5748 8.5616" fill="none" stroke="#56595b" stroke-linecap="round" stroke-linejoin="round"/><path class="a" d="m18.361 15.822 1.3886-2.7268 1.8947 2.3621 0.8627 8.6741" fill="none" stroke="#56595b" stroke-linecap="round" stroke-linejoin="round"/><path class="a" d="m21.644 15.457 1.6082-2.5885 1.6928 2.5276 0.144 8.7205" fill="none" stroke="#56595b" stroke-linecap="round" stroke-linejoin="round"/><path class="a" d="m24.945 15.396 1.8151-2.4305 1.4783 2.674-0.5758 8.7006" fill="none" stroke="#56595b" stroke-linecap="round" stroke-linejoin="round"/><path class="a" d="m28.238 15.64 2.0091-2.2541 1.2517 2.8-1.2912 8.6141" fill="none" stroke="#56595b" stroke-linecap="round" stroke-linejoin="round"/><path class="a" d="m31.499 16.186 2.1873-2.06 1.016 2.9044" fill="none" stroke="#56595b" stroke-linecap="round" stroke-linejoin="round"/><path class="a" d="m35.077 15.447 6.9029 1.8226a2.4849 2.4849 0 0 1 1.69 3.0732l-2.872 12.167a2.3809 2.3809 0 0 1-3.1963 1.7274l-6.5517-1.7304" fill="#ff837d" stroke="#56595b" stroke-linecap="round" stroke-linejoin="round"/><path class="a" d="m31.05 32.507 0.2954-1.25q1.6782-7.1136 3.3567-14.227l0.3747-1.5828" fill="none" stroke="#56595b" stroke-linecap="round" stroke-linejoin="round"/><circle class="b" cx="37.225" cy="18.926" r=".75" fill="#fff"/><circle class="b" cx="36.235" cy="22.798" r=".75" fill="#fff"/><circle class="b" cx="35.386" cy="26.824" r=".75" fill="#fff"/><circle class="b" cx="34.316" cy="30.756" r=".75" fill="#fff"/><circle class="b" cx="38.217" cy="29.844" r=".75" fill="#fff"/><circle class="b" cx="39.255" cy="25.66" r=".75" fill="#fff"/><circle class="b" cx="40.167" cy="21.508" r=".75" fill="#fff"/></g></svg>
