<svg width="192" height="192" version="1.1" viewBox="0 0 192 192" xmlns="http://www.w3.org/2000/svg">
 <path d="m96 8a88 88 0 0 0-78.617 48.691l78.617 39.309v-88z" style="fill:#f8c18c"/>
 <path d="m96 96-78.684 39.342a88 88 0 0 0 78.684 48.658v-88z" style="fill:#98dc9a"/>
 <path d="m18.637 54.094a88 88 0 0 0-10.637 41.906 88 88 0 0 0 10.697 41.873l77.303-41.873-77.363-41.906z" style="fill:#f9de81"/>
 <path d="m96 8v88l78.684-39.342a88 88 0 0 0-78.684-48.658z" style="fill:#ff837d"/>
 <path d="m96 96v88a88 88 0 0 0 78.617-48.691l-78.617-39.309z" style="fill:#9abeff"/>
 <path d="m173.3 54.127-77.303 41.873 77.363 41.906a88 88 0 0 0 10.637-41.906 88 88 0 0 0-10.697-41.873z" style="fill:#bd9aff"/>
 <circle cx="96" cy="96" r="72" style="fill:#fff;paint-order:stroke fill markers"/>
 <path d="m77.178 80.393c0-7.8552 8.6412-12.644 15.302-8.479l25.074 15.678c6.237 3.8994 6.271 12.97 0.065 16.917l-25.075 15.946c-6.6574 4.234-15.366-0.548-15.366-8.438v-31.625z" style="clip-rule:evenodd;fill-rule:evenodd;fill:#9abeff"/>
</svg>
