<svg width="192" height="192" version="1.1" viewBox="0 0 192 192" xmlns="http://www.w3.org/2000/svg">
 <circle cx="96" cy="96" r="88" opacity=".63" style="fill:#ececec;opacity:1"/>
 <path d="m23.085 54.497c-3.3646 5.8444-6.0132 12.073-7.8885 18.55l161.61 45.905c1.8141-6.4945 2.8396-13.184 3.0543-19.924z" style="fill:#a0a5af;paint-order:normal"/>
 <text transform="rotate(15.857)" x="57.387833" y="62.970066" style="fill:#ececec;font-family:Now;font-size:17.28px;letter-spacing:0px;line-height:1.25;stroke-width:.43199;word-spacing:0px" xml:space="preserve"><tspan x="57.387833" y="62.970066" style="fill:#ececec;font-family:Now;font-weight:500;stroke-width:.43199">ACHROMATIC</tspan></text>
 <path d="m118.95 15.197c-11.836-3.3283-24.258-4.0179-36.389-2.02l68.396 19.428c-9.2667-8.0744-20.192-14.017-32.006-17.408z" style="fill:#d8d8d8;paint-order:normal"/>
 <path d="m13.245 109.92c1.9512 11.723 6.3677 22.899 12.958 32.788l104.51 29.686c10.834-4.9307 20.497-12.108 28.348-21.056z" style="fill:#56595b;paint-order:normal"/>
 <path d="m30.113 147.97c10.924 13.885 25.947 23.973 42.934 28.829 16.992 4.7875 35.06 4.0999 51.639-1.9649z" style="fill:#4a4a4a;paint-order:normal"/>
 <path d="m13.454 80.869c-1.4964 8.1509-1.7784 16.478-0.83686 24.712l149.31 42.413c5.1366-6.5056 9.2819-13.736 12.301-21.455z" style="fill:#83868c;paint-order:normal"/>
 <path d="m35.892 37.344c-3.0321 3.1489-5.8138 6.5296-8.3197 10.111l152.17 43.224c-0.27597-4.3748-0.89398-8.7214-1.8483-13z" style="fill:#b1b5bd;paint-order:normal"/>
 <path d="m61.289 19.608c-5.0753 2.3065-9.9083 5.1125-14.428 8.3765l126.79 36.015c-2.1241-5.1503-4.7554-10.077-7.8549-14.706z" style="fill:#ccc;paint-order:normal"/>
</svg>
