<svg xmlns="http://www.w3.org/2000/svg" xml:space="preserve" width="192" height="192"><rect width="152" height="152" x="20" y="20" fill="#fff" rx="9.935"/><path fill="#9abeff" d="M67.143 76.718h8.76a3.141 3.141 0 0 1 3.14 3.14v.768c0 .79-.3 1.551-.835 2.132l-11.6 12.544a3.142 3.142 0 0 0 .02 4.284l11.563 12.287a3.15 3.15 0 0 1 .854 2.152v1.024a3.141 3.141 0 0 1-3.14 3.14h-9.872a3.142 3.142 0 0 1-2.35-1.058l-15.55-17.53a3.14 3.14 0 0 1 .064-4.24L64.86 77.697a3.163 3.163 0 0 1 2.284-.98z" style="stroke-width:.973207"/><path d="M88.51 59.5a2.77 2.77 0 0 0-2.729 2.289l-11.937 67.453a2.773 2.773 0 0 0 2.73 3.258h8.373a2.771 2.771 0 0 0 2.73-2.29l8.325-47.036 8.324 47.036a2.771 2.771 0 0 0 2.729 2.29h8.373a2.773 2.773 0 0 0 2.73-3.258L106.22 61.789a2.77 2.77 0 0 0-2.73-2.289h-14.98z" style="fill:#9abeff;fill-opacity:1;stroke-width:.973207"/><path fill="#9abeff" d="M124.857 76.718h-8.76a3.141 3.141 0 0 0-3.14 3.14v.768c0 .79.3 1.551.835 2.132l11.6 12.544a3.142 3.142 0 0 1-.02 4.284l-11.563 12.287a3.15 3.15 0 0 0-.854 2.152v1.024a3.141 3.141 0 0 0 3.14 3.14h9.872c.899 0 1.753-.385 2.35-1.058l15.55-17.53a3.14 3.14 0 0 0-.064-4.24L127.14 77.697a3.163 3.163 0 0 0-2.284-.98z" style="stroke-width:.973207"/></svg>