<?xml version="1.0" encoding="UTF-8" standalone="no"?>
<svg
   xmlns:dc="http://purl.org/dc/elements/1.1/"
   xmlns:cc="http://creativecommons.org/ns#"
   xmlns:rdf="http://www.w3.org/1999/02/22-rdf-syntax-ns#"
   xmlns:svg="http://www.w3.org/2000/svg"
   xmlns="http://www.w3.org/2000/svg"
   xmlns:sodipodi="http://sodipodi.sourceforge.net/DTD/sodipodi-0.dtd"
   xmlns:inkscape="http://www.inkscape.org/namespaces/inkscape"
   sodipodi:docname="action.svg"
   inkscape:version="1.0.1 (3bc2e813f5, 2020-09-07)"
   version="1.1"
   id="svg2"
   viewBox="0 0 192 192"
   height="192"
   width="192"
   inkscape:export-filename="/home/jphilippe/inkscape/icônes/delta-github/png/action.png"
   inkscape:export-xdpi="96"
   inkscape:export-ydpi="96">
  <sodipodi:namedview
     inkscape:document-rotation="0"
     inkscape:window-maximized="1"
     inkscape:window-y="30"
     inkscape:window-x="1920"
     inkscape:window-height="1022"
     inkscape:window-width="1680"
     units="px"
     showgrid="false"
     inkscape:current-layer="layer1"
     inkscape:document-units="px"
     inkscape:cy="-100.16007"
     inkscape:cx="401.59993"
     inkscape:zoom="1"
     inkscape:pageshadow="2"
     inkscape:pageopacity="0.0"
     borderopacity="1.0"
     bordercolor="#666666"
     pagecolor="#ffffff"
     id="base"
     inkscape:snap-bbox="false"
     inkscape:object-paths="true"
     inkscape:snap-nodes="true"
     showguides="true"
     inkscape:guide-bbox="true"
     inkscape:snap-object-midpoints="true"
     inkscape:snap-center="true"
     inkscape:snap-global="true"
     inkscape:snap-intersection-paths="true"
     inkscape:snap-smooth-nodes="true"
     inkscape:snap-midpoints="true" />
  <defs
     id="defs4">
    <style
       id="style907">.cls-1{fill:#fff;}</style>
  </defs>
  <metadata
     id="metadata7">
    <rdf:RDF>
      <cc:Work
         rdf:about="">
        <dc:format>image/svg+xml</dc:format>
        <dc:type
           rdf:resource="http://purl.org/dc/dcmitype/StillImage" />
        <dc:title></dc:title>
      </cc:Work>
    </rdf:RDF>
  </metadata>
  <g
     transform="translate(0,-860.36216)"
     id="layer1"
     inkscape:groupmode="layer"
     inkscape:label="Calque 1">
    <rect
       style="fill:#56595b;fill-opacity:1;fill-rule:evenodd;stroke:none;stroke-opacity:1"
       width="153"
       height="153"
       x="19.5"
       y="879.86218"
       rx="10"
       id="rect932"
       ry="10" />
    <path
       class="cls-1"
       d="m 121.42943,957.82362 a 3.7389057,3.7389057 0 1 1 0,-7.4778 h 6.01634 v 7.4778 z M 132.5,945.99797 h -11.65516 c -4.93243,0 -8.30597,3.22739 -8.30597,7.86752 a 7.4047384,7.4047384 0 0 0 5.43176,7.4291 l -6.35735,9.67 h 5.62662 l 5.71188,-8.82966 h 4.49399 v 8.79313 H 132.5 Z m -62.952456,6.55222 v -7.46563 h 9.743077 v 21.28862 H 67.06306 c 1.315315,-2.3018 2.484484,-7.62396 2.484484,-13.82299 z M 84.503167,940.21302 H 64.566396 v 12.53202 c 0,6.3939 -1.120454,11.37505 -2.630631,13.62814 h -2.435769 v 11.38722 h 4.932433 v -6.74708 h 18.706708 v 6.74708 h 4.932433 v -11.38722 h -3.568402 z m 15.040876,26.50117 -0.43844,-0.2923 5.821487,-20.42392 H 93.150148 l -1.217885,4.54271 h 6.83233 l -4.44528,15.58892 a 4.2138807,4.2138807 0 0 0 4.25042,5.4683 5.4683019,5.4683019 0 0 0 2.983817,-0.93777 l 8.01368,-5.41958 -2.43577,-3.65366 z m 3.422247,-25.40508 c 2.43577,0 3.51969,-0.9256 3.51969,-3.12996 0,-2.20437 -1.07174,-3.21522 -3.51969,-3.21522 -2.44794,0 -3.519677,0.9256 -3.519677,3.21522 0,2.28962 1.035197,3.12996 3.519677,3.12996 z"
       id="path936"
       style="stroke-width:1" />
  </g>
  <style
     type="text/css"
     id="style853">
	.st0{fill:#FFFFFF;}
</style>
</svg>
