<?xml version="1.0" encoding="UTF-8" standalone="no"?>
<svg
   width="100%"
   height="100%"
   viewBox="0 0 192 192"
   version="1.1"
   xml:space="preserve"
   style="fill-rule:evenodd;clip-rule:evenodd;stroke-linecap:round;stroke-linejoin:round;stroke-miterlimit:1.5;"
   id="svg35"
   sodipodi:docname="action_launcher.svg"
   inkscape:version="1.2 (dc2aedaf03, 2022-05-15)"
   inkscape:export-filename="png/action_launcher.png"
   inkscape:export-xdpi="96"
   inkscape:export-ydpi="96"
   xmlns:inkscape="http://www.inkscape.org/namespaces/inkscape"
   xmlns:sodipodi="http://sodipodi.sourceforge.net/DTD/sodipodi-0.dtd"
   xmlns="http://www.w3.org/2000/svg"
   xmlns:svg="http://www.w3.org/2000/svg"
   xmlns:rdf="http://www.w3.org/1999/02/22-rdf-syntax-ns#"
   xmlns:cc="http://creativecommons.org/ns#"
   xmlns:dc="http://purl.org/dc/elements/1.1/"><metadata
   id="metadata41"><rdf:RDF><cc:Work
       rdf:about=""><dc:format>image/svg+xml</dc:format><dc:type
         rdf:resource="http://purl.org/dc/dcmitype/StillImage" /></cc:Work></rdf:RDF></metadata><defs
   id="defs39" /><sodipodi:namedview
   pagecolor="#ffffff"
   bordercolor="#666666"
   borderopacity="1"
   objecttolerance="10"
   gridtolerance="10"
   guidetolerance="10"
   inkscape:pageopacity="0"
   inkscape:pageshadow="2"
   inkscape:window-width="1884"
   inkscape:window-height="1052"
   id="namedview37"
   showgrid="false"
   inkscape:snap-global="false"
   inkscape:zoom="0.84244792"
   inkscape:cx="-56.976816"
   inkscape:cy="-151.93817"
   inkscape:window-x="36"
   inkscape:window-y="0"
   inkscape:window-maximized="1"
   inkscape:current-layer="svg35"
   inkscape:document-rotation="0"
   inkscape:showpageshadow="0"
   inkscape:pagecheckerboard="0"
   inkscape:deskcolor="#d1d1d1" />
    
<rect
   style="clip-rule:evenodd;fill:#99bdfe;fill-opacity:1;fill-rule:evenodd;stroke:none;stroke-width:0.993464;stroke-linecap:round;stroke-linejoin:round;stroke-miterlimit:1.5;stroke-opacity:1"
   width="152"
   height="152"
   x="19.999998"
   y="20"
   rx="9.9346409"
   id="rect11375"
   ry="9.9346409" /><path
   id="path11377"
   style="clip-rule:evenodd;fill:#ffffff;fill-opacity:1;fill-rule:evenodd;stroke:none;stroke-width:0;stroke-linecap:square;stroke-linejoin:bevel;stroke-miterlimit:1.5;stroke-dasharray:none;stop-color:#000000"
   inkscape:transform-center-x="-1.9049244e-05"
   inkscape:transform-center-y="-6.3000701"
   d="m 95.897106,63.089336 a 8.4841195,8.4841195 0 0 0 -5.45646,2.0742 l -29.033836,25.1785 a 5.5299505,5.5299505 0 0 0 3.62379,9.707604 h 1.13009 a 2.2552905,2.2552905 0 0 1 2.2562,2.2562 v 21.529 a 5.0769958,5.0769958 0 0 0 5.07647,5.0764 h 14.326926 v -11.4908 c 0,-4.5311 3.64857,-8.1797 8.17974,-8.1797 4.531174,0 8.179754,3.6486 8.179754,8.1797 v 11.4908 h 14.32691 a 5.0769958,5.0769958 0 0 0 5.07646,-5.0764 v -21.529 a 2.2552905,2.2552905 0 0 1 2.25622,-2.2562 h 1.13008 a 5.5299505,5.5299505 0 0 0 3.62379,-9.707604 l -29.03383,-25.1785 a 8.4841195,8.4841195 0 0 0 -5.662304,-2.0742 z m -0.0336,19.1758 a 7.4318335,7.4318335 0 0 1 0.13656,0 7.4318335,7.4318335 0 0 1 7.431634,7.4316 7.4318335,7.4318335 0 0 1 -7.431634,7.4317 7.4318335,7.4318335 0 0 1 -7.43163,-7.4317 7.4318335,7.4318335 0 0 1 7.29507,-7.4316 z" /></svg>
