<svg width="192" height="192" version="1.1" viewBox="0 0 192 192" xmlns="http://www.w3.org/2000/svg" xmlns:xlink="http://www.w3.org/1999/xlink">
 <rect x="20" y="20" width="152" height="152" rx="9.9346" style="fill:#54688c"/>
 <path d="m160 20-88 76 88 76h2.0644c5.5038 0 9.9356-4.4318 9.9356-9.9356v-132.13c0-5.5038-4.4318-9.9355-9.9356-9.9355h-2.0644z" style="fill:#bd9aff;opacity:.25"/>
 <path d="m124 20-68 58.727v34.547l68 58.727h38.064c5.5038 0 9.9356-4.4318 9.9356-9.9356v-132.13c0-5.5038-4.4318-9.9355-9.9356-9.9355h-38.064z" style="fill:#bd9aff;opacity:.25"/>
 <rect x="52" y="68" width="64" height="56" style="fill:#9abeff;paint-order:stroke fill markers"/>
 <rect x="56" y="72" width="8" height="4" style="fill:#54688c;paint-order:stroke fill markers"/>
 <rect x="68" y="72" width="8" height="4" style="fill:#54688c;paint-order:stroke fill markers"/>
 <rect x="80" y="72" width="8" height="4" style="fill:#54688c;paint-order:stroke fill markers"/>
 <path d="m96 68h20v56h-20l-32-28z" style="fill:#728dbe"/>
 <path d="m116 68v56l-32-28z" style="fill:#bd9aff"/>
 <rect x="92" y="72" width="8" height="4" style="fill:#54688c;paint-order:stroke fill markers"/>
 <rect x="104" y="72" width="8" height="4" style="fill:#54688c;paint-order:stroke fill markers"/>
 <rect x="56" y="116" width="8" height="4" style="fill:#54688c;paint-order:stroke fill markers"/>
 <rect x="68" y="116" width="8" height="4" style="fill:#54688c;paint-order:stroke fill markers"/>
 <rect x="80" y="116" width="8" height="4" style="fill:#54688c;paint-order:stroke fill markers"/>
 <rect x="92" y="116" width="8" height="4" style="fill:#54688c;paint-order:stroke fill markers"/>
 <rect x="104" y="116" width="8" height="4" style="fill:#54688c;paint-order:stroke fill markers"/>
 <path d="m136 68v56l-32-28z" style="fill:#96dfd3"/>
</svg>
