<svg xmlns="http://www.w3.org/2000/svg" viewBox="0 0 192 192"><title>Ada</title><path d="M135.25,35.79H94a8.6,8.6,0,1,1,0-17.2h41.28a8.6,8.6,0,0,1,0,17.2" fill="#9abeff"/><path d="M71.54,27.19a8.6,8.6,0,1,1-8.6-8.6h0a8.6,8.6,0,0,1,8.6,8.6" fill="#54688c"/><path d="M128.68,87.4H170a8.6,8.6,0,0,1,8.6,8.6h0a8.6,8.6,0,0,1-8.6,8.6H128.68a8.6,8.6,0,0,1-8.6-8.6h0A8.6,8.6,0,0,1,128.68,87.4Z" fill="#96dfd3"/><path d="M53,87.4H66.76a8.6,8.6,0,0,1,8.6,8.6h0a8.6,8.6,0,0,1-8.6,8.6H53A8.6,8.6,0,0,1,44.4,96h0A8.6,8.6,0,0,1,53,87.4Z" fill="#54688c"/><path d="M62.84,156.21h41.49a8.6,8.6,0,1,1,0,17.2H62.84a8.6,8.6,0,1,1,0-17.2" fill="#9abeff"/><path d="M126.58,164.81a8.61,8.61,0,1,1,8.6,8.6,8.6,8.6,0,0,1-8.6-8.6" fill="#54688c"/><path d="M159.58,139H100.44a8.6,8.6,0,1,1,0-17.2h59.14a8.6,8.6,0,0,1,0,17.2" fill="#9abeff"/><path d="M26.82,130.44A8.38,8.38,0,0,0,35,139a7.77,7.77,0,0,0,4.79-1.65,20.37,20.37,0,0,1,25.63,0A7.7,7.7,0,0,0,70.23,139a8.6,8.6,0,0,0,0-17.2,8,8,0,0,0-4.81,1.65,20.29,20.29,0,0,1-25.63,0A7.69,7.69,0,0,0,35,121.8a8.38,8.38,0,0,0-8.18,8.6h0" fill="#96dfd3"/><path d="M97.72,53a8.38,8.38,0,0,0-8.6,8.18h0A7.77,7.77,0,0,0,90.77,66a20.29,20.29,0,0,1,0,25.63,8,8,0,0,0-1.65,4.81,8.6,8.6,0,0,0,17.2,0,8,8,0,0,0-1.65-4.81,20.29,20.29,0,0,1,0-25.63,7.77,7.77,0,0,0,1.65-4.79A8.38,8.38,0,0,0,97.73,53h0" fill="#9abeff"/><path d="M66.62,70.2H29.05a8.6,8.6,0,0,1,0-17.2H66.62a8.6,8.6,0,0,1,0,17.2" fill="#96dfd3"/><path d="M168.25,61.6a8.61,8.61,0,1,1-8.6-8.6,8.6,8.6,0,0,1,8.6,8.6" fill="#ff837d"/><path d="M137.28,61.6a8.6,8.6,0,1,1-8.6-8.6,8.6,8.6,0,0,1,8.6,8.6" fill="#54688c"/><path d="M30.63,96A8.6,8.6,0,1,1,22,87.4a8.6,8.6,0,0,1,8.6,8.6" fill="#54688c"/></svg>