<svg id="Layer_1" data-name="Layer 1" xmlns="http://www.w3.org/2000/svg" viewBox="0 0 153 153"><defs><style>.cls-3{fill:#ffb0ac}</style></defs><rect width="153" height="153" rx="10" ry="10" fill="#dc505e"/><path fill="#511119" d="M10 10.5h132v132H10z"/><g id="XD"><path class="cls-3" d="M38.3 48.5l13.65 26.46-14.22 27.54h11.16l9.36-19.71 9.36 19.71h11.7L63.83 74.06l14.4-25.56H67.07l-8.82 19.66-8.82-19.66H38.3z"/><path class="cls-3" d="M120.23 68v13.14s-22.14-1.26-21.78 19.8S111.83 122 118.75 122c5.79 0 12.28-3.13 12.28-3.13V68zm0 45.54a35.2 35.2 0 01-5.49-.27c-3.26-.84-6.39-2.95-6.39-11.61 0-8.1 3.93-10.87 6.58-11.62a17.21 17.21 0 015.3-.26z" transform="translate(-19.5 -19.5)"/></g></svg>