<svg xmlns="http://www.w3.org/2000/svg" xmlns:xlink="http://www.w3.org/1999/xlink" viewBox="0 0 192 192"><defs><clipPath id="a"><rect x="19.5" y="19.5" width="153" height="153" rx="10" style="fill:none"/></clipPath></defs><g style="clip-path:url(#a)"><rect x="19.5" y="19.5" width="153" height="153" rx="10" style="fill:#96dfd3"/><path d="M-10.67,140.33S-33.33,90.44,23.78,90.44c66.44,0,97.11,42.67,97.11,42.67L60.33,152,6,156.67Z" style="fill:#fff;stroke:#56595b;stroke-miterlimit:10;stroke-width:3px"/><path d="M6.56,148.67s52-46,109.11-46c66.44,0,65,42.66,65,42.66L178,193.67,15,193Z" style="fill:#fff;stroke:#56595b;stroke-miterlimit:10;stroke-width:3px"/><path d="M116,112c30.67,1.33,48.45,17.6,47.22,27.22-1.29,10.07-23.73,18.73-42.66,16.45-17.72-2.14-19.33-12.28-34.67-12.45C68.17,143,63,156.48,43.67,158.78c-13.87,1.64-25.91-3.52-33.78-8" style="fill:#fff"/><path d="M116,112c1.18,0,2.35.13,3.49.22" style="fill:none;stroke:#56595b;stroke-linecap:round;stroke-miterlimit:10;stroke-width:3px"/><path d="M126.5,113.09c24.17,4.06,37.81,17.66,36.72,26.13-1.29,10.07-23.73,18.73-42.66,16.45-17.72-2.14-19.33-12.28-34.67-12.45C68.17,143,63,156.48,43.67,158.78,33.08,160,23.55,157.32,16.14,154" style="fill:none;stroke:#56595b;stroke-linecap:round;stroke-miterlimit:10;stroke-width:3px;stroke-dasharray:7.058340072631836,7.058340072631836"/><path d="M13,152.44c-1.08-.55-2.11-1.11-3.07-1.66" style="fill:none;stroke:#56595b;stroke-linecap:round;stroke-miterlimit:10;stroke-width:3px"/><path d="M161.09,83.47a4.92,4.92,0,0,0-5.81-5.17,7.54,7.54,0,0,0-13.35,4.78,5.35,5.35,0,1,0,0,10.69h17.18a5.34,5.34,0,0,0,2-10.3Z" style="fill:#fff;stroke:#56595b;stroke-miterlimit:10;stroke-width:3px"/><path d="M71.49,51.12h0a12.08,12.08,0,0,0-23.92-1.44h-.41a9.75,9.75,0,0,0-9.33,6.93,5.44,5.44,0,0,0-.57,0,6.3,6.3,0,0,0,0,12.6H71.49a9,9,0,0,0,0-18.05Z" style="fill:#fff;stroke:#56595b;stroke-miterlimit:10;stroke-width:3px"/><path d="M135.54,58.1A19.77,19.77,0,1,0,99.75,69.68h0l16,22,16-22h0A19.66,19.66,0,0,0,135.54,58.1Zm-19.77,8a8,8,0,1,1,8-8A8,8,0,0,1,115.77,66.07Z" style="fill:#ff837d;stroke:#56595b;stroke-linejoin:round;stroke-width:3px"/></g></svg>