<?xml version="1.0" encoding="UTF-8"?>
<svg version="1.1" viewBox="0 0 192 192" xml:space="preserve" xmlns="http://www.w3.org/2000/svg" xmlns:xlink="http://www.w3.org/1999/xlink"><defs><linearGradient id="linearGradient1191" x1="96.776" x2="130.09" y1="98.306" y2="128.09" gradientTransform="matrix(2.0418 0 0 2.3857 -127.99 -170.57)" gradientUnits="userSpaceOnUse"><stop stop-color="#8c72bd" offset="0"/><stop stop-color="#728dbe" offset="1"/></linearGradient></defs>
	 <circle class="a" cx="96" cy="96" r="88" fill="#56595b"/><path d="m100.33 56.976a8.2518 9.6418 0 0 0-7.1457 4.8219l-14.258 28.854-22.246 9.5028a3.8011 3.8011 0 0 0-2.0045 4.989 3.8011 3.8011 0 0 0 4.989 2.0008l14.083-6.0135-4.0906 8.2778-12.977 5.542a3.8011 3.8011 0 0 0-2.0045 4.989 3.8011 3.8011 0 0 0 4.989 2.0045l4.8145-2.0565-0.33037 0.67187a8.2518 9.6418 0 0 0 7.1456 14.466h58.075a8.2518 9.6418 0 0 0 7.1456-14.466l-29.035-58.761a8.2518 9.6418 0 0 0-7.1493-4.8219z" fill="url(#linearGradient1191)" stroke-width="5.7017"/><path d="m104.74 89.423 28.736-12.273" fill="#ff837d" stroke="#56595b" stroke-linecap="round" stroke-linejoin="round" stroke-width="7.6022"/><path d="m104.74 104.22 28.736-12.273" fill="#ff837d" stroke="#56595b" stroke-linecap="round" stroke-linejoin="round" stroke-width="7.6022"/></svg>
