<?xml version="1.0" encoding="utf-8"?>
<!-- Generator: Adobe Illustrator 16.0.0, SVG Export Plug-In . SVG Version: 6.00 Build 0)  -->
<!DOCTYPE svg PUBLIC "-//W3C//DTD SVG 1.1 Tiny//EN" "http://www.w3.org/Graphics/SVG/1.1/DTD/svg11-tiny.dtd">
<svg version="1.1" baseProfile="tiny" id="Layer_1" xmlns="http://www.w3.org/2000/svg" xmlns:xlink="http://www.w3.org/1999/xlink"
	 x="0px" y="0px" width="192px" height="192px" viewBox="0 0 192 192" xml:space="preserve">
<g>
	<g>
		<g>
			<path fill="#FFFFFF" d="M186,173.409c0,6.954-5.637,12.591-12.591,12.591H18.591C11.637,186,6,180.363,6,173.409V18.591
				C6,11.637,11.637,6,18.591,6h154.818C180.363,6,186,11.637,186,18.591V173.409z"/>
		</g>
	</g>
	<g>
		<g>
			<path fill="#FF837D" d="M53.729,73.529c-11.707-2.107-21.423,4.214-21.423,4.214l4.565,8.078c0,0,20.37-9.833,18.614,5.269
				c0,0-5.242-3.222-13.463-1.405c-11.122,2.458-14.517,10.303-12.878,17.795c1.639,7.492,7.258,11.238,12.878,12.175
				c5.619,0.937,11.004-0.819,13.58-3.98v3.513h11.707V88.28C67.309,88.28,68.281,76.148,53.729,73.529z M55.661,106.016
				c0,0-2.458,4.741-9.131,4.039s-7.551-7.375-3.863-10.36c3.688-2.985,11.239-0.702,12.995,0.526V106.016z"/>
			<path fill="#FF837D" d="M145.043,73.529c-11.707-2.107-21.424,4.214-21.424,4.214l4.566,8.078c0,0,20.369-9.833,18.613,5.269
				c0,0-5.241-3.222-13.463-1.405c-11.121,2.458-14.516,10.303-12.877,17.795s7.258,11.238,12.877,12.175s11.005-0.819,13.58-3.98
				v3.513h11.707V88.28C158.623,88.28,159.596,76.148,145.043,73.529z M146.975,106.016c0,0-2.458,4.741-9.131,4.039
				s-7.552-7.375-3.863-10.36c3.688-2.985,11.238-0.702,12.994,0.526V106.016z"/>
			<path fill="#FF837D" d="M105.532,74.758c-9.132-4.39-17.209,1.054-18.614,2.458v-20.46l-11.765,5.71v56.72h11.941V91.441
				c0-3.879,3.218-7.024,7.188-7.024h1.078c3.97,0,7.188,3.145,7.188,7.024v27.746h11.414V92.846
				C113.961,92.846,114.664,79.148,105.532,74.758z"/>
		</g>
		<g>
			<path fill="#728CBD" d="M71.083,163.869c-11.194,3.949-29.646,7.646-40.131-2.029c-4.117-3.799-4.401-12.042-4.136-17.462
				c0.222-4.535,0.912-7.521,2.107-11.881c0.737-2.691,2.382-5.667,0.455-7.691c0,0-2.692-2.459-6.439,5.268
				c-3.746,7.727-11.824,33.834,4.8,41.56c16.624,7.728,50.223,0.234,88.27-35.12c-4.36,3.764-9.024,7.24-13.788,10.468
				C92.548,153.533,82.144,159.967,71.083,163.869z"/>
			<path fill="#728CBD" d="M164.116,20.377c-17.392-7.807-49.554-0.21-87.801,36.278c4.311-3.82,8.929-7.358,13.65-10.648
				c9.587-6.679,19.905-13.249,30.913-17.296c11.881-4.369,28.805-8.701,40.154,1.501c4.167,3.745,4.559,11.984,4.365,17.406
				c-0.162,4.538-0.463,7.181-1.6,11.557c-0.702,2.7-2.308,5.698-0.354,7.696c0,0,2.374,2.423,6.019-5.352
				S180.84,27.885,164.116,20.377z"/>
		</g>
	</g>
</g>
</svg>
