<?xml version="1.0" encoding="UTF-8" standalone="no"?>
<svg
   xmlns:dc="http://purl.org/dc/elements/1.1/"
   xmlns:cc="http://creativecommons.org/ns#"
   xmlns:rdf="http://www.w3.org/1999/02/22-rdf-syntax-ns#"
   xmlns:svg="http://www.w3.org/2000/svg"
   xmlns="http://www.w3.org/2000/svg"
   xmlns:sodipodi="http://sodipodi.sourceforge.net/DTD/sodipodi-0.dtd"
   xmlns:inkscape="http://www.inkscape.org/namespaces/inkscape"
   sodipodi:docname="gallery_ai.svg"
   inkscape:version="1.0.1 (3bc2e813f5, 2020-09-07)"
   version="1.1"
   id="svg2"
   viewBox="0 0 192 192"
   height="192"
   width="192"
   inkscape:export-filename="/home/jphilippe/inkscape/icônes/delta-github/png/gallery_ai.png"
   inkscape:export-xdpi="96"
   inkscape:export-ydpi="96">
  <sodipodi:namedview
     inkscape:document-rotation="0"
     inkscape:window-maximized="1"
     inkscape:window-y="0"
     inkscape:window-x="36"
     inkscape:window-height="1052"
     inkscape:window-width="1884"
     units="px"
     showgrid="false"
     inkscape:current-layer="layer1"
     inkscape:document-units="px"
     inkscape:cy="-1535.9978"
     inkscape:cx="1028.4615"
     inkscape:zoom="0.088388348"
     inkscape:pageshadow="2"
     inkscape:pageopacity="0.0"
     borderopacity="1.0"
     bordercolor="#666666"
     pagecolor="#ffffff"
     id="base"
     inkscape:snap-bbox="false"
     inkscape:object-paths="true"
     inkscape:snap-nodes="true"
     showguides="true"
     inkscape:guide-bbox="true"
     inkscape:snap-object-midpoints="true"
     inkscape:snap-center="true"
     inkscape:snap-global="true"
     inkscape:snap-intersection-paths="true"
     inkscape:snap-smooth-nodes="true"
     inkscape:snap-midpoints="true" />
  <defs
     id="defs4">
    <inkscape:path-effect
       effect="fillet_chamfer"
       id="path-effect2176"
       is_visible="true"
       lpeversion="1"
       satellites_param="F,0,0,1,0,5,0,1 @ F,0,0,1,0,5,0,1 @ F,0,0,1,0,5,0,1 @ F,0,0,1,0,5,0,1 @ F,0,0,1,0,5,0,1 @ F,0,0,1,0,5,0,1"
       unit="px"
       method="auto"
       mode="F"
       radius="5"
       chamfer_steps="1"
       flexible="false"
       use_knot_distance="true"
       apply_no_radius="true"
       apply_with_radius="true"
       only_selected="false"
       hide_knots="false" />
    <inkscape:path-effect
       effect="fillet_chamfer"
       id="path-effect2174"
       is_visible="true"
       lpeversion="1"
       satellites_param="F,0,0,1,0,11,0,1 @ F,0,0,1,0,11,0,1 @ F,0,0,1,0,11,0,1 @ F,0,0,1,0,11,0,1 @ F,0,0,1,0,11,0,1 @ F,0,0,1,0,11,0,1"
       unit="px"
       method="auto"
       mode="F"
       radius="11"
       chamfer_steps="1"
       flexible="false"
       use_knot_distance="true"
       apply_no_radius="true"
       apply_with_radius="true"
       only_selected="false"
       hide_knots="false" />
    <inkscape:path-effect
       effect="fillet_chamfer"
       id="path-effect2171"
       is_visible="true"
       lpeversion="1"
       satellites_param="F,0,0,1,0,4,0,1 @ F,0,0,1,0,4,0,1 @ F,0,0,1,0,4,0,1 @ F,0,0,1,0,4,0,1 @ F,0,0,1,0,4,0,1 @ F,0,0,1,0,4,0,1"
       unit="px"
       method="auto"
       mode="F"
       radius="4"
       chamfer_steps="1"
       flexible="false"
       use_knot_distance="true"
       apply_no_radius="true"
       apply_with_radius="true"
       only_selected="false"
       hide_knots="false" />
  </defs>
  <metadata
     id="metadata7">
    <rdf:RDF>
      <cc:Work
         rdf:about="">
        <dc:format>image/svg+xml</dc:format>
        <dc:type
           rdf:resource="http://purl.org/dc/dcmitype/StillImage" />
        <dc:title></dc:title>
      </cc:Work>
    </rdf:RDF>
  </metadata>
  <g
     transform="translate(0,-860.36216)"
     id="layer1"
     inkscape:groupmode="layer"
     inkscape:label="Calque 1">
    <circle
       style="fill:#000000;fill-opacity:0.497931;stroke-width:5.22416;paint-order:markers fill stroke"
       id="path2094"
       cx="127.26019"
       cy="910.12897"
       r="0" />
    <g
       id="g2374">
      <rect
         style="fill:#4c4c4c;fill-opacity:1;fill-rule:evenodd;stroke:none;stroke-width:1.17647;stroke-opacity:1"
         width="180"
         height="180"
         x="6.0000043"
         y="866.36218"
         rx="11.764706"
         id="rect2249" />
      <path
         id="path2255"
         style="fill:#fed5d3;fill-opacity:1;stroke-width:1.23908;paint-order:markers fill stroke"
         d="M 115.27734 90.880859 L 115.27734 90.884766 C 115.2918 90.884526 115.30586 90.880785 115.32031 90.880859 A 1.7723294 1.5322017 0 0 0 115.27734 90.880859 z M 115.33203 90.880859 C 115.48559 90.882932 115.63699 90.902723 115.78125 90.9375 A 1.7723294 1.5322017 0 0 0 115.33203 90.880859 z M 115.78516 90.939453 C 115.92808 90.974246 116.0658 91.024087 116.19336 91.087891 A 1.7723294 1.5322017 0 0 0 115.78516 90.939453 z M 116.20312 91.09375 C 116.32755 91.156936 116.44119 91.232331 116.54492 91.320312 A 1.7723294 1.5322017 0 0 0 116.20312 91.09375 z M 116.56641 91.339844 C 116.66767 91.428829 116.75917 91.528322 116.83398 91.638672 A 1.7723294 1.5322017 0 0 0 116.56641 91.339844 z M 123.54492 101.68945 L 123.54492 135.75781 L 143.22852 135.75781 A 1.7723292 1.5322016 0 0 0 144.76172 133.45898 L 129.26562 110.25586 L 123.54492 101.68945 z "
         transform="translate(0,860.36216)" />
      <path
         id="path2263"
         style="fill:#b96460;fill-opacity:1;stroke-width:1.23908;paint-order:markers fill stroke"
         d="m 115.27779,951.24369 a 1.7723294,1.5322017 0 0 0 -1.53456,0.7666 l -15.49739,23.20368 -12.425694,18.60766 a 1.7723292,1.5322016 0 0 0 1.534562,2.2986 h 27.923082 z" />
      <path
         id="path2253"
         style="fill:#fe827c;fill-opacity:1;stroke-width:1.5071;paint-order:markers fill stroke"
         inkscape:transform-center-x="-1.5168481e-06"
         inkscape:transform-center-y="-5.9939117"
         d="m 78.129755,938.61647 a 4.3171477,4.5039305 0 0 0 -3.705838,2.25105 l -13.418718,24.24807 -3.739282,6.75697 -1.468959,2.6549 -8.211762,14.83626 a 4.3171475,4.5039303 0 0 0 -0.03346,0.0619 4.3171475,4.5039303 0 0 0 3.70327,6.69395 h 6.354334 l 4.535507,-9.87111 h 32.035391 l 4.535507,9.87111 h 6.349205 a 4.3171475,4.5039303 0 0 0 3.6904,-6.72609 l -0.0154,-0.0296 -13.42001,-24.24813 -3.737998,-6.75566 -9.680721,-17.49241 -0.01416,-0.0244 a 4.3171477,4.5039305 0 0 0 -0.0193,-0.0336 4.3171477,4.5039305 0 0 0 -3.737997,-2.19316 z m 0.03214,12.77685 10.807525,23.5175 H 67.354376 Z" />
      <path
         id="path2251"
         style="fill:#fed5d3;fill-opacity:1;stroke-width:1.25444;paint-order:markers fill stroke"
         d="M 78.162109,951.39341 67.353516,974.91099 H 88.96875 Z" />
      <path
         id="path2310"
         style="fill:#fed5d3;fill-opacity:1;stroke-width:1.25444;paint-order:markers fill stroke"
         d="M 90.876953,986.24888 H 62.144531 l -4.535156,9.87109 h 28.03125 1.707031 a 1.7723292,1.5322016 0 0 1 -0.115234,-0.004 1.7723292,1.5322016 0 0 1 -0.115234,-0.01 1.7723292,1.5322016 0 0 1 -0.115235,-0.0176 1.7723292,1.5322016 0 0 1 -0.111328,-0.0215 1.7723292,1.5322016 0 0 1 -0.111328,-0.0293 1.7723292,1.5322016 0 0 1 -0.107422,-0.0371 1.7723292,1.5322016 0 0 1 -0.105469,-0.041 1.7723292,1.5322016 0 0 1 -0.101562,-0.0469 1.7723292,1.5322016 0 0 1 -0.09961,-0.0527 1.7723292,1.5322016 0 0 1 -0.09375,-0.0586 1.7723292,1.5322016 0 0 1 -0.08789,-0.0644 1.7723292,1.5322016 0 0 1 -0.08594,-0.0684 1.7723292,1.5322016 0 0 1 -0.07813,-0.0742 1.7723292,1.5322016 0 0 1 -0.07422,-0.0762 1.7723292,1.5322016 0 0 1 -0.06641,-0.082 1.7723292,1.5322016 0 0 1 -0.06055,-0.0859 1.7723292,1.5322016 0 0 1 -0.05469,-0.0879 1.7723292,1.5322016 0 0 1 -0.04687,-0.0898 1.7723292,1.5322016 0 0 1 -0.04102,-0.0937 1.7723292,1.5322016 0 0 1 -0.0332,-0.0977 1.7723292,1.5322016 0 0 1 -0.02734,-0.0957 1.7723292,1.5322016 0 0 1 -0.01758,-0.0996 1.7723292,1.5322016 0 0 1 -0.01172,-0.0996 1.7723292,1.5322016 0 0 1 -0.0039,-0.0996 1.7723292,1.5322016 0 0 1 0.0039,-0.0996 1.7723292,1.5322016 0 0 1 0.01172,-0.0996 1.7723292,1.5322016 0 0 1 0.01953,-0.0996 1.7723292,1.5322016 0 0 1 0.02539,-0.0977 1.7723292,1.5322016 0 0 1 0.03516,-0.0957 1.7723292,1.5322016 0 0 1 0.03906,-0.0937 1.7723292,1.5322016 0 0 1 0.04883,-0.0918 1.7723292,1.5322016 0 0 1 0.05469,-0.0879 z" />
      <path
         id="path2257"
         style="fill:#fe827c;fill-opacity:1;stroke-width:2.89827;paint-order:markers fill stroke"
         d="m 115.32709,951.24389 c -0.0925,-7.5e-4 -0.18501,0.005 -0.27656,0.0165 v 44.85987 h 3.32381 l 5.16965,-10e-5 V 962.04864 L 116.83978,952.009 c -0.31282,-0.46789 -0.88762,-0.7587 -1.51269,-0.76534 z"
         sodipodi:nodetypes="ccccccccc" />
      <circle
         style="fill:#f7c08b;fill-opacity:1;stroke-width:3.52431;paint-order:markers fill stroke"
         id="circle2259"
         cx="115.30379"
         cy="927.88965"
         r="11.286017" />
      <path
         id="path2261"
         style="fill:#000000;fill-opacity:0.25;stroke-width:1.25444;paint-order:markers fill stroke"
         d="m 78.131046,938.61647 c -1.53088,0.0118 -2.941903,0.86801 -3.707636,2.25105 l -17.158178,31.00451 -9.679917,17.49208 c -1.662696,3.00257 0.415002,6.75645 3.7388,6.75658 h 26.83909 v -57.50422 c -0.01074,-7e-5 -0.02147,-7e-5 -0.03214,0 z"
         sodipodi:nodetypes="sccccccss" />
    </g>
  </g>
  <style
     type="text/css"
     id="style853">
	.st0{fill:#FFFFFF;}
</style>
</svg>
