<?xml version="1.0" encoding="UTF-8" standalone="no"?>
<svg
   xmlns:dc="http://purl.org/dc/elements/1.1/"
   xmlns:cc="http://creativecommons.org/ns#"
   xmlns:rdf="http://www.w3.org/1999/02/22-rdf-syntax-ns#"
   xmlns:svg="http://www.w3.org/2000/svg"
   xmlns="http://www.w3.org/2000/svg"
   xmlns:sodipodi="http://sodipodi.sourceforge.net/DTD/sodipodi-0.dtd"
   xmlns:inkscape="http://www.inkscape.org/namespaces/inkscape"
   sodipodi:docname="aib.svg"
   inkscape:version="1.0.1 (3bc2e813f5, 2020-09-07)"
   version="1.1"
   id="svg2"
   viewBox="0 0 192 192"
   height="192"
   width="192"
   inkscape:export-filename="/home/jphilippe/inkscape/icônes/delta-github/png/aib.png"
   inkscape:export-xdpi="96"
   inkscape:export-ydpi="96">
  <sodipodi:namedview
     inkscape:document-rotation="0"
     inkscape:window-maximized="1"
     inkscape:window-y="30"
     inkscape:window-x="1920"
     inkscape:window-height="1022"
     inkscape:window-width="1680"
     units="px"
     showgrid="false"
     inkscape:current-layer="layer1"
     inkscape:document-units="px"
     inkscape:cy="110.09068"
     inkscape:cx="172.45706"
     inkscape:zoom="1.4142136"
     inkscape:pageshadow="2"
     inkscape:pageopacity="0.0"
     borderopacity="1.0"
     bordercolor="#666666"
     pagecolor="#ffffff"
     id="base"
     inkscape:snap-bbox="false"
     inkscape:object-paths="true"
     inkscape:snap-nodes="true"
     showguides="true"
     inkscape:guide-bbox="true"
     inkscape:snap-object-midpoints="true"
     inkscape:snap-center="true"
     inkscape:snap-global="true"
     inkscape:snap-intersection-paths="true"
     inkscape:snap-smooth-nodes="true"
     inkscape:snap-midpoints="true">
    <inkscape:grid
       type="xygrid"
       id="grid1015" />
  </sodipodi:namedview>
  <defs
     id="defs4" />
  <metadata
     id="metadata7">
    <rdf:RDF>
      <cc:Work
         rdf:about="">
        <dc:format>image/svg+xml</dc:format>
        <dc:type
           rdf:resource="http://purl.org/dc/dcmitype/StillImage" />
        <dc:title />
      </cc:Work>
    </rdf:RDF>
  </metadata>
  <g
     transform="translate(0,-860.36216)"
     id="layer1"
     inkscape:groupmode="layer"
     inkscape:label="Calque 1">
    <path
       id="rect985"
       style="fill:#bd9aff;fill-opacity:1;fill-rule:evenodd;stroke:none;stroke-opacity:1"
       d="m 29.5,879.86218 h 133 c 5.54,0 10,4.46 10,10 v 133.00002 c 0,5.54 -4.46,10 -10,10 h -133 c -5.54,0 -10,-4.46 -10,-10 V 889.86218 c 0,-5.54 4.46,-10 10,-10 z" />
    <path
       id="path974"
       style="fill:#ffffff;stroke-width:0.999999"
       transform="translate(0,860.36216)"
       d="m 62.726562,65.697266 c -0.198657,0.05108 -0.350101,0.220958 -0.425781,0.470703 -0.560026,1.77089 -2.663709,13.335962 3.208985,13.820312 17.79971,1.48331 14.740526,15.938138 27.742187,18.617188 v 4.720701 h -8.248047 a 2.4385426,2.4385426 157.7024 0 0 -1.712085,0.70209 l -2.751611,2.71301 a 0.410081,0.410081 67.702398 0 0 0.287915,0.70209 h 12.423828 v 8.02344 H 81.931641 c -8.869583,0 -12.578037,-6.08524 -11.125,-10.7168 1.200982,-3.86658 9.2179,-11.020584 0.368832,-14.400479 -0.515768,-0.196997 -0.782454,0.09298 -0.649419,0.628721 C 72.494946,98.90717 59.5,98.373819 59.5,111.63672 c 0,10.74643 12.381466,14.68164 22.431641,14.68164 h 28.136719 c 10.05018,0 22.43164,-3.93521 22.43164,-14.68164 0,-13.248488 -12.99527,-12.728456 -11.02598,-20.658715 0.13301,-0.53561 -0.13379,-0.825458 -0.64965,-0.628443 -8.84979,3.379911 -0.84663,10.533878 0.36899,14.400438 1.45304,4.63156 -2.25542,10.7168 -11.125,10.7168 H 98.748047 v -8.02344 h 12.423833 a 0.41008037,0.41008037 112.29757 0 0 0.28791,-0.70209 l -2.75161,-2.71301 a 2.4385464,2.4385464 22.297571 0 0 -1.71209,-0.70209 h -8.248043 v -4.707029 c 10.549663,-2.16441 11.835403,-12.72883 19.070313,-17.875 2.43712,-1.726322 6.30384,-2.173685 8.11449,-2.28958 0.54987,-0.0352 0.63692,-0.306804 0.19296,-0.635353 -2.06568,-1.528709 -7.4464,-5.511676 -8.14143,-6.036005 -0.86276,-0.65083 -2.84439,-2.011719 -5.16016,-2.011719 -2.80013,0 -6.64566,4.071864 -9.2793,5.751954 -5.645647,3.60232 -18.071639,9.398268 -40.109373,-9.582032 -0.264877,-0.227035 -0.510327,-0.295223 -0.708985,-0.24414 z m 50.656248,7.767578 c 1.34709,0 2.45313,1.104092 2.45313,2.451172 0,1.3471 -1.10604,2.453125 -2.45313,2.453125 -1.34708,0 -2.45117,-1.106025 -2.45117,-2.453125 0,-1.36221 1.10409,-2.451172 2.45117,-2.451172 z" />
  </g>
  <style
     type="text/css"
     id="style853">
	.st0{fill:#FFFFFF;}
</style>
  <style
     type="text/css"
     id="style907">
	.st0{fill:#898989;}
	.st1{fill:#FFFFFF;}
</style>
</svg>
