<?xml version="1.0" encoding="utf-8"?>
<!-- Generator: Adobe Illustrator 17.1.0, SVG Export Plug-In . SVG Version: 6.00 Build 0)  -->
<!DOCTYPE svg PUBLIC "-//W3C//DTD SVG 1.1//EN" "http://www.w3.org/Graphics/SVG/1.1/DTD/svg11.dtd">
<svg version="1.1" id="Слой_1" xmlns="http://www.w3.org/2000/svg" xmlns:xlink="http://www.w3.org/1999/xlink" x="0px" y="0px"
	 viewBox="0 0 192 192" enable-background="new 0 0 192 192" xml:space="preserve">
<path fill="#B1B5BE" d="M192,162c0,16.6-13.4,30-30,30H30c-16.6,0-30-13.4-30-30V30C0,13.4,13.4,0,30,0h132c16.6,0,30,13.4,30,30
	V162z"/>
<path fill="#65E1D4" d="M148.7,192v-12c0-2.8-2.2-5-5-5H47.8c-2.8,0-5,2.2-5,5v12H148.7z"/>
<image overflow="visible" width="180" height="180" xlink:href="84DA686F.jpg"  transform="matrix(1 0 0 1 -6192 -6192)">
</image>
<image overflow="visible" width="241" height="241" xlink:href="30E0AF75.jpg"  transform="matrix(1 0 0 1 0 -305.1059)">
</image>
<g>
	<path fill="#FFFFFF" d="M35.9,138.1C56,103.3,75.6,69.3,96,34c20.4,35.3,40,69.2,60.1,104.1C115.7,138.1,76.3,138.1,35.9,138.1z
		 M96,70.6c-9.8,17-18.9,32.8-28.3,49.2c19.2,0,37.6,0,56.7,0C114.8,103.2,105.7,87.4,96,70.6z"/>
</g>
</svg>
