<?xml version="1.0" encoding="utf-8"?>
<!-- Generator: Adobe Illustrator 16.0.0, SVG Export Plug-In . SVG Version: 6.00 Build 0)  -->
<!DOCTYPE svg PUBLIC "-//W3C//DTD SVG 1.1 Tiny//EN" "http://www.w3.org/Graphics/SVG/1.1/DTD/svg11-tiny.dtd">
<svg version="1.1" baseProfile="tiny" id="Layer_1" xmlns="http://www.w3.org/2000/svg" xmlns:xlink="http://www.w3.org/1999/xlink"
	 x="0px" y="0px" width="192px" height="192px" viewBox="0 0 192 192" xml:space="preserve">
<g>
	<g>
		<path fill="#B1B5BC" d="M172,162.041c0,6.053-4.906,10.959-10.959,10.959H29.959C23.906,173,19,168.094,19,162.041V30.959
			C19,24.906,23.906,20,29.959,20h131.082C167.094,20,172,24.906,172,30.959V162.041z"/>
	</g>
	<g>
		<path fill="#FFFFFF" d="M149,135.951C149,150.338,137.337,162,122.95,162h-55.9C52.663,162,41,150.338,41,135.951V57.049
			C41,42.663,52.663,31,67.05,31h55.9C137.337,31,149,42.663,149,57.049V135.951z"/>
		<rect x="41" y="64" fill="#B4B8C0" width="108" height="1"/>
		<polygon fill="#56595B" points="111.933,106.56 89,149.542 89,117.414 78.936,118.282 101,77.473 101,106.995 		"/>
	</g>
</g>
</svg>
