<?xml version="1.0" encoding="UTF-8" standalone="no"?>
<svg
   xmlns:dc="http://purl.org/dc/elements/1.1/"
   xmlns:cc="http://creativecommons.org/ns#"
   xmlns:rdf="http://www.w3.org/1999/02/22-rdf-syntax-ns#"
   xmlns:svg="http://www.w3.org/2000/svg"
   xmlns="http://www.w3.org/2000/svg"
   xmlns:sodipodi="http://sodipodi.sourceforge.net/DTD/sodipodi-0.dtd"
   xmlns:inkscape="http://www.inkscape.org/namespaces/inkscape"
   viewBox="0 0 192 192"
   version="1.1"
   id="svg16"
   sodipodi:docname="airvpn.svg"
   inkscape:version="0.92.4 (5da689c313, 2019-01-14)">
  <metadata
     id="metadata20">
    <rdf:RDF>
      <cc:Work
         rdf:about="">
        <dc:format>image/svg+xml</dc:format>
        <dc:type
           rdf:resource="http://purl.org/dc/dcmitype/StillImage" />
        <dc:title></dc:title>
      </cc:Work>
    </rdf:RDF>
  </metadata>
  <sodipodi:namedview
     pagecolor="#ffffff"
     bordercolor="#666666"
     borderopacity="1"
     objecttolerance="10"
     gridtolerance="10"
     guidetolerance="10"
     inkscape:pageopacity="0"
     inkscape:pageshadow="2"
     inkscape:window-width="1920"
     inkscape:window-height="1017"
     id="namedview18"
     showgrid="true"
     inkscape:zoom="6.9532167"
     inkscape:cx="94.702721"
     inkscape:cy="105.18043"
     inkscape:window-x="-8"
     inkscape:window-y="-8"
     inkscape:window-maximized="1"
     inkscape:current-layer="svg16"
     inkscape:snap-global="false">
    <inkscape:grid
       type="xygrid"
       id="grid827"
       spacingx="4"
       spacingy="4" />
  </sodipodi:namedview>
  <defs
     id="defs4">
    <style
       id="style2">.a{fill:none;stroke:#b1b5bd;stroke-linecap:round;stroke-linejoin:round;isolation:isolate;opacity:0.63;}</style>
  </defs>
  <circle
     class="a"
     cx="96"
     cy="96"
     r="88"
     id="circle8"
     style="fill:#9abeff;stroke:none;opacity:1" />
  <path
     style="fill:#ffffff;stroke-width:0.96473807"
     d="m 70.375362,115.00226 c 0,0 -1.601789,-4.34656 -1.373524,-6.5733 1.152043,-11.23838 12.781716,-17.290754 21.68208,-17.659618 8.288833,-0.343519 14.716352,5.592212 14.716352,5.592212 0,0 -8.30185,-2.509632 -12.557956,-2.354616 -7.753624,0.282405 -17.823397,7.110912 -18.052048,14.912562 -0.156954,5.3553 2.341552,10.08158 8.241153,10.30144 6.313649,0.2353 6.136839,-2.71992 9.418459,-2.94327 2.944803,-0.20043 4.425306,1.70703 8.731712,1.47163 6.75324,-0.36913 8.42758,-5.96806 11.1844,-5.98464 3.29983,-0.0199 3.47294,7.87583 14.91256,7.45628 6.18769,-0.22693 15.76036,-3.42427 15.89365,-9.61468 0.36344,-16.877083 -15.54077,-15.185826 -16.77663,-16.776629 -1.42575,-1.835244 0.004,-5.155562 -1.66785,-6.769519 -3.72354,-3.593991 -7.96488,-2.060284 -8.92792,-3.335705 -0.91703,-1.214508 2.46431,-8.775865 -2.64893,-12.26362 -12.54901,-8.559722 -29.245761,8.317787 -31.492977,8.927916 -1.544059,0.419218 -4.586957,-1.805367 -10.007115,0.392436 -6.167269,2.500749 -4.316794,10.497659 -4.316794,10.497659 0,0 -5.639216,-2.235228 -11.478748,0.98109 -4.253432,2.342719 -7.54765,6.058331 -7.063846,10.890102 1.158182,11.56675 17.024729,14.77336 21.583972,12.85227 z"
     id="path829"
     inkscape:connector-curvature="0"
     sodipodi:nodetypes="csscsssssssssssssscssc" />
</svg>
