<svg xmlns="http://www.w3.org/2000/svg" xmlns:xlink="http://www.w3.org/1999/xlink" viewBox="0 0 176 178.62"><title>Akinator</title><defs><clipPath id="a" transform="translate(-8 -8)"><circle cx="96" cy="96" r="88" fill="none"/></clipPath></defs><g clip-path="url(#a)"><circle cx="88" cy="88" r="88" fill="#bd9aff"/><path d="M149.21,168a89.56,89.56,0,0,1-38.36,16.12l-1,.15a.07.07,0,0,1-.09,0c-.63.09-1.25.19-1.88.26-.89.12-1.78.24-2.7.31a84.7,84.7,0,0,1-9.07.49H96c-1.8,0-3.61-.05-5.39-.17a89.31,89.31,0,0,1-45.5-15.64l.31-.32s12-7.21,21.66-9.62l9.62-2.41h40.91s1.15.27,3.08.75a.1.1,0,0,1,.07,0l.53.12c1.52.39,3.44.89,5.63,1.54h0C133.59,161.45,142.47,164.36,149.21,168Z" transform="translate(-8 -8)" fill="#9abeff"/><path d="M96.1,186.5c-2,0-3.82-.06-5.54-.17a90.66,90.66,0,0,1-46.1-15.85l-1.19-.82,1.56-1.52c.5-.3,12.3-7.34,22-9.76l9.91-2.44,41.18,0s1.11.25,3,.72l.49.11.18,0c1.57.4,3.47.9,5.62,1.53l.14,0c6.42,1.82,15.53,4.77,22.48,8.49l1.68.91L149.92,169a91.17,91.17,0,0,1-38.87,16.33l-.64.1-.55.54-.47-.41c-.46.07-.92.14-1.38.19-.89.12-1.8.25-2.74.32A88.88,88.88,0,0,1,96.1,186.5Zm-48.8-17a88.19,88.19,0,0,0,43.41,14.44c1.68.11,3.41.16,5.32.16a85.29,85.29,0,0,0,9-.47c.92-.08,1.79-.19,2.65-.31.64-.07,1.25-.17,1.86-.26l.59-.09,0,0,.51-.08a88.91,88.91,0,0,0,36.22-14.76,127,127,0,0,0-20.1-7.36l-.2-.05c-2.17-.65-4.08-1.15-5.58-1.53l-.4-.1-.48-.11c-1.38-.35-2.32-.57-2.65-.64H76.88l-9.48,2.37C59.82,162.61,50.59,167.62,47.3,169.49Z" transform="translate(-8 -8)" fill="#56595b"/><path d="M64.74,48.82c-.49.06-3.71.06-3.71.06l-5.65,2.45a62,62,0,0,0-4.81,26.46l7.22,14.44,36.09-2.4,15.29,14.38c-1.52-12.71-7.8-19.55-14.09-30C93.44,69.25,76.28,56.43,64.74,48.82Z" transform="translate(-8 -8)" fill="#fcecdc"/><path d="M124.5,152.19c-5.37,10.22-14.08,31.42-14.08,31.42-9.29,2-16.87,2.82-19.25,0,0,0,.34-.46.84-1.27,2.53-3.93,9.31-15.84,3.06-21.59,9.24-2.72,19.37-7.41,24-12.7,1.78-2,2.75-4.14,2.58-6.26C124.5,142.85,128.2,142.42,124.5,152.19Z" transform="translate(-8 -8)" fill="#9abeff"/><path d="M65.91,134.28l-.61-49s15.72-6.17,41.51.9c4.81,16.84,4.81,40.9,4.81,40.9l-7.22,19.25s-23.46,14.44-38.19-1.2A71.65,71.65,0,0,1,65.91,134.28Z" transform="translate(-8 -8)" fill="#f8c18c"/><path d="M140.69,64.48s-1.22-1.05-3.17-2.66c-33.26-4.61-48.05-.83-54.13.76C88.83,66.82,93,70.67,93.77,72.9c6.29,10.47,12.57,17.31,14.09,30l20.2,19s17.45-6.92,19.85-19C157.54,74.1,140.69,64.48,140.69,64.48Z" transform="translate(-8 -8)" fill="#fcecdc"/><path d="M138.53,63.05c-5.34-4.4-16.24-13.07-23.3-16.59C102,44.25,70,48,64.55,48.69c6.32,4.17,12.21,9.16,18.8,14.31C90.12,58.82,106.38,55.24,138.53,63.05Z" transform="translate(-8 -8)" fill="#fcecdc"/><path d="M104.4,59.69s-7.21,0-4.81,4.81a72.82,72.82,0,0,0,12,16.85s14.44,2.4,16.85,16.84a3.33,3.33,0,0,1,0,4.81l1.2,18.65s15.64,5.41,20.45-23.46c2.41-12,2.41-21.66-4.81-28.87s-9.62-7.22-9.62-7.22L105,59.69" transform="translate(-8 -8)" fill="#fcecdc"/><path d="M124.86,101.8h12a4.38,4.38,0,0,1,2.41,5.41c-.57,3.87-4.42,8.39-8.43,12.94l-5,8.07s-3.66-.09-2.09,0-1.32,7.24-1.32,7.24l-7.22,7.22a64.14,64.14,0,0,1-28.87,8.72c-9.63-.6-9.63-3.91-9.63-3.91s19.25,0,26.47-4.81c5.18-6.91,5.41-21.24,5.12-28.79a5.1,5.1,0,0,0-5.12-4.9h0s2.41-14.44-12-12c7.22-4.82,9.63-2.41,7.22-12,7.22,0,16.84,2.4,16.84,2.4l9.63,14.44" transform="translate(-8 -8)" fill="#f8c18c"/><path d="M139.3,48.86c7.21-4.81,4.81-9.62,4.81-9.62L139.3,32s2.4,7.22-7.22,12-2.41,12-2.41,12A87.88,87.88,0,0,1,139.3,48.86Z" transform="translate(-8 -8)" fill="#ff837d"/><path d="M75.53,82.85S70.72,88.57,65.91,91c0,2.41,2.4,7.22,2.4,7.22h4.81l2.11,8.12,4.15.51s-3.85,1-3.85,5.81a10.54,10.54,0,0,0,2.41,7.22h4.81c-.62,2-6.85,7.21-8.94,7.21h-.69s-2.4,0-2.4,4.82c-2.41,4.81,0,12,0,12l4.81-2.41-2.41,9.63c-7.26-5.58-14.06-11.61-16.84-21.66l4.81-24.06-2.4-16.84S68.31,82,75.53,82.85Z" transform="translate(-8 -8)" fill="#f8c18c"/><path d="M63.5,110.22s-1.81-3,.3-5.11A7,7,0,0,1,68.31,103a2.36,2.36,0,0,1,2.41,2.41c0,2.41,0,4.81-2.41,4.81Z" transform="translate(-8 -8)" fill="#fff"/><path d="M88.76,109c-1.14-.38-1.2-3.61,0-4.81,4.82-2.41,10.23-2.41,13.54,1.2,4.21,4.81-5.11,4.81-5.11,4.81A31.87,31.87,0,0,1,88.76,109Z" transform="translate(-8 -8)" fill="#fff"/><path d="M129.63,57.74l-.81-.81c-.14-.14-3.52-3.58-2.87-7.63.42-2.55,2.3-4.68,5.59-6.33,6.47-3.23,7-7.46,6.78-9.69a1.44,1.44,0,0,1,.93-1.51,1.47,1.47,0,0,1,1.7.56l4.16,6.24c.19.36,2.86,6-5.15,11.29h0A88.7,88.7,0,0,0,130.48,57Zm10.93-21.66c-.56,2.71-2.43,6.29-7.94,9.05-2.56,1.28-4,2.81-4.29,4.56a6.67,6.67,0,0,0,1.48,4.68,101.78,101.78,0,0,1,8.82-6.51c6.17-4.11,4.47-7.94,4.4-8.1Z" transform="translate(-8 -8)" fill="#56595b"/><ellipse cx="60.31" cy="98.01" rx="2.41" ry="3.01" fill="#56595b"/><ellipse cx="90.39" cy="98.01" rx="3.61" ry="3.01" fill="#56595b"/><path d="M87.56,103.6a.63.63,0,0,1-.19,0,.6.6,0,0,1-.38-.76c.06-.16,1.4-4,6.59-4a25.2,25.2,0,0,1,9.89,2.47.6.6,0,0,1-.54,1.08A24.16,24.16,0,0,0,93.58,100c-4.33,0-5.43,3.17-5.45,3.2A.59.59,0,0,1,87.56,103.6Z" transform="translate(-8 -8)" fill="#56595b"/><path d="M62.3,104.8h0a.59.59,0,0,1-.6-.59,3.8,3.8,0,0,1,1.51-2.9c1.42-1,3.61-1,6.5-.08a.6.6,0,0,1-.38,1.14c-2.46-.82-4.33-.85-5.4-.09a2.53,2.53,0,0,0-1,1.93A.6.6,0,0,1,62.3,104.8Z" transform="translate(-8 -8)" fill="#56595b"/><path d="M73.76,124.06H71.24a3,3,0,0,1-2.93-2.32,19,19,0,0,1,.63-10.51c1.34-4,4.12-5.21,6.2-5.51a10.16,10.16,0,0,1,4.19.32.61.61,0,0,1,.38.76.6.6,0,0,1-.76.38c-.27-.09-6.68-2.12-8.87,4.43a17.8,17.8,0,0,0-.61,9.84,1.82,1.82,0,0,0,1.77,1.4h2.52a1.78,1.78,0,0,0,.81-.19L77.85,121a5.52,5.52,0,0,1,2.43-.57h1.27a1.82,1.82,0,0,0,1.79-1.57l-2.22-2.22a.6.6,0,0,1,.85-.85l2.41,2.41a.6.6,0,0,1,.18.42,3,3,0,0,1-3,3H80.28a4.17,4.17,0,0,0-1.89.45l-3.29,1.64A3,3,0,0,1,73.76,124.06Z" transform="translate(-8 -8)" fill="#56595b"/><path d="M68.22,121.65a3,3,0,0,1-2.38-4.84.59.59,0,0,1,.84-.12.61.61,0,0,1,.11.85,1.81,1.81,0,0,0,1.43,2.91.6.6,0,0,1,0,1.2Z" transform="translate(-8 -8)" fill="#56595b"/><path d="M84,131.28H69.51a.61.61,0,0,1,0-1.21H84c.07,0,6.88-.06,9.09-4.48a.6.6,0,0,1,.8-.26.59.59,0,0,1,.27.8C91.57,131.22,84.26,131.28,84,131.28Z" transform="translate(-8 -8)" fill="#56595b"/><path d="M63.5,106a.57.57,0,0,1-.46-.22.6.6,0,0,1,.07-.84c.19-.16,4.7-3.87,7.47-1.11a.61.61,0,0,1,0,.85.59.59,0,0,1-.85,0c-2-2-5.81,1.15-5.85,1.18A.59.59,0,0,1,63.5,106Z" transform="translate(-8 -8)" fill="#56595b"/><path d="M103.2,107.21a.61.61,0,0,1-.54-.33,7,7,0,0,0-3-3,9.86,9.86,0,0,0-9,.07l-1.56.78a.6.6,0,1,1-.53-1.07l1.56-.78a11,11,0,0,1,10.13-.06,8.19,8.19,0,0,1,3.55,3.51.6.6,0,0,1-.27.81A.66.66,0,0,1,103.2,107.21Z" transform="translate(-8 -8)" fill="#56595b"/><path d="M85.23,46.76s-9.7.9-4.89,5.71c7.22,4.81,12.64,8.42,12.33,7.82s-9,2.41-9,2.41L64.43,48.51C73.82,46.27,80.6,45.78,85.23,46.76Z" transform="translate(-8 -8)" fill="#fcecdc"/><path d="M75.53,57.28v2.41s4.81,2.41,4.81,9.63a44.64,44.64,0,0,1-7.22,9.62s-9.62-2.41-12,0v2.41s14.44,0,19.25-2.41,14.44.66,14.44,4.27A32.25,32.25,0,0,0,102,84.66s-10.23-16-17.15-20.46S75.53,57.28,75.53,57.28Z" transform="translate(-8 -8)" fill="#fcecdc"/><path d="M129.15,123.45l-.17-2.4c.68,0,16.51-1.36,18.75-17,2.33-16.3,2.39-19,2.39-19.09l0-.29c.09-.35,2-9-9.21-18-10.9-8.73-23.95-17.55-26.09-19H74.52a53.75,53.75,0,0,1-14.35,2.41,23.59,23.59,0,0,1-2.39,1c-2,.72-2.21.8-3.94,7.73a89.19,89.19,0,0,0-2.37,18.68l7.09,14.18-1.64,1.59L49.06,78v-.28A90.58,90.58,0,0,1,51.5,58.2c1.86-7.41,2.36-8.29,5.47-9.41a21.83,21.83,0,0,0,2.38-1l.26-.13h.28A51.26,51.26,0,0,0,74,45.31l.38-.06H115.6l.3.21c.14.09,14.62,9.76,26.55,19.31s10.35,19,10.07,20.34c0,.74-.3,4.47-2.41,19.26C147.6,122,129.34,123.44,129.15,123.45Z" transform="translate(-8 -8)" fill="#56595b"/><path d="M78.17,95.06l3.18,3.85a2.39,2.39,0,0,0,3,.6c2.26-1.26,7.1-2.94,15.27-1.32,9.48,1.88,9.85,2.07,9.85,2.07l-1.91-3.76a4.87,4.87,0,0,0-1.91-1.18c-1.76-.57-5.64-1.5-12.74-1.83a26.81,26.81,0,0,0-9.66,1.33l-2.88,1-.92-1.91Z" transform="translate(-8 -8)" fill="#56595b"/><path d="M139,65.07c-.38-.09-37.73-8.84-55.5-1.26l-.94-2.22c18.5-7.88,55.43.77,57,1.14Z" transform="translate(-8 -8)" fill="#56595b"/><path d="M75.53,127.06h0a2.41,2.41,0,0,1-2.41,2.41l-1.61-.8a9.64,9.64,0,0,0-8-.3,31.32,31.32,0,0,1-4.85,1.1s5.38-4.81,6.3-4.81h8.13A2.41,2.41,0,0,1,75.53,127.06Z" transform="translate(-8 -8)" fill="#56595b"/><circle cx="61.36" cy="98.92" r="1.2" fill="#d2d2d2"/><circle cx="92.65" cy="98.74" r="1.2" fill="#ececec"/><path d="M80.34,125.78V126a2.41,2.41,0,0,0,3.34,2.22c2.22-.92,5-2.24,6.29-3.55a7.43,7.43,0,0,1,4.81-2.41h2.41c-1.06-.63-3.76-3-4.82-2.4l-1.72,1a28.75,28.75,0,0,1-9.2,3.56h0A1.37,1.37,0,0,0,80.34,125.78Z" transform="translate(-8 -8)" fill="#56595b"/><path d="M98.39,124.66a1.2,1.2,0,0,1-.85-.35c-3.82-3.82-7.52-.4-7.93,0a1.2,1.2,0,0,1-1.7-1.7c2-2,6.85-4.48,11.33,0a1.2,1.2,0,0,1-.85,2Z" transform="translate(-8 -8)" fill="#56595b"/><path d="M71.92,98.19c-.66,0-1.2-.32-1.2-.72V95.31c0-.4.54-.72,1.21-.72h0c.66,0,1.2.32,1.2.72v2.16c0,.4-.53.72-1.2.72Z" transform="translate(-8 -8)" fill="#56595b"/><rect x="80.26" y="93.44" width="1.81" height="6.74" transform="translate(-52.68 77.75) rotate(-45)" fill="#56595b"/><path d="M58.63,95.78c-.74.32-3.88-7.38-4.76-9.62l4.82,4Z" transform="translate(-8 -8)" fill="#56595b"/><path d="M112.83,89.77s4.81,4.81,4.81,9.62v11a2.4,2.4,0,0,0,.7,1.7l1.71,1.7s0-9.62,4.81-12c0-3.43-4.91-10.14-8.42-13.23a1.57,1.57,0,0,0-2.41,0Z" transform="translate(-8 -8)" fill="#56595b"/><path d="M94.78,83.21a31.55,31.55,0,0,0,7.84,1.36S95,70.45,84.85,64.2" transform="translate(-8 -8)" fill="#fcecdc"/><path d="M77.94,137.17a22.3,22.3,0,0,1-6.21-1.11.6.6,0,0,1-.38-.76.6.6,0,0,1,.76-.38c1.91.63,7.25,1.9,9,.14a.61.61,0,0,1,.85,0,.6.6,0,0,1,0,.86A5.66,5.66,0,0,1,77.94,137.17Z" transform="translate(-8 -8)" fill="#56595b"/><path d="M96,87.36,114,91l2.44-3.23S98.39,82.55,88.76,85C88.76,87.36,96,87.36,96,87.36Z" transform="translate(-8 -8)" fill="#f8c18c"/><path d="M102.18,85.59C90.43,66.79,63.94,49.84,63.67,49.67l1.29-2c1.11.7,27.22,17.42,39.26,36.68Z" transform="translate(-8 -8)" fill="#56595b"/><path d="M59.89,99.09s1.2-3.31,6-.9,7.21,2.41,7.21,2.41V95.78H68.31c-2.4,0-9.62-2.4-9.62,0A4.1,4.1,0,0,0,59.89,99.09Z" transform="translate(-8 -8)" fill="#56595b"/><path d="M134.48,109.62a.6.6,0,0,1-.48-.24L132.2,107a.6.6,0,0,1,1-.72l1.8,2.4a.61.61,0,0,1-.12.85A.58.58,0,0,1,134.48,109.62Z" transform="translate(-8 -8)" fill="#56595b"/><path d="M122.45,124.06H121l1-1c.23-.23.5-.66.41-.85s-.67-.53-2.39-.53v-1.2a3.94,3.94,0,0,0,4.16-3.61h-2.59l2.65-7.94c.06-.57.61-2.89,5.41-2.89h4.81a.6.6,0,0,1,0,1.2h-4.81c-4.07,0-4.21,1.75-4.21,1.82l0,.18-2.15,6.43h2.17v.6a5.51,5.51,0,0,1-2.57,4.73,1.49,1.49,0,0,1,.66.75,1.42,1.42,0,0,1,0,1,9.42,9.42,0,0,0,3.24-2,.6.6,0,0,1,.85.85C127.58,121.58,125.08,124.06,122.45,124.06Z" transform="translate(-8 -8)" fill="#56595b"/><path d="M124.86,129.17h-4.81c-3.22,0-3.31-5.13-3.31-5.71a.9.9,0,0,1,.9-.91h0a.9.9,0,0,1,.9.91c0,1.22.39,3.91,1.51,3.91h4.81s1.89-.4,4-6.6l.22-.36c4.61-4.6,9.36-9.36,9.36-13.8,0-3-1-3.86-1.53-3.91h-12a.9.9,0,0,1,0-1.8h12c.13,0,3.31.06,3.31,5.71,0,5.14-4.93,10.12-9.74,14.93C128,128.8,125.36,129.17,124.86,129.17Z" transform="translate(-8 -8)" fill="#56595b"/><path d="M74.61,141.5h.92a2.41,2.41,0,0,1,2.41,2.41v2.4a5.88,5.88,0,0,1,1.8,5.12l-6.62-.3v2.4h0a3.33,3.33,0,0,1-3,4.82H68.31s-2.4,4.81,0,7.21c-2.15-2.15-4.3-4.3-3-8.18a2.13,2.13,0,0,1,2-1.44h0a2.09,2.09,0,0,0,1.87-3l-.42-.85a2.06,2.06,0,0,1,0-1.87l3.68-7.36A2.42,2.42,0,0,1,74.61,141.5Z" transform="translate(-8 -8)" fill="#56595b"/><path d="M127,159.55v0h0l-16.1,24.52-1,.15L121.32,158l.07-.14Z" transform="translate(-8 -8)" fill="#56595b"/><path d="M105.63,163.69a8,8,0,0,1,1.18,4.28c0,4-2.69,7.22-6,7.22-.1,0-.35.48-.6,1A2.42,2.42,0,0,1,98,177.6H94.78C95,177.36,97,167,95.89,163.81c-.6-1.81-1.11-3.06-1.11-3.06s7.22,0,12-2.4A11.93,11.93,0,0,1,105.63,163.69Z" transform="translate(-8 -8)" fill="#f9de81"/><path d="M98,178.2h-4.7l1-.95c.39-1.2,2-10.48,1-13.25-.59-1.77-1.09-3-1.1-3l-.33-.83h.89c.07,0,7.13,0,11.76-2.35l.87-.43v1a12.73,12.73,0,0,1-1.1,5.31,8.74,8.74,0,0,1,1.1,4.31c0,4.2-2.81,7.64-6.33,7.81l-.34.68A3,3,0,0,1,98,178.2ZM95.57,177H98a1.8,1.8,0,0,0,1.63-1c.46-1,.69-1.36,1.15-1.36,3,0,5.41-3,5.41-6.62a7.47,7.47,0,0,0-1.09-4l-.18-.29.15-.3a11,11,0,0,0,1.09-4.12,32.68,32.68,0,0,1-10.53,2c.2.55.49,1.34.81,2.29C97.34,166.26,96.28,174.14,95.57,177Z" transform="translate(-8 -8)" fill="#ff837d"/><circle cx="94" cy="159.97" r="2.41" fill="#ff837d"/><path d="M80.34,152l-6,7.52s-2.41,0,2.4,4.81v7.22l4.82-7.22s3.6-2.4,3-12" transform="translate(-8 -8)" fill="#9abeff"/><path d="M91.7,185.69l-2.12-1.13c2.65-5,8.37-17.31,4.22-23.11l-1.36-1.9h2.34c1.92,0,5.92-1.4,9.94-3.48,6.07-3.11,11-7,13.1-10.4,1.58-2.5,1.36-3.55,1.26-3.81a.63.63,0,0,0-.27-.32l.6-2.33a2.94,2.94,0,0,1,1.9,1.76c.6,1.49.11,3.5-1.45,6-3.4,5.4-11,9.68-14,11.26a38.07,38.07,0,0,1-9.12,3.52C99.69,168.6,95,179.5,91.7,185.69Z" transform="translate(-8 -8)" fill="#56595b"/><path d="M126.06,101.8h-2.41c0-6-7.71-12.35-9-13.34-2-.56-17.69-4.71-33.13-4.71-16,0-22,5.61-22,5.67s-1.19,1.13-2.19,2.11l-1.68-1.72c1-1,2.2-2.12,2.2-2.12.23-.24,6.54-6.34,23.69-6.34,16.81,0,33.84,4.81,34,4.86l.39.19C116.37,86.71,126.06,94.07,126.06,101.8Z" transform="translate(-8 -8)" fill="#56595b"/><path d="M119.08,148.05c-4.64,5.29-14.77,10-24,12.7,6.25,5.75-.53,17.66-3.06,21.59-18.55-3-15.28-8.35-15.28-8.35,5.26-7.12,8.94-14.56,8.42-22.86l35-11.67C119.85,142.59,119.49,145.45,119.08,148.05Z" transform="translate(-8 -8)" fill="#f8c18c"/><path d="M79.14,70.52a7.15,7.15,0,0,1-2.82,5.7l-4.54-3.58-1.3,5a7.22,7.22,0,1,1,8.66-7.07Z" transform="translate(-8 -8)" fill="#f9de81"/><path d="M70.48,78.5l-.18,0a8.12,8.12,0,1,1,9.74-8,8,8,0,0,1-3.17,6.42.9.9,0,0,1-1.1,0L72.3,74.2l-1,3.62A.9.9,0,0,1,70.48,78.5Zm1.44-14.3a6.32,6.32,0,0,0-2.09,12.29l1.07-4.08a.91.91,0,0,1,.59-.63.93.93,0,0,1,.85.15l4,3.13a6.21,6.21,0,0,0,1.94-4.54A6.33,6.33,0,0,0,71.92,64.2Z" transform="translate(-8 -8)" fill="#56595b"/><path d="M76.63,174.21l-1.1-9.36c-2.55-2.6-3.38-4.19-2.87-5.42a1.75,1.75,0,0,1,1-1l5.76-7.2,1.88,1.5-6.19,7.74a14.91,14.91,0,0,0,2.49,3l.36.35v3.75l2.94-4.25s3-2.32,2.47-11l2.4-.15c.57,9-2.4,12.19-3.31,12.94,0,0-2.16,4.21-3,5.52C78.79,171.64,76.63,174.21,76.63,174.21Z" transform="translate(-8 -8)" fill="#56595b"/><path d="M83,152.72a32.16,32.16,0,0,1-5.27-.41C66.87,150.5,60,141.07,56.86,135.61a10.67,10.67,0,0,1-1.32-7c.87-5.81,2.57-16.76,4.3-25.48-2.05-4.48-2.32-12-2.35-14.27l2.4,0c0,1.56.25,9.54,2.28,13.61l.19.37-.09.41C60.53,112,58.8,123.12,57.92,129a8.33,8.33,0,0,0,1,5.42c2.92,5.1,9.31,13.88,19.19,15.53,13.93,2.32,35.2-7,35.41-7.13s6.95-3.23,9.19-14.42l2.36.47c-2.5,12.5-10.25,16-10.58,16.15C113.72,145.36,97,152.72,83,152.72Z" transform="translate(-8 -8)" fill="#56595b"/><path d="M97.38,186.62c-3.59,0-5.87-.74-7.13-2.23a1.2,1.2,0,0,1,0-1.49s.33-.45.79-1.2c2.2-3.41,8.89-14.89,3.27-20.06a1.2,1.2,0,0,1,.47-2c8.22-2.42,18.7-6.94,23.45-12.35,1.65-1.87,2.41-3.67,2.28-5.36a1.19,1.19,0,0,1,1.62-1.22c.32.12.66.22,1,.32,1.28.38,2.88.85,3.69,2.48.91,1.84.56,4.66-1.15,9.15a.69.69,0,0,1-.05.13c-5.28,10.06-13.95,31.11-14,31.33a1.23,1.23,0,0,1-.85.72A67.55,67.55,0,0,1,97.38,186.62Zm-5.07-2.32c3.29,1.93,13,.26,17-.6,1.44-3.49,9.23-22.78,14.06-32,1.7-4.5,1.6-6.38,1.22-7.15-.29-.58-.89-.84-1.82-1.13a10.83,10.83,0,0,1-2.81,5.43c-4.74,5.4-14.56,9.89-22.79,12.52,4.55,6.52-1.27,17.12-4.17,21.62C92.93,183.13,92.39,184.18,92.31,184.3Zm32.19-32.11h0Z" transform="translate(-8 -8)" fill="#56595b"/></g></svg>