<svg xmlns="http://www.w3.org/2000/svg" viewBox="0 0 176 178.62"><defs><clipPath id="a" transform="translate(-8 -8)"><circle cx="96" cy="96" r="88" fill="none"/></clipPath></defs><g clip-path="url(#a)"><circle cx="88" cy="88" r="88" fill="#bd9aff"/><path fill="#9abeff" d="M141.21 160a89.56 89.56 0 0 1-38.36 16.12l-1 .15a.07.07 0 0 1-.09 0c-.63.09-1.25.19-1.88.26-.89.12-1.78.24-2.7.31a84.7 84.7 0 0 1-9.07.49H88c-1.8 0-3.61-.05-5.39-.17a89.31 89.31 0 0 1-45.5-15.64l.31-.32s12-7.21 21.66-9.62l9.62-2.41h40.91s1.15.27 3.08.75a.1.1 0 0 1 .07 0l.53.12c1.52.39 3.44.89 5.63 1.54 6.67 1.87 15.55 4.78 22.29 8.42Z"/><path fill="#56595b" d="M88.1 178.5c-2 0-3.82-.06-5.54-.17a90.66 90.66 0 0 1-46.1-15.85l-1.19-.82 1.56-1.52c.5-.3 12.3-7.34 22-9.76l9.91-2.44h41.18s1.11.25 3 .72l.49.11h.18c1.57.4 3.47.9 5.62 1.53h.14c6.42 1.82 15.53 4.77 22.48 8.49l1.68.91-1.59 1.3a91.17 91.17 0 0 1-38.87 16.33l-.64.1-.55.54-.47-.41c-.46.07-.92.14-1.38.19-.89.12-1.8.25-2.74.32a88.88 88.88 0 0 1-9.17.43Zm-48.8-17a88.19 88.19 0 0 0 43.41 14.44c1.68.11 3.41.16 5.32.16a85.29 85.29 0 0 0 9-.47c.92-.08 1.79-.19 2.65-.31.64-.07 1.25-.17 1.86-.26l.59-.09.51-.08a88.91 88.91 0 0 0 36.22-14.76 127 127 0 0 0-20.1-7.36l-.2-.05c-2.17-.65-4.08-1.15-5.58-1.53l-.4-.1-.48-.11a87.87 87.87 0 0 0-2.65-.64H68.88l-9.48 2.37c-7.58 1.9-16.81 6.91-20.1 8.78Z"/><path fill="#fcecdc" d="M56.74 40.82c-.49.06-3.71.06-3.71.06l-5.65 2.45a62 62 0 0 0-4.81 26.46l7.22 14.44 36.09-2.4 15.29 14.38c-1.52-12.71-7.8-19.55-14.09-30-1.64-4.96-18.8-17.78-30.34-25.39Z"/><path fill="#9abeff" d="M116.5 144.19c-5.37 10.22-14.08 31.42-14.08 31.42-9.29 2-16.87 2.82-19.25 0 0 0 .34-.46.84-1.27 2.53-3.93 9.31-15.84 3.06-21.59 9.24-2.72 19.37-7.41 24-12.7 1.78-2 2.75-4.14 2.58-6.26 2.85 1.06 6.55.63 2.85 10.4Z"/><path fill="#f8c18c" d="m57.91 126.28-.61-49s15.72-6.17 41.51.9c4.81 16.84 4.81 40.9 4.81 40.9l-7.22 19.25s-23.46 14.44-38.19-1.2a71.65 71.65 0 0 1-.3-10.85Z"/><path fill="#fcecdc" d="M132.69 56.48s-1.22-1.05-3.17-2.66c-33.26-4.61-48.05-.83-54.13.76 5.44 4.24 9.61 8.09 10.38 10.32 6.29 10.47 12.57 17.31 14.09 30l20.2 19s17.45-6.92 19.85-19c9.63-28.8-7.22-38.42-7.22-38.42Z"/><path fill="#fcecdc" d="M130.53 55.05c-5.34-4.4-16.24-13.07-23.3-16.59C94 36.25 62 40 56.55 40.69c6.32 4.17 12.21 9.16 18.8 14.31 6.77-4.18 23.03-7.76 55.18.05Z"/><path fill="#fcecdc" d="M96.4 51.69s-7.21 0-4.81 4.81a72.82 72.82 0 0 0 12 16.85s14.44 2.4 16.85 16.84a3.33 3.33 0 0 1 0 4.81l1.2 18.65s15.64 5.41 20.45-23.46c2.41-12 2.41-21.66-4.81-28.87s-9.62-7.22-9.62-7.22L97 51.69"/><path fill="#f8c18c" d="M116.86 93.8h12a4.38 4.38 0 0 1 2.41 5.41c-.57 3.87-4.42 8.39-8.43 12.94l-5 8.07s-3.66-.09-2.09 0-1.32 7.24-1.32 7.24l-7.22 7.22a64.14 64.14 0 0 1-28.87 8.72c-9.63-.6-9.63-3.91-9.63-3.91s19.25 0 26.47-4.81c5.18-6.91 5.41-21.24 5.12-28.79a5.1 5.1 0 0 0-5.12-4.9s2.41-14.44-12-12c7.22-4.82 9.63-2.41 7.22-12 7.22 0 16.84 2.4 16.84 2.4l9.63 14.44"/><path fill="#ff837d" d="M131.3 40.86c7.21-4.81 4.81-9.62 4.81-9.62L131.3 24s2.4 7.22-7.22 12-2.41 12-2.41 12a87.88 87.88 0 0 1 9.63-7.14Z"/><path fill="#f8c18c" d="M67.53 74.85s-4.81 5.72-9.62 8.15c0 2.41 2.4 7.22 2.4 7.22h4.81l2.11 8.12 4.15.51s-3.85 1-3.85 5.81a10.54 10.54 0 0 0 2.41 7.22h4.81c-.62 2-6.85 7.21-8.94 7.21h-.69s-2.4 0-2.4 4.82c-2.41 4.81 0 12 0 12l4.81-2.41-2.41 9.63c-7.26-5.58-14.06-11.61-16.84-21.66l4.81-24.06-2.4-16.84s9.62-6.57 16.84-5.72Z"/><path fill="#fff" d="M55.5 102.22s-1.81-3 .3-5.11A7 7 0 0 1 60.31 95a2.36 2.36 0 0 1 2.41 2.41c0 2.41 0 4.81-2.41 4.81ZM80.76 101c-1.14-.38-1.2-3.61 0-4.81 4.82-2.41 10.23-2.41 13.54 1.2 4.21 4.81-5.11 4.81-5.11 4.81a31.87 31.87 0 0 1-8.43-1.2Z"/><path fill="#56595b" d="m121.63 49.74-.81-.81c-.14-.14-3.52-3.58-2.87-7.63.42-2.55 2.3-4.68 5.59-6.33 6.47-3.23 7-7.46 6.78-9.69a1.44 1.44 0 0 1 .93-1.51 1.47 1.47 0 0 1 1.7.56l4.16 6.24c.19.36 2.86 6-5.15 11.29a88.7 88.7 0 0 0-9.48 7.14Zm10.93-21.66c-.56 2.71-2.43 6.29-7.94 9.05-2.56 1.28-4 2.81-4.29 4.56a6.67 6.67 0 0 0 1.48 4.68 101.78 101.78 0 0 1 8.82-6.51c6.17-4.11 4.47-7.94 4.4-8.1Z"/><ellipse cx="60.31" cy="98.01" fill="#56595b" rx="2.41" ry="3.01"/><ellipse cx="90.39" cy="98.01" fill="#56595b" rx="3.61" ry="3.01"/><path fill="#56595b" d="M79.56 95.6a.63.63 0 0 1-.19 0 .6.6 0 0 1-.38-.76c.06-.16 1.4-4 6.59-4a25.2 25.2 0 0 1 9.89 2.47.604.604 0 0 1-.54 1.08A24.16 24.16 0 0 0 85.58 92c-4.33 0-5.43 3.17-5.45 3.2a.59.59 0 0 1-.57.4ZM54.3 96.8a.59.59 0 0 1-.6-.59 3.8 3.8 0 0 1 1.51-2.9c1.42-1 3.61-1 6.5-.08a.6.6 0 0 1-.38 1.14c-2.46-.82-4.33-.85-5.4-.09a2.53 2.53 0 0 0-1 1.93.6.6 0 0 1-.63.59ZM65.76 116.06h-2.52a3 3 0 0 1-2.93-2.32 19 19 0 0 1 .63-10.51c1.34-4 4.12-5.21 6.2-5.51a10.16 10.16 0 0 1 4.19.32.61.61 0 0 1 .38.76.6.6 0 0 1-.76.38c-.27-.09-6.68-2.12-8.87 4.43a17.8 17.8 0 0 0-.61 9.84 1.82 1.82 0 0 0 1.77 1.4h2.52a1.78 1.78 0 0 0 .81-.19l3.28-1.66a5.52 5.52 0 0 1 2.43-.57h1.27a1.82 1.82 0 0 0 1.79-1.57l-2.22-2.22a.601.601 0 0 1 .85-.85l2.41 2.41a.6.6 0 0 1 .18.42 3 3 0 0 1-3 3h-1.28a4.17 4.17 0 0 0-1.89.45l-3.29 1.64a3 3 0 0 1-1.34.35Z"/><path fill="#56595b" d="M60.22 113.65a3 3 0 0 1-2.38-4.84.59.59 0 0 1 .84-.12.61.61 0 0 1 .11.85 1.81 1.81 0 0 0 1.43 2.91.6.6 0 0 1 0 1.2ZM76 123.28H61.51a.61.61 0 0 1 0-1.21H76c.07 0 6.88-.06 9.09-4.48a.6.6 0 0 1 .8-.26.59.59 0 0 1 .27.8c-2.59 5.09-9.9 5.15-10.16 5.15ZM55.5 98a.57.57 0 0 1-.46-.22.6.6 0 0 1 .07-.84c.19-.16 4.7-3.87 7.47-1.11a.61.61 0 0 1 0 .85.59.59 0 0 1-.85 0c-2-2-5.81 1.15-5.85 1.18a.59.59 0 0 1-.38.14ZM95.2 99.21a.61.61 0 0 1-.54-.33 7 7 0 0 0-3-3 9.86 9.86 0 0 0-9 .07l-1.56.78a.6.6 0 1 1-.53-1.07l1.56-.78a11 11 0 0 1 10.13-.06 8.19 8.19 0 0 1 3.55 3.51.6.6 0 0 1-.27.81.66.66 0 0 1-.34.07Z"/><path fill="#fcecdc" d="M77.23 38.76s-9.7.9-4.89 5.71c7.22 4.81 12.64 8.42 12.33 7.82s-9 2.41-9 2.41L56.43 40.51c9.39-2.24 16.17-2.73 20.8-1.75ZM67.53 49.28v2.41s4.81 2.41 4.81 9.63a44.64 44.64 0 0 1-7.22 9.62s-9.62-2.41-12 0v2.41s14.44 0 19.25-2.41 14.44.66 14.44 4.27A32.25 32.25 0 0 0 94 76.66s-10.23-16-17.15-20.46-9.32-6.92-9.32-6.92Z"/><path fill="#56595b" d="m121.15 115.45-.17-2.4c.68 0 16.51-1.36 18.75-17 2.33-16.3 2.39-19 2.39-19.09v-.29c.09-.35 2-9-9.21-18-10.9-8.73-23.95-17.55-26.09-19h-40.3a53.75 53.75 0 0 1-14.35 2.41 23.59 23.59 0 0 1-2.39 1c-2 .72-2.21.8-3.94 7.73a89.19 89.19 0 0 0-2.37 18.68l7.09 14.18-1.64 1.59L41.06 70v-.28A90.58 90.58 0 0 1 43.5 50.2c1.86-7.41 2.36-8.29 5.47-9.41a21.83 21.83 0 0 0 2.38-1l.26-.13h.28A51.26 51.26 0 0 0 66 37.31l.38-.06h41.22l.3.21c.14.09 14.62 9.76 26.55 19.31s10.35 19 10.07 20.34c0 .74-.3 4.47-2.41 19.26-2.51 17.63-20.77 19.07-20.96 19.08Z"/><path fill="#56595b" d="m70.17 87.06 3.18 3.85a2.39 2.39 0 0 0 3 .6c2.26-1.26 7.1-2.94 15.27-1.32 9.48 1.88 9.85 2.07 9.85 2.07l-1.91-3.76a4.87 4.87 0 0 0-1.91-1.18c-1.76-.57-5.64-1.5-12.74-1.83a26.81 26.81 0 0 0-9.66 1.33l-2.88 1-.92-1.91ZM131 57.07c-.38-.09-37.73-8.84-55.5-1.26l-.94-2.22c18.5-7.88 55.43.77 57 1.14ZM67.53 119.06a2.41 2.41 0 0 1-2.41 2.41l-1.61-.8a9.64 9.64 0 0 0-8-.3 31.32 31.32 0 0 1-4.85 1.1s5.38-4.81 6.3-4.81h8.13a2.41 2.41 0 0 1 2.44 2.4Z"/><circle cx="61.36" cy="98.92" r="1.2" fill="#d2d2d2"/><circle cx="92.65" cy="98.74" r="1.2" fill="#ececec"/><path fill="#56595b" d="M72.34 117.78v.22a2.41 2.41 0 0 0 3.34 2.22c2.22-.92 5-2.24 6.29-3.55a7.43 7.43 0 0 1 4.81-2.41h2.41c-1.06-.63-3.76-3-4.82-2.4l-1.72 1a28.75 28.75 0 0 1-9.2 3.56 1.37 1.37 0 0 0-1.11 1.36Z"/><path fill="#56595b" d="M90.39 116.66a1.2 1.2 0 0 1-.85-.35c-3.82-3.82-7.52-.4-7.93 0a1.202 1.202 0 0 1-1.7-1.7c2-2 6.85-4.48 11.33 0a1.2 1.2 0 0 1-.85 2ZM63.92 90.19c-.66 0-1.2-.32-1.2-.72v-2.16c0-.4.54-.72 1.21-.72.66 0 1.2.32 1.2.72v2.16c0 .4-.53.72-1.2.72ZM70.144 87.07l1.28-1.28 4.766 4.766-1.28 1.28zM50.63 87.78c-.74.32-3.88-7.38-4.76-9.62l4.82 4ZM104.83 81.77s4.81 4.81 4.81 9.62v11a2.4 2.4 0 0 0 .7 1.7l1.71 1.7s0-9.62 4.81-12c0-3.43-4.91-10.14-8.42-13.23a1.57 1.57 0 0 0-2.41 0Z"/><path fill="#fcecdc" d="M86.78 75.21a31.55 31.55 0 0 0 7.84 1.36S87 62.45 76.85 56.2"/><path fill="#56595b" d="M69.94 129.17a22.3 22.3 0 0 1-6.21-1.11.6.6 0 0 1-.38-.76.6.6 0 0 1 .76-.38c1.91.63 7.25 1.9 9 .14a.61.61 0 0 1 .85 0 .6.6 0 0 1 0 .86 5.66 5.66 0 0 1-4.02 1.25Z"/><path fill="#f8c18c" d="M88 79.36 106 83l2.44-3.23S90.39 74.55 80.76 77c0 2.36 7.24 2.36 7.24 2.36Z"/><path fill="#56595b" d="M94.18 77.59c-11.75-18.8-38.24-35.75-38.51-35.92l1.29-2c1.11.7 27.22 17.42 39.26 36.68ZM51.89 91.09s1.2-3.31 6-.9 7.21 2.41 7.21 2.41v-4.82h-4.79c-2.4 0-9.62-2.4-9.62 0a4.1 4.1 0 0 0 1.2 3.31ZM126.48 101.62a.6.6 0 0 1-.48-.24L124.2 99a.616.616 0 0 1 1-.72l1.8 2.4a.61.61 0 0 1-.12.85.58.58 0 0 1-.4.09Z"/><path fill="#56595b" d="M114.45 116.06H113l1-1c.23-.23.5-.66.41-.85s-.67-.53-2.39-.53v-1.2a3.94 3.94 0 0 0 4.16-3.61h-2.59l2.65-7.94c.06-.57.61-2.89 5.41-2.89h4.81a.6.6 0 0 1 0 1.2h-4.81c-4.07 0-4.21 1.75-4.21 1.82v.18l-2.15 6.43h2.17v.6a5.51 5.51 0 0 1-2.57 4.73 1.49 1.49 0 0 1 .66.75 1.42 1.42 0 0 1 0 1 9.42 9.42 0 0 0 3.24-2 .601.601 0 0 1 .85.85c-.06-.02-2.56 2.46-5.19 2.46Z"/><path fill="#56595b" d="M116.86 121.17h-4.81c-3.22 0-3.31-5.13-3.31-5.71a.9.9 0 0 1 .9-.91.9.9 0 0 1 .9.91c0 1.22.39 3.91 1.51 3.91h4.81s1.89-.4 4-6.6l.22-.36c4.61-4.6 9.36-9.36 9.36-13.8 0-3-1-3.86-1.53-3.91h-12a.9.9 0 0 1 0-1.8h12c.13 0 3.31.06 3.31 5.71 0 5.14-4.93 10.12-9.74 14.93-2.48 7.26-5.12 7.63-5.62 7.63ZM66.61 133.5h.92a2.41 2.41 0 0 1 2.41 2.41v2.4a5.88 5.88 0 0 1 1.8 5.12l-6.62-.3v2.4a3.33 3.33 0 0 1-3 4.82h-1.81s-2.4 4.81 0 7.21c-2.15-2.15-4.3-4.3-3-8.18a2.13 2.13 0 0 1 2-1.44 2.09 2.09 0 0 0 1.87-3l-.42-.85a2.06 2.06 0 0 1 0-1.87l3.68-7.36a2.42 2.42 0 0 1 2.17-1.36ZM119 151.55l-16.1 24.52-1 .15L113.32 150l.07-.14Z"/><path fill="#f9de81" d="M97.63 155.69a8 8 0 0 1 1.18 4.28c0 4-2.69 7.22-6 7.22-.1 0-.35.48-.6 1A2.42 2.42 0 0 1 90 169.6h-3.22c.22-.24 2.22-10.6 1.11-13.79-.6-1.81-1.11-3.06-1.11-3.06s7.22 0 12-2.4a11.93 11.93 0 0 1-1.15 5.34Z"/><path fill="#ff837d" d="M90 170.2h-4.7l1-.95c.39-1.2 2-10.48 1-13.25-.59-1.77-1.09-3-1.1-3l-.33-.83h.89c.07 0 7.13 0 11.76-2.35l.87-.43v1a12.73 12.73 0 0 1-1.1 5.31 8.74 8.74 0 0 1 1.1 4.31c0 4.2-2.81 7.64-6.33 7.81l-.34.68a3 3 0 0 1-2.72 1.7Zm-2.43-1.2H90a1.8 1.8 0 0 0 1.63-1c.46-1 .69-1.36 1.15-1.36 3 0 5.41-3 5.41-6.62a7.47 7.47 0 0 0-1.09-4l-.18-.29.15-.3a11 11 0 0 0 1.09-4.12 32.68 32.68 0 0 1-10.53 2c.2.55.49 1.34.81 2.29.9 2.66-.16 10.54-.87 13.4Z"/><circle cx="94" cy="159.97" r="2.41" fill="#ff837d"/><path fill="#9abeff" d="m72.34 144-6 7.52s-2.41 0 2.4 4.81v7.22l4.82-7.22s3.6-2.4 3-12"/><path fill="#56595b" d="m83.7 177.69-2.12-1.13c2.65-5 8.37-17.31 4.22-23.11l-1.36-1.9h2.34c1.92 0 5.92-1.4 9.94-3.48 6.07-3.11 11-7 13.1-10.4 1.58-2.5 1.36-3.55 1.26-3.81a.63.63 0 0 0-.27-.32l.6-2.33a2.94 2.94 0 0 1 1.9 1.76c.6 1.49.11 3.5-1.45 6-3.4 5.4-11 9.68-14 11.26a38.07 38.07 0 0 1-9.12 3.52c2.95 6.85-1.74 17.75-5.04 23.94ZM118.06 93.8h-2.41c0-6-7.71-12.35-9-13.34-2-.56-17.69-4.71-33.13-4.71-16 0-22 5.61-22 5.67s-1.19 1.13-2.19 2.11l-1.68-1.72c1-1 2.2-2.12 2.2-2.12.23-.24 6.54-6.34 23.69-6.34 16.81 0 33.84 4.81 34 4.86l.39.19c.44.31 10.13 7.67 10.13 15.4Z"/><path fill="#f8c18c" d="M111.08 140.05c-4.64 5.29-14.77 10-24 12.7 6.25 5.75-.53 17.66-3.06 21.59-18.55-3-15.28-8.35-15.28-8.35 5.26-7.12 8.94-14.56 8.42-22.86l35-11.67c-.31 3.13-.67 5.99-1.08 8.59Z"/><path fill="#f9de81" d="M71.14 62.52a7.15 7.15 0 0 1-2.82 5.7l-4.54-3.58-1.3 5a7.22 7.22 0 1 1 8.66-7.07Z"/><path fill="#56595b" d="M62.48 70.5h-.18a8.12 8.12 0 1 1 9.74-8 8 8 0 0 1-3.17 6.42.9.9 0 0 1-1.1 0L64.3 66.2l-1 3.62a.9.9 0 0 1-.82.68Zm1.44-14.3a6.32 6.32 0 0 0-2.09 12.29l1.07-4.08a.91.91 0 0 1 .59-.63.93.93 0 0 1 .85.15l4 3.13a6.21 6.21 0 0 0 1.94-4.54 6.33 6.33 0 0 0-6.36-6.32ZM68.63 166.21l-1.1-9.36c-2.55-2.6-3.38-4.19-2.87-5.42a1.75 1.75 0 0 1 1-1l5.76-7.2 1.88 1.5-6.19 7.74a14.91 14.91 0 0 0 2.49 3l.36.35v3.75l2.94-4.25s3-2.32 2.47-11l2.4-.15c.57 9-2.4 12.19-3.31 12.94 0 0-2.16 4.21-3 5.52-.67 1.01-2.83 3.58-2.83 3.58Z"/><path fill="#56595b" d="M75 144.72a32.16 32.16 0 0 1-5.27-.41c-10.86-1.81-17.73-11.24-20.87-16.7a10.67 10.67 0 0 1-1.32-7c.87-5.81 2.57-16.76 4.3-25.48-2.05-4.48-2.32-12-2.35-14.27h2.4c0 1.56.25 9.54 2.28 13.61l.19.37-.09.41C52.53 104 50.8 115.12 49.92 121a8.33 8.33 0 0 0 1 5.42c2.92 5.1 9.31 13.88 19.19 15.53 13.93 2.32 35.2-7 35.41-7.13s6.95-3.23 9.19-14.42l2.36.47c-2.5 12.5-10.25 16-10.58 16.15-.77.34-17.49 7.7-31.49 7.7Z"/><path fill="#56595b" d="M89.38 178.62c-3.59 0-5.87-.74-7.13-2.23a1.2 1.2 0 0 1 0-1.49s.33-.45.79-1.2c2.2-3.41 8.89-14.89 3.27-20.06a1.2 1.2 0 0 1 .47-2c8.22-2.42 18.7-6.94 23.45-12.35 1.65-1.87 2.41-3.67 2.28-5.36a1.19 1.19 0 0 1 1.62-1.22c.32.12.66.22 1 .32 1.28.38 2.88.85 3.69 2.48.91 1.84.56 4.66-1.15 9.15a.69.69 0 0 1-.05.13c-5.28 10.06-13.95 31.11-14 31.33a1.23 1.23 0 0 1-.85.72 67.55 67.55 0 0 1-13.39 1.78Zm-5.07-2.32c3.29 1.93 13 .26 17-.6 1.44-3.49 9.23-22.78 14.06-32 1.7-4.5 1.6-6.38 1.22-7.15-.29-.58-.89-.84-1.82-1.13a10.83 10.83 0 0 1-2.81 5.43c-4.74 5.4-14.56 9.89-22.79 12.52 4.55 6.52-1.27 17.12-4.17 21.62-.07.14-.61 1.19-.69 1.31Zm32.19-32.11Z"/></g></svg>