<svg xmlns="http://www.w3.org/2000/svg" xml:space="preserve" width="192" height="192"><g fill="#FF877F"><path d="M161.666 105.657c-.204-3.772-.511-13.46-.511-13.46 4.667 4.765 8.264 8.13 11.143 10.682 5.005 4.438 7.379 6.162 10.341 5.227 3.876-1.224 3.264-3.808 3.264-3.808-1.224-12.373-1.224-35.08-1.224-35.08s-.136-2.176-6.118-1.496c-5.983.68-5.439 3.399-5.439 3.399-.136 2.583-.067 14.753-.067 14.753-4.896-4.487-15.569-15.841-15.569-15.841-1.088-1.224-2.175-1.903-6.254-.544-4.08 1.36-3.264 3.536-3.264 3.536l.271 8.702s-4.623-11.286-17.54-10.878c-12.302.389-18.424 13.529-18.424 13.529l-.544-6.255-15.024.204c0-2.855.407-10.606.407-10.606-.407-2.991-5.303-2.583-5.303-2.583-4.895.68-6.119 1.903-6.526 4.351-.408 2.448-.68 8.974-.68 8.974H79.71s-3.127.408-3.127 5.303 2.583 4.623 2.583 4.623h5.167c-.272 8.294.136 12.033.136 12.033-6.119-4.351-14.073-13.461-14.073-13.461 2.719-3.943 10.877-13.597 10.877-13.597s1.428-1.564-3.059-4.827-5.983-.952-5.983-.952l-10.334 12.51V67.45c0-2.175-1.224-3.535-6.254-2.583-5.031.952-5.031 3.807-5.031 3.807.136 6.119 1.02 27.262 1.02 27.262-2.447-5.031-13.665-29.438-13.665-29.438s-.544-1.496-5.031-1.224-6.527 3.399-6.527 3.399C15.531 87.03 6.557 104.978 6.557 104.978c-1.02 2.176 1.02 4.147 5.303 5.167s5.507-1.938 5.507-1.938l2.244-4.385c8.77-.918 21.721-2.754 21.721-2.754l3.671 7.648s.186 1.221 2.651 1.632c2.447.408 5.609-1.428 5.609-1.428.714.918 3.059 1.325 7.036.204 3.978-1.122 3.264-3.773 3.264-3.773-.612-5.507-.51-9.28-.51-9.28 5.201 6.22 13.665 13.359 14.991 14.277 1.326.918 1.427.918 2.855.306 1.428-.611 3.773-3.467 3.773-3.467v.918s-.654 4.082 6.221 3.568c6.833-.51 5.813-4.486 5.813-4.486-.307-7.853-.103-18.662-.103-18.662h3.875c.408 12.339 1.836 20.804 1.836 20.804s.103 2.651 6.017 1.428c6.348-1.313 5.303-4.487 5.303-4.487-.407-4.691-.306-5.608-.306-5.608 5.201 9.789 12.747 11.523 21.926 10.197 9.178-1.325 14.072-11.829 14.072-11.829.204 1.325.612 8.974.612 8.974s-.918 3.161 5.813 1.836c6.73-1.327 5.915-4.183 5.915-4.183zM25.525 92.91l5.405-10.198s.816-1.326 1.734-.204l4.079 8.872c0 .001-8.261 1.122-11.218 1.53zm111.36-1.223c-.611 3.467-2.243 6.221-6.118 6.221-3.707 0-6.119-2.396-5.813-7.342.34-5.497 6.017-6.221 6.017-6.221 5.507-.715 6.526 3.874 5.914 7.342z"/><path d="M105.815 75.404c3.436.224 5.915-2.108 6.663-5.235.748-3.127.952-8.634-6.595-8.022 0 0-6.526.68-6.391 6.255.137 5.575 3.196 6.798 6.323 7.002zM104.456 118.813c0-1.529-.714-2.753-2.447-3.263s-2.754-.103-3.569 1.938c-.816 2.039-3.62 8.107-3.62 8.107-1.734-3.468-3.722-7.853-4.13-9.434-.31-1.201-1.224-.714-2.958-.306-1.733.408-2.392 1.431-2.447 2.039-.102 1.122-.153 1.734-.153 1.734-.816 5.303-.969 12.951-.969 12.951.102 1.224 2.312 1.632 3.229 1.598.918-.034 1.02-.477 1.02-.714 0-.238.034-1.088.034-1.088 0-4.589.612-8.771.612-8.771.815 2.04 3.569 7.241 3.875 7.954.306.715.917.918 2.04.511 1.122-.408 1.631-.918 2.345-3.365.849-2.911 2.346-5.813 2.346-5.813.306 3.162.815 7.853 1.122 9.383.306 1.529 1.428 1.529 3.467 1.529 2.04 0 1.428-1.428 1.428-1.428-.817-4.078-1.225-12.032-1.225-13.562zM119.549 114.938c-1.836-.204-9.45.85-10.708 1.428-1.625.747-4.079 3.468-1.631 3.773 0 0-.816 3.671-.103 7.853.714 4.181 1.938 5.813 3.773 5.813 1.835 0 4.47-.71 6.526-1.02 1.802-.272 2.957-.612 2.754-1.836-.204-1.224-.612-1.224-1.734-1.122-1.121.103-4.079.612-5.2.816 0 0-.918-2.55-.918-3.773 0 0 3.705-.559 5.914-1.122 1.734-.441 1.7-1.835 1.395-2.549s-1.7-.612-2.72-.511c-.71.071-4.793.918-4.793.918s-.17-1.903.204-3.977c0 0 3.06-.408 4.385-.408 1.326 0 3.06-.918 3.773-2.243.715-1.327.919-1.836-.917-2.04zM137.599 113.51c-1.224 0-3.569.918-3.772 4.589-.204 3.672-.307 7.853-.307 7.853s-2.243-1.836-7.852-9.28c0 0-.154-.281-.155-.611-.001-.488.091-1.081-.457-1.02-1.451.161-3.467 2.243-3.365 3.467 0 0-.408 8.158-.102 14.073 0 0-.307 1.632 1.427.714 1.734-.918 2.652-2.04 2.652-3.161 0-1.122-.103-5.1-.103-5.1s3.773 4.691 7.547 7.343c0 0 .815 1.02 2.753-.306 1.938-1.326 1.938-2.447 1.938-3.06s-.102-8.362.408-13.869c0 0 .612-1.632-.612-1.632zM149.633 122.28c-2.244-.714-3.468-.714-4.182-1.02-.714-.307-.714-1.122 1.326-2.448 2.039-1.325 3.875-.611 4.69-.407.816.203 1.224-.612.612-1.632 0 0-1.736-3.592-6.425-3.161-4.997.458-8.486 5.116-5.15 8.617 3.11 3.263 5.201 2.702 7.903 3.824 3.341 1.386.408 2.192-1.274 2.345-2.071.188-3.417.527-4.946-.204-1.172-.561-1.988-1.224-2.345-.255-.625 1.696 3.467 4.641 7.24 5.048 3.773.408 8.464-.815 8.566-3.977.103-3.16-3.772-6.016-6.015-6.73zM167.07 126.801c-1.224 0-1.428 2.108-4.555 1.632-3.127-.476-2.516-4.895-1.496-6.866 1.021-1.972 3.672-4.419 6.527-4.147 2.855.272 2.923-.476 1.835-1.768 0 0-1.495-1.835-3.875-2.516-2.38-.68-7.206 1.36-9.042 6.866-1.836 5.508 1.155 11.966 7.07 12.51 0 0 3.399.408 5.575-1.02 0 0 1.972-.952 1.428-1.903-.543-.952-2.243-2.788-3.467-2.788z"/><path d="M185.495 113.815c0-1.02-1.156-1.087-2.856-.34-1.391.612-2.311 1.496-2.311 2.447v5.711h-4.964v-6.73c0-1.087-1.087-.951-2.447-.611 0 0-1.782.477-1.835 1.903-.068 1.836 0 5.438 0 5.438s-.884.068-1.36.137c-.476.067-1.699 1.291 1.428 2.855 0 0 .068 4.419.272 6.118 0 0-.204 1.428 2.516.476 0 0 1.835-.34 1.835-1.835l-.271-4.352h4.895s.136 4.216.34 5.507c.204 1.292 1.563 1.224 2.991.544s2.313-1.292 2.108-2.72c-.205-1.425-.341-11.896-.341-14.548z"/></g></svg>