<svg xmlns="http://www.w3.org/2000/svg" xml:space="preserve" viewBox="0 0 192 192"><rect width="152" height="152" x="20" y="20" fill="#54688c" class="a" rx="10"/><path fill="#96dfd3" d="M109.29 82.515s8.944-.384 10.289.036c1.345.42 2.857 1.597 2.857 1.597s7.04 6.044 9.286 9.936c.675 1.167.624 3.097 0 3.84-3.091 3.684-9.156 10.434-10.799 10.762-2.52.505-11.47.799-11.47.799L95.885 95.919z"/><path fill="#73ada4" d="M95.884 76.963s6.053-6.596 7.3-7.25c1.249-.653 3.15-.891 3.15-.891s9.251-.704 13.592.46c1.302.348 2.632 1.749 2.716 2.715.418 4.79.903 13.853-.026 15.246-1.426 2.14-7.547 8.676-7.547 8.676H95.884z"/><path fill="#96dfd3" d="M82.48 82.515s-.384-8.944.036-10.289c.42-1.345 1.597-2.857 1.597-2.857s6.044-7.04 9.936-9.286c1.167-.675 3.097-.624 3.84 0 3.684 3.091 10.434 9.156 10.762 10.798.505 2.522.799 11.471.799 11.471L95.884 95.918z"/><path fill="#9abeff" d="M82.48 109.32s-8.944.384-10.289-.036c-1.345-.42-2.857-1.597-2.857-1.597s-7.04-6.044-9.286-9.936c-.675-1.167-.624-3.098 0-3.84 3.091-3.684 9.156-10.435 10.798-10.763 2.522-.504 11.471-.798 11.471-.798l13.566 13.566z"/><path fill="#728dbe" d="M95.884 114.88s-6.053 6.596-7.3 7.25c-1.249.653-3.15.891-3.15.891s-9.251.704-13.592-.46c-1.302-.348-2.632-1.749-2.716-2.715-.418-4.79-.903-13.853.026-15.246 1.426-2.14 7.547-8.676 7.547-8.676h19.185z"/><path fill="#9abeff" d="M109.29 109.32s.384 8.944-.036 10.289c-.42 1.345-1.597 2.857-1.597 2.857s-6.044 7.04-9.936 9.286c-1.167.675-3.097.624-3.84 0-3.684-3.091-10.434-9.156-10.762-10.799-.505-2.52-.799-11.47-.799-11.47l13.566-13.567z"/><path fill="#96dfd3" d="M109.29 82.515s8.944-.384 10.289.036c1.345.42 2.857 1.597 2.857 1.597s7.04 6.044 9.286 9.936c.675 1.167.624 3.097 0 3.84-3.091 3.684-9.156 10.434-10.799 10.762-2.52.505-11.47.799-11.47.799L95.885 95.919z"/><path fill="#73ada4" d="M95.884 76.963s6.053-6.596 7.3-7.25c1.249-.653 3.15-.891 3.15-.891s9.251-.704 13.592.46c1.302.348 2.632 1.749 2.716 2.715.418 4.79.903 13.853-.026 15.246-1.426 2.14-7.547 8.676-7.547 8.676H95.884z"/><path fill="#96dfd3" d="M82.48 82.515s-.384-8.944.036-10.289c.42-1.345 1.597-2.857 1.597-2.857s6.044-7.04 9.936-9.286c1.167-.675 3.097-.624 3.84 0 3.684 3.091 10.434 9.156 10.762 10.798.505 2.522.799 11.471.799 11.471L95.884 95.918z"/><path fill="#9abeff" d="M82.48 109.32s-8.944.384-10.289-.036c-1.345-.42-2.857-1.597-2.857-1.597s-7.04-6.044-9.286-9.936c-.675-1.167-.624-3.098 0-3.84 3.091-3.684 9.156-10.435 10.798-10.763 2.522-.504 11.471-.798 11.471-.798l13.566 13.566z"/><path fill="#728dbe" d="M95.884 114.88s-6.053 6.596-7.3 7.25c-1.249.653-3.15.891-3.15.891s-9.251.704-13.592-.46c-1.302-.348-2.632-1.749-2.716-2.715-.418-4.79-.903-13.853.026-15.246 1.426-2.14 7.547-8.676 7.547-8.676h19.185z"/><path fill="#9abeff" d="M109.29 109.32s.384 8.944-.036 10.289c-.42 1.345-1.597 2.857-1.597 2.857s-6.044 7.04-9.936 9.286c-1.167.675-3.097.624-3.84 0-3.684-3.091-10.434-9.156-10.762-10.799-.505-2.52-.799-11.47-.799-11.47l13.566-13.567z"/></svg>