<svg xmlns="http://www.w3.org/2000/svg" viewBox="0 0 176 84.69"><path fill="#56595b" d="M19.07 75.28a6.11 6.11 0 0 1-2.59-1.33C9 66.63 18.58 58.19 29.74 53.34v-14a21.86 21.86 0 0 0 4.12 2l8.51-8.44-2.86-7.26c24.91-8.62 34.89-11.9 55.13-15.3L91 6.9l5.93-3.35c13.6 4.47 28.82 7.32 25.46 18.12.56-7.75-9.47-11.46-24.13-15.58l-3.12 2 4.86 4c-24.2 4.16-39.14 8.9-56.86 15.04l2.44 6.28-8.93 8.87a38.37 38.37 0 0 0 33.14-5.66s.35-.21.35-.34a19 19 0 0 0-2.93-2.87 7.79 7.79 0 0 1 7.26 8.8h-2.23a7.69 7.69 0 0 0-.63-3.87 42.24 42.24 0 0 1-39.36 6.1v10.81c-6 2.1-16.67 8.73-16.6 15.15a5.82 5.82 0 0 0 3.42 4.88"/><path fill="#f8c18c" d="M70.71 71.99c-13.5 6.62-26.44 11.94-46.35 12.69-25.95-.54-30-17.26-17.72-34.73 11.6-17.61 30.03-33.61 59.29-43.54 8.51-2.93 21-6.21 33-6.41 17.31-.14 34.12 5.05 33 21.15-.63 12.35-19 29.69-28.63 42.18-4.15 5.45-4.85 9 2.26 8.66 25.64-1.65 48.85-10.23 70.44-19.17-14.63 9.62-90.1 45.85-90.38 21.15.07-3.14 1.55-6.48 4-10a101.13 101.13 0 0 1 9.14-11c5.15-5.63 17.95-19.33 22.24-27.52 7.24-15.28-8.93-16-22.93-20.81l-6 3.27 3.66 3.35c-20.4 3.27-30.46 6.55-55.56 14.94l2.9 7.14-8.51 8.19a20.23 20.23 0 0 1-4.15-1.91v13.65c-11.18 4.77-20.89 13-13.36 20.19a6.16 6.16 0 0 0 2.6 1.3c13.78 7.51 51.13-2.73 51.06-2.73"/></svg>