<?xml version="1.0" encoding="UTF-8" standalone="no"?>
<svg
   xmlns:dc="http://purl.org/dc/elements/1.1/"
   xmlns:cc="http://creativecommons.org/ns#"
   xmlns:rdf="http://www.w3.org/1999/02/22-rdf-syntax-ns#"
   xmlns:svg="http://www.w3.org/2000/svg"
   xmlns="http://www.w3.org/2000/svg"
   xmlns:sodipodi="http://sodipodi.sourceforge.net/DTD/sodipodi-0.dtd"
   xmlns:inkscape="http://www.inkscape.org/namespaces/inkscape"
   sodipodi:docname="al_jazeera.svg"
   inkscape:version="1.0.1 (3bc2e813f5, 2020-09-07)"
   version="1.1"
   id="svg2"
   viewBox="0 0 192 192"
   height="192"
   width="192"
   inkscape:export-filename="/home/jphilippe/inkscape/icônes/delta-github/png/al_jazeera.png"
   inkscape:export-xdpi="96"
   inkscape:export-ydpi="96">
  <sodipodi:namedview
     inkscape:document-rotation="0"
     inkscape:window-maximized="1"
     inkscape:window-y="0"
     inkscape:window-x="36"
     inkscape:window-height="1052"
     inkscape:window-width="1884"
     units="px"
     showgrid="false"
     inkscape:current-layer="layer1"
     inkscape:document-units="px"
     inkscape:cy="599.44552"
     inkscape:cx="154.9346"
     inkscape:zoom="0.3535534"
     inkscape:pageshadow="2"
     inkscape:pageopacity="0.0"
     borderopacity="1.0"
     bordercolor="#666666"
     pagecolor="#ffffff"
     id="base"
     inkscape:snap-bbox="false"
     inkscape:object-paths="true"
     inkscape:snap-nodes="true"
     showguides="true"
     inkscape:guide-bbox="true"
     inkscape:snap-object-midpoints="true"
     inkscape:snap-center="true"
     inkscape:snap-global="false"
     inkscape:snap-intersection-paths="true"
     inkscape:snap-smooth-nodes="true"
     inkscape:snap-midpoints="true" />
  <defs
     id="defs4" />
  <metadata
     id="metadata7">
    <rdf:RDF>
      <cc:Work
         rdf:about="">
        <dc:format>image/svg+xml</dc:format>
        <dc:type
           rdf:resource="http://purl.org/dc/dcmitype/StillImage" />
        <dc:title></dc:title>
      </cc:Work>
    </rdf:RDF>
  </metadata>
  <g
     transform="translate(0,-860.36216)"
     id="layer1"
     inkscape:groupmode="layer"
     inkscape:label="Calque 1">
    <rect
       style="fill:#f7c08b;fill-opacity:1;fill-rule:evenodd;stroke:none;stroke-opacity:1"
       width="153"
       height="153"
       x="19.5"
       y="879.86218"
       rx="10"
       id="rect981" />
    <g
       transform="matrix(0.11013952,0,0,0.11013952,-6.8100582,916.02654)"
       style="fill:#fefefe;fill-opacity:1"
       id="g15972">
      <path
         d="m 909.04684,695.33088 c -19.93275,-6.5645 -38.84924,-25.15211 -52.24093,-51.33268 -3.09816,-6.05686 -5.63302,-11.45587 -5.63302,-11.99779 0,-1.53824 9.33335,-6.6753 9.76661,-5.37552 0.20451,0.61352 2.84458,5.07205 5.86682,9.90783 22.67735,36.28526 53.7204,40.2738 68.43128,8.79234 4.12579,-8.82922 6.0958,-16.97451 8.46507,-35 3.39324,-25.81589 8.63048,-57.43994 10.97717,-66.28349 6.57617,-24.78242 20.66276,-44.34362 55.93576,-77.67462 30.6945,-29.00464 45.4866,-51.57421 47.2169,-72.04293 0.3486,-4.12443 0.3045,-7.49896 -0.098,-7.49896 -0.4025,0 -3.731,2.64032 -7.3967,5.86737 -3.6657,3.22706 -12.2282,10.03068 -19.0277,15.11917 -17.4201,13.0365 -24.9577,19.75815 -30.113,26.85343 -2.4617,3.38802 -4.80043,6.16003 -5.19718,6.16003 -0.39675,0 -2.63112,-5.7375 -4.96527,-12.75 -3.34155,-10.03907 -4.25012,-14.23836 -4.27313,-19.75 -0.0345,-8.26971 1.43737,-11.5583 9.84676,-22 10.91992,-13.559 16.52372,-28.63998 16.53542,-44.5 0.012,-16.87934 -7.4052,-31.58537 -29.05944,-57.61329 -9.64843,-11.59721 -37.59836,-41.38671 -38.83099,-41.38671 -0.40511,0 -0.62249,6.6375 -0.48307,14.75 0.57922,33.70297 -5.89286,59.43009 -24.2576,96.42621 -11.72611,23.62248 -14.19535,29.3169 -18.8779,43.53529 -4.93698,14.99097 -6.49169,23.24614 -7.15033,37.96679 l -0.58964,13.17828 -4.33995,4.25935 c -2.38698,2.34264 -4.598,4.0013 -4.91339,3.68592 -1.39131,-1.39132 -2.62385,-21.51026 -2.10141,-34.30184 0.96188,-23.55114 6.52209,-44.63184 20.17752,-76.5 25.84332,-60.3115 32.54769,-82.70962 31.16153,-104.10516 -0.57425,-8.86373 -1.37336,-11.62979 -10.22552,-35.39484 -7.54775,-20.26316 -5.41549,-40.04423 6.30348,-58.47775 2.97181,-4.67455 3.32943,-5.84759 2.43894,-8 -0.57393,-1.38724 -2.86494,-6.64802 -5.09114,-11.69062 -6.83271,-15.47689 -8.5279,-23.54323 -8.58101,-40.831626 -0.0493,-16.037005 1.14845,-22.787195 5.8766,-33.120011 4.10221,-8.964897 15.50038,-19.379989 21.20927,-19.379989 4.04195,0 3.43104,1.708518 -2.10559,5.888718 -11.77322,8.888862 -15.98454,24.318084 -11.95809,43.811389 4.17943,20.233909 12.49763,34.551289 40.05785,68.948049 65.10628,81.2564 97.85208,128.90901 123.52948,179.76332 16.3301,32.34201 22.9152,49.25176 29.6934,76.24953 6.9767,27.78781 9.208,50.84227 7.1948,74.33899 -4.3796,51.11819 -24.8666,86.77583 -60.0486,104.51503 -24.179,12.19135 -55.9016,14.2454 -84.3417,5.46115 -10.30214,-3.182 -9.98147,-2.47165 -7.5781,-16.78736 2.38506,-14.20662 4.10061,-19.75164 6.04439,-19.5368 0.75647,0.0836 5.6504,0.92344 10.8754,1.86627 23.11581,4.17115 48.06571,-0.98263 67.00001,-13.83989 6.1154,-4.15264 17.2718,-14.9402 22.6572,-21.9081 9.2464,-11.96341 16.616,-27.78811 20.9444,-44.9737 3.1893,-12.66294 4.4008,-38.51433 2.435,-51.95845 -1.5083,-10.31557 -6.7707,-27.86285 -12.6972,-42.33815 -20.769,-50.72812 -56.9658,-105.07109 -135.2142,-203 -3.51574,-4.4 -9.99162,-12.8375 -14.39083,-18.75 -4.39921,-5.9125 -8.32932,-10.75 -8.73358,-10.75 -1.34614,0 -5.8703,7.72521 -7.57324,12.93167 -1.20803,3.69333 -1.55454,7.31377 -1.23249,12.87714 0.86615,14.96214 7.16722,24.29793 38.74536,57.40586 19.2669,20.20027 30.16194,33.34419 39.77328,47.98297 17.8634,27.20735 24.3118,54.42513 18.2383,76.98071 -0.5959,2.21294 -0.8886,4.21838 -0.6505,4.45653 1.3499,1.34986 20.6044,-16.11744 26.4018,-23.9511 1.969,-2.66058 3.9463,-4.43412 4.4179,-3.96252 1.2119,1.21184 7.4928,26.60576 9.8261,39.72689 3.2452,18.24925 4.365,31.30146 3.7462,43.66687 -0.6648,13.28401 -2.502,19.80353 -9.2669,32.88498 -6.8975,13.33813 -16.0452,24.53209 -42.553,52.07193 -26.21418,27.23479 -35.45991,38.53369 -38.76918,47.3785 -3.30123,8.82332 -7.24808,30.76899 -9.54077,53.04957 -3.36728,32.72338 -6.57871,55.40922 -9.00223,63.59251 -3.61634,12.21099 -9.99655,20.51948 -19.25872,25.07923 -5.88197,2.89568 -7.74489,3.30429 -16.22385,3.55845 -8.04467,0.24115 -10.80028,-0.11512 -17.20491,-2.22437 z"
         style="opacity:1;fill:#fefefe;fill-opacity:1"
         id="path3297" />
      <path
         d="m 1009.4438,653.73012 c -7.5716,-3.7479 -13.04201,-11.95463 -18.80202,-28.20696 -2.01963,-5.69855 -2.46699,-8.1 -1.65937,-8.90762 1.72698,-1.72698 3.65754,0.49533 6.05989,6.97564 3.01312,8.1279 6.254,13.44579 9.2028,15.10095 2.188,1.22807 2.9522,1.23125 5.485,0.0228 2.3659,-1.12883 3.0036,-2.13781 3.2532,-5.14697 0.5853,-7.05902 4.4664,-3.38146 7.5864,7.1886 2.1943,7.43398 2.0483,8.77724 -1.3199,12.14542 -3.4826,3.48264 -4.3033,3.55194 -9.806,0.82814 z"
         style="opacity:1;fill:#fefefe;fill-opacity:1"
         id="path3295" />
      <path
         d="m 867.61039,202.01256 c 0,10.88576 9.01609,20.125 20.125,20.125 4.98769,0 9.54521,-1.8354 13.0625,-4.84375 l 2.625,-1.875 -0.40625,6.96875 c -0.51736,9.15603 -3.95612,16.14932 -12.46875,25.34375 -9.19862,9.93536 -18.15892,16.3749 -47.375,34.03125 -39.91547,24.1224 -53.47105,33.61388 -67.84375,47.5 -18.47063,17.84531 -31.3559,39.46947 -37,62.125 -7.70753,30.93822 -5.23722,60.6813 7.84375,94.9375 3.74029,9.79502 3.81048,10.34847 4.375,27 1.50009,44.24796 12.60198,74.69297 35.5625,97.53125 11.66273,11.60062 22.32879,17.12355 36.25,18.84375 3.47977,0.42999 8.5625,0.60717 11.3125,0.375 33.34307,-2.81483 47.91561,-30.40363 55.0625,-104.25 0.93151,-9.625 2.19457,-18.9309 2.8125,-20.6875 0.75853,-2.15627 7.34329,-8.8622 20.25,-20.65625 20.31047,-18.55953 24.37189,-23.83721 24.375,-31.59375 0.002,-4.79005 -4.08466,-33.388 -4.90625,-34.3125 -0.35929,-0.40429 -2.6693,2.03096 -5.125,5.40625 -4.1027,5.63901 -17.19381,18.36104 -34.3125,33.34375 -11.2231,9.82273 -13.3192,14.9847 -17.125,42.0625 -6.63319,47.19458 -15.05502,72.07288 -29.1875,86.21875 -13.05479,13.06716 -34.29721,16.37017 -51,7.90625 -16.97383,-8.60129 -29.54094,-34.39006 -31.0625,-63.6875 l -0.59375,-11.5 7.71875,7.21875 c 10.27503,9.59574 18.63021,13.77867 27.5625,13.78125 8.41941,0.002 11.19093,-0.81793 15.5625,-4.65625 6.43119,-5.64666 9.46875,-14.69134 9.46875,-28.25 0,-27.08428 -14.5351,-59.55672 -30.40625,-67.875 -6.40291,-3.35586 -14.93436,-3.03307 -21.0625,0.78125 -5.91589,3.68221 -11.75484,11.76176 -14.78125,20.5 -1.24045,3.58161 -2.7,6.73162 -3.25,7 -1.84693,0.9013 -3.59244,-11.38262 -3.625,-25.5 -0.0239,-10.37541 0.51613,-16.63685 2.0625,-24.1875 5.77977,-28.22163 16.94003,-48.34461 39,-70.34375 14.92345,-14.88229 30.3267,-26.60949 64.84375,-49.34375 26.68619,-17.57656 38.08625,-27.06646 44.40625,-36.9375 2.78805,-4.35457 3.3574,-4.81072 3.625,-2.9375 0.95354,6.6749 -7.10646,27.3477 -25.625,65.75 -15.17471,31.46814 -19.92782,42.45845 -27.5625,63.5625 -9.63054,26.62107 -15.60005,50.37681 -19.09375,75.9375 -2.23663,16.36373 -3.02813,50.10363 -1.65625,71.59375 1.22149,19.13441 5.45195,49.10817 7.15625,50.8125 0.68483,0.68483 2.08608,-0.0953 4.375,-2.4375 l 3.40625,-3.46875 -1.8125,-11 c -6.69852,-40.55628 -4.15575,-83.85649 7.53125,-128.28125 8.26496,-31.41689 18.17796,-56.45871 41.71875,-105.21875 20.7375,-42.95358 24.45645,-57.47582 23.46875,-92 -0.81924,-28.63615 -4.61881,-45.35604 -12.25,-53.84375 -4.16964,-4.63764 -8.58462,-7.0625 -14.40625,-7.0625 -14.14933,0 -21.625,9.18771 -21.625,20.09375 z m -74.875,269.9375 c 1.93476,0.0531 3.7844,0.53417 5.53125,1.4375 3.61347,1.86859 8.91932,9.8168 8.90625,13.375 -0.005,1.40482 -1.34764,4.86101 -2.96875,7.6875 -2.30151,4.01277 -4.09632,5.71127 -8.1875,7.75 -6.95373,3.46519 -15.2619,3.58293 -22.34375,0.28125 -7.6611,-3.57176 -7.92426,-4.23173 -4.53125,-11.40625 5.64207,-11.93016 15.20977,-19.35526 23.59375,-19.125 z"
         style="opacity:1;fill:#fefefe;fill-opacity:1"
         id="path3291" />
      <path
         d="M 936.07988,561.20469 C 923.38672,549.02063 910.73293,531.1986 901.55775,512.58256 l -3.816,-7.74249 4.42378,-4.50751 c 2.43307,-2.47912 4.93028,-4.5075 5.54935,-4.5075 0.61907,0 2.88601,2.5875 5.03765,5.75 4.81578,7.07828 21.47791,24.4339 30.70453,31.98249 6.08182,4.97573 6.77241,5.892 6.16908,8.18522 -0.37367,1.42026 -1.73185,7.69813 -3.01818,13.95082 -1.28634,6.25269 -2.56879,11.59853 -2.8499,11.87963 -0.2811,0.2811 -3.73628,-2.58474 -7.67818,-6.36853 z"
         style="opacity:1;fill:#fefefe;fill-opacity:1"
         id="path3285" />
      <path
         d="m 800.77985,404.9367 c -3.62438,-3.78303 -4.61034,-8.59336 -3.52806,-17.2127 0.62086,-4.94452 1.97252,-9.10734 4.54947,-14.01128 6.59764,-12.55533 27.37163,-30.81038 27.37163,-24.0527 0,0.39431 -4.22222,5.05742 -9.38271,10.36247 -13.94288,14.33343 -18.51351,24.8509 -13.54471,31.16771 3.47263,4.41473 9.92742,3.14401 9.92742,-1.95436 0,-2.82725 3.31839,-6.95007 4.83805,-6.01087 1.55249,0.95949 1.46498,4.27534 -0.26449,10.02192 -3.84325,12.77016 -13.50958,18.42949 -19.9666,11.68981 z"
         style="opacity:1;fill:#fefefe;fill-opacity:1"
         id="path3279" />
      <path
         d="m 939.22547,391.07506 c -2.54035,-9.14737 -1.76521,-10.40111 22.8297,-36.92557 10.11026,-10.90344 19.66506,-21.56881 21.23288,-23.70083 3.05612,-4.15589 3.1946,-4.06709 4.7311,3.03396 0.69057,3.19151 0.5225,4.98683 -0.72333,7.72645 -0.89261,1.96289 -9.94793,12.64245 -20.12293,23.73236 -10.175,11.08992 -20.075,22.32566 -22,24.96833 -1.925,2.64266 -3.81635,4.82969 -4.203,4.86007 -0.38664,0.0304 -1.17163,-1.63227 -1.74442,-3.69477 z"
         style="opacity:1;fill:#fefefe;fill-opacity:1"
         id="path3277" />
      <path
         d="m 245.74317,226.21548 a 20.36068,20.36068 0 1 1 -40.72136,0 20.36068,20.36068 0 1 1 40.72136,0 z"
         transform="matrix(0.988417,0,0,0.988417,638.86211,12.681159)"
         style="opacity:1;fill:#fefefe;fill-opacity:1;stroke:none;stroke-width:1;stroke-miterlimit:4;stroke-dasharray:none;stroke-opacity:1"
         id="path3326" />
      <rect
         width="28.673"
         height="33.146"
         x="1057.2612"
         y="-20.729368"
         transform="rotate(25.80567)"
         style="opacity:1;fill:#fefefe;fill-opacity:1;stroke:none;stroke-width:1;stroke-miterlimit:4;stroke-dasharray:none;stroke-opacity:1"
         id="rect3340" />
      <rect
         width="28.673"
         height="33.146"
         x="1157.0187"
         y="-8.835309"
         transform="rotate(25.80567)"
         style="opacity:1;fill:#fefefe;fill-opacity:1;stroke:none;stroke-width:1;stroke-miterlimit:4;stroke-dasharray:none;stroke-opacity:1"
         id="rect3344" />
      <rect
         width="28.673"
         height="33.546001"
         x="1063.067"
         y="-141.44328"
         transform="rotate(39.277225)"
         style="opacity:1;fill:#fefefe;fill-opacity:1;stroke:none;stroke-width:1;stroke-miterlimit:4;stroke-dasharray:none;stroke-opacity:1"
         id="rect3346" />
      <rect
         width="28.673"
         height="33.546001"
         x="1087.7754"
         y="-103.2723"
         transform="rotate(39.277225)"
         style="opacity:1;fill:#fefefe;fill-opacity:1;stroke:none;stroke-width:1;stroke-miterlimit:4;stroke-dasharray:none;stroke-opacity:1"
         id="rect3348" />
    </g>
  </g>
  <style
     type="text/css"
     id="style853">
	.st0{fill:#FFFFFF;}
</style>
</svg>
