<svg width="192" height="192" version="1.1" viewBox="0 0 192 192" xmlns="http://www.w3.org/2000/svg">
 <circle cx="96" cy="96" r="88" opacity=".63" style="fill:#f58f8a;opacity:1"/>
 <path d="m81.491 54.983-3.6271 3.6271 3.6271 3.6271-25.39 58.034v10.881c0 2.0094 1.6177 3.6272 3.6271 3.6272 2.0094 0 3.6271-1.6177 3.6271-3.6272v-10.881h14.509l3.6271 3.6272 3.6271-3.6272-3.6271-3.6272 1.6117-3.6272h25.794l1.6117 3.6272v10.881c0 3.6272-1.5874 5.4488-0.98649 8.1575 0.39289 1.771 0.75521 4.3109 2.568 4.3763 2.3375 0.0843 2.9926-1.8864 3.4252-4.185 0.47069-2.5011-1.3797-4.7217-1.3797-8.3488v-7.2543h2.8992c0.0507 1.1666 0.99886 2.0934 2.1784 2.0934s2.1295-0.92678 2.1802-2.0934h7.2508l3.6272 3.6272 3.6272-3.6272-3.6272-3.6272-21.763-54.407 3.6271-3.6271-3.6271-3.6271-3.6272 3.6271h-21.763zm14.509 29.017 6.4485 14.509h-12.897zm23.127 40.441c-0.093-5e-3 -0.18933 6e-5 -0.29223 0.0159-0.82394 0.12711-1.3283 2.41-1.9039 4.3781-0.60288 2.0612-0.31777 5.8792 1.8083 6.1828 1.7505 0.25001 3.2023-2.7385 2.8532-4.472-0.74305-3.6892-1.0707-6.0352-2.4653-6.1049z" style="fill:#f9de81;stroke-width:.90679"/>
</svg>
