<?xml version="1.0" encoding="UTF-8" standalone="no"?>
<svg
   xmlns:dc="http://purl.org/dc/elements/1.1/"
   xmlns:cc="http://creativecommons.org/ns#"
   xmlns:rdf="http://www.w3.org/1999/02/22-rdf-syntax-ns#"
   xmlns:svg="http://www.w3.org/2000/svg"
   xmlns="http://www.w3.org/2000/svg"
   xmlns:sodipodi="http://sodipodi.sourceforge.net/DTD/sodipodi-0.dtd"
   xmlns:inkscape="http://www.inkscape.org/namespaces/inkscape"
   inkscape:export-ydpi="96"
   inkscape:export-xdpi="96"
   inkscape:export-filename="/home/jphilippe/inkscape/icônes/delta-github/idées/amazon_aws_console.png"
   inkscape:version="1.0 (4035a4fb49, 2020-05-01)"
   sodipodi:docname="amazon_aws_console.svg"
   xml:space="preserve"
   style="enable-background:new 0 0 192 192;"
   viewBox="0 0 192 192"
   y="0px"
   x="0px"
   id="Layer_1"
   version="1.1"><metadata
   id="metadata23"><rdf:RDF><cc:Work
       rdf:about=""><dc:format>image/svg+xml</dc:format><dc:type
         rdf:resource="http://purl.org/dc/dcmitype/StillImage" /></cc:Work></rdf:RDF></metadata><defs
   id="defs21">
	
	
	
	
	
</defs><sodipodi:namedview
   inkscape:current-layer="Layer_1"
   inkscape:window-maximized="1"
   inkscape:window-y="0"
   inkscape:window-x="36"
   inkscape:cy="56.868098"
   inkscape:cx="25.292147"
   inkscape:zoom="2.2916667"
   showgrid="false"
   id="namedview19"
   inkscape:window-height="1052"
   inkscape:window-width="1884"
   inkscape:pageshadow="2"
   inkscape:pageopacity="0"
   guidetolerance="10"
   gridtolerance="10"
   objecttolerance="10"
   borderopacity="1"
   bordercolor="#666666"
   pagecolor="#ffffff" />
<style
   id="style2"
   type="text/css">
	.st0{fill:#FEFEFE;}
	.st1{fill:#F8C12C;}
	.st2{fill:#54688C;}
</style>

<rect
   id="rect848"
   rx="10"
   y="19.5"
   x="19.5"
   height="153"
   width="153"
   style="fill:#ffffff;fill-opacity:1;fill-rule:evenodd;stroke:none;stroke-opacity:1" /><path
   style="fill:#f8dd81;fill-opacity:1;stroke-width:0.687939"
   class="st1"
   d="M 97.690298,117.82707 C 82.074087,117.75828 70.24154,113.08029 60.12884,104.0683 c -0.34397,-0.34397 -0.894321,-0.68794 -0.481557,-1.23829 0.412763,-0.61915 0.963114,-0.13759 1.375877,0.0688 7.636121,4.4716 15.891386,7.29215 24.628209,8.73682 4.746778,0.75674 9.493555,1.03191 14.240333,0.75674 8.255268,-0.41277 16.166558,-2.2702 23.802678,-5.43472 0.34397,-0.13759 0.61915,-0.34397 1.03191,-0.34397 0.48156,0 0.89432,0.13759 1.1007,0.61914 0.20639,0.48156 0,0.89432 -0.27517,1.1695 -0.13759,0.13759 -0.34397,0.27518 -0.48156,0.41276 -4.81557,3.50849 -10.25029,5.84748 -16.02897,7.29215 -4.40281,1.1695 -8.80562,1.85744 -11.350992,1.71985 z"
   id="path6" /><path
   style="fill:#566a8d;fill-opacity:1;stroke-width:0.687939"
   class="st2"
   d="m 96.864771,79.646469 c -0.963114,4.058839 -1.926228,8.117678 -2.889343,12.176516 -0.275175,1.100703 -0.481557,2.201405 -0.825526,3.302107 -0.206382,0.89432 -0.550351,1.100702 -1.444672,1.100702 -0.619145,0 -1.307083,0 -1.926228,0 -0.963115,0 -1.23829,-0.206382 -1.513466,-1.169496 -1.169496,-3.783664 -2.338992,-7.567327 -3.508487,-11.419784 -0.756733,-2.47658 -1.513466,-4.884366 -2.270199,-7.360945 -0.412763,-1.375878 -0.275175,-1.513465 1.100703,-1.513465 0.412763,0 0.89432,0 1.307083,0 1.23829,0 1.513466,0.206381 1.788641,1.375877 0.550351,2.13261 1.100702,4.265221 1.582259,6.329037 0.756733,2.889343 1.444672,5.709892 2.201404,8.599235 0.06879,0.137588 0.137588,0.343969 0.137588,0.550351 0.275176,-0.137588 0.206382,-0.412763 0.275176,-0.619145 1.169496,-4.953159 2.338992,-9.906319 3.508488,-14.859478 0.275175,-1.169496 0.550351,-1.307084 1.719847,-1.307084 0.481557,0 1.031908,0 1.513465,0 1.169496,0 1.444671,0.206382 1.719847,1.375878 0.756729,3.302106 1.582259,6.604212 2.338989,9.906319 0.48156,1.926228 0.89432,3.852457 1.37588,5.847479 0.27518,-0.06879 0.20638,-0.343969 0.27518,-0.550351 1.30708,-5.021953 2.61416,-9.975112 3.92125,-14.997065 0.34397,-1.444672 0.55035,-1.58226 1.99502,-1.58226 0.55035,0 1.1007,0 1.71985,0 0.55035,0 0.75673,0.275176 0.68794,0.825527 -0.0688,0.206382 -0.0688,0.481557 -0.13759,0.687939 -1.92623,6.191449 -3.92125,12.451692 -5.84748,18.643141 -0.34397,1.100702 -0.55035,1.307084 -1.78864,1.307084 -0.55035,0 -1.10071,0 -1.71985,0 -0.96311,0 -1.30708,-0.275176 -1.51347,-1.23829 C 99.68532,91.272634 98.791,87.420177 97.896679,83.636514 97.55271,82.32943 97.277534,81.022346 96.933565,79.646469 c 0,0 -0.06879,0 -0.06879,0 z"
   id="path8" /><path
   style="fill:#566a8d;fill-opacity:1;stroke-width:0.687939"
   class="st2"
   d="m 76.295401,93.474039 c -1.375877,1.582259 -3.02693,2.682961 -5.021953,3.095724 -1.444671,0.275176 -2.889343,0.34397 -4.334014,-0.06879 -2.614168,-0.687939 -4.265221,-2.820549 -4.402808,-5.572304 -0.206382,-3.852457 2.270198,-6.673006 6.122655,-7.223357 2.270198,-0.34397 4.471602,-0.06879 6.673006,0.412763 0.481557,0.137588 0.687939,0.06879 0.687939,-0.550351 -0.06879,-0.756733 0,-1.513465 -0.06879,-2.201404 -0.275176,-2.545374 -1.444671,-3.646076 -3.990045,-3.852457 -2.201404,-0.137588 -4.334014,0.343969 -6.329037,1.169496 -1.444671,0.619145 -1.582259,0.481557 -1.651053,-1.031909 -0.06879,-1.169496 0.412763,-1.719847 1.444672,-2.201404 3.02693,-1.23829 6.122655,-1.651053 9.355967,-0.963114 3.095725,0.687939 4.884365,2.820549 5.159541,5.985067 0.206382,2.820549 0.137588,5.641099 0.06879,8.461648 0,1.719847 0.137588,3.3709 1.100702,4.884365 0.275175,0.481557 0.137588,0.89432 -0.275176,1.169496 -0.550351,0.412763 -1.100702,0.756733 -1.651053,1.100702 -0.481557,0.275176 -0.89432,0.206382 -1.307083,-0.206382 -0.412764,-0.412763 -0.756733,-0.963114 -1.100702,-1.513465 -0.137588,-0.275175 -0.275176,-0.550351 -0.481558,-0.89432 z m -4.402808,-7.08577 c -0.481557,0 -0.963114,0 -1.444671,0.06879 -2.751755,0.206382 -4.196427,2.201404 -3.508488,4.815571 0.275175,1.169496 1.031908,1.926229 2.201404,2.132611 1.857435,0.343969 3.577282,0 5.159541,-1.169496 0.963114,-0.687939 1.582259,-1.719847 1.719847,-2.889343 0.06879,-0.687939 0.06879,-1.307084 0.137588,-1.995023 0.06879,-0.412763 -0.137588,-0.550351 -0.481558,-0.550351 -1.307083,-0.137587 -2.545373,-0.343969 -3.783663,-0.412763 z"
   id="path10" /><path
   style="fill:#566a8d;fill-opacity:1;stroke-width:0.687939"
   class="st2"
   d="m 120.1859,96.844939 c -1.44468,0 -3.3709,-0.34397 -5.22834,-1.100702 -1.51346,-0.619145 -1.99502,-1.719847 -1.51346,-3.233313 0.13758,-0.412763 0.48155,-0.481557 0.82552,-0.343969 0.34397,0.137588 0.68794,0.275175 1.03191,0.412763 2.40779,0.894321 4.88437,1.307084 7.42974,0.756733 1.58226,-0.34397 2.47658,-1.307084 2.61417,-2.614168 0.0688,-1.100702 -0.41277,-1.857434 -1.37588,-2.407785 -1.03191,-0.550351 -2.13261,-0.894321 -3.23331,-1.23829 -1.23829,-0.412763 -2.54538,-0.687939 -3.71487,-1.307084 -2.68296,-1.375877 -3.99005,-4.26522 -3.09573,-6.948182 0.75674,-2.338992 2.54538,-3.577281 4.81557,-4.196426 2.75176,-0.756733 5.43472,-0.34397 8.11768,0.619145 0.89432,0.343969 1.37588,0.963114 1.30709,1.995022 -0.0688,1.651053 -0.13759,1.719847 -1.71985,1.100702 -2.13261,-0.89432 -4.40281,-1.100702 -6.67301,-0.619145 -1.71984,0.412764 -2.54537,1.788641 -2.06381,3.302106 0.20638,0.756733 0.75673,1.169496 1.37587,1.513466 0.96312,0.550351 2.06382,0.825526 3.16452,1.169496 1.1695,0.412763 2.40779,0.756732 3.50849,1.23829 4.60919,1.995022 4.4716,7.63612 1.1695,10.181494 -1.58226,1.100702 -3.64608,1.719847 -6.7418,1.719847 z"
   id="path12" /><path
   style="fill:#f8dd81;fill-opacity:1;stroke-width:0.687939"
   class="st1"
   d="m 124.93267,104.27468 c -1.65105,0.0688 -3.3021,0.20638 -4.95316,0.41276 -0.41276,0.0688 -0.96311,0.27518 -1.16949,-0.20638 -0.20638,-0.55035 0.34397,-0.75673 0.68794,-0.96312 2.13261,-1.37587 4.4716,-1.85743 6.94818,-1.99502 1.65105,-0.0688 3.23331,0 4.81557,0.48156 1.03191,0.27518 1.23829,0.61914 1.23829,1.65105 -0.13759,4.05884 -1.51346,7.63612 -4.33401,10.52547 -0.20639,0.20638 -0.48156,0.41276 -0.68794,0.55035 -0.20638,0.13758 -0.48156,0.27517 -0.68794,0 -0.20638,-0.20638 -0.13759,-0.41277 -0.0688,-0.68794 0.27518,-0.75673 0.61915,-1.58226 0.89433,-2.33899 0.61914,-1.65106 1.23828,-3.3709 1.44467,-5.15954 0.13758,-1.44468 -0.20639,-1.85744 -1.65106,-2.13261 -0.20638,0 -0.34397,-0.0688 -0.55035,-0.0688 -0.61914,0 -1.23829,-0.0688 -1.92623,-0.0688 z"
   id="path14" />
</svg>
