<svg xmlns="http://www.w3.org/2000/svg" xml:space="preserve" viewBox="0 0 192 192"><rect width="152" height="152" x="20" y="20" fill="#fff" class="a" rx="10"/><path fill="#56595b" fill-rule="evenodd" d="M122.77 88.417c-29.773 14.094-48.253 2.302-60.081-4.86-.732-.452-1.976.105-.896 1.338 3.94 4.753 16.855 16.208 33.712 16.208 16.868 0 26.903-9.155 28.159-10.752 1.246-1.583.365-2.457-.895-1.934zm8.362-4.593c-.8-1.036-4.862-1.229-7.418-.917-2.561.303-6.404 1.86-6.07 2.794.172.35.522.194 2.28.036 1.764-.175 6.706-.795 7.735.544 1.034 1.348-1.576 7.77-2.052 8.804-.461 1.036.176 1.303 1.04.614.854-.69 2.398-2.476 3.435-5.002 1.03-2.54 1.657-6.085 1.05-6.873z" clip-rule="evenodd"/><text xml:space="preserve" x="46.953" y="77.773" fill="#56595b" stroke-linecap="round" stroke-linejoin="round" stroke-width=".667" font-family="Now" font-size="24.911" font-weight="bold"><tspan x="46.953" y="77.773">amazon</tspan></text><text xml:space="preserve" x="45.159" y="126.689" fill="#9abeff" stroke-linecap="round" stroke-linejoin="round" stroke-width=".652" font-family="Now" font-size="24.333" font-weight="bold"><tspan x="45.159" y="126.689">business</tspan></text></svg>