<svg width="192" height="192" version="1.1" viewBox="0 0 192 192" xmlns="http://www.w3.org/2000/svg">
 <rect x="20" y="20" width="152" height="152" rx="10" style="fill:#9abeff"/>
 <rect x="60" y="60" width="72" height="72" ry="8" style="fill:#728dbe;paint-order:stroke fill markers;stroke-width:4"/>
 <path d="m127.17 97.452c-34.027 16.108-55.146 2.6308-68.664-5.5549-0.8361-0.51596-2.2581 0.1208-1.0245 1.5299 4.5034 5.4317 19.263 18.523 38.528 18.523 19.278 0 30.747-10.463 32.182-12.288 1.425-1.8097 0.418-2.8082-1.022-2.2101zm9.557-5.2494c-0.914-1.1834-5.557-1.4042-8.478-1.0474-2.927 0.3464-7.319 2.1255-6.937 3.1933 0.196 0.40052 0.596 0.2208 2.606 0.0412 2.016-0.2 7.663-0.90868 8.839 0.6212 1.182 1.5402-1.801 8.879-2.345 10.062-0.527 1.184 0.201 1.489 1.189 0.70104 0.976-0.788 2.741-2.829 3.926-5.716 1.176-2.9036 1.894-6.9542 1.2-7.8552z" style="clip-rule:evenodd;fill-rule:evenodd;fill:#fff"/>
 <path d="m78 68s-2 12 18 12 18-12 18-12" style="fill:none;stroke-linecap:round;stroke-linejoin:round;stroke-width:4px;stroke:#9abeff"/>
</svg>
