<?xml version="1.0" encoding="UTF-8"?>
<svg version="1.1" viewBox="0 0 192 192" xml:space="preserve" xmlns="http://www.w3.org/2000/svg">
	 <rect class="a" x="20" y="20" width="152" height="152" rx="10" fill="#728dbe"/><path d="m45.768 88.181 13.518 7.8192c12.303-6.8532 31.34-8.6232 50.493-10.47-3.3335-0.46036-6.5609-1.0051-9.4095-2.1205-20.796-0.59982-39.452 0.6063-54.602 4.771z" fill="#fff" stroke-linecap="round" stroke-linejoin="round" stroke-width="3.57"/><path d="m65.449 98.717 14.512 7.024c13.068-12.382 32.733-15.389 50.427-20.476-5.4999 0.33054-11 1.2591-16.5 0.46385-22.925 2.4806-37.105 7.346-48.439 12.988z" fill="#fff" stroke-linecap="round" stroke-linejoin="round" stroke-width="3.57"/><path d="m86.94 108.47 18.367 6.5598c8.5635-17.061 24.805-24.772 40.925-32.815-22.387 6.4467-46.908 10.758-59.292 26.255z" fill="#fff" stroke-linecap="round" stroke-linejoin="round" stroke-width="3.57"/></svg>
