<?xml version="1.0" encoding="UTF-8"?>
<svg version="1.1" viewBox="0 0 192 192" xml:space="preserve" xmlns="http://www.w3.org/2000/svg">
	 <path d="m90.584 176.4a12.787 12.787 0 0 0 10.834 0l12.274-5.74a12.794 12.794 0 0 1 4.317-1.1562l13.498-1.1665a12.787 12.787 0 0 0 9.3831-5.4185l7.7583-11.107a12.787 12.787 0 0 1 3.1608-3.1608l11.107-7.7582a12.787 12.787 0 0 0 5.4185-9.3831l1.1631-13.498a12.783 12.783 0 0 1 1.1596-4.317l5.74-12.274a12.787 12.787 0 0 0 0-10.834l-5.74-12.274a12.787 12.787 0 0 1-1.1562-4.317l-1.1665-13.502a12.787 12.787 0 0 0-5.4185-9.3797l-11.104-7.7617a12.787 12.787 0 0 1-3.1608-3.1574l-7.7583-11.111a12.787 12.787 0 0 0-9.3831-5.415l-13.498-1.1665a12.787 12.787 0 0 1-4.317-1.1562l-12.274-5.74a12.787 12.787 0 0 0-10.834 0l-12.277 5.74a12.787 12.787 0 0 1-4.317 1.1562l-13.502 1.1665a12.787 12.787 0 0 0-9.3797 5.415l-7.7617 11.111a12.79 12.79 0 0 1-3.1574 3.1574l-11.111 7.7617a12.787 12.787 0 0 0-5.415 9.3797l-1.1665 13.502a12.787 12.787 0 0 1-1.1562 4.317l-5.74 12.27a12.787 12.787 0 0 0 0 10.834l5.74 12.274a12.783 12.783 0 0 1 1.1562 4.317l1.1665 13.498a12.787 12.787 0 0 0 5.415 9.3831l11.111 7.7617a12.79 12.79 0 0 1 3.1574 3.1574l7.7617 11.111a12.787 12.787 0 0 0 9.3797 5.4185l13.502 1.163a12.794 12.794 0 0 1 4.317 1.1596z" fill="#98dc9a" stroke-width=".34208"/><path d="m90.922 171.37a11.988 11.988 0 0 0 10.157 0l11.507-5.3812a11.994 11.994 0 0 1 4.0471-1.0839l12.654-1.0936a11.988 11.988 0 0 0 8.7965-5.0798l7.2733-10.413a11.988 11.988 0 0 1 2.9632-2.9632l10.413-7.2732a11.988 11.988 0 0 0 5.0798-8.7965l1.0904-12.654a11.984 11.984 0 0 1 1.0871-4.0471l5.3812-11.507a11.988 11.988 0 0 0 0-10.157l-5.3812-11.507a11.988 11.988 0 0 1-1.0839-4.0471l-1.0936-12.658a11.988 11.988 0 0 0-5.0798-8.7934l-10.41-7.2765a11.988 11.988 0 0 1-2.9632-2.96l-7.2733-10.416a11.988 11.988 0 0 0-8.7966-5.0765l-12.654-1.0936a11.988 11.988 0 0 1-4.0471-1.0839l-11.507-5.3812a11.988 11.988 0 0 0-10.157 0l-11.51 5.3812a11.988 11.988 0 0 1-4.0471 1.0839l-12.658 1.0936a11.988 11.988 0 0 0-8.7934 5.0765l-7.2765 10.416a11.99 11.99 0 0 1-2.96 2.96l-10.416 7.2765a11.988 11.988 0 0 0-5.0765 8.7934l-1.0936 12.658a11.988 11.988 0 0 1-1.0839 4.0471l-5.3812 11.503a11.988 11.988 0 0 0 0 10.157l5.3812 11.507a11.984 11.984 0 0 1 1.0839 4.0471l1.0936 12.654a11.988 11.988 0 0 0 5.0765 8.7966l10.416 7.2765a11.99 11.99 0 0 1 2.96 2.96l7.2765 10.416a11.988 11.988 0 0 0 8.7934 5.0798l12.658 1.0903a11.994 11.994 0 0 1 4.0471 1.0871z" fill="#ececec" stroke-width=".3207"/><path d="m91.076 167.12a11.289 11.289 0 0 0 9.5644 0l10.836-5.0673a11.295 11.295 0 0 1 3.8111-1.0207l11.916-1.0298a11.289 11.289 0 0 0 8.2835-4.7835l6.8491-9.8054a11.289 11.289 0 0 1 2.7904-2.7904l9.8054-6.849a11.289 11.289 0 0 0 4.7835-8.2835l1.0268-11.916a11.285 11.285 0 0 1 1.0237-3.8111l5.0673-10.836a11.289 11.289 0 0 0 0-9.5644l-5.0673-10.836a11.289 11.289 0 0 1-1.0207-3.8111l-1.0298-11.92a11.289 11.289 0 0 0-4.7835-8.2805l-9.8027-6.8521a11.289 11.289 0 0 1-2.7904-2.7874l-6.8491-9.8089a11.289 11.289 0 0 0-8.2835-4.7804l-11.916-1.0298a11.289 11.289 0 0 1-3.8111-1.0207l-10.836-5.0673a11.289 11.289 0 0 0-9.5644 0l-10.838 5.0673a11.289 11.289 0 0 1-3.8111 1.0207l-11.92 1.0298a11.289 11.289 0 0 0-8.2805 4.7804l-6.8521 9.8089a11.291 11.291 0 0 1-2.7874 2.7874l-9.8089 6.8521a11.289 11.289 0 0 0-4.7804 8.2805l-1.0298 11.92a11.289 11.289 0 0 1-1.0207 3.8111l-5.0673 10.832a11.289 11.289 0 0 0 0 9.5644l5.0673 10.836a11.285 11.285 0 0 1 1.0207 3.8111l1.0298 11.916a11.289 11.289 0 0 0 4.7804 8.2835l9.8089 6.8521a11.291 11.291 0 0 1 2.7874 2.7874l6.8521 9.8089a11.289 11.289 0 0 0 8.2805 4.7835l11.92 1.0267a11.295 11.295 0 0 1 3.8111 1.0237z" fill="#98dc9a" stroke-width=".30199"/><path d="m74.517 88.832v33.191a5.7597 4.411 0 0 0 5.7597 4.411h31.442a5.7597 4.411 0 0 0 5.7597-4.411v-33.191z" fill="#fff" stroke-width="1.0081"/><path d="m117.48 86.811a21.473 16.64 0 0 0-10.736-14.411 21.473 16.64 0 0 0-21.473 0 21.473 16.64 0 0 0-10.736 14.411" fill="#fff" stroke-width="1.1519"/><rect transform="rotate(60)" x="96.937" y="-37.664" width="12.275" height="2.4549" ry="1.2275" fill="#fff" stroke-width="1.1519"/><rect transform="matrix(-.5 .86603 .86603 .5 0 0)" x=".94808" y="128.6" width="12.275" height="2.4549" ry="1.2275" fill="#fff" stroke-width="1.152"/><circle cx="86.8" cy="79.013" r="2.4549" fill="#98dc9a" stroke-width=".76318"/><circle cx="105.19" cy="79.013" r="2.4549" fill="#98dc9a" stroke-width=".76318"/><text x="79.168251" y="120.30876" fill="#98dc9a" font-family="Now" font-size="34.26px" font-weight="500" stroke-linecap="round" stroke-linejoin="round" stroke-width="3.2118" xml:space="preserve"><tspan x="79.168251" y="120.30876" fill="#98dc9a" stroke-width="3.2118">13</tspan></text></svg>
