<?xml version="1.0" encoding="UTF-8"?>
<svg version="1.1" viewBox="0 0 192 192" xml:space="preserve" xmlns="http://www.w3.org/2000/svg">
	 <circle class="a" cx="96" cy="96" r="88" fill="#98dc9a"/><path d="m79.963 96.678v-10.357c-11.181 5.0255-20.108 1.7834-27.731-6.2367v-22.831c12.46-14.533 36.662-10.369 39.536 9.5777v29.847z" fill="#fff"/><circle cx="65.318" cy="67.667" r="3.0626" fill="#98dc9a"/><path d="m112.04 96.678v-10.357c11.181 5.0255 20.108 1.7834 27.731-6.2367v-22.831c-12.46-14.533-36.662-10.369-39.536 9.5777v29.847z" fill="#fff"/><circle transform="scale(-1,1)" cx="-126.68" cy="67.667" r="3.0626" fill="#98dc9a"/><path d="m56.575 100.02v27.285c0 7.5862 8.5066 16.093 16.093 16.093h48.167c7.0744 0 15.007-7.9326 15.007-15.007v-28.483z" fill="#fff"/><path d="m98.227 104.03-15.258 17.485h11.916v13.142l17.151-17.039h-13.81z" fill="#98dc9a"/></svg>
