<svg xmlns="http://www.w3.org/2000/svg" viewBox="0 0 192 192"><rect x="19.5" y="19.5" width="153" height="153" rx="10" style="fill:#98dc9a"/><path d="M96,56h0a16.36,16.36,0,0,1,16.36,16.36V90.55A16.36,16.36,0,0,1,96,106.91h0A16.36,16.36,0,0,1,79.64,90.55V72.36A16.36,16.36,0,0,1,96,56Z" style="fill:#56595b"/><circle cx="96" cy="110.55" r="25.45" style="fill:#56595b"/><path d="M70.55,110.55c0-10.91,9.09-20,9.09-30.91h32.72c0,10.91,9.09,20,9.09,30.91Z" style="fill:#56595b"/><circle cx="96" cy="112.36" r="18.18" style="fill:#fff"/><rect x="88.73" y="81.45" width="14.55" height="21.82" style="fill:#fff"/><path d="M77.82,112.36c0-10.91,10.91-20,10.91-23.63h14.54c0,3.63,10.91,12.72,10.91,23.63Z" style="fill:#fff"/><path d="M87.82,81.45s.91,9.1,8.18,9.1,8.18-9.1,8.18-9.1Z" style="fill:#c39a54"/><ellipse cx="89.64" cy="76" rx="4.55" ry="5.45" style="fill:#fff"/><ellipse cx="102.36" cy="76" rx="4.55" ry="5.45" style="fill:#fff"/><ellipse cx="90.55" cy="76.91" rx="1.82" ry="2.73" style="fill:#56595b"/><ellipse cx="101.45" cy="76.91" rx="1.82" ry="2.73" style="fill:#56595b"/><path d="M86.91,81.45c0,1.82,5.45,7.28,9.09,7.28s9.09-5.46,9.09-7.28-3.64-3.63-9.09-3.63S86.91,79.64,86.91,81.45Z" style="fill:#f9de81"/><path d="M108.73,136c4.73,0,10.3-3.89,14.44-7.26s7.09-2.69,7.64-7.39c.35-3-2.68-4.4-3.64-7.27-.77-2.3.19-5.22-1.69-6.75-2.39-2-5.62,2.24-8.7,2-3.25-.3-5.84-2-9.48-2-2.73,0-2.21,5-2,13.74S103.27,136,108.73,136Z" style="fill:#f9de81"/><path d="M77.82,110.55c0,7.27,14.54,7.27,14.54,12.72,0,2.19-5.45,5.46-5.45,5.46L76,125.09S77.82,105.66,77.82,110.55Z" style="fill:#56595b"/><path d="M83.27,136c-4.73,0-10.3-3.89-14.44-7.26s-7.09-2.69-7.64-7.39c-.35-3,2.68-4.4,3.64-7.27.77-2.3-.19-5.22,1.69-6.75,2.39-2,5.62,2.24,8.7,2,3.25-.3,5.84-2,9.48-2,2.73,0,2.21,5,2,13.74S88.73,136,83.27,136Z" style="fill:#f9de81"/><path d="M110.55,106.91c-1,1-2,2.3-1.82,3.64a5.1,5.1,0,0,0,3.63,3.63c2.41.67,5.74.15,7.28-1.82.74-1-.4-2.49,0-3.63a6.47,6.47,0,0,1,1.45-1.82L116,101.45a12.22,12.22,0,0,1-1.82,3.64C113.22,106.05,111.5,106,110.55,106.91Z" style="fill:#56595b"/></svg>