<svg xmlns="http://www.w3.org/2000/svg" width="192" height="192"><circle cx="96" cy="96" r="88" style="opacity:1;fill:#728dbe;stroke-width:4"/><path d="M83.594 61.222c-9.496-.118-13.422 6.708-13.422 6.708L55 77l14.563 8.828 6.507 6.914s-14.007 6.9-14.043 17.899C62 119 66.389 129.713 79.828 129.962c14.268.264 21.867-9.353 21.867-9.353s5.91 10.587 16.274 10.582c5.495-.003 12.612-4.684 12.812-10.175.518-14.188-18.705-16.088-18.203-23.391.313-4.561 2.951-6.51 6.813-6.508 3.953.002 10.171 6.102 10.171 6.102s-.84-5.604-2.851-8.742c0 0-4.598-2.523-8.742-2.446-6.688.124-10.85 4.21-10.986 12.61C106.902 103.617 101 113 101 113L84.406 94.578s15.329-5.587 14.755-18.508c-.46-10.339-8.371-14.758-15.567-14.848Zm.508 4.783c5.945.208 10.35 4.618 10.171 11.487-.212 8.162-13.117 13.32-13.117 13.32s-9.24-7.684-9.148-14.339c.094-6.758 7-10.646 12.094-10.468zm-4.477 31.518L98 117s-5.273 8.11-15.727 7.984c-9.092-.109-15.296-6.41-15.257-13.117.065-11.434 12.609-14.344 12.609-14.344Zm30.406 7.938c1.955 1.352 4.494 3.866 7.024 5.383 3.482 2.089 8.195 5.588 8.03 9.258-.125 2.806-3.499 5.536-6.304 5.693C111.495 126.204 105 117 105 117s3.704-5.26 5.031-11.54z" style="opacity:1;fill:#fff;stroke-width:4"/></svg>