<?xml version="1.0" encoding="UTF-8" standalone="no"?>
<svg
   xmlns:dc="http://purl.org/dc/elements/1.1/"
   xmlns:cc="http://creativecommons.org/ns#"
   xmlns:rdf="http://www.w3.org/1999/02/22-rdf-syntax-ns#"
   xmlns:svg="http://www.w3.org/2000/svg"
   xmlns="http://www.w3.org/2000/svg"
   xmlns:sodipodi="http://sodipodi.sourceforge.net/DTD/sodipodi-0.dtd"
   xmlns:inkscape="http://www.inkscape.org/namespaces/inkscape"
   width="192"
   height="192"
   version="1.1"
   viewBox="0 0 192 192"
   id="svg14"
   sodipodi:docname="anexplorer.svg"
   inkscape:version="0.92.5 (2060ec1f9f, 2020-04-08)">
  <metadata
     id="metadata20">
    <rdf:RDF>
      <cc:Work
         rdf:about="">
        <dc:format>image/svg+xml</dc:format>
        <dc:type
           rdf:resource="http://purl.org/dc/dcmitype/StillImage" />
        <dc:title></dc:title>
      </cc:Work>
    </rdf:RDF>
  </metadata>
  <defs
     id="defs18" />
  <sodipodi:namedview
     pagecolor="#ffffff"
     bordercolor="#666666"
     borderopacity="1"
     objecttolerance="10"
     gridtolerance="10"
     guidetolerance="10"
     inkscape:pageopacity="0"
     inkscape:pageshadow="2"
     inkscape:window-width="1280"
     inkscape:window-height="745"
     id="namedview16"
     showgrid="false"
     inkscape:zoom="1.6848959"
     inkscape:cx="20.633573"
     inkscape:cy="86.989867"
     inkscape:window-x="-12"
     inkscape:window-y="-2"
     inkscape:window-maximized="1"
     inkscape:current-layer="svg14"
     inkscape:document-rotation="0" />
  <rect
     style="opacity:1;vector-effect:none;fill:#ff837d;fill-opacity:1;stroke-width:4;paint-order:stroke fill markers"
     id="rect827"
     width="136"
     height="136"
     x="28"
     y="28"
     ry="8" />
  <path
     style="opacity:1;vector-effect:none;fill:#ABABFF;fill-opacity:1;stroke-width:4;paint-order:stroke fill markers"
     d="m 30,20 c -5.54,0 -10,4.46 -10,10 v 132 c 0,5.54 4.46,10 10,10 h 132 c 5.54,0 10,-4.46 10,-10 V 48 c 0,0 0,-12 -12,-12 -18.66667,0 -56,0 -56,0 L 88,20 Z"
     id="rect823"
     inkscape:connector-curvature="0"
     sodipodi:nodetypes="sssssscsccs" />
  <path
     inkscape:connector-curvature="0"
     style="opacity:1;vector-effect:none;fill:#ffffff;fill-opacity:1;stroke-width:4;paint-order:stroke fill markers"
     d="m 80,60 c -4.432,0 -8,3.568 -8,8 v 56 c 0,4.432 3.568,8 8,8 h 32 c 4.432,0 8,-3.568 8,-8 V 68 c 0,-4.432 -3.568,-8 -8,-8 z m 0,12 h 32 v 48 H 80 Z m -4,68 v 8 h 8 v -8 z m 16,0 v 8 h 8 v -8 z m 16,0 v 8 h 8 v -8 z"
     id="rect830" />
</svg>
