<svg width="192" height="192" fill="none" version="1.1" viewBox="0 0 192 192" xmlns="http://www.w3.org/2000/svg">
 <rect x="20" y="62" width="152" height="104" rx="10" fill="#56595b"/>
 <path d="m36 79c-2.7614 0-5 2.2386-5 5s2.2386 5 5 5 5-2.2386 5-5-2.2386-5-5-5zm120 42c-2.761 0-5 2.239-5 5s2.239 5 5 5 5-2.239 5-5-2.239-5-5-5zm-5-16c0-2.761 2.239-5 5-5s5 2.239 5 5-2.239 5-5 5-5-2.239-5-5zm5-26c-2.761 0-5 2.2386-5 5s2.239 5 5 5 5-2.2386 5-5-2.239-5-5-5zm-25 47c0-2.761 2.239-5 5-5s5 2.239 5 5-2.239 5-5 5-5-2.239-5-5zm5-26c-2.761 0-5 2.239-5 5s2.239 5 5 5 5-2.239 5-5-2.239-5-5-5zm-5-16c0-2.7614 2.239-5 5-5s5 2.2386 5 5-2.239 5-5 5-5-2.2386-5-5zm-15 37c-2.761 0-5 2.239-5 5s2.239 5 5 5 5-2.239 5-5-2.239-5-5-5zm-5-16c0-2.761 2.239-5 5-5s5 2.239 5 5-2.239 5-5 5-5-2.239-5-5zm5-26c-2.761 0-5 2.2386-5 5s2.239 5 5 5 5-2.2386 5-5-2.239-5-5-5zm-25 47c0-2.761 2.2386-5 5-5s5 2.239 5 5-2.2386 5-5 5-5-2.239-5-5zm5-26c-2.7614 0-5 2.239-5 5s2.2386 5 5 5 5-2.239 5-5-2.2386-5-5-5zm-5-16c0-2.7614 2.2386-5 5-5s5 2.2386 5 5-2.2386 5-5 5-5-2.2386-5-5zm-15 37c-2.7614 0-5 2.239-5 5s2.2386 5 5 5 5-2.239 5-5-2.2386-5-5-5zm-5-16c0-2.761 2.2386-5 5-5s5 2.239 5 5-2.2386 5-5 5-5-2.239-5-5zm5-26c-2.7614 0-5 2.2386-5 5s2.2386 5 5 5 5-2.2386 5-5-2.2386-5-5-5zm-25 47c0-2.761 2.2386-5 5-5s5 2.239 5 5-2.2386 5-5 5-5-2.239-5-5zm5-26c-2.7614 0-5 2.239-5 5s2.2386 5 5 5 5-2.239 5-5-2.2386-5-5-5zm-5-16c0-2.7614 2.2386-5 5-5s5 2.2386 5 5-2.2386 5-5 5-5-2.2386-5-5zm-15 37c-2.7614 0-5 2.239-5 5s2.2386 5 5 5 5-2.239 5-5-2.2386-5-5-5zm-5-16c0-2.761 2.2386-5 5-5s5 2.239 5 5-2.2386 5-5 5-5-2.239-5-5zm29 40c-2.7614 0-5 2.239-5 5s2.2386 5 5 5h75c2.761 0 5-2.239 5-5s-2.239-5-5-5z" clip-rule="evenodd" fill="#b1b5bd" fill-rule="evenodd"/>
 <path d="m133.01 111c5.522 0 9.993-4.477 9.993-10.001v-64.998c0-5.5204-4.474-10-9.993-10h-74.014c-5.5223 0-9.9929 4.4774-9.9929 10v64.998c0 5.521 4.474 10.001 9.9929 10.001h18.806c2.687 0 5.261 1.081 7.1418 3l11.059 11.284 11.238-11.238c1.861-1.86 4.38-2.913 7.011-2.928z" clip-rule="evenodd" fill="#9abeff" fill-rule="evenodd" style="fill:#8C72BD"/>
 <g transform="matrix(.88178 0 0 .88178 11.838 8.4914)" style="fill:#fff" aria-label="ASK">
  <path d="m78.85 82.6h5.3l-10.85-30h-5.45l-10.85 30h5.3l2.15-6.35h12.25zm-12.95-10.65 4.7-14 4.7 14z" style="fill:#fff"/>
  <path d="m95.484 83c5.4 0 9.8-3.2 9.8-8.6 0-10.65-14.2-8.05-14.2-14.2 0-2.35 1.85-3.45 4.05-3.45 2 0 3.8 0.9 5.15 2.6l3.45-3.15c-1.9-2.35-5.05-4-8.6-4-4.7 0-8.95 2.95-8.95 8.35 0 9.95 14.2 7.5 14.2 13.85 0 2.45-2.05 3.9-4.85 3.9-3.05 0-5.35-1.7-6.4-4.25l-4.2 2.55c1.75 3.75 5.75 6.4 10.55 6.4z" style="fill:#fff"/>
  <path d="m128.17 82.6h6.65l-14.3-16.4 13.3-13.6h-6.45l-10.9 11.45h-1.7v-11.45h-4.9v30h4.9v-14.15h1.6z" style="fill:#fff"/>
 </g>
</svg>
