<svg xmlns="http://www.w3.org/2000/svg" width="192" height="192" fill="none"><rect width="152" height="104" x="20" y="62" fill="#56595b" rx="10"/><path fill="#b1b5bd" fill-rule="evenodd" d="M36 79a5 5 0 1 0 0 10 5 5 0 0 0 0-10zm120 42a5 5 0 1 0 .001 10.001A5 5 0 0 0 156 121zm-5-16a5 5 0 1 1 10.001.001A5 5 0 0 1 151 105zm5-26a5 5 0 1 0 0 10 5 5 0 0 0 0-10zm-25 47a5 5 0 1 1 10.001.001A5 5 0 0 1 131 126zm5-26a5 5 0 1 0 .001 10.001A5 5 0 0 0 136 100zm-5-16a5 5 0 1 1 10 0 5 5 0 0 1-10 0zm-15 37a5 5 0 1 0 .001 10.001A5 5 0 0 0 116 121zm-5-16a5 5 0 1 1 10.001.001A5 5 0 0 1 111 105zm5-26a5 5 0 1 0 0 10 5 5 0 0 0 0-10zm-25 47a5 5 0 1 1 10 0 5 5 0 0 1-10 0zm5-26a5 5 0 1 0 0 10 5 5 0 0 0 0-10zm-5-16a5 5 0 1 1 10 0 5 5 0 0 1-10 0zm-15 37a5 5 0 1 0 0 10 5 5 0 0 0 0-10zm-5-16a5 5 0 1 1 10 0 5 5 0 0 1-10 0zm5-26a5 5 0 1 0 0 10 5 5 0 0 0 0-10zm-25 47a5 5 0 1 1 10 0 5 5 0 0 1-10 0zm5-26a5 5 0 1 0 0 10 5 5 0 0 0 0-10zm-5-16a5 5 0 1 1 10 0 5 5 0 0 1-10 0zm-15 37a5 5 0 1 0 0 10 5 5 0 0 0 0-10zm-5-16a5 5 0 1 1 10 0 5 5 0 0 1-10 0zm29 40a5 5 0 0 0 0 10h75a5 5 0 0 0 0-10z" clip-rule="evenodd"/><path fill="#9abeff" fill-rule="evenodd" d="M133.01 111c5.522 0 9.993-4.477 9.993-10.001V36.001c0-5.52-4.474-10-9.993-10H58.996c-5.522 0-9.993 4.477-9.993 10v64.998c0 5.521 4.474 10.001 9.993 10.001h18.806a10 10 0 0 1 7.142 3l11.059 11.284 11.238-11.238a10 10 0 0 1 7.01-2.928z" clip-rule="evenodd" style="fill:#8c72bd"/><g aria-label="ASK" style="fill:#fff"><path d="M78.85 82.6h5.3l-10.85-30h-5.45L57 82.6h5.3l2.15-6.35H76.7zM65.9 71.95l4.7-14 4.7 14zM95.484 83c5.4 0 9.8-3.2 9.8-8.6 0-10.65-14.2-8.05-14.2-14.2 0-2.35 1.85-3.45 4.05-3.45 2 0 3.8.9 5.15 2.6l3.45-3.15c-1.9-2.35-5.05-4-8.6-4-4.7 0-8.95 2.95-8.95 8.35 0 9.95 14.2 7.5 14.2 13.85 0 2.45-2.05 3.9-4.85 3.9-3.05 0-5.35-1.7-6.4-4.25l-4.2 2.55c1.75 3.75 5.75 6.4 10.55 6.4zM128.17 82.6h6.65l-14.3-16.4 13.3-13.6h-6.45l-10.9 11.45h-1.7V52.6h-4.9v30h4.9V68.45h1.6z" style="fill:#fff" transform="translate(11.838 8.491) scale(.88178)"/></g></svg>