<svg xmlns="http://www.w3.org/2000/svg" xml:space="preserve" viewBox="0 0 192 192"><rect width="152" height="152" x="20" y="20" fill="#98dc9a" class="a" rx="10"/><path fill="#fff" d="m62.623 124.42-5.524-2.23a4.092 4.092 0 0 1-2.26-5.328l7.784-19.266zm19.888 8.503H74.9a4.092 4.092 0 0 1-4.093-4.092v-24.872zM70.897 71.41l37.943-15.329a4.092 4.092 0 0 1 5.324 2.259l22.998 56.913a4.092 4.092 0 0 1-2.263 5.328l-37.943 15.33a4.092 4.092 0 0 1-5.327-2.263L68.639 76.74a4.092 4.092 0 0 1 2.263-5.324zm12.186 12.408a4.092 4.092 0 1 0 0-8.184 4.092 4.092 0 0 0 0 8.184z"/></svg>