<?xml version="1.0" encoding="UTF-8" standalone="no"?>
<svg
   xmlns:dc="http://purl.org/dc/elements/1.1/"
   xmlns:cc="http://creativecommons.org/ns#"
   xmlns:rdf="http://www.w3.org/1999/02/22-rdf-syntax-ns#"
   xmlns:svg="http://www.w3.org/2000/svg"
   xmlns="http://www.w3.org/2000/svg"
   xmlns:sodipodi="http://sodipodi.sourceforge.net/DTD/sodipodi-0.dtd"
   xmlns:inkscape="http://www.inkscape.org/namespaces/inkscape"
   sodipodi:docname="app_watcher.svg"
   inkscape:version="1.0.1 (3bc2e813f5, 2020-09-07)"
   version="1.1"
   id="svg2"
   viewBox="0 0 192 192"
   height="192"
   width="192"
   inkscape:export-filename="/home/jphilippe/inkscape/icônes/delta-github/png/app_watcher.png"
   inkscape:export-xdpi="96"
   inkscape:export-ydpi="96">
  <sodipodi:namedview
     inkscape:document-rotation="0"
     inkscape:window-maximized="1"
     inkscape:window-y="30"
     inkscape:window-x="1920"
     inkscape:window-height="1022"
     inkscape:window-width="1680"
     units="px"
     showgrid="false"
     inkscape:current-layer="layer1"
     inkscape:document-units="px"
     inkscape:cy="51.184969"
     inkscape:cx="25.56869"
     inkscape:zoom="2"
     inkscape:pageshadow="2"
     inkscape:pageopacity="0.0"
     borderopacity="1.0"
     bordercolor="#666666"
     pagecolor="#ffffff"
     id="base"
     inkscape:snap-bbox="false"
     inkscape:object-paths="true"
     inkscape:snap-nodes="true"
     showguides="true"
     inkscape:guide-bbox="true"
     inkscape:snap-object-midpoints="true"
     inkscape:snap-center="true"
     inkscape:snap-global="true"
     inkscape:snap-intersection-paths="true"
     inkscape:snap-smooth-nodes="true"
     inkscape:snap-midpoints="true" />
  <defs
     id="defs4" />
  <metadata
     id="metadata7">
    <rdf:RDF>
      <cc:Work
         rdf:about="">
        <dc:format>image/svg+xml</dc:format>
        <dc:type
           rdf:resource="http://purl.org/dc/dcmitype/StillImage" />
        <dc:title />
      </cc:Work>
    </rdf:RDF>
  </metadata>
  <g
     transform="translate(0,-860.36216)"
     id="layer1"
     inkscape:groupmode="layer"
     inkscape:label="Calque 1">
    <path
       style="fill:#708cbd;fill-opacity:1;stroke-width:44.7554;stroke-linecap:square;stop-color:#000000"
       id="path1126"
       sodipodi:type="arc"
       sodipodi:cx="96.000511"
       sodipodi:cy="1015.2753"
       sodipodi:rx="29.086803"
       sodipodi:ry="29.086803"
       sodipodi:start="0"
       sodipodi:end="3.1415927"
       sodipodi:open="true"
       sodipodi:arc-type="arc"
       d="m 125.08731,1015.2753 a 29.086803,29.086803 0 0 1 -14.5434,25.1899 29.086803,29.086803 0 0 1 -29.086801,0 29.086803,29.086803 0 0 1 -14.543401,-25.1899" />
    <path
       id="path1128"
       style="fill:#99bdfe;fill-opacity:1;stroke-width:21.6795;stroke-linecap:square;stop-color:#000000"
       d="m 95.687443,868.36284 c -9.87589,0.17099 -17.792371,8.22578 -17.792668,18.10316 2.97e-4,4.62695 1.771913,9.07825 4.951148,12.43997 -31.438608,6.09756 -46.571865,29.47351 -46.571865,58.6182 v 14.46507 c 0,14.47674 -4.815694,28.54216 -13.688604,39.98106 l -0.915412,1.1802 c -2.805053,3.6163 -0.227741,8.8773 4.348972,8.8773 H 165.98099 c 4.57671,0 7.15402,-5.261 4.34897,-8.8773 l -0.9154,-1.1802 c -8.87291,-11.4389 -13.68862,-25.50431 -13.68862,-39.98106 v -14.46507 c 0,-29.14469 -15.13661,-52.52064 -46.57599,-58.6182 3.18073,-3.36108 4.95387,-7.81244 4.95528,-12.43997 -0.001,-9.99897 -8.10833,-18.10363 -18.107297,-18.10316 -0.103418,-8.8e-4 -0.207076,-8.8e-4 -0.31049,0 z"
       sodipodi:nodetypes="cccsscsccscsscccc" />
  </g>
  <style
     type="text/css"
     id="style853">
	.st0{fill:#FFFFFF;}
</style>
  <style
     type="text/css"
     id="style853-9">
	.st0{fill:#FFFFFF;}
</style>
  <style
     type="text/css"
     id="style853-3">
	.st0{fill:#FFFFFF;}
</style>
</svg>
