<svg xmlns="http://www.w3.org/2000/svg" xml:space="preserve" width="192" height="192"><rect width="152" height="152" x="20" y="20" fill="#56595b" rx="9.935"/><path fill="#728dbe" d="M95.714 56.209c-20.309 0-19.041 8.805-19.041 8.805l.023 9.127h19.377v2.727H68.996S56 75.405 56 95.895c0 20.491 11.364 19.768 11.364 19.768h6.772v-9.509S73.77 94.79 85.297 94.79h19.222s10.8.177 10.8-10.455V66.826s1.619-10.618-19.605-10.618zm-10.686 6.154a3.486 3.486 0 1 1-3.49 3.487 3.482 3.482 0 0 1 3.49-3.486z"/><path fill="#f9de81" d="M96.286 135.79c20.309 0 19.041-8.805 19.041-8.805l-.023-9.127H95.927v-2.727h27.077S136 116.594 136 96.104s-11.34-19.768-11.34-19.768h-6.773v9.509s.368 11.364-11.16 11.364H87.505s-10.8-.177-10.8 10.455v17.545s-1.641 10.582 19.582 10.582zm10.686-6.155a3.486 3.486 0 1 1 3.49-3.486 3.482 3.482 0 0 1-3.49 3.486z"/><circle cx="85.027" cy="65.821" r="3.557" fill="#fff"/><circle cx="106.97" cy="126.18" r="3.557" fill="#fff"/></svg>