<?xml version="1.0" encoding="UTF-8"?>
<svg width="192" height="192" version="1.1" viewBox="0 0 192 192" xml:space="preserve" xmlns="http://www.w3.org/2000/svg" xmlns:cc="http://creativecommons.org/ns#" xmlns:dc="http://purl.org/dc/elements/1.1/" xmlns:rdf="http://www.w3.org/1999/02/22-rdf-syntax-ns#"><metadata><rdf:RDF><cc:Work rdf:about=""><dc:format>image/svg+xml</dc:format><dc:type rdf:resource="http://purl.org/dc/dcmitype/StillImage"/></cc:Work></rdf:RDF></metadata><rect x="20" y="20" width="152" height="152" rx="9.9346" fill="#56595b"/><path d="m95.714 56.209c-20.309 0-19.041 8.8045-19.041 8.8045l0.02272 9.1273h19.377v2.7273h-27.077s-12.995-1.4636-12.995 19.027c0 20.491 11.364 19.768 11.364 19.768h6.7727v-9.5091s-0.36818-11.364 11.159-11.364h19.223s10.8 0.17727 10.8-10.455v-17.509s1.6182-10.618-19.605-10.618zm-10.686 6.1545a3.4864 3.4864 0 1 1-3.4909 3.4864 3.4818 3.4818 0 0 1 3.4909-3.4864z" fill="#728dbe"/><path d="m96.286 135.79c20.309 0 19.041-8.8046 19.041-8.8046l-0.0227-9.1273h-19.377v-2.7273h27.077s12.995 1.4636 12.995-19.027-11.341-19.768-11.341-19.768h-6.7727v9.5091s0.36817 11.364-11.159 11.364h-19.223s-10.8-0.17727-10.8 10.455v17.545s-1.6409 10.582 19.582 10.582zm10.686-6.1546a3.4864 3.4864 0 1 1 3.4909-3.4864 3.4818 3.4818 0 0 1-3.4909 3.4864z" fill="#f9de81"/><circle cx="85.027" cy="65.821" r="3.5572" fill="#fff"/><circle cx="106.97" cy="126.18" r="3.5572" fill="#fff"/></svg>
