<svg xmlns="http://www.w3.org/2000/svg" id="svg2" width="192" height="192" version="1.1"><defs id="defs4"><style id="style1921">.cls-1{fill:#d71921}</style></defs><g id="layer1" transform="translate(0 -860.362)"><rect id="rect2091" width="153" height="153" x="19.5" y="879.862" rx="10" style="fill:#ff837d;fill-opacity:1;fill-rule:evenodd;stroke:none;stroke-opacity:1"/><g id="g2099" style="fill:#fff;fill-opacity:1;stroke-width:.806375" transform="matrix(1.24012 0 0 1.24012 -198.237 -282.019)"><path id="path2093" d="M272.43 999.728a1.34 1.34 0 1 0 1.335 1.33 1.34 1.34 0 0 0-1.334-1.33zm0 2.4a1.065 1.065 0 1 1 1.061-1.066 1.046 1.046 0 0 1-1.065 1.08z" class="cls-1" style="fill:#fff;fill-opacity:1;stroke-width:.401477"/><path id="path2095" d="M271.883 1000.36h.603a.578.578 0 0 1 .418.15.418.418 0 0 1 .11.293.418.418 0 0 1-.29.418l.33.498h-.35l-.288-.433h-.234v.433h-.299zm.578.662c.149 0 .234-.085.234-.194 0-.13-.095-.194-.24-.194h-.293v.398z" class="cls-1" style="fill:#fff;fill-opacity:1;stroke-width:.401477"/><path id="path2097" d="M270.046 1004.154v-3.864c0-.353-.194-.418-.498-.418h-1.837c-.204 0-.234.125-.234.369v.607c0 .194-.125.154-.354-.075-.229-.229-.995-1.125-3.077-1.125-2.22 0-2.987.742-3.624 1.434s-1.494 2.34-.692 4.018c.801 1.677 3.261 2.021 4.127 2.205 1.03.214 2.52.757 2.071 1.583-.448.827-1.852.598-2.668.339a2.14 2.14 0 0 1-1.255-1.185.627.627 0 0 0-.612-.418h-2.081c-.374 0-.458.194-.458.458v3.804c0 .254.05.438.333.438h2.101c.279 0 .324-.12.324-.314v-.617c0-.2.12-.284.304-.095a5.795 5.795 0 0 0 2.44.995c1.19.185 2.752.21 3.778-.363 1.026-.573 1.837-1.25 1.997-2.624a2.987 2.987 0 0 0-2.136-3.485c-1.788-.617-3.486-.996-4.108-1.32-.697-.398-.821-1.493.16-1.782a2.768 2.768 0 0 1 2.165.329 1.733 1.733 0 0 1 .712 1.075c.04.244.07.498.433.498h2.191c.358 0 .498-.14.498-.498m-9.903-5.825s2.325-5.437-1.14-5.437h-2.987a.498.498 0 0 0-.538.563v2.624c0 .303-.08.617.578.617h2.29a1.827 1.827 0 0 1 1.807 1.633m-1.703 1.494h-6.074c-.343 0-.378.134-.378.463v2.39c0 .264.084.383.393.383h.463c.2 0 .443 0 .324.339-.12.338-1.628 5.173-1.733 5.431-.104.26-.687.23-.791-.04-.105-.268-1.37-5.182-1.44-5.426-.069-.244-.04-.26.195-.26.234 0 .632.056.632-.293v-2.599c0-.299-.03-.393-.378-.393h-5.427c-.453 0-.408.244-.408.498v2.384c0 .304.11.389.378.389h.543c.204 0 .378-.04.498.328.12.369 2.519 7.294 2.818 8.17.298.877 1.13.787 1.653.787.522 0 .697 0 .617.274-.08.274-.448 1.618-.906 1.992a1.872 1.872 0 0 1-1.733.189 5.362 5.362 0 0 1-1.2-.832c-.11-.085-.259-.075-.393.105-.135.179-1.135 1.434-1.419 1.837-.284.403-.22.433.04.677a5.93 5.93 0 0 0 4.242 1.563c2.813 0 3.843-2.315 4.326-3.594.483-1.28 3.889-10.64 4.013-11.073.125-.433.254-.448.498-.448h.717c.269 0 .339-.12.339-.418v-2.435c0-.299-.09-.393-.394-.393m-6.806-3.515c0-9.4-1.409-16.54-3.983-21.877-2.215-4.466-5.178-7.03-8.175-7.03-3.415 0-4.48 2.808-4.53 4.287-.055 1.28.666 2.708 1.364 4.092.542 1.07 1.05 2.076.995 2.723 0 .19-.144.707-.498.707-.353 0-1.26-1.493-1.862-2.45-1.394-2.264-3.136-5.087-5.327-5.087-.712 0-3.236.388-5.945 5.352-2.27 4.152-3.614 10.012-4.51 19.253 0 .144.11.413.363.413h2.753a.433.433 0 0 0 .463-.358c.628-5.333.996-8.664 1.703-11.576 1.733-6.97 4.212-8.862 4.89-8.867.836 0 1.657 1.364 2.528 2.803l.359.657c1.125 1.837 2.49 3.799 4.67 3.799 2.18 0 3.854-2.24 3.953-4.242.095-2.171-.851-3.79-1.538-4.979-.394-.687-.727-1.27-.727-1.678a.757.757 0 0 1 .851-.782c1.265 0 3.396 1.315 5.218 5.029 2.858 5.81 3.485 13.682 3.485 19.82a.448.448 0 0 0 .463.384h2.619a.408.408 0 0 0 .398-.393m-33.173 15.753v-2.44a.498.498 0 0 0-.498-.453h-.702a.652.652 0 0 1-.638-.498l-4.943-13.259a2.235 2.235 0 0 0-.593-.995c-.473-.458-1.558-.453-1.558-.453h-4.287a.408.408 0 0 0-.408.383v2.415c0 .214.11.433.498.433h1.065c.349 0 .339.254.19.528-.15.273-4.258 11.053-4.307 11.162-.16.329-.374.284-.374.284h-.806a.324.324 0 0 0-.339.348v2.455a.418.418 0 0 0 .418.433h6.094c.394 0 .399-.1.399-.378v-2.534c0-.284-.155-.324-.414-.324h-1.085c-.329 0-.418-.214-.358-.408 0-.08.373-1.08.497-1.365.125-.283.165-.298.498-.298h4.76c.498 0 .528.149.597.328.07.18.33.901.389 1.08.184.499 0 .673-.204.673h-1.106a.363.363 0 0 0-.393.378v2.554c0 .2.095.294.433.294h6.871a.329.329 0 0 0 .304-.343m-7.742-7.747h-2.754c-.408 0-.363-.244-.293-.404.07-.16 1.244-3.719 1.329-3.948.085-.229.309-.378.443-.055.135.324 1.394 3.79 1.494 3.983.1.195.07.419-.204.419m18.67-9.958v2.599c0 .18.095.264.344.264h.497c.349 0 .369.1.369.468v10.983c0 .498-.04.498-.388.498h-.747c-.379 0-.428.124-.428.453v2.35c0 .348.144.433.497.433h4.203c.368 0 .403-.144.403-.388v-.747c0-.244.299-.105.458.075.16.18.767.96 2.823 1.14 1.683.15 3.545-.304 4.645-1.723.836-1.09 1.494-2.135 1.494-4.924 0-2.788-1.3-4.545-2.614-5.347a5.85 5.85 0 0 0-4.177-.662 5.173 5.173 0 0 0-2.022 1.135c-.124.155-.363.274-.363 0v-6.572c0-.338-.15-.433-.359-.433h-4.321c-.319 0-.344.12-.344.383m5.173 11.83c0-1.678.742-3.057 2.49-3.057 1.747 0 2.489 1.424 2.489 3.157 0 1.732-1.085 2.837-2.56 2.837-1.473 0-2.404-1.26-2.404-2.937m-14.234 2.698s.03.304-.17.304h-.692c-.303 0-.298.16-.298.294v2.669s-.04.273.348.273h5.91a.349.349 0 0 0 .368-.388v-2.534c0-.27 0-.349-.353-.349h-.543c-.254 0-.418 0-.418-.244v-2.07a2.56 2.56 0 0 1 .797-1.962 4.063 4.063 0 0 1 2.34-1.096 7.045 7.045 0 0 1 1.663.055c.239 0 .378-.095.378-.284v-3.44c0-.2-.055-.398-.498-.443a6.472 6.472 0 0 0-3.385 1.055 5.521 5.521 0 0 0-1.693 2.166c-.095.135-.26.19-.26-.045v-2.564c0-.259-.084-.448-.388-.448h-3.918c-.244 0-.353 0-.353.334v2.628a.264.264 0 0 0 .269.274h.557c.244 0 .339.07.339.354zm-8.25 11.95a4.979 4.979 0 0 0 1.528 3.744c1.638 1.712 4.64 3.111 8.678 4.052a53.497 53.497 0 0 0 11.745 1.26h.15c4.978 0 12.123-.558 18.063-3.037 4.232-1.768 6.507-3.953 6.816-6.473.224-1.802-.254-3.405-2.46-4.48a.314.314 0 0 0-.289.159 17.849 17.849 0 0 1-1.493 2.265.358.358 0 0 0 .045.498 1.429 1.429 0 0 1 .229 2.236c-.588.697-1.424 1.672-4.914 3.057-2.878 1.14-7.967 2.489-15.788 2.529h-.155c-9.11 0-15.981-2.196-18.053-4.362a1.837 1.837 0 0 1-.622-1.31c.055-1.294 1.857-2.015 5.078-2.03h.055a21.782 21.782 0 0 1 2.61.164c.641.08 1.264.18 1.866.289a33.273 33.273 0 0 1 3.983 1.035c1.817.593 3.236 1.23 4.187 1.633.548.23.906.384 1.106.443a2.49 2.49 0 0 0 .89.115 1.618 1.618 0 0 0 1.494-1.31 1.449 1.449 0 0 0-.811-1.697 49.43 49.43 0 0 0-9.6-3.321 32.233 32.233 0 0 0-3.39-.578 21.454 21.454 0 0 0-2.549-.164h-.045c-4.978 0-8.195 2.041-8.34 5.293" class="cls-1" style="fill:#fff;fill-opacity:1;stroke-width:.401477"/></g></g></svg>