<svg xmlns="http://www.w3.org/2000/svg" id="svg16" version="1.1" viewBox="0 0 192 192"><defs id="defs4"><style id="style2">.a{fill:none;stroke:#b1b5bd;stroke-linecap:round;stroke-linejoin:round;isolation:isolate;opacity:.63}</style></defs><path id="path829" d="M73.789 7.839c-7.71.166-10.641 5.416-10.991 6.817-.374 1.495.907 2.028.64 2.616-.267.587-1.548.532-2.722 3.629-1.175 3.096-.48 5.979-.48 5.979s-1.92.32-4.11 2.882c2.502-.794 3.202 0 3.202 0s-.904 1.363-1.015 2.882c1.817-2.287 2.402-3.095 3.257-3.095.854 0 1.068 1.067.427 2.562-.64 1.494-4.377 3.363-5.498 4.644-1.12 1.28-.587 3.31-.587 3.31s-3.203 1.547-3.203 3.095c0 1.548 2.615 2.295.693 2.616-1.921.32-2.187 2.883-2.187 4.164 0 1.28 1.066 3.576 2.988 3.47 1.921-.107 1.682-2.055 1.682-2.055s0-1.309 1.387-1.335c1.388-.027 1.095 2.136.935 2.696-.16.56-1.68 1.201-1.974 1.895-.294.694-.21 2.424-.21 2.424s-3.322.34-5.436.982c-2.114.642-1.095 2.943-1.095 2.943s.566 2.227 1.359 2.19c.792-.038 2.567 1.057 2.567 2.492 0 1.434-4.643 5.51-6.946 7.02-2.302 1.51-4.491.567-5.888.642-1.396.076-2.227 2.265-2.151 3.284.075 1.02.189 1.962.793 1.962.604 0 .452-1.962 1.396-1.962s.604 1.773 1.358 1.773c.755 0 .416-1.811 1.02-2.189.604-.377 2.605 0 4.001-.565 1.397-.567 5.511-3.625 5.511-3.625l-1.084 4.969S31.89 83.784 26.393 87.52C20.895 91.256 11.82 98.248 12.3 102.625c.48 4.377 7.74 8.968 11.904 11.103 4.163 2.135 10.782 4.644 10.782 4.644s1.282 4.591 3.951 8.808c2.67 4.217 8.06 8.595 8.06 8.595s1.068 3.949-.16 6.19c-1.227 2.243-10.729 5.713-14.893 8.221-4.163 2.51-11.156 9.182-11.156 9.182l-1.976 12.224s7.74-12.223 11.477-16.227c3.736-4.003 17.029-11.423 18.256-12.597 1.228-1.175 1.228-5.018 1.228-5.018l12.278 9.234s-.375 1.6.052 3.149c.427 1.548 1.71 1.389 1.71 1.389s-1.55 1.921-.162 3.47c1.388 1.547 3.097 1.12 3.097 1.12l5.017 4.59.054-6.138-1.547-.854s1.334-2.882.48-3.896c-.855-1.014-2.562.16-2.562.16s.138-2.2-.466-3.559c-.604-1.358-2.718-1.207-2.718-1.207s.15-2.265-1.208-5.285a348.736 348.736 0 0 1-2.265-5.133s.756-4.53.605-8.455c-.151-3.926-1.21-6.643-1.21-6.643h1.813s2.566 6.04 3.623 8.455c1.057 2.416 7.398 9.813 10.116 13.739s10.267 14.947 10.72 18.873c.453 3.925.454 12.079.756 14.193.301 2.113 2.716 9.511 4.075 9.058 1.359-.453 3.02-6.038 2.568-9.36-.453-3.322-2.266-8.153-2.719-13.287-.453-5.133-.905-15.4-1.358-19.628-.453-4.227-2.567-7.096-5.436-10.72-2.868-3.624-2.113-2.566-2.868-10.719 0 0 3 1.333 6.362.532 3.363-.8 4.431-4.805 4.431-4.805s2.615.16 5.978-1.761c3.363-1.922 4.057-4.91 4.057-4.91s3.896.052 6.726-1.603c2.829-1.655 3.256-4.91 3.256-4.91s1.709.854 3.63.107c1.922-.748 4.805-2.562 4.805-2.562s2.294 3.042-1.122 8.434c-3.416 5.391-17.294 21.885-17.401 25.142-.107 3.256 7.42 7.419 13.932 9.18 6.512 1.762 21.726 9.983 26.37 14.574 4.644 4.59 5.338 9.714 5.338 9.714s2.882-4.91 1.334-8.273c-1.548-3.363-7.527-9.875-15.747-13.718-8.22-3.844-20.125-5.072-24.021-6.94-3.897-1.87-2.189-4.11-.534-8.435 1.655-4.323 9.875-18.095 11.103-20.444 1.228-2.349 2.029-3.204 3.79-6.566 1.762-3.363 1.175-4.644.908-5.819-.267-1.174.16-2.936 1.815-4.11 1.655-1.174 3.362-1.495 4.216-1.495.854 0-.48 1.015.695 1.015 1.174 0 7.847.854 14.946-.8 7.1-1.655 13.933-5.766 14.093-6.78.16-1.014-1.015-.854-1.069-1.548-.053-.694.428-.48 1.976-.588 1.548-.106 2.668-1.013 2.668-1.013s.748 1.814 2.456 1.814 2.456-1.28 2.456-1.28.373 1.601 1.601 1.548c1.228-.053 2.03-1.121 3.417-2.136 1.388-1.014 6.352-2.99 6.352-2.99s-4.431-1.547-5.446-1.494c-1.014.053-2.348.8-2.348.8s-.8-2.188-2.135-2.241c-1.334-.054-1.44 2.936-1.44 2.936s-1.335-1.815-3.203-1.762c-1.869.054-2.51 2.242-2.51 2.242s-4.59-2.882-11.209-3.63c-6.62-.747-10.356-.32-10.356-.32l-.534 1.921s-8.755-5.657-22.1-6.19c-13.345-.534-20.55.213-20.55.213s-1.763-2.136-4.646-3.577c-2.882-1.442-3.682-1.389-3.629-2.456.054-1.068.96-6.032 1.014-7.313.053-1.282-2.082-2.242-6.14-1.975-4.056.267-8.806 4.697-8.806 4.697l-.107-1.815 1.495-1.174c.747-.587.374-1.868.374-1.868s-.535-1.12.693-3.47c1.228-2.348 4.43-6.138 6.352-6.138 1.922 0 2.136 3.576 4.004 6.511 1.869 2.936 2.722 3.044 2.722 3.044s2.882 4.59 5.285 4.484c2.402-.107 1.976-2.563 1.976-2.563s-.428-1.334 1.226-1.6c1.655-.268 4.004.64 6.834 1.548 2.829.907 9.874 1.547 11.903 1.44 2.028-.106 1.442-.533 2.136-.907.693-.374 1.068.213 2.135-.054 1.068-.266.534-.96 1.495-1.12.96-.16 1.548.212 2.028.372s1.6.962 1.868.695c.267-.267.16-.748-.747-1.495-.907-.747-1.815-.64-1.815-.64s.053-1.122-.695-1.709c-.747-.587-2.028-.16-2.028-.16s.16-1.975-1.6-1.335c-1.762.641-5.178 2.99-6.352 2.883-1.175-.107-.642.108-4.218-.96-3.577-1.068-7.36-2.185-7.36-2.185s2.039-2.039 2.114-4.115c.076-2.076-1.36-2.83-1.36-2.83s1.549-2.19 1.586-3.888c.038-1.699-2.528-1.66-2.528-1.66l3.66-1.246s-.755-.378-1.887-.34c-1.132.037-1.283-2.077-1.283-2.077s.415-5.435-2.152-5.548c-2.566-.114-2.604 1.36-4.416 1.586-1.812.226-1.812-1.246-1.812-1.246s.982-.076 1.36-1.737c.377-1.66-2.227-2.754-2.227-2.754s1.093 3.698-.19 4c-1.284.302-.324-1.61-6.94-3.025-.289-.809.321-2.241 1.175-2.295.854-.053 1.815 2.082 1.815 2.082l.214-2.028s1.467-.675 4.377-.054c-3.205-2.5-5.765-3.31-5.765-3.31S84.31 8.464 75.395 7.876a18.398 18.398 0 0 0-1.606-.037zm15.325 21.549s1.782-.039 3.097.587c.842.4 2.274.957 2.08 1.87-.143.676-1.546 1.183-1.974.64-1.233-1.563-3.203-3.097-3.203-3.097zm-28.336 6.208s-1.493 1.589-1.962 2.265c-.598.863-1.284 2.19-1.284 2.19s-.384-1.423.227-2.568c.89-1.67 3.019-1.887 3.019-1.887zm41.43 5.662c.376-.007.786.057 1.265.248.847.337-.872 1.435-1.174 2.295-.153.437.39 1.636 0 1.388-2.838-1.802-4.964-1.547-4.964-1.547s1.664-1.713 3.095-2.03c.614-.136 1.15-.343 1.778-.354zM87.993 58.855c.984-.036 1.715 1.28 1.921 2.241.292 1.36-1.174 4.004-1.174 4.004s-2.972-1.108-8.647-1.334c-2.614-.105-1.66-1.275-.428-1.975 2.394-1.36 4.498-2.795 8.328-2.936zm-4.27 8.487c1.13-.164 3.522 1.28 3.522 1.28s-1.481 1.311-3.149.695c-1.292-.477-1.215-1.852-.373-1.975zm-24.525.788a.57.57 0 0 1 .221.078c.755.455-.191 1.486-.603 2.265-.74 1.402-2.098 2.162-3.321 3.17-1.907 1.573-2.19-.075-2.19-.075s2.949-1.197 3.85-2.415c.403-.545.114-1.428.529-1.963.356-.46.981-1.13 1.514-1.06zm31.09.92c3.91.117 4.166.305 5.98 1.227.707.36 1.761 1.602 1.761 1.602s-2.93 1-6.459 1.015c-.662.003-1.424-.417-1.708-1.015-.408-.862-.527-2.857.426-2.829zM46.41 82.235s-8.57 13.948-11.424 21.566c-2.738 7.307-.213 12.384-.213 12.384s-19.556-3.909-18.362-14.626c1.6-14.363 29.999-19.324 29.999-19.324z" style="opacity:1;fill:#8c72bd;stroke-width:.74232864"/></svg>