<svg xmlns="http://www.w3.org/2000/svg" id="svg16" version="1.1" viewBox="0 0 192 192"><defs id="defs4"><style id="style2">.a{fill:none;stroke:#b1b5bd;stroke-linecap:round;stroke-linejoin:round;isolation:isolate;opacity:.63}</style></defs><path id="path829" d="M40 92c20-8 56-80 56-80s36 72 56 80c-20 8-56 88-56 88s-36-80-56-88z" style="opacity:1;fill:#4a4a4a;stroke:#c39a54;stroke-width:8;stroke-linecap:round;stroke-linejoin:round;stroke-miterlimit:4;stroke-dasharray:none;stroke-opacity:1"/><path id="path831" d="M56 92c12-4 40-60 40-60s28 56 40 60c-12 4-40 64-40 64S68 96 56 92z" style="fill:#54688c"/><path id="path833" d="m72 92 12-4 12-28 12 28 12 4-12 4-12 32-12-32z" style="fill:#4a4a4a"/><path id="path835" d="m88 92 8-20 8 20-8 20z" style="fill:#54688c"/><path id="path837" d="m96 60-7.22-16.373-3.458 3.661 9.661 21.56z" style="fill:#4a4a4a"/><path id="path837-1" d="m96 128 7.22 16.373 3.458-3.661-9.661-21.56z" style="fill:#4a4a4a"/></svg>