<?xml version="1.0" encoding="UTF-8"?>
<svg width="192" height="192" version="1.1" viewBox="0 0 192 192" xmlns="http://www.w3.org/2000/svg" xmlns:cc="http://creativecommons.org/ns#" xmlns:dc="http://purl.org/dc/elements/1.1/" xmlns:rdf="http://www.w3.org/1999/02/22-rdf-syntax-ns#">
 <metadata>
  <rdf:RDF>
   <cc:Work rdf:about="">
    <dc:format>image/svg+xml</dc:format>
    <dc:type rdf:resource="http://purl.org/dc/dcmitype/StillImage"/>
   </cc:Work>
  </rdf:RDF>
 </metadata>
 <path d="m123.85 172-93.917-1e-5c-5.5038 0-9.9346-4.4308-9.9346-9.9346v-132.13c0-5.5038 4.4309-9.9346 9.9346-9.9346h93.87" fill="none"/>
 <path d="m123.81 20h38.26c5.5038 0 9.9346 4.4309 9.9346 9.9346v132.13c0 5.5038-4.4308 9.9346-9.9346 9.9346l-38.213 1e-5" fill="#ff837d"/>
 <path d="m29.936 20c-5.5038 0-9.9355 4.4318-9.9355 9.9355v132.13c0 5.5038 4.4318 9.9356 9.9355 9.9356h93.869v-152z" fill="#56595b"/>
 <g transform="matrix(.87454 0 0 .87454 15.581 10.836)" stroke-width="1.1435" aria-label="A">
  <path d="m144.39 157.8 24.41-0.84268-28.913-120-28.323 0.08035-56.665 120.34h30.298l10.338-22.6 41.879-0.42301zm-41.017-45.023 20.436-48.439 9.9676 48.02z" fill="#fff" stroke-width="1.1435"/>
 </g>
</svg>
