<svg xmlns="http://www.w3.org/2000/svg" width="192" height="192" fill="none"><g clip-path="url(#a)"><g clip-path="url(#b)"><path fill="#73ADA4" fill-rule="evenodd" d="M172 30v133c0 1.89-.52 3.65-1.43 5.16A9.97 9.97 0 0 1 162 173H29c-5.53 0-10-4.48-10-10V30c0-5.52 4.48-10 10-10h133c2.3 0 4.42.78 6.11 2.09.32.25.63.51.92.8A9.98 9.98 0 0 1 172 30Z" clip-rule="evenodd"/><path fill="#FCECDC" d="M130.85 80.19a66.63 66.63 0 0 0-5.1-15.47c.24 2.67.3 5.71 0 9.05-.19 2.03-.61 5.4-1.77 9.43-.85 2.98-1.86 5.48-2.76 7.44.7-2.34 1.47-5.47 1.98-9.21.92-6.83.45-12.02.32-13.24-.27-2.75-.85-6.38-2.13-10.53-1.92 6.26-4.79 13.8-9.14 21.88-4.7 8.75-9.83 15.71-14.31 20.98.21-.87.42-1.8.57-2.8.43-2.65.46-5.05.33-7.07-.16 1.23-.6 3.43-2.06 5.75a14.27 14.27 0 0 1-4.11 4.28c.77-1.28 1.5-2.68 2.14-4.19 4.43-10.37 2.8-20.6 1.23-26.49a73.406 73.406 0 0 0-3.87 10.61 73.528 73.528 0 0 0-2.38 12.91c-.2-2.02-.39-4.05-.58-6.09-2.03-10.96-4.06-21.93-6.09-32.9a170.02 170.02 0 0 1-4.36 8.97C74.33 72 69.52 79.41 64.8 85.78c-.02 1.45.01 3.39.21 5.7.05.6.12 1.22.2 1.87.11.88.22 1.78.35 2.69.6 4.42 1.59 9.19 4.5 13.76 1.42 2.24 4.9 6.93 12.01 10.29-1.26.15-3.1.21-5.21-.33-4.05-1.03-6.5-3.6-7.45-4.71.03.77.13 1.84.42 3.12a16.202 16.202 0 0 0 1.58 4.16 32.6 32.6 0 0 0 5.94 8.07c.2.19.38.37.58.55.31.29.62.58.94.85 6.91 6.01 14.88 7.82 19.21 8.47 1.86-.35 3.98-.87 6.25-1.65 2.16-.75 4.45-1.74 6.8-3.06 2.06-1.16 3.91-2.43 5.59-3.78 2.43-1.96 4.5-4.05 6.24-6.15-4.71 1.03-8.77-.09-9.64-.35 1.39.13 3.61.14 5.92-.91 2.76-1.24 4.46-3.44 6.33-6.83 2.09-3.77 4.53-8.3 5.84-15.71 1.73-9.72.27-17.45-.56-21.64Z"/><path fill="#46372F" d="M85.48 93.59c-.25-.63-1.72-4.16-5.3-5.3-2.85-.91-5.34.24-7.4 1.19-3.26 1.5-5.16 3.83-6.17 5.1-.4.49-.75.99-1.05 1.45-.13-.88-.24-1.77-.35-2.69l-.12-1.1c.76-1.16 3.29-4.69 7.96-5.98 1.32-.36 5.77-1.59 9.08.93.8.61 2.26 1.98 2.96 4.17.28.9.37 1.68.39 2.23ZM130.16 99.57c-1.05.84-2.08 1.68-3.13 2.52-.06-.82-.21-2.01-.65-3.35-.51-1.53-1.44-4.33-4.17-6.03-2.3-1.43-4.63-1.3-5.1-1.27-4.27.31-6.63 3.83-6.94 4.28.05-.21.14-.54.26-.91.53-1.54 1.88-4.46 4.92-5.73 4.16-1.73 8.7.82 10.69 3.07 1.47 1.65 2.87 4.57 3.13 5.1.46.95.78 1.76.99 2.32Z"/><path fill="#fff" d="M84.62 99.1c-.39.71-1.26 2.05-2.86 3.02-.54.33-1.1.58-1.66.76-2.6.83-5.13.12-6.18-.18-.59-.17-1.12-.37-1.58-.57-.82-.37-1.43-.74-1.84-1-2.64-1.67-4.17-3.8-4.96-5.09.3-.47.65-.96 1.05-1.45.46-.59 1.11-1.39 2-2.22.78-.76 1.76-1.56 2.95-2.24.38-.22.79-.43 1.22-.64 2.07-.95 4.56-2.1 7.4-1.19 3.59 1.14 5.06 4.67 5.3 5.3.15.72.49 3.07-.84 5.5ZM127.04 102.09c-.73.84-2.11 2.2-4.22 3.13-.99.43-2.95 1.29-5.33 1.04-.45-.04-.93-.13-1.41-.27a8.854 8.854 0 0 1-4.19-2.75c-1.02-1.18-1.73-2.62-1.95-4.17a7.09 7.09 0 0 1-.07-1.36c.03-.8.17-1.48.31-1.98.14-.22.76-1.12 1.8-2.05h.01c1.17-1.03 2.88-2.07 5.13-2.24.47-.03 2.8-.16 5.1 1.27 2.74 1.69 3.66 4.5 4.17 6.03.43 1.35.59 2.53.65 3.35Z"/><path fill="#73ADA4" d="M122.65 101.06c-1.19-.46-2.6-.86-4.22-1.09-2.65-.37-5.02-.13-6.95.31-.25-2.75-.33-4.5.87-5.95 1.45-1.76 4.29-2.46 6.58-1.52 2.13.87 2.98 2.82 3.29 3.54.06.18.96 2.32.43 4.71ZM83.64 96.81c-3-1.2-7.62-2.36-12.71-1.05-.56.14-1.1.31-1.62.5v-.03c0-.24.09-3.82 3.09-5.87 3.43-2.35 7.3-.46 7.46-.38.07.03.18.09.32.17 2.31 1.3 3.13 3.62 3.13 3.62.42 1.07.45 2.11.33 3.04Z"/><path fill="#96DFD3" d="M83.64 96.81c-.21 1.5-.85 2.69-1.14 3.22-.5.94-1.2 1.73-1.2 1.73-.43.48-.86.85-1.2 1.11-2.6.83-5.13.12-6.18-.18-.59-.17-1.12-.37-1.58-.57-1.72-1.33-3.04-3.39-3.03-5.86.51-.19 1.05-.36 1.62-.5 5.1-1.31 9.71-.14 12.71 1.05ZM122.65 101.06c-.1.49-.27 1-.52 1.5-.88 1.78-2.58 3.09-4.65 3.7-.45-.04-.93-.13-1.41-.27a8.854 8.854 0 0 1-4.19-2.75c-.15-.75-.28-1.56-.37-2.45-.02-.17-.03-.34-.04-.51 1.93-.44 4.3-.68 6.95-.31 1.63.23 3.04.63 4.23 1.09Z"/><path fill="#000" d="M76.37 92.36c-1.1 0-2.1.65-2.63 1.51-.98 1.6-.34 3.95 1.26 4.87.86.49 2.14.67 3.23 0 1.44-.89 1.46-2.61 1.46-2.78-.02-1.76-1.5-3.59-3.32-3.6ZM117.17 96.23c-1.13-.05-2.09 1.01-2.49 1.89-.56 1.25-.27 2.7.56 3.64.14.16 1.35 1.51 2.74 1.11 1.43-.41 1.72-2.3 1.75-2.49.24-1.8-.94-4.09-2.56-4.15Z"/><path fill="#fff" d="M72.41 92.56c-.35.73-1.29.94-1.85.93-.72-.03-1.42-.44-1.95-1.13.78-.76 1.76-1.56 2.95-2.24.2.16.37.36.51.55.12.22.71 1.1.34 1.89ZM112.7 97.68c-.82.52-1.96.53-2.84.03.03-.8.17-1.48.31-1.98.14-.22.76-1.12 1.8-2.05h.01c.2.07.33.13.38.15.41.18 1.25.56 1.49 1.4.27.96-.41 1.98-1.15 2.45Z"/><path fill="#46372F" d="M86.61 73.26c-1.35-.2-2.83-.32-4.43-.29-4.22.09-7.73 1.22-10.17 2.27.32-.53.65-1.05.99-1.59 2.42-1.19 5.62-2.19 9.22-2.05 1.53.06 2.94.32 4.2.68.06.34.12.66.19.98ZM130.27 83.72c-1.1-1.27-2.85-3-5.31-4.56.07-.34.14-.66.19-.98 2.83 2 4.53 4.58 5.12 5.54ZM123.62 77.24c-.03.36-.05.71-.08 1.09-.44-.24-.9-.47-1.38-.69-2.37-1.1-4.55-1.63-6.26-1.9 1.09-.13 2.31-.13 3.62.09 1.52.25 2.89.76 4.1 1.41ZM92.82 123.59c1.51-.17 3.29-.26 5.26-.16 1.66.08 3.16.28 4.47.52l-9.73-.36Z"/><path fill="#46372F" d="M102.55 124.37c-.03 0-.05 0-.08-.01-1.45-.27-2.93-.44-4.41-.51-1.73-.08-3.48-.03-5.2.16a.427.427 0 0 1-.47-.38c-.03-.23.14-.44.38-.47 1.76-.2 3.56-.25 5.33-.17 1.52.07 3.04.25 4.53.53.23.04.38.26.34.5-.04.21-.22.35-.42.35Z"/><path fill="#E2C9B0" d="M104.33 138.61c-.22.82-.41 1.69-.54 2.61a21.89 21.89 0 0 0-.25 3.21c-.8.56-1.96 1.3-3.46 1.97-4 1.8-8.16 2.14-10.2 1.81-4.85-.78-9.58-7.28-11.01-16.42 6.91 6.01 14.88 7.82 19.21 8.47 1.87-.35 3.98-.87 6.25-1.65Z"/><path fill="#56595B" d="M137.56 173H29c-5.53 0-10-4.48-10-10v-35.7c4.66-3.24 9.17-5.32 9.99-5.69 0 0 4.65-2.11 11.11-3.63.46-.11.93-.21 1.4-.31 1.39-.3 2.86-.57 4.38-.77l.99-.13h.01c7.79-.91 15.57-.15 22.61 1.32.11.02.22.04.33.07h.01c.03.11.05.23.08.36l.09.37c.07.25.14.49.23.75l.06.18c.06.17.12.34.2.52.02.05.03.1.06.15l.03.09c.03.06.04.11.07.17.06.15.13.31.2.48.16.37.35.73.55 1.1a32.6 32.6 0 0 0 5.94 8.07c.2.19.38.37.58.55.31.29.62.58.94.85.04.29.09.57.14.85.04.26.09.52.14.77.07.31.13.59.2.88a31.573 31.573 0 0 0 .85 2.96c.1.29.2.58.31.86.03.07.05.13.08.2.12.3.24.59.37.89.27.65.57 1.28.88 1.87.14.25.27.5.42.74.15.27.31.53.47.78.01 0 .01.01.01.01.16.25.32.5.49.74.01 0 .01.01.02.02.16.24.33.47.51.69.16.2.32.41.48.59.14.16.27.31.42.46.11.13.22.25.34.36.13.14.26.26.4.39.16.15.33.29.49.42.09.08.2.16.29.23.21.17.43.32.64.46.13.08.25.16.37.23.02.02.03.02.03.03.14.08.28.16.42.23.05.03.1.05.14.08.13.07.25.13.38.18.15.07.31.13.46.19.09.03.18.07.27.09.08.03.14.05.22.07.1.03.2.06.3.08.16.04.31.08.48.1.23.03.48.07.77.08.87.06 1.97.03 3.2-.14.17-.02.34-.04.52-.08.17-.02.36-.05.54-.08.63-.11 1.28-.26 1.95-.44.01 0 .03-.01.03-.01.14-.03.27-.08.41-.12.15-.04.3-.09.44-.14.2-.06.39-.12.59-.2.17-.05.35-.12.53-.19a16 16 0 0 0 1.23-.51c.19-.08.37-.17.54-.25.4-.2.77-.39 1.11-.59.72-.4 1.33-.8 1.8-1.13 0-.29.01-.58.03-.88.01-.24.02-.48.04-.71.03-.52.09-1.06.18-1.61.14-.92.32-1.79.54-2.61 2.16-.75 4.45-1.74 6.8-3.06 2.06-1.16 3.91-2.43 5.59-3.78.93.46 1.84.95 2.71 1.46.6.34 1.19.7 1.77 1.07.71.43 1.39.89 2.08 1.36.77.52 1.52 1.05 2.27 1.6 1.6 1.16 2.81 2.08 3.02 2.24 2.49 1.9 7.17 6.06 8.28 7.24 5.77 6.13 1.16 24.5.71 26.23Z"/><path fill="#46372F" d="M104.72 144.35c.18-1.07.37-2.14.55-3.21.24-.1 2.26-.89 4.11.25.99.61 1.46 1.48 1.65 1.89l3.78-1.56c1.19 1.25 1.33 2.13 1.23 2.71-.22 1.4-1.9 1.73-3.13 3.7-.67 1.07-.9 2.15-.99 2.88 1.05-.74 2.54-1.6 4.44-2.22 3.42-1.11 6.41-.85 8.06-.58.15.35.39 1.03.33 1.89-.09 1.26-.77 2.11-1.01 2.39a4.85 4.85 0 0 1 5.37.99c-.33.99-.79 2.08-1.44 3.21-2.28 3.95-5.6 6.08-7.55 7.1l-14.31.66c-5.13 2.01-10.26 4.01-15.4 6.02-.63-.43-1.25-.87-1.88-1.3-.52-1.3-2.6-6.89-.11-13.11 1.62-4.04 4.39-6.39 5.76-7.4 3.52-1.44 7.03-2.88 10.54-4.31Z"/><path fill="#96DFD3" d="M104.72 142.84c-5.45-.05-10.89-.11-16.34-.16-.48.28-2.89 1.7-3.28 4.22-.48 3.03 2.11 6.62 6.52 7.63.68-.91 1.36-1.83 2.04-2.74l10.85-.27c2.09-.72 3.41-2.72 3.23-4.77-.15-1.74-1.33-3.26-3.02-3.91Z"/><path fill="#8E6F60" d="M172 154.99V163c0 1.89-.52 3.65-1.43 5.16-3.75-5.7-7.11-9.73-11.07-14.41-9.98-11.76-9.35-10.61-11.3-13.16-3.28-4.29-7.59-10.82-11.3-20.07-.52 2.88-1.41 5.07-2.08 6.47-2.58 5.37-6.43 8.47-9.27 10.27-.92.58-1.73 1.02-2.35 1.36-1.79.96-4.2 2.22-5.27 1.32-1.19-1.01-.01-4.09.11-4.39.35-.88.83-1.66 1.39-2.32 1.96-2.35 4.86-3.43 6.07-3.83-1 .84-2.41 2.16-3.73 4.05-.07.1-.3.42-.57.84-.71 1.09-1.74 2.84-1.36 3.2.36.33 1.9-.6 3.44-1.84.58-.45 1.15-.94 1.67-1.43 3.63-3.39 5.42-7.18 6.9-10.39.82-1.76 1.86-4.28 2.78-7.46-.82 1.64-2.62 4.65-6.09 6.91a16.809 16.809 0 0 1-5.58 2.32c-4.71 1.03-8.77-.09-9.64-.35 1.39.13 3.61.14 5.92-.91 2.76-1.24 4.46-3.44 6.33-6.83 2.09-3.77 4.53-8.3 5.84-15.71 1.72-9.72.25-17.44-.57-21.63a66.63 66.63 0 0 0-5.1-15.47c.24 2.67.3 5.71 0 9.05-.03.28-.05.58-.09.91-.04.42-.09.87-.17 1.36-.02.18-.04.36-.08.54-.03.18-.05.37-.08.56-.05.34-.11.69-.18 1.05-.05.31-.12.64-.19.98-.08.37-.15.75-.24 1.14l-.03.1c-.09.42-.2.87-.31 1.31-.12.48-.25.98-.4 1.48-.14.47-.27.92-.41 1.35-.08.25-.16.51-.25.76-.31.93-.63 1.8-.95 2.61-.09.24-.19.47-.28.69-.08.22-.18.44-.27.65-.2.48-.41.93-.6 1.37.14-.45.27-.93.42-1.45.36-1.33.72-2.85 1.04-4.54.06-.31.12-.64.18-.97.13-.72.25-1.48.35-2.26.07-.54.14-1.06.19-1.58.05-.43.09-.86.13-1.28.01-.08.01-.16.02-.24.03-.31.05-.62.07-.92.01-.06.02-.11.02-.17.03-.45.05-.89.08-1.33.01-.33.03-.65.03-.97.1-3.5-.12-5.97-.2-6.77-.27-2.75-.85-6.38-2.13-10.53-1.92 6.26-4.79 13.8-9.14 21.88-4.7 8.75-9.83 15.71-14.31 20.98.21-.87.42-1.8.57-2.8.42-2.65.46-5.05.33-7.07-.16 1.23-.6 3.43-2.06 5.75a14.27 14.27 0 0 1-4.11 4.28c.77-1.28 1.5-2.68 2.14-4.19 4.43-10.37 2.8-20.6 1.23-26.49a73.406 73.406 0 0 0-3.87 10.61 73.528 73.528 0 0 0-2.38 12.91c-.2-2.02-.39-4.05-.58-6.09-.88-4.72-1.75-9.44-2.62-14.16-.07-.32-.13-.65-.18-.98-1.11-5.92-2.2-11.84-3.29-17.77a170.02 170.02 0 0 1-4.36 8.97c-.47.89-.94 1.78-1.42 2.65-.2.37-.4.73-.59 1.09-.18.31-.35.63-.53.93-.28.5-.57 1-.86 1.5-.58.99-1.16 1.97-1.73 2.93-.21.36-.42.71-.64 1.05-.34.54-.67 1.06-.99 1.59-1.78 2.82-3.58 5.49-5.38 8.01-.37.52-.74 1.04-1.12 1.55-.23.33-.48.66-.71.99-.01.89-.01 1.97.04 3.21.03.52.06 1.06.1 1.63.02.27.04.56.07.85.05.6.12 1.22.2 1.87.11.88.22 1.78.35 2.69.6 4.42 1.59 9.19 4.5 13.76 1.42 2.24 4.9 6.93 12.01 10.29-1.26.15-3.1.21-5.21-.33-4.05-1.03-6.5-3.6-7.45-4.71.01.07.01.14.01.21v.05c0 .01.01.02.01.03v.08c0 .02.01.04.01.06 0 .03 0 .07.01.11 0 .04 0 .09.01.14v.07c.02.13.03.26.04.41.01.03.01.05.01.08.03.17.05.36.08.54.03.27.08.55.14.85 0 .01 0 .02.01.03.03.15.06.31.09.47h.01c.03.11.05.23.09.36l.09.37c.07.25.14.49.23.75l.06.18c.06.17.12.34.2.52.02.05.03.1.06.15l.03.09c.03.06.04.11.07.17.06.15.13.31.2.48.16.37.35.73.55 1.11a32.6 32.6 0 0 0 5.94 8.07c.2.19.38.37.58.55.03.78.09 1.59.19 2.41 1.18 9.65 6.7 16.81 11.03 21.15.84.85 1.64 1.59 2.35 2.22.18.7.37 1.39.54 2.08 3.15 2.45 6.3 4.9 9.44 7.34 2.94 2.29 5.88 4.57 8.82 6.86h-8.19c-1.93-1.58-3.87-3.19-5.81-4.84a535.37 535.37 0 0 1-8.98-7.74c-1.32-1.15-2.64-2.31-3.95-3.49-4.58-4.11-8.13-7.17-12.43-11.44-4.95-4.92-8.47-8.9-9.62-10.2-6.88-7.82-11.18-12.72-14.46-18.52h-.01c-.25-.45-.5-.91-.75-1.38-2.57-4.89-6.15-13.66-6.17-26.57-.65 2.52-1.18 5.41-1.4 8.64-.57 8.3 1.16 15.31 2.95 20.21.28.77.56 1.5.84 2.16-.46-.28-1.16-.76-1.9-1.48a6.12 6.12 0 0 1-.35-.37c-2.71-2.93-3.15-6.77-3.32-8.76-1.83-20.29-.11-30.38-.11-30.38 2.45-14.38 3.78-22.21 9.38-31.48 6.32-10.47 14.68-17.12 21.14-21.14l.3-6.22H99.9c6.81 1.47 10.03 2.86 11.95 3.76 1.87.88 3.55 1.8 5.04 2.7 2.05 1.22 3.71 2.41 5 3.38 1.85.24 3.43.09 4.68-.16 5.86-1.22 9.56-6.04 11.59-9.68H162c2.3 0 4.42.78 6.11 2.09.32.25.63.51.92.8a125.01 125.01 0 0 1-8 6.21c-3.23 2.31-4.87 3.24-6.95 3.93-5.16 1.72-7.04.01-11.48 1.91-.49.21-6.66 2.92-6.9 7.32-.1 1.64.59 3.01 1.15 3.87 3.27 5.64 5.72 10.64 7.49 14.56 2.86 6.36 5.97 13.35 7.97 22.62.72 3.32 1.14 7.4 1.98 15.55 1.7 16.58 1.05 17.86 2.47 25.99 1.62 9.32 2.57 14.77 6.42 20.73 2.63 4.13 5.81 7.19 8.82 9.44Z"/><path fill="#96DFD3" d="M90.96 173H51.94a30.18 30.18 0 0 0-4.14-2.63c-4.64-2.45-6.57-1.97-13.22-4.88-5.1-2.23-8.69-3.8-11.79-7.02-.91-.94-2.45-2.72-3.79-5.54v-11.68c2.37-1.32 5.13-2.6 8.29-3.65 12.16-4.01 22.97-2.13 28.46-.74a425 425 0 0 1 9.62 9.14c9.27 9.04 17.78 18.08 25.59 27Z"/><path fill="#D3B69A" d="M168.12 22.09c-1.02.9-1.98 1.71-2.86 2.41-5.9 4.73-8.85 7.09-13.41 7.85-2.39.39-4.03.16-7.59 1.1-3.09.8-5.48 1.92-7.02 2.74 3.11-3.67 6.5-8.24 9.71-13.76.48-.82.93-1.62 1.35-2.41H162a9.83 9.83 0 0 1 6.12 2.07Z"/><path fill="#46372F" d="M132.3 43.75c3.58 6.25 10.49 20.29 10.31 39.26-.15 15.36-4.88 27.1-7.97 33.37a91.372 91.372 0 0 0 6.43-33.37c.05-17.99-5.26-31.82-8.77-39.26ZM64.8 85.78c-.47-1.74-.9-3.6-1.24-5.57-1.27-7.21-1.08-13.68-.41-18.91-.8 2.86-1.69 7.39-1.23 12.91.4 5 1.75 8.96 2.88 11.57Z"/><path fill="#46372F" d="M69.23 35.19c-3.17 2.63-16.37 14.21-18.65 33.78-3.11 26.83 17.09 44.6 18.83 46.07a49.34 49.34 0 0 1-5.77-5.15c-9.99-10.52-18.67-29.38-13.16-48.7 4.13-14.49 14.43-22.87 18.75-26Z"/><path fill="#46372F" d="M49.72 82.98c.41 6.1 1.26 12.9 2.85 20.21 3.45 15.9 9.18 28.76 14.43 38.24a119.083 119.083 0 0 1-14.43-33.42 119.206 119.206 0 0 1-3.77-32.78"/><path fill="#46372F" d="M77.95 148.71c4.92 3.94 9.68 7.28 14.1 10.09-4.4-2.25-9.58-5.33-14.98-9.54a92.417 92.417 0 0 1-11.76-10.94c-.31-.6-.62-1.2-.92-1.8 3.86 3.89 8.36 8.03 13.56 12.19ZM96.05 69.99c.72-2.03 1.75-4.32 3.25-6.68 4.49-7.11 10.64-10.87 14.23-12.67a64.744 64.744 0 0 0-12.16 11.64c-2.16 2.69-3.9 5.3-5.32 7.71Z"/><path fill="#46372F" d="M96.05 69.99c1.16-1.91 2.49-4.54 3.49-7.83 1.07-3.52 1.41-6.64 1.48-8.97-.69 2.83-1.48 5.77-2.39 8.8-.82 2.79-1.69 5.46-2.58 8ZM64.8 85.78c1.58-3.3 3.15-6.68 4.71-10.12 3.21-7.09 6.16-14.04 8.88-20.84-1.05 3.99-2.45 8.39-4.33 13.05-2.87 7.11-6.16 13.08-9.26 17.91ZM89.91 45.23c-.26 2.52-.37 5.72.05 9.38.5 4.27 1.57 7.8 2.58 10.42.18-1.45.4-2.93.66-4.44 1.35-7.8 3.55-14.72 6.03-20.67-1.74 2.72-3.8 6.59-5.26 11.52a45.664 45.664 0 0 0-1.81 10.25c-.45-1.98-.86-4.09-1.21-6.31a94.77 94.77 0 0 1-1.04-10.15ZM144.99 109.09c1.6 10.87 5.67 23.53 15.51 33.52.68.69 1.37 1.35 2.07 1.98a38.643 38.643 0 0 1-6.72-5.85c-9.76-10.72-10.78-24.1-10.86-29.65Z"/></g></g><defs><clipPath id="a"><path fill="#fff" d="M0 0h192v192H0z"/></clipPath><clipPath id="b"><path fill="#fff" d="M19 20h153v153H19z"/></clipPath></defs></svg>