<svg width="192" height="192" viewBox="0 0 192 192" fill="none" xmlns="http://www.w3.org/2000/svg">
<g clip-path="url(#clip0)">
<g clip-path="url(#clip1)">
<path fill-rule="evenodd" clip-rule="evenodd" d="M172 30V163C172 164.89 171.48 166.65 170.57 168.16C168.82 171.07 165.64 173 162 173H29C23.47 173 19 168.52 19 163V30C19 24.48 23.48 20 29 20H162C164.3 20 166.42 20.78 168.11 22.09C168.43 22.34 168.74 22.6 169.03 22.89C170.86 24.7 172 27.22 172 30Z" fill="#73ADA4"/>
<path d="M130.85 80.19C129.55 73.64 127.48 68.38 125.75 64.72C125.99 67.39 126.05 70.43 125.75 73.77C125.56 75.8 125.14 79.17 123.98 83.2C123.13 86.18 122.12 88.68 121.22 90.64C121.92 88.3 122.69 85.17 123.2 81.43C124.12 74.6 123.65 69.41 123.52 68.19C123.25 65.44 122.67 61.81 121.39 57.66C119.47 63.92 116.6 71.46 112.25 79.54C107.55 88.29 102.42 95.25 97.94 100.52C98.15 99.65 98.36 98.72 98.51 97.72C98.94 95.07 98.97 92.67 98.84 90.65C98.68 91.88 98.24 94.08 96.78 96.4C95.39 98.64 93.69 99.99 92.67 100.68C93.44 99.4 94.17 98 94.81 96.49C99.24 86.12 97.61 75.89 96.04 70C94.69 72.97 93.31 76.53 92.17 80.61C90.83 85.44 90.13 89.82 89.79 93.52C89.59 91.5 89.4 89.47 89.21 87.43C87.18 76.47 85.15 65.5 83.12 54.53C81.8 57.45 80.36 60.45 78.76 63.5C74.33 72 69.52 79.41 64.8 85.78C64.78 87.23 64.81 89.17 65.01 91.48C65.06 92.08 65.13 92.7 65.21 93.35C65.32 94.23 65.43 95.13 65.56 96.04C66.16 100.46 67.15 105.23 70.06 109.8C71.48 112.04 74.96 116.73 82.07 120.09C80.81 120.24 78.97 120.3 76.86 119.76C72.81 118.73 70.36 116.16 69.41 115.05C69.44 115.82 69.54 116.89 69.83 118.17C70.04 119.1 70.37 120.14 70.86 121.23C71.02 121.6 71.21 121.96 71.41 122.33C72.79 124.96 74.67 127.74 77.35 130.4C77.55 130.59 77.73 130.77 77.93 130.95C78.24 131.24 78.55 131.53 78.87 131.8C85.78 137.81 93.75 139.62 98.08 140.27C99.94 139.92 102.06 139.4 104.33 138.62C106.49 137.87 108.78 136.88 111.13 135.56C113.19 134.4 115.04 133.13 116.72 131.78C119.15 129.82 121.22 127.73 122.96 125.63C118.25 126.66 114.19 125.54 113.32 125.28C114.71 125.41 116.93 125.42 119.24 124.37C122 123.13 123.7 120.93 125.57 117.54C127.66 113.77 130.1 109.24 131.41 101.83C133.14 92.11 131.68 84.38 130.85 80.19Z" fill="#FCECDC"/>
<path d="M85.4801 93.5899C85.2301 92.9599 83.7601 89.4299 80.1801 88.2899C77.3301 87.3799 74.8401 88.5299 72.7801 89.4799C69.5201 90.9799 67.6201 93.3099 66.6101 94.5799C66.2101 95.0699 65.8601 95.5699 65.5601 96.0299C65.4301 95.1499 65.3201 94.2599 65.2101 93.3399C65.1701 92.9699 65.1301 92.6099 65.0901 92.2399C65.8501 91.0799 68.3801 87.5499 73.0501 86.2599C74.3701 85.8999 78.8201 84.6699 82.1301 87.1899C82.9301 87.7999 84.3901 89.1699 85.0901 91.3599C85.3701 92.2599 85.4601 93.0399 85.4801 93.5899Z" fill="#46372F"/>
<path d="M130.16 99.57C129.11 100.41 128.08 101.25 127.03 102.09C126.97 101.27 126.82 100.08 126.38 98.74C125.87 97.21 124.94 94.41 122.21 92.71C119.91 91.28 117.58 91.41 117.11 91.44C112.84 91.75 110.48 95.27 110.17 95.72C110.22 95.51 110.31 95.18 110.43 94.81C110.96 93.27 112.31 90.35 115.35 89.08C119.51 87.35 124.05 89.9 126.04 92.15C127.51 93.8 128.91 96.72 129.17 97.25C129.63 98.2 129.95 99.01 130.16 99.57Z" fill="#46372F"/>
<path d="M84.62 99.1C84.23 99.81 83.36 101.15 81.76 102.12C81.22 102.45 80.66 102.7 80.1 102.88C77.5 103.71 74.97 103 73.92 102.7C73.33 102.53 72.8 102.33 72.34 102.13C71.52 101.76 70.91 101.39 70.5 101.13C67.86 99.46 66.33 97.3301 65.54 96.0401C65.84 95.5701 66.19 95.08 66.59 94.59C67.05 94 67.7 93.2001 68.59 92.3701C69.37 91.6101 70.35 90.81 71.54 90.13C71.92 89.91 72.33 89.7 72.76 89.49C74.83 88.54 77.32 87.3901 80.16 88.3001C83.75 89.4401 85.22 92.97 85.46 93.6C85.61 94.32 85.95 96.67 84.62 99.1Z" fill="white"/>
<path d="M127.04 102.09C126.31 102.93 124.93 104.29 122.82 105.22C121.83 105.65 119.87 106.51 117.49 106.26C117.04 106.22 116.56 106.13 116.08 105.99C114.47 105.51 112.99 104.54 111.89 103.24C110.87 102.06 110.16 100.62 109.94 99.07C109.87 98.59 109.85 98.14 109.87 97.71C109.9 96.91 110.04 96.23 110.18 95.73C110.32 95.51 110.94 94.61 111.98 93.68H111.99C113.16 92.65 114.87 91.61 117.12 91.44C117.59 91.41 119.92 91.28 122.22 92.71C124.96 94.4 125.88 97.21 126.39 98.74C126.82 100.09 126.98 101.27 127.04 102.09Z" fill="white"/>
<path d="M122.65 101.06C121.46 100.6 120.05 100.2 118.43 99.97C115.78 99.6 113.41 99.84 111.48 100.28C111.23 97.53 111.15 95.78 112.35 94.33C113.8 92.57 116.64 91.87 118.93 92.81C121.06 93.68 121.91 95.63 122.22 96.35C122.28 96.53 123.18 98.67 122.65 101.06Z" fill="#73ADA4"/>
<path d="M83.6401 96.81C80.6401 95.61 76.0201 94.45 70.9301 95.76C70.3701 95.9 69.8301 96.07 69.3101 96.26V96.23C69.3101 95.99 69.4001 92.41 72.4001 90.36C75.8301 88.01 79.7001 89.9 79.8601 89.98C79.9301 90.01 80.0401 90.07 80.1801 90.15C82.4901 91.45 83.3101 93.77 83.3101 93.77C83.7301 94.84 83.7601 95.88 83.6401 96.81Z" fill="#73ADA4"/>
<path d="M83.6401 96.81C83.4301 98.31 82.7901 99.5 82.5001 100.03C82.0001 100.97 81.3001 101.76 81.3001 101.76C80.8701 102.24 80.4401 102.61 80.1001 102.87C77.5001 103.7 74.9701 102.99 73.9201 102.69C73.3301 102.52 72.8001 102.32 72.3401 102.12C70.6201 100.79 69.3001 98.73 69.3101 96.26C69.8201 96.07 70.3601 95.9 70.9301 95.76C76.0301 94.45 80.6401 95.62 83.6401 96.81Z" fill="#96DFD3"/>
<path d="M122.65 101.06C122.55 101.55 122.38 102.06 122.13 102.56C121.25 104.34 119.55 105.65 117.48 106.26C117.03 106.22 116.55 106.13 116.07 105.99C114.46 105.51 112.98 104.54 111.88 103.24C111.73 102.49 111.6 101.68 111.51 100.79C111.49 100.62 111.48 100.45 111.47 100.28C113.4 99.8401 115.77 99.6001 118.42 99.9701C120.05 100.2 121.46 100.6 122.65 101.06Z" fill="#96DFD3"/>
<path d="M76.37 92.36C75.27 92.36 74.27 93.01 73.74 93.87C72.76 95.47 73.4 97.82 75 98.74C75.86 99.23 77.14 99.41 78.23 98.74C79.67 97.85 79.69 96.13 79.69 95.96C79.67 94.2 78.19 92.37 76.37 92.36Z" fill="black"/>
<path d="M117.17 96.23C116.04 96.18 115.08 97.24 114.68 98.12C114.12 99.37 114.41 100.82 115.24 101.76C115.38 101.92 116.59 103.27 117.98 102.87C119.41 102.46 119.7 100.57 119.73 100.38C119.97 98.58 118.79 96.29 117.17 96.23Z" fill="black"/>
<path d="M72.4101 92.56C72.0601 93.29 71.1201 93.5 70.5601 93.49C69.8401 93.46 69.1401 93.05 68.6101 92.36C69.3901 91.6 70.3701 90.8 71.5601 90.12C71.7601 90.28 71.9301 90.48 72.0701 90.67C72.1901 90.89 72.7801 91.77 72.4101 92.56Z" fill="white"/>
<path d="M112.7 97.6801C111.88 98.2001 110.74 98.2101 109.86 97.7101C109.89 96.9101 110.03 96.2301 110.17 95.7301C110.31 95.5101 110.93 94.6101 111.97 93.6801H111.98C112.18 93.7501 112.31 93.8101 112.36 93.8301C112.77 94.0101 113.61 94.3901 113.85 95.2301C114.12 96.1901 113.44 97.2101 112.7 97.6801Z" fill="white"/>
<path d="M86.61 73.26C85.26 73.06 83.78 72.94 82.18 72.97C77.96 73.06 74.45 74.19 72.01 75.24C72.33 74.71 72.66 74.19 73 73.65C75.42 72.46 78.62 71.46 82.22 71.6C83.75 71.66 85.16 71.92 86.42 72.28C86.48 72.62 86.54 72.94 86.61 73.26Z" fill="#46372F"/>
<path d="M130.27 83.7201C129.17 82.4501 127.42 80.7201 124.96 79.1601C125.03 78.8201 125.1 78.5001 125.15 78.1801C127.98 80.1801 129.68 82.7601 130.27 83.7201Z" fill="#46372F"/>
<path d="M123.62 77.2401C123.59 77.6001 123.57 77.9501 123.54 78.3301C123.1 78.0901 122.64 77.8601 122.16 77.6401C119.79 76.5401 117.61 76.0101 115.9 75.7401C116.99 75.6101 118.21 75.6101 119.52 75.8301C121.04 76.0801 122.41 76.5901 123.62 77.2401Z" fill="#46372F"/>
<path d="M92.8198 123.59C94.3298 123.42 96.1098 123.33 98.0798 123.43C99.7398 123.51 101.24 123.71 102.55 123.95L92.8198 123.59Z" fill="#46372F"/>
<path d="M102.55 124.37C102.52 124.37 102.5 124.37 102.47 124.36C101.02 124.09 99.5399 123.92 98.0599 123.85C96.3299 123.77 94.5799 123.82 92.8599 124.01C92.6199 124.03 92.4199 123.87 92.3899 123.63C92.3599 123.4 92.5299 123.19 92.7699 123.16C94.5299 122.96 96.3299 122.91 98.0999 122.99C99.6199 123.06 101.14 123.24 102.63 123.52C102.86 123.56 103.01 123.78 102.97 124.02C102.93 124.23 102.75 124.37 102.55 124.37Z" fill="#46372F"/>
<path d="M104.33 138.61C104.11 139.43 103.92 140.3 103.79 141.22C103.62 142.36 103.54 143.44 103.54 144.43C102.74 144.99 101.58 145.73 100.08 146.4C96.0801 148.2 91.9201 148.54 89.8801 148.21C85.0301 147.43 80.3001 140.93 78.8701 131.79C85.7801 137.8 93.7501 139.61 98.0801 140.26C99.9501 139.91 102.06 139.39 104.33 138.61Z" fill="#E2C9B0"/>
<path d="M137.56 173H29C23.47 173 19 168.52 19 163V127.3C23.66 124.06 28.17 121.98 28.99 121.61C28.99 121.61 33.64 119.5 40.1 117.98C40.56 117.87 41.03 117.77 41.5 117.67C42.89 117.37 44.36 117.1 45.88 116.9L46.87 116.77H46.88C54.67 115.86 62.45 116.62 69.49 118.09C69.6 118.11 69.71 118.13 69.82 118.16H69.83C69.86 118.27 69.88 118.39 69.91 118.52C69.94 118.64 69.97 118.77 70 118.89C70.07 119.14 70.14 119.38 70.23 119.64C70.25 119.7 70.27 119.76 70.29 119.82C70.35 119.99 70.41 120.16 70.49 120.34C70.51 120.39 70.52 120.44 70.55 120.49C70.56 120.52 70.57 120.55 70.58 120.58C70.61 120.64 70.62 120.69 70.65 120.75C70.71 120.9 70.78 121.06 70.85 121.23C71.01 121.6 71.2 121.96 71.4 122.33C72.78 124.96 74.66 127.74 77.34 130.4C77.54 130.59 77.72 130.77 77.92 130.95C78.23 131.24 78.54 131.53 78.86 131.8C78.9 132.09 78.95 132.37 79 132.65C79.04 132.91 79.09 133.17 79.14 133.42C79.21 133.73 79.27 134.01 79.34 134.3C79.41 134.6 79.48 134.89 79.56 135.18C79.75 135.89 79.96 136.59 80.19 137.26C80.29 137.55 80.39 137.84 80.5 138.12C80.53 138.19 80.55 138.25 80.58 138.32C80.7 138.62 80.82 138.91 80.95 139.21C81.22 139.86 81.52 140.49 81.83 141.08C81.97 141.33 82.1 141.58 82.25 141.82C82.4 142.09 82.56 142.35 82.72 142.6C82.73 142.6 82.73 142.61 82.73 142.61C82.89 142.86 83.05 143.11 83.22 143.35C83.23 143.35 83.23 143.36 83.24 143.37C83.4 143.61 83.57 143.84 83.75 144.06C83.91 144.26 84.07 144.47 84.23 144.65C84.37 144.81 84.5 144.96 84.65 145.11C84.76 145.24 84.87 145.36 84.99 145.47C85.12 145.61 85.25 145.73 85.39 145.86C85.55 146.01 85.72 146.15 85.88 146.28C85.97 146.36 86.08 146.44 86.17 146.51C86.38 146.68 86.6 146.83 86.81 146.97C86.94 147.05 87.06 147.13 87.18 147.2C87.2 147.22 87.21 147.22 87.21 147.23C87.35 147.31 87.49 147.39 87.63 147.46C87.68 147.49 87.73 147.51 87.77 147.54C87.9 147.61 88.02 147.67 88.15 147.72C88.3 147.79 88.46 147.85 88.61 147.91C88.7 147.94 88.79 147.98 88.88 148C88.96 148.03 89.02 148.05 89.1 148.07C89.2 148.1 89.3 148.13 89.4 148.15C89.56 148.19 89.71 148.23 89.88 148.25C90.11 148.28 90.36 148.32 90.65 148.33C91.52 148.39 92.62 148.36 93.85 148.19C94.02 148.17 94.19 148.15 94.37 148.11C94.54 148.09 94.73 148.06 94.91 148.03C95.54 147.92 96.19 147.77 96.86 147.59C96.87 147.59 96.89 147.58 96.89 147.58C97.03 147.55 97.16 147.5 97.3 147.46C97.45 147.42 97.6 147.37 97.74 147.32C97.94 147.26 98.13 147.2 98.33 147.12C98.5 147.07 98.68 147 98.86 146.93C99.27 146.78 99.68 146.61 100.09 146.42C100.28 146.34 100.46 146.25 100.63 146.17C101.03 145.97 101.4 145.78 101.74 145.58C102.46 145.18 103.07 144.78 103.54 144.45C103.54 144.16 103.55 143.87 103.57 143.57C103.58 143.33 103.59 143.09 103.61 142.86C103.64 142.34 103.7 141.8 103.79 141.25C103.93 140.33 104.11 139.46 104.33 138.64C106.49 137.89 108.78 136.9 111.13 135.58C113.19 134.42 115.04 133.15 116.72 131.8C117.65 132.26 118.56 132.75 119.43 133.26C120.03 133.6 120.62 133.96 121.2 134.33C121.91 134.76 122.59 135.22 123.28 135.69C124.05 136.21 124.8 136.74 125.55 137.29C127.15 138.45 128.36 139.37 128.57 139.53C131.06 141.43 135.74 145.59 136.85 146.77C142.62 152.9 138.01 171.27 137.56 173Z" fill="#56595B"/>
<path d="M104.72 144.35C104.9 143.28 105.09 142.21 105.27 141.14C105.51 141.04 107.53 140.25 109.38 141.39C110.37 142 110.84 142.87 111.03 143.28C112.29 142.76 113.55 142.24 114.81 141.72C116 142.97 116.14 143.85 116.04 144.43C115.82 145.83 114.14 146.16 112.91 148.13C112.24 149.2 112.01 150.28 111.92 151.01C112.97 150.27 114.46 149.41 116.36 148.79C119.78 147.68 122.77 147.94 124.42 148.21C124.57 148.56 124.81 149.24 124.75 150.1C124.66 151.36 123.98 152.21 123.74 152.49C124.13 152.32 125.21 151.9 126.59 152.16C127.95 152.41 128.81 153.18 129.11 153.48C128.78 154.47 128.32 155.56 127.67 156.69C125.39 160.64 122.07 162.77 120.12 163.79C115.35 164.01 110.58 164.23 105.81 164.45C100.68 166.46 95.5501 168.46 90.4101 170.47C89.7801 170.04 89.1601 169.6 88.5301 169.17C88.0101 167.87 85.9301 162.28 88.4201 156.06C90.0401 152.02 92.8101 149.67 94.1801 148.66C97.7001 147.22 101.21 145.78 104.72 144.35Z" fill="#46372F"/>
<path d="M104.72 142.84C99.2701 142.79 93.8301 142.73 88.3801 142.68C87.9001 142.96 85.4901 144.38 85.1001 146.9C84.6201 149.93 87.2101 153.52 91.6201 154.53C92.3001 153.62 92.9801 152.7 93.6601 151.79C97.2801 151.7 100.89 151.61 104.51 151.52C106.6 150.8 107.92 148.8 107.74 146.75C107.59 145.01 106.41 143.49 104.72 142.84Z" fill="#96DFD3"/>
<path d="M172 154.99V163C172 164.89 171.48 166.65 170.57 168.16C166.82 162.46 163.46 158.43 159.5 153.75C149.52 141.99 150.15 143.14 148.2 140.59C144.92 136.3 140.61 129.77 136.9 120.52C136.38 123.4 135.49 125.59 134.82 126.99C132.24 132.36 128.39 135.46 125.55 137.26C124.63 137.84 123.82 138.28 123.2 138.62C121.41 139.58 119 140.84 117.93 139.94C116.74 138.93 117.92 135.85 118.04 135.55C118.39 134.67 118.87 133.89 119.43 133.23C121.39 130.88 124.29 129.8 125.5 129.4C124.5 130.24 123.09 131.56 121.77 133.45C121.7 133.55 121.47 133.87 121.2 134.29C120.49 135.38 119.46 137.13 119.84 137.49C120.2 137.82 121.74 136.89 123.28 135.65C123.86 135.2 124.43 134.71 124.95 134.22C128.58 130.83 130.37 127.04 131.85 123.83C132.67 122.07 133.71 119.55 134.63 116.37C133.81 118.01 132.01 121.02 128.54 123.28C126.68 124.49 124.77 125.2 122.96 125.6C118.25 126.63 114.19 125.51 113.32 125.25C114.71 125.38 116.93 125.39 119.24 124.34C122 123.1 123.7 120.9 125.57 117.51C127.66 113.74 130.1 109.21 131.41 101.8C133.13 92.08 131.66 84.36 130.84 80.17C129.54 73.62 127.47 68.36 125.74 64.7C125.98 67.37 126.04 70.41 125.74 73.75C125.71 74.03 125.69 74.33 125.65 74.66C125.61 75.08 125.56 75.53 125.48 76.02C125.46 76.2 125.44 76.38 125.4 76.56C125.37 76.74 125.35 76.93 125.32 77.12C125.27 77.46 125.21 77.81 125.14 78.17C125.09 78.48 125.02 78.81 124.95 79.15C124.87 79.52 124.8 79.9 124.71 80.29C124.7 80.32 124.69 80.36 124.68 80.39C124.59 80.81 124.48 81.26 124.37 81.7C124.25 82.18 124.12 82.68 123.97 83.18C123.83 83.65 123.7 84.1 123.56 84.53C123.48 84.78 123.4 85.04 123.31 85.29C123 86.22 122.68 87.09 122.36 87.9C122.27 88.14 122.17 88.37 122.08 88.59C122 88.81 121.9 89.03 121.81 89.24C121.61 89.72 121.4 90.17 121.21 90.61C121.35 90.16 121.48 89.68 121.63 89.16C121.99 87.83 122.35 86.31 122.67 84.62C122.73 84.31 122.79 83.98 122.85 83.65C122.98 82.93 123.1 82.17 123.2 81.39C123.27 80.85 123.34 80.33 123.39 79.81C123.44 79.38 123.48 78.95 123.52 78.53C123.53 78.45 123.53 78.37 123.54 78.29C123.57 77.98 123.59 77.67 123.61 77.37C123.62 77.31 123.63 77.26 123.63 77.2C123.66 76.75 123.68 76.31 123.71 75.87C123.72 75.54 123.74 75.22 123.74 74.9C123.84 71.4 123.62 68.93 123.54 68.13C123.27 65.38 122.69 61.75 121.41 57.6C119.49 63.86 116.62 71.4 112.27 79.48C107.57 88.23 102.44 95.19 97.9601 100.46C98.1701 99.59 98.3801 98.66 98.5301 97.66C98.9501 95.01 98.9901 92.61 98.8601 90.59C98.7001 91.82 98.2601 94.02 96.8001 96.34C95.4101 98.58 93.7101 99.93 92.6901 100.62C93.4601 99.34 94.1901 97.94 94.8301 96.43C99.2601 86.06 97.6301 75.83 96.0601 69.94C94.7101 72.91 93.3301 76.47 92.1901 80.55C90.8501 85.38 90.1501 89.76 89.8101 93.46C89.6101 91.44 89.4201 89.41 89.2301 87.37C88.3501 82.65 87.4801 77.93 86.6101 73.21C86.5401 72.89 86.4801 72.56 86.4301 72.23C85.3201 66.31 84.2301 60.39 83.1401 54.46C81.8201 57.38 80.3801 60.38 78.7801 63.43C78.3101 64.32 77.8401 65.21 77.3601 66.08C77.1601 66.45 76.9601 66.81 76.7701 67.17C76.5901 67.48 76.4201 67.8 76.2401 68.1C75.9601 68.6 75.6701 69.1 75.3801 69.6C74.8001 70.59 74.2201 71.57 73.6501 72.53C73.4401 72.89 73.2301 73.24 73.0101 73.58C72.6701 74.12 72.3401 74.64 72.0201 75.17C70.2401 77.99 68.4401 80.66 66.6401 83.18C66.2701 83.7 65.9001 84.22 65.5201 84.73C65.2901 85.06 65.0401 85.39 64.8101 85.72C64.8001 86.61 64.8001 87.69 64.8501 88.93C64.8801 89.45 64.9101 89.99 64.9501 90.56C64.9701 90.83 64.9901 91.12 65.0201 91.41C65.0701 92.01 65.1401 92.63 65.2201 93.28C65.3301 94.16 65.4401 95.06 65.5701 95.97C66.1701 100.39 67.1601 105.16 70.0701 109.73C71.4901 111.97 74.9701 116.66 82.0801 120.02C80.8201 120.17 78.9801 120.23 76.8701 119.69C72.8201 118.66 70.3701 116.09 69.4201 114.98C69.4301 115.05 69.4301 115.12 69.4301 115.19V115.24C69.4301 115.25 69.4401 115.26 69.4401 115.27V115.35C69.4401 115.37 69.4501 115.39 69.4501 115.41C69.4501 115.44 69.4501 115.48 69.4601 115.52C69.4601 115.56 69.4601 115.61 69.4701 115.66V115.73C69.4901 115.86 69.5001 115.99 69.5101 116.14C69.5201 116.17 69.5201 116.19 69.5201 116.22C69.5501 116.39 69.5701 116.58 69.6001 116.76C69.6301 117.03 69.6801 117.31 69.7401 117.61C69.7401 117.62 69.7401 117.63 69.7501 117.64C69.7801 117.79 69.8101 117.95 69.8401 118.11H69.8501C69.8801 118.22 69.9001 118.34 69.9401 118.47C69.9701 118.59 70.0001 118.72 70.0301 118.84C70.1001 119.09 70.1701 119.33 70.2601 119.59C70.2801 119.65 70.3001 119.71 70.3201 119.77C70.3801 119.94 70.4401 120.11 70.5201 120.29C70.5401 120.34 70.5501 120.39 70.5801 120.44C70.5901 120.47 70.6001 120.5 70.6101 120.53C70.6401 120.59 70.6501 120.64 70.6801 120.7C70.7401 120.85 70.8101 121.01 70.8801 121.18C71.0401 121.55 71.2301 121.91 71.4301 122.29C72.8101 124.92 74.6901 127.7 77.3701 130.36C77.5701 130.55 77.7501 130.73 77.9501 130.91C77.9801 131.69 78.0401 132.5 78.1401 133.32C79.3201 142.97 84.8401 150.13 89.1701 154.47C90.0101 155.32 90.8101 156.06 91.5201 156.69C91.7001 157.39 91.8901 158.08 92.0601 158.77C95.2101 161.22 98.3601 163.67 101.5 166.11C104.44 168.4 107.38 170.68 110.32 172.97H102.13C100.2 171.39 98.2601 169.78 96.3201 168.13C93.3501 165.62 90.3501 163.05 87.3401 160.39C86.0201 159.24 84.7001 158.08 83.3901 156.9C78.8101 152.79 75.2601 149.73 70.9601 145.46C66.0101 140.54 62.4901 136.56 61.3401 135.26C54.4601 127.44 50.1601 122.54 46.8801 116.74H46.8701C46.6201 116.29 46.3701 115.83 46.1201 115.36C43.5501 110.47 39.9701 101.7 39.9501 88.79C39.3001 91.31 38.7701 94.2 38.5501 97.43C37.9801 105.73 39.7101 112.74 41.5001 117.64C41.7801 118.41 42.0601 119.14 42.3401 119.8C41.8801 119.52 41.1801 119.04 40.4401 118.32C40.3201 118.2 40.2001 118.08 40.0901 117.95C37.3801 115.02 36.9401 111.18 36.7701 109.19C34.9401 88.9 36.6601 78.81 36.6601 78.81C39.1101 64.43 40.4401 56.6 46.0401 47.33C52.3601 36.86 60.7201 30.21 67.1801 26.19C67.2801 24.12 67.3801 22.04 67.4801 19.97H99.9001C106.71 21.44 109.93 22.83 111.85 23.73C113.72 24.61 115.4 25.53 116.89 26.43C118.94 27.65 120.6 28.84 121.89 29.81C123.74 30.05 125.32 29.9 126.57 29.65C132.43 28.43 136.13 23.61 138.16 19.97H162C164.3 19.97 166.42 20.75 168.11 22.06C168.43 22.31 168.74 22.57 169.03 22.86C165.91 25.48 163.2 27.53 161.03 29.07C157.8 31.38 156.16 32.31 154.08 33C148.92 34.72 147.04 33.01 142.6 34.91C142.11 35.12 135.94 37.83 135.7 42.23C135.6 43.87 136.29 45.24 136.85 46.1C140.12 51.74 142.57 56.74 144.34 60.66C147.2 67.02 150.31 74.01 152.31 83.28C153.03 86.6 153.45 90.68 154.29 98.83C155.99 115.41 155.34 116.69 156.76 124.82C158.38 134.14 159.33 139.59 163.18 145.55C165.81 149.68 168.99 152.74 172 154.99Z" fill="#8E6F60"/>
<path d="M90.96 173H51.94C50.69 172.06 49.31 171.16 47.8 170.37C43.16 167.92 41.23 168.4 34.58 165.49C29.48 163.26 25.89 161.69 22.79 158.47C21.88 157.53 20.34 155.75 19 152.93V141.25C21.37 139.93 24.13 138.65 27.29 137.6C39.45 133.59 50.26 135.47 55.75 136.86C58.95 139.81 62.16 142.85 65.37 146C74.64 155.04 83.15 164.08 90.96 173Z" fill="#96DFD3"/>
<path d="M168.12 22.09C167.1 22.99 166.14 23.8 165.26 24.5C159.36 29.23 156.41 31.59 151.85 32.35C149.46 32.74 147.82 32.51 144.26 33.45C141.17 34.25 138.78 35.37 137.24 36.19C140.35 32.52 143.74 27.95 146.95 22.43C147.43 21.61 147.88 20.81 148.3 20.02H162C164.31 20 166.42 20.78 168.12 22.09Z" fill="#D3B69A"/>
<path d="M132.3 43.75C135.88 50 142.79 64.04 142.61 83.01C142.46 98.37 137.73 110.11 134.64 116.38C137.47 109.24 141.03 97.63 141.07 83.01C141.12 65.02 135.81 51.19 132.3 43.75Z" fill="#46372F"/>
<path d="M64.8001 85.78C64.3301 84.04 63.9001 82.18 63.5601 80.21C62.2901 73 62.4801 66.53 63.1501 61.3C62.3501 64.16 61.4601 68.69 61.9201 74.21C62.3201 79.21 63.6701 83.17 64.8001 85.78Z" fill="#46372F"/>
<path d="M69.23 35.1899C66.06 37.8199 52.86 49.3999 50.58 68.9699C47.47 95.7999 67.67 113.57 69.41 115.04C67.9 113.89 65.84 112.19 63.64 109.89C53.65 99.3699 44.97 80.5099 50.48 61.1899C54.61 46.6999 64.91 38.3199 69.23 35.1899Z" fill="#46372F"/>
<path d="M49.72 82.98C50.13 89.08 50.98 95.88 52.57 103.19C56.02 119.09 61.75 131.95 67 141.43C62.28 133.92 56.37 122.65 52.57 108.01C49.19 94.97 48.6 83.56 48.8 75.23" fill="#46372F"/>
<path d="M77.9499 148.71C82.8699 152.65 87.6299 155.99 92.0499 158.8C87.6499 156.55 82.4699 153.47 77.0699 149.26C72.2499 145.5 68.3599 141.7 65.3099 138.32C64.9999 137.72 64.6899 137.12 64.3899 136.52C68.2499 140.41 72.7499 144.55 77.9499 148.71Z" fill="#46372F"/>
<path d="M96.05 69.99C96.77 67.96 97.8 65.67 99.3 63.31C103.79 56.2 109.94 52.44 113.53 50.64C109.87 53.33 105.52 57.11 101.37 62.28C99.21 64.97 97.47 67.58 96.05 69.99Z" fill="#46372F"/>
<path d="M96.05 69.9899C97.21 68.0799 98.54 65.4499 99.54 62.1599C100.61 58.6399 100.95 55.5199 101.02 53.1899C100.33 56.0199 99.54 58.9599 98.63 61.9899C97.81 64.7799 96.94 67.4499 96.05 69.9899Z" fill="#46372F"/>
<path d="M64.8 85.7799C66.38 82.4799 67.95 79.0999 69.51 75.6599C72.72 68.5699 75.67 61.6199 78.39 54.8199C77.34 58.8099 75.9401 63.2099 74.0601 67.8699C71.1901 74.9799 67.9 80.9499 64.8 85.7799Z" fill="#46372F"/>
<path d="M89.9099 45.23C89.6499 47.75 89.5399 50.95 89.9599 54.61C90.4599 58.88 91.5299 62.41 92.5399 65.03C92.7199 63.58 92.9399 62.1 93.1999 60.59C94.5499 52.79 96.7499 45.87 99.2299 39.92C97.4899 42.64 95.4299 46.51 93.9699 51.44C92.7999 55.37 92.3299 58.9 92.1599 61.69C91.7099 59.71 91.2999 57.6 90.9499 55.38C90.3799 51.75 90.0599 48.35 89.9099 45.23Z" fill="#46372F"/>
<path d="M144.99 109.09C146.59 119.96 150.66 132.62 160.5 142.61C161.18 143.3 161.87 143.96 162.57 144.59C160.36 143.07 158.05 141.16 155.85 138.74C146.09 128.02 145.07 114.64 144.99 109.09Z" fill="#46372F"/>
</g>
</g>
<defs>
<clipPath id="clip0">
<rect width="192" height="192" fill="white"/>
</clipPath>
<clipPath id="clip1">
<rect width="153" height="153" fill="white" transform="translate(19 20)"/>
</clipPath>
</defs>
</svg>
