<?xml version="1.0" encoding="UTF-8"?>
<svg width="192" height="192" version="1.1" viewBox="0 0 192 192" xml:space="preserve" xmlns="http://www.w3.org/2000/svg" xmlns:cc="http://creativecommons.org/ns#" xmlns:dc="http://purl.org/dc/elements/1.1/" xmlns:rdf="http://www.w3.org/1999/02/22-rdf-syntax-ns#" xmlns:xlink="http://www.w3.org/1999/xlink"><metadata><rdf:RDF><cc:Work rdf:about=""><dc:format>image/svg+xml</dc:format><dc:type rdf:resource="http://purl.org/dc/dcmitype/StillImage"/></cc:Work></rdf:RDF></metadata><circle cx="96" cy="96" r="88" fill="#fff"/><path d="m101.67 75.371q1.2462 1.1479 2.3613 2.3613l8.9533 1.279a33.846 33.846 0 0 1 3.3452 8.0678l-5.4442 7.2479s0.0984 2.2301 0 3.3452l5.4442 7.2479a33.518 33.518 0 0 1-3.3452 8.0678l-8.9533 1.279s-1.5414 1.607-2.3613 2.3613l-1.279 8.9533a33.846 33.846 0 0 1-8.0678 3.3452l-7.2479-5.4442a18.989 18.989 0 0 1-3.3452 0l-7.2479 5.4442a33.518 33.518 0 0 1-8.0678-3.3452l-1.279-8.9533q-1.2135-1.1479-2.3613-2.3613l-8.9533-1.279a33.846 33.846 0 0 1-3.3452-8.0678l5.4442-7.2479s-0.09839-2.2301 0-3.3452l-5.4442-7.2479a33.518 33.518 0 0 1 3.3452-8.0678l8.9533-1.279q1.1479-1.2135 2.3613-2.3613l1.279-8.9533a33.846 33.846 0 0 1 8.0678-3.3452l7.2479 5.4442a18.989 18.989 0 0 1 3.3452 0l7.2479-5.4442a33.518 33.518 0 0 1 8.0678 3.3452z" fill="#f9de81" stroke="#f9de81" stroke-linecap="round" stroke-linejoin="round" stroke-width="5.2474"/><circle cx="83.401" cy="96" r="15.742" fill="#fff" stroke-linecap="round" stroke-linejoin="round" stroke-width="5.2474"/><path d="m133.12 98.204q0.71494 0.65849 1.3546 1.3546l5.1362 0.73374a19.416 19.416 0 0 1 1.919 4.6283l-3.1231 4.1579s0.0564 1.2794 0 1.919l3.1231 4.1579a19.228 19.228 0 0 1-1.919 4.6283l-5.1362 0.73375s-0.88426 0.92189-1.3546 1.3546l-0.73374 5.1362a19.416 19.416 0 0 1-4.6283 1.919l-4.1579-3.1231a10.893 10.893 0 0 1-1.919 0l-4.1579 3.1231a19.228 19.228 0 0 1-4.6283-1.919l-0.73375-5.1362q-0.69612-0.65849-1.3546-1.3546l-5.1362-0.73375a19.416 19.416 0 0 1-1.919-4.6283l3.1231-4.1579s-0.0564-1.2794 0-1.919l-3.1231-4.1579a19.228 19.228 0 0 1 1.919-4.6283l5.1362-0.73374q0.6585-0.69612 1.3546-1.3546l0.73375-5.1362a19.416 19.416 0 0 1 4.6283-1.919l4.1579 3.1231a10.893 10.893 0 0 1 1.919 0l4.1579-3.1231a19.228 19.228 0 0 1 4.6283 1.919z" fill="#98dc9a" stroke="#98dc9a" stroke-linecap="round" stroke-linejoin="round" stroke-width="5.2474"/><circle cx="122.64" cy="110.04" r="9.0308" fill="#fff" stroke-linecap="round" stroke-linejoin="round" stroke-width="5.2474"/></svg>
