<svg xmlns="http://www.w3.org/2000/svg" id="svg2" width="192" height="192" version="1.1"><g id="layer1" transform="translate(0 -860.362)"><path id="path977" d="M141.014 880.8c-13.188-7.905-28.503-12.402-45.014-12.402-16.625 0-32.401 4.655-45.637 12.769-3.97 2.443-6.205 4.401-6.205 6.918 0 7.42 17.34 15.398 48.104 15.398 30.444 0 54.057-8.739 54.057-17.15 0-2.008-1.755-3.412-5.305-5.533" style="stroke-width:.427989;fill:#99bdfe;fill-opacity:1"/><path id="path975" d="M154.114 890.572c.37.58.554 1.198.554 2.03 0 9.774-29.912 27.064-77.53 27.064-34.986 0-41.537-12.98-41.537-21.234 0-2.95 1.132-5.97 3.624-9.035.136-.183.02-.253-.137-.117a88.175 88.175 0 0 0-12.385 12.865c-1.75 2.212-2.837 4.173-2.837 5.347 0 17.105 42.891 29.508 82.996 29.508 42.732 0 61.804-13.95 61.804-26.21 0-4.38-1.706-6.938-6.069-11.897-2.832-3.226-5.51-5.852-8.346-8.438-.137-.113-.232-.021-.137.117" style="stroke-width:.427989;fill:#99bdfe;fill-opacity:1"/><path id="path973" d="M16.484 918.625c-2.581 5.121-5.442 13.762-6.292 18.234-.373 1.916-.214 2.836.458 4.266 5.398 11.454 32.703 29.78 96.396 29.78 38.857 0 69.042-9.547 73.932-26.967.9-3.207.95-6.593-.208-11.155-1.292-5.099-3.713-11.044-5.762-15.218-.067-.137-.187-.116-.162.045.76 22.848-62.957 37.574-95.106 37.574-34.824 0-63.876-13.875-63.876-31.394 0-1.683.348-3.367.783-5.12.044-.16-.093-.186-.163-.045" style="stroke-width:.427989;fill:#99bdfe;fill-opacity:1"/><path id="path971" d="M78.312 991.628c-45.039 0-66.276-20.976-70.128-35.291-.047-.207-.184-.162-.184.024 0 4.82.482 11.039 1.312 15.166.396 2.01 2.031 5.163 4.43 7.677 10.905 11.368 38.095 27.297 85.184 27.297 64.157 0 78.827-21.372 81.822-28.4 2.142-5.026 3.252-14.11 3.252-21.74 0-1.846-.046-3.32-.116-4.768 0-.235-.136-.255-.183-.026-3.206 17.197-58.021 40.061-105.389 40.061" style="stroke-width:.427989;fill:#99bdfe;fill-opacity:1"/><path id="path969" d="M101.973 1030.335c21.655 0 45.452-5.904 59.684-17.589 3.895-3.184 7.605-7.421 10.927-13.116 1.913-3.277 3.783-7.17 5.307-10.997.068-.186-.047-.277-.188-.068-13.235 19.477-51.56 31.626-91.135 31.626-27.972 0-58.07-8.945-69.853-26.025-.116-.158-.232-.09-.161.091 10.977 23.331 44.279 36.077 85.419 36.077" style="stroke-width:.427989;fill:#99bdfe;fill-opacity:1"/><path id="path925" d="M42.037 1025.838c14.92 11.55 33.645 18.488 53.962 18.488 22.234 0 42.503-8.255 57.972-21.805.188-.165.096-.275-.09-.165-6.941 4.636-26.725 14.755-57.88 14.755-27.076 0-44.187-6.04-53.85-11.434-.185-.091-.253.048-.114.161" style="stroke-width:.427989;fill:#99bdfe;fill-opacity:1"/></g><style id="style853" type="text/css">.st0{fill:#fff}</style></svg>