<?xml version="1.0" encoding="UTF-8"?>
<svg version="1.1" viewBox="0 0 192 192" xml:space="preserve" xmlns="http://www.w3.org/2000/svg">
	 <path d="m21.735 59 15.749-21.83 18.341-14.49 18.341-5.04 21.835 2.3601 12.36-0.5 24.64 12 14.734 17.64 12.266 18.585 0.5 43.155v49.62h-77.025l-36.54-12.766-14.935-22.365-12-21.735v-32.76z" fill="#9abeff"/><path id="path" d="m123.34 167.05c-12.123 0-24.245 0.0888-36.368-0.0237-18.618-0.17138-35.197-6.2651-49.637-17.909-15.237-12.288-25.031-28.087-28.441-47.402-4.427-25.084 1.7022-47.55 18.364-66.872 12.14-14.079 27.531-22.856 45.883-26.024 24.103-4.161 45.795 1.5367 64.691 17.04 15.06 12.353 24.298 28.365 27.898 47.485 0.97522 5.1658 1.3476 10.509 1.3771 15.775 0.13593 24.872 0.0651 49.743 0.0592 74.615 0 3.304-0.0126 3.3099-3.4045 3.3099-13.482 5e-3 -26.952 5e-3 -40.422 5e-3zm-96.241-103.53c0.62061-0.29553 0.80383-0.3369 0.92204-0.4433 10.822-10.16 23.595-15.728 38.46-16.431 17.342-0.82157 32.301 4.8525 44.69 16.904 12.66 12.318 18.725 27.537 18.748 45.168 0.018 13.376 0 26.751 6e-3 40.127 0 3.1917 0.0125 3.2035 3.2922 3.2094 5.1185 0.0125 10.237 0.0125 15.356 0 3.3631-6e-3 3.3749-0.018 3.3749-3.4281 0-20.734 6e-3 -41.474-5e-3 -62.208 0-1.6136 0.0126-3.2449-0.18323-4.8407-2.0992-17.377-9.4638-32.053-22.851-43.442-14.835-12.625-32.112-17.755-51.321-14.753-21.302 3.3276-37.089 14.977-47.533 33.826-1.058 1.915-1.8677 3.966-2.9553 6.3124zm0.52013 27.679c0.75655-0.46102 1.5072-0.93386 2.2696-1.3831 10.332-6.0997 21.349-7.7192 32.863-4.4034 18.11 5.219 30.327 21.526 30.522 40.404 0.07687 7.8019 0.0053 15.61 0.01798 23.418 0.0053 2.7838 0.02366 2.8134 2.8607 2.8193 5.2072 0.018 10.408 0.018 15.616 0 2.9848-0.0126 3.0085-0.0355 3.0085-2.973 5e-3 -13.907 0.0295-27.815-0.0237-41.717-5e-3 -2.2283-0.20688-4.4802-0.5497-6.6848-4.7639-30.652-37.739-49.075-66.411-33.471-9.7524 5.2958-16.496 13.293-20.173 23.991zm10.036 27.744c-0.02955 10.054 8.2156 18.376 18.216 18.382 10.06 0.0126 18.399-8.257 18.405-18.246 0.0059-9.9947-8.2807-18.358-18.264-18.435-9.9179-0.0769-18.329 8.3102-18.358 18.299z" fill="#56595b"/><circle cx="55.825" cy="118.98" r="18.341" fill="#fff"/></svg>
