<?xml version="1.0" encoding="UTF-8" standalone="no"?>
<svg
   xmlns:dc="http://purl.org/dc/elements/1.1/"
   xmlns:cc="http://creativecommons.org/ns#"
   xmlns:rdf="http://www.w3.org/1999/02/22-rdf-syntax-ns#"
   xmlns:svg="http://www.w3.org/2000/svg"
   xmlns="http://www.w3.org/2000/svg"
   xmlns:sodipodi="http://sodipodi.sourceforge.net/DTD/sodipodi-0.dtd"
   xmlns:inkscape="http://www.inkscape.org/namespaces/inkscape"
   width="192"
   height="192"
   version="1.1"
   viewBox="0 0 192 192"
   id="svg3474"
   sodipodi:docname="auspost.svg"
   inkscape:version="1.0.1 (3bc2e813f5, 2020-09-07)"
   inkscape:export-filename="auspost.png"
   inkscape:export-xdpi="96"
   inkscape:export-ydpi="96">
  <metadata
     id="metadata29">
    <rdf:RDF>
      <cc:Work
         rdf:about="">
        <dc:format>image/svg+xml</dc:format>
        <dc:type
           rdf:resource="http://purl.org/dc/dcmitype/StillImage" />
        <dc:title></dc:title>
      </cc:Work>
    </rdf:RDF>
  </metadata>
  <defs
     id="defs3478" />
  <sodipodi:namedview
     id="namedview3476"
     pagecolor="#ffffff"
     bordercolor="#666666"
     borderopacity="1.0"
     inkscape:pageshadow="2"
     inkscape:pageopacity="0.0"
     inkscape:pagecheckerboard="0"
     showgrid="false"
     inkscape:zoom="3.046875"
     inkscape:cx="96.560137"
     inkscape:cy="72.641052"
     inkscape:window-width="1718"
     inkscape:window-height="1050"
     inkscape:window-x="36"
     inkscape:window-y="0"
     inkscape:window-maximized="0"
     inkscape:current-layer="svg3474"
     inkscape:document-rotation="0" />
  <circle
     style="fill:#ff837d;fill-opacity:1;stroke-width:3.72938"
     id="path11111"
     cx="96"
     cy="96.391281"
     r="88" />
  <path
     style="fill:#dc545a;stroke:none;stroke-width:0.164103;fill-opacity:0.01"
     d="m 93.374359,131.34575 c -5.038715,-0.53223 -8.855537,-1.58779 -12.964103,-3.58529 -8.062003,-3.91958 -14.495394,-11.03651 -17.630824,-19.50405 -3.273923,-8.841567 -2.804984,-19.019364 1.268099,-27.522663 3.202798,-6.686422 8.824136,-12.549186 15.328316,-15.986638 5.378468,-2.842515 10.595524,-4.116431 16.788256,-4.099407 4.735527,0.01302 8.427637,0.703561 12.733327,2.381541 4.63856,1.807701 8.449,4.324424 12.13698,8.016251 5.65418,5.660065 9.09359,12.653811 10.09012,20.517381 0.34092,2.690188 0.26231,7.785543 -0.15581,10.098665 -1.40497,7.77272 -4.54775,13.87563 -9.93843,19.29927 -5.37166,5.40452 -11.82359,8.722 -19.4508,10.00131 -1.902421,0.31909 -6.694834,0.54316 -8.205131,0.38363 z"
     id="path8897" />
  <path
     style="fill:#dc545a;stroke:none;stroke-width:0.164103;fill-opacity:0.01"
     d="m 92.553846,131.26212 c -6.808015,-0.64384 -13.887447,-3.61084 -19.2,-8.04676 -6.428072,-5.36737 -10.771942,-12.86319 -12.25282,-21.14357 -0.490604,-2.743227 -0.594751,-7.595602 -0.225554,-10.508915 0.956505,-7.54773 4.228991,-14.441792 9.459193,-19.927436 5.110402,-5.359994 11.417442,-8.857228 18.665282,-10.34984 6.659878,-1.371528 14.149433,-0.665922 20.374413,1.919513 11.34841,4.713364 19.36926,14.67135 21.52461,26.723093 0.49061,2.743232 0.59476,7.595607 0.22556,10.508915 -0.95651,7.54773 -4.22899,14.4418 -9.4592,19.92744 -7.56782,7.93744 -18.22558,11.92705 -29.111484,10.89756 z"
     id="path9197" />
  <g
     id="g11524">
    <path
       fill="#ffffff"
       d="m 75.688558,156.63959 c -25.672402,-9.21161 -43.9154,-32.66144 -43.9154,-60.181231 0,-27.515777 18.242796,-50.967709 43.9154,-60.171464 z"
       id="path11344"
       style="stroke-width:0.197179" />
    <path
       fill="#ffffff"
       d="m 96.189582,158.03387 c -1.770556,0 -3.531567,-0.0451 -5.261649,-0.19551 V 118.42724 C 115.19316,118.44995 134.96178,100.76483 135.1227,78.7888 135.29758,56.716973 115.65137,38.687395 91.250199,38.516302 h -0.322266 v -4.360209 c 1.730081,-0.129849 3.49281,-0.189959 5.261649,-0.189959 35.351168,0 64.037258,27.769527 64.037258,62.030079 -0.002,34.262757 -28.6861,62.037657 -64.037258,62.037657"
       id="path11346"
       style="stroke-width:0.187918" />
  </g>
</svg>
