<?xml version="1.0" encoding="UTF-8" standalone="no"?>
<svg
   viewBox="0 0 192 192"
   version="1.1"
   id="svg18"
   sodipodi:docname="avion_rewards.svg"
   inkscape:version="1.2.1 (9c6d41e410, 2022-07-14)"
   xml:space="preserve"
   inkscape:export-filename="avion_rewards.png"
   inkscape:export-xdpi="96"
   inkscape:export-ydpi="96"
   xmlns:inkscape="http://www.inkscape.org/namespaces/inkscape"
   xmlns:sodipodi="http://sodipodi.sourceforge.net/DTD/sodipodi-0.dtd"
   xmlns="http://www.w3.org/2000/svg"
   xmlns:svg="http://www.w3.org/2000/svg"><sodipodi:namedview
     id="namedview20"
     pagecolor="#ffffff"
     bordercolor="#000000"
     borderopacity="0.25"
     inkscape:showpageshadow="2"
     inkscape:pageopacity="0.0"
     inkscape:pagecheckerboard="true"
     inkscape:deskcolor="#d1d1d1"
     showgrid="false"
     inkscape:zoom="4.015625"
     inkscape:cx="96.498054"
     inkscape:cy="95.875486"
     inkscape:window-width="1884"
     inkscape:window-height="972"
     inkscape:window-x="26"
     inkscape:window-y="23"
     inkscape:window-maximized="0"
     inkscape:current-layer="svg18" /><defs
     id="defs4"><style
       id="style2">.a{fill:none;stroke:#b1b5bd;stroke-linecap:round;stroke-linejoin:round;isolation:isolate;opacity:0.63;}</style><mask
       maskUnits="userSpaceOnUse"
       id="mask2041"><circle
         class="a"
         cx="96"
         cy="96"
         r="88"
         id="circle2043"
         inkscape:label="background"
         style="opacity:1;fill:#ffffff;stroke:none" /></mask></defs><g
     id="g810"
     inkscape:label="template"
     style="display:none"><rect
       class="a"
       x="20"
       y="20"
       width="152"
       height="152"
       rx="10"
       id="rect8" /><circle
       class="a"
       cx="96"
       cy="96"
       r="36.5"
       id="circle12" /><rect
       class="a"
       x="32"
       y="8"
       width="128"
       height="176"
       rx="10"
       id="rect14" /><rect
       class="a"
       x="8"
       y="32"
       width="176"
       height="128"
       rx="10"
       id="rect16" /></g><circle
     class="a"
     cx="96"
     cy="96"
     r="88"
     id="circle10-6"
     inkscape:label="background"
     style="opacity:1;isolation:isolate;fill:#ffffff;stroke:none;stroke-linecap:round;stroke-linejoin:round" /><g
     id="g1976"
     mask="url(#mask2041)"
     style="opacity:1"><path
       style="opacity:0.5;fill:#99cdcd;stroke:none;stroke-width:8;stroke-linecap:round;fill-opacity:1"
       d="m 89.451362,8 c 10e-4,43.515267 10e-4,87.029534 0,130.5428 C 88.930742,175.94171 74.928988,184 74.928988,184 H 8 V 8 Z"
       id="path1858"
       sodipodi:nodetypes="cccccc" /><path
       style="opacity:0.5;fill:#99cdcd;fill-opacity:1;stroke:none;stroke-width:8;stroke-linecap:round"
       d="m 144.98054,8 c 0.001,20.58563 0.001,44.142051 0,64.725681 0.52821,32.343119 -55.528428,51.715949 -55.528428,51.715949 L 8,153.83852 V 8 Z"
       id="path1970"
       sodipodi:nodetypes="cccccc" /><path
       style="opacity:1;fill:#728dbe;stroke:none;stroke-width:8;stroke-linecap:round"
       d="m 68.095331,8 c 0.001,39.398536 0.001,78.796071 0,118.19261 C 68.095331,168.92499 46.998055,184 46.998055,184 H 8 V 8 Z"
       id="path1774"
       sodipodi:nodetypes="cccccc" /><path
       style="opacity:0.75;fill:#99cdcd;stroke:none;stroke-width:8;stroke-linecap:round;fill-opacity:1"
       d="m 108.19553,8 c 10e-4,30.535695 10e-4,70.694684 0,101.22838 0,43.68833 -49.866166,60.5001 -49.866166,60.5001 L 16.012646,184 H 8 V 8 Z"
       id="path1914"
       sodipodi:nodetypes="ccccccc" /></g><path
     d="M 84.974002,73.884571 C 86.630194,69.656 87.363146,66.4 87.271527,64.20819 87.179907,62.016381 85.523718,60.550476 82.49324,59.979619 V 59 h 19.8461 l 27.09809,74 h -13.22837 l -7.90039,-23.77162 H 81.851909 L 74.226385,133 H 62.562575 Z M 84.24105,101.99048 h 21.49524 L 94.981622,69.571429 Z"
     id="path6"
     inkscape:label="A"
     style="stroke-width:1;fill:#54688c" /></svg>
