<svg viewBox="0 0 192 192" xmlns="http://www.w3.org/2000/svg" fill-rule="evenodd" clip-rule="evenodd" stroke-linejoin="round" stroke-miterlimit="2"><path d="M172.5 29.5c0-5.519-4.481-10-10-10h-133c-5.519 0-10 4.481-10 10v133c0 5.519 4.481 10 10 10h133c5.519 0 10-4.481 10-10v-133z" fill="#fff"/><path d="M131.219 84.89c0 49.003-35.219 64.395-35.219 64.395S60.781 133.893 60.781 84.89c4.04-4.291 23.48-7.103 35.219-7.103 11.74 0 31.494 3.148 35.219 7.103M82.332 73.524c-2.849.349-5.695.791-8.354 1.317V64.454c0-11.604 9.868-21.025 22.022-21.025 12.154 0 22.022 9.421 22.022 21.025V74.95a122.67 122.67 0 00-8.354-1.359v-5.426c0-8.731-6.124-15.819-13.668-15.819s-13.668 7.088-13.668 15.819v5.359z" fill="#e85e5c"/><path d="M119.604 91.548c0 34.965-23.604 45.947-23.604 45.947s-23.604-10.982-23.604-45.947C75.104 88.486 88.132 86.48 96 86.48c7.868 0 21.108 2.245 23.604 5.068" fill="#fff"/><path d="M93.11 109.772A5.873 5.873 0 0196 98.79a5.873 5.873 0 012.89 10.982v6.854h-5.78v-6.854z" fill="#e85e5c"/></svg>