<?xml version="1.0" encoding="UTF-8" standalone="no"?>
<!DOCTYPE svg PUBLIC "-//W3C//DTD SVG 1.1//EN" "http://www.w3.org/Graphics/SVG/1.1/DTD/svg11.dtd">
<svg width="100%" height="100%" viewBox="0 0 192 192" version="1.1" xmlns="http://www.w3.org/2000/svg" xmlns:xlink="http://www.w3.org/1999/xlink" xml:space="preserve" xmlns:serif="http://www.serif.com/" style="fill-rule:evenodd;clip-rule:evenodd;stroke-linejoin:round;stroke-miterlimit:2;">
    <g id="Layer1">
        <g transform="matrix(1,0,0,1,8,8)">
            <path d="M164.5,21.5C164.5,15.981 160.019,11.5 154.5,11.5L21.5,11.5C15.981,11.5 11.5,15.981 11.5,21.5L11.5,154.5C11.5,160.019 15.981,164.5 21.5,164.5L154.5,164.5C160.019,164.5 164.5,160.019 164.5,154.5L164.5,21.5Z" style="fill:white;"/>
        </g>
        <g transform="matrix(0.865646,0,0,0.919454,12.898,12.0243)">
            <path d="M136.685,79.249C136.685,132.545 96,149.285 96,149.285C96,149.285 55.315,132.545 55.315,79.249C59.982,74.582 82.438,71.524 96,71.524C109.562,71.524 132.382,74.947 136.685,79.249" style="fill:rgb(232,94,92);"/>
        </g>
        <path d="M82.332,73.524C79.483,73.873 76.637,74.315 73.978,74.841L73.978,64.454C73.978,52.85 83.846,43.429 96,43.429C108.154,43.429 118.022,52.85 118.022,64.454L118.022,74.95C115.364,74.417 112.518,73.958 109.668,73.591L109.668,68.165C109.668,59.434 103.544,52.346 96,52.346C88.456,52.346 82.332,59.434 82.332,68.165L82.332,73.524Z" style="fill:rgb(232,94,92);"/>
        <g transform="matrix(0.580162,0,0,0.656058,40.3045,39.5557)">
            <path d="M136.685,79.249C136.685,132.545 96,149.285 96,149.285C96,149.285 55.315,132.545 55.315,79.249C59.982,74.582 82.438,71.524 96,71.524C109.562,71.524 132.382,74.947 136.685,79.249" style="fill:white;"/>
        </g>
        <path d="M93.11,109.772C91.331,108.763 90.129,106.851 90.129,104.661C90.129,101.421 92.76,98.79 96,98.79C99.24,98.79 101.871,101.421 101.871,104.661C101.871,106.851 100.669,108.763 98.89,109.772L98.89,116.626L93.11,116.626L93.11,109.772Z" style="fill:rgb(232,94,92);"/>
    </g>
</svg>
