<svg width="192" height="192" version="1.1" viewBox="0 0 192 192" xmlns="http://www.w3.org/2000/svg">
 <path d="m88.898 12c3.9362-3.8887 10.268-3.8884 14.204 8.08e-4l77.674 76.754c3.9842 3.9371 4.0054 10.364 0.0475 14.328l-77.674 77.776c-3.9469 3.9519-10.351 3.9529-14.299 1e-3l-77.692-77.777c-3.9593-3.9633-3.938-10.392 0.047491-14.329z" style="clip-rule:evenodd;fill-rule:evenodd;fill:#728dbe;stroke-width:1.0104"/>
 <path d="m90.475 30.783c3.0608-3.0238 7.9842-3.0236 11.045 6.28e-4l60.399 59.683c3.0981 3.0615 3.1146 8.0591 0.037 11.141l-60.399 60.478c-3.0691 3.073-8.0491 3.0737-11.119 7.8e-4l-60.413-60.479c-3.0787-3.0818-3.0621-8.0804 0.03692-11.142z" style="clip-rule:evenodd;fill-rule:evenodd;fill:#9abeff;stroke-width:.78572"/>
 <path d="m68 72c-8.4327 0-8 24-8 24s0 24 8 24 12-12 52-36c0 0 4 0 4 12s-4 12-4 12l-16-8-8 4s20 16 28 16 8-24 8-24 0.43274-24-8-24c-8 0-24 20-52 36 0 0-4 0-4-12s4-12 4-12l16 8 8-4s-20-16-28-16z" style="fill:#fff"/>
 <path d="m72 92c-1.3699 1.2958 2.6678 5.3345 4 4 3.3516-3.3574 8-8 8-8l-4-4s-4.0131 4.2288-8 8z" style="fill:#fff"/>
</svg>
