<svg width="192" height="192" version="1.1" viewBox="0 0 192 192" xmlns="http://www.w3.org/2000/svg">
 <circle cx="96" cy="96" r="88" fill="#fff" stroke-width="0"/>
 <ellipse cx="72.486" cy="76.423" rx="9.9991" ry="11.606" fill="#9abeff"/>
 <path d="m77.503 126.6c-11.346-3.518-15.978-13.853-19.744-27.274-1.2803-4.5637-1.3585-10.723-2.1852-15.451-1.675-9.5788-1.8072-26.96 1.4006-27.001 3.8378-0.04937 1.3967 10.813 1.8644 15.94 0.50556 5.543 2.0451 12.216 6.6745 15.306 3.6548 2.4398 10.241 2.3607 13.181 0.23247 7.6425-5.5332 26.981-14.954 26.55-12.134-18.974 12.278-23.971 25.595-27.741 50.382z" fill="#9abeff" stroke-width="0"/>
 <path d="m86.835 76.921c12.527 8.3697 18.485 20.408 21.009 30.161 2.209 8.5355 0.60764 16.932-3.3281 23.921 16.267 3.1432 25.623-18.64 29.245-34.985 1.6808-7.5852 9.8319-27.789 4.8177-29.327-1.8499-0.56721-7.4161 30.672-18.254 29.991-4.0978-0.25756-7.2304-1.4916-9.3603-4.1601-4.9396-6.1887-13.646-20.507-24.129-15.601z" fill="#ff837d"/>
 <ellipse cx="120.22" cy="81.044" rx="10.141" ry="11.924" fill="#ff837d"/>
 <path d="m108.91 136.73c-6.8078-2.2754-11.016-9.8175-11.585-17.518-0.20965-2.838 0.41014-7.463-0.1419-10.024-1.1554-5.361-0.25404-14.632 1.1493-14.657 2.304-0.04068 0.85791 7.0912 1.4755 10.243 0.85269 4.3516 1.2238 6.7932 3.6175 8.7856 1.7299 1.4399 5.1608 1.4948 6.75 0.18032 9.9103-8.1977 17.298-7.6038 16.936-6.2507-12.621 7.2866-19.632 14.104-18.201 29.241z" fill="#98dc9a" stroke-width="0"/>
 <ellipse cx="107.85" cy="105.36" rx="6.0033" ry="6.8" fill="#98dc9a"/>
 <ellipse cx="84.009" cy="109.28" rx="5.457" ry="6.4164" fill="#f8c18c"/>
 <path d="m66.043 107.06c6.7408 4.5039 9.947 10.982 11.305 16.23 1.1887 4.5931 0.32698 9.1115-1.7909 12.872 8.6964 1.627 14.079-10.593 15.737-18.826 0.83182-4.1296 5.173-14.993 2.5925-15.781-0.9958-0.30412-3.9908 16.505-9.823 16.139-2.2051-0.1386-3.6698-1.0112-5.037-2.2387-3.5939-3.2263-7.3535-11.034-12.984-8.395z" fill="#f8c18c"/>
</svg>
