<svg xmlns="http://www.w3.org/2000/svg" width="192" height="192"><circle cx="96" cy="96" r="88" opacity=".63" style="fill:#fff;stroke:#b1b5bd;stroke-width:0;stroke-miterlimit:4;stroke-dasharray:none;fill-opacity:1;opacity:1"/><g style="fill:#98dc9a;fill-opacity:1;stroke-width:.435467"><path d="M95.075 657.176c-.118-.028-.65-.148-1.182-.267-.89-.199-2.06-.597-2.575-.875l-.645-.345c-2.379-1.266-4.245-3.482-5.168-6.136-.63-1.812-.611-1.38-.657-15.012l-.043-12.544h3.554v7.181c0 3.95.027 7.208.06 7.242.034.033.33-.203.66-.525 2.07-2.021 4.57-2.958 7.92-2.969 2.492-.008 4.494.604 6.672 2.039 1.685 1.11 3.337 2.966 4.134 4.645.657 1.382.763 1.673 1.035 2.827.994 4.23-.636 9.105-3.967 11.86-1.62 1.34-2.935 2.017-5.017 2.584-.866.236-1.29.283-2.793.312-.976.019-1.87.01-1.988-.017zm3.6-3.314c.954-.157 2.298-.669 3.106-1.181.611-.388 1.939-1.716 2.327-2.327 1.018-1.604 1.583-4.128 1.344-6.008-.248-1.952-.482-2.68-1.33-4.137-.432-.744-1.47-1.874-2.253-2.453-1.767-1.31-4.612-1.818-7.125-1.275-3.845.83-6.448 4.07-6.675 8.303-.203 3.802 1.827 7.09 5.287 8.564 1.506.64 3.424.826 5.318.514zM82.342 637.357A17.13 17.13 0 0 0 81 637.15c-2.674-.324-5.482-1.353-6.984-2.56-.528-.425-1.577-1.455-2.26-2.221-.902-1.01-1.037-1.17-1.33-1.577-.372-.515-3.782-3.885-4.763-4.706-.455-.381-.817-.703-.804-.715.076-.072 2.099.33 2.871.57 2.461.765 5.581 2.141 7.146 3.152.354.23.76.469.9.532.142.062 1.372 1.224 2.734 2.58 1.363 1.356 2.503 2.44 2.535 2.408.031-.032-.068-.308-.221-.615s-.56-1.138-.903-1.847c-.53-1.093-1.785-3.452-2.23-4.19-.662-1.1-2.29-3.499-2.745-4.045-.703-.845-1.208-1.49-1.165-1.49.111 0 .93.513 1.798 1.126 1.201.849 1.134.794 1.644 1.34.246.264.547.578.67.699.431.423 1.412 1.838 1.792 2.584.695 1.365 1.296 3.056 2.348 6.608.333 1.123.657 2.14.797 2.498.08.206.064.208-.487.076z" style="fill:#98dc9a;fill-opacity:1;stroke:none;stroke-width:.435467" transform="matrix(2.25881 0 0 2.33458 -106.502 -1397.196)"/></g></svg>