<?xml version="1.0" encoding="UTF-8" standalone="no"?>
<svg
   xmlns:dc="http://purl.org/dc/elements/1.1/"
   xmlns:cc="http://creativecommons.org/ns#"
   xmlns:rdf="http://www.w3.org/1999/02/22-rdf-syntax-ns#"
   xmlns:svg="http://www.w3.org/2000/svg"
   xmlns="http://www.w3.org/2000/svg"
   xmlns:sodipodi="http://sodipodi.sourceforge.net/DTD/sodipodi-0.dtd"
   xmlns:inkscape="http://www.inkscape.org/namespaces/inkscape"
   sodipodi:docname="banco_next.svg"
   inkscape:version="1.0.1 (3bc2e813f5, 2020-09-07)"
   version="1.1"
   id="svg2"
   viewBox="0 0 192 192"
   height="192"
   width="192"
   inkscape:export-filename="/home/jphilippe/inkscape/icônes/delta-github/png/banco_next.png"
   inkscape:export-xdpi="96"
   inkscape:export-ydpi="96">
  <sodipodi:namedview
     inkscape:document-rotation="0"
     inkscape:window-maximized="1"
     inkscape:window-y="0"
     inkscape:window-x="36"
     inkscape:window-height="1052"
     inkscape:window-width="1884"
     units="px"
     showgrid="false"
     inkscape:current-layer="layer1"
     inkscape:document-units="px"
     inkscape:cy="-16.562875"
     inkscape:cx="190.13967"
     inkscape:zoom="0.7071068"
     inkscape:pageshadow="2"
     inkscape:pageopacity="0.0"
     borderopacity="1.0"
     bordercolor="#666666"
     pagecolor="#ffffff"
     id="base"
     inkscape:snap-bbox="false"
     inkscape:object-paths="true"
     inkscape:snap-nodes="true"
     showguides="true"
     inkscape:guide-bbox="true"
     inkscape:snap-object-midpoints="true"
     inkscape:snap-center="true"
     inkscape:snap-global="false"
     inkscape:snap-intersection-paths="true"
     inkscape:snap-smooth-nodes="true"
     inkscape:snap-midpoints="true">
    <inkscape:grid
       type="xygrid"
       id="grid1043" />
  </sodipodi:namedview>
  <defs
     id="defs4" />
  <metadata
     id="metadata7">
    <rdf:RDF>
      <cc:Work
         rdf:about="">
        <dc:format>image/svg+xml</dc:format>
        <dc:type
           rdf:resource="http://purl.org/dc/dcmitype/StillImage" />
        <dc:title></dc:title>
      </cc:Work>
    </rdf:RDF>
  </metadata>
  <g
     transform="translate(0,-860.36216)"
     id="layer1"
     inkscape:groupmode="layer"
     inkscape:label="Calque 1">
    <path
       id="path1023"
       style="fill:#97db99;fill-opacity:1;stroke-width:2.99417"
       d="m 61.965317,901.49289 c -1.199703,0 -2.392354,0.31107 -3.453962,0.91648 -0.0673,0.0373 -0.133321,0.0766 -0.19949,0.11603 -0.0068,0.004 -0.01334,0.008 -0.02003,0.0125 -1.146241,0.68876 -2.118957,1.70309 -2.75616,2.99988 L 8.7494139,1000.7588 c -1.76121,3.5862 -0.312253,7.9365 3.2369441,9.7167 1.025506,0.5138 2.112954,0.7571 3.184359,0.7571 0.582918,0 1.159927,-0.076 1.720304,-0.2154 0.500053,-0.1081 0.996346,-0.2686 1.479911,-0.4949 l 99.900338,-46.75044 27.79698,22.7454 c 0.50899,0.48996 1.09766,0.91284 1.76037,1.24537 0.16697,0.0837 0.33675,0.15677 0.50667,0.22621 0.0577,0.024 0.11547,0.0469 0.1736,0.0693 0.12962,0.0491 0.25982,0.0942 0.39065,0.13523 0.12864,0.041 0.25799,0.0762 0.38812,0.10938 0.0693,0.0176 0.13843,0.0343 0.20783,0.0493 0.19698,0.0439 0.3945,0.0779 0.59349,0.10431 0.0459,0.005 0.0918,0.0141 0.13773,0.0193 0.11821,0.0133 0.23624,0.0231 0.35475,0.03 0.0521,0.004 0.1041,0.004 0.15609,0.005 0.21569,0.008 0.43086,0.006 0.64605,-0.005 0.0598,-0.004 0.11978,-0.005 0.17945,-0.01 0.11106,-0.009 0.22167,-0.02 0.33222,-0.0343 0.1186,-0.015 0.23636,-0.0342 0.3539,-0.0551 0.0645,-0.0115 0.12946,-0.0205 0.19363,-0.0342 2.0946,-0.43002 3.97803,-1.79586 5.00233,-3.88047 l 25.80539,-52.52062 c 1.76118,-3.58529 0.31258,-7.93551 -3.23612,-9.71501 -0.9428,-0.47302 -1.93809,-0.70996 -2.92559,-0.74621 -0.10604,-0.004 -0.21151,-0.0118 -0.31801,-0.0118 -0.0376,3e-5 -0.0751,0.005 -0.11269,0.005 -0.0939,0.002 -0.18696,0.009 -0.28044,0.015 -0.16393,0.009 -0.32762,0.0213 -0.49164,0.0426 -0.0154,0.002 -0.0307,0.005 -0.0459,0.008 -0.67972,0.0927 -1.35781,0.28105 -2.01246,0.58762 l -53.52059,25.04504 -53.387023,-43.6837 c -0.419726,-0.40499 -0.901107,-0.75643 -1.426491,-1.05673 -0.08323,-0.0493 -0.16663,-0.0973 -0.251242,-0.14273 -0.0309,-0.0161 -0.05895,-0.0352 -0.09015,-0.0509 -0.02804,-0.0141 -0.057,-0.0239 -0.08513,-0.0376 -0.98144,-0.49107 -2.042912,-0.73784 -3.101727,-0.73784 z m 2.578373,18.31653 41.58613,34.02796 -75.714264,35.43028 z m 97.01648,23.7053 -13.12223,26.7052 -15.98856,-13.08299 z" />
  </g>
  <style
     type="text/css"
     id="style853">
	.st0{fill:#FFFFFF;}
</style>
  <style
     type="text/css"
     id="style853-9">
	.st0{fill:#FFFFFF;}
</style>
  <style
     type="text/css"
     id="style853-3">
	.st0{fill:#FFFFFF;}
</style>
</svg>
