<?xml version="1.0" encoding="UTF-8" standalone="no"?>
<svg
   xmlns:dc="http://purl.org/dc/elements/1.1/"
   xmlns:cc="http://creativecommons.org/ns#"
   xmlns:rdf="http://www.w3.org/1999/02/22-rdf-syntax-ns#"
   xmlns:svg="http://www.w3.org/2000/svg"
   xmlns="http://www.w3.org/2000/svg"
   xmlns:sodipodi="http://sodipodi.sourceforge.net/DTD/sodipodi-0.dtd"
   xmlns:inkscape="http://www.inkscape.org/namespaces/inkscape"
   width="192"
   height="192"
   viewBox="0 0 192 192"
   version="1.1"
   id="svg14"
   sodipodi:docname="personas.svg"
   inkscape:version="0.92.3 (2405546, 2018-03-11)">
  <metadata
     id="metadata20">
    <rdf:RDF>
      <cc:Work
         rdf:about="">
        <dc:format>image/svg+xml</dc:format>
        <dc:type
           rdf:resource="http://purl.org/dc/dcmitype/StillImage" />
      </cc:Work>
    </rdf:RDF>
  </metadata>
  <defs
     id="defs18" />
  <sodipodi:namedview
     pagecolor="#ffffff"
     bordercolor="#666666"
     borderopacity="1"
     objecttolerance="10"
     gridtolerance="10"
     guidetolerance="10"
     inkscape:pageopacity="0"
     inkscape:pageshadow="2"
     inkscape:window-width="1366"
     inkscape:window-height="705"
     id="namedview16"
     showgrid="false"
     inkscape:zoom="2.4583333"
     inkscape:cx="61.926051"
     inkscape:cy="108.44917"
     inkscape:window-x="0"
     inkscape:window-y="30"
     inkscape:window-maximized="1"
     inkscape:current-layer="svg14" />
  <g
     id="g835">
    <rect
       width="153"
       height="153"
       x="19.5"
       y="19.5"
       rx="10"
       id="rect2"
       style="fill:#ffffff;fill-opacity:1;fill-rule:evenodd;stroke:none" />
    <g
       transform="translate(-2)"
       id="g828">
      <path
         style="fill:#728dbe;fill-opacity:1;stroke-width:3.54248095"
         inkscape:connector-curvature="0"
         id="path28"
         d="m 134.12007,56.009447 c -1.41699,-2.125488 -2.47973,-2.479736 -4.25097,-2.833984 -6.02222,-1.062745 -20.54639,-0.708497 -32.590827,0.354248 -6.022218,0.354248 -12.398683,1.416992 -19.129397,2.833984 -6.730714,1.416993 -13.461427,2.833985 -20.546389,4.959474 -2.479737,0.708496 -3.896729,2.125488 -2.833985,4.959473 1.416992,3.542481 2.479737,6.730714 3.896729,11.335939 1.062744,2.833984 3.542481,2.833984 6.022218,2.125488 7.793457,-2.479736 15.586915,-4.250977 22.671877,-5.667969 7.43921,-1.416993 13.815674,-2.479737 20.192144,-3.188233 12.75293,-1.416992 23.38037,-1.77124 29.40259,-1.77124 1.41699,0 2.47974,-1.416993 1.41699,-2.833985 z"
         class="st2" />
      <path
         style="fill:#f9de81;fill-opacity:1;stroke-width:3.54248095"
         inkscape:connector-curvature="0"
         id="path30"
         d="m 145.81026,76.910085 c -1.06274,-1.771241 -1.77124,-2.833985 -5.31372,-3.188233 -9.91895,-0.354248 -20.90064,0.708496 -38.25879,3.188233 -8.501958,1.416992 -17.712408,3.188232 -27.985603,5.667969 -4.959473,1.416992 -9.918947,2.479737 -15.232668,4.250977 -5.313721,1.771241 -10.273195,3.542481 -15.232668,5.313721 -2.833985,1.062745 -4.605225,3.896729 -4.250977,6.022218 1.416992,5.31372 2.479737,10.62744 4.250977,16.64966 0.708496,2.47974 3.896729,3.89673 7.084962,2.47974 11.335939,-4.25098 22.671878,-7.79346 33.653569,-10.98169 10.98169,-2.83399 20.192138,-4.95948 29.048338,-7.084966 17.00391,-3.542481 25.86012,-4.959473 35.07057,-6.376465 2.12548,-0.354248 2.83398,-1.771241 2.12548,-3.896729 z"
         class="st3" />
      <path
         style="fill:#ff8681;fill-opacity:1;stroke-width:3.54248095"
         inkscape:connector-curvature="0"
         id="path32"
         d="m 152.18673,116.23162 c 0.70849,2.12549 0.35424,4.25098 -2.12549,5.31372 -3.18823,1.417 -5.66797,2.12549 -9.5647,3.54248 -2.12549,0.7085 -3.89673,1.417 -6.02222,2.47974 -2.12549,0.7085 -4.25097,1.77124 -6.73071,2.47974 -9.5647,3.54248 -20.90064,7.79346 -34.362066,13.10718 -2.833985,1.06274 -6.022218,-0.7085 -7.084962,-3.54248 -2.125489,-7.08497 -4.959473,-14.16993 -7.43921,-20.54639 -1.062744,-2.83399 0.354248,-5.66797 3.188233,-6.73072 7.084962,-2.12548 13.107179,-3.54248 19.483645,-4.95947 6.02222,-1.41699 11.33594,-2.83398 16.29541,-3.89673 10.2732,-2.47974 16.64966,-3.54248 23.73462,-4.959472 3.54248,-0.708496 4.60523,0.708496 5.31373,3.188232 2.12548,4.60523 3.89672,9.5647 5.31372,14.52417"
         class="st4" />
    </g>
  </g>
</svg>
