<svg width="192" height="192" viewBox="0 0 192 192" fill="none" xmlns="http://www.w3.org/2000/svg">
<path d="M163 19H30C24.48 19 20 23.48 20 29V162C20 167.52 24.48 172 30 172H163C165.8 172 168.33 170.85 170.15 168.99C171.91 167.19 173 164.72 173 162V29C173 23.48 168.52 19 163 19ZM148.11 162.54L148.59 162.32L149.6 164.5V164.51L149.3 165.14L148.11 162.54Z" fill="#FFB0AC"/>
<path d="M103.68 132.421C102.82 134.021 101.74 135.761 100.34 137.531C99.8798 138.111 99.4298 138.651 98.9698 139.161C98.8798 139.261 98.7898 139.351 98.7098 139.451C98.6098 139.561 98.5098 139.661 98.4198 139.771C98.1898 139.721 97.9398 139.671 97.6798 139.611H97.6698C94.7298 138.951 89.8398 137.421 84.9798 133.611C82.3298 131.541 80.3498 129.321 78.8998 127.331C78.7198 127.091 78.5498 126.861 78.3998 126.631L78.3898 126.621C77.4298 125.241 76.7298 124.001 76.2298 123.021C75.7998 121.651 75.1498 118.931 75.8698 115.691C76.2398 114.031 76.8598 112.711 77.4098 111.761C77.4298 111.041 76.98 110.22 77 109.5C77.03 108.37 77 107 77.5 106C77.82 106.84 78.2498 107.901 78.6598 108.781C82.2698 116.451 87.3198 121.051 90.2498 123.661C94.7898 127.681 99.4598 130.471 103.68 132.421Z" fill="#E2C9B0"/>
<mask id="mask0" mask-type="alpha" maskUnits="userSpaceOnUse" x="75" y="106" width="29" height="34">
<path d="M103.68 132.421C102.82 134.021 101.74 135.761 100.34 137.531C99.8798 138.111 99.4298 138.651 98.9698 139.161C98.8798 139.261 98.7898 139.351 98.7098 139.451C98.6098 139.561 98.5098 139.661 98.4198 139.771C98.1898 139.721 97.9398 139.671 97.6798 139.611H97.6698C94.7298 138.951 89.8398 137.421 84.9798 133.611C82.3298 131.541 80.3498 129.321 78.8998 127.331C78.7198 127.091 78.5498 126.861 78.3998 126.631L78.3898 126.621C77.4298 125.241 76.7298 124.001 76.2298 123.021C75.7998 121.651 75.1498 118.931 75.8698 115.691C76.2398 114.031 76.8598 112.711 77.4098 111.761C77.4298 111.041 76.98 110.22 77 109.5C77.03 108.37 77 107 77.5 106C77.82 106.84 78.2498 107.901 78.6598 108.781C82.2698 116.451 87.3198 121.051 90.2498 123.661C94.7898 127.681 99.4598 130.471 103.68 132.421Z" fill="#E2C9B0"/>
</mask>
<g mask="url(#mask0)">
<path d="M104 137C86 126.6 78.8333 111.667 77.5 105.5L106.5 133L104 137Z" fill="#D0B8A0"/>
</g>
<path d="M151.16 82.4809C151.16 82.5109 151.15 82.5309 151.14 82.5509C150.81 83.5709 150.44 84.7309 150.03 86.0809C149.52 87.7709 148.93 89.7509 148.27 92.1109C143.63 108.671 143.83 113.211 138.62 119.431C136.58 121.861 134.52 123.591 132.5 125.121C132.34 125.251 132.18 125.361 132.02 125.481C131.89 125.581 131.75 125.681 131.62 125.781C131.31 126.011 131.01 126.231 130.71 126.451C127.34 128.921 124.02 130.811 120.97 132.241C120.1 132.661 119.24 133.041 118.41 133.381C118.19 133.481 117.96 133.571 117.73 133.661C116.08 134.331 114.55 134.861 113.18 135.291C113.15 135.301 113.13 135.311 113.1 135.321C112.81 135.401 112.54 135.491 112.27 135.571C110.76 135.141 109.03 134.591 107.16 133.881C106.05 133.451 104.89 132.971 103.68 132.421C99.4601 130.471 94.7901 127.681 90.2601 123.641C87.3401 121.031 82.2801 116.431 78.6801 108.771C78.2601 107.891 77.9001 107.041 77.5801 106.201C77.4901 105.941 77.4001 105.691 77.3001 105.441C76.9801 104.551 76.7001 103.661 76.4701 102.761C76.3501 102.321 76.2401 101.871 76.1301 101.421C76.0401 101.011 75.9501 100.591 75.8701 100.161C75.8201 99.9109 75.7701 99.6509 75.7301 99.3909C75.6301 98.8909 75.5501 98.3809 75.4801 97.8609C75.3201 96.7809 75.1801 95.6709 75.0601 94.4909C75.0201 94.1009 74.9801 93.7009 74.9401 93.2909C74.8601 92.4809 74.7901 91.6309 74.7201 90.7509C74.6701 90.1609 74.6201 89.5609 74.5701 88.9309C74.5501 88.6309 74.5201 88.3209 74.5001 88.0009C74.4301 87.1209 74.3601 86.2609 74.3001 85.4309V85.4209C74.2801 85.2009 74.2701 84.9809 74.2501 84.7709C74.2201 84.3209 74.1801 83.8809 74.1601 83.4509C74.1301 82.9709 74.1001 82.5009 74.0701 82.0409V82.0309C73.7101 76.0309 73.8201 71.1009 75.4401 65.1609C77.7301 56.7509 81.5501 51.0209 85.1501 46.3309C90.3101 39.6309 92.7701 36.1909 97.4701 33.7009C104 30.2509 110.24 30.5009 113.56 30.6309C123.75 31.0409 130.88 35.5909 133.47 37.2909C141.83 42.7809 145.83 49.7509 147.61 52.9409C149.19 55.7609 152 60.9209 153 67.7809C153.1 68.4109 153.18 69.0609 153.23 69.7209C153.3 70.4309 153.35 71.1609 153.37 71.9109C153.47 75.6809 152.89 77.0809 151.16 82.4809Z" fill="#FCECDC"/>
<path d="M107.16 133.88C106.85 134.17 106.5 134.51 106.09 134.91C105.06 135.91 103.7 137.23 102.11 138.81C101.6 138.79 100.93 138.81 100.15 138.92C99.72 138.98 99.32 139.06 98.98 139.15C99.43 138.65 99.89 138.1 100.35 137.52C101.75 135.76 102.84 134.01 103.69 132.41C104.89 132.97 106.05 133.45 107.16 133.88Z" fill="white"/>
<path d="M97.6799 139.59C96.1999 140.32 95.8299 141.45 94.6599 141.75C93.9099 141.94 92.7499 141.8 91.0099 140.27C90.9399 140.21 90.5399 139.91 90.0099 139.98C89.6399 140.03 89.3999 140.22 89.2999 140.3C88.5099 141.18 87.5199 142.15 86.3099 143.11C85.6799 143.6 85.0699 144.04 84.4799 144.42C80.9899 140.86 76.9299 135.51 74.7999 128.27C73.6499 124.35 71.8099 117.47 75.3499 111.89C76.0099 110.84 76.7199 110.08 77.2099 109.59C77.2999 109.59 77.3899 109.58 77.4799 109.58C77.4599 110.3 77.4399 111.02 77.4199 111.75C76.8699 112.7 76.2499 114.02 75.8799 115.68C75.1599 118.93 75.8099 121.64 76.2399 123.01C76.7399 123.98 77.4399 125.23 78.3999 126.61L78.4099 126.62C78.4899 126.82 78.6599 127.04 78.9099 127.32C80.3699 129.32 82.3499 131.54 84.9899 133.6C89.8499 137.4 94.7399 138.94 97.6799 139.59Z" fill="white"/>
<path d="M89.4101 159.2C88.2701 161.72 86.5901 163.37 85.7401 164.12C85.0301 163.44 84.3101 162.75 83.5501 162.05C81.5301 160.19 79.3401 158.28 76.9601 156.37C76.7801 156.23 76.6101 156.08 76.4301 155.95C75.1801 154.95 73.9501 154 72.7301 153.1C71.6401 152.29 70.5601 151.52 69.5101 150.78C68.5201 150.09 67.5501 149.44 66.5901 148.8C66.5701 148.78 66.5401 148.77 66.5201 148.75C66.2701 148.59 66.0201 148.43 65.7701 148.27C65.6701 147.75 65.5701 147.24 65.4901 146.74C64.6001 141.46 64.6501 137.02 64.8901 133.85C65.1701 131.89 65.6101 128.98 66.3101 125.42C66.3201 125.39 66.3201 125.36 66.3301 125.33C66.4301 124.82 66.5201 124.4 66.5801 124.04C66.6001 123.98 66.6101 123.93 66.6201 123.87C66.7201 123.37 66.8101 123.01 66.8901 122.7C68.2401 117.85 70.9501 114.73 71.8201 113.8C72.8901 112.64 74.6401 111.01 77.2101 109.58C76.7101 110.07 76.0101 110.83 75.3501 111.88C71.8101 117.47 73.6501 124.35 74.8001 128.26C76.4101 133.74 79.1301 138.14 81.8801 141.5C82.7601 142.58 83.6401 143.55 84.4801 144.41C84.3401 144.51 84.1901 144.6 84.0501 144.68C83.9501 144.8 83.8401 144.96 83.7401 145.16C83.5601 145.53 83.5301 145.87 83.5201 146.08C83.2701 147.47 83.0501 148.96 82.8801 150.54C82.6201 152.99 82.5301 155.28 82.5401 157.36C83.1901 157.65 84.0901 158.01 85.1701 158.37C86.1001 158.67 86.7501 158.89 87.5301 159.04C88.3101 159.19 88.9001 159.22 89.4101 159.2Z" fill="#54688C"/>
<path d="M130.61 154.289C130.5 154.559 130.39 154.819 130.28 155.079C130.03 155.159 129.78 155.239 129.53 155.319C128.9 155.529 128.29 155.719 127.71 155.899C127.39 156.009 127.08 156.109 126.77 156.199C126.39 156.129 126.02 156.049 125.64 155.969C123.96 155.619 122.27 155.279 120.59 154.939C120.45 154.519 120.32 153.989 120.23 153.399C120.15 152.829 120.13 152.319 120.14 151.889C119.62 151.669 118.9 151.439 118.02 151.369C116.27 151.229 114.91 151.779 114.24 152.109C116.42 150.649 118.61 149.199 120.8 147.749C120.87 147.719 120.97 147.679 121.07 147.619C121.2 147.529 121.34 147.419 121.46 147.259C121.81 146.769 121.78 146.049 121.39 145.429C121.14 145.139 120.74 144.689 120.26 144.119C118.25 141.759 116.08 138.999 113.53 135.819C113.41 135.669 113.29 135.519 113.17 135.369C113.18 135.339 113.18 135.309 113.19 135.269C114.56 134.839 116.09 134.309 117.74 133.639C117.96 133.549 118.19 133.449 118.42 133.359C118.47 133.389 118.53 133.419 118.58 133.459C119.54 134.049 120.99 135.069 122.43 136.639C123.17 137.429 123.91 138.369 124.58 139.459C127.16 143.639 127.34 147.699 127.32 149.429C127.33 150.709 127.35 151.989 127.36 153.269C127.55 153.489 127.99 153.949 128.72 154.199C129.58 154.529 130.33 154.369 130.61 154.289Z" fill="#54688C"/>
<path d="M100.64 156.37C99.7598 157.75 99.8398 158.7 98.7498 159.76C98.0698 160.42 96.8598 161.2 94.5898 161.36C93.7498 160.06 92.8698 159.54 92.2298 159.3C91.2098 158.92 90.5398 159.17 89.3998 159.2C88.8998 159.22 88.2998 159.19 87.5498 159.05C86.7698 158.9 86.1198 158.68 85.1898 158.38C84.1098 158.02 83.2098 157.66 82.5598 157.37C82.5498 155.29 82.6398 153 82.8998 150.55C83.0598 148.97 83.2798 147.48 83.5398 146.09C83.5498 145.87 83.5798 145.53 83.7598 145.17C83.8598 144.97 83.9698 144.81 84.0698 144.69C84.2098 144.6 84.3498 144.51 84.4998 144.42C85.0798 144.04 85.6998 143.61 86.3298 143.11C87.5398 142.15 88.5298 141.18 89.3198 140.3C89.3798 140.25 89.4798 140.16 89.6398 140.09L89.5998 140.16C91.0898 140.98 93.9498 142.82 96.3898 145.89C96.9698 146.61 97.5298 147.4 98.0298 148.27C98.7598 149.5 99.3898 150.87 99.8598 152.4C100.25 153.69 100.52 155.02 100.64 156.37Z" fill="#E85E5C"/>
<path d="M105.67 152.09C105.19 152.35 104.64 152.69 104.04 153.11C103.64 153.4 102.82 153.97 102.03 154.72C101.88 153.77 101.65 152.84 101.37 151.92C99.9399 147.28 97.1499 143.97 94.6099 141.76C94.6299 141.75 94.6399 141.75 94.6499 141.75C94.9399 141.68 95.1799 141.55 95.3999 141.39C95.5099 141.31 95.6199 141.23 95.7199 141.13C95.8699 140.99 96.0299 140.84 96.1899 140.68C96.2499 140.63 96.2999 140.57 96.3599 140.52C96.4499 140.44 96.5399 140.36 96.6399 140.27C96.9199 140.03 97.2499 139.8 97.6499 139.59H97.6599C97.8799 139.48 98.1199 139.39 98.3799 139.3C98.5299 139.25 98.7299 139.19 98.9499 139.14C99.2899 139.05 99.6899 138.98 100.12 138.91C100.45 138.86 100.77 138.83 101.05 138.81C101.44 138.79 101.78 138.78 102.08 138.79C102.1 138.77 102.11 138.76 102.12 138.75C102.17 138.81 102.23 138.87 102.28 138.93C103.94 140.74 105.87 143.66 106.11 147.62C106.24 149.28 106.03 150.78 105.67 152.09Z" fill="#E85E5C"/>
<path d="M121.45 147.281C121.33 147.441 121.2 147.561 121.06 147.641C120.96 147.701 120.86 147.741 120.79 147.771C118.27 149.491 116.06 150.951 114.23 152.131C114.13 152.191 114.02 152.261 113.9 152.341C113.47 152.611 112.89 152.911 112.12 153.061C110.19 153.411 108.48 152.471 107.55 151.841C107.51 151.811 107.45 151.781 107.39 151.751C107.68 150.491 107.82 149.071 107.73 147.541C107.52 144.041 106.13 141.281 104.64 139.281C104.18 138.661 103.72 138.121 103.27 137.651C104.36 136.581 105.32 135.651 106.08 134.911C106.49 134.521 106.84 134.181 107.15 133.881C109.02 134.591 110.75 135.141 112.26 135.561C112.53 135.481 112.81 135.401 113.09 135.311C113.11 135.331 113.13 135.361 113.15 135.381C113.27 135.521 113.39 135.671 113.51 135.831C116.06 139.011 118.23 141.771 120.24 144.131C120.72 144.701 121.12 145.161 121.37 145.441C121.77 146.061 121.8 146.791 121.45 147.281Z" fill="#E85E5C"/>
<path d="M64.9002 133.86C64.6602 137.03 64.6102 141.47 65.5002 146.75C65.5902 147.25 65.6802 147.76 65.7802 148.28C64.2002 147.38 61.6502 146.22 58.3502 145.84C56.9102 145.67 53.2602 145.3 49.2002 147.02C47.9102 147.57 46.9102 148.19 46.2202 148.67C46.3002 148.49 46.4002 148.29 46.5102 148.07C46.8102 147.45 47.2202 146.67 47.7102 145.79C50.1202 141.54 52.8202 138.41 59.0202 132.32C61.0702 130.31 63.5202 127.95 66.3402 125.34C66.3302 125.37 66.3302 125.4 66.3202 125.43C65.6202 128.99 65.1802 131.9 64.9002 133.86Z" fill="#E85E5C"/>
<mask id="mask1" mask-type="alpha" maskUnits="userSpaceOnUse" x="46" y="125" width="21" height="24">
<path d="M64.9002 133.86C64.6602 137.03 64.6102 141.47 65.5002 146.75C65.5902 147.25 65.6802 147.76 65.7802 148.28C64.2002 147.38 61.6502 146.22 58.3502 145.84C56.9102 145.67 53.2602 145.3 49.2002 147.02C47.9102 147.57 46.9102 148.19 46.2202 148.67C46.3002 148.49 46.4002 148.29 46.5102 148.07C46.8102 147.45 47.2202 146.67 47.7102 145.79C50.1202 141.54 52.8202 138.41 59.0202 132.32C61.0702 130.31 63.5202 127.95 66.3402 125.34C66.3302 125.37 66.3302 125.4 66.3202 125.43C65.6202 128.99 65.1802 131.9 64.9002 133.86Z" fill="#E85E5C"/>
</mask>
<g mask="url(#mask1)">
<path d="M63 133C55.4 135.8 47.8333 145.167 45 149.5C47 139.1 60.8333 127.5 67.5 123L66 149.5C62.4 143.1 62.5 135.833 63 133Z" fill="#DC505E"/>
</g>
<path d="M102.04 154.72C101.85 154.89 101.67 155.08 101.49 155.27C101.13 155.66 100.86 156.02 100.65 156.36C100.52 155.01 100.26 153.68 99.8601 152.39C99.3901 150.87 98.7501 149.489 98.0301 148.259C97.5301 147.389 96.9701 146.6 96.3901 145.88C93.9501 142.81 91.0901 140.979 89.6001 140.149L89.6401 140.08C89.6501 140.07 89.6501 140.07 89.6601 140.07C89.7101 140.05 89.7601 140.03 89.8101 140.02C89.8701 140 89.9401 139.98 90.0201 139.97C90.5601 139.9 90.9501 140.199 91.0201 140.259C92.5601 141.609 93.6401 141.879 94.3901 141.789C94.4401 141.779 94.4901 141.78 94.5301 141.77C94.5601 141.76 94.5901 141.76 94.6301 141.75C97.1701 143.96 99.9501 147.27 101.39 151.91C101.66 152.84 101.88 153.78 102.04 154.72Z" fill="#DC505E"/>
<path d="M107.4 151.741C107.31 151.691 107.19 151.651 107.06 151.631C106.64 151.561 106.31 151.741 106.2 151.791C106.04 151.871 105.86 151.971 105.67 152.081C106.03 150.771 106.24 149.271 106.14 147.621C105.9 143.661 103.97 140.731 102.31 138.931C102.25 138.871 102.2 138.811 102.15 138.751C102.54 138.361 102.92 137.991 103.28 137.631C103.73 138.101 104.19 138.641 104.65 139.261C106.14 141.261 107.52 144.031 107.74 147.521C107.83 149.071 107.68 150.481 107.4 151.741Z" fill="#DC505E"/>
<path d="M75.6002 157.17C74.6902 156.99 73.7602 157.02 72.9002 157.44C72.7402 157.52 72.5802 157.61 72.4202 157.73C72.2402 157.86 72.0602 158 71.8902 158.18C70.9902 156.8 69.5202 154.89 67.2602 153.14C66.4502 152.51 65.1902 151.54 63.6202 150.66C61.2002 149.31 58.0302 148.21 54.5402 148.97C48.2602 150.35 45.3802 156.8 44.5902 158.59C43.5502 160.92 43.1902 163.04 43.0502 164.48C43.0602 166.99 43.0702 169.5 43.0802 172.01H41.7002C41.7102 169.53 41.7102 167.04 41.7102 164.56C41.7502 162.67 41.9602 160.01 42.7002 156.92C43.6502 152.98 44.2802 150.36 46.4002 148.18C46.4402 148.14 46.4702 148.11 46.5102 148.07C46.4002 148.29 46.3102 148.49 46.2202 148.67C46.9102 148.19 47.9102 147.57 49.2002 147.02C53.2602 145.3 56.9102 145.67 58.3502 145.84C61.6502 146.22 64.1902 147.38 65.7802 148.28C66.0302 148.44 66.2702 148.6 66.5302 148.76C66.5502 148.78 66.5802 148.79 66.6002 148.81C67.5602 149.44 68.5302 150.1 69.5202 150.79C70.5802 151.53 71.6602 152.3 72.7402 153.11C72.8702 153.39 73.0202 153.67 73.1802 153.94C73.8802 155.18 74.7102 156.25 75.6002 157.17Z" fill="#54688C"/>
<path d="M85.2298 153.94C86.3298 153.99 87.4698 155.89 86.7698 157.06C86.3098 157.84 85.0398 158.29 84.1698 157.71C83.2698 157.11 83.3598 155.8 83.7598 155.04C83.9898 154.57 84.5598 153.91 85.2298 153.94Z" fill="white"/>
<path d="M86.5601 144.171C87.6901 144.111 88.6301 144.991 88.6501 146.061C88.6701 147.191 87.6401 148.011 86.7001 148.011C85.4001 148.021 84.3401 146.491 84.7501 145.371C84.9801 144.721 85.7101 144.251 86.5601 144.171Z" fill="white"/>
<path d="M89.8901 140.78C90.7501 140.69 91.65 141.36 91.6 141.88C91.57 142.27 91.01 142.5 90.85 142.57C89.93 142.95 88.61 142.65 88.49 142.09C88.37 141.6 89.1001 140.86 89.8901 140.78Z" fill="white"/>
<path d="M91.9099 151.54C92.8599 151.56 93.7799 152.29 93.8999 153.32C94.0199 154.39 93.2199 155.32 92.2499 155.51C91.1199 155.74 89.8899 154.92 89.7799 153.73C89.6799 152.53 90.7599 151.51 91.9099 151.54Z" fill="white"/>
<path d="M97.9399 155.211C98.7199 155.161 99.7099 155.611 99.9299 156.511C100.13 157.331 99.5999 158.121 98.9999 158.461C97.9299 159.071 96.2599 158.471 96.0199 157.431C95.7999 156.491 96.7799 155.291 97.9399 155.211Z" fill="white"/>
<path d="M103.77 148.52C104.77 148.53 105.56 149.39 105.62 150.34C105.67 151.11 105.23 151.9 104.52 152.19C103.45 152.62 102.01 151.82 101.88 150.61C101.78 149.59 102.64 148.51 103.77 148.52Z" fill="white"/>
<path d="M101.95 143.621C103.02 143.721 104.16 142.671 103.97 141.531C103.83 140.651 102.94 139.971 102.05 140.061C100.9 140.171 100.18 141.521 100.54 142.531C100.76 143.111 101.33 143.561 101.95 143.621Z" fill="white"/>
<path d="M110.55 148.759C111.48 148.719 112.39 149.549 112.33 150.579C112.28 151.589 111.31 152.359 110.34 152.189C109.31 152.009 108.74 150.839 109.04 149.929C109.25 149.299 109.86 148.789 110.55 148.759Z" fill="white"/>
<path d="M118.64 144.87C118.75 144.88 119.88 144.95 120.34 145.83C120.82 146.75 120.27 148.02 119.41 148.49C118.12 149.19 116.15 148.04 116.09 146.88C116.03 145.88 117.38 144.81 118.64 144.87Z" fill="white"/>
<path d="M111.1 139C112.19 139 113.11 139.95 113.04 141.04C112.97 142.04 112.08 142.82 111.09 142.81C110.07 142.8 109.17 141.97 109.17 140.91C109.17 139.83 110.08 139 111.1 139Z" fill="white"/>
<path d="M108 134.641C108.68 134.611 109.6 134.891 109.83 135.551C110.17 136.491 109.05 138.031 107.81 137.931C106.87 137.861 105.94 136.871 106.13 135.921C106.3 135.081 107.29 134.681 108 134.641Z" fill="white"/>
<path d="M137.66 156.041L137.4 156.251C137.3 156.331 137.2 156.411 137.11 156.491C136.57 156.931 136.04 157.371 135.51 157.801C135.29 157.981 135.07 158.161 134.86 158.331C134.8 158.381 134.71 158.441 134.58 158.481C134.55 158.491 134.53 158.501 134.5 158.511C134.37 158.541 134.27 158.551 134.25 158.551C133.81 158.531 133.38 158.521 132.95 158.511C132.73 158.501 132.5 158.501 132.28 158.501C131.95 158.501 131.61 158.511 131.27 158.521C131.11 157.621 130.74 156.771 130.19 156.071C130.06 155.911 129.83 155.621 129.53 155.341C129.78 155.261 130.03 155.181 130.28 155.101C131.33 155.261 132.1 155.111 132.61 154.951C133.37 154.711 133.89 154.311 134.36 154.021C134.72 153.791 135.05 153.601 135.44 153.571C135.54 153.561 135.63 153.551 135.73 153.561C135.77 153.571 135.81 153.571 135.85 153.581C136.4 153.661 136.83 153.991 137.09 154.251C137.16 154.421 137.25 154.621 137.33 154.851C137.45 155.171 137.58 155.571 137.66 156.041Z" fill="#E85E5C"/>
<path d="M144.69 165.23C143.94 165.88 143.2 166.52 142.45 167.17C142.42 168.19 142.4 169.22 142.38 170.24C141.26 169.93 140.11 169.6 138.94 169.23C138.5 169.09 138.06 168.95 137.62 168.81C137.02 168.61 136.42 168.41 135.85 168.21C134.76 167.83 133.69 167.43 132.67 167.03C132.6 167.01 132.54 166.98 132.47 166.96C132.06 166.8 131.66 166.64 131.26 166.48C130.98 166.62 130.62 166.77 130.17 166.87C129.76 166.96 129.39 166.99 129.1 166.99C130.13 167.9 130.86 169.08 131.55 170.29C131.63 170.43 131.71 170.58 131.79 170.72C132.03 171.16 132.26 171.59 132.51 172.02H125.82C125.44 170.51 125.46 169.17 125.55 168.21C125.19 168.27 124.79 168.34 124.33 168.42C124 168.47 123.64 168.53 123.27 168.58C123.14 168.6 123.02 168.61 122.89 168.63C122.45 168.69 122 168.75 121.51 168.79C119.55 168.99 118.56 169.09 118.06 168.79C117.74 168.59 117.55 168.35 117.28 166.75C119.32 166.73 121.36 166.71 123.4 166.7H123.54L123.66 166.63C123.9 166.48 124.28 166.23 124.7 165.88C125.34 165.35 125.68 164.9 126.07 164.37C126.14 164.27 126.22 164.17 126.31 164.06C126.42 164.2 126.54 164.33 126.67 164.45C126.78 164.56 126.9 164.66 127.03 164.74C127.07 164.77 127.1 164.79 127.14 164.81C127.2 164.85 127.27 164.89 127.34 164.92C127.38 164.94 127.42 164.96 127.46 164.97C127.51 164.99 127.57 165.01 127.62 165.02C127.65 165.03 127.68 165.04 127.72 165.04C127.78 165.06 127.84 165.06 127.9 165.07C127.92 165.08 127.93 165.08 127.95 165.08C127.98 165.09 128.01 165.09 128.05 165.09C129.17 165.1 129.97 163.92 130.33 163.4C130.56 163.05 130.77 162.68 130.93 162.28C131.06 161.97 131.16 161.64 131.24 161.3L134.51 161.32C134.55 161.32 134.61 161.33 134.67 161.33C134.74 161.33 134.82 161.32 134.9 161.31C134.91 161.31 134.92 161.31 134.92 161.3C134.99 161.29 135.06 161.27 135.12 161.26C135.22 161.23 135.32 161.2 135.41 161.15C135.63 161.04 135.79 160.89 135.89 160.78C135.92 160.75 135.94 160.72 135.96 160.69C136.55 160.22 137.13 159.74 137.72 159.27C137.67 160.19 137.62 160.71 137.5 161.09C137.38 161.45 137.1 162.15 136.32 162.9C136.07 163.14 135.77 163.38 135.4 163.62C135.28 163.7 135.14 163.78 135.01 163.86C135.14 163.93 135.32 164.02 135.54 164.12V164.13C135.65 164.18 135.77 164.23 135.9 164.27C136.17 164.37 136.43 164.45 136.75 164.51V164.52C137.27 164.62 137.91 164.69 138.89 164.72C139.12 164.73 139.37 164.73 139.63 164.73C140.32 164.74 141.19 164.72 142.22 164.68C143.02 164.83 143.86 165.04 144.69 165.23Z" fill="#E85E5C"/>
<path d="M124.91 161.261C124.72 161.501 124.53 161.761 124.3 162.031C123.99 162.401 123.67 162.731 123.32 163.041C123.18 163.171 123.04 163.291 122.9 163.411C122.7 163.411 122.49 163.401 122.29 163.401C120.48 163.381 118.67 163.371 116.86 163.351H116.79C116.74 162.891 116.68 162.391 116.61 161.851C116.54 161.271 116.46 160.501 116.89 159.791C117.13 159.391 117.6 158.911 119.11 158.471C120.39 158.091 121.3 158.081 122.12 158.061C122.49 158.051 122.83 158.051 123.18 158.011C123.65 157.971 124.13 157.871 124.67 157.641C124.73 157.611 124.8 157.591 124.87 157.561C124.42 159.001 124.66 160.381 124.91 161.261Z" fill="#E85E5C"/>
<path d="M124.32 168.39C123.99 168.44 123.63 168.5 123.26 168.55C123.09 167.93 122.94 167.31 122.81 166.67C122.59 165.6 122.42 164.51 122.3 163.4C122.11 161.65 122.06 159.87 122.13 158.06C122.5 158.05 122.84 158.05 123.19 158.01C123.12 159.7 123.16 161.38 123.33 163.03C123.45 164.19 123.62 165.32 123.85 166.45H123.86C123.98 167.11 124.14 167.76 124.32 168.39Z" fill="#DC505E"/>
<path d="M136.3 162.861C136.05 163.101 135.75 163.341 135.38 163.581C135.18 162.821 135.02 162.041 134.88 161.261C134.85 161.081 134.82 160.911 134.79 160.731C134.67 160.001 134.58 159.251 134.51 158.501C134.47 158.091 134.44 157.671 134.41 157.251C134.34 156.181 134.33 155.091 134.36 154.001C134.72 153.771 135.05 153.581 135.44 153.551C135.4 154.501 135.39 155.451 135.43 156.391C135.45 156.861 135.47 157.331 135.51 157.801C135.57 158.581 135.65 159.351 135.76 160.111C135.79 160.321 135.82 160.531 135.86 160.741C135.98 161.451 136.13 162.161 136.3 162.861Z" fill="#DC505E"/>
<path d="M125.12 161.86C125 162.02 124.86 162.19 124.71 162.37C124.36 162.77 123.84 163.34 123.1 163.94C121.02 163.92 118.94 163.9 116.86 163.88C116.84 163.71 116.82 163.53 116.79 163.35H116.86C118.87 163.37 120.89 163.39 122.9 163.41C123.4 162.99 123.86 162.53 124.3 162.02C124.52 161.75 124.72 161.49 124.91 161.25C124.99 161.5 125.05 161.7 125.12 161.86Z" fill="white"/>
<path d="M137.74 156.659C137.01 157.249 136.29 157.839 135.57 158.429C135.44 158.539 135.3 158.639 135.17 158.749C135.07 158.819 134.94 158.899 134.76 158.969C134.55 159.039 134.36 159.069 134.23 159.069C133.33 159.029 132.37 159.009 131.36 159.039C131.34 158.859 131.32 158.679 131.28 158.509C131.62 158.499 131.96 158.489 132.29 158.489C132.93 158.489 133.59 158.509 134.26 158.529C134.29 158.529 134.42 158.519 134.59 158.469C134.71 158.429 134.8 158.369 134.87 158.319C135.08 158.139 135.3 157.959 135.52 157.789C136.05 157.359 136.58 156.919 137.12 156.479C137.22 156.399 137.32 156.319 137.41 156.239L137.67 156.029C137.68 156.069 137.69 156.109 137.69 156.159C137.7 156.209 137.71 156.279 137.72 156.389C137.72 156.469 137.73 156.559 137.74 156.659Z" fill="white"/>
<path d="M126.3 164.02C126.22 164.13 126.14 164.23 126.06 164.33C125.67 164.86 125.33 165.31 124.69 165.84C124.27 166.2 123.89 166.45 123.65 166.59L123.53 166.66H123.39C121.35 166.68 119.31 166.69 117.27 166.71C117.24 166.55 117.22 166.37 117.19 166.18C119.26 166.16 121.32 166.14 123.39 166.13C123.63 165.99 123.98 165.75 124.36 165.43C125.1 164.8 125.41 164.29 125.99 163.57C126.07 163.73 126.19 163.88 126.3 164.02Z" fill="white"/>
<path d="M94.34 147.74C94.24 146.86 95 146.11 95.75 145.92C96.9 145.63 98.27 146.64 98.22 147.67C98.17 148.5 97.21 149.21 96.27 149.21C95.44 149.21 94.44 148.67 94.34 147.74Z" fill="white"/>
<path d="M124.16 144.53L124.51 152.17C124.52 152.35 124.35 152.48 124.18 152.44L120.46 151.51C120.29 151.47 120.21 151.29 120.29 151.13L123.66 144.42C123.78 144.17 124.14 144.25 124.16 144.53Z" fill="#E85E5C"/>
<path d="M137.74 158.52V158.54C137.73 158.79 137.72 159.03 137.7 159.24C137.12 159.71 136.53 160.19 135.94 160.66C135.92 160.69 135.89 160.72 135.87 160.75C135.77 160.86 135.61 161.01 135.39 161.12C135.3 161.17 135.2 161.21 135.1 161.23C135.04 161.25 134.97 161.26 134.9 161.27C134.89 161.28 134.88 161.28 134.88 161.28C134.81 161.29 134.73 161.3 134.65 161.3C134.58 161.3 134.52 161.29 134.49 161.29L131.22 161.27C131.26 161.09 131.29 160.92 131.32 160.74C132.39 160.75 133.47 160.75 134.54 160.76C134.6 160.77 134.73 160.78 134.87 160.74C134.91 160.73 134.95 160.72 135 160.7C135.05 160.68 135.1 160.67 135.14 160.64C135.36 160.53 135.49 160.36 135.55 160.28C135.62 160.22 135.69 160.17 135.76 160.12C136.42 159.57 137.08 159.05 137.74 158.52Z" fill="white"/>
<path d="M125.97 163.569C125.4 164.299 125.09 164.809 124.34 165.439C123.96 165.759 123.61 165.999 123.37 166.139C121.3 166.159 119.24 166.169 117.17 166.189C117.08 165.589 116.98 164.839 116.86 163.879C118.94 163.899 121.02 163.919 123.1 163.939C123.84 163.339 124.36 162.769 124.71 162.369C124.86 162.189 125 162.019 125.12 161.859C125.13 161.889 125.15 161.919 125.16 161.959C125.26 162.219 125.54 162.909 125.97 163.569Z" fill="#54688C"/>
<path d="M137.74 158.52C137.08 159.05 136.43 159.58 135.77 160.11C135.7 160.16 135.63 160.22 135.56 160.27C135.5 160.35 135.37 160.51 135.15 160.63C135.1 160.66 135.05 160.67 135.01 160.69C134.97 160.71 134.92 160.72 134.88 160.73C134.73 160.76 134.61 160.75 134.55 160.75C133.48 160.74 132.4 160.74 131.33 160.73C131.41 160.17 131.43 159.6 131.37 159.05C132.38 159.02 133.34 159.04 134.24 159.08C134.37 159.08 134.56 159.06 134.77 158.98C134.95 158.92 135.08 158.83 135.18 158.76C135.31 158.65 135.45 158.54 135.58 158.44C136.3 157.84 137.02 157.26 137.75 156.67C137.76 157.03 137.78 157.61 137.74 158.52Z" fill="#54688C"/>
<path d="M135.84 153.559C135.8 153.549 135.76 153.549 135.72 153.539C135.62 153.529 135.53 153.529 135.43 153.549C135.04 153.579 134.71 153.769 134.35 153.999C133.87 154.299 133.36 154.689 132.6 154.929C132.09 155.089 131.32 155.239 130.27 155.079C130.38 154.809 130.49 154.549 130.6 154.289C130.32 154.359 129.57 154.529 128.7 154.219C127.97 153.959 127.53 153.509 127.34 153.289C127.33 152.009 127.31 150.729 127.3 149.449C127.32 147.719 127.14 143.649 124.56 139.479C123.89 138.389 123.15 137.449 122.41 136.659C122.22 135.609 121.84 134.709 121.5 133.789C121.35 133.379 121.16 132.859 120.96 132.249C124.01 130.819 127.32 128.929 130.69 126.459C130.99 126.239 131.3 126.019 131.6 125.789C131.75 125.639 131.9 125.499 132.04 125.369C132.04 125.379 132.03 125.379 132.03 125.389C131.98 125.539 131.94 125.689 131.9 125.849C131.78 126.339 131.67 126.839 131.58 127.339C131.58 127.349 131.58 127.349 131.58 127.349C130.9 130.969 130.96 134.389 130.96 134.389C131 136.349 131.2 137.769 131.3 138.399C131.6 140.259 131.92 142.209 133.08 144.399C133.7 145.579 134.4 146.869 135.75 147.849C135.75 147.859 135.76 147.859 135.76 147.859C136.75 149.789 136.21 151.899 135.84 153.559Z" fill="#56595B"/>
<path d="M131.32 160.73C131.29 160.91 131.26 161.09 131.22 161.26C131.15 161.6 131.04 161.93 130.91 162.24C130.75 162.64 130.55 163.01 130.31 163.36C129.95 163.88 129.15 165.05 128.03 165.05C127.33 165.05 126.75 164.59 126.29 164.02C126.18 163.88 126.07 163.73 125.97 163.57V163.56C125.53 162.9 125.26 162.21 125.15 161.95C125.14 161.92 125.12 161.89 125.11 161.85C125.05 161.69 124.98 161.48 124.9 161.24C124.65 160.36 124.41 158.98 124.86 157.55C124.94 157.29 125.04 157.02 125.17 156.76C125.26 156.58 125.41 156.28 125.62 155.96C125.92 155.49 126.36 154.96 126.93 154.69C127.15 154.58 127.39 154.51 127.64 154.5C128.39 154.45 129.04 154.87 129.51 155.31C129.82 155.59 130.04 155.88 130.17 156.04C130.73 156.75 131.09 157.6 131.25 158.49C131.29 158.66 131.31 158.84 131.33 159.02C131.41 159.6 131.4 160.17 131.32 160.73Z" fill="#F9DE81"/>
<path d="M136.23 167.87L135.84 168.2L134.85 169.04C134.82 169.06 134.81 169.091 134.82 169.131L135 170.93C135.01 171.01 134.93 171.061 134.86 171.021L133.31 170.071C133.28 170.051 133.25 170.05 133.23 170.06L131.78 170.7L131.57 170.801C131.5 170.831 131.42 170.771 131.44 170.691L131.54 170.28L131.86 168.941C131.87 168.911 131.86 168.881 131.84 168.851L130.63 167.5C130.58 167.44 130.62 167.351 130.69 167.351L132.5 167.211C132.53 167.201 132.55 167.191 132.57 167.161C132.6 167.121 132.62 167.07 132.65 167.03C132.93 166.55 133.21 166.071 133.48 165.601C133.52 165.531 133.62 165.54 133.64 165.61C133.87 166.17 134.1 166.73 134.33 167.28C134.34 167.31 134.37 167.33 134.4 167.34L136.17 167.72C136.26 167.72 136.29 167.82 136.23 167.87Z" fill="#F9DE81"/>
<path d="M125.8 171.999H60.1001C64.6801 170.379 68.3701 168.279 71.0701 166.489C71.4301 165.629 71.7901 164.519 71.9901 163.199C72.3101 161.119 72.1101 159.359 71.8701 158.179C72.0501 157.999 72.2301 157.859 72.4001 157.729C72.5601 157.609 72.7201 157.519 72.8801 157.439C73.7401 157.019 74.6801 156.989 75.5801 157.169C78.2501 159.929 81.4901 161.359 83.5401 162.059C84.2901 162.759 85.0201 163.449 85.7301 164.129C86.5701 163.379 88.2501 161.729 89.4001 159.209C90.5301 159.179 91.2101 158.929 92.2301 159.309C92.8701 159.539 93.7501 160.059 94.5901 161.369C96.8601 161.209 98.0701 160.429 98.7501 159.769C99.8401 158.699 99.7601 157.749 100.64 156.379C100.85 156.049 101.12 155.679 101.48 155.289C101.66 155.089 101.84 154.909 102.03 154.739C102.82 153.979 103.64 153.409 104.04 153.129C104.63 152.709 105.19 152.369 105.66 152.109H105.67C105.86 151.999 106.04 151.899 106.2 151.819C106.31 151.759 106.64 151.589 107.06 151.659C107.19 151.679 107.31 151.719 107.4 151.769C107.46 151.799 107.52 151.829 107.56 151.859C108.49 152.489 110.21 153.429 112.13 153.079C112.9 152.939 113.48 152.629 113.91 152.359C114.03 152.289 114.14 152.219 114.24 152.149C114.9 151.819 116.27 151.269 118.02 151.409C118.9 151.479 119.62 151.709 120.14 151.929C120.13 152.359 120.15 152.879 120.23 153.439C120.32 154.039 120.45 154.559 120.59 154.979C122.27 155.329 123.96 155.669 125.64 156.009C125.43 156.329 125.28 156.629 125.19 156.809C125.06 157.069 124.96 157.339 124.88 157.599C124.81 157.629 124.75 157.659 124.68 157.679C122.81 158.449 121.73 157.739 119.12 158.499C117.61 158.939 117.14 159.419 116.9 159.819C116.47 160.519 116.55 161.289 116.62 161.879C116.68 162.429 116.74 162.929 116.8 163.379C116.83 163.569 116.85 163.739 116.87 163.909C116.99 164.859 117.09 165.619 117.18 166.219C117.21 166.409 117.24 166.589 117.26 166.749C117.53 168.349 117.72 168.589 118.04 168.789C118.53 169.089 119.53 168.989 121.49 168.789C123.17 168.609 124.56 168.389 125.54 168.209C125.44 169.149 125.43 170.489 125.8 171.999Z" fill="white"/>
<path d="M154.8 137.791C155.17 137.101 155.46 136.421 155.68 135.701C157.23 130.671 156.91 123.791 152.86 118.901C151.69 117.491 150.44 116.531 149.45 115.881C145.466 117.254 136.8 120.7 132 125.5C130.693 130.721 129.222 142.896 135.79 147.831C136.76 149.781 136.21 151.891 135.85 153.551C135.62 154.631 135.46 155.511 135.84 156.041C135.88 156.101 135.93 156.161 135.99 156.211C136.19 156.381 136.52 156.531 137.11 156.481C137.41 156.461 137.79 156.381 138.26 156.221C138.27 156.221 138.29 156.221 138.3 156.211C140.8 153.971 144.21 150.721 147.96 146.491C151.43 142.591 153.56 140.161 154.8 137.791Z" fill="#54688C"/>
<path d="M122.42 136.66C120.97 135.09 119.53 134.08 118.57 133.48C118.52 133.45 118.46 133.42 118.41 133.38C119.24 133.03 120.09 132.66 120.97 132.24C121.17 132.85 121.35 133.37 121.51 133.78C121.86 134.71 122.24 135.6 122.42 136.66Z" fill="#E85E5C"/>
<path d="M136.72 164.48C136.4 164.41 136.14 164.33 135.87 164.24C135.74 164.19 135.63 164.14 135.51 164.1V164.09C135.29 164 135.12 163.9 134.98 163.83C135.12 163.75 135.25 163.67 135.37 163.59C135.74 163.35 136.04 163.11 136.29 162.87C137.07 162.12 137.35 161.41 137.47 161.06C137.6 160.68 137.65 160.16 137.69 159.24C137.71 159.03 137.72 158.8 137.73 158.54V158.52C137.77 157.62 137.76 157.03 137.73 156.67C137.72 156.56 137.71 156.48 137.71 156.4C137.88 156.36 138.06 156.3 138.26 156.24C138.55 158.96 138.75 161.78 138.86 164.68C137.87 164.65 137.23 164.58 136.72 164.48Z" fill="white"/>
<path d="M83.55 162.059C81.5 161.359 78.26 159.939 75.59 157.169C74.7 156.249 73.87 155.179 73.17 153.939C73.01 153.659 72.87 153.379 72.73 153.109C73.95 154.009 75.18 154.959 76.43 155.959C76.61 156.089 76.78 156.239 76.96 156.379C79.34 158.289 81.53 160.189 83.55 162.059Z" fill="#E85E5C"/>
<path d="M132.66 167.021C132.63 167.061 132.61 167.111 132.58 167.151C132.56 167.181 132.54 167.191 132.51 167.201L130.7 167.341C130.63 167.351 130.59 167.441 130.64 167.491L131.85 168.841C131.87 168.861 131.88 168.891 131.87 168.931L131.55 170.271C130.86 169.051 130.13 167.881 129.1 166.971C129.39 166.971 129.75 166.941 130.17 166.851C130.62 166.751 130.98 166.601 131.26 166.461C131.66 166.621 132.06 166.781 132.47 166.941C132.52 166.971 132.59 167.001 132.66 167.021Z" fill="white"/>
<path d="M138.94 169.219C138.94 170.139 138.93 171.059 138.9 171.999H132.5C132.26 171.569 132.02 171.129 131.78 170.699L133.23 170.059C133.26 170.039 133.29 170.049 133.31 170.069L134.86 171.019C134.92 171.059 135.01 171.009 135 170.929L134.82 169.129C134.81 169.099 134.83 169.069 134.85 169.039L135.84 168.199C136.42 168.399 137.01 168.599 137.61 168.799C138.06 168.949 138.5 169.079 138.94 169.219Z" fill="white"/>
<path d="M125.8 172H120.4C121.08 170.9 121.92 169.76 122.87 168.6C123 168.58 123.13 168.57 123.25 168.55C123.63 168.5 123.98 168.44 124.31 168.39C124.77 168.32 125.18 168.25 125.53 168.18C125.44 169.15 125.43 170.49 125.8 172Z" fill="white"/>
<path d="M77.3001 105.439C76.5401 105.639 75.5401 106.09 74.5701 106.09C74.3501 106.09 74.1201 106.08 73.8901 106.06C73.7001 106.05 73.5101 106.03 73.3101 105.99C72.9801 105.95 72.6501 105.89 72.3101 105.79C72.1101 105.75 71.9201 105.69 71.7201 105.62C71.3101 105.48 70.9301 105.31 70.5801 105.12C70.4001 105.03 70.2301 104.92 70.0601 104.81C69.9001 104.71 69.7401 104.6 69.5801 104.49C69.3401 104.32 69.1101 104.13 68.8601 103.92C68.7101 103.8 68.5601 103.67 68.4001 103.53C68.0901 103.26 67.7601 102.96 67.4001 102.64C66.4001 101.72 64.6501 100.11 63.1901 97.5C61.7401 94.9 60.04 92.55 60.5 90.5C61.03 88.19 64.1801 85.57 67.6301 83.47C69.9501 82.07 72.0201 81.2 73.3901 80.7C73.5301 80.67 73.6901 80.63 73.8401 80.59C74.0001 80.56 74.1501 80.53 74.3001 80.5C74.3301 80.96 74.1301 82.9685 74.1601 83.4485C74.1901 83.8785 74.2201 84.3185 74.2501 84.7685C74.2701 84.9785 74.2801 85.1985 74.3001 85.4185V85.4285C74.3601 86.2585 74.4301 87.1185 74.5001 87.9985C74.5001 88.4485 74.5601 88.7885 74.5701 88.9285C74.6201 89.5585 74.6701 90.1585 74.7201 90.7485C74.7901 91.6385 74.8601 92.4785 74.9401 93.2885C74.9601 93.5885 74.9901 93.8785 75.0201 94.1585C75.0301 94.2685 75.0401 94.3785 75.0601 94.4885C75.1801 95.6685 75.3101 96.7785 75.4801 97.8585C75.5501 98.3785 75.6301 98.8885 75.7301 99.3885C75.8401 100.079 75.9801 100.749 76.1301 101.419C76.2401 101.869 76.3501 102.319 76.4701 102.759C76.7001 103.659 76.9801 104.549 77.3001 105.439Z" fill="#E2C9B0"/>
<path d="M69.5 99.4995C72.3 98.6995 74.3333 99.4995 75 99.9995C76.4999 95.4991 69 94 70.5 90C71.7 86.8 70 85 69 84.5C59 88 66 100.5 69.5 99.4995Z" fill="#D0B8A0"/>
<path d="M84.73 72.9297C85.03 72.4797 85.49 71.8397 86.12 71.1297C86.82 70.3297 89.37 67.5997 95.07 65.6297C99.66 64.0297 103.51 62.6997 107.92 64.1897C111.69 65.4597 113.97 68.1397 115.01 69.5597C113.54 68.4997 110.97 66.9297 107.46 66.1997C101.68 64.9997 96.88 66.8397 93.32 68.2097C91.2 69.0097 88.1 70.4297 84.73 72.9297Z" fill="#473830"/>
<path d="M133.39 66.1509C133.6 65.6609 135.08 62.4609 138.48 61.5709C141.44 60.8009 143.89 62.3009 145.21 63.1109C147.7 64.6309 148.97 66.7409 149.5 67.7609C146.23 64.0209 141.66 62.2809 137.7 63.4209C135.7 64.0009 134.27 65.2009 133.39 66.1509Z" fill="#473830"/>
<path d="M89.0998 86.9208C88.9798 86.9308 87.9098 86.9908 87.1498 86.1508C86.4598 85.3808 86.5498 84.4408 86.5698 84.3008C87.3498 85.2708 88.1098 85.6608 88.6398 85.8408C89.2298 86.0408 89.5698 85.9908 91.0698 86.1108C91.0698 86.1108 92.1698 86.2008 93.4398 86.3508C94.7598 86.5208 95.6798 86.7808 97.3298 87.2108C99.2198 87.7008 100.58 88.1908 101.79 88.5808C104.17 89.3508 105.55 89.8608 106.62 91.1808C106.94 91.5708 107.15 91.9308 107.27 92.1708C107.1 92.0008 106.73 91.6708 106.14 91.5208C105.76 91.4208 105.43 91.4408 105.22 91.4708C105.59 91.9208 105.97 92.4308 106.34 93.0308C106.6 93.4508 106.83 93.8508 107.03 94.2308C105.5 93.4008 103.31 92.4008 100.55 91.7508C99.8698 91.5908 97.4798 91.0508 94.3498 91.0308C88.9998 91.0008 84.5398 92.5308 81.6298 93.8408C81.8398 93.4908 82.1798 92.9908 82.7298 92.5008C83.1898 92.0908 83.4598 91.9808 83.8998 91.5708C84.2098 91.2808 84.6198 90.8308 84.9998 90.1308C84.6898 90.1808 84.3498 90.2108 83.9898 90.2308C83.4098 90.2608 82.8698 90.2508 82.3998 90.2108C82.9698 90.0708 83.6498 89.8508 84.3898 89.4708C84.8098 89.2508 85.1798 89.0208 85.4998 88.8008C85.1398 88.8208 83.7198 88.8808 82.4898 87.8708C81.7798 87.2908 81.4398 86.6108 81.2798 86.2208C81.9798 86.6608 83.5798 87.5408 85.7798 87.5608C87.2298 87.6008 88.3998 87.2108 89.0998 86.9208Z" fill="#473830"/>
<path d="M149.9 87.3506C149.1 88.0106 148.31 88.6906 147.5 89.4106C145.6 91.0906 143.84 92.7506 142.2 94.4006C142.16 94.4406 142.13 94.4706 142.08 94.5206C142.61 93.7806 143.3 92.6906 143.9 91.2606C144.36 90.1806 145.12 88.3706 145.13 86.3606C145.15 83.9406 144.09 79.9606 141.17 78.8006C138.06 77.5706 134.51 80.2006 132.38 81.7906C130.71 83.0306 129.56 84.3506 128.85 85.2606C128.67 84.3406 128.5 83.4106 128.33 82.4906C129.52 81.1706 131.43 79.3806 134.17 77.9306C135.91 77.0106 137.53 76.4606 138.85 76.1306C138.87 75.9606 138.93 75.6606 139.13 75.3606C139.44 74.8806 139.89 74.7006 140.05 74.6406C140.01 74.7006 139.75 75.0606 139.84 75.5206C139.89 75.7606 140.03 75.9306 140.1 76.0106C140.29 75.9406 141.51 75.5406 142.62 76.2206C143.09 76.5006 143.36 76.8806 143.52 77.1306C143.98 77.0206 144.47 76.9206 144.99 76.8406C145.52 76.7506 146.03 76.6806 146.5 76.6306C146.23 76.7506 145.76 77.0206 145.37 77.5306C145.16 77.8006 145.04 78.0706 144.96 78.2806C145.15 78.4306 145.39 78.6506 145.6 78.9506C145.76 79.1706 145.88 79.3906 145.96 79.5706C145.99 79.6106 146.49 80.3806 146.52 80.4306C146.54 80.4606 146.97 81.1106 146.99 81.1406C147.34 81.1306 147.7 81.1306 148.07 81.1406C148.48 81.1506 148.88 81.1606 149.27 81.1706C149.05 81.3706 148.73 81.6106 148.33 81.8106C147.86 82.0606 147.42 82.1806 147.09 82.2506C147.23 82.9006 147.47 83.6806 147.88 84.5306C148.53 85.7906 149.31 86.7306 149.9 87.3506Z" fill="#473830"/>
<path d="M141.35 88.9303C140.59 90.8303 139.43 92.2703 138.47 93.3003C135.82 90.6503 132.06 91.2503 131.39 91.3603C130.41 91.5103 128.99 91.7403 127.96 92.7203C127.56 90.8803 127.89 88.9903 128.06 87.9503C128.07 87.8803 128.09 87.8103 128.1 87.7403C128.22 88.1503 128.43 88.5003 128.73 88.7403C129.52 89.4003 130.79 89.2203 131.58 88.8403C132.88 88.2203 133.73 86.6803 133.81 85.3303C133.87 85.3203 133.93 85.3203 134 85.3203H134.02C136.32 85.3203 138.48 86.2103 140.43 87.9603C140.75 88.2703 141.07 88.5903 141.35 88.9303Z" fill="#8C72BD"/>
<path d="M142.05 86.38C142.01 86.65 141.96 86.92 141.9 87.18C141.77 87.05 141.63 86.91 141.49 86.79C139.24 84.77 136.72 83.74 134.02 83.74H134C133.81 83.74 133.62 83.75 133.44 83.76C133.4 83.71 133.36 83.65 133.32 83.61C132.79 83.03 131.86 82.83 130.97 82.96C131.39 82.57 131.87 82.18 132.39 81.79C134.07 80.55 136.63 78.65 139.16 78.5C140.07 78.97 140.67 79.7 140.86 79.92C142.69 82.13 142.25 85.07 142.05 86.38Z" fill="#8C72BD"/>
<path d="M131.59 88.8391C130.79 89.2191 129.52 89.3991 128.74 88.7391C128.45 88.4991 128.24 88.1491 128.11 87.7391C128.34 86.5191 128.7 85.6191 128.86 85.2491C129.34 84.6191 130.03 83.7991 130.96 82.9491C131.85 82.8191 132.78 83.0091 133.31 83.5991C134.49 84.8991 133.53 87.9191 131.59 88.8391Z" fill="white"/>
<path d="M138.47 93.3004C138.25 93.5304 138.05 93.7404 137.86 93.9304C136.62 95.2004 135.21 96.6604 133.76 97.4304C133.71 97.4204 133.66 97.4204 133.61 97.4104C132.88 97.3104 130.84 97.0404 129.34 95.4604C128.59 94.6504 128.17 93.7004 127.95 92.7204C128.98 91.7404 130.39 91.5104 131.38 91.3604C132.06 91.2404 135.83 90.6504 138.47 93.3004Z" fill="#BD9AFF"/>
<path d="M141.49 86.7902C139.24 84.7702 136.72 83.7402 134.02 83.7402H134C133.81 83.7402 133.62 83.7502 133.44 83.7602C133.74 84.1802 133.86 84.7402 133.82 85.3402C133.88 85.3302 133.94 85.3302 134.01 85.3302H134.03C136.33 85.3302 138.49 86.2202 140.44 87.9702C140.77 88.2702 141.08 88.5902 141.37 88.9302C141.59 88.3902 141.78 87.8002 141.92 87.1802C141.77 87.0502 141.63 86.9202 141.49 86.7902ZM135.37 85.2702C135 85.4602 134.39 85.1402 134.32 84.6502C134.27 84.2702 134.54 83.8302 134.94 83.8002C135.3 83.7702 135.58 84.1002 135.66 84.3902C135.74 84.7202 135.65 85.1302 135.37 85.2702Z" fill="#473830"/>
<path d="M133.92 87.0391C134.35 87.1891 134.56 88.4391 134 88.9091C133.76 89.1091 133.32 89.1991 133.04 88.9991C132.68 88.7291 132.82 88.1191 132.85 88.0091C133 87.4291 133.58 86.9191 133.92 87.0391Z" fill="#473830"/>
<path d="M130.45 89.6899C130.54 89.9999 130.64 90.4699 130.57 91.0199C130.54 91.2399 130.5 91.4399 130.45 91.5999C130.36 91.6499 130.26 91.7199 130.15 91.8199C129.99 91.9699 129.89 92.1399 129.83 92.2499C130 92.1999 130.23 92.1599 130.52 92.1599C130.76 92.1599 130.97 92.1999 131.12 92.2499C131.24 92.3199 131.37 92.3999 131.5 92.4699C131.68 92.5799 131.86 92.6899 132.03 92.7999C132.11 92.9299 132.2 93.0899 132.27 93.2799C132.34 93.4599 132.38 93.6299 132.41 93.7699C132.5 93.5799 132.66 93.3099 132.92 93.0499C133.22 92.7499 133.52 92.5799 133.73 92.4799C134 92.3599 134.27 92.2299 134.54 92.1099C134.56 92.1999 134.63 92.3999 134.81 92.5699C135.02 92.7699 135.25 92.8099 135.34 92.8299C135.28 92.7499 135.17 92.5799 135.13 92.3299C135.1 92.1099 135.14 91.9299 135.16 91.8299C135.3 91.6999 135.47 91.5199 135.62 91.2999C135.84 90.9899 135.97 90.6899 136.05 90.4599C136.08 90.4899 136.15 90.5599 136.26 90.5899C136.38 90.6299 136.48 90.6099 136.52 90.5999C136.49 90.5599 136.37 90.4199 136.36 90.2099C136.35 89.9899 136.46 89.8299 136.49 89.7899C136.55 89.5199 136.59 89.1699 136.56 88.7499C136.54 88.5299 136.51 88.3399 136.46 88.1699C136.35 88.6899 136.07 89.6799 135.25 90.5899C134.78 91.1099 134.06 91.9099 133.06 91.9199C132 91.9399 130.96 91.0299 130.45 89.6899Z" fill="#473830"/>
<path d="M145.14 86.3496C145.13 88.3596 144.36 90.1696 143.91 91.2496C143.31 92.6696 142.62 93.7696 142.09 94.5096C141.53 95.0496 140.87 95.4796 139.79 95.9496C137.54 96.9296 135.88 97.6596 133.77 97.4296C135.22 96.6596 136.63 95.2096 137.87 93.9296C139.22 92.5296 141.49 90.1296 142.06 86.3896C142.26 85.0696 142.7 82.1296 140.86 79.9096C140.67 79.6896 140.07 78.9596 139.16 78.4896C139.84 78.4496 140.53 78.5396 141.18 78.7996C144.1 79.9496 145.15 83.9296 145.14 86.3496Z" fill="white"/>
<path d="M135.37 85.2707C135 85.4607 134.39 85.1407 134.32 84.6507C134.27 84.2707 134.54 83.8307 134.94 83.8007C135.3 83.7707 135.58 84.1007 135.66 84.3907C135.74 84.7207 135.65 85.1307 135.37 85.2707Z" fill="white"/>
<path d="M163 43.5003C164.5 47.0003 167.3 55.5003 166.5 61.5003C168.131 63.8025 170.8 68.3903 173 74.0818V81.6999L166.5 70.0003C167.5 78.0003 169.1 95.2003 167.5 100C168.897 100.399 171.203 100.464 173 99.0772V101.722C171.54 103.302 169.313 104.332 166 104C163.5 107 156.8 114 150 116C152 122.667 153.6 136.3 144 139.5C146.5 138.5 150.8 132.7 148 117.5C144 120.5 135.7 129.5 134.5 141.5C134 146.5 142 148.5 142 143.5C142.833 145.334 143.2 149 138 149C131.5 149 129.5 136.5 131.5 126C133.5 124 139.8 119.8 143 111C140 112.334 133.1 114 129.5 110C132.167 111.334 137.8 112.2 143 105C145.5 100 152 84 153 71C152.333 75.3333 151.2 78.8003 148 80.0003C150.5 72.5003 152.5 55.1003 140.5 45.5003C140 51.6669 136.3 65.1003 125.5 69.5003C129.167 66.6669 136.2 58.0003 135 46.0003C132.667 51.5003 126.2 63.1003 119 65.5003C121.5 64.0003 126.6 58.5003 127 48.5003C124.834 55.0003 117.4 68.5003 105 70.5003C107.667 68.8336 112.813 64.8711 113.5 58.0003C114 53.0003 111 51.5003 111 40.5003C108.334 44.0003 103.3 52.8003 104.5 60.0003C102.667 57.3336 100.9 48.5003 108.5 34.5003C96.3334 39.8336 73.9999 57.4003 81.9999 85.0003C80.3333 83.5003 76.9001 79.3003 76.5001 74.5003C74.6668 78.3336 72.1002 87.7003 76.5001 94.5003C74.5002 93.1669 70.6004 88.8003 71.0004 82.0003C69.3336 83.6669 65.3001 87.1003 62.5001 87.5003L61.0001 92.5003C62.8334 97.6669 68.6001 107.4 77.0001 105V110C74.3334 111.334 68.5001 116.4 66.5001 126L61.0001 131C56.5001 131.667 46.2001 132.3 41.0001 129.5C38.3334 130.834 33.4001 135.3 35.0001 142.5C33.3335 140.167 31.7002 134.1 38.5002 128.5C36.0002 127.667 29.9004 127.1 25.5004 131.5C20.5898 136.411 22.4549 141.321 24.6904 142.317C24.9676 142.394 25.2392 142.455 25.5004 142.5C25.2324 142.5 24.9587 142.437 24.6904 142.317C22.9812 141.844 21.0547 140.756 20 138.817V131.509C20.4478 130.295 21.1008 128.961 22 127.5C21.6773 127.662 20.9101 127.72 20 127.721V118.734C24.6819 119.041 31.2298 117.761 36 111.5C33.1616 113.048 26.8078 115.256 20 114.504V102.235C24.0818 98.7041 28.4439 93.7901 30.5 86.5003C28.1108 86.2925 23.8442 86.5379 20 88.205V83.2481C21.0043 82.8376 22.1641 82.5706 23.5 82.5003C22.6142 81.9688 21.4013 81.282 20 80.5449V74.7874C22.6659 75.0171 25.293 75.5347 27.5 76.5003C26.2579 74.9715 23.6134 72.4348 20 70.2468V47.8528C28.1291 53.9865 38.2814 57.3925 45.5 47.5003C43.2516 42.7038 39.7901 30.9245 42.0256 19H153.351C157.922 25.4812 161.297 33.5531 163 43.5003Z" fill="#8E6F60"/>
<mask id="mask2" mask-type="alpha" maskUnits="userSpaceOnUse" x="20" y="19" width="153" height="131">
<path d="M163 43.5003C164.5 47.0003 167.3 55.5003 166.5 61.5003C168.131 63.8025 170.8 68.3903 173 74.0818V81.6999L166.5 70.0003C167.5 78.0003 169.1 95.2003 167.5 100C168.897 100.399 171.203 100.464 173 99.0772V101.722C171.54 103.302 169.313 104.332 166 104C163.5 107 156.8 114 150 116C152 122.667 153.6 136.3 144 139.5C146.5 138.5 150.8 132.7 148 117.5C144 120.5 135.7 129.5 134.5 141.5C134 146.5 142 148.5 142 143.5C142.833 145.334 143.2 149 138 149C131.5 149 129.5 136.5 131.5 126C133.5 124 139.8 119.8 143 111C140 112.334 133.1 114 129.5 110C132.167 111.334 137.8 112.2 143 105C145.5 100 152 84 153 71C152.333 75.3333 151.2 78.8003 148 80.0003C150.5 72.5003 152.5 55.1003 140.5 45.5003C140 51.6669 136.3 65.1003 125.5 69.5003C129.167 66.6669 136.2 58.0003 135 46.0003C132.667 51.5003 126.2 63.1003 119 65.5003C121.5 64.0003 126.6 58.5003 127 48.5003C124.834 55.0003 117.4 68.5003 105 70.5003C107.667 68.8336 112.813 64.8711 113.5 58.0003C114 53.0003 111 51.5003 111 40.5003C108.334 44.0003 103.3 52.8003 104.5 60.0003C102.667 57.3336 100.9 48.5003 108.5 34.5003C96.3334 39.8336 73.9999 57.4003 81.9999 85.0003C80.3333 83.5003 76.9001 79.3003 76.5001 74.5003C74.6668 78.3336 72.1002 87.7003 76.5001 94.5003C74.5002 93.1669 70.6004 88.8003 71.0004 82.0003C69.3336 83.6669 65.3001 87.1003 62.5001 87.5003L61.0001 92.5003C62.8334 97.6669 68.6 106.9 77 104.5L77.5 106L77 110C74.3333 111.333 68.5001 116.4 66.5001 126L61.0001 131C56.5001 131.667 46.2001 132.3 41.0001 129.5C38.3334 130.834 33.4001 135.3 35.0001 142.5C33.3335 140.167 31.7002 134.1 38.5002 128.5C36.0002 127.667 29.9004 127.1 25.5004 131.5C20.5898 136.411 22.4549 141.321 24.6904 142.317C24.9676 142.394 25.2392 142.455 25.5004 142.5C25.2324 142.5 24.9587 142.437 24.6904 142.317C22.9812 141.844 21.0547 140.756 20 138.817V131.509C20.4478 130.295 21.1008 128.961 22 127.5C21.6773 127.662 20.9101 127.72 20 127.721V118.734C24.6819 119.041 31.2298 117.761 36 111.5C33.1616 113.048 26.8078 115.256 20 114.504V102.235C24.0818 98.7041 28.4439 93.7901 30.5 86.5003C28.1108 86.2925 23.8442 86.5379 20 88.205V83.2481C21.0043 82.8376 22.1641 82.5706 23.5 82.5003C22.6142 81.9688 21.4013 81.282 20 80.5449V74.7874C22.6659 75.0171 25.293 75.5347 27.5 76.5003C26.2579 74.9715 23.6134 72.4348 20 70.2468V47.8528C28.1291 53.9865 38.2814 57.3925 45.5 47.5003C43.2516 42.7038 39.7901 30.9245 42.0256 19H153.351C157.922 25.4812 161.297 33.5531 163 43.5003Z" fill="#8E6F60"/>
</mask>
<g mask="url(#mask2)">
<path d="M68.0002 68.5009C67.8399 68.6778 67.6698 68.8592 67.4901 69.0444C61.185 76.1718 55.3167 97.763 48.5002 107.501C38.1002 122.701 22.1669 121.168 15.5002 118.501C35.9002 122.501 51.6669 98.8342 57.0002 86.5009H51.5002C57.1002 85.3009 59.8335 80.6676 60.5002 78.5009C49.7002 90.1009 37.6669 88.0009 33.0002 85.5009C40.6002 88.7009 48.5002 84.1675 51.5002 81.5009C44.3002 83.9009 36.1669 80.5009 33.0002 78.5009C48.8563 83.1417 62.2509 74.4464 67.4901 69.0444C67.6598 68.8526 67.8298 68.6713 68.0002 68.5009Z" fill="#7B5F52"/>
<path d="M72.0002 70.5009C68.8335 74.1676 62.3002 83.3009 61.5002 90.5009L72.0002 70.5009Z" fill="#7B5F52"/>
<path d="M74.2579 76.5119C69.5038 56.4238 77.1375 42.0155 82.0002 37.0009C76.0002 45.8009 75.5002 55.0009 76.0002 58.5009L79.0002 50.5009C74.6002 69.3009 79.1669 83.0009 82.0002 87.5009L76.0002 82.5009C75.6322 81.4336 75.2994 80.3799 75 79.3402V83L70 86.5009L69.5 83L74.2579 76.5119Z" fill="#7B5F52"/>
<path d="M85.0002 50.5009C81.8335 53.3342 76.6002 63.2009 81.0002 80.0009C80.5002 74.0009 80.6002 59.7009 85.0002 50.5009Z" fill="#7B5F52"/>
<path d="M87.5002 52.0009C90.1669 44.5009 99.1002 28.3009 113.5 23.5009C111.167 24.6676 105.4 29.0009 101 37.0009L110.5 31.0009L114.994 25.3835C115.529 24.6449 116.036 24.0161 116.5 23.5009L114.994 25.3835C110.336 31.8119 103.565 46.5503 105 67.0009L113.5 34.5009C113.167 38.3342 112.9 46.9009 114.5 50.5009C115.5 47.1676 117.1 38.6009 115.5 31.0009C116.834 35.0009 119.5 42.5018 117 53.5009C114.5 64.5 109.2 68.8 106 70C102.8 71.2 103.334 70.6676 102.5 72.5009C100.334 68.0009 97.4002 55.3009 103 40.5009C100.667 41.3342 94.3002 44.8009 87.5002 52.0009Z" fill="#7B5F52"/>
<path d="M123.5 50.5009C119.1 60.5009 112 69.3342 109 72.5009C110 74.5009 113.7 76.5009 120.5 68.5009C127.3 60.5009 129.334 48.1676 129.5 43.0009L123.5 50.5009Z" fill="#7B5F52"/>
<path d="M132 41.0009C131 46.3342 128.4 58.1009 126 62.5009C128.334 60.0009 132.8 52.2009 132 41.0009Z" fill="#7B5F52"/>
<path d="M127 65.5009C137.8 60.7009 138.834 38.8342 138 28.5009C142.8 39.7009 144.334 49.8342 144.5 53.5009L141.5 51.5009C137.5 69.9009 127.167 72.1676 122.5 71.0009L127 65.5009Z" fill="#7B5F52"/>
<path d="M125.5 37.0009C127.9 28.2009 123.167 19.6676 120.5 16.5009C157.7 11.7009 168 39.1676 168.5 53.5009L163.5 52.0009L165 60.0009L156.5 43.0009L152 40.5009L158 51.5009L153.5 46.5009C163.1 62.1009 162.834 78.3342 161.5 84.5009C162.7 75.3009 158.667 67.3342 156.5 64.5009L158 73.5009L154 68.5009C152.4 76.5009 149 80.5009 147.5 81.5009C157.5 58.3009 149.667 40.5009 144.5 34.5009V39.5009C142.9 32.3009 137.5 26.5009 135 24.5009C135.4 32.9009 133.167 37.0009 132 38.0009C134.8 32.0009 133.834 25.8342 133 23.5009H127C127.8 30.7009 126.334 35.5009 125.5 37.0009Z" fill="#7B5F52"/>
<path d="M160.5 58.5009L166.5 80.0009L168.5 74.5017L160.5 58.5009Z" fill="#7B5F52"/>
<path d="M150.5 111.002C166.1 103.802 168 89.335 167 83.0017C169.521 93.0023 174.717 92.8353 177 91.5017C177.834 96.6683 178.4 106.602 174 105.002C169.6 103.402 157.167 112.335 151.5 117.002L144.5 123.502C136 125.502 127 147.002 134.5 149.002C134.645 149.04 134.789 149.075 134.932 149.106C134.773 148.927 134.629 148.725 134.5 148.5C132.9 145.7 134.167 141.333 135 139.5C141 148 142.5 135 142.5 142.502C142.5 144.894 141.89 146.726 140.994 147.999C143.302 146.526 144.835 144.118 145.5 142.502C145.5 158.002 126 156.502 127 140.002C127.8 126.802 135.334 117.835 139 115.002C155.4 105.402 158.167 85.6683 157.5 77.0017C161.722 88.6023 156.926 99.8353 154 104.002C156.8 103.202 160.167 94.6683 161.5 90.5017L159 100.002C161.8 98.8017 164.167 91.1678 165 87.5009C163.8 100.701 154.834 108.668 150.5 111.002Z" fill="#7B5F52"/>
<path d="M90.5002 23.5009L101 16.5009C101 15.6678 100.1 14.5015 96.5002 16.5009C92.9002 18.5003 91.0002 22.0006 90.5002 23.5009Z" fill="#7B5F52"/>
<path d="M90.5002 17.5004C89.5002 18.0004 83.0002 23.5 79.5002 29.0004C76.2944 30.3745 68.3065 36.3629 60.2241 49.6549C62.1543 50.6465 64.2462 51.4541 66.5002 52.0009C63.6669 60.1673 53.9002 76.7001 37.5002 77.5004C39.6669 77.1673 44.9002 75.7009 48.5002 72.5009C44.3335 74.1677 34.2002 76.1012 27.0002 70.5009C32.3335 72.8339 46.0002 74.8001 58.0002 64.0004C53.3335 59.5006 43.2002 47.8009 40.0002 37.0009C36.0002 23.5009 42.0002 45.5004 55.0002 52.5004C50.8335 48.6671 42.0002 38.2004 40.0002 27.0004C38.7207 19.8355 38.0552 16.6539 37.7416 15.466C37.6579 15.306 37.5774 15.1508 37.5002 15.0004C37.5002 14.7603 37.5651 14.797 37.7416 15.466C41.0932 21.8673 49.6342 35.8052 59.0002 44.0004C54.8335 41.8339 45.9002 36.2009 43.5002 31.0009C45.2431 35.5513 50.5117 44.2713 59.3498 49.1873C61.278 44.1857 65.0224 37.4674 71.0002 33.5004C68.3335 33.1673 61.3002 30.9009 54.5002 24.5009C59.6669 27.8341 71.4002 33.0004 77.0002 27.0004L79.0002 23.5009C76.1669 24.5007 67.8002 25.4004 57.0002 21.0004C60.6669 21.8338 69.4002 23.0004 75.0002 21.0004C73.5002 21.4462 67.0002 21.5004 62.5002 18.5004C67.8335 19.6671 80.9002 21.1004 90.5002 17.5004Z" fill="#7B5F52"/>
<path d="M12.0002 57.0009C22.4002 70.2009 44.0002 67.1673 53.5002 64.0004V61.5C37.9001 67.1 25.6669 58.5006 21.5003 53.5009L37.5002 58.5009L17.0002 49C14.5002 49.1667 10.0002 50.5 12.0002 54.5C14.0002 58.5 26.8335 62.5003 33.0002 64.0004C23.0002 65.2001 14.8335 59.8339 12.0002 57.0009Z" fill="#7B5F52"/>
<path d="M29.5003 86.5009C25.1003 83.3009 17.667 81.8342 14.5003 81.5009C15.5002 83.1675 18.6 86.7009 23 87.5009C28.5 88.5009 11.5 103 22 96.5C30.4 91.3 34.8333 92.3333 36 93.5C33.6 99.8993 23.3336 103.5 18.5003 104.5C13.667 105.5 6.30031 107.501 15.5002 107.501C24.7001 107.501 34.0002 98.5003 37.5002 94C38.3336 94.1667 40.0003 94.6 40.0003 95C35.2003 103.8 27.3337 107.001 24.0003 107.501C29.2003 108.702 36.8337 103.001 40.0003 100C32.5003 112.499 4.00033 114 17.0003 116.5C30.0003 119 40.5003 108.5 43.0003 104C45.0003 100.4 45.8337 95.8333 46.0003 94C47.167 93.8333 49.6003 93.5 50.0003 93.5C48.8004 97.9 45.5004 102.667 44.0003 104.5C49.2004 100.9 51.8337 94.3333 52.5003 91.5C44.5005 95.4991 35.0003 90.5009 29.5003 86.5009Z" fill="#7B5F52"/>
<path d="M41.1542 120.44C46.0238 117.78 53.2671 110.541 56.5 107C57.0001 108.667 58.7004 112.4 61.5002 114C57.0002 106 58.6669 96.5 60.5002 92.5C64.3335 94.3333 73.6002 98.8 80 102C87.9998 106 85 120.5 70.5 129.5C56 138.5 37.5002 135 40.0003 131C42.0004 127.8 48.5003 126 51.5002 125.5C37.0004 127.5 36 132.5 37 138.5C37.8 143.3 35.3333 145.833 34 146.5C31.3333 142.333 26.4 133.4 28 131C29.6 128.6 33.6667 126.333 35.5 125.5C21.4681 127.1 16.3202 137.833 15.5002 143C15.5002 136.167 19.7002 122.9 36.5 124.5C53.2998 126.1 61.4999 120.5 63.5 117.5C60.7 120.3 53 122 49.5 122.5L57.5 112.5L41.1542 120.44C40.7522 120.659 40.3664 120.847 40.0003 121L41.1542 120.44Z" fill="#7B5F52"/>
<path d="M141.5 107C154.3 99.8 155.167 80.0006 154 71.0009C151.2 83.4016 144.5 90.5006 141.5 92.5C136.167 100.333 128.7 114.2 141.5 107Z" fill="#7B5F52"/>
</g>
<path d="M84.5899 51.0308C85.0499 50.3208 85.5099 49.6008 85.9699 48.8908C86.0299 48.8008 86.1699 48.8108 86.1999 48.9208C86.4899 49.7208 86.7699 50.5208 87.0599 51.3208C87.0699 51.3608 87.1099 51.3908 87.1499 51.4008L89.6099 52.0508C89.7099 52.0808 89.7399 52.2108 89.6599 52.2808L87.6399 53.8408C87.6099 53.8708 87.5899 53.9108 87.5899 53.9508L87.7299 56.4908C87.7399 56.6008 87.6199 56.6708 87.5299 56.6108L85.4199 55.1808C85.3799 55.1608 85.3399 55.1508 85.2999 55.1708L82.9199 56.0908C82.8199 56.1308 82.7199 56.0408 82.7499 55.9308L83.4599 53.4808C83.4699 53.4408 83.4599 53.3908 83.4399 53.3608L81.8299 51.3908C81.7599 51.3108 81.8199 51.1808 81.9299 51.1808L84.4799 51.1008C84.5199 51.0908 84.5599 51.0708 84.5899 51.0308Z" fill="#E85E5C"/>
<path d="M79.8801 66.1493C80.2801 65.6993 80.6901 65.2493 81.0901 64.7993C81.1401 64.7393 81.2401 64.7693 81.2501 64.8493C81.3601 65.4393 81.4701 66.0392 81.5801 66.6292C81.5901 66.6592 81.6101 66.6892 81.6301 66.6992L83.2901 67.4393C83.3601 67.4693 83.3601 67.5693 83.3001 67.6093L81.7101 68.4793C81.6801 68.4893 81.6701 68.5193 81.6601 68.5493L81.4701 70.3493C81.4601 70.4293 81.3701 70.4593 81.3101 70.4093L80.0001 69.1493C79.9801 69.1293 79.9501 69.1192 79.9201 69.1292L78.1501 69.5093C78.0701 69.5293 78.0101 69.4492 78.0501 69.3792L78.8301 67.7392C78.8401 67.7092 78.8401 67.6793 78.8301 67.6493L77.9201 66.0793C77.8801 66.0093 77.9401 65.9293 78.0101 65.9393L79.8101 66.1793C79.8301 66.1793 79.8601 66.1693 79.8801 66.1493Z" fill="#E85E5C"/>
<circle cx="72.5" cy="104.5" r="1.5" fill="#F9DE81"/>
<path d="M72.5801 105.54C72.3301 105.48 72.0801 105.41 71.8301 105.32C71.6201 105.25 71.4301 105.17 71.2401 105.09C70.9401 105.35 70.6101 105.63 70.2301 105.9C69.8401 106.18 69.4701 106.4 69.1201 106.6C68.8701 106.49 68.5501 106.42 68.1401 106.42C66.5301 106.42 63.9501 107.54 62.6701 108.2C60.0401 109.56 56.9801 112.1 56.4001 113.99C56.1901 114.67 56.3401 115.16 56.5001 115.45C56.8501 116.1 57.5801 116.43 58.6601 116.43C59.8801 116.43 61.4601 116.02 62.4501 115.67C66.0701 114.38 69.2601 111.19 69.9701 109.01C70.2401 108.18 70.0901 107.62 69.8901 107.28C70.4001 107 70.9201 106.69 71.4501 106.34C71.8501 106.07 72.2201 105.8 72.5801 105.54ZM62.0901 114.66C61.1301 115 59.6901 115.36 58.6601 115.36C58.0601 115.36 57.6001 115.24 57.4301 114.94C56.8501 113.89 59.9101 110.83 63.1501 109.15C64.4901 108.45 66.8501 107.49 68.1301 107.49C68.5101 107.49 68.8001 107.58 68.9401 107.78C69.6701 108.83 66.4401 113.11 62.0901 114.66Z" fill="#F9DE81"/>
<path d="M64.61 107.809C64.91 107.289 65.22 106.759 65.52 106.239C65.56 106.169 65.66 106.179 65.69 106.249C65.92 106.809 66.15 107.369 66.38 107.929C66.39 107.959 66.42 107.979 66.45 107.989L68.22 108.369C68.3 108.389 68.32 108.479 68.26 108.529L66.88 109.699C66.86 109.719 66.84 109.749 66.85 109.779L67.03 111.579C67.04 111.659 66.95 111.709 66.89 111.669L65.35 110.719C65.32 110.699 65.29 110.699 65.26 110.709L63.6 111.439C63.53 111.469 63.45 111.409 63.47 111.329L63.9 109.569C63.91 109.539 63.9 109.509 63.88 109.489L62.67 108.139C62.62 108.099 62.65 107.999 62.73 107.999L64.54 107.859C64.57 107.859 64.6 107.839 64.61 107.809Z" fill="#E85E5C"/>
<path d="M125.11 119.12C123.1 117.77 119.23 115.42 114.03 115.81C108.15 116.26 104.28 119.94 102.57 121.96C101.67 120.53 101.07 118.89 100.87 117.15C100.54 114.25 101.42 111.92 101.96 110.76C103.39 111.11 105 111.45 106.79 111.72C108.26 112.77 110.42 113.94 113.22 114.38C115.7 114.78 117.89 114.49 119.7 113.97C122.83 115.81 124.39 117.58 125.11 119.12Z" fill="#DC505E"/>
<path d="M125.68 119.51C124.96 121.14 123.49 123.98 120.31 125.94C119.64 126.35 114.4 129.45 108.54 127.02C106.12 126.01 103.98 124.22 102.58 121.96C104.29 119.95 108.16 116.27 114.04 115.81C119.7 115.38 123.79 118.21 125.61 119.46C125.63 119.48 125.65 119.5 125.68 119.51Z" fill="#F58F8A"/>
<path d="M125.05 111.5C124.8 111.65 124.51 111.81 124.19 111.99C122.45 112.98 118.48 115.23 113.22 114.39C110.43 113.94 108.26 112.78 106.79 111.73C109.13 112.09 111.76 112.34 114.64 112.37C118.63 112.41 122.14 112.02 125.05 111.5Z" fill="white"/>
<path d="M125.86 119.1C125.81 119.23 125.74 119.37 125.68 119.51C125.65 119.49 125.63 119.47 125.61 119.46C125.46 119.36 125.3 119.24 125.12 119.12C124.4 117.58 122.84 115.82 119.72 113.97C121.74 113.39 123.28 112.51 124.2 111.99C124.52 111.8 124.81 111.64 125.06 111.5C125.79 111.37 126.49 111.23 127.15 111.09C127.28 112.65 127.32 115.71 125.86 119.1Z" fill="#511119"/>
<path d="M167.4 133.84L149.75 172H149.2L166.71 134.15C166.94 134.05 167.17 133.94 167.4 133.84Z" fill="#83868C"/>
<path d="M169.49 132.85L151.38 172H150.91L168.89 133.13C169.1 133.04 169.3 132.94 169.49 132.85Z" fill="#83868C"/>
<path d="M168.89 133.131L150.91 172.001H149.75L167.4 133.841V133.831C167.6 133.741 167.81 133.641 168.02 133.551C168.06 133.531 168.1 133.511 168.14 133.491C168.39 133.371 168.64 133.261 168.89 133.131Z" fill="#56595B"/>
<path d="M171.63 131.76L168.53 138.47L168.24 139.1L164.12 148.01L163.82 148.64L161.36 153.96L156.75 163.93L153.04 171.96L153.03 171.98L153.05 171.99H152.55L152.8 171.45V171.44L156.5 163.45L161.06 153.59L163.59 148.12L163.88 147.48L168 138.57L168.29 137.93L171 132.06C171.23 131.97 171.43 131.87 171.63 131.76Z" fill="#83868C"/>
<path d="M171.01 132.08L168.3 137.95L168.01 138.59L163.89 147.5L163.6 148.14L161.07 153.61L156.51 163.47L152.81 171.46V171.47L152.56 172.01H151.39L151.94 170.83L152.23 170.19L155.88 162.3L160.31 152.74L163.02 146.88L163.31 146.25L167.43 137.34L167.72 136.71L169.5 132.87C169.76 132.74 170.01 132.62 170.25 132.49C170.51 132.34 170.76 132.21 171.01 132.08Z" fill="#56595B"/>
<path d="M173 131.029V132.419L154.69 171.999H154.19L172.9 131.549V131.089C172.94 131.069 172.97 131.049 173 131.029Z" fill="#83868C"/>
<path d="M172.9 131.09V131.55L169.11 139.73L168.82 140.37L164.7 149.28L164.41 149.91L162.1 154.9L157.38 165.11L154.2 171.99H153.06L153.04 171.98L153.05 171.96L156.76 163.93L161.37 153.96L163.83 148.64L164.13 148.01L168.25 139.1L168.54 138.47L171.64 131.76C171.69 131.74 171.74 131.71 171.78 131.69C172.05 131.55 172.31 131.41 172.56 131.27C172.67 131.21 172.79 131.15 172.9 131.09Z" fill="#56595B"/>
<path d="M163.27 135.59L160.8 140.82L160.5 141.45L156.57 149.77C156.57 149.77 156.57 149.77 156.56 149.77L153.07 157.16L149.6 164.5V164.51L149.3 165.14L146.05 172H143.01C145.84 166.01 148.67 160.01 151.51 154.01C152.25 152.45 152.99 150.88 153.73 149.32C155.71 145.13 157.69 140.95 159.66 136.76C159.83 136.71 159.99 136.67 160.15 136.62C160.63 136.48 161.07 136.35 161.48 136.22C161.79 136.12 162.1 136.01 162.39 135.91C162.69 135.81 162.98 135.7 163.27 135.59Z" fill="#F9DE81"/>
<path d="M166.71 134.15L166.63 134.34V134.35L166.34 134.98L162.22 143.89L161.92 144.52L158.8 151.27L154.7 160.13L151.14 167.83L150.84 168.47L149.2 172H146.06L149.31 165.14L149.61 164.51V164.5L153.08 157.16L156.57 149.77L160.03 142.45L160.51 141.44L160.81 140.81L161.27 139.84L163.2 135.75V135.74L163.28 135.58H163.29V135.57C163.51 135.49 163.71 135.41 163.92 135.33C164.13 135.26 164.33 135.18 164.53 135.09C164.76 135 164.99 134.9 165.21 134.81C165.23 134.8 165.24 134.8 165.25 134.79V134.78C165.5 134.68 165.75 134.57 165.99 134.46C166.03 134.44 166.06 134.43 166.1 134.41C166.26 134.34 166.42 134.27 166.58 134.19C166.61 134.2 166.66 134.17 166.71 134.15Z" fill="#56595B"/>
<path d="M168.14 133.491C168.1 133.511 168.06 133.531 168.02 133.551C167.81 133.641 167.6 133.741 167.4 133.831V133.841L149.75 172.001H150.91L168.89 133.131C168.64 133.261 168.39 133.371 168.14 133.491Z" fill="#56595B"/>
<path d="M171.01 132.08L168.3 137.95L168.01 138.59L163.89 147.5L163.6 148.14L161.07 153.61L156.51 163.47L152.81 171.46V171.47L152.56 172.01H151.39L151.94 170.83L152.23 170.19L155.88 162.3L160.31 152.74L163.02 146.88L163.31 146.25V146.24L167.43 137.33L167.72 136.7L169.5 132.86C169.76 132.73 170.01 132.61 170.25 132.48C170.51 132.34 170.76 132.21 171.01 132.08Z" fill="#56595B"/>
<path d="M172.9 131.09V131.55L169.11 139.73L168.82 140.37L164.7 149.27V149.28L164.41 149.91L162.1 154.9L157.38 165.11L154.2 171.99H153.06L153.04 171.98L153.05 171.96L156.76 163.93L161.37 153.96L163.83 148.64L164.13 148.01L168.25 139.1L168.54 138.47L171.64 131.76C171.69 131.74 171.74 131.71 171.78 131.69C172.05 131.55 172.31 131.41 172.56 131.27C172.67 131.21 172.79 131.15 172.9 131.09Z" fill="#56595B"/>
<path d="M173 132.42V134.94L170.43 140.49L170.16 141.09C170.09 141.24 170.02 141.4 169.95 141.55C169.85 141.77 169.76 141.98 169.66 142.2C168.32 145.23 166.97 148.26 165.62 151.29C165.52 151.5 165.43 151.72 165.33 151.94C162.36 158.62 159.39 165.32 156.43 172H154.68L164.65 150.46V150.45L164.95 149.82L169.07 140.91L169.36 140.28L173 132.42Z" fill="#56595B"/>
<path d="M165.19 134.82L147.99 172H147.44L164.51 135.1C164.74 135.01 164.97 134.91 165.19 134.82Z" fill="#83868C"/>
<path d="M165.63 151.29C165.53 151.5 165.44 151.72 165.34 151.94L164.65 150.46V150.45L164.4 149.91L163.82 148.65L163.59 148.14L163.01 146.88L162.78 146.37L162.2 145.12L161.92 144.53L160.51 141.46L160.81 140.83L162.22 143.89L162.49 144.48L163.07 145.73L163.3 146.23V146.24L163.88 147.5L164.12 148.02L164.7 149.28V149.29L164.95 149.83L165.63 151.29Z" fill="#B1B5BD"/>
<path d="M169.95 141.551C169.85 141.771 169.76 141.981 169.66 142.201L169.07 140.911L168.82 140.371L168.24 139.101L168.01 138.591L167.43 137.331L167.2 136.821L166.62 135.571L166.35 134.971L166.1 134.431C166.26 134.361 166.42 134.291 166.58 134.211L166.64 134.331V134.341L166.91 134.931L167.49 136.181L167.72 136.691L168.3 137.951L168.53 138.471L169.11 139.731L169.36 140.281L169.95 141.551Z" fill="#B1B5BD"/>
<path d="M153.05 172H152.47L151.93 170.82L151.69 170.31L151.11 169.06L150.84 168.46L150.23 167.15L149.96 166.55L149.31 165.14L149.6 164.51L150.25 165.92L150.53 166.51L151.13 167.82L151.4 168.42L151.98 169.68L152.22 170.18L152.8 171.45V171.46L153.04 171.97L153.05 172Z" fill="#B1B5BD"/>
<path d="M166.51 141.749L166.35 141.839L165.95 142.069C165.94 142.079 165.93 142.089 165.93 142.099L165.77 142.809C165.76 142.839 165.73 142.849 165.72 142.829L165.37 142.319C165.36 142.309 165.36 142.309 165.35 142.309L164.84 142.419L164.76 142.439C164.74 142.439 164.72 142.409 164.74 142.389L164.82 142.239L165.08 141.759C165.09 141.749 165.09 141.739 165.08 141.729L164.88 141.099C164.87 141.069 164.89 141.039 164.92 141.049L165.48 141.169C165.49 141.169 165.5 141.169 165.51 141.159C165.52 141.149 165.54 141.129 165.55 141.119C165.69 140.959 165.83 140.809 165.97 140.649C165.99 140.629 166.02 140.639 166.02 140.669C166.02 140.909 166.02 141.139 166.03 141.379C166.03 141.389 166.03 141.399 166.04 141.409L166.53 141.719C166.53 141.699 166.53 141.739 166.51 141.749Z" fill="#F9DE81"/>
<path d="M71.99 163.19C71.79 164.52 71.42 165.63 71.07 166.48C68.37 168.28 64.68 170.37 60.1 171.99H43.07C43.06 169.48 43.05 166.97 43.04 164.46C43.18 163.03 43.54 160.91 44.58 158.57C45.37 156.79 48.25 150.33 54.53 148.95C58.02 148.19 61.2 149.29 63.61 150.64C65.18 151.51 66.44 152.48 67.25 153.12C69.5 154.86 70.97 156.77 71.88 158.16C72.12 159.35 72.32 161.11 71.99 163.19Z" fill="#FCECDC"/>
<path d="M173 101.131V131.031C172.97 131.051 172.93 131.071 172.9 131.091C172.79 131.151 172.67 131.211 172.55 131.271C172.3 131.411 172.04 131.551 171.77 131.691C171.73 131.711 171.68 131.741 171.63 131.761C171.43 131.861 171.23 131.981 171.01 132.081C170.76 132.211 170.51 132.341 170.24 132.471C170 132.601 169.75 132.721 169.49 132.851C169.29 132.941 169.1 133.041 168.89 133.131C168.64 133.261 168.39 133.371 168.14 133.491C168.1 133.511 168.06 133.531 168.02 133.551C167.81 133.641 167.6 133.741 167.4 133.831C167.17 133.941 166.94 134.051 166.71 134.151C166.47 134.271 166.22 134.371 165.97 134.481C165.73 134.591 165.48 134.701 165.23 134.801C165.22 134.811 165.2 134.811 165.19 134.821C164.97 134.911 164.74 135.011 164.51 135.101C164.11 135.271 163.7 135.431 163.27 135.591C162.7 135.811 162.11 136.011 161.49 136.221C160.95 136.401 160.34 136.581 159.67 136.761C158.29 137.141 156.66 137.511 154.8 137.801C155.17 137.111 155.45 136.421 155.68 135.701C157.23 130.671 156.91 123.791 152.85 118.901C151.68 117.491 150.43 116.521 149.44 115.871C151.54 115.391 154.24 114.981 157.37 114.991C159.7 115.001 162.27 115.19 164 115.5C163.76 113.25 164.9 111.05 166.5 110C167.31 109.47 168.4 109.05 169 109C168.96 108.16 168.73 106.66 169.5 105C170.75 102.31 172.22 101.491 173 101.131Z" fill="#FCECDC"/>
<mask id="mask3" mask-type="alpha" maskUnits="userSpaceOnUse" x="149" y="101" width="24" height="37">
<path d="M173 101.131V131.031C172.97 131.051 172.93 131.071 172.9 131.091C172.79 131.151 172.67 131.211 172.55 131.271C172.3 131.411 172.04 131.551 171.77 131.691C171.73 131.711 171.68 131.741 171.63 131.761C171.43 131.861 171.23 131.981 171.01 132.081C170.76 132.211 170.51 132.341 170.24 132.471C170 132.601 169.75 132.721 169.49 132.851C169.29 132.941 169.1 133.041 168.89 133.131C168.64 133.261 168.39 133.371 168.14 133.491C168.1 133.511 168.06 133.531 168.02 133.551C167.81 133.641 167.6 133.741 167.4 133.831C167.17 133.941 166.94 134.051 166.71 134.151C166.47 134.271 166.22 134.371 165.97 134.481C165.73 134.591 165.48 134.701 165.23 134.801C165.22 134.811 165.2 134.811 165.19 134.821C164.97 134.911 164.74 135.011 164.51 135.101C164.11 135.271 163.7 135.431 163.27 135.591C162.7 135.811 162.11 136.011 161.49 136.221C160.95 136.401 160.34 136.581 159.67 136.761C158.29 137.141 156.66 137.511 154.8 137.801C155.17 137.111 155.45 136.421 155.68 135.701C157.23 130.671 156.91 123.791 152.85 118.901C151.68 117.491 150.43 116.521 149.44 115.871C151.54 115.391 154.24 114.981 157.37 114.991C159.7 115.001 162.27 115.19 164 115.5C163.76 113.25 164.9 111.05 166.5 110C167.31 109.47 168.4 109.05 169 109C168.96 108.16 168.73 106.66 169.5 105C170.75 102.31 172.22 101.491 173 101.131Z" fill="#FCECDC"/>
</mask>
<g mask="url(#mask3)">
<path d="M159.5 114.499C164.5 115.5 169.4 116.9 173 118.5C166.5 115.499 162.5 114 159.5 114.499Z" fill="#E2C9B0"/>
<path d="M155.5 131.5L174.5 125.5V130.5C170.1 135.3 157.667 139.167 152 140.5L155.5 131.5Z" fill="#E2C9B0"/>
</g>
<path d="M170.15 168.991C168.33 170.851 165.8 172.001 163 172.001H160.8C160.47 171.241 160.11 170.451 159.7 169.641C158.99 168.181 157.15 164.631 154.99 160.671C151.94 155.101 150.14 152.211 151.27 150.511C152.06 149.341 153.87 149.291 154.43 149.281C159.81 149.131 166.13 160.431 170.15 168.991Z" fill="#FCECDC"/>
</svg>
