<svg xmlns="http://www.w3.org/2000/svg" width="192" height="192"><path d="M29.969 20A9.948 9.948 0 0 0 20 29.969V132l44 40h98.031a9.948 9.948 0 0 0 9.969-9.969V29.97A9.948 9.948 0 0 0 162.031 20Z" style="opacity:1;vector-effect:none;fill:#56595b;fill-opacity:1;stroke-width:3.98688531;paint-order:stroke fill markers"/><path d="M44 172h20l17.698-16s16.905-5.91 22.302-12c8.953-10.103 8-20 8-20l40-44-6-4z" style="fill:#8c72bd;stroke-width:4"/><path d="M36 172h16l16-16s3.536.523 8-4c4.88-4.945 4-12 4-12l72-68-8-4z" style="fill:#728dbe;stroke-width:4"/><path d="M128 68 25.234 170.766c1.413.764 3.01 1.234 4.735 1.234H40L144 68Z" style="fill:#98dc9a;stroke:none;stroke-width:4px;stroke-linecap:butt;stroke-linejoin:miter;stroke-opacity:1"/><path d="M128 48 20 156l.18 7.82c.547 3.035 2.463 5.553 5.086 6.961L140 60Z" style="fill:#f9de81;stroke-width:4"/><path d="m20 164 20-20s9.019-1.019 12-4 4-12 4-12l76-72-8-16L20 152Z" style="fill:#f8c18c;stroke-width:4"/><path d="m20 152 96-100V40L64 92s-8-8-16-8-8 32-8 32l-20 16z" style="fill:#ff837d;stroke-width:4"/><path d="M108 60a4 4 0 0 0-2.54.914s-2.629 2.154-5.304 4.86c-1.337 1.352-2.697 2.84-3.836 4.421C95.182 71.775 94 73.29 94 76c0 2.455 1.23 4.247 2.555 5.5 1.324 1.253 2.864 2.13 4.804 2.445 2.484.403 4.185-.276 5.68-1.11.36 1.446.953 2.89 1.758 4.415-.33.216-.574.302-.969.672-.832.78-1.828 2.346-1.828 4.078 0 2.438 1.115 4.193 2.46 5.54 1.347 1.345 3.102 2.46 5.54 2.46 2.357 0 3.951-.96 5.39-1.93 1.44-.969 2.704-2.11 3.829-3.218 1.46-1.44 1.877-2.032 2.554-2.852H126c0 2.438 1.115 4.193 2.46 5.54 1.347 1.345 3.102 2.46 5.54 2.46 3.58 0 6.162-2.266 7.79-4.297 1.626-2.03 2.738-4.18 3.616-5.601 1.302-2.107 1.995-4.54 2.68-6.836.631.28.998.734 1.914.734 2.438 0 4.193-1.115 5.54-2.46 1.345-1.347 2.46-3.102 2.46-5.54 0-4-1.95-6.853-3.57-9.555a63.483 63.483 0 0 0-3.227-4.843A4 4 0 0 0 148 60Zm1.547 8h36.32c.531.751.856 1.142 1.703 2.555.627 1.044.678 1.457 1.102 2.476a4 4 0 0 0-6.586 2.14s-.418 1.98-1.102 4.391c-.683 2.412-1.765 5.325-2.39 6.336-1.105 1.787-2.112 3.638-3.047 4.805C134.612 91.87 134.19 92 134 92c0 .471.05-.066.344-.516.294-.449.562-.734.562-.734A4 4 0 0 0 132 84h-8a4 4 0 0 0-3.156 1.54s-1.364 1.664-2.93 3.272a4 4 0 0 0-1.086-3.64c-1.057-1.057-1.987-3.356-2.406-5.453C114.002 77.62 114 76 114 76a4 4 0 0 0-6.648-2.992s-1.086.94-2.43 1.812c-1.344.873-3.119 1.099-2.281 1.235.063.012-.247-.15-.47-.297.046.116.055-.08.634-.883.736-1.023 1.876-2.3 3.039-3.476 1.833-1.855 2.997-2.801 3.703-3.399z" style="color:#000;font-style:normal;font-variant:normal;font-weight:400;font-stretch:normal;font-size:medium;line-height:normal;font-family:sans-serif;font-variant-ligatures:normal;font-variant-position:normal;font-variant-caps:normal;font-variant-numeric:normal;font-variant-alternates:normal;font-feature-settings:normal;text-indent:0;text-align:start;text-decoration:none;text-decoration-line:none;text-decoration-style:solid;text-decoration-color:#000;letter-spacing:normal;word-spacing:normal;text-transform:none;writing-mode:lr-tb;direction:ltr;text-orientation:mixed;dominant-baseline:auto;baseline-shift:baseline;text-anchor:start;white-space:normal;shape-padding:0;clip-rule:nonzero;display:inline;overflow:visible;visibility:visible;opacity:1;isolation:auto;mix-blend-mode:normal;color-interpolation:sRGB;color-interpolation-filters:linearRGB;solid-color:#000;solid-opacity:1;vector-effect:none;fill:#fff;fill-opacity:1;fill-rule:nonzero;stroke:none;stroke-width:8;stroke-linecap:round;stroke-linejoin:round;stroke-miterlimit:4;stroke-dasharray:none;stroke-dashoffset:0;stroke-opacity:1;paint-order:stroke fill markers;color-rendering:auto;image-rendering:auto;shape-rendering:auto;text-rendering:auto;enable-background:accumulate"/><path d="M108 64s-10 8.229-10 12c0 1.886 2.139 3.698 4 4 2.943.478 8-4 8-4s0 8 4 12c-.433 1.835-4 2.114-4 4 0 1.886 2.114 4 4 4 3.771 0 10-8 10-8h8s-2 2.114-2 4c0 1.886 2.114 4 4 4 3.771 0 6.017-4.792 8-8 2.217-3.587 4-12 4-12s2.114 4 4 4c1.886 0 4-2.114 4-4 0-4-6-12-6-12z" style="fill:#ffd6d4;stroke-width:4;paint-order:stroke fill markers"/><circle cx="128" cy="56" r="24" style="opacity:1;vector-effect:none;fill:#fff;fill-opacity:1;stroke-width:4;paint-order:stroke fill markers"/><circle cx="128" cy="56" r="20" style="opacity:1;vector-effect:none;fill:#ffd6d4;fill-opacity:1;stroke-width:4;paint-order:stroke fill markers"/><rect width="8" height="2" x="128" y="68" ry="1" style="opacity:1;vector-effect:none;fill:#ba6561;fill-opacity:1;stroke-width:3.87568355;paint-order:stroke fill markers"/><circle cx="132" cy="56" r="8" style="opacity:1;vector-effect:none;fill:#fff;fill-opacity:1;stroke-width:4;paint-order:stroke fill markers"/><circle cx="132" cy="56" r="6" style="opacity:1;vector-effect:none;fill:#ba6561;fill-opacity:1;stroke-width:4;paint-order:stroke fill markers"/><path d="M40 132c0-3.771 4-8 8-8V92c12 0 12 12 12 12s-4-4-8-4v24c0 12-4 12-8 12-1.886 0-4-2.114-4-4zM60 146c0-10 12-10 12-10v-28l32-12v40c0 4-4 8-8 8-3.771 0-8 0-8-8s12-8 12-8v-20l-24 8v28s0 8-9.2 8c-1.886 0-6.8 0-6.8-6z" style="fill:#56595b;stroke-width:4"/></svg>