<?xml version="1.0" encoding="UTF-8" standalone="no"?>
<svg
   xmlns:dc="http://purl.org/dc/elements/1.1/"
   xmlns:cc="http://creativecommons.org/ns#"
   xmlns:rdf="http://www.w3.org/1999/02/22-rdf-syntax-ns#"
   xmlns:svg="http://www.w3.org/2000/svg"
   xmlns="http://www.w3.org/2000/svg"
   xmlns:sodipodi="http://sodipodi.sourceforge.net/DTD/sodipodi-0.dtd"
   xmlns:inkscape="http://www.inkscape.org/namespaces/inkscape"
   sodipodi:docname="beebom.svg"
   inkscape:version="1.0.1 (3bc2e813f5, 2020-09-07)"
   version="1.1"
   id="svg2"
   viewBox="0 0 192 192"
   height="192"
   width="192"
   inkscape:export-filename="/home/jphilippe/inkscape/icônes/delta-github/png/beebom.png"
   inkscape:export-xdpi="96"
   inkscape:export-ydpi="96">
  <sodipodi:namedview
     inkscape:document-rotation="0"
     inkscape:window-maximized="1"
     inkscape:window-y="0"
     inkscape:window-x="36"
     inkscape:window-height="1052"
     inkscape:window-width="1884"
     units="px"
     showgrid="false"
     inkscape:current-layer="layer1"
     inkscape:document-units="px"
     inkscape:cy="-303.16072"
     inkscape:cx="182.28935"
     inkscape:zoom="0.35355338"
     inkscape:pageshadow="2"
     inkscape:pageopacity="0.0"
     borderopacity="1.0"
     bordercolor="#666666"
     pagecolor="#ffffff"
     id="base"
     inkscape:snap-bbox="false"
     inkscape:object-paths="true"
     inkscape:snap-nodes="true"
     showguides="true"
     inkscape:guide-bbox="true"
     inkscape:snap-object-midpoints="true"
     inkscape:snap-center="true"
     inkscape:snap-global="false"
     inkscape:snap-intersection-paths="true"
     inkscape:snap-smooth-nodes="true"
     inkscape:snap-midpoints="true" />
  <defs
     id="defs4" />
  <metadata
     id="metadata7">
    <rdf:RDF>
      <cc:Work
         rdf:about="">
        <dc:format>image/svg+xml</dc:format>
        <dc:type
           rdf:resource="http://purl.org/dc/dcmitype/StillImage" />
        <dc:title></dc:title>
      </cc:Work>
    </rdf:RDF>
  </metadata>
  <g
     transform="translate(0,-860.36216)"
     id="layer1"
     inkscape:groupmode="layer"
     inkscape:label="Calque 1">
    <circle
       style="fill:#585b5d;fill-opacity:1;fill-rule:evenodd;stroke:none;stroke-opacity:1"
       cx="96"
       cy="956.36218"
       r="88"
       id="circle943" />
    <g
       id="g967"
       transform="matrix(0.74567552,0,0,0.74567552,24.914495,243.22631)">
      <path
         id="path918"
         style="fill:#ffffff;fill-opacity:1;stroke-width:2.67533"
         d="m 107.03902,925.62779 c -1.59808,0 -2.89573,0.45789 -3.89453,1.37109 -0.99878,0.9132 -1.49805,2.11178 -1.49805,3.5957 v 51.19531 c 0,1.54099 0.47039,2.7666 1.41211,3.67969 0.94171,0.91309 2.21247,1.37109 3.81055,1.37109 1.59808,0 2.88129,-0.458 3.85156,-1.37109 0.97026,-0.91309 1.45508,-2.1387 1.45508,-3.67969 v -2.14062 c 1.25564,2.34011 3.06697,4.16572 5.43554,5.47851 2.36858,1.31278 5.06689,1.96875 8.0918,1.96875 3.59567,0 6.80571,-0.91183 9.63086,-2.73828 2.82517,-1.82644 5.02226,-4.40924 6.5918,-7.74804 1.56953,-3.33881 2.35351,-7.17812 2.35351,-11.51563 0,-4.33751 -0.78398,-8.1335 -2.35351,-11.38672 -1.56954,-3.25323 -3.7522,-5.7639 -6.54883,-7.5332 -2.79663,-1.7693 -6.02109,-2.6543 -9.67383,-2.6543 -2.96784,0 -5.62286,0.61471 -7.96289,1.8418 -2.34003,1.22709 -4.13695,2.9807 -5.39258,5.26368 v -20.20312 c 0,-1.48393 -0.48482,-2.65368 -1.45508,-3.50977 -0.97026,-0.85611 -2.25543,-1.28516 -3.85351,-1.28516 z m 15.83789,26.19727 c 3.42444,0 6.06501,1.14085 7.91992,3.42382 1.85491,2.28296 2.78125,5.56517 2.78125,9.8457 0,4.33751 -0.94078,7.70447 -2.82422,10.10156 -1.88343,2.39709 -4.5096,3.59571 -7.87695,3.59571 -3.42445,0 -6.06306,-1.16966 -7.91797,-3.50977 -1.85492,-2.34011 -2.7832,-5.67812 -2.7832,-10.01562 0,-4.33751 0.92828,-7.66313 2.7832,-9.97461 1.85491,-2.31148 4.49352,-3.4668 7.91797,-3.46679 z" />
      <path
         id="path873"
         style="fill:#ffffff;fill-opacity:1;stroke-width:2.67533"
         d="m 51.69003,926.05748 c -1.65515,0 -2.95476,0.45594 -3.89648,1.36914 -0.94172,0.9132 -1.41211,2.19642 -1.41211,3.85156 v 49.91211 c 0,1.65523 0.47039,2.93848 1.41211,3.85157 0.94172,0.91309 2.24133,1.36914 3.89648,1.36914 h 22.08594 c 6.44936,0 11.51599,-1.45448 15.19727,-4.36524 3.68128,-2.91076 5.52148,-6.93368 5.52148,-12.07031 0,-3.70988 -0.95521,-6.84963 -2.86719,-9.41797 -1.91198,-2.56832 -4.61028,-4.33833 -8.09179,-5.30859 2.96784,-1.08442 5.29482,-2.79669 6.97851,-5.13672 1.68369,-2.34002 2.52539,-5.10661 2.52539,-8.30274 0,-4.96544 -1.78444,-8.83348 -5.35156,-11.60156 -3.56713,-2.76808 -8.48944,-4.15039 -14.76758,-4.15039 z m 5.47852,8.56055 h 13.95508 c 3.82396,0 6.67712,0.68492 8.56054,2.05469 1.88344,1.36976 2.82422,3.48029 2.82422,6.33398 0,5.65032 -3.79391,8.47656 -11.38476,8.47656 H 57.16855 Z m 0,25.42578 h 15.41016 c 3.93811,0 6.83454,0.74256 8.68945,2.22656 1.85491,1.48401 2.78125,3.73673 2.78125,6.76172 0,3.025 -0.91191,5.25098 -2.73828,6.67773 -1.82636,1.42676 -4.73724,2.14063 -8.73242,2.14063 H 57.16855 Z" />
    </g>
  </g>
  <style
     type="text/css"
     id="style853">
	.st0{fill:#FFFFFF;}
</style>
</svg>
