<svg width="192" height="192" version="1.1" viewBox="0 0 192 192" xmlns="http://www.w3.org/2000/svg">
 <path d="m32 60c0-36 20-44 20-44h88s20 8 20 44c0 32-24 48-24 48h-80s-24-16-24-48z" style="fill:#728dbe;stroke-linecap:round;stroke-linejoin:round;stroke-width:16;stroke:#728dbe"/>
 <path d="m20 108h152s-60 68-76 68-76-68-76-68z" style="fill:#728dbe;stroke-linecap:round;stroke-linejoin:round;stroke-width:16;stroke:#728dbe"/>
 <path d="m26.275 40c-1.4096 5.7285-2.2754 12.357-2.2754 20 0 5.7852 0.71924 11.116 1.9141 16h38.086s-4-4-4-16c0-16 4-20 4-20h-37.725zm109.72 0c-4 0-4 4-4 4v28s0 4 4 4h30.086c1.1948-4.884 1.9141-10.215 1.9141-16 0-7.6429-0.86583-14.272-2.2754-20h-29.725z" style="fill:#fff"/>
 <path d="m112 36c8 0 8 8 8 8v28s0 8-8 8h-20c-20 0-20-16-20-16v-12s0-16 20-16z" style="fill:#fff"/>
 <rect x="84" y="48" width="28" height="20" ry="4" style="fill:#728dbe;paint-order:stroke fill markers"/>
 <rect x="100.1" y="54" width="16" height="8" ry="4" style="fill:#fff;paint-order:stroke fill markers"/>
 <circle cx="144" cy="58" r="4" style="fill:#728dbe;paint-order:stroke fill markers"/>
 <circle cx="160" cy="58" r="4" style="fill:#728dbe;paint-order:stroke fill markers"/>
</svg>
