<?xml version="1.0" encoding="UTF-8" standalone="no"?>
<svg
   xmlns:dc="http://purl.org/dc/elements/1.1/"
   xmlns:cc="http://creativecommons.org/ns#"
   xmlns:rdf="http://www.w3.org/1999/02/22-rdf-syntax-ns#"
   xmlns:svg="http://www.w3.org/2000/svg"
   xmlns="http://www.w3.org/2000/svg"
   xmlns:sodipodi="http://sodipodi.sourceforge.net/DTD/sodipodi-0.dtd"
   xmlns:inkscape="http://www.inkscape.org/namespaces/inkscape"
   sodipodi:docname="bima_plus.svg"
   inkscape:version="1.0.1 (3bc2e813f5, 2020-09-07)"
   version="1.1"
   id="svg2"
   viewBox="0 0 192 192"
   height="192"
   width="192"
   inkscape:export-filename="/home/jphilippe/inkscape/icônes/delta-github/png/bima_plus.png"
   inkscape:export-xdpi="96"
   inkscape:export-ydpi="96">
  <sodipodi:namedview
     inkscape:document-rotation="0"
     inkscape:window-maximized="1"
     inkscape:window-y="30"
     inkscape:window-x="1920"
     inkscape:window-height="1022"
     inkscape:window-width="1680"
     units="px"
     showgrid="false"
     inkscape:current-layer="layer1"
     inkscape:document-units="px"
     inkscape:cy="199.34307"
     inkscape:cx="95.151251"
     inkscape:zoom="1.4142136"
     inkscape:pageshadow="2"
     inkscape:pageopacity="0.0"
     borderopacity="1.0"
     bordercolor="#666666"
     pagecolor="#ffffff"
     id="base"
     inkscape:snap-bbox="false"
     inkscape:object-paths="true"
     inkscape:snap-nodes="true"
     showguides="true"
     inkscape:guide-bbox="true"
     inkscape:snap-object-midpoints="true"
     inkscape:snap-center="true"
     inkscape:snap-global="false"
     inkscape:snap-intersection-paths="true"
     inkscape:snap-smooth-nodes="true"
     inkscape:snap-midpoints="true" />
  <defs
     id="defs4" />
  <metadata
     id="metadata7">
    <rdf:RDF>
      <cc:Work
         rdf:about="">
        <dc:format>image/svg+xml</dc:format>
        <dc:type
           rdf:resource="http://purl.org/dc/dcmitype/StillImage" />
        <dc:title />
      </cc:Work>
    </rdf:RDF>
  </metadata>
  <g
     transform="translate(0,-860.36216)"
     id="layer1"
     inkscape:groupmode="layer"
     inkscape:label="Calque 1">
    <path
       id="path1033"
       style="fill:#56595b;fill-opacity:1;stroke:none;stroke-width:0.654782;stroke-linecap:butt;stroke-linejoin:miter;stroke-miterlimit:4;stroke-dasharray:none;stroke-opacity:1"
       d="M 52.258293,880.85327 39.588985,950.2376 c -5.350447,1.27072 -22.083182,5.44916 -31.1609774,13.8246 -1.5681115,1.44678 0.9684097,3.86177 11.0161994,4.49138 15.068894,0.94424 36.699295,1.04612 76.555793,1.04612 39.8565,0 61.48691,-0.10188 76.55579,-1.04612 10.04781,-0.62961 12.58431,-3.0446 11.0162,-4.49138 -9.07778,-8.37544 -25.81053,-12.55388 -31.16098,-13.8246 l -12.6693,-69.38433 a 3.1213337,3.1213337 0 0 0 -3.50912,-2.52969 l -38.747469,5.49865 a 10.570086,10.570086 0 0 1 -2.970242,0 l -38.747466,-5.49865 a 3.1213339,3.1213339 0 0 0 -3.50912,2.52969 z" />
    <path
       style="fill:#56595b;fill-opacity:1;stroke:none;stroke-width:0.654782;stroke-linecap:round;stroke-miterlimit:4;stroke-dasharray:none;stop-color:#000000"
       id="path1035"
       sodipodi:type="arc"
       sodipodi:cx="95.999962"
       sodipodi:cy="987.86548"
       sodipodi:rx="18.796152"
       sodipodi:ry="18.796152"
       sodipodi:start="0"
       sodipodi:end="3.1415927"
       sodipodi:arc-type="slice"
       d="m 114.79611,987.86548 a 18.796152,18.796152 0 0 1 -9.39807,16.27792 18.796152,18.796152 0 0 1 -18.796155,0 18.796152,18.796152 0 0 1 -9.398075,-16.27792 h 18.796152 z" />
    <path
       id="path1037"
       style="color:#000000;font-style:normal;font-variant:normal;font-weight:normal;font-stretch:normal;font-size:medium;line-height:normal;font-family:sans-serif;font-variant-ligatures:normal;font-variant-position:normal;font-variant-caps:normal;font-variant-numeric:normal;font-variant-alternates:normal;font-variant-east-asian:normal;font-feature-settings:normal;font-variation-settings:normal;text-indent:0;text-align:start;text-decoration:none;text-decoration-line:none;text-decoration-style:solid;text-decoration-color:#000000;letter-spacing:normal;word-spacing:normal;text-transform:none;writing-mode:lr-tb;direction:ltr;text-orientation:mixed;dominant-baseline:auto;baseline-shift:baseline;text-anchor:start;white-space:normal;shape-padding:0;shape-margin:0;inline-size:0;clip-rule:nonzero;display:inline;overflow:visible;visibility:visible;isolation:auto;mix-blend-mode:normal;color-interpolation:sRGB;color-interpolation-filters:linearRGB;solid-color:#000000;solid-opacity:1;vector-effect:none;fill:#56595b;fill-opacity:1;fill-rule:nonzero;stroke:none;stroke-width:13.0956;stroke-linecap:butt;stroke-linejoin:miter;stroke-miterlimit:4;stroke-dasharray:none;stroke-dashoffset:0;stroke-opacity:1;color-rendering:auto;image-rendering:auto;shape-rendering:auto;text-rendering:auto;enable-background:accumulate;stop-color:#000000"
       d="m 37.657221,977.10419 c -0.0013,0.16853 -0.0131,0.33501 -0.0131,0.50388 0,31.60073 26.282091,57.21423 58.354906,57.21423 32.072803,0 58.354893,-25.6135 58.354913,-57.21423 0,-0.16802 -0.0118,-0.33365 -0.0131,-0.50132 -4.36315,0.0733 -8.72709,0.11747 -13.09052,0.1637 8.6e-4,0.11302 0.008,0.22445 0.008,0.33762 -2e-5,24.36403 -20.10813,44.11853 -45.259271,44.11853 -25.151139,0 -45.259263,-19.7545 -45.259263,-44.11853 0,-0.10202 0.0065,-0.20251 0.0079,-0.30437 -4.363809,-0.0414 -8.728037,-0.0982 -13.090523,-0.19951 z" />
  </g>
  <style
     type="text/css"
     id="style853">
	.st0{fill:#FFFFFF;}
</style>
  <style
     type="text/css"
     id="style853-9">
	.st0{fill:#FFFFFF;}
</style>
  <style
     type="text/css"
     id="style853-3">
	.st0{fill:#FFFFFF;}
</style>
</svg>
