<?xml version="1.0" encoding="UTF-8" standalone="no"?>
<svg
   xmlns:dc="http://purl.org/dc/elements/1.1/"
   xmlns:cc="http://creativecommons.org/ns#"
   xmlns:rdf="http://www.w3.org/1999/02/22-rdf-syntax-ns#"
   xmlns:svg="http://www.w3.org/2000/svg"
   xmlns="http://www.w3.org/2000/svg"
   id="svg14"
   version="1.1"
   viewBox="0 0 192 192"
   height="192"
   width="192">
  <metadata
     id="metadata20">
    <rdf:RDF>
      <cc:Work
         rdf:about="">
        <dc:format>image/svg+xml</dc:format>
        <dc:type
           rdf:resource="http://purl.org/dc/dcmitype/StillImage" />
        <dc:title></dc:title>
      </cc:Work>
    </rdf:RDF>
  </metadata>
  <defs
     id="defs18" />
  <rect
     width="153"
     height="153"
     x="19.5"
     y="19.5"
     rx="10"
     id="rect2"
     style="fill:#4a4a4a;fill-rule:evenodd;stroke:none;fill-opacity:1" />
  <path
     id="path845"
     d="m 84.341182,122.25927 -11.65787,-11.65929 4.253051,-4.25305 4.253049,-4.25306 7.301368,7.29914 c 4.015751,4.01452 7.394899,7.29913 7.509219,7.29913 0.114319,0 3.493467,-3.28461 7.509221,-7.29913 l 7.30137,-7.29914 4.25328,4.25329 4.25329,4.25329 -11.65905,11.65905 -11.659057,11.65906 z m 7.297937,-21.9021 -4.357172,-4.36088 4.36088,-4.357171 4.36088,-4.357172 4.357173,4.360878 4.35717,4.36088 -4.36088,4.357175 -4.360879,4.35717 z m -29.305156,-0.10508 -4.252091,-4.25589 4.255889,-4.252091 4.255889,-4.252092 4.252092,4.255889 4.252092,4.255889 -4.255891,4.252095 -4.255889,4.25209 z m 58.664637,0.0544 -4.19753,-4.201476 4.30264,-4.306483 4.30264,-4.306485 4.25589,4.252092 4.25589,4.252091 -4.25207,4.255861 c -2.33864,2.34074 -4.30109,4.25588 -4.361,4.25588 -0.0599,0 -1.99782,-1.89067 -4.30646,-4.20148 z m -44.115827,-14.70568 -4.198139,-4.202078 11.65721,-11.65863 11.657209,-11.658628 11.658397,11.658391 11.65839,11.658391 -4.19838,4.202317 c -2.3091,2.311274 -4.29329,4.202316 -4.40931,4.202316 -0.11601,0 -3.49644,-3.284501 -7.51206,-7.298892 l -7.301128,-7.298893 -7.301127,7.298893 c -4.015622,4.014391 -7.348783,7.298892 -7.407025,7.298892 -0.05824,0 -1.995059,-1.890935 -4.304037,-4.202079 z"
     style="fill:#f8c18c;fill-opacity:1;stroke-width:0.21007247" />
</svg>
