<svg xmlns="http://www.w3.org/2000/svg" xml:space="preserve" id="svg45" width="100%" height="100%" style="fill-rule:evenodd;clip-rule:evenodd;stroke-linejoin:round;stroke-miterlimit:2" version="1.1" viewBox="0 0 192 192"><g id="g4" transform="matrix(.99346 0 0 .99346 8.575 8.575)"><path id="path2" d="M164.5 21.5c0-5.519-4.481-10-10-10h-133c-5.519 0-10 4.481-10 10v133c0 5.519 4.481 10 10 10h133c5.519 0 10-4.481 10-10z" style="fill:#fff"/></g><g id="g8" style="fill:#545859;fill-opacity:1" transform="matrix(.68292 0 0 .68292 29.026 20.046)"><circle id="circle6" cx="99.179" cy="111.22" r="31.652" style="fill:#545859;fill-opacity:1"/></g><g id="g12" transform="translate(44.369 37.251) scale(.52822)"><circle id="circle10" cx="99.179" cy="111.22" r="31.652" style="fill:#fff"/></g><g id="g16" transform="matrix(.55333 0 0 .49933 46.057 44.9)"><path id="rect14" d="M27.95 87.713h125.302v38.959H27.95z" style="fill:#fff"/></g><path id="path20" d="M60.634 97.892a4.711 4.711 0 0 1-4.505-3.448.978.978 0 0 1 .943-1.242c4.955-.015 24.78-.015 24.78-.015h.031a4.71 4.71 0 0 1 4.505 3.448.978.978 0 0 1-.943 1.241c-4.955.016-24.78.016-24.78.016z" style="fill:#545859;fill-opacity:1;stroke-width:.809831"/><path id="path24" d="M82.366 85.799c6.94.037 12.562 5.682 12.562 12.63 0 6.972-5.66 12.631-12.631 12.631-5.913 0-10.882-4.07-12.254-9.56a.977.977 0 0 1 .955-1.192c.868-.015 2.014-.015 2.743-.015.425 0 .803.27.94.673a7.768 7.768 0 0 0 7.302 5.108c4.3 0 7.79-3.49 7.79-7.79a7.794 7.794 0 0 0-7.407-7.78H81.6a7.799 7.799 0 0 0-.44.034v-.023h-8.705l.009-.011H48.67a4.711 4.711 0 0 1-4.458-3.448.976.976 0 0 1 .943-1.243c6.299-.014 37.21-.014 37.21-.014z" style="fill:#545859;fill-opacity:1;stroke-width:.809831"/><path id="path28" d="M133.406 97.892a4.711 4.711 0 0 0 4.505-3.448.978.978 0 0 0-.942-1.242c-4.956-.015-24.781-.015-24.781-.015h-.03a4.71 4.71 0 0 0-4.505 3.448.977.977 0 0 0 .942 1.241c4.956.016 24.78.016 24.78.016z" style="fill:#545859;fill-opacity:1;stroke-width:.809831"/><path id="path32" d="M145.428 90.504h-23.853l.01.011h-8.705v.023a7.799 7.799 0 0 0-.44-.034h-.765a7.794 7.794 0 0 0-7.407 7.78c0 4.3 3.49 7.79 7.79 7.79a7.798 7.798 0 0 0 7.313-5.104.98.98 0 0 1 .928-.664c.73-.013 1.875-.013 2.743-.013a.995.995 0 0 1 .97 1.21c-1.387 5.486-6.356 9.557-12.269 9.557-6.97 0-12.63-5.66-12.63-12.63 0-6.949 5.622-12.594 12.562-12.631h37.21a.993.993 0 0 1 .957 1.261c-.554 1.941-2.312 3.382-4.414 3.442z" style="fill:#545859;fill-opacity:1;stroke-width:.809831"/><style id="style853" type="text/css">.st0{fill:#fff}</style></svg>