<?xml version="1.0" encoding="UTF-8" standalone="no"?>
<svg
   xmlns:dc="http://purl.org/dc/elements/1.1/"
   xmlns:cc="http://creativecommons.org/ns#"
   xmlns:rdf="http://www.w3.org/1999/02/22-rdf-syntax-ns#"
   xmlns:svg="http://www.w3.org/2000/svg"
   xmlns="http://www.w3.org/2000/svg"
   xmlns:sodipodi="http://sodipodi.sourceforge.net/DTD/sodipodi-0.dtd"
   xmlns:inkscape="http://www.inkscape.org/namespaces/inkscape"
   width="100%"
   height="100%"
   viewBox="0 0 192 192"
   version="1.1"
   xml:space="preserve"
   style="fill-rule:evenodd;clip-rule:evenodd;stroke-linejoin:round;stroke-miterlimit:2;"
   id="svg45"
   sodipodi:docname="bird.svg"
   inkscape:version="1.0.1 (3bc2e813f5, 2020-09-07)"
   inkscape:export-filename="bird.png"
   inkscape:export-xdpi="96"
   inkscape:export-ydpi="96"><metadata
   id="metadata51"><rdf:RDF><cc:Work
       rdf:about=""><dc:format>image/svg+xml</dc:format><dc:type
         rdf:resource="http://purl.org/dc/dcmitype/StillImage" /></cc:Work></rdf:RDF></metadata><defs
   id="defs49" /><sodipodi:namedview
   pagecolor="#ffffff"
   bordercolor="#666666"
   borderopacity="1"
   objecttolerance="10"
   gridtolerance="10"
   guidetolerance="10"
   inkscape:pageopacity="0"
   inkscape:pageshadow="2"
   inkscape:window-width="1884"
   inkscape:window-height="1052"
   id="namedview47"
   showgrid="false"
   inkscape:zoom="1.7317708"
   inkscape:cx="-14.918971"
   inkscape:cy="88.175464"
   inkscape:window-x="36"
   inkscape:window-y="0"
   inkscape:window-maximized="1"
   inkscape:current-layer="svg45" />
    <g
   transform="matrix(0.99346405,0,0,0.99346405,8.5751636,8.5751636)"
   id="g4">
            <path
   d="m 164.5,21.5 c 0,-5.519 -4.481,-10 -10,-10 h -133 c -5.519,0 -10,4.481 -10,10 v 133 c 0,5.519 4.481,10 10,10 h 133 c 5.519,0 10,-4.481 10,-10 z"
   style="fill:#ffffff"
   id="path2" />
        </g><g
   transform="matrix(0.682917,0,0,0.682917,29.026045,20.04619)"
   id="g8"
   style="fill:#545859;fill-opacity:1">
                    <circle
   cx="99.179001"
   cy="111.22"
   r="31.652"
   style="fill:#545859;fill-opacity:1"
   id="circle6" />
                </g><g
   transform="matrix(0.52822097,0,0,0.52822097,44.368516,37.251365)"
   id="g12">
                    <circle
   cx="99.179001"
   cy="111.22"
   r="31.652"
   style="fill:#ffffff"
   id="circle10" />
                </g><g
   transform="matrix(0.55332767,0,0,0.49932953,46.056829,44.899677)"
   id="g16">
                    <rect
   x="27.950001"
   y="87.712997"
   width="125.302"
   height="38.959"
   style="fill:#ffffff"
   id="rect14" />
                </g><path
   d="m 60.634064,97.891779 c -2.147673,-0.01377 -3.956835,-1.469843 -4.505092,-3.448261 -0.08261,-0.294778 -0.02187,-0.610612 0.162777,-0.854371 0.184642,-0.244569 0.473751,-0.387099 0.779867,-0.387099 4.955357,-0.01539 24.780834,-0.01539 24.780834,-0.01539 h 0.03078 c 2.147672,0.01377 3.956025,1.469843 4.50428,3.448261 0.08261,0.294779 0.02187,0.610613 -0.162776,0.854371 -0.184641,0.244569 -0.473751,0.387099 -0.779867,0.387099 -4.955357,0.01539 -24.780024,0.01539 -24.780024,0.01539 z"
   style="fill:#545859;fill-opacity:1;stroke-width:0.809831"
   id="path20" /><path
   d="m 82.365883,85.798571 c 6.939443,0.03726 12.562101,5.682585 12.562101,12.630936 0,6.971023 -5.65991,12.630943 -12.630937,12.630943 -5.912577,0 -10.881701,-4.07103 -12.254365,-9.56087 -0.06478,-0.28992 0.0057,-0.59361 0.19193,-0.82522 0.185451,-0.23242 0.466462,-0.36686 0.763671,-0.36686 0.868139,-0.0146 2.01324,-0.0146 2.742898,-0.0146 0.425162,0 0.802543,0.27049 0.940214,0.67297 1.083554,2.98179 3.946307,5.10841 7.301437,5.10841 4.299395,0 7.789767,-3.49037 7.789767,-7.789762 0,-4.17144 -3.285485,-7.58083 -7.406716,-7.780858 h -0.765291 c -0.148199,0.0073 -0.294778,0.01863 -0.439738,0.03402 v -0.02267 h -8.704875 l 0.0089,-0.01134 H 48.671238 c -2.127427,-0.03402 -3.913914,-1.484421 -4.458121,-3.447451 -0.08261,-0.295589 -0.02267,-0.611423 0.162776,-0.855182 0.184642,-0.244569 0.473752,-0.387909 0.779868,-0.387909 6.298867,-0.01457 37.210122,-0.01457 37.210122,-0.01457 z"
   style="fill:#545859;fill-opacity:1;stroke-width:0.809831"
   id="path24" /><path
   d="m 133.40631,97.891779 c 2.14767,-0.01377 3.95682,-1.469843 4.50509,-3.448261 0.0826,-0.294778 0.0219,-0.610612 -0.16278,-0.854371 -0.18465,-0.244569 -0.47376,-0.387099 -0.77987,-0.387099 -4.95536,-0.01539 -24.78083,-0.01539 -24.78083,-0.01539 h -0.0308 c -2.14767,0.01377 -3.95602,1.469843 -4.50427,3.448261 -0.0827,0.294779 -0.0219,0.610613 0.16277,0.854371 0.18464,0.244569 0.47375,0.387099 0.77986,0.387099 4.95536,0.01539 24.78003,0.01539 24.78003,0.01539 z"
   style="fill:#545859;fill-opacity:1;stroke-width:0.809831"
   id="path28" /><path
   d="m 145.42824,90.50369 h -23.85276 l 0.009,0.01133 h -8.70487 v 0.02267 c -0.14496,-0.01539 -0.29154,-0.02672 -0.43974,-0.03402 h -0.76529 c -4.12123,0.200028 -7.40671,3.609418 -7.40671,7.780858 0,4.299392 3.49037,7.789762 7.78976,7.789762 3.35513,0 6.21789,-2.12662 7.31359,-5.10437 0.13524,-0.39762 0.50857,-0.66406 0.92807,-0.66406 0.72966,-0.0129 1.87475,-0.0129 2.74289,-0.0129 0.30207,0 0.58713,0.13686 0.77582,0.37171 0.1887,0.23566 0.25996,0.5434 0.19436,0.83818 -1.38724,5.4866 -6.35636,9.55763 -12.26894,9.55763 -6.97103,0 -12.630938,-5.65992 -12.630938,-12.630943 0,-6.948351 5.622658,-12.593685 12.562098,-12.630937 h 37.21012 c 0.31098,0 0.60414,0.144961 0.79202,0.392768 0.18788,0.247809 0.24942,0.569312 0.16521,0.86895 -0.55393,1.941165 -2.31207,3.381855 -4.41359,3.441782 z"
   style="fill:#545859;fill-opacity:1;stroke-width:0.809831"
   id="path32" />
<style
   type="text/css"
   id="style853">
	.st0{fill:#FFFFFF;}
</style></svg>
