<?xml version="1.0" encoding="UTF-8" standalone="no"?>
<svg
   xmlns:dc="http://purl.org/dc/elements/1.1/"
   xmlns:cc="http://creativecommons.org/ns#"
   xmlns:rdf="http://www.w3.org/1999/02/22-rdf-syntax-ns#"
   xmlns:svg="http://www.w3.org/2000/svg"
   xmlns="http://www.w3.org/2000/svg"
   xmlns:sodipodi="http://sodipodi.sourceforge.net/DTD/sodipodi-0.dtd"
   xmlns:inkscape="http://www.inkscape.org/namespaces/inkscape"
   viewBox="0 0 192 192"
   version="1.1"
   id="svg16"
   sodipodi:docname="bitlife.svg"
   inkscape:version="0.92.4 (5da689c313, 2019-01-14)">
  <metadata
     id="metadata20">
    <rdf:RDF>
      <cc:Work
         rdf:about="">
        <dc:format>image/svg+xml</dc:format>
        <dc:type
           rdf:resource="http://purl.org/dc/dcmitype/StillImage" />
        <dc:title></dc:title>
      </cc:Work>
    </rdf:RDF>
  </metadata>
  <sodipodi:namedview
     pagecolor="#ffffff"
     bordercolor="#666666"
     borderopacity="1"
     objecttolerance="10"
     gridtolerance="10"
     guidetolerance="10"
     inkscape:pageopacity="0"
     inkscape:pageshadow="2"
     inkscape:window-width="1920"
     inkscape:window-height="1017"
     id="namedview18"
     showgrid="true"
     inkscape:zoom="4.9166667"
     inkscape:cx="33.737584"
     inkscape:cy="87.922227"
     inkscape:window-x="-8"
     inkscape:window-y="-8"
     inkscape:window-maximized="1"
     inkscape:current-layer="svg16"
     inkscape:snap-global="false">
    <inkscape:grid
       type="xygrid"
       id="grid827"
       spacingx="4"
       spacingy="4" />
  </sodipodi:namedview>
  <defs
     id="defs4">
    <style
       id="style2">.a{fill:none;stroke:#b1b5bd;stroke-linecap:round;stroke-linejoin:round;isolation:isolate;opacity:0.63;}</style>
  </defs>
  <circle
     class="a"
     cx="96"
     cy="96"
     r="88"
     id="circle8"
     style="fill:#ff837d;opacity:1;stroke:none" />
  <path
     style="fill:#ffffff;stroke-width:0.64799857"
     d="m 102.83713,99.084621 c 0,0 7.88452,3.001069 11.74246,2.050289 9.98758,-2.461428 23.46396,-20.063547 21.52783,-27.305882 -2.4511,-9.168602 -20.89688,-6.220853 -29.63572,-1.584299 -13.012993,6.904278 -9.878571,19.47756 -9.878571,19.47756 -3.440347,5.056404 -2.115242,12.702261 -8.667053,15.563431 -5.441284,2.37621 -12.832393,-5.94078 -17.334098,-4.10054 -10.471689,4.2807 -5.412668,16.24932 -12.115228,20.5027 -2.239335,1.42105 -7.921498,0.74555 -7.921498,0.74555 0,0 6.21393,2.97173 9.039827,1.77069 6.058651,-2.57501 6.299388,-15.08558 10.71732,-16.58856 4.883823,-1.66146 12.102805,8.13418 18.359231,6.4304 10.269811,-2.79671 11.62869,-13.86897 14.1655,-16.961339 z"
     id="path829"
     inkscape:connector-curvature="0"
     sodipodi:nodetypes="cssscssscsssc" />
</svg>
