<?xml version="1.0" encoding="UTF-8" standalone="no"?>
<svg
   xmlns:dc="http://purl.org/dc/elements/1.1/"
   xmlns:cc="http://creativecommons.org/ns#"
   xmlns:rdf="http://www.w3.org/1999/02/22-rdf-syntax-ns#"
   xmlns:svg="http://www.w3.org/2000/svg"
   xmlns="http://www.w3.org/2000/svg"
   xmlns:sodipodi="http://sodipodi.sourceforge.net/DTD/sodipodi-0.dtd"
   xmlns:inkscape="http://www.inkscape.org/namespaces/inkscape"
   sodipodi:docname="bixi.svg"
   inkscape:version="1.0.1 (3bc2e813f5, 2020-09-07)"
   version="1.1"
   id="svg2"
   viewBox="0 0 192 192"
   height="192"
   width="192"
   inkscape:export-filename="/home/jphilippe/inkscape/icônes/delta-github/png/bixi.png"
   inkscape:export-xdpi="96"
   inkscape:export-ydpi="96">
  <sodipodi:namedview
     inkscape:document-rotation="0"
     inkscape:window-maximized="1"
     inkscape:window-y="0"
     inkscape:window-x="1920"
     inkscape:window-height="1022"
     inkscape:window-width="1680"
     units="px"
     showgrid="false"
     inkscape:current-layer="layer1"
     inkscape:document-units="px"
     inkscape:cy="28.086906"
     inkscape:cx="6.5764164"
     inkscape:zoom="2"
     inkscape:pageshadow="2"
     inkscape:pageopacity="0.0"
     borderopacity="1.0"
     bordercolor="#666666"
     pagecolor="#ffffff"
     id="base"
     inkscape:snap-bbox="false"
     inkscape:object-paths="true"
     inkscape:snap-nodes="true"
     showguides="true"
     inkscape:guide-bbox="true"
     inkscape:snap-object-midpoints="true"
     inkscape:snap-center="true"
     inkscape:snap-global="true"
     inkscape:snap-intersection-paths="true"
     inkscape:snap-smooth-nodes="true"
     inkscape:snap-midpoints="true" />
  <defs
     id="defs4">
    <clipPath
       clipPathUnits="userSpaceOnUse"
       id="clipPath963">
      <circle
         style="opacity:1;fill:#000000;fill-opacity:1;fill-rule:evenodd;stroke:none;stroke-width:0.227161;stroke-opacity:1"
         cx="-15.357689"
         cy="0.77235794"
         r="19.99015"
         id="circle965"
         transform="scale(1,-1)" />
    </clipPath>
  </defs>
  <metadata
     id="metadata7">
    <rdf:RDF>
      <cc:Work
         rdf:about="">
        <dc:format>image/svg+xml</dc:format>
        <dc:type
           rdf:resource="http://purl.org/dc/dcmitype/StillImage" />
        <dc:title></dc:title>
      </cc:Work>
    </rdf:RDF>
  </metadata>
  <g
     transform="translate(0,-860.36216)"
     id="layer1"
     inkscape:groupmode="layer"
     inkscape:label="Calque 1">
    <circle
       style="fill:#ff837d;fill-opacity:1;fill-rule:evenodd;stroke:none;stroke-width:1;stroke-opacity:1"
       cx="96"
       cy="956.36218"
       r="88"
       id="circle1070" />
    <g
       transform="matrix(4.4021679,0,0,-4.4021679,163.60713,952.96211)"
       id="g1074"
       style="fill:#ffffff;fill-opacity:1"
       clip-path="url(#clipPath963)">
      <path
         d="m 0,0 c -0.417,0.758 -1.339,1.717 -2.83,1.735 -0.011,10e-4 -0.023,10e-4 -0.035,10e-4 -0.011,0 -10.096,-10e-4 -10.096,-10e-4 l 0.123,0.159 0.155,0.181 c 0,0 0.234,0.308 0.574,0.754 l 9.6971225,12.322888 0.001,0.001 v 0.002 h 10e-4 l -4.303,3.362 h -10e-4 L -19.893,1.736 -23.174,1.7358814 H -37.014942 V -2.963 H -23.561 l -3.571,-4.567 c -0.928,-1.188 -0.718,-2.904 0.471,-3.832 0.572,-0.447 1.266,-0.629 1.935,-0.567 2.264,0 15.12,10e-4 15.131,10e-4 1.495,0.019 3.62,1.212 4.771,2.696 0.002,0.003 4.584,5.887 4.584,5.887 C 0.099,-2.89 0.776,-1.411 0,0 m -13.389,-7.153 h -6.497 l 3.259,4.189 8.22,-10e-4 v 0.002 c 0.024,0 0.051,0.002 0.074,0 h 0.072 c 0.456,-0.011 0.831,-0.389 0.831,-0.848 0,-0.173 -0.052,-0.333 -0.142,-0.467 l -1.869,-2.389 -0.007,-0.009 c -0.254,-0.295 -0.629,-0.483 -1.048,-0.484 z"
         id="path1072"
         style="fill:#ffffff;fill-opacity:1;fill-rule:nonzero;stroke:none"
         sodipodi:nodetypes="ccscccccccccccccccccccccccccccccsccccc" />
    </g>
  </g>
  <style
     type="text/css"
     id="style853">
	.st0{fill:#FFFFFF;}
</style>
  <style
     type="text/css"
     id="style853-9">
	.st0{fill:#FFFFFF;}
</style>
  <style
     type="text/css"
     id="style853-3">
	.st0{fill:#FFFFFF;}
</style>
</svg>
