<svg xmlns="http://www.w3.org/2000/svg" xml:space="preserve" width="192" height="192"><path fill="#b1b5bd" d="M162 172H30c-5.54 0-10-4.46-10-10V30c0-5.54 4.46-10 10-10h132c5.54 0 10 4.46 10 10v132c0 5.54-4.46 10-10 10z"/><path fill="#56595b" d="M20 96v66c0 5.54 4.46 10 10 10h132c5.54 0 10-4.46 10-10V96H20z"/><path fill="#56595b" stroke="#fff" stroke-width="6" d="M137 96.5c0 22.368-18.132 40.5-40.5 40.5S56 118.868 56 96.5 74.132 56 96.5 56 137 74.132 137 96.5z"/><path fill="#fff" fill-rule="evenodd" d="M158 40a6 6 0 1 0 0-12 6 6 0 0 0 0 12z" clip-rule="evenodd"/></svg>