<svg xmlns="http://www.w3.org/2000/svg" width="192" height="192"><circle cx="96" cy="96" r="88" opacity=".63" style="fill:none;stroke:#b1b5bd"/><circle cx="96" cy="96" r="88" style="fill:#56595b;paint-order:stroke fill markers"/><circle cx="96" cy="96" r="36.5" opacity=".63" style="fill:none;stroke-width:1.0002;stroke:#b1b5bd"/><circle cx="96" cy="96" r="72" style="fill:#fff;paint-order:stroke fill markers"/><path d="M95.555 43.92c-38.568-1.627-61.939 29.581-65.583 59.351-3.224 26.336 17.215 61.17 43.326 65.879 33.407 6.025 77.618-8.098 83.388-58.461 3.435-29.98-26.54-65.311-61.131-66.77z" style="fill:#56595b"/><circle cx="96" cy="100" r="31.161" style="fill:#fff;paint-order:stroke fill markers;stroke-width:.97377"/><circle cx="96" cy="104" r="28" style="fill:#56595b;paint-order:stroke fill markers"/><circle cx="96" cy="104" r="12" style="fill:#fff;paint-order:stroke fill markers"/><path d="M51.042 124.93s-2.412-22.174.594-32.643C58.028 70.023 76.86 63.205 76.86 63.205S47.727 64.387 41.546 92.88c-4.107 18.931 9.496 32.049 9.496 32.049z" style="fill:#fff"/><path d="M54.9 107.43s4.292 12.722 14.117 22.94c9.825 10.219 25.182 17.934 47.311 7.922 19.319-8.74 24.957-34.113 20.128-50.475-4.83-16.362-20.128-23.714-20.128-23.714s20.012 4.126 30.444 29.043c9.415 22.49-4.647 49.386-17.09 55.532-31.194 15.41-48.539 4.335-62.196-8.696C53.815 126.938 54.9 107.429 54.9 107.429z" style="fill:#fff"/></svg>