<svg xmlns="http://www.w3.org/2000/svg" viewBox="0 0 153 153"><title>Blogger</title><rect width="153" height="153" rx="10" fill="#f8c18c"/><path d="M83.33,59.5A23.59,23.59,0,0,0,59.75,83.07v25.87A23.57,23.57,0,0,0,83.33,132.5H108.7a23.54,23.54,0,0,0,23.55-23.56V92.23a4.7,4.7,0,0,0-4.69-4.72H123.5a4.71,4.71,0,0,1-4.69-4.38l0-.06A23.57,23.57,0,0,0,95.21,59.5Zm-.59,19.12H96.09a4.54,4.54,0,1,1,0,9.07H82.74a4.54,4.54,0,0,1,0-9.07Zm0,26.55H109.5a4.29,4.29,0,1,1,0,8.58H82.71a4.29,4.29,0,0,1,0-8.58Z" transform="translate(-19.5 -19.5)" fill="#fff"/></svg>