<svg xmlns="http://www.w3.org/2000/svg" width="192" height="192"><defs><linearGradient id="a" x1="68.55" x2="120.78" y1="144.52" y2="38.281" gradientUnits="userSpaceOnUse"><stop offset="0" stop-color="#728dbe"/><stop offset="1" stop-color="#9abeff"/></linearGradient></defs><g stroke-width="0"><circle cx="96.094" cy="96.094" r="87.906" fill="#fff"/><path fill="url(#a)" d="M183.99 95.736 73.93 180.699l14.795-73.57c-1.65-.108-3.32-.173-5.004-.215a298.813 298.813 0 0 0-5.088-.074c-3.411-.026-6.856-.032-10.295-.168-1.719-.068-3.436-.168-5.146-.32a71.943 71.943 0 0 1-5.104-.63 57.984 57.984 0 0 1-2.525-.462c-.839-.174-1.674-.368-2.504-.584s-1.656-.453-2.477-.715a43.22 43.22 0 0 1-2.447-.863 40.723 40.723 0 0 1-2.412-1.024 39.225 39.225 0 0 1-4.707-2.586 39.942 39.942 0 0 1-4.522-3.398 42.035 42.035 0 0 1-2.181-2.039 45.21 45.21 0 0 1-2.125-2.285 49.369 49.369 0 0 1-2.063-2.543 54.88 54.88 0 0 1-1.998-2.817 61.66 61.66 0 0 1-1.927-3.101 70.402 70.402 0 0 1-1.854-3.406 80.565 80.565 0 0 1-1.777-3.72 93.199 93.199 0 0 1-1.696-4.048 108.08 108.08 0 0 1-1.609-4.393 125.643 125.643 0 0 1-1.52-4.75 146.53 146.53 0 0 1-1.261-4.525A88 88 0 0 0 7.995 96a88 88 0 0 0 88 88 88 88 0 0 0 88-88 88 88 0 0 0-.006-.264z"/><path fill="url(#a)" d="M96 8a88 88 0 0 0-61.625 25.492c.343 1.785.75 3.808 1.252 6.055a182.488 182.488 0 0 0 1.87 7.625c.356 1.325.736 2.668 1.138 4.01.402 1.341.828 2.681 1.275 4.005a95.612 95.612 0 0 0 1.412 3.907 71.926 71.926 0 0 0 1.547 3.703 51.485 51.485 0 0 0 1.688 3.4c.585 1.073 1.193 2.08 1.824 3.002s1.287 1.76 1.965 2.498c.339.37.682.714 1.033 1.031s.706.607 1.068.867c.653.47 1.331.912 2.031 1.329.7.416 1.425.806 2.168 1.171.744.366 1.507.705 2.29 1.022.782.317 1.585.612 2.402.883.817.27 1.65.518 2.498.746.847.228 1.709.434 2.582.621 1.747.373 3.542.668 5.365.893 1.824.224 3.676.38 5.541.476 1.865.096 3.742.134 5.613.121s3.738-.074 5.58-.176c1.843-.1 3.663-.242 5.442-.412 1.779-.17 3.517-.369 5.197-.588 1.68-.218 3.3-.455 4.846-.703a177.05 177.05 0 0 0 8.22-1.517c2.343-.49 4.24-.937 5.551-1.262 1.312-.325 2.037-.527 2.037-.527l-8.308 45.998 69.994-53.385A88 88 0 0 0 96 8z"/></g></svg>