<svg xmlns="http://www.w3.org/2000/svg" xml:space="preserve" id="Layer_1" data-name="Layer 1" version="1.1" viewBox="0 0 192 192"><defs id="defs4"><clipPath id="clipPath5617" clipPathUnits="userSpaceOnUse"><circle id="circle5619" cx="96" cy="96" r="88" class="cls-1" style="fill:#73ada4;fill-opacity:1"/></clipPath><clipPath id="clipPath8090" clipPathUnits="userSpaceOnUse"><circle id="circle8092" cx="96" cy="96" r="76.119" class="cls-1" style="fill:#73ada4;fill-opacity:1;stroke-width:.86499"/></clipPath><style id="style2">.cls-1{fill:#98dc9a;isolation:isolate}.cls-2{fill:#fff}</style></defs><circle id="circle965" cx="96" cy="96" r="88" class="cls-1" style="fill:#708cbd;fill-opacity:1"/><g id="layer2" clip-path="url(#clipPath8090)" style="stroke-width:2.16247393;stroke-dasharray:none;fill:#99bdfe;fill-opacity:1;stroke:#99bdfe;stroke-opacity:1" transform="matrix(1.15608 0 0 1.15608 -14.984 -14.984)"><path id="path4298" d="M108.5 0v192" style="fill:#99bdfe;fill-rule:evenodd;stroke:#99bdfe;stroke-width:2.16247393;stroke-linecap:round;stroke-linejoin:round;stroke-dasharray:none;stroke-dashoffset:6;stroke-opacity:1;paint-order:stroke fill markers;stop-color:#000;fill-opacity:1"/><path id="path4300" d="M133.5 0v192" style="fill:#99bdfe;fill-rule:evenodd;stroke:#99bdfe;stroke-width:2.16247393;stroke-linecap:round;stroke-linejoin:round;stroke-dasharray:none;stroke-dashoffset:6;stroke-opacity:1;paint-order:stroke fill markers;stop-color:#000;fill-opacity:1"/><path id="path4302" d="M158.5 0v192" style="fill:#99bdfe;fill-rule:evenodd;stroke:#99bdfe;stroke-width:2.16247393;stroke-linecap:round;stroke-linejoin:round;stroke-dasharray:none;stroke-dashoffset:6;stroke-opacity:1;paint-order:stroke fill markers;stop-color:#000;fill-opacity:1"/><path id="path4304" d="M8.5 0v192" style="fill:#99bdfe;fill-rule:evenodd;stroke:#99bdfe;stroke-width:2.16247393;stroke-linecap:round;stroke-linejoin:round;stroke-dasharray:none;stroke-dashoffset:6;stroke-opacity:1;paint-order:stroke fill markers;stop-color:#000;fill-opacity:1"/><path id="path4306" d="M33.5 0v192" style="fill:#99bdfe;fill-rule:evenodd;stroke:#99bdfe;stroke-width:2.16247393;stroke-linecap:round;stroke-linejoin:round;stroke-dasharray:none;stroke-dashoffset:6;stroke-opacity:1;paint-order:stroke fill markers;stop-color:#000;fill-opacity:1"/><path id="path4308" d="M58.5 0v192" style="fill:#99bdfe;fill-rule:evenodd;stroke:#99bdfe;stroke-width:2.16247393;stroke-linecap:round;stroke-linejoin:round;stroke-dasharray:none;stroke-dashoffset:6;stroke-opacity:1;paint-order:stroke fill markers;stop-color:#000;fill-opacity:1"/><path id="path4310" d="M83.5 0v192" style="fill:#99bdfe;fill-rule:evenodd;stroke:#99bdfe;stroke-width:2.16247393;stroke-linecap:round;stroke-linejoin:round;stroke-dasharray:none;stroke-dashoffset:6;stroke-opacity:1;paint-order:stroke fill markers;stop-color:#000;fill-opacity:1"/><path id="path4342" d="M192 108.5H0" style="fill:#99bdfe;fill-rule:evenodd;stroke:#99bdfe;stroke-width:2.16247393;stroke-linecap:round;stroke-linejoin:round;stroke-dasharray:none;stroke-dashoffset:6;stroke-opacity:1;paint-order:stroke fill markers;stop-color:#000;fill-opacity:1"/><path id="path4344" d="M192 133.5H0" style="fill:#99bdfe;fill-rule:evenodd;stroke:#99bdfe;stroke-width:2.16247393;stroke-linecap:round;stroke-linejoin:round;stroke-dasharray:none;stroke-dashoffset:6;stroke-opacity:1;paint-order:stroke fill markers;stop-color:#000;fill-opacity:1"/><path id="path4346" d="M192 158.5H0" style="fill:#99bdfe;fill-rule:evenodd;stroke:#99bdfe;stroke-width:2.16247393;stroke-linecap:round;stroke-linejoin:round;stroke-dasharray:none;stroke-dashoffset:6;stroke-opacity:1;paint-order:stroke fill markers;stop-color:#000;fill-opacity:1"/><path id="path4350" d="M192 33.5H0" style="fill:#99bdfe;fill-rule:evenodd;stroke:#99bdfe;stroke-width:2.16247393;stroke-linecap:round;stroke-linejoin:round;stroke-dasharray:none;stroke-dashoffset:6;stroke-opacity:1;paint-order:stroke fill markers;stop-color:#000;fill-opacity:1"/><path id="path4352" d="M192 58.5H0" style="fill:#99bdfe;fill-rule:evenodd;stroke:#99bdfe;stroke-width:2.16247393;stroke-linecap:round;stroke-linejoin:round;stroke-dasharray:none;stroke-dashoffset:6;stroke-opacity:1;paint-order:stroke fill markers;stop-color:#000;fill-opacity:1"/><path id="path4354" d="M192 83.5H0" style="fill:#99bdfe;fill-rule:evenodd;stroke:#99bdfe;stroke-width:2.16247393;stroke-linecap:round;stroke-linejoin:round;stroke-dasharray:none;stroke-dashoffset:6;stroke-opacity:1;paint-order:stroke fill markers;stop-color:#000;fill-opacity:1"/><path id="path5613" d="M192 183.5H0" style="fill:#99bdfe;fill-rule:evenodd;stroke:#99bdfe;stroke-width:2.16247393;stroke-linecap:round;stroke-linejoin:round;stroke-dasharray:none;stroke-dashoffset:6;stroke-opacity:1;paint-order:stroke fill markers;stop-color:#000;fill-opacity:1"/></g><path id="path7" d="M73.195 69.5c-1.968-.086-3.59 2.045-2.946 3.918.923 1.945 2.118 3.763 3.148 5.658l2.255 3.95c-8.74 5.294-15.106 14.306-17.2 24.306-.505 2.249-.687 4.55-.901 6.84h76.894c-.267-3.72-.796-7.443-2.02-10.98-2.775-8.322-8.571-15.595-16.085-20.128 1.778-3.124 3.646-6.204 5.37-9.355.828-1.842-.692-4.176-2.706-4.174-1.334-.096-2.444.882-2.954 2.045l-5.144 8.754c-9.408-3.876-20.32-3.83-29.746-.033-1.904-3.24-3.734-6.526-5.685-9.737-.574-.65-1.403-1.074-2.28-1.064Z" class="cls-2" clip-path="url(#clipPath5617)" style="fill:none;fill-opacity:1;stroke:#fff;stroke-width:3.26892173;stroke-linejoin:miter;stroke-dasharray:none;stroke-opacity:1" transform="matrix(1.07012 0 0 1.07126 -6.714 -5.255)"/><path id="path23213" d="M79.164 94.23c-2.3-.062-4.415 1.797-4.638 4.088-.39 2.347 1.194 4.878 3.576 5.33 2.215.55 4.79-.597 5.573-2.806 1.015-2.405-.223-5.57-2.786-6.354a5.174 5.174 0 0 0-1.725-.258zm33.58 0c-2.3-.062-4.414 1.797-4.637 4.088-.39 2.347 1.193 4.878 3.575 5.33 2.215.55 4.79-.597 5.573-2.806 1.015-2.405-.223-5.57-2.786-6.354a5.174 5.174 0 0 0-1.725-.258z" class="cls-2" clip-path="url(#clipPath5617)" style="fill:none;fill-opacity:1;stroke:#fff;stroke-width:3.26892173;stroke-linejoin:miter;stroke-dasharray:none;stroke-opacity:1" transform="matrix(1.07012 0 0 1.07126 -6.714 -5.255)"/></svg>