<svg width="192" height="192" version="1.1" viewBox="0 0 192 192" xmlns="http://www.w3.org/2000/svg">
 <path d="m16 36-8 48 8 75.303c1.2529 0.4437 2.5951 0.69713 4 0.69727h152c6.6271-6.6e-4 11.999-5.3729 12-12v-84c-6.6e-4 -6.6271-5.3729-11.999-12-12h-67.029l-12.518-12.518-0.45312 0.51758-76-4z" style="color-rendering:auto;color:#000000;dominant-baseline:auto;fill:#ececec;font-feature-settings:normal;font-variant-alternates:normal;font-variant-caps:normal;font-variant-ligatures:normal;font-variant-numeric:normal;font-variant-position:normal;image-rendering:auto;isolation:auto;mix-blend-mode:normal;shape-padding:0;shape-rendering:auto;solid-color:#000000;text-decoration-color:#000000;text-decoration-line:none;text-decoration-style:solid;text-indent:0;text-orientation:mixed;text-transform:none;white-space:normal"/>
 <path d="m20 32c-6.6271 6.63e-4 -11.999 5.3729-12 12v104c5.221e-4 5.2223 3.3428 9.6534 8 11.303v-115.3s0-4 4-4h72.969l-4.4844-4.4844c-2.2501-2.2504-5.302-3.515-8.4844-3.5156h-60z" style="fill:#728dbe;paint-order:stroke fill markers;stroke-linecap:round;stroke-linejoin:round;stroke-width:24"/>
 <rect x="28" y="64" width="144" height="84" ry="4" style="fill:#fff;paint-order:stroke fill markers;stroke-linecap:round;stroke-linejoin:round;stroke-width:24"/>
 <path d="m45.27 83.957a5.642 5.642 0 0 0-3.3033 10.128l15.371 12.063-15.355 11.959a5.642 5.642 0 1 0 6.9328 8.9028l21.05-16.393a5.642 5.642 0 0 0 0.01543-8.8896l-21.05-16.519a5.642 5.642 0 0 0-3.6603-1.2517z" style="color-rendering:auto;color:#000000;dominant-baseline:auto;fill:#56595b;font-feature-settings:normal;font-variant-alternates:normal;font-variant-caps:normal;font-variant-ligatures:normal;font-variant-numeric:normal;font-variant-position:normal;image-rendering:auto;isolation:auto;mix-blend-mode:normal;shape-padding:0;shape-rendering:auto;solid-color:#000000;text-decoration-color:#000000;text-decoration-line:none;text-decoration-style:solid;text-indent:0;text-orientation:mixed;text-transform:none;white-space:normal"/>
</svg>
