<?xml version="1.0" encoding="utf-8"?>
<!-- Generator: Adobe Illustrator 17.1.0, SVG Export Plug-In . SVG Version: 6.00 Build 0)  -->
<!DOCTYPE svg PUBLIC "-//W3C//DTD SVG 1.1//EN" "http://www.w3.org/Graphics/SVG/1.1/DTD/svg11.dtd">
<svg version="1.1" id="Слой_1" xmlns="http://www.w3.org/2000/svg" xmlns:xlink="http://www.w3.org/1999/xlink" x="0px" y="0px"
	 viewBox="0 0 192 192" enable-background="new 0 0 192 192" xml:space="preserve">
<path fill="#6ADE96" d="M192,172c0,11-9,20-20,20H20c-11,0-20-9-20-20V20C0,9,9,0,20,0h152c11,0,20,9,20,20V172z"/>
<image overflow="visible" width="241" height="241" xlink:href="30E0AF75.jpg"  transform="matrix(1 0 0 1 -274.3333 -179)">
</image>
<g>
	<path fill="#23C790" d="M97.8,33.3C97.8,33.3,97.9,33.3,97.8,33.3c0-1.5,0-3,0-4.5c0-1-0.2-1.6-1.4-1.6c-1.2,0-1.7,0.5-1.7,1.7
		c0.1,3,0,5.9,0,8.9c0,0.8,0,1.8,1.3,1.8c1.2,0,1.7-0.7,1.7-1.8C97.9,36.3,97.8,34.8,97.8,33.3z M146.3,144.6
		c-0.2-0.3-0.3-0.6-0.5-0.8c-2.2-2.2-4.5-4.5-6.7-6.7c-0.8-0.8-1.2-0.3-1.8,0.2c-0.8,0.7-0.9,1.3-0.1,2.1c2.1,2,4.2,4.2,6.3,6.2
		c0.4,0.4,0.8,1.1,1.5,0.4C145.4,145.5,145.8,145.1,146.3,144.6z M94.8,160C94.8,160,94.8,160,94.8,160c0,1.5,0,3,0,4.5
		c0,0.8-0.3,1.8,1.1,1.9c1.1,0.1,1.9-0.4,1.9-1.6c0-3.1,0-6.2,0-9.2c0-0.9-0.4-1.3-1.3-1.3c-1,0-1.7,0.2-1.7,1.4
		C94.9,157,94.8,158.5,94.8,160z M48.3,146.2c0.3-0.2,0.6-0.2,0.7-0.4c2.3-2.3,4.7-4.6,6.9-6.9c0.8-0.8-0.2-1.3-0.6-1.8
		c-0.6-0.8-1.2-0.5-1.8,0.1c-2.1,2.1-4.2,4.2-6.2,6.3c-0.5,0.5-0.9,1-0.3,1.6C47.4,145.5,47.9,145.9,48.3,146.2z M138,56.5
		c0.3-0.1,0.6-0.1,0.7-0.2c2.4-2.4,4.8-4.8,7.2-7.3c0.5-0.6-0.3-1.1-0.7-1.6c-0.5-0.6-1-0.7-1.6-0.1c-2.2,2.2-4.4,4.3-6.6,6.5
		C135.6,55.4,137.5,55.7,138,56.5z M56.3,54.8c-0.2-0.3-0.3-0.6-0.5-0.8c-2.2-2.2-4.5-4.5-6.7-6.7c-0.8-0.8-1.3-0.1-1.8,0.4
		c-0.7,0.6-0.8,1.2-0.1,1.8c2.2,2.1,4.3,4.4,6.5,6.4C55.1,57.3,55.5,55.6,56.3,54.8z M32.7,97.9c1.5,0,3,0,4.4,0
		c0.9,0,1.4-0.3,1.4-1.3c0-0.8-0.2-1.5-1.2-1.5c-3.1,0-6.1,0-9.2,0c-0.9,0-1.2,0.6-1.2,1.4c0,1,0.4,1.3,1.3,1.3
		C29.7,97.9,31.2,97.9,32.7,97.9z M159.8,97.9c1.5,0,3,0,4.4,0c1.1,0,1.5-0.4,1.5-1.5c0-0.9-0.4-1.3-1.3-1.3c-3,0-5.9,0-8.9,0
		c-0.9,0-1.3,0.4-1.4,1.3c0,1.1,0.5,1.5,1.5,1.5C157.1,97.9,158.4,97.9,159.8,97.9z"/>
	<path fill="#F2F5F3" d="M113.1,94.7c11.3,8.1,13.4,20.6,5.2,30c-3.3,3.8-7.6,6.3-12.9,6.3c-9.4,0-18.7-0.1-28.1,0.1
		c-2.2,0-2.6-0.8-2.6-2.8c0.1-21.2,0.1-42.4,0-63.6c0-1.9,0.4-2.6,2.5-2.6c9.1,0.1,18.1,0,27.2,0.1c7.9,0.1,14.2,4.6,16.7,11.6
		c2.4,6.6,0.8,13.7-4.1,18.2C115.9,92.9,114.6,93.7,113.1,94.7z M81.9,111.2c0,3.7,0,7.5,0,11.2c0,1-0.2,2.2,1.5,2.2
		c7.8-0.2,15.6,0.7,23.3-0.5c4.2-0.7,7.3-3.3,8.7-7.6c2.9-9.7-3-18.1-13-18.5c-6.1-0.2-12.1,0-18.2-0.1c-2,0-2.3,0.8-2.2,2.4
		C81.9,104,81.9,107.6,81.9,111.2z M93.8,91.6C93.8,91.6,93.8,91.6,93.8,91.6c3.1,0,6.2,0.1,9.3,0c5.9-0.2,10.5-3.7,11.5-8.7
		c1.6-8.2-2.9-13.7-12-14.1c-6.2-0.3-12.3,0-18.5-0.1c-1.7,0-2.2,0.6-2.1,2.2c0.1,6.3,0.1,12.6,0,18.8c0,1.5,0.5,2,2,2
		C87.2,91.5,90.5,91.6,93.8,91.6z"/>
	<path fill="#F2F5F3" d="M97.8,33.3c0,1.5,0,3,0,4.5c0,1.1-0.5,1.8-1.7,1.8c-1.3,0-1.2-0.9-1.3-1.8c0-3,0-5.9,0-8.9
		c0-1.2,0.4-1.7,1.7-1.7c1.1,0,1.4,0.6,1.4,1.6C97.8,30.4,97.9,31.9,97.8,33.3C97.9,33.3,97.8,33.3,97.8,33.3z"/>
	<path fill="#F2F5F3" d="M146.3,144.6c-0.5,0.5-0.9,1-1.3,1.4c-0.7,0.6-1.1,0-1.5-0.4c-2.1-2.1-4.2-4.2-6.3-6.2
		c-0.8-0.8-0.7-1.4,0.1-2.1c0.6-0.5,1.1-1,1.8-0.2c2.2,2.3,4.5,4.5,6.7,6.7C146,143.9,146.1,144.2,146.3,144.6z"/>
	<path fill="#F2F5F3" d="M94.8,160c0-1.5,0-3,0-4.5c0-1.2,0.7-1.4,1.7-1.4c0.9,0,1.3,0.4,1.3,1.3c0,3.1,0,6.2,0,9.2
		c0,1.2-0.8,1.7-1.9,1.6c-1.3-0.1-1-1.1-1.1-1.9C94.8,163,94.8,161.5,94.8,160C94.8,160,94.8,160,94.8,160z"/>
	<path fill="#F2F5F3" d="M48.3,146.2c-0.4-0.3-0.9-0.7-1.3-1.1c-0.6-0.6-0.1-1.2,0.3-1.6c2.1-2.1,4.2-4.2,6.2-6.3
		c0.6-0.6,1.2-0.9,1.8-0.1c0.4,0.5,1.4,1,0.6,1.8c-2.3,2.3-4.6,4.6-6.9,6.9C48.8,146,48.6,146,48.3,146.2z"/>
	<path fill="#F2F5F3" d="M138,56.5c-0.5-0.8-2.4-1.1-0.9-2.6c2.1-2.2,4.4-4.4,6.6-6.5c0.6-0.6,1.1-0.5,1.6,0.1
		c0.4,0.5,1.2,1,0.7,1.6c-2.3,2.5-4.8,4.9-7.2,7.3C138.6,56.4,138.4,56.4,138,56.5z"/>
	<path fill="#F2F5F3" d="M56.3,54.8c-0.8,0.7-1.2,2.4-2.6,1.1c-2.3-2-4.3-4.3-6.5-6.4c-0.7-0.7-0.6-1.3,0.1-1.8
		c0.5-0.5,1-1.2,1.8-0.4c2.2,2.2,4.5,4.5,6.7,6.7C56,54.2,56.1,54.5,56.3,54.8z"/>
	<path fill="#F2F5F3" d="M32.7,97.9c-1.5,0-3,0-4.4,0c-0.9,0-1.3-0.4-1.3-1.3c0-0.9,0.3-1.4,1.2-1.4c3.1,0,6.1,0,9.2,0
		c1,0,1.2,0.7,1.2,1.5c0,1-0.5,1.3-1.4,1.3C35.7,97.9,34.2,97.9,32.7,97.9z"/>
	<path fill="#F2F5F3" d="M159.8,97.9c-1.4,0-2.7,0-4.1,0c-1,0-1.6-0.3-1.5-1.5c0-0.9,0.5-1.3,1.4-1.3c3,0,5.9,0,8.9,0
		c0.9,0,1.3,0.4,1.3,1.3c0,1.1-0.4,1.5-1.5,1.5C162.8,97.9,161.3,97.9,159.8,97.9z"/>
</g>
</svg>
