<?xml version="1.0" encoding="UTF-8" standalone="no"?>
<!DOCTYPE svg PUBLIC "-//W3C//DTD SVG 1.1//EN" "http://www.w3.org/Graphics/SVG/1.1/DTD/svg11.dtd">
<svg width="100%" height="100%" viewBox="0 0 192 192" version="1.1" xmlns="http://www.w3.org/2000/svg" xmlns:xlink="http://www.w3.org/1999/xlink" xml:space="preserve" xmlns:serif="http://www.serif.com/" style="fill-rule:evenodd;clip-rule:evenodd;stroke-linejoin:round;stroke-miterlimit:2;">
    <g id="Layer1">
        <g transform="matrix(1,0,0,1,8,8)">
            <path d="M164.5,21.5C164.5,15.981 160.019,11.5 154.5,11.5L21.5,11.5C15.981,11.5 11.5,15.981 11.5,21.5L11.5,154.5C11.5,160.019 15.981,164.5 21.5,164.5L154.5,164.5C160.019,164.5 164.5,160.019 164.5,154.5L164.5,21.5Z" style="fill:rgb(150,223,211);"/>
        </g>
        <path d="M116.424,132.727C116.424,132.727 101.349,133.718 89.606,124.669C78.073,115.782 71.639,109.529 64.037,110.013C56.435,110.497 52.711,114.531 51.78,117.479L41.385,117.479C41.385,117.479 44.643,101.498 64.037,100.102C64.037,100.102 75.773,98.842 88.582,111.552C88.582,111.552 99.542,122.801 116.424,122.801L116.528,122.801C125.36,122.741 132.514,115.115 132.514,105.731C132.514,96.31 125.304,88.661 116.424,88.661C107.545,88.661 100.335,96.31 100.335,105.731C100.335,106.832 100.434,107.91 100.622,108.953C100.65,109.1 100.584,109.248 100.458,109.326C100.331,109.404 100.169,109.396 100.05,109.306C98.006,107.742 92.524,103.546 91.574,102.819C91.485,102.751 91.433,102.645 91.433,102.533L91.433,59.732C91.632,59.732 91.793,59.57 91.793,59.372C93.229,59.372 98.539,59.372 99.975,59.372C100.174,59.372 100.335,59.533 100.336,59.732C100.337,62.843 100.345,85.073 100.345,85.073C104.771,81.118 110.485,78.734 116.719,78.734C130.763,78.734 142.164,90.831 142.164,105.731C142.164,120.63 130.763,132.727 116.719,132.727C116.621,132.727 116.523,132.727 116.424,132.725L116.424,132.727Z" style="fill:white;"/>
    </g>
</svg>
