<svg xmlns="http://www.w3.org/2000/svg" viewBox="0 0 192 192"><circle cx="96" cy="96" r="83" fill="#56595b"/><path fill="#ff837d" d="M96 18a78 78 0 1 1-78 78 78.09 78.09 0 0 1 78-78m0-10a88 88 0 1 0 88 88A88 88 0 0 0 96 8Z"/><path fill="#ff837d" d="M124.65 112.3c0 13.39-9.73 20.2-22.14 20.2H70.35a3 3 0 0 1-3-3v-67a3 3 0 0 1 3-3h29.36c12.53 0 22.51 7.3 22.51 20.56 0 7.66-3.16 12.53-8.27 15.33 6.44 2.8 10.7 8.15 10.7 16.91ZM97.4 75.68H86v12.9h11.4a6.53 6.53 0 0 0 6.2-6.45 6.44 6.44 0 0 0-6.2-6.45Zm8.6 34.19a6.47 6.47 0 0 0-6.33-6.45H86v12.9h13.71a6.39 6.39 0 0 0 6.29-6.45Z"/></svg>