<?xml version="1.0" encoding="UTF-8" standalone="no"?>
<!-- Created with Inkscape (http://www.inkscape.org/) -->

<svg
   xmlns:dc="http://purl.org/dc/elements/1.1/"
   xmlns:cc="http://creativecommons.org/ns#"
   xmlns:rdf="http://www.w3.org/1999/02/22-rdf-syntax-ns#"
   xmlns:svg="http://www.w3.org/2000/svg"
   xmlns="http://www.w3.org/2000/svg"
   xmlns:sodipodi="http://sodipodi.sourceforge.net/DTD/sodipodi-0.dtd"
   xmlns:inkscape="http://www.inkscape.org/namespaces/inkscape"
   width="192"
   height="192"
   viewBox="0 0 192 192"
   id="svg2"
   version="1.1"
   inkscape:version="0.91 r13725"
   sodipodi:docname="bouncer.svg"
   inkscape:export-filename="/home/jphilippe/inkscape/icônes/delta-github/png/bouncer.png"
   inkscape:export-xdpi="90"
   inkscape:export-ydpi="90">
  <defs
     id="defs4">
    <clipPath
       clipPathUnits="userSpaceOnUse"
       id="clipPath6267">
      <rect
         style="fill:#0000ff;fill-rule:evenodd;stroke:#000000;stroke-width:1px;stroke-linecap:butt;stroke-linejoin:miter;stroke-opacity:1"
         id="rect6269"
         width="359.21024"
         height="383.25186"
         x="-698.62152"
         y="1422.8861"
         rx="11.5686" />
    </clipPath>
  </defs>
  <sodipodi:namedview
     id="base"
     pagecolor="#ffffff"
     bordercolor="#666666"
     borderopacity="1.0"
     inkscape:pageopacity="0.0"
     inkscape:pageshadow="2"
     inkscape:zoom="0.70710678"
     inkscape:cx="-366.52784"
     inkscape:cy="126.39648"
     inkscape:document-units="px"
     inkscape:current-layer="layer4"
     showgrid="false"
     units="px"
     inkscape:window-width="1680"
     inkscape:window-height="996"
     inkscape:window-x="0"
     inkscape:window-y="28"
     inkscape:window-maximized="1">
    <inkscape:grid
       type="xygrid"
       id="grid6338" />
  </sodipodi:namedview>
  <metadata
     id="metadata7">
    <rdf:RDF>
      <cc:Work
         rdf:about="">
        <dc:format>image/svg+xml</dc:format>
        <dc:type
           rdf:resource="http://purl.org/dc/dcmitype/StillImage" />
        <dc:title></dc:title>
      </cc:Work>
    </rdf:RDF>
  </metadata>
  <g
     inkscape:groupmode="layer"
     id="layer4"
     inkscape:label="Calque 1"
     style="display:inline;opacity:1">
    <g
       id="g6468">
      <circle
         style="opacity:1;fill:#f9de81;fill-opacity:1;stroke:none;stroke-width:13.19662285;stroke-linecap:round;stroke-linejoin:round;stroke-miterlimit:4;stroke-dasharray:none;stroke-opacity:1"
         id="circle6409"
         cx="96"
         cy="96"
         r="88.5" />
      <path
         id="rect6378"
         d="m 33.722656,158.78516 a 88.5,88.5 0 0 0 5.263672,4.90429 88.5,88.5 0 0 0 7.042969,5.35352 88.5,88.5 0 0 0 7.541015,4.62305 88.5,88.5 0 0 0 7.966797,3.84765 88.5,88.5 0 0 0 8.308594,3.03321 88.5,88.5 0 0 0 8.572266,2.18945 88.5,88.5 0 0 0 8.746093,1.32226 A 88.5,88.5 0 0 0 96,184.5 a 88.5,88.5 0 0 0 6.25977,-0.22266 88.5,88.5 0 0 0 8.7832,-1.06445 88.5,88.5 0 0 0 8.63086,-1.9375 88.5,88.5 0 0 0 8.39453,-2.78906 88.5,88.5 0 0 0 8.07422,-3.61524 88.5,88.5 0 0 0 7.67383,-4.40039 88.5,88.5 0 0 0 7.19531,-5.14648 88.5,88.5 0 0 0 6.64648,-5.83789 88.5,88.5 0 0 0 0.61914,-0.66406 l 0,-3.68165 -0.002,0 c 1e-5,-0.0115 0.002,-0.0217 0.002,-0.0332 l 0,-4.16797 c 0,-20.36477 -14.51182,-36.75976 -32.53711,-36.75976 l -59.480464,0 c -18.025288,0 -32.53711,16.39499 -32.53711,36.75976 l 0,4.16797 c 0,0.0115 0.002,0.0217 0.002,0.0332 l -0.002,0 0,3.64454 z"
         style="display:inline;opacity:1;fill:#56595b;fill-opacity:1;fill-rule:evenodd;stroke:none;stroke-width:1px;stroke-linecap:butt;stroke-linejoin:miter;stroke-opacity:1"
         inkscape:connector-curvature="0" />
      <circle
         r="40.266239"
         cy="95.615814"
         cx="96"
         id="path6271"
         style="display:inline;opacity:1;fill:#ffffff;fill-opacity:1;stroke:#56595b;stroke-width:6.4333415;stroke-linecap:round;stroke-linejoin:round;stroke-miterlimit:4;stroke-dasharray:none;stroke-opacity:1" />
      <path
         id="rect6283"
         d="m 77.71361,84.096699 c -3.297013,0 -5.951725,2.37702 -5.951725,5.329276 l 0,2.600418 c 0,0.13737 0.01214,0.272153 0.02342,0.406845 -0.0083,0.140749 -0.02342,0.28003 -0.02342,0.42278 0,4.187914 3.617997,7.559412 8.111557,7.559412 l 5.135226,0 c 4.493559,0 8.111556,-3.371498 8.111556,-7.559412 0,-0.08672 -0.0078,-0.171586 -0.01406,-0.256857 l 5.547697,0 c -0.0062,0.08527 -0.01406,0.170133 -0.01406,0.256857 0,4.187914 3.617999,7.559412 8.111559,7.559412 l 5.13523,0 c 4.49356,0 8.11155,-3.371498 8.11155,-7.559412 0,-0.14275 -0.0151,-0.282031 -0.0234,-0.42278 0.0113,-0.134692 0.0234,-0.269475 0.0234,-0.406845 l 0,-2.600418 c 0,-2.952256 -2.65471,-5.329276 -5.95172,-5.329276 l -9.45489,0 c -3.00305,0 -5.465748,1.974279 -5.88236,4.556833 l -5.658309,0 C 92.634243,86.070978 90.17155,84.096699 87.1685,84.096699 l -9.45489,0 z"
         style="fill:#56595b;fill-opacity:1;fill-rule:evenodd;stroke:none;stroke-width:1px;stroke-linecap:butt;stroke-linejoin:miter;stroke-opacity:1"
         inkscape:connector-curvature="0" />
    </g>
  </g>
</svg>
