<?xml version="1.0" encoding="utf-8"?>
<!-- Generator: Adobe Illustrator 17.1.0, SVG Export Plug-In . SVG Version: 6.00 Build 0)  -->
<!DOCTYPE svg PUBLIC "-//W3C//DTD SVG 1.1//EN" "http://www.w3.org/Graphics/SVG/1.1/DTD/svg11.dtd">
<svg version="1.1" id="Слой_1" xmlns="http://www.w3.org/2000/svg" xmlns:xlink="http://www.w3.org/1999/xlink" x="0px" y="0px"
	 viewBox="0 0 192 192" enable-background="new 0 0 192 192" xml:space="preserve">
<g>
	<circle fill="#9ABEFF" cx="96" cy="96" r="96"/>
	<path fill="#FFFFFF" d="M145.3,71.4c-2.8-2.8-6.2-4.2-10.2-4.2H91.9v-0.1h-0.4l-8.9-15.5c-1.6-0.6-3.3-0.9-5.1-0.9H56.9
		c-4,0-7.3,1.4-10.2,4.2c-2.8,2.8-4.2,6.2-4.2,10.2v61.8c0,3.9,1.4,7.3,4.2,10.2c2.8,2.8,6.2,4.3,10.2,4.3h78.3
		c4,0,7.3-1.4,10.2-4.3c2.8-2.8,4.2-6.2,4.2-10.2V81.6C149.6,77.6,148.2,74.2,145.3,71.4z"/>
</g>
</svg>
