<?xml version="1.0" encoding="UTF-8" standalone="no"?>
<svg
   xmlns:dc="http://purl.org/dc/elements/1.1/"
   xmlns:cc="http://creativecommons.org/ns#"
   xmlns:rdf="http://www.w3.org/1999/02/22-rdf-syntax-ns#"
   xmlns:svg="http://www.w3.org/2000/svg"
   xmlns="http://www.w3.org/2000/svg"
   xmlns:sodipodi="http://sodipodi.sourceforge.net/DTD/sodipodi-0.dtd"
   xmlns:inkscape="http://www.inkscape.org/namespaces/inkscape"
   sodipodi:docname="brainly.svg"
   inkscape:version="1.0.1 (3bc2e813f5, 2020-09-07)"
   version="1.1"
   id="svg2"
   viewBox="0 0 192 192"
   height="192"
   width="192"
   inkscape:export-filename="/home/jphilippe/inkscape/icônes/delta-github/png/brainly.png"
   inkscape:export-xdpi="96"
   inkscape:export-ydpi="96">
  <sodipodi:namedview
     inkscape:document-rotation="0"
     inkscape:window-maximized="1"
     inkscape:window-y="30"
     inkscape:window-x="1920"
     inkscape:window-height="1022"
     inkscape:window-width="1680"
     units="px"
     showgrid="false"
     inkscape:current-layer="layer1"
     inkscape:document-units="px"
     inkscape:cy="148.78099"
     inkscape:cx="34.680109"
     inkscape:zoom="1"
     inkscape:pageshadow="2"
     inkscape:pageopacity="0.0"
     borderopacity="1.0"
     bordercolor="#666666"
     pagecolor="#ffffff"
     id="base"
     inkscape:snap-bbox="false"
     inkscape:object-paths="true"
     inkscape:snap-nodes="true"
     showguides="true"
     inkscape:guide-bbox="true"
     inkscape:snap-object-midpoints="true"
     inkscape:snap-center="true"
     inkscape:snap-global="true"
     inkscape:snap-intersection-paths="true"
     inkscape:snap-smooth-nodes="true"
     inkscape:snap-midpoints="true" />
  <defs
     id="defs4" />
  <metadata
     id="metadata7">
    <rdf:RDF>
      <cc:Work
         rdf:about="">
        <dc:format>image/svg+xml</dc:format>
        <dc:type
           rdf:resource="http://purl.org/dc/dcmitype/StillImage" />
        <dc:title></dc:title>
      </cc:Work>
    </rdf:RDF>
  </metadata>
  <g
     transform="translate(0,-860.36216)"
     id="layer1"
     inkscape:groupmode="layer"
     inkscape:label="Calque 1">
    <rect
       style="fill:#56595b;fill-opacity:1;fill-rule:evenodd;stroke:none;stroke-width:0.999999;stroke-opacity:1"
       width="152.99998"
       height="152.99998"
       x="19.5"
       y="879.86218"
       rx="9.999999"
       id="rect1234" />
    <path
       id="path1236"
       style="fill:#97db99;fill-opacity:1;stroke-width:10.2;stroke-linecap:round;stop-color:#000000"
       d="m 29.500794,879.86214 c -5.540002,0 -10.000776,4.46077 -10.000776,10.00077 v 16.746 L 167.50791,881.20686 c -1.47214,-0.85092 -3.17933,-1.34472 -5.00869,-1.34472 z" />
    <path
       id="path1238"
       style="fill:#97db99;fill-opacity:1;stroke-width:10.2;stroke-linecap:round;stop-color:#000000"
       d="m 162.49922,1032.8622 c 5.54,0 10.00078,-4.4609 10.00078,-10.0009 v -16.7459 l -148.00789,25.4019 c 1.47214,0.851 3.179331,1.3449 5.008684,1.3449 z" />
    <path
       id="path1240"
       style="color:#000000;font-style:normal;font-variant:normal;font-weight:bold;font-stretch:normal;font-size:105.955px;line-height:1.25;font-family:Aleo;-inkscape-font-specification:'Aleo Bold';font-variant-ligatures:normal;font-variant-position:normal;font-variant-caps:normal;font-variant-numeric:normal;font-variant-alternates:normal;font-variant-east-asian:normal;font-feature-settings:normal;font-variation-settings:normal;text-indent:0;text-align:start;text-decoration:none;text-decoration-line:none;text-decoration-style:solid;text-decoration-color:#000000;letter-spacing:0px;word-spacing:0px;text-transform:none;writing-mode:lr-tb;direction:ltr;text-orientation:mixed;dominant-baseline:auto;baseline-shift:baseline;text-anchor:start;white-space:normal;shape-padding:0;shape-margin:0;inline-size:0;clip-rule:nonzero;display:inline;overflow:visible;visibility:visible;isolation:auto;mix-blend-mode:normal;color-interpolation:sRGB;color-interpolation-filters:linearRGB;solid-color:#000000;solid-opacity:1;vector-effect:none;fill:#ffffff;fill-opacity:1;fill-rule:nonzero;stroke:none;stroke-width:2.25154;stroke-linecap:butt;stroke-linejoin:miter;stroke-miterlimit:4;stroke-dasharray:none;stroke-dashoffset:0;stroke-opacity:1;color-rendering:auto;image-rendering:auto;shape-rendering:auto;text-rendering:auto;enable-background:accumulate;stop-color:#000000"
       d="m 94.825029,917.27732 c -10.302858,1.81495 -20.605868,3.60235 -30.908785,5.40842 0.04819,3.62333 -0.08143,7.28262 0.07208,10.88427 0.291788,2.98138 2.786597,5.12799 5.765379,5.14107 0.299379,0.10775 0.983841,-0.17963 1.010718,0.19154 0,13.17035 0,26.3407 0,39.51105 -1.94876,0.60808 -3.90042,1.73331 -5.163265,3.52052 -1.258246,1.65291 -1.765687,3.68016 -1.670963,5.542 -0.03528,3.13038 0.0089,6.24707 -0.01394,9.37541 12.60628,-2.2174 25.213249,-4.36772 37.819097,-6.64623 5.98567,-1.24865 12.05724,-3.88799 17.00611,-8.21474 4.52836,-3.99408 7.746,-9.51437 8.85396,-15.14027 0.90913,-4.59416 0.62278,-9.33947 -1.35525,-13.1108 -1.34629,-2.48283 -3.43755,-4.47061 -6.02139,-5.61622 3.00956,-3.13577 5.13281,-7.14913 5.72506,-11.2076 0.57077,-3.84208 0.16229,-7.66018 -1.08947,-11.00864 -1.37651,-3.62503 -4.11257,-6.46959 -7.57727,-8.04761 -2.07258,-0.99166 -4.41096,-1.47229 -6.75031,-1.81107 -0.73604,-0.27746 -1.60099,-0.0248 -2.38477,-0.15254 -4.37148,-0.16541 -8.867021,0.5828 -13.316983,1.38172 z m 2.830559,17.92793 c 2.178184,-0.30793 4.556052,-0.73876 6.430672,0.20015 1.07182,0.88758 0.97724,2.57853 0.97695,3.98506 -0.0432,1.25754 -0.48782,2.77319 -1.76349,3.48828 -2.72726,1.82587 -5.8669,2.08824 -8.816026,2.65269 -0.866821,0.15154 -1.733643,0.30307 -2.600464,0.4546 0,-3.25722 0,-6.51446 0,-9.77168 1.924119,-0.33637 3.848238,-0.67273 5.772358,-1.0091 z m 1.90088,26.86769 c 2.244852,-0.36023 4.725112,-0.69835 6.555212,0.44579 1.11598,1.18375 1.09475,3.15148 0.70513,4.86591 -0.34371,1.45061 -1.48754,2.69874 -2.83171,3.35132 -2.61643,1.35953 -5.427492,1.46702 -8.140403,2.02648 -1.320492,0.23084 -2.640984,0.46168 -3.961467,0.69253 0,-3.34687 0,-6.69375 0,-10.04062 2.557743,-0.44714 5.115495,-0.89428 7.673238,-1.34141 z" />
  </g>
  <style
     type="text/css"
     id="style853">
	.st0{fill:#FFFFFF;}
</style>
</svg>
