<svg xmlns="http://www.w3.org/2000/svg" xml:space="preserve" style="fill-rule:evenodd;clip-rule:evenodd;stroke-linejoin:round;stroke-miterlimit:2" viewBox="0 0 192 192"><path d="M164.5 21.5c0-5.519-4.481-10-10-10h-133c-5.519 0-10 4.481-10 10v133c0 5.519 4.481 10 10 10h133c5.519 0 10-4.481 10-10v-133Z" style="fill:#f9de81" transform="translate(8 8)"/><circle cx="96" cy="96" r="66.5" style="fill:#4a4a4a"/><path d="M41.427 89.938C42.526 61.839 67.22 40.229 96 40.229c30.781 0 55.771 24.99 55.771 55.771 0 9.019-1.697 16.108-6.552 24.429-8.899 13.9-26.793 20.847-45.101 20.847-30.981 0-59.671-26.282-58.691-51.338Z" style="fill:#f8c18c"/><path d="M115.201 90.207c0-1.229-1.091-2.225-2.438-2.225h-8.06c-1.346 0-2.438.996-2.438 2.225v.516c0 1.23 1.092 2.226 2.438 2.226h8.06c1.347 0 2.438-.996 2.438-2.226v-.516Z" style="fill:#8e6f60" transform="matrix(1.17235 -.67685 .7413 1.28397 -85.951 47.648)"/><path d="M115.201 90.181c0-.583-.254-1.143-.705-1.555a2.529 2.529 0 0 0-1.703-.644h-8.119c-.639 0-1.252.231-1.703.644a2.106 2.106 0 0 0-.706 1.555v.569c0 .583.254 1.143.706 1.555a2.53 2.53 0 0 0 1.703.644h8.119c.638 0 1.251-.232 1.703-.644.451-.412.705-.972.705-1.555v-.569Z" style="fill:#8e6f60" transform="matrix(-.67685 -1.17235 1.28397 -.7413 46.242 279.037)"/><path d="M109.581 141.276H61.91v10.799c0 1.533.506 3.003 1.405 4.087.9 1.084 2.121 1.693 3.393 1.693h38.075c1.273 0 2.493-.609 3.393-1.693.9-1.084 1.405-2.554 1.405-4.087v-10.799Z" style="fill:#f8c18c" transform="matrix(1.15781 .33226 -.27584 .9612 26.62 -36.29)"/><path d="m86.371 111.297 6.008 10.038H80.363l6.008-10.038Z" style="fill:#8e6f60" transform="matrix(1.33228 .38203 -.38147 1.33034 19.499 -70.662)"/><circle cx="118.387" cy="112.34" r="16.122" style="fill:#8e6f60" transform="matrix(1 0 0 1.02778 0 -3.568)"/><circle cx="118.387" cy="112.34" r="16.122" style="fill:#8e6f60" transform="matrix(1 0 0 1.02778 -48.65 -17.468)"/><circle cx="79.476" cy="58.29" r="10.705" style="fill:#fff" transform="matrix(1.70348 -.62001 .40472 1.11196 -77.317 44.087)"/></svg>