<?xml version="1.0" encoding="UTF-8" standalone="no"?>
<svg
   xmlns:dc="http://purl.org/dc/elements/1.1/"
   xmlns:cc="http://creativecommons.org/ns#"
   xmlns:rdf="http://www.w3.org/1999/02/22-rdf-syntax-ns#"
   xmlns:svg="http://www.w3.org/2000/svg"
   xmlns="http://www.w3.org/2000/svg"
   xmlns:sodipodi="http://sodipodi.sourceforge.net/DTD/sodipodi-0.dtd"
   xmlns:inkscape="http://www.inkscape.org/namespaces/inkscape"
   width="192"
   height="192"
   version="1.1"
   viewBox="0 0 192 192"
   id="svg12"
   sodipodi:docname="bromite_alt.svg"
   inkscape:version="0.92.4 (5da689c313, 2019-01-14)">
  <metadata
     id="metadata18">
    <rdf:RDF>
      <cc:Work
         rdf:about="">
        <dc:format>image/svg+xml</dc:format>
        <dc:type
           rdf:resource="http://purl.org/dc/dcmitype/StillImage" />
        <dc:title />
      </cc:Work>
    </rdf:RDF>
  </metadata>
  <defs
     id="defs16" />
  <sodipodi:namedview
     pagecolor="#ffffff"
     bordercolor="#666666"
     borderopacity="1"
     objecttolerance="10"
     gridtolerance="10"
     guidetolerance="10"
     inkscape:pageopacity="0"
     inkscape:pageshadow="2"
     inkscape:window-width="1920"
     inkscape:window-height="1017"
     id="namedview14"
     showgrid="false"
     inkscape:zoom="2.4583333"
     inkscape:cx="-81.814459"
     inkscape:cy="71.796615"
     inkscape:window-x="-8"
     inkscape:window-y="-8"
     inkscape:window-maximized="1"
     inkscape:current-layer="svg12" />
  <path
     d="m118.96 56.996-8.2574 71.402-60.859 41.912-0.05078 0.0605c13.968 8.8677 30.164 13.593 46.709 13.629 46.957-0.0555 85.499-37.166 87.33-84.088z"
     style="fill-rule:evenodd;fill:#e0f4e0"
     id="path2" />
  <path
     d="m55.656 19.182c-28.678 15.136-46.633 44.891-46.656 77.318 0.043561 30.219 15.677 58.277 41.352 74.215l61.273-36.189-50.414-40.426z"
     style="fill-rule:evenodd;fill:#98dc9a"
     id="path4" />
  <path
     d="m96.5 9a87.5 87.5 0 0 0-40.971 10.254l0.77734 72.953 60.842-30.672 66.676 38.492a87.5 87.5 0 0 0 0.17578-3.5273 87.5 87.5 0 0 0-87.5-87.5z"
     style="fill-rule:evenodd;fill:#71a372"
     id="path6" />
  <circle
     cx="96"
     cy="96"
     r="41"
     style="fill-rule:evenodd;fill:#fff"
     id="circle8" />
  <circle
     cx="96.5"
     cy="96.5"
     r="31.5"
     style="fill-rule:evenodd;fill:#71a372"
     id="circle10" />
</svg>
