<svg xmlns="http://www.w3.org/2000/svg" xmlns:xlink="http://www.w3.org/1999/xlink" xml:space="preserve" width="192" height="192"><path fill="#99BEF9" d="M183.963 172.277c0 6.485-5.257 11.742-11.742 11.742H20.055c-6.485 0-11.743-5.257-11.743-11.742V20.111c0-6.486 5.258-11.743 11.743-11.743h152.166c6.485 0 11.742 5.257 11.742 11.743v152.166z"/><defs><path id="a" d="M183.963 172.277c0 6.485-5.257 11.742-11.742 11.742H20.055c-6.485 0-11.743-5.257-11.743-11.742V20.111c0-6.486 5.258-11.743 11.743-11.743h152.166c6.485 0 11.742 5.257 11.742 11.743v152.166z"/></defs><clipPath id="b"><use xlink:href="#a" overflow="visible"/></clipPath><g clip-path="url(#b)"><path fill="#B1B5BC" d="M139.1 76.645s1.166.779 2.604 4.615 1.758 13.266 1.758 17.103c0 3.836 1.279 9.11 2.078 11.028s7.831-14.065 8.152-18.381c.319-4.315-2.239-10.389-4.477-12.946-2.236-2.558-10.322-12.267-10.115-1.419z"/><path fill="#56595B" d="M142.504 75.985s-2.397 4.476-1.918 10.07c.479 5.594 1.438 9.27 1.278 11.028s-1.119 3.037-3.038 5.914c-1.917 2.877-4.155 4.155-4.155 6.713s-.959 12.147 0 14.065.479 5.114.479 7.992c0 2.877-.159 6.553.16 7.672.319 1.118 5.914-5.914 7.353-11.988 1.438-6.073 3.676-12.946 5.114-15.983 1.438-3.036-.959-.959-1.918-5.753-.959-4.795-1.278-6.874-1.278-6.874s1.438-1.598 2.717-4.475c1.279-2.876 2.558-5.594 2.558-5.594s-2.717-8.631-7.352-12.787z"/><path fill="#E06361" d="M142.982 77.584s-2.396 5.754-1.598 10.708c.799 4.955.799 7.033 1.598 7.833.8.798 2.238 1.118 3.197-1.119.959-2.238 2.877-7.033 2.877-7.033s-1.917-7.512-6.074-10.389zM143.303 97.723s.479 1.279-.959 3.677-1.758 5.273-4.155 6.553c0 0 2.237-2.078 2.717-4.155.479-2.078 1.599-3.356 1.599-4.795 0 0-2.078 3.196-3.197 4.795-1.118 1.598-1.278 2.237-2.718 3.516-1.438 1.278-1.118 3.356-1.278 6.553-.16 3.197-.479 7.992.319 9.431s1.279 3.676 2.078 5.913c.8 2.239 2.238-6.393 3.996-10.708s3.356-9.75 3.196-12.786c-.16-3.039-.96-6.076-1.598-7.994z"/><path fill="#EFA470" d="M121.98 85.436c-.912 0-2.151-.125-2.867-.722-.729-.606-2.472-3.755-2.997-5.104a1.83 1.83 0 0 0-.184-.378c-.14.01-.344.056-.558.103a13.74 13.74 0 0 1-.766.154c-.196.033-.392.05-.579.05-1.527 0-2.608-1.022-3.213-3.038a4.317 4.317 0 0 1-.104-2.136l-.188-.062c-.515-.169-1.1-.362-1.737-.809-.609-.427-.771-.938-.797-1.291a1.606 1.606 0 0 1 .104-.705c-.812-1.375-1.451-1.991-1.814-2.259-.356.3-.9.732-1.646 1.248-.841.582-1.746.877-2.693.877-.772 0-1.562-.191-2.41-.582-1.642-.758-2.475-1.804-2.475-3.109 0-.287.037-.708.079-1.194.051-.574.15-1.712.097-2.16-.58-.568-1.135-1.682-1.135-3.039 0-.73.039-2.563.07-3.881a7.492 7.492 0 0 1-2.191.35c-.63 0-1.482-.102-1.967-.586-.359-.359-.835-1.219-1.917-3.243-.337-.63-.685-1.281-1.013-1.871-.239-.431-.494-.859-.764-1.313-.935-1.571-1.995-3.351-3.132-6.382l-.166-.441c-1.402-3.73-2.612-6.951-2.612-12.042 0-5.357 2.008-8.264 2.094-8.385L95.64 7.896h47.733l.277.476c.101.172 10.098 16.353 12.313 20.255 2.105 3.709 5.519 7.182 5.536 7.198l-.095.19-.236-.354c.032.118-.164 1.678-1.371 7.383-1.224 5.785-13.509 25.129-16.67 28.291-2.802 2.801-3.745 4.724-3.756 4.743l-.272.566-2.112-.078c-.388.649-1.162 1.779-2.518 3.133-.41.411-.739.761-1.03 1.07-1.131 1.202-1.753 1.865-4.144 2.889-3.304 1.416-5.738 1.698-6.632 1.754a9.935 9.935 0 0 1-.683.024z"/><path fill="#FDC394" d="M85.283 24.04s-1.918 2.717-1.918 7.832 1.279 8.312 2.718 12.147c1.438 3.836 2.77 5.648 3.835 7.566 1.066 1.918 2.344 4.475 2.771 4.901.427.426 2.451.533 4.476-.533 0 0-.106 4.155-.106 5.328 0 1.172.532 2.131.959 2.451.426.319 0 3.09 0 3.942 0 .853.532 1.599 1.918 2.238 1.385.639 2.77.746 4.155-.213 1.386-.958 2.025-1.599 2.025-1.599s1.278.107 3.09 3.41c0 0-.667.639.133 1.199.799.56 1.519.639 2.237.959l.479-.08s-.799 1.039-.319 2.637c.48 1.598 1.279 2.558 2.718 2.318s1.997-.72 2.557.719c.56 1.438 2.238 4.315 2.718 4.715.479.399 1.598.559 2.876.479 1.279-.08 3.517-.479 6.314-1.678 2.797-1.199 2.876-1.758 4.875-3.756 1.998-1.998 2.636-3.437 2.636-3.437l2.079.08s.958-2.024 3.942-5.008c2.983-2.984 15.237-22.27 16.409-27.811 1.172-5.541.746-7.565.746-7.565s-2.237-2.237-4.475-6.18c-2.239-3.943-12.308-21.205-12.308-21.205H96.152L85.283 24.04z"/><path fill="#56595B" d="M103.558 69.06s.319-.427.746-2.238c.425-1.812 1.599-2.664 1.599-2.664s1.491.426 1.278 1.172c-.213.746-.853 1.385-.853 1.385s.213-1.385-.532-1.065c-.747.319-1.067 2.663-2.238 3.41z"/><path fill="#EFA470" d="M102.385 65.437s-.212-1.279 1.173-2.983c1.386-1.705 1.172-2.344 2.877-1.918s5.541 1.385 7.032 3.516c1.492 2.131 2.451 3.943 4.262 5.541 1.812 1.598 2.452 2.771 2.452 2.771s-1.386-1.385-2.878-2.344-2.877-3.623-4.155-5.221-3.517-2.557-4.795-2.557c0 0 1.599 1.278-.426 3.303 0 0 .639-1.705.106-2.451s-2.025-2.558-3.09-1.172c-1.066 1.384-1.705 1.597-2.558 3.515zM120.446 78.703c1.358.719 2.478.719 2.478.719-.88-.16-1.758-.719-2.877-1.358-1.119-.64-2.158-.64-2.798-.32-.414.208-1.027.414-1.41.535.346-.029.609.043.846.356 1.795-.799 2.441-.631 3.761.068zM110.696 55.527s3.996 1.678 6.073 2.317c2.078.64 2.718 1.359 4.076 2.397 1.359 1.04 4.155 3.117 4.155 3.117s-3.196-3.037-4.714-4.316c-1.519-1.278-2.718-1.598-4.556-2.237s-5.034-1.278-5.034-1.278zM103.265 43.06s-1.918 1.359-2.558 2.558c-.639 1.198-1.519 4.155-3.036 6.792-1.519 2.637-4.156 1.838-4.156 1.838.827 1.011 1.521 1.175 1.825 1.179-.022.006-.041.011-.067.02-.719.24-1.438.719-2.078.719-.639 0-1.438-1.199-1.438-1.199v.017c.411.745.75 1.319.932 1.501.427.426 2.451.533 4.476-.533 0 0-.051 1.963-.081 3.571.145-.667.565-2.56.827-3.278.319-.879 1.758-1.518 2.317-1.518s2.956-.16 4.076-.24c1.119-.08 1.278 1.358 1.278 1.358.239-.799 1.039-1.358 2.637-2.317 1.599-.959 1.758-2.718 2.078-4.955.319-2.238.479-5.275.479-5.275s-.64-.08-2.877-.879c-2.237-.797-4.634.641-4.634.641zM136.429 75.586s.267-.666 1.439-3.756 1.812-5.541 1.812-5.541.427 1.065-.426 3.835c-.536 1.741-1.705 4.688-2.025 6.181-.32 1.492-.8-.719-.8-.719zM138.295 46.896s4.688 7.246 4.262 14.492c0 0 1.229-3.679-.959-9.803-1.598-4.476-3.303-4.689-3.303-4.689z"/><path fill="#56595B" d="M105.582 45.378s-1.759.719-3.037 1.598c-1.279.879-2.397 1.918-2.397 1.918s.56-1.599 3.117-3.276c0 0-1.999.719-3.277 2.717-1.278 1.998-1.678 2.877-.719 3.117s.999 1.958.999 1.998c0 .08.399-.52.679-1.199.465-1.125.88-2.398 2.158-3.916 1.278-1.519 1.518-2.478 2.477-2.957z"/><path fill="#F9DE90" d="M100.521 49.826s.213.426.799.373c0 0 .16-.853.853-1.599.692-.746 1.119-1.332 1.119-1.332s-1.492.959-2.132 1.705c-.639.747-.639.853-.639.853z"/><path fill="#FFF" d="M100.094 50.625s-.106.586.267.853.479.053.427-.266c-.055-.32-.641-.853-.694-.587z"/><path fill="#56595B" d="M108.886 48.92s-.8 1.492-1.865 2.718c-1.065 1.225-2.238 2.61-3.729 2.131l-.64-.106s1.226.692 1.918.639c.693-.053 1.706-1.226 2.132-1.705s-.959 1.545-1.119 2.291c-.159.746.533-.692 1.172-1.545.639-.853 1.012-2.025 2.131-4.423z"/><path fill="#FF877F" d="M112.854 71.111c-1.071.268-2.588 1.486-3.053 1.875.618.32 1.196.426 1.773.682l.479-.08s-.799 1.039-.319 2.637c.325 1.085.799 1.874 1.52 2.195 1.075-.716 1.691-1.713 1.838-2.515.159-.879.479-2.078 1.357-3.037.88-.959 1.599-.879 1.599-.879s-.879-.56-1.599-.879c-.718-.319-2.315-.319-3.595.001z"/><path fill="#E06361" d="M113.175 72.949c.719-.56 1.198-.639 2.316-.639.545 0 1.315-.095 1.964-.192.362-.152.594-.127.594-.127s-.879-.56-1.599-.879c-.719-.32-2.316-.32-3.596 0-1.071.268-2.588 1.486-3.053 1.875.618.32 1.196.426 1.773.682l.479-.08s-.052.067-.12.192c.325-.193.81-.498 1.242-.832z"/><path fill="#EFA470" d="m116.291 73.062-.001-.006s-1.172.799-1.438 2.131c-.261 1.302-.831 2.195-2 2.981.126.101.258.188.402.253 1.075-.716 1.691-1.713 1.838-2.515.149-.823.444-1.921 1.199-2.844zM137.229 31.445s.106-3.729-.959-6.393c-1.065-2.664-1.386-3.197-2.771-4.582-1.385-1.386-2.237-2.025-3.836-1.492-1.598.533-2.557 2.131-3.196 4.688s-.746 3.943-.106 4.476c.64.532.853 2.024 1.278 3.835.427 1.812.213 1.385 1.492.959 1.278-.426 1.491.107 1.385 1.492-.106 1.385.533 1.492 1.172 2.558 0 0 .746-1.385 2.024-2.131 1.279-.746 1.813-1.172 1.813-1.172s.106-3.623 0-5.434c-.107-1.812-1.279-3.304-2.771-3.623-1.491-.32-1.811.533-2.877.533-1.065 0-1.598-.213-2.77 1.172 0 0 1.491-3.41 3.303-3.835 1.812-.426 3.196-.64 4.262 1.492 1.064 2.13 2.237 4.687 2.557 7.457z"/><path fill="#DD884E" d="M140.106 29.741s1.065 1.172.426 3.516c-.641 2.344-.746 4.369-.959 6.287-.213 1.918-.107 3.623-1.919 4.475-1.811.853-2.556.107-3.09-1.172 0 0 2.664.106 2.984-1.705.319-1.812-.214-3.729.745-5.967.961-2.238 1.813-4.049 1.813-5.434z"/><path fill="#EFA470" d="M89.385 50.732s.853-.959 2.451-5.114c1.598-4.156 4.795-7.246 4.795-7.246s-2.451 3.197-3.623 5.861c-1.172 2.664-3.091 7.352-3.091 7.352l-.532-.853zM88.959 44.445s1.066-2.238 1.812-4.156 2.983-3.729 2.983-3.729-1.438 1.785-2.238 3.063c-.799 1.279-1.758 4.316-1.998 4.555-.239.241-.559.267-.559.267z"/><path fill="#DD884E" d="M132.434 20.896c.848.141 1.61.49 2.199.835-.301-.401-.652-.78-1.134-1.261-1.385-1.386-2.237-2.025-3.836-1.492-1.598.533-2.557 2.131-3.196 4.688-.486 1.945-.663 3.211-.439 3.94.41-1.435.732-4.538 1.932-5.646 1.384-1.276 2.556-1.383 4.474-1.064zM127.319 33.363s1.491-1.172 3.303-1.278c1.812-.107 1.173.852 1.065 2.45-.106 1.599-.213 1.173 1.492-.639l-1.492 3.09s-.572-.759-.853-1.159c-.279-.399-.359-.879-.319-1.758.04-.879-.16-1.239-.719-1.278-.559-.041-2.477.572-2.477.572zM132.753 24.626c-1.491-.32-1.811.533-2.877.533 0 0 .561.36 1.639.36 1.079 0 2.197.519 2.837 1.718s.64 1.798.64 3.636c0 1.137.245 2.197.431 2.887.069-.05.103-.077.103-.077s.106-3.623 0-5.434c-.109-1.812-1.281-3.304-2.773-3.623z"/><path fill="#56595B" d="M139.946 28.995c1.313 1.262 6.713 4.315 9.749 4.475 3.037.16 4.956.959 6.074.479 1.119-.479 1.812-3.25 1.278-3.996-1.083-1.517-4.955-10.549-6.554-14.864-1.598-4.316-3.036-7.353-3.036-7.353H86.402c-8.151 9.75-8.631 14.065-8.95 14.865-.32.799.639 2.717.639 2.717h-2.238l-1.917 2.717c-1.918 2.717-.64 5.115 1.599 9.11 2.237 3.996 2.078 7.353 2.078 7.353 1.119-2.397-.479-11.135 1.012-6.66 1.492 4.475 0 7.139 1.172 5.86s3.836-3.197 3.836-3.197c-3.196-10.762.533-14.065.533-14.065s4.049 5.435 5.435 11.828c0 0 .106-1.918.106-2.558 0 0 2.024-2.344 2.451-4.155 0 0 .959 1.278 1.492 3.409 0 0 .959-3.623.213-7.033 0 0 1.598 2.451 2.344 5.222l.106-1.385s2.344-1.172 5.222-2.771c0 0 1.279 0 2.558.107 1.278.106 2.237 1.278 4.155 2.451 1.918 1.172 3.942 3.729 3.942 3.729s1.598-.639 3.836-.639 4.263-.64 5.009-1.279c.745-.639 2.983-.533 2.983-.533v-2.557c0-1.172-1.492-1.705-.746-4.688.746-2.983 1.705-6.82 2.983-7.885s5.008-1.705 7.032-.639 2.557 2.557 3.303 4.582 2.023 6.074 3.356 7.353z"/><path fill="#B1B5BC" d="M124.762 17.7s-7.672 2.558-11.827 4.688c-4.156 2.131-9.483 5.754-9.483 5.754s2.237.319 3.942 2.131l12.253-5.967-11.507 6.287 1.918 1.385 2.557-1.278-2.024 1.705s.64.853 1.172 1.385c.533.533 1.492 0 3.623-.106s3.091-.426 5.009-1.492 3.196-.213 3.196-.213l-.426-2.771-.64-1.065s.212-4.369 1.599-7.886c0 0-6.926 2.131-9.483 3.197s-8.524 4.156-8.524 4.156 3.09-2.131 6.605-4.156c3.517-2.024 11.615-4.901 11.615-4.901l.425-.853zM92.451 7.737c-.89.359-1.48 1.199-2 1.545-.64.426-1.812.64-1.812.64s3.09 0 4.262 1.278l1.172 1.065s.639-.426.959-1.065c.319-.639.426-.853 1.917-1.812a14.783 14.783 0 0 0 2.078-1.651h-6.576zm-9.458 11.775s1.065.426 1.917.959c.853.533 1.385.106 3.516.533 0 0-3.516-1.705-4.049-1.918-.532-.214-1.384.426-1.384.426zm4.155-7.566c-1.812.958-1.705 1.172-.853 1.172.853 0 3.09.106 4.156 1.918 0 0-3.73-.426-5.435-.64l.319.959 5.541.746s1.492-2.451 2.665-3.303c0 0-1.812-.746-3.09-1.278-1.279-.533-1.492-.533-3.303.426zm-2.557 4.795s3.729.747 4.794 1.385l.533-.852s-1.172-.32-3.303-.853c-2.131-.533-2.024.32-2.024.32zm-.107 1.598 3.942 1.918.426-1.492s-3.729-1.278-4.688-1.599l.32 1.173z"/><path fill="#56595B" d="M92.076 52.729s1.439 1.759 2.797.56c1.359-1.199 1.119-3.117 1.119-5.274s.799-2.557 1.598-3.676c.8-1.119 3.197-3.676 3.197-3.676l-1.599-.32s1.758-.08 3.356-.399c1.599-.32 4.396.399 4.396.399s-1.678.719-4.236 4.156c-2.557 3.437-2.477 4.475-3.115 6.313-.64 1.839-1.119 3.756-2.638 4.076-1.519.32-3.836.479-4.875-2.159z"/><path fill="#EFA470" d="M124.017 27.184s-1.386-2.238 0-6.18c1.385-3.943 1.172-3.624 3.516-4.583 2.344-.958 3.729-1.491 6.606.213s2.45 4.795 3.837 7.246c1.385 2.451 2.876 5.434 2.131 7.885-.746 2.451-2.238 5.221-1.918 7.246.319 2.024.213 3.197-2.024 4.262-2.238 1.065-3.197-1.492-3.73-3.196-.533-1.705 1.385 2.983 3.303 2.131s1.599-2.238 1.492-3.516c-.105-1.279.106-2.771.96-4.582.853-1.812 1.598-2.664.745-5.115-.852-2.451-.853-2.664-1.599-3.729s-1.064-1.705-1.491-3.623c-.427-1.918-1.173-3.517-3.41-4.369s-2.664.214-4.368.639c-1.705.426-2.024.64-2.771 2.131-.747 1.492-1.386 5.541-1.279 7.14z"/><path fill="#B1B5BC" d="m150.804 94.971-.613-3.17a128.458 128.458 0 0 0-2.993-8.162c-1.648-4.047-7.022-8.883-7.077-8.921l-.272-.424.367-.629c.021-.039 2.291-3.917 5.003-7.585 2.426-3.283 5.957-10.395 8.38-15.985 2.042-4.712 6.018-14.71 6.051-14.807l.343-.996.867.598c4.594 3.168 10.823 8.597 10.892 8.648l.606.451-.416.63c-.05.075-4.978 7.567-8.906 15.267-3.918 7.68-11.222 31.752-11.295 31.995l-.937 3.09z"/><path fill="#FFF" d="M159.766 35.867s-3.356 9.75-5.435 14.545c-2.078 4.795-5.754 12.467-8.472 16.143-2.717 3.676-4.954 7.512-4.954 7.512s5.594 3.996 7.352 8.312 2.717 9.27 2.717 9.27 7.354-24.294 11.349-32.126c3.996-7.832 8.95-15.344 8.95-15.344s-6.873-5.115-11.507-8.312z"/><path fill="#56595B" d="M173.191 41.461s-1.278-.16-4.316 5.115c-3.036 5.274-8.471 13.746-11.348 20.618-2.876 6.873-4.156 11.189-5.114 16.942-.96 5.754-4.636 15.664-8.151 25.573-3.517 9.91-7.673 22.537-9.111 28.93-1.438 6.394-1.438 19.18-.479 32.127l1.12 13.905h48.588V46.097s-1.758 0-3.196.64c-1.438.639-1.758 0-4.155-2.078-2.399-2.079-3.838-3.198-3.838-3.198z"/><path fill="#666" d="M152.466 89.731s2.984-14.917 7.459-24.721c4.476-9.803 10.656-20.033 13.213-22.59 0 0 4.688 4.475 5.754 4.902 0 0-1.918 2.131-5.114 8.098-3.196 5.967-6.82 15.344-8.524 20.671-1.705 5.328-1.917 13.213-1.705 15.557 0 0-13.64 9.59-15.771 20.458 0 0 8.099-8.311 18.967-15.557 0 0-15.983 22.802-22.803 42.622-6.818 19.818-6.18 31.967-6.18 31.967s-5.967-20.246.64-38.999c6.606-18.754 11.721-34.311 14.277-40.491 2.559-6.18 5.542-11.082 5.542-11.082s-4.263 5.117-5.755 9.165z"/><path fill="#666" d="M179.957 48.174s-4.688 5.967-9.163 16.623-6.181 20.458-5.328 27.065c0 0-11.508 7.672-14.917 15.77 0 0 5.754-6.18 11.934-10.016s8.524-6.393 8.524-6.393-1.065 1.705-3.835 6.607c-2.771 4.901-13.215 21.523-17.689 32.393-4.475 10.868-12.36 27.703-10.869 44.539 0 0-3.195-7.458-3.622-13.212 0 0 .852 18.327 2.131 22.589h46.458V47.748c-.001 0-.852-.427-3.624.426z"/><path fill="#56595B" d="M157.848 135.763h-3.836s3.995.8 7.512 1.438c3.516.64 5.754 0 9.749-.479 3.997-.479 10.709-.319 12.308-1.598 0 0-1.278.319-3.836 0-2.558-.32-9.909-.64-13.746-.479-3.836.159-8.151 1.118-8.151 1.118z"/><path fill="#FFF" d="M168.022 112.106s-1.278 4.689-2.557 7.246c-1.278 2.558 1.065 4.688-.427 5.114l-1.065.213s.214-1.278-.639-2.77c0 0-2.771 1.491-3.836 2.983 0 0-.853 4.476-1.278 6.819-.428 2.345-.854 4.263-.854 4.263s1.439.107 2.398.107 5.594.479 8.15.319c2.559-.16 9.75-1.119 12.947-1.278 0 0-.16-1.599-.32-3.517-.159-1.919-.479-3.197-2.237-4.316-1.758-1.118-3.676-3.036-4.155-4.954s-.16-2.078-1.438-3.516c-1.278-1.438-1.758-1.759-2.237-3.197s-1.545-2.878-2.452-3.516z"/><path fill="#B1B5BC" d="M180.543 131.607c-.159-1.919-.479-3.197-2.237-4.316-1.758-1.118-3.676-3.036-4.155-4.954s-.16-2.078-1.438-3.516c-1.278-1.438-1.758-1.759-2.237-3.197a6.666 6.666 0 0 0-.268-.672c.36 1.194.688 2.381.905 3.39.801 3.676 1.28 4.314 2.398 7.671 1.119 3.357 1.599 2.717 1.599 5.274 0 0-1.438-2.558-2.558-4.795-1.118-2.237-2.077-4.475-2.077-4.475s-.16 1.438-.64 2.877-.32 1.917.479 3.835c.798 1.919.479 2.558.479 2.558l-1.759 2.878-4.955-.16s.64-1.598 1.279-4.955c.639-3.356 1.598-4.315 0-6.713a11.359 11.359 0 0 1-.186-.297c.25 1.256.783 2.164-.135 2.427l-1.065.213s.214-1.278-.639-2.77c0 0-.319.173-.778.454-.046.467-.074.897-.074 1.251 0 2.078.16 5.435 0 7.512-.16 2.079-1.119 2.719-1.119 2.719l-2.725 2.206c.378.017.783.031 1.127.031.959 0 5.594.479 8.15.319 2.559-.16 9.75-1.119 12.947-1.278.002 0-.158-1.599-.318-3.517z"/><path fill="#EFA470" d="M79.449 139.654 37.596 118.16l1.872-1.166c-2.553-1.438-6.754-3.898-8.287-5.354-2.718-2.581-6.537-6.86-9.294-12.578-2.984-6.191-4.37-10.091-4.691-16.843l-.001-.053c0-.65-.019-1.328-.038-1.982-.066-2.349-.135-4.777.584-7.142.655-2.152 1.78-4.548 3.346-7.121 1.13-1.856 1.995-2.757 2.997-3.799.397-.413.806-.839 1.279-1.37 2.163-2.434 5.192-4.675 9.259-6.85 4.25-2.273 11.109-4.982 19.654-4.982 3.74 0 7.498.53 11.172 1.574.619.113 4.625.973 7.552 4.659 2.745 3.457 4.117 5.146 5.302 5.785 1.818.979 3.581 4.128 3.5 8.181.922.439 2.568 1.214 3.433 1.574.837.349 2.375.349 2.954.349.237 0 .463-.003.673-.005l.524-.003c1.046 0 2.612.468 3.578 1.497.603.642.894 1.419.842 2.249-.097 1.54-.462 2.165-1.015 3.109-.13.222-.273.467-.434.757.071.446.201 1.127.371 1.595.131.36.363.381.39.382.553 0 1.114.281 1.5.751.236.288.478.731.548 1.375.468.062.959.183 1.37.411 1.477.821 1.243 3.184.697 4.275-.196.392-.439.878.764 2.93.537.919 1.221 1.885 1.464 2.069.798.598 1.797 1.994 2.106 3.646.267 1.42-.005 4.516-1.191 6.397-.933 1.475-3.434 3.218-6.602 5.424-.529.369-1.07.745-1.612 1.127l-.142.101c-3.323 2.341-3.323 2.341-4.931 5.63-1.451 2.968-3.247 6.744-4.266 9.631a107.013 107.013 0 0 0-1.395 4.233c-.199.639-.41 1.316-.673 2.131-.766 2.377-1.305 6.02-1.305 7.089v1.811z"/><path fill="#FDC394" d="M65.197 51.584s4.049.64 6.926 4.263c2.877 3.623 4.263 5.328 5.647 6.074 1.385.746 3.197 3.729 2.877 7.885 0 0 2.877 1.385 4.156 1.917 1.279.533 3.41.426 4.582.426 1.172 0 3.41.853 3.304 2.557-.106 1.705-.533 1.918-1.492 3.73 0 0 .16 1.305.479 2.184.32.879 1.04 1.119 1.439 1.119s1.199.479.879 2.078c0 0 1.278-.08 1.998.32.719.399.639 1.999.24 2.797-.4.799-.56 1.678.799 3.996 0 0 1.119 1.918 1.758 2.398.64.479 1.438 1.678 1.678 2.956.24 1.279-.079 4.076-1.038 5.595-.959 1.518-4.396 3.755-7.912 6.232-3.516 2.479-3.676 2.558-5.434 6.154-1.758 3.597-3.357 7.032-4.316 9.75-.959 2.717-1.278 3.915-2.078 6.393-.799 2.479-1.358 6.233-1.358 7.433l-39-19.58 2.717-1.118s-7.965-4.289-10.096-6.313c-2.131-2.024-6.18-6.287-9.057-12.254-2.877-5.967-4.262-9.696-4.582-16.41 0-2.917-.366-5.961.498-8.799.716-2.355 1.956-4.768 3.231-6.865 1.492-2.451 2.451-3.09 4.156-5.008 1.705-1.918 4.369-4.156 8.951-6.606 4.582-2.451 15.877-7.353 30.048-3.304z"/><path fill="#DD884E" d="M46.55 98.575s1.065 2.771 2.451 4.049c1.386 1.279 2.345 1.812 4.795 2.345 2.451.532 3.303.959 4.795.532 1.491-.426 3.942-1.491 3.41-3.409 0 0-1.065-1.172-2.024-.64-.959.533-3.729 2.877-6.394 1.279-2.664-1.598-4.795-2.983-7.033-4.156z"/><path fill="#EFA470" d="M52.198 86.641s-.746-.32-1.385-.639c-.64-.32-2.238-.32-4.049.106-1.812.426-2.557 1.705-3.41 4.049-.853 2.344.639 4.795 1.705 7.033 1.065 2.237 3.623 2.982 5.967 4.368s3.942 2.771 5.008 2.771 3.196-.853 4.369-2.664c0 0 3.623 1.705 5.541 2.132 0 0-2.664-1.705-4.049-2.558l-1.385-.853s-1.599 1.172-2.877 1.599c-1.278.426-2.131 1.705-3.942.319-1.811-1.385-4.156-2.558-5.115-2.983s-1.918-1.278-2.77-2.983c-.853-1.705-.959-2.131-1.386-3.303-.426-1.172 0-2.238.746-3.73s1.812-2.557 3.729-2.557 2.664.639 3.303-.107z"/><path fill="#EFA470" d="M43.491 120.35c1.574-1.242.668-3.675 1.888-3.979 1.278-.319 5.434-.959 5.434-.959-1.812-.746-4.688-.532-4.475-1.066.213-.532 2.983-2.77 4.155-3.836 1.172-1.065 1.599-2.131 1.599-2.131v-1.598c0-1.599-.213-1.065-3.09-3.41-2.877-2.344-3.303-5.54-4.262-7.778-.959-2.238-1.385-4.049-.213-6.606 1.172-2.557 3.09-2.877 4.795-2.877s3.303.213 4.262-.212c.959-.427 3.09-1.173 3.729-1.492.639-.32 1.598-1.599 1.598-1.599-.533 0-1.705-.958-2.983-2.237s-1.918-2.451-3.196-3.942c-1.279-1.492-1.279-2.344-1.279-3.943 0-1.598-.533-5.86-.747-8.844-.212-2.984 1.386-4.263 4.689-5.967 3.303-1.705 6.074-3.303 7.885-4.582a76.61 76.61 0 0 0 2.231-1.641c-.199-.046-.313-.064-.313-.064-14.171-4.049-25.466.853-30.048 3.304-4.583 2.451-7.246 4.688-8.951 6.606-1.705 1.918-2.664 2.557-4.156 5.008-1.276 2.097-2.515 4.509-3.231 6.865-.863 2.838-.498 5.881-.498 8.799.319 6.713 1.705 10.442 4.582 16.41 2.877 5.967 6.926 10.229 9.057 12.254 2.131 2.024 10.096 6.313 10.096 6.313l-2.717 1.118 4.159 2.086zM85.976 105.928c-3.417 1.478-4.583 2.237-7.246 2.131s-8.844-1.705-8.844-1.705c2.45 2.558 5.647 4.155 7.778 5.754s2.024.959 2.451 3.091c.426 2.131 0 3.836 0 5.434v5.114c-2.145 7.554-1.76 9.966-1.755 11.485.124-1.571.636-4.676 1.329-6.823.799-2.478 1.119-3.676 2.078-6.393.959-2.718 2.558-6.153 4.316-9.75 1.758-3.597 1.918-3.676 5.434-6.154 3.517-2.478 6.953-4.715 7.912-6.232.32-.509.567-1.16.749-1.85-3.2 2.071-10.668 4.369-14.202 5.898zm-14.918 16.728c-2.024-4.475-5.861-12.573-5.861-12.573s2.665 8.845 4.049 14.704c1.045 4.422 1.484 7.086 2.369 9.683l6.017 3.021a24.08 24.08 0 0 0-.607-1.407c-.959-2.026-3.942-8.952-5.967-13.428zM92.688 74.7c-.155.383-.494.992-1.092 1.046-.879.08-3.276.719-4.794 3.197 0 0-1.119-.559-1.438-1.438-.32-.879 1.358-2.318 1.358-2.318s-2.237.879-2.158 2.637c.08 1.759.879 1.918.959 3.197 0 0 .16-1.838.799-1.838s1.438 1.358 3.916 2.078c1.019.296 1.752.361 2.364.37-.346-.142-.719-.441-.926-1.009-.319-.879-.479-2.184-.479-2.184.959-1.812 1.386-2.025 1.492-3.73l-.001-.008zm4.343 16.23c-.898-1.533-1.132-2.435-1.071-3.103-.838.388-1.587.541-2.286 4.221 0 0 1.279-1.119 2.637-.399.609.322 1.203.658 1.815.948-.547-.728-1.095-1.667-1.095-1.667z"/><path fill="#56595B" d="M88.16 78.743s.479-.799 1.159-1.319c.679-.52 1.438-.839 1.797-.479.36.36-.439 1.279-.879 1.519-.439.24.08-.959-.359-.759-.44.199-2.038 1.677-1.718 1.038z"/><path fill="#FF877F" d="M96.193 87.015c.013-.027.025-.054.04-.081.399-.799.479-2.398-.24-2.797-.72-.399-1.998-.32-1.998-.32.222-1.109-.096-1.679-.444-1.924l-.035.007s-.938.207-2.198.919c-.919.52-1.279.919-1.438 2.277-.177 1.508.479 2.717.08 3.396-.4.68.759.52 1.358-.16.599-.679 2.118-1.079 3.237-1.199.618-.066 1.185-.072 1.638-.118z"/><path fill="#E06361" d="m95.393 84.017.01-.092c-.671-.153-1.409-.108-1.409-.108.222-1.109-.096-1.679-.444-1.924l-.035.007s-.938.207-2.198.919c-.919.52-1.279.919-1.438 2.277-.177 1.508.479 2.717.08 3.396-.327.555.386.549.985.159.656-.848.974-2.235 1.772-3.276 1.318-1.718 2.677-1.358 2.677-1.358z"/><path fill="#56595B" d="M94.117 83.813c-.105.023-.211.05-.323.084-1.278.399-1.838 1.199-2.198 2.677-.359 1.479-.519 1.918-.519 1.918s.959-2.317 1.639-3.117c.541-.637 1.313-1.374 2.393-1.505a6.008 6.008 0 0 0-.992-.057z"/><path fill="#EFA470" d="M54.755 90.61s-1.519-1.518-2.478-2.157c-.959-.64-1.279-.719-2.797-.64-1.518.08-2.317.32-3.276 1.678s-.399 2.397-.32 3.836c.08 1.438 1.279 3.276 2.238 3.755s2.557 1.359 3.596 1.919c1.04.559 2.158 1.118 4.076.398 1.918-.718 3.437-.398 2.717-1.997-.719-1.599-.719-1.039-1.838-1.438-1.119-.4-2.078-1.439-1.199-2.078.879-.64.4-.88 0-.64-.399.241-.079-1.277-.719-2.636z"/><path fill="#DD884E" d="m54.774 90.654-.019-.044s-1.519-1.518-2.478-2.157c-.959-.64-1.279-.719-2.797-.64-1.518.08-2.317.32-3.276 1.678s-.399 2.397-.32 3.836c.08 1.438 1.279 3.276 2.238 3.755.927.464 2.448 1.299 3.487 1.859a84.75 84.75 0 0 1-1.409-1.38c-1.438-1.438-1.838-1.837-2.637-2.477-.799-.639-1.119-1.198-1.199-2.877-.08-1.678.4-2.797 1.678-3.117 1.279-.32 1.918-.24 2.877.24.959.479 2.318.799 2.957 1.199.297.187.628.182.898.125zM54.595 95.085c.479.799.959 1.04 1.838 1.359.767.277 1.412.07 1.83.438-.49-.947-.617-.571-1.59-.918-1.119-.4-2.078-1.439-1.199-2.078.879-.64.4-.88 0-.64 0 .002-1.358 1.04-.879 1.839z"/><path fill="#EFA470" d="M69.993 69.539s-1.012 1.332-1.332 2.824c-.319 1.492-.053 2.557.959 3.25 1.012.693 2.024 1.865 4.369 1.226 2.344-.64 3.463-2.078 4.369-2.451.906-.373 1.119-2.024 1.066-3.623-.054-1.599-.213-3.038-.213-3.57s-.959 1.12-2.93 1.226c-1.973.105-4.903-.32-6.288 1.118z"/><path fill="#DD884E" d="M78.73 67.194s-.16 2.079-.16 3.517c0 1.438-.267 2.451-.267 3.09 0 .639-.373.213-.905.213s-1.705 1.012-2.877 1.545c-1.171.532 1.172-.959 1.865-1.652.692-.693 1.012-.693.958-2.078-.053-1.385-.586-1.438-.586-2.771.001-1.33 1.972-1.864 1.972-1.864zM50.04 90.291s-.32 2.957-.32 3.916c0 .959.479 1.759 1.359 2.638.879.879 2.717 1.359 3.996 1.918 0 0-1.278-1.199-2.158-2.078-.879-.879-1.838-.959-2.238-1.998-.399-1.04-.399-5.755-.639-4.396z"/><path fill="#56595B" d="M76.892 68.393s-2.478.56-4.236 4.396c0 0 2.478-3.037 3.916-3.836v1.279s-2.558 1.199-3.197 3.356c0 0 1.438-.479 2.078-.559.64-.08-1.119-.24-1.119-.24s.719-1.119 1.518-1.519c0 0-.08 1.119.72.879s1.332-.612 1.705-.639-.24 0-.639-.187c-.4-.187-.24-.346-.4-.559-.16-.213 0-.373.506-.799.506-.426.772-.826.772-.826s-.933.586-1.332.799c-.398.214-.052-.852-.292-1.545z"/><path fill="#FFF" d="M76.513 70.791s-.3.22-.1.619c.2.399.659.2.619.02s-.08-.379-.14-.579c-.06-.2-.3-.16-.379-.06z"/><g fill="#EFA470"><ellipse cx="68.261" cy="81.899" rx=".24" ry=".639"/><ellipse cx="74.015" cy="82.912" rx=".24" ry=".64"/><ellipse cx="70.925" cy="84.19" rx=".639" ry=".239" transform="rotate(-107.602 70.928 84.189)"/><ellipse cx="72.656" cy="80.994" rx=".24" ry=".64" transform="scale(-1) rotate(68.425 119.128 -106.863)"/><ellipse cx="77.816" cy="83.36" rx=".639" ry=".24" transform="scale(-1) rotate(85.664 89.923 -83.946)"/><ellipse cx="75.485" cy="81.635" rx=".639" ry=".239" transform="rotate(-62.102 75.488 81.634)"/><ellipse cx="80.223" cy="81.627" rx=".24" ry=".64" transform="rotate(-26.298 80.237 81.629)"/></g><path fill="#DD884E" d="M86.295 112.746c-.044.404-.089.901-.126 1.343 1.105-2.255 1.577-3.077 2.758-4.071l.139-.254s-5.008 2.664-5.967 3.091c-.959.425 3.303-1.067 3.196-.109z"/><path fill="#56595B" d="M67.382 73.188s.799-2.957 1.838-4.155c1.039-1.199 1.838-1.679 2.637-1.759.799-.08 5.434 0 6.313-.16.879-.16.559-1.519.319-2.397 0 0 .799.56 1.039 1.438s-.799 2.638-2.957 2.797c-2.158.16-4.795-.32-6.153.56-1.358.88-3.036 3.676-3.036 3.676zM35.575 123.615s-2.237.8-5.434 3.196c-3.197 2.397-11.508 2.559-22.856 12.628v45.232h99.256s-1.759-7.832-8.312-16.623c-6.553-8.791-15.344-18.38-20.778-25.733-5.435-7.352-28.451-18.7-32.126-19.18-3.677-.479-9.75.48-9.75.48z"/><path fill="#666" d="M86.242 167.57s-6.394-3.517-12.147-6.395c-5.753-2.877-11.028-10.068-13.426-13.904-2.397-3.837-5.274-6.714-9.59-10.39s-10.07-6.873-12.627-11.349l2.078.16s3.517 3.677 8.471 7.832c4.955 4.155 8.951 7.032 13.266 14.065 4.315 7.032 8.951 10.229 13.426 13.266 4.475 3.037 10.708 6.074 10.708 6.074s-.16-3.836-.16-6.074c0-2.237.16-6.233-5.914-12.947-5.583-6.169-31.282-22.329-37.884-24.902-1.678.023-3.416.18-4.725.327-1.918.715-3.726 1.888-5.341 2.999-2.557 1.758-2.557 2.077-7.033 3.676-4.399 1.571-8.802 2.376-18.061 10.754v43.909h79.613l-.654-17.101z"/><path fill="#B1B5BC" d="M33.018 127.771c1.599-.479 2.557-1.917 3.996-3.355.344-.344.751-.734 1.057-1.119l-.351.038c-1.918.715-3.726 1.888-5.341 2.999-2.557 1.758-2.557 2.077-7.033 3.676-4.399 1.571-8.802 2.376-18.061 10.754v.734c1.808-1.544 5.472-4.51 8.471-5.894 4.156-1.918 6.553-2.877 13.106-2.877h10.229s-8.791-1.6-11.188-1.6c-2.398 0 .639-.318 4.635-1.598 0 0-1.758.159-2.397-.159-.64-.32 1.278-1.119 2.877-1.599z"/><path fill="#FFF" d="M71.697 147.484s-10.549-15.557-6.819-1.918c3.4 12.437 18.756 18.139 21.44 19.048a129.641 129.641 0 0 1-.076-3.758c0-.295.002-.622-.006-.98-11.613-5.511-14.539-12.392-14.539-12.392z"/><path fill="#E06361" d="M86.296 163.889a117.368 117.368 0 0 1-.054-3.032v-.071c-12.515-6.212-14.758-11.702-14.758-11.702s-7.459-11.296-4.582-1.173c2.494 8.774 15.874 14.586 19.394 15.978z"/><path fill="#728CBA" d="M104.09 180.729c-1.065-3.091-3.196-8.205-4.688-10.442-1.491-2.238-3.196-4.476-3.196-4.476s-7.459-4.688-8.844-2.398c0 0-.106 4.104.213 10.07.244 4.554.487 9.228.589 11.188h17.118a48.075 48.075 0 0 0-1.192-3.942z"/><path fill="#F9DE90" d="M104.711 182.636a56.585 56.585 0 0 0-.621-1.906c-.914-2.65-2.61-6.786-4.017-9.323.435 2.218 1.246 5.061 1.246 5.061-1.599-1.492-1.705-.319-8.417-3.303-3.188-1.417-4.741-2.713-5.494-3.685.035 1.202.088 2.546.166 4.004l.197 3.706c1.119.679 3.077 1.431 6.409 2.688 5.849 2.205 9.799 2.685 10.531 2.758z"/><path fill="#FFF" d="M37.813 118.021s-1.279 1.438-1.279 2.717c0 1.279-.959 2.877-.959 2.877l2.877 1.918 2.557 1.119c4.795 1.438 9.11 4.156 10.39 4.156 0 0 1.278 1.119 3.356 2.557s3.836 3.037 4.635 4.156c.799 1.118 3.835 7.032 7.672 11.188 3.836 4.155 5.914 6.393 5.914 6.393s-.16-4.155-.16-6.713l.959-1.917 4.476 4.475c1.439 1.439 3.996 2.558 4.955 3.516.958.959 3.676 4.156 3.676 4.156l.479 4.794s2.078 1.28 4.476 2.559c2.397 1.278 6.393 2.077 6.393 2.077s-3.516-6.074-6.073-8.471c0 0-2.558-2.238-2.718-2.718-.16-.479-1.758-4.475-2.717-6.232-.959-1.759-.799-3.356-.639-5.755.16-2.397.16-1.119 4.475-.16s10.069.32 13.266-.159c3.197-.479 1.759-1.119 1.759-1.119s-4.795-.479-7.513-2.877c-2.717-2.397-7.512-3.676-9.43-4.795 0 0-1.598-.959-3.037-2.557-1.439-1.599-4.476-3.836-4.476-3.836s-1.598 4.954-2.078 8.631c0 0-2.557-3.677-4.795-6.233-2.237-2.559-3.996-3.997-5.753-4.636-1.759-.64-4.316-1.758-6.713-3.836-2.397-2.078-5.275-1.918-9.59-3.037-4.316-1.118-9.591-2.238-14.385-2.238z"/><path fill="#B1B5BC" d="M68.501 127.132c-1.759-.64-4.316-1.758-6.713-3.836-2.397-2.078-5.275-1.918-9.59-3.037-4.315-1.118-9.59-2.237-14.385-2.237 0 0-1.279 1.438-1.279 2.717 0 1.279-.959 2.877-.959 2.877l2.877 1.918 2.557 1.119c4.795 1.438 9.11 4.156 10.39 4.156 0 0 1.278 1.119 3.356 2.557s3.836 3.037 4.635 4.156c.799 1.118 3.835 7.032 7.672 11.188 3.836 4.155 5.914 6.393 5.914 6.393s-.16-4.155-.16-6.713l.959-1.917c.32-.641.64.159 3.197.799 2.557.638 3.835 0 6.073 2.717s3.676 4.155 3.676 4.155l-1.918-2.877c-2.078-3.357-4.156-5.914-5.274-8.151-1.119-2.238-2.717-3.356-2.717-3.356l-1.758 2.237c-1.918 3.037-3.037 3.996-3.516 5.913-.479 1.919-.479 3.038-.479 3.038s-6.233-7.193-7.672-10.07c-1.438-2.876-3.996-5.434-6.394-7.512-2.397-2.078-3.996-2.717-5.275-3.516-1.278-.8-6.073-3.038-6.073-3.038-5.754-2.396-8.631-3.355-8.631-3.355l.64-1.119c.639-1.119 1.278-3.036 1.278-3.036 5.594.479 11.508 1.598 14.705 2.557s4.635.959 6.873 2.397c2.237 1.438 3.516 2.078 5.434 3.036 1.918.96 4.795 2.877 6.074 3.678 1.278.799 3.037 3.676 5.594 6.872 2.557 3.196 5.753 9.91 5.753 9.91-1.758-6.395-4.315-9.75-4.315-9.75s-2.557-3.677-4.795-6.233c-2.238-2.56-3.996-3.998-5.754-4.637zM90.558 144.713c4.315.959 10.069.32 13.266-.159 3.197-.479 1.759-1.119 1.759-1.119s-4.795-.479-7.513-2.877c-2.717-2.397-7.512-3.676-9.43-4.795 0 0-1.598-.959-3.037-2.557-1.439-1.599-4.476-3.836-4.476-3.836s-.132.409-.331 1.077a41.287 41.287 0 0 0 2.568 2.599c1.918 1.758 3.677 3.356 5.914 4.476 2.238 1.118 4.316 1.278 7.192 3.355 0 0-4.635-1.758-7.512-2.557s-4.156-1.438-3.996.479c.16 1.918 0 5.274 0 7.673 0 2.396.16 3.036 1.278 5.273 1.119 2.238 1.758 5.435 3.996 7.832 1.66 1.777 3.933 5.136 5.519 7.862 1.382.391 2.473.608 2.473.608s-3.516-6.074-6.073-8.471c0 0-2.558-2.238-2.718-2.718-.16-.479-1.758-4.475-2.717-6.232-.959-1.759-.799-3.356-.639-5.755.161-2.395.161-1.117 4.477-.158z"/><path fill="#728CBA" d="M109.99 170.184c-.692 0-1.37-.426-1.687-1.058.003.007-.069-.02-.207-.02-.108 0-.191.017-.192.017l-.165.017H90.77a3.905 3.905 0 0 1-.476.028c-1.486 0-1.826-.834-1.903-1.192-.138-.642-.03-1.228.303-1.648a1.53 1.53 0 0 1 1.186-.579l.054-.001c.666 0 1 .286 1.198.457.117.1.132.112.333.112.498 0 .623-.094.624-.095.025-.061.021-.344.018-.532a16.73 16.73 0 0 1-.002-.226v-20.75l.002-.226c.002-.188.007-.469-.031-.549-.008.01-.138-.079-.611-.079-.2 0-.215.014-.333.114a1.667 1.667 0 0 1-1.198.455l-.054-.001a1.52 1.52 0 0 1-1.186-.579c-.333-.42-.44-1.006-.302-1.647.077-.358.417-1.193 1.902-1.193.208 0 .384.018.476.028h11.048c.092-.011.267-.028.475-.028 1.487 0 1.827.835 1.903 1.193.138.642.03 1.228-.303 1.647a1.518 1.518 0 0 1-1.185.579l-.055.001a1.67 1.67 0 0 1-1.198-.455c-.116-.101-.132-.114-.332-.114-.896 0-.896.04-.896.693v21.018c0 .317.079.491.16.561h5.913c1.83 0 2.235-.867 2.319-2.362.012-.22.018-.432.025-.633.032-1.067.081-2.68 1.731-2.68.698 0 1.097.325 1.308.598.521.673.528 1.738.025 3.679-.294 1.132-.247 2.123-.209 2.919.032.702.059 1.258-.169 1.714a1.465 1.465 0 0 1-1.34.817zm-1.893-2.675c.753 0 1.35.328 1.636.902a.363.363 0 0 0 .185.158c.018-.18.001-.542-.014-.843-.028-.614-.065-1.391.048-2.286-.277.825-.86 1.692-2.116 2.08.075-.006.164-.011.261-.011zm-18.161.022c.066.019.18.037.348.039a3.189 3.189 0 0 1-.191-.152c-.029-.025-.068-.059-.083-.068 0 .005-.024-.003-.069-.004a.49.49 0 0 0-.005.185zm6.749.011h2.948c-.475-.273-1.004-.873-1.004-1.971v-21.018c0-.737.126-1.486.82-1.918h-6.458c.083.058.161.123.231.194.499.507.489 1.159.481 1.683l-.002.201.002 20.951c.008.523.018 1.175-.481 1.682a1.656 1.656 0 0 1-.231.195h.816v-24.8h2.877v24.801zm13.662-5.485c-.076.193-.093.729-.104 1.13-.006.213-.013.438-.026.671-.006.102-.013.225-.023.363.397-1.58.288-2.05.241-2.162a.505.505 0 0 0-.088-.002zm-7.769-19.23c.005 0 .027.004.069.004a.585.585 0 0 0 .003-.186 1.346 1.346 0 0 0-.348-.038c.069.05.133.102.191.151a.928.928 0 0 0 .085.069zm-12.642-.181a.571.571 0 0 0 .004.185c.059 0 .076-.006.077-.006l.076-.065c.059-.05.123-.102.192-.151a1.28 1.28 0 0 0-.349.037zM73.015 170.144a23.25 23.25 0 0 1-2.358-.127c-8.158-.84-7.966-10.208-7.963-10.304v-14.999l.002-.226c.003-.188.008-.469-.03-.549-.009.01-.138-.079-.611-.079-.201 0-.215.014-.332.114a1.67 1.67 0 0 1-1.198.455l-.053-.001a1.523 1.523 0 0 1-1.187-.579c-.333-.42-.44-1.006-.302-1.647.077-.358.416-1.193 1.903-1.193.208 0 .383.018.476.028h11.366a4.14 4.14 0 0 1 .476-.028c1.487 0 1.826.835 1.903 1.193.137.642.03 1.228-.303 1.647a1.52 1.52 0 0 1-1.186.579l-.054.001c-.666 0-.999-.284-1.198-.455-.117-.101-.132-.114-.332-.114-.959 0-.959.216-.959.854v15.743c0 3.194 1.725 4.955 4.859 4.955 2.907 0 4.371-1.63 4.476-4.98l.026-15.72.003-.224c.002-.188.007-.469-.031-.549-.009.01-.138-.079-.611-.079-.2 0-.215.014-.332.114a1.669 1.669 0 0 1-1.198.455l-.053-.001a1.52 1.52 0 0 1-1.186-.579c-.333-.42-.44-1.006-.303-1.647.077-.358.416-1.193 1.903-1.193.208 0 .383.018.476.028h5.933c.092-.011.267-.028.475-.028 1.487 0 1.826.835 1.903 1.193.138.642.03 1.228-.302 1.647a1.521 1.521 0 0 1-1.186.579l-.054.001c-.665 0-.999-.284-1.198-.455-.118-.101-.132-.114-.333-.114-.498 0-.623.094-.624.095-.025.061-.021.345-.018.533l.002.226-.017 14.945c0 6.859-3.69 10.485-10.67 10.485zm-9.433-27.508c.084.058.162.123.232.194.499.507.488 1.159.48 1.683l-.002.201v15.024c-.009.348-.145 8.001 6.528 8.688.765.08 1.504.119 2.195.119 6.019 0 9.071-2.989 9.071-8.887l.017-14.945-.002-.2c-.008-.523-.018-1.176.48-1.683.071-.071.148-.137.232-.194h-1.49c.084.058.161.123.232.194.499.507.488 1.159.48 1.683l-.002.201-.027 15.744c-.131 4.234-2.289 6.552-6.073 6.552-4.043 0-6.457-2.449-6.457-6.553v-15.743c0-.435 0-1.508.944-2.078h-6.838zm9.907.191c.004 0 .026.004.069.004a.585.585 0 0 0 .003-.186 1.352 1.352 0 0 0-.348-.038c.069.05.132.102.191.151a.928.928 0 0 0 .085.069c-.001 0-.001 0 0 0zm12.307 0c.004 0 .026.004.069.004a.556.556 0 0 0 .003-.186 1.352 1.352 0 0 0-.348-.038c.069.05.133.102.191.151.03.026.068.059.085.069-.001 0-.001 0 0 0zm-25.27-.181a.612.612 0 0 0 .003.185c.06 0 .077-.006.077-.006l.076-.065c.06-.05.122-.102.191-.151a1.28 1.28 0 0 0-.347.037zm17.742 0a.612.612 0 0 0 .003.185c.06 0 .077-.006.077-.006l.076-.065c.06-.05.123-.102.192-.151a1.277 1.277 0 0 0-.348.037zm-10.334 24.333c-.128-.076-3.133-1.911-3.163-6.81v-17.427h2.877v17.423c-.037 1.715.259 4.709 1.21 5.517l-.924 1.297zM34.672 169.328c-1.487 0-1.827-.835-1.903-1.193-.138-.643-.03-1.228.302-1.647a1.524 1.524 0 0 1 1.186-.579l.054-.001c.665 0 .999.285 1.198.455.117.101.132.113.332.113.498 0 .623-.093.624-.094.025-.061.021-.345.018-.533a16.586 16.586 0 0 1-.002-.226v-20.909l.002-.226c.003-.188.007-.469-.03-.549-.009.01-.138-.079-.612-.079-.2 0-.215.014-.332.114a1.67 1.67 0 0 1-1.198.455l-.054-.001a1.523 1.523 0 0 1-1.187-.579c-.333-.42-.439-1.006-.302-1.647.077-.358.417-1.193 1.903-1.193.208 0 .383.018.475.028H51.29c2.948 0 7.939 1.413 7.939 6.714 0 2.956-1.523 4.787-2.972 5.757 1.73 1.062 4.251 3.373 4.251 7.828 0 3.225-1.52 5.622-4.395 6.933-2.152.981-4.391 1.031-4.817 1.031H35.147a4.102 4.102 0 0 1-.475.028zm-.358-1.637c.066.019.179.037.348.038a3.646 3.646 0 0 1-.191-.151c-.029-.025-.068-.059-.083-.068.001.005-.023-.003-.069-.004a.536.536 0 0 0-.005.185zm15.846.01h1.137c.226 0 2.263-.023 4.154-.887 2.295-1.047 3.459-2.891 3.459-5.479 0-5.539-4.518-7.007-4.709-7.067l-2.332-.726-.068.056 1.917 1.327c.128.088 3.115 2.188 3.115 4.919 0 3.706-3.022 5.609-3.151 5.688l-3.522 2.169zm-12.791 0h12.759l1.519-2.025c-1.166 1.135-2.726 1.831-4.437 1.831h-4.229v-13.725h4.229c.969 0 1.891.223 2.719.623l.711-.96-.369-.484a5.067 5.067 0 0 1-2.665.757H42.98v-11.081h4.626c2.914 0 5.284 2.484 5.284 5.54 0 1.899-.917 3.579-2.31 4.578l.377.26 1.45-1.957c1.804-2.436-.038-5.815-.057-5.849l-1.429-2.573H37.369c.084.058.161.123.232.194.499.507.488 1.159.48 1.683l-.003.201.003 21.11c.008.523.018 1.176-.48 1.683a1.54 1.54 0 0 1-.232.194zm7.21-1.793h2.631c2.721 0 4.935-2.362 4.935-5.265 0-2.174-1.241-4.043-3.008-4.846l-.616.509.435-.587a4.633 4.633 0 0 0-1.745-.34H44.58v10.529zm5.891-11.21c1.955 1.188 3.273 3.408 3.273 5.945a7.08 7.08 0 0 1-.76 3.209c2.495-3.941-.232-7.624-.355-7.785l-1.469-1.938-.689.569zm1.003-12.059 2.057 1.543c1.437 1.076 2.181 2.325 2.213 3.709.055 2.384-2.092 4.184-2.184 4.259l-1.416 1.168 2.077-.583c.136-.039 3.412-1.037 3.412-4.983 0-4.657-4.992-5.079-6.159-5.113zm-6.894 9.48h3.028c2.032 0 3.686-1.769 3.686-3.942s-1.654-3.942-3.686-3.942h-3.028v7.884zm-10.265-9.473a.612.612 0 0 0 .003.185c.06 0 .077-.006.077-.006l.076-.065c.059-.05.123-.102.192-.151a1.277 1.277 0 0 0-.348.037zm6.962 25.031h-2.877v-24.935h2.877v24.935zM133.966 170.184c-.693 0-1.371-.426-1.688-1.058.003.007-.07-.02-.208-.02-.107 0-.189.017-.19.017l-.165.017h-16.971a3.885 3.885 0 0 1-.475.028c-1.487 0-1.827-.834-1.903-1.192-.138-.642-.03-1.228.303-1.648a1.527 1.527 0 0 1 1.185-.579l.054-.001c.665 0 .999.286 1.198.457.117.1.133.112.333.112.498 0 .623-.094.624-.095.025-.061.021-.344.018-.532-.001-.074-.003-.15-.003-.226v-20.75c0-.076.002-.151.003-.226.003-.188.008-.469-.031-.549-.008.01-.138-.079-.61-.079-.2 0-.216.014-.332.114a1.669 1.669 0 0 1-1.198.455l-.055-.001a1.52 1.52 0 0 1-1.185-.579c-.333-.42-.44-1.006-.303-1.647.076-.358.416-1.193 1.903-1.193.208 0 .383.018.475.028h11.047a4.16 4.16 0 0 1 .477-.028c1.486 0 1.825.835 1.902 1.193.138.642.031 1.228-.302 1.647a1.522 1.522 0 0 1-1.187.579l-.053.001c-.666 0-.999-.284-1.198-.455-.118-.101-.133-.114-.333-.114-.896 0-.896.04-.896.693v21.018c0 .317.079.491.16.561h5.914c1.829 0 2.235-.867 2.319-2.362a21.2 21.2 0 0 0 .023-.633c.032-1.067.082-2.68 1.732-2.68.698 0 1.097.325 1.308.598.521.673.528 1.738.026 3.679-.294 1.132-.247 2.123-.21 2.919.033.702.059 1.258-.169 1.714a1.464 1.464 0 0 1-1.339.817zm-1.896-2.675c.754 0 1.352.328 1.638.902a.355.355 0 0 0 .185.158c.018-.18.001-.542-.015-.843-.028-.614-.064-1.391.048-2.286-.277.825-.86 1.692-2.115 2.08.076-.006.164-.011.259-.011zm-18.16.022c.066.019.18.037.349.039a2.657 2.657 0 0 1-.191-.152c-.029-.025-.068-.059-.084-.068.001.005-.022-.003-.069-.004a.536.536 0 0 0-.005.185zm6.75.011h2.947c-.475-.273-1.004-.873-1.004-1.971v-21.018c0-.737.126-1.486.82-1.918h-6.458c.084.058.161.123.232.194.498.507.488 1.159.48 1.683l-.003.201.003 20.951c.008.523.018 1.175-.48 1.682a1.608 1.608 0 0 1-.232.195h.817v-24.8h2.877v24.801zm13.661-5.485c-.075.193-.093.729-.104 1.13-.007.213-.014.438-.027.671-.006.102-.012.225-.024.363.399-1.58.289-2.05.242-2.162a.486.486 0 0 0-.087-.002zm-7.767-19.23c.004 0 .025.004.068.004a.576.576 0 0 0 .004-.186 1.359 1.359 0 0 0-.348-.038c.068.05.131.102.19.151.03.026.069.059.086.069-.001 0-.001 0 0 0zm-12.644-.181a.602.602 0 0 0 .004.185.27.27 0 0 0 .076-.006c.007-.004.047-.039.077-.065.059-.05.122-.102.191-.151a1.283 1.283 0 0 0-.348.037zM152.633 169.544a4.14 4.14 0 0 1-.476-.028H141.11a3.925 3.925 0 0 1-.477.028c-1.486 0-1.825-.834-1.902-1.193-.138-.641-.029-1.228.302-1.647a1.533 1.533 0 0 1 1.187-.579l.054-.001c.665 0 .999.286 1.197.456.118.101.132.113.333.113.896 0 .896-.039.896-.692l-.035-9.282-8.263-11.604c-.847-1.197-.867-1.201-1.213-1.268a.63.63 0 0 0-.097-.012c-.02.017-.038.037-.056.055-.191.189-.546.54-1.235.54l-.045-.001a1.518 1.518 0 0 1-1.186-.579c-.333-.42-.44-1.006-.303-1.647.076-.358.416-1.193 1.902-1.193.208 0 .383.018.476.028h12.325c.094-.011.269-.028.477-.028 1.487 0 1.826.835 1.903 1.193.138.642.03 1.228-.303 1.647a1.52 1.52 0 0 1-1.187.579l-.053.001c-.666 0-.999-.284-1.198-.455-.116-.101-.133-.114-.332-.114-.195 0-.327.018-.413.036.038.072.103.167.204.279l.072.093 5.103 7.604 3.804-6.098c.264-.289.532-1.325.324-1.797-.033-.074-.051-.117-.214-.117-.2 0-.215.014-.332.114a1.664 1.664 0 0 1-1.197.455l-.054-.001a1.522 1.522 0 0 1-1.187-.579c-.332-.42-.439-1.006-.302-1.647.076-.358.416-1.193 1.902-1.193.208 0 .383.018.476.028h7.53c.094-.011.269-.028.477-.028 1.487 0 1.825.835 1.903 1.193.137.642.03 1.228-.303 1.647a1.522 1.522 0 0 1-1.187.579l-.045.001c-.603 0-.992-.264-1.25-.438-.264-.178-.293-.177-.458-.146-.383.073-1.02.417-1.885 1.633l-6.424 10.122v10.238c0 .076-.001.15-.003.227-.003.187-.007.468.031.548.002.002.138.078.611.078.2 0 .215-.013.332-.113.199-.17.532-.456 1.197-.456l.055.001a1.53 1.53 0 0 1 1.186.579c.333.422.439 1.007.302 1.648-.073.359-.413 1.193-1.899 1.193zm.354-1.821a.34.34 0 0 0-.076.006c-.006.005-.048.039-.076.065-.06.05-.123.103-.192.151.169-.001.282-.02.348-.038a.597.597 0 0 0-.004-.184zm-12.711.184c.066.019.18.037.348.038-.069-.049-.132-.102-.191-.151-.029-.025-.068-.059-.083-.068.002.005-.024-.003-.069-.004a.512.512 0 0 0-.005.185zm3.202.011h6.458a1.675 1.675 0 0 1-.232-.195c-.498-.507-.488-1.158-.48-1.682l.003-.201v-10.703l6.707-10.565c.65-.919 1.297-1.559 1.955-1.936h-3.586c.225.176.406.41.532.696.465 1.053.09 2.688-.55 3.455l-4.989 8.03-6.449-9.611c-.592-.673-.778-1.397-.514-1.998.085-.191.229-.399.476-.572h-8.406c.407.288.741.758 1.305 1.555l.044.062 8.511 11.952.037 9.793c-.002.738-.128 1.487-.822 1.92zm2.255-25.091c.004 0 .025.004.068.004a.576.576 0 0 0 .004-.186 1.352 1.352 0 0 0-.348-.038c.069.05.131.102.19.151.031.026.07.059.086.069zm14.664-.218c.03.021.06.039.088.059.187.126.247.16.341.163a.576.576 0 0 0 .004-.186 1.376 1.376 0 0 0-.433-.036zm-8.765.037a.525.525 0 0 0 .003.185.27.27 0 0 0 .076-.006l.076-.065c.06-.05.123-.102.192-.151a1.274 1.274 0 0 0-.347.037zm-19.819 0a.58.58 0 0 0 .003.185c.021 0 .026-.002.027-.002a2.897 2.897 0 0 1 .221-.218c-.117.005-.2.021-.251.035zm15.566 25.003h-2.798v-11.49l-9.55-13.283h3.166l9.182 12.769v12.004z"/><g fill="#F9DE90"><path d="M110.377 161.256c-1.039 0-.88 1.119-.959 2.558-.08 1.438-.479 3.117-3.117 3.117h-6.073s-.799-.16-.799-1.359v-21.018c0-.852.097-1.491 1.694-1.491.959 0 .746.585 1.566.568.518-.012.895-.469.725-1.262-.16-.746-1.545-.533-1.545-.533H90.717s-1.385-.213-1.545.533c-.17.793.207 1.25.724 1.262.821.017.608-.568 1.567-.568 1.598 0 1.438.799 1.438 1.651v20.75c0 .852.16 1.651-1.438 1.651-.959 0-.746-.586-1.567-.567-.518.011-.894.467-.724 1.26.16.746 1.545.533 1.545.533h17.022s.959-.212 1.278.427c.32.64 1.279.88 1.599.24.319-.639-.239-2.317.319-4.475.561-2.158.481-3.277-.558-3.277zm-14.492 5.621h-1.278v-23.335h1.278v23.335zM85.086 141.836H79.05s-1.385-.213-1.545.533c-.17.793.207 1.25.724 1.262.821.017.607-.568 1.566-.568 1.598 0 1.439.799 1.439 1.651l-.027 15.743c-.16 5.114-3.356 5.754-5.274 5.754-3.604 0-5.658-2.127-5.658-5.754v-15.743c0-.853.161-1.651 1.759-1.651.959 0 .746.585 1.566.568.518-.012.894-.469.724-1.262-.16-.746-1.545-.533-1.545-.533h-11.47s-1.385-.213-1.545.533c-.17.793.206 1.25.724 1.262.821.017.607-.568 1.566-.568 1.598 0 1.439.799 1.439 1.651v15.024s-.267 8.71 7.246 9.483c7.913.813 12.146-2.425 12.146-9.563l.017-14.944c0-.853-.16-1.651 1.438-1.651.959 0 .746.585 1.567.568.518-.012.895-.469.724-1.262-.159-.746-1.545-.533-1.545-.533zm-19.515 18.329v-16.623h1.279v16.623s-.107 4.768 1.492 6.126c-.001 0-2.744-1.624-2.771-6.126zM54.436 153.505s3.996-1.119 3.996-5.754c0-6.074-7.192-5.915-7.192-5.915H35.096s-1.385-.213-1.545.533c-.17.793.206 1.25.725 1.262.82.017.607-.568 1.566-.568 1.599 0 1.439.799 1.439 1.651v20.909c0 .853.159 1.652-1.439 1.652-.959 0-.746-.586-1.566-.569-.518.013-.895.469-.725 1.262.16.746 1.545.533 1.545.533h16.143s8.471.188 8.471-7.165c0-6.233-5.274-7.831-5.274-7.831zM43.78 143.436h3.827c2.477 0 4.484 2.123 4.484 4.741 0 2.619-2.008 4.741-4.484 4.741H43.78v-9.482zm-3.303 23.441h-1.279v-23.335h1.279v23.335zm6.733-.17h-3.43v-12.126h3.43c3.166 0 5.734 2.714 5.734 6.063s-2.568 6.063-5.734 6.063zm5.84-21.887c4.262 3.197 0 6.713 0 6.713 2.131-2.877 0-6.713 0-6.713zm.214 20.033c3.517-4.688 0-9.271 0-9.271s2.771 1.918 2.771 4.263c-.001 3.303-2.771 5.008-2.771 5.008zM134.352 161.256c-1.038 0-.879 1.119-.959 2.558-.079 1.438-.479 3.117-3.116 3.117h-6.074s-.799-.16-.799-1.359v-21.018c0-.852.097-1.491 1.694-1.491.959 0 .746.585 1.567.568.518-.012.894-.469.724-1.262-.16-.746-1.545-.533-1.545-.533h-11.151s-1.386-.213-1.545.533c-.17.793.207 1.25.725 1.262.82.017.607-.568 1.566-.568 1.598 0 1.439.799 1.439 1.651v20.75c0 .852.158 1.651-1.439 1.651-.959 0-.746-.586-1.567-.567-.517.011-.894.467-.724 1.26.159.746 1.545.533 1.545.533h17.022s.959-.212 1.278.427c.32.64 1.279.88 1.599.24.319-.639-.24-2.317.319-4.475.56-2.158.48-3.277-.559-3.277zm-14.491 5.621h-1.28v-23.335h1.28v23.335zM161.593 142.369c-.16-.746-1.545-.533-1.545-.533h-7.635s-1.386-.213-1.546.533c-.17.793.207 1.25.725 1.262.821.017.607-.568 1.566-.568 1.599 0 1.136 2.53.48 3.25l-4.369 7.032-5.791-8.631c-.655-.72-.799-1.651.8-1.651.959 0 .745.585 1.566.568.518-.012.894-.469.724-1.262-.16-.746-1.545-.533-1.545-.533h-12.43s-1.386-.213-1.545.533c-.17.793.207 1.25.725 1.262.82.017.624-.749 1.565-.568.693.133.853.372 1.76 1.651l8.363 11.748.037 9.538c0 .853-.097 1.491-1.695 1.491-.959 0-.746-.586-1.567-.567-.518.011-.894.467-.724 1.26.16.746 1.545.533 1.545.533h11.151s1.386.213 1.545-.533c.17-.793-.206-1.249-.725-1.26-.82-.019-.606.567-1.565.567-1.599 0-1.438-.8-1.438-1.651v-10.471l6.56-10.335c.905-1.28 1.705-1.839 2.397-1.972.941-.181 1.065.585 1.887.568.518-.011.895-.468.724-1.261zm-15.015 24.482h-1.198v-10.949l-8.791-12.227h1.199l8.79 12.227v10.949z"/></g></g></svg>