<?xml version="1.0" encoding="utf-8"?>
<!-- Generator: Adobe Illustrator 17.1.0, SVG Export Plug-In . SVG Version: 6.00 Build 0)  -->
<!DOCTYPE svg PUBLIC "-//W3C//DTD SVG 1.1//EN" "http://www.w3.org/Graphics/SVG/1.1/DTD/svg11.dtd">
<svg version="1.1" id="Слой_1" xmlns="http://www.w3.org/2000/svg" xmlns:xlink="http://www.w3.org/1999/xlink" x="0px" y="0px"
	 viewBox="0 0 192 192" enable-background="new 0 0 192 192" xml:space="preserve">
<rect fill="#B1B5BE" width="192" height="192"/>
<g>
	<path fill="#FFDF7D" d="M0.5,189.7c-0.2,0-0.4-0.1-0.5-0.2c0-12.6,0-25.2,0-37.8c0.2,0,0.4,0,0.6,0c1.2,0.7,1.3,1.9,1.4,3
		c0.2,10.6,0.2,21.3,0,31.9C2,187.9,1.8,189.1,0.5,189.7z"/>
	<path fill="#FFDF7D" d="M72.1,166.4c5.4-5.4,14.9-5.3,18.3,1.4c2.5-3.3,5.6-5.3,9.9-5.2c5.1,0.1,8.4,2.5,9.7,7.5
		c1.1,4.1,0.5,8.3,0.6,12.4c0,2.7,0.4,4.5,3.7,3.8c1.3-0.3,2.4,0.2,2.7,1.6c0.3,1.4-0.7,2.2-1.8,2.6c-7.5,2.7-10.7-0.8-10.2-6.5
		c0.2-3,0.1-6,0-9c-0.1-4.6-2.7-7.4-6.7-7.3c-3.9,0.1-7.3,3.9-7,7.6c0.4,4.3-0.1,8.7,0.2,13.1c0.1,2.6-1.3,2.3-3,2.4
		c-1.9,0.1-2.9-0.1-2.8-2.5c0.2-4.1,0.1-8.3,0-12.5c-0.1-5.3-2.4-8.1-6.5-8.1c-3.6,0-7.7,3.2-7.3,8.3c0.3,4.1-0.1,8.3,0.1,12.5
		c0.1,2.7-1.5,2.2-3,2.3c-1.6,0.1-2.8,0.1-2.7-2.2c0.2-7.2,0.1-14.5,0.1-21.8c0-1.9,0.1-3.8,2.5-4.1
		C71.3,162.4,71.8,164.2,72.1,166.4z"/>
	<path fill="#FFDF7D" d="M51.5,187.5c-1.9,2.1-4.1,3-6.5,3.6c-6.8,1.5-12-1.8-13-8.6c-0.9-5.6-0.3-11.3-0.3-16.9
		c0-1.6,0.9-2.9,2.8-2.9c2,0,2.7,1.3,2.7,3.2c0,4.4-0.1,8.7,0,13.1c0.1,2.9,0.8,5.7,4.2,6.8c3.1,1,6.5,0.1,8.7-2.4
		c1.1-1.2,1.4-2.5,1.4-4.1c0-4.3,0-8.5,0-12.8c0-1.9,0.3-3.8,2.8-3.8c2.5,0,2.8,1.8,2.7,3.8c0,5.3,0,10.7,0,16
		c0,2.6,0.5,4.5,3.8,3.8c1.3-0.3,2.4,0,2.7,1.5c0.3,1.4-0.5,2.1-1.7,2.7C57.5,192.4,54.2,191.6,51.5,187.5z"/>
	<path fill="#FFDF7D" d="M151.6,169.6c0-5.1,0-10.2,0-15.3c0-2,0.4-3.8,2.9-3.7c2.4,0,2.8,1.9,2.9,3.8c0,9.2,0,18.3,0,27.5
		c0,4.4,0.2,4.5,4.5,4.4c1.3,0,2.4,0.2,2.6,1.6c0.3,1.4-0.6,2.2-1.8,2.6c-6.2,2.1-11.4,0.7-11-7.2
		C151.7,178.8,151.6,174.2,151.6,169.6z"/>
	<path fill="#FFDF7D" d="M190.5,168c-2.7-4.6-7.6-6.4-14.5-5.3c-5.9,1-10.5,6.5-11,13.2c-0.5,7.4,3.1,13.2,9.3,14.9
		c6.4,1.8,12.3,0.7,17.7-3.2c0-0.9,0-1.7,0-2.6c-1.6-1.2-3.1-1-4.9-0.1c-3.2,1.7-6.5,2.4-10.2,1.5c-1.6-0.4-3-1.2-4.1-2.3
		c-1.2-1.3-2.4-3-1.9-4.5c0.5-1.6,2.6-0.6,4-0.7c4.6-0.1,9.2-0.1,13.7,0c1.2,0,2.3,0.1,3.3-0.8c0-2.1,0-4.3,0-6.4
		C190.9,170.7,191.2,169.1,190.5,168z M186.2,173.6c-0.5,1.5-2,0.7-3.1,0.7c-3.8,0.1-7.6,0-11.5,0c-0.2,0-0.4-0.1-0.8-0.2
		c1.5-5.5,5.4-8,10.5-6.9c1.7,0.4,3.2,1.2,4.1,2.8C186.3,171,186.7,172.4,186.2,173.6z"/>
	<path fill="#FFDF7D" d="M164,72c-9.8-16.7-19.4-33.5-29-50.3c-2.2-3.9-5.3-5.8-9.8-5.7c-9.7,0.2-19.4,0-29.1,0
		c-9.7,0-19.4,0.1-29.1,0c-4.6-0.1-7.6,1.9-9.8,5.7c-9.6,16.7-19.2,33.4-28.9,50c-2.3,4-2.4,7.6-0.1,11.7
		c9.8,16.7,19.4,33.5,29,50.3c2.2,3.8,5.2,5.6,9.6,5.6c19.5-0.1,39-0.1,58.6,0c4.4,0,7.4-1.8,9.6-5.6c9.6-16.8,19.3-33.6,29-50.3
		C166.2,79.4,166.3,75.9,164,72z M83.7,46.2c8.2,0,16.4,0,24.6,0c2.3,0,4.2,0.8,4.2,3.3c0,2.5-1.9,3.4-4.1,3.4c-4.2,0-8.3,0-12.5,0
		c-4,0-8.1,0-12.1,0c-2.4,0-4.4-0.7-4.4-3.5C79.5,46.9,81.5,46.2,83.7,46.2z M77.4,57.5c12.4,0.1,24.9,0.1,37.3,0
		c2.4,0,4.2,0.8,4.2,3.2c0,2.7-2,3.4-4.4,3.4c-6.3-0.1-12.5,0-18.8,0c-6.1,0-12.1,0-18.2,0c-2.5,0-4.4-0.8-4.4-3.4
		C73.1,58.2,75,57.5,77.4,57.5z M101.3,109c-1.8,0.1-3.6,0-5.4,0c0,0,0,0,0,0c-1.7,0-3.4,0.1-5.1,0c-1.9-0.1-3.2-1.1-3.2-3.2
		c-0.1-2,1.2-3.1,2.8-3.2c3.7-0.2,7.4-0.2,11.1,0c1.8,0.1,3.1,1.3,2.9,3.5C104.3,108,103.1,108.9,101.3,109z M106.3,97.9
		c-3.5,0-7,0-10.5,0c-3.4,0-6.8,0-10.2,0c-2.2,0-4.2-0.7-4.3-3.2c-0.1-2.8,2-3.5,4.4-3.5c6.9,0,13.8,0,20.7,0c2.2,0,4.2,0.7,4.3,3.2
		C110.7,97.2,108.7,97.9,106.3,97.9z M114.6,86.6c-12.4-0.1-24.9-0.1-37.3,0c-2.4,0-4.2-0.8-4.2-3.2c0-2.7,1.9-3.4,4.4-3.4
		c6.2,0.1,12.3,0,18.5,0s12.3,0,18.5,0c2.5,0,4.4,0.8,4.4,3.4C118.9,85.9,117,86.6,114.6,86.6z M123.1,75.1
		c-1.1,0.5-2.3,0.4-3.5,0.4c-8,0-16,0-24,0c-7.8,0-15.5,0-23.3,0c-1.2,0-2.3,0.1-3.5-0.4c-1.3-0.6-2-1.6-2-3c0-1.4,0.6-2.4,2-3
		c1.1-0.5,2.3-0.4,3.5-0.4c15.8,0,31.5,0,47.3,0c1.2,0,2.3-0.1,3.5,0.4c1.3,0.6,2,1.6,2,3C125.1,73.5,124.4,74.5,123.1,75.1z"/>
	<path fill="#FFDF7D" d="M145.1,168.3c-3.8-6-10-7-19.7-3.3c0-3.5,0-6.8,0-10.2c0-2.1-0.1-4.4-2.9-4.3c-2.7,0-2.7,2.1-2.7,4.1
		c0,10.8,0,21.5,0,32.3c0,1.7-0.2,3.6,1.9,4.3c2.3,0.8,3.1-1.1,4.1-2.8c6,4.1,12.9,3.8,17.5-0.6
		C147.9,183.3,148.8,174.2,145.1,168.3z M138.7,184.3c-2.8,2.5-6.9,2.7-10.7,1c-2-0.9-3-2.2-2.7-4.4c0.2-1.3,0-2.5,0-3.8
		c0-0.5,0-1.1,0-1.6c0-5.5,1.1-7,5.6-7.7c4.8-0.8,8.6,1.3,10.1,5.6C142.3,177,141.3,182,138.7,184.3z"/>
	<path fill="#FFDF7D" d="M25.6,168.4c-1.7-2.6-3.9-4.4-7-5.3c-4.6-1.3-8.7-0.5-12.9,2.4c0-4.1-0.1-7.8,0-11.5c0-1.5-0.4-2.8-1.8-3.4
		c-1.3-0.5-2.5-0.2-3.3,1.1c0,12.6-0.1,25.3-0.1,37.9c2.4,2.6,3.8,2.2,5.6-1.3c5.8,4.1,12.8,3.9,17.5-0.6
		C28.5,183.2,29.4,174.3,25.6,168.4z M19.5,184c-2.7,2.7-7,3.1-10.9,1.3c-2.1-1-3.1-2.3-2.8-4.7c0.2-1.3,0-2.5,0-3.8
		c0-0.4,0-0.8,0-1.3c0-5.4,1-6.8,5.2-7.8c4.4-0.9,8.3,0.8,10.2,4.6C22.9,175.9,22.1,181.4,19.5,184z"/>
</g>
</svg>
