<?xml version="1.0" encoding="UTF-8" standalone="no"?>
<svg
   xmlns:dc="http://purl.org/dc/elements/1.1/"
   xmlns:cc="http://creativecommons.org/ns#"
   xmlns:rdf="http://www.w3.org/1999/02/22-rdf-syntax-ns#"
   xmlns:svg="http://www.w3.org/2000/svg"
   xmlns="http://www.w3.org/2000/svg"
   xmlns:sodipodi="http://sodipodi.sourceforge.net/DTD/sodipodi-0.dtd"
   xmlns:inkscape="http://www.inkscape.org/namespaces/inkscape"
   sodipodi:docname="burger_king.svg"
   inkscape:version="1.0.1 (3bc2e813f5, 2020-09-07)"
   version="1.1"
   id="svg2"
   viewBox="0 0 192 192"
   height="192"
   width="192"
   inkscape:export-filename="/home/jphilippe/inkscape/icônes/delta-github/png/burger_king.png"
   inkscape:export-xdpi="96"
   inkscape:export-ydpi="96">
  <sodipodi:namedview
     inkscape:document-rotation="0"
     inkscape:window-maximized="1"
     inkscape:window-y="0"
     inkscape:window-x="1920"
     inkscape:window-height="1022"
     inkscape:window-width="1680"
     units="px"
     showgrid="false"
     inkscape:current-layer="layer1"
     inkscape:document-units="px"
     inkscape:cy="141.75281"
     inkscape:cx="-10.995638"
     inkscape:zoom="2.0000001"
     inkscape:pageshadow="2"
     inkscape:pageopacity="0.0"
     borderopacity="1.0"
     bordercolor="#666666"
     pagecolor="#ffffff"
     id="base"
     inkscape:snap-bbox="false"
     inkscape:object-paths="true"
     inkscape:snap-nodes="true"
     showguides="true"
     inkscape:guide-bbox="true"
     inkscape:snap-object-midpoints="true"
     inkscape:snap-center="true"
     inkscape:snap-global="false"
     inkscape:snap-intersection-paths="true"
     inkscape:snap-smooth-nodes="true"
     inkscape:snap-midpoints="true" />
  <defs
     id="defs4" />
  <metadata
     id="metadata7">
    <rdf:RDF>
      <cc:Work
         rdf:about="">
        <dc:format>image/svg+xml</dc:format>
        <dc:type
           rdf:resource="http://purl.org/dc/dcmitype/StillImage" />
        <dc:title></dc:title>
      </cc:Work>
    </rdf:RDF>
  </metadata>
  <g
     transform="translate(0,-860.36216)"
     id="layer1"
     inkscape:groupmode="layer"
     inkscape:label="Calque 1">
    <circle
       style="fill:#ffffff;fill-opacity:1;fill-rule:evenodd;stroke:none;stroke-opacity:1"
       cx="96"
       cy="956.36218"
       r="88"
       id="circle926" />
    <g
       id="g1000"
       transform="matrix(0.96726083,0,0,0.96726083,3.1429613,31.310528)"
       style="stroke-width:1.21629">
      <path
         fill="#f5ebdc"
         d="m 95.999482,1008.0545 c -20.19725,0 -31.369009,-1.6644 -38.642128,-5.7823 -5.345854,-3.02294 -8.675016,-7.57807 -8.675016,-11.87164 v -56.99292 c 0,-6.39642 4.687465,-13.71193 12.179932,-19.05692 6.222558,-4.42487 17.393283,-9.68095 35.137212,-9.68095 30.888098,0 47.318178,16.69044 47.318178,28.73787 v 56.94743 c 0,4.33717 -3.33002,8.89316 -8.71947,11.91593 -7.22849,4.1191 -18.40042,5.7835 -38.598708,5.7835"
         id="path953"
         style="fill:#ffffff;fill-opacity:1;stroke-width:2.22493" />
      <path
         fill="#ff8732"
         d="m 132.11178,997.77086 c -7.0467,3.97724 -19.13635,5.11444 -35.859005,5.11444 -16.722488,0 -28.812304,-1.1372 -35.857976,-5.11444 -4.230677,-2.38198 -6.370742,-5.6293 -6.370742,-7.95787 0,-1.32505 0.705256,-2.08424 2.275499,-2.08424 h 79.904884 c 1.57145,0 2.27671,0.75885 2.27671,2.08424 10e-4,2.32857 -2.14024,5.57554 -6.36868,7.95787 h -6.9e-4 m 4.09301,-61.70727 H 56.299728 c -1.571449,0 -2.275499,-0.81157 -2.275499,-2.2724 0,-8.66157 13.03682,-23.95218 42.228546,-23.95218 28.922065,0 42.229575,15.29061 42.229575,23.95218 0,1.46083 -0.70508,2.2724 -2.27756,2.2724 v 0"
         id="path955"
         style="fill:#f8c18c;fill-opacity:1;stroke-width:2.22493" />
      <path
         fill="#d62300"
         d="m 71.044465,971.78923 c -0.243988,-0.37838 -0.269835,-0.62237 -0.269835,-0.72989 0,-0.29775 0.162314,-0.51365 0.486943,-0.81157 0.759016,-0.70509 2.630281,-2.46366 3.659821,-4.0601 0.785724,-1.2177 1.110352,-2.32719 1.110352,-3.24628 0,-2.35476 -2.140065,-4.19639 -4.472597,-4.19639 -1.490809,0 -2.899943,0.83949 -3.847982,2.38199 -1.273873,2.05632 -2.792423,4.43831 -3.767169,5.38635 -0.24416,0.24416 -0.379422,0.29792 -0.568616,0.29792 -0.325834,0 -0.461096,-0.21711 -0.461096,-0.56845 v -2.70575 c 0,-2.65199 -1.571449,-4.79102 -4.417804,-4.79102 -2.873063,0 -4.418838,2.138 -4.418838,4.79102 v 16.67183 c 0,2.65182 1.544569,4.79188 4.418838,4.79188 2.846355,0 4.417804,-2.13799 4.417804,-4.79188 v -3.84178 c 0,-0.32566 0.135262,-0.56861 0.461096,-0.56861 0.434216,0 0.542598,0.43352 0.651324,0.6496 0.623238,1.48874 2.437641,4.65438 4.119711,6.52254 1.138094,1.24493 2.547401,2.03048 4.038382,2.03048 2.520521,0 4.635773,-2.19279 4.635773,-4.5479 0,-1.461 -0.624444,-2.54361 -1.81647,-3.84195 -1.51855,-1.65415 -3.308313,-3.81989 -3.959637,-4.82083 v -10e-4 m 33.801655,-14.58759 c 4.25514,0 6.93901,-2.70661 6.93901,-6.65798 0,-2.51638 -1.51976,-4.24911 -4.5541,-4.24911 h -0.86636 c -1.6004,0 -2.84722,0.75884 -2.84722,2.46366 0,1.51562 1.32849,2.24655 2.33133,2.24655 0.51485,0 0.84155,0.16231 0.84155,0.54173 0,0.48591 -0.56862,0.81158 -1.22011,0.81158 -2.03358,0 -3.41566,-1.43516 -3.41566,-4.11472 0,-2.97645 1.89831,-4.05785 3.36121,-4.05785 1.78855,0 2.08716,0.92012 3.33416,0.92012 1.43687,0 2.413,-1.19099 2.413,-2.43574 0,-0.92013 -0.40734,-1.62314 -1.03058,-2.11112 -1.13826,-0.83948 -2.73676,-1.46083 -5.12185,-1.46083 -4.20259,0 -8.294562,2.76038 -8.294562,9.14749 -0.0021,6.11417 4.091112,8.95622 8.130182,8.95622 v 0 m -47.652114,-0.16231 h 3.823169 c 3.605027,0 5.799886,-2.4087 5.799886,-5.41323 0,-2.40886 -1.437048,-3.51818 -1.761676,-3.78905 -0.134401,-0.10856 -0.269835,-0.21608 -0.269835,-0.32463 0,-0.1344 0.08064,-0.18919 0.217108,-0.35151 0.513823,-0.59549 1.028851,-1.5425 1.028851,-2.92372 0,-3.24628 -2.195892,-4.98004 -5.610864,-4.98004 H 57.19504 c -2.141099,0 -3.170811,1.24682 -3.170811,2.92372 v 11.93474 c 0,1.67897 1.029712,2.92372 3.169777,2.92372 v 0 m 1.600397,-13.12573 c 0,-0.35151 0.21728,-0.62341 0.67717,-0.62341 h 0.352542 c 1.165146,0 1.518722,0.81157 1.518722,1.51665 0,0.64926 -0.35168,1.56938 -1.518722,1.56938 h -0.351508 c -0.461096,0 -0.678377,-0.26983 -0.678377,-0.62237 l 1.73e-4,-1.84025 v 0 m 0,6.33335 c 0,-0.35151 0.21728,-0.62341 0.67717,-0.62341 h 0.488148 c 1.301615,0 1.680003,0.86533 1.680003,1.65105 0,0.70509 -0.379422,1.70585 -1.680003,1.70585 h -0.486942 c -0.461096,0 -0.678376,-0.27087 -0.678376,-0.62341 v -2.11008 m 69.171827,6.92678 c 1.73445,0 2.68266,-1.29955 2.68266,-2.92269 v -2.86893 c 0,-0.35168 0.16318,-0.51382 0.43439,-0.51382 0.32463,0 0.43215,0.18919 0.48573,0.51382 0.24503,1.38019 0.89514,3.24732 1.62625,4.19536 0.92236,1.2189 1.78855,1.5985 2.65699,1.5985 1.4081,0 2.62924,-1.11053 2.62924,-2.49175 0,-0.92012 -0.37942,-1.59729 -0.86757,-2.21863 -0.92219,-1.16308 -1.49046,-1.92055 -1.84197,-2.8679 -0.0819,-0.21711 -0.0279,-0.40733 0.21711,-0.59567 0.84052,-0.64925 1.81647,-2.08423 1.81647,-4.35663 0,-3.43755 -2.84705,-5.38635 -6.28993,-5.38635 h -3.06157 c -2.14127,0 -3.17064,1.24372 -3.17064,2.92269 v 12.07121 c 0,1.62314 0.94804,2.92062 2.68387,2.92062 l -10e-4,1.7e-4 m 2.38491,-12.79904 c 0,-0.35151 0.21711,-0.62444 0.67734,-0.62444 h 0.37925 c 1.1393,0 1.49081,0.8126 1.49081,1.51665 0,0.67717 -0.35151,1.56938 -1.49081,1.56938 h -0.37925 c -0.46126,0 -0.67734,-0.2688 -0.67734,-0.62237 v -1.84025 10e-4 m -46.945992,14.36945 c -3.035377,0 -4.689705,2.2724 -4.689705,5.11445 v 16.0236 c 0,2.84309 1.654328,5.11548 4.689705,5.11548 3.035205,0 4.6885,-2.27326 4.6885,-5.11548 v -16.0236 c 0,-2.84015 -1.652089,-5.11445 -4.6885,-5.11445 m 48.191782,10.42015 h -1.32763 c -2.38492,0 -4.22827,1.10932 -4.22827,3.54403 0,2.21968 2.00584,3.27523 3.4963,3.27523 0.73197,0 1.24682,0.21711 1.24682,0.78469 0,0.70302 -0.8674,1.16308 -1.78856,1.16308 -3.06329,0 -5.15062,-2.08423 -5.15062,-5.95496 0,-4.30287 2.84635,-5.87225 5.04104,-5.87225 2.68387,0 3.11705,1.35434 4.98711,1.35434 2.1678,0 3.63173,-1.75979 3.63173,-3.5461 0,-1.3254 -0.59636,-2.35442 -1.54457,-3.05812 -1.65415,-1.21891 -4.14642,-2.1125 -7.67115,-2.1125 -6.31474,0 -12.4682,3.97825 -12.4682,13.23463 0,8.84956 6.15139,12.99133 12.22421,12.99133 6.36851,0 10.4074,-3.92431 10.4074,-9.66234 0.002,-3.62467 -2.2736,-6.14106 -6.85561,-6.14106 M 121.3515,957.03933 c 1.51975,0 2.71178,-0.89325 2.71178,-2.51725 0,-1.59747 -1.19306,-2.49054 -2.71075,-2.49054 h -2.43971 c -0.46006,0 -0.67734,-0.26983 -0.67734,-0.62237 v -0.51486 c 0,-0.35151 0.21728,-0.62238 0.67838,-0.62238 h 1.87023 c 1.30178,0 2.3315,-0.78469 2.3315,-2.16591 0,-1.37915 -1.02989,-2.16488 -2.3315,-2.16488 h -1.87092 c -0.46024,0 -0.67735,-0.27086 -0.67735,-0.62341 v -0.43318 c 0,-0.35151 0.21711,-0.62237 0.67838,-0.62237 h 2.43868 c 1.51786,0 2.71074,-0.89325 2.71074,-2.51639 0,-1.59833 -1.19306,-2.49157 -2.71074,-2.49157 h -5.12255 c -2.13989,0 -3.17081,1.24475 -3.17081,2.92372 v 11.93491 c 0,1.67776 1.02989,2.92355 3.17081,2.92355 h 5.12255 v 0.003 h -0.001 m -46.56571,0.13406 c 4.390751,0 6.722078,-2.62598 6.722078,-5.92602 v -9.12164 c 0,-1.62314 -0.948039,-2.92372 -2.683697,-2.92372 -1.734796,0 -2.682835,1.30058 -2.682835,2.92372 v 8.82286 c 0,0.64822 -0.379422,1.40603 -1.355374,1.40603 -0.975952,0 -1.302648,-0.75781 -1.302648,-1.40603 v -8.82286 c 0,-1.62314 -0.974919,-2.92372 -2.710577,-2.92372 -1.734624,0 -2.682835,1.30058 -2.682835,2.92372 v 9.12061 c 0.0012,3.30228 2.305653,5.92619 6.696232,5.92619 l -3.44e-4,8.6e-4 m 19.027968,0 c 1.409479,0 2.630281,-1.10932 2.630281,-2.49054 0,-0.92013 -0.379422,-1.5973 -0.867399,-2.21864 -0.785724,-1.02868 -1.490808,-1.92192 -1.842316,-2.86789 -0.08167,-0.21711 -0.02774,-0.40734 0.21728,-0.59653 0.840518,-0.64822 1.816471,-2.08321 1.816471,-4.35664 0,-3.43754 -2.847217,-5.38634 -6.28993,-5.38634 H 86.41399 c -2.140065,0 -3.170811,1.24475 -3.170811,2.92372 v 12.0712 c 0,1.62315 0.949245,2.9239 2.683869,2.9239 1.734796,0 2.683869,-1.30075 2.683869,-2.9239 v -2.86789 c 0,-0.35151 0.162141,-0.51486 0.433182,-0.51486 0.325662,0 0.433182,0.1892 0.486942,0.51486 0.24416,1.37915 0.894106,3.24628 1.626243,4.19535 0.921847,1.21581 1.788212,1.5942 2.656644,1.5942 v 0 m -4.445546,-10.33848 h -0.380456 c -0.461096,0 -0.67717,-0.26983 -0.67717,-0.62238 v -1.83921 c 0,-0.35151 0.217108,-0.62341 0.67717,-0.62341 h 0.379422 c 1.139301,0 1.490809,0.8126 1.490809,1.51665 0,0.67511 -0.351508,1.56835 -1.490809,1.56835 h 10e-4 m 20.029772,11.90889 c -2.79122,0 -4.30908,2.08321 -4.30908,4.70918 v 5.84537 c 0,0.48591 -0.16335,0.70405 -0.46109,0.70405 -0.21711,0 -0.37943,-0.1344 -0.56862,-0.51382 l -3.76734,-7.3062 c -1.437055,-2.78829 -2.927863,-3.43737 -4.634746,-3.43737 -2.846183,0 -4.418665,2.13696 -4.418665,4.81773 v 16.72662 c 0,2.6258 1.517688,4.70935 4.309077,4.70935 2.792423,0 4.309078,-2.08441 4.309078,-4.70935 v -5.84555 c 0,-0.48573 0.163356,-0.70508 0.461276,-0.70508 0.2171,0 0.38045,0.13543 0.56861,0.51486 l 3.76717,7.30723 c 1.43705,2.78829 2.98179,3.43755 4.63577,3.43755 2.84636,0 4.41884,-2.13817 4.41884,-4.81773 v -16.72663 c 0,-2.62597 -1.51803,-4.70917 -4.31028,-4.70917 v -10e-4"
         id="path957"
         style="fill:#ff837d;fill-opacity:1;stroke-width:2.22493" />
    </g>
  </g>
  <style
     type="text/css"
     id="style853">
	.st0{fill:#FFFFFF;}
</style>
  <style
     type="text/css"
     id="style853-9">
	.st0{fill:#FFFFFF;}
</style>
  <style
     type="text/css"
     id="style853-3">
	.st0{fill:#FFFFFF;}
</style>
  <style
     type="text/css"
     id="style853-5">
	.st0{fill:#FFFFFF;}
</style>
</svg>
