<svg xmlns="http://www.w3.org/2000/svg" width="192" height="192"><rect width="152" height="152" x="20" y="20" fill="#56595b" rx="9.935"/><path fill="#979797" d="m63.732 63.003-5.36 17.5v17.501h75.358v-17.5l-5.358-17.5z"/><g fill="#98dc9a" stroke-width=".897" transform="translate(-63.348 -51.299) scale(1.644)"><path d="M113.69 76.948a16.727 12.962 0 0 0-8.364-11.226 16.727 12.962 0 0 0-16.726 0 16.727 12.962 0 0 0-8.364 11.226"/><rect width="9.562" height="1.912" x="94.391" y="-44.039" ry=".956" transform="rotate(60)"/><rect width="9.562" height="1.912" x="-2.552" y="123.87" ry=".956" transform="scale(-1 1) rotate(60)"/></g><path fill="#56595b" stroke="#56595b" stroke-width="3.9998519999999993" d="M57.816 82.81h76.36"/><path fill="#83868c" d="M61.372 98.003V138h69V98.003z"/><path fill="#9abeff" d="m92.908 104.69-.623 3.21a9.787 9.787 0 0 0-2.854 1.641l-3.083-1.062-2.971 5.141 2.47 2.147a9.291 9.291 0 0 0 0 3.287l-2.47 2.145 2.97 5.14 3.08-1.06a9.703 9.703 0 0 0 2.858 1.64l.623 3.209h5.937l.611-3.178c1.106-.464 2.011-.972 2.867-1.674l3.082 1.063 2.969-5.14-2.467-2.148c.187-1.081.209-2.174 0-3.282l2.47-2.15-2.972-5.14-3.08 1.06c-.764-.627-1.771-1.258-2.856-1.64l-.624-3.208zm2.914 8.814a3.955 3.955 0 0 1 3.956 3.955 3.955 3.955 0 0 1-3.956 3.956 3.955 3.955 0 0 1-3.955-3.956 3.955 3.955 0 0 1 3.955-3.955z"/><circle cx="83.765" cy="66.332" r="3.144" fill="#fff"/><circle cx="107.32" cy="66.332" r="3.144" fill="#fff"/></svg>