<?xml version="1.0" encoding="UTF-8" standalone="no"?>
<!-- Created with Inkscape (http://www.inkscape.org/) -->

<svg
   xmlns:osb="http://www.openswatchbook.org/uri/2009/osb"
   xmlns:dc="http://purl.org/dc/elements/1.1/"
   xmlns:cc="http://creativecommons.org/ns#"
   xmlns:rdf="http://www.w3.org/1999/02/22-rdf-syntax-ns#"
   xmlns:svg="http://www.w3.org/2000/svg"
   xmlns="http://www.w3.org/2000/svg"
   xmlns:sodipodi="http://sodipodi.sourceforge.net/DTD/sodipodi-0.dtd"
   xmlns:inkscape="http://www.inkscape.org/namespaces/inkscape"
   inkscape:version="0.91 r13725"
   version="1.1"
   id="svg2"
   viewBox="0 0 192 192"
   height="192"
   width="192"
   sodipodi:docname="buy_me_a_pie.svg"
   inkscape:export-filename="/home/jphilippe/inkscape/icônes/delta-github/png/buy_me_a_pie.png"
   inkscape:export-xdpi="90"
   inkscape:export-ydpi="90">
  <sodipodi:namedview
     inkscape:window-maximized="1"
     inkscape:window-y="28"
     inkscape:window-x="0"
     inkscape:window-height="996"
     inkscape:window-width="1680"
     units="px"
     showgrid="false"
     inkscape:current-layer="layer3"
     inkscape:document-units="px"
     inkscape:cy="192.48226"
     inkscape:cx="-164.38426"
     inkscape:zoom="1.4301163"
     inkscape:pageshadow="2"
     inkscape:pageopacity="0.0"
     borderopacity="1.0"
     bordercolor="#666666"
     pagecolor="#ffffff"
     id="base"
     showguides="false"
     inkscape:object-paths="true"
     inkscape:snap-bbox="true"
     inkscape:bbox-paths="false"
     inkscape:bbox-nodes="true"
     inkscape:snap-intersection-paths="false">
    <sodipodi:guide
       position="-35.860415,94.196725"
       orientation="1,0"
       id="guide15220" />
  </sodipodi:namedview>
  <defs
     id="defs4">
    <linearGradient
       id="linearGradient6082"
       osb:paint="solid">
      <stop
         style="stop-color:#3b5472;stop-opacity:1;"
         offset="0"
         id="stop6084" />
    </linearGradient>
    <clipPath
       clipPathUnits="userSpaceOnUse"
       id="clipPath4728">
      <path
         style="fill:#0000ff;fill-rule:evenodd;stroke:none;stroke-width:1px;stroke-linecap:butt;stroke-linejoin:miter;stroke-opacity:1"
         d="m 39.35977,39.358949 0,113.282001 113.281,0 0.1046,-113.282001 z"
         id="path4730"
         inkscape:connector-curvature="0"
         sodipodi:nodetypes="ccccc" />
    </clipPath>
  </defs>
  <metadata
     id="metadata7">
    <rdf:RDF>
      <cc:Work
         rdf:about="">
        <dc:format>image/svg+xml</dc:format>
        <dc:type
           rdf:resource="http://purl.org/dc/dcmitype/StillImage" />
        <dc:title />
      </cc:Work>
    </rdf:RDF>
  </metadata>
  <g
     inkscape:groupmode="layer"
     id="layer3"
     inkscape:label="Calque 3"
     style="display:inline">
    <g
       id="g15457"
       transform="matrix(1.7792916,0,0,1.7792916,-957.77162,-2242.0919)" />
    <path
       style="opacity:1;fill:none;fill-opacity:1;stroke:none;stroke-width:1;stroke-linecap:round;stroke-linejoin:round;stroke-miterlimit:4;stroke-dasharray:none;stroke-opacity:1"
       d="m -1335.3229,44.537621 c -36.2708,2.03923 -68.6682,31.405386 -73.8019,67.431149 -6.832,36.94825 16.3342,76.46501 51.9051,88.56148 35.0302,13.61897 78.1581,-1.79073 96.6921,-34.47188 19.6942,-31.59513 12.9849,-76.321403 -15.0988,-100.760473 -15.9507,-14.733556 -38.0758,-22.223696 -59.6965,-20.760276 z"
       id="path15751"
       inkscape:connector-curvature="0" />
    <g
       id="g6535">
      <g
         transform="matrix(0.08347541,0,0,0.08347541,79.167541,57.667201)"
         style="fill:#f8c18c;fill-opacity:1;stroke:none"
         id="g6379">
        <path
           inkscape:connector-curvature="0"
           style="opacity:1;fill:#f8c18c;fill-opacity:1;fill-rule:nonzero;stroke:none;stroke-width:2;stroke-linecap:round;stroke-linejoin:round;stroke-miterlimit:4;stroke-dasharray:none;stroke-opacity:1"
           d="m -125.05958,-115.44208 a 403.05049,403.05049 0 0 1 -403.0505,403.0505 403.05049,403.05049 0 0 1 -403.0505,-403.0505 403.05049,403.05049 0 0 1 403.0505,-403.05048 403.05049,403.05049 0 0 1 403.0505,403.05048 z"
           id="path6381"
           transform="translate(1386.8978,574.65269)" />
        <path
           inkscape:connector-curvature="0"
           style="opacity:1;fill:#f8c18c;fill-opacity:1;fill-rule:nonzero;stroke:none;stroke-width:2;stroke-linecap:round;stroke-linejoin:round;stroke-miterlimit:4;stroke-dasharray:none;stroke-opacity:1"
           d="m -125.05958,-115.44208 a 403.05049,403.05049 0 0 1 -403.0505,403.0505 403.05049,403.05049 0 0 1 -403.0505,-403.0505 403.05049,403.05049 0 0 1 403.0505,-403.05048 403.05049,403.05049 0 0 1 403.0505,403.05048 z"
           id="path6383"
           transform="translate(1194.3996,1039.3478)" />
        <path
           inkscape:connector-curvature="0"
           style="opacity:1;fill:#f8c18c;fill-opacity:1;fill-rule:nonzero;stroke:none;stroke-width:2;stroke-linecap:round;stroke-linejoin:round;stroke-miterlimit:4;stroke-dasharray:none;stroke-opacity:1"
           d="m -125.05958,-115.44208 a 403.05049,403.05049 0 0 1 -403.0505,403.0505 403.05049,403.05049 0 0 1 -403.0505,-403.0505 403.05049,403.05049 0 0 1 403.0505,-403.05048 403.05049,403.05049 0 0 1 403.0505,403.05048 z"
           id="path6385"
           transform="translate(729.68367,1231.7947)" />
        <path
           inkscape:connector-curvature="0"
           style="opacity:1;fill:#f8c18c;fill-opacity:1;fill-rule:nonzero;stroke:none;stroke-width:2;stroke-linecap:round;stroke-linejoin:round;stroke-miterlimit:4;stroke-dasharray:none;stroke-opacity:1"
           d="m -125.05958,-115.44208 a 403.05049,403.05049 0 0 1 -403.0505,403.0505 403.05049,403.05049 0 0 1 -403.0505,-403.0505 403.05049,403.05049 0 0 1 403.0505,-403.05048 403.05049,403.05049 0 0 1 403.0505,403.05048 z"
           id="path6387"
           transform="translate(265.01008,1039.2464)" />
        <path
           inkscape:connector-curvature="0"
           style="opacity:1;fill:#f8c18c;fill-opacity:1;fill-rule:nonzero;stroke:none;stroke-width:2;stroke-linecap:round;stroke-linejoin:round;stroke-miterlimit:4;stroke-dasharray:none;stroke-opacity:1"
           d="m -125.05958,-115.44208 a 403.05049,403.05049 0 0 1 -403.0505,403.0505 403.05049,403.05049 0 0 1 -403.0505,-403.0505 403.05049,403.05049 0 0 1 403.0505,-403.05048 403.05049,403.05049 0 0 1 403.0505,403.05048 z"
           id="path6389"
           transform="translate(72.613803,574.51022)" />
        <path
           inkscape:connector-curvature="0"
           style="opacity:1;fill:#f8c18c;fill-opacity:1;fill-rule:nonzero;stroke:none;stroke-width:2;stroke-linecap:round;stroke-linejoin:round;stroke-miterlimit:4;stroke-dasharray:none;stroke-opacity:1"
           d="m -125.05958,-115.44208 a 403.05049,403.05049 0 0 1 -403.0505,403.0505 403.05049,403.05049 0 0 1 -403.0505,-403.0505 403.05049,403.05049 0 0 1 403.0505,-403.05048 403.05049,403.05049 0 0 1 403.0505,403.05048 z"
           id="path6391"
           transform="translate(265.16119,109.90789)" />
        <path
           inkscape:connector-curvature="0"
           style="opacity:1;fill:#f8c18c;fill-opacity:1;fill-rule:nonzero;stroke:none;stroke-width:2;stroke-linecap:round;stroke-linejoin:round;stroke-miterlimit:4;stroke-dasharray:none;stroke-opacity:1"
           d="m -125.05958,-115.44208 a 403.05049,403.05049 0 0 1 -403.0505,403.0505 403.05049,403.05049 0 0 1 -403.0505,-403.0505 403.05049,403.05049 0 0 1 403.0505,-403.05048 403.05049,403.05049 0 0 1 403.0505,403.05048 z"
           id="path6393"
           transform="translate(729.82614,-82.489209)" />
        <path
           inkscape:connector-curvature="0"
           style="opacity:1;fill:#f8c18c;fill-opacity:1;fill-rule:nonzero;stroke:none;stroke-width:2;stroke-linecap:round;stroke-linejoin:round;stroke-miterlimit:4;stroke-dasharray:none;stroke-opacity:1"
           d="m -125.05958,-115.44208 a 403.05049,403.05049 0 0 1 -403.0505,403.0505 403.05049,403.05049 0 0 1 -403.0505,-403.0505 403.05049,403.05049 0 0 1 403.0505,-403.05048 403.05049,403.05049 0 0 1 403.0505,403.05048 z"
           id="path6395"
           transform="translate(1194.45,110.00803)" />
        <path
           inkscape:connector-curvature="0"
           style="opacity:1;fill:#f8c18c;fill-opacity:1;fill-rule:nonzero;stroke:none;stroke-width:2;stroke-linecap:round;stroke-linejoin:round;stroke-miterlimit:4;stroke-dasharray:none;stroke-opacity:1"
           d="m -125.05958,-115.44208 a 403.05049,403.05049 0 0 1 -403.0505,403.0505 403.05049,403.05049 0 0 1 -403.0505,-403.0505 403.05049,403.05049 0 0 1 403.0505,-403.05048 403.05049,403.05049 0 0 1 403.0505,403.05048 z"
           id="path6397"
           transform="translate(1386.8978,574.65269)" />
      </g>
      <path
         id="path6399"
         d="M 169.79128,96.000001 A 73.791283,73.791283 0 0 1 96.000001,169.79127 73.791283,73.791283 0 0 1 22.208711,96.000001 73.791283,73.791283 0 0 1 96.000001,22.208731 73.791283,73.791283 0 0 1 169.79128,96.000001 Z"
         style="opacity:1;fill:none;fill-opacity:1;fill-rule:nonzero;stroke:#f8c18c;stroke-width:4.59114742;stroke-linecap:round;stroke-linejoin:round;stroke-miterlimit:4;stroke-dasharray:none;stroke-opacity:1"
         inkscape:connector-curvature="0" />
      <path
         inkscape:connector-curvature="0"
         style="opacity:1;fill:#f8c18c;fill-opacity:1;fill-rule:nonzero;stroke:none;stroke-width:2;stroke-linecap:round;stroke-linejoin:round;stroke-miterlimit:4;stroke-dasharray:none;stroke-opacity:1"
         d="M 20.907206,96.000021 A 75.092765,75.092765 0 0 1 95.999996,20.90725 75.092765,75.092765 0 0 1 171.09279,96.000021 75.092765,75.092765 0 0 1 95.999996,171.09275 75.092765,75.092765 0 0 1 20.907206,96.000021 Z"
         id="path6401" />
      <path
         sodipodi:nodetypes="ccccccccccccccccccccccccccccccccccccccccc"
         transform="translate(-1.9500033e-4,-1.6249747e-4)"
         inkscape:connector-curvature="0"
         style="fill:#fe837e;fill-opacity:1;fill-rule:evenodd;stroke:none;stroke-width:1px;stroke-linecap:butt;stroke-linejoin:miter;stroke-opacity:1"
         d="m 39.359375,62.015625 22.65625,0 0,-22.65625 c -13.31042,0 -22.656018,9.345612 -22.65625,22.65625 z m 90.625005,-22.65625 0,22.65625 22.65624,0 c 0,-13.311004 -9.3456,-22.656501 -22.65624,-22.65625 z m 22.65624,90.625005 -22.65624,0 0,22.65624 c 13.31083,0 22.65633,-9.34545 22.65624,-22.65624 z m -90.624995,22.65657 0,-22.65657 -22.65625,0 c 0,13.31025 9.346342,22.65657 22.65625,22.65657 z m 22.65625,-113.281575 0,22.65625 22.656245,0 0,-22.65625 z m -45.3125,45.3125 0,22.656245 22.65625,0 0,-22.656245 z m 45.3125,0 0,22.656245 22.656245,0 0,-22.656245 z m 45.312505,0 0,22.656245 22.65624,0 0,-22.656245 z m -45.312505,45.312505 0,22.65624 22.656245,0 0,-22.65624 z"
         id="path4738"
         clip-path="url(#clipPath4728)" />
    </g>
  </g>
</svg>
