<svg xmlns="http://www.w3.org/2000/svg" width="192" height="192"><g transform="translate(0 -860.362)"><rect rx="10" y="879.862" x="19.5" height="153" width="153" fill="#ff837d" fill-rule="evenodd"/><rect transform="rotate(90)" width="14.281" height="23.107" x="964.544" y="-123.659" rx="6.149" ry="6.149" fill="none" stroke="#fff" stroke-width="5" stroke-linejoin="round"/><path d="M68.925 958.74a3.074 3.074 0 00-3.01 2.426h-.074v10.498c0 13.358 9.532 24.111 21.371 24.111h6.895c11.84 0 21.371-10.753 21.371-24.11v-10.499h-.074a3.074 3.074 0 00-3.01-2.426H68.925z" fill="#fff" stroke-width="5" stroke-linejoin="round"/><path d="M91.898 930.413c-1.05 3.838-5.45 6.393-5.969 10.338-.558 4.239 3.32 12.39 3.32 12.39s-1.08-8.482 0-12.51c1.06-3.953 5.606-6.576 6.14-10.635.565-4.293-3.362-12.547-3.362-12.547s1.01 8.795-.13 12.964zM105.66 931.35c-.848 3.102-4.403 5.166-4.822 8.353-.451 3.425 2.682 10.01 2.682 10.01s-.872-6.852 0-10.107c.856-3.194 4.53-5.313 4.96-8.592.457-3.468-2.715-10.138-2.715-10.138s.815 7.107-.105 10.475zM77.66 931.35c-.848 3.102-4.403 5.166-4.822 8.353-.451 3.425 2.682 10.01 2.682 10.01s-.872-6.852 0-10.107c.856-3.194 4.53-5.313 4.96-8.592.457-3.468-2.715-10.138-2.715-10.138s.815 7.107-.105 10.475z" fill="#fff" fill-rule="evenodd" stroke="#fff" stroke-width="2.5" stroke-linecap="round" stroke-linejoin="round"/></g></svg>