<?xml version="1.0" encoding="UTF-8" standalone="no"?>
<!-- Created with Inkscape (http://www.inkscape.org/) -->

<svg
   xmlns:dc="http://purl.org/dc/elements/1.1/"
   xmlns:cc="http://creativecommons.org/ns#"
   xmlns:rdf="http://www.w3.org/1999/02/22-rdf-syntax-ns#"
   xmlns:svg="http://www.w3.org/2000/svg"
   xmlns="http://www.w3.org/2000/svg"
   xmlns:sodipodi="http://sodipodi.sourceforge.net/DTD/sodipodi-0.dtd"
   xmlns:inkscape="http://www.inkscape.org/namespaces/inkscape"
   width="192"
   height="192"
   viewBox="0 0 192 192"
   id="svg5165"
   version="1.1"
   inkscape:version="0.91 r13725"
   sodipodi:docname="caffeine.svg">
  <defs
     id="defs5167" />
  <sodipodi:namedview
     id="base"
     pagecolor="#ffffff"
     bordercolor="#666666"
     borderopacity="1.0"
     inkscape:pageopacity="0.0"
     inkscape:pageshadow="2"
     inkscape:zoom="0.35"
     inkscape:cx="-202.14286"
     inkscape:cy="520"
     inkscape:document-units="px"
     inkscape:current-layer="layer1"
     showgrid="false"
     units="px"
     inkscape:window-width="1680"
     inkscape:window-height="996"
     inkscape:window-x="0"
     inkscape:window-y="28"
     inkscape:window-maximized="1" />
  <metadata
     id="metadata5170">
    <rdf:RDF>
      <cc:Work
         rdf:about="">
        <dc:format>image/svg+xml</dc:format>
        <dc:type
           rdf:resource="http://purl.org/dc/dcmitype/StillImage" />
        <dc:title></dc:title>
      </cc:Work>
    </rdf:RDF>
  </metadata>
  <g
     inkscape:label="Calque 1"
     inkscape:groupmode="layer"
     id="layer1"
     transform="translate(0,-860.3622)">
    <g
       transform="translate(-5.7220459e-6,-5.1281738e-5)"
       id="g5165">
      <rect
         id="rect5793"
         rx="10"
         y="879.86224"
         x="19.499998"
         height="153.00002"
         width="153.00002"
         style="display:inline;fill:#ff837d;fill-opacity:1;fill-rule:evenodd;stroke:none" />
      <rect
         transform="matrix(0,1,-1,0,0,0)"
         style="opacity:1;fill:none;fill-opacity:1;stroke:#ffffff;stroke-width:5.00000048;stroke-linecap:butt;stroke-linejoin:round;stroke-miterlimit:4;stroke-dasharray:none;stroke-opacity:1"
         id="rect5787"
         width="14.280698"
         height="23.106653"
         x="964.5437"
         y="-123.65874"
         rx="6.1485839"
         ry="6.1485839" />
      <path
         id="path5789"
         d="m 68.925258,958.74025 c -1.481499,0 -2.709302,1.0368 -3.009766,2.4258 l -0.07422,0 0,0.6582 0,6.5606 0,3.2793 c 0,13.3574 9.531613,24.1113 21.371099,24.1113 l 6.89453,0 c 11.839479,0 21.371089,-10.7539 21.371089,-24.1113 l 0,-3.2793 0,-6.5606 0,-0.6582 -0.0742,0 c -0.30046,-1.389 -1.52827,-2.4258 -3.00976,-2.4258 l -43.468753,0 z"
         style="opacity:1;fill:#ffffff;fill-opacity:1;stroke:none;stroke-width:5;stroke-linecap:butt;stroke-linejoin:round;stroke-miterlimit:4;stroke-dasharray:none;stroke-opacity:1"
         inkscape:connector-curvature="0" />
      <path
         style="fill:#ffffff;fill-opacity:1;fill-rule:evenodd;stroke:#ffffff;stroke-width:2.50000024;stroke-linecap:round;stroke-linejoin:round;stroke-miterlimit:4;stroke-dasharray:none;stroke-opacity:1"
         d="m 91.897701,930.41332 c -1.049008,3.83818 -5.449077,6.3927 -5.968433,10.33762 -0.558075,4.23903 3.319834,12.38977 3.319834,12.38977 0,0 -1.079195,-8.48152 0,-12.50916 1.059469,-3.95399 5.605885,-6.57669 6.140196,-10.63513 0.565186,-4.29306 -3.362137,-12.54766 -3.362137,-12.54766 0,0 1.009907,8.79572 -0.12946,12.96456 z"
         id="path5795"
         inkscape:connector-curvature="0"
         sodipodi:nodetypes="aacaaca" />
      <path
         style="fill:#ffffff;fill-opacity:1;fill-rule:evenodd;stroke:#ffffff;stroke-width:2.50000024;stroke-linecap:round;stroke-linejoin:round;stroke-miterlimit:4;stroke-dasharray:none;stroke-opacity:1"
         d="m 105.6599,931.3509 c -0.84752,3.10097 -4.40246,5.16485 -4.82206,8.35205 -0.45089,3.42484 2.68218,10.01005 2.68218,10.01005 0,0 -0.87191,-6.85246 0,-10.1065 0.85598,-3.19454 4.52916,-5.31349 4.96084,-8.59242 0.45663,-3.46848 -2.71636,-10.13761 -2.71636,-10.13761 0,0 0.81593,7.10631 -0.1046,10.47443 z"
         id="path5797"
         inkscape:connector-curvature="0"
         sodipodi:nodetypes="aacaaca" />
      <path
         sodipodi:nodetypes="aacaaca"
         inkscape:connector-curvature="0"
         id="path5799"
         d="m 77.659902,931.3509 c -0.84752,3.10097 -4.40246,5.16485 -4.82206,8.35205 -0.45089,3.42484 2.68218,10.01005 2.68218,10.01005 0,0 -0.87191,-6.85246 0,-10.1065 0.85598,-3.19454 4.52916,-5.31349 4.96084,-8.59242 0.45663,-3.46848 -2.71636,-10.13761 -2.71636,-10.13761 0,0 0.81593,7.10631 -0.1046,10.47443 z"
         style="fill:#ffffff;fill-opacity:1;fill-rule:evenodd;stroke:#ffffff;stroke-width:2.50000024;stroke-linecap:round;stroke-linejoin:round;stroke-miterlimit:4;stroke-dasharray:none;stroke-opacity:1" />
    </g>
  </g>
</svg>
