<?xml version="1.0" encoding="UTF-8" standalone="no"?>
<svg
   viewBox="0 0 192 192"
   version="1.1"
   id="svg16"
   xmlns="http://www.w3.org/2000/svg"
   xmlns:svg="http://www.w3.org/2000/svg">
  <defs
     id="defs4">
    <style
       id="style2">.a{fill:none;stroke:#b1b5bd;stroke-linecap:round;stroke-linejoin:round;isolation:isolate;opacity:0.63;}</style>
  </defs>
  <path
     id="circle8"
     class="a"
     style="opacity:1;isolation:isolate;fill:#54688c;stroke:none;stroke-linecap:round;stroke-linejoin:round"
     d="M 184,96 A 88,88 0 0 1 96,184 88,88 0 0 1 8,96 88,88 0 0 1 96,8 88,88 0 0 1 184,96 Z" />
  <path
     id="rect1845-5"
     style="fill:#ffffff;stroke:none;stroke-width:5.5;stroke-linecap:round;stroke-linejoin:round"
     d="m 68.794922,49.800781 c -2.911824,0 -5.25586,2.344036 -5.25586,5.25586 v 0.982421 c 0,2.911825 2.344036,5.25586 5.25586,5.25586 h 18.572266 v 4.566406 H 63.013672 l -10.489463,9.931641 -8.121865,0 c -2.911824,0 -5.25586,2.344035 -5.25586,5.255859 V 95.476562 H 34.078125 V 81.548828 c 0,-2.911824 -2.344035,-5.255859 -5.255859,-5.255859 h -0.980469 c -2.911824,0 -5.255859,2.344035 -5.255859,5.255859 v 39.347652 c 0,2.91183 2.344035,5.25586 5.255859,5.25586 h 0.980469 c 2.911824,0 5.255859,-2.34403 5.255859,-5.25586 v -13.92773 h 5.068359 v 14.42578 c 0,2.91183 2.344036,5.25586 5.25586,5.25586 h 17.469831 l 20.684466,14.72656 h 56.275389 c 2.91183,0 5.25586,-2.34403 5.25586,-5.25586 v -11.95507 h 3.17578 v 8.08789 c 0,2.91182 2.34404,5.25586 5.25586,5.25586 h 10.11212 l 7.42756,-13.25586 V 93.546875 l -7.42756,-13.255859 h -10.11212 c -2.91182,0 -5.25586,2.344035 -5.25586,5.255859 v 6.755859 h -3.17578 v -6.259765 c 0,-2.911824 -2.34403,-5.25586 -5.25586,-5.25586 h -8.28711 v -9.669921 c 0,-2.911825 -2.34403,-5.25586 -5.25586,-5.25586 H 98.861328 v -4.566406 h 18.572262 c 2.91183,0 5.25586,-2.344035 5.25586,-5.25586 v -0.982421 c 0,-2.911824 -2.34403,-5.25586 -5.25586,-5.25586 z" />
</svg>
