<?xml version="1.0" encoding="UTF-8"?>
<svg version="1.1" viewBox="0 0 192 192" xml:space="preserve" xmlns="http://www.w3.org/2000/svg"><defs><clipPath id="clipPath1317"><rect x="-108.56" y="106.53" width="12.01" height="11.71" rx="1.8726" ry="1.8726" fill="#f9de81" stroke-linecap="round" stroke-linejoin="round" stroke-width="1.9304"/></clipPath><clipPath id="clipPath1321"><rect x="-108.56" y="106.53" width="12.01" height="11.71" rx="1.8726" ry="1.8726" fill="#f9de81" stroke-linecap="round" stroke-linejoin="round" stroke-width="1.9304"/></clipPath><clipPath id="clipPath1325"><rect x="-108.56" y="106.53" width="12.01" height="11.71" rx="1.8726" ry="1.8726" fill="#f9de81" stroke-linecap="round" stroke-linejoin="round" stroke-width="1.9304"/></clipPath><clipPath id="clipPath1329"><rect x="-108.56" y="106.53" width="12.01" height="11.71" rx="1.8726" ry="1.8726" fill="#f9de81" stroke-linecap="round" stroke-linejoin="round" stroke-width="1.9304"/></clipPath></defs>
	 <rect class="a" x="20" y="20" width="152" height="152" rx="10" fill="#f8c18c"/><rect x="69.355" y="63.813" width="63.995" height="38.647" rx="6.2235" ry="6.2235" fill="#9abeff" stroke="#728dbe" stroke-linecap="round" stroke-linejoin="round" stroke-width="2.0413"/><rect x="113.04" y="79.75" width="12.01" height="11.71" rx="1.8726" ry="1.8726" fill="#f9de81" stroke-linecap="round" stroke-linejoin="round" stroke-width="1.9304"/><path transform="translate(221.59 -26.782)" d="m-108.56 109.8h2.6663v5.1786h-2.6663" clip-path="url(#clipPath1329)" fill="none" stroke="#f8c18c" stroke-linecap="round" stroke-linejoin="round" stroke-width=".5"/><path transform="translate(221.59 -26.782)" d="m-102.49 114.55v3.6873" clip-path="url(#clipPath1321)" fill="none" stroke="#f8c18c" stroke-linecap="round" stroke-linejoin="round" stroke-width=".54371"/><rect x="58.65" y="89.54" width="63.995" height="38.647" rx="6.2235" ry="6.2235" fill="#9abeff" stroke="#728dbe" stroke-linecap="round" stroke-linejoin="round" stroke-width="2.0413"/><path transform="translate(176.56 -6.1299)" d="m-99.898 89.763 0.62188 1.2601 1.3906 0.20206-1.0062 0.98082 0.23754 1.3849-1.2438-0.65388-1.2438 0.65388 0.23754-1.3849-1.0062-0.98082 1.3906-0.20206z" fill="#fff" stroke-linecap="round" stroke-linejoin="round" stroke-width="2"/><path transform="translate(182.55 -6.1299)" d="m-99.898 89.763 0.62188 1.2601 1.3906 0.20206-1.0062 0.98082 0.23754 1.3849-1.2438-0.65388-1.2438 0.65388 0.23754-1.3849-1.0062-0.98082 1.3906-0.20206z" fill="#fff" stroke-linecap="round" stroke-linejoin="round" stroke-width="2"/><path transform="translate(188.53 -6.1299)" d="m-99.898 89.763 0.62188 1.2601 1.3906 0.20206-1.0062 0.98082 0.23754 1.3849-1.2438-0.65388-1.2438 0.65388 0.23754-1.3849-1.0062-0.98082 1.3906-0.20206z" fill="#fff" stroke-linecap="round" stroke-linejoin="round" stroke-width="2"/><path transform="translate(194.52 -6.1299)" d="m-99.898 89.763 0.62188 1.2601 1.3906 0.20206-1.0062 0.98082 0.23754 1.3849-1.2438-0.65388-1.2438 0.65388 0.23754-1.3849-1.0062-0.98082 1.3906-0.20206z" fill="#fff" stroke-linecap="round" stroke-linejoin="round" stroke-width="2"/><path transform="translate(200.5 -6.1299)" d="m-99.898 89.763 0.62188 1.2601 1.3906 0.20206-1.0062 0.98082 0.23754 1.3849-1.2438-0.65388-1.2438 0.65388 0.23754-1.3849-1.0062-0.98082 1.3906-0.20206z" fill="#fff" stroke-linecap="round" stroke-linejoin="round" stroke-width="2"/><rect x="98.993" y="99.313" width="18.097" height="3.6462" rx="2.2699" ry="2.2699" fill="#54688c" stroke-linecap="round" stroke-linejoin="round" stroke-width="2"/><rect x="98.993" y="109.56" width="18.097" height="3.6462" rx="2.2699" ry="2.2699" fill="#54688c" stroke-linecap="round" stroke-linejoin="round" stroke-width="2"/><rect x="87.243" y="104.44" width="29.847" height="3.6462" rx="2.2699" ry="2.2699" fill="#54688c" stroke-linecap="round" stroke-linejoin="round" stroke-width="2.5684"/><rect x="87.243" y="114.68" width="29.847" height="3.6462" rx="2.2699" ry="2.2699" fill="#54688c" stroke-linecap="round" stroke-linejoin="round" stroke-width="2.5684"/><rect x="66.668" y="102.41" width="12.01" height="11.71" rx="1.8726" ry="1.8726" fill="#f9de81" stroke-linecap="round" stroke-linejoin="round" stroke-width="1.9304"/><path transform="translate(175.22 -4.1217)" d="m-108.56 109.8h2.6663v5.1786h-2.6663" clip-path="url(#clipPath1329)" fill="none" stroke="#f8c18c" stroke-linecap="round" stroke-linejoin="round" stroke-width=".5"/><path transform="translate(175.22 -4.1217)" d="m-96.547 109.8h-2.3829v5.2065h2.3829" clip-path="url(#clipPath1325)" fill="none" stroke="#f8c18c" stroke-linecap="round" stroke-linejoin="round" stroke-width=".5"/><path transform="translate(175.22 -4.1217)" d="m-102.49 114.55v3.6873" clip-path="url(#clipPath1321)" fill="none" stroke="#f8c18c" stroke-linecap="round" stroke-linejoin="round" stroke-width=".54371"/><path d="m69.334 108.27h1.3364" fill="none" stroke="#f8c18c" stroke-linecap="round" stroke-linejoin="round" stroke-width=".5"/><path d="m76.295 108.28h-1.4478" fill="none" stroke="#f8c18c" stroke-linecap="round" stroke-linejoin="round" stroke-width=".5"/><path transform="translate(175.22 -4.1217)" d="m-102.49 106.53v3.8526" clip-path="url(#clipPath1317)" fill="none" stroke="#f8c18c" stroke-linecap="round" stroke-linejoin="round" stroke-width=".5412"/><path d="m70.921 108.28 0.01 1.8799 3.6667 7e-3 -0.0639-3.6104-3.6124-0.012z" fill="none" stroke="#f8c18c" stroke-linecap="round" stroke-linejoin="round" stroke-width=".5"/><path transform="translate(221.59 -26.782)" d="m-96.547 109.8h-2.3829v5.2065h2.3829" clip-path="url(#clipPath1325)" fill="none" stroke="#f8c18c" stroke-linecap="round" stroke-linejoin="round" stroke-width=".5"/><path d="m115.7 85.605h1.3364" fill="none" stroke="#f8c18c" stroke-linecap="round" stroke-linejoin="round" stroke-width=".5"/><path d="m122.66 85.619h-1.4478" fill="none" stroke="#f8c18c" stroke-linecap="round" stroke-linejoin="round" stroke-width=".5"/><path transform="translate(221.59 -26.782)" d="m-102.49 106.53v3.8526" clip-path="url(#clipPath1317)" fill="none" stroke="#f8c18c" stroke-linecap="round" stroke-linejoin="round" stroke-width=".5412"/><path d="m117.29 85.619 0.01 1.8799 3.6667 7e-3 -0.0639-3.6104-3.6124-0.012z" fill="none" stroke="#f8c18c" stroke-linecap="round" stroke-linejoin="round" stroke-width=".5"/></svg>
