<?xml version="1.0" encoding="UTF-8" standalone="no"?><!-- Generator: Gravit.io --><svg xmlns="http://www.w3.org/2000/svg" xmlns:xlink="http://www.w3.org/1999/xlink" style="isolation:isolate" viewBox="0 0 192 192" width="192pt" height="192pt"><defs><clipPath id="_clipPath_xUllXuU4WpLS2YYaB4IiiGHEjLUMEUWv"><rect width="192" height="192"/></clipPath></defs><g clip-path="url(#_clipPath_xUllXuU4WpLS2YYaB4IiiGHEjLUMEUWv)"><g style="isolation:isolate"><path d=" M 90.056 9.703 L 25.881 47.651 C 22.518 49.64 20 54.047 20 57.951 L 20 134.042 C 20 137.946 22.518 142.353 25.881 144.342 L 90.056 182.297 C 93.456 184.307 98.551 184.307 101.948 182.297 L 166.119 144.342 C 169.482 142.353 172 137.946 172 134.042 L 172 57.951 C 172 54.047 169.482 49.64 166.119 47.651 L 101.948 9.703 C 98.551 7.693 93.453 7.693 90.056 9.703 Z " fill-rule="evenodd" fill="rgb(248,193,140)"/><g style="isolation:isolate"><path d=" M 102.663 75.449 C 100.364 75.449 98.498 77.216 98.498 79.396 L 98.498 88.952 C 98.498 90.16 97.379 91.138 95.999 91.138 C 94.619 91.138 93.499 90.16 93.499 88.952 L 93.499 75.953 C 93.499 73.77 91.634 72.003 89.334 72.003 C 87.033 72.003 85.17 73.77 85.17 75.953 L 85.17 86.371 C 85.17 87.576 84.05 88.557 82.67 88.557 C 81.293 88.557 80.174 87.576 80.174 86.371 L 80.174 82.596 C 80.174 80.416 78.308 78.646 76.009 78.646 C 73.707 78.646 71.844 80.413 71.844 82.596 L 71.844 91.535 C 71.844 92.74 70.725 93.721 69.345 93.721 C 67.967 93.721 66.848 92.74 66.848 91.535 L 66.848 90.497 C 66.848 88.215 64.982 86.363 62.683 86.363 C 60.381 86.363 58.519 88.215 58.519 90.497 L 58.519 102.903 C 58.519 105.185 60.381 107.04 62.683 107.04 C 64.982 107.04 66.848 105.188 66.848 102.903 L 66.848 101.865 C 66.848 100.66 67.967 99.679 69.345 99.679 C 70.725 99.679 71.844 100.66 71.844 101.865 L 71.844 116.047 C 71.844 118.227 73.707 119.997 76.009 119.997 C 78.308 119.997 80.174 118.227 80.174 116.047 L 80.174 96.701 C 80.174 95.496 81.293 94.515 82.67 94.515 C 84.05 94.515 85.17 95.496 85.17 96.701 L 85.17 106.448 C 85.17 108.631 87.033 110.398 89.334 110.398 C 91.634 110.398 93.499 108.631 93.499 106.448 L 93.499 99.282 C 93.499 98.076 94.619 97.096 95.999 97.096 C 97.376 97.096 98.498 98.076 98.498 99.282 L 98.498 106.941 C 98.498 109.122 100.364 110.891 102.663 110.891 C 104.965 110.891 106.828 109.124 106.828 106.941 L 106.828 79.396 C 106.828 77.216 104.965 75.449 102.663 75.449 Z " fill-rule="evenodd" fill="rgb(255,255,255)"/><path d=" M 115.991 86.119 C 113.692 86.119 111.826 87.886 111.826 90.069 L 111.826 105.799 C 111.826 107.979 113.689 109.749 115.991 109.749 C 118.29 109.749 120.156 107.982 120.156 105.799 L 120.156 90.069 C 120.153 87.886 118.287 86.119 115.991 86.119 Z " fill-rule="evenodd" fill="rgb(255,255,255)"/><path d=" M 129.317 94.118 C 127.018 94.118 125.152 95.885 125.152 98.068 L 125.152 101.983 C 125.152 104.163 127.018 105.933 129.317 105.933 C 131.619 105.933 133.481 104.166 133.481 101.983 L 133.481 98.068 C 133.481 95.885 131.619 94.118 129.317 94.118 Z " fill-rule="evenodd" fill="rgb(255,255,255)"/></g></g></g></svg>