<svg xmlns="http://www.w3.org/2000/svg" width="192" height="192"><path fill="#fff" d="M94.585 8.77c-17.577-.114-35.003 5.893-49.281 16.04C22.04 41.195 7.682 69.549 8.676 98.036c.352 23.778 11.141 47.075 28.878 62.883 17.541 15.996 41.813 24.308 65.478 22.193 24.882-1.911 48.638-15.07 63.304-35.287 12.625-16.94 18.611-38.561 16.668-59.584-2.15-27.565-18.593-53.363-42.349-67.393C126.864 12.618 110.665 8.2 94.584 8.77z"/><g fill="none" stroke="#728dbe" stroke-width="5.373"><path stroke-width="5.24979711" d="m82.183 96-.324-.324a19.082 19.082 0 0 1 0-26.987l.652-.653a19.077 19.077 0 0 1 26.98 0l.328.328z"/><path stroke-width="5.24979711" d="m82.183 96 13.818 13.818-13.818 13.817-13.817-13.817s-13.818-13.818 0-27.636l13.817-13.817s-13.817 13.817 0 27.635z"/><path stroke-width="5.24979711" d="m109.817 96 .324.325a19.082 19.082 0 0 1 0 26.986l-.653.653a19.077 19.077 0 0 1-26.978 0l-.329-.328z"/><path stroke-width="5.24979711" d="M109.817 96 95.999 82.182l13.818-13.817 13.817 13.817s13.818 13.818 0 27.636l-13.817 13.817s13.817-13.817 0-27.635z"/></g></svg>