<?xml version="1.0" encoding="UTF-8" standalone="no"?>
<svg
   xmlns:dc="http://purl.org/dc/elements/1.1/"
   xmlns:cc="http://creativecommons.org/ns#"
   xmlns:rdf="http://www.w3.org/1999/02/22-rdf-syntax-ns#"
   xmlns:svg="http://www.w3.org/2000/svg"
   xmlns="http://www.w3.org/2000/svg"
   xmlns:sodipodi="http://sodipodi.sourceforge.net/DTD/sodipodi-0.dtd"
   xmlns:inkscape="http://www.inkscape.org/namespaces/inkscape"
   version="1.1"
   id="Layer_1"
   x="0px"
   y="0px"
   viewBox="0 0 192 192"
   style="enable-background:new 0 0 192 192;"
   xml:space="preserve"
   sodipodi:docname="cephalon_navis.svg"
   inkscape:export-filename="/home/jphilippe/github/delta/android/contributed-vectors/cephalon_navis.png"
   inkscape:export-xdpi="96"
   inkscape:export-ydpi="96"
   inkscape:version="1.0.1 (3bc2e813f5, 2020-09-07)"><metadata
   id="metadata15"><rdf:RDF><cc:Work
       rdf:about=""><dc:format>image/svg+xml</dc:format><dc:type
         rdf:resource="http://purl.org/dc/dcmitype/StillImage" /></cc:Work></rdf:RDF></metadata><defs
   id="defs13" /><sodipodi:namedview
   pagecolor="#ffffff"
   bordercolor="#666666"
   borderopacity="1"
   objecttolerance="10"
   gridtolerance="10"
   guidetolerance="10"
   inkscape:pageopacity="0"
   inkscape:pageshadow="2"
   inkscape:window-width="1884"
   inkscape:window-height="1052"
   id="namedview11"
   showgrid="false"
   inkscape:zoom="3.3697917"
   inkscape:cx="96"
   inkscape:cy="96"
   inkscape:window-x="36"
   inkscape:window-y="0"
   inkscape:window-maximized="1"
   inkscape:current-layer="Layer_1" />
<style
   type="text/css"
   id="style2">
	.st0{fill:#FFFFFF;enable-background:new    ;}
	.st1{fill:#728DBE;}
</style>
<path
   class="st0"
   d="M30,20h132c5.5,0,10,4.5,10,10v132c0,5.5-4.5,10-10,10H30c-5.5,0-10-4.5-10-10V30C20,24.5,24.5,20,30,20z"
   id="path4" />
<g
   id="g8"
   transform="matrix(0.83415113,0,0,0.83415113,18.375175,15.546124)">
	<path
   class="st1"
   d="m 69.6,127.7 c -5.9,-5.9 -9,-12.8 -11.4,-20.3 -0.2,0 -0.2,0.1 -0.4,0.1 0.2,1 0.2,2 0.4,2.9 3,14.2 11.4,24.5 24,31.5 4.2,2.3 8.6,4 11.9,5.5 -13.9,-2.4 -28.1,-10 -35.7,-22.1 -3.6,-5.7 -5.8,-11.9 -6.3,-18.6 -1,-11.3 1.6,-21.5 8.5,-30.6 1,-1.2 2.1,-2.2 3,-3.4 0.3,-0.4 0.4,-1.1 0.6,-1.7 -0.6,0.1 -1.3,-0.1 -1.7,0.2 -6.4,3.7 -11.1,9 -14.3,15.6 -2.2,4.4 -3.6,9 -4.4,13.9 -1.3,-4.9 -0.9,-9.7 0.6,-14.5 2.6,-9.4 8.4,-16.5 16,-22.2 7.1,-5.3 15,-8.6 23.7,-9.4 5.5,-0.6 10.9,0.2 16.1,2.5 0.5,0.2 1,0.4 1.5,0.6 0.1,0 0.2,-0.1 0.5,-0.2 -2.8,-2.8 -6.3,-3.6 -9.7,-4.4 5.3,-0.4 10.3,0.6 15.4,3.2 4.9,2.4 9.1,5.9 12.9,9.8 -0.6,-2.7 -2.4,-4.7 -4.2,-6.7 0.6,0.4 1.3,0.8 2,1.3 0.6,0.5 1.2,1 1.8,1.5 0.7,0.6 1.3,1.3 2.3,0.6 1,-0.8 0.6,-1.7 0.1,-2.6 -2.8,-4.7 -6.8,-8.3 -11,-11.7 -1.3,-1 -2.6,-2 -3.8,-3 6.3,3.4 11.8,7.8 16.3,13.5 4.4,5.7 7.4,12.1 8.6,19.2 1.3,-6.5 1.2,-12.8 -2,-19.1 4.8,4 7.4,8.8 8,14.6 1.2,10.1 -2.1,19.2 -6.9,27.8 -0.2,0.3 -0.4,0.7 -0.7,0.9 -2.1,1.3 -4.2,2.5 -6.4,3.6 -0.9,-4.8 -0.6,-9.3 -0.2,-13.9 0.5,-6.9 -0.8,-13.5 -4.8,-19.3 -0.2,-0.4 -0.6,-0.7 -1.1,-1 1.9,3.7 3.6,7.4 4.2,11.6 0.6,4.2 0.1,8.2 -1.3,12.3 1,-6.8 0.1,-13.2 -3.4,-19.2 -3.4,-5.9 -8.2,-10.2 -14,-13.5 -0.1,0.1 -0.2,0.2 -0.3,0.3 0.4,0.3 0.7,0.7 1.1,1 4,3.2 7.6,6.6 10.4,10.8 2.5,3.5 4.1,7.3 4.3,11.5 0.1,2.1 -0.2,4.3 -1,6.2 -2.6,6.7 -7.2,11.6 -14.5,13.2 -3.8,0.9 -7.5,-0.2 -11.1,-1.7 -0.9,-0.4 -1.8,-0.9 -2.8,-1.3 -0.7,1.3 -1.3,2.5 -2.2,4 0.3,-3 0.6,-5.5 0.8,-8.2 3.1,2.5 6.7,4.7 11,4.9 4.4,0.2 8.1,-1.4 11.2,-4.6 -3.9,3 -8.1,3.2 -12.4,1.2 6.4,0.3 9.6,-3.9 12.2,-8.7 0.2,-0.5 0,-1.2 0,-1.7 -0.6,0.2 -1.3,0.2 -1.7,0.5 -0.5,0.3 -0.9,0.9 -1.2,1.5 -1.3,1.8 -3.2,2 -4.7,0.2 -0.9,-1.1 -1.6,-2.3 -2.5,-3.3 -2.5,-3.1 -5.3,-5.7 -8.8,-7.7 3.7,0.8 6.8,2.6 9.8,4.8 0.3,0.2 0.6,0.4 0.8,0.6 2.1,1.6 3.5,1.1 4,-1.5 0.9,-4 -0.3,-7.6 -3,-10.5 -4.6,-5.1 -10.5,-7.8 -17.4,-8 -2.6,-0.1 -5.3,-0.2 -7.8,1 7.1,-1.1 13.5,0.1 18.3,5.9 -5,-3.2 -10.3,-5 -16.3,-4 -5.9,1 -10.6,4 -14.6,8.3 6.4,-5.3 13.6,-8 22,-6.8 -1.4,0.9 -2.8,1.9 -4.2,2.8 -0.4,0.2 -1,0.2 -1.6,0.2 -5.4,-0.2 -10.1,1.6 -14.2,5.1 -0.5,0.4 -1,0.7 -1.6,1.1 0.2,0.2 0.3,0.3 0.5,0.6 0.7,-0.5 1.4,-1.1 2.1,-1.5 1.1,-0.6 2.4,-1.8 3.4,-0.7 0.9,1 -0.1,2.3 -0.8,3.3 -3.6,5 -5.4,10.6 -5.3,16.6 0.2,9.7 3.9,17.9 11,24.4 5.9,5.4 13,8.3 20.7,9.3 19,2.4 32.9,-5.8 43.5,-20.9 0.1,-0.2 0.2,-0.3 0.4,-0.3 -7.6,12.1 -18.4,20.3 -32.6,22.1 -21.1,2.8 -35.8,-6.8 -45.4,-25.5 0.2,1 0.3,2.1 0.6,3 2.8,9.2 8.8,15.7 16.9,20.3 5.2,2.9 10.9,4.4 16.9,4.9 19,1.5 33.3,-6.6 44.3,-21.5 0.1,-0.2 0.2,-0.3 0.6,-0.3 -0.7,1 -1.3,2.1 -2.1,3.1 -0.7,1 -1.5,2 -2.3,2.9 -7.8,9.3 -17.7,15 -29.8,16.8 -11,1.6 -21.7,0 -31.5,-5.6 -4,-2.3 -7.4,-5.1 -9.6,-9.3 -0.2,-0.4 -0.9,-0.6 -1.3,-1 -0.1,0.6 -0.5,1.3 -0.2,1.7 1.4,1.6 2.4,3.3 3.3,5.2 z"
   id="path6" />
</g>
</svg>
