<?xml version="1.0" encoding="utf-8"?>
<!-- Generator: Adobe Illustrator 16.0.0, SVG Export Plug-In . SVG Version: 6.00 Build 0)  -->
<!DOCTYPE svg PUBLIC "-//W3C//DTD SVG 1.1 Tiny//EN" "http://www.w3.org/Graphics/SVG/1.1/DTD/svg11-tiny.dtd">
<svg version="1.1" baseProfile="tiny" id="Layer_1" xmlns="http://www.w3.org/2000/svg" xmlns:xlink="http://www.w3.org/1999/xlink"
	 x="0px" y="0px" width="192px" height="192px" viewBox="0 0 192 192" xml:space="preserve">
<g>
	<circle fill="#90DC9F" cx="96.621" cy="96.379" r="90.973"/>
	<g>
		<g>
			<path fill="#FFFFFF" d="M97.33,156.302c-16.028,0-31.095-6.242-42.428-17.574c-11.333-11.333-17.574-26.4-17.574-42.428
				s6.242-31.095,17.574-42.428c11.333-11.333,26.4-17.574,42.428-17.574c11.687,0,23.017,3.364,32.764,9.729
				c9.491,6.196,17.01,14.898,21.747,25.167c1.649,3.577,0.088,7.815-3.489,9.465c-3.578,1.65-7.816,0.087-9.466-3.49
				c-7.454-16.161-23.766-26.604-41.556-26.604c-25.219,0-45.736,20.517-45.736,45.736c0,25.219,20.517,45.736,45.736,45.736
				c17.713,0,33.996-10.381,41.48-26.443c1.665-3.57,5.908-5.117,9.479-3.452c3.57,1.664,5.117,5.907,3.452,9.479
				c-4.759,10.212-12.278,18.863-21.745,25.018C120.271,152.959,108.976,156.302,97.33,156.302z"/>
		</g>
		<path fill="#FFFFFF" d="M119.884,92.628h-19.407V73.222c0-1.969-1.597-3.566-3.566-3.566c-1.969,0-3.566,1.597-3.566,3.566v19.407
			H73.938c-1.97,0-3.566,1.596-3.566,3.566c0,1.969,1.597,3.566,3.566,3.566h19.406v19.406c0,1.971,1.597,3.566,3.566,3.566
			c1.97,0,3.566-1.596,3.566-3.566V99.761h19.407c1.969,0,3.566-1.597,3.566-3.566C123.45,94.225,121.853,92.628,119.884,92.628z"/>
	</g>
</g>
</svg>
