<?xml version="1.0" encoding="UTF-8" standalone="no"?>
<svg
   version="1.1"
   id="Слой_1"
   x="0px"
   y="0px"
   viewBox="0 0 192 192"
   enable-background="new 0 0 192 192"
   xml:space="preserve"
   sodipodi:docname="changes.svg"
   inkscape:version="1.2 (dc2aedaf03, 2022-05-15)"
   xmlns:inkscape="http://www.inkscape.org/namespaces/inkscape"
   xmlns:sodipodi="http://sodipodi.sourceforge.net/DTD/sodipodi-0.dtd"
   xmlns="http://www.w3.org/2000/svg"
   xmlns:svg="http://www.w3.org/2000/svg"
   xmlns:rdf="http://www.w3.org/1999/02/22-rdf-syntax-ns#"
   xmlns:cc="http://creativecommons.org/ns#"
   xmlns:dc="http://purl.org/dc/elements/1.1/"><metadata
   id="metadata25"><rdf:RDF><cc:Work
       rdf:about=""><dc:format>image/svg+xml</dc:format><dc:type
         rdf:resource="http://purl.org/dc/dcmitype/StillImage" /></cc:Work></rdf:RDF></metadata><defs
   id="defs23" /><sodipodi:namedview
   pagecolor="#ffffff"
   bordercolor="#666666"
   borderopacity="1"
   objecttolerance="10"
   gridtolerance="10"
   guidetolerance="10"
   inkscape:pageopacity="0"
   inkscape:pageshadow="2"
   inkscape:window-width="1680"
   inkscape:window-height="1022"
   id="namedview21"
   showgrid="false"
   inkscape:zoom="0.84244792"
   inkscape:cx="-164.40185"
   inkscape:cy="74.782071"
   inkscape:window-x="1920"
   inkscape:window-y="0"
   inkscape:window-maximized="1"
   inkscape:current-layer="Слой_1"
   inkscape:showpageshadow="0"
   inkscape:pagecheckerboard="0"
   inkscape:deskcolor="#d1d1d1" />
<path
   id="path5108"
   style="opacity:1;fill:#83868c;fill-opacity:1;fill-rule:evenodd;stroke:none;stroke-width:1.00679;stroke-opacity:1"
   d="M 42.078125 8 C 36.494502 8 32 12.484984 32 18.056641 L 32 173.94336 C 32 179.51501 36.494502 184 42.078125 184 L 111.74414 184 L 160 135.74414 L 160 18.056641 C 160 12.484984 155.5055 8 149.92188 8 L 42.078125 8 z " /><line
   fill="#87BEFF"
   x1="0.2"
   y1="192.3"
   x2="0.2"
   y2="0.3"
   id="line2" />

<rect
   x="64"
   y="36.642609"
   fill="#ffffff"
   width="63.900002"
   height="8.1999998"
   id="rect8"
   rx="4.0999999"
   ry="4.0999999" /><rect
   x="64"
   y="77.894371"
   fill="#ffffff"
   width="63.900002"
   height="8.1999998"
   id="rect10"
   rx="4.0999999"
   ry="4.0999999" /><rect
   x="64.099998"
   y="57.268494"
   fill="#ffffff"
   width="63.900002"
   height="8.1999998"
   id="rect12"
   rx="4.0999999"
   ry="4.0999999" /><rect
   x="64"
   y="98.520256"
   fill="#ffffff"
   width="48"
   height="8.1999998"
   id="rect14"
   rx="4.0999999"
   ry="4.0999999" />
<path
   id="rect5087"
   style="opacity:1;fill:#73ada4;fill-opacity:1;fill-rule:evenodd;stroke:none;stroke-width:1.00679;stroke-opacity:1"
   d="M 111.74414,184 160,135.74414 h -38.17774 c -5.58361,0 -10.07812,4.48499 -10.07812,10.05664 z" /><line
   fill="#87beff"
   x1="-223.64656"
   y1="184.89253"
   x2="-223.64656"
   y2="-7.1074781"
   id="line5111" /><g
   id="g5127"
   transform="translate(-223.84657,-7.4074759)">
	<path
   fill="#88bfff"
   d="M 147.2,7.9 C 113.1,7.8 79,7.8 44.9,7.9 36,8 32.1,12.4 32.1,21.3 c 0,49.4 0.2,98.8 -0.2,148.2 -0.1,11.5 5.6,15.4 15.4,15.3 19.7,-0.2 39.4,0 59.2,-0.1 1.9,0 3.9,0.7 5.6,-0.9 0,-11.2 0,-22.4 0,-33.5 0,-9.6 4.7,-14.2 14.5,-14.3 10.8,-0.1 21.6,-0.1 32.5,-0.1 0,0 0,0 0,0 0.3,0.1 0.6,0.1 0.9,0.2 0,-0.5 0.1,-0.9 0.1,-1.4 0,-37.8 0.1,-75.7 0.1,-113.5 C 160.1,12.4 156.1,8 147.2,7.9 Z M 64.1,40.1 c 21.3,0 42.6,0 63.9,0 0,2.7 0,5.5 0.1,8.2 -21.3,0 -42.7,0 -64,0 0,-2.8 0,-5.5 0,-8.2 z m 0,56.2 c 0,-2.7 0,-5.5 0.1,-8.2 16,0 31.9,0 47.9,0 0,2.7 0,5.4 0.1,8.2 -16.1,0 -32.1,0 -48.1,0 z M 120,80.4 c -15.9,0 -31.9,0 -47.8,0 -8.5,0 -8.5,0 -8,-8.4 21.3,0 42.6,0 63.9,0 0.4,8.4 0.4,8.4 -8.1,8.4 z m 7.9,-15.8 c 0,0 0,0 0,0 -21.2,0 -42.4,0 -63.6,0 -0.7,-2.8 -0.4,-5.7 -0.1,-8.6 21.3,0 42.6,0 63.9,0 0.2,2.8 0.5,5.7 -0.2,8.6 z"
   id="path5115" />
	<rect
   x="64"
   y="40"
   fill="#ffffff"
   width="63.900002"
   height="8.1999998"
   id="rect5117" />
	<rect
   x="64"
   y="72.099998"
   fill="#ffffff"
   width="63.900002"
   height="8.1999998"
   id="rect5119" />
	<rect
   x="64.099998"
   y="56.299999"
   fill="#ffffff"
   width="63.900002"
   height="8.1999998"
   id="rect5121" />
	<rect
   x="64"
   y="87.599998"
   fill="#ffffff"
   width="48"
   height="8.1999998"
   id="rect5123" />
	<path
   fill="#65e1d4"
   d="m 112.1,183.8 c 0,-11.2 0,-22.4 0,-33.5 0,-9.6 4.7,-14.2 14.5,-14.3 10.8,-0.1 21.6,-0.1 32.5,-0.1 0.3,0.1 0.6,0 0.9,0 -12.8,14.1 -26.8,27.2 -40.1,40.8 -2.6,2.5 -4.6,5.4 -7.8,7.1 z"
   id="path5125" />
</g></svg>
