<?xml version="1.0" encoding="UTF-8" standalone="no"?>
<svg
   xmlns:dc="http://purl.org/dc/elements/1.1/"
   xmlns:cc="http://creativecommons.org/ns#"
   xmlns:rdf="http://www.w3.org/1999/02/22-rdf-syntax-ns#"
   xmlns:svg="http://www.w3.org/2000/svg"
   xmlns="http://www.w3.org/2000/svg"
   xmlns:sodipodi="http://sodipodi.sourceforge.net/DTD/sodipodi-0.dtd"
   xmlns:inkscape="http://www.inkscape.org/namespaces/inkscape"
   sodipodi:docname="chick_fil_a.svg"
   inkscape:version="1.0.1 (3bc2e813f5, 2020-09-07)"
   version="1.1"
   id="svg2"
   viewBox="0 0 192 192"
   height="192"
   width="192"
   inkscape:export-filename="/home/jphilippe/inkscape/icônes/delta-github/png/chick_fil_a.png"
   inkscape:export-xdpi="96"
   inkscape:export-ydpi="96">
  <sodipodi:namedview
     inkscape:document-rotation="0"
     inkscape:window-maximized="1"
     inkscape:window-y="30"
     inkscape:window-x="1920"
     inkscape:window-height="1022"
     inkscape:window-width="1680"
     units="px"
     showgrid="false"
     inkscape:current-layer="layer1"
     inkscape:document-units="px"
     inkscape:cy="134.05074"
     inkscape:cx="-3.0749273"
     inkscape:zoom="1.4142136"
     inkscape:pageshadow="2"
     inkscape:pageopacity="0.0"
     borderopacity="1.0"
     bordercolor="#666666"
     pagecolor="#ffffff"
     id="base"
     inkscape:snap-bbox="false"
     inkscape:object-paths="true"
     inkscape:snap-nodes="true"
     showguides="true"
     inkscape:guide-bbox="true"
     inkscape:snap-object-midpoints="true"
     inkscape:snap-center="true"
     inkscape:snap-global="false"
     inkscape:snap-intersection-paths="true"
     inkscape:snap-smooth-nodes="true"
     inkscape:snap-midpoints="true" />
  <defs
     id="defs4">
    <inkscape:path-effect
       effect="fillet_chamfer"
       id="path-effect1659"
       is_visible="true"
       lpeversion="1"
       satellites_param="F,0,1,1,0,2,0,1 @ F,0,0,1,0,0,0,1 @ F,0,0,1,0,0,0,1 @ F,0,0,1,0,0,0,1 @ F,0,0,1,0,0,0,1 @ F,0,0,1,0,0,0,1 @ F,0,0,1,0,0,0,1 @ F,0,0,1,0,0,0,1 @ F,0,0,1,0,0,0,1 @ F,0,0,1,0,0,0,1 @ F,0,0,1,0,0,0,1 @ F,0,0,1,0,0,0,1 @ F,0,0,1,0,0,0,1 @ F,0,0,1,0,0,0,1 @ F,0,0,1,0,0,0,1 @ F,0,0,1,0,0,0,1 @ F,0,1,1,0,2,0,1"
       unit="px"
       method="auto"
       mode="F"
       radius="2"
       chamfer_steps="1"
       flexible="false"
       use_knot_distance="true"
       apply_no_radius="true"
       apply_with_radius="true"
       only_selected="true"
       hide_knots="false" />
  </defs>
  <metadata
     id="metadata7">
    <rdf:RDF>
      <cc:Work
         rdf:about="">
        <dc:format>image/svg+xml</dc:format>
        <dc:type
           rdf:resource="http://purl.org/dc/dcmitype/StillImage" />
        <dc:title />
      </cc:Work>
    </rdf:RDF>
  </metadata>
  <g
     transform="translate(0,-860.36216)"
     id="layer1"
     inkscape:groupmode="layer"
     inkscape:label="Calque 1">
    <rect
       style="fill:#fe837e;fill-opacity:1;fill-rule:evenodd;stroke:none;stroke-opacity:1"
       width="153"
       height="153"
       x="19.499996"
       y="879.86218"
       rx="10"
       id="rect1069" />
    <path
       class="st1"
       d="m 78.85613,938.43903 c 1.91507,1.70804 4.60653,2.22563 5.69347,0.98341 1.08694,-1.29397 0.10352,-3.93367 -1.81156,-5.58995 -1.91508,-1.70804 -3.98543,-1.70804 -5.07237,-0.41407 -1.08693,1.24221 -0.72462,3.31256 1.19046,5.02061 z m 11.90453,-2.07036 c 2.07036,-0.98342 2.32915,-4.96885 0.77639,-8.43669 -1.55277,-3.41609 -4.14071,-4.71006 -6.21107,-3.72664 -2.07035,0.98342 -2.79498,3.88191 -1.29397,7.298 1.50101,3.41608 4.60654,5.84875 6.72865,4.86533 z m 6.93569,-0.31055 c 2.74322,0.62111 5.90052,-3.15729 6.83218,-7.66031 0.98341,-4.50302 -0.67287,-7.81559 -3.46785,-8.4367 -2.74322,-0.6211 -5.58996,1.70804 -6.52162,6.21107 -0.93166,4.50302 0.41407,9.26483 3.15729,9.88594 z m 8.54022,22.9292 c 5.74523,-4.089 8.54021,-2.9503 8.54021,-4.4513 0,-1.6563 -4.3995,-4.7618 -7.50503,-5.07236 0.0517,0.87991 0.0517,1.81156 0,2.74322 -0.20704,2.27744 -0.51759,4.55474 -1.03518,6.78044 z m -1.60453,-19.20256 c 2.12212,2.89849 8.12614,1.96683 12.73268,-1.55277 4.60653,-3.5196 5.74523,-8.07438 3.62311,-10.97288 -2.1221,-2.89849 -6.67688,-3.10553 -11.28342,0.41407 -4.55478,3.57136 -7.19448,9.21308 -5.07237,12.11158 z"
       id="path1059"
       style="fill:#fefefe;fill-opacity:1;stroke-width:1" />
    <path
       class="st1"
       d="m 86.67171,988.80042 c -8.07438,-0.6729 -12.73268,-7.7638 -12.16333,-17.4428 0.77638,-13.6125 11.23167,-30.0201 21.22113,-28.98492 3.51961,0.36231 5.90052,3.5196 5.53821,10.40352 -0.41407,7.9709 -6.05579,19.5649 -11.9563,19.2026 -2.74322,-0.1553 -3.57137,-3.0021 -3.36433,-5.5382 0.46583,-5.4865 3.15729,-6.9875 3.36433,-9.2131 0.10351,-1.294 -1.19046,-1.8633 -2.17388,-1.5528 -1.65628,0.5176 -4.91709,4.7101 -5.33116,10.6623 -0.46583,7.2463 4.19247,9.5237 6.93569,9.6789 8.1779,0.4659 16.20053,-11.2316 16.87339,-23.602 0.46583,-7.97087 -2.95025,-13.14675 -9.36836,-13.87138 -12.47388,-1.34573 -25.56888,15.42418 -26.24174,32.97038 -0.41407,10.5071 5.02061,20.4448 16.56284,21.3247 4.29598,0.2588 16.61459,-1.294 26.50054,-16.2005 0.67286,-1.0352 0.36231,-2.4327 -0.67287,-3.0538 -1.03517,-0.6211 -2.38091,-0.3106 -3.00201,0.7246 -7.60855,12.4739 -18.42616,14.8548 -22.72215,14.4925 z"
       id="path1061"
       style="fill:#fefefe;fill-opacity:1;stroke-width:1" />
    <path
       class="st1"
       d="m 98.83505,949.82598 c 0,-0.56935 0,-1.81156 -1.39749,-1.81156 -1.70805,0.0518 -3.51961,3.15729 -2.79498,4.8653 1.34573,2.1739 4.14071,-0.72459 4.19247,-3.05374 z"
       id="path1063"
       style="fill:#fefefe;fill-opacity:1;stroke-width:1" />
  </g>
  <style
     type="text/css"
     id="style853">
	.st0{fill:#FFFFFF;}
</style>
</svg>
