<?xml version="1.0" encoding="utf-8"?>
<!-- Generator: Adobe Illustrator 23.0.5, SVG Export Plug-In . SVG Version: 6.00 Build 0)  -->
<svg version="1.1" id="图层_1" xmlns="http://www.w3.org/2000/svg" xmlns:xlink="http://www.w3.org/1999/xlink" x="0px" y="0px"
	 viewBox="0 0 192 192" style="enable-background:new 0 0 192 192;" xml:space="preserve">
<style type="text/css">
	.st0{display:none;opacity:0.63;fill:none;stroke:#B1B5BD;enable-background:new    ;}
	.st1{fill:#73ADA4;}
	.st2{fill:#FFFFFF;}
</style>
<circle class="st0" cx="96" cy="96" r="88"/>
<circle class="st1" cx="96" cy="96" r="88"/>
<g>
	<path class="st2" d="M47.8,98.3c0-1.6,0-3.1,0-4.7c0.2-1.6,0.2-3.3,0.5-4.9c0.5-2.5,1.1-5,1.8-7.4c0.5-1.8,1.3-3.6,2.1-5.4
		c1-2,2.1-4,3.2-5.9c2-3.3,4.5-6.3,7.3-9c2-1.9,4.1-3.6,6.4-5.1c2.8-1.9,5.8-3.6,9-4.7c2.1-0.8,4.2-1.4,6.3-2.1
		c0.9-0.3,1.2-0.1,1.2,0.9c0,8.9,0,17.8,0,26.7c0,1,0.1,1.9,1.1,2.4c0.5,0.2,1.1,0.4,1.6,0.4c1.6,0.1,3.2,0,4.8,0.1
		c1.3,0,2.2,1,2.2,2.4c0,4.5,0,9.1,0,13.6c0,0.2-0.1,0.5-0.2,0.7c-0.3-0.1-0.6-0.1-0.7-0.3c-0.3-0.4-0.7-0.6-1.2-0.5
		c-3.5,0-7-0.1-10.5,0.1c-2.1,0.1-3.4-1.3-3.4-3.2c0-1.6,0-3.1,0-4.7c0-8,0-16.1,0-24.1c0-0.5,0-0.9,0.1-1.4c0-0.7-0.2-0.9-0.8-0.6
		c-1.1,0.6-2.2,1.2-3.2,1.8c-3.4,2.1-6.3,4.7-8.9,7.8c-1.9,2.2-3.5,4.6-4.8,7.2c-1.3,2.6-2.3,5.3-3,8c-0.9,3.5-1.3,7.1-1.2,10.8
		c0.1,3.9,0.9,7.7,2.1,11.3c1.4,4,3.4,7.7,6,11.1c1.7,2.1,3.6,4.1,5.6,5.8c2.2,1.9,4.7,3.5,7.3,4.8c3.3,1.7,6.8,2.7,10.4,3.5
		c0.4,0.1,0.9,0.1,1.3,0.2c0.4,0.1,0.6-0.2,0.6-0.6c0-5.9,0-11.8-0.1-17.7c0-0.7,0-1.5,0-2.2c0-0.5-0.2-0.6-0.6-0.6
		c-2.7,0-5.5,0-8.2,0c-1.5,0-2.7-1.2-2.7-2.8c0-2,0-3.9,0-5.9c0-2.6,0-5.1,0-7.7c0-0.2,0-0.3,0.1-0.6c0.3,0.1,0.5,0.2,0.7,0.3
		c0.5,0.4,1,0.6,1.6,0.6c3.1,0,6.3,0,9.4,0c0.6,0,1.3,0,1.9,0c1.3,0.2,2.2,1.4,2.2,2.7c0,3.9,0,7.9,0,11.8c0,0.5,0.1,0.8,0.7,0.8
		c0.5,0,0.7-0.3,0.7-0.8c0-4,0-7.9,0-11.9c0-1.2,0.9-2.4,2.1-2.6c0.5-0.1,1-0.1,1.5-0.1c3.4,0,6.8,0,10.2,0c0.4,0,0.9-0.3,1.3-0.5
		c0.2-0.1,0.4-0.2,0.8-0.4c0,0.8,0,1.3,0,1.9c0,4,0,8,0,12.1c0,2-1.1,3-3.1,3c-2.6,0-5.2,0-7.8,0c-0.4,0-0.6,0.2-0.6,0.6
		c0,0.9,0,1.8,0,2.8c0,5.1,0,10.1,0,15.2c0,0.7,0,1.4,0,2.1c0,0.4,0.2,0.6,0.6,0.5c2.6-0.4,5.2-1,7.7-2c2-0.8,4-1.7,5.8-2.7
		c1.6-0.9,3-2,4.5-3c2.2-1.6,4.1-3.5,5.8-5.6c1.2-1.4,2.3-2.9,3.2-4.4c1.1-1.9,2.2-3.8,3-5.8c0.8-1.8,1.3-3.8,1.8-5.7
		c0.7-3,1.1-6.1,1-9.3c-0.1-4.3-0.9-8.5-2.3-12.6c-1.2-3.3-2.8-6.4-4.9-9.2c-1.9-2.7-4.1-5.1-6.6-7.2c-2-1.7-4.1-3.1-6.4-4.3
		c-0.3-0.2-0.7-0.4-1-0.5c-0.5-0.2-0.7-0.1-0.7,0.5c0,1,0,1.9,0,2.9c0,8.6,0,17.2,0,25.8c0,0.8,0,1.6-0.1,2.5
		c-0.2,1.3-1.3,2.3-2.7,2.3c-3.5,0-7.1,0-10.6,0c-0.7,0-1.4,0-1.8,0.7c-0.1,0.2-0.4,0.2-0.6,0.3c-0.1-0.2-0.2-0.5-0.2-0.7
		c0-4.2,0-8.5,0.1-12.7c0-0.3,0-0.7,0-1c0-1.3,0.9-2.3,2.2-2.3c1.6,0,3.2,0,4.9-0.1c0.6,0,1.1-0.2,1.6-0.4c0.7-0.3,1-1,1-1.8
		c0-0.2,0-0.5,0-0.7c0-8.4,0-16.8,0-25.3c0-0.5,0-1.1,0-1.6c0-0.7,0.3-0.9,1-0.7c2.5,0.6,4.9,1.5,7.3,2.4c2.9,1.2,5.6,2.7,8.3,4.4
		c2.9,2,5.6,4.3,8.1,6.8c2.1,2.2,3.9,4.5,5.5,7c2,3.1,3.6,6.3,4.9,9.7c0.9,2.4,1.5,4.7,2,7.2c0.8,3.9,1,7.8,0.8,11.7
		c-0.2,3.9-0.8,7.7-2,11.4c-1.2,3.8-2.8,7.4-4.8,10.9c-2.3,3.7-5,7.1-8.1,10.1c-2.2,2.1-4.7,4-7.3,5.7c-2.9,1.9-6,3.4-9.3,4.6
		c-2.9,1.1-6,1.9-9.1,2.4c-4.1,0.6-8.2,0.7-12.3,0.4c-3.8-0.3-7.5-1.2-11-2.4c-2.2-0.8-4.3-1.8-6.3-2.8c-3.6-1.8-6.8-4-9.7-6.7
		c-2.9-2.6-5.5-5.4-7.7-8.6c-2.3-3.4-4.2-7-5.7-10.9c-1.2-3.1-2-6.3-2.5-9.5C48.1,101.5,48,99.9,47.8,98.3z"/>
	<path class="st2" d="M94.1,47.8c1.4,0,2.7,0,4.1,0c0.6,0,1.1,0.1,1.7,0.1c1,0,1.2,0.3,1.2,1.3c0,3.1,0,6.1,0,9.2
		c0,5.6,0,11.1,0,16.7c0,0.3,0,0.5,0,0.8c0.1,1.4-0.6,2.2-2.1,2.2c-2,0-4.1,0-6.1,0c-1.3,0-2-0.7-2-2.1c0-8.5,0-16.9,0-25.4
		c0-0.6,0-1.2,0-1.8c0-0.7,0.3-0.9,1-1C92.6,47.9,93.3,47.8,94.1,47.8z"/>
</g>
</svg>
