<?xml version="1.0" encoding="UTF-8" standalone="no"?>
<svg
   version="1.1"
   id="main"
   x="0px"
   y="0px"
   viewBox="0 0 192 192"
   style="enable-background:new 0 0 192 192;"
   xml:space="preserve"
   sodipodi:docname="china_bank.svg"
   inkscape:version="1.1.1 (3bf5ae0d25, 2021-09-20)"
   inkscape:export-filename="/home/jphilippe/github/android/contributed-vectors/china_bank.png"
   inkscape:export-xdpi="96"
   inkscape:export-ydpi="96"
   xmlns:inkscape="http://www.inkscape.org/namespaces/inkscape"
   xmlns:sodipodi="http://sodipodi.sourceforge.net/DTD/sodipodi-0.dtd"
   xmlns="http://www.w3.org/2000/svg"
   xmlns:svg="http://www.w3.org/2000/svg"><defs
   id="defs13" /><sodipodi:namedview
   id="namedview11"
   pagecolor="#505050"
   bordercolor="#eeeeee"
   borderopacity="1"
   inkscape:pageshadow="0"
   inkscape:pageopacity="0"
   inkscape:pagecheckerboard="0"
   showgrid="false"
   inkscape:zoom="0.86848958"
   inkscape:cx="49.511244"
   inkscape:cy="122.62669"
   inkscape:window-width="1884"
   inkscape:window-height="1055"
   inkscape:window-x="36"
   inkscape:window-y="0"
   inkscape:window-maximized="1"
   inkscape:current-layer="main" />
<style
   type="text/css"
   id="style2">
	.st0{fill:#FFFFFF;}
	.st1{fill:#DC505E;}
</style>
<circle
   class="st0"
   cx="96"
   cy="96"
   r="88"
   id="circle4" />
<g
   id="g8"
   style="fill:#ff837d;fill-opacity:1">
	<path
   class="st1"
   d="M139.2,95.9c0,24.7-19.6,42.5-41.7,43.3c-24.9,0.9-44.8-19.6-44.8-43.1c0-23.2,18.9-43.2,42.9-43.3   C120.2,52.7,139.3,72.4,139.2,95.9z M91,69.9L91,69.9c0-2.5,0-5,0-7.5c0-0.4,0-0.7-0.5-0.6c-0.7,0.1-1.4,0.2-2,0.4   c-1.6,0.5-3.2,0.9-4.7,1.6c-3.3,1.4-6.5,3-9.3,5.3S69.2,74,67.2,77c-3,4.5-4.8,9.4-5.5,14.8c-0.4,3.3-0.3,6.5,0.2,9.8   c0.4,2.5,1.1,4.9,2.1,7.2c1.5,3.6,3.5,6.9,6.1,9.9c2,2.3,4.2,4.2,6.7,5.9c4.1,2.9,8.6,4.8,13.5,5.5c0.8,0.1,0.8,0.1,0.8-0.7   c0-4.9,0-9.9,0-14.8c0-0.5-0.2-0.6-0.6-0.6c-0.9,0-1.9,0-2.8,0c-2.4-0.1-4.6-0.7-6.7-1.9c-2.3-1.4-4.1-3.3-4.9-5.9   c-0.3-1-0.7-2.1-0.7-3.1c-0.1-4.3,0-8.6,0-12.9c0-2.5,0.7-4.7,2.1-6.8c1.1-1.7,2.6-2.8,4.4-3.7c2.7-1.4,5.5-1.6,8.4-1.5   c0.8,0,0.9,0,0.9-0.9C91,74.9,91,72.4,91,69.9z M116.8,96.1L116.8,96.1c0,1.9-0.1,3.9,0,5.8c0.1,1.7-0.3,3.3-0.9,4.8   c-1.2,2.9-3.3,4.8-6.1,6c-2.2,1-4.5,1.3-6.9,1.2c-1.4,0-1.4,0-1.4,1.4c0,4.7,0,9.3,0,14c0,0.6,0.2,0.8,0.8,0.7   c0.9-0.2,1.7-0.5,2.6-0.6c4-0.9,7.6-2.6,10.9-5.1c3.2-2.4,6.2-5,8.5-8.3c1.9-2.6,3.4-5.4,4.4-8.4c1.3-3.5,2-7.1,2-10.8   c0-2-0.2-4.1-0.4-6.1c-0.2-2.5-0.9-4.8-1.8-7.1c-1.3-3.5-3.2-6.8-5.6-9.7c-1.5-1.7-3.2-3.4-5-4.9c-1.7-1.4-3.6-2.5-5.5-3.6   c-1.7-0.9-3.5-1.7-5.4-2.4c-1.6-0.6-3.3-0.9-5-1.3c-0.5-0.1-0.6,0.1-0.6,0.5c0,0.8,0,1.7,0,2.5c0,4.2,0,8.4,0,12.7   c0,0.5,0.2,0.7,0.7,0.6c0.8,0,1.5,0,2.3,0c2.5,0.1,4.8,0.7,7,2c1.4,0.9,2.6,1.9,3.5,3.3c1.1,1.7,1.9,3.5,1.9,5.6   C116.8,91.4,116.8,93.7,116.8,96.1z M84,86.8C83.9,87,83.9,87,83.9,87c0,5.9,0,11.9,0,17.8c0,0.5,0.2,0.6,0.7,0.6   c7.6,0,15.2,0,22.8,0c0.6,0,0.8-0.2,0.8-0.7c0-5.4,0-10.7,0-16.1c0-0.6,0-1.1,0-1.8C100,86.8,92,86.8,84,86.8z"
   id="path6"
   style="fill:#ff837d;fill-opacity:1" />
</g>
</svg>
