<svg xmlns="http://www.w3.org/2000/svg" xml:space="preserve" viewBox="0 0 192 192"><path fill="#6FDD98" d="M153.9 0h-113c-7.2 0-13.1 5.9-13.1 13.1v165.8c0 7.2 5.9 13.1 13.1 13.1h113c7.2 0 13.1-5.9 13.1-13.1V13.1C166.9 5.9 161.1 0 153.9 0zM57.5 178.9H40.2v-18.3h17.3v18.3zm0-36H40.2v-18.3h17.3v18.3zm0-37.7H40.2V86.8h17.3v18.4zm0-36.2H40.2V50.6h17.3V69zm0-37.7H40.2V12.9h17.3v18.4zm96.1 147.6h-17.3v-18.3h17.3v18.3zm0-36h-17.3v-18.3h17.3v18.3zm0-37.2h-17.3V87.3h17.3v18.4zm0-36.7h-17.3V50.6h17.3V69zm0-37.7h-17.3V12.9h17.3v18.4z"/></svg>