<svg xmlns="http://www.w3.org/2000/svg" viewBox="0 0 192 192"><title>Cisco Webex Teams</title><path d="M138.86,52.84a61,61,0,0,0-16.78-12A60.84,60.84,0,0,1,40.7,122a60.65,60.65,0,0,0,11.5,16.26l.52.52a60.84,60.84,0,0,0,86.09-85.95Z" fill="#98dc9a"/><path d="M53,66.64a13.49,13.49,0,0,1-9.57-23A73.83,73.83,0,0,1,96,21.91a13.5,13.5,0,0,1,.87,27H96A47,47,0,0,0,62.59,62.69,13.43,13.43,0,0,1,53,66.64Z" fill="#bd9aff"/><path d="M98.31,22.12a13.49,13.49,0,0,1-.66,26.67A47.36,47.36,0,0,1,143.32,96a13.41,13.41,0,1,1,26.81,0A74.08,74.08,0,0,0,98.31,22.12Z" fill="#f8c18c"/><path d="M156.69,82.66A13.35,13.35,0,0,0,143.32,96h0a47.36,47.36,0,0,1-45.67,47.28A13.49,13.49,0,0,1,98.31,170,74.09,74.09,0,0,0,170.06,96a13.36,13.36,0,0,0-13.37-13.34Z" fill="#728dbe"/><path d="M61.39,63.74A13.51,13.51,0,0,1,41.81,45.62a73.61,73.61,0,0,0,0,100.76,13.51,13.51,0,0,1,19.58-18.12A47,47,0,0,1,61.39,63.74Z" fill="#ff837d"/><path d="M96,170.09a73.83,73.83,0,0,1-52.51-21.7,13.51,13.51,0,0,1,19.13-19.08h0A47,47,0,0,0,96,143.1a13.5,13.5,0,0,1,.87,27Z" fill="#9abeff"/></svg>