<svg xmlns="http://www.w3.org/2000/svg" id="svg2" width="192" height="192" version="1.1"><defs id="defs4"><style id="style933">.cls-1{fill:#008555}</style></defs><g id="layer1" transform="translate(0 -860.362)"><path id="path987" d="M168.501 1028.724a12.282 12.282 0 0 1-17.178 0l-28.343-28.343v19.668a11.252 11.252 0 0 1-11.939 12.153 12.11 12.11 0 0 1-12.325-12.153v-24.478a12.11 12.11 0 0 1 7.687-11.424 30.62 30.62 0 0 0 17.521-17.521 12.153 12.153 0 0 1 11.424-7.687h24.478a12.153 12.153 0 0 1 12.154 12.325 11.337 11.337 0 0 1-12.154 11.982h-19.668l28.343 28.343a12.325 12.325 0 0 1 0 17.178" class="cls-1" style="fill:#70a270;fill-opacity:1;stroke-width:4.29447"/><path id="path989" d="M168.501 883.914a12.325 12.325 0 0 1 0 17.178l-28.343 28.344h19.668a11.294 11.294 0 0 1 12.154 11.938 12.11 12.11 0 0 1-12.154 12.326h-24.478a12.11 12.11 0 0 1-11.424-7.688 30.362 30.362 0 0 0-17.521-17.521 12.153 12.153 0 0 1-7.687-11.423v-24.479a12.11 12.11 0 0 1 12.325-12.153 11.252 11.252 0 0 1 11.939 12.153v19.669l28.343-28.344a12.282 12.282 0 0 1 17.178 0" class="cls-1" style="fill:#70a270;fill-opacity:1;stroke-width:4.29447"/><path id="path991" d="M23.692 883.914a12.282 12.282 0 0 1 17.177 0l28.344 28.344-.215-19.669a11.294 11.294 0 0 1 11.982-12.153 12.153 12.153 0 0 1 12.325 12.153v24.479a12.153 12.153 0 0 1-7.687 11.423 30.362 30.362 0 0 0-17.522 17.521 12.196 12.196 0 0 1-11.423 7.688H32.152a12.11 12.11 0 0 1-12.11-12.326 11.294 11.294 0 0 1 12.11-11.981h19.711L23.52 901.049a12.24 12.24 0 0 1 0-17.177" class="cls-1" style="fill:#70a270;fill-opacity:1;stroke-width:4.29447"/><path id="path993" d="M23.692 1028.724a12.24 12.24 0 0 1 0-17.178l28.343-28.343H32.323A11.337 11.337 0 0 1 20.17 971.22a12.153 12.153 0 0 1 12.153-12.325h24.522a12.196 12.196 0 0 1 11.423 7.687 30.362 30.362 0 0 0 17.522 17.521 12.153 12.153 0 0 1 7.687 11.424v24.607a12.153 12.153 0 0 1-12.325 12.153 11.294 11.294 0 0 1-11.982-12.153v-19.669l-28.3 28.344a12.282 12.282 0 0 1-17.178 0" class="cls-1" style="fill:#70a270;fill-opacity:1;stroke-width:4.29447"/></g></svg>