<svg xmlns="http://www.w3.org/2000/svg" width="192" height="192"><circle cx="96" cy="96" r="88" style="fill:#56595b"/><path d="M94.486 51.633c-15.155-.04-27.553 8.547-28.332 16.828-.16 1.706-.156 4.056-.113 6.326a304.308 304.308 0 0 0-.27 7.127c-1.267.514-6.41 2.74-6.898 5.42-.018.084-.047.167-.051.254-.001.025.008.05.008.074 0 .024-.01.047-.01.07 0 .108.027.215.049.32l.004.026c.516 2.34 5.843 4.256 5.844 4.256l.15 2.824-1.97.16s-2.23-.016-1.872 1.44l.012.045c-.152.255-.22.61-.059 1.14a233.72 233.72 0 0 0 1.985 6.2c.936 3.436 1.916 6.958 2.869 10.688.308 1.208 1.54 1.287 1.875 1.289.077.01.15.018.217.015l3.947.565 3.164 12.225s.983 4.686 7.434 8.273a16.96 16.96 0 0 0 6.267 2.885c2.26.528 4.62.73 6.975.652 2.354.077 4.713-.124 6.972-.652a16.958 16.958 0 0 0 6.268-2.885c6.45-3.587 7.434-8.273 7.434-8.273l3.164-12.225 3.947-.565c.067.003.138-.006.215-.015.33-.001 1.567-.077 1.877-1.29.952-3.73 1.932-7.25 2.869-10.687a233.941 233.941 0 0 0 1.984-6.2c.16-.53.094-.885-.058-1.14l.012-.045c.357-1.456-1.872-1.44-1.872-1.44l-1.97-.16.15-2.824s5.327-1.917 5.844-4.256l.004-.025c.022-.106.048-.213.049-.32 0-.024-.01-.047-.01-.07 0-.026.009-.05.008-.075-.004-.087-.033-.17-.051-.254-.488-2.68-5.631-4.906-6.899-5.42a304.06 304.06 0 0 0-.269-7.127c.043-2.27.047-4.62-.113-6.326-.78-8.281-13.177-16.868-28.332-16.828-.409.001-.816.012-1.223.025a39.212 39.212 0 0 0-1.225-.025zm-20.324 31.48c2.056.579 12.362 3.368 20.896 3.33.217 0 .435-.013.652-.017.217.004.434.016.65.017 8.535.038 18.842-2.751 20.897-3.33.233.494.078 1.17-.574 1.39 0 0-10.473 3.728-20.973 3.923-10.501-.194-20.975-3.922-20.975-3.922-.653-.221-.808-.897-.575-1.391zm-6.424 2.748s6.325 1.723 13.631 3.156c3.862.981 8.369 1.788 12.973 1.88.435.008.905-.007 1.37-.017.462.01.932.025 1.367.016 4.604-.091 9.11-.898 12.973-1.879 7.305-1.433 13.63-3.156 13.63-3.156s1.112.027 2.083.11c.27.06.574.121.796.18 1.457.379 1.037 1.476-.576 1.724-1.823.28-5.465.863-5.465.863l-1.726 12.08 5.61-.861-3.884 11.648-.607.16-4.285.558-.627.09.055.63s.03 1.202-.16 3.017c-1 4.217-3.187 11.07-7.475 15.604-2.774 2.326-6.559 4.037-11.71 4.453-5.15-.416-8.936-2.126-11.71-4.453-4.289-4.533-6.475-11.387-7.475-15.604-.191-1.815-.16-3.018-.16-3.018l.045-.664-.617-.055-4.285-.558-.608-.16-3.883-11.648 5.61.861-1.727-12.08s-3.642-.583-5.465-.863c-1.613-.248-2.032-1.345-.576-1.725.222-.058.526-.12.797-.18.97-.082 2.082-.109 2.082-.109z" style="fill:#98dc9a"/></svg>