<svg width="192" height="192" version="1.1" viewBox="0 0 192 192" xmlns="http://www.w3.org/2000/svg">
 <circle cx="96" cy="96" r="88" style="fill:#56595b"/>
 <path d="m94.486 51.633c-15.155-0.03998-27.553 8.5469-28.332 16.828-0.16054 1.7062-0.15623 4.0563-0.11328 6.3262-0.16668 3.4271-0.23758 5.8647-0.26953 7.127-1.2674 0.51344-6.4108 2.7397-6.8984 5.4199-0.01778 0.08434-0.04643 0.16704-0.05078 0.25391-0.0013 0.02513 0.0079 0.04918 0.0078 0.07422-6.17e-4 0.02361-0.01 0.04666-0.0098 0.07031 9e-4 0.10784 0.02697 0.21405 0.04883 0.32031 2e-3 0.0084 0.0018 0.01696 0.0039 0.02539 0.51657 2.339 5.8437 4.2559 5.8438 4.2559l0.15039 2.8242-1.9707 0.16016s-2.2285-0.01695-1.8711 1.4395c0.0037 0.01492 0.0081 0.03 0.01172 0.04492-0.15204 0.25476-0.21912 0.60941-0.05859 1.1406 0.65194 2.1574 1.3214 4.2054 1.9844 6.1992 0.9366 3.436 1.9167 6.9578 2.8691 10.688 0.30852 1.2081 1.5407 1.2876 1.875 1.2891 0.07721 0.01 0.14969 0.0183 0.2168 0.0156l3.9473 0.56445 3.1641 12.225s0.98329 4.6864 7.4336 8.2734c1.7026 1.2519 3.754 2.2979 6.2676 2.8848 2.2598 0.52763 4.6196 0.72953 6.9746 0.65235 2.3544 0.077 4.7134-0.12486 6.9727-0.65235 2.5136-0.58688 4.565-1.6328 6.2676-2.8848 6.4503-3.587 7.4336-8.2734 7.4336-8.2734l3.1641-12.225 3.9473-0.56445c0.0665 3e-3 0.13835-6e-3 0.21485-0.0156 0.32919-9e-4 1.5674-0.077 1.877-1.2891 0.95245-3.7298 1.9325-7.2515 2.8691-10.688 0.663-1.9938 1.3324-4.0418 1.9844-6.1992 0.16052-0.53122 0.0934-0.88586-0.0586-1.1406 4e-3 -0.01492 8e-3 -0.03001 0.0117-0.04492 0.35743-1.4564-1.8711-1.4395-1.8711-1.4395l-1.9707-0.16016 0.15039-2.8242c1e-5 0 5.3272-1.9169 5.8438-4.2559 2e-3 -0.0084 2e-3 -0.01695 4e-3 -0.02539 0.0219-0.10626 0.0479-0.21247 0.0488-0.32031 2e-4 -0.02365-9e-3 -0.0467-0.01-0.07031-6e-5 -0.02503 9e-3 -0.04909 8e-3 -0.07422-4e-3 -0.08686-0.033-0.16956-0.0508-0.25391-0.48761-2.6802-5.6311-4.9065-6.8984-5.4199-0.0319-1.2622-0.10285-3.6998-0.26953-7.127 0.0429-2.2698 0.0472-4.6199-0.11329-6.3262-0.77916-8.2812-13.177-16.868-28.332-16.828-0.4086 0.0011-0.81585 0.01163-1.2227 0.02539-0.40746-0.0138-0.81535-0.02431-1.2246-0.02539zm-20.324 31.48c2.056 0.57877 12.362 3.368 20.896 3.3301 0.21699-9.64e-4 0.43501-0.01332 0.65234-0.01758 0.21669 0.0042 0.43404 0.01662 0.65039 0.01758 8.5344 0.03794 18.841-2.7513 20.896-3.3301 0.23373 0.49374 0.0787 1.1695-0.57422 1.3906 0 0-10.473 3.7275-20.973 3.9219-10.501-0.19391-20.975-3.9219-20.975-3.9219-0.65288-0.22108-0.80794-0.89688-0.57422-1.3906zm-6.4238 2.748s6.3251 1.7229 13.631 3.1562c3.862 0.98091 8.3685 1.7874 12.973 1.8789 0.43495 0.0086 0.90529-0.0057 1.3691-0.01563 0.46315 0.0099 0.93286 0.02425 1.3672 0.01563 4.6042-0.09146 9.1106-0.89799 12.973-1.8789 7.3058-1.4334 13.631-3.1562 13.631-3.1562s1.1115 0.02705 2.082 0.10938c0.27068 0.06046 0.57496 0.12181 0.79688 0.17969 1.4563 0.37984 1.0371 1.4765-0.57617 1.7246-1.8228 0.28038-5.4648 0.86328-5.4648 0.86328l-1.7266 12.08 5.6094-0.86133-3.8828 11.648-0.60742 0.16015-4.2852 0.5586-0.62695 0.0904 0.0547 0.62836s0.0313 1.2026-0.16016 3.0176c-1.0002 4.2169-3.1861 11.07-7.4746 15.604-2.7737 2.3266-6.5586 4.0374-11.709 4.4531-5.1513-0.41549-8.9369-2.1263-11.711-4.4531-4.2885-4.5332-6.4744-11.387-7.4746-15.604-0.19142-1.8149-0.16016-3.0176-0.16016-3.0176l0.04478-0.66432-0.61704-0.0544-4.2852-0.5586-0.60742-0.16015-3.8828-11.648 5.6094 0.86133-1.7266-12.08s-3.642-0.5829-5.4648-0.86328c-1.6132-0.24814-2.0325-1.3448-0.57617-1.7246 0.22192-0.05788 0.5262-0.11923 0.79688-0.17969 0.97056-0.08232 2.082-0.10938 2.082-0.10938z" style="fill:#98dc9a"/>
</svg>
