<svg xmlns="http://www.w3.org/2000/svg" id="svg2" width="192" height="192" version="1.1"><g id="layer1" transform="translate(0 -860.362)"><path id="path981" d="M45.449 878.507a9.428 9.428 0 0 0-9.45 9.45v23.622H156v-23.623a9.428 9.428 0 0 0-9.448-9.449h-3.04v9.497c0 2.941-2.369 5.31-5.31 5.31h-8.387a5.297 5.297 0 0 1-5.308-5.31v-9.497h-6.335v9.497c0 2.941-2.367 5.31-5.308 5.31h-8.388a5.299 5.299 0 0 1-5.31-5.31v-9.497h-6.333v9.497c0 2.941-2.368 5.31-5.31 5.31h-8.387a5.297 5.297 0 0 1-5.308-5.31v-9.497h-6.335v9.497c0 2.941-2.367 5.31-5.308 5.31h-8.388a5.299 5.299 0 0 1-5.309-5.31v-9.497z" style="fill:#fe827c;fill-opacity:1;stroke-width:.164924;stroke-linecap:round;stroke-linejoin:round;stop-color:#000"/><path id="path983" d="M36 911.578v33.071h120v-33.071z" style="fill:#f59831;fill-opacity:1;stroke-width:.164924;stroke-linecap:round;stroke-linejoin:round;stop-color:#000"/><path id="path985" d="M36 944.649v33.071h120v-33.071z" style="fill:#fecc47;fill-opacity:1;stroke-width:.164924;stroke-linecap:round;stroke-linejoin:round;stop-color:#000"/><path id="path987" d="M36 977.72v33.071h120V977.72z" style="fill:#78bd4b;fill-opacity:1;stroke-width:.164924;stroke-linecap:round;stroke-linejoin:round;stop-color:#000"/><path id="path989" d="M36 1010.791v23.622a9.428 9.428 0 0 0 9.449 9.45h101.103a9.428 9.428 0 0 0 9.448-9.45v-23.622z" style="fill:#4397d0;fill-opacity:1;stroke-width:.164924;stroke-linecap:round;stroke-linejoin:round;stop-color:#000"/><path id="path993" d="M36 911.578v33.071h120v-33.071z" style="fill:#f7c08b;fill-opacity:1;stroke-width:.164924;stroke-linecap:round;stroke-linejoin:round;stop-color:#000"/><path id="path995" d="M36 944.649v33.071h120v-33.071z" style="fill:#f8dd7f;fill-opacity:1;stroke-width:.164924;stroke-linecap:round;stroke-linejoin:round;stop-color:#000"/><path id="path997" d="M36 977.72v33.071h120V977.72z" style="fill:#97db99;fill-opacity:1;stroke-width:.164924;stroke-linecap:round;stroke-linejoin:round;stop-color:#000"/><path id="path999" d="M36 1010.791v23.622a9.428 9.428 0 0 0 9.449 9.45h101.103a9.428 9.428 0 0 0 9.448-9.45v-23.622z" style="fill:#99bdfe;fill-opacity:1;stroke-width:.164924;stroke-linecap:round;stroke-linejoin:round;stop-color:#000"/><path id="path1009" d="M131.912 868.862h4.194a2.648 2.648 0 0 1 2.654 2.654v13.981a2.648 2.648 0 0 1-2.654 2.654h-4.194a2.648 2.648 0 0 1-2.654-2.654v-13.98a2.648 2.648 0 0 1 2.654-2.655z" style="fill:#cbcbcb;fill-opacity:1;fill-rule:evenodd;stroke:none;stroke-width:.0748214;stroke-opacity:1"/><path id="path1011" d="M106.573 868.862h4.194a2.648 2.648 0 0 1 2.654 2.654v13.981a2.648 2.648 0 0 1-2.654 2.654h-4.194a2.648 2.648 0 0 1-2.654-2.654v-13.98a2.648 2.648 0 0 1 2.654-2.655z" style="fill:#cbcbcb;fill-opacity:1;fill-rule:evenodd;stroke:none;stroke-width:.0748214;stroke-opacity:1"/><path id="path1013" d="M81.233 868.862h4.194a2.648 2.648 0 0 1 2.654 2.654v13.981a2.648 2.648 0 0 1-2.654 2.654h-4.194a2.648 2.648 0 0 1-2.654-2.654v-13.98a2.648 2.648 0 0 1 2.654-2.655z" style="fill:#cbcbcb;fill-opacity:1;fill-rule:evenodd;stroke:none;stroke-width:.0748214;stroke-opacity:1"/><path id="path1015" d="M55.894 868.862h4.194a2.648 2.648 0 0 1 2.654 2.654v13.981a2.648 2.648 0 0 1-2.654 2.654h-4.194a2.648 2.648 0 0 1-2.654-2.654v-13.98a2.648 2.648 0 0 1 2.654-2.655z" style="fill:#cbcbcb;fill-opacity:1;fill-rule:evenodd;stroke:none;stroke-width:.0748214;stroke-opacity:1"/></g><style id="style853" type="text/css">.st0{fill:#fff}</style></svg>