<svg viewBox="0 0 192 192" xml:space="preserve" xmlns="http://www.w3.org/2000/svg"><rect x="20" y="20" width="152" height="152" rx="10" style="fill:#fff;opacity:1;stroke:none;stroke-linecap:round;stroke-linejoin:round;isolation:isolate"/><path d="M5.062 21.866a4.409 4.409 0 0 0 0 6.221l6.775 6.776a4.408 4.408 0 0 0 6.223 0l7.885-7.886L12.948 13.98z" style="fill:#ffb0ac" transform="matrix(2.58422 0 0 2.58422 44.452 44.372)"/><path d="M28.057 5.093a4.408 4.408 0 0 0-6.222 0l-7.387 7.387 12.998 12.997 7.386-7.387a4.408 4.408 0 0 0 0-6.222z" style="fill:#979797" transform="matrix(2.58422 0 0 2.58422 44.452 44.372)"/></svg>