<svg xmlns="http://www.w3.org/2000/svg" id="svg2354" version="1.1" viewBox="0 0 192 192"><defs id="defs2342"><style id="style2340">.a{isolation:isolate;opacity:.63;fill:none;stroke:#fff;stroke-linecap:round;stroke-linejoin:round}</style></defs><rect id="rect2344" width="152" height="152" x="20" y="20" class="a" rx="10" style="fill:#ff837d;stroke:none;opacity:1"/><g id="g3141" transform="matrix(.5085 0 0 .51283 47.188 46.768)"><path id="path2481" d="M93.834 78.574c-11.31 0-13.29 11.237-13.29 11.237a11.421 11.421 0 0 0-14.075 15.761h-3.621a3.85 3.85 0 0 0 0 7.7c.03 0 .057-.008.088-.009l63.439.163a2.173 2.173 0 0 0 2.166-2.194c0-.756-.006-2.383-.006-2.383h1.428a3.033 3.033 0 1 0 0-6.066h-2.15c1.216-4.482-2.13-6.47-5.065-6.47h-2.844s.131-11.698-13.78-11.698c-2.165-3.655-6.288-6.041-12.29-6.041zM92.787 91.24l9.889 6.955-9.889 6.955z" class="a" style="opacity:1;fill:#fff;stroke:none;stroke-width:1.77235" transform="matrix(2.39186 0 0 2.39186 -133.619 -133.619)"/></g></svg>