<svg width="192" height="192" version="1.1" viewBox="0 0 192 192" xmlns="http://www.w3.org/2000/svg">
 <circle cx="96" cy="96" r="88" display="none" fill="none" opacity=".63" stroke="#b1b5bd"/>
 <circle cx="96" cy="96" r="88" fill="#56595b" stroke-width="0"/>
 <g fill="#fff" stroke-width="0">
  <path d="m66.269 82.461c9.7309-5.4757 20.731-12.476 29.731-19.476 9 7 19.157 14 30 19.476v12.524c-10-6-20-12-30-19-10 7-20 13-30 19z"/>
  <path d="m75.037 113.39-9.0368 5.5152c20.082 13.485 40.163 13.485 60 0l-9-5.5152c-13.475 4-27.906 4-41.963 0z"/>
  <path d="m66.269 106.46c9.7309-5.4757 20.731-12.476 29.731-19.476 9 7 19.157 14 30 19.476v12.524c-10-6-20-12-30-19-10 7-20 13-30 19z"/>
 </g>
</svg>
