<?xml version="1.0" encoding="UTF-8"?>
<svg width="192" height="192" version="1.1" viewBox="0 0 192 192" xml:space="preserve" xmlns="http://www.w3.org/2000/svg" xmlns:cc="http://creativecommons.org/ns#" xmlns:dc="http://purl.org/dc/elements/1.1/" xmlns:rdf="http://www.w3.org/1999/02/22-rdf-syntax-ns#" xmlns:xlink="http://www.w3.org/1999/xlink"><metadata><rdf:RDF><cc:Work rdf:about=""><dc:format>image/svg+xml</dc:format><dc:type rdf:resource="http://purl.org/dc/dcmitype/StillImage"/></cc:Work></rdf:RDF></metadata><rect x="20" y="20" width="152" height="152" rx="9.9346" fill="#728dbe"/><path d="m80.995 99.248s1.5302-1.9521-5.7491-0.1691c-7.3698 1.7205-13.761 11.307-15.669 17.867-0.72911 2.8594 3.9409 3.5306 5.5237 1.8037 1.8472-2.0154 6.3152-8.451 6.0873-8.7928 2.2982-0.78644 4.3086-0.70956 6.3128-0.61398z" fill="#ff837d"/><path d="m98.547 110.34s1.1029-2.2217 2.6284 5.1159c1.621 7.3923-4.2788 17.289-9.3781 21.836-2.2667 1.8894-4.8835-2.0364-4.0065-4.2086 1.0235-2.5351 4.9077-9.3389 5.3143-9.2805-0.2799-2.4128-1.215-4.1942-2.1644-5.9619z" fill="#ff837d"/><path d="m75.472 111.08 15.106 9.4692c1.8412 1.4905 24.99-23.287 26.594-42.704 1.9092-12.212-5.4531-13.652-13.006-9.01-18.544 9.2082-29.394 42.206-28.694 42.245z" fill="#fff" stroke-linecap="round" stroke-linejoin="round" stroke-width="2.2546"/><circle cx="101.34" cy="87.355" r="6.5946" fill="none" stroke="#56595b" stroke-linecap="round" stroke-linejoin="round" stroke-width="2.2546"/><path d="m111.52 66.399c-2.1824-0.03218-4.7556 0.84472-7.352 2.4404-0.2811 0.13958-0.55472 0.30148-0.83226 0.45179 3.2646 5.7203 8.7443 8.0209 13.813 8.7796 6e-3 -0.07329 0.0194-0.14794 0.0255-0.22105 1.2529-8.014-1.4876-11.389-5.654-11.451z" fill="#ff837d" stroke-linecap="round" stroke-linejoin="round" stroke-width="2.2546"/><path d="m73.724 116.44s-14.179 24.316-9.1874 27.675c5.4687 3.6796 22.771-19.446 22.771-19.446z" fill="#f9de81"/><path d="m80.265 113.65-4.8521-3.0953a1.0307 1.0307 168.4 0 0-1.4061 0.2886l-2.3685 3.4763a0.97824 0.97824 78.637 0 0 0.27555 1.3712l4.9174 3.1942c0.46315 0.30085 0.62536 0.93845 0.37092 1.4286-1.0133 1.9522-3.3239 6.619-3.3587 8.6502-9e-3 0.52619 0.78242 1.1108 1.3022 0.97293 2.1031-0.55786 5.3739-4.8686 6.6859-6.7005 0.32148-0.44888 0.94927-0.5768 1.4135-0.2777l4.1806 2.6933a0.9611 0.9611 166.65 0 0 1.3485-0.3199l2.1408-3.6317a1.0569 1.0569 77.104 0 0-0.32424-1.4162l-3.916-2.6106c-0.45953-0.30635-0.60746-0.94205-0.33977-1.4251 1.0524-1.8992 3.4257-6.4036 3.4217-8.3941-0.0011-0.52626-0.83739-1.0104-1.3238-0.79286-1.892 0.84616-5.2797 4.6967-6.6858 6.3588-0.35626 0.42111-1.0164 0.52685-1.482 0.22982z" fill="#ff837d"/><path d="m63.865 79.731c0.23834 2.4177 1.1182 3.9559 3.7863 4.1051-1.9099 0.55785-3.6798 0.99658-3.7066 3.2283-0.28353-1.8641-1.0865-3.3323-3.587-3.5073 1.9422-0.04739 3.3643-0.92112 3.5073-3.8261z" fill="#fff"/><path d="m49.995 121.5c0.23834 2.4176 1.1182 3.9559 3.7863 4.1051-1.9099 0.55786-3.6798 0.99659-3.7066 3.2283-0.28353-1.864-1.0865-3.3324-3.587-3.5073 1.9422-0.0475 3.3643-0.92113 3.5073-3.8261z" fill="#fff"/><path d="m99.416 146.05c0.23834 2.4176 1.1182 3.9559 3.7863 4.1051-1.9099 0.55786-3.6798 0.99659-3.7066 3.2283-0.28353-1.8641-1.0865-3.3324-3.587-3.5073 1.9422-0.0475 3.3642-0.92112 3.5073-3.8261z" fill="#fff"/><path d="m20 134.46v27.609c0 5.5038 4.4318 9.9356 9.9355 9.9356h54.535c-11.095-16.364-38.7-37.47-64.471-37.545z" fill="#fff"/></svg>
