<svg xmlns="http://www.w3.org/2000/svg" viewBox="0 0 192 192"><title>CoinSwitch</title><circle cx="96" cy="96" r="88" fill="#56595b"/><path d="M84.54,132.44c5.41-2.65,8.13-7.57,8.3-13.53,2.87-.63,5.74-1.12,8.53-1.9,3.51-1,5-3,5-6.11a4.43,4.43,0,0,0-2.31-4.23A83.3,83.3,0,0,0,95.57,103c-4.74-1.75-9.64-3.08-14.29-5-7.19-3-10.65-8.71-10.72-16.44-.06-7.49,2.77-13.51,9.17-17.72,4.59-3,9.73-4,15-4.31,1.9-.12,3.82,0,6,0a14,14,0,0,0-4.66,13c-2.36.64-4.62,1.11-6.77,1.87A5.22,5.22,0,0,0,85.67,79a5.41,5.41,0,0,0,2.86,5.65,9.81,9.81,0,0,0,1.8.91c3.29,1.13,6.62,2.15,9.89,3.32A108.12,108.12,0,0,1,111.06,93c7,3.4,10.6,9.14,10.37,17.06s-3.55,14.24-10.84,18.11a26.87,26.87,0,0,1-10.12,3c-5.3.51-10.61.84-15.93,1.24C84.52,132.25,84.57,132.64,84.54,132.44Z" fill="#fff"/><path d="M79.33,110.48A8.67,8.67,0,0,1,88,119.37a8.67,8.67,0,1,1-17.33-.19A8.66,8.66,0,0,1,79.33,110.48Z" fill="#fff"/><path d="M109.43,78.79a8.56,8.56,0,0,1-8.6-8.72,8.64,8.64,0,1,1,17.28.08A8.54,8.54,0,0,1,109.43,78.79Z" fill="#fff"/></svg>