<?xml version="1.0" encoding="UTF-8" standalone="no"?>
<!-- Created with Inkscape (http://www.inkscape.org/) -->

<svg
   xmlns:dc="http://purl.org/dc/elements/1.1/"
   xmlns:cc="http://creativecommons.org/ns#"
   xmlns:rdf="http://www.w3.org/1999/02/22-rdf-syntax-ns#"
   xmlns:svg="http://www.w3.org/2000/svg"
   xmlns="http://www.w3.org/2000/svg"
   xmlns:sodipodi="http://sodipodi.sourceforge.net/DTD/sodipodi-0.dtd"
   xmlns:inkscape="http://www.inkscape.org/namespaces/inkscape"
   id="svg5556"
   version="1.1"
   inkscape:version="0.91 r13725"
   width="192"
   height="192"
   viewBox="0 0 192 192"
   sodipodi:docname="convertbee.svg"
   inkscape:export-filename="/home/jphilippe/Bureau/inkscape/convertbee-delta.png"
   inkscape:export-xdpi="90"
   inkscape:export-ydpi="90">
  <metadata
     id="metadata5562">
    <rdf:RDF>
      <cc:Work
         rdf:about="">
        <dc:format>image/svg+xml</dc:format>
        <dc:type
           rdf:resource="http://purl.org/dc/dcmitype/StillImage" />
        <dc:title />
      </cc:Work>
    </rdf:RDF>
  </metadata>
  <defs
     id="defs5560" />
  <sodipodi:namedview
     pagecolor="#ffffff"
     bordercolor="#666666"
     borderopacity="1"
     objecttolerance="10"
     gridtolerance="10"
     guidetolerance="10"
     inkscape:pageopacity="0"
     inkscape:pageshadow="2"
     inkscape:window-width="1680"
     inkscape:window-height="996"
     id="namedview5558"
     showgrid="false"
     inkscape:zoom="2.6222222"
     inkscape:cx="55.856083"
     inkscape:cy="80.257143"
     inkscape:window-x="0"
     inkscape:window-y="28"
     inkscape:window-maximized="1"
     inkscape:current-layer="svg5556" />
  <path
     sodipodi:nodetypes="cccccccccccccc"
     inkscape:connector-curvature="0"
     id="path4258"
     d="m 7.5052149,95.558678 c -0.081321,3.45461 0.7894785,6.864992 2.5170281,9.857742 l 34.835336,60.33663 c 3.36389,5.82565 9.579887,9.4145 16.306992,9.41495 l 69.670659,0 c 6.72712,-4.5e-4 12.94312,-3.5893 16.307,-9.41495 l 34.83533,-60.33663 c 3.36326,-5.826092 3.36326,-13.003805 0,-18.829903 l -34.83533,-60.33955 c -3.36388,-5.825667 -9.57988,-9.414512 -16.307,-9.414966 l -69.670659,0 c -6.727105,4.54e-4 -12.943102,3.589299 -16.306992,9.414966 l -34.835336,60.33955 c -1.5773923,2.732637 -2.4429011,5.817797 -2.5170281,8.972161 z"
     style="color:#000000;font-style:normal;font-variant:normal;font-weight:normal;font-stretch:normal;font-size:medium;line-height:normal;font-family:sans-serif;text-indent:0;text-align:start;text-decoration:none;text-decoration-line:none;text-decoration-style:solid;text-decoration-color:#000000;letter-spacing:normal;word-spacing:normal;text-transform:none;direction:ltr;block-progression:tb;writing-mode:lr-tb;baseline-shift:baseline;text-anchor:start;white-space:normal;clip-rule:nonzero;display:inline;overflow:visible;visibility:visible;opacity:1;isolation:auto;mix-blend-mode:normal;color-interpolation:sRGB;color-interpolation-filters:linearRGB;solid-color:#000000;solid-opacity:1;fill:#b1b5bd;fill-opacity:1;fill-rule:nonzero;stroke:none;stroke-width:50;stroke-linecap:butt;stroke-linejoin:round;stroke-miterlimit:4;stroke-dasharray:none;stroke-dashoffset:0;stroke-opacity:1;color-rendering:auto;image-rendering:auto;shape-rendering:auto;text-rendering:auto;enable-background:accumulate" />
  <g
     id="g6410"
     style="fill:#ffffff;fill-opacity:1"
     transform="matrix(0.93028001,0,0,0.93028001,9.6456005,13.674055)">
    <ellipse
       transform="matrix(0.99892705,0.04631148,-0.05035481,0.99873139,0,0)"
       ry="24.503656"
       rx="11.820925"
       cy="112.95435"
       cx="127.09534"
       id="path6112"
       style="opacity:1;fill:#ffffff;fill-opacity:1;stroke:none;stroke-width:6.30000019;stroke-linecap:round;stroke-linejoin:round;stroke-miterlimit:4;stroke-dasharray:none;stroke-opacity:0.26446282" />
    <ellipse
       transform="matrix(-0.46744142,0.88402405,-0.88212458,-0.47101616,0,0)"
       ry="24.503656"
       rx="11.820925"
       cy="-94.556732"
       cx="5.4838295"
       id="path6112-9"
       style="opacity:1;fill:#ffffff;fill-opacity:1;stroke:none;stroke-width:6.30000019;stroke-linecap:round;stroke-linejoin:round;stroke-miterlimit:4;stroke-dasharray:none;stroke-opacity:0.26446282" />
    <path
       id="path6129-4"
       d="m 121.08008,49.957031 a 11.440678,11.440678 0 0 0 -9.71094,5.421875 26.313559,26.313559 0 0 1 20.58008,25.660156 26.313559,26.313559 0 0 1 -1.39844,8.384766 11.440678,11.440678 0 0 0 0.0644,0.0039 11.440678,11.440678 0 0 0 11.43946,-11.441406 11.440678,11.440678 0 0 0 -10.78711,-11.40625 11.440678,11.440678 0 0 0 1.2539,-5.18164 11.440678,11.440678 0 0 0 -11.4414,-11.441407 z"
       style="opacity:1;fill:#ffffff;fill-opacity:1;stroke:none;stroke-width:6.30000019;stroke-linecap:round;stroke-linejoin:round;stroke-miterlimit:4;stroke-dasharray:none;stroke-opacity:0.26446282"
       inkscape:connector-curvature="0" />
    <path
       id="path6254"
       d="m 45.376953,99.445312 a 25.766137,46.27674 61.273943 0 0 0.607422,17.134768 25.766137,46.27674 61.273943 0 0 13.917969,8 50.71671,35.892554 61.362408 0 0 -13.898438,-24.45703 50.71671,35.892554 61.362408 0 0 -0.626953,-0.677738 z"
       style="opacity:1;fill:#ffffff;fill-opacity:1;stroke:none;stroke-width:6.30000019;stroke-linecap:round;stroke-linejoin:round;stroke-miterlimit:4;stroke-dasharray:none;stroke-opacity:0.26446282"
       inkscape:connector-curvature="0" />
    <path
       id="path6110"
       d="m 67.982422,74.193359 a 25.766137,46.27674 61.273943 0 0 -13.25,11.066407 25.766137,46.27674 61.273943 0 1 13.25,-11.066407 z M 54.710938,85.283203 a 25.766137,46.27674 61.273943 0 0 -6.28125,8.105469 50.71671,35.892554 61.362408 0 1 3.421874,3.55664 50.71671,35.892554 61.362408 0 1 14.992188,28.142578 25.766137,46.27674 61.273943 0 0 10.501953,-1.22656 50.71671,35.892554 61.362408 0 0 -15.90625,-32.003908 50.71671,35.892554 61.362408 0 0 -6.728515,-6.574219 z m 22.634765,38.578127 a 25.766137,46.27674 61.273943 0 0 3.992188,-0.95899 25.766137,46.27674 61.273943 0 1 -3.992188,0.95899 z m 22.755857,-8.83594 a 25.766137,46.27674 61.273943 0 1 -0.490232,0.27539 25.766137,46.27674 61.273943 0 0 0.490232,-0.27539 z m -2.878904,1.55859 a 25.766137,46.27674 61.273943 0 1 -2.464844,1.25391 25.766137,46.27674 61.273943 0 0 2.464844,-1.25391 z m -3.921875,1.93555 a 25.766137,46.27674 61.273943 0 1 -2.845703,1.25391 25.766137,46.27674 61.273943 0 0 2.845703,-1.25391 z m -4.001953,1.71485 a 25.766137,46.27674 61.273943 0 1 -3.230469,1.20703 25.766137,46.27674 61.273943 0 0 3.230469,-1.20703 z m -3.992187,1.46289 a 25.766137,46.27674 61.273943 0 1 -3.646485,1.11914 25.766137,46.27674 61.273943 0 0 3.646485,-1.11914 z"
       style="opacity:1;fill:#ffffff;fill-opacity:1;stroke:none;stroke-width:6.30000019;stroke-linecap:round;stroke-linejoin:round;stroke-miterlimit:4;stroke-dasharray:none;stroke-opacity:0.26446282"
       inkscape:connector-curvature="0" />
    <path
       sodipodi:nodetypes="ccccccccc"
       inkscape:connector-curvature="0"
       id="path6226"
       d="m 109.61133,60.193359 c 0.0917,1.622503 -0.20218,3.096038 -0.87305,4.376953 -1.84966,3.446455 -6.35675,5.301823 -12.601561,5.1875 3.486957,3.008969 6.554781,6.75556 8.968751,10.953126 3.02981,5.297452 4.76858,10.16161 5.26165,15.784707 3.15169,-6.63637 7.57363,-9.4052 11.88288,-9.23002 1.35244,0.07306 2.67853,0.529102 3.94141,1.355469 0.59567,-2.153544 0.89133,-4.326118 0.88086,-6.472656 -0.12418,-9.969616 -6.82014,-18.388996 -17.46094,-21.955079 z"
       style="opacity:1;fill:#ffffff;fill-opacity:1;stroke:none;stroke-width:6.30000019;stroke-linecap:round;stroke-linejoin:round;stroke-miterlimit:4;stroke-dasharray:none;stroke-opacity:0.26446282" />
    <path
       id="path6373"
       d="m 68.207031,74.064453 a 25.766137,46.27674 61.273943 0 0 -8.765625,6.673828 50.71671,35.892554 61.362408 0 1 7.101563,6.875 50.71671,35.892554 61.362408 0 1 16.40625,34.806639 25.766137,46.27674 61.273943 0 0 10.707031,-4.08789 50.71671,35.892554 61.362408 0 0 0,-0.002 50.71671,35.892554 61.362408 0 0 -16.595703,-35.974611 50.71671,35.892554 61.362408 0 0 -8.853516,-8.291016 z m 31.894529,40.960937 a 25.766137,46.27674 61.273943 0 1 -0.960935,0.52734 25.766137,46.27674 61.273943 0 0 0.960935,-0.52734 z m -2.929685,1.57422 a 25.766137,46.27674 61.273943 0 1 -3.482422,1.71484 25.766137,46.27674 61.273943 0 0 3.482422,-1.71484 z"
       style="opacity:1;fill:#ffffff;fill-opacity:1;stroke:none;stroke-width:6.30000019;stroke-linecap:round;stroke-linejoin:round;stroke-miterlimit:4;stroke-dasharray:none;stroke-opacity:0.26446282"
       inkscape:connector-curvature="0" />
    <path
       id="path6381"
       d="m 83.603516,66.207031 a 25.766137,46.27674 61.273943 0 0 -10.671875,5.003907 50.71671,35.892554 61.362408 0 1 8.71289,8.177734 50.71671,35.892554 61.362408 0 1 16.658203,36.624998 25.766137,46.27674 61.273943 0 0 1.798826,-0.98828 25.766137,46.27674 61.273943 0 0 9.01758,-6.09766 50.71671,35.892554 61.362408 0 0 -16.283202,-34.123042 50.71671,35.892554 61.362408 0 0 -9.232422,-8.597657 z"
       style="opacity:1;fill:#ffffff;fill-opacity:1;stroke:none;stroke-width:6.30000019;stroke-linecap:round;stroke-linejoin:round;stroke-miterlimit:4;stroke-dasharray:none;stroke-opacity:0.26446282"
       inkscape:connector-curvature="0" />
  </g>
</svg>
