<svg xmlns="http://www.w3.org/2000/svg" viewBox="0 0 192 192"><path fill="#f9de81" fill-rule="evenodd" d="M52.67 160.26H47a14.37 14.37 0 0 1-11.27-5.5L9 120.38a4.92 4.92 0 0 1 0-5.92l26.9-34.38a14.16 14.16 0 0 1 11.27-5.5h59.47L72.82 117l-24.66 31.14Z"/><path fill="#c39a54" fill-rule="evenodd" d="M73.24 117.42 73 117l-24.8 31.14a8.76 8.76 0 0 0-1.83 5.77c0 2.82 2.68 6.35 8 6.35h52.28Z"/><path fill="#9abeff" fill-rule="evenodd" d="m143.7 43.86-4.51-12.12h5.64a14.38 14.38 0 0 1 11.27 5.5L183 71.62a4.92 4.92 0 0 1 0 5.92l-27 34.38a14.18 14.18 0 0 1-11.28 5.5h-59.5L119 75Z"/><path fill="#728dbe" fill-rule="evenodd" d="m118.76 74.58.24.42 24.7-31.14a8.82 8.82 0 0 0 1.83-5.77c0-2.82-2.68-6.35-8-6.35H85.22Z"/></svg>