<svg xmlns="http://www.w3.org/2000/svg" width="192" height="192"><g transform="translate(0 -860.362)"><rect rx="10" y="879.862" x="19.5" height="153" width="153" fill="#fff" fill-rule="evenodd"/><g transform="matrix(.19222 0 0 .19222 161.654 862.624)" stroke-width="2.5" stroke-linecap="round" stroke-linejoin="round"><path d="M-276.758 308.522c-44.106 0-79.613 34.502-79.613 77.358 0 .8.016 1.597.04 2.392h-.04v64.963c0 1.366.282 2.674.793 3.867a10.154 10.154 0 002.158 3.18 10.162 10.162 0 003.182 2.158 9.814 9.814 0 003.867.795h67.15v-.039c.819.024 1.639.04 2.463.04 44.106 0 79.613-34.5 79.613-77.356 0-42.856-35.507-77.358-79.613-77.358z" fill="#96ded3"/><path d="M-346.371 484.876a9.813 9.813 0 00-3.867.793 10.163 10.163 0 00-3.182 2.158 10.162 10.162 0 00-2.158 3.182 9.813 9.813 0 00-.793 3.867v78.152h.047a91.034 91.034 0 00-.047 2.815c0 50.396 41.754 90.968 93.621 90.968s93.623-40.572 93.623-90.968c0-50.397-41.756-90.967-93.623-90.967-.97 0-1.934.017-2.896.045v-.045h-80.725z" fill="#98db9a"/><path d="M-446.76 332.57c-37.25 0-67.238 29.139-67.238 65.333 0 36.195 29.988 65.332 67.238 65.332.697 0 1.39-.013 2.08-.033v.033h55.16a9.814 9.814 0 003.868-.795 10.154 10.154 0 003.18-2.158 10.154 10.154 0 002.158-3.18 9.814 9.814 0 00.794-3.867v-53.312h-.035c.021-.672.035-1.343.035-2.02 0-36.194-29.99-65.334-67.24-65.334z" fill="#f8c28d"/><circle cx="-286.25" cy="396.612" r="30.713" fill="#fff"/><circle r="46.977" cy="-592.62" cx="-246.652" transform="scale(1 -1)" fill="#fff"/><circle r="22.935" cy="424.013" cx="421.193" transform="scale(-1 1)" fill="#fff"/></g></g></svg>