<svg width="192" height="192" version="1.1" viewBox="0 0 192 192" xmlns="http://www.w3.org/2000/svg">
 <path d="m94 8c-21.052 0-38 16.948-38 38v40c0 21.052 16.948 38 38 38h4c21.052 0 38-16.948 38-38v-40c0-21.052-16.948-38-38-38h-4zm2 12c15.512 0 28 12.488 28 28v36c0 15.512-12.488 28-28 28s-28-12.488-28-28v-36c0-15.512 12.488-28 28-28z" style="fill:#83868c;paint-order:stroke fill markers"/>
 <rect x="24" y="52" width="16" height="8" ry="4" style="fill:#56595b;paint-order:stroke fill markers"/>
 <rect x="152" y="52" width="16" height="8" ry="4" style="fill:#56595b;paint-order:stroke fill markers"/>
 <rect x="8" y="56" width="176" height="104" ry="12" style="fill:#83868c;paint-order:stroke fill markers"/>
 <path d="m88 44c-3 0-4.697 1.7619-5.9902 3.2168-1.2932 1.4549-2.3379 3.0645-3.3379 4.5645s-1.9553 2.8904-2.6621 3.6855c-0.33398 0.37573-0.55047 0.49054-0.60938 0.5332h-55.4c-6.648 0-12 5.352-12 12v16h176v-16c0-6.648-5.352-12-12-12h-55.4c-0.0589-0.04266-0.27539-0.15748-0.60938-0.5332-0.70676-0.79511-1.6621-2.1855-2.6621-3.6855-1-1.5-2.0446-3.1096-3.3379-4.5645-1.2932-1.4549-2.9902-3.2168-5.9902-3.2168z" style="color-rendering:auto;color:#000000;dominant-baseline:auto;fill:#979797;font-feature-settings:normal;font-variant-alternates:normal;font-variant-caps:normal;font-variant-ligatures:normal;font-variant-numeric:normal;font-variant-position:normal;image-rendering:auto;isolation:auto;mix-blend-mode:normal;shape-padding:0;shape-rendering:auto;solid-color:#000000;text-decoration-color:#000000;text-decoration-line:none;text-decoration-style:solid;text-indent:0;text-orientation:mixed;text-transform:none;white-space:normal"/>
 <rect x="20" y="64" width="28" height="12" ry="4" style="fill:#ececec;paint-order:stroke fill markers"/>
 <circle cx="166" cy="70" r="6" style="fill:#ececec;paint-order:stroke fill markers"/>
 <circle cx="96" cy="108" r="40" style="fill:#56595b;paint-order:stroke fill markers"/>
 <circle cx="96" cy="108" r="32" style="fill:#ececec;paint-order:stroke fill markers"/>
 <circle cx="96" cy="108" r="24" style="fill:#9abeff;paint-order:stroke fill markers"/>
 <path d="m96 92a8 8 0 0 0-8 8 8 8 0 0 0 4.2363 7.0566l-4.2363 16.943h16l-4.2363-16.947a8 8 0 0 0 4.2363-7.0527 8 8 0 0 0-8-8z" style="fill:#56595b"/>
</svg>
