<?xml version="1.0" encoding="UTF-8" standalone="no"?>
<svg
   xmlns:dc="http://purl.org/dc/elements/1.1/"
   xmlns:cc="http://creativecommons.org/ns#"
   xmlns:rdf="http://www.w3.org/1999/02/22-rdf-syntax-ns#"
   xmlns:svg="http://www.w3.org/2000/svg"
   xmlns="http://www.w3.org/2000/svg"
   xmlns:sodipodi="http://sodipodi.sourceforge.net/DTD/sodipodi-0.dtd"
   xmlns:inkscape="http://www.inkscape.org/namespaces/inkscape"
   width="192"
   height="192"
   viewBox="0 0 192 192"
   fill="none"
   version="1.1"
   id="svg13"
   sodipodi:docname="crypto.svg"
   inkscape:version="1.0.1 (3bc2e813f5, 2020-09-07)"
   inkscape:export-filename="/home/jphilippe/Téléchargements/crypto.png"
   inkscape:export-xdpi="96"
   inkscape:export-ydpi="96">
  <metadata
     id="metadata17">
    <rdf:RDF>
      <cc:Work
         rdf:about="">
        <dc:format>image/svg+xml</dc:format>
        <dc:type
           rdf:resource="http://purl.org/dc/dcmitype/StillImage" />
        <dc:title />
      </cc:Work>
    </rdf:RDF>
  </metadata>
  <sodipodi:namedview
     pagecolor="#ffffff"
     bordercolor="#666666"
     borderopacity="1"
     objecttolerance="10"
     gridtolerance="10"
     guidetolerance="10"
     inkscape:pageopacity="0"
     inkscape:pageshadow="2"
     inkscape:window-width="1692"
     inkscape:window-height="875"
     id="namedview15"
     showgrid="false"
     inkscape:zoom="2.3828026"
     inkscape:cx="205.3008"
     inkscape:cy="158.76744"
     inkscape:window-x="145"
     inkscape:window-y="111"
     inkscape:window-maximized="0"
     inkscape:current-layer="svg13"
     showguides="true"
     inkscape:guide-bbox="true"
     inkscape:document-rotation="0">
    <inkscape:grid
       type="xygrid"
       id="grid3046" />
  </sodipodi:namedview>
  <defs
     id="defs11" />
  <rect
     x="19.999996"
     y="20"
     width="152"
     height="152"
     rx="10"
     fill="#98dc9a"
     id="rect860"
     style="fill:#f8c18c;fill-opacity:1" />
  <g
     aria-label="₿"
     id="text850"
     style="font-style:normal;font-variant:normal;font-weight:900;font-stretch:normal;font-size:83.8271px;line-height:1.25;font-family:Now;-inkscape-font-specification:'Now Heavy';letter-spacing:0px;word-spacing:0px;fill:#ffffff;fill-opacity:1;stroke-width:2.09567">
    <path
       d="m 100.11358,135.21209 h -6.835507 v -12.15656 h -4.952675 v 12.15656 H 81.162437 V 123.05553 H 69.783563 l 0.04093,-8.43183 h 9.332314 l 0.122794,-38.925575 h -9.373245 v -7.85879 H 81.367093 V 56.78791 h 6.79458 v 11.051425 h 5.198263 V 56.78791 h 6.712714 v 11.051425 h 0.69583 q 8.92301,0 13.5073,3.601945 4.62523,3.561015 4.62523,10.273732 0,4.707089 -2.70146,7.940654 -2.70146,3.192633 -8.30904,4.379638 6.99924,0.736762 10.64212,4.174983 3.6838,3.438223 3.6838,9.086723 0,7.40855 -5.07547,11.58353 -5.07546,4.17499 -14.0394,4.17499 h -2.98798 z m 6.63086,-51.85983 q 0,-6.548992 -6.835512,-6.548992 h -8.554621 v 13.057054 h 8.636483 q 6.75365,0 6.75365,-6.508062 z m 3.31543,22.92147 q 0,-3.60194 -2.16936,-5.52571 -2.16935,-1.964696 -6.3034,-1.964696 H 91.354307 v 15.308266 h 10.519323 q 8.18624,0 8.18624,-7.81786 z"
       style="fill:#ffffff;fill-opacity:1;stroke-width:2.09567"
       id="path842" />
  </g>
</svg>
