<svg viewBox="0 0 192 192" xmlns="http://www.w3.org/2000/svg" fill-rule="evenodd" clip-rule="evenodd" stroke-linejoin="round" stroke-miterlimit="2"><path d="M172.5 29.5c0-5.519-4.481-10-10-10h-133c-5.519 0-10 4.481-10 10v133c0 5.519 4.481 10 10 10h133c5.519 0 10-4.481 10-10v-133z" fill="#4a4a4a"/><g fill="#ebebeb"><path d="M136.174 104.413a2 2 0 013.1 2.068c-2.218 9.086-7.268 17.521-14.912 23.828-.43.347-.984.5-1.53.424a1.995 1.995 0 01-1.354-.83c-1.615-2.291-4.44-6.325-6.012-8.57a1.982 1.982 0 01.487-2.761l20.22-14.16zm-1.405-24.721a2 2 0 013.018.93 44.462 44.462 0 012.706 14.176 1.997 1.997 0 01-.852 1.678c-4.022 2.82-20.934 14.662-26.275 18.401a1.982 1.982 0 01-2.76-.486c-1.826-2.608-5.391-7.7-7.218-10.307a1.982 1.982 0 01.487-2.76l30.894-21.632zm-11.885-17.305a2 2 0 012.458.126 44.755 44.755 0 018.521 10.083c.558.902.315 2.08-.553 2.688-5.732 4.015-26.072 18.257-31.985 22.397a1.982 1.982 0 01-2.76-.487l-7.217-10.306a1.986 1.986 0 01.487-2.76c5.856-4.1 25.823-18.082 31.05-21.74z"/><path d="M117.76 132.313a2 2 0 01-.674 2.9c-19.6 10.557-44.47 4.995-57.548-13.682-14.09-20.124-9.193-47.902 10.931-61.993 14.424-10.1 32.78-10.443 47.21-2.419a1.992 1.992 0 01.158 3.365c-3.124 2.197-8.304 5.823-10.327 7.24-.53.37-1.206.463-1.816.246-8.678-2.998-18.622-1.937-26.71 3.727-13.414 9.392-16.678 27.907-7.287 41.32 8.474 12.1 24.372 15.942 37.25 9.68a1.993 1.993 0 012.52.642c1.571 2.23 4.588 6.538 6.293 8.974z"/></g></svg>