<svg xmlns="http://www.w3.org/2000/svg" id="svg2" width="192" height="192" version="1.1"><g id="layer1" transform="translate(0 -860.362)"><path id="path953" d="M57.468 885.394c-5.289 0-10.574 2.033-14.44 6.1l-29.08 29.081c-7.93 7.93-7.93 20.945 0 29.08l74.846 74.662a10.321 10.321 0 0 0 14.597-.02l74.66-74.845c7.932-7.93 7.932-20.944 0-29.08l-29.08-28.876c-4.068-4.068-9.353-6.1-14.439-6.1-5.288 0-10.573 2.032-14.641 6.1l-23.792 23.995-23.995-23.995c-4.068-4.068-9.354-6.1-14.642-6.1z" style="clip-rule:evenodd;fill:#ff837d;fill-opacity:1;fill-rule:evenodd;stroke-width:2.69938"/></g><style id="style853" type="text/css">.st0{fill:#fff}</style></svg>