<?xml version="1.0" encoding="UTF-8" standalone="no"?>
<svg
   xmlns:dc="http://purl.org/dc/elements/1.1/"
   xmlns:cc="http://creativecommons.org/ns#"
   xmlns:rdf="http://www.w3.org/1999/02/22-rdf-syntax-ns#"
   xmlns:svg="http://www.w3.org/2000/svg"
   xmlns="http://www.w3.org/2000/svg"
   xmlns:sodipodi="http://sodipodi.sourceforge.net/DTD/sodipodi-0.dtd"
   xmlns:inkscape="http://www.inkscape.org/namespaces/inkscape"
   viewBox="0 0 192 192"
   version="1.1"
   id="svg16"
   sodipodi:docname="d4dj_groovy_mix.svg"
   inkscape:version="0.92.4 (5da689c313, 2019-01-14)">
  <metadata
     id="metadata20">
    <rdf:RDF>
      <cc:Work
         rdf:about="">
        <dc:format>image/svg+xml</dc:format>
        <dc:type
           rdf:resource="http://purl.org/dc/dcmitype/StillImage" />
        <dc:title></dc:title>
      </cc:Work>
    </rdf:RDF>
  </metadata>
  <sodipodi:namedview
     pagecolor="#ffffff"
     bordercolor="#666666"
     borderopacity="1"
     objecttolerance="10"
     gridtolerance="10"
     guidetolerance="10"
     inkscape:pageopacity="0"
     inkscape:pageshadow="2"
     inkscape:window-width="1920"
     inkscape:window-height="1017"
     id="namedview18"
     showgrid="false"
     inkscape:zoom="4.9166667"
     inkscape:cx="46.598623"
     inkscape:cy="87.504677"
     inkscape:window-x="-8"
     inkscape:window-y="-8"
     inkscape:window-maximized="1"
     inkscape:current-layer="svg16"
     inkscape:snap-global="true">
    <inkscape:grid
       type="xygrid"
       id="grid827"
       spacingx="4"
       spacingy="4" />
  </sodipodi:namedview>
  <defs
     id="defs4">
    <style
       id="style2">.a{fill:none;stroke:#b1b5bd;stroke-linecap:round;stroke-linejoin:round;isolation:isolate;opacity:0.63;}</style>
  </defs>
  <circle
     class="a"
     cx="96"
     cy="96"
     r="88"
     id="circle8"
     style="fill:#56595b;stroke:none;opacity:1" />
  <path
     style="fill:#ffffff;stroke:none;stroke-width:0.54545385px;stroke-linecap:butt;stroke-linejoin:miter;stroke-opacity:1"
     d="M 98.9375 42.314453 C 74.239746 42.314453 50.409406 54.481249 44.09375 80.253906 L 56.134766 90.710938 L 74.072266 80.242188 C 74.072821 80.241463 74.073663 80.240959 74.074219 80.240234 C 79.073427 73.717429 87.29946 69.144531 96.742188 69.144531 C 103.73413 69.144531 111.88086 74.607422 111.88086 74.607422 L 125.45312 51.101562 C 125.45312 51.101562 113.86795 42.314453 98.9375 42.314453 z M 135.68164 42.326172 L 113.79297 80.240234 L 117.76367 85.626953 L 127.56641 80.240234 L 127.56836 80.240234 L 149.45703 42.326172 L 135.68164 42.326172 z "
     id="path829" />
  <path
     style="fill:#ffffff;stroke:none;stroke-width:0.54545385px;stroke-linecap:butt;stroke-linejoin:miter;stroke-opacity:1"
     d="m 87.798593,115.89772 c 0,0 -13.178965,-6.17676 -13.178965,-20.55292 0,-9.505642 9.164571,-20.552924 19.768462,-20.552924 10.08924,0 14.74789,5.177453 14.74789,5.177453 l -6.52828,11.307323 c 0,0 -1.93024,-3.619587 -6.650684,-3.619587 -5.585751,0 -8.572794,4.288602 -8.785987,8.315302 -0.374855,7.080343 7.373944,8.629083 7.373944,8.629083 z"
     id="path831"
     inkscape:connector-curvature="0"
     sodipodi:nodetypes="cssccsscc" />
  <path
     style="opacity:1;vector-effect:none;fill:#bd9aff;fill-opacity:1;fill-rule:evenodd;stroke:none;stroke-width:8.72726154;stroke-linecap:round;stroke-linejoin:round;stroke-miterlimit:4;stroke-dasharray:none;stroke-opacity:1;paint-order:stroke fill markers"
     d="m 44.078676,80.23996 c -1.054258,4.301178 -1.622512,8.979773 -1.622512,14.0465 0,38.46107 29.805494,53.14823 47.653697,55.22188 l 10.083449,-17.46412 h 5.54189 l -10.091966,17.47903 h 13.477616 l 9.89912,-17.14665 h 10.91975 l 6.33875,-10.97939 H 125.99048 L 140.82854,95.698035 H 127.5917 l -15.00425,25.987885 h -8.94885 l 23.92966,-41.44596 h -13.77483 l -29.916866,51.81811 h -5.334158 l 6.902336,-10.82599 c 0,0 -16.47335,-5.71034 -16.473344,-26.671829 0,-5.11873 1.885285,-10.122025 5.102972,-14.320291 z m 37.70023,0 c -4.330027,4.073597 -7.159082,9.825255 -7.159082,15.104381 0,14.376159 13.178244,20.553589 13.178244,20.553589 l 6.746801,-11.29685 c 0,0 -7.749135,-1.54783 -7.374275,-8.628185 0.213178,-4.026699 3.201165,-8.316044 8.786916,-8.316044 4.72044,0 6.64985,3.620024 6.64985,3.620024 l 6.3718,-11.036915 z"
     id="rect833"
     inkscape:connector-curvature="0" />
</svg>
