<svg xmlns="http://www.w3.org/2000/svg" xml:space="preserve" id="svg2" width="192" height="192" version="1.1"><g id="layer1" transform="translate(0 -860.362)"><g id="g5017"><path id="path3519" d="M94.53 881.288c6.984 0 95.63 3.796 69.708 138.548-2.164 9.859-5.975 7.56-13.035 8.29-13.058 1.411-41.139 5.739-61.608 3.974-10.235-.882-25.887-5.789-40.683-17.64C28.33 997.974 22.01 979.8 23.157 950.913c0 0 2.228-24.79 3.493-38.93.869-9.701.767-14.343.48-22.78-.474-13.952 10.425-7.429 22.566-7.739 3.571-.091 44.833-.176 44.833-.176z" style="fill:#70a270;fill-opacity:1;fill-rule:evenodd;stroke:none;stroke-width:3.99288;stroke-linecap:round;stroke-linejoin:round;stroke-dasharray:none;stroke-dashoffset:6;stroke-opacity:1;stop-color:#000"/><circle id="circle3527" cx="93.653" cy="957.28" r="59.909" style="fill:#97db99;fill-opacity:1;fill-rule:evenodd;stroke:none;stroke-width:1.93629;stroke-linecap:round;stroke-linejoin:round;stroke-dashoffset:6;stop-color:#000"/><circle id="circle4444" cx="93.653" cy="957.28" r="59.909" style="fill:#dff3df;fill-opacity:1;fill-rule:evenodd;stroke:none;stroke-width:1.93629;stroke-linecap:round;stroke-linejoin:round;stroke-dashoffset:6;stop-color:#000"/><path id="path3521" d="M114.183 945.796a13.11 13.11 0 0 1-11.354 6.555 13.11 13.11 0 0 1-11.353-6.555" style="fill:none;fill-opacity:1;fill-rule:evenodd;stroke:#56595b;stroke-width:3.99288;stroke-linecap:round;stroke-linejoin:round;stroke-dasharray:none;stroke-dashoffset:6;stroke-opacity:1;stop-color:#000"/><ellipse id="ellipse3523" cx="539.753" cy="768.836" rx="4.097" ry="5.181" style="fill:#56595b;fill-opacity:1;fill-rule:evenodd;stroke:none;stroke-width:6.5566;stroke-linecap:round;stroke-linejoin:round;stroke-dasharray:none;stroke-dashoffset:6;stroke-opacity:1;stop-color:#000" transform="rotate(30)"/><ellipse id="ellipse3525" cx="56.093" cy="942.868" rx="4.288" ry="4.944" style="fill:#56595b;fill-opacity:1;fill-rule:evenodd;stroke:none;stroke-width:6.5523;stroke-linecap:round;stroke-linejoin:round;stroke-dasharray:none;stroke-dashoffset:6;stroke-opacity:1;stop-color:#000" transform="matrix(-.98881 .14918 .18576 .9826 0 0)"/><path id="path3529" d="M26.44 914.336c-1.287 14.373-3.283 36.577-3.283 36.577-1.147 28.888 5.173 47.062 25.754 63.547 14.797 11.852 30.449 16.758 40.684 17.64 20.47 1.765 48.55-2.563 61.609-3.975 7.06-.73 10.87 1.57 13.035-8.29.347-1.804.662-3.574.969-5.332-11.113-45.182-32.326-46.153-80.466-42.754-30.156 2.13-48.045-28.192-58.302-57.413Z" style="fill:#97db99;fill-opacity:1;fill-rule:evenodd;stroke:none;stroke-width:3.99288;stroke-linecap:round;stroke-linejoin:round;stroke-dasharray:none;stroke-dashoffset:6;stroke-opacity:1;stop-color:#000"/></g></g><style id="style853" type="text/css">.st0{fill:#fff}</style></svg>