<svg xmlns="http://www.w3.org/2000/svg" width="192" height="192"><rect width="153" height="153" x="19.5" y="19.5" rx="10" style="opacity:1;fill:#ababff;stroke-width:4"/><path d="M125.437 140.657c1.4-.833 3.119-1.126 4.746-1.15 4.174-.065 5.28 2.223 5.28 2.223s3.458-.358 6.675 1.305c2.943 1.521 6.398 6.002 4.872 16.318-.996 6.737-8.284 11.925-16.683 11.793-6.835-.107-11.682-7.01-11.682-7.01l2.766-19.02s2.306-3.435 4.026-4.46z" style="fill:#fcecdc;stroke-width:4"/><path d="M65.764 101.695c.5-4.869 4.558-10.804 4.807-18.073.347-10.153-5.553-15.98-11.316-14.673.759-19.358 15.865-10.983 15.865-10.983s-2.107-3.462-6.4-5.506c8.993-7.937 21.857.828 21.857.828s-2.833-6.545-10.983-12.203c9.54-2.298 18.234-2.737 27.661 4.678-2.648-6.48-9.356-11.505-9.356-11.505s32.803-7.92 33.356 24.928c6.47-5.254 6.305-17.694 6.305-17.694s9.94 11.085 9.773 18.816c-.177 8.23-10.479 14.9-11.4 23.082-.611 5.434 5.053 10.196 4.882 15.66-.225 7.164-9.967 13.221-9.967 13.221l-41.491 1.83-20.136-6.915s-3.679-3.34-3.457-5.491z" style="opacity:1;fill:#f4806d;stroke-width:4"/><path d="M94.204 117.727c-9.875-.254-18.242.78-18.242.78s-15.51 3.422-18.945 13.9c-1.473 4.49 2.039 14.03 2.039 14.03l12-1.828-.914 27.891h53.953l-5.453-8.367s3.563-6.567 4.07-12c.173-1.854.406-6.914.406-6.914s2.319-4.564 4.813-5.664c.572-5.744-1.604-10.742-6.438-14.875-6.029-5.156-17.414-6.7-27.289-6.953z" style="opacity:1;fill:#979797;stroke-width:4"/><path d="m79.416 88.307 29.482-9.923 26.463 12.512.288 22.867s-3.12 19.852-30.921 19.99c-23.936.12-28.764-15.244-28.764-15.244s-1.118 2.003-3.595 1.87c-3.418-.185-4.936-4.366-5.322-7.767-.45-3.966.902-9.622 4.89-9.78 3.137-.123 3.452 4.747 3.452 4.747s3.945-5.16 4.027-9.349c.098-5.03 0-9.923 0-9.923z" style="opacity:1;fill:#fcecdc;stroke-width:4"/><path d="M122.713 112.475s-11.29 1.766-11.39-7.933c-.085-8.338.102-25.017.102-25.017l17.593 3.356.203 22.272-2.034 3.966z" style="opacity:1;fill:#fff;stroke-width:4"/><path d="M128.51 86.95s-.032 9.46-.102 16.169c-.06 5.752-5.695 9.356-5.695 9.356s8.116-1.659 8.339-8.746c.231-7.351 0-17.797 0-17.797z" style="opacity:1;fill:#f8c18c;stroke-width:4"/><path d="M93.526 112.576s12.214 1.585 12.305-8.135c.076-8.068 0-24.204 0-24.204l-17.593 2.746-.508 23.39 1.322 3.356z" style="opacity:1;fill:#fff;stroke-width:4"/><path d="M93.018 85.627h7.729v15.966h-7.729z" style="opacity:1;vector-effect:none;fill:#4a4a4a;fill-opacity:1;stroke-width:4;paint-order:stroke fill markers"/><path d="M85.696 85.525s-.096 10.58-.204 18.916c-.077 5.977 8.034 8.135 8.034 8.135s-5.44-3.66-5.491-7.83c-.102-8.362.203-21.763.203-21.763z" style="opacity:1;fill:#f8c18c;stroke-width:4"/><path d="M113.865 85.525h6.305v15.966h-6.305z" style="opacity:1;vector-effect:none;fill:#4a4a4a;fill-opacity:1;stroke-width:4;paint-order:stroke fill markers"/><path d="M47.052 96.712s-6.18-5.89-6-19.627c13.26-.185 23.39 3.356 23.39 3.356l-.916 8.847z" style="fill:#c39a54;stroke-width:4"/><path d="M62.713 85.932c-14.963 5.552-20.95 11.593-20.95 11.593 10.07 11.314 19.526 11.492 19.526 11.492s4.475-7.627 6.915-18c-2.38-.993-4.485-2.593-5.491-5.085z" style="fill:#f9de81;stroke-width:4"/><ellipse cx="69.831" cy="84.051" rx="7.627" ry="7.678" style="opacity:1;vector-effect:none;fill:#c39a54;fill-opacity:1;stroke-width:4;paint-order:stroke fill markers"/><path d="m138.813 92.622-.144-16.108s-9.88-7.084-34.229-7.479c-25.237-.409-34.804 7.479-34.804 7.479l-1.15 16.395s16.462-5.875 39.55-5.465c23.773.422 30.777 5.178 30.777 5.178z" style="fill:#f9de81;stroke-width:4"/><path d="M104.438 69.04c-2.47-.04-4.668.051-6.843.155V87.72c3.31-.206 6.749-.339 10.437-.274 3.804.068 7.038.272 10.024.524h1.101V70.25c-4.174-.65-9.017-1.118-14.719-1.21zm-.382 5.32 9.453.374-.305 7.617-9.453-.374z" style="opacity:1;vector-effect:none;fill:#98dc9a;fill-opacity:1;stroke-width:4;paint-order:stroke fill markers"/><path d="M121.39 156.814s.838 1.296 1.018 3.152c.48 4.953-.509 9.356-.509 9.356s-5.898 3.27-19.525 3.153c-19.628-.169-27.254-3.255-27.254-3.255l2.745-16.881s6.847 5.67 25.22 6.407c4.302.172 8.66.55 12.916-.102 2.424-.371 5.39-1.83 5.39-1.83z" style="opacity:1;fill:#71a372;stroke-width:4"/><path d="M58.235 129.969s-5.98 3.64-6.71 17.086c-.71 13.073 4.584 20.938 9.398 25.445h22.133c.259-.883.406-1.656.406-1.656s2.048-.687 2.82-1.852c1.543-2.326 1.688-4.844 1.688-4.844s2.46-1.474 3.015-3.265c1.552-5.003.063-8.113-2.851-9.969-1.448-.922-5.078.813-5.078.813s.136-4.846-3.868-6.508c-2.198-.913-6.71 2.445-6.71 2.445s-.146-5.775-6.305-12.61c-2.103-2.332-7.938-5.085-7.938-5.085z" style="opacity:1;fill:#fcecdc;stroke-width:4"/><path d="M101.845 161.914c-1.497.002-2.967.336-4.352 1.102-2.883 3.193-5.584 6.732-7.578 9.484h13.055c-.22-2.162-.414-4.479-.492-6.938 1.296 2.387 2.021 4.743 2.562 6.938h10.969c-2.261-3.005-5.733-7.144-9.672-9.688-1.475-.571-2.995-.9-4.492-.898z" style="opacity:1;fill:#98dc9a;stroke-width:4"/><ellipse cx="102.526" cy="161.492" rx="8.085" ry="6.61" style="opacity:1;vector-effect:none;fill:#e0f4e0;fill-opacity:1;stroke-width:4;paint-order:stroke fill markers"/><path d="M131.764 168.407s-5.92-2.25-5.899-4.78c.017-1.98 2.714-3.412 4.678-3.66 2.606-.331 7.22 3.152 7.22 3.152s-2.263-2.758-3.762-3.661c-1.883-1.136-4.032-.666-4.17-2.238-.196-2.236 1.877-4.09 5.289-4.17 2.82-.065 8.237 1.933 8.237 1.933s-1.78-2.483-7.22-3.763c1.032-3.402.813-7.017.813-7.017s-.827 8.087-4.678 7.933c-4.844-.195-4.068-6.407-4.068-6.407s-1.367 3.21-1.118 5.085c.249 1.873 1.83 1.932 1.83 1.932s-1.632.671-2.949 2.847c1.082.52 2.034 1.424 2.034 1.424s-4.741 2.682-4.78 4.983c-.117 7.005 8.543 6.407 8.543 6.407z" style="opacity:1;fill:#f8c18c;stroke-width:4"/><path d="M82.79 149.906c-.004.544-.107 1.942-1.875 2.531-1.18.394-3.25-1.828-3.25-1.828s1.136 2.918 2.438 3.461c1.141.477 2.987.426 3.664-.61.447-.683.848-1.551 1.203-2.452-1.033.314-1.914.719-1.914.719s-.053-.82-.266-1.82zm-5.023 11.89c2.976 3.515 7.213 4.54 9.617 4.876.48-1.405.586-2.524.586-2.524s.1-.08.11-.086c-2.478-.253-6.657-.782-10.313-2.265zm-4.782 8.235c2 1.26 3.715 1.978 5.22 2.469H83l.46-1.656s.126-.057.142-.063c-1.74.09-5.86.226-10.618-.75z" style="fill:#f8c18c;stroke-width:4"/></svg>