<svg xmlns="http://www.w3.org/2000/svg" width="192" height="192"><style>.st0{fill:#fff}</style><path d="M52 84S41.77 57.454 36.817 40.128c-2.61-9.13-2.873-26.232 5.753-30.202 7.563-3.48 18.645 4.401 23.01 14.957 8.86 21.42 17.547 46.597 17.547 46.597z" style="fill:#ececec;stroke-width:4"/><path d="M40.844 29.198c-.777-3.966.701-10.16 4.602-11.218 4.424-1.2 8.917 4.224 10.93 8.341C67.741 49.56 77.373 74.356 77.373 74.356l-16.108 7.191s-15.12-25.278-20.422-52.35z" style="fill:#f58f8a;stroke-width:4"/><ellipse cx="96" cy="124" rx="68" ry="60" style="fill:#fff;paint-order:stroke fill markers;stroke-width:4"/><path d="M110.24 68.136s.98-14.93 4.068-21.559c5.259-11.291 14.512-20.342 24.814-18.915 22.775 3.154 29.422 17.198 27.254 30.712-.683 4.26-6.882 6.224-11.186 6.508-2.639.175-6.497-2.715-7.322-.203-2.645 8.05-3.458 19.932-3.458 19.932z" style="fill:#f58f8a;stroke-width:4"/><path d="M119.19 65.085c7.879 2.139 11.489 3.36 17.288 7.322 4.417-5.41 5.288-16.881 5.288-16.881s-2.781-6.108-10.576-10.576c-4.5 3.203-8.798 8.19-12 20.136z" style="fill:#ececec;stroke-width:4"/><path d="M96 64v120a68 60 0 0 0 68-60 68 60 0 0 0-68-60z" style="fill:#ffd6d4;paint-order:stroke fill markers;stroke-width:4"/><path d="M77.773 35.578a9.853 9.853 0 0 0-1.703.219C67.54 37.62 62.108 49.375 59.75 55.719c-.738-.392-1.596-.639-2.438-.586a3.64 3.64 0 0 0-.976.187c-.843.293-1.717.962-2.156 1.774-6.691-4.068-19.835-10.824-27.125-6.04-7.709 5.06-3.648 19.279.203 27.657 3.491 7.597 10.642 17.696 18.914 16.477 7.282-1.074 12.467-14.38 14.672-21.211.699.361 1.481.559 2.21.46.956-.128 1.853-.943 2.235-1.827.096-.222.136-.459.203-.688 5.657 3.025 16.9 8.209 22.781 5.164 8.33-4.312 6.119-15.952 3.86-23.594C90.015 46.33 86 35.277 77.773 35.578z" style="fill:#d6c8ba;stroke-width:4"/><path d="M57.312 55.133a3.64 3.64 0 0 0-.977.188c-1.133.393-2.325 1.454-2.437 2.648-.115 1.229.387 2.467 1.031 3.688-.735.621-2.395 1.893-5.781 2.875-.835.242-2.45.365-3.781.39-1.332.024-2.407-.024-2.407-.024a1.001 1.001 0 1 0-.093 2s1.138.05 2.539.024c1.4-.028 3.043-.105 4.297-.468 3.326-.965 5.143-2.214 6.203-3.047.224.394.4.777.594 1.164a66.894 66.894 0 0 1-4.696 4.656c-.404.365-1.393.938-2.234 1.352s-1.547.703-1.547.703a1 1 0 1 0 .766 1.843s.758-.312 1.664-.757c.906-.446 1.95-.984 2.695-1.657a69.769 69.769 0 0 0 4.133-4.046c.584 2.192.639 4.257 2.11 6.148.819 1.054 2.34 1.803 3.663 1.625.955-.128 1.853-.944 2.235-1.828.775-1.796.583-3.849.14-5.852.888.533 1.943 1.096 3.203 1.516 2.064.688 4.79 1.25 4.79 1.25a1.001 1.001 0 0 0 .406-1.961s-2.695-.565-4.563-1.188c-2.572-.857-4.406-2.39-4.601-2.554a32.58 32.58 0 0 0-1.282-3.563c1.464.552 3.011 1.13 3.93 1.328 2.146.463 6.063.633 6.063.633a1.001 1.001 0 1 0 .093-2s-4.015-.215-5.734-.586c-.64-.138-2.531-.803-4.14-1.414-.927-.351-1.173-.456-1.735-.68-.476-.615-1.018-1.166-1.656-1.609a4.711 4.711 0 0 0-2.891-.797z" style="opacity:.25;stroke-width:4"/><ellipse cx="96" cy="142" rx="12" ry="10" style="fill:#56595b;paint-order:stroke fill markers;stroke-width:4"/><path d="M77.898 138.03s-1.529 3.97-1.016 5.898c3.125 11.742 17.735 12.893 18.914 12.97v.046s.191-.024.204-.024c.012 0 .203.024.203.024v-.047c1.178-.076 15.79-1.226 18.914-12.969.513-1.928-1.016-5.898-1.016-5.898l-6.71.61s-.094 3.623-1.016 5.085c-2.879 4.563-9.795 5.218-10.375 5.266-.58-.048-7.497-.703-10.375-5.266-.923-1.462-1.016-5.086-1.016-5.086z" style="fill:#d8d8d8;stroke-width:4"/><path d="M96 116s-24 0-24 16c0 5.272 3.83 10.662 12 10.305 7.471-.326 12-6.305 12-6.305s4.529 5.979 12 6.305c8.17.357 12-5.032 12-10.305 0-16-24-16-24-16z" style="fill:#ececec;stroke-width:4"/><path d="M69.211 100.48a.8.8 0 0 0-.719 1.07s.538 1.663 1.32 2.79c.363.52.483.612.704.859a6 6 0 0 0-.243.172c-.735-.083-1.309-.07-2.03-.82-.234-.244-.642-.924-.93-1.5a21.123 21.123 0 0 1-.493-1.055.8.8 0 1 0-1.476.61s.222.53.539 1.163c.316.633.693 1.36 1.203 1.89a6.36 6.36 0 0 0 1.68 1.227 6 6 0 0 0-1.04 3.383 6 6 0 0 0 6 6 6 6 0 0 0 6-6 6 6 0 0 0-6-6 6 6 0 0 0-1.742.266c-.294-.372-.536-.645-.859-1.11-.532-.765-1.117-2.39-1.117-2.39a.8.8 0 0 0-.797-.555z" style="fill:#56595b;paint-order:stroke fill markers;stroke-width:3.901"/><path d="M58 120a10 10 0 0 0-10 10 10 10 0 0 0 10 10 10 10 0 0 0 10-10 10 10 0 0 0-10-10zm76 0a10 10 0 0 0-10 10 10 10 0 0 0 10 10 10 10 0 0 0 10-10 10 10 0 0 0-10-10z" style="fill:#ff837d;paint-order:stroke fill markers;stroke-linecap:round;stroke-linejoin:round;stroke-width:1.6"/><path d="M96 134c-3.856-3.452-8-3.019-8-6 0-4 5.019-4 8-4s8 0 8 4c0 2.981-3.868 1.973-8 6z" style="fill:#ff837d;stroke-width:4"/><path d="M122.79 100.48a.8.8 0 0 1 .719 1.07s-.538 1.663-1.32 2.79c-.363.52-.483.612-.704.859a6 6 0 0 1 .243.172c.735-.083 1.309-.07 2.03-.82.234-.244.642-.924.93-1.5.289-.577.493-1.055.493-1.055a.8.8 0 1 1 1.476.61s-.222.53-.539 1.163c-.316.633-.693 1.36-1.203 1.89a6.361 6.361 0 0 1-1.68 1.227 6 6 0 0 1 1.04 3.383 6 6 0 0 1-6 6 6 6 0 0 1-6-6 6 6 0 0 1 6-6 6 6 0 0 1 1.742.266c.294-.372.536-.645.859-1.11.532-.765 1.117-2.39 1.117-2.39a.8.8 0 0 1 .797-.555z" style="fill:#ff837d;paint-order:stroke fill markers;stroke-width:3.901"/></svg>