<svg width="192" height="192" version="1.1" viewBox="0 0 192 192" xmlns="http://www.w3.org/2000/svg">
 <circle cx="162" cy="94" r="22" style="fill:#73ada4;paint-order:stroke fill markers;stroke-width:1.5714"/>
 <circle cx="30" cy="94" r="22" style="fill:#73ada4;paint-order:stroke fill markers;stroke-width:1.5714"/>
 <path d="m96 72s16.136-12.197 12.571-18.857c-3.9546-7.3893-20.242 3.6561-25.143-3.1429-3.8741-5.3751 6.2857-15.714 6.2857-15.714" style="fill:none;stroke-linecap:round;stroke-linejoin:round;stroke-width:9.5857;stroke:#73ada4"/>
 <ellipse cx="96" cy="116" rx="69.143" ry="56.571" style="fill:#96dfd3;paint-order:stroke fill markers;stroke-width:1.5714"/>
 <circle cx="96" cy="28" r="12.571" style="fill:#f58f8a;paint-order:stroke fill markers;stroke-width:1.5714"/>
 <path d="m96 84.571s-69.143 0-69.143 18.857v18.857c0 12.571 12.571 12.571 12.571 12.571h31.429c4.6851 0 10.476-2.0952 12.571-6.2857 4.1905-8.381 2.6585-18.857 12.571-18.857 9.5832 0 7.1788 9.7205 12.571 18.857 2.3814 4.0347 7.8863 6.2857 12.571 6.2857h31.429s12.571 0 12.571-12.571v-18.857c0-18.857-69.143-18.857-69.143-18.857z" style="fill:#f8c18c;stroke-width:1.5714"/>
 <path d="m96 84.571s-52.753 0.0022-66.098 12.571h132.2c-13.345-12.569-66.098-12.571-66.098-12.571z" style="fill:#ff837d;paint-order:stroke fill markers;stroke-width:1.5714"/>
 <path d="m26.857 122.29c0 12.571 12.571 12.571 12.571 12.571h31.429c4.6851 0 10.476-2.0952 12.571-6.2857 1.0161-2.0321 1.6894-4.1864 2.2773-6.2857zm78.992 0c0.65707 2.0435 1.4782 4.1778 2.7224 6.2857 2.3814 4.0347 7.8863 6.2857 12.571 6.2857h31.429s12.571 0 12.571-12.571z" style="fill:#f9de81;paint-order:stroke fill markers;stroke-width:1.5714"/>
 <path d="m29.902 97.142c-1.9321 1.8198-3.0446 3.9008-3.0446 6.2857v6.2857h138.29v-6.2857c0-2.3849-1.1125-4.4659-3.0446-6.2857z" style="fill:#ff837d;opacity:.5;paint-order:stroke fill markers;stroke-width:1.5714"/>
</svg>
