<svg width="192" height="192" version="1.1" viewBox="0 0 192 192" xmlns="http://www.w3.org/2000/svg">
 <rect x="20" y="20" width="152" height="152" rx="9.9346" display="none" fill="none" opacity=".63" stroke="#b1b5bd" stroke-width=".99996"/>
 <rect x="20" y="20" width="152" height="152" rx="9.9346" fill="#56595b" stroke-width="0"/>
 <g transform="translate(-.81675 1.0519)" stroke-width="0">
  <g transform="matrix(1.1493,0,0,1.1493,-15.24,-15.524)" fill="#d2d2d2">
   <path d="m70 79.231 8.4615 55c12.692 3.4009 25.445 3.3846 38.077 0l8.4615-55z"/>
   <rect x="70" y="63.928" width="55" height="4.2308" ry="2.1154"/>
  </g>
  <g transform="matrix(1.1493,0,0,1.1493,-15.24,-15.524)" fill="#a0a5af">
   <rect x="95.385" y="83.462" width="4.2308" height="46.538" ry="2.1154"/>
   <rect transform="rotate(11)" x="127.79" y="60.959" width="4.2308" height="46.538" ry="2.1154"/>
   <rect transform="matrix(-.98163 .19081 .19081 .98163 0 0)" x="-63.635" y="98.161" width="4.2308" height="46.538" ry="2.1154"/>
   <path d="m86.923 63.417v-6.4843a1.4659 1.4659 0 0 1 1.4659-1.4659h18.16a1.5274 1.5274 0 0 1 1.5274 1.5274v5.9341a1 1 0 0 1-1 1h-2.7195a0.51127 0.51127 0 0 1-0.51127-0.51127v-2.1822a1.5373 1.5373 0 0 0-1.5373-1.5373h-9.653a1.502 1.502 0 0 0-1.502 1.502v2.2175a0.51127 0.51127 0 0 1-0.51127 0.51127h-3.2082a0.51127 0.51127 0 0 1-0.51127-0.51127z"/>
  </g>
  <g transform="matrix(1.9817,0,0,1.9817,-96.544,-81.478)" fill="#98dc9a">
   <path d="m97.025 75.63a9.6779 9.6779 0 0 0-7.4902 3.6016h14.965c0.0166 0 0.0326 0.0023 0.0488 0.0039a9.6779 9.6779 0 0 0-7.5234-3.6055z"/>
   <rect transform="rotate(45)" x="115.34" y="-10.962" width="5.5017" height="1.6923" ry=".84615"/>
   <rect transform="matrix(-.70711 .70711 .70711 .70711 0 0)" x="-22.55" y="126.92" width="5.5017" height="1.6923" ry=".84615"/>
  </g>
 </g>
</svg>
