<svg xmlns="http://www.w3.org/2000/svg" viewBox="0 0 192 192"><defs><clipPath id="a"><rect width="153" height="153" x="19.5" y="19.5" rx="10" style="fill:none"/></clipPath></defs><g style="clip-path:url(#a)"><rect width="153" height="153" x="19.5" y="19.5" rx="10" style="fill:#56595b"/><path d="m59.77 119.25 7.3 14.4a1 1 0 0 0 .9.55h56.68a1 1 0 0 0 .9-.58l6.7-14.39a1 1 0 0 0-.09-1l-2.79-3.94a1 1 0 0 0-1.23-.33l-15.8 7.3-43.44-14.42a1 1 0 0 0-1.13.37l-7.92 11a1 1 0 0 0-.08 1.04Z" style="fill:#96dfd3"/><path d="m62.05 123.8 5.09 10.4h58.14l5.72-12.1-18.45 5a1 1 0 0 1-.46 0l-33.29-6.66a1.34 1.34 0 0 0-.4 0L62 123.8Z" style="fill:#73ada4"/><path d="M88.15 58.8v18.43a1 1 0 0 1-.17.56l-12 17.75a1 1 0 0 0 .51 1.51l35.31 11.77a1 1 0 0 0 .73 0l9.17-4.22a1 1 0 0 0 .41-1.48l-17.4-25.29a.94.94 0 0 1-.18-.56V58.8a1 1 0 0 0-1-1H89.15a1 1 0 0 0-1 1Z" style="fill:#fff"/></g></svg>