<?xml version="1.0" encoding="UTF-8" standalone="no"?>
<!DOCTYPE svg PUBLIC "-//W3C//DTD SVG 1.1//EN" "http://www.w3.org/Graphics/SVG/1.1/DTD/svg11.dtd">
<svg width="100%" height="100%" viewBox="0 0 192 192" version="1.1" xmlns="http://www.w3.org/2000/svg" xmlns:xlink="http://www.w3.org/1999/xlink" xml:space="preserve" xmlns:serif="http://www.serif.com/" style="fill-rule:evenodd;clip-rule:evenodd;stroke-linejoin:round;stroke-miterlimit:2;">
    <g id="Calque-1" serif:id="Calque 1" transform="matrix(1,0,0,1,0,-860.362)">
        <path id="path921" d="M165.943,1006.74L104.66,1042.13C99.308,1045.22 92.692,1045.22 87.34,1042.13L26.057,1006.74C20.704,1003.65 17.396,997.924 17.396,991.744L17.396,920.98C17.396,914.8 20.704,909.071 26.057,905.98L87.34,870.599C92.692,867.508 99.308,867.508 104.66,870.599L165.943,905.98C171.296,909.071 174.604,914.8 174.604,920.98L174.604,991.744C174.604,997.924 171.296,1003.65 165.943,1006.74Z" style="fill:rgb(84,104,140);fill-rule:nonzero;"/>
        <g id="polygon1011" transform="matrix(0.384579,0,0,0.384579,46.9138,899.724)">
            <path d="M76.719,62.182L65.455,114.461L186.545,114.545L174.718,62.182L76.719,62.182Z" style="fill:white;fill-rule:nonzero;"/>
        </g>
        <g id="polygon1013" transform="matrix(0.384579,0,0,0.384579,46.9138,899.724)">
            <path d="M66.045,130.909L32.727,155.156L78.213,232.364L96.341,232.364L117.818,212.743L117.818,203.012L95.525,182.115L95.525,149.254L66.045,130.909Z" style="fill:white;fill-rule:nonzero;"/>
        </g>
        <g id="polygon1015" transform="matrix(0.384579,0,0,0.384579,46.9138,899.724)">
            <path d="M159.795,149.493L159.795,182.354L137.455,203.172L137.537,213.062L159.138,232.364L177.125,232.364L222.545,155.395L189.117,130.909L159.795,149.493Z" style="fill:white;fill-rule:nonzero;"/>
        </g>
        <g id="polygon1017" transform="matrix(0.384579,0,0,0.384579,46.9138,899.724)">
            <path d="M160.364,121.091L94.909,121.091L105.929,148.94L102.532,180L152.741,179.92L149.593,148.94L160.364,121.091Z" style="fill:white;fill-rule:nonzero;"/>
        </g>
    </g>
</svg>
