<svg xmlns="http://www.w3.org/2000/svg" viewBox="0 0 192 192"><title>Delivery Club</title><circle cx="96" cy="96" r="88" fill="#98dc9a"/><path d="M103.1,119.14c-.14-1.31.66-7.77.66-7.77s1.6.27,3.15.44,4,.31,4,.31-1.34,4.84-.56,5.95c1.8,2.55,11.65,8.86,13.91,11.39a27.6,27.6,0,0,0,3.69,3.21c1,.84,4.22.94,5.06,1.78.57.61,1.26,2.39.91,2.71a30.47,30.47,0,0,1-6,.18,4.14,4.14,0,0,1-2-.9,1.39,1.39,0,0,1-1.65.21c-1.7-.84-1.44-2.58-2.43-4-.57-.57-8.84-6-14.18-9C103.11,121.1,103.31,121.14,103.1,119.14ZM70.19,102.43c-1-.88-4.66,2.25-5.7,2s0-2.81-.95-2.65c-1.26.21-1.6,3.15-2.73,3.38-1.82.68-2.86-2-2.86-5.29a9.86,9.86,0,0,1,5.11-9,18.72,18.72,0,0,1,14.32-1.33c4.3-2.3,10-9,22.57-9.28s17.33,6,20,4.47a6.93,6.93,0,0,0,3-7.43c-1.12-4.86-3.29-7.5-5-11.82a11.24,11.24,0,0,1,.22-8.92,5.63,5.63,0,0,1,4.36-2.78c2.26-.25,2.85,1.64,4.43,2.15s4.94.83,5.21,2-3.78,2.14-4.7,2c-2.15-.22-3.5,1.22-3.39,3.76.14,3.24.91,4.4,3.9,9s3,12.27-.86,17.62A26.41,26.41,0,0,0,123.78,95c-.68,1.43,0-1.46,0,4.25s-2.88,8.46-6.65,9.67c-5.08,1.62-9.46,1-13.95.49-6.2-.73-11.06-.65-13.59,0-2.2.56-9.07,4.43-9.91,6.23-.45,1-2.88,11.08-3.32,13.31-.19.91-.08,2.73-.51,3.54s-6.12,4.46-8,5.19c-.88.34-2.67.77-2.88.46-1.25-1.44-1.25-1.77,2.39-4.39-1.27-2.63,2.39-3.27,3.47-4.57s3.31-16.75,4-18.75,3.59-2.69,4.74-4.47c-.54-.63-1.3-.29-3.31.27-1.72.48-5.31,1.76-6.07,1.12S71.18,103.31,70.19,102.43Z" fill="#fff" fill-rule="evenodd"/></svg>