<svg xmlns="http://www.w3.org/2000/svg" xmlns:xlink="http://www.w3.org/1999/xlink" width="192" height="192"><defs><path id="a" d="M.476.723h144.311v146.554H.476z"/><path id="b" d="M.476.723h144.311v146.554H.476z"/><path id="c" d="M.476.723h144.311v146.554H.476z"/><clipPath id="d" clip-path="url(#SVGID_23_)"><use xlink:href="#SVGID_15_" overflow="visible" width="100%" height="100%"/></clipPath><clipPath id="e"><use height="100%" width="100%" overflow="visible" xlink:href="#c"/></clipPath></defs><circle r="36" cy="96" cx="96" fill="none" fill-rule="evenodd" stroke="#b1b5bd"/><path clip-path="url(#d)" d="M.816.723C.702.723.589.727.475.727v146.544c.114 0 .227.004.341.004 40.47 0 73.277-32.807 73.277-73.275S41.286.723.816.723" transform="translate(-85.677 161.235)" fill="#550fed"/><rect width="153" height="153" x="19.5" y="19.5" rx="10" fill="#bd9afe" fill-rule="evenodd"/><g fill="#fff"><path d="M51.096 50.182l-.213.003v91.63l.213.003c25.305 0 45.818-20.514 45.818-45.817 0-25.304-20.513-45.819-45.818-45.819"/><path d="M.475 147.271l71.035.004c40.47 0 73.277-32.808 73.277-73.275C144.787 33.533 111.98.724 71.51.724L.475.728z" clip-path="url(#e)" transform="matrix(.62528 0 0 .62528 50.585 49.73)" opacity=".3"/></g></svg>