<?xml version="1.0" encoding="UTF-8" standalone="no"?>
<svg
   sodipodi:docname="dictionary_com.svg"
   inkscape:version="1.2 (dc2aedaf03, 2022-05-15)"
   version="1.1"
   id="svg2"
   viewBox="0 0 192 192"
   height="192"
   width="192"
   inkscape:export-filename="png/dictionary_com.png"
   inkscape:export-xdpi="96"
   inkscape:export-ydpi="96"
   xml:space="preserve"
   xmlns:inkscape="http://www.inkscape.org/namespaces/inkscape"
   xmlns:sodipodi="http://sodipodi.sourceforge.net/DTD/sodipodi-0.dtd"
   xmlns="http://www.w3.org/2000/svg"
   xmlns:svg="http://www.w3.org/2000/svg"
   xmlns:rdf="http://www.w3.org/1999/02/22-rdf-syntax-ns#"
   xmlns:cc="http://creativecommons.org/ns#"
   xmlns:dc="http://purl.org/dc/elements/1.1/"><sodipodi:namedview
     inkscape:document-rotation="0"
     inkscape:window-maximized="1"
     inkscape:window-y="0"
     inkscape:window-x="1920"
     inkscape:window-height="1022"
     inkscape:window-width="1680"
     units="px"
     showgrid="false"
     inkscape:current-layer="layer1"
     inkscape:document-units="px"
     inkscape:cy="174"
     inkscape:cx="-18.5"
     inkscape:zoom="0.99999999"
     inkscape:pageshadow="2"
     inkscape:pageopacity="0.0"
     borderopacity="1.0"
     bordercolor="#666666"
     pagecolor="#ffffff"
     id="base"
     inkscape:snap-bbox="false"
     inkscape:object-paths="true"
     inkscape:snap-nodes="true"
     showguides="true"
     inkscape:guide-bbox="true"
     inkscape:snap-object-midpoints="true"
     inkscape:snap-center="true"
     inkscape:snap-global="false"
     inkscape:snap-intersection-paths="true"
     inkscape:snap-smooth-nodes="true"
     inkscape:snap-midpoints="true"
     inkscape:showpageshadow="0"
     inkscape:pagecheckerboard="0"
     inkscape:deskcolor="#d1d1d1" /><defs
     id="defs4" /><metadata
     id="metadata7"><rdf:RDF><cc:Work
         rdf:about=""><dc:format>image/svg+xml</dc:format><dc:type
           rdf:resource="http://purl.org/dc/dcmitype/StillImage" /></cc:Work></rdf:RDF></metadata><g
     transform="translate(0,-860.36216)"
     id="layer1"
     inkscape:groupmode="layer"
     inkscape:label="Calque 1"><rect
       style="fill:#99bdfe;fill-opacity:1;fill-rule:evenodd;stroke:none;stroke-width:0.993464;stroke-opacity:1"
       width="152"
       height="152"
       x="20"
       y="880.36218"
       rx="9.9346409"
       id="rect1098"
       ry="9.9346409" /><g
       style="fill:#ffffff;fill-opacity:1"
       id="g1102"
       transform="matrix(0.68137776,0,0,0.68137776,63.67757,921.31772)"><path
         d="M 49.5428,0.820961 1.64406,0.432161 C 1.46887,0.43094 1.29516,0.464598 1.13295,0.531197 0.970738,0.597796 0.823228,0.69602 0.698915,0.820212 0.574602,0.944403 0.475943,1.09211 0.408618,1.25482 0.341294,1.41753 0.306636,1.59203 0.306641,1.76828 V 85.1165 c 1.41e-4,0.2597 0.067893,0.5149 0.196516,0.7401 0.128622,0.2252 0.31363,0.4126 0.536613,0.5436 L 36.96,107.408 c 0.1795,0.104 0.3832,0.16 0.5906,0.16 0.2074,0 0.4113,-0.055 0.591,-0.159 0.1797,-0.104 0.329,-0.254 0.4328,-0.435 0.1038,-0.18 0.1585,-0.385 0.1586,-0.594 V 28.4412 c 1e-4,-0.2663 -0.0711,-0.5277 -0.206,-0.7568 -0.1349,-0.2291 -0.3287,-0.4175 -0.5609,-0.5454 L 18.8711,16.626 c -0.158,-0.0884 -0.2799,-0.2302 -0.3441,-0.4002 -0.0642,-0.1701 -0.0666,-0.3575 -0.0068,-0.5291 0.0598,-0.1716 0.178,-0.3165 0.3337,-0.409 0.1557,-0.0925 0.3388,-0.1267 0.5172,-0.0966 l 34.4478,5.9462 c 0.3161,0.0534 0.6031,0.2179 0.8098,0.4643 0.2068,0.2464 0.3198,0.5586 0.319,0.8811 v 70.166 c 2e-4,0.1944 0.0416,0.3866 0.1212,0.5636 0.0797,0.1771 0.196,0.3351 0.3411,0.4636 0.145,0.1284 0.3156,0.2243 0.5003,0.2813 0.1848,0.057 0.3795,0.0738 0.5712,0.0493 C 81.9876,91.1337 99.3741,73.0637 99.6993,47.9985 100.052,19.9215 79.4293,1.21285 49.5428,0.820961 Z"
         fill="#ffffff"
         id="path1100"
         style="fill:#ffffff;fill-opacity:1" /></g></g><style
     type="text/css"
     id="style853">
	.st0{fill:#FFFFFF;}
</style><style
     type="text/css"
     id="style853-9">
	.st0{fill:#FFFFFF;}
</style><style
     type="text/css"
     id="style853-3">
	.st0{fill:#FFFFFF;}
</style></svg>
