<?xml version="1.0" encoding="UTF-8"?>
<svg width="192" height="192" version="1.1" viewBox="0 0 192 192" xml:space="preserve" xmlns="http://www.w3.org/2000/svg" xmlns:cc="http://creativecommons.org/ns#" xmlns:dc="http://purl.org/dc/elements/1.1/" xmlns:rdf="http://www.w3.org/1999/02/22-rdf-syntax-ns#" xmlns:xlink="http://www.w3.org/1999/xlink"><metadata><rdf:RDF><cc:Work rdf:about=""><dc:format>image/svg+xml</dc:format><dc:type rdf:resource="http://purl.org/dc/dcmitype/StillImage"/></cc:Work></rdf:RDF></metadata><rect x="20" y="20" width="152" height="152" rx="9.9346" fill="#fff"/><path d="m101.38 125.37s-22.706-0.0997-33.491-0.0997c-1.8795 0-3.987-2.1075-3.987-3.987v-37.079l29.005-29.005c1.3391-1.3391 4.3423-1.3391 5.6814 0 9.3383 9.3383 29.504 29.504 29.504 29.504v36.58c0 1.7855-2.0021 3.7876-3.7876 3.7876h-8.4723s-6.9668 8.4619-10.366 11.861c-0.96323 0.96323-4.0866 1.3622-4.0866 0z" fill="none" stroke="#728dbe" stroke-linecap="round" stroke-linejoin="round" stroke-width="3.1896"/><path d="m75.966 115.45 20.598-0.0722v-16.027c0-2.2175-2.4865-4.704-4.704-4.704h-10.84c-2.436 0-5.1675 2.7315-5.1675 5.1675 0 5.1113 0.11401 15.635 0.11401 15.635z" fill="#98dc9a"/><path d="m98.64 115.8 17.235-0.0604v-13.411c0-1.8555-2.0806-3.9361-3.9361-3.9361h-9.0708c-2.0383 0-4.324 2.2856-4.324 4.324 0 4.277 0.0954 13.083 0.0954 13.083z" fill="#f9de81"/><circle cx="86.709" cy="84.053" r="8.1405" fill="#9abeff"/><ellipse cx="107.21" cy="89.442" rx="6.541" ry="6.411" fill="#ff837d"/></svg>
