<svg width="192" height="192" version="1.1" viewBox="0 0 192 192" xml:space="preserve" xmlns="http://www.w3.org/2000/svg"><rect x="20" y="20" width="152" height="152" rx="9.9346" fill="#ffd6d4"/><path id="path" d="m99.58 66.289v0.07155c0 2.3956 1.609 4.398 3.8616 5.1131 10.19 3.1823 17.592 12.658 17.592 23.885 0 1.8593-0.21453 3.6113-0.60785 5.3276-0.50058 2.2884 0.42908 4.6482 2.4672 5.864l0.0357 0.0357c3.075 1.7878 7.0797 0.17878 7.902-3.2538 0.60785-2.5744 0.92965-5.2561 0.92965-7.9736 0-16.09-10.655-29.749-25.315-34.218-3.3968-1.0369-6.8651 1.5733-6.8651 5.1488zm-7.3657 53.813c-10.691-1.5375-19.38-10.226-20.953-20.881-1.9308-12.872 5.9355-24.207 17.27-27.747 2.2884-0.67936 3.8974-2.7174 3.8974-5.1131v-0.07155c0-3.5756-3.4683-6.1858-6.9009-5.1488-16.126 4.9343-27.389 20.953-24.958 39.188 2.1096 15.661 14.767 28.319 30.428 30.428 11.227 1.5018 21.597-2.1811 29.07-9.0462 2.6459-2.4314 2.1811-6.7578-0.92965-8.5457-2.0738-1.2157-4.6483-0.82237-6.436 0.78664-5.2561 4.7913-12.55 7.33-20.488 6.15z" fill="#ba6561" stroke-width="2.349"/></svg>
