<svg width="192" height="192" version="1.1" viewBox="0 0 192 192" xml:space="preserve" xmlns="http://www.w3.org/2000/svg"><rect x="20" y="20" width="152" height="152" rx="9.9346" fill="#f8c18c"/><path id="path" d="m56.629 106.03q-1.0605 0-1.7675-0.75117-0.707-0.75119-0.707-1.8117v-14.935q0-0.97214 0.707-1.7233 0.707-0.75119 1.8559-0.75119 1.0605 0 1.7675 0.75119 0.707 0.75118 0.707 1.7233v14.935q0 1.0605-0.75119 1.8117-0.75119 0.75117-1.8117 0.75117zm10.517 7.6886q-1.0605 0-1.8117-0.707-0.75119-0.707-0.75119-1.8559v-30.313q0-1.0605 0.75119-1.8117 0.75119-0.75119 1.8117-0.75119t1.8117 0.75119q0.75119 0.75118 0.75119 1.8117v30.313q0 1.1489-0.75119 1.8559-0.75119 0.707-1.8117 0.707zm68.137-7.6886q-1.0605 0-1.8117-0.75117-0.7512-0.75119-0.7512-1.8117v-14.935q0-0.97214 0.7512-1.7233 0.75119-0.75119 1.8117-0.75119t1.8117 0.75119q0.7512 0.75118 0.7512 1.7233v14.935q0 1.0605-0.7512 1.8117-0.75118 0.75117-1.8117 0.75117zm-10.517 7.6886q-1.0605 0-1.7675-0.707-0.70699-0.707-0.70699-1.8559v-30.313q0-1.0605 0.70699-1.8117 0.70701-0.75119 1.8559-0.75119 1.0605 0 1.7675 0.75119 0.70699 0.75118 0.70699 1.8117v30.313q0 1.1489-0.75118 1.8559-0.7512 0.707-1.8117 0.707zm-43.922 13.698q-2.2978 0-4.0211-1.7233-1.7233-1.7233-1.7233-4.0211v-51.346q0-2.3861 1.7233-4.0652 1.7233-1.6791 4.0211-1.6791h30.224q2.3861 0 4.1095 1.6791 1.7233 1.6791 1.7233 4.0652v51.346q0 2.2978-1.7233 4.0211-1.7233 1.7233-4.1095 1.7233z" fill="#56595b" stroke-width="1.0312"/></svg>
