<svg xmlns="http://www.w3.org/2000/svg" width="192" height="192"><g stroke-width="0"><rect width="152" height="152" x="20" y="20" fill="#56595b" rx="9.935"/><path fill="#8c72bd" d="M90.751 95.007 68.759 100.9l3.918 14.62a11.359 11.359 0 0 0 13.942 8.05 11.359 11.359 0 0 0 8.05-13.942z"/><path fill="#bd9aff" d="M71.844 68.43a11.359 11.359 0 0 0-8.05 13.942l3.88 14.476 21.991-5.893-3.879-14.476a11.359 11.359 0 0 0-13.942-8.05z"/></g><path fill="#fff" stroke-width="1.18" d="M108.45 103.59h8.97v-4.485c0-5.823 11.175-2.518 11.175-15.738 0-8.184-6.846-14.636-15.66-14.636-9.757 0-16.681 7.318-15.737 16.76h8.813c-.787-4.484 2.203-8.104 6.924-8.104 3.856 0 6.925 2.675 6.925 5.98 0 9.521-11.41 2.99-11.41 16.288zm4.721 14.872a5.474 5.474 0 0 0 5.508-5.508c0-3.069-2.439-5.587-5.508-5.587s-5.587 2.518-5.587 5.587 2.518 5.508 5.587 5.508z" aria-label="?"/></svg>