<svg xmlns="http://www.w3.org/2000/svg" id="svg16" version="1.1" viewBox="0 0 192 192"><defs id="defs4"><style id="style2">.a{fill:none;stroke:#b1b5bd;stroke-linecap:round;stroke-linejoin:round;isolation:isolate;opacity:.63}</style></defs><path id="rect829" d="M32 32v12H20v12H8v48h12v12h12v12h12v12h12v12h12v12h12v12h12v-12h12v-12h12v-12h12v-12h12v-12h12v-12h12V56h-12V44h-12V32h-36v12H92v12H80V44H68V32Z" style="opacity:1;vector-effect:none;fill:#56595b;fill-opacity:1;fill-rule:evenodd;stroke:none;stroke-width:24;stroke-linecap:round;stroke-linejoin:round;stroke-miterlimit:4;stroke-dasharray:none;paint-order:stroke fill markers"/><path id="rect848" d="M32 44v12H20v48h12v12h12v12h12v12h12v12h12v12h12v-12h12v-12h12v-12h12v-12h12v-12h12V56h-12V44h-36v12H92v12H80V56H68V44Z" style="opacity:1;vector-effect:none;fill:#ff837d;fill-opacity:1;fill-rule:evenodd;stroke:none;stroke-width:24;stroke-linecap:round;stroke-linejoin:round;stroke-miterlimit:4;stroke-dasharray:none;paint-order:stroke fill markers"/><path id="rect867" d="M32 44h12v12H32z" style="opacity:1;vector-effect:none;fill:#ffd6d4;fill-opacity:1;fill-rule:evenodd;stroke:none;stroke-width:24;stroke-linecap:round;stroke-linejoin:round;stroke-miterlimit:4;stroke-dasharray:none;paint-order:stroke fill markers"/><path id="rect869" d="M20 56h12v48H20z" style="opacity:1;vector-effect:none;fill:#ffd6d4;fill-opacity:1;fill-rule:evenodd;stroke:none;stroke-width:24;stroke-linecap:round;stroke-linejoin:round;stroke-miterlimit:4;stroke-dasharray:none;paint-order:stroke fill markers"/><path id="rect871" d="M32 104h12v12H32z" style="opacity:1;vector-effect:none;fill:#ffd6d4;fill-opacity:1;fill-rule:evenodd;stroke:none;stroke-width:24;stroke-linecap:round;stroke-linejoin:round;stroke-miterlimit:4;stroke-dasharray:none;paint-order:stroke fill markers"/><path id="rect873" d="M44 116h12v12H44z" style="opacity:1;vector-effect:none;fill:#ffd6d4;fill-opacity:1;fill-rule:evenodd;stroke:none;stroke-width:24;stroke-linecap:round;stroke-linejoin:round;stroke-miterlimit:4;stroke-dasharray:none;paint-order:stroke fill markers"/><path id="rect875" d="M56 128h12v12H56z" style="opacity:1;vector-effect:none;fill:#ffd6d4;fill-opacity:1;fill-rule:evenodd;stroke:none;stroke-width:24;stroke-linecap:round;stroke-linejoin:round;stroke-miterlimit:4;stroke-dasharray:none;paint-order:stroke fill markers"/><path id="rect877" d="M68 140h12v12H68z" style="opacity:1;vector-effect:none;fill:#ffd6d4;fill-opacity:1;fill-rule:evenodd;stroke:none;stroke-width:24;stroke-linecap:round;stroke-linejoin:round;stroke-miterlimit:4;stroke-dasharray:none;paint-order:stroke fill markers"/><path id="rect879" d="M80 152h12v12H80z" style="opacity:1;vector-effect:none;fill:#ffd6d4;fill-opacity:1;fill-rule:evenodd;stroke:none;stroke-width:24;stroke-linecap:round;stroke-linejoin:round;stroke-miterlimit:4;stroke-dasharray:none;paint-order:stroke fill markers"/><path id="rect881" d="M128 44h12v12h-12z" style="opacity:1;vector-effect:none;fill:#ba6561;fill-opacity:1;fill-rule:evenodd;stroke:none;stroke-width:24;stroke-linecap:round;stroke-linejoin:round;stroke-miterlimit:4;stroke-dasharray:none;paint-order:stroke fill markers"/><path id="rect883" d="M184.546-37.998h12.029V10.12h-12.029z" style="opacity:1;vector-effect:none;fill:#ba6561;fill-opacity:1;fill-rule:evenodd;stroke:none;stroke-width:24.05897713;stroke-linecap:round;stroke-linejoin:round;stroke-miterlimit:4;stroke-dasharray:none;paint-order:stroke fill markers" transform="rotate(37.79)"/><path id="rect885" d="M172.517 10.12h12.029v12.029h-12.029z" style="opacity:1;vector-effect:none;fill:#ba6561;fill-opacity:1;fill-rule:evenodd;stroke:none;stroke-width:24.05897713;stroke-linecap:round;stroke-linejoin:round;stroke-miterlimit:4;stroke-dasharray:none;paint-order:stroke fill markers" transform="rotate(37.79)"/><path id="rect887" d="M160.487 22.15h12.029v12.029h-12.029z" style="opacity:1;vector-effect:none;fill:#ba6561;fill-opacity:1;fill-rule:evenodd;stroke:none;stroke-width:24.05897713;stroke-linecap:round;stroke-linejoin:round;stroke-miterlimit:4;stroke-dasharray:none;paint-order:stroke fill markers" transform="rotate(37.79)"/><path id="rect889" d="M104 128h12v12h-12z" style="opacity:1;vector-effect:none;fill:#ba6561;fill-opacity:1;fill-rule:evenodd;stroke:none;stroke-width:24;stroke-linecap:round;stroke-linejoin:round;stroke-miterlimit:4;stroke-dasharray:none;paint-order:stroke fill markers"/><path id="rect891" d="M92 140h12v12H92z" style="opacity:1;vector-effect:none;fill:#ba6561;fill-opacity:1;fill-rule:evenodd;stroke:none;stroke-width:24;stroke-linecap:round;stroke-linejoin:round;stroke-miterlimit:4;stroke-dasharray:none;paint-order:stroke fill markers"/><path id="rect893" d="M32 56v24h12V68h12V56H44Z" style="opacity:1;vector-effect:none;fill:#fff;fill-opacity:1;fill-rule:evenodd;stroke:none;stroke-width:24;stroke-linecap:round;stroke-linejoin:round;stroke-miterlimit:4;stroke-dasharray:none;paint-order:stroke fill markers"/><rect id="rect924" width="40.098" height="28.069" x="160.487" y="-46.017" ry="8.02" style="opacity:1;vector-effect:none;fill:#ff837d;fill-opacity:1;fill-rule:evenodd;stroke-width:1.00245738;paint-order:stroke fill markers" transform="rotate(37.79)"/><path id="path1101" d="M147.966 71.237s4.452-3.128 8.288-.559c3.983 2.668 2.746 8.746 2.746 8.746s3.805-3.58 7.983-.61c4.178 2.97 1.78 7.83 1.78 7.83s3.915-3.8 8.898-.152c4.983 3.647 1.475 9.762 1.475 9.762l-10.628-9.407s1.728-3.865-2.288-6.66c-4.015-2.796-7.525-.509-7.525-.509s.479-5.247-3.05-7.729c-3.553-2.497-7.679-.712-7.679-.712z" style="fill:#ba6561"/><path id="path951" d="M150.607 70.586c-1.497.07-2.496.442-2.648.5l-5.219 6.732a8.002 8.002 0 0 0 1.424 11.252l4.647 3.602 10.302-13.244-.05-.037s-.075-4.77-2.875-7.047c-1.88-1.528-3.965-1.834-5.58-1.758z" style="fill:#ffd6d4"/><path id="rect922" d="M160.487-29.978h40.098v12.029h-40.098z" style="opacity:1;vector-effect:none;fill:#fff;fill-opacity:1;fill-rule:evenodd;stroke-width:1.00245738;paint-order:stroke fill markers" transform="rotate(37.79)"/><path id="rect924-1" d="M170.25 86.375c-.847.03-1.408.135-1.408.135l-.08-.059-10.526 13.531 4.942 3.83a8.002 8.002 0 0 0 11.252-1.423l4.757-6.137-.062.037s1.415-5.263-3.523-8.629c-1.735-1.182-3.94-1.336-5.352-1.285z" style="opacity:1;vector-effect:none;fill:#ba6561;fill-opacity:1;fill-rule:evenodd;stroke-width:1.00245738;paint-order:stroke fill markers"/><path id="rect904" d="M160.487-21.958h40.098V34.18h-40.098z" style="opacity:1;vector-effect:none;fill:#f9de81;fill-opacity:1;fill-rule:evenodd;stroke:none;stroke-width:7.60811663;stroke-linecap:round;stroke-linejoin:round;stroke-miterlimit:4;stroke-dasharray:none;paint-order:stroke fill markers" transform="rotate(37.79)"/><path id="rect922-6" d="m165.621 90.486-7.385 9.496 11.28 8.745 7.37-9.506-11.265-8.735z" style="opacity:1;vector-effect:none;fill:#d8d8d8;fill-opacity:1;fill-rule:evenodd;stroke-width:1.00245738;paint-order:stroke fill markers"/><path id="path951-2" d="m160.7 96.816-34.468 44.313 11.34 8.793 34.4-44.365-11.273-8.74z" style="fill:#c39a54"/><path id="rect904-4" d="m140.283 80.986-34.398 44.366 10.922 8.468 34.466-44.314-10.99-8.52z" style="opacity:1;vector-effect:none;fill:#fdf5d9;fill-opacity:1;fill-rule:evenodd;stroke:none;stroke-width:7.60811663;stroke-linecap:round;stroke-linejoin:round;stroke-miterlimit:4;stroke-dasharray:none;paint-order:stroke fill markers"/><path id="path912" d="M108.154 124.752a4.01 4.01 0 0 0-3.818 3.521l-2.932 24.05h.002L104 160l8.568.977v.002l22.56-8.83c2.899-1.135 3.456-4.995.997-6.903l-25.352-19.656a4.01 4.01 0 0 0-2.619-.838z" style="color:#000;font-style:normal;font-variant:normal;font-weight:400;font-stretch:normal;font-size:medium;line-height:normal;font-family:sans-serif;font-variant-ligatures:normal;font-variant-position:normal;font-variant-caps:normal;font-variant-numeric:normal;font-variant-alternates:normal;font-feature-settings:normal;text-indent:0;text-align:start;text-decoration:none;text-decoration-line:none;text-decoration-style:solid;text-decoration-color:#000;letter-spacing:normal;word-spacing:normal;text-transform:none;writing-mode:lr-tb;direction:ltr;text-orientation:mixed;dominant-baseline:auto;baseline-shift:baseline;text-anchor:start;white-space:normal;shape-padding:0;clip-rule:nonzero;display:inline;overflow:visible;visibility:visible;opacity:1;isolation:auto;mix-blend-mode:normal;color-interpolation:sRGB;color-interpolation-filters:linearRGB;solid-color:#000;solid-opacity:1;vector-effect:none;fill:#fcecdc;fill-opacity:1;fill-rule:nonzero;stroke:none;stroke-width:8.01965904;stroke-linecap:round;stroke-linejoin:round;stroke-miterlimit:4;stroke-dasharray:none;stroke-dashoffset:0;stroke-opacity:1;color-rendering:auto;image-rendering:auto;shape-rendering:auto;text-rendering:auto;enable-background:accumulate"/><rect id="rect914" width="16.039" height="16.039" x="160.487" y="26.16" ry="8.02" style="opacity:1;vector-effect:none;fill:#fcecdc;fill-opacity:1;fill-rule:evenodd;stroke-width:1.00245738;paint-order:stroke fill markers" transform="rotate(37.79)"/><rect id="rect916" width="16.039" height="16.039" x="184.546" y="26.16" ry="8.02" style="opacity:1;vector-effect:none;fill:#fcecdc;fill-opacity:1;fill-rule:evenodd;stroke-width:1.00245738;paint-order:stroke fill markers" transform="rotate(37.79)"/><rect id="rect918" width="16.039" height="16.039" x="172.517" y="26.16" ry="8.02" style="opacity:1;vector-effect:none;fill:#fcecdc;fill-opacity:1;fill-rule:evenodd;stroke-width:1.00245738;paint-order:stroke fill markers" transform="rotate(37.79)"/><path id="rect926" d="m101.405 152.322-.856 7.011c-.365 3.011 2.616 5.322 5.44 4.219l6.578-2.575z" style="opacity:1;vector-effect:none;fill:#4a4a4a;fill-opacity:1;fill-rule:evenodd;stroke-width:1.00245738;paint-order:stroke fill markers"/></svg>