<?xml version="1.0" encoding="UTF-8" standalone="no"?>
<svg
   xmlns:dc="http://purl.org/dc/elements/1.1/"
   xmlns:cc="http://creativecommons.org/ns#"
   xmlns:rdf="http://www.w3.org/1999/02/22-rdf-syntax-ns#"
   xmlns:svg="http://www.w3.org/2000/svg"
   xmlns="http://www.w3.org/2000/svg"
   xmlns:sodipodi="http://sodipodi.sourceforge.net/DTD/sodipodi-0.dtd"
   xmlns:inkscape="http://www.inkscape.org/namespaces/inkscape"
   sodipodi:docname="dji.svg"
   inkscape:version="1.0.1 (3bc2e813f5, 2020-09-07)"
   version="1.1"
   id="svg2"
   viewBox="0 0 192 192"
   height="192"
   width="192"
   inkscape:export-filename="/home/jphilippe/inkscape/icônes/delta-github/png/dji.png"
   inkscape:export-xdpi="96"
   inkscape:export-ydpi="96">
  <sodipodi:namedview
     inkscape:document-rotation="0"
     inkscape:window-maximized="1"
     inkscape:window-y="30"
     inkscape:window-x="1920"
     inkscape:window-height="1022"
     inkscape:window-width="1680"
     units="px"
     showgrid="false"
     inkscape:current-layer="layer1"
     inkscape:document-units="px"
     inkscape:cy="-34.633234"
     inkscape:cx="22.452068"
     inkscape:zoom="1.4142136"
     inkscape:pageshadow="2"
     inkscape:pageopacity="0.0"
     borderopacity="1.0"
     bordercolor="#666666"
     pagecolor="#ffffff"
     id="base"
     inkscape:snap-bbox="false"
     inkscape:object-paths="true"
     inkscape:snap-nodes="true"
     showguides="true"
     inkscape:guide-bbox="true"
     inkscape:snap-object-midpoints="true"
     inkscape:snap-center="true"
     inkscape:snap-global="false"
     inkscape:snap-intersection-paths="true"
     inkscape:snap-smooth-nodes="true"
     inkscape:snap-midpoints="true" />
  <defs
     id="defs4" />
  <metadata
     id="metadata7">
    <rdf:RDF>
      <cc:Work
         rdf:about="">
        <dc:format>image/svg+xml</dc:format>
        <dc:type
           rdf:resource="http://purl.org/dc/dcmitype/StillImage" />
        <dc:title />
      </cc:Work>
    </rdf:RDF>
  </metadata>
  <g
     transform="translate(0,-860.36216)"
     id="layer1"
     inkscape:groupmode="layer"
     inkscape:label="Calque 1">
    <rect
       style="fill:#99bdfe;fill-opacity:1;fill-rule:evenodd;stroke:none;stroke-width:0.993464;stroke-opacity:1"
       width="152"
       height="152"
       x="20.000004"
       y="880.36218"
       rx="9.9346409"
       id="rect993"
       ry="9.9346409" />
    <path
       id="path995"
       style="fill:#ffffff;fill-opacity:1;stroke-width:0.167623"
       d="m 133.97556,938.87073 h 9.84331 a 2.1811356,2.1811356 0 0 1 2.12287,2.68186 l -6.36165,26.9707 a 3.4810148,3.4810148 0 0 1 -3.38805,2.68187 h -9.82655 a 2.1822359,2.1822359 0 0 1 -2.1242,-2.68218 l 6.34755,-26.97007 a 3.4792597,3.4792597 0 0 1 3.38672,-2.68218 z m -19.69566,0 h 9.8433 a 2.1721237,2.1721237 0 0 1 2.11209,2.6793 l -6.79906,28.31414 c -1.79357,7.49272 -6.9731,15.43803 -17.6339,15.43803 H 81.54322 a 1.9790188,1.9790188 0 0 1 -1.875354,-2.61113 l 2.65672,-7.88203 h 10.576988 c 4.99516,0 10.543466,-2.74902 11.767106,-7.74416 l 6.20471,-25.51671 a 3.5057775,3.5057775 0 0 1 3.40651,-2.67744 z m -7.30448,-11.44861 H 96.662784 a 3.4831419,3.4831419 0 0 0 -3.38964,2.68149 l -6.7077,28.36224 c -0.737537,3.0172 -1.726513,4.74372 -5.347162,4.74372 H 67.808473 c -3.050722,0 -2.966915,-1.79358 -2.346716,-4.39171 l 2.078527,-8.59908 c 0.536392,-2.11205 1.240398,-3.08426 4.056466,-3.08426 h 10.48672 a 3.4928151,3.4928151 0 0 0 3.396867,-2.67977 l 0.69514,-2.90425 a 2.1737668,2.1737668 0 0 0 -2.114055,-2.67977 H 61.103569 c -6.084692,0 -9.772395,2.93339 -11.197188,8.98458 l -3.469787,14.48262 c -1.441547,6.08469 0.787828,8.88398 5.196303,8.88398 h 37.547457 c 7.87826,0 10.928996,-3.06749 12.303496,-8.91753 l 7.61305,-32.20073 a 2.1799655,2.1799655 0 0 0 -2.12148,-2.68153 z" />
    <g
       id="Layer1"
       style="clip-rule:evenodd;fill-rule:evenodd;stroke-linejoin:round;stroke-miterlimit:2"
       transform="translate(-220.17182,857.85448)">
      <g
         transform="translate(8,8)"
         id="g4">
        <path
           d="m 164.5,21.5 c 0,-5.519 -4.481,-10 -10,-10 h -133 c -5.519,0 -10,4.481 -10,10 v 133 c 0,5.519 4.481,10 10,10 h 133 c 5.519,0 10,-4.481 10,-10 z"
           style="fill:#9abeff"
           id="path2" />
      </g>
      <g
         transform="matrix(0.825493,0,0,0.825493,18.3936,15.6599)"
         id="g18">
        <path
           d="m 112.717,76.78 h 18.966 l -9.061,39.346 c 0,0 -4.965,17.625 -20.48,17.625 H 74.463 l 3.351,-13.901 h 12.022 c 7.431,0 13.888,-5.106 15.601,-12.337 3.015,-12.727 7.28,-30.733 7.28,-30.733 z"
           style="fill:#ffffff"
           id="path6" />
        <path
           d="m 126.47,116.126 h 19.115 L 155.638,76.78 h -19.735 z"
           style="fill:#ffffff"
           id="path8" />
        <path
           d="M 84.341,76.78 81.414,87.33 H 65.907 c -1.98,0 -3.711,1.334 -4.217,3.248 -0.673,2.55 -1.625,6.158 -2.415,9.152 -0.345,1.308 -0.063,2.702 0.762,3.774 0.826,1.072 2.102,1.699 3.455,1.699 4.366,0 10.26,0 13.918,0 1.994,0 3.738,-1.343 4.247,-3.271 2.621,-9.93 10.307,-39.054 10.307,-39.054 h 19.86 c 0,0 -6.556,27.572 -10.232,43.035 -1.424,5.987 -6.773,10.213 -12.927,10.213 -12.822,0 -34.33,0 -46.714,0 -2.317,0 -4.507,-1.058 -5.948,-2.872 -1.44,-1.815 -1.974,-4.188 -1.449,-6.444 1.371,-5.893 3.147,-13.522 4.569,-19.633 1.432,-6.157 6.929,-10.508 13.251,-10.49 12.67,0.037 31.967,0.093 31.967,0.093 z"
           style="fill:#ffffff"
           id="path10" />
        <g
           transform="matrix(0.791722,0,-0.0972113,0.715423,39.056,19.9568)"
           id="g16">
          <text
             x="118.353"
             y="72.549004"
             style="font-style:italic;font-weight:700;font-size:21.321px;font-family:Arial-BoldItalicMT, Arial, sans-serif;fill:#ffffff"
             id="text14">4<tspan
   x="129.315 134.343"
   y="72.549004 72.549004"
   id="tspan12">.0</tspan></text>
        </g>
      </g>
    </g>
  </g>
  <style
     type="text/css"
     id="style853">
	.st0{fill:#FFFFFF;}
</style>
  <style
     type="text/css"
     id="style853-9">
	.st0{fill:#FFFFFF;}
</style>
  <style
     type="text/css"
     id="style853-3">
	.st0{fill:#FFFFFF;}
</style>
</svg>
