<?xml version="1.0" encoding="utf-8"?>
<!-- Generator: Adobe Illustrator 17.1.0, SVG Export Plug-In . SVG Version: 6.00 Build 0)  -->
<!DOCTYPE svg PUBLIC "-//W3C//DTD SVG 1.1//EN" "http://www.w3.org/Graphics/SVG/1.1/DTD/svg11.dtd">
<svg version="1.1" id="Слой_1" xmlns="http://www.w3.org/2000/svg" xmlns:xlink="http://www.w3.org/1999/xlink" x="0px" y="0px"
	 viewBox="0 0 192 192" enable-background="new 0 0 192 192" xml:space="preserve">
<image overflow="visible" width="180" height="180" xlink:href="1D672312.jpg"  transform="matrix(1 0 0 1 -6192 -6192)">
</image>
<image overflow="visible" width="241" height="241" xlink:href="30E0AF75.jpg"  transform="matrix(1 0 0 1 0 -305.1059)">
</image>
<path fill="#FFC489" d="M192,167.9c0,13.8-11.2,25-25,25H25c-13.8,0-25-11.2-25-25v-142c0-13.8,11.2-25,25-25h142
	c13.8,0,25,11.2,25,25V167.9z"/>
<g>
	<path fill="#FFFFFF" d="M172.3,161.7c0.2,2.2,0.4,4.2,0.5,6.3c0,0.3-0.4,0.9-0.8,1c-4.7,1.8-9.6,2.5-14.6,1.2
		c-4.7-1.2-7.5-5-7.6-10c0-0.9,0-1.7,0-2.8c-4.4,3-9.4,3.2-14.3,3.1c0.3,1.5,1.7,2.5,3.8,2.7c2.8,0.2,5.5,0,8.1-1.1
		c0.3-0.1,0.6-0.2,1.1-0.4c0.2,1.6,0.4,3.1,0.4,4.6c0.2,2.6,0.1,2.6-2.3,3.4c-4.2,1.3-8.4,1.7-12.6,0.7c-3.4-0.8-5.9-2.8-7.1-6.2
		c-0.1-0.2-0.2-0.4-0.2-0.5c0,0-0.1,0-0.1-0.1c-0.1,0-0.2,0-0.2,0.1c-2.8,4.2-7,5.8-11.7,6.5c-5.3,0.8-10.7,0.6-16,0
		c-0.2,0-0.4-0.1-0.6-0.1c-0.2-0.1-0.4-0.2-0.8-0.3c0.5-2.7,1-5.3,1.5-8c1.6-8.8,3.3-17.6,4.9-26.3c0.2-1.1,0.5-1.7,1.8-1.9
		c5.1-0.6,10.3-1.1,15.4,0c1.5,0.3,3,0.9,4.3,1.7c5.3,3.1,5.4,10.3,0.2,13.8c-0.9,0.6-1.9,1-2.7,1.5c1.3,1.1,2.7,2.3,4.1,3.5
		c0.2-0.4,0.4-1,0.6-1.5c3.1-7.4,10.1-11.1,18.1-9.5c3.3,0.7,5.8,2.6,6.6,6.2c0,0.2,0.2,0.4,0.3,0.6c0.3-0.4,0.5-0.7,0.8-1
		c4.2-5.7,11.6-7.4,17.4-5.4c3.4,1.2,5.4,4,5.6,7.4c0.2,3.8-1.5,6.6-5,8.1c-2.7,1.2-5.6,1.6-8.5,1.7c-1.1,0-2.3,0-3.5,0
		c0.4,1.6,1.8,2.6,3.8,2.7c2.8,0.2,5.5,0,8.1-1.1C171.5,162,171.8,161.9,172.3,161.7z M108,163c1.2,0,2.3,0.2,3.3,0
		c1.5-0.3,3.1-0.7,4.5-1.4c1.5-0.8,1.9-2.3,1.6-4c-0.3-1.5-1.3-2.3-2.7-2.7c-0.7-0.2-1.4-0.3-2.1-0.3c-2.9-0.1-2.9-0.1-3.4,2.7
		c0,0.1-0.1,0.2-0.1,0.3C108.7,159.3,108.4,161.1,108,163z M111.1,147.4c0.7,0,1.3,0,1.8,0c1.8,0,3.5-0.2,5-1.3c1-0.7,1.5-1.8,1.3-3
		c-0.2-1.2-0.9-2.1-2.1-2.3c-1.4-0.2-2.9-0.2-4.3-0.2c-0.2,0-0.5,0.4-0.6,0.7C111.9,143.2,111.5,145.2,111.1,147.4z M160.1,153.4
		c1,0,1.9,0.1,2.8,0c1.1-0.2,2.3-0.4,3.3-0.8c0.4-0.2,0.9-0.9,0.8-1.4c0-0.5-0.6-1.2-1-1.3C163.6,149.1,160.6,150.4,160.1,153.4z
		 M136.3,153.4c1.1,0,2.1,0.1,3.1,0c1.1-0.2,2.2-0.4,3.2-0.8c0.4-0.2,0.8-1,0.7-1.5c0-0.4-0.6-1.1-1.1-1.2
		C139.7,149,137,150.6,136.3,153.4z"/>
	<path fill="#FFFFFF" d="M77,151.1c0.2-0.2,0.3-0.4,0.5-0.6c3.5-5.2,8.5-7.6,14.6-7.9c1.9-0.1,3.8,0.3,5.7,0.5
		c0.8,0.1,1,0.5,0.7,1.3c-0.6,1.8-1.2,3.6-1.7,5.5c-0.2,0.8-0.5,0.9-1.3,0.7c-4.3-0.9-7.9,0.7-9.5,4.2c-0.8,1.7-1.1,3.4-0.6,5.2
		c0.5,1.9,2,3.1,3.9,3.1c1.4,0,2.8-0.3,4.3-0.5c0.3,0,0.7-0.2,1.1-0.3c0,2.4,0,4.6,0,6.8c0,0.3-0.4,0.7-0.6,0.7
		c-4.7,1.5-9.3,1.9-13.8-0.6c-2.6-1.4-4.1-3.8-4.8-6.7c-1.1,1.3-2,2.8-3.2,3.9c-4.9,4.5-10.6,5.6-16.8,3.6c-4.2-1.3-6.7-5.1-6.9-9.8
		c-0.1,0.1-0.2,0.1-0.3,0.1c-3.1,5.2-7.7,8.2-13.6,9.4c-6.3,1.3-12.7,1.1-19.1,0.2c-0.9-0.1-1-0.5-0.8-1.3
		c2.2-11.3,4.3-22.6,6.4-33.9c0.1-0.6,0.3-1.1,1.1-1.2c6.3-0.7,12.6-1.4,18.8,0.5c5.1,1.5,9.9,5.9,10.1,13.2c0,0.6,0.1,1.3,0.2,2.1
		c0.3-0.3,0.5-0.5,0.7-0.7c4.3-5.7,12.1-7.4,18-5.4c3.4,1.2,5.6,3.6,6.7,7c0.1,0.2,0.1,0.5,0.2,0.7C76.8,151,76.9,151,77,151.1z
		 M25.6,162.4c3.5,1,9.4-0.5,12-3.9c2.2-3,3.1-6.4,2.9-10c-0.1-1.2-0.3-2.4-0.7-3.5c-1.3-3.3-6.5-5.5-9.8-4.1
		c-0.2,0.1-0.4,0.5-0.5,0.8c-0.8,4.1-1.6,8.3-2.4,12.5C26.6,156.9,26.1,159.6,25.6,162.4z M66.9,154.4c0-0.5,0-1,0-1.6
		c-0.2-2.1-1.7-3.3-3.7-2.8c-0.9,0.2-1.8,0.9-2.4,1.6c-2,2.6-2.6,5.7-2.3,8.9c0.1,1.2,0.7,2.3,2,2.7c1.3,0.4,2.5,0.2,3.4-0.7
		c0.5-0.5,1-1.1,1.3-1.7C66.4,158.9,66.9,156.7,66.9,154.4z"/>
	<path fill="#FFFFFF" d="M142.5,85.4c0.8,3.1,1.9,6,2.5,9.1c0.7,3.6,0.7,7.3-0.3,10.9c-0.7,2.4-2,4.5-4.7,5.2
		c-2,0.5-3.9,0.1-5.7-0.7c-2.4-1.1-4.5-2.8-6.3-4.7c-3.5-3.7-6.2-7.9-7.5-12.8c-0.5-1.7-0.5-3.5-0.6-5.3c-0.4-4.9-1.6-9.7-3.9-14.5
		c0,0.6-0.1,0.9-0.1,1.2c-0.1,1.6-0.1,3.2-0.2,4.8c-0.2,3.1-1.7,5.3-4,7.2c-4.3,3.6-9.3,5.1-14.9,4.7c-3.8-0.3-7.3-1.3-10.2-4
		c-3.3-3.2-5.4-7.2-5.7-11.8c-0.6-9.4,5.6-17.2,14.9-18.7c7.5-1.3,15.1-1.8,22.7-1.4c7.7,0.4,15.2,1.7,22.3,5
		c6.9,3.2,12.4,7.9,15.7,14.9c0.8,1.6,1.2,3.5,1.3,5.3c0.1,2.9-1.9,5-4.8,5.9c-3.4,1-6.9,0.7-10.3-0.1
		C142.6,85.4,142.5,85.4,142.5,85.4z M113,64.4c0.4,0.7,0.8,1.4,1.3,2.1c4,6.2,6.3,13,6.9,20.5c0.1,1.8,0.2,3.7,0.8,5.4
		c1.4,4.4,3.9,8.2,7.2,11.4c2.2,2.1,4.6,4,7.7,4.6c2.3,0.5,4-0.3,4.9-2.4c0.6-1.5,1-3.1,1-4.6c0.3-5.9-1.1-11.5-4-16.7
		c-0.2-0.4-0.7-0.8-1.1-1c-4.6-1.9-8.5-4.7-11.5-8.9C122.8,70.2,118.4,66.7,113,64.4z M111.4,57.1c0.3,0.1,0.5,0.3,0.8,0.4
		c2.9,1.7,5.9,3.4,8.7,5.3c7.3,4.9,13.9,10.6,18.6,18.1c1.2,1.9,2.7,2.8,4.7,3c0.6,0.1,1.1,0.2,1.7,0.2c2.3,0.2,4.6,0.1,6.8-0.9
		c1.8-0.8,2.9-2.1,2.6-4.1c-0.2-1.4-0.6-2.8-1.3-4.1c-2.7-5-6.6-8.9-11.6-11.7C132.8,58,122.2,57,111.4,57.1z M136.5,81.3
		c-7.7-10.7-18.2-17.8-29.8-23.9c1.3,1.1,2.4,2.1,3.5,3.1c0.6,0.5,1.1,1,1.8,1.3c6.9,3.3,12.6,8.2,17.1,14.4
		C131,78.7,133.7,80,136.5,81.3z"/>
	<path fill="#FFFFFF" d="M60.9,35.3c0.1-0.3,0.1-0.7,0.2-0.9c1.7-2.6,3.5-5.1,6.1-6.8c3.8-2.6,7.2-1.5,8.9,2.8
		c0.2,0.4,0.3,0.8,0.4,1.2c2.1-0.5,4.1-1,6.1-1.6c-0.3-2.9-1.1-5.7-3.1-7.9c-1.1-1.2-2.5-1.3-4-1c-2.8,0.6-5.2,1.9-7.6,3.5
		c-0.4,0.3-0.9,0.5-1.3,0.7c-0.1-0.1-0.2-0.2-0.3-0.2c0.1-0.3,0.2-0.6,0.4-0.8c2.8-2.3,5.7-4.3,9.3-5c2.1-0.4,3.8,0.2,5.2,1.7
		c2.1,2.3,3.3,5.1,3.9,8.1c0.2,1,0.5,1.5,1.5,1.8c4.1,1.3,6.7,5.1,6.6,9.7c-0.2,8.9-4.4,15.3-12.4,19.3c-4.1,2-8.6,3-13.2,3.3
		c-0.8,0.1-1.1-0.3-1.3-1c-1-3.1-1.6-6.3-1.7-9.6c-0.2-3.4,0.2-6.7,1.4-9.9c1.4-3.8,3.9-6.8,7.3-9.1c0.7-0.5,1-1,0.6-1.8
		c-0.1-0.1-0.1-0.3-0.1-0.5c-1.2-3.4-3.1-4.2-6-2.1c-2.2,1.5-4,3.6-5.9,5.4c-0.3,0.3-0.6,0.6-0.9,0.9C61.1,35.5,61,35.4,60.9,35.3z
		 M76.8,48.7c0.1,0.9,0.2,1.8,0.3,2.7c0.4,2.3,0.4,2.3,2.6,2c4.6-0.8,8.5-3.4,9.2-8.5c0.4-3.4-2.2-5.9-5.5-5.1
		C79.3,40.8,76.9,44.1,76.8,48.7z"/>
	<path fill="#FFFFFF" d="M110.9,92.2c-0.6,2-1.1,3.9-1.8,5.9c-0.1,0.3-0.5,0.6-0.9,0.8c-7.5,4.2-15,3.9-22.5,0.2
		c-0.3-0.1-0.6-0.6-0.6-0.9c0.2-2.1,0.5-4.1,0.7-6.4c4,1.7,8,2.9,12.4,2.9c4.3,0.1,8.4-0.9,12.3-2.8C110.7,92,110.8,92.1,110.9,92.2
		z"/>
	<path fill="#FFFFFF" d="M83.9,103.1c7.1,3.4,14.4,4.3,22.3,1.8c-0.3,0.6-0.4,0.9-0.6,1.2c-1.2,1.7-2.4,3.5-3.7,5.2
		c-0.7,1-1.7,1.5-2.9,1.8c-6.2,1.5-12,0.4-17.5-2.8c-0.3-0.2-0.6-0.8-0.5-1.1C81.9,107.2,82.9,105.2,83.9,103.1z"/>
	<path fill="#FFFFFF" d="M78.6,113.7c4.4,2.6,9.2,4.4,14.6,4.5c-2.7,3.4-18.4,6.5-21.8,4.5C73.7,119.7,76.1,116.7,78.6,113.7z"/>
</g>
</svg>
