<?xml version="1.0" encoding="utf-8"?>
<!-- Generator: Adobe Illustrator 16.0.0, SVG Export Plug-In . SVG Version: 6.00 Build 0)  -->
<!DOCTYPE svg PUBLIC "-//W3C//DTD SVG 1.1//EN" "http://www.w3.org/Graphics/SVG/1.1/DTD/svg11.dtd">
<svg version="1.1" id="Layer_1" xmlns="http://www.w3.org/2000/svg" xmlns:xlink="http://www.w3.org/1999/xlink" x="0px" y="0px"
	 width="192px" height="192px" viewBox="0 0 192 192" enable-background="new 0 0 192 192" xml:space="preserve">
<g>
	<path fill="#56595B" d="M154,145c0,0,5.256-0.231,11.615-0.747c7.996-0.648,14.889,7.978,11.783,16.262
		c-3.438,9.169-10.153,9.176-14.28,9.404c-5.692,0.316-10.959,1.272-16.58,2.168c-18.63,2.971-37.274,7.259-55.875,10.419
		c-22.917,3.893-36.426,3.231-50.354,0.942c-10.015-1.646-9.29-11.17-5.611-20.627c3.209-8.252,11.229-28.194,12.375-60.971
		c1.146-32.777-8.177-61.199-8.177-61.199s-3.735,0.823-6.418,1.681c-1.91,0.611-8.099,2.902-14.976-6.876
		C10.5,25.5,13.834,16.584,22.086,14.675c0,0,6.723-4.89,23.532-6.418c16.809-1.528,20.476-1.833,52.871,3.056
		c0,0,16.198,3.056,25.367,4.89c9.168,1.833,12.417,2.637,16.112,3.056C146.514,20,153,24.113,154,33.893V145L154,145z"/>
	<path fill="#C1987C" d="M37.902,38.818c0,0-2.75-9.168-5.272-14.44c-2.521-5.271-9.168-9.627-14.44-5.501
		s-1.015,13.842,2.521,17.649c2.916,3.139,5.73,5.73,11.918,3.896L37.902,38.818z"/>
	<path fill="#C1987C" d="M53.259,155.716c0,0,5.271,4.583,2.292,14.44c-2.98,9.855-9.398,12.147-9.398,12.147
		s9.168,1.833,28.652,0.229c19.483-1.604,47.447-8.71,72.659-12.606c0,0,10.544-1.604,15.128-1.834s10.008-0.764,12.835-8.248
		c2.457-6.505-2.967-14.001-10.083-13.527c-5.731,0.382-19.713,1.834-31.632,2.98c-11.919,1.146-35.573,4.164-49.739,5.501
		C71.825,155.944,63.115,156.174,53.259,155.716z"/>
	<path fill="#D5B69E" d="M25.027,15.401c0,0,8.615,0.554,13.199,17.362c4.584,16.809,10.83,33.376,10.726,64.656
		c-0.107,32.091-7.546,53.255-10.377,60.45c-3.667,9.321-8.244,22.149,2.146,23.678c11.328,1.666,19.185-23.311,7.338-26.591
		l0.155-1.989c0,0,10.176,2.75,36.994-0.23c26.818-2.979,54.792-6.419,66.792-7.564V34.692c0,0,0.712-5.73-3.644-9.626
		c-4.354-3.897-7.552-3.667-13.282-4.813c-5.729-1.146-27.956-5.731-40.563-7.793C81.904,10.396,49.286,5.048,25.027,15.401z"/>
	<g>
		<path fill="#56595B" d="M138.754,99.902c-0.802-7.22-7.808-12.467-12.728-16.315c-2.359-1.845-4.74-3.545-7.009-5.256
			c-3.436-2.592-6.193-5.085-8.15-8.907c-2.138-4.175-3.116-8.822-5.059-13.075c-1.472-3.222-4.19-7.973-7.919-8.919
			c-2.053-0.521-4.904,0.608-6.429,2.008c-0.717,0.679-0.954,0.724-1.424,1.365c-0.468,0.641-0.865,1.26-1.232,1.857
			c-0.424,0.69-1.363,2.208-1.699,2.966c-0.851,1.913-2.11-0.322-2.583-1.225c-2.195-4.186-5.503-10.092-11.351-7.936
			c-2.929,1.08-4.287,3.851-5.473,6.563c-1.849,4.228-2.895,9.14-3.056,13.752c-0.055,1.581,0.278,3.05,1.91,3.668
			c2.341,0.885,3.204-1.958,3.623-3.659c0.626-2.543,1.144-5.042,1.879-7.573c0.506-1.744,1.51-4.214,2.521-5.73
			c1.51-2.264,2.831-1.658,3.973,0.076c0.871,1.324,2.131,4.098,2.827,5.501c2.784,5.614,7.64,6.189,10.926,0.535
			c1.108-1.907,3.026-5.907,5.792-5.149c1.925,0.527,3.476,5.458,4.139,7.671c1.28,4.264,2.933,7.938,5.272,11.766
			c2.065,3.378,5.054,5.694,8.179,8.089c0.602,0.461,1.202,0.906,1.802,1.346c2.394,1.751,4.762,3.393,6.981,5.082
			c3.39,2.577,6.522,6.116,7.575,10.326c1.114,4.465,0.294,8.735-3.906,12.857c-3.136,3.074-6.971,5.675-10.967,7.447
			c-2.326,1.032-4.377,1.951-6.836,2.604c-3.418,0.907-7.339,1.149-10.86,0.854c-3.18-0.287-5.84-1.179-7.889-2.139
			c-2.055-0.969-3.501-2.015-4.404-2.757c-0.425-0.386-0.77-0.675-0.945-0.876c-0.195-0.198-0.296-0.301-0.296-0.301l-0.167-0.17
			c-0.975-0.988-2.586-1.059-3.599-0.092c-2.899,2.769,3.233,6.436,4.748,7.456c4.397,2.959,9.669,4.396,15.019,4.431
			c5.237,0.033,10.646-0.981,15.558-2.779c2.731-1,5.415-2.283,7.934-3.739c0.289-0.168,0.58-0.336,0.872-0.505
			c0.282-0.19,0.564-0.381,0.85-0.573c0.566-0.389,1.146-0.762,1.711-1.174c0.552-0.439,1.106-0.882,1.664-1.326
			c0.139-0.113,0.28-0.221,0.416-0.341l0.397-0.373l0.796-0.753c2.1-2.045,4.025-4.536,5.315-7.514
			C138.774,105.917,139.126,103.245,138.754,99.902z"/>
		<path fill="#56595B" d="M120.532,102.997c2.292-0.306,4.394-1.987,5.31-4.89c0.917-2.903-1.069-6.418-7.486-5.654
			c0,0-4.585,0.611-5.808,2.751c-1.222,2.14-0.458,4.126,1.223,5.959C115.451,102.997,118.24,103.303,120.532,102.997z"/>
	</g>
</g>
</svg>
