<?xml version="1.0" encoding="utf-8"?>
<!-- Generator: Adobe Illustrator 16.0.0, SVG Export Plug-In . SVG Version: 6.00 Build 0)  -->
<!DOCTYPE svg PUBLIC "-//W3C//DTD SVG 1.1 Tiny//EN" "http://www.w3.org/Graphics/SVG/1.1/DTD/svg11-tiny.dtd">
<svg version="1.1" baseProfile="tiny" id="Layer_1" xmlns="http://www.w3.org/2000/svg" xmlns:xlink="http://www.w3.org/1999/xlink"
	 x="0px" y="0px" width="192px" height="192px" viewBox="0 0 192 192" xml:space="preserve">
<g>
	<g>
		<g>
			<path fill="#F9DE90" d="M153.372,21h-48.628h-1.772H36.804C27.02,21,19,28.843,19,38.627v39.418v1.771v75.379
				C19,164.98,27.02,173,36.804,173h66.167h1.772h48.628c9.785,0,17.628-8.02,17.628-17.805V38.627
				C171,28.843,163.157,21,153.372,21z"/>
		</g>
	</g>
	<g>
		<path fill="#C79AF5" d="M74.996,57.471l-5.292-9.34c0,0-1.869,6.227-4.048,12.453c0,0,4.359,0,7.161,0.623
			C72.816,61.206,74.062,59.027,74.996,57.471z"/>
		<path fill="#C79AF5" d="M151.581,129.075c-4.98-13.699-9.339-23.35-10.896-24.284c-1.558-0.934,6.538-3.735,7.783-15.255
			c1.244-11.519-4.982-19.924-4.982-19.924s0.935,32.066-29.265,28.642c-8.75-0.992-14.915-4.603-19.241-9.459
			c-7.966,11.528-15.83,16.484-19.334,18.262c1.241,1.307,2.374,2.812,3.396,4.584c4.67,8.095,8.717,16.812,11.519,22.415
			c2.802,5.604,4.359,6.85,4.359,0.313c0-6.538-0.312-6.538,3.735,0c4.048,6.537,6.537,12.763,8.094,9.65
			c1.558-3.113,0.935-13.698,0.935-17.122c0-3.425,1.867-3.426,8.094-4.048c6.228-0.622,9.028-0.311,13.387,4.981
			c4.359,5.291,7.784,12.141,9.029,9.962c1.245-2.18,1.556-4.359,2.179-7.473c0.623-3.112,5.604,6.227,11.208,10.897
			C157.185,145.887,156.562,142.773,151.581,129.075z"/>
		<path fill="#C79AF5" d="M91.437,83.909c-8.725-14.783-5.857-35.467-5.857-35.467c-6.226,4.358-11.518,15.876-11.518,15.876
			c-14.632-4.357-13.387,1.557-22.104,5.293c-8.716,3.735-18.057,0-18.057,0s0,11.208,3.425,15.565
			c3.425,4.358,8.094,6.539,15.254,6.85c7.161,0.311,12.766-2.802,15.255-11.519c0,0,2.49,5.915-4.047,11.208
			c-6.538,5.291-17.122,1.557-18.368,1.244c0,0,2.18,4.671,12.142,6.227c5.226,0.817,9.588,1.985,13.236,4.072
			C83.018,96.583,89.21,87.702,91.437,83.909z"/>
	</g>
</g>
</svg>
