<?xml version="1.0" encoding="UTF-8" standalone="no"?>
<svg
   xmlns:dc="http://purl.org/dc/elements/1.1/"
   xmlns:cc="http://creativecommons.org/ns#"
   xmlns:rdf="http://www.w3.org/1999/02/22-rdf-syntax-ns#"
   xmlns:svg="http://www.w3.org/2000/svg"
   xmlns="http://www.w3.org/2000/svg"
   xmlns:sodipodi="http://sodipodi.sourceforge.net/DTD/sodipodi-0.dtd"
   xmlns:inkscape="http://www.inkscape.org/namespaces/inkscape"
   sodipodi:docname="dolphin_emulator.svg"
   inkscape:version="1.0.1 (3bc2e813f5, 2020-09-07)"
   version="1.1"
   id="svg2"
   viewBox="0 0 192 192"
   height="192"
   width="192"
   inkscape:export-filename="/home/jphilippe/inkscape/icônes/delta-github/png/dolphin_emulator.png"
   inkscape:export-xdpi="96"
   inkscape:export-ydpi="96">
  <sodipodi:namedview
     inkscape:document-rotation="0"
     inkscape:window-maximized="1"
     inkscape:window-y="0"
     inkscape:window-x="36"
     inkscape:window-height="1052"
     inkscape:window-width="1884"
     units="px"
     showgrid="false"
     inkscape:current-layer="layer1"
     inkscape:document-units="px"
     inkscape:cy="151.03991"
     inkscape:cx="66.552064"
     inkscape:zoom="1.4142136"
     inkscape:pageshadow="2"
     inkscape:pageopacity="0.0"
     borderopacity="1.0"
     bordercolor="#666666"
     pagecolor="#ffffff"
     id="base"
     inkscape:snap-bbox="false"
     inkscape:object-paths="true"
     inkscape:snap-nodes="true"
     showguides="true"
     inkscape:guide-bbox="true"
     inkscape:snap-object-midpoints="true"
     inkscape:snap-center="true"
     inkscape:snap-global="true"
     inkscape:snap-intersection-paths="true"
     inkscape:snap-smooth-nodes="true"
     inkscape:snap-midpoints="true">
    <inkscape:grid
       type="xygrid"
       id="grid931" />
  </sodipodi:namedview>
  <defs
     id="defs4" />
  <metadata
     id="metadata7">
    <rdf:RDF>
      <cc:Work
         rdf:about="">
        <dc:format>image/svg+xml</dc:format>
        <dc:type
           rdf:resource="http://purl.org/dc/dcmitype/StillImage" />
        <dc:title></dc:title>
      </cc:Work>
    </rdf:RDF>
  </metadata>
  <g
     transform="translate(0,-860.36216)"
     id="layer1"
     inkscape:groupmode="layer"
     inkscape:label="Calque 1">
    <circle
       style="fill:#ffffff;fill-opacity:1;fill-rule:evenodd;stroke:none;stroke-opacity:1"
       cx="96"
       cy="956.36218"
       r="88"
       id="circle947" />
    <path
       fill="#0057ab"
       d="m 145.93931,981.47854 c -0.33266,-1.11492 -2.40635,-7.83856 -5.89983,-14.2852 -4.60249,-8.49313 -8.56085,-14.5641 -15.15603,-20.73018 -2.12129,-1.98326 -4.13077,-3.75558 -6.22292,-5.34647 h 0.002 c 0,0 -0.0161,-0.0113 -0.0452,-0.0329 -0.0391,-0.0296 -0.0782,-0.0593 -0.11734,-0.0888 -0.78059,-0.60311 -4.06949,-3.37439 -2.89945,-6.4338 0.39213,-1.02537 1.33889,-1.8774 2.46475,-2.56679 l 6.059,-0.0494 v -2.24604 l -0.001,5e-5 c 0,0 7.8e-4,-1.5e-4 7.8e-4,-1.5e-4 0,0 -3.54783,-1.20535 -9.756,-0.80711 -5.82644,0.37377 -11.06153,3.78078 -12.04018,4.25972 -3.13787,-0.89822 -6.718117,-1.69034 -10.905236,-2.40073 -14.482558,-2.45712 -26.739625,1.45974 -32.89013,5.72864 -8.061403,5.5952 -7.838361,10.80876 -8.502946,13.41652 -0.411661,1.61544 -4.072571,4.60259 -4.028724,6.69825 v 2.206 l 0.756283,0.77929 2.851356,-0.96917 0.341057,-1.18938 c 1.172924,-0.41943 2.457224,-1.00252 3.623801,-1.48235 2.910827,-1.19728 3.135139,-1.84849 11.090245,-3.03543 3.659884,-0.54608 7.511708,-0.70277 10.379421,-0.72684 1.115943,2.3564 3.890544,7.20004 8.697718,9.52334 3.126253,1.5109 6.627742,2.28486 9.417917,2.68134 l -0.365861,1.83975 5.550079,0.82254 v -2.24453 l -0.0042,-0.002 c 0.0011,0 0.0017,0 0.0017,0 0,0 -4.659766,-1.9359 -7.526502,-4.80244 -1.950936,-1.95079 -2.417821,-4.91396 -2.517135,-6.60835 l 0.01753,0.002 c 4.696825,0.89246 8.799376,1.53649 18.610737,5.29408 1.81471,0.69495 3.50721,1.45675 5.04907,2.22597 l -0.28979,0.16357 4.42251,3.56653 5.28227,4.37135 v -2.24454 l -0.0175,-0.0162 c -0.0779,-0.0968 -6.09358,-7.54881 -16.20215,-12.5345 -8.354418,-4.12062 -15.213795,-6.15646 -24.717697,-6.61739 -10.388259,-0.50385 -18.042688,0.83001 -18.042688,0.83001 0,0 0.214107,-4.61597 8.056618,-8.29475 6.819486,-3.19895 17.547874,-3.73434 29.860607,-0.59325 17.39519,4.4377 23.32792,11.99419 30.81048,19.80296 4.74727,4.95424 9.11143,11.92499 11.8626,16.74813 l -0.46337,-0.20795 1.42526,3.68093 2.03868,4.3503 v -2.25894 l -0.0604,-0.17593 z"
       id="path953"
       style="fill:#708cbd;fill-opacity:1;stroke-width:0.0488271" />
    <path
       fill="url(#g)"
       d="m 140.04099,969.43533 c -4.60249,-8.49313 -8.56085,-14.56409 -15.15603,-20.73018 -2.12134,-1.9833 -4.13082,-3.75563 -6.22301,-5.34651 l 0.002,4.8e-4 c 0,0 -0.0166,-0.0117 -0.047,-0.0341 -0.0377,-0.0286 -0.0755,-0.0572 -0.11333,-0.0858 -0.77654,-0.59954 -4.07281,-3.37317 -2.90169,-6.43546 1.28513,-3.36038 8.52306,-4.8623 8.52306,-4.8623 0,0 -3.54783,-1.20534 -9.756,-0.80711 -5.82644,0.37377 -11.06153,3.78078 -12.04017,4.25972 -3.137876,-0.89822 -6.718124,-1.69034 -10.905243,-2.40073 -14.482557,-2.45712 -26.739624,1.45974 -32.89013,5.72865 -8.061402,5.59519 -7.83836,10.80875 -8.502946,13.41651 -0.478212,1.87652 -5.341147,5.60398 -3.688106,7.63495 1.031326,1.26706 4.463334,-0.45356 7.231928,-1.5923 2.910828,-1.19729 3.135139,-1.84855 11.090246,-3.03549 3.659884,-0.54608 7.511707,-0.70276 10.379421,-0.72684 1.115943,2.3564 3.890543,7.20005 8.697718,9.52334 6.490781,3.13694 14.599546,3.09749 14.599546,3.09749 0,0 -4.659765,-1.93589 -7.526502,-4.80244 -1.950935,-1.95078 -2.41782,-4.91396 -2.517134,-6.60835 l 0.01753,0.002 c 4.696825,0.89246 8.799375,1.53649 18.610742,5.29408 8.58454,3.28772 14.44843,8.06897 14.44843,8.06897 0,0 -6.02913,-7.5184 -16.20401,-12.53685 -8.354413,-4.12057 -15.213791,-6.15641 -24.717693,-6.61734 -10.388258,-0.50385 -18.042687,0.83001 -18.042687,0.83001 0,0 0.214106,-4.61597 8.056618,-8.29475 6.819485,-3.19895 17.547873,-3.73434 29.860602,-0.59325 17.39519,4.4377 23.32793,11.99419 30.81049,19.80296 7.96404,8.31135 14.85056,22.2986 14.85056,22.2986 0,0 -2.12344,-7.39032 -5.94763,-14.4473 z"
       id="path955"
       style="fill:#99bdfe;fill-opacity:1;stroke-width:0.0488271" />
  </g>
  <style
     type="text/css"
     id="style853">
	.st0{fill:#FFFFFF;}
</style>
  <style
     type="text/css"
     id="style853-9">
	.st0{fill:#FFFFFF;}
</style>
  <style
     type="text/css"
     id="style853-3">
	.st0{fill:#FFFFFF;}
</style>
</svg>
