<svg width="192" height="192" version="1.1" viewBox="0 0 192 192" xmlns="http://www.w3.org/2000/svg">
 <circle cx="96" cy="96" r="88" opacity=".63" style="fill:#f8c18c;opacity:1"/>
 <circle cx="96" cy="96" r="36.5" opacity=".63" style="fill:none;stroke-width:1.0002;stroke:#b1b5bd"/>
 <path d="m96 8c-48.601 0-88 39.399-88 88 0.029139 25.249 10.903 49.27 29.855 65.953 3.719-6.8404 11.41-17.011 25.936-22.412 17.174-6.3855 37.576 5.7002 56.236-10.072 26.021-21.994 11.026-44.397 18.045-52.039 4.6178-5.0277 16.18 3.1945 30.637-2.0996 3.5756-1.3094 7.0288-5.288 9.873-9.5215-12.67-34.689-45.652-57.776-82.582-57.809z" style="fill:#9abeff"/>
 <circle cx="96" cy="96" r="28" style="fill:#fff;paint-order:normal"/>
 <rect x="89.814" y="82.627" width="3.689" height="26.746" style="fill:#b1b5bd;stroke-width:.46113"/>
 <path d="m103.19 109.37v-3.228c-1.6647 0.0115-2.2564-0.0724-2.3057-0.92228v-5.0725c0.0493-2.0165-0.30527-3.2159-0.92228-4.1502 0.617-0.87851 0.97158-2.0777 0.92228-4.1502v-5.0725c0.0493-1.2405 0.8863-0.9616 2.3057-0.92228v-3.2279h-2.7668c-1.6638 0-2.9738 1.7013-2.7668 3.689v5.5336c-0.20696 2.4071-0.5345 2.4908-1.8446 3.2279v2.3057c1.3374 0.33179 1.6376 0.47128 1.8446 2.7668v5.5336c-0.20696 2.0437 1.103 3.689 2.7668 3.689z" style="clip-rule:evenodd;fill-rule:evenodd;fill:#b1b5bd;stroke-width:.46113"/>
 <path d="m96 8a88 88 0 0 0-88 88 88 88 0 0 0 0.16602 4.7012c3.0879-6.9972 9.4549-18.567 19.834-24.701 11.706-6.9186 23.394-1.164 35.383-7.5801 9.975-5.3385 14.261-19.988 24.84-24 18.295-6.9377 29.726 3.6178 39.777-2.9375 10.988-7.1663 11.24-14.338 16.262-18.986a88 88 0 0 0-48.262-14.496z" style="fill:#96dfd3"/>
</svg>
