<svg width="192" height="192" version="1.1" viewBox="0 0 192 192" xmlns="http://www.w3.org/2000/svg">
 <path d="m96.271 8.0059a8.0008 8.0008 0 0 0-7.8223 5.3516l-2.5938 7.4121a76 76 0 0 0-35.982 14.9l-6.5898-2.9648a8.0008 8.0008 0 0 0-3.1016-0.70312 8.0008 8.0008 0 0 0-7.5547 11.102l2.9355 6.9727a76 76 0 0 0-14.797 35.779l-7.4082 2.5938a8.0008 8.0008 0 0 0 0 15.102l7.4121 2.5938a76 76 0 0 0 14.779 35.812l-2.9219 6.9394a8.0008 8.0008 0 0 0 10.656 10.398l6.6289-2.9824a76 76 0 0 0 35.943 14.922l2.5938 7.4082a8.0008 8.0008 0 0 0 15.102 0l2.5938-7.4121a76 76 0 0 0 35.982-14.9l6.5898 2.9648a8.0008 8.0008 0 0 0 10.656-10.398l-2.9356-6.9726a76 76 0 0 0 14.797-35.779l7.4082-2.5938a8.0008 8.0008 0 0 0 0-15.102l-7.4121-2.5938a76 76 0 0 0-14.779-35.812l2.9219-6.9395a8.0008 8.0008 0 0 0-7.6211-11.1 8.0008 8.0008 0 0 0-3.0352 0.70117l-6.6289 2.9824a76 76 0 0 0-35.943-14.922l-2.5938-7.4082a8.0008 8.0008 0 0 0-7.2793-5.3516z" style="color-rendering:auto;color:#000000;dominant-baseline:auto;fill:#9abeff;font-feature-settings:normal;font-variant-alternates:normal;font-variant-caps:normal;font-variant-ligatures:normal;font-variant-numeric:normal;font-variant-position:normal;image-rendering:auto;isolation:auto;mix-blend-mode:normal;shape-padding:0;shape-rendering:auto;solid-color:#000000;text-decoration-color:#000000;text-decoration-line:none;text-decoration-style:solid;text-indent:0;text-orientation:mixed;text-transform:none;white-space:normal"/>
 <path d="m96 96-60.748 45.561a76 76 0 0 0 0.29688 0.39648l-2.9219 6.9394a8.0008 8.0008 0 0 0 10.656 10.398l6.6289-2.9824a76 76 0 0 0 35.943 14.922l2.5938 7.4082a8.0008 8.0008 0 0 0 15.102 0l2.5938-7.4121a76 76 0 0 0 35.982-14.9l6.5898 2.9648a8.0008 8.0008 0 0 0 10.656-10.398l-2.9356-6.9726a76 76 0 0 0 0.26953-0.39453l-60.707-45.529z" style="fill:#f9de81"/>
 <circle cx="96" cy="96" r="64" style="fill:#728dbe;paint-order:stroke fill markers"/>
 <path d="m96.271 8.0059a8.0008 8.0008 0 0 0-7.8223 5.3516l-2.5938 7.4121a76 76 0 0 0-5.8555 1.0879v38.143h32v-38.115a76 76 0 0 0-5.8555-1.1191l-2.5938-7.4082a8.0008 8.0008 0 0 0-7.2793-5.3516z" style="fill:#98dc9a;opacity:.5;paint-order:stroke fill markers;stroke-linecap:round;stroke-linejoin:round;stroke-width:8"/>
 <path d="m60 100h24v-40h24v40h24l-36 36z" style="fill:#f9de81;stroke-linecap:round;stroke-linejoin:round;stroke-width:8;stroke:#f9de81"/>
</svg>
