<svg width="192" height="192" version="1.1" viewBox="0 0 192 192" xmlns="http://www.w3.org/2000/svg">
 <circle cx="96" cy="96" r="88" opacity=".63" style="fill:#56595b;opacity:1"/>
 <circle cx="96" cy="96" r="76" style="fill:#fff;paint-order:stroke fill markers"/>
 <path d="m96 24a72 72 0 0 0-43.275 14.541l43.275 53.459v-68zm-52.137 22.471a72 72 0 0 0-7.3477 8.9727l59.484 40.557-52.137-49.529zm52.137 49.529 52.137 49.529a72 72 0 0 0 7.3477-8.9727l-59.484-40.557zm0 4v68a72 72 0 0 0 43.275-14.541l-43.275-53.459z" style="fill:#56595b"/>
 <circle cx="96" cy="96" r="28" style="fill:#fff;paint-order:stroke fill markers"/>
 <circle cx="96" cy="96" r="24" style="fill:#56595b;paint-order:stroke fill markers"/>
 <circle cx="96" cy="96" r="16" style="fill:#fff;paint-order:stroke fill markers"/>
</svg>
