<svg xmlns="http://www.w3.org/2000/svg" xml:space="preserve" id="Layer_1" x="0" y="0" style="enable-background:new 0 0 192 192" version="1.1" viewBox="0 0 192 192"><style id="style2" type="text/css">.st2{fill:#9abeff}</style><path id="path4" d="M30 20h132c5.5 0 10 4.5 10 10v132c0 5.5-4.5 10-10 10H30c-5.5 0-10-4.5-10-10V30c0-5.5 4.5-10 10-10z" style="fill:#fff;enable-background:new"/><g id="g14" transform="matrix(.6034 0 0 .6034 37.906 38.226)"><path id="path6" d="M52.8 95.9c.8.7 1.7 1.4 2.5 2.2C68.1 111 81 123.9 93.9 136.8c.7.7 3.9-.6 4.7.2-.2.4-2.8 2.6-2.9 2.9-2.7 2.6-5.3 5.3-8.1 7.8-12.3 11.2-31.7 10.6-43.1-1.3-11.7-12.3-11.6-30.8.2-43 2.5-2.4 5.7-5 8.1-7.5.2-.1-.3.1 0 0z" style="fill:#728dbe"/><path id="path8" d="m94.6 50.7 1.9 2c-1.9 1.3-3.4 3.2-5.1 4.8C79.3 69.6 67.1 81.8 54.8 94c-.7.7-1.3 1.3-2.1 1.9-3.2-3.6-7.2-6.6-10.1-10.4C28.5 66.8 38.8 40.7 62 36.6c10.4-1.8 19.2 1.3 26.8 8.3 2 1.9 3.9 3.9 5.8 5.8.7.7-1.4-1.3 0 0z" class="st2"/><path id="path10" d="M96.8 51.7c4.4-3.8 8-8.5 13.1-11.6 13.3-7.9 30.5-4.8 40.4 7.7 9.4 11.9 8.4 29.3-2.5 40.2-2.5 2.6-5.1 5.2-7.6 7.8-.8.6-1.6 1.3-2.3 2-12.2 12.2-24.4 24.3-36.6 36.5-1.6 1.6-2.8 3.8-4.7 5.1-.7-.6-2.1-2-2.8-2.7L55.2 98.1c-.8-.8-1.6-1.4-2.5-2.2.6-.7 1.3-1.5 2-2.2 14.1-14 28.1-28 42.1-42z" style="fill:#54688c"/><path id="path12" d="m98.2 141.1-1.9-2c1.9-1.3 3.4-3.2 5.1-4.8 12.2-12.2 24.4-24.4 36.6-36.5.7-.7 1.5-1.3 2.3-2 3.2 3.6 7.1 6.6 10 10.5 14.2 18.8 3.8 44.9-19.3 48.9-10.4 1.8-19.2-1.3-26.8-8.3-2.2-1.8-4.1-3.9-6-5.8-.7-.7 1.4 1.4 0 0z" class="st2"/></g></svg>