<?xml version="1.0" encoding="UTF-8" standalone="no"?>
<svg
   xmlns:dc="http://purl.org/dc/elements/1.1/"
   xmlns:cc="http://creativecommons.org/ns#"
   xmlns:rdf="http://www.w3.org/1999/02/22-rdf-syntax-ns#"
   xmlns:svg="http://www.w3.org/2000/svg"
   xmlns="http://www.w3.org/2000/svg"
   xmlns:sodipodi="http://sodipodi.sourceforge.net/DTD/sodipodi-0.dtd"
   xmlns:inkscape="http://www.inkscape.org/namespaces/inkscape"
   version="1.1"
   id="Layer_1"
   x="0px"
   y="0px"
   viewBox="0 0 192 192"
   style="enable-background:new 0 0 192 192;"
   xml:space="preserve"
   sodipodi:docname="e_rezept.svg"
   inkscape:export-filename="/home/jphilippe/github/delta/android/contributed-vectors/e_rezept.png"
   inkscape:export-xdpi="96"
   inkscape:export-ydpi="96"
   inkscape:version="1.0.1 (3bc2e813f5, 2020-09-07)"><metadata
   id="metadata21"><rdf:RDF><cc:Work
       rdf:about=""><dc:format>image/svg+xml</dc:format><dc:type
         rdf:resource="http://purl.org/dc/dcmitype/StillImage" /></cc:Work></rdf:RDF></metadata><defs
   id="defs19" /><sodipodi:namedview
   pagecolor="#ffffff"
   bordercolor="#666666"
   borderopacity="1"
   objecttolerance="10"
   gridtolerance="10"
   guidetolerance="10"
   inkscape:pageopacity="0"
   inkscape:pageshadow="2"
   inkscape:window-width="1884"
   inkscape:window-height="1052"
   id="namedview17"
   showgrid="false"
   inkscape:zoom="3.3697917"
   inkscape:cx="96"
   inkscape:cy="96"
   inkscape:window-x="36"
   inkscape:window-y="0"
   inkscape:window-maximized="1"
   inkscape:current-layer="Layer_1" />
<style
   type="text/css"
   id="style2">
	.st0{fill:#FFFFFF;enable-background:new    ;}
	.st1{fill:#728DBE;}
	.st2{fill:#9ABEFF;}
	.st3{fill:#54688C;}
</style>
<path
   class="st0"
   d="M30,20h132c5.5,0,10,4.5,10,10v132c0,5.5-4.5,10-10,10H30c-5.5,0-10-4.5-10-10V30C20,24.5,24.5,20,30,20z"
   id="path4" />
<g
   id="g14"
   transform="matrix(0.60339808,0,0,0.60339808,37.906108,38.226212)">
	<path
   class="st1"
   d="m 52.8,95.9 c 0.8,0.7 1.7,1.4 2.5,2.2 12.8,12.9 25.7,25.8 38.6,38.7 0.7,0.7 3.9,-0.6 4.7,0.2 -0.2,0.4 -2.8,2.6 -2.9,2.9 -2.7,2.6 -5.3,5.3 -8.1,7.8 -12.3,11.2 -31.7,10.6 -43.1,-1.3 -11.7,-12.3 -11.6,-30.8 0.2,-43 2.5,-2.4 5.7,-5 8.1,-7.5 0.2,-0.1 -0.3,0.1 0,0 z"
   id="path6" />
	<path
   class="st2"
   d="m 94.6,50.7 c 1.9,2 0,0 1.9,2 -1.9,1.3 -3.4,3.2 -5.1,4.8 C 79.3,69.6 67.1,81.8 54.8,94 54.1,94.7 53.5,95.3 52.7,95.9 49.5,92.3 45.5,89.3 42.6,85.5 28.5,66.8 38.8,40.7 62,36.6 c 10.4,-1.8 19.2,1.3 26.8,8.3 2,1.9 3.9,3.9 5.8,5.8 0.7,0.7 -1.4,-1.3 0,0 z"
   id="path8" />
	<path
   class="st3"
   d="m 96.8,51.7 c 4.4,-3.8 8,-8.5 13.1,-11.6 13.3,-7.9 30.5,-4.8 40.4,7.7 9.4,11.9 8.4,29.3 -2.5,40.2 -2.5,2.6 -5.1,5.2 -7.6,7.8 -0.8,0.6 -1.6,1.3 -2.3,2 -12.2,12.2 -24.4,24.3 -36.6,36.5 -1.6,1.6 -2.8,3.8 -4.7,5.1 -0.7,-0.6 -2.1,-2 -2.8,-2.7 C 81,123.9 68.1,111 55.2,98.1 c -0.8,-0.8 -1.6,-1.4 -2.5,-2.2 0.6,-0.7 1.3,-1.5 2,-2.2 14.1,-14 28.1,-28 42.1,-42 z"
   id="path10" />
	<path
   class="st2"
   d="m 98.2,141.1 c -1.9,-2 0,0 -1.9,-2 1.9,-1.3 3.4,-3.2 5.1,-4.8 12.2,-12.2 24.4,-24.4 36.6,-36.5 0.7,-0.7 1.5,-1.3 2.3,-2 3.2,3.6 7.1,6.6 10,10.5 14.2,18.8 3.8,44.9 -19.3,48.9 -10.4,1.8 -19.2,-1.3 -26.8,-8.3 -2.2,-1.8 -4.1,-3.9 -6,-5.8 -0.7,-0.7 1.4,1.4 0,0 z"
   id="path12" />
</g>
</svg>
