<svg xmlns="http://www.w3.org/2000/svg" viewBox="0 0 192 192"><rect x="8" y="32.5" width="176" height="127" rx="10" style="fill:#fff"/><path d="M66.69,107.93l-2.13-1.29-.16.29a9.12,9.12,0,0,1-2.73,3.31,6,6,0,0,1-3.33.9,6.89,6.89,0,0,1-3.27-.73,6,6,0,0,1-2.21-2,9.3,9.3,0,0,1-1.29-3.08,17.24,17.24,0,0,1-.42-3.65H66V99.89A13.57,13.57,0,0,0,65.51,96a8.81,8.81,0,0,0-1.62-3.11,7.77,7.77,0,0,0-3-2.21,10.81,10.81,0,0,0-4.35-.81,9.57,9.57,0,0,0-4.45,1,10,10,0,0,0-3.32,2.7,12.6,12.6,0,0,0-2.1,3.86,14.16,14.16,0,0,0-.71,4.43,16.67,16.67,0,0,0,.64,4.71,11.41,11.41,0,0,0,2,3.92,9.66,9.66,0,0,0,3.47,2.68,11.45,11.45,0,0,0,4.89,1,9.84,9.84,0,0,0,5.62-1.65,11.87,11.87,0,0,0,3.86-4.4ZM56.55,92.27a3.6,3.6,0,0,1,2.16.59,4.36,4.36,0,0,1,1.34,1.61,8.21,8.21,0,0,1,.64,2.34,18.63,18.63,0,0,1,.21,2.37H51.15a8.72,8.72,0,0,1,1.63-5A4.55,4.55,0,0,1,56.55,92.27Z" style="fill:#98dc9a"/><path d="M145.68,111.11H146v2.07l-8.29.53-.54-.5v-1.69a9.83,9.83,0,0,1-2.65,1.86,8.43,8.43,0,0,1-3.72.87,8.74,8.74,0,0,1-3.86-.89,9.54,9.54,0,0,1-3.22-2.48,12.21,12.21,0,0,1-2.19-3.86,14.8,14.8,0,0,1-.8-5,13,13,0,0,1,.86-4.73A12.54,12.54,0,0,1,124,93.39a10.42,10.42,0,0,1,3.51-2.51,11,11,0,0,1,7.4-.53,11.68,11.68,0,0,1,2.21.8V83.8a4.12,4.12,0,0,0-.3-1.62,2.29,2.29,0,0,0-.78-1.06,4.12,4.12,0,0,0-1.59-.58,22.21,22.21,0,0,0-2.3-.28h-.29v-2l9.65-.53.54.53v30.42a2.49,2.49,0,0,0,.27,1.2,2.3,2.3,0,0,0,.8.84,2.5,2.5,0,0,0,1.1.29,13.62,13.62,0,0,0,1.49.09ZM121.17,96a2.23,2.23,0,0,1-2,1.06,3,3,0,0,1-2.17-.79,2.32,2.32,0,0,1-.76-1.68,4.54,4.54,0,0,1,.08-1l.08-.42a5.64,5.64,0,0,0-2,.82,7.26,7.26,0,0,0-2.29,2.29v13a2.22,2.22,0,0,0,.27,1.13,1.53,1.53,0,0,0,.81.65,6.09,6.09,0,0,0,1.39.32,12.55,12.55,0,0,0,1.55.16h.29v2.1H92.63v-2.1l1.37-.12a3.86,3.86,0,0,0,.9-.16,1.36,1.36,0,0,0,.81-.58,2.28,2.28,0,0,0,.26-1.17V95.65a2.54,2.54,0,0,0-.29-1.18,2.69,2.69,0,0,0-.83-.94,4.29,4.29,0,0,0-1.15-.42,10.18,10.18,0,0,0-1.45-.23H92V90.8l8.36-.53.51.51v18.48a2.3,2.3,0,0,0,.27,1.15,1.49,1.49,0,0,0,.8.64,6.51,6.51,0,0,0,.94.32,4.94,4.94,0,0,0,1,.16h.22l1.28-.11a3.86,3.86,0,0,0,.9-.16,1.33,1.33,0,0,0,.77-.58,2.19,2.19,0,0,0,.27-1.17V95.61a2.87,2.87,0,0,0-.3-1.25,2.51,2.51,0,0,0-.82-1,2.94,2.94,0,0,0-.91-.34,8.6,8.6,0,0,0-1.24-.17h-.29V90.79l7.91-.53.51.51v2.57A10.29,10.29,0,0,1,114.94,91c2.44-1.34,4.6-1.31,5.88,0a3.75,3.75,0,0,1,1,2.72,4.13,4.13,0,0,1-.64,2.22ZM98.11,85.16a3,3,0,0,1-2.24-1,3.32,3.32,0,0,1-.94-2.35,3.45,3.45,0,0,1,.93-2.4,3,3,0,0,1,2.25-1,3.09,3.09,0,0,1,2.36,1,3.21,3.21,0,0,1,.92,2.25,3.67,3.67,0,0,1-.93,2.49A3,3,0,0,1,98.11,85.16ZM89.07,98a8.42,8.42,0,0,1,2.44,2.6,7.56,7.56,0,0,1,1,3.92,7.86,7.86,0,0,1-1,4.08,8.7,8.7,0,0,1-2.68,2.82,11.84,11.84,0,0,1-3.53,1.64,14.52,14.52,0,0,1-4,.54H65.6v-2.21h.28c.36,0,.89-.1,1.58-.2a5.86,5.86,0,0,0,1.42-.33,1.76,1.76,0,0,0,.85-.72,2.47,2.47,0,0,0,.26-1.22V85.65a3,3,0,0,0-.24-1.24,1.64,1.64,0,0,0-.88-.8,6.49,6.49,0,0,0-1.46-.51A13,13,0,0,0,66,82.88h-.29v-2.2H81a16.72,16.72,0,0,1,3.38.35,10,10,0,0,1,3.11,1.25,6.93,6.93,0,0,1,2.31,2.26,6.53,6.53,0,0,1,.92,3.5A7.53,7.53,0,0,1,90,91.21a7,7,0,0,1-1.81,2.4,10.55,10.55,0,0,1-2.48,1.58,13,13,0,0,1-2,.74,19.92,19.92,0,0,1,2.15.55A11.15,11.15,0,0,1,89.07,98Zm48-2.14a5.7,5.7,0,0,0-.54-1.11,5.23,5.23,0,0,0-1-1.19,5.31,5.31,0,0,0-1.46-.88,4.9,4.9,0,0,0-1.93-.36,4.43,4.43,0,0,0-2.35.65,6.35,6.35,0,0,0-1.93,1.93,10.26,10.26,0,0,0-1.29,3.14,18.27,18.27,0,0,0-.48,4.29,15,15,0,0,0,.36,3.41,9,9,0,0,0,1.18,2.8,6.13,6.13,0,0,0,1.93,1.93,5.11,5.11,0,0,0,2.75.7,5,5,0,0,0,2.85-.72,9.26,9.26,0,0,0,1.87-1.61ZM84.25,91.16a9.62,9.62,0,0,0,.32-2.67,5.53,5.53,0,0,0-1.37-4,5.87,5.87,0,0,0-4.37-1.42l-1.82,0-1.55,0V95H78a9.24,9.24,0,0,0,3.09-.47,4.61,4.61,0,0,0,2-1.34A5.49,5.49,0,0,0,84.25,91.16Zm-8.79,6.38v11.08a2.08,2.08,0,0,0,1,1.93,5.72,5.72,0,0,0,3.07.64,6.37,6.37,0,0,0,5-1.84,8.17,8.17,0,0,0,1.72-5.63,6,6,0,0,0-1.83-4.5,7.38,7.38,0,0,0-5.28-1.76c-1,0-1.79,0-2.46,0Z" style="fill:#56595b"/></svg>