<?xml version="1.0" encoding="utf-8"?>
<!-- Generator: Adobe Illustrator 25.0.0, SVG Export Plug-In . SVG Version: 6.00 Build 0)  -->
<svg version="1.1" id="Layer_1" xmlns="http://www.w3.org/2000/svg" xmlns:xlink="http://www.w3.org/1999/xlink" x="0px" y="0px"
	 viewBox="0 0 192 192" style="enable-background:new 0 0 192 192;" xml:space="preserve">
<style type="text/css">
	.st0{fill:#FFFFFF;}
	.st1{fill:#B02A3C;}
</style>
<path class="st0" d="M30,20h132c5.5,0,10,4.5,10,10v132c0,5.5-4.5,10-10,10H30c-5.5,0-10-4.5-10-10V30C20,24.5,24.5,20,30,20z"/>
<path class="st1" d="M103.9,98.5c0-0.9,0-1.8,0-2.7c0-0.5,0-0.9,0.7-1c0.6,0,1.3-0.2,1.5,0.6c0.5,1.9,0.5,3.8-0.2,5.7
	c-0.2,0.6-0.9,1-1.6,0.9c-0.8-0.1-0.4-0.9-0.4-1.4C103.8,100,103.9,99.3,103.9,98.5z"/>
<path class="st1" d="M74.2,78.5c-0.6,0.1-0.7,0-0.7-0.5c0.1-0.9,0.5-1.4,1.4-1.5c0.7-0.1,0.8,0.5,0.8,1
	C75.8,78.7,74.6,78.1,74.2,78.5z"/>
<path class="st1" d="M51.1,125.2c3.2,3.3,7.1,4.6,11.5,4.6c10.6,0.1,21.1,0,31.7,0.1c0.9,0,1.1-0.3,1.2-1.1
	c0.6-3.8,1.2-7.7,1.9-11.5c0.2-1.2,0.1-1.6-1.3-1.6c-8.4,0.1-16.7-0.1-25.1,0.1c-6.7,0.2-8.2-3.3-8.2-8.2c0-2.1,0.1-4.3,0-6.4
	c-0.1-1.2,0.4-1.4,1.4-1.4c8.2,0,16.3,0,24.5,0.1c1.3,0,1.8-0.3,2-1.6c0.5-3.6,1.2-7.2,1.8-10.7c0.2-1.1,0-1.4-1.2-1.4
	c-9,0-18,0-27,0.1c-1.3,0-1.6-0.3-1.5-1.6c0.1-4.3,0.1-8.6,0-12.8c0-1.1,0.3-1.4,1.4-1.4c10.1,0,20.1,0,30.2,0.1
	c1.2,0,1.7-0.3,1.9-1.6c0.5-3.7,1.1-7.5,1.8-11.2c0.2-1.2,0-1.5-1.2-1.5c-12.1,0-24.2,0-36.3,0c-0.5,0-1,0-1.6,0
	c12.3-12.2,35-19.5,56.8-10.4c21.3,8.8,35.1,30.6,32.8,54.6c-2.3,24.8-21.3,44.1-44.8,47.9c-12,1.9-23.4-0.2-34-6.1
	C62.1,138.1,55.7,132.7,51.1,125.2z"/>
</svg>
