<svg width="192" height="192" version="1.1" viewBox="0 0 192 192" xmlns="http://www.w3.org/2000/svg">
 <rect x="20" y="20" width="152" height="152" rx="9.9346" fill="#fff"/>
 <path class="st1" d="m47.125 125.75c3.2 3.3 7.1 4.6 11.5 4.6 10.6 0.1 21.1 0 31.7 0.1 0.9 0 1.1-0.3 1.2-1.1 0.6-3.8 1.2-7.7 1.9-11.5 0.2-1.2 0.1-1.6-1.3-1.6-8.4 0.1-16.7-0.1-25.1 0.1-6.7 0.2-8.2-3.3-8.2-8.2 0-2.1 0.1-4.3 0-6.4-0.1-1.2 0.4-1.4 1.4-1.4 8.2 0 16.3 0 24.5 0.1 1.3 0 1.8-0.3 2-1.6 0.5-3.6 1.2-7.2 1.8-10.7 0.2-1.1 0-1.4-1.2-1.4-9 0-18 0-27 0.1-1.3 0-1.6-0.3-1.5-1.6 0.1-4.3 0.1-8.6 0-12.8 0-1.1 0.3-1.4 1.4-1.4 10.1 0 20.1 0 30.2 0.1 1.2 0 1.7-0.3 1.9-1.6 0.5-3.7 1.1-7.5 1.8-11.2 0.2-1.2 0-1.5-1.2-1.5h-37.9c12.3-12.2 35-19.5 56.8-10.4 21.3 8.8 35.1 30.6 32.8 54.6-2.3 24.8-21.3 44.1-44.8 47.9-12 1.9-23.4-0.2-34-6.1-7.7-4.2-14.1-9.6-18.7-17.1z" fill="#ba6561"/>
</svg>
