<?xml version="1.0" encoding="UTF-8"?>
<svg version="1.1" viewBox="0 0 192 192" xml:space="preserve" xmlns="http://www.w3.org/2000/svg">
	 <rect class="a" x="20" y="20" width="152" height="152" rx="10" fill="#9abeff"/><path d="m74.707 126.32c-4.5144-0.45684-8.3586-1.7772-11.773-4.0436-13.071-8.6758-12.076-33.65 1.89-47.456 6.289-6.217 12.478-8.929 21.202-9.2903 8.4499-0.34996 13.628 1.3269 17.769 5.7546 3.4518 3.6902 4.2797 5.9689 4.2366 11.66-0.025 3.2986-0.27529 5.3257-0.80022 6.4802-3.8214 8.4045-12.433 12.208-29.164 12.882l-7.9203 0.31879 0.15436 1.44c0.40457 3.7743 3.2621 6.9804 7.5259 8.444 4.2165 1.4474 14.051 0.44599 19.801-2.0161 1.122-0.48048 2.0588-0.82728 2.0817-0.77065 0.02291 0.0566 0.31958 2.803 0.65926 6.1032 0.69233 6.7262 0.90716 6.1907-3.101 7.7291-5.9613 2.288-15.601 3.4696-22.561 2.7652zm12.59-37.822c3.3923-1.3012 4.6911-2.8318 4.6911-5.5281 0-4.3732-4.8101-6.3128-10.688-4.3099-3.8739 1.32-7.8728 5.7511-9.2309 10.229l-0.34712 1.1444 6.413-0.24029c5.0339-0.18863 7.0042-0.46708 9.1622-1.2948zm27.363 36.173c-6.8557-3.4163-10.236-12.186-7.6209-19.771 1.1577-3.3576 4.8428-7.357 8.379-9.0935 2.3397-1.149 3.3164-1.3413 6.8115-1.3413 3.4104 0 4.5252 0.20865 6.7912 1.2711 3.4525 1.6187 6.3996 4.5657 8.0182 8.0182 1.0715 2.2854 1.2675 3.3517 1.2486 6.7912-0.0189 3.431-0.2306 4.5111-1.3306 6.7888-1.4582 3.0195-4.4595 6.0466-7.5664 7.6317-1.9728 1.0064-2.0801 1.0135-2.6923 0.17627-3.0281-4.1412-0.65319-9.7599 4.628-10.949l2.4851-0.55969-1.0332-1.3134c-1.4985-1.9051-3.6351-2.8774-5.538-2.5204l-1.5929 0.29884 0.45763-1.5764c0.55255-1.9034 0.18782-3.9187-1.09-6.0226-1.4646-2.4115-2.6245-2.8312-4.0764-1.4751-2.0034 1.8713-2.677 3.6542-2.4436 6.4686 0.20369 2.4563 0.17122 2.5402-0.88161 2.2759-1.6741-0.42016-4.3298 0.67167-5.7625 2.3691l-1.2897 1.528 1.154 0.14675c2.5072 0.31886 4.2902 1.185 5.6664 2.7524 1.7209 1.96 2.2647 4.347 1.5107 6.6315-0.87907 2.6636-1.4488 2.8621-4.2325 1.475z" fill="#fff" stroke-width=".48002"/></svg>
