<?xml version="1.0" encoding="UTF-8" standalone="no"?>
<svg
   sodipodi:docname="enterprise.svg"
   inkscape:version="1.2 (dc2aedaf03, 2022-05-15)"
   version="1.1"
   id="svg2"
   viewBox="0 0 192 192"
   height="192"
   width="192"
   inkscape:export-filename="png/enterprise.png"
   inkscape:export-xdpi="96"
   inkscape:export-ydpi="96"
   xml:space="preserve"
   xmlns:inkscape="http://www.inkscape.org/namespaces/inkscape"
   xmlns:sodipodi="http://sodipodi.sourceforge.net/DTD/sodipodi-0.dtd"
   xmlns="http://www.w3.org/2000/svg"
   xmlns:svg="http://www.w3.org/2000/svg"
   xmlns:rdf="http://www.w3.org/1999/02/22-rdf-syntax-ns#"
   xmlns:cc="http://creativecommons.org/ns#"
   xmlns:dc="http://purl.org/dc/elements/1.1/"><sodipodi:namedview
     inkscape:document-rotation="0"
     inkscape:window-maximized="1"
     inkscape:window-y="0"
     inkscape:window-x="36"
     inkscape:window-height="1052"
     inkscape:window-width="1884"
     units="px"
     showgrid="false"
     inkscape:current-layer="layer1"
     inkscape:document-units="px"
     inkscape:cy="-138"
     inkscape:cx="-16.5"
     inkscape:zoom="1"
     inkscape:pageshadow="2"
     inkscape:pageopacity="0.0"
     borderopacity="1.0"
     bordercolor="#666666"
     pagecolor="#ffffff"
     id="base"
     inkscape:snap-bbox="false"
     inkscape:object-paths="true"
     inkscape:snap-nodes="true"
     showguides="true"
     inkscape:guide-bbox="true"
     inkscape:snap-object-midpoints="true"
     inkscape:snap-center="true"
     inkscape:snap-global="false"
     inkscape:snap-intersection-paths="true"
     inkscape:snap-smooth-nodes="true"
     inkscape:snap-midpoints="true"
     inkscape:showpageshadow="0"
     inkscape:pagecheckerboard="0"
     inkscape:deskcolor="#d1d1d1"><inkscape:grid
       type="xygrid"
       id="grid2023" /></sodipodi:namedview><defs
     id="defs4"><style
       id="style215">.cls-1,.cls-2{fill:none;}.cls-1{clip-rule:evenodd;}.cls-3{clip-path:url(#clip-path);}.cls-4{clip-path:url(#clip-path-2);}.cls-5{clip-path:url(#clip-path-3);}.cls-6{clip-path:url(#clip-path-5);}.cls-7{clip-path:url(#clip-path-7);}.cls-8{clip-path:url(#clip-path-9);}.cls-9{clip-path:url(#clip-path-11);}.cls-10{fill:#00a664;}.cls-11{clip-path:url(#clip-path-13);}.cls-12{clip-path:url(#clip-path-15);}.cls-13{clip-path:url(#clip-path-17);}.cls-14{clip-path:url(#clip-path-19);}.cls-15{clip-path:url(#clip-path-21);}.cls-16{clip-path:url(#clip-path-23);}.cls-17{clip-path:url(#clip-path-25);}.cls-18{clip-path:url(#clip-path-27);}.cls-19{clip-path:url(#clip-path-29);}.cls-20{isolation:isolate;}.cls-21{clip-path:url(#clip-path-31);}.cls-22{clip-path:url(#clip-path-32);}.cls-23{clip-path:url(#clip-path-33);}.cls-24{fill:#fff;}.cls-25{clip-path:url(#clip-path-34);}.cls-26{clip-path:url(#clip-path-36);}.cls-27{clip-path:url(#clip-path-38);}.cls-28{clip-path:url(#clip-path-40);}.cls-29{clip-path:url(#clip-path-42);}.cls-30{clip-path:url(#clip-path-44);}.cls-31{clip-path:url(#clip-path-46);}.cls-32{clip-path:url(#clip-path-48);}.cls-33{clip-path:url(#clip-path-50);}.cls-34{clip-path:url(#clip-path-52);}.cls-35{clip-path:url(#clip-path-54);}.cls-36{clip-path:url(#clip-path-56);}.cls-37{clip-path:url(#clip-path-58);}.cls-38{clip-path:url(#clip-path-60);}.cls-39{clip-path:url(#clip-path-62);}.cls-40{clip-path:url(#clip-path-64);}.cls-41{clip-path:url(#clip-path-66);}</style></defs><metadata
     id="metadata7"><rdf:RDF><cc:Work
         rdf:about=""><dc:format>image/svg+xml</dc:format><dc:type
           rdf:resource="http://purl.org/dc/dcmitype/StillImage" /></cc:Work></rdf:RDF></metadata><g
     transform="translate(0,-860.36216)"
     id="layer1"
     inkscape:groupmode="layer"
     inkscape:label="Calque 1"><rect
       style="fill:#97db99;fill-opacity:1;fill-rule:evenodd;stroke:none;stroke-width:0.993464;stroke-opacity:1"
       width="152"
       height="152"
       x="20"
       y="880.36218"
       rx="9.9346409"
       id="rect3480"
       ry="9.9346409" /><path
       d="m 118.66396,949.86382 c -0.3418,0.69485 -1.54911,0.82014 -2.69958,0.83154 H 73.226849 c 0.330378,-0.79736 0.888457,-1.56052 0.888457,-1.56052 4.032274,-5.92312 13.372575,-10.09207 22.633124,-10.10347 9.65924,-0.0458 17.49596,3.22353 21.50549,8.93022 0.51254,0.8885 0.63788,1.46941 0.41,1.90223 m 16.42524,2.41479 c -2.41478,-12.00566 -16.47082,-24.18225 -38.67111,-24.18225 h -0.0212 c -19.569017,0 -33.80731,10.38823 -38.397704,21.03848 -0.102522,0.21643 -0.467015,1.16182 -0.592298,1.56052 H 20 v 10.92356 c 18.498308,0 101.66125,0.0127 104.1444,0 5.11437,-0.0453 8.79353,-0.13681 10.37684,-2.09586 1.0935,-1.32132 1.26436,-3.57665 0.56951,-7.24445"
       fill="#ffffff"
       id="path2877"
       style="stroke-width:11.3907"
       sodipodi:nodetypes="ccccccccssccccccc" /><path
       d="m 96.20171,972.87286 c -8.679641,0 -17.040348,-3.57665 -21.391552,-8.80493 H 58.282361 c 4.351214,10.4338 17.507402,20.58281 38.101589,20.56003 21.11821,-0.0339 29.62696,-7.41528 35.16279,-14.6369 0.26217,-0.38714 0.43282,-0.61509 0.62649,-0.97961 h -19.38681 c -3.83863,3.09824 -11.1514,3.86141 -16.58471,3.86141"
       fill="#ffffff"
       id="path2881"
       style="stroke-width:11.3907" /><path
       d="m 118.66396,949.86382 c 0.22788,-0.43282 0.10252,-1.01373 -0.41,-1.90223 -4.00952,-5.70669 -11.84624,-8.97579 -21.50549,-8.93022 -9.260547,0.0127 -18.600848,4.18035 -22.633122,10.10347 0,0 -0.558121,0.76316 -0.888458,1.56052 h 42.73753 c 1.15046,-0.0127 2.35787,-0.13681 2.69959,-0.83154"
       fill="#00a768"
       id="path2889"
       style="fill:#97db99;fill-opacity:1;stroke-width:11.3907" /><path
       d="m 128.07262,956.12867 c 0.78597,-0.58091 1.05934,-1.35547 1.01376,-2.68819 -0.20501,-5.72947 -10.1604,-21.08401 -32.71382,-21.08401 -21.721872,0 -29.661137,12.62081 -31.574731,16.48222 0,0 -0.467016,0.85427 -0.842916,1.81109 h 2.51733 c 0.227878,-0.56952 0.432828,-0.97956 0.751768,-1.56052 1.765562,-3.26911 9.898432,-14.51161 29.148549,-14.51161 22.43952,0 30.33321,15.21785 30.33321,18.49835 0,0.52395 -0.14826,0.78596 -0.33038,0.93404 -0.62649,0.59229 -1.46941,0.88846 -7.08495,0.88846 H 20 v 2.23257 h 99.29044 c 7.25581,0 8.08729,-0.48981 8.78214,-1.0024"
       fill="#00a768"
       id="path2893"
       style="fill:#97db99;fill-opacity:1;stroke-width:11.3907"
       sodipodi:nodetypes="ccsccccsscsccsc" /><path
       d="m 124.63267,969.00006 -0.23933,0.3075 c -8.75939,10.90082 -26.98437,10.67299 -29.04604,10.61607 -15.616548,-0.26219 -26.369249,-8.25821 -30.128155,-15.85574 h 2.551476 c 3.599435,6.25341 12.677765,13.23585 27.644999,13.63455 0.70624,0.0212 17.23398,0.68345 26.20978,-8.70243 z"
       fill="#00a768"
       id="path2897"
       style="fill:#97db99;fill-opacity:1;stroke-width:11.3907" /></g><style
     type="text/css"
     id="style853">
	.st0{fill:#FFFFFF;}
</style><style
     type="text/css"
     id="style853-9">
	.st0{fill:#FFFFFF;}
</style><style
     type="text/css"
     id="style853-3">
	.st0{fill:#FFFFFF;}
</style></svg>
