<svg xmlns="http://www.w3.org/2000/svg" id="svg2" width="192" height="192" version="1.1"><g id="layer2"><rect id="rect980" width="152" height="152" x="20" y="20" rx="9.935" style="fill:#56595b;fill-opacity:1;fill-rule:evenodd;stroke:none;stroke-width:.993464;stroke-opacity:1"/><path id="path3218" d="M67.449 136.006c-6.735-2.068-9.781-8.804-6.812-15.062.97-2.045 1.85-2.653 5.275-3.649 4.85-1.41 8.61-4.94 9.325-8.753.645-3.436-3.437-14.78-10.49-29.156-4.934-10.054-5.38-11.33-5.078-14.546.422-4.498 2.293-7.262 6.68-8.803 5.138-.809 6.596-.147 8.694.283 7.793.752 27.287 12.638 35.952 18.326 9.756 6.404 18.374 13.352 20.126 16.225 1.7 2.79 1.839 6.381.356 9.249-2.435 4.707-25.239 21.23-29.302 21.23-2.59 0-5.43-2.73-5.43-5.217 0-3.538 1.208-4.9 5.436-6.13 5.13-1.491 6.735-3.655 5.267-7.1-3.45-8.098-13.294-9.524-18.992-2.752-2.76 3.281-3.05 6.213-1.21 12.268 1.38 4.546 1.475 5.699.758 9.156-1.172 5.644-4.273 9.498-9.759 12.127-5.217 2.5-8.13 3.122-10.796 2.304z" style="fill:#98dc9a;fill-opacity:1;stroke-width:.730815"/></g><style id="style853" type="text/css">.st0{fill:#fff}</style></svg>