<svg xmlns="http://www.w3.org/2000/svg" id="svg2" width="192" height="192" version="1.1"><g id="layer1" transform="translate(0 -860.362)"><circle id="circle927" cx="96" cy="956.362" r="88" style="fill:#fff;fill-opacity:1;fill-rule:evenodd;stroke:none;stroke-opacity:1"/><path id="path917" fill="#c2b291" d="M74.434 976.015c7.36 0 13.675-4.867 13.664-11.568a8.335 8.335 0 0 0-8.395-8.317c-2.871-.01-5.58 1.338-6.747 3.619l.693 1.515c1.415-2.469 3.767-3.628 6.176-3.617 3.796-.01 6.596 2.894 6.577 6.533.02 5.738-4.9 9.833-10.645 9.833-6.225 0-10.884-5.374-10.884-11.738 0-6.71 5.904-11.18 12.722-11.18 1.757 0 3.606.356 5.22.96l.02-.02-1.072-2.833c-5.816-.28-11.275-3.252-11.275-8.108 0-2.716 1.867-4.838 4.468-4.838 2.44 0 3.927 1.914 3.927 3.975 0 .852-.182 1.704-1.076 2.597l.332.772 4.358-3.588c-.502-3.389-3.475-5.242-7.382-5.242-4.608 0-9.176 3.24-9.176 7.68 0 2.995 1.746 5.334 5.04 6.72l1.035.439c-7.47 1.338-12.514 6.977-12.514 12.854 0 8.17 7.001 13.552 14.934 13.552m17.38 13.529c11.147 0 19.07-8.207 19.07-18.872 0-7.346-5.173-15.018-12.422-22.65-6.98-7.395-10.724-10.775-10.724-15.772 0-4.351 2.68-7.156 6.585-7.156 3.694 0 6.168 2.944 6.168 6.62 0 1.359-.332 2.609-1.036 3.66l.332.772 6.497-5.292c-1.495-4.738-5.032-7.674-10.384-7.674-7.512 0-11.918 5.79-11.918 11.955 0 5.769 3.886 10.846 10.089 17.686 7.753 8.554 11.959 14.252 11.959 21.44 0 8.266-5.785 13.588-14.459 13.588-8.154 0-15.553-5.778-15.564-13.47-.01-6.264 4.5-11.28 10.616-11.29 4.386-.01 7.67 3.122 7.67 6.889a7.986 7.986 0 0 1-1.025 3.836l.332.774 6.293-5.086c-.502-5.205-6.023-8.435-11.706-8.435-7.714 0-13.817 5.867-13.828 13.134-.004 8.793 8.028 15.343 17.456 15.343m40.685-46.895c.011-4.698-3.575-8.158-8.313-8.158-4.298 0-7.964 2.915-7.964 7.079 0 3.309 2.36 6.313 5.774 6.66l.772-.962c-3.073-.356-4.82-2.993-4.82-5.51.01-2.976 2.351-4.887 5.382-4.887 3.555 0 6.185 2.894 6.185 6.57 0 2.876-1.516 6.533-3.254 10.16-1.827 3.867-4.387 9.428-5.462 12.461-3.455-10.22-4.568-13.412-6.187-17.595-2.66-6.869-4.89-11.903-5.842-13.877l-6.398 5.303.292.734c1.075-.407 1.978.089 2.84 1.031 1.215 1.288 1.978 3.3 3.465 6.988 2.079 5.155 3.554 8.981 4.791 12.421 1.887 5.243 4.066 11.756 4.066 13.906a1.009 1.009 0 0 1-.06.398v.02h2.02c.343-2.241 2.088-7.782 4.429-13.284 1.174-2.805 2.541-5.373 3.827-7.76 2.5-4.719 4.47-8.258 4.457-11.698" clip-path="url(#SVGID_2_)" style="fill:#d3b69a;fill-opacity:1;stroke-width:1"/></g><style id="style853" type="text/css">.st0{fill:#fff}</style></svg>