<?xml version="1.0" encoding="UTF-8" standalone="no"?>
<svg
   xmlns:dc="http://purl.org/dc/elements/1.1/"
   xmlns:cc="http://creativecommons.org/ns#"
   xmlns:rdf="http://www.w3.org/1999/02/22-rdf-syntax-ns#"
   xmlns:svg="http://www.w3.org/2000/svg"
   xmlns="http://www.w3.org/2000/svg"
   xmlns:sodipodi="http://sodipodi.sourceforge.net/DTD/sodipodi-0.dtd"
   xmlns:inkscape="http://www.inkscape.org/namespaces/inkscape"
   sodipodi:docname="esv.svg"
   inkscape:version="1.0.1 (3bc2e813f5, 2020-09-07)"
   version="1.1"
   id="svg2"
   viewBox="0 0 192 192"
   height="192"
   width="192"
   inkscape:export-filename="/home/jphilippe/inkscape/icônes/delta-github/png/esv.png"
   inkscape:export-xdpi="96"
   inkscape:export-ydpi="96">
  <sodipodi:namedview
     inkscape:document-rotation="0"
     inkscape:window-maximized="1"
     inkscape:window-y="30"
     inkscape:window-x="1920"
     inkscape:window-height="1022"
     inkscape:window-width="1680"
     units="px"
     showgrid="false"
     inkscape:current-layer="layer1"
     inkscape:document-units="px"
     inkscape:cy="242.03546"
     inkscape:cx="344.95294"
     inkscape:zoom="0.7071068"
     inkscape:pageshadow="2"
     inkscape:pageopacity="0.0"
     borderopacity="1.0"
     bordercolor="#666666"
     pagecolor="#ffffff"
     id="base"
     inkscape:snap-bbox="false"
     inkscape:object-paths="true"
     inkscape:snap-nodes="true"
     showguides="true"
     inkscape:guide-bbox="true"
     inkscape:snap-object-midpoints="true"
     inkscape:snap-center="true"
     inkscape:snap-global="false"
     inkscape:snap-intersection-paths="true"
     inkscape:snap-smooth-nodes="true"
     inkscape:snap-midpoints="true" />
  <defs
     id="defs4" />
  <metadata
     id="metadata7">
    <rdf:RDF>
      <cc:Work
         rdf:about="">
        <dc:format>image/svg+xml</dc:format>
        <dc:type
           rdf:resource="http://purl.org/dc/dcmitype/StillImage" />
        <dc:title></dc:title>
      </cc:Work>
    </rdf:RDF>
  </metadata>
  <g
     transform="translate(0,-860.36216)"
     id="layer1"
     inkscape:groupmode="layer"
     inkscape:label="Calque 1">
    <circle
       style="fill:#ffffff;fill-opacity:1;fill-rule:evenodd;stroke:none;stroke-opacity:1"
       cx="96"
       cy="956.36218"
       r="88"
       id="circle927" />
    <path
       d="m 74.434012,976.01462 c 7.35972,0 13.67532,-4.86666 13.66426,-11.56717 a 8.335265,8.335265 0 0 0 -8.39499,-8.31758 c -2.87133,-0.009 -5.58118,1.33833 -6.74697,3.61903 l 0.6924,1.5153 c 1.41576,-2.46873 3.76724,-3.62788 6.17624,-3.61682 3.79599,-0.0111 6.59654,2.89346 6.57663,6.53239 0.0199,5.73824 -4.89985,9.83287 -10.64472,9.83287 -6.22491,0 -10.88363,-5.37323 -10.88363,-11.7375 0,-6.70936 5.90415,-11.18005 12.7219,-11.18005 1.75642,0 3.60576,0.35615 5.2206,0.96006 l 0.0199,-0.0199 -1.07288,-2.83373 c -5.81566,-0.27872 -11.27517,-3.25181 -11.27517,-8.10741 0,-2.71649 1.86703,-4.8379 4.46848,-4.8379 2.43997,0 3.92651,1.91349 3.92651,3.97518 0,0.85167 -0.18139,1.70333 -1.07509,2.59703 l 0.33182,0.77203 4.35788,-3.58807 c -0.50215,-3.38896 -3.47524,-5.24271 -7.38185,-5.24271 -4.60784,0 -9.17587,3.24075 -9.17587,7.68047 0,2.99521 1.74537,5.33343 5.03921,6.72042 l 1.03528,0.438 c -7.47033,1.33834 -12.51397,6.97703 -12.51397,12.85463 0,8.16935 7.00136,13.55144 14.93402,13.55144 m 17.38062,13.52931 c 11.146868,0 19.068468,-8.20695 19.068468,-18.87158 0,-7.34645 -5.17194,-15.01807 -12.421048,-22.6499 -6.97924,-7.39511 -10.72435,-10.77522 -10.72435,-15.77241 0,-4.35123 2.68109,-7.1562 6.58548,-7.1562 3.69423,0 6.167378,2.94433 6.167378,6.62087 0,1.35824 -0.33181,2.60809 -1.035268,3.65884 l 0.33182,0.77204 6.496988,-5.2914 c -1.49539,-4.73835 -5.03257,-7.67382 -10.383678,-7.67382 -7.51236,0 -11.9189,5.78911 -11.9189,11.95429 0,5.76919 3.88669,10.84601 10.08948,17.68589 7.753468,8.55426 11.958708,14.25268 11.958708,21.43985 0,8.26669 -5.78469,13.58903 -14.458408,13.58903 -8.15387,0 -15.55341,-5.77804 -15.56447,-13.46958 -0.009,-6.26472 4.49945,-11.28179 10.61596,-11.29065 4.38663,-0.011 7.66942,3.1213 7.66942,6.88853 a 7.9857501,7.9857501 0 0 1 -1.02421,3.83582 l 0.33181,0.77424 6.29348,-5.08566 c -0.50215,-5.20512 -6.0236,-8.43481 -11.70653,-8.43481 -7.71366,0 -13.8169,5.86654 -13.82796,13.13335 -0.004,8.79317 8.02778,15.34326 17.45583,15.34326 m 40.685298,-46.89471 c 0.0111,-4.69855 -3.57478,-8.1583 -8.31315,-8.1583 -4.29814,0 -7.96362,2.91557 -7.96362,7.07878 0,3.30933 2.36033,6.31339 5.77362,6.66069 l 0.77204,-0.96227 c -3.07264,-0.35615 -4.82021,-2.993 -4.82021,-5.51039 0.0111,-2.9753 2.35148,-4.88657 5.38208,-4.88657 3.55488,0 6.18509,2.89345 6.18509,6.56999 0,2.87576 -1.5153,6.53239 -3.25403,10.16027 -1.82721,3.86678 -4.38663,9.42805 -5.46172,12.46087 -3.45533,-10.22 -4.56802,-13.41208 -6.1873,-17.5952 -2.65896,-6.86863 -4.88878,-11.90341 -5.84221,-13.87663 l -6.39744,5.30246 0.292,0.73442 c 1.07509,-0.40703 1.97763,0.0885 2.84036,1.03084 1.21445,1.28746 1.97763,3.30049 3.46418,6.98809 2.07939,5.15424 3.55487,8.9812 4.79145,12.42105 1.88693,5.24272 4.06587,11.7552 4.06587,13.90538 a 1.0087263,1.0087263 0 0 1 -0.0597,0.39818 v 0.0199 h 2.01967 c 0.34288,-2.24087 2.08824,-7.78223 4.42866,-13.28377 1.17464,-2.80497 2.54173,-5.37324 3.82697,-7.76012 2.49969,-4.71845 4.47069,-8.25784 4.45742,-11.69768"
       clip-path="url(#SVGID_2_)"
       fill="#c2b291"
       id="path917"
       style="fill:#d3b69a;fill-opacity:1;stroke-width:1" />
  </g>
  <style
     type="text/css"
     id="style853">
	.st0{fill:#FFFFFF;}
</style>
  <style
     type="text/css"
     id="style853-9">
	.st0{fill:#FFFFFF;}
</style>
  <style
     type="text/css"
     id="style853-3">
	.st0{fill:#FFFFFF;}
</style>
  <style
     id="style909" />
</svg>
