<?xml version="1.0" encoding="UTF-8" standalone="no"?>
<svg
   width="192"
   height="192"
   viewBox="0 0 50.800003 50.8"
   version="1.1"
   id="svg1407"
   sodipodi:docname="ewelink.svg"
   inkscape:version="1.2 (dc2aedaf03, 2022-05-15)"
   xmlns:inkscape="http://www.inkscape.org/namespaces/inkscape"
   xmlns:sodipodi="http://sodipodi.sourceforge.net/DTD/sodipodi-0.dtd"
   xmlns="http://www.w3.org/2000/svg"
   xmlns:svg="http://www.w3.org/2000/svg"
   xmlns:rdf="http://www.w3.org/1999/02/22-rdf-syntax-ns#"
   xmlns:cc="http://creativecommons.org/ns#"
   xmlns:dc="http://purl.org/dc/elements/1.1/">
  <sodipodi:namedview
     pagecolor="#ffffff"
     bordercolor="#666666"
     borderopacity="1"
     objecttolerance="10"
     gridtolerance="10"
     guidetolerance="10"
     inkscape:pageopacity="0"
     inkscape:pageshadow="2"
     inkscape:window-width="1680"
     inkscape:window-height="1022"
     id="namedview103"
     showgrid="false"
     inkscape:zoom="1"
     inkscape:cx="301.5"
     inkscape:cy="81"
     inkscape:window-x="1920"
     inkscape:window-y="0"
     inkscape:window-maximized="1"
     inkscape:current-layer="svg1407"
     inkscape:document-rotation="0"
     showguides="false"
     fit-margin-top="40"
     fit-margin-left="40"
     fit-margin-right="40"
     fit-margin-bottom="40"
     lock-margins="true"
     inkscape:showpageshadow="0"
     inkscape:pagecheckerboard="0"
     inkscape:deskcolor="#d1d1d1" />
  <defs
     id="defs1401" />
  <metadata
     id="metadata1404">
    <rdf:RDF>
      <cc:Work
         rdf:about="">
        <dc:format>image/svg+xml</dc:format>
        <dc:type
           rdf:resource="http://purl.org/dc/dcmitype/StillImage" />
        <dc:title />
      </cc:Work>
    </rdf:RDF>
  </metadata>
  <g
     id="g11115"
     transform="translate(-84.699743,-8.4633103)">
    <path
       id="circle977-4-9"
       style="opacity:1;fill:#99bdfe;fill-opacity:1;fill-rule:evenodd;stroke:none;stroke-width:0.264573;stroke-opacity:1"
       d="M 133.38307,33.861628 A 23.283333,23.281657 0 0 1 110.09974,57.143282 23.283333,23.281657 0 0 1 86.816412,33.861628 23.283333,23.281657 0 0 1 110.09974,10.579971 23.283333,23.281657 0 0 1 133.38307,33.861628 Z" />
    <path
       id="circle977"
       style="opacity:1;fill:#708cbd;fill-opacity:1;fill-rule:evenodd;stroke:none;stroke-width:0.264592;stroke-opacity:1"
       d="m 110.05065,10.583334 a 23.283332,23.285009 0 0 0 -12.068515,3.402104 c 1.572712,0.402586 3.220785,1.166299 4.898925,2.236717 1.41837,-1.507208 2.88684,-2.687929 4.37079,-3.464121 0.92442,-0.483517 1.8609,-0.811983 2.78743,-0.959184 0.92654,-0.147199 1.84333,-0.114944 2.73213,0.122999 1.77761,0.475887 3.23856,1.718461 4.34186,3.477041 0.90502,1.442536 1.58005,3.242811 2.03553,5.308586 0.78035,-0.02341 1.53578,-0.01308 2.25568,0.04135 1.18899,0.08988 2.28954,0.287684 3.28507,0.59949 1.99107,0.623612 3.57175,1.719146 4.49223,3.312697 0.92048,1.593553 1.07615,3.504002 0.61288,5.527711 -0.37995,1.659792 -1.1765,3.409343 -2.3151,5.191787 1.50773,1.418549 2.68975,2.887473 3.46594,4.371625 0.42449,0.811669 0.72858,1.631838 0.89607,2.447057 a 23.283332,23.285009 0 0 0 1.54151,-8.330842 23.283332,23.285009 0 0 0 -23.28334,-23.285011 23.283332,23.285009 0 0 0 -0.0491,0 z m 1.02939,2.208809 c -0.28917,0.0026 -0.58225,0.02799 -0.87901,0.07545 -0.79135,0.126568 -1.60907,0.411399 -2.44688,0.849622 -1.30376,0.681936 -2.64375,1.740639 -3.95945,3.115797 0.0873,0.06118 0.17455,0.11808 0.262,0.18088 1.96119,1.408393 3.94805,3.223136 5.87509,5.373703 2.70336,-0.842626 5.29119,-1.376722 7.66,-1.590198 0.15535,-0.014 0.30646,-0.02186 0.45992,-0.03308 -0.43496,-1.896709 -1.0605,-3.523336 -1.85467,-4.7892 -0.99818,-1.591044 -2.23592,-2.613028 -3.70468,-3.006235 -0.45899,-0.122879 -0.93036,-0.181129 -1.41232,-0.176746 z m -14.37793,2.03258 a 23.283332,23.285009 0 0 0 -7.418152,8.611982 c -0.006,0.294974 -0.004,0.597179 0.0021,0.902853 0.105251,-0.01853 0.207216,-0.0399 0.313677,-0.05737 1.328825,-0.218063 2.752577,-0.352498 4.251936,-0.402071 1.188887,-0.03931 2.426531,-0.02381 3.701585,0.046 1.315132,-2.50674 2.767044,-4.713514 4.290694,-6.53909 0.10028,-0.120158 0.20192,-0.232511 0.30282,-0.349358 -1.64855,-1.03344 -3.240665,-1.740923 -4.697385,-2.074442 -0.25383,-0.05811 -0.502388,-0.102464 -0.747241,-0.138503 z m 6.35723,2.815536 c -0.1279,0.146427 -0.25628,0.29003 -0.38343,0.442382 -1.37924,1.652553 -2.708664,3.653133 -3.931547,5.923063 1.678497,0.13458 3.416057,0.362277 5.193487,0.686311 1.64196,-0.748074 3.27003,-1.39544 4.86326,-1.936454 -1.77965,-1.944041 -3.59779,-3.58604 -5.37538,-4.862586 -0.12257,-0.08802 -0.24425,-0.16817 -0.36639,-0.252716 z m 16.51114,4.136479 c -0.0682,8.69e-4 -0.13948,0.0052 -0.20825,0.0067 0.0186,0.105784 0.0403,0.20824 0.0579,0.315249 0.39104,2.383199 0.51337,5.072025 0.35554,7.956159 2.50578,1.314643 4.71358,2.765 6.53862,4.28842 0.12016,0.100305 0.23298,0.201931 0.34985,0.302845 1.03332,-1.648757 1.7408,-3.240943 2.07429,-4.697725 0.41913,-1.830916 0.26652,-3.42962 -0.49403,-4.746306 -0.76054,-1.316686 -2.0748,-2.254992 -3.87935,-2.820187 -0.90227,-0.282595 -1.92268,-0.468231 -3.04271,-0.552977 -0.56002,-0.04238 -1.14504,-0.05992 -1.75183,-0.0522 z m -1.29966,0.05737 c -0.19379,0.0131 -0.38604,0.02407 -0.58343,0.04186 -2.14465,0.193276 -4.50002,0.668278 -6.97063,1.409317 1.09066,1.280891 2.15672,2.671297 3.18378,4.155085 1.69364,0.633157 3.30203,1.330101 4.81418,2.075475 0.11616,-2.633592 -0.009,-5.081063 -0.36328,-7.241423 -0.0246,-0.149727 -0.0539,-0.293375 -0.0806,-0.440315 z m -8.68164,1.805188 c -1.2432,0.408405 -2.51211,0.885306 -3.7946,1.424821 1.0235,0.221979 2.05723,0.473959 3.098,0.759183 1.10225,0.302073 2.17677,0.634344 3.22668,0.987606 -0.82554,-1.121927 -1.67132,-2.183036 -2.53008,-3.17161 z M 94.712567,24.94577 c -0.278563,0.0031 -0.554762,0.0092 -0.827857,0.01809 -1.456505,0.04749 -2.834182,0.176977 -4.111376,0.386567 -0.150167,0.02464 -0.293966,0.05431 -0.441317,0.08113 0.01278,0.192911 0.02723,0.386727 0.04496,0.583469 0.193251,2.144658 0.668329,4.500224 1.409218,6.971137 1.281073,-1.091051 2.67181,-2.15723 4.155819,-3.184532 0.632486,-1.692053 1.326541,-3.302648 2.07119,-4.81349 -0.783797,-0.03487 -1.552856,-0.05061 -2.300635,-0.04238 z m 3.484026,0.109562 c -0.592238,1.171392 -1.156494,2.404895 -1.683102,3.698232 0.882965,-0.568781 1.792039,-1.124465 2.732651,-1.660484 0.994598,-0.566781 1.990948,-1.092211 2.984828,-1.585546 -1.3788,-0.210324 -2.726721,-0.359735 -4.034377,-0.452202 z m -9.92291,0.704917 a 23.283332,23.285009 0 0 0 -1.457275,8.108101 23.283332,23.285009 0 0 0 0.165365,2.767989 c 0.883248,-0.963041 1.853343,-1.921521 2.9068,-2.865665 -0.84224,-2.702527 -1.376146,-5.289439 -1.589567,-7.657966 -0.01073,-0.119048 -0.01621,-0.234511 -0.02532,-0.352459 z m 15.807307,0.06254 c -1.42649,0.65915 -2.86375,1.392563 -4.297932,2.209843 -1.379759,0.786273 -2.693945,1.613741 -3.943426,2.468245 -0.541333,1.473423 -1.036757,3.007058 -1.472264,4.596432 -0.419116,1.529558 -0.763169,3.042422 -1.042829,4.528733 0.6588,1.426009 1.39187,2.862668 2.20865,4.29617 0.785966,1.37942 1.613379,2.692911 2.467549,3.941646 1.473507,0.541462 3.007652,1.037285 4.597132,1.472883 1.52954,0.41917 3.04213,0.763217 4.52841,1.042907 1.42601,-0.658701 2.86241,-1.391939 4.29586,-2.208811 1.37902,-0.78585 2.69209,-1.613101 3.94085,-2.467208 0.54149,-1.473907 1.03716,-3.008223 1.47277,-4.597985 0.41905,-1.529299 0.7632,-3.041774 1.04284,-4.527699 -0.65876,-1.425702 -1.39196,-2.861775 -2.20866,-4.295137 -0.78617,-1.379794 -1.6136,-2.694124 -2.46806,-3.943711 -1.47347,-0.541371 -3.00736,-1.037348 -4.59662,-1.472886 -1.52782,-0.4187 -3.03966,-0.763968 -4.52427,-1.043422 z m 10.86807,3.190215 c 0.56875,0.883024 1.12442,1.792234 1.66036,2.732848 0.56716,0.99539 1.0934,1.992448 1.58699,2.987112 0.21074,-1.380676 0.35876,-2.729675 0.45062,-4.038803 -1.17085,-0.591661 -2.4056,-1.154939 -3.69797,-1.681157 z m 4.74648,2.22845 c -0.13435,1.678386 -0.3626,3.416552 -0.68626,5.193854 0.7485,1.643041 1.39611,3.272451 1.93734,4.866721 1.94372,-1.779922 3.58567,-3.598402 4.86224,-5.376287 0.0883,-0.122974 0.16893,-0.244906 0.25373,-0.367445 -0.14612,-0.127645 -0.28929,-0.255535 -0.44131,-0.382432 -1.65342,-1.380159 -3.6535,-2.711045 -5.92574,-3.934411 z m -25.382948,0.341088 c -1.122254,0.825851 -2.183556,1.672145 -3.172416,2.531293 0.408909,1.245139 0.886442,2.516014 1.426787,3.80056 0.222205,-1.025114 0.471424,-2.059423 0.757058,-3.101843 0.30235,-1.103419 0.634936,-2.178966 0.988571,-3.23001 z m -4.056084,3.319416 c -1.128361,1.033133 -2.154531,2.079252 -3.065963,3.123032 a 23.283332,23.285009 0 0 0 1.670701,5.385073 c 0.832953,0.532891 1.717924,1.051247 2.647384,1.551954 0.134575,-1.677436 0.363186,-3.414 0.686779,-5.190237 -0.749218,-1.644207 -1.397246,-3.27454 -1.938901,-4.869822 z m 36.612752,1.391748 c -0.0615,0.0878 -0.11877,0.175138 -0.1819,0.263052 -1.40833,1.961392 -3.22239,3.949395 -5.3728,5.877065 0.84224,2.702978 1.37615,5.290473 1.58957,7.659001 0.014,0.155108 0.023,0.306849 0.0341,0.459954 1.89648,-0.435002 3.52234,-1.060432 4.78833,-1.854803 0.2653,-0.166461 0.50871,-0.342204 0.74208,-0.521967 a 23.283332,23.285009 0 0 0 2.38125,-3.746297 c 0.19923,-1.310274 -0.0979,-2.711764 -0.86352,-4.175756 -0.68206,-1.304178 -1.74155,-2.644141 -3.11712,-3.960249 z m -8.23154,2.000021 c -0.222,1.02427 -0.47166,2.057715 -0.75706,3.099259 -0.30198,1.102085 -0.63379,2.176111 -0.98702,3.225876 1.12098,-0.825192 2.18153,-1.670369 3.16932,-2.52871 -0.40853,-1.243814 -0.88552,-2.513286 -1.42524,-3.796425 z m -25.630993,3.176779 c -0.210632,1.380061 -0.358738,2.728104 -0.450617,4.036738 1.171139,0.592211 2.404832,1.156609 3.697965,1.683223 -0.568809,-0.882873 -1.124352,-1.792112 -1.660364,-2.732849 -0.567182,-0.995439 -1.093401,-1.992474 -1.586984,-2.987112 z m 27.410213,1.747305 c -1.28035,1.090686 -2.67017,2.156525 -4.15323,3.183498 -0.63294,1.692799 -1.32746,3.304217 -2.07274,4.815557 2.63323,0.116298 5.07913,-0.0099 7.23883,-0.364345 0.14891,-0.02444 0.29155,-0.05352 0.4377,-0.0801 -0.013,-0.194158 -0.0235,-0.38606 -0.0413,-0.583989 -0.19325,-2.144655 -0.66833,-4.500016 -1.40922,-6.970619 z m -30.635338,2.021213 a 23.283332,23.285009 0 0 0 1.588016,2.461009 c 0.01022,-0.510527 0.03012,-1.028311 0.05891,-1.552473 -0.563986,-0.296288 -1.114031,-0.599184 -1.646928,-0.908536 z m 2.706812,1.448595 c -0.03565,0.80785 -0.04797,1.597344 -0.03824,2.366951 a 23.283332,23.285009 0 0 0 5.339209,4.578343 c 0.880362,-0.200272 1.78171,-0.44011 2.699057,-0.715251 -1.090985,-1.280385 -2.157486,-2.670056 -3.184816,-4.153536 -1.694341,-0.633556 -3.30359,-1.330265 -4.81521,-2.076507 z m 22.200716,0.764349 c -0.88278,0.568726 -1.79174,1.124071 -2.73214,1.659967 -0.99453,0.566742 -1.99058,1.092324 -2.98431,1.585545 1.3787,0.210391 2.7264,0.359216 4.03386,0.451169 0.59191,-1.170953 1.15623,-2.403939 1.68259,-3.696681 z m -15.60422,1.941623 c 0.825598,1.121321 1.67124,2.181808 2.53008,3.169543 1.24362,-0.408486 2.51319,-0.884833 3.79615,-1.424304 -1.02405,-0.221994 -2.05721,-0.471741 -3.09852,-0.757116 -1.10263,-0.302175 -2.17737,-0.634643 -3.22771,-0.988123 z m 27.13943,1.271849 c -0.97909,0.400423 -2.06111,0.727172 -3.22771,0.984506 0.016,0.550931 0.0137,1.088179 -0.008,1.610354 a 23.283332,23.285009 0 0 0 3.23598,-2.59486 z m -18.95337,0.844971 c -1.64355,0.748896 -3.27323,1.396661 -4.86791,1.938005 1.12509,1.227862 2.26579,2.334693 3.40185,3.304945 a 23.283332,23.285009 0 0 0 3.50212,0.386053 c 1.10154,-1.443644 2.16306,-3.104424 3.15433,-4.945276 -1.67792,-0.134778 -3.41381,-0.36019 -5.19039,-0.683727 z m 14.64562,0.353492 c -0.10439,0.01837 -0.2055,0.03952 -0.31109,0.05685 -2.38221,0.390927 -5.07034,0.512442 -7.95352,0.35401 -0.93738,1.786169 -1.94412,3.419716 -2.99672,4.871888 a 23.283332,23.285009 0 0 0 11.20397,-3.181947 c 0.0558,-0.665626 0.0726,-1.369439 0.0574,-2.100798 z m -20.64422,1.952475 c -0.71617,0.223153 -1.423309,0.422533 -2.121314,0.602073 a 23.283332,23.285009 0 0 0 4.457614,1.811908 c -0.78485,-0.747682 -1.56531,-1.554079 -2.3363,-2.413981 z" />
    <path
       style="fill:#ffffff;fill-opacity:1;stroke:none;stroke-width:0.119273px;stroke-linecap:butt;stroke-linejoin:miter;stroke-opacity:1"
       d="m 109.20783,41.215 c -1.16261,1.440358 -3.04744,2.087683 -4.84978,1.665598 -1.80233,-0.422085 -3.20368,-1.839004 -3.60573,-3.64579 l 13.08073,-0.01862 c 0.56628,-4.168962 -2.07429,-8.102875 -6.1473,-9.158234 -4.07301,-1.055359 -8.291906,1.101195 -9.821682,5.020493 -1.529777,3.919298 0.112783,8.363356 3.823912,10.345854 3.71113,1.982495 8.31859,0.877222 10.72626,-2.573107 z"
       id="path10718"
       sodipodi:nodetypes="csccssscc" />
    <path
       id="path10722"
       style="fill:#708cbd;fill-opacity:1;stroke:#ffffff;stroke-width:0.18344;stroke-linecap:butt;stroke-linejoin:round;stroke-miterlimit:4;stroke-dasharray:none;stroke-opacity:1"
       d="m 105.58524,33.348554 c -2.10107,4.5e-4 -3.94644,1.147372 -4.50458,2.809422 l 9.04236,-0.0018 c -0.59028,-1.662646 -2.4367,-2.808228 -4.53778,-2.807579 z"
       sodipodi:nodetypes="sccs" />
  </g>
</svg>
