<svg xmlns="http://www.w3.org/2000/svg" xmlns:xlink="http://www.w3.org/1999/xlink" viewBox="0 0 176 171.41"><title>ExaGear</title><defs><linearGradient id="a" x1="188.11" y1="12.11" x2="5.21" y2="195.01" gradientUnits="userSpaceOnUse"><stop offset="0" stop-color="#9abeff"/><stop offset="0.62" stop-color="#7f9dd4"/><stop offset="1" stop-color="#728dbe"/></linearGradient></defs><path d="M43.23,181.7a2.6,2.6,0,0,1-1.84-1.87q-5.3-16.08-10.62-32.14a2.42,2.42,0,0,1,1.55-3.22l14.77-5.61c5.7-2.16,11.39-4.33,17.09-6.47a3.75,3.75,0,0,1,1.39-.28,2.28,2.28,0,0,1,2.15,1.54q6.66,15.94,13.35,31.88a2.47,2.47,0,0,1-1.54,3.53L45,181.5c-.21.08-.42.14-.63.2Zm101-35.94L182.35,132a2.15,2.15,0,0,0,1.13-3.51q-10.32-15.3-20.61-30.61a3.55,3.55,0,0,0-4.25-1.37q-17.4,6.61-34.8,13.2a2.18,2.18,0,0,0-1.23,3.36c1.77,3,3.45,6.1,5.16,9.15q6.15,11,12.29,21.92a3.52,3.52,0,0,0,3.13,1.84A8.93,8.93,0,0,0,144.19,145.76Zm-50.8,18.3L129.77,151a2.3,2.3,0,0,0,1.34-3.53l-16.77-31.11a2.87,2.87,0,0,0-3.91-1.5q-16.61,6.3-33.21,12.59a2.39,2.39,0,0,0-1.45,3.47c1.18,2.55,2.28,5.15,3.41,7.73q5.22,11.89,10.44,23.79a2.86,2.86,0,0,0,2.66,1.88A6.81,6.81,0,0,0,93.39,164.06ZM91.52,79.37c-3.79,1.5-7.57,3-11.36,4.53l-19,7.57a2.14,2.14,0,0,0-1.29,3.14c1.08,2.31,2.06,4.66,3.08,7q4.31,9.8,8.6,19.59a2.27,2.27,0,0,0,1.25,1.26,2.79,2.79,0,0,0,2.14,0l30-11.47c1.09-.41,2.19-.8,3.25-1.26a2,2,0,0,0,1-2.9Q102.09,93.57,95,80.36a2.44,2.44,0,0,0-2.4-1.29A8.42,8.42,0,0,0,91.52,79.37Zm-60.91,60L62.3,127.22A2.23,2.23,0,0,0,63.66,124l-3.39-8.1q-3.92-9.31-7.81-18.63A1.81,1.81,0,0,0,50.84,96a3.6,3.6,0,0,0-1.49.22q-12.1,4.8-24.21,9.64c-1.73.69-3.46,1.37-5.18,2.08a2.18,2.18,0,0,0-1.35,2.94c.2.59.4,1.17.59,1.76q4.2,12.72,8.39,25.44a2,2,0,0,0,2.06,1.51C30,139.48,30.3,139.44,30.61,139.33ZM128.93,49,105.36,68.16a1.71,1.71,0,0,0-.11,2.93c6.37,6,12.74,12,19.07,18a2.79,2.79,0,0,0,3.77.16q10.56-8.36,21.14-16.67l4.65-3.68a1.73,1.73,0,0,0,0-2.85c-.84-.6-1.62-1.28-2.43-1.93q-9.58-7.68-19.19-15.35a6.62,6.62,0,0,0-1.34-.64A4.13,4.13,0,0,0,128.93,49Zm-47-5.58L56,49.83c-1.25.31-2.5.6-3.75.94a1.82,1.82,0,0,0-1.46,2.51L54.2,65.87c1,3.76,2,7.51,3,11.26a1.82,1.82,0,0,0,1.24,1.46,3.6,3.6,0,0,0,1.63.06Q73.54,75.54,87,72.38l4.69-1.11c1.65-.38,2.15-1.3,1.59-2.87L84.87,44.79a2.06,2.06,0,0,0-2.09-1.51C82.48,43.34,82.18,43.37,81.89,43.44ZM8.12,79.07l7.74,23.44a1.6,1.6,0,0,0,1.61,1.18,3.48,3.48,0,0,0,1.2-.25q12.52-5,25-10l4-1.6a2,2,0,0,0,1.35-2.71Q44.21,77.53,39.34,66a1.51,1.51,0,0,0-1-.91,2.59,2.59,0,0,0-1.81.22L15.77,73.87c-2.11.88-4.23,1.75-6.34,2.64A2.08,2.08,0,0,0,8,78.44,4.57,4.57,0,0,0,8.12,79.07ZM117.85,10.65l-14.32,5.83c-2,.81-4,1.64-6,2.43a1.29,1.29,0,0,0-.69,2l.56,1q4,7.21,8,14.43c.26.47.57.89,1.13.93a3.26,3.26,0,0,0,1.39-.15c3.87-1.49,7.73-3,11.59-4.54l10.44-4.11c1.13-.45,1.35-1.16.69-2.16q-5-7.58-10.08-15.17a1.67,1.67,0,0,0-1.49-.85A10.42,10.42,0,0,0,117.85,10.65Z" transform="translate(-8 -10.3)" fill="url(#a)"/></svg>