<svg width="192" height="192" version="1.1" viewBox="0 0 192 192" xml:space="preserve" xmlns="http://www.w3.org/2000/svg"><circle cx="96" cy="96" r="88" fill="#fff"/><path d="m86.76 75.741v37.401a2 2 0 0 0 2 2h37.74a2 2 0 0 0 2-2v-37.401a2 2 0 0 0-2-2h-37.74a2 2 0 0 0-2 2z" fill="#96dfd3"/><path d="m92.02 78.704v26.257l7.593-8.2293 5.769 5.6835 9.5442-9.9678 8.0596 7.8051v-21.549z" fill="#fff"/><path d="m63.5 91.86v34.23a2 2 0 0 0 2 2h22.639a2 2 0 0 0 2-2v-34.23a4.8284 4.8284 0 0 0-1.4142-3.4142l-10.067-10.067a2.0647 2.0647 0 0 0-2.8727-0.04573l-10.827 10.158a4.6191 4.6191 0 0 0-1.4585 3.3685z" fill="#73ada4"/><circle cx="104.49" cy="87.187" r="4.1571" fill="#96dfd3" fill-opacity=".99738"/><circle cx="77.173" cy="87.187" r="4.1571" fill="#fff" fill-opacity=".99738"/><g transform="matrix(.79168 0 0 .79168 -14.849 -21.394)"><path d="m141.43 129.55v-9.3854c0-6.1538-5.619-11.142-12.55-11.142v0c-6.9314 0-12.55 4.9887-12.55 11.142v17.51" fill="none" stroke="#96dfd3" stroke-linecap="round" stroke-linejoin="round" stroke-width="4.2761"/></g></svg>
