<svg xmlns="http://www.w3.org/2000/svg" id="svg16" version="1.1" viewBox="0 0 192 192"><defs id="defs4"><style id="style2">.a{fill:none;stroke:#b1b5bd;stroke-linecap:round;stroke-linejoin:round;isolation:isolate;opacity:.63}</style></defs><path id="path837" d="M143.833 77.037s5.661-1.325 16.733.204c-2.881 6.027-12.243 13.468-12.243 13.468s2.352 2.27 5.815 3.878c-2.78 4.482-9.795 9.284-9.795 9.284z" style="fill:#f8c18c;stroke-width:1.00330472"/><path id="path841" d="M24.5 132.577c2.463 3.084 3.562 11.29 3.562 11.29s-2.231 9.728-6.015 9.633c-11.848-15.372-14.143-23.232-14.143-23.232l2.886-.432-1.804-5.556s7.76 6.536 15.513 8.297z" style="fill:#fff;stroke:none;stroke-width:1.00330472px;stroke-linecap:butt;stroke-linejoin:miter;stroke-opacity:1"/><path id="path843" d="M22.48 141.307s-1.489-.562-5.989-8.297a49.116 49.116 0 0 0 6.638 4.329z" style="fill:#4a4a4a;stroke-width:1.00330472"/><path id="path845" d="M17.501 139.431c1.169 4.743 4.618 9.235 4.618 9.235l.072-4.473s-2.878-2.739-4.69-4.762z" style="fill:#4a4a4a;stroke-width:1.00330472"/><path id="path839" d="M88.277 26.954s9.959-4.64 10.678-9.307c.85-5.513-3.896-9.45-3.896-9.45s13.381-2.95 14.285 12.336c.046.782-.026 2.004.722 2.237.867.27 1.957-.774 2.164-1.66.41-1.75-.216-5.194-.216-5.194s5.594 3.993 5.988 11.76c.17 3.373-1.443 10.028-1.443 10.028z" style="fill:#54688c;stroke-width:1.00330472"/><path id="path833" d="M24.5 132.577s-1.543 2.797-2.453 9.09c-1.042 7.202 0 11.833 0 11.833s24.914 30.59 58.583 30.59c37.937 0 66.289-52.62 66.52-96.677.253-48.69-30.71-60.469-58.873-60.603-36.02-.172-48.923 29.135-52.523 74.888-.525 6.672-.405 11.129-.865 20.057-.292 5.664-3.195 10.283-5.772 10.678-1.522.233-4.618.144-4.618.144z" style="fill:#728dbe;stroke-width:1.00330472"/><path id="path829" d="M166.412 45.424s2.653.692 8.37-.866c1.325-.361 3.047-2.171 4.328-2.67 1.069-.415 2.958.073 2.958.073l-7.287 21.716s2.489-1.117 5.195.144c2.342 1.092 4.431 4.29 3.751 6.782-.93 3.41-5.159 4.201-7.864 3.319-6.31-2.058-5.266-7.431-5.266-7.431l5.339-15.079z" style="fill:#f8c18c;stroke:none;stroke-width:1.00330472px;stroke-linecap:butt;stroke-linejoin:miter;stroke-opacity:1"/><path id="path831" d="M159.495 88.21s4.974-5.158 9.59-8.98c.675-.557 1.787-1.249 2.603-.356 1.047 1.146.065 2.48-.817 3.06-4.555 3.004-11.376 6.276-11.376 6.276z" style="fill:#f8c18c;stroke:none;stroke-width:1.00330472px;stroke-linecap:butt;stroke-linejoin:miter;stroke-opacity:1"/><rect id="rect835" width="3.265" height="3.265" x="148.017" y="79.486" ry="1.632" style="opacity:.5;vector-effect:none;fill:#ba6561;fill-opacity:1;fill-rule:evenodd;stroke-width:1.00330472;paint-order:stroke fill markers"/><path id="path853" d="M48.091 158.334s9.553 1.218 15.656-8.586c9.252 1.373 24.556 12.11 19.624 20.057-21.598 6.395-35.28-11.471-35.28-11.471z" style="fill:#fff;stroke:none;stroke-width:1.00330472px;stroke-linecap:butt;stroke-linejoin:miter;stroke-opacity:1"/><path id="path855" d="M58.48 160.426c7.267-2.718 8.514-6.277 8.514-6.277l2.453 3.03s-5.29 3.588-10.966 3.247z" style="fill:#56595b;stroke-width:1.00330472"/><path id="path857" d="M68.725 164.61c3.003-1.973 3.752-3.535 3.752-3.535l1.804 1.587s-3.237 2.47-5.556 1.948z" style="fill:#56595b;stroke-width:1.00330472"/><path id="path847" d="M63.747 149.748s4.327-14.653 7.36-21.644c3.987-9.193 10.822-14.665 19.046-13.275 13.088 2.212 20.895 19.613 14.14 35.785-6.53 15.638-20.922 19.19-20.922 19.19s-5.322-.645-12.698-8.945c-3.851-4.335-6.926-11.11-6.926-11.11z" style="fill:#9abeff;stroke-width:1.00330472"/><rect id="rect849" width="49.791" height="58.872" x="88.226" y="51.121" rx="24.896" ry="29.436" style="opacity:1;vector-effect:none;fill:#fff;fill-opacity:1;fill-rule:evenodd;stroke-width:1.00330472;paint-order:stroke fill markers"/><path id="path851" d="M99.654 95.097s-.872-27.633 9.387-31.018c13.563-4.474 23.875 17.141 23.875 17.141s-9.022-10.624-19.794-7.55c-10.19 2.909-13.468 21.427-13.468 21.427z" style="fill:#56595b;stroke:none;stroke-width:1.00330472px;stroke-linecap:butt;stroke-linejoin:miter;stroke-opacity:1"/><path id="path859" d="M143.605 115.048c-.153.005-12.715.494-22.285 15.941-5.729 9.248-7.415 20.494-12.12 30.303-5.296 11.043-16.226 20.753-16.495 20.991 24.426-7.388 43.372-36.379 50.9-67.235z" style="fill:#f8c18c;stroke-width:1.00330472"/></svg>