<svg xmlns="http://www.w3.org/2000/svg" id="svg8" width="192" height="192" version="1.1" viewBox="0 0 50.8 50.8"><g id="layer1" transform="translate(-122.767 -114.64)"><rect id="rect872-4" width="40.217" height="40.217" x="128.058" y="119.932" rx="2.646" ry="2.646" style="fill:#54688c;fill-opacity:1;stroke:none;stroke-width:5.70988;stroke-linecap:round;stroke-linejoin:round;stroke-opacity:1"/><g id="g29088" transform="translate(46.559 54.54) scale(.79304)"><path id="path21755" d="M128.236 119.969a24.384 24.384 0 0 0 12.094-20.96.198.198 0 0 0-.1-.175 24.342 24.342 0 0 0-10.153-3.13.212.212 0 0 0-.185.082 22.265 22.265 0 0 0-2.455 4.053.071.071 0 0 0 .066.104h.621a20.058 20.058 0 0 1 7.734 1.531 20.085 20.085 0 0 1-7.734 13.394 20.262 20.262 0 0 1-2.38-2.138.071.071 0 0 0-.122.058 22.072 22.072 0 0 0 2.436 7.144.127.127 0 0 0 .178.037z" style="fill:#99bdfe;fill-opacity:1;stroke-width:.264583"/><path id="path21757" d="M123.915 110.5a19.939 19.939 0 0 1-1.323-2.144 12.676 12.676 0 0 1 1.238-.51.209.209 0 0 0 .138-.18 23.564 23.564 0 0 1 .717-4.413.069.069 0 0 0-.082-.085 17.132 17.132 0 0 0-3.625 1.19 19.889 19.889 0 0 1-.587-2.884 20.018 20.018 0 0 1 5.262-1.391.19.19 0 0 0 .151-.111 24.23 24.23 0 0 1 2.352-4.234.066.066 0 0 0-.053-.103 24.286 24.286 0 0 0-12.075 3.194.214.214 0 0 0-.109.187c0 7.655 3.816 14.883 9.647 19.315a.071.071 0 0 0 .109-.085 23.577 23.577 0 0 1-1.728-7.657.177.177 0 0 0-.032-.09z" style="fill:#99bdfe;fill-opacity:1;stroke-width:.264583"/></g></g><style id="style870" type="text/css">.st0{fill:#00b3e5}.st1{fill:#010101}</style></svg>