<?xml version="1.0" encoding="UTF-8" standalone="no"?>
<svg
   width="192"
   height="192"
   viewBox="0 0 50.799999 50.800002"
   version="1.1"
   id="svg8"
   inkscape:version="1.2 (dc2aedaf03, 2022-05-15)"
   sodipodi:docname="fan_duel.svg"
   inkscape:export-filename="fan_duel.png"
   inkscape:export-xdpi="96"
   inkscape:export-ydpi="96"
   xmlns:inkscape="http://www.inkscape.org/namespaces/inkscape"
   xmlns:sodipodi="http://sodipodi.sourceforge.net/DTD/sodipodi-0.dtd"
   xmlns="http://www.w3.org/2000/svg"
   xmlns:svg="http://www.w3.org/2000/svg"
   xmlns:rdf="http://www.w3.org/1999/02/22-rdf-syntax-ns#"
   xmlns:cc="http://creativecommons.org/ns#"
   xmlns:dc="http://purl.org/dc/elements/1.1/">
  <defs
     id="defs2" />
  <sodipodi:namedview
     id="base"
     pagecolor="#ffffff"
     bordercolor="#666666"
     borderopacity="1.0"
     inkscape:pageopacity="0.0"
     inkscape:pageshadow="2"
     inkscape:zoom="1.4"
     inkscape:cx="81.785714"
     inkscape:cy="-27.857143"
     inkscape:document-units="mm"
     inkscape:current-layer="layer1"
     inkscape:document-rotation="0"
     showgrid="false"
     inkscape:window-width="1680"
     inkscape:window-height="1022"
     inkscape:window-x="1920"
     inkscape:window-y="0"
     inkscape:window-maximized="1"
     units="px"
     fit-margin-top="0"
     fit-margin-left="0"
     fit-margin-right="0"
     fit-margin-bottom="0"
     inkscape:pagecheckerboard="0"
     inkscape:showpageshadow="0"
     inkscape:deskcolor="#d1d1d1" />
  <metadata
     id="metadata5">
    <rdf:RDF>
      <cc:Work
         rdf:about="">
        <dc:format>image/svg+xml</dc:format>
        <dc:type
           rdf:resource="http://purl.org/dc/dcmitype/StillImage" />
      </cc:Work>
    </rdf:RDF>
  </metadata>
  <g
     inkscape:label="Layer 1"
     inkscape:groupmode="layer"
     id="layer1"
     transform="translate(-122.76667,-114.64017)">
    <rect
       style="fill:#54688c;fill-opacity:1;stroke:none;stroke-width:5.70988;stroke-linecap:round;stroke-linejoin:round;stroke-opacity:1"
       id="rect872-4"
       width="40.216667"
       height="40.216667"
       x="128.05833"
       y="119.93184"
       ry="2.6458333"
       rx="2.6458333" />
    <g
       id="g29088"
       transform="matrix(0.79304173,0,0,0.79304173,46.558549,54.540262)">
      <path
         d="m 128.23565,119.96888 a 24.384,24.384 0 0 0 12.09411,-20.960291 0.1984375,0.1984375 0 0 0 -0.10054,-0.174625 24.341666,24.341666 0 0 0 -10.15207,-3.130021 0.21166666,0.21166666 0 0 0 -0.1852,0.08202 22.264687,22.264687 0 0 0 -2.45534,4.053417 0.0714375,0.0714375 0 0 0 0.0661,0.103187 c 0.20637,0 0.41275,0 0.62177,0 a 20.058062,20.058062 0 0 1 7.73377,1.531933 20.084521,20.084521 0 0 1 -7.73377,13.39321 20.261791,20.261791 0 0 1 -2.38125,-2.13783 0.0714375,0.0714375 0 0 0 -0.12171,0.0582 22.071541,22.071541 0 0 0 2.43681,7.14375 0.127,0.127 0 0 0 0.17727,0.037 z"
         style="fill:#99bdfe;fill-opacity:1;stroke-width:0.264583"
         id="path21755" />
      <path
         d="m 123.91501,110.49944 a 19.939,19.939 0 0 1 -1.32292,-2.14312 12.676187,12.676187 0 0 1 1.23825,-0.51065 0.20902083,0.20902083 0 0 0 0.13758,-0.17991 23.563791,23.563791 0 0 1 0.71703,-4.41325 0.06879167,0.06879167 0 0 0 -0.082,-0.0847 17.131771,17.131771 0 0 0 -3.62479,1.19062 19.888729,19.888729 0 0 1 -0.58737,-2.88396 20.018375,20.018375 0 0 1 5.26256,-1.39171 0.1905,0.1905 0 0 0 0.15081,-0.111121 24.230541,24.230541 0 0 1 2.35215,-4.233333 0.06614583,0.06614583 0 0 0 -0.0529,-0.103188 24.286104,24.286104 0 0 0 -12.07558,3.193521 0.2143125,0.2143125 0 0 0 -0.10848,0.187854 c 0,7.654397 3.81529,14.882817 9.64671,19.314587 a 0.0714375,0.0714375 0 0 0 0.10848,-0.0847 23.577021,23.577021 0 0 1 -1.72773,-7.65705 0.17727083,0.17727083 0 0 0 -0.0318,-0.09 z"
         style="fill:#99bdfe;fill-opacity:1;stroke-width:0.264583"
         id="path21757" />
    </g>
  </g>
  <style
     type="text/css"
     id="style870">
	.st0{fill:#181A1D;}
</style>
  <style
     type="text/css"
     id="style2168">
	.st0{fill:#00B3E5;}
	.st1{fill:#010101;}
</style>
</svg>
