<?xml version="1.0" encoding="utf-8"?>
<!-- Generator: Adobe Illustrator 16.0.0, SVG Export Plug-In . SVG Version: 6.00 Build 0)  -->
<!DOCTYPE svg PUBLIC "-//W3C//DTD SVG 1.1//EN" "http://www.w3.org/Graphics/SVG/1.1/DTD/svg11.dtd">
<svg version="1.1" id="Layer_1" xmlns="http://www.w3.org/2000/svg" xmlns:xlink="http://www.w3.org/1999/xlink" x="0px" y="0px"
	 width="192px" height="192px" viewBox="0 0 192 192" enable-background="new 0 0 192 192" xml:space="preserve">
<g>
	<g>
		<path fill="#99BEF9" d="M184.453,172.971c0,6.485-5.257,11.742-11.743,11.742H20.545c-6.485,0-11.743-5.257-11.743-11.742V20.806
			c0-6.486,5.258-11.743,11.743-11.743H172.71c6.486,0,11.743,5.257,11.743,11.743V172.971z"/>
		<path fill="#728CBA" d="M172.71,9.063H20.545c-6.485,0-11.743,5.257-11.743,11.743v134.745L184.453,38.78V20.806
			C184.453,14.32,179.196,9.063,172.71,9.063z"/>
	</g>
	<g>
		<circle fill="#FFFFFF" cx="96.628" cy="96.888" r="69.883"/>
		<path fill="#F9DE90" d="M137.231,124.465L54.922,69.344v55.342h81.429C136.669,124.686,136.969,124.605,137.231,124.465z"/>
		<path fill="#56595B" d="M138.214,122.822V69.344l-83.292,55.342h81.429C137.38,124.686,138.214,123.852,138.214,122.822z"/>
	</g>
</g>
</svg>
