<svg xmlns="http://www.w3.org/2000/svg" viewBox="0 0 192 192"><rect width="153" height="153" x="19.5" y="19.5" fill="#fff" rx="10"/><path fill="#ff837d" d="M96 80.8v5.4a11.21 11.21 0 0 1 11.6 10.87v.73h5.4a16.59 16.59 0 0 0-16.19-17Zm20.35-3.35a28.13 28.13 0 0 0-20-8.32h-.33v5.77a22.51 22.51 0 0 1 22.82 22.2v.69h5.77v-.33a28.15 28.15 0 0 0-8.23-20.01Z"/><path fill="#ff837d" d="M55.94 97.78a40.06 40.06 0 0 1 80.12 0V102h-10.78v-4.17h5.33a34.63 34.63 0 0 0-69.2 0h5.33V102H56v-4.22Z"/><path fill="#56595b" d="m98.91 94.31-2.84-31-2.84 31a4.54 4.54 0 1 0 6.38.7 4.63 4.63 0 0 0-.7-.7ZM61.72 112.71v5.52h8.59v5.09h-8.59v10.61h-5.78v-26.3h15.82v5.08ZM89.25 129h-9.82l-1.62 5h-6.18l9.47-26.3h6.48l9.47 26.3h-6.18Zm-1.54-4.82-3.37-10.43-3.34 10.4ZM97.19 128.41l4.77-3a5.69 5.69 0 0 0 5.26 3.42c2 0 3.24-1 3.24-2.41 0-4.6-12.14-2.45-12.14-11.39 0-5.26 4.26-7.76 8.42-7.76a10.79 10.79 0 0 1 8.11 3.72l-3.85 3.69a6 6 0 0 0-4.29-2.27c-1.41 0-2.55.7-2.55 2.19 0 4.56 12.1 2.14 12.1 11.88 0 4.9-4.16 7.8-9.07 7.8a11.19 11.19 0 0 1-10-5.87ZM136.06 112.76h-6.61v21.17h-5.75v-21.17H117v-5.13h19Z"/></svg>