<svg xmlns="http://www.w3.org/2000/svg" id="svg2" width="192" height="192" version="1.1"><g id="layer1" transform="translate(0 -860.362)"><g id="g894"><circle id="circle939" cx="96" cy="956.362" r="88" style="fill:#fefefe;fill-opacity:1;fill-rule:evenodd;stroke:none;stroke-width:1;stroke-opacity:1"/><path id="circle886" d="M95.814 8A88 88 0 0 0 8 96a88 88 0 0 0 54.719 81.463l19.185-59.211h42.246l-9.234-5.988H83.299l-.024-.026 12.356-39.71-20.945 33.626 6.265 4.428h-9.039l-7.951 12.648-33.863 17.733-.473.244c-.249.097-.326-.151-.096-.346l42.287-35.92L18 111.215c-.156.003-.284-.203 0-.354l52.17-15.328-52.453-15.346c-.19-.086-.19-.251 0-.353l54.1 5.715-42.383-34.803c-.064-.1.089-.27.277-.187l47.654 26.037-25.21-48.002c-.036-.201.18-.236.284-.086l33.327 43.375-3.893-56.133c-.006-.267.258-.38.385 0l14.13 54.115 16.14-52.539c.157-.42.418-.172.378.104l-6.738 54.107 35.092-41.185c.15-.176.294-.06.166.173l-26.86 47.387 48.657-24.666c.21-.094.57-.103.26.162L120.28 86.115l55.315-3.601c.165-.004.118.219-.086.267l-53.92 13.02 51.887 18.195.386.127c.167.057.049.382-.293.33l-55.029-8.392 42.547 36.732c.207.231.045.498-.182.393l-32.484-18.118 23.392 38.965A88 88 0 0 0 184 96 88 88 0 0 0 96 8a88 88 0 0 0-.186 0z" style="fill:#72a373;fill-opacity:1;fill-rule:evenodd;stroke:none;stroke-width:1;stroke-opacity:1" transform="translate(0 860.362)"/></g></g><style id="style853" type="text/css">.st0{fill:#fff}</style></svg>