<?xml version="1.0" encoding="UTF-8"?>
<svg version="1.1" viewBox="0 0 192 192" xml:space="preserve" xmlns="http://www.w3.org/2000/svg">
	 <rect class="a" x="20" y="20" width="152" height="152" rx="10" fill="#728dbe"/><g transform="translate(-.35532 .19511)" fill="#fff" stroke-linecap="round" stroke-linejoin="round" stroke-width="5.7974" aria-label="filo"><path d="m66.866 83.529c0-2.232 1.2174-3.5847 3.0436-3.5847h3.2465v-6.7636c-0.67636-0.47345-2.5025-0.81163-4.3287-0.81163-5.7491 0-10.619 4.3963-10.619 10.145v9.1309h-4.5316v6.696h4.5316v20.358h8.6574v-20.358h6.4254v-6.696h-6.4254zm14.88 3.5847c2.5702 0 4.7345-2.1644 4.7345-4.7345 0-2.6378-2.1644-4.7345-4.7345-4.7345s-4.7345 2.0967-4.7345 4.7345c0 2.5702 2.1644 4.7345 4.7345 4.7345zm-4.3287 31.586h8.5898v-27.054h-8.5898z"/><path d="m94.191 118.7h8.6574v-46.331h-8.6574z"/><path d="m124.02 119.24c9.0632 0 15.015-5.952 15.015-14.068 0-8.1163-5.952-14.068-15.015-14.068-9.0632 0-15.083 5.952-15.083 14.068 0 8.1163 6.0196 14.068 15.083 14.068zm0-7.6429c-3.72-0.0676-6.4254-2.7731-6.4254-6.4254 0-3.6524 2.7054-6.3578 6.4254-6.4254 3.6523 0.06764 6.4254 2.7731 6.4254 6.4254 0 3.6523-2.7731 6.3578-6.4254 6.4254z"/><path d="m81.746 87.114c2.5702 0 4.7345-2.1644 4.7345-4.7345 0-2.6378-2.1644-4.7345-4.7345-4.7345s-4.7345 2.0967-4.7345 4.7345c0 2.5702 2.1644 4.7345 4.7345 4.7345z" fill="#f8c18c"/></g></svg>
