<svg xmlns="http://www.w3.org/2000/svg" viewBox="0 0 192 192"><path fill="#728dbe" d="M169.57 169.57 22.37 22.49a10 10 0 0 0-2.87 7v133a10 10 0 0 0 10 10h66.44L60.05 60.17Z"/><path fill="#ababff" d="M60.05 60.17 95.94 172.5h66.56a10 10 0 0 0 7.07-2.93Z"/><path fill="#8c72bd" d="M172.5 162.5v-133a10 10 0 0 0-10-10h-133a10 10 0 0 0-7.13 3l147.2 147.08a10 10 0 0 0 2.93-7.08Z"/><path fill="#fff" d="M70.51 82.24v10.83h13.88v5.86H70.51v16.63h-6.39V76.44h22.43v5.8ZM90.2 96a20.05 20.05 0 0 1 37.68-9.58l-5.47 2.93a13.76 13.76 0 1 0 0 13.3l5.47 2.93A20.05 20.05 0 0 1 90.2 96Z"/></svg>