<svg xmlns="http://www.w3.org/2000/svg" xml:space="preserve" width="192" height="192"><path d="M-215.983 582.818c-21.543 12.617-28.85 35.956-29.522 47.633l-23.603 9.095a25.464 25.464 0 0 0-2.22-1.676 39.73 39.73 0 0 1-.24-20.959c-.001 0 0 0 0 0-8.81 4.012-15.663 10.353-20.644 15.952h-.04c-3.4-4.306-3.16-18.511-2.966-21.477-.041-.184-2.537 1.296-2.864 1.519a62.482 62.482 0 0 0-8.38 7.18 75.092 75.092 0 0 0-8.008 9.603 72.38 72.38 0 0 0-11.507 25.98c-.041.186-.076.379-.116.566-.161.755-.742 4.532-.844 5.352-.01.063-.01.124-.019.187a81.759 81.759 0 0 0-1.392 11.833c0 .146-.01.29-.01.437 0 47.358 38.398 85.748 85.76 85.748 42.416 0 77.634-30.792 84.53-71.237.145-1.098.26-2.2.389-3.308 1.705-14.705-.19-30.162-5.563-43.087-3.727-8.966-11.275-18.645-17.203-21.704 4.824 9.458 7.616 18.946 8.683 26.027 0 .014.01.048.017.142-9.697-24.17-26.14-33.915-39.567-55.136a109.14 109.14 0 0 1-2.02-3.284 26.286 26.286 0 0 1-.944-1.773 15.595 15.595 0 0 1-1.282-3.392c-.034-.129-.11-.207-.195-.23a.308.308 0 0 0-.231.01zm44.234 63.744c.01.03.01.062.014.093l-.01-.01zm-90.335 62.716c.401.192.778.401 1.19.585.017.012.04.025.058.035a44.8 44.8 0 0 1-1.248-.62z" style="fill:#8d74be;fill-opacity:1;stroke-width:.999996" transform="translate(338.715 -575.29)"/><path fill="url(#f)" d="M-242.438 657.56c-.14 2.133-7.677 9.49-10.313 9.49-24.386 0-28.344 14.75-28.344 14.75 1.08 12.42 9.728 22.65 20.2 28.062.479.247.962.47 1.446.69a47.377 47.377 0 0 0 2.52 1.03 38.09 38.09 0 0 0 11.158 2.153c42.742 2.005 51.023-51.098 20.177-66.519 7.9-1.373 16.1 1.804 20.679 5.02-7.498-13.1-21.5-21.94-37.576-21.94-1.017 0-2.013.084-3.012.153a42.91 42.91 0 0 0-23.603 9.095c1.308 1.107 2.784 2.585 5.893 5.649 5.817 5.733 20.743 11.67 20.775 12.367z" style="fill:#feb0ac;fill-opacity:1;stroke-width:.999996" transform="translate(338.715 -575.29)"/></svg>