<svg xmlns="http://www.w3.org/2000/svg" xmlns:xlink="http://www.w3.org/1999/xlink" xml:space="preserve" id="svg2" width="192" height="192" version="1.1"><defs id="defs4"><clipPath id="clipPath1409" clipPathUnits="userSpaceOnUse"><path id="rect1411" fill="#fff" d="M0 0h192v192H0z"/></clipPath><clipPath id="clipPath1405" clipPathUnits="userSpaceOnUse"><path id="rect1407" fill="#fff" d="M0 0h192v192H0z"/></clipPath><clipPath id="clipPath1447" clipPathUnits="userSpaceOnUse"><path id="rect1449" fill="#fff" d="M0 0h192v192H0z"/></clipPath><clipPath id="clipPath1431" clipPathUnits="userSpaceOnUse"><path id="rect1433" fill="#fff" d="M0 0h192v192H0z"/></clipPath><clipPath id="clipPath1443" clipPathUnits="userSpaceOnUse"><path id="rect1445" fill="#fff" d="M0 0h192v192H0z"/></clipPath><clipPath id="clipPath1439" clipPathUnits="userSpaceOnUse"><path id="rect1441" fill="#fff" d="M0 0h192v192H0z"/></clipPath><clipPath id="clipPath1435" clipPathUnits="userSpaceOnUse"><path id="rect1437" fill="#fff" d="M0 0h192v192H0z"/></clipPath><clipPath id="clipPath1427" clipPathUnits="userSpaceOnUse"><path id="rect1429" fill="#fff" d="M0 0h192v192H0z"/></clipPath><clipPath id="clipPath1423" clipPathUnits="userSpaceOnUse"><path id="rect1425" fill="#fff" d="M0 0h192v192H0z"/></clipPath><linearGradient xlink:href="#linearGradient9214" id="linearGradient44638" x1="107.312" x2="73.817" y1="54.681" y2="187.617" gradientUnits="userSpaceOnUse"/><linearGradient id="linearGradient9214" x1="107.312" x2="73.817" y1="54.681" y2="187.617" gradientUnits="userSpaceOnUse"><stop id="stop9208" offset="0" stop-color="#96DFD3" style="stop-color:#bd9aff;stop-opacity:1"/><stop id="stop9210" offset=".613" stop-color="#728DBE" stop-opacity=".01" style="stop-color:#8c72bd;stop-opacity:.01"/><stop id="stop9212" offset="1" stop-color="#8C72BD" style="stop-color:#8c72bd;stop-opacity:1"/></linearGradient><linearGradient xlink:href="#linearGradient20980" id="linearGradient44640" x1="139.486" x2="118.514" y1="58.263" y2="112.294" gradientUnits="userSpaceOnUse"/><linearGradient id="linearGradient20980" x1="139.486" x2="118.514" y1="58.263" y2="112.294" gradientUnits="userSpaceOnUse"><stop id="stop20976" offset="0" stop-color="#96DFD3" style="stop-color:#bd9aff;stop-opacity:1"/><stop id="stop20978" offset="1" stop-color="#96DFD3" stop-opacity=".01" style="stop-color:#8c72bd;stop-opacity:1"/></linearGradient><linearGradient xlink:href="#linearGradient20619" id="linearGradient44642" x1="63.424" x2="15.118" y1="53.166" y2="156.099" gradientUnits="userSpaceOnUse"/><linearGradient id="linearGradient20619" x1="63.424" x2="15.118" y1="53.166" y2="156.099" gradientUnits="userSpaceOnUse"><stop id="stop20615" offset="0" stop-color="#99CDCD" style="stop-color:#bd9aff;stop-opacity:1"/><stop id="stop20617" offset="1" stop-color="#99CDCD" stop-opacity=".15" style="stop-color:#8c72bd;stop-opacity:.5"/></linearGradient><linearGradient xlink:href="#linearGradient20832" id="linearGradient44644" x1="126.279" x2="112.591" y1="97.676" y2="127.61" gradientUnits="userSpaceOnUse"/><linearGradient id="linearGradient20832" x1="126.279" x2="112.591" y1="97.676" y2="127.61" gradientUnits="userSpaceOnUse"><stop id="stop20828" offset="0" stop-color="#96DFD3" style="stop-color:#8c72bd;stop-opacity:1"/><stop id="stop20830" offset="1" stop-color="#96DFD3" stop-opacity=".01" style="stop-color:#8c72bd;stop-opacity:.01"/></linearGradient><mask id="mask1475" maskUnits="userSpaceOnUse"><path id="path1477" fill="#fff" fill-rule="evenodd" d="M124 11c2.948 4.763 5.858 9.179 8.73 13.247C138.298 32.137 143.722 38.722 149 44c8 8 14 18 18 30-.698-4.938-1.698-9.604-3-14a89.309 89.309 0 0 0-5-13c2.684 1.29 6.018 4.624 10 10 3.172 4.282 5.931 8.959 8.28 14.031 3.655 9.453 5.659 19.727 5.659 30.469 0 46.668-37.831 84.5-84.5 84.5-46.668 0-84.5-37.832-84.5-84.5a84.517 84.517 0 0 1 3.472-24.05C21.345 67.793 25.208 60.31 29 55c4.244-5.942 9.91-11.275 17-16 .379 4.31.712 7.976 1 11 .288 3.024.955 6.357 2 10 5.695-5.687 9.695-9.354 12-11 2.305-1.647 5.305-3.313 9-5-1.333 5-2 8.667-2 11 0 2.181.291 4.945.874 8.29.079.457.314.871.665 1.173C73.975 68.283 77.796 71.796 81 75c2.97 2.97 8.055 5.674 15.257 8.115a2 2 0 0 1 .906 3.16A107.352 107.352 0 0 1 94 90a54.354 54.354 0 0 1-3.495 3.538 2 2 0 0 1-1.17.523C81.265 94.825 75.154 96.138 71 98c-6.4 2.869-10 7-10 11 0 10 13 30 36 30 20 0 36-13 36-33 0-13.333-6.333-24-19-32 4.627-.137 6.627.197 10 1 3.373.803 6.373 2.136 9 4-5-8-9.223-12.9-15-16-5.777-3.1-13.444-5.766-23-6 1.56-11.318 4.56-19.651 9-27 2.538-4.201 5.804-8.07 9.798-11.608 2.992-2.65 6.393-5.114 10.202-7.392z" clip-rule="evenodd"/></mask><mask id="mask1459" maskUnits="userSpaceOnUse"><path id="path1461" fill="#fff" fill-rule="evenodd" d="M124 11c2.948 4.763 5.858 9.179 8.73 13.247C138.298 32.137 143.722 38.722 149 44c8 8 14 18 18 30-.698-4.938-1.698-9.604-3-14a89.309 89.309 0 0 0-5-13c2.684 1.29 6.018 4.624 10 10 3.172 4.282 5.931 8.959 8.28 14.031 3.655 9.453 5.659 19.727 5.659 30.469 0 46.668-37.831 84.5-84.5 84.5-46.668 0-84.5-37.832-84.5-84.5a84.517 84.517 0 0 1 3.472-24.05C21.345 67.793 25.208 60.31 29 55c4.244-5.942 9.91-11.275 17-16 .379 4.31.712 7.976 1 11 .288 3.024.955 6.357 2 10 5.695-5.687 9.695-9.354 12-11 2.305-1.647 5.305-3.313 9-5-1.333 5-2 8.667-2 11 0 2.181.291 4.945.874 8.29.079.457.314.871.665 1.173C73.975 68.283 77.796 71.796 81 75c2.97 2.97 8.055 5.674 15.257 8.115a2 2 0 0 1 .906 3.16A107.352 107.352 0 0 1 94 90a54.354 54.354 0 0 1-3.495 3.538 2 2 0 0 1-1.17.523C81.265 94.825 75.154 96.138 71 98c-6.4 2.869-10 7-10 11 0 10 13 30 36 30 20 0 36-13 36-33 0-13.333-6.333-24-19-32 4.627-.137 6.627.197 10 1 3.373.803 6.373 2.136 9 4-5-8-9.223-12.9-15-16-5.777-3.1-13.444-5.766-23-6 1.56-11.318 4.56-19.651 9-27 2.538-4.201 5.804-8.07 9.798-11.608 2.992-2.65 6.393-5.114 10.202-7.392z" clip-rule="evenodd"/></mask><mask id="mask1471" maskUnits="userSpaceOnUse"><path id="path1473" fill="#fff" fill-rule="evenodd" d="M124 11c2.948 4.763 5.858 9.179 8.73 13.247C138.298 32.137 143.722 38.722 149 44c8 8 14 18 18 30-.698-4.938-1.698-9.604-3-14a89.309 89.309 0 0 0-5-13c2.684 1.29 6.018 4.624 10 10 3.172 4.282 5.931 8.959 8.28 14.031 3.655 9.453 5.659 19.727 5.659 30.469 0 46.668-37.831 84.5-84.5 84.5-46.668 0-84.5-37.832-84.5-84.5a84.517 84.517 0 0 1 3.472-24.05C21.345 67.793 25.208 60.31 29 55c4.244-5.942 9.91-11.275 17-16 .379 4.31.712 7.976 1 11 .288 3.024.955 6.357 2 10 5.695-5.687 9.695-9.354 12-11 2.305-1.647 5.305-3.313 9-5-1.333 5-2 8.667-2 11 0 2.181.291 4.945.874 8.29.079.457.314.871.665 1.173C73.975 68.283 77.796 71.796 81 75c2.97 2.97 8.055 5.674 15.257 8.115a2 2 0 0 1 .906 3.16A107.352 107.352 0 0 1 94 90a54.354 54.354 0 0 1-3.495 3.538 2 2 0 0 1-1.17.523C81.265 94.825 75.154 96.138 71 98c-6.4 2.869-10 7-10 11 0 10 13 30 36 30 20 0 36-13 36-33 0-13.333-6.333-24-19-32 4.627-.137 6.627.197 10 1 3.373.803 6.373 2.136 9 4-5-8-9.223-12.9-15-16-5.777-3.1-13.444-5.766-23-6 1.56-11.318 4.56-19.651 9-27 2.538-4.201 5.804-8.07 9.798-11.608 2.992-2.65 6.393-5.114 10.202-7.392z" clip-rule="evenodd"/></mask><mask id="mask1467" maskUnits="userSpaceOnUse"><path id="path1469" fill="#fff" fill-rule="evenodd" d="M124 11c2.948 4.763 5.858 9.179 8.73 13.247C138.298 32.137 143.722 38.722 149 44c8 8 14 18 18 30-.698-4.938-1.698-9.604-3-14a89.309 89.309 0 0 0-5-13c2.684 1.29 6.018 4.624 10 10 3.172 4.282 5.931 8.959 8.28 14.031 3.655 9.453 5.659 19.727 5.659 30.469 0 46.668-37.831 84.5-84.5 84.5-46.668 0-84.5-37.832-84.5-84.5a84.517 84.517 0 0 1 3.472-24.05C21.345 67.793 25.208 60.31 29 55c4.244-5.942 9.91-11.275 17-16 .379 4.31.712 7.976 1 11 .288 3.024.955 6.357 2 10 5.695-5.687 9.695-9.354 12-11 2.305-1.647 5.305-3.313 9-5-1.333 5-2 8.667-2 11 0 2.181.291 4.945.874 8.29.079.457.314.871.665 1.173C73.975 68.283 77.796 71.796 81 75c2.97 2.97 8.055 5.674 15.257 8.115a2 2 0 0 1 .906 3.16A107.352 107.352 0 0 1 94 90a54.354 54.354 0 0 1-3.495 3.538 2 2 0 0 1-1.17.523C81.265 94.825 75.154 96.138 71 98c-6.4 2.869-10 7-10 11 0 10 13 30 36 30 20 0 36-13 36-33 0-13.333-6.333-24-19-32 4.627-.137 6.627.197 10 1 3.373.803 6.373 2.136 9 4-5-8-9.223-12.9-15-16-5.777-3.1-13.444-5.766-23-6 1.56-11.318 4.56-19.651 9-27 2.538-4.201 5.804-8.07 9.798-11.608 2.992-2.65 6.393-5.114 10.202-7.392z" clip-rule="evenodd"/></mask><mask id="mask1463" maskUnits="userSpaceOnUse"><path id="path1465" fill="#fff" fill-rule="evenodd" d="M124 11c2.948 4.763 5.858 9.179 8.73 13.247C138.298 32.137 143.722 38.722 149 44c8 8 14 18 18 30-.698-4.938-1.698-9.604-3-14a89.309 89.309 0 0 0-5-13c2.684 1.29 6.018 4.624 10 10 3.172 4.282 5.931 8.959 8.28 14.031 3.655 9.453 5.659 19.727 5.659 30.469 0 46.668-37.831 84.5-84.5 84.5-46.668 0-84.5-37.832-84.5-84.5a84.517 84.517 0 0 1 3.472-24.05C21.345 67.793 25.208 60.31 29 55c4.244-5.942 9.91-11.275 17-16 .379 4.31.712 7.976 1 11 .288 3.024.955 6.357 2 10 5.695-5.687 9.695-9.354 12-11 2.305-1.647 5.305-3.313 9-5-1.333 5-2 8.667-2 11 0 2.181.291 4.945.874 8.29.079.457.314.871.665 1.173C73.975 68.283 77.796 71.796 81 75c2.97 2.97 8.055 5.674 15.257 8.115a2 2 0 0 1 .906 3.16A107.352 107.352 0 0 1 94 90a54.354 54.354 0 0 1-3.495 3.538 2 2 0 0 1-1.17.523C81.265 94.825 75.154 96.138 71 98c-6.4 2.869-10 7-10 11 0 10 13 30 36 30 20 0 36-13 36-33 0-13.333-6.333-24-19-32 4.627-.137 6.627.197 10 1 3.373.803 6.373 2.136 9 4-5-8-9.223-12.9-15-16-5.777-3.1-13.444-5.766-23-6 1.56-11.318 4.56-19.651 9-27 2.538-4.201 5.804-8.07 9.798-11.608 2.992-2.65 6.393-5.114 10.202-7.392z" clip-rule="evenodd"/></mask><mask id="mask1455" maskUnits="userSpaceOnUse"><path id="path1457" fill="#fff" fill-rule="evenodd" d="M124 11c2.948 4.763 5.858 9.179 8.73 13.247C138.298 32.137 143.722 38.722 149 44c8 8 14 18 18 30-.698-4.938-1.698-9.604-3-14a89.309 89.309 0 0 0-5-13c2.684 1.29 6.018 4.624 10 10 3.172 4.282 5.931 8.959 8.28 14.031 3.655 9.453 5.659 19.727 5.659 30.469 0 46.668-37.831 84.5-84.5 84.5-46.668 0-84.5-37.832-84.5-84.5a84.517 84.517 0 0 1 3.472-24.05C21.345 67.793 25.208 60.31 29 55c4.244-5.942 9.91-11.275 17-16 .379 4.31.712 7.976 1 11 .288 3.024.955 6.357 2 10 5.695-5.687 9.695-9.354 12-11 2.305-1.647 5.305-3.313 9-5-1.333 5-2 8.667-2 11 0 2.181.291 4.945.874 8.29.079.457.314.871.665 1.173C73.975 68.283 77.796 71.796 81 75c2.97 2.97 8.055 5.674 15.257 8.115a2 2 0 0 1 .906 3.16A107.352 107.352 0 0 1 94 90a54.354 54.354 0 0 1-3.495 3.538 2 2 0 0 1-1.17.523C81.265 94.825 75.154 96.138 71 98c-6.4 2.869-10 7-10 11 0 10 13 30 36 30 20 0 36-13 36-33 0-13.333-6.333-24-19-32 4.627-.137 6.627.197 10 1 3.373.803 6.373 2.136 9 4-5-8-9.223-12.9-15-16-5.777-3.1-13.444-5.766-23-6 1.56-11.318 4.56-19.651 9-27 2.538-4.201 5.804-8.07 9.798-11.608 2.992-2.65 6.393-5.114 10.202-7.392z" clip-rule="evenodd"/></mask><mask id="mask1451" maskUnits="userSpaceOnUse"><path id="path1453" fill="#fff" fill-rule="evenodd" d="M124 11c2.948 4.763 5.858 9.179 8.73 13.247C138.298 32.137 143.722 38.722 149 44c8 8 14 18 18 30-.698-4.938-1.698-9.604-3-14a89.309 89.309 0 0 0-5-13c2.684 1.29 6.018 4.624 10 10 3.172 4.282 5.931 8.959 8.28 14.031 3.655 9.453 5.659 19.727 5.659 30.469 0 46.668-37.831 84.5-84.5 84.5-46.668 0-84.5-37.832-84.5-84.5a84.517 84.517 0 0 1 3.472-24.05C21.345 67.793 25.208 60.31 29 55c4.244-5.942 9.91-11.275 17-16 .379 4.31.712 7.976 1 11 .288 3.024.955 6.357 2 10 5.695-5.687 9.695-9.354 12-11 2.305-1.647 5.305-3.313 9-5-1.333 5-2 8.667-2 11 0 2.181.291 4.945.874 8.29.079.457.314.871.665 1.173C73.975 68.283 77.796 71.796 81 75c2.97 2.97 8.055 5.674 15.257 8.115a2 2 0 0 1 .906 3.16A107.352 107.352 0 0 1 94 90a54.354 54.354 0 0 1-3.495 3.538 2 2 0 0 1-1.17.523C81.265 94.825 75.154 96.138 71 98c-6.4 2.869-10 7-10 11 0 10 13 30 36 30 20 0 36-13 36-33 0-13.333-6.333-24-19-32 4.627-.137 6.627.197 10 1 3.373.803 6.373 2.136 9 4-5-8-9.223-12.9-15-16-5.777-3.1-13.444-5.766-23-6 1.56-11.318 4.56-19.651 9-27 2.538-4.201 5.804-8.07 9.798-11.608 2.992-2.65 6.393-5.114 10.202-7.392z" clip-rule="evenodd"/></mask></defs><g id="layer1" transform="translate(0 -860.362)"><g id="g1748" transform="translate(1156 192)"><path id="path44616" fill="#8c72bd" fill-rule="evenodd" d="M97.617 139c22.432 0 40.616-18.356 40.616-41s-18.184-41-40.616-41S57 75.356 57 98s18.185 41 40.617 41z" clip-path="url(#clipPath1409)" clip-rule="evenodd" style="fill:#feb0ac;fill-opacity:1;stroke-width:.352822" transform="translate(-1158.44 665.862)"/><path id="path44618" fill="#728dbe" fill-rule="evenodd" d="M124 11c2.948 4.763 5.858 9.179 8.73 13.247C138.298 32.137 143.722 38.722 149 44c8 8 14 18 18 30-.698-4.938-1.698-9.604-3-14a89.309 89.309 0 0 0-5-13c2.684 1.29 6.018 4.624 10 10 3.172 4.282 5.931 8.959 8.28 14.031 3.655 9.453 5.659 19.727 5.659 30.469 0 46.668-37.831 84.5-84.5 84.5-46.668 0-84.5-37.832-84.5-84.5a84.517 84.517 0 0 1 3.472-24.05C21.345 67.793 25.208 60.31 29 55c4.244-5.942 9.91-11.275 17-16 .379 4.31.712 7.976 1 11 .288 3.024.955 6.357 2 10 5.695-5.687 9.695-9.354 12-11 2.305-1.647 5.305-3.313 9-5-1.333 5-2 8.667-2 11 0 2.181.291 4.945.874 8.29a2 2 0 0 0 .665 1.173C73.975 68.283 77.796 71.796 81 75c2.97 2.97 8.055 5.674 15.257 8.115a2 2 0 0 1 .906 3.16A107.352 107.352 0 0 1 94 90a54.354 54.354 0 0 1-3.495 3.538 2 2 0 0 1-1.17.523C81.265 94.825 75.154 96.138 71 98c-6.4 2.869-10 7-10 11 0 10 13 30 36 30 20 0 36-13 36-33 0-13.333-6.333-24-19-32 4.627-.137 6.627.197 10 1 3.373.803 6.373 2.136 9 4-5-8-9.223-12.9-15-16-5.777-3.1-13.444-5.766-23-6 1.56-11.318 4.56-19.651 9-27 2.538-4.201 5.804-8.07 9.798-11.608 2.992-2.65 6.393-5.114 10.202-7.392Z" clip-path="url(#clipPath1405)" clip-rule="evenodd" style="display:inline;fill:#8c72bd;fill-opacity:1;stroke-width:.352822" transform="translate(-1158.44 665.862)"/><path id="path44620" fill="#728dbe" fill-rule="evenodd" d="M124 11c2.948 4.763 5.858 9.179 8.73 13.247C138.298 32.137 143.722 38.722 149 44c8 8 14 18 18 30-.698-4.938-1.698-9.604-3-14a89.309 89.309 0 0 0-5-13c2.684 1.29 6.018 4.624 10 10 3.172 4.282 5.931 8.959 8.28 14.031 3.655 9.453 5.659 19.727 5.659 30.469 0 46.668-37.831 84.5-84.5 84.5-46.668 0-84.5-37.832-84.5-84.5a84.517 84.517 0 0 1 3.472-24.05C21.345 67.793 25.208 60.31 29 55c4.244-5.942 9.91-11.275 17-16 .379 4.31.712 7.976 1 11 .288 3.024.955 6.357 2 10 5.695-5.687 9.695-9.354 12-11 2.305-1.647 5.305-3.313 9-5-1.333 5-2 8.667-2 11 0 2.181.291 4.945.874 8.29a2 2 0 0 0 .665 1.173C73.975 68.283 77.796 71.796 81 75c2.97 2.97 8.055 5.674 15.257 8.115a2 2 0 0 1 .906 3.16A107.352 107.352 0 0 1 94 90a54.354 54.354 0 0 1-3.495 3.538 2 2 0 0 1-1.17.523C81.265 94.825 75.154 96.138 71 98c-6.4 2.869-10 7-10 11 0 10 13 30 36 30 20 0 36-13 36-33 0-13.333-6.333-24-19-32 4.627-.137 6.627.197 10 1 3.373.803 6.373 2.136 9 4-5-8-9.223-12.9-15-16-5.777-3.1-13.444-5.766-23-6 1.56-11.318 4.56-19.651 9-27 2.538-4.201 5.804-8.07 9.798-11.608 2.992-2.65 6.393-5.114 10.202-7.392Z" clip-path="url(#clipPath1405)" clip-rule="evenodd" style="display:inline;fill:#000;fill-opacity:.15;stroke-width:.352822" transform="translate(-1158.44 665.862)"/><path id="path44622" fill="url(#paint0_linear)" fill-rule="evenodd" d="M14.166 95.26a85.746 85.746 0 0 0-.227 6.24c0 46.668 37.832 84.5 84.5 84.5 46.669 0 84.5-37.832 84.5-84.5 0-10.742-2.004-21.016-5.659-30.468-2.349-5.073-5.108-9.75-8.28-14.032-3.982-5.376-7.316-8.71-10-10a89.309 89.309 0 0 1 5 13c1.302 4.396 2.302 9.062 3 14 0 0 9 24 3 45-10.437 36.528-43.177 53.934-74 53-66-2-82-71-82-71z" clip-path="url(#clipPath1447)" clip-rule="evenodd" mask="url(#mask1475)" style="display:inline;fill:url(#linearGradient44638);stroke-width:.352822" transform="translate(-1158.44 665.862)"/><path id="path44624" fill="url(#paint2_linear)" fill-rule="evenodd" d="M133 79s12 10 15 21-1 24-1 24 17-18 20-30 0-20 0-20l-20-53S132 8 130 8s-6 3-6 3-9 8-13 24 8 31 8 31z" clip-path="url(#clipPath1431)" clip-rule="evenodd" mask="url(#mask1459)" style="fill:url(#linearGradient44640);stroke-width:.352822" transform="translate(-1158.44 665.862)"/><path id="path44626" fill="url(#paint1_linear)" fill-rule="evenodd" d="M84 137s31 10 60-12 23-51 23-51 9 24 3 45c-10.437 36.528-43.177 53.934-74 53-66-2-82-71-82-71l2-69 33-11v39s11.207-.193 27 6 24 14 24 14l5 33-21 24z" clip-path="url(#clipPath1443)" clip-rule="evenodd" mask="url(#mask1471)" style="display:inline;fill:url(#linearGradient44642);stroke-width:.352822" transform="translate(-1158.44 665.862)"/><path id="path44628" fill="#73ada4" fill-rule="evenodd" d="M49 60s15 1 21 4 14-32 14-32l-25 2z" clip-path="url(#clipPath1439)" clip-rule="evenodd" mask="url(#mask1467)" style="fill:#8c72bd;fill-opacity:1;stroke-width:.352822" transform="translate(-1158.44 665.862)"/><path id="path44630" fill="#96dfd3" fill-rule="evenodd" d="M98 86s-6 2-17 2-17.447-7.593-27-8c-9.553-.406-19 6-19 6s5.668 5.897 9 8c3.332 2.105 10 4 10 4s0 5.001 6 20.001 36 21 36 21z" clip-path="url(#clipPath1435)" clip-rule="evenodd" mask="url(#mask1463)" style="fill:#bd9aff;fill-opacity:1;stroke-width:.352822" transform="translate(-1158.44 665.862)"/><path id="path44632" fill="url(#paint3_linear)" fill-rule="evenodd" d="M148 122s-10 8-23 14-25 3-25 3 6-61 6-63 4-8 4-8l17 5 6 6s10 8 14 18 1 25 1 25z" clip-path="url(#clipPath1427)" clip-rule="evenodd" mask="url(#mask1455)" style="fill:url(#linearGradient44644);stroke-width:.352822" transform="translate(-1158.44 665.862)"/><path id="path44634" fill="#73ada4" fill-rule="evenodd" d="M116.124 62.043C110.598 59.37 103.557 57.21 95 57c1.56-11.318 4.56-19.651 9-27 2.538-4.201 5.804-8.07 9.798-11.608 2.992-2.65 6.393-5.114 10.202-7.392-6 5.333-10.333 13.333-13 24-2.317 9.266-.608 18.28 5.124 27.043z" clip-path="url(#clipPath1423)" clip-rule="evenodd" mask="url(#mask1451)" style="fill:#8c72bd;fill-opacity:1;stroke-width:.352822" transform="translate(-1158.44 665.862)"/></g></g><style id="style853" type="text/css">.st0{fill:#fff}</style></svg>