<?xml version="1.0" encoding="UTF-8" standalone="no"?>
<svg
   sodipodi:docname="firefox-concept.svg"
   inkscape:version="1.2 (dc2aedaf03, 2022-05-15)"
   version="1.1"
   id="svg2"
   viewBox="0 0 192 192"
   height="192"
   width="192"
   inkscape:export-filename="/home/jphilippe/inkscape/icônes/delta-github/png/entrernom.png"
   inkscape:export-xdpi="96"
   inkscape:export-ydpi="96"
   xml:space="preserve"
   xmlns:inkscape="http://www.inkscape.org/namespaces/inkscape"
   xmlns:sodipodi="http://sodipodi.sourceforge.net/DTD/sodipodi-0.dtd"
   xmlns:xlink="http://www.w3.org/1999/xlink"
   xmlns="http://www.w3.org/2000/svg"
   xmlns:svg="http://www.w3.org/2000/svg"
   xmlns:rdf="http://www.w3.org/1999/02/22-rdf-syntax-ns#"
   xmlns:cc="http://creativecommons.org/ns#"
   xmlns:dc="http://purl.org/dc/elements/1.1/"><sodipodi:namedview
     inkscape:document-rotation="0"
     inkscape:window-maximized="1"
     inkscape:window-y="0"
     inkscape:window-x="1920"
     inkscape:window-height="1022"
     inkscape:window-width="1680"
     units="px"
     showgrid="false"
     inkscape:current-layer="layer1"
     inkscape:document-units="px"
     inkscape:cy="-464"
     inkscape:cx="-1166"
     inkscape:zoom="0.25"
     inkscape:pageshadow="2"
     inkscape:pageopacity="0.0"
     borderopacity="1.0"
     bordercolor="#666666"
     pagecolor="#ffffff"
     id="base"
     inkscape:snap-bbox="false"
     inkscape:object-paths="true"
     inkscape:snap-nodes="true"
     showguides="true"
     inkscape:guide-bbox="true"
     inkscape:snap-object-midpoints="true"
     inkscape:snap-center="true"
     inkscape:snap-global="false"
     inkscape:snap-intersection-paths="true"
     inkscape:snap-smooth-nodes="true"
     inkscape:snap-midpoints="true"
     inkscape:showpageshadow="0"
     inkscape:pagecheckerboard="0"
     inkscape:deskcolor="#d1d1d1" /><defs
     id="defs4"><clipPath
       clipPathUnits="userSpaceOnUse"
       id="clipPath1409"><rect
         width="192"
         height="192"
         fill="#ffffff"
         id="rect1411"
         x="0.00012445313"
         y="3.0664061e-05" /></clipPath><clipPath
       clipPathUnits="userSpaceOnUse"
       id="clipPath1405"><rect
         width="192"
         height="192"
         fill="#ffffff"
         id="rect1407"
         x="0.00012445313"
         y="3.0664061e-05" /></clipPath><linearGradient
       inkscape:collect="always"
       xlink:href="#linearGradient9214"
       id="linearGradient44638"
       gradientUnits="userSpaceOnUse"
       x1="107.312"
       y1="54.681"
       x2="73.816902"
       y2="187.617" /><linearGradient
       id="linearGradient9214"
       x1="107.312"
       y1="54.681"
       x2="73.816902"
       y2="187.617"
       gradientUnits="userSpaceOnUse"><stop
         stop-color="#96DFD3"
         id="stop9208"
         offset="0"
         style="stop-color:#bd9aff;stop-opacity:1;" /><stop
         offset="0.612701"
         stop-color="#728DBE"
         stop-opacity="0.01"
         id="stop9210"
         style="stop-color:#8c72bd;stop-opacity:0.01;" /><stop
         offset="1"
         stop-color="#8C72BD"
         id="stop9212"
         style="stop-color:#8c72bd;stop-opacity:1;" /></linearGradient><clipPath
       clipPathUnits="userSpaceOnUse"
       id="clipPath1447"><rect
         width="192"
         height="192"
         fill="#ffffff"
         id="rect1449"
         x="0.00012445313"
         y="3.0664061e-05" /></clipPath><mask
       maskUnits="userSpaceOnUse"
       id="mask1475"><path
         fill-rule="evenodd"
         clip-rule="evenodd"
         d="m 123.99996,11 c 2.948,4.763 5.858,9.1787 8.73,13.2472 5.568,7.8902 10.992,14.4745 16.27,19.7528 8,8 14,18 18,30 -0.698,-4.9377 -1.698,-9.6044 -3,-14 -1.302,-4.3956 -2.969,-8.729 -5,-13 2.684,1.2904 6.018,4.6237 10,10 3.172,4.2816 5.931,8.9587 8.28,14.0315 3.655,9.4522 5.659,19.7263 5.659,30.4685 0,46.668 -37.831,84.5 -84.4995,84.5 -46.6681,0 -84.5,-37.832 -84.5,-84.5 0,-8.3552 1.2126,-16.4272 3.4715,-24.0495 3.934,-9.6583 7.797,-17.1418 11.589,-22.4505 4.2443,-5.942 9.9109,-11.2754 17,-16 0.3787,4.3097 0.712,7.9763 1,11 0.2879,3.0237 0.9546,6.357 2,10 5.6949,-5.6868 9.6949,-9.3535 12,-11 2.3051,-1.6465 5.3051,-3.3132 9,-5 -1.3334,5 -2,8.6667 -2,11 0,2.181 0.2912,4.9446 0.8737,8.2906 0.079,0.456 0.3145,0.8704 0.6653,1.1725 4.4364,3.8203 8.2567,7.3326 11.461,10.5369 2.9694,2.9695 8.0551,5.6744 15.257,8.1148 1.0462,0.3545 1.6069,1.4899 1.2524,2.536 -0.077,0.2272 -0.1942,0.4387 -0.3461,0.6244 -1.2549,1.5343 -2.3094,2.7759 -3.1633,3.7248 -1.0944,1.216 -2.2594,2.3954 -3.4949,3.5383 -0.322,0.2979 -0.733,0.4816 -1.1697,0.523 -8.0699,0.7638 -14.1817,2.0767 -18.3354,3.9387 -6.4005,2.869 -10,7 -10,11 0,10 13,30 36,30 20,0 36,-13 36,-33 0,-13.3333 -6.333,-24 -19,-32 4.627,-0.1365 6.627,0.1968 10,1 3.373,0.8032 6.373,2.1365 9,4 -5,-8 -9.223,-12.9003 -15,-16 -5.777,-3.0997 -13.444,-5.7664 -23,-6 1.5602,-11.3181 4.5602,-19.6514 9,-27 2.538,-4.201 5.804,-8.0703 9.798,-11.6077 2.992,-2.6504 6.393,-5.1145 10.202,-7.3923 z"
         fill="#ffffff"
         id="path1477" /></mask><linearGradient
       inkscape:collect="always"
       xlink:href="#linearGradient20980"
       id="linearGradient44640"
       gradientUnits="userSpaceOnUse"
       x1="139.48599"
       y1="58.263302"
       x2="118.514"
       y2="112.294" /><linearGradient
       id="linearGradient20980"
       x1="139.48599"
       y1="58.263302"
       x2="118.514"
       y2="112.294"
       gradientUnits="userSpaceOnUse"><stop
         stop-color="#96DFD3"
         id="stop20976"
         offset="0"
         style="stop-color:#bd9aff;stop-opacity:1;" /><stop
         offset="1"
         stop-color="#96DFD3"
         stop-opacity="0.01"
         id="stop20978"
         style="stop-color:#8c72bd;stop-opacity:1;" /></linearGradient><clipPath
       clipPathUnits="userSpaceOnUse"
       id="clipPath1431"><rect
         width="192"
         height="192"
         fill="#ffffff"
         id="rect1433"
         x="0.00012445313"
         y="3.0664061e-05" /></clipPath><mask
       maskUnits="userSpaceOnUse"
       id="mask1459"><path
         fill-rule="evenodd"
         clip-rule="evenodd"
         d="m 123.99996,11 c 2.948,4.763 5.858,9.1787 8.73,13.2472 5.568,7.8902 10.992,14.4745 16.27,19.7528 8,8 14,18 18,30 -0.698,-4.9377 -1.698,-9.6044 -3,-14 -1.302,-4.3956 -2.969,-8.729 -5,-13 2.684,1.2904 6.018,4.6237 10,10 3.172,4.2816 5.931,8.9587 8.28,14.0315 3.655,9.4522 5.659,19.7263 5.659,30.4685 0,46.668 -37.831,84.5 -84.4995,84.5 -46.6681,0 -84.5,-37.832 -84.5,-84.5 0,-8.3552 1.2126,-16.4272 3.4715,-24.0495 3.934,-9.6583 7.797,-17.1418 11.589,-22.4505 4.2443,-5.942 9.9109,-11.2754 17,-16 0.3787,4.3097 0.712,7.9763 1,11 0.2879,3.0237 0.9546,6.357 2,10 5.6949,-5.6868 9.6949,-9.3535 12,-11 2.3051,-1.6465 5.3051,-3.3132 9,-5 -1.3334,5 -2,8.6667 -2,11 0,2.181 0.2912,4.9446 0.8737,8.2906 0.079,0.456 0.3145,0.8704 0.6653,1.1725 4.4364,3.8203 8.2567,7.3326 11.461,10.5369 2.9694,2.9695 8.0551,5.6744 15.257,8.1148 1.0462,0.3545 1.6069,1.4899 1.2524,2.536 -0.077,0.2272 -0.1942,0.4387 -0.3461,0.6244 -1.2549,1.5343 -2.3094,2.7759 -3.1633,3.7248 -1.0944,1.216 -2.2594,2.3954 -3.4949,3.5383 -0.322,0.2979 -0.733,0.4816 -1.1697,0.523 -8.0699,0.7638 -14.1817,2.0767 -18.3354,3.9387 -6.4005,2.869 -10,7 -10,11 0,10 13,30 36,30 20,0 36,-13 36,-33 0,-13.3333 -6.333,-24 -19,-32 4.627,-0.1365 6.627,0.1968 10,1 3.373,0.8032 6.373,2.1365 9,4 -5,-8 -9.223,-12.9003 -15,-16 -5.777,-3.0997 -13.444,-5.7664 -23,-6 1.5602,-11.3181 4.5602,-19.6514 9,-27 2.538,-4.201 5.804,-8.0703 9.798,-11.6077 2.992,-2.6504 6.393,-5.1145 10.202,-7.3923 z"
         fill="#ffffff"
         id="path1461" /></mask><linearGradient
       inkscape:collect="always"
       xlink:href="#linearGradient20619"
       id="linearGradient44642"
       gradientUnits="userSpaceOnUse"
       x1="63.424198"
       y1="53.1661"
       x2="15.1178"
       y2="156.099" /><linearGradient
       id="linearGradient20619"
       x1="63.424198"
       y1="53.1661"
       x2="15.1178"
       y2="156.099"
       gradientUnits="userSpaceOnUse"><stop
         stop-color="#99CDCD"
         id="stop20615"
         offset="0"
         style="stop-color:#bd9aff;stop-opacity:1;" /><stop
         offset="1"
         stop-color="#99CDCD"
         stop-opacity="0.1505"
         id="stop20617"
         style="stop-color:#8c72bd;stop-opacity:0.5;" /></linearGradient><clipPath
       clipPathUnits="userSpaceOnUse"
       id="clipPath1443"><rect
         width="192"
         height="192"
         fill="#ffffff"
         id="rect1445"
         x="0.00012445313"
         y="3.0664061e-05" /></clipPath><mask
       maskUnits="userSpaceOnUse"
       id="mask1471"><path
         fill-rule="evenodd"
         clip-rule="evenodd"
         d="m 123.99996,11 c 2.948,4.763 5.858,9.1787 8.73,13.2472 5.568,7.8902 10.992,14.4745 16.27,19.7528 8,8 14,18 18,30 -0.698,-4.9377 -1.698,-9.6044 -3,-14 -1.302,-4.3956 -2.969,-8.729 -5,-13 2.684,1.2904 6.018,4.6237 10,10 3.172,4.2816 5.931,8.9587 8.28,14.0315 3.655,9.4522 5.659,19.7263 5.659,30.4685 0,46.668 -37.831,84.5 -84.4995,84.5 -46.6681,0 -84.5,-37.832 -84.5,-84.5 0,-8.3552 1.2126,-16.4272 3.4715,-24.0495 3.934,-9.6583 7.797,-17.1418 11.589,-22.4505 4.2443,-5.942 9.9109,-11.2754 17,-16 0.3787,4.3097 0.712,7.9763 1,11 0.2879,3.0237 0.9546,6.357 2,10 5.6949,-5.6868 9.6949,-9.3535 12,-11 2.3051,-1.6465 5.3051,-3.3132 9,-5 -1.3334,5 -2,8.6667 -2,11 0,2.181 0.2912,4.9446 0.8737,8.2906 0.079,0.456 0.3145,0.8704 0.6653,1.1725 4.4364,3.8203 8.2567,7.3326 11.461,10.5369 2.9694,2.9695 8.0551,5.6744 15.257,8.1148 1.0462,0.3545 1.6069,1.4899 1.2524,2.536 -0.077,0.2272 -0.1942,0.4387 -0.3461,0.6244 -1.2549,1.5343 -2.3094,2.7759 -3.1633,3.7248 -1.0944,1.216 -2.2594,2.3954 -3.4949,3.5383 -0.322,0.2979 -0.733,0.4816 -1.1697,0.523 -8.0699,0.7638 -14.1817,2.0767 -18.3354,3.9387 -6.4005,2.869 -10,7 -10,11 0,10 13,30 36,30 20,0 36,-13 36,-33 0,-13.3333 -6.333,-24 -19,-32 4.627,-0.1365 6.627,0.1968 10,1 3.373,0.8032 6.373,2.1365 9,4 -5,-8 -9.223,-12.9003 -15,-16 -5.777,-3.0997 -13.444,-5.7664 -23,-6 1.5602,-11.3181 4.5602,-19.6514 9,-27 2.538,-4.201 5.804,-8.0703 9.798,-11.6077 2.992,-2.6504 6.393,-5.1145 10.202,-7.3923 z"
         fill="#ffffff"
         id="path1473" /></mask><clipPath
       clipPathUnits="userSpaceOnUse"
       id="clipPath1439"><rect
         width="192"
         height="192"
         fill="#ffffff"
         id="rect1441"
         x="0.00012445313"
         y="3.0664061e-05" /></clipPath><mask
       maskUnits="userSpaceOnUse"
       id="mask1467"><path
         fill-rule="evenodd"
         clip-rule="evenodd"
         d="m 123.99996,11 c 2.948,4.763 5.858,9.1787 8.73,13.2472 5.568,7.8902 10.992,14.4745 16.27,19.7528 8,8 14,18 18,30 -0.698,-4.9377 -1.698,-9.6044 -3,-14 -1.302,-4.3956 -2.969,-8.729 -5,-13 2.684,1.2904 6.018,4.6237 10,10 3.172,4.2816 5.931,8.9587 8.28,14.0315 3.655,9.4522 5.659,19.7263 5.659,30.4685 0,46.668 -37.831,84.5 -84.4995,84.5 -46.6681,0 -84.5,-37.832 -84.5,-84.5 0,-8.3552 1.2126,-16.4272 3.4715,-24.0495 3.934,-9.6583 7.797,-17.1418 11.589,-22.4505 4.2443,-5.942 9.9109,-11.2754 17,-16 0.3787,4.3097 0.712,7.9763 1,11 0.2879,3.0237 0.9546,6.357 2,10 5.6949,-5.6868 9.6949,-9.3535 12,-11 2.3051,-1.6465 5.3051,-3.3132 9,-5 -1.3334,5 -2,8.6667 -2,11 0,2.181 0.2912,4.9446 0.8737,8.2906 0.079,0.456 0.3145,0.8704 0.6653,1.1725 4.4364,3.8203 8.2567,7.3326 11.461,10.5369 2.9694,2.9695 8.0551,5.6744 15.257,8.1148 1.0462,0.3545 1.6069,1.4899 1.2524,2.536 -0.077,0.2272 -0.1942,0.4387 -0.3461,0.6244 -1.2549,1.5343 -2.3094,2.7759 -3.1633,3.7248 -1.0944,1.216 -2.2594,2.3954 -3.4949,3.5383 -0.322,0.2979 -0.733,0.4816 -1.1697,0.523 -8.0699,0.7638 -14.1817,2.0767 -18.3354,3.9387 -6.4005,2.869 -10,7 -10,11 0,10 13,30 36,30 20,0 36,-13 36,-33 0,-13.3333 -6.333,-24 -19,-32 4.627,-0.1365 6.627,0.1968 10,1 3.373,0.8032 6.373,2.1365 9,4 -5,-8 -9.223,-12.9003 -15,-16 -5.777,-3.0997 -13.444,-5.7664 -23,-6 1.5602,-11.3181 4.5602,-19.6514 9,-27 2.538,-4.201 5.804,-8.0703 9.798,-11.6077 2.992,-2.6504 6.393,-5.1145 10.202,-7.3923 z"
         fill="#ffffff"
         id="path1469" /></mask><clipPath
       clipPathUnits="userSpaceOnUse"
       id="clipPath1435"><rect
         width="192"
         height="192"
         fill="#ffffff"
         id="rect1437"
         x="0.00012445313"
         y="3.0664061e-05" /></clipPath><mask
       maskUnits="userSpaceOnUse"
       id="mask1463"><path
         fill-rule="evenodd"
         clip-rule="evenodd"
         d="m 123.99996,11 c 2.948,4.763 5.858,9.1787 8.73,13.2472 5.568,7.8902 10.992,14.4745 16.27,19.7528 8,8 14,18 18,30 -0.698,-4.9377 -1.698,-9.6044 -3,-14 -1.302,-4.3956 -2.969,-8.729 -5,-13 2.684,1.2904 6.018,4.6237 10,10 3.172,4.2816 5.931,8.9587 8.28,14.0315 3.655,9.4522 5.659,19.7263 5.659,30.4685 0,46.668 -37.831,84.5 -84.4995,84.5 -46.6681,0 -84.5,-37.832 -84.5,-84.5 0,-8.3552 1.2126,-16.4272 3.4715,-24.0495 3.934,-9.6583 7.797,-17.1418 11.589,-22.4505 4.2443,-5.942 9.9109,-11.2754 17,-16 0.3787,4.3097 0.712,7.9763 1,11 0.2879,3.0237 0.9546,6.357 2,10 5.6949,-5.6868 9.6949,-9.3535 12,-11 2.3051,-1.6465 5.3051,-3.3132 9,-5 -1.3334,5 -2,8.6667 -2,11 0,2.181 0.2912,4.9446 0.8737,8.2906 0.079,0.456 0.3145,0.8704 0.6653,1.1725 4.4364,3.8203 8.2567,7.3326 11.461,10.5369 2.9694,2.9695 8.0551,5.6744 15.257,8.1148 1.0462,0.3545 1.6069,1.4899 1.2524,2.536 -0.077,0.2272 -0.1942,0.4387 -0.3461,0.6244 -1.2549,1.5343 -2.3094,2.7759 -3.1633,3.7248 -1.0944,1.216 -2.2594,2.3954 -3.4949,3.5383 -0.322,0.2979 -0.733,0.4816 -1.1697,0.523 -8.0699,0.7638 -14.1817,2.0767 -18.3354,3.9387 -6.4005,2.869 -10,7 -10,11 0,10 13,30 36,30 20,0 36,-13 36,-33 0,-13.3333 -6.333,-24 -19,-32 4.627,-0.1365 6.627,0.1968 10,1 3.373,0.8032 6.373,2.1365 9,4 -5,-8 -9.223,-12.9003 -15,-16 -5.777,-3.0997 -13.444,-5.7664 -23,-6 1.5602,-11.3181 4.5602,-19.6514 9,-27 2.538,-4.201 5.804,-8.0703 9.798,-11.6077 2.992,-2.6504 6.393,-5.1145 10.202,-7.3923 z"
         fill="#ffffff"
         id="path1465" /></mask><linearGradient
       inkscape:collect="always"
       xlink:href="#linearGradient20832"
       id="linearGradient44644"
       gradientUnits="userSpaceOnUse"
       x1="126.279"
       y1="97.676201"
       x2="112.591"
       y2="127.61" /><linearGradient
       id="linearGradient20832"
       x1="126.279"
       y1="97.676201"
       x2="112.591"
       y2="127.61"
       gradientUnits="userSpaceOnUse"><stop
         stop-color="#96DFD3"
         id="stop20828"
         offset="0"
         style="stop-color:#8c72bd;stop-opacity:1;" /><stop
         offset="1"
         stop-color="#96DFD3"
         stop-opacity="0.01"
         id="stop20830"
         style="stop-color:#8c72bd;stop-opacity:0.01;" /></linearGradient><clipPath
       clipPathUnits="userSpaceOnUse"
       id="clipPath1427"><rect
         width="192"
         height="192"
         fill="#ffffff"
         id="rect1429"
         x="0.00012445313"
         y="3.0664061e-05" /></clipPath><mask
       maskUnits="userSpaceOnUse"
       id="mask1455"><path
         fill-rule="evenodd"
         clip-rule="evenodd"
         d="m 123.99996,11 c 2.948,4.763 5.858,9.1787 8.73,13.2472 5.568,7.8902 10.992,14.4745 16.27,19.7528 8,8 14,18 18,30 -0.698,-4.9377 -1.698,-9.6044 -3,-14 -1.302,-4.3956 -2.969,-8.729 -5,-13 2.684,1.2904 6.018,4.6237 10,10 3.172,4.2816 5.931,8.9587 8.28,14.0315 3.655,9.4522 5.659,19.7263 5.659,30.4685 0,46.668 -37.831,84.5 -84.4995,84.5 -46.6681,0 -84.5,-37.832 -84.5,-84.5 0,-8.3552 1.2126,-16.4272 3.4715,-24.0495 3.934,-9.6583 7.797,-17.1418 11.589,-22.4505 4.2443,-5.942 9.9109,-11.2754 17,-16 0.3787,4.3097 0.712,7.9763 1,11 0.2879,3.0237 0.9546,6.357 2,10 5.6949,-5.6868 9.6949,-9.3535 12,-11 2.3051,-1.6465 5.3051,-3.3132 9,-5 -1.3334,5 -2,8.6667 -2,11 0,2.181 0.2912,4.9446 0.8737,8.2906 0.079,0.456 0.3145,0.8704 0.6653,1.1725 4.4364,3.8203 8.2567,7.3326 11.461,10.5369 2.9694,2.9695 8.0551,5.6744 15.257,8.1148 1.0462,0.3545 1.6069,1.4899 1.2524,2.536 -0.077,0.2272 -0.1942,0.4387 -0.3461,0.6244 -1.2549,1.5343 -2.3094,2.7759 -3.1633,3.7248 -1.0944,1.216 -2.2594,2.3954 -3.4949,3.5383 -0.322,0.2979 -0.733,0.4816 -1.1697,0.523 -8.0699,0.7638 -14.1817,2.0767 -18.3354,3.9387 -6.4005,2.869 -10,7 -10,11 0,10 13,30 36,30 20,0 36,-13 36,-33 0,-13.3333 -6.333,-24 -19,-32 4.627,-0.1365 6.627,0.1968 10,1 3.373,0.8032 6.373,2.1365 9,4 -5,-8 -9.223,-12.9003 -15,-16 -5.777,-3.0997 -13.444,-5.7664 -23,-6 1.5602,-11.3181 4.5602,-19.6514 9,-27 2.538,-4.201 5.804,-8.0703 9.798,-11.6077 2.992,-2.6504 6.393,-5.1145 10.202,-7.3923 z"
         fill="#ffffff"
         id="path1457" /></mask><clipPath
       clipPathUnits="userSpaceOnUse"
       id="clipPath1423"><rect
         width="192"
         height="192"
         fill="#ffffff"
         id="rect1425"
         x="0.00012445313"
         y="3.0664061e-05" /></clipPath><mask
       maskUnits="userSpaceOnUse"
       id="mask1451"><path
         fill-rule="evenodd"
         clip-rule="evenodd"
         d="m 123.99996,11 c 2.948,4.763 5.858,9.1787 8.73,13.2472 5.568,7.8902 10.992,14.4745 16.27,19.7528 8,8 14,18 18,30 -0.698,-4.9377 -1.698,-9.6044 -3,-14 -1.302,-4.3956 -2.969,-8.729 -5,-13 2.684,1.2904 6.018,4.6237 10,10 3.172,4.2816 5.931,8.9587 8.28,14.0315 3.655,9.4522 5.659,19.7263 5.659,30.4685 0,46.668 -37.831,84.5 -84.4995,84.5 -46.6681,0 -84.5,-37.832 -84.5,-84.5 0,-8.3552 1.2126,-16.4272 3.4715,-24.0495 3.934,-9.6583 7.797,-17.1418 11.589,-22.4505 4.2443,-5.942 9.9109,-11.2754 17,-16 0.3787,4.3097 0.712,7.9763 1,11 0.2879,3.0237 0.9546,6.357 2,10 5.6949,-5.6868 9.6949,-9.3535 12,-11 2.3051,-1.6465 5.3051,-3.3132 9,-5 -1.3334,5 -2,8.6667 -2,11 0,2.181 0.2912,4.9446 0.8737,8.2906 0.079,0.456 0.3145,0.8704 0.6653,1.1725 4.4364,3.8203 8.2567,7.3326 11.461,10.5369 2.9694,2.9695 8.0551,5.6744 15.257,8.1148 1.0462,0.3545 1.6069,1.4899 1.2524,2.536 -0.077,0.2272 -0.1942,0.4387 -0.3461,0.6244 -1.2549,1.5343 -2.3094,2.7759 -3.1633,3.7248 -1.0944,1.216 -2.2594,2.3954 -3.4949,3.5383 -0.322,0.2979 -0.733,0.4816 -1.1697,0.523 -8.0699,0.7638 -14.1817,2.0767 -18.3354,3.9387 -6.4005,2.869 -10,7 -10,11 0,10 13,30 36,30 20,0 36,-13 36,-33 0,-13.3333 -6.333,-24 -19,-32 4.627,-0.1365 6.627,0.1968 10,1 3.373,0.8032 6.373,2.1365 9,4 -5,-8 -9.223,-12.9003 -15,-16 -5.777,-3.0997 -13.444,-5.7664 -23,-6 1.5602,-11.3181 4.5602,-19.6514 9,-27 2.538,-4.201 5.804,-8.0703 9.798,-11.6077 2.992,-2.6504 6.393,-5.1145 10.202,-7.3923 z"
         fill="#ffffff"
         id="path1453" /></mask></defs><metadata
     id="metadata7"><rdf:RDF><cc:Work
         rdf:about=""><dc:format>image/svg+xml</dc:format><dc:type
           rdf:resource="http://purl.org/dc/dcmitype/StillImage" /></cc:Work></rdf:RDF></metadata><g
     transform="translate(0,-860.36216)"
     id="layer1"
     inkscape:groupmode="layer"
     inkscape:label="Calque 1"><g
       id="g1748"
       transform="translate(1156.0001,192)"><path
         fill-rule="evenodd"
         clip-rule="evenodd"
         d="m 97.6166,139 c 22.4324,0 40.6164,-18.356 40.6164,-41 0,-22.6437 -18.184,-41 -40.6164,-41 C 75.1847,57 57,75.3563 57,98 c 0,22.644 18.1847,41 40.6166,41 z"
         fill="#8c72bd"
         id="path44616"
         style="fill:#feb0ac;fill-opacity:1;stroke-width:0.352822"
         transform="translate(-1158.4393,665.86216)"
         clip-path="url(#clipPath1409)" /><path
         fill-rule="evenodd"
         clip-rule="evenodd"
         d="m 124,11 c 2.948,4.763 5.858,9.1787 8.73,13.2472 5.568,7.8902 10.992,14.4745 16.27,19.7528 8,8 14,18 18,30 -0.698,-4.9377 -1.698,-9.6044 -3,-14 -1.302,-4.3956 -2.969,-8.729 -5,-13 2.684,1.2904 6.018,4.6237 10,10 3.172,4.2816 5.931,8.9587 8.28,14.0315 3.655,9.4522 5.659,19.7263 5.659,30.4685 0,46.668 -37.831,84.5 -84.4995,84.5 -46.6681,0 -84.5,-37.832 -84.5,-84.5 0,-8.3552 1.2126,-16.4272 3.4715,-24.0495 C 21.345,67.7922 25.208,60.3087 29,55 c 4.2443,-5.942 9.9109,-11.2754 17,-16 0.3787,4.3097 0.712,7.9763 1,11 0.2879,3.0237 0.9546,6.357 2,10 5.6949,-5.6868 9.6949,-9.3535 12,-11 2.3051,-1.6465 5.3051,-3.3132 9,-5 -1.3334,5 -2,8.6667 -2,11 0,2.181 0.2912,4.9446 0.8737,8.2906 0.0794,0.456 0.3145,0.8704 0.6653,1.1725 C 73.9754,68.2834 77.7957,71.7957 81,75 c 2.9694,2.9695 8.0551,5.6744 15.257,8.1148 1.0462,0.3545 1.6069,1.4899 1.2524,2.536 -0.077,0.2272 -0.1942,0.4387 -0.3461,0.6244 C 95.9084,87.8095 94.8539,89.0511 94,90 c -1.0944,1.216 -2.2594,2.3954 -3.4949,3.5383 -0.322,0.2979 -0.733,0.4816 -1.1697,0.523 C 81.2655,94.8251 75.1537,96.138 71,98 c -6.4005,2.869 -10,7 -10,11 0,10 13,30 36,30 20,0 36,-13 36,-33 0,-13.3333 -6.333,-24 -19,-32 4.627,-0.1365 6.627,0.1968 10,1 3.373,0.8032 6.373,2.1365 9,4 -5,-8 -9.223,-12.9003 -15,-16 -5.777,-3.0997 -13.444,-5.7664 -23,-6 1.5602,-11.3181 4.5602,-19.6514 9,-27 2.538,-4.201 5.804,-8.0703 9.798,-11.6077 C 116.79,15.7419 120.191,13.2778 124,11 Z"
         fill="#728dbe"
         id="path44618"
         style="display:inline;fill:#8c72bd;fill-opacity:1;stroke-width:0.352822"
         transform="translate(-1158.4393,665.86216)"
         clip-path="url(#clipPath1405)" /><path
         fill-rule="evenodd"
         clip-rule="evenodd"
         d="m 124,11 c 2.948,4.763 5.858,9.1787 8.73,13.2472 5.568,7.8902 10.992,14.4745 16.27,19.7528 8,8 14,18 18,30 -0.698,-4.9377 -1.698,-9.6044 -3,-14 -1.302,-4.3956 -2.969,-8.729 -5,-13 2.684,1.2904 6.018,4.6237 10,10 3.172,4.2816 5.931,8.9587 8.28,14.0315 3.655,9.4522 5.659,19.7263 5.659,30.4685 0,46.668 -37.831,84.5 -84.4995,84.5 -46.6681,0 -84.5,-37.832 -84.5,-84.5 0,-8.3552 1.2126,-16.4272 3.4715,-24.0495 C 21.345,67.7922 25.208,60.3087 29,55 c 4.2443,-5.942 9.9109,-11.2754 17,-16 0.3787,4.3097 0.712,7.9763 1,11 0.2879,3.0237 0.9546,6.357 2,10 5.6949,-5.6868 9.6949,-9.3535 12,-11 2.3051,-1.6465 5.3051,-3.3132 9,-5 -1.3334,5 -2,8.6667 -2,11 0,2.181 0.2912,4.9446 0.8737,8.2906 0.0794,0.456 0.3145,0.8704 0.6653,1.1725 C 73.9754,68.2834 77.7957,71.7957 81,75 c 2.9694,2.9695 8.0551,5.6744 15.257,8.1148 1.0462,0.3545 1.6069,1.4899 1.2524,2.536 -0.077,0.2272 -0.1942,0.4387 -0.3461,0.6244 C 95.9084,87.8095 94.8539,89.0511 94,90 c -1.0944,1.216 -2.2594,2.3954 -3.4949,3.5383 -0.322,0.2979 -0.733,0.4816 -1.1697,0.523 C 81.2655,94.8251 75.1537,96.138 71,98 c -6.4005,2.869 -10,7 -10,11 0,10 13,30 36,30 20,0 36,-13 36,-33 0,-13.3333 -6.333,-24 -19,-32 4.627,-0.1365 6.627,0.1968 10,1 3.373,0.8032 6.373,2.1365 9,4 -5,-8 -9.223,-12.9003 -15,-16 -5.777,-3.0997 -13.444,-5.7664 -23,-6 1.5602,-11.3181 4.5602,-19.6514 9,-27 2.538,-4.201 5.804,-8.0703 9.798,-11.6077 C 116.79,15.7419 120.191,13.2778 124,11 Z"
         fill="#728dbe"
         id="path44620"
         style="display:inline;fill:#000000;fill-opacity:0.15;stroke-width:0.352822"
         transform="translate(-1158.4393,665.86216)"
         clip-path="url(#clipPath1405)" /><path
         fill-rule="evenodd"
         clip-rule="evenodd"
         d="m 14.1663,95.2604 c -0.1503,2.0602 -0.2268,4.141 -0.2268,6.2396 0,46.668 37.8319,84.5 84.5,84.5 46.6685,0 84.4995,-37.832 84.4995,-84.5 0,-10.7422 -2.004,-21.0163 -5.659,-30.4685 C 174.931,65.9587 172.172,61.2816 169,57 c -3.982,-5.3763 -7.316,-8.7096 -10,-10 2.031,4.271 3.698,8.6044 5,13 1.302,4.3956 2.302,9.0623 3,14 0,0 9,24 3,45 -10.437,36.528 -43.177,53.934 -74,53 -66,-2 -82,-71 -82,-71 z"
         fill="url(#paint0_linear)"
         id="path44622"
         style="display:inline;fill:url(#linearGradient44638);stroke-width:0.352822"
         transform="translate(-1158.4393,665.86216)"
         clip-path="url(#clipPath1447)"
         mask="url(#mask1475)" /><path
         fill-rule="evenodd"
         clip-rule="evenodd"
         d="m 133,79 c 0,0 12,10 15,21 3,11 -1,24 -1,24 0,0 17,-18 20,-30 3,-12 0,-20 0,-20 L 147,21 c 0,0 -15,-13 -17,-13 -2,0 -6,3 -6,3 0,0 -9,8 -13,24 -4,16 8,31 8,31 z"
         fill="url(#paint2_linear)"
         id="path44624"
         style="fill:url(#linearGradient44640);stroke-width:0.352822"
         transform="translate(-1158.4393,665.86216)"
         clip-path="url(#clipPath1431)"
         mask="url(#mask1459)" /><path
         fill-rule="evenodd"
         clip-rule="evenodd"
         d="m 84,137 c 0,0 31,10 60,-12 29,-22 23,-51 23,-51 0,0 9,24 3,45 -10.437,36.528 -43.177,53.934 -74,53 C 30,170 14,101 14,101 L 16,32 49,21 v 39 c 0,0 11.2075,-0.1931 27,6 15.7925,6.1931 24,14 24,14 0,0 5,33 5,33 0,0 -21,24 -21,24 z"
         fill="url(#paint1_linear)"
         id="path44626"
         style="display:inline;fill:url(#linearGradient44642);stroke-width:0.352822"
         transform="translate(-1158.4393,665.86216)"
         clip-path="url(#clipPath1443)"
         mask="url(#mask1471)" /><path
         fill-rule="evenodd"
         clip-rule="evenodd"
         d="m 49,60 c 0,0 15,1 21,4 6,3 14,-32 14,-32 l -25,2 z"
         fill="#73ada4"
         id="path44628"
         style="fill:#8c72bd;fill-opacity:1;stroke-width:0.352822"
         transform="translate(-1158.4393,665.86216)"
         clip-path="url(#clipPath1439)"
         mask="url(#mask1467)" /><path
         fill-rule="evenodd"
         clip-rule="evenodd"
         d="m 98,86.0008 c 0,0 -6,2 -17,2 -11,0 -17.4471,-7.5935 -27,-8 -9.5529,-0.4065 -19,6 -19,6 0,0 5.6684,5.8958 9,8 3.3316,2.1042 10,4 10,4 0,0 0,5.0002 6,20.0002 6,15 36,21 36,21 z"
         fill="#96dfd3"
         id="path44630"
         style="fill:#bd9aff;fill-opacity:1;stroke-width:0.352822"
         transform="translate(-1158.4393,665.86216)"
         clip-path="url(#clipPath1435)"
         mask="url(#mask1463)" /><path
         fill-rule="evenodd"
         clip-rule="evenodd"
         d="m 148,122 c 0,0 -10,8 -23,14 -13,6 -25,3 -25,3 0,0 6,-61 6,-63 0,-2 4,-8 4,-8 l 17,5 6,6 c 0,0 10,8 14,18 4,10 1,25 1,25 z"
         fill="url(#paint3_linear)"
         id="path44632"
         style="fill:url(#linearGradient44644);stroke-width:0.352822"
         transform="translate(-1158.4393,665.86216)"
         clip-path="url(#clipPath1427)"
         mask="url(#mask1455)" /><path
         fill-rule="evenodd"
         clip-rule="evenodd"
         d="M 116.124,62.0434 C 110.598,59.3688 103.557,57.2091 95,57 c 1.5602,-11.3181 4.5602,-19.6514 9,-27 2.538,-4.201 5.804,-8.0703 9.798,-11.6077 C 116.79,15.7419 120.191,13.2778 124,11 c -6,5.3333 -10.333,13.3333 -13,24 -2.317,9.266 -0.608,18.2805 5.124,27.0434 z"
         fill="#73ada4"
         id="path44634"
         style="fill:#8c72bd;fill-opacity:1;stroke-width:0.352822"
         transform="translate(-1158.4393,665.86216)"
         clip-path="url(#clipPath1423)"
         mask="url(#mask1451)" /></g></g><style
     type="text/css"
     id="style853">
	.st0{fill:#FFFFFF;}
</style><style
     type="text/css"
     id="style853-9">
	.st0{fill:#FFFFFF;}
</style><style
     type="text/css"
     id="style853-3">
	.st0{fill:#FFFFFF;}
</style></svg>
