<?xml version="1.0" encoding="UTF-8" standalone="no"?>
<svg
   xmlns:dc="http://purl.org/dc/elements/1.1/"
   xmlns:cc="http://creativecommons.org/ns#"
   xmlns:rdf="http://www.w3.org/1999/02/22-rdf-syntax-ns#"
   xmlns:svg="http://www.w3.org/2000/svg"
   xmlns="http://www.w3.org/2000/svg"
   xmlns:sodipodi="http://sodipodi.sourceforge.net/DTD/sodipodi-0.dtd"
   xmlns:inkscape="http://www.inkscape.org/namespaces/inkscape"
   width="192"
   height="192"
   viewBox="0 0 50.799999 50.800001"
   version="1.1"
   id="svg1498"
   inkscape:version="1.0.1 (3bc2e813f5, 2020-09-07)"
   sodipodi:docname="firefox_alt.svg"
   inkscape:export-filename="/home/jphilippe/inkscape/icônes/delta-github/png/firefox_alt.png"
   inkscape:export-xdpi="96"
   inkscape:export-ydpi="96">
  <defs
     id="defs1492" />
  <sodipodi:namedview
     id="base"
     pagecolor="#ffffff"
     bordercolor="#666666"
     borderopacity="1.0"
     inkscape:pageopacity="0.0"
     inkscape:pageshadow="2"
     inkscape:zoom="1.4"
     inkscape:cx="10.105611"
     inkscape:cy="53.300015"
     inkscape:document-units="px"
     inkscape:current-layer="layer1"
     inkscape:document-rotation="0"
     showgrid="false"
     units="px"
     inkscape:window-width="1680"
     inkscape:window-height="1022"
     inkscape:window-x="1920"
     inkscape:window-y="30"
     inkscape:window-maximized="1" />
  <metadata
     id="metadata1495">
    <rdf:RDF>
      <cc:Work
         rdf:about="">
        <dc:format>image/svg+xml</dc:format>
        <dc:type
           rdf:resource="http://purl.org/dc/dcmitype/StillImage" />
        <dc:title />
      </cc:Work>
    </rdf:RDF>
  </metadata>
  <g
     inkscape:label="Calque 1"
     inkscape:groupmode="layer"
     id="layer1">
    <path
       sodipodi:nodetypes="sccccccccccccccsccssccccccccccscscssccsscc"
       d="M 32.472402,1.9919823 C 26.772588,5.3301053 24.838947,11.505145 24.66125,14.594675 l -6.244825,2.406465 c -0.187599,-0.158426 -0.383732,-0.306477 -0.587506,-0.443491 -0.517174,-1.809383 -0.539143,-3.724424 -0.06361,-5.545199 -8.6e-5,3.5e-5 0,1.45e-4 0,1.45e-4 v -4.33e-4 c -2.33091,1.061315 -4.143823,2.739079 -5.461849,4.220445 H 12.29294 C 11.393439,14.093305 11.456851,10.334891 11.508112,9.5502111 11.4973,9.5015872 10.83707,9.8930162 10.750578,9.9520262 9.9569062,10.518565 9.2149268,11.154224 8.5333183,11.851567 c -0.7757398,0.786652 -1.484521,1.636623 -2.1189774,2.54108 -1.4590204,2.067623 -2.493787,4.403907 -3.0445055,6.873827 -0.010811,0.04919 -0.020037,0.100168 -0.030618,0.149736 -0.042669,0.199782 -0.1964072,1.199066 -0.223306,1.416219 -0.00202,0.01671 -0.00303,0.03271 -0.00505,0.04942 -0.1987424,1.033193 -0.3218194,2.079512 -0.3682652,3.130618 0,0.03871 -0.00231,0.077 -0.00231,0.115806 0,12.530047 10.1593888,22.687351 22.6904818,22.687351 11.222597,0 20.540916,-8.146928 22.365189,-18.848069 0.03843,-0.29042 0.06919,-0.582212 0.103083,-0.87518 0.451023,-3.890827 -0.05012,-7.980404 -1.47172,-11.400195 -0.986158,-2.372073 -2.983398,-4.933095 -4.551817,-5.742512 1.276495,2.50246 2.015189,5.012898 2.297481,6.886367 0,0.0037 0.0014,0.0127 0.0045,0.03762 C 41.611743,12.478668 37.261234,9.9001373 33.708694,4.2854888 33.529296,4.0015843 33.34951,3.7168134 33.174279,3.4167638 33.085049,3.2635676 33.0017,3.1070185 32.92442,2.9474581 32.776866,2.6624998 32.663058,2.3612998 32.585302,2.049966 c -0.0091,-0.033912 -0.02896,-0.054625 -0.05163,-0.060854 -0.01859,-0.0051 -0.0376,-0.00845 -0.06124,0.00277 z m 11.70369,16.8653767 c 0.0014,0.008 0.0025,0.0165 0.0037,0.02453 l -0.0014,-0.0024 z M 20.274805,35.451096 c 0.106124,0.0507 0.205834,0.106092 0.314784,0.154715 0.0045,0.0031 0.01067,0.0066 0.01531,0.0094 -0.110881,-0.053 -0.220913,-0.107715 -0.330093,-0.164118 z"
       style="fill:#f8c28d;fill-opacity:1;stroke-width:0.264582"
       id="path1986" />
    <path
       id="path1988"
       d="m 25.472898,21.767262 c -0.0371,0.564412 -2.031246,2.510768 -2.728582,2.510768 -6.452202,0 -7.499553,3.902629 -7.499553,3.902629 0.285796,3.286572 2.573835,5.992968 5.344913,7.425048 0.126421,0.06533 0.254356,0.124344 0.382378,0.182692 a 12.53524,12.53524 0 0 0 0.666472,0.272481 10.078099,10.078099 0 0 0 2.952436,0.569415 c 11.308987,0.530422 13.499968,-13.519606 5.338671,-17.59964 2.09006,-0.363496 4.259519,0.477077 5.471045,1.328131 -1.983835,-3.466339 -5.68847,-5.804988 -9.941849,-5.804988 -0.269088,0 -0.532598,0.02219 -0.79706,0.0405 a 11.353263,11.353263 0 0 0 -6.244767,2.40644 c 0.345936,0.292685 0.73643,0.683939 1.559163,1.494394 1.539154,1.516961 5.488329,3.08783 5.496733,3.272127 z"
       fill="url(#f)"
       style="fill:#bd9afe;fill-opacity:1;stroke-width:0.264582" />
  </g>
</svg>
