<?xml version="1.0" encoding="UTF-8" standalone="no"?>
<svg
   xmlns:dc="http://purl.org/dc/elements/1.1/"
   xmlns:cc="http://creativecommons.org/ns#"
   xmlns:rdf="http://www.w3.org/1999/02/22-rdf-syntax-ns#"
   xmlns:svg="http://www.w3.org/2000/svg"
   xmlns="http://www.w3.org/2000/svg"
   xmlns:sodipodi="http://sodipodi.sourceforge.net/DTD/sodipodi-0.dtd"
   xmlns:inkscape="http://www.inkscape.org/namespaces/inkscape"
   width="192"
   height="192"
   version="1.1"
   viewBox="0 0 192 192"
   id="svg14"
   sodipodi:docname="fish_out_of_water.svg"
   inkscape:version="0.92.5 (2060ec1f9f, 2020-04-08)">
  <metadata
     id="metadata20">
    <rdf:RDF>
      <cc:Work
         rdf:about="">
        <dc:format>image/svg+xml</dc:format>
        <dc:type
           rdf:resource="http://purl.org/dc/dcmitype/StillImage" />
        <dc:title></dc:title>
      </cc:Work>
    </rdf:RDF>
  </metadata>
  <defs
     id="defs18" />
  <sodipodi:namedview
     pagecolor="#ffffff"
     bordercolor="#666666"
     borderopacity="1"
     objecttolerance="10"
     gridtolerance="10"
     guidetolerance="10"
     inkscape:pageopacity="0"
     inkscape:pageshadow="2"
     inkscape:window-width="1280"
     inkscape:window-height="745"
     id="namedview16"
     showgrid="true"
     inkscape:snap-global="false"
     inkscape:zoom="1.7383042"
     inkscape:cx="146.87891"
     inkscape:cy="101.54468"
     inkscape:window-x="-12"
     inkscape:window-y="-2"
     inkscape:window-maximized="1"
     inkscape:current-layer="svg14">
    <inkscape:grid
       type="xygrid"
       id="grid827" />
  </sodipodi:namedview>
  <path
     style="opacity:1;fill:#e85e5c;stroke-width:4"
     d="m 48,120 c 0,0 -36,8 -36,32 16,4 36,0 36,0 0,0 -4,8.5 4,32.5 28,-12 28,-40.5 28,-40.5 z"
     id="path829"
     inkscape:connector-curvature="0"
     sodipodi:nodetypes="cccccc" />
  <path
     style="fill:#f4806d;stroke-width:3.88365579"
     d="m 151.234,135.66632 c 1.78062,-4.26712 7.07755,-7.58076 11.80674,-7.6648 5.8509,-0.104 14.73103,5.2092 14.95288,8.95732 0.26188,4.42508 -7.58532,16.11332 -14.71622,20.94456 -1.91568,1.29788 -4.82968,2.88336 -6.7921,1.65348 -5.11586,-3.20616 -8.39963,-16.34576 -5.2513,-23.89056 z"
     id="path837"
     inkscape:connector-curvature="0"
     sodipodi:nodetypes="ssssss" />
  <path
     style="fill:#f8c18c;stroke-width:4"
     d="m 88,40 c 0,0 -12,-4 -12,-8 0,-4 6.773748,-9.8352 12,-12 3.69552,-1.53072 12.2246,-4.72824 14.01346,-1.15056 C 106.01346,26.84944 104,32 104,32 c 0,0 1.62191,-7.06096 8,-19.9994 2.63758,-5.35052 14.26384,-6.65696 22.04037,0.0628 C 141.37905,18.405 148,24.27672 148,28 c 0,3.72328 -5.45055,5.83624 -7.42473,8.57528 C 138.6011,39.31428 136,44 136,44 Z"
     id="path839"
     inkscape:connector-curvature="0"
     sodipodi:nodetypes="cssscsssscc" />
  <path
     inkscape:connector-curvature="0"
     style="fill:#f4806d;stroke-width:4"
     d="M 102.38281,19.69532 C 100.57174,23.56048 97.229396,29.38532 92,32 c 4,4 11,4 11,4 l 1,-4 c 0,0 1.14084,-3.065722 0,-7.7422 -0.47929,-1.964662 -0.86133,-2.91244 -1.61719,-4.56248 z M 143.23438,20.45 C 142.27496,21.67608 139.38627,25.74248 136,28 c -12,8 -28,8 -28,8 L 124.41406,43.03124 136,44 c 0,0 2.60395,-4.68284 4.57812,-7.42188 C 142.5523,33.83912 148,31.72328 148,28 c 0,-1.97476 -1.92138,-4.82832 -4.76562,-7.55 z"
     id="path898"
     sodipodi:nodetypes="ccccscccccccsc" />
  <path
     style="opacity:1;fill:#f8c18c;stroke-width:4"
     d="M 40,136 C 36,128 36.4,56 48.4,44 52.4,40 76,32 80,32 c 36,0 60,8 60,8 2.78822,34.73636 20,65.10532 20,100 0,0 0,16 -44,16 -26.195844,0 -72,-12 -76,-20 z"
     id="path831"
     inkscape:connector-curvature="0"
     sodipodi:nodetypes="ssscccs" />
  <path
     inkscape:connector-curvature="0"
     style="fill:#f4806d;stroke-width:4"
     d="m 40,72 -0.1875,1.1328 C 36.681254,98.39604 37.391346,130.78268 40,136 c 4,8 49.804156,20 76,20 44,0 44,-16 44,-16 0,0 -81.933408,14.0666 -112,-16 -8,-8 -8,-52 -8,-52 z"
     id="path862" />
  <path
     style="fill:#f8c18c;stroke-width:4"
     d="m 20,92 c 0,4 1.793576,13.56928 4,20 2.902742,8.46016 4,16 14.4,23.6 5.6,0.4 12.024316,-3.07592 17.6,-7.6 3.733112,-3.02904 7.3619,-7.23512 8,-12 C 65.119304,107.64188 61.11862,98.70156 56,92 53.081936,88.17952 48.783544,84.87836 44,84.4 40,84 28.4,88 20,92 Z"
     id="path833"
     inkscape:connector-curvature="0"
     sodipodi:nodetypes="cscssssc" />
  <path
     style="opacity:1;fill:#fcecdc;stroke-width:4"
     d="m 80,132 c -4,-8 -4,-40 -4,-40 0,0 4,-40 16,-48 12,-8 32,-8 48,-4 11.64171,2.91044 24.17504,15.36704 28,28 3.94031,13.01396 -6.66015,26.4688 -8,40 -0.7883,7.96108 0.97747,16.05992 0,24 -0.6717,5.45628 1.36339,11.19324 -4,12.4 -16,3.6 -24,3.6 -42.8,0.8 C 99.43146,143.14936 84,140 80,132 Z"
     id="path835"
     inkscape:connector-curvature="0"
     sodipodi:nodetypes="scssssssss" />
  <circle
     style="opacity:1;vector-effect:none;fill:#ffffff;fill-opacity:1;stroke-width:4;paint-order:stroke fill markers"
     id="path841"
     cx="110"
     cy="86"
     r="30" />
  <path
     style="opacity:1;fill:#ffffff;stroke-width:4"
     d="m 140,96 c 0,-12 6.3852,-24 16,-24 16,0 24.47175,15.71632 24,28 -0.50654,13.1896 -8,28 -28,28 -12,0 -12,-20.608 -12,-32 z"
     id="path843"
     inkscape:connector-curvature="0"
     sodipodi:nodetypes="sssss" />
  <path
     style="color:#000000;font-style:normal;font-variant:normal;font-weight:normal;font-stretch:normal;font-size:medium;line-height:normal;font-family:sans-serif;font-variant-ligatures:normal;font-variant-position:normal;font-variant-caps:normal;font-variant-numeric:normal;font-variant-alternates:normal;font-feature-settings:normal;text-indent:0;text-align:start;text-decoration:none;text-decoration-line:none;text-decoration-style:solid;text-decoration-color:#000000;letter-spacing:normal;word-spacing:normal;text-transform:none;writing-mode:lr-tb;direction:ltr;text-orientation:mixed;dominant-baseline:auto;baseline-shift:baseline;text-anchor:start;white-space:normal;shape-padding:0;clip-rule:nonzero;display:inline;overflow:visible;visibility:visible;opacity:1;isolation:auto;mix-blend-mode:normal;color-interpolation:sRGB;color-interpolation-filters:linearRGB;solid-color:#000000;solid-opacity:1;vector-effect:none;fill:#4a4a4a;fill-opacity:1;fill-rule:nonzero;stroke:none;stroke-width:4px;stroke-linecap:round;stroke-linejoin:round;stroke-miterlimit:4;stroke-dasharray:none;stroke-dashoffset:0;stroke-opacity:1;color-rendering:auto;image-rendering:auto;shape-rendering:auto;text-rendering:auto;enable-background:accumulate"
     d="m 112.32031,75.73436 c -2.81792,-0.2512 -5.28818,0.60056 -7.17969,1.96096 -1.8915,1.3604 -3.25783,3.17776 -4.27343,4.95312 -2.031202,3.55072 -2.726566,7.1328 -2.726566,7.1328 a 2.0002,2.0002 0 1 0 3.914066,0.78908 c 0,0 0.63959,-3.05408 2.28906,-5.93752 0.82473,-1.44172 1.88722,-2.79164 3.13281,-3.68748 1.2456,-0.89584 2.62518,-1.39296 4.49219,-1.22656 2.63597,0.2348 4.06129,1.11676 5.03906,2.28124 0.97777,1.16444 1.50307,2.75748 1.70313,4.46092 0.40011,3.40696 -0.54688,6.91408 -0.54688,6.91408 a 2.0008605,2.0008605 0 1 0 3.85156,1.08592 c 0,0 1.18269,-4.05276 0.66407,-8.46872 -0.25932,-2.208 -0.95249,-4.58928 -2.60938,-6.56252 -1.65688,-1.97324 -4.27895,-3.38596 -7.75,-3.69532 z"
     id="path845"
     inkscape:connector-curvature="0" />
  <path
     style="color:#000000;font-style:normal;font-variant:normal;font-weight:normal;font-stretch:normal;font-size:medium;line-height:normal;font-family:sans-serif;font-variant-ligatures:normal;font-variant-position:normal;font-variant-caps:normal;font-variant-numeric:normal;font-variant-alternates:normal;font-feature-settings:normal;text-indent:0;text-align:start;text-decoration:none;text-decoration-line:none;text-decoration-style:solid;text-decoration-color:#000000;letter-spacing:normal;word-spacing:normal;text-transform:none;writing-mode:lr-tb;direction:ltr;text-orientation:mixed;dominant-baseline:auto;baseline-shift:baseline;text-anchor:start;white-space:normal;shape-padding:0;clip-rule:nonzero;display:inline;overflow:visible;visibility:visible;opacity:1;isolation:auto;mix-blend-mode:normal;color-interpolation:sRGB;color-interpolation-filters:linearRGB;solid-color:#000000;solid-opacity:1;vector-effect:none;fill:#4a4a4a;fill-opacity:1;fill-rule:nonzero;stroke:none;stroke-width:4px;stroke-linecap:round;stroke-linejoin:round;stroke-miterlimit:4;stroke-dasharray:none;stroke-dashoffset:0;stroke-opacity:1;color-rendering:auto;image-rendering:auto;shape-rendering:auto;text-rendering:auto;enable-background:accumulate"
     d="m 160.35938,90.03124 c -2.56967,-0.46484 -4.91895,0.318 -6.60938,1.65624 -1.69043,1.3382 -2.8333,3.1378 -3.67969,4.89844 -1.69277,3.52132 -2.22656,7.1094 -2.22656,7.1094 a 2.0002,2.0002 0 1 0 3.95313,0.60936 c 0,0 0.5071,-3.14668 1.875,-5.9922 0.68394,-1.42272 1.57663,-2.71792 2.55468,-3.49216 0.97806,-0.77428 1.92844,-1.12032 3.41406,-0.85156 1.78241,0.3224 2.73688,1.05604 3.45313,2.07812 0.71625,1.02208 1.13103,2.41964 1.29687,3.875 0.33168,2.91068 -0.32032,5.79688 -0.32032,5.79688 a 2.0002,2.0002 0 1 0 3.89063,0.92188 c 0,0 0.8282,-3.40044 0.39844,-7.17188 -0.21488,-1.88572 -0.73893,-3.9304 -1.99219,-5.71876 -1.25326,-1.78836 -3.29965,-3.22884 -6.00781,-3.71876 z"
     id="path845-3"
     inkscape:connector-curvature="0" />
  <path
     inkscape:connector-curvature="0"
     style="fill:#f4806d;stroke-width:4"
     d="M 63.671876,108.30468 C 62.74374,109.222 47.634024,124 36,124 c -2.431691,0 -7.617339,-5.7382 -11.46875,-10.375 2.535275,7.79548 4.15025,14.87572 13.867188,21.97656 5.599998,0.4 12.025878,-3.07748 17.601562,-7.60156 2.112704,-1.71424 4.17262,-3.81572 5.695312,-6.17188 l 2.125,-12.77344 c -0.04108,-0.2508 -0.1004,-0.49968 -0.148436,-0.75 z"
     id="path880" />
</svg>
