<?xml version="1.0" encoding="UTF-8" standalone="no"?>
<svg
   sodipodi:docname="fitatu.svg"
   inkscape:version="1.2 (dc2aedaf03, 2022-05-15)"
   version="1.1"
   id="svg2"
   viewBox="0 0 192 192"
   height="192"
   width="192"
   inkscape:export-filename="/home/jphilippe/inkscape/icônes/delta-github/png/entrernom.png"
   inkscape:export-xdpi="96"
   inkscape:export-ydpi="96"
   xml:space="preserve"
   xmlns:inkscape="http://www.inkscape.org/namespaces/inkscape"
   xmlns:sodipodi="http://sodipodi.sourceforge.net/DTD/sodipodi-0.dtd"
   xmlns="http://www.w3.org/2000/svg"
   xmlns:svg="http://www.w3.org/2000/svg"
   xmlns:rdf="http://www.w3.org/1999/02/22-rdf-syntax-ns#"
   xmlns:cc="http://creativecommons.org/ns#"
   xmlns:dc="http://purl.org/dc/elements/1.1/"><sodipodi:namedview
     inkscape:document-rotation="0"
     inkscape:window-maximized="1"
     inkscape:window-y="0"
     inkscape:window-x="36"
     inkscape:window-height="1052"
     inkscape:window-width="1884"
     units="px"
     showgrid="false"
     inkscape:current-layer="layer1"
     inkscape:document-units="px"
     inkscape:cy="84.145707"
     inkscape:cx="117.37973"
     inkscape:zoom="1.4142136"
     inkscape:pageshadow="2"
     inkscape:pageopacity="0.0"
     borderopacity="1.0"
     bordercolor="#666666"
     pagecolor="#ffffff"
     id="base"
     inkscape:snap-bbox="false"
     inkscape:object-paths="true"
     inkscape:snap-nodes="true"
     showguides="true"
     inkscape:guide-bbox="true"
     inkscape:snap-object-midpoints="true"
     inkscape:snap-center="true"
     inkscape:snap-global="false"
     inkscape:snap-intersection-paths="true"
     inkscape:snap-smooth-nodes="true"
     inkscape:snap-midpoints="true"
     inkscape:showpageshadow="0"
     inkscape:pagecheckerboard="0"
     inkscape:deskcolor="#d1d1d1" /><defs
     id="defs4" /><metadata
     id="metadata7"><rdf:RDF><cc:Work
         rdf:about=""><dc:format>image/svg+xml</dc:format><dc:type
           rdf:resource="http://purl.org/dc/dcmitype/StillImage" /></cc:Work></rdf:RDF></metadata><g
     transform="translate(0,-860.36216)"
     id="layer1"
     inkscape:groupmode="layer"
     inkscape:label="Calque 1"><rect
       style="fill:#ffffff;fill-opacity:1;fill-rule:evenodd;stroke:none;stroke-width:0.993464;stroke-opacity:1"
       width="152"
       height="152"
       x="20"
       y="880.36218"
       rx="9.9346409"
       id="rect2248"
       ry="9.9346409" /><path
       style="clip-rule:evenodd;fill:#56595b;fill-opacity:1;fill-rule:evenodd;stroke-width:4.43042;image-rendering:optimizeQuality;shape-rendering:geometricPrecision;text-rendering:geometricPrecision"
       d="m 72.505414,957.73337 v 35.12879 h 11.5501 V 957.72894 H 72.509845 Z"
       id="path2213" /><path
       style="clip-rule:evenodd;fill:#56595b;fill-opacity:1;fill-rule:evenodd;stroke-width:4.43042;image-rendering:optimizeQuality;shape-rendering:geometricPrecision;text-rendering:geometricPrecision"
       d="m 99.783498,922.61345 a 14.797596,14.797596 0 0 0 -3.119015,-1.55065 c -2.170904,-0.78861 -4.700669,-1.20064 -7.589304,-1.20064 -2.556347,0 -4.860172,0.41203 -6.880443,1.21393 -2.011401,0.79748 -3.783571,2.06015 -5.236754,3.70827 a 16.609637,16.609637 0 0 0 -3.331673,5.83929 c -0.739873,2.24179 -1.120895,4.82029 -1.120895,7.70006 v 9.18426 h 11.5501 v -9.27729 c 0,-1.18292 0.150633,-2.25509 0.429756,-3.1899 a 6.6013228,6.6013228 0 0 1 1.275958,-2.39686 c 0.513924,-0.60254 1.165199,-1.09432 1.909512,-1.40445 0.753164,-0.31455 1.639249,-0.48734 2.636094,-0.48734 1.617107,0 3.074711,0.36329 4.36396,1.10317 z"
       id="path2215" /><path
       style="clip-rule:evenodd;fill:#56595b;fill-opacity:1;fill-rule:evenodd;stroke-width:4.43042;image-rendering:optimizeQuality;shape-rendering:geometricPrecision;text-rendering:geometricPrecision"
       d="m 112.67602,941.35412 c 1.89621,0 3.49117,-0.68672 4.82915,-1.98926 0.64242,-0.62912 1.16077,-1.32912 1.4842,-2.11331 a 6.8228437,6.8228437 0 0 0 0.50506,-2.62281 c 0,-1.79874 -0.64241,-3.43357 -1.98926,-4.82915 a 6.4595495,6.4595495 0 0 0 -4.82915,-1.98483 6.3886628,6.3886628 0 0 0 -4.73612,1.98926 6.8095525,6.8095525 0 0 0 -1.98483,4.82915 c 0,0.94368 0.17722,1.81647 0.50507,2.61395 0.32342,0.78862 0.83734,1.49748 1.48419,2.11774 0.66457,0.64685 1.39115,1.15191 2.19306,1.48419 0.78418,0.32342 1.63925,0.50507 2.53863,0.50507 z"
       id="path2217" /><path
       style="clip-rule:evenodd;fill:#56595b;fill-opacity:1;fill-rule:evenodd;stroke-width:4.43042;image-rendering:optimizeQuality;shape-rendering:geometricPrecision;text-rendering:geometricPrecision"
       d="m 106.99622,992.86216 h 11.5501 v -45.35419 h -11.5501 z"
       id="path2219" /><path
       data-v-34a9d5f9=""
       id="path2221"
       fill="#24bd31"
       d="m 72.505414,947.50797 h 7.971692 v 10.2254 h -7.971692 z"
       style="clip-rule:evenodd;fill:#97db99;fill-opacity:1;fill-rule:evenodd;stroke-width:2.55788;image-rendering:optimizeQuality;shape-rendering:geometricPrecision;text-rendering:geometricPrecision" /><path
       data-v-34a9d5f9=""
       id="path2223"
       fill="#24bd31"
       d="m 80.477267,947.50797 h 7.971692 v 10.2254 h -7.971692 z"
       style="clip-rule:evenodd;fill:#f8c18c;fill-opacity:1;fill-rule:evenodd;stroke-width:2.55788;image-rendering:optimizeQuality;shape-rendering:geometricPrecision;text-rendering:geometricPrecision" /><path
       data-v-34a9d5f9=""
       id="path2225"
       fill="#24bd31"
       d="m 88.449121,947.50797 h 7.971691 v 10.2254 h -7.971691 z"
       style="clip-rule:evenodd;fill:#ff837d;fill-opacity:1;fill-rule:evenodd;stroke-width:2.55788;image-rendering:optimizeQuality;shape-rendering:geometricPrecision;text-rendering:geometricPrecision" /></g><style
     type="text/css"
     id="style853">
	.st0{fill:#FFFFFF;}
</style><style
     type="text/css"
     id="style853-9">
	.st0{fill:#FFFFFF;}
</style><style
     type="text/css"
     id="style853-3">
	.st0{fill:#FFFFFF;}
</style></svg>
