<svg xmlns="http://www.w3.org/2000/svg" id="svg16" version="1.1" viewBox="0 0 192 192"><defs id="defs4"><style id="style2">.a{fill:none;stroke:#b1b5bd;stroke-linecap:round;stroke-linejoin:round;isolation:isolate;opacity:.63}</style></defs><path id="path852" d="m39.406 78.815 9.78 6.616 4.17-12.656-11.073-7.047Z" style="fill:#56595b;stroke:none;stroke-width:1px;stroke-linecap:butt;stroke-linejoin:miter;stroke-opacity:1"/><path id="path846" d="M96 8s-28 0-28 4c4 16 4 32 4 32h48s0-16 4-32c0-4-28-4-28-4z" style="fill:#4a4a4a;stroke:none;stroke-width:1px;stroke-linecap:butt;stroke-linejoin:miter;stroke-opacity:1"/><path id="path844" d="M96 36c-32 0-32 8-32 8v16h64V44s0-8-32-8z" style="fill:#56595b;stroke:none;stroke-width:1px;stroke-linecap:butt;stroke-linejoin:miter;stroke-opacity:1"/><path id="path852-3" d="m152.594 78.815-9.78 6.616-4.17-12.656 11.073-7.047z" style="fill:#56595b;stroke:none;stroke-width:1px;stroke-linecap:butt;stroke-linejoin:miter;stroke-opacity:1"/><path id="path842" d="M91.291 47.8c-8.68-.054-27.056 1.352-35.201 13.47-7.341 10.922-10.34 23.285-13.088 37.248C41.449 106.41 32 106.634 32 120c0 16.082 16 17.833 16 23.596V160s0 24 48 24 48-24 48-24v-16.404c0-5.763 16-7.514 16-23.596 0-13.366-9.449-13.589-11.002-21.482-2.748-13.963-5.747-26.326-13.088-37.248C125.05 45.112 96 48 96 48s-1.816-.18-4.709-.2z" style="fill:#8e6f60;stroke:none;stroke-width:1px;stroke-linecap:butt;stroke-linejoin:miter;stroke-opacity:1;opacity:1"/><path id="path848" d="M8.72 59.712c-1.811 7.208 2.757 22.825 14.417 26.994 4.563 1.63 11.197 1.937 15.262-.7 3.65-2.367 5.262-7.046 6.904-11.074 2.02-4.955 4.134-11.088 2.732-16.252-1.146-4.223-5.4-7.096-9.636-8.197-10.802-2.81-27.27-.369-29.68 9.23Z" style="fill:#8e6f60;stroke:none;stroke-width:1px;stroke-linecap:butt;stroke-linejoin:miter;stroke-opacity:1"/><path id="path850" d="M15.1 64.146c1.507-7.562 15.868-9.372 20.998-8.342 7.411 1.488 6.753 10.586 5.465 16.108-1.232 5.282-7.187 11.934-12.224 9.923-9.39-3.749-15.51-11.302-14.238-17.69Z" style="fill:#000;stroke:none;stroke-width:1px;stroke-linecap:butt;stroke-linejoin:miter;stroke-opacity:1;opacity:.25"/><path id="path856" d="M62.561 76 64 84s7.279-3.582 11.217-4.322c5.42-1.019 11.65 0 11.65 0l1.725-3.452s-7.525-4.281-15.82-4.027C66.56 72.39 62.561 76 62.561 76Z" style="fill:#56595b;stroke:none;stroke-width:1px;stroke-linecap:butt;stroke-linejoin:miter;stroke-opacity:1"/><rect id="rect858" width="2.949" height="2.949" x="58.475" y="115.831" ry="1.475" style="opacity:1;vector-effect:none;fill:#56595b;fill-opacity:1;fill-rule:evenodd;stroke:none;paint-order:stroke fill markers"/><rect id="rect860" width="2.847" height="2.847" x="66" y="115.627" ry="1.424" style="opacity:1;vector-effect:none;fill:#56595b;fill-opacity:1;fill-rule:evenodd;stroke:none;paint-order:stroke fill markers"/><rect id="rect862" width="3.356" height="3.356" x="59.695" y="122.237" ry="1.424" style="opacity:1;vector-effect:none;fill:#56595b;fill-opacity:1;fill-rule:evenodd;stroke:none;paint-order:stroke fill markers"/><path id="path864" d="M48 142.475s-2.621-8.776 0-18.475c4-14.802 20-17.322 20-17.322s-15.51 6.187-17.864 19.83c-1.873 10.855 1.11 12.595 5.864 15.255C60 144 77.314 143.627 88 144c2.665.093 8 0 8 0v12s-18.004-.814-24-1.932c-5.996-1.118-8.803-3.459-12-3.56-3.197-.1-4.251-.043-6.508 1.492-2.258 1.535-5.492 8-5.492 8Z" style="fill:#000;stroke:none;stroke-width:1px;stroke-linecap:butt;stroke-linejoin:miter;stroke-opacity:1;opacity:.25"/><path id="path866" d="M53.787 140.459v11.352c2.054-1.337 3.164-1.4 6.213-1.303 3.197.1 6.004 2.442 12 3.56C77.996 155.186 96 156 96 156v-12s-5.335.093-8 0c-10.686-.373-28 .001-32-2.236a41.039 41.039 0 0 1-2.213-1.305z" style="fill:#4a4a4a;stroke:none;stroke-width:1px;stroke-linecap:butt;stroke-linejoin:miter;stroke-opacity:1"/><path id="rect868" d="M64.93 145.834a1.42 1.42 0 0 0-1.424 1.424v4.086c.897.337 1.858.738 2.95 1.148v-5.234a1.42 1.42 0 0 0-1.425-1.424h-.101zm6.787.863a2.425 2.425 0 0 0-2.432 2.43v4.291c.837.237 1.719.465 2.715.65 1.825.34 4.795.647 8 .916v-5.857a2.424 2.424 0 0 0-2.43-2.43h-5.853zM85.307 148a2.425 2.425 0 0 0-2.432 2.43v4.785c4.294.317 8.26.54 10.715.666v-5.451a2.424 2.424 0 0 0-2.43-2.43h-5.853z" style="opacity:1;vector-effect:none;fill:#fff;fill-opacity:1;fill-rule:evenodd;stroke:none;paint-order:stroke fill markers"/><rect id="rect920" width="23.874" height="23.874" x="64.287" y="83.849" ry="11.937" style="opacity:1;vector-effect:none;fill:#4a4a4a;fill-opacity:1;fill-rule:evenodd;stroke:none;paint-order:stroke fill markers"/><rect id="rect922" width="17.833" height="17.833" x="67.019" y="88.091" ry="8.593" style="opacity:1;vector-effect:none;fill:#fff;fill-opacity:1;fill-rule:evenodd;stroke:none;paint-order:stroke fill markers"/><path id="path924" d="M65.725 97.44s3.066-3.403 9.06-4.818c5.995-1.416 11.506.719 11.506.719l-7.407-7.407-7.694 1.438-5.393 5.825z" style="fill:#4a4a4a;stroke:none;stroke-width:1px;stroke-linecap:butt;stroke-linejoin:miter;stroke-opacity:1"/><rect id="rect926" width="8.989" height="8.989" x="73.204" y="93.916" ry="4.494" style="opacity:1;vector-effect:none;fill:#728dbe;fill-opacity:1;fill-rule:evenodd;stroke:none;paint-order:stroke fill markers"/><rect id="rect928" width="4.027" height="4.027" x="75.792" y="96.361" ry="2.013" style="opacity:1;vector-effect:none;fill:#56595b;fill-opacity:1;fill-rule:evenodd;stroke:none;paint-order:stroke fill markers"/><path id="path848-7" d="M183.28 59.712c1.811 7.208-2.757 22.825-14.417 26.994-4.563 1.63-11.197 1.937-15.263-.7-3.649-2.367-5.26-7.046-6.903-11.074-2.02-4.955-4.134-11.088-2.732-16.252 1.146-4.223 5.4-7.096 9.636-8.197 10.802-2.81 27.27-.369 29.68 9.23z" style="fill:#8e6f60;stroke:none;stroke-width:1px;stroke-linecap:butt;stroke-linejoin:miter;stroke-opacity:1"/><path id="path850-9" d="M176.9 64.146c-1.507-7.562-15.868-9.372-20.998-8.342-7.411 1.488-6.753 10.586-5.465 16.108 1.231 5.282 7.187 11.934 12.224 9.923 9.39-3.749 15.51-11.302 14.238-17.69z" style="opacity:.25;fill:#000;stroke:none;stroke-width:1px;stroke-linecap:butt;stroke-linejoin:miter;stroke-opacity:1"/><path id="path856-9" d="M129.439 76 128 84s-7.279-3.582-11.217-4.322c-5.42-1.019-11.65 0-11.65 0l-1.725-3.452s7.525-4.281 15.82-4.027c6.213.19 10.211 3.801 10.211 3.801Z" style="fill:#56595b;stroke:none;stroke-width:1px;stroke-linecap:butt;stroke-linejoin:miter;stroke-opacity:1"/><rect id="rect858-7" width="2.949" height="2.949" x="-133.525" y="115.831" ry="1.475" style="opacity:1;vector-effect:none;fill:#56595b;fill-opacity:1;fill-rule:evenodd;stroke:none;paint-order:stroke fill markers" transform="scale(-1 1)"/><rect id="rect860-7" width="2.847" height="2.847" x="-126" y="115.627" ry="1.424" style="opacity:1;vector-effect:none;fill:#56595b;fill-opacity:1;fill-rule:evenodd;stroke:none;paint-order:stroke fill markers" transform="scale(-1 1)"/><rect id="rect862-4" width="3.356" height="3.356" x="-132.305" y="122.237" ry="1.424" style="opacity:1;vector-effect:none;fill:#56595b;fill-opacity:1;fill-rule:evenodd;stroke:none;paint-order:stroke fill markers" transform="scale(-1 1)"/><path id="path864-7" d="M144 142.475s2.621-8.776 0-18.475c-4-14.802-20-17.322-20-17.322s15.51 6.187 17.864 19.83c1.873 10.855-1.11 12.595-5.864 15.255-4 2.237-21.314 1.864-32 2.237-2.665.093-8 0-8 0v12s18.004-.814 24-1.932c5.996-1.118 8.803-3.459 12-3.56 3.197-.1 4.251-.043 6.508 1.492 2.258 1.535 5.492 8 5.492 8z" style="opacity:.25;fill:#000;stroke:none;stroke-width:1px;stroke-linecap:butt;stroke-linejoin:miter;stroke-opacity:1"/><path id="path866-8" d="M138.213 140.459v11.352c-2.054-1.337-3.164-1.4-6.213-1.303-3.197.1-6.004 2.442-12 3.56-5.996 1.118-24 1.932-24 1.932v-12s5.335.093 8 0c10.686-.373 28 .001 32-2.236a41.036 41.036 0 0 0 2.213-1.305z" style="fill:#4a4a4a;stroke:none;stroke-width:1px;stroke-linecap:butt;stroke-linejoin:miter;stroke-opacity:1"/><path id="rect868-4" d="M127.07 145.834a1.42 1.42 0 0 1 1.424 1.424v4.086c-.897.337-1.858.738-2.95 1.148v-5.234a1.42 1.42 0 0 1 1.425-1.424zm-6.787.863a2.425 2.425 0 0 1 2.432 2.43v4.291c-.837.237-1.719.465-2.715.65-1.825.34-4.795.647-8 .916v-5.857a2.424 2.424 0 0 1 2.43-2.43zM106.693 148a2.425 2.425 0 0 1 2.432 2.43v4.785c-4.294.317-8.26.54-10.715.666v-5.451a2.424 2.424 0 0 1 2.43-2.43z" style="opacity:1;vector-effect:none;fill:#fff;fill-opacity:1;fill-rule:evenodd;stroke:none;paint-order:stroke fill markers"/><rect id="rect920-0" width="23.874" height="23.874" x="-127.713" y="83.849" ry="11.937" style="opacity:1;vector-effect:none;fill:#4a4a4a;fill-opacity:1;fill-rule:evenodd;stroke:none;paint-order:stroke fill markers" transform="scale(-1 1)"/><rect id="rect922-3" width="17.833" height="17.833" x="-124.981" y="88.091" ry="8.593" style="opacity:1;vector-effect:none;fill:#fff;fill-opacity:1;fill-rule:evenodd;stroke:none;paint-order:stroke fill markers" transform="scale(-1 1)"/><path id="path924-4" d="M126.275 97.44s-3.066-3.403-9.06-4.818c-5.995-1.416-11.506.719-11.506.719l7.407-7.407 7.694 1.438 5.393 5.825z" style="fill:#4a4a4a;stroke:none;stroke-width:1px;stroke-linecap:butt;stroke-linejoin:miter;stroke-opacity:1"/><rect id="rect926-2" width="8.989" height="8.989" x="-118.796" y="93.916" ry="4.494" style="opacity:1;vector-effect:none;fill:#728dbe;fill-opacity:1;fill-rule:evenodd;stroke:none;paint-order:stroke fill markers" transform="scale(-1 1)"/><rect id="rect928-1" width="4.027" height="4.027" x="-116.208" y="96.361" ry="2.013" style="opacity:1;vector-effect:none;fill:#56595b;fill-opacity:1;fill-rule:evenodd;stroke:none;paint-order:stroke fill markers" transform="scale(-1 1)"/><path id="path854" d="M96 100c-8 0-16.037 2.888-16.037 5.854C79.963 108.819 90.275 112 96 112s16.037-3.18 16.037-6.146C112.037 102.888 104 100 96 100Z" style="fill:#56595b;stroke:none;stroke-width:1px;stroke-linecap:butt;stroke-linejoin:miter;stroke-opacity:1"/></svg>