<svg width="192" height="192" version="1.1" viewBox="0 0 192 192" xmlns="http://www.w3.org/2000/svg">
 <circle cx="96" cy="96" r="88" opacity=".63" style="fill:#98dc9a;opacity:1"/>
 <path d="m100 92v-12h4v-4h8v4h4v4h4v12h-16v-4z" style="fill:#fff"/>
 <path d="m88 72v4h12v4h4v-4h8v-4zm24 4v4h4v-4zm4 4v4h4v-4zm4 4v12h-16v4h24v-4h-4v-12zm8 16v4h4v-4zm0 4h-24v4h20v4h4zm-4 8h-20v4h20zm-20 4h-20v4h20zm-20 0v-4h-8v4zm-8-4v-4h8v-4h-12v8zm-4-8v-4h-4v4zm-4-4v-12h-4v12zm0-12h16v-4h-4v-4h-4v4h-8zm12-8h8v-4h-8zm4 8v4h4v-4zm4 4v8h4v-8zm0 8h-4v4h4zm16 12v-4h-4v4zm-4-4v-4h-4v4zm0-4h4v-4h-4zm4-8v-4h-4v4zm-4-4v-12h-4v12zm16-8h-4v8h4z" style="fill:#56595b;paint-order:stroke fill markers"/>
 <path d="m100 84v8h4v-8zm4 8v4h4v-4z" style="fill:#ececec;paint-order:stroke fill markers"/>
 <path d="m104 100v4h24v-4zm0 4h-4v4h4zm0 4v4h20v-4z" style="fill:#ff837d;paint-order:stroke fill markers"/>
 <path d="m68 100v-12h16v4h4v8h-4v4h-12v-4z" style="fill:#fff"/>
 <path d="m68 96v4h4v-4zm4 4v4h12v-4zm12 0h4v-4h-4z" style="fill:#f9de81;paint-order:stroke fill markers"/>
 <path d="m80 84v-4h8v-4h12v4h-4v12h4v4h4v4h-4v4h-4v4h4v4h4v4h-20v-4h-8v-4h8v-4h4v-4h4v-8h-4v-4h-4v-4z" style="fill:#f9de81"/>
 <path d="m84 104h12v4h4v4h4v4h-20v-4h-8v-4h8z" style="fill:#c39a54"/>
</svg>
