<svg xmlns="http://www.w3.org/2000/svg" width="192" height="192"><g style="display:inline" transform="translate(0 -860.362)"><circle cx="96" cy="956.362" r="88" style="fill:#9abeff;fill-opacity:1;stroke:none;stroke-width:9.9435;stroke-linecap:round;stroke-linejoin:round;stroke-miterlimit:4;stroke-dasharray:none;stroke-opacity:1"/><path d="M67.317 990.714c-5.297-.614-9.696-2.966-11.144-5.959-1.219-2.517-1.08-6.052.353-9.05 1.021-2.136 3.422-4.572 5.639-5.721 4.517-2.344 10.996-3.676 17.875-3.676 4.887 0 7.684.322 25.424 2.922 19.771 2.898 28.962 1.972 34.684-3.494 1.591-1.52 1.752-1.62 2.22-1.372 2.533 1.341 3.845 3.937 3.604 7.129-.067.883-.266 1.826-.442 2.095-.463.706-2.587 1.77-4.84 2.422-8.41 2.437-22.149 1.963-44.17-1.525-7.095-1.124-9.937-1.424-14.833-1.563-8.258-.234-13.727.85-17.078 3.389-1.733 1.312-2.609 2.713-2.724 4.357-.108 1.553.438 2.458 2.079 3.441C67 985.93 72 985.786 76.01 983.762c2.594-1.309 5.936-4.37 7.85-7.187.81-1.195.983-1.337 1.499-1.24.32.062 1.662.228 2.982.37 1.32.143 2.48.332 2.58.422.22.198-.907 2.474-2.105 4.251-3.558 5.278-10.661 9.644-16.846 10.352-2.175.25-2.372.249-4.653-.015zM46.047 974.2c-.062-.1.526-2.283 1.305-4.854 2.758-9.103 5.8-19.649 5.696-19.752-.058-.058-1.414.145-3.013.452-3.218.616-3.81.665-4.019.328-.077-.125.131-1.116.464-2.202.452-1.471.72-2.015 1.056-2.137.247-.089 1.945-.44 3.772-.78l3.322-.617.346-1.217c1.839-6.46 4.221-13.34 5.407-15.613.84-1.61 2.683-3.5 4.322-4.432 1.458-.829 4.164-1.567 5.749-1.567 1.354 0 4.09.669 5.336 1.305 1.365.697 2.637 1.954 3.203 3.167 1.21 2.594.184 5.813-2.198 6.895-1.706.774-4.246.392-4.985-.752-.88-1.358-.675-2.907.54-4.086.769-.747.815-.85.46-1.036-2.136-1.12-4.66.164-6.229 3.168-1.206 2.312-4.768 12.329-4.484 12.612.043.043 1.057-.112 2.254-.344 2.484-.482 3.074-.518 3.273-.196.078.126-.13 1.117-.464 2.203-.45 1.465-.721 2.016-1.055 2.14-.248.092-1.638.385-3.089.651l-2.638.483-.89 2.873a1059.7 1059.7 0 0 0-3.006 10.072c-1.165 3.96-2.34 7.64-2.612 8.18-1.089 2.162-3.202 3.951-5.663 4.798-1.366.47-1.984.544-2.16.258zm65.743-6.39c-2.916-.39-2.822-.354-2.627-1.017.097-.327 1.67-5.698 3.495-11.937 1.826-6.238 3.401-11.429 3.5-11.534.19-.2 5.217-1.222 6.03-1.225.627 0 .723.367.364 1.396-.163.469-.27.877-.24.907.032.03.695-.325 1.475-.79 1.913-1.14 3.942-1.66 5.16-1.323 1.697.47 2.939 1.51 3.782 3.168.753 1.482.765 1.546.75 4.145-.04 7.317-3.565 12.627-9.276 13.973-2.76.65-4.606.341-5.944-.997-.467-.466-.872-.848-.901-.848-.029 0-.476 1.423-.995 3.163l-.942 3.163-1.107-.028a28.593 28.593 0 0 1-2.524-.216zm11.343-7.787c2.671-1.223 5.024-5.692 5.012-9.52-.01-3.513-2.201-5.353-4.847-4.072-1.794.869-1.965 1.194-3.531 6.745-1.321 4.68-1.41 5.127-1.129 5.672.873 1.687 2.467 2.104 4.495 1.175zm-32.72 4.858c-1.26-.152-2.36-.286-2.444-.297-.084-.012-.01-.487.163-1.057.174-.57 1.556-5.306 3.071-10.525 1.515-5.218 2.876-9.588 3.026-9.71.149-.121 1.616-.459 3.26-.75 3.401-.601 3.566-.551 3.043.93-.17.48-.28.9-.246.935.034.034.532-.23 1.105-.587 2.705-1.684 4.901-2.009 6.832-1.011 3.003 1.552 3.985 5.097 2.905 10.486-1.1 5.483-4.192 9.07-8.871 10.29-2.593.675-4.7.32-6.035-1.014-.47-.47-.877-.827-.904-.794-.027.033-.273.82-.546 1.75l-.496 1.69-.787-.03c-.432-.016-1.816-.155-3.076-.307zm10.038-4.593c2.257-.67 4.734-3.985 5.455-7.3.348-1.602.193-4.236-.31-5.272-.778-1.6-2.599-2.123-4.384-1.258-1.684.815-1.9 1.226-3.375 6.435-.747 2.64-1.36 5.02-1.364 5.288-.014 1.009 1.32 2.22 2.68 2.436.068.012.652-.137 1.298-.329zm-30.158 1.877c-1.038-.313-2.09-1.086-2.6-1.91-.803-1.3-.671-3.037.51-6.707.54-1.68 1.847-6.097 2.906-9.816 1.059-3.72 1.982-6.831 2.053-6.915.117-.141 5.483-1.263 6.048-1.264.137 0 .302.135.366.303.064.167-.76 3.284-1.832 6.926-3.4 11.553-4.595 15.884-4.524 16.385.063.442.178.484 1.215.44.982-.04 1.145.013 1.145.353 0 .625-.86 1.565-1.837 2.008-.926.42-2.423.506-3.45.197zm11.094-.104c-1.867-.665-2.958-2.546-2.675-4.611.076-.55.525-2.213.998-3.694.474-1.482 1.32-4.344 1.881-6.36.56-2.015 1.13-3.779 1.267-3.918.136-.14 1.519-.508 3.073-.82 2.303-.462 2.878-.515 3.107-.286.228.228-.144 1.754-2.013 8.236-1.261 4.376-2.243 8.167-2.181 8.423.144.601.624.778 1.355.5.686-.26 1.16-.127 1.16.328 0 .501-1.327 1.898-2.116 2.228-.9.376-2.765.363-3.856-.026zm4.99-22.117c-1.04-.642-1.461-1.251-1.577-2.28-.215-1.903 1.115-3.421 2.995-3.421 1.883 0 3.21 1.517 2.995 3.425-.237 2.1-2.668 3.354-4.413 2.276z" style="fill:#fff;fill-opacity:1;stroke-width:.899758"/></g></svg>