<svg width="192" height="192" version="1.1" viewBox="0 0 192 192" xmlns="http://www.w3.org/2000/svg">
 <rect x="20" y="62" width="152" height="104" rx="10" fill="#56595b"/>
 <path d="m36 79c-2.7614 0-5 2.2386-5 5s2.2386 5 5 5 5-2.2386 5-5-2.2386-5-5-5zm120 42c-2.761 0-5 2.239-5 5s2.239 5 5 5 5-2.239 5-5-2.239-5-5-5zm-5-16c0-2.761 2.239-5 5-5s5 2.239 5 5-2.239 5-5 5-5-2.239-5-5zm5-26c-2.761 0-5 2.2386-5 5s2.239 5 5 5 5-2.2386 5-5-2.239-5-5-5zm-25 47c0-2.761 2.239-5 5-5s5 2.239 5 5-2.239 5-5 5-5-2.239-5-5zm5-26c-2.761 0-5 2.239-5 5s2.239 5 5 5 5-2.239 5-5-2.239-5-5-5zm-5-16c0-2.7614 2.239-5 5-5s5 2.2386 5 5-2.239 5-5 5-5-2.2386-5-5zm-15 37c-2.761 0-5 2.239-5 5s2.239 5 5 5 5-2.239 5-5-2.239-5-5-5zm-5-16c0-2.761 2.239-5 5-5s5 2.239 5 5-2.239 5-5 5-5-2.239-5-5zm5-26c-2.761 0-5 2.2386-5 5s2.239 5 5 5 5-2.2386 5-5-2.239-5-5-5zm-25 47c0-2.761 2.2386-5 5-5s5 2.239 5 5-2.2386 5-5 5-5-2.239-5-5zm5-26c-2.7614 0-5 2.239-5 5s2.2386 5 5 5 5-2.239 5-5-2.2386-5-5-5zm-5-16c0-2.7614 2.2386-5 5-5s5 2.2386 5 5-2.2386 5-5 5-5-2.2386-5-5zm-15 37c-2.7614 0-5 2.239-5 5s2.2386 5 5 5 5-2.239 5-5-2.2386-5-5-5zm-5-16c0-2.761 2.2386-5 5-5s5 2.239 5 5-2.2386 5-5 5-5-2.239-5-5zm5-26c-2.7614 0-5 2.2386-5 5s2.2386 5 5 5 5-2.2386 5-5-2.2386-5-5-5zm-25 47c0-2.761 2.2386-5 5-5s5 2.239 5 5-2.2386 5-5 5-5-2.239-5-5zm5-26c-2.7614 0-5 2.239-5 5s2.2386 5 5 5 5-2.239 5-5-2.2386-5-5-5zm-5-16c0-2.7614 2.2386-5 5-5s5 2.2386 5 5-2.2386 5-5 5-5-2.2386-5-5zm-15 37c-2.7614 0-5 2.239-5 5s2.2386 5 5 5 5-2.239 5-5-2.2386-5-5-5zm-5-16c0-2.761 2.2386-5 5-5s5 2.239 5 5-2.2386 5-5 5-5-2.239-5-5zm29 40c-2.7614 0-5 2.239-5 5s2.2386 5 5 5h75c2.761 0 5-2.239 5-5s-2.239-5-5-5z" clip-rule="evenodd" fill="#fff" fill-rule="evenodd"/>
 <path d="m134.01 111c5.522 0 9.993-4.477 9.993-10.001v-64.998c0-5.5204-4.474-10-9.993-10h-74.014c-5.5223 0-9.9929 4.4774-9.9929 10v64.998c0 5.521 4.474 10.001 9.9929 10.001h17.948c2.687 0 5.261 1.081 7.1418 3l11.059 11.284 11.238-11.238c1.861-1.86 4.38-2.913 7.011-2.928z" clip-rule="evenodd" fill="#fff" fill-rule="evenodd"/>
 <text x="69.578392" y="86.025902" fill="#56595b" font-family="'now alt'" font-size="43.313px" font-weight="bold" letter-spacing="0px" stroke-width="1.0828" word-spacing="0px" style="line-height:1.25" xml:space="preserve"><tspan x="69.578392" y="86.025902" fill="#56595b" stroke-width="1.0828">FB</tspan></text>
 <path d="m156 121c-2.761 0-5 2.239-5 5s2.239 5 5 5 5-2.239 5-5-2.239-5-5-5z" fill="#98dc9a"/>
 <path d="m36 121c-2.7614 0-5 2.239-5 5s2.2386 5 5 5 5-2.239 5-5-2.2386-5-5-5z" fill="#f8c18c"/>
</svg>
