<svg width="192" height="192" version="1.1" viewBox="0 0 192 192" xmlns="http://www.w3.org/2000/svg">
 <rect x="20" y="62" width="152" height="104" rx="10" fill="#56595b"/>
 <path d="m36 79c-2.7614 0-5 2.2386-5 5s2.2386 5 5 5 5-2.2386 5-5-2.2386-5-5-5zm120 42c-2.761 0-5 2.239-5 5s2.239 5 5 5 5-2.239 5-5-2.239-5-5-5zm-5-16c0-2.761 2.239-5 5-5s5 2.239 5 5-2.239 5-5 5-5-2.239-5-5zm5-26c-2.761 0-5 2.2386-5 5s2.239 5 5 5 5-2.2386 5-5-2.239-5-5-5zm-25 47c0-2.761 2.239-5 5-5s5 2.239 5 5-2.239 5-5 5-5-2.239-5-5zm5-26c-2.761 0-5 2.239-5 5s2.239 5 5 5 5-2.239 5-5-2.239-5-5-5zm-5-16c0-2.7614 2.239-5 5-5s5 2.2386 5 5-2.239 5-5 5-5-2.2386-5-5zm-15 37c-2.761 0-5 2.239-5 5s2.239 5 5 5 5-2.239 5-5-2.239-5-5-5zm-5-16c0-2.761 2.239-5 5-5s5 2.239 5 5-2.239 5-5 5-5-2.239-5-5zm5-26c-2.761 0-5 2.2386-5 5s2.239 5 5 5 5-2.2386 5-5-2.239-5-5-5zm-25 47c0-2.761 2.2386-5 5-5s5 2.239 5 5-2.2386 5-5 5-5-2.239-5-5zm5-26c-2.7614 0-5 2.239-5 5s2.2386 5 5 5 5-2.239 5-5-2.2386-5-5-5zm-5-16c0-2.7614 2.2386-5 5-5s5 2.2386 5 5-2.2386 5-5 5-5-2.2386-5-5zm-15 37c-2.7614 0-5 2.239-5 5s2.2386 5 5 5 5-2.239 5-5-2.2386-5-5-5zm-5-16c0-2.761 2.2386-5 5-5s5 2.239 5 5-2.2386 5-5 5-5-2.239-5-5zm5-26c-2.7614 0-5 2.2386-5 5s2.2386 5 5 5 5-2.2386 5-5-2.2386-5-5-5zm-25 47c0-2.761 2.2386-5 5-5s5 2.239 5 5-2.2386 5-5 5-5-2.239-5-5zm5-26c-2.7614 0-5 2.239-5 5s2.2386 5 5 5 5-2.239 5-5-2.2386-5-5-5zm-5-16c0-2.7614 2.2386-5 5-5s5 2.2386 5 5-2.2386 5-5 5-5-2.2386-5-5zm-15 37c-2.7614 0-5 2.239-5 5s2.2386 5 5 5 5-2.239 5-5-2.2386-5-5-5zm-5-16c0-2.761 2.2386-5 5-5s5 2.239 5 5-2.2386 5-5 5-5-2.239-5-5zm29 40c-2.7614 0-5 2.239-5 5s2.2386 5 5 5h75c2.761 0 5-2.239 5-5s-2.239-5-5-5z" clip-rule="evenodd" fill="#fff" fill-rule="evenodd"/>
 <path d="m134.01 111c5.522 0 9.993-4.477 9.993-10.001v-64.998c0-5.5204-4.474-10-9.993-10h-74.014c-5.5223 0-9.9929 4.4774-9.9929 10v64.998c0 5.521 4.474 10.001 9.9929 10.001h17.948c2.687 0 5.261 1.081 7.1418 3l11.059 11.284 11.238-11.238c1.861-1.86 4.38-2.913 7.011-2.928z" clip-rule="evenodd" fill="#fff" fill-rule="evenodd"/>
 <path d="m156 121c-2.761 0-5 2.239-5 5s2.239 5 5 5 5-2.239 5-5-2.239-5-5-5z" fill="#98dc9a"/>
 <path d="m36 121c-2.7614 0-5 2.239-5 5s2.2386 5 5 5 5-2.239 5-5-2.2386-5-5-5z" fill="#f8c18c"/>
 <g fill="#98dc9a">
  <path d="m123.24 62.972c-21.306 3.7028-22.514 18.706-22.823 27.083-0.0204 0.55187 0.40063 0.89565 0.93371 0.75134 16.246-4.3981 21.408-18.053 22.742-27.004 0.0814-0.54624-0.30793-0.92426-0.85205-0.8297z"/>
  <path d="m70.619 62.972c21.306 3.7028 22.514 18.706 22.823 27.083 0.02041 0.55187-0.40063 0.89565-0.93371 0.75134-16.246-4.3981-21.408-18.053-22.742-27.004-0.08141-0.54624 0.30793-0.92426 0.85205-0.8297z"/>
  <path d="m69.362 57.809v2.491c0 0.55228 0.44649 1.034 0.99592 1.09 20.554 2.0936 24.421 17.415 24.253 28.901-0.0081 0.55221 0.42283 0.99967 0.97511 0.99967h2.8368c0.55228 0 0.98321-0.44746 0.97511-0.99967-0.16847-11.486 3.6966-26.807 24.25-28.901 0.54943-0.05596 0.99592-0.5377 0.99592-1.09v-2.491c0-0.55228-0.44769-0.98816-0.99894-0.95473-10.158 0.61591-21.102 6.0211-26.254 17.759-0.22194 0.5057-0.55271 0.5057-0.77466-2e-6 -5.1513-11.737-16.098-17.143-26.256-17.759-0.55125-0.03342-0.99893 0.40245-0.99893 0.95473z"/>
  <path d="m96.29 48.249c-3.2748 3.2738-5.9885 6.977-7.5464 12.91-0.14026 0.53414 0.10716 1.2538 0.52625 1.6135 3.1884 2.7363 5.0267 5.1295 7.2002 8.5315 0.29734 0.46541 0.77143 0.46541 1.0687-1.8e-5 2.1732-3.402 4.0098-5.7951 7.1979-8.5314 0.41908-0.35969 0.66649-1.0794 0.52624-1.6135-1.5578-5.9331-4.2696-9.6363-7.5441-12.91-0.39055-0.39046-1.0382-0.39045-1.4287 1e-5z"/>
  <path d="m96.193 40.809c-7.0888 5.2448-10.627 11.329-12.561 17.33-0.16944 0.52563 0.09279 1.1793 0.57113 1.4553l2.3288 1.344c0.47834 0.27605 0.95577 0.0611 1.0815-0.47668 1.5194-6.501 4.185-10.264 8.6398-14.257 0.41129-0.36857 1.0901-0.36857 1.5013 1.4e-5 4.4546 3.9921 7.1183 7.7555 8.6375 14.257 0.12567 0.53778 0.60315 0.75282 1.0816 0.47689l2.3309-1.3444c0.47841-0.27593 0.74069-0.92946 0.57125-1.4551-1.9343-6.0006-5.4723-12.085-12.561-17.33-0.44396-0.32848-1.1777-0.32848-1.6217 2e-6z"/>
 </g>
</svg>
