<svg width="192" height="192" version="1.1" viewBox="0 0 192 192" xmlns="http://www.w3.org/2000/svg">
 <rect x="20" y="62" width="152" height="104" rx="10" fill="#56595b"/>
 <path d="m36 79c-2.7614 0-5 2.2386-5 5s2.2386 5 5 5 5-2.2386 5-5-2.2386-5-5-5zm120 42c-2.761 0-5 2.239-5 5s2.239 5 5 5 5-2.239 5-5-2.239-5-5-5zm-5-16c0-2.761 2.239-5 5-5s5 2.239 5 5-2.239 5-5 5-5-2.239-5-5zm5-26c-2.761 0-5 2.2386-5 5s2.239 5 5 5 5-2.2386 5-5-2.239-5-5-5zm-25 47c0-2.761 2.239-5 5-5s5 2.239 5 5-2.239 5-5 5-5-2.239-5-5zm5-26c-2.761 0-5 2.239-5 5s2.239 5 5 5 5-2.239 5-5-2.239-5-5-5zm-5-16c0-2.7614 2.239-5 5-5s5 2.2386 5 5-2.239 5-5 5-5-2.2386-5-5zm-15 37c-2.761 0-5 2.239-5 5s2.239 5 5 5 5-2.239 5-5-2.239-5-5-5zm-5-16c0-2.761 2.239-5 5-5s5 2.239 5 5-2.239 5-5 5-5-2.239-5-5zm5-26c-2.761 0-5 2.2386-5 5s2.239 5 5 5 5-2.2386 5-5-2.239-5-5-5zm-25 47c0-2.761 2.2386-5 5-5s5 2.239 5 5-2.2386 5-5 5-5-2.239-5-5zm5-26c-2.7614 0-5 2.239-5 5s2.2386 5 5 5 5-2.239 5-5-2.2386-5-5-5zm-5-16c0-2.7614 2.2386-5 5-5s5 2.2386 5 5-2.2386 5-5 5-5-2.2386-5-5zm-15 37c-2.7614 0-5 2.239-5 5s2.2386 5 5 5 5-2.239 5-5-2.2386-5-5-5zm-5-16c0-2.761 2.2386-5 5-5s5 2.239 5 5-2.2386 5-5 5-5-2.239-5-5zm5-26c-2.7614 0-5 2.2386-5 5s2.2386 5 5 5 5-2.2386 5-5-2.2386-5-5-5zm-25 47c0-2.761 2.2386-5 5-5s5 2.239 5 5-2.2386 5-5 5-5-2.239-5-5zm5-26c-2.7614 0-5 2.239-5 5s2.2386 5 5 5 5-2.239 5-5-2.2386-5-5-5zm-5-16c0-2.7614 2.2386-5 5-5s5 2.2386 5 5-2.2386 5-5 5-5-2.2386-5-5zm-15 37c-2.7614 0-5 2.239-5 5s2.2386 5 5 5 5-2.239 5-5-2.2386-5-5-5zm-5-16c0-2.761 2.2386-5 5-5s5 2.239 5 5-2.2386 5-5 5-5-2.239-5-5zm29 40c-2.7614 0-5 2.239-5 5s2.2386 5 5 5h75c2.761 0 5-2.239 5-5s-2.239-5-5-5z" clip-rule="evenodd" fill="#fff" fill-rule="evenodd"/>
 <path d="m134.01 111c5.522 0 9.993-4.477 9.993-10.001v-64.998c0-5.5204-4.474-10-9.993-10h-74.014c-5.5223 0-9.9929 4.4774-9.9929 10v64.998c0 5.521 4.474 10.001 9.9929 10.001h17.948c2.687 0 5.261 1.081 7.1418 3l11.059 11.284 11.238-11.238c1.861-1.86 4.38-2.913 7.011-2.928z" clip-rule="evenodd" fill="#fff" fill-rule="evenodd"/>
 <text x="69.578392" y="86.025902" fill="#56595b" font-family="'now alt'" font-size="43.313px" font-weight="bold" letter-spacing="0px" stroke-width="1.0828" word-spacing="0px" style="line-height:1.25" xml:space="preserve"><tspan x="69.578392" y="86.025902" fill="#56595b" stroke-width="1.0828">FB</tspan></text>
 <path d="m156 121c-2.761 0-5 2.239-5 5s2.239 5 5 5 5-2.239 5-5-2.239-5-5-5z" fill="#98dc9a"/>
 <path d="m36 121c-2.7614 0-5 2.239-5 5s2.2386 5 5 5 5-2.239 5-5-2.2386-5-5-5z" fill="#f8c18c"/>
 <path d="m139.92 144.75c-10.074-1e-4 -13.008 2.6799-13.008 10.016v9.3528c0 0.97221 0.78846 1.7602 1.7607 1.7603h33.698c7.1838 2e-5 9.6609-3.5374 9.6609-10.832l-0.0142-2.2387h0.0135v-6.298c0-0.97224-0.78843-1.7602-1.7607-1.7603h-24.717z" fill="#98dc9a" stroke="#000" stroke-dashoffset="7.56" stroke-linecap="round" stroke-linejoin="round" stroke-width=".0052682"/>
 <path d="m140.5 155.16a1.9296 1.9296 0 0 0 1.0056-1.7717c0-1.5683-1.0895-2.4423-3.0287-2.4423h-3.6156v8.7393h3.6395c1.9392 0 3.1366-0.86179 3.1366-2.5859 0-0.90973-0.40718-1.5681-1.1374-1.9394zm-3.9745-2.7175h1.9872c0.88604 0 1.3049 0.37129 1.3049 0.98191 0 0.59842-0.38313 1.0414-1.2808 1.0414h-2.0112zm1.9994 5.7225h-1.9994v-2.1789h1.9275c1.0654 0 1.4726 0.39478 1.4726 1.0774 0 0.68263-0.47901 1.1015-1.401 1.1015zm4.7282 1.5204h5.8778v-1.604h-4.19v-1.9875h4.19v-1.5922h-4.19v-1.9634h4.19v-1.5922h-5.878zm13.827-8.7393h-6.501v1.5563h2.4305v7.1831h1.664v-7.1831h2.4064zm4.525 0h-1.6642l-3.3043 8.7393h1.736l0.57453-1.5922h3.6513l0.57489 1.5922h1.7358zm-2.0951 5.6148 1.269-3.4718 1.257 3.4718z" fill="#fff" stroke-width=".52682"/>
</svg>
