<svg xmlns="http://www.w3.org/2000/svg" data-name="Calque 1" viewBox="0 0 166.02 166.02"><path d="M100.51 85.45c0 3.26 2.9 5.35 7.34 5.35 6.08 0 10.79-3.27 12.61-8.44V80h-12.7c-4.44 0-7.25 2.18-7.25 5.45Z" style="fill:#f9de81;isolation:isolate" transform="translate(-12.99 -12.99)"/><path d="M170.73 32.48 43.58 13.1a9.75 9.75 0 0 0-11.1 8.17l-5.7 37.43h5.82V38.48A10.39 10.39 0 0 1 43 28.24a10 10 0 0 1 4.8 1.18v4.35l-4.17-.09a5.36 5.36 0 0 0-5.44 5.53V58.7h9.7v5.44h-9.7V95H32.6V64.14h-6.07v-3.79L13.1 148.42a9.75 9.75 0 0 0 8.17 11.1l127.15 19.38a9.75 9.75 0 0 0 11.1-8.17l13-85.28A18.86 18.86 0 1 1 173.68 71h-6a13.27 13.27 0 0 0-12-7.43 13.24 13.24 0 1 0 0 26.47 13.27 13.27 0 0 0 12-7.43h5.24l6-39.06a9.75 9.75 0 0 0-8.19-11.07ZM83.37 95h-5.62V71.85a8.16 8.16 0 0 0-8.25-8.25 8.24 8.24 0 0 0-8.34 8.25V95h-5.62V58.7h5.62v2.9A12.68 12.68 0 0 1 70 58c7 0 13.41 6.16 13.41 13.87Zm48.69 0a5.29 5.29 0 0 1-2.72.72c-4.35 0-7.25-2.63-8.43-6.52-2.63 4.08-7.8 6.52-14.23 6.52-7.62 0-12.33-4-12.33-10.15s4.71-10.25 12.24-10.25h13.87v-3c0-5.62-4.54-8.7-10.25-8.7S100 66.68 100 72.3h-5.65c0-8.61 7.16-14.32 16-14.32s15.78 5.71 15.78 14.32v13.24c0 3.35 1.72 4.71 3.72 4.71h2.26Z" style="fill:#f9de81;isolation:isolate" transform="translate(-12.99 -12.99)"/></svg>