<?xml version="1.0" encoding="UTF-8" standalone="no"?>
<svg
   sodipodi:docname="foca.svg"
   inkscape:version="1.2 (dc2aedaf03, 2022-05-15)"
   version="1.1"
   id="svg2"
   viewBox="0 0 192 192"
   height="192"
   width="192"
   inkscape:export-filename="png/foca.png"
   inkscape:export-xdpi="96"
   inkscape:export-ydpi="96"
   xml:space="preserve"
   xmlns:inkscape="http://www.inkscape.org/namespaces/inkscape"
   xmlns:sodipodi="http://sodipodi.sourceforge.net/DTD/sodipodi-0.dtd"
   xmlns="http://www.w3.org/2000/svg"
   xmlns:svg="http://www.w3.org/2000/svg"
   xmlns:rdf="http://www.w3.org/1999/02/22-rdf-syntax-ns#"
   xmlns:cc="http://creativecommons.org/ns#"
   xmlns:dc="http://purl.org/dc/elements/1.1/"><sodipodi:namedview
     inkscape:document-rotation="0"
     inkscape:window-maximized="1"
     inkscape:window-y="0"
     inkscape:window-x="1920"
     inkscape:window-height="1022"
     inkscape:window-width="1680"
     units="px"
     showgrid="false"
     inkscape:current-layer="layer1"
     inkscape:document-units="px"
     inkscape:cy="124.45079"
     inkscape:cx="501.3387"
     inkscape:zoom="0.7071068"
     inkscape:pageshadow="2"
     inkscape:pageopacity="0.0"
     borderopacity="1.0"
     bordercolor="#666666"
     pagecolor="#ffffff"
     id="base"
     inkscape:snap-bbox="false"
     inkscape:object-paths="true"
     inkscape:snap-nodes="true"
     showguides="true"
     inkscape:guide-bbox="true"
     inkscape:snap-object-midpoints="true"
     inkscape:snap-center="true"
     inkscape:snap-global="false"
     inkscape:snap-intersection-paths="true"
     inkscape:snap-smooth-nodes="true"
     inkscape:snap-midpoints="true"
     inkscape:showpageshadow="0"
     inkscape:pagecheckerboard="0"
     inkscape:deskcolor="#d1d1d1" /><defs
     id="defs4" /><metadata
     id="metadata7"><rdf:RDF><cc:Work
         rdf:about=""><dc:format>image/svg+xml</dc:format><dc:type
           rdf:resource="http://purl.org/dc/dcmitype/StillImage" /></cc:Work></rdf:RDF></metadata><g
     transform="translate(0,-860.36216)"
     id="layer1"
     inkscape:groupmode="layer"
     inkscape:label="Calque 1"><circle
       style="fill:#56595b;fill-opacity:1;fill-rule:evenodd;stroke:none;stroke-opacity:1"
       cx="96"
       cy="956.36218"
       r="88"
       id="circle966" /><path
       fill-rule="evenodd"
       clip-rule="evenodd"
       d="m 120.80492,974.58069 c -5.6022,7.61461 -14.62653,12.556 -24.80492,12.556 -9.86359,0 -18.64344,-4.64043 -24.27532,-11.85723 0.61855,0.20506 1.24482,0.38694 1.87434,0.54613 6.257,1.58178 13.8325,1.23822 20.34858,-1.53815 4.9703,-2.11777 8.52001,-4.45911 11.33638,-6.31684 0.68629,-0.45269 1.32898,-0.87667 1.93808,-1.26161 3.07029,-1.94056 5.3311,-2.95559 8.75847,-2.72963 3.46812,0.22854 5.21707,1.74093 5.92693,3.36382 0.75672,1.72996 0.6612,4.33181 -1.10807,7.23415 z m 5.23157,-11.48888 c -2.03732,-2.81684 -5.43873,-4.54604 -9.67942,-4.82554 -5.18996,-0.34209 -8.69816,1.39339 -12.19395,3.60287 -0.72227,0.45651 -1.44111,0.92972 -2.17769,1.41477 l -1.9e-4,9e-5 c -2.78908,1.83645 -5.83313,3.84056 -10.28194,5.73618 -5.28901,2.25355 -11.57675,2.54994 -16.70096,1.25455 -5.27833,-1.33442 -8.37182,-4.0444 -8.97786,-6.9622 l -0.0104,0.002 c -0.51596,-2.23428 -0.78859,-4.5616 -0.78859,-6.95256 0,-16.99632 13.7782,-30.77451 30.77451,-30.77451 16.99631,0 30.77451,13.77819 30.77451,30.77451 0,2.31157 -0.25488,4.56369 -0.73802,6.72964 z M 132.5,956.36217 c 0,20.15841 -16.3416,36.5 -36.5,36.5 -20.1584,0 -36.5,-16.34159 -36.5,-36.5 0,-20.15841 16.3416,-36.5 36.5,-36.5 20.1584,0 36.5,16.34159 36.5,36.5 z"
       fill="#fdc591"
       id="path968"
       style="fill:#f8c18c;fill-opacity:1;stroke-width:0.0954247" /></g><style
     type="text/css"
     id="style853">
	.st0{fill:#FFFFFF;}
</style><style
     type="text/css"
     id="style853-9">
	.st0{fill:#FFFFFF;}
</style><style
     type="text/css"
     id="style853-3">
	.st0{fill:#FFFFFF;}
</style></svg>
