<svg width="192" height="192" version="1.1" viewBox="0 0 192 192" xmlns="http://www.w3.org/2000/svg">
 <circle cx="96" cy="96" r="88" fill="#9abeff" stroke-width="0"/>
 <path d="m100.62 72.718c-1.3313-1.1119-6.1053-4.6687-12.878-4.8375-0.27577-0.0069-0.72336-7e-3 -0.99939 6.55e-4 -8.8475 0.24394-14.286 6.904-15.554 8.6366-0.16279 0.22246-0.50479 0.35829-0.7775 0.31525-1.5134-0.23884-6.2429-0.61626-10.199 3.0388-0.20256 0.18715-0.51936 0.5035-0.70451 0.70834-3.5569 3.9349-2.3178 9.0172-1.8192 10.57 0.08431 0.26254-0.03157 0.57622-0.26828 0.71838-1.5072 0.90519-6.4354 4.2699-6.7231 9.7152-0.01455 0.27542-0.01424 0.72317-0.0035 0.99908 0.26819 6.8678 6.0324 9.4318 7.7432 10.043 0.25951 0.0927 0.6858 0.22848 0.94922 0.3113 4.0431 1.271 8.4992 0.97236 13.145-0.0476 0.26968-0.0592 0.4844 0.11447 0.49579 0.39034 0.41085 9.9496 15.776 10.807 19.71 10.844 0.2761 3e-3 0.72383-1e-3 0.99984-9e-3 11.639-0.34416 19.244-8.9794 20.825-10.941 0.17293-0.21461 0.52461-0.34281 0.79428-0.2834 12.562 2.7678 25.265-0.19092 25.939-10.896 0.0174-0.27558 0.0242-0.72361 6e-3 -0.99911-0.30644-4.6905-4.8416-8.0484-6.2619-8.9894-0.22999-0.15238-0.40767-0.49068-0.39368-0.76647 0.51042-10.059-2.7602-18.469-12.26-21.727-0.2612-0.08958-0.68948-0.22038-0.95686-0.28931-6.571-1.6941-15.998 0.28752-20.05 3.5028-0.21629 0.17162-0.54703 0.16952-0.75896-0.0075z" fill="#fff" stroke-width="0"/>
</svg>
