<svg xmlns="http://www.w3.org/2000/svg" width="256" height="256" style="isolation:isolate" viewBox="0 0 192 192"><defs><clipPath id="a"><path d="M0 0h192v192H0z"/></clipPath></defs><g clip-path="url(#a)" style="isolation:isolate"><path d="M29.5 19.5h133c5.519 0 10 4.481 10 10v133c0 5.519-4.481 10-10 10h-133c-5.519 0-10-4.481-10-10v-133c0-5.519 4.481-10 10-10Z" style="stroke:none;fill:#53688e;stroke-miterlimit:10"/><path fill="#728DBE" d="M29.625 33H64c6.547 0 8.844 7.844 14 13h83.375c6.14 0 11.125 4.985 11.125 11.125v106.282c0 5.019-4.074 9.093-9.093 9.093H28.593c-5.019 0-9.093-4.074-9.093-9.093V43.125C19.5 37.537 24.037 33 29.625 33Z"/><path fill="#53688E" d="M81.525 81.75c-2.654 0-4.801 2.171-4.801 4.825l-.024 38.6c0 2.654 2.147 4.825 4.801 4.825h28.974a4.839 4.839 0 0 0 4.825-4.825v-28.95L100.825 81.75h-19.3Zm16.888 16.888V85.369l13.268 13.269H98.413Z"/></g></svg>