<?xml version="1.0" encoding="UTF-8"?>
<svg version="1.1" viewBox="0 0 192 192" xml:space="preserve" xmlns="http://www.w3.org/2000/svg">
	 <circle class="a" cx="96" cy="96" r="88" fill="#ff837d"/><path id="path" d="m130.97 92.262c-0.11099-0.37254-0.33426-0.76295-0.74508-1.1074-0.4963-0.41592-1.1342-0.62771-1.7823-0.62898l-5.1122-0.0038s-1.1495-0.0893-2.6537 1.147c0 0-6.1048 6.5386-16.448 3.3478-10.343-3.1909-10.954-12.829-10.954-12.829s-0.9658-9.1962 7.1702-12.02c0 0 4.9528-2.3832 10.343 1.776 0 0 2.2084 1.7696 1.0576 3.8913 0 0-0.44271 1.2376-3.0071 0.70553-2.5631-0.53202-4.2447 0.26154-4.2447 0.26154s-3.5379 1.0589-3.8058 6.0972c-0.2692 5.0395 5.0344 6.1929 5.0344 6.1929s8.5736 2.6588 13.797-5.8254c5.2232-8.4843-1.5795-16.535-1.5795-16.535s-4.8584-6.5463-13.611-6.3766c-8.7535 0.16968-14.328 5.9135-14.328 5.9135s-8.15 8.5455-4.8877 20.749c0 0-14.511-1.8257-23.815 10.745-0.42358 0.57285-0.57285 1.3128-0.36871 1.9954 0.11227 0.37254 0.33427 0.76295 0.74636 1.1074 0.49757 0.41592 1.1342 0.62771 1.7823 0.62771h5.1122s1.1495 0.088 2.6524-1.1495c0 0 6.101-6.5424 16.445-3.3593 10.344 3.1832 10.963 12.82 10.963 12.82s0.97218 9.1949-7.1612 12.025c0 0-4.9515 2.3871-10.344-1.7683 0 0-2.2097-1.7683-1.0615-3.89 0 0 0.44144-1.2376 3.0059-0.7068 2.5644 0.53074 4.2434-0.26538 4.2434-0.26538s3.5366-1.0615 3.802-6.101c0.26537-5.0395-5.0395-6.189-5.0395-6.189s-8.5761-2.6524-13.793 5.8356c-5.2169 8.4881 1.591 16.533 1.591 16.533s4.8622 6.5424 13.616 6.3664c8.7535-0.17606 14.322-5.9237 14.322-5.9237s8.1372-8.543 4.866-20.744c0 0 14.504 1.8448 23.816-10.72 0.42995-0.57285 0.57923-1.3128 0.37509-1.9954z" fill="#9abeff" stroke-width="1.2758"/></svg>
