<?xml version="1.0" encoding="utf-8"?>
<!-- Generator: Adobe Illustrator 24.1.1, SVG Export Plug-In . SVG Version: 6.00 Build 0)  -->
<svg version="1.1" id="Layer_1" xmlns="http://www.w3.org/2000/svg" xmlns:xlink="http://www.w3.org/1999/xlink" x="0px" y="0px"
	 viewBox="0 0 192 192" style="enable-background:new 0 0 192 192;" xml:space="preserve">
<style type="text/css">
	.st0{fill:#4A4A4A;}
	.st1{fill:#FEFEFE;}
	.st2{fill:#FAFAFA;}
</style>
<path class="st0" d="M29.5,19.6h133c5.5,0,10,4.5,10,10v133c0,5.5-4.5,10-10,10h-133c-5.5,0-10-4.5-10-10v-133
	C19.5,24.1,24,19.6,29.5,19.6z"/>
<g>
	<path class="st1" d="M71.7,97.5c0-10.6,0-21.2,0-31.8c0-1,0.2-1.7,1-2.5c3.8-3.6,7.5-7.2,11.2-10.9c0.6-0.6,1.1-0.8,1.9-0.6
		c14.2,4,28.4,8,42.6,11.9c0.8,0.2,1,0.6,1.2,1.3c3.3,13.1,6.7,26.1,10,39.2c0.4,1.6,1.5,3.3,0.9,4.7c-0.6,1.3-2.1,2.3-3.3,3.4
		c-9.5,9.3-19.1,18.6-28.6,28c-0.7,0.7-1.2,0.8-2.2,0.6c-11.3-3.2-22.5-6.4-33.8-9.4c-1.1-0.3-0.9-0.9-0.9-1.6
		C71.7,118.9,71.7,108.2,71.7,97.5z"/>
	<path class="st2" d="M68.1,67.7c0,0.9,0,1.4,0,1.9c0,19.5,0,39.1,0,58.6c0,1.3-0.1,1.6-1.7,1.3c-2.8-0.4-3.7-1.9-4.3-4.5
		c-3.1-12.6-6.4-25.1-9.6-37.6c-1-3.7-1-3.7,1.7-6.3c4.2-4.1,8.4-8.2,12.5-12.3C67.1,68.6,67.5,68.3,68.1,67.7z"/>
</g>
</svg>
