<svg width="192" height="192" fill="none" version="1.1" viewBox="0 0 192 192" xmlns="http://www.w3.org/2000/svg">
 <rect x="22" y="76" width="152" height="98" rx="10" fill="#9ABEFF" style="fill:#728dbe"/>
 <path d="m166.5 29.5 12.59-12.59" stroke="#71A372" stroke-linecap="round" stroke-width="10" style="stroke:#8c72bd"/>
 <path d="m30.5 29.5-12.59-12.59" stroke="#71A372" stroke-linecap="round" stroke-width="10" style="stroke:#8c72bd"/>
 <rect x="22" y="22" width="152" height="48" rx="10" fill="#98DC9A" style="fill:#bd9aff"/>
 <path d="m44 55c5.5228 0 10-4.4772 10-10s-4.4772-10-10-10-10 4.4772-10 10 4.4772 10 10 10z" clip-rule="evenodd" fill="#71A372" fill-rule="evenodd" style="fill:#8c72bd"/>
 <path d="m152 55c5.523 0 10-4.4772 10-10s-4.477-10-10-10-10 4.4772-10 10 4.477 10 10 10z" clip-rule="evenodd" fill="#71A372" fill-rule="evenodd" style="fill:#8c72bd"/>
 <path d="m128 124c0 16.569-13.431 30-30 30-16.568 0-30-13.431-30-30s13.432-30 30-30c16.569 0 30 13.431 30 30z" stroke="#728DBE" stroke-width="10" style="fill:#728dbe;stroke:#54688c"/>
 <path d="m113 124c0-8.284-6.7157-15-15-15-8.284 0-15 6.716-15 15s6.716 15 15 15c8.2843 0 15-6.716 15-15z" style="stroke-width:10;stroke:#54688c"/>
 <rect transform="scale(1,-1)" x="105.8" y="-122" width="13" height="4.1" style="fill:#728dbe;stroke-width:.64031"/>
 <rect x="95" y="122" width="20" height="7" style="fill:#54688c;paint-order:stroke fill markers;stroke-width:.9325"/>
</svg>
