<svg width="192" height="192" viewBox="0 0 192 192" fill="none" xmlns="http://www.w3.org/2000/svg">
<g clip-path="url(#clip0)">
<g clip-path="url(#clip1)">
<path fill-rule="evenodd" clip-rule="evenodd" d="M173 29V162C173 167.52 168.52 172 163 172H30C24.48 172 20 167.52 20 162V29C20 23.47 24.47 19 30 19H163C168.52 19 173 23.47 173 29Z" fill="#8C72BD"/>
<path d="M79.8999 142.05C80.9499 142.62 81.9999 143.1 83.0499 143.51C81.7799 143.99 80.6999 144.34 79.4299 144.59C78.9199 144.26 78.3999 144.06 77.9799 143.95C77.5099 143.83 77.1499 143.81 77.0099 143.8C77.0699 144.17 77.1199 144.55 77.1899 144.92C77.2999 145.68 77.4199 146.43 77.5399 147.19C77.5199 147.2 77.4999 147.2 77.4799 147.21C77.0899 147.32 76.0499 147.54 74.8999 147.07C74.0199 146.71 73.5099 146.12 73.2799 145.82C73.1799 146.71 72.7499 149.48 70.4599 151.74C69.0199 153.16 67.4599 153.78 66.5799 154.06C67.6499 151.71 67.1699 148.96 65.3799 147.19C65.3199 147.13 65.2599 147.07 65.1999 147.03C63.7499 145.7 61.6999 145.19 59.7399 145.64C59.5399 145.68 59.3399 145.73 59.1399 145.8C59.2499 146.02 59.5099 146.64 59.3899 147.45C59.2499 148.29 58.7699 148.82 58.5999 148.98C58.3199 148.37 57.7699 147.38 56.7299 146.54C56.2899 146.18 55.8499 145.93 55.4699 145.75C55.2799 147.31 55.0999 148.87 54.9199 150.43C54.0699 149.38 53.1899 148.32 52.2599 147.25C51.6499 146.54 51.0399 145.84 50.4199 145.16C50.3599 145.03 50.1599 144.62 49.7699 144.17C49.4299 143.79 48.9399 143.38 48.2499 143.13C47.1999 142.75 46.2699 142.95 45.8699 143.07C45.8299 143.09 45.7899 143.1 45.7599 143.1C45.7899 143.35 45.9999 144.84 44.9599 146.17C44.0399 147.35 42.7699 147.6 42.4699 147.65C42.6399 147.43 42.9199 146.99 43.0499 146.37C43.1799 145.71 43.0699 145.16 42.9899 144.89C42.2499 144.98 40.9599 145.06 39.4499 144.61C37.5599 144.05 36.3499 142.96 35.7999 142.39C35.7099 142.3 35.4299 142.05 35.0099 141.97C34.4599 141.87 34.0299 142.13 33.9399 142.19C33.8399 142.29 33.4499 142.69 33.3899 143.35C33.3299 144.04 33.6799 144.51 33.7599 144.63C31.5299 143.99 28.6199 142.74 26.7799 140.07C23.9199 135.91 25.5499 131.08 26.5599 124.93C28.3999 113.68 25.3599 115.1 26.4699 92.52C26.8699 85 27.3999 80.87 28.9699 76.42C30.9399 70.78 34.3199 65.23 34.3199 65.23C35.0899 63.96 35.7799 62.93 36.2899 62.19C36.4399 60.52 36.6599 58.05 36.8699 55.03C37.3799 47.55 37.3899 43.56 37.8599 32.33C38.0699 27.19 38.2799 22.93 39.3999 19.01H41.5799C37.7999 35.53 37.5899 49.59 37.5099 58.49C37.4899 60.24 37.4999 61.65 37.5099 62.43C37.1399 62.91 36.5899 63.63 35.9699 64.52C34.4199 66.76 28.4599 75.85 27.6299 92.26C27.2599 99.5 28.3599 99.03 28.3999 111.02C28.4199 117.48 28.1199 122.78 27.8599 126.3C27.4099 127.27 25.0899 132.47 26.8099 137.01C27.3799 138.51 28.2999 139.7 28.3399 139.75C29.8999 141.72 31.8199 142.61 32.8199 143C32.3099 142.27 31.6899 141.2 31.2499 139.81C30.9399 138.81 30.7999 137.91 30.7499 137.18C31.0599 137.78 31.5799 138.59 32.4099 139.36C33.1699 140.07 33.9599 140.55 34.6599 140.87C34.7399 140.91 34.8299 140.95 34.9099 140.98C35.0599 141.05 35.2199 141.11 35.3599 141.16C35.4799 141.2 35.5899 141.24 35.6899 141.26C35.7799 141.29 35.8699 141.32 35.9399 141.34C35.9699 141.35 35.9799 141.36 36.0099 141.36C36.1299 141.39 36.2399 141.42 36.3399 141.45C35.7699 140.49 34.8699 138.68 34.6699 136.24C34.5099 134.35 34.8099 132.81 35.0899 131.82C35.9499 133.43 37.5399 135.93 40.2899 138.22C42.6399 140.17 44.9499 141.25 46.5399 141.83C46.0899 140.67 45.5899 139.05 45.3999 137.06C45.1799 134.65 45.4999 132.64 45.8199 131.31C46.6299 132.61 47.9099 134.36 49.8799 136.02C51.2599 137.18 52.6099 137.99 53.7099 138.54C52.1999 135.6 50.3499 131.22 49.3799 125.65C48.3599 119.81 48.6699 114.86 49.1599 111.51C48.6199 122.87 54.5099 133.17 63.8599 137.48C68.1499 139.45 72.3799 139.8 75.8899 139.52C76.4499 139.94 77.0399 140.34 77.6499 140.74C78.4099 141.22 79.1599 141.66 79.8999 142.05Z" fill="#96DFD3"/>
<path d="M94.43 146.11C92.93 145.93 91.46 145.72 90.04 145.46C91.47 145.72 92.93 145.92 94.43 146.11Z" fill="#96DFD3"/>
<path d="M149.34 127.64C149.26 128.41 149.14 129.22 148.97 130.06C148.95 130.19 148.92 130.32 148.89 130.46C148.33 133.14 147.44 135.33 146.63 136.98C146.5 137.23 146.38 137.47 146.26 137.69C145.53 138.17 144.62 138.68 143.53 139.14C142.47 139.59 141.49 139.88 140.66 140.07C141.13 139.86 142.11 139.36 142.97 138.36C143.22 138.07 143.47 137.73 143.69 137.34C144.16 136.52 144.34 135.72 144.43 135.16C143.64 135.92 142.47 137 140.99 138.25C139.81 139.25 139.46 139.56 139.11 139.82C138.51 140.27 137.92 140.65 137.38 140.97C137.11 141.13 136.84 141.28 136.6 141.41C136.47 141.48 136.35 141.54 136.22 141.6C135.95 141.74 135.7 141.85 135.48 141.95C135.62 141.82 135.86 141.56 136 141.13C136.19 140.55 136.03 140.06 135.97 139.9C133.56 141.48 131.52 142.51 130.21 143.1C129.53 143.41 128.76 143.75 127.92 144.08C123.96 145.67 118.43 147.4 112.84 148.07C112.84 147.61 112.84 147.16 112.83 146.7C115.85 146.35 119.12 145.72 122.59 144.67C123.87 144.28 125.31 143.84 126.87 143.27C131.87 141.46 138 138.48 143.21 132.5C144.13 131.44 144.93 130.4 145.61 129.41C146.46 128.19 147.14 127.05 147.68 126.04C147.89 125.65 148.09 125.28 148.26 124.94C148.16 124.06 148.06 123.1 147.95 122.05C148.39 121.95 148.84 121.85 149.3 121.74C149.48 123.25 149.58 125.28 149.34 127.64Z" fill="#96DFD3"/>
<path d="M107.52 51.57C108.69 51.58 109.98 51.66 111.34 51.78C104.79 52.82 99.06 53.76 93.73 54.82C99.47 52.63 103.19 51.54 107.52 51.57Z" fill="#96DFD3"/>
<path d="M157.26 94.9C157.42 93.91 157.46 93.03 157.42 92.32C157.2 92.23 156.74 92.08 156.16 92.15C155.71 92.2 155.37 92.37 155.17 92.48C154.98 93.84 154.85 95.8 155.11 98.12C155.32 99.93 155.55 101.94 156.65 103.93C158.46 107.23 161.65 108.72 163.23 109.31C163.82 111.15 165.1 116.08 163.37 121.98C162.59 124.65 161.4 126.8 160.22 128.46C160.37 125.39 160.25 122.65 159.98 120.26C160.26 121.99 160.37 123.61 160.38 125.11C161.44 123.78 162.7 121.76 162.79 119.24C162.89 116.3 161.32 115.4 158.51 110.09C154.4 102.29 155.97 100.77 153.58 95.15C153.41 94.74 152.96 93.7 153.4 92.87C153.92 91.88 155.26 91.99 156.43 91.39C157.52 90.84 158.77 89.54 159.4 86.18C159.43 87.72 159.32 89.61 158.85 91.72C158.63 92.68 158.37 93.56 158.08 94.35C159.17 92.88 160.8 90.34 161.81 86.84C162.75 83.55 164.27 78.33 161.37 74.78C159.53 72.52 156.66 71.87 154.82 71.69C154.82 71.6 154.83 71.5 154.83 71.4C155.75 70.95 156.73 70.24 157.21 69.12C158.9 65.23 153.18 59.55 151.51 57.88C151.45 57.82 151.38 57.75 151.31 57.68C151.17 57.54 151 57.38 150.83 57.21C150.39 56.79 149.83 56.28 149.16 55.74C147.93 54.74 146.31 53.61 144.31 52.65C144.49 52.35 144.62 52.02 144.72 51.66C145.03 50.4 144.66 49.36 143.98 47.46C143.98 47.46 143.27 45.51 142.25 44.01C139.89 40.54 134.06 38.57 129.86 37.21C122.12 34.69 118.24 33.44 115.61 32.9C107.12 31.18 100.5 31.25 98.94 31.28C93.45 31.38 86.49 31.51 78.64 34.79C74.63 36.46 71.08 38.67 69.54 39.64C66.71 41.42 64.91 42.82 61.98 45.11C59.12 47.33 57.44 48.83 55.81 50.99C54.43 52.79 53.69 53.81 53.69 55.23C53.69 57.41 55.47 59 58.1 61.27C59.16 62.18 60.58 63.3 62.4 64.47C57 66.8 52.67 69 49.78 70.54C49.41 67.85 49.07 65.09 48.74 62.28C48.74 62.27 48.74 62.27 48.74 62.26C48.41 59.4 48.11 56.49 47.84 53.51C47.77 52.77 47.7 52.02 47.64 51.27C47.56 50.37 47.49 49.47 47.42 48.56C47.34 47.58 47.27 46.61 47.2 45.61C47.12 44.54 47.05 43.45 46.98 42.36C46.97 42.22 46.96 42.07 46.95 41.93C46.88 40.87 46.82 39.8 46.77 38.72C46.7 37.5 46.64 36.26 46.59 35.01C46.36 29.51 46.25 24.17 46.24 19H70.98C72.12 23.23 73.15 28.31 74.02 33.2C77.94 31.74 83.11 30.23 89.3 29.44C95.15 28.7 100.26 28.82 104.27 29.19C104.47 27.35 105.12 23.83 107.58 20.25C107.88 19.82 108.2 19.4 108.52 19H145.7C145.94 23.12 146.16 26.84 146.35 30.08C146.88 39.32 146.99 41.78 148.11 45.11C149.61 49.58 151.88 52.41 153.42 54.43C157.3 59.5 162.59 67.35 168.78 79.5C168.08 79.22 167.29 78.85 166.48 78.35C164.66 77.23 163.4 75.92 162.59 74.9C163.14 76.18 163.68 77.46 164.23 78.74C164.58 80.06 165.87 85.56 162.81 91.13C160.83 94.74 157.97 96.67 156.55 97.49C156.81 96.79 157.09 95.93 157.26 94.9Z" fill="#96DFD3"/>
<path d="M148.21 92.39C148 92.32 147.8 92.24 147.62 92.15C147.59 92.19 147.57 92.23 147.54 92.26C147.25 92.5 146.85 92.79 146.33 93.03C145.59 93.38 144.92 93.49 144.47 93.52C145.43 91.35 146.62 87.9 146.78 83.53C146.88 80.76 146.53 78.39 146.13 76.58C146.15 76.9 146.25 79.03 145.55 81.69C144.38 86.14 141.5 88.86 140.14 90.02C137.65 90.96 134.56 91.89 130.96 92.46C128.84 92.79 126.88 92.94 125.11 93C125.83 91.14 126.53 88.94 127.05 86.41C127.9 82.23 127.97 78.53 127.79 75.67C126.98 79.08 125.78 83.01 123.92 87.23C122.8 89.78 121.61 92.08 120.43 94.1C119.66 94.5 118.6 94.95 117.3 95.26C115.85 95.59 114.61 95.63 113.68 95.58C113.14 95.61 112.57 95.61 111.98 95.61C111.26 95.6 110.56 95.58 109.9 95.54H103.86C104.89 93.53 106.12 90.64 106.82 86.98C107.47 83.55 107.46 80.59 107.27 78.43C106.64 81.08 105.71 84.17 104.29 87.49C102.51 91.64 100.47 95.01 98.64 97.63C96.4 97.46 93.75 97.42 90.8 97.69C88.62 97.89 86.66 98.23 84.93 98.62C86.18 96.04 87.53 92.58 88.39 88.37C89.05 85.12 89.26 82.22 89.27 79.82C88.7 82.85 87.55 87.08 85.1 91.66C83.08 95.43 80.79 98.3 78.9 100.32C79.28 98.99 79.64 97.46 79.89 95.77C80.31 92.92 80.31 90.38 80.16 88.32C80.12 90.16 79.76 94.01 77.31 97.97C75.59 100.73 73.53 102.47 72.15 103.45C70.74 104.46 69.19 104.22 69.19 104.22C68.09 104.16 67 104.11 65.9 104.05C66.28 106.46 67.11 109.94 69.02 113.76C70.12 115.93 72.3 120.17 76.92 123.91C81.87 127.9 87.02 129.22 89.81 129.72C88.26 130.49 85.11 131.79 80.99 131.66C77.86 131.55 75.41 130.67 73.96 130C74.73 131.3 76.33 133.57 79.17 135.37C81.18 136.65 83.07 137.22 84.38 137.51C83.42 137.91 80.2 139.18 75.91 139.52C76.47 139.94 77.06 140.34 77.67 140.74C78.42 141.22 79.17 141.67 79.91 142.06C80.96 142.63 82.01 143.11 83.06 143.52C83.29 143.61 83.52 143.7 83.75 143.78C83.98 143.86 84.22 143.95 84.45 144.03C85.84 144.51 87.22 144.88 88.63 145.18C89.11 145.28 89.58 145.38 90.06 145.46C91.49 145.72 92.95 145.94 94.45 146.11C95.16 146.2 95.9 146.29 96.63 146.37C97 146.41 97.37 146.45 97.74 146.5C98.26 146.56 98.81 146.62 99.41 146.68C102.03 146.94 105.35 147.18 109.22 147.01C109.48 146.99 109.75 146.98 110.02 146.96C110.36 146.94 110.7 146.93 111.04 146.89C111.29 146.87 111.53 146.86 111.79 146.82C112.15 146.79 112.5 146.76 112.86 146.72C115.88 146.37 119.15 145.74 122.62 144.69C127.98 143.05 136.42 140.35 143.23 132.52C144.15 131.46 144.95 130.42 145.63 129.43C143.19 127.04 140.74 124.65 138.3 122.26C139.12 121.29 139.94 120.32 140.76 119.35C143.07 121.58 145.38 123.81 147.7 126.05C147.91 125.66 148.11 125.29 148.28 124.95C148.18 124.07 148.08 123.11 147.97 122.06C147.91 121.38 147.86 120.69 147.81 120.01C147.78 119.47 147.74 118.91 147.7 118.36V118.32C147.7 118.27 147.69 118.21 147.69 118.16C147.67 117.92 147.66 117.68 147.65 117.42C147.55 115.47 147.5 113.32 147.51 111.03C147.53 107.21 147.54 104.83 147.81 102.5C146.65 104.81 145.29 106.58 144.16 107.84C143.96 108.18 143.69 108.55 143.37 108.95C143.02 109.37 142.68 109.71 142.37 109.99C141.43 110.14 140.45 110.32 139.44 110.53C138.47 110.73 137.48 110.96 136.45 111.23C133.8 111.91 131.39 112.69 129.25 113.49C128.74 113.06 128.14 112.44 127.58 111.61C127.25 111.12 126.98 110.62 126.79 110.16C126.36 109.18 126.17 108.3 126.08 107.69C126.16 105.9 126.62 102.54 129.03 99.64C133.04 94.83 140.81 93.24 145.27 96.24C146.22 96.88 146.88 97.63 147.3 98.21C147.67 98.12 148.1 97.98 148.56 97.77C148.62 97.74 148.67 97.72 148.73 97.69C149.1 96.17 149.58 94.58 150.19 92.72C149.59 92.69 148.92 92.63 148.21 92.39ZM104.23 114.74C102.9 114.68 101.47 114.66 99.95 114.73C99 114.76 98.01 114.83 96.99 114.94C90.91 115.59 85.88 117.35 82.12 119.11C81.53 119.39 80.98 119.66 80.45 119.93C79.74 119.44 79.03 118.92 78.31 118.37C78.29 118.35 78.28 118.34 78.26 118.33C76.04 116.66 73.75 114.71 71.49 112.46C70.67 111.64 69.87 110.82 69.14 110.01C70.22 110.1 71.89 110.15 73.87 109.81C79.1 108.9 80.08 106.37 84.53 104.96C90.05 103.19 95.32 104.93 97.77 105.74C100.64 106.68 102.87 107.98 104.4 109.05C104.59 109.18 104.77 109.31 104.93 109.42C105.2 109.73 106.06 110.96 104.23 114.74ZM123.81 126.21C123.33 127.19 122.73 128.29 121.97 129.47C121.65 129.96 121.29 130.47 120.91 130.98C119.41 132.96 117.88 134.47 116.58 135.59C115.51 133.97 114.34 131.98 113.29 129.61C112.24 127.27 111.53 125.11 111.04 123.24C111.65 123.25 112.26 123.27 112.87 123.27C113.58 123.29 114.31 123.3 115.02 123.31C116.12 123.34 117.24 123.36 118.34 123.38C119.56 123.41 120.79 123.43 122.01 123.46C122.67 123.32 123.35 123.55 123.76 124.06C124.24 124.66 124.26 125.54 123.81 126.21Z" fill="#FCECDC"/>
<path d="M112.86 149.01C112.28 149.21 111.64 149.4 110.94 149.58C108.01 150.34 104.05 150.85 99.66 149.87C99.57 149.85 99.49 149.84 99.41 149.81C98.41 149.58 97.47 149.29 96.61 148.97V146.38C96.98 146.42 97.35 146.46 97.72 146.51C98.24 146.57 98.79 146.63 99.39 146.69C102.01 146.95 105.33 147.19 109.2 147.02C109.46 147 109.73 146.99 110 146.97C110.34 146.95 110.68 146.94 111.02 146.9C111.27 146.88 111.51 146.87 111.77 146.83C112.13 146.8 112.48 146.77 112.84 146.73C112.85 147.19 112.85 147.64 112.85 148.1V148.31C112.85 148.54 112.86 148.77 112.86 149.01Z" fill="#E2C9B0"/>
<path d="M83.04 143.52C81.77 144 80.69 144.35 79.42 144.6C79.41 144.6 79.4 144.6 79.39 144.61C79.04 144.68 78.68 144.75 78.29 144.81C77.94 144.86 77.58 144.9 77.19 144.94C73.68 145.31 68.78 145.03 62.57 142.43C64.07 144.05 65.56 145.66 67.05 147.28C66.51 147.23 65.89 147.16 65.21 147.05C63.66 146.81 61.79 146.4 59.75 145.66C58.58 145.23 57.34 144.7 56.09 144.04C52.81 142.31 50.45 140.26 48.91 138.67C49.41 139.52 50.1 140.51 51.04 141.53C52.65 143.23 54.32 144.26 55.54 144.87C53.98 144.84 52.02 144.67 49.79 144.21C48.66 143.97 47.47 143.66 46.22 143.23C46.11 143.2 46 143.15 45.89 143.11C43 142.11 40.71 140.82 39.03 139.72C39.64 140.6 40.48 141.63 41.61 142.68C42.6 143.61 43.57 144.3 44.41 144.82C43.04 144.83 39.49 144.68 36.18 142.24C35.59 141.82 35.09 141.36 34.65 140.91C34.73 140.95 34.82 140.99 34.9 141.02C35.05 141.09 35.21 141.15 35.35 141.2C35.47 141.24 35.58 141.28 35.68 141.3C35.77 141.33 35.86 141.36 35.93 141.38C35.96 141.39 35.97 141.4 36 141.4C36.12 141.43 36.23 141.46 36.33 141.49C35.76 140.53 34.86 138.72 34.66 136.28C34.5 134.39 34.8 132.85 35.08 131.86C35.94 133.47 37.53 135.97 40.28 138.26C42.63 140.21 44.94 141.29 46.53 141.87C46.08 140.71 45.58 139.09 45.39 137.1C45.17 134.69 45.49 132.68 45.81 131.35C46.62 132.65 47.9 134.4 49.87 136.06C51.25 137.22 52.6 138.03 53.7 138.58C52.19 135.64 50.34 131.26 49.37 125.69C48.35 119.85 48.66 114.9 49.15 111.55C48.61 122.91 54.5 133.21 63.85 137.52C68.14 139.49 72.37 139.84 75.88 139.56C76.44 139.98 77.03 140.38 77.64 140.78C78.39 141.26 79.14 141.71 79.88 142.1C79.9 142.11 79.92 142.13 79.94 142.13C81 142.64 82.02 143.11 83.04 143.52Z" fill="#FF837D"/>
<path d="M160.22 128.46C160.19 128.75 160.18 129.05 160.16 129.34C159.79 130.28 159.14 131.61 158.02 132.96C157.01 134.18 155.95 135.02 155.15 135.55V134.52C154.53 135.11 153.83 135.72 153.05 136.33C152.3 136.92 151.57 137.43 150.87 137.89C150.62 138.05 150.38 138.2 150.13 138.35C150.16 137.82 150.18 137.3 150.21 136.77C150.22 136.47 150.24 136.17 150.25 135.88C150.14 135.97 150.01 136.05 149.88 136.14C149.44 136.45 148.9 136.76 148.27 137.04C148.07 137.13 147.85 137.22 147.66 137.29C147.46 137.37 147.27 137.43 147.08 137.49C146.78 137.58 146.5 137.65 146.26 137.7C146.38 137.48 146.5 137.24 146.63 136.99C146.77 136.7 146.92 136.39 147.06 136.06C147.75 134.55 148.43 132.67 148.89 130.47C148.92 130.33 148.95 130.2 148.97 130.07C149.11 129.39 149.22 128.73 149.28 128.09C149.3 127.94 149.31 127.79 149.33 127.65C149.58 125.29 149.47 123.26 149.3 121.75C148.84 121.86 148.39 121.96 147.95 122.06C147.89 121.38 147.84 120.69 147.79 120.01C147.76 119.47 147.72 118.91 147.68 118.36V118.32C147.68 118.27 147.67 118.21 147.67 118.16C147.65 117.92 147.64 117.68 147.63 117.42C147.53 115.47 147.48 113.32 147.49 111.03C147.51 107.21 147.52 104.83 147.79 102.5C147.88 101.73 147.99 100.97 148.15 100.16C148.31 99.33 148.49 98.5 148.7 97.66C149.07 96.14 149.55 94.55 150.16 92.69C150.38 92.68 150.58 92.66 150.76 92.64C150.75 92.86 150.74 93.1 150.73 93.34C150.7 95.17 150.8 97.28 151.21 99.56C152.43 106.46 155.65 111.43 157.8 114.21C157.76 114.2 157.69 114.18 157.6 114.17C157.29 114.13 156.69 114.09 156.1 114.43C155.85 114.57 155.14 115.03 155.22 115.36C155.7 115.29 156.37 115.26 157.14 115.36C157.87 115.46 158.47 115.65 158.91 115.83C159 116.11 159.09 116.39 159.17 116.69C159.22 116.89 159.28 117.08 159.33 117.29C159.61 118.31 159.81 119.31 159.98 120.28C160.26 122.66 160.38 125.39 160.22 128.46Z" fill="#FF837D"/>
<path d="M159.99 120.26C159.83 119.29 159.62 118.29 159.34 117.27C159.2 116.77 159.07 116.28 158.91 115.82C158.47 115.64 157.87 115.45 157.14 115.35C156.37 115.25 155.7 115.28 155.22 115.35C155.14 115.02 155.85 114.56 156.1 114.42C156.7 114.08 157.29 114.11 157.6 114.16C157.68 114.18 157.75 114.19 157.8 114.2C155.65 111.43 152.44 106.46 151.21 99.55C150.73 96.86 150.67 94.41 150.77 92.36C151.83 92.41 152.26 95.32 154.01 100.92C156.24 108.05 157.21 108.64 158.51 113.04C159.09 114.96 159.65 117.36 159.99 120.26Z" fill="#FF837D"/>
<path d="M158.52 110.09C161.33 115.4 162.91 116.3 162.8 119.24C162.71 121.76 161.45 123.79 160.39 125.11C160.38 123.61 160.27 121.98 159.99 120.26C159.83 119.29 159.62 118.29 159.34 117.27C159.2 116.77 159.07 116.28 158.91 115.82C158.47 115.64 157.87 115.45 157.14 115.35C156.37 115.25 155.7 115.28 155.22 115.35C155.32 115.15 155.58 114.72 156.1 114.42C156.7 114.08 157.29 114.11 157.6 114.16C157.68 114.18 157.75 114.19 157.8 114.2C155.65 111.43 152.44 106.46 151.21 99.55C150.8 97.26 150.7 95.16 150.73 93.33C150.74 93.09 150.75 92.85 150.76 92.63C150.76 92.54 150.76 92.45 150.77 92.36C150.77 92.28 150.78 92.22 150.78 92.15C151.55 90.87 152.34 89.27 152.97 87.38C153.86 84.71 154.17 82.22 154.19 80.1C154.22 78.53 154.1 77.16 153.95 76.09C153.41 80.26 152.09 85.34 148.92 90.28C148.49 90.93 148.06 91.56 147.61 92.16C147.58 92.2 147.56 92.24 147.53 92.27C147.24 92.51 146.84 92.8 146.32 93.04C145.58 93.39 144.91 93.5 144.46 93.53C145.42 91.36 146.61 87.91 146.77 83.54C146.87 80.77 146.52 78.4 146.12 76.59C146.14 76.91 146.24 79.04 145.54 81.7C144.37 86.15 141.49 88.87 140.13 90.03C137.64 90.97 134.55 91.9 130.95 92.47C128.83 92.8 126.87 92.95 125.1 93.01C125.82 91.15 126.52 88.95 127.04 86.42C127.89 82.24 127.96 78.54 127.78 75.68C126.97 79.09 125.77 83.02 123.91 87.24C122.79 89.79 121.6 92.09 120.42 94.11C119.65 94.51 118.59 94.96 117.29 95.27C115.84 95.6 114.6 95.64 113.67 95.59C114.62 93.77 115.86 90.77 116.1 86.91C116.21 84.99 116.05 83.3 115.81 81.94C115.21 84.32 114.3 87.12 112.89 90.13C111.93 92.2 110.89 94.01 109.89 95.56H103.85C104.88 93.55 106.11 90.66 106.81 87C107.46 83.57 107.45 80.61 107.26 78.45C106.63 81.1 105.7 84.19 104.28 87.51C102.5 91.66 100.46 95.03 98.63 97.65C96.39 97.48 93.74 97.44 90.79 97.71C88.61 97.91 86.65 98.25 84.92 98.64C86.17 96.06 87.52 92.6 88.38 88.39C89.04 85.14 89.25 82.24 89.26 79.84C88.69 82.87 87.54 87.1 85.09 91.68C83.07 95.45 80.78 98.32 78.89 100.34C79.27 99.01 79.63 97.48 79.88 95.79C80.3 92.94 80.3 90.4 80.15 88.34C80.11 90.18 79.75 94.03 77.3 97.99C75.58 100.75 73.52 102.49 72.14 103.47C71.93 100.1 71.71 96.74 71.49 93.36C70.79 95 70.07 97.11 69.62 99.63C69.32 101.33 69.2 102.89 69.19 104.24C68.09 104.18 67 104.13 65.9 104.07C66.28 106.48 67.11 109.96 69.02 113.78C70.12 115.95 72.3 120.19 76.92 123.93C81.87 127.92 87.02 129.24 89.81 129.74C88.26 130.51 85.11 131.81 80.99 131.68C77.86 131.57 75.41 130.69 73.96 130.02C74.73 131.32 76.33 133.59 79.17 135.39C81.18 136.67 83.07 137.24 84.38 137.53C83.42 137.93 80.2 139.2 75.91 139.54C72.4 139.82 68.18 139.47 63.88 137.5C54.52 133.19 48.64 122.89 49.18 111.53C48.7 114.89 48.38 119.83 49.4 125.67C50.37 131.24 52.21 135.62 53.73 138.56C52.62 138.01 51.27 137.2 49.9 136.04C47.93 134.38 46.64 132.63 45.84 131.33C45.52 132.66 45.19 134.67 45.42 137.08C45.61 139.07 46.11 140.69 46.56 141.85C44.97 141.26 42.66 140.18 40.31 138.24C37.56 135.95 35.97 133.45 35.11 131.84C34.83 132.83 34.52 134.37 34.69 136.26C34.89 138.7 35.8 140.51 36.36 141.47C36.26 141.44 36.15 141.42 36.03 141.38C36 141.38 35.99 141.37 35.96 141.36C35.88 141.34 35.8 141.32 35.71 141.28C35.61 141.25 35.5 141.22 35.38 141.18C35.24 141.13 35.08 141.07 34.93 141C34.85 140.97 34.76 140.93 34.68 140.89C33.97 140.57 33.18 140.09 32.43 139.38C31.61 138.61 31.09 137.8 30.77 137.2C30.82 137.92 30.96 138.82 31.27 139.83C31.71 141.22 32.33 142.29 32.84 143.02C31.85 142.64 29.92 141.74 28.36 139.77C28.32 139.72 27.4 138.54 26.83 137.03C25.1 132.49 27.43 127.29 27.88 126.32C28.14 122.79 28.44 117.5 28.42 111.04C28.35 99.03 27.25 99.5 27.62 92.26C28.45 75.85 34.41 66.75 35.96 64.52C36.58 63.63 37.12 62.91 37.5 62.43C37.49 61.65 37.48 60.24 37.5 58.49C37.58 49.59 37.79 35.52 41.57 19.01H46.25C46.26 24.18 46.37 29.52 46.61 35.02C46.66 36.26 46.72 37.5 46.79 38.73C46.84 39.81 46.9 40.88 46.97 41.94C46.98 42.08 46.99 42.23 47 42.37C47.07 43.46 47.14 44.55 47.22 45.62C47.29 46.61 47.36 47.59 47.44 48.57C47.51 49.48 47.58 50.38 47.66 51.28C47.66 51.31 47.67 51.34 47.67 51.36C47.73 52.08 47.79 52.8 47.86 53.51C47.96 54.65 48.07 55.78 48.18 56.9C48.19 56.98 48.2 57.06 48.21 57.15C48.3 58.08 48.4 59 48.5 59.92C48.59 60.7 48.67 61.48 48.76 62.27C48.76 62.28 48.76 62.28 48.76 62.29C48.67 63.84 48.72 65.5 48.97 67.21C49.26 69.15 49.62 71.43 51.27 73.7C51.47 73.96 51.66 74.22 51.87 74.46C52.05 74.66 52.24 74.86 52.42 75.05C52.45 75.08 52.48 75.11 52.51 75.14C52.65 75.28 52.8 75.43 52.95 75.56C53.13 75.73 53.32 75.89 53.51 76.04C53.51 76.05 53.52 76.05 53.53 76.06C53.71 76.2 53.9 76.35 54.08 76.48C55.04 77.17 56.03 77.7 56.97 78.1C57.2 78.2 57.42 78.3 57.63 78.37C57.68 78.4 57.73 78.41 57.78 78.43C57.94 78.5 58.1 78.56 58.26 78.61C58.42 78.67 58.58 78.72 58.74 78.77C59.08 78.88 59.39 78.97 59.68 79.05C59.83 79.09 59.98 79.13 60.11 79.16C60.2 79.19 60.29 79.21 60.37 79.23C60.51 79.26 60.62 79.29 60.73 79.31C60.85 79.34 60.96 79.36 61.05 79.38C62.27 79.64 63.32 79.73 63.95 79.77C63.95 79.77 67.68 80.06 71.5 79.23C77.28 77.96 84.93 72.51 86.31 71.55C86.68 71.29 87.06 71.04 87.44 70.8C87.81 70.55 88.19 70.32 88.57 70.1C88.95 69.87 89.33 69.66 89.71 69.45C90.08 69.25 90.43 69.06 90.8 68.87C91.24 68.65 91.68 68.43 92.13 68.23C92.84 67.9 93.56 67.6 94.26 67.32C94.57 67.2 94.87 67.08 95.18 66.97C95.33 66.91 95.49 66.85 95.64 66.81C95.93 66.7 96.21 66.61 96.5 66.51C96.87 66.38 97.23 66.27 97.6 66.16C99.78 65.49 101.85 65.04 103.72 64.72C106.62 64.23 109.02 64.07 110.55 63.96C116.71 63.54 132.49 63.73 139.51 64.95C140.36 65.1 142.99 65.6 145.21 64.18C146.57 63.31 147.22 62.08 147.73 61.11C148.71 59.21 149.06 57.31 149.16 55.74C149.83 56.28 150.39 56.79 150.83 57.21C151.01 57.38 151.17 57.53 151.31 57.68C151.39 57.75 151.45 57.82 151.51 57.88C153.18 59.55 158.91 65.22 157.21 69.12C156.73 70.23 155.75 70.95 154.83 71.4C154.65 71.49 154.47 71.58 154.3 71.65C154.46 71.66 154.63 71.68 154.82 71.69C156.66 71.87 159.53 72.51 161.37 74.78C164.27 78.33 162.76 83.55 161.81 86.84C160.8 90.34 159.17 92.88 158.08 94.35C158.36 93.57 158.62 92.68 158.85 91.72C159.33 89.61 159.44 87.72 159.4 86.18C158.77 89.54 157.52 90.84 156.43 91.39C155.27 91.99 153.92 91.87 153.4 92.87C152.96 93.7 153.41 94.74 153.58 95.15C155.97 100.77 154.4 102.28 158.52 110.09Z" fill="#8080BF"/>
<path d="M116.12 86.9C115.88 90.76 114.64 93.76 113.69 95.58C113.15 95.61 112.58 95.61 111.99 95.61C111.27 95.6 110.57 95.58 109.91 95.54C110.91 93.98 111.95 92.17 112.91 90.11C114.32 87.11 115.23 84.3 115.83 81.92C116.07 83.29 116.23 84.98 116.12 86.9Z" fill="#FF837D"/>
<path d="M154.21 80.1C154.18 82.22 153.88 84.72 152.99 87.38C152.36 89.27 151.57 90.87 150.8 92.15C150.8 92.22 150.79 92.29 150.79 92.36C150.78 92.45 150.78 92.54 150.78 92.63C150.59 92.66 150.4 92.67 150.18 92.68C149.6 92.69 148.93 92.62 148.23 92.38C148.02 92.31 147.82 92.23 147.64 92.14C148.09 91.54 148.52 90.92 148.95 90.26C152.12 85.32 153.45 80.24 153.98 76.07C154.11 77.16 154.24 78.53 154.21 80.1Z" fill="#96DFD3"/>
<path d="M72.1499 103.45C70.7399 104.46 69.1899 104.22 69.1899 104.22C69.2099 102.87 69.3299 101.31 69.6199 99.61C70.0699 97.09 70.7899 94.98 71.4899 93.34C71.7099 96.72 71.9399 100.08 72.1499 103.45Z" fill="#96DFD3"/>
<path d="M112.06 55.89C108.61 58.7 105.87 61.78 103.7 64.72C101.83 65.03 99.7599 65.48 97.5799 66.16C97.2099 66.27 96.8499 66.38 96.4799 66.51C96.1899 66.6 95.91 66.7 95.6199 66.81C95.4699 66.85 95.31 66.91 95.16 66.97C94.8499 67.08 94.5499 67.2 94.2399 67.32C93.5299 67.6 92.8199 67.9 92.1099 68.23C91.6699 68.43 91.2299 68.65 90.7799 68.87C90.4099 69.06 90.0599 69.24 89.6899 69.45C89.3099 69.65 88.93 69.87 88.5499 70.1C88.1699 70.32 87.7899 70.55 87.4199 70.8C87.0399 71.04 86.6599 71.28 86.2899 71.55C84.9099 72.51 77.2599 77.96 71.4799 79.23C67.6599 80.06 63.9299 79.77 63.9299 79.77C63.2999 79.73 62.2599 79.64 61.0299 79.38C60.3199 79.23 58.7399 78.88 56.9399 78.1C55.4399 77.45 53.7899 76.49 52.3799 75.06C51.9699 74.65 51.5899 74.21 51.2299 73.72C49.5799 71.44 49.2199 69.16 48.9299 67.23C48.6799 65.51 48.6199 63.85 48.7199 62.29C48.7999 60.87 48.9899 59.53 49.2499 58.3C49.3299 58.61 49.4299 58.9 49.5299 59.18C49.6499 59.52 49.7599 59.83 49.8799 60.12C49.9299 60.27 49.9899 60.41 50.0499 60.54C50.1099 60.68 50.1599 60.8 50.2199 60.93C50.2599 61.02 50.2999 61.1 50.3399 61.19C50.3499 61.22 50.3599 61.25 50.3699 61.27H50.3799C50.4799 61.48 50.5799 61.67 50.6599 61.84C50.6899 61.9 50.7299 61.96 50.7499 62.02C50.8399 62.19 50.9199 62.33 50.9899 62.44C53.4299 66.65 56.8899 68.68 58.2299 69.44C60.0099 70.45 63.5699 72.47 68.0099 72.08C70.5999 71.84 71.5499 71.01 76.9599 68.34C77.7499 67.96 80.7899 66.66 86.8499 64.06C93.8699 61.06 97.4399 59.54 100.88 58.45C104.46 57.33 107.09 56.5 110.86 56.04C111.28 55.97 111.67 55.92 112.06 55.89Z" fill="#8C72BD"/>
<path d="M145.5 45.57C145.2 45.21 144.88 44.87 144.55 44.53C144.16 44.12 143.75 43.72 143.33 43.34C135.99 36.66 125.67 33.11 117.4 31.23C115.48 30.8 113.67 30.45 112.04 30.18C109.35 29.72 107.14 29.47 105.69 29.33C105.07 29.27 104.59 29.23 104.27 29.2C96.28 28.57 90.57 29.21 87.11 29.76C84.23 30.22 79.51 30.99 74.02 33.2C73.56 33.39 73.06 33.58 72.52 33.8C70.48 34.64 67.95 35.75 65.3 37.28C60.34 40.15 54.97 44.49 51.66 51.23C51.23 52.09 50.5 53.71 49.87 55.87C49.65 56.61 49.44 57.41 49.27 58.27C49.36 58.58 49.45 58.87 49.55 59.15C49.67 59.49 49.78 59.8 49.9 60.09C49.96 60.24 50.01 60.38 50.07 60.51C50.13 60.65 50.18 60.77 50.24 60.9C50.28 60.99 50.32 61.07 50.36 61.16C50.37 61.19 50.38 61.22 50.39 61.24H50.4C50.5 61.45 50.6 61.64 50.68 61.81C50.71 61.87 50.75 61.93 50.77 61.99C50.86 62.16 50.94 62.3 51.01 62.41C53.45 66.62 56.91 68.65 58.25 69.41C60.03 70.42 63.59 72.44 68.03 72.05C70.62 71.81 71.57 70.98 76.98 68.31C77.77 67.93 80.81 66.63 86.87 64.03C93.89 61.03 97.46 59.51 100.9 58.42C104.48 57.3 107.11 56.47 110.88 56.01C111.27 55.96 111.66 55.92 112.04 55.88C117.75 55.34 122.33 56.01 123.8 56.25C127.27 56.82 128.36 57.43 133.92 58.31C138.23 58.98 139.56 58.93 140.87 58.64C141.55 58.49 146.56 57.4 148.15 53.62C148.51 52.77 148.64 51.9 148.61 50.99C147.98 48.91 146.86 47.13 145.5 45.57ZM144.7 51.66C144.65 51.86 144.58 52.05 144.5 52.23C144.44 52.38 144.37 52.52 144.29 52.65C144.24 52.75 144.19 52.85 144.12 52.93C143.98 53.13 143.85 53.31 143.69 53.48C143.63 53.56 143.56 53.62 143.49 53.69C143.38 53.8 143.27 53.91 143.16 54C143.05 54.09 142.95 54.19 142.84 54.27C142.83 54.27 142.83 54.28 142.82 54.28C142.71 54.37 142.6 54.44 142.5 54.51C142.39 54.59 142.28 54.65 142.19 54.71C142.11 54.76 142.04 54.8 141.96 54.85C141.66 55.02 141.42 55.13 141.3 55.19C140 55.79 138.82 55.83 138.36 55.83C138.12 55.83 137.87 55.83 137.59 55.81C137.38 55.8 137.16 55.78 136.93 55.77C135.96 55.69 134.81 55.54 133.51 55.35C133.32 55.32 133.14 55.3 132.95 55.27C132.67 55.23 132.37 55.18 132.07 55.13C131.69 55.07 131.3 55 130.9 54.93C130.35 54.84 129.77 54.73 129.17 54.62C128.58 54.52 127.99 54.41 127.38 54.3C123.55 53.6 119.34 52.81 115.42 52.27C114.95 52.2 114.49 52.14 114.03 52.08C113.57 52.02 113.11 51.97 112.66 51.92C112.21 51.87 111.77 51.83 111.33 51.78C109.97 51.65 108.69 51.58 107.51 51.57C106.64 51.56 105.81 51.6 104.97 51.69C104.64 51.72 104.31 51.76 103.97 51.81C103.6 51.86 103.22 51.92 102.84 52C102.64 52.03 102.45 52.08 102.25 52.12C102.11 52.15 101.99 52.17 101.85 52.21C101.59 52.27 101.31 52.33 101.05 52.4C100.51 52.54 99.95 52.69 99.38 52.86C98.82 53.03 98.23 53.22 97.63 53.42C96.41 53.83 95.12 54.3 93.71 54.84C92.09 55.45 90.34 56.15 88.35 56.93C80.39 60.08 74.17 63.74 69.84 66.64C69.5 66.81 68.68 67.14 67.62 67.05C66.58 66.97 65.86 66.51 65.55 66.3C65.01 66.02 64.48 65.74 63.99 65.45C63.86 65.38 63.74 65.31 63.61 65.23C63.19 64.98 62.78 64.74 62.39 64.49C61.96 64.21 61.55 63.94 61.16 63.67C61.02 63.57 60.87 63.47 60.73 63.36C59.68 62.61 58.81 61.91 58.1 61.29C55.46 59.01 53.69 57.43 53.69 55.25C53.69 55.07 53.7 54.9 53.72 54.73C53.75 54.57 53.78 54.41 53.82 54.25C53.82 54.25 53.82 54.24 53.82 54.23C53.85 54.11 53.9 54 53.94 53.88C54.26 53.04 54.89 52.19 55.8 51C57.43 48.84 59.11 47.34 61.97 45.12C64.89 42.83 66.7 41.43 69.53 39.65C70.19 39.23 71.21 38.6 72.49 37.87C72.7 37.75 72.93 37.62 73.16 37.49C74.74 36.61 76.63 35.64 78.63 34.8C86.48 31.52 93.44 31.39 98.93 31.29C99.67 31.27 101.53 31.25 104.2 31.42C104.45 31.44 104.7 31.45 104.96 31.47C105.01 31.47 105.06 31.47 105.11 31.48C105.42 31.51 105.75 31.53 106.09 31.56C107.55 31.68 109.18 31.86 110.94 32.1C111.19 32.14 111.45 32.18 111.71 32.22C112.13 32.28 112.54 32.35 112.97 32.42C113.18 32.45 113.4 32.49 113.61 32.53C113.95 32.59 114.28 32.65 114.63 32.72C114.94 32.78 115.27 32.84 115.59 32.91C116.12 33.02 116.69 33.16 117.34 33.33C118.47 33.62 119.81 34.02 121.5 34.55C121.71 34.61 121.93 34.68 122.15 34.75C123.09 35.05 124.14 35.38 125.3 35.75C126.25 36.06 127.28 36.39 128.39 36.75C128.87 36.9 129.35 37.06 129.85 37.23C134.05 38.59 139.88 40.56 142.24 44.03C142.36 44.21 142.48 44.4 142.59 44.58C143.16 45.53 143.6 46.54 143.82 47.09C143.83 47.12 143.84 47.13 143.85 47.16C143.89 47.26 143.93 47.35 143.94 47.4C143.97 47.45 143.97 47.49 143.97 47.49C144.64 49.36 145.02 50.4 144.7 51.66Z" fill="#BD9AFF"/>
<path d="M149.14 55.75C149.05 57.32 148.69 59.23 147.71 61.12C147.21 62.09 146.55 63.32 145.19 64.19C142.96 65.6 140.34 65.11 139.49 64.96C132.47 63.74 116.69 63.56 110.53 63.97C109 64.08 106.59 64.23 103.7 64.73C105.87 61.79 108.6 58.71 112.06 55.9C117.77 55.36 122.35 56.03 123.82 56.27C127.29 56.84 128.38 57.45 133.94 58.33C138.25 59 139.58 58.95 140.89 58.66C141.57 58.51 146.58 57.42 148.17 53.64C148.53 52.79 148.66 51.92 148.63 51.01C148.75 51.41 148.85 51.82 148.94 52.23C148.99 52.57 149.24 53.93 149.14 55.75Z" fill="#FF837D"/>
<path d="M144.7 51.66C144.61 52.03 144.47 52.36 144.29 52.65C143.41 54.22 141.71 55 141.3 55.2C140 55.8 138.82 55.84 138.36 55.84C133.61 55.89 120.68 52.64 111.33 51.79C109.97 51.66 108.69 51.59 107.51 51.58C103.18 51.55 99.46 52.64 93.71 54.84C92.09 55.45 90.34 56.15 88.35 56.93C80.39 60.08 74.17 63.74 69.84 66.64C69.5 66.81 68.68 67.14 67.62 67.05C66.58 66.97 65.86 66.51 65.55 66.3C64.39 65.71 63.33 65.09 62.38 64.49C60.56 63.33 59.14 62.2 58.08 61.29C55.44 59.01 53.67 57.43 53.67 55.25C53.67 53.83 54.41 52.81 55.79 51.01C57.42 48.85 59.1 47.35 61.96 45.13C64.88 42.84 66.69 41.44 69.52 39.66C71.07 38.69 74.61 36.48 78.62 34.81C86.47 31.53 93.43 31.4 98.92 31.3C100.48 31.27 107.1 31.2 115.59 32.92C118.23 33.46 122.1 34.71 129.84 37.23C134.04 38.59 139.87 40.56 142.23 44.03C143.25 45.53 143.96 47.48 143.96 47.48C144.64 49.36 145.02 50.4 144.7 51.66Z" fill="#98DC9A"/>
<path d="M67.65 43.78L72.42 49.71L78.89 45.54L74.01 39.78L67.65 43.78Z" fill="#FF837D"/>
<path d="M83.67 42.14L88.11 47.95L82.46 51.24L78.89 45.54L83.67 42.14Z" fill="#FF837D"/>
<path d="M86.1299 55.89L82.4599 51.24L75.8199 54.83L79.7699 59.69L86.1299 55.89Z" fill="#FF837D"/>
<path d="M72.42 49.71L75.82 54.83L70.94 58.81L66.83 53.49L72.42 49.71Z" fill="#FF837D"/>
<path d="M113.88 41.18L114.18 47.65L120.32 47.16L120.08 41.18H113.88Z" fill="#FF837D"/>
<path d="M125.4 36.05C125.74 37.76 126.09 39.47 126.43 41.18C124.31 41.18 122.19 41.18 120.08 41.18L119.78 36.05H125.4Z" fill="#FF837D"/>
<path d="M126.43 41.18L127.12 46.97L133.07 47.1L132.09 41.18H126.43Z" fill="#FF837D"/>
<path d="M127.67 51.9L127.12 46.97L120.32 47.16V51.98L127.67 51.9Z" fill="#FF837D"/>
<path d="M72.52 33.81C70.48 34.65 67.95 35.76 65.3 37.29C58.53 37.88 51.79 43.14 47.65 51.36C47.65 51.33 47.64 51.3 47.64 51.28C47.56 50.38 47.49 49.48 47.42 48.57C47.34 47.59 47.27 46.62 47.2 45.62C47.12 44.55 47.05 43.46 46.98 42.37C46.97 42.23 46.96 42.08 46.95 41.94C46.88 40.88 46.82 39.81 46.77 38.73C46.7 37.51 46.64 36.27 46.59 35.02C46.36 29.51 46.25 24.17 46.24 19H69.1C70.22 23.3 71.27 27.77 72.24 32.4C72.33 32.87 72.43 33.34 72.52 33.81Z" fill="white"/>
<path d="M65.31 37.29C60.35 40.16 54.98 44.5 51.67 51.24C51.24 52.1 50.51 53.72 49.88 55.88C49.66 56.62 49.45 57.42 49.28 58.28C49.02 59.5 48.83 60.85 48.75 62.27C48.66 61.49 48.57 60.71 48.49 59.92C48.38 58.92 48.28 57.91 48.18 56.9C48.07 55.78 47.96 54.65 47.86 53.51C47.79 52.8 47.73 52.08 47.67 51.36C51.8 43.14 58.53 37.88 65.31 37.29Z" fill="#DECDFF"/>
<path d="M54.93 55.74C54.08 56.01 51.04 56.98 50.49 59.69C50.13 61.47 50.97 63.39 52.35 64.41C55 66.37 58.59 64.27 59.1 63.97C59.55 63.71 60.17 63.34 60.69 62.6C61.84 60.98 61.49 59.03 61.35 58.43C61.08 57.3 60.4 56.46 59.05 54.81C56.75 52.01 56.02 51.99 55.92 50.92C55.78 49.37 57.16 47.88 58.61 46.31C59.25 45.62 59.84 45.11 60.26 44.77C59.64 44.67 58.59 44.56 57.35 44.82C56.41 45.02 54.37 45.45 53.35 47.23C53.13 47.61 52.68 48.54 52.8 49.97C54.61 51.79 56.41 53.61 58.22 55.42C57.47 55.35 56.28 55.31 54.93 55.74Z" fill="#96DFD3"/>
<path d="M119.86 19C119.2 20.89 118.6 22.98 118.16 25.25C117.74 27.38 117.51 29.39 117.4 31.23C115.48 30.8 113.67 30.45 112.04 30.18C109.35 29.72 107.14 29.47 105.69 29.33C105.94 28.64 106.19 27.95 106.46 27.28C107.23 26.36 108.16 25.12 109.42 23.73C111.1 21.87 112.86 20.31 114.6 19H119.86V19Z" fill="#FF837D"/>
<path d="M145.5 45.57C145.2 45.21 144.88 44.87 144.55 44.53C144.16 44.12 143.75 43.72 143.33 43.34C135.99 36.66 125.67 33.11 117.4 31.23C117.51 29.39 117.74 27.38 118.16 25.25C118.6 22.98 119.2 20.89 119.86 19H143.74C143.96 23.5 144.22 28.04 144.53 32.65C144.82 37.02 145.15 41.32 145.5 45.57Z" fill="white"/>
<path d="M114.59 19C112.86 20.31 111.1 21.86 109.41 23.73C108.15 25.12 107.22 26.36 106.45 27.28C107.58 24.36 108.81 21.6 110.11 19H114.59Z" fill="#8080BF"/>
<path d="M50.05 94.51C48.49 101.49 48.7 107.48 49.17 111.51C48.19 108.13 47.34 103.89 47.2 99.01C46.89 88.6 49.91 80.22 52.4 75.04C53.8 76.47 55.46 77.44 56.96 78.08C54.51 81.87 51.65 87.39 50.05 94.51Z" fill="#56595B"/>
<path d="M44.4601 70C44.0801 78.81 43.6901 87.62 43.3101 96.43C44.3801 95.74 45.5901 94.84 46.8201 93.69C48.4701 92.15 49.6801 90.6 50.5501 89.3C51.1001 89.96 51.6501 90.62 52.2001 91.27C52.0801 92.7 52.0701 94.45 52.3601 96.42C52.9301 100.24 54.3901 103.13 55.4901 104.92C56.1101 98.01 56.7301 91.1 57.3501 84.19C56.3301 84.27 55.2901 84.33 54.2201 84.38C52.1601 84.48 50.1601 84.52 48.2401 84.52C48.1301 82.76 47.8901 80.77 47.4201 78.6C46.6601 75.13 45.5301 72.24 44.4601 70Z" fill="#F9DE81"/>
<path d="M56.7401 87.9C56.5201 88.41 54.5401 92.79 50.6001 93.55C50.1301 93.64 49.1401 93.75 48.0201 93.3C47.7301 93.18 46.6301 92.7 45.9401 91.54C44.8301 89.64 45.8001 87.57 45.8901 87.37C45.7601 87.12 45.5901 86.85 45.3801 86.58C44.5001 85.46 43.3201 84.99 42.6801 84.8C43.3901 84.96 44.7801 85.17 46.3601 84.66C46.9901 84.46 47.9401 84.15 48.5501 83.39C49.5901 82.11 49.4001 79.89 48.1901 77.82C49.4501 78.93 50.5601 79.63 51.5201 80.06C52.4001 80.45 53.1501 80.61 53.7601 80.68C54.1601 80.72 54.8601 80.76 55.5901 81.21C55.6201 81.22 55.6401 81.24 55.6701 81.25C57.0201 82.12 57.3401 83.77 57.4001 84.1C57.7001 85.67 57.1701 86.91 56.7401 87.9Z" fill="#56595B"/>
<path d="M49.5 87.57C50.16 88.21 49.99 89.87 49.01 90.67C48.42 91.15 47.29 91.53 46.51 90.89C45.99 90.46 45.79 89.68 45.99 88.92C46.99 88.38 47.98 87.84 48.98 87.3C49.15 87.34 49.34 87.42 49.5 87.57Z" fill="#E85E5C"/>
<path d="M51.64 85.22C52.61 84.15 53.58 83.08 54.55 82.01C54.82 82.11 55.41 82.37 55.73 82.97C56.27 83.99 55.79 85.55 54.58 86.1C53.58 86.54 52.34 86.19 51.64 85.22Z" fill="#E85E5C"/>
<path d="M50.25 89.29C51.21 89.73 52.17 90.17 53.13 90.61C53.05 89.48 52.98 88.35 52.9 87.22C52.02 87.9 51.13 88.59 50.25 89.29Z" fill="#E85E5C"/>
<path d="M55.73 77.73C55.68 78.9 55.64 80.07 55.59 81.23C54.87 80.78 54.16 80.75 53.76 80.7C53.15 80.63 52.39 80.47 51.52 80.08C51.67 79.48 52.01 78.9 52.41 78.5C53.23 77.66 54.5 77.36 55.73 77.73Z" fill="#F9DE81"/>
<path d="M104.93 109.43C103.5 109.23 101.67 109.01 99.52 108.89C97.84 108.8 95.95 108.76 93.9 108.82C91.37 108.9 84.04 109.14 79.57 110.76C77.68 111.45 76.31 112.38 76.01 113.64C75.77 114.67 76.08 116.6 80.46 119.93C79.75 119.44 79.04 118.92 78.32 118.37C78.3 118.35 78.29 118.34 78.27 118.33C76.05 116.66 73.76 114.71 71.5 112.46C70.68 111.64 69.88 110.82 69.15 110.01C70.23 110.1 71.9 110.15 73.88 109.81C79.11 108.9 80.09 106.37 84.54 104.96C90.06 103.19 95.33 104.93 97.78 105.74C100.65 106.68 102.88 107.98 104.41 109.05C104.59 109.18 104.77 109.31 104.93 109.43Z" fill="#473830"/>
<path d="M149.8 97.03C149.49 98.35 149.01 99.89 148.26 101.53C148.11 101.86 147.95 102.18 147.79 102.5C146.63 104.81 145.27 106.58 144.14 107.84C144.68 106.96 145.25 105.84 145.73 104.5C146.32 102.84 146.6 101.34 146.72 100.17C145.65 99.51 143.68 98.49 141.08 98.31C140.65 98.28 140.22 98.28 139.8 98.29C139.67 98.3 139.55 98.31 139.42 98.32C139.13 98.35 138.85 98.38 138.58 98.42C138.21 98.46 137.86 98.54 137.52 98.62C137.18 98.7 136.85 98.81 136.53 98.91C136.37 98.96 136.22 99.01 136.06 99.08C135.92 99.13 135.77 99.19 135.63 99.25C135.46 99.32 135.28 99.39 135.12 99.47C134.86 99.59 134.63 99.71 134.39 99.83C133.46 100.32 132.66 100.85 132.04 101.27C128.96 103.33 127.12 105.89 126.07 107.68C126.15 105.89 126.61 102.53 129.02 99.63C133.03 94.82 140.8 93.23 145.26 96.23C146.21 96.87 146.87 97.62 147.29 98.2C147.66 98.11 148.09 97.97 148.55 97.76C148.61 97.73 148.66 97.71 148.72 97.68C149.14 97.45 149.51 97.24 149.8 97.03Z" fill="#473830"/>
<path d="M82.13 119.11C81.54 119.39 80.99 119.66 80.46 119.93C76.08 116.6 75.78 114.67 76.01 113.64C76.31 112.37 77.68 111.45 79.57 110.76C79.71 111.3 79.86 111.85 80.01 112.4C80.16 112.94 80.32 113.51 80.49 114.07C80.63 114.59 80.8 115.11 80.96 115.63C81 115.77 81.04 115.91 81.09 116.05C81.24 116.53 81.4 117.02 81.57 117.51C81.74 118.04 81.93 118.59 82.13 119.11Z" fill="white"/>
<path d="M104.23 114.74C102.9 114.68 101.47 114.66 99.95 114.73C99.94 114.37 99.93 114.01 99.92 113.63C99.92 113.4 99.91 113.16 99.89 112.93C99.87 112.56 99.85 112.19 99.82 111.82C99.79 111.5 99.77 111.17 99.74 110.83C99.68 110.16 99.6 109.5 99.52 108.88C101.67 109.01 103.5 109.22 104.93 109.42C105.2 109.73 106.06 110.96 104.23 114.74Z" fill="white"/>
<path d="M146.73 100.16C146.61 101.33 146.34 102.84 145.74 104.49C145.26 105.83 144.69 106.96 144.15 107.83C143.95 108.17 143.68 108.54 143.36 108.94C143.01 109.36 142.67 109.7 142.36 109.98C141.42 110.13 140.44 110.31 139.43 110.52C139.45 110.41 139.46 110.29 139.46 110.17C139.51 109.42 139.52 108.43 139.45 107.12C139.44 106.9 139.43 106.67 139.42 106.43C139.41 106.29 139.4 106.13 139.39 105.98C139.38 105.78 139.36 105.59 139.35 105.39C139.26 104.17 139.12 102.75 138.93 101.09C138.88 100.63 138.82 100.15 138.76 99.66C138.71 99.26 138.66 98.84 138.6 98.42C138.87 98.38 139.15 98.34 139.44 98.32C139.57 98.31 139.7 98.3 139.82 98.29C140.24 98.27 140.66 98.28 141.1 98.31C143.68 98.47 145.66 99.49 146.73 100.16Z" fill="white"/>
<path d="M99.82 111.83C97.29 111.74 94.1 111.88 90.53 112.65C86.65 113.49 83.47 114.81 81.09 116.04C80.52 114.23 80.02 112.46 79.58 110.76C84.05 109.15 91.38 108.91 93.91 108.82C95.96 108.76 97.85 108.79 99.53 108.89C99.62 109.52 99.69 110.17 99.75 110.84C99.77 111.17 99.8 111.51 99.82 111.83Z" fill="#F9DE81"/>
<path d="M99.95 114.74C99 114.77 98.01 114.84 96.99 114.95C90.91 115.6 85.88 117.36 82.12 119.12C81.92 118.59 81.74 118.05 81.56 117.5C81.4 117.01 81.24 116.52 81.08 116.04C83.32 114.88 86.25 113.65 89.8 112.81C90.04 112.76 90.28 112.7 90.52 112.65C90.72 112.61 90.93 112.56 91.13 112.53C94.45 111.87 97.42 111.75 99.81 111.83C99.84 112.2 99.86 112.58 99.88 112.94C99.9 113.17 99.91 113.41 99.91 113.64C99.93 114.01 99.94 114.38 99.95 114.74Z" fill="#98DC9A"/>
<path d="M139.42 106.42C137.44 106.25 134.78 106.34 131.89 107.35C131.7 107.41 131.51 107.48 131.32 107.55C130.88 107.72 130.45 107.91 130.05 108.09C128.75 108.71 127.67 109.42 126.78 110.12C126.35 109.14 126.16 108.26 126.07 107.65C127.12 105.86 128.96 103.3 132.04 101.24C132.67 100.82 133.46 100.3 134.39 99.8C134.62 99.68 134.87 99.56 135.12 99.44C135.28 99.36 135.46 99.29 135.63 99.22C135.77 99.16 135.92 99.1 136.06 99.05C136.21 98.99 136.37 98.93 136.53 98.88C136.85 98.78 137.18 98.68 137.52 98.59C137.87 98.51 138.22 98.44 138.58 98.39C138.64 98.82 138.69 99.23 138.74 99.63C138.8 100.12 138.86 100.6 138.91 101.06C139.11 102.72 139.24 104.15 139.33 105.36C139.35 105.56 139.36 105.76 139.37 105.95C139.4 106.12 139.41 106.28 139.42 106.42Z" fill="#F9DE81"/>
<path d="M139.46 110.16C139.45 110.28 139.44 110.4 139.43 110.51C138.46 110.71 137.47 110.94 136.44 111.21C133.79 111.89 131.38 112.67 129.24 113.47C128.73 113.04 128.13 112.42 127.57 111.59C127.24 111.1 126.97 110.6 126.78 110.14C127.67 109.44 128.75 108.73 130.05 108.11C130.45 107.92 130.87 107.74 131.32 107.57C131.51 107.49 131.7 107.43 131.89 107.37C134.78 106.36 137.44 106.27 139.42 106.44C139.44 106.68 139.45 106.91 139.45 107.13C139.51 108.42 139.51 109.41 139.46 110.16Z" fill="#98DC9A"/>
<path d="M90.27 111.21C90.69 111.16 91.36 112.47 91.2 113.62C91.17 113.82 91.11 114.3 90.87 114.36C90.55 114.44 89.98 113.72 89.83 112.99C89.67 112.21 89.93 111.25 90.27 111.21Z" fill="#473830"/>
<path d="M130.94 105.78C131.4 105.76 131.89 106.79 131.93 107.67C131.97 108.69 131.43 109.82 130.94 109.81C130.52 109.8 130.19 108.93 130.09 108.36C129.88 107.18 130.41 105.8 130.94 105.78Z" fill="#473830"/>
<path d="M121.97 129.47C121.65 129.96 121.29 130.47 120.91 130.98C119.41 132.96 117.88 134.47 116.58 135.59C115.51 133.97 114.34 131.98 113.29 129.61C112.24 127.27 111.53 125.11 111.04 123.24C111.65 123.25 112.26 123.27 112.87 123.27C113.03 123.52 113.18 123.81 113.34 124.11C113.62 124.71 113.8 125.26 113.91 125.72C114.05 125.21 114.28 124.59 114.66 123.91C114.78 123.7 114.9 123.5 115.03 123.31C116.13 123.34 117.25 123.36 118.35 123.38C119 124.14 119.66 125.03 120.29 126.05C121 127.25 121.55 128.4 121.97 129.47Z" fill="#F58F8A"/>
<path d="M123.81 126.21C123.33 127.19 122.73 128.29 121.97 129.47C121.55 128.41 121 127.25 120.27 126.06C119.64 125.04 118.98 124.16 118.33 123.39C119.55 123.42 120.78 123.44 122 123.47C122.66 123.33 123.34 123.56 123.75 124.07C124.24 124.66 124.26 125.54 123.81 126.21Z" fill="#DC505E"/>
<path d="M115 123.32C114.87 123.51 114.75 123.7 114.63 123.92C114.26 124.6 114.03 125.22 113.88 125.73C113.77 125.27 113.59 124.72 113.31 124.12C113.16 123.81 113 123.53 112.84 123.28C113.57 123.29 114.29 123.31 115 123.32Z" fill="white"/>
<path d="M147.69 126.05C147.15 127.06 146.47 128.21 145.62 129.42C143.18 127.03 140.73 124.64 138.29 122.25C139.11 121.28 139.93 120.31 140.75 119.34C143.06 121.58 145.38 123.81 147.69 126.05Z" fill="#98DC9A"/>
<path d="M118.76 163.99C119.52 164.89 120.18 165.81 120.75 166.71C119.57 166.57 118.46 166.49 117.47 166.44C117.08 165.91 116.62 165.37 116.08 164.84C114.09 162.9 111.8 161.92 109.93 161.41C109.34 161.25 108.8 161.13 108.31 161.05C108.08 161.11 107.92 161.19 107.85 161.24C107.43 161.66 106.63 162.5 105.88 163.71C104.18 166.43 103.61 169.51 103.4 171.99H80.73C80.77 169.67 81.19 166.75 82.52 163.65C85.78 156.04 92.29 152.82 93.99 152.04V149.57C94.75 149.43 95.56 149.26 96.43 149.01C96.49 148.99 96.56 148.98 96.62 148.96C97.48 149.28 98.41 149.57 99.42 149.8C99.5 149.83 99.58 149.84 99.67 149.86C103.27 150.66 106.58 150.46 109.27 149.95C109.19 151.3 109.14 152.71 109.17 154.17C109.19 155.39 109.25 156.56 109.33 157.68C109.6 157.48 110.78 156.65 112.3 156.91C112.9 157.01 113.36 157.25 113.67 157.45C113.58 158 113.49 158.55 113.4 159.1C114.99 160.21 116.92 161.79 118.76 163.99Z" fill="#56595B"/>
<path d="M144.37 150.26C143.55 150.77 142.73 151.3 141.91 151.85C140.29 152.93 138.75 154.02 137.3 155.11C137.28 156.33 137.26 157.56 137.24 158.78C136.48 159.2 135.71 159.62 134.94 160.04C132.76 161.22 130.6 162.35 128.47 163.44C128.58 165.06 128.69 166.7 128.8 168.32C128.29 168.18 127.78 168.04 127.29 167.91C124.81 162.16 120.45 158.74 118.27 157.24C118.38 157.06 118.49 156.87 118.6 156.7C118.55 156.62 115.78 152.58 115.73 152.5C115.69 152.44 113.29 148.93 113.25 148.87C113.12 148.91 113 148.96 112.87 149.01C112.87 148.77 112.86 148.54 112.86 148.3V148.09C118.44 147.43 123.98 145.69 127.94 144.1C128.77 143.77 129.55 143.44 130.23 143.12C131.54 142.52 133.59 141.5 135.99 139.92C136.05 140.08 136.2 140.57 136.02 141.15C135.88 141.58 135.64 141.84 135.5 141.97C135.72 141.87 135.97 141.76 136.24 141.62C136.37 141.56 136.49 141.49 136.62 141.43C136.87 141.29 137.13 141.15 137.4 140.99C138.38 141.9 139.39 142.94 140.37 144.14C142.12 146.26 143.41 148.37 144.37 150.26Z" fill="#56595B"/>
<path d="M150.25 135.88C150.23 136.18 150.22 136.48 150.21 136.77C150.1 136.56 150 136.34 149.89 136.13C150.02 136.05 150.14 135.97 150.25 135.88Z" fill="#FCECDC"/>
<path d="M154.24 144.85C151.11 146.34 147.79 148.12 144.37 150.26C143.41 148.37 142.12 146.26 140.37 144.14C139.38 142.95 138.37 141.9 137.4 140.99C137.94 140.68 138.52 140.29 139.13 139.84C139.48 139.58 139.83 139.27 141.01 138.27C142.49 137.02 143.66 135.93 144.45 135.18C144.37 135.74 144.18 136.53 143.71 137.36C143.49 137.75 143.24 138.09 142.99 138.38C142.12 139.37 141.15 139.88 140.68 140.09C141.51 139.89 142.49 139.61 143.55 139.16C144.64 138.69 145.55 138.18 146.28 137.71C146.53 137.66 146.81 137.59 147.1 137.5C147.29 137.45 147.47 137.38 147.68 137.3C147.88 137.23 148.09 137.15 148.29 137.05C148.92 136.77 149.45 136.45 149.9 136.15C150.01 136.36 150.11 136.58 150.22 136.79C150.19 137.32 150.16 137.84 150.14 138.37C150.39 138.23 150.63 138.07 150.88 137.91C151.55 138.79 152.21 139.74 152.83 140.75C153.21 141.37 153.56 141.99 153.88 142.59C153.89 142.6 153.89 142.6 153.89 142.61L154.07 142.94C154.11 143.02 154.15 143.1 154.2 143.18C154.2 143.19 154.21 143.21 154.22 143.21C154.27 143.36 154.32 143.53 154.35 143.71C154.39 144.16 154.33 144.56 154.24 144.85Z" fill="white"/>
<path d="M154.18 143.17C154.08 142.98 153.98 142.8 153.87 142.6C153.99 142.77 154.1 142.96 154.18 143.17Z" fill="#56595B"/>
<path d="M117.47 166.44C117.44 166.46 117.41 166.47 117.38 166.48C116.56 166.85 115.37 167.53 114.35 168.78C113.5 169.82 113.02 170.94 112.76 171.99H103.39C103.6 169.51 104.17 166.43 105.87 163.71C106.63 162.49 107.43 161.65 107.84 161.24C107.91 161.2 108.07 161.11 108.3 161.05C108.78 161.13 109.33 161.25 109.92 161.41C111.8 161.92 114.08 162.9 116.07 164.84C116.62 165.37 117.08 165.91 117.47 166.44Z" fill="white"/>
<path d="M138.09 172H112.76C113.02 170.95 113.5 169.82 114.35 168.79C115.37 167.54 116.56 166.86 117.38 166.49C117.41 166.47 117.45 166.46 117.47 166.45C120.48 166.59 124.39 167.05 128.8 168.33C129.49 168.52 130.18 168.73 130.88 168.97C133.61 169.87 136.02 170.93 138.09 172Z" fill="#FCECDC"/>
<path d="M173 118.48V125.19C172.57 125.52 172.15 125.86 171.73 126.21C170.48 127.23 167.5 129.69 163.83 133.08C161.03 135.67 157.69 138.95 154.05 142.92L153.87 142.59C153.87 142.58 153.87 142.58 153.86 142.57C153.54 141.97 153.19 141.35 152.81 140.73C152.19 139.72 151.54 138.77 150.86 137.89C151.57 137.44 152.3 136.92 153.04 136.33C153.82 135.72 154.52 135.11 155.14 134.52V135.55C155.94 135.01 157 134.18 158.01 132.96C159.13 131.61 159.78 130.28 160.15 129.34C160.17 129.04 160.18 128.75 160.21 128.46C160.36 125.39 160.24 122.65 159.97 120.26C159.81 119.29 159.6 118.29 159.32 117.27C159.27 117.07 159.21 116.87 159.16 116.67C159.53 116.4 159.88 116.13 160.23 115.9C162.47 114.34 165.65 112.57 169.37 109.8C169.46 110.4 169.58 111.03 169.74 111.68C170.48 114.51 171.73 116.78 173 118.48Z" fill="#FCECDC"/>
<path d="M173 111.53V118.48C171.73 116.77 170.48 114.5 169.76 111.67C169.6 111.02 169.48 110.39 169.39 109.79C170.13 109.24 170.89 108.64 171.68 108.01C171.82 108.58 172 109.18 172.23 109.8C172.46 110.43 172.72 111 173 111.53Z" fill="#F9DE81"/>
<path d="M173 106.9V111.53C172.72 111 172.46 110.43 172.23 109.81C172 109.19 171.81 108.59 171.68 108.02C172.11 107.66 172.55 107.29 173 106.9Z" fill="#56595B"/>
<path d="M93.99 149.86V152.05C92.28 152.83 85.78 156.05 82.52 163.66C81.19 166.75 80.78 169.68 80.73 172H73.42C72.85 170.08 73.42 168.12 74.72 167.17C76.34 166 78.48 166.77 78.67 166.84C75.71 163.16 75.52 159.02 77.35 157.19C77.65 156.89 78.63 156.03 80.75 156.03C79.95 154.72 79.05 152.95 78.34 150.77C77.92 149.5 77.65 148.3 77.47 147.21C77.32 146.37 77.23 145.6 77.18 144.92C77.57 144.89 77.94 144.84 78.28 144.79C78.67 144.73 79.04 144.66 79.38 144.59C80.73 147.22 82.36 148.45 83.32 149.04C86.13 150.76 89.9 151.01 93.99 149.86Z" fill="#8080BF"/>
<path d="M96.6201 148.94V148.97C96.5601 148.99 96.4901 149 96.4301 149.02C96.4901 148.99 96.5601 148.96 96.6201 148.94Z" fill="#56595B"/>
<path d="M96.62 146.37V148.94C96.56 148.97 96.49 148.99 96.43 149.02C95.61 149.35 94.8 149.63 93.99 149.86C89.9 151.02 86.13 150.76 83.33 149.05C82.38 148.46 80.75 147.23 79.39 144.6C79.4 144.59 79.41 144.59 79.42 144.59C80.69 144.34 81.77 143.99 83.04 143.51C83.27 143.6 83.5 143.69 83.73 143.77C83.96 143.85 84.19 143.94 84.43 144.02C85.82 144.5 87.2 144.87 88.61 145.17C89.09 145.27 89.56 145.37 90.04 145.45C91.47 145.71 92.93 145.93 94.43 146.1C95.15 146.2 95.88 146.29 96.62 146.37Z" fill="#96DFD3"/>
<path d="M101.06 167.44L99.6399 172H95.5999C94.0099 171.29 92.46 170.46 90.98 169.54C88.34 167.92 85.89 165.98 83.7 163.79C83.92 162.97 84.36 161.93 85.26 160.98C85.78 160.44 86.37 160 87.04 159.67C87.58 160.15 88.1499 160.61 88.7099 161.06C89.6699 161.83 90.6699 162.54 91.7099 163.2C91.9899 163.38 92.27 163.55 92.55 163.72C92.58 163.75 92.63 163.76 92.66 163.78C93.92 164.54 95.2299 165.21 96.57 165.79C98.04 166.44 99.5299 166.98 101.06 167.44Z" fill="#96DFD3"/>
<path d="M96.51 164.83C96.43 163.61 96.41 162.56 96.42 161.72C96.43 161.12 96.45 160.32 96.5 159.37C95.87 159.89 95.18 160.53 94.49 161.32C93.96 161.92 93.51 162.52 93.13 163.08C93.09 163.05 93.04 163.03 92.99 163C92.47 162.69 91.97 162.37 91.49 162.05C91.41 161.53 91.35 160.98 91.3 160.38C91.21 158.97 91.3 157.72 91.44 156.71C91.03 156.95 90.61 157.27 90.21 157.7C89.5 158.46 89.1 159.32 88.89 160.14C88.27 159.65 87.71 159.15 87.19 158.69C86.57 158.94 85.58 159.44 84.64 160.42C83.3 161.82 82.89 163.39 82.75 164.08C84.57 165.94 87.14 168.19 90.52 170.28C91.58 170.93 92.61 171.51 93.61 172.01H95.58C93.99 171.3 92.44 170.47 90.96 169.55C88.32 167.93 85.87 165.99 83.68 163.8C83.9 162.98 84.34 161.94 85.24 160.99C85.76 160.45 86.35 160.01 87.02 159.68C87.56 160.16 88.13 160.62 88.69 161.07C89.65 161.84 90.65 162.55 91.69 163.21C91.97 163.39 92.25 163.56 92.53 163.73C92.56 163.76 92.61 163.77 92.64 163.79C93.9 164.55 95.21 165.22 96.55 165.8C98 166.45 99.5 166.99 101.03 167.44L99.64 172H100.53C101.07 170.28 101.6 168.57 102.14 166.86C100.52 166.42 98.6 165.79 96.51 164.83Z" fill="#F9DE81"/>
<path d="M98.5701 168.64C96.6801 168 94.9201 167.04 93.2001 166.02C92.3501 165.52 91.5101 165 90.6701 164.48C89.9001 164.01 89.1201 163.55 88.4701 162.9C87.3001 161.74 85.5001 163.55 86.6701 164.7C87.4001 165.43 88.2701 166 89.1501 166.53C90.0701 167.09 90.9901 167.66 91.9101 168.21C93.8201 169.34 95.7801 170.37 97.8901 171.08C98.5401 171.3 99.2801 170.83 99.4601 170.19C99.6501 169.51 99.2301 168.86 98.5701 168.64Z" fill="#FF837D"/>
<path d="M111.89 156.88C110.57 156.8 109.57 157.5 109.32 157.69C109.24 156.57 109.18 155.39 109.16 154.18C109.13 152.72 109.18 151.31 109.26 149.96C109.85 149.85 110.41 149.72 110.93 149.59C110.67 151.48 111.07 154.36 111.89 156.88Z" fill="#98DC9A"/>
<path d="M127.29 167.91C124.92 167.31 122.72 166.93 120.75 166.71C120.18 165.81 119.52 164.89 118.76 163.99C117.06 161.97 115.29 160.46 113.78 159.38C114.41 159.41 115.23 159.34 116.11 158.96C116.42 158.82 117.49 158.35 118.27 157.23C120.44 158.74 124.81 162.16 127.29 167.91Z" fill="#98DC9A"/>
<path fill-rule="evenodd" clip-rule="evenodd" d="M118.6 156.7C118.49 156.88 118.38 157.07 118.27 157.24C117.49 158.35 116.43 158.83 116.11 158.97C115.23 159.34 114.41 159.42 113.78 159.39C113.36 159.38 113.03 159.32 112.84 159.28C112.72 159.03 112.49 158.53 112.24 157.88C112.12 157.56 112 157.23 111.9 156.89C111.08 154.37 110.68 151.49 110.95 149.59C111.66 149.41 112.29 149.22 112.87 149.02C113 148.98 113.13 148.93 113.25 148.88C113.29 148.94 115.69 152.45 115.73 152.51C115.78 152.58 118.55 156.62 118.6 156.7Z" fill="#F9DE81"/>
<path fill-rule="evenodd" clip-rule="evenodd" d="M118.27 157.24C118.38 157.06 118.49 156.87 118.6 156.7C118.53 156.84 118.42 157.03 118.27 157.24Z" fill="#8C72BD"/>
<path d="M115.02 154.39C115.53 154.33 116.04 154.71 116.14 155.24C116.25 155.76 115.94 156.29 115.43 156.47C114.85 156.59 114.28 156.24 114.14 155.72C113.98 155.12 114.41 154.46 115.02 154.39Z" fill="#FF837D"/>
</g>
</g>
<defs>
<clipPath id="clip0">
<rect width="192" height="192" fill="white"/>
</clipPath>
<clipPath id="clip1">
<rect width="153" height="153" fill="white" transform="translate(20 19)"/>
</clipPath>
</defs>
</svg>
