<svg xmlns="http://www.w3.org/2000/svg" viewBox="0 0 192 192"><rect width="152" height="152" x="20" y="20" rx="10" style="fill:#98dc9a;stroke:none;opacity:1;stroke-linecap:round;stroke-linejoin:round;isolation:isolate"/><path d="M78.102 131.186v7.525s-2.275.755-4.272 4.271c.677 1.018 1.018 4.475 1.018 4.475s-12.705 4.303-20.772 12.328c-2.599 2.586-4.336 8.517-5.217 12.215h81.684l-13.62-23.865-4.17-3.164-9.634-11.344z" style="opacity:1;fill:#fff;stroke:none;stroke-width:1px;stroke-linecap:butt;stroke-linejoin:miter;stroke-opacity:1"/><path d="M66.71 150.203s-4.357.763-6.608 4.475c0 0 8.08-.411 11.289 1.627 6.14 3.899 9.37 12.093 10.545 15.695h7.82c-1.08-2.677-5.732-13.72-10.738-17.22-6.738-4.71-12.307-4.577-12.307-4.577z" style="fill:#728dbe;stroke:none;stroke-width:1px;stroke-linecap:butt;stroke-linejoin:miter;stroke-opacity:1"/><path d="m118.678 148.88 7.867 23.12h20.834c-2.363-3.336-7.855-10.165-17.21-16.61-8.398-5.786-11.491-6.51-11.491-6.51z" style="fill:#d8d8d8;stroke:none;stroke-width:1px;stroke-linecap:butt;stroke-linejoin:miter;stroke-opacity:1"/><path d="M114.203 146.135 124.941 172h7.965l-13.515-23.12s-1.245-1.371-2.442-2.032-2.746-.713-2.746-.713z" style="fill:#728dbe;stroke:none;stroke-width:1px;stroke-linecap:butt;stroke-linejoin:miter;stroke-opacity:1"/><path d="M103.459 150.467c-1.904-.048-4.294.156-6.238 1.16-3.749 1.936-3.764 5.492-3.764 5.492s2.803-1.04 4.272-1.424c1.35-.353 2.81-.727 4.17-.406 2.104.498 3.82 2.085 5.492 3.457.685.563 1.404 1.153 1.83 1.932 1.524 2.792 2.67 7.328 3.465 11.322h1.867c-.84-3.928-1.995-8.484-3.4-11.729-.004-.731.273-1.443.507-2.136.214-.633.815-1.83.815-1.83l-5.696-5.49s-1.416-.3-3.32-.348z" style="fill:#d8d8d8;stroke:none;stroke-width:1px;stroke-linecap:butt;stroke-linejoin:miter;stroke-opacity:1"/><path d="M73.83 142.982c.093 1.497.019 2.756 1.018 4.475 1.097.169 2.205.189 2.949.611 1.794 1.02 2.943 2.917 4.17 4.577 1.662 2.248 2.156 5.39 4.27 7.22 2.216 1.921 5.327 2.573 8.136 3.356 1.223.34 2.338-2.035 2.338-2.035s1.898 4.243 2.644 7.017c.282 1.046.573 2.393.852 3.797h1.963c-.321-1.445-.656-2.829-.984-3.898-1.139-3.707-4.372-10.78-4.372-10.78s-.862 4.148-2.441 4.069c-2.072-.105-5.135-1.083-7.018-2.746-1.733-1.532-1.954-4.224-3.304-6.102-1.408-1.957-3.098-3.725-4.932-5.29-1.532-1.305-4.152-3.582-5.289-4.27z" style="fill:#d8d8d8;stroke:none;stroke-width:1px;stroke-linecap:butt;stroke-linejoin:miter;stroke-opacity:1"/><path d="M83.492 149.797c-.048-2.531-2.71-5.251-1.12-7.22 1.646-2.038 5.218-.761 7.831-.61 2.828.162 5.513 1.453 8.34 1.626 1.933.119 3.99.293 5.796-.407 1.733-.67 4.373-3.457 4.373-3.457s.868-2.293 1.83-2.237c3.38.193 4.983 5.195 5.492 8.542.555 3.65.576 9.58-2.95 10.678-2.871.894-4.785-4.709-7.626-5.695-1.09-.378-1.61-.201-2.746 0a22.009 22.009 0 0 0-6.102 2.034c-3.228 1.641-5.941 5.44-9.56 5.593-1.928.082-3.396-.516-4.27-2.237-.957-1.883.751-4.5.712-6.61z" style="fill:#ff837d;stroke:none;stroke-width:1px;stroke-linecap:butt;stroke-linejoin:miter;stroke-opacity:1;opacity:1"/><path d="M99.296 151.95s-.093-2.986-.347-4.594c-.389-2.46-.34-3.785-.34-3.785s1.797-1.052 2.984-.995c2.128.102 3.56.814 3.56.814s1.329 1.15 1.399 3.763c.036 1.372-.993 3.864-.993 3.864s-1.905 1.013-2.949 1.22c-1.13.225-3.314-.287-3.314-.287z" style="fill:#ba6561;stroke:none;stroke-width:1px;stroke-linecap:butt;stroke-linejoin:miter;stroke-opacity:1"/><path d="M88.592 145.978s1.36-1.58 5.178-1.222c2.118.199 5.141 1.977 5.141 1.977l7.227-.935s.223-.932 3.092-1.977c-2.542 1.57-2.768 2.625-2.768 2.625l.107 1.078s1.617-.784 4.063.468c-3.732-.189-4.782.647-4.782.647l-6.615 2.013s-1.112-1.41-2.05-1.474c-1.256-.086-1.728.026-4.854 1.582-.573.285-1.557-.08-1.51-.719.08-1.087 1.782-1.361 2.84-1.618 1.108-.268 3.057-.431 3.057-.431s-2.111-1.488-3.632-1.942c-1.324-.395-4.494-.072-4.494-.072z" style="fill:#ba6561;stroke:none;stroke-width:1px;stroke-linecap:butt;stroke-linejoin:miter;stroke-opacity:1"/><path d="M78.102 131.186c.016-1.749 4.17-3.186 4.17-3.186l15.559 13.254S86.237 136.331 84 136c-2.51-.371-5.939-.344-5.898-4.814z" style="fill:#d8d8d8;stroke:none;stroke-width:1px;stroke-linecap:butt;stroke-linejoin:miter;stroke-opacity:1"/><path d="M81.153 111.966v17.39c0 6.245 4.873 7.135 16.87 11.737 3.78-3.452 5.91-5.15 5.91-8.483v-18.712Z" style="fill:#d6c8ba;stroke:none;stroke-width:1px;stroke-linecap:butt;stroke-linejoin:miter;stroke-opacity:1"/><path d="M120.61 50.847s6.42 2.24 7.627 9.56c1.208 7.32-2.237 16.576-2.237 16.576Z" style="fill:#8e6f60;stroke:none;stroke-width:1px;stroke-linecap:butt;stroke-linejoin:miter;stroke-opacity:1"/><path d="M71.478 88.882s4.342 17.296 9.492 24.306c7.349 10.004 16.673 22.364 29.051 23.298 3.813.288 7.663-2.67 9.923-5.753 2.47-3.367 1.65-8.192 2.733-12.224 2.072-7.717 6.403-14.916 7.19-22.867.577-5.806-1.103-11.619-1.869-17.402-.809-6.11-1.29-12.31-2.876-18.265-1.558-5.85-2.391-12.498-6.472-16.97-5.578-6.114-14.017-10.824-22.292-10.931-8.28-.107-17.166 4.09-22.58 10.355-5.028 5.82-6.032 14.47-6.471 22.148-.47 8.207 4.17 24.305 4.17 24.305z" style="fill:#fcecdc;stroke:none;stroke-width:1px;stroke-linecap:butt;stroke-linejoin:miter;stroke-opacity:1"/><path d="M76.271 95.797s-.823-7.807-1.017-12.509c-.216-5.251.901-10.53.407-15.763-.6-6.354-4.524-12.345-4.068-18.711.25-3.49 1.526-5.695 1.526-5.695s-5.422.348-9.865 15.05c-1.51 4.998-.964 10.551.102 15.662 1.53 7.328 8.847 19.322 8.847 19.322z" style="fill:#8e6f60;stroke:none;stroke-width:1px;stroke-linecap:butt;stroke-linejoin:miter;stroke-opacity:1"/><path d="M74.746 97.932s-.429-.835-.987-2.282A39.198 39.198 0 0 1 72 89.695c-.515-2.448-.54-5.296-.844-7.023a13.53 13.53 0 0 0-.987-3.147s-2.63-5.839-6.406-5.593c-3.332.217-3.613 6.268-2.644 9.661 1.21 4.241 4.27 7.906 7.525 10.882 1.725 1.577 6.102 3.457 6.102 3.457z" style="fill:#fcecdc;stroke:none;stroke-width:1px;stroke-linecap:butt;stroke-linejoin:miter;stroke-opacity:1"/><path d="M94.632 99.74s4.578 8.509 8.414 11.146c2.425 1.668 5.565 2.817 8.485 2.445 3.038-.386 5.787-2.467 7.91-4.674 2.38-2.473 4.89-9.06 4.89-9.06l-12.368 1.654-16.18-4.027z" style="fill:#d6c8ba;stroke:none;stroke-width:1px;stroke-linecap:butt;stroke-linejoin:miter;stroke-opacity:1"/><path d="M92.746 104.44s-2.345-3.526-1.932-5.39c.704-3.181 3.127-4.567 5.593-5.186 5.064-1.27 9.932 3.901 15.152 3.967 4.144.051 8.468-2.583 12.102-2.34 1.642.11 2.449 1.824 2.339 4.272-.09 2.002-1.627 5.084-1.627 5.084s.268-4.081-1.22-4.78c-1.893-.886-3.97 2.995-11.492 3.052-11.094.083-13.416-6.096-16.17-4.577-1.898 1.048-2.745 5.899-2.745 5.899zM83.186 68.44s1.984-6.613 8.238-8.338c4.217-1.164 12.712 1.627 12.712 1.627v4.068s-6.54-3.376-11.797-2.848c-4.513.454-9.153 5.492-9.153 5.492zM112.271 62.136l-.198 4.27s4.25-4.448 7.012-4.575c3.432-.16 5.186 2.542 5.186 2.542s-.446-4.713-5.491-5.492c-2.472-.381-6.509 3.255-6.509 3.255z" style="fill:#8e6f60;stroke:none;stroke-width:1px;stroke-linecap:butt;stroke-linejoin:miter;stroke-opacity:1"/><path d="M88.233 80.253s1.82-6.783 7.622-7.766c3.169.245 6.63 1.633 6.184 4.674-.466 3.178-4.195 4.536-6.4 4.962-2.51.431-7.406-1.87-7.406-1.87z" style="fill:#fff;stroke:none;stroke-width:1px;stroke-linecap:butt;stroke-linejoin:miter;stroke-opacity:1"/><rect width="7.55" height="7.55" x="90.39" y="73.062" ry="3.775" style="opacity:1;vector-effect:none;fill:#728dbe;fill-opacity:1;fill-rule:evenodd;stroke:none;paint-order:stroke fill markers"/><path d="M96.574 70.545c3.885-.072 5.321 4.818 5.321 4.818s-2.976-2.252-4.674-2.085c-5.773.567-6.798 4.765-10.499 7.263-.92.62-3.595-1.079-3.595-1.079s1.545-1.02 2.589-1.582c3.898-2.1 4.78-7.222 10.858-7.335zM86.291 82.267s1.408-1.32 2.301-1.582c2.324-.684 4.862.536 7.263.215 3.515-.47 5.825-2.516 5.825-2.516s-.92 3.875-5.466 4.817c-2.457.51-4.975-.682-7.478-.862-.813-.06-2.445-.072-2.445-.072z" style="fill:#d6c8ba;stroke:none;stroke-width:1px;stroke-linecap:butt;stroke-linejoin:miter;stroke-opacity:1"/><path d="M112.106 62.42s-.787 9.627-.215 12.152c1.278 5.648 2.418 9.034 7.334 15.748 1.052 1.436-1.96 3.891-3.739 3.812-3.25-.146-6.184-7.55-6.184-7.55s-2.905 3.182-3.02 5.177c-.049.835 1.006 2.3 1.006 2.3s-2.67 1.204-3.955.073c-.603-.531-.778-1.5-.719-2.301.061-.824.671-1.512 1.079-2.23 1.108-1.95-1.942-.647-1.942-.647s-2.656 2.224-4.602 2.373c-6.906.528-7.334 5.465-7.334 5.465s2.006-3.527 6.4-3.595c1.793-.028 4.961-2.086 4.961-2.086s-.464 2.047-.072 2.949c.678 1.557 1.346 3.027 3.811 3.38 1.054.15 2.949-1.223 2.949-1.223s3.605 2.41 5.609 2.23c2.927-.265 6.042-2.145 7.262-4.819.514-1.125-.36-3.523-.36-3.523 2.092 2.077 4.74 2.992 6.688 6.328.553 1.482-.071 4.746-.071 4.746s1.79-4.94.647-6.975c-1.661-2.956-7.407-6.113-7.407-6.113s-5.406-7.848-7.55-14.382c-.804-2.45-.576-11.29-.576-11.29z" style="fill:#d6c8ba;stroke:none;stroke-width:1px;stroke-linecap:butt;stroke-linejoin:miter;stroke-opacity:1"/><path d="M97.15 100.244s4.053 10.13 13.015 10.14c7.847.007 11.002-8.055 11.002-8.055s-4.775 3.212-11.577 3.236c-4.51.016-12.44-5.321-12.44-5.321zM120.088 79.03s2.189-1.435 2.517-2.732c.371-1.465-.982-3.723-2.157-4.674-1.455-1.178-4.818-.79-4.818-.79l-2.805 4.026 1.08 3.164 3.666 1.222z" style="fill:#fff;stroke:none;stroke-width:1px;stroke-linecap:butt;stroke-linejoin:miter;stroke-opacity:1"/><rect width="7.119" height="7.119" x="113.365" y="70.725" ry="3.56" style="opacity:1;vector-effect:none;fill:#728dbe;fill-opacity:1;fill-rule:evenodd;stroke:none;stroke-width:.94285715;paint-order:stroke fill markers"/><path d="M112.83 75.013s1.492-2.806 4.598-2.814c3.853-.01 6.687 3.308 6.687 3.308s-1.322-6.475-7.119-6.831c-2.693-.166-5.102 2.957-5.102 2.957l.288 2.876zM113.113 76.514s2.954 1.983 5.034 2.013c2.869.042 3.916-.873 5.321-1.797.272-.18.793-.006.935.287.201.417-.201.944-.504 1.295-.804.931-3.37 2.071-5.32 2.157-1.78.078-5.034-1.51-5.034-1.51z" style="fill:#d6c8ba;stroke:none;stroke-width:1px;stroke-linecap:butt;stroke-linejoin:miter;stroke-opacity:1"/><rect width="4.099" height="4.099" x="92.116" y="75.004" ry="2.049" style="opacity:1;vector-effect:none;fill:#56595b;fill-opacity:1;fill-rule:evenodd;stroke:none;paint-order:stroke fill markers"/><rect width="2.085" height="2.085" x="92.259" y="75.795" ry="1.043" style="opacity:1;vector-effect:none;fill:#fff;fill-opacity:1;fill-rule:evenodd;stroke:none;paint-order:stroke fill markers"/><rect width="3.865" height="3.865" x="114.776" y="72.475" ry="1.932" style="opacity:1;vector-effect:none;fill:#56595b;fill-opacity:1;fill-rule:evenodd;stroke:none;stroke-width:.94285715;paint-order:stroke fill markers"/><rect width="1.966" height="1.966" x="114.912" y="73.221" ry=".983" style="opacity:1;vector-effect:none;fill:#fff;fill-opacity:1;fill-rule:evenodd;stroke:none;stroke-width:.94285715;paint-order:stroke fill markers"/></svg>