<svg xmlns="http://www.w3.org/2000/svg" width="192" height="192"><path d="M47.916 11.775c-5.594.01-9.451 5.612-7.465 10.842A80 80 0 0 0 20 75.855c.043 41.053 31.153 75.41 72 79.516V160c-43.972 1.556-44 15.855-44 15.855S48 180 52 180h96c4 0 4-4.145 4-4.145s-.029-14.3-44-15.855v-4.568a80 80 0 0 0 45.2-20.02c8.141 3.167 14.742-7.145 8.456-13.213l-12.28-12.28A60 60 0 0 0 160 75.856c0-33.137-26.863-60-60-60a60 60 0 0 0-34.025 10.663L53.656 14.199a8 8 0 0 0-5.74-2.424zm.545 19.854 5.617 5.617A60 60 0 0 0 40 75.856c0 33.137 26.863 60 60 60a60 60 0 0 0 38.57-14.118l5.63 5.63a68 68 0 0 1-44.2 16.487c-37.555 0-68-30.444-68-68A68 68 0 0 1 48.46 31.63z" style="opacity:1;vector-effect:none;fill:#f8c18c;fill-opacity:1;paint-order:stroke fill markers"/><path d="M100 36c-22.091 0-40 17.909-40 40s17.909 40 40 40 40-17.909 40-40a40 40 0 0 0-7.303-22.957L104 72l4.316 6.736 7.532-4.826c.096.693.147 1.39.152 2.09 0 8.837-7.163 16-16 16s-16-7.163-16-16 7.163-16 16-16a16 16 0 0 1 4.832.752l13.508-20.26A40 40 0 0 0 100 36Z" style="opacity:1;vector-effect:none;fill:#fff;fill-opacity:1;paint-order:stroke fill markers"/><rect width="60" height="60" x="112" y="112" ry="12" style="opacity:1;vector-effect:none;fill:#728dbe;fill-opacity:1;paint-order:stroke fill markers"/><circle cx="130" cy="130" r="6" style="opacity:1;vector-effect:none;fill:#9abeff;fill-opacity:1;paint-order:stroke fill markers"/><circle cx="154" cy="130" r="6" style="opacity:1;vector-effect:none;fill:#9abeff;fill-opacity:1;paint-order:stroke fill markers"/><circle cx="142" cy="142" r="6" style="opacity:1;vector-effect:none;fill:#9abeff;fill-opacity:1;paint-order:stroke fill markers"/><circle cx="154" cy="154" r="6" style="opacity:1;vector-effect:none;fill:#9abeff;fill-opacity:1;paint-order:stroke fill markers"/><circle cx="130" cy="154" r="6" style="opacity:1;vector-effect:none;fill:#9abeff;fill-opacity:1;paint-order:stroke fill markers"/></svg>