<?xml version="1.0" encoding="UTF-8" standalone="no"?>
<!DOCTYPE svg PUBLIC "-//W3C//DTD SVG 1.1//EN" "http://www.w3.org/Graphics/SVG/1.1/DTD/svg11.dtd">
<svg width="100%" height="100%" viewBox="0 0 192 192" version="1.1" xmlns="http://www.w3.org/2000/svg" xmlns:xlink="http://www.w3.org/1999/xlink" xml:space="preserve" xmlns:serif="http://www.serif.com/" style="fill-rule:evenodd;clip-rule:evenodd;stroke-linejoin:round;stroke-miterlimit:2;">
    <g id="Layer1">
        <g transform="matrix(1,0,0,1,8,8)">
            <path d="M164.5,21.5C164.5,15.981 160.019,11.5 154.5,11.5L21.5,11.5C15.981,11.5 11.5,15.981 11.5,21.5L11.5,154.5C11.5,160.019 15.981,164.5 21.5,164.5L154.5,164.5C160.019,164.5 164.5,160.019 164.5,154.5L164.5,21.5Z" style="fill:white;"/>
        </g>
        <g transform="matrix(0.787279,0,0,0.787279,20.4212,20.4212)">
            <circle cx="96" cy="96" r="57.552" style="fill:rgb(255,131,125);"/>
            <g transform="matrix(0.607414,0,0,0.607414,37.6883,37.6883)">
                <circle cx="96" cy="96" r="57.552" style="fill:rgb(74,74,74);"/>
            </g>
            <path d="M95.249,91.572L138.112,48.71C143.444,53.408 147.9,59.075 151.205,65.437L98.823,117.819C96.849,119.793 93.65,119.793 91.676,117.819C86.254,112.397 76.007,102.15 70.585,96.728C68.611,94.754 68.611,91.554 70.585,89.58C72.934,87.231 75.998,84.167 78.347,81.818C80.321,79.844 83.521,79.844 85.495,81.818L95.249,91.572Z" style="fill:white;"/>
        </g>
    </g>
</svg>
