<svg xmlns="http://www.w3.org/2000/svg" xmlns:xlink="http://www.w3.org/1999/xlink" xml:space="preserve" viewBox="0 0 192 192"><path fill="#FFF" d="M177 192H15c-8.3 0-15-6.8-15-15V15C0 6.8 6.8 0 15 0h162c8.3 0 15 6.8 15 15v162c0 8.3-6.7 15-15 15z"/><image xlink:href="D:\DESIGN\туццццц\Новая папка (4)\marvin\30E0AF75.jpg" width="241" height="241" overflow="visible" transform="translate(2.215 -221) scale(.7734)"/><path fill="#B1B5BE" d="M130.7 171.2c-16.2.1-27.6-15.3-22.8-30.9.6-2 1-3.5-.2-5.5-6.6-10.7-11.2-22.3-15.5-34-4-11-8.2-21.9-13.7-32.2-1.3-2.4-2.2-2.8-4.6-1.4-6.7 3.9-13.9 4.2-20.9 1.1-2.7-1.2-3.5-.5-4.4 1.8-7.3 17.6-11.7 36-15.6 54.6-3.8 17.8-6.9 35.7-9.4 53.7-.5 3.3-1.5 3.6-4.2 2-5.1-3-6.8-5.9-5.9-11.3 4.8-29.2 9.8-58.4 18.6-86.8 2.3-7.3 4.9-14.5 8.4-21.4.9-1.8.8-3.2.1-5.1-5.5-13.6 1.1-27.9 14.9-32.2 13.3-4.2 26.9 3.8 30.2 17.7.9 3.8 1 7.8-.4 11.5-.9 2.5-.3 4.3 1 6.5C94 71.9 98.9 85.7 104 99.5c3.3 8.9 7 17.6 11.4 26 1 1.8 1.7 2.2 3.7 1.1 6.7-3.9 13.9-4.3 20.9-1.1 3.2 1.5 3.9.3 4.9-2.2C151 108.5 155 93 158.5 77.4c4.7-20.8 8.5-41.7 11.8-62.8.4-2.8 1.3-3.2 3.7-1.9 5 2.7 7.1 6 6.3 10.7-5.1 30-10.4 59.9-19.5 89-2.2 6.9-4.7 13.8-8 20.3-1 2-1 3.6-.2 5.8 6.2 15.9-5.1 32.6-21.9 32.7zm16.1-23.5c.1-9.6-6.9-16.6-16.4-16.6-9 0-16.3 7.4-16.3 16.4 0 8.6 7.5 16.2 16.1 16.3 9.1.1 16.5-7.1 16.6-16.1zM46 46.5C46 55.6 53.3 63 62.2 63c8.9-.1 16.5-7.6 16.5-16.4 0-9-7.4-16.3-16.4-16.3C53 30.3 46 37.2 46 46.5z"/><path fill="#C59CFF" d="M146.8 147.7c-.1 9-7.5 16.2-16.5 16.1-8.6-.1-16.1-7.7-16.1-16.3 0-9 7.3-16.4 16.3-16.4 9.4 0 16.3 7 16.3 16.6zM46 46.5c0-9.2 7-16.1 16.3-16.2 8.9 0 16.3 7.3 16.4 16.3 0 8.7-7.6 16.3-16.5 16.4C53.3 63 46 55.6 46 46.5z"/></svg>