<svg xmlns="http://www.w3.org/2000/svg" viewBox="0 0 152 152"><title>Geometry Dash Lite</title><rect width="152" height="152" rx="10" fill="#98dc9a"/><path d="M30.5,150.5h120" transform="translate(-20 -20)" fill="none" stroke="#fff" stroke-linecap="square"/><path d="M28.56,139.77l-.06.11V150.5H66.82l-.38-.73-21-41-.44-.86-.44.86Z" transform="translate(-20 -20)" fill="#4a4a4a" stroke="#fff"/><rect x="5" y="5" width="142" height="142" rx="5" fill="none" stroke="#f9de81" stroke-width="10"/><path d="M49.54,88.66a5,5,0,0,1,0-7.08l55.15-55.15a5,5,0,0,1,7.07,0l55.15,55.15a5,5,0,0,1,0,7.08l-55.15,55.15a5,5,0,0,1-7.07,0Z" transform="translate(-20 -20)" fill="#f9de81" stroke="#4a4a4a" stroke-width="3" fill-rule="evenodd"/><path d="M76.12,84.86a3,3,0,0,1,0-4.24l6.37-6.37a3,3,0,0,1,4.24,0l6.36,6.37a3,3,0,0,1,0,4.24l-6.36,6.36a3,3,0,0,1-4.24,0Z" transform="translate(-20 -20)" fill="#9abeff" stroke="#4a4a4a" stroke-width="3" fill-rule="evenodd"/><path d="M91.12,107.49a3,3,0,0,1,0-4.24l35.36-35.36a3,3,0,0,1,4.24,0l6.36,6.37a3,3,0,0,1,0,4.24l-35.35,35.36a3,3,0,0,1-4.24,0Z" transform="translate(-20 -20)" fill="#9abeff" stroke="#4a4a4a" stroke-width="3" fill-rule="evenodd"/><path d="M99.12,62.86a3,3,0,0,1,0-4.24l6.37-6.37a3,3,0,0,1,4.24,0l6.36,6.37a3,3,0,0,1,0,4.24l-6.36,6.36a3,3,0,0,1-4.24,0Z" transform="translate(-20 -20)" fill="#9abeff" stroke="#4a4a4a" stroke-width="3" fill-rule="evenodd"/></svg>