<svg xmlns="http://www.w3.org/2000/svg" viewBox="0 0 153.17 153.17"><title>Geometry Dash SubZero</title><rect x="1.32" y="1.32" width="150.54" height="150.54" rx="9.9" fill="#54688c"/><path d="M30,151H151" transform="translate(-19.41 -19.41)" fill="none" stroke="#fff" stroke-linecap="square"/><path d="M28,140.13l-.06.11V151H66.58l-.38-.73L45,108.88l-.45-.87-.45.87Z" transform="translate(-19.41 -19.41)" fill="#4a4a4a" stroke="#fff"/><rect x="5" y="5" width="143.17" height="143.17" rx="5.04" fill="none" stroke="#f9de81" stroke-width="10"/><path d="M49.15,88.59a5,5,0,0,1,0-7.13l55.61-55.61a5.06,5.06,0,0,1,7.13,0L167.5,81.46a5,5,0,0,1,0,7.13L111.89,144.2a5,5,0,0,1-7.13,0Z" transform="translate(-19.41 -19.41)" fill="#728dbe" stroke="#4a4a4a" stroke-width="3" fill-rule="evenodd"/><polygon points="117.52 56.28 104.86 56.28 104.86 68.83 92.03 68.83 92.03 81.66 79.48 81.66 79.48 94.32 69.17 100.14 92.36 107.2 92.36 97.79 105 93.31 105 81.8 116.51 81.8 120.99 69.16 130.4 69.16 123.34 45.97 117.52 56.28" fill="#9abeff" stroke="#4a4a4a" stroke-linejoin="round" stroke-width="3" fill-rule="evenodd"/><path d="M65.09,88.13a14.3,14.3,0,0,0,.57,2.54,14.47,14.47,0,1,0,27.55-8.89,15.51,15.51,0,0,0-1-2.39Z" transform="translate(-19.41 -19.41)" fill="#9abeff" stroke="#4a4a4a" stroke-linejoin="round" stroke-width="3" fill-rule="evenodd"/><path d="M101.13,66.7a14.17,14.17,0,0,0,2.2,1.4,14.47,14.47,0,0,0,13.19-25.77,14.17,14.17,0,0,0-2.42-1Z" transform="translate(-19.41 -19.41)" fill="#9abeff" stroke="#4a4a4a" stroke-linejoin="round" stroke-width="3" fill-rule="evenodd"/></svg>