<?xml version="1.0" encoding="UTF-8" standalone="no"?>
<svg
   xmlns:dc="http://purl.org/dc/elements/1.1/"
   xmlns:cc="http://creativecommons.org/ns#"
   xmlns:rdf="http://www.w3.org/1999/02/22-rdf-syntax-ns#"
   xmlns:svg="http://www.w3.org/2000/svg"
   xmlns="http://www.w3.org/2000/svg"
   viewBox="0 0 256 256"
   height="256"
   width="256"
   xml:space="preserve"
   id="svg2"
   version="1.1"><metadata
     id="metadata8"><rdf:RDF><cc:Work
         rdf:about=""><dc:format>image/svg+xml</dc:format><dc:type
           rdf:resource="http://purl.org/dc/dcmitype/StillImage" /></cc:Work></rdf:RDF></metadata><defs
     id="defs6"><clipPath
       id="clipPath18"
       clipPathUnits="userSpaceOnUse"><path
         id="path16"
         d="M 0,192 H 192 V 0 H 0 Z" /></clipPath></defs><g
     transform="matrix(1.3333333,0,0,-1.3333333,0,256)"
     id="g10"><g
       id="g12"><g
         clip-path="url(#clipPath18)"
         id="g14"><g
           transform="translate(152.2432)"
           id="g20"><path
             id="path22"
             style="fill:#00df93;fill-opacity:1;fill-rule:nonzero;stroke:none"
             d="m 0,0 h -112 c -22,0 -40,18 -40,40 v 112 c 0,22 18,40 40,40 H 0 c 22,0 40,-18 40,-40 V 40 C 40,18 22,0 0,0" /></g><g
           transform="translate(107.3564,125.959)"
           id="g24"><path
             id="path26"
             style="fill:#ffffff;fill-opacity:1;fill-rule:nonzero;stroke:none"
             d="m 0,0 c -12.226,0.702 -18.442,-11.45 -14.964,-19.715 3.44,-8.175 11.543,-13.463 21.147,-10.699 5.866,1.689 10.961,4.92 16.408,7.455 5.628,2.619 6.692,6.958 5.634,11.962 -6.244,29.523 -39.502,42.527 -63.768,24.059 -9.185,-6.991 -13.877,-16.489 -15.487,-27.71 -0.185,-1.291 0.217,-2.273 1.371,-3.023 1.068,-0.694 1.853,-0.202 2.639,0.381 1.12,0.831 2.269,1.646 3.271,2.608 3.614,3.471 6.259,7.7 8.967,11.852 8.997,13.796 28.609,17.156 42.384,4.944 C 8.244,1.545 9.081,0.983 8.631,-0.021 8.121,-1.156 7.037,-1.04 6.096,-0.753 3.891,-0.083 1.609,-0.194 0,0 M -11.111,30.375 C 4.506,29.958 17.442,23.966 26.728,11.139 40.65,-8.096 40.697,-27.896 28.493,-47.971 21.151,-60.047 13.114,-71.611 3.41,-81.955 c -7.939,-8.463 -20.599,-8.554 -28.854,-0.346 -7.448,7.405 -13.288,16.028 -19.284,24.551 -5.456,7.755 -10.636,15.664 -13.077,24.976 -3.933,15.008 -1.551,28.991 6.987,41.953 5.443,8.264 12.668,14.391 21.913,17.899 5.668,2.151 11.504,3.916 17.794,3.297" /></g><g
           transform="translate(107.3564,125.959)"
           id="g28"><path
             id="path30"
             style="fill:#69c0ff;fill-opacity:1;fill-rule:nonzero;stroke:none"
             d="m 0,0 c 1.609,-0.194 3.891,-0.083 6.096,-0.753 0.941,-0.287 2.025,-0.403 2.535,0.732 0.45,1.004 -0.387,1.566 -1.029,2.135 -13.775,12.212 -33.387,8.852 -42.384,-4.944 -2.708,-4.152 -5.353,-8.381 -8.967,-11.852 -1.002,-0.962 -2.151,-1.777 -3.271,-2.608 -0.786,-0.583 -1.571,-1.075 -2.639,-0.381 -1.154,0.75 -1.556,1.732 -1.371,3.023 1.61,11.221 6.302,20.719 15.487,27.71 24.266,18.468 57.524,5.464 63.768,-24.059 1.058,-5.004 -0.006,-9.343 -5.634,-11.962 -5.447,-2.535 -10.542,-5.766 -16.408,-7.455 -9.604,-2.764 -17.707,2.524 -21.147,10.699 C -18.442,-11.45 -12.226,0.702 0,0" /></g></g></g></g></svg>