<?xml version="1.0" encoding="UTF-8" standalone="no"?>
<svg
   xmlns:dc="http://purl.org/dc/elements/1.1/"
   xmlns:cc="http://creativecommons.org/ns#"
   xmlns:rdf="http://www.w3.org/1999/02/22-rdf-syntax-ns#"
   xmlns:svg="http://www.w3.org/2000/svg"
   xmlns="http://www.w3.org/2000/svg"
   xmlns:sodipodi="http://sodipodi.sourceforge.net/DTD/sodipodi-0.dtd"
   xmlns:inkscape="http://www.inkscape.org/namespaces/inkscape"
   width="192"
   height="192"
   viewBox="0 0 192 192"
   version="1.1"
   id="svg22"
   sodipodi:docname="glovo.svg"
   inkscape:version="1.0 (4035a4fb49, 2020-05-01)"
   inkscape:export-filename="/home/pforero/Documents/Repositories/Personal/android/proguard/png/glovo.png"
   inkscape:export-xdpi="96"
   inkscape:export-ydpi="96">
  <metadata
     id="metadata28">
    <rdf:RDF>
      <cc:Work
         rdf:about="">
        <dc:format>image/svg+xml</dc:format>
        <dc:type
           rdf:resource="http://purl.org/dc/dcmitype/StillImage" />
        <dc:title />
      </cc:Work>
    </rdf:RDF>
  </metadata>
  <defs
     id="defs26" />
  <sodipodi:namedview
     inkscape:document-rotation="0"
     pagecolor="#ffffff"
     bordercolor="#666666"
     borderopacity="1"
     objecttolerance="10"
     gridtolerance="10"
     guidetolerance="10"
     inkscape:pageopacity="0"
     inkscape:pageshadow="2"
     inkscape:window-width="1920"
     inkscape:window-height="1016"
     id="namedview24"
     showgrid="false"
     inkscape:pagecheckerboard="true"
     inkscape:zoom="4.0120419"
     inkscape:cx="79.366826"
     inkscape:cy="93.520437"
     inkscape:window-x="0"
     inkscape:window-y="27"
     inkscape:window-maximized="1"
     inkscape:current-layer="layer2" />
  <g
     inkscape:groupmode="layer"
     id="layer1"
     inkscape:label="background">
    <g
       fill="none"
       fill-rule="evenodd"
       stroke="#B1B5BD"
       opacity=".63"
       transform="translate(8,8)"
       id="g20"
       style="fill:#f9de81;fill-opacity:1;opacity:1">
      <rect
         width="153"
         height="153"
         x="11.5"
         y="11.5"
         rx="10"
         id="rect10"
         style="fill:#f9de81;fill-opacity:1;stroke-width:0;stroke-miterlimit:4;stroke-dasharray:none" />
    </g>
  </g>
  <g
     inkscape:groupmode="layer"
     id="layer2"
     inkscape:label="logo">
    <path
       id="path967"
       d="m 95.999994,57.608988 c -14.224641,0 -25.796333,10.836271 -25.796333,24.149029 0,5.071736 1.683827,9.94113 4.864134,14.080331 l 0.686947,0.89075 13.428995,17.742252 c 0,0 1.639877,2.50728 5.213392,2.50728 h 3.208064 c 3.575817,0 5.208747,-2.50728 5.208747,-2.50728 l 13.43363,-17.742252 0.68002,-0.89075 a 24.9498,23.724553 0 0 0 4.86875,-14.080331 c 0,-13.312758 -11.57169,-24.149029 -25.796346,-24.149029 z m 10.616446,31.27937 -0.71469,0.93693 -9.899426,13.079612 -9.885561,-13.05322 -0.726268,-0.947927 a 12.663405,12.041525 0 0 1 -2.48411,-7.145736 c 0,-6.75865 5.874901,-12.257062 13.091302,-12.257062 7.221033,0 13.093613,5.498412 13.093613,12.257062 0,2.56226 -0.85579,5.027749 -2.47486,7.130341 z M 88.744278,127.87209 v -0.0484 c 0,-3.60697 3.060026,-6.59589 7.19328,-6.59589 4.137862,0 7.172452,2.93835 7.172452,6.5475 v 0.0484 c 0,3.58057 -3.06236,6.56731 -7.221027,6.56731 -4.105489,0 -7.147016,-2.93615 -7.147016,-6.51892 z"
       style="fill:#98dc9a;fill-opacity:1;stroke-width:2.25545" />
  </g>
</svg>
