<?xml version="1.0" encoding="UTF-8" standalone="no"?>
<svg
   xmlns:dc="http://purl.org/dc/elements/1.1/"
   xmlns:cc="http://creativecommons.org/ns#"
   xmlns:rdf="http://www.w3.org/1999/02/22-rdf-syntax-ns#"
   xmlns:svg="http://www.w3.org/2000/svg"
   xmlns="http://www.w3.org/2000/svg"
   xmlns:sodipodi="http://sodipodi.sourceforge.net/DTD/sodipodi-0.dtd"
   xmlns:inkscape="http://www.inkscape.org/namespaces/inkscape"
   sodipodi:docname="go_keyboard.svg"
   inkscape:version="1.0.1 (3bc2e813f5, 2020-09-07)"
   version="1.1"
   id="svg2"
   viewBox="0 0 192 192"
   height="192"
   width="192"
   inkscape:export-filename="/home/jphilippe/inkscape/icônes/delta-github/png/go_keyboard.png"
   inkscape:export-xdpi="96"
   inkscape:export-ydpi="96">
  <sodipodi:namedview
     inkscape:document-rotation="0"
     inkscape:window-maximized="1"
     inkscape:window-y="30"
     inkscape:window-x="1920"
     inkscape:window-height="1022"
     inkscape:window-width="1680"
     units="px"
     showgrid="false"
     inkscape:current-layer="layer1"
     inkscape:document-units="px"
     inkscape:cy="34.838497"
     inkscape:cx="1.6731149"
     inkscape:zoom="2.0000001"
     inkscape:pageshadow="2"
     inkscape:pageopacity="0.0"
     borderopacity="1.0"
     bordercolor="#666666"
     pagecolor="#ffffff"
     id="base"
     inkscape:snap-bbox="false"
     inkscape:object-paths="true"
     inkscape:snap-nodes="true"
     showguides="true"
     inkscape:guide-bbox="true"
     inkscape:snap-object-midpoints="true"
     inkscape:snap-center="true"
     inkscape:snap-global="true"
     inkscape:snap-intersection-paths="true"
     inkscape:snap-smooth-nodes="true"
     inkscape:snap-midpoints="true" />
  <defs
     id="defs4" />
  <metadata
     id="metadata7">
    <rdf:RDF>
      <cc:Work
         rdf:about="">
        <dc:format>image/svg+xml</dc:format>
        <dc:type
           rdf:resource="http://purl.org/dc/dcmitype/StillImage" />
        <dc:title />
      </cc:Work>
    </rdf:RDF>
  </metadata>
  <g
     transform="translate(0,-860.36216)"
     id="layer1"
     inkscape:groupmode="layer"
     inkscape:label="Calque 1">
    <rect
       x="20"
       y="922.36218"
       width="152"
       height="104"
       rx="10"
       fill="#56595b"
       id="rect2035" />
    <path
       fill-rule="evenodd"
       clip-rule="evenodd"
       d="m 36,939.36215 c -2.7614,0 -5,2.2386 -5,5 0,2.7614 2.2386,5 5,5 2.7614,0 5,-2.2386 5,-5 0,-2.7614 -2.2386,-5 -5,-5 z m 120,42 c -2.761,0 -5,2.239 -5,4.99999 0,2.761 2.239,5 5,5 2.761,0 5,-2.239 5,-5 0,-2.76099 -2.239,-4.99999 -5,-4.99999 z m -5,-16 c 0,-2.761 2.239,-5 5,-5 2.761,0 5,2.239 5,5 0,2.761 -2.239,5 -5,5 -2.761,0 -5,-2.239 -5,-5 z m 5,-26 c -2.761,0 -5,2.2386 -5,5 0,2.7614 2.239,5 5,5 2.761,0 5,-2.2386 5,-5 0,-2.7614 -2.239,-5 -5,-5 z m -25,46.99999 c 0,-2.76099 2.239,-4.99999 5,-4.99999 2.761,0 5,2.239 5,4.99999 0,2.761 -2.239,5 -5,5 -2.761,0 -5,-2.239 -5,-5 z m 5,-25.99999 c -2.761,0 -5,2.239 -5,5 0,2.761 2.239,5 5,5 2.761,0 5,-2.239 5,-5 0,-2.761 -2.239,-5 -5,-5 z m -5,-16 c 0,-2.7614 2.239,-5 5,-5 2.761,0 5,2.2386 5,5 0,2.7614 -2.239,5 -5,5 -2.761,0 -5,-2.2386 -5,-5 z m -15,37 c -2.761,0 -5,2.239 -5,4.99999 0,2.761 2.239,5 5,5 2.761,0 5,-2.239 5,-5 0,-2.76099 -2.239,-4.99999 -5,-4.99999 z m -5,-16 c 0,-2.761 2.239,-5 5,-5 2.761,0 5,2.239 5,5 0,2.761 -2.239,5 -5,5 -2.761,0 -5,-2.239 -5,-5 z m 5,-26 c -2.761,0 -5,2.2386 -5,5 0,2.7614 2.239,5 5,5 2.761,0 5,-2.2386 5,-5 0,-2.7614 -2.239,-5 -5,-5 z m -25,46.99999 c 0,-2.76099 2.2386,-4.99999 5,-4.99999 2.7614,0 5,2.239 5,4.99999 0,2.761 -2.2386,5 -5,5 -2.7614,0 -5,-2.239 -5,-5 z m 5,-25.99999 c -2.7614,0 -5,2.239 -5,5 0,2.761 2.2386,5 5,5 2.7614,0 5,-2.239 5,-5 0,-2.761 -2.2386,-5 -5,-5 z m -5,-16 c 0,-2.7614 2.2386,-5 5,-5 2.7614,0 5,2.2386 5,5 0,2.7614 -2.2386,5 -5,5 -2.7614,0 -5,-2.2386 -5,-5 z m -15,37 c -2.7614,0 -5,2.239 -5,4.99999 0,2.761 2.2386,5 5,5 2.7614,0 5,-2.239 5,-5 0,-2.76099 -2.2386,-4.99999 -5,-4.99999 z m -5,-16 c 0,-2.761 2.2386,-5 5,-5 2.7614,0 5,2.239 5,5 0,2.761 -2.2386,5 -5,5 -2.7614,0 -5,-2.239 -5,-5 z m 5,-26 c -2.7614,0 -5,2.2386 -5,5 0,2.7614 2.2386,5 5,5 2.7614,0 5,-2.2386 5,-5 0,-2.7614 -2.2386,-5 -5,-5 z m -25,46.99999 c 0,-2.76099 2.2386,-4.99999 5,-4.99999 2.7614,0 5,2.239 5,4.99999 0,2.761 -2.2386,5 -5,5 -2.7614,0 -5,-2.239 -5,-5 z m 5,-25.99999 c -2.7614,0 -5,2.239 -5,5 0,2.761 2.2386,5 5,5 2.7614,0 5,-2.239 5,-5 0,-2.761 -2.2386,-5 -5,-5 z m -5,-16 c 0,-2.7614 2.2386,-5 5,-5 2.7614,0 5,2.2386 5,5 0,2.7614 -2.2386,5 -5,5 -2.7614,0 -5,-2.2386 -5,-5 z m -15,37 c -2.7614,0 -5,2.239 -5,4.99999 0,2.761 2.2386,5 5,5 2.7614,0 5,-2.239 5,-5 0,-2.76099 -2.2386,-4.99999 -5,-4.99999 z m -5,-16 c 0,-2.761 2.2386,-5 5,-5 2.7614,0 5,2.239 5,5 0,2.761 -2.2386,5 -5,5 -2.7614,0 -5,-2.239 -5,-5 z m 29,39.99995 c -2.7614,0 -5,2.239 -5,5 0,2.761 2.2386,5 5,5 h 75 c 2.761,0 5,-2.239 5,-5 0,-2.761 -2.239,-5 -5,-5 z"
       fill="#b1b5bd"
       id="path2037" />
    <path
       style="fill:#97db99;fill-opacity:1;stroke:none;stroke-width:0.322896px;stroke-linecap:butt;stroke-linejoin:miter;stroke-opacity:1"
       d="m 64.534135,967.94756 c -6.2054,9.39609 -9.680901,12.76478 -12.332401,14.49371 -2.6929,1.7559 -7.5056,4.36162 -8.520699,1.2014 -1.049,-3.26569 3.3233,-2.76677 7.7627,-5.81644 5.4164,-3.7208 8.9019,-8.59438 11.7205,-12.39022 z"
       id="path2041"
       sodipodi:nodetypes="cssscc" />
    <path
       id="path2039"
       style="fill:#97db99;fill-opacity:1;stroke:none;stroke-width:5.577;stroke-linecap:round;stroke-linejoin:round;stroke-dashoffset:6;paint-order:stroke fill markers;stop-color:#000000"
       d="m 136.01973,958.60331 c -8.2057,13.68066 -19.7799,23.3372 -34.6154,26.06687 -34.734795,6.39104 -56.205395,-19.64856 -53.465495,-47.66773 2.5713,-26.2955 26.1549,-51.018 61.456795,-50.63594 20.6107,0.22307 35.5758,7.56152 45.4762,18.30432 -17.9504,-0.0623 -5.8703,32.28901 -18.8521,53.93248 z"
       sodipodi:nodetypes="sssscs" />
    <text
       xml:space="preserve"
       style="font-style:normal;font-variant:normal;font-weight:bold;font-stretch:normal;font-size:55.4457px;line-height:1.25;font-family:Now;-inkscape-font-specification:'Now Bold';letter-spacing:0px;word-spacing:0px;fill:#70a270;fill-opacity:1;stroke-width:1.38614"
       x="53.405571"
       y="957.74005"
       id="text845"><tspan
         sodipodi:role="line"
         id="tspan843"
         x="53.405571"
         y="957.74005"
         style="fill:#70a270;fill-opacity:1;stroke-width:1.38614">Go</tspan></text>
  </g>
  <style
     type="text/css"
     id="style853">
	.st0{fill:#FFFFFF;}
</style>
  <style
     type="text/css"
     id="style853-9">
	.st0{fill:#FFFFFF;}
</style>
  <style
     type="text/css"
     id="style853-3">
	.st0{fill:#FFFFFF;}
</style>
</svg>
