<?xml version="1.0" encoding="UTF-8"?>
<svg width="192" height="192" version="1.1" viewBox="0 0 192 192" xml:space="preserve" xmlns="http://www.w3.org/2000/svg" xmlns:cc="http://creativecommons.org/ns#" xmlns:dc="http://purl.org/dc/elements/1.1/" xmlns:rdf="http://www.w3.org/1999/02/22-rdf-syntax-ns#" xmlns:xlink="http://www.w3.org/1999/xlink"><metadata><rdf:RDF><cc:Work rdf:about=""><dc:format>image/svg+xml</dc:format><dc:type rdf:resource="http://purl.org/dc/dcmitype/StillImage"/></cc:Work></rdf:RDF></metadata><circle cx="96" cy="96" r="88" fill="#fff"/><path d="m59.789 58.792c-5.3275 9.2275-8.5724 19.998-11.314 30.229-3.1236 11.657 13.56 16.74 22.804 6.5407 3.1172-3.4393 5.4252 8.2168 14.496 7.0711 4.4446-0.5614 6.4913-7.4634 10.96-7.7782 4.829-0.34013 5.5912 6.6619 12.905 6.6619 6.2508 0 6.6601-6.6075 10.96-6.8387 5.2287-0.28114 5.9829 9.025 14.142 6.8387 8.7409-2.3421 10.128-9.1463 8.6621-14.617-2.403-8.968-4.9733-17.406-9.7227-25.633-2.3515-4.0729-6.4499-8.2752-11.137-8.6621-17.187-1.4187-35.337-1.8681-52.679 0-3.9187 0.42211-8.1056 2.7738-10.076 6.1872z" fill="#bd9aff"/><path d="m61.38 105.99s-0.91143 13.228 0.70711 19.269c1.7088 6.3773 8.6487 11.196 15.026 12.905 13.049 3.4964 28.497 3.1894 41.719-0.35356 5.2327-1.4021 9.2792-6.6465 11.314-11.667 2.4786-6.1165 0-19.799 0-19.799-3.2912-0.24238-7.1642-6.0988-9.7227-6.0104-1.3312 0.046-1.5221 3.5234-4.4194 4.4194v11.844c0 1.2937-0.65086 3.3588-1.9445 3.3588h-35.886c-1.2748 0-2.1213-1.9072-2.1213-3.182 0-4.4714-0.17678-13.564-0.17678-13.564-2.1513 0.18448-3.0425-3.0535-4.1984-3.0535-1.2428 0-4.9522 6.8067-10.297 5.8336z" fill="#bd9aff"/><circle cx="96.189" cy="129.55" r="6.7851" fill="#fff"/></svg>
