<?xml version="1.0" encoding="UTF-8" standalone="no"?>
<svg
   xmlns:dc="http://purl.org/dc/elements/1.1/"
   xmlns:cc="http://creativecommons.org/ns#"
   xmlns:rdf="http://www.w3.org/1999/02/22-rdf-syntax-ns#"
   xmlns:svg="http://www.w3.org/2000/svg"
   xmlns="http://www.w3.org/2000/svg"
   xmlns:sodipodi="http://sodipodi.sourceforge.net/DTD/sodipodi-0.dtd"
   xmlns:inkscape="http://www.inkscape.org/namespaces/inkscape"
   sodipodi:docname="gonemad.svg"
   inkscape:version="1.0.1 (3bc2e813f5, 2020-09-07)"
   version="1.1"
   id="svg2"
   viewBox="0 0 192 192"
   height="192"
   width="192"
   inkscape:export-filename="/home/jphilippe/inkscape/icônes/delta-github/png/gonemad.png"
   inkscape:export-xdpi="96"
   inkscape:export-ydpi="96">
  <sodipodi:namedview
     inkscape:document-rotation="0"
     inkscape:window-maximized="1"
     inkscape:window-y="30"
     inkscape:window-x="1920"
     inkscape:window-height="1022"
     inkscape:window-width="1680"
     units="px"
     showgrid="false"
     inkscape:current-layer="layer1"
     inkscape:document-units="px"
     inkscape:cy="-289.8867"
     inkscape:cx="-608.57107"
     inkscape:zoom="0.25"
     inkscape:pageshadow="2"
     inkscape:pageopacity="0.0"
     borderopacity="1.0"
     bordercolor="#666666"
     pagecolor="#ffffff"
     id="base"
     inkscape:snap-bbox="false"
     inkscape:object-paths="true"
     inkscape:snap-nodes="true"
     showguides="true"
     inkscape:guide-bbox="true"
     inkscape:snap-object-midpoints="true"
     inkscape:snap-center="true"
     inkscape:snap-global="false"
     inkscape:snap-intersection-paths="true"
     inkscape:snap-smooth-nodes="true"
     inkscape:snap-midpoints="true" />
  <defs
     id="defs4" />
  <metadata
     id="metadata7">
    <rdf:RDF>
      <cc:Work
         rdf:about="">
        <dc:format>image/svg+xml</dc:format>
        <dc:type
           rdf:resource="http://purl.org/dc/dcmitype/StillImage" />
        <dc:title />
      </cc:Work>
    </rdf:RDF>
  </metadata>
  <g
     transform="translate(0,-860.36216)"
     id="layer1"
     inkscape:groupmode="layer"
     inkscape:label="Calque 1">
    <path
       style="opacity:1;fill:#ababff;stroke-width:13.808;stroke-linecap:round;stroke-linejoin:round;stop-color:#000000;fill-opacity:1"
       d="m 170.51045,959.11622 -54.8057,31.64209 a 2.8867513,2.8867513 30 0 1 -4.33013,-2.5 v -63.28417 a 2.8867517,2.8867517 150 0 1 4.33013,-2.5 l 54.8057,31.64208 a 2.886751,2.886751 89.999997 0 1 0,5 z"
       id="path982" />
    <path
       style="opacity:1;fill:#ababff;stroke-width:13.808;stroke-linecap:round;stroke-linejoin:round;stop-color:#000000;fill-opacity:1"
       d="m 41.979489,959.11622 54.805675,31.64209 a 2.8867506,2.8867506 150.00001 0 0 4.330126,-2.5 v -63.28417 a 2.886751,2.886751 29.999997 0 0 -4.330127,-2.5 L 41.97949,954.11622 a 2.8867525,2.8867525 90.000003 0 0 -10e-7,5 z"
       id="path980" />
    <path
       style="opacity:1;fill:#ababff;stroke-width:13.808;stroke-linecap:round;stroke-linejoin:round;stop-color:#000000;fill-opacity:1"
       d="m 36.849828,876.94721 54.805691,31.64209 a 2.886751,2.886751 90.000009 0 1 -10e-7,5 l -54.805702,31.64207 a 2.8867515,2.8867515 30.000011 0 1 -4.330127,-2.5 l 1.1e-5,-63.28416 a 2.8867516,2.8867516 150.00001 0 1 4.330128,-2.5 z"
       id="path978" />
    <path
       style="opacity:1;fill:#ababff;stroke-width:13.808;stroke-linecap:round;stroke-linejoin:round;stop-color:#000000;fill-opacity:1"
       d="m 36.849815,1036.2853 54.805704,-31.6421 a 2.8867543,2.8867543 90.000017 0 0 2e-6,-5 L 36.849813,968.00105 a 2.8867489,2.8867489 150.00002 0 0 -4.330125,2.5 v 63.28425 a 2.8867509,2.8867509 29.999996 0 0 4.330127,2.5 z"
       id="path941" />
  </g>
  <style
     type="text/css"
     id="style853">
	.st0{fill:#FFFFFF;}
</style>
</svg>
