<svg xmlns="http://www.w3.org/2000/svg" width="192" height="192"><g transform="translate(334.058 -766.75)"><rect width="153" height="153" x="-314.558" y="786.25" rx="10" style="fill:#ececec;fill-opacity:1;fill-rule:evenodd;stroke:none;stroke-opacity:1"/><path d="M-359.5 558.862c48.3 0 87.5 39.2 87.5 87.5v8h-167c-4.4 0-8-3.6-8-8 0-48.3 39.2-87.5 87.5-87.5z" style="fill:#f9de82;fill-opacity:1" transform="translate(-181.327 726.268) scale(.20857)"/><path d="M-176.5 566.862c0 48.3-39.2 87.5-87.5 87.5h-8v-167c0-4.4 3.6-8 8-8 48.3 0 87.5 39.2 87.5 87.5z" style="fill:#fe837e;fill-opacity:1" transform="translate(-181.327 726.268) scale(.20857)"/><path d="M-184.5 749.862c-48.3 0-87.5-39.2-87.5-87.5v-8h167c4.4 0 8 3.6 8 8 0 48.3-39.2 87.5-87.5 87.5z" style="fill:#9abefe;fill-opacity:1" transform="translate(-181.327 726.268) scale(.20857)"/><path d="M-367.5 741.862c0-48.3 39.2-87.5 87.5-87.5h8v167c0 4.4-3.6 8-8 8-48.3 0-87.5-39.2-87.5-87.5z" style="fill:#98db9a;fill-opacity:1" transform="translate(-181.327 726.268) scale(.20857)"/></g></svg>