<?xml version="1.0" encoding="UTF-8" standalone="no"?>
<svg
   xmlns:dc="http://purl.org/dc/elements/1.1/"
   xmlns:cc="http://creativecommons.org/ns#"
   xmlns:rdf="http://www.w3.org/1999/02/22-rdf-syntax-ns#"
   xmlns:svg="http://www.w3.org/2000/svg"
   xmlns="http://www.w3.org/2000/svg"
   xmlns:sodipodi="http://sodipodi.sourceforge.net/DTD/sodipodi-0.dtd"
   xmlns:inkscape="http://www.inkscape.org/namespaces/inkscape"
   sodipodi:docname="google_cloud_search.svg"
   inkscape:version="1.0.1 (3bc2e813f5, 2020-09-07)"
   version="1.1"
   id="svg2"
   viewBox="0 0 192 192"
   height="192"
   width="192"
   inkscape:export-filename="/home/jphilippe/inkscape/icônes/delta-github/png/google_cloud_search.png"
   inkscape:export-xdpi="96"
   inkscape:export-ydpi="96">
  <sodipodi:namedview
     inkscape:document-rotation="0"
     inkscape:window-maximized="1"
     inkscape:window-y="30"
     inkscape:window-x="1920"
     inkscape:window-height="1022"
     inkscape:window-width="1680"
     units="px"
     showgrid="false"
     inkscape:current-layer="layer1"
     inkscape:document-units="px"
     inkscape:cy="221.45886"
     inkscape:cx="24.149951"
     inkscape:zoom="0.70710678"
     inkscape:pageshadow="2"
     inkscape:pageopacity="0.0"
     borderopacity="1.0"
     bordercolor="#666666"
     pagecolor="#ffffff"
     id="base"
     inkscape:snap-bbox="false"
     inkscape:object-paths="true"
     inkscape:snap-nodes="true"
     showguides="true"
     inkscape:guide-bbox="true"
     inkscape:snap-object-midpoints="true"
     inkscape:snap-center="true"
     inkscape:snap-global="true"
     inkscape:snap-intersection-paths="true"
     inkscape:snap-smooth-nodes="true"
     inkscape:snap-midpoints="true" />
  <defs
     id="defs4" />
  <metadata
     id="metadata7">
    <rdf:RDF>
      <cc:Work
         rdf:about="">
        <dc:format>image/svg+xml</dc:format>
        <dc:type
           rdf:resource="http://purl.org/dc/dcmitype/StillImage" />
        <dc:title></dc:title>
      </cc:Work>
    </rdf:RDF>
  </metadata>
  <g
     transform="translate(0,-860.36216)"
     id="layer1"
     inkscape:groupmode="layer"
     inkscape:label="Calque 1">
    <path
       id="path2217"
       style="opacity:1;fill:#99bdfe;fill-opacity:1;stroke:none;stroke-width:2.50001;stroke-linecap:round;stroke-linejoin:round;stop-color:#000000"
       d="m 70.397133,893.96407 c -27.686727,-0.49868 -53.881276,19.85617 -60.366068,46.75169 -7.0931052,25.86164 4.902053,55.29953 28.029789,68.85834 11.9004,7.6414 26.222078,9.2813 40.097124,9.0444 22.582922,-0.3857 45.189312,0.5969 67.760902,-0.1176 20.11326,-0.6367 37.41791,-18.85141 37.98012,-38.96681 1.50171,-20.09917 -13.92924,-39.58588 -33.8464,-42.69643 -6.82946,-1.09409 -13.77156,-0.47999 -20.65729,-0.64143 -8.18029,-24.8285 -32.811669,-42.56675 -58.998177,-42.23214 z"
       sodipodi:nodetypes="cccssccccc" />
    <path
       id="circle2134"
       style="opacity:1;fill:#ffffff;stroke:none;stroke-width:2.50001;stroke-linecap:round;stroke-linejoin:round;stop-color:#000000;fill-opacity:1"
       d="M 70.34375 62.732422 A 33.221275 33.221275 0 0 0 37.121094 95.953125 A 33.221275 33.221275 0 0 0 70.34375 129.17578 A 33.221275 33.221275 0 0 0 88.476562 123.78906 L 107.12891 142.44141 C 108.48896 143.80146 110.67901 143.80146 112.03906 142.44141 L 116.23633 138.24414 C 117.59638 136.88408 117.59638 134.69404 116.23633 133.33398 L 97.701172 114.79883 A 33.221275 33.221275 0 0 0 103.56445 95.953125 A 33.221275 33.221275 0 0 0 70.34375 62.732422 z M 70.232422 75.59375 A 20.359875 20.359875 0 0 1 70.234375 75.59375 A 20.359875 20.359875 0 0 1 70.34375 75.59375 A 20.359875 20.359875 0 0 1 90.703125 95.953125 A 20.359875 20.359875 0 0 1 70.34375 116.31445 A 20.359875 20.359875 0 0 1 49.982422 95.953125 A 20.359875 20.359875 0 0 1 70.232422 75.59375 z "
       transform="translate(0,860.36216)" />
  </g>
  <style
     type="text/css"
     id="style853">
	.st0{fill:#FFFFFF;}
</style>
</svg>
