<?xml version="1.0" encoding="UTF-8" standalone="no"?>
<svg
   xmlns:dc="http://purl.org/dc/elements/1.1/"
   xmlns:cc="http://creativecommons.org/ns#"
   xmlns:rdf="http://www.w3.org/1999/02/22-rdf-syntax-ns#"
   xmlns:svg="http://www.w3.org/2000/svg"
   xmlns="http://www.w3.org/2000/svg"
   xmlns:sodipodi="http://sodipodi.sourceforge.net/DTD/sodipodi-0.dtd"
   xmlns:inkscape="http://www.inkscape.org/namespaces/inkscape"
   sodipodi:docname="google_fit.svg"
   inkscape:version="1.0.1 (3bc2e813f5, 2020-09-07)"
   version="1.1"
   id="svg2"
   viewBox="0 0 192 192"
   height="192"
   width="192"
   inkscape:export-filename="/home/jphilippe/inkscape/icônes/delta-github/png/google_fit.png"
   inkscape:export-xdpi="96"
   inkscape:export-ydpi="96">
  <sodipodi:namedview
     inkscape:document-rotation="0"
     inkscape:window-maximized="1"
     inkscape:window-y="0"
     inkscape:window-x="36"
     inkscape:window-height="1052"
     inkscape:window-width="1884"
     units="px"
     showgrid="false"
     inkscape:current-layer="layer1"
     inkscape:document-units="px"
     inkscape:cy="144.37738"
     inkscape:cx="116.48245"
     inkscape:zoom="0.99999997"
     inkscape:pageshadow="2"
     inkscape:pageopacity="0.0"
     borderopacity="1.0"
     bordercolor="#666666"
     pagecolor="#ffffff"
     id="base"
     inkscape:snap-bbox="false"
     inkscape:object-paths="true"
     inkscape:snap-nodes="true"
     showguides="true"
     inkscape:guide-bbox="true"
     inkscape:snap-object-midpoints="true"
     inkscape:snap-center="true"
     inkscape:snap-global="true"
     inkscape:snap-intersection-paths="true"
     inkscape:snap-smooth-nodes="true"
     inkscape:snap-midpoints="true" />
  <defs
     id="defs4" />
  <metadata
     id="metadata7">
    <rdf:RDF>
      <cc:Work
         rdf:about="">
        <dc:format>image/svg+xml</dc:format>
        <dc:type
           rdf:resource="http://purl.org/dc/dcmitype/StillImage" />
        <dc:title></dc:title>
      </cc:Work>
    </rdf:RDF>
  </metadata>
  <g
     transform="translate(0,-860.36216)"
     id="layer1"
     inkscape:groupmode="layer"
     inkscape:label="Calque 1">
    <path
       fill="#ea4335"
       d="m 26.45637,960.58548 8.66508,8.66508 18.713658,-18.64084 -8.592263,-8.66508 v 0 l -3.932053,-3.93206 c -3.131079,-3.13108 -4.805842,-7.20876 -4.805842,-11.65052 0,-3.85924 1.310684,-7.3544 3.567974,-10.1214 v 0 0 0 0 c 3.058263,-3.85924 7.718474,-6.33497 12.961211,-6.33497 4.441763,0 8.519447,1.74758 11.723342,4.87866 l 3.859237,3.7136 8.66508,8.7379 18.786474,-18.64085 -8.737895,-8.66508 -3.932053,-3.78642 c -7.79129,-7.79129 -18.495211,-12.59713 -30.364185,-12.59713 -23.810765,0 -43.034134,19.22337 -43.034134,42.8885 0,5.89808 1.165053,11.5049 3.349526,16.67482 2.184474,5.16992 5.315553,9.75731 9.247606,13.61655 l 3.859237,3.85924"
       id="path875"
       style="stroke-width:0.728158;fill:#ff847f;fill-opacity:1" />
    <polyline
       fill="#fbbc04"
       points="81.5,122.2 118.2,85.7 92.4,60 60.2,92.1 60.2,92.1 34.5,117.7 48.3,131.6 60.2,143.4 72.6,131     "
       id="polyline877"
       transform="matrix(0.72815793,0,0,0.72815793,10.000001,883.54637)"
       style="fill:#f8dd81;fill-opacity:1" />
    <polygon
       fill="#34a853"
       points="118.1,200 118.1,200 143.9,175.6 143.9,175.6 143.8,175.6 201.8,117.7 176,92.1 118.1,149.9 85.9,117.8 60.2,143.4 92.4,175.6 92.3,175.7 118.1,200 "
       id="polygon879"
       transform="matrix(0.72815793,0,0,0.72815793,10.000001,883.54637)"
       style="fill:#99dc9b;fill-opacity:1" />
    <path
       fill="#4285f4"
       d="m 169.39377,956.72624 c 8.7379,-8.73789 13.76219,-22.136 12.37869,-35.67974 -2.03885,-20.53405 -19.07774,-35.971 -39.75743,-37.3545 -13.03402,-0.87379 -24.97581,4.00487 -33.42245,12.4515 l -31.310786,31.09235 18.713659,18.71365 31.310787,-31.16515 c 3.78642,-3.71361 9.02916,-5.46119 14.41753,-4.5874 6.99032,1.09224 12.66995,6.84468 13.61655,13.835 0.72816,5.24274 -1.01942,10.33984 -4.73302,14.05345 l -12.4515,12.52432 18.78647,18.64084 z"
       id="path881"
       style="stroke-width:0.728158;fill:#9abefe;fill-opacity:1" />
  </g>
  <style
     type="text/css"
     id="style853">
	.st0{fill:#FFFFFF;}
</style>
</svg>
