<svg xmlns="http://www.w3.org/2000/svg" xml:space="preserve" width="192" height="192"><linearGradient id="a" x1="28.626" x2="149.69" y1="54.413" y2="121.179" gradientUnits="userSpaceOnUse"><stop offset="0" style="stop-color:#fdc394"/><stop offset=".318" style="stop-color:#fea68a"/><stop offset=".631" style="stop-color:#ff8f82"/><stop offset=".831" style="stop-color:#ff877f"/></linearGradient><path fill="url(#a)" d="M155.872 99.88c3.484 2.48 2.949 2.949 1.743 6.972-1.207 4.021-4.156 12.736-6.771 21.249-.935 3.047-3.15 2.615-4.625 2.48-1.475-.134-5.497-.268-5.497-.268-18.501-.671-33.383 3.888-33.383 3.888-29.227 7.91-35.528 16.625-37.539 19.307-2.011 2.681-3.62 2.413-4.692.134s-9.653-22.255-9.653-22.255c-1.743-3.486 1.073-5.095 1.073-5.095 23.06-17.027 45.717-18.368 45.717-18.368-26.947-7.105-69.581 8.313-71.726 9.117-2.146.804-4.29.536-5.363-1.877S9.291 79.119 9.291 79.119s-2.034-3.036.782-5.449c2.815-2.413 43.505-32.511 93.531-33.563 46.774-.983 76.804 18.078 76.804 18.078s2.278 1.207.938 4.692c-1.233 3.208-4.826 15.954-6.033 19.44-1.206 3.486-3.485 3.888-6.838 1.877-3.352-2.011-55.504-28.557-110.875-1.944 0 0 59.66-9.854 98.272 17.63z"/></svg>