<svg xmlns="http://www.w3.org/2000/svg" xml:space="preserve" id="svg16" version="1.1" viewBox="0 0 192 192"><defs id="defs4"><style id="style2">.a{fill:none;stroke:#b1b5bd;stroke-linecap:round;stroke-linejoin:round;isolation:isolate;opacity:.63}.st1{fill:#fff}</style></defs><g id="g257" style="stroke-width:3.7228" transform="matrix(.26862 0 0 .26862 -41.531 -41.54)"><path id="path253" d="M622.5 348.7c20.6-1.3 30.8-18.5 43.4-38.5 13.9-22.2 22.8-34.5 37.9-31.9 13.9 2.4 18.2 16 22 43.6 3.3 23.7 10.4 46.8 28.5 54.4 16.3 6.8 31.7 1.2 43.4-4.3 14.2-6.6 23.9-10.6 32.6-5.9 9.5 5.2 16.9 24.2-4.9 66-21.8 41.8-67.1 107.8-99.2 144.7-36.4 41.9-66.7 77.1-103.2 70-36.1-7-49.4-53.2-59.4-89.2-12.5-44.8-29-129-32.5-186.7-3.4-56.1 10.1-69 21.6-71.4 13.8-2.9 23.1 14.4 30.3 24.8 8.1 11.5 20.5 25.6 39.5 24.4z" class="st1" style="fill:#f8c18c;stroke-width:3.7228"/><path id="path251" d="M401.5 447.1c-20.6-1.3-30.8-18.5-43.4-38.5-13.9-22.2-22.8-34.5-37.9-31.9-13.9 2.4-18.2 16-22 43.6-3.3 23.7-10.4 46.8-28.5 54.4-16.3 6.8-31.7 1.2-43.4-4.3-14.2-6.6-23.9-10.6-32.6-5.9-9.5 5.2-16.9 24.2 4.9 66 21.8 41.8 67.1 107.8 99.2 144.7 36.4 41.9 66.7 77.1 103.2 70 36.1-7 49.4-53.2 59.4-89.2 12.5-44.8 29-129 32.5-186.7 3.4-56.1-10.1-69-21.6-71.4-13.8-2.9-23.1 14.4-30.3 24.8-8.1 11.5-20.5 25.6-39.5 24.4z" class="st1" style="fill:#f8c18c;stroke-width:3.7228"/></g></svg>