<svg viewBox="0 0 192 192" xml:space="preserve" xmlns:xlink="http://www.w3.org/1999/xlink" xmlns="http://www.w3.org/2000/svg"><defs><linearGradient id="a"><stop style="stop-color:#ffb0ac;stop-opacity:1" offset="0"/><stop style="stop-color:#bd9aff;stop-opacity:1" offset=".482"/><stop style="stop-color:#9abeff;stop-opacity:1" offset=".748"/><stop style="stop-color:#54688c;stop-opacity:1" offset=".984"/></linearGradient><linearGradient xlink:href="#a" id="b" x1="13.971" y1="-17.734" x2="180.977" y2="216.655" gradientUnits="userSpaceOnUse"/></defs><g transform="matrix(.7576 0 0 1 23.27 0)"><rect x="32" y="8" width="128" height="176" rx="10" style="opacity:1;fill:url(#b);fill-opacity:1;stroke:none;stroke-linecap:round;stroke-linejoin:round;isolation:isolate"/><path style="opacity:1;fill:#fff;stroke:none;stroke-width:.00377953;stroke-opacity:.14902" d="M42 8c-5.54 0-10 4.46-10 10v156c0 5.54 4.46 10 10 10h108c5.54 0 10-4.46 10-10V18c0-5.54-4.46-10-10-10zm5.4 8.8h97.2c4.986 0 9 4.015 9 9v140.4c0 4.985-4.014 9-9 9H47.4a8.98 8.98 0 0 1-9-9V25.8c0-4.985 4.014-9 9-9z"/><rect style="opacity:1;fill:#b1b5bd;stroke:none;stroke-width:.00248692;stroke-opacity:.14902" width="41.555" height="3.81" x="75.223" y="11.073" rx="1.774"/></g></svg>