<svg xmlns="http://www.w3.org/2000/svg" xml:space="preserve" width="192" height="192"><circle cx="97" cy="96" r="85.5" fill="#87DED5"/><path fill="#56595B" d="M96.766 136.827c-1.088 0-2.712-.31-4.27-1.788-2.894-2.748-5.842-5.345-8.692-7.855-10.949-9.645-21.29-18.755-25.66-33.757a28.892 28.892 0 0 1-.755-12.852c.708-4.164 2.345-8.046 4.732-11.228 4.101-5.466 10.016-8.477 16.654-8.477 4.373 0 8.9 1.302 13.457 3.869 1.639.923 3.478 2.241 4.561 3.046 1.082-.806 2.921-2.123 4.56-3.046 4.557-2.567 9.099-3.869 13.501-3.869 6.752 0 12.77 3.064 16.944 8.628 4.955 6.604 6.456 15.549 4.017 23.928-4.206 14.438-14.192 23.222-24.766 32.522-3.261 2.868-6.632 5.832-9.889 9.021-.896.91-2.504 1.858-4.394 1.858z"/><path fill="#FF877F" d="M78.776 68.322c-5.43 0-8.813 2.989-10.695 5.497-3.505 4.671-4.571 11.387-2.784 17.525 3.765 12.925 12.878 20.954 23.431 30.25 2.629 2.316 5.339 4.703 8.052 7.245 3.128-3.013 6.286-5.79 9.348-8.483 10.16-8.936 18.934-16.652 22.533-29.011 1.762-6.048.679-12.705-2.824-17.373-2.731-3.643-6.633-5.648-10.983-5.648-3.104 0-6.417.979-9.844 2.909-1.965 1.107-4.535 3.113-4.562 3.133l-.11.087-.118.059a6.022 6.022 0 0 1-3.364 1.001c-1.757 0-3.067-.73-3.428-.96l-.151-.087-.141-.105c-.025-.02-2.596-2.023-4.561-3.13-3.426-1.933-6.722-2.909-9.799-2.909z"/><path fill="#FFF" d="M12.364 96.867c-.268-.544-.554-1.124-.858-1.749a86.82 86.82 0 0 0 .415 9.413l.761-.024.329-.013.293-.15c.799-.409 1.608-1.329.923-3.381-.322-.968-.969-2.28-1.863-4.096zm78.645-78.328c1.05 1.737 3.006 4.404 3.089 4.517l.195.266.289.158c.33.181.681.273 1.042.273 1.634 0 2.447-1.428 4.622-5.244.626-1.1 1.337-2.346 2.207-3.813a388.275 388.275 0 0 0 2.26-3.853 85.987 85.987 0 0 0-3.312-.232c-.479.818-.981 1.672-1.511 2.564-.884 1.489-1.632 2.803-2.233 3.858-.724 1.269-1.419 2.489-1.911 3.213-.657-.924-1.597-2.272-2.187-3.249-.771-1.276-1.872-2.958-3.267-5.089l-.713-1.09a86.87 86.87 0 0 0-3.33.351l1.549 2.371c1.38 2.106 2.468 3.769 3.211 4.999zM49.166 62.191c1.956.733 3.486 1.222 4.603 1.222.643 0 1.181-.162 1.601-.479.541-.409.838-1.036.838-1.766 0-1.329-.358-6.951-1.514-13.305-.49-2.692-.851-4.3-1.208-5.376-.233-.702-.852-2.565-2.554-2.565-.139 0-.279.014-.418.042l-.228.045-.204.113c-.196.109-1.95 1.104-3.028 2.397-.282.338-1.682 1.527-2.917 2.577-2.462 2.092-5.528 4.695-7.3 6.705-1.229 1.394-1.99 2.575-1.703 3.814.291 1.254 1.434 1.727 2.441 2.144.226.093.458.189.693.296 1.542.701 4.963 1.955 7.982 3.062 1.091.399 2.106.771 2.916 1.074zm-10.451-7.187c-.144-.06-.312-.129-.463-.196.147-.222.396-.556.82-1.036 1.631-1.848 4.731-4.482 6.995-6.405 1.86-1.581 2.851-2.429 3.276-2.94.333-.399.831-.8 1.281-1.119.303.89.684 2.594 1.137 5.088.941 5.177 1.343 9.925 1.441 11.965-.948-.194-2.379-.731-2.991-.96-.814-.305-1.836-.68-2.935-1.083-2.822-1.034-6.335-2.322-7.774-2.976-.281-.128-.55-.239-.787-.338zm112.733 72.449c-.687 0-1.431.188-2.216.387-.204.053-.414.105-.63.157l-.833.198c-3.2.759-9.859 2.339-13.074 3.334-3.692 1.143-5.534 1.949-6.014 3.439-.226.697-.088 1.429.385 2.055.997 1.318 6.043 6.385 11.055 10.938 3.455 3.138 4.913 4.105 6.241 4.105.714 0 1.338-.301 1.853-.872l.151-.18.095-.204c.04-.089 1.002-2.177 1.478-3.851.82-2.881 1.457-5.386 2.195-8.286.444-1.75.949-3.732 1.552-6.023.393-1.49.679-3.163-.174-4.269-.326-.423-.949-.928-2.064-.928zm-.644 4.44c-.606 2.303-1.112 4.291-1.559 6.047-.732 2.878-1.365 5.364-2.173 8.204-.265.932-.73 2.069-1.031 2.769-.534-.296-1.638-1.099-3.916-3.168-4.454-4.045-8.748-8.328-10.242-10.002.544-.291 1.618-.726 3.693-1.367 3.118-.966 9.713-2.529 12.882-3.28l.836-.199c.229-.055.452-.11.671-.166.394-.1.797-.202 1.112-.257-.023.281-.093.729-.273 1.419zm31.561-33.941c-1.342-1.094-2.531-2.028-3.485-2.778-1.149-.903-2.253-1.771-2.896-2.364 1.01-.514 2.481-1.251 3.535-1.69a97.094 97.094 0 0 0 2.765-1.222 87.405 87.405 0 0 0-.279-3.137 124.643 124.643 0 0 1-3.634 1.616c-1.872.782-4.798 2.323-4.922 2.388l-.292.154-.199.262c-.544.715-.876 1.894.629 3.449.709.733 1.859 1.637 3.45 2.888.995.782 2.123 1.668 3.445 2.746.637.52 1.244 1.012 1.826 1.481.082-1.228.137-2.462.166-3.702a4.772 4.772 0 0 0-.109-.091zm-35.62-57.291c-1.598-1.869-2.861-3.346-3.737-4.445-1.238-1.55-3.46-3.897-3.554-3.997l-.215-.227-.287-.122a2.153 2.153 0 0 0-.841-.175c-1.431 0-2.142 1.417-2.409 1.95-.416.826-.856 1.987-1.467 3.594a215.212 215.212 0 0 1-1.484 3.824c-4.25 10.598-5.147 14.008-5.455 15.795-.171.999.177 1.665.5 2.047.771.916 2.065 1.021 2.972 1.021 1.228 0 2.854-.229 4.43-.477 4.309-.677 13.212-2.13 16.068-2.784.242-.056.482-.107.717-.157 1.665-.355 3.387-.723 3.938-2.299.559-1.591-.58-3.288-1.768-4.738a525.098 525.098 0 0 0-7.408-8.81zm4.616 12.936c-.249.053-.504.107-.761.167-2.776.635-11.593 2.073-15.866 2.745-1.387.217-2.941.44-3.967.44-.185 0-.334-.007-.45-.018.526-2.518 2.232-7.357 5.2-14.756a214.298 214.298 0 0 0 1.504-3.875c.443-1.167.87-2.292 1.203-3.026.747.813 1.778 1.957 2.453 2.803.908 1.138 2.186 2.632 3.803 4.523 2.011 2.352 4.514 5.278 7.367 8.764.807.985 1.088 1.537 1.187 1.797-.376.158-1.138.321-1.673.436zm-51.354 114.002c-1.073-1.722-3.068-4.361-3.152-4.473l-.199-.263-.291-.154a2.146 2.146 0 0 0-1.017-.258c-1.163 0-1.929.898-2.527 1.778-.55.811-1.18 1.951-2.05 3.531-.611 1.107-1.303 2.363-2.152 3.842-2.17 3.774-3.754 6.65-4.922 8.867 1.042.163 2.091.307 3.145.432a298.89 298.89 0 0 1 4.361-7.814c.863-1.501 1.562-2.77 2.178-3.888.706-1.28 1.384-2.51 1.865-3.24.67.913 1.627 2.248 2.232 3.217.789 1.265 1.914 2.932 3.337 5.042a572.927 572.927 0 0 1 4.587 6.873 81.902 81.902 0 0 0 3.306-.387 523.503 523.503 0 0 0-5.422-8.153c-1.407-2.085-2.518-3.734-3.279-4.952zM67.62 119.106c-4.402-1.093-8.175-1.944-11.207-2.629-2.4-.542-4.296-.97-5.657-1.326-1.918-.502-5.104-1.054-5.238-1.077l-.308-.053-.303.075a2.093 2.093 0 0 0-1.328.981c-.667 1.15-.249 2.611.76 6.143.324 1.134.691 2.419 1.099 3.951 2.934 11.035 4.255 14.306 5.079 15.921.454.892 1.243 1.402 2.165 1.402 1.504 0 2.979-1.25 5.716-4.052 3.048-3.12 9.313-9.61 11.211-11.844.161-.189.323-.375.481-.555 1.122-1.281 2.281-2.604 1.78-4.199-.504-1.607-2.431-2.285-4.25-2.738zm.228 4.975c-.167.19-.339.387-.51.588-1.846 2.172-8.049 8.598-11.072 11.691-.628.644-2.365 2.422-3.282 2.99-1.084-2.33-2.613-7.231-4.665-14.943a207.72 207.72 0 0 0-1.114-4.005c-.343-1.201-.674-2.358-.846-3.146 1.084.205 2.595.506 3.643.779 1.409.368 3.327.802 5.754 1.349 3.018.683 6.774 1.529 11.145 2.615 1.236.308 1.791.581 2.025.73-.203.354-.717.94-1.078 1.352z"/></svg>