<svg xmlns="http://www.w3.org/2000/svg" viewBox="0 0 176 176"><title>Gravity Defied</title><circle cx="88" cy="88" r="88" fill="#fff"/><path d="M131.31,84.11a13.17,13.17,0,0,0-9-11.72c-6.68-2-11.8.46-15,4.88a1.33,1.33,0,0,1-1.93.47,3.57,3.57,0,0,1,.42-.9c1.24-1.38,2.49-2.77,3.8-4.1.54-.54,1-1.17.43-1.72a1.77,1.77,0,0,0-1.74,0,58.94,58.94,0,0,0-4.67,5.2c-.5.63-.83.9-1.61.72-1.79-.42-3.6-.74-5.39-1.13-.24-.06-.43-.34-.65-.5-.43-.32-.85-.87-1.31-.91-2-.16-3.83-.86-5.86-.94A9.75,9.75,0,0,0,85,74c-2.34.84-4.72,1.52-7.21.82a2.2,2.2,0,0,1-1.37-1.34,5.51,5.51,0,0,0-1.7-2.87,11.62,11.62,0,0,1-.88-1c.17-.09.22-.13.24-.12.67.27,1.35.51,2,.84a1.2,1.2,0,0,0,1.82-.51c.58-1.21.26-2-.74-2.33a3.07,3.07,0,0,1-2-2.81c.13-.85,1.13-1.3,2.65-1.18.39,0,.76.14,1.15.15a8.89,8.89,0,0,0,1-.13l.16-.47c-1.84-1.08-3.56-2.47-5.53-3.16-3.41-1.21-5.82.64-6.11,4.15a3.24,3.24,0,0,0,1.85,3.43c-1.92,1-4,4.18-3.07,6.59,1.68,4.5,3.3,9,5,13.54.86,2.32,2.89,3.29,5,3.86,2.34.63,4.77.94,7.15,1.43a5.38,5.38,0,0,1,1.41.5c1.59.76,1.12,2.34,1.33,3.6s.13,2.3-1.74,2.27c-.38,0-.76.08-1.14.11-3.4.32-6.82.45-10,1.8-4.8,2-9,5-13.17,8-.27.18-.24.78-.35,1.18.42,0,.92.17,1.25,0,3-1.62,5.85-3.33,8.81-4.92A9.24,9.24,0,0,1,74.23,104c4.31-.32,8.64-.42,13-.57,1.84-.06,2.33.58,1.81,2.35a14.89,14.89,0,0,0-1.94-.5,13.75,13.75,0,1,0,6.64,3.15h.12c1-.2,2-.45,3-.67,1.35-.29,2.14-1.32,3.15-2.12a6.19,6.19,0,0,0,2.26-3.53,19.88,19.88,0,0,0,.6-2,3.85,3.85,0,0,0,0-2c-1.63-3.79-3.63-7.44-4.56-11.52-.21-1-.64-1.85-.89-2.79-.47-1.78-.88-3.57-1.32-5.35l.37-.16c1.61.9,3.24,1.78,4.82,2.73.17.09.18.59.14.88a18,18,0,0,0,.89,9.51c.34.85.57,2.07,1.85,1.56s.54-1.46.22-2.26a14,14,0,0,1-.71-8.32c1.41.68,1.4.67,1.18,2a3.74,3.74,0,0,0-.06.6c.24,6.65,4.54,12,11.23,13.14A13.3,13.3,0,0,0,131.31,84.11Zm-46,29.56c.84-1,1.7-2.15,2.7-3.17a1.58,1.58,0,0,1,1.47-.22,1.48,1.48,0,0,1,.46,1.33c-.33,1.35-.83,2.66-1.26,4Zm1.94,5.42a2.79,2.79,0,0,1-3.12,2.15,2.82,2.82,0,0,1-2-3,2.76,2.76,0,0,1,3.09-2A2.54,2.54,0,0,1,87.21,119.09Zm-5.56-4.23c-1.71,1.71-2.38,5.21-.92,6.77a5.39,5.39,0,0,0,4.82,1.85c2-.32,3.11-1.81,3.72-3.63.78-2.37,1.47-4.78,2.19-7.14,1.54-.35,1.63,1.09,1.89,1.68,2.47,5.61,0,11.48-5.12,13.19a9.56,9.56,0,0,1-13-9.49,9.39,9.39,0,0,1,11.15-8.57C84.72,111.4,83.28,113.22,81.65,114.86Zm5.81-27.34a30.34,30.34,0,0,1-3.74-1.24c-1.39-.59-2.7-1.36-4-2.06a.54.54,0,0,1-.28-.23c-.81-1.87-1.6-3.73-2.43-5.69a3.75,3.75,0,0,1,.86-.17,11.76,11.76,0,0,0,6.35-1.59,4.17,4.17,0,0,1,3-.57A1.33,1.33,0,0,0,88,76c1.75-.83,2.09.5,2.89,1.59,2.15,2.94,1.54,6.34,1.92,9.57A38.49,38.49,0,0,1,93,92a3,3,0,0,1-1.31,2.89,11,11,0,0,1-.13-1.49C91.67,90.38,90.42,88.37,87.46,87.52Zm17-6.76c0-.32-.2-.9-.13-.93a8.87,8.87,0,0,1,1.44-.34l.23.74Zm4.81.35c0-.23.81-.55,1.19-.49,1.29.22,2.55.59,3.79.9-.45,1.38-.84,2.57-1.24,3.81-1.18-.63-2.39-1.22-3.54-1.91S109.15,81.87,109.26,81.11Zm17.79,6.8a9.89,9.89,0,0,1-9.44,6.58,9.46,9.46,0,0,1-9-9.41c2.34,1.34,4.5,2.49,6.56,3.8a5.2,5.2,0,0,0,5.41.21,4.9,4.9,0,0,0,2.1-5A4.62,4.62,0,0,0,119,80.39c-2.63-.48-5.27-.91-8-1.38,2.07-3.09,7-4.59,11-2.7A9.49,9.49,0,0,1,127.05,87.91Zm-11.5-3.34a2.51,2.51,0,0,1,4.94.88,2.39,2.39,0,0,1-3,2A2.35,2.35,0,0,1,115.55,84.57Z" transform="translate(-8 -8)" fill="#56595b"/></svg>