<svg xmlns="http://www.w3.org/2000/svg" xml:space="preserve" id="Layer_1" x="0" y="0" style="enable-background:new 0 0 192 192" version="1.1" viewBox="0 0 192 192"><style>.st1{fill:#fff}</style><path d="M157.8 192H34.2C15.3 192 0 176.7 0 157.8V34.2C0 15.3 15.3 0 34.2 0h123.7C176.7 0 192 15.3 192 34.2v123.7c0 18.8-15.3 34.1-34.2 34.1z" style="fill:#728dbe"/><path d="M26.6 41.3h15.8V62h10.4V41.3h16v54.5h-16V73.4H42.5v22.4H26.6V41.3zM91.1 41.3h18l14.7 54.5h-16L105.7 85H93.9l-2.1 10.8H76.1l15-54.5zm12.5 33.8-4-24.1-4.3 24.1h8.3zM127.9 85.6l19.9-33.5h-18.5V41.3h35.8v10.2L145.7 85h20.1v10.8h-37.9V85.6zM50.4 146v-26.7h8.1l4.8 18.2 4.8-18.2h8.1V146h-5v-21l-5.3 21h-5.2l-5.3-21v21h-5zM80.2 136.1c0-1.7.4-3.3 1.3-4.9.8-1.6 2-2.8 3.6-3.6 1.5-.8 3.2-1.3 5.1-1.3 2.9 0 5.3.9 7.2 2.8 1.9 1.9 2.8 4.3 2.8 7.2 0 2.9-.9 5.3-2.8 7.3-1.9 1.9-4.3 2.9-7.1 2.9-1.8 0-3.5-.4-5.1-1.2-1.6-.8-2.8-2-3.7-3.5-.8-1.6-1.3-3.5-1.3-5.7zm5.3.3c0 1.9.5 3.4 1.4 4.4s2 1.5 3.4 1.5c1.3 0 2.5-.5 3.4-1.5.9-1 1.4-2.5 1.4-4.4 0-1.9-.5-3.3-1.4-4.4-.9-1-2-1.5-3.4-1.5-1.3 0-2.5.5-3.4 1.5s-1.4 2.4-1.4 4.4zM104 146v-26.7h5.1v9.6c1.6-1.8 3.4-2.7 5.6-2.7 2.4 0 4.3.9 5.8 2.6 1.5 1.7 2.3 4.2 2.3 7.3 0 3.3-.8 5.8-2.4 7.6-1.6 1.8-3.5 2.7-5.7 2.7-1.1 0-2.2-.3-3.3-.8s-2-1.4-2.8-2.4v2.8H104zm5-10.1c0 2 .3 3.5.9 4.4.9 1.4 2.1 2 3.5 2 1.1 0 2.1-.5 2.9-1.4.8-1 1.2-2.5 1.2-4.6 0-2.2-.4-3.8-1.2-4.8-.8-1-1.8-1.5-3.1-1.5-1.2 0-2.2.5-3.1 1.4-.6 1.2-1.1 2.6-1.1 4.5zM126.9 124.1v-4.7h5.1v4.7h-5.1zm0 21.9v-19.3h5.1V146h-5.1zM137.3 146v-26.7h5.1V146h-5.1z" class="st1"/><path d="M157.8 0H34.2C15.3 0 0 15.3 0 34.2v123.7C0 176.7 15.3 192 34.2 192h123.7c18.9 0 34.2-15.3 34.2-34.2V34.2C192 15.3 176.7 0 157.8 0zM13.1 157.8V34.2c0-11.6 9.4-21 21-21h123.7c11.6 0 21 9.4 21 21v122.3l-11 .8-37.4 17.2s0 2 .2 4.4H34.2c-11.6 0-21.1-9.5-21.1-21.1z" style="fill:#54688c"/><path d="M173.2 153.3s-10.9-5.6-20.1-3.9c0 0-12.6.9-20.6 15.2 0 0-7.9 19.9-31.1 27.3 0 0 51.1-7.2 90.6-40.6 0 .1-7.6 6.3-18.8 2z" class="st1"/></svg>