<?xml version="1.0" encoding="UTF-8" standalone="no"?>
<svg
   xmlns:dc="http://purl.org/dc/elements/1.1/"
   xmlns:cc="http://creativecommons.org/ns#"
   xmlns:rdf="http://www.w3.org/1999/02/22-rdf-syntax-ns#"
   xmlns:svg="http://www.w3.org/2000/svg"
   xmlns="http://www.w3.org/2000/svg"
   xmlns:sodipodi="http://sodipodi.sourceforge.net/DTD/sodipodi-0.dtd"
   xmlns:inkscape="http://www.inkscape.org/namespaces/inkscape"
   inkscape:export-ydpi="96"
   inkscape:export-xdpi="96"
   inkscape:export-filename="/home/jphilippe/inkscape/icônes/delta-github/idées/haz_mobil_zeitung_hannover.png"
   inkscape:version="1.0 (4035a4fb49, 2020-05-01)"
   sodipodi:docname="haz_mobil_zeitung_hannover.svg"
   xml:space="preserve"
   style="enable-background:new 0 0 192 192;"
   viewBox="0 0 192 192"
   y="0px"
   x="0px"
   id="Layer_1"
   version="1.1"><metadata
   id="metadata37"><rdf:RDF><cc:Work
       rdf:about=""><dc:format>image/svg+xml</dc:format><dc:type
         rdf:resource="http://purl.org/dc/dcmitype/StillImage" /></cc:Work></rdf:RDF></metadata><defs
   id="defs35">
	
	
	
	
	
</defs><sodipodi:namedview
   inkscape:current-layer="Layer_1"
   inkscape:window-maximized="1"
   inkscape:window-y="0"
   inkscape:window-x="36"
   inkscape:cy="-58.126515"
   inkscape:cx="308.61438"
   inkscape:zoom="0.81022652"
   inkscape:snap-nodes="false"
   inkscape:snap-midpoints="true"
   inkscape:snap-smooth-nodes="true"
   inkscape:snap-intersection-paths="true"
   inkscape:object-paths="true"
   showgrid="false"
   id="namedview33"
   inkscape:window-height="1052"
   inkscape:window-width="1884"
   inkscape:pageshadow="2"
   inkscape:pageopacity="0"
   guidetolerance="10"
   gridtolerance="10"
   objecttolerance="10"
   borderopacity="1"
   bordercolor="#666666"
   pagecolor="#ffffff" />
<style
   id="style2"
   type="text/css">
	.st0{fill:#728DBE;}
	.st1{fill:#FFFFFF;}
	.st2{fill:#54688C;}
</style>

<g
   id="g1036"><rect
     style="fill:#54688c;fill-opacity:1;fill-rule:evenodd;stroke:none"
     width="153"
     height="153"
     x="19.347076"
     y="19.499998"
     rx="10"
     id="rect875" /><rect
     id="rect977"
     rx="8.1943598"
     y="33.313148"
     x="33.160233"
     height="125.37371"
     width="125.37371"
     style="fill:#728dbe;fill-opacity:1;fill-rule:evenodd;stroke:none;stroke-width:0.819436" /><g
     id="g947"
     transform="matrix(0.52442529,0,0,0.52442529,45.39736,46.756464)"><g
       id="g923">
		<path
   id="path917"
   d="M 26.6,41.3 H 42.4 V 62 H 52.8 V 41.3 h 16 v 54.5 h -16 V 73.4 H 42.5 V 95.8 H 26.6 Z"
   class="st1" />
		<path
   id="path919"
   d="m 91.1,41.3 h 18 l 14.7,54.5 h -16 L 105.7,85 H 93.9 L 91.8,95.8 H 76.1 Z m 12.5,33.8 -4,-24.1 -4.3,24.1 z"
   class="st1" />
		<path
   id="path921"
   d="M 127.9,85.6 147.8,52.1 H 129.3 V 41.3 h 35.8 V 51.5 L 145.7,85 h 20.1 v 10.8 h -37.9 z"
   class="st1" />
	</g><g
       id="g935">
		<path
   id="path925"
   d="m 50.4,146 v -26.7 h 8.1 l 4.8,18.2 4.8,-18.2 h 8.1 V 146 h -5 v -21 l -5.3,21 h -5.2 l -5.3,-21 v 21 z"
   class="st1" />
		<path
   id="path927"
   d="m 80.2,136.1 c 0,-1.7 0.4,-3.3 1.3,-4.9 0.8,-1.6 2,-2.8 3.6,-3.6 1.5,-0.8 3.2,-1.3 5.1,-1.3 2.9,0 5.3,0.9 7.2,2.8 1.9,1.9 2.8,4.3 2.8,7.2 0,2.9 -0.9,5.3 -2.8,7.3 -1.9,1.9 -4.3,2.9 -7.1,2.9 -1.8,0 -3.5,-0.4 -5.1,-1.2 -1.6,-0.8 -2.8,-2 -3.7,-3.5 -0.8,-1.6 -1.3,-3.5 -1.3,-5.7 z m 5.3,0.3 c 0,1.9 0.5,3.4 1.4,4.4 0.9,1 2,1.5 3.4,1.5 1.3,0 2.5,-0.5 3.4,-1.5 0.9,-1 1.4,-2.5 1.4,-4.4 0,-1.9 -0.5,-3.3 -1.4,-4.4 -0.9,-1 -2,-1.5 -3.4,-1.5 -1.3,0 -2.5,0.5 -3.4,1.5 -0.9,1 -1.4,2.4 -1.4,4.4 z"
   class="st1" />
		<path
   id="path929"
   d="m 104,146 v -26.7 h 5.1 v 9.6 c 1.6,-1.8 3.4,-2.7 5.6,-2.7 2.4,0 4.3,0.9 5.8,2.6 1.5,1.7 2.3,4.2 2.3,7.3 0,3.3 -0.8,5.8 -2.4,7.6 -1.6,1.8 -3.5,2.7 -5.7,2.7 -1.1,0 -2.2,-0.3 -3.3,-0.8 -1.1,-0.5 -2,-1.4 -2.8,-2.4 v 2.8 z m 5,-10.1 c 0,2 0.3,3.5 0.9,4.4 0.9,1.4 2.1,2 3.5,2 1.1,0 2.1,-0.5 2.9,-1.4 0.8,-1 1.2,-2.5 1.2,-4.6 0,-2.2 -0.4,-3.8 -1.2,-4.8 -0.8,-1 -1.8,-1.5 -3.1,-1.5 -1.2,0 -2.2,0.5 -3.1,1.4 -0.6,1.2 -1.1,2.6 -1.1,4.5 z"
   class="st1" />
		<path
   id="path931"
   d="m 126.9,124.1 v -4.7 h 5.1 v 4.7 z m 0,21.9 V 126.7 H 132 V 146 Z"
   class="st1" />
		<path
   id="path933"
   d="m 137.3,146 v -26.7 h 5.1 V 146 Z"
   class="st1" />
	</g></g><rect
     style="fill:#54688c;fill-opacity:1;stroke:none;stroke-width:37.7882;stroke-linecap:round;stroke-linejoin:round;stroke-opacity:1"
     id="rect981"
     width="26.753418"
     height="12.772513"
     x="40.318558"
     y="207.08507"
     rx="6.3862567"
     ry="6.3862567"
     transform="rotate(-30)" /><path
     class="st1"
     d="m 157.82965,142.89774 c 0,0 -8.59436,-4.29461 -15.84831,-2.99091 0,0 -9.93475,0.69021 -16.24254,11.65684 0,0 -6.22893,15.26128 -24.52149,20.93633 0,0 40.29095,-5.52165 71.43562,-31.13606 0,0.0769 -5.99239,4.83145 -14.82328,1.5338 z"
     id="path979"
     style="stroke-width:0.77761" /></g></svg>
