<svg xmlns="http://www.w3.org/2000/svg" viewBox="0 0 176 154.33"><path fill="#56595b" d="m175.91 56.89-20-13.26V33.26l-25.1-16.63-3.48-8.35L107.13 0 91.87 6.38l-40 .14-12.2-5L14.8 11.95l-7.34 17.9 7.21 17.23L0 82.89l14.42 34.47 12.19-5.1 9.32 22.29 18.28-7.65L61 143.08l17.23-7.21 3.35 8 25.52 10.47 25.21-10.56 9.46-23.08-12.31 5.16-4-9.49 20.33-20.48 4 9.49L176 78.96Z"/><path fill="#fff" d="m109.77 141.17-18.16-7.44-6.34-15.14 5.87-14.31 11.41 27.27 13.45-5.64Zm31.28-67.34 11 7.27-17.33 7.24-17 17.17-.07-20.47L103 75.37l-17.23 7.24-17.7 43.22-7.23-17.23L74.4 75.5l-17.23 7.24L43 117.32l-7.24-17.23 10-24.46-17.21 7.24-7.08 17.3-7.24-17.24L23 61.44l17.26-7.27-5.87 14.35L68.86 54.1 63 68.41l34.54-14.48 2.58-6.29 6.28 2.58 14.28-6L92 32.5l-5.84 14.33-17.23 7.24 5.87-14.32-34.46 14.42 5.87-14.35 11.49-4.81-17.9-7.34-6 2.52 5.26 12.62L29 47.03 21.72 29.8l3.19-7.78 14.8-6.2 22.09 9.06 2.13-5.18 30.58-.11 12.61-5.27 10.07 4.13 2.93 7 22.28 14.77-9.55 4 30.62 20.31-18.66.06Z"/></svg>