<?xml version="1.0" encoding="UTF-8"?>
<svg width="192" height="192" version="1.1" viewBox="0 0 192 192" xmlns="http://www.w3.org/2000/svg" xmlns:cc="http://creativecommons.org/ns#" xmlns:dc="http://purl.org/dc/elements/1.1/" xmlns:rdf="http://www.w3.org/1999/02/22-rdf-syntax-ns#">
 <metadata>
  <rdf:RDF>
   <cc:Work rdf:about="">
    <dc:format>image/svg+xml</dc:format>
    <dc:type rdf:resource="http://purl.org/dc/dcmitype/StillImage"/>
   </cc:Work>
  </rdf:RDF>
 </metadata>
 <circle cx="96" cy="96" r="88" fill="#56595b"/>
 <path d="m85.353 88.965s2.2212-11.715-1.7327-15.102c-5.3574-4.5893-17.182-0.47083-18.965 6.0027-1.3612 4.942-1.1529 35.85 0.91881 37.853 2.2277 2.1545 10.707 4.8586 15.93 4.7139 7.0984-2.8289 1.454-11.509 4.432-16.28 2.4957-3.9985 6.432-7.1778 10.625-9.3303 3.8836-1.9935 7.8656-5.3098 8.987-9.5296 1.0476-3.9422-0.57582-10.868 1.5738-12.485 5.2679-3.9633 15.711 0.4832 18.729 3.9869 2.2287 2.5867 1.1859 36.239 0.2353 37.789-3.5394 5.7693-15.223 7.6153-18.711 4.501-3.4557-3.085-1.3025-14.591-1.3025-14.591" fill="none" stroke="#fff" stroke-linecap="round" stroke-width="5"/>
</svg>
