<svg width="192" height="192" version="1.1" viewBox="0 0 192 192" xmlns="http://www.w3.org/2000/svg">
 <rect x="20" y="20" width="152" height="152" rx="9.9346" fill="#83868c"/>
 <g fill="#98dc9a">
  <path d="m132.85 125.75a36.852 29.854 0 0 0-18.426-25.855 36.852 29.854 0 0 0-36.852 0 36.852 29.854 0 0 0-18.426 25.855" stroke-width="1.977"/>
  <rect transform="rotate(60)" x="110.73" y="-17.348" width="21.066" height="4.2131" rx=".83297" ry="2.1066" stroke-width="1.977"/>
  <rect transform="matrix(-.5 .86603 .86603 .5 0 0)" x="14.767" y="148.87" width="21.067" height="4.2131" rx=".83297" ry="2.1067" stroke-width="1.977"/>
 </g>
 <circle cx="81.11" cy="113.61" r="9.4427" fill="none" stroke="#56595b" stroke-linecap="round" stroke-linejoin="round" stroke-width="2"/>
 <circle cx="111.22" cy="113.61" r="9.4427" fill="none" stroke="#56595b" stroke-linecap="round" stroke-linejoin="round" stroke-width="2"/>
 <g fill="#56595b">
  <circle cx="81.241" cy="113.01" r="2.4394"/>
  <circle cx="111.72" cy="113.01" r="2.4394"/>
  <path d="m90.08 111.51c4.1467-0.92614 8.0228-0.7474 11.751 0" stroke="#56595b" stroke-width="2"/>
  <path d="m62.177 101.04h67.215s-19.051-8.1848-33.088-8.2349c-15.784-0.05639-34.127 8.2349-34.127 8.2349z" stroke-width="0"/>
  <path d="m81.021 66.25-6.8253 20.253h43.4l-6.3802-20.105-20.476 3.3385z"/>
 </g>
</svg>
