<svg width="192" height="192" version="1.1" viewBox="0 0 192 192" xmlns="http://www.w3.org/2000/svg">
 <path d="m172.5 161.8c0 5.9099-4.7918 10.701-10.701 10.701h-131.59c-5.9099 0-10.701-4.7918-10.701-10.701v-131.59c0-5.9099 4.7909-10.701 10.701-10.701h131.59c5.9099 0 10.701 4.7909 10.701 10.701z" fill="#99bef9"/>
 <path d="m161.91 172.5c5.9099 0 10.595-4.8647 10.595-10.774v-88.864c-4.7224 3.9183-12.157 12.49-23.086 24.562-8.1515 9.0018-15.823 17.505-19.837 21.218-6.0736 5.619-9.2304 8.1621-10.739 9.2696 0.11564-1.8164 0.86461-3.4175 0.87261-3.4362 0.11919-0.25084 0.11385-0.5426-0.0161-0.78722-0.13076-0.24372-0.36648-0.41273-0.64045-0.45364-0.2037-0.0302-0.40384-0.0463-0.59597-0.0463-2.0058 0-2.7806 1.5984-3.2938 2.6543-0.15389 0.31667-0.38249 0.78811-0.52303 0.90197-0.2455-0.0561-0.81568-0.76231-1.1252-1.1475-0.63067-0.78632-1.3467-1.675-2.3172-2.0281-1.151-0.41896-2.4017-0.50614-3.2476-0.50614-0.3647 0-0.59508 0.0169-0.61999 0.0187-0.43141 0.0338-0.84058 0.35669-0.87172 0.78989-0.0302 0.41984 0.1788 0.78098 0.57819 0.88773 0.13431 0.1005 0.6778 0.57461 1.4855 2.0894 0.25084 0.47055 0.36291 0.75964 0.4145 0.92865-0.0819 8e-3 -0.19213 0.0143-0.33979 0.0143-0.21437 0-0.47588-0.0124-0.84592-0.0382-2.4159-0.17346-3.9779 1.3609-4.0393 1.4232-0.19657 0.19659-0.2873 0.47501-0.24549 0.74898 0.0409 0.27574 0.20992 0.51413 0.45543 0.64489 0.28731 0.1521 0.57195 0.29887 0.8468 0.44031 0.85304 0.44119 1.9916 1.0292 2.3101 1.3858-0.0214 0.0205-0.0507 0.0472-0.0881 0.0756-1.4997 1.1999-2.6899 2.5333-2.7397 2.5885-0.2375 0.26685-0.2882 0.64934-0.13076 0.96957 0.15745 0.31844 0.49279 0.51146 0.84771 0.48745 0.79522-0.0578 1.6758 0.12364 2.4168 0.3389-19.096 11.015-41.987 16.948-57.995 20.001-14.328 2.7326-26.107 3.6977-29.885 3.977v0.89395c-8.89e-4 5.9063 4.8629 10.771 10.773 10.771z" fill="#76b683"/>
 <path d="m160.12 107.3c-8.6354 9.5951-41.525 57.64-120.93 65.196h122.71c5.9099 0 10.595-4.8647 10.595-10.774v-68.234c-2.834 3.7173-7.8499 8.7821-12.378 13.812z" fill="#906f61"/>
 <path d="m172.5 74.119c-9.4439 9.0677-34.005 37.459-42.33 45.162-9.7757 9.0463-12.16 10.213-12.16 10.213-0.43674-2.6267 0.89574-5.3975 0.89574-5.3975-2.9176-0.43853-2.7619 3.2085-4.0748 3.5011-1.3138 0.29265-2.3305-2.6258-3.9352-3.2093-1.6056-0.58352-3.4984-0.43675-3.4984-0.43675s0.7285 0.29176 1.8973 2.4808c1.1679 2.1882 0.43674 2.335-1.6065 2.19-2.0423-0.14677-3.357 1.1679-3.357 1.1679 2.48 1.3138 4.6664 2.1917 3.2067 3.3597-1.4597 1.167-2.633 2.4862-2.633 2.4862 2.0432-0.14588 4.4725 1.0354 4.4725 1.0354-34.025 20.364-80.429 24.425-89.876 25.032v0.0187c0 3.1631 1.409 6.0033 3.5901 7.962 49.974-5.0836 77.785-18.56 87.821-24.34 10.833-6.2381 29.473-23.635 43.26-39.393 7.4621-8.5286 13.602-15.614 18.325-20.32v-11.513z" fill="#90dc9f"/>
 <path d="m48.607 113.09 19.458-21.181" fill="#56595b" stroke="#56595b" stroke-linecap="round" stroke-width="1px"/>
 <path d="m75.197 88.795s-3.6497 0.23622-4.678-0.0393c-1.4179-0.3799-1.4964-4.0229-0.07864-4.4028 2.1539-0.57712 8.845-0.15725 8.845-0.15725z" fill="#8e6f60" stroke="#56595b" stroke-width=".5"/>
 <path d="m78.813 84.707c-2.3086-2.2463-4.1139-4.784-4.4421-8.1767l3.027-3.2628c1.7297-0.38003 4.5425-0.0286 6.5846 0.21622l-0.25552 0.5307 5.2284-0.66829z" fill="#ff837d" stroke="#56595b" stroke-width=".5"/>
 <path d="m88.635 73.511s-6.8951-0.49766-9.3674 1.0841c-1.4785 0.94581-2.361 3.4033-1.6401 5.0035 0.72751 1.6146 4.0584 1.7513 4.0584 1.7513z" fill="#ff837d" stroke="#56595b" stroke-width=".5"/>
 <path d="m97.918 55.636-0.11793 1.5528" fill="none" stroke="#56595b" stroke-linecap="round" stroke-width="1px"/>
 <path d="m95.147 62.26-0.0393-3.6953s0.18481-0.33887 0.33414-0.45208c0.72049-0.54618 1.6548-1.1673 2.5356-0.96315 1.2238 0.28368 2.5749 2.7518 2.5749 2.7518l-3.1449 3.9901z" fill="#8e6f60" stroke="#56595b" stroke-width=".5"/>
 <path d="m89.98 72.215s3.0825-8.8734 3.8499-9.6405c0.83356-0.83355 3.8129 0.43362 3.2235 1.4545-0.94039 1.6288-7.0734 8.1862-7.0734 8.1862z" fill="#ff837d" stroke="#56595b" stroke-width=".5"/>
 <path d="m52.596 109.24 1.376 0.13899-0.13899-1.7096z" fill="#56595b"/>
 <path d="m54.681 111.01-0.12508-1.2092 1.098 0.19458z" fill="#56595b"/>
 <path d="m67.23 97.88c-10.025-6.2123-20.811-9.4101-31.715-11.387" fill="none" stroke="#56595b" stroke-linecap="round" stroke-width="2"/>
 <path d="m71.539 135.8s-9.5471-13.598-0.49747-22.677c8.7134-8.7417 20.004 0.88434 20.004 0.88434l32.861-35.834s-10.427-12.251-0.69995-21.978c7.0728-7.0728 13.067-3.5363 14.186-4.1996 1.07-0.63463 2.7584-2.3451 1.8787-3.2248-1.5001-1.5001-6.564-7.2838-10.185-9.3745-1.3482-0.77839-3.3128-0.48282-4.661 0.29559-5.0567 2.9195-10.253 8.5846-15.058 11.358-4.3539 1.7313-14.826-1.303-18.221-0.45354-1.0878 0.27222-1.2234 2.4139-0.71997 3.286 1.2107 2.097 13.974 2.2658 13.974 2.2658s-34.082 39.73-52.132 57.912c-1.2377 1.2466-1.186 4.0275 0.05612 5.2696 5.5528 5.5528 16.742 16.756 16.742 16.756l2.1859 0.15218z" fill="#ba6561" stroke="#56595b" stroke-width="1px"/>
 <path d="m92.784 50.893s-0.19564 0.86942 0.21447 1.0228c3.0082 1.1256 10.783 1.6474 13.99 1.4848 0.86999-0.0441 2.429-1.9099 2.429-1.9099-3.4436 1.2719-11.803-0.62294-16.634-0.59778z" fill="#ff837d"/>
 <path d="m63.798 127.74s-6.8568-6.223-9.5026-9.4368c-0.72717-0.88323-0.78562-2.5421-0.06599-3.4316 5.5149-6.8157 14.057-15.525 19.005-21.315 0.64944-0.75986 2.2215-0.85352 2.991-0.21556 4.8062 3.9846 14.689 15.159 14.689 15.159s-12.406-6.8635-21.639 0.96048c-8.2359 6.9789-5.4772 18.279-5.4772 18.279z" fill="#ff837d"/>
 <path d="m82.407 94.217s6.722 6.5352 9.5684 9.2384c0.9114 0.86557 2.9017 0.65284 3.7615-0.26397 7.0962-7.5664 21.315-24.021 21.315-24.021-2.9485-2.6377-4.8709-6.1936-4.4874-11.813l-8.1829-7.9849-19.335 20.854c1.9652 4.4048 3.03 8.8913-2.6396 13.99z" fill="#ff837d"/>
 <path d="m107.22 55.875 8.117 8.3809c3.809-11.96 11.098-15.29 19.269-16.432 0 0-2.4633-3.9944-4.4874-4.8834-1.148-0.50417-2.5626-0.36714-3.7615 0-7.362 2.2546-12.913 7.0774-19.138 12.934z" fill="#ff837d"/>
 <path d="m75.148 89.399 20.391 19.995" fill="none" stroke="#56595b" stroke-width=".5"/>
 <path d="m104.18 56.799 10.691 10.493c0.3106 6.3546 3.8827 9.4475 7.457 12.539" fill="none" stroke="#56595b" stroke-width=".5"/>
 <path d="m80.098 90.257 3.8935-4.6854" fill="none" stroke="#56595b" stroke-linecap="round" stroke-width="2"/>
 <path d="m91.735 115.22 33.342-36.525" fill="none" stroke="#56595b" stroke-width="2.2"/>
 <path d="m137.39 51.995s1.1495 2.4306 2.2645 2.464c1.9437 0.0582 2.799-2.7001 4.1972-4.0515 0.20322-0.19642 0.58079-0.30847 0.60931-0.58967 0.12655-1.2475-1.2758-2.6469-2.1228-3.1055-0.24613-0.13328-0.60259 0.42826-0.80587 0.23586-2.3431-2.2176-5.9558-5.2442-8.2357-7.8788-0.19436-0.22461-0.10701-0.65571 0.0787-0.88756 0.20203-0.25234 0.92385 0.0284 0.92385-0.29484s-0.64408-0.13288-0.92385-0.29484c-0.26889-0.15567-0.54408-0.35357-0.68793-0.62898-0.13771-0.26364 0.17291-0.82225-0.11794-0.8845-0.31647-0.0678-0.19407 0.76017-0.51104 0.82553-0.80543 0.1661-1.4824-0.87266-2.0226-1.4128-0.37789-0.37788-1.2073 0.44148-0.82949 0.81936 0.52828 0.52828 2.0893 1.4196 2.7647 2.3379 0.31594 0.42953-0.50674 0.79358-0.39063 1.1907 2.5986 3.3589 6.4855 5.465 7.6882 8.9307 0.20352 0.40635 0.20286 0.9307 0.06 1.3621-0.20287 0.61239-0.72004 1.0958-1.2226 1.5003-0.20839 0.16777-0.71611 0.36241-0.71611 0.36241" fill="#56595b" stroke="#56595b" stroke-width="1px"/>
 <path d="m131.31 39.589 4.5096 4.2398" fill="#f9de81" stroke="#f9de81" stroke-linecap="round" stroke-width="1px"/>
 <path d="m139.66 54.459 2.8369-2.7613c-0.0147-0.0197 0.49771 1.0228 0.85338 2.0149 0.31227 0.87111 0.44069 1.9346 0.0546 2.7756-0.13689 0.2982-0.48429 0.80651-0.7589 0.62691-1.1566-0.75639-2.0349-1.7354-2.9861-2.6562" fill="#ff837d" stroke="#56595b" stroke-width="1px"/>
 <path d="m62.412 134.64 5.7277-5.4846 1.4377 3.661-4.4598 4.7272z" fill="#56595b"/>
 <circle cx="84.321" cy="128.25" r="11.333" fill="none" stroke="#56595b" stroke-linecap="round" stroke-linejoin="bevel" stroke-width="6"/>
 <circle cx="84.321" cy="128.25" r="9.1833" fill="#83868c"/>
 <path d="m82.834 119.19v7.6026h2.9755v-7.6026c-1.0167-0.17744-2.0186-0.15891-2.9755 0z" fill="#9abeff"/>
 <path d="m82.834 129.77v7.5454c0.91939 0.13346 1.8783 0.19103 2.9755 0v-7.5454z" fill="#9abeff"/>
 <path d="m75.264 129.77h7.5693v-2.9755h-7.5786c-0.13717 0.83284-0.17672 1.7577 9e-3 2.9755z" fill="#9abeff"/>
 <path d="m85.809 129.77h7.5693c0.10841-1.0009 0.22144-1.9408 9e-3 -2.9755h-7.5786z" fill="#9abeff"/>
 <circle cx="141.25" cy="75.891" r="11.333" fill="none" stroke="#56595b" stroke-linecap="round" stroke-linejoin="bevel" stroke-width="6"/>
 <circle cx="141.25" cy="75.891" r="9.1833" fill="#83868c"/>
 <path d="m139.76 66.829v7.6026h2.9755v-7.6026c-1.0167-0.17745-2.0186-0.15892-2.9755 0z" fill="#9abeff"/>
 <path d="m139.76 77.407v7.5454c0.91941 0.13346 1.8783 0.19103 2.9755 0v-7.5454z" fill="#9abeff"/>
 <path d="m132.19 77.407h7.5693v-2.9755h-7.5786c-0.13718 0.83284-0.17673 1.7577 9e-3 2.9755z" fill="#9abeff"/>
 <path d="m142.74 77.407h7.5693c0.10841-1.0009 0.22144-1.9408 9e-3 -2.9755h-7.5786z" fill="#9abeff"/>
 <path d="m61.713 76.628c0.15457 0.34306 0.83344-0.38097 1.1203-0.13758 0.36006 0.30542-0.29605 1.104 0.05896 1.4152 0.38581 0.33826 1.1824-0.51209 1.5332-0.13759 0.14506 0.15488-0.23291 0.46495-0.09828 0.62897 0.40355 0.49167 1.3394-0.20937 1.9066 0.0787 0.36585 0.18578 0.36171 1.0299 0.76657 0.96317 0.34354-0.0567 0.06707-0.78523 0.3538-0.98282 0.29139-0.2008 0.78625-0.20287 1.0614 0.0197 0.15694 0.12692-0.01121 0.45331 0.13759 0.58966 0.30742 0.28169 0.99082 0.51247 1.2383 0.17691 0.31834-0.43165-0.57838-0.92946-0.68794-1.4545-0.04421-0.21175-0.11575-0.47995 0.01965-0.64863 0.30041-0.37423 1.0045-0.0756 1.3956-0.35381 0.26208-0.18645 0.4288-0.5008 0.5307-0.80587 0.06654-0.19925 0.02499-0.41939 0.03932-0.62898 0.08459-1.2388 0.27518-3.7149 0.27518-3.7149l-1.5332-1.769-2.9484-4.226-0.03931-1.022-1.366-4.3439-0.76657-0.90419s0.42403-2.1197-0.24569-2.7518c-0.45764-0.43193-1.4604 0.4037-1.8869-0.059-0.88931-0.96458 1.1648-3.0458 0.19656-3.9311-0.27832-0.25447-0.82551-0.0778-1.1203 0.15724-0.23024 0.18359-0.05589 0.6847-0.31449 0.82554-0.47058 0.2563-1.1074-0.60031-1.5725-0.33414-0.1978 0.11321-0.06384 0.47915-0.21621 0.64862-0.27443 0.30526-0.89075 0.1708-1.1203 0.51105-0.33017 0.48926-0.37177 1.2567-0.07863 1.769 0.12518 0.21877 0.53628 0.13909 0.66829 0.35381 0.18532 0.30145-0.24893 0.83101 0.01966 1.0614 0.18568 0.15926 0.5207 0.0327 0.72725-0.0983 0.33606-0.21323 0.31008-0.7932 0.64863-1.0025 0.40375-0.24954 1.4084-0.63184 1.4152-0.15725 0.06141 4.3263-1.3638 17.5-0.11793 20.265z" fill="#8e6f60" stroke="#56595b" stroke-width=".5"/>
 <path d="m62.929 75.932c0.53257-0.3581 0.64532 1.3103 1.1894 1.3038 0.53232-6e-3 0.46674-0.86553 0.88951-0.91734 1.2352-0.1513 1.1832 1.0365 2.9117 1.4802 0.47499 0.12192 0.81749-0.47208 0.81306-0.86866-0.0071-0.60933-1.5916-0.78361-1.2787-1.3065 0.30722-0.51327 1.1436 0.35325 1.7234 0.50035 0.33779 0.0857 0.7028 0.36324 1.0215 0.22238 0.15663-0.0692 0.38018-0.32568 0.25712-0.44476-0.78246-0.75715-2.4268-1.4206-1.918-2.3627 0.19374-0.35873 0.83214 0.11764 1.0841-0.14594 0.21693-0.22694 0.23785-0.66484 0.08335-0.93816-0.59332-1.0498-2.1867-1.0199-3.2522-1.5844-1.0856-0.57513-3.2497-0.60719-3.1967-1.8346 0.01235-0.28578 0.73384-0.0788 0.77832-0.36136 0.05302-0.33681-0.62803-0.37674-0.75052-0.69493-0.33755-0.87681-0.31682-2.0583 0.25017-2.8075 0.25131-0.33207 1.1095-0.0324 1.1675-0.44475 0.10326-0.73403-1.967-0.61724-1.779-1.3343 0.18008-0.68705 1.6569-0.90294 2.1126-0.27796 0.51006 0.69952 1.5982 0.9467 1.918 1.7513 0.09268 0.23311-0.11723 0.50735-0.05559 0.75051 0.43002 1.6967 1.786 3.0188 2.8353 4.4198 0.44886 0.59929 1.1967 0.99981 1.4732 1.6956 0.24997 0.62912 0.11233 1.3529 0.08335 2.0292-0.02197 0.51325-0.06405 1.032-0.19458 1.5289-0.09976 0.37985-0.17429 0.80628-0.44476 1.0911-0.19911 0.20963-0.38798 0.43415-0.78527 0.36832-1.159-0.19208-1.3387 0.63862-0.30375 2.0591 0.07721 0.10601 0.10107 0.29298-0.01592 0.34531-0.28141 0.12586-0.60303 0.03-0.83993-0.25554-0.12588-0.15172 0.01779-0.42954-0.13993-0.58533-0.22643-0.22363-0.86767-0.24719-1.0251-0.19031-0.42158 0.15243-0.53574 0.97641-0.58609 1.0849-0.07223 0.15568-0.18752-0.58086-0.5501-0.8599-0.25063-0.19288-0.43989-0.22241-0.9451-0.0834-1.0763 0.29617-0.99234 0.0105-0.85473-0.23287 0.1192-0.21085 0.04641-0.33776-0.0043-0.40837-0.17982-0.25012-1.1265 0.20632-1.5384 0.1409-0.42593-0.0677 0.3635-1.1678-0.11928-1.4357-0.22048-0.12234-0.45618-0.0568-0.42704-0.0966-0.02122-0.12424 0.16854-0.41349 0.41323-0.28574z" fill="#d3b69a"/>
 <path d="m74.253 76.57c-0.59679-0.40207-1.3258-0.60577-1.6511-1.4152-0.82554 0.0216-1.8304 0.32142-2.4766-0.19656-0.27812-0.22295-0.52111-0.73161-0.31449-1.022 0.21282-0.29917 1.1007-0.0393 1.1007-0.0393 0.57398-0.37789 0.33492-1.3249 0.19656-2.2014-0.39437-0.18684-0.84904-0.46088-1.0614-0.86484-0.22634-0.43056-0.30408-1.0052-0.11793-1.4545 0.13163-0.31778 0.78622-0.66828 0.78622-0.66828-0.13553-0.22336-0.44738-0.37014-0.55036-0.62899-0.12604-0.31679 0.16607-0.74994-0.03932-1.022-0.68519-0.90793-3.2431-1.0614-3.2431-1.0614l-0.13759-1.3759s-1.3972-1.1188-1.8083-1.8869c-0.17102-0.31954-0.34801-0.71675-0.23586-1.0614 0.09192-0.28251 0.66829-0.58966 0.66829-0.58966l0.15725-4.2849c1.0842 0.29456 2.1111 0.47451 3.1449 0.66829 0.22602 0.18834 1.9502-2.5372 2.8304-3.1449 0.83454-0.57611 2.4667 0.32408 2.7518 1.2973 0.44356 1.5143-2.5159 4.0097-2.5159 4.0097-0.0531 0.0973 3.3987-0.49922 4.108-0.13759 0.31018 0.15812 0.30841 0.96217 0.27519 1.4545-0.046 0.68216-1.0731 1.41-0.64864 1.9459 0.26959 0.34039 0.92688 0.10869 1.2973-0.11792 0.37678-0.23053 0.19238-0.98229 0.70761-1.1203 0.85614-0.22941 1.9433 1.1717 2.3979 2.1425 0.32256 0.68867 0.20484 1.5301 0.0787 2.2801-0.19348 1.1495-1.3613 2.1017-1.2579 3.2628 0.1911 2.1476 4.7494 4.0128 4.7566 4.0097z" fill="#fcecdc" stroke="#56595b" stroke-width=".5"/>
 <path d="m73.442 60.16c0.69772 2.6745-1.4004 4.6126-2.8158 6.0462-0.43281 0.43835-0.81278 1.1723-0.72234 1.8182 0.05621 0.40134 0.5321 0.61644 0.74199 0.96315 0.27937 0.46142 0.19424 1.2309 0.67812 1.4693 1.9406 0.95597 4.5159-0.25518 6.3291-1.4349 0.99297-0.64598 1.7425-1.7282 2.1228-2.8501 0.22154-0.65339 0.24666-1.4575 0.0282-2.0696-0.3633-1.0178-1.0027-2.4728-2.267-2.2799-0.47615 0.0726-0.29428 1.1729-1.1114 1.3001-0.61447 0.0957-1.0569 0.0724-1.1886-0.15814-0.29093-0.50895 0.29161-1.2588 0.65608-1.7927 0.15314-0.22435 0.14533-0.76323 0.0236-1.1142-0.0663-0.19119-0.0821-0.40418-0.38602-0.46858-1.2127-0.25699-2.2498-0.0466-2.172 0.25154z" fill="#979797"/>
 <ellipse transform="rotate(9.5476)" cx="78.274" cy="55.63" rx="3.0108" ry="2.1573" fill="#fcecdc"/>
 <ellipse transform="rotate(9.5476)" cx="78.298" cy="55.642" rx="1.8411" ry="1.3192" fill="#d3b69a"/>
 <path d="m67.074 65.657c-1.1025 0.12392-1.9839 0.80747-2.081 1.6859-0.3731 3.374 4.5684 2.8133 4.8315 2.5966" fill="none" stroke="#56595b" stroke-width=".5"/>
 <ellipse transform="rotate(-8.8529)" cx="57.684" cy="68.598" rx="1.3018" ry="1.2327" fill="#fff" stroke="#56595b" stroke-linecap="round" stroke-linejoin="bevel" stroke-width=".1"/>
 <ellipse transform="rotate(-8.8529)" cx="58.344" cy="68.506" rx=".64159" ry=".60752" fill="#56595b"/>
 <path d="m65.054 59.842-0.19656-3.8132" fill="none" stroke="#56595b" stroke-linecap="round" stroke-width="1.3"/>
 <path d="m61.713 56.17s-0.48245 20.21-0.48245 24.107c0 0.55173-1.6483 0.391-1.6483-0.16072 0-0.52824 0.23411-4.7279 0.17397-4.5776 0.25789 0.17278-7.9322-1.4834-7.6519-8.9227 0.22994-6.1028 5.3646-10.178 9.6085-10.446z" fill="#ff837d" stroke="#56595b" stroke-width=".5"/>
 <path d="m59.766 75.628 0.15102-18.957" fill="none" stroke="#56595b" stroke-linecap="round" stroke-width=".5"/>
 <ellipse cx="65.813" cy="144.37" rx="2.7241" ry="2.7797" fill="#8e6f60" stroke="#56595b" stroke-linecap="round" stroke-linejoin="bevel" stroke-width=".1"/>
 <path d="m57.624 132.35c0.75486-0.77374 2.4514-0.40273 3.2235 0.35379 0.86838 0.85086 1.3381 2.7637 0.47173 3.6167-0.77386 0.76186-2.4599 0.30046-3.2235-0.47173-0.8274-0.8368-1.2935-2.6563-0.47173-3.4987z" fill="#8e6f60"/>
 <path d="m53.3 139.47c-1.1946-0.46797-2.6489 0.99616-3.1842 2.1621-0.43474 0.94689-0.54408 2.577 0.3538 3.1055 1.1492 0.67652 3.0854-0.34718 3.6953-1.5332 0.58436-1.1364 0.32492-3.2685-0.86484-3.7345z" fill="#8e6f60"/>
 <path d="m60.18 143.2c-1.4558-0.5311-3.0846 1.9099-3.1055 3.4594-0.02326 1.7196 1.7369 4.5501 3.3414 3.9311 2.2996-0.88715 2.0796-6.5457-0.23586-7.3905z" fill="#8e6f60"/>
 <path d="m54.087 148.86c-0.89075 0.0566-2.0901 0.83827-2.0442 1.7296 0.04892 0.95097 1.4074 1.5696 2.3587 1.6118 0.99047 0.0438 2.5626-0.46355 2.5945-1.4545 0.03725-1.1552-1.7555-1.9602-2.9091-1.8869z" fill="#8e6f60"/>
 <path d="m46.106 149.53c-0.68621 1.0027-0.02601 2.8842 1.022 3.4987 1.0091 0.59165 2.887 0.25502 3.4201-0.78622 0.49242-0.96183-0.33284-2.4292-1.2579-2.9877-0.9121-0.5505-2.5825-0.60398-3.1842 0.27519z" fill="#8e6f60"/>
 <path d="m40.797 142.25c-0.96921 0.98664 0.14039 3.1616 1.2787 3.9472 1.2369 0.85365 3.8691 1.1402 4.5031-0.22237 0.45189-0.97117-1.0665-1.9455-1.9458-2.5573-1.0971-0.76339-2.8994-2.121-3.836-1.1675z" fill="#8e6f60"/>
 <path d="m33.402 136.58c-0.26146 1.1004 2.1163 1.0298 2.7797 1.9458 0.48832 0.67422 0.1398 1.7963 0.72273 2.3906 0.46372 0.47276 1.2482 0.77367 1.8902 0.61153 0.57186-0.14441 1.0218-0.72427 1.2231-1.2787 0.19017-0.52371 0.14404-1.1725-0.11119-1.6678-0.60323-1.1706-1.7888-2.1495-3.0577-2.5018-1.1186-0.31056-3.1785-0.62919-3.4468 0.50035z" fill="#8e6f60"/>
 <path d="m44.673 129.53c-0.66324 0.72463-0.57355 2.1118-0.05559 2.9465 0.389 0.6269 1.2928 1.1506 2.0014 0.94511 0.86409-0.25056 1.1472-1.4306 1.4455-2.2794 0.22252-0.63327 0.69621-1.526 0.22238-2.0014-0.85522-0.85811-2.7956-0.50453-3.6136 0.38916z" fill="#8e6f60"/>
 <path d="m38.517 128.63c-2.4748 1.5932 0.17312 7.6985 3.0577 8.2836 1.2206 0.24756 2.5801-1.4789 2.5573-2.7241-0.04813-2.6335-3.4004-6.9851-5.615-5.5594z" fill="#8e6f60"/>
 <path d="m33.391 137.64c-1.3053-0.46623-2.9457 0.84254-3.6136 2.057-0.75105 1.3655-0.27684 3.1936 0.22238 4.6699 0.39686 1.1735 0.8746 3.1038 2.1126 3.0577 1.245-0.0464 1.4831-2.0469 1.8902-3.2245 0.40335-1.1667 0.643-2.4431 0.50035-3.6692-0.11932-1.0255-0.1396-2.5436-1.1119-2.8909z" fill="#8e6f60"/>
 <path d="m29.121 148.87c-1.1089 0.47954-2.6112 1.5364-2.3906 2.7241 0.23318 1.255 2.1198 1.8924 3.3913 1.779 2.315-0.20648 6.2204-2.0698 5.5038-4.2808-0.6689-2.0638-4.5133-1.0835-6.5045-0.22238z" fill="#8e6f60"/>
 <path d="m24.563 138.92c-1.3543 0.28893-1.4823 2.6684-1.1119 4.0028 0.25942 0.93469 1.1515 2.1329 2.1126 2.0014 1.0706-0.1465 1.7493-1.7022 1.6678-2.7797-0.10518-1.3912-1.3041-3.5156-2.6685-3.2245z" fill="#8e6f60"/>
 <path d="m27.12 132.25c-1.0663 0.38582-1.0736 2.2771-0.66713 3.3356 0.38931 1.0138 1.5619 2.219 2.6129 1.9458 0.96334-0.25045 1.4547-1.7561 1.2231-2.7241-0.31591-1.3201-1.8925-3.0192-3.1689-2.5573z" fill="#8e6f60"/>
 <path d="m31.845 129.08c-1.1406 0.63668-2.6532 2.1733-2.057 3.3356 0.60199 1.1736 2.7917 0.91416 3.9472 0.27798 1.1984-0.65982 2.6474-2.4391 1.9458-3.6136-0.65568-1.0977-2.7195-0.62321-3.836 0z" fill="#8e6f60"/>
 <path d="m36.127 118.34c-0.9999 0.21804-2.2917 1.2832-2.057 2.2794 0.23287 0.98807 1.8444 1.3324 2.8353 1.1119 0.97241-0.21643 2.257-1.1923 2.057-2.1682-0.20673-1.0084-1.8296-1.4423-2.8353-1.2231z" fill="#8e6f60"/>
 <path d="m23.117 127.52c-0.95142 0.77944-0.53282 2.8551 0.38916 3.6692 0.75027 0.66244 2.2542 0.60954 3.0021-0.0556 0.61493-0.54687 0.77471-1.7514 0.33357-2.4461-0.69751-1.0985-2.7183-1.9921-3.7248-1.1675z" fill="#8e6f60"/>
 <ellipse cx="31.457" cy="125.97" rx="1.7234" ry="1.779" fill="#8e6f60"/>
 <circle cx="31.484" cy="113.04" r="1.3065" fill="#8e6f60"/>
 <ellipse cx="39.306" cy="152.13" rx="1.8083" ry="1.6511" fill="#8e6f60"/>
 <path d="m24.173 116.85c-0.17455 0.59656 0.8198 1.0464 0.83391 1.6678 0.02901 1.2772-1.8483 2.2586-1.5566 3.5024 0.19229 0.82008 1.1045 1.5718 1.9458 1.6122 1.3194 0.0635 2.5723-1.1084 3.2801-2.2238 0.70355-1.1088 0.93292-2.6184 0.61154-3.8916-0.26217-1.0386-0.89422-2.3537-1.9458-2.5573-1.2075-0.23382-2.8235 0.70976-3.1689 1.8902z" fill="#8e6f60"/>
</svg>
