<svg xmlns="http://www.w3.org/2000/svg" width="192" height="192"><path fill="#99bef9" d="M172.5 161.8c0 5.91-4.792 10.701-10.701 10.701H30.209c-5.91 0-10.701-4.792-10.701-10.701V30.21c0-5.91 4.79-10.701 10.701-10.701h131.59c5.91 0 10.701 4.79 10.701 10.701z"/><path fill="#76b683" d="M161.91 172.5c5.91 0 10.595-4.865 10.595-10.774V72.862c-4.722 3.918-12.157 12.49-23.086 24.562-8.152 9.002-15.823 17.505-19.837 21.218-6.074 5.619-9.23 8.162-10.739 9.27.116-1.817.865-3.418.873-3.437a.876.876 0 0 0-.657-1.24 4.081 4.081 0 0 0-.596-.047c-2.006 0-2.78 1.599-3.294 2.655-.154.316-.382.788-.523.902-.245-.057-.815-.763-1.125-1.148-.63-.786-1.347-1.675-2.317-2.028-1.151-.419-2.402-.506-3.248-.506-.364 0-.595.017-.62.018-.431.034-.84.357-.871.79-.03.42.178.781.578.888.134.1.678.575 1.485 2.09.251.47.363.76.415.928a3.511 3.511 0 0 1-.34.014c-.214 0-.476-.012-.846-.038-2.416-.173-3.978 1.361-4.04 1.423a.876.876 0 0 0 .21 1.394c.288.152.573.3.847.44.854.442 1.992 1.03 2.31 1.386-.02.02-.05.048-.088.076-1.5 1.2-2.69 2.533-2.74 2.589a.875.875 0 0 0 .718 1.457c.795-.058 1.676.123 2.417.338-19.096 11.015-41.987 16.948-57.995 20.001-14.328 2.733-26.107 3.698-29.885 3.977v.894c-.001 5.907 4.862 10.771 10.773 10.771z"/><path fill="#906f61" d="M160.12 107.3c-8.635 9.595-41.525 57.64-120.93 65.196H161.9c5.91 0 10.595-4.865 10.595-10.774V93.488c-2.834 3.717-7.85 8.782-12.378 13.812z"/><path fill="#90dc9f" d="M172.5 74.119c-9.444 9.068-34.005 37.459-42.33 45.162-9.776 9.046-12.16 10.213-12.16 10.213-.437-2.627.896-5.397.896-5.397-2.918-.439-2.762 3.208-4.075 3.5-1.314.293-2.33-2.625-3.935-3.209-1.606-.583-3.499-.436-3.499-.436s.729.291 1.898 2.48c1.168 2.189.436 2.335-1.607 2.19-2.042-.146-3.357 1.168-3.357 1.168 2.48 1.314 4.667 2.192 3.207 3.36-1.46 1.167-2.633 2.486-2.633 2.486 2.043-.146 4.472 1.036 4.472 1.036-34.025 20.364-80.429 24.425-89.876 25.032v.018c0 3.163 1.41 6.004 3.59 7.962 49.974-5.083 77.785-18.56 87.821-24.34 10.833-6.238 29.473-23.635 43.26-39.393 7.463-8.528 13.602-15.614 18.325-20.32V74.118z"/><path fill="#56595b" stroke="#56595b" stroke-linecap="round" d="m48.607 113.09 19.458-21.181"/><path fill="#8e6f60" stroke="#56595b" stroke-width=".5" d="M75.197 88.795s-3.65.236-4.678-.04c-1.418-.38-1.496-4.022-.079-4.402 2.154-.577 8.845-.157 8.845-.157z"/><path fill="#ff837d" stroke="#56595b" stroke-width=".5" d="M78.813 84.707c-2.309-2.246-4.114-4.784-4.442-8.177l3.027-3.263c1.73-.38 4.542-.028 6.585.217l-.256.53 5.228-.668z"/><path fill="#ff837d" stroke="#56595b" stroke-width=".5" d="M88.635 73.511s-6.895-.498-9.367 1.084c-1.479.946-2.361 3.403-1.64 5.004.727 1.614 4.058 1.75 4.058 1.75z"/><path fill="none" stroke="#56595b" stroke-linecap="round" d="m97.918 55.636-.118 1.553"/><path fill="#8e6f60" stroke="#56595b" stroke-width=".5" d="m95.147 62.26-.04-3.695s.186-.34.335-.452c.72-.547 1.655-1.168 2.535-.964 1.224.284 2.575 2.752 2.575 2.752l-3.145 3.99z"/><path fill="#ff837d" stroke="#56595b" stroke-width=".5" d="M89.98 72.215s3.083-8.873 3.85-9.64c.833-.834 3.813.433 3.223 1.454-.94 1.629-7.073 8.186-7.073 8.186z"/><path fill="#56595b" d="m52.596 109.24 1.376.139-.139-1.71zM54.681 111.01l-.125-1.21 1.098.195z"/><path fill="none" stroke="#56595b" stroke-linecap="round" stroke-width="2" d="M67.23 97.88c-10.025-6.212-20.811-9.41-31.715-11.387"/><path fill="#ba6561" stroke="#56595b" d="M71.539 135.8s-9.547-13.598-.497-22.677c8.713-8.742 20.004.884 20.004.884l32.86-35.834s-10.426-12.25-.7-21.978c7.073-7.072 13.068-3.536 14.187-4.2 1.07-.634 2.758-2.344 1.878-3.224-1.5-1.5-6.564-7.284-10.185-9.375-1.348-.778-3.313-.482-4.66.296-5.057 2.92-10.254 8.585-15.059 11.358-4.354 1.731-14.826-1.303-18.22-.454-1.089.273-1.224 2.414-.72 3.286 1.21 2.097 13.973 2.266 13.973 2.266s-34.082 39.73-52.132 57.912c-1.237 1.247-1.186 4.028.056 5.27a53460.62 53460.62 0 0 1 16.742 16.756l2.186.152z"/><path fill="#ff837d" d="M92.784 50.893s-.196.87.214 1.023c3.009 1.125 10.783 1.647 13.99 1.485.87-.045 2.43-1.91 2.43-1.91-3.444 1.272-11.804-.623-16.635-.598zM63.798 127.74s-6.857-6.223-9.503-9.437c-.727-.883-.785-2.542-.066-3.431 5.515-6.816 14.057-15.525 19.005-21.315.65-.76 2.222-.854 2.991-.216 4.807 3.985 14.69 15.159 14.69 15.159s-12.407-6.863-21.64.96c-8.235 6.98-5.477 18.28-5.477 18.28zM82.407 94.217s6.722 6.535 9.568 9.238c.912.866 2.902.653 3.762-.264 7.096-7.566 21.315-24.02 21.315-24.02-2.949-2.638-4.871-6.194-4.488-11.814l-8.182-7.984-19.335 20.854c1.965 4.404 3.03 8.89-2.64 13.99zM107.22 55.875l8.117 8.38c3.809-11.96 11.098-15.29 19.269-16.431 0 0-2.463-3.995-4.487-4.884-1.148-.504-2.563-.367-3.762 0-7.362 2.255-12.913 7.078-19.138 12.934z"/><path fill="none" stroke="#56595b" stroke-width=".5" d="m75.148 89.399 20.391 19.995M104.18 56.799l10.691 10.493c.31 6.355 3.883 9.447 7.457 12.539"/><path fill="none" stroke="#56595b" stroke-linecap="round" stroke-width="2" d="m80.098 90.257 3.893-4.685"/><path fill="none" stroke="#56595b" stroke-width="2.2" d="m91.735 115.22 33.342-36.525"/><path fill="#56595b" stroke="#56595b" d="M137.39 51.995s1.15 2.43 2.264 2.464c1.944.058 2.8-2.7 4.198-4.052.203-.196.58-.308.609-.59.127-1.247-1.276-2.646-2.123-3.105-.246-.133-.602.429-.806.236-2.343-2.217-5.955-5.244-8.235-7.879-.195-.224-.107-.655.078-.887.202-.253.924.028.924-.295s-.644-.133-.924-.295c-.269-.156-.544-.353-.688-.629-.137-.263.173-.822-.118-.884-.316-.068-.194.76-.51.825-.806.166-1.483-.872-2.023-1.413-.378-.377-1.207.442-.83.82.529.528 2.09 1.42 2.765 2.338.316.43-.507.793-.39 1.19 2.598 3.36 6.485 5.465 7.688 8.931.203.406.202.93.06 1.362-.203.613-.72 1.096-1.223 1.5-.208.168-.716.363-.716.363"/><path fill="#f9de81" stroke="#f9de81" stroke-linecap="round" d="m131.31 39.589 4.51 4.24"/><path fill="#ff837d" stroke="#56595b" d="m139.66 54.459 2.837-2.761c-.015-.02.498 1.023.853 2.015.313.87.441 1.934.055 2.775-.137.298-.484.807-.759.627-1.157-.756-2.035-1.735-2.986-2.656"/><path fill="#56595b" d="m62.412 134.64 5.728-5.485 1.437 3.661-4.46 4.728z"/><circle cx="84.321" cy="128.25" r="11.333" fill="none" stroke="#56595b" stroke-linecap="round" stroke-linejoin="bevel" stroke-width="6"/><circle cx="84.321" cy="128.25" r="9.183" fill="#83868c"/><path fill="#9abeff" d="M82.834 119.19v7.603h2.975v-7.603a8.835 8.835 0 0 0-2.975 0zM82.834 129.77v7.545c.92.134 1.878.191 2.975 0v-7.545zM75.264 129.77h7.57v-2.975h-7.58c-.136.832-.176 1.757.01 2.975zM85.809 129.77h7.57c.108-1 .22-1.94.008-2.975H85.81z"/><circle cx="141.25" cy="75.891" r="11.333" fill="none" stroke="#56595b" stroke-linecap="round" stroke-linejoin="bevel" stroke-width="6"/><circle cx="141.25" cy="75.891" r="9.183" fill="#83868c"/><path fill="#9abeff" d="M139.76 66.829v7.603h2.975v-7.603a8.835 8.835 0 0 0-2.975 0zM139.76 77.407v7.545c.92.134 1.878.191 2.975 0v-7.545zM132.19 77.407h7.57v-2.975h-7.58c-.136.832-.176 1.757.01 2.975zM142.74 77.407h7.57c.108-1 .22-1.94.008-2.975h-7.578z"/><path fill="#8e6f60" stroke="#56595b" stroke-width=".5" d="M61.713 76.628c.155.343.833-.381 1.12-.138.36.306-.296 1.104.06 1.416.385.338 1.182-.512 1.532-.138.146.155-.232.465-.098.629.404.492 1.34-.21 1.907.079.366.185.361 1.03.766.963.344-.057.067-.785.354-.983.292-.2.786-.203 1.062.02.156.127-.012.453.137.59.308.281.991.512 1.238.176.319-.431-.578-.93-.687-1.454-.045-.212-.116-.48.02-.649.3-.374 1.004-.075 1.395-.354.262-.186.429-.5.53-.805.067-.2.025-.42.04-.63.084-1.238.275-3.714.275-3.714l-1.533-1.77-2.949-4.225-.039-1.022-1.366-4.344-.767-.904s.425-2.12-.245-2.752c-.458-.432-1.46.403-1.887-.06-.89-.964 1.165-3.045.196-3.93-.278-.255-.825-.078-1.12.157-.23.183-.056.685-.314.825-.47.257-1.108-.6-1.573-.334-.198.113-.064.48-.216.649-.274.305-.89.17-1.12.51-.33.49-.372 1.258-.079 1.77.125.219.536.139.668.354.186.301-.249.83.02 1.061.186.16.52.033.727-.098.336-.213.31-.793.649-1.003.404-.25 1.408-.631 1.415-.157.061 4.326-1.364 17.5-.118 20.265z"/><path fill="#d3b69a" d="M62.929 75.932c.533-.358.645 1.31 1.19 1.304.532-.006.466-.866.889-.918 1.235-.15 1.183 1.037 2.912 1.48.475.123.817-.471.813-.868-.007-.61-1.592-.784-1.279-1.307.307-.513 1.144.354 1.723.5.338.087.703.364 1.022.223.157-.069.38-.325.257-.445-.782-.757-2.427-1.42-1.918-2.362.194-.359.832.117 1.084-.146.217-.227.238-.665.083-.938-.593-1.05-2.186-1.02-3.252-1.585-1.085-.575-3.25-.607-3.196-1.834.012-.286.733-.08.778-.362.053-.337-.628-.376-.75-.695-.338-.876-.317-2.058.25-2.807.25-.332 1.109-.033 1.167-.445.103-.734-1.967-.617-1.779-1.334.18-.687 1.657-.903 2.113-.278.51.7 1.598.947 1.918 1.751.092.233-.118.508-.056.75.43 1.697 1.786 3.02 2.835 4.42.45.6 1.197 1 1.474 1.696.25.63.112 1.353.083 2.03-.022.513-.064 1.031-.195 1.528-.1.38-.174.806-.444 1.091-.2.21-.388.434-.786.369-1.159-.192-1.338.638-.303 2.059.077.106.1.293-.016.345-.282.126-.603.03-.84-.256-.126-.151.017-.43-.14-.585-.227-.223-.868-.247-1.025-.19-.422.152-.536.976-.586 1.085-.073.155-.188-.581-.55-.86-.251-.193-.44-.223-.946-.084-1.076.297-.992.01-.854-.232.119-.211.046-.338-.005-.409-.18-.25-1.126.207-1.538.141-.426-.068.363-1.168-.12-1.436-.22-.122-.456-.056-.426-.096-.022-.124.168-.414.413-.286z"/><path fill="#fcecdc" stroke="#56595b" stroke-width=".5" d="M74.253 76.57c-.597-.402-1.326-.606-1.651-1.415-.826.021-1.83.321-2.477-.197-.278-.223-.52-.731-.314-1.022.213-.299 1.1-.04 1.1-.04.574-.377.335-1.324.197-2.2-.394-.187-.849-.461-1.061-.865-.227-.43-.304-1.006-.118-1.455.131-.318.786-.668.786-.668-.136-.223-.447-.37-.55-.63-.126-.316.166-.749-.04-1.021-.685-.908-3.243-1.061-3.243-1.061l-.137-1.376s-1.398-1.12-1.809-1.887c-.17-.32-.348-.717-.236-1.062.092-.282.669-.59.669-.59l.157-4.284c1.084.294 2.111.474 3.145.668.226.188 1.95-2.537 2.83-3.145.835-.576 2.467.324 2.752 1.297.444 1.515-2.516 4.01-2.516 4.01-.053.097 3.399-.5 4.108-.137.31.158.309.962.275 1.454-.046.682-1.073 1.41-.648 1.946.27.34.927.109 1.297-.118.377-.23.192-.982.708-1.12.856-.23 1.943 1.171 2.398 2.142.322.689.204 1.53.078 2.28-.193 1.15-1.361 2.102-1.258 3.263.191 2.148 4.75 4.013 4.757 4.01z"/><path fill="#979797" d="M73.442 60.16c.698 2.675-1.4 4.613-2.816 6.046-.433.439-.813 1.172-.722 1.818.056.402.532.617.742.964.28.461.194 1.23.678 1.469 1.94.956 4.516-.255 6.33-1.435.992-.646 1.742-1.728 2.122-2.85.221-.654.247-1.458.028-2.07-.363-1.018-1.003-2.473-2.267-2.28-.476.073-.294 1.173-1.111 1.3-.615.096-1.057.073-1.189-.158-.29-.509.292-1.258.656-1.792.153-.225.145-.764.024-1.115-.067-.19-.082-.404-.386-.468-1.213-.257-2.25-.047-2.172.251z"/><ellipse cx="78.274" cy="55.63" fill="#fcecdc" rx="3.011" ry="2.157" transform="rotate(9.548)"/><ellipse cx="78.298" cy="55.642" fill="#d3b69a" rx="1.841" ry="1.319" transform="rotate(9.548)"/><path fill="none" stroke="#56595b" stroke-width=".5" d="M67.074 65.657c-1.103.124-1.984.807-2.081 1.686-.373 3.374 4.568 2.813 4.832 2.596"/><ellipse cx="57.684" cy="68.598" fill="#fff" stroke="#56595b" stroke-linecap="round" stroke-linejoin="bevel" stroke-width=".1" rx="1.302" ry="1.233" transform="rotate(-8.853)"/><ellipse cx="58.344" cy="68.506" fill="#56595b" rx=".642" ry=".608" transform="rotate(-8.853)"/><path fill="none" stroke="#56595b" stroke-linecap="round" stroke-width="1.3" d="m65.054 59.842-.197-3.813"/><path fill="#ff837d" stroke="#56595b" stroke-width=".5" d="M61.713 56.17s-.482 20.21-.482 24.107c0 .552-1.649.391-1.649-.16 0-.529.234-4.729.174-4.578.258.172-7.932-1.484-7.652-8.923.23-6.103 5.365-10.178 9.609-10.446z"/><path fill="none" stroke="#56595b" stroke-linecap="round" stroke-width=".5" d="m59.766 75.628.151-18.957"/><ellipse cx="65.813" cy="144.37" fill="#8e6f60" stroke="#56595b" stroke-linecap="round" stroke-linejoin="bevel" stroke-width=".1" rx="2.724" ry="2.78"/><path fill="#8e6f60" d="M57.624 132.35c.755-.774 2.451-.403 3.224.354.868.85 1.338 2.763.471 3.616-.774.762-2.46.301-3.223-.471-.828-.837-1.294-2.657-.472-3.499zM53.3 139.47c-1.195-.468-2.649.996-3.184 2.162-.435.947-.544 2.577.354 3.106 1.149.676 3.085-.348 3.695-1.534.584-1.136.325-3.268-.865-3.734zM60.18 143.2c-1.456-.531-3.085 1.91-3.106 3.46-.023 1.719 1.737 4.55 3.342 3.93 2.3-.887 2.08-6.545-.236-7.39zM54.087 148.86c-.89.057-2.09.838-2.044 1.73.049.95 1.407 1.57 2.359 1.611.99.044 2.562-.463 2.594-1.454.037-1.155-1.756-1.96-2.91-1.887zM46.106 149.53c-.686 1.003-.026 2.884 1.022 3.499 1.01.591 2.887.255 3.42-.787.493-.961-.333-2.429-1.258-2.987-.912-.55-2.582-.604-3.184.275zM40.797 142.25c-.97.987.14 3.162 1.279 3.947 1.237.854 3.869 1.14 4.503-.222.452-.971-1.067-1.946-1.946-2.557-1.097-.764-2.9-2.121-3.836-1.168zM33.402 136.58c-.261 1.1 2.116 1.03 2.78 1.946.488.674.14 1.796.722 2.39.464.473 1.249.774 1.89.612.572-.144 1.022-.724 1.224-1.279a2.17 2.17 0 0 0-.111-1.668c-.604-1.17-1.79-2.15-3.058-2.501-1.119-.31-3.179-.63-3.447.5zM44.673 129.53c-.663.725-.574 2.112-.056 2.946.39.627 1.293 1.151 2.002.946.864-.251 1.147-1.431 1.445-2.28.223-.633.697-1.526.223-2.001-.856-.858-2.796-.505-3.614.389zM38.517 128.63c-2.475 1.593.173 7.699 3.058 8.284 1.22.247 2.58-1.48 2.557-2.724-.048-2.634-3.4-6.986-5.615-5.56zM33.391 137.64c-1.305-.466-2.946.843-3.614 2.057-.75 1.365-.276 3.194.223 4.67.397 1.173.874 3.104 2.112 3.058 1.245-.047 1.483-2.047 1.89-3.225.404-1.167.644-2.443.5-3.67-.118-1.025-.139-2.543-1.111-2.89zM29.121 148.87c-1.109.48-2.611 1.536-2.39 2.724.233 1.255 2.12 1.893 3.39 1.78 2.316-.207 6.221-2.07 5.505-4.282-.67-2.064-4.514-1.083-6.505-.222zM24.563 138.92c-1.354.289-1.482 2.668-1.112 4.003.26.934 1.152 2.133 2.113 2.001 1.07-.146 1.749-1.702 1.668-2.78-.106-1.39-1.305-3.515-2.669-3.224zM27.12 132.25c-1.066.386-1.074 2.277-.667 3.336.39 1.013 1.562 2.219 2.613 1.945.963-.25 1.454-1.756 1.223-2.724-.316-1.32-1.893-3.019-3.169-2.557zM31.845 129.08c-1.14.637-2.653 2.173-2.057 3.336.602 1.173 2.792.914 3.947.278 1.199-.66 2.648-2.44 1.946-3.614-.656-1.098-2.72-.623-3.836 0zM36.127 118.34c-1 .218-2.292 1.283-2.057 2.28.233.987 1.844 1.332 2.835 1.111.973-.216 2.257-1.192 2.057-2.168-.206-1.008-1.83-1.442-2.835-1.223zM23.117 127.52c-.951.78-.533 2.855.39 3.67.75.662 2.253.609 3.001-.056.615-.547.775-1.752.334-2.446-.698-1.099-2.718-1.993-3.725-1.168z"/><ellipse cx="31.457" cy="125.97" fill="#8e6f60" rx="1.723" ry="1.779"/><circle cx="31.484" cy="113.04" r="1.306" fill="#8e6f60"/><ellipse cx="39.306" cy="152.13" fill="#8e6f60" rx="1.808" ry="1.651"/><path fill="#8e6f60" d="M24.173 116.85c-.175.597.82 1.046.834 1.668.029 1.277-1.848 2.258-1.557 3.502.193.82 1.105 1.572 1.946 1.612 1.32.064 2.572-1.108 3.28-2.223.704-1.11.933-2.619.612-3.892-.262-1.039-.894-2.354-1.946-2.557-1.208-.234-2.824.71-3.169 1.89z"/></svg>