<svg width="192" height="192" version="1.1" viewBox="0 0 192 192" xml:space="preserve" xmlns="http://www.w3.org/2000/svg" xmlns:xlink="http://www.w3.org/1999/xlink"><path d="m182 169.97c0 6.644-5.387 12.03-12.03 12.03h-147.94c-6.644 0-12.03-5.387-12.03-12.03v-147.94c0-6.644 5.386-12.03 12.03-12.03h147.94c6.644 0 12.03 5.386 12.03 12.03z" fill="#99bef9"/><path d="m170.09 182c6.644 0 11.911-5.469 11.911-12.112v-99.902c-5.309 4.405-13.667 14.042-25.954 27.613-9.164 10.12-17.788 19.679-22.301 23.854-6.828 6.317-10.377 9.176-12.073 10.421 0.13-2.042 0.972-3.842 0.981-3.863 0.134-0.282 0.128-0.61-0.018-0.885-0.147-0.274-0.412-0.464-0.72-0.51-0.229-0.034-0.454-0.052-0.67-0.052-2.255 0-3.126 1.797-3.703 2.984-0.173 0.356-0.43 0.886-0.588 1.014-0.276-0.063-0.917-0.857-1.265-1.29-0.709-0.884-1.514-1.883-2.605-2.28-1.294-0.471-2.7-0.569-3.651-0.569-0.41 0-0.669 0.019-0.697 0.021-0.485 0.038-0.945 0.401-0.98 0.888-0.034 0.472 0.201 0.878 0.65 0.998 0.151 0.113 0.762 0.646 1.67 2.349 0.282 0.529 0.408 0.854 0.466 1.044-0.092 9e-3 -0.216 0.016-0.382 0.016-0.241 0-0.535-0.014-0.951-0.043-2.716-0.195-4.472 1.53-4.541 1.6-0.221 0.221-0.323 0.534-0.276 0.842 0.046 0.31 0.236 0.578 0.512 0.725 0.323 0.171 0.643 0.336 0.952 0.495 0.959 0.496 2.239 1.157 2.597 1.558-0.024 0.023-0.057 0.053-0.099 0.085-1.686 1.349-3.024 2.848-3.08 2.91-0.267 0.3-0.324 0.73-0.147 1.09 0.177 0.358 0.554 0.575 0.953 0.548 0.894-0.065 1.884 0.139 2.717 0.381-21.468 12.383-47.203 19.053-65.199 22.485-16.108 3.072-29.35 4.157-33.597 4.471v1.005c-1e-3 6.64 5.467 12.109 12.111 12.109z" fill="#76b683"/><path d="m168.08 108.71c-9.708 10.787-46.683 64.8-135.95 73.294h137.95c6.644 0 11.911-5.469 11.911-12.112v-76.71c-3.186 4.179-8.825 9.873-13.915 15.528z" fill="#906f61"/><path d="m104.63 170.65c12.359-4.664 18.969-12.864 21.511-21.667-3.519 2.451-7.28 4.88-11.295 7.244-2.451 4.077-12.277 18.099-29.327 13.896-0.113 0.042-0.225 0.085-0.339 0.126 1.767 1.144 8.4 4.571 19.45 0.401z" fill="#72554c"/><path d="m139.32 175.16c-6.44 1.566-11.646 4.719-14.143 6.842h4.577c1.624-2.123 5.92-6.036 13.748-6.597 9.115-0.65 13.062 5.535 13.866 6.597h6.142c-5.759-6.37-15.428-8.974-24.19-6.842z" fill="#72554c"/><path d="m182 71.403c-10.617 10.194-38.229 42.112-47.588 50.772-10.99 10.17-13.671 11.482-13.671 11.482-0.491-2.953 1.007-6.068 1.007-6.068-3.28-0.493-3.105 3.607-4.581 3.936-1.477 0.329-2.62-2.952-4.424-3.608-1.805-0.656-3.933-0.491-3.933-0.491s0.819 0.328 2.133 2.789c1.313 2.46 0.491 2.625-1.806 2.462-2.296-0.165-3.774 1.313-3.774 1.313 2.788 1.477 5.246 2.464 3.605 3.777-1.641 1.312-2.96 2.795-2.96 2.795 2.297-0.164 5.028 1.164 5.028 1.164-38.251 22.893-90.419 27.459-101.04 28.141v0.021c0 3.556 1.584 6.749 4.036 8.951 56.182-5.715 87.447-20.866 98.73-27.363 12.179-7.013 33.134-26.571 48.634-44.286 8.389-9.588 15.292-17.553 20.601-22.844v-12.943z" fill="#90dc9f"/><path d="m42.719 115.22 21.875-23.812" fill="#56595b" stroke="#56595b" stroke-linecap="round" stroke-width="1px"/><path d="m72.611 87.902s-4.1031 0.26555-5.2591-0.0442c-1.594-0.4271-1.6823-4.5226-0.08839-4.9497 2.4214-0.64881 9.9437-0.17678 9.9437-0.17678z" fill="#8e6f60" stroke="#56595b" stroke-width=".5"/><path d="m76.677 83.306c-2.5954-2.5253-4.6249-5.3782-4.9939-9.1924l3.403-3.6681c1.9445-0.42724 5.1067-0.03221 7.4025 0.24307l-0.28726 0.59662 5.8778-0.7513z" fill="#ff837d" stroke="#56595b" stroke-width=".5"/><path d="m87.719 70.719s-7.7516-0.55949-10.531 1.2188c-1.6621 1.0633-2.6543 3.826-1.8438 5.625 0.81788 1.8152 4.5625 1.9688 4.5625 1.9688z" fill="#ff837d" stroke="#56595b" stroke-width=".5"/><path d="m98.155 50.624-0.13258 1.7457" fill="none" stroke="#56595b" stroke-linecap="round" stroke-width="1px"/><path d="m95.04 58.071-0.04419-4.1543s0.20777-0.38097 0.37565-0.50823c0.80998-0.61403 1.8604-1.3123 2.8505-1.0828 1.3758 0.31892 2.8947 3.0936 2.8947 3.0936l-3.5355 4.4857z" fill="#8e6f60" stroke="#56595b" stroke-width=".5"/><path d="m89.231 69.263s3.4654-9.9756 4.3281-10.838c0.9371-0.9371 4.2865 0.48748 3.6239 1.6352-1.0572 1.8311-7.952 9.2031-7.952 9.2031z" fill="#ff837d" stroke="#56595b" stroke-width=".5"/><path d="m47.203 110.89 1.5469 0.15625-0.15625-1.9219z" fill="#56595b"/><path d="m49.547 112.88-0.14062-1.3594 1.2344 0.21875z" fill="#56595b"/><path d="m63.655 98.115c-11.27-6.984-23.396-10.579-35.655-12.802" fill="none" stroke="#56595b" stroke-linecap="round" stroke-width="2"/><path d="m68.499 140.75s-10.733-15.287-0.55926-25.494c9.7957-9.8276 22.489 0.99419 22.489 0.99419l36.943-40.285s-11.722-13.773-0.78689-24.708c7.9514-7.9514 14.69-3.9756 15.948-4.7213 1.2029-0.71346 3.101-2.6364 2.1121-3.6254-1.6864-1.6864-7.3794-8.1886-11.45-10.539-1.5157-0.87509-3.7243-0.54279-5.24 0.33231-5.6848 3.2821-11.527 9.651-16.928 12.769-4.8947 1.9464-16.668-1.4649-20.484-0.50988-1.2229 0.30604-1.3754 2.7137-0.80939 3.6942 1.3611 2.3575 15.71 2.5472 15.71 2.5472s-38.315 44.665-58.608 65.106c-1.3914 1.4015-1.3333 4.5278 0.06309 5.9242 6.2425 6.2425 18.822 18.837 18.822 18.837l2.4574 0.17108z" fill="#ba6561" stroke="#56595b" stroke-width="1px"/><path d="m92.383 45.292s-0.21994 0.97742 0.24111 1.1499c3.3818 1.2654 12.122 1.852 15.728 1.6692 0.97806-0.04958 2.7307-2.1471 2.7307-2.1471-3.8714 1.4299-13.269-0.70032-18.7-0.67204z" fill="#ff837d"/><path d="m59.796 131.68s-7.7085-6.996-10.683-10.609c-0.8175-0.99294-0.88321-2.8579-0.07419-3.8578 6.1999-7.6623 15.803-17.454 21.366-23.963 0.73011-0.85424 2.4974-0.95954 3.3625-0.24233 5.4032 4.4795 16.514 17.042 16.514 17.042s-13.947-7.716-24.327 1.0798c-9.2589 7.8458-6.1576 20.55-6.1576 20.55z" fill="#ff837d"/><path d="m80.717 93.997s7.557 7.347 10.757 10.386c1.0246 0.97308 3.2621 0.73393 4.2287-0.29676 7.9776-8.5062 23.963-27.005 23.963-27.005-3.3148-2.9653-5.4759-6.9629-5.0448-13.28l-9.1994-8.9768-21.737 23.444c2.2093 4.9519 3.4064 9.9958-2.9675 15.728z" fill="#ff837d"/><path d="m108.61 50.893 9.1252 9.4219c4.2821-13.446 12.477-17.189 21.663-18.473 0 0-2.7693-4.4906-5.0448-5.49-1.2906-0.5668-2.8809-0.41275-4.2287 0-8.2765 2.5346-14.517 7.9565-21.515 14.541z" fill="#ff837d"/><path d="m72.556 88.581 22.924 22.479" fill="none" stroke="#56595b" stroke-width=".5"/><path d="m105.2 51.932 12.019 11.796c0.34918 7.1439 4.365 10.621 8.3833 14.096" fill="none" stroke="#56595b" stroke-width=".5"/><path d="m78.121 89.546 4.3771-5.2674" fill="none" stroke="#56595b" stroke-linecap="round" stroke-width="2"/><path d="m91.204 117.61 37.484-41.062" fill="none" stroke="#56595b" stroke-width="2.2"/><path d="m142.53 46.531s1.2923 2.7325 2.5458 2.7701c2.1851 0.0654 3.1467-3.0355 4.7186-4.5548 0.22848-0.22082 0.65294-0.34678 0.68501-0.66291 0.14227-1.4025-1.4343-2.9757-2.3865-3.4913-0.2767-0.14984-0.67745 0.48146-0.90598 0.26516-2.6341-2.4931-6.6956-5.8956-9.2587-8.8575-0.2185-0.2525-0.12029-0.73715 0.0884-0.99781 0.22712-0.28368 1.0386 0.03194 1.0386-0.33146 0-0.36339-0.72408-0.14938-1.0386-0.33146-0.3023-0.17501-0.61167-0.39749-0.77339-0.70711-0.15481-0.29639 0.19439-0.92438-0.13259-0.99437-0.35578-0.07616-0.21818 0.85459-0.57452 0.92808-0.90548 0.18673-1.6665-0.98106-2.2738-1.5883-0.42482-0.42482-1.3573 0.49632-0.93252 0.92114 0.5939 0.5939 2.3488 1.596 3.1081 2.6283 0.35519 0.48287-0.56967 0.89215-0.43915 1.3386 2.9214 3.7761 7.2911 6.1438 8.6432 10.04 0.2288 0.45682 0.22806 1.0463 0.0674 1.5313-0.22806 0.68846-0.80947 1.2319-1.3744 1.6867-0.23428 0.1886-0.80506 0.40742-0.80506 0.40742" fill="#56595b" stroke="#56595b" stroke-width="1px"/><path d="m135.7 32.584 5.0698 4.7665" fill="#f9de81" stroke="#f9de81" stroke-linecap="round" stroke-width="1px"/><path d="m145.08 49.301 3.1893-3.1043c-0.0166-0.02212 0.55953 1.1498 0.95938 2.2652 0.35105 0.97931 0.49544 2.1749 0.0614 3.1204-0.15388 0.33524-0.54444 0.90669-0.85316 0.70479-1.3003-0.85036-2.2877-1.951-3.357-2.9861" fill="#ff837d" stroke="#56595b" stroke-width="1px"/><path d="m58.238 139.44 6.4392-6.1659 1.6163 4.1158-5.0138 5.3144z" fill="#56595b"/><circle cx="82.869" cy="132.26" r="12.741" fill="none" stroke="#56595b" stroke-linecap="round" stroke-linejoin="bevel" stroke-width="6"/><circle cx="82.869" cy="132.26" r="10.324" fill="#83868c"/><path d="m81.197 122.07v8.547h3.3451v-8.547c-1.143-0.19948-2.2694-0.17865-3.3451 0z" fill="#9abeff"/><path d="m81.197 133.97v8.4826c1.0336 0.15004 2.1116 0.21476 3.3451 0v-8.4826z" fill="#9abeff"/><path d="m72.687 133.97h8.5095v-3.3451h-8.52c-0.15421 0.93629-0.19867 1.976 0.01058 3.3451z" fill="#9abeff"/><path d="m84.542 133.97h8.5095c0.12188-1.1252 0.24894-2.1819 0.01058-3.3451h-8.52z" fill="#9abeff"/><text transform="translate(0 .32186)" font-family="Now" font-size="3.2673px" font-weight="500" style="line-height:1.25" xml:space="preserve"><textPath xlink:href="#path2219"><tspan fill="#ffffff" font-size="3.2673px">FINGERSOFT</tspan></textPath></text><path id="path2219" d="m72.911 125.02c7.4088-7.9607 14.287-5.3682 20.856 0" display="none" fill="none" stroke="#000" stroke-width="1px"/><text transform="matrix(1 0 0 -1 0 264.27)" font-family="Now" font-size="3.2673px" font-weight="500" style="line-height:1.25" xml:space="preserve"><textPath xlink:href="#path2219"><tspan fill="#ffffff" font-size="3.2673px">FINGERSOFT</tspan></textPath></text><circle cx="146.87" cy="73.395" r="12.741" fill="none" stroke="#56595b" stroke-linecap="round" stroke-linejoin="bevel" stroke-width="6"/><circle cx="146.87" cy="73.395" r="10.324" fill="#83868c"/><path d="m145.19 63.207v8.547h3.3451v-8.547c-1.143-0.19948-2.2694-0.17865-3.3451 0z" fill="#9abeff"/><path d="m145.19 75.099v8.4826c1.0336 0.15004 2.1116 0.21476 3.3451 0v-8.4826z" fill="#9abeff"/><path d="m136.68 75.099h8.5095v-3.3451h-8.52c-0.15421 0.93629-0.19867 1.976 0.0106 3.3451z" fill="#9abeff"/><path d="m148.54 75.099h8.5095c0.12188-1.1252 0.24894-2.1819 0.0106-3.3451h-8.52z" fill="#9abeff"/><text transform="translate(63.997 -58.546)" font-family="Now" font-size="3.2673px" font-weight="500" style="line-height:1.25" xml:space="preserve"><textPath xlink:href="#path2219"><tspan fill="#ffffff" font-size="3.2673px">FINGERSOFT</tspan></textPath></text><path d="m72.911 125.02c7.4088-7.9607 14.287-5.3682 20.856 0" display="none" fill="none" stroke="#000" stroke-width="1px"/><text transform="matrix(1 0 0 -1 63.997 205.4)" font-family="Now" font-size="3.2673px" font-weight="500" style="line-height:1.25" xml:space="preserve"><textPath xlink:href="#path2219"><tspan fill="#ffffff" font-size="3.2673px">FINGERSOFT</tspan></textPath></text><path d="m57.452 74.224c0.17377 0.38566 0.93696-0.42831 1.2595-0.15468 0.40478 0.34336-0.33282 1.2411 0.06629 1.591 0.43373 0.38028 1.3293-0.5757 1.7236-0.15468 0.16308 0.17412-0.26184 0.52271-0.11049 0.70711 0.45368 0.55273 1.5058-0.23538 2.1434 0.08839 0.41129 0.20886 0.40664 1.1578 0.86179 1.0828 0.38621-0.06365 0.07544-0.88276 0.39775-1.1049 0.32758-0.22573 0.88392-0.22806 1.1932 0.0221 0.17643 0.14268-0.01262 0.50962 0.15468 0.66291 0.34561 0.31667 1.1139 0.57612 1.3921 0.19887 0.35788-0.48526-0.65022-1.0449-0.7734-1.6352-0.04968-0.23805-0.13013-0.53956 0.0221-0.7292 0.33773-0.42072 1.1293-0.08499 1.5689-0.39775 0.29464-0.20962 0.48206-0.56301 0.59662-0.90598 0.07482-0.224 0.0281-0.47149 0.04419-0.70711 0.0951-1.3927 0.30936-4.1763 0.30936-4.1763l-1.7236-1.9887-3.3146-4.7509-0.04419-1.149-1.5357-4.8835-0.86179-1.0165s0.4767-2.383-0.27621-3.0936c-0.51449-0.48558-1.6418 0.45385-2.1213-0.06629-0.99978-1.0844 1.3095-3.4241 0.22097-4.4194-0.31289-0.28608-0.92805-0.08754-1.2595 0.17678-0.25884 0.20639-0.06283 0.76974-0.35355 0.92808-0.52904 0.28813-1.2449-0.67489-1.7678-0.37565-0.22237 0.12727-0.07177 0.53867-0.24307 0.7292-0.30852 0.34316-1.0014 0.19201-1.2595 0.57452-0.37118 0.55004-0.41795 1.4128-0.08839 1.9887 0.14073 0.24594 0.6029 0.15635 0.7513 0.39775 0.20834 0.3389-0.27985 0.93424 0.0221 1.1932 0.20874 0.17905 0.58538 0.03685 0.81759-0.11049 0.3778-0.23972 0.3486-0.89172 0.7292-1.127 0.4539-0.28053 1.5834-0.71032 1.591-0.17678 0.06904 4.8637-1.5332 19.674-0.13258 22.782z" fill="#8e6f60" stroke="#56595b" stroke-width=".5"/><path d="m58.819 73.441c0.59872-0.40258 0.72548 1.4731 1.3371 1.4657 0.59844-0.0072 0.52472-0.97304 1-1.0313 1.3886-0.17009 1.3302 1.1653 3.2734 1.6641 0.53399 0.13706 0.91903-0.53072 0.91406-0.97656-0.0076-0.68501-1.7893-0.88095-1.4375-1.4688 0.34538-0.57703 1.2856 0.39713 1.9375 0.5625 0.37975 0.09634 0.7901 0.40837 1.1484 0.25 0.17608-0.07782 0.42741-0.36613 0.28906-0.5-0.87965-0.8512-2.7283-1.5971-2.1562-2.6562 0.2178-0.40328 0.93551 0.13226 1.2188-0.16406 0.24388-0.25514 0.2674-0.74742 0.09375-1.0547-0.66702-1.1802-2.4583-1.1466-3.6562-1.7812-1.2205-0.64658-3.6534-0.68261-3.5938-2.0625 0.01388-0.32127 0.82499-0.08859 0.875-0.40625 0.059606-0.37864-0.70604-0.42354-0.84375-0.78125-0.37948-0.98573-0.35617-2.314 0.28125-3.1562 0.28253-0.37331 1.2473-0.03639 1.3125-0.5 0.11609-0.82521-2.2113-0.6939-2-1.5 0.20245-0.7724 1.8627-1.0151 2.375-0.3125 0.57342 0.78642 1.7967 1.0643 2.1562 1.9688 0.1042 0.26206-0.13179 0.57037-0.0625 0.84375 0.48344 1.9074 2.0079 3.3938 3.1875 4.9688 0.50462 0.67373 1.3454 1.124 1.6562 1.9062 0.28102 0.70727 0.12628 1.5209 0.09375 2.2812-0.02469 0.57701-0.07204 1.1602-0.21875 1.7188-0.11216 0.42704-0.19594 0.90643-0.5 1.2266-0.22384 0.23567-0.43617 0.48808-0.88281 0.41406-1.303-0.21593-1.505 0.71795-0.34148 2.3149 0.08684 0.11918 0.11362 0.32938-0.0179 0.3882-0.31637 0.1415-0.67794 0.03368-0.94426-0.28728-0.14152-0.17056 0.02002-0.4829-0.15731-0.65803-0.25456-0.25141-0.97545-0.2779-1.1524-0.21395-0.47395 0.17136-0.60229 1.0977-0.6589 1.2197-0.08121 0.17501-0.21082-0.65302-0.61843-0.96672-0.28176-0.21684-0.49453-0.25004-1.0625-0.09375-1.21 0.33296-1.1156 0.01193-0.9609-0.2618 0.13401-0.23704 0.05218-0.37971-0.0049-0.45909-0.20215-0.2812-1.2664 0.23194-1.7295 0.15839-0.47884-0.07605 0.40865-1.3129-0.1341-1.614-0.24786-0.13753-0.51284-0.06384-0.48008-0.10861-0.02386-0.13967 0.18948-0.46484 0.46456-0.32123z" fill="#d3b69a"/><path d="m71.55 74.158c-0.67092-0.45202-1.4905-0.68102-1.8562-1.591-0.92808 0.02434-2.0578 0.36135-2.7842-0.22097-0.31267-0.25065-0.58584-0.8225-0.35355-1.149 0.23925-0.33633 1.2374-0.04419 1.2374-0.04419 0.64528-0.42482 0.37652-1.4895 0.22097-2.4749-0.44336-0.21005-0.9545-0.51813-1.1932-0.97227-0.25446-0.48404-0.34185-1.13-0.13258-1.6352 0.14798-0.35725 0.88388-0.7513 0.88388-0.7513-0.15237-0.25109-0.50295-0.4161-0.61872-0.70711-0.14169-0.35615 0.1867-0.8431-0.04419-1.149-0.7703-1.0207-3.646-1.1932-3.646-1.1932l-0.15468-1.5468s-1.5708-1.2578-2.0329-2.1213c-0.19226-0.35924-0.39124-0.80579-0.26516-1.1932 0.10334-0.3176 0.7513-0.66291 0.7513-0.66291l0.17678-4.8172c1.2189 0.33115 2.3733 0.53346 3.5355 0.7513 0.25409 0.21174 2.1925-2.8524 3.182-3.5355 0.9382-0.64767 2.7731 0.36434 3.0936 1.4584 0.49866 1.7024-2.8284 4.5078-2.8284 4.5078-0.05966 0.10938 3.8209-0.56122 4.6183-0.15468 0.3487 0.17777 0.34671 1.0817 0.30936 1.6352-0.05176 0.7669-1.2064 1.5851-0.7292 2.1876 0.30307 0.38266 1.042 0.12218 1.4584-0.13258 0.42358-0.25916 0.21627-1.1043 0.7955-1.2595 0.96248-0.2579 2.1847 1.3173 2.6958 2.4086 0.36263 0.77421 0.23029 1.7202 0.08839 2.5633-0.21751 1.2923-1.5304 2.3628-1.4142 3.6681 0.21484 2.4144 5.3393 4.5113 5.3475 4.5078z" fill="#fcecdc" stroke="#56595b" stroke-width=".5"/><path d="m70.639 55.71c0.78439 3.0067-1.5743 5.1856-3.1656 6.7972-0.48657 0.4928-0.91374 1.3179-0.81207 2.044 0.06318 0.4512 0.59819 0.69302 0.83416 1.0828 0.31407 0.51873 0.21837 1.3838 0.76235 1.6518 2.1816 1.0747 5.0768-0.28689 7.1153-1.6131 1.1163-0.72622 1.9589-1.9429 2.3865-3.2041 0.24906-0.73455 0.2773-1.6385 0.03167-2.3267-0.40843-1.1442-1.1273-2.7799-2.5486-2.5631-0.53529 0.08164-0.33083 1.3186-1.2494 1.4616-0.69081 0.1076-1.1882 0.08137-1.3363-0.17779-0.32707-0.57217 0.32783-1.4151 0.73757-2.0154 0.17216-0.25221 0.16339-0.85803 0.02651-1.2526-0.07457-0.21494-0.09233-0.45439-0.43396-0.52679-1.3633-0.28892-2.5293-0.0524-2.4418 0.28278z" fill="#979797"/><ellipse transform="rotate(9.5476)" cx="74.258" cy="52.761" rx="3.3848" ry="2.4253" fill="#fcecdc"/><ellipse transform="rotate(9.5476)" cx="74.285" cy="52.774" rx="2.0698" ry="1.4831" fill="#d3b69a"/><path d="m63.48 61.89c-1.2395 0.13932-2.2303 0.90777-2.3395 1.8953-0.41944 3.7931 5.1359 3.1628 5.4316 2.9191" fill="none" stroke="#56595b" stroke-width=".5"/><ellipse transform="rotate(-8.8529)" cx="54.9" cy="63.503" rx="1.4635" ry="1.3858" fill="#fff" stroke="#56595b" stroke-linecap="round" stroke-linejoin="bevel" stroke-width=".1"/><ellipse transform="rotate(-8.8529)" cx="55.642" cy="63.399" rx=".72128" ry=".68298" fill="#56595b"/><path d="m61.209 55.353-0.22097-4.2868" fill="none" stroke="#56595b" stroke-linecap="round" stroke-width="1.3"/><path d="m57.452 51.224s-0.54238 22.72-0.54238 27.102c0 0.62025-1.8531 0.43957-1.8531-0.18068 0-0.59386 0.26319-5.3152 0.19558-5.1462 0.28992 0.19424-8.9175-1.6677-8.6024-10.031 0.2585-6.8609 6.031-11.442 10.802-11.744z" fill="#ff837d" stroke="#56595b" stroke-width=".5"/><path d="m55.264 73.1 0.16978-21.312" fill="none" stroke="#56595b" stroke-linecap="round" stroke-width=".5"/><ellipse cx="62.062" cy="150.38" rx="3.0625" ry="3.125" fill="#8e6f60" stroke="#56595b" stroke-linecap="round" stroke-linejoin="bevel" stroke-width=".1"/><path d="m52.856 136.87c0.84862-0.86985 2.7559-0.45275 3.6239 0.39774 0.97625 0.95655 1.5043 3.107 0.53033 4.0659-0.86998 0.8565-2.7655 0.33779-3.6239-0.53033-0.93018-0.94074-1.4542-2.9863-0.53033-3.9333z" fill="#8e6f60"/><path d="m47.995 144.87c-1.343-0.52609-2.9779 1.1199-3.5797 2.4307-0.48874 1.0645-0.61166 2.8971 0.39775 3.4913 1.292 0.76054 3.4686-0.39032 4.1543-1.7236 0.65694-1.2775 0.36528-3.6745-0.97227-4.1984z" fill="#8e6f60"/><path d="m55.729 149.07c-1.6366-0.59708-3.4678 2.1471-3.4913 3.8891-0.02616 1.9332 1.9527 5.1153 3.7565 4.4194 2.5852-0.99735 2.3379-7.3588-0.26516-8.3085z" fill="#8e6f60"/><path d="m48.879 155.43c-1.0014 0.0636-2.3497 0.9424-2.2981 1.9445 0.055 1.0691 1.5822 1.7646 2.6517 1.812 1.1135 0.0493 2.8809-0.52113 2.9168-1.6352 0.04188-1.2987-1.9736-2.2037-3.2704-2.1213z" fill="#8e6f60"/><path d="m39.907 156.18c-0.77145 1.1272-0.02924 3.2424 1.149 3.9333 1.1344 0.66515 3.2456 0.2867 3.8449-0.88388 0.55358-1.0813-0.37418-2.731-1.4142-3.3588-1.0254-0.61889-2.9033-0.67901-3.5797 0.30936z" fill="#8e6f60"/><path d="m33.938 148c-1.0896 1.1092 0.15783 3.5543 1.4375 4.4375 1.3905 0.95969 4.3497 1.2818 5.0625-0.25 0.50802-1.0918-1.199-2.1872-2.1875-2.875-1.2334-0.85821-3.2595-2.3844-4.3125-1.3125z" fill="#8e6f60"/><path d="m25.625 141.62c-0.29394 1.2371 2.3792 1.1577 3.125 2.1875 0.54897 0.75796 0.15716 2.0194 0.8125 2.6875 0.52132 0.53149 1.4032 0.86978 2.125 0.6875 0.64289-0.16235 1.1487-0.81424 1.375-1.4375 0.21379-0.58877 0.16193-1.3182-0.125-1.875-0.67816-1.316-2.011-2.4165-3.4375-2.8125-1.2576-0.34913-3.5733-0.70735-3.875 0.5625z" fill="#8e6f60"/><path d="m38.296 133.7c-0.74563 0.81465-0.64479 2.3741-0.0625 3.3125 0.43732 0.70476 1.4534 1.2935 2.25 1.0625 0.97142-0.28169 1.2897-1.6083 1.625-2.5625 0.25016-0.71194 0.78269-1.7155 0.25-2.25-0.96145-0.9647-3.1429-0.5672-4.0625 0.4375z" fill="#8e6f60"/><path d="m31.375 132.69c-2.7822 1.7911 0.19463 8.6548 3.4375 9.3125 1.3722 0.27832 2.9006-1.6626 2.875-3.0625-0.0541-2.9606-3.8228-7.8528-6.3125-6.25z" fill="#8e6f60"/><path d="m25.612 142.81c-1.4674-0.52414-3.3116 0.94721-4.0625 2.3125-0.84434 1.5351-0.31123 3.5903 0.25 5.25 0.44615 1.3193 0.98324 3.4893 2.375 3.4375 1.3997-0.0521 1.6673-2.3012 2.125-3.625 0.45345-1.3116 0.72287-2.7466 0.5625-4.125-0.13414-1.1529-0.15694-2.8596-1.25-3.25z" fill="#8e6f60"/><path d="m20.812 155.44c-1.2466 0.5391-2.9356 1.7272-2.6875 3.0625 0.26214 1.4109 2.3831 2.1275 3.8125 2 2.6026-0.23213 6.9931-2.3269 6.1875-4.8125-0.75199-2.3201-5.0739-1.2181-7.3125-0.25z" fill="#8e6f60"/><path d="m15.688 144.25c-1.5225 0.32483-1.6664 2.9999-1.25 4.5 0.29165 1.0508 1.2945 2.3978 2.375 2.25 1.2036-0.1647 1.9666-1.9137 1.875-3.125-0.11824-1.564-1.4661-3.9523-3-3.625z" fill="#8e6f60"/><path d="m18.562 136.75c-1.1987 0.43375-1.207 2.56-0.75 3.75 0.43767 1.1397 1.7559 2.4947 2.9375 2.1875 1.083-0.28156 1.6354-1.9742 1.375-3.0625-0.35515-1.4841-2.1276-3.3942-3.5625-2.875z" fill="#8e6f60"/><path d="m23.875 133.19c-1.2823 0.71577-2.9828 2.4433-2.3125 3.75 0.67677 1.3194 3.1385 1.0277 4.4375 0.3125 1.3473-0.74177 2.9762-2.7421 2.1875-4.0625-0.73713-1.2341-3.0573-0.70063-4.3125 0z" fill="#8e6f60"/><path d="m28.688 121.12c-1.1241 0.24512-2.5764 1.4426-2.3125 2.5625 0.2618 1.1108 2.0735 1.4979 3.1875 1.25 1.0932-0.24331 2.5374-1.3404 2.3125-2.4375-0.23241-1.1336-2.0569-1.6215-3.1875-1.375z" fill="#8e6f60"/><path d="m14.062 131.44c-1.0696 0.87626-0.59901 3.2098 0.4375 4.125 0.84347 0.74473 2.5342 0.68525 3.375-0.0625 0.69131-0.61481 0.87094-1.969 0.375-2.75-0.78415-1.2349-3.056-2.2395-4.1875-1.3125z" fill="#8e6f60"/><ellipse cx="23.438" cy="129.69" rx="1.9375" ry="2" fill="#8e6f60"/><circle cx="23.469" cy="115.16" r="1.4688" fill="#8e6f60"/><ellipse cx="32.262" cy="159.1" rx="2.0329" ry="1.8562" fill="#8e6f60"/><path d="m15.25 119.44c-0.19623 0.67065 0.92163 1.1764 0.9375 1.875 0.03262 1.4359-2.0779 2.5391-1.75 3.9375 0.21618 0.92194 1.2417 1.767 2.1875 1.8125 1.4833 0.0714 2.8918-1.2461 3.6875-2.5 0.79094-1.2465 1.0488-2.9437 0.6875-4.375-0.29474-1.1676-1.0053-2.6461-2.1875-2.875-1.3575-0.26286-3.1742 0.79793-3.5625 2.125z" fill="#8e6f60"/></svg>
