<svg xmlns="http://www.w3.org/2000/svg" id="svg16" version="1.1" viewBox="0 0 192 192"><defs id="defs4"><style id="style2">.a{fill:none;stroke:#b1b5bd;stroke-linecap:round;stroke-linejoin:round;isolation:isolate;opacity:.63}</style></defs><path id="path839" d="m101.05 83.682 14.436-27.761L167.9 85.903l-46.417 25.985z" style="fill:#979797;stroke:none;stroke-width:3.08851838px;stroke-linecap:butt;stroke-linejoin:miter;stroke-opacity:1"/><path id="path837" d="m36.376 173.607 95.545-54.834V84.57l-19.322 7.995-45.53 26.651.445-71.514-34.202-13.992Z" style="fill:#83868c;stroke:none;stroke-width:3.08851838px;stroke-linecap:butt;stroke-linejoin:miter;stroke-opacity:1"/><path id="path856" d="M131.921 84.57v25.592l-63.296 39.482.666-31.76z" style="fill:#56595b;stroke:none;stroke-width:3.08851838px;stroke-linecap:butt;stroke-linejoin:miter;stroke-opacity:1"/><path id="path833" d="m53.99 73.1 15.079 5.696 5.468 5.925v57.478l7.381-7.329 85.746-49.416h4.397v29.42L53.99 183.843l-3.794-56.093z" style="fill:#83868c;stroke:none;stroke-width:3.08851838px;stroke-linecap:butt;stroke-linejoin:miter;stroke-opacity:1"/><path id="path835" d="m47.683 64.62 20.72-11.587 47.75 5.997-.112 26.424-29.871 3.78Z" style="fill:#56595b;stroke:none;stroke-width:3.08851838px;stroke-linecap:butt;stroke-linejoin:miter;stroke-opacity:1"/><path id="path831" d="m31.036 31.326 23.597-13.605L172.12 85.68 74.62 142.315v-6.441l87.766-50.672-46.235-26.172-13.325 7.995 29.094 17.546-57.3 33.091v-4.886l24.572-13.921L87.947 66.58 34.644 36.154Z" style="fill:#ececec;stroke-width:3.08851838"/><path id="path864" d="m58.99 47.816 13.977-9.423 22.771 14.605-10.155 10.993Z" style="fill:#979797;stroke:none;stroke-width:3.08851838px;stroke-linecap:butt;stroke-linejoin:miter;stroke-opacity:1"/><path id="path829" d="M31.036 31.326v139.14l5.34 3.141V38.55l49.626 29.524v18.217L47.683 64.62v115.584l6.307 3.641V73.1l45.203 25.755 23.557-13.82Z" style="fill:#b1b5bd;stroke:none;stroke-width:3.08851838px;stroke-linecap:butt;stroke-linejoin:miter;stroke-opacity:1"/><path id="path858" d="M85.583 63.991 62.759 42.005l8.952-20.573 22.614-2.826 21.672 10.993-6.91 20.73Z" style="fill:#ba6561;stroke:none;stroke-width:3.08851838px;stroke-linecap:butt;stroke-linejoin:miter;stroke-opacity:1"/><path id="path862" d="m93.854 43.104-8.271 20.887-22.824-21.986 8.952-20.573 16.803 6.282Z" style="opacity:.25;fill:#000;stroke:none;stroke-width:3.08851838px;stroke-linecap:butt;stroke-linejoin:miter;stroke-opacity:1"/><path id="path860" d="m71.71 21.432 22.144 21.672L115.997 29.6 94.953 8.084Z" style="fill:#ff837d;stroke:none;stroke-width:3.08851838px;stroke-linecap:butt;stroke-linejoin:miter;stroke-opacity:1"/></svg>