<svg xmlns="http://www.w3.org/2000/svg" viewBox="0 0 192 192"><title>Home Pizza</title><rect x="8" y="32.5" width="176" height="127" rx="10" fill="#f9de81"/><path d="M103.73,100.92c1,.24,1.4,2.77,1.39,4,0,1.73,0,2.36-1.73,2.14a16.27,16.27,0,0,1-4.23-1.25c-.82-.44-.83-.73-.27-1.36.76-.83,1.74-1.56,2.45-2.26s1.55-1.5,2.39-1.29Zm-9-4.81c1.07-.28,3.09-.28,4.07.52,1,1-.92,4-1.82,5.73-1.08,2.12-1.89,0-2.36-1.42a13.43,13.43,0,0,1-.82-3.62c0-.75.13-1,.93-1.21Zm-6,4.37c-1.51.31-2,3.29-1.38,4.48s4.49.42,5.64.27.76-.85.19-1.33a32.43,32.43,0,0,1-3-3,1.5,1.5,0,0,0-1.42-.47Zm4.91,7.23c-1.49.45-3.88,1.76-4,2.72s2.32,2.7,3.45,3.23,1.31-.12,1.39-1.2.23-2.93.26-4.07c0-1-.34-.92-1.1-.68Zm4.59.09a17.16,17.16,0,0,1,3.34,3.31c.28.47.41.9,0,1.3-.78.76-2.76,2-3.11.69a37.93,37.93,0,0,1-1.06-4.76c0-.6.19-1,.83-.54Zm17.4,9.82c-.27,1.15,1.67,2.29-.08,3.52-1.39,1-3.79-.53-4.61-2.63-1.09-2.82,0-5.79,2.27-8.15s4.47-3.08,6.65-2.42c3.33,1,2.15,5,.7,4.41-1.15-.27-1.11,1,0,1.83,1.24.93,4,1.36,3.88,1.85.31,1.24-3,5.32-4.42,4.29a11.56,11.56,0,0,0-1.74-2.79c-.73-.62-2.17-1.78-2.62.09Zm-41-15.39c-.76-.08-.56.47.06,1a3.5,3.5,0,0,0,5.31-1c1.1-2-.52-4.45-2.38-5-.68-.21-.71.21-.41.74,1.25,2.23.13,4.64-2.58,4.35Zm2.91,13.92a1.74,1.74,0,0,0-1.57-1.64,1.6,1.6,0,1,0,1.57,1.64Zm.58,4a4.3,4.3,0,0,0,2.29-4A4.58,4.58,0,0,0,73,112.54c-3.64,2.86-.52,10.39,5,7.57ZM105.86,92c-.35.84-.94.58-1.06.37-2.83-4.68-5.53-7.55-12.5-6.05-2.15.52-3.33-.27-1.62-1.38a11,11,0,0,1,9.68-1c4,1.76,6.15,6.2,5.5,8.1ZM60.47,118.81c2.05,1.32,4.49-3.81,3.12-4.69-1.05-.67-5.25,3.32-3.12,4.69ZM96.24,93.29c6.62,0,11.45,5.28,11.37,11.84-.14,10.84-13.38,16.52-20.79,6.8a10.68,10.68,0,0,1-2.25-6.8c.08-6.23,5.51-11.84,11.67-11.84ZM47.15,127.44c-4.25,0-5.36-3.62-2.74-6.37L94.27,68.91c.11.17.22.34.34.51a17.58,17.58,0,0,0,9.45,6.41,2.5,2.5,0,0,1,2.06,2.29c1.48,6,5,8.51,9.43,9.8,3,.89,2.6.81,2.81,4.42.26,4.5,4,8,8.23,9.16,2.14.58,1.91,1.21,2,3.46.19,5.16,2.24,8.53,6.82,11.36,1.31.8,1,1.74.83,3.38-.36,3.32,1,5.37,2.17,7.74Zm92.85,0h4.43c4.66,0,5.21-3.68,4-7.43-7.34-23.53-24.77-42.67-42.17-53.8-3.17-2-7.06-2.51-9.85.41l-1,1c2.11,3.63,5.23,5,9.15,6.29,1.82.61,2.77.58,3.27,3a11.92,11.92,0,0,0,9.29,9c3.44.81,3.3,1.47,3.55,4.64.34,4.4,3.95,7.95,8,9.42,1.56.56,2.32,1.3,2.23,4a12.34,12.34,0,0,0,6.23,11.11c1.79.91,1.82,2,1.34,4-.61,2.6.26,5.94,1.41,8.35Z" fill="#8e6f60" fill-rule="evenodd"/></svg>