<?xml version="1.0" encoding="UTF-8"?>
<svg version="1.1" viewBox="0 0 192 192" xml:space="preserve" xmlns="http://www.w3.org/2000/svg"><defs><style/></defs>
	 <rect class="a" x="20" y="20" width="152" height="152" rx="10" fill="#56595b"/><g transform="matrix(2.211 0 0 2.2119 43.008 42.986)"><path class="a" d="m30.374 6.1981c-1.7664 2.8951-6.9995 5.8952-13.456 7.5935-11.251 2.9592-12.451 10.148-12.451 14.796 0 8.2914 8.3751 13.149 13.707 13.149s5.7509-1.8146 7.9005-1.8146 3.7409 0.5863 6.9234 0.5863 10.469-3.35 10.469-10.19-7.7679-15.019-9.408-15.019c-2.0938 0-3.1587 2.9914-3.1587 2.9914s-0.2751-6.6483-0.5264-12.092z" fill="#f9de81"/><path class="a" d="m27.178 14.587 0.1675 10.19c2.5544 0 5.1856-3.5873 6.1348-3.5873 0.235 0 0.812 1.4 2.3241 2.1914 2.68 1.4029 3.9071 3.0916 3.9071 6.2486a6.1848 6.1848 0 0 1-6.3219 6.4118 9.0478 9.0478 0 0 1-6.7141-3.9084c-1.9821 2.6382-3.5594 4.5086-7.5794 4.5086s-8.8776-2.9313-8.8776-8.5007 3.699-7.6493 8.6961-9.2126a25.853 25.853 0 0 0 8.2634-4.3414z" fill="#f8c18c"/><circle class="a" cx="33.469" cy="29.56" r="2.9613" fill="#ff837d"/><path class="a" d="m22.948 27.847a3.9384 3.9384 0 0 1-7.8768 0c0-2.1751 1.5469-3.7207 3.7846-4.2442a14.669 14.669 0 0 0 4.0922-1.9749z" fill="#ff837d"/></g></svg>
