<?xml version="1.0" encoding="UTF-8" standalone="no"?>
<svg
   xmlns:dc="http://purl.org/dc/elements/1.1/"
   xmlns:cc="http://creativecommons.org/ns#"
   xmlns:rdf="http://www.w3.org/1999/02/22-rdf-syntax-ns#"
   xmlns:svg="http://www.w3.org/2000/svg"
   xmlns="http://www.w3.org/2000/svg"
   xmlns:sodipodi="http://sodipodi.sourceforge.net/DTD/sodipodi-0.dtd"
   xmlns:inkscape="http://www.inkscape.org/namespaces/inkscape"
   sodipodi:docname="hovercraft_takedown.svg"
   inkscape:version="0.92.5 (2060ec1f9f, 2020-04-08)"
   version="1.1"
   id="svg2"
   viewBox="0 0 192 192"
   height="192"
   width="192"
   inkscape:export-filename="/home/jphilippe/inkscape/icônes/delta-github/png/aib.png"
   inkscape:export-xdpi="96"
   inkscape:export-ydpi="96">
  <sodipodi:namedview
     inkscape:document-rotation="0"
     inkscape:window-maximized="1"
     inkscape:window-y="-2"
     inkscape:window-x="-12"
     inkscape:window-height="745"
     inkscape:window-width="1280"
     units="px"
     showgrid="true"
     inkscape:current-layer="layer1"
     inkscape:document-units="px"
     inkscape:cy="30.550155"
     inkscape:cx="88.152593"
     inkscape:zoom="8.0000002"
     inkscape:pageshadow="2"
     inkscape:pageopacity="0.0"
     borderopacity="1.0"
     bordercolor="#666666"
     pagecolor="#ffffff"
     id="base"
     inkscape:snap-bbox="false"
     inkscape:object-paths="true"
     inkscape:snap-nodes="true"
     showguides="true"
     inkscape:guide-bbox="true"
     inkscape:snap-object-midpoints="true"
     inkscape:snap-center="true"
     inkscape:snap-global="true"
     inkscape:snap-intersection-paths="true"
     inkscape:snap-smooth-nodes="true"
     inkscape:snap-midpoints="true">
    <inkscape:grid
       type="xygrid"
       id="grid1015" />
  </sodipodi:namedview>
  <defs
     id="defs4" />
  <metadata
     id="metadata7">
    <rdf:RDF>
      <cc:Work
         rdf:about="">
        <dc:format>image/svg+xml</dc:format>
        <dc:type
           rdf:resource="http://purl.org/dc/dcmitype/StillImage" />
        <dc:title></dc:title>
      </cc:Work>
    </rdf:RDF>
  </metadata>
  <g
     transform="translate(0,-860.36216)"
     id="layer1"
     inkscape:groupmode="layer"
     inkscape:label="Calque 1">
    <path
       id="rect985"
       style="fill:#9abeff;fill-opacity:1;fill-rule:evenodd;stroke:none;stroke-opacity:1"
       d="m 29.5,879.86218 h 133 c 5.54,0 10,4.46 10,10 v 133.00002 c 0,5.54 -4.46,10 -10,10 h -133 c -5.54,0 -10,-4.46 -10,-10 V 889.86218 c 0,-5.54 4.46,-10 10,-10 z" />
    <rect
       style="opacity:1;vector-effect:none;fill:#999999;fill-opacity:1;stroke-width:7.15541744;paint-order:stroke fill markers"
       id="rect1464"
       width="16"
       height="32"
       x="116"
       y="924.36218" />
    <path
       style="opacity:1;vector-effect:none;fill:#a0a5af;fill-opacity:1;stroke-width:8;paint-order:stroke fill markers"
       d="m 68,916.36185 v 8 h -8 v 32 h 16 v 8 h -8 v 8 h -8 v 16 h 8 v -8 h 8 v 16 h 8 v -32 h 24 v 16 16 h 8 v -16 h 8 v 8 h 8 v -16 h -8 v -8 h -8 v -16 h 8 v -32 h -8 v 16 h -8 v 8 H 84 v -8 h -8 v -8 -8 z"
       id="rect1346"
       inkscape:connector-curvature="0" />
    <rect
       style="opacity:1;vector-effect:none;fill:#e85e5c;fill-opacity:1;stroke-width:8;paint-order:stroke fill markers"
       id="rect1356"
       width="8"
       height="8"
       x="84"
       y="1004.3622" />
    <rect
       style="opacity:1;vector-effect:none;fill:#728dbe;fill-opacity:1;stroke-width:8;paint-order:stroke fill markers"
       id="rect1358"
       width="8"
       height="8"
       x="100"
       y="1004.3622" />
    <path
       style="opacity:1;vector-effect:none;fill:#ffffff;fill-opacity:1;stroke-width:8;paint-order:stroke fill markers"
       d="m 92,892.36185 v 8 h 8 v -8 z m -32,16 v 8 h 8 v -8 z m 24,0 v 8 h 8 v 8 h 8 v -8 h 8 v -8 z m 40,0 v 8 h 8 v -8 z m -72,40 v 8 h 8 v -8 z m 8,8 v 8 h 16 v -8 z m 0,8 h -8 v 24 h 8 z m 72,-16 v 8 h 8 v -8 z m 0,8 h -16 v 8 h 16 z m 0,8 v 24 h 8 v -24 z m -40,40.00005 v 8 h 8 v -8 z"
       id="rect1366"
       inkscape:connector-curvature="0" />
    <path
       style="opacity:1;vector-effect:none;fill:#83868c;fill-opacity:1;stroke-width:13.85640526;paint-order:stroke fill markers"
       d="m 52,924.36185 v 24 h 8 v -24 z m 80,0 v 24 h 8 v -24 z m -64,16 v 8 h 8 v -8 z m 48,0 v 8 h 8 v -8 z m -56,40 v 8 h 24 v -8 z m 48,0 v 8 h 24 v -8 z"
       id="rect1368"
       inkscape:connector-curvature="0" />
    <rect
       style="opacity:1;vector-effect:none;fill:#999999;fill-opacity:1;stroke-width:8;paint-order:stroke fill markers"
       id="rect1376"
       width="8"
       height="8"
       x="52"
       y="988.36218" />
    <rect
       style="opacity:1;vector-effect:none;fill:#999999;fill-opacity:1;stroke-width:8;paint-order:stroke fill markers"
       id="rect1378"
       width="8"
       height="8"
       x="132"
       y="988.36218" />
    <path
       style="opacity:1;vector-effect:none;fill:#56595b;fill-opacity:1;stroke-width:8;paint-order:stroke fill markers"
       d="m 84,916.36185 v 8 8 16 h 24 v -16 -8 -8 h -8 v 8 h -8 v -8 z m -32,72 v 8 h 8 v -8 z m 8,8 v 8.00005 h 16 8 v -8.00005 h -8 z m 24,0 h 24 v -8 H 84 Z m 24,0 v 8.00005 h 8 16 v -8.00005 h -16 z m 24,0 h 8 v -8 h -8 z"
       id="rect1360"
       inkscape:connector-curvature="0" />
    <rect
       style="opacity:1;vector-effect:none;fill:#999999;fill-opacity:1;stroke-width:8;paint-order:stroke fill markers"
       id="rect1380"
       width="16"
       height="8"
       x="116"
       y="988.36218" />
    <rect
       style="opacity:1;vector-effect:none;fill:#999999;fill-opacity:1;stroke-width:8;paint-order:stroke fill markers"
       id="rect1382"
       width="16"
       height="8"
       x="60"
       y="988.36218" />
    <rect
       style="opacity:1;vector-effect:none;fill:#ffffff;fill-opacity:1;stroke-width:8;paint-order:stroke fill markers"
       id="rect1388"
       width="24"
       height="16"
       x="84"
       y="972.36218" />
    <path
       style="opacity:1;vector-effect:none;fill:#83868c;fill-opacity:1;stroke-width:8;paint-order:stroke fill markers"
       d="m 84,964.36185 v 8 h 8 v -8 z m 8,8 v 8 h 8 v -8 z m 8,0 h 8 v -8 h -8 z"
       id="rect1390"
       inkscape:connector-curvature="0" />
    <path
       style="opacity:1;vector-effect:none;fill:#333333;fill-opacity:1;stroke-width:8;paint-order:stroke fill markers"
       d="m 52,996.36185 v 8.00005 h 8 v -8.00005 z m 8,8.00005 v 8 h 16 v 8 h 16 v -8 h -8 v -8 h -8 z m 24,0 h 24 v -8.00005 H 84 Z m 24,0 v 8 h -8 v 8 h 16 v -8 h 16 v -8 h -16 z m 24,0 h 8 v -8.00005 h -8 z"
       id="rect1332"
       inkscape:connector-curvature="0"
       sodipodi:nodetypes="ccccccccccccccccccccccccccccccccccc" />
    <rect
       style="opacity:1;vector-effect:none;fill:#999999;fill-opacity:1;stroke-width:8;paint-order:stroke fill markers"
       id="rect1398"
       width="8"
       height="16"
       x="92"
       y="956.36218" />
    <rect
       style="opacity:1;vector-effect:none;fill:#e85e5c;fill-opacity:1;stroke-width:8;paint-order:stroke fill markers"
       id="rect1414"
       width="16"
       height="8"
       x="76"
       y="892.36218" />
    <rect
       style="opacity:1;vector-effect:none;fill:#728dbe;fill-opacity:1;stroke-width:8;paint-order:stroke fill markers"
       id="rect1416"
       width="16"
       height="8"
       x="100"
       y="892.36218" />
    <path
       style="opacity:1;vector-effect:none;fill:#333333;fill-opacity:1;stroke-width:8;paint-order:stroke fill markers"
       d="m 76,924.36185 v 8 h 8 v -8 z m 8,8 v 8 h 24 v -8 z m 24,0 h 8 v -8 h -8 z m -48,8 v 8 h 8 v -8 z m 64,0 v 8 h 8 v -8 z"
       id="rect1422"
       inkscape:connector-curvature="0" />
    <path
       style="opacity:1;vector-effect:none;fill:#56595b;fill-opacity:1;stroke-width:8;paint-order:stroke fill markers"
       d="m 76,908.36185 v 16 h 8 v -16 z m 32,0 v 16 h 8 v -16 z m -48,8 v 24 h 8 v -24 z m 64,0 v 24 h 8 v -24 z"
       id="rect1426"
       inkscape:connector-curvature="0" />
    <path
       style="opacity:1;vector-effect:none;fill:#b1b5bd;fill-opacity:1;stroke-width:8;paint-order:stroke fill markers"
       d="m 84,948.36185 v 16 h 8 v 8 h 8 v -8 h 8 v -16 h -8 -8 z"
       id="rect1430"
       inkscape:connector-curvature="0" />
    <rect
       style="opacity:1;vector-effect:none;fill:#b02a3c;fill-opacity:1;stroke-width:8;paint-order:stroke fill markers"
       id="rect1434"
       width="16"
       height="8"
       x="76"
       y="900.36218" />
    <rect
       style="opacity:1;vector-effect:none;fill:#54688c;fill-opacity:1;stroke-width:8;paint-order:stroke fill markers"
       id="rect1436"
       width="16"
       height="8"
       x="100"
       y="900.36218" />
    <rect
       style="opacity:1;vector-effect:none;fill:#cccccc;fill-opacity:1;stroke-width:8;paint-order:stroke fill markers"
       id="rect1438"
       width="8"
       height="8"
       x="92"
       y="900.36218" />
    <path
       style="opacity:1;vector-effect:none;fill:#cccccc;fill-opacity:1;stroke-width:8;paint-order:stroke fill markers"
       d="m 52,956.36185 v 8 h 8 v -8 z m 8,8 v 8 h 8 v -8 z m 72,-8 v 8 h 8 v -8 z m 0,8 h -8 v 8 h 8 z m -80,16 v 8 h 8 v -8 z m 80,0 v 8 h 8 v -8 z"
       id="rect1472"
       inkscape:connector-curvature="0" />
    <rect
       style="opacity:1;vector-effect:none;fill:#f9de81;fill-opacity:1;stroke-width:11.31370831;paint-order:stroke fill markers"
       id="rect1543"
       width="8"
       height="16"
       x="68"
       y="980.36218" />
    <rect
       style="opacity:1;vector-effect:none;fill:#f9de81;fill-opacity:1;stroke-width:11.31370831;paint-order:stroke fill markers"
       id="rect1545"
       width="8"
       height="16"
       x="116"
       y="980.36218" />
    <rect
       style="opacity:1;vector-effect:none;fill:#c39a54;fill-opacity:1;stroke-width:8;paint-order:stroke fill markers"
       id="rect1547"
       width="8"
       height="8"
       x="68"
       y="988.36218" />
    <rect
       style="opacity:1;vector-effect:none;fill:#c39a54;fill-opacity:1;stroke-width:8;paint-order:stroke fill markers"
       id="rect1549"
       width="8"
       height="8"
       x="116"
       y="988.36218" />
    <rect
       style="opacity:1;vector-effect:none;fill:#a0a5af;fill-opacity:1;stroke-width:8;paint-order:stroke fill markers"
       id="rect1579"
       width="8"
       height="24"
       x="52"
       y="924.36218" />
    <rect
       style="opacity:1;vector-effect:none;fill:#a0a5af;fill-opacity:1;stroke-width:8;paint-order:stroke fill markers"
       id="rect1581"
       width="8"
       height="24"
       x="132"
       y="924.36218" />
    <path
       style="opacity:1;vector-effect:none;fill:#e85e5c;fill-opacity:1;stroke-width:4;paint-order:stroke fill markers"
       d="m 62,84 v 88.5 h 4 V 84 Z m 64,0 v 88.5 h 4 V 84 Z"
       transform="translate(0,860.36216)"
       id="rect1586"
       inkscape:connector-curvature="0"
       sodipodi:nodetypes="cccccccccc" />
  </g>
  <style
     type="text/css"
     id="style853">
	.st0{fill:#FFFFFF;}
</style>
  <style
     type="text/css"
     id="style907">
	.st0{fill:#898989;}
	.st1{fill:#FFFFFF;}
</style>
</svg>
