<svg xmlns="http://www.w3.org/2000/svg" xml:space="preserve" width="192" height="192"><path fill="#9ABEFC" d="M183.268 171.945c0 6.45-5.229 11.678-11.679 11.678H20.256c-6.449 0-11.678-5.228-11.678-11.678V20.613c0-6.45 5.229-11.679 11.678-11.679h151.333c6.45 0 11.679 5.229 11.679 11.679v151.332z"/><g fill="#FFF"><path d="M114.839 103.022c-1.111-1.359-3.169.027-3.169.027a30.798 30.798 0 0 1-15.114 3.941c-17.089 0-30.993-13.903-30.993-30.992V48.11a4.447 4.447 0 1 0-8.895 0v27.889c0 10.654 4.149 20.671 11.683 28.205 7.534 7.533 17.551 11.683 28.205 11.683 7.043 0 13.747-1.919 19.76-5.218 1.6-.878 1.612-2.458 1.118-3.323-.495-.865-1.483-2.965-2.595-4.324zM131.996 43.663a4.447 4.447 0 0 0-4.448 4.448V76c0 .57-.016 1.137-.046 1.7 0 0-.185 2.035.557 2.776s3.397 3.769 4.324 4.571c.927.803 2.777 1.08 3.304-1.251.569-2.526.757-5.148.757-7.796V48.11a4.449 4.449 0 0 0-4.448-4.447z"/><path d="M96.556 77.02c-7.043 0-13.748 1.919-19.759 5.218-1.6.878-1.613 2.458-1.119 3.323.494.865 1.482 2.965 2.595 4.324 1.112 1.359 3.169-.028 3.169-.028a30.798 30.798 0 0 1 15.114-3.941c17.09 0 30.992 13.903 30.992 30.992v27.889a4.447 4.447 0 1 0 8.895 0v-27.889c0-10.654-4.149-20.671-11.683-28.205-7.533-7.535-17.55-11.683-28.204-11.683zM60.729 107.86c-.927-.804-2.778-1.08-3.304 1.251-.57 2.526-.757 5.148-.757 7.796v27.889a4.447 4.447 0 1 0 8.895 0v-27.889c0-.57.016-1.137.046-1.699 0 0 .185-2.035-.557-2.776-.74-.743-3.397-3.769-4.323-4.572z"/></g></svg>