<?xml version="1.0" encoding="utf-8"?>
<!-- Generator: Adobe Illustrator 17.1.0, SVG Export Plug-In . SVG Version: 6.00 Build 0)  -->
<!DOCTYPE svg PUBLIC "-//W3C//DTD SVG 1.1//EN" "http://www.w3.org/Graphics/SVG/1.1/DTD/svg11.dtd">
<svg version="1.1" id="Слой_1" xmlns="http://www.w3.org/2000/svg" xmlns:xlink="http://www.w3.org/1999/xlink" x="0px" y="0px"
	 viewBox="0 0 192 192" enable-background="new 0 0 192 192" xml:space="preserve">
<path fill="#B02A3C" d="M192,151.2c0,22.6-18.3,40.8-40.8,40.8H40.8C18.3,192,0,173.7,0,151.2V40.8C0,18.3,18.3,0,40.8,0h110.3
	C173.7,0,192,18.3,192,40.8V151.2z"/>
<g>
	<path fill="#FFFFFF" d="M117.6,105c-0.5,1.3-0.9,2.7-1.4,4c-1.3,3.9-2.7,7.8-4,11.7c-0.1,0.3-0.3,0.5-0.6,0.5c-1.1,0-2.2,0-3.3,0
		c-0.3,0-0.5-0.1-0.6-0.4c-2.8-8.2-5.7-16.3-8.5-24.5c0-0.1,0-0.1-0.1-0.3c0.2,0,0.4,0,0.6,0c1.4,0,2.9,0,4.3,0
		c0.5,0,0.6,0.2,0.8,0.6c1.7,5.3,3.4,10.6,5.1,15.9c0.1,0.2,0.1,0.3,0.2,0.6c0.2-0.6,0.4-1,0.5-1.5c1.7-5.1,3.3-10.1,5-15.2
		c0.1-0.3,0.3-0.5,0.6-0.4c1.1,0,2.2,0,3.3,0c0.4,0,0.5,0.1,0.6,0.5c1.7,5.3,3.5,10.7,5.3,16c0.1,0.2,0.1,0.3,0.2,0.7
		c0.4-1.3,0.8-2.6,1.2-3.8c1.3-4.2,2.7-8.4,4-12.6c0.2-0.6,0.4-0.8,1-0.8c1.5,0.1,3,0,4.6,0c-0.1,0.3-0.1,0.5-0.2,0.7
		c-2.8,7.9-5.5,15.9-8.3,23.8c-0.2,0.5-0.4,0.8-1,0.7c-1-0.1-2,0-3.1,0c-0.4,0-0.6-0.1-0.7-0.5c-1.7-5-3.5-10-5.2-15
		c-0.1-0.2-0.2-0.4-0.2-0.6C117.7,105,117.7,105,117.6,105z"/>
	<path fill="#FFFFFF" d="M63.9,32.1c1.6,0,3.1,0,4.6,0c0.1,1,0.1,2.1,0.2,3.1c0.7,6,3.1,11.2,7.2,15.6c4.3,4.6,9.5,7.4,15.7,8.4
		c8.4,1.3,15.8-0.9,22.3-6.4c5.1-4.4,8.1-10,9.1-16.6c0.2-1.2,0.2-2.3,0.3-3.5c0-0.4,0.1-0.6,0.6-0.6c1.3,0,2.6,0,4.1,0
		c-0.4,11.2-4.9,20.1-14.1,26.5c-10.6,7.3-24.3,7.5-35,0.6C69.2,52.8,64.4,43.7,63.9,32.1z"/>
	<path fill="#FFFFFF" d="M38,121.1c0-3.4,0-6.7,0-10.1c-3.8,0-7.6,0-11.4,0c0,3.4,0,6.7,0,10.1c-1.7,0-3.4,0-5.1,0
		c0-8.4,0-16.7,0-25.1c1.7,0,3.3,0,5.1,0c0,3.3,0,6.7,0,10.1c3.9,0,7.6,0,11.5,0c0-3.4,0-6.7,0-10.1c1.7,0,3.4,0,5.1,0
		c0,0.2,0,0.4,0,0.5c0,8,0,16,0,24c0,0.5-0.1,0.6-0.6,0.6c-1.3,0-2.6,0-4,0C38.4,121.1,38.2,121.1,38,121.1z"/>
	<path fill="#FFFFFF" d="M159,96c0,1.5,0,3.1,0,4.6c-4.5,0-8.9,0-13.3,0c0,1.7,0,3.3,0,5.1c3.1,0,6.1,0,9.2,0c0,1.6,0,3.1,0,4.7
		c-3.1,0-6.1,0-9.2,0c0,2.1,0,4,0,6.1c0.3,0,0.5,0,0.7,0c4.1,0,8.3,0,12.4,0c0.6,0,0.8,0.1,0.7,0.7c0,1.1,0,2.1,0,3.2
		c0,0.2,0,0.4,0,0.6c-6.3,0-12.6,0-19,0c0-8.3,0-16.7,0-25.1C146.7,96,152.8,96,159,96z"/>
	<path fill="#FFFFFF" d="M55.3,96c0,0.3,0,0.5,0,0.8c0,4.6,0,9.1,0,13.7c0,0.7,0.1,1.5,0.3,2.2c0.7,2.7,2.6,4,5.5,3.9
		c0.7,0,1.4-0.1,2-0.3c2.1-0.7,3.1-2.3,3.4-4.4c0.1-0.7,0.1-1.3,0.1-2c0-4.4,0-8.8,0-13.1c0-0.2,0-0.5,0-0.7c1.7,0,3.4,0,5.1,0
		c0,0.2,0,0.4,0,0.7c0,4.5,0,8.9,0,13.4c0,1.8-0.2,3.6-0.9,5.3c-1.1,2.9-3.2,4.8-6.2,5.7c-2.5,0.7-5.1,0.7-7.7,0
		c-3.7-1.1-5.9-3.6-6.7-7.4c-0.2-1.1-0.3-2.2-0.3-3.3c0-4.6,0-9.1,0-13.7c0-0.5,0.1-0.7,0.7-0.7c1.3,0,2.6,0,3.9,0
		C54.9,96,55,96,55.3,96z"/>
	<path fill="#FFFFFF" d="M74.3,121.1c0.5-1.2,1-2.3,1.5-3.4c3.1-7,6.2-14.1,9.3-21.1c0.2-0.5,0.4-0.7,1-0.6c1.1,0,2.3,0,3.4,0
		c0.3,0,0.5,0.1,0.6,0.4c3.5,8.1,7.1,16.2,10.6,24.3c0.1,0.1,0.1,0.3,0.2,0.5c-0.3,0-0.5,0-0.8,0c-1.3,0-2.7,0-4,0
		c-0.4,0-0.6-0.1-0.8-0.5c-0.6-1.5-1.2-2.9-1.9-4.3c-0.1-0.3-0.3-0.4-0.6-0.4c-3.5,0-7.1,0-10.6,0c-0.3,0-0.5,0.1-0.6,0.4
		c-0.6,1.5-1.3,2.9-1.9,4.4c-0.1,0.3-0.3,0.5-0.7,0.5C77.5,121.1,76,121.1,74.3,121.1z M87.6,102.5c-1.3,3-2.5,5.9-3.8,8.8
		c2.5,0,5,0,7.5,0C90.1,108.3,88.9,105.4,87.6,102.5z"/>
	<path fill="#FFFFFF" d="M170.5,121.1c-1.7,0-3.3,0-5,0c0-8.3,0-16.7,0-25.1c0.2,0,0.3,0,0.5,0c1.3,0,2.7,0,4,0
		c0.4,0,0.6,0.1,0.6,0.5c0,8.1,0,16.1,0,24.2C170.6,120.8,170.6,120.9,170.5,121.1z"/>
</g>
<g>
	<g>
		<path fill="#C7102E" d="M2722,1216.7c0,280,0,560,0,840c-2.7,0.6-1.5,2.9-1.6,4.3c-1.2,24.3-3.2,48.5-6.4,72.6
			c-5.4,41.6-14.2,82.3-29.1,121.6c-28.3,74.7-76.9,131.2-149.6,166c-50,24-103.3,35.8-157.9,42.4c-21.5,2.6-43.1,4.4-64.7,5.4
			c-1.5,0.1-4-1.3-4.8,1.6c-279.7,0-559.3,0-839,0c-0.4-2.8-2.6-1.5-3.9-1.5c-24.6-1.2-49.2-3.2-73.6-6.4
			c-43.4-5.7-85.9-14.9-126.7-31.1c-63.5-25.2-114.3-65.5-148.9-125.1c-30.5-52.6-44.9-110.3-53-169.9c-3.1-22.8-5.2-45.6-6.4-68.6
			c-0.1-1.4,1.1-3.7-1.6-4.3c0-284.7,0-569.3,0-854c2.7-0.6,1.6-2.9,1.7-4.3c1.3-25.1,3.7-50.1,7.3-75c6-41.1,15.3-81.4,31-120
			c25.3-62.1,65.2-111.7,123.7-145.6c52.6-30.5,110.3-44.9,169.9-53.1c23.1-3.2,46.3-5.2,69.6-6.5c1.3-0.1,3.5,1.2,3.9-1.5
			c284.3,0,568.7,0,853,0c0.6,2.7,2.9,1.5,4.3,1.6c23,1.2,45.8,3.3,68.6,6.4c42,5.7,83.2,14.7,122.8,30.3
			c69.2,27.1,122.7,72.1,157.1,138.5c27.2,52.5,40,109.1,47.1,167.3c2.6,21.5,4.4,43.1,5.4,64.7
			C2720.4,1213.8,2719.3,1216.1,2722,1216.7z M2076.8,1712.9c1.2,3.2,2,5.1,2.7,7.1c15.1,43.6,30.3,87.3,45.3,131
			c1.1,3.2,2.4,4.4,5.9,4.3c9.5-0.3,19-0.3,28.5,0c3.5,0.1,4.8-1.2,5.9-4.4c7.4-21.7,15.1-43.3,22.6-65c16.7-48,33.4-96.1,50.2-144
			c1.5-4.3,0.4-4.9-3.6-4.8c-12,0.2-24,0.3-36-0.1c-4.3-0.1-5.6,1.5-6.8,5.1c-12.4,38.9-25,77.9-37.5,116.8
			c-2.8,8.6-5.6,17.1-8.5,25.9c-1.9-1.4-1.9-3-2.4-4.3c-15.4-46.6-30.8-93.1-46-139.7c-1-3.1-2.3-4.2-5.5-4.1
			c-9.2,0.2-18.3,0.3-27.5,0c-3.6-0.1-5.1,1.1-6.2,4.5c-15.2,46.6-30.6,93.2-46.1,139.7c-0.4,1.2-0.3,2.9-2.2,3.7
			c-0.6-1.8-1.2-3.3-1.6-4.8c-14.9-46.2-29.8-92.4-44.5-138.6c-1.1-3.4-2.6-4.2-5.9-4.2c-12.3,0.2-24.7,0.1-37,0.1
			c-5.9,0-5.9,0-4,5.4c6.1,17.6,12.3,35.1,18.4,52.7c18.1,51.9,36.2,103.9,54.2,155.9c1.1,3.3,2.7,4.3,6.1,4.2
			c9.3-0.2,18.7-0.3,28,0c3.5,0.1,4.8-1.2,5.9-4.4c13.2-38.4,26.5-76.6,39.8-115C2071.3,1728.7,2073.9,1721.4,2076.8,1712.9z
			 M1892,1359.9c10.8,0.1,25.6-1,40.2-3.4c62.3-10.4,115.6-38.4,158.6-84.6c48.7-52.2,73.5-114.4,75.1-185.9
			c0.1-3.3-0.9-3.9-3.9-3.8c-10.5,0.1-21,0.2-31.5,0c-3.4-0.1-4.1,1.1-4.2,4.3c-0.4,17-2.5,33.8-6.3,50.4
			c-28,122.6-151.6,203.3-275.5,179.6c-111.3-21.3-192.2-117.1-194.4-230.1c-0.1-3.2-0.7-4.3-4.1-4.3c-10.3,0.2-20.7,0.2-31,0
			c-3.6-0.1-4.4,1.1-4.4,4.5c0.3,15.4,1.7,30.6,4.5,45.7C1639.3,1263.7,1754.3,1359.7,1892,1359.9z M1241,1745.9
			c0,34.8,0.1,69.6-0.1,104.5c0,4,1.1,5,5,4.9c11.5-0.3,23-0.3,34.5,0c4,0.1,4.9-1.2,4.9-5c-0.2-26.3,0-52.7-0.2-79
			c0-3.7,0.9-4.7,4.7-4.7c30.2,0.2,60.3,0.2,90.5,0c4,0,4.9,1,4.9,4.9c-0.2,26.5,0,53-0.2,79.5c0,3.1,0.6,4.4,4,4.3
			c12-0.2,24-0.2,36,0c3.1,0,4.3-0.6,4.3-4.1c-0.1-70.1-0.1-140.3,0-210.4c0-3-0.9-4-3.9-3.9c-11.8,0.2-23.7,0.2-35.5,0
			c-4-0.1-4.9,1.1-4.9,5c0.2,26.2,0,52.3,0.2,78.5c0,3.6-0.6,4.8-4.6,4.8c-30.2-0.2-60.3-0.2-90.5,0c-3.9,0-5-1-5-4.9
			c0.2-26.2,0-52.3,0.2-78.5c0-3.7-0.8-4.9-4.7-4.8c-11.5,0.3-23,0.3-34.5,0c-4.2-0.1-5.2,1-5.2,5.2
			C1241.1,1676.6,1241,1711.2,1241,1745.9z M2274.8,1745.7c0,34.8,0,69.7-0.1,104.5c0,3.5,0.5,4.8,4.5,4.8
			c51.8-0.2,103.7-0.1,155.5,0c3.4,0,5-0.4,4.9-4.5c-0.3-9.5-0.1-19-0.1-28.5c0-7.6,0.8-6.8-6.5-6.8c-36.5,0-73-0.1-109.5,0.1
			c-3.9,0-5.1-0.9-5.1-5c0.2-14.7,0.3-29.3,0-44c-0.1-4.1,1.3-4.9,5-4.9c23.7,0.2,47.3,0,71,0.2c3.8,0,4.7-1,4.6-4.7
			c-0.3-10-0.3-20,0-30c0.1-4.2-0.8-5.6-5.3-5.5c-23,0.3-46,0-69,0.2c-4.8,0.1-6.7-0.8-6.4-6.2c0.5-10.3,0.1-20.7,0.2-31
			c0.1-8.3-1.1-7.3,7-7.3c35,0,70-0.1,105,0.1c3.7,0,4.8-0.8,4.7-4.6c-0.3-10.2-0.3-20.3,0-30.5c0.2-4.4-1.3-5.1-5.3-5.1
			c-50,0.1-100,0.1-150,0c-4.1,0-5.3,0.8-5.3,5.1C2274.9,1676.7,2274.8,1711.2,2274.8,1745.7z M1490.5,1708.7c0,18.2,0,36.3,0,54.5
			c0,9,0.7,18,2.6,26.8c6.4,29.8,22.5,51.6,51.7,62.2c18.8,6.8,38.4,7.7,58.1,4.9c17.3-2.4,33.2-8.4,46.4-20.2
			c19.5-17.4,27.5-40.3,28.5-65.5c1.7-43.5,0.3-87,0.7-130.5c0-3.3-0.9-4.2-4.2-4.2c-12,0.2-24,0.2-36,0c-3.5-0.1-4.5,0.9-4.4,4.4
			c0.3,8.3,0.1,16.7,0.1,25c0,31.8,0,63.7,0,95.5c0,7-0.6,14-2.5,20.8c-6,21.9-20.9,32.8-46,33.7c-24.5,0.9-41.8-11.4-48.1-34.3
			c-1.7-6.1-2.5-12.4-2.5-18.8c0-40.3,0-80.7,0.1-121c0-3.8-0.7-5.2-4.8-5.1c-11.7,0.3-23.3,0.3-35,0c-4.2-0.1-4.9,1.4-4.9,5.1
			C1490.5,1664.4,1490.5,1686.5,1490.5,1708.7z M1907.5,1855.2c4,0,8,0,12,0c12,0,12,0,7.3-10.7c-29.8-68-59.7-136-89.5-204
			c-1.2-2.7-2.5-3.7-5.5-3.7c-10.3,0.2-20.7,0.2-31,0c-3.4-0.1-4.8,1.2-6.2,4.2c-11.3,26.1-22.9,52-34.3,78
			c-19.3,43.8-38.5,87.6-58,131.3c-1.9,4.4-1.1,5.1,3.4,5c11.8-0.3,23.7-0.2,35.5,0c3.6,0.1,5.2-1.2,6.6-4.4
			c5.2-12.4,10.8-24.6,16-37.1c1.3-3,2.7-4.2,6.1-4.2c30.3,0.2,60.6,0.2,91,0c3.5,0,4.8,1.2,6.1,4.2c5.2,12.6,10.8,25,16,37.6
			c1.2,2.9,2.8,4,5.9,3.8C1895.2,1855,1901.4,1855.2,1907.5,1855.2z M2492,1745.7c0,34.8,0.1,69.7-0.1,104.5c0,3.5,0.6,4.9,4.5,4.8
			c11.5-0.3,23-0.3,34.5,0c3.9,0.1,5-0.9,5-4.9c-0.1-69.5-0.1-139,0-208.5c0-3.6-0.7-4.9-4.6-4.8c-11.5,0.3-23,0.3-34.5,0
			c-4-0.1-4.9,1.1-4.9,5C2492,1676.4,2492,1711.1,2492,1745.7z"/>
		<path d="M2308,2470.7c0.8-2.9,3.3-1.5,4.8-1.6c21.6-1,43.2-2.8,64.7-5.4c54.6-6.7,107.9-18.5,157.9-42.4
			c72.6-34.8,121.3-91.2,149.6-166c14.9-39.3,23.6-80,29.1-121.6c3.2-24.1,5.2-48.3,6.4-72.6c0.1-1.4-1.1-3.7,1.6-4.3
			c0,136.5,0,273,0.1,409.5c0,3.7-0.8,4.6-4.6,4.6C2581,2470.7,2444.5,2470.7,2308,2470.7z"/>
		<path d="M1055,2063.7c2.7,0.6,1.5,2.9,1.6,4.3c1.2,23,3.3,45.8,6.4,68.6c8.2,59.6,22.5,117.3,53,169.9
			c34.5,59.6,85.3,99.9,148.9,125.1c40.8,16.2,83.3,25.4,126.7,31.1c24.4,3.2,49,5.2,73.6,6.4c1.3,0.1,3.5-1.2,3.9,1.5
			c-136.6,0-273.2,0-409.8,0.1c-3.6,0-4.4-0.7-4.3-4.3C1055,2332.2,1055,2197.9,1055,2063.7z"/>
		<path d="M2722,1216.7c-2.7-0.6-1.5-2.9-1.6-4.3c-1-21.6-2.8-43.2-5.4-64.7c-7.1-58.2-19.9-114.8-47.1-167.3
			c-34.5-66.5-87.9-111.4-157.1-138.5c-39.6-15.5-80.8-24.6-122.8-30.3c-22.8-3.1-45.7-5.1-68.6-6.4c-1.4-0.1-3.7,1.1-4.3-1.6
			c134.2,0,268.3,0,402.5-0.1c3.7,0,4.6,0.8,4.6,4.6C2722,944.4,2722,1080.5,2722,1216.7z"/>
		<path d="M1462,803.7c-0.4,2.8-2.6,1.5-3.9,1.5c-23.3,1.3-46.5,3.3-69.6,6.5c-59.6,8.2-117.3,22.6-169.9,53.1
			c-58.5,33.9-98.5,83.5-123.7,145.6c-15.7,38.6-25,78.9-31,120c-3.6,24.9-6,49.9-7.3,75c-0.1,1.4,1,3.7-1.7,4.3
			c0-133.9,0-267.8-0.1-401.8c0-3.6,0.7-4.3,4.3-4.3C1193.5,803.7,1327.7,803.7,1462,803.7z"/>
		<path fill="#FEFCFC" d="M2076.8,1712.9c-3,8.5-5.5,15.8-8,23.1c-13.3,38.3-26.6,76.6-39.8,115c-1.1,3.2-2.4,4.5-5.9,4.4
			c-9.3-0.3-18.7-0.3-28,0c-3.4,0.1-4.9-0.9-6.1-4.2c-18-52-36.1-103.9-54.2-155.9c-6.1-17.6-12.3-35.1-18.4-52.7
			c-1.9-5.4-1.9-5.4,4-5.4c12.3,0,24.7,0.1,37-0.1c3.3-0.1,4.8,0.8,5.9,4.2c14.7,46.2,29.7,92.4,44.5,138.6c0.5,1.5,1,3.1,1.6,4.8
			c1.9-0.8,1.8-2.5,2.2-3.7c15.4-46.5,30.8-93.1,46.1-139.7c1.1-3.4,2.6-4.6,6.2-4.5c9.2,0.3,18.3,0.2,27.5,0c3.2-0.1,4.5,1,5.5,4.1
			c15.2,46.6,30.6,93.2,46,139.7c0.4,1.3,0.5,2.9,2.4,4.3c2.9-8.8,5.7-17.4,8.5-25.9c12.5-38.9,25.1-77.8,37.5-116.8
			c1.1-3.6,2.5-5.3,6.8-5.1c12,0.4,24,0.3,36,0.1c4-0.1,5.1,0.5,3.6,4.8c-16.8,48-33.5,96-50.2,144c-7.5,21.7-15.2,43.3-22.6,65
			c-1.1,3.2-2.4,4.5-5.9,4.4c-9.5-0.3-19-0.3-28.5,0c-3.5,0.1-4.8-1.2-5.9-4.3c-15-43.7-30.1-87.3-45.3-131
			C2078.9,1718,2078,1716.1,2076.8,1712.9z"/>
		<path fill="#FEFCFC" d="M1892,1359.9c-137.7-0.2-252.7-96.1-276.8-227.6c-2.8-15.1-4.2-30.3-4.5-45.7c-0.1-3.4,0.8-4.6,4.4-4.5
			c10.3,0.2,20.7,0.2,31,0c3.4-0.1,4.1,1.1,4.1,4.3c2.1,113,83.1,208.8,194.4,230.1c123.9,23.7,247.5-57,275.5-179.6
			c3.8-16.6,5.9-33.4,6.3-50.4c0.1-3.2,0.8-4.3,4.2-4.3c10.5,0.2,21,0.2,31.5,0c2.9,0,3.9,0.5,3.9,3.8
			c-1.6,71.4-26.4,133.6-75.1,185.9c-43.1,46.2-96.3,74.2-158.6,84.6C1917.6,1358.9,1902.8,1360,1892,1359.9z"/>
		<path fill="#FEFCFC" d="M1241,1745.9c0-34.7,0.1-69.3-0.1-104c0-4.2,1.1-5.3,5.2-5.2c11.5,0.3,23,0.3,34.5,0
			c3.8-0.1,4.7,1.1,4.7,4.8c-0.2,26.2,0,52.3-0.2,78.5c0,4,1.1,5,5,4.9c30.2-0.2,60.3-0.2,90.5,0c3.9,0,4.6-1.2,4.6-4.8
			c-0.2-26.2,0-52.3-0.2-78.5c0-3.9,0.9-5.1,4.9-5c11.8,0.3,23.7,0.2,35.5,0c3.1,0,3.9,0.9,3.9,3.9c-0.1,70.1-0.1,140.3,0,210.4
			c0,3.5-1.2,4.1-4.3,4.1c-12-0.1-24-0.2-36,0c-3.4,0.1-4.1-1.2-4-4.3c0.1-26.5,0-53,0.2-79.5c0-3.9-0.9-4.9-4.9-4.9
			c-30.2,0.2-60.3,0.2-90.5,0c-3.8,0-4.7,1-4.7,4.7c0.2,26.3,0,52.7,0.2,79c0,3.9-0.9,5.1-4.9,5c-11.5-0.3-23-0.3-34.5,0
			c-3.9,0.1-5-1-5-4.9C1241,1815.5,1241,1780.7,1241,1745.9z"/>
		<path fill="#FEFCFC" d="M2274.8,1745.7c0-34.5,0.1-69-0.1-103.5c0-4.3,1.2-5.1,5.3-5.1c50,0.1,100,0.1,150,0c4,0,5.5,0.7,5.3,5.1
			c-0.4,10.2-0.3,20.3,0,30.5c0.1,3.8-1,4.7-4.7,4.6c-35-0.1-70-0.1-105-0.1c-8.1,0-7-1.1-7,7.3c-0.1,10.3,0.3,20.7-0.2,31
			c-0.2,5.3,1.6,6.2,6.4,6.2c23-0.2,46,0,69-0.2c4.5-0.1,5.4,1.3,5.3,5.5c-0.3,10-0.3,20,0,30c0.1,3.7-0.8,4.8-4.6,4.7
			c-23.7-0.2-47.3,0-71-0.2c-3.8,0-5.1,0.8-5,4.9c0.3,14.7,0.2,29.3,0,44c-0.1,4,1.2,5,5.1,5c36.5-0.1,73-0.1,109.5-0.1
			c7.4,0,6.5-0.8,6.5,6.8c0,9.5-0.2,19,0.1,28.5c0.2,4.1-1.5,4.5-4.9,4.5c-51.8-0.1-103.7-0.1-155.5,0c-4,0-4.5-1.3-4.5-4.8
			C2274.9,1815.3,2274.8,1780.5,2274.8,1745.7z"/>
		<path fill="#FEFCFC" d="M1490.5,1708.7c0-22.2,0.1-44.3-0.1-66.5c0-3.7,0.7-5.3,4.9-5.1c11.7,0.3,23.3,0.3,35,0
			c4.1-0.1,4.8,1.3,4.8,5.1c-0.1,40.3-0.1,80.7-0.1,121c0,6.4,0.8,12.6,2.5,18.8c6.3,22.9,23.6,35.2,48.1,34.3
			c25-0.9,40-11.8,46-33.7c1.8-6.8,2.5-13.7,2.5-20.8c0-31.8,0-63.7,0-95.5c0-8.3,0.2-16.7-0.1-25c-0.1-3.5,0.9-4.5,4.4-4.4
			c12,0.2,24,0.2,36,0c3.3-0.1,4.3,0.9,4.2,4.2c-0.4,43.5,1,87-0.7,130.5c-1,25.2-9,48-28.5,65.5c-13.2,11.8-29.1,17.8-46.4,20.2
			c-19.8,2.8-39.3,1.9-58.1-4.9c-29.3-10.6-45.4-32.4-51.7-62.2c-1.9-8.8-2.6-17.8-2.6-26.8
			C1490.5,1745,1490.5,1726.9,1490.5,1708.7z"/>
		<path fill="#FEFCFC" d="M1907.5,1855.2c-6.2,0-12.3-0.2-18.5,0.1c-3.2,0.1-4.7-0.9-5.9-3.8c-5.2-12.6-10.8-25-16-37.6
			c-1.3-3-2.6-4.3-6.1-4.2c-30.3,0.2-60.6,0.2-91,0c-3.5,0-4.9,1.2-6.1,4.2c-5.2,12.4-10.8,24.6-16,37.1c-1.3,3.2-2.9,4.5-6.6,4.4
			c-11.8-0.3-23.7-0.3-35.5,0c-4.4,0.1-5.3-0.6-3.4-5c19.4-43.7,38.7-87.5,58-131.3c11.5-26,23-52,34.3-78c1.3-3,2.7-4.3,6.2-4.2
			c10.3,0.3,20.7,0.2,31,0c3-0.1,4.3,1,5.5,3.7c29.8,68,59.7,136,89.5,204c4.7,10.7,4.6,10.7-7.3,10.7
			C1915.5,1855.2,1911.5,1855.2,1907.5,1855.2z M1815.4,1692.7c-10.9,25.6-21.4,50.2-31.9,74.7c-1.2,2.8,0.5,2.7,2.3,2.7
			c19.8,0,39.6,0,59.4,0c2.5,0,3.2-0.7,2.1-3.2C1836.8,1742.6,1826.3,1718.2,1815.4,1692.7z"/>
		<path fill="#FEFCFC" d="M2492,1745.7c0-34.7,0.1-69.3-0.1-104c0-3.9,0.9-5.1,4.9-5c11.5,0.3,23,0.3,34.5,0
			c3.9-0.1,4.6,1.2,4.6,4.8c-0.1,69.5-0.1,139,0,208.5c0,4-1.1,5-5,4.9c-11.5-0.3-23-0.3-34.5,0c-4,0.1-4.5-1.2-4.5-4.8
			C2492,1815.4,2492,1780.5,2492,1745.7z"/>
		<path fill="#C7102E" d="M1815.4,1692.7c10.9,25.5,21.4,49.9,31.9,74.3c1.1,2.6,0.4,3.2-2.1,3.2c-19.8,0-39.6,0-59.4,0
			c-1.8,0-3.5,0-2.3-2.7C1794,1742.9,1804.5,1718.3,1815.4,1692.7z"/>
	</g>
</g>
</svg>
