<svg xmlns="http://www.w3.org/2000/svg" xml:space="preserve" viewBox="0 0 192 192"><path fill="#F8C18C" d="M192 151.2c0 22.6-18.3 40.8-40.8 40.8H40.8C18.3 192 0 173.7 0 151.2V40.8C0 18.3 18.3 0 40.8 0h110.3C173.7 0 192 18.3 192 40.8v110.4z"/><path fill="#FFF" d="M73.4 104.6c.1 0 .1 0-.1 16.9 0 1.8.4 4.3.9 5.3.5.9 2.9 2.9 6.5.8 14.8-8.9 29.9-17.4 45.1-25.7 1.4-.8 3.2-1.6 3.3-3.3 0-1.2-2-2.3-3.3-3C102 81.7 78 68 54.1 54.1c-9.4-5.5-10.1-16.8-1.4-23.2 4.6-3.4 9.6-2.9 14.3-.2 11.2 6.3 22.3 12.7 33.4 19.1 16.6 9.6 33.2 19.3 49.8 28.9 11 6.4 15.5 16.7 11.6 27.3-2.2 6-6.7 9.9-12 12.9-9.2 5.2-18.5 10.2-27.6 15.4-11.1 6.4-22.1 13.1-33.1 19.6-3.7 2.2-4.3 2.8-8.1 4.8-11.2 5.6-27.1 3-32.2-11-1.8-4.8-2-9.9-2-15l.1-42.7c0-3 .4-5.9 2.3-8.5 3.4-4.8 8.1-5.8 13.9-5.4 6.3.4 10.4 4.9 10.5 10.7-.1-.1-.1-.1-.2 17.8 0 0 .1 0 0 0z"/></svg>