<svg xmlns="http://www.w3.org/2000/svg" xml:space="preserve" width="192" height="192" viewBox="0 0 50.8 50.8"><rect width="40.217" height="40.217" x="5.292" y="5.292" rx="2.629" ry="2.629" style="fill:#fff;fill-opacity:1;fill-rule:evenodd;stroke:none;stroke-width:.262854;stroke-opacity:1"/><g transform="matrix(.67223 0 0 .67223 7.746 8.172)"><circle cx="26.609" cy="30.457" r="10.867" style="fill:#99bdfe;fill-opacity:1;stroke-width:3.34881;stroke-linecap:round"/><path d="M26.51 18.022c.127-.11 2.443-4.528 5.456-6.113 3.013-1.584 8.539-1.854 9.444-1.877.905-.023 3.424-.199 3.407-.02-.017.179-1.194 1.786-1.478 2.063-.283.276-2.928 3.354-5.184 4.06-2.256.707-2.765 1.312-11.645 1.887zM7.707 10.063c.127.108 2.466 4.515 5.487 6.084 3.021 1.57 8.548 1.81 9.453 1.83.905.018 3.426.181 3.408.002-.018-.179-1.204-1.78-1.489-2.055-.285-.275-2.945-3.34-5.205-4.034-2.26-.696-2.771-1.298-11.654-1.827z" style="fill:#97db99;fill-opacity:1;stroke-width:2.11667;stroke-linecap:round"/></g></svg>