<svg width="192" height="192" version="1.1" viewBox="0 0 192 192" xmlns="http://www.w3.org/2000/svg">
 <g stroke-width="0">
  <circle cx="96" cy="96" r="88" fill="#728dbe"/>
  <path d="m125.87 127.85c0.096 2.4992-0.80031 4.9675-3.1133 7.248-11.479 11.318-36.169-20.3-43.541-24.445 7.3725-4.1454 32.062-35.766 43.541-24.447 8.2239 8.1087-1.465 18.58-9.9668 24.447 6.1106 4.2169 12.835 10.81 13.08 17.197z" fill="#d2d2d2"/>
  <path d="m66.133 127.85c-0.09602 2.4992 0.80031 4.9675 3.1133 7.248 11.479 11.318 36.169-20.3 43.541-24.445-7.3725-4.1454-32.062-35.766-43.541-24.447-8.2239 8.1087 1.465 18.58 9.9668 24.447-6.1106 4.2169-12.835 10.81-13.08 17.197z" fill="#fff"/>
  <circle transform="rotate(-90)" cx="-68.046" cy="96.049" r="13.577" fill="#fff"/>
 </g>
</svg>
