<?xml version="1.0" encoding="UTF-8" standalone="no"?>
<svg
   xmlns:dc="http://purl.org/dc/elements/1.1/"
   xmlns:cc="http://creativecommons.org/ns#"
   xmlns:rdf="http://www.w3.org/1999/02/22-rdf-syntax-ns#"
   xmlns:svg="http://www.w3.org/2000/svg"
   xmlns="http://www.w3.org/2000/svg"
   xmlns:sodipodi="http://sodipodi.sourceforge.net/DTD/sodipodi-0.dtd"
   xmlns:inkscape="http://www.inkscape.org/namespaces/inkscape"
   inkscape:export-ydpi="96"
   inkscape:export-xdpi="96"
   inkscape:export-filename="/home/jphilippe/inkscape/icônes/delta-github/png/infinity_for_reddit.png"
   width="192"
   height="192"
   viewBox="0 0 192 192"
   id="svg2"
   version="1.1"
   inkscape:version="1.0.1 (3bc2e813f5, 2020-09-07)"
   sodipodi:docname="infinity_for_reddit.svg">
  <sodipodi:namedview
     inkscape:document-rotation="0"
     inkscape:window-maximized="1"
     inkscape:window-y="0"
     inkscape:window-x="36"
     inkscape:window-height="1052"
     inkscape:window-width="1884"
     units="px"
     showgrid="false"
     inkscape:current-layer="layer1"
     inkscape:document-units="px"
     inkscape:cy="85.125192"
     inkscape:cx="66.163914"
     inkscape:zoom="8"
     inkscape:pageshadow="2"
     inkscape:pageopacity="0.0"
     borderopacity="1.0"
     bordercolor="#666666"
     pagecolor="#ffffff"
     id="base"
     inkscape:snap-bbox="false"
     inkscape:object-paths="true"
     inkscape:snap-nodes="true"
     showguides="true"
     inkscape:guide-bbox="true"
     inkscape:snap-object-midpoints="true"
     inkscape:snap-center="true"
     inkscape:snap-global="false"
     inkscape:snap-intersection-paths="true"
     inkscape:snap-smooth-nodes="true"
     inkscape:snap-midpoints="true">
    <inkscape:grid
       type="xygrid"
       id="grid927" />
  </sodipodi:namedview>
  <defs
     id="defs4">
    <inkscape:path-effect
       effect="offset"
       id="path-effect2154"
       is_visible="true"
       lpeversion="1"
       linejoin_type="round"
       unit="mm"
       offset="0.29680783"
       miter_limit="4"
       attempt_force_join="true"
       update_on_knot_move="true" />
  </defs>
  <metadata
     id="metadata7">
    <rdf:RDF>
      <cc:Work
         rdf:about="">
        <dc:format>image/svg+xml</dc:format>
        <dc:type
           rdf:resource="http://purl.org/dc/dcmitype/StillImage" />
        <dc:title />
      </cc:Work>
    </rdf:RDF>
  </metadata>
  <g
     transform="translate(0,-860.36216)"
     id="layer1"
     inkscape:groupmode="layer"
     inkscape:label="Calque 1">
    <circle
       style="fill:#55698c;fill-opacity:1;fill-rule:evenodd;stroke:none;stroke-opacity:1"
       cx="96.000008"
       cy="956.36218"
       r="88"
       id="circle2150" />
    <path
       id="path2152"
       style="color:#000000;font-style:normal;font-variant:normal;font-weight:normal;font-stretch:normal;font-size:medium;line-height:normal;font-family:sans-serif;font-variant-ligatures:normal;font-variant-position:normal;font-variant-caps:normal;font-variant-numeric:normal;font-variant-alternates:normal;font-variant-east-asian:normal;font-feature-settings:normal;font-variation-settings:normal;text-indent:0;text-align:start;text-decoration:none;text-decoration-line:none;text-decoration-style:solid;text-decoration-color:#000000;letter-spacing:normal;word-spacing:normal;text-transform:none;writing-mode:lr-tb;direction:ltr;text-orientation:mixed;dominant-baseline:auto;baseline-shift:baseline;text-anchor:start;white-space:normal;shape-padding:0;shape-margin:0;inline-size:0;clip-rule:nonzero;display:inline;overflow:visible;visibility:visible;isolation:auto;mix-blend-mode:normal;color-interpolation:sRGB;color-interpolation-filters:linearRGB;solid-color:#000000;solid-opacity:1;vector-effect:none;fill:#9abefe;fill-opacity:1;fill-rule:nonzero;stroke:none;stroke-width:1.93857;stroke-linecap:round;stroke-linejoin:round;stroke-miterlimit:4;stroke-dasharray:none;stroke-dashoffset:0;stroke-opacity:1;paint-order:markers fill stroke;color-rendering:auto;image-rendering:auto;shape-rendering:auto;text-rendering:auto;enable-background:accumulate;stop-color:#000000"
       d="m 114.4668,940.6543 c -4.34859,0 -8.71716,1.3476 -12.21875,4.06836 -2.457093,1.90905 -4.810101,4.83357 -6.24805,6.69726 -1.437947,-1.86369 -3.790982,-4.78823 -6.248047,-6.69726 -3.511885,-2.72878 -7.885185,-3.97461 -12.21875,-3.97461 -4.333674,0 -8.705215,1.24609 -12.216797,3.97461 C 61.774668,947.47439 59.5,951.53711 59.5,956.36133 c 0,4.82412 2.274688,8.88683 5.816406,11.63867 6.982939,5.42557 17.452594,5.42558 24.435547,0 2.457073,-1.90914 4.810097,-4.8336 6.248047,-6.69727 1.437951,1.86367 3.790965,4.78812 6.24805,6.69727 6.98294,5.42557 17.45259,5.42558 24.43554,0 3.5417,-2.75184 5.81641,-6.81454 5.81641,-11.63867 0,-4.82422 -2.27471,-8.88696 -5.81641,-11.63867 -3.50144,-2.72063 -7.86802,-4.06836 -12.21679,-4.06836 z m -36.933597,7.35156 c 3.572986,0 7.073103,1.08334 9.597656,3.04492 1.561215,1.21307 3.448476,3.47008 4.923829,5.31055 -1.475469,1.84094 -3.362732,4.09952 -4.923829,5.3125 -5.059531,3.93112 -14.133923,3.93112 -19.193359,0 -2.512311,-1.952 -3.220703,-4.03037 -3.220703,-5.3125 0,-1.28226 0.708105,-3.35833 3.220703,-5.31055 2.524753,-1.96173 6.022512,-3.04492 9.595703,-3.04492 z m 36.933597,0.0918 c 3.59094,0 7.08159,0.99965 9.5957,2.95312 2.51258,1.95221 3.2207,4.0283 3.2207,5.31055 0,1.28225 -0.70836,3.36038 -3.2207,5.3125 -5.05942,3.93111 -14.13384,3.93111 -19.19336,0 -1.5611,-1.21299 -3.44835,-3.47156 -4.923828,-5.3125 1.475358,-1.84047 3.362628,-4.09749 4.923828,-5.31055 2.51393,-1.95331 6.00682,-2.95312 9.59766,-2.95312 z" />
    <path
       style="fill:#fdf5d9;fill-opacity:1;stroke-width:9.5946;stroke-linecap:round;stroke-linejoin:round;stroke-miterlimit:4;stroke-dasharray:none;paint-order:markers fill stroke"
       d="m 124.91454,974.31919 -3.85063,-1.01527 a 1.5482224,1.5482225 29.999999 0 0 -1.48515,0.39793 l -2.82705,2.80463 a 0.51605228,0.51605231 29.999999 0 1 -0.86138,-0.23081 l -1.04599,-3.8424 a 1.5482224,1.5482225 29.999999 0 0 -1.08721,-1.08719 l -3.84238,-1.04607 a 0.51605228,0.51605231 29.999999 0 1 -0.23081,-0.86138 l 2.80463,-2.82706 a 1.5482224,1.5482225 29.999999 0 0 0.39794,-1.48513 l -1.01535,-3.85063 a 0.51605228,0.51605231 29.999999 0 1 0.63058,-0.63057 l 3.85061,1.01535 a 1.5482224,1.5482225 29.999999 0 0 1.48515,-0.39794 l 2.82705,-2.80463 a 0.51605228,0.51605231 29.999999 0 1 0.86139,0.2308 l 1.04598,3.84242 a 1.5482224,1.5482225 29.999999 0 0 1.0872,1.0872 l 3.84241,1.04598 a 0.51605228,0.51605231 29.999999 0 1 0.23081,0.86138 l -2.80459,2.82708 a 1.5482224,1.5482225 29.999999 0 0 -0.39795,1.48514 l 1.01532,3.8506 a 0.51605228,0.51605231 29.999999 0 1 -0.63058,0.63057 z"
       id="path2156" />
    <ellipse
       style="fill:#fdf5d9;fill-opacity:1;stroke-width:40.8214;stroke-linecap:round;stroke-linejoin:round;stroke-miterlimit:4;stroke-dasharray:none;paint-order:markers fill stroke"
       id="circle2164"
       cx="-178.37608"
       cy="930.96497"
       transform="rotate(-15.000007)"
       rx="8.1642981"
       ry="8.1643019" />
  </g>
  <style
     type="text/css"
     id="style853">
	.st0{fill:#FFFFFF;}
</style>
</svg>
