<svg xmlns="http://www.w3.org/2000/svg" id="svg2" width="192" height="192" version="1.1"><g id="layer1" transform="translate(0 -860.362)"><circle id="circle2150" cx="96" cy="956.362" r="88" style="fill:#55698c;fill-opacity:1;fill-rule:evenodd;stroke:none;stroke-opacity:1"/><path id="path2152" d="M117.502 937.387c-5.064 0-10.15 1.572-14.227 4.74-2.86 2.222-5.6 5.625-7.275 7.795-1.675-2.17-4.415-5.573-7.275-7.795-4.09-3.177-9.18-4.633-14.227-4.633-5.046 0-10.138 1.456-14.227 4.633-4.123 3.204-6.773 7.932-6.773 13.549 0 5.617 2.65 10.346 6.773 13.55 8.131 6.318 20.323 6.318 28.454 0 2.86-2.222 5.6-5.626 7.275-7.796 1.675 2.17 4.415 5.574 7.275 7.797 8.131 6.317 20.323 6.317 28.454 0 4.123-3.205 6.773-7.934 6.773-13.551s-2.65-10.345-6.773-13.55c-4.078-3.167-9.163-4.74-14.227-4.74zm-43.004 8.56c4.16 0 8.236 1.26 11.176 3.543 1.817 1.412 4.013 4.043 5.73 6.186-1.717 2.143-3.913 4.773-5.73 6.185-5.891 4.578-16.459 4.578-22.35 0-2.925-2.273-3.748-4.692-3.748-6.185 0-1.494.823-3.913 3.748-6.186 2.94-2.284 7.013-3.543 11.174-3.543zm43.004.108c4.181 0 8.247 1.16 11.174 3.435 2.925 2.273 3.748 4.692 3.748 6.186 0 1.493-.823 3.914-3.748 6.187-5.891 4.578-16.459 4.578-22.35 0-1.817-1.412-4.012-4.044-5.73-6.187 1.718-2.143 3.913-4.774 5.73-6.186 2.927-2.274 6.995-3.435 11.176-3.435z" style="color:#000;font-style:normal;font-variant:normal;font-weight:400;font-stretch:normal;font-size:medium;line-height:normal;font-family:sans-serif;font-variant-ligatures:normal;font-variant-position:normal;font-variant-caps:normal;font-variant-numeric:normal;font-variant-alternates:normal;font-variant-east-asian:normal;font-feature-settings:normal;font-variation-settings:normal;text-indent:0;text-align:start;text-decoration:none;text-decoration-line:none;text-decoration-style:solid;text-decoration-color:#000;letter-spacing:normal;word-spacing:normal;text-transform:none;writing-mode:lr-tb;direction:ltr;text-orientation:mixed;dominant-baseline:auto;baseline-shift:baseline;text-anchor:start;white-space:normal;shape-padding:0;shape-margin:0;inline-size:0;clip-rule:nonzero;display:inline;overflow:visible;visibility:visible;isolation:auto;mix-blend-mode:normal;color-interpolation:sRGB;color-interpolation-filters:linearRGB;solid-color:#000;solid-opacity:1;vector-effect:none;fill:#9abefe;fill-opacity:1;fill-rule:nonzero;stroke:none;stroke-width:2.25724;stroke-linecap:round;stroke-linejoin:round;stroke-miterlimit:4;stroke-dasharray:none;stroke-dashoffset:0;stroke-opacity:1;paint-order:markers fill stroke;color-rendering:auto;image-rendering:auto;shape-rendering:auto;text-rendering:auto;enable-background:accumulate;stop-color:#000"/><path id="path2156" d="m129.668 976.585-4.484-1.182a1.803 1.803 30 0 0-1.73.464l-3.291 3.265a.6.6 30 0 1-1.003-.269l-1.218-4.474a1.803 1.803 30 0 0-1.266-1.265l-4.474-1.219a.6.6 30 0 1-.269-1.003l3.266-3.291a1.803 1.803 30 0 0 .463-1.73l-1.182-4.483a.6.6 30 0 1 .734-.734l4.484 1.182a1.803 1.803 30 0 0 1.73-.463l3.291-3.266a.6.6 30 0 1 1.003.269l1.218 4.474a1.803 1.803 30 0 0 1.266 1.266l4.474 1.217a.6.6 30 0 1 .269 1.003l-3.266 3.292a1.803 1.803 30 0 0-.463 1.73l1.182 4.483a.6.6 30 0 1-.734.734z" style="fill:#fdf5d9;fill-opacity:1;stroke-width:11.1718;stroke-linecap:round;stroke-linejoin:round;stroke-miterlimit:4;stroke-dasharray:none;paint-order:markers fill stroke"/><circle id="circle2164" cx="-182.075" cy="927.4" r="9.506" style="fill:#fdf5d9;fill-opacity:1;stroke-width:47.5318;stroke-linecap:round;stroke-linejoin:round;stroke-miterlimit:4;stroke-dasharray:none;paint-order:markers fill stroke" transform="rotate(-15)"/></g><style id="style853" type="text/css">.st0{fill:#fff}</style></svg>