<?xml version="1.0" encoding="utf-8"?>
<!-- Generator: Adobe Illustrator 16.0.0, SVG Export Plug-In . SVG Version: 6.00 Build 0)  -->
<!DOCTYPE svg PUBLIC "-//W3C//DTD SVG 1.1 Tiny//EN" "http://www.w3.org/Graphics/SVG/1.1/DTD/svg11-tiny.dtd">
<svg version="1.1" baseProfile="tiny" id="Layer_1" xmlns="http://www.w3.org/2000/svg" xmlns:xlink="http://www.w3.org/1999/xlink"
	 x="0px" y="0px" width="192px" height="192px" viewBox="0 0 192 192" xml:space="preserve">
<g>
	<path fill="#C2D182" d="M63.003,104.539c0,0,12.731,4.347,13.663,17.699c0.931,13.352,1.242,13.352-1.552,12.11
		c-2.795-1.242-3.106,3.104,0.31,3.726c3.415,0.621,2.795,9.315,3.727,14.905c0.932,5.589-5.279,3.415-2.484,6.52
		c2.794,3.106,1.242,4.349,1.242,7.143c0,2.796,3.106,4.969,11.179,5.9c8.073,0.932,21.115-4.348,23.599-8.385
		c2.483-4.036-1.553-14.283-0.311-26.394c1.241-12.11,4.968-22.047,8.384-24.221c3.416-2.173,7.764,0.312,7.764-2.173
		s-5.899-1.863-6.832-1.553c-0.932,0.311-1.243-0.932,1.242-4.037c2.483-3.105-22.668-23.599-38.194-18.01
		C69.214,93.36,63.003,104.539,63.003,104.539z"/>
	<g>
		<path fill="#DFEF9E" d="M79.09,158.775c1.847,2.427,1.709,4.267,1.346,6.223c-0.102,0.551-0.198,1.071-0.198,1.644
			c0,1.226,2.395,2.812,9.117,3.586c0.533,0.063,1.115,0.094,1.725,0.094c7.627,0,17.956-4.673,19.625-7.384
			c0.849-1.379,0.406-5.091-0.06-9.021c-0.542-4.557-1.217-10.229-0.585-16.391c1.288-12.555,5.175-23.226,9.451-25.946
			c0.035-0.023,0.07-0.045,0.105-0.066c-0.266-0.236-0.487-0.524-0.648-0.859c-0.686-1.426-0.164-3.239,1.638-5.667
			c-0.869-1.527-4.472-5.204-10.222-8.858c-6.99-4.441-14.191-6.99-19.758-6.99c-1.865,0-3.579,0.277-5.096,0.823
			C75.006,93.75,69.012,100.23,66.481,103.56c4.183,2.217,11.752,7.687,12.508,18.517c0.096,1.371,0.185,2.601,0.265,3.703
			c0.552,7.609,0.666,9.193-0.556,10.507c-0.206,0.221-0.439,0.403-0.696,0.545c2.251,2.035,2.596,6.491,2.933,10.831
			c0.132,1.712,0.27,3.482,0.512,4.935C82.044,156.173,80.418,157.901,79.09,158.775z"/>
	</g>
	<g>
		<path fill="#C2D182" d="M86.912,127.517c-0.789,0-1.458-0.596-1.542-1.388c-1.486-13.968-10.465-25.805-10.555-25.923
			c-0.522-0.681-0.395-1.654,0.285-2.177c0.68-0.522,1.653-0.396,2.176,0.284c0.279,0.36,5,6.573,8.282,15.465
			c0.185-8.899,0.518-20.066,1.06-24.044c0.116-0.849,0.897-1.444,1.749-1.329c0.849,0.116,1.444,0.899,1.329,1.75
			c-0.909,6.657-1.226,35.534-1.228,35.826c-0.009,0.822-0.658,1.495-1.479,1.534C86.962,127.516,86.937,127.517,86.912,127.517z"/>
	</g>
	<g>
		<path fill="#C2D182" d="M99.646,122.238c-0.069,0-0.14-0.005-0.21-0.014c-0.828-0.112-1.42-0.861-1.337-1.694
			c0.036-0.363,0.099-0.733,0.184-1.108c0.521-3.121,2.104-12.754,2.611-17.833c0.085-0.853,0.846-1.478,1.699-1.39
			c0.854,0.085,1.476,0.846,1.391,1.699c-0.242,2.426-0.712,5.791-1.2,9.021c2.699-3.589,5.593-6.388,5.812-6.597
			c0.617-0.596,1.601-0.575,2.194,0.043s0.574,1.602-0.044,2.195c-2.348,2.257-8.302,8.786-9.405,13.399
			c-0.093,0.558-0.152,0.907-0.166,0.986C101.046,121.7,100.393,122.238,99.646,122.238z"/>
	</g>
	<path fill="#69A275" d="M148.699,48.455c-1.742-8.708-10.597-15.335-21.264-15.335c-0.312,0-0.62,0.009-0.929,0.02
		c-3.783-3.995-9.473-6.611-15.885-6.833c-3.923-3.457-9.406-5.608-15.48-5.608c-8.454,0-15.769,4.164-19.309,10.225
		c-7.451,1.128-13.577,5.526-16.29,11.402c-1.002-0.129-2.023-0.202-3.061-0.202c-12.691,0-22.978,9.94-22.978,22.202
		c0,1.681,0.199,3.314,0.565,4.888c-2.817,1.15-5.538,2.977-7.884,5.451c-7.271,7.669-8.179,18.613-2.029,24.443
		c4.219,3.999,10.663,4.553,16.641,2.031c6.744,4.35,17.082,5.542,27.579,2.438c8.976-2.653,16.145-7.88,20.095-13.913
		c3.614,6.808,11.309,12.854,21.198,15.777c15.88,4.692,31.396-0.438,34.655-11.465c0.001-0.005,0.003-0.01,0.004-0.016
		c0.575,0.035,1.153,0.059,1.738,0.059c14.147,0,25.617-10.227,25.617-22.843C171.685,59.355,161.611,49.629,148.699,48.455z"/>
	<g>
		<path fill="#87DCA4" d="M88.472,87.337c0.035,0,0.071,0,0.106,0.002c0.822,0.038,1.564,0.507,1.951,1.234
			c3.462,6.521,10.863,11.991,19.801,14.635c3.691,1.092,7.414,1.644,11.064,1.644c10.492,0,18.611-4.519,20.691-11.517
			c0.002-0.006,0.004-0.013,0.006-0.017c0.302-1.047,1.287-1.745,2.377-1.681c0.615,0.037,1.124,0.054,1.599,0.054
			c12.841,0,23.288-9.203,23.288-20.514c0-10.549-8.971-19.321-20.867-20.404c-1.026-0.093-1.869-0.851-2.072-1.862
			c-1.562-7.801-9.543-13.463-18.98-13.463c-0.283,0-0.563,0.008-0.844,0.019c-0.669,0.027-1.315-0.24-1.776-0.726
			c-3.491-3.688-8.694-5.914-14.274-6.106c-0.539-0.019-1.056-0.224-1.459-0.581c-3.677-3.241-8.628-5.026-13.94-5.026
			c-7.401,0-14.029,3.475-17.299,9.071c-0.355,0.608-0.966,1.022-1.662,1.128c-6.547,0.992-12.112,4.853-14.523,10.076
			c-0.426,0.923-1.401,1.462-2.411,1.333c-0.944-0.122-1.874-0.183-2.764-0.183c-11.386,0-20.65,8.915-20.65,19.873
			c0,1.453,0.17,2.921,0.505,4.36c0.259,1.114-0.329,2.252-1.388,2.684c-2.595,1.06-5.041,2.753-7.074,4.897
			c-6.376,6.725-7.325,16.214-2.117,21.151c2.014,1.909,4.714,2.919,7.807,2.919c2.056,0,4.243-0.464,6.326-1.342
			c0.708-0.301,1.521-0.229,2.167,0.188c3.806,2.455,8.989,3.807,14.596,3.807c3.65,0,7.371-0.553,11.061-1.645
			c8.138-2.405,14.993-7.128,18.807-12.955C86.955,87.731,87.689,87.337,88.472,87.337z"/>
	</g>
	<g>
		<path fill="#69A275" d="M112.997,38c-0.012,0-0.025,0-0.038,0c-0.686,0-1.225-0.549-1.203-1.236
			c0.278-9.206-7.445-11.775-7.523-11.799c-0.653-0.21-1.012-0.899-0.803-1.552c0.211-0.653,0.909-1.007,1.563-0.797
			c0.096,0.031,9.58,3.168,9.244,14.221C114.219,37.51,113.666,38,112.997,38z"/>
	</g>
	<g>
		<path fill="#69A275" d="M141.462,52.683c-0.441,0-0.868-0.236-1.094-0.651c-0.326-0.604-0.103-1.357,0.502-1.684
			c5.338-2.891,10.42-1.615,10.634-1.559c0.664,0.173,1.062,0.852,0.889,1.515c-0.173,0.663-0.85,1.061-1.512,0.889
			c-0.053-0.013-4.387-1.067-8.828,1.338C141.864,52.634,141.662,52.683,141.462,52.683z"/>
	</g>
	<g>
		<path fill="#69A275" d="M38.539,77.407c-0.357,0.023-0.722-0.141-0.963-0.474c-2.946-4.067-3.913-9.726-3.953-9.965
			c-0.113-0.676,0.295-1.317,0.911-1.433c0.614-0.115,1.205,0.339,1.318,1.014l0,0c0.009,0.053,0.91,5.289,3.492,8.853
			c0.391,0.54,0.313,1.32-0.176,1.743C38.981,77.306,38.762,77.393,38.539,77.407z"/>
	</g>
	<g>
		<path fill="#69A275" d="M90.069,91.333c-0.374,0.032-0.759-0.125-1.018-0.454c-0.158-0.202-3.887-5.032-4.793-12.085
			c-0.088-0.681,0.366-1.302,1.014-1.388c0.655-0.08,1.244,0.396,1.332,1.076c0.817,6.356,4.238,10.786,4.272,10.829
			c0.417,0.533,0.346,1.314-0.158,1.748C90.527,91.224,90.3,91.313,90.069,91.333z"/>
	</g>
	<g>
		<path fill="#69A275" d="M109.351,70.756c-2.479,0-4.968-0.305-7.403-0.937c-10.104-2.617-16.862-10.133-18.545-20.622
			c-0.108-0.677,0.353-1.314,1.03-1.423c0.676-0.108,1.314,0.353,1.423,1.03c1.518,9.468,7.61,16.251,16.713,18.609
			c10.587,2.745,22.265-1.222,29.056-9.865c0.424-0.54,1.205-0.633,1.744-0.209c0.539,0.424,0.633,1.205,0.209,1.744
			C127.749,66.503,118.608,70.756,109.351,70.756z"/>
	</g>
	<g>
		<path fill="#69A275" d="M37.229,102.364c-0.614,0-1.146-0.453-1.229-1.077c-0.09-0.678,0.382-1.3,1.058-1.394
			c0.186-0.029,4.13-0.695,7.158-6.201c0.331-0.601,1.086-0.82,1.687-0.49c0.601,0.331,0.82,1.086,0.49,1.687
			c-3.676,6.684-8.783,7.437-8.998,7.464C37.34,102.361,37.284,102.364,37.229,102.364z"/>
	</g>
	<g>
		<path fill="#69A275" d="M146.551,94.05c-0.058,0.01-0.115,0.017-0.177,0.02c-0.294,0.017-7.251,0.353-10.459-3.562
			c-0.403-0.492-0.284-1.207,0.268-1.593s1.327-0.3,1.73,0.192c2.451,2.991,8.338,2.702,8.396,2.699
			c0.684-0.038,1.253,0.439,1.271,1.064C147.596,93.441,147.148,93.938,146.551,94.05z"/>
	</g>
	<g>
		<path fill="#69A275" d="M89.288,61.267c-0.361,0-0.718-0.156-0.964-0.458l0,0c-0.303-0.371-7.602-9.029-21.455-4.268
			c-0.648,0.222-1.356-0.122-1.579-0.771c-0.223-0.649,0.122-1.355,0.771-1.579c8.092-2.782,14.218-1.286,17.932,0.458
			c4.054,1.904,6.171,4.484,6.259,4.593c0.431,0.533,0.35,1.316-0.184,1.747C89.837,61.176,89.562,61.267,89.288,61.267z"/>
	</g>
</g>
</svg>
