<svg xmlns="http://www.w3.org/2000/svg" viewBox="0 0 192 192"><title>iRobot</title><rect x="19.5" y="19.5" width="153" height="153" rx="10" fill="#98dc9a"/><path d="M132,84.31c2.3-10.73-3.88-22.12-17.45-22.12H93.43L89.92,78.67h15.93a4.59,4.59,0,0,1,4.61,5.88,7.56,7.56,0,0,1-7.15,5.81H87.19l21.63,40h22.66l-14.6-26.85c3.82-2.12,12.72-8,15.15-19.2" fill="#fff"/><path d="M63.26,112.72,59.5,130.36H78.77l8.42-40c-11.69.43-21,8.25-23.93,22.36" fill="#fff"/><path d="M75.92,79.7a9,9,0,1,0-9.09-9,9.06,9.06,0,0,0,9.09,9" fill="#fff"/></svg>