<?xml version="1.0" encoding="utf-8"?>
<!-- Generator: Adobe Illustrator 16.0.0, SVG Export Plug-In . SVG Version: 6.00 Build 0)  -->
<!DOCTYPE svg PUBLIC "-//W3C//DTD SVG 1.1 Tiny//EN" "http://www.w3.org/Graphics/SVG/1.1/DTD/svg11-tiny.dtd">
<svg version="1.1" baseProfile="tiny" id="Layer_1" xmlns="http://www.w3.org/2000/svg" xmlns:xlink="http://www.w3.org/1999/xlink"
	 x="0px" y="0px" width="192px" height="192px" viewBox="0 0 192 192" xml:space="preserve">
<g>
	<g>
		<path fill="#9ABEFC" d="M172,162.041c0,6.053-4.906,10.959-10.959,10.959H29.959C23.906,173,19,168.094,19,162.041V30.959
			C19,24.906,23.906,20,29.959,20h131.082C167.094,20,172,24.906,172,30.959V162.041z"/>
	</g>
	<g>
		<g>
			<path fill="#D8D8D8" d="M107.021,94.803c6.292,9.134-0.085,17.959-0.085,17.959l-23.81,31.795
				c-18.058,22.146-35.881,4.158-35.881,4.158l-3.178-3.61c0,0-15.274-20.197,9.211-34.928c0,0,34.924-19.362,34.97-19.388
				c3.464-1.92,8.491-2.253,12.152-0.917C103.296,90.932,105.275,92.271,107.021,94.803z"/>
			<circle fill="#E5E5E5" cx="64.141" cy="130.303" r="15.268"/>
			<g>
				<path fill="#C8CACC" d="M74.734,122.344c4.389,5.842,3.207,14.164-2.635,18.553c-5.841,4.389-14.164,3.207-18.553-2.634
					c-4.389-5.842-3.207-14.165,2.635-18.554S70.346,116.502,74.734,122.344z M54.108,137.841c4.156,5.531,12.038,6.651,17.57,2.495
					c5.532-4.156,6.651-12.038,2.495-17.57c-4.156-5.532-12.038-6.651-17.57-2.495C51.071,124.427,49.952,132.309,54.108,137.841z"
					/>
			</g>
		</g>
		<g>
			<path fill="#C0DDFF" d="M108.236,109.957c-4.882,9.959-15.701,8.722-15.701,8.722l-39.381-5.19
				c-28.152-4.898-21.198-29.247-21.198-29.247l1.592-4.539c0,0,10.129-23.208,34.963-9.074c0,0,33.985,20.967,34.029,20.995
				c3.37,2.08,6.122,6.299,6.75,10.146C109.787,104.813,109.589,107.194,108.236,109.957z"/>
			<circle fill="#DEEFFF" cx="56.285" cy="89.956" r="15.268"/>
			<g>
				<path fill="#C0DDFF" d="M68.413,95.295c-2.943,6.688-10.779,9.732-17.467,6.788c-6.687-2.943-9.732-10.779-6.788-17.466
					c2.943-6.688,10.779-9.733,17.466-6.789S71.356,88.607,68.413,95.295z"/>
			</g>
		</g>
		<g>
			<path fill="#87DCA4" d="M92.536,118.313c-10.968-1.65-13.051-12.339-13.051-12.339l-6.93-39.112
				C68.735,38.543,94.047,37.83,94.047,37.83l4.808,0.148c0,0,25.183,2.657,19.197,30.599c0,0-9.742,38.726-9.754,38.776
				c-0.967,3.841-4.16,7.738-7.638,9.497C97.907,118.241,95.578,118.77,92.536,118.313z"/>
			<circle fill="#9EEFB7" cx="95.937" cy="62.749" r="15.269"/>
			<g>
				<path fill="#87DCA4" d="M94.504,75.922c-7.264-0.79-12.53-7.342-11.74-14.605c0.79-7.264,7.342-12.531,14.605-11.741
					c7.264,0.79,12.531,7.342,11.74,14.605C108.32,71.445,101.768,76.711,94.504,75.922z"/>
			</g>
		</g>
		<g>
			<path fill="#FF877F" d="M80.378,105.968c-1.811-10.942,7.715-16.219,7.715-16.219L123.165,71.1
				c25.762-12.364,34.242,11.496,34.242,11.496l1.342,4.62c0,0,5.234,24.774-23.19,27.694c0,0-39.844,2.67-39.896,2.674
				c-3.952,0.266-8.643-1.571-11.388-4.339C82.102,111.055,80.88,109.003,80.378,105.968z"/>
			<circle fill="#FFA6A6" cx="134.285" cy="92.075" r="15.269"/>
			<g>
				<path fill="#FF877F" d="M121.312,94.772c-1.487-7.153,3.121-14.183,10.275-15.671c7.153-1.487,14.184,3.122,15.671,10.275
					c1.488,7.154-3.122,14.184-10.275,15.671C129.829,106.536,122.8,101.926,121.312,94.772z"/>
			</g>
		</g>
		<g>
			<path fill="#56595B" d="M84.374,92.848c8.227-7.439,17.815-2.279,17.815-2.279l34.65,19.421
				c24.329,14.987,8.843,35.022,8.843,35.022l-3.161,3.626c0,0-18.012,17.798-35.836-4.536c0,0-23.788-32.074-23.819-32.115
				c-2.36-3.183-3.351-8.121-2.507-11.927C81.026,97.049,82.093,94.911,84.374,92.848z"/>
			<circle fill="#B1B5BC" cx="125.206" cy="130.685" r="15.269"/>
			<g>
				<path fill="#56595B" d="M115.922,121.229c5.215-5.118,13.62-5.041,18.738,0.172c5.119,5.213,5.043,13.62-0.171,18.738
					c-5.213,5.119-13.619,5.042-18.738-0.171C110.632,134.755,110.709,126.349,115.922,121.229z M133.997,139.639
					c4.938-4.848,5.011-12.808,0.163-17.745c-4.849-4.938-12.809-5.011-17.746-0.162c-4.937,4.848-5.01,12.808-0.162,17.745
					S129.061,144.486,133.997,139.639z"/>
			</g>
			<circle fill="#B1B5BC" cx="94.428" cy="103.347" r="11.163"/>
			<circle fill="#99BEF9" cx="94.427" cy="103.347" r="9.057"/>
		</g>
	</g>
</g>
</svg>
