<svg xmlns="http://www.w3.org/2000/svg" xml:space="preserve" viewBox="0 0 192 192"><rect width="152" height="152" x="20" y="20" fill="#56595b" class="a" rx="10"/><path fill="#fff" fill-rule="evenodd" d="M112.78 86.492a9.142 9.142 0 0 1-9.14 9.14.457.457 0 0 1-.458-.456v-.457a.457.457 0 0 1 .457-.457 7.77 7.77 0 0 0 7.77-7.77.457.457 0 0 1 .457-.457h.457a.457.457 0 0 1 .456.457zm-2.742 0a6.4 6.4 0 0 1-6.399 6.399.457.457 0 0 1-.457-.457v-.457a.457.457 0 0 1 .457-.458 5.028 5.028 0 0 0 5.028-5.027.457.457 0 0 1 .457-.457h.456a.457.457 0 0 1 .457.457zm-2.752.01a3.656 3.656 0 0 1-3.656 3.656.457.457 0 0 1-.458-.457v-.457a.457.457 0 0 1 .458-.457 2.285 2.285 0 0 0 2.285-2.286.457.457 0 0 1 .457-.456h.457a.457.457 0 0 1 .456.456zm-2.742 0a.914.914 0 0 1-.914.914.457.457 0 0 1-.458-.457v-.457a.457.457 0 0 1 .458-.457h.456a.457.457 0 0 1 .457.456z" clip-rule="evenodd"/><rect width="59.063" height="36.503" x="-29.532" y="117.51" fill="none" stroke="#fff" stroke-linecap="round" stroke-linejoin="round" stroke-width="6" rx="7.826" ry="8.701" transform="rotate(-45)"/></svg>