<svg xmlns="http://www.w3.org/2000/svg" xml:space="preserve" id="svg23" version="1.1" viewBox="0 0 192 192"><defs id="defs11"><style id="style9">.cls-2{fill:url(#linear-gradient)}.cls-3{fill:#fff}</style></defs><g id="iwant_icon" data-name="iwant icon" transform="matrix(.39336 0 0 .39336 20 20)"><rect id="rect170" width="386.41" height="386.41" x="0" y="0" class="cls-2" rx="31.516" ry="31.402" style="fill:#54688c;fill-opacity:1"/></g><path id="path173" d="m131.954 67.51-6.457 24.732a10.922 10.961 0 0 1-10.563 8.174 10.922 10.961 0 0 1-10.566-8.174L97.887 67.51A6.324 6.347 0 0 1 104 59.55h.113a6.318 6.34 0 0 1 6.114 4.735l4.751 18.157 4.752-18.157a6.324 6.347 0 0 1 6.117-4.735 6.32 6.344 0 0 1 6.107 7.96zM93.959 82.442l-4.752-18.157a6.32 6.344 0 0 0-6.113-4.735h-.107a6.32 6.344 0 0 0-6.113 7.96l6.484 24.732a10.922 10.961 0 0 0 10.563 8.174 10.925 10.964 0 0 0 8.919-4.633L96.6 72.409Zm-21.425-16.57a6.35 6.372 0 1 1-6.35-6.372 6.35 6.372 0 0 1 6.35 6.372zM64.087 82.68l2.478 9.468a11.007 11.046 0 0 0 10.692 8.24h.472a3.145 3.156 0 0 0 3.035-3.966l-4.437-16.965a6.324 6.347 0 0 0-6.117-4.734 6.324 6.347 0 0 0-6.123 7.957z" class="cls-3" style="fill:#fff;stroke-width:.315042"/><path id="path175" d="M102.104 112.725c.11-.237.6-1.114-3.922-1.657-3.54-.423-4.276 1.06-4.43 1.723l-.016.187a.925.928 0 0 0 0 .132c-.183 1.026-.396 2.26-.63 3.57.435-.05.828-.104 1.155-.164a23.52 23.605 0 0 1 4.82-.407 14.299 14.351 0 0 1 3.296.441 3.384 3.396 0 0 1 .994.389l-5.154 6.138a15.99 16.049 0 0 0-5.83-2.525l-1.236 7.026c-.186 1.067-.356 2.31.27 2.976.44.467 1.573.616 2.202.663l-.114.631H80.57l.116-.631c.654-.047 1.84-.196 2.447-.663.858-.666 1.129-1.91 1.314-2.976.085-.48.711-4.03 1.371-7.79a133.952 133.952 0 0 0-2.635-.205l2.283-2.389.815-.038c.292-1.676.572-3.257.786-4.478.468-3.084.18-4.419.18-4.419h21.298l-.122.947c-3.114 1.221-6.05 4.864-6.05 4.864l-.74-.777a2.516 2.525 0 0 0 .472-.568zm23.815 12.356c-1.598 1.86-5.24 5.19-10.88 5.19-7.825 0-7.36-8.207-6.998-10.268.362-2.06 2.201-9.677 10.503-9.677 8.303 0 8.284 5.593 8.284 5.593h1.047l4.29-8.023h-.944a3.686 3.699 0 0 1-1.343.893 3.896 3.91 0 0 1-1.365.275 14.62 14.673 0 0 1-1.836-.227 24.016 24.016 0 0 1-1.84-.347 21.504 21.582 0 0 0-5-.597c-3.088 0-6.365.464-8.431 1.42a21.67 21.749 0 0 0-3.793 2.292c-1.474 1.098-2.676 2.004-4.088 4.276a24.272 24.272 0 0 1 2.208.679c-.371.416-1.698 1.83-2.466 2.761-.943 1.12-1.547 1.954-1.547 1.954a16.107 16.166 0 0 0 0 1.982c.135 2.162.925 3.788 2.654 5.577q3.711 3.664 11.06 3.664a19.677 19.748 0 0 0 8.664-1.893c1.478-.717 2.201-1.332 2.994-1.774l-.192-.663zm-57.781-16.743s-4.824.398-4.176-3.292h-1.044l-3.082 5.912h9.54c-.527 3.02-2.757 15.702-2.92 16.639-.19 1.067-.457 2.31-1.318 2.976-.604.467-1.793.616-2.447.663l-.113.631H75.53l.113-.631c-.629-.047-1.777-.196-2.201-.663-.629-.666-.46-1.91-.274-2.976l2.925-16.64h.843s5.635-.397 4.987 3.293h1.088l.242-.436 2.83-5.476z" class="cls-3" style="stroke-width:.315042"/><g id="g442" transform="translate(1.692 -186.254)"><circle id="circle17" cx="96" cy="96" r="36.5" style="fill:none;stroke:#b1b5bd;stroke-linecap:round;stroke-linejoin:round;isolation:isolate;opacity:.63"/><g id="Layer_3" data-name="Layer 3" transform="translate(-171.474 -127.003)"><g id="iwant_icon-2" data-name="iwant icon" transform="matrix(.3173 0 0 .31845 205.95 161.455)"><rect id="rect170-9" width="386.41" height="386.41" x="0" y="0" class="cls-2" rx="88.08" style="fill:#54688c;fill-opacity:1"/></g><path id="path173-1" d="m303.528 194.236-6.514 24.954a11.02 11.06 0 0 1-10.658 8.247 11.02 11.06 0 0 1-10.661-8.247l-6.54-24.954a6.38 6.404 0 0 1 6.169-8.031h.114a6.374 6.398 0 0 1 6.168 4.777l4.795 18.32 4.794-18.32a6.38 6.404 0 0 1 6.171-4.777 6.378 6.4 0 0 1 6.162 8.031zm-38.335 15.066-4.795-18.32a6.378 6.4 0 0 0-6.168-4.777h-.108a6.378 6.4 0 0 0-6.168 8.031l6.543 24.954a11.02 11.06 0 0 0 10.657 8.247 11.023 11.063 0 0 0 8.999-4.674l-6.295-23.585zm-21.618-16.719a6.406 6.43 0 1 1-6.406-6.43 6.406 6.43 0 0 1 6.406 6.43zm-8.522 16.958 2.5 9.553a11.105 11.146 0 0 0 10.788 8.315h.476a3.173 3.184 0 0 0 3.062-4.003l-4.477-17.117a6.38 6.404 0 0 0-6.172-4.776 6.38 6.404 0 0 0-6.177 8.028z" class="cls-3" style="fill:#fff;stroke-width:.317871"/><path id="path175-2" d="M273.41 239.857c.112-.239.607-1.124-3.956-1.672-3.573-.427-4.315 1.07-4.47 1.739l-.017.188a.933.936 0 0 0 0 .133c-.184 1.035-.4 2.28-.634 3.602.437-.05.834-.105 1.164-.165a23.73 23.817 0 0 1 4.864-.411 14.427 14.48 0 0 1 3.325.446 3.414 3.426 0 0 1 1.003.391l-5.2 6.194a16.134 16.193 0 0 0-5.883-2.548l-1.247 7.09c-.187 1.075-.358 2.33.273 3.002.444.471 1.586.621 2.221.669l-.114.637h-13.057l.117-.637c.66-.048 1.857-.198 2.469-.669.866-.672 1.14-1.927 1.326-3.003.086-.484.717-4.066 1.384-7.86a135.21 135.21 0 0 0-2.66-.206l2.304-2.41.822-.04c.295-1.69.578-3.285.793-4.518.473-3.111.181-4.458.181-4.458h21.49l-.123.955c-3.141 1.233-6.105 4.907-6.105 4.907l-.746-.783a2.538 2.548 0 0 0 .476-.573zm24.03 12.467c-1.613 1.876-5.287 5.235-10.98 5.235-7.893 0-7.424-8.28-7.059-10.359.365-2.08 2.221-9.763 10.598-9.763 8.376 0 8.357 5.643 8.357 5.643h1.057l4.328-8.095h-.952a3.719 3.732 0 0 1-1.355.9 3.931 3.946 0 0 1-1.377.278 14.751 14.805 0 0 1-1.853-.23c-.635-.095-1.25-.21-1.856-.35a21.697 21.775 0 0 0-5.045-.601c-3.116 0-6.422.468-8.507 1.433a21.865 21.944 0 0 0-3.827 2.311c-1.488 1.109-2.7 2.023-4.124 4.315a24.488 24.488 0 0 1 2.227.685c-.374.42-1.713 1.847-2.488 2.787-.951 1.13-1.56 1.97-1.56 1.97a16.252 16.31 0 0 0 0 2c.136 2.182.932 3.822 2.677 5.628q3.744 3.697 11.16 3.697a19.853 19.925 0 0 0 8.741-1.911c1.491-.723 2.221-1.344 3.02-1.79l-.193-.668zm-58.3-16.893s-4.868.4-4.214-3.322h-1.054l-3.11 5.965h9.628c-.534 3.047-2.783 15.842-2.948 16.788-.19 1.077-.46 2.331-1.33 3.003-.609.471-1.808.621-2.468.669l-.114.637h13.069l.114-.637c-.634-.048-1.792-.198-2.22-.669-.635-.672-.464-1.926-.277-3.003l2.951-16.788h.85s5.686-.402 5.033 3.321h1.097l.245-.44 2.855-5.524z" class="cls-3" style="stroke-width:.317871"/></g></g></svg>