<?xml version="1.0" encoding="utf-8"?>
<!-- Generator: Adobe Illustrator 17.1.0, SVG Export Plug-In . SVG Version: 6.00 Build 0)  -->
<!DOCTYPE svg PUBLIC "-//W3C//DTD SVG 1.1//EN" "http://www.w3.org/Graphics/SVG/1.1/DTD/svg11.dtd">
<svg version="1.1" id="Слой_1" xmlns="http://www.w3.org/2000/svg" xmlns:xlink="http://www.w3.org/1999/xlink" x="0px" y="0px"
	 viewBox="0 0 192 192" enable-background="new 0 0 192 192" xml:space="preserve">
<rect x="0" fill="#B1B5BD" width="192" height="192"/>
<g>
	<path fill="#FFFFFF" d="M11.4,149.3c1.7-2.5,3.1-4.6,4.5-6.7c15.8-23.1,31.6-46.1,47.3-69.2c0.7-1,1.3-1.3,2.5-1.3
		c11.7,0,23.4,0,35,0c0.5,0,1.2-0.3,1.5,0.2c0.3,0.5-0.4,0.9-0.7,1.3C84.7,98.5,67.7,123.2,50.9,148c-0.6,0.9-1.3,1.3-2.4,1.3
		c-11.7,0-23.4,0-35,0C12.8,149.3,12.3,149.3,11.4,149.3z M91.6,78.1C91,78,90.8,78,90.6,78c-7.5,0-14.9,0-22.4,0
		c-0.8,0-1.2,0.4-1.6,1C52.2,100,37.8,121,23.4,142c-0.2,0.4-0.8,0.7-0.5,1.2c0.2,0.4,0.8,0.2,1.2,0.2c7,0,14.1,0,21.1,0
		c1.2,0,1.9-0.4,2.6-1.4c11.4-16.8,22.9-33.5,34.4-50.3C85.3,87.3,88.4,82.8,91.6,78.1z"/>
	<path fill="#FFFFFF" d="M85.1,61.6C71.5,61.6,60,51,59.2,37.9C58.3,24,67.8,12.1,81.5,10.3c7.8-1.1,14.7,1.2,20.7,6.3
		c0.8,0.7,1,1.2,0.1,2c-1.2,1.1-2.3,2.3-3.3,3.5c-0.7,0.8-1.2,0.7-1.9,0.1C91,17.1,84.2,16,77,19.4c-8.6,4-12.6,14.3-9.2,23.1
		c3.5,9,13.3,13.7,22.5,10.8c1.7-0.5,2.4-0.3,2.8,1.4c0.3,1.3,0.9,2.6,1.5,3.9c0.4,0.8,0.2,1.3-0.7,1.5c-1.3,0.3-2.6,0.8-4,1.1
		C88.3,61.5,86.6,61.7,85.1,61.6z"/>
	<path fill="#FFFFFF" d="M180.5,29.9h-37.2c-0.1,0-0.1,0.1-0.2,0.1c-1.7,1-2.5,3.2-3.7,4.9c-1.7,2.4-3.4,4.9-5.3,7.6
		c-1.1-4.1-2.2-7.8-3.2-11.5c-0.1-0.6-0.4-0.9-0.7-1.1H95c-0.3,0.2-0.2,0.7,0,1.3c4.6,15.7,9.1,31.4,13.7,47.1
		c0.3,1.2,0.2,2.1-0.5,3.1c-10.1,14.7-20.1,29.4-30.2,44.1c-12.4,18.1-24.8,36.2-37.1,54.2c-0.4,0.6-1,1.2-1.2,2.1
		c0.3,0,0.5,0.1,0.7,0.1c12.4,0,24.9,0,37.3,0c0.9,0,1.3-0.4,1.8-1.1c12.2-18.4,24.5-36.8,36.8-55.3c1.5-2.2,2.9-4.4,4.4-6.6
		c0.5,0.4,0.5,0.9,0.6,1.3c2.6,9.3,5.2,18.6,7.8,27.9c0.2,0.8,0.4,1.5,1.6,1.5c11.1-0.1,22.3,0,33.4,0c1.1,0,1.5-0.3,1-1.4
		c-0.1-0.2-0.1-0.5-0.2-0.8c-6.2-21.4-12.5-42.9-18.7-64.3c-0.4-1.4-0.3-2.4,0.6-3.7c11.1-16.1,22.1-32.3,33.2-48.4
		C180.2,30.7,180.8,30.4,180.5,29.9C180.5,29.9,180.5,29.9,180.5,29.9z M168.9,36.9c-9.2,13.5-18.4,27-27.7,40.4
		c-1.4,2-1.8,3.7-1.1,6.1c5.8,19.5,11.4,39.1,17.1,58.6c0.5,1.8,0.5,1.8-1.3,1.8c-6.8,0-13.5,0-20.3,0c-1.3,0-1.8-0.5-2.1-1.7
		c-3.2-11.7-6.5-23.3-9.8-34.9c-0.2-0.6-0.3-1.1-0.6-2c-3.6,5.4-7,10.5-10.4,15.6c-12.1,18.1-24.2,36.2-36.2,54.3
		c-0.5,0.8-1.1,1.1-2.1,1.1c-7.4,0-14.7,0-22.1,0c-0.4,0-1.1,0.3-1.3-0.2c-0.2-0.5,0.3-0.8,0.6-1.2c10.6-15.5,21.2-31.1,31.9-46.6
		c10.5-15.3,20.9-30.6,31.4-45.9c0.6-0.8,0.6-1.6,0.3-2.5c-4.1-14.1-8.2-28.1-12.3-42.2c-0.6-1.9-0.5-1.9,1.4-1.9c6.7,0,13.3,0,20,0
		c1.5,0,2,0.5,2.4,1.8c1.5,5.8,3.2,11.6,4.8,17.4c0.1,0.3,0.2,0.7,0.5,1.3c2-2.9,3.9-5.7,5.8-8.4c2.5-3.6,5-7.2,7.4-10.8
		c0.6-0.8,1.1-1.2,2.2-1.2c6.9,0,13.9,0,20.8,0c0.4,0,1-0.2,1.2,0.2C169.7,36.2,169.2,36.6,168.9,36.9z"/>
</g>
</svg>
