<svg xmlns="http://www.w3.org/2000/svg" viewBox="0 0 192 192"><rect x="19.5" y="19.5" width="153" height="153" rx="10" style="fill:#bd9aff"/><path d="M66,75.38V52.84A1.84,1.84,0,0,0,64.17,51H61.84A1.84,1.84,0,0,0,60,52.84V75.38a12,12,0,0,0,0,23.24v40.54A1.84,1.84,0,0,0,61.84,141h2.33A1.84,1.84,0,0,0,66,139.16V98.62a12,12,0,0,0,0-23.24ZM63,93a6,6,0,1,1,6-6A6,6,0,0,1,63,93Z" style="fill:#56595b"/><path d="M99,102.38V52.84A1.84,1.84,0,0,0,97.16,51H94.84A1.84,1.84,0,0,0,93,52.84v49.54a12,12,0,0,0,0,23.24v13.54A1.84,1.84,0,0,0,94.84,141h2.32A1.84,1.84,0,0,0,99,139.16V125.62a12,12,0,0,0,0-23.24ZM96,120a6,6,0,1,1,6-6A6,6,0,0,1,96,120Z" style="fill:#56595b"/><path d="M132,63.38V52.84A1.84,1.84,0,0,0,130.16,51h-2.33A1.84,1.84,0,0,0,126,52.84V63.38a12,12,0,0,0,0,23.24v52.54a1.84,1.84,0,0,0,1.83,1.84h2.33a1.84,1.84,0,0,0,1.84-1.84V86.62a12,12,0,0,0,0-23.24ZM129,81a6,6,0,1,1,6-6A6,6,0,0,1,129,81Z" style="fill:#56595b"/></svg>