<?xml version="1.0" encoding="utf-8"?>
<!-- Generator: Adobe Illustrator 17.1.0, SVG Export Plug-In . SVG Version: 6.00 Build 0)  -->
<!DOCTYPE svg PUBLIC "-//W3C//DTD SVG 1.1//EN" "http://www.w3.org/Graphics/SVG/1.1/DTD/svg11.dtd">
<svg version="1.1" id="Слой_1" xmlns="http://www.w3.org/2000/svg" xmlns:xlink="http://www.w3.org/1999/xlink" x="0px" y="0px"
	 viewBox="0 0 192 192" enable-background="new 0 0 192 192" xml:space="preserve">
<path fill="#00DF93" d="M87.2,91.8c27.6,0,55.1,0,82.7,0c6.9,0,12.6,2.4,17.1,7.6c2.2,2.5,3.5,5.5,4.4,8.7c0.8,2.8,0.8,5.6,0.4,8.2
	c-0.5,3.2-1.7,6.2-3.7,8.9c-2.6,3.6-6,6.2-10.2,7.8c-2.5,0.9-5.1,1.3-7.8,1.3c-2.8,0-5.6,0-8.5,0c-0.9,0-1.4,0.3-1.7,1.1
	c-2.5,5.4-5.5,10.6-8.9,15.5c-3.5,5-7.5,9.7-12,13.9c-6.3,5.9-13.3,10.8-21.1,14.6c-5.7,2.7-11.6,4.8-17.7,6.1
	c-8.9,1.8-17.9,2.1-26.9,0.7c-5.5-0.8-10.9-2.3-16.1-4.3c-8-3.1-15.3-7.4-22-12.9c-8.5-6.9-15.4-15.1-20.9-24.5
	c-3-5.1-5.6-10.5-7.6-16.1c-1.7-4.8-3.1-9.6-4.1-14.6c-1-4.9-1.7-9.8-2-14.7C0.3,97,0.2,95,0,93.1c-0.1-1,0.4-1.3,1.3-1.3
	c0.7,0,1.3,0,2,0C31.3,91.8,59.2,91.8,87.2,91.8z M169,120c0,0.1,0,0.2,0.1,0.3c1.6-0.3,3.3-0.4,4.8-1.1c3.8-1.7,4.8-7.1,2-10.2
	c-1.9-2.1-4.3-2.4-6.8-2.3c-0.3,0-0.7,0.5-0.7,0.8c-0.9,3.8-1.7,7.6-2.5,11.4c-0.2,0.7,0.1,1.1,0.9,1.1C167.4,120,168.2,120,169,120
	z"/>
<path fill="#00DF93" d="M77.9,21c0-2.8,0-5.6,0-8.4c0-3.3,2-6,5.2-7C84,5.3,84.8,5,85.7,5c3.8,0.2,7.5,3.1,7.6,7.3
	c0.1,5.7,0.1,11.5,0,17.2c-0.1,4.2-3.4,7.4-7.6,7.4c-4.3,0-7.6-3.1-7.7-7.3C77.9,26.7,77.9,23.9,77.9,21z"/>
<path fill="#00DF93" d="M41,58c-2.5,0-4.4-0.8-5.8-2.4c-3.8-4.4-7.6-8.8-11.2-13.3c-3.9-4.8-0.4-10.7,3.9-12c3.3-0.9,5.9,0,8,2.4
	c3.6,4.2,7.2,8.5,10.7,12.7c2,2.4,2.4,5.2,1,8.1C46.3,56.3,43.9,57.8,41,58z"/>
<path fill="#00DF93" d="M130.4,58c-5.6-0.1-9.5-6.1-7-10.9c0.9-1.7,2.3-3.2,3.6-4.7c2.6-3.2,5.4-6.3,8-9.5
	c4.1-4.9,10.9-3.2,13.1,1.9c1.1,2.5,0.9,5.1-0.9,7.3c-3.6,4.4-7.3,8.8-11,13.2C134.7,57,132.8,58,130.4,58z"/>
<circle fill="#FFFFFF" cx="55" cy="141.2" r="6.6"/>
<ellipse fill="#FFFFFF" cx="116" cy="141.2" rx="6.6" ry="6.6"/>
<path fill="#FFFFFF" d="M52.3,158.8c0,0,30.8,35.8,66.1,0"/>
</svg>
