<?xml version="1.0" encoding="UTF-8" standalone="no"?>
<svg
   xmlns:dc="http://purl.org/dc/elements/1.1/"
   xmlns:cc="http://creativecommons.org/ns#"
   xmlns:rdf="http://www.w3.org/1999/02/22-rdf-syntax-ns#"
   xmlns:svg="http://www.w3.org/2000/svg"
   xmlns="http://www.w3.org/2000/svg"
   xmlns:sodipodi="http://sodipodi.sourceforge.net/DTD/sodipodi-0.dtd"
   xmlns:inkscape="http://www.inkscape.org/namespaces/inkscape"
   sodipodi:docname="jenius.svg"
   inkscape:version="1.0.1 (3bc2e813f5, 2020-09-07)"
   version="1.1"
   id="svg2"
   viewBox="0 0 192 192"
   height="192"
   width="192"
   inkscape:export-filename="/home/jphilippe/inkscape/icônes/delta-github/png/jenius.png"
   inkscape:export-xdpi="96"
   inkscape:export-ydpi="96">
  <sodipodi:namedview
     inkscape:document-rotation="0"
     inkscape:window-maximized="1"
     inkscape:window-y="0"
     inkscape:window-x="1920"
     inkscape:window-height="1022"
     inkscape:window-width="1680"
     units="px"
     showgrid="false"
     inkscape:current-layer="layer1"
     inkscape:document-units="px"
     inkscape:cy="276.31584"
     inkscape:cx="-214.70892"
     inkscape:zoom="0.7071068"
     inkscape:pageshadow="2"
     inkscape:pageopacity="0.0"
     borderopacity="1.0"
     bordercolor="#666666"
     pagecolor="#ffffff"
     id="base"
     inkscape:snap-bbox="false"
     inkscape:object-paths="true"
     inkscape:snap-nodes="true"
     showguides="true"
     inkscape:guide-bbox="true"
     inkscape:snap-object-midpoints="true"
     inkscape:snap-center="true"
     inkscape:snap-global="false"
     inkscape:snap-intersection-paths="true"
     inkscape:snap-smooth-nodes="true"
     inkscape:snap-midpoints="true" />
  <defs
     id="defs4">
    <style
       id="style915">
      .cls-1 {
        fill: #009bd2;
        fill-rule: evenodd;
      }
    </style>
  </defs>
  <metadata
     id="metadata7">
    <rdf:RDF>
      <cc:Work
         rdf:about="">
        <dc:format>image/svg+xml</dc:format>
        <dc:type
           rdf:resource="http://purl.org/dc/dcmitype/StillImage" />
        <dc:title></dc:title>
      </cc:Work>
    </rdf:RDF>
  </metadata>
  <g
     transform="translate(0,-860.36216)"
     id="layer1"
     inkscape:groupmode="layer"
     inkscape:label="Calque 1">
    <circle
       style="fill:#99bdfe;fill-opacity:1;fill-rule:evenodd;stroke:none;stroke-opacity:1"
       cx="96"
       cy="956.36218"
       r="88"
       id="circle983" />
    <path
       id="path997"
       data-name="Combined-Shape"
       class="cls-1"
       d="m 132.5,956.79421 c 0,17.46633 -13.76181,30.83765 -29.40707,30.83765 a 34.546942,34.546942 0 0 1 -5.55433,-0.44809 29.731909,29.731909 0 0 1 -7.737019,1.28021 C 73.237809,988.46398 59.5,978.29144 59.5,961.27161 a 28.874196,28.874196 0 0 1 16.858217,-25.52016 c 6.168808,-8.13067 16.611784,-11.49111 23.947153,-11.49111 18.60884,0 32.19463,14.51071 32.19463,32.53387 z m -29.84233,-29.33345 a 26.854731,26.854731 0 0 0 -16.44376,5.83917 c 0.340849,-0.01 0.924922,-0.0272 1.262569,-0.0272 a 22.153313,22.153313 0 0 1 11.799947,3.13801 c 0,0 17.851954,6.91291 17.851954,26.20345 A 25.174509,25.174509 0 0 1 105.138,983.88261 c 11.82716,-2.37154 22.0285,-14.1651 22.0285,-29.38789 0,-13.06892 -10.53899,-27.03396 -24.50883,-27.03396 z m -13.553777,9.8429 c -7.46978,0 -13.23534,6.80409 -13.23534,14.98596 0,9.93251 6.370439,16.91901 13.516974,16.91901 7.965849,0 13.680203,-6.59444 13.680203,-16.44535 0.006,-7.29695 -6.092004,-15.45962 -13.961837,-15.45962 z m -1.054538,48.09269 a 20.013831,20.013831 0 0 0 2.65795,-0.17281 c -12.086392,-4.98947 -19.810606,-17.31107 -19.810606,-32.17862 0,-1.10254 0.07041,-2.15228 0.172823,-3.20041 a 22.562966,22.562966 0 0 1 1.760227,-7.20096 c -5.048661,4.5334 -7.040921,11.23668 -7.040921,17.95917 0.01443,13.75701 11.433501,24.79363 22.266926,24.79363 z m 8.105061,-1.55857 c 9.177214,-3.56687 16.214934,-12.80166 16.214934,-22.71179 a 24.379205,24.379205 0 0 0 -6.28562,-16.96224 21.338805,21.338805 0 0 1 1.82424,8.99319 18.336811,18.336811 0 0 1 -31.460141,12.98893 c 3.214824,8.58029 10.647796,15.82125 19.712993,17.69191 z"
       style="fill:#ffffff;fill-opacity:1;stroke-width:1.60021" />
  </g>
  <style
     type="text/css"
     id="style853">
	.st0{fill:#FFFFFF;}
</style>
  <style
     type="text/css"
     id="style853-9">
	.st0{fill:#FFFFFF;}
</style>
  <style
     type="text/css"
     id="style853-3">
	.st0{fill:#FFFFFF;}
</style>
</svg>
