<?xml version="1.0" encoding="UTF-8"?>
<svg version="1.1" viewBox="0 0 192 192" xml:space="preserve" xmlns="http://www.w3.org/2000/svg"><defs><clipPath id="clipPath613"><rect class="a" x="20" y="20" width="152" height="152" rx="10" fill="none" stroke="#b2b6bd"/></clipPath><clipPath id="clipPath617"><rect class="a" x="20" y="20" width="152" height="152" rx="10" fill="none" stroke="#b2b6bd"/></clipPath><clipPath id="clipPath621"><rect class="a" x="20" y="20" width="152" height="152" rx="10" fill="none" stroke="#b2b6bd"/></clipPath><clipPath id="clipPath625"><rect class="a" x="20" y="20" width="152" height="152" rx="10" fill="none" stroke="#b2b6bd"/></clipPath><clipPath id="clipPath629"><rect class="a" x="20" y="20" width="152" height="152" rx="10" fill="none" stroke="#b2b6bd"/></clipPath><clipPath id="clipPath633"><rect class="a" x="20" y="20" width="152" height="152" rx="10" fill="none" stroke="#b2b6bd"/></clipPath><clipPath id="clipPath637"><rect class="a" x="20" y="20" width="152" height="152" rx="10" fill="none" stroke="#b2b6bd"/></clipPath><clipPath id="clipPath641"><rect class="a" x="20" y="20" width="152" height="152" rx="10" fill="none" stroke="#b2b6bd"/></clipPath><clipPath id="clipPath645"><rect class="a" x="20" y="20" width="152" height="152" rx="10" fill="none" stroke="#b2b6bd"/></clipPath><clipPath id="clipPath649"><rect class="a" x="20" y="20" width="152" height="152" rx="10" fill="none" stroke="#b2b6bd"/></clipPath><clipPath id="clipPath653"><rect class="a" x="20" y="20" width="152" height="152" rx="10" fill="none" stroke="#b2b6bd"/></clipPath><clipPath id="clipPath657"><rect class="a" x="20" y="20" width="152" height="152" rx="10" fill="none" stroke="#b2b6bd"/></clipPath><clipPath id="clipPath661"><rect class="a" x="20" y="20" width="152" height="152" rx="10" fill="none" stroke="#b2b6bd"/></clipPath><clipPath id="clipPath665"><rect class="a" x="20" y="20" width="152" height="152" rx="10" fill="none" stroke="#b2b6bd"/></clipPath><clipPath id="clipPath669"><rect class="a" x="20" y="20" width="152" height="152" rx="10" fill="none" stroke="#b2b6bd"/></clipPath><clipPath id="clipPath673"><rect class="a" x="20" y="20" width="152" height="152" rx="10" fill="none" stroke="#b2b6bd"/></clipPath><clipPath id="clipPath677"><rect class="a" x="20" y="20" width="152" height="152" rx="10" fill="none" stroke="#b2b6bd"/></clipPath></defs>
	 <path d="m120.14 16.43 54.434 55.213v-56.549z" clip-path="url(#clipPath677)" fill="#54688c" stroke-linecap="round" stroke-linejoin="round" stroke-width=".89053"/><path d="m120.14 16.43 54.434 55.213h-54.434v-55.213" clip-path="url(#clipPath673)" fill="#9abeff" stroke-linecap="round" stroke-linejoin="round" stroke-width=".89053"/><path d="m120.14 71.643v53.651l54.434-53.651z" clip-path="url(#clipPath669)" fill="#728dbe" stroke-linecap="round" stroke-linejoin="round" stroke-width=".89053"/><path d="m174.58 71.643-0.7729 53.651h-53.661" clip-path="url(#clipPath665)" fill="#54688c" stroke-linecap="round" stroke-linejoin="round" stroke-width=".89053"/><path d="m120.14 125.29 48.949 48.949 19.759-34.224-15.043-15.043z" clip-path="url(#clipPath661)" fill="#728dbe" stroke-linecap="round" stroke-linejoin="round" stroke-width=".89053"/><path d="m120.14 125.29-0.0212 55.542h41.56l7.0013-7.0013z" clip-path="url(#clipPath657)" fill="#9abeff" stroke-linecap="round" stroke-linejoin="round" stroke-width=".89053"/><path d="m120.14 125.29-55.188 55.188h55.167z" clip-path="url(#clipPath653)" fill="#54688c" stroke-linecap="round" stroke-linejoin="round" stroke-width=".89053"/><path d="m120.14 125.29h-53.073v53.073z" clip-path="url(#clipPath649)" fill="#9abeff" stroke-linecap="round" stroke-linejoin="round" stroke-width=".89053"/><path d="m67.069 125.29v55.188h-48.959l4.7227-11.896z" clip-path="url(#clipPath645)" fill="#728dbe" stroke-linecap="round" stroke-linejoin="round" stroke-width=".89053"/><path d="m67.069 125.29h-59.507v39.514l15.158 4.0615z" clip-path="url(#clipPath641)" fill="#54688c" stroke-linecap="round" stroke-linejoin="round" stroke-width=".89053"/><path d="m67.069 125.29-56.694-57.46v57.46z" clip-path="url(#clipPath637)" fill="#728dbe" stroke-linecap="round" stroke-linejoin="round" stroke-width=".89053"/><path d="m67.069 125.29-0.15743-53.651h-52.779z" clip-path="url(#clipPath633)" fill="#54688c" stroke-linecap="round" stroke-linejoin="round" stroke-width=".89053"/><path d="m66.912 71.643-49.053-49.053-12.151 3.2558 4.6671 41.989 3.7578 3.8086z" clip-path="url(#clipPath629)" fill="#54688c" stroke-linecap="round" stroke-linejoin="round" stroke-width=".89053"/><path d="m66.912 71.643v-64.417l-48.209 12.918-0.84421 2.4466z" clip-path="url(#clipPath625)" fill="#728dbe" stroke-linecap="round" stroke-linejoin="round" stroke-width=".89053"/><path d="m66.912 71.643 53.231-55.213h-53.231z" clip-path="url(#clipPath621)" fill="#54688c" stroke-linecap="round" stroke-linejoin="round" stroke-width=".89053"/><path d="m66.912 71.643h53.231v-55.213z" clip-path="url(#clipPath617)" fill="#728dbe" stroke-linecap="round" stroke-linejoin="round" stroke-width=".89053"/><path d="m66.912 71.643v53.492h53.231v-53.492z" clip-path="url(#clipPath613)" fill="#9abeff" stroke-linecap="round" stroke-linejoin="round" stroke-width=".89053"/><path d="m120.14 16.43 54.434 55.213v-56.549z" clip-path="url(#clipPath677)" fill="#54688c" stroke-linecap="round" stroke-linejoin="round" stroke-width=".89053"/><path d="m120.14 16.43 54.434 55.213h-54.434v-55.213" clip-path="url(#clipPath673)" fill="#9abeff" stroke-linecap="round" stroke-linejoin="round" stroke-width=".89053"/><path d="m120.14 71.643v53.651l54.434-53.651z" clip-path="url(#clipPath669)" fill="#728dbe" stroke-linecap="round" stroke-linejoin="round" stroke-width=".89053"/><path d="m174.58 71.643-0.7729 53.651h-53.661" clip-path="url(#clipPath665)" fill="#54688c" stroke-linecap="round" stroke-linejoin="round" stroke-width=".89053"/><path d="m120.14 125.29 48.949 48.949 19.759-34.224-15.043-15.043z" clip-path="url(#clipPath661)" fill="#728dbe" stroke-linecap="round" stroke-linejoin="round" stroke-width=".89053"/><path d="m120.14 125.29-0.0212 55.542h41.56l7.0013-7.0013z" clip-path="url(#clipPath657)" fill="#9abeff" stroke-linecap="round" stroke-linejoin="round" stroke-width=".89053"/><path d="m120.14 125.29-55.188 55.188h55.167z" clip-path="url(#clipPath653)" fill="#54688c" stroke-linecap="round" stroke-linejoin="round" stroke-width=".89053"/><path d="m120.14 125.29h-53.073v53.073z" clip-path="url(#clipPath649)" fill="#9abeff" stroke-linecap="round" stroke-linejoin="round" stroke-width=".89053"/><path d="m67.069 125.29v55.188h-48.959l4.7227-11.896z" clip-path="url(#clipPath645)" fill="#728dbe" stroke-linecap="round" stroke-linejoin="round" stroke-width=".89053"/><path d="m67.069 125.29h-59.507v39.514l15.158 4.0615z" clip-path="url(#clipPath641)" fill="#54688c" stroke-linecap="round" stroke-linejoin="round" stroke-width=".89053"/><path d="m67.069 125.29-56.694-57.46v57.46z" clip-path="url(#clipPath637)" fill="#728dbe" stroke-linecap="round" stroke-linejoin="round" stroke-width=".89053"/><path d="m67.069 125.29-0.15743-53.651h-52.779z" clip-path="url(#clipPath633)" fill="#54688c" stroke-linecap="round" stroke-linejoin="round" stroke-width=".89053"/><path d="m66.912 71.643-49.053-49.053-12.151 3.2558 4.6671 41.989 3.7578 3.8086z" clip-path="url(#clipPath629)" fill="#54688c" stroke-linecap="round" stroke-linejoin="round" stroke-width=".89053"/><path d="m66.912 71.643v-64.417l-48.209 12.918-0.84421 2.4466z" clip-path="url(#clipPath625)" fill="#728dbe" stroke-linecap="round" stroke-linejoin="round" stroke-width=".89053"/><path d="m66.912 71.643 53.231-55.213h-53.231z" clip-path="url(#clipPath621)" fill="#54688c" stroke-linecap="round" stroke-linejoin="round" stroke-width=".89053"/><path d="m66.912 71.643h53.231v-55.213z" clip-path="url(#clipPath617)" fill="#728dbe" stroke-linecap="round" stroke-linejoin="round" stroke-width=".89053"/><path d="m66.912 71.643v53.806l53.231-0.15468v-53.651z" clip-path="url(#clipPath613)" fill="#9abeff" stroke-linecap="round" stroke-linejoin="round" stroke-width=".89053"/><text x="51.366608" y="106.33543" fill="#ffffff" font-family="Now" font-size="26.667px" font-weight="500" stroke-linecap="round" stroke-linejoin="round" xml:space="preserve"><tspan x="51.366608" y="106.33543">jetBlue</tspan></text></svg>
