<?xml version="1.0" encoding="UTF-8"?>
<svg version="1.1" viewBox="0 0 192 192" xml:space="preserve" xmlns="http://www.w3.org/2000/svg">
	 <circle class="a" cx="96" cy="96" r="88" fill="#98dc9a"/><g transform="matrix(3.3502 0 0 3.3502 43.742 49.097)" fill="#fff"><path d="m19 4c0-0.5523-0.4477-1-1-1s-1 0.4477-1 1v20c0 0.5523 0.4477 1 1 1s1-0.4477 1-1z"/><path d="m13 9c0-0.5523-0.4477-1-1-1s-1 0.4477-1 1v10c0 0.5523 0.4477 1 1 1s1-0.4477 1-1z"/><path d="m24 8c0.5523 0 1 0.4477 1 1v10c0 0.5523-0.4477 1-1 1s-1-0.4477-1-1v-10c0-0.5523 0.4477-1 1-1z"/><path d="m7 11c0-0.5523-0.4477-1-1-1s-1 0.4477-1 1v6c0 0.5523 0.4477 1 1 1s1-0.4477 1-1z"/></g></svg>
