<?xml version="1.0" encoding="utf-8"?>
<!-- Generator: Adobe Illustrator 25.0.0, SVG Export Plug-In . SVG Version: 6.00 Build 0)  -->
<svg version="1.1" id="Layer_1" xmlns="http://www.w3.org/2000/svg" xmlns:xlink="http://www.w3.org/1999/xlink" x="0px" y="0px"
	 viewBox="0 0 192 192" style="enable-background:new 0 0 192 192;" xml:space="preserve">
<style type="text/css">
	.st0{fill:#73ADA4;}
	.st1{fill:#FFFFFF;}
</style>
<path class="st0" d="M30,20h132c5.5,0,10,4.5,10,10v132c0,5.5-4.5,10-10,10H30c-5.5,0-10-4.5-10-10V30C20,24.5,24.5,20,30,20z"/>
<g>
	<path class="st1" d="M96,134.1c-12.5,0-25,0-37.6,0c-6,0-10.2-4-10.2-9.9c-0.1-18.7,0-37.4,0.1-56.1c0-5.2,2.7-8.8,7.2-10
		c1.1-0.3,2.4-0.4,3.6-0.4c24.6,0,49.3,0,73.9,0c5.5,0,9.3,2.8,10.4,7.6c0.2,0.6,0.2,1.3,0.2,1.9c0,19.2,0,38.3,0,57.5
		c0,5.2-4.3,9.4-9.4,9.4C121.5,134.1,108.7,134.1,96,134.1z M133.9,67.7c-0.7,0.5-1.3,0.8-1.8,1.1c-11.6,7.2-23.1,14.4-34.7,21.7
		c-1.1,0.7-1.8,0.7-2.8,0C83,83.3,71.5,76.1,59.8,68.8c-0.5-0.3-1-0.6-1.7-1c0,3,0,5.9,0,8.6c0,0.3,0.5,0.7,0.8,1
		c12,7.5,24.1,15,36.1,22.6c0.5,0.3,1.3,0.2,1.8,0c1.1-0.6,2.1-1.3,3.2-1.9c10.9-6.8,21.8-13.6,32.7-20.4c0.5-0.3,1.1-0.9,1.1-1.3
		C134,73.4,133.9,70.7,133.9,67.7z"/>
</g>
</svg>
