<?xml version="1.0" encoding="UTF-8" standalone="no"?>
<svg
   xmlns:dc="http://purl.org/dc/elements/1.1/"
   xmlns:cc="http://creativecommons.org/ns#"
   xmlns:rdf="http://www.w3.org/1999/02/22-rdf-syntax-ns#"
   xmlns:svg="http://www.w3.org/2000/svg"
   xmlns="http://www.w3.org/2000/svg"
   xmlns:sodipodi="http://sodipodi.sourceforge.net/DTD/sodipodi-0.dtd"
   xmlns:inkscape="http://www.inkscape.org/namespaces/inkscape"
   sodipodi:docname="join.svg"
   inkscape:version="1.0.1 (3bc2e813f5, 2020-09-07)"
   version="1.1"
   id="svg2"
   viewBox="0 0 192 192"
   height="192"
   width="192"
   inkscape:export-filename="/home/jphilippe/inkscape/icônes/delta-github/png/join.png"
   inkscape:export-xdpi="96"
   inkscape:export-ydpi="96">
  <sodipodi:namedview
     inkscape:document-rotation="0"
     inkscape:window-maximized="1"
     inkscape:window-y="30"
     inkscape:window-x="1920"
     inkscape:window-height="1022"
     inkscape:window-width="1680"
     units="px"
     showgrid="false"
     inkscape:current-layer="layer1"
     inkscape:document-units="px"
     inkscape:cy="119.20131"
     inkscape:cx="-67.406751"
     inkscape:zoom="1.4142136"
     inkscape:pageshadow="2"
     inkscape:pageopacity="0.0"
     borderopacity="1.0"
     bordercolor="#666666"
     pagecolor="#ffffff"
     id="base"
     inkscape:snap-bbox="false"
     inkscape:object-paths="true"
     inkscape:snap-nodes="true"
     showguides="true"
     inkscape:guide-bbox="true"
     inkscape:snap-object-midpoints="true"
     inkscape:snap-center="true"
     inkscape:snap-global="false"
     inkscape:snap-intersection-paths="true"
     inkscape:snap-smooth-nodes="true"
     inkscape:snap-midpoints="true" />
  <defs
     id="defs4" />
  <metadata
     id="metadata7">
    <rdf:RDF>
      <cc:Work
         rdf:about="">
        <dc:format>image/svg+xml</dc:format>
        <dc:type
           rdf:resource="http://purl.org/dc/dcmitype/StillImage" />
        <dc:title />
      </cc:Work>
    </rdf:RDF>
  </metadata>
  <g
     transform="translate(0,-860.36216)"
     id="layer1"
     inkscape:groupmode="layer"
     inkscape:label="Calque 1">
    <rect
       style="fill:#83868c;fill-opacity:1;stroke-width:1.25675;stop-color:#000000"
       id="rect1032"
       width="84.04525"
       height="139.38329"
       x="20.14599"
       y="892.41376"
       rx="9.8759766"
       ry="9.8759766" />
    <rect
       style="fill:#56595b;fill-opacity:1;stroke-width:1.16507;stop-color:#000000"
       id="rect1034"
       width="70.907837"
       height="105.31444"
       x="26.714705"
       y="909.23169"
       rx="4.599"
       ry="4.599" />
    <path
       id="path1036"
       style="fill:#ffffff;fill-opacity:1;stroke-width:1.09659;stop-color:#000000"
       d="m 61.867038,951.39495 a 11.001723,11.001723 0 0 0 -10.984755,11.00139 11.001723,11.001723 0 0 0 11.001391,11.00138 11.001723,11.001723 0 0 0 9.762375,-5.92894 H 93.862952 V 957.32389 H 71.646049 a 11.001723,11.001723 0 0 0 -9.762375,-5.92894 11.001723,11.001723 0 0 0 -0.0166,0 z" />
    <rect
       style="fill:#a0a5af;fill-opacity:1;stroke-width:1.25675;stop-color:#000000"
       id="rect1038"
       width="84.04525"
       height="139.38329"
       x="87.808739"
       y="880.92725"
       rx="9.8759766"
       ry="9.8759766" />
    <rect
       style="fill:#83868c;fill-opacity:1;stroke-width:1.16507;stop-color:#000000"
       id="rect1040"
       width="70.907837"
       height="105.31444"
       x="94.377457"
       y="897.74518"
       rx="4.599"
       ry="4.599" />
    <path
       id="path1042"
       style="fill:#f8c18c;fill-opacity:1;stroke-width:1.09837;stop-color:#000000"
       d="m 118.7326,931.90231 -0.10209,0.10206 a 4.9992716,4.9992716 90.004173 0 0 -5.2e-4,7.07055 l 6.36822,6.36822 H 87.808757 v 10.14697 h 37.187373 l -6.36651,6.36784 a 5.0005226,5.0005226 89.997006 0 0 3.7e-4,7.07143 l 0.10313,0.10313 a 4.9999989,4.9999989 179.99999 0 0 7.07106,0 l 15.07931,-15.07932 a 5.0000011,5.0000011 89.999994 0 0 0,-7.07106 l -15.07931,-15.07931 a 5.0007285,5.0007285 0.00417349 0 0 -7.07158,-5.1e-4 z" />
  </g>
  <style
     type="text/css"
     id="style853">
	.st0{fill:#FFFFFF;}
</style>
  <style
     type="text/css"
     id="style853-9">
	.st0{fill:#FFFFFF;}
</style>
  <style
     type="text/css"
     id="style853-3">
	.st0{fill:#FFFFFF;}
</style>
</svg>
