<svg xmlns="http://www.w3.org/2000/svg" xml:space="preserve" viewBox="0 0 192 192"><circle cx="96" cy="96" r="88.5" fill="#88bfff" style="stroke-width:.921875;fill:#9abefe;fill-opacity:1"/><path fill="#fdfdfe" stroke="#fff" stroke-miterlimit="10" stroke-width="1.22216" d="M123.804 60.136c.978.061 1.894.122 2.872 0 .978.122 1.895.061 2.872 0 .184.061.428.061.611 0 .245.061.55.122.55.489v2.322c0 2.017-.06 4.094 0 6.11 0 .734-.183.978-.916.978-1.772-.06-3.606-.122-5.378.123-1.527.183-2.444 1.039-2.689 2.505v.183c-.183.367-.122.734-.122 1.162-.183 1.038-.183 2.077-.183 3.116v12.038c0 .306.061.611.061.978 0 .061-.061.183-.061.244v16.622c-.061.06-.061.122 0 .183v1.222c0 .367-.061.672-.061 1.04-.122.55-.122 1.1-.122 1.588-.062.061-.062.061 0 .122 0 .245-.062.489-.062.733-.06.306-.122.612-.122.856-.366 2.017-.916 3.972-2.016 5.744-3.85 6.539-9.655 10.266-16.866 12.1-2.75.733-5.622.977-8.494 1.283-.183-.061-.306-.061-.428 0H88.3c-.06-.061-.122-.061-.183 0-1.283-.061-2.566-.061-3.85-.245-1.527-.183-2.994-.55-4.522-.977-2.81-.795-5.56-1.895-8.066-3.484-3.36-2.077-5.989-4.827-8.066-8.25-.184-.427-.367-.855-.672-1.221 0-.061-.062-.123-.062-.184 0-.244-.122-.427-.305-.61-.428-1.345-.856-2.75-1.283-4.095v-.855c.06-.245.183-.49.06-.673 0-.61.062-1.222.062-1.772.244-1.589.672-3.177 1.466-4.644.917-1.711 2.323-2.933 3.911-3.91.49-.062.856-.306 1.223-.55 1.955-.795 3.972-.856 6.05-.612 2.688.306 4.766 1.65 6.232 4.033.795 1.589 1.1 3.239 1.04 5.011 0 1.161-.062 2.261.06 3.422.428 3.911 2.261 6.6 6.111 7.822.672.244 1.344.428 2.078.428.122 0 .244 0 .366.06.184.123.306.123.49.062.794.061 1.588.244 2.321-.122h.061l.061-.061c.306 0 .612.244.978.122 1.65-.428 3.239-.917 4.461-2.2.856-.428 1.406-1.1 1.894-1.833 1.65-2.322 2.078-4.95 2.078-7.7.061-4.4.061-8.8.061-13.2 0-2.321 0-4.582-.06-6.904 0-1.65.06-3.24.06-4.89 0-2.993-.06-5.927-.06-8.92 0-.245.06-.55.06-.795 0-2.567-1.16-3.606-3.36-3.85-1.59-.122-3.117-.122-4.706-.061-1.161-.122-1.283-.184-1.039-1.1a80.69 80.69 0 0 0 0-5.439c.061-.916.061-1.833 0-2.75 0-.855.672-.366 1.039-.55 2.139.123 4.278.123 6.416 0 .184 0 .367.062.55.062h22c.121-.245.305-.245.55-.306z"/></svg>