<?xml version="1.0" encoding="UTF-8" standalone="no"?>
<svg
   viewBox="0 0 192 192"
   version="1.1"
   id="svg16"
   sodipodi:docname="joplin.svg"
   inkscape:version="1.2.1 (9c6d41e410, 2022-07-14)"
   inkscape:export-filename="joplin.png"
   inkscape:export-xdpi="96"
   inkscape:export-ydpi="96"
   xml:space="preserve"
   xmlns:inkscape="http://www.inkscape.org/namespaces/inkscape"
   xmlns:sodipodi="http://sodipodi.sourceforge.net/DTD/sodipodi-0.dtd"
   xmlns="http://www.w3.org/2000/svg"
   xmlns:svg="http://www.w3.org/2000/svg"><sodipodi:namedview
     id="namedview18"
     pagecolor="#ffffff"
     bordercolor="#999999"
     borderopacity="1"
     inkscape:showpageshadow="0"
     inkscape:pageopacity="0"
     inkscape:pagecheckerboard="0"
     inkscape:deskcolor="#d1d1d1"
     showgrid="false"
     inkscape:zoom="3.8489583"
     inkscape:cx="85.867389"
     inkscape:cy="94.571043"
     inkscape:window-width="1920"
     inkscape:window-height="1046"
     inkscape:window-x="0"
     inkscape:window-y="34"
     inkscape:window-maximized="1"
     inkscape:current-layer="svg16" /><defs
     id="defs4"><style
       id="style2">
            .a {
                fill: none;
                stroke: #b1b5bd;
                stroke-linecap: round;
                stroke-linejoin: round;
                isolation: isolate;
                opacity :0.63;
            }
        </style><linearGradient
       id="linearGradient26"
       spreadMethod="pad"
       gradientTransform="matrix(-4387.91,4387.91,4387.91,4387.91,4753.95,366.05)"
       gradientUnits="userSpaceOnUse"
       y2="0"
       x2="1"
       y1="0"
       x1="0">
      <stop
   id="stop22"
   offset="0"
   style="stop-opacity:1;stop-color:#004caf" />
      <stop
   id="stop24"
   offset="1"
   style="stop-opacity:1;stop-color:#1f95f8" />
    </linearGradient></defs><g
     id="g148"
     inkscape:label="Template"
     style="display:none"><circle
       class="a"
       cx="96"
       cy="96"
       r="88"
       id="circle8"
       inkscape:label="Outer circle" /><circle
       class="a"
       cx="96"
       cy="96"
       r="36.5"
       id="circle10"
       inkscape:label="Inner circle" /><rect
       class="a"
       x="32"
       y="8"
       width="128"
       height="176"
       rx="10"
       id="rect12"
       inkscape:label="Vertical slab" /><rect
       class="a"
       x="8"
       y="32"
       width="176"
       height="128"
       rx="10"
       id="rect14"
       inkscape:label="Horizontal slab" /></g><!-- Square --><!-- Circle --><!-- Vertical Slab --><!-- Horizontal Slab --><rect
     class="a"
     x="20"
     y="20"
     width="152"
     height="152"
     rx="10"
     id="rect6"
     inkscape:label="Square"
     style="fill:#9abeff;stroke:none;opacity:1" /><path
     id="path30"
     style="fill:#ffffff;fill-opacity:1;fill-rule:nonzero;stroke:none;stroke-width:0.133333"
     d="M 123.65463,59.000043 H 96.200616 c -0.259463,0 -0.469205,0.209939 -0.469205,0.469009 v 8.717977 c 0,0.293402 0.237563,0.531161 0.531161,0.531161 h 3.764088 c 1.52246,0 2.75703,1.17104 2.88923,2.659157 v 5.977135 3.330014 31.717314 0.22473 h -8.7e-4 c 0.01,0.33227 -0.004,0.65901 -0.0361,0.98083 -0.004,0.047 -0.01,0.0933 -0.0156,0.1399 -0.0217,0.18803 -0.0458,0.37509 -0.0823,0.55819 -0.0199,0.10437 -0.0482,0.20599 -0.0732,0.30879 -0.0337,0.13674 -0.061,0.27564 -0.10299,0.40942 -0.24823,0.79457 -0.64068,1.53153 -1.18348,2.18028 -0.0199,0.0231 -0.0446,0.0444 -0.0644,0.0673 -0.16554,0.1918 -0.33937,0.37865 -0.53175,0.55366 -0.19416,0.1766 -0.39974,0.34076 -0.61581,0.49328 -1.535859,1.08797 -3.603085,1.56665 -5.912804,1.34566 -2.945061,-0.27682 -5.866838,-1.61243 -8.228452,-3.76114 -2.361217,-2.14851 -3.829406,-4.80689 -4.133265,-7.48616 -0.273275,-2.39694 0.444935,-4.50619 2.020857,-5.94003 0.0041,-0.003 0.0079,-0.006 0.01105,-0.01 0.06097,-0.0547 0.128055,-0.10261 0.190798,-0.15529 1.12783,-0.94492 2.597992,-1.51751 4.275725,-1.67536 0.01894,-0.002 0.0371,-0.005 0.05505,-0.006 0.176593,-0.0156 0.356541,-0.0227 0.538066,-0.0294 0.09491,-0.003 0.188629,-0.01 0.284918,-0.0107 0.03196,-4e-4 0.06235,-0.004 0.09431,-0.004 0.05722,0 0.116611,0.007 0.173831,0.008 0.264396,0.004 0.530765,0.015 0.802463,0.0383 0.03433,0.003 0.06708,0.002 0.102404,0.005 0.02506,0.003 0.04992,0.008 0.07498,0.0107 1.539024,0.15429 3.062856,0.61383 4.508947,1.31013 0.03019,8.8e-4 0.06511,0.0107 0.108718,0.0347 0.440791,0.24348 0.525241,-0.0178 0.538263,-0.19039 v -7.541595 -5.580342 c 0,-0.375878 -0.261436,-0.708346 -0.62804,-0.789047 -7.78904,-1.714235 -15.43128,0.07005 -20.823783,4.978941 -4.710794,4.285194 -6.989537,10.468923 -6.251199,16.964573 0.658821,5.78575 3.628742,11.34419 8.363608,15.65326 4.614902,4.19857 10.490816,6.82418 16.552005,7.39522 0.835216,0.0773 1.674379,0.11716 2.493219,0.11716 5.788701,0 11.160091,-1.9849 15.124661,-5.59137 3.75561,-3.41939 6.00516,-8.1148 6.33526,-13.22298 l 0.0306,-33.501578 h 0.004 v -8.957317 h 8.8e-4 v -0.156271 c 0.0339,-1.580853 1.32297,-2.852719 2.91251,-2.852719 h 3.7641 c 0.2932,0 0.53115,-0.237758 0.53115,-0.531161 v -8.71762 c 0,-0.25907 -0.20973,-0.469009 -0.4692,-0.469009"
     inkscape:label="J" /></svg>
