<svg xmlns="http://www.w3.org/2000/svg" viewBox="0 0 192 192"><title>Junior Hockey League</title><path d="M94.28,180.14c-22.6-9.45-60.38-25.47-60.38-68.69V10.86H158.1V111.45c0,43.22-37.78,59.24-60.38,68.83L96,181Z" fill="#56595b"/><path d="M158,8H34a3,3,0,0,0-3,3V111.45c0,19.75,7.73,36.35,22.75,49.37,12.45,10.73,28,17.31,39.35,22l2.12.85a2,2,0,0,0,1.48,0l2.12-.85c11.31-4.72,26.76-11.3,39.35-22,15.17-13,22.75-29.62,22.75-49.37V11A3,3,0,0,0,158,8Zm-2.72,103.45c0,41.31-35.81,56.46-58.47,66.07a2,2,0,0,1-1.54,0c-22.66-9.61-58.47-24.76-58.47-66.07V16.72a3,3,0,0,1,3-3H152.24a3,3,0,0,1,3,3Z" fill="#ececec"/><path d="M101.87,60.23A51.5,51.5,0,0,1,142.79,90H111.6ZM80.4,90l9.73-29.76A51.5,51.5,0,0,0,49.21,90ZM96,137.92,70.67,156.38A50.54,50.54,0,0,0,96,163a52.13,52.13,0,0,0,25.33-6.58ZM61.09,149.37l9.73-29.76L45.49,101.15a47.71,47.71,0,0,0-1,10.16,51.68,51.68,0,0,0,16.6,38.06m86.42-37.92a47.78,47.78,0,0,0-1-10.16l-25.33,18.32,9.73,29.76a51.05,51.05,0,0,0,16.6-37.92M101.72,77.54,85.27,128.48a5,5,0,0,1-1.72,2.43l-13.88,10-3.86,11.88h0l21-15.31a6.81,6.81,0,0,0,2.29-3l15.6-47.93ZM74.11,127.05l-1.72,5.44,6.87-5a2.13,2.13,0,0,0,.86-1.29l1.57-4.58Z" fill="#ececec"/><polygon points="144.94 95.43 144.94 95.43 107.59 95.43 96 130.91 126.19 152.81 114.6 117.32 144.94 95.43" fill="#ff837d"/><path d="M96,59.8h0S89.85,78.54,84.41,95.28H47.06L82,120.61,98.86,68.67Z" fill="#ff837d"/><path d="M104.25,53.18h7.55V21.68h-7.55a1.17,1.17,0,0,0-1.33,1,1.93,1.93,0,0,0,0,.34V33.66H89.6V23a1.18,1.18,0,0,0-1-1.34H80.74V53.14h7.55a1.18,1.18,0,0,0,1.33-1,1.93,1.93,0,0,0,0-.34V41.21h13.3V51.85A1.43,1.43,0,0,0,104.25,53.18Z" fill="#ececec"/><path d="M50.57,45.66c-.72,0-1.33,0-1.33.54,0,.11,0,.22,0,.32v6.66H67a7.76,7.76,0,0,0,7.53-7.53v-24H60.33a1.17,1.17,0,0,0-1.33,1A1,1,0,0,0,59,23v6.66h6.66V42.56a3,3,0,0,1-3,3.1.38.38,0,0,1-.15,0Z" fill="#ececec"/><path d="M125.1,21.68h-7.53v31.5h25.29V46.52a1.18,1.18,0,0,0-1-1.32,1.15,1.15,0,0,0-.32,0H126.44V23a1.18,1.18,0,0,0-1-1.3A1,1,0,0,0,125.1,21.68Z" fill="#ececec"/></svg>