<svg xmlns="http://www.w3.org/2000/svg" viewBox="0 0 192 192"><rect width="152" height="152" x="20" y="20" rx="10" style="fill:#8c72bd;stroke:none;opacity:1;stroke-linecap:round;stroke-linejoin:round;isolation:isolate"/><path d="m94.616 87.177-6.296.845-2.631 28.76-4.136-20.489s-.884-6.829-6.203-6.296c-3.611.361-10.808 1.316-10.808 1.316l6.955 36.56s6.332-1.37 9.304-2.445c2.964-1.071 4.7-3.29 4.7-3.29l-1.505 17.105 5.921-1.879.846-14.568 5.075-1.409 1.505 8.27 5.169-1.503zM73.988 95.92c.564-.007 1.741.25 2.152 2.426l3.588 19.006c.46 2.437-1.395 2.99-1.395 2.99l-1.795.267-4.718-24.455 1.86-.2s.12-.031.308-.034zm18.168 7.278 2.526 12.56-3.523.797z" style="opacity:1;fill:#fff;stroke:none;stroke-width:.65348244px;stroke-linecap:butt;stroke-linejoin:miter;stroke-opacity:1"/><path d="m103.054 119.412-6.246-32.43 5.781-.865 6.446 14.953-8.107-44.127h-2.193l-3.057-5.05h12.028l.93 4.917-3.056.067 11.23 59.079-5.05 1.33-7.244-16.681 3.257 17.743z" style="fill:#fff;stroke:none;stroke-width:.65348244px;stroke-linecap:butt;stroke-linejoin:miter;stroke-opacity:1"/><path d="m86.252 72.939 4.934-.47 1.27 6.062s.314 1.628 1.879 1.41c1.7-.238 1.175-1.974 1.175-1.974l-.752-4.37s-.59-1.059-1.692-1.833c-1.831-1.286-3.735-2.465-5.592-3.712-1.658-1.113-2.397-2.679-2.397-2.679l-1.691-8.082s-1.152-5.194 3.524-5.498c1.282-.084 2.57-.014 3.853-.047 4.024-.105 5.075 3.759 5.075 3.759l1.74 7.519-4.841.375-.893-4.605s-.159-2.439-2.067-2.255c-1.509.145-1.081 2.35-1.081 2.35l.705 3.289s.367.838 1.268 1.456c2.05 1.407 4.048 2.888 6.11 4.277 1.73 1.166 2.16 3.43 2.16 3.43l1.458 6.72s1.212 5.307-2.35 6.485c-1.174.388-2.443.38-3.665.564-5.428.818-6.438-3.948-6.438-3.948z" style="fill:#fff;stroke-width:.65348244"/><path d="m70.757 52.225 5.183 27.313s.35 2.578 2.592 2.26c1.743-.248.997-3.124.997-3.124l-5.05-26.516 5.382-.066 5.117 26.25s2.338 7.209-2.857 8.24c-1.547.308-3.095.611-4.652.864-5.813.946-6.779-5.117-6.779-5.117L64.91 52.291zM55.738 52.358l6.446.066s5.193 26.74 5.45 28.045c.78 3.963.643 7.721-5.184 8.705-1.68.284-5.715.4-5.715.4l-.93-5.982s2.578-.296 3.854-.532c1.866-.345 1.661-2.26 1.661-2.26zM125.631 82.995l5.639 28.994 7.284-1.974-.94-4.558-3.666.94-1.41-7.707 3.431-.658-.94-4.37-3.29.564-1.362-7.33 3.477-.47-.986-4.465zM123.046 100.805l3.807-.893 1.503 7.471s1.169 5.111-2.396 6.25c-.84.269-1.959.794-2.82.987-5.183 1.163-5.592-4.652-5.592-4.652l-3.853-19.783s-1.215-5.302 2.632-6.203c1.063-.25 2.158-.337 3.242-.47 3.88-.476 4.652 3.665 4.652 3.665l1.598 7.8-3.853.659-1.034-5.686s-.327-1.88-1.88-1.645c-1.461.221-.846 2.584-.846 2.584l3.337 17.011s.18 2 1.88 1.598c1.3-.308.94-2.397.94-2.397z" style="fill:#fff;stroke:none;stroke-width:.65348244px;stroke-linecap:butt;stroke-linejoin:miter;stroke-opacity:1"/><path d="m110.453 140.042-3.149-17.01 3.478-1.081 4.793 7.565-1.316-8.646 3.242-.94 3.149 16.4-3.336 1.363-5.123-8.74 1.74 9.915zM126.654 117.344c-.717-.054-1.594.061-2.668.425-4.82 1.63-3.759 6.108-3.759 6.108l1.551 8.13s.576 4.041 6.061 2.068c4.833-1.738 3.244-6.58 3.244-6.58l-1.223-6.532s-.099-3.388-3.206-3.62zm-1.782 2.44c1.036-.01 1.21 1.755 1.21 1.755l1.627 8.273s.482 2.09-.73 2.26c-1.306.182-1.595-1.862-1.595-1.862l-1.463-8.273s-.597-1.825.731-2.126a1.04 1.04 0 0 1 .22-.027zM130.518 116.17l2.585-.798 1.832 8.505 1.128-9.398 2.256-.658 2.067 8.13 1.316-12.171 2.256-.564-1.974 19.22-2.96 1.174-1.222-5.733-.987 6.58-3.148 1.127z" style="fill:#f9de81;stroke:none;stroke-width:.65348244px;stroke-linecap:butt;stroke-linejoin:miter;stroke-opacity:1"/></svg>