<?xml version="1.0" encoding="UTF-8" standalone="no"?>
<svg
   xmlns:dc="http://purl.org/dc/elements/1.1/"
   xmlns:cc="http://creativecommons.org/ns#"
   xmlns:rdf="http://www.w3.org/1999/02/22-rdf-syntax-ns#"
   xmlns:svg="http://www.w3.org/2000/svg"
   xmlns="http://www.w3.org/2000/svg"
   xmlns:sodipodi="http://sodipodi.sourceforge.net/DTD/sodipodi-0.dtd"
   xmlns:inkscape="http://www.inkscape.org/namespaces/inkscape"
   viewBox="0 0 192 192"
   version="1.1"
   id="svg16"
   sodipodi:docname="just_dance_controller.svg"
   inkscape:version="0.92.4 (5da689c313, 2019-01-14)">
  <metadata
     id="metadata20">
    <rdf:RDF>
      <cc:Work
         rdf:about="">
        <dc:format>image/svg+xml</dc:format>
        <dc:type
           rdf:resource="http://purl.org/dc/dcmitype/StillImage" />
        <dc:title />
      </cc:Work>
    </rdf:RDF>
  </metadata>
  <sodipodi:namedview
     pagecolor="#ffffff"
     bordercolor="#666666"
     borderopacity="1"
     objecttolerance="10"
     gridtolerance="10"
     guidetolerance="10"
     inkscape:pageopacity="0"
     inkscape:pageshadow="2"
     inkscape:window-width="1920"
     inkscape:window-height="1017"
     id="namedview18"
     showgrid="true"
     inkscape:zoom="4.9166667"
     inkscape:cx="72.112169"
     inkscape:cy="90.733932"
     inkscape:window-x="-8"
     inkscape:window-y="-8"
     inkscape:window-maximized="1"
     inkscape:current-layer="svg16"
     inkscape:snap-global="false">
    <inkscape:grid
       type="xygrid"
       id="grid827"
       spacingx="4"
       spacingy="4" />
  </sodipodi:namedview>
  <defs
     id="defs4">
    <style
       id="style2">.a{fill:none;stroke:#b1b5bd;stroke-linecap:round;stroke-linejoin:round;isolation:isolate;opacity:0.63;}</style>
  </defs>
  <rect
     class="a"
     x="20"
     y="20"
     width="152"
     height="152"
     rx="10"
     id="rect6"
     style="fill:#728dbe;stroke:none;opacity:1" />
  <path
     style="opacity:1;fill:#ffffff;stroke:none;stroke-width:0.72249353px;stroke-linecap:butt;stroke-linejoin:miter;stroke-opacity:1"
     d="m 95.26461,90.919492 -6.961052,0.934161 -2.909736,31.796787 -4.572025,-22.65273 c 0,0 -0.977129,-7.54991 -6.858047,-6.961057 -3.992578,0.399778 -11.949365,1.454872 -11.949365,1.454872 l 7.689196,40.420125 c 0,0 7.000537,-1.51438 10.287066,-2.70229 3.276284,-1.18421 5.195748,-3.63646 5.195748,-3.63646 l -1.663716,18.91043 6.54619,-2.07717 0.935572,-16.10654 5.610617,-1.55787 1.663708,9.14406 5.715034,-1.6623 z m -22.806521,9.664758 c 0.622601,-0.008 1.924801,0.27621 2.379148,2.68255 l 3.966657,21.013 c 0.508738,2.6944 -1.54235,3.30625 -1.54235,3.30625 l -1.98404,0.29492 -5.216909,-27.03848 2.057408,-0.22154 c 9e-6,0 0.132549,-0.034 0.340086,-0.0367 z m 20.085886,8.04621 2.792604,13.88684 -3.894689,0.88054 z"
     id="path829"
     inkscape:connector-curvature="0" />
  <path
     style="fill:#ffffff;stroke:none;stroke-width:0.72249353px;stroke-linecap:butt;stroke-linejoin:miter;stroke-opacity:1"
     d="m 104.59367,126.55784 -6.906546,-35.855278 6.392226,-0.955158 7.12698,16.531636 -8.96383,-48.78669 H 99.817868 L 96.43807,51.908331 h 13.29878 l 1.02863,5.437071 -3.37979,0.07348 12.41708,65.318298 -5.58401,1.46948 -8.00866,-18.44193 3.60022,19.61752 z"
     id="path831"
     inkscape:connector-curvature="0" />
  <path
     style="fill:#ffffff;stroke-width:0.72249353"
     d="m 86.017039,75.177057 5.455167,-0.519538 1.40275,6.702053 c 0,0 0.348378,1.800237 2.078159,1.558621 1.8788,-0.262433 1.298848,-2.182068 1.298848,-2.182068 l -0.831265,-4.831712 c 0,0 -0.651191,-1.170288 -1.87034,-2.026204 -2.024507,-1.421326 -4.128864,-2.725474 -6.182515,-4.104357 -1.832759,-1.230566 -2.649646,-2.961373 -2.649646,-2.961373 l -1.87034,-8.936072 c 0,0 -1.27336,-5.742353 3.896537,-6.078608 1.417188,-0.09217 2.840521,-0.01516 4.260221,-0.05195 4.44874,-0.115285 5.611022,4.156313 5.611022,4.156313 l 1.922295,8.312625 -5.35125,0.415632 -0.987121,-5.091484 c 0,0 -0.175565,-2.696983 -2.285976,-2.493787 -1.667782,0.160578 -1.194939,2.597696 -1.194939,2.597696 l 0.779311,3.636772 c 0,0 0.405839,0.926669 1.402757,1.610572 2.266121,1.5546 4.47503,3.192112 6.754007,4.727806 1.913932,1.289704 2.389879,3.792634 2.389879,3.792634 l 1.61057,7.429409 c 0,0 1.34035,5.867429 -2.597701,7.169644 -1.29759,0.429081 -2.700997,0.419567 -4.052399,0.623447 -6.001372,0.905385 -7.117682,-4.364129 -7.117682,-4.364129 z"
     id="path833"
     inkscape:connector-curvature="0"
     sodipodi:nodetypes="cccsccssccssccccsccssccsscc" />
  <path
     style="fill:#ffffff;stroke:none;stroke-width:0.72249353px;stroke-linecap:butt;stroke-linejoin:miter;stroke-opacity:1"
     d="m 68.885344,52.2757 5.73097,30.197784 c 0,0 0.386302,2.850043 2.865482,2.498114 1.926369,-0.273457 1.102105,-3.453272 1.102105,-3.453272 l -5.584016,-29.3161 5.951391,-0.07348 5.657492,29.022198 c 0,0 2.583927,7.969956 -3.159385,9.110766 -1.710293,0.339717 -3.422082,0.675228 -5.143171,0.955159 -6.426305,1.045217 -7.494339,-5.657487 -7.494339,-5.657487 L 62.419641,52.349173 Z"
     id="path835"
     inkscape:connector-curvature="0"
     sodipodi:nodetypes="ccsccccssccc" />
  <path
     style="fill:#ffffff;stroke:none;stroke-width:0.72249353px;stroke-linecap:butt;stroke-linejoin:miter;stroke-opacity:1"
     d="m 52.280238,52.422649 7.126971,0.07348 c 0,0 5.7409,29.564455 6.024862,31.005996 0.863076,4.381396 0.711034,8.537237 -5.730964,9.625083 -1.858095,0.313778 -6.318755,0.440849 -6.318755,0.440849 l -1.028637,-6.612658 c 0,0 2.851459,-0.326986 4.261484,-0.587793 2.063731,-0.381721 1.836853,-2.498115 1.836853,-2.498115 z"
     id="path837"
     inkscape:connector-curvature="0"
     sodipodi:nodetypes="ccssccscc" />
  <path
     style="fill:#ffffff;stroke:none;stroke-width:0.72249353px;stroke-linecap:butt;stroke-linejoin:miter;stroke-opacity:1"
     d="m 129.55442,86.295192 6.23445,32.055578 8.05286,-2.18208 -1.03907,-5.03952 -4.0524,1.03907 -1.55862,-8.52044 3.79263,-0.72735 -1.03908,-4.83172 -3.63676,0.623448 -1.50667,-8.104811 3.84459,-0.519538 -1.09103,-4.935621 z"
     id="path839"
     inkscape:connector-curvature="0" />
  <path
     style="fill:#ffffff;stroke:none;stroke-width:0.72249353px;stroke-linecap:butt;stroke-linejoin:miter;stroke-opacity:1"
     d="m 126.69695,105.98573 4.20827,-0.98713 1.66254,8.26068 c 0,0 1.29154,5.65063 -2.64966,6.90987 -0.9291,0.29684 -2.16555,0.87749 -3.11725,1.09102 -5.73085,1.28589 -6.18252,-5.14343 -6.18252,-5.14343 l -4.2602,-21.872593 c 0,0 -1.3432,-5.861367 2.90941,-6.857917 1.17559,-0.275486 2.38638,-0.372525 3.58482,-0.519545 4.29044,-0.526343 5.14343,4.052409 5.14343,4.052409 l 1.76644,8.624348 -4.26022,0.727358 -1.14298,-6.286425 c 0,0 -0.36163,-2.078175 -2.07817,-1.818388 -1.61573,0.244536 -0.93515,2.857463 -0.93515,2.857463 l 3.68872,18.80732 c 0,0 0.20023,2.21112 2.07815,1.76643 1.43825,-0.34057 1.03908,-2.64965 1.03908,-2.64965 z"
     id="path841"
     inkscape:connector-curvature="0"
     sodipodi:nodetypes="cccssccssccccsccscc" />
</svg>
