<svg xmlns="http://www.w3.org/2000/svg" xml:space="preserve" id="svg16" version="1.1" viewBox="0 0 192 192"><defs id="defs4"><style id="style2">.a{fill:none;stroke:#b1b5bd;stroke-linecap:round;stroke-linejoin:round;isolation:isolate;opacity:.63}</style></defs><rect id="rect926" width="120" height="113" x="8" y="39.5" rx="40" ry="40" style="fill:#9abeff;stroke-width:9.99999;stroke-linecap:square"/><rect id="rect926-3" width="62.5" height="56.5" x="8" y="96" rx="10" ry="10" style="fill:#9abeff;stroke-width:9.99996;stroke-linecap:square"/><path id="path1216" d="m175.982 47.995-23.877 17.798a20.041 20.041 116.78 0 0-8.063 15.977l-.02 4.23a2187.816 2187.816 90 0 0 0 20l.02 4.23a20.041 20.041 63.22 0 0 8.064 15.977l23.876 17.798a5.018 5.018 153.351 0 0 8.018-4.023V52.018a5.018 5.018 26.649 0 0-8.018-4.023z" style="fill:#98dc9a;stroke-width:10;stroke-linecap:square"/><path id="path1242" d="M44 80h44" style="fill:#54688c;stroke:#fff;stroke-width:16;stroke-linecap:round;stroke-dasharray:none"/><path id="path1242-6" d="M44 104h12" style="fill:#54688c;stroke:#fff;stroke-width:16;stroke-linecap:round;stroke-dasharray:none"/></svg>