<?xml version="1.0" encoding="UTF-8" standalone="no"?>
<svg
   xmlns:dc="http://purl.org/dc/elements/1.1/"
   xmlns:cc="http://creativecommons.org/ns#"
   xmlns:rdf="http://www.w3.org/1999/02/22-rdf-syntax-ns#"
   xmlns:svg="http://www.w3.org/2000/svg"
   xmlns="http://www.w3.org/2000/svg"
   xmlns:sodipodi="http://sodipodi.sourceforge.net/DTD/sodipodi-0.dtd"
   xmlns:inkscape="http://www.inkscape.org/namespaces/inkscape"
   sodipodi:docname="kasa_smart.svg"
   inkscape:version="1.0.1 (3bc2e813f5, 2020-09-07)"
   version="1.1"
   id="svg2"
   viewBox="0 0 192 192"
   height="192"
   width="192"
   inkscape:export-filename="/home/jphilippe/inkscape/icônes/delta-github/png/kasa_smart.png"
   inkscape:export-xdpi="96"
   inkscape:export-ydpi="96">
  <sodipodi:namedview
     inkscape:document-rotation="0"
     inkscape:window-maximized="1"
     inkscape:window-y="30"
     inkscape:window-x="1920"
     inkscape:window-height="1022"
     inkscape:window-width="1680"
     units="px"
     showgrid="false"
     inkscape:current-layer="layer1"
     inkscape:document-units="px"
     inkscape:cy="218.7362"
     inkscape:cx="71.324199"
     inkscape:zoom="1.4142136"
     inkscape:pageshadow="2"
     inkscape:pageopacity="0.0"
     borderopacity="1.0"
     bordercolor="#666666"
     pagecolor="#ffffff"
     id="base"
     inkscape:snap-bbox="false"
     inkscape:object-paths="true"
     inkscape:snap-nodes="true"
     showguides="true"
     inkscape:guide-bbox="true"
     inkscape:snap-object-midpoints="true"
     inkscape:snap-center="true"
     inkscape:snap-global="true"
     inkscape:snap-intersection-paths="true"
     inkscape:snap-smooth-nodes="true"
     inkscape:snap-midpoints="true" />
  <defs
     id="defs4" />
  <metadata
     id="metadata7">
    <rdf:RDF>
      <cc:Work
         rdf:about="">
        <dc:format>image/svg+xml</dc:format>
        <dc:type
           rdf:resource="http://purl.org/dc/dcmitype/StillImage" />
        <dc:title />
      </cc:Work>
    </rdf:RDF>
  </metadata>
  <g
     transform="translate(0,-860.36216)"
     id="layer1"
     inkscape:groupmode="layer"
     inkscape:label="Calque 1">
    <rect
       style="fill:#96dfd3;fill-opacity:1;fill-rule:evenodd;stroke:none;stroke-width:0.993464;stroke-opacity:1"
       width="152"
       height="152"
       x="20"
       y="880.36218"
       rx="9.9346409"
       id="rect987"
       ry="9.9346409" />
    <path
       id="path991"
       style="fill:#ffffff;fill-opacity:1;stroke-width:64.4231;stroke-linecap:square;stroke-linejoin:round;stroke-miterlimit:2;stroke-dashoffset:6;paint-order:stroke fill markers;stop-color:#000000"
       d="m 92.007306,921.51569 -28.7339,28.7339 a 12.493087,12.493087 0 0 0 -3.659,8.834 v 27.4056 a 6.3822614,6.3822614 0 0 0 6.3823,6.3822 h 60.005904 a 6.3822614,6.3822614 0 0 0 6.3824,-6.3822 v -27.4056 a 12.493087,12.493087 0 0 0 -3.6591,-8.834 l -28.734004,-28.7339 a 5.6460992,5.6460992 0 0 0 -7.9846,0 z" />
    <path
       id="path993"
       style="fill:none;stroke:#96dfd3;stroke-width:5.5198;stroke-linecap:square;stroke-linejoin:round;stroke-miterlimit:4;stroke-dasharray:none;stroke-dashoffset:6;stroke-opacity:1;paint-order:stroke fill markers;stop-color:#000000"
       d="m 56.818506,938.50819 c -0.1175,0 -0.2362,0 -0.3533,0.011 -1.1025,0.082 -2.0685,0.7497 -2.7672,1.5728 -0.5876,0.5878 -1.1757,1.1753 -1.7633,1.7634 v 65.51631 c 11.7196,0 23.4394,0 35.1589,-0.011 2.0125,-0.1193 3.8244,-1.8395 3.9546,-3.8687 0.09,-1.0782 -10e-5,-2.1604 0.033,-3.2404 0,-8.42461 0.015,-16.84941 -0.023,-25.27361 -0.06,-0.9978 -0.2727,-1.9853 -0.6211,-2.9217 -0.062,-0.171 -0.1769,-0.4508 -0.2704,-0.6597 -0.154,-0.3403 -0.3362,-0.699 -0.5052,-0.983 -0.5738,-1.0124 -1.3409,-1.9011 -2.1925,-2.6892 -9.4579,-9.4548 -18.9052,-18.9199 -28.3813,-28.3564 -0.6216,-0.5447 -1.4432,-0.8427 -2.2673,-0.8609 z" />
    <path
       id="path995"
       style="fill:none;stroke:#96dfd3;stroke-width:5.5198;stroke-linecap:square;stroke-linejoin:round;stroke-miterlimit:4;stroke-dasharray:none;stroke-dashoffset:6;stroke-opacity:1;paint-order:stroke fill markers;stop-color:#000000"
       d="m 76.510406,928.31889 c -1.5901,0.026 -3.122,0.7867 -4.1728,1.9681 -6.8029,6.8047 -13.6052,13.6097 -20.4074,20.4151 v 50.62351 c 18.3238,10e-5 36.6471,0 54.970804,-0.011 2.3843,-0.068 4.6536,-1.60771 5.5905,-3.80351 0.4625,-1.0319 0.5935,-2.1777 0.5409,-3.2984 0,-9.0496 0.011,-18.0996 -0.011,-27.1489 -0.1078,-3.256 -1.5677,-6.4321 -3.9423,-8.6582 -9.532904,-9.5308 -19.060404,-19.0672 -28.600504,-28.5903 -1.0602,-0.9935 -2.5193,-1.5401 -3.9707,-1.5025 z" />
  </g>
  <style
     type="text/css"
     id="style853">
	.st0{fill:#FFFFFF;}
</style>
  <style
     type="text/css"
     id="style853-9">
	.st0{fill:#FFFFFF;}
</style>
  <style
     type="text/css"
     id="style853-3">
	.st0{fill:#FFFFFF;}
</style>
</svg>
