<svg xmlns="http://www.w3.org/2000/svg" viewBox="0 0 192 192"><title>Keybase</title><rect x="19.5" y="19.5" width="153" height="153" rx="10" fill="#9abeff"/><path d="M67.22,75.4a6.14,6.14,0,0,1-5.74-6.47l.46-7.36a6.14,6.14,0,0,1,6.11-5.75l.36,0,7.36.45a6.12,6.12,0,0,1,5.73,6.5l-.45,7.33a4.32,4.32,0,0,1-.16.95l-.26,1.28-4.85,3.58Z" fill="#98dc9a"/><path d="M68.05,52.13a9.83,9.83,0,0,0-9.8,9.21l-.46,7.35h0v0A9.84,9.84,0,0,0,67,79.09l7.21.45,2.69.17,2.17-1.61,2.62-1.94L84,74.48l.53-2.56a8.33,8.33,0,0,0,.25-1.56L85.19,63A9.8,9.8,0,0,0,76,52.6l-7.34-.45h-.6m5.5,16,.27-4.37-4.38-.27-.27,4.37,4.38.27m-5.5-8.65h.15l7.34.45a2.43,2.43,0,0,1,2.27,2.57l-.45,7.35c0,.11,0,.21-.07.32l-2.62,1.94-7.22-.45a2.44,2.44,0,0,1-2.28-2.56l.46-7.35a2.43,2.43,0,0,1,2.42-2.28" fill="#56595b"/><path d="M98.37,91.48A52.1,52.1,0,0,0,55,172.5h88.78c4.67-8.53,6.66-18.64,6.66-28.92,0-26.63-23.32-52.1-52.1-52.1" fill="#fff"/><path d="M98.37,87.78a55.77,55.77,0,0,0-47.7,84.72h8.91A48.38,48.38,0,0,1,98.37,95.18c12.68,0,24.82,5.31,34.19,14.94,9,9.29,14.21,21.49,14.21,33.46,0,8.2-1.35,19.34-7.24,28.92H148c4.07-8.2,6.19-18,6.19-28.92,0-13.88-5.94-28-16.31-38.61-10.77-11.08-24.8-17.19-39.49-17.19" fill="#56595b"/><path d="M87.85,158.71a5,5,0,1,1-5-5,5,5,0,0,1,5,5" fill="#56595b"/><path d="M118.89,158.71a5,5,0,1,1-5-5,5,5,0,0,1,5,5" fill="#56595b"/><path d="M41.53,156.72l27.76-29.44-6.68,20.95C84.28,132.45,107,135,123.06,139.65c17,5,28.91-10,17.25-26a54.76,54.76,0,0,0-21.76-17.78c-22.63-10-45.39-4.19-60.74,11.32-16.26,16.42-16.28,34.64-16.28,49.57" fill="#f8c18c"/><path d="M95.76,94.56a47.13,47.13,0,0,0-9.56,1,50.64,50.64,0,0,0-25.76,14.22c-12,12.18-14.56,25.25-15.08,37.52l32.39-34.36-8.57,26.88c16.11-8.42,34.54-9.67,54.92-3.68,6.48,1.9,12.36.46,15.34-3.77s2.27-10.53-2.12-16.56a51.34,51.34,0,0,0-20.27-16.57,52.54,52.54,0,0,0-21.29-4.65M37.83,166v-9.31c0-15.43,0-34.64,17.35-52.17a56.68,56.68,0,0,1,64.87-12.09,58.78,58.78,0,0,1,23.26,19c6.24,8.58,7.07,18.22,2.18,25.17-4.79,6.79-14,9.38-23.47,6.6-21.85-6.42-41.11-3.72-57.24,8l-9.13,6.64,5.17-16.21Z" fill="#56595b"/><path d="M111.67,88.71A18.16,18.16,0,0,1,90,99.58c-10-2.8-15.22-10.81-14-21s8.08-19,16-29.87c-6.46,13.76-1,15,.76,15a22.4,22.4,0,0,1,7.79,1.4,18,18,0,0,1,11.14,23.59" fill="#f8c18c"/><path d="M86.17,63.48c-3.42,5.35-5.81,10.33-6.47,15.59-1,8.33,3.19,14.67,11.3,17a14.41,14.41,0,0,0,17.22-8.64,14.34,14.34,0,0,0-8.85-18.75,19.07,19.07,0,0,0-6.48-1.22,7.13,7.13,0,0,1-6.29-3.18,6.93,6.93,0,0,1-.43-.75m8.59,40.46a21.19,21.19,0,0,1-5.77-.8,22,22,0,0,1-16.63-25c1.29-10.39,7.69-19.24,15.11-29.48L89,46.58l6.35,3.73C92.2,57,92.55,59.45,92.72,60a26.69,26.69,0,0,1,9,1.61A21.72,21.72,0,0,1,115.13,90a21.92,21.92,0,0,1-20.37,13.91" fill="#56595b"/><path d="M102.33,121.46A4.26,4.26,0,0,1,99,119.88l-2.49-3A4.29,4.29,0,0,1,97,111a4.38,4.38,0,0,1-1.42-1.12l-.56-.7a4.28,4.28,0,0,1,.6-6l.36-.3-3.64-4.47a4.65,4.65,0,0,1,7.21-5.88L115,111.61a4.65,4.65,0,0,1-.67,6.54,4.72,4.72,0,0,1-1.89.93,4.63,4.63,0,0,1-1,.12h0a4.63,4.63,0,0,1-3.22-1.3L105,120.49a4.26,4.26,0,0,1-2.71,1" fill="#98dc9a"/><path d="M101.84,90.56A7.68,7.68,0,1,0,90,100.28l2,2.48a7.31,7.31,0,0,0,.65,8.3l.38.47a7.32,7.32,0,0,0,1.17,7.22l2.49,3a7.31,7.31,0,0,0,10.29,1l1.49-1.22a7.79,7.79,0,0,0,3,.6,7.24,7.24,0,0,0,1.73-.2,7.67,7.67,0,0,0,4.22-12.33L101.85,90.58Zm-6,3.23a1.66,1.66,0,0,1,1.27.6l15.53,19.12a1.62,1.62,0,0,1-.23,2.29,1.64,1.64,0,0,1-.66.33,1.55,1.55,0,0,1-.37,0,1.6,1.6,0,0,1-1.26-.6l-1.55-1.9-5.49,4.48a1.27,1.27,0,0,1-1.79-.18l-2.48-3a1.24,1.24,0,0,1,.18-1.76l5.52-4.51-2.26-2.78-2.73,2.23a1.14,1.14,0,0,1-.76.27,1.2,1.2,0,0,1-.93-.44l-.57-.69a1.26,1.26,0,0,1,.18-1.77l2.7-2.2-5.56-6.82a1.63,1.63,0,0,1,1.26-2.66" fill="#56595b"/></svg>