<svg xmlns="http://www.w3.org/2000/svg" id="svg2" width="192" height="192" version="1.1"><g id="layer1" transform="translate(0 -860.362)"><rect id="rect3029-2" width="152" height="152" x="20" y="880.362" rx="9.935" style="fill:#99bdfe;fill-opacity:1;fill-rule:evenodd;stroke:none;stroke-width:.993464"/><rect id="rect1081" width="109.85" height="30.665" x="41.075" y="970.541" rx="5" ry="5" style="fill:#fff;fill-opacity:1;stroke-width:6.5;stroke-linecap:round;stroke-linejoin:round;stroke-dashoffset:6;paint-order:stroke fill markers;stop-color:#000"/><text xml:space="preserve" id="text1087" x="53.706" y="995.275" style="font-style:normal;font-variant:normal;font-weight:700;font-stretch:normal;font-size:25.0726px;line-height:1.25;font-family:Now;-inkscape-font-specification:&quot;Now Bold&quot;;letter-spacing:0;word-spacing:0;fill:#99bdfe;fill-opacity:1;stroke-width:1"><tspan id="tspan1085" x="53.706" y="995.275" style="fill:#99bdfe;fill-opacity:1;stroke-width:1">AUTOS</tspan></text><g id="g1115" transform="translate(-.186 -.24)"><path id="path971" d="M77.254 931.639v19.825a.703.703 0 0 0 .702.702h4.927a.703.703 0 0 0 .702-.702v-20.609a.703.703 0 0 0-.796-.677l-4.927.784a.703.703 0 0 0-.608.698m29.198-.021v19.825a.707.707 0 0 0 .702.703h4.948a.703.703 0 0 0 .703-.703v-20.609a.703.703 0 0 0-.819-.677l-4.926.784a.703.703 0 0 0-.608.698m29.21-.021v19.825a.707.707 0 0 0 .703.703h4.926a.703.703 0 0 0 .703-.703v-20.609a.703.703 0 0 0-.81-.677l-4.926.784a.703.703 0 0 0-.596.677" style="fill:#fff;fill-opacity:1;stroke-width:1"/><path id="path973" fill="#f8aa17" d="M80.428 916.68a4.36 4.36 0 1 0 4.361 4.361 4.36 4.36 0 0 0-4.36-4.36" style="fill:#fff;fill-opacity:1;stroke-width:2.80584"/><path id="path975" fill="#f1454f" d="M95.04 911.758a4.36 4.36 0 1 0 4.36 4.361 4.36 4.36 0 0 0-4.36-4.36" style="fill:#fff;fill-opacity:1;stroke-width:2.80584"/><path id="path977" fill="#2681db" d="M109.652 916.68a4.36 4.36 0 1 0 4.36 4.361 4.36 4.36 0 0 0-4.36-4.36" style="fill:#fff;fill-opacity:1;stroke-width:2.80584"/><path id="path979" fill="#37a864" d="M124.263 911.758a4.36 4.36 0 1 0 4.361 4.361 4.36 4.36 0 0 0-4.36-4.36" style="fill:#fff;fill-opacity:1;stroke-width:2.80584"/><path id="path981" fill="#9b44ad" d="M138.88 925.402a4.36 4.36 0 1 0-4.361-4.361 4.36 4.36 0 0 0 4.36 4.36" style="fill:#fff;fill-opacity:1;stroke-width:2.80584"/><path id="path1100" d="m126.817 925.676-5.06-.54a.638.638 0 0 0-.702.634v27.056a18.574 18.574 0 0 1-.099 1.966 4.66 4.66 0 0 1-.428 1.581 2.536 2.536 0 0 1-.947 1.041 3.089 3.089 0 0 1-1.627.381 7.39 7.39 0 0 1-.789-.047h-.09l-.377-.055-.364-.078-.175-.042a.514.514 0 0 0-.69.484c-.039.394-.557 3.92-.591 4.236-.034.317.111.557.582.694.3.09 3.984 1.003 7.506-.514a6.383 6.383 0 0 0 2.72-2.334 8.812 8.812 0 0 0 1.353-3.427 23.2 23.2 0 0 0 .352-4.117v-26.272a.634.634 0 0 0-.574-.647z" style="fill:#fff;fill-opacity:1;stroke-width:1"/><path id="path1098" d="M98.188 928.135v-2.3a.703.703 0 0 0-.8-.699l-4.927.784a.703.703 0 0 0-.608.698v26.208a18.574 18.574 0 0 1-.099 1.966 4.66 4.66 0 0 1-.428 1.581 2.536 2.536 0 0 1-.947 1.041 3.089 3.089 0 0 1-1.628.381 7.385 7.385 0 0 1-.788-.047h-.09l-.377-.055-.364-.078-.175-.042a.514.514 0 0 0-.69.45c-.039.394-.557 3.919-.591 4.236-.035.317.111.557.582.694.3.09 3.984 1.002 7.505-.514a6.383 6.383 0 0 0 2.72-2.335 8.812 8.812 0 0 0 1.354-3.427 23.2 23.2 0 0 0 .351-4.116v-24.418z" style="fill:#fff;fill-opacity:1;stroke-width:1"/><path id="path983" d="m62.184 937.2 9.308-10.877a.707.707 0 0 0-.514-1.174H64.75a.707.707 0 0 0-.549.261l-8.07 9.759c-.244.3-.681.261-.681-.232v-20.48a.703.703 0 0 0-.703-.703l-4.913.737a.703.703 0 0 0-.703.694v36.279a.703.703 0 0 0 .703.702h4.913a.703.703 0 0 0 .703-.702v-11.138c0-.574.368-.732.732-.214l8.696 11.755a.703.703 0 0 0 .579.3h6.031a.703.703 0 0 0 .561-1.131l-9.895-13.186c-.231-.317-.231-.317.03-.65z" style="fill:#fff;fill-opacity:1;stroke-width:1"/></g></g><style id="style853" type="text/css">.st0{fill:#fff}</style></svg>