<svg xmlns="http://www.w3.org/2000/svg" xmlns:xlink="http://www.w3.org/1999/xlink" viewBox="0 0 176 127"><title>KION</title><defs><linearGradient id="a" x1="-53.52" y1="-36.67" x2="178.59" y2="127.62" gradientUnits="userSpaceOnUse"><stop offset="0" stop-color="#54688c"/><stop offset="1" stop-color="#ba6561"/></linearGradient></defs><rect width="176" height="127" rx="10" fill="url(#a)"/><path d="M75.3,82.76v26.46a1.07,1.07,0,0,1-1.07,1.07h-6.9a1.07,1.07,0,0,1-1.07-1.07V82.76a1.07,1.07,0,0,1,1.07-1.07h6.9A1.07,1.07,0,0,1,75.3,82.76ZM64.51,109.09l-8-13.75,7.62-12.4a.79.79,0,0,0-.65-1.25l-8.38,0a.8.8,0,0,0-.66.35L48.49,92.12H45V82.76A1.07,1.07,0,0,0,44,81.69H37.07A1.07,1.07,0,0,0,36,82.76v26.46a1.07,1.07,0,0,0,1.07,1.07H44A1.06,1.06,0,0,0,45,109.22V99.91h4.21l5.88,10a.79.79,0,0,0,.68.39h8A.79.79,0,0,0,64.51,109.09Zm90.42,1.2a1.07,1.07,0,0,0,1.07-1.07V82.76a1.07,1.07,0,0,0-1.07-1.07h-6.65a1.06,1.06,0,0,0-1.06,1.07l0,13.54L135.19,81.71h-7.67a1.07,1.07,0,0,0-1.07,1.07v26.46a1.07,1.07,0,0,0,1.07,1.07h6.63a1.07,1.07,0,0,0,1.07-1.07V95.69l11.95,14.6ZM123.69,82.87v26.24a1.18,1.18,0,0,1-1.18,1.18H79.24a1.18,1.18,0,0,1-1.18-1.18V82.87a1.18,1.18,0,0,1,1.18-1.18h43.27A1.18,1.18,0,0,1,123.69,82.87Zm-9,6.43a.38.38,0,0,0-.45-.37c-4.68.93-21.23,1.08-26.78,0a.37.37,0,0,0-.44.37v13a.38.38,0,0,0,.43.38c4.6-.69,22.1-.57,26.82,0a.38.38,0,0,0,.42-.37v-13Z" transform="translate(-8 -32.5)" fill="#eee"/></svg>