<svg xmlns="http://www.w3.org/2000/svg" id="svg2" width="192" height="192" version="1.1"><g id="layer1" transform="translate(0 -860.362)"><path id="path949" d="M64.452 898.991 10.07 954.189a3.096 3.096 0 0 0 0 4.346l54.382 55.197a7.287 7.287 0 0 0 5.19 2.173h111.902a1.277 1.277 0 0 0 .91-2.173l-56.523-57.37 56.522-57.371a1.277 1.277 0 0 0-.91-2.173h-111.9a7.287 7.287 0 0 0-5.191 2.173z" style="fill:#ff837d;fill-opacity:1;stroke-width:5.65505;stroke-linecap:round;stroke-linejoin:round;stop-color:#000"/><path id="path975" d="M67.062 1015.433a7.287 7.287 0 0 0 2.58.473h111.902a1.277 1.277 0 0 0 .91-2.172l-56.523-57.372z" style="fill:#ba6561;fill-opacity:1;stroke-width:5.65505;stroke-linecap:round;stroke-linejoin:round;stop-color:#000"/></g><style id="style853" type="text/css">.st0{fill:#fff}</style></svg>