<svg xmlns="http://www.w3.org/2000/svg" id="svg2" width="192" height="192" version="1.1"><g id="layer1" transform="translate(0 -860.362)"><rect id="rect949" width="152" height="152" x="20" y="880.362" rx="9.935" ry="9.935" style="fill:#8c72bd;fill-opacity:1;fill-rule:evenodd;stroke:none;stroke-width:.993464;stroke-opacity:1"/><path id="path933" d="M84.41 927.424c-.248.523-.308 1.141-.32 1.816l-.004.342v.947h16.046c7.035 0 15.084-.678 22.022-4.02.253-.121.548.119.501.372l-.028.085-3.323 8.168c-1.74 3.826-5.82 5.308-19.763 5.355l-.694.001H84.086v13.772l27.63-7.551c.58-.154 3.467-.747 5.327 1.278 2.09 2.275 4.06 4.35 5.41 6.29.372.457.22.861-.372.696-.566-.159-1.969-.156-3.16.168l-1.156.312-.017.004.001 19.082 8.734-.006c4.526 0 4.759-.546 5.417-1.006.199-.138.526-.15.585.132.06.283-.044.526-.712 1.835-.666 1.306-2.943 5.298-4.342 7.033-.872 1.088-3.353 3.565-7.904 3.734l-.496.009H72.968c-4.868 0-7.496-2.616-8.4-3.743-1.398-1.735-3.675-5.727-4.34-7.033-.669-1.309-.774-1.553-.713-1.835.06-.283.386-.27.584-.132.638.445.877.97 4.993 1.004l.424.002 8.736.006-.002-38.66c0-1.364.391-2.843 2.14-4.248 2.167-1.74 5.523-3.904 7.696-5.109.337-.186.826-.054.324.9zm23.505 30.703-23.828 6.462v9.953h23.828z" style="fill:#fff;fill-rule:nonzero;stroke:none;stroke-width:1.5742"/></g><style id="style853" type="text/css">.st0{fill:#fff}</style></svg>