<svg xmlns="http://www.w3.org/2000/svg" id="svg2" width="192" height="192" version="1.1"><g id="layer1" transform="translate(0 -860.362)"><path id="path829" d="M116.11 888.33c-.765 0-1.516.2-2.165.602 0 0-5.396 3.225-10.773 8.602-2.52 2.52-5.108 5.587-7.172 9.109-2.064-3.522-4.652-6.59-7.172-9.11-5.377-5.376-10.773-8.6-10.773-8.6a4.002 4.002 0 0 0-2.282-.594c-3.983.184-5.274 5.446-1.828 7.453 0 0 4.604 2.775 9.227 7.398C87.795 907.813 92 914.03 92 920.362v11.015c-9.865-12.04-37.381-43.015-60-43.015-12 0-12 12-12 12v44c0 20 28 28 28 28s-12 8-12 24c0 14.174 12 28 32 28s28-16 28-16 8 16 28 16 32-13.826 32-28c0-16-12-24-12-24s28-8 28-28v-44s0-12-12-12c-22.619 0-50.135 30.976-60 43.015v-11.015c0-6.333 4.205-12.549 8.828-17.172 4.623-4.623 9.227-7.398 9.227-7.398 3.51-2.035 2.111-7.4-1.946-7.461z" style="fill:#728dbe;stroke-width:4"/><path id="path856" d="M92 972.362H64c-8 0-20 8-20 24 0 10.414 12 20 24 20 24 0 24-24 24-24z" style="fill:#fff;stroke-width:4"/><path id="path858" d="M56 964.362h36c0-20-32-66-60-66-4 0-4 4-4 4v38s0 24 28 24z" style="fill:#fff;stroke-width:4"/><path id="path856-7" d="M100 972.362h28c8 0 20 8 20 24 0 10.414-12 20-24 20-24 0-24-24-24-24z" style="fill:#fff;stroke-width:4"/><path id="path858-5" d="M136 964.362h-36c0-20 32-66 60-66 4 0 4 4 4 4v38s0 24-28 24z" style="fill:#fff;stroke-width:4"/></g><style id="style853" type="text/css">.st0{fill:#898989}.st1{fill:#fff}</style></svg>