<?xml version="1.0" encoding="UTF-8" standalone="no"?>
<svg
   viewBox="0 0 192 192"
   version="1.1"
   id="svg16"
   sodipodi:docname="koler.svg"
   inkscape:version="1.2 (dc2aedaf03, 2022-05-15)"
   xml:space="preserve"
   inkscape:export-filename="koler.png"
   inkscape:export-xdpi="96"
   inkscape:export-ydpi="96"
   xmlns:inkscape="http://www.inkscape.org/namespaces/inkscape"
   xmlns:sodipodi="http://sodipodi.sourceforge.net/DTD/sodipodi-0.dtd"
   xmlns="http://www.w3.org/2000/svg"
   xmlns:svg="http://www.w3.org/2000/svg"
   xmlns:rdf="http://www.w3.org/1999/02/22-rdf-syntax-ns#"
   xmlns:cc="http://creativecommons.org/ns#"
   xmlns:dc="http://purl.org/dc/elements/1.1/"><metadata
     id="metadata20"><rdf:RDF><cc:Work
         rdf:about=""><dc:format>image/svg+xml</dc:format><dc:type
           rdf:resource="http://purl.org/dc/dcmitype/StillImage" /><dc:title /></cc:Work></rdf:RDF></metadata><sodipodi:namedview
     pagecolor="#ffffff"
     bordercolor="#666666"
     borderopacity="1"
     objecttolerance="10"
     gridtolerance="10"
     guidetolerance="10"
     inkscape:pageopacity="0"
     inkscape:pageshadow="2"
     inkscape:window-width="1884"
     inkscape:window-height="1052"
     id="namedview18"
     showgrid="false"
     inkscape:zoom="1.2291667"
     inkscape:cx="-50.440678"
     inkscape:cy="91.118643"
     inkscape:window-x="36"
     inkscape:window-y="0"
     inkscape:window-maximized="1"
     inkscape:current-layer="svg16"
     inkscape:snap-global="false"
     inkscape:showpageshadow="0"
     inkscape:pagecheckerboard="0"
     inkscape:deskcolor="#d1d1d1"><inkscape:grid
       type="xygrid"
       id="grid827"
       spacingx="4"
       spacingy="4" /></sodipodi:namedview><defs
     id="defs4"><style
       id="style2">.a{fill:none;stroke:#b1b5bd;stroke-linecap:round;stroke-linejoin:round;isolation:isolate;opacity:0.63;}</style></defs><rect
     class="a"
     x="20"
     y="-229.76271"
     width="152"
     height="152"
     rx="10"
     id="rect6"
     style="opacity:1;fill:#bd9aff;stroke:none" /><rect
     class="a"
     x="20"
     y="-229.76271"
     width="152"
     height="152"
     rx="10"
     id="rect6-2"
     style="opacity:0.75;isolation:isolate;fill:#ff837d;stroke:none;stroke-linecap:round;stroke-linejoin:round" /><path
     style="fill:#ffffff;stroke-width:0.3125"
     d="m 69.857422,-184.94435 c -3.004676,0.0939 -5.010832,2.51142 -4.960938,6.33789 0.03782,2.90071 -0.65604,7.43295 2.621676,7.85969 2.613245,0.34023 5.004805,-2.84914 6.895453,-4.79048 1.911261,-1.96251 6.419226,-5.02726 4.301093,-7.61554 -1.654871,-2.02219 -5.61636,-1.8929 -8.857284,-1.79156 z m 12.851677,6.96829 c -2.27827,1.78694 -3.174394,2.82811 -5.232426,4.77244 -3.309348,3.12652 -6.466066,6.20372 -8.949629,9.11204 -0.478816,0.5607 -1.566485,1.46702 0.0048,5.29566 0.804684,1.96077 1.512564,4.15161 2.941273,4.98214 2.845489,1.65413 5.808709,-2.73924 7.838666,-4.78488 2.730511,-2.75161 5.601523,-4.86048 7.419125,-7.84172 1.826933,-2.99654 0.35695,-6.38737 -0.02127,-9.7256 -0.200655,-1.77103 -2.082627,-3.31434 -4.000499,-1.81008 z m -1.888926,23.61444 c -1.364083,1.28072 -2.400599,2.34553 -4.455097,4.31358 -2.019016,1.93406 0.213127,4.53674 3.813671,8.33592 2.81308,2.96824 6.285211,6.58705 9.891707,8.56192 2.184956,1.19645 5.306036,-2.8005 7.173227,-4.67198 2.971889,-2.97871 -1.21667,-4.93461 -3.169109,-6.52492 -3.720755,-3.03065 -5.760149,-5.84043 -8.973249,-9.36976 -1.421805,-1.56174 -2.665073,-2.16208 -4.28115,-0.64476 z m 31.507947,9.73172 c -3.80254,0.0609 -6.1962,3.54403 -8.67815,5.92781 -2.5684,2.46682 -4.154441,3.58201 -6.762143,6.7462 -2.648088,3.21319 1.522027,5.22248 7.319733,7.00506 2.79483,0.8593 5.23566,-2.76416 7.02184,-4.6082 3.87216,-3.99756 6.79036,-6.79991 9.52229,-9.88774 2.83924,-3.20913 -1.07667,-4.91956 -4.94644,-5.15862 -0.8475,-0.0524 -2.62695,-0.0293 -3.47713,-0.0245 z m 12.20082,8.08079 c -3.1549,0.48536 -6.03194,4.80561 -8.25468,6.99555 -2.38147,2.34633 -5.24673,5.31059 -1.1514,6.75809 2.9393,1.03889 6.39394,1.55924 9.39667,0.42039 3.46716,-1.315 3.52736,-4.60058 3.26796,-7.35763 -0.25724,-2.73401 -0.14386,-7.29557 -3.25855,-6.8164 z"
     id="path845"
     inkscape:connector-curvature="0"
     sodipodi:nodetypes="ssssssssssssssssssssssscssssssccssssss" /><rect
     class="a"
     x="20"
     y="20"
     width="152"
     height="152"
     rx="10"
     id="rect1599"
     style="fill:#ff837d;stroke:none;opacity:1;fill-opacity:1" /><path
     style="opacity:1;fill:#ffffff;stroke-width:0.361984"
     d="m 65.659222,59.817335 c -3.480463,0.108769 -5.804291,2.9091 -5.746497,7.341488 0.04381,3.360034 -0.759923,8.609949 3.036816,9.104263 3.027049,0.394105 5.79731,-3.300298 7.98734,-5.549047 2.213907,-2.273272 7.435703,-5.823322 4.982166,-8.821453 -1.916918,-2.342401 -6.505704,-2.192638 -10.259825,-2.075251 z m 14.886726,8.071711 c -2.639031,2.0699 -3.677056,3.275938 -6.060975,5.52815 -3.833379,3.621601 -7.48996,7.186072 -10.366793,10.554922 -0.554636,0.649486 -1.814536,1.699321 0.0056,6.134222 0.932105,2.271255 1.752077,4.809012 3.407021,5.771056 3.296069,1.91606 6.728511,-3.172996 9.07991,-5.542561 3.162884,-3.187324 6.488518,-5.630131 8.593935,-9.083447 2.116226,-3.471039 0.413473,-7.398803 -0.02464,-11.265638 -0.232429,-2.051471 -2.412409,-3.839162 -4.633974,-2.096704 z m -2.188035,27.35376 c -1.580084,1.483521 -2.780731,2.716942 -5.160557,4.996634 -2.338725,2.24031 0.246875,5.25512 4.417562,9.6559 3.258528,3.43826 7.280467,7.6301 11.458047,9.91769 2.530942,1.38591 6.146241,-3.24396 8.3091,-5.41178 3.442485,-3.45039 -1.409328,-5.716 -3.670934,-7.55814 -4.309932,-3.51055 -6.672262,-6.76525 -10.394153,-10.853447 -1.646946,-1.80904 -3.087084,-2.504443 -4.959065,-0.746857 z m 36.497197,11.272724 c -4.40467,0.0705 -7.17736,4.10523 -10.05233,6.86647 -2.9751,2.85744 -4.812289,4.14922 -7.832918,7.81446 -3.06741,3.72199 1.763038,6.04945 8.478808,8.1143 3.23738,0.99537 6.06472,-3.20186 8.13374,-5.3379 4.48531,-4.63057 7.8656,-7.87667 11.03013,-11.45346 3.28883,-3.71729 -1.24716,-5.69856 -5.7297,-5.97548 -0.9817,-0.0607 -3.04293,-0.0339 -4.02773,-0.0284 z m 14.1328,9.36038 c -3.65447,0.56221 -6.98709,5.56657 -9.56179,8.10328 -2.75858,2.71787 -6.07755,6.15152 -1.33373,7.82823 3.40474,1.2034 7.40642,1.80614 10.88462,0.48696 4.01619,-1.52323 4.08592,-5.32908 3.78544,-8.5227 -0.29797,-3.16694 -0.16664,-8.45082 -3.77454,-7.89577 z"
     id="path1603"
     inkscape:connector-curvature="0"
     sodipodi:nodetypes="ssssssssssssssssssssssscssssssccssssss" /></svg>
