<?xml version="1.0" encoding="UTF-8" standalone="no"?>
<!DOCTYPE svg PUBLIC "-//W3C//DTD SVG 1.1//EN" "http://www.w3.org/Graphics/SVG/1.1/DTD/svg11.dtd">
<svg width="100%" height="100%" viewBox="0 0 192 192" version="1.1" xmlns="http://www.w3.org/2000/svg" xmlns:xlink="http://www.w3.org/1999/xlink" xml:space="preserve" xmlns:serif="http://www.serif.com/" style="fill-rule:evenodd;clip-rule:evenodd;stroke-linejoin:round;stroke-miterlimit:2;">
    <g id="Layer1">
        <g transform="matrix(1,0,0,1,8,8)">
            <circle cx="88" cy="88" r="88" style="fill:rgb(152,220,154);"/>
        </g>
        <path d="M26.883,150.448L71.784,105.964C70.517,102.893 69.818,99.527 69.818,96C69.818,81.55 81.55,69.818 96,69.818C110.45,69.818 122.182,81.55 122.182,96C122.182,99.527 121.483,102.893 120.216,105.964L165.117,150.448C162.464,153.81 159.57,156.975 156.465,159.913L112.655,116.51L96,90.24L79.345,116.51L35.535,159.913C32.429,156.973 29.537,153.81 26.883,150.448Z" style="fill:white;"/>
    </g>
</svg>
