<?xml version="1.0" encoding="utf-8"?>
<!-- Generator: Adobe Illustrator 16.0.0, SVG Export Plug-In . SVG Version: 6.00 Build 0)  -->
<!DOCTYPE svg PUBLIC "-//W3C//DTD SVG 1.1//EN" "http://www.w3.org/Graphics/SVG/1.1/DTD/svg11.dtd">
<svg version="1.1" id="Layer_1" xmlns="http://www.w3.org/2000/svg" xmlns:xlink="http://www.w3.org/1999/xlink" x="0px" y="0px"
	 width="192px" height="192px" viewBox="0 0 192 192" enable-background="new 0 0 192 192" xml:space="preserve">
<g>
	<path fill="#FF857E" d="M182,150.148C182,167.739,167.739,182,150.148,182H41.852C24.261,182,10,167.739,10,150.148V41.852
		C10,24.261,24.261,10,41.852,10h108.296C167.739,10,182,24.261,182,41.852V150.148z"/>
	<g>
		<g>
			<path fill="#C2625D" d="M45.254,70.025c6.25,2.032,12.839,0.282,17.32-3.987l-4.336-7.064l-0.29,0.193
				c-2.514,1.703-5.94,1.684-8.475-0.282c-3.152-2.445-3.729-6.829-1.29-9.974c0,0,2.626-3.911,11.12-3.911H71v59h-8v11h30v-11h-7
				V84h14.579c0,0,11.257,22.693,11.264,22.706c1.809,3.384,4.216,6.354,7.514,7.916c3.334,1.578,7.198,1.492,10.797,1.019
				c3.351-0.441,4.847-0.869,6.847-1.724v-12.144c-8,3.185-11.193-4.479-11.193-4.479l-11.17-20.289L126.379,53H133V41h-29v12h5.921
				c-2.275,5-9.242,20-9.242,20H86V34H62.688c-2.933,0-6.112,0.104-9.015,0.54c-2.593,0.39-5.169,0.79-7.638,1.691
				c-5.326,1.944-9.512,5.86-11.563,11.17c-2.053,5.317-1.521,10.767,1.444,15.556C37.99,66.307,41.495,68.804,45.254,70.025z"/>
			<path fill="#C2625D" d="M145.547,134h-11.634c-1.148,7-7.82,11.999-15.882,11.999S103.297,141,102.148,134H90.515
				c-1.148,7-7.821,11.999-15.882,11.999S59.899,141,58.75,134H47.117c-1.148,7-7.922,12.061-15.983,12.061
				c-0.011,0-0.134,0.061-0.134,0.061v10.994c9-0.019,17.201-3.797,21.733-9.478c4.543,5.695,12.613,9.479,21.75,9.479
				c9.204,0,17.299-3.84,21.824-9.604c4.525,5.765,12.606,9.604,21.811,9.604c9.137,0,16.965-3.783,21.508-9.479
				c4.521,5.667,12.375,9.439,21.375,9.477v-10.993C153,146.106,146.693,141,145.547,134z"/>
		</g>
		<g>
			<path fill="#FFFFFF" d="M45.254,68.035c6.25,2.032,12.839,0.282,17.32-3.987l-4.336-7.064l-0.29,0.193
				c-2.514,1.703-5.94,1.684-8.475-0.282c-3.152-2.445-3.729-6.833-1.29-9.979c0,0,2.626-3.915,11.12-3.915H71v59h-8v11h30v-11h-7
				V82h14.579c0,0,11.257,22.697,11.264,22.71c1.809,3.385,4.216,6.358,7.514,7.919c3.334,1.578,7.198,1.493,10.797,1.02
				c3.351-0.44,4.847-0.868,6.847-1.723V99.782c-8,3.186-11.193-4.479-11.193-4.479l-11.17-20.293L126.379,51H133V39h-29v12h5.921
				c-2.275,5-9.242,20-9.242,20H86V32H62.688c-2.933,0-6.112,0.108-9.015,0.544c-2.593,0.39-5.169,0.792-7.638,1.693
				c-5.326,1.944-9.512,5.862-11.563,11.172c-2.053,5.317-1.521,10.767,1.444,15.556C37.99,64.315,41.495,66.813,45.254,68.035z"/>
			<path fill="#FFFFFF" d="M145.547,132h-11.634c-1.148,7-7.82,11.999-15.882,11.999S103.297,139,102.148,132H90.515
				c-1.148,7-7.821,11.999-15.882,11.999S59.899,139,58.75,132H47.117c-1.148,7-7.922,12.064-15.983,12.064
				c-0.011,0-0.134,0.065-0.134,0.065v10.994c9-0.019,17.201-3.796,21.733-9.477c4.543,5.694,12.613,9.478,21.75,9.478
				c9.204,0,17.299-3.839,21.824-9.604c4.525,5.766,12.606,9.604,21.811,9.604c9.137,0,16.965-3.783,21.508-9.479
				c4.521,5.668,12.375,9.44,21.375,9.477V144.13C153,144.116,146.693,139,145.547,132z"/>
		</g>
	</g>
</g>
</svg>
