<svg width="192" height="192" version="1.1" viewBox="0 0 192 192" xmlns="http://www.w3.org/2000/svg" xmlns:xlink="http://www.w3.org/1999/xlink">
 <defs>
  <linearGradient id="linearGradient930" x1="104" x2="56" y1="152" y2="152" gradientUnits="userSpaceOnUse">
   <stop style="stop-color:#728dbe" offset="0"/>
   <stop style="stop-color:#728dbe;stop-opacity:0" offset="1"/>
  </linearGradient>
  <linearGradient id="linearGradient845" x1="105" x2="105" y1="37" y2="172" gradientUnits="userSpaceOnUse">
   <stop style="stop-color:#ffb0ac" offset="0"/>
   <stop style="stop-color:#96dfd3" offset="1"/>
  </linearGradient>
  <linearGradient id="linearGradient877" x1="165" x2="110" y1="162" y2="107" gradientUnits="userSpaceOnUse">
   <stop style="stop-color:#f9de81" offset="0"/>
   <stop style="stop-color:#f9de81;stop-opacity:0" offset="1"/>
  </linearGradient>
 </defs>
 <circle cx="104" cy="104" r="80" style="fill:url(#linearGradient845);paint-order:stroke fill markers"/>
 <circle cx="104" cy="104" r="80" style="fill:url(#linearGradient877);paint-order:stroke fill markers"/>
 <path d="m126.74 126.11c-10.227 7.4435-22.27 13.933-34.741 13.889-32.562-0.11566-48-24-48-24s11.032 49.735 65.692 50.321c16.913 0.18133 26.308-10.321 26.308-10.321s3.2415-10.274 2.1311-18.623-6.5727-14.772-11.39-11.265z" style="fill:url(#linearGradient930)"/>
 <path d="m18.046 38.19c-1.1247-1.3679-1.9142-3.8385-0.83935-5.2459 1.58-2.0687 5.601-2.2876 7.764-0.83935 18.953 12.691 43.938 26.264 68.617 41.758 11.074 6.9524 28.361 23.785 19.935 33.784-10.414 12.357-32.244-3.6854-45.325-17.207-21.525-22.249-41.418-41.629-50.151-52.249z" style="fill:#56595b"/>
 <path d="m102.61 111.63 23.502 16.157 7.3443-9.8623-19.725-18.885s-2.7987-1.4792-8.6033 4.4066c-3.9766 4.0322-2.518 8.1836-2.518 8.1836z" style="fill:#b1b5bd"/>
 <path d="m131.12 117.63c-3.9257 1.5385-6.1592 8.8767-5.4838 13.039 1.0679 6.5806 8.2597 11.011 10.368 17.335 0.84327 2.5298 0 8 0 8s15.088-7.7424 12.674-23.703c-1.6951-11.207-9.8185-17.704-17.558-14.671z" style="fill:#56595b"/>
</svg>
