<svg xmlns="http://www.w3.org/2000/svg" viewBox="0 0 192 192"><defs><clipPath id="a"><rect width="153" height="153" x="19.5" y="19.5" fill="none" rx="10"/></clipPath></defs><g clip-path="url(#a)"><rect width="153" height="153" x="19.5" y="19.5" fill="#54688c" rx="10"/><path fill="#fff" d="M86.28 100.41a59.9 59.9 0 0 0 .49-6.29 43 43 0 0 1 86.06 0h17.37a60.37 60.37 0 0 0-120.73-1 39.77 39.77 0 0 1-.36 5.11c-.79 6.16-3.09 15-9.54 22.37-5 5.73-11.94 9.61-20.58 11.63V93.91a2 2 0 0 0-2-2H19.5v80.59H39v-22.58a64.79 64.79 0 0 0 16.54-5.13l17.51 27.71h23.28l-25.68-38.43c.65-.67 1.29-1.34 1.91-2 9.34-10.66 12.61-23.07 13.72-31.66Z"/></g></svg>