<svg xmlns="http://www.w3.org/2000/svg" viewBox="0 0 176 161.79"><title>Kuma Sushi Bar</title><path d="M93.21,173.14c-21.21-2.09-80-5.43-82.4-51.58-1.63-31,18.83-53.5,18.83-53.5S9.45,42.23,32.92,24.93c25-18.42,40.59,4.81,40.59,4.81s9.1-5.32,28-5.07c21.73.29,29.77,10.85,29.77,10.85s27.15-20,42.38,4.79c20.94,34.06-8.07,43.9-8.07,43.9s12,13.87,9.58,42.13C174.05,139.77,175.19,181.26,93.21,173.14Z" transform="translate(-8 -15.1)" fill="#fff"/><path d="M46.17,60.71l14-13.07a4,4,0,0,0,1.12-4.22,13.1,13.1,0,0,0-2.86-4.84c-5.17-5.56-14.12-5.65-20-.19s-6.42,14.38-1.25,19.94a13.21,13.21,0,0,0,4.63,3.2A4.06,4.06,0,0,0,46.17,60.71Z" transform="translate(-8 -15.1)" fill="#ffd6d4"/><path d="M137.88,54.24l9.84,11.94a5.42,5.42,0,0,0,6.34,1.55A12.18,12.18,0,0,0,156.94,66c5.43-4.48,6-12.75,1.29-18.47s-12.95-6.75-18.38-2.27a11.93,11.93,0,0,0-2.28,2.49A5.42,5.42,0,0,0,137.88,54.24Z" transform="translate(-8 -15.1)" fill="#ffd6d4"/><path d="M68.23,83.83c-1.33-.64-6.46-.41-5.55,2,.35.91,3.4,1.94,3.4,1.94h0c-2.08.25-4.18,2.45-5,5.54-1,3.69.11,7.23,2.52,7.9s5.21-1.79,6.23-5.48a10.31,10.31,0,0,0,.36-2.47h0S71.89,85.6,68.23,83.83Z" transform="translate(-8 -15.1)" fill="#8e6f60"/><path d="M108.07,88.24c-1.33-.64-6.46-.41-5.55,2,.35.91,3.4,1.94,3.4,1.94v0c-2.08.24-4.18,2.44-5,5.53-1,3.69.11,7.23,2.52,7.9s5.21-1.78,6.23-5.48A10.31,10.31,0,0,0,110,97.7h0S111.73,90,108.07,88.24Z" transform="translate(-8 -15.1)" fill="#8e6f60"/><path d="M90,97.24h0a1.94,1.94,0,0,0-.55-.15h0A45.57,45.57,0,0,0,84.57,96a47.62,47.62,0,0,0-4.82.15h0a1.94,1.94,0,0,0-.1,3.87l1,.1a3.42,3.42,0,0,0,6.7.66l1.77.17A1.94,1.94,0,0,0,90,97.24Z" transform="translate(-8 -15.1)" fill="#8e6f60"/><path d="M103.7,129.93c-2.66-4.5-40.2-7.6-45.91-5.89-4.64,1.38-7.12,12-7.91,16.43-.91,5.13.85,17.42,2,24.65,15.87,4.55,32.47,5.63,41.8,6.48,4.19.38,8.14.64,11.9.79-1.87-7.12-4.74-18.77-4.89-23.86C100.61,143.83,106.14,134.05,103.7,129.93Z" transform="translate(-8 -15.1)" fill="#e0f4e0"/><path d="M76,105.76s1.09,3.54,1.93,3.93c1.51.69,4-2.35,5.7-2.19,1.45.14,2.61,3.26,4.06,3.45,1.16.14,3.57-3,3.57-3" transform="translate(-8 -15.1)" fill="none" stroke="#8e6f60" stroke-linecap="round" stroke-linejoin="round" stroke-width="4.08"/><path d="M112.8,176.9q-9.28,0-19.86-1.05l-3.1-.3c-23.73-2.23-79.3-7.46-81.74-53.85C6.66,94.4,21.44,73.81,26.2,67.91,23.47,63.8,17.54,53.33,19.1,42c1-7.54,5.14-14,12.2-19.22,8.43-6.22,16.83-8.66,25-7.25,9.19,1.6,15.41,7.71,18.07,10.85,3.86-1.63,12.84-4.56,27.25-4.38,17.34.23,26.55,6.73,30.12,10,4.4-2.74,15.36-8.51,26.57-6.33,7.24,1.42,13.21,5.86,17.74,13.22,7.6,12.36,9.8,23.21,6.54,32.25-2.82,7.8-9,12.15-12.82,14.18,3.51,5.58,10.05,19.23,8.18,41.25-.05.61-.1,1.29-.15,2-.57,8.18-1.64,23.4-14.93,34.62C152,172.31,135.25,176.9,112.8,176.9Zm-61-156.35c-5.55,0-11.34,2.2-17.26,6.57s-9.21,9.53-10,15.55c-1.66,12,7.2,23.61,7.29,23.72a2.72,2.72,0,0,1-.13,3.5c-.2.22-19.67,22-18.12,51.53C15.72,163.12,68,168,90.34,170.14l3.14.3h0c31.08,3.07,53.24-.76,65.83-11.39,11.54-9.73,12.46-23,13-30.84q.07-1.14.15-2.1c2.27-26.62-8.82-40-8.94-40.13a2.73,2.73,0,0,1,1.19-4.35c.09,0,9.49-3.37,12.71-12.39,2.64-7.39.6-16.65-6.08-27.5-3.68-6-8.44-9.61-14.12-10.72-11.83-2.33-24.21,6.6-24.33,6.69a2.71,2.71,0,0,1-3.77-.54c-.3-.37-7.7-9.51-27.64-9.78h-1.25C83.31,27.38,75,32,74.87,32.09a2.72,2.72,0,0,1-3.61-.84c-.06-.08-6-8.71-16-10.41A20.26,20.26,0,0,0,51.79,20.55Z" transform="translate(-8 -15.1)" fill="#8e6f60"/></svg>