<svg xmlns="http://www.w3.org/2000/svg" id="svg2" width="192" height="192" version="1.1"><g id="layer1" transform="translate(0 -860.362)"><rect id="rect907" width="153" height="153" x="19.5" y="879.862" rx="10" style="fill:#fff;fill-opacity:1;fill-rule:evenodd;stroke:none;stroke-opacity:1"/><path id="path913" d="M94.187 973.863 79.208 956.6l13.796-14.27H80.943l-10.958 11.353v-33.82H59.973v54.001h10.012v-14.505L81.1 973.863z" style="font-weight:700;font-size:63.067px;line-height:1.25;font-family:Now;-inkscape-font-specification:&quot;Now Bold&quot;;letter-spacing:0;word-spacing:0;fill:#ff837d;fill-opacity:1;stroke-width:1"/><path id="path915" d="M116.497 941.7c-3.627 0-6.622 1.26-8.987 3.389v-2.68l-10.091-.08v50.454l10.09.08v-21.759c2.366 2.129 5.361 3.39 8.988 3.39 8.671 0 15.53-7.253 15.53-16.397 0-9.145-6.859-16.398-15.53-16.398zm-1.971 23.886a7.436 7.436 0 0 1-7.49-7.49 7.436 7.436 0 0 1 7.49-7.489 7.436 7.436 0 0 1 7.49 7.49 7.436 7.436 0 0 1-7.49 7.489z" style="font-weight:700;font-size:63.067px;line-height:1.25;font-family:Now;-inkscape-font-specification:&quot;Now Bold&quot;;letter-spacing:0;word-spacing:0;fill:#708cbd;fill-opacity:1;stroke-width:1"/></g><style id="style853" type="text/css">.st0{fill:#fff}</style></svg>