<svg xmlns="http://www.w3.org/2000/svg" xml:space="preserve" style="fill-rule:evenodd;clip-rule:evenodd;stroke-linejoin:round;stroke-miterlimit:2" viewBox="0 0 192 192"><path d="M164.5 21.5c0-5.519-4.481-10-10-10h-133c-5.519 0-10 4.481-10 10v133c0 5.519 4.481 10 10 10h133c5.519 0 10-4.481 10-10v-133Z" style="fill:#fff" transform="translate(8 8)"/><path d="M100.759 150.241a9.637 9.637 0 0 1-9.518 0l-48.995-27.834a9.838 9.838 0 0 1-4.978-8.554V70.088a9.837 9.837 0 0 1 5.082-8.612l15.603-8.617a9.84 9.84 0 0 1 9.683.097l15.161 8.773a26.362 26.362 0 0 0 26.406 0l15.161-8.773a9.84 9.84 0 0 1 9.683-.097l15.603 8.617a9.837 9.837 0 0 1 5.082 8.612v43.765a9.838 9.838 0 0 1-4.978 8.554l-48.995 27.834Z" style="fill:url(#a)" transform="matrix(.78884 0 0 .78884 20.27 15.887)"/><defs><linearGradient id="a" x1="0" x2="1" y1="0" y2="0" gradientTransform="translate(37.268 96) scale(117.465)" gradientUnits="userSpaceOnUse"><stop offset="0" style="stop-color:#f9de81;stop-opacity:1"/><stop offset=".25" style="stop-color:#f8c18c;stop-opacity:1"/><stop offset=".5" style="stop-color:#d4a9d3;stop-opacity:1"/><stop offset=".75" style="stop-color:#bd9aff;stop-opacity:1"/><stop offset="1" style="stop-color:#8c72bd;stop-opacity:1"/></linearGradient></defs></svg>