<svg xmlns="http://www.w3.org/2000/svg" id="svg2" width="192" height="192" version="1.1"><g id="layer1" transform="translate(0 -860.362)"><g id="g1380" transform="translate(-383.088 497.273)"><path id="path1372" d="m493.42 373.408 61.225 35.348a17.304 17.304 0 0 1 8.652 14.986v70.696a17.304 17.304 0 0 1-8.652 14.985l-61.224 35.348a17.304 17.304 0 0 1-17.304 0l-61.225-35.348a17.304 17.304 0 0 1-8.652-14.985v-70.696a17.304 17.304 0 0 1 8.652-14.986l61.225-35.348a17.304 17.304 0 0 1 17.304 0z" style="fill:#95ded2;fill-opacity:1;stroke:none;stroke-width:9.18397;stroke-linecap:round;stroke-linejoin:round;stop-color:#000"/><path id="path1374" d="M484.713 385.196a14.53 14.53 0 0 0-7.21 1.948l-51.408 29.681a14.53 14.53 0 0 0-7.266 12.584v10.82c15.358-.04 30.716-.013 46.074-.02-2.027-3.328-3.061-7.258-2.857-11.154.295-9.361 8.726-17.59 18.079-17.728 4.276-.156 8.62 1.129 12.03 3.738 10.353 9.69 20.097 20 30.274 29.873 6.718 6.02 8.276 17.08 3.127 24.567-1.578 2.105-3.564 3.868-5.342 5.802-8.333 8.503-16.838 16.836-25.231 25.278-3.627 4.058-9.045 6.366-14.475 6.27-6.771.036-13.314-4.063-16.303-10.127-3.006-5.787-3.046-13.288.695-18.755h-46.07v10.798a14.53 14.53 0 0 0 7.265 12.584l51.409 29.681a14.53 14.53 0 0 0 14.53 0l51.41-29.681a14.53 14.53 0 0 0 7.265-12.584V429.41a14.53 14.53 0 0 0-7.266-12.584l-51.408-29.681a14.53 14.53 0 0 0-7.322-1.948z" style="fill:#fefefe;fill-opacity:1;stroke:none;stroke-width:7.71172;stroke-linecap:round;stroke-linejoin:round;stroke-miterlimit:4;stroke-dasharray:none;stop-color:#000"/><path id="path1376" d="m490.647 400.878 41.595 24.015a11.756 11.756 0 0 1 5.878 10.181v48.03a11.756 11.756 0 0 1-5.878 10.182L490.647 517.3a11.756 11.756 0 0 1-11.756 0l-41.596-24.015a11.756 11.756 0 0 1-5.878-10.181v-48.03a11.756 11.756 0 0 1 5.878-10.182l41.596-24.015a11.756 11.756 0 0 1 11.756 0z" style="fill:#95ded2;fill-opacity:1;stroke:none;stroke-width:6.24013;stroke-linecap:round;stroke-linejoin:round;stroke-miterlimit:4;stroke-dasharray:none;stop-color:#000"/><path id="path1378" d="M476.432 425.727c-2.904 2.726-2.144 7.668.992 9.892l17.169 17.168c-31.375.027-62.753-.053-94.125.04-4.657.311-7.297 6.397-4.342 10.01 2.22 3.25 6.452 2.48 9.817 2.539h88.65c-6.277 6.381-12.776 12.566-18.913 19.07-2.8 3.734.09 9.705 4.757 9.82 4.21.367 6.475-3.8 9.257-6.189 8.37-8.436 16.88-16.745 25.162-25.262 2.323-2.956 1.097-7.295-1.806-9.373-9.494-9.426-18.86-18.993-28.433-28.331-2.42-1.842-6.069-1.568-8.185.616z" style="fill:#fefefe;fill-opacity:1;stroke:none;stroke-width:0;stroke-linecap:round;stroke-linejoin:round;stroke-miterlimit:4;stroke-dasharray:none;stroke-opacity:1;stop-color:#000"/></g></g><style id="style853" type="text/css">.st0{fill:#fff}</style></svg>