<svg xmlns="http://www.w3.org/2000/svg" xmlns:xlink="http://www.w3.org/1999/xlink" xml:space="preserve" viewBox="0 0 192 192"><circle cx="96" cy="96" r="96" fill="#FFF"/><image xlink:href="D:\DESIGN\туццццц\Новая папка (4)\marvin\30E0AF75.jpg" width="241" height="241" overflow="visible" transform="translate(4.215 -195) scale(.7734)"/><g fill="#88BFFF"><path d="M96.1 44.5v6.1c0 2.6-.9 3.5-3.4 3.8-7.8.6-14.8 3.4-21.1 7.9C58 72 51.7 89.8 55.9 106c.7 2.7 1.9 5.2 2.9 7.8.2.5.4 1.1.9 1.2.8 0 .8-.8 1-1.3 1.5-3.6 2.9-7.2 4.4-10.8 1-2.5 2.4-3.2 4.9-2.2 3.7 1.5 7.4 2.9 11 4.4 2.6 1.1 3.2 2.4 2.2 4.9-3 7.3-5.9 14.7-9 22-4.5 10.8-16.6 12.6-24.2 3.8-11.3-13.1-16.3-28.4-15-45.6.5-7.3 2.6-14.2 5.7-20.8 3.6-7.7 8.8-14.3 15.1-19.9 9-7.9 19.6-12.8 31.5-14.4 1.6-.2 3.1-.4 4.7-.5 2.9-.1 3.8.7 3.8 3.6.3 2.3.2 4.3.3 6.3zM132.4 76.5c-1.8 4.4-3.5 8.5-5.2 12.7-1 2.5-2.3 3.1-4.8 2.1-3.8-1.4-7.5-3-11.2-4.5-2.5-1.1-3.1-2.4-2.1-5 2.9-7.3 5.8-14.6 8.9-21.8 4.9-11.4 17.1-12.8 25-3.2 11.6 14.2 16.4 30.3 13.8 48.3-2 14-8.4 25.9-18.7 35.7-9.9 9.4-21.8 14.4-35.2 16.2-.2 0-.4 0-.7.1-5.2.5-5.8-.1-5.9-5.3v-10.1c0-2.7.9-3.7 3.5-3.9 22.6-1.9 40.3-22.1 37.7-46.1-.5-5.2-2.7-11.9-5.1-15.2z"/></g></svg>