<?xml version="1.0" encoding="UTF-8" standalone="no"?>
<svg
   xmlns:dc="http://purl.org/dc/elements/1.1/"
   xmlns:cc="http://creativecommons.org/ns#"
   xmlns:rdf="http://www.w3.org/1999/02/22-rdf-syntax-ns#"
   xmlns:svg="http://www.w3.org/2000/svg"
   xmlns="http://www.w3.org/2000/svg"
   xmlns:sodipodi="http://sodipodi.sourceforge.net/DTD/sodipodi-0.dtd"
   xmlns:inkscape="http://www.inkscape.org/namespaces/inkscape"
   viewBox="0 0 192 192"
   version="1.1"
   id="svg16"
   sodipodi:docname="lego-super-mario.svg"
   inkscape:version="0.92.4 (5da689c313, 2019-01-14)">
  <metadata
     id="metadata20">
    <rdf:RDF>
      <cc:Work
         rdf:about="">
        <dc:format>image/svg+xml</dc:format>
        <dc:type
           rdf:resource="http://purl.org/dc/dcmitype/StillImage" />
        <dc:title></dc:title>
      </cc:Work>
    </rdf:RDF>
  </metadata>
  <sodipodi:namedview
     pagecolor="#ffffff"
     bordercolor="#666666"
     borderopacity="1"
     objecttolerance="10"
     gridtolerance="10"
     guidetolerance="10"
     inkscape:pageopacity="0"
     inkscape:pageshadow="2"
     inkscape:window-width="1920"
     inkscape:window-height="1017"
     id="namedview18"
     showgrid="true"
     inkscape:snap-global="true"
     inkscape:zoom="3.4766083"
     inkscape:cx="71.302248"
     inkscape:cy="87.128329"
     inkscape:window-x="-8"
     inkscape:window-y="-8"
     inkscape:window-maximized="1"
     inkscape:current-layer="svg16">
    <inkscape:grid
       type="xygrid"
       id="grid827"
       spacingx="4"
       spacingy="4" />
  </sodipodi:namedview>
  <defs
     id="defs4">
    <style
       id="style2">.a{fill:none;stroke:#b1b5bd;stroke-linecap:round;stroke-linejoin:round;isolation:isolate;opacity:0.63;}</style>
  </defs>
  <rect
     style="opacity:1;vector-effect:none;fill:#728dbe;fill-opacity:1;fill-rule:evenodd;paint-order:stroke fill markers"
     id="rect858"
     width="104"
     height="24"
     x="44"
     y="160"
     ry="4" />
  <rect
     style="opacity:1;vector-effect:none;fill:#fcecdc;fill-opacity:1;fill-rule:evenodd;paint-order:stroke fill markers"
     id="rect856"
     width="128"
     height="28"
     x="32"
     y="64"
     ry="4" />
  <path
     style="opacity:1;vector-effect:none;fill:#ececec;fill-opacity:1;fill-rule:evenodd;paint-order:stroke fill markers"
     d="m 24,148 v 8 L 21.32203,162.0678 24,169.99609 c 0,0 4,0 4,-4 V 162 c 0,-1.108 0.892,-2 2,-2 1.108,0 2,0.892 2,2 v 3.99609 c 0,4 4,4 4,4 L 37.88136,162.11864 36,156 v -8 l -4,-4 z"
     id="rect4637-7-9"
     inkscape:connector-curvature="0"
     sodipodi:nodetypes="ccccssssscccccc" />
  <path
     style="opacity:1;vector-effect:none;fill:#ffffff;fill-opacity:1;fill-rule:evenodd;paint-order:stroke fill markers"
     d="m 30,152 c -5.54,0 -10,4.46 -10,10 0,3.28135 1.57302,6.17485 4,7.99609 V 162 c 0,-3.324 2.676,-6 6,-6 3.324,0 6,2.676 6,6 v 7.99609 c 2.42698,-1.82124 4,-4.71474 4,-7.99609 0,-5.54 -4.46,-10 -10,-10 z"
     id="rect4632-4-4"
     inkscape:connector-curvature="0" />
  <path
     style="opacity:1;vector-effect:none;fill:#ececec;fill-opacity:1;fill-rule:evenodd;paint-order:stroke fill markers"
     d="m 168,148 v 8 l 2.67797,6.0678 L 168,169.99609 c 0,0 -4,0 -4,-4 V 162 c 0,-1.108 -0.892,-2 -2,-2 -1.108,0 -2,0.892 -2,2 v 3.99609 c 0,4 -4,4 -4,4 L 154.11864,162.11864 156,156 v -8 l 4,-4 z"
     id="rect4637-7"
     inkscape:connector-curvature="0"
     sodipodi:nodetypes="ccccssssscccccc" />
  <path
     style="fill:#ff837d"
     d="m 152,124 c 16,0 16,24 16,24 h -12 c 0,0 -4,0 -8,-4 -4.8074,-4.8074 -2.79869,-20 4,-20 z"
     id="path4626-6"
     inkscape:connector-curvature="0"
     sodipodi:nodetypes="sccss" />
  <path
     style="opacity:1;vector-effect:none;fill:#ffffff;fill-opacity:1;fill-rule:evenodd;paint-order:stroke fill markers"
     d="m 162,152 c 5.54,0 10,4.46 10,10 0,3.28135 -1.57302,6.17485 -4,7.99609 V 162 c 0,-3.324 -2.676,-6 -6,-6 -3.324,0 -6,2.676 -6,6 v 7.99609 c -2.42698,-1.82124 -4,-4.71474 -4,-7.99609 0,-5.54 4.46,-10 10,-10 z"
     id="rect4632-4"
     inkscape:connector-curvature="0" />
  <circle
     class="a"
     cx="96"
     cy="120"
     r="36.5"
     id="circle10"
     style="opacity:0.62999998;isolation:isolate;fill:none;stroke:#b1b5bd;stroke-linecap:round;stroke-linejoin:round" />
  <rect
     style="opacity:1;vector-effect:none;fill:#9abeff;fill-opacity:1;fill-rule:evenodd;paint-order:stroke fill markers"
     id="rect4540"
     width="112"
     height="60"
     x="40"
     y="124"
     ry="16"
     rx="56" />
  <rect
     style="opacity:1;vector-effect:none;fill:#9abeff;fill-opacity:1;fill-rule:evenodd;paint-order:stroke fill markers"
     id="rect4544"
     width="112"
     height="52"
     x="40"
     y="116"
     ry="8" />
  <path
     style="fill:#ff837d"
     d="m 40,124 c -16,0 -16,24 -16,24 h 12 c 0,0 4,0 8,-4 4.807402,-4.8074 2.798693,-20 -4,-20 z"
     id="path4626"
     inkscape:connector-curvature="0"
     sodipodi:nodetypes="sccss" />
  <rect
     style="opacity:1;vector-effect:none;fill:#728dbe;fill-opacity:1;fill-rule:evenodd;paint-order:stroke fill markers"
     id="rect4554"
     width="112"
     height="36"
     x="40"
     y="116"
     ry="8" />
  <rect
     style="opacity:1;vector-effect:none;fill:#728dbe;fill-opacity:1;fill-rule:evenodd;paint-order:stroke fill markers"
     id="rect4556"
     width="112"
     height="12"
     x="40"
     y="140" />
  <circle
     style="opacity:1;vector-effect:none;fill:#f9de81;fill-opacity:1;fill-rule:evenodd;paint-order:stroke fill markers"
     id="path4546"
     cx="56"
     cy="136"
     r="12" />
  <circle
     style="opacity:1;vector-effect:none;fill:#f9de81;fill-opacity:1;fill-rule:evenodd;paint-order:stroke fill markers"
     id="path4548"
     cx="136"
     cy="136"
     r="12" />
  <rect
     style="opacity:1;vector-effect:none;fill:#ff837d;fill-opacity:1;fill-rule:evenodd;paint-order:stroke fill markers"
     id="rect4550"
     width="48"
     height="36"
     x="72"
     y="116" />
  <rect
     style="opacity:1;vector-effect:none;fill:#ba6561;fill-opacity:1;fill-rule:evenodd;paint-order:stroke fill markers"
     id="rect4552"
     width="40"
     height="24"
     x="76"
     y="124"
     ry="4" />
  <path
     style="fill:#fcecdc;stroke:#fcecdc;stroke-width:8;stroke-linecap:round;stroke-linejoin:round;stroke-miterlimit:4;stroke-dasharray:none;stroke-opacity:1"
     d="m 44,108 4,4 h 96 l 4,-4 V 40 l -4,-4 H 48 l -4,4 z"
     id="path4560"
     inkscape:connector-curvature="0"
     sodipodi:nodetypes="ccccccccc" />
  <path
     style="fill:#8e6f60"
     d="M 48 32 C 46.939204 32.000204 45.921922 32.42173 45.171875 33.171875 L 41.171875 37.171875 C 40.42173 37.921922 40.000204 38.939204 40 40 L 40 92 C 40 92 52 92 52 80 L 52 60 C 52 60 60 60 60 52 L 132 52 C 132 60 140 60 140 60 L 140 80 C 140 92 152 92 152 92 L 152 40 C 151.99979 38.939203 151.57827 37.921921 150.82812 37.171875 L 146.82812 33.171875 C 146.07807 32.421731 145.06079 32.000206 144 32 L 48 32 z "
     id="path4562" />
  <rect
     style="opacity:1;vector-effect:none;fill:#fcecdc;fill-opacity:1;fill-rule:evenodd;paint-order:stroke fill markers"
     id="rect4568"
     width="40"
     height="33.896553"
     x="76"
     y="86.103447"
     ry="16.804459" />
  <rect
     style="opacity:1;vector-effect:none;fill:#4a4a4a;fill-opacity:1;fill-rule:evenodd;paint-order:stroke fill markers"
     id="rect4570"
     width="24"
     height="29.608915"
     x="84"
     y="86.391083"
     ry="12" />
  <rect
     style="opacity:1;vector-effect:none;fill:#ffffff;fill-opacity:1;fill-rule:evenodd;paint-order:stroke fill markers"
     id="rect4580"
     width="16"
     height="24"
     x="104"
     y="64"
     ry="8" />
  <rect
     style="opacity:1;vector-effect:none;fill:#ffffff;fill-opacity:1;fill-rule:evenodd;paint-order:stroke fill markers"
     id="rect4578"
     width="16"
     height="24"
     x="72"
     y="64"
     ry="8" />
  <rect
     style="opacity:1;vector-effect:none;fill:#728dbe;fill-opacity:1;fill-rule:evenodd;paint-order:stroke fill markers"
     id="rect4668"
     width="12"
     height="20"
     x="76"
     y="68"
     ry="6" />
  <rect
     style="opacity:1;vector-effect:none;fill:#ffffff;fill-opacity:1;fill-rule:evenodd;paint-order:stroke fill markers"
     id="rect4684"
     width="24"
     height="12"
     x="84"
     y="93.5"
     ry="4" />
  <path
     style="fill:#4a4a4a"
     d="m 64,84 32,8 32,-8 c 0,0 0,8 -4,12 -1.88562,1.885618 -8,0 -8,0 0,0 0,4 -4,4 -1.33333,0 -4,0 -4,0 0,0 -2.25792,3.27841 -4,4 -1.23184,0.51024 -2.76816,0.51024 -4,0 -1.742084,-0.72159 -4,-4 -4,-4 0,0 -2.257916,3.27841 -4,4 -1.231839,0.51024 -2.768161,0.51024 -4,0 -1.742084,-0.72159 -4,-4 -4,-4 0,0 -2.666667,0 -4,0 -4,0 -4,-4 -4,-4 0,0 -6.114382,1.885618 -8,0 -4,-4 -4,-12 -4,-12 z"
     id="path4566"
     inkscape:connector-curvature="0"
     sodipodi:nodetypes="cccscscsscsscscsc" />
  <rect
     style="opacity:1;vector-effect:none;fill:#4a4a4a;fill-opacity:1;fill-rule:evenodd;paint-order:stroke fill markers"
     id="rect4672"
     width="4"
     height="12"
     x="80"
     y="72"
     ry="2" />
  <rect
     style="opacity:1;vector-effect:none;fill:#728dbe;fill-opacity:1;fill-rule:evenodd;paint-order:stroke fill markers"
     id="rect4670"
     width="12"
     height="20"
     x="104"
     y="68"
     ry="6" />
  <circle
     style="opacity:1;vector-effect:none;fill:#54688c;fill-opacity:1;fill-rule:evenodd;paint-order:stroke fill markers"
     id="path4680"
     cx="82"
     cy="82"
     r="2" />
  <rect
     style="opacity:1;vector-effect:none;fill:#4a4a4a;fill-opacity:1;fill-rule:evenodd;paint-order:stroke fill markers"
     id="rect4674"
     width="4"
     height="12"
     x="108"
     y="72"
     ry="2" />
  <circle
     style="opacity:1;vector-effect:none;fill:#54688c;fill-opacity:1;fill-rule:evenodd;paint-order:stroke fill markers"
     id="path4682"
     cx="110"
     cy="82"
     r="2" />
  <ellipse
     style="opacity:1;vector-effect:none;fill:#fcecdc;fill-opacity:1;fill-rule:evenodd;paint-order:stroke fill markers"
     id="path4564"
     cx="96"
     cy="88"
     rx="16"
     ry="12" />
  <path
     inkscape:connector-curvature="0"
     style="opacity:0.25;vector-effect:none;fill:#000000;fill-opacity:1;fill-rule:evenodd;paint-order:stroke fill markers"
     d="M 67.841797,26 C 63.496927,26 60,29.496927 60,33.841797 v 0.316406 C 60,38.503073 63.496927,42 67.841797,42 H 80.691406 C 82.333429,46.666623 86.758053,50 92,50 h 8 c 5.24195,0 9.66657,-3.333377 11.30859,-8 H 124.1582 C 128.50307,42 132,38.503073 132,34.158203 V 33.841797 C 132,29.496927 128.50307,26 124.1582,26 H 100 92 Z"
     id="rect4601-1" />
  <path
     style="opacity:1;vector-effect:none;fill:#8e6f60;fill-opacity:1;fill-rule:evenodd;paint-order:stroke fill markers"
     d="M 67.841797 24 C 63.496927 24 60 27.496927 60 31.841797 L 60 32.158203 C 60 36.503073 63.496927 40 67.841797 40 L 80.691406 40 C 82.333429 44.666623 86.758053 48 92 48 L 100 48 C 105.24195 48 109.66657 44.666623 111.30859 40 L 124.1582 40 C 128.50307 40 132 36.503073 132 32.158203 L 132 31.841797 C 132 27.496927 128.50307 24 124.1582 24 L 100 24 L 92 24 L 67.841797 24 z "
     id="rect4601" />
  <path
     style="fill:#ff837d"
     d="m 64,32 c 0,0 12,4 32,4 20,0 32,-4 32,-4 h 8 c 0,0 4,0 4,-4 C 140,20 120,8 96,8 72,8 52,20 52,28 c 0,4 4,4 4,4 z"
     id="path4572"
     inkscape:connector-curvature="0"
     sodipodi:nodetypes="ccccscscc" />
  <ellipse
     style="opacity:1;vector-effect:none;fill:#ffffff;fill-opacity:1;fill-rule:evenodd;paint-order:stroke fill markers"
     id="path4576"
     cx="96"
     cy="21.856182"
     rx="12"
     ry="10" />
  <path
     style="fill:#ba6561"
     d="m 64,32 c 0,0 12,-4 28,-4 16,0 32,4 32,4 H 92 Z"
     id="path4574"
     inkscape:connector-curvature="0"
     sodipodi:nodetypes="czccc" />
  <path
     style="fill:#4a4a4a;"
     d="m 68,64 c 0,0 4,-10 12,-10 8,0 12,10 12,10 0,0 -4,-4 -12,-4 -8,0 -12,4 -12,4 z"
     id="path4582"
     inkscape:connector-curvature="0"
     sodipodi:nodetypes="czczc" />
  <path
     style="fill:#4a4a4a"
     d="m 100,64 c 0,0 4,-10 12,-10 8,0 12,10 12,10 0,0 -4,-4 -12,-4 -8,0 -12,4 -12,4 z"
     id="path4582-6"
     inkscape:connector-curvature="0"
     sodipodi:nodetypes="czczc" />
  <path
     style="fill:#ff837d"
     d="M 88.016949,24 90.508475,26.491525 93,20.033898 l 2.847458,2.440678 2.898305,-2.59322 3.203387,6.355932 2.33899,-2.338983 -4.474581,-7.830509 -3.762711,2.79661 -4.067797,-2.79661 z"
     id="path4599"
     inkscape:connector-curvature="0"
     sodipodi:nodetypes="ccccccccccc" />
  <circle
     style="opacity:1;vector-effect:none;fill:#ffffff;fill-opacity:1;fill-rule:evenodd;paint-order:stroke fill markers"
     id="path4676"
     cx="82"
     cy="74"
     r="2" />
  <circle
     style="opacity:1;vector-effect:none;fill:#ffffff;fill-opacity:1;fill-rule:evenodd;paint-order:stroke fill markers"
     id="path4678"
     cx="110"
     cy="74"
     r="2" />
  <ellipse
     style="opacity:1;vector-effect:none;fill:#ba6561;fill-opacity:1;fill-rule:evenodd;paint-order:stroke fill markers"
     id="path4686"
     cx="96"
     cy="112"
     rx="8"
     ry="4" />
</svg>
