<?xml version="1.0" encoding="UTF-8"?>
<svg width="192" height="192" version="1.1" viewBox="0 0 192 192" xml:space="preserve" xmlns="http://www.w3.org/2000/svg" xmlns:cc="http://creativecommons.org/ns#" xmlns:dc="http://purl.org/dc/elements/1.1/" xmlns:rdf="http://www.w3.org/1999/02/22-rdf-syntax-ns#"><metadata><rdf:RDF><cc:Work rdf:about=""><dc:format>image/svg+xml</dc:format><dc:type rdf:resource="http://purl.org/dc/dcmitype/StillImage"/></cc:Work></rdf:RDF></metadata><rect x="20" y="20" width="152" height="152" rx="9.9346" fill="#98dc9a"/><path d="m80.206 94.254 15.794 16.379c-2.9268 6.8954-9.8967 18.445-12.025 17.874-2.8277-0.75769-8.5147-4.3548-8.5147-4.3548 3.5812-3.1365 5.6874-6.8261 7.9297-10.465-4.2103 2.3164-8.2714 4.8032-13.65 5.7848-5.4245-4.2187-12.001-23.375-7.3559-22.497 3.4384 0.65004 15.644-0.40643 17.821-2.722z" fill="#fff"/><path d="m84.69 91.719 13.78 14.365s3.1556-4.2466 2.0799-6.1098c-2.2964-3.9775-6.7928-8.2623-10.27-10.27-1.7737-1.024-5.5898 2.0149-5.5898 2.0149z" fill="#fff"/><path d="m96.65 87.884 4.9398 4.9398s16.981-16.981 23.594-23.594c3.051-3.051-1.8278-7.7919-4.8098-4.8098-6.7167 6.7167-23.724 23.464-23.724 23.464z" fill="#fff"/></svg>
