<?xml version="1.0" encoding="UTF-8" standalone="no"?>
<!-- Created with Inkscape (http://www.inkscape.org/) -->

<svg
   xmlns:dc="http://purl.org/dc/elements/1.1/"
   xmlns:cc="http://creativecommons.org/ns#"
   xmlns:rdf="http://www.w3.org/1999/02/22-rdf-syntax-ns#"
   xmlns:svg="http://www.w3.org/2000/svg"
   xmlns="http://www.w3.org/2000/svg"
   xmlns:sodipodi="http://sodipodi.sourceforge.net/DTD/sodipodi-0.dtd"
   xmlns:inkscape="http://www.inkscape.org/namespaces/inkscape"
   width="192"
   height="192"
   viewBox="0 0 192 192"
   id="svg2"
   version="1.1"
   inkscape:version="0.91 r13725"
   sodipodi:docname="letgo.svg"
   inkscape:export-filename="/home/jphilippe/Bureau/inkscape/icônes/bromite-deltav2.png"
   inkscape:export-xdpi="90"
   inkscape:export-ydpi="90">
  <defs
     id="defs4" />
  <sodipodi:namedview
     id="base"
     pagecolor="#ffffff"
     bordercolor="#666666"
     borderopacity="1.0"
     inkscape:pageopacity="0.0"
     inkscape:pageshadow="2"
     inkscape:zoom="0.90509668"
     inkscape:cx="-47.901412"
     inkscape:cy="26.249622"
     inkscape:document-units="px"
     inkscape:current-layer="layer1"
     showgrid="false"
     inkscape:snap-bbox="true"
     units="px"
     inkscape:window-width="1680"
     inkscape:window-height="996"
     inkscape:window-x="0"
     inkscape:window-y="28"
     inkscape:window-maximized="1" />
  <metadata
     id="metadata7">
    <rdf:RDF>
      <cc:Work
         rdf:about="">
        <dc:format>image/svg+xml</dc:format>
        <dc:type
           rdf:resource="http://purl.org/dc/dcmitype/StillImage" />
        <dc:title />
      </cc:Work>
    </rdf:RDF>
  </metadata>
  <g
     inkscape:label="Calque 1"
     inkscape:groupmode="layer"
     id="layer1"
     transform="translate(0,-860.36216)">
    <g
       id="g4310">
      <rect
         id="rect4272"
         rx="10"
         y="879.86218"
         x="19.5"
         height="153"
         width="153"
         style="fill:#fe837e;fill-rule:evenodd;stroke:none;fill-opacity:1" />
      <g
         style="fill:#ffffff;fill-opacity:1"
         id="g4259"
         inkscape:label="ink_ext_XXXXXX"
         transform="matrix(0.1107091,0,0,-0.1107091,47.08855,989.5702)">
        <g
           style="fill:#ffffff;fill-opacity:1"
           id="g4261"
           transform="scale(0.1,0.1)">
          <path
             d="m 7770.07,2238.53 c -170.54,0 -309.13,159.9 -309.13,586.29 0,469.03 287.82,1108.59 724.86,1108.59 191.87,0 277.14,-191.87 277.14,-458.35 -10.66,-501.01 -319.77,-1236.53 -692.87,-1236.53 z m -1844.12,383.74 c -117.25,-181.2 -287.8,-298.45 -426.38,-298.45 -127.9,0 -223.85,106.59 -223.85,341.09 0,522.34 181.2,1279.17 692.87,1279.17 63.94,0 127.92,-10.67 202.54,-42.64 L 5925.95,2622.27 Z M 5030.54,437.059 c -53.29,0 -170.54,53.3 -170.54,223.851 0,319.789 383.75,682.23 852.76,895.41 C 5488.92,767.5 5318.35,437.059 5030.54,437.059 Z M 2781.36,3922.77 c 85.29,0 138.57,-74.62 138.57,-191.86 0,-309.14 -319.78,-650.28 -778.16,-938.06 10.66,341.09 159.9,1129.92 639.59,1129.92 z M 1214.39,4967.41 c 53.29,0 85.26,-21.32 85.26,-106.6 0,-159.88 -181.21,-842.11 -596.931,-1630.92 159.902,1023.32 351.781,1737.52 511.671,1737.52 z M 8068.53,4306.5 c -724.84,0 -1225.85,-906.06 -1225.85,-1630.93 0,-74.61 10.66,-138.55 21.33,-202.53 -138.59,-117.25 -330.47,-234.51 -522.34,-341.1 10.67,63.96 21.34,127.93 42.64,191.88 l 351.78,1897.42 c -53.3,42.63 -117.26,63.94 -202.55,63.94 -106.58,0 -223.84,-42.63 -287.78,-138.56 -106.6,106.59 -245.2,159.88 -426.4,159.88 -586.28,0 -1065.96,-831.44 -1065.96,-1673.56 0,-42.64 0,-95.92 10.65,-149.23 -117.26,-106.58 -309.14,-202.53 -469.04,-202.53 -127.91,0 -202.51,85.28 -149.22,351.76 l 287.81,1353.79 213.19,0 c 149.23,0 223.87,127.92 202.54,277.14 l -362.42,0 138.56,628.92 c -53.29,42.64 -138.56,63.96 -223.84,63.96 -170.56,0 -351.78,-85.28 -405.08,-298.47 l -85.29,-394.41 -95.91,0 c -149.23,0 -223.86,-127.92 -202.54,-277.14 l 234.51,0 -255.83,-1225.85 c -202.54,-277.17 -650.24,-522.35 -991.34,-522.35 -223.88,0 -394.41,95.95 -447.72,351.77 927.39,511.67 1140.57,842.11 1140.57,1247.19 0,213.18 -106.58,458.37 -543.62,458.37 -788.82,0 -1204.54,-1002.01 -1204.54,-1620.29 0,-63.94 10.66,-127.91 10.66,-191.86 -266.51,-117.25 -533,-202.53 -682.234,-202.53 -170.547,0 -287.801,95.95 -255.821,341.09 0,53.3 10.664,117.27 21.309,181.24 618.266,948.69 927.396,1716.19 927.396,2089.28 0,245.17 -159.9,383.75 -383.75,383.75 C 553.492,5276.54 233.695,4263.87 9.83984,2515.69 -54.1055,2014.68 201.715,1801.51 542.828,1801.51 c 298.465,0 703.542,202.5 1087.292,437.02 127.9,-298.46 405.05,-437.02 735.52,-437.02 383.74,0 831.44,191.87 1161.88,532.97 -31.98,-394.41 138.6,-532.97 405.08,-532.97 309.13,0 650.24,202.5 874.08,437.02 63.98,-223.85 202.54,-437.02 479.7,-437.02 223.85,0 447.71,181.2 618.26,447.7 -31.97,-138.58 -63.97,-255.83 -95.94,-373.09 C 5243.75,1630.93 4582.84,1183.23 4582.84,586.289 4582.84,191.879 4828.02,0 5083.83,0 c 724.87,0 1023.33,948.73 1215.21,1833.48 266.49,138.56 511.67,319.78 628.92,415.73 95.95,-255.83 298.47,-447.7 639.56,-447.7 756.87,0 1268.51,906.06 1268.51,1620.26 -21.31,490.34 -245.17,884.73 -767.5,884.73"
             style="fill:#ffffff;fill-opacity:1;fill-rule:nonzero;stroke:none"
             id="path4263"
             inkscape:connector-curvature="0" />
        </g>
      </g>
    </g>
  </g>
</svg>
