<?xml version="1.0" encoding="UTF-8" standalone="no"?>
<!DOCTYPE svg PUBLIC "-//W3C//DTD SVG 1.1//EN" "http://www.w3.org/Graphics/SVG/1.1/DTD/svg11.dtd">
<svg width="100%" height="100%" viewBox="0 0 192 192" version="1.1" xmlns="http://www.w3.org/2000/svg" xmlns:xlink="http://www.w3.org/1999/xlink" xml:space="preserve" xmlns:serif="http://www.serif.com/" style="fill-rule:evenodd;clip-rule:evenodd;stroke-linejoin:round;stroke-miterlimit:2;">
    <g transform="matrix(1,0,0,1,8,8)">
        <path d="M164.5,21.5C164.5,15.981 160.019,11.5 154.5,11.5L21.5,11.5C15.981,11.5 11.5,15.981 11.5,21.5L11.5,154.5C11.5,160.019 15.981,164.5 21.5,164.5L154.5,164.5C160.019,164.5 164.5,160.019 164.5,154.5L164.5,21.5Z" style="fill:rgb(186,101,97);"/>
    </g>
    <path d="M100.601,131.648C157.19,109.958 153.377,127.562 153.377,127.562L147.394,137.166C147.394,137.166 98.993,143.856 98.038,143.992C97.082,144.129 38.623,127.562 38.623,127.562C38.623,127.562 34.81,109.959 91.399,131.648L100.601,131.648Z" style="fill:white;"/>
    <g id="Layer1">
        <g transform="matrix(1,0,0,1,0.205143,0)">
            <g transform="matrix(1,0,0,1.09731,0,-16.7853)">
                <path d="M87.851,137.609C87.851,137.609 54.79,132.015 39.865,129.489C38.096,129.19 36.272,129.623 34.888,130.671C33.504,131.72 32.704,133.275 32.704,134.915C32.704,147.257 32.704,172.5 32.704,172.5L87.851,172.5L87.851,137.609Z" style="fill:rgb(150,223,211);"/>
            </g>
            <g transform="matrix(-1,0,0,1.09731,191.59,-16.7853)">
                <path d="M87.851,137.609C87.851,137.609 54.79,132.015 39.865,129.489C38.096,129.19 36.272,129.623 34.888,130.671C33.504,131.72 32.704,133.275 32.704,134.915C32.704,147.257 32.704,172.5 32.704,172.5L87.851,172.5L87.851,137.609Z" style="fill:rgb(150,223,211);"/>
            </g>
            <g transform="matrix(1.74917,0,0,0.972897,-72.4235,4.67525)">
                <rect x="87.851" y="134.214" width="16.639" height="38.286" style="fill:rgb(150,223,211);"/>
            </g>
            <g transform="matrix(0.954869,0,0,1,3.96479,0)">
                <rect x="87.851" y="134.214" width="16.639" height="38.286" style="fill:rgb(115,173,164);"/>
            </g>
        </g>
        <path d="M56.278,118.285C65.716,106.827 80.011,99.516 96,99.516C111.94,99.516 126.196,106.782 135.634,118.18C127.974,119.24 116.958,122.133 101.13,128.15L90.477,128.15C89.576,127.862 88.688,127.581 87.81,127.307C73.663,122.042 63.532,119.37 56.278,118.285Z" style="fill:rgb(255,131,125);"/>
        <path d="M132.602,110.676C126.355,105.594 119.033,101.783 111.029,99.641L111.029,88.103L132.602,88.103L132.602,110.676ZM121.816,92.817L132.602,88.103L111.029,88.103L121.816,92.817Z" style="fill:rgb(150,223,211);"/>
    </g>
</svg>
