<svg xmlns="http://www.w3.org/2000/svg" viewBox="0 0 192 192"><title>LibreSpeed</title><path d="M179.35,96.37a83.35,83.35,0,1,1-83-83.72A83.38,83.38,0,0,1,179.35,96.37Z" fill="#56595b"/><path d="M96,8A88,88,0,1,1,8,96,88,88,0,0,1,96,8ZM99.19,168.9A73,73,0,1,0,23.1,99.19,73,73,0,0,0,99.19,168.9Z" fill="#bbbdbf"/><path d="M159,87a63.9,63.9,0,0,1,0,16.58l-9.79-1.29a53.86,53.86,0,0,0,0-14Z" fill="#ff837d"/><path d="M148.36,106.9,158,109a63.17,63.17,0,0,1-5.67,15.59l-8.77-4.56A52.54,52.54,0,0,0,148.36,106.9Z" fill="#ff837d"/><path d="M158,81.53l-9.64,2.14a53.2,53.2,0,0,0-4.77-13.17L152.34,66A62.22,62.22,0,0,1,158,81.53Z" fill="#f8c18c"/><path d="M149.56,61.15l-8.33,5.3a53.83,53.83,0,0,0-9-10.72l6.67-7.28A63.58,63.58,0,0,1,149.56,61.15Z" fill="#f8c18c"/><path d="M134.64,44.89l-6,7.83a53,53,0,0,0-12.12-7l3.78-9.12A62.27,62.27,0,0,1,134.64,44.89Z" fill="#f8c18c"/><rect x="114.62" y="133.98" width="7.44" height="7.43" fill="#d8d8d8"/><path d="M115.08,34.69l-3,9.41a53.29,53.29,0,0,0-13.8-2.41l.43-9.88A63.43,63.43,0,0,1,115.08,34.69Z" fill="#fff"/><rect x="99.7" y="133.98" width="7.44" height="7.43" fill="#d8d8d8"/><path d="M104.51,89.72l.81,5.47c0,7.42-4.17,13.44-9.32,13.44s-9.32-6-9.32-13.44l.8-5.43L96,31.81Z" fill="#d8d8d8"/><path d="M93.2,31.81l.43,9.87a53.67,53.67,0,0,0-13.79,2.43l-3-9.43A64,64,0,0,1,93.2,31.81Z" fill="#fff"/><rect x="84.82" y="133.98" width="7.44" height="7.43" fill="#d8d8d8"/><rect x="69.94" y="133.98" width="7.43" height="7.43" fill="#d8d8d8"/><path d="M71.66,36.58l3.78,9.12a52.94,52.94,0,0,0-12.13,7l-6-7.83A62.37,62.37,0,0,1,71.66,36.58Z" fill="#fff"/><path d="M53.05,48.45l6.68,7.27c-1.15,1.05-2.25,2.15-3.32,3.32a53.89,53.89,0,0,0-5.69,7.41l-8.33-5.3a63.65,63.65,0,0,1,6.74-8.78C50.39,51,51.71,49.68,53.05,48.45Z" fill="#fff"/><path d="M39.61,66l8.77,4.55a52.75,52.75,0,0,0-4.79,13.17l-9.65-2.13A62.77,62.77,0,0,1,39.61,66Z" fill="#fff"/><path d="M48.37,120.07l-8.77,4.55A62.93,62.93,0,0,1,34,109l9.64-2.13A53.63,53.63,0,0,0,48.37,120.07Z" fill="#fff"/><path d="M42.78,102.29,33,103.57A63.83,63.83,0,0,1,33,87l9.79,1.28A53.42,53.42,0,0,0,42.78,102.29Z" fill="#fff"/><path d="M100.14,96A4.15,4.15,0,1,1,96,91.85,4.14,4.14,0,0,1,100.14,96Z" fill="#56595b"/></svg>