<svg xmlns="http://www.w3.org/2000/svg" viewBox="0 0 192 192"><path fill="#56595b" d="M179.35 96.37a83.35 83.35 0 1 1-83-83.72 83.38 83.38 0 0 1 83 83.72Z"/><path fill="#bbbdbf" d="M96 8A88 88 0 1 1 8 96 88 88 0 0 1 96 8Zm3.19 160.9A73 73 0 1 0 23.1 99.19a73 73 0 0 0 76.09 69.71Z"/><path fill="#ff837d" d="M159 87a63.9 63.9 0 0 1 0 16.58l-9.79-1.29a53.86 53.86 0 0 0 0-14ZM148.36 106.9 158 109a63.17 63.17 0 0 1-5.67 15.59l-8.77-4.56a52.54 52.54 0 0 0 4.8-13.13Z"/><path fill="#f8c18c" d="m158 81.53-9.64 2.14a53.2 53.2 0 0 0-4.77-13.17l8.75-4.5A62.22 62.22 0 0 1 158 81.53ZM149.56 61.15l-8.33 5.3a53.83 53.83 0 0 0-9-10.72l6.67-7.28a63.58 63.58 0 0 1 10.66 12.7ZM134.64 44.89l-6 7.83a53 53 0 0 0-12.12-7l3.78-9.12a62.27 62.27 0 0 1 14.34 8.29Z"/><path fill="#d8d8d8" d="M114.62 133.98h7.44v7.43h-7.44z"/><path fill="#fff" d="m115.08 34.69-3 9.41a53.29 53.29 0 0 0-13.8-2.41l.43-9.88a63.43 63.43 0 0 1 16.37 2.88Z"/><path fill="#d8d8d8" d="M99.7 133.98h7.44v7.43H99.7zM104.51 89.72l.81 5.47c0 7.42-4.17 13.44-9.32 13.44s-9.32-6-9.32-13.44l.8-5.43L96 31.81Z"/><path fill="#fff" d="m93.2 31.81.43 9.87a53.67 53.67 0 0 0-13.79 2.43l-3-9.43a64 64 0 0 1 16.36-2.87Z"/><path fill="#d8d8d8" d="M84.82 133.98h7.44v7.43h-7.44zM69.94 133.98h7.43v7.43h-7.43z"/><path fill="#fff" d="m71.66 36.58 3.78 9.12a52.94 52.94 0 0 0-12.13 7l-6-7.83a62.37 62.37 0 0 1 14.35-8.29ZM53.05 48.45l6.68 7.27a51.986 51.986 0 0 0-3.32 3.32 53.89 53.89 0 0 0-5.69 7.41l-8.33-5.3a63.65 63.65 0 0 1 6.74-8.78 65.88 65.88 0 0 1 3.92-3.92ZM39.61 66l8.77 4.55a52.75 52.75 0 0 0-4.79 13.17l-9.65-2.13A62.77 62.77 0 0 1 39.61 66ZM48.37 120.07l-8.77 4.55A62.93 62.93 0 0 1 34 109l9.64-2.13a53.63 53.63 0 0 0 4.73 13.2ZM42.78 102.29 33 103.57A63.83 63.83 0 0 1 33 87l9.79 1.28a53.42 53.42 0 0 0-.01 14.01Z"/><path fill="#56595b" d="M100.14 96A4.15 4.15 0 1 1 96 91.85a4.14 4.14 0 0 1 4.14 4.15Z"/></svg>