<svg xmlns="http://www.w3.org/2000/svg" xml:space="preserve" width="192" height="192"><circle cx="96" cy="96" r="88" fill="#fff"/><g fill="#56595b"><path d="M137.384 95.957a1.18 1.18 0 0 0-.584-1.018L74.939 58.767a1.622 1.622 0 0 0-2.441 1.4V75.77c0 .585.315 1.124.824 1.412l30.83 17.407c1.099.621 1.099 2.205 0 2.826l-30.83 17.407c-.51.288-.824.827-.824 1.413v15.597a1.622 1.622 0 0 0 2.442 1.4l61.861-36.258c.362-.211.583-.598.583-1.017z"/><path d="M87.952 95.006c.775.44.775 1.56 0 2.001l-13.738 7.808a1.148 1.148 0 0 1-1.714-1V88.198c0-.881.949-1.435 1.714-1z"/></g></svg>