<?xml version="1.0" encoding="utf-8"?>
<!-- Generator: Adobe Illustrator 16.0.0, SVG Export Plug-In . SVG Version: 6.00 Build 0)  -->
<!DOCTYPE svg PUBLIC "-//W3C//DTD SVG 1.1//EN" "http://www.w3.org/Graphics/SVG/1.1/DTD/svg11.dtd">
<svg version="1.1" id="Layer_1" xmlns="http://www.w3.org/2000/svg" xmlns:xlink="http://www.w3.org/1999/xlink" x="0px" y="0px"
	 width="192px" height="192px" viewBox="0 0 192 192" enable-background="new 0 0 192 192" xml:space="preserve">
<g>
	<g>
		<linearGradient id="SVGID_1_" gradientUnits="userSpaceOnUse" x1="196.5459" y1="-22.6055" x2="28.1146" y2="179.1788">
			<stop  offset="0.0567" style="stop-color:#FDC394"/>
			<stop  offset="0.1262" style="stop-color:#FDB890"/>
			<stop  offset="0.2493" style="stop-color:#FE9A86"/>
			<stop  offset="0.3144" style="stop-color:#FF877F"/>
			<stop  offset="0.3386" style="stop-color:#FA8B81"/>
			<stop  offset="0.6512" style="stop-color:#BCB694"/>
			<stop  offset="0.8803" style="stop-color:#96D29F"/>
			<stop  offset="1" style="stop-color:#87DCA4"/>
		</linearGradient>
		<path fill="url(#SVGID_1_)" d="M184.082,172.594c0,6.449-5.227,11.676-11.676,11.676H21.108c-6.448,0-11.676-5.227-11.676-11.676
			V21.296c0-6.449,5.228-11.676,11.676-11.676h151.298c6.449,0,11.676,5.227,11.676,11.676V172.594z"/>
	</g>
	<g>
		<defs>
			<path id="SVGID_2_" d="M184.082,172.594c0,6.449-5.227,11.676-11.676,11.676H21.108c-6.448,0-11.676-5.227-11.676-11.676V21.296
				c0-6.449,5.228-11.676,11.676-11.676h151.298c6.449,0,11.676,5.227,11.676,11.676V172.594z"/>
		</defs>
		<clipPath id="SVGID_3_">
			<use xlink:href="#SVGID_2_"  overflow="visible"/>
		</clipPath>
		<g clip-path="url(#SVGID_3_)">
			<path fill="#FDC394" d="M36.667,108.006c0,0,2.481,9.182,3.474,13.648s1.489,6.949,1.489,6.949s0.248,0-4.715,0
				s-5.956,0.496-10.175,0.744c-4.219,0.248-3.971,0.248-9.43,2.979c-5.46,2.73-7.859,2.73-8.603,5.957v47.4h149.315
				c0,0-15.386-16.381-18.612-22.832c-3.227-6.453-5.46-11.912-13.649-17.621c-8.189-5.707-15.635-6.451-22.336-8.438
				c-6.699-1.984-11.167-2.232-11.167-2.232s-3.971-3.475-4.467-9.432c-0.497-5.955-1.241-15.883-1.241-15.883
				s-7.718-1.297-12.793,0.096C68.681,110.736,36.667,108.006,36.667,108.006z"/>
			<path fill="#E2A171" d="M52.733,164.785c0.064,1.018,0.064,1.541,0.064,1.541S53.161,166.324,52.733,164.785z M86.549,109.246
				c0,0-7.718-1.297-12.793,0.096c-5.075,1.395-37.089-1.336-37.089-1.336s2.481,9.182,3.474,13.648
				c0.524,2.359,0.91,4.166,1.158,5.344c0.054,0.076,0.083,0.117,0.083,0.117s0.032,0.254,0.087,0.703
				c0.107,0.516,0.161,0.785,0.161,0.785h-0.063c0.189,1.535,0.499,4.07,0.808,6.701c0.496,4.219-0.993,6.451-3.723,10.422
				s-5.956,10.176-0.497,14.891c5.46,4.715,5.46,1.986,7.445-2.232c1.985-4.221,1.737-5.957,4.963,0.992
				c1.274,2.744,1.89,4.402,2.169,5.408c-0.119-1.883-0.458-5.467-1.424-10.621c-1.489-7.941-4.715-20.102-0.249-17.867
				c4.467,2.234,8.686,4.219,16.628,0c7.941-4.219,10.919-7.445,14.146-12.16c1.706-2.492,3.688-6.025,5.179-8.803
				C86.75,111.926,86.549,109.246,86.549,109.246z"/>
			<path fill="#FFFFFF" d="M28.973,182.953c-0.497-4.467-1.241-13.402-3.227-21.094c-1.985-7.693-2.729-10.176-1.489-15.387
				c1.241-5.213,2.73-7.941,8.934-10.176c6.205-2.234,8.934-2.979,8.934-2.979l-0.496-4.715h-4.715
				c-4.963,0-5.956,0.496-10.175,0.744c-4.219,0.248-3.971,0.248-9.43,2.979c-5.46,2.73-7.859,2.73-8.603,5.957v47.4H29.28
				C29.191,184.904,29.089,183.996,28.973,182.953z"/>
			<path fill="#FFFFFF" d="M101.439,140.764c6.204,2.979,17.371,5.957,21.343,12.656c3.97,6.701-11.664,17.373-16.628,25.811
				c-1.189,2.021-2.093,4.244-2.781,6.453h54.648c0,0-15.386-16.381-18.612-22.832c-3.227-6.453-5.46-11.912-13.649-17.621
				c-8.189-5.707-15.635-6.451-22.336-8.438c-6.699-1.984-11.167-2.232-11.167-2.232S95.235,137.785,101.439,140.764z"/>
			<path fill="#56595B" d="M109.687,185.684c0.73-1.646,2.899-5.914,7.884-11.664c5.85-6.75,11.698-15.539,17.363-19.525
				c-2.046-3.146-4.734-6.168-9.174-9.264c-1.146-0.799-2.276-1.496-3.394-2.117c-1.932-0.168-5.481,0.283-10.256,4.104
				c-7.445,5.955-12.905,11.664-18.613,18.613c-5.455,6.639-13.852,14.412-18.052,19.854H109.687z"/>
			<path fill="#B1B5BC" d="M21.28,179.975c0-9.678,0.745-37.473,0.745-37.473s-4.963,5.707-6.701,10.67
				c-1.737,4.965-5.212,10.672-4.219,17.373c0.856,5.775-0.686,7.311-2.398,9.055v6.084h12.02
				C21.098,184.307,21.28,182.473,21.28,179.975z"/>
			<path fill="#838384" d="M102.428,183.945c-2.978-2.48-9.678-6.949-14.642-9.182c-4.963-2.234-4.715-0.248-9.927,4.467
				c-3.217,2.91-4.447,5.158-4.918,6.453h2.658c2.095-3.164,6.011-6.73,7.472-8.189c1.737-1.738,3.723,0.992,8.934,4.467
				c1.725,1.148,3.34,2.488,4.775,3.723h7.123C103.645,185.148,103.178,184.57,102.428,183.945z"/>
			<path fill="#FF877F" d="M28.973,182.953c-0.497-4.467-1.241-13.402-3.227-21.094c-1.985-7.693-2.729-10.176-1.489-15.387
				c1.071-4.498,2.33-7.146,6.642-9.225c-1.16-0.121-5.37-0.234-8.13,4.012c-3.227,4.965-5.708,11.168-6.205,17.621
				c-0.496,6.451-2.729,10.92-2.481,17.867c0.11,3.092-0.466,6.281-0.311,8.936H29.28C29.191,184.904,29.089,183.996,28.973,182.953
				z"/>
			<path fill="#FDC394" d="M35.922,110.984c0,0,6.453,6.451,12.905,10.422c6.453,3.971,10.671,8.934,17.372,8.189
				s9.927-2.232,13.401-6.203c3.475-3.971,7.197-8.438,7.197-8.438s7.197-9.928,12.16-18.366c4.964-8.438,7.445-10.423,7.445-18.861
				c0-8.438-1.24-25.81-8.934-33.999C89.775,35.54,56.52,27.598,45.353,27.35c-11.167-0.248-24.817,11.416-26.554,22.583
				c-1.737,11.168-3.723,32.015,2.978,42.934C28.477,103.787,35.922,110.984,35.922,110.984z"/>
			<path fill="#E2A171" d="M106.326,73.983c-0.677-7.314-3.482-21.337-10.455-21.337c0,0,0,5.46,1.489,8.272
				s0.496,6.618,0.993,10.424c0.496,3.806,1.654,5.791,0.992,10.424s-1.654,6.783-2.646,12.244
				c-0.541,2.971,1.025,2.903,2.832,1.613c4.58-7.637,6.871-9.789,6.871-17.896C106.402,76.621,106.381,75.358,106.326,73.983z
				 M32.336,103.109c-3.475-8.107-4.633-13.071-5.129-18.035c-0.496-4.963-1.654-10.92-1.82-16.545
				c-0.166-5.626-0.497-9.762,0-11.913c0.497-2.15-7.28,5.791-7.28,14.726s1.323,17.704,5.294,22.668
				c1.334,1.668,2.669,4.439,4.394,7.595c4.483,5.855,8.126,9.379,8.126,9.379s3.96,3.959,8.778,7.584
				C42.229,116.375,35.179,109.742,32.336,103.109z M22.575,88.384c-0.993-2.481-1.158-5.129-1.158-5.129
				c0.166,1.654,1.158,0.661,3.144,1.819s1.985,0,1.158-1.985c-0.828-1.985-0.497-3.971-0.497-3.971
				c1.655,5.791,1.324,5.956,0.993,7.942c-0.331,1.985,0.993,4.633,0.993,4.633C24.063,92.024,23.567,90.866,22.575,88.384z"/>
			<path fill="#56595B" d="M56.824,66.378c0,0-0.331-1.819-2.647-3.309s-14.064-5.957-21.509-3.475c0,0,2.481,0,5.956,0.496
				s7.28,1.82,11.085,3.144C53.515,64.559,54.838,65.386,56.824,66.378z"/>
			<path fill="#E2A171" d="M55.169,69.522c0,0-1.985-2.481-7.446-3.64c-5.46-1.158-8.935,0.662-10.92,2.151
				c-1.985,1.488-2.813,0.992-2.813,0.992s0.993,0.331,2.813,0.331s-0.497,1.158-1.324,1.654s-0.166,0.331,1.655,2.151
				c1.82,1.82,5.625,2.978,10.754,1.82c5.129-1.159,6.949-2.316,6.453-2.482c-0.496-0.165-1.158-2.979-6.453-3.971
				C42.595,67.537,48.551,65.882,55.169,69.522z"/>
			<path fill="#FFFFFF" d="M38.568,71.232c0,0,0.934-2.694,6.012-2.592c5.46,0.11,7.004,2.867,7.611,3.86c0,0-4.467,2.262-9.1,1.379
				S38.568,71.232,38.568,71.232z"/>
			<path fill="#E2A171" d="M52.467,74.596c0,0-3.749,3.198-10.695,2.428c-1.057-0.118-1.941-0.687-2.762-1.324
				c0,0,2.647,1.103,6.177,0.882C48.716,76.361,52.467,74.596,52.467,74.596z"/>
			<path fill="#E2A171" d="M31.895,62.904c0,0-1.489-4.743-1.709-7.941c0,0,1.765,2.537,4.191,3.64c0,0-3.309-3.529-4.302-6.177
				c0,0,3.75,3.199,6.397,3.971c2.647,0.772,6.398,2.096,7.06,2.979c0.662,0.882-0.331-1.434,0.882-1.323
				c1.213,0.109,1.213,0.109,1.213,0.109s-2.206-2.315-2.978-3.971c-0.772-1.654-2.427-7.279-2.427-7.279s3.199,6.728,6.177,8.935
				c0,0-2.757-3.972-2.978-5.516c0,0,5.405,6.839,8.273,8.935l1.323,0.772c0,0-1.654-2.868-2.426-4.964
				c0,0,5.735,5.956,10.148,6.287c0,0-2.427-1.544-4.082-3.529c-1.654-1.985,0.993,1.765,8.383,3.309c0,0-5.074-1.654-7.391-5.294
				c-2.316-3.641-9.045-5.736-11.471-9.928c-2.427-4.191-6.177-17.318-9.928-17.648c-3.75-0.331-10.258,2.868-10.81,4.963
				s-0.882,9.486,0,12.464S28.366,58.933,31.895,62.904z"/>
			<path fill="#E2A171" d="M74.858,68.64c0,0,0.221-0.552,2.206-1.875c1.985-1.324,5.405-2.647,8.052-2.647s3.419,0.331,4.964,1.213
				c1.544,0.883,1.875,0.772,2.537,0.552c0,0-1.103,0.993-2.537,0.221c0,0,0.882,0.992,2.316,0.992s0.441,0,0.441,0
				s-1.875,0.441-1.875,1.324s-3.199,3.971-6.729,4.191s-7.556-0.606-8.548-0.606s-1.019-0.802,0.055-2.041
				c1.434-1.654,2.206-2.758,2.206-2.758S76.624,67.537,74.858,68.64z"/>
			<path fill="#FFFFFF" d="M77.616,70.405c0,0,0.993-3.64,4.853-4.412c3.861-0.772,6.177,1.323,6.729,1.985
				c0,0-1.104,3.089-4.854,3.529C80.594,71.949,77.616,70.405,77.616,70.405z"/>
			<path fill="#E2A171" d="M78.167,73.107c0,0,4.633,1.158,7.721,0.387c3.089-0.772,5.185-3.53,5.185-3.53s-1.544,3.199-5.019,4.137
				C83.084,74.902,78.167,73.107,78.167,73.107z"/>
			<path fill="#E2A171" d="M58.313,102.393c0,0-0.662,0.221-0.552,0.883s0.331,0.33,0.772-0.33
				C58.975,102.283,58.975,101.842,58.313,102.393z"/>
			<path fill="#E2A171" d="M88.756,79.339c0,0-0.772-0.772-1.323-0.772c-0.552,0-0.331,0.221,0.331,0.993
				S89.418,79.67,88.756,79.339z"/>
			<path fill="#E2A171" d="M67.468,76.14c0,0-0.772,0.221-0.331,0.883s1.103,0.552,1.103,0.552S67.909,76.14,67.468,76.14z"/>
			<path fill="#E2A171" d="M63.276,78.237c0,0-0.882,1.103-0.22,1.103C63.718,79.339,63.828,78.237,63.276,78.237z"/>
			<path fill="#E2A171" d="M54.011,80.112c0,0-0.441,0.771-0.22,1.213c0.22,0.441,0.551-0.221,0.551-0.552
				S54.232,79.67,54.011,80.112z"/>
			<path fill="#E2A171" d="M44.304,82.979c0,0-0.331,0.662,0.662,0.772S45.297,82.097,44.304,82.979z"/>
			<path fill="#E2A171" d="M37.465,80.773c-1.434,0.993,0.331,0.772,0.883,0.331C38.348,81.104,38.899,79.781,37.465,80.773z"/>
			<path fill="#E2A171" d="M55.886,83.641c0,0-0.882,1.654-0.331,1.214C56.107,84.414,56.438,83.42,55.886,83.641z"/>
			<path fill="#E2A171" d="M67.579,72.059c0,0-0.772,0.552-0.662,1.324C67.027,74.155,68.13,72.832,67.579,72.059z"/>
			<path fill="#E2A171" d="M65.262,61.801c-1.103,0.441,0.331,0.771,1.323,0.882C66.585,62.683,66.365,61.36,65.262,61.801z"/>
			<path fill="#E2A171" d="M79.381,82.979c0,0-0.662-0.551-0.882-0.221c-0.221,0.331,0,0.662,0.551,0.662
				C79.602,83.42,79.822,82.979,79.381,82.979z"/>
			<path fill="#E2A171" d="M75.476,121.809c0,0-1.212,0.471-0.937,1.004c0.276,0.533,0.875,0.484,1.278-0.244
				C76.22,121.84,75.799,121.225,75.476,121.809z"/>
			<path fill="#E2A171" d="M63.607,80.994c0,0-0.993,0.993-0.331,0.993C63.938,81.987,64.049,80.883,63.607,80.994z"/>
			<path fill="#E2A171" d="M65.813,78.898c0,0-1.544-0.551-0.993,0.11C65.373,79.67,66.476,79.229,65.813,78.898z"/>
			<path fill="#E2A171" d="M62.394,82.979c0,0-0.993,0.552-0.331,0.552C62.725,83.531,62.945,83.2,62.394,82.979z"/>
			<path fill="#E2A171" d="M61.843,79.891c0,0-0.441,0.992-0.11,0.882C62.063,80.663,62.174,79.891,61.843,79.891z"/>
			<path fill="#E2A171" d="M58.203,90.921c0,0-1.103,2.979-0.662,4.964c0.441,1.986,3.309,2.095,4.633,1.875c0,0-3.64,0-4.192-2.426
				C57.431,92.907,58.203,90.921,58.203,90.921z"/>
			<path fill="#56595B" d="M65.152,97.43c0,0-1.103-0.993-1.875-1.434c-0.772-0.441-1.213-1.104-2.426-0.552
				s-0.11,1.875,0.993,1.875s-0.883-1.102,0.22-0.881C63.167,96.658,65.152,97.43,65.152,97.43z"/>
			<path fill="#56595B" d="M68.571,96.658c0,0,1.213-1.104,1.654-1.766c0.441-0.661,0.993-0.11,1.875-0.11
				c0.882,0-1.324,0.883-1.986,1.324C69.454,96.547,68.571,96.658,68.571,96.658z"/>
			<path fill="#56595B" d="M66.089,105.537c0,0-4.633,0.441-6.177,1.268c-1.544,0.828-3.419,3.475,0.276,3.916
				c3.695,0.441,8.273,0.828,10.645,0.441s6.287-2.924,5.239-4.137s-3.309-1.213-4.522-1.324
				C70.336,105.592,66.089,105.537,66.089,105.537z"/>
			<path fill="#E2A171" d="M72.321,89.267c0,0,1.103,2.537,0.883,4.522c-0.221,1.985-1.544,2.427-3.089,3.088
				c0,0,2.206,0.332,3.199-1.544C74.474,93.143,73.204,91.032,72.321,89.267z"/>
			<path fill="#FF877F" d="M79.16,106.088c-0.993,0.166-3.309-0.992-5.46-1.82c-2.151-0.826-2.647-0.992-4.467-0.164
				c-1.82,0.826-2.151,0.66-2.151,0.66s-1.324,0-2.482-0.496s-4.136,0.496-5.294,1.324s-3.144,1.984-3.806,2.646
				c-0.662,0.662-3.309,0.496-1.82,1.324s3.475,3.641,5.957,4.467c2.481,0.828,4.302,1.656,8.107,1.158
				c3.806-0.496,6.949-0.496,9.1-3.639c2.151-3.145,2.316-4.303,3.475-4.633C81.477,106.584,80.153,105.922,79.16,106.088z
				 M71.991,108.791c-1.213,0.221-3.199,0.551-4.964,0.662c-1.765,0.109-3.199-0.332-4.963-0.332c-1.743,0-3.106-0.16-3.141-0.164
				c-0.002,0-0.003,0-0.003,0s0.003,0,0.003,0c0.03,0.002,0.297-0.012,1.431-0.939c1.213-0.992,1.379-0.66,3.806-0.551
				c2.426,0.109,4.191-0.111,5.074-0.551c0.882-0.441,2.316,0.221,3.53,0.551s1.875,0.33,1.875,0.33S73.204,108.57,71.991,108.791z"
				/>
			<path fill="#D66B66" d="M70.737,109.006c1.72-0.107,2.711-0.223,4.453-0.768c1.765-0.551,2.978-0.992,3.75-1.213
				c0.772-0.221-1.324,0-2.868,0s-2.316-0.109-4.302-0.551s-2.096-0.111-3.53,0.221c-1.434,0.33-2.151,0.496-2.151,0.496
				s-1.6,0.055-3.585-0.166s-2.647,0.771-4.522,1.324c-1.875,0.551-2.647,0.441-3.309,0.441c-0.662,0-2.206,0.33-0.551,0.883
				c1.654,0.551,1.875,0.33,3.529,0.109c1.655-0.221,2.868-0.662,5.516-0.33c2.647,0.33,3.86,0,3.86,0
				c-1.765,0.109-3.199-0.332-4.963-0.332c-1.743,0-3.106-0.16-3.141-0.164c0.03,0.002,0.297-0.012,1.431-0.939
				c1.213-0.992,1.379-0.66,3.806-0.551c2.426,0.109,4.191-0.111,5.074-0.551c0.882-0.441,2.316,0.221,3.53,0.551
				s1.875,0.33,1.875,0.33s-1.434,0.773-2.647,0.994C71.632,108.855,71.205,108.932,70.737,109.006z"/>
			<path fill="#FF9B99" d="M73.755,109.342c0,0-1.875,0.221-3.419,0.332c-1.544,0.109-2.757,0.66-6.177,0.439
				s-3.64,0.221-4.964,0.332c-1.324,0.109-0.441,1.213,2.206,2.316s4.522,0.551,7.721,0
				C72.322,112.209,74.307,111.768,73.755,109.342z"/>
			<path fill="#777777" d="M66.2,107.854c0,0-1.82-0.166-2.703-0.221c-0.882-0.057-0.717,0.221-0.772,0.826
				c-0.055,0.607,0.331,0.717,2.096,0.883s1.82-0.221,1.82-0.441s0.221,0.496,1.324,0.332c1.103-0.166,3.254-0.553,3.199-1.215
				c-0.055-0.66-0.441-0.992-1.268-0.826c-0.828,0.166-1.655,0.33-2.427,0.441c-0.772,0.109-0.717,0.605-0.717,0.605
				S66.751,107.908,66.2,107.854z"/>
			<path fill="#87DED5" d="M49.047,71.011c0-0.588-0.147-1.142-0.405-1.627c-1.032-0.417-2.356-0.71-4.062-0.744
				c-0.59-0.013-1.122,0.015-1.605,0.07c-0.543,0.613-0.876,1.417-0.876,2.301c0,1.265,0.678,2.368,1.688,2.976
				c1.291,0.163,2.551,0.102,3.688-0.068C48.42,73.298,49.047,72.229,49.047,71.011z"/>
			<circle fill="#56595B" cx="45.573" cy="71.011" r="1.572"/>
			<path fill="#87DED5" d="M82.469,65.993c-0.807,0.161-1.488,0.449-2.061,0.802c-0.214,0.451-0.338,0.954-0.338,1.487
				c0,1.533,0.994,2.831,2.372,3.293c0.603,0.026,1.24,0.011,1.903-0.067c0.281-0.032,0.546-0.082,0.798-0.143
				c1.114-0.579,1.876-1.741,1.876-3.083c0-0.806-0.276-1.544-0.736-2.133C85.258,65.829,83.983,65.69,82.469,65.993z"/>
			<circle fill="#56595B" cx="83.545" cy="68.282" r="1.572"/>
			<path fill="#56595B" d="M20.349,78.343c-0.04,0.082-0.062,0.13-0.062,0.13C20.309,78.43,20.328,78.386,20.349,78.343z
				 M131.22,71.276c-3.971-6.7-0.744-4.715-4.716-9.431c-3.971-4.715-5.708-11.912-7.941-20.598
				c-2.233-8.686-6.7-21.343-11.664-28.292c0,0,4.992,6.774,7.42,11.862c-1.061-2.544-2.827-6.523-4.689-9.628
				c-2.979-4.963-4.964-6.701-4.964-6.701s5.46,4.219,7.941,9.679c0,0-1.985-6.701-7.941-11.416H17.309
				c0,0-8.934,5.211-8.934,15.138v90.831c0,0,2.978,4.963,6.453,6.205c0,0-3.227-1.986-3.227-4.469c0-0.922-0.068-2.049-0.154-3.102
				c0.577,1.68,1.95,3.486,5.118,4.096c0,0-3.723-0.994-3.723-7.197c0,0,0.248,2.979,2.73,4.963
				c2.481,1.986,1.489,5.957,0.496,8.438c0,0,3.723-0.496,3.226-6.451c0,0,4.963,3.969,5.46,9.182c0,0-0.249-5.957-2.482-8.686
				c0,0,2.679,0.535,3.643,2.063c-0.298-0.684-0.821-1.615-1.657-2.311c0,0,1.986,0.496,3.227,2.977c0,0,0.248-1.488-0.745-5.955
				s-0.993-6.949-0.993-6.949s0.993,6.701,3.226,9.432c2.233,2.729-0.496,5.955-0.496,5.955s2.729-0.496,2.729-3.227
				c0,0,4.467,1.242,3.227,6.701c0,0,3.723-2.234,1.489-8.189l2.978,4.963c0,0-1.241-3.475-1.985-6.701
				c-0.744-3.225-0.496-2.729-3.226-6.451s-4.467-10.176-6.204-15.387c0,0-4.467,0.745-6.453-4.715s-1.985-7.197-0.745-13.153
				c1.241-5.956,1.241-5.956,1.241-5.956s0.972,5.11-1.179,9.549c0.342-0.717,2.052-4.243,3.165-5.578c0,0,0.496,3.723,2.481,5.708
				c0,0-2.233-7.941,0-20.847c0,0,1.241,6.701,0.249,11.664c0,0,2.481-7.445,1.985-11.912c0,0,0.744,2.73,4.219,6.701
				c0,0-3.475-6.453-3.971-15.139c0,0,1.876,5.467,11.204,8.47c1.76,1.949,3.568,3.7,5.424,4.684l-2.482-2.482
				c0,0,1.985,1.489,4.715,2.73c0,0-1.391-1.547-3.047-3.793c1.32,0.239,2.746,0.433,4.288,0.566c0,0-2.116-0.477-4.983-1.532
				c-1.804-2.562-3.73-5.774-4.447-8.643c-1.19-4.761-0.885-10.758-1.249-14.823c1.16,5.931,5.06,20.364,16.442,28.125
				c0,0-4.633-6.949-6.618-11.582c0,0,5.294,9.266,16.876,9.927l-4.963-3.64c0,0,11.251,6.287,12.905,1.654
				c0,0,7.942,3.971,12.244,0.993c-3.309,0.221-5.515-1.985-5.515-1.985l1.985,0.882c-3.088-1.765-6.397-5.735-6.397-5.735
				c7.28,6.066,10.479,6.397,10.479,6.397l-0.552,0.441h4.633l0.331-1.654c0,0,1.985,0,3.309,2.315c0,0,0.439-2.382-2.787-6.353
				c0,0,4.963,2.979,6.453,5.212c0,0-0.993-2.233,0-4.715c0,0,1.736,5.211,2.729,6.948c0,0,0,5.212,0.248,8.687
				c0.248,3.474,0.248,9.182,0.248,9.182s2.233,0.248,2.729,3.475s-2.729,5.46-4.467,5.956c0,0-0.992,3.475-2.482,9.43
				c-1.489,5.957-3.723,10.424-7.445,15.139l-1.489,1.738c0,0,0.248,9.91,1.486,13.145c-0.037-0.102-0.441-1.338,0.747-3.715
				c1.241-2.482,1.241-4.467,1.241-4.467s0.248,0.992,0.993,4.715c0.744,3.723,2.233,4.963,2.233,4.963s-1.489-1.24-0.496-4.963
				c0.992-3.723,1.241-7.941,0.992-11.912c0,0,0.993,5.459,0.249,9.678c0,0,1.984-5.211,1.489-9.926c0,0,0.745,3.475,2.234,6.701
				c1.489,3.225-0.496,6.947-2.482,9.182c0,0,8.19-1.986,10.175-8.934c1.474-5.16,1.307-7.172,1.122-7.865
				c0.437,1.127,1.816,4.973,1.607,8.113c0,0,0.744-5.461,0.248-7.445c-0.496-1.986,2.73,0.992,2.233,5.459
				c0,0,2.234-1.984,2.73-6.947c0,0,0.744,2.232,3.226,3.721c0,0-1.24-1.736-0.496-5.211c0,0,1.985,6.205,7.941,10.424
				c0,0-3.475-3.475-3.226-7.445c0,0,0.496,2.232,2.481,3.723c0,0-1.489-2.482-0.497-7.693c0.993-5.211,6.701-17.621,5.709-25.81
				c-0.518-4.266-1.707-7.115-2.729-8.868c1.084,1.119,2.664,2.302,4.715,2.664c0,0-5.212-3.475-6.949-8.189
				c0,0,3.227,0.496,5.46,2.729s4.963,7.197,1.985,16.379C131.22,87.159,135.19,77.977,131.22,71.276z M33.192,36.036
				c0,0,0,8.687,1.985,12.408c0,0-2.729-3.226-2.978-4.467C31.951,42.737,30.462,39.014,33.192,36.036z M28.229,42.737
				c0,0,1.241,3.971,4.963,7.444c1.346,1.257,2.725,2.871,4.136,4.524C32.746,52.087,28.456,48.194,28.229,42.737z M25.915,117.762
				c0.233,0.533,0.329,0.914,0.329,0.914C26.206,118.338,26.087,118.033,25.915,117.762z M114.318,24.818
				c0.636,1.523,1.019,2.532,1.019,2.532C115.109,26.593,114.755,25.732,114.318,24.818z"/>
			<path fill="#FDC394" d="M114.318,24.818c0.636,1.523,1.019,2.532,1.019,2.532C115.109,26.593,114.755,25.732,114.318,24.818z
				 M131.22,71.276c-3.971-6.7-0.744-4.715-4.716-9.431c-3.971-4.715-5.708-11.912-7.941-20.598
				c-2.233-8.686-6.7-21.343-11.664-28.292c0,0,4.992,6.774,7.42,11.862c-1.061-2.544-2.827-6.523-4.689-9.628
				c-2.979-4.963-4.964-6.701-4.964-6.701s5.46,4.219,7.941,9.679c0,0-1.985-6.701-7.941-11.416h-9.021
				c3.449,2.69,7.119,6.672,9.518,12.408c5.708,13.649,5.211,20.599,5.211,20.599s-1.24-8.19-3.226-12.161
				c0,0,1.488,7.445,1.488,12.409l-1.985-5.708c0,0,0.249,2.233,0.249,8.19c0,5.956,0.744,12.408,3.226,17.868
				s1.489,10.423,1.489,10.423s1.489-5.708,0.496-9.679c0,0,1.489,4.219,1.241,7.197c0,0,0.992-5.708-0.993-9.679
				s2.979,4.467,2.73,10.175s-3.971,16.876-1.985,26.803c0,0-0.248-9.183,1.24-13.649c0,0-2.233,17.373,0.745,26.058
				c0,0-0.745-6.949,0.248-11.913c0,0-0.993,8.438,3.475,15.387c0,0-2.73-6.949-1.737-14.395c0.992-7.445,1.24-15.883,1.24-15.883
				s0.497,7.445,0.248,10.424c0,0,0.745-7.693,0.745-12.161c0-4.467,1.737,6.949,1.737,6.949s-0.248-3.475-0.248-5.708
				s0.744,4.219,2.481,7.693s1.985,7.693,0.248,12.409c-1.454,3.947-2.731,9.98-0.344,14.316c-0.369-1.115-0.817-3.379-0.153-6.871
				c0.993-5.211,6.701-17.621,5.709-25.81c-0.518-4.266-1.707-7.115-2.729-8.868c1.084,1.119,2.664,2.302,4.715,2.664
				c0,0-5.212-3.475-6.949-8.189c0,0,3.227,0.496,5.46,2.729s4.963,7.197,1.985,16.379C131.22,87.159,135.19,77.977,131.22,71.276z"
				/>
			<path fill="#F9DE90" d="M109.431,23.434c-1.739-3.152-3.276-5.266-3.276-5.266L109.431,23.434z M131.22,71.276
				c-3.971-6.7-0.744-4.715-4.716-9.431c-3.971-4.715-5.708-11.912-7.941-20.598c-2.233-8.686-6.7-21.343-11.664-28.292
				c0,0,4.992,6.774,7.42,11.862c-1.061-2.544-2.827-6.523-4.689-9.628c-2.979-4.963-4.964-6.701-4.964-6.701
				s5.46,4.219,7.941,9.679c0,0-1.985-6.701-7.941-11.416h-5.969c1.856,1.532,4.144,3.855,6.218,7.197
				c4.467,7.197,8.189,15.387,8.189,15.387l-3.673-5.902c1.687,3.054,3.563,7.083,4.417,11.113
				c1.737,8.19,5.212,16.627,5.212,16.627s-4.219-7.197-5.212-12.16c-0.992-4.963-2.233-8.438-2.233-8.438
				s2.729,12.657,3.971,16.875s3.227,7.197,5.708,10.672c0,0-5.212-4.716-6.7-9.431c0,0,2.978,9.183,5.956,11.664
				c2.978,2.481,2.978,2.481,2.978,2.481s-0.992,0-4.219-1.985s-6.204-10.423-6.204-10.423s0.992,7.196,3.971,11.664
				c2.978,4.467,5.46,7.941,5.708,12.904c0,0-3.723-8.934-6.205-10.919c0,0,3.972,5.46,4.964,11.912
				c0.993,6.452,1.489,7.196,3.227,11.664c1.737,4.467,0.992,8.438-0.496,15.139c-0.183,0.818-0.313,1.582-0.4,2.291
				c1.875-6.08,5.693-15.823,4.867-22.642c-0.518-4.266-1.707-7.115-2.729-8.868c1.084,1.119,2.664,2.302,4.715,2.664
				c0,0-5.212-3.475-6.949-8.189c0,0,3.227,0.496,5.46,2.729s4.963,7.197,1.985,16.379C131.22,87.159,135.19,77.977,131.22,71.276z
				 M114.318,24.818c0.636,1.523,1.019,2.532,1.019,2.532C115.109,26.593,114.755,25.732,114.318,24.818z"/>
			<path fill="#626466" d="M73.396,54.649c0,0-10.423-4.219-16.627-12.905c0,0,5.956,6.949,13.897,10.175
				c0,0-5.211-3.226-8.934-8.686c0,0,3.474,3.971,9.182,5.46c0,0-9.182-3.723-13.153-13.898c0,0,3.474,6.453,9.679,9.927
				c0,0-8.686-6.949-10.92-20.102c0,0,0.497,6.205,0.993,8.686c0,0-1.986-4.219-2.73-6.949c0,0,0.993,8.686,3.723,12.408
				c0,0-3.475-4.219-4.219-8.686c0,0,0,4.467,2.233,7.942c0,0-3.226-3.475-3.97-8.438c0,0,0.744,6.453,2.729,9.679
				c0,0-4.963-6.701-5.211-14.146c0,0-0.497,6.452,1.489,10.919c0,0-3.227-5.957-3.227-13.153c0,0-0.993,5.708,0.993,11.416
				c0,0-2.233-4.963-2.233-8.686c0,0-0.249,5.212,1.241,9.431c0,0-3.474-5.212-1.489-16.628c0,0-4.467,14.394-0.993,22.832
				c3.474,8.438,9.679,9.431,9.679,9.431s-8.19-3.475-8.686-13.401c0,0,1.737,5.46,4.715,8.438c0,0-1.985-3.475-1.737-6.949
				c0,0,0.745,5.708,8.934,9.679c0,0-4.715-3.227-6.949-8.438c0,0,2.73,4.467,5.459,5.708c0,0-2.729-3.723-2.978-5.708
				C54.287,40.007,57.761,48.941,73.396,54.649z"/>
			<path fill="#626466" d="M73.644,42.737c0,0-1.985-3.723-2.978-5.957c-0.993-2.233,2.978,3.227,2.978,3.227
				s-2.481-5.708-4.219-8.189c-1.737-2.482,3.722,3.97,3.722,3.97s-2.481-4.715-5.708-7.445s-3.226-2.73-3.226-2.73
				s2.729,3.723,4.219,5.956c1.489,2.233-2.482-1.489-2.482-1.489l2.73,4.219l-4.219-2.73l1.985,3.723c0,0-3.971-3.723-7.445-12.905
				c0,0,1.737,8.934,7.693,15.138s8.189,8.687,8.189,8.687l-7.197-10.424L73.644,42.737z"/>
			<path fill="#626466" d="M73.644,20.897l4.963,5.708l-4.219-3.474l3.723,4.715c0,0-4.715-3.971-8.438-6.949
				c0,0,3.474,4.467,9.679,9.182c3.448,2.621,5.438,4.626,6.527,5.893c-1.65-2.177-4.696-6.122-6.775-8.375
				c0,0,5.956,5.212,9.182,10.671s3.226,5.459,3.226,5.459s-5.211-10.175-8.438-13.897C79.848,26.109,73.644,20.897,73.644,20.897z"
				/>
			<path fill="#626466" d="M91.016,36.284c4.963,2.233,4.963,2.233,4.963,2.233s-6.453-3.723-8.686-7.445
				c0,0,2.73,2.978,6.452,4.467c0,0-3.97-4.219-5.956-7.445c-1.985-3.226-4.715-6.7-4.715-6.7l4.219,7.941l-3.723-5.212l2.234,5.212
				c0,0-4.715-4.467-7.693-7.445C78.111,21.89,86.053,34.051,91.016,36.284z"/>
			<path fill="#626466" d="M19.791,18.167c0,0-4.715,6.205-3.971,17.869C16.565,47.7,16.565,47.7,16.565,47.7
				s-2.234-10.671-1.985-15.386c0,0-0.993,4.963-0.249,8.438c0,0-1.985-5.957-0.248-13.898c0,0-3.474,8.934-1.985,15.635
				c1.489,6.7,2.233,10.175,2.233,10.175l-0.993-9.679c0,0,3.723,10.423,2.73,18.861c-0.993,8.438-4.715,17.123-4.715,17.123
				s4.467-13.401,3.723-20.846c0,0-0.745,7.692-2.481,13.401c-1.737,5.707-3.475,15.634,1.737,24.072
				c5.212,8.438,5.212,8.438,5.212,8.438s-7.942-9.431-9.183-16.131c0,0,2.73,12.161,8.19,17.868
				c5.459,5.709,5.459,5.709,5.459,5.709s-9.679-7.197-12.409-16.131c-2.729-8.935-3.722-15.884,0.497-30.773l-2.73,6.949
				c0,0,2.482-9.68,2.482-14.891c0-5.212-2.233-11.168-2.233-11.168s3.226,6.701,3.226,12.409c0,0,0.248-4.468-1.985-12.657
				s-3.226-20.35,1.985-28.54c0,0-3.723,9.43-2.73,17.124c0,0-0.248-17.868,11.912-25.81c0,0-7.693,6.949-9.182,17.372
				c0,0,2.73-8.935,7.445-12.409c0,0-5.212,4.963-5.212,11.416c0,6.452,0,6.452,0,6.452S15.324,22.387,19.791,18.167z"/>
			<path fill="#56595B" d="M72.403,65.485c0,0-0.744-2.398,2.73-4.384c3.475-1.985,14.394-5.708,16.627-4.467
				c0,0-7.445,2.398-11.416,4.384S72.403,65.485,72.403,65.485z"/>
			<circle fill="#FFFFFF" cx="46.995" cy="70.77" r="0.729"/>
			<circle fill="#FFFFFF" cx="84.914" cy="67.929" r="0.729"/>
			<path fill="#FDC394" d="M136.242,185.672c-8.935-0.662-15.056-8.934-22.005-13.566s-7.942-8.273-16.877-13.898
				c-8.935-5.627-9.927-5.957-9.596-8.604c0.331-2.648,3.309-3.973,9.927-3.311s6.949,4.303,11.251,7.943
				c4.302,3.639,12.905,2.316,16.876-2.648c3.972-4.963,2.647-7.611,5.957-12.244c3.309-4.633,1.654-9.926,1.654-17.207
				c0-7.279,0-15.883,0-24.818c0-8.934,4.964-7.28,4.964-7.28s4.633-0.661,5.294,9.266c0.662,9.928,0.993,16.215,3.31,24.818
				s3.971,16.545,7.28,13.898c3.309-2.648,7.28-12.576,11.582-18.863s7.61-12.904,9.596-18.861c1.985-5.957,4.964-6.287,7.28-4.963
				s3.971,4.633,0.331,14.891s-3.971,14.229-7.941,24.486c-3.972,10.26-0.993,10.59,2.315,9.928
				c3.31-0.662,7.611-5.625,13.236-9.928c5.626-4.301,3.331,9.775-1.137,15.732s-4.529,13.365-0.063,13.861
				c4.468,0.496,3.536,2.021-0.992,8.439c-3.238,4.588-6.321,13.467-30.464,12.939L136.242,185.672z"/>
			<path fill="#E2A171" d="M139.657,181.463c-4.219-0.248-8.686,0.25-12.656-2.48c-3.972-2.73-10.92-7.445-15.883-13.898
				c-4.964-6.451-12.161-9.678-18.613-11.664c-6.452-1.984-4.219-5.211-4.219-5.211c-0.007,0.002-0.014,0.004-0.021,0.006
				c-0.271,0.41-0.437,0.873-0.501,1.389c-0.331,2.646,0.662,2.977,9.596,8.604c8.935,5.625,9.928,9.266,16.877,13.898
				s13.07,12.904,22.005,13.566l21.779,0.012c1.751,0.037,3.387,0.025,4.923-0.029c-1.769-0.17-3.953-0.42-6.907-0.717
				C146.109,183.945,143.876,181.713,139.657,181.463z"/>
			<path fill="#E2A171" d="M190.677,134.711c-5.625,4.303-9.927,9.266-13.236,9.928c-0.719,0.145-1.423,0.24-2.043,0.199
				c4.401,1.695,9.276-3.17,14.391-7.797c1.654-1.496,2.758-2.342,3.494-2.801C192.749,133.711,191.9,133.777,190.677,134.711z"/>
			<path fill="#E2A171" d="M179.613,94.852c0,0-0.009-0.006-0.022-0.015c-1.497,0.443-2.983,2.003-4.136,5.459
				c-1.985,5.957-5.294,12.574-9.596,18.861s-8.273,16.215-11.582,18.863c2.955-0.51,5.233-4.207,7.716-7.184
				c2.481-2.979,2.481-6.453,6.948-12.906c4.468-6.451,5.956-9.182,7.445-15.139C177.876,96.837,179.613,94.852,179.613,94.852z"/>
			<path fill="#E2A171" d="M134.772,91.381c-0.763,1.068-1.343,2.885-1.343,5.937v24.818c0,7.281,1.654,12.574-1.654,17.207
				c-1.538,2.154-2.075,3.877-2.608,5.605c0.746-1.549,2.07-3.955,3.79-5.674c2.729-2.73,2.978-10.424,2.978-18.365
				s1.241-17.371-0.496-23.824C134.59,93.936,134.571,92.266,134.772,91.381z"/>
			<path fill="#F9DE90" d="M180.854,112.969c0,0-4.219,10.424-6.7,15.635c-2.482,5.211-3.475,9.182-4.219,14.395
				c-0.745,5.211,0,6.699,3.474,6.699c3.475,0,9.928-4.963,9.928-4.963s-3.475,1.986-7.942,1.24
				c-4.467-0.744-3.474-6.451,0.249-15.635C179.364,121.158,180.854,112.969,180.854,112.969z"/>
			<path fill="#F9DE90" d="M143.38,114.705c0,0,0,9.68,0.992,15.387c0.993,5.709,1.737,11.168,6.701,13.898s7.445-3.227,9.927-7.941
				s2.481-4.715,2.481-4.715s-1.736,2.48-4.715,5.211s-4.219,4.467-7.941,2.482C147.103,137.041,145.613,122.646,143.38,114.705z"/>
			<path fill="#F9DE90" d="M122.103,154.613c-4.296,2.291-9.937,2.35-13.16-0.377c-4.302-3.641-4.633-7.281-11.251-7.943
				s-9.597,0.662-9.927,3.311c-0.026,0.207-0.044,0.4-0.05,0.582c0.112,0.143,0.228,0.287,0.35,0.438c0,0-1.112-3.148,4.076-3.334
				c5.188-0.186,7.315-0.094,13.34,5.742C111.408,158.775,117.708,158.404,122.103,154.613z"/>
		</g>
	</g>
</g>
</svg>
