<?xml version="1.0" encoding="UTF-8" standalone="no"?>
<svg
   xmlns:dc="http://purl.org/dc/elements/1.1/"
   xmlns:cc="http://creativecommons.org/ns#"
   xmlns:rdf="http://www.w3.org/1999/02/22-rdf-syntax-ns#"
   xmlns:svg="http://www.w3.org/2000/svg"
   xmlns="http://www.w3.org/2000/svg"
   xmlns:sodipodi="http://sodipodi.sourceforge.net/DTD/sodipodi-0.dtd"
   xmlns:inkscape="http://www.inkscape.org/namespaces/inkscape"
   sodipodi:docname="lifeafter.svg"
   inkscape:version="1.0.1 (3bc2e813f5, 2020-09-07)"
   version="1.1"
   id="svg2"
   viewBox="0 0 192 192"
   height="192"
   width="192"
   inkscape:export-filename="/home/jphilippe/inkscape/icônes/delta-github/png/lifeafter.png"
   inkscape:export-xdpi="96"
   inkscape:export-ydpi="96">
  <sodipodi:namedview
     inkscape:document-rotation="0"
     inkscape:window-maximized="1"
     inkscape:window-y="0"
     inkscape:window-x="36"
     inkscape:window-height="1052"
     inkscape:window-width="1884"
     units="px"
     showgrid="false"
     inkscape:current-layer="layer1"
     inkscape:document-units="px"
     inkscape:cy="168.14391"
     inkscape:cx="-98.254904"
     inkscape:zoom="1"
     inkscape:pageshadow="2"
     inkscape:pageopacity="0.0"
     borderopacity="1.0"
     bordercolor="#666666"
     pagecolor="#ffffff"
     id="base"
     inkscape:snap-bbox="false"
     inkscape:object-paths="true"
     inkscape:snap-nodes="true"
     showguides="true"
     inkscape:guide-bbox="true"
     inkscape:snap-object-midpoints="true"
     inkscape:snap-center="true"
     inkscape:snap-global="true"
     inkscape:snap-intersection-paths="true"
     inkscape:snap-smooth-nodes="true"
     inkscape:snap-midpoints="true">
    <inkscape:grid
       type="xygrid"
       id="grid2223" />
  </sodipodi:namedview>
  <defs
     id="defs4" />
  <metadata
     id="metadata7">
    <rdf:RDF>
      <cc:Work
         rdf:about="">
        <dc:format>image/svg+xml</dc:format>
        <dc:type
           rdf:resource="http://purl.org/dc/dcmitype/StillImage" />
        <dc:title></dc:title>
      </cc:Work>
    </rdf:RDF>
  </metadata>
  <g
     transform="translate(0,-860.36216)"
     id="layer1"
     inkscape:groupmode="layer"
     inkscape:label="Calque 1">
    <path
       id="rect2086-3"
       style="fill:#d1d1d1;fill-opacity:1;fill-rule:evenodd;stroke:none;stroke-opacity:1"
       d="m 29.5,879.86213 h 133 c 5.54,0 10,4.46 10,10 v 133.00007 c 0,5.54 -4.46,10 -10,10 h -133 c -5.54,0 -10,-4.46 -10,-10 V 889.86213 c 0,-5.54 4.46,-10 10,-10 z" />
    <path
       id="path2225-6"
       style="fill:#545859;fill-opacity:1;stroke:none;stroke-width:0.215982px;stroke-linecap:butt;stroke-linejoin:miter;stroke-opacity:1"
       d="m 89.02735,911.19805 c -0.48474,-0.006 -0.77149,0.004 -0.77149,0.004 -4.41471,0.0383 -11.51953,4.04687 -11.51953,4.04687 0,0 -1.08568,1.39571 -2.26953,1.82227 -1.18385,0.42657 -3.52788,2.1782 -4.07812,3.0039 -0.55024,0.82572 -3.33594,3.2168 -3.33594,3.2168 -1.88253,1.88252 -3.75586,10.68555 -3.75586,10.68555 0,0 -0.85256,3.41252 -1.37109,4.67969 -0.57272,0.72544 -0.31836,1.33007 -0.31836,1.33007 0,0 -0.22167,0.67144 2.52734,2.44336 0,0 2.92696,3.5407 1.0625,7.59961 0,0 -1.33574,2.3909 -1.68945,2.85352 -0.39569,0.39747 0.44048,1.57398 1.01562,2.11133 0.5214,0.48714 0.57912,0.56151 1.95117,0.77929 1.39981,0.22216 0.0801,2.03321 0.0801,2.03321 0,0 -0.74358,1.07705 0.21094,2.29882 0.95452,1.22179 1.02597,0.96593 1.42578,1.09961 0.16884,0.0564 1.10959,0.0259 0,0.5332 -0.45176,0.20658 -0.35791,1.33601 0.29883,1.86524 -0.011,-0.006 1.81983,1.02948 1.13867,5.77148 0,0 -0.5684,1.03045 0.0996,2.13672 0.6818,0.94092 0.73988,1.24132 1.43164,2.09766 0.21541,0.26666 0.72795,0.38536 0.55469,-0.875 0,0 0.51337,1.15936 1.4043,1.40234 0.89093,0.24298 1.05273,0.89063 1.05273,0.89063 0,0 0.62011,0.78758 1.39648,-0.95704 0,0 4.98723,-4.81794 6.97657,-5 0,0 1.54385,2.48604 0.63672,3.33008 -0.90713,0.84405 -5.28516,3.28906 -5.28516,3.28906 0,0 -0.36231,0.34835 -0.67969,-0.20507 -0.31736,-0.55341 -0.82031,-0.2461 -0.82031,-0.2461 L 71,978.35234 c 0,0 -0.85529,0.45203 -0.0254,1.35547 0,0 -5.17212,3.38686 -7.1289,5.34766 0,0 -0.38976,0.0917 -1.05469,0 0,0 -3.14096,1.88716 -4.38281,3.01562 -1.24186,1.12844 -3.7793,5.69336 -3.7793,5.69336 0,0 -1.92501,7.75035 -2.62695,13.64455 -0.70195,5.8944 -0.72656,14.3203 -0.72656,14.3203 l -0.0586,11.1328 h 88.17187 l -0.15039,-10 c 0,0 -0.46793,-8.6161 0.85742,-9.7676 1.32535,-1.1514 0.43164,-4.2285 0.43164,-4.2285 -1.07882,-5.058 -4.8928,-10.07944 -6.36523,-12.22459 -1.47243,-2.14515 -4.06425,-10.66263 -7.10547,-13.05664 -3.04119,-2.39397 -8.5957,-7.7168 -8.5957,-7.7168 -0.21946,-0.45771 -2.56608,-3.65798 -4.09766,-4.44531 -1.5316,-0.78735 -3.28151,-2.87791 -4.29687,-4.66797 -1.01535,-1.79006 -1.60547,-5.76563 -1.60547,-5.76563 -0.34258,-0.96327 0.15032,-1.24168 0.1875,-1.46484 0,0 0.48869,-0.87151 0.32617,-1.73828 0.0291,-0.53161 1.02148,0.1914 1.02148,0.1914 0.97514,0.10829 0.43164,-1 0.43164,-1 -1.5044,-2.84409 -0.83459,-2.34138 -1.10546,-3.5332 -0.041,-1.1535 0.38058,-2.10325 0.47656,-3.42969 0.096,-1.32643 0.39648,-2.44336 0.39648,-2.44336 0.81261,-1.32726 0.65686,-2.38646 0.92774,-3.38867 0.27086,-1.00221 1.42187,-4.26953 1.42187,-4.26953 0,0 0.38274,-0.86936 -0.1914,-2.2168 -0.57414,-1.34742 0.52539,-1.8457 0.52539,-1.8457 0,0 -1.13517,-1.08241 -0.97266,-2.04101 0.16252,-0.95861 0.006,-2.5586 0.006,-2.5586 0,0 0.13702,-1.56351 -0.47461,-2.54492 -0.2866,-0.96786 -0.42578,-2.30078 -0.42578,-2.30078 0.32504,-1.38695 -0.8125,-2.7207 -0.8125,-2.7207 -2.05439,-3.54502 -4.4522,-5.55229 -6.07617,-7.53907 -1.95362,-0.6895 -3.84571,-1.61328 -3.84571,-1.61328 0,0 -0.32105,-0.24073 -0.36328,-1.85351 -0.0422,-1.61278 -0.69141,-1.27735 -0.69141,-1.27735 -0.90219,1.4894 -2.8125,0.97071 -2.8125,0.97071 -2.68437,-0.99612 -5.92858,-1.1562 -7.38281,-1.17383 z" />
  </g>
  <style
     type="text/css"
     id="style853">
	.st0{fill:#FFFFFF;}
</style>
</svg>
