<svg xmlns="http://www.w3.org/2000/svg" id="svg2" width="192" height="192" version="1.1"><g id="layer1" transform="translate(0 -860.362)"><path id="rect2086-3" d="M29.5 879.862h133c5.54 0 10 4.46 10 10v133c0 5.54-4.46 10-10 10h-133c-5.54 0-10-4.46-10-10v-133c0-5.54 4.46-10 10-10z" style="fill:#d1d1d1;fill-opacity:1;fill-rule:evenodd;stroke:none;stroke-opacity:1"/><path id="path2225-6" d="M89.027 911.198c-.484-.006-.771.004-.771.004-4.415.038-11.52 4.047-11.52 4.047s-1.085 1.396-2.27 1.822c-1.183.427-3.527 2.178-4.077 3.004-.55.826-3.336 3.217-3.336 3.217-1.883 1.882-3.756 10.685-3.756 10.685s-.853 3.413-1.371 4.68c-.573.726-.319 1.33-.319 1.33s-.221.672 2.528 2.444c0 0 2.927 3.54 1.062 7.6 0 0-1.335 2.39-1.69 2.853-.395.397.441 1.574 1.016 2.111.522.487.58.562 1.952.78 1.4.221.08 2.033.08 2.033s-.744 1.077.21 2.298c.955 1.222 1.027.966 1.426 1.1.17.056 1.11.026 0 .533-.451.207-.357 1.336.3 1.865-.012-.006 1.82 1.03 1.138 5.772 0 0-.568 1.03.1 2.137.681.94.74 1.24 1.431 2.097.216.267.728.386.555-.875 0 0 .513 1.16 1.404 1.403.891.243 1.053.89 1.053.89s.62.788 1.396-.957c0 0 4.988-4.818 6.977-5 0 0 1.544 2.486.637 3.33-.907.844-5.286 3.29-5.286 3.29s-.362.348-.68-.206c-.317-.553-.82-.246-.82-.246L71 978.352s-.855.452-.025 1.356c0 0-5.173 3.387-7.13 5.347 0 0-.39.092-1.054 0 0 0-3.141 1.888-4.383 3.016-1.242 1.129-3.78 5.693-3.78 5.693s-1.924 7.75-2.626 13.645c-.702 5.894-.727 14.32-.727 14.32l-.058 11.133h88.172l-.15-10s-.469-8.616.857-9.767c1.325-1.152.431-4.229.431-4.229-1.078-5.058-4.892-10.08-6.365-12.225-1.472-2.145-4.064-10.662-7.105-13.056-3.042-2.394-8.596-7.717-8.596-7.717-.22-.458-2.566-3.658-4.098-4.445-1.531-.788-3.281-2.878-4.297-4.668-1.015-1.79-1.605-5.766-1.605-5.766-.343-.963.15-1.242.187-1.465 0 0 .49-.871.327-1.738.029-.532 1.021.191 1.021.191.975.109.432-1 .432-1-1.505-2.844-.835-2.341-1.106-3.533-.04-1.153.38-2.103.477-3.43.096-1.326.396-2.443.396-2.443.813-1.327.657-2.386.928-3.389.27-1.002 1.422-4.27 1.422-4.27s.383-.868-.191-2.216c-.575-1.347.525-1.846.525-1.846s-1.135-1.082-.973-2.04c.163-.96.006-2.56.006-2.56s.137-1.563-.474-2.544c-.287-.968-.426-2.3-.426-2.3.325-1.388-.813-2.722-.813-2.722-2.054-3.545-4.452-5.552-6.076-7.539a41.685 41.685 0 0 1-3.846-1.613s-.32-.24-.363-1.853c-.042-1.613-.691-1.278-.691-1.278-.902 1.49-2.813.97-2.813.97-2.684-.995-5.928-1.155-7.383-1.173z" style="fill:#545859;fill-opacity:1;stroke:none;stroke-width:.215982px;stroke-linecap:butt;stroke-linejoin:miter;stroke-opacity:1"/></g><style id="style853" type="text/css">.st0{fill:#fff}</style></svg>