<svg xmlns="http://www.w3.org/2000/svg" width="192" height="192" fill="none"><g clip-path="url(#a)"><path fill="#fff" fill-rule="evenodd" d="M29 19h133c5.52 0 10 4.48 10 10v133c0 5.52-4.48 10-10 10H29c-5.52 0-10-4.48-10-10V29c0-5.52 4.48-10 10-10Z" clip-rule="evenodd"/><path fill="#98DC9A" d="m83 83.06 21.55 12.44L83 107.94V83.06ZM70.63 59C69.26 59 68 60.1 68 61.64v67.73c0 1.54 1.26 2.64 2.64 2.64.44 0 .89-.11 1.31-.36l58.65-33.86c1.75-1.01 1.75-3.55 0-4.56L71.94 59.36c-.42-.25-.87-.36-1.31-.36Z"/></g><defs><clipPath id="a"><path fill="#fff" d="M0 0h192v192H0z"/></clipPath></defs></svg>