<?xml version="1.0" encoding="UTF-8" standalone="no"?>
<svg
   sodipodi:docname="linkaja.svg"
   inkscape:version="1.2 (dc2aedaf03, 2022-05-15)"
   version="1.1"
   id="svg2"
   viewBox="0 0 192 192"
   height="192"
   width="192"
   inkscape:export-filename="../png/linkaja.png"
   inkscape:export-xdpi="96"
   inkscape:export-ydpi="96"
   xml:space="preserve"
   xmlns:inkscape="http://www.inkscape.org/namespaces/inkscape"
   xmlns:sodipodi="http://sodipodi.sourceforge.net/DTD/sodipodi-0.dtd"
   xmlns="http://www.w3.org/2000/svg"
   xmlns:svg="http://www.w3.org/2000/svg"
   xmlns:rdf="http://www.w3.org/1999/02/22-rdf-syntax-ns#"
   xmlns:cc="http://creativecommons.org/ns#"
   xmlns:dc="http://purl.org/dc/elements/1.1/"><sodipodi:namedview
     inkscape:document-rotation="0"
     inkscape:window-maximized="1"
     inkscape:window-y="0"
     inkscape:window-x="36"
     inkscape:window-height="1052"
     inkscape:window-width="1884"
     units="px"
     showgrid="false"
     inkscape:current-layer="layer1"
     inkscape:document-units="px"
     inkscape:cy="212"
     inkscape:cx="166.5"
     inkscape:zoom="0.99999999"
     inkscape:pageshadow="2"
     inkscape:pageopacity="0.0"
     borderopacity="1.0"
     bordercolor="#666666"
     pagecolor="#ffffff"
     id="base"
     inkscape:snap-bbox="false"
     inkscape:object-paths="true"
     inkscape:snap-nodes="true"
     showguides="true"
     inkscape:guide-bbox="true"
     inkscape:snap-object-midpoints="true"
     inkscape:snap-center="true"
     inkscape:snap-global="false"
     inkscape:snap-intersection-paths="true"
     inkscape:snap-smooth-nodes="true"
     inkscape:snap-midpoints="true"
     inkscape:showpageshadow="0"
     inkscape:pagecheckerboard="0"
     inkscape:deskcolor="#d1d1d1" /><defs
     id="defs4" /><metadata
     id="metadata7"><rdf:RDF><cc:Work
         rdf:about=""><dc:format>image/svg+xml</dc:format><dc:type
           rdf:resource="http://purl.org/dc/dcmitype/StillImage" /></cc:Work></rdf:RDF></metadata><g
     transform="translate(0,-860.36216)"
     id="layer1"
     inkscape:groupmode="layer"
     inkscape:label="Calque 1"><rect
       style="fill:#ff837d;fill-opacity:1;fill-rule:evenodd;stroke:none;stroke-width:0.993464;stroke-opacity:1"
       width="152"
       height="152"
       x="20"
       y="880.36218"
       rx="9.9346409"
       id="rect395"
       ry="9.9346409" /><path
       style="fill:#ffffff;fill-opacity:1;stroke-width:0.293079"
       d="m 57.366587,999.74702 c -1.616141,-0.84184 -2.889581,-1.57947 -2.82986,-1.63918 0.206574,-0.20659 7.939943,-1.85681 13.340284,-2.84671 11.685998,-2.14208 25.579735,-3.85656 39.419059,-4.86428 5.69926,-0.41501 26.31816,-0.42883 29.89401,-0.02 l 2.34463,0.26803 -2.64271,0.041 c -4.69158,0.0728 -15.45079,0.82561 -23.8809,1.67098 -15.956293,1.60008 -33.695592,4.54998 -46.528741,7.73734 -2.620782,0.6509 -5.082813,1.1834 -5.471193,1.1834 -0.388381,0 -2.02845,-0.6887 -3.644579,-1.53052 z M 79.675,983.68612 c -0.239631,-0.66226 0.763602,-0.95863 1.200898,-1.14703 1.964641,-0.84215 3.347219,-2.21499 3.809654,-3.78281 0.221361,-0.7505 0.895597,-4.9914 1.498293,-9.4242 0.602709,-4.43282 1.144252,-7.86141 1.203426,-8.06291 0.04366,-0.14861 0.162268,-0.67779 0.798359,-0.73472 1.623104,-0.0157 2.828286,0.006 4.491782,0.006 0.918617,-0.0884 0.738219,0.91709 0.666109,1.56118 -0.07242,0.8135 -0.291247,2.38422 -0.546305,4.30039 -0.311124,2.33731 -0.776004,5.83058 -1.033088,7.76282 -0.577779,4.34282 -0.898252,5.67995 -1.897454,7.91688 -1.188917,2.66171 -3.006392,4.20828 -6.301236,5.30882 -0.665655,0.20843 -2.573672,0.85755 -2.781398,0.28071 -0.430624,-1.38076 -0.736379,-2.58077 -1.10904,-3.98441 z M 117.51191,982.23 c -2.1957,-0.88608 -2.09217,-4.30942 0.21111,-5.71381 1.4576,-0.88876 3.50574,-0.73759 4.55816,0.31483 2.59296,2.59297 -1.22024,6.83119 -4.76927,5.39898 z m -16.59573,-2.04496 c -6.455316,-1.10232 -6.412444,-8.79929 -4.966326,-13.1976 1.811001,-5.09115 6.223926,-6.57021 9.851066,-6.69929 3.06109,-0.1048 7.30436,0.46448 8.36957,1.12281 0.29416,0.18181 0.15572,1.94643 -0.66597,8.48927 -0.57051,4.54286 -1.19451,8.44916 -1.38664,8.68067 -1.02212,1.23158 -7.87008,2.21224 -11.2017,1.60414 z m 5.63149,-6.09124 c 0.69269,-2.57804 0.98541,-4.90559 1.48095,-7.62557 -0.0618,-0.9376 -1.64414,-0.94397 -2.04651,-0.94618 -2.09577,0 -3.33371,1.1766 -3.98991,3.7922 -0.90002,3.58741 0.0398,5.58632 2.62649,5.58632 0.81758,-0.076 1.6709,-0.0305 1.92898,-0.80677 z m -47.179752,4.01427 c 1.764635,-4.31054 8.851923,-19.74577 10.553041,-22.94241 0.321486,-0.79694 1.168365,-0.95402 1.747879,-1.00995 1.667048,-0.0763 3.108136,-0.0559 4.571871,-0.0452 1.508226,0.0132 1.530419,0.54242 1.724824,1.66362 0.237139,1.11702 3.179815,18.6873 3.845843,22.90491 0.08512,0.70031 0.256804,0.91831 -0.65492,0.91974 -1.263391,0.003 -4.303887,0.16789 -5.335368,0.09 -0.3298,-0.0427 -0.544745,-0.25905 -0.595943,-0.50232 -0.09431,-0.4523 -0.200717,-1.22886 -0.273071,-2.03853 l -0.187722,-2.10088 h -3.78696 -3.786959 l -0.82797,2.02024 c -0.29445,0.71847 -0.61639,1.4273 -0.856218,1.89768 -0.167939,0.43132 -0.418235,0.6302 -0.792934,0.71164 -0.926942,-0.008 -4.212541,0.114 -5.447696,0.006 -0.610812,-0.28116 -0.05834,-1.1814 0.102349,-1.57411 z m 14.728765,-8.91129 c -0.107357,-1.13506 -0.831906,-6.9896 -1.001941,-7.85455 -0.04471,-0.0929 -0.0659,-0.0628 -0.111781,-0.008 -0.447472,0.67179 -2.868098,6.61377 -3.280383,7.99354 -0.04984,0.19047 0.07394,0.26024 0.254034,0.2446 0.613979,-0.0417 3.123878,-0.0887 3.887283,-0.11795 0.217262,-0.0168 0.238885,-0.093 0.252776,-0.25772 z m 43.706427,2.84627 c 0.098,-0.76566 0.31268,-2.84286 0.47695,-4.61599 0.1643,-1.77313 0.42738,-4.54271 0.58464,-6.15465 0.11934,-1.2233 0.22418,-2.41074 0.26961,-3.0355 0.0918,-0.5601 0.76903,-0.62601 1.21396,-0.6304 1.48327,0.0157 2.88023,-0.0722 4.21411,0.0509 0.63071,0.0646 0.89434,0.2036 0.89664,0.57861 -0.6016,3.08628 -2.76316,13.73355 -2.9296,14.39312 -0.1434,0.56837 -0.20153,0.736 -1.06953,0.78539 -1.06295,-0.0172 -1.94964,0.0385 -3.02837,0.0329 -0.61864,-0.008 -0.78398,-0.18955 -0.62841,-1.40445 z m -29.932923,-15.8184 c 0,-1.88103 1.210586,-3.31462 2.726053,-3.91803 1.309756,-0.45893 2.777706,-0.45697 3.559136,0.43572 1.386909,1.61236 0.476535,3.99444 -1.143378,5.23552 -2.075828,1.42781 -5.107951,0.58368 -5.141811,-1.75321 z m 37.187683,-3.96439 c -0.45329,-1.00747 -1.9076,-4.18583 -3.23178,-7.06303 -1.32418,-2.87721 -2.33763,-5.41367 -2.25207,-5.6366 0.0856,-0.22293 1.56139,-2.05621 3.27967,-4.07396 l 2.79701,-3.28449 c 0.18281,-0.22092 0.3928,-0.49173 0.64645,-0.49527 1.68565,0.008 3.43248,0.10922 5.04064,0.0932 1.19805,-0.0105 1.80123,-0.0877 0.91237,0.81433 -0.5691,0.70458 -1.69045,1.99416 -2.97319,3.40927 -1.85374,2.045 -3.37042,3.77299 -3.37042,3.83998 0,0.067 1.39003,3.12107 3.08896,6.78687 1.33472,2.87998 2.43742,5.4564 2.80911,6.5322 0.15874,0.36527 0.0192,0.6781 -0.31999,0.76346 -0.44971,0.10444 -1.25875,0.14586 -2.65035,0.14586 h -2.08457 c -0.50919,0.0532 -0.88392,-0.0361 -1.07997,-0.47185 z m -62.385641,-2.14453 c -1.875915,-0.9348 -2.762745,-2.11783 -2.924338,-3.90103 -0.09688,-1.06865 1.651515,-15.43528 2.425749,-20.00343 0.189224,-1.07273 0.271126,-1.13406 1.299661,-1.13406 h 2.023512 c 1.063001,0 2.030581,-0.0178 2.639157,0.0169 0.831766,0.0119 0.679616,0.53603 0.616087,1.16342 -0.143021,1.40096 -0.588328,4.43564 -1.147546,8.34303 -0.992218,6.93302 -1.24475,9.37923 -1.007145,9.75629 0.277565,0.44047 0.983042,0.5132 5.656784,0.5832 l 4.18051,0.0627 c 0.995723,-0.0554 1.201725,0.18897 1.10337,1.08303 -0.243752,1.47997 -0.377482,2.65917 -0.619918,3.98508 -0.166705,0.82753 -0.700714,0.61087 -1.532736,0.66168 l -4.887128,0.068 c -6.267248,0.0785 -6.300514,0.0756 -7.826019,-0.68465 z m 48.206811,0.53259 c -0.0633,-0.1209 0.11155,-1.80243 0.38861,-3.73675 0.27701,-1.93432 0.8555,-6.08871 1.28552,-9.23198 1.22079,-8.9235 1.62199,-11.61225 1.79222,-12.64063 0.17935,-1.20032 0.18042,-1.13406 1.35654,-1.13406 h 1.86517 c 0.72779,0 1.29592,-0.009 1.73457,0.005 1.67495,0.0544 1.46171,-0.0901 1.03903,2.50389 -0.15976,0.98036 -0.69167,5.29455 -1.18204,8.92141 -1.23486,9.13319 -2.04478,14.73357 -2.19344,15.16681 -0.13933,0.40606 -5.87793,0.54423 -6.08618,0.14655 z m -31.865049,-0.69494 c 0.778064,-6.52694 1.521011,-11.46224 2.385065,-17.53603 0.06462,-0.727 0.779229,-0.81135 1.614266,-0.81213 0.949846,-9.9e-4 1.915271,-0.0137 2.819765,0.0165 1.751826,0.006 2.212386,0.24041 2.030917,1.41264 -0.776015,5.70196 -1.735444,10.79064 -2.742542,16.58821 -0.188304,0.98157 -0.418212,0.95251 -1.356367,0.95251 -1.092041,0.003 -3.030122,0.0403 -4.020058,0.0129 -0.579292,-0.10235 -0.710751,-0.16807 -0.731046,-0.63454 z m 12.365366,-14.61151 c 0.480623,-2.52395 0.81352,-2.91785 1.511708,-3.37533 0.861376,-0.56439 7.225575,-1.15253 9.422655,-0.87077 0.30663,0.0438 0.59872,0.0991 0.87691,0.1652 6.43676,1.52911 5.43634,8.81776 5.01785,12.17102 -0.44103,3.20332 -0.87402,6.12096 -0.9622,6.48363 -0.15345,0.63126 -0.29038,0.65944 -3.20585,0.65944 -0.9793,0 -1.4909,-0.0338 -2.04822,-0.0861 -0.90037,-0.0588 -0.98376,-0.26102 -0.8942,-0.91615 0.3282,-2.67616 0.77088,-4.98414 1.10071,-7.48385 0.44394,-3.41174 0.3257,-6.77995 -3.907419,-6.0558 -0.725609,0.1841 -0.924055,0.24217 -1.024122,0.96581 -0.528106,3.36982 -0.992311,6.8511 -1.475402,10.14715 -0.106308,0.78662 -0.254406,1.60897 -0.406358,2.33759 -0.03936,0.18553 -0.06078,0.35141 -0.09455,0.47445 -0.04308,0.14541 -0.143359,0.29669 -0.239246,0.14684 -0.680093,-1.23852 -3.880727,-1.03207 -5.215947,-0.12303 -0.670068,0.46577 -0.80814,0.71614 -0.534312,-0.70362 0.04797,-0.30113 0.09478,-0.60187 0.140611,-0.90226 0.662709,-4.34876 1.109504,-8.62643 1.937392,-13.03426 z m -9.13794,-7.46965 c -0.715164,-2.43859 1.413713,-4.84868 3.797696,-4.93261 3.230407,-0.21589 4.122267,4.22729 0.817408,6.24229 -1.914293,0.87588 -3.926254,0.69014 -4.615104,-1.30968 z"
       id="path393"
       inkscape:connector-curvature="0"
       sodipodi:nodetypes="ccssccssssccccssccccscsccccsscccccscccccscccccccccccccccsccccccccccccccccccccccccccccccccccsssccccccccccsccccccccccccccccsssccsccccccccccccccssccccccccccccccccccccc" /></g><style
     type="text/css"
     id="style853">
	.st0{fill:#FFFFFF;}
</style><style
     type="text/css"
     id="style853-9">
	.st0{fill:#FFFFFF;}
</style><style
     type="text/css"
     id="style853-3">
	.st0{fill:#FFFFFF;}
</style></svg>
