<svg width="192" height="192" version="1.1" viewBox="0 0 192 192" xmlns="http://www.w3.org/2000/svg">
 <path d="m96 20c-14.881 0.014968-29.429 4.398-41.842 12.605l-24.369-12.184c-0.59996-0.29932-1.2655-0.44305-1.9355-0.41797-2.7283 0.10019-4.5569 2.8436-3.5996 5.4004l9.9316 26.484c-9.2049 12.869-14.164 28.289-14.186 44.111 1.3e-5 41.974 34.026 76 76 76 14.881-0.015 29.429-4.398 41.842-12.605l24.369 12.184c3.252 1.6264 6.8118-1.5779 5.5352-4.9824l-9.9316-26.484c9.2049-12.869 14.164-28.289 14.186-44.111-1e-5 -41.974-34.026-76-76-76z" style="fill:#f8c18c;paint-order:stroke fill markers"/>
 <path d="m40 72s-8 4-12 16c-5.0596 15.179 0.1992 21.499 8 28 24 20 52 20 60 20s40 0 60-20c7.1802-7.1802 13.06-12.821 8-28-4-12-12-16-12-16l-20 8c-2.7682 1.1073-4 5.0186-4 8v8c-4 8-28 8-32 8s-28 0-32-8v-8c0-2.9814-1.2318-6.8927-4-8z" style="fill:#fff"/>
</svg>
