<?xml version="1.0" encoding="UTF-8" standalone="no"?>
<svg
   xmlns:dc="http://purl.org/dc/elements/1.1/"
   xmlns:cc="http://creativecommons.org/ns#"
   xmlns:rdf="http://www.w3.org/1999/02/22-rdf-syntax-ns#"
   xmlns:svg="http://www.w3.org/2000/svg"
   xmlns="http://www.w3.org/2000/svg"
   xmlns:sodipodi="http://sodipodi.sourceforge.net/DTD/sodipodi-0.dtd"
   xmlns:inkscape="http://www.inkscape.org/namespaces/inkscape"
   sodipodi:docname="listonic.svg"
   inkscape:version="1.0.1 (3bc2e813f5, 2020-09-07)"
   version="1.1"
   id="svg2"
   viewBox="0 0 192 192"
   height="192"
   width="192"
   inkscape:export-filename="/home/jphilippe/inkscape/icônes/delta-github/png/entrernom.png"
   inkscape:export-xdpi="96"
   inkscape:export-ydpi="96">
  <sodipodi:namedview
     inkscape:document-rotation="0"
     inkscape:window-maximized="1"
     inkscape:window-y="0"
     inkscape:window-x="1920"
     inkscape:window-height="1022"
     inkscape:window-width="1680"
     units="px"
     showgrid="false"
     inkscape:current-layer="layer1"
     inkscape:document-units="px"
     inkscape:cy="120.09462"
     inkscape:cx="-75.425785"
     inkscape:zoom="1.4142136"
     inkscape:pageshadow="2"
     inkscape:pageopacity="0.0"
     borderopacity="1.0"
     bordercolor="#666666"
     pagecolor="#ffffff"
     id="base"
     inkscape:snap-bbox="false"
     inkscape:object-paths="true"
     inkscape:snap-nodes="true"
     showguides="true"
     inkscape:guide-bbox="true"
     inkscape:snap-object-midpoints="true"
     inkscape:snap-center="true"
     inkscape:snap-global="false"
     inkscape:snap-intersection-paths="true"
     inkscape:snap-smooth-nodes="true"
     inkscape:snap-midpoints="true" />
  <defs
     id="defs4" />
  <metadata
     id="metadata7">
    <rdf:RDF>
      <cc:Work
         rdf:about="">
        <dc:format>image/svg+xml</dc:format>
        <dc:type
           rdf:resource="http://purl.org/dc/dcmitype/StillImage" />
        <dc:title></dc:title>
      </cc:Work>
    </rdf:RDF>
  </metadata>
  <g
     transform="translate(0,-860.36216)"
     id="layer1"
     inkscape:groupmode="layer"
     inkscape:label="Calque 1">
    <path
       id="path1046"
       style="fill:#70a270;fill-opacity:1;fill-rule:evenodd;stroke:none;stroke-width:0.869497;stroke-opacity:1"
       d="m 29.461112,880.36282 c -0.01425,0 -0.02798,0.002 -0.04215,0.002 -0.548044,0.003 -1.083288,0.0585 -1.602444,0.15687 -0.110251,0.0209 -0.218525,0.0459 -0.32723,0.0708 -0.209656,0.0482 -0.418957,0.0974 -0.622429,0.16025 -1.910225,0.59039 -3.534018,1.81582 -4.626841,3.43259 -2.51e-4,3.8e-4 2.5e-4,0.002 0,0.002 -0.780128,1.15457 -1.29082,2.50771 -1.438821,3.97068 -6e-5,5.6e-4 5.2e-5,8.7e-4 0,0.002 -0.02954,0.29216 -0.04387,0.58875 -0.04387,0.88893 0,5.7e-4 0,8.6e-4 0,0.002 v 9.26381 H 46.30196 v -9.26381 c 0,-4.81186 3.88328,-8.68693 8.705484,-8.68693 z" />
    <rect
       style="opacity:0.520286;fill:#56595b;fill-opacity:1;fill-rule:evenodd;stroke:none;stroke-width:0.869497;stroke-opacity:1"
       width="110.54494"
       height="151.99931"
       x="41.052326"
       y="880.36218"
       rx="8.7043276"
       id="rect1048"
       ry="8.6856756" />
    <rect
       style="fill:#97db99;fill-opacity:1;fill-rule:evenodd;stroke:none;stroke-width:0.869497;stroke-opacity:1"
       width="110.54494"
       height="151.99931"
       x="-151.59727"
       y="-1032.3622"
       rx="8.7043276"
       id="rect1050"
       ry="8.6856756"
       transform="scale(-1)" />
    <path
       id="path1052"
       style="fill:#70a270;fill-opacity:1;fill-rule:evenodd;stroke:none;stroke-width:0.869497;stroke-opacity:1"
       d="m 61.347691,1014.4114 v 9.2638 c 0,4.8119 -3.883271,8.6869 -8.705475,8.6869 H 162.5372 c 4.8222,0 8.70547,-3.875 8.70547,-8.6869 v -9.2638 z"
       sodipodi:nodetypes="cscsscc" />
    <path
       id="path1054"
       style="fill:#97db99;fill-opacity:1;fill-rule:evenodd;stroke:none;stroke-width:0.869497;stroke-opacity:1"
       d="m 41.05232,898.31288 v -9.2638 c 0,-4.81187 -3.883272,-8.68693 -8.705476,-8.68693 h 88.954146 c 4.8222,0 8.92952,3.88028 8.70547,8.68693 v 9.2638 z"
       sodipodi:nodetypes="cscsscc" />
    <path
       style="fill:none;stroke:#ffffff;stroke-width:8.63632;stroke-linecap:round;stroke-linejoin:round;stroke-miterlimit:4;stroke-dasharray:none;stroke-opacity:1;paint-order:normal"
       d="m 72.644841,956.83359 14.20798,14.20798 33.151949,-33.15195"
       id="path1056"
       sodipodi:nodetypes="ccc" />
  </g>
  <style
     type="text/css"
     id="style853">
	.st0{fill:#FFFFFF;}
</style>
  <style
     type="text/css"
     id="style853-9">
	.st0{fill:#FFFFFF;}
</style>
  <style
     type="text/css"
     id="style853-3">
	.st0{fill:#FFFFFF;}
</style>
</svg>
