<svg xmlns="http://www.w3.org/2000/svg" viewBox="0 0 192 192"><title>LitRes</title><g opacity="0.99"><rect x="26.08" y="25.34" width="37.84" height="52.58" fill="#f1e9e0"/></g><rect x="77.08" y="25.34" width="37.84" height="52.58" fill="#f1e9e0"/><path d="M70.5,163.37s-5.31,6.65-24.68,6.57c-21-.08-26.29-6.64-26.32-6.57V23.9a1.83,1.83,0,0,1,1.83-1.84h2.92a1.83,1.83,0,0,1,1.83,1.81V74.64c4.34,1.71,10.26,3.17,21.39,3.28a45.33,45.33,0,0,0,16.45-3.28V23.87a1.81,1.81,0,0,1,1.83-1.81h2.92A1.84,1.84,0,0,1,70.5,23.9Z" fill="#b1b5bd" fill-rule="evenodd"/><path d="M121.5,163.37s-5.31,6.65-24.68,6.57c-21-.08-26.29-6.64-26.32-6.57V23.9a1.83,1.83,0,0,1,1.83-1.84h2.92a1.83,1.83,0,0,1,1.83,1.81V74.64c4.34,1.71,10.26,3.17,21.39,3.28a45.33,45.33,0,0,0,16.45-3.28V23.87a1.81,1.81,0,0,1,1.83-1.81h2.92a1.84,1.84,0,0,1,1.83,1.84Z" fill="#56595b" fill-rule="evenodd"/><rect x="128.08" y="25.34" width="37.84" height="52.58" fill="#f1e9e0"/><path d="M34.66,71.35H55.34a2,2,0,0,1,2,2v44a2,2,0,0,1-2.94,1.76l-8.46-4.5a2,2,0,0,0-1.88,0l-8.46,4.5a2,2,0,0,1-2.94-1.76v-44A2,2,0,0,1,34.66,71.35Z" fill="#f8c18c" fill-rule="evenodd" opacity="0.99"/><path d="M172.5,163.37s-5.31,6.65-24.68,6.57c-21-.08-26.29-6.64-26.32-6.57V23.9a1.83,1.83,0,0,1,1.83-1.84h2.92a1.83,1.83,0,0,1,1.83,1.81V74.64c4.34,1.71,10.26,3.17,21.39,3.28a45.33,45.33,0,0,0,16.45-3.28V23.87a1.81,1.81,0,0,1,1.83-1.81h2.92a1.84,1.84,0,0,1,1.83,1.84Z" fill="#f8c18c" fill-rule="evenodd"/></svg>