<?xml version="1.0" encoding="UTF-8"?>
<svg version="1.1" viewBox="0 0 192 192" xml:space="preserve" xmlns="http://www.w3.org/2000/svg">
	 <circle class="a" cx="96" cy="96" r="88" fill="#f8c18c"/><path d="m71.329 61.284v52.677c0 1.7062 1.9132 3.6195 3.6195 3.6195 3.9307 0 7.6914 0.11137 10.962 0.11137v-45.42c0-4.7475-8.3754-10.989-14.582-10.989z" fill="none" stroke="#fff" stroke-linecap="round" stroke-linejoin="round" stroke-width="4"/><path d="m85.911 117.58h17.841c5.6161 0 13.019 13.134 10.552 13.134h-28.393v-13.023" fill="none" stroke="#fff" stroke-linecap="round" stroke-linejoin="round" stroke-width="4"/><path d="m106.13 81.832v20.993c1.5258 3.4776 4.0084 4.8501 7.0162 5.0673v-20.77c-1.3864-4.0143-4.0069-5.1117-7.0162-5.29z" fill="#fff"/><path d="m96.61 98.37h20.993c3.4776-1.5258 4.8501-4.0084 5.0673-7.0162h-20.77c-4.0143 1.3864-5.1117 4.0069-5.29 7.0162z" fill="#fff"/></svg>
