<?xml version="1.0" encoding="UTF-8"?>
<svg version="1.1" viewBox="0 0 192 192" xml:space="preserve" xmlns="http://www.w3.org/2000/svg">
	 <circle class="a" cx="96" cy="96" r="88" fill="#f9de81"/><path d="m70.777 72.179a22.967 22.967 45 0 0-5.9439 0.78288 22.967 22.967 45 0 0-16.24 16.24 22.967 22.967 45 0 0 5.9453 22.184l32.48 32.479 32.481-32.479a22.967 22.967 45 0 0 5.9439-22.184 22.967 22.967 45 0 0-16.24-16.24 22.967 22.967 45 0 0-22.184 5.9439 22.967 22.967 45 0 0-16.24-6.7268z" fill="#ff837d" stroke="#56595b" stroke-linecap="round" stroke-linejoin="round" stroke-width="1.4279"/><path d="m76.677 66.279a22.967 22.967 45 0 0-5.9439 0.78288 22.967 22.967 45 0 0-16.24 16.24 22.967 22.967 45 0 0 5.9453 22.184l32.48 32.479 32.481-32.48a22.967 22.967 45 0 0 5.9439-22.184 22.967 22.967 45 0 0-16.24-16.24 22.967 22.967 45 0 0-22.184 5.9439 22.967 22.967 45 0 0-16.24-6.7268z" fill="#f8c18c" stroke="#56595b" stroke-linecap="round" stroke-linejoin="round" stroke-width="1.4279"/><path d="m82.8 60.156a22.967 22.967 45 0 0-5.9439 0.78288 22.967 22.967 45 0 0-16.24 16.24 22.967 22.967 45 0 0 5.9453 22.184l32.48 32.48 32.481-32.48a22.967 22.967 45 0 0 5.9439-22.184 22.967 22.967 45 0 0-16.24-16.24 22.967 22.967 45 0 0-22.184 5.9439 22.967 22.967 45 0 0-16.24-6.7268z" fill="#f9de81" stroke="#56595b" stroke-linecap="round" stroke-linejoin="round" stroke-width="1.4279"/><path d="m88.742 54.215a22.967 22.967 45 0 0-5.9439 0.78288 22.967 22.967 45 0 0-16.24 16.24 22.967 22.967 45 0 0 5.9453 22.184l32.48 32.48 32.481-32.48a22.967 22.967 45 0 0 5.9439-22.184 22.967 22.967 45 0 0-16.24-16.24 22.967 22.967 45 0 0-22.184 5.9439 22.967 22.967 45 0 0-16.24-6.7268z" fill="#ff837d" stroke="#56595b" stroke-linecap="round" stroke-linejoin="round" stroke-width="1.4279"/></svg>
