<svg xmlns="http://www.w3.org/2000/svg" width="192" height="192" fill="none"><path fill="#F8C18C" d="M173 29v133c0 2.72-1.09 5.19-2.85 6.99A9.968 9.968 0 0 1 163 172H30c-5.52 0-10-4.48-10-10V29c0-5.52 4.48-10 10-10h133c5.52 0 10 4.48 10 10Z"/><path fill="#FF837D" d="M146.59 84.3c-.29-3.05-1.07-5.28-1.97-7.77-1.3-3.63-2.65-6.14-3.09-7-1.71-3.29-2.2-6.1-4-20.73-1.89-15.44-1.96-17.42-4.12-20.55-2.3-3.33-5.63-5.79-9.02-8-.65-.42-1.31-.84-1.98-1.25H73.18c-5.62 2.71-18.47 10.26-21.3 24.05-.86 4.18-.57 7.83-.15 10.33-.29.19-.61.41-.92.67-.35.28-.66.56-.92.82l.15 2.22c-1.05 1.19-3.52 4.33-3.96 8.99-.11 1.15-.65 6.82 3.39 11.21 1.96 2.13 4.21 3.1 5.5 3.54-1.13.43-2.66 1.09-4.37 2.1-1.95 1.15-4.5 2.66-6.58 5.46-1.22 1.64-4.16 5.62-2.67 9.15.73 1.73 2.25 2.7 3.19 3.19-1.49-1.68-1.84-3.2-1.94-4.05-.48-4.11 3.13-8.73 9.16-11.02-.9.9-6.74 6.92-5.68 15.07.36 2.71 1.37 4.87 2.28 6.35-.71 1.47-.8 2.05-.84 2.43-.38 3.33 1.01 7.41 3.09 7.71.39.06 1.44.06 2.93-1.69-.4.22-2.09 1.15-3.45.46-1.74-.89-1.63-3.81-1.59-4.78.14-3.63 2.29-6.34 4.83-9.46 1.59-1.96 3.12-3.45 4.32-4.52-3.18 7.45-3.05 14.55.62 17.84.38.35.85.69 1.43.99.21-.1.42-.2.63-.29-.64-.8-1.36-1.99-1.59-3.53-.47-3.07 1.15-6.28 4.11-8.22-.13.21-2.96 4.81-.62 9.31.24.46.51.88.81 1.25.69-.31 1.39-.63 2.12-1.01-.28-.86-.52-1.82-.66-2.86-.74-5.33 1.34-9.46 2.16-10.9-.28 1.35-.74 4.49.62 8.02.53 1.38 1.22 2.5 1.88 3.37 1.57-1.08 3.43-2.54 5.38-4.5.76-.67 1.43-1.31 2.01-1.92.64-2.19 1.81-4.7 3.96-6.92.04-.05.09-.09.13-.13.87-.88 1.76-1.58 2.61-2.15 0-.01.01-.02.01-.03.16-1.04.35-2.01.56-2.92-.04-.05-.09-.1-.12-.14-.04 0-.08-.01-.12-.01-.02 0-.04 0-.06-.01-.06 0-.11-.01-.17-.01-.1-.01-.19-.01-.29-.02-2.07-.19-8.4-.76-11.18-5.51-2.36-4.03-1.64-10.18 1.06-11.48 1.26-.61 2.74-.05 3.97.41 3.16 1.18 4.84 3.65 5.52 4.82l-.24-11.64c1.16-1.3 2.77-3.3 4.29-6 1.72-3.05 2.3-5.19 2.57-5.11.36.11.04 4.06-1.85 7.98-1.94 4.03-4.73 6.4-4.73 6.48.12 0 3.57-2.53 6.43-6.99 4.47-6.99 4.77-14.49 4.95-19.4.14-3.58-.11-6.5-.32-8.37l3.75 3.24c.7 3.33 2.38 9.15 6.84 14.96 3.23 4.21 6.77 6.92 9.3 8.54-1.69-1.39-3.5-3.12-5.24-5.29-5.54-6.91-7.22-14.33-7.81-18.63 1.29 3.13 3.28 7.08 6.38 11.2a50.89 50.89 0 0 0 7.25 7.81c1.83-.56 3.67-1.13 5.5-1.69-.75-2.95-1.51-5.9-2.26-8.85 1.18 1.03 2.74 2.66 3.91 5.04.44.89.75 1.75.98 2.52 1.66-.15 3.32-.31 4.98-.46.31-1.72.62-3.43.93-5.14.39.94.76 2.02 1.08 3.24.18.69.31 1.34.41 1.95.41.19.91.48 1.41.91.24.21.45.41.62.6.02.02.03.03.04.05-.01.01-.03.02-.04.04.1 7.05-.22 16.62-1.25 29.69.84 2.35 1.77 5.87 1.71 10.17-.04 2.33-.35 4.36-.74 6.02v.01c-.21.95-.44 1.8-.67 2.57-.1.33-.2.64-.3.93.15-.07.31-.16.48-.24.73-.39 1.59-.91 2.47-1.6.9-.7 1.82-1.58 2.67-2.67 2.53-3.26 3.13-6.83 3.43-10.76.66-8.78-.39-17.14-1.65-23.51.64 1.63 1.54 3.92 2.6 6.65 1.85 4.75 3.21 8.31 4.25 12.82.24 1.06.57 2.62.55 4.66-.02 2-.05 3.87-1.22 5.64-1.38 2.09-3.59 2.86-4.61 3.14 1.25-.01 3.39-.22 4.94-1.72.44-.43 1.35-1.47 2.06-7.61.32-3.53.52-5.3.31-7.56Zm-96.05 18.8c-1.05 1.78-1.73 3.04-2.17 3.96-.52-1.01-1.46-3.3-.86-6.12.53-2.47 1.96-4.03 2.57-4.63-.14.29-1.61 3.44 0 5.76.15.22.36.47.64.72-.06.1-.12.21-.18.31Zm4.88-7.66c-1.61 2.5-2.79 4.18-4.37 6.79-.16-.98-.17-1.85-.11-2.58.57-6.78 7.72-10.6 8.69-11.1a155.1 155.1 0 0 1-4.21 6.89Z"/><mask id="a" width="107" height="99" x="40" y="19" mask-type="alpha" maskUnits="userSpaceOnUse"><path fill="#FF837D" d="M146.59 84.3c-.29-3.05-1.07-5.28-1.97-7.77-1.3-3.63-2.65-6.14-3.09-7-1.71-3.29-2.2-6.1-4-20.73-1.89-15.44-1.96-17.42-4.12-20.55-2.3-3.33-5.63-5.79-9.02-8-.65-.42-1.31-.84-1.98-1.25H73.18c-5.62 2.71-18.47 10.26-21.3 24.05-.86 4.18-.57 7.83-.15 10.33-.29.19-.61.41-.92.67-.35.28-.66.56-.92.82l.15 2.22c-1.05 1.19-3.52 4.33-3.96 8.99-.11 1.15-.65 6.82 3.39 11.21 1.96 2.13 4.21 3.1 5.5 3.54-1.13.43-2.66 1.09-4.37 2.1-1.95 1.15-4.5 2.66-6.58 5.46-1.22 1.64-4.16 5.62-2.67 9.15.73 1.73 2.25 2.7 3.19 3.19-1.49-1.68-1.84-3.2-1.94-4.05-.48-4.11 3.13-8.73 9.16-11.02-.9.9-6.74 6.92-5.68 15.07.36 2.71 1.37 4.87 2.28 6.35-.71 1.47-.8 2.05-.84 2.43-.38 3.33 1.01 7.41 3.09 7.71.39.06 1.44.06 2.93-1.69-.4.22-2.09 1.15-3.45.46-1.74-.89-1.63-3.81-1.59-4.78.14-3.63 2.29-6.34 4.83-9.46 1.59-1.96 3.12-3.45 4.32-4.52-3.18 7.45-3.05 14.55.62 17.84.38.35.85.69 1.43.99.21-.1.42-.2.63-.29-.64-.8-1.36-1.99-1.59-3.53-.47-3.07 1.15-6.28 4.11-8.22-.13.21-2.96 4.81-.62 9.31.24.46.51.88.81 1.25.69-.31 1.39-.63 2.12-1.01-.28-.86-.52-1.82-.66-2.86-.74-5.33 1.34-9.46 2.16-10.9-.28 1.35-.74 4.49.62 8.02.53 1.38 1.22 2.5 1.88 3.37 1.57-1.08 3.43-2.54 5.38-4.5.76-.67 1.43-1.31 2.01-1.92.64-2.19 1.81-4.7 3.96-6.92.04-.05.09-.09.13-.13.87-.88 1.76-1.58 2.61-2.15 0-.01.01-.02.01-.03.16-1.04.35-2.01.56-2.92-.04-.05-.09-.1-.12-.14-.04 0-.08-.01-.12-.01-.02 0-.04 0-.06-.01-.06 0-.11-.01-.17-.01-.1-.01-.19-.01-.29-.02-2.07-.19-8.4-.76-11.18-5.51-2.36-4.03-1.64-10.18 1.06-11.48 1.26-.61 2.74-.05 3.97.41 3.16 1.18 4.84 3.65 5.52 4.82l-.24-11.64c1.16-1.3 2.77-3.3 4.29-6 1.72-3.05 2.3-5.19 2.57-5.11.36.11.04 4.06-1.85 7.98-1.94 4.03-4.73 6.4-4.73 6.48.12 0 3.57-2.53 6.43-6.99 4.47-6.99 4.77-14.49 4.95-19.4.14-3.58-.11-6.5-.32-8.37l3.75 3.24c.7 3.33 2.38 9.15 6.84 14.96 3.23 4.21 6.77 6.92 9.3 8.54-1.69-1.39-3.5-3.12-5.24-5.29-5.54-6.91-7.22-14.33-7.81-18.63 1.29 3.13 3.28 7.08 6.38 11.2a50.89 50.89 0 0 0 7.25 7.81c1.83-.56 3.67-1.13 5.5-1.69-.75-2.95-1.51-5.9-2.26-8.85 1.18 1.03 2.74 2.66 3.91 5.04.44.89.75 1.75.98 2.52 1.66-.15 3.32-.31 4.98-.46.31-1.72.62-3.43.93-5.14.39.94.76 2.02 1.08 3.24.18.69.31 1.34.41 1.95.41.19.91.48 1.41.91.24.21.45.41.62.6.02.02.03.03.04.05-.01.01-.03.02-.04.04.1 7.05-.22 16.62-1.25 29.69.84 2.35 1.77 5.87 1.71 10.17-.04 2.33-.35 4.36-.74 6.02v.01c-.21.95-.44 1.8-.67 2.57-.1.33-.2.64-.3.93.15-.07.31-.16.48-.24.73-.39 1.59-.91 2.47-1.6.9-.7 1.82-1.58 2.67-2.67 2.53-3.26 3.13-6.83 3.43-10.76.66-8.78-.39-17.14-1.65-23.51.64 1.63 1.54 3.92 2.6 6.65 1.85 4.75 3.21 8.31 4.25 12.82.24 1.06.57 2.62.55 4.66-.02 2-.05 3.87-1.22 5.64-1.38 2.09-3.59 2.86-4.61 3.14 1.25-.01 3.39-.22 4.94-1.72.44-.43 1.35-1.47 2.06-7.61.32-3.53.52-5.3.31-7.56Zm-96.05 18.8c-1.05 1.78-1.73 3.04-2.17 3.96-.52-1.01-1.46-3.3-.86-6.12.53-2.47 1.96-4.03 2.57-4.63-.14.29-1.61 3.44 0 5.76.15.22.36.47.64.72-.06.1-.12.21-.18.31Zm4.88-7.66c-1.61 2.5-2.79 4.18-4.37 6.79-.16-.98-.17-1.85-.11-2.58.57-6.78 7.72-10.6 8.69-11.1a155.1 155.1 0 0 1-4.21 6.89Z"/></mask><g fill="#E7736E" mask="url(#a)"><path d="m78.5 67 1.5-8.5c-6-3.6-10.167.167-11.5 2.5l2 2.5c1.6-.4 2.333.5 2.5 1h1.5l4 2.5ZM51.5 75c6.4-3.6 13.333-1.833 16-.5v2c-2.8-.8-3.5 1.667-3.5 3l-2 .5c-8 2-13.333-1.5-15-3.5l3-2 1 3 .5-2.5ZM72.5 74c4.4-2 10.167-8.833 12.5-12-3.2 6-7.667 11.167-9.5 13l-3.5.5.5-1.5ZM63 83c-1.6-2.4-5-1.332-6.5-.5 1.2 1.201 3.167 1.834 4 2L55 94c7.2-2.4 12-10 13.5-13.5-2.4 3.6-4.667 3.167-5.5 2.5ZM46 112.5c0-6.4 3.333-10 5-11 0 6-4 11.5.5 12.5 3.6.8 2.833 3 2 4-2.5.833-7.5.9-7.5-5.5ZM68 96.5c2.8-3.6 3.833-9.167 4-11.5 2.5 4 5.5 2.5 9.5 3.5s6.5 6 2 9.5 3.5 15.5-2 17.5-11.5.5-14-3-3-11.5.5-16ZM75 77l7.5-4.5 1 2L78 78l-3-1ZM121.5 43c-4 .4-14.333-5.5-19-8.5 1.2 2.8 10.5 8.5 15 11l4-2.5ZM117.5 45.5c1.6 3.6.167 3-.5 3l4 9.5c.8-4.8-2-10.333-3.5-12.5ZM109 24c6.667 1.833 20.2 8.9 21 22.5-2-5.667-9-18.1-21-22.5ZM133 78.5c1.2-5.2-.5-16.5-1.5-21.5L128 86c5.2 9.2 2.5 18.167.5 21.5 8.4-6 7.167-24.167 5.5-32.5l-1 3.5ZM51 65.5c.8-4.4 4.667-9.167 6.5-11L59 56c-3.6 1.2-6.833 6.833-8 9.5ZM55.5 68.5c3.2-3.2 9.333-4.667 12-5 0 1.2.667 1.833 1 2-3.2-1.2-10 1.5-13 3Z"/><path d="M59 69c2.8-2.8 7.833-3.166 10-3l-.5 1.5c-2.4-.8-7.333.667-9.5 1.5ZM95 44.5c13.2-8.4 11.833-18.833 9.5-23C99.3 44.3 76 47.333 65 46c4.5 3 16.8 6.9 30-1.5ZM65.38 55.95a4.09 4.09 0 0 1 .12-.45 13.83 13.83 0 0 0-.12.45c-.347 1.649-.02 4.594 3.62 6.05-1.783.162-4.922-.843-3.62-6.05Z"/><path d="M72 67c1.2-1.2 1.167-3.167 1-4 1.6 4-.333 7.333-1.5 8.5-.167-1-.7-3.2-1.5-4-2.8-2-2.5-4.5-2-5.5-.4 4.4 2.5 5.167 4 5Z"/><path d="M71.5 73c1-1 1.5-3 1.5-3.5.4 5.6-1.834 6.333-3 6-2.4-4-1.667-7.667-1-9-.4 4.8 1.333 6.333 2.5 6.5Z"/><path d="M68 77.5c-.4-3.2.167-5.333.5-6-2 3.6-1.833 7.167-1.5 8.5 3.6-.4 4.5-3.5 4.5-5-.8 2.4-2.667 2.667-3.5 2.5Z"/><path d="M64.5 81c0-3.6 2-5.167 3-5.5-4 1.2-4.333 4.833-4 6.5 3.2 1.2 4.667-1.167 5-2.5-.8 2.4-3 2-4 1.5Z"/><path d="M61 82c0-.8 1.667-2.333 2.5-3-1.6.4-3 1.833-3.5 2.5h-2c3.5 4 7.5 1.427 8 1-3 1.175-4.167.5-5-.5Z"/></g><path fill="#FCECDC" d="M130.23 87.4c-.89 2.54-2.01 4.39-2.87 5.63-1.03 1.47-2.12 2.65-3.51 4.13-.84.9-1.67 1.74-2.49 2.52a60.607 60.607 0 0 1-5.26 4.471c-3.85-.24-7.11-.6-9.85-1.03-.3-.05-.6-.1-.89-.14-7.92-1.33-11.38-3.3-12.97-5.11-.76-.87-3.81-4.77-8.6-5.36-.05-.01-.1-.02-.15-.02-.04 0-.08-.01-.12-.01-.02 0-.04 0-.06-.01-.06-.01-.11-.01-.17-.01-.1-.01-.19-.01-.29-.02-2.07-.19-8.4-.76-11.18-5.51-2.36-4.03-1.64-10.18 1.06-11.48 1.26-.61 2.74-.05 3.97.41 3.16 1.18 4.84 3.65 5.52 4.82l.14.25c-.14-3.21-.28-7.22-.38-11.89 1.16-1.3 2.77-3.3 4.29-6 1.72-3.05 2.3-5.19 2.57-5.11.36.11.04 4.06-1.85 7.98-1.94 4.03-4.73 6.4-4.73 6.48.12 0 3.57-2.53 6.43-6.99 4.47-6.99 4.77-14.49 4.95-19.4.14-3.58-.11-6.5-.32-8.37l3.75 3.24c.7 3.33 2.38 9.15 6.84 14.96 3.23 4.21 6.77 6.92 9.3 8.54-1.69-1.39-3.5-3.12-5.24-5.29-5.54-6.91-7.22-14.33-7.81-18.63 1.29 3.13 3.28 7.08 6.38 11.2a50.89 50.89 0 0 0 7.25 7.81c1.83-.56 3.67-1.13 5.5-1.69-.75-2.95-1.51-5.9-2.26-8.85 1.18 1.03 2.74 2.66 3.91 5.04.44.89.75 1.75.98 2.52 1.66-.15 3.32-.31 4.98-.46.31-1.72.62-3.43.93-5.14.39.94.76 2.02 1.08 3.24.18.69.31 1.34.41 1.95.41.19.91.48 1.41.91.24.21.45.41.62.6v.09c.08 7.1-.24 16.66-1.27 29.73Z"/><mask id="b" width="62" height="68" x="70" y="37" mask-type="alpha" maskUnits="userSpaceOnUse"><path fill="#FCECDC" d="M130.23 87.4c-.89 2.54-2.01 4.39-2.87 5.63-1.03 1.47-2.12 2.65-3.51 4.13-.84.9-1.67 1.74-2.49 2.52a60.607 60.607 0 0 1-5.26 4.471c-3.85-.24-7.11-.6-9.85-1.03-.3-.05-.6-.1-.89-.14-7.92-1.33-11.38-3.3-12.97-5.11-.76-.87-3.81-4.77-8.6-5.36-.05-.01-.1-.02-.15-.02-.04 0-.08-.01-.12-.01-.02 0-.04 0-.06-.01-.06-.01-.11-.01-.17-.01-.1-.01-.19-.01-.29-.02-2.07-.19-8.4-.76-11.18-5.51-2.36-4.03-1.64-10.18 1.06-11.48 1.26-.61 2.74-.05 3.97.41 3.16 1.18 4.84 3.65 5.52 4.82l.14.25c-.14-3.21-.28-7.22-.38-11.89 1.16-1.3 2.77-3.3 4.29-6 1.72-3.05 2.3-5.19 2.57-5.11.36.11.04 4.06-1.85 7.98-1.94 4.03-4.73 6.4-4.73 6.48.12 0 3.57-2.53 6.43-6.99 4.47-6.99 4.77-14.49 4.95-19.4.14-3.58-.11-6.5-.32-8.37l3.75 3.24c.7 3.33 2.38 9.15 6.84 14.96 3.23 4.21 6.77 6.92 9.3 8.54-1.69-1.39-3.5-3.12-5.24-5.29-5.54-6.91-7.22-14.33-7.81-18.63 1.29 3.13 3.28 7.08 6.38 11.2a50.89 50.89 0 0 0 7.25 7.81c1.83-.56 3.67-1.13 5.5-1.69-.75-2.95-1.51-5.9-2.26-8.85 1.18 1.03 2.74 2.66 3.91 5.04.44.89.75 1.75.98 2.52 1.66-.15 3.32-.31 4.98-.46.31-1.72.62-3.43.93-5.14.39.94.76 2.02 1.08 3.24.18.69.31 1.34.41 1.95.41.19.91.48 1.41.91.24.21.45.41.62.6v.09c.08 7.1-.24 16.66-1.27 29.73Z"/></mask><g mask="url(#b)"><path fill="#E2C9B0" d="M92.629 52.889C90.669 67 84.167 72.666 80.5 73.5l-1.5 1c-2.167-8.833-2.571-29.011 12.629-36.611 19-9.5 35-3.5 39.5 4 3.6 6 2.833 13.833 2 17L129 57.5c-.8-6.4-3.667-8.333-5-8.5l2.5 8.5-5 .5c-1.2-4-3.833-6.074-5-6.611l1.129 8-5 1-9.5-12c.4 6.8 4.167 12.166 6 14-8-4-11.462-13.834-12.129-18.5-1.5 2-5.5 4-7 4.5L89.5 51c.4 11.6-6.334 19.333-10 21.5 8-1.2 12.296-13.611 13.129-19.611Z"/></g><path fill="#E2C9B0" d="M106.25 103.12c-.15.8-.39 1.71-.75 2.7-.48 1.31-1.06 2.4-1.59 3.24-2.3.19-6.88.23-12.03-1.95a25.58 25.58 0 0 1-9.09-6.53 37.584 37.584 0 0 1 .42-5c0-.01.01-.02.01-.03.16-1.04.35-2.01.56-2.92l.03-.12c4.79.58 7.83 4.49 8.6 5.36 1.59 1.81 5.06 3.78 12.97 5.11.27.05.57.1.87.14Z"/><path fill="#473830" d="M104.37 53.02c-1.3-.14-4.1-.27-7.24 1.06-3.4 1.44-5.31 3.8-6.08 4.86 1.24-1.08 2.95-2.33 5.17-3.39a23.32 23.32 0 0 1 9.61-2.26"/><path fill="#F1D3B4" d="M80.77 87.251c-.82-.96-1.09-.89-1.44-1.47-.06-.1-.1-.19-.14-.27.33-1.18.62-3.29-.67-4.99a4.861 4.861 0 0 0-1.65-1.36c-.24-1.08-1.69-2.02-3.03-1.91-1.43.12-2.85 1.44-2.64 2.64.19 1.08 1.64 1.67 2.71 1.68 1.33.01 2.95-.86 3-2.04 0-.07 0-.14-.01-.2.61.55 1.62 1.69 1.88 3.43.05.36.06.69.05 1.01-.45-.81-1.5-1.49-2.45-1.34-1.25.2-2.07 1.83-2.06 3.08.04 3.05 5.05 5.56 6.55 4.56.39-.26.73-.89.69-1.47-.04-.45-.29-.76-.79-1.35Z"/><path fill="#473830" d="M106.32 69.25a10.19 10.19 0 0 0-4.91-2.28c-1.74-.29-3.26-.07-4.43.26-1.1.32-1.89.74-2.28.95-1.2.65-3.59 1.95-4.41 4.19a4.8 4.8 0 0 0-.27 1.23c-.15 1.86.86 3.36 1.41 4.04.05.06.1.12.14.16-1.49-.51-2.99-1.02-4.48-1.54.57-1.56 1.69-4.02 3.9-6.3l.44-.44c.65-.62 1.55-1.38 2.58-2.1 2.77-1.93 6.55-3.65 9.42-2.06.72.4 2.05 1.37 2.89 3.89ZM121.19 68.091c-.27.56-.66 1.56-.69 2.96.1-.21.26-.5.49-.83.9-1.29 2.07-1.89 2.91-2.31.89-.45 1.83-.92 3.15-1.03 1.91-.16 3.42.54 4.16.96-.3-.5-.78-1.14-1.48-1.76-.46-.4-.9-.69-1.29-.91.48.03 1.02.09 1.59.21.26.05.51.11.75.18-.41-.33-1.03-.77-1.88-1.14a6.32 6.32 0 0 0-1.17-.39c-1.83-.44-5.14 1.16-6.54 4.06Z"/><path fill="#fff" d="M101.37 76.95c-2.76 2.37-7.53 2.6-9.93.69-.55-.69-1.56-2.18-1.41-4.04.23-3.01 3.27-4.66 4.68-5.42.8-.43 3.35-1.77 6.71-1.21.9.15 1.7.41 2.39.71.16.63.29 1.35.31 2.17.01.72.04 4.7-2.75 7.1Z"/><path fill="#473830" d="M96.98 67.22c-1.1.32-1.89.74-2.28.95-1.2.65-3.59 1.95-4.41 4.19-.01.11-.01.23-.01.35 0 3.09 2.5 5.59 5.59 5.59s5.59-2.5 5.59-5.59a5.6 5.6 0 0 0-4.48-5.49Zm-1.49 9.87c-2 0-3.67-1.37-4.13-3.22a4.42 4.42 0 0 1-.13-1.04c0-.7.17-1.35.46-1.93a4.272 4.272 0 0 1 3.8-2.33 4.264 4.264 0 0 1 4.19 5.02c-.08.46-.24.89-.46 1.29a4.26 4.26 0 0 1-3.73 2.21Z"/><path fill="#71A372" d="M99.75 72.83c0 .2-.01.39-.04.57-.86-1.46-2.95-2.36-4.31-1.86-1.37.5-2.37 2.58-1.92 5.05a4.269 4.269 0 0 1-2.26-3.76c0-2.35 1.91-4.26 4.26-4.26 2.36 0 4.27 1.9 4.27 4.26Z"/><path fill="#F9DE81" d="M99.71 73.4a4.27 4.27 0 0 1-4.22 3.69c-.73 0-1.41-.18-2-.5-.46-2.47.55-4.55 1.92-5.05 1.36-.5 3.44.4 4.3 1.86Z"/><path fill="#fff" d="M94.66 73.58c-.19.13-1.9 1.3-3.01.55-.11-.07-.21-.16-.3-.27a4.42 4.42 0 0 1-.13-1.04c0-.7.17-1.35.46-1.93 1.37-1.29 4.09-1.9 4.74-1.14.62.7-.3 2.81-1.76 3.83Z"/><path fill="#473830" d="M96.06 71.25c-.59-.01-1.23 1.06-1.04 1.94.09.41.41 1 .91 1.04.54.04 1-.59 1.11-1.11.19-.84-.41-1.86-.98-1.87Z"/><path fill="#fff" d="M97.82 74.81c-.28.32-1.16 1.26-2.23 1.15-.09-.01-.18-.03-.27-.05.01.12.05.25.15.34.49.46 2.19-.13 2.36-1.03a.9.9 0 0 0-.01-.41Z"/><path fill="#FF837D" d="M97.85 70.33c.19.02.33.24.27.44-.05.17-.25.3-.42.23-.18-.07-.24-.3-.17-.46.05-.13.18-.23.32-.21ZM99.68 73.591c-.08.46-.24.89-.46 1.29-.43.1-.98-.11-1.2-.54-.21-.4-.11-.97.24-1.21.43-.29 1.14-.02 1.42.46Z"/><path fill="#511119" d="M120.43 90.201c-.03.07-.07.21-.14.39-.41-.58-.94-1.16-1.58-1.7-.13-.11-1.25-1-2.91-1.62 1.97-.58 3.74-.9 5.21-1.07.05.93 0 2.38-.58 4Z"/><path fill="#F4806D" d="M120.29 90.59c-.11.29-.29.7-.53 1.16-1.17-.59-3.25-1.38-5.83-1.06-2.88.36-4.91 1.9-6.09 3.1-.07-.12-.14-.23-.21-.36-.41-.79-.52-1.55-.54-2.1a31.95 31.95 0 0 1 8.71-4.06c1.66.62 2.77 1.51 2.91 1.62.64.54 1.17 1.12 1.58 1.7Z"/><path fill="#F58F8A" d="M119.76 91.75c-.89 1.73-2.68 4.29-5.71 4.67-2.21.28-4.94-.63-6.22-2.63 1.18-1.2 3.21-2.74 6.09-3.1 2.6-.32 4.67.47 5.84 1.06Z"/><path fill="#54688C" d="M130.57 102.791c-3.6-.54-7.46-.9-11.55-.99.77-.66 1.55-1.37 2.35-2.12.07-.01.15-.02.23-.02 1.09-.09 5.42-.32 8.53 2.68.15.14.3.29.44.45ZM130.71 106.851c-.2.43-.39.86-.58 1.29-1.77-.01-4.44.01-7.66.11-6.08.18-12.59.36-18.46 1.23-16.22 2.4-28.2 10.08-32.6 12.96-3.17 2.08-5.65 4-7.3 5.34-.54-.55-1.31-1.26-2.32-2.01 3.17-1.98 6.39-3.95 9.65-5.93 2.77-1.67 5.52-3.32 8.26-4.94-.06-.08-.12-.15-.18-.23-1.02-1.36-2.03-2.73-3.05-4.09a90.441 90.441 0 0 0-16.93 9.06c-1.47.99-2.88 2.01-4.24 3.05-2.1-.53-3.93-.6-5.24-.56 1.13-.92 2.97-2.34 5.41-3.83 1.6-.97 2.96-1.67 4.21-2.25.21-.1.42-.2.63-.29.93-.43 1.81-.8 2.71-1.2.69-.31 1.39-.63 2.12-1.01.59-.3 1.21-.63 1.85-1.01.63-.37 1.34-.82 2.13-1.36 1.57-1.08 3.43-2.54 5.38-4.5.76-.67 1.43-1.31 2.01-1.92 2.2-2.32 3.16-4.22 3.6-5.64.09-.28.24-.83.49-1.42.87-.88 1.76-1.58 2.61-2.15a37.584 37.584 0 0 0-.42 5c1.5 1.69 4.46 4.57 9.09 6.53 5.14 2.18 9.73 2.14 12.03 1.95a16.3 16.3 0 0 0 1.59-3.24c.37-.99.6-1.91.75-2.7 1.85.29 3.93.54 6.27.75.01.71.01 1.41.02 2.12 2.04.02 4.08.04 6.12.05 3.96.04 7.91.07 11.87.11-.1.33-.2.64-.3.93.15-.03.31-.12.48-.2Z"/><path fill="#fff" d="M79.71 114.91a691.1 691.1 0 0 0-8.26 4.94c-3.27 1.98-6.48 3.95-9.65 5.93a18.757 18.757 0 0 0-6.49-3.07 97.64 97.64 0 0 1 4.24-3.05c4.45-3.02 9.37-5.8 14.81-8.17.71-.31 1.42-.61 2.12-.89 1.01 1.36 2.03 2.73 3.05 4.09.06.06.12.14.18.22ZM131.2 103.591c-.21.95-.44 1.81-.67 2.57-3.96-.04-7.91-.07-11.87-.11-2.04-.02-4.08-.03-6.12-.05-.01-.71-.01-1.41-.02-2.12 1.13.1 2.33.19 3.58.27.93-.7 1.9-1.48 2.91-2.35 4.09.09 7.95.46 11.55.99.25.27.46.54.64.8Z"/><path fill="#fff" d="M151.36 145.59c-.63.59-1.31.84-1.72.95-.07-.03-.14-.07-.22-.1-.9-.41-1.8-.82-2.69-1.23-.39.36-.89.93-.98 1.69-.13 1.03.56 1.68.2 2.19-.28.39-.8.16-1.69.54-.62.26-1.06.66-1.33.98.2 1.76.86 8.7-2.41 14.85-.49.92-1.07 1.82-1.75 2.68-.69.88-1.98 2.51-4.01 3.86H57.58c2.75-1.26 6.11-2.69 9.77-3.99 2.44-.87 4.92-1.65 8.18-1.91 1.44-.11 2.66-.09 3.5-.05.1-.62.18-1.43.1-2.37 0-.1-.01-.2-.02-.3-.06-.56-.16-1.07-.3-1.54-.22-.83-.53-1.5-.78-1.99-3.35-.2-6.16-.09-8.25.07-5.37.42-10.87.93-12.29 4.14-.21.48-.29.93-.32 1.24-.64.49-1.28.99-1.92 1.51-.71.57-1.39 1.13-2.05 1.69-.29-.28-.63-.51-1.06-.69-1.33-.56-2.01-.01-3.65-.31-1.63-.3-3.87-1.35-6.22-4.89.19-1.75.53-4.31 1.24-7.35.45-1.95.87-3.29 1.02-3.82 2.18-7.45-.62-13.48 1.39-21.05.54-2.02 1.64-4.96 4.15-8.26 1.31-.04 3.14.03 5.24.56a18.757 18.757 0 0 1 6.49 3.07c1.01.74 1.78 1.46 2.32 2.01 1.65-1.34 4.13-3.27 7.3-5.34 4.4-2.88 16.37-10.56 32.6-12.96 5.87-.87 12.37-1.06 18.46-1.23 3.22-.1 5.89-.11 7.66-.11.2-.43.39-.86.58-1.29.73-.39 1.59-.91 2.47-1.6.97.91 2.02 2.05 3.01 3.46 2.72 3.89 1.71 5.22 4.01 8.53 3.19 4.59 6.7 4.32 8.48 8.58.88 2.12.83 4.18.66 5.55-.04.02-.1.06-.17.1-.81.51-1.16 1.17-1.58 1.78-.19.27-.44.61-.78.99-2.42.83-6.03 2.38-9.76 5.15-.67.49-1.2.92-1.55 1.21.14.36.29.71.42 1.07.23.57.46 1.14.69 1.72.32.8.64 1.61.97 2.41a49.1 49.1 0 0 1 8.15-4.63c.04-.02.08-.04.13-.05.36-.16.72-.32 1.07-.46.97-.4 1.91-.76 2.82-1.08 1.02 1.11 2.02 1.96 2.87 2.6.03.31.1 2.13-1.27 3.42Z"/><mask id="c" width="111" height="68" x="42" y="105" mask-type="alpha" maskUnits="userSpaceOnUse"><path fill="#fff" d="M151.36 145.59c-.63.59-1.31.84-1.72.95-.07-.03-.14-.07-.22-.1-.9-.41-1.8-.82-2.69-1.23-.39.36-.89.93-.98 1.69-.13 1.03.56 1.68.2 2.19-.28.39-.8.16-1.69.54-.62.26-1.06.66-1.33.98.2 1.76.86 8.7-2.41 14.85-.49.92-1.07 1.82-1.75 2.68-.69.88-1.98 2.51-4.01 3.86H57.58c2.75-1.26 6.11-2.69 9.77-3.99 2.44-.87 4.92-1.65 8.18-1.91 1.44-.11 2.66-.09 3.5-.05.1-.62.18-1.43.1-2.37 0-.1-.01-.2-.02-.3-.06-.56-.16-1.07-.3-1.54-.22-.83-.53-1.5-.78-1.99-3.35-.2-6.16-.09-8.25.07-5.37.42-10.87.93-12.29 4.14-.21.48-.29.93-.32 1.24-.64.49-1.28.99-1.92 1.51-.71.57-1.39 1.13-2.05 1.69-.29-.28-.63-.51-1.06-.69-1.33-.56-2.01-.01-3.65-.31-1.63-.3-3.87-1.35-6.22-4.89.19-1.75.53-4.31 1.24-7.35.45-1.95.87-3.29 1.02-3.82 2.18-7.45-.62-13.48 1.39-21.05.54-2.02 1.64-4.96 4.15-8.26 1.31-.04 3.14.03 5.24.56a18.757 18.757 0 0 1 6.49 3.07c1.01.74 1.78 1.46 2.32 2.01 1.65-1.34 4.13-3.27 7.3-5.34 4.4-2.88 16.37-10.56 32.6-12.96 5.87-.87 12.37-1.06 18.46-1.23 3.22-.1 5.89-.11 7.66-.11.2-.43.39-.86.58-1.29.73-.39 1.59-.91 2.47-1.6.97.91 2.02 2.05 3.01 3.46 2.72 3.89 1.71 5.22 4.01 8.53 3.19 4.59 6.7 4.32 8.48 8.58.88 2.12.83 4.18.66 5.55-.04.02-.1.06-.17.1-.81.51-1.16 1.17-1.58 1.78-.19.27-.44.61-.78.99-2.42.83-6.03 2.38-9.76 5.15-.67.49-1.2.92-1.55 1.21.14.36.29.71.42 1.07.23.57.46 1.14.69 1.72.32.8.64 1.61.97 2.41a49.1 49.1 0 0 1 8.15-4.63c.04-.02.08-.04.13-.05.36-.16.72-.32 1.07-.46.97-.4 1.91-.76 2.82-1.08 1.02 1.11 2.02 1.96 2.87 2.6.03.31.1 2.13-1.27 3.42Z"/></mask><g fill="#F4F4F4" mask="url(#c)"><path d="M130.5 130.001c-2.333-2.334-4.4-6.7-4-11.5.5-6 1.5 5.499 4 11.5ZM136 127.5c3.167 1 8.5.1 4.5-11.5 3.167 6.5 6.7 17.9-4.5 11.5ZM131.5 133l18 4c-2 2.4-1.167 5-.5 6-1.6.4-3-.5-3.5-1l.5 3-3.5-1c3 24.5-4.5 28.667-9 29.5 12.5-13.5 2.333-33.333-2-40.5ZM78.5 153.5c-.167-1.833-6.5-12-12.5-16l12.5 16ZM77.5 147.001c.667-4.833 1.7-15.4-1.5-19-2-2 2 8 1.5 19Z"/></g><path fill="#54688C" d="M135.16 155.8c-.29 5.67-3.09 9.91-5.65 13.78-.58.88-1.17 1.68-1.74 2.42h-3.33c1.74-1.93 2.97-3.73 3.84-5.15 1.79-2.95 3.76-6.29 3.96-11.06.04-1.01.18-6.11-2.88-11-2.08-3.32-5.02-5.56-10.33-9.61-.9-.69-1.65-1.23-2.16-1.59 2.12.34 6.16 1.29 10.05 4.35 5.43 4.3 8.58 11.19 8.24 17.86ZM79.02 166.061c-.84-.04-2.05-.06-3.5.05-3.25.25-5.73 1.04-8.18 1.91-3.66 1.3-7.02 2.73-9.77 3.99H55c-.17-.39-.32-.78-.46-1.14 3.52-2.14 8.95-4.84 16.02-6.24 3.13-.62 6.01-.88 8.55-.93.09.93.01 1.73-.09 2.36ZM78.8 161.85a45.2 45.2 0 0 0-7.52.35c-8.02 1.06-14.15 4.1-17.97 6.45-.03-.05-.08-.09-.12-.13.66-.56 1.34-1.13 2.05-1.69.64-.52 1.28-1.03 1.92-1.51.03-.31.11-.75.32-1.24 1.41-3.21 6.92-3.71 12.29-4.14 2.09-.16 4.9-.28 8.25-.07.25.47.56 1.14.78 1.98Z"/><path fill="#fff" d="M79.12 163.69a49.225 49.225 0 0 0-24.57 7.17c-.33-.85-.66-1.61-1.23-2.2 3.81-2.36 9.94-5.4 17.97-6.45 2.73-.36 5.25-.44 7.52-.35.13.46.24.98.3 1.54 0 .08.01.19.01.29Z"/><path fill="#54688C" d="M149.77 139.581c-1.29.45-2.63.97-4.02 1.59a48.397 48.397 0 0 0-8.15 4.63c-.32-.8-.64-1.61-.97-2.41a37.8 37.8 0 0 1 11.98-5.17c.07.1.14.19.22.29.32.37.63.73.94 1.07ZM147.12 136.02a55.258 55.258 0 0 0-11.17 5.65c-.14-.36-.28-.71-.42-1.07a36.817 36.817 0 0 1 10.78-6.17c.03.09.07.18.1.27.19.41.43.85.71 1.32Z"/><path fill="#fff" d="M148.62 138.21c-.79.19-1.61.41-2.45.67a37.97 37.97 0 0 0-9.53 4.5c-.23-.57-.46-1.14-.69-1.72 3.03-1.99 6.75-4.02 11.17-5.65.41.7.9 1.44 1.5 2.2Z"/><path fill="#ECECEC" d="M104.28 141.82c-.46 1.15-.94 2.17-1.4 3.04-1.04.02-2.08.03-3.12.05l-.06-3.93c.09-.13.19-.27.28-.41.14.31.33.6.58.83.9.84 2.43.87 3.72.42ZM105.09 120.831c-.24.02-.48.03-.73.05.03-.37.06-.74.11-1.14.03-.01.06-.01.09-.02.16.37.34.73.53 1.11ZM106.3 134.201c-.82.57-1.38 1.43-1.5 2.4-.5-.32-1.08-.53-1.71-.55-.21-.01-.43.01-.64.05.34-.78.66-1.62.95-2.52.82-2.59.99-4.58.99-6.47.71.65 1.48 1.14 2.24 1.51.03 1.64-.04 3.52-.33 5.58Z"/><path fill="#9ABEFF" d="M123.78 138.421c-.36.17-.93.38-1.64.41 0 0-.73.03-1.51-.21-2.56-.79-4.97-2.62-6.57-4.06l.78-1.41h.01c.37-.66.74-1.32 1.13-1.99.38-.67.77-1.34 1.17-2.01.61-1.03 1.21-2.03 1.81-3.03.36.62.74 1.25 1.16 1.89 1.16 1.78 2.36 3.34 3.52 4.7.05 1.92.1 3.81.14 5.71Z"/><path fill="#FF837D" d="M101.05 115.11c-.12.41-.23.84-.33 1.3-.25 1.09-.46 2.09-.65 2.99-1.23.32-2.41 1.29-3.31 2.38-.41-.64-.89-1.47-1.17-2.23-.32-.85-.57-2.02-.76-3.37 2.01-.9 4.23-1.13 6.22-1.07Z"/><path fill="#F9DE81" d="M100.06 119.41c-.58 2.73-.97 4.45-1.61 4.47-.11.01-.28-.04-1.02-1.09-.13-.19-.39-.55-.67-1 .89-1.1 2.07-2.06 3.3-2.38ZM117.13 112.041c-.15.07-.31.14-.47.2-.14.05-.28.11-.42.15-.12.04-.24.08-.37.12-.12.03-.23.07-.36.1-.12.04-.25.06-.38.09s-.25.05-.39.07c-.15.03-.31.05-.47.07-.02.01-.05.01-.07.01-.13.02-.25.03-.38.03-.06.01-.12.02-.18.02-.23.02-.47.02-.72.02-.06 0-.12 0-.17-.01a9.49 9.49 0 0 1-3.1-.61c2.04-2.18 4.32-3.33 5.76-3.91.29.45.6.98.9 1.58.27.55.53 1.16.75 1.84.03.08.05.16.07.23Z"/><path fill="#ECECEC" d="M116.14 118.891c-.41.01-.82.02-1.23.02-2.17.04-4.34.07-6.51.12.07-.44.19-1.59-.52-2.54-.17-.23-.32-.36-.38-.41-.1-.09-.18-.2-.24-.36.39-.75.89-1.56 1.52-2.39.28-.36.57-.7.87-1.02.91.33 1.94.57 3.1.61.05.01.11.01.17.01.24.01.48 0 .72-.02a12.29 12.29 0 0 1-.08 3.06c.2.45.54 1.06 1.09 1.68.54.59 1.08.99 1.49 1.24Z"/><path fill="#9ABEFF" d="M122.77 120.251c-.58.86-1.17 1.73-1.77 2.59-.55.79-1.09 1.57-1.64 2.34a38.328 38.328 0 0 1-4.45-6.27c.41-.01.82-.02 1.23-.02-.41-.25-.95-.64-1.48-1.23a6.76 6.76 0 0 1-1.09-1.68c.09-.58.14-1.21.14-1.88-.01-.41-.03-.8-.06-1.18.06 0 .12-.01.18-.02l.38-.03c.02 0 .05-.01.07-.01.16-.02.32-.04.47-.07.13-.02.26-.04.39-.07.13-.03.25-.05.38-.09.12-.03.24-.06.36-.1.13-.04.25-.08.37-.12.14-.05.29-.1.42-.15.16-.06.32-.13.47-.2.7 2.19.75 4.12.69 5.41 1.53.86 3.06 1.73 4.59 2.6.11.05.23.12.35.18Z"/><path fill="#F9DE81" d="M123.48 125.53c-.4-.02-.81-.03-1.24-.03-1.11.01-2.13.1-3.04.23-.69 1.12-1.37 2.26-2.06 3.43-.4.67-.79 1.34-1.17 2.01-.39.66-.76 1.33-1.14 1.99-.26.47-.53.94-.78 1.41-.63-.56-1.12-1.05-1.46-1.4-.31-.32-.48-.51-.48-.51-.91-1.03-2.02-2.44-3.14-4.26.22-.87.74-1.68 1.39-2.23.54-.45 1.2-.76 2.81-1.01 1.42-.21 3.53-.38 6.16.03.55-.77 1.09-1.55 1.64-2.34.61-.87 1.2-1.73 1.77-2.59.2.12.4.23.6.35.07 1.63.11 3.28.14 4.92Z"/><path fill="#FF837D" d="M123.65 132.721a43.537 43.537 0 0 1-4.68-6.59c.08-.13.16-.27.24-.4.91-.13 1.93-.22 3.04-.23.42-.01.84.01 1.24.03.05 2.4.1 4.8.16 7.19Z"/><path fill="#9ABEFF" d="M108.39 119.02h.03c-.78.16-2.01.37-3.97.72.13-1.09.34-2.29.68-3.64.04-.15.07-.3.12-.45.88.2 1.52.39 1.79.48.06-.14.14-.28.21-.42.07.16.15.28.24.36.05.05.21.18.38.41.71.95.59 2.1.52 2.54Z"/><path fill="#FF837D" d="M119.35 125.18c-2.64-.4-4.74-.24-6.16-.03-.75.11-1.29.24-1.71.4-.94-.73-3.15-2.75-3.13-5.68 0-.3.03-.58.07-.85h.01l6.48-.12a38.02 38.02 0 0 0 4.44 6.28Z"/><path fill="#ECECEC" d="M111.48 125.55c-.49.17-.81.38-1.1.62a4.45 4.45 0 0 0-1.39 2.23c-.48-.78-.96-1.63-1.42-2.56.24-1.29.78-2.42 1.38-3.35.72 1.52 1.9 2.58 2.53 3.06Z"/><path fill="#F9DE81" d="M108.95 122.49c-.6.93-1.13 2.06-1.38 3.35-1.09-2.16-2.14-4.29-3.02-6.11 1.9-.34 3.1-.55 3.87-.71-.04.27-.07.55-.07.85 0 .98.24 1.86.6 2.62Z"/><path fill="#FF837D" d="M105.7 137.391c-.4 1.64-.9 3.12-1.42 4.43-1.29.45-2.82.42-3.72-.41-.24-.23-.44-.52-.58-.83.75-1.09 1.66-2.6 2.47-4.47.21-.04.43-.06.64-.05 1.05.02 1.98.59 2.61 1.33ZM106.42 125.88c.09.81.16 1.73.19 2.76-.76-.37-1.53-.86-2.24-1.51 0-2-.2-3.88-.03-6.24.25-.02.49-.04.73-.05.76 1.55 1.6 3.27 2.49 5.01l-1.14.03Z"/><path fill="#9ABEFF" d="M106.3 134.201c-.12.85-.28 1.73-.48 2.64-.04.19-.08.37-.13.55-.25-.31-.56-.58-.9-.79.13-.96.69-1.83 1.51-2.4Z"/><path fill="#C39A54" d="M59.76 162.339c1.19-.15 2.49 1.211 2.91 2.571.49 1.58-.02 3.829-1.61 4.389-1.19.42-2.62-.239-3.29-1.199-1.36-1.96.22-5.531 1.99-5.761ZM126.75 166.081c-.24-1.17-1.35-1.84-2.21-2.04-1.29-.3-2.51.33-3.21 1.13-1.07-.72-1.99-1.29-3.1-1.15-.18.02-1.24.15-1.85 1.03-.64.91-.56 2.27 0 2.88.64.7 2.15.64 4.02-.15.03.41.15.81.4 1.14.96 1.29 3.23.99 4.51.07.19-.13 1.77-1.31 1.44-2.91Zm-8.5.7c-.11-.12-.13-.39 0-.57a.5.5 0 0 1 .36-.2c.23-.03.43.1.65.25.12.08.21.16.27.22-.58.39-1.11.49-1.28.3Z"/><path fill="#fff" d="M101.13 33.59c-5.84 9.48-19.24 11.51-22 11.87.03.46.06.91.1 1.37a50 50 0 0 1-11.24 1.04c-4.7-.09-12.86-.35-20.22-5.34-1.95-1.33-6.94-4.72-6.79-9.05.05-1.26.51-2.22.82-2.81 1.85-3.48 5.7-7.98 9.14-11.66h41.19a73.71 73.71 0 0 1-3.56 3.33c-1.1.98-2.28 1.95-3.54 2.93a78.366 78.366 0 0 1-12.75 8.08c.98.87 1.95 1.75 2.93 2.62A96.142 96.142 0 0 0 95.98 19h1.9a75.11 75.11 0 0 1-7.96 8.16 76.028 76.028 0 0 1-13.78 9.67c.19.56.38 1.13.56 1.69 5.15-1.94 13.13-5.86 19.85-13.73.7-.83 1.35-1.65 1.96-2.47.81-1.09 1.54-2.17 2.18-3.21.19.19.38.39.57.61.9 1.03 1.84 2.44 2.27 4.26 1 4.09-1.14 7.56-2.4 9.61Z"/><path fill="#ECECEC" d="M73.06 36.06c.19-.77 1.43-6.19-1.8-9.61-.51-.54-1.54-1.61-3.14-1.85-2.41-.36-5.08 1.33-6.73 4.32-1.14-1.14-2.67-1.46-3.7-.87-.59.33-.88.88-1.03 1.23-.77-.38-1.68-.32-2.36.15-.78.54-1.15 1.52-.93 2.47-.06.02-1.2.52-1.39 1.75-.16 1.07.53 1.82.62 1.9-.02.72-.03 1.44-.05 2.16-.18.06-.56.2-.87.57-.56.65-.43 1.47-.41 1.59-1.46.15-2.42 1.22-2.36 2.21.05.86.85 1.41.98 1.49-.76.49-1.18 1.36-1.08 2.21.13 1.03.99 1.88 2.11 2.01.56 1.74 1.17 2.19 1.65 2.26 1.04.15 1.85-1.49 2.72-1.23.55.16.8.97.93 1.65-.38.89-.22 1.83.36 2.31.33.27.75.05 1.03.36.31.34.02.78.15 1.49.12.67.55 1.26 1.03 1.59 1.11.77 2.56.15 2.67.1.03.05.51.95 1.54 1.03.69.05 1.37-.28 1.75-.87.23.21.95.83 1.85.72 1.03-.12 1.62-1.12 2.01-1.8 1.01-1.76.98-3.55.98-3.75-.05-2.03.67-6.28 3.47-15.59Z"/><path fill="#54688C" d="M104.83 31.59c-1.9 5.04-5.89 7.71-9.46 10.02-2.97 1.92-8.36 4.84-16.09 6.01l-.06-.8c-.03-.46-.06-.91-.1-1.37 2.77-.37 16.17-2.4 22-11.87 1.26-2.05 3.41-5.52 2.42-9.62-.53-2.2-1.79-3.82-2.85-4.86a46.89 46.89 0 0 1-4.14 5.68c-6.72 7.87-14.69 11.78-19.85 13.73-.19-.56-.38-1.13-.56-1.69 4.01-2.19 8.83-5.3 13.78-9.67 3.17-2.79 5.8-5.58 7.96-8.17h5.36c.88 1.13 1.82 2.73 2.31 4.78.84 3.57-.2 6.44-.72 7.83Z"/><path fill="#9ABEFF" d="M77.26 61.531c-1-.67-1.77-1.39-2.32-1.98-.44.31-.97.65-1.6.99.74-2.27 1.37-5.29 1.21-8.83-.07-1.64-.31-3.13-.62-4.45 1.09-.15 2.11-.52 3.01-1.06.55 1.68 1.01 3.7 1.21 6 .32 3.89-.28 7.13-.89 9.33Z"/><path fill="#F9DE81" d="M73.34 60.54c-.45.24-.95.47-1.49.69-1.34.54-2.56.8-3.5.92a24.415 24.415 0 0 0 3.2-14.93 7.833 7.833 0 0 0 2.36.04c.31 1.32.55 2.82.62 4.45.18 3.55-.45 6.57-1.19 8.83Z"/><path fill="#FF837D" d="M82.34 55.61c-.06 3.17-.73 5.79-1.4 7.68-.9-.27-2.09-.73-3.36-1.54-.11-.07-.22-.14-.32-.22.62-2.2 1.21-5.44.89-9.33-.19-2.3-.66-4.32-1.21-6a8.19 8.19 0 0 0 2.58-2.46c1.31 2.55 2.92 6.69 2.82 11.87Z"/><path fill="#C39A54" d="M74.43 52.94c-.67 0-1.25-.12-1.82-.24-.94-.2-1.82-.38-2.71-1.04-.67-.5-1.06-1.05-1.6-1.81-.36-.51-.68-1.04-.96-1.59l.47-.24c.27.53.58 1.04.92 1.53.51.72.88 1.24 1.48 1.69.8.59 1.59.76 2.5.95.79.16 1.53.32 2.48.17 1.14-.18 1.93-.7 2.57-1.12 1.03-.68 1.67-1.43 2.14-1.97.57-.67 1.08-1.41 1.51-2.18l.47.26c-.45.81-.97 1.57-1.57 2.27-.49.57-1.15 1.35-2.25 2.07-.68.45-1.52 1.01-2.78 1.21-.31.02-.59.04-.85.04Z"/><path fill="#F9DE81" d="M56.74 34.641c1.09-.53 2.14-.26 2.43-.17 1.15 1.55 2.45 3.16 3.91 4.8 2.25 2.53 4.48 4.7 6.58 6.55-.03.65-.16 1.49-.55 2.4-.12.28-.25.53-.38.76-.31.16-.62.32-.92.48-.26.48-.53.96-.79 1.44a53.58 53.58 0 0 1-5.38-4.25 54.91 54.91 0 0 1-5.28-5.45c-.91-1.43-1.13-2.7-1.2-3.39-.1-1.07.05-1.55.17-1.82.4-.85 1.15-1.22 1.41-1.35Z"/><path fill="#F9DE81" d="M69.29 49.7a.77.77 0 1 1-.77-.77c.42 0 .77.35.77.77ZM70.06 52.22a.77.77 0 1 0 0-1.54.77.77 0 0 0 0 1.54ZM77.91 52.22a.77.77 0 1 0 0-1.54.77.77 0 0 0 0 1.54ZM80.1 50.2a.77.77 0 1 0 0-1.54.77.77 0 0 0 0 1.54Z"/><path fill="#54688C" d="M95.98 19a96.177 96.177 0 0 1-9.97 9.35c-3.8 3.09-7.47 5.59-10.8 7.61-.97-.87-1.95-1.75-2.93-2.62 3.73-1.89 8.14-4.49 12.75-8.08 2.71-2.11 5.07-4.24 7.1-6.26h3.85Z"/><path fill="#F9DE81" d="M72.66 53.21a.77.77 0 1 0 0-1.54.77.77 0 0 0 0 1.54ZM75.23 53.39a.77.77 0 1 0 0-1.54.77.77 0 0 0 0 1.54ZM79.27 32.94a1.36 1.36 0 1 0 0-2.72 1.36 1.36 0 0 0 0 2.72ZM81.64 47.97a.77.77 0 1 0 0-1.54.77.77 0 0 0 0 1.54ZM82.55 42.76c.74-.7 1.49-1.39 2.23-2.09l-.45 2.71c.56.62 1.12 1.23 1.68 1.85l-2.26-.21c-.7.39-1.41.78-2.11 1.17l-.12-1.89c-.47-.56-.95-1.12-1.42-1.68.82.05 1.63.1 2.45.14ZM82.76 34.3c-.22.47-.43.94-.65 1.41-.49.34-.98.69-1.47 1.03l1.82.51c.51.47 1.03.94 1.54 1.41.03-.57.07-1.14.1-1.71.62-.34 1.23-.69 1.85-1.03-.69-.11-1.37-.23-2.06-.34-.38-.44-.76-.86-1.13-1.28ZM72.85 46.83c-.4 0-.81-.03-1.21-.1a7.424 7.424 0 0 1-6.26-7.37c0-4.12 3.35-7.47 7.47-7.47 4.12 0 7.47 3.35 7.47 7.47a7.46 7.46 0 0 1-7.47 7.47Z"/><path fill="#C39A54" d="M72.85 32.39c3.84 0 6.97 3.13 6.97 6.97 0 1.37-.4 2.69-1.14 3.83a6.966 6.966 0 0 1-5.83 3.14c-.37 0-.75-.03-1.13-.09a6.938 6.938 0 0 1-5.84-6.88c.01-3.84 3.13-6.97 6.97-6.97Zm0-1c-4.4 0-7.97 3.57-7.97 7.97 0 3.96 2.89 7.25 6.68 7.86.42.07.85.11 1.29.11 2.78 0 5.23-1.43 6.66-3.59a7.972 7.972 0 0 0-6.66-12.35Z"/><path fill="#FCECDC" d="M162.92 172.001h-18.39c-.42-.87-.89-1.76-1.42-2.66-.84-1.44-1.72-2.73-2.6-3.88 3.27-6.15 2.61-13.09 2.41-14.85.28-.32.71-.72 1.33-.98.9-.38 1.42-.15 1.69-.54.36-.5-.33-1.16-.2-2.19.09-.77.58-1.34.98-1.69.89.41 1.79.82 2.69 1.23 3.67 8.25 8.1 16.84 13.51 25.56ZM102 171.541c.2-5.95-.52-11.32-.5-17.54l.5-11c2.167-2.834 5.9-11.2 3.5-22-1-4 4.5-9.5 2-13.5-.938-1.501-6.5 4-6.5 9.5 0 2-.2 6.1-1 6.5-1 .5-3-1-4.5-9.5s-5-21.501-8.5-22c-2.475-.353 5.5 19.5 3.5 23.5-.478.955-1.877-2.03-4-6.001-3.434-6.424-8.483-15.427-12.5-14.5-1.5.5 1.667 5.5 3.5 8.5-.667-.833-2.4-2.4-4-2-1.6.4 3.393 8.834 6.09 13-.53-.499-1.89-1.299-3.09-.499-1.5.999 3 5.47 2.5 11 .04.9.13 1.42.13 2.24 0 0 .08 1.66.46 3.29.74 3.21 3.53 7.86 4.54 9.8 1.7 3.27 1.94 6.01 2.57 10.49 1.28 9.06-1.44 15.82-3.05 20.72H102Z"/><mask id="d" width="36" height="81" x="73" y="91" mask-type="alpha" maskUnits="userSpaceOnUse"><path fill="#FCECDC" d="M102 171.541c.2-5.95-.52-11.32-.5-17.54l.5-11c2.167-2.834 5.9-11.2 3.5-22-1-4 4.5-9.5 2-13.5-.938-1.501-6.5 4-6.5 9.5 0 2-.2 6.1-1 6.5-1 .5-3-1-4.5-9.5s-5-21.501-8.5-22c-2.475-.353 5.5 19.5 3.5 23.5-.478.955-1.877-2.03-4-6.001-3.434-6.424-8.483-15.427-12.5-14.5-1.5.5 1.667 5.5 3.5 8.5-.667-.833-2.4-2.4-4-2-1.6.4 3.393 8.834 6.09 13-.53-.499-1.89-1.299-3.09-.499-1.5.999 3 5.47 2.5 11 .04.9.13 1.42.13 2.24 0 0 .08 1.66.46 3.29.74 3.21 3.53 7.86 4.54 9.8 1.7 3.27 1.94 6.01 2.57 10.49 1.28 9.06-1.44 15.82-3.05 20.72H102Z"/></mask><g fill="#EDD8C3" mask="url(#d)"><path d="M86 92.5c1.5.332 4 2.5 6.5 9-.5-3.667-5.5-16.36-6.5-9ZM94 138.5c-3.6-9.6-1.5-14.333 0-15.5-1.333 0-4 .7-4 3.5s-2 4.833-3 5.5c3.2 1.2 6 4.833 7 6.5ZM78 113.5c3.167 1.833 6.5 10.5 5 16 1.5-3.5 0-14-5-16ZM75.5 101.5c4 5 8.6 11.4 11 19-.167-3-2.6-11-11-19ZM102 127.5c-2-2.4-4.167-6.667-5-8.5 2.8 0 3.167-2.667 3-4 6 4.4 3.833 10.167 2 12.5Z"/></g></svg>