<?xml version="1.0" encoding="UTF-8"?>
<svg version="1.1" viewBox="0 0 192 192" xml:space="preserve" xmlns="http://www.w3.org/2000/svg">
	 <circle class="a" cx="96" cy="96" r="88" fill="#98dc9a"/><path d="m125.92 58.276c-4.8868 7.4365-16.51 25.242-16.51 25.242s-5.5506-3.9485-8.7104-3.7756c-3.0407 0.16635-6.7255 1.2854-7.9357 4.5261-4.488 12.017-33.702 19.58-33.702 19.58l42.298 29.608s19.464-19.747 25.788-30.7c1.8334-3.1756 1.4444-6.807-0.20667-9.5165-1.5486-2.5413-7.8435-4.2643-7.8435-4.2643s9.7464-20.416 13.372-28.244c2.1648-4.6747-3.5862-6.965-6.5493-2.456z" fill="#98dc9a" stroke="#56595b" stroke-linecap="round" stroke-linejoin="round" stroke-width="3.6755"/><path d="m88.231 91.001c1.3919 2.336 3.1928 4.1461 6.373 4.1828 1.7391 2.9014 4.1994 5.1716 9.0053 5.3895 2.0583 3.8044 5.4999 4.7434 9.3464 4.8438 1.8606 3.6955 5.173 4.6948 8.8178 5.077" fill="none" stroke="#56595b" stroke-linecap="round" stroke-linejoin="round" stroke-width="3.6755"/><path d="m92.436 85.002 34.17 18.659" fill="none" stroke="#56595b" stroke-linecap="round" stroke-linejoin="round" stroke-width="3.6755"/><path d="m73.738 114.12 17.816-10.71-12.687 14.3z" fill="#56595b" stroke="#56595b" stroke-linecap="round" stroke-linejoin="round" stroke-width="1.2252"/><path d="m88.887 124.73 13.859-9.3989-9.6757 12.327z" fill="#56595b" stroke="#56595b" stroke-linecap="round" stroke-linejoin="round" stroke-width="1.2252"/><path d="m125.92 58.276c-4.8868 7.4365-16.51 25.242-16.51 25.242s-5.5506-3.9485-8.7104-3.7756c-3.0407 0.16635-6.7255 1.2854-7.9357 4.5261l34.384 18.488c1.8334-3.1756 1.4444-6.807-0.20667-9.5165-1.5486-2.5413-7.8435-4.2643-7.8435-4.2643s9.7464-20.416 13.372-28.244c2.1648-4.6747-3.5862-6.965-6.5493-2.456z" fill="#a0a5af" stroke="#56595b" stroke-linecap="round" stroke-linejoin="round" stroke-width="3.6755"/><ellipse cx="90.186" cy="133.91" rx="3.2531" ry="3.2307" fill="#fff"/><ellipse cx="80.07" cy="132.62" rx="1.7237" ry="1.7118" fill="#fff"/><ellipse cx="72.887" cy="135.61" rx="2.4037" ry="2.3872" fill="#fff"/><ellipse cx="73.689" cy="123.86" rx="3.3509" ry="3.3279" fill="#fff"/><ellipse cx="69.359" cy="116.77" rx="2.1851" ry="2.1701" fill="#fff"/><ellipse cx="66.51" cy="125.36" rx="1.8451" ry="1.8324" fill="#fff"/></svg>
