<?xml version="1.0" encoding="utf-8"?>
<!-- Generator: Adobe Illustrator 24.1.1, SVG Export Plug-In . SVG Version: 6.00 Build 0)  -->
<svg version="1.1" id="Layer_1" xmlns="http://www.w3.org/2000/svg" xmlns:xlink="http://www.w3.org/1999/xlink" x="0px" y="0px"
	 viewBox="0 0 192 192" style="enable-background:new 0 0 192 192;" xml:space="preserve">
<style type="text/css">
	.st0{fill:#54688C;}
	.st1{fill:#FFFFFF;}
</style>
<path class="st0" d="M29.5,19.5h133c5.5,0,10,4.5,10,10v133c0,5.5-4.5,10-10,10h-133c-5.5,0-10-4.5-10-10v-133
	C19.5,24,24,19.5,29.5,19.5z"/>
<g>
	<path class="st1" d="M72.4,92.1c3.1-1.3,5.8-2.4,8.5-3.4c0.8-0.3,1.3,0.1,1.4,1c0,0.5,0,1,0,1.5c0,8.6,0,17.1,0,25.7
		c0,3.8,0.1,3.8,3.6,5c-0.2,0.2-0.3,0.3-0.5,0.4c-2.6,0.2-5.1,0.4-7.7,0.7c-1.2,0.1-1.2-0.5-1.1-1.4c0.2-1.7,0.4-3.4,0.3-5.2
		c-1.1,1.1-2.1,2.2-3.2,3.3c-2.9,2.6-6.3,3.6-10.1,3.3c-5-0.4-8.3-3.6-8.9-9.1c-0.4-3.6-0.3-7.2-0.4-10.8c-0.1-2.7,0.1-5.4-0.1-8.1
		c-0.2-2.6-0.7-2.9-3.2-2.7c-0.3,0-0.7,0-1-0.4c0.4-0.1,0.7-0.3,1.1-0.4c2.1-0.8,4.3-1.5,6.3-2.4c1.7-0.7,2.2-0.5,2.2,1.3
		c0,6.6,0,13.2,0,19.9c0,1.3,0.1,2.6,0.4,3.8c1,5.4,5,7.8,10.3,6.3c3-0.8,5.1-2.9,6.8-5.4c0.2-0.4,0.3-0.9,0.3-1.4
		c0-5.9,0-11.7-0.1-17.6c0-0.5,0-1.1-0.1-1.6c-0.3-2.2-0.8-2.5-3-2.3C73.6,92.1,73.2,92.1,72.4,92.1z"/>
	<path class="st1" d="M144.5,114.1c-1.5,1.6-2.6,3.1-3.9,4.2c-1.8,1.5-3.7,2.8-5.7,3.9c-2.3,1.2-4.7,1-7.1,0
		c-4.8-1.9-6.3-7.2-3.2-11.3c2.1-2.8,4.9-4.5,7.9-6c3.7-1.7,7.5-3.3,11.3-4.8c1-0.4,1.4-0.9,1.2-1.9c-0.2-1.3-0.3-2.7-0.6-4
		c-0.6-2.4-1.6-4.4-4.2-5c-2.9-0.7-5.6-0.2-7.6,2.2c-1,1.2-1.8,2.7-2.6,4.1c-1.1,1.8-2.6,2.4-4.6,1.9c-1.6-0.4-1.9-1.4-1-2.8
		c0.2-0.4,0.5-0.7,0.8-1c4.3-3.1,9-5.4,14.4-5.3c6.8,0.1,10.5,4.1,10.6,11c0,4.5-0.3,9-0.4,13.6c0,1.7-0.1,3.4,0.1,5
		c0.1,0.9,0.8,1.6,1.2,2.4c0.8-0.4,1.6-0.7,2.3-1.3c0.8-0.7,1.4-1.6,2-2.4c0.2,0.1,0.3,0.2,0.5,0.3c-0.1,0.3-0.2,0.8-0.4,1
		c-1.9,1.5-3.7,3.3-5.8,4.5c-2.4,1.3-4.9-0.1-5.2-2.8C144.3,117.9,144.5,116.1,144.5,114.1z M145.3,100.6c-0.2-0.1-0.4-0.3-0.7-0.4
		c-4.5,2.2-9,4.5-13.5,6.7c-0.5,0.2-0.8,0.7-1.2,1c-2.2,2.2-2.6,4.9-1.6,7.7c0.8,2.4,3.5,4,6.4,4.1c3.6,0.1,9.3-4.3,9.9-8.1
		C145.1,108.1,145,104.3,145.3,100.6z"/>
	<path class="st1" d="M49.5,122.7c-4.1,0-8.1,0-12.2,0c3.4-0.5,3-3.1,3.1-5.4c0-13.3,0-26.6,0-39.9c0-0.5,0-1,0-1.5
		c-0.1-2.6-0.6-4.2-3.7-3.4c-0.2,0-0.4-0.1-0.6-0.4c0.5-0.2,0.9-0.3,1.4-0.5c2-0.7,4-1.4,5.9-2.2c1.8-0.8,2.3-0.6,2.3,1.5
		c0,14.7,0,29.4,0,44.1c0,1.4,0,2.8,0.1,4.2c0.1,2.3,0.6,2.7,2.9,2.9c0.3,0,0.7,0.2,1,0.3C49.5,122.5,49.5,122.6,49.5,122.7z"/>
	<path class="st1" d="M119.8,111.6c-1.7,5.5-8.6,12.1-17,11.1c-7.9-1-13.5-6.6-14-14.3c-0.9-13.2,12.9-23.7,25.4-19.2
		c1.3,0.5,2.5,1.2,3.6,2.1c1.3,1.1,1.3,2.4,0.3,3.6c-1,1.2-2.8,1.5-4.1,0.6c-0.7-0.5-1.3-1.1-1.8-1.8c-5.2-6.5-13.7-3.8-16.9,1.5
		c-3.5,5.8-2.5,14.8,2.2,19.7c5.4,5.5,17.4,6.1,21.7-2.6C119.4,112.1,119.6,111.9,119.8,111.6z"/>
</g>
</svg>
