<svg xmlns="http://www.w3.org/2000/svg" xml:space="preserve" style="enable-background:new 0 0 192 192" viewBox="0 0 192 192"><path d="M29.5 19.5h133c5.5 0 10 4.5 10 10v133c0 5.5-4.5 10-10 10h-133c-5.5 0-10-4.5-10-10v-133c0-5.5 4.5-10 10-10z" style="fill:#fff"/><path d="M145.9 75v13c0 1.5-.5 2.5-1.9 3.3-4.1 2.3-8.1 4.7-12.2 7-2.2 1.3-3.3.6-3.3-2 0-7.9 0-15.8.2-23.6 0-1.9-.5-3-2.3-4-6.8-3.7-13.5-7.6-20.2-11.5-2.8-1.6-2.8-2.7.1-4.3 3.9-2.3 7.9-4.5 11.8-6.8 1.2-.7 2.2-.7 3.4 0 7.6 4.4 15.3 8.8 23 13.1 1.2.7 1.6 1.4 1.5 2.7-.1 4.3 0 8.7 0 13 0 .1 0 .1-.1.1z" style="fill:#ff837d"/><path d="M122.1 122.7v6.9c0 1.3-.4 2.2-1.5 2.8-7.8 4.5-15.6 9.1-23.4 13.7-.9.5-1.6.5-2.4 0-7.7-4.6-15.4-9.1-23.2-13.6-1.2-.7-1.7-1.6-1.7-3v-13.9c0-2.9 1-3.5 3.5-2 7 4.1 14.1 8.2 21.1 12.3 1.2.7 2 .7 3.1 0 6.9-4.1 13.9-8.2 20.9-12.2 2.6-1.5 3.5-1 3.5 2 .1 2.4.1 4.7.1 7z" style="fill:#9abeff"/><path d="M45.9 75V61.8c0-1.2.4-2 1.5-2.6 7.7-4.3 15.4-8.7 23-13.1 1.2-.7 2.2-.8 3.4 0 4 2.4 8.1 4.7 12.1 7 2.3 1.4 2.3 2.6 0 3.9-7 4-14 8-21.1 11.9-1.3.7-1.8 1.5-1.8 3 .1 8 .1 16 .1 24 0 3-.9 3.6-3.5 2.1-3.9-2.2-7.7-4.5-11.6-6.7-1.4-.8-2-1.7-2-3.4v-13c0 .1 0 .1-.1.1z" style="fill:#98dc9a"/><path d="M116.8 78.4c0-.8.1-1.7-.8-2.1-.4-.3-.7-.6-1.1-.8-5.8-3.4-11.6-6.7-17.4-10.2-1.3-.8-2.2-.6-3.3.1-5.7 3.4-11.3 6.6-17 10-.7.4-1.5.7-1.9 1.5-.1.2-.2.4-.2.6 0 7.5-.1 15.1-.1 22.6 0 .9.5 1.5 1.3 1.9 6.1 3.6 12.2 7.1 18.3 10.7.9.5 1.7.6 2.7 0 6-3.5 12.1-7.1 18.1-10.6 1-.6 1.5-1.4 1.5-2.6-.1-7.1-.1-14.1-.1-21.1z" style="fill:#f9de81"/></svg>