<?xml version="1.0" encoding="UTF-8" standalone="no"?>
<!-- Created with Inkscape (http://www.inkscape.org/) -->

<svg
   width="192"
   height="192"
   viewBox="0 0 192 192"
   id="svg2"
   version="1.1"
   inkscape:version="1.2 (dc2aedaf03, 2022-05-15)"
   sodipodi:docname="macrodroid_alt.svg"
   inkscape:export-filename="png/macrodroid_alt.png"
   inkscape:export-xdpi="96"
   inkscape:export-ydpi="96"
   xmlns:inkscape="http://www.inkscape.org/namespaces/inkscape"
   xmlns:sodipodi="http://sodipodi.sourceforge.net/DTD/sodipodi-0.dtd"
   xmlns="http://www.w3.org/2000/svg"
   xmlns:svg="http://www.w3.org/2000/svg"
   xmlns:rdf="http://www.w3.org/1999/02/22-rdf-syntax-ns#"
   xmlns:cc="http://creativecommons.org/ns#"
   xmlns:dc="http://purl.org/dc/elements/1.1/">
  <sodipodi:namedview
     id="base"
     pagecolor="#ffffff"
     bordercolor="#666666"
     borderopacity="1.0"
     inkscape:pageopacity="0.0"
     inkscape:pageshadow="2"
     inkscape:zoom="2.8284272"
     inkscape:cx="93.691646"
     inkscape:cy="123.03658"
     inkscape:document-units="px"
     inkscape:current-layer="layer1"
     showgrid="false"
     units="px"
     inkscape:window-width="1680"
     inkscape:window-height="1022"
     inkscape:window-x="1920"
     inkscape:window-y="0"
     inkscape:window-maximized="1"
     inkscape:showpageshadow="0"
     inkscape:pagecheckerboard="0"
     inkscape:deskcolor="#d1d1d1" />
  <defs
     id="defs4" />
  <metadata
     id="metadata7">
    <rdf:RDF>
      <cc:Work
         rdf:about="">
        <dc:format>image/svg+xml</dc:format>
        <dc:type
           rdf:resource="http://purl.org/dc/dcmitype/StillImage" />
        <dc:title />
      </cc:Work>
    </rdf:RDF>
  </metadata>
  <g
     inkscape:label="Calque 1"
     inkscape:groupmode="layer"
     id="layer1"
     transform="translate(0,-860.36216)">
    <g
       id="g5637"
       transform="matrix(0.31106785,0,0,0.31106785,222.48857,651.31188)">
      <path
         inkscape:connector-curvature="0"
         id="circle4164"
         d="m -490.12351,710.66941 a 282.89636,282.89636 0 0 0 -199.39994,269.98569 282.89636,282.89636 0 0 0 199.39994,270.2857 z"
         style="opacity:1;fill:#fe837e;fill-opacity:1;stroke:none;stroke-width:10;stroke-linecap:round;stroke-linejoin:round;stroke-miterlimit:4;stroke-dasharray:none;stroke-opacity:1" />
      <path
         inkscape:connector-curvature="0"
         id="circle4168"
         d="M -323.1304,710.36278 V 1250.6409 A 282.89636,282.89636 0 0 0 -123.73046,980.6551 282.89636,282.89636 0 0 0 -323.1304,710.36278 Z"
         style="opacity:1;fill:#99dc9b;fill-opacity:1;stroke:none;stroke-width:10;stroke-linecap:round;stroke-linejoin:round;stroke-miterlimit:4;stroke-dasharray:none;stroke-opacity:1" />
      <path
         inkscape:connector-curvature="0"
         id="rect4159"
         d="m -406.62694,697.75864 a 282.89636,282.89636 0 0 0 -83.55656,12.93076 v 540.2381 a 282.89636,282.89636 0 0 0 83.55656,12.6241 282.89636,282.89636 0 0 0 83.55653,-12.9309 V 710.37612 a 282.89636,282.89636 0 0 0 -83.55653,-12.61748 z"
         style="opacity:1;fill:#9abefe;fill-opacity:1;stroke:none;stroke-width:10;stroke-linecap:round;stroke-linejoin:round;stroke-miterlimit:4;stroke-dasharray:none;stroke-opacity:1" />
      <rect
         ry="25.821209"
         rx="26.904917"
         y="908.96692"
         x="-583.57056"
         height="178.45538"
         width="53.809834"
         id="rect4174"
         style="opacity:1;fill:#fefefe;fill-opacity:1;stroke:none;stroke-width:10;stroke-linecap:round;stroke-linejoin:round;stroke-miterlimit:4;stroke-dasharray:none;stroke-opacity:1" />
      <rect
         style="opacity:1;fill:#fefefe;fill-opacity:1;stroke:none;stroke-width:10;stroke-linecap:round;stroke-linejoin:round;stroke-miterlimit:4;stroke-dasharray:none;stroke-opacity:1"
         id="rect4176"
         width="53.809834"
         height="178.45538"
         x="-283.49231"
         y="908.96692"
         rx="26.904917"
         ry="25.821209" />
      <path
         inkscape:connector-curvature="0"
         id="rect4194"
         d="m -406.62694,787.18069 c -58.60881,0 -105.79208,45.25799 -105.79208,101.47962 v 3.81254 h 211.58416 v -3.81254 c 0,-56.22163 -47.18327,-101.47962 -105.79208,-101.47962 z m -52.33616,51.96289 h 16.8966 v 16.88994 h -16.8966 z m 87.77569,0 h 16.8966 v 16.88994 h -16.8966 z"
         style="opacity:1;fill:#fefefe;fill-opacity:1;stroke:none;stroke-width:10;stroke-linecap:round;stroke-linejoin:round;stroke-miterlimit:4;stroke-dasharray:none;stroke-opacity:1" />
      <rect
         transform="rotate(-44.415577)"
         style="opacity:1;fill:#fefefe;fill-opacity:1;stroke:none;stroke-width:10;stroke-linecap:round;stroke-linejoin:round;stroke-miterlimit:4;stroke-dasharray:none;stroke-opacity:1"
         id="rect4200"
         width="19.490438"
         height="64.63826"
         x="-901.02167"
         y="207.67924"
         rx="9.7452192"
         ry="9.3526907" />
      <rect
         ry="9.3526907"
         rx="9.7452192"
         y="776.84265"
         x="-320.12778"
         height="64.63826"
         width="19.490438"
         id="rect4202"
         style="opacity:1;fill:#fefefe;fill-opacity:1;stroke:none;stroke-width:10;stroke-linecap:round;stroke-linejoin:round;stroke-miterlimit:4;stroke-dasharray:none;stroke-opacity:1"
         transform="matrix(-0.71428244,-0.69985756,-0.69985756,0.71428244,0,0)" />
      <rect
         style="opacity:1;fill:#fefefe;fill-opacity:1;stroke:none;stroke-width:10;stroke-linecap:round;stroke-linejoin:round;stroke-miterlimit:4;stroke-dasharray:none;stroke-opacity:1"
         id="rect4178"
         width="53.809834"
         height="178.45538"
         x="-477.87244"
         y="1013.9369"
         rx="26.904917"
         ry="25.821209" />
      <rect
         ry="25.821209"
         rx="26.904917"
         y="1013.9369"
         x="-389.19067"
         height="178.45538"
         width="53.809834"
         id="rect4180"
         style="opacity:1;fill:#fefefe;fill-opacity:1;stroke:none;stroke-width:10;stroke-linecap:round;stroke-linejoin:round;stroke-miterlimit:4;stroke-dasharray:none;stroke-opacity:1" />
      <path
         sodipodi:nodetypes="csssscc"
         inkscape:connector-curvature="0"
         id="rect4182"
         d="m -300.83445,910.11528 v 177.57782 c 0,8.762 -7.70924,15.8159 -17.28527,15.8159 h -177.01362 c -9.57603,0 -17.28527,-7.0539 -17.28527,-15.8159 V 910.11528 Z"
         style="opacity:1;fill:#fefefe;fill-opacity:1;stroke:none;stroke-width:10;stroke-linecap:round;stroke-linejoin:round;stroke-miterlimit:4;stroke-dasharray:none;stroke-opacity:1" />
      <path
         inkscape:connector-curvature="0"
         d="m -351.57649,945.7853 c -3.10766,-5.36059 -22.11284,3.50138 -22.11284,3.50138 l 4.0429,6.97408 4.04269,6.97344 8.46436,14.601 4.04289,6.9737 c 0,0 17.13446,-12.0889 14.02701,-17.4492 -5.73444,-9.89188 -7.16844,-12.36537 -12.50701,-21.5744 z m -67.49436,-24.61884 c -6.19628,0 -8.09811,20.87244 -8.09811,20.87244 h 8.06105 8.0606 l 16.87691,0.0341 h 8.06105 c 0,0 -1.82809,-20.89018 -8.02399,-20.9011 -11.43387,-0.0341 -14.29302,-0.0341 -24.93751,-0.0444 z m -55.23862,45.81824 c -3.23266,5.2862 13.61285,17.7741 13.61285,17.7741 l 4.20571,-6.8769 4.20548,-6.8765 8.80517,-14.39757 4.20572,-6.87683 c 0,0 -18.79171,-9.30594 -22.02424,-4.02044 -5.96524,9.75437 -7.45722,12.19339 -13.01058,21.27444 z m 12.75102,71.2113 c 3.14574,5.3384 22.0873,-3.6587 22.0873,-3.6587 l -4.09248,-6.945 -4.09221,-6.9444 -8.56813,-14.5403 -4.09241,-6.9451 c 0,0 -17.04795,12.2108 -13.90241,17.5489 5.80477,9.8509 7.25631,12.3142 12.66034,21.4846 z m 67.29973,24.6899 c 6.19604,0.055 8.24646,-20.8141 8.24646,-20.8141 l -8.06071,-0.072 -8.06026,-0.072 -16.87626,-0.1502 -8.06074,-0.072 c 0,0 1.67939,20.9025 7.87499,20.9574 11.43343,0.1024 14.29247,0.1263 24.93652,0.2219 z m 55.31585,-45.9172 c 3.23014,-5.2879 -13.62183,-17.7673 -13.62183,-17.7673 l -4.20219,6.8789 -4.20193,6.8789 -8.79797,14.402 -4.20217,6.8792 c 0,0 18.79642,9.2968 22.02632,4.0092 5.96043,-9.7574 7.45114,-12.1971 13.00001,-21.2809 z m -67.68407,-79.41812 a 54.478944,54.478944 0 0 0 -54.47572,54.47572 54.478944,54.478944 0 0 0 54.47572,54.4754 54.478944,54.478944 0 0 0 54.48238,-54.4754 54.478944,54.478944 0 0 0 -54.48238,-54.47572 z m -1.23309,28.36082 a 26.136781,26.136781 0 0 1 14.30377,3.4727 26.136781,26.136781 0 0 1 9.56477,35.7062 26.136781,26.136781 0 0 1 -35.69951,9.5646 26.136781,26.136781 0 0 1 -9.57142,-35.6993 26.136781,26.136781 0 0 1 21.40239,-13.0442 z"
         style="opacity:1;fill:#9abefe;fill-opacity:1;stroke:none;stroke-width:0.0853047;stroke-linecap:butt;stroke-linejoin:round;stroke-miterlimit:4;stroke-dasharray:none;stroke-opacity:1"
         id="path6557" />
    </g>
  </g>
</svg>
