<svg xmlns="http://www.w3.org/2000/svg" xml:space="preserve" width="192" height="192"><rect width="129" height="129" x="31.5" y="31.5" fill="#728dbe" ry="10.102"/><rect width="83" height="83" x="54.5" y="54.5" fill="#9abeff" ry="6.5"/><path fill="#728dbe" d="M111.88 94.937V75.806c0-1.044-.85-1.894-1.894-1.894-1.043 0-1.894.85-1.894 1.894v19.131H83.86v-8.696c0-1.043-.85-1.894-1.893-1.894-1.044 0-1.894.85-1.894 1.894v8.696c-2.551.116-4.522 2.242-4.56 4.792v11.44c0 2.551 2.009 4.638 4.56 4.793v.232c0 1.043.85 1.893 1.894 1.893 1.043 0 1.893-.85 1.893-1.893v-.232h24.271v.232c0 1.043.85 1.893 1.894 1.893s1.894-.85 1.894-1.893v-.232c2.55-.116 4.522-2.242 4.56-4.793V99.73c-.038-2.55-2.048-4.637-4.599-4.792z"/><path fill="#fff" d="M105.74 107.3H93.836a1.897 1.897 0 0 1-1.894-1.894c0-1.043.85-1.894 1.894-1.894h11.904c1.044 0 1.894.85 1.894 1.894s-.85 1.894-1.894 1.894zM85.565 107.3h-.232a1.897 1.897 0 0 1-1.894-1.894c0-1.043.85-1.894 1.894-1.894h.232c1.044 0 1.894.85 1.894 1.894s-.89 1.894-1.894 1.894z"/><path fill="#728dbe" d="M96 86.203a6.161 6.161 0 0 0-5.14 2.744c-.58.85-.387 2.048.502 2.628.31.193.696.31 1.082.31.619 0 1.198-.31 1.546-.812.773-1.121 2.28-1.43 3.401-.657.27.154.464.386.657.657.348.502.928.811 1.546.811.387 0 .734-.116 1.082-.309.85-.58 1.082-1.778.503-2.628a6.28 6.28 0 0 0-5.18-2.744z"/><path fill="#728dbe" d="M105.66 85.159c-3.633-5.333-10.899-6.725-16.232-3.092a11.76 11.76 0 0 0-3.092 3.092c-.58.85-.386 2.048.503 2.628.309.232.695.348 1.082.348.618 0 1.198-.31 1.546-.812 2.473-3.594 7.381-4.56 10.976-2.087a7.662 7.662 0 0 1 2.087 2.087c.58.85 1.739 1.082 2.628.541.85-.618 1.082-1.777.502-2.705z"/><rect width="38" height="8.75" x="7.5" y="58.741" fill="#728dbe" ry="4.375"/><rect width="38" height="8.75" x="7.5" y="91.625" fill="#728dbe" ry="4.375"/><rect width="38" height="8.75" x="7.5" y="124.51" fill="#728dbe" ry="4.375"/><rect width="38" height="8.75" x="146.5" y="58.741" fill="#728dbe" ry="4.375"/><rect width="38" height="8.75" x="146.5" y="91.625" fill="#728dbe" ry="4.375"/><rect width="38" height="8.75" x="146.5" y="124.51" fill="#728dbe" ry="4.375"/><rect width="38" height="8.75" x="7.5" y="58.736" fill="#728dbe" ry="4.375" transform="matrix(0 1 1 0 0 0)"/><rect width="38" height="8.75" x="7.5" y="91.62" fill="#728dbe" ry="4.375" transform="matrix(0 1 1 0 0 0)"/><rect width="38" height="8.75" x="7.5" y="124.5" fill="#728dbe" ry="4.375" transform="matrix(0 1 1 0 0 0)"/><rect width="38" height="8.75" x="146.5" y="58.741" fill="#728dbe" ry="4.375" transform="matrix(0 1 1 0 0 0)"/><rect width="38" height="8.75" x="146.5" y="91.625" fill="#728dbe" ry="4.375" transform="matrix(0 1 1 0 0 0)"/><rect width="38" height="8.75" x="146.5" y="124.51" fill="#728dbe" ry="4.375" transform="matrix(0 1 1 0 0 0)"/></svg>