<svg xmlns="http://www.w3.org/2000/svg" viewBox="0 0 192 192"><defs><clipPath id="a"><rect width="153" height="153" x="19.5" y="19.5" fill="none" rx="10"/></clipPath></defs><g clip-path="url(#a)"><rect width="153" height="153" x="19.5" y="19.5" fill="#56595b" rx="10"/><path fill="#fff" d="M173.24 173.24H18.76V18.76h154.48Zm-150.15-23c-.1 1.58-.16 3-.29 4.36a2.46 2.46 0 0 0 1.41 2.46c1.49.43 3.25 1.09 4.59-.66a6.89 6.89 0 0 1 2.09-1.79 6.17 6.17 0 0 1 2.64-.62c.19 0 .59 1.16.56 1.77a40.31 40.31 0 0 1-.53 5c-.41 2.46-.94 4.9-1.41 7.32a5.46 5.46 0 0 1 1.66.84 25.28 25.28 0 0 1 1.84 2.65l1.23-.89c.62.27 1.35.85 1.64.68 1.85-1.11 3.72-.58 5.62-.33a3.71 3.71 0 0 0 3.06-.57c1.08-.86 2.31-1.54 3.43-2.28l-.21-1.54c1.76-.16 4.8 1.49 5.79 2.79.6.79 1.19 1.75 2.61 1.37 1.86-.5 3.78-.74 5.68-1.09 1.12-.21 2.47-.9 3.3-.51a3.82 3.82 0 0 0 2.91.06c.81-.18 1.64-.28 2.54-.43l-1.18-2.11.45-.29a26.35 26.35 0 0 1 2.16 2.58c.71 1.1 1.42 1.89 2.84 1.16.16-.08.43.07.83.15l-1 1.1c.34.1.58.26.79.22 4-.64 8.11-.59 12-1.84 1.27-.4 2.59-.65 3.86.41a2.32 2.32 0 0 0 2.57.67c1.49-.54 3.27-1 4.74.41.14.13.49.1.73.06 2.78-.45 5.59-.82 8.34-1.41 3.91-.83 4.43-.74 7.27.11a11.76 11.76 0 0 0 4.73.27 24.8 24.8 0 0 0 5.55-1.45 3.25 3.25 0 0 1 3.66.59 3.31 3.31 0 0 0 1.77.67c1.53.18 3.11.09 4.61.39 3.24.66 3.91.35 5.08-2.59.64-1.61 1.42-3.16 2.14-4.74l.66.27-3.05 7.29c.27.13.45.28.62.28 1.61 0 3.24-.09 4.84 0 2.52.19 3.94-1.51 3.19-3.93a10.18 10.18 0 0 1-.2-1.58l.54-.19c.3.49.83 1 .86 1.46.12 2 1.09 2.77 3 2.55l1.68-3.52.39.15c0 .43 0 .87.08 1.3s.05.85.09 1.39c.85-.37 1.56-.7 2.29-1a1.81 1.81 0 0 1 1-.22c1.13.25 4.23-.58 4.74-1.5 1.47-2.67 3.49-5.09 4-8.24.06-.42.28-1.17.45-1.17 1.72-.06 1.18-1.39 1.3-2.27a44.6 44.6 0 0 0 .42-4.61 14.58 14.58 0 0 0-.35-2.69c-.06-.36-.33-.7-.34-1.05-.12-3.26-.19-6.51-.29-9.77s-.22-6.51-.34-9.77c0-.91-.09-1.82-.13-2.73q-.36-7.26-.7-14.53c.66.06 1 0 1.06-.17a22.21 22.21 0 0 0 .92-5c-.08-3.13-.51-6.25-.85-9.37a27.19 27.19 0 0 0-.76-4.68c-.79-2.75-1.89-5.42-2.65-8.18a11 11 0 0 1-.22-4.05c.29-2.55.87-5 1.23-7.59.17-1.22-.44-2.67 1.26-3.29.11 0 .2-.23.22-.37.32-2.1.75-4.19.91-6.3.16-2.31 0-4.65.12-7 .34-5-.28-9.76-3.17-14a1.59 1.59 0 0 1-.24-.67c-.41-3.66-.82-7.31-1.2-11a1.85 1.85 0 0 0-1.3-1.76c-1.37-.54-2.64-1.34-4-2a2.36 2.36 0 0 0-1.19-.09c-.93.11-2 .51-2-1.09l-3.39 2.15-.36-.41 2.49-2.24-18.81.9-.72 2.54-.5-.08L137 23l-3.27-.15-.06-.55 3-.41c-1.69-.25-3.42-.43-5.1-.8a12.46 12.46 0 0 0-5.6-.32 6.3 6.3 0 0 1-3-.08c-2.22-.61-4.38-1-6.61-.09-.63.25-1.46.76-1.75-.5 0-.12-.54-.2-.82-.18a24.11 24.11 0 0 0-2.81.29 63.2 63.2 0 0 1-12.67.95c-2.12 0-4.24.56-6.36.6-6.27.12-12.54.12-18.8.13-.79 0-1.57-.31-2.35-.32-2.84-.05-5.5-2.05-8.46-.78a.62.62 0 0 1-.58-.08c-.67-.74-1.32-.28-2 0-1.91.66-3.81 1.49-5.66-.21-.24-.23-.83-.14-1.24-.09A32.4 32.4 0 0 1 48 21c-1.08 0-2.14-.58-3.25 0a17.63 17.63 0 0 1-3.86 1.83c-2.29.49-3.81 2.06-5.53 3.34a12.8 12.8 0 0 0-4.49 5.26C29.34 35 27.49 38.49 25.67 42c-1.7 3.23-3.65 6.35-3 10.26a7.9 7.9 0 0 1 0 2c-.22 2.12-.53 4.24-.68 6.37 0 .52.4 1.08.63 1.62l.52-.09c-.13 1.13-.31 2.26-.39 3.39a14.32 14.32 0 0 0 0 3.07c.18 1.31.89 2.61.8 3.88a32.12 32.12 0 0 1-1.22 6.81c-1.34 4.52-1 9.21-1.25 13.78-.29 5.19-.49 10.42.59 15.68.92 4.46.17 9.2 1.07 13.76.49 2.52.91 5.06 1.37 7.59.16.85.48 1.74-.91 1.87-.18 0-.4.49-.45.77-.63 4-1.23 7.93-1.85 12l1.1.24c-1.57 1.83.17 3.64-.28 5.42Zm-.16-105.52.36.09L30.36 31l-1.81-.43c4.09-2.19 3.93-6.11 5.39-9.22-3.2 0-4.94 1.69-6.23 4.16a20.12 20.12 0 0 1-3.36 5.05c-1.83 1.81-2.08 3.88-2 6.15.15 2.69.39 5.35.58 8.01Zm3.23 120.38 1-2.7c.91 1.75-.73 3.16-.44 5.16l4.49-2.5c.44.76-1.62 1.39.4 2.11l1.77-12.56c-3.56 2.28-6.36 5.21-10.54 3.66-1.07 1.4.29 2.59.38 3.88.11 1.05 1.91 1.98 2.94 2.95Zm143.61-90.28c-2.29 1.43-1.59 8.84 1.3 11-.43-3.64-.86-7.29-1.3-11ZM30.87 20c-.8.07-1.55.38-2 .14-1.56-.83-2.47-.06-3.36 1.05-.57.7-1.19 1.35-1.73 2.06-.17.21-.31.68-.2.81a1.93 1.93 0 0 0 1 .65 1.37 1.37 0 0 0 .95-.37C27.29 22.93 29 21.5 30.87 20Zm7.5.41-.15-.41c-1.06.32-2.64.31-3 1a29.67 29.67 0 0 0-2.07 5.47 15.68 15.68 0 0 0 3.58-2.37A11.19 11.19 0 0 0 38 22.51l-1.27-.2a5.76 5.76 0 0 1 .65-1.17 5 5 0 0 1 .99-.75Zm18.15 150.8c-3.21-2.79-5.5-2.7-8.63 0ZM161.53 23l4.11 2.11.43-.3a29.15 29.15 0 0 0-1-3.07 1.6 1.6 0 0 0-1.18-.82 2.63 2.63 0 0 0-1.43.75 6.86 6.86 0 0 0-.93 1.33ZM20.92 118.7v10.88c1.08-1.02.97-6.58 0-10.88ZM172.33 129c-.17-3.8.56-7.26-.78-10.63-.46 3.4-.2 9.63.78 10.63Zm-3-93.41c0-2.2 1.49-4.69-.87-6.45-1.48 1.07-.6 2.62-.61 4.1l1-.69Zm-37.04 135.79-.06-.41a8.91 8.91 0 0 1-1.1-.7c-1.23-1.05-2.45-.67-3.69-.05l-2.28 1.16Zm38.52-93.93h.41v-9c-1.79 2.84-.33 5.95-.41 9Zm-90.9-56v-.57l-10.76-.77v.49ZM71.33 170l-6.43 2.06c2.46.4 4.8.35 6.43-2.06ZM20 59.63c1.79-3.87 2-5.07.9-6.4 0 .71.22 1.72-.15 2.05-1.51 1.33-.47 2.92-.75 4.35Zm62.15-38.87V21h8.32v-.19Zm-54.69 3.77-4 1.16.17.87c1-1 1.58-.75 1.59 1.13ZM102 19.87v.46l8.74-.95-.06-.47Zm59.72.61v-.54l-6.22 1.19.11.56Zm-22.87.42.07.46 5.51-.89c-1.9.03-3.89-.84-5.6.43ZM164.46 168l-3.87 1.72c1.87.52 3.41.69 3.87-1.72Zm3.64.75c1.39-1.25 3.26-2.22 3.4-4.46ZM20.71 71.05h-.55v4.67h.21Zm-.15-21.95.22.06v-7.77h-.22Zm150.81-9.68h-.35c.15 2.15.31 4.3.46 6.45h.31ZM22.16 167.06l-1.31-2.79c-.34 1.28-.67 2.54 1.31 2.79Z"/><path fill="#fff" d="M74.13 145.8c0 .19 0 .43-.06.58a11 11 0 0 1-.75 1.08 4.47 4.47 0 0 1-.08-1.2c.65-3 .07-1-.81-3.51-2.77.84-5.51 2.17-9 1.18l2.87-1.73a11.28 11.28 0 0 0-2.92-1.08 17.74 17.74 0 0 0-4 .35c-3.26.46-6.58 1.09-9.71-.15-2-.79-3.66-.24-5.48.13-.66.13-1.35.15-2 .22l-.11-.37c.66-.21 1.31-.45 2-.63 2.51-.68 5.06-1.24 7.52-2.07a17.9 17.9 0 0 0 3.32-2l-2.79-3 .41-.63c2.33 2.46 4.85 4.41 8 3.57L64.1 131a27 27 0 0 1 1.87-2.7 3.28 3.28 0 0 1 1.79-.92c-1.81 3-4.6 5.31-5.93 8.87l3.59-1.63-.74 1.38c1.56-.09 3.26-2.13 2.82-2.82l6.06-4.49-1.1 2.76c.3-.16.78-.26.85-.49.61-1.95 2.68-2.3 3.82-3.62a3.77 3.77 0 0 0 .5-2.16c0-.22-.56-.65-.89-.67-1.12-.1-1-1.1-1.36-1.71.52-.05 1-.13 1.55-.13a3.86 3.86 0 0 1 .91.2c.25-.75.25-1.27-.78-1-.19 0-.36.17-.55.2-2.33.36-3.07-.34-2.91-2.71l7.35-2c-3.19-3.93-5.3-8.12-7.55-12.24l.39-.26 5.9 7.28.42-.29-2.33-4.85-.27.15.27-2.21c1.87 1 3.45-.29 4.36-1.33s1.17-3.11 1.78-5h-4.1a3.94 3.94 0 0 1-1.22-.53c.33-.3.61-.76 1-.86 1.2-.34 2.44-.55 3.88-.85-1.32-.91-2.93.16-4-1.16h4.36l1.37-2.72-3.15.78c.38-1.07.66-1.84 2-1.43 1.13.36 3.41-.87 3.92-1.94a2.57 2.57 0 0 0 0-.84c.06-1.48.12-3 .2-4.75-.63-.46-1.54.07-2.24.66-.54.45-.74 1.34-1.71.65-.09-.07-.58.29-.77.54-.38.51-.68 1.08-1 1.63l-.71-.61 1.57-2.23-6.69.43-.08-.52 9-1.93c-1.12-1.49-.13-2.37.46-3.38a19.44 19.44 0 0 0 1.31-2.72 6.2 6.2 0 0 0 0-1.72l1.49-3.32c1.21.7 1.9.26 2-1.59-1.71.53-3.4.7-4.74 2.18-1.7 1.89-3.73 3.48-5.85 5.41a3.74 3.74 0 0 1 .13-.76 39.32 39.32 0 0 1 8.66-9.58.79.79 0 0 0 .22-.79c-.86.64-1.68 1.32-2.57 1.91s-1.59.7-2-.57c2.7 0 3.85-2.44 5.78-3.64l-2 .88-.27-.34c1-1.27 3-2 2.64-4.06l-5.18 1c0-2.1 1.7-1.58 2.59-2.31l-.81-3.09.28-.22.47 1.11.37-.22-.07-1.5 1.38 1c.67-2.49-.37-4.45-1.53-6.39-1-1.75-2-3.53-3.07-5.29l.39-.36c.93.94 1.92 1.81 2.77 2.81 1.82 2.13 3.57 4.32 5.34 6.49a3.31 3.31 0 0 1 .46.73c1.19 2.84 1.19 2.83 4.06 2.07a25.71 25.71 0 0 1 3-.65 2.3 2.3 0 0 1 1.35.46C98.41 59 95 61.86 96 67.79l2.29-2 .33.09q-.47 2.35-.93 4.74l2 .78-.62 1.5c1.48-.4 2.54-.14 3 1.43l3-3.21.68.47-3.38 7.06 1.27.35-1.1 1.18 1.83.15c-1.34 1.76-2.6 3.44-3.88 5.1-.66.85-1.82 1.42-.41 2.79.7.67.81 2.06 1 3.15s.52 1.15 1.36 1c.6-.14 1.22-.18 1.84-.27l-.8-2.08.23-.27a7.84 7.84 0 0 1 .86.66c.74.68 1 2.15 2.55 1.45 1-.42 2-.7 3.24-1.16l.17 1.11h2l1.63-1.55.33.3c-.62 1.8-2.25 2.88-3.42 4.28 1.06.8 1.06.8-1.57 2.45a6.56 6.56 0 0 0 1.33.69 11.28 11.28 0 0 0 1.75.18l-1.11 1.63c.86 1.77 1.83 3.75 2.8 5.73l-.5.35a7.54 7.54 0 0 1-.8-1.08c-.81-1.6-1.58-3.22-2.35-4.82-3.89 1.25-5.64 2.89-6 5.8L107 104l.45 1.21 1.73-1.21.31.25a11 11 0 0 1-.91 1.22c-.41.42-.93.73-1.36 1.13-.8.74-1.38.88-1.48-.48-1.2.64-1.36 1.48-.46 2.81l9.4-2.74.15.31a25.28 25.28 0 0 0-2.58 1.36c-.47.32-1.87-.07-1.21 1.34a2.41 2.41 0 0 1-.68.41c-1.3.49-2.41 1.5-3.91 1.43a1.18 1.18 0 0 0-.47.17l.24 1.82 2.81-.38.13.47a3.77 3.77 0 0 1-.86.57c-1 .32-2.09.51-3.09.89-.27.1-.36.67-.62 1.19l3.7-.55.16.59-6.45 2.71.16.48c1.55.37 3.4-.73 4.95.72l4.82-1.18c-.25.6-.35.84-.44 1.09l-5.7 1.46.11.38c.92-.25 1.87-.44 2.77-.75s1.85-.75 2.78-1.14c2.23-.2 2.62-.54 3.11-2.68a6 6 0 0 1 1.06 1.73c.44 2.07.71 4.18 1 6.27-.15-.36-.31-.7-.44-1.05-.45-1.3-.88-2.6-1.4-4.14l-8 3.09c.24 1.49.94 1.62 2.11 1.53a49.11 49.11 0 0 1 5.42.1l.11.57-1.35 1.21c.34 0 .64.12.84 0 .9-.43 1.77-.91 2.65-1.38l.82.35.17-.33.64 1.47 2.52-.45 1.61 2.73.34-.15-.4-2.1.26-.12.64.74 2.75-2.39c.65-.56 1.29-.92 1.86.77l2.19-2.9.43.41-5.12 5.53.64.16-1.72 3.93.23.27 1.63-1.08a10.14 10.14 0 0 1-1.33 1.94 5.8 5.8 0 0 1-1.6.73l.51 2.17.84.3c.58-1.74 1.16-.7 1.76.11l2.34-1.81.19 1.29 1.42-.14.22-1.21.53-.27a8.86 8.86 0 0 0 .47.92c1.17 1.85 1.16 2.52 3.37 0l-1.14-2.07.43-.3 2.06 1.82c1.24-1.36 2.46-2.71 3.7-4.05a3.34 3.34 0 0 1 .88-.77 3.25 3.25 0 0 1 1.05-.14c-.08.33-.05.77-.25 1-1.51 1.58-3.07 3.1-4.69 4.72a23.91 23.91 0 0 0 2.48 2.79c1.39 1.18 3.08.3 4.63.32s3.15-.11 4.72-.07c.35 0 .68.44 1.25.83l-4.84.85.46.13c-2.24.83-16.09 1.3-21.19.72-.66 1.43.64 3.34-.78 4.58l-.48-.08-.49-5c-4.22 0-8.5-.28-13 .87-.49-.69-1.27-1.09-2.33-.09-.19.19-.91-.12-1.35-.28-1.73-.64-3.45-1.31-5.17-2a3 3 0 0 0-.86 0c.37 1.25.71 2.42 1.05 3.59l-.57.19a23.09 23.09 0 0 1-1.08-2.58c-.4-1.41-1.53-1.81-2.63-.89a2.2 2.2 0 0 1-1.11.28c-.77.09-1.55 0-2.3.19a18.51 18.51 0 0 1-1.86.63c-3.2.31-6.42.53-9.71.79-.72 1.44-1 1.44-2.37-.3l-.37 2.62c-.74-.89-3.16 0-2-2.46l-3.51.87.17 1 .26-.26c.29.29.84.59.83.87Zm43-19.05c-.77.52-1.5 1-2.24 1.52a1.84 1.84 0 0 0-.6 2.89 9.33 9.33 0 0 1 .45.93c.63-.32 1.4-.47 1.74-.93 1.11-1.5 1.75-3.16.65-4.41Zm-10.14 0c-.26-1-.5-1.81-1.76-1.17-.24.12-.58 0-.87.07l-4.29.55c3.34 2.04 3.34 2.04 6.93.51Zm4.81 13.58c1.73-.16 3.34-.26 4.93-.46s3.15-.48 4.72-.73l-.07-.42a56.71 56.71 0 0 0-6.39.07c-1.08.08-2.68-.38-3.19 1.5Zm3.11-3.11.12.46H123l-1.14-1.44-1.38.39c-.17-.88 1.59-1.48 0-2.16a12.87 12.87 0 0 1-.37 1.25 5.58 5.58 0 0 1-.51.88l-.51-.84a1.68 1.68 0 0 1-2.81.35Zm-11.41 1.95a8.39 8.39 0 0 0 6.17 1.25c.55-.13 1-.78 1.53-1.25Zm5.09-8.47-4.59 2.5a3.91 3.91 0 0 0 .73.11l3-.57c1.76-.35 1.76-.36.86-2.08ZM105 119.8c-3.51-.25-6 .78-6.18 2.5Zm-18.72-8.13-.11-.47-2.76-.72-1.36 2.52Zm15.55-14c3.54-.58 4.09-.94 4-2.57-1.3.9-2.96.98-4.03 2.55Zm-22.37 9.43-.4.38c.5.7.87 1.64 1.55 2 .37.2 1.27-.56 2.25-1Zm7.47 15.9-3.83 1.54.17.53h3Zm4.82-45-1.28-1-.24 4c1.89-.33 1.21-1.95 1.52-3.09Zm-25.16 65.14.12.47 5.52-1.7-.13-.47c-1.99.01-3.73.94-5.51 1.7Zm46-17.83-.06-.16h-4.47l1.09 1.37Zm-27.14-18.8c3.32-1.17 3.55-1.37 2.86-2.56-1.03.73-2.77.57-2.85 2.56Zm-4.91 16.36 2.92-1.87c-2.46-.63-3.38-.07-2.91 1.87Zm23.26 6.95-.22-.74c-1.33.48-2.66.94-4 1.46-.17.07-.3.53-.25.76a.81.81 0 0 0 .6.47c.29 0 .8-.38.78-.48-.34-1.31.66-.81 1.2-.95s1.28-.34 1.9-.52Zm-.47-6.24-.17-.49-5.47 1.91.24.66Zm-16-25.79c-1.72 0-2.18 1.22-1.46 3.58Zm16.25-23.56c-1.93 1.62-3 3.82-2.25 4.41Zm-14.2 1-.52-.23-1.56 3.57.75.3Zm16.48 48-3.8 1.74c3.65-.11 4.09-.32 3.86-1.74Zm-21 4c-1.61-.77-2.23.1-2.75 1.12l.24.39Zm25.77 3.85c.35-1 2.3-.92 1.23-2.58-.56.77-2.27.7-1.15 2.63Zm-28.46 5.58.27.34h1.96v-1.84Zm22.2-8.11.35 1.1 2.86-1.45-.17-.38Zm-5.55-51.24.4-.06 1.31-2.15-.38-.36a13.77 13.77 0 0 0-1.61 1.53c-.13.17.17.73.28 1.04ZM84.05 116l2.34-2.6c-1.45.07-1.58 1.68-2.34 2.6Zm.47-16.56-1 3.44.54.15a3.78 3.78 0 0 0 .46-3.55Zm15.55 36 .22.53 2.28-.33.05-.58a3.84 3.84 0 0 0-1.32-.29 4.14 4.14 0 0 0-1.23.73Zm2.32-18.56c.67-.45 2-.22 1.48-1.75-.87.3-1.87.32-1.48 1.81Zm-5.33 4.48-.44-.37-1.62 2.24.64.44Z"/></g></svg>