<?xml version="1.0" encoding="UTF-8"?>
<svg version="1.1" viewBox="0 0 192 192" xml:space="preserve" xmlns="http://www.w3.org/2000/svg">
	 <rect class="a" x="20" y="20" width="152" height="152" rx="10" fill="#fff"/><path d="m51.196 62.217h22.762l22.448 22.906 21.786-22.906h22.612v67.566h-22.474v-22.474l-22.474 22.474-21.97-21.97v21.97h-22.69z" fill="none"/><path d="m62.541 129.78v-22.422h-11.345v22.422z" fill="#56595b"/><path d="m62.541 107.36h11.345v22.422h-11.345z" fill="#ff837d"/><path d="m95.856 107.56h22.474l-22.474 22.218z" fill="#98dc9a"/><path d="m51.196 101.76h22.69v5.5981h-22.69z" fill="#fff"/><path d="m51.196 96h22.69v5.7625h-22.69z" fill="#56595b"/><path d="m51.196 90.382h22.69l-0.07179 5.6185h-22.618z" fill="#fff"/><path d="m51.196 85.015h22.69v5.4384h-22.69z" fill="#56595b"/><path d="m51.196 62.217 22.798 22.798h-22.798z" fill="#98dc9a"/><path d="m73.958 62.217v22.762l-22.762-22.762z" fill="#56595b"/><path d="m95.856 85.123h-21.97v-22.906z" fill="#f9de81"/><path d="m95.856 85.123v22.441l-21.97-0.20374v-22.237z" fill="#9abeff"/><path d="m73.886 107.36 21.97 22.422v-22.218z" fill="#56595b"/><path d="m95.856 85.123h22.474v-22.906z" fill="#ff837d"/><path d="m95.856 85.123v11.221l11.109 0.11694v-11.338z" fill="#56595b"/><path d="m106.97 85.123h11.365l0.20103 11.221-11.566-1.2e-5z" fill="#fff"/><path d="m95.853 96.344h11.112v11.221h-11.112z" fill="#fff"/><path d="m106.98 96.472v11.08h11.542v-11.197z" fill="#56595b"/><path d="m118.33 107.56h22.474v22.218h-22.474z" fill="#9abeff"/><path d="m118.33 96.344h22.474v11.221h-22.474z" fill="#f9de81"/><path d="m118.33 85.123h22.474v11.221h-22.474z" fill="#56595b"/><path d="m118.33 85.123v-22.906h22.474v22.906z" fill="#56595b"/><path d="m118.33 80.441 18.224-18.224h-9.4362l-8.7879 8.7879z" fill="#fff"/><path d="m123.01 85.123 17.792-17.792v9.2201l-8.5718 8.5718z" fill="#fff"/><circle cx="129.57" cy="118.67" r="6.1121" fill="#fff"/><path d="m118.33 85.123h22.474v11.221h-22.474z" fill="#56595b"/><path d="m118.33 80.441 18.224-18.224h-9.4362l-8.7879 8.7879z" fill="#fff"/></svg>
