<?xml version="1.0" encoding="UTF-8" standalone="no"?>
<svg
   xmlns:dc="http://purl.org/dc/elements/1.1/"
   xmlns:cc="http://creativecommons.org/ns#"
   xmlns:rdf="http://www.w3.org/1999/02/22-rdf-syntax-ns#"
   xmlns:svg="http://www.w3.org/2000/svg"
   xmlns="http://www.w3.org/2000/svg"
   xmlns:sodipodi="http://sodipodi.sourceforge.net/DTD/sodipodi-0.dtd"
   xmlns:inkscape="http://www.inkscape.org/namespaces/inkscape"
   sodipodi:docname="manga_reader.svg"
   inkscape:version="1.0.1 (3bc2e813f5, 2020-09-07)"
   version="1.1"
   id="svg2"
   viewBox="0 0 192 192"
   height="192"
   width="192"
   inkscape:export-filename="/home/jphilippe/inkscape/icônes/delta-github/png/manga_reader.png"
   inkscape:export-xdpi="96"
   inkscape:export-ydpi="96">
  <sodipodi:namedview
     inkscape:document-rotation="0"
     inkscape:window-maximized="1"
     inkscape:window-y="30"
     inkscape:window-x="1920"
     inkscape:window-height="1022"
     inkscape:window-width="1680"
     units="px"
     showgrid="false"
     inkscape:current-layer="layer1"
     inkscape:document-units="px"
     inkscape:cy="84.252026"
     inkscape:cx="40.932515"
     inkscape:zoom="0.70710678"
     inkscape:pageshadow="2"
     inkscape:pageopacity="0.0"
     borderopacity="1.0"
     bordercolor="#666666"
     pagecolor="#ffffff"
     id="base"
     inkscape:snap-bbox="false"
     inkscape:object-paths="true"
     inkscape:snap-nodes="true"
     showguides="true"
     inkscape:guide-bbox="true"
     inkscape:snap-object-midpoints="true"
     inkscape:snap-center="true"
     inkscape:snap-global="false"
     inkscape:snap-intersection-paths="true"
     inkscape:snap-smooth-nodes="true"
     inkscape:snap-midpoints="true" />
  <defs
     id="defs4" />
  <metadata
     id="metadata7">
    <rdf:RDF>
      <cc:Work
         rdf:about="">
        <dc:format>image/svg+xml</dc:format>
        <dc:type
           rdf:resource="http://purl.org/dc/dcmitype/StillImage" />
        <dc:title></dc:title>
      </cc:Work>
    </rdf:RDF>
  </metadata>
  <g
     transform="translate(0,-860.36216)"
     id="layer1"
     inkscape:groupmode="layer"
     inkscape:label="Calque 1">
    <rect
       style="fill:#ffb0ac;fill-opacity:1;fill-rule:evenodd;stroke:none;stroke-width:0.993464;stroke-opacity:1"
       width="152"
       height="152"
       x="20"
       y="880.36218"
       rx="9.9346409"
       id="rect922"
       ry="9.9346409" />
    <path
       id="path924"
       style="font-style:normal;font-variant:normal;font-weight:bold;font-stretch:normal;font-size:78.0749px;line-height:1.25;font-family:aleo;-inkscape-font-specification:'aleo Bold';letter-spacing:0px;word-spacing:0px;fill:#ffffff;fill-opacity:1;stroke-width:1.84956"
       d="m 59.513902,929.62315 c 0.05572,1.77475 -0.115595,3.56543 0.09254,5.33015 0.306089,1.91017 2.15164,3.20119 4.008722,3.29434 0.501334,0.12841 1.009575,0.22668 1.521315,0.30352 0,11.87748 0,23.75498 0,35.63246 -1.60657,0.31529 -3.477001,0.38857 -4.619615,1.7364 -1.213517,1.26819 -1.001684,3.11822 -1.002959,4.72271 0,1.45469 0,2.90938 0,4.36407 8.267293,0 16.534587,0 24.801879,0 -0.03939,-2.33944 0.07828,-4.68733 -0.05738,-7.02174 -0.217243,-1.97467 -2.075975,-3.39671 -3.992628,-3.48696 -0.869664,-0.12025 -1.739327,-0.2405 -2.608991,-0.36074 0,-7.38264 0,-14.76528 0,-22.14791 4.287428,7.94359 8.52563,15.91539 12.843704,23.84141 1.156941,1.94155 3.485372,2.93936 5.698204,2.73903 2.345729,0.19751 4.735387,-1.07344 5.786177,-3.19809 4.1154,-7.74358 8.23358,-15.48572 12.35005,-23.22874 0,7.33143 0,14.66286 0,21.9943 -1.68414,0.34099 -3.57701,0.16249 -5.03218,1.21964 -1.34045,0.90591 -1.75261,2.61752 -1.62681,4.14863 0,1.83373 0,3.66744 0,5.50117 8.26729,0 16.53458,0 24.80188,0 -0.0394,-2.33944 0.0783,-4.68733 -0.0574,-7.02174 -0.21088,-1.90974 -1.96487,-3.31766 -3.81994,-3.47571 -0.56447,-0.0548 -1.10419,-0.25836 -1.67123,-0.31648 0,-11.88366 0,-23.76731 0,-35.65097 1.35392,-0.31964 2.8589,-0.31595 3.99918,-1.22126 1.32463,-0.9391 1.66933,-2.65858 1.54937,-4.18625 0,-1.80213 0,-3.60427 0,-5.40641 -5.1641,0.0194 -10.33074,-0.0387 -15.49326,0.0289 -1.18355,0.0368 -2.56318,0.18195 -3.45279,1.14771 -1.17596,1.28388 -1.77092,2.97691 -2.6531,4.45932 -4.93057,9.23954 -9.90058,18.45898 -14.806926,27.71084 -1.583376,-3.17609 -3.353117,-6.25909 -5.008395,-9.39922 -3.886847,-7.18569 -7.725315,-14.40089 -11.642323,-21.56818 -0.743438,-1.25121 -1.999165,-2.32331 -3.526434,-2.29808 -3.20724,-0.17488 -6.424131,-0.0378 -9.635444,-0.0813 -2.248412,0 -4.496825,0 -6.745237,0 0,0.63173 0,1.26345 0,1.89517 z" />
  </g>
  <style
     type="text/css"
     id="style853">
	.st0{fill:#FFFFFF;}
</style>
  <style
     type="text/css"
     id="style853-9">
	.st0{fill:#FFFFFF;}
</style>
  <style
     type="text/css"
     id="style853-3">
	.st0{fill:#FFFFFF;}
</style>
  <style
     type="text/css"
     id="style853-5">
	.st0{fill:#FFFFFF;}
</style>
</svg>
