<?xml version="1.0" encoding="UTF-8" standalone="no"?>
<svg
   width="192"
   height="192"
   viewBox="0 0 192 192"
   version="1.1"
   id="svg14"
   sodipodi:docname="mario_kart_tour.svg"
   inkscape:version="1.2 (dc2aedaf03, 2022-05-15)"
   inkscape:export-filename="C:\Users\curly\Documents\Git\android\mario_kart_tour.png"
   inkscape:export-xdpi="96"
   inkscape:export-ydpi="96"
   xmlns:inkscape="http://www.inkscape.org/namespaces/inkscape"
   xmlns:sodipodi="http://sodipodi.sourceforge.net/DTD/sodipodi-0.dtd"
   xmlns="http://www.w3.org/2000/svg"
   xmlns:svg="http://www.w3.org/2000/svg"
   xmlns:rdf="http://www.w3.org/1999/02/22-rdf-syntax-ns#"
   xmlns:cc="http://creativecommons.org/ns#"
   xmlns:dc="http://purl.org/dc/elements/1.1/">
  <metadata
     id="metadata20">
    <rdf:RDF>
      <cc:Work
         rdf:about="">
        <dc:format>image/svg+xml</dc:format>
        <dc:type
           rdf:resource="http://purl.org/dc/dcmitype/StillImage" />
        <dc:title />
      </cc:Work>
    </rdf:RDF>
  </metadata>
  <defs
     id="defs18" />
  <sodipodi:namedview
     pagecolor="#ffffff"
     bordercolor="#666666"
     borderopacity="1"
     objecttolerance="10"
     gridtolerance="10"
     guidetolerance="10"
     inkscape:pageopacity="0"
     inkscape:pageshadow="2"
     inkscape:window-width="1884"
     inkscape:window-height="1052"
     id="namedview16"
     showgrid="false"
     inkscape:zoom="4.9166667"
     inkscape:cx="71.18644"
     inkscape:cy="87.661016"
     inkscape:window-x="36"
     inkscape:window-y="0"
     inkscape:window-maximized="1"
     inkscape:current-layer="svg14"
     inkscape:showpageshadow="0"
     inkscape:pagecheckerboard="0"
     inkscape:deskcolor="#d1d1d1" />
  <g
     id="g5"
     transform="matrix(5.5000002,0,0,5.5000002,7.9999968,7.9999968)"
     style="fill:#ff837d;fill-opacity:1">
    <g
       id="steering_x5F_wheel"
       style="fill:#ff837d;fill-opacity:1">
      <path
         inkscape:connector-curvature="0"
         style="fill:#ff837d;fill-opacity:1"
         d="M 16,0 C 7.164,0 0,7.164 0,16 0,24.836 7.164,32 16,32 24.836,32 32,24.836 32,16 32,7.164 24.836,0 16,0 Z m 0,4 c 5.207,0 9.605,3.354 11.266,8 H 4.734 C 6.395,7.354 10.793,4 16,4 Z m 0,14 c -1.105,0 -2,-0.895 -2,-2 0,-1.105 0.895,-2 2,-2 1.105,0 2,0.895 2,2 0,1.105 -0.895,2 -2,2 z M 4,16 c 5.465,0 9.891,5.266 9.984,11.797 C 8.328,26.828 4,21.926 4,16 Z M 18.016,27.797 C 18.109,21.266 22.535,16 28,16 c 0,5.926 -4.328,10.828 -9.984,11.797 z"
         id="path2" />
    </g>
  </g>
  <g
     id="g1273"
     transform="matrix(1.0143286,0,0,1.0143286,-1.3755465,-1.1407857)">
    <circle
       id="circle520"
       style="display:inline;fill:#ffffff;fill-opacity:1;fill-rule:evenodd;stroke:none;stroke-width:3.32388;stroke-linecap:butt;stroke-linejoin:miter;stroke-miterlimit:4;stroke-dasharray:none;stroke-opacity:1"
       cx="96"
       cy="102.68227"
       r="23.066332" />
    <path
       id="path2824"
       d="m 77.562347,108.22872 10.197156,-21.358933 8.267965,9.43926 8.267962,-9.43926 10.14222,21.358933 -6.59019,5.44305 -5.44677,-15.743582 -6.373222,7.571842 -6.373222,-7.571842 -5.510233,15.743582 z"
       style="fill:#ff837d;fill-opacity:1;stroke:none;stroke-width:0.688997"
       inkscape:connector-curvature="0" />
  </g>
  <circle
     style="fill:#ff837d;fill-opacity:1;fill-rule:evenodd;stroke:none"
     id="circle295"
     r="88"
     cy="-99.592926"
     cx="96" />
  <g
     id="g301"
     transform="matrix(4.9639927,0,0,4.9639927,16.576117,-179.01681)"
     style="fill:#ffffff;fill-opacity:1">
    <g
       id="g299"
       style="fill:#ffffff;fill-opacity:1">
      <path
         inkscape:connector-curvature="0"
         style="fill:#ffffff;fill-opacity:1"
         d="M 16,0 C 7.164,0 0,7.164 0,16 0,24.836 7.164,32 16,32 24.836,32 32,24.836 32,16 32,7.164 24.836,0 16,0 Z m 0,4 c 5.207,0 9.605,3.354 11.266,8 H 4.734 C 6.395,7.354 10.793,4 16,4 Z m 0,14 c -1.105,0 -2,-0.895 -2,-2 0,-1.105 0.895,-2 2,-2 1.105,0 2,0.895 2,2 0,1.105 -0.895,2 -2,2 z M 4,16 c 5.465,0 9.891,5.266 9.984,11.797 C 8.328,26.828 4,21.926 4,16 Z M 18.016,27.797 C 18.109,21.266 22.535,16 28,16 c 0,5.926 -4.328,10.828 -9.984,11.797 z"
         id="path297" />
    </g>
  </g>
  <circle
     style="fill:#ff837d;fill-opacity:1;fill-rule:evenodd;stroke:none;stroke-width:0.558694"
     id="circle303"
     r="20.112999"
     cy="-96.428925"
     cx="96" />
  <g
     id="g309"
     transform="translate(0,-195.59292)">
    <circle
       id="circle305"
       style="display:inline;fill:#ffffff;fill-opacity:1;fill-rule:evenodd;stroke:#dc505e;stroke-width:3.39278;stroke-linecap:butt;stroke-linejoin:miter;stroke-miterlimit:4;stroke-dasharray:none;stroke-opacity:1"
       cx="95.96994"
       cy="102.8446"
       r="23.544449" />
    <path
       id="path307"
       d="m 75.794133,108.91392 11.158462,-23.372475 9.047402,10.329118 9.047393,-10.329118 11.09836,23.372475 -7.21147,5.95619 -5.96025,-17.227766 -6.974033,8.285646 -6.974038,-8.285646 -6.029694,17.227766 z"
       style="fill:#dc505e;fill-opacity:1;stroke:none;stroke-width:0.75395"
       inkscape:connector-curvature="0" />
  </g>
</svg>
