<svg xmlns="http://www.w3.org/2000/svg" xml:space="preserve" viewBox="0 0 192 192"><rect width="152" height="152" x="20" y="20" fill="#9abeff" class="a" rx="10"/><path fill="#fff" fill-opacity=".5" d="M73.002 58.74v52.455s.847 3.82 4.188 3.04c3.341-.78 19.088-11.058 19.088-11.058s17.367 11.653 20.663 10.77c2.067-.554 2.057-4.088 2.057-4.088V57.627z"/><path fill="#fff" fill-opacity=".75" d="M73.002 40.471v52.455s.847 3.82 4.188 3.04c3.341-.78 19.088-11.058 19.088-11.058s17.367 11.653 20.663 10.77c2.067-.554 2.057-4.088 2.057-4.088V39.358z"/><path fill="#fff" d="M73.002 20v55.285s.847 3.82 4.188 3.04c3.341-.78 19.088-11.058 19.088-11.058s17.367 11.653 20.663 10.77c2.067-.554 2.057-4.088 2.057-4.088v-53.95z"/></svg>