<?xml version="1.0" encoding="UTF-8"?>
<svg version="1.1" viewBox="0 0 192 192" xml:space="preserve" xmlns="http://www.w3.org/2000/svg">
	 <rect class="a" x="20" y="20" width="152" height="152" rx="10" fill="#9abeff"/><path d="m73.002 58.74v52.455s0.84714 3.8192 4.1882 3.0396c3.3411-0.77958 19.088-11.058 19.088-11.058s17.367 11.653 20.663 10.77c2.0665-0.5537 2.0564-4.088 2.0564-4.088v-52.232z" fill="#fff" fill-opacity=".5"/><path d="m73.002 40.471v52.455s0.84714 3.8192 4.1882 3.0396c3.3411-0.77958 19.088-11.058 19.088-11.058s17.367 11.653 20.663 10.77c2.0665-0.55371 2.0564-4.088 2.0564-4.088v-52.232z" fill="#fff" fill-opacity=".75"/><path d="m73.002 20v55.285s0.84714 3.8192 4.1882 3.0396c3.3411-0.77958 19.088-11.058 19.088-11.058s17.367 11.653 20.663 10.77c2.0665-0.55371 2.0564-4.088 2.0564-4.088v-53.949z" fill="#fff"/></svg>
