<svg width="192" height="192" version="1.1" viewBox="0 0 192 192" xmlns="http://www.w3.org/2000/svg">
 <rect x="20" y="20" width="152" height="152" rx="9.9346" fill="#f8c18c" stroke-width="0"/>
 <path d="m101.18 142.5h4.7096c0.55228 0 1.4421-0.1198 1.9056-0.4171 0.55439-0.35562 0.93593-0.82647 1.2516-1.3413 0.28857-0.47068 0.4788-1.3253 0.4788-1.8776v-34.983c0-0.55228 0.10144-1.4362 0.24612-1.9692 1.1405-4.2016 2.9055-7.0294 5.1129-8.8839 0.42271-0.35513 1.2799-0.66808 1.7559-0.40285 0.31599 0.17607 0.56833 0.45396 0.77743 0.80104 0.28453 0.4723 0.42391 1.4031 0.10101 1.8393-0.0451 0.06092-0.49041 0.31107-0.9153 0.6624-1.52 1.2569-2.1662 3.2905-2.9849 5.1708-0.21963 0.50442 0.0209 0.98906 0.5679 1.0651 5.7212 0.79507 11.605-0.87705 17.865-8.2574 0.35723-0.42116 0.63778-1.2179 0.63778-1.7702v-13.082c0-0.55228-0.29026-1.341-0.66072-1.7506-7.9093-8.7444-17.749-11.11-25.916-4.1514-0.42036 0.35813-1.0762 0.96975-1.444 1.3814-4.7329 5.2961-6.2589 16.427-6.5837 20.71-0.04176 0.55061-0.0607 1.4457-0.0607 1.998v35.842c0 0.55228 0.44619 0.95968 0.99802 0.93863 1.4017-0.0534 3.8967-0.0209 4.9237 0.79325 0.41826 0.33157 0.49806 1.3562 0.16685 1.7838-0.9361 1.2084-3.8722 1.2152-5.4315 1.1258-0.55109-0.0316-0.99602 0.36461-0.99602 0.91689v0.82406c0 0.55228 0.21354 1.4023 0.59067 1.804 0.29923 0.31872 0.63792 0.57824 1.005 0.79514 0.47499 0.28066 1.3469 0.43515 1.8992 0.43515z" fill="#fff" stroke-width="0"/>
 <circle cx="124.39" cy="85.823" r="1.7673" fill="#56595b"/>
 <path d="m107.12 81.425c0.49542-1.0656 1.3231-2.2988 2.1439-3.1101 0.39188-0.38741 1.1902-0.86434 1.7352-0.85387 0.0444 8.53e-4 0.0888 0.0029 0.13301 0.0062 0.54452 0.04024 1.305 0.60849 1.4797 1.1237 0.0256 0.07552 0.0477 0.15227 0.0661 0.2289 0.1255 0.5245-0.30668 1.342-0.65956 1.7665-0.56093 0.67482-1.2713 1.4808-1.8196 2.4338-0.27484 0.47769-0.64282 1.3425-1.1154 1.6084-0.1702 0.09572-0.35785 0.16715-0.54994 0.20672-0.52958 0.10912-1.4128-0.33984-1.6625-0.82336-0.10751-0.2082-0.16958-0.43418-0.19565-0.66389-0.0619-0.54538 0.0878-0.98996 0.0878-0.98996z" fill="#4a4a4a" stroke-width="0"/>
 <path d="m90.822 142.5h-4.7096c-0.55228 0-1.4421-0.11981-1.9056-0.41711-0.55439-0.35562-0.93593-0.82647-1.2516-1.3413-0.28858-0.47068-0.4788-1.3253-0.4788-1.8776v-34.983c0-0.55228-0.10144-1.4362-0.24612-1.9692-1.1405-4.2016-2.9055-7.0294-5.1129-8.8839-0.42271-0.35513-1.2799-0.66808-1.7559-0.40285-0.31598 0.17607-0.56833 0.45395-0.77742 0.80104-0.28453 0.4723-0.42392 1.4031-0.10101 1.8393 0.04511 0.06092 0.49041 0.31108 0.91531 0.66241 1.52 1.2569 2.1662 3.2905 2.9849 5.1708 0.21963 0.50442-0.02093 0.98906-0.5679 1.0651-5.7212 0.79507-11.605-0.87705-17.865-8.2574-0.35724-0.42116-0.63778-1.2179-0.63778-1.7702v-13.082c0-0.55228 0.29026-1.341 0.66072-1.7506 7.9093-8.7444 17.749-11.11 25.916-4.1514 0.42037 0.35813 1.0762 0.96975 1.444 1.3814 4.7329 5.2961 6.2589 16.427 6.5837 20.71 0.04176 0.55061 0.0607 1.4457 0.0607 1.998v35.842c0 0.55228-0.44619 0.95968-0.99802 0.93863-1.4017-0.0534-3.8967-0.0209-4.9237 0.79326-0.41826 0.33156-0.49806 1.3562-0.16686 1.7838 0.93609 1.2084 3.8722 1.2152 5.4315 1.1258 0.55109-0.0316 0.99602 0.36461 0.99602 0.91689v0.82406c0 0.55228-0.21354 1.4023-0.59067 1.804-0.29922 0.31872-0.63792 0.57823-1.005 0.79514-0.47499 0.28066-1.3469 0.43515-1.8992 0.43515z" fill="#fff" stroke-width="0"/>
 <circle transform="scale(-1,1)" cx="-67.61" cy="85.822" r="1.7673" fill="#56595b"/>
 <path d="m84.875 81.425c-0.49541-1.0656-1.3231-2.2988-2.1439-3.1101-0.39188-0.38741-1.1902-0.86434-1.7352-0.85387-0.04443 8.53e-4 -0.08882 0.0029-0.133 0.0062-0.54452 0.04023-1.305 0.60849-1.4797 1.1237-0.0256 0.07552-0.04772 0.15227-0.06605 0.2289-0.1255 0.5245 0.30668 1.342 0.65956 1.7665 0.56093 0.67481 1.2713 1.4808 1.8196 2.4338 0.27484 0.47769 0.64282 1.3425 1.1154 1.6084 0.1702 0.09573 0.35785 0.16715 0.54994 0.20673 0.52959 0.10912 1.4128-0.33984 1.6625-0.82337 0.10751-0.2082 0.16958-0.43418 0.19565-0.66389 0.06189-0.54538-0.0878-0.98996-0.0878-0.98996z" fill="#4a4a4a" stroke-width="0"/>
 <path d="m112.21 32.877-26.351 22.577 11.123 1.0593-9.9976 13.176 23.438-19.465-11.52-0.99314z" fill="#fff" stroke-width="0"/>
</svg>
