<?xml version="1.0" encoding="UTF-8" standalone="no"?>
<svg
   xmlns:dc="http://purl.org/dc/elements/1.1/"
   xmlns:cc="http://creativecommons.org/ns#"
   xmlns:rdf="http://www.w3.org/1999/02/22-rdf-syntax-ns#"
   xmlns:svg="http://www.w3.org/2000/svg"
   xmlns="http://www.w3.org/2000/svg"
   xmlns:sodipodi="http://sodipodi.sourceforge.net/DTD/sodipodi-0.dtd"
   xmlns:inkscape="http://www.inkscape.org/namespaces/inkscape"
   version="1.1"
   id="svg2"
   xml:space="preserve"
   width="256"
   height="256"
   viewBox="0 0 256 256"
   sodipodi:docname="FO81A705418C6-2-192x192.ai"><metadata
     id="metadata8"><rdf:RDF><cc:Work
         rdf:about=""><dc:format>image/svg+xml</dc:format><dc:type
           rdf:resource="http://purl.org/dc/dcmitype/StillImage" /></cc:Work></rdf:RDF></metadata><defs
     id="defs6"><clipPath
       clipPathUnits="userSpaceOnUse"
       id="clipPath18"><path
         d="M 0,192 H 192 V 0 H 0 Z"
         id="path16" /></clipPath></defs><sodipodi:namedview
     pagecolor="#ffffff"
     bordercolor="#666666"
     borderopacity="1"
     objecttolerance="10"
     gridtolerance="10"
     guidetolerance="10"
     inkscape:pageopacity="0"
     inkscape:pageshadow="2"
     inkscape:window-width="640"
     inkscape:window-height="480"
     id="namedview4" /><g
     id="g10"
     inkscape:groupmode="layer"
     inkscape:label="FO81A705418C6-2-192x192"
     transform="matrix(1.3333333,0,0,-1.3333333,0,256)"><g
       id="g12"><g
         id="g14"
         clip-path="url(#clipPath18)"><g
           id="g20"
           transform="translate(166.7109,87.1836)"><path
             d="m 0,0 -25.461,38.165 -37.72,-20.975 26.987,-40.395 c 3.581,-6.978 10.842,-11.756 19.224,-11.756 11.931,0 21.603,9.672 21.603,21.603 C 4.633,-8.313 2.898,-3.676 0,0"
             style="fill:#87dca4;fill-opacity:1;fill-rule:nonzero;stroke:none"
             id="path22" /></g><g
           id="g24"
           transform="translate(50.9492,128.9585)"><path
             d="m 0,0 -27.044,-42.01 33.848,0.68 19.218,-25.512 36.398,1.191 27.553,41.839 -37.392,-0.772 -20.095,27.135 z"
             style="fill:#99bef9;fill-opacity:1;fill-rule:nonzero;stroke:none"
             id="path26" /></g><g
           id="g28"
           transform="translate(62.5474,74.332)"><path
             d="m 0,0 c 0,-11.835 -9.594,-21.429 -21.429,-21.429 -11.836,0 -21.43,9.594 -21.43,21.429 0,11.836 9.594,21.43 21.43,21.43 C -9.594,21.43 0,11.836 0,0"
             style="fill:#87ded5;fill-opacity:1;fill-rule:nonzero;stroke:none"
             id="path30" /></g><g
           id="g32"
           transform="translate(143.5684,115.6597)"><path
             d="m 0,0 c 0,-11.93 -9.672,-21.603 -21.603,-21.603 -11.93,0 -21.602,9.673 -21.602,21.603 0,11.93 9.672,21.602 21.602,21.602 C -9.672,21.602 0,11.93 0,0"
             style="fill:#fdc394;fill-opacity:1;fill-rule:nonzero;stroke:none"
             id="path34" /></g><g
           id="g36"
           transform="translate(89.8213,116)"><path
             d="m 0,0 c 0,-11.931 -9.67,-21.603 -21.601,-21.603 -11.931,0 -21.603,9.672 -21.603,21.603 0,11.93 9.672,21.602 21.603,21.602 C -9.67,21.602 0,11.93 0,0"
             style="fill:#99bef9;fill-opacity:1;fill-rule:nonzero;stroke:none"
             id="path38" /></g><g
           id="g40"
           transform="translate(116.3545,74.5)"><path
             d="m 0,0 c 0,-11.931 -9.672,-21.603 -21.601,-21.603 -11.932,0 -21.603,9.672 -21.603,21.603 0,11.93 9.671,21.602 21.603,21.602 C -9.672,21.602 0,11.93 0,0"
             style="fill:#99bef9;fill-opacity:1;fill-rule:nonzero;stroke:none"
             id="path42" /></g></g></g></g></svg>
