<?xml version="1.0" encoding="UTF-8" standalone="no"?>
<svg
   width="100%"
   height="100%"
   viewBox="0 0 192 192"
   version="1.1"
   xml:space="preserve"
   style="fill-rule:evenodd;clip-rule:evenodd;stroke-linejoin:round;stroke-miterlimit:2;"
   id="svg16"
   sodipodi:docname="mbank.svg"
   inkscape:version="1.2 (dc2aedaf03, 2022-05-15)"
   inkscape:export-filename="mbank.png"
   inkscape:export-xdpi="96"
   inkscape:export-ydpi="96"
   xmlns:inkscape="http://www.inkscape.org/namespaces/inkscape"
   xmlns:sodipodi="http://sodipodi.sourceforge.net/DTD/sodipodi-0.dtd"
   xmlns="http://www.w3.org/2000/svg"
   xmlns:svg="http://www.w3.org/2000/svg"><defs
   id="defs20" /><sodipodi:namedview
   id="namedview18"
   pagecolor="#505050"
   bordercolor="#eeeeee"
   borderopacity="1"
   inkscape:showpageshadow="0"
   inkscape:pageopacity="0"
   inkscape:pagecheckerboard="0"
   inkscape:deskcolor="#505050"
   showgrid="false"
   inkscape:lockguides="true"
   inkscape:zoom="3.4766084"
   inkscape:cx="73.922619"
   inkscape:cy="83.702265"
   inkscape:window-width="1884"
   inkscape:window-height="1052"
   inkscape:window-x="36"
   inkscape:window-y="0"
   inkscape:window-maximized="1"
   inkscape:current-layer="svg16" />
    
<g
   style="clip-rule:evenodd;fill-rule:evenodd;stroke-linejoin:round;stroke-miterlimit:2"
   id="g7075"
   transform="translate(-6.2966098,-331.14407)"><g
     id="Layer2">
        <g
   id="background">
            <path
   d="m 62.699,19.5 v 153 H 29.5 c -5.519,0 -10,-4.481 -10,-10 v -133 c 0,-5.519 4.481,-10 10,-10 z"
   style="fill:#ff837d"
   id="path7047" />
            <path
   d="M 135.531,19.5 H 162.5 c 5.519,0 10,4.481 10,10 v 133 c 0,5.519 -4.481,10 -10,10 h -26.969 z"
   style="fill:#98dc9a"
   id="path7049" />
            <rect
   x="62.699001"
   y="19.5"
   width="43.063999"
   height="153"
   style="fill:#f9de81"
   id="rect7051" />
            <g
   transform="matrix(0.691248,0,0,1,62.4225,0)"
   id="g7055">
                <rect
   x="62.699001"
   y="19.5"
   width="43.063999"
   height="153"
   style="fill:#e85e5c"
   id="rect7053" />
            </g>
        </g>
        <path
   d="m 39.358,62.862 v 13.713 h 7.69 v 52.421 H 65.76 V 86.957 c 0,0 0.072,-10.74 10.02,-10.74 9.948,0 10.294,9.522 10.294,9.522 v 43.257 h 19.689 V 86.572 c 0,0 -0.301,-10.258 9.734,-10.258 10.034,0 10.117,9.592 10.117,9.592 v 31.529 c 0,0 -1.549,12.483 12.483,12.483 10.807,0 14.227,-3.358 14.227,-3.358 v -11.073 c 0,0 -2.251,1.77 -4.614,1.64 -3.21,-0.176 -2.871,-2.05 -2.871,-2.05 V 80.933 c 0,0 -0.291,-16.217 -18.764,-18.764 -16.841,-2.321 -24.198,8.203 -24.198,8.203 0,0 -4.856,-8.678 -20.354,-8.537 -13.914,0.127 -19.839,8.845 -19.839,8.845 l -3.281,-7.69 z"
   style="fill:#ffffff"
   id="path7058" />
    </g></g><path
   d="M 57.567133,20 V 172 H 30.097162 C 24.524538,172 20,167.54829 20,162.06536 V 29.93464 C 20,24.451712 24.524538,20 30.097162,20 Z"
   style="clip-rule:evenodd;fill:#ff837d;fill-rule:evenodd;stroke-width:1.00156;stroke-linejoin:round;stroke-miterlimit:2"
   id="path7441"
   sodipodi:nodetypes="ccssssc" /><rect
   x="131.82121"
   y="20"
   width="5.6034055"
   height="152"
   style="fill:#99bdfe;fill-opacity:1;stroke-width:0.359538"
   id="rect6632" /><rect
   x="63.17054"
   y="20"
   width="38.446644"
   height="152"
   style="fill:#f8c18c;fill-opacity:1;stroke-width:0.941775"
   id="rect6216" /><path
   d="m 137.42463,20.000001 h 24.64073 c 5.48293,0 9.93464,4.451712 9.93464,9.93464 V 162.06536 C 172,167.54829 167.54829,172 162.06536,172 h -24.64073 z"
   style="fill:#98dc9a;stroke-width:0.993464"
   id="path4"
   sodipodi:nodetypes="csssscc" /><rect
   x="57.567135"
   y="20"
   width="5.6034055"
   height="152"
   style="fill:#56595b;fill-opacity:1;stroke-width:0.359538"
   id="rect6" /><g
   transform="matrix(0.70137563,0,0,0.99346405,57.641629,0.6274517)"
   id="g10"
   style="fill:#ba6561;fill-opacity:1">
                <rect
   x="62.699001"
   y="19.5"
   width="43.063999"
   height="153"
   style="fill:#ba6561;fill-opacity:1"
   id="rect8" />
            </g><path
   id="path8337"
   style="fill:#ffffff;fill-opacity:1;stroke-width:0.926795"
   d="M 84.951048,67.805716 C 72.055729,67.923419 66.39893,76.895153 66.39893,76.895153 l -0.528041,-8.0189 -19.544091,-0.118705 V 81.466759 H 52.4331 V 124.19566 H 68.817861 V 97.662031 c 0,-2.345116 -0.644445,-15.487389 11.607094,-15.487389 11.442153,0 10.525669,11.944813 10.525669,15.487389 V 124.19566 H 107.20907 V 97.662031 c 0,-2.345116 -0.64336,-15.487389 11.60818,-15.487389 11.44214,0 10.52566,11.944821 10.52566,15.487389 V 124.19566 H 145.6732 V 91.856302 c 0,-15.023935 -8.71447,-22.263904 -19.43193,-23.741295 -15.60794,-2.151542 -23.16406,8.794079 -23.16406,8.794079 0,0 -3.762805,-9.234044 -18.126162,-9.10337 z"
   sodipodi:nodetypes="ccccccccsssccsssccsscc" /></svg>
