<?xml version="1.0" encoding="UTF-8" standalone="no"?>
<svg
   xmlns:dc="http://purl.org/dc/elements/1.1/"
   xmlns:cc="http://creativecommons.org/ns#"
   xmlns:rdf="http://www.w3.org/1999/02/22-rdf-syntax-ns#"
   xmlns:svg="http://www.w3.org/2000/svg"
   xmlns="http://www.w3.org/2000/svg"
   xmlns:sodipodi="http://sodipodi.sourceforge.net/DTD/sodipodi-0.dtd"
   xmlns:inkscape="http://www.inkscape.org/namespaces/inkscape"
   sodipodi:docname="mcdelivery.svg"
   inkscape:version="1.0.1 (3bc2e813f5, 2020-09-07)"
   version="1.1"
   id="svg2"
   viewBox="0 0 192 192"
   height="192"
   width="192"
   inkscape:export-filename="/home/jphilippe/inkscape/icônes/delta-github/png/mcdelivery.png"
   inkscape:export-xdpi="96"
   inkscape:export-ydpi="96">
  <sodipodi:namedview
     inkscape:document-rotation="0"
     inkscape:window-maximized="1"
     inkscape:window-y="30"
     inkscape:window-x="1920"
     inkscape:window-height="1022"
     inkscape:window-width="1680"
     units="px"
     showgrid="false"
     inkscape:current-layer="layer1"
     inkscape:document-units="px"
     inkscape:cy="1.3426564"
     inkscape:cx="185.58301"
     inkscape:zoom="0.35355339"
     inkscape:pageshadow="2"
     inkscape:pageopacity="0.0"
     borderopacity="1.0"
     bordercolor="#666666"
     pagecolor="#ffffff"
     id="base"
     inkscape:snap-bbox="false"
     inkscape:object-paths="true"
     inkscape:snap-nodes="true"
     showguides="true"
     inkscape:guide-bbox="true"
     inkscape:snap-object-midpoints="true"
     inkscape:snap-center="true"
     inkscape:snap-global="true"
     inkscape:snap-intersection-paths="true"
     inkscape:snap-smooth-nodes="true"
     inkscape:snap-midpoints="true" />
  <defs
     id="defs4" />
  <metadata
     id="metadata7">
    <rdf:RDF>
      <cc:Work
         rdf:about="">
        <dc:format>image/svg+xml</dc:format>
        <dc:type
           rdf:resource="http://purl.org/dc/dcmitype/StillImage" />
        <dc:title></dc:title>
      </cc:Work>
    </rdf:RDF>
  </metadata>
  <g
     transform="translate(0,-860.36216)"
     id="layer1"
     inkscape:groupmode="layer"
     inkscape:label="Calque 1">
    <circle
       style="fill:#ff837d;fill-opacity:1;fill-rule:evenodd;stroke:none;stroke-opacity:1"
       cx="96"
       cy="956.36218"
       r="88"
       id="circle1964" />
    <path
       fill="#ffcc00"
       d="m 112.52607,916.99386 c 6.4741,0 11.72562,27.26308 11.72562,60.93288 h 9.44716 c 0,-36.24913 -9.53051,-65.59231 -21.20056,-65.59231 -6.6686,0 -12.559178,8.79187 -16.449196,22.60369 -3.890003,-13.81182 -9.78059,-22.60369 -16.393611,-22.60369 -11.670034,0 -21.17278,29.31548 -21.17278,65.56457 h 9.447177 c 0,-33.66979 5.195936,-60.90514 11.670034,-60.90514 6.474086,0 11.725606,25.18299 11.725606,56.24574 h 9.39159 c 0,-31.06275 5.2793,-56.24574 11.75339,-56.24574"
       id="path1966"
       style="fill:#f9de81;fill-opacity:1;stroke-width:0.201812" />
    <circle
       style="fill:#ffffff;fill-opacity:1;stroke-width:2.62232;stroke-linecap:round;stroke-linejoin:round;stop-color:#000000"
       id="path1968"
       cx="128.06717"
       cy="991.64136"
       r="5.631" />
    <circle
       style="fill:none;fill-opacity:1;stroke:#ffffff;stroke-width:2.5;stroke-linecap:round;stroke-linejoin:round;stroke-miterlimit:4;stroke-dasharray:none;stroke-opacity:1;stop-color:#000000"
       id="circle1970"
       cx="63.932148"
       cy="991.64136"
       r="4.381" />
    <path
       style="fill:#ffffff;fill-opacity:1;stroke-width:2.62232;stroke-linecap:round;stroke-linejoin:round;stop-color:#000000"
       d="m 91.833047,995.7739 a 2.3123466,2.3092467 0 0 0 -2.217733,2.30801 2.3123466,2.3092467 0 0 0 2.313706,2.30799 2.3123466,2.3092467 0 0 0 2.311112,-2.30799 2.3123466,2.3092467 0 0 0 -2.311112,-2.30801 2.3123466,2.3092467 0 0 0 -0.09598,0 z"
       id="path2036" />
    <path
       style="fill:#ffffff;fill-opacity:1;stroke-width:2.62232;stroke-linecap:round;stroke-linejoin:round;stop-color:#000000"
       d="m 83.945177,995.18588 a 2.3123466,2.3092467 0 0 0 -2.311111,2.31061 2.3123466,2.3092467 0 0 0 2.311111,2.30802 2.3123466,2.3092467 0 0 0 2.313707,-2.30802 2.3123466,2.3092467 0 0 0 -2.313707,-2.31061 z"
       id="path2034" />
    <path
       style="fill:#ffffff;fill-opacity:1;stroke-width:2.62232;stroke-linecap:round;stroke-linejoin:round;stop-color:#000000"
       d="m 75.717514,993.66534 a 2.3123466,2.3092467 0 0 0 -2.217734,2.30802 2.3123466,2.3092467 0 0 0 2.313705,2.3106 2.3123466,2.3092467 0 0 0 2.311113,-2.3106 2.3123466,2.3092467 0 0 0 -2.311113,-2.30802 2.3123466,2.3092467 0 0 0 -0.09597,0 z"
       id="circle1972" />
    <path
       style="fill:#ffffff;fill-opacity:1;stroke-width:2.62232;stroke-linecap:round;stroke-linejoin:round;stop-color:#000000"
       d="m 100.24696,995.7739 a 2.3123466,2.3092467 0 0 1 2.21772,2.30801 2.3123466,2.3092467 0 0 1 -2.3137,2.30799 2.3123466,2.3092467 0 0 1 -2.311108,-2.30799 2.3123466,2.3092467 0 0 1 2.311108,-2.30801 2.3123466,2.3092467 0 0 1 0.096,0 z"
       id="path2042" />
    <path
       style="fill:#ffffff;fill-opacity:1;stroke-width:2.62232;stroke-linecap:round;stroke-linejoin:round;stop-color:#000000"
       d="m 108.13483,995.18588 a 2.3123466,2.3092467 0 0 1 2.31111,2.31061 2.3123466,2.3092467 0 0 1 -2.31111,2.30802 2.3123466,2.3092467 0 0 1 -2.31371,-2.30802 2.3123466,2.3092467 0 0 1 2.31371,-2.31061 z"
       id="path2040" />
    <path
       style="fill:#ffffff;fill-opacity:1;stroke-width:2.62232;stroke-linecap:round;stroke-linejoin:round;stop-color:#000000"
       d="m 116.36248,993.66534 a 2.3123466,2.3092467 0 0 1 2.21774,2.30802 2.3123466,2.3092467 0 0 1 -2.31371,2.3106 2.3123466,2.3092467 0 0 1 -2.31111,-2.3106 2.3123466,2.3092467 0 0 1 2.31111,-2.30802 2.3123466,2.3092467 0 0 1 0.096,0 z"
       id="path2002" />
  </g>
  <style
     type="text/css"
     id="style853">
	.st0{fill:#FFFFFF;}
</style>
</svg>
