<svg width="192" height="192" version="1.1" viewBox="0 0 192 192" xml:space="preserve" xmlns="http://www.w3.org/2000/svg"><circle cx="96" cy="96" r="88" fill="#fff"/><circle cx="96" cy="96" r="36.5" display="none" fill="none" stroke="#b1b5bd" stroke-width="1.0002"/><path d="m59.916 101.98c0.30338-3.1273 2.1618-6.159 5.683-10.205-1.4249-2.5395-2.2373-5.469-2.2373-8.5881 0-9.7075 7.8695-17.577 17.577-17.577 3.018 0 5.8584 0.76063 8.34 2.1006 3.7988-3.38 6.7039-5.1833 9.7201-5.5231 3.1139-0.35077 6.2588 0.29631 8.9836 1.8485 4.5718 2.6043 7.1134 9.1134 12.197 22.13 7.9174 20.276 11.876 30.413 9.0814 36.785-1.6473 3.7555-4.6119 6.7738-8.3308 8.482-6.3098 2.8981-16.473-0.9228-36.8-8.5642-13.05-4.9058-19.575-7.3592-22.238-11.906-1.5875-2.71-2.279-5.8549-1.9756-8.9836zm25.256-28.455c1.7539 0.76959 3.2583 2.0028 4.3583 3.5444 1.2304 1.7253 1.9546 3.837 1.9546 6.1177 0 5.8245-4.7217 10.546-10.546 10.546-2.2114 0-4.2639-0.68058-5.9593-1.8438-1.5649-1.0736-2.8256-2.5586-3.6263-4.2987-0.61667-1.3401-0.96058-2.8317-0.96058-4.4036 0-0.30102 0.01262-0.5991 0.03733-0.89372 0.42951-5.1183 4.5143-9.1969 9.6353-9.6169 0.28809-0.02359 0.57941-0.03565 0.87358-0.03565 1.5057 0 2.9377 0.31554 4.2334 0.88406z" clip-rule="evenodd" fill="#728dbe" fill-rule="evenodd" stroke-width="3.5154"/><circle cx="80.938" cy="83.188" r="11.234" fill="#9abeff"/></svg>
