<?xml version="1.0" encoding="UTF-8" standalone="no"?>
<svg
   xmlns:dc="http://purl.org/dc/elements/1.1/"
   xmlns:cc="http://creativecommons.org/ns#"
   xmlns:rdf="http://www.w3.org/1999/02/22-rdf-syntax-ns#"
   xmlns:svg="http://www.w3.org/2000/svg"
   xmlns="http://www.w3.org/2000/svg"
   xmlns:sodipodi="http://sodipodi.sourceforge.net/DTD/sodipodi-0.dtd"
   xmlns:inkscape="http://www.inkscape.org/namespaces/inkscape"
   width="192"
   height="192"
   viewBox="0 0 192 192"
   id="svg2"
   version="1.1"
   inkscape:version="1.0.1 (3bc2e813f5, 2020-09-07)"
   sodipodi:docname="mediamonkey.svg"
   inkscape:export-filename="/home/jphilippe/inkscape/icônes/delta-github/png/mediamonkey.png"
   inkscape:export-xdpi="96"
   inkscape:export-ydpi="96">
  <sodipodi:namedview
     id="base"
     pagecolor="#ffffff"
     bordercolor="#666666"
     borderopacity="1.0"
     inkscape:pageopacity="0.0"
     inkscape:pageshadow="2"
     inkscape:zoom="2.8284271"
     inkscape:cx="23.916969"
     inkscape:cy="86.432767"
     inkscape:document-units="px"
     inkscape:current-layer="layer1"
     showgrid="false"
     units="px"
     inkscape:window-width="1884"
     inkscape:window-height="1052"
     inkscape:window-x="36"
     inkscape:window-y="0"
     inkscape:window-maximized="1"
     inkscape:document-rotation="0" />
  <defs
     id="defs4" />
  <metadata
     id="metadata7">
    <rdf:RDF>
      <cc:Work
         rdf:about="">
        <dc:format>image/svg+xml</dc:format>
        <dc:type
           rdf:resource="http://purl.org/dc/dcmitype/StillImage" />
        <dc:title />
      </cc:Work>
    </rdf:RDF>
  </metadata>
  <g
     inkscape:label="Calque 1"
     inkscape:groupmode="layer"
     id="layer1"
     transform="translate(0,-860.36216)">
    <circle
       id="circle4190"
       r="64.655151"
       cy="952.21704"
       cx="94.321274"
       style="fill:#f9de82;fill-opacity:1;fill-rule:evenodd;stroke:none;stroke-width:0.734717" />
    <rect
       style="opacity:0.63;fill:none;fill-rule:evenodd;stroke:#b1b5bd"
       width="127"
       height="175"
       x="-463.32544"
       y="612.48218"
       rx="10"
       id="rect4194" />
    <path
       sodipodi:nodetypes="ccccsscscsccccscscssscccsccccccccccccsssssscsscssccccsssssssscc"
       style="fill:#575a5c;fill-opacity:1;stroke-width:0.750788;stroke-miterlimit:4;stroke-dasharray:none"
       d="m 96.251615,1025.81 c -0.685913,-0.4322 -2.145034,-1.9216 -3.242491,-3.3098 -2.06249,-2.6091 -2.403858,-2.9692 -6.662904,-7.0272 -4.715296,-4.493 -4.029961,-9.2989 1.715723,-12.0316 2.764948,-1.315 5.644153,-4.22323 5.986205,-6.04652 0.396806,-2.11512 -0.290073,-3.63487 -0.987452,-4.19526 -3.00215,-2.4125 -7.017278,-4.82163 -10.900954,-4.98846 -2.184869,0 -4.359182,2.54059 -4.370256,5.10634 -0.01351,3.12658 -3.879863,8.5837 -7.13215,10.0666 -6.662968,3.0381 -16.706367,2.1435 -21.088642,-1.8784 -2.44754,-2.24624 -2.388295,-4.37825 0.165646,-5.96099 1.028873,-0.63757 2.656349,-1.45262 3.616629,-1.81127 0.960274,-0.35851 2.643879,-1.04503 3.741336,-1.52546 1.097457,-0.4805 2.473727,-1.02174 3.058373,-1.20283 1.402848,-0.43456 1.680647,-2.0239 1.680647,-9.61551 0,-8.84278 1.052102,-10.38775 8.133094,-11.94376 4.589628,-1.00846 7.521419,-2.55028 7.739928,-4.07032 0.279721,-1.94597 -2.561967,-1.70031 -10.882105,0.94073 -22.083377,7.00996 -41.379535,4.35885 -50.829528,-6.98353 -5.061371,-6.07493 -7.5015757,-13.03413 -7.8903639,-22.50262 -0.2266104,-5.51867 -0.1302542,-6.60829 0.8381124,-9.47803 1.6311855,-4.83395 3.6598895,-8.04432 7.6496535,-12.10541 4.115701,-4.18925 6.61048,-5.90652 9.895692,-6.8116 2.557725,-0.70461 3.698405,-0.49867 5.623118,1.01537 1.059032,0.833 1.288247,1.431 1.288247,3.36068 0,2.52009 0.151464,2.25191 -5.423581,9.6019 -4.177981,5.50808 -5.618474,8.76155 -5.720716,12.92054 0.335693,5.28123 1.471636,10.26823 4.858113,13.64227 1.650773,1.62741 3.075176,2.44637 5.751495,3.30693 3.263181,1.0493 4.16448,1.12055 10.900499,0.86175 7.377951,-0.28335 9.968749,-0.7583 16.88314,-3.09475 4.554642,-1.53911 10.890116,-4.82772 13.260842,-6.88345 l 1.849327,-1.60353 -2.916842,-2.99925 c -3.634874,-3.73765 -4.622453,-5.94895 -4.620148,-10.34534 0.0023,-4.04817 1.119905,-7.53086 3.685011,-11.48135 2.854564,-4.39624 5.634613,-7.08046 9.100544,-8.78678 2.722261,-1.34015 3.684095,-1.54947 7.119357,-1.54947 6.874311,0 14.186676,3.14017 19.551466,8.39606 3.85865,3.78029 4.4042,5.47197 3.2933,10.21207 -0.4628,1.97472 -0.94818,3.98331 -1.07862,4.46344 -0.38823,1.42897 1.22076,1.04269 4.01066,-0.96289 15.38467,-11.05963 23.55625,-14.19838 36.96408,-14.19838 3.95309,0 7.19492,0.28252 9.27855,0.80867 8.79167,2.22001 17.63422,8.86584 21.07771,15.84149 3.60795,7.30877 3.69286,12.70401 0.30996,19.6931 -2.1888,4.52207 -3.29706,6.02192 -7.2105,9.75822 -2.85435,2.72506 -4.82046,3.85417 -6.71128,3.85417 -1.96822,0 -2.51735,-0.88939 -2.51735,-4.07746 0,-2.36626 0.35464,-3.58366 1.98718,-6.82129 5.4927,-10.89318 3.22441,-19.03128 -6.22736,-22.3424 -3.2863,-1.15119 -11.17143,-1.15164 -16.13206,0 -6.48454,1.50435 -12.85669,5.23712 -20.51309,12.01644 -8.89371,7.87494 -9.03044,8.18697 -9.5219,21.72451 -0.36212,9.97459 -0.90691,13.49526 -2.61751,16.91533 -0.3761,0.75199 -0.50788,2.4324 -0.35209,4.48965 0.13693,1.80827 0.24504,6.65506 0.24023,10.7705 -0.008,7.19345 -0.0613,7.57995 -1.37004,9.99905 -1.54856,2.8626 -4.62243,6.0343 -6.103,6.2972 -0.90496,0.1607 -1.01094,0.6271 -1.14027,5.0186 -0.13896,4.7187 -0.18471,4.8861 -1.80486,6.6039 -1.829719,1.94 -3.296271,2.2037 -5.285805,0.9503 z"
       id="path894" />
    <circle
       style="fill:none;fill-opacity:1;fill-rule:evenodd;stroke:#575a5c;stroke-width:10.6282;stroke-miterlimit:4;stroke-dasharray:none;stroke-opacity:1"
       cx="94.321274"
       cy="952.21704"
       r="60.755253"
       id="circle896" />
  </g>
</svg>
