<svg width="192" height="192" version="1.1" viewBox="0 0 192 192" xmlns="http://www.w3.org/2000/svg">
 <g stroke-width="0">
  <rect x="20" y="20" width="152" height="152" rx="9.9346" fill="#9abeff"/>
  <path d="m89.732 81.776c16.4-14.085 41.638-2.0401 41.263 16.261-0.26683 13.029-14.782 21.403-31.958 17.295-8.3638-2.0005-14.545-8.4301-25.096-9.9748 6.3183-1.2739 7.0018-4.4652 4.9477-6.0802-6.8403-5.3781-21.192-2.0144-22.889 1.2485 2.4366-4.7474 5.3452-6.8189 10.32-8.3508 2.2093-0.68032 5.3094-2.2346 4.6857-3.9325-0.71771-1.9541-5.2184-0.162-6.9335 0.67747 8.6651-12.101 32.857 3.3958 34.102-4.4758 0.44118-2.7892-3.9515-3.3443-8.4415-2.6678z" fill="#fff"/>
  <path d="m91.065 96.622c9.5382 0.1807 12.079-3.0441 16.55-5.9153 5.463-3.5089 12.987 0.79085 12.96 6.0482-0.0259 5.11-6.5234 8.4661-11.649 7.2802-5.6426-1.3055-12.286-4.6537-17.861-7.4131z" fill="#9abeff"/>
 </g>
</svg>
