<?xml version="1.0" encoding="UTF-8" standalone="no"?>
<svg
   width="192"
   height="192"
   version="1.1"
   viewBox="0 0 192 192"
   id="svg46"
   sodipodi:docname="medtronic_minimed.svg"
   xml:space="preserve"
   inkscape:version="1.2 (dc2aedaf03, 2022-05-15)"
   inkscape:export-filename="medtronic_minimed.png"
   inkscape:export-xdpi="96"
   inkscape:export-ydpi="96"
   xmlns:inkscape="http://www.inkscape.org/namespaces/inkscape"
   xmlns:sodipodi="http://sodipodi.sourceforge.net/DTD/sodipodi-0.dtd"
   xmlns="http://www.w3.org/2000/svg"
   xmlns:svg="http://www.w3.org/2000/svg"><defs
     id="defs50" /><sodipodi:namedview
     id="namedview48"
     pagecolor="#505050"
     bordercolor="#eeeeee"
     borderopacity="1"
     inkscape:showpageshadow="0"
     inkscape:pageopacity="0"
     inkscape:pagecheckerboard="0"
     inkscape:deskcolor="#505050"
     showgrid="false"
     inkscape:zoom="2.4583333"
     inkscape:cx="10.779661"
     inkscape:cy="67.525424"
     inkscape:window-width="1884"
     inkscape:window-height="1052"
     inkscape:window-x="36"
     inkscape:window-y="0"
     inkscape:window-maximized="1"
     inkscape:current-layer="svg46" /><rect
     x="20"
     y="20"
     width="152"
     height="152"
     rx="9.9345999"
     fill="#728dbe"
     id="rect2"
     style="fill:#54688c;fill-opacity:1" /><path
     d="M 172,133.59 H 20 v 28.475 c 0,5.5038 4.4318,9.9356 9.9355,9.9356 h 132.13 c 5.5038,0 9.9356,-4.4318 9.9356,-9.9356 z"
     fill="#ffffff"
     id="path4" /><path
     d="m 119.78,43.701 c -1.957,-1.037 -4.006,-1.148 -4.797,-1.148 h -0.105 C 102.364,41.291 97.19,40.701 94.957,38.875 c -2.432,-1.99 -5.784,-2.11 -5.926,-2.113 -0.016,0 -0.032,-10e-4 -0.049,-10e-4 H 78.388 c -0.194,-0.021 -0.58,-0.055 -1.08,-0.055 -3.898,0 -8.064,2.043 -8.064,7.781 v 66.45 c 0,0.016 0,0.03 0.001,0.047 0.005,0.189 0.079,1.908 1.058,3.664 0.955,1.712 2.93,3.752 6.914,3.752 h 38.669 c 3.985,0 5.959,-2.04 6.914,-3.752 0.979,-1.756 1.054,-3.475 1.059,-3.664 0,-0.017 0.001,-0.031 0.001,-0.047 V 50.984 c -0.001,-4.234 -2.218,-6.297 -4.08,-7.283 z m 0.743,67.197 c -0.01,0.148 -0.098,1.21 -0.687,2.212 -0.773,1.315 -2.065,1.954 -3.951,1.954 H 77.217 c -1.885,0 -3.177,-0.64 -3.95,-1.954 -0.596,-1.015 -0.679,-2.091 -0.687,-2.207 V 44.487 c 0,-2.95 1.59,-4.445 4.728,-4.445 0.449,0 0.744,0.038 0.744,0.038 0.078,0.011 0.157,0.017 0.236,0.017 H 88.95 c 0.205,0.011 2.421,0.156 3.894,1.36 2.964,2.426 7.599,2.995 21.803,4.427 0.077,0.008 0.161,0.01 0.239,0.006 0.012,0 0.045,-10e-4 0.097,-10e-4 1.666,0 5.539,0.497 5.539,5.095 z"
     id="path6"
     style="fill:#ffffff" /><path
     d="M 110.7,51.698 H 82.427 c -2.711,0 -4.917,2.205 -4.917,4.917 v 16.332 c 0,2.711 2.206,4.917 4.917,4.917 H 110.7 c 2.712,0 4.917,-2.206 4.917,-4.917 V 56.615 c 0,-2.712 -2.205,-4.917 -4.917,-4.917 z m 2.107,21.249 c 0,1.162 -0.945,2.107 -2.106,2.107 H 82.427 c -1.162,0 -2.107,-0.945 -2.107,-2.107 V 56.615 c 0,-1.162 0.945,-2.107 2.107,-2.107 H 110.7 c 1.161,0 2.106,0.945 2.106,2.107 v 16.332 z"
     id="path8"
     style="fill:#ffffff" /><circle
     cx="96.537003"
     cy="96.184998"
     r="4.6240001"
     id="circle10"
     style="fill:#ffffff" /><path
     d="m 88.617,90.331 -3.442,3.444 c -1.316,1.316 -1.316,3.448 0,4.765 l 3.442,3.443 2.042,-2.061 c -0.688,-1.08 -1.087,-2.361 -1.087,-3.735 0,-1.391 0.408,-2.685 1.11,-3.771 z"
     id="path12"
     style="fill:#ffffff" /><path
     d="m 96.537,103.15 c -1.327,0 -2.568,-0.371 -3.624,-1.015 l -2.062,2.08 3.376,3.376 c 1.317,1.317 3.45,1.317 4.765,0 l 3.376,-3.376 -2.118,-2.138 c -1.075,0.679 -2.348,1.073 -3.713,1.073 z"
     id="path14"
     style="fill:#ffffff" /><path
     d="m 94.228,84.72 -3.376,3.376 2.098,2.118 c 1.048,-0.631 2.275,-0.994 3.587,-0.994 1.351,0 2.61,0.386 3.678,1.05 l 2.153,-2.174 -3.375,-3.376 c -1.315,-1.317 -3.449,-1.317 -4.765,0 z"
     id="path16"
     style="fill:#ffffff" /><path
     d="m 104.6,90.331 -2.152,2.174 c 0.666,1.068 1.053,2.329 1.053,3.682 0,1.336 -0.376,2.584 -1.031,3.644 l 2.131,2.152 3.444,-3.443 c 1.315,-1.316 1.315,-3.449 0,-4.765 z"
     id="path18"
     style="fill:#ffffff" /><text
     xml:space="preserve"
     style="font-weight:bold;font-size:21.3334px;line-height:1.25;font-family:Now;-inkscape-font-specification:'Now Bold';letter-spacing:0px;word-spacing:0px;fill:#54688c;fill-opacity:1;stroke-width:0.533333"
     x="39.426586"
     y="160.81122"
     id="text3157"><tspan
       sodipodi:role="line"
       id="tspan3155"
       x="39.426586"
       y="160.81122"
       style="fill:#54688c;fill-opacity:1;stroke-width:0.533333">Medtronic</tspan></text><g
     transform="translate(0,-219.84746)"
     id="g321"><rect
       x="20"
       y="21"
       width="152"
       height="152"
       rx="9.9345999"
       fill="#728dbe"
       id="rect279" /><path
       transform="translate(0,1)"
       d="M 172,133.59 H 20 v 28.475 c 0,5.5038 4.4318,9.9356 9.9355,9.9356 h 132.13 c 5.5038,0 9.9356,-4.4318 9.9356,-9.9356 z"
       fill="#ffffff"
       id="path281" /><g
       fill="#ffffff"
       id="g297"><path
         d="m 119.78,44.701 c -1.957,-1.037 -4.006,-1.148 -4.797,-1.148 h -0.105 C 102.364,42.291 97.19,41.701 94.957,39.875 c -2.432,-1.99 -5.784,-2.11 -5.926,-2.113 -0.016,0 -0.032,-10e-4 -0.049,-10e-4 H 78.388 c -0.194,-0.021 -0.58,-0.055 -1.08,-0.055 -3.898,0 -8.064,2.043 -8.064,7.781 v 66.45 c 0,0.016 0,0.03 0.001,0.047 0.005,0.189 0.079,1.908 1.058,3.664 0.955,1.712 2.93,3.752 6.914,3.752 h 38.669 c 3.985,0 5.959,-2.04 6.914,-3.752 0.979,-1.756 1.054,-3.475 1.059,-3.664 0,-0.017 0.001,-0.031 0.001,-0.047 V 51.984 c -0.001,-4.234 -2.218,-6.297 -4.08,-7.283 z m 0.743,67.197 c -0.01,0.148 -0.098,1.21 -0.687,2.212 -0.773,1.315 -2.065,1.954 -3.951,1.954 H 77.217 c -1.885,0 -3.177,-0.64 -3.95,-1.954 -0.596,-1.015 -0.679,-2.091 -0.687,-2.207 V 45.487 c 0,-2.95 1.59,-4.445 4.728,-4.445 0.449,0 0.744,0.038 0.744,0.038 0.078,0.011 0.157,0.017 0.236,0.017 H 88.95 c 0.205,0.011 2.421,0.156 3.894,1.36 2.964,2.426 7.599,2.995 21.803,4.427 0.077,0.008 0.161,0.01 0.239,0.006 0.012,0 0.045,-10e-4 0.097,-10e-4 1.666,0 5.539,0.497 5.539,5.095 z"
         id="path283" /><path
         d="M 110.7,52.698 H 82.427 c -2.711,0 -4.917,2.205 -4.917,4.917 v 16.332 c 0,2.711 2.206,4.917 4.917,4.917 H 110.7 c 2.712,0 4.917,-2.206 4.917,-4.917 V 57.615 c 0,-2.712 -2.205,-4.917 -4.917,-4.917 z m 2.107,21.249 c 0,1.162 -0.945,2.107 -2.106,2.107 H 82.427 c -1.162,0 -2.107,-0.945 -2.107,-2.107 V 57.615 c 0,-1.162 0.945,-2.107 2.107,-2.107 H 110.7 c 1.161,0 2.106,0.945 2.106,2.107 v 16.332 z"
         id="path285" /><circle
         cx="96.537003"
         cy="97.184998"
         r="4.6240001"
         id="circle287" /><path
         d="m 88.617,91.331 -3.442,3.444 c -1.316,1.316 -1.316,3.448 0,4.765 l 3.442,3.443 2.042,-2.061 c -0.688,-1.08 -1.087,-2.361 -1.087,-3.735 0,-1.391 0.408,-2.685 1.11,-3.771 z"
         id="path289" /><path
         d="m 96.537,104.15 c -1.327,0 -2.568,-0.371 -3.624,-1.015 l -2.062,2.08 3.376,3.376 c 1.317,1.317 3.45,1.317 4.765,0 l 3.376,-3.376 -2.118,-2.138 c -1.075,0.679 -2.348,1.073 -3.713,1.073 z"
         id="path291" /><path
         d="m 94.228,85.72 -3.376,3.376 2.098,2.118 c 1.048,-0.631 2.275,-0.994 3.587,-0.994 1.351,0 2.61,0.386 3.678,1.05 l 2.153,-2.174 -3.375,-3.376 c -1.315,-1.317 -3.449,-1.317 -4.765,0 z"
         id="path293" /><path
         d="m 104.6,91.331 -2.152,2.174 c 0.666,1.068 1.053,2.329 1.053,3.682 0,1.336 -0.376,2.584 -1.031,3.644 l 2.131,2.152 3.444,-3.443 c 1.315,-1.316 1.315,-3.449 0,-4.765 z"
         id="path295" /></g><g
       fill="#728cbd"
       id="g319"><polygon
         points="54.976,156.6 52.321,144.6 47.817,144.6 46.137,160.46 48.979,160.46 49.648,147.7 52.685,160.46 56.165,160.46 59.366,147.35 60.192,160.46 62.996,160.46 62.006,144.6 57.54,144.6 "
         id="polygon299" /><path
         d="m 74.746,159.76 v -2.032 c -1.214,0.627 -3.321,1.213 -5.194,0.861 -2.761,-0.518 -2.692,-2.459 -2.692,-2.459 h 8.592 c 0.084,-0.414 0.13,-0.845 0.13,-1.287 0,-3.297 -2.458,-5.97 -5.707,-5.97 -3.25,0 -5.883,2.673 -5.883,5.97 0,3.298 2.399,6.03 6.059,5.972 3.489,-0.058 4.695,-1.055 4.695,-1.055 z m -4.872,-8.739 c 1.638,0 2.974,1.303 3.064,2.942 h -6.129 c 0.09,-1.639 1.426,-2.942 3.065,-2.942 z"
         id="path301" /><path
         d="m 97.679,151.32 v -2.108 H 94.43 v -2.591 h -2.635 v 2.591 H 88.02 v 2.108 h 3.775 v 6.277 c 0,0 0,3.205 3.864,3.16 h 2.02 v -2.195 c 0,0 -3.249,0.44 -3.249,-1.141 v -6.103 z"
         id="path303" /><path
         d="m 102.98,149.81 c -0.536,0.456 -1.01,1.323 -1.171,1.639 v -2.251 h -2.634 v 11.603 h 2.637 c -10e-4,-0.016 -0.003,-0.029 -0.003,-0.045 v -6.966 c 0.187,-0.771 0.944,-1.727 1.581,-2.049 1.008,-0.513 2.545,-0.146 2.545,-0.146 v -2.312 c -0.877,-0.352 -2.165,-0.147 -2.955,0.527 z"
         id="path305" /><path
         d="m 130.96,153.79 v 6.966 c 0,0.017 0.002,0.03 0.003,0.045 h -2.931 v -7.537 c 0,0 -0.058,-1.944 -2.399,-2.021 -2.751,-0.088 -2.691,2.547 -2.691,2.547 v 6.966 c 0,0.017 0.001,0.03 0.001,0.045 h -2.636 v -11.602 h 2.635 v 1.548 c 0,0 0.819,-1.639 3.277,-1.639 2.459,0 4.741,1.286 4.741,4.682 z"
         id="path307" /><path
         d="m 112.18,149.21 c -3.358,0 -6.08,2.586 -6.08,5.772 0,3.188 2.722,5.773 6.08,5.773 3.359,0 6.081,-2.586 6.081,-5.773 0,-3.186 -2.722,-5.772 -6.081,-5.772 z m 0,9.204 c -1.802,0 -3.263,-1.624 -3.263,-3.628 0,-2.006 1.461,-3.631 3.263,-3.631 1.803,0 3.263,1.625 3.263,3.631 -0.001,2.004 -1.461,3.628 -3.263,3.628 z"
         id="path309" /><path
         d="m 137.81,158.62 c -1.465,0.005 -2.166,-0.227 -2.166,-1.194 v -8.284 h -2.634 v 8.459 c 0,0 0,3.205 3.863,3.16 h 0.937 z"
         id="path311" /><path
         d="m 88.371,157.42 v -12.558 h -2.634 v 5.965 c -0.977,-1.081 -2.328,-1.75 -3.819,-1.75 -2.983,0 -5.4,2.674 -5.4,5.971 0,3.298 2.417,5.972 5.4,5.972 1.563,0 2.971,-0.736 3.957,-1.911 0.219,0.676 0.771,1.646 2.146,1.646 h 1.843 v -2.196 C 89.863,158.56 88.371,159 88.371,157.42 Z m -5.663,1.228 c -1.722,0 -3.117,-1.229 -3.117,-3.688 0,-2.371 1.395,-3.688 3.117,-3.688 1.722,0 3.117,1.651 3.117,3.688 0,2.037 -1.396,3.688 -3.117,3.688 z"
         id="path313" /><circle
         cx="134.32001"
         cy="146.10001"
         r="1.609"
         id="circle315" /><path
         d="m 147.23,157.73 c -0.702,0.608 -1.637,0.979 -2.662,0.979 -2.183,0 -3.951,-1.678 -3.951,-3.747 0,-2.07 1.769,-3.747 3.951,-3.747 1.025,0 1.96,0.37 2.662,0.979 v -2.476 c -0.893,-0.428 -1.907,-0.671 -2.984,-0.671 -3.556,0 -6.264,2.342 -6.264,5.884 0,3.541 2.708,5.883 6.264,5.883 1.077,0 2.094,-0.243 2.984,-0.671 z"
         id="path317" /></g></g></svg>
