<?xml version="1.0" encoding="utf-8"?>
<!-- Generator: Adobe Illustrator 16.0.0, SVG Export Plug-In . SVG Version: 6.00 Build 0)  -->
<!DOCTYPE svg PUBLIC "-//W3C//DTD SVG 1.1 Tiny//EN" "http://www.w3.org/Graphics/SVG/1.1/DTD/svg11-tiny.dtd">
<svg version="1.1" baseProfile="tiny" id="Layer_1" xmlns="http://www.w3.org/2000/svg" xmlns:xlink="http://www.w3.org/1999/xlink"
	 x="0px" y="0px" width="192px" height="192px" viewBox="0 0 192 192" xml:space="preserve">
<g>
	<g>
		<g>
			<path fill="#728CBD" d="M186,173.435c0,6.939-5.626,12.565-12.565,12.565H18.565C11.626,186,6,180.374,6,173.435V18.565
				C6,11.626,11.626,6,18.565,6h154.869C180.374,6,186,11.626,186,18.565V173.435z"/>
		</g>
	</g>
	<path fill="#FFFFFF" d="M186,140.517H6v32.918c0,6.315,4.665,11.528,10.733,12.417h157.522c0.638,0,1.26-0.061,1.872-0.148
		c5.644-1.233,9.872-6.255,9.872-12.269V140.517z"/>
	<g>
		<path fill="#FFFFFF" d="M124.163,34.067c-2.317-1.228-4.743-1.36-5.68-1.36c-0.047,0-0.089,0-0.125,0.001
			c-14.819-1.495-20.947-2.193-23.591-4.356c-2.88-2.357-6.849-2.499-7.017-2.503c-0.019,0-0.038-0.001-0.058-0.001H75.146
			c-0.23-0.025-0.686-0.065-1.279-0.065c-4.616,0-9.549,2.42-9.549,9.215v78.691c0,0.019,0,0.036,0.001,0.055
			c0.006,0.225,0.093,2.26,1.253,4.34c1.13,2.027,3.469,4.444,8.188,4.444h45.792c4.72,0,7.058-2.417,8.188-4.444
			c1.161-2.08,1.248-4.115,1.254-4.34c0-0.019,0.001-0.036,0.001-0.055V42.692C128.994,37.678,126.367,35.234,124.163,34.067z
			 M125.043,113.642c-0.012,0.176-0.115,1.434-0.813,2.62c-0.916,1.558-2.446,2.314-4.679,2.314H73.76
			c-2.232,0-3.763-0.757-4.678-2.314c-0.706-1.201-0.804-2.476-0.813-2.614v-78.65c0-3.493,1.883-5.264,5.598-5.264
			c0.532,0,0.881,0.045,0.881,0.045c0.092,0.013,0.186,0.02,0.28,0.02h12.626c0.242,0.013,2.867,0.184,4.611,1.61
			c3.511,2.873,8.999,3.546,25.82,5.243c0.091,0.009,0.191,0.012,0.283,0.007c0.014,0,0.053-0.001,0.114-0.001
			c1.973,0,6.56,0.588,6.56,6.034V113.642z"/>
		<path fill="#FFFFFF" d="M113.412,43.537H79.93c-3.211,0-5.823,2.612-5.823,5.823V68.7c0,3.211,2.612,5.823,5.823,5.823h33.482
			c3.211,0,5.822-2.612,5.822-5.823v-19.34C119.234,46.148,116.623,43.537,113.412,43.537z M115.906,68.7
			c0,1.376-1.119,2.496-2.494,2.496H79.93c-1.376,0-2.496-1.119-2.496-2.496v-19.34c0-1.376,1.119-2.496,2.496-2.496h33.482
			c1.375,0,2.494,1.12,2.494,2.496V68.7z"/>
		<circle fill="#FFFFFF" cx="96.636" cy="96.219" r="5.476"/>
		<path fill="#FFFFFF" d="M87.257,89.286l-4.077,4.078c-1.559,1.559-1.559,4.084,0,5.643l4.077,4.077l2.418-2.44
			c-0.814-1.279-1.288-2.796-1.288-4.424c0-1.646,0.483-3.178,1.314-4.465L87.257,89.286z"/>
		<path fill="#FFFFFF" d="M96.636,104.469c-1.571,0-3.041-0.439-4.291-1.202l-2.441,2.464l3.998,3.997
			c1.559,1.56,4.085,1.56,5.643,0l3.997-3.997l-2.508-2.532C99.76,104.002,98.253,104.469,96.636,104.469z"/>
		<path fill="#FFFFFF" d="M93.901,82.642l-3.998,3.998l2.484,2.508c1.241-0.747,2.694-1.177,4.248-1.177
			c1.6,0,3.091,0.457,4.355,1.244l2.55-2.575l-3.997-3.998C97.986,81.083,95.46,81.083,93.901,82.642z"/>
		<path fill="#FFFFFF" d="M106.188,89.286l-2.55,2.575c0.789,1.265,1.247,2.758,1.247,4.359c0,1.583-0.446,3.061-1.221,4.316
			l2.523,2.548l4.078-4.077c1.558-1.559,1.558-4.084,0-5.643L106.188,89.286z"/>
	</g>
	<g>
		<polygon fill="#728CBD" points="41.11,156.044 44.706,171.155 48.827,171.155 52.618,155.628 53.596,171.155 56.916,171.155 
			55.744,152.37 50.455,152.37 47.419,166.581 44.275,152.37 38.941,152.37 36.951,171.155 40.318,171.155 		"/>
		<path fill="#728CBD" d="M70.83,170.324v-2.406c-1.437,0.742-3.932,1.436-6.151,1.02c-3.27-0.613-3.188-2.912-3.188-2.912h10.175
			c0.1-0.491,0.154-1.001,0.154-1.524c0-3.905-2.911-7.07-6.758-7.07c-3.848,0-6.967,3.165-6.967,7.07s2.842,7.14,7.175,7.071
			C69.402,171.505,70.83,170.324,70.83,170.324z M65.061,159.976c1.94,0,3.522,1.543,3.628,3.485h-7.258
			C61.539,161.519,63.12,159.976,65.061,159.976z"/>
		<path fill="#728CBD" d="M97.988,160.325v-2.496h-3.848v-3.068h-3.12v3.068H86.55v2.496h4.471v7.434c0,0,0,3.796,4.575,3.743h2.392
			v-2.6c0,0-3.848,0.521-3.848-1.351v-7.227H97.988z"/>
		<path fill="#728CBD" d="M104.262,158.54c-0.635,0.54-1.196,1.568-1.387,1.94v-2.665h-3.119v13.739h3.123
			c-0.001-0.018-0.004-0.034-0.004-0.053v-8.249c0.221-0.912,1.118-2.044,1.872-2.426c1.195-0.607,3.015-0.174,3.015-0.174v-2.737
			C106.722,157.499,105.197,157.742,104.262,158.54z"/>
		<path fill="#728CBD" d="M137.396,163.253v8.249c0,0.019,0.003,0.035,0.004,0.053h-3.47v-8.926c0,0-0.068-2.303-2.842-2.392
			c-3.258-0.104-3.188,3.016-3.188,3.016v8.249c0,0.019,0.002,0.035,0.003,0.053h-3.122v-13.739h3.119v1.833
			c0,0,0.971-1.94,3.882-1.94C134.693,157.708,137.396,159.231,137.396,163.253z"/>
		<path fill="#728CBD" d="M115.166,157.829c-3.977,0-7.2,3.061-7.2,6.836s3.224,6.837,7.2,6.837c3.978,0,7.201-3.062,7.201-6.837
			S119.144,157.829,115.166,157.829z M115.166,168.729c-2.134,0-3.864-1.924-3.864-4.298s1.73-4.298,3.864-4.298
			c2.135,0,3.864,1.924,3.864,4.298S117.301,168.729,115.166,168.729z"/>
		<path fill="#728CBD" d="M145.508,168.967c-1.734,0.006-2.565-0.269-2.565-1.415v-9.81h-3.119v10.017c0,0,0,3.796,4.575,3.743
			h1.109V168.967z"/>
		<path fill="#728CBD" d="M86.966,167.552v-14.87h-3.12v7.063c-1.157-1.28-2.756-2.072-4.523-2.072c-3.532,0-6.395,3.166-6.395,7.07
			c0,3.905,2.863,7.071,6.395,7.071c1.852,0,3.519-0.871,4.686-2.262c0.259,0.799,0.913,1.949,2.541,1.949h2.183v-2.6
			C88.733,168.902,86.966,169.423,86.966,167.552z M80.259,169.007c-2.039,0-3.691-1.455-3.691-4.367
			c0-2.808,1.652-4.367,3.691-4.367c2.039,0,3.691,1.955,3.691,4.367S82.298,169.007,80.259,169.007z"/>
		<circle fill="#728CBD" cx="141.382" cy="154.138" r="1.906"/>
		<path fill="#728CBD" d="M156.667,167.916c-0.832,0.721-1.938,1.16-3.153,1.16c-2.584,0-4.679-1.986-4.679-4.437
			s2.095-4.437,4.679-4.437c1.215,0,2.321,0.439,3.153,1.16v-2.932c-1.057-0.506-2.259-0.794-3.535-0.794
			c-4.21,0-7.417,2.773-7.417,6.967c0,4.194,3.207,6.968,7.417,6.968c1.276,0,2.479-0.289,3.535-0.796V167.916z"/>
	</g>
</g>
</svg>
