<svg xmlns="http://www.w3.org/2000/svg" xml:space="preserve" width="192" height="192"><rect width="152" height="152" x="20" y="20" fill="#728dbe" rx="9.935" style="fill:#54688c;fill-opacity:1"/><path fill="#fff" d="M172 133.59H20v28.475a9.915 9.915 0 0 0 9.935 9.936h132.13a9.915 9.915 0 0 0 9.936-9.936z"/><path d="M119.78 43.701c-1.957-1.037-4.006-1.148-4.797-1.148h-.105c-12.514-1.262-17.688-1.852-19.921-3.678-2.432-1.99-5.784-2.11-5.926-2.113l-.049-.001H78.388a10.2 10.2 0 0 0-1.08-.055c-3.898 0-8.064 2.043-8.064 7.781v66.45l.001.047c.005.189.079 1.908 1.058 3.664.955 1.712 2.93 3.752 6.914 3.752h38.669c3.985 0 5.959-2.04 6.914-3.752.979-1.756 1.054-3.475 1.059-3.664l.001-.047V50.984c-.001-4.234-2.218-6.297-4.08-7.283zm.743 67.197a5.427 5.427 0 0 1-.687 2.212c-.773 1.315-2.065 1.954-3.951 1.954H77.217c-1.885 0-3.177-.64-3.95-1.954a5.442 5.442 0 0 1-.687-2.207V44.487c0-2.95 1.59-4.445 4.728-4.445.449 0 .744.038.744.038.078.011.157.017.236.017H88.95c.205.011 2.421.156 3.894 1.36 2.964 2.426 7.599 2.995 21.803 4.427.077.008.161.01.239.006l.097-.001c1.666 0 5.539.497 5.539 5.095z" style="fill:#fff"/><path d="M110.7 51.698H82.427a4.922 4.922 0 0 0-4.917 4.917v16.332a4.923 4.923 0 0 0 4.917 4.917H110.7a4.922 4.922 0 0 0 4.917-4.917V56.615a4.922 4.922 0 0 0-4.917-4.917zm2.107 21.249a2.109 2.109 0 0 1-2.106 2.107H82.427a2.11 2.11 0 0 1-2.107-2.107V56.615a2.11 2.11 0 0 1 2.107-2.107H110.7c1.161 0 2.106.945 2.106 2.107v16.332z" style="fill:#fff"/><circle cx="96.537" cy="96.185" r="4.624" style="fill:#fff"/><path d="m88.617 90.331-3.442 3.444a3.369 3.369 0 0 0 0 4.765l3.442 3.443 2.042-2.061a6.928 6.928 0 0 1-1.087-3.735c0-1.391.408-2.685 1.11-3.771zM96.537 103.15a6.938 6.938 0 0 1-3.624-1.015l-2.062 2.08 3.376 3.376a3.367 3.367 0 0 0 4.765 0l3.376-3.376-2.118-2.138a6.93 6.93 0 0 1-3.713 1.073zM94.228 84.72l-3.376 3.376 2.098 2.118a6.93 6.93 0 0 1 3.587-.994c1.351 0 2.61.386 3.678 1.05l2.153-2.174-3.375-3.376a3.367 3.367 0 0 0-4.765 0zM104.6 90.331l-2.152 2.174a6.935 6.935 0 0 1 1.053 3.682 6.907 6.907 0 0 1-1.031 3.644l2.131 2.152 3.444-3.443a3.37 3.37 0 0 0 0-4.765z" style="fill:#fff"/><text xml:space="preserve" x="39.427" y="160.811" style="font-weight:700;font-size:21.3334px;line-height:1.25;font-family:Now;-inkscape-font-specification:&quot;Now Bold&quot;;letter-spacing:0;word-spacing:0;fill:#54688c;fill-opacity:1;stroke-width:.533333"><tspan x="39.427" y="160.811" style="fill:#54688c;fill-opacity:1;stroke-width:.533333">Medtronic</tspan></text><g transform="translate(0 -219.847)"><rect width="152" height="152" x="20" y="21" fill="#728dbe" rx="9.935"/><path fill="#fff" d="M172 134.59H20v28.475a9.915 9.915 0 0 0 9.935 9.936h132.13a9.915 9.915 0 0 0 9.936-9.936z"/><g fill="#fff"><path d="M119.78 44.701c-1.957-1.037-4.006-1.148-4.797-1.148h-.105c-12.514-1.262-17.688-1.852-19.921-3.678-2.432-1.99-5.784-2.11-5.926-2.113l-.049-.001H78.388a10.2 10.2 0 0 0-1.08-.055c-3.898 0-8.064 2.043-8.064 7.781v66.45l.001.047c.005.189.079 1.908 1.058 3.664.955 1.712 2.93 3.752 6.914 3.752h38.669c3.985 0 5.959-2.04 6.914-3.752.979-1.756 1.054-3.475 1.059-3.664l.001-.047V51.984c-.001-4.234-2.218-6.297-4.08-7.283zm.743 67.197a5.427 5.427 0 0 1-.687 2.212c-.773 1.315-2.065 1.954-3.951 1.954H77.217c-1.885 0-3.177-.64-3.95-1.954a5.442 5.442 0 0 1-.687-2.207V45.487c0-2.95 1.59-4.445 4.728-4.445.449 0 .744.038.744.038.078.011.157.017.236.017H88.95c.205.011 2.421.156 3.894 1.36 2.964 2.426 7.599 2.995 21.803 4.427.077.008.161.01.239.006l.097-.001c1.666 0 5.539.497 5.539 5.095z"/><path d="M110.7 52.698H82.427a4.922 4.922 0 0 0-4.917 4.917v16.332a4.923 4.923 0 0 0 4.917 4.917H110.7a4.922 4.922 0 0 0 4.917-4.917V57.615a4.922 4.922 0 0 0-4.917-4.917zm2.107 21.249a2.109 2.109 0 0 1-2.106 2.107H82.427a2.11 2.11 0 0 1-2.107-2.107V57.615a2.11 2.11 0 0 1 2.107-2.107H110.7c1.161 0 2.106.945 2.106 2.107v16.332z"/><circle cx="96.537" cy="97.185" r="4.624"/><path d="m88.617 91.331-3.442 3.444a3.369 3.369 0 0 0 0 4.765l3.442 3.443 2.042-2.061a6.928 6.928 0 0 1-1.087-3.735c0-1.391.408-2.685 1.11-3.771zM96.537 104.15a6.938 6.938 0 0 1-3.624-1.015l-2.062 2.08 3.376 3.376a3.367 3.367 0 0 0 4.765 0l3.376-3.376-2.118-2.138a6.93 6.93 0 0 1-3.713 1.073zM94.228 85.72l-3.376 3.376 2.098 2.118a6.93 6.93 0 0 1 3.587-.994c1.351 0 2.61.386 3.678 1.05l2.153-2.174-3.375-3.376a3.367 3.367 0 0 0-4.765 0zM104.6 91.331l-2.152 2.174a6.935 6.935 0 0 1 1.053 3.682 6.907 6.907 0 0 1-1.031 3.644l2.131 2.152 3.444-3.443a3.37 3.37 0 0 0 0-4.765z"/></g><g fill="#728cbd"><path d="m54.976 156.6-2.655-12h-4.504l-1.68 15.86h2.842l.669-12.76 3.037 12.76h3.48l3.201-13.11.826 13.11h2.804l-.99-15.86H57.54zM74.746 159.76v-2.032c-1.214.627-3.321 1.213-5.194.861-2.761-.518-2.692-2.459-2.692-2.459h8.592c.084-.414.13-.845.13-1.287 0-3.297-2.458-5.97-5.707-5.97-3.25 0-5.883 2.673-5.883 5.97 0 3.298 2.399 6.03 6.059 5.972 3.489-.058 4.695-1.055 4.695-1.055zm-4.872-8.739c1.638 0 2.974 1.303 3.064 2.942h-6.129c.09-1.639 1.426-2.942 3.065-2.942zM97.679 151.32v-2.108H94.43v-2.591h-2.635v2.591H88.02v2.108h3.775v6.277s0 3.205 3.864 3.16h2.02v-2.195s-3.249.44-3.249-1.141v-6.103zM102.98 149.81c-.536.456-1.01 1.323-1.171 1.639v-2.251h-2.634v11.603h2.637c-.001-.016-.003-.029-.003-.045v-6.966c.187-.771.944-1.727 1.581-2.049 1.008-.513 2.545-.146 2.545-.146v-2.312c-.877-.352-2.165-.147-2.955.527zM130.96 153.79v6.966c0 .017.002.03.003.045h-2.931v-7.537s-.058-1.944-2.399-2.021c-2.751-.088-2.691 2.547-2.691 2.547v6.966l.001.045h-2.636v-11.602h2.635v1.548s.819-1.639 3.277-1.639c2.459 0 4.741 1.286 4.741 4.682zM112.18 149.21c-3.358 0-6.08 2.586-6.08 5.772 0 3.188 2.722 5.773 6.08 5.773 3.359 0 6.081-2.586 6.081-5.773 0-3.186-2.722-5.772-6.081-5.772zm0 9.204c-1.802 0-3.263-1.624-3.263-3.628 0-2.006 1.461-3.631 3.263-3.631 1.803 0 3.263 1.625 3.263 3.631-.001 2.004-1.461 3.628-3.263 3.628zM137.81 158.62c-1.465.005-2.166-.227-2.166-1.194v-8.284h-2.634v8.459s0 3.205 3.863 3.16h.937z"/><path d="M88.371 157.42v-12.558h-2.634v5.965c-.977-1.081-2.328-1.75-3.819-1.75-2.983 0-5.4 2.674-5.4 5.971 0 3.298 2.417 5.972 5.4 5.972 1.563 0 2.971-.736 3.957-1.911.219.676.771 1.646 2.146 1.646h1.843v-2.196c-.001.001-1.493.441-1.493-1.139Zm-5.663 1.228c-1.722 0-3.117-1.229-3.117-3.688 0-2.371 1.395-3.688 3.117-3.688s3.117 1.651 3.117 3.688-1.396 3.688-3.117 3.688z"/><circle cx="134.32" cy="146.1" r="1.609"/><path d="M147.23 157.73a4.057 4.057 0 0 1-2.662.979c-2.183 0-3.951-1.678-3.951-3.747 0-2.07 1.769-3.747 3.951-3.747 1.025 0 1.96.37 2.662.979v-2.476a6.892 6.892 0 0 0-2.984-.671c-3.556 0-6.264 2.342-6.264 5.884 0 3.541 2.708 5.883 6.264 5.883a6.882 6.882 0 0 0 2.984-.671z"/></g></g></svg>