<?xml version="1.0" encoding="UTF-8" standalone="no"?>
<svg
   id="Calque_1"
   data-name="Calque 1"
   viewBox="0 0 192 192"
   version="1.1"
   sodipodi:docname="meetic_alt.svg"
   xml:space="preserve"
   width="192"
   height="192"
   inkscape:version="1.2 (dc2aedaf03, 2022-05-15)"
   inkscape:export-filename="meetic_alt.png"
   inkscape:export-xdpi="96"
   inkscape:export-ydpi="96"
   xmlns:inkscape="http://www.inkscape.org/namespaces/inkscape"
   xmlns:sodipodi="http://sodipodi.sourceforge.net/DTD/sodipodi-0.dtd"
   xmlns="http://www.w3.org/2000/svg"
   xmlns:svg="http://www.w3.org/2000/svg"><defs
     id="defs19734" /><sodipodi:namedview
     id="namedview19732"
     pagecolor="#505050"
     bordercolor="#eeeeee"
     borderopacity="1"
     inkscape:showpageshadow="0"
     inkscape:pageopacity="0"
     inkscape:pagecheckerboard="0"
     inkscape:deskcolor="#505050"
     showgrid="false"
     inkscape:zoom="1.9947596"
     inkscape:cx="-63.66682"
     inkscape:cy="78.706226"
     inkscape:window-width="1884"
     inkscape:window-height="1052"
     inkscape:window-x="36"
     inkscape:window-y="0"
     inkscape:window-maximized="1"
     inkscape:current-layer="Calque_1" /><path
     d="m 93.217401,79.470801 a 42.611213,42.611213 0 1 0 -85.2123702,0 v 4.112314 l 0.1608729,4.152532 C 10.940961,121.51896 39.485849,131.2015 63.003458,139.83836 c 10.949412,4.02182 21.285497,7.82245 27.710359,13.6742 l 2.503584,2.28238 v -19.65666 l -0.733982,-0.43234 C 87.818104,132.93088 81.32286,130.67866 73.791997,128.06448 53.371192,121.02629 26.123343,112.28888 24.524668,87.735647 H 93.217401 V 79.480856 Z M 23.589594,73.880467 24.031995,72.12092 a 27.016595,27.016595 0 0 1 3.740295,-8.455882 27.348395,27.348395 0 0 1 49.267329,8.455882 l 0.442401,1.759547 z"
     style="fill:#ffb0ac;stroke-width:1.00546"
     id="path19727" /><path
     d="m 98.747408,87.725592 h 68.743002 c -1.62883,24.543178 -28.88674,33.240368 -49.26733,40.328828 -7.53086,2.60413 -14.07638,4.86641 -18.701471,7.63141 l -0.733983,0.4424 v 19.6466 l 2.503584,-2.28238 c 6.42486,-5.85175 16.76095,-9.65237 27.71036,-13.6742 23.50755,-8.63686 52.0625,-18.3194 54.83755,-52.102712 L 184,83.563006 v -4.102259 a 42.621267,42.621267 0 0 0 -85.232483,0 v 8.2749 z m 15.685112,-13.845125 0.4424,-1.759547 a 27.348395,27.348395 0 0 1 49.26733,-8.455882 26.936158,26.936158 0 0 1 3.7604,8.455882 l 0.4424,1.759547 z"
     style="fill:#56595b;fill-opacity:1;stroke-width:1.00546"
     id="path19729" /></svg>
