<?xml version="1.0" encoding="utf-8"?>
<!-- Generator: Adobe Illustrator 16.0.0, SVG Export Plug-In . SVG Version: 6.00 Build 0)  -->
<!DOCTYPE svg PUBLIC "-//W3C//DTD SVG 1.1//EN" "http://www.w3.org/Graphics/SVG/1.1/DTD/svg11.dtd">
<svg version="1.1" id="Layer_1" xmlns="http://www.w3.org/2000/svg" xmlns:xlink="http://www.w3.org/1999/xlink" x="0px" y="0px"
	 width="192px" height="192px" viewBox="0 0 192 192" enable-background="new 0 0 192 192" xml:space="preserve">
<g>
	<path fill="#56595B" d="M185.577,180.028c0,3.298-2.674,5.972-5.972,5.972H12.395c-3.298,0-5.972-2.674-5.972-5.972V12.817
		c0-3.298,2.674-5.972,5.972-5.972h167.211c3.298,0,5.972,2.674,5.972,5.972V180.028z"/>
	<path fill="#FFFFFF" d="M141.657,142.814c-1.476,5.294-6.932,8.4-12.188,6.937L62.21,131.021
		c-5.257-1.462-8.322-6.944-6.848-12.238L74.23,51.026c1.475-5.294,6.932-8.402,12.188-6.937l67.259,18.728
		c5.256,1.464,8.322,6.945,6.849,12.239L141.657,142.814z"/>
	
		<rect x="73.287" y="61.445" transform="matrix(0.9634 0.2682 -0.2682 0.9634 29.7887 -25.4742)" fill="#8FDFD4" width="69.671" height="69.671"/>
	<path fill="#FFFFFF" d="M135.813,122.135c0,5.496-4.423,9.952-9.879,9.952H56.114c-5.456,0-9.879-4.456-9.879-9.952V51.799
		c0-5.496,4.423-9.953,9.879-9.953h69.819c5.456,0,9.879,4.457,9.879,9.953V122.135z"/>
	<path fill="#EAEAEA" d="M61.451,96.92h92.987l0.744-2.676c-15.101-1.178-35.103-2.301-56.527-2.301h-5.64
		c-10.614,0-20.879,0.275-30.372,0.697L61.451,96.92z"/>
	<path fill="#67BFB0" d="M71.783,96.92h72.322l0.946-3.401c-13.435-0.875-29.472-1.576-46.397-1.576h-5.64
		c-6.826,0-13.506,0.115-19.931,0.308L71.783,96.92z"/>
	<g>
		<path fill="#FFFFFF" d="M135.813,122.135c0,5.496-4.423,9.952-9.879,9.952H56.114c-5.456,0-9.879-4.456-9.879-9.952V51.799
			c0-5.496,4.423-9.953,9.879-9.953h69.819c5.456,0,9.879,4.457,9.879,9.953V122.135z"/>
		<rect x="56.188" y="51.468" fill="#8FDFD4" width="69.67" height="69.671"/>
		<path fill="#EAEAEA" d="M46.235,96.92h89.577v-3.948c-11.305-0.602-23.961-1.028-37.158-1.028h-5.64
			c-17.086,0-33.267,0.715-46.779,1.601V96.92z"/>
		<path fill="#67BFB0" d="M56.188,96.92h69.67v-4.414c-8.594-0.344-17.759-0.563-27.204-0.563h-5.64
			c-13.068,0-25.605,0.418-36.826,1.011V96.92z"/>
	</g>
	<path fill="#8FDFD4" d="M6.423,96.588v83.44c0,3.298,2.674,5.972,5.972,5.972h167.211c3.298,0,5.972-2.674,5.972-5.972v-83.44
		H6.423z"/>
	<g>
		<circle fill="#F2F2F2" cx="51.377" cy="121.637" r="5.143"/>
		<path fill="#F2F2F2" d="M64.316,124.457h19.243c1.557,0,2.82-1.263,2.82-2.82s-1.263-2.819-2.82-2.819H64.316
			c-1.557,0-2.82,1.262-2.82,2.819S62.759,124.457,64.316,124.457z"/>
		<circle fill="#F2F2F2" cx="51.377" cy="136.4" r="5.143"/>
		<path fill="#F2F2F2" d="M83.559,133.581H64.316c-1.557,0-2.82,1.263-2.82,2.819s1.263,2.819,2.82,2.819h19.243
			c1.557,0,2.82-1.263,2.82-2.819S85.116,133.581,83.559,133.581z"/>
		<circle fill="#F2F2F2" cx="51.377" cy="151.164" r="5.143"/>
		<path fill="#F2F2F2" d="M83.559,148.344H64.316c-1.557,0-2.82,1.263-2.82,2.819c0,1.558,1.263,2.82,2.82,2.82h19.243
			c1.557,0,2.82-1.263,2.82-2.82C86.379,149.606,85.116,148.344,83.559,148.344z"/>
	</g>
	<circle fill="#67BFB0" cx="126.025" cy="138.724" r="20.404"/>
	<circle fill="#FFFFFF" cx="126.025" cy="136.401" r="20.404"/>
	<path fill="#8FDFD4" d="M129.302,136.553l5.399-5.289c1.004-0.939,1.055-2.515,0.116-3.518c-0.94-1.003-2.515-1.054-3.518-0.115
		l-5.554,5.439l-5.554-5.439c-1.003-0.938-2.576-0.888-3.517,0.115c-0.938,1.003-0.889,2.578,0.114,3.518l5.401,5.289l-5.401,5.287
		c-1.003,0.94-1.053,2.515-0.114,3.518c0.94,1.004,2.514,1.054,3.517,0.115l5.554-5.439l5.554,5.439
		c1.003,0.938,2.577,0.889,3.518-0.115c0.938-1.003,0.888-2.577-0.116-3.518L129.302,136.553z"/>
</g>
</svg>
