<?xml version="1.0" encoding="UTF-8" standalone="no"?>
<svg
   xmlns:dc="http://purl.org/dc/elements/1.1/"
   xmlns:cc="http://creativecommons.org/ns#"
   xmlns:rdf="http://www.w3.org/1999/02/22-rdf-syntax-ns#"
   xmlns:svg="http://www.w3.org/2000/svg"
   xmlns="http://www.w3.org/2000/svg"
   version="1.1"
   id="svg2"
   viewBox="0 0 192 192"
   height="192"
   width="192">
  <metadata
     id="metadata20">
    <rdf:RDF>
      <cc:Work
         rdf:about="">
        <dc:format>image/svg+xml</dc:format>
        <dc:type
           rdf:resource="http://purl.org/dc/dcmitype/StillImage" />
        <dc:title></dc:title>
      </cc:Work>
    </rdf:RDF>
  </metadata>
  <defs
     id="defs18" />
  <g
     id="g3431">
    <rect
       style="fill:#54688c;fill-opacity:1;fill-rule:evenodd;stroke:none;stroke-opacity:1"
       id="rect6-2"
       rx="10"
       y="-172.5"
       x="19.499996"
       height="153"
       width="153"
       transform="scale(1,-1)" />
    <g
       id="g3415">
      <g
         id="g3403">
        <g
           transform="translate(-234.93552,190.5282)"
           id="g5033">
          <path
             id="path4816"
             d="m 373.82466,-64.172792 7.67321,-13.402239 c 0.0142,-0.0239 0.0288,-0.04599 0.0426,-0.07009 0.0142,-0.02471 0.0271,-0.05061 0.0411,-0.07546 l 0.32249,-0.56482 -0.0169,-0.0097 c 2.91077,-5.828268 0.96645,-12.938749 -4.51067,-16.474829 l 0.003,-0.0052 -0.066,-0.03797 c -0.17313,-0.10994 -0.34981,-0.217885 -0.52989,-0.320521 -0.18005,-0.102727 -0.36142,-0.198608 -0.54381,-0.292415 l -10.93748,-6.262644 -0.075,0.13037 c -4.41634,-2.79251 -10.26621,-1.51311 -13.10521,2.886326 -2.8547,4.423768 -1.58373,10.323251 2.83913,13.179465 l 0.0119,0.0068 c 0.88789,0.655796 2.37883,1.342344 2.64636,1.972399 l -4.31554,7.539837 -4.34601,7.522308 c -0.67912,0.08568 -2.02242,-0.857596 -3.03582,-1.295145 l -0.0118,-0.0068 c -4.69323,-2.386033 -10.43141,-0.517194 -12.81899,4.175185 -2.37445,4.666577 -0.53785,10.366127 4.09705,12.778572 l -0.075,0.130371 10.91415,6.303217 c 0.17261,0.110798 0.34691,0.218989 0.52625,0.32293 0.17929,0.104023 0.3616,0.202172 0.54356,0.296769 l 0.066,0.03797 0.003,-0.0052 c 5.81112,2.955266 12.93465,1.059269 16.50793,-4.388006 l 0.0169,0.0097 0.32596,-0.562817 c 0.0145,-0.02456 0.0303,-0.04876 0.0446,-0.07347 0.0139,-0.0241 0.0256,-0.04778 0.0392,-0.07208 l 7.72401,-13.373027 z"
             style="opacity:1;fill:#9abeff;fill-opacity:1;fill-rule:nonzero;stroke:none;stroke-width:2.5;stroke-linecap:round;stroke-linejoin:round;stroke-miterlimit:4;stroke-dasharray:none;stroke-dashoffset:150;stroke-opacity:1" />
          <path
             transform="matrix(-0.98689722,-0.16135014,-0.16135014,0.98689722,0,0)"
             d="m -343.15766,-122.91593 a 15.221073,15.221073 0 0 1 -16.00831,14.38577 15.221073,15.221073 0 0 1 -14.39081,-16.00379 15.221073,15.221073 0 0 1 15.99926,-14.39584 15.221073,15.221073 0 0 1 14.40087,15.99474"
             id="path4230-5-6-2-0-7"
             style="opacity:1;fill:#728dbe;fill-opacity:1;fill-rule:nonzero;stroke:none;stroke-width:2.5;stroke-linecap:round;stroke-linejoin:round;stroke-miterlimit:4;stroke-dasharray:none;stroke-dashoffset:150;stroke-opacity:1" />
        </g>
        <g
           transform="translate(-234.93552,190.5282)"
           id="g5041">
          <path
             id="path4816-9"
             d="m 288.04833,-63.772133 7.96056,13.233581 c 0.0139,0.02405 0.0261,0.04753 0.0404,0.07137 0.0146,0.02445 0.031,0.04837 0.0459,0.07266 l 0.33592,0.556941 0.0168,-0.01004 c 3.66958,5.382891 10.82568,7.151915 16.58334,4.093795 l 0.003,0.0051 0.0654,-0.03914 c 0.18039,-0.09756 0.36078,-0.199192 0.53819,-0.306386 0.17747,-0.107113 0.34961,-0.218729 0.52043,-0.332235 l 10.80035,-6.496274 -0.0773,-0.129017 c 4.59127,-2.494472 6.32625,-8.225767 3.8692,-12.849388 -2.47063,-4.649196 -8.24113,-6.415715 -12.8912,-3.946614 l -0.0117,0.007 c -1.00546,0.455498 -2.33177,1.422518 -3.0123,1.348925 l -4.47908,-7.443848 -4.44891,-7.461914 c 0.25629,-0.634713 1.73478,-1.34767 2.61087,-2.019149 l 0.0117,-0.007 c 4.37137,-2.934401 5.53725,-8.855549 2.60435,-13.227853 -2.91677,-4.348261 -8.78847,-5.523451 -13.15446,-2.652871 l -0.0773,-0.12902 -10.8244,6.456127 c -0.18089,0.09669 -0.36033,0.196126 -0.53852,0.302038 -0.17823,0.105821 -0.35281,0.217147 -0.52411,0.329892 l -0.0654,0.03914 0.003,0.0051 c -5.41338,3.632904 -7.23096,10.776848 -4.21704,16.552433 l -0.0168,0.01004 0.33248,0.558988 c 0.0144,0.0246 0.0278,0.05027 0.0424,0.07472 0.0143,0.02385 0.0292,0.04568 0.0439,0.06932 l 7.91029,13.263692 z"
             style="opacity:1;fill:#fdf5d9;fill-opacity:1;fill-rule:nonzero;stroke:none;stroke-width:2.5;stroke-linecap:round;stroke-linejoin:round;stroke-miterlimit:4;stroke-dasharray:none;stroke-dashoffset:150;stroke-opacity:1" />
          <path
             transform="matrix(0.62202341,-0.78299865,-0.78299865,-0.62202341,0,0)"
             d="m 244.52085,-185.14102 a 15.221073,15.221073 0 0 1 -16.00831,14.38577 15.221073,15.221073 0 0 1 -14.3908,-16.00378 15.221073,15.221073 0 0 1 15.99926,-14.39584 15.221073,15.221073 0 0 1 14.40086,15.99473"
             id="path4230-5-6-2-0-7-4"
             style="opacity:1;fill:#f9de81;fill-opacity:1;fill-rule:nonzero;stroke:none;stroke-width:2.5;stroke-linecap:round;stroke-linejoin:round;stroke-miterlimit:4;stroke-dasharray:none;stroke-dashoffset:150;stroke-opacity:1" />
        </g>
        <g
           transform="translate(-234.93552,190.5282)"
           id="g5037">
          <path
             id="path4816-8"
             d="m 330.25474,-137.80566 15.44337,-0.0178 c 0.0278,-4.8e-4 0.0542,-0.002 0.082,-0.002 0.0285,-8e-5 0.0574,0.002 0.0859,0.002 l 0.65041,2e-5 5e-5,0.0195 c 6.50462,0.36227 11.71528,5.57652 12.07015,12.08626 l 0.006,-2e-5 2.3e-4,0.0762 c 0.01,0.20487 0.0158,0.41182 0.0156,0.6191 -7e-5,0.20729 -0.007,0.41234 -0.0157,0.61724 l 0.0151,12.60353 -0.15039,4.6e-4 c 0.23514,5.21985 -3.7766,9.6655 -9.00483,9.9494 -5.25714,0.28547 -9.75005,-3.74356 -10.03728,-9.00066 l -5e-5,-0.0137 c -0.12922,-1.09623 0.0139,-2.73139 -0.40062,-3.27614 l -8.68751,0.009 -8.68741,0.0441 c -0.41115,0.54726 -0.25809,2.18152 -0.38062,3.27852 l 4e-5,0.0137 c -0.25514,5.25876 -4.72337,9.31513 -9.98215,9.06176 -5.22986,-0.25198 -9.26868,-4.67307 -9.0654,-9.89426 l -0.15039,4.6e-4 -0.0619,-12.60338 c -0.0106,-0.20484 -0.0181,-0.40985 -0.0195,-0.61713 -0.001,-0.20728 0.004,-0.41427 0.0118,-0.61918 l -2.3e-4,-0.0762 0.006,-2e-5 c 0.31513,-6.51179 5.49388,-11.75774 11.99616,-12.15972 l -6e-5,-0.0195 0.65038,-0.004 c 0.0285,-3.9e-4 0.0574,-0.002 0.0859,-0.002 0.0278,-9e-5 0.0542,0.001 0.082,0.002 l 15.4432,-0.0764 z"
             style="opacity:1;fill:#98dc9a;fill-opacity:1;fill-rule:nonzero;stroke:none;stroke-width:2.5;stroke-linecap:round;stroke-linejoin:round;stroke-miterlimit:4;stroke-dasharray:none;stroke-dashoffset:150;stroke-opacity:1" />
          <path
             transform="matrix(-0.34924423,0.93703173,-0.93703173,-0.34924423,0,0)"
             d="m -229.05328,-260.59866 a 15.221073,15.221073 0 0 1 -16.00831,14.38577 15.221073,15.221073 0 0 1 -14.3908,-16.00378 15.221073,15.221073 0 0 1 15.99926,-14.39584 15.221073,15.221073 0 0 1 14.40087,15.99473"
             id="path4230-5-6-2-0-7-45"
             style="opacity:1;fill:#71a372;fill-opacity:1;fill-rule:nonzero;stroke:none;stroke-width:2.5;stroke-linecap:round;stroke-linejoin:round;stroke-miterlimit:4;stroke-dasharray:none;stroke-dashoffset:150;stroke-opacity:1" />
        </g>
      </g>
      <g
         id="g3410">
        <circle
           style="fill:#ffffff;fill-opacity:1;fill-rule:evenodd;stroke:none;stroke-width:0.68493152"
           id="circle10-9-6"
           r="23.24332"
           cy="-102.10355"
           cx="95.75"
           transform="scale(1,-1)" />
        <g
           style="font-style:normal;font-weight:normal;font-size:40px;line-height:125%;font-family:sans-serif;letter-spacing:0px;word-spacing:0px;fill:#c39a54;fill-opacity:1;stroke:none;stroke-width:1px;stroke-linecap:butt;stroke-linejoin:miter;stroke-opacity:1"
           id="text3395">
          <path
             d="m 102.25543,104.39065 -2.1,0 0,-14.400004 -4.537502,0 -9.825,17.775004 10.7625,0 0,4.725 3.600002,0 0,-4.725 2.1,0 z m -10.99068,0 5.449389,-10.049108 -0.158714,10.049108 z"
             style="font-style:normal;font-variant:normal;font-weight:500;font-stretch:normal;font-size:30px;font-family:'Now Alt';-inkscape-font-specification:'Now Alt Medium';fill:#c39a54;fill-opacity:1"
             id="path3400" />
        </g>
      </g>
    </g>
  </g>
</svg>
