<svg xmlns="http://www.w3.org/2000/svg" xmlns:xlink="http://www.w3.org/1999/xlink" viewBox="0 0 192 192"><defs><clipPath id="a"><rect x="19.5" y="19.5" width="153" height="153" rx="10" style="fill:none"/></clipPath></defs><g style="clip-path:url(#a)"><rect x="19.5" y="19.5" width="153" height="153" rx="10" style="fill:#9abeff"/><path d="M132.55,91.5a1.35,1.35,0,0,1,1.35,1.35v27.2q0,10.68-5,15.82T113.59,141H78.41q-10.35,0-15.33-5.13t-5-15.82V92.85a1.35,1.35,0,0,1,1.35-1.35ZM94.11,114.14H90a.3.3,0,0,0-.3.3v10.7a.31.31,0,0,0,.3.3h4.1a.31.31,0,0,0,.3-.3v-10.7A.3.3,0,0,0,94.11,114.14Zm16-7.08h-3.9a.29.29,0,0,0-.3.29v17.79a.29.29,0,0,0,.3.29h3.9a.3.3,0,0,0,.3-.29V107.35A.3.3,0,0,0,110.15,107.06Zm-13.31,0H82a.29.29,0,0,0-.3.29v17.79a.29.29,0,0,0,.3.29h3.9a.3.3,0,0,0,.3-.29v-14a.3.3,0,0,1,.3-.3h8.4a2.85,2.85,0,0,1,3,3v11.28a.3.3,0,0,0,.31.29h3.89a.3.3,0,0,0,.31-.29V112.52a5,5,0,0,0-1.47-3.85A5.26,5.26,0,0,0,96.84,107.06Z" style="fill:#fff"/><path d="M83.33,57.37a15.34,15.34,0,0,0-4.73.71,16.17,16.17,0,0,0-4.54,2.25,15.4,15.4,0,0,0-3.75,3.8c-.15.24-.31.48-.47.72a7.37,7.37,0,0,0-.47.85A13.17,13.17,0,0,1,75,68.07a14.26,14.26,0,0,1,4.1,4.55,12.06,12.06,0,0,1,.55,10.6,23.92,23.92,0,0,0,3.82-1,15.27,15.27,0,0,0,3-1.44,17.18,17.18,0,0,0,5.57-5.17,12.63,12.63,0,0,0,2.14-7.31,11.41,11.41,0,0,0-1.43-5.82,9.68,9.68,0,0,0-3.89-3.8A11.65,11.65,0,0,0,83.33,57.37Zm2.09,11.34a1.43,1.43,0,0,1-1.14.36,1.46,1.46,0,0,1-1-.57,1.59,1.59,0,0,1-.33-1.13,1.41,1.41,0,0,1,.53-1l3.33-2.78a1.63,1.63,0,0,1,1.11-.34,1.39,1.39,0,0,1,1,.57A1.53,1.53,0,0,1,88.72,66Zm-6,36.4h2.08a3.58,3.58,0,0,0,2.5-.85,3,3,0,0,0,.94-2.35V85a25.91,25.91,0,0,1-4.44,1.7,23.26,23.26,0,0,1-4.54.76v14.42a3,3,0,0,0,1,2.35A3.59,3.59,0,0,0,79.39,105.11Zm-10-18.61a8.79,8.79,0,0,0,4.13-1,7.32,7.32,0,0,0,2.94-2.77,8.3,8.3,0,0,0,1.09-4.36,8.73,8.73,0,0,0-1.39-4.72,11.27,11.27,0,0,0-3.73-3.63,9.61,9.61,0,0,0-5.12-1.42,7.63,7.63,0,0,0-6.93,4,8.32,8.32,0,0,0-1,4,9.31,9.31,0,0,0,1.41,5.08,10.15,10.15,0,0,0,3.7,3.49A9.87,9.87,0,0,0,69.37,86.5Zm-1-4.14a1.37,1.37,0,0,1-1.7,0,7.79,7.79,0,0,1-2.17-2A9.19,9.19,0,0,1,62.94,78a1.34,1.34,0,0,1,.3-1.62A1.45,1.45,0,0,1,65,76.26a7.56,7.56,0,0,1,2.16,2,9.29,9.29,0,0,1,1.52,2.5A1.34,1.34,0,0,1,68.33,82.36Z" style="fill:#fff"/><path d="M108.73,51a11.77,11.77,0,0,0-5.57,1.36,9.87,9.87,0,0,0-3.89,3.8A11.46,11.46,0,0,0,97.85,62,12.77,12.77,0,0,0,100,69.29a17.28,17.28,0,0,0,5.53,5.18,16.72,16.72,0,0,0,3,1.44,25,25,0,0,0,3.84,1,12,12,0,0,1-1-4.81A11.52,11.52,0,0,1,113,66.26,14.2,14.2,0,0,1,117,61.71a13.13,13.13,0,0,1,5.66-2.37,8.16,8.16,0,0,0-.46-.85c-.15-.25-.31-.49-.48-.73A15.57,15.57,0,0,0,118,54a16,16,0,0,0-4.54-2.25A15.34,15.34,0,0,0,108.73,51Zm-2.08,11.34-3.28-2.75a1.4,1.4,0,0,1-.55-1,1.62,1.62,0,0,1,.34-1.1,1.34,1.34,0,0,1,1-.57,1.57,1.57,0,0,1,1.11.34L108.63,60a1.38,1.38,0,0,1,.55,1,1.74,1.74,0,0,1-.35,1.13,1.37,1.37,0,0,1-1,.57A1.49,1.49,0,0,1,106.65,62.34Zm6,36.41a3.62,3.62,0,0,0,2.51-.85,3,3,0,0,0,.95-2.35V81.13a24.42,24.42,0,0,1-4.55-.76,23.44,23.44,0,0,1-4.4-1.71V95.55a3,3,0,0,0,.93,2.35,3.51,3.51,0,0,0,2.48.85Zm10-18.61a10,10,0,0,0,4.88-1.27,10.18,10.18,0,0,0,3.7-3.5,9.25,9.25,0,0,0,1.41-5.07,8.18,8.18,0,0,0-1-4,7.59,7.59,0,0,0-2.76-2.92,7.68,7.68,0,0,0-4.17-1.11,9.69,9.69,0,0,0-5.12,1.41,11.08,11.08,0,0,0-3.72,3.64,8.63,8.63,0,0,0-1.4,4.71,8.28,8.28,0,0,0,1.09,4.36,7.28,7.28,0,0,0,2.94,2.78A8.91,8.91,0,0,0,122.69,80.14Zm1-4.15a1.33,1.33,0,0,1-.32-1.61,9.14,9.14,0,0,1,1.52-2.5,7.65,7.65,0,0,1,2.17-2,1.43,1.43,0,0,1,1.72.08,1.31,1.31,0,0,1,.3,1.61,9,9,0,0,1-1.52,2.48,8.32,8.32,0,0,1-2.18,2A1.35,1.35,0,0,1,123.73,76Z" style="fill:#fff"/></g></svg>