<?xml version="1.0" encoding="UTF-8" standalone="no"?>
<svg
   xmlns:dc="http://purl.org/dc/elements/1.1/"
   xmlns:cc="http://creativecommons.org/ns#"
   xmlns:rdf="http://www.w3.org/1999/02/22-rdf-syntax-ns#"
   xmlns:svg="http://www.w3.org/2000/svg"
   xmlns="http://www.w3.org/2000/svg"
   xmlns:sodipodi="http://sodipodi.sourceforge.net/DTD/sodipodi-0.dtd"
   xmlns:inkscape="http://www.inkscape.org/namespaces/inkscape"
   sodipodi:docname="mi_browser_pro.svg"
   inkscape:version="1.0.1 (3bc2e813f5, 2020-09-07)"
   version="1.1"
   id="svg2"
   viewBox="0 0 192 192"
   height="192"
   width="192"
   inkscape:export-filename="/home/jphilippe/inkscape/icônes/delta-github/png/mi_browser_pro.png"
   inkscape:export-xdpi="96"
   inkscape:export-ydpi="96">
  <sodipodi:namedview
     inkscape:document-rotation="0"
     inkscape:window-maximized="1"
     inkscape:window-y="0"
     inkscape:window-x="36"
     inkscape:window-height="1052"
     inkscape:window-width="1884"
     units="px"
     showgrid="false"
     inkscape:current-layer="layer1"
     inkscape:document-units="px"
     inkscape:cy="91.567683"
     inkscape:cx="104.03447"
     inkscape:zoom="4"
     inkscape:pageshadow="2"
     inkscape:pageopacity="0.0"
     borderopacity="1.0"
     bordercolor="#666666"
     pagecolor="#ffffff"
     id="base"
     inkscape:snap-bbox="false"
     inkscape:object-paths="true"
     inkscape:snap-nodes="true"
     showguides="true"
     inkscape:guide-bbox="true"
     inkscape:snap-object-midpoints="true"
     inkscape:snap-center="true"
     inkscape:snap-global="false"
     inkscape:snap-intersection-paths="true"
     inkscape:snap-smooth-nodes="false"
     inkscape:snap-midpoints="true">
    <inkscape:grid
       type="xygrid"
       id="grid957" />
  </sodipodi:namedview>
  <defs
     id="defs4">
    <inkscape:path-effect
       effect="fillet_chamfer"
       id="path-effect1381"
       is_visible="true"
       lpeversion="1"
       satellites_param="F,0,0,1,0,0,0,1 @ F,0,1,1,0,10,0,1 @ F,0,1,1,0,10,0,1 @ F,0,1,1,0,10,0,1 @ F,0,0,1,0,0,0,1"
       unit="px"
       method="auto"
       mode="F"
       radius="10"
       chamfer_steps="1"
       flexible="false"
       use_knot_distance="true"
       apply_no_radius="true"
       apply_with_radius="true"
       only_selected="true"
       hide_knots="false" />
    <inkscape:path-effect
       effect="fillet_chamfer"
       id="path-effect1207"
       is_visible="true"
       lpeversion="1"
       satellites_param="F,0,1,1,0,51.990021,0,1 @ F,0,0,1,0,0,0,1 @ F,0,0,1,0,0,0,1 @ F,0,0,1,0,0,0,1"
       unit="px"
       method="auto"
       mode="F"
       radius="23"
       chamfer_steps="1"
       flexible="false"
       use_knot_distance="true"
       apply_no_radius="true"
       apply_with_radius="true"
       only_selected="true"
       hide_knots="false" />
  </defs>
  <metadata
     id="metadata7">
    <rdf:RDF>
      <cc:Work
         rdf:about="">
        <dc:format>image/svg+xml</dc:format>
        <dc:type
           rdf:resource="http://purl.org/dc/dcmitype/StillImage" />
        <dc:title></dc:title>
      </cc:Work>
    </rdf:RDF>
  </metadata>
  <g
     transform="translate(0,-860.36216)"
     id="layer1"
     inkscape:groupmode="layer"
     inkscape:label="Calque 1">
    <rect
       style="fill:#ffffff;fill-opacity:1;fill-rule:evenodd;stroke:none;stroke-width:6.21406;stroke-opacity:1"
       width="1263.22"
       height="715.5752"
       x="1925.0502"
       y="1768.9003"
       rx="82.563393"
       id="rect1087"
       inkscape:export-filename="/home/jphilippe/inkscape/icônes/delta-github/png/path1130.png"
       inkscape:export-xdpi="96"
       inkscape:export-ydpi="96" />
    <circle
       style="fill:#54688c;fill-opacity:1;fill-rule:evenodd;stroke:none;stroke-width:0.999994;stroke-opacity:1"
       cx="95.999985"
       cy="956.36212"
       r="88"
       id="circle963" />
    <path
       id="path965"
       style="fill:#708cbd;fill-opacity:1;stroke:none;stroke-width:0.527098px;stroke-linecap:butt;stroke-linejoin:miter;stroke-opacity:1"
       d="m 106.48925,946.86311 c 0.17885,-0.17041 -18.514619,-7.12443 -19.953701,-5.85516 -0.845834,0.74605 -11.487883,2.51415 -12.688295,3.7484 0,0 -14.452175,13.58817 -16.111373,32.94992 -1.659145,19.36174 10.99394,47.58483 34.839996,58.50733 23.846113,10.9224 46.673713,-4.036 62.450003,-14.5828 17.76483,-16.0399 28.97409,-39.34522 28.97409,-65.26865 0,-2.86119 -0.13652,-5.69049 -0.41362,-8.55362 0,0 -2.63243,30.89413 -26.67383,43.50417 -24.04145,12.61 -43.19238,6.07242 -53.31392,-3.63198 -10.121544,-9.7044 -13.173018,-27.57964 0.90671,-38.92732 z"
       sodipodi:nodetypes="sscsscscsscs" />
    <path
       id="path967"
       style="fill:#99bdfe;fill-opacity:1;fill-rule:evenodd;stroke:none;stroke-width:0.527098;stroke-miterlimit:4;stroke-dasharray:none;stroke-opacity:1"
       d="m 7.999999,956.36215 c 0,-39.74783 26.352353,-73.34073 62.538873,-84.26044 v 0 c 13.897194,-1.73808 28.762982,-2.19227 44.267928,2.43332 49.56848,14.78777 44.75866,51.76314 34.57055,63.67358 -10.18812,11.91043 -24.90716,19.05422 -45.17391,10.37489 -7.366083,-3.15454 -14.394509,-6.07298 -28.207525,-4.17571 -21.925998,3.0116 -37.321573,21.71922 -41.153256,34.48269 -5.133984,17.10125 0.510178,38.29732 10.480072,49.41932 C 22.742868,1012.3787 7.999999,986.09214 7.999999,956.36215 Z"
       sodipodi:nodetypes="sccszssscs" />
    <path
       id="path970"
       style="fill:#99bdfe;fill-opacity:1;stroke:none;stroke-width:0.527098px;stroke-linecap:butt;stroke-linejoin:miter;stroke-opacity:1"
       d="m 45.423934,1028.3855 c -9.976009,-11.1218 -22.865181,-29.30247 -17.937556,-46.46433 6.713907,-23.38326 31.57547,-48.87138 50.974404,-43.72856 2.488269,0.65966 4.14051,3.22271 4.59471,5.61972 0,0 -15.0051,13.66448 -16.664298,33.02622 -1.659146,19.36175 6.74569,41.62285 30.591747,52.54535 23.846109,10.9224 42.266649,2.7937 58.106039,-7.8102 -15.62571,14.1641 -36.35019,22.7885 -59.088971,22.7885 -18.823975,0 -36.267482,-5.9104 -50.576075,-15.9767"
       sodipodi:nodetypes="csscsscsc" />
    <path
       id="path972"
       style="fill:#ffffff;fill-opacity:0.25;fill-rule:evenodd;stroke:none;stroke-width:0.527098;stroke-miterlimit:4;stroke-dasharray:none;stroke-opacity:1"
       d="m 7.999999,956.36215 c 0,-39.74783 26.352353,-73.34073 62.538873,-84.26044 v 0 c 13.897194,-1.73808 28.762982,-2.19227 44.267928,2.43332 49.56848,14.78777 44.75866,51.76314 34.57055,63.67358 -10.18812,11.91043 -24.90716,19.05422 -45.17391,10.37489 -7.366083,-3.15454 -14.394509,-6.07298 -28.207525,-4.17571 -21.925998,3.0116 -37.321573,21.71922 -41.153256,34.48269 -5.133984,17.10125 0.510178,38.29732 10.480072,49.41932 C 22.742868,1012.3787 7.999999,986.09214 7.999999,956.36215 Z"
       sodipodi:nodetypes="sccszssscs" />
  </g>
  <style
     type="text/css"
     id="style853">
	.st0{fill:#FFFFFF;}
</style>
</svg>
