<?xml version="1.0" encoding="UTF-8" standalone="no"?>
<svg
   xmlns:dc="http://purl.org/dc/elements/1.1/"
   xmlns:cc="http://creativecommons.org/ns#"
   xmlns:rdf="http://www.w3.org/1999/02/22-rdf-syntax-ns#"
   xmlns:svg="http://www.w3.org/2000/svg"
   xmlns="http://www.w3.org/2000/svg"
   xmlns:sodipodi="http://sodipodi.sourceforge.net/DTD/sodipodi-0.dtd"
   xmlns:inkscape="http://www.inkscape.org/namespaces/inkscape"
   sodipodi:docname="mi_security.svg"
   inkscape:version="1.0.1 (3bc2e813f5, 2020-09-07)"
   version="1.1"
   id="svg2"
   viewBox="0 0 192 192"
   height="192"
   width="192"
   inkscape:export-filename="/home/jphilippe/inkscape/icônes/delta-github/png/mi_security.png"
   inkscape:export-xdpi="96"
   inkscape:export-ydpi="96">
  <sodipodi:namedview
     inkscape:document-rotation="0"
     inkscape:window-maximized="1"
     inkscape:window-y="30"
     inkscape:window-x="1920"
     inkscape:window-height="1022"
     inkscape:window-width="1680"
     units="px"
     showgrid="false"
     inkscape:current-layer="layer1"
     inkscape:document-units="px"
     inkscape:cy="304.3137"
     inkscape:cx="552.53561"
     inkscape:zoom="0.3535534"
     inkscape:pageshadow="2"
     inkscape:pageopacity="0.0"
     borderopacity="1.0"
     bordercolor="#666666"
     pagecolor="#ffffff"
     id="base"
     inkscape:snap-bbox="false"
     inkscape:object-paths="true"
     inkscape:snap-nodes="true"
     showguides="true"
     inkscape:guide-bbox="true"
     inkscape:snap-object-midpoints="true"
     inkscape:snap-center="true"
     inkscape:snap-global="true"
     inkscape:snap-intersection-paths="true"
     inkscape:snap-smooth-nodes="true"
     inkscape:snap-midpoints="true"
     inkscape:object-nodes="false" />
  <defs
     id="defs4" />
  <metadata
     id="metadata7">
    <rdf:RDF>
      <cc:Work
         rdf:about="">
        <dc:format>image/svg+xml</dc:format>
        <dc:type
           rdf:resource="http://purl.org/dc/dcmitype/StillImage" />
        <dc:title />
      </cc:Work>
    </rdf:RDF>
  </metadata>
  <g
     transform="translate(0,-860.36216)"
     id="layer1"
     inkscape:groupmode="layer"
     inkscape:label="Calque 1">
    <rect
       style="fill:#96dfd3;fill-opacity:1;fill-rule:evenodd;stroke:none;stroke-opacity:1"
       width="153"
       height="153"
       x="19.5"
       y="879.86218"
       rx="10"
       id="rect1044" />
    <path
       id="path1020"
       style="fill:#fefefe;fill-opacity:1;stroke:none;stroke-width:0.799343px;stroke-linecap:butt;stroke-linejoin:miter;stroke-opacity:1"
       d="m 93.79132,920.31142 -27.990863,11.87223 a 3.6219304,3.6219304 0 0 0 -2.207657,3.33439 v 22.24734 c 0,1.32439 -0.01287,3.47337 0.07985,4.79423 0.268092,3.81883 1.186841,6.28931 2.381691,8.43498 0.644174,1.1568 1.844236,2.94169 2.650229,3.9923 4.14552,5.40368 11.618114,12.16473 25.054708,17.50823 1.230605,0.48939 3.248834,0.48939 4.479446,0 13.436746,-5.34351 20.910476,-12.10457 25.056236,-17.50826 0.80602,-1.05058 2.00611,-2.8355 2.6503,-3.99234 1.19484,-2.14567 2.11357,-4.61616 2.38166,-8.43499 0.0927,-1.32082 0.0798,-3.46976 0.0798,-4.79415 v -22.24734 a 3.6218624,3.6218624 0 0 0 -2.20767,-3.33436 L 98.206651,920.31139 a 5.6539146,5.6539146 0 0 0 -4.415331,3e-5 z" />
    <path
       id="path1022"
       style="fill:#96dfd3;fill-opacity:0.5;stroke:none;stroke-width:0.799343px;stroke-linecap:butt;stroke-linejoin:miter;stroke-opacity:1"
       d="m 95.999609,919.86216 v 72.99937 c 0.812204,0 1.623473,-0.1222 2.238784,-0.36689 13.436727,-5.34351 20.910197,-12.1038 25.055967,-17.50748 0.80601,-1.05059 2.00675,-2.83519 2.65094,-3.99203 1.19484,-2.14568 2.11278,-4.61643 2.38086,-8.43526 0.0927,-1.32083 0.0812,-3.4701 0.0812,-4.79449 v -22.24734 a 3.6218624,3.6218624 0 0 0 -2.20756,-3.33476 L 98.207162,920.31179 a 5.6539146,5.6539146 0 0 0 -2.207553,-0.44963 z" />
    <path
       id="path1024"
       style="fill:#96dfd3;fill-opacity:1;stroke:none;stroke-width:0.799343px;stroke-linecap:butt;stroke-linejoin:miter;stroke-opacity:1"
       d="m 94.994395,934.52972 -10.108834,21.88836 a 1.5339222,1.5339222 0 0 0 1.392583,2.17706 h 9.721697 v 15.79327 a 0.52694211,0.52694211 0 0 0 1.005341,0.22091 l 10.107488,-21.88826 a 1.5340048,1.5340048 0 0 0 -1.39269,-2.17711 h -9.720139 v -15.79327 a 0.52700365,0.52700365 0 0 0 -1.005446,-0.22096 z" />
  </g>
  <style
     type="text/css"
     id="style853">
	.st0{fill:#FFFFFF;}
</style>
</svg>
