<svg xmlns="http://www.w3.org/2000/svg" width="192" height="192" fill="none"><circle cx="102.5" cy="99.5" r="71.5" style="fill:#ba6561;paint-order:stroke fill markers;stroke-width:8.0571"/><path d="M102.5 28A71.5 71.5 0 0 0 32 88.111V100h141.98a71.5 71.5 0 0 0 .025-.5 71.5 71.5 0 0 0-70-71.426 71.5 71.5 0 0 0-1.5-.074z" style="fill:#ff837d;opacity:.5;paint-order:stroke fill markers;stroke-width:.99369"/><rect width="82" height="82" x="11" y="58" fill="#9ABEFF" rx="5" style="fill:#ff837d"/><g aria-label="P" style="fill-rule:evenodd;fill:#fff;stroke-width:1.9709"><path d="M54.616 72.329H32v53.214h11.707v-21.552h10.909c8.958 0 15.875-6.652 15.875-15.609 0-8.869-6.918-16.053-15.875-16.053zm-1.863 21.995h-9.046V82.617h9.047c3.725 0 6.563 2.395 6.563 5.853 0 3.548-2.839 5.854-6.563 5.854z" style="stroke-width:1.9709" transform="translate(8.497 16.225) scale(.84005)"/></g><path d="M104 28.074V100h69.975a71.5 71.5 0 0 0 .025-.5 71.5 71.5 0 0 0-70-71.426z" style="fill:#f8c18c;opacity:.5;paint-order:stroke fill markers;stroke-width:.99369"/></svg>