<svg xmlns="http://www.w3.org/2000/svg" viewBox="0 0 192 192"><path fill="#9abeff" d="M172.5 93.45v5.1a68.88 68.88 0 1 1-137.76 0V57a9.25 9.25 0 0 0-3.06-7.14L22 39.88a9.42 9.42 0 0 1 0-12.76 8.86 8.86 0 0 1 6.37-2.55h75.26a69.52 69.52 0 0 1 51 22.45c.77 1 1.53 1.79 2.3 2.81a58.87 58.87 0 0 1 6.63 9.69c.51 1 1.28 2.3 1.79 3.32a67.49 67.49 0 0 1 7.15 30.61Z"/><path fill="#fff" d="M96 119a7 7 0 0 1-5.36-2.3L65.1 91.15a7.39 7.39 0 0 1 0-10.71 7.39 7.39 0 0 1 10.71 0L96 100.59l62-62.24a7.38 7.38 0 0 1 10.71 0 7.39 7.39 0 0 1 0 10.71l-67.34 67.6A7 7 0 0 1 96 119Z"/></svg>