<svg xmlns="http://www.w3.org/2000/svg" viewBox="0 0 192 192"><title>MikroTik</title><circle cx="96" cy="96" r="88" style="fill:#ff837d"/><path d="M69.92,43.9c3.2,22.24,10.73,38.87,21.89,50.72,1,1.07,2,2.09,3.13,3.08,12.66,11.54,30.77,17.63,56.22,18.78-49.49,18.79-96.55-19.23-81.37-72.83" style="fill:#fff;fill-rule:evenodd"/><path d="M44.63,51.45c4.28,29.54,14.3,49.68,29.61,64.6,16.05,15.62,39.68,23.82,73.82,25.68a92.83,92.83,0,0,1-30.73,6.57c-21.33.74-40.83-6.7-54.74-20C44.37,110.93,35.3,83.56,44.44,51.45" style="fill:#fff;fill-rule:evenodd"/></svg>