<?xml version="1.0" encoding="UTF-8" standalone="no"?>
<svg
   xmlns:dc="http://purl.org/dc/elements/1.1/"
   xmlns:cc="http://creativecommons.org/ns#"
   xmlns:rdf="http://www.w3.org/1999/02/22-rdf-syntax-ns#"
   xmlns:svg="http://www.w3.org/2000/svg"
   xmlns="http://www.w3.org/2000/svg"
   xmlns:sodipodi="http://sodipodi.sourceforge.net/DTD/sodipodi-0.dtd"
   xmlns:inkscape="http://www.inkscape.org/namespaces/inkscape"
   sodipodi:docname="mimo.svg"
   inkscape:version="1.0.1 (3bc2e813f5, 2020-09-07)"
   version="1.1"
   id="svg2"
   viewBox="0 0 192 192"
   height="192"
   width="192"
   inkscape:export-filename="/home/jphilippe/inkscape/icônes/delta-github/png/entrernom.png"
   inkscape:export-xdpi="96"
   inkscape:export-ydpi="96">
  <sodipodi:namedview
     inkscape:document-rotation="0"
     inkscape:window-maximized="1"
     inkscape:window-y="30"
     inkscape:window-x="1920"
     inkscape:window-height="1022"
     inkscape:window-width="1680"
     units="px"
     showgrid="false"
     inkscape:current-layer="layer1"
     inkscape:document-units="px"
     inkscape:cy="59.237764"
     inkscape:cx="45.763344"
     inkscape:zoom="1.4142136"
     inkscape:pageshadow="2"
     inkscape:pageopacity="0.0"
     borderopacity="1.0"
     bordercolor="#666666"
     pagecolor="#ffffff"
     id="base"
     inkscape:snap-bbox="false"
     inkscape:object-paths="true"
     inkscape:snap-nodes="true"
     showguides="true"
     inkscape:guide-bbox="true"
     inkscape:snap-object-midpoints="true"
     inkscape:snap-center="true"
     inkscape:snap-global="false"
     inkscape:snap-intersection-paths="true"
     inkscape:snap-smooth-nodes="true"
     inkscape:snap-midpoints="true" />
  <defs
     id="defs4" />
  <metadata
     id="metadata7">
    <rdf:RDF>
      <cc:Work
         rdf:about="">
        <dc:format>image/svg+xml</dc:format>
        <dc:type
           rdf:resource="http://purl.org/dc/dcmitype/StillImage" />
        <dc:title></dc:title>
      </cc:Work>
    </rdf:RDF>
  </metadata>
  <g
     transform="translate(0,-860.36216)"
     id="layer1"
     inkscape:groupmode="layer"
     inkscape:label="Calque 1">
    <path
       style="fill:#99bdfe;fill-opacity:1;fill-rule:evenodd;stroke-width:0.995542"
       d="m 27.297889,972.82562 c 0,39.50898 32.048449,71.53658 71.58433,71.53658 39.534881,0 71.583331,-32.0276 71.583331,-71.53658 0,-39.50801 -32.04845,-71.53554 -71.583331,-71.53554 -39.535881,0 -71.58433,32.02653 -71.58433,71.53554"
       id="path1118" />
    <path
       style="fill:#99bdfe;fill-opacity:1;fill-rule:evenodd;stroke-width:0.995542"
       d="m 27.297889,972.82562 c 0,39.50898 32.048449,71.53658 71.58433,71.53658 39.534881,0 71.583331,-32.0276 71.583331,-71.53658 0,-39.50801 -32.04845,-71.53554 -71.583331,-71.53554 -39.535881,0 -71.58433,32.02653 -71.58433,71.53554"
       id="path1120" />
    <path
       style="fill:#ffffff;fill-opacity:0.5;fill-rule:evenodd;stroke-width:0.995367;stroke-miterlimit:4;stroke-dasharray:none"
       d="m 27.297889,972.82562 c 0,39.50898 32.048449,71.53658 71.58433,71.53658 39.534881,0 71.583331,-32.0276 71.583331,-71.53658 0,-39.50801 -32.04845,-71.53554 -71.583331,-71.53554 -39.535881,0 -71.58433,32.02653 -71.58433,71.53554"
       id="path1122" />
    <path
       style="fill:#708cbd;fill-opacity:1;fill-rule:evenodd;stroke-width:0.995542"
       d="m 70.880657,868.4243 c -10.390469,-0.669 -19.150231,4.11358 -25.453978,11.92459 -8.965837,11.10525 -22.151768,37.2332 -23.683904,51.27032 -1.065228,9.77621 1.957232,16.44235 9.013623,21.58929 13.362143,9.74435 53.347021,25.63914 71.584312,30.19175 10.88822,2.71683 23.15828,1.16279 30.4476,-7.09422 10.32077,-11.69163 22.17467,-34.86781 25.81837,-54.41026 2.33354,-12.51792 -1.34696,-22.65551 -12.03011,-29.74973 C 128.1033,879.878 93.071258,869.85589 70.880657,868.4243"
       id="path1124" />
    <path
       style="fill:#96dfd3;fill-opacity:1;fill-rule:evenodd;stroke-width:0.995542"
       d="m 97.823972,945.33577 c 5.181768,2.06674 11.274478,-0.67 13.607048,-6.11262 l 5.06926,-11.82801 c 2.33257,-5.44362 -0.0617,-11.30735 -5.34704,-13.09634 -5.28631,-1.78998 -11.408882,1.03138 -13.677718,6.30177 L 92.5476,932.04929 c -2.269835,5.27039 0.09357,11.21774 5.276372,13.28648"
       id="path1126" />
    <path
       fill="#3e416d"
       d="m 128.56626,970.46221 c 7.72338,-9.98726 20.44338,-35.10674 23.29165,-50.05378 1.92538,-10.09876 1.44353,-21.2727 -5.28134,-28.26339 10.68315,7.09522 14.36365,17.23281 12.02911,29.75073 -3.64367,19.54245 -15.4966,42.71863 -25.81737,54.41026 -7.28932,8.25701 -19.55938,9.81105 -30.4476,7.09422 -0.26978,-0.0687 -0.55949,-0.14535 -0.83824,-0.21802 13.65485,0.54456 21.02381,-4.90802 27.06475,-12.72002"
       id="path1128"
       style="fill:#54688c;fill-opacity:1;fill-rule:evenodd;stroke-width:0.995542" />
    <path
       fill="#65e1d4"
       d="m 73.571934,918.89947 c 0,3.88726 -2.406422,5.92344 -5.46069,4.81279 -1.66597,-0.55532 -2.59149,-1.75852 -2.498956,-3.51704 0.18514,-2.5915 -0.647846,-4.72023 -3.146802,-5.73832 -2.684059,-1.11065 -4.997912,-0.46277 -7.126624,1.66596 -1.665971,1.75852 -4.257461,1.66596 -5.830897,0 -1.295742,-1.29575 -1.480846,-3.05426 -0.462742,-4.35001 3.517009,-4.25748 8.144714,-5.64578 13.327694,-4.90535 4.812808,0.64787 8.422387,3.33193 10.366031,7.86706 0.555312,1.29575 0.92552,2.86916 0.832986,4.16491 z"
       id="path1130"
       style="fill:#96dfd3;fill-opacity:1;stroke-width:0.925537" />
    <path
       style="fill:#708cbd;fill-opacity:1;stroke:none;stroke-width:0.357274px;stroke-linecap:butt;stroke-linejoin:miter;stroke-opacity:1"
       d="m 76.726774,999.07228 c 0,3.07062 -1.381973,5.12312 -4.518378,6.66722 -6.334404,3.1184 -11.740717,-0.3511 -13.30122,-1.3558 -10.122481,-6.51724 -9.398533,-17.98239 -9.16241,-20.304 0.104824,-1.03061 1.090187,-2.85861 2.532504,-1.53308 4.05042,5.90194 8.152038,14.94876 16.70208,12.24887 3.410113,-1.07683 7.482577,-0.6638 7.747424,4.27679 z"
       id="path1132"
       sodipodi:nodetypes="cssscsc" />
    <path
       id="path1134"
       style="fill:#54688c;fill-opacity:1;stroke:none;stroke-width:0.357274px;stroke-linecap:butt;stroke-linejoin:miter;stroke-opacity:1"
       d="m 52.983352,983.60384 c 0.714263,7.75019 4.398334,23.45846 22.885785,19.00946 0.03466,-0.06 0.100751,-0.1905 0.150734,-0.2847 0.47639,-0.9422 0.706867,-2.0151 0.706867,-3.25659 -0.264847,-4.94059 -4.337597,-5.35296 -7.74771,-4.27613 -8.054287,2.54336 -12.160585,-5.33591 -15.995676,-11.19204 z" />
  </g>
  <style
     type="text/css"
     id="style853">
	.st0{fill:#FFFFFF;}
</style>
  <style
     type="text/css"
     id="style853-9">
	.st0{fill:#FFFFFF;}
</style>
  <style
     type="text/css"
     id="style853-3">
	.st0{fill:#FFFFFF;}
</style>
</svg>
