<svg xmlns="http://www.w3.org/2000/svg" viewBox="0 0 192 192"><title>Mindustry</title><polyline points="77.37 15.4 60.79 15.4 20.96 54.99 20.96 138.62 56.34 173.01 96 173.01 96 78.5 87.02 78.54 77.37 65.94 77.37 15.4" style="fill:#8e6f60"/><path d="M77.37,57.71,27.42,108.14a3,3,0,0,0-.08,4.14l11.93,13L87,78.54l-9.65-12.6Z" style="fill:#d3b69a"/><path d="M39.27,125.32,65.21,99.91l28,28.18a3,3,0,0,0,2.13.88H96v44H87Z" style="fill:#ccc"/><polyline points="114.63 15.4 131.21 15.4 171.04 54.99 171.04 138.62 135.66 173.01 96 173.01 96 78.5 104.98 78.54 114.63 65.94 114.63 15.4" style="fill:#d3b69a"/><path d="M114.63,57.71l50,50.43a3,3,0,0,1,.08,4.14l-11.93,13L105,78.54l9.65-12.6Z" style="fill:#8e6f60"/><path d="M152.73,125.32,126.79,99.91l-28,28.18a3,3,0,0,1-2.13.88H96v44h9Z" style="fill:#fff"/><polygon points="96 31.24 77.37 31.24 77.37 65.94 87.02 78.54 96 78.54 104.98 78.54 114.63 65.94 114.63 31.24 96 31.24" style="fill:#c39a54"/></svg>