<svg width="192" height="192" viewBox="0 0 192 192" fill="none" xmlns="http://www.w3.org/2000/svg">
<path d="M55 120.5L10 77.5H64.5C64.5 77.5 73.5 60.5 96.5 60.5C119.5 60.5 127 77.5 127 77.5H182L137.5 120.5H123C123 120.5 113.5 132.5 96.5 132.5C79.5 132.5 69 120.5 69 120.5H55Z" fill="#D2D2D2"/>
<path d="M61 85H18L23 90H60L61 85Z" fill="#B1B5BD"/>
<path d="M59.5 97H30.5L35.5 102H59.5V97Z" fill="#B1B5BD"/>
<path d="M61 108.5H42.5L47.5 113.5H64L61 108.5Z" fill="#B1B5BD"/>
<path d="M131 85H174L169 90H132L131 85Z" fill="#B1B5BD"/>
<path d="M132.5 97H161.5L156.5 102H132.5V97Z" fill="#B1B5BD"/>
<path d="M131 108.5H149.5L144.5 113.5H128L131 108.5Z" fill="#B1B5BD"/>
<circle cx="96" cy="96" r="30.5" stroke="#4A4A4A"/>
<circle cx="96.5" cy="95.5" r="27.5" fill="#4A4A4A"/>
<path d="M92.5 103.5V88.5H96V103.5H92.5Z" fill="#D2D2D2"/>
<path d="M116 103.5V88.5H119.5V103.5H116Z" fill="#D2D2D2"/>
<path d="M113 88.5V103.5H109.5L102.5 94V103.5H99.5V88.5H102.5L109 97V88.5H113Z" fill="#D2D2D2"/>
<path d="M72.5 88.5V103.5H75.5V95L79 103.5H81.5L85 95V103.5H88.5V88.5H84.5L80.5 98L76.5 88.5H72.5Z" fill="#D2D2D2"/>
</svg>
