<?xml version="1.0" encoding="UTF-8" standalone="no"?>
<svg
   sodipodi:docname="minma.svg"
   inkscape:version="1.2 (dc2aedaf03, 2022-05-15)"
   version="1.1"
   id="svg2"
   viewBox="0 0 192 192"
   height="192"
   width="192"
   inkscape:export-filename="png/minma.png"
   inkscape:export-xdpi="96"
   inkscape:export-ydpi="96"
   xml:space="preserve"
   xmlns:inkscape="http://www.inkscape.org/namespaces/inkscape"
   xmlns:sodipodi="http://sodipodi.sourceforge.net/DTD/sodipodi-0.dtd"
   xmlns="http://www.w3.org/2000/svg"
   xmlns:svg="http://www.w3.org/2000/svg"
   xmlns:rdf="http://www.w3.org/1999/02/22-rdf-syntax-ns#"
   xmlns:cc="http://creativecommons.org/ns#"
   xmlns:dc="http://purl.org/dc/elements/1.1/"><sodipodi:namedview
     inkscape:document-rotation="0"
     inkscape:window-maximized="1"
     inkscape:window-y="0"
     inkscape:window-x="36"
     inkscape:window-height="1052"
     inkscape:window-width="1884"
     units="px"
     showgrid="false"
     inkscape:current-layer="layer1"
     inkscape:document-units="px"
     inkscape:cy="424"
     inkscape:cx="299"
     inkscape:zoom="0.5"
     inkscape:pageshadow="2"
     inkscape:pageopacity="0.0"
     borderopacity="1.0"
     bordercolor="#666666"
     pagecolor="#ffffff"
     id="base"
     inkscape:snap-bbox="false"
     inkscape:object-paths="true"
     inkscape:snap-nodes="true"
     showguides="true"
     inkscape:guide-bbox="true"
     inkscape:snap-object-midpoints="true"
     inkscape:snap-center="true"
     inkscape:snap-global="false"
     inkscape:snap-intersection-paths="true"
     inkscape:snap-smooth-nodes="true"
     inkscape:snap-midpoints="true"
     inkscape:showpageshadow="0"
     inkscape:pagecheckerboard="0"
     inkscape:deskcolor="#d1d1d1" /><defs
     id="defs4" /><metadata
     id="metadata7"><rdf:RDF><cc:Work
         rdf:about=""><dc:format>image/svg+xml</dc:format><dc:type
           rdf:resource="http://purl.org/dc/dcmitype/StillImage" /></cc:Work></rdf:RDF></metadata><g
     transform="translate(0,-860.36216)"
     id="layer1"
     inkscape:groupmode="layer"
     inkscape:label="Calque 1"><path
       style="color:#000000;fill:#ffffff;fill-opacity:1;fill-rule:evenodd;stroke-width:1;stroke-linecap:round;stroke-linejoin:round;stroke-dashoffset:6"
       d="m 87.129676,920.61547 -54.362941,73.34302 c -5.94057,8.01471 -4.307583,19.52941 3.722066,25.46111 8.029647,5.9315 19.539059,4.1251 25.479629,-3.8896 l 10.579905,-14.2736 -10.142755,-7.49263 -10.579906,14.27373 c -1.954465,2.6368 -5.302938,3.1244 -7.831629,1.2564 -2.52869,-1.8679 -3.03902,-5.206 -1.084555,-7.8428 l 54.362942,-73.34308 z"
       id="path1478" /><path
       style="color:#000000;fill:#f8c18c;fill-opacity:1;fill-rule:evenodd;stroke-width:1;stroke-linecap:round;stroke-linejoin:round;stroke-dashoffset:6"
       d="m 134.02155,887.83453 c -8.02965,-5.93158 -19.53741,-4.12396 -25.47798,3.89068 l -17.37787,23.44511 10.14276,7.49255 17.37786,-23.44511 c 1.95446,-2.63684 5.3013,-3.1256 7.82999,-1.25763 2.52869,1.86797 3.04066,5.20725 1.08619,7.8441 l -60.608751,81.76947 10.142755,7.49255 60.608756,-81.76947 c 5.94057,-8.01464 4.30594,-19.53068 -3.72371,-25.46225 z"
       id="path1448" /><rect
       style="fill:none;fill-rule:evenodd;stroke:#99bdfe;stroke-width:12.0001;stroke-linecap:round;stroke-linejoin:round;stroke-dasharray:none;stroke-dashoffset:6;stroke-opacity:1;stop-color:#000000"
       id="rect1450"
       width="23.69453"
       height="68.191185"
       x="581.9425"
       y="682.19409"
       rx="11.847265"
       ry="11.841402"
       transform="matrix(0.804338,0.59417201,-0.5954735,0.80337495,0,0)" /><ellipse
       style="fill:none;fill-rule:evenodd;stroke:#ffffff;stroke-width:12.0001;stroke-linecap:round;stroke-linejoin:round;stroke-dasharray:none;stroke-dashoffset:6;stroke-opacity:1;stop-color:#000000"
       id="circle1452"
       cx="721.48065"
       cy="716.32587"
       transform="matrix(0.804338,0.59417201,-0.5954735,0.80337495,0,0)"
       rx="12.260413"
       ry="12.254346" /><path
       style="color:#000000;fill:#ff837d;fill-opacity:1;fill-rule:evenodd;stroke-width:1;stroke-linecap:round;stroke-linejoin:round;stroke-dashoffset:6"
       d="m 121.69705,945.45699 -40.064623,54.05264 c -5.920419,7.98747 -4.202764,19.45137 3.798222,25.36177 8.000987,5.9103 19.483051,4.1972 25.403471,-3.7902 l 5.90013,-7.9601 -10.14276,-7.4925 -5.90013,7.96 c -1.892329,2.553 -5.198114,3.0462 -7.755466,1.1571 -2.557352,-1.8891 -3.053046,-5.1905 -1.160711,-7.7435 L 131.8398,952.94954 Z"
       id="path1482" /><path
       style="color:#000000;fill:#ffffff;fill-opacity:1;fill-rule:evenodd;stroke-width:1;stroke-linecap:round;stroke-linejoin:round;stroke-dashoffset:6"
       d="m 153.77431,932.66642 c -8.00099,-5.9104 -19.4847,-4.19851 -25.40512,3.78894 l -2.08397,2.81157 10.14275,7.49255 2.08398,-2.81157 c 1.89234,-2.55303 5.19976,-3.04502 7.75711,-1.15588 2.55736,1.88914 3.05141,5.18932 1.15907,7.74235 l -36.80062,49.64902 10.14275,7.4926 36.80062,-49.64907 c 5.92042,-7.98745 4.20441,-19.45009 -3.79657,-25.36051 z"
       id="path1454" /></g><style
     type="text/css"
     id="style853">
	.st0{fill:#FFFFFF;}
</style><style
     type="text/css"
     id="style853-9">
	.st0{fill:#FFFFFF;}
</style><style
     type="text/css"
     id="style853-3">
	.st0{fill:#FFFFFF;}
</style></svg>
