<?xml version="1.0" encoding="UTF-8" standalone="no"?>
<svg
   xmlns:dc="http://purl.org/dc/elements/1.1/"
   xmlns:cc="http://creativecommons.org/ns#"
   xmlns:rdf="http://www.w3.org/1999/02/22-rdf-syntax-ns#"
   xmlns:svg="http://www.w3.org/2000/svg"
   xmlns="http://www.w3.org/2000/svg"
   xmlns:sodipodi="http://sodipodi.sourceforge.net/DTD/sodipodi-0.dtd"
   xmlns:inkscape="http://www.inkscape.org/namespaces/inkscape"
   sodipodi:docname="miro.svg"
   inkscape:version="1.0.1 (3bc2e813f5, 2020-09-07)"
   version="1.1"
   id="svg2"
   viewBox="0 0 192 192"
   height="192"
   width="192"
   inkscape:export-filename="/home/jphilippe/inkscape/icônes/delta-github/png/miro.png"
   inkscape:export-xdpi="96"
   inkscape:export-ydpi="96">
  <sodipodi:namedview
     inkscape:document-rotation="0"
     inkscape:window-maximized="1"
     inkscape:window-y="30"
     inkscape:window-x="1920"
     inkscape:window-height="1022"
     inkscape:window-width="1680"
     units="px"
     showgrid="false"
     inkscape:current-layer="layer1"
     inkscape:document-units="px"
     inkscape:cy="187.25595"
     inkscape:cx="89.313467"
     inkscape:zoom="2.0000001"
     inkscape:pageshadow="2"
     inkscape:pageopacity="0.0"
     borderopacity="1.0"
     bordercolor="#666666"
     pagecolor="#ffffff"
     id="base"
     inkscape:snap-bbox="false"
     inkscape:object-paths="true"
     inkscape:snap-nodes="true"
     showguides="true"
     inkscape:guide-bbox="true"
     inkscape:snap-object-midpoints="true"
     inkscape:snap-center="true"
     inkscape:snap-global="false"
     inkscape:snap-intersection-paths="true"
     inkscape:snap-smooth-nodes="true"
     inkscape:snap-midpoints="true" />
  <defs
     id="defs4" />
  <metadata
     id="metadata7">
    <rdf:RDF>
      <cc:Work
         rdf:about="">
        <dc:format>image/svg+xml</dc:format>
        <dc:type
           rdf:resource="http://purl.org/dc/dcmitype/StillImage" />
        <dc:title />
      </cc:Work>
    </rdf:RDF>
  </metadata>
  <g
     transform="translate(0,-860.36216)"
     id="layer1"
     inkscape:groupmode="layer"
     inkscape:label="Calque 1">
    <rect
       style="fill:#f9de81;fill-opacity:1;fill-rule:evenodd;stroke:none;stroke-opacity:1"
       width="153"
       height="153"
       x="19.5"
       y="879.86218"
       rx="10"
       id="rect944" />
    <path
       id="polygon946"
       style="fill:#54688c;fill-opacity:1;fill-rule:nonzero;stroke:none;stroke-width:0.365"
       d="m 90.242501,991.83624 21.969409,-58.88333 -12.09822,58.83669 a 0.89275131,0.89275131 0 0 0 0.87446,1.07256 h 7.95445 a 1.5403626,1.5403626 0 0 0 1.45482,-1.03419 l 21.78016,-62.59995 a 1.1169177,1.1169177 0 0 0 -0.66703,-1.41444 l -20.44609,-7.57117 a 6.1103617,6.1103617 0 0 0 -2.12186,-0.38025 h -7.95445 a 0.42298985,0.42298985 0 0 0 -0.28436,0.73613 l 11.50812,10.45043 -21.372966,-10.69649 a 4.634613,4.634613 0 0 0 -2.074214,-0.49007 h -7.954453 a 0.5234899,0.5234899 0 0 0 -0.407416,0.85221 l 11.63086,14.41552 -21.44798,-14.65011 a 3.5444729,3.5444729 0 0 0 -1.999199,-0.61762 h -7.954137 a 0.61561349,0.61561349 0 0 0 -0.525959,0.93553 l 11.032738,18.13835 a 2.6935881,2.6935881 0 0 1 0.323925,2.00275 l -11.680588,50.85616 a 0.87201237,0.87201237 0 0 0 0.849884,1.06721 h 7.954137 a 1.6179146,1.6179146 0 0 0 1.502002,-1.01655 l 21.945177,-54.81153 -12.082508,54.7588 a 0.8797276,0.8797276 0 0 0 0.859064,1.06928 h 7.954453 a 1.5772771,1.5772771 0 0 0 1.477771,-1.02592 z" />
  </g>
  <style
     type="text/css"
     id="style853">
	.st0{fill:#FFFFFF;}
</style>
</svg>
