<?xml version="1.0" encoding="UTF-8" standalone="no"?>
<svg
   xmlns:dc="http://purl.org/dc/elements/1.1/"
   xmlns:cc="http://creativecommons.org/ns#"
   xmlns:rdf="http://www.w3.org/1999/02/22-rdf-syntax-ns#"
   xmlns:svg="http://www.w3.org/2000/svg"
   xmlns="http://www.w3.org/2000/svg"
   xmlns:sodipodi="http://sodipodi.sourceforge.net/DTD/sodipodi-0.dtd"
   xmlns:inkscape="http://www.inkscape.org/namespaces/inkscape"
   sodipodi:docname="mobildeniz.svg"
   inkscape:version="1.0.1 (3bc2e813f5, 2020-09-07)"
   version="1.1"
   id="svg2"
   viewBox="0 0 192 192"
   height="192"
   width="192"
   inkscape:export-filename="/home/jphilippe/inkscape/icônes/delta-github/png/mobildeniz.png"
   inkscape:export-xdpi="96"
   inkscape:export-ydpi="96">
  <sodipodi:namedview
     inkscape:document-rotation="0"
     inkscape:window-maximized="1"
     inkscape:window-y="0"
     inkscape:window-x="36"
     inkscape:window-height="1052"
     inkscape:window-width="1884"
     units="px"
     showgrid="false"
     inkscape:current-layer="layer1"
     inkscape:document-units="px"
     inkscape:cy="-105.96089"
     inkscape:cx="38.808287"
     inkscape:zoom="1.4142136"
     inkscape:pageshadow="2"
     inkscape:pageopacity="0.0"
     borderopacity="1.0"
     bordercolor="#666666"
     pagecolor="#ffffff"
     id="base"
     inkscape:snap-bbox="false"
     inkscape:object-paths="true"
     inkscape:snap-nodes="true"
     showguides="true"
     inkscape:guide-bbox="true"
     inkscape:snap-object-midpoints="true"
     inkscape:snap-center="true"
     inkscape:snap-global="false"
     inkscape:snap-intersection-paths="true"
     inkscape:snap-smooth-nodes="true"
     inkscape:snap-midpoints="true" />
  <defs
     id="defs4" />
  <metadata
     id="metadata7">
    <rdf:RDF>
      <cc:Work
         rdf:about="">
        <dc:format>image/svg+xml</dc:format>
        <dc:type
           rdf:resource="http://purl.org/dc/dcmitype/StillImage" />
        <dc:title></dc:title>
      </cc:Work>
    </rdf:RDF>
  </metadata>
  <g
     transform="translate(0,-860.36216)"
     id="layer1"
     inkscape:groupmode="layer"
     inkscape:label="Calque 1">
    <path
       id="path1085"
       style="stroke-width:5.84719;fill:#ff837d;fill-opacity:1"
       d="M 97.460938 8 C 93.36794 8 90.445312 12.093744 90.445312 16.771484 L 90.445312 30.804688 C 77.581536 32.558836 65.302747 37.820585 55.947266 45.421875 L 45.421875 34.896484 C 41.91358 31.388184 37.236093 30.804926 34.3125 33.728516 C 31.388907 36.652116 31.974084 41.329601 35.482422 44.837891 L 46.005859 55.361328 C 38.404567 64.716808 33.142102 76.411571 31.972656 89.275391 L 16.771484 89.275391 C 12.093744 89.275391 8 92.199929 8 96.292969 C 8 99.801259 12.093744 103.30859 16.771484 103.30859 L 31.972656 103.30859 C 33.726846 116.17235 38.989269 127.86641 46.005859 137.80664 L 36.066406 147.74805 C 32.558111 151.25635 31.97289 155.93382 34.896484 158.85742 C 37.820077 161.78102 42.497564 161.1958 46.005859 157.6875 L 56.53125 147.16211 C 65.886731 154.76351 77.582253 160.02581 89.861328 161.19531 L 89.861328 175.22852 C 89.861328 179.90622 92.783914 184 96.876953 184 C 100.96999 184 103.89453 179.90622 103.89453 175.22852 L 103.89453 161.19531 C 116.7583 159.44111 128.45116 154.76351 137.80664 147.16211 L 147.16211 156.51758 C 150.67044 160.02588 155.34793 160.611 158.27148 157.6875 C 161.19508 154.7639 160.61182 150.08642 157.10352 146.57812 L 147.74805 137.22266 C 155.93409 127.28248 161.19579 115.58837 162.36523 102.72461 L 175.22852 102.72461 C 179.90626 102.72461 184 99.800021 184 95.707031 C 184 92.198691 179.90626 88.691406 175.22852 88.691406 L 162.36523 88.691406 C 160.61109 75.827626 155.93337 64.132824 148.33203 54.777344 L 158.27148 44.837891 C 161.77982 41.329601 162.365 36.652116 159.44141 33.728516 C 156.51782 30.804926 151.84033 31.388144 148.33203 34.896484 L 138.97656 44.837891 C 129.62108 36.651861 117.34229 31.38815 104.47852 30.21875 L 104.47852 16.771484 C 104.47852 12.093744 101.55397 8 97.460938 8 z M 91.029297 53.023438 L 91.029297 75.242188 C 89.27515 75.826887 87.521725 76.412581 85.767578 77.582031 L 70.564453 61.794922 C 76.411639 57.117182 83.427963 54.192877 91.029297 53.023438 z M 101.55469 53.023438 C 110.32547 53.608178 117.92748 57.116466 124.35938 62.378906 L 109.15625 77.582031 C 106.81736 75.827881 104.47829 75.242953 101.55469 74.658203 L 101.55469 53.023438 z M 63.548828 69.394531 L 78.75 84.597656 C 77.580596 86.351806 76.996811 88.690407 76.412109 91.029297 L 54.777344 91.029297 C 55.94679 82.843217 58.871087 75.826421 63.548828 69.394531 z M 131.96094 69.980469 C 136.63868 75.827659 139.56173 83.429194 140.14648 91.615234 L 118.51172 91.615234 C 117.92702 89.276384 117.34132 87.521768 116.17188 85.767578 L 131.96094 69.980469 z M 54.777344 101.55469 L 76.412109 101.55469 C 76.996811 103.89358 78.166489 106.23219 79.335938 107.98633 L 64.132812 123.18945 C 59.455072 117.34231 55.94679 109.74077 54.777344 101.55469 z M 118.51172 101.55469 L 140.14648 101.55469 C 138.97703 109.74077 136.05274 116.75828 131.375 122.60547 L 116.17188 107.40234 C 117.34131 105.64819 117.92702 103.89358 118.51172 101.55469 z M 108.57227 115.00391 L 123.77344 130.20508 C 117.34155 134.88282 109.74073 138.39186 101.55469 138.97656 L 101.55469 117.3418 C 103.89359 116.75705 106.23337 116.17335 108.57227 115.00391 z M 86.9375 115.58789 C 88.106904 116.17259 89.861087 116.75705 91.615234 117.3418 L 91.615234 138.97656 C 84.0139 137.80716 77.581561 134.88405 71.734375 130.79102 L 86.9375 115.58789 z "
       transform="translate(0,860.36216)" />
  </g>
  <style
     type="text/css"
     id="style853">
	.st0{fill:#FFFFFF;}
</style>
  <style
     type="text/css"
     id="style853-9">
	.st0{fill:#FFFFFF;}
</style>
  <style
     type="text/css"
     id="style853-3">
	.st0{fill:#FFFFFF;}
</style>
  <style
     type="text/css"
     id="style947">
	.st0{fill-rule:evenodd;clip-rule:evenodd;fill:#FFFFFF;}
	.st1{fill:#FFFFFF;}
	.st2{fill-rule:evenodd;clip-rule:evenodd;fill:#CE153A;}
</style>
</svg>
