<svg xmlns="http://www.w3.org/2000/svg" xml:space="preserve" style="fill-rule:evenodd;clip-rule:evenodd;stroke-linejoin:round;stroke-miterlimit:2" viewBox="0 0 192 192"><path d="M164.5 21.5c0-5.519-4.481-10-10-10h-133c-5.519 0-10 4.481-10 10v133c0 5.519 4.481 10 10 10h133c5.519 0 10-4.481 10-10z" style="fill:#ff837d;fill-opacity:1" transform="matrix(.99346 0 0 .99346 8.575 8.575)"/><path d="M123.664 126.395s8.203 4.003 1.661 7.516c0 0 1.377-2.841-3.124-4.536 0 0 5.577 6.173-2.279 7.032 0 0 2.905-3.354-2.24-7.032 0 0-4.028-2.403-3.433 3.085 0 0-9.059-4.737.249-6.408l-8.37-10.324s-2.69 2.287-4.337 1.614c0 0 1.274-1.203 1.289-2.677 0 0-.645.343-1.489.258 0 0 1.389-5.77-3.05-9.378 0 0-.985 5.389 2.16 10.807 0 0-1.361-.05-2.402-1.482 0 0-.618 6.727 5.558 6.286 0 0 1.011 5.27-4.887 3.13 0 0 5.68 7.288 6.597.513 0 0 3.22-.033 3.045 3.506 0 0-1.228 6.39-9.112 1.879 0 0 5.136 8.879 7.909 2.34 2.774-6.54-.013.031-.013.031s5.293 4.599-2.447 6.411c0 0-5.257 1.074-7.427-4.653 0 0 1.581 6.987-2.092 10.091-3.672-3.104-1.957-10.091-1.957-10.091-2.17 5.727-7.427 4.653-7.427 4.653-7.74-1.812-2.447-6.411-2.447-6.411s-2.787-6.571-.013-.031c2.774 6.539 7.909-2.34 7.909-2.34-7.883 4.511-9.112-1.879-9.112-1.879-.175-3.539 3.045-3.506 3.045-3.506.917 6.775 6.597-.513 6.597-.513-5.898 2.14-4.887-3.13-4.887-3.13 6.177.441 5.558-6.286 5.558-6.286-1.041 1.432-2.402 1.482-2.402 1.482 3.145-5.418 2.298-10.807 2.298-10.807-4.438 3.608-3.049 9.378-3.049 9.378-.845.085-1.489-.258-1.489-.258.014 1.474 1.288 2.677 1.288 2.677-1.646.673-4.336-1.614-4.336-1.614l-8.371 10.324c9.309 1.671.25 6.408.25 6.408.595-5.488-3.433-3.085-3.433-3.085-5.145 3.678-2.24 7.032-2.24 7.032-7.857-.859-2.279-7.032-2.279-7.032-4.501 1.695-3.124 4.536-3.124 4.536-6.543-3.513 1.661-7.516 1.661-7.516-5.412-.616-5.674 2.119-5.674 2.119-1.677-1.762-.475-3.439-.475-3.439 1.957-3.915 4.166-2.545 5.676-1.678 1.51.867 5.705.699 5.705.699l9.031-11.241c-3.691 1.175-4.177-.841-4.177-.841 4.049-3.783 2.684-8.545 2.684-8.545-1.476 5.838-4.272 5.95-4.272 5.95 1.386-2.21 1.252-8.052 1.252-8.052-2.639 11.052-8.523 13.757-8.523 13.757-1.029-1.006-.446-11.848-.446-11.848s-4.585 10.5-10.394 7.955c4.489-1.974 9.32-14.375 9.32-14.375s-8.446 11.752-12.733 10.595c-.723-6.65 5.41-14.839 5.41-14.839s-8.763 5.817-9.755.689c3.892.317 9.755-4.984 9.755-4.984s-7.752 2.749-10.175.685c1.67-3.808 7.409-7.022 7.409-7.022s-6.718-.093-6.989-3.38c2.619 1.211 6.574.245 6.574.245s-5.759-1.41-7.518-4.698c2.194-1.816 5.167-1.816 5.167-1.816s-3.348-1.392-2.973-5.279c2.762 2.751 6.648 3.275 6.648 3.275s-5.255-2.798-6.025-5.772c2.235-1.452 6.581-.666 6.581-.666s-2.336-1.561-2.336-4.8c2.761 2.75 7.095 4.482 7.095 4.482s-5.596-5.106-4.652-7.628c3.041-.535 6.928 1.55 6.928 1.55s-3.464-2.714-3.464-5.954c16.712 2.785 22.388 13.853 22.388 13.853s5.231 8.015-3.368 10.763c-.123 4.601 5.042 3.928 5.042 3.928 2.666-1.493 1.333-5.188 1.333-5.188 5.665-1.384 4.298-5.735 4.298-5.735 10.022-7.5-1.386-10.682-1.386-10.682-2.739-.869-4.036 0-4.036 0-1.093-3.482 2.457-4.779 2.457-4.779s10.781-6.328 14.902 3.638c2.271 5.49-1.533 12.663-1.572 15.569-.066 4.874 3.569 3.32 2.57 7.445 0 0 5.361.405 5.238-4.196-8.599-2.748-3.368-10.763-3.368-10.763s5.676-11.068 22.388-13.853c0 3.24-3.464 5.954-3.464 5.954s3.887-2.085 6.928-1.55c.943 2.522-4.653 7.628-4.653 7.628s4.334-1.732 7.096-4.482c0 3.239-2.336 4.8-2.336 4.8s4.346-.786 6.581.666c-.77 2.974-6.026 5.772-6.026 5.772s3.887-.524 6.648-3.275c.375 3.887-2.972 5.279-2.972 5.279s2.972 0 5.167 1.816c-1.759 3.288-7.518 4.698-7.518 4.698s3.955.966 6.573-.245c-.27 3.287-6.989 3.38-6.989 3.38s5.739 3.214 7.41 7.022c-2.423 2.064-10.175-.685-10.175-.685s5.863 5.301 9.754 4.984c-.991 5.128-9.754-.689-9.754-.689s6.133 8.189 5.41 14.839c-4.288 1.157-12.733-10.595-12.733-10.595s4.83 12.401 9.319 14.375c-5.808 2.545-10.393-7.955-10.393-7.955s.582 10.842-.447 11.848c0 0-5.883-2.705-8.523-13.757 0 0-.134 5.842 1.253 8.052 0 0-2.796-.112-4.272-5.95 0 0-1.365 4.762 2.684 8.545 0 0-.487 2.016-4.178.841l9.032 11.241s4.194.168 5.704-.699c1.51-.867 3.719-2.237 5.677 1.678 0 0 1.202 1.677-.476 3.439 0 0-.261-2.735-5.673-2.119" style="fill:#fff" transform="matrix(.74116 0 0 .74116 25.17 26.964)"/><path d="M95.567 52.806h4.586c-.448-3.355 3.288-9.082 3.288-9.082l-4.854 1.723-3.02-3.512-3.02 3.512-4.855-1.723s3.736 5.727 3.289 9.082h4.586" style="fill:#f9de81" transform="matrix(.74116 0 0 .74116 25.095 26.93)"/></svg>