<?xml version="1.0" encoding="UTF-8" standalone="no"?>
<svg
   xmlns:dc="http://purl.org/dc/elements/1.1/"
   xmlns:cc="http://creativecommons.org/ns#"
   xmlns:rdf="http://www.w3.org/1999/02/22-rdf-syntax-ns#"
   xmlns:svg="http://www.w3.org/2000/svg"
   xmlns="http://www.w3.org/2000/svg"
   xmlns:sodipodi="http://sodipodi.sourceforge.net/DTD/sodipodi-0.dtd"
   xmlns:inkscape="http://www.inkscape.org/namespaces/inkscape"
   sodipodi:docname="momo.svg"
   inkscape:version="1.0.1 (3bc2e813f5, 2020-09-07)"
   version="1.1"
   id="svg2"
   viewBox="0 0 192 192"
   height="192"
   width="192"
   inkscape:export-filename="/home/jphilippe/inkscape/icônes/delta-github/png/momo.png"
   inkscape:export-xdpi="96"
   inkscape:export-ydpi="96">
  <sodipodi:namedview
     inkscape:document-rotation="0"
     inkscape:window-maximized="1"
     inkscape:window-y="0"
     inkscape:window-x="36"
     inkscape:window-height="1052"
     inkscape:window-width="1884"
     units="px"
     showgrid="false"
     inkscape:current-layer="layer1"
     inkscape:document-units="px"
     inkscape:cy="202.42408"
     inkscape:cx="27.752033"
     inkscape:zoom="0.50000001"
     inkscape:pageshadow="2"
     inkscape:pageopacity="0.0"
     borderopacity="1.0"
     bordercolor="#666666"
     pagecolor="#ffffff"
     id="base"
     inkscape:snap-bbox="false"
     inkscape:object-paths="true"
     inkscape:snap-nodes="true"
     showguides="true"
     inkscape:guide-bbox="true"
     inkscape:snap-object-midpoints="true"
     inkscape:snap-center="true"
     inkscape:snap-global="true"
     inkscape:snap-intersection-paths="true"
     inkscape:snap-smooth-nodes="true"
     inkscape:snap-midpoints="true" />
  <defs
     id="defs4" />
  <metadata
     id="metadata7">
    <rdf:RDF>
      <cc:Work
         rdf:about="">
        <dc:format>image/svg+xml</dc:format>
        <dc:type
           rdf:resource="http://purl.org/dc/dcmitype/StillImage" />
        <dc:title></dc:title>
      </cc:Work>
    </rdf:RDF>
  </metadata>
  <g
     transform="translate(0,-860.36216)"
     id="layer1"
     inkscape:groupmode="layer"
     inkscape:label="Calque 1">
    <rect
       style="fill:#f58f8a;fill-opacity:1;fill-rule:evenodd;stroke:none;stroke-width:0.993464;stroke-opacity:1"
       width="152"
       height="152"
       x="20"
       y="880.36218"
       rx="9.9346409"
       id="rect923"
       ry="9.9346409" />
    <rect
       style="fill:#f58f8a;fill-opacity:1;fill-rule:evenodd;stroke:none;stroke-width:0.993464;stroke-opacity:1"
       width="152"
       height="152"
       x="20"
       y="880.36218"
       rx="9.9346409"
       id="rect983"
       ry="9.9346409" />
    <path
       d="m 87.80547,916.81362 c -4.995623,0 -8.851892,2.2787 -11.042955,6.13497 -2.015777,-3.68098 -5.521477,-6.13497 -9.991244,-6.13497 -4.031555,0 -7.274327,1.92813 -9.553032,4.99562 v -4.29448 h -11.21824 v 35.057 h 11.21824 V 932.2387 c 0,-2.54164 1.577565,-5.52148 4.995622,-5.52148 3.067487,0 5.083265,2.45399 5.083265,5.52148 v 20.33306 H 78.515365 V 932.2387 c 0,-2.54164 1.577565,-5.52148 4.995622,-5.52148 3.067488,0 5.170908,2.45399 5.170908,5.52148 v 20.33306 H 99.812491 V 930.3982 c 0,-8.15075 -4.294482,-13.58458 -12.007021,-13.58458 z"
       style="font-style:normal;font-variant:normal;font-weight:bold;font-stretch:normal;font-size:232.308px;line-height:1.25;font-family:now;-inkscape-font-specification:'now Bold';letter-spacing:0px;word-spacing:0px;fill:#ffffff;fill-opacity:1;stroke-width:1.75285"
       id="path953" />
    <path
       d="m 126.54337,953.2729 c 11.74409,0 19.45663,-7.71254 19.45663,-18.22964 0,-10.5171 -7.71254,-18.22964 -19.45663,-18.22964 -11.7441,0 -19.54428,7.71254 -19.54428,18.22964 0,10.5171 7.80018,18.22964 19.54428,18.22964 z m 0,-9.90361 c -4.82034,-0.0876 -8.32604,-3.59334 -8.32604,-8.32603 0,-4.7327 3.5057,-8.2384 8.32604,-8.32604 4.73269,0.0876 8.32603,3.59334 8.32603,8.32604 0,4.73269 -3.59334,8.23839 -8.32603,8.32603 z"
       style="font-style:normal;font-variant:normal;font-weight:bold;font-stretch:normal;font-size:232.308px;line-height:1.25;font-family:now;-inkscape-font-specification:'now Bold';letter-spacing:0px;word-spacing:0px;fill:#ffffff;fill-opacity:1;stroke-width:1.75285"
       id="path955" />
    <path
       d="m 87.80547,959.45142 c -4.995623,0 -8.851892,2.27871 -11.042955,6.13498 -2.015777,-3.68099 -5.521477,-6.13498 -9.991244,-6.13498 -4.031555,0 -7.274327,1.92814 -9.553032,4.99562 v -4.29448 h -11.21824 v 35.057 h 11.21824 V 974.8765 c 0,-2.54163 1.577565,-5.52148 4.995622,-5.52148 3.067487,0 5.083265,2.45399 5.083265,5.52148 v 20.33306 H 78.515365 V 974.8765 c 0,-2.54163 1.577565,-5.52148 4.995622,-5.52148 3.067488,0 5.170908,2.45399 5.170908,5.52148 v 20.33306 h 11.130596 v -22.17355 c 0,-8.15075 -4.294482,-13.58459 -12.007021,-13.58459 z"
       style="font-style:normal;font-variant:normal;font-weight:bold;font-stretch:normal;font-size:232.308px;line-height:1.25;font-family:now;-inkscape-font-specification:'now Bold';letter-spacing:0px;word-spacing:0px;fill:#ffffff;fill-opacity:1;stroke-width:1.75285"
       id="path957" />
    <path
       d="m 126.54337,995.9107 c 11.74409,0 19.45663,-7.71254 19.45663,-18.22964 0,-10.5171 -7.71254,-18.22964 -19.45663,-18.22964 -11.7441,0 -19.54428,7.71254 -19.54428,18.22964 0,10.5171 7.80018,18.22964 19.54428,18.22964 z m 0,-9.9036 c -4.82034,-0.0876 -8.32604,-3.59334 -8.32604,-8.32604 0,-4.73269 3.5057,-8.23839 8.32604,-8.32604 4.73269,0.0876 8.32603,3.59335 8.32603,8.32604 0,4.7327 -3.59334,8.2384 -8.32603,8.32604 z"
       style="font-style:normal;font-variant:normal;font-weight:bold;font-stretch:normal;font-size:232.308px;line-height:1.25;font-family:now;-inkscape-font-specification:'now Bold';letter-spacing:0px;word-spacing:0px;fill:#ffffff;fill-opacity:1;stroke-width:1.75285"
       id="path959" />
  </g>
  <style
     type="text/css"
     id="style853">
	.st0{fill:#FFFFFF;}
</style>
  <style
     type="text/css"
     id="style853-9">
	.st0{fill:#FFFFFF;}
</style>
  <style
     type="text/css"
     id="style853-3">
	.st0{fill:#FFFFFF;}
</style>
</svg>
