<?xml version="1.0" encoding="utf-8"?>
<!-- Generator: Adobe Illustrator 17.1.0, SVG Export Plug-In . SVG Version: 6.00 Build 0)  -->
<!DOCTYPE svg PUBLIC "-//W3C//DTD SVG 1.1//EN" "http://www.w3.org/Graphics/SVG/1.1/DTD/svg11.dtd">
<svg version="1.1" id="Слой_1" xmlns="http://www.w3.org/2000/svg" xmlns:xlink="http://www.w3.org/1999/xlink" x="0px" y="0px"
	 viewBox="0 0 192 192" enable-background="new 0 0 192 192" xml:space="preserve">
<pattern  width="192" height="192" patternUnits="userSpaceOnUse" id="Unnamed_Pattern" viewBox="0 -192 192 192" overflow="visible">
	<g>
		<polygon fill="none" points="0,0 192,0 192,-192 0,-192 		"/>
		<polygon fill="#89BDFC" points="192,0 0,0 0,-192 192,-192 		"/>
	</g>
</pattern>
<pattern  id="SVGID_1_" xlink:href="#Unnamed_Pattern" patternTransform="matrix(1 0 0 1 -95.6825 -32.25)">
</pattern>
<rect y="0" fill="url(#SVGID_1_)" width="192" height="192"/>
<g>
	<path fill="#B8B8B8" d="M112.6,95.5c-0.2,0.5-0.6,0.8-1.1,1C111.7,96.1,112,95.6,112.6,95.5z"/>
</g>
<path fill="#FFC28A" d="M91.5,109c3.3-1.2,6-3.3,8.7-5.6c5.2-4.5,9-10.2,12.4-16.1c0.9-1.6,1.8-3.2,2.6-4.8c0.5-0.9,0.7-1.8,0.6-2.8
	c0.4-0.5,0.7-0.1,0.9,0.2c0.6,0.6,1.3,1.1,2.1,1.3c1.5,0.4,3-0.1,4-1.3c0.4-0.5,0.4-0.5,0.9-0.4c1.4,3.1,3.7,5.3,6.4,7.3
	c4.7,3.4,9.6,6.6,14.6,9.8c3.9,2.5,7.9,4.7,11.9,6.9c0.2,0.1,0.6,0.2,0.6,0.5c-0.1,0.4-0.5,0.3-0.8,0.3c-2.7,0-3.4,0.4-7.9-1.7
	c0,0.5,0.4,0.7,0.6,0.9c2.4,2.7,4.8,5.3,6.5,8.4c0.6,1,1,2.1,1.5,3.2c0.3,0.6,0,0.9-0.5,1.1c-2.8,1.1-5.6,1.1-8.4,0.3
	c-2-0.6-4-1.3-5.7-2.6c0.5,1.4,1,2.9,1.6,4.3c2,5,1.3,9.8-0.6,14.6c-0.2,0.4-0.5,0.5-0.8,0.4c-3.4-0.1-6.9-0.1-10.1-1.5
	c-1.2-0.5-2.4-1.1-3.4-2c-0.7-0.1-1.1-0.7-1.5-1.3c-3.5-4.9-5.6-10.3-6.9-16.1c-0.7-3.1-1.3-6.3-1.9-9.5c-0.2-0.8-0.2-1.7-0.2-2.6
	c0.2,4.9-0.2,9.8-0.6,14.7c-0.3,3.2-0.7,6.5-1.4,9.6c-0.3,1.5-1.1,2.8-1.2,4.3c0,0.3-0.2,0.5-0.5,0.5c-0.9,0.1-1.8,0.6-2.7,0.8
	c-2.2,0.4-4.2-0.2-6.3-0.7c-0.9-0.2-1.2-0.6-1.1-1.5c0.6-3.6,1.4-7.1,2.6-10.5c1.1-3.2,2.1-6.4,2.9-9.7c0.6-2.2,1.1-4.5,1.6-6.8
	c0-0.2,0.1-0.4-0.2-0.6c-4.8,6.1-10.4,11.3-17.5,14.6c-0.6,0.1-0.5-0.3-0.5-0.6c0.3-2-0.5-3.4-2.1-4.5
	C91.2,109.5,91.2,109.5,91.5,109z"/>
<path fill="#FF847E" d="M66.2,95.5c-0.8,1-1.9,1.6-3,2.3c-0.5,0.3-0.6,0.4-0.3,1c1.2,1.9,1.7,4.1,2.4,6.2c0.6,1.7,0.9,3.6,2.6,4.8
	c3.4,2.5,7.1,3.8,11.3,3.7c2.4-0.1,4.8-0.3,7.1-1.1c0.3,0,0.4,0.3,0.5,0.5c0.3,1.1,0.9,2,1.9,2.5c0.3,0.2,0.6,0.3,0.4,0.8
	c-1.2,0.8-2.7,1.2-4.1,1.4c-2.1,0.3-4.3,0.4-6.5,0.5c-3.2,0.1-6.2-0.5-9.2-1.9c-0.5-0.2-0.7-0.6-0.9-1.1c-1-2.1-1.8-4.2-3.5-5.9
	c-0.3-0.3-0.6-0.7-1-1c-0.7-0.5-0.9-0.6-1.3,0.3c-1,1.9-2.1,3.7-3.2,5.5c-2.3,3.7-4.9,7.3-7.9,10.5c-1.9,1.9-3.9,3.7-5.9,5.4
	c-0.3,0.2-0.6,0.6-1,0.3c-1.6-3.2-1.9-6.3,0.5-9.5c3.8-5,6.7-10.5,8.9-16.4c0.5-1.4,0.9-2.8,1.2-4.2c0.1-0.5,0-0.8-0.5-0.8
	c-2.8-0.3-5.2-1.5-7.4-3.3c-0.4-0.3-0.7-0.4-1.2-0.1c-1.7,1.1-2.9,2.6-3.7,4.4c-0.9,2.2-2.1,4.2-3,6.4c-0.3,0.9-0.7,0.9-1.3,0.1
	c-0.9-1.1-1.1-2.4-1.4-3.7c-1-4.1-1.9-8.1-1.8-12.3c0.1-3.1,0.6-6.1,2.2-8.8c0.5-0.8,1.1-1.6,1.8-2.2c3.9-3.4,8.1-6.3,12.9-8.2
	c2.7-1,5.5-1,8.3-0.3c-0.2,0.5-0.6,0.4-1,0.4c-1.2,0.1-2,0.7-2.5,1.8c-0.9,1.8-1,3.7-0.8,5.6c0.4,4.2,1.6,8.2,4.1,11.7
	c1.1,1.5,2.4,2.9,4.1,3.8C64.7,95.1,65.6,95,66.2,95.5z"/>
<path fill="#FF847E" d="M123.6,79.5c-0.4-0.2-0.4,0.2-0.5,0.4c-1.5,2.5-5.1,2.2-6.6,0.2c-0.2-0.2-0.3-0.6-0.7-0.4
	c-0.3-0.8-0.1-1.7-0.1-2.5c0-1.5,0-3,0-4.5c0.1-0.1,0.2-0.2,0.3-0.2c2.9-0.7,4-3,4.4-5.5c0.7-4.2,0-8.3-1.8-12.2
	c-1.2-2.7-2.8-5.1-5-7c-1.1-1-2.4-1.8-3.8-2.3c-0.9-0.3-1.8-0.5-2.8-0.2c-0.3,0.1-0.6,0.2-0.8-0.1c0.5-0.9,1.4-1.4,2.3-2
	c3.8-2.5,7.9-3.2,12.3-2.4c2.6,0.5,5,1.7,7.3,3.6c-0.7-3.2-0.4-6,1.2-8.7c1.6-2.7,3.9-4.4,6.9-5.1c4.8-1.1,9.6,0.8,12.2,5.1
	c2.5,4.1,2,9.7-1.4,13.3c-3,3.3-8.4,5.2-14.5,1.8c0.7,1.7,1,3.3,1.1,5c0.1,3.2-0.4,6.2-2.1,9c-1.8,3-4.2,5.2-7.3,6.7
	c-0.4,0.2-0.5,0.4-0.5,0.9c0,2.2,0,4.5,0,6.7C123.7,79.2,123.7,79.3,123.6,79.5z"/>
<path fill="#FFFFFF" d="M44.5,130.1c0.9-0.3,1.5-1,2.2-1.6c6-4.9,10.5-11,14.4-17.7c0.6-1,1.1-2,1.7-3c0.3-0.5,0.4-0.6,1-0.2
	c2.5,1.9,3.8,4.6,5,7.4c0.2,0.4,0.4,0.7,0.6,1c0.1,1.4,0.7,2.5,1.1,3.8c0.4,1.3,0.9,2.6,1.4,4c0.7,2.1,0.2,4-0.8,5.8
	c-1.4,2.6-3.5,4.6-6.4,5.6c-0.5,0.2-0.7,0.5-0.7,1.1c0,3.3,0.1,6.6-0.1,9.8c0,1.1,0.3,1.9,1.1,2.6c0.7,0.6,1.3,1.3,1.5,2.3
	c0.2,1-0.1,1.4-1.1,1.6c-2.2,0.3-3.9-0.6-5.4-2.1c-0.4-0.3-0.3-0.8-0.3-1.2c0.1-4,0.2-8,0.3-11.9c0-0.8-0.2-1.1-1-1
	c-0.3,0.1-0.7,0-1.1,0c-1.6,0-1.5,0-1.6,1.7c-0.2,4.4-0.3,8.7-0.5,13.1c0,0.9,0.1,1.7,0.9,2.3c0.8,0.5,1.3,1.3,1.6,2.2
	c0.3,0.8,0.1,1.3-0.7,1.6c-1.1,0.5-2.3,0.5-3.4-0.1c-0.8-0.5-1.5-1.1-2.3-1.6c-0.5-0.3-0.5-0.8-0.5-1.4c0.2-5.9,0.4-11.8,0.6-17.7
	c0-0.7-0.2-1-0.8-1.1c-2.1-0.6-3.9-1.6-5.5-3.2C45.3,131.8,44.7,131,44.5,130.1z"/>
<path fill="#FF847E" d="M114.8,129.3c0.1-0.1,0.2-0.1,0.2-0.2c0.1-2.5,1.4-4.8,1.7-7.3c0.4-2.9,0.8-5.8,1-8.7
	c0.3-4.4,0.5-8.8,0.7-13.3c0.3,1.8,0.7,3.7,1,5.5c1.2,6.2,2.4,12.3,5.4,18c1.2,2.2,2.4,4.4,4.2,6.2c-0.3,0.8-0.1,1.7,0,2.5
	c0.1,6.6,0.3,13.2,0.4,19.8c0,1.8,0,3.6,0.1,5.4c0,0.5-0.2,0.8-0.5,1c-1.6,1.1-3.2,2.2-5,3c-1,0.5-2.1,0.6-3.2,0.3
	c-1.1-0.4-1.4-1.2-0.9-2.2c0.6-1.4,1.7-2.4,2.7-3.4c0.3-0.2,0.5-0.5,0.8-0.7c1.4-0.8,1.6-2.1,1.5-3.7c-0.1-8.2-0.5-16.4-0.7-24.6
	c0-1.4-0.3-1.8-1.7-1.9c-0.9-0.1-1.8-0.1-2.7,0.1c-0.6,0.2-0.9,0.6-0.9,1.2c0.2,7.4,0.4,14.7,0.5,22.1c0,1.2,0,2.5,0.1,3.7
	c0,0.4-0.1,0.7-0.4,0.9c-1.7,1.2-3.4,2.4-5.5,3c-0.7,0.2-1.4,0.3-2.2,0.2c-1.2-0.1-1.7-1-1.2-2.1c0.8-1.7,2.1-2.9,3.4-4.2
	c0.9-0.8,1.3-1.7,1.3-3c-0.1-5.3,0-10.6,0-15.9C114.8,130.7,114.8,130,114.8,129.3z"/>
<path fill="#FFFFFF" d="M106.1,45.1c2.8-0.9,5.1,0.3,7.1,2c3.8,3.2,6,7.4,7.1,12.2c0.7,3.2,0.9,6.5-0.3,9.7c-0.8,2-2.1,3.5-4.4,3.7
	c-5.1-0.5-9-3-11.8-7.2c-4.1-6-3.4-14.4,1.5-19.7C105.6,45.6,105.8,45.4,106.1,45.1z"/>
<path fill="#FFFFFF" d="M66.2,95.5c-3.1-0.1-5-2.3-6.6-4.5c-3-4.3-4.4-9.1-4.1-14.4c0.1-1.1,0.3-2.2,0.9-3.2c0.5-1,1.4-1.7,2.6-1.8
	c0.3,0,0.7,0,1-0.2c3.6,0.7,6.2,2.8,8.3,5.7c2.8,4.1,3.2,8.6,1.6,13.3c-0.6,1.9-1.8,3.4-3.1,4.9C66.6,95.4,66.4,95.4,66.2,95.5z"/>
<path fill="#FFFFFF" d="M89,116.1c0-0.2-0.1-0.4-0.3-0.5c-1.3-0.6-2-1.6-2.1-3c0-0.1-0.1-0.2-0.2-0.3c1-2.2,3-2.8,5.1-3.2
	c-0.3,0.3-0.1,0.4,0.2,0.6c1.9,1.1,2.6,2.7,2.2,4.9c0,0.3-0.1,0.4,0.2,0.5c-1.3,0.9-2.7,1.4-4.3,1.2C89.6,116.1,89.3,116.1,89,116.1
	z"/>
</svg>
