<svg xmlns="http://www.w3.org/2000/svg" xml:space="preserve" width="192" height="192"><defs><linearGradient id="a" x1="96" x2="96" y1="20" y2="174.25" gradientUnits="userSpaceOnUse"><stop offset="0" stop-color="#9abeff"/><stop offset="1" stop-color="#bd9aff"/></linearGradient></defs><rect width="152" height="152" x="20" y="20" fill="url(#a)" rx="9.935"/><path fill="none" stroke="#fff" stroke-linecap="round" stroke-linejoin="round" stroke-width="5" d="m73.11 98.6-13.071 27.408c-.713 1.496-1.297 1.365-1.312-.292-.178-19.217-1.109-38.522 5.07-56.993.525-1.571 1.963-1.881 3.025-.61 12.366 14.805 16.619 43.375 25.332 48.579 1.405.839 4.258.861 5.749.169 10.356-4.81 14.889-34.893 26.412-49.088 1.043-1.286 2.459-.965 2.975.61 6.655 20.306 6.69 38.96 5.638 57.34-.095 1.653-.782 1.793-1.524.312L117.658 98.6"/><path fill="none" stroke="#fff" stroke-linecap="round" stroke-linejoin="round" stroke-width="5" d="M76.998 86.216s7.984-16.544 14.923-20.607c1.413-.827 4.229-.885 5.72-.195 7.878 3.643 15.608 20.302 15.608 20.302"/></svg>