<?xml version="1.0" encoding="UTF-8" standalone="no"?>
<svg
   sodipodi:docname="mull.svg"
   inkscape:version="1.2 (dc2aedaf03, 2022-05-15)"
   version="1.1"
   id="svg2"
   viewBox="0 0 192 192"
   height="192"
   width="192"
   inkscape:export-filename="../png/mull.png"
   inkscape:export-xdpi="96"
   inkscape:export-ydpi="96"
   xml:space="preserve"
   xmlns:inkscape="http://www.inkscape.org/namespaces/inkscape"
   xmlns:sodipodi="http://sodipodi.sourceforge.net/DTD/sodipodi-0.dtd"
   xmlns="http://www.w3.org/2000/svg"
   xmlns:svg="http://www.w3.org/2000/svg"
   xmlns:rdf="http://www.w3.org/1999/02/22-rdf-syntax-ns#"
   xmlns:cc="http://creativecommons.org/ns#"
   xmlns:dc="http://purl.org/dc/elements/1.1/"><sodipodi:namedview
     inkscape:document-rotation="0"
     inkscape:window-maximized="1"
     inkscape:window-y="0"
     inkscape:window-x="36"
     inkscape:window-height="1052"
     inkscape:window-width="1884"
     units="px"
     showgrid="false"
     inkscape:current-layer="layer1"
     inkscape:document-units="px"
     inkscape:cy="114.90485"
     inkscape:cx="110.04349"
     inkscape:zoom="5.6568542"
     inkscape:pageshadow="2"
     inkscape:pageopacity="0.0"
     borderopacity="1.0"
     bordercolor="#666666"
     pagecolor="#ffffff"
     id="base"
     inkscape:snap-bbox="false"
     inkscape:object-paths="true"
     inkscape:snap-nodes="true"
     showguides="true"
     inkscape:guide-bbox="true"
     inkscape:snap-object-midpoints="true"
     inkscape:snap-center="true"
     inkscape:snap-global="false"
     inkscape:snap-intersection-paths="true"
     inkscape:snap-smooth-nodes="true"
     inkscape:snap-midpoints="true"
     inkscape:showpageshadow="0"
     inkscape:pagecheckerboard="0"
     inkscape:deskcolor="#d1d1d1" /><defs
     id="defs4"><linearGradient
       id="linearGradient5666"
       inkscape:swatch="solid"><stop
         style="stop-color:#000000;stop-opacity:1;"
         offset="0"
         id="stop5664" /></linearGradient></defs><metadata
     id="metadata7"><rdf:RDF><cc:Work
         rdf:about=""><dc:format>image/svg+xml</dc:format><dc:type
           rdf:resource="http://purl.org/dc/dcmitype/StillImage" /></cc:Work></rdf:RDF></metadata><g
     transform="translate(0,-860.36216)"
     id="layer1"
     inkscape:groupmode="layer"
     inkscape:label="Calque 1"><path
       id="path11769"
       style="fill:#ffb0ac;fill-opacity:1;stroke-width:1.05753"
       d="m 33.570879,897.85382 c -4.687251,-0.0306 -8.439718,0.31155 -9.637371,0.8628 -3.193731,1.46996 -4.177236,27.49811 0,33.87501 3.035109,4.64256 8.27959,7.71808 13.461487,9.05058 -1.797808,2.10446 -3.594686,4.37862 -5.318455,6.80035 -0.148056,0.20093 -0.297014,0.40264 -0.44507,0.61416 h 0.01247 c -4.420476,6.32402 -8.281456,13.59972 -10.174437,21.46776 0,0 3.626442,-4.28237 10.204275,-4.93803 0,0 -10.193211,4.92707 -11.673751,20.22952 0,0 6.747013,-5.09642 16.45514,-4.44076 0,0 -10.363144,0.98225 -14.001042,12.34012 0,0 12.699345,-8.16315 30.846551,-2.93895 16.899314,4.86463 15.874555,25.85542 28.215917,30.25482 10.163683,3.6268 14.457457,-1.2756 14.483403,-1.3055 0.02597,0.03 4.319724,4.9323 14.483404,1.3055 12.34136,-4.3994 11.31411,-25.39019 28.21344,-30.25482 18.14721,-5.2242 30.84903,2.93895 30.84903,2.93895 -3.63544,-11.35022 -13.98711,-12.33878 -14.00103,-12.34012 9.70812,-0.65566 16.45514,4.44076 16.45514,4.44076 -1.48054,-15.30245 -11.67625,-20.22952 -11.67625,-20.22952 6.57784,0.65566 10.20428,4.93803 10.20428,4.93803 -1.89298,-7.86804 -5.75148,-15.14374 -10.17195,-21.46776 h 0.0103 c -0.14805,-0.21152 -0.29701,-0.41323 -0.44507,-0.61416 -1.72377,-2.42173 -3.52065,-4.69589 -5.31846,-6.80035 5.1819,-1.3325 10.42637,-4.40802 13.46149,-9.05058 4.17724,-6.3769 3.19373,-32.40505 0,-33.87501 -3.19375,-1.46997 -24.54425,-1.46866 -33.38519,3.19504 -4.33587,2.28427 -7.18128,5.63583 -8.96852,8.44886 -2.6861,-1.17385 -5.50899,-2.16629 -8.3643,-2.99116 -7.67347,-2.20903 -15.5466,-3.21384 -21.340985,-3.21495 h -0.01019 c -5.794368,10e-4 -13.667501,1.00591 -21.340963,3.21495 -2.855329,0.82487 -5.680694,1.81731 -8.36681,2.99116 -1.78723,-2.81303 -4.630168,-6.16459 -8.966038,-8.44886 -5.525595,-2.91481 -15.938216,-4.00682 -23.750302,-4.05784 z" /><path
       id="path11771"
       d="m 123.11961,915.63829 c 0,0 2.69671,-9.0842 11.53767,-13.7479 8.84094,-4.66372 30.1925,-4.66372 33.38622,-3.19374 3.19375,1.46997 4.17726,27.49579 0,33.8727 -4.17723,6.38749 -12.52114,9.82447 -19.15187,9.82447 -6.63071,0 -27.49579,-15.95815 -27.49579,-15.95815 z"
       fill="#e91e63"
       style="fill:#ffb0ac;fill-opacity:1;stroke-width:1.05753" /><path
       id="path11773"
       d="m 130.86075,917.15055 c 0,0 1.78721,-6.02792 7.65651,-9.11591 5.85872,-3.09856 20.02963,-3.09856 22.14468,-2.11505 2.11507,0.97292 2.77074,18.24239 0,22.47251 -2.77073,4.23013 -8.30161,6.5144 -12.70093,6.5144 -4.39933,0 -18.24241,-10.58588 -18.24241,-10.58588 z"
       fill="#424242"
       style="fill:#83868c;fill-opacity:1;stroke-width:1.05753" /><path
       id="path11775"
       d="m 68.836574,915.63829 c 0,0 -2.696703,-9.0842 -11.537658,-13.7479 -8.840955,-4.66372 -30.192496,-4.66372 -33.386237,-3.19374 -3.193744,1.46997 -4.177247,27.49579 0,33.8727 4.177244,6.38749 12.52116,9.82447 19.151877,9.82447 6.630716,0 27.495793,-15.95815 27.495793,-15.95815 z"
       fill="#e91e63"
       style="fill:#ffb0ac;fill-opacity:1;stroke-width:1.05753" /><path
       id="path11777"
       d="m 61.09545,917.15055 c 0,0 -1.787225,-6.02792 -7.656521,-9.11591 -5.858718,-3.09856 -20.029627,-3.09856 -22.144687,-2.11505 -2.115062,0.97292 -2.770731,18.24239 0,22.47251 2.770728,4.23013 8.301613,6.5144 12.700939,6.5144 4.399329,0 18.242402,-10.58588 18.242402,-10.58588 z"
       fill="#424242"
       style="fill:#83868c;fill-opacity:1;stroke-width:1.05753" /><path
       style="fill:#56595b;fill-opacity:1;stroke-width:1.05753"
       d="m 56.347139,916.18821 c 0,0 5.076146,0.0423 9.189939,1.195 0,0 -10.533004,2.13622 -18.750015,7.57192 0,0 3.119715,0.16922 7.233508,0.82488 0,0 -12.595188,9.23223 -22.409071,23.27624 33.11128,6.42979 39.181506,41.80418 39.181506,41.80418 1.364214,-2.18909 10.945441,-8.75636 10.945441,-8.75636 4.124368,-47.53599 -3.225469,-67.69251 -7.106605,-74.74625 -6.768196,1.94586 -13.377762,4.83291 -18.284703,8.83039 z"
       id="path11779" /><path
       id="path11781"
       d="m 95.983388,991.72761 c -11.273281,0 -16.508057,4.97039 -16.508057,4.97039 0,0 11.167519,14.9112 16.508057,15.1756 5.340522,-0.2644 16.508042,-15.1756 16.508042,-15.1756 0,0 -5.23477,-4.97039 -16.508042,-4.97039 z"
       fill="#212121"
       style="fill:#56595b;fill-opacity:1;stroke-width:1.05753" /><path
       id="path11783"
       d="m 95.983388,994.23396 c 9.686982,0 15.016922,1.86125 16.497472,2.46404 v -0.0103 c 0,0 -5.23477,-4.97039 -16.508051,-4.97039 -11.273277,0 -16.508053,4.97039 -16.508053,4.97039 v 0.0103 c 1.491117,-0.60279 6.821072,-2.46404 16.518632,-2.46404 z"
       fill="#424242"
       style="fill:#83868c;fill-opacity:1;stroke-width:1.05753" /><path
       style="fill:#56595b;fill-opacity:1;stroke-width:1.05753"
       d="m 135.67556,916.21263 c 0,0 -5.07615,0.0423 -9.18994,1.19501 0,0 10.53301,2.13621 18.75002,7.57192 0,0 -3.11972,0.16921 -7.23351,0.82488 0,0 12.59519,9.23223 22.40907,23.27624 -33.11128,6.42979 -39.1815,41.80418 -39.1815,41.80418 -1.36422,-2.18909 -10.94544,-8.75636 -10.94544,-8.75636 -4.12437,-47.536 3.22547,-67.69252 7.10659,-74.74625 6.7682,1.94586 13.37776,4.83291 18.28471,8.83038 z"
       id="path11823" /><path
       id="path11785"
       d="m 113.00963,961.95812 c 0.79102,2.82362 2.30753,5.37014 4.32846,7.26525 2.02095,1.89615 4.44163,3.04462 6.90779,3.27728 2.46722,0.23266 4.85301,-0.46214 6.80944,-1.98287 1.95644,-1.51967 3.38305,-3.78808 4.07044,-6.47209 0.6874,-2.68401 0.60173,-5.6472 -0.2464,-8.4539 -0.79103,-2.8236 -2.30754,-5.37013 -4.32848,-7.26523 -2.02094,-1.89615 -4.44163,-3.04463 -6.90779,-3.27728 -2.46721,-0.23266 -4.85301,0.46213 -6.80944,1.98286 -1.95643,1.51967 -3.38304,3.78808 -4.07044,6.47208 -0.68738,2.68402 -0.60173,5.64722 0.24642,8.4539 z"
       fill="#424242"
       style="fill:#83868c;fill-opacity:1;stroke-width:1.05753" /><path
       id="path11787"
       d="m 123.94449,957.99238 m -7.20179,0 c 0,-1.90884 0.75932,-3.7426 2.10977,-5.092 1.34942,-1.35048 3.18317,-2.10978 5.09202,-2.10978 1.90884,0 3.74259,0.7593 5.09201,2.10978 1.35047,1.3494 2.10977,3.18316 2.10977,5.092 0,1.90885 -0.7593,3.7426 -2.10977,5.09201 -1.34942,1.35047 -3.18317,2.10978 -5.09201,2.10978 -1.90885,0 -3.7426,-0.75931 -5.09202,-2.10978 -1.35045,-1.34941 -2.10977,-3.18316 -2.10977,-5.09201"
       fill="#332a24"
       style="fill:#56595b;fill-opacity:1;stroke-width:1.05753" /><path
       id="path11789"
       d="m 123.94449,957.99238 m -4.63199,0 c -0.0487,-1.00677 0.23372,-2.00296 0.80267,-2.83523 0.56895,-0.83228 1.39488,-1.45622 2.35089,-1.77771 0.95601,-0.32044 1.99027,-0.32044 2.94627,0 0.95602,0.32149 1.78195,0.94543 2.35091,1.77771 0.56895,0.83227 0.8513,1.82846 0.80266,2.83523 0.0486,1.00678 -0.23371,2.00296 -0.80266,2.83525 -0.56896,0.83228 -1.39489,1.45622 -2.35091,1.7777 -0.956,0.32043 -1.99026,0.32043 -2.94627,0 -0.95601,-0.32148 -1.78194,-0.94542 -2.35089,-1.7777 -0.56895,-0.83229 -0.85131,-1.82847 -0.80267,-2.83525"
       fill="#4d4a47"
       style="fill:#83868c;fill-opacity:1;stroke-width:1.05753" /><path
       id="path11791"
       d="m 122.54855,956.55414 m -1.86126,0 c 0,-0.49387 0.1967,-0.96764 0.54464,-1.31662 0.34898,-0.34793 0.82275,-0.54463 1.31662,-0.54463 0.49387,0 0.96764,0.1967 1.31663,0.54463 0.34792,0.34898 0.54462,0.82275 0.54462,1.31662 0,0.49387 -0.1967,0.96765 -0.54462,1.31663 -0.34899,0.34793 -0.82276,0.54463 -1.31663,0.54463 -0.49387,0 -0.96764,-0.1967 -1.31662,-0.54463 -0.34794,-0.34898 -0.54464,-0.82276 -0.54464,-1.31663"
       fill="#ffffff"
       style="stroke-width:1.05753" /><path
       id="path11793"
       d="m 78.946565,961.94755 c 0.84814,-2.80669 0.9338,-5.76989 0.246406,-8.4539 -0.687396,-2.68401 -2.114004,-4.95242 -4.070436,-6.47208 -1.956432,-1.52073 -4.34222,-2.21554 -6.809438,-1.98287 -2.466161,0.23265 -4.886849,1.38112 -6.907791,3.27728 -2.02094,1.89509 -3.537438,4.44163 -4.328471,7.26523 -0.84814,2.80669 -0.9338,5.76989 -0.246405,8.4539 0.687396,2.68402 2.114003,4.95242 4.070435,6.4721 1.956432,1.52072 4.34222,2.21552 6.809439,1.98286 2.466161,-0.23265 4.886848,-1.38113 6.907788,-3.27729 2.020942,-1.89509 3.537441,-4.44162 4.328473,-7.26523 z"
       fill="#424242"
       style="fill:#83868c;fill-opacity:1;stroke-width:1.05753" /><path
       id="path11795"
       d="m 68.022276,957.99238 m -7.201784,0 c 0,-1.90884 0.759307,-3.7426 2.109775,-5.092 1.349408,-1.35048 3.183166,-2.10978 5.092009,-2.10978 1.908843,0 3.742601,0.7593 5.092008,2.10978 1.350467,1.3494 2.109774,3.18316 2.109774,5.092 0,1.90885 -0.759307,3.7426 -2.109774,5.09201 -1.349407,1.35047 -3.183165,2.10978 -5.092008,2.10978 -1.908843,0 -3.742601,-0.75931 -5.092009,-2.10978 -1.350468,-1.34941 -2.109775,-3.18316 -2.109775,-5.09201"
       fill="#332a24"
       style="fill:#56595b;fill-opacity:1;stroke-width:1.05753" /><path
       id="path11797"
       d="m 68.022276,957.99238 m -4.631984,0 c -0.04865,-1.00677 0.233715,-2.00296 0.802665,-2.83523 0.568952,-0.83228 1.394882,-1.45622 2.350891,-1.77771 0.956006,-0.32044 1.990272,-0.32044 2.94628,0 0.956007,0.32149 1.781939,0.94543 2.35089,1.77771 0.568952,0.83227 0.851312,1.82846 0.802666,2.83523 0.04864,1.00678 -0.233714,2.00296 -0.802666,2.83525 -0.568951,0.83228 -1.394883,1.45622 -2.35089,1.7777 -0.956008,0.32043 -1.990274,0.32043 -2.94628,0 -0.956009,-0.32148 -1.781939,-0.94542 -2.350891,-1.7777 -0.56895,-0.83229 -0.851312,-1.82847 -0.802665,-2.83525"
       fill="#4d4a47"
       style="fill:#83868c;fill-opacity:1;stroke-width:1.05753" /><path
       id="path11799"
       d="m 66.626336,956.55414 m -1.861254,0 c -0.001,-0.3934 0.12267,-0.77834 0.353215,-1.09665 0.230542,-0.31939 0.557318,-0.55732 0.931685,-0.67895 0.374365,-0.12157 0.778341,-0.12157 1.152708,0 0.374365,0.12158 0.701142,0.35956 0.931683,0.67895 0.230543,0.31831 0.354273,0.70325 0.353215,1.09665 10e-4,0.39341 -0.12267,0.77834 -0.353215,1.09667 -0.230541,0.31937 -0.557318,0.55731 -0.931683,0.67893 -0.374367,0.12158 -0.778343,0.12158 -1.152708,0 -0.374367,-0.12158 -0.701143,-0.35956 -0.931685,-0.67893 -0.230542,-0.31833 -0.354273,-0.70326 -0.353215,-1.09667"
       fill="#ffffff"
       style="stroke-width:1.05753" /></g><style
     type="text/css"
     id="style853">
	.st0{fill:#FFFFFF;}
</style><style
     type="text/css"
     id="style853-9">
	.st0{fill:#FFFFFF;}
</style><style
     type="text/css"
     id="style853-3">
	.st0{fill:#FFFFFF;}
</style><style
     type="text/css"
     id="style853-36">
	.st0{fill:#FFFFFF;}
</style><style
     type="text/css"
     id="style853-9-7">
	.st0{fill:#FFFFFF;}
</style><style
     type="text/css"
     id="style853-3-5">
	.st0{fill:#FFFFFF;}
</style><style
     type="text/css"
     id="style853-6">
	.st0{fill:#FFFFFF;}
</style><style
     type="text/css"
     id="style853-7">
	.st0{fill:#FFFFFF;}
</style></svg>
