<svg xmlns="http://www.w3.org/2000/svg" xml:space="preserve" style="fill-rule:evenodd;clip-rule:evenodd;stroke-linejoin:round;stroke-miterlimit:2" viewBox="0 0 192 192"><path d="M7.5 96c0 48.91 39.66 88.5 88.5 88.5s88.5-39.59 88.5-88.5S144.91 7.5 96 7.5 7.5 47.09 7.5 96z" style="fill:#54688c;stroke-width:.700713"/><path d="m35.361 84.473 5.474-7.642c0 .057-.342 11.006-.342 11.006l1.54-8.269c4.562 9.238 15.738 22.012 25.946 28.855 1.083.74 1.996 1.54 2.623 2.338 1.311.513 2.623.798 3.935 1.026.684.114 1.425.171 2.11.228.684.057 1.425.057 2.11.057.684 0 1.368-.057 2.052-.114.684-.057 1.369-.171 2.053-.285.684-.114 1.369-.228 1.996-.456a26.2 26.2 0 0 0 1.996-.57c.627-.172 1.311-.457 1.939-.685.627-.285 1.254-.513 1.881-.855.628-.342 1.255-.627 1.825-.97.627-.285 1.198-.684 1.825-1.026.627-.342 1.197-.741 1.825-1.083.627-.343 1.197-.742 1.767-1.084.57-.399 1.198-.741 1.768-1.14.57-.4 1.198-.742 1.825-1.14l.57-.343.285.171 4.106 2.737-4.163-1.083c-.399.456-.798.912-1.254 1.368-.514.514-1.084 1.027-1.597 1.54-.57.456-1.14.97-1.768 1.369-.627.456-1.197.855-1.882 1.254a24.512 24.512 0 0 1-4.048 2.053 31.81 31.81 0 0 1-2.11.798c-.741.228-1.426.457-2.167.628-.741.17-1.483.342-2.224.456-.741.114-1.483.17-2.224.285-1.483.057-3.022.057-4.505-.171-.741-.114-1.482-.228-2.224-.4-.741-.17-1.425-.398-2.11-.627-1.197-.456-2.395-1.026-3.478-1.71 0 0-3.935.57-2.338 3.535 1.597 2.965 3.992 2.68 2.851 6.159-.798 1.882-1.939 3.706-3.193 5.417-2.623 3.536-6.73 6.672-6.33 8.554 18.647 22.98 60.674 19.787 76.64-.742-.228-2.965-4.904-4.39-8.154-11.633.912.286 2.28.685 2.28.628 0-.057-3.877-6.33-4.048-6.957l2.51.17s-3.308-4.105-3.422-4.504l3.364-.456s-4.22-4.847-4.277-5.246l4.277.684-4.676-5.646h2.224l-2.623-3.82c-.456-.171-.912-.285-1.368-.4l-1.711-.513c-6.387-1.995-12.431-3.82-18.248-7.47-8.154-5.075-15.453-11.29-20.928-16.137l-11.005-5.36c-10.55-.799-20.472-.514-26.516.684l3.877-6.615-5.93 7.128c-.4-.114-.514-.342-.514-.342l.4-8.782-1.882 7.926c-.57-.285-1.255-.399-1.939-.399a4.721 4.721 0 0 0-4.733 4.733c0 2.395 1.768 4.391 4.106 4.676z" style="fill:#c39a54;stroke-width:.57024" transform="matrix(.77793 0 0 .77793 22.774 21.319)"/><path d="M41.976 67.137c-.57-.228-1.255-.399-1.882-.399a4.721 4.721 0 0 0-4.733 4.733c0 2.281 1.654 4.22 3.82 4.676h.115c1.425-.456 4.276-4.277 3.82-6.672a5.281 5.281 0 0 0-1.14-2.338z" style="fill:#fdf5d9;stroke-width:.57024" transform="matrix(.77793 0 0 .77793 22.774 21.319)"/><path d="M83.546 61.036c-.855-2.338-.627-5.36.57-8.212 1.711-3.934 4.962-6.558 8.04-6.558.628 0 1.198.114 1.769.343a20.427 20.427 0 0 1 6.101-3.821c12.603-5.018 31.021 3.935 35.754 16.309 2.281 5.987 1.597 12.545-.342 18.533-1.596 4.904-7.413 11.975-5.246 17.335-.855-.228-18.875-5.816-23.893-9.01-8.04-5.018-15.283-11.177-20.7-15.967l-.17-.17-18.306-8.668a6.22 6.22 0 0 1-.627-.342c2.623 0 12.602 1.197 17.05.228" style="fill:#f9de81;stroke-width:.57024" transform="matrix(.77793 0 0 .77793 22.774 21.319)"/><path d="M88.964 63.089c-.514 0-.97-.115-1.312-.286-.912-.399-1.597-1.14-2.053-2.28-.798-1.94-.57-4.62.513-7.129 1.426-3.25 4.106-5.53 6.558-5.53.456 0 .913.113 1.369.284 1.197.513 2.053 1.711 2.338 3.422.342 1.824.057 3.934-.856 5.93-1.425 3.25-4.162 5.589-6.557 5.589z" style="fill:#fff;fill-rule:nonzero;stroke-width:.57024" transform="matrix(.77793 0 0 .77793 22.774 21.319)"/><g style="fill:#56595b;fill-opacity:1"><path d="M191 122.3c.6 0 1.2.1 1.8.4 1.6.7 2.8 2.5 3.2 4.9.5 2.9.1 6.3-1.4 9.5-2.2 5.1-6.5 8.8-10.1 8.8-.6 0-1.2-.1-1.7-.3-1.5-.6-2.3-2-2.7-3.1-1.2-3-.9-7.4.8-11.4 2.3-5.1 6.5-8.8 10.1-8.8m0-3c-4.8 0-10.1 4.4-12.9 10.7-2.1 4.7-2.4 9.8-.9 13.7.9 2.3 2.4 3.9 4.3 4.8.9.4 1.9.6 3 .6 4.8 0 10.1-4.4 12.8-10.7 1.7-3.8 2.2-7.8 1.6-11.3-.6-3.5-2.4-6-5-7.1-.8-.5-1.8-.7-2.9-.7z" style="fill:#56595b;fill-opacity:1;fill-rule:nonzero" transform="matrix(.4436 0 0 .4436 10.091 5.01)"/></g><g style="clip-rule:evenodd;fill-rule:evenodd;stroke-linejoin:round;stroke-miterlimit:2"><path d="M73.7 200c0 69.8 56.6 126.3 126.3 126.3 69.7 0 126.3-56.5 126.3-126.3S269.8 73.7 200 73.7 73.7 130.2 73.7 200Z" style="fill:#54688c" transform="matrix(.70071 0 0 .70071 -44.143 -270.154)"/><path d="m90.6 184.9 9.6-13.4c0 .1-.6 19.3-.6 19.3l2.7-14.5c8 16.2 27.6 38.6 45.5 50.6 1.9 1.3 3.5 2.7 4.6 4.1 2.3.9 4.6 1.4 6.9 1.8 1.2.2 2.5.3 3.7.4 1.2.1 2.5.1 3.7.1 1.2 0 2.4-.1 3.6-.2 1.2-.1 2.4-.3 3.6-.5 1.2-.2 2.4-.4 3.5-.8 1.2-.3 2.3-.6 3.5-1 1.1-.3 2.3-.8 3.4-1.2 1.1-.5 2.2-.9 3.3-1.5 1.1-.6 2.2-1.1 3.2-1.7 1.1-.5 2.1-1.2 3.2-1.8 1.1-.6 2.1-1.3 3.2-1.9 1.1-.6 2.1-1.3 3.1-1.9 1-.7 2.1-1.3 3.1-2s2.1-1.3 3.2-2l1-.6.5.3 7.2 4.8-7.3-1.9c-.7.8-1.4 1.6-2.2 2.4-.9.9-1.9 1.8-2.8 2.7-1 .8-2 1.7-3.1 2.4-1.1.8-2.1 1.5-3.3 2.2-2.2 1.4-4.6 2.6-7.1 3.6-1.2.5-2.5 1-3.7 1.4-1.3.4-2.5.8-3.8 1.1-1.3.3-2.6.6-3.9.8-1.3.2-2.6.3-3.9.5-2.6.1-5.3.1-7.9-.3-1.3-.2-2.6-.4-3.9-.7-1.3-.3-2.5-.7-3.7-1.1-2.1-.8-4.2-1.8-6.1-3 0 0-6.9 1-4.1 6.2 2.8 5.2 7 4.7 5 10.8-1.4 3.3-3.4 6.5-5.6 9.5-4.6 6.2-11.8 11.7-11.1 15 32.7 40.3 106.4 34.7 134.4-1.3-.4-5.2-8.6-7.7-14.3-20.4 1.6.5 4 1.2 4 1.1 0-.1-6.8-11.1-7.1-12.2l4.4.3s-5.8-7.2-6-7.9l5.9-.8s-7.4-8.5-7.5-9.2l7.5 1.2-8.2-9.9h3.9l-4.6-6.7c-.8-.3-1.6-.5-2.4-.7l-3-.9c-11.2-3.5-21.8-6.7-32-13.1-14.3-8.9-27.1-19.8-36.7-28.3l-19.3-9.4c-18.5-1.4-35.9-.9-46.5 1.2l6.8-11.6-10.4 12.5c-.7-.2-.9-.6-.9-.6l.7-15.4-3.3 13.9c-1-.5-2.2-.7-3.4-.7-4.6 0-8.3 3.7-8.3 8.3 0 4.2 3.1 7.7 7.2 8.2z" style="fill:#c39a54" transform="translate(-16.303 -246.977) scale(.57024)"/><path d="M102.2 154.5c-1-.4-2.2-.7-3.3-.7-4.6 0-8.3 3.7-8.3 8.3 0 4 2.9 7.4 6.7 8.2h.2c2.5-.8 7.5-7.5 6.7-11.7-.3-1.5-1-2.9-2-4.1z" style="fill:#fdf5d9" transform="translate(-16.303 -246.977) scale(.57024)"/><path d="M175.1 143.8c-1.5-4.1-1.1-9.4 1-14.4 3-6.9 8.7-11.5 14.1-11.5 1.1 0 2.1.2 3.1.6 3.1-2.8 6.7-5.1 10.7-6.7 22.1-8.8 54.4 6.9 62.7 28.6 4 10.5 2.8 22-.6 32.5-2.8 8.6-13 21-9.2 30.4-1.5-.4-33.1-10.2-41.9-15.8-14.1-8.8-26.8-19.6-36.3-28l-.3-.3-32.1-15.2c-.4-.2-.8-.4-1.1-.6 4.6 0 22.1 2.1 29.9.4" style="fill:#f9de81" transform="translate(-16.303 -246.977) scale(.57024)"/><path d="M184.6 147.4c-.9 0-1.7-.2-2.3-.5-1.6-.7-2.8-2-3.6-4-1.4-3.4-1-8.1.9-12.5 2.5-5.7 7.2-9.7 11.5-9.7.8 0 1.6.2 2.4.5 2.1.9 3.6 3 4.1 6 .6 3.2.1 6.9-1.5 10.4-2.5 5.7-7.3 9.8-11.5 9.8z" style="fill:#fff;fill-rule:nonzero" transform="translate(-16.303 -246.977) scale(.57024)"/><path d="M191 122.3c.6 0 1.2.1 1.8.4 1.6.7 2.8 2.5 3.2 4.9.5 2.9.1 6.3-1.4 9.5-2.2 5.1-6.5 8.8-10.1 8.8-.6 0-1.2-.1-1.7-.3-1.5-.6-2.3-2-2.7-3.1-1.2-3-.9-7.4.8-11.4 2.3-5.1 6.5-8.8 10.1-8.8m0-3c-4.8 0-10.1 4.4-12.9 10.7-2.1 4.7-2.4 9.8-.9 13.7.9 2.3 2.4 3.9 4.3 4.8.9.4 1.9.6 3 .6 4.8 0 10.1-4.4 12.8-10.7 1.7-3.8 2.2-7.8 1.6-11.3-.6-3.5-2.4-6-5-7.1-.8-.5-1.8-.7-2.9-.7z" style="fill:#4a4a4a;fill-rule:nonzero" transform="translate(-16.303 -246.977) scale(.57024)"/></g></svg>