<svg xmlns="http://www.w3.org/2000/svg" width="192" height="192" fill="none"><rect width="152" height="104" x="20" y="68" fill="#56595b" rx="10"/><path fill="#b1b5bd" fill-rule="evenodd" d="M36 85a5 5 0 1 0 0 10 5 5 0 0 0 0-10zm120 42a5 5 0 1 0 .001 10.001A5 5 0 0 0 156 127zm-5-16a5 5 0 1 1 10.001.001A5 5 0 0 1 151 111zm5-26a5 5 0 1 0 0 10 5 5 0 0 0 0-10zm-25 47a5 5 0 1 1 10.001.001A5 5 0 0 1 131 132zm5-26a5 5 0 1 0 .001 10.001A5 5 0 0 0 136 106zm-5-16a5 5 0 1 1 10 0 5 5 0 0 1-10 0zm-15 37a5 5 0 1 0 .001 10.001A5 5 0 0 0 116 127zm-5-16a5 5 0 1 1 10.001.001A5 5 0 0 1 111 111zm5-26a5 5 0 1 0 0 10 5 5 0 0 0 0-10zm-25 47a5 5 0 1 1 10 0 5 5 0 0 1-10 0zm5-26a5 5 0 1 0 0 10 5 5 0 0 0 0-10zm-5-16a5 5 0 1 1 10 0 5 5 0 0 1-10 0zm-15 37a5 5 0 1 0 0 10 5 5 0 0 0 0-10zm-5-16a5 5 0 1 1 10 0 5 5 0 0 1-10 0zm5-26a5 5 0 1 0 0 10 5 5 0 0 0 0-10zm-25 47a5 5 0 1 1 10 0 5 5 0 0 1-10 0zm5-26a5 5 0 1 0 0 10 5 5 0 0 0 0-10zm-5-16a5 5 0 1 1 10 0 5 5 0 0 1-10 0zm-15 37a5 5 0 1 0 0 10 5 5 0 0 0 0-10zm-5-16a5 5 0 1 1 10 0 5 5 0 0 1-10 0zm29 40a5 5 0 0 0 0 10h75a5 5 0 0 0 0-10z" clip-rule="evenodd"/><path d="M133.008 32C138.53 32 143 36.477 143 42v35.111H96V32Z" style="fill:#97db99;fill-opacity:1;stroke-width:1"/><path d="M96 77.111H49v29.887C49 112.52 53.473 117 58.992 117H77.8c2.687 0 5.262 1.081 7.142 3L96 131.283V77.111z" style="fill:#00f"/><path d="M58.992 32C53.47 32 49 36.477 49 42v35.111h47V32Z" style="fill:#99bdfe;stroke-width:1;fill-opacity:1"/><path d="M96 77.111v54.172l11.238-11.236a9.999 9.999 0 0 1 7.01-2.93l18.76-.117c5.522 0 9.992-4.478 9.992-10.002V77.111H96z" style="fill:#f9de81;fill-opacity:1"/><path d="M49 77.111v29.887C49 112.52 53.473 117 58.992 117H77.8c2.687 0 5.262 1.081 7.142 3L96 131.283V77.111H49z" style="fill:#ff837d;fill-opacity:1"/><text xml:space="preserve" x="60.741" y="67.493" style="font-style:normal;font-variant:normal;font-weight:700;font-stretch:normal;font-size:35.5658px;line-height:1.25;font-family:&quot;Now alt&quot;;-inkscape-font-specification:&quot;Now alt Bold&quot;;letter-spacing:0;word-spacing:0;fill:#fff;fill-opacity:1;stroke-width:.889144"><tspan x="60.741" y="67.493" style="stroke-width:.889144">a</tspan></text><text xml:space="preserve" x="107.741" y="67.493" style="font-style:normal;font-variant:normal;font-weight:700;font-stretch:normal;font-size:35.5658px;line-height:1.25;font-family:&quot;Now alt&quot;;-inkscape-font-specification:&quot;Now alt Bold&quot;;letter-spacing:0;word-spacing:0;fill:#fff;fill-opacity:1;stroke-width:.889144"><tspan x="107.741" y="67.493" style="stroke-width:.889144">ä</tspan></text><text xml:space="preserve" x="60.741" y="110.36" style="font-style:normal;font-variant:normal;font-weight:700;font-stretch:normal;font-size:35.5658px;line-height:1.25;font-family:&quot;Now alt&quot;;-inkscape-font-specification:&quot;Now alt Bold&quot;;letter-spacing:0;word-spacing:0;fill:#fff;fill-opacity:1;stroke-width:.889144"><tspan x="60.741" y="110.36" style="stroke-width:.889144">å</tspan></text><text xml:space="preserve" x="101.762" y="110.36" style="font-style:normal;font-variant:normal;font-weight:700;font-stretch:normal;font-size:35.5658px;line-height:1.25;font-family:&quot;Now alt&quot;;-inkscape-font-specification:&quot;Now alt Bold&quot;;letter-spacing:0;word-spacing:0;fill:#fff;fill-opacity:1;stroke-width:.889144"><tspan x="101.762" y="110.36" style="stroke-width:.889144">æ</tspan></text></svg>