<svg width="192" height="192" version="1.1" viewBox="0 0 192 192" xmlns="http://www.w3.org/2000/svg">
 <circle cx="96" cy="96" r="88" opacity=".63" style="fill:#728dbe;opacity:1"/>
 <path d="m116.87 47.869c-0.24107-0.003444-0.49218 0.023024-0.75391 0.078125-1.0469 0.1653-1.4869 0.99185-1.9277 1.8184-1.5428 2.9203-2.9767 5.8961-4.5195 8.8164-0.4959 0.99181-0.66012 0.93607-1.707 0.60547-1.8734-0.55101-3.7472-1.1573-5.6758-1.543-1.9836-0.3857-4.0218-0.54996-6.0605-0.66016-1.4877-0.055101-2.9752 0.16478-4.4629 0.33008-1.2673 0.1653-2.5358 0.3315-3.748 0.66211-1.4326 0.38571-2.9189 0.93573-4.3516 1.4316-0.55101 0.2204-0.88311 0.0545-1.1035-0.44141-0.60611-1.1571-1.1556-2.314-1.7617-3.416-1.2122-2.204-2.3698-4.4073-3.582-6.6113-0.60611-1.0469-2.1488-1.2667-3.1406-0.60547-1.4877 0.99181-1.7644 2.4227-0.88281 4.1309l4.6289 8.9277c0.2755 0.49591 0.22052 0.82564-0.27539 1.1562-1.3775 0.99181-2.8108 1.9288-4.0781 3.0859-3.4713 3.1407-6.3911 6.7232-8.1543 11.076-0.82651 2.0938-1.7088 4.2979-2.2598 6.502-0.44081 1.7632-0.44016 3.5801-0.60547 5.3984-0.1102 1.2122-0.055552 1.2129 1.1016 1.2129h32.455c10.855 0 21.655 8.26e-4 32.51-0.10938h0.49609c0.49591 0 0.71526-0.2213 0.66016-0.66211-0.2204-2.0387-0.27599-4.1336-0.7168-6.1172-0.4408-1.8734-1.2118-3.6348-1.873-5.4531-1.2673-3.4713-3.3056-6.4481-5.7852-9.2031-1.9836-2.204-4.188-4.1872-6.7227-5.7852-0.66121-0.3857-0.71579-0.82749-0.33008-1.4336 0.6061-0.93671 1.1018-1.9281 1.5977-2.9199 1.102-2.0938 2.2597-4.2417 3.3066-6.3906 0.44081-0.99181 0.27449-2.0383-0.38672-2.9199-0.53723-0.66121-1.1674-0.95061-1.8906-0.96094zm-36.348 23c1.7081-0.055101 3.1953 1.5981 3.1953 3.3613s-1.3778 3.1953-3.0859 3.1953c-1.7081 0.1653-3.0864-1.5978-3.0312-3.1406 0.055101-1.8183 1.1587-3.3609 2.9219-3.416zm31.021 0c1.7632 0.1102 2.8648 1.5977 2.9199 3.416 0.0551 1.5979-1.3231 3.361-3.0312 3.1406-1.7081 0-3.0859-1.4321-3.0859-3.1953 0-1.8183 1.5442-3.4164 3.1973-3.3613zm19.014 4.5137c-0.30736 0.038743-0.38991 0.2248-0.22461 0.7207 0.55101 1.5979 1.1006 3.1404 1.4863 4.7383 0.44081 1.8734 0.88197 3.7477 0.99218 5.6211 0.2204 3.3611 0.16519 6.7228 0.27539 10.084-0.0551 0-0.05427 4.12e-4 -0.10937-0.054687v6.7773c0 0.71631 0.32985 0.93566 0.88086 0.66016 1.2673-0.66121 2.5894-1.1575 3.6914-2.0391 3.6918-2.9203 5.5656-6.8316 5.6758-11.57 0.1102-5.0142-1.7621-9.0917-5.6191-12.232-1.9285-1.5428-4.1884-2.4788-6.668-2.6992-0.15153-0.013775-0.27841-0.018774-0.38086-0.00586zm-68.664 0.041016c-0.11278-0.016358-0.25842-0.008019-0.4375 0.019531-1.9285 0.2755-3.8021 0.77145-5.4551 1.8184-4.7938 3.0305-7.0515 7.4925-7.2168 13.443 0.1102 0.77141 0.16395 1.9292 0.43945 3.0312 1.102 4.904 3.9672 8.3757 8.5957 10.359 1.2122 0.49591 1.2676 0.44114 1.2676-0.82617 0.1102-5.2897-1.13e-4 -10.636 0.27539-15.926 0.1102-2.4244 0.77126-4.7932 1.3223-7.1074 0.3306-1.3775 0.99279-2.6444 1.4336-3.9668 0.1653-0.53723 0.11374-0.79663-0.22461-0.8457zm34.111 17.982c-10.8 0-21.599-8.27e-4 -32.564 0.10938-1.1571 0-1.1582 6.75e-4 -1.1582 1.2129v21.93c0 3.6366 0.11133 7.3282 0.11133 10.965 0 0.99181-0.11133 1.9285-0.11133 2.8652 0 0.33061 0.16632 0.71709 0.38672 0.9375 1.1571 0.88161 2.2585 1.8184 3.4707 2.5898 3.2509 2.0938 6.7227 3.9658 10.359 5.3984 4.6836 1.8734 9.4765 2.9768 14.436 3.4727 5.0142 0.49591 9.9745 0.21991 14.934-0.7168 4.1877-0.77141 8.2094-2.0395 12.066-3.8027 4.0224-1.8734 7.824-4.1879 11.24-6.998 0.33059-0.27551 0.55078-0.77054 0.55078-1.1562-0.0551-1.7632-0.21875-3.5258-0.21875-5.2891v-19.176c0-0.2755-0.16519-0.60536-0.27539-0.88086-0.27551 0.1653-0.66242 0.21905-0.88282 0.43945-0.71631 0.71631-1.2661 1.543-1.9824 2.3144-1.8183 1.9836-3.7483 3.8569-6.0625 5.2344-0.77141 0.4959-1.5422 1.0483-2.4238 1.3789-1.4326 0.55101-2.8662 0.93656-4.2988 1.3223-1.2122 0.27551-2.4245 0.66057-3.6367 0.60547-1.7081 0-3.4153-0.32955-5.0684-0.66016-1.4326-0.2755-2.8104-0.71656-4.1328-1.2676-1.102-0.4408-2.0386-0.6612-3.1406 0-0.44081 0.22041-1.0471 0.32966-1.543 0.38476-2.204 0.1102-4.7932-3.251-4.2422-5.4551 0.1653-0.55101 0.49639-1.0471 0.7168-1.543 0.82651-1.8183 2.7539-2.699 4.5723-2.2031 1.9836 0.551 3.3625 2.3132 3.4727 4.2969 0 0.33061 0.16395 0.77219 0.43945 0.9375 1.5979 0.99181 3.416 1.3768 5.2344 1.6524 1.3775 0.2204 2.8115 0.16601 4.2441 0.16601 2.1489 0 4.1867-0.38554 6.1152-1.3223 1.2122-0.6061 2.314-1.2681 3.416-1.9844 1.2122-0.82651 2.3706-1.7621 3.4727-2.7539 0.82651-0.77141 1.4321-1.6536 2.1484-2.5352 0.49591-0.60611 0.99084-1.2685 1.4316-1.9297 0.60612-0.93671 1.2127-1.8734 1.7637-2.8652 0.33061-0.66121 0.60659-1.3774 0.71679-2.0938 0.1653-0.77141 0.05469-1.5973 0.05469-2.4238 0-1.1571 4.5e-4 -1.1562-1.1016-1.1562h-32.51z" style="fill:#fff;stroke-width:.55101"/>
</svg>
