<svg xmlns="http://www.w3.org/2000/svg" viewBox="0 0 192 192"><path fill="#fdf5d9" d="M162.5 19.5H96v153h66.5a10 10 0 0 0 10-10v-133a10 10 0 0 0-10-10Z"/><path fill="#d3b69a" d="M29.5 19.5a10 10 0 0 0-10 10v133a10 10 0 0 0 10 10H96v-153Z"/><path fill="#b1b5bd" d="M149.35 74.27h-30.2a6.34 6.34 0 0 0-6.33 6.33v30.19a6.34 6.34 0 0 0 6.33 6.34h30.2a6.34 6.34 0 0 0 6.33-6.34V80.6a6.34 6.34 0 0 0-6.33-6.33ZM124 109.68a3.73 3.73 0 1 1 3.73-3.73 3.73 3.73 0 0 1-3.73 3.73Zm0-20.5a3.73 3.73 0 1 1 3.73-3.73 3.73 3.73 0 0 1-3.73 3.73Zm10.25 10.87a3.73 3.73 0 1 1 3.75-3.73 3.73 3.73 0 0 1-3.75 3.73Zm10.25 9.63a3.73 3.73 0 1 1 3.73-3.73 3.73 3.73 0 0 1-3.73 3.73Zm0-20.5a3.73 3.73 0 1 1 3.73-3.73 3.73 3.73 0 0 1-3.73 3.73Z"/><path fill="#fff" d="m67 93.22 10.3-10.29a.88.88 0 0 0 .26-.46l1.62-7a.77.77 0 0 0 0-.15 1 1 0 0 0-.1-.5.84.84 0 0 0-.18-.24.88.88 0 0 0-.65-.28.65.65 0 0 0-.24 0l-7 1.62a1 1 0 0 0-.46.26l-10.3 10.27a1 1 0 0 0 0 1.42l5.35 5.35a1 1 0 0 0 1.4 0ZM53.34 106.89l1.93-1.89a1 1 0 0 0 0-1.42l-5.35-5.38a1 1 0 0 0-1.42 0l-1.92 1.93-2.71-2.71a1 1 0 0 0-1.35 0l-2 2a.94.94 0 0 0 0 1.35l4.06 4.06-3.22 3.22-1.12 1.12-2.15 2.15-1.44 1.44-.09.1a.61.61 0 0 0-.07.1.61.61 0 0 0-.05.12.56.56 0 0 0 0 .12 1 1 0 0 0 .26.89l2.7 2.7a1 1 0 0 0 1.36 0l4.07-4.07 1.43-1.43 2.22-2.22.21-.21 3.98 4.14a1 1 0 0 0 1.33 0l2-2a1 1 0 0 0 0-1.35Z"/><path fill="#fff" d="M36.42 74.79a.84.84 0 0 1 .18-.24.88.88 0 0 1 .65-.28.65.65 0 0 1 .24 0l7 1.62a.88.88 0 0 1 .46.26l24 24 2.71-2.71a1 1 0 0 1 1.35 0l2 2a.94.94 0 0 1 0 1.35L71 104.86l3.22 3.22 1.12 1.12 2.15 2.15 1.44 1.44.09.1a.61.61 0 0 1 .07.1.61.61 0 0 1 .05.12.56.56 0 0 1 0 .12 1 1 0 0 1-.26.89l-2.7 2.7a1 1 0 0 1-1.36 0l-4.07-4.07-1.43-1.43-2.22-2.22-.21-.21-4.04 4.11a1 1 0 0 1-1.35 0l-2-2a1 1 0 0 1 0-1.35l2.71-2.71-24-24a1 1 0 0 1-.26-.46l-1.62-7a.77.77 0 0 1 0-.15 1 1 0 0 1 .09-.54Z"/></svg>