<svg xmlns="http://www.w3.org/2000/svg" xml:space="preserve" width="192" height="192"><g fill="#B1B5BC"><path d="M157.555 97.115a74.488 74.488 0 0 0-7.592-6.45l-.13-.492-.004-.014a61.554 61.554 0 0 0-1.338-4.361c-.019-.057-.038-.115-.06-.172l-.003-.01-.005-.012a75.884 75.884 0 0 0-.361-1.009l-.169-.449c-.104-.273-.206-.545-.313-.817l-.004-.009-.004-.009a61.155 61.155 0 0 0-.284-.706c-.082-.201-.162-.402-.245-.602-.188-.45-.382-.898-.581-1.345-3.218-7.229-7.409-12.83-12.111-17.174L154 38.222v13.529c0 .782.531 1.416 1.313 1.416.068 0 .083-.011.149-.02.066.009.094.02.162.02.782 0 1.375-.634 1.375-1.416V33.558c0-.605-.371-1.143-.943-1.339a1.372 1.372 0 0 0-.543-.069c-.438-.032-.83.163-1.124.542l-10.912 14.237-11.364 14.929C116.796 49.195 98.353 49 98.353 49h-4.798s-17.275.171-32.272 11.675L36.245 28.76c-.374-.474-1.005-.719-1.576-.522-.003.002-.006-.027-.01-.026-.066.011-.288.01-.349.031-.568.198-1.31.669-1.31 1.272v18.193c0 .782.791 1.415 1.572 1.415.069 0 .214-.01.281-.02.066.01.398.02.467.02.782 0 1.68-.633 1.68-1.415v-13.6l22.107 28.108c-5.256 4.506-10.113 10.49-13.652 18.442a63.67 63.67 0 0 0-.835 1.948c-.097.238-.196.477-.29.716-.108.274-.212.549-.317.825l-.169.452-.068.183c-.083.228-.165.456-.245.685l-.055.151a10.148 10.148 0 0 1-.087.257 62.418 62.418 0 0 0-1.295 4.229l-.048.184c-.035.131-.071.262-.104.394a74.57 74.57 0 0 0-7.564 6.429c-20.345 19.767-25.954 47.112-12.504 60.957 5.038 5.186 12.173 7.927 20.634 7.927 3.451 0 7.02-.464 10.622-1.349a54.891 54.891 0 0 0 3.129 5.253c6.761 9.98 15.569 15.476 24.801 15.476.233 0 .468-.003.702-.01 5.099-.155 9.978-1.978 14.382-5.283 4.731 3.462 9.914 5.293 15.238 5.293.234 0 .468-.003.702-.01 9.372-.285 18.001-6.188 24.299-16.621.775-1.284 1.503-2.703 2.185-4.082a44.194 44.194 0 0 0 10.859 1.34h.003c8.458 0 15.593-2.742 20.631-7.928 13.449-13.845 7.839-41.192-12.506-60.959z"/><path d="m52.347 41.417-.218.18L62.348 55.88l.248-.184c8.438-6.253 20.558-9.84 33.249-9.84 12.792 0 24.974 3.634 33.423 9.97l.249.186 10.412-14.556-.219-.18c-10.92-8.945-26.811-14.075-43.596-14.075-16.888 0-32.841 5.182-43.767 14.216z"/><path d="M52.034 40.908c11.042-9.104 27.108-14.324 44.081-14.324 16.873 0 32.877 5.17 43.91 14.184l.251.205 10.486-14.66-.209-.181C138.085 15.402 117.684 8.997 95.98 8.997c-21.705 0-42.107 6.407-54.575 17.137l-.21.181 10.589 14.8.25-.207z"/></g><path fill="#FFF" d="M81.059 183.756c-9.232 0-18.04-5.495-24.801-15.476-6.744-9.953-10.696-23.264-11.128-37.479-.904-29.778 14.056-54.482 33.349-55.068 9.501-.289 18.572 5.232 25.503 15.465 6.744 9.953 10.694 23.264 11.127 37.479.438 14.402-2.775 28.057-9.049 38.448-6.299 10.434-14.929 16.336-24.3 16.62-.234.008-.468.011-.701.011zM79.183 76.33c-.228 0-.457.003-.686.01-18.959.576-33.656 25-32.762 54.443.429 14.102 4.344 27.297 11.024 37.157 6.813 10.056 15.704 15.482 24.982 15.198 9.159-.277 17.61-6.076 23.798-16.327 6.214-10.293 9.397-23.829 8.963-38.116-.429-14.102-4.343-27.297-11.022-37.157C96.836 81.73 88.207 76.33 79.183 76.33z"/><ellipse cx="80.12" cy="129.739" fill="#B1B5BC" rx="34.703" ry="53.728" transform="rotate(-1.742 80.023 129.585)"/><path fill="#FFF" d="M42.507 164.376c-8.461 0-15.596-2.741-20.634-7.927-13.45-13.845-7.841-41.19 12.504-60.957 12.032-11.689 27.23-18.668 40.657-18.668 8.461 0 15.596 2.741 20.634 7.927 6.531 6.722 8.817 16.777 6.436 28.31-2.372 11.491-9.099 23.085-18.94 32.646-12.032 11.689-27.231 18.669-40.657 18.669zM75.034 77.43c-13.272 0-28.313 6.915-40.234 18.498-20.105 19.534-25.709 46.495-12.491 60.1 4.921 5.064 11.906 7.742 20.199 7.742 13.272 0 28.313-6.915 40.233-18.498 9.755-9.478 16.42-20.96 18.769-32.334 2.34-11.33.11-21.191-6.276-27.765-4.922-5.066-11.907-7.743-20.2-7.743z"/><ellipse cx="58.77" cy="120.599" fill="#B1B5BC" rx="34.703" ry="51.142" transform="rotate(45.827 58.773 120.605)"/><path fill="#FFF" d="M111.381 183.756c-9.232 0-18.04-5.495-24.801-15.476-6.744-9.953-10.696-23.264-11.128-37.479-.904-29.778 14.057-54.482 33.35-55.068 9.495-.286 18.571 5.233 25.503 15.465 6.743 9.953 10.695 23.264 11.127 37.479.438 14.402-2.776 28.057-9.05 38.448-6.298 10.434-14.927 16.336-24.299 16.62-.234.008-.468.011-.702.011zM109.505 76.33c-.227 0-.456.003-.685.01-18.959.576-33.656 25-32.762 54.443.428 14.102 4.343 27.297 11.023 37.157 6.645 9.808 15.274 15.209 24.299 15.209.228 0 .455-.003.685-.011 9.158-.277 17.609-6.076 23.798-16.327 6.214-10.293 9.396-23.829 8.962-38.116-.428-14.102-4.342-27.297-11.022-37.157-6.645-9.808-15.274-15.208-24.298-15.208z"/><ellipse cx="110.442" cy="129.739" fill="#B1B5BC" rx="34.703" ry="53.728" transform="rotate(-1.742 110.31 129.588)"/><path fill="#FFF" d="M149.429 165h-.003c-13.428 0-28.626-7.292-40.657-18.981-9.842-9.561-16.568-21.311-18.94-32.802-2.381-11.533-.096-21.666 6.436-28.388 5.039-5.186 12.174-7.966 20.635-7.966 13.427 0 28.625 6.959 40.656 18.649 20.346 19.768 25.955 47.414 12.505 61.258-5.04 5.186-12.174 8.23-20.632 8.23zm-32.531-87.57c-8.293 0-15.278 2.678-20.199 7.743-6.388 6.574-8.617 16.435-6.277 27.765 2.349 11.374 9.015 22.972 18.769 32.449C121.11 156.969 136.151 164 149.426 164h.003c8.291 0 15.274-2.793 20.195-7.858 13.217-13.604 7.613-40.623-12.491-60.157-11.922-11.583-26.962-18.555-40.235-18.555z"/><ellipse cx="133.162" cy="120.599" fill="#B1B5BC" rx="34.702" ry="51.142" transform="scale(-1) rotate(-45.827 -285.326 315.05)"/><path fill="#FFF" d="m129.518 54.396-.249-.186c-8.449-6.336-20.631-9.97-33.423-9.97-12.691 0-24.811 3.586-33.249 9.84l-.248.184-10.22-14.284.218-.18c10.926-9.035 26.879-14.217 43.768-14.217 16.785 0 32.676 5.13 43.596 14.076l.219.18-10.412 14.557zM95.845 43.633c12.795 0 24.998 3.607 33.539 9.906l9.723-13.59C128.3 31.202 112.65 26.19 96.115 26.19c-16.638 0-32.35 5.063-43.164 13.898l9.532 13.322c8.53-6.217 20.667-9.777 33.362-9.777z"/><path fill="#FFF" d="m51.784 39.498-10.589-14.8.21-.181C53.873 13.786 74.275 7.379 95.98 7.379c21.704 0 42.105 6.406 54.574 17.136l.209.181-10.486 14.66-.251-.205c-11.033-9.014-27.037-14.184-43.91-14.184-16.973 0-33.04 5.221-44.081 14.324l-.251.207zm-9.773-14.702L51.9 38.618C63.039 29.554 79.132 24.36 96.115 24.36c16.882 0 32.913 5.142 44.043 14.117l9.789-13.683C137.567 14.266 117.42 7.986 95.98 7.986c-21.441 0-41.589 6.28-53.969 16.81z"/><path fill="#F9DE90" d="m52.54 40.034 9.875 13.802c8.195-6.073 20.134-9.899 33.43-9.899 13.391 0 25.406 3.882 33.606 10.031l10.067-14.073c-10.453-8.563-26.031-14.007-43.403-14.007-17.469-.001-33.121 5.502-43.575 14.146zM95.98 7.683c-22.507 0-42.391 6.749-54.377 17.064l10.239 14.311c10.675-8.801 26.56-14.394 44.273-14.394 17.617 0 33.429 5.532 44.103 14.252l10.138-14.171C138.369 14.431 118.485 7.683 95.98 7.683z"/><path fill="none" stroke="#FFF" stroke-miterlimit="10" stroke-width="2" d="M156.057 30.602a1.402 1.402 0 0 0-1.569.473L132.111 60.55C116.794 47.887 98.353 48 98.353 48h-4.798s-17.275-.137-32.272 11.367l-25.037-32.07c-.374-.474-1.364-.796-1.935-.6-.569.199-1.311.598-1.311 1.2v18.194c0 .781.719 1.415 1.5 1.415.782 0 1.5-.634 1.5-1.415V31.982l22.809 28.617c-5.255 4.506-9.963 10.489-13.503 18.442-.199.447-.323.896-.511 1.345-.084.2-.13.402-.211.603-.097.238-.177.477-.271.716-.108.274-.203.55-.308.825-.057.15-.109.301-.165.451-.125.34-.245.679-.364 1.02l-.064.186c-4.028 11.616-4.466 23.816-.62 35.389l-.018-.007a50.172 50.172 0 0 0 1.602 4.176l.122.277c.167.379.333.759.51 1.137a53.924 53.924 0 0 0 1.364 2.74c.133.251.271.504.409.758l.144.26c1.685 3.062 3.699 6.206 5.874 9.238l.085.035c5.443 7.562 11.841 14.697 16.414 19.538 13.762 14.573 21.83 15.742 26.682 15.742l-.054-.019c4.851 0 12.92-1.198 26.683-15.771 4.604-4.874 11.058-12.074 16.524-19.693l.063-.026c2.111-2.953 4.068-5.996 5.716-8.971.109-.195.215-.388.32-.583.093-.172.188-.344.278-.516a53.083 53.083 0 0 0 1.38-2.767 50.642 50.642 0 0 0 2.278-5.688l-.028.01c3.817-11.538 3.369-23.683-.651-35.265a103.973 103.973 0 0 0-.429-1.203l-.169-.449c-.104-.275-.208-.551-.316-.826a75.907 75.907 0 0 0-.288-.714c-.082-.201-.162-.402-.245-.602-.188-.45-.382-.898-.581-1.345a51.948 51.948 0 0 0-12.314-17.174L154 36.082v14.052c0 .781.721 1.415 1.5 1.415.781 0 1.5-.634 1.5-1.415V31.941c0-.606-.371-1.144-.943-1.339z"/><path fill="#F9DE90" d="M146.463 79.092C132.515 47.758 98.353 47 98.353 47h-4.798s-34.164.758-48.112 32.092c-6.893 15.484-7.367 32.355.305 47.626 5.676 11.3 16.676 23.745 23.549 31.022 13.763 14.571 21.832 15.735 26.684 15.735l-.054-.022c4.851 0 12.92-1.199 26.683-15.772 6.874-7.277 17.875-19.712 23.55-31.011 7.671-15.271 7.196-32.093.303-47.578z"/><path fill="#56595B" d="M61.346 62.6c-.419 0-.607-.185-.887-.54L37 31.982v14.109c0 .781-.718 1.415-1.5 1.415-.781 0-1.5-.634-1.5-1.415V27.897c0-.603.241-1.14.811-1.337.57-.197 1.132-.012 1.505.462l26.176 33.287c.484.614.36 1.504-.253 1.987-.26.204-.586.304-.893.304zM131.423 64.621a1.416 1.416 0 0 1-1.119-2.281l24.191-31.265a1.39 1.39 0 0 1 1.562-.473c.572.195.943.733.943 1.339v18.193c0 .781-.719 1.415-1.5 1.415s-1.5-.634-1.5-1.415V36.082l-21.558 27.99c-.278.36-.597.549-1.019.549z"/><path fill="#56595B" d="M146.463 79.092C132.515 47.758 98.353 47 98.353 47h-4.798s-34.164.758-48.112 32.092c-2.964 6.659-4.738 13.586-5.19 20.539L95.913 118h.034l55.707-18.399c-.454-6.938-2.227-13.852-5.191-20.509zM96.056 138h-.026l-53.257-18.365c.802 2.424 1.791 4.735 2.974 7.092 1.88 3.743 4.345 7.941 7.05 11.711L95.993 157h.025l43.18-18.771c2.67-3.734 5.104-7.75 6.962-11.453 1.201-2.391 2.203-4.745 3.012-7.205L96.056 138z"/><circle cx="76.844" cy="73.18" r="16.172" fill="#FFF"/><circle cx="83.312" cy="68.328" r="6.199" fill="#56595B"/><circle cx="84.929" cy="67.115" r="3.167" fill="#FFF"/><circle cx="115.252" cy="73.18" r="16.172" fill="#FFF"/><circle cx="121.72" cy="68.328" r="6.199" fill="#56595B"/><circle cx="123.337" cy="67.115" r="3.167" fill="#FFF"/></svg>