<svg width="192" height="192" version="1.1" viewBox="0 0 192 192" xmlns="http://www.w3.org/2000/svg">
 <path d="m8 108s0-92 88-92 88 92 88 92 0 68-88 68-88-68-88-68z" style="fill:#9abeff"/>
 <ellipse cx="96" cy="150" rx="56" ry="18" style="fill:#728dbe;paint-order:stroke fill markers"/>
 <path d="m60 40.1c-16.468 0-30 12.477-30 28s13.532 28 30 28 30-12.477 30-28-13.532-28-30-28zm72 0c-16.468 0-30 12.477-30 28s13.532 28 30 28 30-12.477 30-28-13.532-28-30-28zm-72 4c14.46 0 26 10.805 26 24s-11.54 24-26 24-26-10.805-26-24 11.54-24 26-24zm72 0c14.46 0 26 10.805 26 24s-11.54 24-26 24-26-10.805-26-24 11.54-24 26-24z" style="color-rendering:auto;color:#000000;dominant-baseline:auto;fill:#728dbe;font-feature-settings:normal;font-variant-alternates:normal;font-variant-caps:normal;font-variant-ligatures:normal;font-variant-numeric:normal;font-variant-position:normal;image-rendering:auto;isolation:auto;mix-blend-mode:normal;paint-order:stroke fill markers;shape-padding:0;shape-rendering:auto;solid-color:#000000;text-decoration-color:#000000;text-decoration-line:none;text-decoration-style:solid;text-indent:0;text-orientation:mixed;text-transform:none;white-space:normal"/>
 <ellipse cx="60" cy="70" rx="28" ry="26" style="fill:#fff;paint-order:stroke fill markers"/>
 <circle cx="66" cy="70" r="14" style="fill:#56595b;paint-order:stroke fill markers"/>
 <circle cx="64" cy="64" r="4" style="fill:#fff;paint-order:stroke fill markers"/>
 <path d="m56.866 72.813c1.4509-3.0123 4.219 2.9647 9.6525 2.7279 6.4929-0.28302 7.0111-8.2563 9.2328-5.4558 2.7672 3.4881-1.4406 9.4668-9.2328 9.6525-6.4847 0.15453-11.371-3.3571-9.6525-6.9246z" style="fill:#f8c18c"/>
 <ellipse transform="scale(-1,1)" cx="-132" cy="70" rx="28" ry="26" style="fill:#fff;paint-order:stroke fill markers"/>
 <circle cx="126" cy="70" r="14" style="fill:#56595b;paint-order:stroke fill markers"/>
 <circle cx="124" cy="64" r="4" style="fill:#fff;paint-order:stroke fill markers"/>
 <path d="m116.87 72.813c1.4509-3.0123 4.219 2.9647 9.6525 2.7279 6.4929-0.28302 7.0111-8.2563 9.2328-5.4558 2.7672 3.4881-1.4406 9.4668-9.2328 9.6525-6.4847 0.15452-11.371-3.3571-9.6525-6.9246z" style="fill:#f8c18c"/>
 <path d="m80 96s4-4 16-4 16 4 16 4 0 28-16 28-16-28-16-28z" style="fill:#ba6561"/>
 <path d="m96 105.79c-7.3977 0.09575-11.746 2.4289-14 4.207 2 7 6 14 14 14 8.0269 0 12.024-7.0468 14.018-14.07-2.2497-1.8423-6.6031-4.2327-14.018-4.1367z" style="fill:#ff837d"/>
</svg>
