<svg xmlns="http://www.w3.org/2000/svg" id="svg2" width="192" height="192" version="1.1"><g id="layer1" transform="translate(0 -860.362)"><rect id="rect980" width="153" height="153" x="19.5" y="879.862" rx="10" style="fill:#97db99;fill-opacity:1;fill-rule:evenodd;stroke:none;stroke-opacity:1"/></g><g id="layer2"><path id="path21" d="M134.025 136.073c1.106-.592 2.416-2.943 2.416-4.335 0-3.691-4-5.984-7.587-4.35-1.4.638-2.673 2.687-2.673 4.302 0 1.372 1.261 3.742 2.32 4.358 1.117.65 4.329.665 5.524.025zm-9.443-20.8c4.636-1.601 5.437-1.737 8.845-1.496 2.06.145 4.426.408 5.257.582 2.143.452 4.402-1.468 3.931-3.342-.423-1.685-2.313-2.626-6.616-3.294-4.474-.694-9.244.013-13.912 2.062-3.109 1.364-3.567 1.447-4.638.838-1.924-1.093-2.378-2.189-1.529-3.686 1.062-1.872 2.714-2.943 6.846-4.437 3.43-1.24 4.178-1.323 11.965-1.335 7.416-.01 8.484-.117 9.96-.99 5.747-3.392 3.99-13.838-2.81-16.71-2.362-.998-10.78-1.355-15.879-.673-8.82 1.178-16.682 4.508-24.324 10.302-4.912 3.724-6.202 4.292-8.18 3.6-.952-.332-1.313-.834-1.425-1.98-.127-1.3.245-1.917 2.443-4.05 2.805-2.72 8.937-6.989 12.854-8.945 4.035-2.016 10.876-4.243 15.471-5.036 6.659-1.149 9.673-2.773 11.445-6.165 1.899-3.634-.647-9.319-5.216-11.65-6.493-3.313-27.166 2.959-39.925 12.112-8.274 5.936-13.842 11.752-19.533 20.401-1.768 2.687-3.654 5.38-4.19 5.985-1.349 1.52-3.482 1.453-4.529-.144-1.185-1.808-.346-4.09 3.717-10.122a86.622 86.622 0 0 1 6.259-8.2c4.434-5.138 9.404-9.644 14.835-13.454a78.744 78.744 0 0 1 13.846-7.762c4.714-2.05 5.62-2.784 5.62-4.555 0-3.176-2.707-3.343-9.054-.56-9.778 4.289-19.017 10.911-27.342 19.6-7.478 7.803-14.909 19.332-14.903 23.12.006 3.737 2.316 7.704 5.42 9.31 3.963 2.049 9.22.005 12.132-4.717 4.857-7.876 7.541-11.39 12.482-16.34 10.11-10.128 22.576-16.713 36.208-19.128 4.927-.873 7.048-.505 8.068 1.401 1.295 2.421-.654 3.868-6.689 4.963-5.926 1.075-11.207 2.823-16.696 5.526-9.206 4.534-18.495 12.47-19.66 16.797-1.55 5.753 3.412 10.792 9.96 10.116 3.254-.336 5.456-1.444 9.83-4.95 3.973-3.185 10.357-6.612 14.919-8.01 7.986-2.446 19.194-2.477 21.768-.059 1.48 1.39 1.557 3.55.162 4.528-.808.566-2.193.658-6.741.449-3.5-.162-7.035-.036-9.095.323-4.728.823-10.457 3.145-12.883 5.222-4.788 4.099-5.655 10.161-1.978 13.838 2.936 2.937 6.52 3.126 13.504.714zM47.988 90.168c.493-.264 1.79-2.11 2.883-4.101 1.857-3.383 5.005-7.573 9.895-13.168 2.971-3.4 2.77-6.164-.448-6.186-1.83-.013-3.679 1.218-6.644 4.42-5.46 5.898-10.051 13.312-10.062 16.248-.01 2.884 1.91 4.106 4.376 2.787z" style="fill:#fefefe;fill-opacity:1;stroke-width:.488597"/></g><style id="style853" type="text/css">.st0{fill:#fff}</style></svg>