<svg xmlns="http://www.w3.org/2000/svg" viewBox="0 0 192 192"><title>myChevrolet</title><rect x="8" y="32.5" width="176" height="127" rx="10" fill="#56595b"/><polygon points="145.83 86.38 111.95 86.38 112 79.89 112 79.79 111.9 79.79 79.73 79.79 79.63 79.79 79.63 79.89 79.63 86.56 55.07 86.56 55 86.56 54.98 86.62 46.07 105.16 46 105.31 46.17 105.31 79.72 105.31 79.72 112.11 79.72 112.21 79.82 112.21 95.77 112.21 111.8 112.21 111.9 112.21 111.9 112.11 111.9 105.21 136.28 105.21 136.34 105.21 136.37 105.16 145.92 86.53 146 86.38 145.83 86.38" fill="#979797"/><polygon points="132.98 90.27 132.91 90.41 127.51 101.3 127.48 101.36 127.42 101.36 107.86 101.29 107.86 108.08 107.86 108.18 107.77 108.18 95.82 108.18 84 108.18 83.9 108.18 83.9 108.08 83.9 101.36 58.99 101.05 58.84 101.05 58.91 100.91 64.25 90.38 64.28 90.33 64.33 90.33 83.9 90.33 83.9 83.92 83.9 83.82 84 83.82 107.77 83.82 107.86 83.82 107.86 83.92 107.86 90.33 132.82 90.27 132.98 90.27" fill="#f9de81"/></svg>