<?xml version="1.0" encoding="UTF-8" standalone="no"?>
<svg
   xmlns:dc="http://purl.org/dc/elements/1.1/"
   xmlns:cc="http://creativecommons.org/ns#"
   xmlns:rdf="http://www.w3.org/1999/02/22-rdf-syntax-ns#"
   xmlns:svg="http://www.w3.org/2000/svg"
   xmlns="http://www.w3.org/2000/svg"
   xmlns:sodipodi="http://sodipodi.sourceforge.net/DTD/sodipodi-0.dtd"
   xmlns:inkscape="http://www.inkscape.org/namespaces/inkscape"
   width="100%"
   height="100%"
   viewBox="0 0 192 192"
   version="1.1"
   xml:space="preserve"
   style="fill-rule:evenodd;clip-rule:evenodd;stroke-linejoin:round;stroke-miterlimit:2;"
   id="svg15"
   sodipodi:docname="myki.svg"
   inkscape:version="1.0.1 (3bc2e813f5, 2020-09-07)"
   inkscape:export-filename="myki.png"
   inkscape:export-xdpi="96"
   inkscape:export-ydpi="96"><metadata
   id="metadata21"><rdf:RDF><cc:Work
       rdf:about=""><dc:format>image/svg+xml</dc:format><dc:type
         rdf:resource="http://purl.org/dc/dcmitype/StillImage" /></cc:Work></rdf:RDF></metadata><defs
   id="defs19" /><sodipodi:namedview
   pagecolor="#ffffff"
   bordercolor="#666666"
   borderopacity="1"
   objecttolerance="10"
   gridtolerance="10"
   guidetolerance="10"
   inkscape:pageopacity="0"
   inkscape:pageshadow="2"
   inkscape:window-width="1884"
   inkscape:window-height="1052"
   id="namedview17"
   showgrid="false"
   inkscape:zoom="3.4635417"
   inkscape:cx="96"
   inkscape:cy="96"
   inkscape:window-x="36"
   inkscape:window-y="0"
   inkscape:window-maximized="1"
   inkscape:current-layer="svg15" />
    <g
   transform="matrix(0.99346405,0,0,0.99346405,8.5751636,8.5751636)"
   id="g4"
   style="fill:#56595b;fill-opacity:1">
            <path
   d="m 164.5,21.5 c 0,-5.519 -4.481,-10 -10,-10 h -133 c -5.519,0 -10,4.481 -10,10 v 133 c 0,5.519 4.481,10 10,10 h 133 c 5.519,0 10,-4.481 10,-10 z"
   style="fill:#56595b;fill-opacity:1"
   id="path2" />
        </g><g
   transform="matrix(0.65517464,0,0,0.65517464,33.103235,29.673239)"
   id="g12">
            <g
   transform="translate(0,-2.02847)"
   id="g8">
                <path
   d="m 96.649,104.37 c -0.36,0.355 -0.938,0.355 -1.298,0 0,0 -11.801,-11.639 -11.801,-11.639 -0.267,-0.264 -0.349,-0.662 -0.206,-1.009 0.142,-0.347 0.48,-0.574 0.855,-0.574 5.963,0 17.639,0 23.602,0 0.375,0 0.713,0.227 0.855,0.574 0.143,0.347 0.061,0.745 -0.206,1.009 z"
   style="fill:#73ada4"
   id="path6" />
            </g>
            <path
   d="m 112.085,89.977 c -0.289,0.285 -0.451,0.674 -0.451,1.08 0,2.558 0,12.103 0,14.65 0,0.402 -0.16,0.788 -0.444,1.072 -2.095,2.095 -11.012,11.011 -14.118,14.118 -0.284,0.284 -0.67,0.444 -1.072,0.444 -0.402,0 -0.788,-0.16 -1.072,-0.444 -3.106,-3.107 -12.023,-12.023 -14.118,-14.118 -0.284,-0.284 -0.444,-0.67 -0.444,-1.072 0,-2.547 0,-12.092 0,-14.65 0,-0.406 -0.162,-0.795 -0.451,-1.08 C 76.767,86.872 58.02,68.384 51.081,61.54 50.646,61.111 49.995,60.985 49.431,61.221 48.867,61.457 48.5,62.009 48.5,62.62 c 0,8.153 0,27.516 0,31.247 0,0.402 0.16,0.788 0.444,1.072 4.353,4.353 39.379,39.378 45.984,45.984 0.284,0.284 0.67,0.444 1.072,0.444 0.402,0 0.788,-0.16 1.072,-0.444 6.605,-6.606 41.631,-41.631 45.984,-45.984 0.284,-0.284 0.444,-0.67 0.444,-1.072 0,-3.731 0,-23.094 0,-31.247 0,-0.611 -0.367,-1.163 -0.931,-1.399 -0.564,-0.236 -1.215,-0.11 -1.65,0.319 -6.939,6.844 -25.686,25.332 -28.834,28.437 z"
   style="fill:#73ada4"
   id="path10" />
        </g>
<style
   type="text/css"
   id="style853">
	.st0{fill:#FFFFFF;}
</style></svg>
