<?xml version="1.0" encoding="UTF-8" standalone="no"?>
<svg
   xmlns:dc="http://purl.org/dc/elements/1.1/"
   xmlns:cc="http://creativecommons.org/ns#"
   xmlns:rdf="http://www.w3.org/1999/02/22-rdf-syntax-ns#"
   xmlns:svg="http://www.w3.org/2000/svg"
   xmlns="http://www.w3.org/2000/svg"
   xmlns:sodipodi="http://sodipodi.sourceforge.net/DTD/sodipodi-0.dtd"
   xmlns:inkscape="http://www.inkscape.org/namespaces/inkscape"
   width="192"
   height="192"
   viewBox="0 0 192 192"
   fill="none"
   version="1.1"
   id="svg13"
   sodipodi:docname="mymo.svg"
   inkscape:version="1.0.1 (3bc2e813f5, 2020-09-07)"
   inkscape:export-filename="/home/jphilippe/github/delta/android/contributed-vectors/mymo.png"
   inkscape:export-xdpi="96"
   inkscape:export-ydpi="96">
  <metadata
     id="metadata17">
    <rdf:RDF>
      <cc:Work
         rdf:about="">
        <dc:format>image/svg+xml</dc:format>
        <dc:type
           rdf:resource="http://purl.org/dc/dcmitype/StillImage" />
      </cc:Work>
    </rdf:RDF>
  </metadata>
  <sodipodi:namedview
     pagecolor="#ffffff"
     bordercolor="#666666"
     borderopacity="1"
     objecttolerance="10"
     gridtolerance="10"
     guidetolerance="10"
     inkscape:pageopacity="0"
     inkscape:pageshadow="2"
     inkscape:window-width="1884"
     inkscape:window-height="1052"
     id="namedview15"
     showgrid="false"
     inkscape:zoom="3.3697917"
     inkscape:cx="61.192664"
     inkscape:cy="108.06837"
     inkscape:window-x="36"
     inkscape:window-y="0"
     inkscape:window-maximized="1"
     inkscape:current-layer="svg13" />
  <path
     d="m 172.5,29.1 v 133.8 c 0,5.3 -4.3,9.6 -9.6,9.6 H 29.1 c -5.3,0 -9.6,-4.3 -9.6,-9.6 V 29.1 c 0,-5.3 4.3,-9.6 9.6,-9.6 H 163 c 5.2,0 9.5,4.3 9.5,9.6 z"
     fill="#ffb0ac"
     id="path2" />
  <path
     id="path4"
     sodipodi:type="inkscape:offset"
     inkscape:radius="0.81778145"
     inkscape:original="M 101.02148 83.652344 C 100.39272 83.638369 99.757472 83.7074 99.107422 83.875 C 98.146622 84.0984 97.299013 84.489016 96.507812 85.103516 C 95.094712 86.165016 94.358731 87.618081 94.019531 89.238281 C 93.906531 89.685181 93.90625 90.076537 93.90625 90.523438 L 93.90625 95.328125 C 93.90625 95.719225 93.851422 96.110853 93.794922 96.501953 C 93.568822 97.451753 93.059019 98.289697 92.324219 98.904297 C 91.080819 99.909897 89.612037 100.13376 88.085938 99.910156 C 87.125038 99.798656 86.221028 99.3513 85.486328 98.625 C 84.751528 97.8428 84.298828 96.892791 84.298828 95.775391 C 84.242328 93.931791 84.298688 92.0312 84.242188 90.1875 C 84.185688 89.0701 83.90305 88.009506 83.28125 87.003906 C 82.60305 85.886506 81.641938 84.992294 80.398438 84.433594 C 79.720237 84.154194 79.041441 83.930159 78.306641 83.818359 C 77.515341 83.706859 76.724894 83.7633 75.933594 83.875 C 75.142294 84.0428 74.406575 84.321891 73.671875 84.712891 C 72.823975 85.215691 72.090591 85.829969 71.525391 86.667969 C 71.468891 86.723869 71.412109 86.779637 71.412109 86.835938 C 71.355609 86.835938 71.355469 86.83705 71.355469 86.78125 C 71.298969 86.72515 71.242147 86.669581 71.185547 86.613281 C 70.676847 85.831081 69.998331 85.216431 69.207031 84.769531 C 67.567931 83.875631 65.816513 83.540541 64.007812 83.931641 C 62.651313 84.155041 61.464806 84.712309 60.503906 85.662109 C 59.260506 86.947009 58.581891 88.456341 58.525391 90.244141 C 58.468891 91.864241 58.525391 93.540697 58.525391 95.216797 C 58.525391 95.663697 58.468891 96.109641 58.525391 96.556641 C 58.525391 97.059441 58.921087 97.451172 59.429688 97.451172 C 60.051488 97.507072 60.560547 97.061025 60.560547 96.390625 L 60.560547 90.802734 C 60.560547 90.076434 60.615837 89.406828 60.898438 88.736328 C 61.350538 87.619028 62.086256 86.780044 63.160156 86.277344 C 64.347056 85.718544 65.590625 85.606947 66.890625 85.998047 C 68.190525 86.333247 69.151738 87.059222 69.773438 88.232422 C 70.225638 89.070422 70.337891 89.965475 70.337891 90.859375 L 70.337891 96.390625 C 70.337891 96.893425 70.619925 97.226931 71.015625 97.394531 C 71.467725 97.562331 71.920525 97.451847 72.203125 97.060547 C 72.372725 96.837147 72.429688 96.556644 72.429688 96.277344 L 72.429688 90.746094 C 72.429688 89.852194 72.598581 88.959094 73.050781 88.121094 C 73.333381 87.618294 73.6728 87.171138 74.125 86.835938 C 74.9163 86.221338 75.820491 85.941778 76.837891 85.830078 C 77.742191 85.718578 78.646341 85.887656 79.494141 86.222656 C 80.341941 86.613756 81.020456 87.227566 81.472656 88.009766 C 81.924756 88.680166 82.150391 89.462681 82.150391 90.300781 C 82.093891 91.920881 82.093891 93.596597 82.150391 95.216797 C 82.150391 95.719597 82.150572 96.166281 82.263672 96.613281 C 82.376672 97.395381 82.659087 98.122569 83.054688 98.792969 C 83.732987 99.910369 84.693859 100.80364 85.880859 101.30664 C 87.067759 101.86564 88.311428 102.08725 89.611328 102.03125 C 90.798328 101.92025 91.928053 101.58406 93.001953 100.91406 C 93.284553 100.69106 93.56715 100.46714 93.90625 100.24414 C 93.96275 100.35514 93.962891 100.41144 93.962891 100.52344 C 93.962891 100.97044 93.96275 101.47356 93.90625 101.97656 C 93.90625 102.81456 93.623934 103.59627 93.115234 104.32227 C 92.493534 105.32827 91.532603 105.88797 90.345703 106.16797 C 89.384803 106.39097 88.423791 106.39033 87.462891 106.11133 C 87.180291 105.99933 86.897834 105.88608 86.615234 105.83008 C 86.106634 105.71908 85.655928 105.99895 85.486328 106.50195 C 85.316828 107.05995 85.542122 107.50647 86.107422 107.73047 C 87.576922 108.40047 89.102806 108.51273 90.628906 108.17773 C 92.154906 107.89773 93.455116 107.17105 94.416016 105.99805 C 95.376816 104.82505 95.941447 103.48492 95.998047 101.91992 L 95.998047 91.304688 C 95.998047 90.745987 95.998328 90.187606 96.111328 89.628906 C 96.280928 88.176406 97.073047 87.003544 98.373047 86.277344 C 99.164347 85.830344 100.0683 85.662109 101.0293 85.662109 C 102.2163 85.718109 103.28836 86.053838 104.19336 86.835938 C 105.04136 87.562237 105.5507 88.568147 105.7207 89.685547 C 105.7767 90.300147 105.77539 90.914797 105.77539 91.529297 C 105.83239 93.149497 105.83203 94.769584 105.83203 96.333984 C 105.83203 97.004284 106.45517 97.507544 107.07617 97.339844 C 107.58517 97.172044 107.86719 96.835944 107.86719 96.277344 L 107.86719 90.634766 C 107.86719 89.573266 108.0932 88.624369 108.6582 87.730469 C 109.1672 86.948269 109.84536 86.389888 110.69336 86.054688 C 111.71036 85.663588 112.78538 85.607791 113.85938 85.775391 C 114.65037 85.943191 115.38581 86.276397 116.00781 86.779297 C 117.13781 87.784897 117.64648 89.071578 117.64648 90.580078 C 117.64648 92.535478 117.64684 94.489913 117.58984 96.445312 C 117.58984 97.842112 117.70286 99.183009 118.38086 100.41211 C 119.11586 101.80911 120.13256 102.81469 121.60156 103.42969 C 123.29756 104.15569 124.99373 104.26603 126.80273 103.70703 C 128.55473 103.20403 129.85317 102.08875 130.70117 100.46875 C 131.15317 99.63055 131.3805 98.735697 131.4375 97.841797 C 131.5495 97.003697 131.49386 96.166125 131.38086 95.328125 C 131.21086 94.490125 130.92856 93.763409 130.47656 93.037109 C 129.85456 91.975609 128.94936 91.138778 127.81836 90.580078 C 127.02736 90.244878 126.23667 90.020644 125.38867 89.964844 C 124.48467 89.853344 123.52414 89.908912 122.61914 90.132812 C 121.65914 90.412212 120.75389 90.802256 119.96289 91.472656 C 119.90589 91.528756 119.79269 91.530537 119.67969 91.585938 C 119.73669 89.965838 119.62339 88.456506 118.77539 87.003906 C 117.98439 85.607206 116.79784 84.546509 115.21484 84.099609 C 111.82384 83.038109 108.99892 83.875409 106.79492 86.724609 C 106.73792 86.613109 106.68136 86.501313 106.56836 86.445312 C 106.45536 86.221913 106.34188 86.053578 106.17188 85.830078 C 105.26788 84.880278 104.13753 84.266841 102.89453 83.931641 C 102.27253 83.764041 101.65025 83.666319 101.02148 83.652344 z M 124.48438 91.919922 C 127.25338 91.919922 129.51562 94.210506 129.51562 97.003906 C 129.51562 99.853206 127.25338 102.14453 124.48438 102.14453 C 121.77138 102.14453 119.51172 99.853206 119.51172 97.003906 C 119.51172 94.210506 121.77137 91.919922 124.48438 91.919922 z "
     d="m 101.03906,82.833984 c -0.69757,-0.0155 -1.408159,0.0637 -2.126951,0.248047 -1.055358,0.246818 -2.021144,0.691384 -2.898437,1.371094 -1.582112,1.190494 -2.419735,2.851543 -2.789063,4.599609 -0.136279,0.549166 -0.136718,1.028175 -0.136718,1.470704 v 4.804687 c 0,0.297215 -0.04375,0.634578 -0.0957,0.998047 -0.188305,0.776588 -0.59946,1.449826 -1.189454,1.945312 -1.042922,0.839863 -2.226711,1.030949 -3.597656,0.830078 a 0.81786323,0.81786323 0 0 0 -0.02539,-0.0039 c -0.766764,-0.08897 -1.495629,-0.445611 -2.109376,-1.048828 -0.614299,-0.659472 -0.953124,-1.383762 -0.953124,-2.273437 a 0.81786323,0.81786323 0 0 0 0,-0.02539 c -0.05546,-1.809756 8.96e-4,-3.71035 -0.05664,-5.587891 a 0.81786323,0.81786323 0 0 0 -0.002,-0.01563 c -0.06202,-1.22648 -0.381988,-2.438073 -1.078125,-3.566406 l -0.002,-0.0039 C 83.222994,85.332908 82.130366,84.314714 80.734375,83.6875 a 0.81786323,0.81786323 0 0 0 -0.02539,-0.0098 c -0.713537,-0.293957 -1.457925,-0.542996 -2.279296,-0.667968 a 0.81786323,0.81786323 0 0 0 -0.0098,-0.002 c -0.903565,-0.127318 -1.773381,-0.06027 -2.601563,0.05664 a 0.81786323,0.81786323 0 0 0 -0.05469,0.0098 c -0.870683,0.184633 -1.684458,0.494465 -2.476563,0.916015 a 0.81786323,0.81786323 0 0 0 -0.0332,0.01953 c -0.714303,0.423577 -1.301384,1.051254 -1.865234,1.707031 -0.522466,-0.641147 -1.074127,-1.2619 -1.779297,-1.660156 a 0.81786323,0.81786323 0 0 0 -0.01172,-0.0059 c -1.773977,-0.967457 -3.741958,-1.347072 -5.746094,-0.917969 -1.486453,0.249332 -2.841362,0.879236 -3.921874,1.947266 a 0.81786323,0.81786323 0 0 0 -0.01367,0.01367 c -1.362552,1.408028 -2.14446,3.145091 -2.207032,5.125 -0.05762,1.657462 -0.002,3.341619 -0.002,4.998047 0,0.35547 -0.04626,0.821659 0.0078,1.357422 0.01134,0.907863 0.773372,1.655394 1.675781,1.679687 1.033587,0.07029 1.988281,-0.791734 1.988281,-1.863281 v -5.587891 c 0,-0.684797 0.05169,-1.221933 0.273438,-1.748046 a 0.81786323,0.81786323 0 0 0 0.0039,-0.01172 c 0.389782,-0.96329 0.964195,-1.610008 1.851562,-2.025391 1.025696,-0.482904 2.025358,-0.573615 3.146485,-0.236328 a 0.81786323,0.81786323 0 0 0 0.03125,0.0078 c 1.117835,0.288252 1.841474,0.837792 2.365234,1.826172 a 0.81786323,0.81786323 0 0 0 0.0039,0.0059 c 0.363491,0.673608 0.464843,1.412844 0.464843,2.238281 v 5.53125 c 0,0.80861 0.551782,1.492688 1.177735,1.757813 a 0.81786323,0.81786323 0 0 0 0.0332,0.01367 c 0.725862,0.269409 1.642753,0.04458 2.126953,-0.617187 0.30945,-0.413341 0.390625,-0.88015 0.390625,-1.267578 v -5.53125 c 0,-0.788775 0.144482,-1.532898 0.519531,-2.230469 0.245991,-0.436221 0.515523,-0.780135 0.84375,-1.023437 a 0.81786323,0.81786323 0 0 0 0.01563,-0.0098 c 0.647832,-0.503169 1.378271,-0.738562 2.300781,-0.839844 a 0.81786323,0.81786323 0 0 0 0.0098,0 c 0.730619,-0.09009 1.488122,0.04632 2.230469,0.335938 0.693218,0.324395 1.233593,0.811662 1.597656,1.441406 a 0.81786323,0.81786323 0 0 0 0.0293,0.04687 c 0.357688,0.5304 0.537109,1.142661 0.537109,1.833984 l 0.002,-0.0293 c -0.05712,1.637799 -0.05698,3.330728 0,4.96875 6.8e-5,0.0019 -6.7e-5,0.0039 0,0.0059 -1.77e-4,0.477863 0.0047,0.975721 0.132813,1.515625 0.133528,0.888724 0.447822,1.710115 0.882812,2.447265 a 0.81786323,0.81786323 0 0 0 0.0059,0.0078 c 0.753013,1.240483 1.838975,2.257983 3.193359,2.835933 1.3062,0.612 2.688222,0.85565 4.097656,0.79493 a 0.81786323,0.81786323 0 0 0 0.04102,-0.002 c 1.172732,-0.10966 2.3184,-0.46914 3.410156,-1.08203 -0.0037,0.0398 5.2e-4,0.0817 -0.0039,0.1211 a 0.81786323,0.81786323 0 0 0 -0.0059,0.0918 c 0,0.65433 -0.210591,1.26044 -0.642579,1.87696 a 0.81786323,0.81786323 0 0 0 -0.02539,0.0391 c -0.49459,0.80032 -1.214963,1.23171 -2.259766,1.47851 -0.843601,0.19578 -1.647744,0.19346 -2.46875,-0.0449 l 0.07227,0.0254 c -0.276249,-0.10948 -0.595626,-0.24306 -0.97461,-0.32031 h -0.002 c -0.886082,-0.19223 -1.795978,0.37798 -2.076171,1.20898 a 0.81786323,0.81786323 0 0 0 -0.0078,0.0234 c -0.131669,0.43346 -0.123564,0.92723 0.08789,1.34571 0.209721,0.41504 0.590835,0.70548 1.007812,0.87304 1.6192,0.73009 3.331843,0.85592 4.992188,0.49414 1.685773,-0.31259 3.175872,-1.14018 4.257812,-2.46094 1.054757,-1.2877 1.702535,-2.82194 1.765625,-4.5664 a 0.81786323,0.81786323 0 0 0 0.002,-0.0293 V 91.304688 c 0,-0.558427 0.0036,-1.058486 0.0957,-1.513672 a 0.81786323,0.81786323 0 0 0 0.01172,-0.06641 c 0.141463,-1.21153 0.751464,-2.120072 1.847656,-2.732421 a 0.81786323,0.81786323 0 0 0 0.0039,-0.002 c 0.632325,-0.357196 1.382219,-0.506274 2.242189,-0.507812 1.04294,0.0536 1.8968,0.329844 2.64062,0.972656 a 0.81786323,0.81786323 0 0 0 0.004,0.002 c 0.68338,0.585305 1.09727,1.393904 1.24414,2.335938 0.0486,0.554728 0.0508,1.132208 0.0508,1.736328 a 0.81786323,0.81786323 0 0 0 0.002,0.0293 c 0.0563,1.600936 0.0547,3.210865 0.0547,4.77539 0,1.17713 1.12391,2.105878 2.27539,1.794922 a 0.81786323,0.81786323 0 0 0 0.043,-0.01172 c 0.36604,-0.120671 0.72358,-0.331776 0.97852,-0.664063 0.25494,-0.332287 0.375,-0.758857 0.375,-1.175781 v -5.642578 c 0,-0.943838 0.18591,-1.707908 0.66211,-2.462891 0.42326,-0.648517 0.94915,-1.078273 1.64257,-1.353516 0.85333,-0.327319 1.76576,-0.378374 2.72071,-0.232421 0.66122,0.143766 1.26223,0.41738 1.76758,0.822265 0.94913,0.85283 1.3496,1.85559 1.3496,3.171875 0,1.9555 -1e-4,3.902362 -0.0566,5.841797 a 0.81786323,0.81786323 0 0 0 0,0.02344 c 0,1.438974 0.11254,2.941429 0.89063,4.355468 0.80406,1.52407 1.98717,2.69833 3.62109,3.38281 1.84485,0.78869 3.7798,0.91255 5.75,0.30664 1.95411,-0.56231 3.45569,-1.85601 4.39063,-3.64062 0.50634,-0.941769 0.75831,-1.944691 0.82422,-2.931641 0.12043,-0.932733 0.0599,-1.834935 -0.0566,-2.699219 a 0.81786323,0.81786323 0 0 0 -0.01,-0.05273 c -0.18634,-0.918535 -0.51109,-1.751974 -1.00976,-2.554688 -0.70203,-1.192089 -1.73051,-2.140417 -2.99219,-2.763672 a 0.81786323,0.81786323 0 0 0 -0.043,-0.02148 c -0.84382,-0.357581 -1.72464,-0.6063 -2.67383,-0.671875 -0.99904,-0.12008 -2.04402,-0.06111 -3.04101,0.185547 a 0.81786323,0.81786323 0 0 0 -0.0313,0.0078 c -0.66998,0.194993 -1.3269,0.493879 -1.96484,0.861328 -0.0654,-1.213442 -0.25365,-2.428362 -0.93945,-3.607422 -0.87518,-1.545341 -2.24069,-2.774148 -4.04297,-3.285156 -3.26837,-1.017791 -6.24053,-0.22362 -8.53125,2.160156 -0.0328,-0.04515 -0.055,-0.09487 -0.0898,-0.140624 a 0.81786323,0.81786323 0 0 0 -0.0586,-0.07031 c -1.01747,-1.069021 -2.29142,-1.754992 -3.65625,-2.123047 -0.67719,-0.182473 -1.3669,-0.293003 -2.06836,-0.308594 z m 23.44532,9.904297 c 2.318,0 4.21289,1.913746 4.21289,4.265625 0,2.416441 -1.89503,4.322264 -4.21289,4.322264 -2.25255,0 -4.1543,-1.905329 -4.1543,-4.322264 0,-2.352384 1.90158,-4.265625 4.1543,-4.265625 z"
     style="fill:#ffffff"
     transform="matrix(1.1389376,0,0,1.1389376,-12.197174,-13.340499)" />
  <defs
     id="defs11">
    <clipPath
       id="clip0">
      <rect
         width="192"
         height="192"
         fill="white"
         id="rect8" />
    </clipPath>
  </defs>
  <g
     clip-path="url(#clip0)"
     id="g846"
     transform="translate(-218.10644)">
    <path
       d="m 172.5,29.1 v 133.8 c 0,5.3 -4.3,9.6 -9.6,9.6 H 29.1 c -5.3,0 -9.6,-4.3 -9.6,-9.6 V 29.1 c 0,-5.3 4.3,-9.6 9.6,-9.6 H 163 c 5.2,0 9.5,4.3 9.5,9.6 z"
       fill="#ffb0ac"
       id="path842" />
    <path
       d="m 131.38,95.3282 c -0.17,-0.838 -0.452,-1.5643 -0.904,-2.2906 -0.622,-1.0615 -1.526,-1.8995 -2.657,-2.4582 -0.791,-0.3352 -1.582,-0.5587 -2.43,-0.6145 -0.904,-0.1115 -1.865,-0.0561 -2.77,0.1678 -0.96,0.2794 -1.865,0.6704 -2.656,1.3408 -0.057,0.0561 -0.17,0.0561 -0.283,0.1115 0.057,-1.6201 -0.056,-3.1286 -0.904,-4.5812 -0.791,-1.3967 -1.978,-2.4582 -3.561,-2.9051 -3.391,-1.0615 -6.217,-0.2234 -8.421,2.6258 -0.057,-0.1115 -0.113,-0.2234 -0.226,-0.2794 -0.113,-0.2234 -0.226,-0.391 -0.396,-0.6145 -0.904,-0.9498 -2.035,-1.5643 -3.278,-1.8995 -1.244,-0.3352 -2.487,-0.3911 -3.7871,-0.0559 -0.9608,0.2234 -1.8087,0.6146 -2.5999,1.2291 -1.4131,1.0615 -2.1478,2.5141 -2.487,4.1343 -0.113,0.4469 -0.113,0.838 -0.113,1.2849 0,1.6202 0,3.1845 0,4.8047 0,0.3911 -0.0565,0.7821 -0.113,1.1732 -0.2261,0.9498 -0.7348,1.7878 -1.4696,2.4024 -1.2434,1.0056 -2.7129,1.2292 -4.239,1.0056 -0.9609,-0.1115 -1.8652,-0.5587 -2.5999,-1.285 -0.7348,-0.7822 -1.187,-1.7319 -1.187,-2.8493 -0.0565,-1.8436 0,-3.7431 -0.0565,-5.5868 -0.0565,-1.1174 -0.3391,-2.1789 -0.9609,-3.1845 -0.6782,-1.1174 -1.639,-2.0112 -2.8825,-2.5699 -0.6782,-0.2794 -1.3565,-0.5028 -2.0913,-0.6146 -0.7913,-0.1115 -1.5825,-0.0558 -2.3738,0.0559 -0.7913,0.1678 -1.5261,0.447 -2.2608,0.838 -0.8479,0.5028 -1.5826,1.1174 -2.1478,1.9554 -0.0565,0.0559 -0.1131,0.1115 -0.1131,0.1678 -0.0565,0 -0.0565,0 -0.0565,-0.0558 -0.0565,-0.0561 -0.113,-0.1115 -0.1696,-0.1678 -0.5087,-0.7822 -1.1869,-1.3968 -1.9782,-1.8437 -1.6391,-0.8939 -3.3912,-1.2291 -5.1999,-0.838 -1.3565,0.2234 -2.5434,0.7821 -3.5043,1.7319 -1.2434,1.2849 -1.9217,2.7934 -1.9782,4.5812 -0.0565,1.6201 0,3.2962 0,4.9723 0,0.4469 -0.0565,0.8938 0,1.3408 0,0.5028 0.3957,0.8939 0.9043,0.8939 0.6218,0.0559 1.1305,-0.3911 1.1305,-1.0615 0,-1.8436 0,-3.7432 0,-5.5868 0,-0.7263 0.0565,-1.3967 0.3391,-2.0672 0.4521,-1.1173 1.1869,-1.9554 2.2608,-2.4581 1.1869,-0.5588 2.4304,-0.6705 3.7304,-0.2794 1.2999,0.3352 2.2608,1.0615 2.8825,2.2347 0.4522,0.838 0.5652,1.7319 0.5652,2.6258 0,1.8437 0,3.6874 0,5.531 0,0.5028 0.2826,0.838 0.6783,1.0056 0.4521,0.1678 0.9043,0.0561 1.1869,-0.3352 0.1696,-0.2234 0.2261,-0.5028 0.2261,-0.7821 0,-5.531 0,-5.531 0,-5.531 0,-0.8939 0.1695,-1.7878 0.6217,-2.6258 0.2826,-0.5028 0.6217,-0.9498 1.0739,-1.285 0.7913,-0.6146 1.6956,-0.8939 2.713,-1.0056 0.9043,-0.1115 1.8086,0.0561 2.6564,0.3911 0.8478,0.3911 1.5261,1.0056 1.9783,1.7878 0.4521,0.6704 0.6782,1.4525 0.6782,2.2906 -0.0565,1.6201 -0.0565,3.2962 0,4.9164 0,0.5028 0,0.9497 0.1131,1.3967 0.113,0.7821 0.3956,1.5084 0.7912,2.1788 0.6783,1.1174 1.6391,2.011 2.8261,2.514 1.1869,0.559 2.4304,0.782 3.7303,0.726 1.187,-0.111 2.3174,-0.447 3.3913,-1.117 0.2826,-0.223 0.5652,-0.447 0.9043,-0.67 0.0565,0.111 0.0565,0.167 0.0565,0.279 0,0.447 0,0.95 -0.0565,1.453 0,0.838 -0.2826,1.62 -0.7913,2.346 -0.6217,1.006 -1.5826,1.564 -2.7695,1.844 -0.9609,0.223 -1.9217,0.223 -2.8826,-0.056 -0.2826,-0.112 -0.5652,-0.224 -0.8478,-0.28 -0.5086,-0.111 -0.9608,0.168 -1.1304,0.671 -0.1695,0.558 0.0565,1.005 0.6218,1.229 1.4695,0.67 2.9955,0.782 4.5216,0.447 1.526,-0.28 2.826,-1.006 3.7869,-2.179 0.9608,-1.173 1.526,-2.514 1.5826,-4.079 0,-3.5192 0,-7.039 0,-10.6145 0,-0.5587 0,-1.1174 0.113,-1.6761 0.1696,-1.4525 0.9608,-2.6258 2.2608,-3.352 0.7913,-0.447 1.6959,-0.6146 2.6569,-0.6146 1.187,0.056 2.26,0.3911 3.165,1.1732 0.848,0.7263 1.356,1.7319 1.526,2.8493 0.056,0.6146 0.056,1.2291 0.056,1.8436 0.057,1.6202 0.057,3.2404 0.057,4.8048 0,0.6703 0.622,1.1732 1.243,1.0055 0.509,-0.1678 0.792,-0.5028 0.792,-1.0614 0,-1.8437 0,-3.7432 0,-5.6428 0,-1.0615 0.226,-2.0112 0.791,-2.9051 0.509,-0.7822 1.187,-1.3408 2.035,-1.676 1.017,-0.3911 2.091,-0.447 3.165,-0.2794 0.791,0.1678 1.526,0.5028 2.148,1.0057 1.13,1.0056 1.639,2.2905 1.639,3.799 0,1.9554 0,3.9107 -0.057,5.8661 0,1.3968 0.113,2.7376 0.791,3.9667 0.735,1.397 1.753,2.402 3.222,3.017 1.696,0.726 3.391,0.838 5.2,0.279 1.752,-0.503 3.052,-1.62 3.9,-3.24 0.452,-0.8382 0.678,-1.732 0.735,-2.6259 0.112,-0.8381 0.056,-1.6761 -0.057,-2.5141 z m -6.895,6.8158 c -2.713,0 -4.974,-2.2907 -4.974,-5.14 0,-2.7934 2.261,-5.084 4.974,-5.084 2.769,0 5.03,2.2906 5.03,5.084 0,2.8493 -2.261,5.14 -5.03,5.14 z"
       fill="#ffffff"
       id="path844" />
  </g>
</svg>
