<svg width="192" height="192" viewBox="0 0 192 192" fill="none" xmlns="http://www.w3.org/2000/svg">
<g clip-path="url(#clip0_1778_8)">
<rect x="19" y="19" width="154" height="154" rx="12" fill="white"/>
<rect x="-7.45831" y="84.5128" width="177.114" height="128.48" fill="#96DFD3"/>
<path d="M161.308 103.023L67.307 9.02158H187.077V77.254L161.308 103.023Z" fill="#54688C"/>
<path d="M149.694 110.644V87.7793L175.1 96.8528L163.849 110.644H149.694Z" fill="#54688C"/>
<path d="M98.1568 39.8714L9.96272 128.065V9.02158H67.307L98.1568 39.8714Z" fill="#9ABEFF"/>
<path d="M38.2719 96.1268C38.2719 47.7083 48.6494 37.3308 97.068 37.3308C145.487 37.3308 155.864 47.7083 155.864 96.1268C155.864 144.545 145.487 154.923 97.068 154.923C48.6494 154.923 38.2719 144.545 38.2719 96.1268Z" fill="white"/>
<path fill-rule="evenodd" clip-rule="evenodd" d="M109.705 154.619C111.484 120.882 121.826 110.542 155.564 108.763L109.705 154.619Z" fill="#F9DE81"/>
<path fill-rule="evenodd" clip-rule="evenodd" d="M155.568 108.763C153.789 142.507 143.448 152.848 109.704 154.627L155.568 108.763Z" fill="#FF837D"/>
<path d="M109.704 154.627L150.783 195.705H202.683V80.1575H184.173L155.568 108.763C153.789 142.507 143.448 152.848 109.704 154.627Z" fill="#FF837D"/>
<rect x="74.5658" y="80.1576" width="45.7303" height="5.08114" rx="2.54057" fill="#9ABEFF"/>
<rect x="74.5659" y="93.9492" width="45.7303" height="5.08114" rx="2.54057" fill="#96DFD3"/>
<rect x="74.5659" y="107.741" width="45.7303" height="5.08114" rx="2.54057" fill="#FF837D"/>
</g>
<defs>
<clipPath id="clip0_1778_8">
<rect x="19" y="19" width="154" height="154" rx="12" fill="white"/>
</clipPath>
</defs>
</svg>
