<?xml version="1.0" encoding="UTF-8" standalone="no"?>
<!-- Created with Inkscape (http://www.inkscape.org/) -->

<svg
   xmlns:dc="http://purl.org/dc/elements/1.1/"
   xmlns:cc="http://creativecommons.org/ns#"
   xmlns:rdf="http://www.w3.org/1999/02/22-rdf-syntax-ns#"
   xmlns:svg="http://www.w3.org/2000/svg"
   xmlns="http://www.w3.org/2000/svg"
   xmlns:sodipodi="http://sodipodi.sourceforge.net/DTD/sodipodi-0.dtd"
   xmlns:inkscape="http://www.inkscape.org/namespaces/inkscape"
   width="192"
   height="192"
   viewBox="0 0 192.00001 192.00001"
   id="svg6214"
   version="1.1"
   inkscape:version="0.91 r13725"
   sodipodi:docname="mysplash.svg">
  <defs
     id="defs6216" />
  <sodipodi:namedview
     id="base"
     pagecolor="#ffffff"
     bordercolor="#666666"
     borderopacity="1.0"
     inkscape:pageopacity="0.0"
     inkscape:pageshadow="2"
     inkscape:zoom="1.4142136"
     inkscape:cx="-22.862744"
     inkscape:cy="67.210693"
     inkscape:document-units="px"
     inkscape:current-layer="layer1"
     showgrid="false"
     units="px"
     inkscape:window-width="1680"
     inkscape:window-height="996"
     inkscape:window-x="0"
     inkscape:window-y="28"
     inkscape:window-maximized="1" />
  <metadata
     id="metadata6219">
    <rdf:RDF>
      <cc:Work
         rdf:about="">
        <dc:format>image/svg+xml</dc:format>
        <dc:type
           rdf:resource="http://purl.org/dc/dcmitype/StillImage" />
        <dc:title />
      </cc:Work>
    </rdf:RDF>
  </metadata>
  <g
     inkscape:label="Calque 1"
     inkscape:groupmode="layer"
     id="layer1"
     transform="translate(0,-860.36222)">
    <g
       id="g4494">
      <rect
         id="rect4609"
         rx="10"
         y="879.86224"
         x="19.499998"
         height="153.00002"
         width="153.00002"
         style="display:inline;fill:#56595b;fill-opacity:1;fill-rule:evenodd;stroke:none" />
      <path
         inkscape:connector-curvature="0"
         id="path4267"
         d="m 80.047541,930.2031 a 3.5264518,3.5264518 0 0 0 -2.8663,1.75801 L 51.04106,977.23647 a 3.5264518,3.5264518 0 0 0 3.052423,5.28929 l 31.534375,0 20.744302,0 31.53437,0 a 3.5264518,3.5264518 0 0 0 3.05242,-5.28929 l -26.13848,-45.27536 a 3.5264518,3.5264518 0 0 0 -2.88831,-1.75801 3.5264518,3.5264518 0 0 0 -3.21823,1.75801 l -11.485511,19.89152 a 1.4353421,1.4353421 0 0 1 -1.160733,0.69712 1.4353421,1.4353421 0 0 1 -1.272407,-0.65651 1.4353421,1.4353421 0 0 1 -0.0085,-0.0118 L 83.287779,931.96111 a 3.5264518,3.5264518 0 0 0 -2.888296,-1.75801 3.5264518,3.5264518 0 0 0 -0.351942,0 z"
         style="color:#000000;font-style:normal;font-variant:normal;font-weight:normal;font-stretch:normal;font-size:medium;line-height:normal;font-family:sans-serif;text-indent:0;text-align:start;text-decoration:none;text-decoration-line:none;text-decoration-style:solid;text-decoration-color:#000000;letter-spacing:normal;word-spacing:normal;text-transform:none;direction:ltr;block-progression:tb;writing-mode:lr-tb;baseline-shift:baseline;text-anchor:start;white-space:normal;clip-rule:nonzero;display:inline;overflow:visible;visibility:visible;opacity:1;isolation:auto;mix-blend-mode:normal;color-interpolation:sRGB;color-interpolation-filters:linearRGB;solid-color:#000000;solid-opacity:1;fill:#ffffff;fill-opacity:1;fill-rule:nonzero;stroke:none;stroke-width:1.00000012;stroke-linecap:butt;stroke-linejoin:round;stroke-miterlimit:4;stroke-dasharray:none;stroke-dashoffset:0;stroke-opacity:1;color-rendering:auto;image-rendering:auto;shape-rendering:auto;text-rendering:auto;enable-background:accumulate" />
    </g>
  </g>
</svg>
