<?xml version="1.0" encoding="UTF-8" standalone="no"?>
<svg
   xmlns:dc="http://purl.org/dc/elements/1.1/"
   xmlns:cc="http://creativecommons.org/ns#"
   xmlns:rdf="http://www.w3.org/1999/02/22-rdf-syntax-ns#"
   xmlns:svg="http://www.w3.org/2000/svg"
   xmlns="http://www.w3.org/2000/svg"
   xmlns:sodipodi="http://sodipodi.sourceforge.net/DTD/sodipodi-0.dtd"
   xmlns:inkscape="http://www.inkscape.org/namespaces/inkscape"
   width="192"
   height="192"
   viewBox="0 0 192.00001 192.00001"
   id="svg6214"
   version="1.1"
   inkscape:version="1.0.1 (3bc2e813f5, 2020-09-07)"
   sodipodi:docname="mysplash.svg"
   inkscape:export-filename="/home/jphilippe/inkscape/icônes/delta-github/mysplash.png"
   inkscape:export-xdpi="96"
   inkscape:export-ydpi="96">
  <defs
     id="defs6216" />
  <sodipodi:namedview
     id="base"
     pagecolor="#ffffff"
     bordercolor="#666666"
     borderopacity="1.0"
     inkscape:pageopacity="0.0"
     inkscape:pageshadow="2"
     inkscape:zoom="1"
     inkscape:cx="94.748827"
     inkscape:cy="196.58295"
     inkscape:document-units="px"
     inkscape:current-layer="layer1"
     showgrid="false"
     units="px"
     inkscape:window-width="1680"
     inkscape:window-height="1022"
     inkscape:window-x="1920"
     inkscape:window-y="30"
     inkscape:window-maximized="1"
     inkscape:document-rotation="0" />
  <metadata
     id="metadata6219">
    <rdf:RDF>
      <cc:Work
         rdf:about="">
        <dc:format>image/svg+xml</dc:format>
        <dc:type
           rdf:resource="http://purl.org/dc/dcmitype/StillImage" />
        <dc:title />
      </cc:Work>
    </rdf:RDF>
  </metadata>
  <g
     inkscape:label="Calque 1"
     inkscape:groupmode="layer"
     id="layer1"
     transform="translate(0,-860.36222)">
    <rect
       id="rect4609"
       rx="9.9346399"
       y="880.36224"
       x="20"
       height="152"
       width="152"
       style="display:inline;fill:#56595b;fill-opacity:1;fill-rule:evenodd;stroke:none;stroke-width:0.993464" />
    <path
       inkscape:connector-curvature="0"
       id="path4267"
       d="m 83.183583,935.34563 a 2.8331974,2.8331974 0 0 0 -2.302823,1.4124 l -21.001363,36.37482 a 2.8331974,2.8331974 0 0 0 2.452357,4.24948 h 25.335128 16.666248 25.33512 a 2.8331974,2.8331974 0 0 0 2.45235,-4.24948 l -20.99999,-36.37482 a 2.8331974,2.8331974 0 0 0 -2.32051,-1.4124 2.8331974,2.8331974 0 0 0 -2.58557,1.4124 l -9.227606,15.98111 a 1.1531726,1.1531726 0 0 1 -0.932548,0.56008 1.1531726,1.1531726 0 0 1 -1.022268,-0.52745 1.1531726,1.1531726 0 0 1 -0.0068,-0.009 l -9.238476,-16.00474 a 2.8331974,2.8331974 0 0 0 -2.320494,-1.4124 2.8331974,2.8331974 0 0 0 -0.282755,0 z"
       style="color:#000000;font-style:normal;font-variant:normal;font-weight:normal;font-stretch:normal;font-size:medium;line-height:normal;font-family:sans-serif;text-indent:0;text-align:start;text-decoration:none;text-decoration-line:none;text-decoration-style:solid;text-decoration-color:#000000;letter-spacing:normal;word-spacing:normal;text-transform:none;writing-mode:lr-tb;direction:ltr;baseline-shift:baseline;text-anchor:start;white-space:normal;clip-rule:nonzero;display:inline;overflow:visible;visibility:visible;isolation:auto;mix-blend-mode:normal;color-interpolation:sRGB;color-interpolation-filters:linearRGB;solid-color:#000000;solid-opacity:1;fill:#ffffff;fill-opacity:1;fill-rule:nonzero;stroke:none;stroke-width:0.803413;stroke-linecap:butt;stroke-linejoin:round;stroke-miterlimit:4;stroke-dasharray:none;stroke-dashoffset:0;stroke-opacity:1;color-rendering:auto;image-rendering:auto;shape-rendering:auto;text-rendering:auto;enable-background:accumulate" />
  </g>
</svg>
