<svg width="192" height="192" version="1.1" viewBox="0 0 192 192" xmlns="http://www.w3.org/2000/svg">
 <rect x="20" y="20" width="152" height="152" rx="9.9346" fill="#728dbe" stroke-width="0"/>
 <g fill="#ff837d" stroke-width="0">
  <rect x="56.106" y="62.216" width="80.043" height="13.909" ry="4.5926"/>
  <path d="m87.662 103.12h-27.21c-2.5482 0-4.5997-2.0515-4.5997-4.5997v-4.7311c0-2.5482 2.0515-4.5997 4.5997-4.5997l27.21 2e-6"/>
  <path d="m104.46 89.191 26.954-1e-6c2.5482 0 4.5997 2.0515 4.5997 4.5997v4.7311c0 2.5482-2.0515 4.5997-4.5997 4.5997h-26.954"/>
  <path d="m87.662 129.78h-27.21c-2.5482 0-4.5997-2.0515-4.5997-4.5997v-4.7311c0-2.5482 2.0515-4.5997 4.5997-4.5997h27.21"/>
  <path d="m104.46 115.85h26.954c2.5482 0 4.5997 2.0515 4.5997 4.5997v4.7311c0 2.5482-2.0515 4.5997-4.5997 4.5997h-26.954" opacity=".97426"/>
 </g>
</svg>
