<svg xmlns="http://www.w3.org/2000/svg" xml:space="preserve" width="192" height="192"><defs><linearGradient id="a" x1="92.277" x2="92.277" y1="17.147" y2="173.24" gradientUnits="userSpaceOnUse"><stop offset="0" stop-color="#98dc9a"/><stop offset="1" stop-color="#96dfd3"/></linearGradient></defs><rect width="152" height="152" x="20" y="20" fill="url(#a)" rx="9.935"/><path fill="#fff" d="M129.95 55.594 60.345 66.141l6.328 22.41H53.49l13.316 40.473 30.584-4.746v12.129l36.252-16.348 4.879-30.848h-11.074zm-17.459 23.859c2.825.086 5.033 1.525 5.033 4.033 0 1.59-.918 2.654-2.326 3.258 1.755.553 2.963 1.693 2.963 3.541 0 2.683-2.463 4.07-5.545 3.969l-8.121-.266v-14.29l7.424-.243c.193-.006.384-.008.572-.002zm-10.785.336v2.728l-6.129.123v2.877l5.223-.033v2.717l-5.223-.033v2.879l6.129.123v2.728l-9.506-.312V80.1zm-10.756.351-3.998 13.274-3.57-.118-2.48-9.045-2.42 8.885-3.278-.107-3.41-12.26 2.883-.096 2.302 8.625 2.492-8.781 2.47-.082.41-.012 2.66 8.936 2.539-9.108zm20.486 2.206-3.145.062v3.127l3.145-.02c1.088-.006 1.973-.755 1.973-1.622 0-.893-.884-1.569-1.973-1.547zm-3.145 5.806v3.125l3.749.076c1.124.023 1.982-.657 1.982-1.552 0-.87-.858-1.62-1.983-1.627zm-42.645 9.073 13.132.343v2.88l-4.435-.073v12.072l-3.96.103v-12.238l-4.737-.076zm22.118.386c4.558.122 8.1 3.408 8.1 7.338s-3.542 7.216-8.1 7.338c-4.686.126-8.61-3.16-8.61-7.338 0-4.177 3.924-7.463 8.61-7.338zm17.53.47c3.996.108 7.109 3.183 7.109 6.868s-3.113 6.76-7.11 6.867c-4.1.11-7.529-2.965-7.529-6.867s3.429-6.977 7.53-6.867zm9.267.42 2.963.079 6.19 8.377V98.74l2.65.07v12.277l-2.752.073-6.174-8.293v8.453l-2.877.076zm-26.797 2.184c-2.765-.043-4.912 1.815-4.912 4.264 0 2.45 2.147 4.307 4.912 4.264 2.737-.043 4.766-1.9 4.766-4.264 0-2.364-2.029-4.22-4.766-4.264zm17.53.272c-2.422-.038-4.3 1.702-4.3 3.992s1.878 4.028 4.3 3.99c2.398-.037 4.179-1.775 4.179-3.99 0-2.215-1.78-3.955-4.18-3.992z"/></svg>