<?xml version="1.0" encoding="utf-8"?>
<!-- Generator: Adobe Illustrator 25.0.0, SVG Export Plug-In . SVG Version: 6.00 Build 0)  -->
<svg version="1.1" id="Layer_1" xmlns="http://www.w3.org/2000/svg" xmlns:xlink="http://www.w3.org/1999/xlink" x="0px" y="0px"
	 viewBox="0 0 192 192" style="enable-background:new 0 0 192 192;" xml:space="preserve">
<style type="text/css">
	.st0{fill:#9ABEFF;}
	.st1{fill:#54688C;}
	.st2{fill:#FFFFFF;}
</style>
<circle class="st0" cx="96" cy="96" r="76"/>
<g>
	<path class="st1" d="M96.8,45.8c-2.7,0.1-5.7,0.2-8.7,0.8c-1.7,0.3-2.6-0.3-2.6-1.5c0-1.3,0.7-1.8,1.9-1.9
		c15.4-2.5,29.5,0.5,42.2,9.6c13.1,9.4,20.9,22.2,23,38.3c3.8,29.1-15,56-43.7,61.9c-20.7,4.3-38.8-1.6-53.2-17.3
		c-10.9-11.9-15.3-26.1-14.2-42.1c0.1-1.3,0.3-2.7,0.6-4c0.2-1.2,1.1-1.6,2.2-1.3c1,0.3,1.4,1.1,1.3,2.1
		c-4.1,28.1,13.7,51.7,37.7,58.5c29,8.2,59.7-10.5,65.4-40c5.6-28.9-12.4-55.8-41.2-61.8C103.9,46.1,100.5,45.9,96.8,45.8z"/>
	<path class="st2" d="M97.6,42.2c11.5,0,22.2,3.4,32,10.4c13.1,9.4,20.9,22.2,23,38.3c3.8,29.1-15,56-43.7,61.9
		c-4.4,0.9-8.6,1.3-12.8,1.3c-15.4,0-29.1-6.3-40.5-18.6c-10.9-11.9-15.3-26.1-14.2-42.1c0.1-1.3,0.3-2.7,0.6-4
		c0.2-1,0.8-1.4,1.6-1.4c0.2,0,0.4,0,0.6,0.1c1,0.3,1.4,1.1,1.3,2.1c-4.1,28.1,13.7,51.7,37.7,58.5c4.6,1.3,9.3,1.9,13.9,1.9
		c24.3,0,46.7-17.2,51.4-42c5.6-28.9-12.4-55.8-41.2-61.8c-3.4-0.7-6.8-0.9-10.4-1c-2.7,0.1-5.7,0.2-8.7,0.8
		c-0.3,0.1-0.6,0.1-0.8,0.1c-1.2,0-1.8-0.6-1.8-1.6c0-1.3,0.7-1.8,1.9-1.9C90.9,42.5,94.3,42.2,97.6,42.2 M97.6,38.7
		c-3.5,0-7.1,0.3-10.8,0.9c-3.7,0.6-5,3.3-4.9,5.6c0.1,3,2.3,5.1,5.4,5.1c0.5,0,1,0,1.5-0.1c2.8-0.5,5.6-0.6,8-0.7
		c3.9,0.1,6.9,0.3,9.6,0.9c26.7,5.6,43.6,30.9,38.4,57.7C140.5,130.6,120.4,147,97,147c-4.4,0-8.7-0.6-13-1.8
		c-20.6-5.8-39.2-26.4-35.1-54.5c0.4-2.9-1.2-5.4-3.9-6.1c-0.5-0.1-1-0.2-1.5-0.2c-2.6,0-4.6,1.8-5.1,4.4l-0.1,0.5
		c-0.2,1.2-0.4,2.5-0.5,3.9c-1.2,17.5,3.9,32.6,15.1,44.8c6,6.5,12.7,11.5,19.9,14.8c7.2,3.3,15,5,23.3,5c4.4,0,8.9-0.5,13.5-1.4
		c14.8-3,27.7-11.5,36.3-23.7c8.6-12.2,12.2-27.2,10.3-42.2c-2.2-17-10.4-30.7-24.4-40.7C121.4,42.4,109.9,38.7,97.6,38.7L97.6,38.7
		z"/>
</g>
<g>
	<path class="st1" d="M97.4,97.2c1.4-1.5,2.3-2.8,3.6-3.8c2.2-1.7,4.5-2.9,7.3-3.3c0.8-0.1,1.9,0.1,1.8-1.4c0-0.6,0.6-0.5,1-0.3
		c2,0.9,4,1.8,5.9,2.7c0.9,0.4,0.7,0.9,0,1.2c-1.9,0.9-3.8,1.8-5.8,2.6c-0.4,0.2-1.1,0.4-1.1-0.4c-0.1-1.2-0.9-0.9-1.5-0.8
		c-3.1,0.5-5.5,2.2-7.4,4.6c-3,3.8-3.8,8.3-3.8,13c0,5.1,0,10.2,0,15.3c0,0.3,0,0.7,0,1c-0.1,1.2-0.6,2-1.9,2
		c-1.2-0.1-1.7-0.8-1.7-2c-0.1-2.2,0.1-4.5-0.4-6.6c-1.3-5.4-3.9-9.9-9.6-11.6c-0.9-0.3-2.2-1.1-2.8,0.6c-0.2,0.4-0.7,0.2-1,0
		c-1.9-0.8-3.8-1.7-5.6-2.5c-0.8-0.4-1.1-0.8-0.1-1.3c2-0.9,3.9-1.8,5.9-2.7c0.9-0.4,1.1,0.1,1.1,0.8c0,0.8,0.3,1.1,1,1.1
		c4.8,0.4,8.4,2.9,11.2,6.6c0.6-0.3,0.3-0.8,0.3-1.1c0-9.2,0-18.3,0-27.5c0-1.4-0.5-1.7-1.8-1.7c-2.1,0.1-2.3-0.2-1.4-2.2
		c1.3-2.9,2.5-5.7,3.8-8.6c0.2-0.5,0.3-1.2,1.1-1.2c0.8,0,0.9,0.7,1.1,1.2c1.4,3,2.7,6,4.1,9c0.6,1.4,0.4,1.7-1.2,1.8
		c-2.2,0.1-2.2,0.1-2.2,2.3C97.4,88.3,97.4,92.5,97.4,97.2z"/>
	<path class="st2" d="M95.6,69.8C95.6,69.8,95.6,69.8,95.6,69.8c0.9,0,0.9,0.7,1.2,1.2c1.4,3,2.7,6,4.1,9c0.6,1.4,0.4,1.7-1.2,1.8
		c-2.2,0.1-2.2,0.1-2.2,2.3c0,4.2,0,8.4,0,13.1c1.4-1.5,2.3-2.8,3.6-3.8c2.2-1.7,4.5-2.9,7.3-3.3c0.8-0.1,1.9,0.1,1.8-1.4
		c0-0.3,0.2-0.5,0.4-0.5c0.2,0,0.4,0.1,0.6,0.2c2,0.9,4,1.8,5.9,2.7c0.9,0.4,0.7,0.9,0,1.2c-1.9,0.9-3.8,1.8-5.8,2.6
		c-0.2,0.1-0.4,0.2-0.7,0.2c-0.2,0-0.4-0.1-0.5-0.5c0-0.8-0.4-0.9-0.8-0.9c-0.2,0-0.5,0.1-0.7,0.1c-3.1,0.5-5.5,2.2-7.4,4.6
		c-3,3.8-3.8,8.3-3.8,13c0,5.1,0,10.2,0,15.3c0,0.3,0,0.7,0,1c-0.1,1.2-0.6,2-1.8,2c0,0-0.1,0-0.1,0c-1.2-0.1-1.7-0.8-1.7-2
		c-0.1-2.2,0.1-4.5-0.4-6.6c-1.3-5.4-3.9-9.9-9.6-11.6c-0.5-0.1-1.1-0.4-1.6-0.4c-0.5,0-0.9,0.2-1.2,1c-0.1,0.2-0.2,0.2-0.3,0.2
		c-0.2,0-0.5-0.1-0.7-0.2c-1.9-0.8-3.8-1.7-5.6-2.5c-0.8-0.4-1.1-0.8-0.1-1.3c2-0.9,3.9-1.8,5.9-2.7c0.2-0.1,0.4-0.1,0.5-0.1
		c0.4,0,0.6,0.4,0.5,0.9c0,0.8,0.3,1.1,1,1.1c4.8,0.4,8.4,2.9,11.2,6.6c0.6-0.3,0.3-0.8,0.3-1.1c0-9.2,0-18.3,0-27.5
		c0-1.3-0.4-1.7-1.5-1.7c-0.1,0-0.2,0-0.3,0c-0.2,0-0.4,0-0.5,0c-1.6,0-1.7-0.4-0.9-2.2c1.3-2.9,2.5-5.7,3.8-8.6
		C94.7,70.5,94.8,69.8,95.6,69.8 M95.6,66.2L95.6,66.2c-1.2,0-3.3,0.4-4.3,3.2c0,0,0,0.1,0,0.1c-1.4,3-2.7,6.1-3.8,8.6
		c-0.5,1.1-1.5,3.3-0.2,5.3c0.8,1.3,2,1.7,3,1.9c0,5.5,0,11,0,16.4c0,0.9,0,1.8,0,2.6c-1.8-1.1-3.8-1.8-5.9-2.2
		c-0.2-0.5-0.5-0.8-0.7-1.1c-0.8-0.8-1.8-1.3-2.9-1.3c-0.7,0-1.4,0.2-2,0.5c-1,0.4-2,0.9-3,1.3c-1,0.4-2,0.9-2.9,1.3
		c-2.5,1.1-2.7,3.1-2.7,3.9c0,0.8,0.3,2.8,2.8,3.9c1.4,0.6,2.9,1.3,4.3,1.9c0.5,0.2,0.9,0.4,1.4,0.6c0.5,0.2,1.3,0.5,2.1,0.5
		c0.9,0,1.8-0.3,2.5-0.9c3.6,1.2,5.6,3.9,6.8,8.9c0.3,1.2,0.3,2.6,0.3,4.1c0,0.6,0,1.2,0,1.8c0.1,3.1,2.1,5.3,5.1,5.5
		c0.1,0,0.2,0,0.3,0c3,0,5.2-2.2,5.3-5.4c0-0.4,0-0.7,0-1l0-0.2c0-1.5,0-3,0-4.6c0-3.5,0-7.2,0-10.8c0-4.7,0.9-8,3-10.7
		c1.2-1.5,2.4-2.4,3.8-2.9c0.7,0.7,1.7,1.1,2.8,1.1c0.9,0,1.6-0.3,2.1-0.5c2.1-0.9,4-1.8,5.9-2.6c1.7-0.8,2.7-2.2,2.7-3.9
		c0-1.6-1-3.1-2.7-3.8c-1.5-0.7-3-1.4-4.5-2c-0.5-0.2-1-0.4-1.4-0.6c-0.7-0.3-1.4-0.5-2.1-0.5c-1.1,0-2.2,0.4-2.9,1.2
		c-0.2,0.2-0.4,0.5-0.6,0.8c-2.1,0.4-4.1,1.1-6,2.3c0-1.3,0-2.6,0-3.8c1-0.2,2.3-0.6,3.1-1.9c1.2-2,0.3-4,0-4.7
		c-1.2-2.8-2.6-5.7-4.1-9c0,0,0-0.1,0-0.1c-1-2.7-3.1-3.2-4.2-3.3C95.7,66.2,95.6,66.2,95.6,66.2L95.6,66.2z"/>
</g>
<g>
	<path class="st1" d="M46.2,69.4c-0.1-1.4,0.4-2.6,1.5-3.7c5.6-5.6,11.2-11.3,16.9-16.9c2.3-2.3,5.6-2.2,7.7,0
		c2.1,2.2,1.9,5.4-0.4,7.7c-5.5,5.5-11,11-16.5,16.5c-2.7,2.7-6.8,2.2-8.6-1C46.3,71.3,46.2,70.4,46.2,69.4z"/>
	<path class="st2" d="M68.4,47.2c1.4,0,2.8,0.6,3.8,1.6c2.1,2.2,1.9,5.4-0.4,7.7c-5.5,5.5-11,11-16.5,16.5c-1.2,1.2-2.6,1.7-4,1.7
		c-1.8,0-3.6-0.9-4.5-2.7c-0.4-0.8-0.6-1.6-0.6-2.6c-0.1-1.4,0.4-2.6,1.5-3.7c5.6-5.6,11.2-11.3,16.9-16.9
		C65.7,47.7,67.1,47.2,68.4,47.2 M68.4,43.6L68.4,43.6c-2.4,0-4.7,1-6.4,2.7c-4.7,4.6-9.5,9.4-14.1,14c-1,1-1.9,1.9-2.9,2.9
		c-1.8,1.8-2.7,4-2.5,6.3c0,1.7,0.3,3,1,4.3c1.6,2.9,4.5,4.6,7.7,4.6c2.4,0,4.7-1,6.5-2.8c5.1-5.1,10.3-10.3,15.3-15.3l1.3-1.3
		c3.7-3.7,3.8-9.1,0.4-12.7C73.1,44.6,70.9,43.6,68.4,43.6L68.4,43.6z"/>
</g>
</svg>
