<svg xmlns="http://www.w3.org/2000/svg" width="192" height="192"><g transform="matrix(1.41155 0 0 1.41155 -39.515 -39.509)"><path fill="#9abeff" d="m100.8 47.439 2.004 2.004a3.826 3.826 0 0 0 5.41 0 4.687 4.687 0 0 1 6.405 1.712 5.055 5.055 0 0 1-1.044 7.072 2.882 2.882 0 0 0 1.712 3.699l1.662 1.662a3.826 3.826 0 0 0 5.41 0 4.687 4.687 0 0 1 6.404 1.711 5.055 5.055 0 0 1-1.043 7.072l-3.668 3.668a3.826 3.826 0 0 0 0 5.41l1.662 1.663a3.826 3.826 0 0 0 5.41 0l3.668-3.669a5.739 5.739 0 0 1 8.116 0l.309.31a3.826 3.826 0 0 1 0 5.41c-.18.747.28 1.498 1.027 1.678l3.356 3.357a1.913 1.913 0 0 0 2.705 0c1.134-1.134 4.063-.39 6.13 2.04 2.649 3.118 2.473 4.901-.079 7.901-2.067 2.43-5.975 2.53-8.413.505l-4.32 4.319a2.465 2.465 0 0 0 0 3.486 3.55 3.55 0 0 1-.406 5.003l-2.672 2.673a3.826 3.826 0 0 1-5.41 0 2.383 2.383 0 0 0-3.31.637l-1.052 1.051a2.866 2.866 0 0 0 0 4.054 3.938 3.938 0 0 1-1.369 5.398l-1.257 1.257a5.739 5.739 0 0 1-8.116 0l-2.879-2.879a4.478 4.478 0 0 0-6.333 0 4.846 4.846 0 0 0 .269 6.848l3.84 3.84a3.826 3.826 0 0 1 0 5.41l-2.211 2.21a4.383 4.383 0 0 1-6.198.136l-4.13 4.131a1.302 1.302 0 0 0 0 1.842 4.574 4.574 0 0 1-1.948 6.168 8.431 8.431 0 0 1-11.798-1.728 4.251 4.251 0 0 1 2.722-5.361l-3.397-3.396a2.34 2.34 0 0 0-3.31 0 4.272 4.272 0 0 1-5.93-1.158l-.481-.481a5.739 5.739 0 0 1 0-8.116l3.734-3.734a3.826 3.826 0 0 0 0-5.41l-1.662-1.662a3.826 3.826 0 0 0-5.41 0l-5.087 5.087a3.826 3.826 0 0 1-5.41 0l-1.662-1.662a3.826 3.826 0 0 1 0-5.41 3.581 3.581 0 0 0-.359-5.052l-1.662-1.662a3.826 3.826 0 0 0-5.41 0l-.409.408a2.74 2.74 0 0 1-3.876 0l-2.646-2.646a3.518 3.518 0 0 1 0-4.976 3.727 3.727 0 0 0-.142-5.269l-1.661-1.662a3.826 3.826 0 0 0-5.41 0 4.687 4.687 0 0 1-6.405-1.71 7.87 7.87 0 0 1 2.738-10.789 4.665 4.665 0 0 1 6.371 1.711l3.008-3.007a2.891 2.891 0 0 0 0-4.089 3.876 3.876 0 0 1 1.324-5.318l.704-.703a5.739 5.739 0 0 1 8.115 0l4.577 4.576a3.826 3.826 0 0 0 5.41 0l2.056-2.055a3.826 3.826 0 0 0 0-5.41l-4.274-4.275a6.167 6.167 0 0 1 0-8.72 4.938 4.938 0 0 1 6.678 2.042c1.494.381 3.83-1.336 4.212-2.83 0 0 1.403-3.679 0-5.082a3.833 3.833 0 0 1 .385-5.406l2.482-2.482a3.826 3.826 0 0 1 5.41 0 3.581 3.581 0 0 0 5.052-.359l1.277-1.277a2.941 2.941 0 0 0 0-4.16 6.173 6.173 0 0 1 2.439-8.381 7.272 7.272 0 0 1 9.435 4.09 5.563 5.563 0 0 1-2.722 7.382z"/><rect width="30.005" height="30.005" x="121.49" y="-14.87" fill="#728dbe" rx="8.658" ry="8.658" transform="rotate(45)"/></g></svg>