<?xml version="1.0" encoding="utf-8"?>
<!-- Generator: Adobe Illustrator 17.1.0, SVG Export Plug-In . SVG Version: 6.00 Build 0)  -->
<!DOCTYPE svg PUBLIC "-//W3C//DTD SVG 1.1//EN" "http://www.w3.org/Graphics/SVG/1.1/DTD/svg11.dtd">
<svg version="1.1" id="Слой_1" xmlns="http://www.w3.org/2000/svg" xmlns:xlink="http://www.w3.org/1999/xlink" x="0px" y="0px"
	 viewBox="0 0 192 192" enable-background="new 0 0 192 192" xml:space="preserve">
<path fill="#72DC98" d="M192,172c0,11-9,20-20,20H20c-11,0-20-9-20-20V20C0,9,9,0,20,0h152c11,0,20,9,20,20V172z"/>
<g>
	<path fill="#FFFFFF" d="M98.1,23.5c0.1,0.1,0.2,0.2,0.3,0.3c-0.5,0-1,0-1.5-0.3C97.4,23.5,97.8,23.5,98.1,23.5z"/>
	<path fill="#FFFFFF" d="M31,127.3c-0.1-0.1-0.2-0.2-0.3-0.3c0-0.4,0-0.8,0-1.2C30.9,126.3,31,126.8,31,127.3z"/>
	<path fill="#FFFFFF" d="M93.5,23.8c0.1-0.1,0.2-0.2,0.3-0.3c0.4,0,0.8,0,1.2,0C94.5,23.7,94,23.8,93.5,23.8z"/>
	<path fill="#FFFFFF" d="M161.3,66c0-1.1-0.1-2.2-0.4-3.3c-1.1-3.1-3-5.5-5.7-7.3c-3.2-2-6.4-3.8-9.7-5.7c-3.9-2.2-7.7-4.5-11.6-6.7
		c-4.7-2.7-9.3-5.4-13.9-8.1c-3.7-2.2-7.4-4.3-11.1-6.5c-2-1.1-3.9-2.3-5.9-3.5c-1.4-0.8-2.8-1.4-4.5-1.4c-0.5,0-1,0-1.5-0.1
		c-0.7,0-1.4,0-2,0c-0.5,0.1-0.9,0.1-1.4,0.1c-1.3,0-2.6,0.3-3.8,1c-2.9,1.6-5.7,3.3-8.5,4.9c-3.2,1.9-6.5,3.8-9.7,5.7
		c-2.2,1.3-4.5,2.6-6.8,3.9c-3.1,1.8-6.2,3.6-9.4,5.4c-2.6,1.5-5.1,3-7.7,4.5c-2.9,1.6-5.7,3.3-8.5,5c-1.9,1.1-3.9,2.1-5.3,3.8
		c-1.4,1.7-2.7,3.5-3,5.8c-0.1,0.6,0,1.2-0.2,1.8c0,20.2,0,40.3,0,60.5c0.2,0.5,0.1,1,0.1,1.5c0.1,0.9,0.2,1.8,0.6,2.7
		c1.3,2.7,3.1,4.9,5.7,6.4c3.5,2.1,7.1,4.1,10.6,6.1c2.9,1.6,5.7,3.3,8.6,4.9c0.4,0.2,0.8,0.7,1.4,0.4c0.5-0.3,0.3-0.9,0.3-1.3
		c0-4.2,0-8.4,0-12.6c0-5.9,0-11.7,0-17.6c0-1,0.2-1.1,1.1-0.6c3.5,1.9,6.8,4,10.3,5.9c0.9,0.5,1.3,1.3,1.3,2.4c0,5.1,0,10.2,0,15.3
		c0,5.2,0,10.4,0,15.6c0,0.8,0.3,1.4,1,1.8c1.8,1,3.6,2.1,5.5,3.2c3.4,1.9,6.7,3.9,10,5.9c2.4,1.4,4.8,2.7,7.7,2.8
		c2.2,0.1,4.2-0.1,6.3-0.9c1.7-0.7,3.2-1.7,4.8-2.6c4.7-2.7,9.4-5.4,14-8.1c1.1-0.7,1.6-1.4,1.5-2.7c-0.1-10,0-20.1,0-30.1
		c0-1.2,0.4-2,1.4-2.6c3.3-1.9,6.6-3.8,9.9-5.7c1.3-0.7,1.4-0.7,1.4,0.8c0,9.8,0,19.5,0,29.3c0,0.4,0,0.8,0,1.2
		c0.1,0.8,0.5,1,1.2,0.6c1.9-1.1,3.9-2.2,5.8-3.3c3.6-2.1,7.3-4.2,10.9-6.4c2.2-1.3,4.4-2.4,6.1-4.3c2-2.3,3.2-4.9,3.2-8
		C161.3,105.9,161.3,85.9,161.3,66z M41.3,60.9c4.1-2.4,8.3-4.8,12.4-7.2c5.7-3.3,11.4-6.6,17.1-10c7-4.1,14.1-8.2,21.1-12.3
		c0.7-0.4,0.7-0.4,0.7,0.4c0,9.8,0,19.6,0,29.4c0,9.8,0,19.5,0,29.3c0,0.9,0,0.9-0.8,0.5c-7.8-4.5-15.6-9.1-23.4-13.6
		c-9-5.3-18.1-10.5-27.1-15.8C40.7,61.3,40.7,61.2,41.3,60.9z M92.7,160c0,0.6-0.2,0.6-0.6,0.3c-1.3-0.8-2.6-1.5-3.9-2.3
		c-3.2-1.9-6.5-3.8-9.7-5.7c-0.5-0.3-0.7-0.6-0.7-1.3c0-9.1,0-18.3,0-27.4c0-3.5-1.7-6.2-4.7-8c-5.3-3.1-10.6-6.1-15.9-9.2
		c-2.8-1.6-6.1,0.3-6.1,3.5c0.1,8.3,0,16.7,0,25c0,0.4,0.2,0.9-0.2,1.1c-0.3,0.2-0.7-0.3-1-0.5c-3.2-1.8-6.4-3.6-9.5-5.5
		c-1.8-1.1-2.9-2.7-3-4.9c-0.1-0.9-0.1-1.8-0.1-2.8c0-18.1,0-36.3,0-54.4c0-0.3-0.1-0.8,0.1-1c0.3-0.2,0.6,0.2,0.9,0.4
		c7.8,4.5,15.5,9,23.3,13.5c5.9,3.4,11.8,6.8,17.7,10.3c4.3,2.5,8.7,5,13,7.5c0.5,0.3,0.5,0.7,0.5,1.1c0,10,0,19.9,0,29.9
		c0,9.9,0,19.9,0,29.8C92.7,159.8,92.7,159.9,92.7,160z M100.1,31.3c2.2,1.3,4.4,2.6,6.6,3.8c4.1,2.3,8.1,4.7,12.2,7
		c4.3,2.5,8.6,5,12.9,7.5c5,2.9,10.1,5.8,15.1,8.7c1.4,0.8,2.8,1.7,4.2,2.4c0.5,0.3,0.5,0.4,0,0.7c-5.7,3.3-11.4,6.6-17,9.9
		c-9.1,5.3-18.1,10.6-27.2,15.9c-2.1,1.2-4.3,2.5-6.4,3.7c-0.7,0.4-0.8,0.3-0.8-0.4c0-9.8,0-19.6,0-29.4c0-9.7,0-19.4,0-29.1
		c0-0.2,0-0.4,0-0.6C99.5,31.1,99.7,31.1,100.1,31.3z M154.7,124.1c0,2.7-0.9,4.9-3.2,6.3c-2.8,1.7-5.7,3.3-8.5,5
		c-0.4,0.2-0.8,0.5-1.2,0.7c-0.3,0.2-0.4,0.1-0.4-0.2c0-0.3,0-0.6,0-0.9c0-8.2,0-16.5,0-24.7c0-2-0.9-3.3-2.7-4.1
		c-1.3-0.6-2.5-0.4-3.8,0.3c-4.9,2.8-9.8,5.6-14.6,8.4c-1.4,0.8-2.7,1.5-3.8,2.8c-1.5,1.8-2.3,3.8-2.3,6.2c0,8.5,0,17,0,25.5
		c0,0.4,0,0.8,0,1.2c0.1,1.1-0.3,1.7-1.2,2.2c-4.3,2.4-8.5,5-12.7,7.5c-0.7,0.4-0.7,0.4-0.7-0.5c0-10,0-20,0-30c0,0,0,0,0,0
		c0-9.9,0-19.9,0-29.8c0-0.6,0.2-1,0.7-1.3c6.2-3.6,12.3-7.1,18.5-10.7c7-4.1,14-8.2,21-12.3c4.7-2.7,9.4-5.5,14.1-8.2
		c0.8-0.5,0.8-0.4,0.8,0.4C154.7,86.6,154.7,105.4,154.7,124.1z"/>
</g>
</svg>
