<?xml version="1.0" encoding="UTF-8" standalone="no"?>
<svg
   xmlns:dc="http://purl.org/dc/elements/1.1/"
   xmlns:cc="http://creativecommons.org/ns#"
   xmlns:rdf="http://www.w3.org/1999/02/22-rdf-syntax-ns#"
   xmlns:svg="http://www.w3.org/2000/svg"
   xmlns="http://www.w3.org/2000/svg"
   xmlns:sodipodi="http://sodipodi.sourceforge.net/DTD/sodipodi-0.dtd"
   xmlns:inkscape="http://www.inkscape.org/namespaces/inkscape"
   viewBox="0 0 192 192"
   version="1.1"
   id="svg16"
   sodipodi:docname="nebo.svg"
   inkscape:version="0.92.4 (5da689c313, 2019-01-14)">
  <metadata
     id="metadata20">
    <rdf:RDF>
      <cc:Work
         rdf:about="">
        <dc:format>image/svg+xml</dc:format>
        <dc:type
           rdf:resource="http://purl.org/dc/dcmitype/StillImage" />
        <dc:title></dc:title>
      </cc:Work>
    </rdf:RDF>
  </metadata>
  <sodipodi:namedview
     pagecolor="#ffffff"
     bordercolor="#666666"
     borderopacity="1"
     objecttolerance="10"
     gridtolerance="10"
     guidetolerance="10"
     inkscape:pageopacity="0"
     inkscape:pageshadow="2"
     inkscape:window-width="1920"
     inkscape:window-height="1017"
     id="namedview18"
     showgrid="true"
     inkscape:zoom="3.4766083"
     inkscape:cx="3.456703"
     inkscape:cy="81.351826"
     inkscape:window-x="-8"
     inkscape:window-y="-8"
     inkscape:window-maximized="1"
     inkscape:current-layer="svg16"
     inkscape:snap-global="false">
    <inkscape:grid
       type="xygrid"
       id="grid827"
       spacingx="4"
       spacingy="4" />
  </sodipodi:namedview>
  <defs
     id="defs4">
    <style
       id="style2">.a{fill:none;stroke:#b1b5bd;stroke-linecap:round;stroke-linejoin:round;isolation:isolate;opacity:0.63;}</style>
  </defs>
  <rect
     class="a"
     x="20"
     y="20"
     width="152"
     height="152"
     rx="10"
     id="rect6"
     style="fill:#ffffff;stroke:none;opacity:1" />
  <path
     style="fill:#9abeff;stroke:none;stroke-width:0.2949312px;stroke-linecap:butt;stroke-linejoin:miter;stroke-opacity:1"
     d="m 112.93291,131.73343 h 19.19551 V 92.622553 c 0,0 1.00047,-33.35222 -29.87303,-33.35222 -14.804571,0 -25.514569,7.556773 -31.081263,20.033863 -5.566693,12.477086 -5.990083,29.874494 -5.990083,29.874494 0,0 -4.63435,-24.835387 -5.27877,-38.271072 -0.04731,-0.986563 -0.576911,-2.420415 -1.559634,-2.519413 -0.928892,-0.09357 -1.887476,1.106484 -1.919554,2.039525 -1.207332,35.11849 6.958377,59.02623 6.958377,59.02623 0,0 1.177398,2.78522 4.438966,2.03953 2.943381,-0.67296 2.51941,-4.67892 2.51941,-4.67892 0,0 0.45671,-16.98707 2.759357,-25.07415 5.372002,-18.866895 14.113607,-26.873726 26.753759,-26.873726 13.010165,0 13.076955,17.395941 13.076955,17.395941 z"
     id="path829"
     inkscape:connector-curvature="0"
     sodipodi:nodetypes="cccsscssscscsscc" />
</svg>
