<?xml version="1.0" encoding="UTF-8" standalone="no"?>
<svg
   width="192"
   height="192"
   version="1.1"
   viewBox="0 0 192 192"
   id="svg8"
   sodipodi:docname="neko.svg"
   xml:space="preserve"
   inkscape:version="1.2 (dc2aedaf03, 2022-05-15)"
   inkscape:export-filename="neko.png"
   inkscape:export-xdpi="96"
   inkscape:export-ydpi="96"
   xmlns:inkscape="http://www.inkscape.org/namespaces/inkscape"
   xmlns:sodipodi="http://sodipodi.sourceforge.net/DTD/sodipodi-0.dtd"
   xmlns="http://www.w3.org/2000/svg"
   xmlns:svg="http://www.w3.org/2000/svg"><defs
     id="defs12" /><sodipodi:namedview
     id="namedview10"
     pagecolor="#505050"
     bordercolor="#eeeeee"
     borderopacity="1"
     inkscape:showpageshadow="0"
     inkscape:pageopacity="0"
     inkscape:pagecheckerboard="0"
     inkscape:deskcolor="#505050"
     showgrid="false"
     inkscape:zoom="0.86915209"
     inkscape:cx="-390.03531"
     inkscape:cy="78.237171"
     inkscape:window-width="1884"
     inkscape:window-height="1052"
     inkscape:window-x="36"
     inkscape:window-y="0"
     inkscape:window-maximized="1"
     inkscape:current-layer="svg8" /><circle
     cx="96"
     cy="96"
     r="88"
     style="fill:#ffb0ac;stroke-width:4;fill-opacity:1"
     id="circle2" /><path
     d="m103.47 138.34c-12.463-2.9127-23.749-7.8265-23.749-10.34 0-2.9688 9.5828-4.0198 19.431-2.1312 3.1665 0.60724 9.1794 1.301 13.362 1.5416 6.6524 0.3828 8.1845 0.2404 12.234-1.1356 2.5461-0.86516 5.7145-2.1509 7.0407-2.8571 2.317-1.2338 2.361-1.3345 1.1234-2.5721-1.1217-1.1216-2.0371-1.2203-7.0891-0.76392-6.3535 0.57392-24.154 1.2844-30.989 1.237-2.3749-0.016-7.5564-8e-3 -11.514 0.016-9.2295 0.0584-9.6588 0.0404-12.234-0.51196-1.1874-0.2544-2.8958-0.61344-3.7965-0.7974-2.9016-0.59268-4.4795-2.8649-4.4795-6.4506 0-2.7868-0.3858-3.6704-2.5922-5.9372-1.4257-1.4646-3.1773-3.8068-3.8926-5.2046-1.577-3.0822-2.9374-10.002-2.3831-12.122 0.29556-1.1302-0.372-2.3831-2.5-4.6916-3.4868-3.7828-5.3284-7.1388-4.7477-8.652 0.58302-1.5193 4.7672-2.5696 10.256-2.5744 4.2775-0.0036 4.9188-0.2336 9.8406-3.5254 5.3918-3.6062 11.794-6.1182 17.699-6.9444 2.9107-0.4072 4.0132-1.1362 8.7633-5.7948 3.1867-3.1253 6.0437-5.329 6.9089-5.329 2.2671 0 3.5016 2.6537 4.4 9.4575 0.79569 6.0266 0.92801 6.33 4.2761 9.8036 3.2089 3.3291 4.2524 5.353 5.3753 10.425 0.3218 1.4536 0.87469 1.979 2.0823 1.979 2.5288 0 8.8664 3.4465 11.021 5.9931 2.7402 3.2395 5.1072 8.8214 5.6983 13.438 0.47999 3.7486 0.73427 4.1434 4.8028 7.4589 4.9293 4.0169 6.3126 6.7088 6.3126 12.284 0 3.599-0.23944 4.1967-2.6452 6.6025-3.1935 3.1935-9.56 6.1718-16.568 7.7504-5.6207 1.2662-16.749 1.4475-21.448 0.3496zm16.573-1.3416c1.5704 0 1.6457-0.164 0.968-2.108-0.51489-1.477-0.49611-2.554 0.0628-3.5982 0.75743-1.4153 0.61578-1.4903-2.8123-1.4903-3.207 0-3.6581 0.192-4.042 1.7216-0.57734 2.3003 1.5607 6.4572 3.031 5.893 0.59934-0.23 1.856-0.41816 2.7925-0.41816zm-13.74-1.7216c-0.2462-0.981 0.0562-2.6661 0.70331-3.9172 1.3069-2.5272 1.1794-2.6581-3.1772-3.2638-4.1026-0.57032-5.0512 0.0672-5.5419 3.7251-0.37324 2.7826-0.28032 2.9722 1.6738 3.4169 1.7338 0.3944 5.9062 1.4698 6.5805 1.6958 0.10648 0.036-7.2e-4 -0.70984-0.23848-1.6568zm29.443-2.5752c0.33644-0.3284-0.0684-1.2768-0.89956-2.108-0.8312-0.8312-1.5113-2.159-1.5113-2.9506 0-1.6039-0.84965-1.8055-2.9259-0.69436-1.695 0.90712-1.7972 3.3939-0.23136 5.6294 0.90636 1.294 1.5765 1.5544 3.0585 1.1887 1.0438-0.2576 2.1731-0.73692 2.5096-1.0652zm-43.693-1.2804c0.0256-0.69264 0.2918-2.15 0.59206-3.2384 0.50414-1.8279 0.3872-1.979-1.531-1.979-4.6251 0-7.1081 4.2484-3.2967 5.6404 2.9846 1.0901 4.1845 0.97028 4.2356-0.42296zm49.918-9.1417c0-2.4551-1.4694-5.4312-2.6816-5.4312-0.5562 0-1.6418 0.3376-2.4124 0.74984-1.1363 0.60816-1.2558 1.0214-0.63248 2.1862 0.42277 0.78996 0.56699 2.0717 0.32048 2.8484-0.39516 1.2451-0.10184 1.4121 2.4789 1.4121 2.6275 0 2.9271-0.1808 2.9271-1.7653zm-64.923-5.1161c1.4549-1.019 1.6452-1.019 2.0363 0 0.54853 1.4295 2.155 1.456 2.6966 0.0448 0.2278-0.59368 0.74824-1.0795 1.1565-1.0795 0.40827 4e-5 0.74224 0.4858 0.74224 1.0795 0 1.7747 1.3764 1.2209 1.8718-0.7532 0.25296-1.0079 0.31244-1.9801 0.1322-2.1604-0.63574-0.63572-15.709-0.8554-16.093-0.2348-0.69876 1.1306-1.6384 0.66236-1.8732-0.93352-0.40346-2.7422-2.0291-2.4232-2.0291 0.398 0 3.0168 1.6717 4.2488 4.8914 3.6049 1.2312-0.2464 2.3373-0.0916 2.6202 0.366 0.67985 1.1 1.9616 0.98944 3.8482-0.332zm15.267-0.3152c0.98316-1.837 1.9784-1.8217 3.4972 0.054l1.2091 1.4932 2.0495-1.6121c1.8615-1.4643 2.111-1.5022 2.7201-0.4138 0.82859 1.4806 2.7512 1.5399 4.5996 0.1416 1.7654-1.3352 2.4764-1.3681 2.4764-0.1144 0 1.3122 6.0318 1.885 10.581 1.0048 1.8988-0.3672 4.9553-0.833 6.792-1.0347 2.917-0.3204 3.5089-0.68376 4.6778-2.8722 1.2714-2.3805 1.2754-2.5518 0.0788-3.4335-0.73498-0.54156-1.2594-1.8689-1.2594-3.1876 0-1.382-0.3658-2.2595-0.94193-2.2595-0.51807 0-1.5706-0.47436-2.3389-1.0541-1.3564-1.0235-1.3342-1.1053 0.76202-2.8141 2.4622-2.0072 1.9947-3.2567-0.75048-2.0059-3.5172 1.6026-4.0851 0.65768-2.053-3.4156 1.4838-2.9742 0.91108-3.4883-1.764-1.5835-3.0769 2.1909-3.9257 1.9799-3.3025-0.82108 0.82746-3.719 0.74941-4.4269-0.5171-4.6897-0.82076-0.1704-1.4469 0.52976-2.0158 2.2538-1.0417 3.1563-2.7561 4.75-3.615 3.3603-0.42828-0.69296-1.021-0.1264-2.1187 2.0253-0.83825 1.6431-1.2226 2.9875-0.85401 2.9875 0.6173 0 3.6771 5.5786 3.6771 6.7041 0 0.2708-0.48577 0.49244-1.0795 0.49244-0.59372 0-1.0795-0.3016-1.0795-0.67064 0-0.3688-0.99918-1.3821-2.2204-2.2517-2.0121-1.4328-2.3258-1.4757-3.3436-0.4578-1.0179 1.0179-0.94416 1.336 0.78592 3.3921 2.8566 3.395 1.5567 4.5141-1.8497 1.5924-0.79352-0.6806-1.9021-0.88672-3.122-0.58052-1.5742 0.3952-1.743 0.65384-1.0059 1.542 1.2014 1.4475 0.81025 1.6893-3.9984 2.4719-4.2584 0.69308-6.4738 2.0444-7.2234 4.4062-0.85249 2.686 1.2387 3.7951 2.5469 1.3508zm-4.062-6.1776c11.658-3.0058 21.297-12.209 23.154-22.108l0.49883-2.659h-3.3185c-4.1073 0-4.411-1.3664-0.79974-3.5982 1.3853-0.8562 2.5188-2.0161 2.5188-2.5775 0-1.2656-0.5827-1.2538-2.8786 0.0588-3.8941 2.2261-4.8415 0.50844-1.7476-3.1685 2.0468-2.4325 1.8792-3.191-1.039-4.7001-1.8449-0.954-2.0298-1.4844-2.7941-8.0161-0.45017-3.847-1.138-7.314-1.5284-7.7044-0.46674-0.46672-2.4858 1.1715-5.8947 4.7828-4.0853 4.3278-5.6166 5.4927-7.2209 5.4927h-2.0361l1.4661 2.4849c1.5412 2.6121 1.6118 6.2003 0.13168 6.6862-0.47989 0.1576-2.5321-1.4968-4.5604-3.6761-2.1702-2.3318-4.0951-3.8062-4.6773-3.5828-0.79087 0.3036-0.71045 0.76328 0.40092 2.2923 1.6764 2.3062 2.4937 7.2561 1.4448 8.7493-0.63935 0.91012-1.0095 0.74072-2.3588-1.0795-0.88029-1.1874-2.5939-3.2526-3.808-4.5892-2.0131-2.2162-2.3451-2.3443-3.769-1.455l-1.5615 0.97516 2.456 2.5345c2.6272 2.7113 3.8966 6.022 2.6131 6.8153-0.42694 0.264-2.3735-0.89608-4.3257-2.5776l-3.5494-3.0574-7.427 0.1908c-4.0849 0.1048-7.6707 0.4266-7.9685 0.71484-0.2978 0.2884 1.2404 2.6844 3.4184 5.3248 3.8537 4.672 3.9607 4.9218 3.9923 9.3177 0.0176 2.4844 0.4494 5.4886 0.95908 6.676 0.86365 2.0122 1.1869 2.159 4.7557 2.159 4.497 0 5.4243 1.1952 2.2149 2.8549-1.2127 0.62708-2.2049 1.421-2.2049 1.7644 0 1.3641 2.3073 1.3862 4.5099 0.0432 3.2473-1.98 3.599-1.8164 3.0524 1.4191-0.46472 2.7505-0.40226 2.8657 1.9158 3.5334 3.7444 1.0785 11.114 0.93076 15.966-0.32zm-23.465-14.03c-2.1658-1.2615-1.5661-2.8463 0.89116-2.3549 2.4217 0.48432 5.7656-1.2564 5.7656-3.0015 0-0.5846 0.48577-1.0629 1.0795-1.0629 2.7309 0 0.48755 4.757-2.9134 6.178-2.8586 1.1944-3.1605 1.2095-4.8228 0.2412zm17.632-1.6122c1.9518-1.5617 1.635-4.5568-0.53974-5.1026-2.2969-0.57648-2.2855-1.4108 0.034-2.4676 2.7042-1.2321 3.2823-1.0358 2.785 0.94592-0.36088 1.4378-0.09024 1.9436 1.4043 2.6246 1.4491 0.66028 2.0942 0.64192 2.9695-0.0844 0.615-0.5104 1.3296-0.7166 1.588-0.4582 0.79887 0.79888-2.2195 2.6242-3.7636 2.276-1.0074-0.2272-1.6766 0.1632-2.159 1.2595-0.38444 0.8738-1.3468 1.6845-2.1384 1.8016-1.3498 0.1996-1.361 0.15-0.17992-0.79476zm-26.741-13.013-1.6242-1.7289 2.2699-0.49856c2.768-0.60796 3.0892-0.34 2.4838 2.0723-0.58393 2.3265-1.067 2.3505-3.1295 0.1552zm36.031 0.91076c-0.85458-0.316-1.5538-1.0967-1.5538-1.7346 0-0.91776 0.45675-1.0595 2.1882-0.67924 2.4577 0.53984 5.728-1.1168 5.728-2.9016 0-0.5846 0.48576-1.0629 1.0795-1.0629 1.7067 0 1.2644 2.7759-0.738 4.6317-2.0987 1.945-4.4862 2.5671-6.7039 1.7467zm4.0235-16.23c-1.7014-0.4446-1.5871-1.1042 0.5369-3.0996 2.0666-1.9415 2.1801-1.8915 2.8546 1.2567 0.52457 2.4486 0.0056 2.7306-3.3915 1.8428z"
     style="fill:#56595b;stroke-width:.71965"
     id="path6" /><circle
     cx="96"
     cy="-167.59322"
     r="88"
     style="fill:#ff837d;stroke-width:4"
     id="circle295" /><circle
     cx="96"
     cy="-167.59322"
     r="88"
     style="opacity:0.25;fill:#bd9aff;stroke-width:4"
     id="circle297" /><path
     d="m 103.47,-125.25322 c -12.463,-2.9127 -23.749,-7.8265 -23.749,-10.34 0,-2.9688 9.5828,-4.0198 19.431,-2.1312 3.1665,0.60724 9.1794,1.301 13.362,1.5416 6.6524,0.3828 8.1845,0.2404 12.234,-1.1356 2.5461,-0.86516 5.7145,-2.1509 7.0407,-2.8571 2.317,-1.2338 2.361,-1.3345 1.1234,-2.5721 -1.1217,-1.1216 -2.0371,-1.2203 -7.0891,-0.76392 -6.3535,0.57392 -24.154,1.2844 -30.989,1.237 -2.3749,-0.016 -7.5564,-0.008 -11.514,0.016 -9.2295,0.0584 -9.6588,0.0404 -12.234,-0.51196 -1.1874,-0.2544 -2.8958,-0.61344 -3.7965,-0.7974 -2.9016,-0.59268 -4.4795,-2.8649 -4.4795,-6.4506 0,-2.7868 -0.3858,-3.6704 -2.5922,-5.9372 -1.4257,-1.4646 -3.1773,-3.8068 -3.8926,-5.2046 -1.577,-3.0822 -2.9374,-10.002 -2.3831,-12.122 0.29556,-1.1302 -0.372,-2.3831 -2.5,-4.6916 -3.4868,-3.7828 -5.3284,-7.1388 -4.7477,-8.652 0.58302,-1.5193 4.7672,-2.5696 10.256,-2.5744 4.2775,-0.004 4.9188,-0.2336 9.8406,-3.5254 5.3918,-3.6062 11.794,-6.1182 17.699,-6.9444 2.9107,-0.4072 4.0132,-1.1362 8.7633,-5.7948 3.1867,-3.1253 6.0437,-5.329 6.9089,-5.329 2.2671,0 3.5016,2.6537 4.4,9.4575 0.79569,6.0266 0.92801,6.33 4.2761,9.8036 3.2089,3.3291 4.2524,5.353 5.3753,10.425 0.3218,1.4536 0.87469,1.979 2.0823,1.979 2.5288,0 8.8664,3.4465 11.021,5.9931 2.7402,3.2395 5.1072,8.8214 5.6983,13.438 0.47999,3.7486 0.73427,4.1434 4.8028,7.4589 4.9293,4.0169 6.3126,6.7088 6.3126,12.284 0,3.599 -0.23944,4.1967 -2.6452,6.6025 -3.1935,3.1935 -9.56,6.1718 -16.568,7.7504 -5.6207,1.2662 -16.749,1.4475 -21.448,0.3496 z m 16.573,-1.3416 c 1.5704,0 1.6457,-0.164 0.968,-2.108 -0.51489,-1.477 -0.49611,-2.554 0.0628,-3.5982 0.75743,-1.4153 0.61578,-1.4903 -2.8123,-1.4903 -3.207,0 -3.6581,0.192 -4.042,1.7216 -0.57734,2.3003 1.5607,6.4572 3.031,5.893 0.59934,-0.23 1.856,-0.41816 2.7925,-0.41816 z m -13.74,-1.7216 c -0.2462,-0.981 0.0562,-2.6661 0.70331,-3.9172 1.3069,-2.5272 1.1794,-2.6581 -3.1772,-3.2638 -4.1026,-0.57032 -5.0512,0.0672 -5.5419,3.7251 -0.37324,2.7826 -0.28032,2.9722 1.6738,3.4169 1.7338,0.3944 5.9062,1.4698 6.5805,1.6958 0.10648,0.036 -7.2e-4,-0.70984 -0.23848,-1.6568 z m 29.443,-2.5752 c 0.33644,-0.3284 -0.0684,-1.2768 -0.89956,-2.108 -0.8312,-0.8312 -1.5113,-2.159 -1.5113,-2.9506 0,-1.6039 -0.84965,-1.8055 -2.9259,-0.69436 -1.695,0.90712 -1.7972,3.3939 -0.23136,5.6294 0.90636,1.294 1.5765,1.5544 3.0585,1.1887 1.0438,-0.2576 2.1731,-0.73692 2.5096,-1.0652 z m -43.693,-1.2804 c 0.0256,-0.69264 0.2918,-2.15 0.59206,-3.2384 0.50414,-1.8279 0.3872,-1.979 -1.531,-1.979 -4.6251,0 -7.1081,4.2484 -3.2967,5.6404 2.9846,1.0901 4.1845,0.97028 4.2356,-0.42296 z m 49.918,-9.1417 c 0,-2.4551 -1.4694,-5.4312 -2.6816,-5.4312 -0.5562,0 -1.6418,0.3376 -2.4124,0.74984 -1.1363,0.60816 -1.2558,1.0214 -0.63248,2.1862 0.42277,0.78996 0.56699,2.0717 0.32048,2.8484 -0.39516,1.2451 -0.10184,1.4121 2.4789,1.4121 2.6275,0 2.9271,-0.1808 2.9271,-1.7653 z m -64.923,-5.1161 c 1.4549,-1.019 1.6452,-1.019 2.0363,0 0.54853,1.4295 2.155,1.456 2.6966,0.0448 0.2278,-0.59368 0.74824,-1.0795 1.1565,-1.0795 0.40827,4e-5 0.74224,0.4858 0.74224,1.0795 0,1.7747 1.3764,1.2209 1.8718,-0.7532 0.25296,-1.0079 0.31244,-1.9801 0.1322,-2.1604 -0.63574,-0.63572 -15.709,-0.8554 -16.093,-0.2348 -0.69876,1.1306 -1.6384,0.66236 -1.8732,-0.93352 -0.40346,-2.7422 -2.0291,-2.4232 -2.0291,0.398 0,3.0168 1.6717,4.2488 4.8914,3.6049 1.2312,-0.2464 2.3373,-0.0916 2.6202,0.366 0.67985,1.1 1.9616,0.98944 3.8482,-0.332 z m 15.267,-0.3152 c 0.98316,-1.837 1.9784,-1.8217 3.4972,0.054 l 1.2091,1.4932 2.0495,-1.6121 c 1.8615,-1.4643 2.111,-1.5022 2.7201,-0.4138 0.82859,1.4806 2.7512,1.5399 4.5996,0.1416 1.7654,-1.3352 2.4764,-1.3681 2.4764,-0.1144 0,1.3122 6.0318,1.885 10.581,1.0048 1.8988,-0.3672 4.9553,-0.833 6.792,-1.0347 2.917,-0.3204 3.5089,-0.68376 4.6778,-2.8722 1.2714,-2.3805 1.2754,-2.5518 0.0788,-3.4335 -0.73498,-0.54156 -1.2594,-1.8689 -1.2594,-3.1876 0,-1.382 -0.3658,-2.2595 -0.94193,-2.2595 -0.51807,0 -1.5706,-0.47436 -2.3389,-1.0541 -1.3564,-1.0235 -1.3342,-1.1053 0.76202,-2.8141 2.4622,-2.0072 1.9947,-3.2567 -0.75048,-2.0059 -3.5172,1.6026 -4.0851,0.65768 -2.053,-3.4156 1.4838,-2.9742 0.91108,-3.4883 -1.764,-1.5835 -3.0769,2.1909 -3.9257,1.9799 -3.3025,-0.82108 0.82746,-3.719 0.74941,-4.4269 -0.5171,-4.6897 -0.82076,-0.1704 -1.4469,0.52976 -2.0158,2.2538 -1.0417,3.1563 -2.7561,4.75 -3.615,3.3603 -0.42828,-0.69296 -1.021,-0.1264 -2.1187,2.0253 -0.83825,1.6431 -1.2226,2.9875 -0.85401,2.9875 0.6173,0 3.6771,5.5786 3.6771,6.7041 0,0.2708 -0.48577,0.49244 -1.0795,0.49244 -0.59372,0 -1.0795,-0.3016 -1.0795,-0.67064 0,-0.3688 -0.99918,-1.3821 -2.2204,-2.2517 -2.0121,-1.4328 -2.3258,-1.4757 -3.3436,-0.4578 -1.0179,1.0179 -0.94416,1.336 0.78592,3.3921 2.8566,3.395 1.5567,4.5141 -1.8497,1.5924 -0.79352,-0.6806 -1.9021,-0.88672 -3.122,-0.58052 -1.5742,0.3952 -1.743,0.65384 -1.0059,1.542 1.2014,1.4475 0.81025,1.6893 -3.9984,2.4719 -4.2584,0.69308 -6.4738,2.0444 -7.2234,4.4062 -0.85249,2.686 1.2387,3.7951 2.5469,1.3508 z m -4.062,-6.1776 c 11.658,-3.0058 21.297,-12.209 23.154,-22.108 l 0.49883,-2.659 h -3.3185 c -4.1073,0 -4.411,-1.3664 -0.79974,-3.5982 1.3853,-0.8562 2.5188,-2.0161 2.5188,-2.5775 0,-1.2656 -0.5827,-1.2538 -2.8786,0.0588 -3.8941,2.2261 -4.8415,0.50844 -1.7476,-3.1685 2.0468,-2.4325 1.8792,-3.191 -1.039,-4.7001 -1.8449,-0.954 -2.0298,-1.4844 -2.7941,-8.0161 -0.45017,-3.847 -1.138,-7.314 -1.5284,-7.7044 -0.46674,-0.46672 -2.4858,1.1715 -5.8947,4.7828 -4.0853,4.3278 -5.6166,5.4927 -7.2209,5.4927 h -2.0361 l 1.4661,2.4849 c 1.5412,2.6121 1.6118,6.2003 0.13168,6.6862 -0.47989,0.1576 -2.5321,-1.4968 -4.5604,-3.6761 -2.1702,-2.3318 -4.0951,-3.8062 -4.6773,-3.5828 -0.79087,0.3036 -0.71045,0.76328 0.40092,2.2923 1.6764,2.3062 2.4937,7.2561 1.4448,8.7493 -0.63935,0.91012 -1.0095,0.74072 -2.3588,-1.0795 -0.88029,-1.1874 -2.5939,-3.2526 -3.808,-4.5892 -2.0131,-2.2162 -2.3451,-2.3443 -3.769,-1.455 l -1.5615,0.97516 2.456,2.5345 c 2.6272,2.7113 3.8966,6.022 2.6131,6.8153 -0.42694,0.264 -2.3735,-0.89608 -4.3257,-2.5776 l -3.5494,-3.0574 -7.427,0.1908 c -4.0849,0.1048 -7.6707,0.4266 -7.9685,0.71484 -0.2978,0.2884 1.2404,2.6844 3.4184,5.3248 3.8537,4.672 3.9607,4.9218 3.9923,9.3177 0.0176,2.4844 0.4494,5.4886 0.95908,6.676 0.86365,2.0122 1.1869,2.159 4.7557,2.159 4.497,0 5.4243,1.1952 2.2149,2.8549 -1.2127,0.62708 -2.2049,1.421 -2.2049,1.7644 0,1.3641 2.3073,1.3862 4.5099,0.0432 3.2473,-1.98 3.599,-1.8164 3.0524,1.4191 -0.46472,2.7505 -0.40226,2.8657 1.9158,3.5334 3.7444,1.0785 11.114,0.93076 15.966,-0.32 z m -23.465,-14.03 c -2.1658,-1.2615 -1.5661,-2.8463 0.89116,-2.3549 2.4217,0.48432 5.7656,-1.2564 5.7656,-3.0015 0,-0.5846 0.48577,-1.0629 1.0795,-1.0629 2.7309,0 0.48755,4.757 -2.9134,6.178 -2.8586,1.1944 -3.1605,1.2095 -4.8228,0.2412 z m 17.632,-1.6122 c 1.9518,-1.5617 1.635,-4.5568 -0.53974,-5.1026 -2.2969,-0.57648 -2.2855,-1.4108 0.034,-2.4676 2.7042,-1.2321 3.2823,-1.0358 2.785,0.94592 -0.36088,1.4378 -0.09024,1.9436 1.4043,2.6246 1.4491,0.66028 2.0942,0.64192 2.9695,-0.0844 0.615,-0.5104 1.3296,-0.7166 1.588,-0.4582 0.79887,0.79888 -2.2195,2.6242 -3.7636,2.276 -1.0074,-0.2272 -1.6766,0.1632 -2.159,1.2595 -0.38444,0.8738 -1.3468,1.6845 -2.1384,1.8016 -1.3498,0.1996 -1.361,0.15 -0.17992,-0.79476 z m -26.741,-13.013 -1.6242,-1.7289 2.2699,-0.49856 c 2.768,-0.60796 3.0892,-0.34 2.4838,2.0723 -0.58393,2.3265 -1.067,2.3505 -3.1295,0.1552 z m 36.031,0.91076 c -0.85458,-0.316 -1.5538,-1.0967 -1.5538,-1.7346 0,-0.91776 0.45675,-1.0595 2.1882,-0.67924 2.4577,0.53984 5.728,-1.1168 5.728,-2.9016 0,-0.5846 0.48576,-1.0629 1.0795,-1.0629 1.7067,0 1.2644,2.7759 -0.738,4.6317 -2.0987,1.945 -4.4862,2.5671 -6.7039,1.7467 z m 4.0235,-16.23 c -1.7014,-0.4446 -1.5871,-1.1042 0.5369,-3.0996 2.0666,-1.9415 2.1801,-1.8915 2.8546,1.2567 0.52457,2.4486 0.0056,2.7306 -3.3915,1.8428 z"
     style="fill:#56595b;stroke-width:0.71965"
     id="path299" /></svg>
