<?xml version="1.0" encoding="UTF-8" standalone="no"?>
<svg
   xmlns:dc="http://purl.org/dc/elements/1.1/"
   xmlns:cc="http://creativecommons.org/ns#"
   xmlns:rdf="http://www.w3.org/1999/02/22-rdf-syntax-ns#"
   xmlns:svg="http://www.w3.org/2000/svg"
   xmlns="http://www.w3.org/2000/svg"
   xmlns:sodipodi="http://sodipodi.sourceforge.net/DTD/sodipodi-0.dtd"
   xmlns:inkscape="http://www.inkscape.org/namespaces/inkscape"
   sodipodi:docname="neos_smarthome.svg"
   inkscape:version="1.0.1 (3bc2e813f5, 2020-09-07)"
   version="1.1"
   id="svg2"
   viewBox="0 0 192 192"
   height="192"
   width="192"
   inkscape:export-filename="/home/jphilippe/inkscape/icônes/delta-github/png/neos_smarthome.png"
   inkscape:export-xdpi="96"
   inkscape:export-ydpi="96">
  <sodipodi:namedview
     inkscape:document-rotation="0"
     inkscape:window-maximized="1"
     inkscape:window-y="30"
     inkscape:window-x="1920"
     inkscape:window-height="1022"
     inkscape:window-width="1680"
     units="px"
     showgrid="false"
     inkscape:current-layer="layer1"
     inkscape:document-units="px"
     inkscape:cy="31.966363"
     inkscape:cx="-703.5732"
     inkscape:zoom="0.35355339"
     inkscape:pageshadow="2"
     inkscape:pageopacity="0.0"
     borderopacity="1.0"
     bordercolor="#666666"
     pagecolor="#ffffff"
     id="base"
     inkscape:snap-bbox="false"
     inkscape:object-paths="true"
     inkscape:snap-nodes="true"
     showguides="true"
     inkscape:guide-bbox="true"
     inkscape:snap-object-midpoints="true"
     inkscape:snap-center="true"
     inkscape:snap-global="false"
     inkscape:snap-intersection-paths="true"
     inkscape:snap-smooth-nodes="true"
     inkscape:snap-midpoints="true" />
  <defs
     id="defs4" />
  <metadata
     id="metadata7">
    <rdf:RDF>
      <cc:Work
         rdf:about="">
        <dc:format>image/svg+xml</dc:format>
        <dc:type
           rdf:resource="http://purl.org/dc/dcmitype/StillImage" />
        <dc:title />
      </cc:Work>
    </rdf:RDF>
  </metadata>
  <g
     transform="translate(0,-860.36216)"
     id="layer1"
     inkscape:groupmode="layer"
     inkscape:label="Calque 1">
    <g
       id="g962"
       transform="matrix(2.095158,0,0,2.095158,-105.13522,-1047.3677)"
       style="stroke-width:0.477291">
      <path
         id="path940"
         style="fill:#73ada4;fill-opacity:1;stroke-width:5.72745;stroke-linejoin:round;stop-color:#000000"
         d="m 88.577866,921.74373 -24.948631,69.23686 a 1.4052067,1.4052067 54.907995 0 0 1.321999,1.88157 h 29.849702 a 2.8465568,2.8465568 144.908 0 0 2.678001,-1.88157 l 24.948643,-69.23686 a 1.4052065,1.4052065 54.907999 0 0 -1.322,-1.88157 H 91.255867 a 2.8465564,2.8465564 144.908 0 0 -2.678001,1.88157 z" />
      <path
         id="path942"
         style="fill:#b1b5bd;fill-opacity:1;stroke-width:5.72745;stroke-linejoin:round;stop-color:#000000"
         d="m 91.823141,940.26514 11.287389,31.32391 a 2.8465742,2.8465742 0 0 0 2.67801,1.88157 h 21.26023 a 1.4052476,1.4052476 0 0 0 1.32205,-1.88159 l -11.28619,-31.32387 a 2.8464734,2.8464734 0 0 0 -2.67795,-1.88159 H 93.145129 a 1.4051979,1.4051979 0 0 0 -1.321988,1.88157 z" />
      <path
         id="path1010"
         style="fill:#96dfd3;fill-opacity:1;stroke-width:5.72745;stroke-linejoin:round;stop-color:#000000"
         d="m 104.01367,972.84849 12.1875,-33.82813 a 2.8464734,2.8464734 0 0 0 -1.79492,-0.63672 H 93.144531 a 1.4051979,1.4051979 0 0 0 -1.322265,1.88086 l 11.289064,31.32422 a 2.8465742,2.8465742 0 0 0 0.90234,1.25977 z" />
    </g>
  </g>
  <style
     type="text/css"
     id="style853">
	.st0{fill:#FFFFFF;}
</style>
</svg>
