<?xml version="1.0" encoding="UTF-8" standalone="no"?>
<!-- Created with Inkscape (http://www.inkscape.org/) -->

<svg
   xmlns:dc="http://purl.org/dc/elements/1.1/"
   xmlns:cc="http://creativecommons.org/ns#"
   xmlns:rdf="http://www.w3.org/1999/02/22-rdf-syntax-ns#"
   xmlns:svg="http://www.w3.org/2000/svg"
   xmlns="http://www.w3.org/2000/svg"
   xmlns:sodipodi="http://sodipodi.sourceforge.net/DTD/sodipodi-0.dtd"
   xmlns:inkscape="http://www.inkscape.org/namespaces/inkscape"
   width="192"
   height="192"
   viewBox="0 0 192.00001 192.00001"
   id="svg6214"
   version="1.1"
   inkscape:version="0.91 r13725"
   sodipodi:docname="netguard.svg"
   inkscape:export-filename="/home/jphilippe/inkscape/icônes/delta-github/png/netguard.png"
   inkscape:export-xdpi="90"
   inkscape:export-ydpi="90">
  <defs
     id="defs6216" />
  <sodipodi:namedview
     id="base"
     pagecolor="#ffffff"
     bordercolor="#666666"
     borderopacity="1.0"
     inkscape:pageopacity="0.0"
     inkscape:pageshadow="2"
     inkscape:zoom="0.70710678"
     inkscape:cx="-259.55409"
     inkscape:cy="48.386007"
     inkscape:document-units="px"
     inkscape:current-layer="layer1"
     showgrid="false"
     units="px"
     inkscape:window-width="1680"
     inkscape:window-height="996"
     inkscape:window-x="0"
     inkscape:window-y="28"
     inkscape:window-maximized="1" />
  <metadata
     id="metadata6219">
    <rdf:RDF>
      <cc:Work
         rdf:about="">
        <dc:format>image/svg+xml</dc:format>
        <dc:type
           rdf:resource="http://purl.org/dc/dcmitype/StillImage" />
        <dc:title></dc:title>
      </cc:Work>
    </rdf:RDF>
  </metadata>
  <g
     inkscape:label="Calque 1"
     inkscape:groupmode="layer"
     id="layer1"
     transform="translate(0,-860.36222)"
     style="opacity:1">
    <g
       id="g5382"
       transform="matrix(0.45184578,0,0,0.45184578,-70.095415,530.66164)">
      <path
         style="opacity:1;fill:#f7c18c;fill-opacity:1;fill-rule:evenodd;stroke:#96ded3;stroke-width:16.17200089;stroke-linecap:butt;stroke-linejoin:round;stroke-miterlimit:4;stroke-dasharray:none;stroke-opacity:1"
         d="m 367.59315,754.35956 -140.22657,48.38867 0,93.13281 c 0,32.0027 0.1439,104.52836 28.95706,150.47466 10.5487,16.8212 32.1804,36.0256 50.3222,48.3711 22.7682,15.4939 43.71161,26.7369 60.94731,35.1875 17.2358,-8.4506 38.1791,-19.6936 60.9473,-35.1875 18.1418,-12.3455 39.7735,-31.5499 50.3222,-48.3711 28.8132,-45.9463 28.9571,-118.47196 28.9571,-150.47466 l 0,-93.13281 -140.2266,-48.38867 z"
         id="path5376"
         inkscape:connector-curvature="0" />
      <path
         style="opacity:1;fill:#96ded3;fill-opacity:1;stroke:none;stroke-width:21.06122398;stroke-linecap:butt;stroke-linejoin:round;stroke-miterlimit:4;stroke-dasharray:none;stroke-opacity:1"
         d="m 263.26791,817.29327 101.56253,-35.68324 c 5.45132,-1.46068 10.56809,0.002 10.56809,8.99574 l 0,37.37038 4.6e-4,112.07302 c 2e-5,5.60668 -4.15123,10.12037 -9.3077,10.12037 l -103.07338,0 c -5.15646,0 -9.30769,-4.51369 -9.30769,-10.12037 l 0,-112.07302 c 0,-7.73169 3.28609,-8.4794 9.55769,-10.68288 z"
         id="path5378"
         inkscape:connector-curvature="0"
         sodipodi:nodetypes="scccssssss" />
      <path
         sodipodi:nodetypes="sccssscs"
         inkscape:connector-curvature="0"
         id="path5380"
         d="m 371.38584,1100.4798 c -4.81314,2.7306 -11.60914,0.047 -11.60914,-6.8851 l 0,-37.3704 -4.6e-4,-112.07302 c -2e-5,-5.60668 4.15123,-10.12037 9.3077,-10.12037 l 103.07338,0 c 6.08454,0 9.04252,2.43656 9.04252,10.12037 0,101.50622 -58.41346,127.16762 -109.814,156.32852 z"
         style="opacity:1;fill:#96ded3;fill-opacity:1;stroke:none;stroke-width:21.06122398;stroke-linecap:butt;stroke-linejoin:round;stroke-miterlimit:4;stroke-dasharray:none;stroke-opacity:1" />
    </g>
  </g>
</svg>
