<svg width="192" height="192" version="1.1" viewBox="0 0 192 192" xmlns="http://www.w3.org/2000/svg">
 <circle cx="96" cy="96" r="88" display="none" fill="none" opacity=".63" stroke="#b1b5bd"/>
 <path d="m94.585 8.7699c-17.577-0.11394-35.003 5.8928-49.281 16.041-23.264 16.383-37.622 44.737-36.628 73.224 0.35187 23.778 11.141 47.075 28.878 62.883 17.541 15.996 41.813 24.308 65.478 22.193 24.882-1.9112 48.638-15.07 63.304-35.287 12.625-16.939 18.611-38.561 16.668-59.584-2.1504-27.565-18.593-53.363-42.349-67.393-13.791-8.2289-29.99-12.646-46.071-12.077z" fill="#98dc9a" stroke-width="0"/>
 <g transform="matrix(.92857 0 0 .92857 8.3178 2.2721)">
  <circle cx="95" cy="95" r="5" fill="#fff" stroke-width="0"/>
  <path d="m104.87 63.674a33 33 0 0 1 22.557 31.304 33 33 0 0 1-33 33 33 33 0 0 1-33-33 33 33 0 0 1 23.581-31.627" fill="none" stroke="#fff" stroke-width="4"/>
  <path d="m99.679 77.521a20 20 0 0 1 14.854 19.327 20 20 0 0 1-20 20 20 20 0 0 1-20-20 20 20 0 0 1 15.716-19.536" fill="none" stroke="#fff" stroke-width="4"/>
  <path d="m95 95-20 40c12.124 7 27 7.5056 40 0z" fill="#fff" stroke-width="0"/>
 </g>
</svg>
