<svg width="192" height="192" version="1.1" viewBox="0 0 192 192" xmlns="http://www.w3.org/2000/svg">
 <g stroke-width="0">
  <circle cx="96" cy="96" r="88" fill="#728dbe"/>
  <path d="m83.455 56.687c-0.69011-0.69011-1.6452-1.1161-2.7028-1.1161-2.1152 0-3.8179 1.7027-3.8179 3.8179l-1e-6 43.238-9.4136-9.4136c-1.4957-1.4957-3.9031-1.4966-5.3988-6.96e-4 -1.4957 1.4957-1.4957 3.9041 0 5.3998l15.906 15.906c1.3168 1.3168 3.3404 1.4734 4.8264 0.47158 0.25545-0.16824 0.48611-0.3685 0.69346-0.59164l15.786-15.787c1.4957-1.4957 1.4957-3.9041 0-5.3998-1.4957-1.4957-3.9041-1.4957-5.3998 0l-9.3646 9.3646v-43.188c0-1.0576-0.425-2.0117-1.1151-2.7018z" fill="#fff"/>
  <path d="m114 114.52c-0.6901 0.6901-1.6452 1.1161-2.7028 1.1161-2.1152 0-3.8179-1.7027-3.8179-3.8179v-43.238l-9.4136 9.4136c-1.4957 1.4957-3.9031 1.4966-5.3988 6.95e-4 -1.4957-1.4957-1.4957-3.9041-1e-6 -5.3998l15.906-15.906c1.3168-1.3168 3.3404-1.4734 4.8264-0.47159 0.25545 0.16824 0.48611 0.3685 0.69346 0.59164l15.786 15.787c1.4957 1.4957 1.4957 3.9041 0 5.3998-1.4957 1.4957-3.9041 1.4957-5.3998 0l-9.3646-9.3646v43.188c0 1.0576-0.425 2.0117-1.1151 2.7018z" fill="#fff"/>
 </g>
 <g transform="translate(0 3.7002)" fill="#fff" stroke-width=".69545" aria-label="kB/s">
  <path d="m84.937 134.57-4.4046-5.0768 4.0568-4.1959h-3.5468l-3.2223 3.3382v-9.945h-2.9441v15.88h2.9441v-4.2655l3.2686 4.2655z"/>
  <path d="m94.256 127.52c1.0432-0.55636 1.7155-1.53 1.7155-2.9905 0-2.4573-1.8546-3.8714-4.1959-3.8714h-5.8882v13.909h6.4214c2.3182 0 4.1264-1.3446 4.1264-3.8018 0-1.6923-0.88091-2.7355-2.1791-3.2455zm-1.3445-2.6659c0 0.81136-0.67227 1.5068-1.5068 1.5068h-2.4573v-2.9905h2.4573c0.83455 0 1.5068 0.64909 1.5068 1.4836zm-1.0432 7.0009h-2.9209v-2.9905h2.9209c0.85773 0 1.5068 0.69546 1.5068 1.5068 0 0.83455-0.64909 1.4836-1.5068 1.4836z"/>
  <path d="m96.736 140.13h2.7586l10.988-21.443h-2.7586z"/>
  <path d="m114.47 134.75c2.0864 0 3.3614-1.275 3.3614-3.0136 0-1.8546-1.53-2.5964-2.8514-3.1064-0.67227-0.27818-0.99682-0.41727-0.99682-0.765 0-0.30136 0.23182-0.53318 0.74182-0.53318 0.60273 0 1.1591 0.32454 1.4373 0.67227l1.4836-1.6691c-0.69546-0.69546-1.8314-1.2286-3.1296-1.2286-2.1096 0-3.4541 1.3909-3.4541 2.9673 0 1.8546 1.8546 2.4805 2.9209 2.8746 0.83455 0.32455 1.1127 0.55636 1.1127 0.88091 0 0.37091-0.32454 0.57955-0.81136 0.57955s-1.1359-0.18546-1.5532-0.97364l-2.1791 1.0896c0.55636 1.4373 2.2718 2.2255 3.9177 2.2255z"/>
 </g>
</svg>
