<svg viewBox="0 0 192 192" xmlns="http://www.w3.org/2000/svg"><rect x="20" y="20" width="152" height="152" rx="10" style="fill:#8c72bd;opacity:1;fill-opacity:1;stroke:none;stroke-linecap:round;stroke-linejoin:round;isolation:isolate"/><g style="fill:#fff"><path style="stroke-width:.0044856" d="M116.064 58.403c3.813-2.461 7.626-4.516 7.626-.82v80.409c0 3.696.763 5.744-7.5 5.744-8.515 0-7.766-2.048-7.753-5.744l.253-72.096c.013-3.696 3.81-5.193 7.374-7.493z" transform="matrix(1.31126 0 0 1.08421 -24.228 -12.042)"/><path style="stroke-width:.00416627" d="M89.393 71.242c3.814-2.124 9.915-5.437 9.915-1.812v69.35c0 3.19.762 4.956-7.5 4.956-8.516 0-7.766-1.767-7.753-4.955l.253-62.197c.013-3.19 1.522-3.358 5.085-5.342z" transform="matrix(1.31126 0 0 1.08421 -24.228 -12.042)"/><path style="stroke-width:.00376826" d="M67.308 83.44c3.809-1.739 7.617-3.19 7.617-.58v56.817c0 2.612.762 4.059-7.49 4.059-8.506 0-7.757-1.447-7.744-4.059l.252-50.942c.013-2.612 3.807-3.67 7.365-5.294z" transform="matrix(1.31126 0 0 1.08421 -24.228 -12.042)"/></g></svg>