<svg xmlns="http://www.w3.org/2000/svg" width="192" height="192" fill="none"><g clip-path="url(#a)"><path fill="#9ABEFF" d="M172.5 29.1v133.8c0 5.3-4.3 9.6-9.6 9.6H29.1c-5.3 0-9.6-4.3-9.6-9.6V29.1c0-5.3 4.3-9.6 9.6-9.6H163c5.2 0 9.5 4.3 9.5 9.6Z"/><path fill="#fff" d="M110.022 116.854s.412-.746.633.317c0 0 .447 5.745-2.955 9.253-2.264 2.34-7.478 5.688-13.388 4.224 0 0 9.443-.649 11.851-10.005l.263-1.052s2.376-.601 3.596-2.737Zm-11.476-54.66c-.006.009-.006.022-.006.025-.055.479.26.902.7.954.389.057.741-.21.854-.601.216.163.401.337.551.482-.846.007-.979.44-1.702.285-.38-.068-.777-.491-.796-1.012.163-.078.206-.095.399-.134Zm.597-.032c.156.018.311.066.458.122a.533.533 0 0 1 .037.175c0 .196-.148.357-.326.357-.18 0-.328-.16-.328-.358a.37.37 0 0 1 .159-.296Zm32.427 25.804c-.019-.11-.034-.21-.058-.321 0 0-.122-.594-.484-1.534a6.2 6.2 0 0 0-.169-.406v-.002c-.022-.061-.048-.115-.068-.163-.651-1.506-1.836-3.619-3.919-5.677 0 0 2.196-.173-.221-2.838 0 0-3.998-4.694-11.686-8.25-4.134-1.906-8.76-1.118-8.324 3.495.301 3.234-2.715 4.471-5.091 4.173-2.787-.35-4.466-2.632-4.019-4.51.468-2.013 1.525-3.567 3.094-4.771 1.061-.824 1.806-1.399 3.737-1.792 1.174-.248 2.715-.623 3.132.707.805-.427 2.235-3.11-2.412-3.153 0 0-.702-1.504-2.265-1.196 0 0-4.625-4.535-9.774 1.088 0 0-2.025.798-2.137.026.46.36 1.204-.74.188-1.12-.484-.185-1.042.327-1.13.814-.068.377.043 1.204 1.057 1.358.277.05.763 0 .763 0l-.342.404c-1.535.66-3.026.143-3.312-.946.356.21.757-.057.877-.454.126-.406-.169-.972-.762-1.06-.836-.123-1.233.85-1.053 1.702.272 1.318 1.593 2.257 3.295 2.025l-.293.445s-1.708 2.13-3.088 4.551c-1.417 2.456-7.162 5.166-6.181-.69.311-1.854-2.79-4.089-8.19-.38-2.877 1.985-6.425 4.963-9.042 9.782 0 0-1.168 1.836.762 1.899 0 0-3.943 1.873-4.1 10.712l-.015.002.01.865c.007.298.012.606.023.916.03.984.076 2.155.17 2.778 0 0 .437 5.327 1.359 6.269 0 0 .046.018.109.028.274.248.657.287 1.146-.229.004-.001.01-.007.019-.011.009.067 1.183 6.043 3.659 11.048 1.97 3.964 5.63 9.778 4.195 11.191-1.424 1.406-3.435-1.392-3.125-.27.67 2.383 3.116 2.726 4.433 1.687 3.405-2.687-1.577-9.136-3.127-17.339 3.245-1.396 3.12-6.541 3.12-6.541s4.65-.111 6.08-5.616c0 0 5.605 1.606 8.274-3.287l-.022-.1c.03-.026.046-.044.074-.07.551 1.704 1.67 3.24 3.122 4.544 0 0-.286 2.387-2.91 3.225 0 0-3.218-1.37-6.694 0-3.194 1.25-1.906 4.702.414 3.871-.701-.377-.907-1.519.22-1.76.3.246.603.385.902.445v.015c.037-.015 2.882.51 4.848-.271a1.67 1.67 0 0 0 .42-.189c.01-.013.036-.015.051-.023l-.011-.009c.183-.117.358-.269.525-.458.729.045 1.181 1.155.18 1.671 1.945.423 2.642-1.626 1.84-2.728 0 0 .46-.301.966-.727 0 0 .606-.596 1.07-1.291 0 0 1.9 1.513 5.441 2.363 0 0-1.845 3.069-4.582 3.663 0 0-3.884-1.265-6.51.363 0 0-1.42.75-1.195 2.317.17 1.172 1.106 1.995 2.508 1.797-.575-.276-1.833-1.705-.232-2.322.278.441.668.679 1.107.784-.004.01-.01.019-.01.019s2.44.569 5.439-.688c.12-.039.23-.084.33-.141.035-.015.076-.024.113-.048 0 0-.004-.006-.004-.011.193-.128.345-.275.403-.455.762-.137 1.864.238 1.452 1.701.91-.139 2.389-1.807.215-3.125 0 0 1.293-.635 2.324-1.566l1.55-1.583c3.048.448 5.377 3.344 5.377 6.873 0 2.897-2.474 6.317-5.096 7.01.096-.029.192-.051.274-.081l-.332.096c.013-.005.039-.009.058-.015-.407.091-.867.14-1.43.114-2.691-.093-1.1-3.227-1.1-3.227-.393-.045-.837.087-1.22.523-.427.493-.583 1.452-.446 2.411a3.521 3.521 0 0 1-.369-.128c-2.372-1.015-2.184-2.799-2.184-2.799-.635.269-1.102 1.089-.82 2.435.385 1.803 2.672 2.585 4.497 2.806 1.102 1.052 2.756 2.152 6.64 1.521 0 0-1.725 9.019-13.16 8.628 0 0-3.49-1.302-3.37-4.181.159-3.892 2.846-5.276 2.846-5.276-.996-.109-3.39.115-4.49 3.359-.478 1.45-.376 3.839.959 5.488-4.32-1.147-7.582-4.42-6.274-8.877a5.264 5.264 0 0 1 1.192-2.044c3.253-3.065 8.09-1.207 8.09-1.207-.185-1.055-1.57-2.509-3.967-2.652-2.511-.147-7.216 1.387-7.563 7.077-.325 5.271 3.008 9.07 11.287 10.24l.108.104s5.031 3.557 12.15 1.654c0 0 14.345-2.958 11.285-19.299 0 0 3.374-10.878-3.696-17.134 4.375 3.574 9.62 1.495 9.62 1.495-.38 9.911 3.874 11.171 3.874 11.171l.136-.082s-7.857 16.994-3.307 19.148c1.584.747 3.427.383 4.373-1.623.774-1.658-1.717 1.595-3.155.178-1.717-1.681.399-5.803 2.487-10.052 2.894-5.854 4.85-10.155 5.238-13.033 0 0 .425.297.911.065.02.022.039.041.057.042 1.122-.289 1.866-4.99 1.981-5.762.836-4.305.541-7.52.08-9.588Z"/></g><defs><clipPath id="a"><path fill="#fff" d="M0 0h192v192H0z"/></clipPath></defs></svg>