<svg xmlns="http://www.w3.org/2000/svg" viewBox="0 0 192 192"><rect width="152" height="152" x="20" y="20" rx="10" style="fill:#9abeff;stroke:none;opacity:1;stroke-linecap:round;stroke-linejoin:round;isolation:isolate"/><path d="m69.5 113.2 9.74 9.74a.818.818 0 0 0 1.153 0l42.624-42.624a.818.818 0 0 0 0-1.153l-9.716-9.749a.818.818 0 0 0-1.161 0L69.5 112.047a.818.818 0 0 0 0 1.153zM61.472 131.982l13.624-4.09a.9.9 0 0 0 .377-1.496l-9.577-9.544a.9.9 0 0 0-1.497.376l-4.04 13.625a.891.891 0 0 0 1.113 1.129zM120.109 61.429l-3.222 3.214a.818.818 0 0 0 0 1.161l9.748 9.749a.818.818 0 0 0 1.153 0l3.223-3.223a4.907 4.907 0 0 0 0-6.943l-3.959-3.958a4.907 4.907 0 0 0-6.943 0z" style="fill:#fff;stroke-width:.81781709"/></svg>