<?xml version="1.0" encoding="UTF-8" standalone="no"?>
<svg
   xmlns:dc="http://purl.org/dc/elements/1.1/"
   xmlns:cc="http://creativecommons.org/ns#"
   xmlns:rdf="http://www.w3.org/1999/02/22-rdf-syntax-ns#"
   xmlns:svg="http://www.w3.org/2000/svg"
   xmlns="http://www.w3.org/2000/svg"
   xmlns:sodipodi="http://sodipodi.sourceforge.net/DTD/sodipodi-0.dtd"
   xmlns:inkscape="http://www.inkscape.org/namespaces/inkscape"
   viewBox="0 0 192 192"
   version="1.1"
   id="svg16"
   sodipodi:docname="nextcloud_passwords.svg"
   inkscape:version="0.92.4 (5da689c313, 2019-01-14)">
  <metadata
     id="metadata20">
    <rdf:RDF>
      <cc:Work
         rdf:about="">
        <dc:format>image/svg+xml</dc:format>
        <dc:type
           rdf:resource="http://purl.org/dc/dcmitype/StillImage" />
        <dc:title></dc:title>
      </cc:Work>
    </rdf:RDF>
  </metadata>
  <sodipodi:namedview
     pagecolor="#ffffff"
     bordercolor="#666666"
     borderopacity="1"
     objecttolerance="10"
     gridtolerance="10"
     guidetolerance="10"
     inkscape:pageopacity="0"
     inkscape:pageshadow="2"
     inkscape:window-width="1920"
     inkscape:window-height="1017"
     id="namedview18"
     showgrid="true"
     inkscape:zoom="3.4766083"
     inkscape:cx="72.194715"
     inkscape:cy="82.169494"
     inkscape:window-x="-8"
     inkscape:window-y="-8"
     inkscape:window-maximized="1"
     inkscape:current-layer="svg16"
     inkscape:snap-global="false">
    <inkscape:grid
       type="xygrid"
       id="grid827"
       spacingx="4"
       spacingy="4" />
  </sodipodi:namedview>
  <defs
     id="defs4">
    <style
       id="style2">.a{fill:none;stroke:#b1b5bd;stroke-linecap:round;stroke-linejoin:round;isolation:isolate;opacity:0.63;}</style>
  </defs>
  <rect
     style="fill:#9abeff"
     x="20"
     y="20"
     width="152"
     height="152"
     rx="9.9345999"
     id="rect820" />
  <path
     style="fill:#ffffff;stroke-width:0.9502905"
     inkscape:connector-curvature="0"
     id="XMLID_27_"
     d="m 125.3264,64.490185 c -8.82156,-8.821546 -23.1757,-8.821546 -31.997242,0 -7.233706,7.233707 -8.533988,18.186658 -3.904363,26.759229 L 62.094442,118.57976 c -2.520455,2.52047 -2.520455,6.62154 0,9.14198 2.520454,2.52047 6.621529,2.52047 9.141983,0 l 2.28545,2.28546 c 1.262176,1.26218 3.308815,1.26218 4.570992,0 l 6.170805,-6.17081 c 1.262177,-1.26217 1.262177,-3.30871 0,-4.571 l -2.285448,-2.28544 16.589223,-16.58921 c 8.572853,4.62963 19.525613,3.32932 26.759233,-3.904371 8.82154,-8.821546 8.82154,-23.175683 0,-31.997229 z m -6.51928,6.519279 a 12.49442,12.49442 0 0 1 0,17.66875 12.49442,12.49442 0 0 1 -17.66876,0 12.49442,12.49442 0 0 1 0,-17.66875 12.49442,12.49442 0 0 1 17.66876,5e-6 z" />
</svg>
