<?xml version="1.0" encoding="UTF-8"?>
<svg width="192" height="192" version="1.1" viewBox="0 0 192 192" xml:space="preserve" xmlns="http://www.w3.org/2000/svg" xmlns:cc="http://creativecommons.org/ns#" xmlns:dc="http://purl.org/dc/elements/1.1/" xmlns:rdf="http://www.w3.org/1999/02/22-rdf-syntax-ns#" xmlns:xlink="http://www.w3.org/1999/xlink"><metadata><rdf:RDF><cc:Work rdf:about=""><dc:format>image/svg+xml</dc:format><dc:type rdf:resource="http://purl.org/dc/dcmitype/StillImage"/></cc:Work></rdf:RDF></metadata><rect x="20" y="20" width="152" height="152" rx="9.9346" fill="#9abeff"/><path id="XMLID_27_" d="m126.78 64.511c-9.283-9.283-24.388-9.283-33.671 0-7.6121 7.6121-8.9804 19.138-4.1086 28.159l-28.76 28.76c-2.6523 2.6523-2.6523 6.9679 0 9.6202 2.6523 2.6523 6.9679 2.6523 9.6202 0l2.405 2.405c1.3282 1.3282 3.4819 1.3282 4.8101 0l6.4936-6.4936c1.3282-1.3282 1.3282-3.4818 0-4.8101l-2.405-2.405 17.457-17.457c9.0213 4.8718 20.547 3.5035 28.159-4.1086 9.283-9.283 9.283-24.388 0-33.671zm-6.8603 6.8603a13.148 13.148 0 0 1 0 18.593 13.148 13.148 0 0 1-18.593 0 13.148 13.148 0 0 1 0-18.593 13.148 13.148 0 0 1 18.593 6e-6z" fill="#fff"/></svg>
