<?xml version="1.0" encoding="UTF-8" standalone="no"?>
<svg
   width="192"
   height="192"
   version="1.1"
   viewBox="0 0 192 192"
   id="svg14"
   sodipodi:docname="nib.svg"
   inkscape:version="1.1 (c68e22c387, 2021-05-23)"
   inkscape:export-xdpi="96"
   inkscape:export-ydpi="96"
   xmlns:inkscape="http://www.inkscape.org/namespaces/inkscape"
   xmlns:sodipodi="http://sodipodi.sourceforge.net/DTD/sodipodi-0.dtd"
   xmlns="http://www.w3.org/2000/svg"
   xmlns:svg="http://www.w3.org/2000/svg"
   xmlns:rdf="http://www.w3.org/1999/02/22-rdf-syntax-ns#"
   xmlns:cc="http://creativecommons.org/ns#"
   xmlns:dc="http://purl.org/dc/elements/1.1/">
  <metadata
     id="metadata20">
    <rdf:RDF>
      <cc:Work
         rdf:about="">
        <dc:format>image/svg+xml</dc:format>
        <dc:type
           rdf:resource="http://purl.org/dc/dcmitype/StillImage" />
      </cc:Work>
    </rdf:RDF>
  </metadata>
  <defs
     id="defs18" />
  <sodipodi:namedview
     pagecolor="#ffffff"
     bordercolor="#666666"
     borderopacity="1"
     objecttolerance="10"
     gridtolerance="10"
     guidetolerance="10"
     inkscape:pageopacity="0"
     inkscape:pageshadow="2"
     inkscape:window-width="1718"
     inkscape:window-height="1376"
     id="namedview16"
     showgrid="false"
     inkscape:zoom="3.3697917"
     inkscape:cx="74.485316"
     inkscape:cy="86.948995"
     inkscape:window-x="1713"
     inkscape:window-y="0"
     inkscape:window-maximized="0"
     inkscape:current-layer="svg14"
     inkscape:document-rotation="0"
     inkscape:pagecheckerboard="0" />
  <circle
     cx="96"
     cy="96"
     r="88"
     opacity="0.63"
     id="circle4"
     style="fill:#71a372;stroke:none;stroke-width:1;stroke-miterlimit:4;stroke-dasharray:none;fill-opacity:1;opacity:1" />
  <path
     style="fill:#98dc9a;fill-opacity:1;stroke-width:0.999999"
     d="m 85.116511,139.22732 -0.1178,-16.50989 -11.641014,11.59167 -11.641014,11.59169 -7.780443,-7.77092 -7.780443,-7.77091 11.560157,-11.56658 c 6.358085,-6.3616 11.359548,-11.57025 11.114363,-11.57475 -0.245189,-0.004 -7.619083,-0.055 -16.386435,-0.11225 L 36.503241,107.0013 36.383003,96.112272 36.262762,85.223243 h 35.484256 35.484262 l -0.115,35.136767 -0.11499,35.13675 -10.883493,0.12023 -10.883488,0.12023 z m 36.329379,-2.26429 -8.8317,-8.84719 v -7.75081 -7.75083 h 7.74736 7.74737 l 8.87052,8.84808 8.87052,8.84808 -6.17789,6.30675 c -3.39784,3.46871 -6.90162,6.95619 -7.78618,7.74994 l -1.60831,1.44318 z m 3.35323,-35.31052 -5.63657,-5.587754 5.50569,-5.420757 5.50569,-5.420756 h 12.78165 12.78166 l -0.12024,10.889029 -0.12024,10.889028 -12.53053,0.11948 -12.53052,0.11948 z m -69.559475,-30.894581 -9.103584,-9.084338 7.779127,-7.779131 7.779132,-7.779126 9.070732,9.113955 9.070737,9.11396 -0.112734,7.633546 -0.11273,7.633547 -7.633546,0.115962 -7.633546,0.115967 z m 57.374545,1.102396 v -7.974527 l 8.87284,-8.864528 8.87285,-8.864522 7.78855,7.798089 7.78853,7.798094 -9.14009,9.038393 -9.1401,9.038392 -7.52129,0.0027 -7.52129,0.0022 z M 90.492337,67.367472 85.223228,62.0846 V 49.173687 36.262778 l 10.889028,0.120238 10.889034,0.120242 0.11947,12.525557 0.11948,12.525557 -5.48486,5.547985 c -3.016671,3.051394 -5.599396,5.547986 -5.739396,5.547986 -0.139994,0 -2.62564,-2.377293 -5.523647,-5.282871 z"
     id="path1082" />
</svg>
