<svg width="192" height="192" version="1.1" viewBox="0 0 192 192" xmlns="http://www.w3.org/2000/svg">
 <path d="m24 136s-12-8-12-32c0-20 20-32 20-32v56z" style="fill:#54688c"/>
 <path d="m32 36h128l-64 72z" style="fill:#54688c;stroke-linecap:round;stroke-linejoin:round;stroke-width:24;stroke:#54688c"/>
 <rect x="20" y="152" width="152" height="20" ry="8" style="fill:#9abeff;paint-order:stroke fill markers"/>
 <path d="m168 136s12-8 12-32c0-20-20-32-20-32v56z" style="fill:#54688c"/>
 <rect x="28" y="20" width="136" height="132" ry="30.631" style="fill:#728dbe;paint-order:stroke fill markers"/>
 <rect x="52" y="140" width="12" height="20" ry="6" style="fill:#54688c;paint-order:stroke fill markers"/>
 <rect x="64" y="140" width="12" height="20" ry="6" style="fill:#54688c;paint-order:stroke fill markers"/>
 <rect x="116" y="140" width="12" height="20" ry="6" style="fill:#54688c;paint-order:stroke fill markers"/>
 <rect x="128" y="140" width="12" height="20" ry="6" style="fill:#54688c;paint-order:stroke fill markers"/>
 <path d="m96 108 20-20-20-24-20 24z" style="fill:#54688c"/>
 <circle cx="56" cy="68" r="40" style="fill:#f9de81;paint-order:stroke fill markers"/>
 <circle cx="136" cy="68" r="40" style="fill:#f9de81;paint-order:stroke fill markers"/>
 <circle cx="52" cy="76" r="16" style="fill:#56595b;paint-order:stroke fill markers"/>
 <path d="m56 28a40 40 0 0 0-40 40s12 12 40 12 40-12 40-12a40 40 0 0 0-40-40z" style="fill:#54688c"/>
 <path d="m136 28a40 40 0 0 0-40 40 40 40 0 0 0 2.5723 14.053c4.8464 3.4257 16.771 9.9473 37.428 9.9473 20.605 0 32.519-6.4873 37.389-9.9199a40 40 0 0 0 2.6113-14.08 40 40 0 0 0-40-40z" style="fill:#54688c"/>
</svg>
