<svg xmlns="http://www.w3.org/2000/svg" width="192" height="192"><path d="M116.27 20.006a8.001 8.001 0 0 0-4.102.97s-10.955 5.976-22.37 11.933c-5.708 2.978-11.536 5.95-16.073 8.129-2.268 1.089-4.228 1.982-5.574 2.539-.523.216-.834.327-1.105.424H47.999c-15.512 0-28 12.488-28 28v60c0 15.512 12.488 28 28 28h96c15.512 0 28-12.488 28-28V72c0-15.512-12.488-28-28-28h-21.87c-1.121 0-2.13 0-1.958-1.461.458-5.087 2.984-10.961 2.984-10.961 2.605-5.214-1.06-11.374-6.885-11.572z" style="fill:#8c72bd;paint-order:stroke fill markers"/><path d="M116.27 20.006a8.001 8.001 0 0 0-4.102.97s-10.955 5.976-22.37 11.933c-5.708 2.978-11.536 5.95-16.073 8.129-2.268 1.089-4.228 1.982-5.574 2.539-.523.216-.834.327-1.105.424H47.999c-15.512 0-28 12.488-28 28v60c0 15.512 12.488 28 28 28h96c15.512 0 28-12.488 28-28V72c0-15.512-12.488-28-28-28h-21.87c-1.121 0-2.13 0-1.958-1.461.458-5.087 2.984-10.961 2.984-10.961 2.605-5.214-1.06-11.374-6.885-11.572z" style="fill:#728dbe;opacity:.5;paint-order:stroke fill markers"/><path d="M92 100v24l20-12z" style="fill:#f9de81;stroke-linecap:round;stroke-linejoin:round;stroke-width:16;stroke:#f9de81"/><path d="m124 82-8 6 8 6" style="fill:none;stroke-linecap:round;stroke-linejoin:round;stroke-width:8;stroke:#fff"/><circle cx="72" cy="88" r="8" style="fill:#fff;paint-order:stroke fill markers"/></svg>