<?xml version="1.0" encoding="utf-8"?>
<!-- Generator: Adobe Illustrator 26.0.0, SVG Export Plug-In . SVG Version: 6.00 Build 0)  -->
<svg version="1.1"
	 id="svg14" sodipodi:docname="template_revisited2.svg" xmlns:cc="http://creativecommons.org/ns#" xmlns:dc="http://purl.org/dc/elements/1.1/" xmlns:inkscape="http://www.inkscape.org/namespaces/inkscape" xmlns:rdf="http://www.w3.org/1999/02/22-rdf-syntax-ns#" xmlns:sodipodi="http://sodipodi.sourceforge.net/DTD/sodipodi-0.dtd" xmlns:svg="http://www.w3.org/2000/svg"
	 xmlns="http://www.w3.org/2000/svg" xmlns:xlink="http://www.w3.org/1999/xlink" x="0px" y="0px" viewBox="0 0 192 192"
	 style="enable-background:new 0 0 192 192;" xml:space="preserve">
<style type="text/css">
	.st0{fill:#9ABEFF;enable-background:new    ;}
	.st1{fill:#FFFFFF;}
</style>
<sodipodi:namedview  bordercolor="#666666" borderopacity="1" gridtolerance="10" guidetolerance="10" id="namedview16" inkscape:current-layer="svg14" inkscape:cx="74.197715" inkscape:cy="86.989867" inkscape:document-rotation="0" inkscape:pageopacity="0" inkscape:pageshadow="2" inkscape:window-height="1022" inkscape:window-maximized="1" inkscape:window-width="1680" inkscape:window-x="1920" inkscape:window-y="30" inkscape:zoom="3.3697917" objecttolerance="10" pagecolor="#ffffff" showgrid="false">
	</sodipodi:namedview>
<path id="rect2" class="st0" d="M29.9,20h132.1c5.5,0,9.9,4.4,9.9,9.9v132.1c0,5.5-4.4,9.9-9.9,9.9H29.9c-5.5,0-9.9-4.4-9.9-9.9
	V29.9C20,24.4,24.4,20,29.9,20z"/>
<g>
	<path class="st1" d="M154.3,96.5c-0.5,1-0.8,2.1-1.4,3c-1,1.5-2.5,2-4.2,2c-11.7,0-23.4,0-35.1,0c-2.6,0-5.2,0-7.8,0
		c-2.2,0-4.2-1.8-4.9-3.8c-0.6-1.6-0.6-3,0-4.6c0.8-2.2,3.1-3.9,5.4-3.9c11.5,0,23,0,34.5,0c0.3,0,0.7,0,1.1,0c0-0.9,0-1.8,0-2.7
		c0-1.5,0-3,0-4.5c0-1.2,0-1.2-1.2-1.2c-11.1,0-22.3,0-33.4,0c-1.5,0-2.9-0.2-4.2-1.1c-1.6-1.1-2.4-2.7-2.5-4.6
		c-0.1-7.3-0.1-14.6,0-21.9c0-2.3,1.5-4.3,3.7-5.2c0.3-0.1,0.5-0.2,0.8-0.3c14.8,0,29.6,0,44.4,0c0.1,0.1,0.1,0.1,0.2,0.2
		c1.5,0.3,2.6,1,3.4,2.2c0.5,0.8,0.8,1.7,1.2,2.6C154.3,67.3,154.3,81.9,154.3,96.5z M113,68.7c9.6,0,19.1,0,28.7,0
		c0-2.8,0-5.6,0-8.4c-9.6,0-19.1,0-28.7,0C113,63.1,113,65.9,113,68.7z"/>
	<path class="st1" d="M83.3,144.3c-0.8-0.2-1.6-0.3-2.5-0.5c-3.8-0.9-7-2.8-9.5-5.8c-2-2.3-3.4-5-3.9-8c-0.3-1.6-0.3-3.3-0.2-5
		c0.1-2.5,0.9-4.9,2.1-7.1c2.6-4.6,6.6-7.6,11.8-8.7c6-1.3,11.4,0.3,15.9,4.6c2.7,2.6,4.5,5.7,5.1,9.4c0.6,3.7,0.3,7.3-1.4,10.8
		c-2.8,5.7-7.4,8.9-13.5,10c-0.4,0.1-0.8,0.1-1.2,0.2C85.1,144.3,84.2,144.3,83.3,144.3z M84.7,117.8c-4.8-0.1-8.8,3.8-8.8,8.7
		c0,5,3.9,8.7,8.7,8.7c4.9,0,8.8-3.7,8.9-8.7C93.5,121.7,89.6,117.7,84.7,117.8z"/>
	<path class="st1" d="M37.7,109c0.1-0.1,0.2-0.1,0.3-0.1c1.9,0,3.8,0,5.6,0.2c1.9,0.1,3.2,1.3,4.3,2.7c2.9,4,5.9,8,8.8,12.1
		c0.8,1.2,1.7,2.3,2.6,3.7c0-6.3,0-12.4,0-18.6c2.8,0,5.6,0,8.5,0c0,0.3,0,0.6,0,0.9c0,1.7-0.1,3.5,0,5.2c0,1-0.2,1.8-0.7,2.7
		c-1.2,2.2-1.8,4.5-2.1,7c-0.4,3.1,0.2,6.1,1.2,9c0.3,0.8,0.7,1.4,1,2.2c0.2,0.6,0.4,1.2,0.5,1.9c0.1,2,0,3.9,0,6.1
		c-2.2-0.1-4.5,0.3-6.6-0.5c-1.5-0.6-2.4-1.9-3.3-3.1c-3.1-4.2-6.2-8.4-9.3-12.5c-0.7-0.9-1.3-1.8-2-2.8c-0.1,0-0.2,0-0.2,0.1
		c0,0.3,0,0.6,0,0.8c0,5.7,0,11.3,0,17c0,0.8-0.3,1-1,1c-2.3,0-4.5,0-6.8,0c-0.3,0-0.6-0.1-1-0.2c0-0.1,0-0.1,0-0.2
		c0.1-0.3,0.2-0.5,0.2-0.8c0-9.7,0-19.5,0-29.2c0-0.3-0.1-0.5-0.2-0.8C37.7,111.5,37.7,110.2,37.7,109z"/>
	<path class="st1" d="M88.5,47.7c1.3,0.5,2.7,1,3.7,2.1c2,2.2,2.6,4.6,1.8,7.4c-1,3.3-4.1,5.2-7.1,5.1c-3-0.1-5.5-1.7-6.6-4.5
		c-1.7-4.2,0.6-9.1,5.3-10c0.1,0,0.1-0.1,0.2-0.2C86.6,47.7,87.5,47.7,88.5,47.7z"/>
	<path class="st1" d="M67.4,47.7c1.1,0.5,2.2,0.9,3.1,1.6c2.2,1.7,3.2,4,2.7,6.8c-0.5,3.2-2.3,5.2-5.4,6.1c-3.6,1-7.4-1-8.7-4.4
		c-1.6-4.2,1-9,5.3-9.8c0,0,0.1-0.1,0.1-0.1C65.6,47.7,66.5,47.7,67.4,47.7z"/>
	<path class="st1" d="M46.6,47.7c1.4,0.5,2.7,1,3.8,2.2c1.2,1.3,2,2.7,2.1,4.6c0.1,2.3-0.6,4.3-2.2,5.9c-3.1,3-8.4,2.5-10.9-0.9
		c-0.8-1.1-1.1-2.4-1.6-3.6c0-0.6,0-1.1,0-1.7c0.1-0.1,0.1-0.1,0.1-0.2c0.2-1.9,1.1-3.5,2.6-4.6c1-0.7,2.2-1.2,3.3-1.7
		C44.7,47.7,45.6,47.7,46.6,47.7z"/>
	<path class="st1" d="M37.7,73.8c0.4-0.9,0.6-1.9,1.1-2.8c1.7-3.1,5.8-4.6,9.2-3c2.1,1,3.6,2.5,4.1,4.7c0.7,2.7,0.2,5.4-2.2,7.5
		c-2.7,2.4-7,2.5-9.7,0c-1.3-1.2-2.2-2.7-2.4-4.5c0-0.1-0.1-0.2-0.2-0.3C37.7,74.9,37.7,74.4,37.7,73.8z"/>
	<path class="st1" d="M37.7,93.3c0.3-0.9,0.6-1.8,1-2.6c1.2-2.2,3.1-3.4,5.6-3.7c2.1-0.2,3.9,0.3,5.5,1.6c1.5,1.3,2.5,3,2.6,5.1
		c0.1,2.1-0.4,3.9-1.8,5.4c-1.3,1.5-2.9,2.3-4.9,2.4c-2.2,0.2-4.2-0.5-5.8-2c-1.2-1.1-1.9-2.5-2.1-4.1c0-0.1-0.1-0.2-0.2-0.3
		C37.7,94.4,37.7,93.9,37.7,93.3z"/>
	<path class="st1" d="M97.3,108.9c3.6,0,7,0,10.6,0c2,7.5,4,15,6,22.7c1.1-3.4,2.1-6.7,3.1-10c1-3.4,2.1-6.7,3.1-10.1
		c0.2-0.6,0.4-1.1,0.5-1.6c0.1-0.9,0.6-1.1,1.4-1.1c2.6,0.1,5.2,0,7.8,0c0.5,0,0.7,0.1,0.8,0.6c0.9,3,1.8,6.1,2.8,9.1
		c1.1,3.8,2.3,7.5,3.4,11.3c0.2,0.5,0.4,1,0.6,1.7c0.5-1.8,1-3.4,1.4-5.1c0.3-1,0.5-2.1,0.8-3.1c0.4-1.7,0.9-3.4,1.3-5.1
		c0.6-2.3,1.3-4.6,1.9-6.8c0.2-0.6,0.3-1.3,0.5-1.9c0.1-0.2,0.4-0.5,0.7-0.5c3.3,0,6.6,0,10.1,0c-0.3,0.9-0.6,1.8-0.8,2.7
		c-0.6,1.9-1.2,3.8-1.8,5.7c-0.8,2.7-1.7,5.4-2.5,8.2c-1.1,3.7-2.2,7.4-3.4,11c-0.8,2.5-1.9,4.9-4.1,6.5c-2.5,1.7-6.4,1-8.2-1.4
		c-1.6-2-2.5-4.4-3.3-6.8c-0.8-2.6-1.6-5.1-2.5-7.7c-0.6-1.8-1.1-3.6-1.7-5.4c0-0.1-0.1-0.2-0.2-0.4c-0.5,1.4-0.9,2.7-1.3,4
		c-1,3-1.9,5.9-2.9,8.9c-0.5,1.6-1.1,3.2-1.8,4.8c-0.8,1.8-1.9,3.4-3.8,4.4c-1.5,0.8-5,0.7-6.5-0.7c-1.9-1.7-2.9-3.9-3.7-6.2
		c-0.5-1.4-0.8-2.9-1.4-4.2c-0.6-1.3-0.1-2.6-0.1-4c0-1.5,0.1-3-0.1-4.5c-0.3-2.6-1.2-5.1-2.6-7.3c-0.7-1.1-1.6-2.1-2.3-3.1
		c-0.5-0.6-0.9-1.3-1.2-2C97.7,110.6,97.6,109.8,97.3,108.9z"/>
	<path class="st1" d="M87,82c-4.1,0.1-7.4-3.2-7.3-7.3c0-4.1,3.1-7.3,7.3-7.3c3.9,0,7.5,3.1,7.3,7.7C94.2,78.6,91.1,82.1,87,82z"/>
	<path class="st1" d="M58.8,74.6c-0.2-4,3.3-7.4,7.3-7.3c4.2,0,7.4,3.4,7.3,7.4c0,3.9-3.1,7.5-7.8,7.3
		C62.3,81.9,58.6,78.8,58.8,74.6z"/>
	<path class="st1" d="M58.8,94.2c-0.1-4.3,3.3-7.3,7.3-7.3c4.1,0,7.3,3.1,7.3,7.4c0.1,3.8-3.3,7.6-7.9,7.3
		C62.2,101.3,58.5,98.2,58.8,94.2z"/>
	<path class="st1" d="M87,101.5c-4,0.2-7.4-3.2-7.3-7.3c0.1-4.3,3.4-7.4,7.4-7.3c4.2,0.1,7.4,3.2,7.3,7.7
		C94.3,98.2,90.9,101.8,87,101.5z"/>
</g>
</svg>
