<svg width="192" height="192" version="1.1" viewBox="0 0 192 192" xmlns="http://www.w3.org/2000/svg">
 <rect x="20" y="20" width="152" height="152" rx="9.9346" opacity=".63" style="fill:#fff;opacity:1"/>
 <path d="m29.936 20c-5.5038 0-9.9355 4.4318-9.9355 9.9355v132.13c0 5.5038 4.4318 9.9356 9.9355 9.9356h66.064v-40h16v-16-20h16v-16h-23.217c1.9479-2.1369 3.2168-4.9113 3.2168-8 0-6.58-5.42-12-12-12v-40h-66.064z" style="fill:#f8c18c;paint-order:stroke fill markers"/>
 <path d="m96 64a8 8 0 0 0-8 8 8 8 0 0 0 8 8 8 8 0 0 0 8-8 8 8 0 0 0-8-8zm-28 20v8h16v24 12h8v-12h8v12h8v-12-24h16v-8h-56z" style="fill:#fff;paint-order:stroke fill markers"/>
 <path d="m112 88c-6.58 0-12 5.42-12 12 0 1.4149 0.35752 2.7347 0.81641 4h-8.8164v12h8v20h24v-20h8v-12h-8.8164c0.45889-1.2653 0.81641-2.5851 0.81641-4 0-6.58-5.42-12-12-12z" style="color-rendering:auto;color:#000000;dominant-baseline:auto;fill:#fff;font-feature-settings:normal;font-variant-alternates:normal;font-variant-caps:normal;font-variant-ligatures:normal;font-variant-numeric:normal;font-variant-position:normal;image-rendering:auto;isolation:auto;mix-blend-mode:normal;paint-order:stroke fill markers;shape-padding:0;shape-rendering:auto;solid-color:#000000;text-decoration-color:#000000;text-decoration-line:none;text-decoration-style:solid;text-indent:0;text-orientation:mixed;text-transform:none;white-space:normal"/>
 <path d="m112 92a8 8 0 0 0-8 8 8 8 0 0 0 8 8 8 8 0 0 0 8-8 8 8 0 0 0-8-8zm0 16h-8-8v4h8v12 8h4v-8h8v8h4v-8-12h8v-4h-8-8z" style="fill:#f8c18c;paint-order:stroke fill markers"/>
</svg>
