<svg width="192" height="192" version="1.1" viewBox="0 0 192 192" xml:space="preserve" xmlns="http://www.w3.org/2000/svg"><rect x="20" y="20" width="152" height="152" rx="9.9346" fill="#fff"/><path d="m53.5 64.056 19.137 23.312a10.573 10.573 25.309 0 0 8.1725 3.8646h26.03l-21.564-23.493a11.377 11.377 23.725 0 0-8.3811-3.6835z" fill="#96dfd3"/><path d="m138.5 64.056-19.137 23.312a10.573 10.573 154.69 0 1-8.1725 3.8646h-26.03l21.564-23.493a11.377 11.377 156.27 0 1 8.3811-3.6835z" fill="#728dbe"/><path d="m138.5 127.94-19.137-23.312a10.573 10.573 25.309 0 0-8.1725-3.8646h-26.03l21.564 23.493a11.377 11.377 23.725 0 0 8.3811 3.6835z" fill="#96dfd3"/><path d="m53.5 127.94 19.137-23.312a10.573 10.573 154.69 0 1 8.1725-3.8646h26.03l-21.564 23.493a11.377 11.377 156.27 0 1-8.3811 3.6835z" fill="#728dbe"/></svg>
