<?xml version="1.0" encoding="UTF-8" standalone="no"?>
<!-- Created with Inkscape (http://www.inkscape.org/) -->

<svg
   xmlns:dc="http://purl.org/dc/elements/1.1/"
   xmlns:cc="http://creativecommons.org/ns#"
   xmlns:rdf="http://www.w3.org/1999/02/22-rdf-syntax-ns#"
   xmlns:svg="http://www.w3.org/2000/svg"
   xmlns="http://www.w3.org/2000/svg"
   xmlns:sodipodi="http://sodipodi.sourceforge.net/DTD/sodipodi-0.dtd"
   xmlns:inkscape="http://www.inkscape.org/namespaces/inkscape"
   width="192"
   height="192"
   viewBox="0 0 192 192"
   id="svg2"
   version="1.1"
   inkscape:version="0.91 r13725"
   sodipodi:docname="notification_notes.svg"
   inkscape:export-filename="/home/jphilippe/inkscape/icônes/delta-github/png/notification_notes.png"
   inkscape:export-xdpi="90"
   inkscape:export-ydpi="90">
  <defs
     id="defs4" />
  <sodipodi:namedview
     id="base"
     pagecolor="#ffffff"
     bordercolor="#666666"
     borderopacity="1.0"
     inkscape:pageopacity="0.0"
     inkscape:pageshadow="2"
     inkscape:zoom="1.4142136"
     inkscape:cx="4.4493741"
     inkscape:cy="158.49891"
     inkscape:document-units="px"
     inkscape:current-layer="layer1"
     showgrid="false"
     units="px"
     inkscape:snap-nodes="false"
     inkscape:window-width="1680"
     inkscape:window-height="996"
     inkscape:window-x="0"
     inkscape:window-y="28"
     inkscape:window-maximized="1" />
  <metadata
     id="metadata7">
    <rdf:RDF>
      <cc:Work
         rdf:about="">
        <dc:format>image/svg+xml</dc:format>
        <dc:type
           rdf:resource="http://purl.org/dc/dcmitype/StillImage" />
        <dc:title />
      </cc:Work>
    </rdf:RDF>
  </metadata>
  <g
     inkscape:label="Calque 1"
     inkscape:groupmode="layer"
     id="layer1"
     transform="translate(0,-860.36216)">
    <circle
       id="circle4239"
       r="88.5"
       cy="956.36218"
       cx="96"
       style="fill:#fe837e;fill-opacity:1;fill-rule:evenodd;stroke:none" />
    <path
       style="fill:#ffffff;fill-opacity:1;fill-rule:evenodd;stroke:none;stroke-width:1px;stroke-linecap:butt;stroke-linejoin:miter;stroke-opacity:1"
       d="m 110.05763,928.50531 c -0.004,0.004 -0.007,0.008 -0.0104,0.0122 l -1.56794,1.57702 c -1.03903,1.04505 -1.03418,2.72247 0.0109,3.76149 l 9.93629,9.87905 c 1.04506,1.03903 2.72245,1.03418 3.76148,-0.0109 l 4.18059,-4.20481 c 0.009,-0.009 0.0143,-0.0198 0.0233,-0.0287 l 0.74079,-0.74509 c 0.49433,-0.49718 0.89578,-1.46109 0.8995,-2.16218 l 0.009,-1.8678 c 0.002,-0.24797 -0.0488,-0.42576 -0.13403,-0.53388 -0.0494,-0.10242 -0.11281,-0.20022 -0.19827,-0.28518 l -9.46561,-9.41108 c -0.10635,-0.10572 -0.23045,-0.18217 -0.36176,-0.23188 -0.0218,-0.009 -0.0506,-0.0139 -0.0754,-0.0215 -0.037,-0.0108 -0.0732,-0.0226 -0.11091,-0.0291 -0.0141,-0.002 -0.0312,-0.002 -0.0459,-0.005 -0.0516,-0.007 -0.10312,-0.0121 -0.15502,-0.0108 -0.0157,-2.6e-4 -0.028,-0.002 -0.0442,-0.002 l -1.86685,0.021 c -0.70107,0.008 -1.66349,0.41392 -2.15781,0.91111 l -3.36813,3.38765 z m -45.329438,45.59391 c -0.259753,0.26126 -0.454345,0.56183 -0.583672,0.88231 -0.124845,0.30939 -0.182565,0.6387 -0.18597,0.9669 l 4.52e-4,0.0693 0.02765,9.86868 c 0.0043,1.47367 1.194092,2.65667 2.667748,2.6524 l 9.873027,-0.0288 0.06063,-3.2e-4 c 0.329655,-0.007 0.660083,-0.0652 0.970133,-0.19242 0.319736,-0.13122 0.619164,-0.32754 0.878923,-0.5888 l 3.10221,-3.12017 1.770835,-1.78109 31.82931,-32.01378 c 1.03903,-1.04505 1.03419,-2.72244 -0.0109,-3.76148 l -9.93651,-9.87889 c -1.04504,-1.03904 -2.72245,-1.03419 -3.76148,0.0109 l -31.830177,32.01463 -1.769975,1.78023 -3.102203,3.12018 z"
       id="rect4245"
       inkscape:connector-curvature="0" />
  </g>
</svg>
