<svg width="192" height="192" version="1.1" viewBox="0 0 192 192" xmlns="http://www.w3.org/2000/svg">
 <rect x="20" y="20" width="152" height="152" rx="9.9346" opacity=".63" style="fill:#fff;opacity:1"/>
 <path d="m29.936 20c-5.5038 0-9.9355 4.4318-9.9355 9.9355v20.66a24 24 0 0 0 8 1.4043 24 24 0 0 0 24-24 24 24 0 0 0-1.4004-8h-20.664z" style="fill:#73ada4;paint-order:stroke fill markers"/>
 <path d="m141.4 20a24 24 0 0 0-1.4043 8 24 24 0 0 0 24 24 24 24 0 0 0 8-1.4004v-20.664c0-5.5038-4.4318-9.9355-9.9356-9.9355h-20.66z" style="fill:#728dbe;paint-order:stroke fill markers"/>
 <path d="m28 140a24 24 0 0 0-8 1.4004v20.664c0 5.5038 4.4318 9.9356 9.9355 9.9356h20.66a24 24 0 0 0 1.4043-8 24 24 0 0 0-24-24z" style="fill:#ff837d;paint-order:stroke fill markers"/>
 <path d="m164 140a24 24 0 0 0-24 24 24 24 0 0 0 1.4004 8h20.664c5.5038 0 9.9356-4.4318 9.9356-9.9356v-20.66a24 24 0 0 0-8-1.4043z" style="fill:#c39a54;paint-order:stroke fill markers"/>
 <path d="m65.469 68.229v6.084s2.4528 1.6986 6.2637 1.9995v39.116c-5.2479 0.18232-6.2637 2.4997-6.2637 2.4997v6.0859h22.453v-6.0859s-1.8636-2.3433-7.0879-2.4997v-32.807l30.834 41.422h9.1016v-47.731c5.1858 2e-3 5.8516-1.9995 5.8516-1.9995v-6.084h-22.451v6.084s1.5862 1.8158 7.5898 1.9995v33.336l-30.926-41.33z" style="fill:#56595b"/>
</svg>
