<?xml version="1.0" encoding="UTF-8"?>
<svg version="1.1" viewBox="0 0 192 192" xml:space="preserve" xmlns="http://www.w3.org/2000/svg">
	 <rect class="a" x="20" y="20" width="152" height="152" rx="10" fill="#9abeff"/><rect x="48.801" y="46.768" width="11.844" height="9.1924" ry="1.7678" fill="#728dbe" stroke-linecap="round" stroke-linejoin="round" stroke-width="4"/><rect x="48.801" y="64.622" width="11.844" height="9.1924" ry="1.7678" fill="#728dbe" stroke-linecap="round" stroke-linejoin="round" stroke-width="4"/><rect x="48.801" y="82.477" width="11.844" height="9.1924" ry="1.7678" fill="#728dbe" stroke-linecap="round" stroke-linejoin="round" stroke-width="4"/><rect x="48.801" y="100.33" width="11.844" height="9.1924" ry="1.7678" fill="#728dbe" stroke-linecap="round" stroke-linejoin="round" stroke-width="4"/><rect x="48.801" y="118.19" width="11.844" height="9.1924" ry="1.7678" fill="#728dbe" stroke-linecap="round" stroke-linejoin="round" stroke-width="4"/><rect x="48.801" y="136.04" width="11.844" height="9.1924" ry="1.7678" fill="#728dbe" stroke-linecap="round" stroke-linejoin="round" stroke-width="4"/><rect x="131.36" y="46.768" width="11.844" height="9.1924" ry="1.7678" fill="#728dbe" stroke-linecap="round" stroke-linejoin="round" stroke-width="4"/><rect x="131.36" y="64.622" width="11.844" height="9.1924" ry="1.7678" fill="#728dbe" stroke-linecap="round" stroke-linejoin="round" stroke-width="4"/><rect x="131.36" y="82.477" width="11.844" height="9.1924" ry="1.7678" fill="#728dbe" stroke-linecap="round" stroke-linejoin="round" stroke-width="4"/><rect x="131.36" y="100.33" width="11.844" height="9.1924" ry="1.7678" fill="#728dbe" stroke-linecap="round" stroke-linejoin="round" stroke-width="4"/><rect x="131.36" y="118.19" width="11.844" height="9.1924" ry="1.7678" fill="#728dbe" stroke-linecap="round" stroke-linejoin="round" stroke-width="4"/><rect x="131.36" y="136.04" width="11.844" height="9.1924" ry="1.7678" fill="#728dbe" stroke-linecap="round" stroke-linejoin="round" stroke-width="4"/><path transform="translate(198.71 -29.07)" d="m-81.21 127.8-31.239 18.036a3.4641 3.4641 30 0 1-5.1962-3v-36.071a3.4641 3.4641 150 0 1 5.1962-3l31.239 18.036a3.4641 3.4641 90 0 1 0 6z" fill="#fff" stroke-linecap="round" stroke-linejoin="round" stroke-width="4"/><path d="m84.214 102.47 10.65-13.654 4.0899 14.74 6.6719-12.723" fill="none" stroke="#56595b" stroke-linecap="round" stroke-linejoin="round" stroke-width="1.7554"/></svg>
