<svg xmlns="http://www.w3.org/2000/svg" xml:space="preserve" width="192" height="192"><path fill="#fff" d="M29.935 20h132.13A9.913 9.913 0 0 1 172 29.935v132.13a9.913 9.913 0 0 1-9.935 9.934H29.935A9.913 9.913 0 0 1 20 162.065V29.935A9.913 9.913 0 0 1 29.935 20z"/><path fill="#98dc9a" d="M93.555 96A84.945 74.891 0 0 0 20 133.783v28.281A9.915 9.915 0 0 0 29.935 172h132.13a9.915 9.915 0 0 0 9.936-9.936v-19.865A84.945 74.891 0 0 0 93.556 96z"/><rect width="11" height="35.5" x="6.888" y="92.203" fill="#98dc9a" ry="4.382" transform="rotate(-15)"/><rect width="11" height="35.5" x="-174.68" y="43.552" fill="#98dc9a" ry="4.382" transform="scale(-1 1) rotate(-15)"/><path fill="none" stroke="#56595b" stroke-linecap="round" stroke-linejoin="round" stroke-width="2" d="M51.265 136.83c5.832 8.204 16.229 7.784 22.981 0M113.14 136.83c5.832 8.204 16.229 7.784 22.981 0"/><text xml:space="preserve" x="-49.758" y="130.549" fill="#56595b" stroke-linecap="round" stroke-linejoin="round" stroke-width="1.295" font-family="Now" font-size="27.621" font-weight="300" transform="rotate(-60)"><tspan x="-49.758" y="130.549">z</tspan></text><text xml:space="preserve" x="19.877" y="142.252" fill="#56595b" stroke-linecap="round" stroke-linejoin="round" stroke-width="1.56" font-family="Now" font-size="33.284" font-weight="300" transform="rotate(-45)"><tspan x="19.877" y="142.252">z</tspan></text><text xml:space="preserve" x="114.932" y="105.838" fill="#56595b" stroke-linecap="round" stroke-linejoin="round" stroke-width="2.269" font-family="Now" font-size="48.399" font-weight="300" transform="rotate(-15)"><tspan x="114.932" y="105.838">z</tspan></text></svg>