<?xml version="1.0" encoding="UTF-8"?>
<svg width="192" height="192" version="1.1" viewBox="0 0 192 192" xml:space="preserve" xmlns="http://www.w3.org/2000/svg" xmlns:cc="http://creativecommons.org/ns#" xmlns:dc="http://purl.org/dc/elements/1.1/" xmlns:rdf="http://www.w3.org/1999/02/22-rdf-syntax-ns#" xmlns:xlink="http://www.w3.org/1999/xlink"><metadata><rdf:RDF><cc:Work rdf:about=""><dc:format>image/svg+xml</dc:format><dc:type rdf:resource="http://purl.org/dc/dcmitype/StillImage"/></cc:Work></rdf:RDF></metadata><circle cx="96" cy="96" r="88" fill="#bd9aff"/><style type="text/css">
	.st0{fill:none;stroke:#000000;stroke-width:2;stroke-linecap:round;stroke-linejoin:round;stroke-miterlimit:10;}
</style><path d="m72.971 52.808 9.8295 25.192c0.31749 0.7468 0.75726 1.0901 1.3543 1.3046 0.59833 0.21502 1.3762 0.22437 2.0676 0.03175 0.69145-0.19259 1.2546-0.58824 1.4951-0.919 0.24083-0.33095 0.30552-0.47941 0.09442-0.97977l-0.0086-0.02091-9.6126-24.609zm17.607 22.464 0.35152 0.89937-0.01683-0.04167c0.62563 1.4841 0.3418 3.1454-0.47343 4.2669-0.81523 1.1211-2.0143 1.8201-3.3138 2.182-1.2995 0.36218-2.7398 0.38611-4.1098-0.10658-1.37-0.4925-2.6467-1.5794-3.3174-3.1642l-0.0093-0.02206-0.32852-0.8414c-5.8543 3.7029-7.941 7.858-6.6129 12.881 0.23185 0.87525 0.63984 2.3118 1.1151 4.1378 13.906-0.98613 26.167-4.4636 37.36-9.6481-1.9253-2.5928-4.207-4.8297-7.1486-6.4564-3.834-2.1203-8.9099-3.7689-13.496-4.0868zm22.542 13.373c-11.499 5.3869-24.153 9.0457-38.438 10.134 0.37957 1.6235 0.76287 3.418 1.1125 5.328 16.752-1.8855 30.486-4.9026 40.716-9.1184-1.0738-2.1914-2.1676-4.336-3.3899-6.3431zm4.8689 9.3789c-10.675 4.4449-24.679 7.4954-41.646 9.4092 1.6843 11.458 1.4818 25.543-8.1689 31.759 3.0421 0 5.9631-0.0285 8.7742-0.0841 3.3357-4.7781 5.8468-12.382 5.9983-16.107 1.5463 3.1399 0.61647 11.092-1.0022 15.974 0.51139-0.0174 1.0162-0.0361 1.5196-0.0555 2.2108-2.318 2.1921-5.3536 2.7523-8.8411 0.62152 2.7897 1.3089 6.1641 1.7772 8.6302 2.1078-0.11517 4.142-0.25054 6.0966-0.40817 3.0627-3.8065 4.0481-9.2749 3.4834-15.983 0.79017 5.4411 1.7045 11.618 2.22 15.435 1.8066-0.2025 3.5386-0.42818 5.1993-0.67575 0.94238-3.5128-0.76661-9.058-0.38741-13.003 2.0798 8.0612 4.1597 10.368 6.2395 11.975 1.0134-0.20848 1.9923-0.42874 2.9417-0.65929-0.8788-2.6084 0.29411-4.2065 0.22063-7.4765 1.0559 3.5507 2.7346 5.0406 4.5675 6.1359 1.2165-0.39267 2.3672-0.81075 3.4576-1.2522-1.9704-1.2284-1.8909-4.9314-2.3148-8.0262 1.1133 4.058 2.6949 6.0615 4.503 7.0708 5.4456-2.5803 9.104-5.8962 11.293-10.033-1.6974-0.71426-3.4916-2.4311-5.2481-3.7568 2.4707 1.398 4.4284 1.9846 6.0525 2.0437 0.24737-0.59946 0.47007-1.2135 0.66415-1.8451-10.532-3.6513-14.971-11.97-18.993-20.227z" fill="#fff" stroke-width=".18698"/></svg>
