<?xml version="1.0" encoding="utf-8"?>
<!-- Generator: Adobe Illustrator 22.1.0, SVG Export Plug-In . SVG Version: 6.00 Build 0)  -->
<svg version="1.1" id="Слой_1" xmlns="http://www.w3.org/2000/svg" xmlns:xlink="http://www.w3.org/1999/xlink" x="0px" y="0px"
	 viewBox="0 0 192 192" enable-background="new 0 0 192 192" xml:space="preserve">
<rect x="0.9" y="0" fill="#FFFFFF" width="192" height="192"/>
<image overflow="visible" width="241" height="241" xlink:href="D:\DESIGN\туццццц\Новая папка (4)\marvin\30E0AF75.jpg"  transform="matrix(0.7734 0 0 0.7734 4.215 -195)">
</image>
<g>
	<path fill="#FF8580" d="M180.4,25c-0.3,9.7-7.9,16.9-17.4,16.6c-9.4-0.3-16.3-8.2-16-18c0.3-8.4,8.4-15.8,16.8-15.5
		C173.3,8.4,180.7,16,180.4,25z"/>
	<path fill="#FF8580" d="M48.7,146.6c-4.4,2.3-9.3,2.1-14,2.6c-3.1,0.3-7,3.7-7,6.3c0.1,1.8,1.8,3.3,3.6,3.2c0.1,0,0.4,0,0.4,0
		c2.3,2.8,2.8-0.1,3.6-1.3c1.1-1.6,2.5-2.6,4.5-2.8c2.8-0.3,5.5-0.8,8.3-0.7c0,3.3,0,6.5,0.1,9.8c0,0.8-0.1,1.5-1,1.8
		c-4.6,1.5-9.1,3.4-13.9,4.6c0.4-0.3,0.9-0.7,1.3-0.9c3.1-1.5,3.1-1.5,0.7-3.8c-2.5-2.6-5.6-4.6-7.7-7.6c-1.3-1.8-1.3-3.8,0.2-5.4
		c2.1-2.1,4.3-3.9,7.7-3.9c3.6,0,7.2-1.1,10.7-1.7c0.9-0.2,1.1-0.5,1.2-1.5c0.4-4.5,0.1-9,0.2-13.5c0-0.3,0.2-0.6,0.3-0.9
		c0.5,0.3,0.8,0.8,0.8,1.3C49,137.1,49.4,141.8,48.7,146.6z"/>
	<path d="M44,74.5c0-1.6,0-3.2,0-4.9c0-0.9,0.2-1.4,1.1-1.7c2.8-1.1,2.9-1.1,2.9,2c0,2.8-0.1,5.6,0,8.4c0.1,2.4-1.9,2-3.1,2.7
		c-1.2,0.7-1.9,0.1-2.6-0.9c-0.9-1.3-1.8-2.4-3.1-4.2c0,1.7,0,2.7,0,3.7c0,3.7,0,3.7-4,4.5c0-4-0.1-7.9,0-11.9
		c0.1-2.1,2.3-1.3,3.4-2.1c0.8-0.5,1.4-0.3,1.9,0.5c0.9,1.4,1.9,2.7,2.9,4.1C43.7,74.6,43.9,74.6,44,74.5z"/>
	<path d="M13.2,91.8c0-4.1,0.1-7.8,0-11.5c0-1.2,0.5-1.6,1.5-1.9c2.5-0.8,5-1.7,7.5-2.5c0.6-0.2,1.5-1.3,1.8,0.1
		c0.2,1,0.7,2.4-1.1,2.8c-1.5,0.4-2.9,1-4.4,1.5c-0.7,0.2-1.5,0.5-1.1,1.4c0.4,1,1.1,0.1,1.6,0c0.9-0.2,1.7-0.7,2.7-0.9
		c0.6-0.1,1.6-1.2,1.9,0c0.3,1,0.8,2.5-1.1,3c-1.3,0.3-2.5,0.8-3.7,1.3c-0.6,0.2-1.6,0.3-1.3,1.3c0.4,1.3,1.1,0.3,1.7,0.2
		c1.1-0.2,2.1-0.8,3.1-1c0.6-0.1,1.5-1.3,1.9,0c0.2,1,0.7,2.3-1,2.9C19.8,89.5,16.7,90.6,13.2,91.8z"/>
	<path d="M141.4,35.2c-1.1,2.7-2.2,5.3-3.4,7.9c-0.7,1.5-1.1,3-1.1,4.7c0.1,2.7-2.6,1.7-4.2,3c0.9-4.3-2-6.9-3.5-9.9
		c-0.3-0.6-1.6-1.6,0-1.9c1.3-0.3,2.8-2.4,4.2-0.2c0.5,0.8,0.6,1.9,1.6,2.8C136,38.2,136.8,34.9,141.4,35.2z"/>
	<path d="M118.4,48.3c-1.4,0.4-2.8,0.8-4.2,1.3c-2.2,0.7-2.3,1.6-0.6,3.2c0.3,0.3,0.3,0.5,0.1,0.7c-0.7,1-1.7,1.6-3,1.5
		c-1.3-0.1-1.6-1.1-1.7-2.1c-0.1-1.2-0.1-2.5,0.6-3.6c0.7-1,1.9-2.2,2.8-1.7c2.2,1.3,3.9-0.2,5.8-0.6c0-1.9-0.9-3.1-2.9-3.3
		c-6.6-0.7-12.3,5.9-10.6,12.3c0.5,1.8,1.6,2.8,3.5,2.8c1.4,0,2.7-0.5,4.1-0.9c1.8-0.6,2.9-2.6,5.2-2.2c0.8,0.1,0.7-0.8,0.7-1.4
		C118.4,52.4,118.4,50.3,118.4,48.3z"/>
	<path fill="#FF8580" d="M130.7,104.9c-0.3-0.6-0.3-1,0.4-1.5c5.6-4.3,9.3-9.5,9.4-16.9c0-4.5-0.4-8.6-3.8-12
		c-0.6-0.6-0.9-1.6-0.8-2.6c5.7,5.5,7.2,14.7,3.7,22.4C137.6,98.6,134.7,102.2,130.7,104.9z"/>
	<path d="M178,127.3c-0.8-0.2-1.2,0.2-1.8,0.7c-1.7,1.8-3.5,3.6-5.2,5.3c-1.8,1.9-4.2,2.5-6.7,2.7c2.6-1.7,5.6-2.7,7.9-4.8
		c4-3.6,6.4-8.1,7.5-13.4c0.2-0.8,0.4-1.7,0.8-2.4C180.5,119.6,179.7,123.6,178,127.3z"/>
	<path fill="#FF8580" d="M152.4,113.1c0.4-0.8,0.2-1.7,0.2-2.5c0-13.2,0-26.4,0-39.5c0-0.8,0-1.5,0-2.6c0.7,0.9,0.5,1.6,0.5,2.2
		c0,13.5,0,27,0,40.5c0,1.8-0.2,3.7-1.1,5.3c0,0-0.1,0-0.2,0c-0.1,0-0.1-0.1-0.2-0.2C151.9,115.2,152.1,114.2,152.4,113.1z"/>
	<path d="M68.7,69.5c-0.8,0.2-1.6,0.4-2.5,0.7c-0.3,0.1-0.5,0.4-0.8,0.4c-0.6,0.1-1.3,1.1-1.7-0.1c-0.3-1,0.5-1.3,1.4-1.3
		c1.4-0.5,2.8-1,4.2-1.5c1.5-0.6,1-1.9,0.8-2.8c-0.2-1-1.2-0.2-1.7-0.1c-1,0.3-1.9,0.8-2.9,0.9c-0.5,0.1-1.3,1.1-1.7-0.2
		c-0.3-1,0.7-1.1,1.3-1.3c1.5-0.6,3.1-1.1,4.6-1.6c1.6-0.5,1.1-1.8,0.9-2.7c-0.3-1.3-1.2-0.4-1.8-0.2c-2.6,0.8-5.1,1.8-7.7,2.6
		c-0.7,0.3-1.4,0.4-1.4,1.5c0.1,3.6,0.1,7.2,0,10.7c0,1,0.3,1.2,1.3,0.8c2.8-1,5.7-2.1,8.6-3c1.7-0.5,1.3-1.9,1.1-2.9
		C70.3,68.4,69.3,69.4,68.7,69.5z"/>
	<g>
		<path fill="#FF8580" d="M179.1,42.3c-12.2,4.3-24.4,8.5-36.6,12.7c-0.9,0.3-1.3,0.7-1.2,1.7c0,4.5,0,9,0,13.6
			c0,1.1,0.4,1.3,1.4,0.9c2.1-0.8,4.2-1.5,6.4-2.3c3.2-1.1,3.2-1.1,3.2,2.3c0,13.9,0,27.9,0.1,41.8c0.2-0.1,0.3-0.2,0.4-0.4
			c-0.1,1.3-0.5,2.5-1.2,3.6c-1.9,3.7-4.9,5.3-9.1,5c-3.1-0.2-6-1.2-8.7-2.8c-1.5-2.1-3.8-3.2-6-4.3c-1.5-1-2.9-2-4.4-2.9
			c-1.3-0.9-1-1.4,0.2-2c2.5-1.1,5-2.4,7-4.3c2.2-2.5,4.8-4.5,6.6-7.4c3.9-5.9,4.6-12.1,2.5-18.8c-0.8-2.6-2.9-4.4-3.9-6.8
			c-0.9-1-1.9-1.9-2.8-2.8c-3.6-3.5-8.2-4.7-13-5c-4.5-0.3-8.6,1.4-12.7,2.8c-12.7,4.4-25.4,8.9-38.2,13.2c-1.8,0.6-2.4,1.4-2.3,3.3
			c0.2,2.7,0,5.5,0.1,8.2c0,1.6-0.5,3.9,0.3,4.7c1,1,2.9-0.7,4.4-1c0.1,0,0.2,0,0.2-0.1c1.4-0.7,1.7,0,1.6,1.3c-0.1,4.5,0,9,0,13.6
			c0,2,0,3.9,0,6.5c-1.3-1.2-2.1-1.9-2.9-2.6c-8.4-7.9-16.8-15.8-25.2-23.7c-0.7-0.7-1.3-1.6-2.8-1.1c-9.4,3.4-18.8,6.6-28.2,9.9
			c-0.8,0.3-1.3,0.7-1.3,1.6c0,4.8,0,9.7,0,14.8c2.6-1,5-1.8,7.4-2.7c1.3-0.5,1.9-0.6,1.9,1.2c-0.1,13.9-0.1,27.8,0,41.6
			c0,1.3-0.4,2-1.6,2.4c-2,0.6-4,1.3-6,2c-0.7,0.3-1.5,0.4-1.5,1.5c0,4.8,0,9.7,0,14.5c0,1,0.4,1.2,1.3,0.9
			c6.2-2.2,12.4-4.4,18.6-6.7c0.9-0.4,1.9-0.7,2.8-1.1c2-0.8,2.1-1.4,0.7-3c-1.1-1.2-2.2-2.4-3.5-3.4c-2.1-1.5-3.6-3.4-5.2-5.3
			c-0.8-1-1.1-2.3-0.5-3.3c1.3-2.2,3.2-4.2,5.6-4.6c2.8-0.4,5.6-1,8.5-1.2c5.9-0.3,6.7-1.3,6.7-7.1c0-0.7,0-1.4,0-2.1
			c0.1-2.6-0.2-5.3,0.2-7.9c0.2-0.7,0.2-1.4,0.2-2c2.2,1.2,3.3,3.4,5.2,4.8c0.9,0.3,1.4,0.9,2.1,1.5c0.3,0.2,0.6,0.2,0.9-0.1
			c0.7-0.8,0.7-2.7,2.7-1.4c2.1,1.4,2.8,1.4,4.5-0.6c3-3.6,6.3-6.7,9.8-9.7c9.9-8.3,21.2-10.8,33.7-7.9c4.5,1.1,8.3,3.5,12,6.2
			c6.8,4.8,13.3,10,20.8,13.8c2,1,4.1,1.9,6.3,2.4c6,1.1,11.8,0.3,17.5-1.6c3.1-1.5,6.2-2.9,8.8-5.3c4.7-4.3,6.8-9.7,7.4-15.8
			c0-1.4-0.1-2.8-0.1-4.2c0-22.5,0.1-45,0.1-67.5C180.6,42.7,180.8,41.8,179.1,42.3z M109.7,97.7c-3.2,1.1-6.3,2.2-9.4,3.4
			c-1.3,0.5-1.6,0.1-1.6-1.1c0-2,0-4,0-6.5c0.2-2-1-5,0.5-6.7c1.4-1.6,4.3-1.9,6.6-2.7c6.4-2.3,9.1-0.4,9.1,6.5
			C114.9,94.8,113.8,96.3,109.7,97.7z M152.8,110.8c0-9.9,0-19.8,0-29.6c0-3.2,0-6.5,0-9.4c0,0.2,0,0.4,0,0.5c0,12.9,0,25.8,0,38.7
			c0,0.1,0,0.2,0,0.2C152.8,111.1,152.8,110.9,152.8,110.8z"/>
		<path fill="#E10A19" d="M135.9,71.9C135.9,71.9,135.9,71.9,135.9,71.9C135.9,71.9,135.9,71.9,135.9,71.9L135.9,71.9z"/>
	</g>
	<path d="M175.8,128c-3.2,3.6-6.6,7-11.6,8.1c-2.4,0.5-4.8,1.1-7.3,1.6c-5.5,1-10.8,0.3-15.9-2.2c-8.5-4.2-15.9-10.2-23.6-15.7
		c-11.3-7.9-27.2-7.2-38.4-0.5c-6.1,3.6-11,8.7-15.5,14c-1.3,1.6-2.4,1.8-3.6,0c-0.9-1.4-1.7-1-2.4,0.2c-0.4,0.6-0.6,1.2-0.9,1.9
		c-0.7,1.1-0.2,2.4-0.4,3.6c-2.5-0.1-3,0.3-3.2,2.7c-0.1,1.6-0.9,2.6-2.3,3.2c-0.8,0.3-1.5,0.8-2.2,1.3c-0.3,0.3-0.6,0.6-0.9,0.7
		c-2.4,0.9-5,1-7.5,1.5c-3.5,0.7-7.3,0-10.4,2.9c-3.1,3-3.2,5-0.2,7.9c1.1,1,2.8,0.9,4.1,1.3c1,0.3,1.5-1.2,2-2
		c1.1-1.9,2.6-2.9,4.8-3.2c2.6-0.3,5.3-0.2,7.8-1.2c1.6-0.1,3.3-0.2,4.9-0.3c0.5,0,1.6-0.2,1.2,0.8c-1,2.4,1.2,3.1,2.2,4.3
		c1.1,1.2,2-0.1,3-0.6c0.4-0.2,1-0.1,0.4-0.8c-0.8-0.9-0.4-1.7,0.6-2c1.5-0.4,2.8-0.1,3.6,1.3c0.6,1,0.5,1.9-0.4,2.7
		c-0.3,0.3-1.4-0.3-0.9,0.7c0.3,0.6,0.8,1.3,1.6,0.8c1.6-0.9,3.4-1.5,4.8-2.8c0.9-0.8,1.6-1.5,0.4-2.9c-1.1-1.2-0.7-2.7,0.7-3.6
		c1.3-0.9,2.8-0.8,3.8,0.5c1.1,1.4,0.6,2.8-0.4,4.1c-3.8,5-8.3,9.3-13.7,12.6c-2.3,1.4-4.7,2.7-7.4,2.8c-2.8,0.1-4.8,1.4-6.7,3.2
		c-1.8,1.7-1.4,6.8,0.8,6.7c2,0,2.2,1.6,3.5,1.8c1.4-3.6,2.5,0.9,4,0c0.3-0.6,0.1-1.6,1-2.3c2.9-2.4,5.5-5,8.8-6.8
		c8.2-4.3,15.7-9.5,22.9-15.2c1.6-1.3,2.2-2.2,0.4-4.1c-3.5-3.6-3.5-6.6-0.8-9.9c5.5-6.8,15.4-8.3,22.5-3.4
		c12.6,8.8,26.3,11.5,41.3,8.6c13.4-2.5,22.9-9.6,27.5-22.7C177.2,126.8,176.8,126.9,175.8,128z M59.8,146.4
		c-0.6,1.1-1.2,2.3-1.8,3.5c-0.6-1.5,0-2.9,0.2-4.2c0.1-0.7,0.6-0.8,1.2-0.5C60.1,145.5,60.1,145.8,59.8,146.4z"/>
	<path d="M93.9,55.5c1-2.5-0.8-4-3.4-3.2c-1,0.3-1.9,0.6-2.9,1c-6,2-6,2-6,8.3c0,1.7,0.1,3.4,0,5.1c-0.1,1.4,0.4,1.4,1.7,1.1
		c2.1-0.5,2.7-1.6,2.5-3.6c-0.2-2.1,1.7-1.9,2.9-2.2c1.2-0.3,0.8,1,1,1.6c0.3,0.6-0.5,2.2,1.1,1.5c1.1-0.5,3.3,0.2,3.1-2.3
		C93.8,60.4,92.9,58.1,93.9,55.5z M89.2,58.3c-0.2,0.1-0.4,0.2-0.6,0.3c-0.9,0.3-1.7,0.6-2.7,0.9c0-2.1,1.7-3.7,3.2-3.4
		c0.4,0.1,0.7,0.3,0.7,0.8C89.9,57.5,89.6,58,89.2,58.3z"/>
</g>
</svg>
