<svg xmlns="http://www.w3.org/2000/svg" viewBox="0 0 192 192"><title>O'KEY</title><rect x="19.5" y="19.5" width="153" height="153" rx="10" fill="#ff837d"/><path d="M78.78,110.13h4.11l-4.73,6H76.45Zm42.61,13.78,7.86-9.38h5.52l-3.28,17.73h-5.64l1.63-9.26-7.83,9.26h-5.52l3.28-17.73h5.64Zm5-13.78h4.11l-4.73,6H124Zm-25.91,4.38h14l-.75,4.07h-8.08l-.46,2.54h7.72l-.74,4.08h-7.72l-.51,2.74H112l-.79,4.32h-14v0l.79-4.3.5-2.74.74-4.08.46-2.54Zm-19,0h5.94l-1.23,6.8,6.43-6.8H99l-7.27,7.7,4.65,10.06H89.19l-3.46-8.36-1.52,8.36H78.27Zm-13.62,3.8a3.56,3.56,0,0,0-3.06,1.46A7.69,7.69,0,0,0,63.36,123a7,7,0,0,0,0,3.43,2.48,2.48,0,0,0,2.47,1.83,3.56,3.56,0,0,0,2.9-1.28,7.65,7.65,0,0,0,1.72-3.63,5.85,5.85,0,0,0-.11-3.39,2.56,2.56,0,0,0-2.45-1.68Zm1-4.33c3,.15,5.2,1.22,6.52,3.19a8.19,8.19,0,0,1,1,6.49,11,11,0,0,1-4.19,6.82,10.86,10.86,0,0,1-7.24,2.13c-5.65-.27-8.63-4.19-7.41-9.93a10.65,10.65,0,0,1,4-6.53A10.84,10.84,0,0,1,68.85,114Z" fill="#fff"/><path d="M96.33,105.66c-1.19.12-2.35.23-3.54.28,0,0-14.86-6.48-14.68-20.41.14-10.81,5.17-14,5.17-14a21.94,21.94,0,0,1,6.66,4.58,23.09,23.09,0,0,1,3.74,5.73,26,26,0,0,1,8.58-13.7,32.16,32.16,0,0,1,22-8.79,36.15,36.15,0,0,1,2.5,13c.19,17.63-10.49,30.36-27,32.78-1.12.17-2.7.35-3.78.48" fill="#98dc9a" stroke="#fff" stroke-miterlimit="10" stroke-width="3"/></svg>