<svg xmlns="http://www.w3.org/2000/svg" id="svg16" version="1.1" viewBox="0 0 192 192"><defs id="defs4"><style id="style2">.a{fill:none;stroke:#b1b5bd;stroke-linecap:round;stroke-linejoin:round;isolation:isolate;opacity:.63}</style></defs><path id="path940" d="m96 184 7.122-13.137s24.955-5.31 30.59-10.393c13.4-12.088 14.903-36.669 14.903-36.669L160 108s-12.891-14.426-13.15-14.2c-2.74-12.624-11.177-28.433-11.177-28.433s15.889-23.133-1.569-57.27c3.812 32.626-9.02 46.093-9.02 46.093s-6.274-4.977-17.06-7.452L96.26 28.11 84.1 47.915s-6.756 1.137-12.353 3.137c-1.656.592-3.53 3.922-3.53 3.922S53.797 40.067 58.414 8.213c-16.56 29.367-2.55 56.565-2.55 56.565s-7.473 15.244-11.961 31.179L32 108l13.08 15.801s.22 10.634.98 15.884c.89 6.142 9.972 18.456 16.668 22.55 9.797 5.99 26.08 8.628 26.08 8.628z" style="fill:#56595b;stroke:none;stroke-width:2.72690463px;stroke-linecap:butt;stroke-linejoin:miter;stroke-opacity:1"/><path id="path933" d="M85.453 61.747c-4.123 0-11.004 3.088-11.004 4.938 0 2.101 9.525.141 12.17-2.504l2.44-2.434zm23.514 0c-2.854 0-1.798 2.29 2.168 4.708 3.851 2.349 9.096 3.145 9.096 1.38 0-1.201-9.042-6.088-11.264-6.088zm-7.787 2.418c-.596 0-.905.367-.905 1.103 0 .645 1.189 1.165 2.642 1.156 2.136-.014 2.302-.236.878-1.156-1.138-.736-2.019-1.103-2.615-1.103zM90.816 65.31c-1.007-.021-2.858.735-4.112 1.683-2.918 2.208-.837 2.234 3.004.038 1.881-1.076 2.28-1.694 1.108-1.72zm14.95 2.445c-.733-.09-1.77.299-3.222 1.076-1.602.857-2.27.837-2.27-.07 0-.706-.566-.937-1.256-.51-.69.426-.972 1.498-.634 2.38.339.883.095 1.926-.538 2.317-1.259.778-.986 4.957.474 7.286.52.83.378 1.47-.325 1.47-2.058 0-1.4 4.538 1.007 6.945 1.238 1.237 1.914 2.587 1.502 2.998-.412.412.03 1.243.98 1.843 2.205 1.395 7.353 1.462 6.503.085-.354-.572.407-1.316 1.688-1.65 1.281-.336 2.686-1.584 3.127-2.776.44-1.19 1.368-2.583 2.06-3.094.8-.59.618-.843-.5-.692-.968.13-3.247-.375-5.065-1.124-1.818-.75-4.463-1.364-5.88-1.364-1.417 0-3.284-1.129-4.149-2.514-1.423-2.278-1.367-2.433.597-1.63 3.051 1.25 13.64 4.117 15.264 4.134 1.344.013 6.28-7.376 6.28-9.4 0-.583-1.535-.946-3.41-.81-1.873.135-3.163.64-2.865 1.124 1.06 1.722-.91.844-3.462-1.545l-2.593-2.429-.725 3.894c-.702 3.766-.734 3.734-.884-1.092-.1-3.226-.482-4.704-1.704-4.852zm-29.56 1.033c-1.613 0-2.934.532-2.934 1.177 0 .646 1.32 1.172 2.935 1.172 1.614 0 2.934-.526 2.934-1.172 0-.645-1.32-1.177-2.934-1.177zm16.144.022c-1.756.016-1.798.183-.293 1.156 2.215 1.432 2.349 1.432 2.349 0 0-.646-.926-1.166-2.056-1.156zm-4.772.645a7.353 7.353 0 0 0-1.832.085c-6.002 1.03-11.442 4.252-10.6 6.279.408.977 1.007 2.7 1.332 3.83.449 1.56 1.85 2.055 5.816 2.055 2.873 0 6.233-.543 7.467-1.204 1.234-.66 2.826-2.294 3.542-3.632 1.747-3.265-1.548-7.081-5.725-7.414zm-18.865 1.683c-2.776 0-10.29 23.81-9.06 28.712.915 3.643 2.357 3.045 5.007-2.077 4.128-7.98 6.968-26.635 4.053-26.635zm56.488 2.647c-.177.137-.225.841-.24 2.183-.057 4.915 2.127 14.96 4.197 19.323 1.897 3.998 4.01 5.362 3.962 2.556-.038-2.29-5.544-20.525-6.902-22.859-.532-.914-.841-1.341-1.018-1.203zm-52.935.394c-.554-.342-1.384 3.188-1.843 7.85l-1.145 11.616c-.172 1.726-1.194 4.484-2.27 6.125-2.772 4.233-2.443 5.411 1.503 5.411 2.24 0 4.098-.918 5.283-2.61 1.005-1.434 1.827-4.075 1.827-5.869 0-1.793.531-3.26 1.177-3.26s1.172-1.583 1.172-3.52-.526-3.52-1.172-3.52c-.646 0-1.177-1.026-1.177-2.28 0-1.253-.526-2.605-1.172-3.004-.646-.399-1.177-1.987-1.177-3.525 0-1.538-.453-3.072-1.006-3.414zm51.086 2.077c-.265-.006-.64.554-1.193 1.31-1.083 1.482-1.313 3.425-.713 6.082.504 2.237.435 3.63-.166 3.26-.576-.357-1.049-1.408-1.049-2.338 0-2.888-1.99-1.865-3.51 1.805-.797 1.925-1.119 4.824-.713 6.44 1.135 4.523 7.563 11.195 10.785 11.195h2.79l-2.535-4.868c-1.482-2.845-2.619-7.357-2.737-10.86-.314-9.289-.376-12.015-.959-12.026zM94.81 79.547c-.661-.076-1.876.698-4.09 2.274-1.904 1.357-5.367 2.518-7.69 2.584-2.324.066-3.614.322-2.871.57.742.247 1.03.961.644 1.587-.887 1.436 4.326 9.208 6.184 9.219.76.005 2.212-.818 3.227-1.832 2.332-2.332 2.34-2.97.027-2.083-1 .384-.21-.913 1.758-2.881 2.138-2.138 3.579-4.797 3.579-6.604 0-1.832-.105-2.758-.767-2.834zm2.53 11.69-.112 5.215c-.061 2.866.333 5.209.88 5.209.545 0 .995-.848.995-1.886 0-1.194.643-1.637 1.758-1.209 2.675 1.027 2.122-2.027-.879-4.846zm-17.725.171c-1.026 1.027-3.777 13.179-3.195 14.12.328.53 1.713.8 3.078.601 1.836-.266 2.73-1.55 3.43-4.937.713-3.45.484-5.287-.927-7.44-1.03-1.573-2.103-2.627-2.386-2.344zm15.488.128c-1.315-.005-6.468 5.373-6.53 6.982-.081 2.141 4.102-.01 5.758-2.96.974-1.735 1.42-3.508.985-3.942a.296.296 0 0 0-.213-.08zm17.677 1.438c-.659.112-1.458.46-2.38 1.065-3.286 2.153-4.006 6.044-1.865 10.045 1.472 2.75 8.176 3.227 8.176.58 0-.93-.584-2.047-1.294-2.487-.711-.439-1.006-2.213-.66-3.94.75-3.756.001-5.597-1.977-5.263zm-17.922 6.738c-.14.027-.291.086-.452.186-.646.4-1.177 1.256-1.177 1.901 0 .646.531.847 1.177.448.645-.4 1.171-1.25 1.171-1.896 0-.485-.298-.72-.719-.64zm22.886.745a.384.384 0 0 0-.335.117c-.91.91.593 5.784 1.784 5.784.57 0 1.032-.662 1.022-1.47-.021-1.718-1.575-4.317-2.47-4.43zm-30.635.277c-.824-.084-1.667.217-2.194 1.05-.57.9-1.05 2.338-1.06 3.19-.027 2.33 5.172 1.164 5.635-1.263.31-1.626-1.007-2.837-2.381-2.977zm16.037.432c-1.24-.054-2.056 1.31-1.108 2.844.898 1.453 2.579 1.518 3.435.133.354-.573-.092-1.658-.996-2.408-.457-.38-.918-.552-1.331-.57zm1.454 5.48c-.234.102-.65.592-1.305 1.4-2.05 2.533-2.501 7.702-.671 7.702.645 0 1.171-.463 1.171-1.028s.302-2.811.671-4.99c.398-2.344.523-3.255.133-3.084zm22.14.91c-1.263.159-3.282 1.334-5.731 3.484-4.455 3.911-6.02 9.683-4.761 17.549.787 4.928 3.65 7.283 4.697 3.867.343-1.12 1.61-4.144 2.817-6.727l2.195-4.698.08 4.107c.106 5.514 2.383 13.448 3.494 12.175.49-.562 1.572-3.998 2.407-7.637 1.515-6.603.938-14.404-1.161-15.701-.607-.375-1.91 1.062-2.897 3.19l-1.8 3.866.553-4.106c.303-2.26.898-5.3 1.321-6.753.558-1.914.048-2.773-1.214-2.615zm-39.817.299c-.197.016-.345.068-.426.15-.208.207.21 1.9.92 3.765 1.248 3.266 1.356 3.307 2.968 1.113.92-1.254 1.672-2.642 1.672-3.09 0-.749-3.76-2.058-5.134-1.938zm-6.674.26c-3.526 0-4.078.427-4.644 3.527-.606 3.317-.727 3.383-2.04 1.171-.999-1.681-1.41-1.847-1.449-.585-.047 1.565-.181 1.565-1.193 0-.886-1.373-1.141-1.052-1.155 1.464-.011 1.776-.61 3.233-1.337 3.233-1.432 0-.878 9.35.793 13.395.656 1.585.522 2-.447 1.4-.934-.577-1.374.3-1.374 2.744 0 1.975.531 3.59 1.177 3.59s1.172-1.09 1.172-2.419c0-1.356.532-2.09 1.209-1.672.663.41 2.264-.48 3.563-1.981 1.978-2.29 2.264-3.875 1.768-9.779-.57-6.77-.523-6.916 1.166-3.813.967 1.775 2.536 3.227 3.484 3.227.947 0 2.12.025 2.604.059 1.408.096 2.464-7.007 1.55-10.428-.7-2.615-1.499-3.132-4.847-3.132zm32.585.097a5.82 5.82 0 0 0-3.622 1.417c-1.693 1.48-2.03 1.546-1.284.25.875-1.518.744-1.539-.969-.15-1.092.887-1.98 2.733-1.97 4.107.013 2.052.224 2.187 1.176.74.955-1.45 1.126-1.347.97.586-.491 6.082.219 8.804 2.295 8.804 1.162 0 2.746-.631 3.52-1.406.776-.775 1.412-2.858 1.412-4.628s.526-3.548 1.172-3.947c.646-.399 1.177-1.687 1.177-2.865 0-1.902-1.82-2.974-3.877-2.908zm-46.837.373c-.745.206-.954 2.109-.266 4.468l.953 3.281.447-3.334c.246-1.835.148-3.64-.223-4.01-.354-.355-.663-.474-.911-.405zm-3.872 4.34c-.455-.114-.882.696-1.7 2.669-1.376 3.323-1.317 6.163.384 17.762l.602 4.111-1.32-4.404c-.727-2.421-1.724-4.4-2.216-4.4-.493 0-.086 2.368.9 5.263 1.553 4.558 2.016 5.04 3.467 3.59.921-.922 2.163-4.247 2.759-7.388 1.071-5.65.298-12.056-1.939-16.052-.382-.682-.664-1.082-.937-1.15zm30.518.474c-2.51 0-3.132 3.704-1.018 6.04 2.53 2.796 3.952 2.768 3.952-.074 0-3.42-1.252-5.966-2.934-5.966zm5.63 1.731c-.904.17-1.519 1.526-1.519 3.803 0 2.971.059 2.995 2.344.927 1.778-1.61 2.027-2.5 1.038-3.691-.675-.814-1.322-1.14-1.864-1.039zm-9.14 6.493c-1.636.01-3.61 1.086-4.841 2.966-2.291 3.497-2.216 3.594 5.075 6.967 6.2 2.867 7.228 2.145 5.534-3.867-.486-1.725-.782-3.569-.66-4.101.121-.532-.283-.658-.9-.277-.618.381-1.454.156-1.86-.5-.506-.82-1.367-1.195-2.348-1.188zm-8.085 1.171c-1.048 0-1.907.79-1.907 1.758s.204 1.763.448 1.763c.244 0 1.097-.795 1.901-1.763 1.197-1.442 1.118-1.758-.442-1.758zm21.831.155c-.892.08-1.79.855-3.265 2.55-3.368 3.875-3.766 7.8-.81 7.995 1.958.13 1.958.16 0 .671-1.129.296-2.05 1.026-2.05 1.625 0 2.122 2.362 1.033 6.525-3.01 4.446-4.318 4.846-7.125 1.326-9.277-.657-.402-1.19-.602-1.726-.554zm8.884 3.366c-.646 0-.858.82-.474 1.821.385 1.002.21 1.523-.383 1.156-.594-.367-1.411-.129-1.817.527-.82 1.329.628 1.547 3.34.506 1.883-.722 1.337-4.01-.666-4.01zm12.005 1.965c-.674-.126-1.188 1.231-1.188 4.138 0 2.089.865 4.252 2.05 5.119 1.13.825 2.153 1.405 2.27 1.288.116-.116-.327-2.72-.98-5.784-.646-3.027-1.478-4.635-2.152-4.761zm-42.044 2.908c-1.755-.002-3.46 1.114-5.336 3.345-1.63 1.937-3.46 3.52-4.07 3.52-.608 0-1.71.73-2.45 1.62-1.06 1.278-.78 1.767 1.327 2.332 1.466.393 3.938.72 5.491.73 2.75.016 2.767-.047.698-2.333-1.169-1.291-1.545-2.349-.836-2.349.708 0 3.812 2.925 6.897 6.498l5.608 6.498 2.061-2.685c1.135-1.474 2.079-3.11 2.093-3.637.014-.527-.533-2.11-1.214-3.52-1.125-2.329-1.088-2.377.42-.512 2.693 3.329 3.384 2.353 1.247-1.763-1.1-2.119-2.204-3.156-2.482-2.333-.323.956-1.67.232-3.803-2.05-2.088-2.236-3.895-3.359-5.65-3.361zm29.245 1.608c-3.06-.109-3.975 1.79-2.934 5.939.433 1.726.199 2.839-.591 2.839-.716 0-1.353-1.452-1.417-3.228l-.117-3.227-.826 2.934c-.772 2.748-.905 2.792-2.077.714-1.45-2.57-3.904-1.578-3.904 1.576 0 2.202 6.64 5.75 10.993 5.87 1.204.033 3.984-1.903 6.178-4.298 3.79-4.138 3.884-4.448 1.917-6.306-1.138-1.076-3.738-2.267-5.778-2.642a9.996 9.996 0 0 0-1.444-.17zm11.35 6.631c-1.078.13-2.315.702-3.105 1.492-1.77 1.77-1.604 1.8 2.194.447 3.046-1.085 3.539-1.577 1.912-1.912a3.163 3.163 0 0 0-1-.027zm3.057 3.43c-.447-.047-1.204.118-2.375.41-5.868 1.463-10.643 4.22-14.311 8.25-1.959 2.153-3.313 4.16-3.01 4.463.305.304 3.466-.52 7.026-1.832 4.588-1.69 6.025-2.692 4.942-3.446-1.045-.727-.765-.852.884-.394 2.938.816 5.871-1.312 6.993-5.075.486-1.629.597-2.297-.149-2.376zm-56.429.346c-1.345-.08-2.376.172-2.806.869-.58.937.219 2.046 2.237 3.11 4.486 2.367 13.628 5.952 14.087 5.523.214-.2-.194-1.461-.911-2.801-1.73-3.232-8.57-6.461-12.607-6.7zm35.434 4.24c-2.85 0-3.748 1.147-2.151 2.743.952.953.933.951 3.232.069 2.858-1.097 2.198-2.812-1.08-2.812z" style="fill:#fff;stroke-width:1.17395568"/></svg>