<svg xmlns="http://www.w3.org/2000/svg" viewBox="0 0 176 127"><title>ÖBB Scotty</title><rect width="176" height="127" rx="10" fill="#ff837d"/><path d="M118.84,112.67h15.4c2.15,0,6-.3,8.23-2.26a8.87,8.87,0,0,0,3.53-7,10.27,10.27,0,0,0-4.12-8.33,8.82,8.82,0,0,0,3.24-6.77c0-1.37-.69-8.62-12.36-8.62H118.84Zm7-27.36h8.34c2.45,0,4.31.89,4.31,3.73,0,2.65-1.76,3.72-4.7,3.72h-8Zm0,13.14h9.51c1.28,0,4,.2,4,3.92,0,4.51-3.13,4.61-5.29,4.61H125.8Z" transform="translate(-8 -32.5)" fill="#fff"/><path d="M86.39,112.67h15.39c2.16,0,6-.3,8.24-2.26a8.87,8.87,0,0,0,3.53-7,10.27,10.27,0,0,0-4.12-8.33,8.82,8.82,0,0,0,3.24-6.77c0-1.37-.69-8.62-12.36-8.62H86.39Zm7.06-27.36h8.33c2.46,0,4.32.89,4.32,3.73,0,2.65-1.77,3.72-4.71,3.72H93.45Zm0,13.14H103c1.28,0,4,.2,4,3.92,0,4.51-3.14,4.61-5.29,4.61H93.45Z" transform="translate(-8 -32.5)" fill="#fff"/><polygon points="62.9 47.13 62.9 47.13 50.84 60.36 58.98 60.36 71.04 47.13 62.9 47.13" fill="#fff"/><path d="M76.78,84.73l-4.7,5.09a10.51,10.51,0,0,1,2,6.08,10.13,10.13,0,0,1-3.14,7.45,10.71,10.71,0,0,1-7.45,3.14A10.15,10.15,0,0,1,56,103.35a10.71,10.71,0,0,1-3.14-7.45A10.55,10.55,0,0,1,63.25,85.41l5.5-6a15.8,15.8,0,0,0-5.3-.88,17.47,17.47,0,0,0-12.35,29.8,17.16,17.16,0,0,0,12.35,5.1,17.74,17.74,0,0,0,12.35-5.1,17.49,17.49,0,0,0,1-23.62" transform="translate(-8 -32.5)" fill="#fff"/></svg>