<?xml version="1.0" encoding="UTF-8"?>
<svg version="1.1" viewBox="0 0 192 192" xml:space="preserve" xmlns="http://www.w3.org/2000/svg">
	 <circle class="a" cx="96" cy="96" r="88" fill="#728dbe"/><path id="path" d="m95.796 184c-48.426-0.0192-87.815-39.594-87.796-88.204 0.019134-48.528 39.625-87.847 88.434-87.796 48.336 0.051016 87.617 39.715 87.566 88.427-0.04467 48.247-39.683 87.592-88.204 87.573zm-30.755-99.274c0.29333 0.24232 0.58028 0.47826 0.87363 0.72058 0.49738-0.82899 0.86724-1.7791 1.5177-2.4614 11.784-12.39 30.768-16.05 46.226-8.6852 15.228 7.2568 22.427 20.132 23.805 36.335 1.709 20.132-9.8012 38.854-28.224 47.22-7.7223 3.5073-15.802 5.4649-24.232 6.262-10.79 1.0267-21.305 0.14028-31.463-3.8452-0.68232-0.26783-1.3646-0.52928-2.047-0.79711 17.045 12.161 36.023 16.911 56.537 13.5 26.681-4.4319 46.296-19.105 58.233-43.394 6.6765-13.583 9.7756-28.064 6.3832-43.177-4.6168-20.578-16.427-35.704-35.761-44.421-14.947-6.7339-30.271-5.7136-45.39-0.52928-11.485 3.9345-20.132 11.312-24.621 22.893-2.5635 6.6064-3.2968 13.423-1.8365 20.38zm75.808-52.526c-17.39-11.835-36.361-16.592-56.868-13.181-26.757 4.451-46.41 19.162-58.329 43.566-6.6 13.525-9.6672 27.924-6.313 42.954 4.6168 20.674 16.49 35.85 35.914 44.536 14.934 6.6829 30.296 5.7583 45.365 0.38898 15.196-5.4139 24.729-15.974 26.763-32.381 0.44-3.5774 6e-3 -7.2568-0.0319-10.892-0.36987-0.14029-0.73334-0.27421-1.1032-0.41449-0.5229 0.72695-0.97565 1.5304-1.5878 2.1809-15.7 16.656-44.089 16.51-58.813-0.29333-17.37-19.819-14.756-51.065 5.8922-67.479 15.878-12.626 34.39-15.228 53.871-12.83 5.0951 0.61217 10.031 2.4933 15.241 3.8452zm-45.607 79.162c11.631-0.0956 20.278-5.2736 26.47-14.743 0.39536-0.60579 0.40174-1.9959-0.0255-2.5125-2.1107-2.5571-4.1322-5.3246-6.7275-7.3206-14.31-11.013-35.047-6.9507-44.765 8.5322-0.70782 1.1287-0.52289 1.8557 0.15304 2.8185 6.0899 8.7235 14.443 13.085 24.895 13.226z" fill="#9abeff" stroke-width="6.3768"/></svg>
