<svg xmlns="http://www.w3.org/2000/svg" xml:space="preserve" viewBox="0 0 192 192"><circle cx="96" cy="96" r="88" fill="#728dbe" class="a"/><path fill="#9abeff" d="M95.796 184C47.37 183.98 7.981 144.406 8 95.796 8.02 47.268 47.625 7.949 96.434 8c48.336.051 87.617 39.715 87.566 88.427-.045 48.247-39.683 87.592-88.204 87.573zM65.041 84.726l.874.72c.497-.828.867-1.779 1.517-2.46 11.784-12.39 30.768-16.05 46.226-8.686 15.228 7.257 22.427 20.132 23.805 36.335 1.71 20.132-9.8 38.854-28.224 47.22-7.722 3.507-15.802 5.465-24.232 6.262-10.79 1.027-21.305.14-31.463-3.845-.682-.268-1.364-.53-2.047-.797 17.045 12.16 36.023 16.91 56.537 13.5 26.681-4.432 46.296-19.105 58.233-43.394 6.677-13.583 9.776-28.064 6.384-43.177-4.617-20.578-16.427-35.704-35.761-44.421-14.947-6.734-30.271-5.714-45.39-.53-11.485 3.935-20.132 11.312-24.621 22.893-2.564 6.607-3.297 13.423-1.837 20.38zM140.849 32.2c-17.39-11.835-36.361-16.592-56.868-13.181-26.757 4.451-46.41 19.162-58.329 43.566-6.6 13.525-9.667 27.924-6.313 42.954 4.617 20.674 16.49 35.85 35.914 44.536 14.934 6.683 30.296 5.758 45.365.389 15.196-5.414 24.729-15.974 26.763-32.381.44-3.577.006-7.257-.032-10.892-.37-.14-.733-.274-1.103-.415-.523.727-.976 1.53-1.588 2.181-15.7 16.656-44.089 16.51-58.813-.293C48.475 88.845 51.09 57.6 71.737 41.185c15.878-12.626 34.39-15.228 53.871-12.83 5.095.612 10.031 2.493 15.241 3.845zm-45.607 79.162c11.631-.096 20.278-5.274 26.47-14.743.395-.606.402-1.996-.025-2.513-2.111-2.557-4.133-5.324-6.728-7.32-14.31-11.013-35.047-6.95-44.765 8.532-.708 1.129-.523 1.856.153 2.819 6.09 8.723 14.443 13.085 24.895 13.226z"/></svg>