<?xml version="1.0" encoding="utf-8"?>
<!-- Generator: Adobe Illustrator 24.1.1, SVG Export Plug-In . SVG Version: 6.00 Build 0)  -->
<svg version="1.1" id="Layer_1" xmlns="http://www.w3.org/2000/svg" xmlns:xlink="http://www.w3.org/1999/xlink" x="0px" y="0px"
	 viewBox="0 0 192 192" style="enable-background:new 0 0 192 192;" xml:space="preserve">
<style type="text/css">
	.st0{fill:#FF837D;}
	.st1{fill:#FFFFFF;}
</style>
<path class="st0" d="M29.5,19.5h133c5.5,0,10,4.5,10,10v133c0,5.5-4.5,10-10,10h-133c-5.5,0-10-4.5-10-10v-133
	C19.5,24,24,19.5,29.5,19.5z"/>
<path class="st1" d="M63.2,136.5c20.5,0,40.8,0,61.2,0c0-0.6,0.1-1,0.1-1.4c0-5,0-10,0-14.9c0-5.7,0-11.5,0-17.2
	c0-1.2-0.3-1.6-1.5-1.5c-1.2,0.1-2.5,0.1-3.7,0c-1.4-0.1-1.7,0.5-1.7,1.8c0.1,8.2,0,16.4,0,24.7c0,0.6,0,1.2-0.1,1.8
	c-15.9,0-31.6,0-47.4,0c0-15.9,0-31.6,0-47.6c9.4,0,18.6,0,28.1,0c0-1.9-0.1-3.6,0-5.3c0.1-1.3-0.4-1.7-1.7-1.7
	c-10.6,0.1-21.1,0-31.7,0c-0.5,0-1.1,0.1-1.7,0.1C63.2,95.7,63.2,116,63.2,136.5z M135.7,75.1c-3.8,0-7.5,0-11.3,0
	c0-3.8,0-7.5,0-11.3c-1.7,0-3.3,0-4.8,0c-2.1,0-2.1,0-2.1,2.1c0,3,0,6,0,9.2c-0.7,0-1.3,0-1.8,0c-2.7,0-5.4,0.1-8.1,0
	c-1.2,0-1.6,0.4-1.5,1.5c0.1,1.2,0.1,2.4,0,3.6c-0.1,1.4,0.3,1.9,1.8,1.9c2.6-0.1,5.3,0,7.9,0c0.5,0,1,0.1,1.7,0.1
	c0,0.7,0,1.3,0,1.8c0,2.7,0,5.5,0,8.2c0,0.4,0.4,1.2,0.7,1.2c2,0.1,4,0.1,6.2,0.1c0-3.9,0-7.5,0-11.3c3.8,0,7.5,0,11.2,0
	C135.7,79.7,135.7,77.5,135.7,75.1z M95.8,51c4.1,0,8-0.7,11.8-2.2c6.5-2.5,11.8-6.6,15.6-12.4c0.9-1.4,0.8-2.7-0.3-3.4
	c-1.2-0.8-2.6-0.5-3.5,0.7c-0.2,0.3-0.5,0.6-0.7,1c-3.2,4.2-7.2,7.4-12.1,9.4c-12.3,4.9-25.9,0.9-33.7-9.9c-1.2-1.7-2.6-2.1-3.9-1.2
	c-1.2,0.9-1.2,2.2,0,3.9C75.6,46,84.6,50.5,95.8,51z M98.1,120.7c0-10.1,0-20,0-30c-2,0-3.9,0-6,0c-0.1,4.7-3.1,6-7.1,5.9
	c0,1.7,0,3.2,0,5c2.1,0,4.1,0,6.3,0c0,0.8,0,1.4,0,2c0,5.3,0,10.6,0,15.8c0,0.6-0.1,1.4,0.9,1.3C94,120.7,96,120.7,98.1,120.7z"/>
</svg>
