<?xml version="1.0" encoding="utf-8"?>
<!-- Generator: Adobe Illustrator 26.0.1, SVG Export Plug-In . SVG Version: 6.00 Build 0)  -->
<svg version="1.1"
	 id="svg14" xmlns:cc="http://creativecommons.org/ns#" xmlns:dc="http://purl.org/dc/elements/1.1/" xmlns:inkscape="http://www.inkscape.org/namespaces/inkscape" xmlns:rdf="http://www.w3.org/1999/02/22-rdf-syntax-ns#" xmlns:sodipodi="http://sodipodi.sourceforge.net/DTD/sodipodi-0.dtd" xmlns:svg="http://www.w3.org/2000/svg"
	 xmlns="http://www.w3.org/2000/svg" xmlns:xlink="http://www.w3.org/1999/xlink" x="0px" y="0px" viewBox="0 0 192 192"
	 style="enable-background:new 0 0 192 192;" xml:space="preserve">
<style type="text/css">
	.st0{fill:none;stroke:#FFFFFF;stroke-width:3;enable-background:new    ;}
	.st1{fill:#728DBE;}
	.st2{fill:#B02A3C;}
	.st3{fill:#A0BBE2;}
	.st4{fill:#71A372;}
	.st5{fill:#9BD198;}
	.st6{fill:#F7C18C;}
	.st7{fill:#E85E5C;}
</style>
<sodipodi:namedview  bordercolor="#666666" borderopacity="1" gridtolerance="10" guidetolerance="10" id="namedview16" inkscape:current-layer="svg14" inkscape:cx="74.197715" inkscape:cy="86.989867" inkscape:document-rotation="0" inkscape:pageopacity="0" inkscape:pageshadow="2" inkscape:window-height="1022" inkscape:window-maximized="1" inkscape:window-width="1680" inkscape:window-x="1920" inkscape:window-y="30" inkscape:zoom="3.3697917" objecttolerance="10" pagecolor="#ffffff" showgrid="false">
	</sodipodi:namedview>
<circle id="circle4" class="st0" cx="96" cy="96" r="88"/>
<path class="st1" d="M157.6,34.5L157.6,34.5c1.6,21-2.6,42.3-12.5,61.5c9.9,19.1,14.1,40.5,12.4,61.5c0,0,0,0,0,0
	C191.5,123.5,191.5,68.5,157.6,34.5z"/>
<path class="st2" d="M157.5,34.5C157.5,34.5,157.5,34.5,157.5,34.5C140.5,17.5,118.3,9,96,9c-22.3,0-44.5,8.5-61.5,25.5c0,0,0,0,0,0
	C55.5,32.9,76.9,37,96,47C115.2,37,136.5,32.9,157.5,34.5z"/>
<path class="st3" d="M124.3,67.7c8.5,8.5,15.5,18.1,20.7,28.3c9.9-19.1,14.1-40.5,12.4-61.5c-2.9-0.2-5.9-0.3-8.9-0.3
	c-18.1,0-36.2,4.3-52.6,12.8C106.2,52.2,115.8,59.1,124.3,67.7z"/>
<path class="st4" d="M96,145.1c-19.1,9.9-40.5,14.1-61.5,12.4c0,0,0,0,0,0c34,33.9,89,33.9,123,0c0,0,0,0,0,0
	C136.5,159.1,115.2,155,96,145.1z"/>
<path class="st5" d="M157.5,157.5c1.6-21-2.5-42.4-12.4-61.5c-5.3,10.2-12.2,19.8-20.7,28.3c-8.5,8.5-18.1,15.5-28.3,20.7
	C115.2,155,136.5,159.1,157.5,157.5z"/>
<path class="st6" d="M34.5,34.5L34.5,34.5C17.6,51.4,9.1,73.6,9,95.7v0.6c0.1,22.2,8.6,44.3,25.5,61.2c0,0,0,0,0,0
	C32.9,136.5,37,115.1,47,96C37,76.9,32.9,55.5,34.5,34.5z"/>
<path class="st5" d="M67.7,124.3C59.2,115.8,52.3,106.2,47,96c-9.9,19.1-14,40.5-12.4,61.5c21,1.6,42.4-2.5,61.5-12.4
	C85.8,139.8,76.3,132.9,67.7,124.3z"/>
<path class="st7" d="M43.4,34.2c-3,0-5.9,0.1-8.9,0.3C32.9,55.5,37,76.9,47,96c5.3-10.2,12.2-19.8,20.7-28.3
	C76.3,59.1,85.8,52.2,96,47C79.6,38.4,61.5,34.2,43.4,34.2z"/>
</svg>
