<svg xmlns="http://www.w3.org/2000/svg" viewBox="0 0 192 192"><path d="M184,96.39A88,88,0,1,1,96.39,8,88,88,0,0,1,184,96.39Z" style="fill:#9abeff"/><path d="M60.76,101.11l.28-.44,16.88-26.4a.57.57,0,0,1,1,.07c2.82,6.32,5.26,14.18,4.12,19.07a29.83,29.83,0,0,1-3.32,7.26c-.2.37-.41.73-.64,1.08a.55.55,0,0,1-.48.25H61.25A.58.58,0,0,1,60.76,101.11Z" style="fill:#fff"/><path d="M136,106v4.18a.62.62,0,0,1-.36.55c-1.31.56-5.78,2.61-7.64,5.2-4.75,6.6-8.37,16-16.48,16H77.7A21.73,21.73,0,0,1,56,110.23v-.39a.58.58,0,0,1,.58-.58H75.43a.65.65,0,0,1,.62.71,6.37,6.37,0,0,0,.67,3.62,6.63,6.63,0,0,0,6,3.7H92V110H82.77a.59.59,0,0,1-.48-.93c.1-.16.22-.32.34-.5.87-1.24,2.12-3.16,3.36-5.36a43.65,43.65,0,0,0,2.32-4.64c.14-.29.24-.58.35-.87.18-.51.37-1,.5-1.45s.24-.82.35-1.22A18.91,18.91,0,0,0,90,90.78,17.47,17.47,0,0,0,89.87,89c0-.63-.1-1.26-.18-1.9s-.16-1.11-.26-1.69c-.14-.85-.32-1.69-.54-2.53l-.07-.32c-.16-.58-.29-1.14-.48-1.72-.53-1.82-1.13-3.59-1.77-5.25-.24-.66-.5-1.29-.77-1.93-.39-1-.79-1.82-1.16-2.64-.19-.37-.35-.71-.51-1.06s-.36-.78-.55-1.16-.29-.55-.39-.82l-1.14-2.1a.37.37,0,0,1,.42-.54l7.13,1.93h.05l.94.26,1,.29L92,68V63.71A3.69,3.69,0,0,1,95.67,60a3.59,3.59,0,0,1,2.59,1.09,3.71,3.71,0,0,1,1.07,2.62V70l.76.21.18.09.79.6c.27.21.55.47.9.74.69.55,1.51,1.27,2.41,2.09.24.2.47.42.68.63,1.16,1.08,2.46,2.35,3.7,3.75.35.39.69.79,1,1.21s.71.85,1,1.27.87,1.14,1.27,1.74c.18.29.4.58.58.87.5.77,1,1.56,1.38,2.35.18.37.36.77.52,1.16a16.52,16.52,0,0,1,1.09,3.22,3.85,3.85,0,0,1,.15.72v0a6.47,6.47,0,0,1,.14,1,10.94,10.94,0,0,1-.19,3.32,12.19,12.19,0,0,1-.39,1.4c-.16.45-.32.92-.53,1.37a18.6,18.6,0,0,1-1.43,2.72c-.18.32-.4.66-.61,1s-.47.66-.69,1-.6.82-.92,1.2a14.38,14.38,0,0,1-.9,1.13c-.45.53-.88,1-1.32,1.51-.27.31-.56.63-.85.92s-.58.6-.85.87c-.44.45-.82.79-1.13,1.08l-.73.67a.59.59,0,0,1-.4.15H99.33v7.29h7.15a6.7,6.7,0,0,0,4.35-1.61,52.4,52.4,0,0,0,4.42-4.35.47.47,0,0,1,.27-.16l19.74-5.71A.58.58,0,0,1,136,106Z" style="fill:#fff"/></svg>