<svg xmlns="http://www.w3.org/2000/svg" xml:space="preserve" viewBox="0 0 192 192"><circle cx="96" cy="96" r="88" fill="#fff" class="a"/><path fill="#f8c18c" d="m63.002 111.744 28.8-28.825L96 78.726l25.457 25.458-.03.107-.421 1.233-.479 1.208-.533 1.175-.59 1.147-.536.933L96 87.115l-29.936 29.957c-1.156-1.697-2.223-3.445-3.06-5.331z"/><path fill="#56595b" d="M95.999 59.195c20.273 0 36.805 16.532 36.805 36.805S116.272 132.806 96 132.806c-11.073 0-21.029-4.938-27.786-12.72l1.301-1.303.945-.945.944-.95.948-.942.04-.04a30.846 30.846 0 0 0 23.608 11.002c17.022 0 30.91-13.882 30.91-30.908S113.021 65.09 96 65.09c-17.026 0-30.91 13.888-30.91 30.91 0 2.292.254 4.527.732 6.68l-2.049 2.056-2.739 2.739A36.566 36.566 0 0 1 59.193 96c0-20.273 16.532-36.805 36.806-36.805z"/></svg>