<?xml version="1.0" encoding="UTF-8"?>
<svg version="1.1" viewBox="0 0 192 192" xml:space="preserve" xmlns="http://www.w3.org/2000/svg">
	 <rect class="a" x="20" y="20" width="152" height="152" rx="10" fill="#ff837d"/><g transform="translate(-1.4255e-6 32.074)"><path d="m58.027 70.161c17.201-13.773 35.584-25.173 53.891-37.732 3.6424-2.4989 6.6353-0.9837 6.6408 3.4346-1.3159 20.176-2.7246 43.454-4.3013 66.167-0.56253 4.3823-4.1562 6.055-7.4642 3.1344-6.5122-5.7494-11.866-13.063-17.023-19.031-1.5316-1.7728-4.711-3.487-7.0254-3.8532-8.2652-1.3077-15.69-2.0788-23.364-4.3283-4.2357-1.2416-4.8022-5.0293-1.3534-7.7908z" fill="#fff" stroke-width="0"/><circle cx="100.9" cy="61.152" r="5.8469" fill="#ff837d"/></g></svg>
