<?xml version="1.0" encoding="UTF-8"?>
<svg version="1.1" viewBox="0 0 192 192" xml:space="preserve" xmlns="http://www.w3.org/2000/svg">
	 <circle class="a" cx="96" cy="96" r="88" fill="#9abeff"/><path id="path" d="m134.99 80.406c0-2.1442-1.7544-3.8986-3.8986-3.8986h-3.8986v-7.7972c0-4.2885-3.5087-7.7972-7.7972-7.7972h-54.58c-4.2885 0-7.7972 3.5087-7.7972 7.7972v54.58c0 4.2885 3.5087 7.7972 7.7972 7.7972h54.58c4.2885 0 7.7972-3.5087 7.7972-7.7972v-7.7972h3.8986c2.1442 0 3.8986-1.7544 3.8986-3.8986s-1.7544-3.8986-3.8986-3.8986h-3.8986v-7.7972h3.8986c2.1442 0 3.8986-1.7544 3.8986-3.8986 0-2.1442-1.7544-3.8986-3.8986-3.8986h-3.8986v-7.7972h3.8986c2.1442 0 3.8986-1.7544 3.8986-3.8986zm-19.493 42.885h-46.783c-2.1442 0-3.8986-1.7544-3.8986-3.8986v-46.783c0-2.1442 1.7544-3.8986 3.8986-3.8986h46.783c2.1442 0 3.8986 1.7544 3.8986 3.8986v46.783c0 2.1442-1.7544 3.8986-3.8986 3.8986zm-40.935-23.392h15.594c1.0916 0 1.9493 0.8577 1.9493 1.9493v11.696c0 1.0916-0.85769 1.9493-1.9493 1.9493h-15.594c-1.0916 0-1.9493-0.8577-1.9493-1.9493v-11.696c0-1.0916 0.85769-1.9493 1.9493-1.9493zm23.392-23.392h11.696c1.0916 0 1.9493 0.85769 1.9493 1.9493v7.7972c0 1.0916-0.85769 1.9493-1.9493 1.9493h-11.696c-1.0916 0-1.9493-0.85769-1.9493-1.9493v-7.7972c0-1.0916 0.85769-1.9493 1.9493-1.9493zm-23.392 0h15.594c1.0916 0 1.9493 0.85769 1.9493 1.9493v15.594c0 1.0916-0.85769 1.9493-1.9493 1.9493h-15.594c-1.0916 0-1.9493-0.85768-1.9493-1.9493v-15.594c0-1.0916 0.85769-1.9493 1.9493-1.9493zm23.392 15.594h11.696c1.0916 0 1.9493 0.8577 1.9493 1.9493v19.493c0 1.0916-0.85769 1.9493-1.9493 1.9493h-11.696c-1.0916 0-1.9493-0.85769-1.9493-1.9493v-19.493c0-1.0916 0.85769-1.9493 1.9493-1.9493z" fill="#fff" stroke-width="3.8986"/></svg>
