<svg xmlns="http://www.w3.org/2000/svg" width="192" height="192"><rect width="128" height="176" x="32" y="-184" opacity=".63" rx="10.079" style="fill:#ff837d;opacity:1" transform="rotate(90)"/><path d="M68.975 55.578c-.742.013-1.22.599-1.398 1.385-.333 1.462 2.302 3.678 2.302 3.678s3.305-1.14 3.557-2.53c.134-.738-.125-1.688-1.186-1.91-.881-.184-1.666.84-1.666.84s-.207-1.225-1.275-1.432a1.612 1.612 0 0 0-.334-.031zm3.137 6.79a2.79 2.79 0 0 0-.604.04c-1.42.248-1.98 2.236-1.98 2.236s-1.035-1.698-2.746-1.373c-1.497.285-2.006 1.582-1.778 3.04.372 2.372 5.608 4.109 5.608 4.109s4.241-3.655 3.793-5.871c-.209-1.03-.963-2.124-2.293-2.182zm-10.117 9.384c-1.859-.035-3.105 1.386-3.623 3.336-.964 3.628 5.43 9.41 5.43 9.41s8.37-2.552 9.124-6.006c.401-1.833-.162-4.238-2.795-4.889-2.188-.54-4.242 1.952-4.242 1.952s-.407-3.083-3.06-3.696a4.044 4.044 0 0 0-.834-.107zM96 72 68 97.846V88H56v20.924L44 120h12l40-36 40 36h12zm-10 28v8h8v-8zm12 0v8h8v-8zm-12 12v8h8v-8zm12 0v8h8v-8z" style="fill:#fff"/></svg>