<svg xmlns="http://www.w3.org/2000/svg" xmlns:xlink="http://www.w3.org/1999/xlink" viewBox="0 0 172.5 160.84"><title>OverDrive</title><defs><clipPath id="a" transform="translate(-19.5 -19.5)"><rect x="19.5" y="19.5" width="153" height="153" rx="10" fill="none"/></clipPath></defs><g clip-path="url(#a)"><rect width="153" height="153" rx="10" fill="#9abeff"/><path d="M127.13,49.75c42.32,0,71.74,28.42,63.48,65.7-7.86,35.87-49.38,64.89-92.3,64.89s-71.54-29-63.68-64.89C42.69,78.37,84.61,49.75,127.13,49.75Zm-24,109c28.41,0,54.81-20.15,59.85-43.33,5.24-24.18-12.7-43.73-40.71-43.73-28-.2-54.81,19.55-60,43.53C57.2,138.42,74.53,158.78,103.15,158.78Z" transform="translate(-19.5 -19.5)" fill="#fff"/></g></svg>