<?xml version="1.0" encoding="UTF-8" standalone="no"?>
<svg
   width="192"
   height="192"
   version="1.1"
   viewBox="0 0 192 192"
   id="svg14"
   sodipodi:docname="oyo.svg"
   inkscape:version="1.1 (c68e22c387, 2021-05-23)"
   inkscape:export-xdpi="96"
   inkscape:export-ydpi="96"
   xmlns:inkscape="http://www.inkscape.org/namespaces/inkscape"
   xmlns:sodipodi="http://sodipodi.sourceforge.net/DTD/sodipodi-0.dtd"
   xmlns="http://www.w3.org/2000/svg"
   xmlns:svg="http://www.w3.org/2000/svg"
   xmlns:rdf="http://www.w3.org/1999/02/22-rdf-syntax-ns#"
   xmlns:cc="http://creativecommons.org/ns#"
   xmlns:dc="http://purl.org/dc/elements/1.1/">
  <metadata
     id="metadata20">
    <rdf:RDF>
      <cc:Work
         rdf:about="">
        <dc:format>image/svg+xml</dc:format>
        <dc:type
           rdf:resource="http://purl.org/dc/dcmitype/StillImage" />
      </cc:Work>
    </rdf:RDF>
  </metadata>
  <defs
     id="defs18" />
  <sodipodi:namedview
     pagecolor="#ffffff"
     bordercolor="#666666"
     borderopacity="1"
     objecttolerance="10"
     gridtolerance="10"
     guidetolerance="10"
     inkscape:pageopacity="0"
     inkscape:pageshadow="2"
     inkscape:window-width="1718"
     inkscape:window-height="1378"
     id="namedview16"
     showgrid="false"
     inkscape:zoom="1.6848959"
     inkscape:cx="15.431221"
     inkscape:cy="223.7527"
     inkscape:window-x="1713"
     inkscape:window-y="0"
     inkscape:window-maximized="0"
     inkscape:current-layer="svg14"
     inkscape:document-rotation="0"
     inkscape:pagecheckerboard="0" />
  <circle
     cx="96"
     cy="96"
     r="88"
     opacity="0.63"
     id="circle4"
     style="fill:#ff837d;stroke:none;stroke-width:1;stroke-miterlimit:4;stroke-dasharray:none;fill-opacity:1;opacity:1" />
  <path
     style="fill:#ffffff;stroke-width:1;fill-opacity:1"
     d="m 47.806391,119.01499 c -2.024965,-0.33536 -5.472766,-1.61968 -7.432721,-2.76871 -13.00963,-7.62703 -15.596857,-25.21149 -5.314592,-36.12142 1.998769,-2.120781 4.039291,-3.6188 6.725104,-4.937131 7.493407,-3.678138 15.925119,-3.157151 23.002699,1.42131 6.821484,4.412796 10.920182,12.550077 10.444775,20.736357 -0.610353,10.509994 -8.230877,19.392634 -18.445964,21.500994 -2.224836,0.4592 -6.715439,0.54353 -8.979301,0.1686 z m 7.157678,-15.21221 c 2.791688,-1.0445 5.039081,-4.079011 5.2844,-7.135169 0.203431,-2.534301 -1.107707,-5.581456 -3.033693,-7.050478 -1.626921,-1.240913 -3.234687,-1.790931 -5.239079,-1.792291 -1.682311,-0.0011 -2.010499,0.07668 -3.566925,0.845916 -2.739323,1.353847 -4.404402,3.73654 -4.637112,6.63561 -0.299415,3.730059 1.853182,7.163312 5.347836,8.529462 1.526892,0.59692 4.201279,0.58179 5.844573,-0.0331 z m 80.106611,15.03998 c -11.23203,-2.47808 -19.13575,-12.97779 -18.30423,-24.316246 0.73208,-9.982512 7.64135,-18.378209 17.2816,-20.999437 8.10995,-2.205133 16.94213,0.361337 22.89898,6.654027 3.11496,3.290556 5.20347,7.397586 5.95584,11.712088 2.07941,11.924158 -4.89473,23.113168 -16.58328,26.605518 -2.79009,0.83363 -8.27016,1.00125 -11.24891,0.34405 z m 8.45294,-15.28915 c 4.67511,-2.18234 6.19141,-8.204858 3.12983,-12.431237 -2.17082,-2.996735 -6.56336,-4.183172 -9.88283,-2.669383 -1.78697,0.814912 -3.54014,2.558664 -4.34699,4.323622 -0.53291,1.165758 -0.63529,1.696468 -0.64112,3.323683 -0.006,1.735947 0.0701,2.092874 0.73708,3.44778 0.90393,1.836145 2.7261,3.588355 4.42749,4.257485 1.76474,0.69404 4.79902,0.57779 6.57654,-0.25195 z m -55.721127,8.07409 v -7.19291 L 79.975494,88.902608 72.148495,73.370425 h 8.395612 8.395613 l 3.463356,6.931152 c 1.904847,3.812134 3.515269,6.929399 3.578715,6.927253 0.06346,-0.0021 1.688939,-3.121164 3.612199,-6.931152 l 3.49685,-6.927253 h 8.39253 8.39254 l -7.85568,15.540885 -7.85568,15.54088 v 7.18421 7.1842 h -8.181025 -8.181032 z"
     id="path864" />
</svg>
