<svg xmlns="http://www.w3.org/2000/svg" xml:space="preserve" viewBox="0 0 192 192"><rect width="152" height="152" x="20" y="20" fill="#ff837d" class="a" rx="10"/><path fill="#fff" d="m68.603 75.564 27.063 13.698 11.026-5.903-26.394-13.03zM96.223 64.316l-8.13 3.564 26.283 12.25 8.687-4.788zM68.603 75.564l2.896 28.176 24.39 21.717-1.003-33.633zM95.889 125.46l1.448-33.522 10.469-6.46-.334 15.704 6.682-4.567.898-15.809 8.011-5.462-2.617 28.182z"/><path fill="#fff" d="m96.668 129.13 1.114 6.682 30.626-27.842 3.898-35.527-5.68 2.339-3.564 30.626zM95.22 129.35l-1.002 6.46-30.515-27.62-4.01-35.638 5.569 2.116 3.786 31.183zM61.364 69.55l4.455 4.343 30.18-12.25 30.07 11.804 4.344-3.675L96 56.185z"/></svg>