<svg xmlns="http://www.w3.org/2000/svg" xml:space="preserve" viewBox="0 0 192 192"><circle cx="96" cy="96" r="88" fill="#8e6f60" class="a"/><path fill="#fff" d="M73.8 125.6q-6.105 0-10.452-4.348Q59 116.906 59 110.8V81.2q0-6.106 4.348-10.454Q67.696 66.4 73.8 66.4h44.4q6.105 0 10.452 4.348Q133 75.093 133 81.198v29.6q0 6.105-4.348 10.453-4.348 4.348-10.452 4.348zm0-43.475h44.4q2.682 0 5.041.833 2.359.832 4.209 2.404V81.2q0-3.885-2.683-6.567-2.682-2.683-6.567-2.683H73.8q-3.885 0-6.568 2.683-2.682 2.682-2.682 6.567v4.162q1.85-1.572 4.209-2.404 2.359-.833 5.041-.833zm-8.973 12.58 44.123 10.638q.647.185 1.34.046.695-.139 1.157-.6l14.8-12.396q-1.202-2.127-3.33-3.422-2.127-1.295-4.717-1.295H73.8q-3.238 0-5.735 1.988-2.498 1.99-3.238 5.042z"/></svg>