<?xml version="1.0" encoding="UTF-8" standalone="no"?>
<svg
   xmlns:dc="http://purl.org/dc/elements/1.1/"
   xmlns:cc="http://creativecommons.org/ns#"
   xmlns:rdf="http://www.w3.org/1999/02/22-rdf-syntax-ns#"
   xmlns:svg="http://www.w3.org/2000/svg"
   xmlns="http://www.w3.org/2000/svg"
   xmlns:sodipodi="http://sodipodi.sourceforge.net/DTD/sodipodi-0.dtd"
   xmlns:inkscape="http://www.inkscape.org/namespaces/inkscape"
   viewBox="0 0 192 192"
   version="1.1"
   id="svg16"
   sodipodi:docname="pano_scrobbler.svg"
   inkscape:version="0.92.4 (5da689c313, 2019-01-14)">
  <metadata
     id="metadata20">
    <rdf:RDF>
      <cc:Work
         rdf:about="">
        <dc:format>image/svg+xml</dc:format>
        <dc:type
           rdf:resource="http://purl.org/dc/dcmitype/StillImage" />
        <dc:title />
      </cc:Work>
    </rdf:RDF>
  </metadata>
  <sodipodi:namedview
     pagecolor="#ffffff"
     bordercolor="#666666"
     borderopacity="1"
     objecttolerance="10"
     gridtolerance="10"
     guidetolerance="10"
     inkscape:pageopacity="0"
     inkscape:pageshadow="2"
     inkscape:window-width="1920"
     inkscape:window-height="1017"
     id="namedview18"
     showgrid="true"
     inkscape:zoom="3.4766083"
     inkscape:cx="15.914745"
     inkscape:cy="112.90501"
     inkscape:window-x="-8"
     inkscape:window-y="-8"
     inkscape:window-maximized="1"
     inkscape:current-layer="svg16"
     inkscape:snap-global="false">
    <inkscape:grid
       type="xygrid"
       id="grid827"
       spacingx="4"
       spacingy="4" />
  </sodipodi:namedview>
  <defs
     id="defs4">
    <style
       id="style2">.a{fill:none;stroke:#b1b5bd;stroke-linecap:round;stroke-linejoin:round;isolation:isolate;opacity:0.63;}</style>
  </defs>
  <rect
     class="a"
     x="20"
     y="20"
     width="152"
     height="152"
     rx="10"
     id="rect6"
     style="fill:#ba6561;stroke:none;opacity:1" />
  <rect
     class="a"
     x="20"
     y="20"
     width="152"
     height="152"
     rx="10"
     id="rect6-1"
     style="opacity:0.25;isolation:isolate;fill:#bd9aff;stroke:none;stroke-linecap:round;stroke-linejoin:round" />
  <path
     style="fill:#ffffff;stroke:none;stroke-width:0.86892402px;stroke-linecap:butt;stroke-linejoin:miter;stroke-opacity:1"
     d="m 54.093252,93.177112 c 0,0 5.08178,-13.622635 16.082463,-21.296003 5.982376,-4.172921 14.058373,-6.471974 21.295998,-7.245943 1.139229,-0.121824 2.503249,-1.240506 2.474218,-2.385858 -0.03068,-1.210496 -1.528586,-2.366827 -2.739318,-2.385859 C 86.920958,59.79608 77.926655,61.688413 68.49677,67.727947 54.88525,76.445685 54.093252,93.177112 54.093252,93.177112 Z"
     id="path829"
     inkscape:connector-curvature="0"
     sodipodi:nodetypes="csssssc" />
  <path
     style="fill:#ffffff;stroke:none;stroke-width:0.86892402px;stroke-linecap:butt;stroke-linejoin:miter;stroke-opacity:1"
     d="m 106.42651,70.155314 c -3.13506,3.228271 -6.12966,4.353185 -8.264965,4.376866 -1.553203,0.01722 -4.714186,-1.83161 -7.131289,-1.678449 -14.778937,0.936473 -29.700024,21.212089 -31.900712,26.464845 0,0 -1.772935,1.936344 -5.213544,0.751824 2.081003,2.14925 3.976344,2.16382 3.976344,2.16382 L 53.916,103.6038 c 0,0 2.759676,0.73888 4.375172,2.38615 3.137493,3.19919 6.257329,8.57677 11.265461,13.16624 7.644263,7.00522 19.871849,13.25171 31.104767,12.98973 13.80077,-0.32187 33.48229,-6.58455 33.31442,-19.44048 -0.1677,-12.840844 -20.36586,-10.76605 -19.97169,-20.234732 0.23337,-5.605825 5.63463,-8.018241 10.16235,-8.307388 7.27683,-0.464711 9.89759,5.390044 9.89759,5.390044 0,0 -1.38578,-11.113811 -9.98585,-11.133088 -6.96894,-0.01562 -15.57895,5.750169 -15.64063,13.873933 -0.11264,14.834721 19.58353,11.862171 19.61697,20.411231 0.0592,15.10953 -34.638151,13.60919 -34.638151,13.60919 0,0 5.432263,-4.7122 6.538981,-23.32858 0.72221,-12.148356 -2.03314,-20.148179 -2.03314,-20.148179 0,0 4.68329,0.98335 9.45464,-4.152846 -5.80906,1.779408 -9.984139,0 -9.984139,0 0,0 8.567139,-0.161126 9.033759,-8.529711 z m -17.610993,9.756727 c 0.78628,0.01135 1.913918,0.144845 3.275434,0.62963 1.8e-5,0 1.44855,2.751788 2.562652,8.393943 -2.084196,-0.08995 -3.005594,2.121396 -3.005594,2.121396 0,0 1.781381,1.776014 1.325448,4.505846 -0.803998,4.813814 -3.888096,2.739147 -3.888096,2.739147 0,0 -2.044856,12.160837 4.684048,15.111137 -0.387688,3.93495 -3.644867,10.26739 -5.654802,10.42709 -2.646038,0.21023 -5.590431,-13.89449 -5.213544,-22.97558 0.60392,-14.551455 4.682346,-20.854176 4.682346,-20.854176 8e-6,0 0.445835,-0.109785 1.232108,-0.09844 z m -7.7711,2.92583 c 0,0 -3.244442,8.16449 -3.092146,18.557979 0.200271,13.66707 2.739145,19.43878 2.739145,19.43878 0,0 -11.727277,-6.7268 -17.142576,-19.17403 7.081348,-12.939404 17.495577,-18.822729 17.495577,-18.822729 z"
     id="path831"
     inkscape:connector-curvature="0" />
</svg>
