<svg width="192" height="192" viewBox="0 0 192 192" fill="none" xmlns="http://www.w3.org/2000/svg">
<g clip-path="url(#clip0)">
<g clip-path="url(#clip1)">
<path d="M172.5 29.1V54.1H117.8C110.8 54.1 105.1 54 101.6 55C81 60.5 77 77.8 57.4 80.7H44.8H19.5V29.1C19.5 23.8 23.8 19.5 29.1 19.5H163C168.2 19.5 172.5 23.8 172.5 29.1Z" fill="#9ABEFF"/>
<path d="M149.71 36.2496L29.0664 70.8374L37.9958 101.983L158.639 67.3957L149.71 36.2496Z" fill="#F9DE81"/>
<path d="M97.3383 33.5812L29.978 45.4554L41.8523 112.816L109.213 100.942L97.3383 33.5812Z" fill="white"/>
<path d="M60.7999 67L56.7999 44.6L53.0999 45.3L34.3999 48.6L35.0999 52.3L37.6999 67.3L38.3999 71L57.0999 67.7L60.7999 67ZM41.3999 66.6L38.7999 51.6L53.7999 49L56.3999 64L41.3999 66.6Z" fill="#B1B5BD"/>
<path d="M50.6793 53.3933L43.1948 54.7127L44.5142 62.1972L51.9987 60.8778L50.6793 53.3933Z" fill="#B1B5BD"/>
<path d="M90.4998 38.7L71.7998 42L72.4998 45.7L75.0998 60.7L75.7998 64.4L94.4998 61.1L98.1998 60.4L94.1998 38L90.4998 38.7ZM93.7998 57.4L78.7998 60L76.1998 45L91.1998 42.4L93.7998 57.4Z" fill="#B1B5BD"/>
<path d="M88.0787 46.7961L80.5942 48.1155L81.9136 55.6L89.3981 54.2806L88.0787 46.7961Z" fill="#B1B5BD"/>
<path d="M70 53.8L68.7 46.4L64.9 47L64.3 43.3L60.5 43.9L63.2 58.9L66.9 58.2L66.3 54.5L70 53.8Z" fill="#B1B5BD"/>
<path d="M70.7159 57.6221L66.9736 58.2818L68.293 65.7662L72.0352 65.1066L70.7159 57.6221Z" fill="#B1B5BD"/>
<path d="M46.5 73.4L39 74.7L39.6 78.5L40.3 82.2L51.5 80.2L50.9 76.5L47.1 77.2L46.5 73.4Z" fill="#B1B5BD"/>
<path d="M57.7132 71.4657L50.2288 72.7851L50.8884 76.5273L58.3729 75.208L57.7132 71.4657Z" fill="#B1B5BD"/>
<path d="M68.2339 65.7025L64.4917 66.3622L65.1514 70.1045L68.8936 69.4448L68.2339 65.7025Z" fill="#B1B5BD"/>
<path d="M62.0998 74.5L58.2998 75.2L58.9998 78.9L66.4998 77.6L65.7998 73.9L65.1998 70.1L61.3998 70.8L62.0998 74.5Z" fill="#B1B5BD"/>
<path d="M98.8361 64.1927L68.8982 69.4702L69.5579 73.2124L99.4958 67.935L98.8361 64.1927Z" fill="#B1B5BD"/>
<path d="M172.5 54.1V162.9C172.5 168.2 168.2 172.5 162.9 172.5H29.1C23.8 172.5 19.5 168.2 19.5 162.9V80.7H44.8H57.4C77 77.8 81 60.5 101.6 55C105.1 54.1 110.8 54.1 117.8 54.1H172.5Z" fill="#B3CEFF"/>
</g>
</g>
<defs>
<clipPath id="clip0">
<rect width="192" height="192" fill="white"/>
</clipPath>
<clipPath id="clip1">
<rect width="153" height="153" fill="white" transform="translate(19.5 19.5)"/>
</clipPath>
</defs>
</svg>
