<?xml version="1.0" encoding="utf-8"?>
<!-- Generator: Adobe Illustrator 26.0.1, SVG Export Plug-In . SVG Version: 6.00 Build 0)  -->
<svg version="1.1"
	 id="svg14" xmlns:cc="http://creativecommons.org/ns#" xmlns:dc="http://purl.org/dc/elements/1.1/" xmlns:inkscape="http://www.inkscape.org/namespaces/inkscape" xmlns:rdf="http://www.w3.org/1999/02/22-rdf-syntax-ns#" xmlns:sodipodi="http://sodipodi.sourceforge.net/DTD/sodipodi-0.dtd" xmlns:svg="http://www.w3.org/2000/svg"
	 xmlns="http://www.w3.org/2000/svg" xmlns:xlink="http://www.w3.org/1999/xlink" x="0px" y="0px" viewBox="0 0 192 192"
	 style="enable-background:new 0 0 192 192;" xml:space="preserve">
<style type="text/css">
	.st0{fill:#9ABEFF;enable-background:new    ;}
	.st1{fill:#FFFFFF;}
</style>
<sodipodi:namedview  bordercolor="#666666" borderopacity="1" gridtolerance="10" guidetolerance="10" id="namedview16" inkscape:current-layer="svg14" inkscape:cx="74.197715" inkscape:cy="86.989867" inkscape:document-rotation="0" inkscape:pageopacity="0" inkscape:pageshadow="2" inkscape:window-height="1022" inkscape:window-maximized="1" inkscape:window-width="1680" inkscape:window-x="1920" inkscape:window-y="30" inkscape:zoom="3.3697917" objecttolerance="10" pagecolor="#ffffff" showgrid="false">
	</sodipodi:namedview>
<path id="rect2" class="st0" d="M29.9,20h132.1c5.5,0,9.9,4.4,9.9,9.9v132.1c0,5.5-4.4,9.9-9.9,9.9H29.9c-5.5,0-9.9-4.4-9.9-9.9
	V29.9C20,24.4,24.4,20,29.9,20z"/>
<path class="st1" d="M83.5,124.7c-0.6-0.2-1.5-1.3,0.1-4.2l3.6-7.5c0.1-0.2-0.2-0.5-0.3-0.3l-3.2,3.2c-1.5,1.6-4,5.9-4.5,6.7
	l-3.8,6.3c0.3,0,0.5,0.2,0.5,0.5c0,0.1,0,0.2-0.1,0.3l-3.5,5.9c-0.9,1.5,0.7,2.5,0.9,2.1c5.5-8.9,8.7-8.2,8.7-8.2l1.8-4.3
	C83.8,125,83.7,124.8,83.5,124.7C83.5,124.7,83.5,124.7,83.5,124.7z M96,50.6c-31.5,0-57,25.5-57,56.9c0,12.2,3.9,24,11.1,33.8
	c2.4-1,3.7-2.6,4.7-3.8l10.6-13.6c0.2-0.3,0.5-0.5,0.8-0.7l1.6-0.7l17.4-22.1l2.5-2l5.2-7.2c0.1-0.2,0.3-0.4,0.5-0.5l2.3-1.6
	c0.6-0.4,1.3-0.4,1.9,0l2.8,1.9c1.5,1,2.6,2.4,3.4,4l11,19.3c0.2,0.4,0.5,0.7,0.9,0.8c2.2,1.1,3.5,1.3,6.3,4.3
	c1.3,1.4,7.1,7.9,15.2,17.9c1.2,1.6,2.8,2.9,4.6,3.7c7.2-9.8,11.1-21.6,11.1-33.8C153,76.1,127.5,50.6,96,50.6z M54.4,110.7
	l-3.7-1.2l-2.3,3.1v-3.9l-3.7-1.2l3.7-1.2v-3.9l2.3,3.1l3.7-1.2l-2.3,3.1L54.4,110.7z M53.5,123.4l-1.2,3.7l-1.2-3.7h-3.9l3.1-2.3
	l-1.2-3.7l3.1,2.3l3.1-2.3l-1.2,3.7l3.1,2.3H53.5z M54.3,94l1.2,3.7l-3.1-2.3l-3.1,2.3l1.2-3.7l-3.1-2.3h3.9l1.2-3.7l1.2,3.7h3.9
	L54.3,94z M60.5,85.7l-2.3-3.1l-3.7,1.2l2.3-3.1l-2.3-3.1l3.7,1.2l2.3-3.1v3.9l3.7,1.2l-3.7,1.2L60.5,85.7L60.5,85.7z M70.2,72.1
	L69,75.8l-1.2-3.7h-3.9l3.1-2.3l-1.2-3.7l3.1,2.3l3.1-2.3l-1.2,3.7l3.1,2.3L70.2,72.1L70.2,72.1L70.2,72.1z M82.4,65.8L80.2,69v-3.9
	l-3.7-1.2l3.7-1.2v-3.9l2.3,3.1l3.7-1.2l-2.3,3.1l2.3,3.1L82.4,65.8z M97.9,62.3l1.2,3.7L96,63.7L92.9,66l1.2-3.7L90.9,60h3.9
	l1.2-3.7l1.2,3.7h3.9L97.9,62.3z M111.8,65.1V69l-2.3-3.1l-3.7,1.2l2.3-3.1l-2.3-3.1l3.7,1.2l2.3-3.1v3.9l3.7,1.2L111.8,65.1z
	 M137.6,104.4l3.7,1.2l2.3-3.1v3.9l3.7,1.2l-3.7,1.2v3.9l-2.3-3.1l-3.7,1.2l2.3-3.1L137.6,104.4z M123,75.8l-1.2-3.7h-3.9l3.1-2.3
	l-1.2-3.7l3.1,2.3l3.1-2.3l-1.2,3.7l3.1,2.3h-3.9L123,75.8z M131.5,85.7v-3.9l-3.7-1.2l3.7-1.2v-3.9l2.3,3.1l3.7-1.2l-2.3,3.1
	l2.3,3.1l-3.7-1.2L131.5,85.7z M138.5,91.7l1.2-3.7l1.2,3.7h3.9l-3.1,2.3l1.2,3.7l-3.1-2.3l-3.1,2.3l1.2-3.7l-3.1-2.3
	C134.6,91.7,138.5,91.7,138.5,91.7z M140.9,123.4l-1.2,3.7l-1.2-3.7h-3.9l3.1-2.3l-1.2-3.7l3.1,2.3l3.1-2.3l-1.2,3.7l3.1,2.3H140.9z
	 M116.6,140.5c0.3-0.4,0.7-1.5-0.1-3.5l-2.5-6.8c-0.3-0.9,0.4-1.4,0.9-0.8c0,0,4.8,5.5,6,7.8l2.3,3.9c2,0.1,7.6,0.3,13,0.3
	c-0.5-0.5-1-1.1-1.5-1.7c-9.2-11.4-15-17.7-15-17.7c-1.9-2-2.7-2.4-4.1-3.1c-0.2-0.1-0.4-0.2-0.7-0.3v1.7c0,0.1-0.1,0.2-0.2,0.2
	c-0.1,0-0.2,0-0.2-0.1L101,96.7l0-0.1c-0.6-1.1-1.4-2.1-2.4-2.8l-1.3-0.9l-6.4,14.8c0.8,0,1.4,0.6,1.4,1.4c0,0.2,0,0.4-0.1,0.6
	l-5.9,13.7h5.5c2.1,0,4.2,0.4,6.1,1.2l1.4,0.6c0,0-4.3,8.9-4.3,13.6c0,0.9,0.1,1.7,0.4,2.5h10l-0.5-2.8
	C108.7,139.4,112.6,140,116.6,140.5L116.6,140.5L116.6,140.5z"/>
</svg>
