<svg xmlns="http://www.w3.org/2000/svg" xml:space="preserve" style="fill-rule:evenodd;clip-rule:evenodd;stroke-linejoin:round;stroke-miterlimit:2" viewBox="0 0 192 192"><path d="M160 18c0-5.519-4.481-10-10-10H42c-5.519 0-10 4.481-10 10v156c0 5.519 4.481 10 10 10h108c5.519 0 10-4.481 10-10z" style="fill:#54688c;fill-opacity:1"/><path d="M86.317 74.968c-3.957-2.923-6.525-7.622-6.525-12.915 0-8.86 7.193-16.053 16.052-16.053 8.86 0 16.053 7.193 16.053 16.053 0 5.92-3.212 11.097-7.99 13.88 2.014-.185 6.381-.572 6.602 2.468.343 4.729-3.425 6.137-7.475 6.263.756 8.32.08 12.747 2.5 20.837 1.424 4.754 2.727 3.896 5.934 7.319 1.188 1.267 2.663 3.832.484 5.132-1.83 1.092-3.914 1.705-5.774 2.743-.906.505 1.872-.976 2.896-1.137 3.983-.628 7.164-.63 8.957 3.277 1.058 2.304 3.483 7.525.002 9.463-1.41.785-3.088 1.217-4.628 1.694-1.613.355-3.336.82-4.942 1.268-2.839.726-5.84 1.492-5.818 1.49 1.082-.132 3.307-.79 5.818-1.49 2.492-.637 4.859-1.242 4.941-1.268h.001c2.673-.589 5.049-.876 6.097-.28 4.06 3.23-1.112 8.063-5.24 9.212-11.535 3.213-23.623 4.333-35.337 1.29-6.294-1.636-10.652-6.828-5.875-12.838-4.004-4.603.964-9.2 4.168-12.194 2.321-2.168 1.274-2.618 2.172-5.75.516-1.799 2.593-1.94 3.52-3.304 1.225-1.803 2.228-3.77 3.03-5.796 2.36-5.962 2.7-13.07 2.365-19.258-2.2-.28-5.414-.742-7.154-2.37-4.113-3.848 2.142-7.085 5.166-7.736z" style="fill:#ececec;stroke-width:.635469"/><g style="fill:#ff837d;fill-opacity:1"><path d="M91.355 151.873c.885-.097 1.997-.083 2.208.553.362 1.084.452 2.981.452 2.981s.361.632.903 1.626c.542.994.994 1.174.362 2.258-.633 1.084-1.175 2.168-2.439 3.252-1.265 1.084-2.078.994-2.078 2.078 0 1.084-.271 2.078.632 2.168.904.09 2.62 1.897 4.517-.542 1.897-2.439 3.433-4.697 4.155-5.33.723-.632 1.717-1.355 3.253-1.264 1.535.09 2.8-.452 3.884.451 1.084.904 2.168 1.265 1.987 2.168-.18.904-.361 1.175-1.897 1.988-1.535.813-1.716 1.174-3.342 1.897-1.626.722-3.072.903-3.794 1.355-.723.451-1.807 1.626-1.807 1.626l-.542 1.716s.452 1.355 1.355 1.626c.903.271 2.71.723 4.156.723 1.445 0 1.897.18 2.8.542.903.361 3.162 1.084 3.162 1.084s2.258.542 2.981.451c.722-.09 2.168-.09 3.161-.451.994-.362 4.336-1.988 4.336-1.988l2.981-3.161 2.259-.452s2.168.632 2.529 1.536c.361.903 1.897 3.613.09 4.516-1.806.904-3.252 1.897-5.962 2.259-2.71.361-4.336.632-6.323 1.987s-4.607 2.62-3.884 5.51c.722 2.891 1.987 4.246 4.155 4.156 2.168-.09 3.433-.813 4.155-1.987.723-1.175 1.446-2.711 1.807-3.614s1.174-1.265 1.174-1.265 2.259.271 2.259 2.259c0 1.987-.723 4.878 0 5.691.722.813 1.535 2.349 3.974 2.349s6.053.271 7.769-.633c1.716-.903 3.975-2.439 5.24-2.439 1.264 0 4.336 1.626 5.058 2.439.723.813.723.452.723 1.265 0 .222-.128.558-.378.959-.145.046-.291.089-.436.129-18.152 5.055-37.173 6.818-55.607 2.029-9.905-2.574-16.763-10.744-9.245-20.201-6.302-7.245 1.517-14.477 6.559-19.19 2.366-2.211 2.508-3.286 2.698-5.11z" style="fill:#ff837d;fill-opacity:1" transform="matrix(.63547 0 0 .63547 20.88 19.424)"/><path d="M100.129 157.56c.077-.902.165-1.747.359-2.633.078-.358.226-.695.492-.956.928-.909 2.402-1.736 3.724-1.22.68.265 2.041 1.107 1.424 2.022-.308.456-.917.645-1.378.863-.518.245-1.021.52-1.55.74a47.328 47.328 0 0 1-3.071 1.184z" style="fill:#ff837d;fill-opacity:1" transform="matrix(.63547 0 0 .63547 20.88 19.424)"/></g><g style="clip-rule:evenodd;fill-rule:evenodd;stroke-linejoin:round;stroke-miterlimit:2"><path d="M160 18c0-5.519-4.481-10-10-10H42c-5.519 0-10 4.481-10 10v156c0 5.519 4.481 10 10 10h108c5.519 0 10-4.481 10-10z" style="fill:#54688c" transform="translate(0 -221.48)"/><path d="M80.762 62.974c-6.226-4.601-10.267-11.995-10.267-20.325 0-13.942 11.319-25.261 25.26-25.261 13.942 0 25.261 11.319 25.261 25.261 0 9.317-5.055 17.463-12.572 21.842 3.168-.29 10.04-.899 10.387 3.884.54 7.442-5.389 9.658-11.762 9.857 1.189 13.092.125 20.059 3.935 32.789 2.239 7.481 4.29 6.131 9.337 11.517 1.87 1.995 4.19 6.031.762 8.077-2.88 1.718-6.159 2.682-9.087 4.316-1.425.795 2.946-1.535 4.558-1.789 6.267-.988 11.273-.992 14.095 5.156 1.665 3.627 5.48 11.843.003 14.892-2.218 1.235-4.859 1.915-7.283 2.666-2.539.558-5.249 1.29-7.777 1.995-4.467 1.142-9.191 2.348-9.155 2.344 1.702-.206 5.204-1.242 9.155-2.344 3.922-1.002 7.646-1.955 7.776-1.995h.001c4.207-.927 7.945-1.378 9.595-.441 6.389 5.082-1.75 12.688-8.247 14.497-18.152 5.055-37.173 6.818-55.607 2.029-9.905-2.574-16.763-10.744-9.245-20.201-6.302-7.245 1.517-14.477 6.559-19.19 3.652-3.412 2.004-4.119 3.418-9.048.812-2.831 4.08-3.054 5.538-5.199 1.928-2.838 3.507-5.932 4.77-9.122 3.713-9.381 4.249-20.568 3.72-30.304-3.461-.442-8.519-1.168-11.258-3.73-6.471-6.055 3.371-11.15 8.13-12.173z" style="fill:#ececec" transform="translate(0 -221.48)"/><path d="M91.355 151.873c.885-.097 1.997-.083 2.208.553.362 1.084.452 2.981.452 2.981s.361.632.903 1.626c.542.994.994 1.174.362 2.258-.633 1.084-1.175 2.168-2.439 3.252-1.265 1.084-2.078.994-2.078 2.078 0 1.084-.271 2.078.632 2.168.904.09 2.62 1.897 4.517-.542 1.897-2.439 3.433-4.697 4.155-5.33.723-.632 1.717-1.355 3.253-1.264 1.535.09 2.8-.452 3.884.451 1.084.904 2.168 1.265 1.987 2.168-.18.904-.361 1.175-1.897 1.988-1.535.813-1.716 1.174-3.342 1.897-1.626.722-3.072.903-3.794 1.355-.723.451-1.807 1.626-1.807 1.626l-.542 1.716s.452 1.355 1.355 1.626c.903.271 2.71.723 4.156.723 1.445 0 1.897.18 2.8.542.903.361 3.162 1.084 3.162 1.084s2.258.542 2.981.451c.722-.09 2.168-.09 3.161-.451.994-.362 4.336-1.988 4.336-1.988l2.981-3.161 2.259-.452s2.168.632 2.529 1.536c.361.903 1.897 3.613.09 4.516-1.806.904-3.252 1.897-5.962 2.259-2.71.361-4.336.632-6.323 1.987s-4.607 2.62-3.884 5.51c.722 2.891 1.987 4.246 4.155 4.156 2.168-.09 3.433-.813 4.155-1.987.723-1.175 1.446-2.711 1.807-3.614s1.174-1.265 1.174-1.265 2.259.271 2.259 2.259c0 1.987-.723 4.878 0 5.691.722.813 1.535 2.349 3.974 2.349s6.053.271 7.769-.633c1.716-.903 3.975-2.439 5.24-2.439 1.264 0 4.336 1.626 5.058 2.439.723.813.723.452.723 1.265 0 .222-.128.558-.378.959-.145.046-.291.089-.436.129-18.152 5.055-37.173 6.818-55.607 2.029-9.905-2.574-16.763-10.744-9.245-20.201-6.302-7.245 1.517-14.477 6.559-19.19 2.366-2.211 2.508-3.286 2.698-5.11z" style="fill:#b02a3c" transform="translate(-22.213 -245.913)"/><path d="M100.129 157.56c.077-.902.165-1.747.359-2.633.078-.358.226-.695.492-.956.928-.909 2.402-1.736 3.724-1.22.68.265 2.041 1.107 1.424 2.022-.308.456-.917.645-1.378.863-.518.245-1.021.52-1.55.74a47.328 47.328 0 0 1-3.071 1.184z" style="fill:#b02a3c" transform="translate(-22.213 -245.913)"/></g></svg>