<?xml version="1.0" encoding="UTF-8" standalone="no"?>
<svg
   xmlns:dc="http://purl.org/dc/elements/1.1/"
   xmlns:cc="http://creativecommons.org/ns#"
   xmlns:rdf="http://www.w3.org/1999/02/22-rdf-syntax-ns#"
   xmlns:svg="http://www.w3.org/2000/svg"
   xmlns="http://www.w3.org/2000/svg"
   xmlns:sodipodi="http://sodipodi.sourceforge.net/DTD/sodipodi-0.dtd"
   xmlns:inkscape="http://www.inkscape.org/namespaces/inkscape"
   width="192"
   height="192"
   version="1.1"
   viewBox="0 0 192 192"
   id="svg14"
   sodipodi:docname="pegasus_fe.svg"
   inkscape:version="0.92.5 (2060ec1f9f, 2020-04-08)">
  <metadata
     id="metadata20">
    <rdf:RDF>
      <cc:Work
         rdf:about="">
        <dc:format>image/svg+xml</dc:format>
        <dc:type
           rdf:resource="http://purl.org/dc/dcmitype/StillImage" />
        <dc:title></dc:title>
      </cc:Work>
    </rdf:RDF>
  </metadata>
  <defs
     id="defs18" />
  <sodipodi:namedview
     pagecolor="#ffffff"
     bordercolor="#666666"
     borderopacity="1"
     objecttolerance="10"
     gridtolerance="10"
     guidetolerance="10"
     inkscape:pageopacity="0"
     inkscape:pageshadow="2"
     inkscape:window-width="1280"
     inkscape:window-height="745"
     id="namedview16"
     showgrid="true"
     inkscape:zoom="2.4583333"
     inkscape:cx="88.125983"
     inkscape:cy="47.186441"
     inkscape:window-x="-12"
     inkscape:window-y="-2"
     inkscape:window-maximized="1"
     inkscape:current-layer="svg14">
    <inkscape:grid
       type="xygrid"
       id="grid837" />
  </sodipodi:namedview>
  <path
     style="opacity:1;fill:#4a4a4a;stroke-width:4"
     d="m 8,108 c 0,32.11092 28,64 72,64 48,0 104,-32 104,-84 C 184,36 141.99346,20 108,20 56,20 8,60 8,108 Z"
     id="path829"
     inkscape:connector-curvature="0"
     sodipodi:nodetypes="sssss" />
  <path
     style="fill:#ff837d;stroke-width:4"
     d="M 152,44 104,55.2 78,50.4 V 60 L 38,70.4 v 20 L 90,78 c 0,0 -2.602404,-12.914 10,-14 10.01346,-0.86292 12,8 12,8 l 48,-12 c 0,0 0,-4 -8,-16 z m 8,28 -20,4 c 0,0 -7.45712,29.86428 -32,36 -64,16 -70,14.4 -70,14.4 v 20 L 78.1,138 v 10 H 102 v -16 c 60,-12 58,-60 58,-60 z M 78.4,90 38,98.4 v 20 L 78.4,110 Z"
     id="path833"
     inkscape:connector-curvature="0"
     sodipodi:nodetypes="cccccccscccccscccccccccccc" />
</svg>
