<svg xmlns="http://www.w3.org/2000/svg" width="192" height="192" viewBox="0 0 50.8 50.8"><g transform="translate(-122.767 -114.64)"><rect width="40.217" height="40.217" x="128.058" y="119.932" rx="2.646" ry="2.646" style="fill:#ff837d;fill-opacity:1;stroke:none;stroke-width:5.70988;stroke-linecap:round;stroke-linejoin:round;stroke-opacity:1"/><path d="M79.8 49.7 86 38.9c1.8-3.1.7-7.2-2.4-9-3.1-1.8-7.2-.7-9 2.4l-6.2 10.8c-13.2-4.2-28.1 1.2-35.3 13.8-4.6 8-5.2 17.1-2.4 25.2l11.5-19.9c2.6-4.6 6.9-7.8 12-9.2 5.1-1.4 10.4-.7 15 2 9.4 5.4 12.7 17.6 7.2 27-5.4 9.4-17.5 12.7-27 7.2L56 77.7c3.1 1.8 7.2.7 9-2.4 1.8-3.2.7-7.2-2.4-9-3.1-1.8-7.2-.7-9 2.4l-21 36.4c-1.8 3.2-.7 7.2 2.4 9 3.1 1.8 7.2.7 9-2.4l6.2-10.8c13.2 4.2 28.1-1.2 35.3-13.8 7.3-12.5 4.5-28-5.7-37.4z" style="fill:#fff;fill-opacity:1;stroke-width:1.31976" transform="matrix(.28207 0 0 .28207 131.44 119.731)"/></g></svg>