<svg xmlns="http://www.w3.org/2000/svg" xml:space="preserve" id="svg2" width="192" height="192" version="1.1"><g id="layer1" transform="translate(0 -860.362)"><path id="path468" d="M119.311 924.266c41.744 16.46 47.196 47.904 49.167 56.581 0 0 4.635 30.947-15.69 41.933-24.058 13.005-75.487 10.336-97.476 6.105-29.796-5.734-33.004-30.515-32.123-41.838 2.155-39.07 34.72-56.105 47.058-61.18 2.553-1.05 3.8-3.782 2.7-6.315l-11.48-26.464c-3.15-7.628-.028-11.024 7.063-9.87 7.403 1.205 12.705-.14 15.229-6.703 1.598-4.154 4.01-7.12 7.791-7.12 5.006-.559 8.924 6.236 9.528 8.496 1.718 6.428 5.817 3.902 8.948 1.88 6.035-3.897 13.31-2.323 11.612 4.016-.757 2.827-1.821 5.185-3.79 9.04-4.464 8.741-4.444 18.87-3.913 24.758.248 2.748 2.807 5.668 5.376 6.68z" style="fill:#f8c18c;fill-opacity:1;stroke:none;stroke-width:1.37378px;stroke-linecap:butt;stroke-linejoin:miter;stroke-opacity:1"/><text xml:space="preserve" id="text472" x="74.881" y="1000.076" style="font-weight:700;font-size:64.3453px;line-height:1.25;font-family:Now;-inkscape-font-specification:&quot;Now Bold&quot;;letter-spacing:0;word-spacing:0;fill:#fff;fill-opacity:1;stroke-width:1.60863"><tspan id="tspan470" x="74.881" y="1000.076" style="fill:#fff;fill-opacity:1;stroke-width:1.60863">$</tspan></text><path id="path474" d="M113.837 915.996c-4.734 3.493-10.749 5.855-17.684 6.557-8.5.86-16.827-.932-23.903-4.58 1.267 3.031.088 6.25-2.565 7.992 8.642 4.244 18.58 6.256 28.508 5.252 7.952-.805 15.012-3.464 20.742-7.444-2.614-1.83-4.823-4.843-5.098-7.777z" style="fill:#fff;fill-opacity:1;stroke:none;stroke-width:1.37378px;stroke-linecap:butt;stroke-linejoin:miter;stroke-opacity:1"/></g><style id="style853" type="text/css">.st0{fill:#fff}</style></svg>