<svg width="192" height="192" version="1.1" viewBox="0 0 192 192" xmlns="http://www.w3.org/2000/svg">
 <path d="m29.936 20c-5.5038 0-9.9355 4.4318-9.9355 9.9355v132.13c0 5.5038 4.4318 9.9356 9.9355 9.9356h132.13c5.5038 0 9.9356-4.4318 9.9356-9.9356v-132.13c0-5.5038-4.4318-9.9355-9.9356-9.9355h-132.13z" style="fill:#ff837d;paint-order:stroke fill markers;stroke-width:.95"/>
 <path d="m58 96v38h38v38h66.064c5.5038 0 9.9356-4.4318 9.9356-9.9356v-28.064h-38v-38h-76z" style="fill:#9abeff;paint-order:stroke fill markers;stroke-width:.95"/>
 <path d="m20 58v104.06c0 5.5038 4.4318 9.9356 9.9355 9.9356h28.064 38v-38h-38v-76h-38z" style="fill:#f9de81;paint-order:stroke fill markers;stroke-width:.95"/>
 <path d="m96 20v38h38v76h38v-104.06c0-5.5038-4.4318-9.9355-9.9356-9.9355h-66.064z" style="fill:#98dc9a;paint-order:stroke fill markers;stroke-width:.95"/>
 <path d="m58 96 7.6-7.6h22.8v-22.8l7.6-7.6v38z" style="fill:#ba6561;stroke-width:.95"/>
 <path d="m96 58-7.6 7.6h-22.8v22.8l-7.6 7.6v-38z" style="fill:#fff;opacity:.25;stroke-width:.95"/>
 <path d="m20 96 7.6-7.6h22.8v-22.8l7.6-7.6v38z" style="fill:#c39a54;stroke-width:.95"/>
 <path d="m58 58-7.6 7.6h-22.8v22.8l-7.6 7.6v-38z" style="fill:#fff;opacity:.25;stroke-width:.95"/>
 <path d="m58 58 7.6-7.6h22.8v-22.8l7.6-7.6v38z" style="fill:#ba6561;stroke-width:.95"/>
 <path d="m96 20-7.6 7.6h-22.8v22.8l-7.6 7.6v-38z" style="fill:#fff;opacity:.25;stroke-width:.95"/>
 <path d="m20 58 7.6-7.6h22.8v-22.8l7.6-7.6v38z" style="fill:#ba6561;stroke-width:.95"/>
 <path d="m29.936 20c-5.5038 0-9.9355 4.4318-9.9355 9.9355v28.064l7.5996-7.5996v-22.801h22.801l7.5996-7.5996h-28.064z" style="fill:#fff;opacity:.25;stroke-width:.95"/>
 <path d="m169.1 22.904-4.6953 4.6953v22.801h-22.801l-7.5996 7.5996h38v-28.064c0-2.7519-1.1086-5.2356-2.9043-7.0312z" style="fill:#71a372;stroke-width:.95"/>
 <path d="m134 20v38l7.5996-7.5996v-22.801h22.801l4.6953-4.6953c-1.7957-1.7957-4.2794-2.9043-7.0312-2.9043h-28.064z" style="fill:#fff;opacity:.25;stroke-width:.95"/>
 <path d="m96 58 7.6-7.6h22.8v-22.8l7.6-7.6v38z" style="fill:#71a372;stroke-width:.95"/>
 <path d="m134 20-7.6 7.6h-22.8v22.8l-7.6 7.6v-38z" style="fill:#fff;opacity:.25;stroke-width:.95"/>
 <path d="m58 134 7.6-7.6h22.8v-22.8l7.6-7.6v38z" style="fill:#728dbe;stroke-width:.95"/>
 <path d="m96 96-7.6 7.6h-22.8v22.8l-7.6 7.6v-38z" style="fill:#fff;opacity:.25;stroke-width:.95"/>
 <path d="m20 134 7.6-7.6h22.8v-22.8l7.6-7.6v38z" style="fill:#c39a54;stroke-width:.95"/>
 <path d="m58 96-7.6 7.6h-22.8v22.8l-7.6 7.6v-38z" style="fill:#fff;opacity:.25;stroke-width:.95"/>
 <path d="m172 134-7.5996 7.5996v22.801h-22.801l-7.5996 7.5996h28.064c5.5038 0 9.9356-4.4318 9.9356-9.9356v-28.064z" style="fill:#728dbe;stroke-width:.95"/>
 <path d="m172 134-7.6 7.6h-22.8v22.8l-7.6 7.6v-38z" style="fill:#fff;opacity:.25;stroke-width:.95"/>
 <path d="m96 172 7.6-7.6h22.8v-22.8l7.6-7.6v38z" style="fill:#728dbe;stroke-width:.95"/>
 <path d="m134 134-7.6 7.6h-22.8v22.8l-7.6 7.6v-38z" style="fill:#fff;opacity:.25;stroke-width:.95"/>
 <path d="m58 172 7.6-7.6h22.8v-22.8l7.6-7.6v38z" style="fill:#c39a54;stroke-width:.95"/>
 <path d="m96 134-7.6 7.6h-22.8v22.8l-7.6 7.6v-38z" style="fill:#fff;opacity:.25;stroke-width:.95"/>
 <path d="m58 134-7.5996 7.5996v22.801h-22.801l-4.6953 4.6953c1.7957 1.7957 4.2794 2.9043 7.0312 2.9043h28.064v-38z" style="fill:#c39a54;stroke-width:.95"/>
 <path d="m20 134v28.064c0 2.7519 1.1086 5.2356 2.9043 7.0312l4.6953-4.6953v-22.801h22.801l7.5996-7.5996h-38z" style="fill:#fff;opacity:.25;stroke-width:.95"/>
 <path d="m134 96 7.6-7.6h22.8v-22.8l7.6-7.6v38z" style="fill:#71a372;stroke-width:.95"/>
 <path d="m172 58-7.6 7.6h-22.8v22.8l-7.6 7.6v-38z" style="fill:#fff;opacity:.25;stroke-width:.95"/>
 <path d="m96 96 7.6-7.6h22.8v-22.8l7.6-7.6v38z" style="fill:#ba6561;stroke-width:.95"/>
 <path d="m134 58-7.6 7.6h-22.8v22.8l-7.6 7.6v-38z" style="fill:#fff;opacity:.25;stroke-width:.95"/>
 <path d="m134 134 7.6-7.6h22.8v-22.8l7.6-7.6v38z" style="fill:#71a372;stroke-width:.95"/>
 <path d="m172 96-7.6 7.6h-22.8v22.8l-7.6 7.6v-38z" style="fill:#fff;opacity:.25;stroke-width:.95"/>
 <path d="m96 134 7.6-7.6h22.8v-22.8l7.6-7.6v38z" style="fill:#728dbe;stroke-width:.95"/>
 <path d="m134 96-7.6 7.6h-22.8v22.8l-7.6 7.6v-38z" style="fill:#fff;opacity:.25;stroke-width:.95"/>
</svg>
