<svg width="192" height="192" version="1.1" viewBox="0 0 192 192" xmlns="http://www.w3.org/2000/svg">
 <circle cx="96" cy="96" r="88" display="none" fill="none" opacity=".63" stroke="#b1b5bd"/>
 <circle cx="96" cy="96" r="88" fill="#98dc9a" stroke-width="0"/>
 <g fill="#fff" stroke-width="1.0947" aria-label="p">
  <path d="m74.558 81.813c-2.2331 0-4.1597 0.83194-5.6484 2.1893v-1.839h-4.1597v28.023h4.1597v-12.348c1.4887 1.3574 3.4153 2.1893 5.6484 2.1893 4.9479 0 8.8886-4.0284 8.8886-9.1076s-3.9408-9.1076-8.8886-9.1076zm-0.52544 14.362c-2.9337 0-5.2544-2.3207-5.2544-5.2544s2.3207-5.2544 5.2544-5.2544 5.2544 2.3207 5.2544 5.2544-2.3207 5.2544-5.2544 5.2544z"/>
  <path d="m118.36 81.813c-2.2331 0-4.1597 0.83194-5.6484 2.1893v-1.839h-4.1597v28.023h4.1597v-12.348c1.4887 1.3574 3.4153 2.1893 5.6484 2.1893 4.9479 0 8.8886-4.0284 8.8886-9.1076s-3.9408-9.1076-8.8886-9.1076zm-0.52544 14.362c-2.9337 0-5.2544-2.3207-5.2544-5.2544s2.3207-5.2544 5.2544-5.2544 5.2544 2.3207 5.2544 5.2544-2.3207 5.2544-5.2544 5.2544z"/>
 </g>
 <g fill="#fff" stroke-width="0">
  <rect x="87.739" y="94.946" width="16.42" height="3.284" ry="1.4618"/>
  <rect x="87.739" y="89.473" width="16.42" height="3.284" ry="1.4618"/>
  <rect x="87.739" y="83.999" width="16.42" height="3.284" ry="1.4618"/>
 </g>
</svg>
