<svg width="192" height="192" version="1.1" viewBox="0 0 192 192" xml:space="preserve" xmlns="http://www.w3.org/2000/svg"><path transform="translate(0,-1.7984)" d="m33.459 106.7s-0.005859 37.094-0.005859 47.721c0 11.643 14.757 23.361 24.186 23.361h38.361 38.361c9.4281 0 24.186-11.719 24.186-23.361 0-10.627-0.00586-47.721-0.00586-47.721h-32.324l-30.217 30.74-30.217-30.74h-32.324z" fill="#728dbe"/><path d="m65.723 104.9 30.277 30.743v-30.743zm30.281 0v30.743l30.277-30.743z" fill="#fff" stroke-width="1.0011"/><path transform="translate(0,-1.7984)" d="m65.783 106.7-9.5469 6.1367 2.7637 1.3125-4.2852 2.8848 41.285 39.816-30.217-50.15zm60.437 0-30.217 50.15 41.285-39.816-4.2852-2.8848 2.7637-1.3125-9.5469-6.1367z" fill="#9abeff"/><path transform="translate(0,-1.7984)" d="m65.783 106.7 30.217 50.15 30.217-50.15-30.217 30.74-30.217-30.74z" fill="#9abeff" fill-opacity=".75"/><path transform="translate(0,-1.7984)" d="m90.361 106.7v2e-3h0.0039c-2.9e-5 -1e-5 -0.0039-2e-3 -0.0039-2e-3zm0.0039 1e-3c0.01148 7e-3 2.2197 1.2886 2.8164 2.3543 0.41519 0.7415 0.38503 1.6737 0.37109 2.5234-0.1097 6.687-3.5684 19.742-3.5684 19.742l6.0156 6.1213 6.0156-6.1211s-3.4587-13.055-3.5684-19.742c-0.01394-0.84974-0.0441-1.7819 0.37109-2.5234 0.59667-1.0656 2.8049-2.3469 2.8164-2.3535h-5.6348zm11.27 7.4e-4h4e-3v-7.4e-4s-4e-3 7.3e-4 -4e-3 7.4e-4z" fill="#56595b"/><circle transform="translate(0,-1.7984)" cx="68.909" cy="147.96" r="4.9091" fill="#fff"/><circle transform="translate(0,-1.7984)" cx="68.909" cy="162.96" r="4.9091" fill="#fff"/><path d="m49.002 104.9c-0.36538 12.789-7.3861 18.671-15.546 22.841l-4.2e-4 3.0348c11.635-5.3333 18.362-12.795 18.561-25.876z" fill="#f9de81" stroke-width="1.0048"/><path transform="translate(0,-1.7984)" d="m33.453 118.66-1.3e-4 2.8164c7.0947-3.4396 8.7657-9.5067 9.0472-14.776h-2.8438c0.13681 5.1535-1.8889 8.8581-6.2034 11.96z" fill="#f9de81"/><circle transform="matrix(-1,0,0,1,0,-1.7984)" cx="-123.09" cy="147.96" r="4.9091" fill="#fff"/><circle transform="matrix(-1,0,0,1,0,-1.7984)" cx="-123.09" cy="162.96" r="4.9091" fill="#fff"/><path transform="translate(0,-1.7984)" d="m144.38 127c-0.96448 0-1.3438 2.5625-1.3438 2.5625-1.3564-0.65461-2.9628-0.72567-4.5625-0.8125 0.3899 1.3067 0.8066 2.6012 2.0938 3.5 1.3286 0.49283 2.5636 0.18726 3.8125 0 1.2489 0.18726 2.4839 0.49283 3.8125 0 1.2872-0.89883 1.7038-2.1933 2.0938-3.5-1.5997 0.0868-3.2061 0.15789-4.5625 0.8125 0 0-0.37927-2.5625-1.3438-2.5625z" fill="#f9de81"/><path transform="translate(0,-1.7984)" d="m33.453 100.68h125.09s1.4488-51.062-62.551-51.062c-64 0-62.543 51.062-62.543 51.062z" fill="#98dc9a"/><circle transform="translate(0,-1.7984)" cx="76.906" cy="82.719" r="7.9688" fill="#fff"/><circle transform="translate(0,-1.7984)" cx="115.41" cy="82.719" r="7.9688" fill="#fff"/><path d="m137.75 50.827c-26.918 7.1252-54.726 7.5374-83.5 0 0 0-1.3285 4.8912 1.4167 7.0799 15.148 12.077 63.741 12.318 80.66-1e-6 2.702-1.9672 1.4231-7.0799 1.4231-7.0799z" fill="#728dbe"/><path d="m137.75 50.827c-28.174 8.0358-55.993 7.7096-83.5 0-0.48488-0.90177-0.55637-2.7629-0.375-3.4897 28.337 6.2691 56.413 6.0784 84.25 0 0.48472 1.1275 0.34076 2.7211-0.375 3.4897z" fill="#f9de81"/><path d="m138.12 47.577c-28.428 6.2281-56.497 5.9775-84.25 0 0 0-10.559-2.2958-10.559-6.8075 0-16.111 33.281-24.755 52.684-24.755 19.403 0 52.684 8.6573 52.684 24.755 0 4.4312-10.559 6.8075-10.559 6.8075z" fill="#728dbe"/><path transform="translate(0,-1.7984)" d="m91.656 45.5s-0.73552-3.7427-2.125-4.8125c-3.2676-2.5157-12.219-1.9375-12.219-1.9375s1.4947 4.3165 3.2812 5.4688c3.1196 2.0121 11.062 1.2812 11.062 1.2812z" fill="#f9de81"/><path transform="translate(0,-1.7984)" d="m100.34 45.5s0.73552-3.7427 2.125-4.8125c3.2676-2.5157 12.219-1.9375 12.219-1.9375s-1.4948 4.3165-3.2812 5.4688c-3.1196 2.0121-11.062 1.2812-11.062 1.2812z" fill="#f9de81"/><ellipse transform="translate(0,-1.7984)" cx="96" cy="41.719" rx="2.978" ry="5.2591" fill="#f9de81"/></svg>
