<?xml version="1.0" encoding="UTF-8" standalone="no"?>
<!DOCTYPE svg PUBLIC "-//W3C//DTD SVG 1.1//EN" "http://www.w3.org/Graphics/SVG/1.1/DTD/svg11.dtd">
<svg width="100%" height="100%" viewBox="0 0 192 192" version="1.1" xmlns="http://www.w3.org/2000/svg" xmlns:xlink="http://www.w3.org/1999/xlink" xml:space="preserve" xmlns:serif="http://www.serif.com/" style="fill-rule:evenodd;clip-rule:evenodd;stroke-linejoin:round;stroke-miterlimit:2;">
    <g id="Layer2">
        <g transform="matrix(1,0,0,1,8,8)">
            <path d="M164.5,21.5C164.5,15.981 160.019,11.5 154.5,11.5L21.5,11.5C15.981,11.5 11.5,15.981 11.5,21.5L11.5,154.5C11.5,160.019 15.981,164.5 21.5,164.5L154.5,164.5C160.019,164.5 164.5,160.019 164.5,154.5L164.5,21.5Z" style="fill:rgb(140,114,189);"/>
        </g>
        <g transform="matrix(0.808426,0,0,0.808426,18.1471,17.8621)">
            <path d="M99.379,70.501L74.632,46.823C73.519,45.758 73.166,44.124 73.74,42.695C74.313,41.266 75.698,40.329 77.238,40.329C80.323,40.329 83.551,40.329 85.868,40.329C87.954,40.329 89.937,41.237 91.3,42.816L115.202,70.501L125.777,70.501C127.236,70.501 128.635,71.081 129.667,72.112C130.698,73.144 131.277,74.543 131.277,76.001C131.277,77.583 131.277,79.207 131.277,80.422C131.277,81.513 130.393,82.397 129.303,82.397L118.956,82.397L118.956,143.738C118.956,145.069 117.878,146.148 116.547,146.148C114.784,146.148 112.307,146.148 109.994,146.148C108.312,146.148 106.698,145.48 105.509,144.29C104.319,143.101 103.651,141.488 103.651,139.805L103.651,125.583C103.651,125.583 71.972,138.668 69.646,103.773L69.646,82.397L63.242,82.397C60.444,82.397 58.176,80.129 58.176,77.331C58.176,75.733 58.176,74.048 58.176,72.752C58.176,71.509 59.184,70.501 60.427,70.501L99.379,70.501ZM103.651,82.397L85.373,82.397L85.373,103.773L85.373,103.784C85.353,104.272 84.867,119.859 103.651,112.549L103.651,82.397Z" style="fill:white;"/>
        </g>
    </g>
</svg>
