<?xml version="1.0" encoding="UTF-8" standalone="no"?>
<svg
   width="192"
   height="192"
   viewBox="0 0 50.800003 50.8"
   version="1.1"
   id="svg1407"
   sodipodi:docname="photosync_addon_bundle.svg"
   inkscape:version="1.2 (dc2aedaf03, 2022-05-15)"
   inkscape:export-filename="photosync_addon_bundle.png"
   inkscape:export-xdpi="96"
   inkscape:export-ydpi="96"
   xml:space="preserve"
   xmlns:inkscape="http://www.inkscape.org/namespaces/inkscape"
   xmlns:sodipodi="http://sodipodi.sourceforge.net/DTD/sodipodi-0.dtd"
   xmlns="http://www.w3.org/2000/svg"
   xmlns:svg="http://www.w3.org/2000/svg"
   xmlns:rdf="http://www.w3.org/1999/02/22-rdf-syntax-ns#"
   xmlns:cc="http://creativecommons.org/ns#"
   xmlns:dc="http://purl.org/dc/elements/1.1/"><sodipodi:namedview
     pagecolor="#ffffff"
     bordercolor="#666666"
     borderopacity="1"
     objecttolerance="10"
     gridtolerance="10"
     guidetolerance="10"
     inkscape:pageopacity="0"
     inkscape:pageshadow="2"
     inkscape:window-width="1884"
     inkscape:window-height="1052"
     id="namedview103"
     showgrid="false"
     inkscape:zoom="2.4647399"
     inkscape:cx="58.829737"
     inkscape:cy="146.06004"
     inkscape:window-x="36"
     inkscape:window-y="0"
     inkscape:window-maximized="1"
     inkscape:current-layer="svg1407"
     inkscape:document-rotation="0"
     showguides="false"
     fit-margin-top="40"
     fit-margin-left="40"
     fit-margin-right="40"
     fit-margin-bottom="40"
     lock-margins="true"
     inkscape:showpageshadow="0"
     inkscape:pagecheckerboard="0"
     inkscape:deskcolor="#d1d1d1" /><defs
     id="defs1401" /><metadata
     id="metadata1404"><rdf:RDF><cc:Work
         rdf:about=""><dc:format>image/svg+xml</dc:format><dc:type
           rdf:resource="http://purl.org/dc/dcmitype/StillImage" /></cc:Work></rdf:RDF></metadata><rect
     style="fill:#99bdfe;fill-opacity:1;fill-rule:evenodd;stroke:none;stroke-width:0.262854;stroke-opacity:1"
     width="40.216667"
     height="40.216667"
     x="5.2916675"
     y="5.291667"
     rx="2.6285403"
     id="rect981"
     ry="2.6285403" /><path
     style="fill:#f8c18c;fill-opacity:1;stroke:none;stroke-width:1.56463;stroke-dasharray:none;stroke-opacity:1"
     d="m 33.301645,22.948739 c 0,0 3.211527,-2.521846 4.95283,-2.531654 1.7413,-0.0098 1.618863,4.908257 1.618863,4.908257 l -0.377516,0.518244 -3.943519,0.183693 z"
     id="path1188-6"
     sodipodi:nodetypes="cscccc" /><path
     style="fill:#f58f8a;fill-opacity:1;stroke:none;stroke-width:1.56463;stroke-dasharray:none;stroke-opacity:1"
     d="m 34.914576,21.883775 c 0,0 1.551038,-1.225188 3.517608,-1.334306 1.966573,-0.109118 -1.018118,-6.229995 -1.018118,-6.229995 l -4.987871,1.488994 -3.980833,4.238854 -0.08735,1.699996 4.786153,1.592042 z"
     id="path1186-7"
     sodipodi:nodetypes="cscccccc" /><path
     style="fill:#bd9aff;fill-opacity:1;stroke:none;stroke-width:1.56463;stroke-dasharray:none;stroke-opacity:1"
     d="m 28.991823,21.219541 c 0,0 2.020627,-4.193421 8.062951,-6.036868 2.377997,-0.7255 -1.319779,-5.8466858 -1.319779,-5.8466858 l -7.490145,1.7658608 -5.268449,7.643331 0.132993,3.452699 5.572921,-0.307672 z"
     id="path1184-5"
     sodipodi:nodetypes="cscccccc" /><path
     style="fill:#8c72bd;fill-opacity:1;stroke:none;stroke-width:1.56463;stroke-dasharray:none;stroke-opacity:1"
     d="m 23.571408,21.232389 c 0,0 1.247536,-3.338446 5.993569,-9.954262 1.963524,-2.7370924 -10.1261,2.24707 -10.1261,2.24707 l -1.227369,5.360514 1.394842,3.4227 z"
     id="path1182-3"
     sodipodi:nodetypes="cscccc" /><path
     style="fill:#70a270;fill-opacity:1;stroke:none;stroke-width:1.56463;stroke-dasharray:none;stroke-opacity:1"
     d="m 19.522569,21.309459 c 0,0 -1.219616,-3.024044 0.93909,-7.611019 -0.906968,-0.94642 -6.206482,1.094996 -6.206482,1.094996 l 0.15477,9.073251 3.600041,2.369834 1.391006,-2.839506 z"
     id="path1180-5"
     sodipodi:nodetypes="ccccccc" /><path
     style="fill:#97db99;fill-opacity:1;stroke:none;stroke-width:1.56463;stroke-dasharray:none;stroke-opacity:1"
     d="m 16.939202,25.161167 c 0,0 -3.324173,-4.084123 -2.123047,-10.149656 -4.38772,0.998075 -4.454604,1.06075 -4.454604,1.06075 l 2.578818,10.278335 3.45525,0.29966 z"
     id="path1028-6"
     sodipodi:nodetypes="cccccc" /><rect
     style="fill:none;stroke:#ffffff;stroke-width:1.46921;stroke-dasharray:none;stroke-opacity:1"
     id="rect364-2"
     width="26.847578"
     height="26.847578"
     x="5.561532"
     y="18.030834"
     transform="rotate(-15.198868)" /><path
     id="rect7018-9"
     style="fill:#56595b;fill-opacity:1;stroke-width:0.930267"
     d="m 18.827792,21.154265 c -1.560371,0 -1.463668,0.571375 -2.354895,1.662431 0,0 -0.214005,0.290596 -1.838131,2.308386 H 5.2916668 v 17.754472 c 0,1.45621 1.1725697,2.628781 2.6287802,2.628781 h 34.959107 c 1.45621,0 2.628781,-1.172571 2.628781,-2.628781 V 25.125082 h -9.456788 c -1.624126,-2.01779 -1.83813,-2.308386 -1.83813,-2.308386 -0.891229,-1.091056 -0.794525,-1.662431 -2.354896,-1.662431 -4.343576,0 -8.687153,0 -13.030729,0 z"
     sodipodi:nodetypes="ccccssssccccc" /><rect
     style="fill:#ffffff;fill-opacity:1;stroke:none;stroke-width:1.47431;stroke-linecap:round"
     id="rect2667"
     width="16.53376"
     height="11.452425"
     x="17.280535"
     y="31.209591"
     ry="0.79695958" /><rect
     style="fill:#56595b;fill-opacity:1;stroke:none;stroke-width:1.47431;stroke-linecap:round"
     id="rect4278"
     width="18.272238"
     height="1.3749638"
     x="16.263882"
     y="34.813969" /><path
     d="m 20.871879,25.604443 c -0.41051,0.382673 -0.676711,0.873913 -0.770891,1.414865 -0.09394,0.5463 -0.0218,1.055384 0.221485,1.556376 0.09857,0.204615 0.389534,0.589915 0.551925,0.732663 0.232712,0.205637 0.348564,0.273219 1.182862,0.694396 2.621203,1.321946 3.055158,1.535528 3.139085,1.550105 0.253949,0.04203 0.496862,-0.137923 0.529468,-0.392235 0.01104,-0.08122 -0.07508,-0.609202 -0.584219,-3.552327 -0.141318,-0.819464 -0.175427,-0.956754 -0.302679,-1.236895 -0.05505,-0.123592 -0.09165,-0.180471 -0.252404,-0.397466 -0.211976,-0.288596 -0.326038,-0.403173 -0.575151,-0.576638 -0.958439,-0.672538 -2.291569,-0.583545 -3.139475,0.207153 z"
     id="path4328"
     style="fill:#ffffff;fill-opacity:1;stroke-width:0.000766108"
     sodipodi:nodetypes="sccccccccccss" /><path
     d="m 21.410288,26.149531 c -0.284329,0.265048 -0.468706,0.605292 -0.533938,0.979969 -0.06506,0.37838 -0.0151,0.730984 0.153406,1.077983 0.06827,0.141721 0.269801,0.408589 0.382278,0.50746 0.161181,0.142428 0.241423,0.189237 0.819277,0.480955 1.815508,0.915611 2.116075,1.063544 2.174205,1.07364 0.175892,0.02911 0.344139,-0.09553 0.366722,-0.271672 0.0076,-0.05626 -0.052,-0.421948 -0.404643,-2.460427 -0.09788,-0.56758 -0.121506,-0.66267 -0.209644,-0.856702 -0.03813,-0.0856 -0.06348,-0.124999 -0.17482,-0.275295 -0.14682,-0.199888 -0.225822,-0.279247 -0.398363,-0.399393 -0.663838,-0.465816 -1.587195,-0.404177 -2.174476,0.14348 z"
     id="path4328-2"
     style="fill:#56595b;fill-opacity:1;stroke-width:0.000530624"
     sodipodi:nodetypes="sccccccccccss" /><path
     d="m 30.053155,26.614842 c -0.373388,-0.310345 -0.824129,-0.48495 -1.298678,-0.506484 -0.479111,-0.02074 -0.908083,0.09696 -1.311354,0.360648 -0.164789,0.107016 -0.463552,0.398939 -0.568255,0.553943 -0.150966,0.222243 -0.196265,0.329069 -0.466267,1.091196 -0.847167,2.394312 -0.982895,2.790126 -0.986207,2.863745 -0.0082,0.222538 0.172817,0.411275 0.394633,0.411383 0.07091,5.72e-4 0.514568,-0.1312 2.984456,-0.890688 0.687747,-0.211087 0.801827,-0.255405 1.028287,-0.395312 0.10003,-0.06078 0.144829,-0.09843 0.313428,-0.260165 0.224433,-0.213541 0.310258,-0.323983 0.431816,-0.556774 0.472105,-0.89621 0.249624,-2.030502 -0.521856,-2.671487 z"
     id="path4328-6"
     style="fill:#ffffff;fill-opacity:1;stroke-width:0.000662787"
     sodipodi:nodetypes="sccccccccccss" /><rect
     style="fill:#56595b;fill-opacity:1;stroke:none;stroke-width:1.224;stroke-linecap:round"
     id="rect4278-3"
     width="12.594375"
     height="1.3749638"
     x="31.293037"
     y="-26.176477"
     transform="rotate(90)" /><path
     d="m 29.558663,27.138066 c -0.258617,-0.214953 -0.570811,-0.335888 -0.899495,-0.350803 -0.331844,-0.01437 -0.628961,0.06716 -0.908276,0.249793 -0.114136,0.07412 -0.321066,0.276314 -0.393587,0.383674 -0.104562,0.15393 -0.135937,0.227922 -0.322947,0.755788 -0.586768,1.658357 -0.680777,1.932508 -0.68307,1.983499 -0.0057,0.154135 0.119696,0.284858 0.273332,0.284933 0.04912,3.97e-4 0.356402,-0.09087 2.067105,-0.616911 0.47635,-0.146205 0.555364,-0.1769 0.712216,-0.273802 0.06928,-0.0421 0.100312,-0.06818 0.217088,-0.180198 0.155447,-0.147903 0.214891,-0.224398 0.299086,-0.385635 0.326991,-0.620736 0.172895,-1.406374 -0.36145,-1.850335 z"
     id="path4328-6-7"
     style="fill:#56595b;fill-opacity:1;stroke-width:0.000459062"
     sodipodi:nodetypes="sccccccccccss" /></svg>
