<svg xmlns="http://www.w3.org/2000/svg" viewBox="0 0 192 192"><title>phyphox</title><rect x="19.5" y="19.5" width="153" height="153" rx="10" fill="#f8c18c"/><path d="M87.57,55.51l1,7.46-3,.44-6.08.85c-1.77.25-3.53.51-5.3.73a1.39,1.39,0,0,0-1.13.7,8.69,8.69,0,0,0-1,5.62c.3,2.69.7,5.36,1.08,8s.74,5.09,1.09,7.64.7,5.1,1.06,7.65.73,5.09,1.09,7.64c.32,2.27.62,4.54.94,6.81s.66,4.57,1,6.86c.28,2,.55,4,.83,6,.08.53.17,1.07.26,1.65l39.19-5.51c-.15-1.11-.28-2.17-.43-3.22-.33-2.33-.65-4.65-1-7s-.66-4.57-1-6.86-.63-4.54-1-6.81-.65-4.57-1-6.86l-.84-6c-.28-2-.55-4-.84-6s-.56-4-.86-6.08a22.68,22.68,0,0,0-1.15-5.66,14.8,14.8,0,0,0-1.4-2.44,2,2,0,0,0-2.23-.85c-2.62.45-5.27.77-7.91,1.14l-6.15.88-1-7.51c1-.14,1.89-.28,2.82-.4,2-.29,4.09-.6,6.14-.85,3.85-.48,7.56-.16,10.83,2.21a12.42,12.42,0,0,1,4.61,7,52.27,52.27,0,0,1,1,5.47c.33,2,.59,4.08.88,6.13s.55,4,.83,6l.84,6c.29,2,.57,4,.86,6.08s.58,4,.86,6.08l.84,6c.28,2,.55,4,.84,6s.57,4,.86,6.08c.32,2.29.67,4.57,1,6.86a51.28,51.28,0,0,1,.59,6.28,12,12,0,0,1-4.1,9.49,14.25,14.25,0,0,1-6.72,3.15c-2.26.44-4.56.71-6.84,1s-4.47.63-6.7,1l-6.08.86c-1.56.22-3.12.48-4.69.61-4.41.39-8.51-.29-11.71-3.72a13.84,13.84,0,0,1-3.38-6.91c-.45-2.22-.71-4.48-1-6.73s-.66-4.57-1-6.86l-.84-6q-.42-3-.85-6t-.85-6c-.28-2-.55-4-.84-6s-.57-4-.85-6l-1-7q-.48-3.41-.94-6.81c-.25-1.77-.54-3.53-.73-5.3-.47-4.47.17-8.63,3.58-11.93a13.5,13.5,0,0,1,6.81-3.44c2.2-.45,4.44-.71,6.67-1.05l3.62-.53Zm17.79,73.29-10,1.4.72,5.13,10-1.4Z" fill="#fff"/><path d="M98.49,103.41l.45-5c.18-2,.33-4.09.53-6.14.18-1.79.35-3.59.62-5.38a11.31,11.31,0,0,1,.74-2.81,1.86,1.86,0,0,1,3.38-.38,14.56,14.56,0,0,1,1.4,2.5c.84,1.79,1.63,3.59,2.41,5.41.24.57.59.66,1.15.57,1.12-.19,2.26-.33,3.47-.49l.46,3.11-2.55.36c-.69.09-1.39.14-2.07.28a2.07,2.07,0,0,1-2.32-.89,32.35,32.35,0,0,1-1.67-3.06c-.48-1-.88-2-1.45-3-.12,1-.26,2-.35,3-.23,2.61-.44,5.22-.67,7.83-.18,2.11-.36,4.23-.6,6.35a21.75,21.75,0,0,1-.57,3,2,2,0,0,1-3.81.41,39.34,39.34,0,0,1-1.7-4.7c-1.75-6.46-3.4-12.95-5.13-19.41-.65-2.43-1.41-4.82-2.12-7.23a.45.45,0,0,0-.23-.27c-.16,1.46-.32,2.93-.46,4.39-.19,1.89-.34,3.79-.54,5.68-.22,2-.41,4.12-.73,6.16-.23,1.42-.63,2.81-1,4.2A1.45,1.45,0,0,1,83.82,99l-5.58.77-.45-3.13c1.25-.17,2.47-.35,3.7-.49.56-.06,1-.17,1.06-.86.3-2.07.71-4.14,1-6.22s.45-4.45.67-6.68c.16-1.65.26-3.31.5-4.95a36.22,36.22,0,0,1,.91-4.5,2,2,0,0,1,3.73-.4,28.77,28.77,0,0,1,1.77,4.18c1.4,4.81,2.69,9.65,4,14.48,1,3.86,2,7.72,3.06,11.58.06.23.14.45.21.67Z" fill="#fff"/><path d="M67.84,98l.44,3.11c-1,.16-2,.34-3,.45a1.67,1.67,0,0,1-1.73-1c-.62-1.35-1.18-2.72-1.74-4.09s-1-2.59-1.55-4a2.93,2.93,0,0,0-.12.55c-.13,2.52-.21,5-.38,7.57a43.37,43.37,0,0,1-1,8.49,5,5,0,0,1-.32.84,2.37,2.37,0,0,1-4,.84A8,8,0,0,1,53,108.79c-.69-1.18-1.27-2.43-1.91-3.65-.4-.78-.83-1.56-1.23-2.34a1.59,1.59,0,0,1,.57-2.2,1.54,1.54,0,0,1,2.15.63c.87,1.58,1.66,3.2,2.49,4.8.22.42.48.82.72,1.23l.19,0c.14-1.1.35-2.2.41-3.31.23-3.69.37-7.38.61-11.07.1-1.66.33-3.32.56-5A3.44,3.44,0,0,1,58,86.58a1.73,1.73,0,0,1,2.65-.32,6.83,6.83,0,0,1,1.22,1.88c1.17,2.84,2.28,5.71,3.41,8.57.12.32.27.62.37,1,.14.51.48.58.94.49S67.39,98,67.84,98Z" fill="#fff"/><path d="M138.2,90.15c.42-1,.8-1.83,1.21-2.69a1.52,1.52,0,0,1,1.63-1,1.39,1.39,0,0,1,1.31,1.06,1.83,1.83,0,0,1,0,1c-.65,1.52-1.31,3-2,4.51a3.66,3.66,0,0,1-1.13,1.22,1.75,1.75,0,0,1-2.36-.27,5.59,5.59,0,0,1-1-1.55c-.88-2.07-1.68-4.18-2.52-6.27,0-.08-.08-.17-.19-.41-.09.9-.16,1.65-.25,2.39s-.17,1.53-.33,2.28c-.31,1.47-.72,1.79-2.36,2l-6.76.91a3.05,3.05,0,0,1-.31,0l-.33-2.2a4,4,0,0,0-.07-.5c-.1-.33,0-.43.34-.47q3.08-.39,6.15-.82a.56.56,0,0,0,.37-.36c.14-1,.22-2.09.35-3.13.21-1.74.41-3.47.69-5.2a1.94,1.94,0,0,1,1.26-1.56,1.72,1.72,0,0,1,2.21.87,27.45,27.45,0,0,1,1.49,3.21c.83,2.08,1.6,4.18,2.4,6.26C138,89.71,138.08,89.89,138.2,90.15Z" fill="#fff"/><path d="M90.53,46l1.24,8.82-4.16.59-1.25-8.83Z" fill="#fff"/></svg>