<svg xmlns="http://www.w3.org/2000/svg" viewBox="0 0 172.06 172.36"><path fill="#fff" d="M93.76 85.7a40.82 40.82 0 0 0-2.5-9.29 41.66 41.66 0 1 0-65.23-16.69A41.66 41.66 0 0 0 41.63 132a41.66 41.66 0 1 0 52.18-46.3Z"/><path fill="#98dc9a" d="M160.26 72.75a2.09 2.09 0 0 1-.34-2.59 44.59 44.59 0 0 0 2.66-25.18c-5.07-27.17-34.22-46-62.87-33.76a2.66 2.66 0 0 1-3.23-.49C85.11 1.5 72.21-2.09 57.84 1.18c-23 5.23-37.75 25.61-35.36 48.75a2.57 2.57 0 0 1-1.45 2.8C4.96 63.58-2.12 78.64.55 97.91a44.64 44.64 0 0 0 34.66 37.66 3.07 3.07 0 0 1 2.7 2.62 45.55 45.55 0 0 0 60.12 31.23c9.93-3.76 19.33-11 24.8-20.08 1-1.63.18-2.53.06-4.59a23.46 23.46 0 0 1 .55-3.46v-.24l18.79-1.6c1.06 1.82 2.09 3.63 3 5.39 15.67-8 25.26-21.2 26.68-39 1.02-12.6-3.33-23.66-11.65-33.09ZM29.71 41.85a14.84 14.84 0 0 1 5.15-11c4.08-3.44 8.8-3.49 14-2-3.31-6.06-3.63-11.77 1.17-16.75a15.26 15.26 0 0 1 16-4.33c7 2 9.24 7.44 9.38 14.51 3.25-3.47 6.73-5.78 11.37-5.52s8.16 2.7 10.82 6.38a15.32 15.32 0 0 1 3 11.58c-.86 5.67-4.63 8.89-9.95 10.77 7.54 4.15 9.87 11.16 7.76 17.32a16.72 16.72 0 0 1-7.22 9.16 12.93 12.93 0 0 1-11.76 1.27 5.54 5.54 0 0 0 .52.78 58.47 58.47 0 0 0 4.69 4l-9 2.52a81.23 81.23 0 0 1-4.43-7.68c-4.89 7.81-12.39 9.84-20.1 5.56-8-4.45-9.47-11.27-4.47-21.51-4.7 1-9 .47-12.59-2.85s-4.62-7.54-4.34-12.21Zm26.66 76.33a5.72 5.72 0 0 1-1.34 3.79c-2.07 2.54-4.61 2.33-7.63-.35-1.26 3.69-3.51 5-6.64 3.88s-4.07-3.8-2.57-7.59c-4.28-.68-5.89-2.44-5.49-6 .34-3 2.33-4.35 6.37-4.18-.94-3.82.22-6.32 3.27-7 3.41-.8 5.42.66 6.28 4.2 1.72-.24 3.46-.85 5-.56a5.48 5.48 0 0 1 2.93 2.58c1.69 2.82.7 5.21-2.3 6.88.78 1.42 1.92 2.81 2.12 4.35Zm43.6 25.92c-1.23 3.75-4.15 5.14-8.23 5 2.27 2.48 3.67 5 2.69 8.22a8.86 8.86 0 0 1-4.61 5.35c-4.9 2.56-9.06.75-11.51-5.17-1.33 2.39-2.91 4.42-5.65 4.9a8.33 8.33 0 0 1-7.21-2.2c-4.21-3.75-4-8 .88-13.15-4-.6-6.68-2.62-7.06-6.69a9 9 0 0 1 4.15-8.79c3.11-2.06 6.12-1.32 9.18.91-.31-3.3.07-6.22 2.78-8.25a8.74 8.74 0 0 1 6.72-1.55c5.35.76 7.41 4.37 6.34 11.06 3.28-1.69 6.49-2 9.26.75a8.84 8.84 0 0 1 2.27 9.58Z"/><ellipse cx="122.16" cy="95.68" fill="#fff" rx="6.16" ry="6.59"/><path fill="#ff837d" d="m161.24 148.35-2.69 2.3c.25-2 .46-3.65.67-5.32l-.45-.09c-.52 1.45-1 2.9-1.67 4.68-.32-1-.54-1.73-.87-2.78-.86 2.43.41 4.77-1 6.43l-9.79-3.67c.79-7.61-3.31-13.7-7-20 3.25-.56 6.31-1 9.34-1.64a10.5 10.5 0 0 1 6.53.44 7.71 7.71 0 0 0 1.68.35l.2-.5-3.76-2.35 4.73-1.6c0-.2-.09-.4-.14-.59l-4.91.22 2.9-3.7-.48-.45c-1.62 1.3-3.2 2.64-4.88 3.86a4.65 4.65 0 0 1-2.43 1c-2.72 0-5.46-.14-8.18-.32-4.6-.32-5.54-1.09-6.29-5a11.53 11.53 0 0 1-.1-1.67c-.12-3.4-.2-6.81-.39-10.21a2.27 2.27 0 0 1 1.16-2.26 24.21 24.21 0 0 0 7.94-9 17.57 17.57 0 0 0 .8-2.93c-4.1 2.11-7.52 4.26-11.66 4.71 1.31-7-5.33-12.88-10.84-11a3 3 0 0 1-1.83-.08c-3.44-1.23-7-1.67-10.37-.28-2.93 1.22-5.36.5-7.93-.59-1-.4-1.94-.82-2.9-1.25-9.33-4.09-9.88-5.08-17.14-11.77-1.37-.24-7.07-7.2-6.88-6.15 0 .07-1.6 6.43-1.66 6.29a39 39 0 0 0 10.38 14.48c4.25 3.77 8.12 7.81 13.29 10.4a19.37 19.37 0 0 0-.46 10.55c2.24 8.35 7.85 13.46 15.84 16 3.34 1.07 6.88 1.5 10.31 2.29a10.84 10.84 0 0 1 2.2 1.14l-1.95 1.48c-2.76 2.1-5.63 4.08-8.25 6.35a12.82 12.82 0 0 1-6.6 3.07 13.31 13.31 0 0 0-1.58.44l.07.44 4.27.41-3.39 3.7c.13.15.27.29.4.43l4.24-2.43c-.33 1.87-.58 3.21-.83 4.56l.48.11a5.46 5.46 0 0 0 .79-1.38c1.1-4.5 4.16-7.09 8.3-8.68a13.72 13.72 0 0 0 1.32-.68l3.68-1.9.55.34c-.39 3.43-.83 6.85-1.16 10.28s-.8 7.18 1.19 10.51a1.8 1.8 0 0 1 .14 1.23c-.87 3.16-2.13 6.1-5 8-1.19.77-1.28 1.76-.37 2.62 1.42 1.35 3 2.52 4.56 3.75.12.1.34.09.55.13.05-.36.09-.69.13-1.07l4.51 1 .13-.33-2.66-1.55 2.16-.43a36.75 36.75 0 0 0-3.79-.94c-.59-.17-1-.82-1.58-1.26a9.21 9.21 0 0 1 1.21-1.11c2.86-1.73 5.73-3.42 8.6-5.11a4.09 4.09 0 0 1 1.14-.54c4.23-.92 8.46-1.81 12.69-2.71 2.76-.59 5.58-1 8.21.23 2.21 1 3 .79 3.79-1.46.66-2 1.56-3.87 2.36-5.8.21-.51.46-1 .69-1.49Zm-37.28-47.92c-3 0-6-3.1-6-6.37a3.86 3.86 0 0 1 3.78-4.17c3 0 6 3.17 6.06 6.39a3.85 3.85 0 0 1-3.84 4.15Z"/><path fill="#56595b" d="M126.03 96.51a1.92 1.92 0 0 1-1.68 1.1c-1.66.19-3.56-2.24-3.43-4.12.08-1.07.58-1.74 1.75-1.68 1.61.08 3.44 2.3 3.36 4.7Z"/><path fill="#fff" d="M88.44 133.73c3.28-1.69 6.49-2 9.26.75a8.84 8.84 0 0 1 2.27 9.59c-1.23 3.75-4.15 5.14-8.23 5 2.27 2.48 3.67 5 2.69 8.22a8.86 8.86 0 0 1-4.61 5.35c-4.9 2.56-9.06.75-11.51-5.17-1.33 2.39-2.91 4.42-5.65 4.9a8.33 8.33 0 0 1-7.21-2.2c-4.21-3.75-4-8 .88-13.15-4-.6-6.68-2.62-7.06-6.69a9 9 0 0 1 4.15-8.79c3.11-2.06 6.12-1.32 9.18.91-.31-3.3.07-6.22 2.78-8.25a8.74 8.74 0 0 1 6.72-1.55c5.35.78 7.41 4.39 6.34 11.08ZM47.36 121.62c-1.26 3.69-3.51 5-6.64 3.88s-4.07-3.8-2.57-7.59c-4.28-.68-5.89-2.44-5.49-6 .34-3 2.33-4.35 6.37-4.18-.94-3.82.22-6.32 3.27-7 3.41-.8 5.42.66 6.28 4.2 1.72-.24 3.46-.85 5-.56a5.48 5.48 0 0 1 2.93 2.58c1.69 2.82.7 5.21-2.3 6.88.76 1.46 1.93 2.85 2.13 4.36a5.72 5.72 0 0 1-1.31 3.78c-2.11 2.54-4.65 2.33-7.67-.35Z"/><circle cx="65.25" cy="43.82" r="10.87" fill="#f9de81"/><circle cx="44.98" cy="113.19" r="3.52" fill="#f9de81"/><circle cx="79.87" cy="143.18" r="6.16" fill="#f9de81"/></svg>