<?xml version="1.0" encoding="UTF-8" standalone="no"?>
<svg
   version="1.1"
   id="Layer_1"
   x="0px"
   y="0px"
   width="192px"
   height="192px"
   viewBox="0 0 192 192"
   xml:space="preserve"
   sodipodi:docname="pimple_popper.svg"
   inkscape:version="1.2 (dc2aedaf03, 2022-05-15)"
   xmlns:inkscape="http://www.inkscape.org/namespaces/inkscape"
   xmlns:sodipodi="http://sodipodi.sourceforge.net/DTD/sodipodi-0.dtd"
   xmlns="http://www.w3.org/2000/svg"
   xmlns:svg="http://www.w3.org/2000/svg"
   xmlns:rdf="http://www.w3.org/1999/02/22-rdf-syntax-ns#"
   xmlns:cc="http://creativecommons.org/ns#"
   xmlns:dc="http://purl.org/dc/elements/1.1/"><metadata
   id="metadata37"><rdf:RDF><cc:Work
       rdf:about=""><dc:format>image/svg+xml</dc:format><dc:type
         rdf:resource="http://purl.org/dc/dcmitype/StillImage" /></cc:Work></rdf:RDF></metadata><defs
   id="defs35" /><sodipodi:namedview
   pagecolor="#ffffff"
   bordercolor="#666666"
   borderopacity="1"
   objecttolerance="10"
   gridtolerance="10"
   guidetolerance="10"
   inkscape:pageopacity="0"
   inkscape:pageshadow="2"
   inkscape:window-width="1680"
   inkscape:window-height="1022"
   id="namedview33"
   showgrid="false"
   inkscape:object-paths="true"
   inkscape:snap-intersection-paths="true"
   inkscape:snap-midpoints="true"
   inkscape:snap-smooth-nodes="true"
   inkscape:zoom="2.4490938"
   inkscape:cx="57.776472"
   inkscape:cy="101.26194"
   inkscape:window-x="1920"
   inkscape:window-y="0"
   inkscape:window-maximized="1"
   inkscape:current-layer="Layer_1"
   inkscape:showpageshadow="0"
   inkscape:pagecheckerboard="0"
   inkscape:deskcolor="#d1d1d1" />
<rect
   style="opacity:1;fill:#98db9a;fill-opacity:1;fill-rule:evenodd;stroke:none;stroke-width:0.993464;stroke-opacity:1"
   width="152"
   height="152"
   x="20"
   y="20"
   rx="9.9346409"
   id="rect962"
   ry="9.9346409" /><path
   id="path2"
   style="stroke-width:1.14287;fill:#feb0ac;fill-opacity:1"
   d="M 106.6543 84.685547 C 92.922056 84.830581 75.782879 87.441406 73 87.441406 C 68.547396 87.441406 65.228593 92.63474 62.630859 98.943359 C 60.034268 105.25198 47.090342 111.56055 41.154297 111.56055 C 35.218517 111.56055 20.007211 103.58972 20 103.58594 L 20 162.06445 C 20 167.56824 24.431756 172 29.935547 172 L 162.06445 172 C 167.56824 172 172 167.56824 172 162.06445 L 172 103.58398 C 172 103.58398 165.22931 114.90081 149.27148 111.93164 C 133.31594 108.96248 129.05093 95.603411 123.85547 88.181641 C 121.9076 85.398905 114.89364 84.598526 106.6543 84.685547 z " /><path
   fill="#f9de90"
   d="M 122.29906,77.785572 C 117.78132,62.530599 98.001737,63.427748 98.001737,63.427748 h -3.39774 c 0,0 -19.780722,-0.926864 -24.297327,14.329252 0,0 5.464041,5.393184 27.019633,5.393184 21.554447,0 24.972757,-5.364612 24.972757,-5.364612 z"
   id="path4"
   style="stroke-width:1.14287;fill:#fcf4d8;fill-opacity:1" /><path
   id="path6"
   style="stroke-width:1.14287;fill:#feb0ac;fill-opacity:1"
   d="M 68.701172 77.068359 C 66.62621 76.958773 63.197742 78.105749 62.496094 86.570312 C 62.496094 86.570312 58.295364 80.860506 52.849609 82.228516 C 47.404996 83.596526 48.771928 84.51398 43.326172 87.25 C 37.881559 89.986021 33.024098 93.408453 28.033203 96.373047 C 23.045013 99.333749 20.003297 100.92991 20 100.93164 L 20 162.06445 C 20 163.57719 20.343632 165.00425 20.943359 166.28516 L 171.05664 166.28516 C 171.65637 165.00425 172 163.57719 172 162.06445 L 172 100.93359 C 172 100.93359 169.26238 99.338451 164.27148 96.375 C 159.28059 93.410406 154.70438 89.991879 149.25977 87.255859 C 143.81401 84.518695 145.18761 83.607434 139.74414 82.238281 C 134.29838 80.87027 130.10547 86.591797 130.10547 86.591797 C 129.08375 74.280846 122.29687 77.425781 122.29688 77.425781 C 111.74707 82.213246 98.847656 81.712891 98.847656 81.712891 L 93.759766 81.712891 C 93.759766 81.712891 80.857245 82.213246 70.308594 77.425781 C 70.308594 77.425781 69.644336 77.118171 68.701172 77.068359 z " /><path
   id="path8"
   style="stroke-width:1.14287;fill:#feb0ac;fill-opacity:1"
   d="M 63.048828 94.009766 C 54.665493 94.381336 33.721686 117.08103 26.277344 123.2793 C 23.644863 125.4696 22.344012 128.11185 20 130.87109 L 20 162.06445 C 20 163.21464 20.202225 164.31402 20.558594 165.33984 C 27.651499 155.64352 46.807426 132.87551 54.445312 122.03906 C 70.554006 99.180605 64.550781 94.244141 64.550781 94.244141 C 64.111278 94.058925 63.607717 93.984994 63.048828 94.009766 z " /><path
   id="path12"
   style="stroke-width:1.14287;fill:#f5908b;fill-opacity:1"
   d="M 129.14844 94.085938 C 128.58977 94.061798 128.08808 94.136978 127.64844 94.322266 C 127.64844 94.322266 121.74954 99.180605 137.85938 122.03906 C 145.14843 132.3845 163.53694 154.90757 171.40234 165.44727 C 171.78305 164.39107 172 163.25507 172 162.06445 L 172 130.87109 C 169.69602 128.11299 168.50486 125.4696 165.87695 123.2793 C 158.43368 117.08103 137.5285 94.448028 129.14844 94.085938 z " /><path
   id="path3065"
   style="stroke-width:1.14287;fill:#f5908b;fill-opacity:1"
   d="M 63.048828 94.009766 C 54.665493 94.381336 33.721686 117.08103 26.277344 123.2793 C 23.644863 125.4696 22.344012 128.11185 20 130.87109 L 20 162.06445 C 20 163.21464 20.202225 164.31402 20.558594 165.33984 C 27.651499 155.64352 46.807426 132.87551 54.445312 122.03906 C 70.554006 99.180605 64.550781 94.244141 64.550781 94.244141 C 64.111278 94.058925 63.607717 93.984994 63.048828 94.009766 z " /><path
   fill="#ff877f"
   d="m 52.850538,82.238177 c -5.444613,1.369153 -4.078888,2.280017 -9.524644,5.017181 -5.444613,2.73602 -10.301792,6.155475 -15.292687,9.120069 -4.990895,2.963451 -8.034347,4.558893 -8.034347,4.558893 v 36.3317 c 2.345161,-1.31772 5.114325,-3.12688 8.546351,-5.32232 8.308634,-5.31433 9.433214,-7.06863 11.248085,-7.52349 1.814871,-0.456 0.973722,-0.22743 6.873195,-3.8766 5.899473,-3.64917 12.510952,-7.2972 16.595554,-15.50526 4.08346,-8.208063 1.150866,-11.85609 1.150866,-11.85609 1.588583,-2.280018 -1.926872,-6.59205 -1.926872,-6.59205 0,0 -4.189746,-5.720044 -9.635501,-4.352033 z"
   id="path16"
   style="stroke-width:1.14287;fill:#feb0ac;fill-opacity:1" /><path
   fill="#e2e2e2"
   d="m 62.495182,86.591353 c 0,0 -4.198889,-5.721187 -9.644644,-4.353176 -2.250303,0.565718 -3.336026,1.053722 -4.22289,1.624012 -5.00118,4.253747 -10.42065,7.90406 -12.786382,11.144084 -3.683457,5.049177 -0.681148,8.665207 5.218325,11.857237 5.898331,3.19088 6.805766,1.36801 14.29268,-3.8766 7.486914,-5.243473 9.075497,-9.80465 9.075497,-9.80465 0.08571,-0.158859 0.164573,-0.312003 0.245716,-0.46629 0.901721,-2.35316 -2.178302,-6.124617 -2.178302,-6.124617 z"
   id="path18"
   style="stroke-width:1.14287;fill:#feb0ac;fill-opacity:1" /><path
   fill="#f7f7f7"
   d="m 41.060734,106.86351 c 0.866292,0.46857 1.621727,0.82629 2.309732,1.08343 -0.637719,-2.2183 -2.62402,-5.03204 -3.899458,-7.01262 -1.601155,-2.488021 -3.763457,-2.907452 -5.106325,-2.890309 -0.794291,3.530309 2.051444,6.306329 6.696051,8.819499 z"
   id="path20"
   style="stroke-width:1.14287" /><path
   fill="#ff877f"
   d="m 139.7552,82.238177 c 5.44461,1.369153 4.08003,2.280017 9.52578,5.017181 5.44576,2.73602 9.99894,6.155475 14.98983,9.120069 4.9909,2.963451 7.7292,4.558893 7.7292,4.558893 v 36.3317 c -2.30402,-1.31772 -4.80918,-3.12688 -8.24349,-5.32232 -8.30978,-5.31433 -9.28121,-7.06863 -11.09608,-7.52349 -1.81602,-0.456 -0.8983,-0.22743 -6.79777,-3.8766 -5.89833,-3.64803 -12.47095,-7.2972 -16.55555,-15.50526 -4.08232,-8.208063 -1.13144,-11.85609 -1.13144,-11.85609 -1.58858,-2.280018 1.93601,-6.59205 1.93601,-6.59205 0,0 4.19775,-5.720044 9.64351,-4.352033 z"
   id="path22"
   style="stroke-width:1.14287;fill:#feb0ac;fill-opacity:1" /><path
   fill="#e2e2e2"
   d="m 130.11169,86.591353 c 0,0 4.19889,-5.721187 9.64351,-4.353176 2.25144,0.565718 3.33831,1.053722 4.22174,1.624012 5.00233,4.253747 10.4218,7.90406 12.78638,11.144084 3.68575,5.049177 0.68115,8.665207 -5.21718,11.857237 -5.89947,3.19088 -6.80691,1.36801 -14.29268,-3.8766 -7.4892,-5.243473 -9.07435,-9.80465 -9.07435,-9.80465 -0.0869,-0.158859 -0.16572,-0.312003 -0.24686,-0.46629 -0.90058,-2.35316 2.17944,-6.124617 2.17944,-6.124617 z"
   id="path24"
   style="stroke-width:1.14287;fill:#feb0ac;fill-opacity:1" /><path
   fill="#f7f7f7"
   d="m 151.54614,106.86351 c -0.86629,0.46857 -1.62401,0.82629 -2.30973,1.08343 0.63886,-2.2183 2.62288,-5.03204 3.89946,-7.01262 1.6023,-2.488021 3.76231,-2.907452 5.10632,-2.890309 0.79315,3.530309 -2.05258,6.306329 -6.69605,8.819499 z"
   id="path26"
   style="stroke-width:1.14287" />
<path
   fill="#e2e2e2"
   d="m 62.495182,86.591353 c 0,0 -4.198889,-5.721187 -9.644644,-4.353176 -2.250303,0.565718 -3.336026,1.053722 -4.22289,1.624012 -5.00118,4.253747 -10.42065,7.90406 -12.786382,11.144084 -3.683457,5.049177 -0.681148,8.665207 5.218325,11.857237 5.898331,3.19088 6.805766,1.36801 14.29268,-3.8766 7.486914,-5.243473 9.075497,-9.80465 9.075497,-9.80465 0.08571,-0.158859 0.164573,-0.312003 0.245716,-0.46629 0.901721,-2.35316 -2.178302,-6.124617 -2.178302,-6.124617 z"
   id="path3119"
   style="stroke-width:1.14287;fill:#ffffff;fill-opacity:0.5" /><path
   fill="#e2e2e2"
   d="m 130.11169,86.591353 c 0,0 4.19889,-5.721187 9.64351,-4.353176 2.25144,0.565718 3.33831,1.053722 4.22174,1.624012 5.00233,4.253747 10.4218,7.90406 12.78638,11.144084 3.68575,5.049177 0.68115,8.665207 -5.21718,11.857237 -5.89947,3.19088 -6.80691,1.36801 -14.29268,-3.8766 -7.4892,-5.243473 -9.07435,-9.80465 -9.07435,-9.80465 -0.0869,-0.158859 -0.16572,-0.312003 -0.24686,-0.46629 -0.90058,-2.35316 2.17944,-6.124617 2.17944,-6.124617 z"
   id="path3121"
   style="stroke-width:1.14287;fill:#ffffff;fill-opacity:0.5" /><g
   id="g3151"
   transform="translate(200.15063,16.148369)">
	<path
   fill="#ff877f"
   d="m 162,88.136 v 55.441 c 0,2.689 -1.862,4.423 -4.552,4.423 H 33.714 C 31.024,148 29,146.267 29,143.577 V 88.136 c 0,0 13.316,6.98 18.511,6.98 5.194,0 16.52,-5.52 18.792,-11.04 2.273,-5.52 5.176,-10.065 9.072,-10.065 3.896,0 39.953,-5.844 44.498,0.649 4.546,6.494 8.279,18.183 22.24,20.781 C 156.076,98.039 162,88.136 162,88.136 Z"
   id="path3123" />
	<g
   id="g3149">
		<path
   fill="#f9de90"
   d="M 118.512,65.563 C 114.559,52.215 97.252,53 97.252,53 h -2.973 c 0,0 -17.308,-0.811 -21.26,12.538 0,0 4.781,4.719 23.642,4.719 18.86,0 21.851,-4.694 21.851,-4.694 z"
   id="path3125" />
		<path
   fill="#ff877f"
   d="M 162,143 V 85.818 c 0,0 -2.396,-1.396 -6.763,-3.989 -4.367,-2.594 -8.371,-5.586 -13.135,-7.98 -4.765,-2.395 -3.562,-3.192 -8.325,-4.39 -4.765,-1.197 -8.434,3.809 -8.434,3.809 C 124.449,62.496 118.51,65.249 118.51,65.249 109.279,69.438 97.992,69 97.992,69 H 93.54 c 0,0 -11.29,0.438 -20.52,-3.751 0,0 -5.943,-2.773 -6.836,8 0,0 -3.674,-4.996 -8.439,-3.799 -4.764,1.197 -3.569,2 -8.334,4.394 -4.764,2.394 -9.014,5.389 -13.381,7.983 C 31.663,84.419 29,85.818 29,85.818 V 143 h 133"
   id="path3127" />
		<g
   id="g3131">
			<path
   fill="#c1625d"
   d="m 67.983,79.964 c -6.153,-2.593 -26.542,19.621 -33.49,25.406 -2.304,1.917 -3.441,4.229 -5.493,6.644 v 30.813 c 5.832,-8.12 23.302,-28.839 30.141,-38.542 14.095,-20.001 8.842,-24.321 8.842,-24.321 z"
   id="path3129" />
		</g>
		<g
   id="g3135">
			<path
   fill="#c1625d"
   d="m 156.642,105.37 c -6.947,-5.785 -27.295,-27.931 -33.45,-25.337 0,0 -5.161,4.251 8.935,24.252 6.525,9.261 23.281,29.75 29.874,38.675 v -30.946 c -2.017,-2.414 -3.059,-4.727 -5.359,-6.644 z"
   id="path3133" />
		</g>
		<path
   fill="#ff877f"
   d="m 57.745,69.459 c -4.764,1.198 -3.569,1.995 -8.334,4.39 -4.764,2.394 -9.014,5.386 -13.381,7.98 C 31.663,84.422 29,85.818 29,85.818 v 31.79 c 2.052,-1.153 4.475,-2.736 7.478,-4.657 7.27,-4.65 8.254,-6.185 9.842,-6.583 1.588,-0.399 0.852,-0.199 6.014,-3.392 5.162,-3.193 10.947,-6.385 14.521,-13.567 3.573,-7.182 1.007,-10.374 1.007,-10.374 1.39,-1.995 -1.686,-5.768 -1.686,-5.768 0,0 -3.666,-5.005 -8.431,-3.808 z"
   id="path3137" />
		<path
   fill="#e2e2e2"
   d="m 66.184,73.268 c 0,0 -3.674,-5.006 -8.439,-3.809 -1.969,0.495 -2.919,0.922 -3.695,1.421 -4.376,3.722 -9.118,6.916 -11.188,9.751 -3.223,4.418 -0.596,7.582 4.566,10.375 5.161,2.792 5.955,1.197 12.506,-3.392 6.551,-4.588 7.941,-8.579 7.941,-8.579 0.075,-0.139 0.144,-0.273 0.215,-0.408 0.789,-2.059 -1.906,-5.359 -1.906,-5.359 z"
   id="path3139" />
		<path
   fill="#f7f7f7"
   d="m 47.429,91.006 c 0.758,0.41 1.419,0.723 2.021,0.948 -0.558,-1.941 -2.296,-4.403 -3.412,-6.136 -1.401,-2.177 -3.293,-2.544 -4.468,-2.529 -0.695,3.089 1.795,5.518 5.859,7.717 z"
   id="path3141" />
		<path
   fill="#ff877f"
   d="m 133.786,69.459 c 4.764,1.198 3.57,1.995 8.335,4.39 4.765,2.394 8.749,5.386 13.116,7.98 4.367,2.593 6.763,3.989 6.763,3.989 v 31.79 c -2.016,-1.153 -4.208,-2.736 -7.213,-4.657 -7.271,-4.65 -8.121,-6.185 -9.709,-6.583 -1.589,-0.399 -0.786,-0.199 -5.948,-3.392 -5.161,-3.192 -10.912,-6.385 -14.486,-13.567 -3.572,-7.182 -0.99,-10.374 -0.99,-10.374 -1.39,-1.995 1.694,-5.768 1.694,-5.768 0,0 3.673,-5.005 8.438,-3.808 z"
   id="path3143" />
		<path
   fill="#e2e2e2"
   d="m 125.348,73.268 c 0,0 3.674,-5.006 8.438,-3.809 1.97,0.495 2.921,0.922 3.694,1.421 4.377,3.722 9.119,6.916 11.188,9.751 3.225,4.418 0.596,7.582 -4.565,10.375 -5.162,2.792 -5.956,1.197 -12.506,-3.392 -6.553,-4.588 -7.94,-8.579 -7.94,-8.579 -0.076,-0.139 -0.145,-0.273 -0.216,-0.408 -0.788,-2.059 1.907,-5.359 1.907,-5.359 z"
   id="path3145" />
		<path
   fill="#f7f7f7"
   d="m 144.103,91.006 c -0.758,0.41 -1.421,0.723 -2.021,0.948 0.559,-1.941 2.295,-4.403 3.412,-6.136 1.402,-2.177 3.292,-2.544 4.468,-2.529 0.694,3.089 -1.796,5.518 -5.859,7.717 z"
   id="path3147" />
	</g>
</g></svg>
