<?xml version="1.0" encoding="utf-8"?>
<!-- Generator: Adobe Illustrator 17.1.0, SVG Export Plug-In . SVG Version: 6.00 Build 0)  -->
<!DOCTYPE svg PUBLIC "-//W3C//DTD SVG 1.1//EN" "http://www.w3.org/Graphics/SVG/1.1/DTD/svg11.dtd">
<svg version="1.1" id="Слой_1" xmlns="http://www.w3.org/2000/svg" xmlns:xlink="http://www.w3.org/1999/xlink" x="0px" y="0px"
	 viewBox="0 0 192 192" enable-background="new 0 0 192 192" xml:space="preserve">
<rect fill="#FAE16F" width="192" height="192"/>
<g>
	<path fill="#B1B5BE" d="M74.7,120.2c0,8.4,0.1,16.1,0,23.9c-0.1,5.4-3.2,9.6-8.3,11.1c-4.8,1.5-10.3-0.2-13.1-4.6
		c-1.2-1.9-2-4.4-2-6.6c-0.1-21.8-0.3-43.6,0-65.3c0.3-20.9,17.1-38.9,38.6-41.9c33.1-4.7,59.5,27.8,48.2,59.2
		c-8.5,23.6-35.3,35.5-58.8,26.2C78.1,121.5,76.7,121,74.7,120.2z M117.1,80.9c0-11.8-9.4-21.3-21.2-21.3c-11.6,0-21.2,9.5-21.2,21
		c-0.1,11.8,9.4,21.3,21.3,21.3C107.7,101.9,117.1,92.6,117.1,80.9z"/>
</g>
</svg>
