<svg xmlns="http://www.w3.org/2000/svg" id="svg2" width="192" height="192" version="1.1"><g id="layer1" transform="translate(0 -860.362)"><path id="rect985" d="M29.5 879.862h133c5.54 0 10 4.46 10 10v133c0 5.54-4.46 10-10 10h-133c-5.54 0-10-4.46-10-10v-133c0-5.54 4.46-10 10-10z" style="fill:#8c72bd;fill-opacity:1;fill-rule:evenodd;stroke:none;stroke-opacity:1"/><path id="path1733" d="M52.92 19.5 40.775 62H19.5v4h20.133L22.49 126H19.5v4h1.848l-1.848 6.467v14.568L25.51 130H90v42.5h4V130h72.781l5.719 17.678v-12.992L170.984 130h1.516v-4h-2.81l-19.413-60H172.5v-4h-23.516l-13.75-42.5h-4.203l13.75 42.5H94V19.5h-4V62H44.937l12.145-42.5H52.92zM43.795 66H90v60H26.652l17.143-60zM94 66h52.074l19.412 60H94V66z" style="color:#000;font-style:normal;font-variant:normal;font-weight:400;font-stretch:normal;font-size:medium;line-height:normal;font-family:sans-serif;font-variant-ligatures:normal;font-variant-position:normal;font-variant-caps:normal;font-variant-numeric:normal;font-variant-alternates:normal;font-feature-settings:normal;text-indent:0;text-align:start;text-decoration:none;text-decoration-line:none;text-decoration-style:solid;text-decoration-color:#000;letter-spacing:normal;word-spacing:normal;text-transform:none;writing-mode:lr-tb;direction:ltr;text-orientation:mixed;dominant-baseline:auto;baseline-shift:baseline;text-anchor:start;white-space:normal;shape-padding:0;clip-rule:nonzero;display:inline;overflow:visible;visibility:visible;opacity:1;isolation:auto;mix-blend-mode:normal;color-interpolation:sRGB;color-interpolation-filters:linearRGB;solid-color:#000;solid-opacity:1;vector-effect:none;fill:#bd9aff;fill-opacity:1;fill-rule:nonzero;stroke:none;stroke-width:4px;stroke-linecap:butt;stroke-linejoin:miter;stroke-miterlimit:4;stroke-dasharray:none;stroke-dashoffset:0;stroke-opacity:1;color-rendering:auto;image-rendering:auto;shape-rendering:auto;text-rendering:auto;enable-background:accumulate" transform="translate(0 860.362)"/><circle id="path1690" cx="96" cy="956.362" r="36" style="opacity:1;vector-effect:none;fill:#56595b;fill-opacity:1;stroke-width:4;paint-order:stroke fill markers"/><path id="path1690-0" d="M129.336 942.815c-2.793 2.486-7.52 6.05-15.149 9.234-16.048 6.7-21.553 6.202-32.25 9.563-4.595 1.444-6.541 5.184-5.624 8.437 1.008 3.58 4.723 5.423 10.124 4.688 12.808-1.744 18.73-3.24 36.75-12.375a33.895 33.895 0 0 0 8.797-6.39 36 36 0 0 0-2.648-13.157zm-68.797 19.75a36 36 0 0 0 5.563 13.797c1.006.04 2.075.004 3.273-.124 4.491-.491 4.31-5.447 3.188-8.063-1.17-2.724-4.35-4.986-7.313-5.062-1.773-.044-3.313-.276-4.71-.547z" style="opacity:1;vector-effect:none;fill:#ffd6d4;fill-opacity:1;stroke-width:4;paint-order:stroke fill markers"/></g><style id="style853" type="text/css">.st0,.st1{fill:#fff}</style></svg>