<?xml version="1.0" encoding="UTF-8" standalone="no"?>
<svg
   xmlns:dc="http://purl.org/dc/elements/1.1/"
   xmlns:cc="http://creativecommons.org/ns#"
   xmlns:rdf="http://www.w3.org/1999/02/22-rdf-syntax-ns#"
   xmlns:svg="http://www.w3.org/2000/svg"
   xmlns="http://www.w3.org/2000/svg"
   xmlns:sodipodi="http://sodipodi.sourceforge.net/DTD/sodipodi-0.dtd"
   xmlns:inkscape="http://www.inkscape.org/namespaces/inkscape"
   sodipodi:docname="pinout.svg"
   inkscape:version="0.92.5 (2060ec1f9f, 2020-04-08)"
   version="1.1"
   id="svg2"
   viewBox="0 0 192 192"
   height="192"
   width="192"
   inkscape:export-filename="/home/jphilippe/inkscape/icônes/delta-github/png/aib.png"
   inkscape:export-xdpi="96"
   inkscape:export-ydpi="96">
  <sodipodi:namedview
     inkscape:document-rotation="0"
     inkscape:window-maximized="1"
     inkscape:window-y="-2"
     inkscape:window-x="-12"
     inkscape:window-height="745"
     inkscape:window-width="1280"
     units="px"
     showgrid="false"
     inkscape:current-layer="layer1"
     inkscape:document-units="px"
     inkscape:cy="86.14099"
     inkscape:cx="70.11397"
     inkscape:zoom="2.8284272"
     inkscape:pageshadow="2"
     inkscape:pageopacity="0.0"
     borderopacity="1.0"
     bordercolor="#666666"
     pagecolor="#ffffff"
     id="base"
     inkscape:snap-bbox="false"
     inkscape:object-paths="true"
     inkscape:snap-nodes="true"
     showguides="true"
     inkscape:guide-bbox="true"
     inkscape:snap-object-midpoints="true"
     inkscape:snap-center="true"
     inkscape:snap-global="true"
     inkscape:snap-intersection-paths="true"
     inkscape:snap-smooth-nodes="true"
     inkscape:snap-midpoints="true">
    <inkscape:grid
       type="xygrid"
       id="grid1015" />
  </sodipodi:namedview>
  <defs
     id="defs4" />
  <metadata
     id="metadata7">
    <rdf:RDF>
      <cc:Work
         rdf:about="">
        <dc:format>image/svg+xml</dc:format>
        <dc:type
           rdf:resource="http://purl.org/dc/dcmitype/StillImage" />
        <dc:title></dc:title>
      </cc:Work>
    </rdf:RDF>
  </metadata>
  <g
     transform="translate(0,-860.36216)"
     id="layer1"
     inkscape:groupmode="layer"
     inkscape:label="Calque 1">
    <path
       id="rect985"
       style="fill:#8c72bd;fill-opacity:1;fill-rule:evenodd;stroke:none;stroke-opacity:1"
       d="m 29.5,879.86218 h 133 c 5.54,0 10,4.46 10,10 v 133.00002 c 0,5.54 -4.46,10 -10,10 h -133 c -5.54,0 -10,-4.46 -10,-10 V 889.86218 c 0,-5.54 4.46,-10 10,-10 z" />
    <path
       style="color:#000000;font-style:normal;font-variant:normal;font-weight:normal;font-stretch:normal;font-size:medium;line-height:normal;font-family:sans-serif;font-variant-ligatures:normal;font-variant-position:normal;font-variant-caps:normal;font-variant-numeric:normal;font-variant-alternates:normal;font-feature-settings:normal;text-indent:0;text-align:start;text-decoration:none;text-decoration-line:none;text-decoration-style:solid;text-decoration-color:#000000;letter-spacing:normal;word-spacing:normal;text-transform:none;writing-mode:lr-tb;direction:ltr;text-orientation:mixed;dominant-baseline:auto;baseline-shift:baseline;text-anchor:start;white-space:normal;shape-padding:0;clip-rule:nonzero;display:inline;overflow:visible;visibility:visible;opacity:1;isolation:auto;mix-blend-mode:normal;color-interpolation:sRGB;color-interpolation-filters:linearRGB;solid-color:#000000;solid-opacity:1;vector-effect:none;fill:#bd9aff;fill-opacity:1;fill-rule:nonzero;stroke:none;stroke-width:4px;stroke-linecap:butt;stroke-linejoin:miter;stroke-miterlimit:4;stroke-dasharray:none;stroke-dashoffset:0;stroke-opacity:1;color-rendering:auto;image-rendering:auto;shape-rendering:auto;text-rendering:auto;enable-background:accumulate"
       d="M 52.919922 19.5 L 40.775391 62 L 19.5 62 L 19.5 66 L 39.632812 66 L 22.490234 126 L 19.5 126 L 19.5 130 L 21.347656 130 L 19.5 136.4668 L 19.5 151.03516 L 25.509766 130 L 90 130 L 90 172.5 L 94 172.5 L 94 130 L 166.78125 130 L 172.5 147.67773 L 172.5 134.68555 L 170.98438 130 L 172.5 130 L 172.5 126 L 169.68945 126 L 150.27734 66 L 172.5 66 L 172.5 62 L 148.98438 62 L 135.23438 19.5 L 131.03125 19.5 L 144.78125 62 L 94 62 L 94 19.5 L 90 19.5 L 90 62 L 44.9375 62 L 57.082031 19.5 L 52.919922 19.5 z M 43.794922 66 L 90 66 L 90 126 L 26.652344 126 L 43.794922 66 z M 94 66 L 146.07422 66 L 165.48633 126 L 94 126 L 94 66 z "
       transform="translate(0,860.36216)"
       id="path1733" />
    <circle
       style="opacity:1;vector-effect:none;fill:#4a4a4a;fill-opacity:1;stroke-width:4;paint-order:stroke fill markers"
       id="path1690"
       cx="96"
       cy="956.36218"
       r="36" />
    <path
       inkscape:connector-curvature="0"
       style="opacity:1;vector-effect:none;fill:#ffd6d4;fill-opacity:1;stroke-width:4;paint-order:stroke fill markers"
       d="m 129.33594,942.81505 c -2.79296,2.486 -7.51974,6.04919 -15.14844,9.23439 -16.04818,6.70041 -21.55308,6.20121 -32.25,9.56241 -4.595256,1.444 -6.541604,5.184 -5.625,8.4376 1.008512,3.58 4.723856,5.4228 10.125,4.6876 12.80772,-1.7436 18.73012,-3.2404 36.75,-12.37521 3.95179,-2.00319 6.81497,-4.38919 8.79688,-6.39039 a 36,36.000001 0 0 0 -2.64844,-13.1564 z m -68.796876,19.75 a 36,36.000001 0 0 0 5.5625,13.7968 c 1.006068,0.04 2.075632,0.004 3.273436,-0.12401 4.491128,-0.49119 4.310224,-5.44679 3.1875,-8.06239 -1.169392,-2.7244 -4.348832,-4.9868 -7.312499,-5.0624 -1.772657,-0.044 -3.313445,-0.276 -4.710937,-0.5468 z"
       id="path1690-0" />
  </g>
  <style
     type="text/css"
     id="style853">
	.st0{fill:#FFFFFF;}
</style>
  <style
     type="text/css"
     id="style907">
	.st0{fill:#898989;}
	.st1{fill:#FFFFFF;}
</style>
</svg>
