<svg xmlns="http://www.w3.org/2000/svg" width="192" height="192"><circle cx="96" cy="96" r="88.5" style="fill:#9abefe;fill-opacity:1;fill-rule:evenodd;stroke:none"/><path d="M71.038 55.694 84.921 69.21c1.462 6.942-8.768 17.172-15.71 15.71L55.694 71.038c-.731 2.192-1.096 4.384-1.096 6.576 0 5.846 2.192 11.691 6.576 16.075 5.115 5.115 11.69 7.307 17.902 6.577 3.288-.366 6.941 1.096 9.133 3.288l27.766 27.766c2.192 2.192 4.75 3.288 7.672 3.288 6.211 0 10.96-5.115 10.96-11.326 0-2.557-1.46-5.48-3.287-7.307L103.554 88.21c-2.558-2.557-3.654-5.845-3.288-9.133.365-6.576-1.827-13.153-6.577-17.902-4.384-4.384-10.23-6.576-16.075-6.576-2.192 0-4.384.365-6.576 1.096zm56.628 68.319c0 2.192-1.461 3.653-3.653 3.653s-3.654-1.461-3.654-3.653 1.462-3.654 3.654-3.654 3.653 1.462 3.653 3.654z" class="st0" style="fill:#fff;stroke-width:3.65343"/></svg>