<?xml version="1.0" encoding="UTF-8" standalone="no"?>
<!-- Created with Inkscape (http://www.inkscape.org/) -->

<svg
   width="192"
   height="192"
   viewBox="0 0 50.799999 50.800001"
   version="1.1"
   id="svg5"
   sodipodi:docname="planta.svg"
   inkscape:version="1.1.1 (3bf5ae0d25, 2021-09-20)"
   inkscape:export-filename="/home/jphilippe/inkscape/planta.png"
   inkscape:export-xdpi="96"
   inkscape:export-ydpi="96"
   xmlns:inkscape="http://www.inkscape.org/namespaces/inkscape"
   xmlns:sodipodi="http://sodipodi.sourceforge.net/DTD/sodipodi-0.dtd"
   xmlns="http://www.w3.org/2000/svg"
   xmlns:svg="http://www.w3.org/2000/svg">
  <sodipodi:namedview
     id="namedview7"
     pagecolor="#c4c4c4"
     bordercolor="#000000"
     borderopacity="1"
     inkscape:pageshadow="0"
     inkscape:pageopacity="0"
     inkscape:pagecheckerboard="false"
     inkscape:document-units="px"
     showgrid="false"
     units="px"
     width="192px"
     inkscape:zoom="0.42016211"
     inkscape:cx="-511.70726"
     inkscape:cy="91.6313"
     inkscape:window-width="1884"
     inkscape:window-height="1055"
     inkscape:window-x="36"
     inkscape:window-y="0"
     inkscape:window-maximized="1"
     inkscape:current-layer="layer1" />
  <defs
     id="defs2">
    <style
       id="style2980">.a{fill:none;stroke:#b1b5bd;stroke-linecap:round;stroke-linejoin:round;isolation:isolate;opacity:0.63;}</style>
  </defs>
  <g
     inkscape:label="Calque 1"
     inkscape:groupmode="layer"
     id="layer1">
    <rect
       class="a"
       x="5.2916665"
       y="5.2916665"
       width="40.216667"
       height="40.216667"
       rx="2.6458333"
       id="rect908"
       style="fill:#70a270;fill-opacity:1;stroke:none;stroke-width:0.264583;opacity:1" />
    <path
       style="fill:#97db99;fill-opacity:1;stroke-width:0.685279"
       d="m 31.13779,17.471666 c -1.32601,-1.149213 -3.08101,-1.728958 -5.267048,-1.728958 h -7.163908 v 19.314583 h 0.684592 c 1.600813,0 2.89188,-1.291065 2.89188,-2.867206 V 18.686666 h 3.300987 c 1.247205,0 2.229899,0.273425 2.926136,0.809313 0.705842,0.547538 1.048478,1.345888 1.048478,2.429314 0,1.072461 -0.364566,1.90439 -1.093019,2.473857 -0.728453,0.568781 -1.711139,0.863451 -2.959032,0.863451 -1.225282,0 -2.218934,0.985431 -2.218934,2.199745 v 0.744212 h 2.517029 c 1.358225,0 2.594465,-0.273425 3.721068,-0.831242 1.125227,-0.547538 1.997588,-1.31368 2.649284,-2.276497 0.64005,-0.962816 0.960075,-2.046242 0.960075,-3.227663 -0.01096,-1.783781 -0.673626,-3.250277 -1.998268,-4.39949 z"
       id="path2647" />
  </g>
</svg>
