<?xml version="1.0" encoding="UTF-8" standalone="no"?>
<svg
   viewBox="0 0 192 192"
   version="1.1"
   id="svg16"
   sodipodi:docname="plantnet.svg"
   inkscape:version="1.1.1 (3bf5ae0d25, 2021-09-20, custom)"
   xmlns:inkscape="http://www.inkscape.org/namespaces/inkscape"
   xmlns:sodipodi="http://sodipodi.sourceforge.net/DTD/sodipodi-0.dtd"
   xmlns="http://www.w3.org/2000/svg"
   xmlns:svg="http://www.w3.org/2000/svg">
  <sodipodi:namedview
     id="namedview18"
     pagecolor="#ffffff"
     bordercolor="#666666"
     borderopacity="1.0"
     inkscape:pageshadow="2"
     inkscape:pageopacity="0.0"
     inkscape:pagecheckerboard="0"
     showgrid="false"
     inkscape:zoom="2.6774304"
     inkscape:cx="179.27637"
     inkscape:cy="106.63209"
     inkscape:window-width="1898"
     inkscape:window-height="1026"
     inkscape:window-x="10"
     inkscape:window-y="42"
     inkscape:window-maximized="1"
     inkscape:current-layer="svg16" />
  <defs
     id="defs4">
    <style
       id="style2">.a{fill:none;stroke:#b1b5bd;stroke-linecap:round;stroke-linejoin:round;isolation:isolate;opacity:0.63;}</style>
  </defs>
  <rect
     class="a"
     x="20"
     y="20"
     width="152"
     height="152"
     rx="10"
     id="rect6"
     style="stroke:none;fill:#ffffff;fill-opacity:1;opacity:1" />
  <g
     id="g4612">
    <path
       style="fill:#71a372;fill-opacity:1;stroke:none;stroke-width:1px;stroke-linecap:butt;stroke-linejoin:miter;stroke-opacity:1"
       d="M 93.514988,135.51203 C 88.587302,110.69679 59.109,98.201774 28.733069,112.86855 c 15.671801,15.81686 46.134654,20.84553 64.781919,22.64348 z"
       id="path385"
       sodipodi:nodetypes="ccc" />
    <path
       style="fill:#71a372;fill-opacity:1;stroke:none;stroke-width:1px;stroke-linecap:butt;stroke-linejoin:miter;stroke-opacity:1"
       d="m 98.041013,136.00276 c 6.112347,-25.26672 36.222857,-38.184077 64.936197,-22.80979 -11.02287,11.74279 -49.02174,21.57151 -64.936197,22.80979 z"
       id="path1691"
       sodipodi:nodetypes="ccc" />
    <path
       id="path2087"
       style="opacity:1;fill:#71a372;fill-opacity:1;stroke:none;stroke-width:1px;stroke-linecap:butt;stroke-linejoin:miter;stroke-opacity:1"
       d="M 114.64453,56.082031 C 94.893254,67.562905 84.459544,99.245122 92.099609,122.96289 c 1.940831,-6.66171 4.348978,-14.31658 5.429688,-15.18555 1.943596,-1.56278 2.743443,-1.02868 2.873043,1.1836 0.0641,1.09402 -1.29889,8.65739 -2.693356,16.02344 16.031866,-10.05511 29.924876,-55.794285 16.935546,-68.902349 z" />
    <path
       id="path2883"
       style="opacity:1;fill:#71a372;fill-opacity:1;stroke:none;stroke-width:1px;stroke-linecap:butt;stroke-linejoin:miter;stroke-opacity:1"
       d="M 57.449219,63.736328 C 57.381106,86.699577 71.144359,103.85474 84.875,112.23242 84.945265,100.38527 85.855713,91.702149 89.328125,82.675781 82.085119,73.201715 71.964584,65.404286 57.449219,63.736328 Z"
       sodipodi:nodetypes="cccc" />
  </g>
</svg>
