<?xml version="1.0" encoding="UTF-8" standalone="no"?>
<!DOCTYPE svg PUBLIC "-//W3C//DTD SVG 1.1//EN" "http://www.w3.org/Graphics/SVG/1.1/DTD/svg11.dtd">
<svg width="100%" height="100%" viewBox="0 0 192 192" version="1.1" xmlns="http://www.w3.org/2000/svg" xmlns:xlink="http://www.w3.org/1999/xlink" xml:space="preserve" xmlns:serif="http://www.serif.com/" style="fill-rule:evenodd;clip-rule:evenodd;stroke-linejoin:round;stroke-miterlimit:2;">
    <g transform="matrix(1,0,0,1,8,8)">
        <g id="Layer1">
            <path d="M164.5,21.5C164.5,15.981 160.019,11.5 154.5,11.5L21.5,11.5C15.981,11.5 11.5,15.981 11.5,21.5L11.5,154.5C11.5,160.019 15.981,164.5 21.5,164.5L154.5,164.5C160.019,164.5 164.5,160.019 164.5,154.5L164.5,21.5Z" style="fill:rgb(189,154,255);"/>
        </g>
    </g>
    <g transform="matrix(0.591401,0,0,0.591401,39.2255,39.2255)">
        <g id="Layer2">
            <g>
                <path d="M68.643,41.794C76.962,37.526 86.015,35.128 96,35.128C129.596,35.128 156.872,62.404 156.872,96C156.872,129.596 129.596,156.872 96,156.872C62.404,156.872 35.128,129.596 35.128,96C35.128,75.335 45.447,57.061 61.214,46.053L66.707,47.808L65.855,53.246C52.446,62.723 43.683,78.346 43.683,96C43.683,124.875 67.125,148.317 96,148.317C124.875,148.317 148.317,124.875 148.317,96C148.317,67.125 124.875,43.683 96,43.683C87.294,43.683 79.083,45.813 71.855,49.583L73.783,43.945L68.643,41.794Z" style="fill:white;"/>
                <g transform="matrix(0.93573,0,0,0.93573,-5.56325,7.83303)">
                    <text x="73.147px" y="118.583px" style="font-family:'Now-Bold', 'Now';font-weight:700;font-size:64px;fill:white;">2<tspan x="107.291px " y="118.583px ">4</tspan></text>
                </g>
            </g>
        </g>
    </g>
</svg>
