<?xml version="1.0" encoding="utf-8"?>
<!-- Generator: Adobe Illustrator 22.1.0, SVG Export Plug-In . SVG Version: 6.00 Build 0)  -->
<svg version="1.1" id="Слой_1" xmlns="http://www.w3.org/2000/svg" xmlns:xlink="http://www.w3.org/1999/xlink" x="0px" y="0px"
	 viewBox="0 0 192 192" style="enable-background:new 0 0 192 192;" xml:space="preserve">
<style type="text/css">
	.st0{fill:#FFFFFF;}
	.st1{fill:#B1B5BE;}
	.st2{fill:#88BFFF;}
	.st3{fill:#FEFEFE;}
</style>
<rect class="st0" width="192" height="192"/>
<image style="overflow:visible;enable-background:new    ;" width="241" height="241" xlink:href="D:\DESIGN\туццццц\Новая папка (4)\marvin\30E0AF75.jpg"  transform="matrix(0.7734 0 0 0.7734 2.215 -221)">
</image>
<path class="st1" d="M13.5,105.7c0-8.7,0-17.4,0-26c0-1.2,0.3-1.7,1.5-2c5.4-1.4,10.8-2.2,16.3-1c9.6,2.2,15.3,11.4,14,21.7
	c-1.4,11.6-10.8,18-23,16.2c-3.8-0.5-3.8-0.7-3.8,3.2c0,4.7,0,9.5,0,14.2c0,1.2-0.3,1.6-1.5,1.5c-3.5,0-3.5,0-3.5-3.5
	C13.5,121.9,13.5,113.8,13.5,105.7z M18.5,95.2c0,3.1,0,6.1,0,9.2c0,4.9,0,4.9,4.9,5.7c7.2,1.3,13.8-2.6,15.6-9.1
	c1-3.6,1-7.3,0-10.9c-1.4-5.4-5.4-8.8-10.8-9.4c-2.6-0.3-5.2,0-7.8,0.6c-1.4,0.3-1.9,0.8-1.9,2.3C18.6,87.5,18.5,91.3,18.5,95.2z"/>
<path class="st1" d="M98.6,105.6c3.8,4,4.5,3.2-0.3,6.5c-11,7.6-25.8,0.7-27.4-12.6c-0.6-4.5-0.3-9,1.3-13.3c2.9-7.4,9.1-11,17.5-10
	c6.8,0.8,11.5,5.7,12.7,13.3c0.3,1.7,0.4,3.3,0.5,5c0.1,1.4-0.3,1.8-1.7,1.8c-7.8-0.1-15.6,0-23.4-0.1c-1.8,0-2.2,0.5-1.8,2.1
	c0.2,0.7,0.2,1.4,0.4,2c2.4,10.1,14,13.5,21.5,6.4C98.1,106.3,98.3,105.9,98.6,105.6z M86.8,91.6c3.2,0,6.5,0,9.7,0
	c0.6,0,1.2,0.2,1.2-0.9c0.1-4.3-2.9-8.5-7.1-9.7c-7-2-13.3,2-14.5,9.2c-0.2,1.2,0.2,1.5,1.3,1.4C80.6,91.6,83.7,91.6,86.8,91.6z"/>
<path class="st1" d="M178.3,114.6c-2.3,0-4.2,0-6.2,0c-0.9,0-1.3-0.7-1.7-1.2c-4.9-5.7-9.9-11.4-14.8-17.1c-0.3-0.3-0.5-0.6-1.1-1.2
	c0,2.4,0,4.5,0,6.5c0,3.9,0,7.7,0,11.6c0,1.1-0.2,1.5-1.4,1.5c-3.7,0-3.7,0.1-3.7-3.7c0-16,0-32,0-48c0-1.5,0.4-1.9,1.8-1.8
	c3.3,0.1,3.3,0,3.3,3.3c0,9.9,0,19.9,0,29.8c0.7,0,0.9-0.6,1.3-0.9c4.8-5.1,9.7-10.3,14.5-15.5c1.1-1.2,2.1-1.7,3.7-1.6
	c1.4,0.1,2.8,0,4.6,0c-2.6,2.7-5,5.2-7.4,7.6c-3.1,3.2-6.1,6.4-9.3,9.5c-0.9,0.9-0.9,1.4-0.1,2.4c5.2,5.8,10.4,11.6,15.6,17.5
	C177.6,113.7,177.8,114,178.3,114.6z"/>
<path class="st1" d="M135.9,85.5c-2.7-3.9-6.4-5.3-10.9-4.9c-2.9,0.3-4.7,1.6-5.3,3.9c-0.5,2.3,0.6,4.4,3.1,5.8
	c2.1,1.2,4.5,1.8,6.8,2.6c2,0.7,4,1.4,5.8,2.6c6.1,4.2,6,13-0.2,17c-6.5,4.2-17.1,2.6-22.1-3.4c-0.6-0.7-0.5-1,0.1-1.5
	c0.8-0.6,1.5-1.3,2.2-2.1c0.7-0.7,1.1-0.8,1.8,0c3.3,3.9,7.6,5.1,12.5,4.1c2.4-0.5,4.3-1.8,4.8-4.3c0.5-2.3-0.7-4.6-3.1-6.1
	c-2.1-1.2-4.4-1.7-6.6-2.5c-1.4-0.5-2.8-0.9-4.2-1.6c-4.6-2.1-6.6-5.4-6.2-10.4c0.3-4.1,2.9-7.4,7.4-8.6c6.4-1.7,12.2-0.7,17,4.4
	c0.8,0.9,0.8,1.3-0.1,2.1C137.7,83.7,136.9,84.6,135.9,85.5z"/>
<path class="st1" d="M60.5,87.9c0,8.2,0,16.5,0,24.7c0,1.5-0.3,2.1-1.9,2c-3.1-0.1-3.1,0-3.1-3.1c0-16.2,0-32.3,0-48.5
	c0-1.5,0.3-2,1.9-1.9c3.2,0.1,3.2,0,3.2,3.3C60.5,72.2,60.5,80.1,60.5,87.9z"/>
<path class="st2" d="M57.8,128.5c4.5,0,9,0.1,13.5,0c1.5,0,1.9,0.4,1.9,1.9c-0.1,3.1,0,3.1-3.2,3.1c-8.4,0-16.9,0-25.3,0
	c-1.5,0-2.1-0.3-2-1.9c0.2-3.6-0.4-3,3.1-3.1C49.8,128.5,53.8,128.5,57.8,128.5z"/>
<path class="st3" d="M18.5,95.2c0-3.9,0.1-7.7,0-11.6c0-1.5,0.5-2,1.9-2.3c2.6-0.6,5.2-0.8,7.8-0.6c5.4,0.5,9.4,4,10.8,9.4
	c1,3.6,0.9,7.3,0,10.9c-1.8,6.5-8.4,10.4-15.6,9.1c-4.9-0.9-4.9-0.9-4.9-5.7C18.5,101.3,18.5,98.3,18.5,95.2z"/>
<path class="st3" d="M86.8,91.6c-3.1,0-6.2,0-9.3,0c-1.2,0-1.5-0.2-1.3-1.4C77.4,83,83.6,79,90.7,81c4.1,1.2,7.2,5.5,7.1,9.7
	c0,1-0.7,0.9-1.2,0.9C93.3,91.6,90,91.6,86.8,91.6z"/>
</svg>
