<?xml version="1.0" encoding="UTF-8" standalone="no"?>
<svg
   xmlns:dc="http://purl.org/dc/elements/1.1/"
   xmlns:cc="http://creativecommons.org/ns#"
   xmlns:rdf="http://www.w3.org/1999/02/22-rdf-syntax-ns#"
   xmlns:svg="http://www.w3.org/2000/svg"
   xmlns="http://www.w3.org/2000/svg"
   xmlns:sodipodi="http://sodipodi.sourceforge.net/DTD/sodipodi-0.dtd"
   xmlns:inkscape="http://www.inkscape.org/namespaces/inkscape"
   viewBox="0 0 192 192"
   version="1.1"
   id="svg16"
   sodipodi:docname="pocket_love.svg"
   inkscape:version="0.92.4 (5da689c313, 2019-01-14)">
  <metadata
     id="metadata20">
    <rdf:RDF>
      <cc:Work
         rdf:about="">
        <dc:format>image/svg+xml</dc:format>
        <dc:type
           rdf:resource="http://purl.org/dc/dcmitype/StillImage" />
        <dc:title></dc:title>
      </cc:Work>
    </rdf:RDF>
  </metadata>
  <sodipodi:namedview
     pagecolor="#ffffff"
     bordercolor="#666666"
     borderopacity="1"
     objecttolerance="10"
     gridtolerance="10"
     guidetolerance="10"
     inkscape:pageopacity="0"
     inkscape:pageshadow="2"
     inkscape:window-width="1920"
     inkscape:window-height="1017"
     id="namedview18"
     showgrid="true"
     inkscape:zoom="3.4766083"
     inkscape:cx="159.72903"
     inkscape:cy="75.808264"
     inkscape:window-x="-8"
     inkscape:window-y="-8"
     inkscape:window-maximized="1"
     inkscape:current-layer="svg16"
     inkscape:snap-global="false">
    <inkscape:grid
       type="xygrid"
       id="grid827"
       spacingx="4"
       spacingy="4" />
  </sodipodi:namedview>
  <defs
     id="defs4">
    <style
       id="style2">.a{fill:none;stroke:#b1b5bd;stroke-linecap:round;stroke-linejoin:round;isolation:isolate;opacity:0.63;}</style>
  </defs>
  <rect
     class="a"
     x="20"
     y="20"
     width="152"
     height="152"
     rx="10"
     id="rect6"
     style="fill:#f9de81;opacity:1;stroke:none" />
  <path
     style="fill:#d3b69a"
     d="m 50.336415,119.22793 5.608915,-2.3011 12.799831,0.14382 0.719092,-1.15055 9.492009,0.28764 14.525652,-6.90328 7.190916,-9.06055 -0.28764,-6.471828 L 95.49537,85.2868 95.639188,74.068971 76.367532,61.269139 43.289317,88.019348 42.13877,98.23045 l 5.033642,6.90328 6.615643,1.29436 z"
     id="path992"
     inkscape:connector-curvature="0" />
  <path
     style="fill:#fcecdc;"
     d="m 101.28814,95.186441 3.15254,-9.152543 1.83051,-3.254237 0.91525,-15.254237 2.74576,-4.881356 23.28814,15.050847 0.50847,10.372881 -0.40678,8.237289 -4.16949,16.677965 -12.91525,-2.13559 -9.76271,-6.50848 z"
     id="path990"
     inkscape:connector-curvature="0" />
  <path
     style="fill:#ff837d;opacity:0.25"
     d="m 50.336415,119.22793 5.608915,-2.3011 12.799831,0.14382 0.719092,-1.15055 9.492009,0.28764 14.525652,-6.90328 7.190916,-9.06055 -0.28764,-6.471827 L 95.49537,85.286801 95.639188,74.068972 76.367532,61.26914 43.289317,88.019349 42.13877,98.230451 l 5.033642,6.903279 6.615643,1.29436 z"
     id="path992-5"
     inkscape:connector-curvature="0" />
  <path
     style="fill:#56595b"
     d="M 55.513672 31.498047 L 43.720703 32.9375 L 33.941406 36.820312 L 26.605469 42.285156 L 20 51.535156 L 20 162 C 20 163.95791 20.566328 165.77357 21.53125 167.3125 L 21.716797 167.26367 L 31.783203 170.71484 L 31.355469 172 L 55.445312 172 L 56.808594 167.98242 L 56.376953 156.9082 L 50.193359 143.67773 L 48.466797 131.74023 L 49.904297 118.93945 L 53.644531 105.85352 L 48.179688 105.56445 L 42.857422 99.667969 L 42.138672 91.328125 L 45.589844 85.71875 L 52.205078 85.142578 L 54.21875 86.869141 L 56.951172 93.052734 L 61.986328 96.216797 L 60.835938 85.142578 L 68.457031 82.986328 L 73.203125 75.076172 L 75.792969 58.679688 L 77.949219 70.761719 L 75.457031 82.068359 L 89.083984 78.101562 L 97.083984 73.644531 L 97.761719 64.509766 L 94.919922 52.496094 L 88.160156 43.722656 L 77.375 36.820312 L 67.019531 33.369141 L 55.513672 31.498047 z M 88.982422 112.37305 L 79.119141 115.83008 L 69.050781 116.64453 L 71.59375 119.28906 L 78.304688 120.81445 L 85.525391 125.89844 L 90.101562 133.52539 L 93.966797 144.81445 L 96.304688 132.40625 L 94.373047 124.88086 L 88.982422 112.37305 z "
     id="path922" />
  <path
     style="fill:#ffb0ac;"
     d="m 49.329687,122.60766 17.617745,-1.36628 0.215727,3.0921 -3.164003,4.17073 -3.235912,9.34819 1.222456,9.34819 6.975189,14.74138 -4.026914,1.07864 -8.053826,6.83137 -0.359546,-11.50547 -6.184188,-14.52565 -2.013457,-9.34819 z"
     id="path974"
     inkscape:connector-curvature="0" />
  <path
     style="fill:#f4806d"
     d="m 49.473505,122.10429 2.660639,-4.02691 9.995374,-1.51009 8.125736,1.72582 -3.307822,3.02018 z"
     id="path976"
     inkscape:connector-curvature="0" />
  <path
     style="fill:#ffffff;"
     d="m 68.601343,161.22288 -5.321278,-10.9302 -2.876367,-9.63582 2.444912,-11.36165 3.883094,-4.88982 -0.431455,-3.16401 5.321279,-1.43818 8.341463,1.15055 7.047098,6.90328 4.170731,10.35492 5.033642,14.23801 -14.094196,7.19092 -9.204373,3.164 z"
     id="path968"
     inkscape:connector-curvature="0" />
  <path
     style="fill:#f8c18c;"
     d="M 147.15234 123.73633 L 144.12695 125.56836 L 145.97656 129.72656 L 146.69531 138.78711 L 143.81836 146.98438 L 131.01758 160.07227 L 127.56641 161.36719 L 126.27344 160.07227 L 110.45312 169.56445 L 109.77148 172 L 155.72266 172 L 157.01758 167.49219 L 162.20312 144.91602 L 162.58594 135.33594 L 161.89844 129.55859 L 159.05078 129.9668 L 158.74609 135.9668 L 157.42383 142.32227 L 151.57617 139.93164 L 150.86523 133.06836 L 149.24805 126.7793 L 147.15234 123.73633 z "
     id="path980" />
  <path
     style="fill:#ffffff;"
     d="m 127.01695,161.38983 4.77966,-1.72881 8.23729,-8.33899 6.61017,-11.59322 -0.50848,-10.77966 -1.88135,-4.14407 -1.77966,-2.87288 -2.26272,0.68644 -4.14406,-2.16101 -9.30509,0.91525 -8.79661,6.71187 -10.42373,10.52542 2.59322,2.44068 1.62712,-0.86441 6.61017,3.15254 4.77966,5.0339 3.76271,9.45763 z"
     id="path984"
     inkscape:connector-curvature="0" />
  <path
     style="fill:#ffffff;"
     d="m 148.57627,125.69492 10.37288,2.23728 v 9.35594 l -1.62712,4.77966 -5.59322,-2.74577 -0.81356,-8.33898 z"
     id="path986"
     inkscape:connector-curvature="0" />
  <ellipse
     style="opacity:1;vector-effect:none;fill:#ffd6d4;fill-opacity:1;fill-rule:evenodd;stroke-width:1.04125595;paint-order:stroke fill markers"
     id="path998-5"
     cx="126.36414"
     cy="91.127174"
     rx="8.7720547"
     ry="6.3288817"
     transform="matrix(0.9986943,0.0510852,-0.05601084,0.99843016,0,0)" />
  <path
     style="fill:#d3b69a;"
     d="M 150.10156 31.525391 L 132.40625 32.949219 L 125.59375 33.865234 L 111.66016 40.373047 L 103.52539 48.609375 L 101.28906 57.457031 L 101.79688 65.185547 L 103.52539 68.949219 L 107.28906 70.373047 L 110.64453 59.695312 L 112.37305 72.101562 L 124.27148 76.271484 L 133.11914 79.220703 L 133.2207 82.880859 L 133.62695 96.710938 L 129.76367 112.06836 L 128.33984 113.08398 L 116.74609 110.84766 L 108.20312 106.27148 L 105.05078 112.16992 L 103.93164 121.83008 L 119.59375 122.94922 L 122.74609 124.27148 L 129.35547 120.71094 L 138.81445 121.52539 L 140.23633 123.15234 L 142.16992 121.83008 L 144.71094 125.69531 L 147.15234 124.06836 L 149.69531 126.71094 L 158.23633 128.0332 L 159.76367 130.47461 L 162.10156 130.16992 L 162.10156 128.44141 L 164.33984 126.40625 L 165.45703 125.18555 L 170.84766 126.20312 L 172 124.98242 L 172 39.164062 L 164.23633 35.083984 L 150.10156 31.525391 z "
     id="path972" />
  <path
     style="fill:#fcecdc"
     d="M 110.64453 140.23633 L 95.59375 153.25391 L 73.119141 162.81445 L 66.710938 162.30469 L 59.289062 167.49219 L 55.976562 172 L 104.59961 172 L 109.2207 170.13477 L 127.01758 158.84766 L 125.69531 152.74609 L 117.45703 142.37305 L 110.64453 140.23633 z "
     id="path978" />
  <path
     style="fill:#ffffff;"
     d="M 162.71094 130.37305 L 162.10156 145.01758 L 156.60938 168.30469 L 162.91602 168.10156 L 171.98047 162.40039 C 171.98573 162.26653 172 162.1352 172 162 L 172 152.32031 L 169.52539 146.13477 L 164.84766 132.20312 L 162.71094 130.37305 z "
     id="path988" />
  <path
     style="fill:#fcecdc;stroke:none;stroke-width:1px;stroke-linecap:butt;stroke-linejoin:miter;stroke-opacity:1"
     d="M 170.13477 164.44141 L 162.50781 168.40625 L 156.30469 169.52539 L 155.44336 172 L 162 172 C 165.77254 172 169.04052 169.92837 170.74414 166.85938 L 170.13477 164.44141 z "
     id="path982" />
  <ellipse
     style="opacity:1;vector-effect:none;fill:#ffd6d4;fill-opacity:1;fill-rule:evenodd;stroke-width:0.28974509;paint-order:stroke fill markers"
     id="path998-5-2"
     cx="110.28402"
     cy="81.722771"
     rx="2.4409559"
     ry="1.7611063"
     transform="matrix(0.9986943,0.0510852,-0.05601084,0.99843016,0,0)" />
  <ellipse
     style="opacity:0.5;vector-effect:none;fill:#ba6561;fill-opacity:1;fill-rule:evenodd;stroke-width:0.34779885;paint-order:stroke fill markers"
     id="path998-5-2-9"
     cx="82.923233"
     cy="103.55592"
     rx="2.8729305"
     ry="2.1559787"
     transform="matrix(0.99116314,-0.1326485,0.1319527,0.99125601,0,0)" />
  <path
     style="fill:none;stroke:#ba6561;stroke-width:2;stroke-linecap:round;stroke-linejoin:round;stroke-miterlimit:4;stroke-dasharray:none;stroke-opacity:1"
     d="m 67.163159,124.26157 c 0,0 -5.852015,4.8139 -6.256097,14.9571 -0.366788,9.20707 7.190917,20.70984 7.190917,20.70984"
     id="path829"
     inkscape:connector-curvature="0"
     sodipodi:nodetypes="csc" />
  <path
     style="fill:none;stroke:#ba6561;stroke-width:2;stroke-linecap:round;stroke-linejoin:round;stroke-miterlimit:4;stroke-dasharray:none;stroke-opacity:1"
     d="m 35.38983,109.11865 c 0,0 -0.564944,8.77622 -1.932203,15.35593 -1.167747,5.61958 -3.433924,10.93837 -3.457627,18.50847 -0.02011,6.42332 3.864407,15.9661 3.864407,15.9661"
     id="path831"
     inkscape:connector-curvature="0"
     sodipodi:nodetypes="cssc" />
  <path
     style="color:#000000;font-style:normal;font-variant:normal;font-weight:normal;font-stretch:normal;font-size:medium;line-height:normal;font-family:sans-serif;font-variant-ligatures:normal;font-variant-position:normal;font-variant-caps:normal;font-variant-numeric:normal;font-variant-alternates:normal;font-feature-settings:normal;text-indent:0;text-align:start;text-decoration:none;text-decoration-line:none;text-decoration-style:solid;text-decoration-color:#000000;letter-spacing:normal;word-spacing:normal;text-transform:none;writing-mode:lr-tb;direction:ltr;text-orientation:mixed;dominant-baseline:auto;baseline-shift:baseline;text-anchor:start;white-space:normal;shape-padding:0;clip-rule:nonzero;display:inline;overflow:visible;visibility:visible;opacity:1;isolation:auto;mix-blend-mode:normal;color-interpolation:sRGB;color-interpolation-filters:linearRGB;solid-color:#000000;solid-opacity:1;vector-effect:none;fill:#ba6561;fill-opacity:1;fill-rule:nonzero;stroke:none;stroke-width:2;stroke-linecap:round;stroke-linejoin:round;stroke-miterlimit:4;stroke-dasharray:none;stroke-dashoffset:0;stroke-opacity:1;color-rendering:auto;image-rendering:auto;shape-rendering:auto;text-rendering:auto;enable-background:accumulate"
     d="M 147.10156 30.589844 C 138.71447 30.420486 132.01953 31.962891 132.01953 31.962891 A 1.0001 1.0001 0 1 0 132.46289 33.912109 C 132.46289 33.912109 144.08293 31.287355 155.5 33.416016 C 163.6736 34.939946 169.09292 38.191992 172 40.404297 L 172 37.974609 C 168.68721 35.69171 163.33747 32.843972 155.86719 31.451172 C 152.88078 30.894371 149.89726 30.646296 147.10156 30.589844 z M 56.253906 30.882812 C 53.24907 30.851222 46.395461 31.08192 39.638672 33.427734 C 29.06238 37.099599 23.094521 44.076566 20 49.066406 L 20 53.146484 C 22.029863 48.879214 27.694079 39.693106 40.294922 35.318359 C 48.824838 32.356953 57.695312 32.929688 57.695312 32.929688 A 1.0003191 1.0003191 0 1 0 57.830078 30.933594 C 57.830078 30.933594 57.255518 30.893342 56.253906 30.882812 z M 53.748047 105.84766 A 1.0001 1.0001 0 0 0 52.8125 106.43359 C 52.8125 106.43359 47.006673 118.73499 47.828125 135.88672 C 48.093102 141.41936 50.013213 145.77521 51.859375 149.69727 C 53.705537 153.61932 55.450639 157.10392 55.666016 160.99023 C 55.922971 165.62683 55.617336 168.43579 55.271484 170.03906 C 55.098558 170.8407 54.914908 171.34141 54.791016 171.62109 C 54.667123 171.90077 54.662109 171.88672 54.662109 171.88672 A 1.0003357 1.0003357 0 0 0 54.583984 172 L 56.783203 172 C 56.929891 171.60538 57.082202 171.13015 57.226562 170.46094 C 57.622237 168.6267 57.926355 165.64898 57.662109 160.88086 C 57.417793 156.47233 55.500305 152.73424 53.669922 148.8457 C 51.839539 144.95717 50.069565 140.91378 49.824219 135.79102 C 49.026399 119.13273 54.621094 107.28711 54.621094 107.28711 A 1.0001 1.0001 0 0 0 53.748047 105.84766 z M 172 119.87891 C 171.0408 123.74357 169.69727 125.5293 169.69727 125.5293 A 1.0001 1.0001 0 1 0 171.29492 126.73242 C 171.29492 126.73242 171.58812 126.32576 172 125.55469 L 172 119.87891 z M 161.90234 127.32422 A 1.0001 1.0001 0 0 0 160.91406 128.51562 C 160.91406 128.51562 160.96394 128.89481 160.97852 128.98438 A 1.0001 1.0001 0 0 0 161.16016 130.35938 C 161.52915 133.71091 161.99676 141.31057 160.10742 150.19922 C 158.44444 158.02293 155.84511 167.25494 154.4668 172 L 156.53516 172 C 156.82682 170.995 156.8429 170.96601 157.23047 169.59961 C 158.5871 169.6878 162.23866 169.75458 165.3457 168.15234 C 166.96833 167.31559 168.38136 166.44162 169.61719 165.57812 L 170.1875 167.74414 C 170.76699 166.91808 171.22939 166.00472 171.53906 165.01953 L 171.3457 164.28906 C 171.51495 164.15401 171.65626 164.0256 171.81641 163.89258 C 171.93313 163.27929 172 162.64828 172 162 L 172 161.13477 C 170.44521 162.62639 168.04613 164.51007 164.42969 166.375 C 162.24006 167.50414 159.31064 167.62408 157.79883 167.60156 C 159.17552 162.65115 160.86109 156.26743 162.0625 150.61523 C 163.70792 142.87415 163.61786 136.04346 163.31836 132.00586 C 163.96273 132.7155 164.61525 133.69572 165.00586 135.03906 C 166.32743 139.5841 167.41252 143.88744 168.82617 148.29688 C 169.77321 151.25087 170.95317 153.52751 172 155.18164 L 172 150.89844 C 171.54776 149.91527 171.10895 148.86609 170.73047 147.68555 C 169.3417 143.35371 168.25987 139.06853 166.92578 134.48047 C 166.07069 131.53972 164.12521 129.89378 163.01953 129.15625 C 162.96512 128.77904 162.88281 128.16211 162.88281 128.16211 A 1.0001 1.0001 0 0 0 161.90234 127.32422 z M 126.43945 158.12891 A 1.0001 1.0001 0 0 0 125.76172 158.45117 C 125.76172 158.45117 122.46837 161.95546 114.7832 166.24609 C 108.67741 169.65496 102.00586 171.92578 102.00586 171.92578 A 1.0001 1.0001 0 0 0 101.82422 172 L 107.35742 172 C 107.8942 171.77743 108.41415 171.56507 109.00586 171.30664 L 108.83008 172 L 110.89453 172 L 111.3418 170.24609 C 112.77948 169.56876 114.2791 168.81775 115.75781 167.99219 C 123.639 163.59212 127.21484 159.82422 127.21484 159.82422 A 1.0001 1.0001 0 0 0 126.43945 158.12891 z M 22.021484 166.32812 A 1.0001 1.0001 0 0 0 21.21875 166.79883 C 21.616026 167.52673 22.107105 168.19384 22.666016 168.79688 C 23.998766 169.50614 26.378217 170.65365 28.916016 171.18945 C 33.087626 172.0702 36.548828 170.94727 36.548828 170.94727 A 1.0001 1.0001 0 1 0 35.935547 169.04492 C 35.935547 169.04492 32.950744 169.99685 29.330078 169.23242 C 26.074264 168.54502 22.591797 166.47852 22.591797 166.47852 A 1.0001 1.0001 0 0 0 22.021484 166.32812 z "
     id="path833" />
  <path
     style="fill:none;stroke:#ba6561;stroke-width:2;stroke-linecap:round;stroke-linejoin:round;stroke-miterlimit:4;stroke-dasharray:none;stroke-opacity:1"
     d="m 35.019763,164.45879 c 0,0 0.288377,1.35298 0.359546,2.66064 0.07117,1.30766 -0.431454,2.80446 -0.431454,2.80446"
     id="path835"
     inkscape:connector-curvature="0"
     sodipodi:nodetypes="czc" />
  <path
     style="fill:none;stroke:#ba6561;stroke-width:2;stroke-linecap:round;stroke-linejoin:round;stroke-miterlimit:4;stroke-dasharray:none;stroke-opacity:1"
     d="m 56.135593,170.74576 c 0,0 7.028061,-7.20483 10.067798,-8.23728 3.01056,-1.02254 5.999999,0.10168 5.999999,0.10168"
     id="path841"
     inkscape:connector-curvature="0"
     sodipodi:nodetypes="csc" />
  <path
     style="fill:none;stroke:#ba6561;stroke-width:2;stroke-linecap:round;stroke-linejoin:round;stroke-miterlimit:4;stroke-dasharray:none;stroke-opacity:1"
     d="m 72.40678,163.01695 c 0,0 7.723067,-1.45313 20.745764,-8.89831 9.835166,-5.62285 17.694916,-13.77966 17.694916,-13.77966"
     id="path843"
     inkscape:connector-curvature="0"
     sodipodi:nodetypes="csc" />
  <path
     style="fill:none;stroke:#ba6561;stroke-width:2;stroke-linecap:round;stroke-linejoin:round;stroke-miterlimit:4;stroke-dasharray:none;stroke-opacity:1"
     d="m 108.91525,140.64406 c 0,0 -2.03947,-1.06425 -0.91525,-2.54237 7.21449,-5.08934 11.50891,-13.46634 17.44068,-16.06779 9.44471,-4.14209 14.8983,0.71186 14.8983,0.71186"
     id="path845"
     inkscape:connector-curvature="0"
     sodipodi:nodetypes="ccsc" />
  <path
     style="fill:none;stroke:#ba6561;stroke-width:2;stroke-linecap:round;stroke-linejoin:round;stroke-miterlimit:4;stroke-dasharray:none;stroke-opacity:1"
     d="m 110.0339,139.57627 c 0,0 5.81859,-0.085 12.10169,7.88136 4.90882,6.22391 4.98305,13.83051 4.98305,13.83051 0,0 3.58021,1.80329 14.54238,-12.10169 C 151.8078,136.31574 144,125.74576 144,125.74576"
     id="path847"
     inkscape:connector-curvature="0"
     sodipodi:nodetypes="cscsc" />
  <path
     style="fill:none;stroke:#ba6561;stroke-width:2;stroke-linecap:round;stroke-linejoin:round;stroke-miterlimit:4;stroke-dasharray:none;stroke-opacity:1"
     d="m 49.423729,122.94915 c 0,0 4.104593,-1.78411 10.013335,-1.87774 4.354553,-0.069 7.68158,0.14893 7.68158,0.14893 0,0 3.595501,-1.40543 5.491526,-1.52542 6.344746,-0.40152 14.549927,5.40783 17.260466,13.89643 2.832562,8.87074 5.722584,17.22732 5.722584,17.22732"
     id="path855"
     inkscape:connector-curvature="0"
     sodipodi:nodetypes="cscssc" />
  <path
     style="fill:none;stroke:#ba6561;stroke-width:2;stroke-linecap:round;stroke-linejoin:round;stroke-miterlimit:4;stroke-dasharray:none;stroke-opacity:1"
     d="m 50.264506,120.01893 c 0,0 1.79056,-3.03563 6.687552,-3.23592 11.229786,-0.45932 14.59756,2.01346 14.59756,2.01346 l -2.876366,1.00673"
     id="path857"
     inkscape:connector-curvature="0"
     sodipodi:nodetypes="cscc" />
  <path
     style="fill:none;stroke:#ba6561;stroke-width:2;stroke-linecap:round;stroke-linejoin:round;stroke-miterlimit:4;stroke-dasharray:none;stroke-opacity:1"
     d="m 147.45763,123.9661 c 0,0 4.50281,5.65694 4.07714,14.43742 -0.0378,0.77967 0.0553,1.26514 0.40977,1.49378 1.17692,0.75913 2.87638,1.51714 4.36054,2.0688 0.99294,0.36908 1.53397,-0.293 1.72882,-0.91525 1.61685,-5.16334 0.5506,-12.83823 0.5506,-12.83823"
     id="path863"
     inkscape:connector-curvature="0"
     sodipodi:nodetypes="cssssc" />
  <path
     style="fill:none;stroke:#ba6561;stroke-width:2;stroke-linecap:round;stroke-linejoin:round;stroke-miterlimit:4;stroke-dasharray:none;stroke-opacity:1"
     d="m 61.627119,32.644068 c 0,0 15.780806,0.05962 29.084746,14.237287 10.379795,11.061486 6.377377,25.452948 6.293609,26.519781 -5.966597,5.41506 -20.817507,8.812958 -20.817507,8.812958"
     id="path867"
     inkscape:connector-curvature="0"
     sodipodi:nodetypes="cscc" />
  <path
     style="fill:none;stroke:#ba6561;stroke-width:2;stroke-linecap:round;stroke-linejoin:round;stroke-miterlimit:4;stroke-dasharray:none;stroke-opacity:1"
     d="m 74.713622,82.050888 c 0,0 6.274344,-8.543469 -0.07191,-29.195121 2.430075,23.735366 -6.040371,30.058031 -6.040371,30.058031 l -6.11228,2.373002"
     id="path869"
     inkscape:connector-curvature="0"
     sodipodi:nodetypes="cccc" />
  <path
     style="fill:none;stroke:#ba6561;stroke-width:2;stroke-linecap:round;stroke-linejoin:round;stroke-miterlimit:4;stroke-dasharray:none;stroke-opacity:1"
     d="m 61.266608,83.992435 c 0,0 -1.25484,6.603384 1.222456,12.152648 -5.81991,-0.798718 -8.341463,-9.34819 -8.341463,-9.34819"
     id="path871"
     inkscape:connector-curvature="0"
     sodipodi:nodetypes="ccc" />
  <path
     style="fill:none;stroke:#ba6561;stroke-width:2;stroke-linecap:round;stroke-linejoin:round;stroke-miterlimit:4;stroke-dasharray:none;stroke-opacity:1"
     d="m 56.664421,103.98318 c 0,0 -1.859513,1.95613 -4.314549,2.08537 -3.675403,0.19348 -9.174832,-2.16633 -10.139192,-10.283012 -0.448284,-3.773047 1.046761,-9.762616 5.465096,-10.642556 3.232859,-0.643845 5.465096,0.431455 5.465096,0.431455"
     id="path873"
     inkscape:connector-curvature="0"
     sodipodi:nodetypes="csssc" />
  <path
     style="fill:none;stroke:#ba6561;stroke-width:2;stroke-linecap:round;stroke-linejoin:round;stroke-miterlimit:4;stroke-dasharray:none;stroke-opacity:1"
     d="m 95.186441,75.661017 c 0,0 0.295788,5.63735 0.610169,8.440678 0.550982,4.9131 4.67464,8.915255 4.67797,13.322034 0.003,3.449811 -0.638196,8.326281 -11.847462,14.796611 -13.26294,7.65578 -22.016948,2.69491 -22.016948,2.69491"
     id="path875"
     inkscape:connector-curvature="0"
     sodipodi:nodetypes="csssc" />
  <path
     style="fill:none;stroke:#ba6561;stroke-width:2;stroke-linecap:round;stroke-linejoin:round;stroke-miterlimit:4;stroke-dasharray:none;stroke-opacity:1"
     d="m 89.084746,112.67797 c 0,0 4.170701,9.15799 6.40678,16.06779 2.085205,6.44358 -1.016949,14.64407 -1.016949,14.64407"
     id="path877"
     inkscape:connector-curvature="0"
     sodipodi:nodetypes="csc" />
  <path
     style="fill:none;stroke:#ba6561;stroke-width:2;stroke-linecap:round;stroke-linejoin:round;stroke-miterlimit:4;stroke-dasharray:none;stroke-opacity:1"
     d="m 82.839357,92.693444 c 0,0 4.696394,-6.730852 6.471825,-6.90328 2.591906,-0.251724 2.732548,2.157275 2.732548,2.157275 0,0 -1.305137,-0.773707 -3.235912,0 -2.384194,0.955402 -5.968461,4.746005 -5.968461,4.746005 z"
     id="path879"
     inkscape:connector-curvature="0"
     sodipodi:nodetypes="cscsc" />
  <path
     style="fill:none;stroke:#ba6561;stroke-width:2;stroke-linecap:round;stroke-linejoin:round;stroke-miterlimit:4;stroke-dasharray:none;stroke-opacity:1"
     d="m 103.69301,69.322966 c 0,0 -2.93849,-6.228223 -2.39405,-11.51419 2.03813,-19.788326 26.12408,-24.008937 26.12408,-24.008937"
     id="path881"
     inkscape:connector-curvature="0"
     sodipodi:nodetypes="csc" />
  <path
     style="fill:none;stroke:#ba6561;stroke-width:2;stroke-linecap:round;stroke-linejoin:round;stroke-miterlimit:4;stroke-dasharray:none;stroke-opacity:1"
     d="m 110.44068,59.694915 c 0,0 -4.20627,6.769617 -3.9661,23.694916 0,0 -5.41089,5.792337 -4.77967,11.694915 0.70226,6.566814 5.63344,11.513414 12.30509,14.745764 5.87513,2.84645 15.25424,3.05085 15.25424,3.05085"
     id="path885"
     inkscape:connector-curvature="0"
     sodipodi:nodetypes="ccssc" />
  <path
     style="fill:none;stroke:#ba6561;stroke-width:2;stroke-linecap:round;stroke-linejoin:round;stroke-miterlimit:4;stroke-dasharray:none;stroke-opacity:1"
     d="m 116.70857,47.103034 c 0,0 -4.93707,6.057172 -5.96846,12.943649 -0.89526,5.977585 2.66064,14.022288 2.66064,14.022288"
     id="path887"
     inkscape:connector-curvature="0"
     sodipodi:nodetypes="csc" />
  <path
     style="fill:none;stroke:#ba6561;stroke-width:2;stroke-linecap:round;stroke-linejoin:round;stroke-miterlimit:4;stroke-dasharray:none;stroke-opacity:1"
     d="m 108.20339,106.67797 c 0,0 -2.61926,3.44311 -3.55932,7.22033 -0.85685,3.44291 -0.71187,7.72882 -0.71187,7.72882"
     id="path889"
     inkscape:connector-curvature="0"
     sodipodi:nodetypes="csc" />
  <path
     style="fill:none;stroke:#ba6561;stroke-width:2;stroke-linecap:round;stroke-linejoin:round;stroke-miterlimit:4;stroke-dasharray:none;stroke-opacity:1"
     d="m 120.71186,111.9661 c 0,0 -1.35243,1.81295 -1.72881,5.38984 -0.34119,3.24249 0.61017,5.49152 0.61017,5.49152"
     id="path891"
     inkscape:connector-curvature="0"
     sodipodi:nodetypes="csc" />
  <path
     style="fill:none;stroke:#ba6561;stroke-width:2;stroke-linecap:round;stroke-linejoin:round;stroke-miterlimit:4;stroke-dasharray:none;stroke-opacity:1"
     d="m 122.23112,66.586552 c 0,0 0.28507,3.302748 0.81356,5.491526 0.67364,2.789989 1.95582,4.947096 1.95582,4.947096"
     id="path893"
     inkscape:connector-curvature="0"
     sodipodi:nodetypes="csc" />
  <path
     style="fill:none;stroke:#ba6561;stroke-width:2;stroke-linecap:round;stroke-linejoin:round;stroke-miterlimit:4;stroke-dasharray:none;stroke-opacity:1"
     d="m 131.37805,59.47141 c 0,0 1.09028,5.93092 1.43818,10.426829 0.35962,4.647382 0.14381,10.067283 0.14381,10.067283"
     id="path895"
     inkscape:connector-curvature="0"
     sodipodi:nodetypes="csc" />
  <path
     style="fill:none;stroke:#ba6561;stroke-width:2;stroke-linecap:round;stroke-linejoin:round;stroke-miterlimit:4;stroke-dasharray:none;stroke-opacity:1"
     d="m 133.22034,82.779661 c 0,0 0.58479,5.365388 0.30508,10.169492 -0.52274,8.978357 -3.62056,15.215647 -4.06779,21.457627 -0.17986,2.51027 0.40678,5.8983 0.40678,5.8983"
     id="path897"
     inkscape:connector-curvature="0"
     sodipodi:nodetypes="cssc" />
  <path
     style="fill:none;stroke:#ba6561;stroke-width:2;stroke-linecap:round;stroke-linejoin:round;stroke-miterlimit:4;stroke-dasharray:none;stroke-opacity:1"
     d="m 141.66105,109.73592 c 0,0 -0.83964,3.13495 -0.57527,6.61564 0.23951,3.15354 1.00673,5.39319 1.00673,5.39319"
     id="path899"
     inkscape:connector-curvature="0"
     sodipodi:nodetypes="csc" />
  <path
     style="fill:none;stroke:#ba6561;stroke-width:2;stroke-linecap:round;stroke-linejoin:round;stroke-miterlimit:4;stroke-dasharray:none;stroke-opacity:1"
     d="m 153.38225,90.248532 c 0,0 -0.43994,2.196495 -0.43146,4.889823 0.0211,6.707545 2.13224,13.858485 2.15728,20.566015 0.0175,4.68876 -0.791,7.7662 -0.791,7.7662"
     id="path901"
     inkscape:connector-curvature="0"
     sodipodi:nodetypes="cssc" />
  <path
     style="fill:none;stroke:#ba6561;stroke-width:2;stroke-linecap:round;stroke-linejoin:round;stroke-miterlimit:4;stroke-dasharray:none;stroke-opacity:1"
     d="m 164.16863,125.91548 c 0,0 1.2659,-1.14502 1.582,-4.09882 0.64467,-6.02421 -0.0719,-10.71447 -0.0719,-10.71447"
     id="path903"
     inkscape:connector-curvature="0"
     sodipodi:nodetypes="csc" />
  <path
     style="fill:#ba6561;stroke:#ba6561;stroke-width:2;stroke-linecap:round;stroke-linejoin:round;stroke-miterlimit:4;stroke-dasharray:none;stroke-opacity:1"
     d="m 121.16768,89.241803 c 0,0 -3.76158,-5.796033 -7.55047,-6.112279 -2.59508,-0.216603 -2.66064,2.876366 -2.66064,2.876366 0,0 1.28233,-0.976527 3.30782,-0.503364 4.39766,1.027311 6.90329,3.739277 6.90329,3.739277 z"
     id="path879-4"
     inkscape:connector-curvature="0"
     sodipodi:nodetypes="cscsc" />
  <path
     style="fill:#f8c18c;stroke:#f8c18c;stroke-width:2;stroke-linecap:round;stroke-linejoin:round;stroke-miterlimit:4;stroke-dasharray:none;stroke-opacity:1"
     d="m 97.932204,42.254237 c 0,0 9.056946,-6.266302 9.101696,-11.033898 0.0197,-2.099005 -0.8833,-4.806495 -3.91526,-4.932204 -2.47522,-0.102625 -5.135589,3.20339 -5.135589,3.20339 0,0 -2.434596,-3.437132 -5.186441,-3.355932 -2.379382,0.07021 -3.654365,2.697898 -3.661017,4.677966 -0.0206,6.132505 8.796611,11.440678 8.796611,11.440678 z"
     id="path994"
     inkscape:connector-curvature="0"
     sodipodi:nodetypes="csscssc" />
  <ellipse
     style="opacity:0.5;vector-effect:none;fill:#ba6561;fill-opacity:1;fill-rule:evenodd;stroke-width:1.01749408;paint-order:stroke fill markers"
     id="path998"
     cx="60.695564"
     cy="114.14265"
     rx="8.3774176"
     ry="6.3280063"
     transform="rotate(-9.3007699)" />
  <ellipse
     style="opacity:1;vector-effect:none;fill:#ffd6d4;fill-opacity:1;fill-rule:evenodd;paint-order:stroke fill markers"
     id="path1045"
     cx="84.911026"
     cy="176.11026"
     rx="5.7203388"
     ry="4.6525426"
     transform="rotate(-6.9634384)" />
</svg>
