<svg xmlns="http://www.w3.org/2000/svg" viewBox="0 0 192 192"><rect width="152" height="152" x="20" y="20" rx="10" style="fill:#f9de81;opacity:1;stroke:none;stroke-linecap:round;stroke-linejoin:round;isolation:isolate"/><path d="m50.336 119.228 5.61-2.301 12.8.144.718-1.15 9.492.287 14.526-6.904 7.19-9.06-.287-6.472-4.89-8.485.144-11.218-19.271-12.8-33.079 26.75-1.15 10.211 5.033 6.904 6.616 1.294z" style="fill:#d3b69a"/><path d="m101.288 95.186 3.153-9.152 1.83-3.254.915-15.255 2.746-4.88 23.288 15.05.509 10.373-.407 8.237-4.17 16.678-12.915-2.136-9.762-6.508z" style="fill:#fcecdc"/><path d="m50.336 119.228 5.61-2.301 12.8.144.718-1.15 9.492.287 14.526-6.904 7.19-9.06-.287-6.472-4.89-8.485.144-11.218-19.271-12.8-33.079 26.75-1.15 10.211 5.033 6.904 6.616 1.294z" style="fill:#ff837d;opacity:.25"/><path d="m55.514 31.498-11.793 1.44-9.78 3.882-7.336 5.465L20 51.535V162a9.96 9.96 0 0 0 1.531 5.313l.186-.05 10.066 3.452-.428 1.285h24.09l1.364-4.018-.432-11.074-6.184-13.23-1.726-11.938 1.437-12.8 3.74-13.086-5.464-.29-5.323-5.896-.718-8.34 3.45-5.61 6.616-.575 2.014 1.726 2.732 6.184 5.035 3.164-1.15-11.074 7.621-2.157 4.746-7.91 2.59-16.396 2.156 12.082-2.492 11.306 13.627-3.966 8-4.457.678-9.135-2.842-12.014-6.76-8.773-10.785-6.903-10.355-3.45-11.506-1.872zm33.468 80.875-9.863 3.457-10.068.815 2.543 2.644 6.71 1.525 7.221 5.084 4.577 7.627 3.865 11.29 2.338-12.409-1.932-7.525-5.39-12.508z" style="fill:#56595b"/><path d="m49.33 122.608 17.617-1.367.216 3.092L64 128.504l-3.236 9.348 1.223 9.349 6.975 14.741-4.027 1.079-8.054 6.831-.36-11.505-6.184-14.526-2.013-9.348z" style="fill:#ffb0ac"/><path d="m49.474 122.104 2.66-4.027 9.996-1.51 8.125 1.726-3.308 3.02z" style="fill:#f4806d"/><path d="m68.601 161.223-5.32-10.93-2.877-9.636 2.445-11.362 3.883-4.89-.432-3.164 5.322-1.438 8.341 1.15 7.047 6.904 4.17 10.355 5.034 14.238-14.094 7.19-9.204 3.165z" style="fill:#fff"/><path d="m147.152 123.736-3.025 1.832 1.85 4.159.718 9.06-2.877 8.197-12.8 13.088-3.452 1.295-1.293-1.295-15.82 9.492-.682 2.436h45.952l1.295-4.508 5.185-22.576.383-9.58-.688-5.777-2.847.408-.305 6-1.322 6.355-5.848-2.39-.71-6.864-1.618-6.289-2.096-3.043z" style="fill:#f8c18c"/><path d="m127.017 161.39 4.78-1.729 8.237-8.339 6.61-11.593-.508-10.78-1.882-4.144-1.78-2.873-2.262.687-4.144-2.161-9.305.915-8.797 6.712-10.424 10.525 2.594 2.44 1.627-.864 6.61 3.153 4.78 5.034 3.762 9.458zM148.576 125.695l10.373 2.237v9.356l-1.627 4.78-5.593-2.746-.814-8.339z" style="fill:#fff"/><ellipse cx="126.364" cy="91.127" rx="8.772" ry="6.329" style="opacity:1;vector-effect:none;fill:#ffd6d4;fill-opacity:1;fill-rule:evenodd;stroke-width:1.04125595;paint-order:stroke fill markers" transform="matrix(.9987 .05109 -.05601 .99843 0 0)"/><path d="m150.102 31.525-17.696 1.424-6.812.916-13.934 6.508-8.135 8.236-2.236 8.848.508 7.729 1.728 3.763 3.764 1.424 3.356-10.678 1.728 12.407 11.898 4.17 8.848 2.949.102 3.66.406 13.83-3.863 15.357-1.424 1.016-11.594-2.236-8.543-4.577-3.152 5.899-1.12 9.66 15.663 1.12 3.152 1.321 6.61-3.56 9.458.814 1.422 1.627 1.934-1.322 2.54 3.865 2.442-1.627 2.543 2.643 8.541 1.322 1.528 2.442 2.338-.305v-1.729l2.238-2.035 1.117-1.22 5.39 1.017 1.153-1.22V39.163l-7.764-4.08-14.134-3.559z" style="fill:#d3b69a"/><path d="m110.645 140.236-15.051 13.018-22.475 9.56-6.408-.51-7.422 5.188L55.977 172H104.6l4.62-1.865 17.798-11.287-1.323-6.102-8.238-10.373-6.812-2.137z" style="fill:#fcecdc"/><path d="m162.71 130.373-.608 14.645-5.493 23.287 6.307-.203 9.064-5.702c.006-.133.02-.265.02-.4v-9.68l-2.475-6.185-4.677-13.932-2.137-1.83z" style="fill:#fff"/><path d="m170.135 164.441-7.627 3.965-6.203 1.12-.862 2.474H162a9.974 9.974 0 0 0 8.744-5.14l-.61-2.419z" style="fill:#fcecdc;stroke:none;stroke-width:1px;stroke-linecap:butt;stroke-linejoin:miter;stroke-opacity:1"/><ellipse cx="110.284" cy="81.723" rx="2.441" ry="1.761" style="opacity:1;vector-effect:none;fill:#ffd6d4;fill-opacity:1;fill-rule:evenodd;stroke-width:.28974509;paint-order:stroke fill markers" transform="matrix(.9987 .05109 -.05601 .99843 0 0)"/><ellipse cx="82.923" cy="103.556" rx="2.873" ry="2.156" style="opacity:.5;vector-effect:none;fill:#ba6561;fill-opacity:1;fill-rule:evenodd;stroke-width:.34779885;paint-order:stroke fill markers" transform="rotate(-7.623) skewX(-.04)"/><path d="M67.163 124.262s-5.852 4.813-6.256 14.957c-.367 9.207 7.191 20.71 7.191 20.71M35.39 109.119s-.565 8.776-1.932 15.356c-1.168 5.62-3.434 10.938-3.458 18.508-.02 6.423 3.864 15.966 3.864 15.966" style="fill:none;stroke:#ba6561;stroke-width:2;stroke-linecap:round;stroke-linejoin:round;stroke-miterlimit:4;stroke-dasharray:none;stroke-opacity:1"/><path d="M147.102 30.59c-8.388-.17-15.082 1.373-15.082 1.373a1 1 0 1 0 .443 1.95s11.62-2.626 23.037-.497c8.174 1.524 13.593 4.776 16.5 6.988v-2.43c-3.313-2.282-8.663-5.13-16.133-6.523-2.986-.557-5.97-.805-8.765-.861zm-90.848.293c-3.005-.032-9.859.199-16.615 2.545C29.062 37.1 23.095 44.077 20 49.066v4.08c2.03-4.267 7.694-13.453 20.295-17.828 8.53-2.961 17.4-2.388 17.4-2.388a1 1 0 1 0 .135-1.996s-.574-.04-1.576-.051zm-2.506 74.965a1 1 0 0 0-.935.586s-5.806 12.301-4.985 29.453c.265 5.532 2.185 9.888 4.031 13.81 1.847 3.922 3.592 7.407 3.807 11.293.257 4.637-.049 7.446-.395 9.05-.172.8-.356 1.301-.48 1.581s-.129.266-.129.266a1 1 0 0 0-.078.113h2.2c.146-.395.298-.87.443-1.54.395-1.833.7-4.811.435-9.58-.244-4.408-2.162-8.146-3.992-12.034-1.83-3.889-3.6-7.932-3.846-13.055-.798-16.658 4.797-28.504 4.797-28.504a1 1 0 0 0-.873-1.44zM172 119.878c-.96 3.866-2.303 5.651-2.303 5.651a1 1 0 1 0 1.598 1.203s.293-.406.705-1.177v-5.676zm-10.098 7.446a1 1 0 0 0-.988 1.192s.05.379.065.468a1 1 0 0 0 .181 1.375c.37 3.352.837 10.952-1.053 19.84-1.663 7.824-4.262 17.056-5.64 21.801h2.068c.292-1.005.308-1.034.695-2.4 1.357.088 5.009.155 8.116-1.448a37.208 37.208 0 0 0 4.271-2.574l.57 2.166a9.927 9.927 0 0 0 1.352-2.724l-.193-.73c.169-.136.31-.264.47-.397.117-.614.184-1.245.184-1.893v-.865c-1.555 1.491-3.954 3.375-7.57 5.24-2.19 1.13-5.12 1.25-6.631 1.227 1.377-4.95 3.062-11.335 4.263-16.987 1.646-7.74 1.556-14.572 1.256-18.61a7.615 7.615 0 0 1 1.688 3.034c1.321 4.545 2.407 8.848 3.82 13.258.947 2.954 2.127 5.23 3.174 6.885v-4.284a28.182 28.182 0 0 1-1.27-3.212c-1.388-4.332-2.47-8.617-3.804-13.206a9.627 9.627 0 0 0-3.906-5.324c-.055-.377-.137-.994-.137-.994a1 1 0 0 0-.98-.838zM126.44 158.13a1 1 0 0 0-.677.322s-3.294 3.504-10.979 7.795c-6.106 3.409-12.777 5.68-12.777 5.68a1 1 0 0 0-.182.074h5.533c.537-.223 1.057-.435 1.649-.693l-.176.693h2.065l.447-1.754a72.274 72.274 0 0 0 4.416-2.254c7.881-4.4 11.457-8.168 11.457-8.168a1 1 0 0 0-.776-1.695zm-104.418 8.2a1 1 0 0 0-.802.47 9.977 9.977 0 0 0 1.447 1.998c1.333.71 3.712 1.857 6.25 2.392 4.172.881 7.633-.242 7.633-.242a1 1 0 1 0-.613-1.902s-2.985.952-6.606.187c-3.256-.687-6.738-2.753-6.738-2.753a1 1 0 0 0-.57-.15z" style="color:#000;font-style:normal;font-variant:normal;font-weight:400;font-stretch:normal;font-size:medium;line-height:normal;font-family:sans-serif;font-variant-ligatures:normal;font-variant-position:normal;font-variant-caps:normal;font-variant-numeric:normal;font-variant-alternates:normal;font-feature-settings:normal;text-indent:0;text-align:start;text-decoration:none;text-decoration-line:none;text-decoration-style:solid;text-decoration-color:#000;letter-spacing:normal;word-spacing:normal;text-transform:none;writing-mode:lr-tb;direction:ltr;text-orientation:mixed;dominant-baseline:auto;baseline-shift:baseline;text-anchor:start;white-space:normal;shape-padding:0;clip-rule:nonzero;display:inline;overflow:visible;visibility:visible;opacity:1;isolation:auto;mix-blend-mode:normal;color-interpolation:sRGB;color-interpolation-filters:linearRGB;solid-color:#000;solid-opacity:1;vector-effect:none;fill:#ba6561;fill-opacity:1;fill-rule:nonzero;stroke:none;stroke-width:2;stroke-linecap:round;stroke-linejoin:round;stroke-miterlimit:4;stroke-dasharray:none;stroke-dashoffset:0;stroke-opacity:1;color-rendering:auto;image-rendering:auto;shape-rendering:auto;text-rendering:auto;enable-background:accumulate"/><path d="M35.02 164.459s.288 1.353.36 2.66c.07 1.308-.432 2.805-.432 2.805M56.136 170.746s7.028-7.205 10.067-8.238c3.011-1.022 6 .102 6 .102M72.407 163.017s7.723-1.453 20.746-8.898c9.835-5.623 17.694-13.78 17.694-13.78M108.915 140.644s-2.04-1.064-.915-2.542c7.214-5.09 11.509-13.467 17.44-16.068 9.445-4.142 14.899.712 14.899.712" style="fill:none;stroke:#ba6561;stroke-width:2;stroke-linecap:round;stroke-linejoin:round;stroke-miterlimit:4;stroke-dasharray:none;stroke-opacity:1"/><path d="M110.034 139.576s5.818-.085 12.102 7.882c4.908 6.224 4.983 13.83 4.983 13.83s3.58 1.803 14.542-12.102c10.147-12.87 2.339-23.44 2.339-23.44M49.424 122.95s4.104-1.785 10.013-1.879c4.355-.069 7.682.15 7.682.15s3.595-1.406 5.491-1.526c6.345-.402 14.55 5.408 17.26 13.896a864.104 864.104 0 0 0 5.723 17.228M50.265 120.019s1.79-3.036 6.687-3.236c11.23-.46 14.598 2.013 14.598 2.013l-2.877 1.007M147.458 123.966s4.502 5.657 4.077 14.438c-.038.78.055 1.265.41 1.493 1.176.76 2.876 1.517 4.36 2.07.993.368 1.534-.294 1.729-.916 1.617-5.163.55-12.838.55-12.838M61.627 32.644s15.78.06 29.085 14.237c10.38 11.062 6.377 25.453 6.293 26.52-5.966 5.415-20.817 8.813-20.817 8.813" style="fill:none;stroke:#ba6561;stroke-width:2;stroke-linecap:round;stroke-linejoin:round;stroke-miterlimit:4;stroke-dasharray:none;stroke-opacity:1"/><path d="M74.714 82.05s6.274-8.543-.072-29.194c2.43 23.735-6.04 30.058-6.04 30.058l-6.113 2.373M61.267 83.992s-1.255 6.604 1.222 12.153c-5.82-.799-8.341-9.348-8.341-9.348M56.664 103.983s-1.86 1.956-4.314 2.086c-3.676.193-9.175-2.167-10.14-10.283-.448-3.774 1.047-9.763 5.466-10.643 3.233-.644 5.465.431 5.465.431M95.186 75.661s.296 5.637.61 8.44c.552 4.914 4.675 8.916 4.679 13.323.003 3.45-.639 8.326-11.848 14.796-13.263 7.656-22.017 2.695-22.017 2.695M89.085 112.678s4.17 9.158 6.407 16.068c2.085 6.443-1.017 14.644-1.017 14.644" style="fill:none;stroke:#ba6561;stroke-width:2;stroke-linecap:round;stroke-linejoin:round;stroke-miterlimit:4;stroke-dasharray:none;stroke-opacity:1"/><path d="M82.84 92.693s4.696-6.73 6.471-6.903c2.592-.252 2.733 2.157 2.733 2.157s-1.305-.773-3.236 0c-2.384.956-5.969 4.746-5.969 4.746zM103.693 69.323s-2.938-6.228-2.394-11.514c2.038-19.789 26.124-24.01 26.124-24.01M110.44 59.695s-4.206 6.77-3.965 23.695c0 0-5.411 5.792-4.78 11.695.702 6.567 5.633 11.513 12.305 14.746 5.875 2.846 15.254 3.05 15.254 3.05" style="fill:none;stroke:#ba6561;stroke-width:2;stroke-linecap:round;stroke-linejoin:round;stroke-miterlimit:4;stroke-dasharray:none;stroke-opacity:1"/><path d="M116.709 47.103s-4.938 6.057-5.969 12.944c-.895 5.977 2.66 14.022 2.66 14.022M108.203 106.678s-2.619 3.443-3.559 7.22c-.857 3.443-.712 7.73-.712 7.73M120.712 111.966s-1.353 1.813-1.729 5.39c-.341 3.242.61 5.491.61 5.491M122.231 66.587s.285 3.302.814 5.491c.673 2.79 1.955 4.947 1.955 4.947M131.378 59.471s1.09 5.931 1.438 10.427c.36 4.648.144 10.068.144 10.068M133.22 82.78s.585 5.365.305 10.17c-.522 8.978-3.62 15.215-4.067 21.457-.18 2.51.406 5.898.406 5.898M141.661 109.736s-.84 3.135-.575 6.616c.24 3.153 1.007 5.393 1.007 5.393M153.382 90.249s-.44 2.196-.431 4.89c.02 6.707 2.132 13.858 2.157 20.565.018 4.69-.79 7.767-.79 7.767M164.169 125.915s1.266-1.145 1.582-4.098c.644-6.025-.072-10.715-.072-10.715" style="fill:none;stroke:#ba6561;stroke-width:2;stroke-linecap:round;stroke-linejoin:round;stroke-miterlimit:4;stroke-dasharray:none;stroke-opacity:1"/><path d="M121.168 89.242s-3.762-5.796-7.55-6.112c-2.596-.217-2.661 2.876-2.661 2.876s1.282-.977 3.307-.503c4.398 1.027 6.904 3.739 6.904 3.739z" style="fill:#ba6561;stroke:#ba6561;stroke-width:2;stroke-linecap:round;stroke-linejoin:round;stroke-miterlimit:4;stroke-dasharray:none;stroke-opacity:1"/><path d="M97.932 42.254s9.057-6.266 9.102-11.034c.02-2.099-.883-4.806-3.915-4.932-2.476-.102-5.136 3.204-5.136 3.204s-2.435-3.438-5.186-3.356c-2.38.07-3.655 2.697-3.661 4.678-.021 6.132 8.796 11.44 8.796 11.44z" style="fill:#f8c18c;stroke:#f8c18c;stroke-width:2;stroke-linecap:round;stroke-linejoin:round;stroke-miterlimit:4;stroke-dasharray:none;stroke-opacity:1"/><ellipse cx="60.696" cy="114.143" rx="8.377" ry="6.328" style="opacity:.5;vector-effect:none;fill:#ba6561;fill-opacity:1;fill-rule:evenodd;stroke-width:1.01749408;paint-order:stroke fill markers" transform="rotate(-9.3)"/><ellipse cx="84.911" cy="176.11" rx="5.72" ry="4.653" style="opacity:1;vector-effect:none;fill:#ffd6d4;fill-opacity:1;fill-rule:evenodd;paint-order:stroke fill markers" transform="rotate(-6.963)"/></svg>