<?xml version="1.0" encoding="UTF-8" standalone="no"?>
<!DOCTYPE svg PUBLIC "-//W3C//DTD SVG 1.1//EN" "http://www.w3.org/Graphics/SVG/1.1/DTD/svg11.dtd">
<svg width="100%" height="100%" viewBox="0 0 192 192" version="1.1" xmlns="http://www.w3.org/2000/svg" xmlns:xlink="http://www.w3.org/1999/xlink" xml:space="preserve" xmlns:serif="http://www.serif.com/" style="fill-rule:evenodd;clip-rule:evenodd;stroke-linejoin:round;stroke-miterlimit:2;">
    <g id="Layer1">
        <g transform="matrix(1,0,0,1,8,8)">
            <circle cx="88" cy="88" r="88" style="fill:white;"/>
        </g>
        <g transform="matrix(0.928108,0,0,0.928108,5.27657,6.29461)">
            <path d="M128.236,67.957L128.236,110.378L117.47,110.378L117.47,119.99L113.531,119.99L113.531,124.713L113.482,124.733L106.907,124.733L106.907,126.777C103.961,127.432 100.896,127.778 97.751,127.778C92.176,127.778 86.852,126.691 81.984,124.718L81.984,125.625L73.022,125.625L73.022,132.995L63.678,132.995L63.678,67.957L128.236,67.957ZM81.984,87.054C82.332,95.455 89.263,102.17 97.751,102.17C106.46,102.17 113.531,95.099 113.531,86.39C113.531,77.68 106.46,70.609 97.751,70.609C89.263,70.609 82.332,77.324 81.984,85.725L81.984,87.054Z" style="fill:rgb(140,114,189);"/>
            <path d="M81.984,124.718C81.984,124.718 81.984,137.56 81.984,137.56C81.984,144.231 76.576,149.639 69.905,149.639C69.197,149.639 68.484,149.639 67.775,149.639C61.104,149.639 55.696,144.231 55.696,137.56L55.696,85.724C55.696,62.513 74.54,43.669 97.751,43.669C108.159,43.669 117.688,47.458 125.032,53.728C124.911,53.697 87.652,44.309 82.235,83.499C82.079,84.285 81.984,124.718 81.984,124.718Z" style="fill:rgb(154,190,255);"/>
            <path d="M98.118,70.62C97.991,70.613 97.869,70.609 97.751,70.609C90.026,70.609 83.589,76.172 82.234,83.506L82.235,83.499C87.652,44.309 124.911,53.697 125.032,53.728C124.819,53.546 125.249,53.905 125.032,53.728C134.443,61.445 139.806,72.619 139.806,85.724C139.806,106.987 123.991,124.586 103.491,127.389C103.605,127.305 134.728,105.761 110.127,76.603L110.099,76.57C107.277,73.03 102.966,70.729 98.118,70.62Z" style="fill:rgb(189,154,255);"/>
        </g>
    </g>
</svg>
