<?xml version="1.0" encoding="utf-8"?>
<!-- Generator: Adobe Illustrator 24.1.1, SVG Export Plug-In . SVG Version: 6.00 Build 0)  -->
<svg version="1.1" id="Layer_1" xmlns="http://www.w3.org/2000/svg" xmlns:xlink="http://www.w3.org/1999/xlink" x="0px" y="0px"
	 viewBox="0 0 192 192" style="enable-background:new 0 0 192 192;" xml:space="preserve">
<style type="text/css">
	.st0{fill:#F8C18C;}
	.st1{fill:#FFFFFF;}
</style>
<path class="st0" d="M29.5,19.5h133c5.5,0,10,4.5,10,10v133c0,5.5-4.5,10-10,10h-133c-5.5,0-10-4.5-10-10v-133
	C19.5,24,24,19.5,29.5,19.5z"/>
<g>
	<path class="st1" d="M77.1,84.6c-1.9,0.6-3.5,1.4-5.1,1.6c-6.8,1.1-12.3-1.6-17.5-5.6c-2.8-2.2-4.1-4.8-3.9-8.3
		c0.2-3.1,0.1-6.3,0.3-9.4c0.1-1.8,0.6-3.6,2.1-4.8c3.8-3.2,7.9-6,12.8-7.1c6.2-1.4,11.5,0.3,15.9,4.9c3.8,4,5.8,9,7.4,14.1
		c1.7,5.7,2.5,11.5,2.5,17.4c0,15.5,0,31,0,46.5c0,1.6-0.2,3.3-0.2,4.9c0,1-0.5,1.7-1.4,2c-3.2,1.1-6.5,1.4-9.8,0.6
		c-1.6-0.4-2.3-1.5-2.3-3c-0.1-2.3-0.3-4.6-0.3-6.9c0-14.1,0-28.2-0.1-42.3C77.4,87.8,77.2,86.2,77.1,84.6z"/>
	<path class="st1" d="M115.1,84.4c-0.1,1.7-0.4,3.2-0.4,4.8c0,14,0,28-0.1,42c0,2.4-0.1,4.8-0.3,7.2c-0.1,2.1-0.7,2.9-2.7,3
		c-2.7,0.2-5.5,0.3-8.2,0.1c-1.9-0.1-2.5-0.9-2.6-2.8c-0.1-1.2-0.2-2.4-0.2-3.6c0-15.8,0-31.7,0-47.5c0-6.8,0.9-13.4,3.2-19.8
		c1.4-4,3.2-7.8,6-11.1c5.2-5.8,11.7-7.5,19.1-4.9c3.7,1.3,6.9,3.6,9.9,6c1.6,1.3,2.3,3,2.4,5c0.1,4.1,0.2,8.3,0,12.4
		c0,1.2-0.7,2.6-1.5,3.4c-4,4.2-8.8,7.1-14.7,7.9c-2.8,0.4-5.5,0-8.1-1.2C116.4,85,115.9,84.8,115.1,84.4z"/>
</g>
</svg>
