<svg width="192" height="192" viewBox="0 0 192 192" fill="none" xmlns="http://www.w3.org/2000/svg">
<rect x="172" y="20" width="152" height="152" rx="10" transform="rotate(90 172 20)" fill="#BD9AFF"/>
<mask id="mask0_1024:2" style="mask-type:alpha" maskUnits="userSpaceOnUse" x="20" y="20" width="152" height="152">
<rect x="172" y="20" width="152" height="152" rx="10" transform="rotate(90 172 20)" fill="#BD9AFF"/>
</mask>
<g mask="url(#mask0_1024:2)">
<path fill-rule="evenodd" clip-rule="evenodd" d="M32 85L38.5 97.5L27 111L34.5 132H44L42.5 135C42.5 135 33.8568 133.829 29.5 136.5C26.0683 138.604 23 144.5 23 144.5L17 149L20 152C20 152 30.6728 149.803 37 147C41.7168 144.911 48.5 140.5 48.5 140.5C48.5 140.5 55.7029 137.513 60 135C63.0385 133.223 67.5 130 67.5 130L75.5 132L90 130C90 130 79.9466 139.786 79.5 147C79.0147 154.839 84.4189 159.157 91 161C103.5 164.5 109.5 149 109.5 149L118.5 143L125.5 150C125.5 150 124.357 155.971 125.5 159.5C126.703 163.215 128.5 167.5 131.5 167.5C133.168 167.5 133 163.5 133 163.5C133 163.5 134.073 167.121 135.5 169C137.271 171.333 140 174.392 141.5 173.5C142.86 172.691 141.472 169.447 140.339 166.796C140.222 166.523 140.108 166.257 140 166C139.256 164.231 138.357 163.145 137.373 161.959C136.775 161.235 136.145 160.475 135.5 159.5C133.468 156.427 130.5 151.5 130.5 151.5C130.5 151.5 138.292 149.18 143 147C146.012 145.605 150.5 143 150.5 143L145.5 122C145.5 122 136.636 116.601 130.5 116C124.087 115.371 114 116 114 116L106.5 99L67.5 68.5L32 85ZM112 134.5V141.5L115.5 139.5L112 134.5Z" fill="#728DBE"/>
<mask id="mask1_1024:2" style="mask-type:alpha" maskUnits="userSpaceOnUse" x="17" y="68" width="134" height="106">
<path fill-rule="evenodd" clip-rule="evenodd" d="M32 85L38.5 97.5L27 111L34.5 132H44L42.5 135C42.5 135 33.8568 133.829 29.5 136.5C26.0683 138.604 23 144.5 23 144.5L17 149L20 152C20 152 30.6728 149.803 37 147C41.7168 144.911 48.5 140.5 48.5 140.5C48.5 140.5 55.7029 137.513 60 135C63.0385 133.223 67.5 130 67.5 130L75.5 132L90 130C90 130 79.9466 139.786 79.5 147C79.0147 154.839 84.4189 159.157 91 161C103.5 164.5 109.5 149 109.5 149L118.5 143L125.5 150C125.5 150 124.357 155.971 125.5 159.5C126.703 163.215 128.5 167.5 131.5 167.5C133.168 167.5 133 163.5 133 163.5C133 163.5 134.073 167.121 135.5 169C137.271 171.333 140 174.392 141.5 173.5C142.86 172.691 141.472 169.447 140.339 166.796C140.222 166.523 140.108 166.257 140 166C139.256 164.231 138.357 163.145 137.373 161.959C136.775 161.235 136.145 160.475 135.5 159.5C133.468 156.427 130.5 151.5 130.5 151.5C130.5 151.5 138.292 149.18 143 147C146.012 145.605 150.5 143 150.5 143L145.5 122C145.5 122 136.636 116.601 130.5 116C124.087 115.371 114 116 114 116L106.5 99L67.5 68.5L32 85ZM112 134.5V141.5L115.5 139.5L112 134.5Z" fill="#C4C4C4"/>
</mask>
<g mask="url(#mask1_1024:2)">
<path d="M39 106L40 119.5L50 122L47.5 107.5L39 106Z" fill="white"/>
<path d="M39.8899 118L39.3999 112C39.3999 112 48.2272 116.118 45.4999 118C43.7248 119.225 39.8899 118 39.8899 118Z" fill="#FFB0AC"/>
<path d="M39.8174 116.75L39.5 114C39.5 114 44.0105 115.888 42.7572 116.75C41.9414 117.312 39.8174 116.75 39.8174 116.75Z" fill="#4A4A4A"/>
<path d="M38.5 119L34.5 132.5L48 132L63 106.5C63 106.5 60.285 102.032 57.5 100.5C54.883 99.0602 50 99 50 99L54.5 84L56 71.5L17.5 79L38.5 98L43 106.5C43 106.5 49.2663 113.198 47.5 117C45.8609 120.528 38.5 119 38.5 119Z" fill="#ECECEC"/>
<g filter="url(#filter0_i_1024:2)">
<path d="M51.5 115C55.3466 105.658 68 95 68 95L77.5 91L75 113.5C75 113.5 65.5824 117.501 60.5 121.5C54.9567 125.862 48.5 135 48.5 135H42.5C42.5 135 48 123.5 51.5 115Z" fill="#FFD6D4"/>
</g>
<path d="M78.5 117L70.5 127.5V134.5L86 132L83.5 127.5L81 123.5L78.5 117Z" fill="#54688C"/>
<path d="M70.5 128L68 130.5L73 132.5L107.5 127.5L106.5 125.5L81 129L70.5 128Z" fill="#D2D2D2"/>
<g filter="url(#filter1_i_1024:2)">
<path d="M39.5 137L48.5 135H42.5L40 133.5C40 133.5 32.1474 134.656 28.5 136.999C24.6686 139.461 23 145 23 145L33 142.5L39.5 137Z" fill="#ECECEC"/>
</g>
<path d="M81.5002 148C81.4658 140.052 91.0002 130 91.0002 130L79.5002 136.5C77.1669 143.667 72.6002 158.3 73.0002 159.5C73.4002 160.7 80.5002 159 84.0002 158C84.0002 158 81.5177 152.025 81.5002 148Z" fill="white"/>
<path d="M44 106L32 83.5L19 104C22.3333 113.833 29.3 133.4 30.5 133C31.7 132.6 39.3333 133.833 43 134.5L44.5 130.5L35 131.5L28 111L39 99.5L44 106Z" fill="white"/>
<path d="M100 108.5C105.331 109.956 112 116 112 116C112 116 103.343 115.5 102.5 117C101.657 118.5 106.5 125.5 106.5 125.5L103.5 126C103.5 126 99.2986 119.016 95.5 116C91.2592 112.633 83 110 83 110C83 110 93.5707 106.744 100 108.5Z" fill="#54688C"/>
<path d="M109 150.5C111.001 147.5 111 144.5 112 142L115 139.5L119 143.5C116.333 146 110.8 151.1 110 151.5C109 152 108.168 151.748 109 150.5Z" fill="#54688C"/>
<path d="M124 151.5H131H136L151.5 174.5L133 177.5C129.5 173.833 122.5 166.4 122.5 166C122.5 165.6 123.5 156.167 124 151.5Z" fill="#54688C"/>
<ellipse cx="41.57" cy="114.794" rx="1.5" ry="0.5" transform="rotate(11.7036 41.57 114.794)" fill="white"/>
<path d="M108.5 125L111 116L113 120.5L120 121L112.5 128L115.5 139.5L106.5 126.5L108.5 125Z" fill="#9ABEFF"/>
</g>
<path d="M46.9998 89C49.4394 89.0748 59.4998 79.5 59.4998 79.5L109.5 83L115.5 30.5C115.5 30.5 105.038 26.4939 97.9998 25.5C90.8461 24.4897 79.4998 25.5 79.4998 25.5C79.4998 25.5 81.5737 21.5545 83.4998 19.5C85.7974 17.0492 90.4998 14.5 90.4998 14.5L65.4998 16L54.9998 31.5C54.9998 31.5 42.3578 39.4267 38.9998 46C35.4466 52.9554 39.9998 63 39.9998 63C39.9998 63 36.9928 65.1927 34.9998 66.5C31.7795 68.6122 26.4998 71.5 26.4998 71.5C26.4998 71.5 24.9484 75.0853 24.9998 77.5C25.0967 82.0532 30.4514 87.5595 30.9998 87.5C32.7361 87.3117 34.9998 85.5 34.9998 85.5L40.9998 87.25C40.9998 87.25 44.5602 88.9252 46.9998 89Z" fill="#F8C18C"/>
<mask id="mask2_1024:2" style="mask-type:alpha" maskUnits="userSpaceOnUse" x="24" y="14" width="92" height="75">
<path d="M46.9998 89C49.4394 89.0748 59.4998 79.5 59.4998 79.5L109.5 83L115.5 30.5C115.5 30.5 105.038 26.4939 97.9998 25.5C90.8461 24.4897 79.4998 25.5 79.4998 25.5C79.4998 25.5 81.5737 21.5545 83.4998 19.5C85.7974 17.0492 90.4998 14.5 90.4998 14.5L65.4998 16L54.9998 31.5C54.9998 31.5 42.3578 39.4267 38.9998 46C35.4466 52.9554 39.9998 63 39.9998 63C39.9998 63 36.9928 65.1927 34.9998 66.5C31.7795 68.6122 26.4998 71.5 26.4998 71.5C26.4998 71.5 24.9484 75.0853 24.9998 77.5C25.0967 82.0532 30.4514 87.5595 30.9998 87.5C32.7361 87.3117 34.9998 85.5 34.9998 85.5L40.9998 87.25C40.9998 87.25 44.5602 88.9252 46.9998 89Z" fill="#F8C18C"/>
</mask>
<g mask="url(#mask2_1024:2)">
<path d="M75.5 28L83 19L126 23L116 33.5L95 28H75.5Z" fill="white"/>
<path d="M57.5 30.5L65.5 18.5L36 22L16.5 68L30.9978 88.4969C30.8895 88.3437 26.7781 82.5141 26 79.5C25.1646 76.2637 27 72.5 27 72.5L44 61L41 62C41 62 37 54 39.5 46.5C41.9113 39.2661 55.5 33 55.5 33H60.5L57.5 30.5Z" fill="white"/>
<path d="M35.5 81.5L35 85.5L30.5 83L34 81.5L59.5 63.5L35.5 81.5Z" fill="#982326"/>
<g filter="url(#filter2_i_1024:2)">
<path d="M43 80.9995V75.9995C43 75.9995 40.6713 75.7685 39.5 76.4995C38.3055 77.245 37.5 79.4995 37.5 79.4995L43 80.9995Z" fill="white"/>
</g>
<path d="M43.5 50C41.8931 53.6072 42 60 42 60L55 48.5L43 58.5C43 58.5 43.7663 53.4747 45 50.5C46.6182 46.5981 51 41.5 51 41.5C51 41.5 45.3014 45.9562 43.5 50Z" fill="#982326"/>
<path d="M49.0001 44L54.5001 49L42.5001 59C42.5001 59 42.3281 53.9223 43.5001 51C44.7942 47.7733 49.0001 44 49.0001 44Z" fill="white"/>
</g>
<mask id="mask3_1024:2" style="mask-type:alpha" maskUnits="userSpaceOnUse" x="42" y="44" width="13" height="15">
<path d="M49.0001 44L54.5001 49L42.5001 59C42.5001 59 42.3281 53.9223 43.5001 51C44.7942 47.7733 49.0001 44 49.0001 44Z" fill="white"/>
</mask>
<g mask="url(#mask3_1024:2)">
<ellipse cx="45.5" cy="52" rx="4.5" ry="5" fill="#4A4A4A"/>
<path d="M49.5002 52.0009C49.5002 54.7623 48.4857 56.9992 46.0004 56.9992C43.4601 56.6817 43.5428 55.6901 44.5002 54.9993C45.0504 54.6023 46.2242 55.3279 46.5 54.5C47.5 51.4983 49.5002 49.2394 49.5002 52.0009Z" fill="#9ABEFF"/>
<ellipse rx="1.26094" ry="1.68126" transform="matrix(0.7366 0.676328 0.676328 -0.7366 46.8491 49.4152)" fill="white"/>
</g>
<path d="M97.5 45.5C100.643 45.6886 105.5 46.5 105.5 46.5H122L110.5 101.5C110.5 101.5 96.7466 114.653 87 116.5C82.7793 117.3 79 116.5 79 116.5L83 106.5C83 106.5 69.5 113.5 66 112C63.4492 110.907 61.5 106.5 61.5 106.5L72.5 97C72.5 97 67.6033 95.4157 65 93.5C62.4398 91.6161 59.5 87.5 59.5 87.5V82C59.5 82 56.0657 72.2548 57 66C57.9289 59.7811 64 51.5 64 51.5C64 51.5 63.4674 39.8112 66 33C68.7767 25.532 76.5 15 76.5 15C76.5 15 78.4487 25.9635 78 32C77.6642 36.5166 76.5 43.5 76.5 43.5C76.5 43.5 85.3477 32.1573 93.5 27.5C101.069 23.1759 115 20.5 115 20.5C115 20.5 106.894 30.362 101 36C96.8982 39.9233 90 45.5 90 45.5C90 45.5 94.5763 45.3246 97.5 45.5Z" fill="#F9DE81"/>
<mask id="mask4_1024:2" style="mask-type:alpha" maskUnits="userSpaceOnUse" x="56" y="15" width="66" height="102">
<path d="M97.5 45.5C100.643 45.6886 105.5 46.5 105.5 46.5H122L110.5 101.5C110.5 101.5 96.7466 114.653 87 116.5C82.7793 117.3 79 116.5 79 116.5L83 106.5C83 106.5 69.5 113.5 66 112C63.4492 110.907 61.5 106.5 61.5 106.5L72.5 97C72.5 97 67.6033 95.4157 65 93.5C62.4398 91.6161 59.5 87.5 59.5 87.5V82C59.5 82 56.0657 72.2548 57 66C57.9289 59.7811 64 51.5 64 51.5C64 51.5 63.4674 39.8112 66 33C68.7767 25.532 76.5 15 76.5 15C76.5 15 78.4487 25.9635 78 32C77.6642 36.5166 76.5 43.5 76.5 43.5C76.5 43.5 85.3477 32.1573 93.5 27.5C101.069 23.1759 115 20.5 115 20.5C115 20.5 106.894 30.362 101 36C96.8982 39.9233 90 45.5 90 45.5C90 45.5 94.5763 45.3246 97.5 45.5Z" fill="#F9DE81"/>
</mask>
<g mask="url(#mask4_1024:2)">
<path d="M104.5 48L88.5 46.5L82 50L102.5 51L104.5 48Z" fill="#D3B69A"/>
<path d="M96 40.5C92.4 35.3 94.5 28.3333 96 25.5L126 15.5C117.5 26 99.6 45.7 96 40.5Z" fill="#8E6F60"/>
<path d="M74.5 25.5C72.9 23.9 69.5 24.1667 68 24.5L66.5 22.5L82.5 12.5L79.5 30C78.5 29.1667 76.1 27.1 74.5 25.5Z" fill="#8E6F60"/>
<path d="M42 78L63 52.5C63 52.5 64.9616 50.1597 67.5 48.5C70.0384 46.8403 76 44 76 44L90.5 25L115 20.5C115 20.5 98.5036 24.6896 90 31C83.5653 35.7751 76 46 76 46C76 46 64.5 49.5 60 61C57.1317 68.3301 58.5 80.5 58.5 80.5L42 78Z" fill="white"/>
<path d="M98.5 37C92.008 42.6881 81 50.5 81 50.5C81 50.5 90.4664 46.0517 97 40.5C104.204 34.3786 115 20.5 115 20.5C115 20.5 105.354 30.9947 98.5 37Z" fill="white"/>
<path d="M76.9955 26.3168C76.7637 34.9451 75.4999 45.5001 75.4999 45.5001C75.4999 45.5001 78.1864 38.3607 78.5466 29.7945C78.9439 20.3492 76.0847 3.0001 76.0847 3.0001C76.0847 3.0001 77.2402 17.2074 76.9955 26.3168Z" fill="white"/>
<path d="M90.5 95.5C94.6583 87.9363 101.698 78.9998 101.698 78.9998C101.698 78.9998 94.744 85.5503 90.5 93C85.8205 101.214 79 116 79 116C79 116 86.1098 103.485 90.5 95.5Z" fill="white"/>
<path d="M59.8171 110.129C65.754 103.864 73 97 73 97C73 97 66.4408 101.577 60.4497 107.711C53.8439 114.473 43.5038 127.052 43.5038 127.052C43.5038 127.052 53.5491 116.744 59.8171 110.129Z" fill="white"/>
<path d="M66.5 34.5C64.1385 42.8021 63.9998 51.9996 63.9998 51.9996C63.9998 51.9996 62.7797 41.2813 65 33C67.4482 23.8689 79.1121 7.99939 79.1121 7.99939C79.1121 7.99939 68.9932 25.735 66.5 34.5Z" fill="white"/>
<ellipse cx="80.236" cy="78.1514" rx="7.21209" ry="6.90273" transform="rotate(-10.9891 80.236 78.1514)" fill="#FF837D"/>
<path d="M71 91.5C71 93.1569 70.2091 94 68 94C65 94 62 89.5 62 89.5C62 89.5 64.2909 89 66.5 89C68.7091 89 71 89.8431 71 91.5Z" fill="#982326"/>
<path d="M68.367 89.207C67.5209 89.8025 67.3492 90.6332 67.6468 91.7438C67.928 92.7933 69.0702 93.2498 70.4249 93.2785C70.8292 92.863 70.9999 92.2689 70.9999 91.4992C70.9999 90.3181 69.8358 89.5505 68.367 89.207Z" fill="#FF837D"/>
<path d="M78.5 97.5C82.4243 97.5577 88.5 96.5 88.5 96.5C88.5 96.5 87.5428 97.9992 87 99C86.5837 99.7676 86 101 86 101C86 101 83.6199 99.6528 82 99C80.3801 98.3472 72.5 97 72.5 97C72.5 97 76.149 97.4654 78.5 97.5Z" fill="#C39A54"/>
<g filter="url(#filter3_i_1024:2)">
<path d="M62.6665 74.1486C62.6966 74.4137 62.7387 74.6836 62.7933 74.9565C63.3305 77.6419 64.8768 79.5965 66.2471 79.3224C67.6173 79.0483 68.2926 76.6491 67.7554 73.9638C67.2182 71.2785 65.6719 69.3238 64.3016 69.5979C64.2192 69.6144 64.1392 69.6386 64.0619 69.6701C64.3101 71.8563 63.7434 73.71 62.6665 74.1486Z" fill="#4A4A4A"/>
</g>
</g>
<mask id="mask5_1024:2" style="mask-type:alpha" maskUnits="userSpaceOnUse" x="62" y="69" width="6" height="11">
<path d="M62.6665 74.1486C62.6966 74.4137 62.7387 74.6836 62.7933 74.9565C63.3305 77.6419 64.8768 79.5965 66.2471 79.3224C67.6173 79.0483 68.2926 76.6491 67.7554 73.9638C67.2182 71.2785 65.6719 69.3238 64.3016 69.5979C64.2192 69.6144 64.1392 69.6386 64.0619 69.6701C64.3101 71.8563 63.7434 73.71 62.6665 74.1486Z" fill="#4A4A4A"/>
</mask>
<g mask="url(#mask5_1024:2)">
<path d="M62 72.8088C62.0171 72.9715 62.0411 73.1372 62.0721 73.3046C62.3777 74.9528 63.2574 76.1525 64.0369 75.9843C64.8164 75.816 65.2006 74.3435 64.895 72.6954C64.5894 71.0472 63.7097 69.8475 62.9302 70.0157C62.8833 70.0259 62.8378 70.0407 62.7938 70.06C62.935 71.4018 62.6126 72.5396 62 72.8088Z" fill="white"/>
</g>
<path fill-rule="evenodd" clip-rule="evenodd" d="M152.5 31.5L157.72 19H117C117 19 113.997 21.7068 113 24C112.13 26.002 112 29.5 112 29.5C112 29.5 101.045 46.8849 99.0003 60C96.7702 74.3056 103.5 96.5 103.5 96.5C103.5 96.5 113.455 105.774 121.5 107C127.534 107.92 137 105 137 105C137 105 137.574 110.259 138.5 113.5C139.128 115.697 140.5 119 140.5 119L131.5 131C131.5 131 122.183 135.5 120 140C117.784 144.568 117.239 149.964 121.5 152C124.212 153.296 131.366 148.365 135.771 145.327C136.903 144.548 137.853 143.893 138.5 143.5L148.5 140C148.5 140 156.12 152.93 162 160.5C164.975 164.33 171 171 171 171L189 87.5L177.371 21.1155L158 33.5L159 28L152.5 31.5ZM167 93.4998C167.833 91.4998 170.4 87.3998 174 86.9998C177.6 86.5998 177.833 90.1664 177.5 91.9998L172 93.4998H167Z" fill="#F2F2F2"/>
<mask id="mask6_1024:2" style="mask-type:alpha" maskUnits="userSpaceOnUse" x="98" y="19" width="91" height="153">
<path fill-rule="evenodd" clip-rule="evenodd" d="M152.5 31.5L157.411 19H117C117 19 113.997 21.7068 113 24C112.13 26.002 112 29.5 112 29.5C112 29.5 101.045 46.8849 99.0003 60C96.7702 74.3056 103.5 96.5 103.5 96.5C103.5 96.5 113.455 105.774 121.5 107C127.534 107.92 137 105 137 105C137 105 137.574 110.259 138.5 113.5C139.128 115.697 140.5 119 140.5 119L131.5 131C131.5 131 122.183 135.5 120 140C117.784 144.568 117.239 149.964 121.5 152C124.212 153.296 131.366 148.365 135.771 145.327L135.772 145.327L135.772 145.327L135.772 145.327L135.773 145.326C136.904 144.547 137.853 143.892 138.5 143.5L148.5 140C148.5 140 156.12 152.93 162 160.5C164.975 164.33 171.5 172 171.5 172L189 87.5L177.288 20.6416L158 33.5L159 28L152.5 31.5ZM177.256 20.4625L167.75 19H177L177.256 20.4625ZM167 93.4998C167.833 91.4998 170.4 87.3998 174 86.9998C177.6 86.5998 177.833 90.1664 177.5 91.9998L172 93.4998H167Z" fill="#F2F2F2"/>
</mask>
<g mask="url(#mask6_1024:2)">
<ellipse cx="118.5" cy="101.5" rx="7.5" ry="5.5" fill="#FF837D"/>
<path fill-rule="evenodd" clip-rule="evenodd" d="M124.927 104.338C122.588 103.407 121 101.59 121 99.5009C121 98.4631 121.392 97.4923 122.073 96.6641C124.412 97.5952 126 99.4121 126 101.501C126 102.539 125.608 103.509 124.927 104.338Z" fill="#FFB0AC"/>
<path d="M119.5 79.0008C121.354 86.296 118.966 92.74 116.386 93.3958C113.805 94.0515 115.354 88.2952 113.5 81L123.5 73.5007C123.5 73.5007 122.5 75.4997 119.5 79.0008Z" fill="#728DBE"/>
<path d="M116.599 79.1588C117.516 82.7663 117.822 86.143 117.59 88.6781C117.474 89.9481 117.226 90.9784 116.872 91.7155C116.516 92.4557 116.09 92.8344 115.644 92.9475C115.199 93.0606 114.643 92.9316 113.978 92.4509C113.315 91.9722 112.605 91.1856 111.896 90.1251C110.482 88.0082 109.14 84.8947 108.223 81.2872C107.306 77.6796 107 74.3029 107.231 71.7678C107.348 70.4979 107.596 69.4675 107.95 68.7305C108.306 67.9902 108.732 67.6116 109.177 67.4984C109.623 67.3853 110.178 67.5143 110.844 67.9951C111.507 68.4737 112.217 69.2604 112.926 70.3208C114.339 72.4378 115.682 75.5513 116.599 79.1588Z" fill="white" stroke="#979797"/>
<ellipse cx="111.98" cy="80.1255" rx="3.45239" ry="11.6329" transform="rotate(-14.2578 111.98 80.1255)" fill="#FF837D"/>
<ellipse cx="116.012" cy="25.2074" rx="3.45239" ry="11.6329" transform="rotate(39.0703 116.012 25.2074)" fill="white"/>
<path d="M139 45C134.951 49.988 128.681 60.2383 128.681 60.2383C128.681 60.2383 133.451 48.988 137.5 44C141.549 39.012 158 27.9995 158 27.9995C158 27.9995 143.049 40.012 139 45Z" fill="white"/>
<path d="M148.5 49C152.436 42.1821 158.5 28.5 158.5 28.5C158.5 28.5 158.514 43.8835 154.577 50.7014C150.641 57.5193 134 74.6801 134 74.6801C134 74.6801 144.564 55.8179 148.5 49Z" fill="#D2D2D2"/>
<path d="M153.779 71.6734C160.144 67.0407 171.24 56.9986 171.24 56.9986C171.24 56.9986 165.007 71.0628 158.642 75.6955C155.204 78.1977 149.728 98.949 144.5 101C118 112.998 133 88.107 135.5 85.999C141.519 80.9254 147.413 76.3061 153.779 71.6734Z" fill="#D2D2D2"/>
<path d="M157.419 74.3677C163.784 69.735 171.24 57.0001 171.24 57.0001C171.24 57.0001 165.007 71.0643 158.642 75.697C152.277 80.3297 135.5 85.9999 135.5 85.9999C135.5 85.9999 151.053 79.0004 157.419 74.3677Z" fill="white"/>
<path d="M152.919 49.9834C156.856 43.1655 158.5 28.5 158.5 28.5C158.5 28.5 158.514 43.8835 154.577 50.7014C150.641 57.5193 134 74.6801 134 74.6801C134 74.6801 148.983 56.8013 152.919 49.9834Z" fill="white"/>
<path d="M151.541 29.4839C155.477 22.666 160 8.50051 160 8.50051C160 8.50051 157.135 23.384 153.199 30.2019C149.263 37.0198 147.5 36.0011 147.5 36.0011C147.5 36.0011 147.605 36.3018 151.541 29.4839Z" fill="white"/>
<path d="M164.395 31.7832C170.979 27.4672 181.5 19.5 181.5 19.5C181.5 19.5 170.168 25.8526 163.584 30.1686C157 34.4845 158.117 36.1868 158.117 36.1868C158.117 36.1868 157.81 36.0992 164.395 31.7832Z" fill="white"/>
<ellipse rx="1.4304" ry="4.81977" transform="matrix(-0.969197 0.246286 0.246286 0.969197 111.573 81.0236)" fill="white"/>
<path d="M106 100V92L100 96L106 100Z" fill="#F8C18C"/>
<g filter="url(#filter4_i_1024:2)">
<path d="M119.665 61L103.665 97C103.665 97 98.054 83.5213 99.0001 72C100.648 51.9326 116.5 18 132 14.5C132 14.5 123 32 120.665 40.5C118.541 48.2288 119.665 61 119.665 61Z" fill="#F9DE81"/>
</g>
<path d="M160 91L147.316 102.481C147.316 102.481 158.214 95.8565 163.5 95.0004C178.937 92.5004 176.426 74.2223 175 67.0003C170.447 76.1299 164.937 86.5505 160 91Z" fill="#F9DE81"/>
<g filter="url(#filter5_i_1024:2)">
<path d="M117 55L101 91C101 91 97.5538 75.0213 98.4999 63.5C100.148 43.4326 109.317 30.2326 124 17L118 34.5C116.38 42.3499 117 55 117 55Z" fill="#F8C18C"/>
</g>
<path d="M134 113L140.5 119L144 116C144 116 143.696 108.395 147 104C151.516 97.9938 165.5 94.5 165.5 94.5C165.5 94.5 164.121 91.0759 163 89C160.16 83.7409 153.5 77 153.5 77C153.5 77 149.381 83.4001 148 88C146.697 92.3377 146.5 99.5 146.5 99.5L138.5 93.5C138.5 93.5 138.064 100.297 137 104.5C136.136 107.912 134 113 134 113Z" fill="#728DBE"/>
<path d="M155 126C163.187 120.564 174 109.5 174 109.5L178.5 126C178.5 126 168.5 130.699 162 133.5C153.309 137.245 139.5 142.5 139.5 142.5C133.572 147.188 129.103 154.316 128.415 156.413C128.707 156.7 128.77 156.91 128.5 157C128.293 157.069 128.271 156.851 128.415 156.413C127.41 155.426 123.695 153.533 121.5 152.5C121.5 152.5 132.835 146.377 133.5 139.5C133.806 136.336 132 131.5 132 131.5C132 131.5 135.091 131.092 137 131.5C138.881 131.902 141.5 133.5 141.5 133.5C141.5 133.5 149.976 129.336 155 126Z" fill="#D2D2D2"/>
<path d="M156.5 137.5L172.5 130.5L165 140L156.5 137.5Z" fill="#728DBE"/>
<path d="M123.5 140C123 142.167 122.8 147 126 149" stroke="#D2D2D2" stroke-linecap="round"/>
<path d="M120.286 142C119.786 144.167 119.586 149 122.786 151" stroke="#D2D2D2" stroke-linecap="round"/>
</g>
</g>
<defs>
<filter id="filter0_i_1024:2" x="42.5" y="91" width="35" height="44" filterUnits="userSpaceOnUse" color-interpolation-filters="sRGB">
<feFlood flood-opacity="0" result="BackgroundImageFix"/>
<feBlend mode="normal" in="SourceGraphic" in2="BackgroundImageFix" result="shape"/>
<feColorMatrix in="SourceAlpha" type="matrix" values="0 0 0 0 0 0 0 0 0 0 0 0 0 0 0 0 0 0 127 0" result="hardAlpha"/>
<feOffset dy="1"/>
<feComposite in2="hardAlpha" operator="arithmetic" k2="-1" k3="1"/>
<feColorMatrix type="matrix" values="0 0 0 0 1 0 0 0 0 1 0 0 0 0 1 0 0 0 1 0"/>
<feBlend mode="normal" in2="shape" result="effect1_innerShadow_1024:2"/>
</filter>
<filter id="filter1_i_1024:2" x="23" y="133.5" width="25.5" height="11.5" filterUnits="userSpaceOnUse" color-interpolation-filters="sRGB">
<feFlood flood-opacity="0" result="BackgroundImageFix"/>
<feBlend mode="normal" in="SourceGraphic" in2="BackgroundImageFix" result="shape"/>
<feColorMatrix in="SourceAlpha" type="matrix" values="0 0 0 0 0 0 0 0 0 0 0 0 0 0 0 0 0 0 127 0" result="hardAlpha"/>
<feOffset dx="1"/>
<feComposite in2="hardAlpha" operator="arithmetic" k2="-1" k3="1"/>
<feColorMatrix type="matrix" values="0 0 0 0 1 0 0 0 0 1 0 0 0 0 1 0 0 0 1 0"/>
<feBlend mode="normal" in2="shape" result="effect1_innerShadow_1024:2"/>
</filter>
<filter id="filter2_i_1024:2" x="37.5" y="75.9648" width="5.5" height="5.03516" filterUnits="userSpaceOnUse" color-interpolation-filters="sRGB">
<feFlood flood-opacity="0" result="BackgroundImageFix"/>
<feBlend mode="normal" in="SourceGraphic" in2="BackgroundImageFix" result="shape"/>
<feColorMatrix in="SourceAlpha" type="matrix" values="0 0 0 0 0 0 0 0 0 0 0 0 0 0 0 0 0 0 127 0" result="hardAlpha"/>
<feOffset dx="-1"/>
<feComposite in2="hardAlpha" operator="arithmetic" k2="-1" k3="1"/>
<feColorMatrix type="matrix" values="0 0 0 0 0.823529 0 0 0 0 0.823529 0 0 0 0 0.823529 0 0 0 1 0"/>
<feBlend mode="normal" in2="shape" result="effect1_innerShadow_1024:2"/>
</filter>
<filter id="filter3_i_1024:2" x="61.6665" y="68.5723" width="6.27344" height="10.7754" filterUnits="userSpaceOnUse" color-interpolation-filters="sRGB">
<feFlood flood-opacity="0" result="BackgroundImageFix"/>
<feBlend mode="normal" in="SourceGraphic" in2="BackgroundImageFix" result="shape"/>
<feColorMatrix in="SourceAlpha" type="matrix" values="0 0 0 0 0 0 0 0 0 0 0 0 0 0 0 0 0 0 127 0" result="hardAlpha"/>
<feOffset dx="-1.5" dy="-1.5"/>
<feGaussianBlur stdDeviation="0.5"/>
<feComposite in2="hardAlpha" operator="arithmetic" k2="-1" k3="1"/>
<feColorMatrix type="matrix" values="0 0 0 0 0.764706 0 0 0 0 0.603922 0 0 0 0 0.329412 0 0 0 1 0"/>
<feBlend mode="normal" in2="shape" result="effect1_innerShadow_1024:2"/>
</filter>
<filter id="filter4_i_1024:2" x="98.8926" y="14.5" width="33.1074" height="82.5" filterUnits="userSpaceOnUse" color-interpolation-filters="sRGB">
<feFlood flood-opacity="0" result="BackgroundImageFix"/>
<feBlend mode="normal" in="SourceGraphic" in2="BackgroundImageFix" result="shape"/>
<feColorMatrix in="SourceAlpha" type="matrix" values="0 0 0 0 0 0 0 0 0 0 0 0 0 0 0 0 0 0 127 0" result="hardAlpha"/>
<feOffset dx="3" dy="1"/>
<feComposite in2="hardAlpha" operator="arithmetic" k2="-1" k3="1"/>
<feColorMatrix type="matrix" values="0 0 0 0 1 0 0 0 0 1 0 0 0 0 1 0 0 0 1 0"/>
<feBlend mode="normal" in2="shape" result="effect1_innerShadow_1024:2"/>
</filter>
<filter id="filter5_i_1024:2" x="98.3354" y="17" width="25.6646" height="74" filterUnits="userSpaceOnUse" color-interpolation-filters="sRGB">
<feFlood flood-opacity="0" result="BackgroundImageFix"/>
<feBlend mode="normal" in="SourceGraphic" in2="BackgroundImageFix" result="shape"/>
<feColorMatrix in="SourceAlpha" type="matrix" values="0 0 0 0 0 0 0 0 0 0 0 0 0 0 0 0 0 0 127 0" result="hardAlpha"/>
<feOffset dx="3" dy="1"/>
<feComposite in2="hardAlpha" operator="arithmetic" k2="-1" k3="1"/>
<feColorMatrix type="matrix" values="0 0 0 0 1 0 0 0 0 1 0 0 0 0 1 0 0 0 1 0"/>
<feBlend mode="normal" in2="shape" result="effect1_innerShadow_1024:2"/>
</filter>
</defs>
</svg>
