<?xml version="1.0" encoding="UTF-8" standalone="no"?>
<svg
   xmlns:dc="http://purl.org/dc/elements/1.1/"
   xmlns:cc="http://creativecommons.org/ns#"
   xmlns:rdf="http://www.w3.org/1999/02/22-rdf-syntax-ns#"
   xmlns:svg="http://www.w3.org/2000/svg"
   xmlns="http://www.w3.org/2000/svg"
   xmlns:sodipodi="http://sodipodi.sourceforge.net/DTD/sodipodi-0.dtd"
   xmlns:inkscape="http://www.inkscape.org/namespaces/inkscape"
   sodipodi:docname="pokemon_cafe.svg"
   inkscape:version="1.0.1 (3bc2e813f5, 2020-09-07)"
   version="1.1"
   id="svg2"
   viewBox="0 0 192 192"
   height="192"
   width="192"
   inkscape:export-filename="/home/jphilippe/inkscape/icônes/delta-github/png/pokemon_cafe.png"
   inkscape:export-xdpi="96"
   inkscape:export-ydpi="96">
  <sodipodi:namedview
     inkscape:document-rotation="0"
     inkscape:window-maximized="1"
     inkscape:window-y="30"
     inkscape:window-x="1920"
     inkscape:window-height="1022"
     inkscape:window-width="1680"
     units="px"
     showgrid="false"
     inkscape:current-layer="layer1"
     inkscape:document-units="px"
     inkscape:cy="-34.838592"
     inkscape:cx="-47.105607"
     inkscape:zoom="1"
     inkscape:pageshadow="2"
     inkscape:pageopacity="0.0"
     borderopacity="1.0"
     bordercolor="#666666"
     pagecolor="#ffffff"
     id="base"
     inkscape:snap-bbox="false"
     inkscape:object-paths="true"
     inkscape:snap-nodes="true"
     showguides="true"
     inkscape:guide-bbox="true"
     inkscape:snap-object-midpoints="true"
     inkscape:snap-center="true"
     inkscape:snap-global="true"
     inkscape:snap-intersection-paths="true"
     inkscape:snap-smooth-nodes="true"
     inkscape:snap-midpoints="true" />
  <defs
     id="defs4">
    <inkscape:path-effect
       effect="fillet_chamfer"
       id="path-effect1205"
       is_visible="true"
       lpeversion="1"
       satellites_param="F,0,1,1,0,10,0,1 @ F,0,0,1,0,0,0,1 @ F,0,0,1,0,0,0,1 @ F,0,1,1,0,10,0,1"
       unit="px"
       method="auto"
       mode="F"
       radius="10"
       chamfer_steps="1"
       flexible="false"
       use_knot_distance="true"
       apply_no_radius="true"
       apply_with_radius="true"
       only_selected="true"
       hide_knots="false" />
    <inkscape:path-effect
       effect="fillet_chamfer"
       id="path-effect1155"
       is_visible="true"
       lpeversion="1"
       satellites_param="F,0,1,1,0,10,0,1 @ F,0,0,1,0,0,0,1 @ F,0,0,1,0,0,0,1 @ F,0,1,1,0,10,0,1"
       unit="px"
       method="auto"
       mode="F"
       radius="10"
       chamfer_steps="1"
       flexible="false"
       use_knot_distance="true"
       apply_no_radius="true"
       apply_with_radius="true"
       only_selected="true"
       hide_knots="false" />
  </defs>
  <metadata
     id="metadata7">
    <rdf:RDF>
      <cc:Work
         rdf:about="">
        <dc:format>image/svg+xml</dc:format>
        <dc:type
           rdf:resource="http://purl.org/dc/dcmitype/StillImage" />
        <dc:title></dc:title>
      </cc:Work>
    </rdf:RDF>
  </metadata>
  <g
     transform="translate(0,-860.36216)"
     id="layer1"
     inkscape:groupmode="layer"
     inkscape:label="Calque 1">
    <path
       style="fill:#ffffff;fill-opacity:1;stroke:none;stroke-width:4.3409;stroke-linecap:round;stroke-linejoin:round;stop-color:#000000"
       id="path1199"
       sodipodi:type="arc"
       sodipodi:cx="111.37318"
       sodipodi:cy="933.2912"
       sodipodi:rx="72.62603"
       sodipodi:ry="72.62603"
       sodipodi:start="0.26179939"
       sodipodi:end="2.8797933"
       sodipodi:open="true"
       sodipodi:arc-type="arc"
       d="m 181.52453,952.0882 a 72.62603,72.62603 0 0 1 -70.15135,53.829 72.62603,72.62603 0 0 1 -70.151362,-53.829" />
    <path
       style="fill:none;fill-opacity:1;stroke:#ffffff;stroke-width:14.8922;stroke-linecap:square;stroke-linejoin:round;stroke-miterlimit:4;stroke-dasharray:none;stroke-opacity:1;stop-color:#000000"
       id="path1201"
       sodipodi:type="arc"
       sodipodi:cx="961.21857"
       sodipodi:cy="71.993477"
       sodipodi:rx="24.063234"
       sodipodi:ry="22.18726"
       sodipodi:start="5.7595865"
       sodipodi:end="3.6651914"
       sodipodi:open="true"
       sodipodi:arc-type="arc"
       transform="matrix(0.1143158,0.99344446,-0.99988733,0.0150112,0,0)"
       d="m 982.05794,60.899846 a 24.063234,22.18726 0 0 1 -5.37182,28.090057 24.063234,22.18726 0 0 1 -30.9351,10e-7 24.063234,22.18726 0 0 1 -5.37183,-28.090056" />
    <path
       id="path1203"
       style="fill:#ff837d;fill-opacity:1;stroke:none;stroke-width:4.3409;stroke-linecap:round;stroke-linejoin:round;stop-color:#000000"
       d="m 39.012124,916.73274 c -0.717514,11.7792 0.02312,27.19568 2.209732,35.3562 H 181.52536 c 2.18661,-8.16052 2.9272,-23.57702 2.20966,-35.35622 -0.33556,-5.5086 -5.63266,-9.92565 -11.15551,-9.92565 H 50.167623 c -5.522847,0 -10.819949,4.41706 -11.155499,9.92567 z"
       sodipodi:nodetypes="ccccc"
       inkscape:path-effect="#path-effect1205"
       inkscape:original-d="m 40.167623,906.80707 c -2.200981,10.96433 -1.840162,34.47988 1.054233,45.28187 H 181.52536 c 2.89439,-10.80199 3.25513,-34.31755 1.05415,-45.28187 z" />
    <path
       d="m 111.12556,972.08689 c 10.9393,0 19.8071,-8.86781 19.8071,-19.8071 0,-10.93913 -8.8678,-19.8071 -19.8071,-19.8071 -10.93913,0 -19.807094,8.86797 -19.807094,19.8071 0,10.93929 8.867964,19.8071 19.807094,19.8071 z"
       fill="#ffffff"
       stroke="#56595b"
       stroke-width="16.5059"
       id="path1207" />
    <path
       id="path1209"
       style="fill:#56595b;fill-opacity:1;stroke:none;stroke-width:4.3409;stroke-linecap:round;stroke-linejoin:round;stop-color:#000000"
       d="m 126.80759,944.02781 v 16.50591 h 51.88882 c 0.13023,-0.32146 0.25807,-0.64385 0.38368,-0.96714 l 0.0206,-0.0548 0.0355,-0.0935 c 0.1422,-0.36799 0.28134,-0.73713 0.41752,-1.10738 l 0.008,-0.0177 v -0.003 c 0.2041,-0.55796 0.40126,-1.11841 0.59157,-1.68122 0.0182,-0.0526 0.0363,-0.10529 0.0545,-0.15796 0.0677,-0.20012 0.13411,-0.40054 0.19989,-0.60124 l 0.008,-0.0161 c 0.0652,-0.20067 0.12982,-0.40162 0.19345,-0.60285 l 0.008,-0.0177 c 0.0644,-0.20121 0.12768,-0.4027 0.19023,-0.60446 l 0.008,-0.0161 c 0.0619,-0.20176 0.12231,-0.40379 0.18214,-0.60608 l 0.008,-0.0177 c 0.0602,-0.2023 0.12017,-0.40486 0.17893,-0.60768 l 0.008,-0.0177 c 0.1181,-0.41109 0.23249,-0.82322 0.34332,-1.23633 l -0.0119,-0.0178 c 0.59495,-2.22065 1.08378,-4.98537 1.4644,-8.06114 z"
       sodipodi:nodetypes="ccccccsccccccccsscccssscc" />
    <path
       id="path1211"
       style="fill:#56595b;fill-opacity:1;stroke:none;stroke-width:4.3409;stroke-linecap:round;stroke-linejoin:round;stop-color:#000000"
       d="m 95.938967,944.0278 v 16.50592 H 44.050145 c -0.130232,-0.32146 -0.25807,-0.64385 -0.38368,-0.96714 l -0.02063,-0.0548 -0.03549,-0.0935 c -0.142198,-0.36799 -0.281343,-0.73713 -0.417517,-1.10738 l -0.0083,-0.0178 v -0.003 c -0.204095,-0.55796 -0.401259,-1.11841 -0.591572,-1.68122 -0.01816,-0.0527 -0.03631,-0.10529 -0.05447,-0.15797 -0.06768,-0.20011 -0.134111,-0.40053 -0.199887,-0.60123 l -0.0083,-0.0161 c -0.0652,-0.20067 -0.129819,-0.40162 -0.193449,-0.60285 l -0.0083,-0.0177 c -0.06437,-0.20121 -0.127673,-0.40271 -0.190231,-0.60447 l -0.0083,-0.0161 c -0.0619,-0.20176 -0.122309,-0.40379 -0.182143,-0.60608 l -0.0083,-0.0177 c -0.06025,-0.2023 -0.120163,-0.40487 -0.178924,-0.60769 l -0.0083,-0.0177 c -0.118099,-0.41109 -0.232485,-0.82321 -0.343323,-1.23632 l 0.01155,-0.0178 c -0.594955,-2.22064 -1.083778,-4.98536 -1.464404,-8.06114 z"
       sodipodi:nodetypes="ccccccsccccccccsscccssscc" />
  </g>
  <style
     type="text/css"
     id="style853">
	.st0{fill:#FFFFFF;}
</style>
</svg>
