<?xml version="1.0" encoding="UTF-8" standalone="no"?>
<svg
   xmlns:dc="http://purl.org/dc/elements/1.1/"
   xmlns:cc="http://creativecommons.org/ns#"
   xmlns:rdf="http://www.w3.org/1999/02/22-rdf-syntax-ns#"
   xmlns:svg="http://www.w3.org/2000/svg"
   xmlns="http://www.w3.org/2000/svg"
   xmlns:sodipodi="http://sodipodi.sourceforge.net/DTD/sodipodi-0.dtd"
   xmlns:inkscape="http://www.inkscape.org/namespaces/inkscape"
   width="192"
   height="192"
   viewBox="0 0 50.800003 50.8"
   version="1.1"
   id="svg1407"
   sodipodi:docname="port_knocker.svg"
   inkscape:version="1.0.1 (3bc2e813f5, 2020-09-07)"
   inkscape:export-filename="G:\My Drive\delta-icons\port_knocker\port_knocker.png"
   inkscape:export-xdpi="96"
   inkscape:export-ydpi="96">
  <sodipodi:namedview
     pagecolor="#ffffff"
     bordercolor="#666666"
     borderopacity="1"
     objecttolerance="10"
     gridtolerance="10"
     guidetolerance="10"
     inkscape:pageopacity="0"
     inkscape:pageshadow="2"
     inkscape:window-width="1680"
     inkscape:window-height="1022"
     id="namedview103"
     showgrid="false"
     inkscape:zoom="2.8284272"
     inkscape:cx="39.959215"
     inkscape:cy="101.45919"
     inkscape:window-x="1920"
     inkscape:window-y="0"
     inkscape:window-maximized="1"
     inkscape:current-layer="svg1407"
     inkscape:document-rotation="0"
     showguides="false"
     fit-margin-top="40"
     fit-margin-left="40"
     fit-margin-right="40"
     fit-margin-bottom="40"
     lock-margins="true" />
  <defs
     id="defs1401" />
  <metadata
     id="metadata1404">
    <rdf:RDF>
      <cc:Work
         rdf:about="">
        <dc:format>image/svg+xml</dc:format>
        <dc:type
           rdf:resource="http://purl.org/dc/dcmitype/StillImage" />
        <dc:title />
      </cc:Work>
    </rdf:RDF>
  </metadata>
  <g
     id="g3174"
     transform="translate(-11.684947,-6.1182345)">
    <rect
       style="opacity:1;fill:#56595b;fill-opacity:1;fill-rule:evenodd;stroke:none;stroke-width:0.262854;stroke-opacity:1"
       width="40.216667"
       height="40.216667"
       x="16.976614"
       y="11.409902"
       rx="2.6285403"
       id="rect981-5"
       ry="2.6285403" />
    <rect
       style="opacity:1;fill:#54688c;fill-opacity:1;fill-rule:evenodd;stroke:none;stroke-width:0.228004;stroke-opacity:1"
       width="34.88464"
       height="34.88464"
       x="19.64263"
       y="14.075917"
       rx="2.2800417"
       id="rect981-9-6"
       ry="2.2800417" />
    <g
       id="g3160"
       transform="translate(-77.7875,-140.22917)">
      <g
         id="g3149">
        <path
           d="m 122.93784,164.35412 h -16.13078 c -0.37124,0 -0.67212,0.30088 -0.67212,0.67211 v 8.0654 c 0,0.37124 0.30088,0.67212 0.67212,0.67212 h 0.67211 v 2.01635 c 0,0.37124 0.30088,0.67212 0.67212,0.67212 h 2.01634 v 2.01634 c 0,0.37124 0.30089,0.67212 0.67212,0.67212 h 8.06539 c 0.37124,0 0.67212,-0.30088 0.67212,-0.67212 v -2.01634 h 2.01635 c 0.37124,0 0.67212,-0.30088 0.67212,-0.67212 v -2.01635 h 0.67211 c 0.37124,0 0.67212,-0.30088 0.67212,-0.67212 v -8.0654 c 0,-0.37123 -0.30088,-0.67211 -0.67212,-0.67211 z"
           id="path3022-7"
           style="fill:#56595b;fill-opacity:1;stroke-width:0.0448077"
           sodipodi:nodetypes="ssssscsscsssscsscssss" />
        <path
           d="m 108.15129,177.79644 h -1.34423 c -0.37124,0 -0.67212,0.30089 -0.67212,0.67212 0,0.37124 0.30088,0.67212 0.67212,0.67212 h 1.34423 c 0.37123,0 0.67211,-0.30088 0.67211,-0.67212 0,-0.37123 -0.30088,-0.67212 -0.67211,-0.67212 z m 0,0"
           id="path3024-5"
           style="fill:#56595b;fill-opacity:1;stroke-width:0.0448077" />
        <path
           d="m 122.93784,177.79644 h -1.34423 c -0.37124,0 -0.67211,0.30089 -0.67211,0.67212 0,0.37124 0.30087,0.67212 0.67211,0.67212 h 1.34423 c 0.37124,0 0.67212,-0.30088 0.67212,-0.67212 0,-0.37123 -0.30088,-0.67212 -0.67212,-0.67212 z m 0,0"
           id="path3026-0"
           style="fill:#56595b;fill-opacity:1;stroke-width:0.0448077" />
        <path
           d="m 109.49552,171.07528 c 0.37124,0 0.67211,-0.30087 0.67211,-0.67211 v -2.68847 c 0,-0.37124 -0.30087,-0.67212 -0.67211,-0.67212 -0.37124,0 -0.67212,0.30088 -0.67212,0.67212 v 2.68847 c 0,0.37124 0.30088,0.67211 0.67212,0.67211 z m 0,0"
           id="path3028-0"
           style="fill:#54688c;fill-opacity:1;stroke-width:0.0448077" />
        <path
           d="m 112.18398,171.07528 c 0.37124,0 0.67212,-0.30087 0.67212,-0.67211 v -2.68847 c 0,-0.37124 -0.30088,-0.67212 -0.67212,-0.67212 -0.37123,0 -0.67212,0.30088 -0.67212,0.67212 v 2.68847 c 0,0.37124 0.30089,0.67211 0.67212,0.67211 z m 0,0"
           id="path3030-9"
           style="fill:#54688c;fill-opacity:1;stroke-width:0.0448077" />
        <path
           d="m 114.87245,171.07528 c 0.37124,0 0.67212,-0.30087 0.67212,-0.67211 v -2.68847 c 0,-0.37124 -0.30088,-0.67212 -0.67212,-0.67212 -0.37124,0 -0.67212,0.30088 -0.67212,0.67212 v 2.68847 c 0,0.37124 0.30088,0.67211 0.67212,0.67211 z m 0,0"
           id="path3032-4"
           style="fill:#54688c;fill-opacity:1;stroke-width:0.0448077" />
        <path
           d="m 117.56091,171.07528 c 0.37124,0 0.67212,-0.30087 0.67212,-0.67211 v -2.68847 c 0,-0.37124 -0.30088,-0.67212 -0.67212,-0.67212 -0.37124,0 -0.67211,0.30088 -0.67211,0.67212 v 2.68847 c 0,0.37124 0.30087,0.67211 0.67211,0.67211 z m 0,0"
           id="path3034-2"
           style="fill:#54688c;fill-opacity:1;stroke-width:0.0448077" />
        <path
           d="m 120.24938,171.07528 c 0.37123,0 0.67212,-0.30087 0.67212,-0.67211 v -2.68847 c 0,-0.37124 -0.30089,-0.67212 -0.67212,-0.67212 -0.37125,0 -0.67212,0.30088 -0.67212,0.67212 v 2.68847 c 0,0.37124 0.30087,0.67211 0.67212,0.67211 z m 0,0"
           id="path3036-3"
           style="fill:#54688c;fill-opacity:1;stroke-width:0.0448077" />
      </g>
    </g>
  </g>
</svg>
