<svg xmlns="http://www.w3.org/2000/svg" xml:space="preserve" viewBox="0 0 192 192"><rect width="152" height="152" x="20" y="20" fill="#fff" class="a" rx="10"/><path fill="#9abeff" d="M43.222 109.72c-2.729 1.66-6.732 4.493-7.617 7.273-.02.061-.038.163-.043.227-.64 8.964 5.643 17.166 10.908 23.1a2.5 2.5 0 0 1 .029.033c6.399 7.634 21.553 18.1 29.184 16.107.047-.012.123-.035.169-.05 2.725-.942 5.061-5.275 6.37-8.212.674-1.513-.016-3.502-1.415-4.389l-8.232-5.216a3.19 3.19 169.13 0 0-4.293.824l-2.425 3.352a2.566 2.566 175.36 0 1-3.887.316l-13.033-12.952a2.555 2.555 94.397 0 1 .298-3.88l3.468-2.522a3.102 3.102 99.928 0 0 .744-4.248l-5.928-8.75c-.93-1.372-2.882-1.874-4.297-1.013z"/><path fill="none" stroke="#9abeff" stroke-linecap="round" stroke-linejoin="round" stroke-width="1.715" d="M59.139 115.71c11.908 1.812 15.926 9.463 16.764 16.657M61.462 109.45c11.934 2.805 18.372 10.16 20.783 20.859"/><path fill="none" stroke="#9abeff" stroke-linecap="round" stroke-linejoin="round" stroke-width="1.715" d="M63.143 103.87c14.079 2.998 22.136 11.573 25.215 24.756"/><path fill="#9abeff" d="M30 20a9.97 9.97 0 0 0-7.078 2.922l146.16 146.16a9.97 9.97 0 0 0 2.922-7.078v-132c0-5.54-4.46-10-10-10h-132z" class="a"/><path fill="#fff" d="M97.461 74.065V43.431a3 3 135 0 1 3-3h37.641a3 3 45 0 1 3 3v6.452a1.432 1.432 25.514 0 0 2.332 1.113l11.397-9.22a1.432 1.432 25.514 0 1 2.333 1.114v32.078a1.473 1.473 153.85 0 1-2.374 1.165l-11.133-8.602a1.473 1.473 153.85 0 0-2.374 1.165v5.91a2.963 2.963 135.35 0 1-3 2.964l-37.822-.467a3.037 3.037 45.354 0 1-3-3.038z"/></svg>