<?xml version="1.0" encoding="utf-8"?>
<!-- Generator: Adobe Illustrator 17.1.0, SVG Export Plug-In . SVG Version: 6.00 Build 0)  -->
<!DOCTYPE svg PUBLIC "-//W3C//DTD SVG 1.1//EN" "http://www.w3.org/Graphics/SVG/1.1/DTD/svg11.dtd">
<svg version="1.1" id="Слой_1" xmlns="http://www.w3.org/2000/svg" xmlns:xlink="http://www.w3.org/1999/xlink" x="0px" y="0px"
	 viewBox="0 0 192 192" enable-background="new 0 0 192 192" xml:space="preserve">
<path fill="#8CBDFF" d="M72.4,122.9c0,17.9,0,35.7,0,53.6c0,9.5-4.8,15.4-12.5,15.6c-7.7,0.2-13.1-6.1-13.1-15.6
	c0-17.9-0.1-35.7,0.1-53.6c0-4-1.1-6.5-4.3-8.8c-10.2-7.4-17.6-17.1-23-28.5c-1.2-2.5-3-5.6,0.9-7.3c3.7-1.6,4.9,1.6,6.2,4.3
	c6.7,14.3,17.3,24.8,31.1,32.1c2.1,1.1,4.1,1.7,6.2,0.3c1.7-1.2,1.8-3,1.4-4.7c-0.4-1.9-2-2.9-3.6-3.6
	c-12.9-4.9-15.4-14.3-15.4-27.5c0-22.9,4.8-43.2,21.6-59.6c23.8-23.2,60.9-26.3,88-7.4c27.7,19.3,37.9,55.4,24.4,85.6
	c-13.9,30.8-47.1,47.5-79.5,39.9c-1.3-0.3-2.6-0.7-3.8-1.2c-1.9-0.7-3-2.1-2.4-4.1c0.7-2.3,2.5-1.8,4.3-1.5
	c5.2,0.9,10.4,1.7,15.7,2.2c3.3,0.4,6.6-0.1,6.6-4.4c0-4-3.1-4.2-6.1-4.2c-8-0.2-15.7-2.1-22.8-5.8c-3.1-1.6-6.1-3.6-4.3-7.6
	c2-4.3,5.3-3.2,8.9-1.6c26.4,11.7,55.1-0.8,62.3-27.7c4.8-17.7,0.2-33.4-13.7-45.4c-13.9-12-30.1-14.4-46.9-6.9
	C81.8,37.2,73,50.9,72.5,69.3C72.1,87.2,72.4,105,72.4,122.9z"/>
<path fill="#FF8580" d="M5,64.1c0-9.8,0-18.9,0-28c0.5-0.1,1-0.3,1.5-0.4c5.9,7.2,11.7,14.5,17.7,21.7c-6.8,3.5-6.8,3.5-14-8.7
	C9.4,54.6,16.4,63.1,5,64.1z"/>
</svg>
