<?xml version="1.0" encoding="utf-8"?>
<!-- Generator: Adobe Illustrator 17.1.0, SVG Export Plug-In . SVG Version: 6.00 Build 0)  -->
<!DOCTYPE svg PUBLIC "-//W3C//DTD SVG 1.1//EN" "http://www.w3.org/Graphics/SVG/1.1/DTD/svg11.dtd">
<svg version="1.1" id="Слой_1" xmlns="http://www.w3.org/2000/svg" xmlns:xlink="http://www.w3.org/1999/xlink" x="0px" y="0px"
	 viewBox="0 0 192 192" enable-background="new 0 0 192 192" xml:space="preserve">
<rect fill="#C99CFF" width="192" height="192"/>
<path fill="#FFFFFF" d="M82.5,108.9c0,8.6,0,17.2,0,25.8c0,4.6-2.3,7.4-6,7.5c-3.7,0.1-6.3-2.9-6.3-7.5c0-8.6-0.1-17.2,0-25.8
	c0-1.9-0.5-3.1-2.1-4.2c-4.9-3.6-8.5-8.3-11.1-13.7c-0.6-1.2-1.5-2.7,0.4-3.5c1.8-0.8,2.4,0.8,3,2c3.2,6.9,8.3,12,15,15.5
	c1,0.5,2,0.8,3,0.2c0.8-0.6,0.9-1.4,0.7-2.3c-0.2-0.9-1-1.4-1.7-1.7c-6.2-2.4-7.4-6.9-7.4-13.2c0-11,2.3-20.8,10.4-28.7
	c11.5-11.2,29.3-12.7,42.4-3.6c13.3,9.3,18.3,26.7,11.7,41.2c-6.7,14.8-22.7,22.9-38.3,19.2c-0.6-0.1-1.2-0.3-1.8-0.6
	c-0.9-0.3-1.4-1-1.2-2c0.3-1.1,1.2-0.9,2.1-0.7c2.5,0.4,5,0.8,7.6,1.1c1.6,0.2,3.2,0,3.2-2.1c0-1.9-1.5-2-2.9-2
	c-3.9-0.1-7.6-1-11-2.8c-1.5-0.8-2.9-1.7-2.1-3.7c0.9-2.1,2.5-1.5,4.3-0.8c12.7,5.7,26.6-0.4,30-13.3c2.3-8.5,0.1-16.1-6.6-21.9
	c-6.7-5.8-14.5-6.9-22.6-3.3C87,67.6,82.7,74.2,82.5,83.1C82.3,91.7,82.5,100.3,82.5,108.9z"/>
<path fill="#FFFFFF" d="M50,80.6c0-4.7,0-9.1,0-13.5c0.2-0.1,0.5-0.1,0.7-0.2c2.8,3.5,5.7,7,8.5,10.5c-3.3,1.7-3.3,1.7-6.8-4.2
	C52.1,76,55.5,80.1,50,80.6z"/>
</svg>
