<?xml version="1.0" encoding="utf-8"?>
<!-- Generator: Adobe Illustrator 16.0.0, SVG Export Plug-In . SVG Version: 6.00 Build 0)  -->
<!DOCTYPE svg PUBLIC "-//W3C//DTD SVG 1.1//EN" "http://www.w3.org/Graphics/SVG/1.1/DTD/svg11.dtd">
<svg version="1.1" id="Layer_1" xmlns="http://www.w3.org/2000/svg" xmlns:xlink="http://www.w3.org/1999/xlink" x="0px" y="0px"
	 width="192px" height="192px" viewBox="0 0 192 192" enable-background="new 0 0 192 192" xml:space="preserve">
<g>
	<g>
		<path fill="#99BEF9" d="M185.95,174.281c0,6.597-5.347,11.943-11.943,11.943H19.242c-6.596,0-11.943-5.347-11.943-11.943V19.517
			c0-6.597,5.348-11.943,11.943-11.943h154.765c6.597,0,11.943,5.346,11.943,11.943V174.281z"/>
	</g>
	<g>
		
			<rect x="37.285" y="56.98" transform="matrix(0.9563 -0.2923 0.2923 0.9563 -23.7268 25.1076)" fill="#56595B" width="69.774" height="69.977"/>
		<path fill="#56595B" d="M164.666,78.696l-32.702-10.157V58.236H98.218l-0.727-0.453l-0.138,0.453H62.224l-1.326,69.55h24.599
			l58.769,17.699L164.666,78.696z"/>
		<rect x="64.499" y="60.51" fill="#FFFFFF" width="65.38" height="65.57"/>
		<polygon fill="#56595B" points="131.964,68.539 98.218,58.236 97.757,62.689 130.449,73.492 		"/>
		<path fill="#56595B" d="M97.551,59.259L78.03,123.128c0,0-0.569,3.222,1.896,3.222h24.258l1.517-24.827l-5.307-39.799
			L97.551,59.259z"/>
		
			<rect x="87.941" y="68.791" transform="matrix(0.9565 0.2916 -0.2916 0.9565 34.942 -30.821)" fill="#FFFFFF" width="65.877" height="66.066"/>
	</g>
</g>
</svg>
