<?xml version="1.0" encoding="utf-8"?>
<!-- Generator: Adobe Illustrator 16.0.0, SVG Export Plug-In . SVG Version: 6.00 Build 0)  -->
<!DOCTYPE svg PUBLIC "-//W3C//DTD SVG 1.1//EN" "http://www.w3.org/Graphics/SVG/1.1/DTD/svg11.dtd">
<svg version="1.1" id="Layer_1" xmlns="http://www.w3.org/2000/svg" xmlns:xlink="http://www.w3.org/1999/xlink" x="0px" y="0px"
	 width="192px" height="192px" viewBox="0 0 192 192" enable-background="new 0 0 192 192" xml:space="preserve">
<g>
	<g>
		<g>
			<path fill="#FF877F" d="M96.25,8.5C48.063,8.5,9,47.563,9,95.75C9,143.937,48.063,183,96.25,183
				c48.187,0,87.25-39.063,87.25-87.25C183.5,47.563,144.437,8.5,96.25,8.5z"/>
		</g>
	</g>
	<path fill="#FFFFFF" d="M107.273,53H66v87h17v-25h24.273C124.571,115,138,100.261,138,83.266v-0.003
		C138,66.268,124.571,53,107.273,53z M120,83.195C120,90.443,114.879,96,107.631,96H83V71h24.631C114.879,71,120,75.877,120,83.126
		V83.195z"/>
</g>
</svg>
