<svg xmlns="http://www.w3.org/2000/svg" width="192" height="192"><defs><linearGradient id="a" x1="536.48" x2="292.82" y1="1113.2" y2="64.084" gradientTransform="matrix(.17634 0 0 -.17634 20.026 165.55)" gradientUnits="userSpaceOnUse"><stop offset=".48" stop-color="#96dfd3" stop-opacity="0"/><stop offset=".994" stop-color="#96dfd3"/></linearGradient><linearGradient id="b" x1="759.68" x2="219.42" y1="79.312" y2="1003.2" gradientTransform="matrix(.17634 0 0 -.17634 20.026 165.55)" gradientUnits="userSpaceOnUse"><stop offset=".066" stop-color="#96dfd3"/><stop offset=".45" stop-color="#d2d2d2"/><stop offset="1" stop-color="#bd9aff"/></linearGradient></defs><g stroke-width=".176"><path fill="#bd9aff" fill-rule="evenodd" d="M81.055 157.14c5.784 10.457 20.614 11.039 27.156 1.04l61.136-93.176c6.49-9.874.282-23.135-11.462-24.475L37.725 26.757c-12.82-1.48-21.936 12.15-15.712 23.435z" class="st3" clip-rule="evenodd"/><path fill="url(#a)" fill-rule="evenodd" d="M81.055 157.14c5.784 10.457 20.614 11.039 27.156 1.04l61.136-93.176c6.49-9.874.282-23.135-11.462-24.475L37.725 26.74c-12.802-1.463-21.936 12.15-15.694 23.435z" clip-rule="evenodd"/><path fill="url(#b)" d="m89.925 139.23-5.431 8.164c-2.204 3.298-7.124 3.104-9.029-.37l5.59 10.139c1.005 1.799 2.257 3.315 3.721 4.532 6.93 5.819 18.022 4.778 23.453-3.492l61.136-93.176c6.49-9.875.282-23.135-11.462-24.475L37.733 26.763c-12.82-1.48-21.936 12.15-15.712 23.435l.476.864 102.29 11.832c6.525.759 9.963 8.112 6.348 13.595z"/></g></svg>