<?xml version="1.0" encoding="UTF-8" standalone="no"?>
<svg
   xmlns:dc="http://purl.org/dc/elements/1.1/"
   xmlns:cc="http://creativecommons.org/ns#"
   xmlns:rdf="http://www.w3.org/1999/02/22-rdf-syntax-ns#"
   xmlns:svg="http://www.w3.org/2000/svg"
   xmlns="http://www.w3.org/2000/svg"
   xmlns:sodipodi="http://sodipodi.sourceforge.net/DTD/sodipodi-0.dtd"
   xmlns:inkscape="http://www.inkscape.org/namespaces/inkscape"
   width="192"
   height="192"
   viewBox="0 0 50.799999 50.800002"
   version="1.1"
   id="svg8"
   inkscape:version="1.0.1 (3bc2e813f5, 2020-09-07)"
   sodipodi:docname="proxmox.svg"
   inkscape:export-filename="proxmox.png"
   inkscape:export-xdpi="96"
   inkscape:export-ydpi="96">
  <defs
     id="defs2">
    <style
       id="style96707">.cls-1{fill:#fff;}.cls-2{fill:#e57000;}</style>
  </defs>
  <sodipodi:namedview
     id="base"
     pagecolor="#ffffff"
     bordercolor="#666666"
     borderopacity="1.0"
     inkscape:pageopacity="0.0"
     inkscape:pageshadow="2"
     inkscape:zoom="2.8"
     inkscape:cx="57.14149"
     inkscape:cy="75.492604"
     inkscape:document-units="mm"
     inkscape:current-layer="layer1"
     inkscape:document-rotation="0"
     showgrid="false"
     inkscape:window-width="1884"
     inkscape:window-height="1052"
     inkscape:window-x="36"
     inkscape:window-y="0"
     inkscape:window-maximized="1"
     units="px"
     fit-margin-top="0"
     fit-margin-left="0"
     fit-margin-right="0"
     fit-margin-bottom="0"
     inkscape:pagecheckerboard="0" />
  <metadata
     id="metadata5">
    <rdf:RDF>
      <cc:Work
         rdf:about="">
        <dc:format>image/svg+xml</dc:format>
        <dc:type
           rdf:resource="http://purl.org/dc/dcmitype/StillImage" />
      </cc:Work>
    </rdf:RDF>
  </metadata>
  <g
     inkscape:label="Layer 1"
     inkscape:groupmode="layer"
     id="layer1"
     transform="translate(-122.76667,-114.64017)">
    <rect
       style="fill:#f8c18c;fill-opacity:1;stroke:none;stroke-width:5.70988;stroke-linecap:round;stroke-linejoin:round;stroke-opacity:1"
       id="rect872-4"
       width="40.216667"
       height="40.216667"
       x="128.05833"
       y="119.93184"
       ry="2.6458333"
       rx="2.6458333" />
    <path
       class="cls-1"
       d="m 147.30677,140.03855 c -2.36008,-2.5744 -4.61962,-5.08 -6.93473,-7.53269 a 3.937,3.937 0 0 0 -1.56898,-0.89694 c -1.43404,-0.49212 -3.07181,-0.0132 -3.81529,1.06892 2.02406,2.22779 4.03754,4.4794 6.08542,6.68867 0.48683,0.52916 0.4736,0.84666 0,1.34937 -1.15623,1.20385 -2.25954,2.46327 -3.38402,3.70417 -0.92075,1.01335 -1.83886,2.03464 -2.75167,3.048 1.48696,1.55046 3.94229,1.66158 5.4319,0.12435 2.34685,-2.42094 4.56935,-4.96358 6.93737,-7.55385 z m 14.08906,-7.40834 c -1.63248,-1.68539 -4.13279,-1.5875 -5.79702,0.21432 -2.05846,2.20662 -4.07723,4.45558 -6.10923,6.69396 a 5.5562499,5.5562499 0 0 0 -0.39423,0.55297 c 1.5875,1.75419 3.13532,3.47134 4.68842,5.18319 0.69056,0.762 1.35467,1.55575 2.09285,2.26748 1.60603,1.5531 4.32065,1.48431 5.4663,-0.14552 -2.00025,-2.20133 -3.98992,-4.42913 -6.0325,-6.61458 -0.52917,-0.5715 -0.5424,-0.92075 0,-1.49754 2.04258,-2.17488 4.03225,-4.40267 6.08541,-6.65428 z m -22.08477,-3.1062 8.85561,9.76048 8.86354,-9.78959 c -1.80711,-1.5875 -3.94229,-1.49225 -5.50863,0.17992 -1.12712,1.20385 -2.21985,2.4421 -3.35756,3.70417 -1.21444,-1.32292 -2.31775,-2.58234 -3.47398,-3.78884 -1.55046,-1.61131 -3.7465,-1.651 -5.37898,-0.0662 z m 8.85561,11.26595 -8.83444,9.73667 c 1.50812,1.61925 3.83117,1.5875 5.41337,-0.0767 1.15359,-1.2065 2.25161,-2.47385 3.42107,-3.7465 0.33866,0.36513 0.64293,0.69056 0.94191,1.01865 0.86784,0.94721 1.70657,1.92616 2.60879,2.84162 1.55575,1.5875 4.08782,1.53194 5.2414,-0.0847 z"
       id="path96711"
       style="stroke-width:0.264583" />
    <path
       class="cls-2"
       d="m 147.30677,140.03855 c -2.38125,2.59291 -4.59052,5.13556 -6.93737,7.5565 -1.48961,1.53458 -3.94494,1.42346 -5.4319,-0.127 0.91281,-1.01336 1.83092,-2.03465 2.75167,-3.05065 1.12448,-1.23825 2.22779,-2.49767 3.38402,-3.70416 0.48418,-0.50271 0.49741,-0.82815 0,-1.34938 -2.04788,-2.20662 -4.06136,-4.45823 -6.08542,-6.68602 0.75142,-1.08215 2.38125,-1.56104 3.81529,-1.05833 a 3.937,3.937 0 0 1 1.56898,0.89693 c 2.31511,2.44211 4.57465,4.94771 6.93473,7.52211 z"
       id="path96713"
       style="fill:#ffffff;fill-opacity:1;stroke-width:0.264583" />
    <path
       class="cls-2"
       d="m 161.39583,132.63021 c -2.05316,2.25955 -4.04283,4.49792 -6.08541,6.6675 -0.52917,0.5768 -0.52917,0.92605 0,1.49755 2.04258,2.18016 4.03225,4.40795 6.0325,6.61458 -1.14565,1.62983 -3.86027,1.69862 -5.4663,0.14552 -0.73818,-0.71173 -1.40229,-1.50548 -2.09285,-2.26748 -1.5531,-1.71185 -3.10356,-3.43958 -4.68842,-5.18319 a 5.5562499,5.5562499 0 0 1 0.39423,-0.5662 c 2.02936,-2.23838 4.04813,-4.49792 6.10659,-6.7019 1.66687,-1.79388 4.16718,-1.89971 5.79966,-0.20638 z"
       id="path96715"
       style="fill:#ffffff;fill-opacity:1;stroke-width:0.264583" />
    <path
       d="m 139.31106,129.52401 c 1.63248,-1.5875 3.83381,-1.54517 5.38163,0.0635 1.15623,1.2065 2.25954,2.46062 3.47398,3.78883 1.1377,-1.25413 2.23043,-2.49238 3.35756,-3.70417 1.56633,-1.67216 3.70417,-1.76741 5.50862,-0.17991 l -8.86618,9.79223 z"
       id="path96717"
       style="fill:#56595b;fill-opacity:1;stroke-width:0.264583" />
    <path
       d="m 148.16667,140.78996 8.78945,9.68905 c -1.15358,1.6166 -3.68564,1.66158 -5.24139,0.0847 -0.90223,-0.91546 -1.74096,-1.89441 -2.60879,-2.85221 -0.29898,-0.32808 -0.60325,-0.65352 -0.94192,-1.01864 -1.16681,1.28323 -2.26483,2.54 -3.41842,3.7465 -1.5875,1.65364 -3.90525,1.69598 -5.41337,0.0767 z"
       id="path96719"
       style="fill:#56595b;fill-opacity:1;stroke-width:0.264583" />
  </g>
  <style
     type="text/css"
     id="style870">
	.st0{fill:#181A1D;}
</style>
  <style
     type="text/css"
     id="style2168">
	.st0{fill:#00B3E5;}
	.st1{fill:#010101;}
</style>
  <style
     type="text/css"
     id="style853">
	.st0{fill:#FFFFFF;}
</style>
  <style
     type="text/css"
     id="style853-9">
	.st0{fill:#FFFFFF;}
</style>
  <style
     type="text/css"
     id="style853-3">
	.st0{fill:#FFFFFF;}
</style>
</svg>
