<svg xmlns="http://www.w3.org/2000/svg" viewBox="0 0 176 176"><circle cx="88" cy="88" r="88" fill="#ff837d"/><path fill="#fff" d="M79.07 124.49c-2.06.13-8.8-1.61-11.36-2.94q4-30.51 8.06-61.21H55.56c1.25-1.71 2.28-3.22 3.44-4.64a38.94 38.94 0 0 1 3.27-3.53 2.48 2.48 0 0 1 1.59-.65h49.28a2.4 2.4 0 0 1 1.59.65c1.81 2 3.57 4.14 5.27 6.27a2.48 2.48 0 0 1 .43 1.68q-2.05 14.88-4.19 29.77c-.38 2.75-.73 5.5-1.18 8.23a2.79 2.79 0 0 1-.81 1.53c-1.75 1.64-3.54 3.24-5.37 4.78a2.73 2.73 0 0 1-1.62.6H83.75a2.64 2.64 0 0 0-2.94 2.62q-.81 8.05-1.63 16.13c-.02.22-.08.49-.11.71Zm14.2-31.39h8.32a2.64 2.64 0 0 0 2.51-2.18q1.74-12.39 3.46-24.79c.24-1.68-.5-2.52-2.2-2.52h-16a2.53 2.53 0 0 0-2.69 2.33Q84.91 78.48 83.17 91A1.82 1.82 0 0 0 85 93.1c2.73.01 5.5 0 8.27 0Z"/></svg>