<svg xmlns="http://www.w3.org/2000/svg" viewBox="0 0 153 153"><title>PUMATRAC</title><rect width="153" height="153" rx="10" fill="#fff"/><path d="M121.88,127.42a10.19,10.19,0,0,1-1.46-4.6c-.28-3.63.47-3.37-4-7.83-3.59-3.6-5.92-6-7.53-10.71-2.54-7.47-5.86-9.43-9.93-9.43a39.67,39.67,0,0,1-13-2.61,32.31,32.31,0,0,1-6.56-4.63l-3.79-3.42-1.74,1.37c-2.32,1.82-5.57,1.73-10.48-.3C58.86,83.38,58,83.5,58,84.82c0,1.56-1.21,1.63-2.94.5-3.64-2.39-.56-6.26,5.55-6,3.64.18,3.81.21,3.81-1.28,0-1.75-1.08-2.38-4.14-2.38a4.9,4.9,0,0,1-3.6-1.53A3.38,3.38,0,0,1,55,72.46a5,5,0,0,1,1.32-2.59A8.25,8.25,0,0,1,59,66.46c.77-.48,1.52-2,2.11-2.59s.49-.69,1.38,0,1.28.76,2.16,0,1.19-.72,1.82.15a7.69,7.69,0,0,0,4,2.61c5.79,1.36,10.92,4.42,20.25,12.11,11.88,9.81,13.07,9.39,18.71,10,6.63.67,9.12-1.79,13.87-12.27,3.12-6.88,5.14-9.52,8.91-11.9,3.21-2,6-2.1,6.22.18s.19,3.24-4.53,6.09c-5.25,3.17-6.8,4.79-10.11,11.63-1.7,3.52-3.76,6.66-5.26,8l-2.47,2.23,1.64,3.32c1.21,2.45,1.72,4.74,2,8.81.43,7.55-.08,6.84,2.47,9.26,1.19,1.13,1.65.23,2.13,2.49a32.66,32.66,0,0,0,1.58,5.93c.62,1.69,0,.72-.19,3.11-.18,1.82.25,1.14-.54,3C124.75,129.52,122.35,128,121.88,127.42Z" transform="translate(-19.5 -18.5)" fill="#56595b"/></svg>