<?xml version="1.0" encoding="UTF-8" standalone="no"?><!DOCTYPE svg PUBLIC "-//W3C//DTD SVG 1.1//EN" "http://www.w3.org/Graphics/SVG/1.1/DTD/svg11.dtd"><svg width="100%" height="100%" viewBox="0 0 800 800" version="1.1" xmlns="http://www.w3.org/2000/svg" xmlns:xlink="http://www.w3.org/1999/xlink" xml:space="preserve" xmlns:serif="http://www.serif.com/" style="fill-rule:evenodd;clip-rule:evenodd;stroke-linejoin:round;stroke-miterlimit:2;"><g id="push-over"><g id="bg"><path d="M720.833,124.083c0,-24.79 -20.126,-44.916 -44.916,-44.916l-551.834,-0c-24.79,-0 -44.916,20.126 -44.916,44.916l-0,551.834c-0,24.79 20.126,44.916 44.916,44.916l551.834,0c24.79,0 44.916,-20.126 44.916,-44.916l0,-551.834Z" style="fill:#9abeff;"/></g><g id="logo"><g><path d="M452.051,281.008l-64.308,7.5l-123.333,273.678l65.138,0.387l122.503,-281.565Z" style="fill:#fff;"/><path d="M308.228,392.194c-0,0 -32.526,-2.545 -32.754,-15.678c-0.39,-22.459 23.005,-70.341 59.659,-88.562c36.654,-18.221 -33.851,44.334 -26.905,104.24Z" style="fill:#fff;"/><path d="M281.367,384.619c-7.967,-43.068 26.13,-96.203 84.279,-126.236c66.486,-34.339 139.4,-25.556 162.723,19.601c23.323,45.157 -11.72,109.698 -78.206,144.037c-45.609,23.557 -94.244,26.821 -127.819,11.969l5.515,-12.164c27.767,18.347 77.192,7.834 117.45,-26.936c45.183,-39.023 61.818,-93.917 37.125,-122.508c-24.693,-28.592 -81.424,-20.122 -126.607,18.901c-31.524,27.226 -49.152,62.179 -48.542,90.539l-25.918,2.797Z" style="fill:#fff;"/></g></g></g></svg>