<?xml version="1.0" encoding="UTF-8" standalone="no"?>
<svg
   viewBox="0 0 192 192"
   version="1.1"
   id="svg16"
   sodipodi:docname="pvz2.svg"
   inkscape:version="1.2 (dc2aedaf03, 2022-05-15)"
   inkscape:export-filename="C:\Users\Tony\github\delta-android\app\src\main\res\drawable-nodpi\pvz2.png"
   inkscape:export-xdpi="96"
   inkscape:export-ydpi="96"
   xmlns:inkscape="http://www.inkscape.org/namespaces/inkscape"
   xmlns:sodipodi="http://sodipodi.sourceforge.net/DTD/sodipodi-0.dtd"
   xmlns="http://www.w3.org/2000/svg"
   xmlns:svg="http://www.w3.org/2000/svg">
  <sodipodi:namedview
     id="namedview18"
     pagecolor="#ffffff"
     bordercolor="#666666"
     borderopacity="1.0"
     inkscape:pageshadow="2"
     inkscape:pageopacity="0.0"
     inkscape:pagecheckerboard="0"
     showgrid="false"
     inkscape:zoom="2.1432292"
     inkscape:cx="-32.894289"
     inkscape:cy="123.6452"
     inkscape:window-width="1680"
     inkscape:window-height="1022"
     inkscape:window-x="1920"
     inkscape:window-y="0"
     inkscape:window-maximized="1"
     inkscape:current-layer="svg16"
     inkscape:showpageshadow="0"
     inkscape:deskcolor="#d1d1d1" />
  <defs
     id="defs4">
    <style
       id="style2">.a{fill:none;stroke:#b1b5bd;stroke-linecap:round;stroke-linejoin:round;isolation:isolate;opacity:0.63;}</style>
    <style
       id="style1187">
      .cls-1 {
        fill: none;
      }

      .cls-158, .cls-159, .cls-160, .cls-2, .cls-5, .cls-6, .cls-8 {
        isolation: isolate;
      }

      .cls-3 {
        clip-path: url(#clip-path);
      }

      .cls-107, .cls-109, .cls-111, .cls-4 {
        fill: #fff;
      }

      .cls-100, .cls-102, .cls-104, .cls-106, .cls-108, .cls-11, .cls-110, .cls-112, .cls-114, .cls-116, .cls-118, .cls-120, .cls-122, .cls-124, .cls-126, .cls-128, .cls-13, .cls-130, .cls-132, .cls-134, .cls-136, .cls-138, .cls-140, .cls-142, .cls-144, .cls-146, .cls-148, .cls-15, .cls-150, .cls-152, .cls-154, .cls-156, .cls-17, .cls-19, .cls-21, .cls-23, .cls-26, .cls-28, .cls-31, .cls-33, .cls-34, .cls-36, .cls-38, .cls-4, .cls-40, .cls-42, .cls-44, .cls-46, .cls-48, .cls-50, .cls-52, .cls-54, .cls-56, .cls-58, .cls-60, .cls-62, .cls-64, .cls-66, .cls-68, .cls-70, .cls-72, .cls-74, .cls-76, .cls-78, .cls-80, .cls-82, .cls-84, .cls-86, .cls-88, .cls-9, .cls-90, .cls-92, .cls-94, .cls-96, .cls-98 {
        fill-rule: evenodd;
      }

      .cls-5 {
        font-size: 14px;
      }

      .cls-5, .cls-6 {
        fill: #444;
        font-family: Arial-ItalicMT, Arial;
        font-style: italic;
      }

      .cls-6 {
        font-size: 13px;
      }

      .cls-7 {
        letter-spacing: -0.02em;
      }

      .cls-8 {
        font-size: 16px;
        font-family: Arial-BoldMT, Arial;
      }

      .cls-158, .cls-159, .cls-160, .cls-8 {
        font-weight: 700;
      }

      .cls-100, .cls-102, .cls-104, .cls-106, .cls-108, .cls-109, .cls-11, .cls-110, .cls-112, .cls-114, .cls-116, .cls-118, .cls-120, .cls-122, .cls-124, .cls-126, .cls-127, .cls-128, .cls-13, .cls-130, .cls-131, .cls-132, .cls-134, .cls-135, .cls-136, .cls-138, .cls-139, .cls-140, .cls-142, .cls-143, .cls-144, .cls-146, .cls-147, .cls-148, .cls-149, .cls-15, .cls-150, .cls-152, .cls-153, .cls-154, .cls-156, .cls-17, .cls-19, .cls-21, .cls-23, .cls-26, .cls-28, .cls-31, .cls-33, .cls-34, .cls-36, .cls-38, .cls-40, .cls-42, .cls-44, .cls-46, .cls-48, .cls-50, .cls-52, .cls-54, .cls-56, .cls-58, .cls-60, .cls-62, .cls-64, .cls-66, .cls-68, .cls-70, .cls-72, .cls-74, .cls-76, .cls-78, .cls-80, .cls-82, .cls-84, .cls-86, .cls-88, .cls-9, .cls-90, .cls-92, .cls-94, .cls-96, .cls-98 {
        fill-opacity: 0.5;
      }

      .cls-9 {
        fill: url(#Transparent_44_);
      }

      .cls-10 {
        fill: url(#Unnamed_Pattern_79);
      }

      .cls-11 {
        fill: url(#Transparent_77_);
      }

      .cls-12 {
        fill: #ececec;
      }

      .cls-13 {
        fill: url(#Transparent_78_);
      }

      .cls-115, .cls-117, .cls-119, .cls-14 {
        fill: #d8d8d8;
      }

      .cls-15 {
        fill: url(#Transparent_79_);
      }

      .cls-16 {
        fill: #d2d2d2;
      }

      .cls-17 {
        fill: url(#Transparent_80_);
      }

      .cls-18 {
        fill: #ccc;
      }

      .cls-19 {
        fill: url(#Transparent_90_);
      }

      .cls-121, .cls-20 {
        fill: #b1b5bd;
      }

      .cls-21 {
        fill: url(#Transparent_96_);
      }

      .cls-22 {
        fill: #a0a5af;
      }

      .cls-23 {
        fill: url(#Transparent_98_);
      }

      .cls-24 {
        fill: #979797;
      }

      .cls-25 {
        letter-spacing: -0.07em;
      }

      .cls-26 {
        fill: url(#Transparent_100_);
      }

      .cls-27 {
        fill: #83868c;
      }

      .cls-28 {
        fill: url(#Transparent_157_);
      }

      .cls-29 {
        fill: #56595b;
      }

      .cls-30 {
        letter-spacing: -0.04em;
      }

      .cls-31 {
        fill: url(#Transparent_158_);
      }

      .cls-158, .cls-159, .cls-160, .cls-32 {
        fill: #4a4a4a;
      }

      .cls-33 {
        fill: url(#Transparent_159_);
      }

      .cls-34 {
        fill: url(#Transparent_160_);
      }

      .cls-35 {
        fill: #fcecdc;
      }

      .cls-36 {
        fill: url(#Transparent_161_);
      }

      .cls-37 {
        fill: #f8c18c;
      }

      .cls-38 {
        fill: url(#Transparent_162_);
      }

      .cls-39 {
        fill: #ffd6d4;
      }

      .cls-40 {
        fill: url(#Transparent_163_);
      }

      .cls-139, .cls-141, .cls-41 {
        fill: #ff837d;
      }

      .cls-42 {
        fill: url(#Transparent_164_);
      }

      .cls-43 {
        fill: #ba6561;
      }

      .cls-44 {
        fill: url(#Transparent_165_);
      }

      .cls-45 {
        fill: #e0f4e0;
      }

      .cls-46 {
        fill: url(#Transparent_166_);
      }

      .cls-135, .cls-137, .cls-47 {
        fill: #98dc9a;
      }

      .cls-48 {
        fill: url(#Transparent_167_);
      }

      .cls-49 {
        fill: #71a372;
      }

      .cls-50 {
        fill: url(#Transparent_168_);
      }

      .cls-51 {
        fill: #d3b69a;
      }

      .cls-52 {
        fill: url(#Transparent_169_);
      }

      .cls-53 {
        fill: #8e6f60;
      }

      .cls-54 {
        fill: url(#Transparent_170_);
      }

      .cls-127, .cls-129, .cls-55 {
        fill: #9abeff;
      }

      .cls-56 {
        fill: url(#Transparent_171_);
      }

      .cls-57 {
        fill: #728dbe;
      }

      .cls-58 {
        fill: url(#Transparent_172_);
      }

      .cls-59 {
        fill: #fdf5d9;
      }

      .cls-60 {
        fill: url(#Transparent_173_);
      }

      .cls-131, .cls-133, .cls-61 {
        fill: #f9de81;
      }

      .cls-62 {
        fill: url(#Transparent_174_);
      }

      .cls-63 {
        fill: #c39a54;
      }

      .cls-64 {
        fill: url(#Transparent_175_);
      }

      .cls-153, .cls-155, .cls-65 {
        fill: #bd9aff;
      }

      .cls-66 {
        fill: url(#Transparent_176_);
      }

      .cls-67 {
        fill: #8c72bd;
      }

      .cls-68 {
        fill: url(#Transparent_177_);
      }

      .cls-69 {
        fill: #96dfd3;
      }

      .cls-70 {
        fill: url(#Transparent_178_);
      }

      .cls-71 {
        fill: #73ada4;
      }

      .cls-72 {
        fill: url(#Transparent_179_);
      }

      .cls-157, .cls-73 {
        fill: #ababff;
      }

      .cls-74 {
        fill: url(#Transparent_180_);
      }

      .cls-75 {
        fill: #54688c;
      }

      .cls-76 {
        fill: url(#Transparent_181_);
      }

      .cls-77 {
        fill: #ffb0ac;
      }

      .cls-78 {
        fill: url(#Transparent_182_);
      }

      .cls-79 {
        fill: #f58f8a;
      }

      .cls-80 {
        fill: url(#Transparent_183_);
      }

      .cls-81 {
        fill: #f4806d;
      }

      .cls-82 {
        fill: url(#Transparent_184_);
      }

      .cls-83 {
        fill: #e85e5c;
      }

      .cls-84 {
        fill: url(#Transparent_185_);
      }

      .cls-85 {
        fill: #dc505e;
      }

      .cls-86 {
        fill: url(#Transparent_186_);
      }

      .cls-87 {
        fill: #b02a3c;
      }

      .cls-88 {
        fill: url(#Transparent_187_);
      }

      .cls-89 {
        fill: #7a1b1c;
      }

      .cls-90 {
        fill: url(#Transparent_188_);
      }

      .cls-91 {
        fill: #511119;
      }

      .cls-92 {
        fill: url(#Transparent_189_);
      }

      .cls-93 {
        fill: #f1e9e0;
      }

      .cls-94 {
        fill: url(#Transparent_190_);
      }

      .cls-95 {
        fill: #d7d0b8;
      }

      .cls-96 {
        fill: url(#Transparent_191_);
      }

      .cls-97 {
        fill: #e2c9b0;
      }

      .cls-98 {
        fill: url(#Transparent_192_);
      }

      .cls-99 {
        fill: #d4b79a;
      }

      .cls-100 {
        fill: url(#Transparent_193_);
      }

      .cls-101 {
        fill: #bf9e73;
      }

      .cls-102 {
        fill: url(#Transparent_194_);
      }

      .cls-103 {
        fill: #d4c6b8;
      }

      .cls-104 {
        fill: url(#Transparent_195_);
      }

      .cls-105 {
        fill: #d6c8ba;
      }

      .cls-106 {
        fill: url(#Transparent_196_);
      }

      .cls-107 {
        fill-opacity: 0.7;
      }

      .cls-108 {
        fill: url(#Transparent_197_);
      }

      .cls-110 {
        fill: url(#Transparent_198_);
      }

      .cls-111, .cls-113, .cls-121, .cls-125 {
        fill-opacity: 0.25;
      }

      .cls-112 {
        fill: url(#Transparent_199_);
      }

      .cls-113 {
        fill: #f4f2f2;
      }

      .cls-114 {
        fill: url(#Transparent_200_);
      }

      .cls-115 {
        fill-opacity: 0.3;
      }

      .cls-116 {
        fill: url(#Transparent_201_);
      }

      .cls-117 {
        fill-opacity: 0.1;
      }

      .cls-118 {
        fill: url(#Transparent_202_);
      }

      .cls-119 {
        fill-opacity: 0.2;
      }

      .cls-120 {
        fill: url(#Transparent_203_);
      }

      .cls-122 {
        fill: url(#Transparent_204_);
      }

      .cls-123 {
        fill-opacity: 0.15;
      }

      .cls-124 {
        fill: url(#Transparent_205_);
      }

      .cls-126 {
        fill: url(#Transparent_206_);
      }

      .cls-128 {
        fill: url(#Transparent_207_);
      }

      .cls-129, .cls-133, .cls-137, .cls-141, .cls-145, .cls-151, .cls-155, .cls-157 {
        fill-opacity: 0.75;
      }

      .cls-130 {
        fill: url(#Transparent_208_);
      }

      .cls-132 {
        fill: url(#Transparent_209_);
      }

      .cls-134 {
        fill: url(#Transparent_210_);
      }

      .cls-136 {
        fill: url(#Transparent_211_);
      }

      .cls-138 {
        fill: url(#Transparent_212_);
      }

      .cls-140 {
        fill: url(#Transparent_213_);
      }

      .cls-142 {
        fill: url(#Transparent_214_);
      }

      .cls-143, .cls-145 {
        fill: #f9c28c;
      }

      .cls-144 {
        fill: url(#Transparent_215_);
      }

      .cls-146 {
        fill: url(#Transparent_216_);
      }

      .cls-147, .cls-151 {
        fill: #99cdcd;
      }

      .cls-148 {
        fill: url(#Transparent_217_);
      }

      .cls-149 {
        fill: #719898;
      }

      .cls-150 {
        fill: url(#Transparent_218_);
      }

      .cls-152 {
        fill: url(#Transparent_219_);
      }

      .cls-154 {
        fill: url(#Transparent_220_);
      }

      .cls-156 {
        fill: url(#Transparent_221_);
      }

      .cls-158, .cls-159, .cls-160 {
        font-size: 72px;
        font-family: NowAlt-Bold, Now Alt;
      }

      .cls-158, .cls-161 {
        letter-spacing: 0.03em;
      }

      .cls-159 {
        letter-spacing: 0.03em;
      }

      .cls-160 {
        letter-spacing: -0.03em;
      }
    </style>
  </defs>
  <path
     d="m 65.633387,141.22723 v -14.35652 l 1.412116,-5.17776 21.534777,-3.73622 8.502118,-2.41237 12.238342,9.32585 2.91249,11.97358 -0.50012,12.82672 -30.94889,3.67739 -8.296184,-2.47121 -7.266516,-3.55971"
     fill="#522037"
     id="path841"
     style="fill:#7a1b1c;fill-opacity:1;stroke-width:2.94191" />
  <path
     d="m 76.606709,129.69495 0.706058,-7.8549 c 0,0 0.147096,-1.76515 3.118424,-1.76515 0,0 4.677636,-0.79431 8.149089,9.06108 z"
     fill="#fef7c3"
     id="path855"
     style="fill:#fdf5d9;fill-opacity:1;stroke-width:2.94191" />
  <path
     d="m 44.186867,118.2215 0.911992,1.26502 c 2.471204,3.44203 6.531039,5.35428 10.767389,5.0895 l 27.065566,-1.76514 c 3.471453,-0.23535 6.854649,-1.00025 10.090749,-2.29469 l 4.354026,-1.73573 -5.442532,-3.26552 z"
     fill="#f6b2af"
     id="path843"
     style="stroke-width:2.94191" />
  <path
     d="m 94.169908,118.51569 c 0,0 -2.059337,1.05909 -1.971079,6.35452 l 6.707553,0.79432 v -4.82473 c 0,0 -1.765146,-2.82423 -4.736474,-2.32411 z"
     fill="#fef7c3"
     id="path845"
     style="fill:#fdf5d9;fill-opacity:1;stroke-width:2.94191" />
  <path
     d="m 86.932811,149.11155 2.147594,-3.2361 c 2.000498,-3.03017 5.266018,-5.00125 8.884566,-5.3837 l 2.382949,-0.26477 c 3.03016,-0.32361 6.06033,0.32361 8.70805,1.82399 l 2.67714,1.52979 -1.26502,6.73697 -13.738721,0.55896 z"
     fill="#f6b2af"
     id="path847"
     style="stroke-width:2.94191" />
  <path
     d="m 60.043759,130.34217 v 10.26726 l 5.942657,0.55896 v -10.82622 h -5.53079"
     fill="#535c40"
     id="path849"
     style="stroke-width:2.94191" />
  <path
     d="m 31.889686,104.48278 -2.059337,2.17702 c -0.588381,0.6178 -0.676639,1.52979 -0.235352,2.26527 l 4.942407,8.23734 c 1.029669,1.73573 2.94191,2.7654 4.971827,2.73598 l 51.012709,-1.3827 c 0.853154,-0.0294 1.676889,0.1471 2.441785,0.52954 4.677636,2.23585 20.887555,11.091 15.533285,24.91798 -0.85316,2.17701 -3.03017,3.55971 -5.35428,3.50087 l -44.628764,-1.2356 -0.558963,-6.03092 -5.001246,5.29544 c -1.206183,1.26502 -1.588631,3.11842 -1.000249,4.76589 0.558963,1.58863 1.971079,2.7654 3.647968,3.03017 l 5.413113,0.88257 v 3.05959 c 0,3.41261 2.58888,6.26626 6.001495,6.56046 l 20.652204,1.91225 c 2.706557,0.23535 5.413114,-0.23535 7.884317,-1.38271 l 27.595115,-12.97382 15.85689,-28.88955 22.12316,-24.476688 c 5.03066,-5.589627 7.53128,-13.003239 6.88406,-20.475689 -1.05908,-12.238343 -5.17776,-24.0354 -11.94415,-34.302664 L 151.6254,36.465837 C 143.03502,23.433178 128.47257,15.607699 112.88045,15.607699 h -9.53178 c -21.034657,0 -41.598604,7.237097 -57.484914,21.034652 -8.502119,7.384193 -16.474693,17.063075 -21.564196,29.683866 -0.764897,1.912241 -0.235353,4.118673 1.323859,5.501371 l 6.119172,5.324856 z"
     fill="#869871"
     id="path851"
     style="fill:#71a372;fill-opacity:1;stroke-width:1.5;stroke:none;stroke-opacity:1;stroke-miterlimit:4;stroke-dasharray:none" />
  <path
     d="m 55.866248,132.90163 v -9.06108 c 0,0 -0.911992,-2.97133 6.79581,-2.97133 0,0 5.295437,-0.1471 6.854649,1.76514 l 1.706308,8.20793 z"
     fill="#fef7c3"
     id="path853"
     style="fill:#fdf5d9;fill-opacity:1;stroke-width:2.94191" />
  <path
     d="m 58.513966,146.19906 c 0,0 -1.382697,-2.05934 -1.588631,-7.94316 l 10.767388,1.20619 c 0,0 0.764897,4.38344 -1.353278,6.9429 z"
     fill="#fef7c3"
     id="path857"
     style="fill:#fdf5d9;fill-opacity:1;stroke-width:2.94191" />
  <path
     d="m 90.904389,135.51993 c 0,0 1.147344,9.00224 7.148839,9.06108 0,0 6.442782,-0.20594 6.030912,-5.67789 l -0.35303,-4.53054 z"
     fill="#fef7c3"
     id="path859"
     style="fill:#fdf5d9;fill-opacity:1;stroke-width:2.94191" />
  <path
     d="m 49.364628,107.7483 c 8.855147,-3.8539 12.65021,-14.768384 8.472699,-24.417846 -4.177511,-9.649463 -14.768385,-14.356518 -23.623533,-10.532036 -1.61805,0.706058 -3.030166,1.61805 -4.295187,2.735976 l 1.794564,1.559212 0.176515,27.389174 -0.382448,0.41187 c 5.060084,4.11867 11.826476,5.44253 17.85739,2.85365 z"
     id="path861"
     style="fill:#56595b;fill-opacity:1;stroke-width:2.94191" />
  <circle
     cx="116.41077"
     cy="85.683983"
     r="26.624281"
     id="circle863"
     style="fill:#56595b;fill-opacity:1;stroke-width:2.94191" />
  <ellipse
     cx="42.582623"
     cy="118.44901"
     rx="3.1184323"
     ry="6.942924"
     transform="rotate(-19.056424)"
     id="ellipse865"
     style="fill:#56595b;fill-opacity:1;stroke-width:2.94191" />
  <ellipse
     cx="-72.391014"
     cy="96.984093"
     rx="3.8832543"
     ry="2.3240688"
     transform="rotate(-70.427114)"
     id="ellipse867"
     style="fill:#56595b;fill-opacity:1;stroke-width:2.94186" />
  <path
     d="m 58.837576,48.145217 c 0,0 9.973073,5.295437 25.476936,-2.677137 z"
     opacity="0.54"
     id="path869"
     style="fill:#56595b;fill-opacity:1;stroke-width:2.94191;opacity:1" />
  <path
     d="m 49.276371,55.088123 c 0,0 25.065068,0.764897 47.776608,-3.265519 0.02942,0 -38.215403,15.945149 -47.776608,3.265519 z"
     opacity="0.54"
     id="path871"
     style="fill:#56595b;fill-opacity:1;stroke-width:2.94191;opacity:1" />
  <circle
     cx="40.715405"
     cy="89.420197"
     fill="#fef7c3"
     r="16.827721"
     id="circle875"
     style="fill:#fdf5d9;fill-opacity:1;stroke-width:2.94191" />
  <circle
     cx="114.96917"
     cy="84.036499"
     fill="#fef7c3"
     r="24.064819"
     id="circle877"
     style="fill:#fdf5d9;fill-opacity:1;stroke-width:2.94191" />
  <circle
     cx="118.44069"
     cy="84.036499"
     fill="#b82c2b"
     r="4.2363496"
     id="circle879"
     style="fill:#ba6561;fill-opacity:1;stroke-width:2.94191" />
  <circle
     cx="38.862034"
     cy="88.272858"
     fill="#b82c2b"
     r="3.6773868"
     id="circle881"
     style="fill:#ba6561;fill-opacity:1;stroke-width:2.94191" />
  <path
     d="m 131.47332,114.48527 c 0,0 -6.20743,5.29544 -19.74021,6.38395 0,0 3.91274,4.38344 4.67763,12.03241 0,0 1.05909,-2.82424 1.05909,-9.20818 0,0 9.47295,-1.29444 14.00349,-9.20818 z"
     fill="#535c40"
     opacity="0.54"
     id="path885"
     style="fill:#56595b;fill-opacity:1;stroke-width:2.94191;opacity:1" />
  <path
     style="fill:#f8c18c;fill-opacity:1;stroke:none;stroke-width:1.5;stroke-linecap:butt;stroke-linejoin:miter;stroke-opacity:1;stroke-miterlimit:4;stroke-dasharray:none"
     d="m 144.86746,122.15965 11.25125,-0.88825 c 0,0 4.79659,-0.29609 4.20442,-3.96756 -0.59216,-3.67144 -1.48041,-6.69152 -0.76981,-8.17196 0.7106,-1.48042 3.87391,-2.3144 6.33622,-0.94747 3.43627,1.90762 -1.59885,13.14621 -10.59986,18.23889 -9.00101,5.09267 -14.33647,11.68807 -15.33725,13.61994 -0.86565,1.67103 -3.07725,16.12094 -1.0659,17.88358 1.13254,0.99252 13.78178,0.18 21.79191,0.3553 8.11276,0.17778 17.58748,-0.17752 17.58748,-0.17752 0,0 3.90834,0 3.96755,-3.37537 0.0593,-3.37539 0.41452,-13.20544 0.41452,-13.20544 0,0 0,-3.61225 -6.15857,-3.25695 -6.15858,0.35533 -11.54735,1.12514 -11.54735,1.12514 0,0 13.78683,-5.05573 18.81159,-17.78508 5.02472,-12.72935 -2.26115,-23.700038 -4.5223,-24.956219 -2.26111,-1.256189 -9.12827,-7.788354 -25.29118,-3.517325 -16.16292,4.271033 -12.4781,25.374954 -12.31061,26.463654 0.16739,1.0887 1.28356,2.61318 3.23789,2.56277 z"
     id="path55214-3"
     sodipodi:nodetypes="ccssssssscscscssssc" />
</svg>
