<?xml version="1.0" encoding="utf-8"?>
<!-- Generator: Adobe Illustrator 16.0.0, SVG Export Plug-In . SVG Version: 6.00 Build 0)  -->
<!DOCTYPE svg PUBLIC "-//W3C//DTD SVG 1.1 Tiny//EN" "http://www.w3.org/Graphics/SVG/1.1/DTD/svg11-tiny.dtd">
<svg version="1.1" baseProfile="tiny" id="Layer_1" xmlns="http://www.w3.org/2000/svg" xmlns:xlink="http://www.w3.org/1999/xlink"
	 x="0px" y="0px" width="192px" height="192px" viewBox="0 0 192 192" xml:space="preserve">
<g>
	<g>
		<path fill="#728CBA" d="M172,162.041c0,6.053-4.906,10.959-10.959,10.959H29.959C23.906,173,19,168.094,19,162.041V30.959
			C19,24.906,23.906,20,29.959,20h131.082C167.094,20,172,24.906,172,30.959V162.041z"/>
	</g>
	<path fill="#F9DE90" d="M161.375,20H124v35.507C124,61.383,129.332,66,135.207,66H172V30.403C172,24.485,167.292,20,161.375,20z"/>
	<g>
		<path fill="#FFFFFF" d="M94.192,77.518c0,8.48-6.747,15.135-15.226,15.135H65.199v24.344h-5.836V62.292h19.603
			C87.446,62.292,94.192,69.13,94.192,77.518z M88.357,77.609c0-5.835-4.468-9.665-9.938-9.665h-13.22v19.147h13.22
			C83.89,87.091,88.357,83.627,88.357,77.609z"/>
		<path fill="#FFFFFF" d="M132.212,80.527l-15.682,39.205l-7.75,19.147h-6.018l8.753-21.609L96.563,80.527h6.29l11.671,29.906
			l11.306-29.906H132.212z"/>
	</g>
</g>
</svg>
