<?xml version="1.0" encoding="UTF-8" standalone="no"?>
<svg
   viewBox="0 0 192 192"
   version="1.1"
   id="svg10"
   sodipodi:docname="pythono.svg"
   inkscape:version="1.2 (dc2aedaf03, 2022-05-15)"
   inkscape:export-filename="pythono.png"
   inkscape:export-xdpi="96"
   inkscape:export-ydpi="96"
   xmlns:inkscape="http://www.inkscape.org/namespaces/inkscape"
   xmlns:sodipodi="http://sodipodi.sourceforge.net/DTD/sodipodi-0.dtd"
   xmlns="http://www.w3.org/2000/svg"
   xmlns:svg="http://www.w3.org/2000/svg"
   xmlns:rdf="http://www.w3.org/1999/02/22-rdf-syntax-ns#"
   xmlns:cc="http://creativecommons.org/ns#"
   xmlns:dc="http://purl.org/dc/elements/1.1/">
  <defs
     id="defs14" />
  <sodipodi:namedview
     id="namedview12"
     pagecolor="#505050"
     bordercolor="#eeeeee"
     borderopacity="1"
     inkscape:showpageshadow="0"
     inkscape:pageopacity="0"
     inkscape:pagecheckerboard="0"
     inkscape:deskcolor="#505050"
     showgrid="false"
     inkscape:zoom="1.2291667"
     inkscape:cx="-26.440678"
     inkscape:cy="80.542373"
     inkscape:window-width="1884"
     inkscape:window-height="1052"
     inkscape:window-x="36"
     inkscape:window-y="0"
     inkscape:window-maximized="1"
     inkscape:current-layer="svg10" />
  <title
     id="title2">Pythono</title>
  <g
     id="g248"
     transform="matrix(1.0696445,0,0,1.0696445,-6.6755211,-6.6937337)">
    <path
       d="m 94.57,43.72 a 8.19,8.19 0 0 0 -2.36,1.46 c -2.87,2.45 -3.61,5.78 -2.09,9.68 0.13,0.36 -0.13,0.45 -1.1,0.45 A 100.62,100.62 0 0 0 76.65,57 c -5.87,1.19 -10,2.9 -11.91,4.94 a 3,3 0 0 0 -1.1,2.52 6,6 0 0 0 0.52,2.38 l 0.51,1 -2.26,1.55 C 57.73,72.55 51.53,79.2 49,83.79 c -0.74,1.29 -1,1.55 -1.81,1.55 -2.38,0 -5.65,-3.2 -10.52,-10.4 -4.71,-6.94 -7.1,-10 -8.27,-10.46 -1.38,-0.58 -3.19,-0.55 -8.68,0.16 -4.58,0.58 -6,1 -6,1.78 a 8.23,8.23 0 0 0 2,2.32 c 5.71,5.52 7.81,10.46 11.43,27.09 1.35,6.2 2.71,10.78 4,13.4 a 17.64,17.64 0 0 0 13.63,10.1 l 2.16,0.39 1,1.94 c 12,22.69 42.84,33 70.19,23.4 a 56.73,56.73 0 0 0 17.54,-10.06 48.39,48.39 0 0 0 7,-7.55 c 0.35,-0.55 1.09,-0.88 2.8,-1.26 19.83,-4.49 33.74,-20.44 32.74,-37.55 -0.48,-8.27 -4.07,-16.11 -9.2,-20.24 -8.43,-6.75 -18.82,-5 -26.41,4.42 -1.1,1.35 -2.13,2.71 -2.32,3 -0.29,0.52 -0.62,0.33 -2.88,-1.84 a 61.83,61.83 0 0 0 -5.16,-4.32 l -2.65,-1.91 0.49,-0.87 a 6.44,6.44 0 0 0 0.45,-2.36 c 0,-2.68 -2.65,-4.71 -8.4,-6.42 a 81.21,81.21 0 0 0 -16.85,-2.81 c -1.38,0 -1.38,0 -0.71,-1.94 a 7.56,7.56 0 0 0 -2.45,-8.13 8.18,8.18 0 0 0 -7.55,-1.5 z m 68.22,28.22 c 4.07,2.19 7.29,7.17 8.52,13 1.9,9.17 -1.32,18.47 -8.78,25.31 -4.07,3.78 -8.23,5.55 -11.5,4.91 -1.84,-0.33 -1.8,-0.26 -0.93,-4.17 a 45.53,45.53 0 0 0 0,-14.69 44.21,44.21 0 0 0 -3.71,-10.49 l -1.23,-2.26 0.58,-1.71 c 1.36,-3.94 4,-7.72 6.52,-9.33 a 9,9 0 0 1 6.2,-1.62 7.9,7.9 0 0 1 4.33,1.05 z"
       fill="#56595b"
       id="path4" />
    <path
       d="m 96.15,122.8 c 10.85,0 10.17,-4.7 10.17,-4.7 v -4.87 H 96 v -1.46 h 14.46 c 0,0 6.94,0.78 6.94,-10.16 0,-10.94 -6.06,-10.55 -6.06,-10.55 h -3.61 v 5.08 c 0,0 0.19,6 -6,6 H 91.46 c 0,0 -5.76,-0.09 -5.76,5.58 v 9.36 c 0,0 -0.88,5.72 10.45,5.72 z m 5.71,-3.27 a 1.87,1.87 0 1 1 1.86,-1.86 1.86,1.86 0 0 1 -1.86,1.86 z"
       fill="#728dbe"
       id="path6" />
    <path
       d="M 95.85,80.31 C 85,80.31 85.68,85 85.68,85 v 4.87 H 96 v 1.46 H 81.58 c 0,0 -6.94,-0.79 -6.94,10.15 0,10.94 6.06,10.56 6.06,10.56 h 3.61 V 107 c 0,0 -0.19,-6.06 6,-6.06 h 10.27 c 0,0 5.76,0.1 5.76,-5.57 V 86 c 0,0 0.84,-5.69 -10.49,-5.69 z m -5.71,3.28 a 1.86,1.86 0 1 1 -1.86,1.86 1.86,1.86 0 0 1 1.86,-1.86 z"
       fill="#f9de81"
       id="path8" />
  </g>
  <metadata
     id="metadata243">
    <rdf:RDF>
      <cc:Work
         rdf:about="">
        <dc:title>Pythono</dc:title>
      </cc:Work>
    </rdf:RDF>
  </metadata>
</svg>
