<svg width="192" height="192" version="1.1" viewBox="0 0 192 192" xmlns="http://www.w3.org/2000/svg">
 <rect x="20" y="20" width="152" height="152" rx="9.9346" opacity=".63" style="fill:#9abeff;opacity:1"/>
 <path d="m64 104c4 20 24 28 32 36 8-8 28-16 32-36 4.7717-23.859-12-40-32-40s-36.772 16.141-32 40z" style="fill:#fff"/>
 <rect transform="rotate(30.51)" x="116" y="-3.3614" width="34.618" height="9.4412" rx="17.309" style="fill:#fff;paint-order:stroke fill markers;stroke-width:.78677"/>
 <rect transform="rotate(31.895)" x="122.57" y="-20.058" width="21.387" height="24.061" rx="10.694" ry="5.3468" style="fill:#fff;paint-order:stroke fill markers;stroke-width:.66835"/>
 <path d="m72 88s0 16 14 16c8 0 12-4 12-8s-4-8-8-8-5.2019 3.7013-10 4c-2.9757 0.18526-8-4-8-4z" style="fill:#9abeff"/>
 <path d="m120 88.3s0 15.7-14 15.7c-8 0-12-4-12-8s4-8 8-8 6 4.3 10 4.3c2.9814 0 8-4 8-4z" style="fill:#9abeff"/>
</svg>
