<?xml version="1.0" encoding="UTF-8"?>
<svg version="1.1" viewBox="0 0 192 192" xml:space="preserve" xmlns="http://www.w3.org/2000/svg">
	 <rect class="a" x="20" y="20" width="152" height="152" rx="10" fill="#56595b"/><g transform="matrix(3.7795 0 0 3.7795 -190.74 -102.5)"><g transform="matrix(6 0 0 6 -17.895 -20.541)" fill="#98dc9a" stroke-miterlimit="3"><path d="m15.627 10.094c-1.1108 0-2.0193 0.90858-2.0193 2.0193 0 1.1108 0.90858 2.0193 2.0193 2.0193 0.34866 0 0.6774-0.08956 0.96437-0.24675-0.03464-0.03022-0.07488-0.06959-0.11181-0.11398-0.04093-0.0492-0.09584-0.11421-0.12951-0.1942-0.02003-0.04759-0.01017-0.09482-3e-3 -0.13415-0.0058 0.01127-0.01337 0.02413-0.0175 0.03298-0.0038 0.0081-0.0062 0.01477-0.01306 0.02366-0.0034 0.0044-0.0082 0.0109-0.02012 0.01494-0.01187 4e-3 -0.02857-3.63e-4 -0.03614-0.0062-0.04875-0.03736-0.0769-0.06809-0.13341-0.14312-0.01608-0.02135-0.03316-0.047-0.04891-0.07228-0.1398 0.05285-0.29172 0.08179-0.45095 0.08179-0.70152 0-1.2621-0.56058-1.2621-1.2621s0.56058-1.2621 1.2621-1.2621 1.2621 0.56058 1.2621 1.2621c0 0.23716-0.06427 0.45809-0.1762 0.64682 0.07673 0.05555 0.16299 0.15561 0.22989 0.22693 0.04532 0.04832 0.08432 0.10004 0.11033 0.13942 0.01301 0.01969 0.02256 0.0358 0.02884 0.049 0.0031 0.0066 6e-3 0.01042 0.0073 0.02273 3.25e-4 0.0031 7.06e-4 0.0069-7.44e-4 0.01302-0.0014 0.0061-6e-3 0.01562-0.01494 0.02164-0.0089 6e-3 -0.01908 0.0066-0.02514 0.0058-0.0027-3.81e-4 -0.0049-9.59e-4 -0.0068-0.0016-0.0063-9.91e-4 -0.01227 5.06e-4 -0.01893-2.95e-4 0.02238 0.01113 0.04486 0.01992 0.06685 0.0356 0.03529 0.02516 0.06801 0.053 0.08983 0.07489 0.0084 0.0084 0.01622 0.01661 0.02371 0.02465 0.27699-0.34579 0.44322-0.78366 0.44322-1.2586 0-1.1108-0.90858-2.0193-2.0193-2.0193zm1.0489 2.7252c-0.03841 0.05725-0.08161 0.11093-0.12867 0.16092 0.02216 0.02516 0.04372 0.04989 0.06424 0.0739 0.09473 0.11088 0.20129 0.23496 0.28974 0.35196 0.04526 0.05986 0.08078 0.11007 0.11876 0.16614 0.04858-0.04642 0.09479-0.09528 0.13858-0.14628-0.0087-0.0095-0.01809-0.01924-0.02835-0.02953-0.0179-0.01795-0.04887-0.04464-0.08085-0.06744s-0.06676-0.04174-0.08499-0.04659c-0.0016-4.2e-4 -0.02032-5e-3 -0.03707-0.0097-0.0084-0.0024-0.01659-0.0049-0.02401-0.0076-0.0037-0.0014-0.0071-0.0026-0.01173-0.0052-0.0023-0.0013-0.0049-0.0028-9e-3 -0.0069-0.0021-2e-3 -0.0046-0.0047-7e-3 -0.0097-0.0012-0.0025-0.0032-0.0091-0.0032-0.0092-1.9e-5 -8.7e-5 -1.63e-4 -0.01185-1.53e-4 -0.01193v-1.52e-4c0.0036-0.02348 0.01966-0.034 0.03293-0.04102 0.01327-7e-3 0.02784-0.01136 0.04417-0.01435 0.01411-0.0026 0.0319 0.0016 0.04792 0.0015-9.44e-4 -0.0014-0.0011-0.0019-0.0021-0.0034-0.0238-0.03602-0.06107-0.08531-0.10304-0.13005-0.06693-0.07136-0.15334-0.16819-0.21618-0.21544zm-0.17837 0.21076c-2.1958-2.2265-1.0979-1.1133 0 0zm-0.05083 0.04575c-0.09079 0.07724-0.19278 0.14167-0.3034 0.19079 0.01324 0.02095 0.02698 0.04152 0.03905 0.05753 0.04398 0.0584 0.06584 0.07774 0.0952 0.10304 0.0069-0.01442 0.01281-0.0285 0.02588-0.04866 0.01841-0.02838 0.03994-0.05502 0.05872-0.07489 0.0094-0.0099 0.01788-0.01809 0.02628-0.0246 0.0042-0.0033 8e-3 -0.0062 0.01469-0.0091 0.0034-0.0015 0.0075-0.0032 0.01494-0.0036 0.0074-3.34e-4 0.02059 0.0028 0.02889 0.01193 0.01028 0.0113 0.0094 0.01995 0.0095 0.0248 3.7e-5 0.0048-5.35e-4 0.0077-0.0011 0.0104-0.0011 0.0054-0.0026 0.0097-0.0043 0.01454-0.0033 0.0097-0.0077 0.02075-0.01252 0.03279-0.0097 0.02407-0.0209 0.05249-0.02475 0.06823-0.0071 0.02911-0.01181 0.09315 3.43e-4 0.12202 0.0283 0.06723 0.07771 0.12716 0.11872 0.17645 0.036 0.04326 0.07698 0.08304 0.11014 0.11147 0.0047 4e-3 0.0086 0.0072 0.01257 0.0103 0.0069-0.0041 0.01382-0.0082 0.02066-0.01237 0.0016-0.0078 0.0035-0.01605 0.0063-0.02495 0.0066-0.02139 0.01697-0.04213 0.03224-0.05911 0.0041-0.0045 0.01251-0.01135 0.02514-0.01208 0.01263-7.25e-4 0.02305 0.0061 0.02776 0.0108 0.0094 0.0095 0.0093 0.01395 0.01065 0.01824 1.6e-5 5.1e-5 3.3e-5 9.5e-5 4.9e-5 1.53e-4 0.04687-0.03273 0.09235-0.06735 0.13622-0.10383-0.04861-0.06613-0.09294-0.12588-0.15229-0.19518-0.07871-0.09192-0.14483-0.17876-0.21914-0.27317-0.0324-0.04116-0.06442-0.08167-0.09638-0.12197zm0.61142 0.09421c-8.6e-5 -9e-6 -3.05e-4 2.1e-4 -3.91e-4 2.01e-4 2.57e-4 6.1e-5 4.86e-4 -6.3e-5 7.44e-4 0-2.1e-4 -3.9e-5 -1.24e-4 -1.63e-4 -3.44e-4 -2.01e-4z" color="#000000" stroke-linecap="round" stroke-width=".10176" style="paint-order:markers stroke fill"/><path d="m15.635 12.013c-1.82e-4 3.4e-5 -3.06e-4 1.62e-4 -3.44e-4 3.43e-4l-0.0073 0.03407s0.05793 0.0867 0.08258 0.11998c0.0057 0.0076 0.01631 0.02259 0.02891 0.04051-0.0053 5e-3 -0.0089 0.01159-0.01349 0.01721-0.0025 3e-3 -0.0053 0.0061-0.0079 0.0092-0.0061 0.0019-0.01263 0.0039-0.01823 7e-3 -2.86e-4 1.24e-4 -0.0032 0.0016-0.0031 0.0022-4e-6 3.44e-4 0.0021-7.15e-4 0.0038-9.86e-4 0.0034-5.25e-4 0.0067-6.49e-4 0.01012-8.97e-4 7.25e-4 -5.3e-5 0.0015-1.15e-4 0.0022-1.72e-4 -1.43e-4 2.29e-4 -2.86e-4 4.49e-4 -4.29e-4 6.87e-4 -0.0019 0.0032-0.0027 0.0068-0.0046 0.01-0.0015 0.0025-0.0035 0.0047-0.0051 0.0072-0.0052 0.0081-0.01 0.01717-0.01362 0.02605-0.0021 5e-3 -7e-3 0.01844-3e-3 0.02386 0.0011 0.0014 0.0039-0.0084 0.0046-0.01026 0.0021-0.0051 0.0043-0.01022 0.0069-0.01506 0.0095-0.01773 0.0055-0.0093 0.0114-0.02094 0.0039-0.0079 0.0071-0.01471 0.01183-0.02206 0.0037-2.58e-4 0.0075-5.25e-4 0.01119-7.73e-4 0.0087-5.82e-4 0.02095-0.0028 0.02942 8.59e-4l-0.01221-0.01545c-0.0071 2e-3 -0.01414 0.0038-0.02118 0.0058 0.0044-0.0052 0.0093-0.01007 0.01349-0.01536 5.72e-4 -7.16e-4 0.0012-0.0016 0.0017-0.0024 0.0064 0.0091 0.01312 0.0188 0.02041 0.0294-0.0069 0.0038-0.01476 9e-3 -0.0158 0.01489-1e-3 0.0055 0.0023 0.01025 1.72e-4 0.01583-0.0033 0.0087-0.0094 0.01643-0.01144 0.0257-0.0015 0.0069 5.81e-4 0.01392-2e-3 0.02064-0.0058 0.01487-0.01833 0.01887-0.02665 0.03098-0.0034 0.0049-0.0053 0.01023-0.0058 0.01622-2.58e-4 0.0036 6.77e-4 0.0065-1e-3 0.0098l0.0076-0.0018c0.0071-0.01761 0.02115-0.03137 0.03211-0.0466 0.0034-0.0047 0.0072-0.0096 0.0091-0.01515 0.0027-0.0083-0.0016-0.01538-0.0016-0.02369-4e-6 -0.0072 0.0078-0.01377 0.01115-0.01957 0.0022-0.0037 0.0036-8e-3 0.0066-0.01124 0.0017-0.0019 0.0034-0.0036 0.0052-0.0054 0.0059 0.0087 0.01202 0.01773 0.01815 0.02686-0.02304 0.04322-0.04831 0.08523-0.05534 0.1347-0.0017 0.01168-4.11e-4 0.02268 8.5e-5 0.03442 3.9e-5 4.96e-4 9.89e-4 0.0073 0.0011 0.0072 0.0026-0.0038 0.0035-0.01408 0.0048-0.01824 0.0054-0.01691 0.01661-0.05175 0.02784-0.06557 0.01682-0.03912 0.01986-0.05024 0.03395-0.07385 0.0098 0.01484 0.01951 0.02974 0.02878 0.04437-0.0051 0.0083-0.01164 0.01935-0.019 0.02386-0.0052 0.0032-0.01206 0.0024-0.01781 0.0041-3e-3 8.77e-4 -0.0058 0.0024-0.0087 0.0036-0.0031 0.0012-0.0072 0.0023-0.0094 0.0051-2.29e-4 2.77e-4 -0.0012 0.0025-0.0021 0.0036 0.0015-4.1e-4 4e-3 -1e-3 0.0064-0.0016 6e-3 -0.0015 0.01197-0.0016 0.01819-0.0023 0.01593-0.0019 0.02733-0.01533 0.03886-0.02613 0.0052 0.0083 0.0103 0.01652 0.01499 0.02433 0.0014 0.0024 0.0028 0.0048 0.0042 0.0073-0.0021 0.0015-0.0037 0.0032-0.0055 0.0058-0.0052 0.0074-9e-3 0.01566-0.01435 0.023-0.01747 0.02398-0.04544 0.0403-0.07118 0.05355-0.0072 0.0037-0.0142 0.0062-0.02067 0.01111-0.0036 0.0027-0.0073 0.0057-0.0068 0.0062 0.0015 0.0015 4e-3 0.0013 6e-3 0.0018 0.01994 0.0046 0.0386-0.01026 0.05466-0.01944 0.02304-0.01316 0.05171-0.02017 0.06234-0.04789 0.0022-0.0057 0.0035-0.0116 0.0048-0.01747 0.0041 0.0076 0.0079 0.01547 0.01174 0.02334-0.01506 0.01077-0.02846 0.02548-0.0392 0.03944-0.01457 0.01893-0.02974 0.03936-0.03873 0.06179-0.0025 0.0063-0.0057 0.01423-0.0058 0.02124-2e-6 9.75e-4 6.1e-4 0.0028 0.0011 0.0042 2.57e-4 -0.0066 0.01547-0.02973 0.01708-0.03218 0.0094-0.01408 0.02065-0.03239 0.03621-0.04004l0.03566-0.04124c0.0042 9e-3 0.0082 0.01786 0.01191 0.02669-0.01601 0.0067-0.027 0.0215-0.03847 0.03412-0.01657 0.01821-0.0328 0.0372-0.04223 0.06038-7e-3 0.01711-0.01088 0.03513-0.01567 0.05291-0.0016 6e-3 -0.01319 0.04198-0.01157 0.04647 4e-4 0.0011 0.0011-2e-3 0.0015-3e-3 0.0011-0.0027 0.0017-0.0055 0.0027-0.0083 0.0033-0.0092 0.02598-0.07313 0.03211-0.08063 0.02284-0.04458 0.0274-0.0474 0.04629-0.07081 0.0016-0.0019 0.0032-0.0037 5e-3 -0.0054 0.0057-0.0055 0.01358-0.01282 0.02079-0.01661 9.16e-4 -4.77e-4 0.0019-6.96e-4 3e-3 -8.58e-4 2e-3 0.0049 0.0041 0.0099 6e-3 0.01459-0.02366 0.03127-0.05622 0.09493-0.06286 0.12548-0.0011 0.0049-0.0061 0.03287-4.3e-4 0.03789 0.0019 0.0017 0.0035-0.0037 0.0043-6e-3 0.0038-0.0095 0.0069-0.01939 0.01123-0.02871 0.01322-0.02827 0.02887-0.05581 0.0474-0.08093 0.0039-0.0052 0.0083-0.01011 0.01234-0.01519 0.0046 0.01336 0.0085 0.0253 0.0108 0.03416l-0.0018-8.97e-4c-0.01695 0.01068-0.0291 0.02878-0.03322 0.04853-0.0044 0.0082-0.01035 0.01632-0.01516 0.02429-7e-3 0.0116-0.01236 0.02253-0.0196 0.03386-0.01276 0.01995-0.0218 0.03037-0.04313 0.05411-2.67e-4 2.86e-4 -0.0021 0.0037-0.0039 0.0067 0.0033-0.0017 0.0065-0.0034 0.0098-0.0051 0.0115-0.0057 0.02086-0.01508 0.02848-0.02536 5e-3 -0.0068 0.0083-0.01501 0.01281-0.02214 0.01293-0.02029 0.02649-0.04063 0.03779-0.06188 0.0044-0.0083 0.0078-0.02733 0.01277-0.03201 0.0064-6e-3 0.01004-0.0085 0.01699-0.01141 2.1e-4 0.0011 6.4e-4 0.0027 7.73e-4 0.0036 0.0016 0.01096 0.0028 0.02158 0.0038 0.03197-8.2e-4 0.0025-0.0012 0.0039-0.0026 0.0064-0.0043 0.0074-0.01036 0.01351-0.01439 0.02103-0.0147 0.02738-0.02382 0.05799-0.03459 0.08703-0.0069 0.01868-0.01639 0.03719-0.0184 0.05729-4.1e-4 0.0038-0.0011 0.0111 3.82e-4 0.01519 0.0027 0.0076 0.0082 0.01867 0.0083 0.02858 8.68e-4 -3e-3 0.0016-0.0059 0.0024-9e-3 0.0041-0.01619 0.0064-0.03284 0.01042-0.04909 0.0082-0.0334 0.02223-0.04576 0.04381-0.07111 0.0028-0.0032 0.0054-0.0066 0.0081-0.01004-5.06e-4 0.10033-0.01833 0.16467 0.0167 0.19302 0.02804-0.01725 0.03275-0.02058 0.05931-0.03176 0.03866-0.01626 0.04802-0.01746 0.05705-0.01935 0.0022 0.01106-0.0329 0.03828-0.06034 0.07742-0.03636 0.05188-0.04432 0.05625-0.03587 0.07874 0.01237 0.03291 0.05128 0.14459 0.0845 0.21491 0.01461 0.03092 0.06044 0.10928 0.09672 0.15745 0.05601 0.07437 0.07999 0.10069 0.12678 0.13655 0.01049 8e-3 0.01737-0.03205 0.0512-0.0842 0.03401-0.05242 0.08294-0.10218 0.08869-0.09587 5e-3 0.0055-0.0311 0.07826-0.04112 0.11921-0.0083 0.03402-0.01645 0.09993 2e-3 0.14367 0.03099 0.07361 0.0832 0.1361 0.12417 0.18534 0.07513 0.0903 0.16786 0.16282 0.18365 0.1644 0.01156 0.0012 0.01243-0.0489 0.02575-0.09213 0.0052-0.01693 0.01424-0.03411 0.02485-0.04592 0.0071-0.0079 0.01067 0.04767 0.01281 0.05986 0.0038 0.02192 0.0075 0.04368 0.01324 0.06518 0.03168 0.11949 0.14668 0.21379 0.24049 0.28005 0.01693 0.01196 0.02294-0.02236 0.03847-0.06373 0.01316-0.03504 0.03261-0.06523 0.03728-0.07093 0.0024-3e-3 9.84e-4 0.07985 0.0022 0.10784 9.84e-4 0.02306 0.01122 0.05747 0.01781 0.06819 0.05241 0.08535 0.24054 0.11292 0.27687 0.12925 0.03093 0.0139 0.06811 0.03505 0.1 0.08827 0.01776 0.02964 0.01517 0.10282 0.02635 0.09612 0.0031-0.0018 0.0055-0.0063 0.0074-0.01253 0.0082-0.0269 0.0067-0.08656 0.0066-0.10681-6.39e-4 -0.23512-0.08086-0.52746-0.22033-0.7027-0.01881-0.02364-0.04331-0.04154-0.06806-0.05733-0.0029-0.0018 0.0069 2.38e-4 0.01025 6.01e-4 0.02283 0.0024 0.04413 9.7e-4 0.09193 0.02794 0.01482 0.0084-0.0042-0.05279-0.0126-0.06952-0.05215-0.10456-0.08309-0.16068-0.16645-0.2443-0.03971-0.03984-0.12738-0.10865-0.18143-0.12303-0.0079-0.0021-0.0677-0.01623-0.06691-0.0215 0.0035-0.02291 0.07898-0.03985 0.1454-0.02343 0.01782 9e-3 -0.04709-0.09978-0.13438-0.19285-0.07037-0.07503-0.16226-0.18013-0.23348-0.22872-0.01439-0.0098-0.05475-2.76e-4 -0.09851-8.97e-4 -0.0468-6.58e-4 -0.0974-0.01127-0.12114-0.01665-0.01223-0.0028 0.02427-0.03803 0.07349-0.04459 0.042-7e-3 0.065-0.0083 0.06209-0.01154-0.10501-0.11656-0.24046-0.19197-0.45924-0.27885-0.0023-9.07e-4 -4e-3 -0.0016-0.0062-0.0025 0.0019-0.0036 5e-3 -0.0061 9e-3 -0.0085-0.0017 5.25e-4 -0.0033 0.0011-0.0049 0.0017-0.0033 0.0013-0.0065 0.0028-0.0095 0.0045-0.0042-0.0017-0.0085-0.0034-0.01243-5e-3 0.0011-3e-3 0.0023-6e-3 0.0034-0.0091 0.01236 7.63e-4 0.02472 1e-3 0.03723 6.39e-4 -4e-3 0.0017-0.0079 0.0039-0.01161 6e-3 -7.44e-4 4.11e-4 -0.0014 8.3e-4 -0.0021 0.0012 0.0092-0.0029 0.01895-0.0045 0.02844-0.0056 3e-3 -3.43e-4 0.0091 0.0012 0.01191 2.58e-4 0.0015-5.15e-4 -0.0017-0.0028-0.0038-0.0041 0.01094-0.0028 0.02201-0.0085 0.03254-0.0078 0.01819 0.0011 0.03011 0.01547 0.04488 0.02369 0.01102 0.0061 0.05361 0.01037 0.06546 0.0037 0.0012-6.87e-4 -0.0027-7.35e-4 -0.0041-0.0011-0.0058-0.0016-0.01156-0.0034-0.01721-0.0055-0.01595-0.0059-0.03108-0.01208-0.04548-0.0212-0.03183-0.02016-0.06636-0.03085-0.10427-0.02712-0.01083 0.0011-0.02131 0.0049-0.03211 0.0063-0.01503 2e-3 -0.0302 0.0029-0.04539 0.0031-2.19e-4 -2.3e-5 -4.1e-4 -6.4e-5 -6.39e-4 -8.6e-5 -0.0043-4.2e-4 -0.0088-5.25e-4 -0.01302 4.3e-5 -0.0073-1.24e-4 -0.01463-4.3e-4 -0.02191-8.59e-4 -0.01557-0.0091-0.03388-0.02082-0.05483-0.03455 0.0073-0.0049 0.01569-0.0084 0.02536-0.01021 0.02948-0.0055 0.06288 0.0082 0.09795 0.0057 0.0276-0.0019 0.03748-0.01916 0.07016-0.01558 0.01033 0.0011 0.01987 0.0058 0.02968 0.0089 0.01233 0.0039 0.02299 0.0029 0.03518 0 0.0022-5.15e-4 0.0037-6.97e-4 0.0048-7.25e-4 4.48e-4 -0.0012 0.0012-0.0025 8.58e-4 -0.0033-6.01e-4 -0.0017-0.0035 8.97e-4 -0.0053 1e-3 -0.0046 3.34e-4 -0.0093 6.49e-4 -0.01396 3.82e-4 -0.01307-7.25e-4 -0.02763-0.0067-0.0395-0.01197-0.01178-0.0052-0.02724-0.0093-0.0401-0.0089-0.02164 6.21e-4 -0.02601 0.0021-0.04407 0.0073-0.02535 0.0072-0.04765-0.0043-0.05999-0.0036-0.0403 0.0022-0.03292-7e-3 -0.07276 0.01141-0.0053 0.0025-0.0098 0.0027-0.01311 0.0035-0.0048-0.0031-0.0077-5e-3 -0.01302-0.0085-0.0028-0.0018-0.0054-0.0037-0.0082-0.0055 0.01112-0.0043 0.01924-0.01158 0.03471-0.0194 0.02275-0.01149 0.05326-9e-3 0.07797-0.01433 0.01209-0.0026 0.03104-0.0095 0.04573-0.01184-0.0054-5.92e-4 -0.01081-0.0012-0.01635-0.0023-0.02395-0.0046-0.01516 9.6e-4 -0.03672 0.0048-0.01666 3e-3 -0.03638-3e-6 -0.05837 0.0045-0.02284 0.0046-0.04725 0.01391-0.06755 0.02437-7e-3 -5e-3 -0.0137-0.01003-0.02015-0.01502 0.0042-2e-3 7e-3 -0.0053 0.01-0.0094 1.15e-4 -1.72e-4 0.0036-0.0048 0.0042-0.0059 0.0021-0.0037 0.0067-0.0098 0.0079-0.01429 2.77e-4 -1e-3 -0.0021 7.54e-4 -3e-3 0.0014-0.0069 0.0048-0.0053 0.0038-4e-3 3e-3 -8.3e-4 5.73e-4 -0.0024 0.0017-0.0058 4e-3 -0.0015 1e-3 -0.01086 0.0072-0.01998 0.01292-0.0052-0.0042-0.01018-0.0083-0.01503-0.01249 2.01e-4 -2.4e-5 4.01e-4 -1.2e-5 6.01e-4 -4.3e-5 0.02813-0.0043 0.08123-0.03684 0.1012-0.05789 0.0051-0.0054 0.01678-0.01027 0.01426-0.01734-2.76e-4 -7.73e-4 -0.01894 0.0072-0.03271 0.01309-0.0367 0.01562-0.07761 0.03608-0.11777 0.02819l0.0092-0.0015c0.0064-0.0039 0.0096-0.01106 0.01439-0.01669 0.0025-0.0029 0.0054-0.0061 0.0082-0.0089-0.0089 0.0044-0.01617 0.01027-0.02477 0.01506-0.0027 0.0015-0.0056 0.0027-0.0084 0.0041 9.45e-4 -0.0069 0.0015-0.0022 0.01597-0.02176 0.0053-0.0071 0.0093-0.01308 0.0084-0.02249-1.7e-5 -1.82e-4 -6.4e-5 -3.72e-4 -8.5e-5 -5.54e-4 0.0078 5.16e-4 0.01568 0.0011 0.0237 0.0012 0.0041 2e-3 0.01349 0.0056 0.01742 0.0097 0.0013 0.0013-0.0019 2.48e-4 -0.0011 0.0038 2.29e-4 1e-3 0.0025 0.0016 0.0031 7.73e-4 0.0018-0.0025-0.0054-0.01632-6e-3 -0.01721-0.0014-0.0019-0.0032-0.0034-0.0051-0.0048-0.01903-0.0045-0.04507-3e-3 -0.06862 5.54e-4 9.06e-4 -6.4e-4 0.0018-0.0012 0.0026-0.0016-0.0051 1.1e-5 -0.01099-6.49e-4 -0.01332-4.3e-5 -4e-3 0.0011-8e-3 3e-3 -0.01149 0.0053-2.87e-4 1.81e-4 -5.44e-4 3.72e-4 -8.11e-4 5.53e-4 -0.0025 5.35e-4 -5e-3 0.0011-0.0073 0.0016l-2e-3 0.0048c-3e-3 -0.0036-6e-3 -0.0071-0.0088-0.01064 0.0035-3.82e-4 7e-3 -8.02e-4 0.0073-8.97e-4 0.01079-0.0031 0.01801-0.01275 0.02823-0.01699 0.0042-0.0018 0.0078-1e-3 0.01208-0.0019 0.0038-7.73e-4 0.0076-0.0033 0.0111-0.0049 0.0018-7.91e-4 5e-3 -0.0014 0.0063-3e-3 2.76e-4 -3.43e-4 -9.07e-4 -2.58e-4 -0.0013-2.96e-4 -0.0022-2.1e-4 -0.0044-4.67e-4 -0.0067-6.01e-4 -8e-3 -4.39e-4 -0.01575 0.0016-0.02314 0.0044-3e-3 0.0011-0.0059 0.0024-0.0087 4e-3 -0.0057 0.0033-0.0094 0.0088-0.01653 0.0094-0.0028 2.1e-4 -0.0057-6.1e-4 -0.0085-6.01e-4 -0.0026 1.1e-5 -0.0055 7.35e-4 -0.0077 0.0021-0.01075-0.01361-0.02073-0.02677-0.03023-0.03909-0.03519-0.04565-0.10456-0.11521-0.11004-0.11415zm0.19147 0.16088c0.0036-8e-6 0.0069-3.53e-4 0.0081-0.0018 9.6e-5 -1.15e-4 -0.0036 8.3e-5 -0.0038 1.24e-4 -0.0016 4.58e-4 -3e-3 9.6e-4 -0.0044 0.0016zm0.04287 0.03326c2.29e-4 -1.15e-4 4.58e-4 -2.29e-4 6.87e-4 -3.44e-4 0.0026-0.0013 0.01291-0.0042 0.01281-0.0083-9.3e-5 -0.0037-0.0066 0.0016-0.01349 0.0086zm0.22751 0.06561c0.0066 7.25e-4 0.01311 0.0014 0.01981 0.0025 0.0038 6.77e-4 -0.0073-0.0033-0.01123-0.0033-0.0026 9e-6 -0.0055 2.77e-4 -0.0086 7.73e-4zm0.15065 0.06381c-1.82e-4 4.58e-4 -3.06e-4 9.07e-4 -2.96e-4 0.0013 3.2e-5 0.0034 6e-3 -0.0014 2.96e-4 -0.0013zm-0.37538 0.47779c-8.49e-4 0.0029-0.0018 0.0057-0.0029 0.0086-5.62e-4 0.0014-0.0024 0.0047-0.0024 0.0052 4.7e-5 7e-6 1.82e-4 -1e-5 3.44e-4 -1.71e-4 0.0038-0.0038 5e-3 -0.0086 5e-3 -0.0136zm-0.06192-0.09321c-2.29e-4 1.14e-4 -4.57e-4 2.29e-4 -6.86e-4 3.43e-4 -9.6e-4 4.58e-4 -0.0026 0.0043-0.0022 0.0042 1.81e-4 -3.5e-5 0.0015-0.0022 0.0029-0.0045zm-0.01631-0.16929c-2e-5 5.25e-4 7e-5 9.45e-4 2.58e-4 0.0012 4.77e-4 7.45e-4 1.62e-4 -2.6e-5 -2.58e-4 -0.0012zm0.04958-0.37098c0.0045-5.1e-5 0.0091 1.43e-4 0.01375 4.29e-4 -0.0015 4e-3 -0.0033 0.0081-5e-3 0.01163-0.0037 0.0076-0.01464 0.02318-0.02562 0.03249-7e-3 -0.0073-0.01345-0.0144-0.01973-0.0215 7.16e-4 -0.0019 0.0014-0.0038 0.0022-0.0056 0.0018-0.0039 0.0037-0.0083 0.0061-0.01244 0.0029-0.0011 0.0064-0.0021 0.01093-0.0031 0.0057-0.0013 0.01148-0.0018 0.01742-0.0018zm-0.07063 0.20281c-8.68e-4 2.48e-4 -0.0014 4.19e-4 -0.0012 5.53e-4 3.15e-4 2.86e-4 7.54e-4 -1e-6 0.0012-5.53e-4zm0.27661 0.1474c0.0827 0.05471 0.17764 0.14136 0.26214 0.23696 0.09115 0.10314 0.19112 0.21228 0.27384 0.3091 0.09476 0.11092 0.20095 0.23475 0.28844 0.35047 0.07541 0.09974 0.12197 0.16922 0.20227 0.29202 0.08104 0.12392 0.16454 0.24952 0.22652 0.3845 0.0049 0.01072 0.03988 0.08256 0.03843 0.09651-9.6e-5 9.25e-4 -3.72e-4 0.0016-8.11e-4 2e-3 -0.0012 1e-3 -0.05664-0.08664-0.06004-0.09158-0.07323-0.10651-0.14697-0.21339-0.2261-0.31611-0.1083-0.14058-0.16406-0.22802-0.26513-0.34605-0.07793-0.09101-0.14377-0.17743-0.21828-0.27211-0.10044-0.12762-0.19727-0.25008-0.30074-0.37441-0.09301-0.11178-0.16388-0.19305-0.22055-0.2713z" color="#000000" stroke-linecap="square" stroke-width=".069415" style="paint-order:markers stroke fill"/></g></g></svg>
