<svg xmlns="http://www.w3.org/2000/svg" width="192" height="192"><circle cx="96" cy="96" r="88" opacity=".63" style="fill:#73ada4;opacity:1"/><path d="M102.12 60.747a6.37 6.37 0 0 0-5.173 6.252 6.37 6.37 0 0 0 6.37 6.37 6.37 6.37 0 0 0 6.31-5.546 6.37 6.37 0 0 1-1.197.118 6.37 6.37 0 0 1-6.37-6.37 6.37 6.37 0 0 1 .06-.824zM90.293 131.41a6.37 6.37 0 0 0 5.173-6.252 6.37 6.37 0 0 0-6.37-6.37 6.37 6.37 0 0 0-6.31 5.546 6.37 6.37 0 0 1 1.197-.118 6.37 6.37 0 0 1 6.37 6.37 6.37 6.37 0 0 1-.06.824z" style="fill:#fff;paint-order:stroke fill markers;stroke-width:.64252"/><path d="m79.404 96.57 5.19 7.865s-3.83 5.425-15.1 5.033c-10.856-.378-20.332-11.642-19.975-21.392.383-10.493 8.24-21.67 23.122-21.392 5.26.099 12.057 2.844 16.516 10.067 8.605 13.94 15.28 24.263 22.493 34.92 2.13 3.147 6.58 4.703 10.38 4.718 6.051.024 11.366-6.585 11.326-12.112-.042-5.822-4.09-12.15-12.112-12.112-6.015.028-8.809 3.618-8.809 3.618l-4.876-7.865s5.98-5.03 13.213-5.033c13.547-.007 21.665 11.463 21.707 21.549.04 9.792-7.834 21.502-20.134 21.392-13.407-.12-18.403-8.809-18.403-8.809L82.393 83.2s-3.565-7.478-11.797-7.235c-7.693.226-11.692 5.997-11.954 12.112-.23 5.342 4.724 11.787 10.696 11.954 8.574.24 10.067-3.46 10.067-3.46z" style="fill:#fff;stroke-width:.7496"/></svg>