<svg xmlns="http://www.w3.org/2000/svg" viewBox="0 0 176 176"><path fill="#ff837d" d="M133.74 42.26A64.68 64.68 0 1 0 152.69 88a64.27 64.27 0 0 0-18.95-45.74ZM37.17 88a50.77 50.77 0 0 1 81.51-40.47l-71.15 71.15A50.43 50.43 0 0 1 37.17 88Zm86.77 35.94a50.73 50.73 0 0 1-66.61 4.54l71.14-71.14a50.73 50.73 0 0 1-4.53 66.6Z"/><path fill="#98dc9a" d="M176 122.37s-21.83-12.61-48.76-12.61c-1.45 0-2.88 0-4.29.11a83.53 83.53 0 0 0 6.64-6c19-19 25.15-43.8 25.15-43.8S130 66.2 110.94 85.24a88.57 88.57 0 0 0-9 10.56 151 151 0 0 0 2.34-26C104.29 31.24 88 0 88 0S71.71 31.24 71.71 69.78a151 151 0 0 0 2.34 26 88.57 88.57 0 0 0-9-10.56c-19-19-43.8-25.15-43.8-25.15s6.11 24.76 25.15 43.8a83.53 83.53 0 0 0 6.64 6c-1.41-.07-2.84-.11-4.29-.11C21.83 109.76 0 122.37 0 122.37S21.83 135 48.76 135a94.47 94.47 0 0 0 17-1.59l-.63.62c-12.64 12.64-15.22 30.57-15.22 30.57s17.92-2.6 30.57-15.26c.62-.62 1.21-1.25 1.78-1.9V173a3 3 0 0 0 3 3h5.48a3 3 0 0 0 3-3v-25.56c.57.65 1.16 1.28 1.78 1.9 12.65 12.65 30.57 15.23 30.57 15.23s-2.58-17.93-15.22-30.57l-.42-.42a92.55 92.55 0 0 0 16.79 1.42c26.93 0 48.76-12.63 48.76-12.63Z"/><path fill="#ff837d" d="M133.74 42.26A64.23 64.23 0 0 0 102 24.84a74.8 74.8 0 0 1 .85 14.56 50.53 50.53 0 0 1 15.83 8.13l-71.15 71.15A50.57 50.57 0 0 1 38.2 98.2c-.2-.1-.4-.18-.6-.3-3.36-2.05-5.33-5-7.86-7.89a44.23 44.23 0 0 0-6.33-5.55c-.06 1.18-.1 2.36-.1 3.54a64.7 64.7 0 0 0 100.95 53.58 52.87 52.87 0 0 1-7.72-7.15h-.2a13.77 13.77 0 0 1-1.68-.21 6.37 6.37 0 0 1-1.27-.19 5.06 5.06 0 0 1-.81-.15 6.47 6.47 0 0 1-1-.14 6.21 6.21 0 0 1-1.09-.17 50.67 50.67 0 0 1-53.15-5.1l71.14-71.14a50.79 50.79 0 0 1 5.84 51.67 57.78 57.78 0 0 1 14.33 1.58 64.76 64.76 0 0 0-14.91-68.29Z"/></svg>