<svg xmlns="http://www.w3.org/2000/svg" viewBox="0 0 192 192"><path fill="#d3b69a" d="M114.63 70.39a4.59 4.59 0 0 0-2.91 4.61.64.64 0 0 0 .49.75 6.94 6.94 0 0 0 7.62-1.1c1.67-1.44 2.75-3.18 2.19-5.65a21.19 21.19 0 0 0-7.39 1.39ZM79.23 71c-2.61-1.63-5.54-1.91-8.74-2a10.26 10.26 0 0 0 .45 3c1.79 3.6 5.58 5.52 9.7 3.65.15-.07.35-.24.35-.36C81 73.6 80.81 72 79.23 71Z"/><path fill="#d3b69a" d="M131.44 49.32a1.21 1.21 0 0 0-.67-.49 32.83 32.83 0 0 0-9.54-.3 37 37 0 0 0-14.53 5 52.71 52.71 0 0 0-8 6 3.55 3.55 0 0 1-5.48-.76 2.45 2.45 0 0 0-.63-.69C90.4 56.6 88.28 55 86 53.73a42.31 42.31 0 0 0-6.6-2.83 33.45 33.45 0 0 0-9.58-1.9c-2.69-.09-5.38.07-8.08.16a1.19 1.19 0 0 0-.77.53 40.27 40.27 0 0 0-5.1 11.65 41.85 41.85 0 0 0 73.82 36 40.78 40.78 0 0 0 6.13-11.4 45.63 45.63 0 0 0 2.49-13c-.19-2.36-.24-4.75-.6-7.1a41 41 0 0 0-6.27-16.52Zm-2.53 23.74a12 12 0 0 1-3.77 6.27 13.45 13.45 0 0 1-8.3 4 39.46 39.46 0 0 1-5-.13c-.56 1.5-1.08 3.19-1.82 4.77a50.05 50.05 0 0 1-7 10.35c-1.16 1.41-2.38 2.79-3.6 4.16a3.93 3.93 0 0 1-5.13.85 4.73 4.73 0 0 1-1.1-.95 74.94 74.94 0 0 1-9.1-11.8 21.41 21.41 0 0 1-3.06-7.53c-1.24.12-2.45.34-3.66.34a14.12 14.12 0 0 1-10.84-5.2c-2.79-3.14-3.43-6.84-2.89-10.86.1-.7.25-1.4.33-2.1A3.7 3.7 0 0 1 67.7 62a30.1 30.1 0 0 1 11 1c3.32 1 6.21 2.68 7.93 5.87A13 13 0 0 1 88.1 75c0 1.82 0 3.64-.09 5.45a8.43 8.43 0 0 0 .93 4.12 51 51 0 0 0 7.31 10.54s.09 0 .23.09c.6-.73 1.26-1.44 1.82-2.23 1.56-2.2 3.08-4.41 4.6-6.64a11.92 11.92 0 0 0 1.81-8 20.7 20.7 0 0 1 .54-7.31 10.93 10.93 0 0 1 6.53-7.12 26.41 26.41 0 0 1 11.78-2 18.12 18.12 0 0 1 2.2.18 3.16 3.16 0 0 1 2.79 2.38 18.93 18.93 0 0 1 .36 8.6Z"/><path fill="#d3b69a" d="M148.44 45.11a61.2 61.2 0 0 0-21.22-21.38A60.09 60.09 0 0 0 110.94 17a52.12 52.12 0 0 0-12.41-1.76c-3 0-6.09.08-9.12.29a53.15 53.15 0 0 0-12.82 2.76 59.82 59.82 0 0 0-10.38 4.62 60.71 60.71 0 0 0-12.63 9.43 61.18 61.18 0 0 0-14 20.81 61.23 61.23 0 0 0-4.28 18.84 41.28 41.28 0 0 0 1.14 13.2 77.83 77.83 0 0 0 4 11.48A133.39 133.39 0 0 0 49.56 114q5.32 8.58 11 16.91c3.06 4.46 6.34 8.77 9.6 13.09 2.53 3.34 5.16 6.61 7.79 9.87s5.37 6.57 8.09 9.82c2 2.41 4.08 4.77 6.14 7.14 1.27 1.46 2.58 2.89 4 4.43.59-.67 1.11-1.25 1.62-1.84 3.47-4 7-8 10.4-12.09s6.9-8.41 10.23-12.72c3.68-4.77 7.31-9.59 10.8-14.5 3.37-4.73 6.58-9.57 9.75-14.43a167 167 0 0 0 10-17.62 81.6 81.6 0 0 0 6.51-17 47.58 47.58 0 0 0 1.25-7.75 53.57 53.57 0 0 0-1.52-15.18 59.29 59.29 0 0 0-6.78-17.02Zm-3.77 34.46a48.35 48.35 0 0 1-13.87 27.21 51.27 51.27 0 0 1-7.5 6.14 49.22 49.22 0 0 1-16.11 6.9A47.31 47.31 0 0 1 96.46 121a50.33 50.33 0 0 1-10.16-1A48.81 48.81 0 0 1 59 103.75a49.38 49.38 0 0 1-7.81-12.64A43.11 43.11 0 0 1 48 79.62a71.81 71.81 0 0 1-.58-8.79 43.52 43.52 0 0 1 1.62-11.39 48.77 48.77 0 0 1 6-13.72 49.4 49.4 0 0 1 6.21-7.82 3.64 3.64 0 0 1 4.26-.75 3.58 3.58 0 0 1 1.78 4.06l-.09.37c2.83.37 5.63.59 8.36 1.13a64.88 64.88 0 0 1 7.84 2.13A44.53 44.53 0 0 1 96 51.73a.66.66 0 0 0 1 0 48.15 48.15 0 0 1 9.86-6.21 39.58 39.58 0 0 1 11.87-3.69c2-.27 4.09-.43 6.21-.65 0-.18-.06-.41-.1-.64a3.55 3.55 0 0 1 1.76-3.67 3.48 3.48 0 0 1 4.15.51 48.22 48.22 0 0 1 10.89 16.22 46.27 46.27 0 0 1 2.89 10 51 51 0 0 1 .14 15.97Z"/><path fill="#56595b" d="M160.31 54.13A68 68 0 0 0 151 36.06a58.06 58.06 0 0 0-8.8-9.85 99.16 99.16 0 0 0-8-6.42 63.76 63.76 0 0 0-17.68-8.62A68.11 68.11 0 0 0 84 9.07a66.73 66.73 0 0 0-19.5 6.67 68.44 68.44 0 0 0-27.62 26.73 66.55 66.55 0 0 0-7.4 19.71 69 69 0 0 0-1.4 11.22 49.54 49.54 0 0 0 2.59 17.26 108.13 108.13 0 0 0 4.21 10.71c1.9 4.11 4 8.13 6.21 12.08s4.5 7.7 6.91 11.44c2.52 3.92 5.17 7.74 7.85 11.55q3.76 5.34 7.71 10.55 3.82 5 7.81 9.94c4.17 5.07 8.37 10.21 12.63 15.22 3.06 3.59 6.31 7 9.39 10.56a3.7 3.7 0 0 0 5.5.12c1.73-2 3.55-3.86 5.26-5.86 4-4.65 8-9.3 11.88-14s7.49-9.26 11.12-14c3-3.85 5.84-7.75 8.58-11.75q5.89-8.61 11.51-17.4a146.84 146.84 0 0 0 9.76-18.18 90.25 90.25 0 0 0 5-13.19 55.31 55.31 0 0 0 1.79-9.28 52.91 52.91 0 0 0-.33-11.32 66.81 66.81 0 0 0-3.15-13.72Zm-3.55 23.13a47.58 47.58 0 0 1-1.25 7.74 81.6 81.6 0 0 1-6.51 17 167 167 0 0 1-10 17.62c-3.17 4.86-6.38 9.7-9.75 14.43-3.49 4.91-7.12 9.73-10.8 14.5q-5 6.47-10.23 12.72c-3.4 4.09-6.93 8.07-10.4 12.09-.51.59-1 1.17-1.62 1.84-1.39-1.54-2.7-3-4-4.43-2.06-2.37-4.12-4.73-6.14-7.14-2.72-3.25-5.43-6.52-8.09-9.82s-5.26-6.53-7.79-9.87c-3.26-4.32-6.54-8.63-9.6-13.09q-5.72-8.33-11-16.91a133.39 133.39 0 0 1-9.09-17.37 77.83 77.83 0 0 1-4-11.48 41.28 41.28 0 0 1-1.14-13.2 61.23 61.23 0 0 1 4.21-18.79 61.18 61.18 0 0 1 14-20.81 60.71 60.71 0 0 1 12.63-9.43 59.82 59.82 0 0 1 10.38-4.62 53.15 53.15 0 0 1 12.82-2.76c3-.21 6.08-.33 9.12-.29A52.12 52.12 0 0 1 110.94 17a60.09 60.09 0 0 1 16.28 6.78 61.2 61.2 0 0 1 21.22 21.38 59.29 59.29 0 0 1 6.8 17 53.57 53.57 0 0 1 1.52 15.1Z"/><path fill="#56595b" d="M141.64 53.6a48.22 48.22 0 0 0-10.88-16.26 3.48 3.48 0 0 0-4.15-.51 3.55 3.55 0 0 0-1.76 3.67c0 .23.07.46.1.64-2.12.22-4.17.38-6.21.65a39.58 39.58 0 0 0-11.87 3.69A48.15 48.15 0 0 0 97 51.69a.66.66 0 0 1-1 0 44.53 44.53 0 0 0-12.57-6.89 64.88 64.88 0 0 0-7.84-2.13c-2.73-.54-5.53-.76-8.36-1.13l.09-.37a3.58 3.58 0 0 0-1.78-4.06 3.64 3.64 0 0 0-4.26.75 49.4 49.4 0 0 0-6.21 7.82 48.77 48.77 0 0 0-6 13.72 43.52 43.52 0 0 0-1.62 11.39 71.81 71.81 0 0 0 .55 8.83 43.11 43.11 0 0 0 3.21 11.49A49.38 49.38 0 0 0 59 103.75 48.81 48.81 0 0 0 86.3 120a50.33 50.33 0 0 0 10.16 1 47.31 47.31 0 0 0 10.73-1.19 49.22 49.22 0 0 0 16.11-6.9 51.27 51.27 0 0 0 7.5-6.14 48.35 48.35 0 0 0 13.87-27.21 51 51 0 0 0-.14-16 46.27 46.27 0 0 0-2.89-9.96Zm-5.82 32.34a40.78 40.78 0 0 1-6.13 11.4 41.73 41.73 0 0 1-40.94 15.91A41.22 41.22 0 0 1 73 106.79a41.86 41.86 0 0 1-17.1-45.43A40.27 40.27 0 0 1 61 49.71a1.19 1.19 0 0 1 .77-.53c2.7-.09 5.39-.25 8.08-.16a33.45 33.45 0 0 1 9.55 1.88 42.31 42.31 0 0 1 6.6 2.83c2.31 1.27 4.43 2.87 6.62 4.35a2.45 2.45 0 0 1 .63.69 3.55 3.55 0 0 0 5.48.76 52.71 52.71 0 0 1 8-6 37 37 0 0 1 14.53-5 32.83 32.83 0 0 1 9.54.3 1.21 1.21 0 0 1 .67.49 41 41 0 0 1 6.27 16.47c.36 2.35.41 4.74.6 7.1a45.63 45.63 0 0 1-2.52 13.05Z"/><path fill="#56595b" d="M125.76 62.15a18.12 18.12 0 0 0-2.2-.18 26.41 26.41 0 0 0-11.78 2 10.93 10.93 0 0 0-6.53 7.03 20.7 20.7 0 0 0-.54 7.31 11.92 11.92 0 0 1-1.81 8c-1.52 2.23-3 4.44-4.6 6.64-.56.79-1.22 1.5-1.82 2.23-.14-.06-.2-.06-.23-.09a51 51 0 0 1-7.31-10.54 8.43 8.43 0 0 1-.94-4.09c.09-1.81.12-3.63.09-5.45a13 13 0 0 0-1.42-6.09c-1.72-3.19-4.61-4.83-7.93-5.87a30.1 30.1 0 0 0-11-1 3.7 3.7 0 0 0-3.74 3.2c-.08.7-.23 1.4-.33 2.1-.54 4 .1 7.72 2.89 10.86a14.12 14.12 0 0 0 10.84 5.2c1.21 0 2.42-.22 3.66-.34a21.41 21.41 0 0 0 3.06 7.53 74.94 74.94 0 0 0 9.1 11.8 4.73 4.73 0 0 0 1.1.95 3.93 3.93 0 0 0 5.13-.85c1.22-1.37 2.44-2.75 3.6-4.16A50.05 50.05 0 0 0 110 88c.74-1.58 1.26-3.27 1.82-4.77a39.46 39.46 0 0 0 5 .13 13.45 13.45 0 0 0 8.3-4 12 12 0 0 0 3.77-6.27 18.93 18.93 0 0 0-.36-8.53 3.16 3.16 0 0 0-2.77-2.41ZM80.64 75.61c-4.12 1.87-7.91 0-9.7-3.65a10.26 10.26 0 0 1-.45-3c3.2.14 6.13.42 8.74 2C80.81 72 81 73.6 81 75.25c0 .12-.21.29-.36.36Zm39.19-1a6.94 6.94 0 0 1-7.62 1.1.64.64 0 0 1-.49-.75 4.59 4.59 0 0 1 2.91-4.57A21.19 21.19 0 0 1 122 69c.58 2.43-.5 4.17-2.17 5.61Z"/></svg>