<svg xmlns="http://www.w3.org/2000/svg" xml:space="preserve" viewBox="0 0 192 192"><defs><clipPath id="a"><rect width="128" height="176" x="20" y="8" fill="#ff837d" class="a" rx="10"/></clipPath></defs><rect width="128" height="176" x="32" y="8" fill="#ff837d" class="a" rx="10"/><path fill="#f8c18c" d="m59.527 105.58 11.189 34.347H28.177l-.781 44.075h137.26l-.78-44.075h-42.54l11.19-34.347-36.502 19.041z" clip-path="url(#a)" transform="translate(12)"/><path fill="#8e6f60" d="M93.9 115.53v8.19h9.844v23.782h8.511V123.72h9.844v-8.189H108z"/><path fill="#fff" d="M108 61.109 93.9 75.011v40.514h28.199V75.011z"/><path fill="#f8c18c" d="m76.339 99.146-8.977-8.977L73.529 84l9.096 9.095zM139.66 99.146l8.977-8.977L142.47 84l-9.096 9.095z"/><path fill="#ba6561" d="M42.078 8A10.056 10.056 0 0 0 32 18.078v155.84a10.056 10.056 0 0 0 10.078 10.078H56v-176H42.078z" style="paint-order:stroke fill markers" transform="translate(0 .002)"/></svg>