<?xml version="1.0" encoding="UTF-8"?>
<svg version="1.1" viewBox="0 0 192 192" xml:space="preserve" xmlns="http://www.w3.org/2000/svg"><defs><clipPath id="clipPath638"><rect class="a" x="20" y="8" width="128" height="176" rx="10" fill="#ff837d"/></clipPath></defs>
	 <rect class="a" x="32" y="8" width="128" height="176" rx="10" fill="#ff837d"/><path transform="translate(12)" d="m59.527 105.58 11.189 34.347h-42.539l-0.78125 44.075h137.26l-0.77929-44.075h-42.541l11.191-34.347-36.502 19.041z" clip-path="url(#clipPath638)" fill="#f8c18c"/><path d="m93.9 115.53v8.1894h9.8437v23.783h8.5117v-23.783h9.8438v-8.1894h-14.1z" fill="#8e6f60"/><path d="m108 61.109-14.1 13.902v40.514h28.199v-40.514z" fill="#fff"/><path d="m76.339 99.146-8.9775-8.9775 6.1677-6.1677 9.0956 9.0956z" fill="#f8c18c"/><path d="m139.66 99.146 8.9775-8.9775-6.1677-6.1677-9.0956 9.0956z" fill="#f8c18c"/><path transform="translate(0 .002)" d="m42.078 8c-5.5836 0-10.078 4.4945-10.078 10.078v155.84c0 5.5836 4.4945 10.078 10.078 10.078h13.922v-176h-13.922z" fill="#ba6561" style="paint-order:stroke fill markers"/></svg>
