<?xml version="1.0" encoding="UTF-8" standalone="no"?>
<svg
   xmlns:dc="http://purl.org/dc/elements/1.1/"
   xmlns:cc="http://creativecommons.org/ns#"
   xmlns:rdf="http://www.w3.org/1999/02/22-rdf-syntax-ns#"
   xmlns:svg="http://www.w3.org/2000/svg"
   xmlns="http://www.w3.org/2000/svg"
   version="1.1"
   id="svg2"
   viewBox="0 0 192 192"
   height="192"
   width="192">
  <metadata
     id="metadata20">
    <rdf:RDF>
      <cc:Work
         rdf:about="">
        <dc:format>image/svg+xml</dc:format>
        <dc:type
           rdf:resource="http://purl.org/dc/dcmitype/StillImage" />
        <dc:title></dc:title>
      </cc:Work>
    </rdf:RDF>
  </metadata>
  <defs
     id="defs18" />
  <circle
     cx="96"
     cy="96"
     r="88"
     id="circle8"
     style="fill:#f4806d;fill-rule:evenodd;stroke:none;fill-opacity:1" />
  <style
     type="text/css"
     id="style3349">
	.st0{fill:#D6312C;}
	.st1{fill:#EB624E;}
	.st2{fill:#5DB747;}
	.st3{fill:none;}
	.st4{fill:#FFFFFF;}
</style>
  <g
     transform="translate(-1780.7212,-541.43135)"
     id="Uber_Eats_2_">
    <rect
       style="fill:none"
       x="-2488.3999"
       y="840.90002"
       class="st3"
       width="1036.1"
       height="885.29999"
       id="rect3359" />
  </g>
  <path
     style="fill:#ffffff"
     id="Shape"
     class="st4"
     d="m 116.27228,129.4403 c 0.64641,-0.0687 1.30656,-0.12378 1.95297,-0.20629 1.43034,-0.17881 2.84691,-0.52262 4.20848,-1.01775 2.68189,-0.97646 5.11622,-2.51683 7.13795,-4.52481 1.92545,-1.89795 3.42454,-4.09846 4.62108,-6.51903 0.92147,-1.85669 1.60914,-3.82341 2.03548,-5.85888 0.055,-0.26131 0.0963,-0.50889 0.15129,-0.77019 -0.37134,0.27506 -0.68767,0.56389 -1.00399,0.85268 -0.77019,0.71518 -1.62289,1.34783 -2.53059,1.88422 -1.04524,0.60513 -2.15927,1.01773 -3.36956,1.12776 -0.97647,0.0826 -1.95296,-0.0412 -2.88817,-0.34385 -1.04524,-0.35756 -2.03548,-0.85269 -2.94319,-1.4991 -1.38909,-0.96271 -2.62688,-2.07674 -3.89219,-3.20449 -1.37531,-1.22404 -2.76439,-2.40681 -4.24973,-3.47958 -1.16903,-0.83895 -2.37933,-1.62287 -3.71339,-2.20052 -1.60912,-0.71516 -3.38329,-0.97647 -5.12995,-0.75642 -1.10025,0.15129 -2.15926,0.48136 -3.14949,0.97648 -1.07276,0.52263 -2.04924,1.19654 -2.98445,1.91169 -1.100273,0.83896 -2.159273,1.71917 -3.232023,2.58563 -0.24756,0.19254 -0.48136,0.39883 -0.72892,0.59138 -0.42635,0.33009 -0.74268,0.33009 -1.169029,0.0138 -0.08253,-0.055 -0.165039,-0.13753 -0.261313,-0.20629 -0.412597,-0.34383 -0.811439,-0.67392 -1.224036,-1.00399 -1.375325,-1.14153 -2.764402,-2.26928 -4.27726,-3.23202 -1.430337,-0.90772 -2.956947,-1.52661 -4.648596,-1.69164 -1.224037,-0.12378 -2.461832,0 -3.630857,0.34382 -1.265299,0.39886 -2.420571,0.99024 -3.534585,1.70541 -1.897949,1.22403 -3.630857,2.64063 -5.322506,4.13974 -1.141518,1.00397 -2.310546,2.02172 -3.493323,2.97069 -1.086506,0.89395 -2.338052,1.58161 -3.68587,2.02172 -1.086506,0.35758 -2.241779,0.45385 -3.369546,0.27508 -1.155271,-0.19256 -2.214274,-0.66017 -3.204506,-1.27906 -0.89396,-0.56389 -1.719156,-1.22405 -2.475583,-1.95296 -0.2063,-0.20629 -0.426349,-0.3851 -0.646403,-0.57764 0.05502,0.46761 0.137533,0.93521 0.247556,1.40284 0.15129,0.61889 0.316326,1.23779 0.522627,1.84293 0.756428,2.3518 1.842933,4.57983 3.245764,6.60156 0.976481,1.44408 2.131755,2.77816 3.424561,3.96093 3.314529,2.9982 7.550529,4.77238 12.006581,5.06119 l 2.915688,0 c 3.98844,-0.2613 7.839349,-1.54037 11.167635,-3.74088 2.901935,-1.93921 5.212481,-4.42855 6.642811,-7.66056 0.0413,-0.0826 0.0825,-0.15128 0.12379,-0.2338 0,-0.0137 0.0413,-0.0275 0.0963,-0.0551 0.0688,0.0963 0.12378,0.20631 0.17879,0.31633 0.75643,1.69164 1.77417,3.24577 3.03947,4.59359 1.347813,1.45785 2.915693,2.69563 4.634843,3.68587 2.07675,1.21028 4.31854,2.0905 6.67033,2.59937 0.86646,0.19254 1.74666,0.2888 2.62687,0.41258 0.50887,0.0687 1.01775,0.0963 1.54037,0.15128 l 1.56786,-0.0137 z" />
</svg>
