<svg xmlns="http://www.w3.org/2000/svg" width="192" height="192"><path fill="#a0a5af" d="M68.235 65.551S84.548 16.98 96.227 16.98c10.753 0 27.447 48.938 27.447 48.938s51.95.067 55.439 10.647c4.292 13.016-38.183 41.488-38.183 41.488z"/><path fill="#56595b" d="M140.93 118.05s14.932 48.108 7.45 55.59c-8.352 8.352-53.343-24.015-53.343-24.015l-43.324-32.309S9.17 89.651 12.802 76.097c2.87-10.715 55.433-10.549 55.433-10.549z"/><path fill="#d2d2d2" d="M51.713 117.32s-17.051 49.298-8.444 55.807c10.35 7.827 51.768-23.498 51.768-23.498z"/></svg>