<svg xmlns="http://www.w3.org/2000/svg" viewBox="0 0 192 192"><rect width="153" height="153" x="19.5" y="19.5" rx="10" style="fill:#9abeff"/><path d="M55.16 57.01H89.8L96 60.2l7.47-2.55 34.24-.64-.48 67.67-34.21 1.12-7.02 3.18-9.65-3.56H54.52l.64-68.41z" style="fill:#fff"/><path d="M63.66 76.57h23.58a2.06 2.06 0 0 0 0-4.12H63.66a2.06 2.06 0 0 0 0 4.12ZM63.66 84.81h23.58a2.06 2.06 0 0 0 0-4.12H63.66a2.06 2.06 0 0 0 0 4.12ZM63.66 93.06h23.58a2.06 2.06 0 0 0 0-4.12H63.66a2.06 2.06 0 0 0 0 4.12ZM63.66 101.3h23.58a2.06 2.06 0 0 0 0-4.12H63.66a2.06 2.06 0 0 0 0 4.12ZM63.66 109.55h23.58a2.06 2.06 0 0 0 0-4.12H63.66a2.06 2.06 0 0 0 0 4.12Z" style="fill:#f8c18c"/><path d="M63.66 109.55h23.58a2.06 2.06 0 0 0 0-4.12H63.66a2.06 2.06 0 0 0 0 4.12ZM63.66 117.79h23.58a2.06 2.06 0 0 0 0-4.12H63.66a2.06 2.06 0 0 0 0 4.12ZM63.66 68.18h23.58a2.06 2.06 0 0 0 0-4.12H63.66a2.06 2.06 0 0 0 0 4.12Z" style="fill:#f8c18c"/><path d="M143.4 58.9h-4.09v-2.06a2.06 2.06 0 0 0-2.06-2.06h-12.4v-2.06a2.05 2.05 0 0 0-2-2.06h-8.25a2.06 2.06 0 0 0-2.06 2.06v2.06H111c-8.64 0-12.94 1.77-15 3.29-2.1-1.52-6.4-3.29-15-3.29H54.75a2.06 2.06 0 0 0-2.06 2.06v2.06H48.6a2.07 2.07 0 0 0-2.07 2.1v70a2.07 2.07 0 0 0 2.07 2.06h40.74c1.31.62 4.55 2.06 6.66 2.06s5.35-1.44 6.66-2.06h9.83v6.18a2.07 2.07 0 0 0 3 1.85l3.2-1.6 3.2 1.6a2.14 2.14 0 0 0 .93.21 2.06 2.06 0 0 0 2-2.06v-6.14h18.58a2.07 2.07 0 0 0 2.07-2.06V61a2.07 2.07 0 0 0-2.07-2.1Zm-18.54 0h10.33v63.89h-10.33Zm-26.8 2.81c.87-.78 4-2.81 13-2.81h1.45v63.89h-2.06c-5.16 0-9.32 1-12.37 3ZM56.81 58.9H81c9 0 12.11 2 13 2.81v64.09c-3-2-7.21-3-12.37-3H56.81Z" style="fill:#f8c18c"/></svg>