<svg xmlns="http://www.w3.org/2000/svg" viewBox="0 0 192 192"><title>ReadEra</title><rect x="19.5" y="19.5" width="153" height="153" rx="10" style="fill:#728dbe"/><polygon points="48.6 130.12 48.6 61.65 54.52 61.65 54.52 124.52 89.8 125.8 96 128.98 105.84 124.52 135.19 124.68 137.23 124.68 137.23 60.84 142.99 60.84 142.99 130.59 99.19 131.4 95.79 133.96 88.11 131.24 48.6 130.12" style="fill:#f8c18c"/><polygon points="55.16 57.01 89.8 57.01 96 60.2 103.47 57.65 137.71 57.01 137.23 124.68 103.02 125.8 96 128.98 86.35 125.42 54.52 125.42 55.16 57.01" style="fill:#fff"/><path d="M63.82,72.27H86.33a2.07,2.07,0,0,0,0-4.13H63.82a2.08,2.08,0,0,0,0,4.13Z" style="fill:#f8c18c"/><path d="M63.82,80.51H86.33a2.07,2.07,0,0,0,0-4.12H63.82a2.07,2.07,0,0,0,0,4.12Z" style="fill:#f8c18c"/><path d="M63.82,88.76H86.33a2.07,2.07,0,0,0,0-4.13H63.82a2.08,2.08,0,0,0,0,4.13Z" style="fill:#f8c18c"/><path d="M63.82,97H86.33a2.07,2.07,0,0,0,0-4.12H63.82a2.07,2.07,0,0,0,0,4.12Z" style="fill:#f8c18c"/><path d="M63.82,105.24H86.33a2.07,2.07,0,0,0,0-4.12H63.82a2.07,2.07,0,0,0,0,4.12Z" style="fill:#f8c18c"/><path d="M63.82,105.24H86.33a2.07,2.07,0,0,0,0-4.12H63.82a2.07,2.07,0,0,0,0,4.12Z" style="fill:#f8c18c"/><path d="M63.82,113.49H86.33a2.07,2.07,0,0,0,0-4.12H63.82a2.07,2.07,0,0,0,0,4.12Z" style="fill:#f8c18c"/><path d="M143.4,58.9h-4.09V56.84a2.06,2.06,0,0,0-2.06-2.06h-12.4V52.72a2.05,2.05,0,0,0-2-2.06h-8.25a2.06,2.06,0,0,0-2.06,2.06v2.06H111c-8.64,0-12.94,1.77-15,3.29-2.1-1.52-6.4-3.29-15-3.29H54.75a2.06,2.06,0,0,0-2.06,2.06V58.9H48.6A2.07,2.07,0,0,0,46.53,61V131a2.07,2.07,0,0,0,2.07,2.06H89.34c1.31.62,4.55,2.06,6.66,2.06s5.35-1.44,6.66-2.06h9.83v6.18a2.07,2.07,0,0,0,3,1.85l3.2-1.6,3.2,1.6a2.14,2.14,0,0,0,.93.21,2.06,2.06,0,0,0,2-2.06V133.1H143.4a2.07,2.07,0,0,0,2.07-2.06V61A2.07,2.07,0,0,0,143.4,58.9Zm-30.91,0v63.89h-2.06c-5.16,0-9.32,1-12.37,3V61.71c.87-.78,4-2.81,13-2.81Zm-55.68,0H81c9,0,12.11,2,13,2.81V125.8c-3-2-7.21-3-12.37-3H56.81Zm33,70.08H50.65V63h2v61.84a2.06,2.06,0,0,0,2.06,2.06H81.57c3.08,0,7.37.43,10.34,2.48a8.09,8.09,0,0,1,.9.72c-.76-.31-1.5-.64-2.07-.92A2,2,0,0,0,89.82,129Zm12.36,0a2,2,0,0,0-.92.22c-.57.28-1.31.62-2.07.92a8.09,8.09,0,0,1,.9-.72c3-2.05,7.26-2.48,10.34-2.48h2.06V129Zm18.55,7-1.13-.57a2.05,2.05,0,0,0-1.85,0l-1.14.57V54.78h4.12V136Zm14.46-77v63.89H124.86V58.9ZM141.35,129h-16.5v-2.06h12.4a2.06,2.06,0,0,0,2.06-2.06V63h2v66Z" style="fill:#f8c18c"/><rect x="114.87" y="53.81" width="6.95" height="82.29" style="fill:#f8c18c"/></svg>