<svg id="Calque_1" data-name="Calque 1" xmlns="http://www.w3.org/2000/svg" viewBox="0 0 176 176">
  <g>
    <path d="M106.49,8.65A87.81,87.81,0,0,0,20.61,50.5L49.15,85.6l70.6-29.09Z" transform="translate(-8 -8)" style="fill: #9abeff"/>
    <polygon points="111.75 48.59 41.15 77.68 84.1 130.5 125.9 99.86 111.75 48.59" style="fill: #e85e5c"/>
    <path d="M20.61,50.58A87.13,87.13,0,0,0,8,96c0,2.19.08,4.39.24,6.58l40.91-16.9Z" transform="translate(-8 -8)" style="fill: #728dbe"/>
    <path d="M181.07,73.25A88,88,0,0,0,106.49,8.73l27.41,99.13Z" transform="translate(-8 -8)" style="fill: #c39a54"/>
    <path d="M49.15,85.68,8.24,102.58a87.94,87.94,0,0,0,40.59,67.69L92.1,138.5Z" transform="translate(-8 -8)" style="fill: #71a372"/>
    <path d="M48.83,170.27A88.24,88.24,0,0,0,125,179.12L92.1,138.58Z" transform="translate(-8 -8)" style="fill: #98dc9a"/>
    <path d="M133.82,107.86,92.1,138.5,125,179a89,89,0,0,0,24.72-13.4Z" transform="translate(-8 -8)" style="fill: #ff837d"/>
    <path d="M133.82,107.86l15.94,57.78A87.84,87.84,0,0,0,181,73.25Z" transform="translate(-8 -8)" style="fill: #f9de81"/>
  </g>
</svg>
