<svg xmlns="http://www.w3.org/2000/svg" width="192" height="192"><path d="M102.51 28.471c-7.258.151-14.134 1.275-20.1 3.86-3.224 1.396-4.265 4.225-5.066 7.064-.801 2.838-1.22 6.194-1.46 10.018-.478 7.646-.157 17.114.46 26.439 1.233 18.65 3.693 36.687 3.693 36.687.466 3.42 4.753 4.684 7 2.064l17.713-20.666c-.04 5.455-.766 12.997-3.564 21.857-5.715 18.097-19.904 41.14-55.13 60.71-3.605 2.005-2.182 7.494 1.944 7.496 40.933 0 66.155-14.498 80.828-29.172 1.445-1.446 2.714-2.889 3.965-4.327-1.639 5.974-3.4 12.667-4.588 16.232-1.24 3.72 3.058 6.818 6.195 4.465 8.655-6.491 17.835-17.384 25.076-30.102C166.717 128.38 172 113.862 172 99.998c0-20.767-10.275-35.233-16.61-42.246l17.876-5.959c3.529-1.176 3.683-6.11.235-7.504 0 0-15.195-6.148-33.992-10.75-11.748-2.876-24.902-5.322-36.998-5.07z" style="color-rendering:auto;color:#000;dominant-baseline:auto;fill:#9abeff;font-feature-settings:normal;font-variant-alternates:normal;font-variant-caps:normal;font-variant-ligatures:normal;font-variant-numeric:normal;font-variant-position:normal;image-rendering:auto;isolation:auto;mix-blend-mode:normal;shape-padding:0;shape-rendering:auto;solid-color:#000;text-decoration-color:#000;text-decoration-line:none;text-decoration-style:solid;text-indent:0;text-orientation:mixed;text-transform:none;white-space:normal"/><path d="M144 8c-40.933 0-66.155 14.498-80.828 29.172-1.445 1.445-2.714 2.888-3.965 4.326 1.639-5.973 3.4-12.667 4.588-16.232 1.24-3.72-3.058-6.817-6.195-4.465-8.655 6.492-17.835 17.384-25.076 30.102C25.283 63.62 20 78.137 20 92.001c0 20.767 10.275 35.233 16.61 42.246l-17.876 5.96c-3.529 1.176-3.683 6.11-.235 7.503 0 0 15.195 6.149 33.992 10.75 18.797 4.602 41.19 8.104 57.098 1.211 3.225-1.397 4.266-4.226 5.067-7.064.8-2.839 1.22-6.195 1.459-10.018.478-7.646.158-17.114-.46-26.44-1.233-18.65-3.693-36.687-3.693-36.687-.466-3.42-4.753-4.684-7-2.065L87.25 98.063c.041-5.455.767-12.997 3.565-21.857 5.715-18.097 19.904-41.14 55.129-60.709 3.605-2.006 2.182-7.494-1.943-7.496z" style="color-rendering:auto;color:#000;dominant-baseline:auto;fill:#728dbe;font-feature-settings:normal;font-variant-alternates:normal;font-variant-caps:normal;font-variant-ligatures:normal;font-variant-numeric:normal;font-variant-position:normal;image-rendering:auto;isolation:auto;mix-blend-mode:normal;shape-padding:0;shape-rendering:auto;solid-color:#000;text-decoration-color:#000;text-decoration-line:none;text-decoration-style:solid;text-indent:0;text-orientation:mixed;text-transform:none;white-space:normal"/><path d="M104.79 28.455a83.99 83.99 0 0 0-2.28.016c-7.257.15-14.133 1.274-20.1 3.859-3.223 1.397-4.265 4.226-5.066 7.065-.8 2.838-1.22 6.194-1.459 10.018-.478 7.646-.158 17.114.46 26.439 1.233 18.65 2.065 26.925 2.065 26.925.467 3.419 4.753 4.683 7 2.064l22.594-31.649 47.384-15.438 17.877-5.959c3.529-1.176 3.683-6.11.235-7.504 0 0-15.195-6.148-33.992-10.75-11.014-2.696-23.264-5.014-34.72-5.086z" style="color-rendering:auto;color:#000;dominant-baseline:auto;fill:#9abeff;font-feature-settings:normal;font-variant-alternates:normal;font-variant-caps:normal;font-variant-ligatures:normal;font-variant-numeric:normal;font-variant-position:normal;image-rendering:auto;isolation:auto;mix-blend-mode:normal;shape-padding:0;shape-rendering:auto;solid-color:#000;text-decoration-color:#000;text-decoration-line:none;text-decoration-style:solid;text-indent:0;text-orientation:mixed;text-transform:none;white-space:normal"/></svg>