<svg xmlns="http://www.w3.org/2000/svg" viewBox="0 0 192 192"><title>Remote Fingerprint Unlock</title><rect x="19.5" y="19.5" width="153" height="153" rx="10" fill="#9abeff"/><path d="M100.41,103.7V98.52a3.71,3.71,0,0,0-7.41,0v4.68a22.75,22.75,0,0,1-5.85,15.24L82,124.22a1.18,1.18,0,1,0,1.76,1.58l5.2-5.78a25.11,25.11,0,0,0,6.46-16.82V98.52a1.34,1.34,0,0,1,2.68,0v5.18a27.75,27.75,0,0,1-7.24,18.72L85.74,128a1.18,1.18,0,0,0,.08,1.67,1.18,1.18,0,0,0,1.67-.08L92.56,124A30.14,30.14,0,0,0,100.41,103.7Z" fill="#56595b"/><path d="M105.46,98.52a8.75,8.75,0,0,0-17.5,0v4.68a17.72,17.72,0,0,1-4.56,11.87l-3.69,4.1a1.18,1.18,0,0,0,1.75,1.59l3.7-4.11a20.06,20.06,0,0,0,5.16-13.45V98.52a6.39,6.39,0,0,1,12.77,0v5.18a32.79,32.79,0,0,1-8.55,22.12l-4.27,4.7A1.18,1.18,0,1,0,92,132.11l4.27-4.7a35.18,35.18,0,0,0,9.17-23.71Z" fill="#56595b"/><path d="M110.5,98.52a13.8,13.8,0,0,0-27.59,0v4.68a12.67,12.67,0,0,1-3.26,8.49l-3.33,3.7a1.19,1.19,0,0,0,.09,1.67,1.18,1.18,0,0,0,1.67-.09l3.33-3.7a15,15,0,0,0,3.86-10.07V98.52a11.44,11.44,0,0,1,22.87,0v5.18a37.87,37.87,0,0,1-9.86,25.51l-1.19,1.3a1.18,1.18,0,0,0,.08,1.67,1.17,1.17,0,0,0,.8.31,1.16,1.16,0,0,0,.87-.39l1.19-1.3a40.21,40.21,0,0,0,10.47-27.1V98.52Z" fill="#56595b"/><path d="M77.86,98.52a1.19,1.19,0,1,0,2.37,0A16.51,16.51,0,0,1,94.35,82.21a1.17,1.17,0,0,0,1-1.33,1.19,1.19,0,0,0-1.34-1A18.9,18.9,0,0,0,77.86,98.52Z" fill="#56595b"/><path d="M80.23,103.2a1.19,1.19,0,0,0-2.37,0,7.63,7.63,0,0,1-2,5.12l-3,3.29a1.18,1.18,0,0,0,1.76,1.58l3-3.29A10,10,0,0,0,80.23,103.2Z" fill="#56595b"/><path d="M113.23,113.76a1.18,1.18,0,0,0-1.45.84,42.36,42.36,0,0,1-1.61,4.93,1.17,1.17,0,0,0,.66,1.53,1.12,1.12,0,0,0,.44.09,1.18,1.18,0,0,0,1.1-.75,45.11,45.11,0,0,0,1.7-5.2A1.17,1.17,0,0,0,113.23,113.76Z" fill="#56595b"/><path d="M109.29,84.51a1.18,1.18,0,0,0-1.58,1.76,16.49,16.49,0,0,1,5.47,12.25v5.18a42.85,42.85,0,0,1-.4,5.89,1.19,1.19,0,0,0,1,1.34H114a1.18,1.18,0,0,0,1.17-1,46.1,46.1,0,0,0,.43-6.22V98.52A18.87,18.87,0,0,0,109.29,84.51Z" fill="#56595b"/><path d="M103.76,83.64a1.34,1.34,0,0,0,.51.11,1.18,1.18,0,0,0,.51-2.25,18.91,18.91,0,0,0-5.38-1.63,1.19,1.19,0,0,0-1.34,1,1.17,1.17,0,0,0,1,1.33A16.5,16.5,0,0,1,103.76,83.64Z" fill="#56595b"/><path d="M96.71,74.64c-.45,0-.89,0-1.33,0A1.18,1.18,0,1,0,95.51,77c.39,0,.8,0,1.2,0a21.55,21.55,0,0,1,21.52,21.52v5.18a1.18,1.18,0,1,0,2.36,0V98.52A23.9,23.9,0,0,0,96.71,74.64Z" fill="#56595b"/><path d="M83.78,81.05a1.2,1.2,0,0,0,.67-.21,21.5,21.5,0,0,1,6.42-3,1.18,1.18,0,1,0-.64-2.27A23.69,23.69,0,0,0,83.1,78.9a1.18,1.18,0,0,0-.3,1.64A1.19,1.19,0,0,0,83.78,81.05Z" fill="#56595b"/><path d="M75.18,103.2V98.52a21.44,21.44,0,0,1,5.87-14.75,1.18,1.18,0,1,0-1.72-1.62,23.77,23.77,0,0,0-6.51,16.37v4.68a2.61,2.61,0,0,1-.67,1.74l-1.46,1.62a1.18,1.18,0,0,0,.88,2,1.16,1.16,0,0,0,.88-.39l1.46-1.62A5,5,0,0,0,75.18,103.2Z" fill="#56595b"/><path d="M124.14,89.32A28.72,28.72,0,0,0,118,79a1.18,1.18,0,1,0-1.74,1.6,26.34,26.34,0,0,1,5.62,9.5,1.2,1.2,0,0,0,1.12.81,1,1,0,0,0,.38-.07A1.19,1.19,0,0,0,124.14,89.32Z" fill="#56595b"/><path d="M106.05,71.14a1.18,1.18,0,0,0-.76,2.24,26.41,26.41,0,0,1,7.27,3.84,1.16,1.16,0,0,0,.71.23,1.18,1.18,0,0,0,.71-2.13A29,29,0,0,0,106.05,71.14Z" fill="#56595b"/><path d="M78.33,79.35A26.44,26.44,0,0,1,96.71,72a26.91,26.91,0,0,1,3.81.27,1.18,1.18,0,1,0,.34-2.34A29,29,0,0,0,67.8,97.21a1.18,1.18,0,0,0,1.13,1.23H69a1.19,1.19,0,0,0,1.18-1.13A26.42,26.42,0,0,1,78.33,79.35Z" fill="#56595b"/><path d="M96.71,64.55a33.81,33.81,0,0,0-7.84.91,1.18,1.18,0,0,0,.55,2.3,31.73,31.73,0,0,1,7.29-.85,31.36,31.36,0,0,1,22.79,9.73,1.17,1.17,0,0,0,.85.36,1.18,1.18,0,0,0,.85-2A33.87,33.87,0,0,0,96.71,64.55Z" fill="#56595b"/><path d="M70.14,79.27a1.19,1.19,0,0,0,.73.25,1.16,1.16,0,0,0,.93-.45,31.84,31.84,0,0,1,12.83-9.76,1.18,1.18,0,0,0-.9-2.19A34.23,34.23,0,0,0,69.94,77.61,1.19,1.19,0,0,0,70.14,79.27Z" fill="#56595b"/><path d="M80.31,65.61a1.16,1.16,0,0,0,.51-.12,36.18,36.18,0,0,1,15.89-3.62,36.79,36.79,0,0,1,8.57,1,1.18,1.18,0,1,0,.56-2.3,39.05,39.05,0,0,0-26,2.78,1.18,1.18,0,0,0,.52,2.25Z" fill="#56595b"/><path d="M110.23,64.45a35.09,35.09,0,0,1,3.58,1.66,1.23,1.23,0,0,0,.55.13,1.18,1.18,0,0,0,.56-2.22,38.84,38.84,0,0,0-3.82-1.77,1.18,1.18,0,1,0-.87,2.2Z" fill="#56595b"/></svg>