<?xml version="1.0" encoding="UTF-8"?>
<svg version="1.1" viewBox="0 0 192 192" xml:space="preserve" xmlns="http://www.w3.org/2000/svg"><defs><style>.a{fill:none;stroke:#b1b5bd;stroke-linecap:round;stroke-linejoin:round;isolation:isolate;opacity:0.63;}</style></defs>
	 <rect class="a" x="20" y="20" width="152" height="152" rx="10" fill="#728dbe"/><path d="m72.65 57.019h22.13a5 5 45 0 1 5 5v20.987h-27.13a5 5 45 0 1-5-5v-15.987a5 5 135 0 1 5-5z" fill="#f8c18c" stroke-linecap="round" stroke-linejoin="round" stroke-width="6"/><path d="m99.78 83.006h27.13a5 5 45 0 1 5 5v15.987a5 5 135 0 1-5 5h-27.13z" fill="#f8c18c" stroke-linecap="round" stroke-linejoin="round" stroke-width="6"/><path d="m72.65 108.99h27.13v20.987a5 5 135 0 1-5 5h-22.13a5 5 45 0 1-5-5v-15.987a5 5 135 0 1 5-5z" fill="#f8c18c" stroke-linecap="round" stroke-linejoin="round" stroke-width="6"/></svg>
