<svg xmlns="http://www.w3.org/2000/svg" viewBox="0 0 153 153"><title>Retro Bowl</title><rect width="153" height="153" rx="10" fill="#98dc9a"/><path d="M93.72,59.5h13.69M89.16,64.06h4.56m4.56,0H112M89.16,68.62h9.12m-9.12,4.57h9.12m-4.56,4.56h4.56M75.47,82.31h9.12m22.82,0h9.12M89.16,105.12h18.25m-18.25,4.57H112m-18.25,4.56h4.56m4.56,0H112m-18.25,4.56h4.56m4.56,0H112M89.16,132.5h9.12m4.56,0h13.69" transform="translate(-19.5 -19)"/><path d="M116.53,134.78H102.84v-4.56h13.69Zm-18.25,0H89.16v-4.56h9.12ZM112,121.09h-9.13V112H98.28v9.12H93.72V112H89.16v-9.13h18.25v4.57H112Zm4.56-36.5h-9.12V80h9.12Zm-31.94,0H75.47V80h9.12ZM98.28,80H93.72V75.47H89.16V61.78h4.56v4.56h4.56ZM112,66.34H98.28V61.78H93.72V57.22h13.69v4.56H112Z" transform="translate(-19.5 -19)" fill="#fff"/><path d="M93.72,64.06h4.56M80,77.75H93.72m-9.13,4.56H98.28m4.56,0h4.57M84.59,86.88h9.13M107.41,96H112m-27.38,4.56H98.28m4.56,0h4.57m-22.82,4.56h4.57m-4.57,4.57h4.57m0,4.56h4.56m-4.56,4.56h4.56m-4.56,4.57h9.12m4.56,0H112m-22.81,4.56h9.12m4.56,0H112" transform="translate(-19.5 -19)"/><path d="M112,130.22h-9.13v-9.13H112Zm-13.69,0H89.16V112H84.59V98.28H98.28v4.56H89.16V112h4.56v9.12h4.56Zm9.13-27.38h-4.57V98.28h4.57ZM112,98.28h-4.56V93.72H112ZM93.72,89.16H84.59V80H80V75.47H93.72V80h4.56v4.56H93.72Zm13.69-4.57h-4.57V80h4.57ZM98.28,66.34H93.72V61.78h4.56Z" transform="translate(-19.5 -19)" fill="#f8c18c"/><path d="M98.28,68.62h9.13m-4.57,4.57h4.57m-9.13,4.56h4.56M75.47,86.88h9.12m9.13,0h9.12m4.57,0h9.12M75.47,91.44h27.37m4.57,0h9.12M80,96H98.28" transform="translate(-19.5 -19)" fill="#d4c5b7"/><path d="M98.28,98.28H80V93.72H75.47V84.59h9.12v4.57h9.13V84.59h9.12v9.13H98.28Zm18.25-4.56h-9.12V84.59h9.12ZM102.84,80H98.28V75.47h4.56Zm4.57-4.56h-4.57V70.91H98.28V66.34h9.13Z" transform="translate(-19.5 -19)" fill="#d4c5b7"/><path d="M98.28,73.19h4.56m0,4.56H112" transform="translate(-19.5 -19)"/><polygon points="92.47 61.03 83.34 61.03 83.34 56.47 78.78 56.47 78.78 51.91 83.34 51.91 83.34 56.47 92.47 56.47 92.47 61.03" fill="#a0a5af"/><path d="M98.28,82.31h4.56m0,4.57h4.57m-4.57,4.56h4.57M98.28,96h9.13m-9.13,4.56h4.56" transform="translate(-19.5 -19)"/><polygon points="83.34 83.84 78.78 83.84 78.78 74.72 83.34 74.72 83.34 65.59 78.78 65.59 78.78 61.03 83.34 61.03 83.34 65.59 87.91 65.59 87.91 79.28 83.34 79.28 83.34 83.84" fill="#ba6561"/></svg>