<svg xmlns="http://www.w3.org/2000/svg" viewBox="0 0 192 192"><title>Reverb</title><circle cx="96" cy="96" r="88" fill="#f8c18c"/><path d="M132.11,122.4a3.87,3.87,0,0,0,.33-.64.36.36,0,0,0,0-.11,2.51,2.51,0,0,0,0-.67,3.37,3.37,0,0,0-.26-1,1.48,1.48,0,0,0-.17-.33c-.12-.15-.19-.2-.19-.21s0,0-.06-.06a1,1,0,0,0-.23-.12,2.55,2.55,0,0,0-.86-.23h0c-.22.09-.46.12-.69.19s-.45.13-.75.22a16.39,16.39,0,0,1-5,.83c-2.51,0-4.82-1.67-6.91-5.23a34.81,34.81,0,0,1-3.35-8.37c-1.26-4.4-2.93-6.28-4.19-7.33l-.41-.42c-.63-.63-1.26-1.26-.84-1.67a9,9,0,0,1,2.09-1.05,43,43,0,0,0,11.1-6.07c4.6-3.77,7.11-8.58,7.11-13.82A12.09,12.09,0,0,0,126.73,69a14.51,14.51,0,0,0-6.28-4.6,41.76,41.76,0,0,0-13.82-2.09c-3.35,0-14.65.21-25.54,3.76C67.28,71.51,60.16,79,59.53,89.51a10,10,0,0,0,2.3,7.54c1.68,1.88,4.19,2.72,7.54,2.72a13.81,13.81,0,0,0,9.63-4,8.42,8.42,0,0,0,2.51-4.6v-.42l-.42.21a14.16,14.16,0,0,1-2.72.41,4.06,4.06,0,0,1-4-2.3,9.6,9.6,0,0,1-.83-3.77c0-4.18,2.93-8.79,7.74-12.35a28.15,28.15,0,0,1,15.49-5.65,38.18,38.18,0,0,0-4.18,8c-1.47,4.18-12.56,41.86-14.45,50-.62,2.93-.21,4,0,4.39.21-.21.42,0,1.26,0h5a17,17,0,0,0,5.45-.62c.83-.42,1-.63,1-.84a70.52,70.52,0,0,1,1.89-11.72c.42-2.31,1.46-5.66,2.3-8.8.84-2.93,1.67-5.86,1.88-7.32a1.88,1.88,0,0,1,1.89-1.68,4.39,4.39,0,0,1,2.72,1.47c1.46,1.88,2.93,5,2.72,10.25-.21,4.19,0,11.52,3.77,15.71a10.27,10.27,0,0,0,7.54,2.93h.2a24.81,24.81,0,0,0,11.1-3.14c2.46-1.24,4.38-2.41,5-3.3C132,122.55,132.06,122.49,132.11,122.4ZM99.93,95.58h-1a1.09,1.09,0,0,1-.84-.42c-.42-.63-.21-1.67.84-4.6a13.38,13.38,0,0,0,.42-1.47c4.18-13.81,7.11-20.3,7.53-20.93a3.24,3.24,0,0,1,1.47-1.47.21.21,0,0,0,.21-.21.77.77,0,0,1,.63-.21,8.53,8.53,0,0,1,5,2.93,9.82,9.82,0,0,1,2.3,7.75,28.13,28.13,0,0,1-2.93,10.26,18.21,18.21,0,0,1-4.81,5.65A14.69,14.69,0,0,1,99.93,95.58Z" fill="#fff"/></svg>