<svg xmlns="http://www.w3.org/2000/svg" xmlns:xlink="http://www.w3.org/1999/xlink" viewBox="0 0 176 176"><title>RIA News</title><defs><clipPath id="a" transform="translate(-8 -8)"><circle cx="96" cy="96" r="88" fill="none"/></clipPath></defs><g clip-path="url(#a)"><circle cx="88" cy="88" r="88" fill="#fff"/><path d="M107.24,29.51a35,35,0,0,1,5.09-15.75c.83-1.32,1.65-2.46,2.47-3.78A87.84,87.84,0,0,1,136,17.53a24.77,24.77,0,0,0-4.76,11,25,25,0,0,0,1.47,13A30.67,30.67,0,0,0,140.25,52,44.45,44.45,0,0,0,150.59,59a65.11,65.11,0,0,0,23.32,6.39,47.58,47.58,0,0,0,4.92.17c.33,1,.82,2.13,1.15,3.28a86,86,0,0,1-9.19.66A94.09,94.09,0,0,1,137,64.61c-10.67-3.93-20.52-10.33-25.77-19.68a25.57,25.57,0,0,1-3.94-15.42Zm59,78.25c-18.72-1-37.44-4.92-54.52-13a98,98,0,0,1-24-15.42C80.48,73,74.25,65.27,70.47,56.25a52.43,52.43,0,0,1-3.78-28.71,57.77,57.77,0,0,1,4.93-15.91A84.94,84.94,0,0,0,43.05,25.9c-.17,1.31-.33,2.78-.5,4.1a56,56,0,0,0,6.57,30.84C54,70.19,61.6,78.39,70.14,85a118.47,118.47,0,0,0,28.57,15.75c20.52,8,42.85,11.31,65,11.15a187.67,187.67,0,0,0,19.21-1.15c.16-1,.33-2,.49-3.12A121,121,0,0,1,166.19,107.76ZM95.26,70.19a90.79,90.79,0,0,0,21.67,12.14,130.36,130.36,0,0,0,49.59,8.37,153.9,153.9,0,0,0,17.4-1.15,3.27,3.27,0,0,0-.16-1.31c0-.5-.17-1-.17-1.48q-6.65.26-13.3,0a107.5,107.5,0,0,1-38.91-9.52,77.14,77.14,0,0,1-17.07-11,52.42,52.42,0,0,1-12.65-16.57,36.31,36.31,0,0,1-3-20.83,42.18,42.18,0,0,1,7.88-18.7,7.9,7.9,0,0,1,1-1.15,83.45,83.45,0,0,0-19.21-.66c-2.62.17-5.08.66-7.55,1a50.91,50.91,0,0,0-5.75,19.19,41,41,0,0,0,4.6,23.3A50.79,50.79,0,0,0,95.26,70.19Zm68.14,58.89c-24-1-47.94-5.9-69.94-15.74a126.08,126.08,0,0,1-30.87-19.2c-9.36-7.87-17.41-17.39-22.66-28.7A66.57,66.57,0,0,1,33.69,34.1a87.95,87.95,0,1,0,144,95Q170.55,129.33,163.4,129.08ZM141.89,20.81h0a18.46,18.46,0,0,0-2.3,8.53,13.21,13.21,0,0,0,2.3,7.55c3,4.59,8.2,7.71,14,9.52a47.54,47.54,0,0,0,14.45,2A93,93,0,0,0,141.89,20.81Z" transform="translate(-8 -8)" fill="#9abeff"/></g></svg>