<?xml version="1.0" encoding="UTF-8" standalone="no"?>
<svg
   xmlns:dc="http://purl.org/dc/elements/1.1/"
   xmlns:cc="http://creativecommons.org/ns#"
   xmlns:rdf="http://www.w3.org/1999/02/22-rdf-syntax-ns#"
   xmlns:svg="http://www.w3.org/2000/svg"
   xmlns="http://www.w3.org/2000/svg"
   xmlns:sodipodi="http://sodipodi.sourceforge.net/DTD/sodipodi-0.dtd"
   xmlns:inkscape="http://www.inkscape.org/namespaces/inkscape"
   sodipodi:docname="ring.svg"
   inkscape:version="1.0.1 (3bc2e813f5, 2020-09-07)"
   version="1.1"
   id="svg2"
   viewBox="0 0 192 192"
   height="192"
   width="192"
   inkscape:export-filename="/home/jphilippe/inkscape/icônes/delta-github/png/ring.png"
   inkscape:export-xdpi="96"
   inkscape:export-ydpi="96">
  <sodipodi:namedview
     inkscape:document-rotation="0"
     inkscape:window-maximized="1"
     inkscape:window-y="0"
     inkscape:window-x="36"
     inkscape:window-height="1052"
     inkscape:window-width="1884"
     units="px"
     showgrid="false"
     inkscape:current-layer="layer1"
     inkscape:document-units="px"
     inkscape:cy="149.62779"
     inkscape:cx="384.40973"
     inkscape:zoom="0.99999999"
     inkscape:pageshadow="2"
     inkscape:pageopacity="0.0"
     borderopacity="1.0"
     bordercolor="#666666"
     pagecolor="#ffffff"
     id="base"
     inkscape:snap-bbox="false"
     inkscape:object-paths="true"
     inkscape:snap-nodes="true"
     showguides="true"
     inkscape:guide-bbox="true"
     inkscape:snap-object-midpoints="true"
     inkscape:snap-center="true" />
  <defs
     id="defs4">
    <inkscape:path-effect
       effect="fillet_chamfer"
       id="path-effect963"
       is_visible="true"
       lpeversion="1"
       satellites_param="F,0,1,1,0,2,0,1 @ F,0,1,1,0,2,0,1 @ F,0,0,1,0,0,0,1 @ F,0,1,1,0,2,0,1 @ F,0,1,1,0,2,0,1 @ F,0,0,1,0,0,0,1"
       unit="px"
       method="auto"
       mode="F"
       radius="2"
       chamfer_steps="1"
       flexible="false"
       use_knot_distance="true"
       apply_no_radius="true"
       apply_with_radius="true"
       only_selected="true"
       hide_knots="false" />
  </defs>
  <metadata
     id="metadata7">
    <rdf:RDF>
      <cc:Work
         rdf:about="">
        <dc:format>image/svg+xml</dc:format>
        <dc:type
           rdf:resource="http://purl.org/dc/dcmitype/StillImage" />
        <dc:title></dc:title>
      </cc:Work>
    </rdf:RDF>
  </metadata>
  <g
     transform="translate(0,-860.36216)"
     id="layer1"
     inkscape:groupmode="layer"
     inkscape:label="Calque 1">
    <circle
       style="fill:#9abefe;fill-opacity:1;fill-rule:evenodd;stroke:none;stroke-opacity:1"
       cx="96"
       cy="956.36218"
       r="88"
       id="circle911" />
    <g
       id="g925"
       transform="matrix(0.12166606,0,0,0.12166606,22.626021,843.27004)">
      <g
         fill="#535556"
         id="g877"
         transform="translate(303.07448,741.70486)"
         style="fill:#fefefe;fill-opacity:1">
        <path
           d="m 124.55,98.838 c 0.0125,3.2037 -1.3028,6.2694 -3.6334,8.4676 -2.3436,2.3491 -5.551,3.6298 -8.8679,3.541 -3.1808,-0.095 -6.2071,-1.3935 -8.4676,-3.6334 -8.8894,-8.8894 -23.495,-12.453 -33.039,-12.409 -14.513,0 -25.864,4.9678 -34.055,14.903 -8.1906,9.9352 -12.296,24.038 -12.316,42.308 v 131.08 c 0.2516,3.4639 -1.1673,6.8394 -3.8181,9.0833 -2.3136,1.9468 -5.2286,3.0345 -8.2522,3.0791 -3.0233,-0.0446 -5.9384,-1.1323 -8.2522,-3.0791 -2.655,-2.2409 -4.0747,-5.6186 -3.8181,-9.0833 v -131.08 c -0.0815,-10.701 1.4125,-21.356 4.4337,-31.622 2.7347,-9.3664 7.251,-18.117 13.302,-25.772 5.9085,-7.4468 13.41,-13.475 21.954,-17.643 9.6321,-4.4851 20.169,-6.6871 30.791,-6.4354 9.1079,0.15704 18.115,1.9294 26.604,5.2346 8.7447,3.0926 16.717,8.0398 23.37,14.503 2.4738,2.1733 3.9439,5.2694 4.0645,8.5598 z"
           id="path869"
           style="fill:#fefefe;fill-opacity:1" />
        <path
           d="m 184.96,283.09 a 10.869,10.869 0 0 1 -3.818,9.0833 12.778,12.778 0 0 1 -16.535,0 10.838,10.838 0 0 1 -3.8181,-9.0833 V 86.74 a 10.869,10.869 0 0 1 3.8181,-9.0833 12.809,12.809 0 0 1 16.535,0 10.9,10.9 0 0 1 3.818,9.0833 z"
           id="path871"
           style="fill:#fefefe;fill-opacity:1" />
        <path
           d="m 394.54,283.09 a 10.869,10.869 0 0 1 -3.849,9.0833 12.778,12.778 0 0 1 -16.504,0 10.838,10.838 0 0 1 -3.8181,-9.0833 V 149.21 a 52.962,52.962 0 0 0 -4.2493,-21.154 54.716,54.716 0 0 0 -29.005,-29.005 55.022,55.022 0 0 0 -42.308,0 54.746,54.746 0 0 0 -29.005,29.005 53.178,53.178 0 0 0 -4.2183,21.154 v 133.88 a 10.838,10.838 0 0 1 -3.8181,9.0833 12.778,12.778 0 0 1 -16.535,0 10.838,10.838 0 0 1 -3.8181,-9.0833 V 149.21 a 76.456,76.456 0 0 1 6.1583,-30.637 79.071,79.071 0 0 1 16.719,-25.002 80.058,80.058 0 0 1 24.633,-16.719 78.731,78.731 0 0 1 61.583,0 77.287,77.287 0 0 1 41.692,41.692 76.637,76.637 0 0 1 6.1583,30.637 z"
           id="path873"
           style="fill:#fefefe;fill-opacity:1" />
        <path
           d="m 600,297.19 c 0.10583,10.58 -1.9911,21.066 -6.1583,30.791 -7.9544,18.774 -22.957,33.677 -41.782,41.507 -9.6816,4.1333 -20.11,6.2298 -30.637,6.1583 -5.9565,-0.034 -11.896,-0.64067 -17.736,-1.8167 -6.3174,-1.2254 -12.504,-3.0503 -18.475,-5.45 -5.9879,-2.3834 -11.664,-5.4852 -16.904,-9.2371 -4.9708,-3.5016 -9.2685,-7.8723 -12.686,-12.901 -1.379,-2.0184 -2.08,-4.4232 -2.0014,-6.8662 -0.0873,-3.3104 1.3136,-6.4856 3.8181,-8.6524 2.3374,-2.213 5.4334,-3.4471 8.6524,-3.4486 1.7216,0.0246 3.4239,0.36782 5.0188,1.0161 1.9708,0.85772 3.6046,2.34 4.6496,4.2183 4.7886,7.2113 15.123,12.919 21.954,15.118 7.6013,2.5107 15.55,3.8098 23.555,3.849 7.268,0.0484 14.468,-1.398 21.154,-4.2493 13.064,-5.5415 23.464,-15.941 29.005,-29.005 2.8917,-6.6349 4.3903,-13.793 4.4031,-21.03 v -27.712 c -7.135,6.8103 -15.493,12.212 -24.633,15.919 -9.4499,3.9042 -19.581,5.8926 -29.806,5.8503 -10.58,0.10877 -21.067,-1.9886 -30.791,-6.1583 -18.687,-7.9408 -33.565,-22.82 -41.507,-41.507 -4.1733,-9.7232 -6.2706,-20.211 -6.1583,-30.791 v -63.583 c -0.0786,-10.527 2.018,-20.958 6.1583,-30.637 3.9175,-9.3297 9.5939,-17.818 16.719,-25.002 7.0934,-7.0643 15.449,-12.735 24.633,-16.719 19.676,-8.361 41.907,-8.361 61.583,0 18.862,7.8391 33.852,22.829 41.692,41.692 4.1352,9.6812 6.2313,20.11 6.1583,30.637 v 148.01 z M 575.829,149.21 c 0.0503,-7.268 -1.3962,-14.469 -4.2493,-21.154 -5.5415,-13.064 -15.941,-23.464 -29.005,-29.005 -13.539,-5.6383 -28.768,-5.6383 -42.308,0 -13.101,5.5132 -23.546,15.903 -29.128,28.974 -2.8314,6.6905 -4.2671,13.889 -4.2183,21.154 v 63.277 c -0.0707,7.3168 1.3654,14.57 4.2183,21.307 2.752,6.4754 6.7245,12.361 11.701,17.335 4.9682,4.9761 10.856,8.9393 17.335,11.67 13.539,5.6383 28.768,5.6383 42.308,0 13.064,-5.5415 23.464,-15.941 29.005,-29.005 2.9062,-6.7253 4.3846,-13.981 4.3415,-21.307 z"
           id="path875"
           style="fill:#fefefe;fill-opacity:1" />
      </g>
      <circle
         cx="475.96448"
         cy="762.36584"
         r="20.660999"
         fill="#1c9ad6"
         id="circle879"
         style="fill:#f8c28d;fill-opacity:1" />
    </g>
  </g>
  <style
     type="text/css"
     id="style853">
	.st0{fill:#FFFFFF;}
</style>
</svg>
