<?xml version="1.0" encoding="UTF-8" standalone="no"?>
<!DOCTYPE svg PUBLIC "-//W3C//DTD SVG 1.1//EN" "http://www.w3.org/Graphics/SVG/1.1/DTD/svg11.dtd">
<svg width="100%" height="100%" viewBox="0 0 192 192" version="1.1" xmlns="http://www.w3.org/2000/svg" xmlns:xlink="http://www.w3.org/1999/xlink" xml:space="preserve" xmlns:serif="http://www.serif.com/" style="fill-rule:evenodd;clip-rule:evenodd;stroke-linejoin:round;stroke-miterlimit:2;">
    <g transform="matrix(1,0,0,1,8,8)">
        <path d="M164.5,21.5C164.5,15.981 160.019,11.5 154.5,11.5L21.5,11.5C15.981,11.5 11.5,15.981 11.5,21.5L11.5,154.5C11.5,160.019 15.981,164.5 21.5,164.5L154.5,164.5C160.019,164.5 164.5,160.019 164.5,154.5L164.5,21.5Z" style="fill:rgb(114,141,190);"/>
    </g>
    <g transform="matrix(0.674375,0,0,0.674375,30.8173,31.5459)">
        <path d="M68.635,130.335C68.635,130.335 61.821,147.78 74.496,142.329C87.171,136.877 86.626,137.286 90.987,117.115C94.667,91.22 107.887,95.717 106.252,122.43C105.161,153.914 137.536,143.591 139.779,133.606C140.712,126.907 125.522,143.919 126.22,114.908C126.161,112.164 126.957,101.967 116.61,97.898C131.144,90.543 134.859,93.092 142.227,78.565C160.715,42.113 59.305,32.773 49.672,78.272C41.682,116.012 94.531,93.128 64.41,78.545C52.708,72.879 84.414,55.206 90.851,57.045C92.759,57.591 68.635,130.335 68.635,130.335ZM98.155,89.566C98.084,90.949 98.651,92.289 99.693,93.201C100.735,94.113 102.137,94.498 103.499,94.244C106.119,93.86 109.267,92.797 112.134,90.536C119.728,84.548 131.859,59.546 113.611,55.546C108.205,54.361 100.065,78.503 98.155,89.566Z" style="fill:white;"/>
        <g transform="matrix(1.52419,5.61414e-17,-5.61414e-17,-1.06576,-26.3673,217.647)">
            <path d="M67.873,87.321C67.873,87.321 59.22,99.237 59.22,111.022C59.22,117.852 63.097,123.397 67.873,123.397C72.648,123.397 76.526,117.852 76.526,111.022C76.526,99.237 67.873,87.321 67.873,87.321Z" style="fill:rgb(249,222,129);"/>
        </g>
        <g transform="matrix(1,0,0,1,0.689084,0.545164)">
            <circle cx="76.395" cy="98.966" r="4.47" style="fill:rgb(195,154,84);"/>
        </g>
    </g>
</svg>
