<svg xmlns="http://www.w3.org/2000/svg" xmlns:xlink="http://www.w3.org/1999/xlink" viewBox="0 0 192 192"><defs><mask id="a" x="-57.93" y="46.48" width="202.23" height="98.6" maskUnits="userSpaceOnUse"><polygon points="-57.93 145.08 144.3 145.08 144.3 46.48 -57.93 46.48 -57.93 145.08" style="fill:#fff;fill-rule:evenodd"/></mask></defs><title>Russian Post</title><rect x="19.5" y="19.5" width="153" height="153" rx="10" transform="translate(192 192) rotate(180)" style="fill:#9abeff"/><path d="M74.11,100.19c-1.75,0-3.13,1-4.12,3a17.09,17.09,0,0,0-1.47,7.65,18.2,18.2,0,0,0,1.4,7.8c1,2,2.36,3,4.18,3s3.33-1,4.37-3.1a17.23,17.23,0,0,0,1.47-7.69,16.57,16.57,0,0,0-1.52-7.64A4.77,4.77,0,0,0,74.11,100.19Zm1.88,16c-.43,1.34-1.07,2-1.89,2s-1.4-.7-1.83-2.06a21.78,21.78,0,0,1,0-10.72c.43-1.32,1-2,1.85-2s1.56.66,2,2a18.35,18.35,0,0,1,.58,5.28A18.06,18.06,0,0,1,76,116.23Z" style="fill:#fff;fill-rule:evenodd"/><path d="M60.45,100.71H57v20.44H60.3v-5.94a2.9,2.9,0,0,0,4.78-.85,11.48,11.48,0,0,0,1.18-5.77,10.94,10.94,0,0,0-1-4.67A5,5,0,0,0,60.45,100.71Zm2,11.15c-.26.53-.57.79-.91.79s-.62-.23-.86-.69a4.84,4.84,0,0,1-.39-2.17v-6h.14a2,2,0,0,1,1.77,1.32,10.5,10.5,0,0,1,.68,4.36A5.54,5.54,0,0,1,62.46,111.86Z" style="fill:#fff;fill-rule:evenodd"/><path d="M87.51,116.1a9.29,9.29,0,0,1-.07-10.26,5.73,5.73,0,0,1,4.77-2.08h.16v-3.57h-.16c-3.24,0-5.74,1-7.43,3.1A11.78,11.78,0,0,0,82.46,111,11.46,11.46,0,0,0,85,118.68a9.11,9.11,0,0,0,7.28,3.1h.16V118.2h-.16A5.77,5.77,0,0,1,87.51,116.1Z" style="fill:#fff;fill-rule:evenodd"/><polygon points="133.86 99.98 126.49 107.89 126.49 100.68 123.27 100.68 123.27 121.16 126.49 121.16 126.49 112.75 131.16 107.66 131.63 121.16 134.91 121.16 134.12 99.7 133.86 99.98" style="fill:#fff;fill-rule:evenodd"/><polygon points="118.49 99.98 111.13 107.89 111.13 100.68 107.91 100.68 107.91 121.16 111.13 121.16 111.13 112.75 115.8 107.66 116.27 121.16 119.55 121.16 118.75 99.7 118.49 99.98" style="fill:#fff;fill-rule:evenodd"/><path d="M99.86,116.1a9.29,9.29,0,0,1-.07-10.26,5.72,5.72,0,0,1,4.77-2.08h.16v-3.57h-.16c-3.24,0-5.74,1-7.44,3.1A11.78,11.78,0,0,0,94.8,111a11.46,11.46,0,0,0,2.52,7.68,9.14,9.14,0,0,0,7.28,3.1h.16V118.2h-.16A5.75,5.75,0,0,1,99.86,116.1Z" style="fill:#fff;fill-rule:evenodd"/><g style="mask:url(#a)"><path d="M125.25,78.29c0-.44.09-3.5.1-3.91h.74c2.86,0,3.34.51,3.61,3.91Zm8.14-1.7c-.45-3.81-2.22-5.79-6.42-5.79h-5.33l-.72,21.51h3.88s.36-10,.38-10.45h4.91c0,.44.78,10.45.78,10.45h4s-1.39-14.78-1.5-15.72Z" style="fill:#fff;fill-rule:evenodd"/></g><g style="mask:url(#a)"><polygon points="57.06 70.8 57.06 92.3 60.99 92.3 60.99 74.38 65.86 74.38 65.86 92.3 69.8 92.3 69.8 70.8 57.06 70.8" style="fill:#fff;fill-rule:evenodd"/></g><g style="mask:url(#a)"><path d="M98.62,78.29H96.48a2.77,2.77,0,0,1-2-.6,1.52,1.52,0,0,1-.43-1.15V70.8H90.15v6.14A4.52,4.52,0,0,0,91.8,80.5a5.84,5.84,0,0,0,4,1.42h2.87V92.3h3.93V70.8H98.62v7.49" style="fill:#fff;fill-rule:evenodd"/></g><g style="mask:url(#a)"><polygon points="106.91 70.8 106.91 74.38 110.17 74.38 110.17 92.3 110.22 92.3 114.1 92.3 114.15 92.3 114.15 74.38 117.41 74.38 117.41 70.8 106.91 70.8" style="fill:#fff;fill-rule:evenodd"/></g><g style="mask:url(#a)"><path d="M77.41,81.59h0c0-5.82,1.46-7.74,3-7.76s2.93,1.94,3,7.76h0c0,5.68-1.47,7.62-3,7.65s-2.94-2-3-7.65m9.85-.8A15.53,15.53,0,0,0,85.85,74a5.86,5.86,0,0,0-5.43-3.7h-.09A5.86,5.86,0,0,0,74.9,74a15.67,15.67,0,0,0-1.41,6.84v.7h0a20.66,20.66,0,0,0,.62,5.27c1.08,4.4,3.58,6,6.18,6h.18c2.6,0,5.09-1.61,6.17-6a20.64,20.64,0,0,0,.63-5.27h0v-.7" style="fill:#fff;fill-rule:evenodd"/></g></svg>