<svg xmlns="http://www.w3.org/2000/svg" xml:space="preserve" style="fill-rule:evenodd;clip-rule:evenodd;stroke-linejoin:round;stroke-miterlimit:2" viewBox="0 0 192 192"><path d="M164.5 21.5c0-5.519-4.481-10-10-10h-133c-5.519 0-10 4.481-10 10v133c0 5.519 4.481 10 10 10h133c5.519 0 10-4.481 10-10v-133Z" style="fill:#ababff" transform="translate(8 8)"/><circle cx="44.598" cy="103.786" r="4.867" style="fill:#fff" transform="matrix(.73826 0 0 .73826 27.122 27.286)"/><path d="M69.131 123.92c-9.198 0-16.666-7.468-16.666-16.667 0-9.199 7.468-16.667 16.666-16.667.291 0 .58.008.866.022 1.391-15.58 14.498-27.812 30.439-27.812 15.933 0 29.035 12.219 30.438 27.791l.124-.001c9.199 0 16.667 7.468 16.667 16.667 0 9.199-7.468 16.667-16.667 16.667H69.131Zm19.758-28.352a3.514 3.514 0 0 1 0-4.966 3.514 3.514 0 0 1 4.966 0l13.466 13.466-13.482 13.482a3.514 3.514 0 0 1-4.95-.016 3.514 3.514 0 0 1 0-4.966l8.501-8.5-8.501-8.5Zm-25.491 3.633a4.87 4.87 0 0 1 4.867 4.867 4.87 4.87 0 0 1-4.867 4.867 4.87 4.87 0 0 1-4.867-4.867 4.87 4.87 0 0 1 4.867-4.867Zm15.867 0a4.869 4.869 0 0 1 4.866 4.867 4.869 4.869 0 0 1-4.866 4.867 4.87 4.87 0 0 1-4.867-4.867 4.87 4.87 0 0 1 4.867-4.867Z" style="fill:#fff" transform="matrix(.73826 0 0 .73826 26.532 27.078)"/></svg>