<?xml version="1.0" encoding="UTF-8" standalone="no"?>
<svg
   width="192"
   height="192"
   version="1.1"
   viewBox="0 0 192 192"
   id="svg32"
   sodipodi:docname="samsung_shop.svg"
   inkscape:version="1.2 (dc2aedaf03, 2022-05-15)"
   inkscape:export-filename="/home/jphilippe/github/delta/android/contributed-vectors/samsung_shop.png"
   inkscape:export-xdpi="96"
   inkscape:export-ydpi="96"
   xmlns:inkscape="http://www.inkscape.org/namespaces/inkscape"
   xmlns:sodipodi="http://sodipodi.sourceforge.net/DTD/sodipodi-0.dtd"
   xmlns="http://www.w3.org/2000/svg"
   xmlns:svg="http://www.w3.org/2000/svg"
   xmlns:rdf="http://www.w3.org/1999/02/22-rdf-syntax-ns#"
   xmlns:cc="http://creativecommons.org/ns#"
   xmlns:dc="http://purl.org/dc/elements/1.1/">
  <metadata
     id="metadata38">
    <rdf:RDF>
      <cc:Work
         rdf:about="">
        <dc:format>image/svg+xml</dc:format>
        <dc:type
           rdf:resource="http://purl.org/dc/dcmitype/StillImage" />
      </cc:Work>
    </rdf:RDF>
  </metadata>
  <defs
     id="defs36" />
  <sodipodi:namedview
     pagecolor="#ffffff"
     bordercolor="#666666"
     borderopacity="1"
     objecttolerance="10"
     gridtolerance="10"
     guidetolerance="10"
     inkscape:pageopacity="0"
     inkscape:pageshadow="2"
     inkscape:window-width="1680"
     inkscape:window-height="1022"
     id="namedview34"
     showgrid="false"
     inkscape:zoom="1.6848958"
     inkscape:cx="145.11283"
     inkscape:cy="163.80835"
     inkscape:window-x="1920"
     inkscape:window-y="0"
     inkscape:window-maximized="1"
     inkscape:current-layer="svg32"
     inkscape:showpageshadow="0"
     inkscape:pagecheckerboard="0"
     inkscape:deskcolor="#d1d1d1" />
  <rect
     x="20"
     y="20"
     width="152"
     height="152"
     rx="9.9346"
     fill="#9abeff"
     stroke-width="0"
     id="rect4"
     style="fill:#708cbd;fill-opacity:1" />
  <text
     xml:space="preserve"
     style="font-weight:bold;font-size:40.8581px;line-height:1.25;font-family:Now;-inkscape-font-specification:'Now Bold';letter-spacing:0px;word-spacing:0px;stroke-width:0.999998;fill:#ffffff;"
     x="45.182831"
     y="107.33812"
     id="text904"><tspan
       sodipodi:role="line"
       id="tspan902"
       x="45.182831"
       y="107.33812"
       style="stroke-width:0.999998;fill:#ffffff;">Shop</tspan></text>
  <rect
     x="20"
     y="20"
     width="152"
     height="152"
     rx="9.9346"
     display="none"
     fill="none"
     stroke="#b1b5bd"
     stroke-width=".99996"
     id="rect2" />
  <rect
     x="215.9877"
     y="20"
     width="152"
     height="152"
     rx="9.9345999"
     fill="#9abeff"
     stroke-width="0"
     id="rect874" />
  <g
     fill="#ffffff"
     aria-label="SAMSUNG"
     id="g890"
     transform="translate(195.9877)">
    <path
       d="m 60,89.002 c 1.94,0 3.66,-1.12 3.66,-3.22 0,-3.98 -5.98,-3.02 -5.98,-6.12 0,-1.36 1.12,-2.02 2.32,-2.02 1,0 1.84,0.46 2.3,1.12 l 0.76,-0.62 c -0.62,-0.82 -1.74,-1.46 -3.08,-1.46 -1.72,0 -3.26,1.1 -3.26,3.04 0,3.86 5.98,2.92 5.98,6.1 0,1.42 -1.22,2.22 -2.68,2.22 -1.46,0 -2.54,-0.8 -2.96,-1.92 l -0.88,0.5 c 0.58,1.4 2.04,2.38 3.82,2.38 z"
       id="path876" />
    <path
       d="m 73.16,88.842 h 1.04 l -4.34,-12 H 68.8 l -4.34,12 h 1.06 l 1.02,-2.9 h 5.6 z m -6.3,-3.82 2.48,-7.04 2.48,7.04 z"
       id="path878" />
    <path
       d="m 86.48,76.842 -4.82,10.86 -4.8,-10.86 h -1 v 12 h 0.96 v -10.04 l 4.44,10.04 h 0.78 l 4.48,-10.08 v 10.08 h 0.94 v -12 z"
       id="path880" />
    <path
       d="m 93.54,89.002 c 1.94,0 3.66,-1.12 3.66,-3.22 0,-3.98 -5.98,-3.02 -5.98,-6.12 0,-1.36 1.12,-2.02 2.32,-2.02 1,0 1.84,0.46 2.3,1.12 l 0.76,-0.62 c -0.62,-0.82 -1.74,-1.46 -3.08,-1.46 -1.72,0 -3.26,1.1 -3.26,3.04 0,3.86 5.98,2.92 5.98,6.1 0,1.42 -1.22,2.22 -2.68,2.22 -1.46,0 -2.54,-0.8 -2.96,-1.92 l -0.88,0.5 c 0.58,1.4 2.04,2.38 3.82,2.38 z"
       id="path882" />
    <path
       d="m 103.78,89.002 c 2.52,0 4.4,-1.78 4.4,-4.12 v -8.04 h -0.96 v 7.9 c 0,1.88 -1.48,3.3 -3.44,3.3 -1.94,0 -3.42,-1.42 -3.42,-3.3 v -7.9 H 99.4 v 8.04 c 0,2.34 1.88,4.12 4.38,4.12 z"
       id="path884" />
    <path
       d="m 119.84,76.842 v 10.3 l -7.76,-10.3 h -0.84 v 12 h 0.96 v -10.3 l 7.76,10.3 h 0.84 v -12 z"
       id="path886" />
    <path
       d="m 129.64,82.562 v 0.92 h 5.18 c -0.32,2.58 -2.5,4.56 -5.16,4.56 -2.88,0 -5.2,-2.32 -5.2,-5.2 0,-2.88 2.32,-5.2 5.2,-5.2 1.94,0 3.62,1.04 4.5,2.6 l 0.84,-0.46 c -1.06,-1.86 -3.06,-3.1 -5.34,-3.1 -3.42,0 -6.16,2.76 -6.16,6.16 0,3.4 2.74,6.16 6.16,6.16 3.4,0 6.16,-2.76 6.16,-6.16 v -0.28 z"
       id="path888" />
  </g>
  <g
     fill="#ffffff"
     aria-label="SHOP"
     id="g900"
     transform="translate(195.9877)">
    <path
       d="m 64.278,115.32 c 3.92,0 7.245,-2.31 7.245,-6.23 0,-7.77 -9.66,-5.845 -9.66,-9.485 0,-1.19 0.91,-1.75 2.03,-1.75 1.19,0 2.38,0.665 3.43,1.82 l 3.08,-2.94 c -1.54,-1.785 -3.885,-2.975 -6.475,-2.975 -3.325,0 -6.72,1.995 -6.72,6.195 0,7.14 9.695,5.425 9.695,9.1 0,1.155 -0.98,1.925 -2.59,1.925 -1.925,0 -3.43,-1.085 -4.2,-2.73 l -3.815,2.38 c 1.365,2.625 4.305,4.69 7.98,4.69 z"
       id="path892" />
    <path
       d="m 87.553,94.038 v 8.435 h -8.54 v -8.435 h -4.62 v 21 h 4.62 v -8.47 h 8.54 v 8.47 h 4.585 v -21 z"
       id="path894" />
    <path
       d="m 106.31,115.32 c 5.985,0 10.78,-4.83 10.78,-10.78 0,-5.95 -4.795,-10.78 -10.78,-10.78 -5.95,0 -10.78,4.83 -10.78,10.78 0,5.95 4.83,10.78 10.78,10.78 z m 0,-4.515 c -3.535,0 -6.23,-2.73 -6.23,-6.265 0,-3.535 2.695,-6.265 6.23,-6.265 3.57,0 6.265,2.73 6.265,6.265 0,3.535 -2.695,6.265 -6.265,6.265 z"
       id="path896" />
    <path
       d="m 129.41,94.038 h -8.925 v 21 h 4.62 v -8.505 h 4.305 c 3.535,0 6.265,-2.625 6.265,-6.16 0,-3.5 -2.73,-6.335 -6.265,-6.335 z m -0.735,8.68 h -3.57 v -4.62 h 3.57 c 1.47,0 2.59,0.945 2.59,2.31 0,1.4 -1.12,2.31 -2.59,2.31 z"
       id="path898" />
  </g>
</svg>
