<svg xmlns="http://www.w3.org/2000/svg" id="svg2" width="192" height="192" version="1.1"><defs id="defs4"><style id="style929">.cls-4{fill:#4c9f37}.cls-7{fill:#e8422e}.cls-8{fill:#f59d2d}</style></defs><g id="layer1" transform="translate(0 -860.362)"><rect id="rect1085" width="152" height="152" x="20" y="880.362" rx="9.935" ry="9.935" style="fill:#fff;fill-opacity:1;fill-rule:evenodd;stroke:none;stroke-width:.993464;stroke-opacity:1"/><path id="path1087" d="M116.58 956.355a20.364 20.364 0 0 1-.473 4.378l15.323 4.402a36.435 36.435 0 0 0 1.07-8.78q0-1.126-.07-2.24l-15.865 1.499c0 .242.014.484.014.74" class="cls-7" style="fill:#f8c18c;fill-opacity:1;stroke-width:.242139"/><path id="path1089" d="M78.254 945.95a20.79 20.79 0 0 1 3.28-4.208l-10.736-11.763a36.653 36.653 0 0 0-6.811 8.864z" style="fill:#97db99;fill-opacity:1;stroke-width:.242139"/><path id="path1091" d="M104.552 937.64a20.376 20.376 0 0 1 4.5 2.811l10.757-11.746a36.657 36.657 0 0 0-9.535-5.93z" style="fill:#f9de81;fill-opacity:1;stroke-width:.242139"/><path id="path1093" d="m129.19 941.178-14.26 7.106a20.483 20.483 0 0 1 1.429 5.04l15.86-1.5a36.142 36.142 0 0 0-3.029-10.654" style="fill:#ba6561;fill-opacity:1;stroke-width:.242139"/><path id="path1095" d="m113.909 946.224 14.254-7.107a36.602 36.602 0 0 0-6.66-8.836l-10.76 11.732a20.73 20.73 0 0 1 3.166 4.21" class="cls-4" style="fill:#97db99;fill-opacity:1;stroke-width:.242139"/><path id="path1097" d="M75.42 956.355c0-.32 0-.64.025-.969l-15.865-1.411c-.05.787-.08 1.58-.08 2.38a36.563 36.563 0 0 0 1.08 8.826l15.322-4.39a20.553 20.553 0 0 1-.484-4.431" style="fill:#70a270;fill-opacity:1;stroke-width:.242139"/><path id="path1099" d="M111.91 969.396a20.89 20.89 0 0 1-3.873 3.633l8.375 13.56a36.834 36.834 0 0 0 8.204-7.618z" style="fill:#f9de81;fill-opacity:1;stroke-width:.242139"/><path id="path1101" d="m80.346 969.7-12.681 9.636a36.844 36.844 0 0 0 8.281 7.507l8.376-13.548a20.824 20.824 0 0 1-3.976-3.591" class="cls-8" style="fill:#f9de81;fill-opacity:1;stroke-width:.242139"/><path id="path1103" d="M75.677 953.108a20.412 20.412 0 0 1 1.519-5.112l-14.253-7.102a36.29 36.29 0 0 0-3.148 10.79z" style="fill:#99bdfe;fill-opacity:1;stroke-width:.242139"/><path id="path1105" d="M114.466 987.823 106.1 974.28a20.512 20.512 0 0 1-4.882 1.984l2.954 15.666a36.243 36.243 0 0 0 10.294-4.116" style="fill:#f58f8a;fill-opacity:1;stroke-width:.242139"/><path id="path1107" d="M115.497 962.95a20.657 20.657 0 0 1-2.225 4.587l12.72 9.596a36.304 36.304 0 0 0 4.813-9.783z" style="fill:#96dfd3;fill-opacity:1;stroke-width:.242139"/><path id="path1109" d="M98.969 976.721a20.369 20.369 0 0 1-5.364.073l-2.951 15.669a36.701 36.701 0 0 0 11.264-.088z" style="fill:#f8c18c;fill-opacity:1;stroke-width:.242139"/><path id="path1111" d="M97.315 935.817a20.487 20.487 0 0 1 5.085.983l5.731-14.87a36.229 36.229 0 0 0-10.816-2.048z" style="fill:#ff837d;fill-opacity:1;stroke-width:.242139"/><path id="path1113" d="M91.336 976.404a20.5 20.5 0 0 1-5.05-1.91l-8.383 13.552a36.268 36.268 0 0 0 10.484 4.007z" style="fill:#ffb0ac;fill-opacity:1;stroke-width:.242139"/><path id="path1115" d="M89.816 936.727a20.366 20.366 0 0 1 5.198-.925V919.87a36.28 36.28 0 0 0-10.961 1.998z" style="fill:#54688c;fill-opacity:1;stroke-width:.242139"/><path id="path1117" d="M78.951 967.869a20.466 20.466 0 0 1-2.421-4.867l-15.318 4.394a36.367 36.367 0 0 0 5.068 10.102z" style="fill:#c39a54;fill-opacity:1;stroke-width:.242139"/><path id="path1119" d="M83.249 940.21a20.62 20.62 0 0 1 4.414-2.664l-5.758-14.856a36.478 36.478 0 0 0-9.39 5.751z" style="fill:#708cbd;fill-opacity:1;stroke-width:.242139"/><path id="path1121" d="M116.58 956.355a20.364 20.364 0 0 1-.473 4.378l15.323 4.402a36.435 36.435 0 0 0 1.07-8.78q0-1.126-.07-2.24l-15.865 1.499c0 .242.014.484.014.74" class="cls-7" style="fill:#ba6561;fill-opacity:.25;stroke-width:.242139"/><path id="path1123" d="m113.909 946.224 14.254-7.107a36.602 36.602 0 0 0-6.66-8.836l-10.76 11.732a20.73 20.73 0 0 1 3.166 4.21" class="cls-4" style="fill:#000;fill-opacity:.15;stroke-width:.242139"/><path id="path1125" d="m80.346 969.7-12.681 9.636a36.844 36.844 0 0 0 8.281 7.507l8.376-13.548a20.824 20.824 0 0 1-3.976-3.591" class="cls-8" style="fill:#000;fill-opacity:.15;stroke-width:.242139"/></g></svg>