<?xml version="1.0" encoding="UTF-8" standalone="no"?>
<svg
   xmlns:dc="http://purl.org/dc/elements/1.1/"
   xmlns:cc="http://creativecommons.org/ns#"
   xmlns:rdf="http://www.w3.org/1999/02/22-rdf-syntax-ns#"
   xmlns:svg="http://www.w3.org/2000/svg"
   xmlns="http://www.w3.org/2000/svg"
   xmlns:sodipodi="http://sodipodi.sourceforge.net/DTD/sodipodi-0.dtd"
   xmlns:inkscape="http://www.inkscape.org/namespaces/inkscape"
   sodipodi:docname="samsung_global_goals.svg"
   inkscape:version="1.0.1 (3bc2e813f5, 2020-09-07)"
   version="1.1"
   id="svg2"
   viewBox="0 0 192 192"
   height="192"
   width="192"
   inkscape:export-filename="/home/jphilippe/inkscape/icônes/delta-github/png/samsung_global_goals.png"
   inkscape:export-xdpi="96"
   inkscape:export-ydpi="96">
  <sodipodi:namedview
     inkscape:document-rotation="0"
     inkscape:window-maximized="1"
     inkscape:window-y="0"
     inkscape:window-x="36"
     inkscape:window-height="1052"
     inkscape:window-width="1884"
     units="px"
     showgrid="false"
     inkscape:current-layer="layer1"
     inkscape:document-units="px"
     inkscape:cy="57.86176"
     inkscape:cx="136.70857"
     inkscape:zoom="1.4142136"
     inkscape:pageshadow="2"
     inkscape:pageopacity="0.0"
     borderopacity="1.0"
     bordercolor="#666666"
     pagecolor="#ffffff"
     id="base"
     inkscape:snap-bbox="false"
     inkscape:object-paths="true"
     inkscape:snap-nodes="true"
     showguides="false"
     inkscape:guide-bbox="true"
     inkscape:snap-object-midpoints="true"
     inkscape:snap-center="true"
     inkscape:snap-global="false"
     inkscape:snap-intersection-paths="true"
     inkscape:snap-smooth-nodes="true"
     inkscape:snap-midpoints="true" />
  <defs
     id="defs4">
    <style
       id="style929">.cls-1{fill:#63b335;}.cls-2{fill:#e5b735;}.cls-3{fill:#c51c2e;}.cls-4{fill:#4c9f37;}.cls-5{fill:#3f7f45;}.cls-6{fill:#fcc310;}.cls-7{fill:#e8422e;}.cls-8{fill:#f59d2d;}.cls-9{fill:#1896d4;}.cls-10{fill:#a31b43;}.cls-11{fill:#2ebce0;}.cls-12{fill:#ed6930;}.cls-13{fill:#e6243c;}.cls-14{fill:#de1868;}.cls-15{fill:#1a496a;}.cls-16{fill:#c99a2d;}.cls-17{fill:#02699e;}</style>
  </defs>
  <metadata
     id="metadata7">
    <rdf:RDF>
      <cc:Work
         rdf:about="">
        <dc:format>image/svg+xml</dc:format>
        <dc:type
           rdf:resource="http://purl.org/dc/dcmitype/StillImage" />
        <dc:title></dc:title>
      </cc:Work>
    </rdf:RDF>
  </metadata>
  <g
     transform="translate(0,-860.36216)"
     id="layer1"
     inkscape:groupmode="layer"
     inkscape:label="Calque 1">
    <rect
       style="fill:#ffffff;fill-opacity:1;fill-rule:evenodd;stroke:none;stroke-width:0.993464;stroke-opacity:1"
       width="152"
       height="152"
       x="20"
       y="880.36218"
       rx="9.9346409"
       id="rect1085"
       ry="9.9346409" />
    <path
       class="cls-7"
       d="m 116.57939,956.3549 a 20.363874,20.363874 0 0 1 -0.47218,4.37787 l 15.32254,4.40209 A 36.434626,36.434626 0 0 0 132.5,956.3549 q 0,-1.12594 -0.0702,-2.23978 l -15.86494,1.49884 c 0,0.24214 0.0146,0.48428 0.0146,0.74094"
       id="path1087"
       style="fill:#f8c18c;fill-opacity:1;stroke-width:0.242139" />
    <path
       class="cls-1"
       d="m 78.253655,945.9502 a 20.790038,20.790038 0 0 1 3.280975,-4.20837 L 70.798197,929.97872 a 36.652552,36.652552 0 0 0 -6.811365,8.8647 z"
       id="path1089"
       style="fill:#97db99;fill-opacity:1;stroke-width:0.242139" />
    <path
       class="cls-2"
       d="m 104.55235,937.63999 a 20.37598,20.37598 0 0 1 4.49893,2.81124 l 10.75822,-11.74616 a 36.657394,36.657394 0 0 0 -9.53542,-5.92998 z"
       id="path1091"
       style="fill:#f9de81;fill-opacity:1;stroke-width:0.242139" />
    <path
       class="cls-3"
       d="m 129.18997,941.17764 -14.25956,7.10678 a 20.482521,20.482521 0 0 1 1.42863,5.0389 l 15.86009,-1.49883 a 36.141638,36.141638 0 0 0 -3.02916,-10.65411"
       id="path1093"
       style="fill:#ba6561;fill-opacity:1;stroke-width:0.242139" />
    <path
       class="cls-4"
       d="m 113.90858,946.22381 14.25472,-7.10677 a 36.601701,36.601701 0 0 0 -6.66124,-8.83564 l -10.75823,11.73162 a 20.729503,20.729503 0 0 1 3.16475,4.21079"
       id="path1095"
       style="fill:#97db99;fill-opacity:1;stroke-width:0.242139" />
    <path
       class="cls-5"
       d="m 75.420626,956.3549 c 0,-0.31962 0,-0.63924 0.02421,-0.96855 l -15.86493,-1.41167 C 59.529057,954.76163 59.5,955.55584 59.5,956.3549 a 36.56296,36.56296 0 0 0 1.07994,8.82596 l 15.322543,-4.38997 a 20.552741,20.552741 0 0 1 -0.484277,-4.43114"
       id="path1097"
       style="fill:#70a270;fill-opacity:1;stroke-width:0.242139" />
    <path
       class="cls-6"
       d="m 111.91094,969.3965 a 20.889315,20.889315 0 0 1 -3.87422,3.63208 l 8.37559,13.55977 a 36.834155,36.834155 0 0 0 8.20365,-7.61769 z"
       id="path1099"
       style="fill:#f9de81;fill-opacity:1;stroke-width:0.242139" />
    <path
       class="cls-8"
       d="m 80.345734,969.69917 -12.680813,9.63712 a 36.843841,36.843841 0 0 0 8.281148,7.50631 l 8.375572,-13.54767 a 20.823937,20.823937 0 0 1 -3.975907,-3.59092"
       id="path1101"
       style="fill:#f9de81;fill-opacity:1;stroke-width:0.242139" />
    <path
       class="cls-9"
       d="m 75.677294,953.10782 a 20.412301,20.412301 0 0 1 1.51821,-5.11155 l -14.25229,-7.10193 a 36.289343,36.289343 0 0 0 -3.147805,10.7897 z"
       id="path1103"
       style="fill:#99bdfe;fill-opacity:1;stroke-width:0.242139" />
    <path
       class="cls-10"
       d="m 114.46551,987.82326 -8.3659,-13.54282 a 20.511578,20.511578 0 0 1 -4.88152,1.98311 l 2.9541,15.66638 a 36.243336,36.243336 0 0 0 10.29332,-4.11635"
       id="path1105"
       style="fill:#f58f8a;fill-opacity:1;stroke-width:0.242139" />
    <path
       class="cls-11"
       d="m 115.49701,962.95076 a 20.656861,20.656861 0 0 1 -2.22525,4.58611 l 12.71956,9.59596 a 36.303872,36.303872 0 0 0 4.81371,-9.7824 z"
       id="path1107"
       style="fill:#96dfd3;fill-opacity:1;stroke-width:0.242139" />
    <path
       class="cls-12"
       d="m 98.968628,976.7212 a 20.368717,20.368717 0 0 1 -5.363373,0.0726 l -2.951677,15.6688 a 36.700978,36.700978 0 0 0 11.264302,-0.0872 z"
       id="path1109"
       style="fill:#f8c18c;fill-opacity:1;stroke-width:0.242139" />
    <path
       class="cls-13"
       d="m 97.314815,935.81669 a 20.487364,20.487364 0 0 1 5.084915,0.98308 l 5.73143,-14.86974 a 36.228809,36.228809 0 0 0 -10.816345,-2.0485 z"
       id="path1111"
       style="fill:#ff837d;fill-opacity:1;stroke-width:0.242139" />
    <path
       class="cls-14"
       d="m 91.336415,976.404 a 20.499472,20.499472 0 0 1 -5.051026,-1.91048 l -8.382843,13.5525 a 36.26755,36.26755 0 0 0 10.484605,4.0074 z"
       id="path1113"
       style="fill:#ffb0ac;fill-opacity:1;stroke-width:0.242139" />
    <path
       class="cls-15"
       d="m 89.815775,936.72713 a 20.366295,20.366295 0 0 1 5.198723,-0.92497 v -15.93273 a 36.279658,36.279658 0 0 0 -10.961617,1.99764 z"
       id="path1115"
       style="fill:#54688c;fill-opacity:1;stroke-width:0.242139" />
    <path
       class="cls-16"
       d="m 78.951014,967.8686 a 20.465572,20.465572 0 0 1 -2.421391,-4.86699 l -15.317702,4.39482 a 36.366827,36.366827 0 0 0 5.067965,10.10204 z"
       id="path1117"
       style="fill:#c39a54;fill-opacity:1;stroke-width:0.242139" />
    <path
       class="cls-17"
       d="m 83.248967,940.20909 a 20.620541,20.620541 0 0 1 4.414189,-2.66353 l -5.758052,-14.85522 a 36.478212,36.478212 0 0 0 -9.390143,5.7508 z"
       id="path1119"
       style="fill:#708cbd;fill-opacity:1;stroke-width:0.242139" />
    <path
       class="cls-7"
       d="m 116.57939,956.3549 a 20.363874,20.363874 0 0 1 -0.47218,4.37787 l 15.32254,4.40209 A 36.434626,36.434626 0 0 0 132.5,956.3549 q 0,-1.12594 -0.0702,-2.23978 l -15.86494,1.49884 c 0,0.24214 0.0146,0.48428 0.0146,0.74094"
       id="path1121"
       style="fill:#ba6561;fill-opacity:0.25;stroke-width:0.242139" />
    <path
       class="cls-4"
       d="m 113.90858,946.22381 14.25472,-7.10677 a 36.601701,36.601701 0 0 0 -6.66124,-8.83564 l -10.75823,11.73162 a 20.729503,20.729503 0 0 1 3.16475,4.21079"
       id="path1123"
       style="fill:#000000;fill-opacity:0.15;stroke-width:0.242139" />
    <path
       class="cls-8"
       d="m 80.345734,969.69917 -12.680813,9.63712 a 36.843841,36.843841 0 0 0 8.281148,7.50631 l 8.375572,-13.54767 a 20.823937,20.823937 0 0 1 -3.975907,-3.59092"
       id="path1125"
       style="fill:#000000;fill-opacity:0.15;stroke-width:0.242139" />
  </g>
  <style
     type="text/css"
     id="style853">
	.st0{fill:#FFFFFF;}
</style>
  <style
     type="text/css"
     id="style853-9">
	.st0{fill:#FFFFFF;}
</style>
  <style
     type="text/css"
     id="style853-3">
	.st0{fill:#FFFFFF;}
</style>
</svg>
