<?xml version="1.0" encoding="UTF-8" standalone="no"?>
<!-- Created with Inkscape (http://www.inkscape.org/) -->

<svg
   width="192"
   height="192"
   viewBox="0 0 192 192"
   id="svg2"
   version="1.1"
   inkscape:version="1.1.1 (3bf5ae0d25, 2021-09-20)"
   sodipodi:docname="santa_tracker.svg"
   xml:space="preserve"
   inkscape:export-filename="santa_tracker.png"
   inkscape:export-xdpi="96"
   inkscape:export-ydpi="96"
   xmlns:inkscape="http://www.inkscape.org/namespaces/inkscape"
   xmlns:sodipodi="http://sodipodi.sourceforge.net/DTD/sodipodi-0.dtd"
   xmlns="http://www.w3.org/2000/svg"
   xmlns:svg="http://www.w3.org/2000/svg"
   xmlns:rdf="http://www.w3.org/1999/02/22-rdf-syntax-ns#"
   xmlns:cc="http://creativecommons.org/ns#"
   xmlns:dc="http://purl.org/dc/elements/1.1/"><sodipodi:namedview
     id="base"
     pagecolor="#ffffff"
     bordercolor="#666666"
     borderopacity="1.0"
     inkscape:pageopacity="0.0"
     inkscape:pageshadow="2"
     inkscape:zoom="1.4142136"
     inkscape:cx="351.0785"
     inkscape:cy="198.34344"
     inkscape:document-units="px"
     inkscape:current-layer="layer1"
     showgrid="false"
     units="px"
     inkscape:window-width="1884"
     inkscape:window-height="1055"
     inkscape:window-x="36"
     inkscape:window-y="0"
     inkscape:window-maximized="1"
     inkscape:snap-center="false"
     inkscape:object-paths="true"
     inkscape:snap-intersection-paths="true"
     inkscape:snap-object-midpoints="true"
     showguides="true"
     inkscape:guide-bbox="true"
     inkscape:showpageshadow="0"
     inkscape:pagecheckerboard="0"
     inkscape:deskcolor="#d1d1d1" /><defs
     id="defs4" /><metadata
     id="metadata7"><rdf:RDF><cc:Work
         rdf:about=""><dc:format>image/svg+xml</dc:format><dc:type
           rdf:resource="http://purl.org/dc/dcmitype/StillImage" /></cc:Work></rdf:RDF></metadata><g
     inkscape:label="Calque 1"
     inkscape:groupmode="layer"
     id="layer1"
     transform="translate(0,-860.36216)"><circle
       style="fill:#72a373;fill-opacity:1;stroke:none;stroke-width:0.93617;stroke-linecap:round;stroke-linejoin:round;stroke-miterlimit:4;stroke-dasharray:none;stroke-dashoffset:0;stroke-opacity:1;paint-order:normal"
       id="path4962"
       cx="96"
       cy="956.36218"
       r="88" /><path
       sodipodi:nodetypes="sssssss"
       inkscape:connector-curvature="0"
       id="path938"
       d="m 117.10907,946.55119 c 2.41715,0.69323 4.99897,1.02977 7.07826,2.45515 2.81841,1.93205 4.02014,5.4268 2.34105,8.40289 -1.67914,2.97606 -5.42687,4.02019 -8.40293,2.34105 l -6.64011,-3.74643 c -2.97609,-1.67915 -4.0202,-5.42683 -2.34105,-8.40293 1.67914,-2.97606 4.68014,-1.99182 7.96478,-1.04973 z"
       style="fill:#ffb1ad;fill-opacity:1;stroke:none;stroke-width:8.52312;stroke-linecap:round;stroke-linejoin:round;stroke-miterlimit:4;stroke-dasharray:none;stroke-dashoffset:0;stroke-opacity:1;paint-order:normal" /><ellipse
       ry="7.4709554"
       rx="8.208828"
       cy="918.00946"
       cx="61.227749"
       id="ellipse926"
       style="fill:#ffffff;fill-opacity:1;stroke:none;stroke-width:8.04288;stroke-linecap:round;stroke-linejoin:round;stroke-miterlimit:4;stroke-dasharray:none;stroke-dashoffset:0;stroke-opacity:1;paint-order:normal" /><path
       style="fill:#ffb1ad;fill-opacity:1;stroke:none;stroke-width:8.52312;stroke-linecap:round;stroke-linejoin:round;stroke-miterlimit:4;stroke-dasharray:none;stroke-dashoffset:0;stroke-opacity:1;paint-order:normal"
       d="m 74.703549,946.55119 c -2.417156,0.69323 -4.998971,1.02977 -7.078218,2.45515 -2.818452,1.93205 -4.020189,5.4268 -2.341047,8.40289 1.679142,2.97606 5.426827,4.02019 8.402891,2.34105 l 6.640143,-3.74643 c 2.976063,-1.67915 4.020152,-5.42683 2.34101,-8.40293 -1.679142,-2.97606 -4.680101,-1.99182 -7.964779,-1.04973 z"
       id="path940"
       inkscape:connector-curvature="0"
       sodipodi:nodetypes="sssssss" /><ellipse
       ry="32.348774"
       rx="26.44451"
       cy="959.79144"
       cx="96"
       id="ellipse942"
       style="fill:#fcecdc;fill-opacity:1;stroke:none;stroke-width:8.01932;stroke-linecap:round;stroke-linejoin:round;stroke-miterlimit:4;stroke-dasharray:none;stroke-dashoffset:0;stroke-opacity:1;paint-order:normal" /><path
       sodipodi:nodetypes="ccccsssc"
       inkscape:connector-curvature="0"
       id="path924"
       d="M 102.87138,956.14825 H 95.573346 58.410493 c -2.018751,0 -2.018751,0 -1.926641,2.01846 0.975355,11.3422 9.789675,33.51768 30.845356,41.43737 4.230168,1.59112 8.011486,2.33462 15.542172,2.56892 13.97611,0.435 25.31824,-10.30303 25.31824,-23.01237 0,-12.7094 -11.33538,-23.01238 -25.31824,-23.01238 z"
       style="fill:#ffffff;fill-opacity:1;stroke:none;stroke-width:7.70785;stroke-linecap:round;stroke-linejoin:round;stroke-miterlimit:4;stroke-dasharray:none;stroke-dashoffset:0;stroke-opacity:1;paint-order:normal" /><ellipse
       ry="5.1651053"
       rx="7.1499572"
       cy="956.10211"
       cx="96"
       id="ellipse930"
       style="fill:#ffb1ad;fill-opacity:1;stroke:none;stroke-width:7.11936;stroke-linecap:round;stroke-linejoin:round;stroke-miterlimit:4;stroke-dasharray:none;stroke-dashoffset:0;stroke-opacity:1;paint-order:normal" /><circle
       r="1.3835104"
       cy="951.44427"
       cx="83.225586"
       id="circle932"
       style="fill:#585b5d;fill-opacity:1;stroke:none;stroke-width:8.08825;stroke-linecap:round;stroke-linejoin:round;stroke-miterlimit:4;stroke-dasharray:none;stroke-dashoffset:0;stroke-opacity:1;paint-order:normal" /><circle
       style="fill:#585b5d;fill-opacity:1;stroke:none;stroke-width:8.08825;stroke-linecap:round;stroke-linejoin:round;stroke-miterlimit:4;stroke-dasharray:none;stroke-dashoffset:0;stroke-opacity:1;paint-order:normal"
       id="circle934"
       cx="108.66109"
       cy="951.44427"
       r="1.3835104" /><path
       inkscape:connector-curvature="0"
       id="path4944"
       d="m 91.605965,963.34047 c -0.437407,0 -0.573252,0.18008 -0.536024,0.58623 0.01767,0.19272 0.0701,0.37888 0.124846,0.56181 0.566721,1.89338 2.503495,3.28795 4.805212,3.28807 2.301716,-1.2e-4 4.238481,-1.39469 4.805211,-3.28807 0.0547,-0.18293 0.1072,-0.36909 0.12484,-0.56181 0.0373,-0.40615 -0.0986,-0.58623 -0.53602,-0.58623 h -0.576731 -3.814591 -0.0056 -3.814583 z"
       style="fill:#585b5d;fill-opacity:1;stroke:none;stroke-width:7.42284;stroke-linecap:round;stroke-linejoin:round;stroke-miterlimit:4;stroke-dasharray:none;stroke-dashoffset:0;stroke-opacity:1;paint-order:normal" /><path
       sodipodi:nodetypes="ccccccc"
       id="path944"
       d="m 72.254742,919.11625 v 26.21538 c 2.011632,0.4719 4.06399,0.87436 6.132825,1.20266 19.291049,3.02199 35.907633,-0.90262 37.114113,-8.76585 1.20651,-7.86315 -13.45365,-16.68726 -32.74451,-19.70927 -2.850066,-0.44206 -5.70735,-0.73975 -8.50839,-0.88721 -1.994038,-0.0798 -1.994038,-0.0798 -1.994038,1.94429 z"
       style="fill:#fe837e;fill-opacity:1;stroke:none;stroke-width:2.37546;stroke-linecap:round;stroke-linejoin:round;stroke-miterlimit:4;stroke-dasharray:none;stroke-dashoffset:0;stroke-opacity:1;paint-order:normal"
       inkscape:connector-curvature="0" /><rect
       ry="3.2640595"
       rx="3.966063"
       y="931.01447"
       x="66.116173"
       height="16.786592"
       width="59.675415"
       id="rect928"
       style="fill:#ffffff;fill-opacity:1;stroke:none;stroke-width:8.67986;stroke-linecap:round;stroke-linejoin:round;stroke-miterlimit:4;stroke-dasharray:none;stroke-dashoffset:0;stroke-opacity:1;paint-order:normal" /></g></svg>
