<svg xmlns="http://www.w3.org/2000/svg" viewBox="0 0 153 153"><title>Sber Business</title><rect width="153" height="153" rx="10" fill="#73ada4"/><path d="M127.8,127.39a44,44,0,0,0,12.48-39.34l-9.69,7V96a33.85,33.85,0,0,1-10.72,24.65A34.72,34.72,0,0,1,96,130.15h-.06a34.7,34.7,0,0,1-25.09-10.76A33.69,33.69,0,0,1,72.28,71.2,34.65,34.65,0,0,1,96,61.84h0a34.69,34.69,0,0,1,19.51,5.95l8.76-6.36a45.12,45.12,0,0,0-26-9.76v0c-.75,0-1.49,0-2.24,0h0A45.14,45.14,0,0,0,65.84,63.1l0,0c-.26.23-.48.49-.73.73s-.62.52-.9.81l0,0a43.88,43.88,0,0,0-13.1,29.14h-.06C51,94.52,51,95.25,51,96h0a43.92,43.92,0,0,0,11.67,29.77l0,0c.22.24.47.45.7.69s.55.62.84.91l0,0a45,45,0,0,0,29.54,12.93v.07c.73,0,1.46,0,2.19,0H96a45.09,45.09,0,0,0,30.15-11.51l0,0,1-.89c.15-.14.28-.3.43-.44l.24-.22Z" transform="translate(-19.5 -18.5)" fill="#fff"/><path d="M79.15,84.14V97.05l17.12,10.73,41-30.2a44.37,44.37,0,0,0-5.39-8.94L96.27,94.84Z" transform="translate(-19.5 -18.5)" fill="#fff"/></svg>