<svg xmlns="http://www.w3.org/2000/svg" xml:space="preserve" viewBox="0 0 192 192"><g stroke-width=".575"><path fill="#f9de81" d="M65.206 68.043c9.512 7.44 29.559 25.347 29.559 25.347l58.945-69.754c3.13-3.672 5.563-3.28 5.563-3.28s2.682-.039 4.217 1.05c1.614 1.144 2.228 1.18 2.74 5.07.28 2.129-1.391 5.9-1.391 5.9s-38.918 58.79-59.466 89.16c-1.605 2.371-4.972 3.358-7.824 3.496-3.477.17-7.793-.543-9.91-3.321-11.268-14.798-22.091-31.06-31.82-45.281-1.38-2.016-.207-5.492 1.566-7.169 1.922-1.817 5.74-2.855 7.824-1.224z"/><path fill="#728dbe" d="M96.455 40.887c-13.17 1.8-13.203 1.724-19.462 3.923-5.61 1.97-10.868 5.057-15.614 8.653-5.012 3.796-9.65 8.268-13.277 13.413-3.212 4.556-5.512 9.777-7.254 15.08-1.24 3.782-1.851 7.776-2.213 11.745-.373 4.104-.325 8.26.062 12.361.36 3.819.967 7.646 2.09 11.313 1.424 4.647 3.278 9.226 5.84 13.35 2.925 4.712 6.602 9.003 10.695 12.732 3.375 3.072 7.223 5.653 11.25 7.787 4.546 2.408 9.425 4.215 14.386 5.563 3.205.87 6.52 1.382 9.837 1.608 3.109.212 6.255.17 9.345-.245 5.958-.806 11.985-1.962 17.52-4.328 5.73-2.448 11.162-5.834 15.798-10.012 4.562-4.11 8.3-9.173 11.434-14.465a57.974 57.974 0 0 0 6.024-14.215c1.337-4.904 1.416-7.217 2.001-15.123l11.954.04c.478 5.303.447 5.78.184 8.652-.334 3.627-1.15 7.214-2.213 10.694-1.756 5.75-3.817 11.487-6.824 16.688-2.745 4.746-6.304 9.018-10.083 12.98-4.376 4.591-9.028 9.083-14.447 12.362-6.84 4.138-14.436 7.27-22.255 8.901-7.85 1.637-16.061 1.569-24.035.74-5.136-.534-10.23-1.814-15.061-3.646-6.089-2.31-11.912-5.441-17.274-9.147-3.279-2.267-6.207-5.037-8.975-7.912-3.403-3.533-6.674-7.262-9.314-11.403-2.894-4.542-5.198-9.489-7.038-14.557-2.095-5.77-3.777-11.765-4.489-17.862-.512-4.379-.28-8.842.184-13.226.574-5.413 1.538-10.83 3.197-16.008 1.586-4.95 3.807-9.712 6.394-14.215a59.262 59.262 0 0 1 6.886-9.642c3.728-4.238 7.872-8.161 12.417-11.496 4.455-3.271 9.331-6.004 14.385-8.22 4.175-1.832 8.6-3.087 13.031-4.142 2.019-.48 4.082-.788 6.149-.989 2.968-.285 2.072-.13 8.938-.294z"/></g></svg>