<?xml version="1.0" encoding="UTF-8"?>
<svg version="1.1" viewBox="0 0 192 192" xml:space="preserve" xmlns="http://www.w3.org/2000/svg">
	 <path d="m87.233 176.37c-23.097-3.0651-42.839-20.335-48.486-42.414-3.4614-13.534-2.3372-25.402 3.6756-38.8 2.3514-5.2397 2.4511-5.9465 1.0602-7.5197-14.952-16.911-27.749-31.758-27.746-32.189 2e-3 -0.30133 3.2649-2.2248 7.25-4.2744s13.996-8.8006 22.246-15.002c22.38-16.824 32.403-21.009 50.5-21.087 17.013-0.07328 27.116 3.9136 43.998 17.362 13.273 10.575 20.513 15.192 29.1 18.561 3.8524 1.5114 7.1937 3.0543 7.425 3.4287s-5.7541 7.9878-13.301 16.919c-18.179 21.513-16.732 19.124-14.378 23.738 5.7306 11.233 7.4025 29.264 3.7374 40.306-9.2682 27.924-36.101 44.816-65.081 40.97z" fill="#728dbe"/><path d="m112.22 166.41c3.2174-1.107 7.6858-3.0973 9.9298-4.423 4.5723-2.7013 12.54-9.402 12.54-10.499 0-0.39307-1.878-1.1793-4.2223-1.8063-5.7207-1.5301-8.844-5.039-9.476-10.646-0.89693-7.9575 4.3249-13.633 12.535-13.625 5.9274-0.53209 10.359 10.246 10.359 10.246 2.2177-2.2187 2.5529-24.742-0.0537-31.458-3.3106-8.5297-4.4561-9.4637-14.103-11.498-12.771-2.6934-51.054-2.4272-66.891 0.46513-6.3037 1.1512-11.773 2.6747-12.245 3.4112-4.0616 6.3266-6.9462 22.247-5.4633 30.151l0.67002 3.5715 3.6044-2.446c8.3068-5.6371 18.953-1.0682 20.012 8.5884 0.68294 6.2269-2.5164 10.893-8.9373 13.035l-4.7042 1.5692 3.7274 3.6182c6.9477 6.7443 17.256 11.892 28.227 14.097 4.8348 0.97156 18.704-0.35936 24.49-2.3502z" fill="#fff"/><path d="m57.517 122.68c-4.7428 0.0101-9.279 2.432-11.949 6.3516 1.8924 8.8581 4.9378 15.99 10.212 22.008 0.42291 0.0494 1.3123 0.37122 1.7379 0.38294 7.9371 2.8e-4 14.371-6.434 14.371-14.371 2.79e-4 -7.937-6.434-14.371-14.371-14.371z" fill="#ff837d" stroke-linecap="round" stroke-linejoin="round" stroke-width="2.3183"/><path d="m132.96 123.12c4.7428 0.0101 9.4982 4.1768 12.169 8.0964-1.2136 9.1362-5.1569 14.245-10.431 20.263-0.42291 0.0494 0.42563-0.0117 0 0-7.9371 2.8e-4 -16.109-6.0511-16.109-13.988-2.7e-4 -7.937 6.434-14.371 14.371-14.371z" fill="#ff837d" stroke-linecap="round" stroke-linejoin="round" stroke-width="2.3183"/><path d="m52.855 89.395c-2.929-4.3387-2.8429-4.2069-3.8755-5.5799-11.344-15.083-23.201-26.552-23.198-26.913 0.0016-0.25194 6.1821-3.1965 9.5141-4.9102s11.702-7.3581 18.599-12.543c18.712-14.066 27.092-17.565 42.223-17.63 14.225-0.06127 22.672 3.2721 36.786 14.516 11.098 8.8413 17.151 12.702 24.33 15.519 3.221 1.2637 8.6874 3.2219 8.8808 3.5349s-5.388 6.2269-11.121 14.146c-13.718 18.949-11.076 15.754-13.636 19.218-34.955-6.6365-64.351-6.1548-88.502 0.64272z" fill="#ff837d" stroke-width=".83609"/><path d="m87.011 71.342c5.3914-1.4972 9.7168-5.7198 14.158-13.821 5.1792-9.4484 7.3099-11.283 14.188-12.216 6.3635-0.86355 6.9517-1.254 7.9453-5.2741l0.70976-2.8719-10.101 0.40571c-9.263 0.37205-10.448 0.65178-14.279 3.3719-2.7038 1.9197-5.5666 5.4358-8.1143 9.9662-6.4928 11.545-10.525 14.48-19.917 14.494-3.5952 0.0055-4.8058 1.4414-4.853 5.7556-0.0173 1.5826 14.75 1.7209 20.264 0.18987z" fill="#fff"/><path d="m118.71 115.87c-4.583-4.8784-2.33-12.577 4.0938-13.988 5.8172-1.2777 11.895 4.5408 10.51 10.061-1.6126 6.4253-10.11 8.71-14.603 3.9266z" fill="#728dbe"/><path d="m61.188 115.95c-2.7389-2.7389-3.2623-7.8985-1.0912-10.756 3.2311-4.2529 11.028-4.2768 14.241-0.0437 3.952 5.2065-0.36189 13.254-7.1047 13.254-2.4792 0-4.3508-0.75988-6.0455-2.4546z" fill="#728dbe"/><path d="m91.305 118.83c-3.5252-3.5252-0.5821-9.4286 4.7006-9.4286 2.7414 0 5.728 3.1636 5.728 6.0675 0 4.1813-7.2664 6.5232-10.429 3.361z" fill="#728dbe"/><path d="m86.487 143.95c-7.8551-3.0133-15.244-11.105-14.554-15.938 0.48839-3.4208 4.2826-3.272 5.731 0.22486 2.4942 6.0216 10.474 11.174 17.288 11.163 8.024-0.0136 12.215-2.7217 19.437-12.559 2.0382-2.7765 2.2499-2.8428 3.9213-1.228 1.6887 1.6316 1.6853 1.8877-0.0786 5.7992-1.9877 4.408-6.5806 8.9513-11.753 11.626-4.3449 2.2468-15.218 2.743-19.991 0.91215z" fill="#728dbe"/></svg>
