<svg xmlns="http://www.w3.org/2000/svg" xmlns:xlink="http://www.w3.org/1999/xlink" viewBox="0 0 220.18 220.18"><title>Schoolboy</title><defs><clipPath id="a" transform="translate(36.18 -8)"><circle cx="96" cy="96" r="88" fill="none"/></clipPath></defs><g clip-path="url(#a)"><circle cx="132.18" cy="88" r="88" fill="#8c72bd"/><polygon points="150.72 69.47 0 183.44 36.74 220.18 150.72 69.47" fill="#96dfd3"/><path d="M123.13,70.09a1.22,1.22,0,0,0-.35-.87,1.19,1.19,0,0,0-.87-.35c-.63,0-15.6.36-25.24,10L84.45,91.09c-2.84-1-12.52-2.88-26.15,10.74a1.21,1.21,0,0,0-.12,1.55l.13.15a1.18,1.18,0,0,0,1.37.23c.1-.05,8.78-4.25,13.39-1.3l-3,3a1.12,1.12,0,0,0-.19.24c-.13.22-3,5.48,3.94,12.47s12.25,4.07,12.47,3.94a1.55,1.55,0,0,0,.24-.19l3-3c2.94,4.62-1.25,13.3-1.3,13.4a1.19,1.19,0,0,0,.23,1.37l0,0a1.2,1.2,0,0,0,1.68,0l.06-.07c13.55-13.59,11.68-23.24,10.68-26.08l12.22-12.22C122.77,85.69,123.12,70.72,123.13,70.09Z" transform="translate(36.18 -8)" fill="#fff"/></g></svg>