<svg width="192" height="192" version="1.1" viewBox="0 0 192 192" xml:space="preserve" xmlns="http://www.w3.org/2000/svg"><circle cx="96" cy="96" r="88" fill="#fff"/><path id="path" d="m92.939 61.917c-4.5275 0.98162-8.5541 3.7261-11.078 7.5324-1.7028 2.5442-2.6243 5.1084-3.005 8.3738-0.1202 0.92152-0.3005 1.3422-0.84139 1.9833-1.3622 1.6427-1.7228 3.065-1.1619 4.5675 0.74122 1.9432 0.70116 2.1435-0.90148 4.0266-4.5074 5.3087-7.272 11.679-7.7528 17.849l-0.1202 1.5626h-0.84139c-1.3622 0-2.7646 0.52086-3.7862 1.4223-1.803 1.6026-2.1636 3.005-1.6427 6.5909 0.86142 5.9899 2.7846 10.197 5.0684 11.138 0.36059 0.16026 0.66109 0.38063 0.66109 0.50083 0 0.10016 0.42069 0.64105 0.92152 1.1819 0.64106 0.68112 1.2621 1.1218 2.0434 1.4023 1.1218 0.4207 3.045 0.44073 15.465 0.2404 0.16026-0.02 3.9465 0.0401 8.3938 0.0801 8.7344 0.1202 10.217 0.02 13.182-0.84139l1.7429-0.50082 2.6043 1.3222 6.8914 0.0601c7.9331 0.0601 8.2536 0.02 9.8963-1.5225 2.3238-2.1636 2.3038-5.5291-0.02-7.7127-0.96158-0.90148-2.444-1.5425-3.5659-1.5425-0.80132 0-1.6427-0.56092-2.0634-1.4023-0.70116-1.3823-1.0016-3.5258-1.222-8.514-0.44072-11.058-2.1035-19.352-5.2086-25.943-1.0016-2.1636-1.202-2.7646-1.4023-4.4073-1.0217-8.5741-5.8296-14.985-12.901-17.228-2.0233-0.64106-6.8914-0.76125-9.3554-0.22036zm9.0549 2.3639c6.2102 2.2637 10.077 7.6326 11.098 15.486 0.26043 1.9833 0.40066 2.4641 1.4824 4.7679 2.9448 6.2503 4.7078 14.744 4.9882 23.98 0.14023 4.6877-0.0801 6.3104-1.1218 9.0349-1.5826 4.0667-5.2687 7.5725-9.7761 9.3354-3.1452 1.222-4.3672 1.3622-12.521 1.3622h-7.3521l0.72119-1.0618c1.7228-2.5442 2.8046-6.3304 3.1852-11.198l0.1202-1.7629h-2.1836l-0.14023 1.823c-0.46076 6.05-2.3238 10.597-4.828 11.779-0.86142 0.40066-1.1819 0.42069-7.5725 0.42069-6.6309 0-6.691 0-7.3721-0.46076-2.0434-1.3823-2.1235-3.9465-0.1803-5.3688 0.28046-0.20033 1.202-0.50083 2.0634-0.68112 3.9866-0.74122 7.9932-4.0467 8.1935-6.7511l0.0601-0.66109-1.0217-0.0601-1.0417-0.0601-0.14023 0.74122c-0.1803 1.0618-2.1836 3.025-3.9064 3.8463-1.5425 0.74122-1.4223 0.84138-2.7245-1.8631-1.3823-2.8447-1.7629-4.6677-1.7629-8.1134 0-7.0116 2.4841-13.442 7.292-18.931 2.0233-2.3238 2.424-3.9064 1.4824-5.7695-0.46076-0.86142-0.2404-1.7429 0.68112-2.9248 0.92152-1.1619 1.1619-1.803 1.3422-3.626 0.0601-0.72119 0.38063-2.0634 0.70116-3.005 1.7228-5.2086 5.8697-9.075 11.178-10.417 2.1435-0.54089 7.3922-0.46076 9.0549 0.14023zm-33.796 47.078c0.1803 1.9833 0.84139 4.3071 1.8631 6.4506 0.48079 1.0217 0.88145 1.9031 0.88145 1.9432s-0.34056 0.22036-0.74122 0.38063c-1.3823 0.58095-2.5843 2.0233-3.1452 3.7662-0.16026 0.52086-0.46076 0.26043-1.1018-1.0217-0.80132-1.5826-1.3823-3.5458-1.843-6.2102-0.62102-3.646-0.50083-4.7078 0.66109-5.7895 0.64106-0.60099 1.3021-0.84139 2.3839-0.84139l0.92152-0.02zm53.328 8.4539c0.76126 1.1419 1.4624 1.5626 3.3255 1.9432 2.3839 0.48079 3.2854 1.3823 3.2854 3.2854 0 1.2621-0.32053 1.9031-1.3823 2.6844-0.52085 0.40066-0.84138 0.4207-7.312 0.4808-3.7061 0.02-6.9715-0.02-7.2119-0.1202-0.42069-0.14023-0.32053-0.26043 1.1419-1.222 2.8647-1.8831 5.8296-5.2887 6.7912-7.7928 0.30049-0.78129 0.36059-0.86142 0.54089-0.54089 0.1202 0.20033 0.50082 0.76125 0.82135 1.2821z" fill="#56595b"/><path d="m93.78 69.049-0.68112 0.70116 2.1636 2.2036 1.5225-1.4824-1.0417-1.0617c-0.58096-0.58096-1.1018-1.0617-1.1619-1.0617s-0.42069 0.32053-0.80132 0.70116z" fill="#56595b"/><path d="m100.63 69.409-1.0417 1.0617 0.76126 0.74122 0.76125 0.74122 2.0834-2.1235-1.5225-1.4824z" fill="#56595b"/><path d="m91.016 72.755c-1.3222 0.80132-1.8631 2.5843-1.0417 3.4056 1.1819 1.1819 3.8063-0.44073 3.8063-2.3639 0-1.3222-1.4023-1.8631-2.7646-1.0417z" fill="#56595b"/><path d="m102.84 72.855c-0.74122 0.92152-0.46076 1.9232 0.86142 3.0851 0.96158 0.82135 2.0834 0.88145 2.6844 0.10016 0.50083-0.62102 0.52086-1.1018 0.14023-1.843-0.52086-1.0016-1.4223-1.6828-2.3839-1.7829-0.78129-0.10016-0.92152-0.04007-1.3022 0.44073z" fill="#56595b"/><path d="m96.084 75.8c-0.72119 0.38063-1.1018 1.0417-1.1018 1.8831 0 0.64106 0.1803 1.0417 0.80132 1.9031 0.46076 0.60099 0.90148 1.1018 1.0016 1.1419 0.1202 0.04007 0.20033 0.46076 0.20033 0.94155 0 0.86142-0.04007 0.90148-1.242 1.7228-0.70116 0.46076-1.3021 0.88145-1.3422 0.90148-0.10016 0.10016 0.96158 1.6828 1.1218 1.6828 0.08013 0 0.70116-0.36059 1.3823-0.82135l1.2621-0.82135 1.202 0.82135c0.66109 0.46076 1.2821 0.82135 1.3622 0.82135 0.18029 0 1.0617-1.3021 1.0617-1.5826 0-0.10016-0.58095-0.58096-1.3021-1.0417-1.1819-0.76125-1.3021-0.90148-1.3021-1.5225 0-0.50082 0.2404-0.94155 0.92152-1.7829 0.50083-0.62102 1.0016-1.3622 1.1018-1.6627 0.30049-0.78129 0.0401-1.7429-0.64106-2.3038-0.56092-0.48079-0.78129-0.52086-2.3439-0.52086-0.96158 0-1.9232 0.1202-2.1435 0.2404zm2.9048 2.1035c-0.02003 0.20033-0.72119 1.0617-0.86142 1.0617-0.0601 0-0.3005-0.28046-0.54089-0.60099l-0.42069-0.60099h0.90148c0.50082 0 0.92152 0.0601 0.92152 0.14023z" fill="#56595b"/></svg>
