<?xml version="1.0" encoding="UTF-8"?>
<svg width="192" height="192" version="1.1" viewBox="0 0 192 192" xml:space="preserve" xmlns="http://www.w3.org/2000/svg" xmlns:cc="http://creativecommons.org/ns#" xmlns:dc="http://purl.org/dc/elements/1.1/" xmlns:rdf="http://www.w3.org/1999/02/22-rdf-syntax-ns#" xmlns:xlink="http://www.w3.org/1999/xlink"><metadata><rdf:RDF><cc:Work rdf:about=""><dc:format>image/svg+xml</dc:format><dc:type rdf:resource="http://purl.org/dc/dcmitype/StillImage"/></cc:Work></rdf:RDF></metadata><circle cx="96" cy="96" r="88" fill="#fff"/><path d="m120.67 81.517a24.314 24.314 0 0 1 24.314 24.314 24.314 24.314 0 0 1-24.314 24.314 24.314 24.314 0 0 1-21.36-12.828 24.314 24.314 0 0 0 2.9537-11.486 24.314 24.314 0 0 0-2.9876-11.549 24.314 24.314 0 0 1 21.394-12.765z" fill="#ff837d"/><path d="m95.642 105.83a24.314 24.314 0 0 1-24.314 24.314 24.314 24.314 0 0 1-24.314-24.314 24.314 24.314 0 0 1 24.314-24.314 24.314 24.314 0 0 1 24.314 24.314z" fill="#ff837d"/><text x="56.845921" y="116.51848" fill="#ffffff" font-family="Now" font-size="28.501px" font-weight="500" stroke-linecap="round" stroke-linejoin="round" stroke-width="6.4127" xml:space="preserve"><tspan x="56.845921" y="116.51848" stroke-width="6.4127">W</tspan></text><text x="114.49785" y="116.51851" fill="#ffffff" font-family="Now" font-size="28.08px" font-weight="500" stroke-linecap="round" stroke-linejoin="round" stroke-width="6.3179" xml:space="preserve"><tspan x="114.49785" y="116.51851" stroke-width="6.3179">2</tspan></text><text x="46.003754" y="77.704773" fill="#56595b" font-family="Now" font-size="31.078px" font-weight="500" stroke-linecap="round" stroke-linejoin="round" stroke-width="6.9925" xml:space="preserve"><tspan x="46.003754" y="77.704773" stroke-width="6.9925">secure</tspan></text></svg>
