<svg xmlns="http://www.w3.org/2000/svg" id="svg2" width="192" height="192" version="1.1"><defs id="defs4"><style id="style907">.cls-1{fill:#00a88e}.cls-2{fill:#009a82}.cls-3{fill:#586266}.cls-4{fill:#e0eae8}.cls-5,.cls-8{fill:none}.cls-5{stroke:#a8aaae;stroke-linecap:round;stroke-miterlimit:10;stroke-width:5px}.cls-6{fill:#a35f27}.cls-7{fill:#ffc31a}.st0,.st1{stroke:#000;stroke-width:3;stroke-miterlimit:10}.st1{fill:none;stroke-width:2}.st2,.st3{fill:#728dbe}.st3{stroke:#000;stroke-width:3;stroke-miterlimit:10}.st4,.st5{fill:#71a372}.st5{stroke:#000;stroke-width:3;stroke-miterlimit:10}.st6,.st7{fill:#ff837d}.st7{stroke:#000;stroke-width:3;stroke-miterlimit:10}.st8,.st9{fill:#fff}.st9{stroke:#000;stroke-width:3;stroke-miterlimit:10}.st10{fill:#f9de81}.st11,.st12{stroke:#000;stroke-miterlimit:10}.st11{fill:#f9de81;stroke-width:3}.st12{stroke-width:4}.st13{fill:url(#SVGID_1_)}.st14{clip-path:url(#SVGID_3_)}.st0{fill:#fff}</style></defs><g id="layer1" transform="translate(0 -860.362)"><path id="path1168" d="m10.316 947.718 35.356-61.238a17.29 17.29 0 0 1 14.973-8.644h70.71a17.29 17.29 0 0 1 14.973 8.644l35.356 61.238a17.29 17.29 0 0 1 0 17.289l-35.356 61.237a17.29 17.29 0 0 1-14.973 8.645h-70.71a17.29 17.29 0 0 1-14.973-8.645l-35.356-61.237a17.29 17.29 0 0 1 0-17.29z" style="fill:#96dfd3;fill-opacity:1;stroke:none;stroke-width:7.91731;stroke-linecap:round;stroke-linejoin:round;stop-color:#000"/><circle id="circle1170" cx="79.436" cy="956.362" r="13.328" style="fill:none;fill-opacity:1;stroke:#fff;stroke-width:13.2165;stroke-miterlimit:4;stroke-dasharray:none;stroke-opacity:1;stop-color:#000"/><path id="path1172" d="M92.764 950.035v12.656h19.869v13.447h13.209V962.69h6.658v-12.656z" style="fill:#fff;fill-opacity:1;stroke:none;stroke-width:29.7564;stroke-miterlimit:4;stroke-dasharray:none;stroke-opacity:1;stop-color:#000"/></g></svg>