<svg id="Layer_1" data-name="Layer 1" xmlns="http://www.w3.org/2000/svg" viewBox="0 0 192 192"><defs><style>.cls-1{fill:#98dc9a;isolation:isolate;}.cls-2{fill:#fff;}</style></defs><circle id="circle965" class="cls-1" cx="96" cy="96" r="88"/><path class="cls-2" d="M129.82,72.54A16.32,16.32,0,0,1,128,73.7a18.84,18.84,0,0,1-10.22,2.23,23,23,0,0,1-9-2.41c-9.1-4.17-25.49-3.69-35.23,4.2C66.92,83.05,64.4,91,62.91,95.6a75,75,0,0,0-2.65,13.63c-.42,3.3-.64,6.27-.76,8.81a1.68,1.68,0,0,0,2.68,1.42A16.32,16.32,0,0,1,64,118.3a18.84,18.84,0,0,1,10.22-2.23,23,23,0,0,1,9,2.41c9.1,4.17,25.49,3.69,35.23-4.2,6.58-5.33,9.1-13.23,10.59-17.88a75,75,0,0,0,2.65-13.63c.42-3.3.64-6.27.76-8.81A1.68,1.68,0,0,0,129.82,72.54Zm-10.94,20c-.17.27-.72.17-1.23.11a16.61,16.61,0,0,0-4.86.62c-2.11.43-3.6,1.41-6.56,3.35a42.43,42.43,0,0,0-3.87,2.87c-.16.2-.58.68-.81.58s-.12-.89-.07-1.18a11.79,11.79,0,0,1,2.65-5.16,15.73,15.73,0,0,1,3.07-2.67A38.4,38.4,0,0,0,93,92.36a41.64,41.64,0,0,0-14.44,7.72,50.71,50.71,0,0,0-7,6.53c-.66.24-1.18.16-1.29-.08s.12-.49.2-.58a37.16,37.16,0,0,1,3-4.43C82.94,89.41,97,87.17,98.69,86.93a38.09,38.09,0,0,1,9.64-.15A17.6,17.6,0,0,0,102,83.64c-.57-.14-1.13-.25-1.66-.33a2.09,2.09,0,0,1-1.54-.63.74.74,0,0,1-.23-.58c.15-.62,2.07-.66,2.52-.67,5.51-.1,12.27,5,13.39,5.89,1,.75,1.72,1.4,2.18,1.8h0S119.35,91.85,118.88,92.57Z"/></svg>