<svg width="192" height="192" viewBox="0 0 192 192" fill="none" xmlns="http://www.w3.org/2000/svg">
<rect x="20" y="20" width="152" height="152" rx="10" fill="white"/>
<path d="M29.5 172.001L31 152.501L44 117.501V114.001H40L44 111.001L41.5 108.001L46.5 107.001V103.501L44 100.501L46.5 96.5005V93.5005L45.5 91.5005L48.5 86.0005L54.5 82.0005L56 77.0005L59.5 78.5005L61.5 74.5005L65.5 72.5005H67.5L61.5 68.5005L67.5 67.0005L65.5 61.5005L67.5 57.5005L64 56.0005L62.5 50.0005L59.5 47.5005C59.5 47.5005 57.4848 46.2933 57 45.0005C56.5886 43.9036 57 42.0005 57 42.0005C57 42.0005 52.7173 39.6357 51.5 37.0005C50.1898 34.1643 51.5 29.0005 51.5 29.0005C51.5 29.0005 52.5145 33.2915 54.5 35.0005C56.6548 36.8553 61.5 37.0005 61.5 37.0005C61.5 37.0005 62.5 26.9772 74.5 23.5005C80.1763 21.856 89.5 25.5005 89.5 25.5005H92C92 25.5005 91.5 18.9997 97 16.0005C102.5 13.0014 105 18.5005 105 18.5005C105 18.5005 107.805 21.9344 106.5 23.5005C104 26.5005 96 29.0005 96 29.0005C96 29.0005 101.471 30.2323 105 30.0005C111.55 29.5703 113.976 24.2198 120.5 23.5005C123.023 23.2224 124.558 24.1918 127 23.5005C131.121 22.3343 130.841 14.9796 135 16.0005C135 19 140.5 21.5 138.5 26.5005C135 24.5005 131 24.5005 131 24.5005C131 24.5005 128.681 26.0256 127 26.5005C124.557 27.1909 122.979 25.9543 120.5 26.5005C115.733 27.5509 115.301 32.1165 110.5 33C105.935 33.84 99 31.0005 99 31.0005L102.5 35.0005C102.5 35.0005 110.122 34.604 114 37.0005C117.424 39.1168 117.887 41.9384 120.5 45.0005C121.847 46.5795 124 49.0005 124 49.0005L120 48.0005C120 48.0005 117.447 43.3024 115 41.0005C113.222 39.3279 110.56 39.9493 108 39C104.133 37.566 100.5 35.0005 100.5 35.0005C100.5 35.0005 101.291 39.3839 100.5 42.0005C99.7629 44.4374 97 47.5005 97 47.5005L102.5 44.0005V49.0005L108 46.5005V51.5005C108 51.5005 109.473 52.2758 110.5 52.5005C111.835 52.7926 114 52.5005 114 52.5005V50.0005L117.5 55.0005V59.0005L120 56.0005L117.5 61.5005L120.5 65.5005H124L119 67.0005C119 67.0005 124 72.5005 128.5 72.5005H134L136.5 78.5005L143 79.5005L145 82.0005L149 83.0005V96.5005L152.5 104.501L155.5 105.501L152.5 108.001L155.5 111.001L152.5 112.001L153.5 116.001L158 119.501L153.5 123.501C153.5 123.501 152.5 132.5 152.5 141.501C152.5 142.922 153.5 145.001 153.5 145.001L157 138.501L159.5 140.001L155.5 172.001H135C135 172.001 137.09 158.287 136.5 149.501C136.089 143.383 134 134.001 134 134.001L131 136.501L129.5 143.001L126 152.501L127 164.001L129.5 168.501V172.001H64V164.001L65.5 162.501L64 156.001L67.5 151.001L64 149.501L65.5 131.501C65.5 131.501 58 149.501 54.5 160.501C53.5362 163.53 56 168.501 56 168.501L50.5 172.001H29.5Z" fill="#4A4A4A"/>
<mask id="mask0_1031:1285" style="mask-type:alpha" maskUnits="userSpaceOnUse" x="29" y="15" width="131" height="157">
<path d="M29.5 172.001L31 152.501L44 117.501V114.001H40L44 111.001L41.5 108.001L46.5 107.001V103.501L44 100.501L46.5 96.5005V93.5005L45.5 91.5005L48.5 86.0005L54.5 82.0005L56 77.0005L59.5 78.5005L61.5 74.5005L65.5 72.5005H67.5L61.5 68.5005L67.5 67.0005L65.5 61.5005L67.5 57.5005L64 56.0005L62.5 50.0005L59.5 47.5005C59.5 47.5005 57.4848 46.2933 57 45.0005C56.5886 43.9036 57 42.0005 57 42.0005C57 42.0005 52.7173 39.6357 51.5 37.0005C50.1898 34.1643 51.5 29.0005 51.5 29.0005C51.5 29.0005 52.5145 33.2915 54.5 35.0005C56.6548 36.8553 61.5 37.0005 61.5 37.0005C61.5 37.0005 62.5 26.9772 74.5 23.5005C80.1763 21.856 89.5 25.5005 89.5 25.5005H92C92 25.5005 91.5 18.9997 97 16.0005C102.5 13.0014 105 18.5005 105 18.5005C105 18.5005 107.805 21.9344 106.5 23.5005C104 26.5005 96 29.0005 96 29.0005C96 29.0005 101.471 30.2323 105 30.0005C111.55 29.5703 113.976 24.2198 120.5 23.5005C123.023 23.2224 124.558 24.1918 127 23.5005C131.121 22.3343 130.841 14.9796 135 16.0005C135 19 140.5 21.5 138.5 26.5005C135 24.5005 131 24.5005 131 24.5005C131 24.5005 128.681 26.0256 127 26.5005C124.557 27.1909 122.979 25.9543 120.5 26.5005C115.733 27.5509 115.301 32.1165 110.5 33C105.935 33.84 99 31.0005 99 31.0005L102.5 35.0005C102.5 35.0005 110.122 34.604 114 37.0005C117.424 39.1168 117.887 41.9384 120.5 45.0005C121.847 46.5795 124 49.0005 124 49.0005L120 48.0005C120 48.0005 117.447 43.3024 115 41.0005C113.222 39.3279 110.56 39.9493 108 39C104.133 37.566 100.5 35.0005 100.5 35.0005C100.5 35.0005 101.291 39.3839 100.5 42.0005C99.7629 44.4374 97 47.5005 97 47.5005L102.5 44.0005V49.0005L108 46.5005V51.5005C108 51.5005 109.473 52.2758 110.5 52.5005C111.835 52.7926 114 52.5005 114 52.5005V50.0005L117.5 55.0005V59.0005L120 56.0005L117.5 61.5005L120.5 65.5005H124L119 67.0005C119 67.0005 124 72.5005 128.5 72.5005H134L136.5 78.5005L143 79.5005L145 82.0005L149 83.0005V96.5005L152.5 104.501L155.5 105.501L152.5 108.001L155.5 111.001L152.5 112.001L153.5 116.001L158 119.501L153.5 123.501C153.5 123.501 152.5 132.5 152.5 141.501C152.5 142.922 153.5 145.001 153.5 145.001L157 138.501L159.5 140.001L155.5 172.001H135C135 172.001 137.09 158.287 136.5 149.501C136.089 143.383 134 134.001 134 134.001L131 136.501L129.5 143.001L126 152.501L127 164.001L129.5 168.501V172.001H64V164.001L65.5 162.501L64 156.001L67.5 151.001L64 149.501L65.5 131.501C65.5 131.501 58 149.501 54.5 160.501C53.5362 163.53 56 168.501 56 168.501L50.5 172.001H29.5Z" fill="#4A4A4A"/>
</mask>
<g mask="url(#mask0_1031:1285)">
<path d="M100.5 64C89.9851 64.0833 75.5 74 75.5 74H72L70.5 70.5L91.5 56H115.5L116.5 67.5C116.5 67.5 106.896 63.9493 100.5 64Z" fill="black" fill-opacity="0.169243"/>
<path d="M102 95.5C102.193 93.0924 103.5 89.5 103.5 89.5C103.5 89.5 98.6269 93 96.9999 98.5C95.9476 102.058 96.9999 108 96.9999 108L102 102H120.5L124.5 106C124.5 106 124.414 99.7726 122.5 96.5C119.283 91 113.5 89.5 113.5 89.5C113.5 89.5 116.1 91.9636 117 94C117.728 95.6466 118 98.5 118 98.5H102C102 98.5 101.907 96.6678 102 95.5Z" fill="#96DFD3"/>
<path d="M72.5 74L67.5 72.5H61.5L59.5 68L69.5 67V64.5H75L75.5 60L78.5 59L82 51.5L86.5 54L91 46L93.5 49.5L96 46L97 47.5L103.5 43L110 44.5L132 56.5C131 60.6667 128.7 69 127.5 69C126.3 69 120.667 67.6667 118 67H114.5V65V61.5V59L110.5 57.5H106H101.5L97 59L92.5 57.5L90 61.5H86.5L83.5 65H80L78.5 69H75.5L72.5 74Z" fill="#83868C"/>
<path d="M42.537 124.835C42.6632 122.564 42.312 120.254 42.7037 118.002C42.5493 117.693 42.7159 117.001 42.2037 117.206C41.6275 117.436 41.0862 117.463 40.6205 117.835C40.1358 118.223 40.1413 119.014 39.741 119.465C39.0745 120.214 38.7561 120.075 37.7319 120.178C35.9405 120.357 37.0759 123.234 36.0932 124.02C33.8892 125.783 32.9035 128.651 30.7233 130.464C28.4708 132.336 25.4356 133.609 23.5573 135.926C22.6251 137.076 22.5024 138.529 22.2055 139.926C21.7956 141.855 21.3481 143.843 21.1501 145.805C20.673 150.532 21.4099 155.329 20.8353 160.054C20.5069 162.753 18.9154 165.52 19.0484 168.247C19.0773 168.839 19.0874 169.869 19.5021 170.349C19.8726 170.777 20.9564 170.826 21.4834 171.034C23.8866 171.981 26.5061 172.023 29.0197 172.506C30.4872 172.788 31.9035 173.315 33.4082 173.33C34.4573 173.34 35.5069 173.33 36.5561 173.33H46.8514C49.9823 173.33 52.9499 173.876 56.0358 174.293C60.325 174.873 64.6589 174.677 68.9883 174.478C73.2826 174.281 77.551 173.744 81.8483 173.571C85.9061 173.407 89.9915 173.456 94.0508 173.534C99.6504 173.641 105.235 174.066 110.836 174.163L111.437 174.174C115.017 174.236 118.6 174.297 122.178 174.423C130.914 174.728 139.748 174.221 148.453 175.071C152.777 175.492 157.126 176.834 161.498 176.413C166.912 175.893 170.926 171.981 174.932 168.655C177.22 166.755 179.862 164.934 181.543 162.442C182.886 160.45 182.725 157.928 181.922 155.73C180.044 150.584 175.189 147.512 172.136 143.129C170.739 141.123 169.436 139.21 167.711 137.454C167.016 136.746 166.122 135.779 165.072 135.685C163.548 135.55 161.98 135.824 160.452 135.834C159.471 135.84 158.3 135.65 157.397 136.13C156.876 136.406 156.074 137.004 155.86 137.593C155.362 138.963 155.325 140.344 154.777 141.685C154.025 143.521 154.026 146.188 154.027 148.22L154.027 148.388C154.027 150.194 153.864 151.739 153.49 153.462C153.28 154.426 152.926 155.812 152.36 156.628C151.463 157.925 149.88 159.998 148.157 159.998C147.338 159.998 146.819 159.641 146.268 159.091C146.082 158.904 145.871 159.101 145.861 158.757C145.85 158.382 145.861 158.004 145.861 157.628C145.861 157.022 145.279 156.777 145.204 156.174C145.143 155.693 145.942 155.747 145.324 155.332C144.974 155.096 144.671 154.957 144.694 154.498C144.746 153.468 143.514 153.578 143.213 152.601C142.93 151.681 142.695 150.784 142.695 149.795V148.082C142.695 147.724 143.026 147.829 143.157 147.592C143.266 147.397 143.195 146.998 143.157 146.795C142.991 145.901 142.604 145.253 142.306 144.407C142.01 143.567 142.195 142.474 142.195 141.583C142.195 141.018 142.614 140.58 142.991 140.203C143.308 139.886 144.25 139.443 144.361 139C144.489 138.488 143.826 137.591 143.602 137.241C142.925 136.184 142.553 135.754 142.732 134.5C142.786 134.118 143.328 133.348 143.111 133C142.91 132.678 142.885 132.186 142.769 131.825C142.559 131.177 142.226 130.492 141.787 129.964C141.354 129.442 140.63 129.107 140.269 128.538C140.055 128.2 141.651 126.896 141.824 126.64C142.454 125.71 142.528 124.769 142.528 123.686C142.528 123.338 142.664 122.619 142.454 122.298C142.154 121.84 141.69 121.513 141.398 121.039C141.07 120.503 141.046 120.18 140.454 120.826C139.947 121.379 138.692 121.022 138.028 121.464C137.255 121.98 137.362 122.572 137.362 123.418C137.362 124.89 135.218 125.203 134.14 125.464C133.13 125.708 129.362 125.701 129.362 127.251C129.362 128.356 129.236 129.246 128.77 130.26C128.634 130.555 128.78 130.766 128.446 130.945C127.402 131.505 126.287 131.705 125.141 131.926C123.083 132.324 123.51 132.912 124.335 134.408C125.128 135.844 123.628 135.536 122.67 135.339L122.641 135.334C121.047 135.007 122.957 135.482 123.419 135.667C124.258 136.003 123.686 136.053 123.122 136.13L123.106 136.132C122.248 136.25 121.375 136.369 120.567 136.704C119.009 137.349 117.346 138.296 115.604 138.083C113.684 137.849 111.667 138 109.735 138C107.606 138 105.528 138.5 103.365 138.5C102.075 138.5 100.822 138.53 99.5689 138.167C98.7567 137.931 98.0283 137.578 97.2913 137.176C97.0523 137.046 96.9032 136.873 96.6154 136.843C95.1393 136.687 93.5765 135.846 92.6806 134.63C92.1365 133.892 92.3058 133.08 92.6158 132.288C92.8204 131.765 93.3476 132.39 93.662 132.547C94.2718 132.852 93.5517 132.446 93.5324 132.204C93.495 131.737 93.2844 131.715 92.8287 131.482C90.0338 130.051 87.4584 128.266 84.7461 126.733C83.7212 126.153 81.1043 124.57 81.0335 123.261C80.9705 122.096 81.8853 121.589 82.9778 121.511C83.4916 121.474 82.9046 121.445 82.663 121.298C81.9876 120.887 81.3789 120.343 80.7835 119.826C79.9761 119.124 79.2488 118.505 78.293 118.002C77.2467 117.451 76.0267 116.536 75.2192 115.678C74.6887 115.114 73.8969 114.337 73.4972 113.761C72.5023 112.329 72.6145 110.232 71.6825 108.679C71.0833 107.68 70.1929 106.495 69.3679 105.67C68.3592 104.661 67.4363 103.606 66.5719 102.466C66.0356 101.759 65.7016 102.518 65.7016 103.133C65.7016 105.037 65.9782 106.684 66.4978 108.503C66.8057 109.58 67.4277 110.699 67.8588 111.743C68.3479 112.928 68.4317 114.539 69.0346 115.632C70.0872 117.54 70.0345 119.549 70.0345 121.687C70.0345 122.037 70.1636 122.793 69.9327 123.075C69.0166 124.195 67.8519 124.534 67.3311 126.038C66.798 127.578 66.987 128.52 65.0442 128.843C64.6929 128.902 64.2864 129.978 63.9054 130.241C62.8662 130.961 62.061 131.719 61.202 132.639C60.5089 133.382 59.905 133.429 59.1096 133.871C58.9461 133.962 58.9306 134.817 58.8503 135C58.623 135.52 58.2744 136.254 57.8504 136.639C56.7537 137.636 55.4462 137.162 55.0359 138.778C54.5979 140.502 54.9995 142.121 54.0452 143.731C53.7919 144.158 53.6038 144.707 53.2212 145.036C52.7708 145.424 52.2821 145.511 52.5731 146.166C53.0212 147.174 53.4414 148.358 51.9528 148.082C50.8786 147.883 52.0938 149.262 52.3139 149.647C52.7544 150.418 52.9196 151.148 53.2027 151.962C53.7802 153.622 51.2847 152.351 50.2956 152.351C49.9526 152.351 50.1177 152.488 50.2956 152.582C50.3879 152.631 50.659 152.751 50.5548 152.758C50.1895 152.781 49.7829 152.665 49.4068 152.665C48.8024 152.665 48.4789 153.109 47.9347 153.156C45.8833 153.334 44.3611 151.768 44.7405 149.703C44.9252 148.697 45.7185 148.605 46.5089 148.249C47.0405 148.01 47.7032 146.823 47.7032 146.259C47.7032 145.46 47.3413 145.794 46.7403 145.333C46.4543 145.113 46.2672 144.815 46.0089 144.583C45.4808 144.107 44.2591 144.092 43.5925 143.925C43.2137 143.831 40.0972 142.811 40.6483 142.296C41.4996 141.499 43.2367 141.139 44.3054 140.694C44.4402 140.638 45.1324 140.457 45.1942 140.241C45.4799 139.24 44.2797 138.861 43.7221 138.278C43.449 137.992 43.8722 137.668 43.6573 137.574C43.0792 137.321 42.4289 137.248 41.8241 137.083C40.7735 136.797 42.5749 136.929 42.8148 136.963C43.1127 137.006 43.8423 137.565 43.6295 137.352C42.7335 136.456 41.6882 135.694 40.6483 135C39.5089 134.241 44.467 131.92 44.8886 131.667C45.1865 131.489 45.79 131.124 45.259 130.982C44.3986 130.753 43.5117 130.326 42.6944 129.982C42.5508 129.922 38.8549 128.474 39.815 127.834C40.7485 127.212 42.2552 127.887 42.3611 126.51C42.4038 125.955 42.508 125.357 42.537 124.835Z" fill="black" fill-opacity="0.169243"/>
<path d="M66.5 103.5L64.5 99.5005L66.5 102L90.5 90.5005L84.5 82.0005C84.5 82.0005 98.8048 80.3807 108 80.5005C115.637 80.6 127.5 82.0005 127.5 82.0005L130.5 94.0005L148.5 98.0005L149.5 95.5005" stroke="black" stroke-opacity="0.169243"/>
<path d="M69 38.499L62.5 48.5V59.5L70 56.9991L81.5 47.4991L82.5 50.9991C82.5 50.9991 84.0666 51.6488 84.5 50.9991C85.5 49.5 87.9198 45.5995 86.5 42.499C85.4589 40.2255 83.934 37.9259 81.5 38.499C79.2835 39.021 80.0474 41.8285 78.5 43.499C76.4746 45.6857 72 47.4991 72 47.4991L69 38.499Z" fill="#D8D8D8" fill-opacity="0.1"/>
<path d="M69 52L63 55.4286L67.3636 58L69 52Z" fill="#4A4A4A"/>
<path d="M57.5 115L55 118.5L59 117.5L57.5 115Z" fill="#D8D8D8" fill-opacity="0.2"/>
<path d="M54 103.5L51.5 107.5L57.5 105.5L54 103.5Z" fill="#D8D8D8" fill-opacity="0.2"/>
<path d="M47.5 107.5H41.5L44.5 110L47.5 107.5Z" fill="#D8D8D8" fill-opacity="0.2"/>
<path d="M39.5 115L46 111.5L43 110L39.5 115Z" fill="#D8D8D8" fill-opacity="0.2"/>
<path d="M61 87L64.5 90L66 87H61Z" fill="#D8D8D8" fill-opacity="0.2"/>
<path d="M78.5 83L82.5 87V84L78.5 83Z" fill="#D8D8D8" fill-opacity="0.2"/>
<path d="M69.5 74.5L72.5 78L74 76L69.5 74.5Z" fill="#D8D8D8" fill-opacity="0.2"/>
<path d="M134 72.5L129 76L126.5 71.5L134 72.5Z" fill="#D8D8D8" fill-opacity="0.2"/>
<path d="M138 84L132 86V83L138 84Z" fill="#D8D8D8" fill-opacity="0.2"/>
<path d="M138 81L136 78L143 79.5L138 81Z" fill="#D8D8D8" fill-opacity="0.2"/>
<path d="M141.5 86L148.5 83H145.5L141.5 86Z" fill="#D8D8D8" fill-opacity="0.2"/>
<path d="M147.5 106.5L155.5 105.5L152 104.5L147.5 106.5Z" fill="#D8D8D8" fill-opacity="0.2"/>
<path d="M147.5 110L155.5 111.5L152 107.5L147.5 110Z" fill="#D8D8D8" fill-opacity="0.2"/>
<path d="M148.5 117.5L157 118.5L153 116.5L148.5 117.5Z" fill="#D8D8D8" fill-opacity="0.2"/>
</g>
<ellipse cx="110" cy="103.5" rx="19" ry="19.5" stroke="black" stroke-opacity="0.169243"/>
<ellipse cx="110" cy="103.5" rx="17" ry="17.5" stroke="black" stroke-opacity="0.169243"/>
<path d="M119 105H103L100.5 109L109.5 118.5L105 109H116L112.5 118.5L121.5 109L119 105Z" fill="#96DFD3"/>
</svg>
