<svg xmlns="http://www.w3.org/2000/svg" width="192" height="192" fill="none"><rect width="152" height="152" x="20" y="20" fill="#fff" rx="10"/><path fill="#4A4A4A" d="m29.5 172.001 1.5-19.5 13-35v-3.5h-4l4-3-2.5-3 5-1v-3.5l-2.5-3 2.5-4v-3l-1-2 3-5.5 6-4 1.5-5 3.5 1.5 2-4 4-2h2l-6-4 6-1.5-2-5.5 2-4L64 56l-1.5-6-3-2.5S57.485 46.293 57 45c-.411-1.097 0-3 0-3s-4.283-2.365-5.5-5c-1.31-2.837 0-8 0-8s1.014 4.29 3 6c2.155 1.854 7 2 7 2s1-10.024 13-13.5c5.676-1.645 15 2 15 2H92S91.5 19 97 16c5.5-3 8 2.5 8 2.5s2.805 3.433 1.5 5C104 26.5 96 29 96 29s5.471 1.231 9 1c6.55-.43 8.976-5.781 15.5-6.5 2.523-.279 4.058.69 6.5 0 4.121-1.167 3.841-8.521 8-7.5 0 2.999 5.5 5.499 3.5 10.5-3.5-2-7.5-2-7.5-2s-2.319 1.525-4 2c-2.443.69-4.021-.547-6.5 0-4.767 1.05-5.199 5.616-10 6.499-4.565.84-11.5-2-11.5-2l3.5 4s7.622-.396 11.5 2c3.424 2.117 3.887 4.938 6.5 8 1.347 1.58 3.5 4 3.5 4l-4-1s-2.553-4.698-5-7c-1.778-1.672-4.44-1.05-7-2-3.867-1.434-7.5-4-7.5-4s.791 4.384 0 7c-.737 2.437-3.5 5.5-3.5 5.5l5.5-3.5v5l5.5-2.5v5s1.473.776 2.5 1c1.335.293 3.5 0 3.5 0V50l3.5 5v4l2.5-3-2.5 5.5 3 4h3.5l-5 1.5s5 5.5 9.5 5.5h5.5l2.5 6 6.5 1 2 2.5 4 1v13.5l3.5 8.001 3 1-3 2.5 3 3-3 1 1 4 4.5 3.5-4.5 4s-1 8.999-1 18c0 1.421 1 3.5 1 3.5l3.5-6.5 2.5 1.5-4 32H135s2.09-13.714 1.5-22.5c-.411-6.118-2.5-15.5-2.5-15.5l-3 2.5-1.5 6.5-3.5 9.5 1 11.5 2.5 4.5v3.5H64v-8l1.5-1.5-1.5-6.5 3.5-5-3.5-1.5 1.5-18s-7.5 18-11 29c-.964 3.029 1.5 8 1.5 8l-5.5 3.5h-21Z"/><mask id="a" width="131" height="157" x="29" y="15" maskUnits="userSpaceOnUse" style="mask-type:alpha"><path fill="#4A4A4A" d="m29.5 172.001 1.5-19.5 13-35v-3.5h-4l4-3-2.5-3 5-1v-3.5l-2.5-3 2.5-4v-3l-1-2 3-5.5 6-4 1.5-5 3.5 1.5 2-4 4-2h2l-6-4 6-1.5-2-5.5 2-4L64 56l-1.5-6-3-2.5S57.485 46.293 57 45c-.411-1.097 0-3 0-3s-4.283-2.365-5.5-5c-1.31-2.837 0-8 0-8s1.014 4.29 3 6c2.155 1.854 7 2 7 2s1-10.024 13-13.5c5.676-1.645 15 2 15 2H92S91.5 19 97 16c5.5-3 8 2.5 8 2.5s2.805 3.433 1.5 5C104 26.5 96 29 96 29s5.471 1.231 9 1c6.55-.43 8.976-5.781 15.5-6.5 2.523-.279 4.058.69 6.5 0 4.121-1.167 3.841-8.521 8-7.5 0 2.999 5.5 5.499 3.5 10.5-3.5-2-7.5-2-7.5-2s-2.319 1.525-4 2c-2.443.69-4.021-.547-6.5 0-4.767 1.05-5.199 5.616-10 6.499-4.565.84-11.5-2-11.5-2l3.5 4s7.622-.396 11.5 2c3.424 2.117 3.887 4.938 6.5 8 1.347 1.58 3.5 4 3.5 4l-4-1s-2.553-4.698-5-7c-1.778-1.672-4.44-1.05-7-2-3.867-1.434-7.5-4-7.5-4s.791 4.384 0 7c-.737 2.437-3.5 5.5-3.5 5.5l5.5-3.5v5l5.5-2.5v5s1.473.776 2.5 1c1.335.293 3.5 0 3.5 0V50l3.5 5v4l2.5-3-2.5 5.5 3 4h3.5l-5 1.5s5 5.5 9.5 5.5h5.5l2.5 6 6.5 1 2 2.5 4 1v13.5l3.5 8.001 3 1-3 2.5 3 3-3 1 1 4 4.5 3.5-4.5 4s-1 8.999-1 18c0 1.421 1 3.5 1 3.5l3.5-6.5 2.5 1.5-4 32H135s2.09-13.714 1.5-22.5c-.411-6.118-2.5-15.5-2.5-15.5l-3 2.5-1.5 6.5-3.5 9.5 1 11.5 2.5 4.5v3.5H64v-8l1.5-1.5-1.5-6.5 3.5-5-3.5-1.5 1.5-18s-7.5 18-11 29c-.964 3.029 1.5 8 1.5 8l-5.5 3.5h-21Z"/></mask><g mask="url(#a)"><path fill="#000" fill-opacity=".169" d="M100.5 64c-10.515.083-25 10-25 10H72l-1.5-3.5 21-14.5h24l1 11.5s-9.604-3.55-16-3.5Z"/><path fill="#96DFD3" d="M102 95.5c.193-2.408 1.5-6 1.5-6s-4.873 3.5-6.5 9c-1.052 3.558 0 9.5 0 9.5l5-6h18.5l4 4s-.086-6.227-2-9.5c-3.217-5.5-9-7-9-7s2.6 2.464 3.5 4.5c.728 1.647 1 4.5 1 4.5h-16s-.093-1.832 0-3Z"/><path fill="#83868C" d="m72.5 74-5-1.5h-6l-2-4.5 10-1v-2.5H75l.5-4.5 3-1 3.5-7.5 4.5 2.5 4.5-8 2.5 3.5L96 46l1 1.5 6.5-4.5 6.5 1.5 22 12c-1 4.167-3.3 12.5-4.5 12.5-1.2 0-6.833-1.333-9.5-2h-3.5v-8l-4-1.5h-9L97 59l-4.5-1.5-2.5 4h-3.5l-3 3.5H80l-1.5 4h-3l-3 5Z"/><path fill="#000" fill-opacity=".169" d="M42.537 124.835c.126-2.271-.225-4.581.167-6.833-.155-.309.012-1.001-.5-.796-.577.23-1.118.257-1.584.629-.484.388-.479 1.179-.879 1.63-.666.749-.985.61-2.01.713-1.79.179-.655 3.056-1.638 3.842-2.204 1.763-3.19 4.631-5.37 6.444-2.252 1.872-5.287 3.145-7.166 5.462-.932 1.15-1.055 2.603-1.351 4-.41 1.929-.858 3.917-1.056 5.879-.477 4.727.26 9.524-.315 14.249-.328 2.699-1.92 5.466-1.787 8.193.03.592.04 1.622.454 2.102.37.428 1.454.477 1.981.685 2.404.947 5.023.989 7.537 1.472 1.467.282 2.884.809 4.388.824 1.05.01 2.099 0 3.148 0h10.295c3.131 0 6.099.546 9.185.963 4.289.58 8.623.384 12.952.185 4.295-.197 8.563-.734 12.86-.907 4.058-.164 8.144-.115 12.203-.037 5.6.107 11.184.532 16.785.629l.601.011c3.58.062 7.163.123 10.741.249 8.736.305 17.57-.202 26.275.648 4.324.421 8.673 1.763 13.045 1.342 5.414-.52 9.428-4.432 13.434-7.758 2.288-1.9 4.93-3.721 6.611-6.213 1.343-1.992 1.182-4.514.379-6.712-1.878-5.146-6.733-8.218-9.786-12.601-1.397-2.006-2.7-3.919-4.425-5.675-.695-.708-1.589-1.675-2.639-1.769-1.524-.135-3.092.139-4.62.149-.981.006-2.152-.184-3.055.296-.521.276-1.323.874-1.537 1.463-.498 1.37-.535 2.751-1.083 4.092-.752 1.836-.751 4.503-.75 6.535v.168c0 1.806-.163 3.351-.537 5.074-.21.964-.564 2.35-1.13 3.166-.897 1.297-2.48 3.37-4.203 3.37-.819 0-1.338-.357-1.889-.907-.186-.187-.397.01-.407-.334-.011-.375 0-.753 0-1.129 0-.606-.582-.851-.657-1.454-.061-.481.738-.427.12-.842-.35-.236-.653-.375-.63-.834.052-1.03-1.18-.92-1.481-1.897-.283-.92-.518-1.817-.518-2.806v-1.713c0-.358.331-.253.462-.49.109-.195.038-.594 0-.797-.166-.894-.553-1.542-.851-2.388-.296-.84-.111-1.933-.111-2.824 0-.565.419-1.003.796-1.38.317-.317 1.259-.76 1.37-1.203.128-.512-.535-1.409-.759-1.759-.677-1.057-1.049-1.487-.87-2.741.054-.382.596-1.152.379-1.5-.201-.322-.226-.814-.342-1.175-.21-.648-.543-1.333-.982-1.861-.433-.522-1.157-.857-1.518-1.426-.214-.338 1.382-1.642 1.555-1.898.63-.93.704-1.871.704-2.954 0-.348.136-1.067-.074-1.388-.3-.458-.764-.785-1.056-1.259-.328-.536-.352-.859-.944-.213-.507.553-1.762.196-2.426.638-.773.516-.666 1.108-.666 1.954 0 1.472-2.144 1.785-3.222 2.046-1.01.244-4.778.237-4.778 1.787 0 1.105-.126 1.995-.592 3.009-.136.295.01.506-.324.685-1.044.56-2.159.76-3.305.981-2.058.398-1.631.986-.806 2.482.793 1.436-.707 1.128-1.665.931l-.029-.005c-1.594-.327.316.148.778.333.839.336.267.386-.297.463l-.016.002c-.858.118-1.731.237-2.539.572-1.558.645-3.221 1.592-4.963 1.379-1.92-.234-3.937-.083-5.869-.083-2.129 0-4.207.5-6.37.5-1.29 0-2.543.03-3.796-.333-.812-.236-1.54-.589-2.278-.991-.239-.13-.388-.303-.676-.333-1.476-.156-3.038-.997-3.934-2.213-.544-.738-.375-1.55-.065-2.342.204-.523.732.102 1.046.259.61.305-.11-.101-.13-.343-.037-.467-.248-.489-.703-.722-2.795-1.431-5.37-3.216-8.083-4.749-1.025-.58-3.642-2.163-3.712-3.472-.064-1.165.851-1.672 1.944-1.75.514-.037-.073-.066-.315-.213-.675-.411-1.284-.955-1.88-1.472-.807-.702-1.534-1.321-2.49-1.824-1.046-.551-2.266-1.466-3.074-2.324-.53-.564-1.322-1.341-1.722-1.917-.995-1.432-.882-3.529-1.814-5.082-.6-.999-1.49-2.184-2.315-3.009a30.97 30.97 0 0 1-2.796-3.204c-.536-.707-.87.052-.87.667 0 1.904.276 3.551.796 5.37.308 1.077.93 2.196 1.36 3.24.49 1.185.574 2.796 1.177 3.889 1.052 1.908 1 3.917 1 6.055 0 .35.129 1.106-.102 1.388-.916 1.12-2.081 1.459-2.602 2.963-.533 1.54-.344 2.482-2.287 2.805-.351.059-.758 1.135-1.139 1.398-1.039.72-1.844 1.478-2.703 2.398-.693.743-1.297.79-2.092 1.232-.164.091-.18.946-.26 1.129-.227.52-.576 1.254-1 1.639-1.096.997-2.404.523-2.814 2.139-.438 1.724-.037 3.343-.99 4.953-.254.427-.442.976-.825 1.305-.45.388-.939.475-.648 1.13.448 1.008.868 2.192-.62 1.916-1.074-.199.14 1.18.36 1.565.441.771.607 1.501.89 2.315.577 1.66-1.918.389-2.907.389-.343 0-.178.137 0 .231.092.049.363.169.259.176-.365.023-.772-.093-1.148-.093-.605 0-.928.444-1.472.491-2.052.178-3.574-1.388-3.195-3.453.185-1.006.978-1.098 1.769-1.454.532-.239 1.194-1.426 1.194-1.99 0-.799-.362-.465-.963-.926-.286-.22-.473-.518-.731-.75-.528-.476-1.75-.491-2.416-.658-.38-.094-3.496-1.114-2.945-1.629.852-.797 2.589-1.157 3.657-1.602.135-.056.827-.237.89-.453.285-1.001-.915-1.38-1.473-1.963-.273-.286.15-.61-.065-.704-.578-.253-1.228-.326-1.833-.491-1.05-.286.75-.154.99-.12.299.043 1.028.602.816.389-.897-.896-1.942-1.658-2.982-2.352-1.14-.759 3.819-3.08 4.24-3.333.299-.178.902-.543.371-.685-.86-.229-1.747-.656-2.565-1-.143-.06-3.84-1.508-2.879-2.148.934-.622 2.44.053 2.546-1.324.043-.555.147-1.153.176-1.675Z"/><path stroke="#000" stroke-opacity=".169" d="m66.5 103.5-2-4 2 2.5 24-11.5-6-8.5s14.305-1.62 23.5-1.5c7.637.1 19.5 1.5 19.5 1.5l3 12 18 4 1-2.5"/><path fill="#D8D8D8" fill-opacity=".1" d="M69 38.499 62.5 48.5v11L70 57l11.5-9.5 1 3.5s1.567.649 2 0c1-1.5 3.42-5.4 2-8.501-1.041-2.274-2.566-4.573-5-4-2.216.522-1.453 3.33-3 5-2.025 2.187-6.5 4-6.5 4l-3-9Z"/><path fill="#4A4A4A" d="m69 52-6 3.429L67.364 58 69 52Z"/><path fill="#D8D8D8" fill-opacity=".2" d="m57.5 115-2.5 3.5 4-1-1.5-2.5ZM54 103.5l-2.5 4 6-2-3.5-2ZM47.5 107.5h-6l3 2.5 3-2.5ZM39.5 115l6.5-3.5-3-1.5-3.5 5ZM61 87l3.5 3 1.5-3h-5ZM78.5 83l4 4v-3l-4-1ZM69.5 74.5l3 3.5 1.5-2-4.5-1.5ZM134 72.5l-5 3.5-2.5-4.5 7.5 1ZM138 84l-6 2v-3l6 1ZM138 81l-2-3 7 1.5-5 1.5ZM141.5 86l7-3h-3l-4 3ZM147.5 106.5l8-1-3.5-1-4.5 2ZM147.5 110l8 1.5-3.5-4-4.5 2.5ZM148.5 117.5l8.5 1-4-2-4.5 1Z"/></g><ellipse cx="110" cy="103.5" stroke="#000" stroke-opacity=".169" rx="19" ry="19.5"/><ellipse cx="110" cy="103.5" stroke="#000" stroke-opacity=".169" rx="17" ry="17.5"/><path fill="#96DFD3" d="M119 105h-16l-2.5 4 9 9.5-4.5-9.5h11l-3.5 9.5 9-9.5-2.5-4Z"/></svg>