<svg xmlns="http://www.w3.org/2000/svg" id="svg2" width="192" height="192" version="1.1"><g id="layer1" transform="translate(0 -860.362)"><path id="path933" d="M95.977 868.362c-20.658 0-37.492 18.86-38.392 42.455H21.35c-1.817.04-3.257 1.53-3.257 3.388v.262l5.213 115.263c.774 7.935 6.507 14.263 14.342 14.573v.059h115.48c7.945-.193 14.451-6.695 15.072-14.717l2.172-43.89 3.535-71.395v-.154c0-1.867-1.446-3.389-3.29-3.389h-36.202c-.913-23.596-17.792-42.455-38.438-42.455zm0 10.306c15.035 0 27.32 14.265 27.928 32.149H68.087c.536-17.884 12.855-32.149 27.89-32.149z" style="fill:#f7c18c;fill-opacity:1;stroke-width:.999993"/><path id="path935" d="M123.904 910.817H99.402c-9.405 7.079-15.605 18.114-15.605 32.727 0 49.99 71.343 37.681 71.343 69.585 0 12.31-10.299 19.594-24.367 19.594-15.324 0-26.878-8.542-32.154-21.354l-21.101 12.813c3.68 7.888 9.349 14.8 16.459 20.18h59.15c7.946-.194 14.452-6.695 15.072-14.717l2.176-43.969c-19.362-22.38-61.959-20.014-61.959-43.892 0-11.807 9.294-17.332 20.348-17.332 10.048 0 19.092 4.521 25.874 13.062l17.334-15.826c-3.335-4.125-7.45-7.808-12.136-10.87h-25.422z" style="font-style:normal;font-variant:normal;font-weight:500;font-stretch:normal;font-size:200.97px;line-height:1.25;font-family:Now;-inkscape-font-specification:&quot;Now Medium&quot;;letter-spacing:0;word-spacing:0;fill:#fcecdc;fill-opacity:1;stroke-width:5.02422"/></g><style id="style853" type="text/css">.st0{fill:#fff}</style></svg>