<svg width="192" height="192" version="1.1" viewBox="0 0 192 192" xmlns="http://www.w3.org/2000/svg">
 <circle cx="96" cy="96" r="88" opacity=".63" style="fill:#54688c;opacity:1"/>
 <path d="m67.012 108.26 0.23111 20.107s7.0891 9.2971 32.124 9.7067c19.43 0.31789 27.216-12.266 28.196-24.729 2.0512-26.085-39.966-29.94-39.52-32.587 0.533-3.1596 5.347-4.4118 8.5511-4.3911 9.7055 0.06261 23.111 7.6267 23.111 7.6267l1.3867-7.1644 9.4756 0.46222-1.2006-2.5422-3.4217-0.23111 1.8489-9.4755-2.08-1.1556 1.1556-3.6978s-5.5056 0.7871-12.711-0.23111c-5.3466-0.75553-10.322-4.1911-15.716-3.9289-24.808 1.2059-27.733 19.876-27.733 19.876l-6.9333-0.46222-1.3867 1.1556 1.6178 0.23111s-3.4988 13.944 11.556 24.267c8.1766 5.6065 27.786 8.8074 27.502 11.324-0.41699 3.6999-6.4501 4.437-10.169 4.6222-9.1 0.45323-25.884-8.7822-25.884-8.7822z" style="fill:#ff837d;stroke-width:1.1014"/>
</svg>
