<?xml version="1.0" encoding="UTF-8"?>
<svg width="192" height="192" version="1.1" viewBox="0 0 192 192" xml:space="preserve" xmlns="http://www.w3.org/2000/svg" xmlns:cc="http://creativecommons.org/ns#" xmlns:dc="http://purl.org/dc/elements/1.1/" xmlns:rdf="http://www.w3.org/1999/02/22-rdf-syntax-ns#" xmlns:xlink="http://www.w3.org/1999/xlink"><metadata><rdf:RDF><cc:Work rdf:about=""><dc:format>image/svg+xml</dc:format><dc:type rdf:resource="http://purl.org/dc/dcmitype/StillImage"/></cc:Work></rdf:RDF></metadata><circle cx="96" cy="96" r="88" fill="#fff"/><path d="m127.78 64.222v63.557c0 5.8426-4.7502 10.593-10.593 10.593h-42.371c-5.8426 0-10.593-4.7502-10.593-10.593v-52.964l21.186-21.186h31.778c5.8426 0 10.593 4.7502 10.593 10.593zm-37.075 31.778h10.593v-10.593h-10.593zm-15.889 0h10.593v-10.593h-5.2964c-2.9296 0-5.2964 2.3668-5.2964 5.2964zm10.593 21.186h-10.593v5.2964c0 2.9296 2.3668 5.2964 5.2964 5.2964h5.2964zm15.889 0h-10.593v10.593h10.593zm15.889 0h-10.593v10.593h5.2964c2.9296 0 5.2964-2.3668 5.2964-5.2964zm0-15.889h-42.371v10.593h42.371zm0-10.593c0-2.9296-2.3668-5.2964-5.2964-5.2964h-5.2964v10.593h10.593z" fill="#56595b" stroke-width=".16551"/></svg>
