<?xml version="1.0" encoding="UTF-8"?>
<svg width="192" height="192" version="1.1" viewBox="0 0 192 192" xml:space="preserve" xmlns="http://www.w3.org/2000/svg" xmlns:cc="http://creativecommons.org/ns#" xmlns:dc="http://purl.org/dc/elements/1.1/" xmlns:rdf="http://www.w3.org/1999/02/22-rdf-syntax-ns#"><metadata><rdf:RDF><cc:Work rdf:about=""><dc:format>image/svg+xml</dc:format><dc:type rdf:resource="http://purl.org/dc/dcmitype/StillImage"/></cc:Work></rdf:RDF></metadata><circle cx="96" cy="96" r="88" fill="#f8c18c"/><path d="m69.859 127.01 18.68 1e-5a2 2 135 0 0 2-2v-14.436a2 2 135 0 1 2-2h7.2738a2 2 45 0 1 2 2v14.436a2 2 45 0 0 2 2h18.68a1.9764 1.9764 134.66 0 0 1.9763-1.9999l-0.36652-30.908c-0.0131-1.1045 0.72107-1.5028 1.6395-0.88909 0.70193 0.46902 1.5258 1.0198 2.263 1.5136 0.91777 0.61461 2.4033 1.7152 3.4842 1.8987 2.1698 0.36836 3.4121-1.6149 2.4071-3.5413-0.5067-0.9712-2.0296-2.0236-2.9136-2.6859-8.425-6.3119-27.611-20.684-33.273-24.924-0.88406-0.6622-2.3105-0.65307-3.186 0.0204l-19.244 14.803a0.9848 0.9848 26.216 0 1-1.5852-0.78058v-0.50951c0-1.1046-4e-3 -3.0685-0.82901-3.7453-1.1015-0.90373-3.0329-0.95573-4.104-0.03094-0.80932 0.6988-0.77021 2.6717-0.77021 3.7763v4.2232c0 1.1046-0.71409 2.5403-1.5953 3.2063-1.3634 1.0305-3.3448 2.5271-4.8958 3.6942-0.88257 0.66415-2.4304 1.7357-2.8133 2.7557-0.73167 1.9493 0.76995 4.1126 2.8949 3.7123 1.0741-0.20235 2.4575-1.461 3.3065-2.1677 0.57961-0.48247 1.1786-0.98232 1.7013-1.4189 0.84773-0.70811 1.5275-0.3876 1.5192 0.71694l-0.23519 31.28a1.985 1.985 45.215 0 0 1.985 1.9999z" fill="#fff" stroke-width="0"/></svg>
