<svg width="192" height="192" version="1.1" viewBox="0 0 192 192" xmlns="http://www.w3.org/2000/svg">
 <circle cx="96" cy="96" r="88" fill="#f8c18c"/>
 <g transform="matrix(.75 0 0 .75 -7.4488 4.7217)">
  <path d="m117.94 122.03a42.483 42.483 0 0 0 19.819 19.768 4.0654 4.0654 0 0 0 4.0146-0.3049l12.704-8.4865a4.0146 4.0146 0 0 1 3.8621-0.35574l23.783 10.214a4.0146 4.0146 0 0 1 2.4392 4.2178 24.392 24.392 0 0 1-24.189 21.292 69.112 69.112 0 0 1-69.112-69.112 24.392 24.392 0 0 1 21.292-24.189 4.0146 4.0146 0 0 1 4.2178 2.4392l10.214 23.833a4.0654 4.0654 0 0 1-0.30491 3.8113l-8.4865 12.908a4.0654 4.0654 0 0 0-0.25409 3.9638z" fill="#fff" stroke-linecap="round" stroke-linejoin="round" stroke-width="8.1308"/>
 </g>
</svg>
