<svg xmlns="http://www.w3.org/2000/svg" viewBox="0 0 176 127"><title>smule Alt</title><rect width="176" height="127" rx="10" fill="#bd9aff"/><path d="M113,86.17a9.64,9.64,0,0,0,5.65,8.69,1.53,1.53,0,0,1,.87.75,1.6,1.6,0,0,1,.1,1.19,1.56,1.56,0,0,1-2,1,12.59,12.59,0,0,1-4.13-20.47,12.67,12.67,0,0,1,21.69,8.87c0,5.65-2.94,9.93-7.92,11.72a1.59,1.59,0,0,1-2-1,1.51,1.51,0,0,1,.1-1.18,1.47,1.47,0,0,1,.89-.75A9.53,9.53,0,1,0,113,86.17Z" transform="translate(-8 -32.5)" fill="#fff"/><path d="M118.34,86.14a4.23,4.23,0,0,1,8.45,0,3.87,3.87,0,0,1-1,2.66,1.76,1.76,0,0,0-.32,2.15,1.57,1.57,0,0,0,1.26.65,1.46,1.46,0,0,0,.89-.29l0,0a7.28,7.28,0,1,0-12.47-5.14,6.7,6.7,0,0,0,2,4.9l0,0a1.54,1.54,0,0,0,2.15-.31,1.6,1.6,0,0,0-.19-2.08A3.67,3.67,0,0,1,118.34,86.14Z" transform="translate(-8 -32.5)" fill="#fff"/><path d="M124.4,109.53c0,3,.07,4.69,2.75,5a2,2,0,0,1,1.89,1.93,1.92,1.92,0,0,1-1.91,1.91c-4.28,0-6.55-3.07-6.55-8.87V91.46a1.91,1.91,0,0,1,3.82,0Z" transform="translate(-8 -32.5)" fill="#fff"/><path d="M88.55,100.66a9,9,0,0,0-7,3.36,8.9,8.9,0,0,0-15.87,5.51v7a1.91,1.91,0,0,0,3.82,0v-7a5.05,5.05,0,0,1,10.1,0v7a1.91,1.91,0,1,0,3.81,0v-7a5.05,5.05,0,0,1,10.1,0v7a1.91,1.91,0,0,0,3.82,0v-7A8.75,8.75,0,0,0,88.55,100.66Z" transform="translate(-8 -32.5)" fill="#fff"/><path d="M58.35,107.65l-6.94,0a1.57,1.57,0,0,1-1.57-1.57,1.55,1.55,0,0,1,1.57-1.55h9.86a1.91,1.91,0,1,0,0-3.81H51.41a5.38,5.38,0,1,0,0,10.75l6.94,0a1.57,1.57,0,0,1,0,3.14h-10a1.91,1.91,0,1,0,0,3.82h10a5.39,5.39,0,1,0,0-10.77Z" transform="translate(-8 -32.5)" fill="#fff"/><path d="M128.27,109.58a8.87,8.87,0,0,1,17.73,0,1.92,1.92,0,0,1-1.91,1.91H132.45a5.08,5.08,0,0,0,4.68,3.14h.12a4.68,4.68,0,0,0,3.22-1.26,2.36,2.36,0,0,1,2.75-.46,2,2,0,0,1,.9,1.33,1.59,1.59,0,0,1-.39,1.38,8.78,8.78,0,0,1-6.57,2.88A8.89,8.89,0,0,1,128.27,109.58Zm8.86-5a5.09,5.09,0,0,0-4.66,3.12h9.33A5,5,0,0,0,137.13,104.55Z" transform="translate(-8 -32.5)" fill="#fff" fill-rule="evenodd"/><path d="M115.56,100.66a1.91,1.91,0,0,0-1.91,1.91v7a5,5,0,0,1-10.1,0v-7a1.91,1.91,0,0,0-3.82,0v7a8.89,8.89,0,0,0,17.78,0v-7A2,2,0,0,0,115.56,100.66Z" transform="translate(-8 -32.5)" fill="#fff"/></svg>