<svg xmlns="http://www.w3.org/2000/svg" id="svg16" version="1.1" viewBox="0 0 192 192"><defs id="defs4"><style id="style2">.a{fill:none;stroke:#b1b5bd;stroke-linecap:round;stroke-linejoin:round;isolation:isolate;opacity:.63}</style></defs><path id="path856" d="M14.279 71.825S7.308 52.04 11.805 36.3c0 0 10.793-5.172 32.38 8.32-.001 0-16.19 18.212-29.906 27.206z" style="fill:#748fbe;stroke-width:1.10071635"/><path id="path870" d="M140.422 126.92c-24.51 7.42-34.177 27.656-65.881 29.23 0 0-13.94 2.698-29.23-3.372-15.291-6.07-26.532-17.763-25.859-29.456 0 0-8.994-16.864-8.994-37.325 0-20.462 10.118-22.934 11.018-22.71 0 0 19.337-27.207 63.856-36.875 0 0 38.9-8.32 68.355 8.095 0 0 12.818 5.621 22.935 22.934 0 0-5.62-1.574-18.438 1.35-12.817 2.923-21.36 10.567-23.61 12.366-2.25 1.799-2.249 3.148 2.249 4.272 4.497 1.124 23.842 10.951 39.124 32.827 8.482 12.143 8.081 25.354 8.081 25.354-14.343-13.499-32.414-9.913-43.606-6.69z" style="fill:#9abefc;stroke-width:1.10071635"/><path id="path876" d="M16.526 113.871s-4.272-19.786-1.799-31.929c2.474-12.142 6.971-13.266 8.77-9.668 1.798 3.597 3.148 18.888 5.17 24.733 2.024 5.846-12.141 16.865-12.141 16.865z" style="fill:#748fbe;stroke-width:1.10071635"/><path id="path878" d="M38.113 103.754S40.297 89.42 48.23 78.121c7.42-10.568 21.36-20.236 31.03-16.414 11.455 4.528 11.241 29.905 6.07 41.597-5.17 11.693-47.217.45-47.217.45z" style="fill:#748fbe;stroke-width:1.10071635"/><path id="path880" d="M116.363 54.287s4.947 1.35 6.745 4.497c0 0-.224 9.669-10.792 15.065 0 0 3.148-13.267 4.047-19.562z" style="fill:#748fbe;stroke-width:1.10071635"/><path id="path882" d="M95.45 56.537s-4.047-3.148-6.295-4.272c-2.25-1.124.674-3.823 5.621-6.52 4.947-2.7 11.467-4.947 13.041-3.373 1.574 1.574 3.148 12.367-.224 19.562-3.427 7.308-4.723.224-12.143-5.397z" style="fill:#fdc394;stroke-width:1.10071635"/><path id="path884" d="M107.59 61.932c3.372-7.195 1.798-17.988.224-19.562-1.574-1.574-8.095.675-13.04 3.373-3.827 2.087-6.44 4.172-6.388 5.53l.016.016s1.2-2.324 10.043-5.92c6.81-2.77 10.118-3.523 10.269 3.072.135 5.974.209 10.227-1.782 14.763.212-.365.43-.785.658-1.271z" style="fill:#eda56e;stroke-width:1.10071635"/><path id="path886" d="M78.135 49.115s18.888-17.763 37.102-15.739c0 0 8.095 4.947-2.923 40.474 0 0 7.195-29.23 1.124-38.225 0 0-13.491-2.249-35.302 13.49z" style="fill:#748fbe;stroke-width:1.10071635"/><path id="path888" d="M134.182 74.492c-1.699-.93-1.267-2.012.393-3.34 2.248-1.8 10.793-9.445 23.61-12.367 12.817-2.923 18.438-1.35 18.438-1.35-4.498-3.148-13.822-2.637-19.874-1.095-7.97 2.03-12.504 3.569-22.35 10.361-1.288.888-6.794 4.675-7.913 4.453.009.004 3.147 1.797 5.167 2.47.76.254 1.68.57 2.53.868z" style="fill:#748fbe;stroke-width:1.10071635"/><path id="path1092" d="m79.127 155.402 41.275-29.698s18.393.223 33.725 13.087c15.938 13.373 7.047 35.738 7.047 35.738s-2.073-8.224-24.916-16.862c-18.847-7.127-57.131-2.265-57.131-2.265z" style="fill:#9abeff;stroke:none;stroke-width:1.23741341px;stroke-linecap:butt;stroke-linejoin:miter;stroke-opacity:1"/><path id="path1096" d="M106.577 146.51c-14.425.083-32.943 2.293-32.943 2.293l-8.3 7.927c5.574.116 9.206-.58 9.206-.58 3.955-.196 7.569-.683 10.91-1.4 11.667-1.032 36.689-2.421 50.808 2.918 22.844 8.639 24.915 16.862 24.915 16.862s-.88-12.746-14.93-20.033c-9.337-4.842-20.144-6.61-30.61-7.652-2.615-.26-5.727-.355-9.056-.335z" style="fill:#728dbe;stroke:none;stroke-width:1.23741341px;stroke-linecap:butt;stroke-linejoin:miter;stroke-opacity:1"/><path id="path890" d="M101.526 120.838c-4.93-7.512-18.212-3.598-21.136-.9-2.923 2.699-7.87 5.622-7.87 5.622s-44.745-5.172-52.166-2.024a6.519 6.519 0 0 0-.923.475c-.198 11.457 10.897 22.806 25.883 28.755 11.4 4.527 22.048 4.179 26.729 3.709a51.871 51.871 0 0 0 11.72-3.034c23.833-9.22 22.485-25.409 17.763-32.603z" style="fill:#fdc394;stroke-width:1.10071635"/><path id="path892" d="M21.474 63.281s4.497-.9 6.072 7.42c1.574 8.32 2.023 21.136 3.373 25.858 0 0-2.248-10.118-3.598-19.112-1.35-8.994-7.195-14.39-11.018-11.242 0 0 2.697-2.924 5.171-2.924z" style="fill:#748fbe;stroke-width:1.10071635"/><path id="path894" d="M53.402 66.654s11.243-14.166 26.082-11.467c14.84 2.698 20.686 22.71 14.391 45.644 0 0 3.823-29.23-6.296-38.225-10.119-8.994-22.26-6.97-34.177 4.048z" style="fill:#748fbe;stroke-width:1.10071635"/><path id="path896" d="M80.384 119.947c-2.924 2.698-7.87 5.622-7.87 5.622s-23.802-2.752-39.564-3.02c-.55 1.07-.31 1.719.59 1.595 3.298-.45 10.792 3.897 18.288 5.846 7.495 1.95 16.039.9 21.736-2.398 5.696-3.298 8.844-7.495 17.39-7.495 8.543 0 12.74 11.092 3.896 21.585-8.843 10.492-28.18 11.541-38.074 9.594-9.893-1.95-13.641-4.797-13.641-4.797s-.3-6.296-2.848-13.491c-2.548-7.195-6.145-7.795-6.145-7.795-11.243-1.499-2.249 17.389-2.249 17.389-7.994-6.281-10.278-17.865-10.608-19.342a6.61 6.61 0 0 0-.934.304 6.518 6.518 0 0 0-.924.476c-.198 11.456 10.898 22.806 25.883 28.755 11.4 4.526 22.049 4.178 26.73 3.708a51.872 51.872 0 0 0 11.72-3.033c23.833-9.22 22.484-25.41 17.762-32.604-4.93-7.512-18.214-3.597-21.137-.899z" style="fill:#eda56e;stroke-width:1.10071635"/><path id="path898" d="M19.45 123.313s-4.497-9.22-4.497-26.758c0-17.54 3.823-24.508 6.521-24.284 2.699.224 3.598 9.444 4.497 13.94.899 4.497 4.047 18.888 8.32 20.012 4.272 1.124 4.272-6.07 6.296-11.692 2.023-5.621 14.84-33.052 36.2-31.03 0 0 13.042 1.35 11.242 27.432-1.724 25-12.366 39.799-29.455 38.45-16.195-1.28-15.515-7.42-26.982-5.847-11.467 1.575-12.142-.224-12.142-.224Z" style="fill:#fff;stroke-width:1.10071635"/><path id="path900" d="M23.497 118.14s-8.32-3.148-13.04-.674c-4.723 2.473-2.698 10.118 8.094 13.04 11.06 2.997 17.936 2.082 16.864-3.822-.899-4.946-11.917-8.544-11.917-8.544z" style="fill:#56595b;stroke-width:1.10071635"/><ellipse id="ellipse902" cx="43.71" cy="115.15" rx="6.971" ry="2.625" style="fill:#fff;stroke-width:1.10074103" transform="rotate(11.426)"/><path id="path904" d="M33.652 107.262a48.374 48.374 0 0 0-.161-1.403c-2.17-1.428-4.009-6.119-5.353-10.705-2.082.872-3.22 6.42-2.567 12.96.698 6.984 3.173 12.454 5.528 12.219 2.356-.233 3.25-6.087 2.553-13.07z" style="fill:#56595b;stroke-width:1.10071635"/><path id="path906" d="M77.469 104.896c-.039 7.694-1.357 13.904-5.57 13.904-3.432 0-5.02-6.49-4.982-14.183.037-7.694 2.082-13.695 5.12-13.679 3.037.016 5.47 6.265 5.432 13.958z" style="fill:#56595b;stroke-width:1.10071635"/><ellipse id="ellipse908" cx="28.025" cy="100.257" rx=".787" ry="1.574" style="fill:#fff;stroke-width:1.10070395" transform="rotate(.722)"/><ellipse id="ellipse910" cx="70.378" cy="96.841" rx="1.181" ry="1.742" style="fill:#fff;stroke-width:1.10071635"/><path id="path912" d="M70.267 143.1s16.638-2.249 20.462-12.818c0 0-2.7-3.371-7.87 1.575 0 0 4.946-7.195 10.567-5.397 5.62 1.8 4.048 8.77 1.124 11.243 0 0 2.474-3.373-.899-6.072 0 0-5.621 11.243-23.383 11.468z" style="fill:#eda56e;stroke-width:1.10071635"/><path id="path914" d="M86.83 128.708s3.298-1.35 6.596.15c3.298 1.499 2.999 4.422 2.999 4.422s-1.425-2.998-3.074-3.297c0 0-2.548 9.293-17.088 12.291 0 0 14.991-4.496 16.339-12.89 0 0-2.025-1.576-5.771-.676z" style="fill:#c2615d;stroke-width:1.10071635"/><path id="path1094" d="M156.937 117.795c-8.756-.163-14.745 3.279-23.153 5.025-1.744.362-5.34-.179-5.34-.179l7.12 5.696.6.066a59.053 59.053 0 0 1 4.259-1.482c11.192-3.223 29.263-6.809 43.606 6.69 0 0-5.125-11.911-20.526-15.062-2.379-.486-4.546-.716-6.566-.754z" style="fill:#728dbe;stroke:none;stroke-width:1.23741341px;stroke-linecap:butt;stroke-linejoin:miter;stroke-opacity:1"/></svg>