<?xml version="1.0" encoding="UTF-8" standalone="no"?>
<svg
   xmlns:dc="http://purl.org/dc/elements/1.1/"
   xmlns:cc="http://creativecommons.org/ns#"
   xmlns:rdf="http://www.w3.org/1999/02/22-rdf-syntax-ns#"
   xmlns:svg="http://www.w3.org/2000/svg"
   xmlns="http://www.w3.org/2000/svg"
   xmlns:sodipodi="http://sodipodi.sourceforge.net/DTD/sodipodi-0.dtd"
   xmlns:inkscape="http://www.inkscape.org/namespaces/inkscape"
   viewBox="0 0 192 192"
   version="1.1"
   id="svg16"
   sodipodi:docname="sonic_runners.svg"
   inkscape:version="0.92.4 (5da689c313, 2019-01-14)">
  <metadata
     id="metadata20">
    <rdf:RDF>
      <cc:Work
         rdf:about="">
        <dc:format>image/svg+xml</dc:format>
        <dc:type
           rdf:resource="http://purl.org/dc/dcmitype/StillImage" />
        <dc:title />
      </cc:Work>
    </rdf:RDF>
  </metadata>
  <sodipodi:namedview
     pagecolor="#ffffff"
     bordercolor="#666666"
     borderopacity="1"
     objecttolerance="10"
     gridtolerance="10"
     guidetolerance="10"
     inkscape:pageopacity="0"
     inkscape:pageshadow="2"
     inkscape:window-width="1920"
     inkscape:window-height="1017"
     id="namedview18"
     showgrid="false"
     inkscape:zoom="2.4583333"
     inkscape:cx="97.247336"
     inkscape:cy="79.49777"
     inkscape:window-x="-8"
     inkscape:window-y="-8"
     inkscape:window-maximized="1"
     inkscape:current-layer="svg16"
     inkscape:snap-global="true">
    <inkscape:grid
       type="xygrid"
       id="grid827"
       spacingx="4"
       spacingy="4" />
  </sodipodi:namedview>
  <defs
     id="defs4">
    <inkscape:path-effect
       effect="powerstroke"
       id="path-effect1090"
       is_visible="true"
       offset_points="0,0.5"
       sort_points="true"
       interpolator_type="CubicBezierJohan"
       interpolator_beta="0.2"
       start_linecap_type="zerowidth"
       linejoin_type="extrp_arc"
       miter_limit="4"
       end_linecap_type="zerowidth" />
    <inkscape:path-effect
       effect="bspline"
       id="path-effect1088"
       is_visible="true"
       weight="33.333333"
       steps="2"
       helper_size="0"
       apply_no_weight="true"
       apply_with_weight="true"
       only_selected="false" />
    <style
       id="style2">.a{fill:none;stroke:#b1b5bd;stroke-linecap:round;stroke-linejoin:round;isolation:isolate;opacity:0.63;}</style>
  </defs>
  <rect
     class="a"
     x="20"
     y="20"
     width="152"
     height="152"
     rx="10"
     id="rect6"
     style="fill:#9abeff;opacity:1" />
  <path
     style="fill:#728dbe;stroke:none;stroke-width:1px;stroke-linecap:butt;stroke-linejoin:miter;stroke-opacity:1"
     d="M 172 120 L 20 144 L 20 162 C 20 167.54 24.46 172 30 172 L 162 172 C 167.54 172 172 167.54 172 162 L 172 120 z "
     id="path829" />
  <path
     style="fill:#ff837d;stroke:none;stroke-width:1px;stroke-linecap:butt;stroke-linejoin:miter;stroke-opacity:1"
     d="M 22.003906 72.630859 L 20 73.904297 L 20 107.42578 L 24.304688 103.55078 L 37.392578 89.601562 L 33.078125 77.376953 L 22.003906 72.630859 z "
     id="path1013" />
  <path
     style="fill:#ffffff;stroke:none;stroke-width:1px;stroke-linecap:butt;stroke-linejoin:miter;stroke-opacity:1"
     d="m 23.288136,108.50848 c -2.357388,-3.74508 1.939951,-8.809441 4.779661,-12.203395 3.265011,-3.902264 10.023881,-9.3394 12.915254,-8.135594 1.033187,0.430161 0.339357,1.942504 1.118644,2.745764 1.439839,1.484131 3.435789,-0.761604 4.983051,0.610169 1.810891,1.605501 -1.796191,10.156956 -4.677966,14.237286 -2.620737,3.71073 -7.405664,9.01271 -11.898305,8.33898 -2.092733,-0.31383 -1.610035,-3.34117 -3.457627,-4.37288 -1.423406,-0.79484 -2.894235,0.15938 -3.762712,-1.22033 z"
     id="path917"
     inkscape:connector-curvature="0"
     sodipodi:nodetypes="sssssssss" />
  <path
     style="fill:#d8d8d8;stroke:none;stroke-width:1px;stroke-linecap:butt;stroke-linejoin:miter;stroke-opacity:1"
     d="m 39.305084,102.71186 c 3.595471,-4.712239 5.491526,-4.881352 5.491526,-4.881352 0,0 1.505951,1.078148 -2.593221,7.576272 -3.973614,6.29909 -5.898305,5.89831 -5.898305,5.89831 0,0 -1.977727,-2.0694 3,-8.59323 z"
     id="path919"
     inkscape:connector-curvature="0"
     sodipodi:nodetypes="scscs" />
  <g
     id="g986">
    <path
       sodipodi:nodetypes="csccccccc"
       inkscape:connector-curvature="0"
       id="path923"
       d="m 139.93523,134.90412 c 0,0 10.44295,-6.43183 12.36838,-11.7931 5.26906,-14.67146 12.22456,-16.68293 12.22456,-16.68293 l 7.47855,9.20438 -3.30782,24.01766 -16.82674,24.73675 -9.77965,-3.59546 -9.77965,-11.07401 z"
       style="fill:#ff837d;stroke:none;stroke-width:1px;stroke-linecap:butt;stroke-linejoin:miter;stroke-opacity:1" />
    <path
       id="path927"
       d="M 151.34766 124.94336 C 149.74087 127.40346 146.89736 129.87298 144.42969 131.75586 L 162.57617 148.6543 L 168.62891 139.75391 L 151.34766 124.94336 z "
       style="fill:#ffffff;stroke:none;stroke-width:1px;stroke-linecap:butt;stroke-linejoin:miter;stroke-opacity:1" />
    <path
       sodipodi:nodetypes="csscsscc"
       inkscape:connector-curvature="0"
       id="path925"
       d="m 164.52817,106.42809 c 0,0 7.81706,9.08504 4.746,22.14803 -2.70957,11.52537 -11.24644,20.8931 -17.97729,30.6333 -2.41645,3.49684 -9.20437,1.582 -9.20437,1.582 0,0 4.45075,8.44314 8.34146,8.19765 7.95333,-0.50184 22.07813,-26.54087 23.29857,-31.92767 1.03093,-4.55035 2.29305,-9.1409 2.30109,-13.80656 -0.55555,-6.36067 -4.10878,-16.21034 -11.50546,-16.82675 z"
       style="fill:#d8d8d8;stroke:none;stroke-width:1px;stroke-linecap:butt;stroke-linejoin:miter;stroke-opacity:1" />
    <path
       sodipodi:nodetypes="sssssssss"
       inkscape:connector-curvature="0"
       id="path921"
       d="m 125.26576,136.48613 c 2.17548,-4.64931 6.08712,-12.35522 9.20437,-12.36838 2.01401,-0.008 1.65455,2.6862 3.45165,3.59546 1.28399,0.64965 3.11179,0.0324 4.17073,1.00673 3.33878,3.07204 2.79847,9.49446 1.00673,13.66274 -2.3758,5.52703 -5.18148,9.41893 -10.06729,10.2111 -3.15354,0.5113 -6.45019,-1.83436 -8.6291,-4.17073 -0.88037,-0.944 -1.91517,-1.48548 -1.43818,-3.59546 0.72293,-3.19791 1.07867,-5.72897 2.30109,-8.34146 z"
       style="fill:#ffffff;stroke:none;stroke-width:1px;stroke-linecap:butt;stroke-linejoin:miter;stroke-opacity:1" />
    <path
       sodipodi:nodetypes="csccc"
       inkscape:connector-curvature="0"
       id="path979"
       d="m 130.44322,129.54689 c 0,0 1.56904,-2.91494 2.22918,-2.69659 0.75033,0.24818 -0.21572,3.73927 -0.21572,3.73927 l -2.04941,0.43146 z"
       style="fill:#d8d8d8;stroke:none;stroke-width:1px;stroke-linecap:butt;stroke-linejoin:miter;stroke-opacity:1" />
  </g>
  <path
     style="fill:#54688c"
     d="m 83.414631,120.66611 c 0,0 16.500433,6.24535 30.058029,13.43169 4.6492,2.46435 14.23802,7.7096 14.23802,7.7096 0,0 0.32986,-2.45086 2.30109,-6.61564 1.36599,-2.88603 2.44491,-4.60219 2.44491,-4.60219 0,0 -11.41441,-6.87481 -17.22224,-9.68711 -6.91942,-3.35056 -16.718885,-6.70818 -16.718885,-6.70818 z"
     id="path977"
     inkscape:connector-curvature="0"
     sodipodi:nodetypes="cscscscc" />
  <path
     style="fill:#54688c;stroke:none;stroke-width:1px;stroke-linecap:butt;stroke-linejoin:miter;stroke-opacity:1"
     d="m 135.15255,51.355932 c 0,0 10.65158,-0.127102 11.38982,2.644068 0.69333,2.602579 -6.61017,7.627118 -6.61017,7.627118 z"
     id="path1011"
     inkscape:connector-curvature="0"
     sodipodi:nodetypes="cscc" />
  <path
     style="fill:#728dbe;stroke:none;stroke-width:1px;stroke-linecap:butt;stroke-linejoin:miter;stroke-opacity:1;opacity:1"
     d="m 133.46341,90.608078 c 0,0 0.61544,3.325972 3.02018,3.595459 1.70779,0.191383 3.30451,-1.31524 4.45837,-2.58873 2.79449,-3.084203 4.35729,-7.281356 5.17746,-11.361648 C 149.03531,65.74678 139.65388,50.88072 129.4365,40.990755 88.709863,1.5692025 53.995678,20.389838 53.995678,20.389838 c 0,0 8.044233,3.340762 13.598936,9.958361 0,0 -23.161003,4.17442 -36.88275,18.87214 18.058451,1.645703 37.220339,7.932203 37.220339,7.932203 0,0 -16.625403,3.862248 -21.966101,13.016949 13.691222,-0.60901 16.271186,4.474577 16.271186,4.474577 0,0 -10.666935,12.981598 -14.033898,30.915252 10.830812,-8.140571 25.220339,-11.389829 25.220339,-11.389829 0,0 -5.237612,2.604543 -7.932204,8.135589 11.087353,-1.28505 19.295242,0.74165 19.295242,0.74165 l -6.074903,4.74988 c 0,0 -6.253205,-1.1196 -17.084745,-6.0668 4.120054,6.81173 8.135593,9.32104 8.135593,9.32104 0,0 -4.997717,0.2957 -10.779661,-2.0339 -5.619266,-2.26406 -16.372881,-9.864408 -16.372881,-9.864408 -5.025627,4.218118 -6.559322,9.610168 -6.559322,9.610168 0,0 12.308774,9.46862 19.519692,11.65429 10.725118,3.25084 25.533311,3.63773 36.579508,1.74627 7.091154,-1.21424 16.273362,-4.89336 20.121142,-11.31581 2.92493,-4.88208 1.62712,-11.796613 1.62712,-11.796613 z"
     id="path915"
     inkscape:connector-curvature="0"
     sodipodi:nodetypes="csssscccccccccccccsccssscc" />
  <path
     style="fill:#ffffff;stroke:none;stroke-width:1px;stroke-linecap:butt;stroke-linejoin:miter;stroke-opacity:1"
     d="m 120.80739,90.104714 c -1.41391,-3.017758 -1.04789,-8.49907 -0.20848,-11.724188 1.69587,-6.515717 5.34949,-12.798387 11.3544,-12.149654 5.48968,0.593071 8.4198,6.282778 7.69428,14.669469 -0.39219,4.533529 -2.82385,9.074782 -5.53701,12.727922 -2.1724,2.925027 -4.45837,4.098823 -4.45837,4.098823 0,0 -7.11524,-3.930852 -8.84483,-7.622372 z"
     id="path837"
     inkscape:connector-curvature="0"
     sodipodi:nodetypes="csssscsc" />
  <path
     style="fill:#54688c;stroke:none;stroke-width:1px;stroke-linecap:butt;stroke-linejoin:miter;stroke-opacity:1"
     d="M 86.552734 91.710938 C 81.20721 91.655699 73.423828 94.169922 73.423828 94.169922 C 73.423828 94.169922 68.18678 96.773639 65.492188 102.30469 C 65.492188 102.30469 73.628428 98.619737 94.632812 97.367188 C 99.28679 97.089658 113.93945 99.355469 113.93945 99.355469 C 113.93945 99.355469 103.02728 93.062101 87.585938 91.757812 C 87.254259 91.729797 86.909103 91.71462 86.552734 91.710938 z "
     id="path1132" />
  <path
     style="fill:#fdc394;stroke:none;stroke-width:1px;stroke-linecap:butt;stroke-linejoin:miter;stroke-opacity:1"
     d="m 110.59629,90.895715 c 2.46483,-2.45825 6.18134,-3.881593 9.63583,-3.45164 3.80579,0.473677 5.50453,5.893556 9.20438,6.90328 1.25638,0.342879 2.65418,3.76e-4 3.88309,0.431455 1.34347,0.471264 3.02019,3.020185 3.02019,3.020185 0,0 2.63863,5.779195 -14.23802,5.465095 -4.94876,-0.0921 -11.88966,-0.90174 -13.80656,-5.465095 -0.7655,-1.822342 0.90156,-5.507485 2.30109,-6.90328 z"
     id="path831"
     inkscape:connector-curvature="0"
     sodipodi:nodetypes="sssscsss" />
  <path
     style="fill:#56595b;stroke:none;stroke-width:1px;stroke-linecap:butt;stroke-linejoin:miter;stroke-opacity:1"
     d="m 134.59322,97.474576 c 1.30596,-2.493508 4.15748,-1.042779 6.15254,-0.915254 1.79428,0.11469 5.9377,0.002 6.20339,2.491526 0.2153,2.017272 -2.2543,3.803432 -6.81356,3.203392 -2.33004,-0.30665 -6.63274,-2.697785 -5.54237,-4.779664 z"
     id="path833"
     inkscape:connector-curvature="0"
     sodipodi:nodetypes="sssss" />
  <path
     style="fill:#ffffff;stroke:none;stroke-width:1px;stroke-linecap:butt;stroke-linejoin:miter;stroke-opacity:1"
     d="m 120.9661,92.644068 c 0,0 -4.88128,0.687874 -4.16949,3.711864 1.08526,4.610668 6.81356,4.474578 6.81356,4.474578 0,0 -2.62323,-3.233775 -3.15254,-5.186442 -0.39408,-1.453802 0.50847,-3 0.50847,-3 z"
     id="path835"
     inkscape:connector-curvature="0"
     sodipodi:nodetypes="cscsc" />
  <style
     id="style879"
     type="text/css">.st0{fill:#FFFFFF;}</style>
  <style
     id="style881"
     type="text/css">.st0{fill:#FFFFFF;}</style>
  <rect
     style="opacity:1;vector-effect:none;fill:#98dc9a;fill-opacity:1;fill-rule:evenodd;stroke:none;stroke-width:8;stroke-linecap:round;stroke-linejoin:round;stroke-miterlimit:4;stroke-dasharray:none;paint-order:stroke fill markers"
     id="rect945"
     width="3.3559322"
     height="11.389831"
     x="159.37453"
     y="6.8443122"
     ry="5.6949153"
     rx="1.6779661"
     transform="rotate(28.262682)" />
  <rect
     style="opacity:1;vector-effect:none;fill:#56595b;fill-opacity:1;fill-rule:evenodd;stroke:none;stroke-width:4.4486022;stroke-linecap:round;stroke-linejoin:round;stroke-miterlimit:4;stroke-dasharray:none;paint-order:stroke fill markers"
     id="rect945-9"
     width="1.8661511"
     height="6.3336039"
     x="160.11942"
     y="9.3724289"
     ry="3.1668019"
     rx="0.93307555"
     transform="rotate(28.262682)" />
  <rect
     style="opacity:1;vector-effect:none;fill:#ffffff;fill-opacity:1;fill-rule:evenodd;stroke:none;stroke-width:2.35295272;stroke-linecap:round;stroke-linejoin:round;stroke-miterlimit:4;stroke-dasharray:none;paint-order:stroke fill markers"
     id="rect945-9-8"
     width="0.98704368"
     height="3.3499668"
     x="160.09531"
     y="12.583485"
     ry="1.6749834"
     rx="0.49352184"
     transform="rotate(28.262682)" />
  <path
     style="fill:#54688c;stroke:none;stroke-width:1px;stroke-linecap:butt;stroke-linejoin:miter;stroke-opacity:1"
     d="M 114.36523 28.697266 C 115.68556 30.417646 117.66205 33.100434 118.57617 34.982422 C 120.40447 38.746529 121.32227 42.40625 121.32227 42.40625 L 130.30273 41.861328 C 130.01349 41.571846 129.72641 41.271775 129.43555 40.990234 C 124.29661 36.015978 119.25505 31.971716 114.36523 28.697266 z "
     id="path1068" />
  <path
     style="fill:#728dbe;stroke:none;stroke-width:1px;stroke-linecap:butt;stroke-linejoin:miter;stroke-opacity:1"
     d="m 121.32203,42.406779 c 0,0 15.55475,-4.48395 17.59322,-2.237288 2.92593,3.224762 -2.13559,16.779661 -2.13559,16.779661 l -11.8983,-4.067796 z"
     id="path1009"
     inkscape:connector-curvature="0"
     sodipodi:nodetypes="csccc" />
  <path
     style="fill:#d8d8d8;stroke:none;stroke-width:1px;stroke-linecap:butt;stroke-linejoin:miter;stroke-opacity:1"
     d="M 23.333984 67.515625 C 22.23548 67.505257 21.114855 67.670444 20 67.935547 L 20 75.84375 C 24.502012 74.878152 33.078125 77.376953 33.078125 77.376953 C 33.078125 77.376953 29.992622 69.367076 26.318359 68.029297 C 25.359333 67.680121 24.356456 67.525275 23.333984 67.515625 z "
     id="path1015" />
  <path
     style="fill:#fdc394;stroke:none;stroke-width:1px;stroke-linecap:butt;stroke-linejoin:miter;stroke-opacity:1"
     d="m 80.949153,84.101695 c 0,0 5.681092,1.602375 10.067796,4.067796 5.183902,2.913464 14.440681,10.474577 14.440681,10.474577 0,0 0.69563,1.297746 -0.50848,2.338982 -1.40524,1.21516 -3.15254,0.50848 -3.15254,0.50848 0,0 -8.425778,-5.456132 -13.016949,-7.423734 C 83.777688,91.92414 77.59322,90.711864 77.59322,90.711864 Z"
     id="path1044"
     inkscape:connector-curvature="0"
     sodipodi:nodetypes="cscscscc" />
  <path
     style="fill:#d8d8d8;stroke:none;stroke-width:1px;stroke-linecap:butt;stroke-linejoin:miter;stroke-opacity:1"
     d="m 66,76.677966 c 0,0 3.588537,-2.812272 5.694915,-2.745763 1.243961,0.03928 2.025793,1.42736 3.254238,1.627119 0.885869,0.144053 1.818448,-0.657035 2.644067,-0.305085 2.63807,1.124573 4.745025,5.370307 4.677967,8.237288 -0.130662,5.586246 -4.218702,11.912195 -9.762712,12.61017 -1.0981,0.138248 -2.105788,-1.572704 -3.152542,-1.932203 -0.86622,-0.297496 -1.314469,0.304005 -2.135594,-0.101696 -4.255834,-2.102719 -3.966102,-6.915254 -3.966102,-6.915254 z"
     id="path1042"
     inkscape:connector-curvature="0"
     sodipodi:nodetypes="cssssssscc" />
  <path
     style="fill:#54688c;"
     d="M 85.140625 60.837891 C 85.140625 60.837891 72.559571 66.447936 65.869141 66.447266 C 62.292573 66.446907 56.586841 64.378343 53.40625 63.107422 C 50.393402 64.976017 47.631778 67.315912 45.966797 70.169922 C 58.749796 69.601311 61.809427 73.943861 62.164062 74.529297 C 78.040244 66.050106 90.101562 63.457031 90.101562 63.457031 L 85.140625 60.837891 z "
     id="path1114" />
  <path
     style="fill:#ffffff;stroke:none;stroke-width:1px;stroke-linecap:butt;stroke-linejoin:miter;stroke-opacity:1"
     d="m 39.050848,91.118644 c -0.821154,-1.65311 -1.652067,-3.903103 -0.711865,-5.491526 0.426455,-0.720475 2.338983,-0.915254 2.338983,-0.915254 0,0 -0.624267,-2.600669 -0.813559,-3.864407 -0.302337,-2.01843 -0.656742,-3.755691 -0.101695,-5.79661 0.57823,-2.126165 2.215752,-3.949777 3.966102,-5.288135 2.260226,-1.728222 5.096798,-3.388875 7.932203,-3.152543 6.911613,0.576086 13.55075,5.295598 17.79661,10.779661 1.949919,2.518566 3.602392,6.084718 2.745763,9.152543 -1.40068,5.016222 -6.771794,8.505251 -11.59322,10.474576 -4.61692,1.885794 -10.296618,2.406298 -14.949153,0.610169 -2.884686,-1.113644 -5.234544,-3.739128 -6.610169,-6.508474 z"
     id="path1040"
     inkscape:connector-curvature="0"
     sodipodi:nodetypes="sscsssssssss" />
  <path
     style="fill:#f8c18c;stroke:none;stroke-width:1px;stroke-linecap:butt;stroke-linejoin:miter;stroke-opacity:1"
     d="M 112.37305 97.017578 C 112.37305 97.017578 111.07359 104.24613 107.01758 109.48242 C 101.39656 116.73913 90.814453 121.62695 90.814453 121.62695 L 91.263672 122.30078 C 91.55838 122.25432 91.860716 122.21366 92.150391 122.16406 C 99.241545 120.94982 108.4237 117.27011 112.27148 110.84766 C 115.00374 106.28718 114.0768 100.17017 113.93945 99.355469 C 113.17831 97.893174 112.37305 97.017578 112.37305 97.017578 z "
     id="path1046" />
  <path
     style="fill:#f8c18c;stroke:none;stroke-width:1px;stroke-linecap:butt;stroke-linejoin:miter;stroke-opacity:1"
     d="m 123.9661,55.423729 c 0,0 5.54866,-8.787207 13.93221,-13.01695 -0.17574,7.180015 -2.64408,12.81356 -2.64408,12.81356 -6.1503,0.165917 -11.28813,0.20339 -11.28813,0.20339 z"
     id="path1064"
     inkscape:connector-curvature="0"
     sodipodi:nodetypes="cccc" />
  <path
     style="fill:#728dbe;stroke:none;stroke-width:1px;stroke-linecap:butt;stroke-linejoin:miter;stroke-opacity:1"
     d="m 133.22034,66.305085 c 0,0 5.46885,1.589232 4.98305,14.542372 -0.16003,4.266841 -3.55932,12.305085 -3.55932,12.305085 l 8.13559,-12.813559 -0.81356,-13.423729 z"
     id="path1066"
     inkscape:connector-curvature="0"
     sodipodi:nodetypes="cscccc" />
  <path
     style="fill:#54688c;stroke:none;stroke-width:1px;stroke-linecap:butt;stroke-linejoin:miter;stroke-opacity:1"
     d="M 53.996094 20.390625 C 53.996094 20.390625 62.039047 23.730057 67.59375 30.347656 L 95.59375 33.152344 C 95.59375 33.152344 78.228558 21.641385 53.996094 20.390625 z "
     id="path1092" />
  <path
     style="fill:#54688c;stroke:none;stroke-width:1px;stroke-linecap:butt;stroke-linejoin:miter;stroke-opacity:1"
     d="m 30.711864,49.220339 c 0,0 28.161356,5.186005 59.389831,14.237288 4.696719,-1.200889 4.649816,-5.999743 10.779665,-9.762712 C 50.235718,43.365749 30.711864,49.220339 30.711864,49.220339 Z"
     id="path1094"
     inkscape:connector-curvature="0"
     sodipodi:nodetypes="cccc" />
</svg>
