<svg width="192px" height="192px" enable-background="new 0 0 192 192" version="1.1" viewBox="0 0 192 192" xml:space="preserve" xmlns="http://www.w3.org/2000/svg">
<path d="m170.72 160.9c0 5.9136-4.7946 10.708-10.709 10.708h-128.91c-5.9145 0-10.709-4.7946-10.709-10.708v-128.91c0-5.9136 4.7946-10.708 10.709-10.708h128.91c5.9145 0 10.709 4.7946 10.709 10.708z" style="fill:#fff;stroke-width:.88953"/><path d="m31.099 21.279c-5.9145 0-10.709 4.7938-10.709 10.707v26.213l1.7947 24.05s2.3152 7.7452 12.664 7.5975c49.302-0.70333 58.258-67.664 58.258-67.664l-5.4571-0.90517z" style="fill:#ff837d;stroke-width:.88953"/><path d="m23.91 140.46 51.428-18.934 23.028 46.567-74.2 1.0234z" style="fill:#f9de81;stroke-width:.88953"/><path d="m69.197 125.11 97.995-39.659 0.51173 82.132-59.36 1.2793z" style="fill:#98dc9a;stroke-width:.88953"/><g transform="matrix(.88953 0 0 .88953 10.605 10.605)"><path d="m83.619 169.42a7.0599 10.197 82.881 0 0-2.0273 0.17382 7.0599 10.197 82.881 0 0-8.75 8.5137 7.0599 10.197 82.881 0 0 1.6113 2.8906h15.754a7.0599 10.197 82.881 0 0 2.7754-6.0312 7.0599 10.197 82.881 0 0-9.3633-5.5469z" style="fill:#fff;paint-order:stroke fill markers;stroke-width:1.0778"/><ellipse transform="rotate(-6.4519)" cx="62.288" cy="183.84" rx="6.9033" ry="4.3865" style="fill:#b1b5bc;paint-order:stroke fill markers"/><path d="m71.593 153.46s3.2909 8.8246 4.678 13.322c1.0081 3.2687 2.6441 9.9153 2.6441 9.9153l6.6102-0.20339s-3.6784-10.689-5.2373-16.119c-0.79063-2.754-2.0847-8.339-2.0847-8.339z" style="fill:#9abeff"/><path d="m25.388 56.225s-4.7079-13.363-1.6704-23.993c0 0 7.289-3.4932 21.868 5.6186-7.43e-4 0-10.934 12.3-20.197 18.374z" style="fill:#748fbe;stroke-width:.74339"/><path d="m35.39 138.1s-4.5323 1.9567-2.4407 7.2203c1.7583 4.4248 6.4354 7.4029 12.203 7.4237 4.547 0.0165 7.9322-5.6949 7.9322-5.6949l-5.6949-10.169-9.8644-1.017s-0.78872 0.013-1.6271 0.91525c-0.3214 0.34587-0.50847 1.322-0.50847 1.322z" style="fill:#b1b5bc"/><ellipse transform="matrix(.83938 .54355 -.5558 .83132 0 0)" cx="109.25" cy="87.596" rx="6.5728" ry="6.9528" style="fill:#fff;paint-order:stroke fill markers;stroke-width:1.0392"/><path d="m43.287 125.41a6.5663 6.959 40.662 0 0-5.7871 3.2207 6.5663 6.959 40.662 0 0-1.1914 3.4512c0.47632-0.11033 1.3642-0.29359 1.9473-0.12695 1.1846 0.33855 1.7958 1.7923 2.9473 2.2305 0.56185 0.2138 1.2007 0.203 1.7988 0.14257 1.1171-0.11286 2.3884-0.19765 3.2363-0.93359 1.1972-1.0391 2.0549-3.5353 2.5078-5.084a6.5663 6.959 40.662 0 0-1.8652-1.8867 6.5663 6.959 40.662 0 0-3.5938-1.0137z" style="fill:#b1b5bc"/><path d="m40.678 133.22-3.5593-6.2034s-1.4572-2.2946-1.1186-3.4576c1.07-3.6755 5.3508-5.7638 8.8475-7.322 3.3805-1.5064 10.983-1.6271 10.983-1.6271l-5.0847 5.1864s-3.6452 0.48457-5.0847 1.0169c-1.8078 0.66853-4.3329 1.6655-4.2712 2.7458 0.10137 1.7751 3.661 7.5254 3.661 7.5254s-0.26352 1.7911-1.8305 2.4407c-1.4695 0.60916-2.5424-0.30508-2.5424-0.30508z" style="fill:#eda56e"/><path d="m82.678 148.68s2.585 5.5836 5.6949 9.9661c2.4279 3.4214 7.9548 11.064 7.9548 11.064s-8.0389-2.1212-12.938-7.9118c-5.1194-6.0511-9.1525-14.746-9.1525-14.746z" style="fill:#728dbe"/><path d="m50.049 169.56c0.14821 1.0617 1.2546 1.8202 1.4382 2.8764 0.20673 1.1892-0.43146 3.5955-0.43146 3.5955l20.71-0.0719s-1.36-2.7078-1.3663-4.1707c-0.0047-1.1068 1.1037-2.0615 1.0067-3.164-0.27747-3.1532-6.7306-5.0925-10.643-4.9617-4.0743 0.13622-11.228 2.2202-10.714 5.8965z" style="fill:#fff"/><ellipse transform="matrix(.99656 -.082866 .084953 .99638 0 0)" cx="46.249" cy="172.29" rx="7.0789" ry="2.7419" style="fill:#b1b5bc;paint-order:stroke fill markers;stroke-width:.93377"/><path d="m55.514 148.85s1.6345 6.0968 2.1573 9.2044c0.69554 4.1349 0.80822 8.1158 1.2944 12.512 3.3116 0.20394 5.4651-0.71909 5.4651-0.71909s-1.1078-6.7897-1.4382-10.211c-0.26298-2.7237-0.43146-8.1976-0.43146-8.1976z" style="fill:#728dbe"/><path d="m78.203 152.03-6.6094 1.4238s1.0559 2.8514 2.2207 6.1152c0.18397-0.61697 0.53173-1.679 1.0684-2.3047 0.49961-0.5825 1.44-1.3567 2.2031-1.4375 0.69838-0.074 1.7043 0.58968 2.2793 1.0176-0.60329-2.4202-1.1621-4.8145-1.1621-4.8145z" style="fill:#728dbe"/><ellipse cx="69.458" cy="131.49" rx="24.102" ry="22.881" style="fill:#9abeff;paint-order:stroke fill markers"/><path d="m85.22 147.46s13.434-3.0729 20.136-2.2373c2.874 0.35838 8.1356 3.0508 8.1356 3.0508s-0.96421-21.448-15.864-28.678c6.7992-4.8187 18.915-5.2881 18.915-5.2881s-6.1393-17.664-20.542-15.254c-7.2688 1.2163-19.525 10.373-19.525 10.373l9.7627 20.542z" style="fill:#9abeff"/><path d="m94.489 133.68s-3.6718-0.79467-10.355 3.8112c-2.4875 1.7143-5.6089 7.119-5.6089 7.119l8.4853 4.6741 13.95-3.7393z" style="fill:#fff"/><path d="m93.811 133.63c-0.49128-3e-3 -1.2701 0.0693-2.2734 0.30664-0.13438 1.4534-0.36071 4.7227 0.14648 6.5059 0.79932 2.8101 2.2486 5.0672 3.5195 6.6484l5.7578-1.543-6.4727-11.865s-0.22908-0.0502-0.67773-0.0527z" style="fill:#b1b5bc"/><ellipse transform="matrix(.60911 -.79308 .68894 .72481 0 0)" cx="-23.815" cy="164.83" rx="6.9768" ry="8.6773" style="fill:#fff;paint-order:stroke fill markers;stroke-width:.9859"/><path d="m146.64 90.098s-19.506-1.6791-36.058 3.3321c-16.553 5.0105-23.082 18.678-44.494 19.742 0 0-9.4151 1.822-19.742-2.2778s-17.919-11.997-17.464-19.893c0 0-6.0743-11.39-6.0743-25.208 0-13.819 6.5456-18.941 7.153-18.789 0 0 13.06-18.374 43.127-24.904 1.7853-0.89266 31.517-4.3583 46.74 2.5905 0 0 11.246 1.783 18.942 9.1613 0 0-8.8747 3.141-13.315 5.5136-11.107 5.9343-14.048 10.92-15.567 12.135-1.5188 1.2147-1.5188 2.1261 1.5188 2.8851 3.0375 0.759 29.16 6.7093 35.537 23.566z" style="fill:#9abefc;stroke-width:.74339"/><path d="m26.906 84.622s-2.8851-13.363-1.2147-21.564c1.6704-8.2004 4.7079-8.9594 5.9226-6.53 1.2147 2.4294 2.1261 12.756 3.4925 16.704 1.3664 3.9482-8.2004 11.39-8.2004 11.39z" style="fill:#748fbe;stroke-width:.74339"/><path d="m41.485 77.789s1.4756-9.6804 6.8333-17.312c5.0112-7.1373 14.426-13.667 20.956-11.085 7.7365 3.0583 7.5923 20.196 4.0998 28.094-3.4925 7.897-31.889 0.30405-31.889 0.30405z" style="fill:#748fbe;stroke-width:.74339"/><path d="m94.331 44.381s3.3408 0.9114 4.5555 3.0368c0 0-0.15164 6.53-7.289 10.175 0 0 2.1261-8.9601 2.7335-13.212z" style="fill:#748fbe;stroke-width:.74339"/><path d="m80.208 45.9s-2.7335-2.1261-4.2522-2.8851c-1.5188-0.759 0.4557-2.5818 3.7965-4.4039 3.3408-1.8228 7.7447-3.3408 8.8077-2.2778 1.0631 1.063 2.1261 8.352-0.15165 13.212-2.3142 4.9354-3.1892 0.15091-8.2004-3.6448z" style="fill:#fdc394;stroke-width:.74339"/><path d="m88.409 49.544c2.2778-4.8596 1.2147-12.149 0.15165-13.212s-5.4669 0.4557-8.8077 2.2778c-2.584 1.4095-4.3488 2.8182-4.3139 3.7355 0.0037 3e-3 0.0075 0.0067 0.01115 0.01041 0 0 0.8103-1.5693 6.7827-3.9987 4.5994-1.8704 6.8333-2.3789 6.9351 2.0756 0.09143 4.0344 0.14124 6.9069-1.2036 9.9696 0.14347-0.24606 0.29067-0.53004 0.44455-0.85862z" style="fill:#eda56e;stroke-width:.74339"/><path d="m68.515 40.888s12.757-11.997 25.057-10.63c0 0 5.4669 3.3408-1.9737 27.335 0 0 4.8588-19.742 0.759-25.816 0 0-9.1118-1.5187-23.842 9.111z" style="fill:#748fbe;stroke-width:.74339"/><path d="m109.9 53.907c-1.147-0.62742-0.54702-1.5263 0.39251-2.6121 1.3152-1.52 3.3891-4.8918 13.809-10.996 5.5647-3.2599 8.4066-4.0735 14.486-6.5046-5.4789 0.0095-11.877 2.7953-14.643 4.04-5.0648 2.2792-9.3667 6.7838-13.976 10.964-0.78269 0.70978-4.5882 3.1572-5.3442 3.007 6e-3 3e-3 2.2016 1.0614 3.5658 1.5164 0.51366 0.17098 1.1344 0.38508 1.709 0.58579z" style="fill:#748fbe;stroke-width:.74339"/><path d="m64.301 109.17c-5.1997 1.0748-9.8785 3.7531-13.307 7.6172 0.87375 0.6954 1.9988 1.2761 3.3691 1.293 12.546 0.15411 19.085-3.582 23.117-9.2918-1.399-0.72017-2.5821-0.87557-4.103-1.3205z" style="fill:#728dbe"/><path d="m84.309 89.33c-3.3297-5.0736-12.3-2.4301-14.275-0.60735-1.9744 1.8221-5.3153 3.7965-5.3153 3.7965s-30.22-3.4932-35.231-1.3671c-0.2312 0.09813-0.43786 0.20443-0.62371 0.32115-0.13381 7.7372 7.3596 15.402 17.48 19.42 7.6993 3.0568 14.891 2.8219 18.053 2.5045 2.5766-0.35237 5.2268-1.0088 7.9149-2.0488 16.097-6.2266 15.186-17.16 11.997-22.019z" style="fill:#fdc394;stroke-width:.74339"/><path d="m30.248 50.454s3.0368-0.60735 4.1006 5.0112c1.063 5.6186 1.3664 14.275 2.2778 17.464 0 0-1.518-6.8333-2.4294-12.908-0.9114-6.0743-4.8596-9.7191-7.4414-7.593-7.42e-4 0 1.8213-1.9744 3.4925-1.9744z" style="fill:#748fbe;stroke-width:.74339"/><path d="m51.811 52.733s7.593-9.5675 17.615-7.7447c10.022 1.8221 13.971 15.338 9.7191 30.827 0 0 2.5818-19.742-4.2522-25.816-6.834-6.0743-15.034-4.7079-23.082 2.7335z" style="fill:#748fbe;stroke-width:.74339"/><path d="m70.034 88.723c-1.9744 1.8221-5.3153 3.7965-5.3153 3.7965s-16.075-1.8585-26.72-2.0391c-0.37095 0.72183-0.20964 1.1604 0.39846 1.0772 2.2272-0.30405 7.289 2.6316 12.351 3.9482 5.0625 1.3165 10.833 0.60735 14.68-1.6199 3.8471-2.2272 5.9732-5.0618 11.744-5.0618 5.7702 0 8.6048 7.4912 2.6316 14.578-5.9724 7.086-19.032 7.7945-25.714 6.4794-6.6816-1.3166-9.2129-3.2397-9.2129-3.2397s-0.2022-4.2522-1.9232-9.1118c-1.721-4.8588-4.1504-5.264-4.1504-5.264-7.593-1.0125-1.5187 11.743-1.5187 11.743-5.3993-4.2418-6.9418-12.065-7.1641-13.063-0.24086 0.0617-0.45273 0.13009-0.63114 0.20592-0.2312 0.09813-0.43786 0.20443-0.62371 0.32115-0.13381 7.7372 7.3596 15.402 17.48 19.42 7.6993 3.0568 14.891 2.8219 18.053 2.5045 2.5766-0.35237 5.2268-1.0088 7.9149-2.0488 16.097-6.2266 15.186-17.16 11.997-22.019-3.3304-5.0736-12.302-2.4294-14.275-0.60735z" style="fill:#eda56e;stroke-width:.74339"/><path d="m28.881 91s-3.0368-6.2267-3.0368-18.071c0-11.845 2.5818-16.552 4.4039-16.401 1.8228 0.15165 2.4301 6.3783 3.0368 9.4151 0.60735 3.0368 2.7335 12.756 5.6193 13.515 2.8851 0.759 2.8851-4.0998 4.2522-7.8963 1.3664-3.7965 10.022-22.323 24.449-20.956 0 0 8.8077 0.9114 7.5923 18.526-1.1642 16.885-8.352 26.879-19.893 25.968-10.938-0.86382-10.478-5.0112-18.223-3.9489-7.7447 1.0638-8.2004-0.15091-8.2004-0.15091z" style="fill:#fff;stroke-width:.74339"/><path d="m31.614 87.508s-5.6193-2.1261-8.8077-0.4557c-3.1892 1.6704-1.8221 6.8333 5.4669 8.8077 7.4696 2.0235 12.114 1.4058 11.389-2.5818-0.60661-3.3401-8.048-5.7702-8.048-5.7702z" style="fill:#56595b;stroke-width:.74339"/><ellipse transform="rotate(11.426)" cx="46.483" cy="82.213" rx="4.708" ry="1.773" style="fill:#fff;stroke-width:.7434"/><path d="m38.473 80.158c-0.03196-0.32114-0.06839-0.63709-0.10854-0.94782-1.4652-0.96418-2.7074-4.1325-3.6151-7.2295-1.4065 0.58877-2.1744 4.3355-1.7336 8.7527 0.47131 4.7168 2.1425 8.4115 3.7333 8.2524 1.5909-0.1576 2.1952-4.111 1.7239-8.8278z" style="fill:#56595b;stroke-width:.74339"/><path d="m68.065 78.56c-0.02602 5.1963-0.91586 9.3898-3.7616 9.3898-2.3179 0-3.3906-4.383-3.3646-9.5786 0.02528-5.1963 1.4058-9.2485 3.4575-9.2381 2.0518 0.01041 3.6947 4.2306 3.6686 9.427z" style="fill:#56595b;stroke-width:.74339"/><ellipse transform="rotate(.72196)" cx="34.768" cy="75.228" rx=".53151" ry="1.063" style="fill:#fff;stroke-width:.74338"/><ellipse cx="63.276" cy="73.12" rx=".79766" ry="1.1768" style="fill:#fff;stroke-width:.74339"/><path d="m63.201 104.36s11.237-1.518 13.819-8.656c0 0-1.8228-2.277-5.3153 1.0638 0 0 3.3408-4.8596 7.1373-3.6448 3.7958 1.2154 2.7335 5.9226 0.759 7.593 0 0 1.6704-2.2778-0.60735-4.1006 0 0-3.7965 7.593-15.793 7.7446z" style="fill:#eda56e;stroke-width:.74339"/><path d="m74.387 94.645s2.2272-0.9114 4.4544 0.10184c2.2272 1.0118 2.025 2.9862 2.025 2.9862s-0.96195-2.025-2.0755-2.2272c0 0-1.721 6.2765-11.541 8.3015 0 0 10.124-3.0368 11.035-8.7059 0-7.43e-4 -1.3671-1.0645-3.8976-0.45644z" style="fill:#c2615d;stroke-width:.74339"/><ellipse transform="matrix(.93966 -.34212 .34171 .9398 0 0)" cx="12.889" cy="146.99" rx="16.784" ry="19.012" style="fill:#fdc394;paint-order:stroke fill markers;stroke-width:1.0354"/><path d="m60.793 114.96a19.012 16.784 70.106 0 0-4.9512 0.89844 19.012 16.784 70.106 0 0-3.4062 1.7949c0.57724 0.24876 1.2181 0.41316 1.9277 0.42187 4.9803 0.0612 9.5024-0.60925 13.428-1.584a19.012 16.784 70.106 0 0-6.998-1.5312z" style="fill:#eda56e"/><path d="m84.421 115.63c0.18687-1.7454 1.7258-2.5887 1.7258-2.5887s22.929 5.6617 23.874 14.669c0.50628 4.827-7.91 12.225-7.91 12.225s-1.1861 0.18061-2.8764-1.8522c-1.2499-1.5032-0.86291-3.0376-0.86291-3.0376s5.5902-4.1616 5.1775-7.0471c-0.76853-5.3722-17.833-9.6358-17.833-9.6358s-1.5212-0.61362-1.2944-2.7326z" style="fill:#fdc394"/><path d="m70.398 171.8c-0.11318 0.12467-1.0577 1.1658-1.6523 1.6504-0.96755 0.78846-2.4563 1.7531-3.7207 2.541l6.7402-0.0234s-1.3588-2.7042-1.3672-4.168z" style="fill:#b1b5bc"/><path d="m43.322 148.47c-2.1584-2.5484-2.5636-4.0871-2.8475-6.4068-0.07108-0.58084 0.30508-1.7288 0.30508-1.7288s1.4984 0.20832 2.2373 0.1017c1.0292-0.14852 2.9492-1.017 2.9492-1.017s1.7351 2.3877 3.1525 6.4068c0.44028 1.2484-0.04131 2.8701-0.91525 3.8644-1.0765 1.2248-4.5763 1.7288-4.5763 1.7288s-5.3439-0.74405-7.8305-3.9661c-1.1789-1.5275-1.9568-3.5661-1.8305-5.4915 0.09131-1.3918 0.47686-3.4265 1.8305-3.7627 1.0594-0.26316 2.6441 1.9322 2.6441 1.9322s-1.0458 1.3541-0.61017 3.661c0.19159 1.0147 1.2203 2.8475 1.2203 2.8475s-0.67983 0.65632-0.71186 2.0339c0.62654-0.74427 1.322-1.4237 1.322-1.4237s1.8146 2.4864 3.0508 2.2373c0.38753-0.0781 0.86567-0.71529 0.61017-1.017z" style="fill:#fff"/><path d="m39.334 146.55-0.64718 1.0786 1.0067-0.7191 2.3011 2.0135s-2.7225-2.8823-3.2359-5.2494c-0.38382-1.7695 0.61123-5.0336 0.61123-5.0336l-0.53932 0.82696s-1.237-1.0301-1.9415-1.4022c-0.38678-0.20428-1.4022-0.0359-1.4022-0.0359s0.88785 0.17978 1.2584 0.3955c0.90154 0.52483 1.8696 1.3303 1.8696 1.3303s-0.67535 2.1215-0.43146 3.6314c0.17896 1.1079 1.1505 3.164 1.1505 3.164z" style="fill:#56595b"/></g><g transform="matrix(.88953 0 0 .88953 10.605 10.605)"><path d="m75.792 154.18 3.4516-0.14382s4.4456 1.4704 6.4718 4.9617c1.4446 2.4892 4.3865 7.4786 4.3865 7.4786l13.807-14.957s-6.0799-10.207-15.029-10.355c-13.03-0.21579-18.624 7.1909-18.624 7.1909l2.8764 0.35954 0.14382 3.0202 4.6022-0.71909-2.6606 1.7258 0.43146 0.35954z" style="fill:#ececec"/><path d="m102.61 153.03-1.0786-3.8831 2.6606 2.9483s7.3328 13.189 13.878 14.454c2.9064 0.56151 4.4584-2.0135 4.4584-2.0135l3.5236 4.6741-9.8516 3.955-25.672-4.6022-5.0336-9.8516 4.3145 4.6741-2.0854-5.8966 3.7393 3.8112-2.5887-8.3415 4.3865 3.8112-1.4382-4.1707 2.8045 2.5168-0.07191-3.3797 2.8045 1.9416-3.5235-7.8381 6.3999 7.0471-1.3663-4.0269z" style="fill:#f4806d"/><path d="m110.96 161.94-7.1895 8.7012 4.9238 1.1699 7.5156 1.3477 3.0117-1.209 3.0391-7.041c-0.40775 0.50316-1.2689 1.3573-2.5625 1.627l-0.10938 0.0781-0.0781-0.043c-0.43304 0.0682-0.9103 0.0734-1.4316-0.0274-2.1476-0.41492-4.376-2.1216-6.4062-4.2168z" style="fill:#ba6561"/><path d="m122.61 164.1s-0.91266 2.4689-2.0135 2.8045c-5.2889 1.6121-13.236-5.964-20.206-5.537-10.804 0.66175-13.375 15.317-13.375 15.317s22.347 1.7313 33.366 0.21573c2.1113-0.29041 6.3999-8.5572 6.3999-8.5572z" style="fill:#f8c18c"/><path d="m103.26 166.18s6.1616 6.5516 6.9033 10.571c3.101 1.8422 10.786 0.86291 10.786 0.86291l6.4718-9.8516-2.9483-2.1573s-2.6755 8.5614-7.119 8.6291c-3.2468 0.0495-14.094-8.0538-14.094-8.0538z" style="fill:#f4806d"/><ellipse cx="133.22" cy="154.22" rx="15.661" ry="16.627" style="fill:#f8c18c;paint-order:stroke fill markers;stroke-width:1.0229"/><path d="m138.18 169.84a6.4359 3.991 3.5701 0 0-6.2188 3.5996 6.4359 3.991 3.5701 0 0 0.26758 1.2969 6.5078 3.5955 0 0 0-0.35156 1.1543 6.5078 3.5955 0 0 0 6.5078 3.5957 6.5078 3.5955 0 0 0 6.5078-3.5957 6.5078 3.5955 0 0 0-0.23437-0.95508 6.4359 3.991 3.5701 0 0 0.15039-0.69336 6.4359 3.991 3.5701 0 0-6.1758-4.3848 6.4359 3.991 3.5701 0 0-0.45313-0.0176z" style="fill:#fff;opacity:.5;paint-order:stroke fill markers"/><ellipse cx="138.46" cy="173.52" rx="3.919" ry="1.9415" style="fill:#56595b;paint-order:stroke fill markers"/><ellipse cx="125.81" cy="176.83" rx="5.2134" ry="2.8045" style="fill:#fff;paint-order:stroke fill markers"/><path d="m141.46 167.08-15.152 1.7305-1.7052 7.5676 5.0859 0.71289 1.7052-8.384 6-0.40625-1.0703 6.8379c0.63604 0.20681 1.3798 0.31743 2.1406 0.31836 0.9072-2e-3 1.7852-0.1589 2.4844-0.44532z" style="fill:#ba6561"/><path d="m126.13 139.4c-1.4312 0.77222-2.7421 1.7735-3.8867 2.9688 0.64425-0.25342 1.7502-0.62999 2.4336-0.5 3.5381 0.67306 3.7637 4.2695 3.7637 4.2695l-9.8574 2.2285c-0.67117 1.871-1.0185 3.8553-1.0254 5.8574 2e-3 0.0723 5e-3 0.14455 8e-3 0.2168l0.65429 4.5156c0.48991 1.7412 1.2454 3.3854 2.2363 4.8672l0.35742 0.21289s2.9102-1.6853 4.0664-0.91406c0.82043 0.54728 2.0631 2.8583 2.9492 4.373 0.87712 1.4994-5.7015-1.4894-5.7015-1.4894s2.0378 2.074 3.2539 2.8476c1.1191 0.71193 4.3617 1.5656 4.3617 1.5656 1.14 0.28135 2.3062 0.42614 3.4766 0.43164 5.5382-7e-3 10.661-3.1198 13.473-8.1856l-1.6641-19.332c-1.2417-1.5243-2.734-2.7963-4.4043-3.7539z" style="fill:#f4806d"/><path d="m130.58 139.93c2.3838 2.0659 3.6553 2.7678 5.6949 3.0509 1.8268 0.25352 2.9637-0.18639 4.7797-1.322 0.54683-0.34198 1.295-0.20171 1.9322-0.1017 0.75255 0.11813 2.1356 0.81356 2.1356 0.81356s1.4201 0.0756 2.9492-1.2203c-0.61902 1.9482-1.2203 2.1864-1.2203 2.1864s2.9524-0.99627 5.1864-2.7966c-1.7516 4.0518-2.8475 6.1017-2.8475 6.1017s0.0418 6.5847-0.20339 9.8644c-0.52787 7.0594-5.763 13.747-11.797 13.729-5.2909-0.0161-11.005-5.5753-10.271-12.102 0.46507-4.134 3.0508-12.102 3.0508-12.102s-1.941-1.7456-2.2373-4.1695c3.1503 2.3316 6.3051 2.8474 6.3051 2.8474s-2.3708-2.1841-3.4576-4.7797z" style="fill:#fff"/><path d="m152.03 140.54c-2.234 1.8004-5.1855 2.7969-5.1855 2.7969s0.60168-0.23928 1.2207-2.1875c-1.529 1.2959-2.9492 1.2207-2.9492 1.2207s-1.3842-0.69633-2.1367-0.81446c-0.63716-0.10001-1.3848-0.24041-1.9316 0.10157-1.8159 1.1356-2.9525 1.5758-4.7793 1.3223-1.769-0.24551-3.0016-0.86317-4.8418-2.3555l-0.45899 0.11914c1.0736 2.0232 2.6516 3.5703 2.9395 3.8438 0.22803-0.0592 4.4349-1.1373 7.75-0.99609 1.6358 0.0697 3.992 0.40079 3.8652 2.0332-0.21822 2.8108-4.7286 3.2032-7.5254 2.8477-3.5051-0.44564-8.373-4.6328-10.209-6.3106 0.41186 2.2631 2.1758 3.8691 2.1758 3.8691s-1.9357 5.9659-2.7578 10.252l0.0488 2.4355-0.3789 0.0996c-0.15616 3.5088 1.5108 6.6779 3.9199 8.7832 0.94149-1.2047 2.9768-3.5637 4.6582-3.7734 1.1282-0.14074 0.39766 1.5687 3.0508 1.5254 3.4052-0.0556 2.2227-2.5559 3.7637-2.7461 0.69563-0.0859 2.5271 1.0002 3.9629 1.9277 0.26158-0.4003 0.49506-0.82509 0.7246-1.252 6e-3 4.1e-4 0.0119 2e-3 0.0176 2e-3 0.0317-0.0592 0.0548-0.12397 0.0859-0.18359 0.21731-0.41622 0.421-0.84068 0.60547-1.2774 0.038-0.0897 0.0748-0.17909 0.11133-0.26953 0.18418-0.45714 0.35249-0.92227 0.49804-1.3965 0.035-0.11342 0.0649-0.22757 0.0977-0.3418 0.12994-0.45667 0.24632-0.91718 0.33789-1.3848 0.12548-0.63556 0.22112-1.2784 0.26953-1.9258 0.24519-3.2797 0.20313-9.8633 0.20313-9.8633s1.096-2.0498 2.8476-6.1016z" style="fill:#d8d8d8"/><ellipse cx="135.28" cy="151.78" rx="3.0254" ry="3.1525" style="fill:#fff;paint-order:stroke fill markers"/><path d="m141.36 78.305s13.309-14.974 17.288-13.831c3.9644 1.1397-0.91526 25.322-0.91526 25.322z" style="fill:#f4806d"/><path d="m145.07 78.864s10.634-10.973 12.61-10.322c1.3881 0.45745-0.50848 18.966-0.50848 18.966z" style="fill:#fff"/><path d="m157.47 68.516c-2.4207 0.05146-12.4 10.35-12.4 10.35l3.0273 2.1621c0.7201-1.6619 2.9546-6.2128 7.7012-10.756 0.51306-0.49107 1.43-0.85243 2.1816-1.1074-0.0768-0.33295-0.17001-0.578-0.30079-0.62109-0.0618-0.02035-0.13089-0.029-0.20898-0.02734z" style="fill:#d8d8d8"/><path d="m102.1 110.03c-3.5935-14.12 11.39-31.68 30.305-32.746 11.762-0.66295 28.639 3.3259 26.847 22.983-0.59482 6.5282-3.661 19.322-3.661 19.322s-28.59 9.4745-43.322 12.407c-5.4825 1.0912-6.0174-1.1135-6.0174-1.1135s1.2539 0.5692 3.17 0.0966c0.94932-0.23416 2.4407-1.6271 2.4407-1.6271s-6.469-6.38-9.7627-19.322z" style="fill:#f8c18c"/><path d="m126.37 78.213c-15.925 3.9497-27.466 19.244-24.266 31.82 3.2937 12.942 9.7637 19.322 9.7637 19.322s-1.4921 1.3928-2.4414 1.627c-1.9161 0.4726-3.1699-0.0957-3.1699-0.0957s0.5351 2.2045 6.0176 1.1133c1.5314-0.3048 3.2384-0.69291 5.0215-1.1211-2.3717-4.3372-5.0603-9.7689-5.9785-13.664-1.045-4.433-1.7865-9.7126-1.293-14.24 0.43728-4.0114 1.9782-7.6594 3.8828-11.217 2.5133-4.6944 9.4989-10.988 12.463-13.545zm22.484 2.7598s4.7976 5.8906 6.6152 9.2031c1.5118 2.7553 3.349 8.0727 3.8262 9.4805 0.63402-8.7865-2.529-14.364-7.2734-17.756z" style="fill:#f4806d"/><path d="m125.69 112.78s0.37738-17.613 7.8305-18.203c5.8226-0.46135 5.6949 14.949 5.6949 14.949z" style="fill:#f4806d"/><path d="m145.32 106.68 8.2373 3.7627s0.58574-15.763-4.8814-15.661c-4.1438 0.07735-3.3559 11.898-3.3559 11.898z" style="fill:#f4806d"/><path d="m125.39 112.37c-0.37633-6.1588 3.8092-16.701 8.4407-16.475 3.5079 0.1718 5.3719 8.5413 5.3898 14.441 9e-3 2.8209-0.61017 8.4407-0.61017 8.4407l8.7458-4.7797s-1.8084-0.49051-1.9322-7.1186c-0.0724-3.8799 0.59807-11.333 2.8475-11.288 3.6148 0.07183 4.7445 9.6237 5.1864 14.847 0.22316 2.6377-1.322 7.8305-1.322 7.8305l-20.746 5.2881s-5.35-0.54853-6-11.186z" style="fill:#fff"/><path d="m105.36 121.53c6.9716-2.4672 14.658 0.71188 21.864 1.1186 7.7446 0.43716 11.814-8.8634 18.814-9.5593 3.642-0.36206 6.9555 2.4153 10.576 2.9492 3.2201 0.47477 6.5335 0.61156 9.7627 0.20339 2.8975-0.36623 4.509 1.1969 4.678 3.0508 0.66536 7.2983-2.7936 9.8748-5.1864 10.78-3.2561 1.2312-6.5287 2.4472-9.661 3.9661-4.6572 2.2584-8.5726 6.1241-13.525 7.6271-2.57 0.77989-5.3517 0.7461-8.0339 0.61017-3.2673-0.16558-9.661-1.7288-9.661-1.7288s-0.0196-0.48997-0.10169-0.50847c-4.7558-0.16936-10.17 6.2034-10.17 6.2034s-0.0538-2.7734 4.4746-8.4407c-5.4506 1.4097-9.8644 6.9152-9.8644 6.9152s0.23283-4.4905 5.8983-11.186c-3.4277 0.18415-10.576 2.4407-10.576 2.4407s3.4631-3.6495 7.6271-6.3051c-4.9863-1.1244-11.492 0.81356-11.492 0.81356s4.9406-4.4566 13.322-6.3051c-3.3784-1.105-8.7458-2.6441-8.7458-2.6441z" style="fill:#d8d8d8"/><ellipse transform="rotate(-3.8119)" cx="139.55" cy="118.3" rx="1.678" ry="4.7288" style="fill:#4a4a4a;paint-order:stroke fill markers"/><path d="m147.66 114c2.8553-0.0195 5.2116 2.0464 13.322 3.7627 1.2917 0.27334 1.9399 2.3013 2.9492 3.1525 2.3352 1.9695 3.9661 1.8305 3.9661 1.8305s-1.482 4.1577-3.1525 4.5763c-12.022 3.0122-14.334 10.526-22.881 11.085-4.3692 0.28574-17.916-1.1364-19.627-2.5424-1.2583-1.0338 1.0113-3.7966-0.20339-4.8814-1.7744-1.5845-7.4925 2.087-7.1186 0.50848 0.27086-1.1438 3.5555-2.9251 2.8475-4.5763-0.39563-0.92262-2.3676 0.20811-2.9492-0.61017-0.49707-0.69944 2.2753-2.6644 3.8644-3.1525 3.676-1.1291 7.7291 1.8117 11.492 1.017 6.5169-1.3766 10.831-10.124 17.492-10.169z" style="fill:#fff"/><ellipse transform="matrix(.98728 -.15896 .10672 .99429 0 0)" cx="153.67" cy="142.6" rx="5.8819" ry="3.4191" style="fill:#4a4a4a;paint-order:stroke fill markers;stroke-width:1.0846"/><ellipse transform="rotate(-12.118)" cx="138.01" cy="148.78" rx="2.9492" ry=".9661" style="fill:#fff;paint-order:stroke fill markers"/><path d="m146.84 126.28h1.7258l-0.93482 0.64719s-0.38042 0.66561-0.64718 0.93482c-0.35108 0.35429-1.2224 0.86291-1.2224 0.86291z" style="fill:#d8d8d8"/><path d="m138.21 128.14s0.16849-1.3613 1.4382-2.0854c-0.70863 1.2778-0.50337 1.8696-0.50337 1.8696l7.7662-1.6539-1.5101 3.955-6.4718-0.0719z" style="fill:#4a4a4a"/><path d="m138.5 129.01s1.0882-0.77893 1.7258-0.86291c1.0673-0.14056 2.1872 0.19464 3.164 0.64718 0.77446 0.35881 1.9775 1.3663 1.9775 1.3663s-0.38953 3.0497-1.1146 4.2426c-0.30823 0.50714-0.7014 1.2469-1.2944 1.2225-1.5772-0.0649-2.3201-2.1895-3.164-3.5236-0.59737-0.94427-1.2944-3.0921-1.2944-3.0921z" style="fill:#ff837d"/><path d="m102.69 109.59c-7.5051-8.7953-21.72-24.928-16.539-30.489 4.9908-5.3568 30.921 3.3078 30.921 3.3078l5.8966 1.8696-10.355 32.934s-7.216-4.4495-9.9235-7.6224z" style="fill:#f8c18c"/><path d="m148.85 81.26s9.5107-5.9105 17.402-6.6156c4.2408-0.37897 12.656 1.7258 12.656 1.7258s-7.4496-0.283-11.074 0.43146c-5.2079 1.0266-14.957 5.4651-14.957 5.4651s7.1478-0.72806 12.656 1.0067c5.0922 1.6037 14.238 7.3347 14.238 7.3347s-9.5248-3.7139-14.526-4.6022c-3.1656-0.56228-9.6358-0.43146-9.6358-0.43146s6.8227 3.9661 9.3482 6.9033c2.5445 2.9594 5.4651 10.355 5.4651 10.355s-5.0764-7.0482-8.4853-9.6358c-2.4593-1.8668-8.3415-4.0269-8.3415-4.0269z" style="fill:#f8c18c"/><ellipse transform="rotate(-4.4998)" cx="119.03" cy="124.03" rx="2.2881" ry="6.4068" style="fill:#4a4a4a;paint-order:stroke fill markers"/><ellipse cx="127.83" cy="111.61" rx="1.0169" ry="2.4915" style="fill:#fff;paint-order:stroke fill markers"/><ellipse cx="146.59" cy="106.98" rx=".66102" ry="1.9322" style="fill:#fff;paint-order:stroke fill markers"/><path d="m102.81 105.66c-1.4966 0.38639-14.934-18.131-11.797-22.78 2.5559-3.7867 22.01 1.4957 22.475 4.1695 0.20593 1.1847-2.855 2.8069-6.3051 9.0508-1.6946 3.067-2.9348 9.188-4.3729 9.5593z" style="fill:#fff"/><path d="m95.541 81.559c-2.1905-0.0045-3.8845 0.37559-4.5234 1.3223-3.1377 4.6486 10.3 23.166 11.797 22.779 0.23735-0.0613 0.46776-0.29004 0.69727-0.625-0.33173-0.33317-4.7645-4.8056-6.3926-7.6113-2.519-4.3411-6.3202-12.655-5.1875-14.135 1.3929-1.8191 13.816 3.8166 13.816 3.8166s-4.9042 2.4975-5.0696 7.7752c3.4024-6.0146 7.8301-5.4902 7.8301-5.4902l2.2246 1.4414c1.7312-2.1199 2.8889-3.0381 2.7598-3.7812-0.34856-2.0053-11.38-5.4787-17.951-5.4922z" style="fill:#d8d8d8"/><path d="m133.88 149.64 1.8814 1.017-1.3729 3.4068z" style="fill:#56595b"/><path d="m141.95 159.93s1.5555 1.853 4.8179 2.1573c3.1068 0.28977 3.7393-1.2225 3.7393-1.2225l-5.537-4.0269z" style="fill:#f4806d"/><path d="m141.73 150.01s3.1036-7.1075 7.3347-7.7662c1.4602-0.22731 2.5168 1.7977 2.5168 1.7977s3.9117-0.3651 4.1707 2.0134c0.0872 0.80102-0.93482 2.2292-0.93482 2.2292s0.92196 1.1162 1.0067 1.7977c0.0797 0.64047-0.50337 1.8696-0.50337 1.8696s1.2756 0.85003 1.2225 2.8044c-0.0196 0.72082-0.791 2.0135-0.791 2.0135s0.72336 0.20001 0.71909 1.1506c-6e-3 1.3597-3.7611 3.0858-6.0404 3.2359-4.136 0.27231-6.328-2.5168-6.328-2.5168z" style="fill:#fff"/><path d="m149.07 142.24c-0.38154 0.0594-0.75153 0.18747-1.1133 0.3418 0.60653-7e-3 1.6092 0.10002 1.7598 0.95312 0.10315 0.58443-1.2949 1.2227-1.2949 1.2227l4.0274-0.0723s2.1287-0.11128 2.2285 1.1504c0.0576 0.72831-1.6523 1.4395-1.6523 1.4395s1.4805 1.111 1.5098 2.5156c0.0137 0.65935-0.64843 1.8691-0.64843 1.8691s1.2244 1.5475 1.1523 2.4453c-0.0442 0.55005-0.93555 1.3672-0.93555 1.3672s1.0515 1.436 0.79102 2.1562c-0.89169 2.4655-3.9208 1.2514-5.5364 0.64863-3.0844-1.1507-3.8835-2.5178-3.8835-2.5178l-1.1504 3.0195 0.0547 0.14454c0.60203 0.63845 2.6083 2.4555 6.0566 2.2285 2.2792-0.15006 6.035-1.8747 6.041-3.2344 4e-3 -0.95054-0.71875-1.1524-0.71875-1.1524s0.77142-1.2909 0.79102-2.0117c0.0532-1.9544-1.2227-2.8047-1.2227-2.8047s0.58361-1.2306 0.5039-1.8711c-0.0848-0.68156-1.0078-1.7969-1.0078-1.7969s1.0228-1.4275 0.93555-2.2285c-0.25905-2.3786-4.1719-2.0137-4.1719-2.0137s-1.0554-2.0261-2.5156-1.7988z" style="fill:#d8d8d8"/><path d="m138.93 150.51 2.3011-0.71909s2.6-0.2718 4.1707 3.6674c1.1006 2.7601-0.14382 4.746-0.14382 4.746l-2.373 1.3663z" style="fill:#4a4a4a"/><ellipse transform="rotate(-24.996)" cx="60.07" cy="199.9" rx="4.4746" ry="5.9492" style="fill:#fff;paint-order:stroke fill markers"/><ellipse transform="matrix(.7076 -.70662 .61631 .7875 0 0)" cx="12.46" cy="209.28" rx="2.1584" ry="3.1742" style="fill:#d8d8d8;paint-order:stroke fill markers;stroke-width:.50732"/><path d="m121.53 155.9s2.3345 6.5098 7.1186 6.5085c4.8352-1e-3 9.8644-3.7119 9.8644-3.7119s1.6376-0.79912 0.91526-2.5424c-1.0205-2.463-2.6949-2.6949-2.6949-2.6949s-5.4205 2.6095-7.6271 2.4407c-2.0033-0.15328-4.322-1.983-4.322-1.983z" style="fill:#f8c18c"/><path d="m117.43 151.52s-1.3717 0.49401-1.7977 0.0719c-1.292-1.2801 0.0695-2.8138 1.0067-3.6674 2.3378-2.129 6.7303-3.1744 8.1257-3.164 3.0033 0.0223 6.1742 0.42345 8.8078 3.5359 0.99635 1.1775 1.332 3.1546 1.2965 4.6966-0.0648 2.8181-2.1252 4.7877-3.4887 4.9988-1.11 0.1718-2.5887-2.1573-2.5887-2.1573s-1.5266 2.3422-2.7325 2.373c-0.69984 0.0179-1.6539-1.2944-1.6539-1.2944s-1.1128 1.4591-1.7977 1.2224c-2.0008-0.69136-2.2292-3.0202-2.2292-3.0202s-0.87979 0.94494-1.4382 0.64718c-2.1739-1.1592-1.5101-4.2426-1.5101-4.2426z" style="fill:#fff"/><path d="m120.26 145.83c-1.3206 0.51268-2.6482 1.1999-3.6211 2.0859-0.93722 0.85355-2.2979 2.3878-1.0059 3.668 0.42602 0.42211 1.7969-0.0723 1.7969-0.0723 0 1e-5 -0.66412 3.083 1.5098 4.2422 0.55839 0.29776 1.4375-0.64648 1.4375-0.64648s0.22967 2.3282 2.2305 3.0195c0.68492 0.23667 1.7969-1.2227 1.7969-1.2227s0.95446 1.3128 1.6543 1.2949c1.206-0.0308 2.7324-2.373 2.7324-2.373s1.4798 2.328 2.5898 2.1562c1.3635-0.21102 3.4235-2.1799 3.4883-4.998 0.0227-0.98506-0.10916-2.1458-0.46485-3.1641-0.3168-0.83699-0.70972-1.4693-1.4277-2.1777 0.25581 1.1176 0.58572 2.956 0.20117 4.0117-0.40608 1.1148-0.96715 2.6278-2.5176 2.5176-1.905-0.15582-1.6523-4.6016-1.6523-4.6016s-1.4323 7.257-3.7402 6.4707c-1.2711-0.43305-0.97952-2.6378 0.29091-4.6325 1.2704-1.9948 3.5196-3.7796 3.5196-3.7796s-2.8363-0.0246-4.7808 2.3558c-1.6685 2.0425-1.9803 5.7422-2.4809 5.193-3.3111-3.6326 4.7461-8.9883 4.7461-8.9883s-3.8123 0.66416-5.551 2.5472-1.4038 4.9848-1.8553 4.572c-1.9239-1.7593-0.34954-3.2018 2.0117-6.6875-3.4743 1.5962-4.1943 3.6516-5.0332 3.2363-0.89249-0.4418 2.9318-3.401 4.125-4.0274z" style="fill:#d8d8d8"/><path d="m117.28 151.95s0.36137-1.6131 0.791-2.3011c0.46685-0.74755 1.8696-1.8696 1.8696-1.8696s-0.99266 1.6388-1.5101 2.4449c-0.37348 0.58184-1.1506 1.7258-1.1506 1.7258z" style="fill:#56595b"/><path d="m120.16 155.11s-0.68239-3.5792 0.86291-5.537c1.8191-2.3047 4.5303-2.8764 4.5303-2.8764s-2.545 0.89412-4.1707 3.4516c-1.337 2.1032-1.2225 4.9617-1.2225 4.9617z" style="fill:#56595b"/><path d="m123.76 157.27s-1.2577-2.8602 0.35955-5.8966c1.3802-2.5915 2.8764-2.8764 2.8764-2.8764s-1.2961 0.67785-2.5168 3.4516c-1.337 3.038-0.7191 5.3213-0.7191 5.3213z" style="fill:#56595b"/><path d="m128.83 155.97s0.40731-0.89052 0.50336-1.3663c0.10446-0.51744 0.0719-1.582 0.0719-1.582s0.59715 1.2519 0.43145 1.8696c-0.12742 0.47503-1.0067 1.0786-1.0067 1.0786z" style="fill:#56595b"/><path d="m136.73 153.46s-5.217 2.6357-7.4236 2.4668c-0.19452-0.0149-0.29203-0.0304-0.49009-0.0743l-9e-3 1.3466 1.7197 1.4483 4.5254-0.9668 1.8574-4.1719c-0.0778-0.0206-0.17968-0.0488-0.17968-0.0488z" style="fill:#f8c18c"/><path d="m143.6 150.77-2.373 1.1074 1.1504 2.4453 2.916-1.0938c-0.50897-1.1887-1.1085-1.95-1.6934-2.459z" style="fill:#83868c"/><path d="m139.19 150.3a5.9492 4.4746 65.004 0 1 2.1035 2.6894 5.9492 4.4746 65.004 0 1-1.541 7.2832 5.9492 4.4746 65.004 0 1-2.7891 0.10351 5.9492 4.4746 65.004 0 0 4.4668 0.8125 5.9492 4.4746 65.004 0 0 1.541-7.2832 5.9492 4.4746 65.004 0 0-3.7812-3.6055z" style="fill:#d8d8d8;paint-order:stroke fill markers"/></g><g transform="matrix(.88953 0 0 .88953 10.605 10.605)" style="fill:#c39a54">
		<path d="m178 170.27c0 4.271-3.463 7.734-7.734 7.734h-148.53c-4.271 0-7.734-3.463-7.734-7.734v-148.53c0-4.271 3.463-7.734 7.734-7.734h148.53c4.271 0 7.734 3.463 7.734 7.734v148.53zm-4-148.62c0-2.015-1.634-3.648-3.649-3.648h-148.7c-2.015 0-3.649 1.633-3.649 3.648v148.7c0 2.015 1.634 3.648 3.649 3.648h148.7c2.016 0 3.649-1.634 3.649-3.648v-148.7z" style="fill:#c39a54"/>
	</g><path d="m172.5 30.402c0-6.0213-4.8809-10.902-10.903-10.902h-131.19c-6.0213 0-10.902 4.8809-10.902 10.902v131.19c0 6.0222 4.8809 10.903 10.902 10.903h131.19c6.0222 0 10.903-4.8809 10.903-10.903zm-5.3372 131.7c0 2.7967-2.2674 5.0632-5.0632 5.0632h-132.2c-2.7967 0-5.0632-2.2674-5.0632-5.0632v-132.2c0-2.7967 2.2665-5.0632 5.0632-5.0632h132.2c2.7967 0 5.0632 2.2665 5.0632 5.0632v132.2z" style="fill:#f9de90;stroke-width:.88953"/><path d="m31.714 21.626 89.873-1.2365h-90.483c-5.9572 0-10.714 4.7572-10.714 10.714v86.385l1.055-85.576c0-5.8923 4.3765-10.287 10.27-10.287z" style="fill:#fff;stroke-width:.88953"/><path d="m160.34 170.26-89.873 1.3485h90.483c5.9563 0 10.657-4.9823 10.657-10.94v-86.385l-1.0256 85.633c8.9e-4 5.8914-4.348 10.344-10.241 10.344z" style="fill:#fff;stroke-width:.88953"/>
<path d="m131.5 31.588 5.7569 15.863s5.7261-5.2964 6.7804-3.9659c3.0725 3.8777-10.49 9.7228-10.49 9.7228l0.25587 15.608h26.098l0.25586-12.793-4.2217 0.12793s4.4444-4.9142 4.4776-11.258c0.0589-11.257-9.4458-16.131-15.863-16.247-8.7517-0.15823-13.049 2.9424-13.049 2.9424z" style="fill:#f9de81;stroke-width:.88953"/><path d="m134.7 32.739 3.71 10.746s4.3372-3.151 6.9083-1.919c7.0702 3.3878-9.2111 13.305-9.2111 13.305l-0.12793 11.642 21.876 0.12793 0.12792-8.1876-7.9317 0.12793s6.67-4.1001 7.6759-12.537c1.0411-8.7332-6.6567-14.824-11.898-15.224-3.7538-0.28656-11.13 1.919-11.13 1.919z" style="fill:#728dbe;stroke-width:.88953"/></svg>
