<svg width="192px" height="192px" enable-background="new 0 0 192 192" version="1.1" viewBox="0 0 192 192" xml:space="preserve" xmlns="http://www.w3.org/2000/svg">
<path d="m170.72 160.9c0 5.9136-4.7946 10.708-10.709 10.708h-128.91c-5.9145 0-10.709-4.7946-10.709-10.708v-128.91c0-5.9136 4.7946-10.708 10.709-10.708h128.91c5.9145 0 10.709 4.7946 10.709 10.708z" style="fill:#fff;stroke-width:.88953"/><path d="m66.399 171.61c-0.24818-1.7791-1.2631-2.6482-2.6891-3.9495-11.002-10.045-36.204-30.609-43.32-35.438v28.206c0 5.9136 5.2678 11.181 11.181 11.181z" style="fill:#90dc9f;stroke-width:.88953"/><path d="m170.72 160.43v-84.685c-1.7791 2.3128-31.336 28.094-45.115 49.671-8.7806 13.753-13.627 31.963-8.0948 46.195h42.917c5.9136 0 10.292-5.2678 10.292-11.181z" style="fill:#ff857e;stroke-width:.88953"/><path d="m37.1 121.55c-1.8191 0-3.5128 0.54707-4.9271 1.4838l-6.6662-8.7646-1.4357 1.1146 6.6938 8.8002c-1.6145 1.619-2.6143 3.8526-2.6143 6.3148 0 4.9351 4.0145 8.9496 8.9487 8.9496s8.9487-4.0145 8.9487-8.9496c8.89e-4 -4.9351-4.0136-8.9487-8.9478-8.9487zm0 16.08c-3.9326 0-7.1323-3.1996-7.1323-7.1323 0-3.9317 3.1997-7.1314 7.1323-7.1314s7.1314 3.1997 7.1314 7.1314c0 3.9326-3.1988 7.1323-7.1314 7.1323z" style="fill:#f9de90;stroke-width:.88953"/><path d="m68.035 137.17s-14.173 3.5421-19.896 12.537c-5.7242 8.9941 0.2722 17.716 5.9964 19.624 5.7233 1.9089 7.086-3.543 6.5416-5.178-0.5444-1.635-4.9058 2.9977-7.3591-2.7246-2.4524-5.7242 2.4533-12.265 8.7219-13.901 6.2677-1.6359 5.9955-10.358 5.9955-10.358z" style="fill:#eda56e;stroke-width:.88953"/><path d="m20.39 31.571v83.254c6.2267 1.4215 11.953 2.1776 18.135 2.1776 39.239 0 71.166-30.242 71.166-67.806 0-10.03-2.1509-19.913-6.2232-27.919h-71.897c-5.9136 8.9e-4 -11.181 4.3792-11.181 10.293z" style="fill:#f9de90;stroke-width:.88953"/><g transform="matrix(.88953 0 0 .88953 10.605 10.605)">
		<polygon points="33.798 34.227 13.681 30.204 14.082 28.2 30.734 31.531 24.761 13.799 26.697 13.146" style="fill:#56595b"/>
	</g><g transform="matrix(.88953 0 0 .88953 10.605 10.605)">
		<polygon points="170.92 132.64 171.94 152.74 152.12 153.56 152.89 173.89 150.64 173.97 149.78 151.41 169.58 150.59 168.56 130.45 178.91 130.22 178.96 132.46" style="fill:#90dc9f"/>
	</g><path d="m34.375 120.46c-1.8191 0-3.5128 0.54707-4.9271 1.4838l-5.3932-6.9473-1.4357 1.1146 5.4217 6.9828c-1.6145 1.619-2.6143 3.8526-2.6143 6.3148 0 4.9351 4.0145 8.9496 8.9487 8.9496s8.9487-4.0145 8.9487-8.9496c0-4.9342-4.0145-8.9487-8.9487-8.9487zm0 16.08c-3.9326 0-7.1323-3.1997-7.1323-7.1323 0-3.9326 3.1997-7.1314 7.1323-7.1314 3.9317 0 7.1314 3.1988 7.1314 7.1314 0 3.9326-3.1997 7.1323-7.1314 7.1323z" style="fill:#56595b;stroke-width:.88953"/><g transform="matrix(.88953 0 0 .88953 10.605 10.605)">
		<polygon points="173.38 136.11 174.4 156.21 154.57 157.03 155.34 177.36 153.1 177.45 152.24 154.88 172.04 154.06 171.01 133.92 181.36 133.69 181.41 135.94" style="fill:#56595b"/>
	</g><g transform="matrix(.88953 0 0 .88953 10.605 10.605)">
		
			
				<rect transform="matrix(.8629 .5054 -.5054 .8629 31.351 -80.308)" x="162.05" y="12.103" width="3.268" height="11.047" style="fill:#56595b"/>
		
	</g><g transform="matrix(.88953 0 0 .88953 10.605 10.605)">
		
			
				<rect transform="matrix(.8629 .5054 -.5054 .8629 32.144 -83.64)" x="168.59" y="11.898" width="3.268" height="11.047" style="fill:#748fbe"/>
		
	</g><g transform="matrix(.88953 0 0 .88953 10.605 10.605)">
		<polygon points="13.122 27.089 28.99 10.071 38.511 37.093 12.454 31.837 12.857 29.835 35.417 34.385 28.188 14.015 14.641 28.455" style="fill:#ff857e"/>
	</g><path d="m39.852 66.381s-5.6334-15.99-1.9988-28.71c0 0 8.7219-4.1799 26.167 6.7231-8.9e-4 0-13.083 14.718-24.168 21.987z" style="fill:#748fbe;stroke-width:.88953"/><g transform="matrix(.88953 0 0 .88953 10.605 10.605)"><path d="m133.24 117.46s17.715 4.484 26.943 24.311c8.812 18.933 4.585 32.378 1.215 29.008s-14.712-11.336-26.661-11.029c0 0-3.2091-1.2994-3.986-0.219 6.63 4.3732 7.352 18.47 7.352 18.47h-83.566s-5.597-13.255 1.757-26.43c7.354-13.176 21.142-16.899 21.142-16.899z" style="fill:#9abefc"/><path d="m52.511 165.3c2.328-5.025 7.667-12.153 19.711-15.353 19.609-5.209 41.058-17.771 41.058-17.771-0.962-2.352-3.23-4.887-7.321-6.323l-28.527 8.774s-13.788 3.677-21.142 16.852c-2.693 4.824-3.649 9.646-3.779 13.821z" style="fill:#748fbe"/><path d="m54.362 155.76c-4.299 11.639 0.17 22.245 0.17 22.245l37.899-1.0067c2.2665-4.7191 3.0819-8.0093 2.1579-15.006-2.145-16.239-13.788-21.448-24.206-19.916-8.643 1.272-14.333 10.558-16.021 13.684z" style="fill:#fdc394"/><path d="m70.383 141.98c-8.644 1.271-14.333 10.557-16.021 13.683-1.25 3.384-1.758 6.672-1.851 9.635 2.328-5.025 7.667-12.152 19.71-15.351 4.519-1.201 9.136-2.792 13.565-4.53-4.515-3.255-10.117-4.215-15.403-3.437z" style="fill:#eda56e"/><path d="m135.46 157.02s-7.1184 0.11921-9.3555 2.4394c-1.7354 1.7999-0.0883 5.3516-1.627 7.3223-1.1195 1.4339-4.8809 2.4414-4.8809 2.4414l-4.8828-9.3555-9.3555 0.8125 6.916 11.391s-0.74313 4.3322 0.8125 4.8809c2.7881 0.98343 8.2219-0.45881 19.525-6.1016 0.77681-0.38778 2.0352 1.627 2.0352 1.627l2.748 0.17187c-0.85291-4.4706-2.6976-10.512-6.6465-13.117 0.77688-1.0804 3.9863 0.21875 3.9863 0.21875 0.57418-0.0148 1.1443 7e-3 1.7148 0.0293z" style="fill:#728dbe"/></g><path d="m170.14 110.36s-8.5413-5.4511-28.347 0.54529c-19.807 5.9955-27.62 22.35-53.241 23.622 0 0-11.266 2.1802-23.622-2.7255-12.357-4.9058-21.441-14.355-20.897-23.804 0 0-7.2684-13.629-7.2684-30.164 0-16.536 8.1766-18.534 8.9034-18.353 0 0 15.627-21.987 51.605-29.8 0 0 31.436-6.7231 55.24 6.5416 0 0 10.359 4.5429 18.535 18.534 0 0-4.5428-1.272-14.901 1.0906-10.358 2.3626-17.262 8.5404-19.08 9.9939s-1.8173 2.5441 1.8173 3.4523c3.6346 0.90822 23.986 6.3593 31.618 26.529z" style="fill:#9abefc;stroke-width:.88953"/><g transform="matrix(.88953 0 0 .88953 10.605 10.605)" style="fill:#c39a54">
		<path d="m178 170.27c0 4.271-3.463 7.734-7.734 7.734h-148.53c-4.271 0-7.734-3.463-7.734-7.734v-148.53c0-4.271 3.463-7.734 7.734-7.734h148.53c4.271 0 7.734 3.463 7.734 7.734v148.53zm-4-148.62c0-2.015-1.634-3.648-3.649-3.648h-148.7c-2.015 0-3.649 1.633-3.649 3.648v148.7c0 2.015 1.634 3.648 3.649 3.648h148.7c2.016 0 3.649-1.634 3.649-3.648v-148.7z" style="fill:#c39a54"/>
	</g><path d="m41.668 100.36s-3.4523-15.99-1.4535-25.803c1.9988-9.8125 5.6334-10.721 7.0869-7.8137s2.5441 15.264 4.179 19.988c1.635 4.7243-9.8125 13.629-9.8125 13.629z" style="fill:#748fbe;stroke-width:.88953"/><path d="m59.113 92.184s1.7657-11.584 8.1766-20.715c5.9964-8.5404 17.262-16.354 25.076-13.265 9.2574 3.6595 9.0848 24.167 4.9058 33.616-4.179 9.4495-38.158 0.36382-38.158 0.36382z" style="fill:#748fbe;stroke-width:.88953"/><path d="m122.35 52.208s3.9976 1.0906 5.4511 3.6338c0 0-0.18146 7.8137-8.7219 12.175 0 0 2.5441-10.722 3.2708-15.809z" style="fill:#748fbe;stroke-width:.88953"/><path d="m105.45 54.026s-3.2708-2.5441-5.0881-3.4523c-1.8173-0.90822 0.54529-3.0894 4.5429-5.2696 3.9976-2.1811 9.2672-3.9976 10.539-2.7255 1.272 1.272 2.5441 9.9939-0.18146 15.809-2.7691 5.9056-3.8161 0.18058-9.8125-4.3614z" style="fill:#fdc394;stroke-width:.88953"/><path d="m115.26 58.386c2.7255-5.8149 1.4535-14.537 0.18146-15.809-1.272-1.272-6.5416 0.54528-10.539 2.7255-3.092 1.6866-5.2038 3.3722-5.162 4.4699 0.0044 0.0036 0.0089 8e-3 0.01334 0.01245 0 0 0.9696-1.8778 8.1161-4.7848 5.5036-2.2381 8.1766-2.8465 8.2985 2.4836 0.10942 4.8275 0.16902 8.2647-1.4402 11.93 0.17168-0.29444 0.34781-0.63424 0.53194-1.0274z" style="fill:#eda56e;stroke-width:.88953"/><path d="m91.457 48.028s15.264-14.355 29.983-12.719c0 0 6.5416 3.9976-2.3617 32.708 0 0 5.814-23.622 0.90822-30.891 0 0-10.903-1.8173-28.529 10.902z" style="fill:#748fbe;stroke-width:.88953"/><path d="m136.75 68.536c-1.3726-0.75077-1.0238-1.6261 0.31757-2.6997 1.8173-1.4535 8.7228-7.6322 19.08-9.9939 10.358-2.3617 14.901-1.0906 14.901-1.0906-3.6355-2.5441-11.17-2.1313-16.061-0.88509-6.4402 1.6403-10.105 2.8839-18.062 8.3732-1.0408 0.71785-5.4902 3.7779-6.3949 3.5982 7e-3 0.0036 2.5432 1.4526 4.1755 1.997 0.61467 0.20459 1.3574 0.46078 2.045 0.70095z" style="fill:#748fbe;stroke-width:.88953"/><path d="m110.36 105.99c-3.9842-6.0711-14.718-2.9079-17.081-0.72675-2.3626 2.1802-6.3602 4.5429-6.3602 4.5429s-36.16-4.1799-42.157-1.6359c-0.27664 0.11742-0.52394 0.24463-0.74632 0.38428-0.16012 9.2583 8.8064 18.43 20.917 23.238 9.2129 3.6578 17.818 3.3767 21.601 2.9968 3.0831-0.42164 6.2543-1.2071 9.4709-2.4516 19.261-7.4508 18.171-20.534 14.355-26.348z" style="fill:#fdc394;stroke-width:.88953"/><path d="m45.667 59.476s3.6338-0.72675 4.9067 5.9964c1.272 6.7231 1.635 17.081 2.7255 20.897 0 0-1.8164-8.1766-2.907-15.445-1.0906-7.2684-5.8149-11.63-8.9042-9.0857-8.89e-4 0 2.1794-2.3626 4.179-2.3626z" style="fill:#748fbe;stroke-width:.88953"/><path d="m71.469 62.202s9.0857-11.448 21.078-9.2672c11.993 2.1802 16.717 18.353 11.63 36.887 0 0 3.0894-23.622-5.0881-30.891-8.1775-7.2684-17.989-5.6334-27.62 3.2708z" style="fill:#748fbe;stroke-width:.88953"/><path d="m93.274 105.27c-2.3626 2.1802-6.3602 4.5429-6.3602 4.5429s-19.235-2.2238-31.973-2.44c-0.44388 0.86374-0.25085 1.3886 0.47679 1.2889 2.665-0.36382 8.7219 3.149 14.779 4.7243 6.0577 1.5754 12.962 0.72675 17.566-1.9383 4.6033-2.665 7.1474-6.0568 14.053-6.0568 6.9046 0 10.296 8.9638 3.149 17.444-7.1465 8.479-22.774 9.3268-30.769 7.7532-7.9951-1.5754-11.024-3.8766-11.024-3.8766s-0.24195-5.0881-2.3012-10.903c-2.0593-5.814-4.9663-6.2988-4.9663-6.2988-9.0857-1.2116-1.8173 14.052-1.8173 14.052-6.4607-5.0757-8.3065-14.437-8.5724-15.631-0.28821 0.0738-0.54173 0.15567-0.75522 0.2464-0.27664 0.11742-0.52394 0.24463-0.74632 0.38428-0.16012 9.2583 8.8064 18.43 20.917 23.238 9.2129 3.6578 17.818 3.3767 21.601 2.9968 3.0831-0.42164 6.2543-1.2071 9.4709-2.4516 19.261-7.4508 18.171-20.534 14.355-26.348-3.9851-6.0711-14.72-2.907-17.082-0.72675z" style="fill:#eda56e;stroke-width:.88953"/><path d="m44.031 107.99s-3.6338-7.4507-3.6338-21.624c0-14.174 3.0894-19.806 5.2696-19.625 2.1811 0.18146 2.9079 7.6322 3.6338 11.266 0.72675 3.6338 3.2708 15.264 6.724 16.172 3.4523 0.90822 3.4523-4.9058 5.0881-9.4486 1.635-4.5429 11.993-26.711 29.255-25.076 0 0 10.539 1.0906 9.0848 22.168-1.393 20.204-9.9939 32.163-23.804 31.073-13.088-1.0336-12.538-5.9964-21.805-4.7252-9.2672 1.2729-9.8125-0.18057-9.8125-0.18057z" style="fill:#fff;stroke-width:.88953"/><path d="m47.302 103.81s-6.724-2.5441-10.539-0.54528c-3.8161 1.9988-2.1802 8.1766 6.5416 10.539 8.938 2.4213 14.495 1.6821 13.628-3.0894-0.72586-3.9967-9.6301-6.9046-9.6301-6.9046z" style="fill:#56595b;stroke-width:.88953"/><ellipse transform="rotate(11.426)" cx="64.727" cy="95.619" rx="5.6335" ry="2.1216" style="fill:#fff;stroke-width:.88955"/><path d="m55.508 95.019c-0.03825-0.38428-0.08184-0.76233-0.12987-1.1342-1.7533-1.1537-3.2397-4.9449-4.3258-8.6507-1.683 0.70451-2.6019 5.1878-2.0744 10.473 0.56396 5.6441 2.5636 10.065 4.4672 9.8747 1.9036-0.18858 2.6268-4.9191 2.0628-10.563z" style="fill:#56595b;stroke-width:.88953"/><path d="m90.918 93.107c-0.03113 6.2178-1.0959 11.236-4.501 11.236-2.7736 0-4.0572-5.2447-4.026-11.462 0.03024-6.2178 1.6821-11.067 4.1372-11.054 2.4551 0.01245 4.421 5.0623 4.3899 11.28z" style="fill:#56595b;stroke-width:.88953"/><ellipse transform="rotate(.72196)" cx="51.064" cy="89" rx=".636" ry="1.272" style="fill:#fff;stroke-width:.88952"/><ellipse cx="85.188" cy="86.597" rx=".95447" ry="1.4081" style="fill:#fff;stroke-width:.88953"/><path d="m85.098 123.98s13.446-1.8164 16.536-10.358c0 0-2.1811-2.7246-6.3602 1.2729 0 0 3.9976-5.8149 8.5404-4.3614 4.542 1.4544 3.2708 7.0869 0.90822 9.0857 0 0 1.9988-2.7255-0.72675-4.9067 0 0-4.5429 9.0857-18.897 9.2672z" style="fill:#eda56e;stroke-width:.88953"/><path d="m98.484 112.35s2.665-1.0906 5.3301 0.12187c2.665 1.2106 2.4231 3.5733 2.4231 3.5733s-1.1511-2.4231-2.4836-2.665c0 0-2.0593 7.5103-13.81 9.9334 0 0 12.115-3.6338 13.204-10.417 0-8.9e-4 -1.6358-1.2738-4.6638-0.54617z" style="fill:#c2615d;stroke-width:.88953"/><path d="m100.03 143.53c0.40574-1.8906 1.915-4.1468 3.8379-4.3497 1.425-0.15037 3.1545 1.1574 3.4542 2.5586 0.99197 4.6384 1.4072 7.6759 1.4072 7.6759l8.4435 6.6524s-2.2094 3.5184-3.4542 4.8614c-1.7453 1.883-4.0986 4.9348-6.5245 4.0938-3.5938-1.2459-2.7636-7.0096-3.9659-10.618-1.1852-3.5575-3.9851-7.2079-3.1983-10.874z" style="fill:#fdc394;stroke-width:.88953"/><path d="m104.92 139.31 2.401 13.687-1.1519 4.2218 3.9873-6.6785-1.4281-1.1258s-0.4153-3.0373-1.4073-7.6757c-0.2278-1.0652-1.2826-2.0712-2.401-2.4288z" style="fill:#eda56e;stroke-width:.88953"/><ellipse transform="matrix(.65802 .753 -.8288 .55954 0 0)" cx="189.92" cy="11.198" rx="8.9544" ry="5.8747" style="fill:#ccc;paint-order:stroke fill markers;stroke-width:.7321"/><g transform="matrix(.88953 0 0 .88953 10.605 10.605)">
		<path d="m133.59 121.53s2.859-9.192 12.869-20.632c0 0 10.495-13.485 17.363-10.827 3.948 1.528 5.449 5.26 3.626 9.088-1.392 2.925-4.065 4.771-6.577 6.66-2.636 1.981-4.668 4.268-6.975 6.603-4.994 5.056-7.789 9.391-7.642 10.129z" style="fill:#fff"/>
		<path d="m164.66 90.456c1.804 3.1 1.568 5.759-4.518 11.06-6.333 5.516-14.912 14.708-14.912 14.708-4.229 0.141-8.164 1.156-10.199 1.773-0.323 0.695-0.585 1.299-0.792 1.803 1.998 2.735 7.105 2.563 12.521 1.433 1.01-1.803 3.483-5.11 7.134-8.806 2.307-2.335 4.339-4.621 6.975-6.603 2.512-1.889 5.186-3.735 6.577-6.66 1.686-3.542 0.526-7.001-2.786-8.708z" style="fill:#b1b5bc"/>
		<path d="m115.61 153.2s-7.186-5.344-2.859-12.665c2.655-4.494 5.924-4.902 5.924-4.902s-4.903-2.656-2.247-12.053c2.991-10.586 14.708-11.031 15.32-1.634 0 0 3.269-3.678 11.439-3.678s10.418 6.945 7.967 12.461c0 0 5.72 4.494-0.817 11.439 0 0 3.473 7.967-6.945 14.708s-24.513 8.989-27.782-3.676z" style="fill:#fff"/>
		<path d="m127.6 142.64c0.681 0 1.634-2.179 1.634-3.404s-1.906-0.817-1.226-4.63c0.681-3.813-3.949 0.545-5.72 0.681-1.421 0.109-2.93 0.13-4.174-0.077 0.334 0.292 0.565 0.418 0.565 0.418s-0.352 0.045-0.915 0.261c1.029 1.514 3.607 4.266 7.792 2.122 0 0 0.817 1.09 1.771 1.498 0-1e-3 -0.408 3.131 0.273 3.131z" style="fill:#56595b"/>
		<path d="m127.46 146.32s0.137 4.222 3.949 5.038c3.813 0.817 8.172-2.859 9.942-3.949 1e-3 0-8.579 3.949-13.891-1.089z" style="fill:#56595b"/>
		<path d="m138.49 125.88c-9.192 1.226-11.848 10.082-12.461 5.791-0.612-4.289 5.72-9.769 5.72-9.769-0.213-3.261-1.763-5.316-3.82-6.195 1.415 1.23 0.198 3.371-1.286 6.835-1.839 4.29-2.247 12.465-6.537 11.853-2.919-0.418-4.04-3.479-4.459-5.396 0.113 5.039 3.029 6.625 3.029 6.625 5.106 2.655 7.558-0.409 7.558-0.409 0.613 0.613 1.226 0.818 1.226 0.818-0.612 2.247 1.431 4.29 1.431 4.29-3.269 2.451-2.86 8.375 3.269 8.988 6.128 0.612 10.418-2.656 10.418-2.656-6.945 3.473-11.645 0.817-13.074-3.064-1.43-3.881 5.516-7.149 12.257-6.536 6.741 0.612 8.784 6.128 8.784 6.128 0.032-0.015 0.063-0.032 0.095-0.047-0.146-0.62-0.3-0.975-0.3-0.975 2.121-2.254 2.951-4.249 3.105-5.917-0.023-0.134-0.041-0.211-0.041-0.211-1.021 3.064-4.085-0.204-8.784-0.613-4.698-0.408-9.601 0.613-13.073 2.043s-3.269-1.43-3.269-1.43c0.204-3.473 5.924-8.988 14.3-8.171 5.748 0.561 8.513 2.758 9.683 4.08-0.561-0.793-1.104-1.365-1.104-1.365 1.882-4.234 0.99-9.582-3.222-11.582h-0.047c3.471 6-0.205 5.659-9.398 6.885z" style="fill:#b1b5bc"/>
		<path d="m129.91 139.51s7.49-4.085 13.618-2.996c6.128 1.09 6.809 5.039 6.809 5.039s-1.498-3.677-7.762-4.63c-6.264-0.954-12.665 2.587-12.665 2.587z" style="fill:#56595b"/>
		<path d="m128 134.61s2.86-6.401 11.167-7.627c8.308-1.226 11.712 3.133 11.712 3.133s-4.085-2.86-9.124-2.86-9.261 1.498-13.755 7.354z" style="fill:#56595b"/>
		<path d="m131 121.94s-7.626 6.536-5.175 12.665c0 0-4.221-4.63 5.175-12.665z" style="fill:#56595b"/>
	</g><g transform="matrix(.88953 0 0 .88953 10.605 10.605)">
		<path d="m182 22.256c0-6.769-5.487-12.256-12.257-12.256h-147.49c-6.769 0-12.256 5.487-12.256 12.256v147.49c0 6.77 5.487 12.257 12.256 12.257h147.49c6.77 0 12.257-5.487 12.257-12.257zm-6 148.05c0 3.144-2.549 5.692-5.692 5.692h-148.62c-3.144 0-5.692-2.549-5.692-5.692v-148.62c0-3.144 2.548-5.692 5.692-5.692h148.62c3.144 0 5.692 2.548 5.692 5.692v148.62z" style="fill:#f9de90"/>
		<path d="m23.731 12.39 101.03-1.39h-101.72c-6.697 0-12.045 5.348-12.045 12.045v97.113l1.186-96.203c0-6.624 4.92-11.565 11.545-11.565z" style="fill:#fff"/>
		<path d="m168.33 179.48-101.03 1.516h101.72c6.696 0 11.98-5.601 11.98-12.298v-97.113l-1.153 96.267c1e-3 6.623-4.888 11.628-11.513 11.628z" style="fill:#fff"/>
	</g>
</svg>
