<?xml version="1.0" encoding="utf-8"?>
<!-- Generator: Adobe Illustrator 16.0.0, SVG Export Plug-In . SVG Version: 6.00 Build 0)  -->
<!DOCTYPE svg PUBLIC "-//W3C//DTD SVG 1.1//EN" "http://www.w3.org/Graphics/SVG/1.1/DTD/svg11.dtd">
<svg version="1.1" id="Layer_1" xmlns="http://www.w3.org/2000/svg" xmlns:xlink="http://www.w3.org/1999/xlink" x="0px" y="0px"
	 width="192px" height="192px" viewBox="0 0 192 192" enable-background="new 0 0 192 192" xml:space="preserve">
<g>
	<g>
		<path fill="#56595B" d="M182,170.771c0,6.754-5.475,12.229-12.229,12.229H21.229C14.475,183,9,177.525,9,170.771V22.229
			C9,15.475,14.475,10,21.229,10h148.543C176.525,10,182,15.475,182,22.229V170.771z"/>
	</g>
	<g>
		<path fill="#87DCA4" d="M81.058,40h64.333c1.03,0,1.864-0.971,1.864-2s-0.834-2-1.864-2H81.058c-1.029,0-1.865,0.971-1.865,2
			S80.029,40,81.058,40z"/>
		<path fill="#87DCA4" d="M67.073,49h68.995c1.03,0,1.865-0.971,1.865-2s-0.835-2-1.865-2H67.073c-1.03,0-1.865,0.971-1.865,2
			S66.043,49,67.073,49z"/>
		<path fill="#87DCA4" d="M149.121,54H42.831c-1.03,0-1.865,0.471-1.865,1.5c0,1.03,0.835,1.5,1.865,1.5h106.29
			c1.029,0,1.865-0.47,1.865-1.5C150.986,54.471,150.15,54,149.121,54z"/>
		<path fill="#87DCA4" d="M90.382,64c0-1.03-0.835-2-1.864-2H52.155c-1.03,0-1.865,0.97-1.865,2s0.835,2,1.865,2h36.363
			C89.547,66,90.382,65.03,90.382,64z"/>
		<path fill="#87DCA4" d="M79.193,72H56.816c-1.029,0-1.864,0.47-1.864,1.5s0.835,1.5,1.864,1.5h22.377c1.03,0,1.865-0.47,1.865-1.5
			S80.224,72,79.193,72z"/>
		<path fill="#87DCA4" d="M47.493,83c0,1.03,0.835,2,1.865,2h27.971c1.03,0,1.865-0.97,1.865-2s-0.834-2-1.865-2H49.358
			C48.328,81,47.493,81.97,47.493,83z"/>
		<path fill="#87DCA4" d="M79.193,90H55.884c-1.03,0-1.865,0.97-1.865,2s0.835,2,1.865,2h23.309c1.03,0,1.865-0.97,1.865-2
			S80.224,90,79.193,90z"/>
		<path fill="#87DCA4" d="M86.652,101c0-1.03-0.835-2-1.864-2H42.831c-1.03,0-1.865,0.97-1.865,2c0,1.029,0.835,2,1.865,2h41.957
			C85.817,103,86.652,102.029,86.652,101z"/>
		<path fill="#87DCA4" d="M91.314,109H53.087c-1.03,0-1.865,0.971-1.865,2c0,1.03,0.835,2,1.865,2h38.227c1.03,0,1.865-0.97,1.865-2
			C93.179,109.971,92.344,109,91.314,109z"/>
		<path fill="#87DCA4" d="M91.314,118H48.425c-1.03,0-1.865,0.971-1.865,2s0.835,2,1.865,2h42.889c1.03,0,1.865-0.971,1.865-2
			S92.344,118,91.314,118z"/>
		<path fill="#87DCA4" d="M75.464,127H56.816c-1.029,0-1.864,0.47-1.864,1.5c0,1.029,0.835,1.5,1.864,1.5h18.648
			c1.029,0,1.864-0.471,1.864-1.5C77.329,127.47,76.494,127,75.464,127z"/>
	</g>
	<g>
		<path fill="#C79AF5" d="M110.894,155H46.561c-1.03,0-1.865,0.471-1.865,1.5s0.835,1.5,1.865,1.5h64.333
			c1.03,0,1.865-0.471,1.865-1.5S111.924,155,110.894,155z"/>
		<path fill="#C79AF5" d="M124.879,145H55.884c-1.03,0-1.865,0.97-1.865,2c0,1.029,0.835,2,1.865,2h68.995
			c1.03,0,1.865-0.971,1.865-2C126.744,145.97,125.909,145,124.879,145z"/>
		<path fill="#C79AF5" d="M149.121,137H42.831c-1.03,0-1.865,0.971-1.865,2s0.835,2,1.865,2h106.29c1.029,0,1.865-0.971,1.865-2
			S150.15,137,149.121,137z"/>
		<path fill="#C79AF5" d="M101.57,130c0,1.029,0.835,2,1.864,2h36.363c1.029,0,1.864-0.971,1.864-2c0-1.03-0.835-2-1.864-2h-36.363
			C102.405,128,101.57,128.97,101.57,130z"/>
		<path fill="#C79AF5" d="M112.759,123h22.377c1.03,0,1.864-0.971,1.864-2c0-1.03-0.834-2-1.864-2h-22.377
			c-1.03,0-1.865,0.97-1.865,2C110.894,122.029,111.729,123,112.759,123z"/>
		<path fill="#C79AF5" d="M144.459,112c0-1.029-0.835-2-1.864-2h-27.972c-1.029,0-1.864,0.971-1.864,2c0,1.03,0.835,2,1.864,2
			h27.972C143.624,114,144.459,113.03,144.459,112z"/>
		<path fill="#C79AF5" d="M112.759,104h23.309c1.03,0,1.865-0.97,1.865-2c0-1.029-0.835-2-1.865-2h-23.309
			c-1.03,0-1.865,0.971-1.865,2C110.894,103.03,111.729,104,112.759,104z"/>
		<path fill="#C79AF5" d="M105.3,93c0,1.03,0.835,2,1.865,2h41.956c1.029,0,1.865-0.97,1.865-2s-0.836-2-1.865-2h-41.956
			C106.135,91,105.3,91.97,105.3,93z"/>
		<path fill="#C79AF5" d="M100.638,85h38.228c1.029,0,1.864-0.47,1.864-1.5s-0.835-1.5-1.864-1.5h-38.228
			c-1.029,0-1.864,0.47-1.864,1.5S99.608,85,100.638,85z"/>
		<path fill="#C79AF5" d="M100.638,76h42.889c1.03,0,1.865-0.971,1.865-2s-0.835-2-1.865-2h-42.889c-1.029,0-1.864,0.971-1.864,2
			S99.608,76,100.638,76z"/>
		<path fill="#C79AF5" d="M116.488,68h18.647c1.03,0,1.864-0.97,1.864-2s-0.834-2-1.864-2h-18.647c-1.03,0-1.865,0.97-1.865,2
			S115.458,68,116.488,68z"/>
	</g>
</g>
</svg>
