<?xml version="1.0" encoding="utf-8"?>
<!-- Generator: Adobe Illustrator 16.0.0, SVG Export Plug-In . SVG Version: 6.00 Build 0)  -->
<!DOCTYPE svg PUBLIC "-//W3C//DTD SVG 1.1//EN" "http://www.w3.org/Graphics/SVG/1.1/DTD/svg11.dtd">
<svg version="1.1" id="Layer_1" xmlns="http://www.w3.org/2000/svg" xmlns:xlink="http://www.w3.org/1999/xlink" x="0px" y="0px"
	 width="192px" height="192px" viewBox="0 0 192 192" enable-background="new 0 0 192 192" xml:space="preserve">
<g>
	<circle fill="#B1B5BC" cx="95.929" cy="95.755" r="86.45"/>
	<path fill="#A5A6A8" d="M107.563,181.423c38.49-5.178,68.947-35.68,74.057-74.19l-51.963-51.687l-50.391,0.33l-5.929,39.851
		l29.642,30.63l-35.569,15.479L107.563,181.423z"/>
	<g>
		<path fill="#FFFFFF" d="M96.118,151.863c-6.999,0-15.31-1.612-21.415-4.894c-7.409-3.983-13.038-9.67-17.265-17.421
			c-3.658-6.706-1.187-15.108,5.521-18.768c6.708-3.658,15.11-1.187,18.768,5.521c1.655,3.033,4.695,6.166,7.395,7.618
			c4.596,2.47,11.669,2.713,15.767-0.27c2.457-1.787,3.237-4.022,2.606-7.474c-0.555-3.039-1.594-5.017-11.831-9.022
			c-0.645-0.253-1.31-0.509-1.99-0.771c-4.965-1.913-11.146-4.295-16.785-7.865c-8.056-5.101-13.28-11.601-15.527-19.32
			c-2.416-8.297-1.496-16.957,2.59-24.382c4.28-7.778,11.654-11.866,20.764-14.499c8.401-2.428,17.441-2.286,25.454,0.399
			c9.747,3.266,17.183,8.41,20.935,17.472c2.923,7.059-0.43,15.15-7.489,18.073c-7.057,2.921-15.148-0.431-18.071-7.489
			c-1.767-4.268-8.074-7.914-13.542-6.091c-6.262,2.086-4.839,9.596-0.313,12.463c3.334,2.11,7.902,3.871,11.934,5.425
			c0.726,0.279,1.435,0.553,2.122,0.822c6.06,2.371,11.479,4.645,16.448,8.476c6.752,5.207,11.294,11.506,12.849,20.026
			c1.315,7.208,0.664,14.688-1.936,20.934c-2.378,5.713-6.722,9.421-11.941,13.218C114.058,149.216,105.083,151.862,96.118,151.863z
			"/>
	</g>
</g>
</svg>
