<?xml version="1.0" encoding="UTF-8" standalone="no"?>
<svg
   width="192"
   height="192"
   version="1.1"
   viewBox="0 0 192 192"
   id="svg14"
   sodipodi:docname="squid.svg"
   inkscape:version="1.1 (c4e8f9ed74, 2021-05-24)"
   xmlns:inkscape="http://www.inkscape.org/namespaces/inkscape"
   xmlns:sodipodi="http://sodipodi.sourceforge.net/DTD/sodipodi-0.dtd"
   xmlns="http://www.w3.org/2000/svg"
   xmlns:svg="http://www.w3.org/2000/svg"
   xmlns:rdf="http://www.w3.org/1999/02/22-rdf-syntax-ns#"
   xmlns:cc="http://creativecommons.org/ns#"
   xmlns:dc="http://purl.org/dc/elements/1.1/">
  <metadata
     id="metadata20">
    <rdf:RDF>
      <cc:Work
         rdf:about="">
        <dc:format>image/svg+xml</dc:format>
        <dc:type
           rdf:resource="http://purl.org/dc/dcmitype/StillImage" />
      </cc:Work>
    </rdf:RDF>
  </metadata>
  <defs
     id="defs18">
    <style
       id="style1272">
      .cls-1 {
        fill: #fff;
      }

      .cls-1, .cls-2, .cls-3 {
        fill-rule: evenodd;
      }

      .cls-2 {
        fill: #00ffc1;
      }

      .cls-3 {
        fill: #002b42;
      }
    </style>
  </defs>
  <sodipodi:namedview
     pagecolor="#ffffff"
     bordercolor="#666666"
     borderopacity="1"
     objecttolerance="10"
     gridtolerance="10"
     guidetolerance="10"
     inkscape:pageopacity="0"
     inkscape:pageshadow="2"
     inkscape:window-width="1884"
     inkscape:window-height="1016"
     id="namedview16"
     showgrid="false"
     inkscape:zoom="1.6848959"
     inkscape:cx="143.62906"
     inkscape:cy="76.265842"
     inkscape:window-x="1938"
     inkscape:window-y="46"
     inkscape:window-maximized="0"
     inkscape:current-layer="svg14"
     inkscape:document-rotation="0"
     inkscape:pagecheckerboard="0" />
  <rect
     x="19.999977"
     y="19.999977"
     width="152.00005"
     height="152.00005"
     rx="9.9346428"
     opacity="0.63"
     id="rect2"
     style="fill:#54688c;stroke:none;stroke-width:0.999958;stroke-miterlimit:4;stroke-dasharray:none;opacity:1;fill-opacity:1" />
  <g
     id="g1284"
     transform="matrix(1.9493676,0,0,1.9493676,-2.3124562,35.126123)">
    <path
       d="m 58.433,30.853 v 28.413 c 0,1.173 -1.185,1.173 -1.185,1.173 h -0.734 c -1.184,0 -1.184,-1.173 -1.184,-1.173 V 32.767 c -0.384,0.167 -0.777,0.314 -1.176,0.443 V 56.1 c 0,1.173 -1.184,1.173 -1.184,1.173 h -0.735 c -1.184,0 -1.184,-1.173 -1.184,-1.173 V 33.796 c -0.268,0.017 -0.538,0.029 -0.809,0.029 -0.115,0 -0.228,-0.005 -0.341,-0.008 V 61.29 c 0,1.173 -1.185,1.173 -1.185,1.173 h -0.734 c -1.184,0 -1.184,-1.173 -1.184,-1.173 V 33.347 C 46.4,33.235 46.009,33.105 45.628,32.956 v 22.791 c 0,1.173 -1.185,1.173 -1.185,1.173 h -0.734 c -1.184,0 -1.184,-1.173 -1.184,-1.173 V 31.199 c -2.951,-2.277 -4.851,-5.827 -4.851,-9.82 v -8.942 c 0,-6.874 5.626,-12.445 12.568,-12.445 3.357,0 6.532,1.303 8.937,3.639 2.359,2.336 3.675,5.481 3.675,8.806 v 8.942 c 0,3.325 -1.316,6.47 -3.675,8.807 -0.241,0.233 -0.491,0.454 -0.746,0.667 z"
       class="cls-1"
       id="path1276"
       sodipodi:nodetypes="cscscccscsccscscscccscsccssscsscc" />
    <path
       d="m 59.895,34.493 c -1.821,0 -3.297,-1.462 -3.297,-3.266 0,-1.803 1.476,-3.265 3.297,-3.265 1.821,0 3.297,1.462 3.297,3.265 0,1.804 -1.476,3.266 -3.297,3.266 z m -18.581,0 c -1.821,0 -3.297,-1.462 -3.297,-3.266 0,-1.803 1.476,-3.265 3.297,-3.265 1.821,0 3.297,1.462 3.297,3.265 0,1.804 -1.476,3.266 -3.297,3.266 z"
       class="cls-2"
       id="path1278"
       style="fill:#98dc9a;fill-opacity:1" />
    <path
       d="m 59.895,32.827 c -0.892,0 -1.615,-0.716 -1.615,-1.6 0,-0.883 0.723,-1.599 1.615,-1.599 0.892,0 1.615,0.716 1.615,1.599 0,0.884 -0.723,1.6 -1.615,1.6 z"
       class="cls-3"
       id="path1280"
       style="fill:#4a4a4a;fill-opacity:1" />
    <path
       d="m 41.314,32.827 c -0.892,0 -1.615,-0.716 -1.615,-1.6 0,-0.883 0.723,-1.599 1.615,-1.599 0.892,0 1.615,0.716 1.615,1.599 0,0.884 -0.723,1.6 -1.615,1.6 z"
       class="cls-3"
       id="path1282"
       style="fill:#4a4a4a;fill-opacity:1" />
  </g>
</svg>
