<svg xmlns="http://www.w3.org/2000/svg" viewBox="0 0 192 192"><path fill="#f9de81" d="m114.79 173.74-84.61-50.69c-5.61-3.36-4.91-9.22 1.56-13.11l30.92-18.51a15.63 15.63 0 0 1 14.54-.63l84.63 50.69c5.59 3.36 4.91 9.22-1.58 13.11l-30.88 18.52c-4.32 2.57-10.84 2.88-14.58.62Z"/><path fill="#98dc9a" d="M114.78 137.47 30.16 86.78c-5.61-3.36-4.91-9.22 1.56-13.1l30.92-18.53c4.32-2.57 10.84-2.86 14.58-.63l84.63 50.69c5.59 3.37 4.91 9.23-1.58 13.12l-30.92 18.51a15.62 15.62 0 0 1-14.57.63Z"/><path fill="#9abeff" d="M114.79 101.2 30.18 50.51c-5.61-3.35-4.91-9.23 1.56-13.1L62.66 18.9C67 16.3 73.5 16 77.2 18.27L161.83 69c5.59 3.35 4.91 9.23-1.58 13.1l-30.88 18.51c-4.32 2.55-10.84 2.84-14.58.59Z"/></svg>