<?xml version="1.0" encoding="utf-8"?>
<!-- Generator: Adobe Illustrator 22.1.0, SVG Export Plug-In . SVG Version: 6.00 Build 0)  -->
<svg version="1.1" id="Слой_1" xmlns="http://www.w3.org/2000/svg" xmlns:xlink="http://www.w3.org/1999/xlink" x="0px" y="0px"
	 viewBox="0 0 192 192" style="enable-background:new 0 0 192 192;" xml:space="preserve">
<style type="text/css">
	.st0{fill:#FFFFFF;}
	.st1{fill:#C99CFF;}
</style>
<image style="overflow:visible;enable-background:new    ;" width="241" height="241" xlink:href="D:\DESIGN\туццццц\Новая папка (4)\marvin\30E0AF75.jpg"  transform="matrix(0.7734 0 0 0.7734 2.215 -221)">
</image>
<g>
	<path class="st0" d="M95.9,192C43,192,0,149,0,96C0,43,43.1-0.1,96.1,0c53.1,0.1,96,43.2,95.9,96.2C191.9,149.2,148.9,192,95.9,192
		z M96,176.9c44.6,0.2,81.4-35.8,81.6-79.9c0.2-45.2-35.8-81.8-80.7-82c-45.2-0.2-81.9,35.8-82,80.5C14.6,140.5,50.7,176.7,96,176.9
		z"/>
	<path class="st1" d="M96,176.9c-45.2-0.2-81.4-36.4-81.2-81.5c0.2-44.7,36.9-80.7,82-80.5c44.9,0.2,80.9,36.8,80.7,82
		C177.4,141,140.6,177,96,176.9z M48.5,69.4c0,1.4,0.1,2.9,0,4.3c-0.1,1.2,0.3,1.7,1.5,2c15,3.7,30,7.4,45,11.2
		c0.9,0.2,1.8,0.1,2.7-0.1c14.8-3.7,29.6-7.4,44.4-11c1.3-0.3,1.9-0.8,1.8-2.2c-0.1-2.8-0.1-5.6,0-8.4c0-1.3-0.4-1.8-1.6-2.1
		c-14.9-3.7-29.8-7.4-44.6-11.1c-1-0.2-1.9-0.3-2.9,0C79.9,55.7,65,59.4,50.1,63.1c-1.2,0.3-1.8,0.7-1.7,2.1
		C48.6,66.6,48.5,68,48.5,69.4z M143.9,122.8c0-1.6-0.1-2.9,0-4.2c0.2-1.8-0.4-2-2.1-1.6c-14.5,3.7-29.1,7.3-43.7,10.9
		c-1.4,0.3-2.6,0.3-4,0c-14.6-3.7-29.2-7.3-43.9-11c-1.6-0.4-1.9,0-1.8,1.5c0.1,2.7,0.1,5.5,0,8.2c-0.1,1.4,0.5,1.9,1.8,2.2
		c14.8,3.6,29.6,7.3,44.4,11c1,0.2,1.9,0.3,2.9,0c13.5-3.4,27.1-6.8,40.6-10.2c1.8-0.5,4.2-0.5,5.3-1.6
		C144.7,126.8,143.7,124.4,143.9,122.8z M143.7,96.1c0,0,0.1,0,0.1,0c0-1.2,0-2.3,0-3.5c0-2.5,0-2.5-2.3-1.9
		c-14.6,3.6-29.2,7.3-43.9,10.9c-1,0.3-2,0.3-3,0C79.8,97.9,65,94.2,50.2,90.5c-1.3-0.3-1.8-0.2-1.8,1.3c0.1,2.5,0.2,5.1,0,7.6
		c-0.2,2.1,0.7,2.7,2.6,3.2c14.6,3.6,29.1,7.2,43.7,10.8c1.1,0.3,2.2,0.2,3.3-0.1c13.4-3.4,26.8-6.7,40.3-10
		c1.9-0.5,4.4-0.3,5.4-1.8C144.4,100.3,143.7,97.9,143.7,96.1z"/>
	<path class="st0" d="M48.5,69.4c0-1.4,0.1-2.9,0-4.3c-0.1-1.3,0.5-1.8,1.7-2.1C65,59.4,79.9,55.7,94.8,52c1-0.2,1.9-0.2,2.9,0
		c14.9,3.7,29.7,7.4,44.6,11.1c1.3,0.3,1.7,0.8,1.6,2.1c-0.1,2.8-0.1,5.6,0,8.4c0.1,1.4-0.5,1.9-1.8,2.2c-14.8,3.6-29.6,7.3-44.4,11
		c-0.9,0.2-1.8,0.3-2.7,0.1c-15-3.8-30-7.5-45-11.2c-1.2-0.3-1.6-0.8-1.5-2C48.5,72.3,48.5,70.9,48.5,69.4z"/>
	<path class="st0" d="M143.9,122.8c-0.2,1.6,0.8,4-0.4,5.3c-1.1,1.2-3.5,1.2-5.3,1.6c-13.5,3.4-27.1,6.7-40.6,10.2
		c-1,0.2-1.9,0.2-2.9,0c-14.8-3.7-29.6-7.4-44.4-11c-1.3-0.3-1.9-0.7-1.8-2.2c0.1-2.7,0.1-5.5,0-8.2c-0.1-1.5,0.2-1.9,1.8-1.5
		c14.6,3.7,29.2,7.3,43.9,11c1.4,0.3,2.6,0.4,4,0c14.6-3.7,29.1-7.2,43.7-10.9c1.7-0.4,2.2-0.2,2.1,1.6
		C143.8,119.8,143.9,121.2,143.9,122.8z"/>
	<path class="st0" d="M143.7,96.1c0,1.9,0.7,4.2-0.2,5.5c-0.9,1.4-3.5,1.3-5.4,1.8c-13.4,3.4-26.8,6.7-40.3,10
		c-1.1,0.3-2.1,0.4-3.3,0.1c-14.6-3.6-29.1-7.3-43.7-10.8c-1.8-0.5-2.7-1.1-2.6-3.2c0.2-2.5,0.1-5.1,0-7.6c-0.1-1.5,0.4-1.7,1.8-1.3
		c14.8,3.7,29.6,7.4,44.4,11.1c1,0.3,2,0.3,3,0c14.6-3.7,29.2-7.3,43.9-10.9c2.3-0.6,2.3-0.6,2.3,1.9c0,1.2,0,2.3,0,3.5
		C143.8,96.1,143.8,96.1,143.7,96.1z"/>
</g>
</svg>
