<?xml version="1.0" encoding="UTF-8" standalone="no"?>
<svg
   width="192"
   height="192"
   version="1.1"
   viewBox="0 0 192 192"
   id="svg14"
   sodipodi:docname="stake.svg"
   inkscape:version="1.1 (c68e22c387, 2021-05-23)"
   inkscape:export-xdpi="96"
   inkscape:export-ydpi="96"
   xmlns:inkscape="http://www.inkscape.org/namespaces/inkscape"
   xmlns:sodipodi="http://sodipodi.sourceforge.net/DTD/sodipodi-0.dtd"
   xmlns="http://www.w3.org/2000/svg"
   xmlns:svg="http://www.w3.org/2000/svg"
   xmlns:rdf="http://www.w3.org/1999/02/22-rdf-syntax-ns#"
   xmlns:cc="http://creativecommons.org/ns#"
   xmlns:dc="http://purl.org/dc/elements/1.1/">
  <metadata
     id="metadata20">
    <rdf:RDF>
      <cc:Work
         rdf:about="">
        <dc:format>image/svg+xml</dc:format>
        <dc:type
           rdf:resource="http://purl.org/dc/dcmitype/StillImage" />
      </cc:Work>
    </rdf:RDF>
  </metadata>
  <defs
     id="defs18" />
  <sodipodi:namedview
     pagecolor="#ffffff"
     bordercolor="#666666"
     borderopacity="1"
     objecttolerance="10"
     gridtolerance="10"
     guidetolerance="10"
     inkscape:pageopacity="0"
     inkscape:pageshadow="2"
     inkscape:window-width="1718"
     inkscape:window-height="1376"
     id="namedview16"
     showgrid="false"
     inkscape:zoom="3.3697917"
     inkscape:cx="32.642967"
     inkscape:cy="118.10819"
     inkscape:window-x="-7"
     inkscape:window-y="0"
     inkscape:window-maximized="0"
     inkscape:current-layer="svg14"
     inkscape:document-rotation="0"
     inkscape:pagecheckerboard="0" />
  <rect
     x="19.999977"
     y="19.999977"
     width="152.00005"
     height="152.00005"
     rx="9.9346428"
     opacity="0.63"
     id="rect2"
     style="fill:#4a4a4a;stroke:none;stroke-width:1;stroke-miterlimit:4;stroke-dasharray:none;fill-opacity:1;opacity:1" />
  <path
     style="fill:#ffffff;fill-opacity:1;stroke-width:0.999996"
     d="m 44.938455,123.17789 c -2.862306,-0.35847 -4.840864,-1.99428 -5.591763,-4.62312 -0.190017,-0.66523 -0.219995,-0.98626 -0.209235,-2.24065 0.01067,-1.24414 0.113731,-2.17553 0.685841,-6.19827 l 0.67328,-4.73411 3.25263,-0.0768 c 1.788947,-0.0422 3.265126,-0.0643 3.280399,-0.0488 0.01527,0.0154 -0.256278,2.07051 -0.603446,4.5669 -0.668873,4.80967 -0.698038,5.32694 -0.339901,6.02866 0.345498,0.67694 0.789763,0.91778 1.686386,0.91417 1.006546,-0.004 1.595423,-0.4413 2.126655,-1.57914 0.779617,-1.66986 1.222368,-5.67069 0.832595,-7.5236 -0.31413,-1.49333 -0.728865,-2.35736 -3.379414,-7.0405 -2.531073,-4.47206 -3.164634,-5.816845 -3.713135,-7.881444 -0.538888,-2.028417 -0.480738,-4.75318 0.173938,-8.150484 0.488285,-2.533857 1.512609,-4.524919 2.893867,-5.62505 0.730717,-0.581996 1.990985,-1.146878 3.036701,-1.361122 2.082062,-0.426571 4.883775,-0.441258 6.869305,-0.03601 1.599002,0.326357 2.912684,1.239027 3.522626,2.447315 0.833568,1.651294 0.846188,2.826571 0.0877,8.168512 -0.295884,2.083876 -0.553367,3.802029 -0.572186,3.818118 -0.01882,0.01608 -1.475477,0.05363 -3.237021,0.08343 l -3.202806,0.05418 0.0527,-0.260704 c 0.19594,-0.969323 0.837915,-5.980013 0.837915,-6.540018 0,-0.817202 -0.103164,-1.128852 -0.515016,-1.555822 -0.91628,-0.949916 -2.456018,-0.426355 -2.996799,1.019007 -0.324148,0.866368 -0.519478,2.362383 -0.468509,3.588269 0.03656,0.879165 0.102776,1.250905 0.355496,1.995602 0.184344,0.543213 1.380252,3.025459 2.942407,6.107305 3.333811,6.577006 3.852546,7.804116 4.252381,10.059376 0.342884,1.93403 0.150455,5.35848 -0.463482,8.24809 -1.279663,6.02297 -4.391742,8.54875 -10.447828,8.47953 -0.606081,-0.007 -1.426108,-0.0532 -1.822282,-0.1028 z m 20.388849,-0.82083 c 0,-0.0851 1.207931,-8.67234 2.684292,-19.0828 1.47636,-10.410454 2.684291,-19.02231 2.684291,-19.137455 v -0.209358 l -3.513982,0.07084 c -3.365392,0.06784 -3.513868,0.0633 -3.511333,-0.10763 0.0054,-0.361677 0.841371,-6.277196 0.89465,-6.330475 0.05579,-0.05579 20.595299,-0.450983 20.648976,-0.397305 0.04454,0.04454 -0.855233,6.437808 -0.914396,6.497172 -0.02857,0.02867 -1.584072,0.07609 -3.456659,0.105362 -1.872587,0.02928 -3.429109,0.07763 -3.458937,0.107463 -0.02983,0.02983 -1.27402,8.689985 -2.76487,19.244796 -1.490849,10.55481 -2.730951,19.20843 -2.755782,19.23027 -0.02483,0.0218 -1.505644,0.0677 -3.290698,0.10178 -2.923207,0.0558 -3.245552,0.0466 -3.245552,-0.0927 z m 12.597687,-0.2351 c 0.0033,-0.0805 2.628996,-10.24912 5.834909,-22.596857 l 5.828933,-22.450436 3.889856,-0.07699 c 2.139421,-0.04235 3.914337,-0.05251 3.944256,-0.02259 0.07293,0.07293 -0.523812,44.842963 -0.59871,44.917873 -0.03228,0.0322 -1.450368,0.0815 -3.151306,0.10946 l -3.092617,0.0507 0.06473,-2.33267 c 0.0356,-1.28298 0.09226,-2.83395 0.12592,-3.44659 l 0.06119,-1.1139 -1.258776,0.0642 c -0.692326,0.0353 -1.875938,0.0644 -2.630248,0.0645 l -1.371472,3.8e-4 -0.808489,3.39197 c -0.444667,1.86558 -0.837774,3.42121 -0.87357,3.45694 -0.03579,0.0358 -1.39382,0.0796 -3.01783,0.0976 -2.576141,0.0285 -2.951986,0.014 -2.946773,-0.11379 z M 100.07668,121.747 c 0,-0.16905 6.23217,-44.507318 6.29412,-44.778963 0.0457,-0.200764 0.10182,-0.205228 3.29215,-0.26226 1.78508,-0.03191 3.26392,-0.03969 3.28632,-0.01729 0.0224,0.0224 -0.49533,3.867874 -1.15049,8.545494 -0.65516,4.67762 -1.17465,8.521337 -1.1544,8.541593 0.0203,0.02026 1.68398,-3.838974 3.69718,-8.576066 l 3.66033,-8.612893 3.0679,-0.07377 c 1.68734,-0.04057 3.1859,-0.06253 3.33012,-0.0488 0.26171,0.02492 0.25339,0.04558 -4.27046,10.599548 -2.49298,5.81602 -4.532,10.669707 -4.53114,10.785971 9.7e-4,0.116264 0.76403,5.482366 1.69596,11.924656 0.93196,6.4423 1.67688,11.73269 1.6554,11.75641 -0.0215,0.0237 -1.54727,0.0677 -3.39064,0.0976 l -3.35157,0.0545 -1.33689,-9.41943 c -0.73528,-5.18067 -1.37034,-9.50412 -1.41124,-9.60765 -0.0451,-0.11399 -0.60997,3.59423 -1.43228,9.40132 -0.74686,5.27426 -1.38073,9.62587 -1.40859,9.67025 -0.0279,0.0444 -1.51118,0.0966 -3.29623,0.11599 -2.67368,0.0291 -3.24555,0.0121 -3.24555,-0.0962 z m 21.76584,-0.32906 c -0.003,-0.30051 6.28284,-44.934889 6.33588,-44.988602 0.0754,-0.07637 14.845,-0.316444 14.91894,-0.242506 0.0686,0.06857 -0.73189,5.983817 -0.84779,6.264849 -0.0827,0.200494 -0.14789,0.204618 -4.20685,0.266035 -2.26759,0.03431 -4.13996,0.07945 -4.16082,0.100308 -0.0269,0.02696 -1.69132,11.669978 -1.69132,11.831597 0,0.01052 1.47148,-0.0037 3.26995,-0.03163 l 3.26996,-0.05075 v 0.233883 c 9.7e-4,0.339826 -0.88546,6.471216 -0.94361,6.529456 -0.0269,0.027 -1.49137,0.0711 -3.2542,0.0979 -1.76284,0.0268 -3.23249,0.0762 -3.2659,0.10974 -0.0906,0.0909 -1.8855,12.91035 -1.81851,12.9882 0.0316,0.0368 1.99026,0.0295 4.35241,-0.0163 2.36214,-0.0457 4.30724,-0.0708 4.32243,-0.0556 0.0464,0.0463 -0.88272,6.63767 -0.94607,6.71168 -0.0325,0.038 -2.5845,0.11355 -5.67098,0.16782 -3.08649,0.0543 -6.52323,0.12365 -7.63721,0.15416 -1.61511,0.0443 -2.02568,0.03 -2.02674,-0.0702 z m 26.37916,-33.386484 c 0.0241,-0.06711 1.07203,-4.458416 2.32869,-9.758465 1.25666,-5.300048 2.29748,-9.599678 2.31294,-9.554733 0.0155,0.04494 -0.12731,4.364434 -0.31724,9.59886 -0.18994,5.234427 -0.34534,9.588962 -0.34534,9.676746 0,0.14257 -0.21469,0.159606 -2.01146,0.159606 -1.56749,0 -2.00178,-0.02693 -1.96759,-0.122014 z"
     id="path1083" />
</svg>
