<svg xmlns="http://www.w3.org/2000/svg" width="192" height="192"><defs><linearGradient id="a" x1="87.039" x2="86.707" y1="13.851" y2="21.101" gradientTransform="translate(-281.52 -13.442) scale(4.5268)" gradientUnits="userSpaceOnUse"><stop offset="0" style="stop-color:#96dfd3"/><stop offset="1" style="stop-color:#728dbe"/></linearGradient></defs><rect width="153" height="153" x="19.5" y="19.5" rx="10" style="fill:#e0f4e0;stroke-width:4"/><path d="M100.28 48.076c-8.343.52-9.625 8.173-9.38 9.257-.803.184-1.672.698-1.672.698s-4.897-4.197-7.17-2.988c-3.862 2.053-2.355 8.229-2.025 12.59.305 4.022 2.446 7.298 3.784 11.626.342 1.105-.904 1.974-.345 3.457.483 1.28 2.1 1.558 2.59 2.705.992 2.318 2.247 5.172 2.247 5.172s.099 1.118.406 1.556c.254.362.76.456 1.088.752 1.533 2.047 5.427 5.435 5.526 6.56.045.517-.773.728-.982 1.203-.21.48-.23 1.556-.23 1.556s-2.557 1.411-5.393 2.811c-.447.222-1.768.054-2.201.301-.701.4-.76 1.416-1.15 2.122-2.375 1.348-5.025 6.87-4.95 8.806.132 3.48.34 5.784.804 10.415.106 1.058-.533 2.11-.398 3.165.13 1.025 1.15 2.883 1.15 2.883s-4.259-3.844-4.43-6.446c.47-.573 1.754-1.756 1.67-3.28-.055-1.026-2.266-3.68-4.004-6.33-.348-.53-2.156-.58-1.946.016.694 1.965.938 2.856.938 2.856s-4.072-5.364-5.137-5.358c-2.657.012-2.973-.18-7.065.08-.721.045-1.947.302-1.945 1.025l-.141 1.414c-.056.557.475 1.473.99 1.69 1.67.7 2.527 1.143 3.572 2.183.566.563.874 1.352 1.388 1.963.856 1.016 2.622 2.404 3.528 3.377 1.955 2.1 3.032 3.247 4.703 5.579 1.062 1.481 2.005 3.356 2.962 4.907 2.367 3.835 4.187 8.342 7.391 11.512 1.854 1.833 3.911 3.653 6.605 4.182 1.25.245 5.51-1.122 6.357-2.918 4.014-8.518 3.702-18.394 2.687-20.486 9.292 3.712 12.312 8.71 19.875 9.372 2.667.234 5.401.065 7.816-1.547 2.286-1.526 5.578-4.93 3.784-7.542-2.767-4.029-9.893-10.813-9.893-10.813l.168-.23s-1.636-2.132-9.142-5.41c-2.267-.99-4.69-6.852-4.669-10.76.01-1.644 1.618-2.903 2.016-4.5.158-.634.23-1.884.23-1.884s5.621.195 6.613-5.208c.809-4.405-3.041-6.763-3.041-6.763l-.115-.69s6.282-2.389 9.654-4.385c2.177-1.289 5.542-3.678 5.473-6.03-.072-2.487-6.613-7.082-6.613-7.082s-.185-.782-.345-1.15c-.409-.937-1.556-2.643-1.556-2.643s.43-.205.46-.407c.097-.639-.337-6.193-4.138-7.312-.514-.151-2.705.23-2.705.23s-6.435-6.315-13.695-5.862zm14.995 23.164s.86.08 1.29.088c.42.008 1.256-.036 1.256-.036s.077.217.018.425c-1.858 1.06-2.458.99-2.458.99s.013-.493 0-.725c-.015-.268-.106-.743-.106-.743z" style="fill:#4a4a4a;stroke-width:4.5268"/><path d="M60.96 117.06s-.175-1.493.354-1.556c4.613-.552 7.674-.39 7.674-.39l5.199 5.517 1.308-.07-1.485-3.395.849-.036s3.482 4.793 3.536 5.976c.07 1.51-1.945 3.254-1.945 3.254s-7.801-4.696-11.706-7.038c-1.26-.756-3.784-2.263-3.784-2.263z" style="fill:#73ada4;stroke-width:4.5268"/><path d="M64.78 119.27s-.073-1.303 0-1.75c.076-.472.774-1.257 1.25-1.226 2.46.159 3.721.745 4.702 1.926 3.282 3.95 5.25 5.383 5.401 6.101.134.633.317 2.037.317 2.037s.887 2.092 1.534 3.015c3.035 4.331 6.151 5.701 6.151 5.701s.549 3.585 2.551 8.953c-1.702-6.927-2.4-10.103-2.4-10.103s1.62 1.368 3.6 1.3c-1.746-9.515-2.55-15.054-2.55-15.054l9.952 10.653s1.874-1.226 3.651-2.6c1.193 8.782-.876 18.511-2.75 20.805-1.104 1.352-3.535 2.219-5.202 2.25-2.257.045-5.567-4.075-7.752-6.701-3.016-3.624-4.425-8.357-7.152-12.204-1.417-1.997-4.752-5.602-4.752-5.602s-3.087-2.969-4.4-4.65c-.573-.734-.803-1.383-1.43-2.069l-.721-.783z" style="fill:#e0f4e0;stroke-width:4.5268"/><path d="M71.38 127.02s.248-1.27 1.6-2.126c.838-.53 2.901-.65 2.901-.65s-3.579-4.336-5.851-6.577c-.37-.363-.805-.7-1.3-.85-1.118-.337-2.634-.805-3.502-.024-.691.622-.275 2.776-.275 2.776l-.425-.225s-.105-.915-.031-1.52c.041-.337.208-1.153.481-1.356 1.05-.78 2.706-.499 3.926-.024 1.727.67 4.076 3.776 4.076 3.776s1.539 1.804 3.301 3.876c.01 1.43.425 2.3.425 2.3l.575 1.376s-1.612-.319-2.275.05c-1.526.85-1.326 1.85-1.326 1.85z" style="fill:#4a4a4a;stroke-width:4.5268"/><path d="m71.804 126.62.525.675s.807-1.207 1.5-1.475c.932-.36 2.151-.275 2.151-.275l.075-.776s-1.157-.259-2.65.3c-.926.347-1.601 1.55-1.601 1.55z" style="fill:#73ada4;stroke-width:4.5268"/><path d="m72.604 127.4.875 1.275s.35-.765 1.076-1.05c.98-.385 2.025-.275 2.025-.275l-.525-1.425s-1.237-.284-2.126.15c-.774.377-1.325 1.325-1.325 1.325z" style="fill:#73ada4;stroke-width:4.5268"/><path d="m100.5 127.6 2.723-1.768s4.228 1.679 6.571 3.045c3.058 1.781 7.371 6.126 9.553 6.251 1.09.063 3.051-.6 3.051-.6s-2.262.151-3.351-.1c-2.834-.654-7.963-5.675-9.703-6.402-1.703-.711-5.201-2.6-5.201-2.6s8.555-4.95 16.405-7.153c2.07 2.034 10.495 9.653 10.403 12.704-.097 3.216-4.407 6.051-7.352 6.252-1.96.133-7.41.791-13.054-4.101-2.888-2.504-10.044-5.528-10.044-5.528z" style="fill:#e0f4e0;stroke-width:4.5268"/><path d="m87.128 134.53-2.334-14.288s-.379-2.236.212-5.623c.247-1.414 1.02-2.377 1.662-2.723-.96-2.745-.99-3.572-.99-3.572s-3.243 1.709-3.926 7.745c-.49 4.336.354 13.085.354 13.085s1.496 2.088 3.112 2.8c-.202-2.732-.632-4.964-.773-7.489-.063-1.106-.075-3.374-.075-3.374s.272 2.5.424 3.748c.31 2.55.633 5.065.99 7.64-2.735-.852-3.82-3.113-3.82-3.113l-.353.354s.865 2.171 3.112 3.748c1.127.79 2.405 1.061 2.405 1.061z" style="fill:#73ada4;stroke-width:4.5268"/><path d="M86.776 112.27s-1.597.896-1.583 3.864c.006 1.176-.362 2.502 2.423 5.755 2.369 2.767 5.045 4.727 7.718 8.02 9.785-6.947 24.915-12.192 24.915-12.192l-1.122-.814c-1.215-.88-2.37-1.512-3.731-2.14l-3.802-1.75s-1.424 1.234-2.255 1.653c-1.247.63-3.996 1.247-3.996 1.247v-.875s-1.835 1.295-5.252 1.573c-3.65.298-6.852-.247-6.852-.247l-1.202 2.352s-1.517-.624-3.05-2.6c-.923-1.17-1.611-2.263-2.21-3.846zm28.319 4.65s-7.266 2.886-10.371 4.13c-2.4.96-9.336 3.465-9.336 3.465s6.614-3.235 8.982-4.217c3.097-1.284 10.724-3.378 10.724-3.378zm-5.95.292s-6.422 1.687-9.708 2.308c-2.54.48-7.701 1.149-7.701 1.149s4.993-1.447 7.506-1.954c3.286-.662 9.903-1.503 9.903-1.503zm6.533 1.53c-4.23 1.855-13.532 6.012-19.84 9.928-3.274-3.143-8.691-8.364-8.691-8.364s4.978 4.643 8.841 7.86c4.997-3.317 15.214-7.588 19.69-9.424zm-12.74 1.476s-2.758 1.094-4.155 1.592c-1.1.391-3.325 1.096-3.325 1.096s1.726-.814 2.617-1.15c1.591-.599 4.863-1.538 4.863-1.538z" style="fill:#73ada4;stroke-width:4.5268"/><path d="M91.868 118.19c7.377-13.74 8.28-17.276 9.478-20.795.487-.398 1.839-.424 1.839-.424l.205-.557s-1.947.028-2.651.6c-.513 2.703-6.457 15.036-9.053 19.706-2.155-1.45-3.068-3.247-3.75-5.301-.79-2.376-.69-3.923-.5-4.651.056-.22.4-.55.4-.55s-.03-.285-.3-.25c-.506.063-.7.7-.7.7s-.81 1.5.047 3.957c.921 2.646 1.748 5.204 4.985 7.565zM94.804 113.31l-1.202 2.617s2.312.616 6.507.212c3.352-.323 5.199-1.45 5.199-1.45l.247-2.9s-2.82 1.27-5.27 1.45c-2.592.19-5.481.07-5.481.07zM105.66 114.79l-.035.672s1.477-.282 3.236-.99c.855-.345 1.676-.93 2.334-1.645.17-.184-.08-.56-.318-.636-.075-.024-.23.053-.23.053s.14-.13 0-.336c-.118-.173-.292-.07-.292-.07l-2.803 1.414.177-2.423 1.538-.707s-.737-1.519-1.131-2.794c-.165-.533-.39-1.627-.39-1.627s-.562 1.884-1.502 8.647c.587-.17 2.476-.824 4.12-1.892-1.892 1.46-4.704 2.334-4.704 2.334z" style="fill:#73ada4;stroke-width:4.5268"/><path d="m107.89 110.92-.124 2.051 2.44-1.22-.866-1.485zM105.71 114.4l.318-.106s.987-6.173 1.273-9.284c.25-2.708.473-5.096.39-8.151.385 1.119.282 1.963.282 1.963s.888-1.887 1.38-3.82c-.548-.1-.919-.114-1.344-.283-.41-.162-1.132-.69-1.132-.69s.776.378 1.75.39c0 0 3.183-.38 4.209-4.103.88-3.194-.849-6.754-.849-6.754h-.495l.425 1.733-1.15.053s-1.147 2.099-1.98 2.935c-.991.995-3.484 2.57-3.484 2.57s-.11 3.466-.566 5.21c.905.044 2.653.089 2.653.089s-1.731.178-3.077.123c.545-1.987.672-5.516.672-5.516s2.6-1.647 3.66-2.741c.772-.796 1.91-2.723 1.91-2.723l-.336.016s-1.193 1.733-1.945 2.458c-1.12 1.08-3.767 2.758-3.767 2.758s.011 2.322-.159 3.466c-.144.968-.725 2.847-.725 2.847l3.59-.053s-.286 5.048-.495 7.568c-.278 3.353-1.008 10.044-1.008 10.044z" style="fill:#73ada4;stroke-width:4.5268"/><path d="M87.784 106.82s-.866 1.246.85 5.566c.972 2.445 2.872 3.816 2.872 3.816s4.397-8.405 6.33-12.733c.975-2.179 2.385-5.813 2.652-6.652 1.301-.757 2.85-.75 2.85-.75l.55-2.25.1-3.352 2.852-2.3s-3.184-1.93-4.852-2.751c-1.425-.702-3.4-1.35-3.4-1.35l-.35.25 7.852 3.85-4.702-2.05-3.5-1.75-1.35.7s-.515 3.072 1.097 6.923c.347.83.974 1.537 2.712 2.846 1.64-.293 3.042-1.117 3.042-1.117s-2.25 1.718-3.724 1.818c-2.132.144-4.698-.675-6.214-2.18-1.975-1.961-2.05-4.063-2.05-4.063s-1.587 1.927-1.016 3.124c.821 1.722 3.453 2.798 4.764 4.576 1.195 1.621 2.062 3.73 1.088 5.477.167-1.503-.1-2-.1-2-.304-.13-.713.43-.786.933-.134.93-.108 1.851-.164 4.768-.619-1.89-.578-2.384-.45-3.1-4.192 1.681-6.952 3.75-6.952 3.75z" style="fill:#73ada4;stroke-width:4.5268"/><path d="M99.968 95.06s-1.754-1.011-2.83-3.147c-1.448-2.878-.99-6.755-.99-6.755s-3.647 1.258-4.597 3.713c.598 2.7 2.107 4.095 3.643 5.163 1.917 1.334 4.774 1.026 4.774 1.026z" style="fill:#73ada4;stroke-width:4"/><path d="m95.58 112.16-.336.69s4.06.112 6.048-.23c1.488-.257 3.385-.795 4.314-1.38.373-.859.264-1.522.053-1.503-.96.09-1.211 1.256-1.556 1.327-.585.119-1.109.276-2.617.424-1.19.117-2.69.324-3.607.318-.29-.002-.194-.733-.725-1.043-.211-.123-.366-.101-.708-.088-.277.012-.583 1.238-.583 1.238s-.018.34.053.83c-.136-.423-.336-.583-.336-.583z" style="fill:#e0f4e0;stroke-width:4.5268"/><path d="M98.264 111.52s.254-2.681 1.125-5.502c-.443 3.68-.7 5.527-.7 5.527l2.55-.275s.013-2.285.451-5.052c.131 3.658-.05 4.976-.05 4.976l2.45-.475s-.378-.655-.35-1.6c.069-2.223.576-4.227.576-4.227s-.321 2.792-.325 4.202c-.002.737.35 1.1.35 1.1l.5-.6.55-.3s-.2-1.867.075-4.577c.076 2.668.125 4.577.125 4.577l.45-.05.8-12.128h-.425s-.363 1.99-1.575 4.551c.508-2.393 1.15-4.451 1.15-4.451l-1.755.048s-.569 2.037-1.846 5.529c.358-2.525 1.4-5.352 1.4-5.352l-1.875.075-2.7 6.977-2.751 5.652.7-.024.325.15.5 1.25z" style="fill:#73ada4;stroke-width:4"/><path d="M88.896 90.676s-.06.725.106 1.026c.365.662.813.778.813.778s-.198-1.7.142-2.44c1.528-3.327 4.067-4.704 4.067-4.704h-.672s-2.577 1.213-3.784 4.137c-.233.565-.443.97-.318 1.804-.23-.184-.354-.601-.354-.601z" style="fill:#96dfd3;stroke-width:4.5268"/><path d="M108.94 94.612s3.214-.357 4.326-4.551c.544-2.051-.566-5.628-.9-6.302.64.012 1.276.4 1.276.4s2.5 2.825 1.925 5.877c-.974 5.167-6.627 4.577-6.627 4.577z" style="fill:#73ada4;stroke-width:4.5268"/><path d="M102.46 83.136s1.015-.261 3.1-.2c.564 1.157 1.026 2.576 1.026 2.576l2.951-.15s-.429.974-2 2.475c-1.006-.794-2.401-1.5-2.401-1.5s-.554-1.248-.976-1.776c-.424-.53-1.7-1.425-1.7-1.425z" style="fill:#e0f4e0;stroke-width:4.5268"/><path d="M106.16 82.836c.204.737.725 2.3.725 2.3l4.451-.2-.425-1.4s-.512-.443-4.75-.7z" style="fill:#96dfd3;stroke-width:4.5268"/><path d="M101.71 83.136c1.988 1.44 2.376 2.5 2.376 2.5s-1.533-.742-2.326-1.05c-.752-.291-2.3-.75-2.3-.75s.765-.573 2.25-.7z" style="fill:#e0f4e0;stroke-width:4.5268"/><path d="M95.44 84.484s.66-.8.707-.778c3.098-1.686 6.967-1.627 6.967-1.627s-.3-.259-.354-1.025c-.023-.345.012-1.042-.194-1.15-.688-.358-1.512-.32-1.857-.937-.345-.618.067-.714 0-1.061-.024-.125-.141-.354-.141-.354s.718.064.92.319c.073.093.035.353.035.353s-.085.703.265.778c.35.076.98-.012 1.361.266.205.149.324.44.372.69.087.453-.127.837-.036 1.29.068.333.266.654.266.654s2.81-.15 4.208-.036c1.634.135 3.42.036 4.845.849.19.108.445.279.425.495-.014.15-.212.333-.354.283-1.826-.644-2.67-.79-4.208-.955-1.465-.158-4.775-.106-4.775-.106s-3.806-.184-8.452 2.051z" style="fill:#96dfd3;stroke-width:4.5268"/><path d="M88.86 90.072s.946-2.528 2.299-3.466c-.305-1.055.247-1.556.247-1.556s-.323.882.036 1.203c.6-.762 1.45-1.026 1.45-1.026s-2.536-.621-3.43-1.273c-1.775-1.292-2.834-3.434-2.689-5.623.086-1.283 2.246-3.634 2.3-4.775.064-1.404-3.524-6.586-3.502-8.947.024-2.606 1.804-3.678 1.804-3.678s-.974-.83-2.9-1.521c1.717-.4 3.89 1.06 3.89 1.06s.486-.431.778-.565c.231-.106.742-.177.742-.177-2.21-1.735-6.524-4.185-7.71-3.678-2.135.913-1.416 7.547-.919 11.67.412-.049.595-.172.85 0 .355.241 1.623 2.863 1.661 3.395.025.346-.636.814-.636.814s.415-.032.53.46c.132.563-.424.884-.424.884s.36.3.389.848c.039.739-.53.85-.53.85s1.333 3.307 1.485 4.208c.127.753-.238 2.407-.106 2.97.122.524 1.733 2.228 1.733 2.228s-.317-1.056-.142-2.157c1.73 5.662 2.794 7.851 2.794 7.851z" style="fill:#73ada4;stroke-width:4.5268"/><path d="M81.348 68.024c.197 2.177.76 4.156.76 4.156s1.495-.806 1.362-1.167c-.364-.99-1.236-3.167-1.61-3.095-.133.024-.312.042-.512.106zM82.264 72.46l.283.955s1.142-.416.813-1.008c-.3-.54-1.096.053-1.096.053zM83.028 74.724s.572-.085.3-.866c-.174-.502-.689-.177-.689-.177.095.324.259.694.389 1.043z" style="fill:#e0f4e0;stroke-width:4.5268"/><path d="M96.236 83.176s2.468-.937 3.749-1.238c1.147-.27 2.126-.245 2.617-.247-.208-1.143.067-1.572-.372-1.733-.672-.247-.497-.106-1.326-.478-.304-.137-.484-.587-.513-.92-.031-.364.213-1.007.213-1.007l-.99-.513s-.175 1.593-.885 2.44c-.623.745-2.387 1.627-2.387 1.627s.13.654.106 1.026c-.021.34-.212 1.043-.212 1.043zM101.76 78.084s.053.344.125.5c.263.572 1.3.135 1.676 1 .222.513.13.943.3 1.476.07.22.216.448.425.55 1.371-.205 2.68-.145 4.076-.024-1.271-.855-1.95-1.976-1.95-1.976s1.522 1.676 3.575 2.176c1.43.088 2.776.525 2.776.525s7.645-3.085 10.953-5.476c1.61-1.164 4.236-2.24 4.201-4.227-.04-2.301-5.927-6.526-5.927-6.526s.138 1.74-.036 2.531c-.134.605-.689 1.52-.689 1.52s1.402-.089 2.101-.05c1.118.061 1.95.825 1.95.825s-1.3-.422-1.975-.475c-1.05-.083-3.15.25-3.15.25s1.383 1.084 2.041 1.665c.574.506 1.804 1.312 1.66 1.586-.326.612-3.652-1.05-3.652-1.05s1.565.458 1.7.125c.107-.262-2.025-2.05-2.025-2.05l-1 .074s.159 1.04-.212 1.224c-1.588.785-3.49 1.465-4.56 2.01-.791.977-1.842 1.56-1.874 2.971-.013.623.073 1.57.92 1.627 1.214.082 1.427-.762 1.415-1.432-.021-1.118-.554-1.647-.554-1.647s1.482.492 1.632 1.664c.138 1.074-.767 2.887-2.79 3.254-1.93.351-3.485-.629-4.517-1.184a6.812 6.812 0 0 1-1.605-1.203c-.415-.42-.937-1.503-.937-1.503s-.445 2.27-.884 2.28c-.373.009-.381-.714-.3-1.078.132-.6.724-1.326.724-1.326a27.264 27.264 0 0 1-3.613 1.395z" style="fill:#73ada4;stroke-width:4.5268"/><path d="M101.28 49.26s-1.681.073-2.83.707c1.225.76 2.724 2.052 2.724 2.052s1.16-.144 2.086-.142c-.571-1.385-1.98-2.617-1.98-2.617zm1.026.106s1.062 1.092 1.662 2.44c1.667-.024 3.82.354 3.82.354s-.077-.794-.248-1.662c-2.741-1.126-5.234-1.132-5.234-1.132zm-4.598.849s-2.54.781-4.032 3.006c2.047.093 3.325.46 3.325.46s2.013-.98 3.82-1.45c-1.638-1.371-3.113-2.016-3.113-2.016zm10.504.636c-.063.341-.117.692-.07 1.521 2.354.407 3.783 1.874 3.783 1.874l1.238-.07s-1.442-1.805-4.951-3.325zm-.672 2.794-3.572.071s.352 2.982 6.507 3.926c1.829.28 3.817.898 5.517 1.626 1.392.596 3.714 2.158 3.714 2.158s.252-1.587.035-2.334c-.559-1.925-1.802-4.411-3.077-4.527-.818-.075-2.126.768-5.163.495-2.406-.216-3.961-1.415-3.961-1.415zm-4.217.106-1.282.274s-.06 2.389.504 3.422c.955 1.75 2.85 2.845 4.527 3.925 2.438 1.572 7.85 3.758 7.85 3.758s2.1 1.039 3.502 3.996c-2.015-2.923-3.475-3.244-3.475-3.244l-1.9 2.9s.357-.067.548.016c.113.05.349.134.327.256-.038.213-.575.3-.575.3l-1.105.124-.248.274s.962.426.946.584c-.021.218-.437.245-.76.212-.28-.028-.787-.291-.787-.291l-.398.37s.407.233.628.302c.306.095.873.152.893.291.04.273-.672.257-.672.257s.386 1.846.044 2.413c-.594.963-1.912 2.237-1.989 3.864-.015.318.008.887.283 1.326.532.851.918 1.572 2.166 1.477 1.693-.13 3.072-1.42 3.148-2.83.051-.955-.84-1.352-.84-1.352s.417 1.143.203 1.715c-.306.818-1.026 1.19-1.706 1.096-.752-.103-1.264-.947-1.247-1.706.045-2.04 1.86-2.771 2.546-4.57.439-1.152-.163-2.014-1.352-3.042.963.4 1.246.937 1.246.937s5.579.256 6.923-1.804c.37-.565.08-2.024.08-2.024s-1.769-2.137-8.576-5.155c4.354 1.54 4.63 1.743 6.648 3.13.705.484 1.848 1.777 1.848 1.777l.106-2.025s-.466-1.792-1.777-2.608c-2.478-1.542-5.632-1.58-8.505-2.095-7.382-1.326-7.772-6.251-7.772-6.251zm-8.02.142c-.705-.024-1.55-.028-2.121.07-1.121.684-1.804 3.502-1.804 3.502s.967.163 1.662.106c1.679-2.689 3.537-3.607 3.537-3.607s-.567-.046-1.273-.071zm6.517.406-1.3.328s-1.538 2.237-2.882 2.546c-5.208 1.198-7.595 1.132-7.595 1.132l.902 1.07s1.551-.428 3.925-.496c-.873.306-1.353.438-2.033.655-.956.304-2.874.901-2.874.901s-3.792 1.34-3.784 4.28c.01 3.106 3.375 5.84 3.29 8.593-.064 2.035-2.192 3.557-2.229 5.553-.058 3.112 2.526 4.488 2.865 4.703.369.235 1.681 1.32 3.96.99.972-.14 1.916-1.32 1.84-2.298-.1-1.273-.814-2.792-2.759-2.334-2.021.476-1.238 2.086-1.238 2.086s.262-.339.85-.46c.595-.122 1.029.963.777 1.45-.517 1.003-2.641.824-3.306.407-.894-.56-1.707-1.738-1.716-3.059-.024-3.586 3.623-6.602 3.466-10.185-.118-2.704-2.835-4.404-2.829-6.118.008-2.308 4.032-3.643 4.032-3.643s.871-.795 1.397-1.043c.222-.106.475-.226.716-.177.57.115 1.397 1.043 1.397 1.043s1.793-.363 2.475-.92c.925-.753 1.901-3.032 1.901-3.032s-.638 2.474-1.503 3.333c-.697.693-2.696 1.194-2.696 1.194l.203.557s2.127-.705 2.917-1.45c1.71-1.612 1.83-5.606 1.83-5.606zm3.474 1.901s1.72 2.103 4.5 2.723c2.463.55 7.401 1.574 7.401 1.574s-2.759-1.63-6.772-2.272c-1.815-.29-5.128-2.025-5.128-2.025zm-12.396 4.624s-3.29 1.228-3.36 3.219c-.071 2.081 2.646 3.104 2.812 5.57.246 3.641-3.09 6.838-3.413 10.309-.13 1.397.84 3.201 2.44 3.43.69.098 1.88.068 1.91-.849.01-.308-.186-.634-.672-.636-.476-.003-.707.636-.707.636s-.696-.489-.707-1.273c-.019-1.35 1.547-2.142 2.157-2.157 1.77-.044 2.582 1.131 2.582 1.131s1.062-1.113 1.025-1.803c-.13-2.452-3.37-5.78-3.934-9.071-.184-1.073.01-2.212.053-3.28-.429-.667-.994-1.381-1.07-2.184-.099-1.052.884-3.042.884-3.042zm.442 5.526s-.412 2.056.053 3.555c.936 3.014 3.858 6.256 3.9 8.629.013.753-1.23 1.9-1.23 1.9l.15.151s2.698-.155 2.856-3.377c.07-1.414-2.113-5.515-3.5-7.825-.466-.008-.976-.333-1.274-.627-.537-.53-.477-1.848-.477-1.848zm17.727 4.757s-.004 1.494-.672 2.52c-.796 1.224-2.095 1.883-2.095 1.883s-.113 1.408.018 2.096c.468 2.464 2.307 2.449 2.307 2.449s-1.01-1.172-1.025-2.052c-.036-2.128 2.087-3.555 2.175-4.694.05-.667-.257-2.025-.257-2.025zm-3.474 4.73-1.433.672s.315.88.584 1.256c.599.835 1.662 1.379 1.662 1.379s-.525-1.036-.654-1.592c-.203-.87-.16-1.715-.16-1.715z" style="fill:url(#a);stroke-width:4.5268"/><path d="M96.136 57.028s.961-.787 1.488-1.113c1.055-.652 2.138-1.113 2.138-1.113s-.818 1-1.776 1.576c-.56.337-1.85.65-1.85.65z" style="fill:#96dfd3;stroke-width:4.5268"/><path d="M96.944 54.812s.3-.028.442.336c.078.198-.018.477-.018.477s1.703-1.013 3.06-1.503c.62-.224 1.892-.583 1.892-.583l1.91-.937s-2.088.208-3.537.636c-1.3.384-3.749 1.574-3.749 1.574z" style="fill:#73ada4;stroke-width:4.5268"/><path d="M106.22 91.984s.035-.617.212-.849c.222-.289.784-.733.955-.53.29.344-1.45 1.874-1.45 1.874s1.103-.18 1.786-1.15c.27-.383.516-1.142.283-1.36-.32-.301-1.324.21-1.786.866-.353.5 0 1.149 0 1.149z" style="fill:#56595b;stroke-width:4.5268"/><path d="M99.472 75.716c.167.485 1.8 1.785 2.334 1.874.94.158 4.099-1.65 6.083-2.617 2.561-1.248 2.83-3.89 2.83-3.89s-1.385.714-2.017.425c-.513-.235-.811-.855-.742-1.415.082-.673 1.308-1.556 1.308-1.556s-.485-.054-.743-.283c3.285-3.124 5.411-2.546 5.411-2.546s.31-.336.177-.39c-1.96-.795-3.67-1.795-5.73-2.546-5.41-1.972-6.542-5.481-6.542-5.481s-.112 2.305-1.591 3.395c-1.531 1.128-3.183 1.238-3.183 1.238s-.058.826-.389 1.697c.049-1.694.027-1.898-.247-2.652-.217-.594-.495-1.09-1.132-1.167-1.17-.141-2.557 1.912-2.617 3.748-.035 1.066.586 2.291 1.485 2.865.388.247 1.38-.036 1.38-.036s-.645.317-.814.566c-.292.43-.484 1.022-.106 1.379.276.261.754.372 1.026.106.48-.472 0-1.52 0-1.52s.524.556.318 2.157c.506 1.36 1.676 2.383 2.334 3.678.482.948.821 1.964 1.167 2.97z" style="fill:#e0f4e0;stroke-width:4.5268"/><path d="M104.18 72.46c-.197.394.25.927.619 1.167.495.322 1.217.466 1.556-.016.326-.464-.12-.966-.619-1.238-.503-.274-1.3-.423-1.556.089z" style="fill:#96dfd3;stroke-width:4.5268"/><path d="M103.91 71.628c.23-.154.47-.09.707.053.224.134.658.667.513.884-.134.202-.701-.087-.866-.265-.192-.207-.49-.581-.354-.672zM105.64 73.612c-.176-.226.384-.633.672-.796.246-.139.879-.251 1.008 0 .13.252-.262.524-.513.655-.336.174-.926.45-1.167.141zM98.788 70.632s.687.251.9.525c.318.636-.587 2.493 1.276 4.427.732.76 1.481 1.246 2.95.575.309-.141.652-.649.65-.976 1.028-.248 1.801-.8 1.801-.8s-.787.173-1.15.05c-.494-.167-.742-.758-1.2-1-.676-.357-1.503-.315-2.176-.675-.473-.253-.8-.684-1-1.15-.07-.162-.085-.47-.226-.65a1.122 1.122 0 0 0-.675-.45c-.374-.094-1.15.124-1.15.124z" style="fill:#56595b;stroke-width:4.5268"/><path d="M102.61 73.408s.654-.063.95.05c.61.233.831.707 1.526 1.225-.462.085-.75.276-.75.276s-.11.62-.35.8c-.406.303-1.144.618-1.601.4-2.497-1.19-2.226-4.126-2.226-4.126l.7.55s.595 1.527 1.751 2.5c.384.324 1.333.003 1.426-.2.143-.315-.237-.673-.476-.924-.252-.266-.95-.55-.95-.55z" style="fill:#728dbe;stroke-width:4.5268"/><path d="M101.56 73.332s.69 1.325 1.325 1.6c.253.11.718.092.85-.15.156-.284-.257-.534-.5-.75-.451-.403-1.675-.7-1.675-.7z" style="fill:#e0f4e0;stroke-width:4.5268"/><path d="M100.59 64.128s-1.02-.748-.45-1.726c.463-.794 1.45-.625 1.45-.625l4.677 2.226 1.375.25-.775.6s.597.498 0 1.726a5.963 5.963 0 0 1-1.7 2.05l-.4-1.85-3.427-1.876z" style="fill:#96dfd3;stroke-width:4.5268"/><path d="M103.52 66.38s.833.546 1.1.95c.315.475.525 1.626.525 1.626s.456-.788.476-1.226c.014-.33-.275-.95-.275-.95s.27-.31.325-.5c.135-.473-.025-1.476-.025-1.476s1.054.22 1.65.2c.885-.028 1.376-.725 1.376-.725s-1.288-.172-1.9-.375c-1.587-.524-2.728-1.435-4.527-2.15-.55-.22-1.776-.05-1.776-.05s1.291.3 1.876.6c1.465.75 2.604 1.548 4.05 1.925.365.095.77.15 1.126.075-1.038.333-2.776-.075-2.776-.075l.2.3s-1.016-.066-3.525-1.275c2.186 1.484 3.5 1.875 3.5 1.875l.05 1.25-2.7-1.675s-2.292-1.499-3.076-2.45c-.053-.064-.212.101-.175.175.39.773 1 1.5 1 1.5s-.064.3-.125.725c-.345-.092-.999-.777-1.3-.45-.348.377 1.175.85 1.175.85s.099.26.025.35c-.322.192-.862-.18-.926.126-.075.362.95.575.95.575s1.015 1.768 1.876 2.2c.8.401 2.676.176 2.676.176s-1.1-.147-2.026-.626c-.31-.16-.666-.508-.666-.508s.399.074.967-.192c.524-.246.875-.775.875-.775z" style="fill:#56595b;stroke-width:4.5268"/><path d="M101.94 65.352s-.112.549.547.902c.389.208.664-.249.664-.249s-.155-.216-.447-.362c-.35-.175-.764-.291-.764-.291z" style="fill:#fff;stroke-width:4.5268"/><path d="M101.66 65.776s.247.42.495.584c.159.104.584.194.584.194s-.693.53-1.415.283c-.508-.174-.978-.877-.973-1.415a1.92 1.92 0 0 1 .195-.831l.424.212s-.125.72.124.973c.192.195.418.088.566 0z" style="fill:#73ada4;stroke-width:4.5268"/><path d="M109.06 69.056s-.953.85-.45 1.2c.562.392 1.621-.345 1.621-.345s-.275.02-.493-.093c-.116-.06-.228-.262-.228-.262s-.251.27-.475.125c-.327-.211.025-.625.025-.625z" style="fill:#728dbe;stroke-width:4.5268"/><path d="M109.71 68.748c.04.032-.27.66.23.937.527.293.92-.477.92-.477s-.414-.342-1.15-.46z" style="fill:#ececec;stroke-width:4.5268"/><path d="M108.54 70.48s.526.138 1.096-.036c1.06-.321 1.503-1.096 1.503-1.096l.53.036s-.853.939-1.432 1.22c-.378.183-.932.37-1.343.283-.331-.071-.354-.407-.354-.407z" style="fill:#ececec;stroke-width:4"/><path d="m109.62 67.988 2.6.902s.922-1.087 1.609-2.493c-2.57.07-4.209 1.59-4.209 1.59z" style="fill:#96dfd3;stroke-width:4.5268"/><path d="M93.912 61.944s.455-1.544 1.061-1.485c.812.078.935 1.459.955 3.448-.326-1.343-.548-1.875-.548-1.875s-.913.702-.99 1.22c-.081.542.255.765.618 1.521.063.13-.103.355-.247.354-.272-.002-.35-.424-.46-.672-.136-.31-.285-.656-.23-.99.117-.706 1.167-2.052 1.167-2.052s-.04-.354-.247-.353c-.413 0-1.08.884-1.08.884z" style="fill:#56595b;stroke-width:4.5268"/></svg>