<svg width="192" height="192" version="1.1" viewBox="0 0 192 192" xmlns="http://www.w3.org/2000/svg" xmlns:xlink="http://www.w3.org/1999/xlink">
 <defs>
  <linearGradient id="linearGradient918" x1="164" x2="164" y1="80" y2="172" gradientUnits="userSpaceOnUse">
   <stop style="stop-color:#54688c" offset="0"/>
   <stop style="stop-color:#d3b69a" offset="1"/>
  </linearGradient>
 </defs>
 <path d="m29.936 20c-5.5038 0-9.9355 4.4318-9.9355 9.9355v66.064l4 40 68 24 60 8 20-13.885v-124.18c0-5.5038-4.4318-9.9355-9.9356-9.9355h-132.13z" style="fill:url(#linearGradient918)"/>
 <path d="m160 132c-45.296 0-117.86 30.333-135.83 38.158 1.6244 1.1569 3.6108 1.8418 5.7656 1.8418h132.13c5.5038 0 9.9356-4.4318 9.9356-9.9356v-28.25c-2.5213-0.93435-6.3722-1.8144-12-1.8144z" style="fill:#54688c"/>
 <path d="m20 93.656v68.408c0 5.1285 3.8485 9.3226 8.8262 9.8711l136.31-0.42188c3.9881-1.2899 6.8594-5.0206 6.8594-9.4492v-7.9492l-15.314 5.0684c-7.5054 1.6096-18.355 1.3164-29.117-0.78711-11.378-2.2238-14.945-3.4837-14.945-5.2812 0-0.73366-1.1009-1.8366-2.4453-2.4492-1.7892-0.81518-2.4453-1.8726-2.4453-3.9473 0-3.6704-2.1726-5.3937-6.9551-5.5137-3.1597-0.07927-4.232-0.65066-6.0215-3.2109-2.5981-3.7172-7.035-4.3752-8.0449-1.1934-0.63321 1.9951-3.4219 2.7718-3.4219 0.95313 0-0.55108-1.0263-1.3927-2.2793-1.8691-2.014-0.76573-3.8152-4.1844-6.084-11.551-0.53521-1.7377-2.3926-1.5179-2.3926 0.28321 0 3.1599-3.8412 9.0204-6.3203 9.6426-3.2216 0.80858-7.1976-1.7595-7.9883-5.1582-2.564-11.022-6.3371-16.909-6.9707-10.879-0.43649 4.1545-2.2222 9.7773-3.1055 9.7773-0.46204 0-1.0797-1.8707-1.3711-4.1562-2.1237-16.655-3.9662-20.065-6.9648-12.889-1.224 2.9295-1.8772 3.4393-4.0703 3.1777-2.9712-0.35433-3.93-1.7338-4.7383-6.8164-0.60943-3.8323-2.8604-5.4663-5.0391-3.6582-2.1118 1.7526-4.2754-0.73556-4.2754-4.916 0-2.5629-0.51498-4.1931-1.6895-5.0859z" style="fill:#56595b;stroke-width:.97778"/>
 <circle cx="130" cy="74" r="26" style="fill:#728dbe;opacity:.25;paint-order:stroke fill markers"/>
 <path d="m133.67 48.293a26 26 0 0 1 10.33 20.707 26 26 0 0 1-26 26 26 26 0 0 1-3.6699-0.29297 26 26 0 0 0 15.67 5.293 26 26 0 0 0 26-26 26 26 0 0 0-22.33-25.707z" style="fill:#fff;paint-order:stroke fill markers"/>
 <path d="m62 44a2 2 0 0 0-2 2 2 2 0 0 0 2 2 2 2 0 0 0 2-2 2 2 0 0 0-2-2zm-14 4a4 4 0 0 0-4 4 4 4 0 0 0 4 4 4 4 0 0 0 4-4 4 4 0 0 0-4-4zm22 0a2 2 0 0 0-2 2 2 2 0 0 0 2 2 2 2 0 0 0 2-2 2 2 0 0 0-2-2zm0 20a2 2 0 0 0-2 2 2 2 0 0 0 2 2 2 2 0 0 0 2-2 2 2 0 0 0-2-2zm-4 4a2 2 0 0 0-2 2 2 2 0 0 0 2 2 2 2 0 0 0 2-2 2 2 0 0 0-2-2zm-4 4a2 2 0 0 0-2 2 2 2 0 0 0 2 2 2 2 0 0 0 2-2 2 2 0 0 0-2-2zm22 12a4 4 0 0 0-4 4 4 4 0 0 0 4 4 4 4 0 0 0 4-4 4 4 0 0 0-4-4zm-22 12a2 2 0 0 0-2 2 2 2 0 0 0 2 2 2 2 0 0 0 2-2 2 2 0 0 0-2-2z" style="fill:#fff;opacity:.25;paint-order:stroke fill markers"/>
</svg>
