<svg xmlns="http://www.w3.org/2000/svg" id="svg2" width="192" height="192" version="1.1"><g id="layer1" transform="translate(0 -860.362)"><rect id="rect895" width="153" height="153" x="19.5" y="879.862" rx="10" ry="10" style="fill:#575a5c;fill-opacity:1;fill-rule:evenodd;stroke:none;stroke-opacity:1"/><path id="rect889" d="M109.568 924.791c-.939.084-1.953 1.71-3.211 5.117a93.221 93.221 0 0 1-1.504 3.793c-.866 2.007-.903 2.73-.176 3.457.969.969 2.433.565 4.01-1.106 1.708-1.81 3.445-2.111 5.808-1.009 1.98.924 3.323 2.522 3.76 4.474.848 3.793 3.428 5.176 6.76 3.624 1.604-.746 2.893-2.128 2.893-3.1 0-1.196-1.75-2.738-4.784-4.215-3.82-1.858-5.562-3.207-9.456-7.324-1.822-1.927-3.488-3.57-3.702-3.652a.881.881 0 0 0-.398-.059zM90.9 935.423c-1.476-.01-2.716.2-3.258.65-1.135.942.053 1.984 2.653 2.328 1.916.253 3.403.854 3.25 1.311-.085.257-.772.325-2.584.256-6.398-.244-13.462 2.06-15.266 4.978-1.362 2.204-1.336 4.987.059 6.297 1.226 1.152 3.73 1.27 5.725.27 1.302-.653 2.305-1.868 3.329-4.035 1.177-2.492 2.992-3.685 5.597-3.68.624.001 2.625.312 4.447.691 4.872 1.014 7.456.83 7.993-.567.987-2.572-1.445-5.552-6.057-7.424-1.7-.69-3.99-1.063-5.888-1.075zm39.59 9.225c-.497-.047-.826.439-.97 1.453-.239 1.672-1.125 3.014-2.678 4.054-2.113 1.415-3.688 1.8-7.37 1.8-3.24 0-3.363-.023-5.198-.96-1.935-.986-2.702-.972-2.904.052-.098.495 1.44 2.569 2.473 3.335 2.412 1.787 7.251 2.046 11.393.609 2.557-.887 5.312-2.657 6.193-3.977 1.376-2.062 1.43-4.403.132-5.701-.415-.415-.773-.636-1.071-.665zm-28.847 3.822c-.677-.016-1.332.218-1.82.706-.907.907-.853 1.445.285 2.878 1.594 2.004 1.553 3.553-.144 5.485-.997 1.137-1.043 2.1-.14 3.001.863.864 1.733.86 2.916-.012 1.291-.953 1.972-.87 3.457.415 1.48 1.28 2.113 1.37 3.055.427 1.204-1.205.941-1.975-1.468-4.299-2.88-2.778-2.863-2.75-3.114-5.038-.193-1.752-.327-2.095-1.08-2.768a3.048 3.048 0 0 0-1.947-.795zm-31.163 4.541c-1.129-.009-2.407.812-4.318 2.732-4.535 4.557-6.643 9.703-6.663 16.262-.026 8.705 4.183 14.18 11.99 15.6 1.524.277 5.816-.11 7.496-.676 3.342-1.125 5.112-2.857 6.241-6.105 1.604-4.61.559-8.967-2.638-11-5.074-3.229-10.803-1.37-10.819 3.509-.005 1.768.55 2.937 1.738 3.661 1.844 1.125 4.218.46 5.445-1.526.575-.93.668-.981 1.068-.58.299.297.432.913.417 1.925-.053 3.698-2.66 5.652-7.15 5.36-3.71-.24-6.3-2.289-7.376-5.83-.48-1.58-.554-2.394-.446-4.847.219-4.976 1.587-7.975 5.532-12.123 1.947-2.048 2.15-2.367 2.15-3.367 0-1.333-1.003-2.68-2.19-2.94a2.3 2.3 0 0 0-.477-.055zm11.85 6.281c-1.843-.025-3.364 1.91-2.792 3.552.347.994.982 1.252 2.466 1.002 2.19-.37 3.802.694 4.653 3.074.304.851.732 1.474 1.161 1.69.837.424.906.426 1.742.046.903-.412 1.326-1.432 1.122-2.708-.146-.907-.07-1.125.56-1.621.4-.315 1.211-.654 1.802-.754.59-.1 1.28-.41 1.532-.689.69-.762.447-2.18-.492-2.877l-.775-.576-2.96.762c-1.627.419-3.21.76-3.518.756-.308-.003-1.304-.376-2.213-.827-.909-.452-1.939-.825-2.288-.83zm17.71 5.033c-1.19-.028-2.524.86-3.184 2.154-.446.874-.484 1.796-.415 10 .073 8.642.101 9.072.649 9.818.818 1.115 2.268 1.804 3.38 1.605.501-.089 4.411-2.187 8.69-4.662 6.444-3.728 7.869-4.663 8.301-5.448.59-1.07.526-2.642-.149-3.671-.58-.886-15.79-9.614-17.037-9.777a2.218 2.218 0 0 0-.236-.019z" style="fill:#97dfd4;fill-opacity:1;stroke:none;stroke-width:.967969;stroke-linecap:round;stroke-linejoin:round;paint-order:markers fill stroke"/></g><style id="style853" type="text/css">.st0{fill:#fff}</style></svg>