<?xml version="1.0" encoding="UTF-8"?>
<svg width="192" height="192" version="1.1" viewBox="0 0 192 192" xmlns="http://www.w3.org/2000/svg" xmlns:cc="http://creativecommons.org/ns#" xmlns:dc="http://purl.org/dc/elements/1.1/" xmlns:rdf="http://www.w3.org/1999/02/22-rdf-syntax-ns#">
 <metadata>
  <rdf:RDF>
   <cc:Work rdf:about="">
    <dc:format>image/svg+xml</dc:format>
    <dc:type rdf:resource="http://purl.org/dc/dcmitype/StillImage"/>
   </cc:Work>
  </rdf:RDF>
 </metadata>
 <circle cx="96" cy="96" r="88" fill="#98dc9a"/>
 <g fill="#fff" stroke-width=".29756">
  <path d="m71.364 122.87 2.374 4.1119a10.447 10.447 0 1 0 18.095-10.447l-2.374-4.1119z"/>
  <path d="m61.958 76.185c-8.2316 4.7525-10.284 16.378-5.5358 24.603 4.7487 8.225 9.2427 12.212 11.142 15.502l18.095-10.447-1.2038-5.8859c-1.2042-5.8847-1.4591-10.125-3.3586-13.415-3.799-6.58-12.559-14.156-19.139-10.357z"/>
  <path d="m104.45 99-2.0091 4.2984a10.448 10.448 0 0 0 18.938 8.8313l2.0068-4.305z"/>
  <path d="m127.38 60.034c-6.5733-1.7072-13.851 5.9997-16.861 12.457-1.6023 3.4407-1.488 7.6872-2.1745 13.654l-0.68691 5.9669 18.938 8.8294c1.6033-3.4444 5.7344-7.8038 9.7487-16.415 4.0133-8.6076 0.95409-20.007-7.6609-24.022-0.43049-0.20064-0.86526-0.35677-1.3035-0.47059z"/>
 </g>
</svg>
