<?xml version="1.0" encoding="UTF-8" standalone="no"?>
<svg
   width="192"
   height="192"
   version="1.1"
   viewBox="0 0 192 192"
   id="svg14"
   sodipodi:docname="template.svg"
   inkscape:version="1.1 (c68e22c387, 2021-05-23)"
   inkscape:export-xdpi="96"
   inkscape:export-ydpi="96"
   xmlns:inkscape="http://www.inkscape.org/namespaces/inkscape"
   xmlns:sodipodi="http://sodipodi.sourceforge.net/DTD/sodipodi-0.dtd"
   xmlns="http://www.w3.org/2000/svg"
   xmlns:svg="http://www.w3.org/2000/svg"
   xmlns:rdf="http://www.w3.org/1999/02/22-rdf-syntax-ns#"
   xmlns:cc="http://creativecommons.org/ns#"
   xmlns:dc="http://purl.org/dc/elements/1.1/">
  <metadata
     id="metadata20">
    <rdf:RDF>
      <cc:Work
         rdf:about="">
        <dc:format>image/svg+xml</dc:format>
        <dc:type
           rdf:resource="http://purl.org/dc/dcmitype/StillImage" />
        <dc:title />
      </cc:Work>
    </rdf:RDF>
  </metadata>
  <defs
     id="defs18">
    <clipPath
       clipPathUnits="userSpaceOnUse"
       id="clipPath2843">
      <g
         id="g2851">
        <rect
           style="fill:#000000;fill-opacity:1"
           id="rect2845"
           width="72.603577"
           height="73.652771"
           x="31.265705"
           y="26.229618" />
        <rect
           style="fill:#000000;fill-opacity:1"
           id="rect2847"
           width="72.603577"
           height="73.652771"
           x="31.475546"
           y="92.013496" />
        <rect
           style="fill:#000000;fill-opacity:1"
           id="rect2849"
           width="72.603577"
           height="73.652771"
           x="95.685646"
           y="92.013496" />
      </g>
    </clipPath>
  </defs>
  <sodipodi:namedview
     pagecolor="#ffffff"
     bordercolor="#666666"
     borderopacity="1"
     objecttolerance="10"
     gridtolerance="10"
     guidetolerance="10"
     inkscape:pageopacity="0"
     inkscape:pageshadow="2"
     inkscape:window-width="1720"
     inkscape:window-height="1387"
     id="namedview16"
     showgrid="false"
     inkscape:zoom="2.8284271"
     inkscape:cx="48.083262"
     inkscape:cy="139.12326"
     inkscape:window-x="0"
     inkscape:window-y="0"
     inkscape:window-maximized="0"
     inkscape:current-layer="svg14"
     inkscape:document-rotation="0"
     inkscape:pagecheckerboard="0" />
  <rect
     x="19.999977"
     y="19.999977"
     width="152.00005"
     height="152.00005"
     rx="9.9346428"
     opacity="0.63"
     id="rect2"
     style="fill:#98dc9a;stroke:#b1b5bd;stroke-width:0;stroke-miterlimit:4;stroke-dasharray:none;fill-opacity:1;opacity:1" />
  <rect
     style="fill:#ffffff;fill-opacity:1;stroke-width:0.999994"
     id="rect2875"
     width="4.517024"
     height="10.954723"
     x="101.641"
     y="33.548565"
     ry="2.258512" />
  <rect
     style="fill:#ffffff;fill-opacity:1;stroke-width:0.999994"
     id="rect2875-3"
     width="4.517024"
     height="10.954723"
     x="89.853539"
     y="-158.45526"
     ry="2.258512"
     transform="rotate(90)" />
  <rect
     style="fill:#ffffff;fill-opacity:1;stroke-width:0.999998"
     id="rect1574"
     width="124.90588"
     height="124.90586"
     x="33.547058"
     y="33.54707"
     ry="20.708649"
     clip-path="url(#clipPath2843)" />
  <rect
     style="fill:#98dc9a;fill-opacity:1;stroke-width:1"
     id="rect1574-1"
     width="103"
     height="102.99998"
     x="44.5"
     y="44.500011"
     ry="10.844947" />
  <rect
     style="opacity:1;fill:#71a372;fill-opacity:1;stroke-width:0.999997"
     id="rect4516"
     width="152.00327"
     height="3.75"
     x="19.996727"
     y="62.125" />
  <rect
     style="fill:#71a372;fill-opacity:1;stroke-width:0.999997"
     id="rect4516-8"
     width="152.00327"
     height="3.75"
     x="19.998367"
     y="126.125" />
  <rect
     style="opacity:1;fill:#ffffff;fill-opacity:1;stroke-width:0;stroke-miterlimit:4;stroke-dasharray:none"
     id="rect4638"
     width="11"
     height="83.375"
     x="33.5"
     y="54.750004" />
  <rect
     style="fill:#ffffff;fill-opacity:1;stroke-width:0;stroke-miterlimit:4;stroke-dasharray:none"
     id="rect4638-4"
     width="10.971431"
     height="30.695545"
     x="147.489"
     y="102.91584" />
  <rect
     style="fill:#71a372;fill-opacity:1;stroke-width:0.999997"
     id="rect4516-6"
     width="152.00327"
     height="3.75"
     x="19.997547"
     y="-129.875"
     transform="rotate(90)" />
  <rect
     style="fill:#71a372;fill-opacity:1;stroke-width:0.999997"
     id="rect4516-8-2"
     width="152.00327"
     height="3.75"
     x="19.999187"
     y="-65.875"
     transform="rotate(90)" />
  <path
     style="fill:#ffffff;stroke-width:1;fill-opacity:1"
     d="m 83.931878,109.69226 c -1.21413,-1.3416 -1.12358,-2.10055 1.53262,-12.844987 l 2.385,-9.647446 23.753262,-23.875286 c 26.10399,-26.238083 26.21692,-26.331025 31.99391,-26.331025 5.64489,0 10.38001,3.22938 12.3681,8.435118 1.20802,3.163153 0.83895,8.224283 -0.79963,10.965394 -1.40022,2.342385 -46.51185,47.820942 -48.45323,48.847332 -1.47875,0.7818 -19.397232,5.39278 -20.956622,5.39278 -0.53406,0 -1.3546,-0.42385 -1.82341,-0.94188 z m 14.04911,-8.30807 5.888292,-1.501805 18.70485,-18.699588 c 10.28767,-10.28477 18.70486,-18.93712 18.70486,-19.227444 0,-0.290321 -2.14661,-2.66554 -4.77024,-5.278259 l -4.77024,-4.750403 -19.15106,19.181689 -19.151072,19.181685 -1.33983,5.407917 c -0.73691,2.974355 -1.46045,5.813508 -1.60787,6.309238 -0.36714,1.23456 0.48777,1.16347 7.49231,-0.62303 z M 149.61413,53.569334 c 0.83256,-1.34712 1.00584,-2.282446 0.80672,-4.354683 -0.21256,-2.212081 -0.55475,-2.915068 -2.11496,-4.344894 -1.6385,-1.501578 -2.20284,-1.705827 -4.71317,-1.705827 -2.63142,0 -3.03215,0.166258 -5.18597,2.151578 l -2.3342,2.151583 5.02862,5.047552 5.02862,5.047561 1.21202,-1.138633 c 0.66661,-0.626252 1.68916,-1.91066 2.27232,-2.854237 z"
     id="path2474"
     sodipodi:nodetypes="sscsssssssscssscccsssssssscccss" />
  <rect
     style="opacity:1;fill:#ffffff;fill-opacity:1;stroke-width:0;stroke-miterlimit:4;stroke-dasharray:none"
     id="rect5041"
     width="78.125"
     height="11"
     x="57"
     y="147.5" />
  <rect
     style="fill:#ffffff;fill-opacity:1;stroke-width:0;stroke-miterlimit:4;stroke-dasharray:none"
     id="rect5041-6"
     width="40.875"
     height="11"
     x="57.1875"
     y="33.5" />
</svg>
