<?xml version="1.0" encoding="UTF-8"?>
<svg version="1.1" viewBox="0 0 192 192" xml:space="preserve" xmlns="http://www.w3.org/2000/svg" xmlns:xlink="http://www.w3.org/1999/xlink"><defs><linearGradient id="linearGradient1141"><stop stop-color="#9abeff" offset="0"/><stop stop-color="#98dc9a" offset="1"/></linearGradient><style/><linearGradient id="linearGradient1039" x1="24" x2="24" y1="4.1129" y2="43.887" gradientUnits="userSpaceOnUse"><stop stop-color="#9abeff" offset="0"/><stop stop-color="#98dc9a" offset="1"/></linearGradient><linearGradient id="linearGradient1143" x1="23.889" x2="23.889" y1="3.498" y2="43.887" gradientUnits="userSpaceOnUse" xlink:href="#linearGradient1141"/></defs>
	 <rect class="a" x="20" y="20" width="152" height="152" rx="10" fill="#56595b"/><g transform="matrix(2.1627 0 0 2.1627 44.094 44.094)" stroke="url(#linearGradient1039)" stroke-width="2.7743"><path class="a" d="m5.5 5.5v35a2 2 0 0 0 2 2h35" fill="none" stroke-linecap="round" stroke-linejoin="round"/><line class="a" x1="5.5" x2="8.5" y1="36" y2="36" fill="url(#linearGradient1143)" stroke-linecap="round" stroke-linejoin="round"/><line class="a" x1="5.5" x2="8.5" y1="30" y2="30" fill="url(#linearGradient1143)" stroke-linecap="round" stroke-linejoin="round"/><line class="a" x1="5.5" x2="8.5" y1="24" y2="24" fill="url(#linearGradient1143)" stroke-linecap="round" stroke-linejoin="round"/><line class="a" x1="5.5" x2="8.5" y1="18" y2="18" fill="url(#linearGradient1143)" stroke-linecap="round" stroke-linejoin="round"/><line class="a" x1="5.5" x2="8.5" y1="12" y2="12" fill="url(#linearGradient1143)" stroke-linecap="round" stroke-linejoin="round"/><path class="a" d="m42.5 12a3.5 3.5 0 0 1-3.5 3.5 3.5 3.5 0 0 1-3.5-3.5 3.5 3.5 0 0 1 3.5-3.5 3.5 3.5 0 0 1 3.5 3.5z" fill="url(#linearGradient1143)" stroke-linecap="round" stroke-linejoin="round"/><path class="a" d="m36.78 25.08a3.5 3.5 0 0 1-3.5 3.5 3.5 3.5 0 0 1-3.5-3.5 3.5 3.5 0 0 1 3.5-3.5 3.5 3.5 0 0 1 3.5 3.5z" fill="url(#linearGradient1143)" stroke-linecap="round" stroke-linejoin="round"/><path class="a" d="m25.35 18a3.5 3.5 0 0 1-3.5 3.5 3.5 3.5 0 0 1-3.5-3.5 3.5 3.5 0 0 1 3.5-3.5 3.5 3.5 0 0 1 3.5 3.5z" fill="url(#linearGradient1143)" stroke-linecap="round" stroke-linejoin="round"/><path class="a" d="m18.7 33a3.5 3.5 0 0 1-3.5 3.5 3.5 3.5 0 0 1-3.5-3.5 3.5 3.5 0 0 1 3.5-3.5 3.5 3.5 0 0 1 3.5 3.5z" fill="url(#linearGradient1143)" stroke-linecap="round" stroke-linejoin="round"/><line class="a" x1="16.62" x2="20.43" y1="29.8" y2="21.2" fill="url(#linearGradient1143)"/><line class="a" x1="30.31" x2="24.82" y1="23.24" y2="19.84" fill="url(#linearGradient1143)"/><line class="a" x1="37.61" x2="34.73" y1="15.21" y2="21.9" fill="url(#linearGradient1143)"/></g></svg>
