<?xml version="1.0" encoding="utf-8"?>
<!-- Generator: Adobe Illustrator 16.0.0, SVG Export Plug-In . SVG Version: 6.00 Build 0)  -->
<!DOCTYPE svg PUBLIC "-//W3C//DTD SVG 1.1 Tiny//EN" "http://www.w3.org/Graphics/SVG/1.1/DTD/svg11-tiny.dtd">
<svg version="1.1" baseProfile="tiny" id="Layer_1" xmlns="http://www.w3.org/2000/svg" xmlns:xlink="http://www.w3.org/1999/xlink"
	 x="0px" y="0px" width="192px" height="192px" viewBox="0 0 192 192" xml:space="preserve">
<g>
	<path fill="#56595B" d="M94.083,123.414C81.283,123.117,76.817,106,76.817,106H73v18h3.668c0.744-4,5.657,1.008,18.309,1.604
		c5.794,0.273,13.263-2.164,16.937-6.777c3.318-4.163,4.906-10.503,3.217-15.59c-2.055-6.178-8.002-9.028-13.8-10.848
		c-4.186-1.313-8.57-2.329-12.271-4.367c-2.147-1.184-4.021-2.84-4.933-5.177c-0.774-1.983-0.157-4.472,1.129-6.11
		c3.022-3.855,10.02-4.629,14.186-3.158C107.525,76.43,109.416,87,109.416,87H112V72h-2.607c-1.073,4-4.923-0.554-13.225-1.384
		c-5.253-0.525-10.121,1.326-14.367,4.295c-8.123,5.675-9.539,19.258-0.613,24.728c2.386,1.463,5.078,2.603,7.686,3.603
		c8.932,3.422,17.268,5.249,16.075,13.287C103.759,124.566,94.083,123.414,94.083,123.414z"/>
	<circle fill="#56595B" cx="121.919" cy="120.213" r="5.209"/>
	<path fill="#56595B" d="M115.297,38l-2.604-10.161c-1.051-4.313-5.4-6.703-9.713-5.65l-62.039,15.26
		c-4.313,1.052-6.981,5.465-5.928,9.777L56,133.438V47.053C56,42.614,59.652,38,64.091,38H115.297z"/>
	<path fill="#56595B" d="M147.133,53.483L136,52.287V151.1c0,4.439-3.613,7.9-8.053,7.9H64.091c-0.131,0-0.259,0.055-0.388,0.049
		c0.453,3.614,3.331,6.615,7.109,7.02l63.494,6.833c4.413,0.474,8.375-2.711,8.85-7.124l11.108-103.449
		C154.737,57.915,151.547,53.957,147.133,53.483z"/>
</g>
</svg>
