<svg xmlns="http://www.w3.org/2000/svg" width="192" height="192" fill="none"><path fill="#272727" stroke="#272727" d="M174 32.5H18c-5.523 0-10 4.477-10 10v107c0 5.523 4.477 10 10 10h156c5.523 0 10-4.477 10-10v-107c0-5.523-4.477-10-10-10Z"/><path fill="#E5E6EF" d="M12 43v107a5 5 0 0 0 5 5h157a5 5 0 0 0 5-5V44.113a5 5 0 0 0-4.987-5l-38-.1a5 5 0 0 0-5.013 5V51a5 5 0 0 1-5 5H65a5 5 0 0 1-5-5v-8a5 5 0 0 0-5-5H17a5 5 0 0 0-5 5Z"/><rect width="62" height="4" x="64" y="45" fill="#000" rx="2"/><path fill="#959595" d="M26 45h23v5H26zM141 45h24v5h-24z"/></svg>