<?xml version="1.0" encoding="UTF-8" standalone="no"?>
<svg
   id="Layer_1"
   data-name="Layer 1"
   width="192"
   height="192"
   viewBox="0 0 192 192"
   version="1.1"
   sodipodi:docname="student_beans_alt.svg"
   inkscape:version="1.2 (dc2aedaf03, 2022-05-15)"
   inkscape:export-filename="student_beans_alt.png"
   inkscape:export-xdpi="96"
   inkscape:export-ydpi="96"
   xmlns:inkscape="http://www.inkscape.org/namespaces/inkscape"
   xmlns:sodipodi="http://sodipodi.sourceforge.net/DTD/sodipodi-0.dtd"
   xmlns="http://www.w3.org/2000/svg"
   xmlns:svg="http://www.w3.org/2000/svg">
  <sodipodi:namedview
     id="namedview19"
     pagecolor="#505050"
     bordercolor="#eeeeee"
     borderopacity="1"
     inkscape:showpageshadow="0"
     inkscape:pageopacity="0"
     inkscape:pagecheckerboard="0"
     inkscape:deskcolor="#505050"
     showgrid="false"
     showguides="false"
     inkscape:zoom="1.7383042"
     inkscape:cx="73.922621"
     inkscape:cy="73.059711"
     inkscape:window-width="1680"
     inkscape:window-height="1022"
     inkscape:window-x="1920"
     inkscape:window-y="0"
     inkscape:window-maximized="1"
     inkscape:current-layer="Layer_1" />
  <defs
     id="defs4">
    <style
       id="style2">.cls-1{fill:#96dfd3;}.cls-2{fill:#fff;}.cls-3{fill:none;}</style>
  </defs>
  <path
     class="cls-1"
     d="m 180.25873,91.310042 c 4.77096,-9.437696 4.99098,-19.685991 0.59058,-28.127808 -4.44672,-8.766056 -13.50227,-14.718173 -24.64223,-16.304633 -6.25463,-0.858329 -12.56223,-1.272386 -18.87539,-1.239059 v 0 c -4.99098,0 -10.25988,0.20844 -17.03417,0.67164 -7.02906,0.474779 -12.5064,2.628658 -16.7331,6.600597 -1.71261,1.620774 -3.17596,3.486056 -4.342495,5.535237 -1.404993,-1.796695 -3.040218,-3.400773 -4.863598,-4.770958 -8.105996,-6.415317 -17.300512,-8.105996 -23.47265,-8.812376 -2.871581,-0.331941 -5.759563,-0.50205 -8.650256,-0.50952 v 0.19686 c -11.359975,0 -20.982951,2.871839 -29.401607,8.800796 -10.051436,6.947997 -15.991973,20.160772 -14.891874,32.794546 0.299128,3.288366 1.07945,6.514994 2.315999,9.576656 -1.171332,0.696043 -2.276095,1.498449 -3.300299,2.397059 -10.0912694,8.368941 -11.9137288,23.151671 -4.157218,33.720941 4.064579,5.79 9.900896,9.97037 17.914253,12.73799 5.922771,2.04469 12.146427,3.08197 18.412192,3.0687 0.972719,0 1.957019,0 2.918158,-0.0695 h 3.311879 c 1.051285,0.0236 2.103046,-0.0151 3.149759,-0.1158 12.425334,-0.96114 22.07147,-4.89834 29.378447,-12.00845 0.515561,0.85409 1.096286,1.6671 1.736999,2.4318 3.057119,3.72875 9.009236,8.24495 19.685991,8.30285 h 15.41297 c 5.29206,0 9.7851,0 14.04654,-0.0926 8.38509,0.0369 16.66754,-1.84458 24.21377,-5.50049 11.33681,-5.68578 17.83319,-16.212 18.29639,-29.49425 0.24492,-5.37646 -1.02712,-10.71343 -3.67086,-15.40139 1.03395,-1.366881 1.92269,-2.83776 2.65182,-4.388818 z"
     id="path8"
     style="stroke-width:1.158"
     sodipodi:nodetypes="sccssccccccccccccccccccccsccccss" />
  <path
     class="cls-2"
     d="m 86.148111,84.362045 a 4.701478,4.701478 0 0 1 -2.790779,1.158 3.7982384,3.7982384 0 0 1 -2.813939,-1.54014 25.997089,25.997089 0 0 0 -15.899333,-8.476556 14.266554,14.266554 0 0 0 -1.980179,-0.16212 15.250853,15.250853 0 0 0 -4.782538,0.82218 4.8751779,4.8751779 0 0 0 -3.775079,4.411978 c -0.173699,2.420219 1.28538,3.566638 3.149759,4.400398 3.219239,1.366439 6.461637,2.628659 9.727196,3.821398 a 47.47798,47.47798 0 0 1 9.727196,4.713058 c 10.421995,6.809039 12.101094,20.913469 3.867718,30.629079 -6.033177,7.15644 -14.139174,9.62298 -23.03261,10.3062 -0.70638,0 -1.424339,0.0579 -2.142299,0.0579 h -3.589799 c -0.868499,0 -1.725419,0.0811 -2.593918,0.0811 a 42.845981,42.845981 0 0 1 -14.116014,-2.316 c -4.493038,-1.58646 -8.592357,-3.90246 -11.406295,-7.88598 -3.844559,-5.51208 -3.033959,-11.80001 1.980179,-16.21199 a 4.701478,4.701478 0 0 1 2.929738,-1.44749 4.4930381,4.4930381 0 0 1 2.802359,1.37801 c 5.789998,5.3847 12.552715,8.8008 20.658711,8.8008 h 0.42846 a 10.896775,10.896775 0 0 0 4.631998,-0.89166 4.7593779,4.7593779 0 0 0 3.080279,-4.09932 4.1687982,4.1687982 0 0 0 -2.443379,-4.09932 36.256964,36.256964 0 0 0 -3.914038,-1.79489 c -3.555059,-1.5054 -7.133277,-2.88342 -10.630436,-4.50462 C 25.468937,93.348121 29.267175,71.80933 40.40713,64.108634 47.123527,59.360836 54.499984,57.728057 62.189101,57.728057 v -0.10422 a 70.881149,70.881149 0 0 1 7.179597,0.428459 c 6.021597,0.68322 11.881075,2.200199 16.779413,6.021598 7.306976,5.732097 7.214337,14.799233 0,20.288151 z"
     id="path10"
     style="stroke-width:1.158" />
  <path
     class="cls-2"
     d="m 168.5861,85.253705 c 6.06791,-12.008455 -0.13896,-23.27579 -14.31288,-25.313869 a 122.74795,122.74795 0 0 0 -16.99943,-1.05378 v -0.06948 c -5.37312,0 -10.7694,0.26634 -16.14251,0.6369 -7.78176,0.5211 -10.93152,3.821398 -12.64536,11.579995 -1.3317,5.986857 -2.5476,11.996875 -3.8214,17.995312 -2.16546,10.236716 -4.53936,20.438687 -6.473215,30.721717 -1.598039,8.59236 2.431795,13.15488 11.151535,13.21278 5.16468,0 10.29462,0 15.41297,0 q 6.948,0 13.896,-0.0811 a 41.873262,41.873262 0 0 0 18.52799,-4.14564 c 7.38804,-3.69402 10.73466,-10.02828 11.01258,-18.11111 0.25476,-7.59647 -3.5319,-12.494811 -10.27146,-15.41297 a 6.3921572,6.3921572 0 0 1 -1.158,-0.833759 c 8.77764,-4.713058 10.14408,-5.813158 11.82318,-9.125036 z m -27.16667,29.528985 a 23.42633,23.42633 0 0 1 -10.28304,1.94544 v 0 c -2.47812,0 -4.9794,-0.19686 -7.4691,-0.32424 -1.28538,0 -1.69067,-1.35486 -1.55171,-2.4318 0.13896,-1.07694 0.32423,-2.0844 0.55583,-3.1845 2.04966,-9.40295 0.5211,-8.32601 10.23672,-8.48813 2.16546,0.0926 4.3425,0 6.47322,0.33582 2.61708,0.32424 4.93308,1.158 5.37312,4.4004 0.44004,3.24239 -0.12738,6.27635 -3.33504,7.74701 z m 0.10422,-26.633987 a 44.154521,44.154521 0 0 1 -6.4269,0.68322 v 0 c -7.97862,-0.09264 -7.97862,-0.09264 -6.16056,-7.978616 1.158,-5.164678 1.158,-5.164678 6.39216,-5.164678 h 2.0844 c 0.9843,0 1.98018,0 2.97606,0.06948 4.08774,0.26634 6.32267,1.933859 6.60059,4.828858 a 7.2490769,7.2490769 0 0 1 -5.46575,7.561736 z"
     id="path12"
     style="stroke-width:1.158" />
</svg>
