<svg xmlns="http://www.w3.org/2000/svg" width="192" height="192"><g transform="translate(0 -860.362)"><circle cx="96" cy="956.362" r="88" style="fill:#97dfd4;fill-opacity:1;fill-rule:evenodd;stroke:none;stroke-opacity:1"/><path d="M97.615 919.862a6.954 6.954 0 0 0-.805.042c-1.122.117-2.003.534-4.122 1.95-6.812 4.553-11.093 9.445-12.763 14.583l-.454 1.395-1.674.571c-2.914.995-4.608 2.15-5.945 4.053-3.77 5.37-1.315 14.488 5.213 19.358 4.193 3.13 8.325 4.255 20.665 5.632 6.077.678 7.433.908 8.464 1.434 1.688.86 2.353 1.916 2.35 3.731-.001 1.051-.074 1.371-.525 2.286-.816 1.658-2.644 3.125-5.965 4.787l-1.013.507-2.94-1.999c-4.187-2.846-7.354-4.814-7.653-4.756-.266.053-5.512 7.484-5.525 7.827-.003.107.72.782 1.606 1.5.888.719 1.614 1.366 1.614 1.438 0 .135-2.165.782-4.033 1.205-5.856 1.327-12.197.827-15.295-1.205-2.237-1.468-3.525-4.255-2.937-6.356.242-.864 1.25-2.07 2.078-2.49 2.054-1.038 4.456-.822 8.086.727.963.411 1.825.721 1.915.69.162-.058 4.667-6.483 4.818-6.873.103-.268-.887-.678-3.351-1.388-5.2-1.498-8.728-1.544-11.609-.153-1.92.927-3.592 3.181-4.363 5.884-.472 1.657-.583 4.103-.25 5.518.735 3.114 3.325 5.959 6.729 7.389 2.165.91 3.735 1.16 7.322 1.167 3.738.007 4.964-.154 10.367-1.362 1.976-.441 3.619-.803 3.651-.803.033 0 1.437 1.144 3.121 2.541 3.206 2.661 4.598 3.522 6.456 3.995 1.206.307 3.889.198 5.527-.224 2.336-.602 5.501-1.799 7.788-2.944 5.228-2.617 9.823-7.193 12.374-12.322 1.748-3.514 2.458-6.575 2.453-10.567-.005-3.323-.549-5.73-1.906-8.435-2.267-4.516-5.497-7.546-11.03-10.35-2.253-1.14-5.58-2.51-6.098-2.51-.26 0-.93.855-2.872 3.665-1.394 2.015-2.567 3.79-2.607 3.945-.05.194.044.307.307.367.209.048 1.105.24 1.993.427 4.672.984 8.627 2.828 11.172 5.209 1.816 1.698 2.937 3.526 3.694 6.02.392 1.288.433 1.669.438 4.082.015 6.25-1.87 10.594-6.555 15.107-2.115 2.037-3.078 2.56-4.716 2.559-.848 0-1.31-.091-1.855-.364-.8-.4-4.496-3.258-4.521-3.496-.01-.083.872-.46 1.958-.838 7.361-2.563 10.65-6.044 11.059-11.706.375-5.197-2.861-8.543-10.047-10.385-2.437-.624-5.011-1.073-11.517-2.01-5.839-.839-8.076-1.29-10.316-2.079-2.32-.817-3.966-1.766-5.434-3.134-2.554-2.38-3.905-5.388-3.442-7.66a7.392 7.392 0 0 1 .601-1.688c.45-.835 1.974-2.378 2.35-2.378.139 0 .276.229.34.567.058.312.305 1.056.548 1.654 1.24 3.045 3.873 5.487 7.63 7.076 1.481.627 5.212 1.64 6.294 1.71l.684.045 2.883-4.154c1.585-2.285 2.843-4.218 2.795-4.297-.049-.078-.652-.192-1.341-.252-5.52-.486-8.503-1.569-10.653-3.867-1.2-1.282-1.864-2.623-2.235-4.512-.24-1.226-.252-1.564-.077-2.408.507-2.457 2.068-4.04 4.645-4.711 1.237-.323 2.122-.302 3.76.087 2.81.667 6.06 2.704 9.128 5.722 1.89 1.86 2.81 2.999 2.81 3.48 0 .158-2.904 4.512-6.453 9.674-5.706 8.3-6.585 9.628-6.413 9.688.274.097 5.575.723 5.71.676.101-.036.716-.841 1.365-1.79.65-.947 4.444-6.442 8.432-12.21 3.987-5.767 7.28-10.635 7.319-10.818.057-.277-.62-.801-4.174-3.226a285.647 285.647 0 0 1-7.717-5.477c-3.871-2.878-5.48-3.754-7.31-3.772zm20.59 3.224c-.724-.024-1.46.288-2.004.892-.685.761-2.568 3.59-2.568 3.858 0 .322 3.854 2.838 4.258 2.78.186-.026.834-.82 1.654-2.026 1.198-1.761 1.348-2.063 1.348-2.71 0-1.134-.559-1.959-1.726-2.549a2.294 2.294 0 0 0-.961-.245zm-31.623 44.065a.278.278 0 0 0-.094.006c-.214.082-6.315 8.849-6.722 9.658-.207.412-.2.49.08.807.171.192 1.065.85 1.987 1.46 1.53 1.013 1.706 1.09 2.017.89.187-.12 2.101-2.754 4.253-5.853 2.152-3.098 3.894-5.737 3.872-5.864-.029-.164-.792-.366-2.661-.703-1.261-.228-2.392-.393-2.732-.401zm-7.805 11.418c-.071 0-.244.114-.383.253-.38.38-.369 4.03.013 4.453.147.162.365.295.483.295.12 0 1.052-.334 2.073-.743 2.606-1.042 2.59-1.118-.705-3.345-.744-.502-1.41-.913-1.481-.913z" style="fill:#fefefe;fill-opacity:1;stroke-width:11.7615;stroke-linecap:round;stroke-linejoin:round"/></g></svg>