<?xml version="1.0" encoding="UTF-8"?>
<svg version="1.1" viewBox="0 0 192 192" xml:space="preserve" xmlns="http://www.w3.org/2000/svg"><defs><clipPath id="clipPath1156"><path class="st0" d="m23.1 5.5c10.2 0 18.5 8.3 18.5 18.5 0 10.2-8.3 18.5-18.5 18.5-10.2 0-18.5-8.3-18.5-18.5 0-10.2 8.3-18.5 18.5-18.5z" fill="#9abeff"/></clipPath><clipPath id="clipPath1160"><path class="st0" d="m23.1 5.5c10.2 0 18.5 8.3 18.5 18.5 0 10.2-8.3 18.5-18.5 18.5-10.2 0-18.5-8.3-18.5-18.5 0-10.2 8.3-18.5 18.5-18.5z" fill="#9abeff"/></clipPath><clipPath id="clipPath1164"><path class="st0" d="m23.1 5.5c10.2 0 18.5 8.3 18.5 18.5 0 10.2-8.3 18.5-18.5 18.5-10.2 0-18.5-8.3-18.5-18.5 0-10.2 8.3-18.5 18.5-18.5z" fill="#9abeff"/></clipPath></defs>
	 <style type="text/css"/><g transform="matrix(3.7414 0 0 3.7414 4.9151 6.79)"><path class="st0" d="m23.1 5.5c10.2 0 18.5 8.3 18.5 18.5s-8.3 18.5-18.5 18.5-18.5-8.3-18.5-18.5 8.3-18.5 18.5-18.5z" fill="#9abeff"/><path d="m4.6 26.689 3.1999-4.489 4.2003-0.89999 3.0998 1.9002 1.9999 2.9996 0.89999 2.8999 3.9998 1.1005 3.3003 2.5 0.59982 2.3998-1.6997 2.5997-4.0004 1.8-5.947 1.278c-5.8176-3.3206-8.7199-8.2869-9.6528-14.089z" clip-path="url(#clipPath1164)" fill="#98dc9a"/><path d="m35.6 22.3-2.6-2.5-0.3-1.7-1.1-2.3-2.9-1.1-2.9 1.4-3.8-1.8-2.2-3v-5.8c9.8583-1.7672 17.611 2.8548 21.085 11.618l-1.9853 3.4821-1.9 1.7z" clip-path="url(#clipPath1156)" fill="#98dc9a"/><path class="st0" d="m33.982 9.551c9.1-5.9 12.418-4.651 6.9176 3.349s-17.4 19.5-26.5 25.4-12 4.2-6.5-3.8" fill="none" stroke="#f9de81" stroke-linecap="round" stroke-linejoin="round" stroke-width="1.6037"/><path class="st0" d="m12.1 14.2c1.4 0 2.5 1.1 2.5 2.5s-1.1 2.5-2.5 2.5-2.5-1.1-2.5-2.5 1.1-2.5 2.5-2.5z" fill="#98dc9a"/><path d="m41.248 29.233-5.0483 0.36733-4.8 3.2-0.2 2.3 1.8 0.3 1.5742 3.5936c3.2327-2.4917 5.491-5.8116 6.6741-9.7609z" clip-path="url(#clipPath1160)" fill="#98dc9a"/><path class="st0" d="m28.197 19.6c1.4 0 2.5 1.1 2.5 2.5s-1.1 2.5-2.5 2.5-2.5-1.1-2.5-2.5 1.1-2.5 2.5-2.5z" fill="#98dc9a"/><path d="m12 21.3-4.2003 0.89999-3.2001 4.489c0.74705 4.6459 2.7592 8.755 6.5176 11.913l-0.35968-0.83317 9.4676-8.0571-2.2254-0.61235-0.89999-2.8999-1.9999-2.9996z" clip-path="url(#clipPath1164)" fill="#98dc9a"/><path d="m23.828 5.1274c-1.297 0.00207-2.6417 0.12421-4.028 0.37273v5.7998l2.1999 3.0001 3.8004 1.8 2.8999-1.4001 2.8999 1.0999 0.51682 1.0811 5.0852-4.8419 1.0326 0.24014c-3.3617-4.567-8.3673-7.1615-14.407-7.1519z" clip-path="url(#clipPath1156)" fill="#98dc9a"/></g></svg>
