<?xml version="1.0" encoding="UTF-8"?>
<svg version="1.1" viewBox="0 0 192 192" xml:space="preserve" xmlns="http://www.w3.org/2000/svg"><defs><clipPath id="clipPath2783"><rect class="a" x="20" y="20" width="152" height="152" rx="10" fill="#9abeff"/></clipPath><clipPath id="clipPath2787"><rect class="a" x="20" y="20" width="152" height="152" rx="10" fill="#9abeff"/></clipPath><clipPath id="clipPath2791"><rect class="a" x="20" y="20" width="152" height="152" rx="10" fill="#9abeff"/></clipPath><clipPath id="clipPath2795"><rect class="a" x="20" y="20" width="152" height="152" rx="10" fill="#9abeff"/></clipPath><clipPath id="clipPath2799"><rect class="a" x="20" y="20" width="152" height="152" rx="10" fill="#9abeff"/></clipPath><clipPath id="clipPath2831"><rect class="a" x="20" y="20" width="152" height="152" rx="10" fill="#9abeff"/></clipPath><clipPath id="clipPath2835"><rect class="a" x="20" y="20" width="152" height="152" rx="10" fill="#9abeff"/></clipPath><clipPath id="clipPath2839"><rect class="a" x="20" y="20" width="152" height="152" rx="10" fill="#9abeff"/></clipPath><clipPath id="clipPath2843"><rect class="a" x="20" y="20" width="152" height="152" rx="10" fill="#9abeff"/></clipPath><clipPath id="clipPath2847"><rect class="a" x="20" y="20" width="152" height="152" rx="10" fill="#9abeff"/></clipPath></defs>
	 <rect class="a" x="20" y="20" width="152" height="152" rx="10" fill="#9abeff"/><path d="m19.998 63.636v-32.518l10.044-9.0798 10.394-2.0382h27.72l12.897 2.8974 4.1437 4.7025 4.9466 8.6155 1.7721 4.3767 0.42962 4.8063-0.96663 7.5988-1.799 1.799-3.3564 2.4837-6.0683 3.0207-18.605 5.1221-22.96-1.1214z" fill="#fff"/><path d="m19.998 33.644s1.7088-0.2721 2.4683-0.65182c2.2034-0.68618 4.3161-2.0122 5.7719-3.4935 1.2911-1.2151 1.9746-1.8986 2.9619-2.8859 0.98728-0.98729 1.8986-2.6581 2.2024-3.0378 0.30378-0.37973 0.38159-0.78481 0.38159-0.78481s-0.29535 0.08055 1.0203-0.37591c1.3157-0.45646 0.77867-0.24166 1.799-0.67127 1.0203-0.42961 1.4231-0.42961 2.4166-0.83238 0.99348-0.40276 1.4163-0.91046 1.4163-0.91046-5.4142 0.0098-10.809-0.07617-16.261 0.11931l-3.7213 4.5188-0.75945 5.2782z" clip-path="url(#clipPath2799)" fill="#56595b" stroke-linecap="round" stroke-linejoin="round" stroke-width=".96439"/><path d="m20.036 62.098 10.006 2.5791 7.9578 3.4369 6.0146-1.1814 9.1293-1.7184 12.996 0.32221 1.4104 0.32221-1.035 2.486-8.4306 22.754-38.086 0.96663z" fill="#fff"/><path d="m20.6 58.985s0.93781 0.6601 1.4499 0.91293c1.0614 0.52401 2.1892 0.91743 3.3295 1.2351 1.1059 0.30812 2.2416 0.5231 3.3832 0.64442 1.5134 0.16083 3.0433 0.15276 4.5646 0.1074 1.5082-0.04497 3.013-0.19486 4.5109-0.37591 1.1336-0.13701 2.2624-0.319 3.3832-0.53701 1.1721-0.22799 2.3291-0.52814 3.4906-0.80552 1.4526-0.34693 2.8849-0.78311 4.3498-1.074 1.5271-0.30328 3.0665-0.57282 4.6183-0.69812 1.6059-0.12967 3.2249-0.15083 4.8331-0.0537 1.496 0.09035 2.9714 0.3943 4.4572 0.59072 1.6289 0.21533 3.2604 0.41122 4.8868 0.64442 1.2731 0.18254 2.5284 0.52444 3.8128 0.59072 2.8281 0.14595 5.7377 0.25788 8.4848-0.42961 0.97878-0.24494 1.8213-0.86912 2.7388-1.2888 1.1223-0.51337 2.3353-0.85179 3.3832-1.5036 0.59356-0.36923 1.0949-0.87115 1.611-1.3425 0.5421-0.49506 1.1055-0.97869 1.5573-1.5573 0.32117-0.41135 0.58242-0.87075 0.80553-1.3425 0.34128-0.7217 0.60968-1.4815 0.80552-2.2555 0.17327-0.68475 0.25162-1.3916 0.32221-2.0944 0.07523-0.7489 0.09785-1.5029 0.1074-2.2555 0.01022-0.80566 0.03463-1.6157-0.05372-2.4166-0.05998-0.54435-0.20978-1.0751-0.3222-1.611-0.15423-0.73539-0.2739-1.4801-0.48331-2.2018-0.23357-0.80488-0.53342-1.5907-0.85922-2.3629-0.22409-0.5311-0.47015-1.0544-0.75183-1.5573-0.43675-0.77979-0.95852-1.5089-1.4499-2.2555-0.54596-0.82939-1.0404-1.6981-1.6647-2.4703-0.85966-1.0632-1.6111-1.8796-2.8462-2.9536s-0.59072-0.59072-2.1481-1.8259c-1.5573-1.2351-0.59072-0.75182-2.5777-1.987-1.987-1.2351-1.4499-1.1277-3.061-1.7722-1.611-0.64442-1.9333-0.75182-3.1684-1.1814-1.2351-0.42961-2.0944-0.69812-2.4703-0.75182-0.37592-0.05371-1.2049-0.74936-1.4734-0.74936-0.26852 0 2.977-0.37837 2.977-0.37837l5.6387 0.37837 6.5516-0.37837 1.5573 0.49769s0.38933 0.25414 0.48331 0.38839c0.09403 0.13426 0.65785 0.71154 0.87265 0.99348 0.21481 0.28193 0.57729 0.7921 0.75183 1.1277 0.17453 0.33563 0.33563 0.63099 0.49674 1.074 0.1611 0.44304 0.25508 0.72497 0.33563 1.1143 0.08053 0.38934 0.12083 0.46989 0.14769 0.87265 0.02681 0.40276 0.02681 0.57729 0.02681 0.93978 0 0.36249-0.0134 0.631-0.02681 0.7921-0.0134 0.1611-0.7384 1.4474-0.59072 2.1883 0.18456 0.926 1.2075 1.4564 1.7303 2.2428 0.29811 0.44846 0.54953 0.92694 0.79742 1.405 0.45093 0.86959 0.8672 1.7578 1.2531 2.6581 0.33152 0.77346 0.64544 1.5559 0.91135 2.3543 0.23679 0.71097 0.4432 1.4333 0.60757 2.1644 0.13236 0.58877 0.21905 1.1872 0.30378 1.7847 0.07869 0.55497 0.12658 1.1139 0.18986 1.6708 0.06326 0.55693 0.13824 1.1127 0.18986 1.6708 0.0327 0.3538 0.05998 0.70828 0.0759 1.0632 0.03067 0.68294 0.10152 1.3699 0.03801 2.0505-0.06365 0.68218-0.23944 1.351-0.4177 2.0126-0.16662 0.61837-0.3825 1.2231-0.60757 1.8227-0.20735 0.5524-0.4077 1.1112-0.68351 1.6328-0.14114 0.26691-0.27188 0.55455-0.49364 0.75945-6.8971 6.373-24.758 13.442-24.758 13.442l-2.1644-0.07594-17.392 0.11392s1.5353 2.509 2.1644 3.8352c0.23876 0.50332 0.52251 1.0063 0.60757 1.5569 0.11815 0.7647 0.15368 1.6055-0.15189 2.3163-0.27236 0.63364-0.83836 1.1257-1.405 1.5189-0.68555 0.47573-1.4898 0.83473-2.3163 0.94932-0.99688 0.13821-2.0077-0.17264-2.9998-0.34176-0.72948-0.12435-1.4662-0.24864-2.1644-0.49364-0.82264-0.28864-1.613-0.6804-2.3543-1.1392-1.972-1.2204-3.8193-2.6614-5.506-4.2529-0.56121-0.52954-1.0574-1.1284-1.5189-1.7467-0.39489-0.52901-0.72502-1.1039-1.0632-1.6708-0.31935-0.53529-0.91135-1.6328-0.91135-1.6328s-5.2782-1.5189-6.0377-1.8607c-0.75946-0.34175-1.5189-0.68351-2.2404-1.0253s-1.0633-0.75946-1.0633-0.75946v-3.0758-1.9511z" clip-path="url(#clipPath2847)" fill="#56595b" stroke-linecap="round" stroke-linejoin="round" stroke-width=".96439"/><path d="m28.977 40.404c-0.48941 0.72281-0.96607 1.4788-1.2351 2.3092-0.24502 0.75621-0.30612 1.5681-0.3222 2.3629-0.0191 0.94288-0.02759 1.9211 0.26851 2.8164 0.39112 1.1827 1.051 2.3188 1.9333 3.1981 0.59142 0.58947 1.3824 0.95563 2.1481 1.2888 1.0078 0.43859 2.0756 0.79557 3.1684 0.91293 0.80269 0.08621 1.6187-0.03778 2.4166-0.16111 0.89245-0.13796 1.7939-0.30661 2.6314-0.64442 0.82572-0.33306 1.6228-0.77546 2.3092-1.3425 0.69346-0.5729 1.2116-1.3315 1.7722-2.035 0.51187-0.64244 1.0509-1.2746 1.4499-1.9926 0.64755-1.1651 1.1478-2.4208 1.5036-3.7054 0.15478-0.55873 0.28079-1.1388 0.2685-1.7185-0.02325-1.0951-0.15836-2.2405-0.64442-3.2221-0.44463-0.89789-1.1936-1.6436-1.987-2.2555-5.7814-3.7607-12.644-0.51231-15.681 4.1887z" fill="#56595b"/><circle cx="39.986" cy="41.693" r="5.2352" fill="none" stroke="#fff" stroke-linecap="round" stroke-linejoin="round" stroke-width="1.9288"/><path d="m85.862 39.91c0.48941 0.72281 0.96607 1.4788 1.2351 2.3092 0.24502 0.7562 0.30612 1.5681 0.3222 2.3629 0.01908 0.94287 0.02761 1.9211-0.26851 2.8164-0.39112 1.1827-1.051 2.3188-1.9333 3.1981-0.59142 0.58947-1.3824 0.95562-2.1481 1.2888-1.0078 0.43859-2.0756 0.79556-3.1684 0.91293-0.8027 0.08621-1.6187-0.03778-2.4166-0.16111-0.89245-0.13796-1.7939-0.30661-2.6314-0.64442-0.82572-0.33306-1.6228-0.77546-2.3092-1.3425-0.69346-0.5729-1.2116-1.3315-1.7722-2.035-0.51187-0.64244-1.0509-1.2746-1.4499-1.9926-0.64755-1.1651-1.1478-2.4208-1.5036-3.7054-0.15478-0.55873-0.2808-1.1388-0.2685-1.7185 0.02322-1.0951 0.15836-2.2405 0.64442-3.2221 0.44463-0.89789 1.1935-1.6436 1.987-2.2555 5.7814-3.7607 12.644-0.51231 15.681 4.1887z" fill="#56595b"/><circle transform="scale(-1,1)" cx="-74.854" cy="41.199" r="5.2352" fill="none" stroke="#fff" stroke-linecap="round" stroke-linejoin="round" stroke-width="1.9288"/><path d="m56.3 46.738h4.9744s-0.38504-1.8227-2.3163-1.8227c-2.2003 0-2.6581 1.8227-2.6581 1.8227z" fill="#56595b"/><path d="m57.332 90.132s1.368-8.2374 2.7925-12.137c1.022-2.7973 2.2858-5.5718 4.0813-7.9478 3.1001-4.1024 6.8573-7.898 11.277-10.526 1.9463-1.157 4.2536-1.575 6.4442-2.1481 2.7511-0.71969 5.5447-1.3625 8.3774-1.611 2.3898-0.20972 4.8022-0.04884 7.196 0.1074 2.4815 0.16196 4.9981 0.25679 7.4108 0.85922 2.9477 0.73602 5.7756 1.9543 8.4848 3.3295 1.9661 0.998 3.882 2.1438 5.585 3.5443 1.5256 1.2547 2.9347 2.6878 4.0813 4.2961 1.2177 1.708 2.0577 3.6638 2.8999 5.585 0.88665 2.0226 1.7131 4.0886 2.2555 6.2294 0.53346 2.1056 1.0062 4.2725 0.96662 6.4442-0.0319 1.7481-0.96662 5.1554-0.96662 5.1554l-23.521 37.269-25.669 0.75183-3.0073-9.5589-3.4369-14.07z" fill="#98dc9a" stroke="#71a372" stroke-linecap="round" stroke-linejoin="round" stroke-width="1.9288"/><path d="m113.24 104.04s-1.1917-0.85606-1.8795-1.074c-2.3483-0.74415-4.9002-0.87611-7.3571-0.69813-1.5069 0.10916-2.9865 0.54982-4.4035 1.074-1.2989 0.48053-2.5632 1.0963-3.7054 1.8796-0.59583 0.40862-1.611 1.4499-1.611 1.4499l0.85922 2.6851v3.1147l-1.5573 1.987-3.4369 0.80553-0.74531 0.52668s-0.48073 3.3636-0.54353 5.0583c-0.06037 1.6287 0.06789 3.2597 0.1611 4.8868 0.05035 0.87861 0.21481 2.6314 0.21481 2.6314l14.822-0.1074 1.5574-5.9072 6.0683-15.144z" fill="#fff"/><path d="m82.572 111.18s2.0533 1.9788 3.2758 2.6851c0.74559 0.43077 1.5781 0.71706 2.4166 0.91292 0.89326 0.20864 1.8233 0.32697 2.7388 0.26851 0.87971-0.0562 1.8153-0.14823 2.5777-0.59072 0.79984-0.46421 1.5345-1.1827 1.8796-2.0407 0.32734-0.81395 0.23594-1.7732 0.05371-2.6314-0.20125-0.94781-0.69739-1.8254-1.2351-2.6314-0.44306-0.66412-1.611-1.7722-1.611-1.7722" fill="none" stroke="#71a372" stroke-linecap="round" stroke-linejoin="round" stroke-width="1.9288"/><path d="m86.96 81.513h3.4674" fill="none" stroke="#8e6f60" stroke-linecap="round" stroke-linejoin="round" stroke-width="2.5585"/><path d="m114.94 80.233h3.4674" fill="none" stroke="#8e6f60" stroke-linecap="round" stroke-linejoin="round" stroke-width="2.5585"/><ellipse transform="rotate(-2.3931)" cx="102.01" cy="91.553" rx="6.8747" ry="4.1721" fill="#f9de81" stroke="#f8c18c" stroke-linecap="round" stroke-linejoin="round" stroke-width="2.3995"/><path d="m99.058 87.93 13.157-0.69812" fill="#f9de81" stroke="#f8c18c" stroke-linecap="round" stroke-linejoin="round" stroke-width="2.5585"/><path d="m20.112 92.305s3.7684-2.0583 5.7719-2.81c2.8978-1.0873 5.898-1.9897 8.9616-2.4303 2.406-0.34599 4.8612-0.22761 7.2908-0.15189 2.1328 0.06646 4.275 0.17861 6.3794 0.53162 2.8339 0.47536 5.6991 1.0273 8.354 2.1265 1.7409 0.72077 3.3177 1.8042 4.8605 2.8859 1.0457 0.73314 1.7768 1.9542 2.9619 2.4303 0.61257 0.24605 1.3161 0.10497 1.9746 0.15189 1.5436 0.10998 3.1105 0.02478 4.6327 0.30378 1.276 0.23387 2.6514 0.40568 3.7213 1.1392 0.74352 0.5097 1.5608 1.2318 1.6708 2.1265 0.19625 1.597-1.2047 2.9919-1.9746 4.4048-0.57784 1.0605-1.7999 1.8428-1.9746 3.0378-0.32445 2.2193 1.3028 4.293 1.8986 6.4554 0.48605 1.764 1.0303 3.5177 1.367 5.3162 0.19705 1.0525 0.37972 3.1897 0.37972 3.1897l-14.222 50.853h-41.887z" clip-path="url(#clipPath2795)" fill="#f9de81" stroke="#f8c18c" stroke-linecap="round" stroke-linejoin="round" stroke-width="2.5585"/><path d="m24.037 97.006s2.5918-0.72479 3.9202-0.91293c1.3489-0.19104 2.727-0.36205 4.0813-0.21481 1.0707 0.1164 2.2173 0.26376 3.1147 0.85923 2.1041 1.4937 1.1174 3.0999-0.48331 4.8868-1.2801 1.4702-4.1887 4.0813-4.1887 4.0813" fill="#f8c18c" stroke="#c39a54" stroke-linecap="round" stroke-linejoin="round" stroke-width="2.5585"/><path d="m29.13 123.42 5.9241 0.0705" fill="#f8c18c" stroke="#f8c18c" stroke-linecap="round" stroke-linejoin="round" stroke-width="2.5416"/><path d="m29.195 127.77 5.8488-0.62243" fill="#f8c18c" stroke="#f8c18c" stroke-linecap="round" stroke-linejoin="round" stroke-width="2.3698"/><ellipse cx="39.811" cy="117.9" rx="2.0529" ry="1.5847" fill="#8e6f60"/><ellipse cx="65.413" cy="117.31" rx="1.9366" ry="1.6898" fill="#8e6f60"/><path d="m51.743 120.25c-0.61166 0.16248-1.2722 0.2193-1.8227 0.53161-1.0516 0.59667-2.0634 1.4155-2.6581 2.4682-0.42612 0.75435-0.56572 1.6785-0.53162 2.5442 0.04253 1.0806 0.23545 2.2695 0.91135 3.1138 0.42491 0.53073 1.1458 0.75481 1.7847 0.9873 0.99375 0.36162 2.0594 0.5259 3.1138 0.60757 1.326 0.10272 2.6872 0.12916 3.9871-0.1519 0.94884-0.20514 1.9296-0.50544 2.6961-1.1012 0.62162-0.48318 1.1154-1.1665 1.405-1.8986 0.2812-0.71102 0.37199-1.5212 0.2658-2.2784-0.15996-1.1407-0.61137-2.2888-1.329-3.1897-0.61058-0.7665-1.4607-1.4048-2.3923-1.7088-1.552-0.50644-3.1256-0.22671-4.8974-0.0518 0 0-0.35626 0.0809-0.53276 0.12781z" fill="#fff" stroke="#f8c18c" stroke-linecap="round" stroke-linejoin="round" stroke-width="2.5585"/><ellipse cx="54.477" cy="120.93" rx="3.0378" ry="2.3127" fill="#8e6f60"/><path d="m43.318 140.45c1.1081 0.51144 1.5838 0.67217 2.3867 0.98027 0.98592 0.37828 2.0155 0.64335 2.9834 1.0655 0.73388 0.32007 1.5762 0.53088 2.131 1.1081 0.55488 0.57734 1.0689 1.3742 1.0229 2.1736-0.06818 1.1847-0.86539 2.403-1.8753 3.026-1.0804 0.66661-2.5239 0.35987-3.7932 0.34097-1.4307-0.0213-2.8449-0.31377-4.262-0.51144-0.62689-0.0875-1.8753-0.29835-1.8753-0.29835" fill="none" stroke="#f8c18c" stroke-linecap="round" stroke-linejoin="round" stroke-width="2.5585"/><path d="m59.812 139.64c-1.1934 0.38359-2.6309 0.80389-3.8358 1.4491-0.81677 0.43735-1.7691 0.8331-2.2589 1.6196-0.54817 0.88027-0.74772 2.0589-0.51144 3.0687 0.24347 1.0404 0.96395 2.042 1.8753 2.5999 0.63749 0.39022 1.4689 0.32704 2.2163 0.34095 0.98667 0.0183 1.9813-0.11051 2.9408-0.34095 1.1496-0.27608 3.3244-1.236 3.3244-1.236" fill="none" stroke="#f8c18c" stroke-linecap="round" stroke-linejoin="round" stroke-width="2.5585"/><ellipse cx="27.081" cy="166.84" rx="10.351" ry="10.578" clip-path="url(#clipPath2791)" fill="#f8c18c"/><path d="m41.783 160.52s2.5656 0.4728 3.8358 0.76716c1.0306 0.2388 2.1117 0.35886 3.0687 0.80979 0.61701 0.29073 1.229 0.66654 1.6622 1.1934 0.45628 0.55489 0.72941 1.2615 0.89503 1.9606 0.177 0.74701 0.22902 1.5474 0.08525 2.3015-0.21226 1.1134-0.43131 2.4741-1.3673 3.1134-1.3963 0.9538-3.3775 0.2022-5.0684 0.21096-0.90967 5e-3 -1.8181-0.071-2.7277-0.0853-1.4631-0.0229-2.928 0.0648-4.3899 0-0.64119-0.0284-1.9179-0.17048-1.9179-0.17048" clip-path="url(#clipPath2843)" fill="none" stroke="#f8c18c" stroke-linecap="round" stroke-linejoin="round" stroke-width="2.5585"/><path d="m59.344 159.1c-0.6393 0.38358-1.6226 1.0663-2.472 1.5343-0.94047 0.51826-2.0157 0.79474-2.8982 1.4065-0.66071 0.45798-1.379 0.94772-1.7474 1.6622-0.32232 0.62497-0.27398 1.3856-0.29834 2.0884-0.02748 0.79304-0.0077 1.6015 0.17267 2.3743 0.14168 0.60781 0.26176 1.2945 0.70386 1.735 0.61202 0.60981 1.5569 0.80218 2.4053 0.96564 0.94861 0.1828 1.9326 0.0265 2.8982-3e-3 0.71129-0.0217 2.131-0.12787 2.131-0.12787" clip-path="url(#clipPath2839)" fill="none" stroke="#f8c18c" stroke-linecap="round" stroke-linejoin="round" stroke-width="2.5585"/><path d="m104.18 128.6s0.4297-2.2784 0.68193-3.4096c0.41391-1.8564 0.7792-3.7307 1.3638-5.5406 1.0737-3.3238 2.2276-6.6625 3.9211-9.7175 1.1242-2.0281 2.663-3.7994 4.0916-5.6259 0.5715-0.73076 1.6676-1.2114 1.7901-2.131 0.16944-1.2727-1.2589-2.2626-1.6196-3.4949-0.17723-0.60548-0.23494-1.2448-0.25573-1.8753-0.0403-1.2241-0.0485-2.479 0.25573-3.6654 0.2021-0.78814 0.56435-1.5441 1.0229-2.2163 0.55493-0.81342 1.235-1.5722 2.0458-2.131 0.83861-0.57806 1.8483-0.86632 2.8129-1.1934 0.86152-0.2921 1.7447-0.53526 2.6425-0.68193 1.1808-0.19289 2.3931-0.40515 3.5801-0.25572 0.80233 0.101 1.5902 0.38253 2.3015 0.76717 0.76507 0.41369 1.4677 0.96972 2.0458 1.6196 1.0429 1.1725 1.0724 3.2968 2.472 4.0063 5.1527-0.7559 11.802-0.0406 16.196-0.68191 0.91608-0.29186 1.6708-0.97789 2.3867-1.6196 0.75051-0.6726 1.2595-1.5775 1.9606-2.3015 0.58766-0.60692 1.1573-1.2597 1.8753-1.7048 1.0629-0.65889 2.2659-1.1326 3.4949-1.3639 1.2007-0.22598 2.4689-0.2473 3.6654 0 1.3336 0.27564 2.6125 0.87173 3.7506 1.6196 1.1087 0.72855 2.1837 1.6099 2.8982 2.7277 0.4839 0.75708 0.74264 1.6654 0.8524 2.5572 0.22633 1.8385-0.20866 3.7011-0.4262 5.5407-0.0845 0.7144-0.61425 1.4656-0.34096 2.131 0.20079 0.4889 0.849 0.62982 1.2786 0.93764 0.28193 0.20203 0.85242 0.5967 0.85242 0.5967v69.301l-3.214 0.86118h-36.508z" clip-path="url(#clipPath2787)" fill="#fff" stroke="#d2d2d2" stroke-linecap="round" stroke-linejoin="round" stroke-width="2.5585"/><path d="m134.63 120.33h3.2341" fill="none" stroke="#8e6f60" stroke-linecap="round" stroke-linejoin="round" stroke-width="2.1935"/><path d="m163.68 118.89h2.4558" fill="none" stroke="#8e6f60" stroke-linecap="round" stroke-linejoin="round" stroke-width="2.0576"/><ellipse cx="153.52" cy="125.19" rx="3.4692" ry="2.3808" fill="#8e6f60"/><path d="m121.84 98.394 5.6055-2.411s-1.5007-4.651-4.4-3.6165c-3.3656 1.2008-1.2055 6.0274-1.2055 6.0274z" fill="#ffd6d4" stroke="#ff837d" stroke-linecap="round" stroke-linejoin="round" stroke-width="2.5585"/><path d="m157.28 95.681 5.5452 2.2302s2.2217-4.3346-1.0247-5.7261c-3.1798-1.3629-4.5206 3.4959-4.5206 3.4959z" fill="#ffd6d4" stroke="#ff837d" stroke-linecap="round" stroke-linejoin="round" stroke-width="2.5585"/><path d="m145.53 146.01c2.5315 0.72329 3.2467 0.85083 4.5206 1.8685 0.6533 0.52188 1.2547 1.2355 1.4466 2.0493 0.33579 1.4243 0.31253 3.249-0.66302 4.3398-0.7213 0.80646-2.0585 0.72837-3.1343 0.84384-1.2201 0.13096-2.4701 0.0422-3.6767-0.18082-1.1434-0.21126-2.3098-0.5007-3.3151-1.0849-1.0084-0.58607-2.5918-2.3507-2.5918-2.3507" fill="none" stroke="#d2d2d2" stroke-linecap="round" stroke-linejoin="round" stroke-width="2.5585"/><path d="m158.18 145.59s-1.9696 0.9246-2.7123 1.6877c-0.66576 0.684-1.2678 1.5337-1.4466 2.4713-0.19805 1.0383-0.0731 2.2348 0.48219 3.1343 0.40124 0.64986 1.1539 1.0566 1.8685 1.326 0.9073 0.34202 1.9297 0.41011 2.8932 0.30138 0.9281-0.10475 1.8145-0.49092 2.6521-0.90411 0.77959-0.38459 1.5056-0.88593 2.1699-1.4466 0.76029-0.64167 2.0493-2.1699 2.0493-2.1699" fill="none" stroke="#d2d2d2" stroke-linecap="round" stroke-linejoin="round" stroke-width="2.5585"/><path d="m140.82 164.64s1.513 1.2834 2.3507 1.8082c0.72336 0.45318 1.4924 0.84221 2.2904 1.1452 0.79734 0.30274 1.7205 0.25834 2.4712 0.66302 0.6389 0.34437 1.2585 0.82149 1.6274 1.4466 0.3245 0.54991 0.42192 1.8685 0.42192 1.8685" clip-path="url(#clipPath2835)" fill="none" stroke="#d2d2d2" stroke-linecap="round" stroke-linejoin="round" stroke-width="2.5585"/><path d="m162.88 162.77c-0.42192 0.42192-1.4765 1.577-2.2302 2.3507-0.0792 0.0813-0.15461 0.16735-0.2411 0.24111-0.54738 0.46676-1.2073 0.79121-1.748 1.2658-0.74774 0.65627-1.581 1.2921-2.0493 2.1699-0.42677 0.79983-0.60275 2.6521-0.60275 2.6521" clip-path="url(#clipPath2831)" fill="none" stroke="#d2d2d2" stroke-linecap="round" stroke-linejoin="round" stroke-width="2.5585"/><ellipse cx="120.72" cy="132.6" rx="12.436" ry="11.496" fill="#d3b69a" stroke="#8e6f60" stroke-linecap="round" stroke-linejoin="round" stroke-width="3.2595"/><ellipse cx="124.6" cy="134.91" rx="7.9282" ry="7.3741" fill="#f8c18c" stroke="#8e6f60" stroke-linecap="round" stroke-linejoin="round" stroke-width="2.9832"/><path d="m59.092 170.66s0.47274-4.6738 0.84384-6.9918c0.48586-3.0348 0.94019-6.0929 1.8082-9.0412 0.40254-1.3672 1.0202-2.662 1.5671-3.9781 0.53858-1.2961 0.95614-2.6598 1.6877-3.8576 2.7837-4.5579 5.8327-9.2401 10.126-12.417 2.6514-1.9616 6.3177-2.0668 9.1617-3.737 0.88746-0.5212 1.4769-1.4966 2.411-1.9288 1.3374-0.61888 2.8768-0.66657 4.3398-0.84385 2.4363-0.29524 4.9064-0.54775 7.3535-0.36164 4.4161 0.33586 8.8249 1.2301 13.019 2.6521 1.5658 0.53086 3.0172 1.3631 4.4603 2.1699 1.8293 1.0226 3.7112 2.0137 5.3042 3.3754 1.385 1.1839 2.5527 2.6194 3.6165 4.0987 1.2193 1.6955 2.253 3.5314 3.1343 5.4247 1.046 2.2472 1.8143 4.6192 2.5315 6.9918 0.53866 1.7818 0.9944 3.593 1.326 5.4247 0.3028 1.6724 0.43395 3.3718 0.60274 5.063 0.24824 2.4871 0.60275 7.474 0.60275 7.474l0.12055 1.085z" clip-path="url(#clipPath2783)" fill="#d3b69a" stroke="#8e6f60" stroke-linecap="round" stroke-linejoin="round" stroke-width="2.5585"/><path d="m84.561 135.79c-4.2957 6.5606-9.4095 9.2136-14.53 9.6508-7.4981 0.64026-10.733-5.0152-10.733-12.243 0-7.2275 6.1006-13.086 13.626-13.086 7.5254 0 16.41 8.3889 11.637 15.678z" fill="#d3b69a" stroke="#8e6f60" stroke-linecap="round" stroke-linejoin="round" stroke-width="3.3217"/><path d="m81.5 137.06c0 4.97-6.7462 8.8784-12.54 8.8784s-8.9838-4.2701-8.9838-9.2401c0-4.97 4.6968-8.999 10.491-8.999 5.7938 0 11.033 4.3906 11.033 9.3606z" fill="#f8c18c" stroke="#8e6f60" stroke-linecap="round" stroke-linejoin="round" stroke-width="2.8022"/><circle cx="91.053" cy="158.6" r="3.7506" fill="#8e6f60"/><circle cx="120.38" cy="155.28" r="3.7506" fill="#8e6f60"/><ellipse transform="matrix(.98451 -.17534 .082214 .99661 0 0)" cx="93.458" cy="179.21" rx="9.9591" ry="7.7577" fill="#fff"/><ellipse cx="107.78" cy="159.66" rx="2.6054" ry="2.3492" fill="#8e6f60"/><path d="m103 165.36s1.5794-0.191 2.2302-0.60275c0.83698-0.52962 1.4665-1.3844 1.9288-2.2603 0.28663-0.54311-0.13081-1.7415 0.48219-1.7781 0.50838-0.0304 0.27396 1.0039 0.57261 1.4165 0.64792 0.89498 1.4971 1.7515 2.5315 2.1397 0.5738 0.21534 1.8384 0.0301 1.8384 0.0301" fill="none" stroke="#8e6f60" stroke-linecap="round" stroke-linejoin="round" stroke-width="2.5585"/></svg>
