<svg xmlns="http://www.w3.org/2000/svg" xml:space="preserve" width="192" height="192"><path fill="#56595B" d="M183.895 172.247c0 6.449-5.227 11.676-11.676 11.676h-151.3c-6.448 0-11.676-5.227-11.676-11.676V20.948c0-6.449 5.228-11.676 11.676-11.676h151.3c6.449 0 11.676 5.227 11.676 11.676v151.299z"/><path fill="#FDC394" d="M96.569 169.596c38.885 0 70.668-30.404 72.875-68.737H23.693c2.207 38.332 33.99 68.737 72.876 68.737z"/><path fill="#F9DE90" d="M96.569 23.598c-38.886 0-70.668 30.405-72.875 68.738h145.751c-2.208-38.333-33.991-68.738-72.876-68.738z"/></svg>