<svg width="192" height="192" version="1.1" viewBox="0 0 192 192" xmlns="http://www.w3.org/2000/svg">
 <rect x="20" y="20" width="152" height="152" rx="9.9346" opacity=".63" style="fill:#ba6561;opacity:1"/>
 <path d="m29.936 20c-5.5038 0-9.9355 4.4318-9.9355 9.9355v78.949l49.441-14.518 14.836 17.51-25.924 60.123h103.71c3.4982 0 6.559-1.794 8.3281-4.5117l-59.406-61.547 8.6055-25.818 52.408-13.875v-36.312c0-5.5038-4.4318-9.9355-9.9356-9.9355h-36.137l-21.768 45.582-24.334 6.2324-48.471-51.814z" style="opacity:.25"/>
 <path d="m128.29 20.93c-1.5606-0.03728-3.0003 0.83662-3.6875 2.2383l-7.1211 14.541c-0.83477 1.7054-0.35576 3.7626 1.1465 4.9238l36.943 28.549-19.51 60.178-66.965 16.049-30.045-43.578 23.285-46.854c0.74206-1.4935 0.47977-3.2907-0.6582-4.5098l-8.3086-8.9023c-1.8529-1.9854-5.1033-1.587-6.4219 0.78711l-34.617 62.318c-0.72447 1.3045-0.66273 2.9037 0.16016 4.1484l44.707 67.648c0.93945 1.4209 2.6757 2.0911 4.3262 1.6699l95.258-24.322c1.3967-0.35659 2.4851-1.4393 2.8711-2.8281l24.326-87.519c0.43736-1.6088-0.16889-3.3202-1.5215-4.2949l-51.926-39.491c-0.65453-0.47089-1.4361-0.733-2.2422-0.75195z" style="color-rendering:auto;color:#000000;dominant-baseline:auto;fill:#ff837d;font-feature-settings:normal;font-variant-alternates:normal;font-variant-caps:normal;font-variant-ligatures:normal;font-variant-numeric:normal;font-variant-position:normal;image-rendering:auto;isolation:auto;mix-blend-mode:normal;shape-padding:0;shape-rendering:auto;solid-color:#000000;text-decoration-color:#000000;text-decoration-line:none;text-decoration-style:solid;text-indent:0;text-orientation:mixed;text-transform:none;white-space:normal"/>
 <path d="m69.292 94.219 10.98-22.405 23.74-6.3802 16.173 14.541-8.7542 23.889-27.895 7.2705z" style="fill:none;stroke-linecap:round;stroke-linejoin:round;stroke-width:8;stroke:#ff837d"/>
 <path d="m183.98 63.418-28.791 7.4688 0.38086 0.29492-19.51 60.178-0.4414 0.10546 22.723 23.543c0.62047-0.51776 1.0864-1.2152 1.3106-2.0215l24.326-87.52c0.18682-0.6872 0.17279-1.3896 0.00196-2.0488zm-144.51 39.566-27.018 7.7676c0.013663 0.02155 0.022999 0.04507 0.03711 0.06641l40.434 61.182h5.4258l10.658-24.719-29.957-43.451 0.41992-0.8457z" style="fill:#ba6561;opacity:.5"/>
</svg>
