<?xml version="1.0" encoding="utf-8"?>
<!-- Generator: Adobe Illustrator 22.1.0, SVG Export Plug-In . SVG Version: 6.00 Build 0)  -->
<svg version="1.1" id="Слой_1" xmlns="http://www.w3.org/2000/svg" xmlns:xlink="http://www.w3.org/1999/xlink" x="0px" y="0px"
	 viewBox="0 0 192 192" enable-background="new 0 0 192 192" xml:space="preserve">
<path fill="#88BFFF" d="M172,192H20c-11,0-20-9-20-20V20C0,9,9,0,20,0h152c11,0,20,9,20,20v152C192,183,183,192,172,192z"/>
<image overflow="visible" width="241" height="241" xlink:href="D:\DESIGN\туццццц\Новая папка (4)\marvin\30E0AF75.jpg"  transform="matrix(0.7734 0 0 0.7734 4.215 -195)">
</image>
<g>
	<path fill="#88BFFF" d="M129,106.1c-3.8,0-7.5,0.1-11.3,0c-5.6-0.2-9.8-4.5-9.8-10c0-5.6,4.1-10,9.7-10.1c7.7-0.1,15.3,0,23-0.1
		c2,0,2.7,0.7,2.7,2.7c-0.1,4.9-0.1,9.9,0,14.8c0.1,2.4-0.9,2.8-3,2.7C136.5,106,132.7,106.1,129,106.1
		C129,106.1,129,106.1,129,106.1z"/>
</g>
<g>
	<path fill="#FEFEFE" d="M95.5,161c-36-0.3-64.8-29.6-64.5-65.5C31.2,59.7,60.7,30.6,96.5,31c36,0.4,64.9,29.7,64.5,65.5
		C160.7,132.4,131.3,161.4,95.5,161z"/>
	<path fill="#88BFFF" d="M39.9,101.9C37.5,67.6,61.6,43,89.3,40.1c29-3.1,55.2,15.3,61.4,43.7c4.7,21.7-1.9,40-18.2,54.9
		c-2.5,2.3-3.2,2.7-5.5-0.9c-0.4-0.6-0.7-1.3-1.1-1.9c-10.1-16.5-9.3-7.7-0.2-21.2c9.2-10.9,7.6-27.4-0.7-39.1
		c-8.4-11.8-22.8-17.5-37.4-13.8c-14.2,3.6-23.1,12.9-26.2,27.5c-2.6,12.1,0.9,22.5,9.1,31.3c2.3,2.5,2.7,4.1,0.8,7
		c-2.5,4-3.4,5.8-5.1,8.7c-3.3,5.7-3.4,5.8-8.4,1.1C46,126,40,112.2,39.9,101.9z"/>
	<path fill="#88BFFF" d="M115.4,117.5c-2.6-4.5-5.1-9-7.9-13.4c-1.2-1.9-0.5-3.5,0-5.3c1.4-5.4-0.7-9.6-4.9-12.6
		c-4.4-3.2-9.2-3.1-13.5,0.2c-4.1,3.1-6.5,7.5-4.5,12.7c2,5.3-3.1,0.5-5.3,3.9c-5.1,7.7,0,5.7-4.9-2.2c-8.2-13.1-7.9-20.1,5-29
		c12.9-8.8,30.4-5.9,39.9,6.4C128.9,90.6,126.5,109.1,115.4,117.5z"/>
	<path fill="#88BFFF" d="M76.1,117.5c2.6-4.5,5.5-8.8,7.9-13.4c2.3-4.6,0.5-3.5,0-5.3c-1.4-5.4,0.7-9.6,4.9-12.6
		c4.4-3.2,9.2-3.1,13.5,0.2c4.1,3.1,7.3,8.5,5.4,13.7c-2,5.3,2.2-0.5,4.4,2.9c5.1,7.7,0,5.7,4.9-2.2c8.2-13.1,7.9-20.1-5-29
		c-12.9-8.8-30.4-5.9-39.9,6.4C62.5,90.6,65,109.1,76.1,117.5z"/>
	<circle fill="#FEFEFE" cx="96" cy="94.9" r="12.1"/>
	<path fill="#88BFFF" d="M96.1,152.1c-8.6,0.2-16.5-2.1-24.3-5.4c-2.6-1.1-2.8-2.2-1.5-4.5c6.7-11.6,13.3-23.2,20-34.8
		c2.6-4.4,8.6-4.5,11.2-0.1c6.8,11.6,13.3,23.2,20.2,34.7c1.6,2.8,0.9,3.7-1.8,4.8C112.3,150.1,104.5,152.2,96.1,152.1z"/>
</g>
</svg>
