<svg xmlns="http://www.w3.org/2000/svg" width="192" height="192"><rect width="128" height="176" x="32" y="8" opacity=".63" rx="10.079" style="fill:#ff837d;opacity:1"/><circle cx="108.03" cy="96.022" r="24.21" style="fill:#f9de81;paint-order:stroke fill markers;stroke-width:.89501"/><path d="M42.078 8A10.056 10.056 0 0 0 32 18.078v155.84a10.056 10.056 0 0 0 10.078 10.078H56v-176H42.078z" style="fill:#ba6561;paint-order:stroke fill markers"/><path d="M82.578 120.7c-2.693-10.297 4.659-11.975 5.163-17.289.22-2.326-.115-3.775 1.44-4.202 2.2-.605 3.81 3.155 4.203 5.403.311 1.783-1.681 5.162-1.681 5.162s9.964-2.515 15.008-3.481c1.424-.273 3.133.449 3.362 1.68.227 1.226-1.302 2.508-2.522 2.762-3.071.64-6.723 1.32-6.723 1.32s1.303 1.145 1.32 1.922c.025 1.132-1.8 2.881-1.8 2.881s1.546.71 1.56 1.801c.029 2.184-2.04 2.761-2.04 2.761s1.309.374 1.08 1.801c-.132.823-1.272 1.122-2.041 1.441-.863.358-1.844.307-2.762.48-1.766.335-3.485 1.042-5.282 1.081-3.798.083-7.445-2.312-8.285-5.523zM109.71 120.57c-2.693-10.297 4.659-11.975 5.163-17.289.22-2.326-.115-3.775 1.44-4.202 2.2-.605 3.81 3.155 4.203 5.403.311 1.782-1.681 5.162-1.681 5.162s9.964-2.515 15.008-3.482c1.424-.272 3.133.45 3.361 1.681.228 1.226-1.3 2.508-2.52 2.762-3.072.64-6.724 1.32-6.724 1.32s1.303 1.145 1.32 1.921c.025 1.133-1.8 2.882-1.8 2.882s1.546.71 1.56 1.801c.029 2.184-2.04 2.761-2.04 2.761s1.309.373 1.08 1.801c-.132.823-1.272 1.122-2.041 1.441-.863.358-1.844.307-2.762.48-1.766.334-3.485 1.041-5.282 1.08-3.798.084-7.445-2.311-8.285-5.522z" style="fill:#f8c18c;stroke-width:.83482"/><path d="M101.91 98.484s1.836 2.159 4.16 3.226c2.495 1.146 5.518 1.104 5.518 1.104" style="fill:#c39a54;stroke-linecap:round;stroke-linejoin:round;stroke-width:2.5045;stroke:#c39a54"/><ellipse cx="101.23" cy="88.042" rx="3.141" ry="3.905" style="fill:#c39a54;paint-order:stroke fill markers;stroke-width:.83482"/><path d="M96.055 80.655s2.945-1.062 5.688-1.019c2.72.043 5.179 1.359 5.179 1.359" style="fill:none;stroke-linecap:round;stroke-linejoin:round;stroke-width:2.5045;stroke:#c39a54"/><ellipse cx="118.13" cy="88.042" rx="3.141" ry="3.905" style="fill:#c39a54;paint-order:stroke fill markers;stroke-width:.83482"/><path d="M112.95 80.655s2.945-1.062 5.688-1.019c2.72.043 5.179 1.359 5.179 1.359" style="fill:none;stroke-linecap:round;stroke-linejoin:round;stroke-width:2.5045;stroke:#c39a54"/></svg>