<svg xmlns="http://www.w3.org/2000/svg" id="svg2" width="192" height="192" version="1.1"><defs id="defs4"><mask id="mask0-36" width="105" height="152" x="44" y="20" mask-type="alpha" maskUnits="userSpaceOnUse"><rect id="rect955-7" width="105" height="152" x="44" y="20" fill="#fff" rx="10"/></mask></defs><g id="layer1" transform="translate(0 -860.362)"><rect id="rect1126" width="105" height="152" x="43.5" y="880.363" fill="#9abeff" rx="10"/><g id="g1130" mask="url(#mask0-36)" style="fill:none" transform="translate(-.5 860.363)"><path id="rect1128" fill="#728dbe" d="M44 20h16v152H44z"/></g><path id="path1132" fill="#fff" stroke="#ff837d" stroke-width="5" d="M129 956.363c0 14.636-11.864 26.5-26.5 26.5S76 970.999 76 956.363s11.864-26.5 26.5-26.5 26.5 11.864 26.5 26.5z"/><path id="path1134" d="m126.18 880.362 22.32 47.147v-37.147c0-5.54-4.46-10-10-10z" style="fill:#fff;fill-opacity:1"/><path id="path1136" d="m126.181 880.363 22.32 47.146-28.732-23.546a9.978 9.978 0 0 1-1.396-14.073z" style="fill:#728dbe;fill-opacity:1"/><g id="g1144" style="fill:#575a5c;fill-opacity:1" transform="matrix(1.15229 0 0 1.15229 -724.251 -162.049)"><path id="path1138" d="m717.123 957.2-1.879.03.082.956c.041.516.081 1.16.082 1.433v3.359h-8.32l.03 1.745.028 2.136.654-.068c1.482-.136 10.323-.175 14.682-.068 2.496.068 4.754.136 4.98.156.369.039.426-.586.426-2.127v-1.774l-4.314.039c-2.048.02-3.761 0-3.967-.03l-.36-.068.032-4.334c.03-1.248.01-1.452-.124-1.433-.082.01-.995.039-2.032.049z" style="fill:#575a5c;fill-opacity:1;stroke:none;stroke-width:.00975117"/><path id="path1140" d="M720.835 969.34c-1.015 4.066-3.423 10.031-3.832 10.704l-.186.302-1.687.03c-1.95.03-7.758-.088-8.05-.156-.186-.05-.196.265-.196 2.02v1.814l.488-.059c.273-.029 3.907-.087 9.484-.117l11.235-.068v-3.697l-.828.068c-.459.03-2.996.068-4.302.068-1.863.01-2.36-.02-2.321-.117.03-.059.214-.488.41-.946.633-1.482 4.075-10.334 3.958-10.441-.039-.04-3.179-.917-3.559-1.005-.195-.039-.234.069-.614 1.6z" style="fill:#575a5c;fill-opacity:1;stroke:none;stroke-width:.00975117"/><path id="path1142" d="m713.002 967.734-3.527 1.263c1.407 2.807 2.603 6.306 3.57 10.451l3.577-1.008c-.884-3.876-2.1-7.423-3.62-10.706z" style="fill:#575a5c;fill-opacity:1"/></g></g><style id="style853" type="text/css">.st0{fill:#fff}</style></svg>