<svg width="192" height="192" viewBox="0 0 192 192" fill="none" xmlns="http://www.w3.org/2000/svg">
<g clip-path="url(#clip0)">
<g clip-path="url(#clip1)">
<path fill-rule="evenodd" clip-rule="evenodd" d="M173 29V162C173 167.52 168.52 172 163 172H30C24.48 172 20 167.52 20 162V29C20 23.47 24.47 19 30 19H163C168.52 19 173 23.47 173 29Z" fill="#D47564"/>
<path d="M66.38 123.63C61.45 123.63 57.45 119.63 57.45 114.71V91.75C57.45 86.82 61.45 82.83 66.37 82.83C71.3 82.83 75.29 86.83 75.29 91.75V114.7C75.3 119.63 71.31 123.63 66.38 123.63Z" fill="#56595B"/>
<path d="M62.92 102.35C60.81 102.35 59.09 100.64 59.09 98.53V90.88C59.09 88.77 60.8 87.06 62.91 87.06C65.02 87.06 66.73 88.77 66.73 90.88V98.53C66.75 100.64 65.04 102.35 62.92 102.35Z" fill="white"/>
<path d="M126.62 123.63C121.69 123.63 117.69 119.63 117.69 114.71V91.75C117.69 86.82 121.69 82.83 126.61 82.83C131.54 82.83 135.53 86.83 135.53 91.75V114.7C135.55 119.63 131.55 123.63 126.62 123.63Z" fill="#56595B"/>
<path d="M123.17 102.35C121.06 102.35 119.34 100.64 119.34 98.53V90.88C119.34 88.77 121.05 87.06 123.16 87.06C125.27 87.06 126.98 88.77 126.98 90.88V98.53C126.99 100.64 125.28 102.35 123.17 102.35Z" fill="white"/>
<path d="M173 138.12V162C173 167.52 168.52 172 163 172H30C24.48 172 20 167.52 20 162V138.12C23.95 137.21 28.31 136.48 33.02 136.08C50.79 134.56 64.25 138.51 70.45 140.39C75.09 141.8 79.45 143.49 83.56 145.41C88.21 147.55 92.53 149.97 96.51 152.52C100.49 149.96 104.81 147.55 109.46 145.41C113.57 143.5 117.93 141.81 122.57 140.39C128.77 138.51 142.22 134.56 160 136.08C164.69 136.48 169.05 137.21 173 138.12Z" fill="#FCECDC"/>
<path d="M109.61 143.1C109.32 140.58 107.48 137.76 104.78 137.07C102.03 136.36 99.57 138.17 98.09 139.26C97.49 139.71 96.96 140.18 96.5 140.66C96.04 140.18 95.51 139.71 94.91 139.26C93.43 138.16 90.97 136.35 88.22 137.07C85.53 137.77 83.68 140.59 83.39 143.1C83.3 143.9 83.36 144.66 83.55 145.4C84.4 148.83 87.83 151.55 90.02 153.3C92.25 155.07 94.52 156.21 96.5 156.95C98.47 156.21 100.74 155.06 102.98 153.3C105.16 151.56 108.6 148.83 109.45 145.4C109.63 144.66 109.7 143.9 109.61 143.1Z" fill="#56595B"/>
</g>
</g>
<defs>
<clipPath id="clip0">
<rect width="192" height="192" fill="white"/>
</clipPath>
<clipPath id="clip1">
<rect width="153" height="153" fill="white" transform="translate(20 19)"/>
</clipPath>
</defs>
</svg>
