<svg xmlns="http://www.w3.org/2000/svg" viewBox="0 0 192 192"><rect width="153" height="153" x="19.5" y="19.5" rx="10" style="fill:#bd9aff"/><path d="M79.64 87.81a19.82 19.82 0 0 1-5 .92 3.5 3.5 0 0 1-3.12-1.38c-.9-1.25-1-2-1-5.9V57c0-.38.76-.92 1.19-1h-7.22v9.33h-4.91v4.91h4.91V82c.09 5.2 1.22 7.19 2.66 8.81a9.56 9.56 0 0 0 7.32 2.94 17.39 17.39 0 0 0 6.25-1.19Z" style="fill:#fff"/><path d="M71 69.69h4.59c3.28 0 4.57-3.09 4.89-4.35h-4.54c-2.63 0-4.16 2.04-4.94 4.35Z" style="fill:#98dc9a"/><path d="M91.25 81.22h4.59c3.27 0 4.56-3.09 4.88-4.35h-4.56c-2.63 0-4.16 2.04-4.91 4.35Z" style="fill:#ff837d"/><path d="M109.47 81.22h4.59c3.27 0 4.56-3.09 4.88-4.35h-4.56c-2.63 0-4.15 2.04-4.91 4.35Z" style="fill:#f9de81"/><path d="M106.08 91.32c-1.36 1-5.62 2.43-10.13 2.43-10.18 0-14.18-7.56-14.18-14.18 0-4.53 2.1-14.18 14.18-14.18A10.4 10.4 0 0 1 106.56 76a10.08 10.08 0 0 1-1.39 5.23h-9.33c3.27 0 4.57-3.09 4.88-4.35s-.45-6.69-5.41-6.69c-5.19 0-7.81 5-7.81 9.34 0 5.75 3.46 9.57 8.79 9.57 4.71-.01 7.54-2.36 9.79 2.22ZM116.47 80.53c-1.37 1.11-2.43 2-2.43 4.07a4.25 4.25 0 0 0 4.39 4.4c2.93 0 6.85-2.45 6.85-5.29v-7.33c0-1.88-.91-4.32-2.3-5.17a7.53 7.53 0 0 0-4.31-1c-1.65 0-3.08.38-4.43.38a4.4 4.4 0 0 1-4.07-2.87c1-.76 5.22-2.32 9.38-2.32 7 0 11.91 4.32 11.91 11.34v9.06a33.07 33.07 0 0 0 1 7.65c-3 .17-5.56.81-6.69-2.94a11.39 11.39 0 0 1-8.38 3.25c-6.12 0-8.55-4.08-8.55-8.22a12.84 12.84 0 0 1 .67-4.32h4.59a4.36 4.36 0 0 0 2.37-.69ZM65.49 136V99.24c0-.38.75-.92 1.18-1h-7.25V136ZM77.3 136v-27.37c0-.38.75-.92 1.18-1h-7.24V136ZM122.31 131.34c-5.33 0-8.79-3.83-8.79-9.58 0-4.35 2.62-9.33 7.81-9.33 5 0 5.69 5.5 5.4 6.68h-4.64c-2.54 0-4.07 2-4.83 4.36h13.92a10 10 0 0 0 1.4-5.23 10.41 10.41 0 0 0-10.58-10.6c-12.07 0-14.18 9.65-14.18 14.18 0 6.62 4 14.17 14.18 14.17 4.52 0 8.77-1.44 10.14-2.42-2.3-4.57-5.14-2.23-9.83-2.23ZM100.88 107.55l-6.52 19.36-7-19.36h-5.81l10 27.43c-.25.54-.48 1-.48 1h3.65c1.55 0 2-1 2.47-2.29 0-.11.09-.23.14-.36l9.18-24.77a2.62 2.62 0 0 1 1.39-1Z" style="fill:#fff"/><path d="M77.32 101.33a3.08 3.08 0 1 1-3.08-3.08 3.08 3.08 0 0 1 3.08 3.08Z" style="fill:#96dfd3"/></svg>