<svg width="192" height="192" viewBox="0 0 192 192" fill="none" xmlns="http://www.w3.org/2000/svg">
<g clip-path="url(#clip0)">
<g clip-path="url(#clip1)">
<path d="M96.11 172C138.144 172 172.22 159.67 172.22 144.46C172.22 129.25 138.144 116.92 96.11 116.92C54.0756 116.92 20 129.25 20 144.46C20 159.67 54.0756 172 96.11 172Z" fill="#9ABEFF"/>
<path d="M96.11 164.12C132.08 164.12 161.24 154.422 161.24 142.46C161.24 130.498 132.08 120.8 96.11 120.8C60.1397 120.8 30.98 130.498 30.98 142.46C30.98 154.422 60.1397 164.12 96.11 164.12Z" fill="#728DBE"/>
<path d="M135.09 120.07C134.79 120.22 137.38 124.47 138.35 130.63C138.68 132.74 138.74 134.51 138.74 135.71C138.87 138.51 138.75 142.14 137.82 146.23C137.31 148.5 136.64 150.5 135.95 152.2C135.68 152.52 135.25 152.98 134.59 153.44C132.74 130.13 131.29 120.44 130.14 118.16C130.11 118.12 129.97 117.83 129.78 117.42C129.17 116.12 128.05 113.42 127.52 109.9C127.44 109.39 127.38 108.88 127.35 108.37C128.16 107.14 128.82 106.08 129.32 105.26C130.87 102.71 132.62 99.8 134.27 96.4C135.84 93.15 137.32 89.45 138.43 85.17C138.46 85.02 139.06 82.72 139.51 80.17C139.57 81.69 139.63 83.23 139.69 84.76C146.12 72.61 148.78 70.53 150.01 70.93C153.14 71.98 150.34 90.32 146.41 103.98C143.82 113 140.7 120.15 138.37 124.91C135.91 120.82 135.23 119.99 135.09 120.07Z" fill="#56595B"/>
<path d="M134.59 153.44C131.53 158.84 125.49 161.59 121.19 163.02C114.26 164.24 105.91 165.18 96.45 165.2C86.7 165.22 78.12 164.26 71.04 163.02C69.25 162.53 66.69 161.5 63.87 159.72C61.44 158.18 59.17 156.14 57.64 153.44C59.49 130.13 60.94 120.44 62.09 118.16C62.12 118.12 62.26 117.83 62.45 117.42C63.06 116.12 64.18 113.42 64.71 109.9C64.79 109.39 64.85 108.88 64.88 108.37C65.41 109.18 66.01 110.07 66.67 111.01C67.69 107.78 68.64 103.04 67.5 97.74C66.09 91.18 62.7 89.58 62.41 83.54C62.15 78.18 64.46 71.91 68.11 70.94C69.52 70.57 70.19 71.24 74.13 72.76C80.86 75.37 82.18 74.69 86.84 76.68C89.2 77.7 92.5 79.45 96.11 82.56C99.72 79.45 103.02 77.7 105.38 76.68C110.04 74.68 111.36 75.37 118.09 72.76C122.03 71.23 122.7 70.57 124.11 70.94C127.76 71.91 130.06 78.18 129.81 83.54C129.52 89.59 126.13 91.18 124.72 97.74C123.58 103.04 124.53 107.78 125.55 111.01C126.21 110.07 126.81 109.18 127.34 108.37C127.37 108.88 127.43 109.39 127.51 109.9C128.04 113.42 129.16 116.12 129.77 117.42C129.96 117.82 130.1 118.11 130.13 118.16C131.29 120.44 132.74 130.13 134.59 153.44Z" fill="white"/>
<path d="M120.14 75.02C123.02 75.15 124.96 77.31 125.34 77.73C128.12 80.82 128.52 85.81 126.34 90.5C125.04 89.88 122.54 88.89 119.26 88.89C116.05 88.89 113.59 89.83 112.3 90.44C111.69 89.45 110.83 87.72 110.81 85.52C110.74 80.34 115.36 74.8 120.14 75.02Z" fill="#56595B"/>
<path d="M112.29 90.44C112.74 91.06 113.47 91.91 114.56 92.68C116.93 94.35 121.17 95.7 124.09 93.62C124.64 93.23 125.68 92.34 126.33 90.5C125.03 89.88 122.75 89 119.77 88.9C116.31 88.79 113.64 89.81 112.29 90.44Z" fill="#BD9AFF"/>
<path d="M116.66 77.76C117.61 77.68 118.52 78.51 118.48 79.47C118.45 80.23 117.85 80.88 117.1 81.02C116.28 81.17 115.44 80.69 115.19 79.94C114.88 78.98 115.63 77.85 116.66 77.76Z" fill="white"/>
<path d="M106.57 90.88C104.66 94.59 101.74 98.56 97.24 101.41C96.86 101.65 96.49 101.88 96.11 102.09C95.73 101.88 95.36 101.65 94.98 101.41C90.48 98.56 87.56 94.59 85.65 90.88C85.86 90.14 86.14 89.5 86.44 88.94C88.91 84.29 94.36 82.93 96.11 82.56C97.87 82.93 103.32 84.29 105.78 88.94C106.08 89.5 106.36 90.14 106.57 90.88Z" fill="#F8C18C"/>
<path d="M100.13 97.01C100.2 96.93 100.27 96.86 100.34 96.8V96.79C100.99 96.13 101.59 95.48 102.15 94.85C102.08 94.58 101.42 92.31 99.06 91.33C98.13 90.94 97.25 90.89 96.52 90.97C97.41 90.22 98.64 89.56 100.19 89.48C100.6 89.45 103.33 89.33 103.96 90.68C104.63 92.17 102.43 94.77 100.13 97.01Z" fill="#511119"/>
<path d="M57.13 120.07C57.43 120.22 54.84 124.47 53.87 130.63C53.54 132.74 53.48 134.51 53.48 135.71C53.35 138.51 53.47 142.14 54.4 146.23C54.91 148.5 55.58 150.5 56.27 152.2C56.54 152.52 56.97 152.98 57.63 153.44C59.48 130.13 60.93 120.44 62.08 118.16C62.11 118.12 62.25 117.83 62.44 117.42C63.05 116.12 64.17 113.42 64.7 109.9C64.78 109.39 64.84 108.88 64.87 108.37C64.06 107.14 63.4 106.08 62.9 105.26C61.35 102.71 59.6 99.8 57.95 96.4C56.38 93.15 54.9 89.45 53.79 85.17C53.76 85.02 53.16 82.72 52.71 80.17C52.65 81.69 52.59 83.23 52.53 84.76C46.1 72.61 43.44 70.53 42.21 70.93C39.08 71.98 41.88 90.32 45.81 103.98C48.4 113 51.52 120.15 53.85 124.91C56.32 120.82 56.99 119.99 57.13 120.07Z" fill="#56595B"/>
<path d="M137.44 49.18C135.55 46.27 132.15 42.07 126.6 39.31C125.37 38.7 124.18 38.23 123.05 37.86C124.18 40.46 125.31 43.05 126.45 45.65C126.06 46.87 125.42 48.47 124.33 50.17C123.31 51.76 122.21 52.95 121.31 53.79C118.75 52.15 116.91 50.88 115.56 49.9C114.57 49.17 113.4 48.3 111.67 48.04C110.56 47.89 110.37 48.14 109.62 47.99C107.47 47.56 105.67 44.78 105.41 42.19C105.02 38.06 108.64 35.4 108.81 35.28C108.05 33.14 106.83 30.43 104.86 27.59C104.53 27.11 104.19 26.66 103.84 26.22C103.75 26.1 103.66 25.99 103.57 25.88C103.29 25.54 103.02 25.2 102.74 24.88C102.66 24.79 102.58 24.69 102.5 24.6C102.23 24.3 101.96 24.01 101.7 23.73C99.68 21.59 97.67 20.04 96.11 19C94.55 20.04 92.54 21.59 90.5 23.73C90.23 24.01 89.96 24.3 89.7 24.6C89.62 24.69 89.54 24.79 89.46 24.88C89.18 25.2 88.9 25.53 88.63 25.88C88.54 25.99 88.45 26.11 88.36 26.22C88.02 26.66 87.68 27.11 87.34 27.59C85.37 30.43 84.15 33.13 83.39 35.28C83.56 35.41 87.19 38.06 86.79 42.19C86.53 44.78 84.73 47.56 82.58 47.99C81.83 48.14 81.64 47.89 80.53 48.04C78.8 48.3 77.63 49.17 76.64 49.9C75.29 50.88 73.45 52.15 70.89 53.79C69.99 52.96 68.89 51.77 67.87 50.17C66.78 48.47 66.14 46.86 65.75 45.65C66.89 43.05 68.02 40.46 69.15 37.86C68.02 38.23 66.83 38.7 65.6 39.31C60.06 42.07 56.66 46.27 54.76 49.18C52.66 57.24 50.71 68.77 52.69 80.16C53.14 82.71 53.74 85.02 53.77 85.16C54.88 89.44 56.37 93.14 57.93 96.39C59.58 99.79 61.33 102.7 62.88 105.25C63.39 106.07 64.05 107.13 64.85 108.36C65.38 109.17 65.98 110.06 66.64 111C67.66 107.77 68.61 103.03 67.47 97.73C66.06 91.17 62.67 89.57 62.38 83.53C62.12 78.17 64.43 71.9 68.08 70.93C69.49 70.56 70.16 71.23 74.1 72.75C80.83 75.36 82.15 74.68 86.81 76.67C89.17 77.69 92.46 79.43 96.07 82.54L96.08 82.55L96.09 82.54C99.7 79.43 102.99 77.69 105.35 76.67C110.01 74.67 111.33 75.36 118.06 72.75C122 71.22 122.67 70.56 124.08 70.93C127.73 71.9 130.03 78.17 129.78 83.53C129.49 89.58 126.1 91.17 124.69 97.73C123.55 103.03 124.5 107.77 125.52 111C126.18 110.06 126.78 109.17 127.31 108.36C128.12 107.13 128.78 106.07 129.28 105.25C130.83 102.7 132.58 99.79 134.23 96.39C135.8 93.14 137.28 89.44 138.39 85.16C138.42 85.01 139.02 82.71 139.47 80.16C141.49 68.77 139.54 57.25 137.44 49.18Z" fill="#B1B5BD"/>
<path d="M105.43 57.8C103.83 60.04 102.17 62.61 100.55 65.51C98.67 68.89 97.25 72.08 96.11 74.96C94.97 72.08 93.56 68.89 91.67 65.51C90.05 62.61 88.39 60.04 86.79 57.8C87.49 56.78 88.19 55.7 88.85 54.57C93.43 46.82 95.35 38.99 96.11 32.52C96.86 39 98.78 46.82 103.37 54.57C104.04 55.7 104.73 56.78 105.43 57.8Z" fill="#F9DE81"/>
<path d="M72.08 75.02C69.2 75.15 67.26 77.31 66.88 77.73C64.1 80.82 63.7 85.81 65.88 90.5C67.18 89.88 69.68 88.89 72.96 88.89C76.17 88.89 78.63 89.83 79.92 90.44C80.53 89.45 81.39 87.72 81.41 85.52C81.48 80.34 76.87 74.8 72.08 75.02Z" fill="#56595B"/>
<path d="M79.93 90.44C79.48 91.06 78.75 91.91 77.66 92.68C75.29 94.35 71.05 95.7 68.13 93.62C67.58 93.23 66.54 92.34 65.89 90.5C67.19 89.88 69.47 89 72.45 88.9C75.91 88.79 78.58 89.81 79.93 90.44Z" fill="#BD9AFF"/>
<path d="M75.5701 77.76C74.6201 77.68 73.7101 78.51 73.7501 79.47C73.7801 80.23 74.3801 80.88 75.1301 81.02C75.9501 81.17 76.7901 80.69 77.0401 79.94C77.3401 78.98 76.6001 77.85 75.5701 77.76Z" fill="white"/>
<path d="M92.09 97.01C92.02 96.93 91.95 96.86 91.88 96.8V96.79C91.23 96.13 90.63 95.48 90.07 94.85C90.14 94.58 90.8 92.31 93.16 91.33C94.09 90.94 94.97 90.89 95.7 90.97C94.81 90.22 93.58 89.56 92.03 89.48C91.62 89.45 88.89 89.33 88.26 90.68C87.6 92.17 89.79 94.77 92.09 97.01Z" fill="#511119"/>
<path d="M102.14 94.85C101.58 95.48 100.98 96.13 100.33 96.79C100.21 96.46 99.66 95.04 98.18 94.37C97.53 94.07 96.82 93.97 96.11 94.04C95.4 93.96 94.69 94.07 94.04 94.37C92.56 95.04 92.01 96.46 91.89 96.79C91.24 96.13 90.64 95.48 90.08 94.85C90.15 94.58 90.81 92.31 93.17 91.33C94.1 90.94 94.98 90.89 95.71 90.97C95.86 91.08 95.98 91.2 96.1 91.31C96.22 91.2 96.35 91.08 96.49 90.97C97.23 90.89 98.11 90.94 99.03 91.33C101.42 92.3 102.08 94.57 102.14 94.85Z" fill="#F4806D"/>
<path d="M100.34 96.78C100.27 96.86 100.2 96.93 100.13 97C100.09 97.03 100.04 97.08 100 97.12C99.92 97.2 99.85 97.28 99.75 97.37C99.6 97.52 99.43 97.68 99.27 97.82C98.51 98.52 97.78 99.17 97.17 99.7C96.79 100.03 96.45 100.34 96.11 100.63C95.77 100.35 95.42 100.04 95.05 99.7C94.44 99.17 93.71 98.52 92.95 97.82C92.79 97.67 92.62 97.52 92.47 97.37C92.38 97.28 92.3 97.2 92.22 97.12C92.18 97.08 92.13 97.03 92.09 97C92.02 96.92 91.95 96.85 91.88 96.79V96.78C92 96.45 92.55 95.03 94.03 94.36C94.68 94.06 95.39 93.96 96.1 94.03C96.81 93.95 97.52 94.06 98.17 94.36C99.67 95.04 100.22 96.46 100.34 96.78Z" fill="#F58F8A"/>
</g>
</g>
<defs>
<clipPath id="clip0">
<rect width="192" height="192" fill="white"/>
</clipPath>
<clipPath id="clip1">
<rect width="152.22" height="153" fill="white" transform="translate(20 19)"/>
</clipPath>
</defs>
</svg>
