<?xml version="1.0" encoding="UTF-8" standalone="no"?>
<svg
   xmlns:dc="http://purl.org/dc/elements/1.1/"
   xmlns:cc="http://creativecommons.org/ns#"
   xmlns:rdf="http://www.w3.org/1999/02/22-rdf-syntax-ns#"
   xmlns:svg="http://www.w3.org/2000/svg"
   xmlns="http://www.w3.org/2000/svg"
   xmlns:sodipodi="http://sodipodi.sourceforge.net/DTD/sodipodi-0.dtd"
   xmlns:inkscape="http://www.inkscape.org/namespaces/inkscape"
   sodipodi:docname="tele_quebec.svg"
   inkscape:version="1.0.1 (3bc2e813f5, 2020-09-07)"
   version="1.1"
   id="svg2"
   viewBox="0 0 192 192"
   height="192"
   width="192"
   inkscape:export-filename="/home/jphilippe/inkscape/icônes/delta-github/png/tele_quebec.png"
   inkscape:export-xdpi="96"
   inkscape:export-ydpi="96">
  <sodipodi:namedview
     inkscape:document-rotation="0"
     inkscape:window-maximized="1"
     inkscape:window-y="30"
     inkscape:window-x="1920"
     inkscape:window-height="1022"
     inkscape:window-width="1680"
     units="px"
     showgrid="false"
     inkscape:current-layer="layer1"
     inkscape:document-units="px"
     inkscape:cy="351.9013"
     inkscape:cx="-67.704061"
     inkscape:zoom="0.50000001"
     inkscape:pageshadow="2"
     inkscape:pageopacity="0.0"
     borderopacity="1.0"
     bordercolor="#666666"
     pagecolor="#ffffff"
     id="base"
     inkscape:snap-bbox="false"
     inkscape:object-paths="true"
     inkscape:snap-nodes="true"
     showguides="true"
     inkscape:guide-bbox="true"
     inkscape:snap-object-midpoints="true"
     inkscape:snap-center="true"
     inkscape:snap-global="false"
     inkscape:snap-intersection-paths="true"
     inkscape:snap-smooth-nodes="true"
     inkscape:snap-midpoints="true" />
  <defs
     id="defs4" />
  <metadata
     id="metadata7">
    <rdf:RDF>
      <cc:Work
         rdf:about="">
        <dc:format>image/svg+xml</dc:format>
        <dc:type
           rdf:resource="http://purl.org/dc/dcmitype/StillImage" />
        <dc:title />
      </cc:Work>
    </rdf:RDF>
  </metadata>
  <g
     transform="translate(0,-860.36216)"
     id="layer1"
     inkscape:groupmode="layer"
     inkscape:label="Calque 1">
    <circle
       style="fill:#99bdfe;fill-opacity:1;fill-rule:evenodd;stroke:none;stroke-opacity:1"
       cx="96"
       cy="956.36218"
       r="88"
       id="circle962" />
    <path
       id="path985"
       style="fill:#ffffff;fill-opacity:1;stroke-width:0.445214"
       d="m 108.31992,975.71612 -3.42815,-1.60278 C 100.12798,971.57562 93.761426,968.59268 85.881138,965.6988 75.730257,962.00352 66.60337,959.55484 60.90463,958.53085 l 18.832554,-23.37373 c 4.407619,-0.17809 11.664608,-0.53426 21.860006,0.17808 l 10.15089,1.02399 c 8.90427,1.24661 16.42839,3.16103 20.83601,4.14049 z m 8.50359,-44.25428 -13.04477,-1.38017 c -11.504491,-0.85218 -20.076927,-0.5248 -25.863917,-0.30804 -1.329349,0.0498 -3.067854,0.93816 -3.882847,1.99005 l -21.401859,27.62288 c -0.814993,1.05189 -0.415021,2.10222 0.886186,2.38053 7.383908,1.57931 18.110444,4.65854 29.916157,9.14071 10.195402,3.9624 18.43186,7.92481 24.57582,11.35296 l 2.14438,1.24149 a 2.558391,2.558391 0 0 0 3.41514,-0.80187 l 28.9057,-43.66431 c 0.73452,-1.10957 0.27529,-2.23572 -1.02148,-2.53412 -5.9137,-1.36084 -14.57144,-3.55885 -24.62851,-5.04011" />
    <path
       id="path987"
       style="fill:#ffffff;fill-opacity:1;stroke-width:0.445214"
       d="m 95.942975,958.39729 c -22.093022,-4.00947 -41.065487,-10.80113 -48.867278,-16.91998 -1.046232,-0.82054 -0.800441,-1.19031 0.440298,-0.70948 11.986353,4.64513 28.926255,9.2563 47.714638,12.68759 19.437257,3.57945 36.851187,5.09663 48.749627,4.58795 1.32941,-0.0569 1.55407,0.55449 0.34208,1.09389 -7.51186,3.34319 -26.28419,3.27004 -48.379365,-0.73997 z" />
    <path
       id="path989"
       style="fill:#ffffff;fill-opacity:1;stroke-width:0.445214"
       d="m 94.295683,964.94193 c -21.97079,-4.37779 -40.82088,-11.4627 -48.534145,-17.69583 -1.034168,-0.83571 -0.783193,-1.20208 0.45027,-0.70287 11.939898,4.83231 28.798022,9.774 47.505097,13.45683 19.315185,3.78811 36.684275,5.59121 48.613655,5.33651 1.33032,-0.0284 1.54476,0.59232 0.32422,1.11221 -7.57379,3.22601 -26.34061,2.86476 -48.359097,-1.50685 z" />
    <path
       class="st1"
       d="m 92.559348,950.38344 c -2.582241,-2.62677 -2.003463,-7.34604 1.2466,-10.55158 3.250062,-3.20554 7.969332,-3.65075 10.551572,-1.11303 2.58224,2.62676 2.00347,7.34602 -1.2466,10.55157 -3.250062,3.25006 -7.96933,3.7398 -10.551572,1.11304"
       id="path991"
       style="fill:#ffffff;fill-opacity:1;stroke-width:0.445214" />
  </g>
  <style
     type="text/css"
     id="style853">
	.st0{fill:#FFFFFF;}
</style>
  <style
     type="text/css"
     id="style853-9">
	.st0{fill:#FFFFFF;}
</style>
  <style
     type="text/css"
     id="style853-3">
	.st0{fill:#FFFFFF;}
</style>
  <style
     type="text/css"
     id="style909">
	.st0{fill:#2170B8;}
	.st1{fill:#FFFFFF;}
</style>
</svg>
