<svg xmlns="http://www.w3.org/2000/svg" id="svg2" width="192" height="192" version="1.1"><g id="layer1" transform="translate(0 -860.362)"><rect id="rect818" width="153" height="153" x="19.5" y="879.862" ry="10" style="opacity:1;vector-effect:none;fill:#f9de81;fill-opacity:1;stroke-width:4;paint-order:stroke fill markers"/><rect id="rect820" width="128.842" height="128.842" x="31.579" y="891.941" ry="6.039" style="opacity:1;vector-effect:none;fill:#c39a54;fill-opacity:1;stroke-width:4.02631569;paint-order:stroke fill markers"/><path id="path904-6" d="M37.618 891.94c-.148 0-.286.041-.432.05a28.184 28.184 0 0 0-5.269 4.08c-.202.604-.338 1.237-.338 1.91v37.802a28.184 28.184 0 0 0 20.132 8.5A28.184 28.184 0 0 0 79.895 916.1a28.184 28.184 0 0 0-13.73-24.158zm88.218 0a28.184 28.184 0 0 0-13.73 24.159 28.184 28.184 0 0 0 28.183 28.184 28.184 28.184 0 0 0 20.132-8.5V897.98c0-.673-.136-1.306-.338-1.91a28.184 28.184 0 0 0-5.269-4.082c-.146 0-.284-.048-.432-.048z" style="opacity:1;vector-effect:none;fill:#8e6f60;fill-opacity:1;stroke-width:4.33603239;paint-order:stroke fill markers"/><path id="rect1035" d="M47.684 980.52h92.605v40.263H47.684z" style="opacity:1;vector-effect:none;fill:#4a4a4a;fill-opacity:1;stroke-width:4.02631569;paint-order:stroke fill markers"/><path id="path835" d="M96 968.44v20.132s0 8.053 10.066 8.053 10.066-8.053 10.066-8.053v-20.131z" style="fill:#f9de81;stroke-width:4.02631569"/><path id="path835-3" d="M116.132 968.44v20.132s0 8.053 6.039 8.053c6.04 0 6.04-8.053 6.04-8.053v-20.131z" style="fill:#f9de81;stroke-width:4.02631569"/><path id="path835-3-6" d="M128.21 968.44V992.6s0 6.585 4.027 6.585c4.026 0 4.026-6.585 4.026-6.585V968.44z" style="fill:#f9de81;stroke-width:4.02631569"/><path id="path896" d="M87.947 936.23s-16.105 0-16.105 16.106c0 8.052 4.026 8.052 4.026 8.052h40.264s4.026 0 4.026-8.052c0-16.106-16.105-16.106-16.105-16.106H96Z" style="opacity:1;fill:#f9de81;stroke-width:4.02631569"/><path id="path914" d="M79.895 948.31s-6.982.088-7.88 6.7c.775 5.377 3.853 5.378 3.853 5.378h40.264s3.078 0 3.853-5.379c-.898-6.612-7.88-6.7-7.88-6.7H91.974Z" style="fill:#8e6f60;stroke-width:4.02631569"/><path id="path934" d="M81.908 952.336a6.04 4.026 0 0 0-6.04 4.026 6.04 4.026 0 0 0 6.04 4.026 6.04 4.026 0 0 0 6.04-4.026 6.04 4.026 0 0 0-6.04-4.026zm28.184 0a6.04 4.026 0 0 0-6.04 4.026 6.04 4.026 0 0 0 6.04 4.026 6.04 4.026 0 0 0 6.04-4.026 6.04 4.026 0 0 0-6.04-4.026z" style="opacity:1;vector-effect:none;fill:#4a4a4a;fill-opacity:1;stroke-width:4.02631569;paint-order:stroke fill markers"/><path id="path873" d="M96 1016.757s0-8.053 8.053-8.053c8.052 0 8.052 8.053 8.052 8.053v4.026H96Z" style="fill:#c39a54;stroke-width:4.02631569"/><path id="path873-7" d="M112.105 1016.757s0-6.04 8.053-6.04 8.053 10.066 8.053 10.066v4.026l-16.106-4.026z" style="fill:#c39a54;stroke-width:4.02631569"/><path id="path873-5" d="M128.21 1020.783s0-8.053 8.053-8.053 8.053 8.053 8.053 8.053v4.026H128.21z" style="fill:#c39a54;stroke-width:4.02631569"/><path id="path898" d="M87.947 891.94s-4.026 10.55-4.026 48.317c0 12.079 8.053 16.105 12.079 16.105s12.079-4.026 12.079-16.105c0-37.766-4.026-48.316-4.026-48.316H96Z" style="fill:#f9de81;stroke-width:4.02631569"/><path id="path908" d="M55.737 895.967A20.132 20.132 0 0 0 35.605 916.1a20.132 20.132 0 0 0 20.132 20.131A20.132 20.132 0 0 0 75.868 916.1a20.132 20.132 0 0 0-20.131-20.132zm80.526 0a20.132 20.132 0 0 0-20.131 20.132 20.132 20.132 0 0 0 20.131 20.131 20.132 20.132 0 0 0 20.132-20.131 20.132 20.132 0 0 0-20.132-20.132z" style="opacity:1;vector-effect:none;fill:#f9de81;fill-opacity:1;stroke-width:4.47368383;paint-order:stroke fill markers"/><path id="path910" d="M55.737 904.02a12.079 12.079 0 0 0-12.08 12.079 12.079 12.079 0 0 0 12.08 12.079 12.079 12.079 0 0 0 12.079-12.08 12.079 12.079 0 0 0-12.08-12.078zm80.526 0a12.079 12.079 0 0 0-12.079 12.079 12.079 12.079 0 0 0 12.08 12.079 12.079 12.079 0 0 0 12.078-12.08 12.079 12.079 0 0 0-12.079-12.078z" style="opacity:1;vector-effect:none;fill:#4a4a4a;fill-opacity:1;stroke-width:4.83157921;paint-order:stroke fill markers"/><path id="path936" d="M55.737 908.046a8.053 8.053 0 0 0-8.053 8.053 8.053 8.053 0 0 0 8.053 8.052 8.053 8.053 0 0 0 8.052-8.052 8.053 8.053 0 0 0-8.052-8.053zm80.526 0a8.053 8.053 0 0 0-8.052 8.053 8.053 8.053 0 0 0 8.052 8.052 8.053 8.053 0 0 0 8.053-8.052 8.053 8.053 0 0 0-8.053-8.053z" style="opacity:1;vector-effect:none;fill:#000;fill-opacity:1;stroke-width:4.02631569;paint-order:stroke fill markers"/><path id="path938" d="M91.974 891.94s-4.027 28.185-4.027 48.317c0 8.052 8.053 8.052 8.053 8.052s8.053 0 8.053-8.052c0-20.132-4.027-48.316-4.027-48.316H96Z" style="fill:#f9de81;stroke-width:4.02631569"/><path id="path835-5" d="M96 968.44v20.132s0 8.053-10.066 8.053-10.066-8.053-10.066-8.053v-20.131z" style="fill:#f9de81;stroke-width:4.02631569"/><path id="path835-3-62" d="M75.868 968.44v20.132s0 8.053-6.04 8.053c-6.039 0-6.039-8.053-6.039-8.053v-20.131z" style="fill:#f9de81;stroke-width:4.02631569"/><path id="path835-3-6-9" d="M63.79 968.44V992.6s0 6.585-4.027 6.585c-4.026 0-4.026-6.585-4.026-6.585V968.44z" style="fill:#f9de81;stroke-width:4.02631569"/><path id="path1060" d="M55.737 972.467v12.079c8.052 0 8.052 4.026 8.052 4.026s-.106-8.052 6.441-8.052c4.026 0 5.638 4.026 5.638 4.026s0-8.053 10.066-8.053S96 984.546 96 984.546s0-8.053 10.066-8.053 10.066 8.053 10.066 8.053 1.612-4.026 5.638-4.026c6.547 0 6.44 8.052 6.44 8.052s0-4.026 8.053-4.026v-12.079H96Z" style="fill:#c39a54;stroke-width:4.02631569"/><path id="path869" d="M96 956.362c-32.21 0-40.263 12.079-40.263 12.079v16.105S67.816 972.467 96 972.467c28.184 0 40.263 12.079 40.263 12.079v-16.105S128.211 956.36 96 956.36z" style="fill:#f9de81;stroke-width:4.02631569"/><path id="path873-9" d="M96 1016.757s0-8.053-8.053-8.053c-8.052 0-8.052 8.053-8.052 8.053v4.026H96Z" style="fill:#c39a54;stroke-width:4.02631569"/><path id="path873-7-3" d="M79.895 1016.757s0-6.04-8.053-6.04-8.053 10.066-8.053 10.066v4.026l16.106-4.026z" style="fill:#c39a54;stroke-width:4.02631569"/><path id="path873-5-6" d="M63.79 1020.783s0-8.053-8.053-8.053-8.053 8.053-8.053 8.053v4.026H63.79z" style="fill:#c39a54;stroke-width:4.02631569"/><path id="path871" d="M96 1016.757c-32.21 0-40.263 4.026-40.263 4.026v12.079h12.079s8.052-4.026 28.184-4.026 28.184 4.026 28.184 4.026h12.08v-12.079s-8.053-4.026-40.264-4.026z" style="fill:#f9de81;stroke-width:4.02631569"/><path id="path833-2" d="M55.737 940.257s-12.08 0-16.105 16.105c-2.562-4.026 0-12.08 0-12.08s-12.08 4.027-12.08 16.106v72.474h32.211V968.44c0-5.534 4.026-16.105 4.026-16.105s-8.052 0-12.078 12.078c0-12.078 4.026-24.157 4.026-24.157zm80.526 0s4.026 12.079 4.026 24.157c-4.026-12.078-12.078-12.078-12.078-12.078s4.026 10.571 4.026 16.105v64.42h32.21v-72.473c0-12.079-12.079-16.105-12.079-16.105s2.562 8.053 0 12.079c-4.026-16.105-16.105-16.105-16.105-16.105z" style="fill:#f9de81;stroke-width:4.02631569"/><path id="path833-2-9" d="M55.737 940.257s-12.08 0-16.105 16.105c-2.562-4.026 0-12.08 0-12.08s-12.08 4.027-12.08 16.106v72.474h32.211V968.44c0-5.534 4.026-16.105 4.026-16.105s-8.052 0-12.078 12.078c0-12.078 4.026-24.157 4.026-24.157zm80.526 0s4.026 12.079 4.026 24.157c-4.026-12.078-12.078-12.078-12.078-12.078s4.026 10.571 4.026 16.105v64.42h32.21v-72.473c0-12.079-12.079-16.105-12.079-16.105s2.562 8.053 0 12.079c-4.026-16.105-16.105-16.105-16.105-16.105z" style="opacity:.25;fill:#fff;stroke-width:4.02631569"/><path id="rect1042" d="M96 1028.836c-20.132 0-28.184 4.026-28.184 4.026h56.368s-8.052-4.026-28.184-4.026z" style="opacity:1;vector-effect:none;fill:#c39a54;fill-opacity:1;stroke-width:4.02631569;paint-order:stroke fill markers"/><path id="path938-5" d="M91.974 891.94s-4.027 28.185-4.027 48.317c0 8.052 8.053 8.052 8.053 8.052s8.053 0 8.053-8.052c0-20.132-4.027-48.316-4.027-48.316H96Z" style="opacity:.25;fill:#fff;stroke-width:4.02631569"/><path id="path1149-3" d="M55.737 940.257c-12.08 12.079-8.053 24.157-8.053 24.157l4.027 4.027s3.269-12.988 9.782-15.61c-2.686.9-7.104 3.549-9.782 11.583 0-12.078 4.026-24.157 4.026-24.157zm0 0s-12.08 0-16.105 16.105c-2.562-4.026 0-12.08 0-12.08-8.053 12.08-4.027 16.106-4.027 16.106h4.027s0-16.105 16.105-20.131zm80.526 0c16.105 4.026 16.105 20.131 16.105 20.131h4.027s4.026-4.026-4.027-16.105c0 0 2.562 8.053 0 12.079-4.026-16.105-16.105-16.105-16.105-16.105zm0 0s4.026 12.079 4.026 24.157c-2.678-8.034-7.096-10.683-9.782-11.583 6.513 2.622 9.782 15.61 9.782 15.61l4.027-4.027s4.026-12.078-8.053-24.157zM63.79 952.336c-8.052 8.052-8.052 20.131-8.052 20.131v60.395h4.026V968.44c0-5.534 4.026-16.105 4.026-16.105zm64.422 0s4.026 10.571 4.026 16.105v64.42h4.026v-60.394s0-12.079-8.052-20.131z" style="opacity:1;fill:#f9de81;stroke-width:4.02631569"/><path id="path1149" d="M55.737 940.257c-12.08 12.079-8.053 24.157-8.053 24.157l4.027 4.027s3.269-12.988 9.782-15.61c-2.686.9-7.104 3.549-9.782 11.583 0-12.078 4.026-24.157 4.026-24.157zm0 0s-12.08 0-16.105 16.105c-2.562-4.026 0-12.08 0-12.08-8.053 12.08-4.027 16.106-4.027 16.106h4.027s0-16.105 16.105-20.131zm80.526 0c16.105 4.026 16.105 20.131 16.105 20.131h4.027s4.026-4.026-4.027-16.105c0 0 2.562 8.053 0 12.079-4.026-16.105-16.105-16.105-16.105-16.105zm0 0s4.026 12.079 4.026 24.157c-2.678-8.034-7.096-10.683-9.782-11.583 6.513 2.622 9.782 15.61 9.782 15.61l4.027-4.027s4.026-12.078-8.053-24.157zM63.79 952.336c-8.052 8.052-8.052 20.131-8.052 20.131v60.395h4.026V968.44c0-5.534 4.026-16.105 4.026-16.105zm64.422 0s4.026 10.571 4.026 16.105v64.42h4.026v-60.394s0-12.079-8.052-20.131z" style="opacity:.15;stroke-width:4.02631569"/></g><style id="style853" type="text/css">.st0{fill:#898989}.st1{fill:#fff}</style></svg>