<?xml version="1.0" encoding="UTF-8"?>
<svg version="1.1" viewBox="0 0 192 192" xml:space="preserve" xmlns="http://www.w3.org/2000/svg">
	 <rect class="a" x="20" y="20" width="152" height="152" rx="10" fill="#56595b"/><path d="m71.424 57.181s4.3444-0.17013 9.0944 5.5799 6.125 7.3125 6.125 7.3125l32.338 36.562 3.1633 27.85s-4.8759 1.4628-7.8759-2.0372-41.25-48.812-41.25-48.812z" fill="#98dc9a" stroke-linecap="round" stroke-linejoin="round" stroke-width="3"/><path d="m54.269 73.699v52.25s1.0002 8.75 8.75 8.75c10.777 0 10-10 10-10v-67.276s-2.3387-0.97157-5 0.9012c-3.375 2.375-9.5625 7.0625-9.5625 7.0625s-4.0625 2.375-4.1875 8.3125z" fill="#fff" stroke-linecap="round" stroke-linejoin="round" stroke-width="3"/><path d="m137.73 118.16v-52.25s-1.0002-8.75-8.75-8.75c-10.777 0-10 10-10 10v67.568s2.4149 0.64419 5-1.1929c3.3639-2.3906 9.5625-7.0625 9.5625-7.0625s4.0625-2.375 4.1875-8.3125z" fill="#fff" stroke-linecap="round" stroke-linejoin="round" stroke-width="3"/><path d="m73.019 57.423 5.1875 32.339-5.1752-5.625z" fill="#71a372" stroke-linecap="round" stroke-linejoin="round" stroke-width="3"/><path d="m118.98 134.73-5.1875-33.93 5.1752 5.9017z" fill="#71a372" stroke-linecap="round" stroke-linejoin="round" stroke-width="3.0729"/></svg>
