<?xml version="1.0" encoding="UTF-8"?>
<svg version="1.1" viewBox="0 0 192 192" xml:space="preserve" xmlns="http://www.w3.org/2000/svg">
	 <rect class="a" x="20" y="20" width="152" height="152" rx="10" fill="#56595b"/><path d="m90.899 72.113c-5.218-0.2261-9.5716 1.4337-16.931-3.465 3.8825 9.3835 2.0914 15.184 2.3625 22.286 0.04432 9.1727 0.24198 18.357-2.3625 27.326l13.466-14.254v-4.3312s-3.7461 3.8248-5.2762 5.355c-1.053 1.053-2.1262 0.43063-2.1262-0.86624v-29.059h10.946z" fill="#f9de81" stroke-linecap="round" stroke-linejoin="round" stroke-width="6"/><path d="m90.978 103.42-17.797 19.687c5.8473-3.3815 12.199-3.3681 17.797-3.15v-3.465s-3.4691 0.36759-4.7361-0.36393c-0.85256-0.49223-0.45286-2.1006 0.03937-2.9531 1.3152-2.278 4.6967-5.8967 4.6967-5.8967z" fill="#f9de81" stroke-linecap="round" stroke-linejoin="round" stroke-width="6"/><path d="m101.1 119.64c5.218 0.2261 9.5716-1.4337 16.931 3.465-3.8825-9.3835-2.0914-15.184-2.3625-22.286-0.0443-9.1727-0.24198-18.357 2.3625-27.326l-13.466 14.254v4.3312s3.7461-3.8248 5.2762-5.355c1.053-1.053 2.1262-0.43063 2.1262 0.86624v29.059h-10.946z" fill="#f9de81" stroke-linecap="round" stroke-linejoin="round" stroke-width="6"/><path d="m101.02 88.336 17.797-19.687c-5.8472 3.3815-12.199 3.3681-17.797 3.15v3.465s3.4691-0.36759 4.7361 0.36393c0.85257 0.49223 0.45286 2.1006-0.0394 2.9531-1.3152 2.278-4.6967 5.8967-4.6967 5.8967z" fill="#f9de81" stroke-linecap="round" stroke-linejoin="round" stroke-width="6"/><path d="m96.096 56.041-0.92383 2.2441h0.70703v0.35352h-2.1445v1.3789h1.5352v0.47266s-1.8106-0.17851-2.0469 0.41211c-0.23625 0.59063 0.17695 1.6356 0.27539 2.5215 0.09844 0.88594-0.74813 1.3583-0.98438 1.9883-0.23624 0.63 0.02016 1.0227-0.05859 1.6133-0.07875 0.59063-1.4766 2.9336-1.4766 2.9336h1.6914v52.082h-1.6914s1.3978 2.343 1.4766 2.9336c0.07875 0.59062-0.17766 0.98328 0.05859 1.6133 0.23625 0.62999 1.0828 1.1023 0.98438 1.9883-0.09844 0.88593-0.51164 1.9309-0.27539 2.5215 0.23625 0.59062 2.0469 0.41211 2.0469 0.41211v0.47265h-1.5352v1.3789h2.1445v0.35351h-0.70703l0.92383 2.2441 0.92578-2.2441h-0.70898v-0.35351h2.1465v-1.3789h-1.5352v-0.47265s1.8106 0.17851 2.0469-0.41211c0.23625-0.59063-0.17695-1.6356-0.27539-2.5215-0.09844-0.88594 0.74813-1.3583 0.98438-1.9883s-0.02016-1.0227 0.05859-1.6133c0.07875-0.59063 1.4766-2.9336 1.4766-2.9336h-1.6934v-52.082h1.6934s-1.3978-2.343-1.4766-2.9336c-0.07875-0.59062 0.17766-0.98328-0.05859-1.6133-0.23625-0.62999-1.0828-1.1023-0.98438-1.9883 0.09844-0.88593 0.51164-1.9309 0.27539-2.5215-0.23625-0.59062-2.0469-0.41211-2.0469-0.41211v-0.47266h1.5352v-1.3789h-2.1465v-0.35352h0.70898z" fill="#f9de81" stroke-linecap="round" stroke-linejoin="round" stroke-width="6"/></svg>
