<svg xmlns="http://www.w3.org/2000/svg" width="192" height="192"><path d="M96 184c8 0 36-28 36-48 0-24-36-28-36-28s-36 4-36 28c0 20 28 48 36 48z" style="fill:#f9de81;stroke-width:4"/><path d="M96 168c-4 0-24-21.578-24-36 0-16 24-16 24-16s24 0 24 16c0 14.422-20 36-24 36z" style="fill:#c39a54;stroke-width:4"/><path d="M96 156c-8 0-24-12.686-24-24 0-12 12-32 12-32s4-8 12-8 12 8 12 8 12 20 12 32c0 11.314-16 24-24 24zM152 64s8.229-8 12-8c4 0 3.908 7.785 4 12 .21 9.704-4 28-8 28-2.981 0-8-8-8-8zM40 64s-8.229-8-12-8c-4 0-3.908 7.785-4 12-.21 9.704 4 28 8 28 2.981 0 8-8 8-8z" style="fill:#d4b79a;stroke-width:4"/><path d="M96 8S32 8 32 68c0 56 40 60 40 60s12 12 24 12 24-12 24-12 40-4 40-60C160 7.999 96 8 96 8z" style="fill:#f1e9e0;stroke-width:4"/><path d="M88 114.87s2.667-2.667 8-2.667 8 2.667 8 2.667-3.943 1.333-8 1.333c-3.962 0-8-1.333-8-1.333z" style="fill:#d4b79a;stroke-width:2.6667"/><path d="M80 112s8-4 16-4 16 4 16 4" style="fill:none;stroke-linecap:round;stroke-linejoin:round;stroke-width:4px;stroke:#bf9e73"/><ellipse cx="96" cy="95.726" rx="9.726" ry="2.274" style="fill:#bf9e73;paint-order:stroke fill markers;stroke-width:3.3255"/><path d="M84 95.2c0-4 4-5.2 12-5.2s12 1.2 12 5.2c0 2.981-5.581-.943-8 .8-1.53 1.103-2.114 2.8-4 2.8s-2.47-1.698-4-2.8c-2.419-1.743-8 2.181-8-.8z" style="fill:#d4b79a;stroke-width:4"/><circle cx="128" cy="68" r="24" style="fill:#d4b79a;paint-order:stroke fill markers;stroke-width:4"/><circle cx="126" cy="70" r="22" style="fill:#fff;paint-order:stroke fill markers;stroke-width:4"/><circle cx="126" cy="70" r="14" style="fill:#f8c18c;paint-order:stroke fill markers;stroke-width:4"/><circle cx="126" cy="70" r="6" style="fill:#4a4a4a;paint-order:stroke fill markers;stroke-width:4"/><circle cx="-64" cy="68" r="24" style="fill:#d4b79a;paint-order:stroke fill markers;stroke-width:4" transform="scale(-1 1)"/><circle cx="-66" cy="70" r="22" style="fill:#fff;paint-order:stroke fill markers;stroke-width:4" transform="scale(-1 1)"/><circle cx="-66" cy="70" r="14" style="fill:#f8c18c;paint-order:stroke fill markers;stroke-width:4" transform="scale(-1 1)"/><circle cx="-66" cy="70" r="6" style="fill:#4a4a4a;paint-order:stroke fill markers;stroke-width:4" transform="scale(-1 1)"/></svg>