<?xml version="1.0" encoding="UTF-8" standalone="no"?>
<svg
   xmlns:dc="http://purl.org/dc/elements/1.1/"
   xmlns:cc="http://creativecommons.org/ns#"
   xmlns:rdf="http://www.w3.org/1999/02/22-rdf-syntax-ns#"
   xmlns:svg="http://www.w3.org/2000/svg"
   xmlns="http://www.w3.org/2000/svg"
   xmlns:sodipodi="http://sodipodi.sourceforge.net/DTD/sodipodi-0.dtd"
   xmlns:inkscape="http://www.inkscape.org/namespaces/inkscape"
   sodipodi:docname="thinkorswim.svg"
   inkscape:version="1.0.1 (3bc2e813f5, 2020-09-07)"
   version="1.1"
   id="svg2"
   viewBox="0 0 192 192"
   height="192"
   width="192"
   inkscape:export-filename="/home/jphilippe/inkscape/icônes/delta-github/png/thinkorswim.png"
   inkscape:export-xdpi="96"
   inkscape:export-ydpi="96">
  <sodipodi:namedview
     inkscape:document-rotation="0"
     inkscape:window-maximized="1"
     inkscape:window-y="30"
     inkscape:window-x="1920"
     inkscape:window-height="1022"
     inkscape:window-width="1680"
     units="px"
     showgrid="false"
     inkscape:current-layer="layer1"
     inkscape:document-units="px"
     inkscape:cy="69.675055"
     inkscape:cx="74.930577"
     inkscape:zoom="2.0000001"
     inkscape:pageshadow="2"
     inkscape:pageopacity="0.0"
     borderopacity="1.0"
     bordercolor="#666666"
     pagecolor="#ffffff"
     id="base"
     inkscape:snap-bbox="false"
     inkscape:object-paths="true"
     inkscape:snap-nodes="true"
     showguides="true"
     inkscape:guide-bbox="true"
     inkscape:snap-object-midpoints="true"
     inkscape:snap-center="true"
     inkscape:snap-global="false"
     inkscape:snap-intersection-paths="true"
     inkscape:snap-smooth-nodes="true"
     inkscape:snap-midpoints="true" />
  <defs
     id="defs4" />
  <metadata
     id="metadata7">
    <rdf:RDF>
      <cc:Work
         rdf:about="">
        <dc:format>image/svg+xml</dc:format>
        <dc:type
           rdf:resource="http://purl.org/dc/dcmitype/StillImage" />
        <dc:title />
      </cc:Work>
    </rdf:RDF>
  </metadata>
  <g
     transform="translate(0,-860.36216)"
     id="layer1"
     inkscape:groupmode="layer"
     inkscape:label="Calque 1">
    <circle
       style="fill:#97db99;fill-opacity:1;fill-rule:evenodd;stroke:none;stroke-opacity:1"
       cx="96"
       cy="956.36218"
       r="88"
       id="circle1049" />
    <path
       style="fill:#ffffff;fill-opacity:1;stroke-width:2.18509"
       d="m 126.33926,931.57365 5.25875,7.06174 a 1.6348484,1.6348484 0 0 1 -0.61511,2.45568 l -29.8126,14.02947 a 0.35338502,0.35338502 0 0 1 -0.4014,-0.56858 l 22.9676,-23.16223 a 1.7212613,1.7212613 0 0 1 2.60276,0.18392 z"
       id="path1132" />
    <path
       style="fill:#ffffff;fill-opacity:1;stroke-width:2.18509"
       d="m 125.9306,959.25954 -1.35324,8.72082 a 1.4967155,1.4967155 0 0 1 -2.11631,1.12476 l -18.66864,-8.78525 a 0.5424323,0.5424323 0 0 1 0.18229,-1.03104 l 20.27064,-1.82619 a 1.5634635,1.5634635 0 0 1 1.68526,1.7969 z"
       id="path1130" />
    <path
       style="fill:#ffffff;fill-opacity:1;stroke-width:2.18509"
       d="m 128.1174,996.04507 -7.25639,5.29113 a 1.7180728,1.7180728 0 0 1 -2.53722,-0.5969 L 99.189316,963.8656 a 0.28829667,0.28829667 0 0 1 0.463869,-0.33245 l 28.695175,29.89081 a 1.7467797,1.7467797 0 0 1 -0.23096,2.62111 z"
       id="path1128" />
    <path
       style="fill:#ffffff;fill-opacity:1;stroke-width:2.18509"
       d="m 95.631352,985.8531 -8.711038,-1.20153 a 1.4592622,1.4592622 0 0 1 -1.116378,-2.0766 l 8.540195,-17.80722 a 0.5649361,0.5649361 0 0 1 1.071303,0.18599 l 1.990721,19.18331 a 1.5688236,1.5688236 0 0 1 -1.774803,1.71605 z"
       id="path1126" />
    <path
       style="fill:#ffffff;fill-opacity:1;stroke-width:2.18509"
       d="m 54.442713,992.62345 -5.434018,-7.09441 a 1.6815271,1.6815271 0 0 1 0.556863,-2.51319 l 41.248313,-21.5296 a 0.25937769,0.25937769 0 0 1 0.29472,0.42166 l -33.971429,30.95621 a 1.8361794,1.8361794 0 0 1 -2.694449,-0.24067 z"
       id="path1124" />
    <path
       style="fill:#ffffff;fill-opacity:1;stroke-width:2.18509"
       d="m 72.785655,958.8022 1.363389,-8.93777 a 1.3446177,1.3446177 0 0 1 2.018682,-0.95165 l 12.298476,7.34493 a 0.76813703,0.76813703 0 0 1 -0.245002,1.41305 l -13.775053,2.721 a 1.4043984,1.4043984 0 0 1 -1.660492,-1.58956 z"
       id="path1122" />
    <path
       style="fill:#ffffff;fill-opacity:1;stroke-width:2.18509"
       d="m 72.133493,931.63184 7.256402,-5.29114 a 1.6167661,1.6167661 0 0 1 2.429529,0.64873 l 11.702021,26.2816 a 0.40506613,0.40506613 0 0 1 -0.646813,0.46053 L 71.977805,934.17672 a 1.6544908,1.6544908 0 0 1 0.155688,-2.54488 z"
       id="path1120" />
    <path
       style="fill:#ffffff;fill-opacity:1;stroke-width:2.18509"
       d="m 101.1185,902.96261 8.72083,1.35324 a 1.72994,1.72994 0 0 1 1.38818,2.21823 l -13.682271,44.46737 a 0.25643966,0.25643966 0 0 1 -0.501298,-0.0865 l 2.011342,-46.26085 a 1.7903802,1.7903802 0 0 1 2.063217,-1.69144 z"
       id="path979" />
  </g>
  <style
     type="text/css"
     id="style853">
	.st0{fill:#FFFFFF;}
</style>
  <style
     type="text/css"
     id="style853-9">
	.st0{fill:#FFFFFF;}
</style>
  <style
     type="text/css"
     id="style853-3">
	.st0{fill:#FFFFFF;}
</style>
  <style
     type="text/css"
     id="style909">
	.st0{fill:#7A7A7A;}
	.st1{fill:#FFFFFF;}
	.st2{fill:#3FAE2A;}
</style>
</svg>
