<svg xmlns="http://www.w3.org/2000/svg" viewBox="0 0 152 152"><rect width="152" height="152" rx="10" ry="10" style="fill:#54688c;isolation:isolate"/><path d="M116.51 38.51c-.13.02-27.74 3.67-27.74 3.67S78.24 16.77 77.2 15.73c-1.05-1.05-1.65.18-1.65.18L66.92 42s-30.14 1.65-31.97 1.65c-1.81.04-1.08 1.23-.73 1.65.21.17 19.05 22.5 20.02 23.15.78.66.73 1.29.73 1.29s3.59 61.88 3.67 65.03c.25 3.98 2.57.55 2.57.55l16.51-23.22s4.2-6.12 4.25-6.18c.37-.55.73-.55.73-.55l30.86 3.31s1.9.42 1.1-1.29c-4.55-9.94-16.9-37.11-16.9-37.11l19.66-29.76c1.44-2.31.86-2.25-.92-2.02Zm-24.43 23.3h-8.59v34.2h-10.2v-34.2H64.7v-9.34h27.37v9.34Z" style="fill:#fff"/></svg>