<svg xmlns="http://www.w3.org/2000/svg" viewBox="0 0 192 192"><title>Tickertape</title><rect x="8" y="32.5" width="176" height="127" rx="10" fill="#56595b"/><path d="M71.88,77.62l22.39,38.76a2,2,0,0,0,3.46,0l22.39-38.76a2,2,0,0,0-1.74-3H73.62A2,2,0,0,0,71.88,77.62Z" fill="#fff"/><path d="M49.17,85.62H8v20.76H49.17a2,2,0,0,0,2-2V87.62A2,2,0,0,0,49.17,85.62Z" fill="#fff"/><path d="M122.39,118.39h44.77a2,2,0,0,0,1.73-3L146.51,76.62a2,2,0,0,0-3.47,0l-22.38,38.77A2,2,0,0,0,122.39,118.39Z" fill="#fff"/></svg>