<?xml version="1.0" encoding="UTF-8" standalone="no"?>
<svg
   width="192"
   height="192"
   version="1.1"
   viewBox="0 0 192 192"
   id="svg14"
   sodipodi:docname="tide.svg"
   inkscape:version="1.1 (c68e22c387, 2021-05-23)"
   inkscape:export-xdpi="96"
   inkscape:export-ydpi="96"
   xmlns:inkscape="http://www.inkscape.org/namespaces/inkscape"
   xmlns:sodipodi="http://sodipodi.sourceforge.net/DTD/sodipodi-0.dtd"
   xmlns="http://www.w3.org/2000/svg"
   xmlns:svg="http://www.w3.org/2000/svg"
   xmlns:rdf="http://www.w3.org/1999/02/22-rdf-syntax-ns#"
   xmlns:cc="http://creativecommons.org/ns#"
   xmlns:dc="http://purl.org/dc/elements/1.1/">
  <metadata
     id="metadata20">
    <rdf:RDF>
      <cc:Work
         rdf:about="">
        <dc:format>image/svg+xml</dc:format>
        <dc:type
           rdf:resource="http://purl.org/dc/dcmitype/StillImage" />
      </cc:Work>
    </rdf:RDF>
  </metadata>
  <defs
     id="defs18" />
  <sodipodi:namedview
     pagecolor="#ffffff"
     bordercolor="#666666"
     borderopacity="1"
     objecttolerance="10"
     gridtolerance="10"
     guidetolerance="10"
     inkscape:pageopacity="0"
     inkscape:pageshadow="2"
     inkscape:window-width="1718"
     inkscape:window-height="1378"
     id="namedview16"
     showgrid="false"
     inkscape:zoom="1.6848959"
     inkscape:cx="14.837712"
     inkscape:cy="200.60587"
     inkscape:window-x="1713"
     inkscape:window-y="0"
     inkscape:window-maximized="0"
     inkscape:current-layer="svg14"
     inkscape:document-rotation="0"
     inkscape:pagecheckerboard="0" />
  <path
     id="path1005"
     style="fill:#fcecdc;fill-opacity:1;stroke-width:1"
     d="M 105.98828 14.240234 C 98.055603 14.237947 89.872535 14.609103 85.662109 15.357422 C 51.261613 21.471442 29.350641 37.561777 20.257812 63.388672 C 15.47583 76.971222 14.582476 93.897847 17.853516 108.91797 C 25.812986 145.4667 54.688437 174.19919 86.697266 177.41992 C 103.47815 179.10841 123.20708 174.43117 137.01172 165.49219 C 162.37607 149.06792 177.4193 116.80106 175.99805 81.865234 C 175.46769 68.828666 172.91866 58.031784 168.08594 48.353516 C 159.41841 30.995467 145.15768 20.125394 124.8125 15.369141 C 121.60235 14.61869 113.92096 14.242522 105.98828 14.240234 z M 96 56.914062 A 39.085499 39.085499 0 0 1 131.35938 79.351562 C 133.99668 84.595406 135.4954 90.530496 135.4707 96.867188 C 135.44625 103.14221 134.34415 107.929 131.61719 113.60547 C 126.70042 123.84025 116.42241 132.16214 105.78906 134.51953 C 94.514486 137.01908 84.490055 135.29001 75.777344 129.37695 A 39.085499 39.085499 0 0 1 56.914062 96 A 39.085499 39.085499 0 0 1 96 56.914062 z " />
  <path
     id="path1005-1"
     style="fill:#ff837d;fill-opacity:0.501961;stroke-width:0.999997"
     d="M 91.169922 26.222656 C 74.293336 26.236785 60.296835 31.907404 49.287109 43.212891 C 40.86515 51.861084 34.222113 64.42364 31.419922 77.001953 C 24.601279 107.60899 36.446698 139.63675 59.662109 153.36133 C 71.832971 160.55657 88.490536 163.94747 102.14062 162.00977 C 127.22101 158.44955 150.02962 139.20209 161.25391 112.125 C 165.44234 102.02095 167.30643 92.908468 167.03906 83.84375 C 166.55951 67.586114 159.54004 54.29611 145.73828 43.511719 C 141.38289 40.108474 122.89208 31.540461 115.95898 29.712891 C 107.10811 27.379815 98.841097 26.216234 91.169922 26.222656 z M 96 56.914062 A 39.085503 39.085499 0 0 1 135.08594 96 A 39.085503 39.085499 0 0 1 96 135.08594 A 39.085503 39.085499 0 0 1 56.914062 96 A 39.085503 39.085499 0 0 1 96 56.914062 z " />
  <path
     id="path2365"
     style="fill:#ff837d;fill-opacity:0.501961;stroke-width:1"
     d="M 98.898438 47.419922 A 62.13842 55.886513 49.4367 0 0 61.224609 59.689453 A 62.13842 55.886513 49.4367 0 0 59.175781 143.23828 A 62.13842 55.886513 49.4367 0 0 142.04102 154.10156 A 62.13842 55.886513 49.4367 0 0 144.08984 70.552734 A 62.13842 55.886513 49.4367 0 0 98.898438 47.419922 z M 96 56.914062 A 39.085499 39.085503 0 0 1 135.08594 96 A 39.085499 39.085503 0 0 1 96 135.08594 A 39.085499 39.085503 0 0 1 56.914062 96 A 39.085499 39.085503 0 0 1 96 56.914062 z " />
</svg>
