<svg width="192" height="192" version="1.1" viewBox="0 0 192 192" xmlns="http://www.w3.org/2000/svg">
 <circle cx="96" cy="96" r="88" opacity=".63" style="fill:#f9de81;opacity:1"/>
 <path d="m98.182 47.895c-3.448-0.007576-6.6664 0.37438-9.4512 1.0703 0 0-12.649 37.368-13.949 53.713s5.0449 41.248 5.0449 41.248l-10.895 35.758a88 88 0 0 0 27.068 4.3164 88 88 0 0 0 35.139-7.4356c-4.8431-8.1814-10.457-19.237-10.359-26.406 0.40605-29.673 20.946-39.39 21.068-56.088 0.25535-34.731-25.047-46.135-43.666-46.176z" style="fill:#73ada4"/>
 <path d="m101.04 137.69c9.9615-6.2498 13.947-15.134 13.947-15.134s-21.979 2.8769-41.842 2.8192c-3.3085 6.7801-8.1607 11.128-8.1607 11.128l13.057 5.9351s16.368-0.58794 22.998-4.7481z" style="fill:#f8c18c"/>
 <path d="m79.004 146.05s3.9643 6.9938 12.066 6.8197c24.331-0.52279 28.538-21.194 28.538-21.194s-8.9519 11.556-22.453 13.954c-5.7186 1.0159-18.151 0.41968-18.151 0.41968z" style="opacity:.25"/>
 <path d="m64.989 136.51s6.901 2.405 16.025 2.6708c9.9533 0.28992 20.031-1.4838 20.031-1.4838s0.47554 7.3064-5.1932 8.3091c-5.4063 0.95625-10.991 0.49338-16.47 0.14838-2.939-0.18505-6.7025-0.66447-9.1994-2.2257-2.8729-1.7963-5.1932-7.4188-5.1932-7.4188z" style="fill:#e0f4e0"/>
 <path d="m48.682 96.105s1.4494-1.2623 3.6721-1.1541c1.6091 0.07832 4.3017 2.2033 4.3017 2.2033l7.1345-2.8328s-5.2039-38.639 24.939-45.356c13.054-2.9091 32.251 5.2784 31.297 25.107-0.48108 9.9995-3.7771 20.984-3.7771 20.984s-8.5544 4.9474-17.836 5.2459c0 0-0.66994-6.048-6.5049-6.2951-4.2287-0.17911-7.0369 5.1098-7.0369 5.1098l-12.058 8.11z" style="fill:#96dfd3"/>
 <path d="m114.99 122.56s-21.978 2.8781-41.842 2.8203c-0.96641 1.9804-2.0604 3.7225-3.1309 5.2402 0.87389 1.1698 1.7289 2.1763 3.1055 2.8809 3.9828 2.0384 9.5269 1.9077 14 2 5.556 0.11463 12.995 0.02054 18.926-1.543 3.7e-4 -3.2e-4 0.00159 3.3e-4 0.00195 0 6.3137-5.5459 8.9395-11.398 8.9395-11.398z" style="opacity:.25"/>
 <path d="m55.397 124.43 6.8197 8.0787 2.0984-7.659 7.0295 7.764 3.9869-7.9738s1.9793 4.7957 6.5049 7.764c2.5459-5.8288 5.141-7.659 5.141-7.659s2.1863 5.2691 6.2951 7.5541c1.7325-4.9346 4.3017-6.505 4.3017-6.505s1.4002 2.3637 3.2525 6.0853c3.0481-3.8238 3.882-7.764 3.882-7.764s0.84697 2.249 2.518 7.0295c2.8406-4.3519 3.7771-7.4492 3.7771-7.4492z" style="fill:#fff"/>
 <path d="m93.499 125.19c14.496-0.11628 21.597-2.3359 21.597-2.3359l-0.31476-8.2886-18.361 0.83935s-3.118 3.7839-2.9212 9.7851z" style="fill:#73ada4"/>
 <path d="m51.042 120.04c0.84113 2.2206 1.7808 5.725 4.1546 5.7867 21.053 0.54758 29.078-0.11887 40.7-0.65509 1.0004-0.0462 2.6428 0.18433 2.5966-0.81607-0.24254-5.2467-1.0418-9.4608-1.4538-13.96-0.28543-3.117-0.89026-9.3478-0.89026-9.3478s-0.8817-5.7408-5.0448-5.7867c-4.5199-0.04988-6.2318 3.8578-6.2318 3.8578s-7.8344-3.3325-14.838-3.4127c-8.6886-0.09948-14.838 3.4127-14.838 3.4127s-0.45487-4.3293-5.7867-3.2643c-1.8532 0.37016-2.9832 2.2648-2.9675 4.1546 0.01424 1.714 1.9289 2.9675 1.9289 2.9675s0.76888 12.042 2.6708 17.063z" style="fill:#e0f4e0"/>
 <ellipse cx="71.24" cy="85.665" rx="3.1476" ry="4.9836" style="fill:#56595b;paint-order:stroke fill markers;stroke-width:.97468"/>
 <ellipse cx="97.171" cy="84.878" rx="3.4789" ry="5.5082" style="fill:#56595b;paint-order:stroke fill markers;stroke-width:1.0773"/>
 <path d="m114.26 116.35s-0.0142 4.4384 1.1541 5.8754c1.1684 1.4371 4.7213 1.9934 4.7213 1.9934s-2.5959-2.7673-3.5672-4.0918-2.3082-3.7771-2.3082-3.7771z" style="opacity:.25"/>
 <path d="m78.98 146.7-10.049 32.982a88 88 0 0 0 27.068 4.3164 88 88 0 0 0 31.566-5.873c-2.6722-4.9036-5.6399-10.962-8.5664-18.252-1.5414-3.8396-7.4257-6.0166-11-5.75-8.4161 0.62783-16.998 0.89622-24.418-3.125-1.4193-0.76917-3.6676-2.8892-4.6016-4.2988z" style="fill:#96dfd3"/>
 <path d="m48.938 100.5c0.0024-0.91524 0.8973-2.0538 1.8125-2.0625 2.0322-0.01921 2.625 2.8125 2.625 2.8125s-0.93665-1.1333-1.5625-1.0625c-0.791 0.0895-0.82906 1.763-1.625 1.75-0.6349-0.0104-1.2517-0.80251-1.25-1.4375z" style="fill:#73ada4"/>
 <path d="m88.125 100.5c0.0024-0.91524 0.95977-2.3074 1.875-2.3125 3.4697-0.01921 3.6875 3.125 3.6875 3.125s-0.99915-1.1958-1.625-1.125c-0.791 0.0895-1.0791 1.888-2.375 1.8125-0.63392-0.0369-1.5642-0.86501-1.5625-1.5z" style="fill:#73ada4"/>
 <path d="m136.12 108.74s2.8953-5.6254 2.8284-8.6621c-0.45422-20.636-23.172-44.773-44.901-45.785-12.834-0.59769-25.633 6.0104-25.633 6.0104l2.2981-5.3033s12.095-5.4062 21.744-5.6569c29.508-0.76661 52.494 30.211 50.028 50.912-0.54904 4.6091-6.364 8.4853-6.364 8.4853z" style="fill:#8e6f60"/>
 <ellipse transform="matrix(.71885 -.69516 .72208 .69181 0 0)" cx="11.839" cy="93.205" rx="16.727" ry="5.0061" style="fill:#56595b;paint-order:stroke fill markers;stroke-width:1.1263"/>
 <path d="m78.75 45.125 4.125 1.125s2.7276 1.1391-6.875 10.75-11.75 7-11.75 7l-0.625-4.25-1 0.25-1.75-2.25s0.60753-3.763 6.125-9c5.4702-5.1922 10-7.125 10-7.125l2 2.5z" style="fill:#c39a54"/>
 <ellipse transform="rotate(22.722)" cx="120.39" cy="8.5354" rx="17.125" ry="10.25" style="fill:#56595b;paint-order:stroke fill markers"/>
 <path d="m97.375 45.875s0.68691-3.3914 1.875-4.5c2.348-2.1909 7.8941-3.6303 14.25-1.25 3.918 1.4673 7.4458 4.2693 8.875 8.875 0.25458 0.82039-1 2.625-1 2.625l1.25 4.5s-2.7254 9.5509-17.25 3.375c-11.315-4.8111-10.25-10.625-10.25-10.625z" style="fill:#c39a54"/>
 <ellipse transform="rotate(16.752)" cx="118.88" cy="13.3" rx="8.75" ry="4" style="fill:#fff;paint-order:stroke fill markers"/>
</svg>
