<?xml version="1.0" encoding="UTF-8" standalone="no"?>
<svg
   width="192"
   height="192"
   version="1.1"
   viewBox="0 0 192 192"
   id="svg48"
   sodipodi:docname="toca_life_world.svg"
   inkscape:version="1.2 (dc2aedaf03, 2022-05-15)"
   inkscape:export-filename="toca_life_world.png"
   inkscape:export-xdpi="96"
   inkscape:export-ydpi="96"
   xmlns:inkscape="http://www.inkscape.org/namespaces/inkscape"
   xmlns:sodipodi="http://sodipodi.sourceforge.net/DTD/sodipodi-0.dtd"
   xmlns="http://www.w3.org/2000/svg"
   xmlns:svg="http://www.w3.org/2000/svg">
  <defs
     id="defs52" />
  <sodipodi:namedview
     id="namedview50"
     pagecolor="#505050"
     bordercolor="#eeeeee"
     borderopacity="1"
     inkscape:showpageshadow="0"
     inkscape:pageopacity="0"
     inkscape:pagecheckerboard="0"
     inkscape:deskcolor="#505050"
     showgrid="false"
     inkscape:zoom="2.4583334"
     inkscape:cx="95.999998"
     inkscape:cy="57.355931"
     inkscape:window-width="1884"
     inkscape:window-height="1052"
     inkscape:window-x="36"
     inkscape:window-y="0"
     inkscape:window-maximized="1"
     inkscape:current-layer="svg48" />
  <rect
     x="20"
     y="-185.94785"
     width="152"
     height="152"
     rx="9.9345999"
     opacity=".63"
     style="opacity:1;fill:#f9de81"
     id="rect2" />
  <path
     d="m 88.645,-166.68285 c 0,0 -1.16,-11.878 0.28764,-17.546 2.0375,-7.9764 9.7596,-14.675 16.971,-13.719 7.1253,0.94492 15.758,6.032 12.656,18.26 -1.7427,6.8703 -10.643,17.607 -10.643,17.607 z"
     style="fill:#73ada4;stroke-width:4"
     id="path4" />
  <path
     d="m 144.14,-81.477846 c 0,0 -0.28408,-5.239 1.2203,-7.1186 3.1155,-3.8924 8.8666,-6.1611 13.831,-5.6949 3.707,0.348 8.8731,2.4099 9.3559,6.1017 0.35484,2.7132 -2.8746,5.3022 -5.4915,6.1017 -1.604,0.49004 -5.0848,-0.61016 -5.0848,-0.61016 l -2.2373,3.2542 z"
     style="fill:#d4b79a;stroke-width:4"
     id="path6" />
  <circle
     cx="148"
     cy="-121.94785"
     r="36"
     style="fill:#728dbe;stroke-width:4.5;paint-order:stroke fill markers"
     id="circle8" />
  <path
     d="m 148,-157.94785 a 36,36 0 0 0 -14.719,3.1953 c -0.22084,0.38 -0.36972,0.75784 -0.26564,1.0781 0.40477,1.2452 3.6641,1.4219 3.6641,1.4219 0,0 -3.6535,7.354 -7.1172,8.9453 -2.6937,1.2376 -7.1791,0.93768 -10.805,0.41404 a 36,36 0 0 0 -4.7734,9.2891 c 3.3787,-1.342 8.1058,-3.039 11.711,-2.9844 2.2081,0.032 4.1007,2.17 6.3047,2.0313 3.5113,-0.2212 9.5625,-4.4766 9.5625,-4.4766 0,0 5.7571,6.6902 9.5547,6.3047 2.957,-0.3 6.0118,-3.3469 6.3047,-6.3047 0.19268,-1.946 -3.25,-4.8828 -3.25,-4.8828 0,0 11.091,7.3454 13.828,3.461 0.98568,-1.3987 -2.8437,-4.2734 -2.8438,-4.2734 0,0 -1.9644,-2.4786 -0.21092,-3.6563 1.7535,-1.1776 5.1693,4.2894 8.1406,3.8594 0.663,-0.096 1.3698,-0.4826 2.0547,-1.0078 a 36,36 0 0 0 -27.141,-12.414 z m 18.5,23.883 c -1.3138,-0.004 -2.5905,0.2908 -3.5859,0.92968 -2.0767,1.3333 -0.95362,4.8971 -2.0312,7.1172 -0.65733,1.3542 -2.756,2.1626 -2.6484,3.6641 0.20204,2.8216 3.0772,5.8943 5.8984,6.1016 4.4358,0.326 9.976,-3.726 10.578,-8.1328 0.18356,-1.3434 -2.0087,-1.9714 -2.4375,-3.2578 -0.42879,-1.2864 0.88372,-3.0419 0,-4.0703 -1.285,-1.4953 -3.5837,-2.3419 -5.7734,-2.3516 z m 17.43,10.211 c -1.1745,0.71864 -2.8332,2.5965 -5.1484,6.789 -1.078,1.9522 -1.4755,8.8267 -2.0391,10.984 -0.91067,3.4864 -7.2257,3.6298 -8.1328,7.117204 -0.39956,1.5361 0.42707,3.7073 1.3359,5.5234 a 36,36 0 0 0 14.055,-28.508004 36,36 0 0 0 -0.0703,-1.9062 z m -44.609,1.9062 c -2.1212,-0.378 -3.7455,2.7246 -5.8984,2.6406 -0.84885,-0.032 -1.386,-1.2615 -2.2344,-1.2188 -3.1176,0.1572 -7.7266,5.289 -7.7266,5.289 0,0 -2.2688,3.8263 -1.6328,5.6953 1.2493,3.6713 6.6286,4.1604 9.3594,6.9141 4.4924,4.530004 9.752,12.663004 12.078,16.328004 a 36,36 0 0 0 4.7344,0.35156 36,36 0 0 0 7.0859,-0.7422 c 2.5836,-2.9238 5.7977,-7.1038 6,-10.445 0.11912,-1.9672 -2.4453,-3.867204 -2.4453,-3.867204 0,0 1.3095,-2.4815 1.2266,-3.25 -0.11364,-1.0529 -2.4453,-2.0312 -2.4453,-2.0312 0,0 0.6721,-3.6568 -0.40626,-4.8828 -1.9233,-2.1866 -8.5391,-1.8359 -8.5391,-1.8359 0,0 -4.9556,-8.1967 -9.1562,-8.9453 z"
     style="fill:#98dc9a;stroke-width:4"
     id="path10" />
  <path
     d="m 35.433,-93.337846 c -8.8969,-6.934104 -11.697,-16.245004 -13.807,-27.325004 -2.0837,-10.944 4.6022,-22.436 4.6022,-22.436 0,0 -24.362,-13.34 -15.532,-31.065 3.0898,-6.2029 14.872,-9.971 23.336,-5.1775 5.7849,3.2763 8.5774,5.254 13.481,10.93 5.8663,-4.1162 16.683,-3.4516 16.683,-3.4516 0,0 13.296,-6.6835 20.997,-6.6156 38.682,0.3408 45.22,20.467 46.885,27.901 1.9277,8.6082 -1.3287,17.791 0.28764,26.463 1.8567,9.9617 7.7207,19.727 10.643,28.476004 1.6092,4.8188 -5.4955,7.4602 -8.0538,5.4651 -15.82,-12.337004 -35.092,-23.586004 -35.092,-23.586004 0,0 -33.559,21.363004 -52.638,23.011004 -4.4251,0.3824 -8.2899,0.1416 -11.793,-2.5887 z"
     style="fill:#96dfd3;stroke-width:4"
     id="path12" />
  <path
     d="m 42.048,-89.887846 c 0,0 -8.6957,12.197 -8.9167,19.272 -0.11564,3.7017 0.70523,8.7172 4.0269,10.355 2.1499,1.06 6.9033,-2.0134 6.9033,-2.0134 0,0 0.60103,8.8971 6.328,10.355 10.422,2.653 15.82,-8.3415 15.82,-8.3415 0,0 3.9552,7.3579 7.4786,7.4786 8.9159,0.3056 14.669,-12.081 14.669,-12.081 0,0 -1.0572,6.8704 5.4651,7.7662 9.6039,1.319 12.081,-7.4785 12.081,-7.4785 0,0 2.3647,4.8284 4.6022,4.8898 19.936,0.54696 22.723,-31.928 22.723,-31.928 l -35.667,-44.871004 z"
     style="fill:#73ada4;stroke-width:4"
     id="path14" />
  <path
     d="m 92.474,-64.587846 7.526,4.9098 8.5418,-8.5708 -2.6916,-7.8244 -15.676,4.4584 z"
     style="fill:#d4b79a;stroke-width:4"
     id="path16" />
  <path
     d="m 34.857,-90.167846 c -3.4056,-14.588004 14.094,-18.409004 14.094,-18.409004 l 35.092,-44.008 38.543,9.492 c 0,0 -1.3087,13.509 1.1506,19.559 2.084,5.1272 12.066,15.767 11.505,23.299 -1.1046,14.833004 -7.1693,23.328004 -28.764,29.051004 -30.969,8.208 -49.186,-9.2044 -49.186,-9.2044 0,0 -4.3494,2.8992 -8.3415,2.5888 -6.7808,-0.52732 -12.548,-5.7452 -14.094,-12.368 z"
     style="fill:#e2c9b0;stroke-width:4"
     id="path18" />
  <path
     d="m 67.119,-117.77885 c -0.7359,3.3152 5.8188,3.8276 9.1525,4.4746 3.2695,0.63456 9.6684,1.5883 9.9661,-0.71188 0.24768,-1.9136 -4.9082,-3.3112 -7.7288,-3.9661 -3.6988,-0.85876 -10.567,-3.5036 -11.39,0.2032 z"
     style="fill:#73ada4;stroke-width:4"
     id="path20" />
  <path
     d="m 121.37,-134.20185 c 2.4246,2.3778 -2.7907,6.3813 -5.2324,8.7414 -2.3947,2.3147 -7.2386,6.6033 -8.7424,4.8374 -1.2511,-1.4691 2.3088,-5.4519 4.3162,-7.5389 2.6323,-2.7367 6.9475,-8.6988 9.6586,-6.04 z"
     style="fill:#73ada4;stroke-width:4"
     id="path22" />
  <path
     d="m 92.78,-125.94785 4.5601,2.958 3.1363,-4.4656 4.7984,3.0551 3.0376,-5.1702 -4.7388,-2.8938 3.1393,-5.1672 -4.5688,-2.5553 -3.2802,5.009 -4.5354,-2.7699 -3.5955,4.8588 5.1441,3.0551 z"
     style="opacity:0.25;fill:#ffffff;stroke-width:4"
     id="path24" />
  <path
     d="m 48.952,-110.01885 c 0,0 -1.9671,9.6838 0.28764,20.422004 1.7971,8.5589 7.3623,20.768 16.108,20.71 4.4487,-0.028 8.1733,-6.1953 8.0538,-10.643 -0.32644,-12.149 -8.0538,-29.914004 -8.0538,-29.914004 0,0 19.364,-14.524 26.463,-34.516 12.059,11.644 32.215,20.422 32.215,20.422 l 5.1775,1.1505 -5.7527,-30.489 -41.42,-10.355 -43.433,33.654 z"
     style="fill:#96dfd3;stroke-width:4"
     id="path26" />
  <path
     d="m 108.54,-68.257846 c 0,0 19.31,3.6067 29.085,6.9152 0.47615,-5.8959 0.77947,-7.4775 2.0339,-10.983 0.75654,-2.1142 3.2542,-5.8983 3.2542,-5.8983 0,0 -0.95308,-3.6298 0.2034,-4.678 4.0794,-0.68452 10.145,-0.47684 14.847,0.81356 1.144,1.1591 0.2034,4.8814 0.2034,4.8814 0,0 1.9552,2.9726 2.2373,4.678 1.1253,6.8032 0.88142,14.5 -2.4407,20.542 -2.2751,4.1383 -6.3561,8.0041 -10.983,8.9492 -11.268,2.3017 -33.153,-9.5593 -33.153,-9.5593 z"
     style="fill:#b02a3c;stroke-width:4"
     id="path28" />
  <path
     d="m 75.999,-33.947846 c 0,0 3.753,-11.005 8,-22.983 1.1996,-3.3832 8.4746,-7.661 8.4746,-7.661 0,0 5.627,0.60984 8.339,0 2.7812,-0.6254 7.7288,-3.661 7.7288,-3.661 0,0 8.3734,2.7928 11.186,5.6949 4.4956,4.638 4.4001,12.152 6.9153,18.102 1.6496,3.902 5.3559,10.508 5.3559,10.508 z"
     style="fill:#e85e5c;stroke-width:4"
     id="path30" />
  <path
     d="m 111.36,-67.157846 -1.125,0.73436 2.2422,7.7344 4.0625,-1.0234 2.2422,6.3047 4.6484,-2.2656 c -0.79686,-2.5724 -1.8536,-4.9748 -3.7031,-6.8828 -1.939,-2.0004 -5.7077,-3.5839 -8.3672,-4.6016 z m -27.398,10.344 c -3.3785,9.5319 -5.2907,15.14 -6.375,18.305 l 5.1953,1.9844 1.4219,-5.8984 3.8672,1.0156 1.625,-7.3203 -4.0703,-1.2188 1.4297,-5.8984 z m 27.5,4.6328 -6.9219,2.2344 1.2266,4.8828 -4.6797,1.8281 3.4531,7.3203 4.0703,-1.625 1.1953,3.5938 h 7.4688 l -1.75,-5.4219 4.0703,-1.2188 -2.4375,-7.3281 -3.8672,1.2266 z"
     style="fill:#ffffff;stroke-width:4"
     id="path32" />
  <path
     d="m 95.516,-46.687846 a 1.0001,1.0001 0 0 0 -0.91406,0.875 l -1.625,11.867 h 2.0156 l 1.5937,-11.594 a 1.0001,1.0001 0 0 0 -1.0703,-1.1484 z"
     style="color:#000000;font-variant-ligatures:normal;font-variant-position:normal;font-variant-caps:normal;font-variant-numeric:normal;font-variant-alternates:normal;font-feature-settings:normal;text-indent:0;text-decoration-line:none;text-decoration-style:solid;text-decoration-color:#000000;text-transform:none;text-orientation:mixed;dominant-baseline:auto;white-space:normal;shape-padding:0;isolation:auto;mix-blend-mode:normal;solid-color:#000000;fill:#b02a3c;color-rendering:auto;image-rendering:auto;shape-rendering:auto"
     id="path34" />
  <ellipse
     cx="81.184998"
     cy="-101.67785"
     rx="6.1122999"
     ry="7.4786"
     style="fill:#4a4a4a;stroke-width:4;paint-order:stroke fill markers"
     id="ellipse36" />
  <ellipse
     transform="matrix(0.98272334,-0.18508063,0.17892064,0.98386351,0,0)"
     cx="135.1947"
     cy="-87.854134"
     rx="5.5448809"
     ry="6.8961754"
     style="fill:#4a4a4a;stroke-width:3.65849;paint-order:stroke fill markers"
     id="ellipse38" />
  <path
     d="m 95.567,-131.08785 2.4449,-3.7393 5.537,3.3798 -2.373,3.6674 z"
     style="fill:#ffffff;stroke-width:4"
     id="path40" />
  <path
     d="m 102.54,-99.807846 -2.0135,-7.334704 6.0404,3.5954 z"
     style="fill:#bf9e73;stroke-width:4"
     id="path42" />
  <path
     d="m 114.3,-100.17785 c 0,0 -9.5648,2.060304 -19.625,8.640604 0,0 0.79506,3.6994 2.25,8.0156 l 17.555,5.4531 h 0.008 c 0.0928,-0.3504 0.2604,-0.73052 0.32032,-1.0625 1.542,-8.5441 -0.50782,-21.047004 -0.50782,-21.047004 z"
     style="fill:#b02a3c;stroke-width:4"
     id="path44" />
  <path
     d="m 103.02,-86.757846 c -2.1785,0.1392 -4.1596,1.4708 -6.0859,3.2344 2.0157,5.9798 5.3401,13.179 9.9531,13.648 3.7063,0.3776 6.585,-4.3238 7.6094,-8.1953 -1.3706,-4.0014 -4.4906,-9.1344 -11.477,-8.6875 z"
     style="fill:#ffb0ac;stroke-width:4"
     id="path46" />
  <rect
     x="20.000004"
     y="20"
     width="152"
     height="152"
     rx="9.9345999"
     opacity="0.63"
     style="fill:#f9de81;fill-opacity:1;opacity:1"
     id="rect2-3" />
  <path
     d="m 88.645,39.265 c 0,0 -1.16,-11.878 0.28764,-17.546 2.0375,-7.9764 9.7596,-14.6750003 16.971,-13.7190003 7.1253,0.94492 15.758,6.0320003 12.656,18.2600003 -1.7427,6.8703 -10.643,17.607 -10.643,17.607 z"
     style="fill:#73ada4;stroke-width:4"
     id="path4-6" />
  <path
     d="m 144.14,124.47 c 0,0 -0.28408,-5.239 1.2203,-7.1186 3.1155,-3.8924 8.8666,-6.1611 13.831,-5.6949 3.707,0.348 8.8731,2.4099 9.3559,6.1017 0.35484,2.7132 -2.8746,5.3022 -5.4915,6.1017 -1.604,0.49004 -5.0848,-0.61016 -5.0848,-0.61016 l -2.2373,3.2542 z"
     style="fill:#d4b79a;stroke-width:4"
     id="path6-7" />
  <circle
     cx="147.99998"
     cy="84"
     r="36"
     style="fill:#728dbe;stroke-width:4.5;paint-order:stroke fill markers"
     id="circle8-5" />
  <path
     d="m 148,48 a 36,36 0 0 0 -14.719,3.1953 c -0.22084,0.38 -0.36972,0.75784 -0.26564,1.0781 0.40477,1.2452 3.6641,1.4219 3.6641,1.4219 0,0 -3.6535,7.354 -7.1172,8.9453 -2.6937,1.2376 -7.1791,0.93768 -10.805,0.41404 a 36,36 0 0 0 -4.7734,9.2891 c 3.3787,-1.342 8.1058,-3.039 11.711,-2.9844 2.2081,0.032 4.1007,2.17 6.3047,2.0313 3.5113,-0.2212 9.5625,-4.4766 9.5625,-4.4766 0,0 5.7571,6.6902 9.5547,6.3047 2.957,-0.3 6.0118,-3.3469 6.3047,-6.3047 0.19268,-1.946 -3.25,-4.8828 -3.25,-4.8828 0,0 11.091,7.3454 13.828,3.461 0.98568,-1.3987 -2.8437,-4.2734 -2.8438,-4.2734 0,0 -1.9644,-2.4786 -0.21092,-3.6563 1.7535,-1.1776 5.1693,4.2894 8.1406,3.8594 0.663,-0.096 1.3698,-0.4826 2.0547,-1.0078 a 36,36 0 0 0 -27.141,-12.414 z m 18.5,23.883 c -1.3138,-0.004 -2.5905,0.2908 -3.5859,0.92968 -2.0767,1.3333 -0.95362,4.8971 -2.0312,7.1172 -0.65733,1.3542 -2.756,2.1626 -2.6484,3.6641 0.20204,2.8216 3.0772,5.8943 5.8984,6.1016 4.4358,0.326 9.976,-3.726 10.578,-8.1328 0.18356,-1.3434 -2.0087,-1.9714 -2.4375,-3.2578 -0.42879,-1.2864 0.88372,-3.0419 0,-4.0703 -1.285,-1.4953 -3.5837,-2.3419 -5.7734,-2.3516 z m 17.43,10.211 c -1.1745,0.71864 -2.8332,2.5965 -5.1484,6.789 -1.078,1.9522 -1.4755,8.826696 -2.0391,10.983996 -0.91067,3.486404 -7.2257,3.629804 -8.1328,7.117204 -0.39956,1.5361 0.42707,3.7073 1.3359,5.5234 a 36,36 0 0 0 14.055,-28.508 36,36 0 0 0 -0.0703,-1.9062 z m -44.609,1.9062 c -2.1212,-0.378 -3.7455,2.7246 -5.8984,2.6406 -0.84885,-0.032 -1.386,-1.2615 -2.2344,-1.2188 -3.1176,0.1572 -7.7266,5.289 -7.7266,5.289 0,0 -2.2688,3.826296 -1.6328,5.695296 1.2493,3.671304 6.6286,4.160404 9.3594,6.914104 4.4924,4.53 9.752,12.663 12.078,16.328 a 36,36 0 0 0 4.7344,0.35156 36,36 0 0 0 7.0859,-0.7422 c 2.5836,-2.9238 5.7977,-7.1038 6,-10.445 0.11912,-1.9672 -2.4453,-3.8672 -2.4453,-3.8672 0,0 1.3095,-2.4815 1.2266,-3.25 -0.11364,-1.0529 -2.4453,-2.031204 -2.4453,-2.031204 0,0 0.6721,-3.6568 -0.40626,-4.8828 -1.9233,-2.186596 -8.5391,-1.835896 -8.5391,-1.835896 0,0 -4.9556,-8.1967 -9.1562,-8.9453 z"
     style="fill:#98dc9a;stroke-width:4"
     id="path10-3" />
  <path
     d="M 35.433,112.61 C 26.5361,105.6759 23.736,96.364996 21.626,85.285 19.5423,74.341 26.2282,62.849 26.2282,62.849 c 0,0 -24.362,-13.34 -15.532,-31.065 3.0898,-6.2029 14.872,-9.971 23.336,-5.1775 5.7849,3.2763 8.5774,5.254 13.481,10.93 5.8663,-4.1162 16.683,-3.4516 16.683,-3.4516 0,0 13.296,-6.6835 20.997,-6.6156 38.682,0.3408 45.22,20.467 46.885,27.901 1.9277,8.6082 -1.3287,17.791 0.28764,26.463 1.8567,9.9617 7.7207,19.727 10.643,28.476 1.6092,4.8188 -5.4955,7.4602 -8.0538,5.4651 -15.82,-12.337 -35.092,-23.586 -35.092,-23.586 0,0 -33.559,21.363 -52.638,23.011 -4.4251,0.3824 -8.2899,0.1416 -11.793,-2.5887 z"
     style="fill:#96dfd3;stroke-width:4"
     id="path12-5" />
  <path
     d="m 42.048,116.06 c 0,0 -8.6957,12.197 -8.9167,19.272 -0.11564,3.7017 0.70523,8.7172 4.0269,10.355 2.1499,1.06 6.9033,-2.0134 6.9033,-2.0134 0,0 0.60103,8.8971 6.328,10.355 10.422,2.653 15.82,-8.3415 15.82,-8.3415 0,0 3.9552,7.3579 7.4786,7.4786 8.9159,0.3056 14.669,-12.081 14.669,-12.081 0,0 -1.0572,6.8704 5.4651,7.7662 9.6039,1.319 12.081,-7.4785 12.081,-7.4785 0,0 2.3647,4.8284 4.6022,4.8898 19.936,0.54696 22.723,-31.928 22.723,-31.928 l -35.667,-44.871 z"
     style="fill:#73ada4;stroke-width:4"
     id="path14-6" />
  <path
     d="m 92.474,141.36 7.526,4.9098 8.5418,-8.5708 -2.6916,-7.8244 -15.676,4.4584 z"
     style="fill:#d4b79a;stroke-width:4"
     id="path16-2" />
  <path
     d="M 34.857,115.78 C 31.4514,101.192 48.951,97.370996 48.951,97.370996 L 84.043,53.363 l 38.543,9.492 c 0,0 -1.3087,13.509 1.1506,19.559 2.084,5.1272 12.066,15.766996 11.505,23.299 -1.1046,14.833 -7.1693,23.328 -28.764,29.051 -30.969,8.208 -49.186,-9.2044 -49.186,-9.2044 0,0 -4.3494,2.8992 -8.3415,2.5888 -6.7808,-0.52732 -12.548,-5.7452 -14.094,-12.368 z"
     style="fill:#e2c9b0;stroke-width:4"
     id="path18-9" />
  <path
     d="m 67.119,88.169 c -0.7359,3.3152 5.8188,3.8276 9.1525,4.4746 3.2695,0.63456 9.6684,1.588296 9.9661,-0.71188 0.24768,-1.9136 -4.9082,-3.3112 -7.7288,-3.9661 -3.6988,-0.85876 -10.567,-3.5036 -11.39,0.2032 z"
     style="fill:#73ada4;stroke-width:4"
     id="path20-1" />
  <path
     d="m 121.37,71.746 c 2.4246,2.3778 -2.7907,6.3813 -5.2324,8.7414 -2.3947,2.3147 -7.2386,6.6033 -8.7424,4.8374 -1.2511,-1.4691 2.3088,-5.4519 4.3162,-7.5389 2.6323,-2.7367 6.9475,-8.6988 9.6586,-6.04 z"
     style="fill:#73ada4;stroke-width:4"
     id="path22-2" />
  <path
     d="m 92.78,80 4.5601,2.958 3.1363,-4.4656 4.7984,3.0551 3.0376,-5.1702 -4.7388,-2.8938 3.1393,-5.1672 -4.5688,-2.5553 -3.2802,5.009 -4.5354,-2.7699 -3.5955,4.8588 5.1441,3.0551 z"
     style="opacity:0.25;fill:#ffffff;stroke-width:4"
     id="path24-7" />
  <path
     d="m 48.952,95.928996 c 0,0 -1.9671,9.683804 0.28764,20.422004 1.7971,8.5589 7.3623,20.768 16.108,20.71 4.4487,-0.028 8.1733,-6.1953 8.0538,-10.643 -0.32644,-12.149 -8.0538,-29.914004 -8.0538,-29.914004 0,0 19.364,-14.523996 26.463,-34.515996 12.059,11.644 32.215,20.422 32.215,20.422 l 5.1775,1.1505 -5.7527,-30.489 -41.42,-10.355 -43.433,33.654 z"
     style="fill:#96dfd3;stroke-width:4"
     id="path26-0" />
  <path
     d="m 108.54,137.69 c 0,0 19.31,3.6067 29.085,6.9152 0.47615,-5.8959 0.77947,-7.4775 2.0339,-10.983 0.75654,-2.1142 3.2542,-5.8983 3.2542,-5.8983 0,0 -0.95308,-3.6298 0.2034,-4.678 4.0794,-0.68452 10.145,-0.47684 14.847,0.81356 1.144,1.1591 0.2034,4.8814 0.2034,4.8814 0,0 1.9552,2.9726 2.2373,4.678 1.1253,6.8032 0.88142,14.5 -2.4407,20.542 -2.2751,4.1383 -6.3561,8.0041 -10.983,8.9492 -11.268,2.3017 -33.153,-9.5593 -33.153,-9.5593 z"
     style="fill:#ba6561;fill-opacity:1;stroke-width:4"
     id="path28-9" />
  <path
     d="m 75.999,172 c 0,0 3.753,-11.005 8,-22.983 1.1996,-3.3832 8.4746,-7.661 8.4746,-7.661 0,0 5.627,0.60984 8.339,0 2.7812,-0.6254 7.7288,-3.661 7.7288,-3.661 0,0 8.3734,2.7928 11.186,5.6949 4.4956,4.638 4.4001,12.152 6.9153,18.102 1.6496,3.902 5.3559,10.508 5.3559,10.508 z"
     style="fill:#ff837d;fill-opacity:1;stroke-width:4"
     id="path30-3" />
  <path
     d="m 111.36,138.79 -1.125,0.73436 2.2422,7.7344 4.0625,-1.0234 2.2422,6.3047 4.6484,-2.2656 c -0.79686,-2.5724 -1.8536,-4.9748 -3.7031,-6.8828 -1.939,-2.0004 -5.7077,-3.5839 -8.3672,-4.6016 z m -27.398,10.344 c -3.3785,9.5319 -5.2907,15.14 -6.375,18.305 l 5.1953,1.9844 1.4219,-5.8984 3.8672,1.0156 1.625,-7.3203 -4.0703,-1.2188 1.4297,-5.8984 z m 27.5,4.6328 -6.9219,2.2344 1.2266,4.8828 -4.6797,1.8281 3.4531,7.3203 4.0703,-1.625 1.1953,3.5938 h 7.4688 l -1.75,-5.4219 4.0703,-1.2188 -2.4375,-7.3281 -3.8672,1.2266 z"
     style="fill:#ffffff;stroke-width:4"
     id="path32-6" />
  <path
     d="m 95.516,159.26 a 1.0001,1.0001 0 0 0 -0.91406,0.875 l -1.625,11.867 h 2.0156 l 1.5937,-11.594 a 1.0001,1.0001 0 0 0 -1.0703,-1.1484 z"
     style="color:#000000;font-variant-ligatures:normal;font-variant-position:normal;font-variant-caps:normal;font-variant-numeric:normal;font-variant-alternates:normal;font-feature-settings:normal;text-indent:0;text-decoration-line:none;text-decoration-style:solid;text-decoration-color:#000000;text-transform:none;text-orientation:mixed;dominant-baseline:auto;white-space:normal;shape-padding:0;isolation:auto;mix-blend-mode:normal;solid-color:#000000;fill:#ba6561;fill-opacity:1;color-rendering:auto;image-rendering:auto;shape-rendering:auto"
     id="path34-0" />
  <ellipse
     cx="81.184998"
     cy="104.27"
     rx="6.1122999"
     ry="7.4786"
     style="fill:#4a4a4a;stroke-width:4;paint-order:stroke fill markers"
     id="ellipse36-6" />
  <ellipse
     transform="matrix(0.98272334,-0.18508063,0.17892064,0.98386351,0,0)"
     cx="98.345673"
     cy="114.5396"
     rx="5.5448809"
     ry="6.8961754"
     style="fill:#4a4a4a;stroke-width:3.65849;paint-order:stroke fill markers"
     id="ellipse38-2" />
  <path
     d="m 95.567,74.86 2.4449,-3.7393 5.537,3.3798 -2.373,3.6674 z"
     style="fill:#ffffff;stroke-width:4"
     id="path40-6" />
  <path
     d="m 102.54,106.14 -2.0135,-7.334704 6.0404,3.595404 z"
     style="fill:#bf9e73;stroke-width:4"
     id="path42-1" />
  <path
     d="m 114.3,105.77 c 0,0 -9.5648,2.0603 -19.625,8.6406 0,0 0.79506,3.6994 2.25,8.0156 l 17.555,5.4531 h 0.008 c 0.0928,-0.3504 0.2604,-0.73052 0.32032,-1.0625 1.542,-8.5441 -0.50782,-21.047 -0.50782,-21.047 z"
     style="fill:#ff837d;fill-opacity:1;stroke-width:4"
     id="path44-8" />
  <path
     d="m 103.02,119.19 c -2.1785,0.1392 -4.1596,1.4708 -6.0859,3.2344 2.0157,5.9798 5.3401,13.179 9.9531,13.648 3.7063,0.3776 6.585,-4.3238 7.6094,-8.1953 -1.3706,-4.0014 -4.4906,-9.1344 -11.477,-8.6875 z"
     style="fill:#ffb0ac;stroke-width:4"
     id="path46-7" />
</svg>
