<svg xmlns="http://www.w3.org/2000/svg" width="192" height="192"><circle cx="96" cy="96" r="88" opacity=".63" style="fill:#ff837d;stroke:none;stroke-width:1;stroke-miterlimit:4;stroke-dasharray:none;fill-opacity:1;opacity:1"/><ellipse cx="96" cy="96" rx="41.156" ry="41.719" style="fill:#98dc9a;fill-opacity:1;fill-rule:evenodd;stroke-width:1"/><path d="M94.97 155.755c-.774-.124-1.65-.413-2.437-.803-1.587-.787-2.702-1.902-3.491-3.49-.648-1.306-.811-2-.81-3.453.002-.87.04-1.317.146-1.706.417-1.535.986-2.562 2.008-3.627l.4-.418v-20.531l-.656-.196c-1.548-.464-2.856-1.232-3.929-2.308-1.64-1.643-2.538-3.719-3.064-7.082-.08-.511-.107-8.188-.127-35.93-.027-39.33-.08-35.852.557-37.144.664-1.345 2.048-2.416 3.523-2.724 2.636-.552 5.183.938 6.084 3.56l.172.502.04 34.65.041 34.648.222.422c.275.52.708.95 1.24 1.23.347.183.508.215 1.097.215.59 0 .75-.032 1.097-.214.533-.28.966-.71 1.24-1.231l.222-.422.041-34.649c.04-33.413.046-34.665.19-35.096.756-2.25 2.747-3.734 5.01-3.734 1.925 0 3.986 1.03 4.614 2.84.776 2.24.582-2.096.583 36.396 0 23.505-.026 34.867-.084 35.503-.315 3.446-1.502 6.313-3.402 8.213-1.023 1.023-2.147 1.731-3.54 2.231l-.73.262-.021 10.294-.021 10.294.401.419c1.024 1.066 1.598 2.104 2.007 3.627.222.829.202 2.674-.04 3.574-.63 2.337-2.176 4.188-4.348 5.204-.987.46-1.865.662-3.016.69-.536.012-1.084.004-1.218-.015z" style="fill:#fff;fill-opacity:1;stroke-width:.999999"/></svg>