<?xml version="1.0" encoding="UTF-8"?>
<svg version="1.1" viewBox="0 0 192 192" xml:space="preserve" xmlns="http://www.w3.org/2000/svg">
	 <path d="m96 84.817q20.707 0 38.705-3.7569 17.998-3.7569 28.395-11.096v14.853q0 6.0285-8.9991 11.183-8.9991 5.1548-24.464 8.1691-15.464 3.0142-33.637 3.0142-18.173 0-33.637-3.0142-15.464-3.0143-24.464-8.1691-8.9991-5.1548-8.9991-11.183v-14.853q10.397 7.3391 28.395 11.096 17.998 3.7569 38.705 3.7569zm0 67.1q20.707 0 38.705-3.7569 17.998-3.7569 28.395-11.096v14.853q0 6.0285-8.9991 11.183-8.9991 5.1548-24.464 8.1691-15.464 3.0142-33.637 3.0142-18.173 0-33.637-3.0142-15.464-3.0143-24.464-8.1691-8.9991-5.1548-8.9991-11.183v-14.853q10.397 7.3391 28.395 11.096 17.998 3.7569 38.705 3.7569zm0-33.55q20.707 0 38.705-3.7569 17.998-3.7569 28.395-11.096v14.853q0 6.0285-8.9991 11.183-8.9991 5.1548-24.464 8.1691-15.464 3.0142-33.637 3.0142-18.173 0-33.637-3.0142-15.464-3.0143-24.464-8.1691-8.9991-5.1548-8.9991-11.183v-14.853q10.397 7.3391 28.395 11.096 17.998 3.7569 38.705 3.7569zm0-100.65q18.173 0 33.637 3.0143 15.464 3.0143 24.464 8.1691 8.9991 5.1548 8.9991 11.183v11.183q0 6.0285-8.9991 11.183-8.9991 5.1548-24.464 8.1691-15.464 3.0143-33.637 3.0143-18.173 0-33.637-3.0143-15.464-3.0143-24.464-8.1691-8.9991-5.1548-8.9991-11.183v-11.183q0-6.0285 8.9991-11.183 8.9991-5.1548 24.464-8.1691 15.464-3.0143 33.637-3.0143z" fill="#bd9aff" stroke-width=".08737"/></svg>
