<svg xmlns="http://www.w3.org/2000/svg" id="svg2" width="192" height="192" version="1.1"><g id="layer1" transform="translate(0 -860.362)"><path id="path1141" d="m89.647 879.884-76.343 67.153a8.78 8.78 0 0 0 5.798 15.372h9.147v60.996a11.832 11.832 0 0 0 11.832 11.832H151.92a11.832 11.832 0 0 0 11.832-11.832v-60.996h9.147a8.78 8.78 0 0 0 5.798-15.372l-76.343-67.153a9.62 9.62 0 0 0-12.706 0z" style="fill:#96dfd3;fill-opacity:1;stroke:none;stroke-width:15.0191;stroke-linecap:round;stroke-linejoin:round;stop-color:#000"/><path id="path1143" d="M76.545 983.059A22.465 15.795 0 0 1 96 975.16a22.465 15.795 0 0 1 19.455 7.898" style="fill:none;fill-opacity:1;stroke:#73ada4;stroke-width:12;stroke-linecap:round;stroke-linejoin:round;stroke-miterlimit:4;stroke-dasharray:none;stroke-opacity:1;stop-color:#000"/><path id="path1145" d="M58.576 965.674A43.214 30.383 0 0 1 96 950.482a43.214 30.383 0 0 1 37.425 15.192" style="fill:none;fill-opacity:1;stroke:#73ada4;stroke-width:12;stroke-linecap:round;stroke-linejoin:round;stroke-miterlimit:4;stroke-dasharray:none;stroke-opacity:1;stop-color:#000"/></g><style id="style853" type="text/css">.st0{fill:#fff}</style></svg>