<?xml version="1.0" encoding="UTF-8" standalone="no"?>
<svg
   xmlns:dc="http://purl.org/dc/elements/1.1/"
   xmlns:cc="http://creativecommons.org/ns#"
   xmlns:rdf="http://www.w3.org/1999/02/22-rdf-syntax-ns#"
   xmlns:svg="http://www.w3.org/2000/svg"
   xmlns="http://www.w3.org/2000/svg"
   xmlns:sodipodi="http://sodipodi.sourceforge.net/DTD/sodipodi-0.dtd"
   xmlns:inkscape="http://www.inkscape.org/namespaces/inkscape"
   width="192"
   height="192"
   viewBox="0 0 192 192"
   version="1.1"
   id="svg6"
   sodipodi:docname="trading212.svg"
   inkscape:export-filename="/home/jphilippe/github/delta/android/contributed-vectors/trading212.png"
   inkscape:export-xdpi="96"
   inkscape:export-ydpi="96"
   inkscape:version="1.0.1 (3bc2e813f5, 2020-09-07)">
  <metadata
     id="metadata12">
    <rdf:RDF>
      <cc:Work
         rdf:about="">
        <dc:format>image/svg+xml</dc:format>
        <dc:type
           rdf:resource="http://purl.org/dc/dcmitype/StillImage" />
      </cc:Work>
    </rdf:RDF>
  </metadata>
  <defs
     id="defs10" />
  <sodipodi:namedview
     pagecolor="#ffffff"
     bordercolor="#666666"
     borderopacity="1"
     objecttolerance="10"
     gridtolerance="10"
     guidetolerance="10"
     inkscape:pageopacity="0"
     inkscape:pageshadow="2"
     inkscape:window-width="1884"
     inkscape:window-height="1052"
     id="namedview8"
     showgrid="false"
     inkscape:zoom="3.3697917"
     inkscape:cx="96"
     inkscape:cy="96"
     inkscape:window-x="36"
     inkscape:window-y="0"
     inkscape:window-maximized="1"
     inkscape:current-layer="svg6" />
  <rect
     width="153"
     height="153"
     fill="#56595b"
     rx="10"
     x="19.5"
     y="19.5"
     id="rect2" />
  <path
     transform="scale(0.28) translate(96, 96)"
     fill="#9ABEFF"
     d="M 256.00,236.09            C 256.00,236.09 200.88,359.75 200.88,359.75              198.48,364.87 193.78,367.26 189.50,367.25              189.50,367.25 129.12,367.50 129.12,367.50              125.12,367.12 117.88,360.88 123.62,349.25              123.62,349.25 135.25,324.88 135.25,324.88              135.25,324.88 210.38,157.38 210.38,157.38              211.50,152.50 215.62,144.12 224.50,144.00              224.50,144.00 287.50,144.00 287.50,144.00              296.09,144.00 300.50,152.50 301.62,157.38              301.62,157.38 376.75,324.88 376.75,324.88              376.75,324.88 388.38,349.25 388.38,349.25              394.12,360.88 386.88,367.12 382.88,367.50              382.88,367.50 322.50,367.25 322.50,367.25              318.22,367.26 313.52,364.87 311.12,359.75              311.12,359.75 256.00,236.09 256.00,236.09 Z"
     id="path4" />
</svg>
