<svg xmlns="http://www.w3.org/2000/svg" width="192" height="192"><rect width="127" height="175" x="32.5" y="-183.5" rx="10" style="fill:#fff;fill-rule:evenodd;stroke:none;fill-opacity:1" transform="rotate(90)"/><path d="m74.952 91.34-31.337 24.74c-4.948-9.897-.66-21.772 9.236-26.39 2.639-1.32 5.608-1.979 8.906-1.979 1.65-14.514 14.844-24.74 29.358-22.76 10.556 1.319 19.132 8.576 22.101 18.802 2.639-1.65 5.938-2.64 9.236-2.64 3.959 0 7.257 1.32 10.226 3.3l-20.451 20.45c-.99-.329-1.98-.659-2.97-.659-1.319 0-2.308.33-3.628.66L90.785 91.669c1.32-4.288-.99-8.906-5.277-10.225-4.289-1.32-8.907.99-10.226 5.277a7.566 7.566 0 0 0-.33 4.619zm65.643 7.257c0-3.3-1.32-6.598-3.299-9.567l-20.451 20.452c.66 1.65.66 3.629.33 5.608-1.32 4.288-5.938 6.597-10.226 5.278-4.289-1.32-6.598-5.938-5.278-10.226L86.497 96.947c-.99.66-2.309.66-3.628.66-1.32 0-2.64-.33-3.959-.99l-31.337 25.07c3.629 3.629 8.577 5.608 13.854 5.608h74.22c6.267 0 11.875-3.959 13.854-9.896 2.969-7.587-1.32-16.164-8.906-18.802z" style="fill:#9abefe;fill-opacity:1;stroke-width:1.19823921"/></svg>