<?xml version="1.0" encoding="UTF-8" standalone="no"?>
<!DOCTYPE svg PUBLIC "-//W3C//DTD SVG 20010904//EN"
        "http://www.w3.org/TR/2001/REC-SVG-20010904/DTD/svg10.dtd">

<svg xmlns="http://www.w3.org/2000/svg"
     width="192" height="192"
     viewBox="0 0 192 192">
    <rect width="153" height="153" fill="#4A4A4A" rx="10" x="19.5" y="19.5"/>
    <path
            transform="scale(0.28) translate(96, 96)"
            fill="#9ABEFF"
            d="M 256.00,236.09
           C 256.00,236.09 200.88,359.75 200.88,359.75
             198.48,364.87 193.78,367.26 189.50,367.25
             189.50,367.25 129.12,367.50 129.12,367.50
             125.12,367.12 117.88,360.88 123.62,349.25
             123.62,349.25 135.25,324.88 135.25,324.88
             135.25,324.88 210.38,157.38 210.38,157.38
             211.50,152.50 215.62,144.12 224.50,144.00
             224.50,144.00 287.50,144.00 287.50,144.00
             296.09,144.00 300.50,152.50 301.62,157.38
             301.62,157.38 376.75,324.88 376.75,324.88
             376.75,324.88 388.38,349.25 388.38,349.25
             394.12,360.88 386.88,367.12 382.88,367.50
             382.88,367.50 322.50,367.25 322.50,367.25
             318.22,367.26 313.52,364.87 311.12,359.75
             311.12,359.75 256.00,236.09 256.00,236.09 Z"/>
</svg>
