<?xml version="1.0" encoding="UTF-8"?>
<svg width="192" height="192" version="1.1" viewBox="0 0 192 192" xml:space="preserve" xmlns="http://www.w3.org/2000/svg" xmlns:cc="http://creativecommons.org/ns#" xmlns:dc="http://purl.org/dc/elements/1.1/" xmlns:rdf="http://www.w3.org/1999/02/22-rdf-syntax-ns#" xmlns:xlink="http://www.w3.org/1999/xlink"><metadata><rdf:RDF><cc:Work rdf:about=""><dc:format>image/svg+xml</dc:format><dc:type rdf:resource="http://purl.org/dc/dcmitype/StillImage"/></cc:Work></rdf:RDF></metadata><defs><linearGradient id="linearGradient1287" x1="176.24" x2="16.818" y1="96" y2="96" gradientUnits="userSpaceOnUse"><stop stop-color="#9abeff" offset="0"/><stop stop-color="#bd9aff" offset="1"/></linearGradient></defs><path id="path" d="m62.989 83.714-4.1553 12.294h-10.611l17.789-47.786h12.277l17.72 47.786h-11.161l-4.1553-12.294zm15.608-7.0228-6.4905-19.334h-0.46362l-6.4905 19.317h13.462z" display="none" fill="#fff" stroke-width="17.171"/><path d="m38.658 19.547c-5.0653 0-9.925 2.009-13.514 5.5977-3.5887 3.5887-5.5977 8.4483-5.5977 13.514v66.896c0 5.0653 2.009 9.925 5.5977 13.514 3.5887 3.5886 8.4483 5.5977 13.514 5.5977h28.676v28.676c0 5.0654 2.009 9.925 5.5977 13.514 3.5887 3.5887 8.4483 5.5976 13.514 5.5976h66.896c5.0654 0 9.925-2.009 13.514-5.5976 3.5887-3.5886 5.5976-8.4483 5.5976-13.514v-66.896c0-5.0653-2.009-9.925-5.5976-13.514-3.5887-3.5887-8.4483-5.5977-13.514-5.5977h-28.676v-28.676c0-5.0653-2.009-9.925-5.5977-13.514-3.5887-3.5887-8.4483-5.5977-13.514-5.5977h-66.896zm0 9.5645h66.896c2.5412 0 4.9627 1.0131 6.7656 2.7988 1.7858 1.8029 2.7988 4.2244 2.7988 6.7656v66.896c0 2.5412-1.0131 4.9627-2.7988 6.7656-1.8029 1.7858-4.2244 2.7988-6.7656 2.7988h-66.896c-2.5413 0-4.9627-1.0131-6.7656-2.7988-1.7857-1.8029-2.7988-4.2244-2.7988-6.7656v-66.896c0-2.5413 1.0131-4.9627 2.7988-6.7656 1.8029-1.7857 4.2244-2.7988 6.7656-2.7988zm27.564 19.111-17.203 47.785h11.229l2.9473-8.998h17.84l2.9473 8.998h11.23l-17.203-47.785h-11.787zm5.8926 11.07 6.1328 18.955h-12.266l6.1328-18.955zm52.533 36.699h28.676v10.01h-11.453c-3.8119 10.577-8.9806 19.214-15.488 26.357 7.2976 5.6491 16.21 9.8563 26.959 12.277-2.0605 2.0605-4.7391 6.077-6.0098 8.498-11.384-2.9362-20.588-7.7094-28.006-14.062-7.6924 6.2158-16.827 10.853-27.576 14.287-0.99591-2.2322-3.6048-6.2172-5.3047-8.2949 10.474-2.7816 19.316-6.8511 26.459-12.346-2.1807-2.5241-4.1901-5.2013-6.0274-8.0859h-0.01562c3.1937-0.22321 6.2827-1.2365 8.9785-2.9707 1.2363 1.6312 2.5588 3.2112 3.9668 4.7051 5.0825-5.5976 9.119-12.295 12.158-20.365h-7.3164v-10.01z" fill="url(#linearGradient1287)" stroke-width="17.171"/></svg>
