<svg xmlns="http://www.w3.org/2000/svg" id="svg2" width="192" height="192" version="1.1"><g id="layer1" transform="translate(0 -860.362)"><circle id="circle993" cx="96" cy="956.362" r="88" style="fill:#97db99;fill-opacity:1;fill-rule:evenodd;stroke:none;stroke-opacity:1"/><path id="path995" fill="#00937b" d="M132.5 958.05c0-9.747-3.58-18.897-10.144-26.058-3.382-3.58-7.161-6.564-11.537-8.752l-.995 1.591c2.387 1.393 4.575 3.183 6.564 5.172 6.763 6.962 10.543 16.112 10.741 25.858 0 1.393 0 3.78-.198 5.769-1.194-4.177-3.382-7.957-6.366-11.14-.994-1.193-1.989-2.187-3.381-2.784-.199 2.984-.796 5.967-1.591 8.951 1.193.796 2.188 1.79 3.182 2.785 2.586 2.387 4.177 5.768 4.376 9.348 0 1.79-.795 3.58-2.188 4.774-1.989 1.592-4.376 2.387-6.962 2.387-3.779-.199-7.558-1.392-10.74-3.58 4.972-4.973 8.552-11.14 10.144-17.902a34.988 34.988 0 0 0 1.193-9.15c0-5.172-1.193-10.343-3.78-14.918-3.38-6.365-9.945-10.343-17.105-10.343-8.951.198-17.505 4.177-23.472 10.74-6.763 6.565-10.741 15.715-10.741 25.262 0 1.592 0 3.183.199 4.774h1.79c0-9.548 3.78-18.499 10.741-25.063 3.58-3.381 7.559-6.365 12.134-8.354-3.183 2.984-5.37 6.962-6.564 11.14a15.142 15.142 0 0 0-.597 4.176c2.785-1.392 5.57-2.387 8.553-2.983.398-4.177 2.188-7.957 4.973-11.14 1.392-1.392 3.182-2.386 5.172-2.386 3.182.199 5.967 2.188 7.36 4.972 1.79 3.382 2.585 7.36 2.187 11.14a33.418 33.418 0 0 0-20.686 0c-5.769 1.392-10.94 4.375-15.118 8.553a23.827 23.827 0 0 0-7.36 15.713 21.906 21.906 0 0 0 7.162 15.515c7.16 6.763 16.509 10.742 26.455 10.543 7.757 0 15.117-2.387 21.482-6.763l-.398-1.194c-4.973 2.785-10.542 4.177-16.31 4.177-8.753.2-17.107-2.585-24.069-7.757 1.79.597 3.78.994 5.769.994 3.779 0 7.558-.795 10.94-2.386-2.586-1.79-4.973-3.78-6.962-5.968-2.586.995-5.57 1.79-8.354 1.79-2.785.2-5.37-.795-7.36-2.585-1.193-1.194-1.79-2.785-1.79-4.575.199-3.382 1.79-6.763 4.376-8.951 1.591-1.79 3.58-3.183 5.768-4.177 1.79 6.763 5.37 13.128 10.344 18.1 5.768 5.968 13.724 9.548 22.079 9.946 5.37.199 10.542-1.79 14.321-5.37 4.376-5.57 6.763-12.73 6.763-19.892m-27.648-5.967c-1.79 5.57-4.973 10.542-9.15 14.72-3.979-4.377-6.564-9.548-7.957-15.317 2.387-.596 4.774-.795 7.161-.795 3.381 0 6.763.596 9.946 1.392" style="fill:#fff;fill-opacity:1;stroke-width:1.9891"/></g><style id="style853" type="text/css">.st0{fill:#fff}</style></svg>