<?xml version="1.0" encoding="UTF-8" standalone="no"?>
<svg
   xmlns:dc="http://purl.org/dc/elements/1.1/"
   xmlns:cc="http://creativecommons.org/ns#"
   xmlns:rdf="http://www.w3.org/1999/02/22-rdf-syntax-ns#"
   xmlns:svg="http://www.w3.org/2000/svg"
   xmlns="http://www.w3.org/2000/svg"
   xmlns:sodipodi="http://sodipodi.sourceforge.net/DTD/sodipodi-0.dtd"
   xmlns:inkscape="http://www.inkscape.org/namespaces/inkscape"
   viewBox="0 0 192 192"
   version="1.1"
   id="svg16"
   sodipodi:docname="trivia_crack.svg"
   inkscape:version="0.92.4 (5da689c313, 2019-01-14)">
  <metadata
     id="metadata20">
    <rdf:RDF>
      <cc:Work
         rdf:about="">
        <dc:format>image/svg+xml</dc:format>
        <dc:type
           rdf:resource="http://purl.org/dc/dcmitype/StillImage" />
        <dc:title />
      </cc:Work>
    </rdf:RDF>
  </metadata>
  <sodipodi:namedview
     pagecolor="#ffffff"
     bordercolor="#666666"
     borderopacity="1"
     objecttolerance="10"
     gridtolerance="10"
     guidetolerance="10"
     inkscape:pageopacity="0"
     inkscape:pageshadow="2"
     inkscape:window-width="1920"
     inkscape:window-height="1017"
     id="namedview18"
     showgrid="true"
     inkscape:zoom="8.6065597"
     inkscape:cx="82.035161"
     inkscape:cy="104.43993"
     inkscape:window-x="-8"
     inkscape:window-y="-8"
     inkscape:window-maximized="1"
     inkscape:current-layer="svg16"
     inkscape:snap-global="true">
    <inkscape:grid
       type="xygrid"
       id="grid827"
       spacingx="4"
       spacingy="4" />
  </sodipodi:namedview>
  <defs
     id="defs4">
    <style
       id="style2">.a{fill:none;stroke:#b1b5bd;stroke-linecap:round;stroke-linejoin:round;isolation:isolate;opacity:0.63;}</style>
    <clipPath
       id="clipPath1433">
      <rect
         id="rect821"
         fill="#fff"
         rx="10"
         height="152"
         width="152"
         y="20"
         x="20"
         class="a" />
    </clipPath>
    <clipPath
       id="clipPath1437">
      <rect
         id="rect824"
         fill="#fff"
         rx="10"
         height="152"
         width="152"
         y="20"
         x="20"
         class="a" />
    </clipPath>
    <clipPath
       id="clipPath1441">
      <rect
         id="rect827"
         fill="#fff"
         rx="10"
         height="152"
         width="152"
         y="20"
         x="20"
         class="a" />
    </clipPath>
    <clipPath
       id="clipPath1445">
      <rect
         id="rect830"
         fill="#fff"
         rx="10"
         height="152"
         width="152"
         y="20"
         x="20"
         class="a" />
    </clipPath>
    <clipPath
       id="clipPath1449">
      <rect
         id="rect833"
         fill="#fff"
         rx="10"
         height="152"
         width="152"
         y="20"
         x="20"
         class="a" />
    </clipPath>
    <clipPath
       id="clipPath1453">
      <rect
         id="rect836"
         fill="#fff"
         rx="10"
         height="152"
         width="152"
         y="20"
         x="20"
         class="a" />
    </clipPath>
  </defs>
  <path
     style="fill:#ff837d;stroke-width:1.15789473"
     clip-path="none"
     d="M 181.12109,74.111328 C 182.99578,81.25777 183.96303,88.611853 184,96 c -0.0322,18.99268 -6.20823,37.46524 -17.60547,52.6582 l -16.75391,-13.38086 -32.80078,-26.88867 7.86133,-19.568358 c 0,0 56.21092,-14.921059 56.41992,-14.708984 z"
     id="path865-0"
     inkscape:connector-curvature="0"
     sodipodi:nodetypes="ccccccc" />
  <path
     style="fill:#f8c18c;stroke-width:1.15789473"
     clip-path="none"
     d="m 129.87695,14.871094 c 27.55464,11.520328 47.38554,36.229905 52.66797,65.625 l -38.56074,6.285533 -19.28301,2.044545 -22.69922,-6.25586 z"
     id="path867-9"
     inkscape:connector-curvature="0"
     sodipodi:nodetypes="cccccc" />
  <path
     style="fill:#98dc9a;stroke-width:1.15789473"
     clip-path="none"
     d="M 62.123047,14.871094 C 34.568415,26.391422 14.737508,51.100999 9.4550781,80.496094 l 38.5607429,6.285533 19.283007,2.044545 22.699219,-6.25586 z"
     id="path867"
     inkscape:connector-curvature="0"
     sodipodi:nodetypes="cccccc" />
  <path
     style="fill:#bd9aff;stroke-width:1.15789473"
     clip-path="none"
     d="m 116.83984,108.39062 26.02735,21.39454 23.54297,18.84961 C 150.46172,169.94099 124,183.84375 96,183.84375 L 71.47532,148.25972 99.130859,111.31836 Z"
     id="path863-9"
     inkscape:connector-curvature="0"
     sodipodi:nodetypes="ccccccc" />
  <path
     style="fill:#8c72bd;stroke-width:1.15789473"
     clip-path="none"
     d="M 75.160156 108.39062 L 49.132812 129.78516 L 25.589844 148.63477 C 41.538284 169.94099 68 183.84375 96 183.84375 L 96 115.5 L 92.869141 111.31836 L 75.160156 108.39062 z "
     id="path863" />
  <path
     style="fill:#f9de81;stroke-width:1.15789473"
     clip-path="none"
     d="M 96 8 A 88 88 0 0 0 57.162109 17.091797 L 89.998047 82.570312 L 96 82.570312 L 102.00195 82.570312 L 134.83789 17.091797 A 88 88 0 0 0 96 8 z "
     id="path855" />
  <path
     style="fill:#9abeff;stroke-width:1.15789473"
     clip-path="none"
     d="M 10.878906,74.111328 C 9.004219,81.25777 8.0369738,88.611853 8,96 c 0.032214,18.99268 6.208234,37.46524 17.605469,52.6582 L 42.359375,135.27734 75.160156,108.38867 67.298828,88.820312 c 0,0 -56.210917,-14.921059 -56.419922,-14.708984 z"
     id="path865"
     inkscape:connector-curvature="0"
     sodipodi:nodetypes="ccccccc" />
  <path
     style="fill:#ffffff;stroke-width:6.32005024;stroke-linecap:round;stroke-linejoin:round"
     inkscape:connector-curvature="0"
     d="M 95.999751,47.19073 83.69761,62.119273 v 0 c -14.099429,5.158014 -23.491783,18.565214 -23.532374,33.589971 0,19.808516 16.043298,35.866086 35.833764,35.866086 19.79047,-2.1e-4 35.83376,-16.05757 35.83376,-35.866086 -0.002,-15.056328 -9.40062,-28.508554 -23.52861,-33.67867 v 0 z"
     id="path869" />
  <path
     style="fill:#d8d8d8;stroke-width:5.5996623;stroke-linecap:round;stroke-linejoin:round"
     inkscape:connector-curvature="0"
     d="M 95.999665,52 85.099778,65.22692 v 0 C 72.607466,69.797 64.285695,81.675986 64.249731,94.988153 c 0,17.550647 14.21461,31.777907 31.749269,31.777907 17.53466,-1.9e-4 31.74927,-14.22726 31.74927,-31.777907 -0.002,-13.340139 -8.3291,-25.259019 -20.84672,-29.839822 v 0 z"
     id="path869-8" />
  <path
     style="fill:none;stroke:#56595b;stroke-width:0.57077247;stroke-linecap:round;stroke-linejoin:round"
     inkscape:connector-curvature="0"
     d="m 69.627497,87.088125 c 13.377808,21.758385 40.267973,21.665175 53.010613,0 -9.92831,19.041775 -38.05501,23.136235 -53.010613,0 z"
     id="path873" />
  <path
     style="fill:#56595b;stroke:#56595b;stroke-width:0.57077247;stroke-linecap:round;stroke-linejoin:round"
     inkscape:connector-curvature="0"
     d="m 66.719964,87.961587 c 0,0 1.328836,-1.958676 2.372255,-2.069024 1.670027,-0.176692 4.405649,2.443591 4.405649,2.443591 0,0 -2.679471,-1.578547 -4.154961,-1.532544 -0.955246,0.02977 -2.623019,1.157977 -2.623019,1.157977 z"
     id="path875" />
  <path
     style="fill:#56595b;stroke:#56595b;stroke-width:0.58428496;stroke-linecap:round;stroke-linejoin:round"
     inkscape:connector-curvature="0"
     d="m 127.02538,87.927936 c 0,0 -1.36029,-2.005046 -2.42841,-2.118006 -1.70957,-0.180875 -4.50995,2.50144 -4.50995,2.50144 0,0 2.7429,-1.615917 4.25332,-1.568825 0.97786,0.03047 2.68512,1.185391 2.68512,1.185391 z"
     id="path877" />
  <path
     style="fill:#56595b;stroke:#56595b;stroke-width:4.18194628;stroke-linecap:round;stroke-linejoin:round"
     inkscape:connector-curvature="0"
     d="M 86.433758,78.912004 V 92.283798"
     id="path879" />
  <path
     style="fill:#56595b;stroke:#56595b;stroke-width:4.18194628;stroke-linecap:round;stroke-linejoin:round"
     inkscape:connector-curvature="0"
     d="M 105.5011,78.912004 V 92.283798"
     id="path881" />
  <ellipse
     style="fill:#56595b;stroke-width:0.75168896"
     transform="rotate(-23.99)"
     cx="49.76342"
     cy="95.623093"
     rx="2.948951"
     ry="1.2337471"
     id="ellipse883" />
  <ellipse
     style="fill:#56595b;stroke-width:0.7516923"
     transform="matrix(-0.91361598,-0.40657821,-0.40657821,0.91361598,0,0)"
     cx="-125.57548"
     cy="17.592684"
     rx="2.9489639"
     ry="1.2337525"
     id="ellipse885" />
</svg>
