<?xml version="1.0" encoding="UTF-8" standalone="no"?>
<svg
   xmlns:dc="http://purl.org/dc/elements/1.1/"
   xmlns:cc="http://creativecommons.org/ns#"
   xmlns:rdf="http://www.w3.org/1999/02/22-rdf-syntax-ns#"
   xmlns:svg="http://www.w3.org/2000/svg"
   xmlns="http://www.w3.org/2000/svg"
   xmlns:sodipodi="http://sodipodi.sourceforge.net/DTD/sodipodi-0.dtd"
   xmlns:inkscape="http://www.inkscape.org/namespaces/inkscape"
   sodipodi:docname="true_phone.svg"
   inkscape:version="1.0.1 (3bc2e813f5, 2020-09-07)"
   version="1.1"
   id="svg2"
   viewBox="0 0 192 192"
   height="192"
   width="192"
   inkscape:export-filename="/home/jphilippe/inkscape/icônes/delta-github/png/true_phone.png"
   inkscape:export-xdpi="96"
   inkscape:export-ydpi="96">
  <sodipodi:namedview
     inkscape:document-rotation="0"
     inkscape:window-maximized="1"
     inkscape:window-y="0"
     inkscape:window-x="36"
     inkscape:window-height="1052"
     inkscape:window-width="1884"
     units="px"
     showgrid="false"
     inkscape:current-layer="layer1"
     inkscape:document-units="px"
     inkscape:cy="759.76499"
     inkscape:cx="-1210.3214"
     inkscape:zoom="0.1767767"
     inkscape:pageshadow="2"
     inkscape:pageopacity="0.0"
     borderopacity="1.0"
     bordercolor="#666666"
     pagecolor="#ffffff"
     id="base"
     inkscape:snap-bbox="false"
     inkscape:object-paths="true"
     inkscape:snap-nodes="true"
     showguides="true"
     inkscape:guide-bbox="true"
     inkscape:snap-object-midpoints="true"
     inkscape:snap-center="true"
     inkscape:snap-global="false"
     inkscape:snap-intersection-paths="true"
     inkscape:snap-smooth-nodes="true"
     inkscape:snap-midpoints="true" />
  <defs
     id="defs4">
    <inkscape:path-effect
       effect="fillet_chamfer"
       id="path-effect959"
       is_visible="true"
       lpeversion="1"
       satellites_param="F,0,1,1,0,5,0,1 @ F,0,0,1,0,0,0,1 @ F,0,1,1,0,5,0,1"
       unit="px"
       method="auto"
       mode="F"
       radius="5"
       chamfer_steps="1"
       flexible="false"
       use_knot_distance="true"
       apply_no_radius="true"
       apply_with_radius="true"
       only_selected="true"
       hide_knots="false" />
  </defs>
  <metadata
     id="metadata7">
    <rdf:RDF>
      <cc:Work
         rdf:about="">
        <dc:format>image/svg+xml</dc:format>
        <dc:type
           rdf:resource="http://purl.org/dc/dcmitype/StillImage" />
        <dc:title></dc:title>
      </cc:Work>
    </rdf:RDF>
  </metadata>
  <g
     transform="translate(0,-860.36216)"
     id="layer1"
     inkscape:groupmode="layer"
     inkscape:label="Calque 1">
    <g
       id="g987"
       transform="translate(-270.39783,-2.2617187e-5)">
      <rect
         style="fill:#70a270;fill-opacity:1;fill-rule:evenodd;stroke:none;stroke-opacity:1"
         width="153"
         height="153"
         x="289.89783"
         y="879.86218"
         rx="10"
         id="rect926" />
      <path
         id="path928"
         style="fill:#fefefe;fill-opacity:1;stroke-width:0.449836"
         d="m 343.03795,920.3098 c -2.83303,0.36738 -4.82958,2.66649 -6.62632,4.67239 -4.13479,4.86501 -6.21851,11.2368 -6.4867,17.56367 -0.005,0.32965 -0.0337,1.07363 -0.0257,1.56746 0.009,1.71539 0.17382,3.65582 0.38723,5.20887 1.58662,11.1959 7.60621,21.45583 15.75147,29.16951 7.82141,7.42107 17.93853,12.70853 28.75009,13.77625 6.86415,0.64316 14.12356,-0.54747 19.92637,-4.43125 2.60276,-1.78521 5.05944,-3.81786 7.19643,-6.1413 1.30958,-1.7875 1.32076,-4.3709 0.005,-6.15975 -2.08149,-3.50841 -5.31403,-6.1044 -7.85018,-9.25816 -1.9453,-2.17053 -3.78873,-4.60811 -6.43582,-5.9603 -1.74266,-0.75636 -3.83829,-0.39247 -5.27517,0.83189 -4.57372,3.12892 -6.78259,9.14247 -5.64911,14.52352 0.11228,0.73167 0.22457,1.46333 0.33685,2.19499 -3.29398,-0.5634 -6.60569,-1.21743 -9.66907,-2.60169 -7.11162,-3.11809 -13.15558,-8.4877 -17.41281,-14.95268 -2.34286,-3.55383 -3.97733,-7.54227 -4.92083,-11.68797 0.0291,-0.44713 -0.77515,-1.57813 0.027,-1.39096 2.53884,0.20001 5.15458,0.37414 7.60871,-0.46114 3.04583,-0.94794 5.91514,-2.91162 7.47113,-5.74552 1.0494,-2.21712 -0.0289,-4.72566 -1.44414,-6.50607 -2.52799,-3.2109 -5.48554,-6.04883 -8.11673,-9.17302 -1.72731,-1.94446 -3.52173,-4.12294 -6.09945,-4.91454 -0.46974,-0.13024 -0.96348,-0.16975 -1.44856,-0.1242 z" />
    </g>
  </g>
  <style
     type="text/css"
     id="style853">
	.st0{fill:#FFFFFF;}
</style>
</svg>
