<svg xmlns="http://www.w3.org/2000/svg" width="192" height="192" fill="none"><g clip-path="url(#a)"><g clip-path="url(#b)"><path fill="#728DBE" d="M96.1 172c-1.6 0-3.2-.5-4.6-1.5-8.5-6.1-15.8-10.1-22.2-13.6C40.6 141.4 32.3 133 31 45.1c0-2.1.8-4.1 2.3-5.6 1.5-1.5 3.5-2.3 5.6-2.3h1.3c8.5.1 31.1.2 50.9-16.3 2.9-2.4 7.2-2.4 10.1 0 19.8 16.6 42.5 16.4 51 16.3h1.3c2.1 0 4.1.8 5.6 2.3 1.5 1.5 2.3 3.5 2.3 5.6C160 133 151.7 141.4 123 157c-6.4 3.5-13.7 7.4-22.3 13.6-1.4.9-3 1.4-4.6 1.4ZM46.8 52.8c1.6 75 8.5 78.7 30 90.4 5.4 2.9 11.9 6.5 19.3 11.4 7.4-5 13.9-8.5 19.4-11.4 21.5-11.6 28.4-15.4 30-90.4-11.4-.4-30.9-2.9-49.4-16-18.4 13.1-37.9 15.6-49.3 16Z"/></g></g><defs><clipPath id="a"><path fill="#fff" d="M0 0h192v192H0z"/></clipPath><clipPath id="b"><path fill="#fff" d="M31 19h130.3v153H31z"/></clipPath></defs></svg>