<svg enable-background="new 0 0 192 192" version="1.1" viewBox="0 0 192 192" xml:space="preserve" xmlns="http://www.w3.org/2000/svg">
<style type="text/css">
	.st0{fill:#9ABEFF;}
	.st1{fill:#728DBE;}
	.st2{fill:#8C72BD;}
	.st3{fill:#F8C18C;}
	.st4{fill:#BD9AFF;}
</style>
<path class="st0" d="M30,20h132c5.5,0,10,4.5,10,10v132c0,5.5-4.5,10-10,10H30c-5.5,0-10-4.5-10-10V30C20,24.5,24.5,20,30,20z"/>

	<path class="st1" d="m123 110.5c-0.5 1.2 0.7 0.8 0.9 0.8 2.8 0.2 5.5 0.9 8.3 1.3 3.2 0.5 6.4 1.4 9.3 2.7 0.4 0.2 0.7 0.3 1.1 0.5 0.9 0.7 2 1.4 2 2.6-0.1 1.2-1.2 1.9-2.2 2.4-4.2 2.3-8.8 3.1-13.4 3.8-5.8 1-11.7 1.4-17.6 1.9-7.8 0.6-15.6 0.7-23.4 0.4-10-0.4-20.1-1-29.9-3.2-2.9-0.6-5.8-1.4-8.4-2.8-0.1 0-0.2-0.1-0.3-0.1-2.6-1.6-2.6-3.4 0-5.1 1-0.6 2-0.9 3.2-1.4-0.8-0.6-1.9 0-2.3-0.9 0.8-0.8 1.8-0.4 2.7-0.2 4.9 0.9 10 1.3 15 1.7 5.2 0.4 10.4 0.2 15.5 0.2 5 0 10-0.6 15-1.1 6.9-0.7 13.7-1.9 20.4-3.3 0.7-0.1 1.3-0.4 2-0.5s1.5-0.4 2.1 0.3z"/>
	<path d="m123 110.5c-2.7 0.6-5.4 1.2-8.1 1.8-7.9 1.6-15.9 2.6-23.9 3.2-8.4 0.6-16.8 0.6-25.2 0-5.2-0.4-10.4-1.1-15.5-2-0.6-0.1-1.1-0.3-1.7-0.4-1.1-0.3-1.9-0.9-1.9-2.1-0.1-1.3 0.9-1.8 1.9-2.1 2.7-0.9 5.5-1.6 8.2-2.5 2.3-0.7 4.6-1.6 6.7-2.7 1.1-0.5 1.6-1.3 1.5-2.5-0.3-6 0.4-11.9 1.5-17.8 0.1-0.7 0.3-1.4 0.6-2.1 2.1-6.3 6.9-8.7 13.3-6.6 0.6 0.2 1.2 0.4 1.8 0.7 5.9 2.8 11.1 1.4 15.6-2.9 4.1-3.9 8.9-6.1 14.5-6.2 6.5-0.2 10.2 3.3 10.7 9.7 0.4 5.1 0.5 10.3 0.8 15.4 0.1 2 0.8 2.9 2.7 3.5 5.3 1.5 10.7 2.4 16.1 3.3 0.8 0.1 1.6 0.3 2 1.1 0.3 0.9-0.3 1.5-0.9 2.1-2.5 2.5-5.6 3.8-8.7 5.2-4 1.4-8 2.5-12 3.9z" fill="#56595b"/>
	<path class="st2" d="m121.8 82.8c0 1.4-0.1 2.8 0 4.1 0.1 1.2-0.4 1.6-1.4 1.8-4.1 0.8-8.2 1.7-12.3 2.5-10.2 2-20.5 3.6-30.9 4.5-3.1 0.3-6.2 0.3-9.3 0.5-0.8 0-1.3-0.2-1.2-1.1 0.5-4.5 0.7-9 2-13.3 0.9-3 2.5-5.4 5.8-6.2 2.5-0.6 4.9-0.2 7 1 3.4 2 6.7 1.6 10.3 0.8 3.2-0.7 5.7-2.4 7.9-4.6 3.6-3.5 8-5.1 12.9-5.2 5.3-0.1 8.3 2.8 8.8 8.1 0.2 2.3 0.3 4.6 0.4 6.9-0.1 0.2 0 0.2 0 0.2z"/>
	<path class="st2" d="m135.7 98.6c1.7 0.3 3.5 0.5 5.2 0.8 0.4 0.1 1.1 0 1.2 0.5s-0.5 0.8-0.9 1.1c-1.8 1.3-3.7 2.3-5.7 3.2-7.1 3.3-14.6 5.2-22.3 6.8-13.9 2.8-27.9 3.6-42 3.2-6.9-0.2-13.8-0.8-20.6-2.3-0.8-0.2-2.1 0.2-2.1-0.8 0-0.8 1.3-0.8 2.1-1.1 4.2-1.3 8.5-2.6 12.6-4.2 0.2-0.1 0.5-0.1 0.7 0 0.1 0.8-0.5 1.2-1.1 1.4-2.6 0.7-4.6 2.8-7.7 3.3 1.1 0.9 2.1 0.9 3.1 1 4.7 0.3 9.4 0.9 14 0.8 5.3 0 10.6 0 15.8-0.4 4-0.3 8-0.5 11.9-1 2.9-0.4 5.9-0.8 8.8-1.3 6.3-1.2 12.5-3 18.7-4.6 3-0.8 5.7-2.5 8.6-3.6 0.3-0.1 0.8-0.3 0.8-0.8-0.1-0.4-0.6-0.5-0.9-0.6-0.6-0.2-1.1-0.4-1.2-1.1 0.4-0.6 0.7-0.5 1-0.3z"/>
	<path class="st3" d="m71.4 100.6c-1.1 0.1-2.2 0.1-3.3 0.2-0.9 0.1-1.3-0.1-1.2-1.1 0.1-0.7-0.4-1.7 1.1-1.8 3.9-0.1 7.8-0.4 11.7-0.8 7.4-0.7 14.8-1.8 22.2-3.1 6.1-1.1 12.2-2.4 18.3-3.6 0.5-0.1 1.3-0.8 1.4 0.2 0.2 0.8 0.5 1.9-0.8 2.4-1.2 0.4-2.4 0.9-3.7 1.2-9 2.2-18.2 3.5-27.5 4.6-6 0.8-12.1 1.4-18.2 1.8z"/>
	<path class="st2" d="m64 105.7h-0.7c1.2-0.9 2.8-1.3 3.4-2.9 0.2-0.4 0.7-0.3 1.1-0.4 4.6-0.3 9.2-0.6 13.7-1.1 6-0.6 12.1-1.3 18.1-2.2 6.3-0.9 12.7-1.9 18.9-3.6 0.5-0.1 1.1-0.2 1.6-0.5 1.5-0.7 2.7-0.9 4.2 0.4 1.3 1.2 3.4 1.2 5.2 1.6l6.3 1.5h-0.9c-0.5 0.6-1.1 0.5-1.8 0.4-2.8-0.5-5.5-1.1-8.2-1.9-1.1-0.4-2 0-3 0.4-4.2 1.4-8.3 2.9-12.6 3.7-3.8 0.7-7.6 0.9-11.4 1.6-4.9 0.9-9.9 1-14.8 1.5-4 0.4-8.1 0.3-12.1 1.1-0.7 0.1-1.5 0.1-2.2 0.1-1.2 0-2.5-0.2-3.6 0.4-0.5 0.2-0.9 0.2-1.2-0.1z"/>
	<path class="st4" d="m120.6 80.8c0.1 0.8 0.2 1.7 0.2 2.7 0 1.3-0.6 2.1-1.9 2.4-3.4 0.9-6.8 1.8-10.2 2.5-3.5 0.7-6.9 1.4-10.4 2-6 1-12 2-18.1 2.6-2.9 0.3-5.9 0.3-8.8 0.8-1.7 0.3-3.4-0.6-3.3-2.9 0.2-3.1 0.6-6.2 2-8.8 1.3-2.6 3.2-5.1 6.7-5.2 1.7 0 2.3 0.5 2.3 2.2-0.1 1.5 0.3 3 0.1 4.6-0.3 1.9 1.4 3.2 3.3 3.4 3.6 0.3 6.4-1.5 9.2-3.5 2.8-2.1 4.9-4.7 7.1-7.3 2-2.4 4.6-4 7.5-5.1 3-1.1 6-2 9.4-1.4 2.4 0.5 3.5 1 3.9 3.3 0.4 2.4 1.3 4.9 1 7.7z"/>
	<path class="st4" d="m64 105.7c1.4-0.8 2.9-1 4.6-1 3.1 0 6.3-0.5 9.4-0.7s6.3-0.5 9.4-0.6c3.7-0.1 7.3-0.8 11-1.4 3.4-0.5 6.8-0.8 10.2-1.4 2.9-0.5 5.7-1.4 8.5-2.3 2-0.7 4.2-1.1 6.2-2 0.5-0.2 1.1 0 1.7 0.2 3.2 1 6.4 1.8 9.8 2.1 0.9 0.7 2 0.6 3 1.1 0.7 0.4 0.6 0.7 0.1 1.1-0.2 0.2-0.4 0.3-0.6 0.4-5 2.5-10.1 4.7-15.6 5.8-3.1 0.6-6.2 1.7-9.3 2.4-5.1 1.1-10.3 1.8-15.6 2.3-6.2 0.6-12.4 0.9-18.6 1-5.8 0.2-11.6-0.1-17.4-0.7-1.9-0.2-3.8 0-5.7-0.6-0.4-0.1-0.9-0.2-1-0.7 0-0.5 0.4-0.8 0.8-0.9 2.5-0.3 4.3-1.9 6.4-2.9 1-0.4 2.1-0.2 2.7-1.2z"/>

</svg>
