<svg width="192" height="192" version="1.1" viewBox="0 0 192 192" xmlns="http://www.w3.org/2000/svg">
 <rect x="19.5" y="19.5" width="153" height="153" rx="10" style="fill:#8c72bd;stroke-width:4"/>
 <path d="m66 64c-1.108 0-2 0.892-2 2s0.892 2 2 2h10v56c0 2 0 2 0.20312 4 0.9503 4.6555 5.0454 7.9995 9.7969 8 7.1133 0 8.9163-4.293 10-8v-0.086c2.9874-0.182 8.9283-0.89048 15.016-3.8203 8.5428-4.1117 17.195-12.951 16.984-29.773-0.19088-15.242-8.9148-23.206-17.336-26.867-5.9708-2.5955-11.733-3.2159-14.664-3.3749-4-0.07812-20.005-0.07812-30-0.07812zm14 4h12v50.008c-1.73-1.301-3.8354-2.0056-6-2.0078-2.1655 4e-3 -4.271 0.71184-6 2.0156zm16 0.0936c2.6784 0.1648 7.8073 0.74672 13.062 3.0312 7.4879 3.2551 14.765 9.461 14.938 23.25 0.19392 15.485-7.1604 22.472-14.719 26.109-5.3199 2.5606-10.56 3.2255-13.281 3.4142zm-10 51.906c3.3137 0 6 2.6863 6 6s-2.6863 6-6 6-6-2.6863-6-6 2.6863-6 6-6z" style="fill:#fff;paint-order:stroke fill markers;stroke-width:4"/>
</svg>
