<?xml version="1.0" encoding="UTF-8"?>
<svg version="1.1" viewBox="0 0 192 192" xml:space="preserve" xmlns="http://www.w3.org/2000/svg">
	 <rect class="a" x="20" y="20" width="152" height="152" rx="10" fill="#728dbe"/><g transform="matrix(2.3347 0 0 2.3347 53.975 53.977)" fill="#96dfd3"><path id="path" d="m2.171 24.633v-0.361-9.404c0-0.572 0.082-0.653 0.651-0.653h18.133 0.52c0.011-0.193 0.026-0.351 0.027-0.51 3e-3 -0.69-2e-3 -1.379 3e-3 -2.069 4e-3 -0.459 0.127-0.581 0.58-0.582 3.712-1e-3 7.424-1e-3 11.136 0 0.459 0 0.607 0.141 0.607 0.604 3e-3 3.16 3e-3 6.319 0 9.479 0 0.497-0.166 0.646-0.7 0.646-3.398 1e-3 -6.797 0-10.195 0h-0.538v0.885c0 0.564 3e-3 1.128-1e-3 1.693-3e-3 0.429-0.156 0.582-0.592 0.583-2.195 2e-3 -4.389 1e-3 -6.584 1e-3h-12.377c-0.238 1e-3 -0.487 0.032-0.67-0.312zm0.9-0.621h18.386v-8.865h-18.386v8.865zm27.174-7.247c-0.024 4e-3 -0.048 8e-3 -0.071 0.012-0.436-1.018-0.873-2.037-1.306-3.048h-1.092v5.348h0.951v-2.795l0.084-0.018c0.434 0.947 0.868 1.895 1.289 2.812h1.109v-5.348h-0.964v3.037zm-3.27-2.11v-0.965l-2.671 0.014v0.95h0.777v3.5h-0.858v0.933h2.822v-0.933l-0.855-4e-3c0-1.13 1e-3 -2.362 1e-3 -3.495z"/><path d="m5.261 17.711h-1.481v-0.782h3.796v0.782h-1.48v4.446h-0.835z"/><path d="m8.344 20.162v-3.233h0.84v3.302c0 0.848 0.313 1.213 0.813 1.213 0.504 0 0.827-0.365 0.827-1.213v-3.302h0.807v3.233c0 1.427-0.604 2.091-1.634 2.091-1.035 0-1.653-0.664-1.653-2.091z"/><path d="m12.672 16.929h0.878l1.242 2.936 0.427 1.117h0.02c-0.035-0.534-0.113-1.196-0.113-1.78v-2.272h0.797v5.228h-0.878l-1.243-2.939-0.426-1.114h-0.02c0.034 0.556 0.113 1.186 0.113 1.765v2.288h-0.797z"/><path d="m17.19 16.929h3.013v0.782h-2.177v1.337h1.844v0.782h-1.844v1.545h2.25v0.782h-3.086z"/></g></svg>
