<svg xmlns="http://www.w3.org/2000/svg" id="svg2" width="192" height="192" version="1.1"><g id="layer1" transform="translate(0 -860.362)"><rect id="rect1181" width="152" height="152" x="20" y="880.362" rx="9.935" ry="9.935" style="fill:#56595b;fill-opacity:1;fill-rule:evenodd;stroke:none;stroke-width:.993464;stroke-opacity:1"/><path id="path1164" d="M102.184 928.714a1.653 1.653 0 0 0-1.407.75L85.74 952.498a4.325 4.325 0 0 0-.144 4.49l14.364 25.443a1.586 1.586 0 0 0 2.714.079l9.17-14.253c-1.08-1.916-2.159-3.833-3.241-5.748-1.663-2.548-1.85-6.005-.392-8.687 1.71-2.7 3.46-5.376 5.211-8.051l-9.845-16.26a1.653 1.653 0 0 0-1.392-.796z" style="fill:#99bdfe;fill-opacity:1;stroke-width:3.4223;stroke-linecap:round;stroke-linejoin:round;stop-color:#000"/><path id="path1166" d="M84.853 919.863a1.653 1.653 0 0 0-1.351.749l-20.799 31.856a4.325 4.325 0 0 0-.144 4.49l19.814 35.098a1.586 1.586 0 0 0 2.715.079l8.273-12.86c-3.71-6.55-7.413-13.105-11.116-19.66-1.676-2.56-1.889-6.043-.421-8.746 2.203-3.432 4.432-6.849 6.66-10.265 1.707-2.624 3.42-5.243 5.13-7.864L86.3 920.66a1.653 1.653 0 0 0-1.447-.797z" style="fill:#99bdfe;fill-opacity:1;stroke-width:4.52283;stroke-linecap:round;stroke-linejoin:round;stop-color:#000"/><path id="path1168" d="m122.212 944.336 7.18 11.858a4.211 4.211 0 0 1-.062 4.46l-7.604 11.819a1.586 1.586 0 0 1-2.715-.079l-7.03-12.453a4.325 4.325 0 0 1 .144-4.49l7.288-11.163a1.653 1.653 0 0 1 2.799.048z" style="fill:#99bdfe;fill-opacity:1;stroke-width:1.94151;stroke-linecap:round;stroke-linejoin:round;stop-color:#000"/><path id="path1170" d="M84.853 919.863a1.653 1.653 0 0 0-1.351.749l-20.799 31.856a4.325 4.325 0 0 0-.144 4.49l19.814 35.098a1.586 1.586 0 0 0 2.715.079l8.273-12.86c-3.71-6.55-7.413-13.105-11.116-19.66-1.676-2.56-1.889-6.043-.421-8.746 2.203-3.432 4.432-6.849 6.66-10.265 1.707-2.624 3.42-5.243 5.13-7.864L86.3 920.66a1.653 1.653 0 0 0-1.447-.797z" style="fill:#000;fill-opacity:.15;stroke-width:4.52283;stroke-linecap:round;stroke-linejoin:round;stop-color:#000"/><path id="path1172" d="m122.212 944.336 7.18 11.858a4.211 4.211 0 0 1-.062 4.46l-7.604 11.819a1.586 1.586 0 0 1-2.715-.079l-7.03-12.453a4.325 4.325 0 0 1 .144-4.49l7.288-11.163a1.653 1.653 0 0 1 2.799.048z" style="fill:#fff;fill-opacity:.15;stroke-width:1.94151;stroke-linecap:round;stroke-linejoin:round;stop-color:#000"/></g><style id="style853" type="text/css">.st0{fill:#fff}</style></svg>