<svg width="192" height="192" fill="none" version="1.1" viewBox="0 0 192 192" xmlns="http://www.w3.org/2000/svg">
 <rect x="19.5" y="19.5" width="153" height="153" rx="10" style="fill:#ba6561;stroke-width:4"/>
 <path d="m120.31 45.458c1.4703-0.76156 2.4798-2.9958 1.4237-4.2712-1.8394-2.2214-7.5211-4.6118-8.9492-2.8474-1.2053 1.4891-0.22988 4.6392 1.1186 6 1.4989 1.5125 3.3849 2.6838 6.4068 1.1186z" style="fill:#e85e5c;stroke-width:4"/>
 <path d="m124.68 56.339c-2.2209 0.90308-4.5016-3.7638-5.5932-5.8983-1.2158-2.3774-2.7515-5.9749-0.50848-7.4237 2.2909-1.4798 5.0753 1.4301 6.3051 3.8644 1.2873 2.548 5.8171 7.0094-0.2034 9.4576z" style="fill:#f4806d;stroke-width:4"/>
 <g transform="scale(4)">
  <rect transform="matrix(.93666 -.35024 .31594 .94878 0 0)" x="1.1801" y="37.025" width="3.8527" height="4.7179" rx="1.5706" ry="2.2592" style="fill:#56595b;paint-order:stroke fill markers;stroke-width:.93082"/>
  <path d="m18.254 18.152-6.6094 6.2539 5.7969 0.20312 2.8086 9.543 7.2012-2.2109 0.017578 0.058594 5.2148-1.5449-2.9492-10.104-5.9316-0.82812-0.35058-0.20916z" style="fill:#54688c"/>
  <path d="m12.356 37.017-1.2966-3.4576s-0.17212-1.0031 0.71186-1.6525c1.7247-1.2672 3.5129-2.6501 5.5932-3.1525 0.99106-0.23934 1.1695 0.07627 1.1695 0.07627l1.8305 5.7712z" style="fill:#728dbe"/>
  <ellipse transform="rotate(-25.035)" cx="-3.1714" cy="35.291" rx=".64831" ry=".54661" style="fill:#54688c;paint-order:stroke fill markers"/>
  <ellipse transform="rotate(-25.035)" cx="-3.3994" cy="35.185" rx=".64831" ry=".54661" style="fill:#ececec;paint-order:stroke fill markers"/>
  <path d="m11.593 31.373 1.4746 5.1864 3.3051-1.0678-1.8559-5.6695s-0.57654-0.10859-1.7542 0.33051c-0.92622 0.34534-1.1695 1.2203-1.1695 1.2203z" style="fill:#9abeff"/>
  <path d="m19.056 28.009 5.0696-2.4449 1.0067 3.8831-1.1146 0.93482 0.86291 2.4809 2.337-0.791-2.2292-7.155-5.4651 2.7325z" style="fill:#728dbe"/>
  <path d="m18.049 17.439-6.4355 6.1465 0.14453 0.79102 1.707 5.5117 0.77344-0.17188-1.834-5.9492 5.6094-5.2871 2.4082 9.8516s0.47389 1.0929 1.4746 0.90039c0.45776-0.08805 0.25195-0.61133 0.25195-0.61133l-2.6602-10.031 4.5605 0.9375 3.8164 12.51 0.53906-0.2168-3.8418-12.186 4.8848 1.0039 3.127 9.959 0.28906-0.10742-3.0938-10.355z" style="fill:#728dbe"/>
  <path d="m17.798 28.692s1.7755-0.16238 3.8471-0.17977c0.58171-0.0049 0.791 0.43146 0.791 0.43146l0.53932 2.409-2.3011 3.0202-0.25168 0.10786z" style="fill:#728dbe"/>
  <path d="m14.466 29.822 0.68644 0.02542 1.8051 5.5932-0.94068 0.40678z" style="fill:#54688c"/>
  <path d="m11.937 37.321 21.141-6.7595" style="fill:none;stroke-linecap:round;stroke-linejoin:round;stroke:#9abeff"/>
  <ellipse cx="22.993" cy="33.366" rx="2.1033" ry="1.9056" style="fill:#54688c;paint-order:stroke fill markers"/>
  <rect transform="matrix(.93666 -.35024 .31594 .94878 0 0)" x="8.6097" y="37.987" width="4.3192" height="4.5869" rx="1.5706" ry="2.2592" style="fill:#56595b;paint-order:stroke fill markers;stroke-width:.93082"/>
  <path d="m20.386 34.517c-0.1232-0.47758-0.38327-1.9896 0.03596-3.4157 0.1924-0.6545 1.3345-1.0375 2.0135-0.97077 0.98825 0.09711 1.902 0.59543 2.4809 1.4022 0.47686 0.66458 0.81364 2.3906 0.46741 2.409-0.60149 0.03189-0.35972-2.5331-2.0135-2.3011-1.0582 0.14844-1.547 1.7116-1.2584 2.9483 0.07128 0.30547-0.3704 0.62296-0.68314 0.64718-0.42094 0.03261-0.93722-0.31027-1.0427-0.71909z" style="fill:#9abeff"/>
  <ellipse transform="rotate(-13.378)" cx="15.065" cy="38.675" rx=".98875" ry="1.4202" style="fill:#ececec;paint-order:stroke fill markers"/>
  <ellipse transform="rotate(-19.729)" cx="5.2655" cy="34.866" rx=".76271" ry=".63559" style="fill:#54688c;paint-order:stroke fill markers"/>
  <ellipse transform="rotate(-19.729)" cx="5.0286" cy="34.782" rx=".76271" ry=".63559" style="fill:#ececec;paint-order:stroke fill markers"/>
  <path d="m18.495 28.654c-0.23387 0.0171-0.35686 0.01379-0.44601 0.02145 0.37945 0.01422 0.48438 0.1543 0.48438 0.1543l1.5723 4.9512 0.17658 0.71193 0.17568-0.09471 0.16992-0.22266-0.19922-0.44141-1.5723-4.9512c0 1e-6 -0.1125-0.08888-0.36133-0.1289z" style="fill:#9abeff"/>
  <ellipse cx="31.036" cy="31.188" rx="1.366" ry="1.2376" style="fill:#54688c;paint-order:stroke fill markers;stroke-width:.64944"/>
  <rect transform="matrix(.93666 -.35024 .31594 .94878 0 0)" x="17.871" y="39.235" width="2.805" height="2.9789" rx="1.02" ry="1.4672" style="fill:#56595b;paint-order:stroke fill markers;stroke-width:.60451"/>
  <path d="m29.343 31.935c-0.08001-0.31016-0.24891-1.2921 0.02335-2.2183 0.12495-0.42505 0.8667-0.67378 1.3076-0.63046 0.6418 0.06307 1.2352 0.38669 1.6112 0.91066 0.30969 0.4316 0.52841 1.5525 0.30355 1.5645-0.39063 0.02071-0.23361-1.6451-1.3076-1.4944-0.68722 0.0964-1.0047 1.1116-0.81726 1.9147 0.04629 0.19838-0.24055 0.40457-0.44365 0.4203-0.27337 0.02118-0.60867-0.2015-0.67716-0.467z" style="fill:#9abeff;stroke-width:.64944"/>
  <ellipse transform="rotate(-13.378)" cx="23.248" cy="38.103" rx=".64213" ry=".92233" style="fill:#ececec;paint-order:stroke fill markers;stroke-width:.64944"/>
 </g>
 <path d="m106.57 77.089c-1.2428-2.8575 6.3487-9.232 8.7729-2.3011 2.8093 8.0319 5.5958 7.4111 8.4853 16.683 1.0738 3.4457-9.4316 1.1801-11.362-1.8696-2.9108-4.5995-3.7001-7.4622-5.8966-12.512z" style="fill:#f58f8a"/>
 <path d="m121.63 65.186c-0.23148 1.6944 3.2735 1.1784 4.983 1.2203 1.07 0.028 3.2677 0.454 3.1525-0.61016-0.42767-3.9519-1.1837-7.1696-2.9492-11.492-0.34824-0.85252-1.83-0.40208-2.7458-0.3052-0.7462 0.0792-2.1453-0.04-2.1356 0.71188 0.0522 4.024 0.32468 5.8649-0.30508 10.475z" style="fill:#f58f8a;stroke-width:4"/>
 <path d="m121.93 65.797c2.5981-0.68032 5.7257-0.76288 8.0339 0.61016 4.4041 2.6199 8.0022 7.8019 8.339 12.915 0.18236 2.7689-1.5516 5.6099-3.5593 7.5254-2.5507 2.4336-5.4106 4.3448-8.8474 3.5593-2.3876-0.54564-4.5402-2.8807-5.7966-4.983-2.2776-3.811-5.1843-8.1105-4.5763-12.508 0.30924-2.2367 2.3398-3.9251 3.9661-5.4915 0.70423-0.67832 1.4948-1.3794 2.4407-1.6271z" style="fill:#f8c18c;stroke-width:4"/>
 <path d="m129.25 67.017s-0.73706 1.9184-1.322 3.1525c-0.37472 0.79052 0.74079 1.7488 1.5254 2.1356 0.88224 0.43496 2.5504 0.79752 2.9492-0.1016 0.87078-1.9639 1.5254-4.0678 1.5254-4.0678z" style="fill:#f58f8a;stroke-width:4"/>
 <path d="m126.13 63.426c0.74068-2.5535 1.5868-5.2958 3.4516-7.1909 0.75185-0.76408 1.8124-1.3072 2.8764-1.4382 2.1933-0.27 4.6561 0.1784 6.4718 1.4382 1.8791 1.3037 3.2723 3.5138 3.7393 5.7528 0.41676 1.9982 0.0778 4.3111-1.0067 6.0404-1.2792 2.0396-3.5089 3.8624-5.8966 4.1707-2.0311 0.2624-4.0308-1.0485-5.7527-2.1573-1.653-1.0644-3.5259-2.3134-4.1707-4.1707-0.26912-0.7752 0.059-1.6568 0.28764-2.4449z" style="fill:#f8c18c"/>
 <path d="m110.6 111.17s-1.7702 0.79448-3.3078 4.6022c-0.57047 1.4127-3.0581 2.3755-0.70164 3.6956 3.4078 1.9092 2.9923-1.5537 4.0095-3.0536 2.5318-3.7333 1.2944-4.5252 1.2944-4.5252z" style="fill:#e85e5c;stroke-width:4"/>
 <path d="m111.89 103.7s-3.7383 8.5349-1.582 9.6358c3.0998 1.5826 7.1909-8.6291 7.1909-8.6291z" style="fill:#f4806d;stroke-width:4"/>
 <path d="m116.21 90.32s-3.2152 6.2071-4.8898 13.95c-0.26752 1.237 1.0471 2.8487 2.3011 3.0202 2.2039 0.3016 3.9564-2.2705 5.3213-4.0269 3.2079-4.128 4.1707-9.9234 4.1707-9.9234z" style="fill:#f58f8a;stroke-width:4"/>
 <path d="m120.5 87.497c1.5848-3.0439 4.6724-3.1768 8.0137-5.1195 2.2189-1.2901 4.181-3.569 5.9313-2.3592 1.4079 0.97307 0.68865 3.6089-0.0887 5.1336-2.0362 3.9938-5.7404 7.1473-10.181 7.7633-1.271 0.17619-2.2672-0.76536-3.0086-1.8127-0.73755-1.0419-1.2564-2.4733-0.66691-3.6055z" style="fill:#f58f8a;stroke-width:4"/>
 <path d="m107.69 88.678c0.0742-1.2671 1.8894-2.2603 3.1525-2.1356 4.0269 0.3976 6.3377 0.9928 12.915 2.2373 1.3949 0.264 2.7701 2.445 2.7458 3.8644-0.0292 1.7021-1.7591 3.8771-3.4576 3.7627-3.8738-0.2608-5.7854-1.1938-8.6441-1.9322-3.9628-1.0235-6.8846-2.8455-6.7119-5.7966z" style="fill:#f8c18c;stroke-width:4"/>
 <path d="m106.36 83.085s-4.7269-0.7042-6.3955 0.40676c-0.9464 0.63012-1.7075 1.9286-1.5254 3.0508 0.44538 2.7446 6.1859 6.0062 6.1859 6.0062z" style="fill:#f8c18c;stroke-width:4"/>
 <path d="m111.36 88.373c0.083-3.1372-4.983-5.2881-4.983-5.2881s-2.3281 1.0384-2.8475 4.2712c-0.32944 2.0507 1.1186 5.1864 1.1186 5.1864s6.5656 1.3603 6.7119-4.1695z" style="fill:#f58f8a;stroke-width:4"/>
 <path d="m105.99 75.939c1.8458 0.919 4.8853-0.0728 5.8966-1.8696 0.89525-1.5909 0.36408-4.5584-1.2944-5.3213-7.0767-3.255-10.957-5.5953-20.135-7.0471-1.4709-0.2328-2.3358 2.254-2.4449 3.7393-0.05028 0.68452 0.23572 1.5907 0.86291 1.8696 6.4523 2.8693 10.89 5.5299 17.114 8.6291z" style="fill:#f8c18c;stroke-width:4"/>
 <path d="m83.558 67.885c-1.628-0.69092-3.3599-3.5858-2.5887-5.1774 1.8593-3.8374 1.1545-1.9388 4.4584-7.91 0.40532-0.73256-0.78192-1.6336-0.57527-2.4449 0.30168-1.1844 1.2431-2.5102 2.4449-2.7326 1.8553-0.3432 4.0778 0.962 5.0336 2.5888 0.72899 1.2406 0.11816 2.8996-0.1438 4.3145-0.74795 4.0399-1.6775 5.7823-3.7393 10.499-0.69712 1.5947-3.2745 1.5485-4.8898 0.86288z" style="fill:#f8c18c;stroke-width:4"/>
 <path d="m88.383 49.641c0.60798 0.44384 1.1585 0.96012 1.5078 1.5547 0.72899 1.2406 0.12132 2.8976-0.14064 4.3125-0.74795 4.0399-1.6804 5.7836-3.7422 10.5-0.49537 1.1332-1.9381 1.4146-3.3125 1.25 0.2836 0.2456 0.56742 0.50112 0.85938 0.625 1.6154 0.6856 4.1935 0.73536 4.8906-0.85936 2.0618-4.7164 2.9942-6.4601 3.7422-10.5 0.26196-1.415 0.86961-3.0718 0.14064-4.3125-0.77532-1.3195-2.3752-2.382-3.9453-2.5703z" style="fill:#f58f8a;stroke-width:4"/>
 <path d="m141.25 58.664c0.2136 0.52336 0.3876 1.0548 0.5 1.5937 0.41675 1.9982 0.0768 4.3098-1.0078 6.0391-1.2792 2.0396-3.503 3.8635-5.8906 4.1719-2.0311 0.2624-4.0359-1.0475-5.7578-2.1563-1.151-0.74112-2.3824-1.5852-3.2578-2.6484 0.0148 0.0684-0.0156 0.144 8e-3 0.2108 0.6448 1.8574 2.5188 3.0996 4.1719 4.164 1.7219 1.1088 3.7189 2.4264 5.75 2.1641 2.3877-0.3084 4.6193-2.1323 5.8984-4.1719 1.0846-1.7293 1.4168-4.0486 1-6.0469-0.24156-1.1582-0.73777-2.299-1.4141-3.3203z" style="fill:#f58f8a"/>
 <path d="m122.31 89.38c1.0914-3.2536 4.1206-3.8657 7.1186-6.3051 1.9909-1.6199 3.5741-4.1766 5.4915-3.2542 1.5423 0.74192 1.2423 3.4576 0.71187 5.0848-1.3894 4.2622-4.5572 7.9541-8.8475 9.2542-1.2281 0.372-2.3587-0.40292-3.2542-1.322-0.89082-0.91428-1.6263-2.2474-1.2203-3.4576z" style="fill:#f8c18c;stroke-width:4"/>
</svg>
