<?xml version="1.0" encoding="UTF-8"?>
<svg width="192" height="192" version="1.1" viewBox="0 0 192 192" xml:space="preserve" xmlns="http://www.w3.org/2000/svg" xmlns:cc="http://creativecommons.org/ns#" xmlns:dc="http://purl.org/dc/elements/1.1/" xmlns:rdf="http://www.w3.org/1999/02/22-rdf-syntax-ns#" xmlns:xlink="http://www.w3.org/1999/xlink"><metadata><rdf:RDF><cc:Work rdf:about=""><dc:format>image/svg+xml</dc:format><dc:type rdf:resource="http://purl.org/dc/dcmitype/StillImage"/></cc:Work></rdf:RDF></metadata><rect x="20" y="20" width="152" height="152" rx="9.9346" fill="#728dbe"/><path d="m47.831 66.269 79.823 11.261a0.54609 0.54609 69.391 0 1 0.33741 0.89722l-49.675 57.646a0.20631 0.20631 29.095 0 1-0.35312-0.1965l13.716-43.668a1.2275 1.2275 68.27 0 0-0.57409-1.4404l-43.39-24.153a0.18599 0.18599 108.57 0 1 0.11644-0.34668z" fill="#fff" stroke-linecap="round" stroke-linejoin="round" stroke-width=".82634"/><path d="m79.602 66.783 64.413 9.2828a0.321 0.321 116 0 0 0.26794-0.54943l-12.726-12.201a2.2359 2.2359 19.698 0 0-1.7189-0.61537l-50.228 3.8637a0.1104 0.1104 91.901 0 0-0.0073 0.21934z" fill="#fff" stroke-linecap="round" stroke-linejoin="round" stroke-width=".82634"/></svg>
