<svg xmlns="http://www.w3.org/2000/svg" xml:space="preserve" width="192" height="192"><path fill="#FF877F" d="M186.72 174.455c0 6.667-5.404 12.071-12.071 12.071H18.218c-6.667 0-12.072-5.404-12.072-12.071V18.025c0-6.668 5.405-12.072 12.072-12.072h156.43c6.667 0 12.071 5.404 12.071 12.072v156.43z"/><path fill="#F5F5F5" d="M175.095 123.699c-16.763-22.098-58.065-28.861-67.521-31.51-7.583-2.125-25.135-4.206-24.327-9.099.468-2.832 5.771-3.544 7.898-3.946 6.393-1.208 12.958-1.041 19.398-1.896 8.796-1.168 14.645-3.292 15.938-7.026 1.074-3.102-1.971-8.125-12.49-9.543 0 0 12.625 2.557 9.481 8.62-2.383 4.597-17.587 4.399-31.728 5.504-6.101.477-12.5 1.276-18.295 3.371-3.819 1.381-9.492 4.887-7.692 9.085 1.285 2.997 10.646 7.026 15.089 8.926a255.326 255.326 0 0 1 12.169 5.582c17.51 8.603 28.734 24.288-2.586 44.536-21.558 13.936-61.269 30.677-79.235 37.967a12.003 12.003 0 0 0 7.023 2.258h156.43c6.667 0 12.071-5.404 12.071-12.071v-24.752c-2.116-8.975-5.696-18.191-11.623-26.006z"/></svg>