<svg xmlns="http://www.w3.org/2000/svg" width="192" height="192"><circle cx="96" cy="96" r="88" fill="#9abeff"/><g fill="#fff" stroke-width="0"><path d="m123.38 93.527 12.507-12.305c-2.799-7.285-8.784-15.729-16.138-20.576-6.768-4.46-15.194-6.933-23.299-6.96-8.65-.028-17.756 2.405-24.913 7.263C64.52 65.712 59.138 73.18 55.903 81.02c-2.338 5.666-2.068 12.073-2.219 18.256 9.234-8.44 17.34-19.17 26.88-26.174 17.931-12.467 40.374.84 42.817 20.425zM68.621 98.473l-12.507 12.305c2.799 7.285 8.784 15.729 16.138 20.576 6.768 4.46 15.194 6.933 23.299 6.96 8.65.028 17.756-2.405 24.913-7.263 7.017-4.763 12.399-12.232 15.634-20.072 2.338-5.666 2.068-12.073 2.219-18.256-9.234 8.44-17.34 19.17-26.88 26.174-17.931 12.467-40.374-.84-42.817-20.425z"/><circle cx="96.045" cy="95.947" r="11.196"/></g></svg>