<svg width="192" height="192" version="1.1" viewBox="0 0 192 192" xmlns="http://www.w3.org/2000/svg">
 <circle cx="96" cy="96" r="88" fill="#9abeff" stroke-width="0"/>
 <g fill="#fff" stroke-width="0">
  <path d="m123.38 93.527 12.507-12.305c-2.7986-7.2852-8.7841-15.729-16.138-20.576-6.7677-4.4608-15.194-6.9327-23.299-6.9596-8.65-0.028658-17.756 2.4041-24.913 7.2622-7.0168 4.763-12.399 12.232-15.634 20.072-2.3383 5.6668-2.0679 12.073-2.219 18.256 9.2343-8.4391 17.34-19.169 26.88-26.174 17.931-12.467 40.374 0.84126 42.817 20.425z"/>
  <path d="m68.621 98.473-12.507 12.305c2.7986 7.2852 8.7841 15.729 16.138 20.576 6.7677 4.4608 15.194 6.9327 23.299 6.9596 8.65 0.0286 17.756-2.4041 24.913-7.2622 7.0168-4.763 12.399-12.232 15.634-20.072 2.3383-5.6668 2.0679-12.073 2.219-18.256-9.2343 8.4391-17.34 19.169-26.88 26.174-17.931 12.467-40.374-0.84126-42.817-20.425z"/>
  <circle cx="96.045" cy="95.947" r="11.196"/>
 </g>
</svg>
