<svg xmlns="http://www.w3.org/2000/svg" viewBox="0 0 192 192"><title>UC Browser Turbo</title><rect x="19.5" y="19.5" width="153" height="153" rx="10" fill="#bd9aff"/><path d="M87.51,123.32l-.28-.08c-7.72-2.17-11.35-10.74-9.25-17.69a15.71,15.71,0,0,1,6.58-8.47c2.08-1.42,4.24-2.72,6.33-4.14a15.52,15.52,0,0,0,6.35-8.13c1.37-4.25.92-8.24-2.13-11.64A13.12,13.12,0,0,0,83.05,68.8c-6.08.78-10.62,4-13.91,9.06a5.07,5.07,0,0,0-.35.65,10.14,10.14,0,0,1,4.36-1.64A6.23,6.23,0,0,1,80,81.66,7.81,7.81,0,0,1,78.46,88c-1.5,2-3.15,3.87-4.78,5.76-3.76,4.36-5.7,9.31-4.89,15.12A16,16,0,0,0,76,120.35c3.44,2.32,7.38,3,11.48,3" fill="#fff"/><path d="M97.78,91.92a22.63,22.63,0,0,1,6.51,1,33.7,33.7,0,0,1,8.57,3.85,11.51,11.51,0,0,0,8.19,1.54,8.22,8.22,0,0,0,1.67-.5.78.78,0,0,0,.41-.57,14.72,14.72,0,0,0,0-2.1,13.54,13.54,0,0,0-2.32-6.52,12.62,12.62,0,0,0-6.63-4.8,1,1,0,0,1-.73-.82,15.88,15.88,0,0,0-.51-1.79,7.51,7.51,0,0,0-1.9-3c-.17.22-.32.38-.44.55a10.48,10.48,0,0,0-1.8,6.16,1.54,1.54,0,0,1-.69,1.43c-1.42.92-2.78,2-4.27,2.73-2,1-4,1.9-6,2.84" fill="#fff"/><path d="M105.48,118.74a17.13,17.13,0,0,0,1-5.8A14.51,14.51,0,0,0,91.55,98.15a10.61,10.61,0,0,0-7.56,3,10.39,10.39,0,0,0-2.41,3.64c5.49-5.8,14.41-4,17.8,1.16a11.12,11.12,0,0,1,1.36,10.14c-1.23,3.61-3.89,5.84-7.39,7.2,6.53,0,13-.1,19.69-.7-1.62-3.2-4.5-3.66-7.56-3.89" fill="#fff"/><path d="M123.39,105.16a3.14,3.14,0,0,0-1.54-2.58,7.54,7.54,0,0,0-3.63-1,16.52,16.52,0,0,1-6.58-1.89c-1.74-1-3.42-2.07-5.21-2.94a25.43,25.43,0,0,0-9-2.33A15.47,15.47,0,0,0,91.2,95a4.71,4.71,0,0,0-.69.31,1.85,1.85,0,0,0,.71.09,18.35,18.35,0,0,1,7,1.14,19.87,19.87,0,0,1,10.48,9.31,1.24,1.24,0,0,0,.94.75,21.49,21.49,0,0,0,3.3.19,11,11,0,0,0,3.93-1.31,8,8,0,0,1,4.7-.76c.58.09,1.14.24,1.82.4" fill="#fff"/><path d="M87.51,123.32c-4.1,0-8-.65-11.48-3a16,16,0,0,1-7.24-11.43c-.81-5.81,1.13-10.76,4.89-15.12C75.31,91.91,77,90,78.46,88A7.81,7.81,0,0,0,80,81.66a6.23,6.23,0,0,0-6.87-4.79,10.14,10.14,0,0,0-4.36,1.64,5.07,5.07,0,0,1,.35-.65c3.29-5.07,7.83-8.28,13.91-9.06a13.12,13.12,0,0,1,12.06,4.37c3,3.4,3.5,7.39,2.13,11.64a15.52,15.52,0,0,1-6.35,8.13c-2.09,1.42-4.25,2.72-6.33,4.14A15.71,15.71,0,0,0,78,105.55c-2.1,7,1.53,15.52,9.25,17.69l.28.08" fill="#fff"/><path d="M97.78,91.92c2-.94,4.09-1.79,6-2.84,1.49-.78,2.85-1.81,4.27-2.73a1.54,1.54,0,0,0,.69-1.43,10.48,10.48,0,0,1,1.8-6.16c.12-.17.27-.33.44-.55a7.51,7.51,0,0,1,1.9,3,15.88,15.88,0,0,1,.51,1.79,1,1,0,0,0,.73.82,12.62,12.62,0,0,1,6.63,4.8,13.54,13.54,0,0,1,2.32,6.52,14.72,14.72,0,0,1,0,2.1.78.78,0,0,1-.41.57,8.22,8.22,0,0,1-1.67.5,11.51,11.51,0,0,1-8.19-1.54,33.7,33.7,0,0,0-8.57-3.85,22.63,22.63,0,0,0-6.51-1" fill="#fff"/><path d="M105.48,118.74c3.06.23,5.94.69,7.56,3.89-6.65.6-13.16.69-19.69.7,3.5-1.36,6.16-3.59,7.39-7.2A11.12,11.12,0,0,0,99.38,106c-3.39-5.21-12.31-7-17.8-1.16A10.39,10.39,0,0,1,84,101.19a10.61,10.61,0,0,1,7.56-3,14.51,14.51,0,0,1,14.92,14.79,17.13,17.13,0,0,1-1,5.8" fill="#fff"/><path d="M97.85,112.52a8,8,0,1,1-8-8,7.93,7.93,0,0,1,8,8m-8,3.66a3.63,3.63,0,0,0,3.72-3.63,3.67,3.67,0,0,0-3.66-3.7,3.72,3.72,0,0,0-3.72,3.68,3.68,3.68,0,0,0,3.66,3.65" fill="#fff"/><path d="M123.39,105.16c-.68-.16-1.24-.31-1.82-.4a8,8,0,0,0-4.7.76,11,11,0,0,1-3.93,1.31,21.49,21.49,0,0,1-3.3-.19,1.24,1.24,0,0,1-.94-.75,19.87,19.87,0,0,0-10.48-9.31,18.35,18.35,0,0,0-7-1.14,1.85,1.85,0,0,1-.71-.09A4.71,4.71,0,0,1,91.2,95a15.47,15.47,0,0,1,6.27-.64,25.43,25.43,0,0,1,9,2.33c1.79.87,3.47,2,5.21,2.94a16.52,16.52,0,0,0,6.58,1.89,7.54,7.54,0,0,1,3.63,1,3.14,3.14,0,0,1,1.54,2.58" fill="#fff"/></svg>