<svg xmlns="http://www.w3.org/2000/svg" width="192" height="192"><defs><clipPath id="a" clipPathUnits="userSpaceOnUse"><path d="M92.614 10.314 23.984 49.94a6.928 6.928 120 0 0-3.464 6v79.249a6.928 6.928 60 0 0 3.464 6l68.63 39.624a6.928 6.928 0 0 0 6.928 0l68.63-39.624a6.928 6.928 120 0 0 3.465-6V55.939a6.928 6.928 60 0 0-3.464-6l-68.63-39.625a6.928 6.928 180 0 0-6.929 0z" style="display:inline;opacity:.11811;fill:#0f0;stroke-width:0"/></clipPath></defs><g clip-path="url(#a)" style="display:inline"><path d="M96.078 8.314 20.52 51.94l75.558 43.625 75.559-43.625z" style="display:inline;opacity:1;fill:#ffb0ac;stroke-width:0"/><path d="M20.52 51.94v87.248l75.558 43.625V95.564Z" style="display:inline;opacity:1;fill:#e85e5c;stroke-width:0"/><path d="M56.592 145.541c-11.943-6.895-21.026-20.468-21.026-31.285V75.2l11.102 6.41v36.663c0 5.839 4.29 12.815 9.924 16.068 5.551 3.205 9.84 1.183 9.84-4.657V93.021l11.102 6.41v39.056c0 10.817-9.167 13.852-20.942 7.054z" style="font-weight:700;font-size:40px;line-height:1.25;font-family:Now;-inkscape-font-specification:&quot;Now Bold&quot;;fill:#fff;stroke-width:.667078"/><path d="M171.637 51.94v87.248l-75.559 43.625V95.564Z" style="display:inline;opacity:1;fill:#ff837d;stroke-width:0"/><path d="M135.564 145.541c11.943-6.895 21.026-20.468 21.026-31.285V75.2l-11.102 6.41v36.663c0 5.839-4.289 12.815-9.924 16.068-5.55 3.205-9.84 1.183-9.84-4.657V93.021l-11.102 6.41v39.056c0 10.817 9.167 13.852 20.942 7.054z" style="font-weight:700;font-size:40px;line-height:1.25;font-family:Now;-inkscape-font-specification:&quot;Now Bold&quot;;fill:#fff;stroke-width:.667078"/></g></svg>