<?xml version="1.0" encoding="UTF-8" standalone="no"?>
<svg
   width="192"
   height="192"
   version="1.1"
   viewBox="0 0 192 192"
   id="svg1505"
   sodipodi:docname="icon_01.svg"
   inkscape:version="1.1 (c4e8f9ed74, 2021-05-24)"
   inkscape:export-filename="/home/mors/Documents/svgs/delta icons/ucursos/icon_01.png"
   inkscape:export-xdpi="96"
   inkscape:export-ydpi="96"
   xmlns:inkscape="http://www.inkscape.org/namespaces/inkscape"
   xmlns:sodipodi="http://sodipodi.sourceforge.net/DTD/sodipodi-0.dtd"
   xmlns="http://www.w3.org/2000/svg"
   xmlns:svg="http://www.w3.org/2000/svg">
  <defs
     id="defs1509">
    <rect
       x="-200.14545"
       y="-50.618182"
       width="104.14545"
       height="128"
       id="rect14134" />
    <inkscape:path-effect
       effect="fillet_chamfer"
       id="path-effect6257"
       is_visible="true"
       lpeversion="1"
       satellites_param="F,0,0,1,0,4,0,1 @ F,0,0,1,0,4,0,1 @ F,0,0,1,0,4,0,1 @ F,0,0,1,0,4,0,1 @ F,0,0,1,0,4,0,1 @ F,0,0,1,0,4,0,1"
       unit="px"
       method="auto"
       mode="F"
       radius="4"
       chamfer_steps="1"
       flexible="false"
       use_knot_distance="true"
       apply_no_radius="true"
       apply_with_radius="true"
       only_selected="false"
       hide_knots="false" />
    <inkscape:perspective
       sodipodi:type="inkscape:persp3d"
       inkscape:vp_x="0 : 96 : 1"
       inkscape:vp_y="0 : 1000 : 0"
       inkscape:vp_z="192 : 96 : 1"
       inkscape:persp3d-origin="96 : 64 : 1"
       id="perspective2524" />
    <clipPath
       clipPathUnits="userSpaceOnUse"
       id="clipPath1715">
      <path
         style="fill:none;stroke:#000000;stroke-width:1px;stroke-linecap:butt;stroke-linejoin:miter;stroke-opacity:1"
         d="m 14.454545,35.454545 7.909091,86.727275 75.545455,43.36363 59.181819,-46.0909 7.36364,-85.363641 -72.818186,-19.363636 z"
         id="path1717" />
    </clipPath>
    <clipPath
       clipPathUnits="userSpaceOnUse"
       id="clipPath6309">
      <path
         id="path6311"
         style="display:inline;opacity:0.11811;fill:#00ff00;stroke-width:0"
         d="M 92.614045,10.314495 23.983609,49.939411 a 6.9283007,6.9283007 119.99965 0 0 -3.464077,6.000042 V 135.1875 a 6.9283007,6.9283007 60.000349 0 0 3.464077,6.00004 l 68.630436,39.62492 a 6.9280086,6.9280086 1.3134257e-6 0 0 6.928154,0 l 68.630441,-39.62492 a 6.9283004,6.9283004 119.99965 0 0 3.46408,-6.00004 V 55.939453 a 6.9283004,6.9283004 60.000348 0 0 -3.46408,-6.000042 L 99.542199,10.314495 a 6.9280086,6.9280086 180 0 0 -6.928154,0 z"
         inkscape:path-effect="#path-effect6257"
         inkscape:original-d="M 96.078122,8.3144529 20.519532,51.939453 V 139.1875 l 75.55859,43.625 75.558598,-43.625 V 51.939453 Z" />
    </clipPath>
  </defs>
  <sodipodi:namedview
     id="namedview1507"
     pagecolor="#ffffff"
     bordercolor="#666666"
     borderopacity="1.0"
     inkscape:pageshadow="2"
     inkscape:pageopacity="0.0"
     inkscape:pagecheckerboard="0"
     showgrid="false"
     inkscape:snap-grids="false"
     inkscape:snap-to-guides="false"
     inkscape:snap-others="false"
     inkscape:object-nodes="true"
     inkscape:snap-nodes="true"
     inkscape:snap-global="true"
     inkscape:zoom="2.4306796"
     inkscape:cx="63.973879"
     inkscape:cy="67.059436"
     inkscape:window-width="1623"
     inkscape:window-height="1036"
     inkscape:window-x="330"
     inkscape:window-y="0"
     inkscape:window-maximized="0"
     inkscape:current-layer="g3209" />
  <g
     id="g3209"
     inkscape:label="ICON"
     style="display:inline"
     clip-path="url(#clipPath6309)">
    <path
       id="path2980"
       style="display:inline;opacity:1;fill: #FFB0AC ;stroke-width:0"
       d="m 96.078125,8.3144531 -75.558594,43.6249999 75.558594,43.625 75.558595,-43.625 z" />
    <path
       id="path3186"
       style="display:inline;opacity:1;fill: #E85E5C ;stroke-width:0"
       d="M 20.519531,51.939453 V 139.1875 l 75.558594,43.625 V 95.564453 Z" />
    <path
       d="M 56.592146,145.54117 C 44.649175,138.64571 35.565835,125.07313 35.565835,114.25646 V 75.200359 l 11.101919,6.409288 v 36.663293 c 0,5.83893 4.289381,12.81477 9.924392,16.06825 5.550959,3.20498 9.840339,1.18233 9.840339,-4.65721 V 93.021351 l 11.101918,6.40996 v 39.055969 c 0,10.81701 -9.167457,13.85215 -20.942257,7.05389 z"
       id="path30695"
       style="font-weight:bold;font-size:40px;line-height:1.25;font-family:Now;-inkscape-font-specification:'Now Bold';fill:#ffffff;stroke-width:0.667078" />
    <path
       id="path31030"
       style="display:inline;opacity:1;fill:#ff837d;stroke-width:0"
       d="M 171.63672,51.939453 V 139.1875 l -75.558595,43.625 V 95.564453 Z" />
    <path
       d="m 135.5641,145.54117 c 11.94297,-6.89546 21.02631,-20.46804 21.02631,-31.28471 V 75.200359 l -11.10191,6.409288 v 36.663293 c 0,5.83893 -4.28939,12.81477 -9.9244,16.06825 -5.55096,3.20498 -9.84033,1.18233 -9.84033,-4.65721 V 93.021351 l -11.10192,6.40996 v 39.055969 c 0,10.81701 9.16745,13.85215 20.94225,7.05389 z"
       id="path31032"
       style="font-weight:bold;font-size:40px;line-height:1.25;font-family:Now;-inkscape-font-specification:'Now Bold';fill:#ffffff;stroke-width:0.667078" />
  </g>
</svg>
