<svg xmlns="http://www.w3.org/2000/svg" viewBox="0 0 192 192"><defs><clipPath id="a"><rect width="153" height="153" x="19.5" y="19.5" rx="10" style="fill:none"/></clipPath><clipPath id="b"><circle cx="96" cy="96" r="50" style="fill:none"/></clipPath></defs><g style="clip-path:url(#a)"><rect width="153" height="153" x="19.5" y="19.5" rx="10" style="fill:#9abeff"/><path d="M19.5 96h153v76.5h-153z" style="fill:#f9de81"/><g style="clip-path:url(#b)"><circle cx="96" cy="96" r="50" style="fill:#56595b"/><path d="m113 76.58-21 9.2H69.61a2.08 2.08 0 0 0-2.11 2v59.54H81V106h11l21 9.17a1.22 1.22 0 0 0 1.83-1.23V77.8a1.21 1.21 0 0 0-1.83-1.22ZM117.53 84.78v22.44c3.85 0 7-5 7-11.22s-3.15-11.22-7-11.22Z" style="fill:#fff"/></g></g></svg>