<svg xmlns="http://www.w3.org/2000/svg" width="192" height="192"><style>.st0{fill:#fff}</style><path d="M44 20c-2.216 0-4 1.784-4 4v4h-8c-2.216 0-4 1.784-4 4v8h-4c-2.216 0-4 1.784-4 4v64c0 2.216 1.784 4 4 4h16v16c0 2.216 1.784 4 4 4h16v16c0 2.216 1.784 4 4 4h16v16c0 2.216 1.784 4 4 4h24c2.216 0 4.17-1.79 4-4v-16h16c2.216 0 4-1.784 4-4v-16h16c2.216 0 4-1.784 4-4v-16h16c2.216 0 4-1.784 4-4V44c0-2.216-1.784-4-4-4h-4v-8c0-2.216-1.784-4-4-4h-8v-4c0-2.216-1.784-4-4-4h-12c-2.216 0-4 1.784-4 4v4h-12c-2.216 0-4 1.784-4 4v8h-8c-2.216 0-4 1.784-4 4v16H88V44c0-2.216-1.784-4-4-4h-8v-8c0-2.216-1.784-4-4-4H60v-4c0-2.216-1.784-4-4-4z" style="fill:#ff837d;paint-order:stroke fill markers;stroke-width:4"/></svg>