<?xml version="1.0" encoding="UTF-8" standalone="no"?><!DOCTYPE svg PUBLIC "-//W3C//DTD SVG 1.1//EN" "http://www.w3.org/Graphics/SVG/1.1/DTD/svg11.dtd"><svg width="100%" height="100%" viewBox="0 0 800 800" version="1.1" xmlns="http://www.w3.org/2000/svg" xmlns:xlink="http://www.w3.org/1999/xlink" xml:space="preserve" xmlns:serif="http://www.serif.com/" style="fill-rule:evenodd;clip-rule:evenodd;stroke-linejoin:round;stroke-miterlimit:2;"><g id="unifi_video"><g id="bg"><path d="M720.833,124.083c0,-24.79 -20.126,-44.916 -44.916,-44.916l-551.834,-0c-24.79,-0 -44.916,20.126 -44.916,44.916l-0,551.834c-0,24.79 20.126,44.916 44.916,44.916l551.834,0c24.79,0 44.916,-20.126 44.916,-44.916l0,-551.834Z" style="fill:#728dbe;"/></g><g id="icon"><g><path d="M505.224,271.491l-240.319,82.749l48.835,141.827l240.32,-82.748l-48.836,-141.828Z" style="fill:#ebebeb;"/><path d="M280.164,348.986l-70.914,24.417l9.224,26.79l70.914,-24.418l-9.224,-26.789Z" style="fill:#ebebeb;"/><ellipse cx="438.632" cy="454.453" rx="35.417" ry="32.083" style="fill:#ebebeb;"/><path d="M491.323,306.181l-193.226,66.533l31.837,92.462l193.226,-66.533l-31.837,-92.462Z" style="fill:#728dbe;"/><path d="M507.95,507.375l-53.033,-53.033l-20.624,20.624l53.033,53.033l20.624,-20.624Z" style="fill:#ebebeb;"/><rect x="488.25" y="499.342" width="102.5" height="29.167" style="fill:#ebebeb;"/><path d="M264.434,409.157l-31.517,10.852l24.417,70.914l31.518,-10.852l-24.418,-70.914Z" style="fill:#ebebeb;"/></g></g></g></svg>