<?xml version="1.0" encoding="UTF-8" standalone="no"?>
<svg
   viewBox="0 0 192 192"
   version="1.1"
   id="svg16"
   sodipodi:docname="unipatcher.svg"
   inkscape:version="1.2 (dc2aedaf03, 2022-05-15)"
   xml:space="preserve"
   inkscape:export-filename="unipatcher.png"
   inkscape:export-xdpi="96"
   inkscape:export-ydpi="96"
   xmlns:inkscape="http://www.inkscape.org/namespaces/inkscape"
   xmlns:sodipodi="http://sodipodi.sourceforge.net/DTD/sodipodi-0.dtd"
   xmlns="http://www.w3.org/2000/svg"
   xmlns:svg="http://www.w3.org/2000/svg"
   xmlns:rdf="http://www.w3.org/1999/02/22-rdf-syntax-ns#"
   xmlns:cc="http://creativecommons.org/ns#"
   xmlns:dc="http://purl.org/dc/elements/1.1/"><metadata
     id="metadata20"><rdf:RDF><cc:Work
         rdf:about=""><dc:format>image/svg+xml</dc:format><dc:type
           rdf:resource="http://purl.org/dc/dcmitype/StillImage" /><dc:title /></cc:Work></rdf:RDF></metadata><sodipodi:namedview
     pagecolor="#ffffff"
     bordercolor="#666666"
     borderopacity="1"
     objecttolerance="10"
     gridtolerance="10"
     guidetolerance="10"
     inkscape:pageopacity="0"
     inkscape:pageshadow="2"
     inkscape:window-width="1884"
     inkscape:window-height="1052"
     id="namedview18"
     showgrid="true"
     inkscape:zoom="0.61458334"
     inkscape:cx="-174.10169"
     inkscape:cy="165.9661"
     inkscape:window-x="36"
     inkscape:window-y="0"
     inkscape:window-maximized="1"
     inkscape:current-layer="svg16"
     inkscape:snap-global="false"
     inkscape:showpageshadow="0"
     inkscape:pagecheckerboard="0"
     inkscape:deskcolor="#d1d1d1"><inkscape:grid
       type="xygrid"
       id="grid827"
       spacingx="4"
       spacingy="4" /></sodipodi:namedview><defs
     id="defs4"><style
       id="style2">.a{fill:none;stroke:#b1b5bd;stroke-linecap:round;stroke-linejoin:round;isolation:isolate;opacity:0.63;}</style></defs><rect
     class="a"
     x="20"
     y="20"
     width="152"
     height="152"
     rx="10"
     id="rect6"
     style="fill:#fdf5d9;opacity:1;stroke:none;fill-opacity:1" /><path
     style="fill:#8e6f60"
     d="m 50,116 c 0,-16 14,-38.169492 38,-38.169492 5.333333,0 10.666667,0 16,0 24,0 38,18.169492 38,38.169492 0,6.02774 -5.1926,8 -10,8 -12,0 -24,-12 -24,-12 H 84 c 0,0 -12,12 -24,12 -4.807402,0 -10,-2.07395 -10,-8 z"
     id="path907"
     inkscape:connector-curvature="0"
     sodipodi:nodetypes="sssssccss" /><rect
     style="opacity:1;vector-effect:none;fill:#ffffff;fill-opacity:1;fill-rule:evenodd;paint-order:stroke fill markers"
     id="rect837"
     width="5.6989069"
     height="16"
     x="69"
     y="92"
     ry="1.842726" /><rect
     style="opacity:1;vector-effect:none;fill:#ffffff;fill-opacity:1;fill-rule:evenodd;paint-order:stroke fill markers"
     id="rect839"
     width="16"
     height="6.1303616"
     x="64"
     y="96.869637"
     ry="1.842726" /><rect
     style="opacity:1;vector-effect:none;fill:#ffffff;fill-opacity:1;fill-rule:evenodd;stroke-width:0.89276147;paint-order:stroke fill markers"
     id="rect861"
     width="5.76512"
     height="5.76512"
     x="117.61913"
     y="91.106415"
     ry="2.88256" /><rect
     style="opacity:1;vector-effect:none;fill:#ffffff;fill-opacity:1;fill-rule:evenodd;stroke-width:0.89276147;paint-order:stroke fill markers"
     id="rect861-4"
     width="5.76512"
     height="5.76512"
     x="117.6191"
     y="102.91659"
     ry="2.88256" /><rect
     style="opacity:1;vector-effect:none;fill:#ffffff;fill-opacity:1;fill-rule:evenodd;stroke-width:0.89276147;paint-order:stroke fill markers"
     id="rect861-0"
     width="5.76512"
     height="5.76512"
     x="96.962326"
     y="-128.96777"
     ry="2.88256"
     transform="rotate(90)" /><rect
     style="opacity:1;vector-effect:none;fill:#ffffff;fill-opacity:1;fill-rule:evenodd;stroke-width:0.89276147;paint-order:stroke fill markers"
     id="rect861-4-6"
     width="5.76512"
     height="5.76512"
     x="97.060684"
     y="-117.80069"
     ry="2.88256"
     transform="rotate(90)" /><path
     style="fill:none;stroke:#8e6f60;stroke-width:3;stroke-linecap:round;stroke-linejoin:round;stroke-miterlimit:4;stroke-dasharray:none;stroke-opacity:1"
     d="m 96,77.932203 c 0,0 0,-1.677966 0,-2.949152 C 96,74.168324 96.764928,72 98.644068,72 c 0.966101,0 2.050572,0.463367 2.898302,0 1.79047,-0.978671 3.30509,-5.152543 3.30509,-5.152543"
     id="path911"
     inkscape:connector-curvature="0"
     sodipodi:nodetypes="csssc" /><rect
     style="opacity:1;vector-effect:none;fill:#8e6f60;fill-opacity:1;fill-rule:evenodd;paint-order:stroke fill markers"
     id="rect909"
     width="8"
     height="4"
     x="92"
     y="76"
     ry="2" /><rect
     style="opacity:1;vector-effect:none;fill:#ffffff;fill-opacity:1;fill-rule:evenodd;paint-order:stroke fill markers"
     id="rect913"
     width="8"
     height="4"
     x="86.033897"
     y="100"
     ry="2" /><rect
     style="opacity:1;vector-effect:none;fill:#ffffff;fill-opacity:1;fill-rule:evenodd;paint-order:stroke fill markers"
     id="rect915"
     width="8"
     height="4"
     x="98.067795"
     y="100"
     ry="2" /><g
     id="g2605"
     transform="translate(-18)"><rect
       class="a"
       x="38"
       y="-244"
       width="152"
       height="152"
       rx="10"
       id="rect6-3"
       style="isolation:isolate;fill:#98dc9a;stroke:none;stroke-linecap:round;stroke-linejoin:round" /><rect
       class="a"
       x="38"
       y="-244"
       width="152"
       height="152"
       rx="10"
       id="rect6-9-6"
       style="opacity:0.5;isolation:isolate;fill:#fdf5d9;stroke:none;stroke-linecap:round;stroke-linejoin:round" /><path
       style="fill:#8e6f60"
       d="m 68,-148 c 0,-16 14,-38.16949 38,-38.16949 5.33333,0 10.66667,0 16,0 24,0 38,18.16949 38,38.16949 0,6.02774 -5.1926,8 -10,8 -12,0 -24,-12 -24,-12 h -24 c 0,0 -12,12 -24,12 -4.807402,0 -10,-2.07395 -10,-8 z"
       id="path907-7"
       inkscape:connector-curvature="0"
       sodipodi:nodetypes="sssssccss" /><rect
       style="fill:#ffffff;fill-opacity:1;fill-rule:evenodd;paint-order:stroke fill markers"
       id="rect837-5"
       width="5.6989069"
       height="16"
       x="87"
       y="-172"
       ry="1.842726" /><rect
       style="fill:#ffffff;fill-opacity:1;fill-rule:evenodd;paint-order:stroke fill markers"
       id="rect839-3"
       width="16"
       height="6.1303616"
       x="82"
       y="-167.13037"
       ry="1.842726" /><rect
       style="fill:#ffffff;fill-opacity:1;fill-rule:evenodd;stroke-width:0.892761;paint-order:stroke fill markers"
       id="rect861-5"
       width="5.76512"
       height="5.76512"
       x="135.61914"
       y="-172.89359"
       ry="2.88256" /><rect
       style="fill:#ffffff;fill-opacity:1;fill-rule:evenodd;stroke-width:0.892761;paint-order:stroke fill markers"
       id="rect861-4-62"
       width="5.76512"
       height="5.76512"
       x="135.61911"
       y="-161.0834"
       ry="2.88256" /><rect
       style="fill:#ffffff;fill-opacity:1;fill-rule:evenodd;stroke-width:0.892761;paint-order:stroke fill markers"
       id="rect861-0-9"
       width="5.76512"
       height="5.76512"
       x="-167.03767"
       y="-146.96777"
       ry="2.88256"
       transform="rotate(90)" /><rect
       style="fill:#ffffff;fill-opacity:1;fill-rule:evenodd;stroke-width:0.892761;paint-order:stroke fill markers"
       id="rect861-4-6-1"
       width="5.76512"
       height="5.76512"
       x="-166.93932"
       y="-135.80069"
       ry="2.88256"
       transform="rotate(90)" /><path
       style="fill:none;stroke:#8e6f60;stroke-width:3;stroke-linecap:round;stroke-linejoin:round;stroke-miterlimit:4;stroke-dasharray:none;stroke-opacity:1"
       d="m 114,-186.0678 c 0,0 0,-1.67796 0,-2.94915 0,-0.81473 0.76493,-2.98305 2.64407,-2.98305 0.9661,0 2.05057,0.46337 2.8983,0 1.79047,-0.97867 3.30509,-5.15254 3.30509,-5.15254"
       id="path911-2"
       inkscape:connector-curvature="0"
       sodipodi:nodetypes="csssc" /><rect
       style="fill:#8e6f60;fill-opacity:1;fill-rule:evenodd;paint-order:stroke fill markers"
       id="rect909-7"
       width="8"
       height="4"
       x="110"
       y="-188"
       ry="2" /><rect
       style="fill:#ffffff;fill-opacity:1;fill-rule:evenodd;paint-order:stroke fill markers"
       id="rect913-0"
       width="8"
       height="4"
       x="104.0339"
       y="-164"
       ry="2" /><rect
       style="fill:#ffffff;fill-opacity:1;fill-rule:evenodd;paint-order:stroke fill markers"
       id="rect915-9"
       width="8"
       height="4"
       x="116.06779"
       y="-164"
       ry="2" /></g></svg>
