<svg xmlns="http://www.w3.org/2000/svg" width="192" height="192"><defs><linearGradient id="a" x1="138.29" x2="22.405" y1="141.55" y2="24.482" gradientUnits="userSpaceOnUse"><stop offset="0" stop-color="#f8c18c"/><stop offset="1" stop-color="#f9de81"/></linearGradient></defs><rect width="152" height="152" x="20" y="20" fill="url(#a)" rx="9.935"/><g fill="#fff" aria-label="SI"><path d="M87.275 121.77c5.042-.858 9.03-3.917 10.199-8.659.396-1.604.4-4.336.043-5.95-2.136-9.666-14.818-9.2-18.377-13.841-.99-1.29-1.038-4.311-.055-5.607.459-.604 1.075-1.063 1.797-1.384 1.502-.67 4.314-.62 5.865-.062.7.252 1.37.597 2 1.032 1.358.937 3.163 1.148 4.387.03l.334-.305c1.224-1.117 1.38-3.097.093-4.135a15.5 15.5 0 0 0-6.774-3.127c-1.624-.314-4.341-.32-5.962.011-4.327.883-7.944 3.716-9.04 8.263-.388 1.607-.398 4.344.012 5.945 2.28 8.884 14.932 8.461 18.387 13.339.942 1.33.958 4.304.04 5.654-.654.962-1.663 1.674-2.914 2.098-1.562.53-4.33.507-5.911.03a8.974 8.974 0 0 1-4.348-2.881c-1.055-1.27-2.68-1.869-4.097-1.009l-.672.408c-1.417.86-2.015 2.801-1.022 4.124 2.309 3.073 5.858 5.294 10.043 6.018 1.63.283 4.34.285 5.972.007zM107.45 121.46h.768a3 3 135 0 0 3-3V83.025a3 3 45 0 0-3-3h-.768a3 3 135 0 0-3 3v35.435a3 3 45 0 0 3 3z"/><rect width="21.558" height="6.532" x="-43.752" y="-129.6" ry="3.266" transform="rotate(135)"/></g></svg>