<svg width="192" height="192" version="1.1" viewBox="0 0 192 192" xmlns="http://www.w3.org/2000/svg">
 <rect x="20" y="20" width="152" height="152" rx="9.9346" opacity=".63" style="fill:#98dc9a;opacity:1"/>
 <path d="m56 80h8v20s0 8 8 8 8-8 8-8v-20h16c0 8 3.3705 10.741 3.3705 10.741s2.6092-12.548 15.79-12.63c12.937-0.08041 18.269 8.5248 18.741 17.049 0.52138 9.4137-5.7459 18.887-18.111 18.741-7.9312-0.09339-11.79-5.9016-11.79-5.9016l-4 20h-8l4.6295-25.889s-4.6295-6.1115-8.6295-14.111v12s0 16-16 16-16-16-16-16z" style="fill:#fff"/>
 <path d="m105.13 100.3s0.9946-14.668 10.912-14.898c4.8954-0.11374 10.058 3.0822 10.282 10.492 0.14733 4.8699-3.354 11.23-9.2328 11.331-6.0459 0.10365-11.961-6.9246-11.961-6.9246z" style="fill:#98dc9a"/>
</svg>
