<svg xmlns="http://www.w3.org/2000/svg" viewBox="0 0 159.57 157.05"><title>Verisure</title><path d="M39.87,160.94A27,27,0,0,0,75.3,171.72c.38-.18.79-.38,1.19-.61a40.82,40.82,0,0,1,39.14,0c.41.23.82.45,1.17.61a26.88,26.88,0,0,0,35.35-11.24c3-5.28,4.17-11.13,2.93-18.68a44.67,44.67,0,0,1,1.27-19.36,41,41,0,0,1,11.05-18.4,28,28,0,0,0,8.11-16.29c1.8-11.92-5.49-25.37-16.6-29.15a46.38,46.38,0,0,0-8.18-2.09,41,41,0,0,1-30.17-23.12,41.17,41.17,0,0,0-4-6.18C107.14,14.78,86.43,13.74,75.5,27a31.86,31.86,0,0,0-4,6.43A42.33,42.33,0,0,1,39.87,56.82,29.14,29.14,0,0,0,33,58.62C21.7,63.09,15,75.29,16.39,87.06a27.71,27.71,0,0,0,8.05,16.67A45.41,45.41,0,0,1,35.32,121.4c2.47,6.78,2.47,14.91,1.48,20.48A28.76,28.76,0,0,0,39.87,160.94Z" transform="translate(-16.22 -17.48)" fill="#ff837d"/><path d="M51.61,102.56C51.61,77,72.78,56.46,98.33,58c21.9,1.34,39.74,19.39,41.14,41.6,1.63,25.92-18.65,47.5-43.89,47.5C71.28,147.14,51.61,127.16,51.61,102.56Z" transform="translate(-16.22 -17.48)" fill="#fff" style="isolation:isolate"/><path d="M56.23,102.56c0-22.86,19-41.26,41.81-39.85,19.61,1.2,35.58,17.35,36.83,37.24,1.45,23.2-16.7,42.51-39.29,42.51C73.83,142.46,56.23,124.58,56.23,102.56Z" transform="translate(-16.22 -17.48)" fill="#ff837d"/></svg>