<svg xmlns="http://www.w3.org/2000/svg" xmlns:xlink="http://www.w3.org/1999/xlink" id="svg2" width="192" height="192" version="1.1"><defs id="defs4"><path id="path-9" d="M36.084 0c1.672 0 3.207.925 3.989 2.404l40.54 76.705H55.062a4.512 4.512 0 0 1-3.993-2.41L17.528 13.007 10.678 0Zm35.45 70.235H66.56l2.623 4.964h4.963l-2.612-4.964Zm-4.827-9.174h-4.993l2.622 4.963h4.982l-2.61-4.963Zm-4.826-9.174h-5.014l2.622 4.963h5.003l-2.61-4.963Zm-4.827-9.175H52.02l2.622 4.964h5.024l-2.612-4.964Zm-4.827-9.174h-5.053l2.622 4.963h5.042l-2.61-4.963Zm-4.826-9.174h-5.073l2.622 4.963h5.062l-2.61-4.963Zm-4.826-9.174h-5.093l2.622 4.963h5.082l-2.61-4.963ZM37.75 6.016h-5.114l2.622 4.963h5.102l-2.61-4.963Z"/><path id="path-11" d="M37.449 0h-26.77C8.572.3 4.511 2.406 0 6.016h27.222C28.782 4.132 32.736.447 37.449 0Z"/></defs><g id="layer1" transform="translate(0 -860.362)"><path id="polygon1512" fill="#ff8279" fill-rule="evenodd" d="M118.369 3.05 80.668 77.341h-7.207L70.41 63.48l38.117-60.432z" style="fill:#ececec;fill-opacity:1;stroke:none;stroke-width:1" transform="matrix(1.4477 0 0 1.4477 7.814 899.099)"/><path id="path1514" fill="#fff" fill-rule="evenodd" d="M182.88 899.099a1.307 1.307 0 0 1 1.154 1.917l-59.516 112.61-3.297-5.663.031.001 3.797-7.186h-7.201l-.387.73-14.498-24.897 40.046-75.43a3.92 3.92 0 0 1 3.461-2.082zm-50.816 88.398h-7.228l-3.78 7.185h7.212zm7.017-13.281h-7.258l-3.78 7.185h7.242zm7.017-13.283h-7.287l-3.782 7.186h7.273zm7.016-13.281h-7.315l-3.78 7.185h7.299zm7.015-13.281h-7.344l-3.78 7.185h7.329zm7.016-13.282h-7.373l-3.78 7.185h7.357zm7.016-13.28h-7.403l-3.78 7.184h7.387z" style="fill:#ba6561;fill-opacity:1;stroke:none;stroke-width:1.44771"/><path id="polygon1516" fill="#ff6d6a" fill-rule="evenodd" d="M29.8 5.128h9.841l37.146 72.214h-9.84z" style="fill:#fff;fill-opacity:1;stroke:none;stroke-width:1" transform="matrix(1.4477 0 0 1.4477 7.814 899.099)"/><use xlink:href="#path-9" id="use1518" width="100%" height="100%" x="0" y="0" fill="#fff" fill-rule="evenodd" style="fill:#ff837d;fill-opacity:1;stroke:none;stroke-width:1" transform="matrix(1.4477 0 0 1.4477 7.814 899.099)"/><use xlink:href="#path-11" id="use1520" width="100%" height="100%" x="0" y="0" fill="#fff" fill-rule="evenodd" style="fill:#ba6561;fill-opacity:1;stroke:none;stroke-width:1" transform="matrix(1.4477 0 0 1.4477 7.814 899.099)"/></g><style id="style853" type="text/css">.st0{fill:#fff}</style></svg>