<svg width="192" height="192" version="1.1" viewBox="0 0 192 192" xml:space="preserve" xmlns="http://www.w3.org/2000/svg"><circle cx="96" cy="96" r="88" fill="#728dbe"/><g transform="translate(34.334 109.45)" stroke="#fff" stroke-linecap="round" stroke-linejoin="round" stroke-width="1.9899"><path d="m54.242-11.684q-11.371-13.523-25.131-24.874-5.3105-4.0075-0.35535-7.4031l5.7645-3.3758q6.1199-3.8299 11.233 1.224 10.384 12.082 20.65 32.929l-0.65147-34.646q2.3492-2.6256 5.6066-1.8162 10.937 6.6924 22.387 7.0477 3.3561 0 3.2179 3.6127l-0.25664 13.128q-0.27638 2.5664-2.9612 2.5664-10.187-0.11845-21.242-5.5079l0.07897 18.952v15.083c0 13.72-12.852 20.669-23.532 16.464-16.464-6.4752-13.029-31.251 5.192-33.383z" fill="#fff"/><path d="m44.253 5.4518q3.8496-1.1845 9.851 5.883c5.9027 6.2778-1.8754 10.364-6.1001 5.3105q-6.0606-6.416-3.7509-11.193z" fill="#728dbe" fill-opacity=".99738"/></g></svg>
