<?xml version="1.0" encoding="utf-8"?>
<!-- Generator: Adobe Illustrator 25.3.1, SVG Export Plug-In . SVG Version: 6.00 Build 0)  -->
<svg version="1.1" id="Layer_1" xmlns="http://www.w3.org/2000/svg" xmlns:xlink="http://www.w3.org/1999/xlink" x="0px" y="0px"
	 viewBox="0 0 192 192" style="enable-background:new 0 0 192 192;" xml:space="preserve">
<style type="text/css">
	.st0{fill:#56595B;enable-background:new    ;}
	.st1{fill:none;stroke:#979797;stroke-miterlimit:10;}
	.st2{fill:none;stroke:#F9DE81;stroke-width:1.8;stroke-miterlimit:10;}
	.st3{fill:none;stroke:#CCCCCC;stroke-width:1.8;stroke-miterlimit:10;}
</style>
<path class="st0" d="M30,20h132c5.5,0,10,4.5,10,10v132c0,5.5-4.5,10-10,10H30c-5.5,0-10-4.5-10-10V30C20,24.5,24.5,20,30,20z"/>
<line class="st1" x1="171.9" y1="145.6" x2="44.8" y2="145.6"/>
<line class="st1" x1="171.8" y1="46.2" x2="44.8" y2="46.2"/>
<line class="st1" x1="171.9" y1="95.2" x2="44.8" y2="95.2"/>
<path class="st2" d="M45.1,62.9c0,0,4.6-8.6,12.8-11.4s11.4,3.3,19.8,3.3c14.4,0,2,89.1,29.3,80.8c6.2-1.9,8.5,3.5,12.8,3.4
	c12.6-0.1,7.4-47.5,17.5-50c10.5-2.6,6.1,13.8,15.8,13.8c9.7,0,14.2-4.9,18.7-4.9"/>
<line class="st3" x1="45" y1="20" x2="45" y2="172"/>
</svg>
