<?xml version="1.0" encoding="UTF-8" standalone="no"?>
<svg
   xmlns:dc="http://purl.org/dc/elements/1.1/"
   xmlns:cc="http://creativecommons.org/ns#"
   xmlns:rdf="http://www.w3.org/1999/02/22-rdf-syntax-ns#"
   xmlns:svg="http://www.w3.org/2000/svg"
   xmlns="http://www.w3.org/2000/svg"
   xmlns:sodipodi="http://sodipodi.sourceforge.net/DTD/sodipodi-0.dtd"
   xmlns:inkscape="http://www.inkscape.org/namespaces/inkscape"
   sodipodi:docname="volume_styles.svg"
   inkscape:version="1.0.1 (3bc2e813f5, 2020-09-07)"
   version="1.1"
   id="svg2"
   viewBox="0 0 192 192"
   height="192"
   width="192"
   inkscape:export-filename="/home/jphilippe/inkscape/icônes/delta-github/png/volume_styles3.png"
   inkscape:export-xdpi="96"
   inkscape:export-ydpi="96">
  <sodipodi:namedview
     inkscape:document-rotation="0"
     inkscape:window-maximized="1"
     inkscape:window-y="30"
     inkscape:window-x="1920"
     inkscape:window-height="1022"
     inkscape:window-width="1680"
     units="px"
     showgrid="false"
     inkscape:current-layer="layer1"
     inkscape:document-units="px"
     inkscape:cy="188.68572"
     inkscape:cx="-193.15458"
     inkscape:zoom="0.7071068"
     inkscape:pageshadow="2"
     inkscape:pageopacity="0.0"
     borderopacity="1.0"
     bordercolor="#666666"
     pagecolor="#ffffff"
     id="base"
     inkscape:snap-bbox="false"
     inkscape:object-paths="true"
     inkscape:snap-nodes="true"
     showguides="true"
     inkscape:guide-bbox="true"
     inkscape:snap-object-midpoints="true"
     inkscape:snap-center="true"
     inkscape:snap-global="false"
     inkscape:snap-intersection-paths="true"
     inkscape:snap-smooth-nodes="true"
     inkscape:snap-midpoints="true" />
  <defs
     id="defs4" />
  <metadata
     id="metadata7">
    <rdf:RDF>
      <cc:Work
         rdf:about="">
        <dc:format>image/svg+xml</dc:format>
        <dc:type
           rdf:resource="http://purl.org/dc/dcmitype/StillImage" />
        <dc:title />
      </cc:Work>
    </rdf:RDF>
  </metadata>
  <g
     transform="translate(0,-860.36216)"
     id="layer1"
     inkscape:groupmode="layer"
     inkscape:label="Calque 1">
    <rect
       style="fill:#99bdfe;fill-opacity:1;fill-rule:evenodd;stroke:none;stroke-width:0.993464;stroke-opacity:1"
       width="152"
       height="152"
       x="20"
       y="880.36218"
       rx="9.9346409"
       id="rect1128"
       ry="9.9346409" />
    <rect
       style="fill:#ffffff;fill-opacity:1;stroke:none;stroke-width:3.95838;stroke-linecap:round;stroke-linejoin:round;stroke-dashoffset:6;paint-order:stroke fill markers;stop-color:#000000"
       id="rect1142"
       width="37.918571"
       height="100"
       x="101.17963"
       y="906.36218"
       rx="9.2149277"
       ry="9.2149277" />
    <rect
       style="fill:#ffffff;fill-opacity:1;stroke:none;stroke-width:3.95838;stroke-linecap:round;stroke-linejoin:round;stroke-dashoffset:6;paint-order:stroke fill markers;stop-color:#000000"
       id="rect1144"
       width="37.918571"
       height="100"
       x="52.901825"
       y="906.36218"
       rx="9.2149277"
       ry="9.2149277" />
    <path
       style="fill:none;stroke:#99bdfe;stroke-width:2.85969;stroke-linecap:round;stroke-linejoin:round;stroke-miterlimit:4;stroke-dasharray:none;stroke-opacity:1"
       d="m 71.86111,919.21221 v 14.17008"
       id="path1148"
       sodipodi:nodetypes="cc" />
    <path
       style="fill:none;stroke:#99bdfe;stroke-width:2.85969;stroke-linecap:round;stroke-linejoin:round;stroke-miterlimit:4;stroke-dasharray:none;stroke-opacity:1"
       d="m 71.86111,935.64183 v 40.96299"
       id="path1150"
       sodipodi:nodetypes="cc" />
    <path
       fill-rule="evenodd"
       clip-rule="evenodd"
       d="m 77.33679,985.2403 -9.6074,2.08436 v 1.25061 0.41689 5.83555 c -0.32148,-0.1339 -0.67423,-0.20775 -1.04429,-0.20775 -1.49953,0 -2.71514,1.21322 -2.71514,2.70962 0,1.49663 1.21561,2.70962 2.71514,2.70962 1.49953,0 2.71514,-1.21299 2.71514,-2.70962 v -8.69994 l 6.2657,-1.35935 v 5.88982 c -0.32149,-0.13377 -0.67423,-0.20767 -1.0442,-0.20767 -1.49958,0 -2.71528,1.21328 -2.71528,2.70968 0,1.49641 1.2157,2.70961 2.71528,2.70961 1.49935,0 2.71505,-1.2132 2.71505,-2.70961 v -8.75434 z"
       fill="#ff837d"
       id="path1152"
       style="fill:#99bdfe;fill-opacity:1;stroke-width:0.226557" />
    <path
       fill-rule="evenodd"
       clip-rule="evenodd"
       d="m 119.32783,989.34326 c -0.76172,0.68586 -1.78354,0.89963 -2.70661,0.66013 0.16383,1.31508 0.87216,2.81272 2.16293,4.10354 1.42224,1.42228 3.09569,2.13739 4.49934,2.19607 -0.40437,-1.09504 -0.12981,-2.37359 0.79067,-3.20227 1.06424,-0.9583 1.70618,-0.21949 2.58875,0.7963 0.11743,0.13506 0.23904,0.27511 0.36655,0.41673 0.12666,0.14061 0.25334,0.27651 0.3766,0.40873 0.93367,1.00129 1.66539,1.78597 0.60006,2.74511 -0.0869,0.0783 -0.17724,0.15038 -0.27032,0.21634 l 4.1e-4,4.2e-4 c -2.66707,2.66704 -7.63386,2.02428 -11.09377,-1.43566 -3.4599,-3.45986 -4.10268,-8.42673 -1.4357,-11.09373 l 0.003,0.003 c 0.0587,-0.0629 0.12042,-0.12368 0.18549,-0.18225 1.06429,-0.9583 1.70621,-0.21948 2.58875,0.79627 0.11742,0.13513 0.23909,0.27517 0.36659,0.41677 0.12659,0.1406 0.25334,0.27654 0.37658,0.40869 v 10e-6 c 0.93366,1.00129 1.66535,1.78598 0.60005,2.74517 z"
       fill="#ba6561"
       id="path1154"
       style="fill:#99bdfe;fill-opacity:1;stroke-width:0.0922605" />
    <path
       style="fill:none;stroke:#99bdfe;stroke-width:2.85969;stroke-linecap:round;stroke-linejoin:round;stroke-miterlimit:4;stroke-dasharray:none;stroke-opacity:1"
       d="m 120.13891,919.21221 v 36.86888"
       id="path1158"
       sodipodi:nodetypes="cc" />
    <path
       style="fill:none;stroke:#99bdfe;stroke-width:2.85969;stroke-linecap:round;stroke-linejoin:round;stroke-miterlimit:4;stroke-dasharray:none;stroke-opacity:1"
       d="m 120.13891,958.51936 v 18.08546"
       id="path1160"
       sodipodi:nodetypes="cc" />
    <path
       style="fill:none;stroke:#ffffff;stroke-width:2.86;stroke-linecap:round;stroke-linejoin:round;stroke-miterlimit:4;stroke-dasharray:none;stroke-opacity:0.5"
       d="m 71.86111,919.21221 v 14.17008"
       id="path1414"
       sodipodi:nodetypes="cc" />
    <circle
       style="fill:#99bdfe;fill-opacity:1;stroke:none;stroke-width:3.91274;stroke-linecap:round;stroke-linejoin:round;stroke-dashoffset:6;paint-order:stroke fill markers;stop-color:#000000"
       id="circle1146"
       cx="71.861115"
       cy="934.50439"
       r="5.1184583" />
    <path
       style="fill:none;stroke:#ffffff;stroke-width:2.86;stroke-linecap:round;stroke-linejoin:round;stroke-miterlimit:4;stroke-dasharray:none;stroke-opacity:0.5"
       d="m 120.13891,919.21221 v 36.86888"
       id="path1416"
       sodipodi:nodetypes="cc" />
    <circle
       style="fill:#99bdfe;fill-opacity:1;stroke:none;stroke-width:3.91274;stroke-linecap:round;stroke-linejoin:round;stroke-dashoffset:6;paint-order:stroke fill markers;stop-color:#000000"
       id="circle1156"
       cx="120.13892"
       cy="957.25311"
       r="5.1184583" />
  </g>
  <style
     type="text/css"
     id="style853">
	.st0{fill:#FFFFFF;}
</style>
  <style
     type="text/css"
     id="style853-9">
	.st0{fill:#FFFFFF;}
</style>
  <style
     type="text/css"
     id="style853-3">
	.st0{fill:#FFFFFF;}
</style>
  <style
     type="text/css"
     id="style853-5">
	.st0{fill:#FFFFFF;}
</style>
  <style
     type="text/css"
     id="style853-9-6">
	.st0{fill:#FFFFFF;}
</style>
  <style
     type="text/css"
     id="style853-3-2">
	.st0{fill:#FFFFFF;}
</style>
  <style
     type="text/css"
     id="style853-59">
	.st0{fill:#FFFFFF;}
</style>
  <style
     type="text/css"
     id="style853-9-2">
	.st0{fill:#FFFFFF;}
</style>
  <style
     type="text/css"
     id="style853-3-28">
	.st0{fill:#FFFFFF;}
</style>
</svg>
