<?xml version="1.0" encoding="UTF-8"?>
<svg version="1.1" viewBox="0 0 192 192" xml:space="preserve" xmlns="http://www.w3.org/2000/svg" xmlns:xlink="http://www.w3.org/1999/xlink"><defs><linearGradient id="linearGradient866" x1="8" x2="184" y1="96" y2="96" gradientUnits="userSpaceOnUse"><stop stop-color="#ffd6d4" offset="0"/><stop stop-color="#9abeff" offset="1"/></linearGradient></defs>
	 <circle class="a" cx="96" cy="96" r="88" fill="url(#linearGradient866)"/><path d="m94.407 132.23-21.037-57.623s-7.3172 0.40651-7.622-2.0325c-0.30488-2.4391 1.4228-3.4553 1.4228-3.4553l18.395-9.6546s1.8655-0.60899 2.5407 0.30488c1.9454 2.6331-1.2195 5.183-1.2195 5.183l17.683 46.037s6.0976-36.789 4.0651-37.602c-2.0326-0.81302-4.2683 0.30487-4.2683 0.30487s-1.6649 0.67255-2.6423-0.30487c-1.8547-1.8547-0.91464-3.557-0.91464-3.557s14.291-13.772 18.852-8.5875c19.817 22.525-10.318 37.903-18.852 71.495z" fill="#fff" stroke-linecap="round" stroke-linejoin="round" stroke-width="7.743"/></svg>
