<?xml version="1.0" encoding="utf-8"?>
<!-- Generator: Adobe Illustrator 17.1.0, SVG Export Plug-In . SVG Version: 6.00 Build 0)  -->
<!DOCTYPE svg PUBLIC "-//W3C//DTD SVG 1.1//EN" "http://www.w3.org/Graphics/SVG/1.1/DTD/svg11.dtd">
<svg version="1.1" id="Слой_1" xmlns="http://www.w3.org/2000/svg" xmlns:xlink="http://www.w3.org/1999/xlink" x="0px" y="0px"
	 viewBox="0 0 192 192" enable-background="new 0 0 192 192" xml:space="preserve">
<circle cx="96" cy="96" r="96"/>
<image overflow="visible" width="180" height="180" xlink:href="3BEB7EDA.jpg"  transform="matrix(1 0 0 1 -6192 -6192)">
</image>
<image overflow="visible" width="241" height="241" xlink:href="30E0AF75.jpg"  transform="matrix(1 0 0 1 0 -305.1059)">
</image>
<g>
	<path fill="#FFC583" d="M97.9,152.5c-14.8,0-29.5,0-44.3,0c-4.6,0-6.4-1.9-6.4-6.4c0-16.8,0-33.5,0-50.3c0-4.6,1.9-6.5,6.6-6.5
		c29.5,0,59,0,88.5,0c4.6,0,6.5,1.9,6.5,6.5c0,16.8,0,33.5,0,50.3c0,4.5-1.9,6.3-6.4,6.3C127.5,152.5,112.7,152.5,97.9,152.5z
		 M122.3,138.9c-0.1,0,0.3,0.2,0.7,0.4c7.1,3.4,15.4,1.1,17.7-7.5c0.8-2.9,0.9-6.1,0.7-9.1c-0.7-8.3-7.5-13.1-15.6-11.2
		c-1.4,0.3-2.8,1-4,1.4c0-3.4,0-6.8,0-10.2c0-1.1-0.4-1.6-1.5-1.6c-1.5,0.1-3,0.1-4.5,0c-1.5-0.1-1.8,0.5-1.8,1.9
		c0.1,4.8,0,9.5,0,14.3c0,7,0,13.9,0,20.9c0,1.5,0.4,2.1,1.9,2c1.2-0.1,2.4,0.1,3.6-0.1C120.3,140,121,139.5,122.3,138.9z
		 M62.7,113.2c0-3.7,0-7.1,0-10.4c0-1.1-0.4-1.6-1.5-1.6c-1.6,0.1-3.3,0.1-4.9,0c-1.1,0-1.4,0.4-1.4,1.5c0,12,0,24,0,36
		c0,1.1,0.4,1.6,1.5,1.6c1.5,0,3-0.1,4.5,0c1.4,0.1,1.8-0.5,1.8-1.9c-0.1-4.5-0.1-8.9,0-13.4c0-1.4,0.3-2.9,0.7-4.2
		c0.7-2.4,3.2-3.8,5.8-3.4c2.3,0.3,3.3,1.7,3.4,4.6c0,0.6,0,1.1,0,1.7c0,4.9,0,9.8,0,14.7c0,1.4,0.4,2,1.8,1.9
		c1.4-0.1,2.9-0.1,4.3,0c1.4,0.1,1.9-0.6,1.8-1.9c-0.1-6.3-0.1-12.5-0.3-18.8c-0.1-4.3-2.9-7.2-7.1-8.1
		C69.6,110.6,66.2,111.5,62.7,113.2z M102.8,137.4c-0.6,2.9,0.9,3,2.7,2.8c0.8-0.1,1.6-0.1,2.4,0c1.7,0.2,2.2-0.5,2.2-2.1
		c-0.1-6.8,0-13.7,0-20.5c0-1.8,0.5-4.3-0.4-5.2c-1.1-1-3.5-0.4-5.4-0.6c-1.8-0.2-2.2,0.6-2.2,2.3c0.1,4.7,0,9.4-0.1,14.1
		c0,1.1-0.1,2.1-0.5,3.1c-0.7,2.2-3.3,3.6-5.8,3.3c-2.3-0.4-3.3-1.5-3.4-4.4c-0.1-2.2-0.2-4.4-0.3-6.6c0-3.4,0-6.8,0-10.2
		c0-1.2-0.3-1.7-1.6-1.7c-1.6,0.1-3.3-0.1-4.9,0.1c-0.5,0-1.3,0.8-1.3,1.3c-0.1,6.2-0.2,12.4,0,18.6c0.2,5.7,3.7,8.8,9.1,8.9
		C96.9,140.8,100,140,102.8,137.4z"/>
	<path fill="#FFFFFF" d="M122,78.4c-2.4,0-4.7,0-7,0c0-12.9,0-25.7,0-38.9c2.2,0,4.5-0.1,6.8,0.1c0.5,0,1,0.8,1.4,1.4
		c4.4,7.5,8.8,15,13.2,22.5c0.2,0.4,0.5,0.8,1,1.6c0-8.7,0-17,0-25.4c2.4,0,4.7,0,7.1,0c0,12.9,0,25.8,0,38.9
		c-2.4,0-4.6,0.1-6.9-0.1c-0.6,0-1.2-0.8-1.5-1.4c-4.3-7.2-8.5-14.3-12.8-21.5c-0.3-0.5-0.6-1-1.3-1.4C122,62.2,122,70.3,122,78.4z"
		/>
	<path fill="#FFFFFF" d="M89.3,63.7c0,5.2,0,9.8,0,14.7c-2.5,0-4.9,0-7.5,0c0-12.9,0-25.8,0-38.9c1.3,0,2.5,0,3.7,0
		c4.8,0,9.7-0.1,14.5,0.2c5.7,0.3,9.3,3.7,10.2,9.2c1,6.2-1.4,11.6-6.4,13.7c-1.6,0.7-3.4,1-5.1,1.1C95.7,63.9,92.6,63.7,89.3,63.7z
		 M89.5,46.5c0,3.6,0,7,0,10.8c3-0.2,5.9-0.2,8.7-0.5c2.7-0.3,4.2-2.4,4.2-5.1c0-2.7-1.6-4.9-4.3-5.1C95.3,46.3,92.5,46.5,89.5,46.5
		z"/>
	<path fill="#FFFFFF" d="M43.3,39.5c2.7,0,5-0.1,7.4,0.1c0.5,0,1.3,0.9,1.5,1.5c2.8,8.3,5.5,16.5,8.2,24.8c0.2,0.6,0.4,1.1,0.8,2.1
		c1.9-6,3.7-11.5,5.5-17.1c1-3.2,2.1-6.4,3.1-9.7c0.4-1.2,0.9-1.8,2.2-1.7c2.1,0.1,4.2,0,6.6,0c-0.4,1.3-0.8,2.4-1.2,3.4
		c-3.9,11.2-7.8,22.5-11.7,33.8c-0.5,1.4-1.1,1.9-2.5,1.8c-2.1-0.2-4.6,0.6-6-0.4c-1.4-1-1.7-3.6-2.3-5.6
		C51.1,62.2,47.5,51.9,44,41.6C43.8,41,43.6,40.4,43.3,39.5z"/>
	<path d="M122.3,138.9c-1.3,0.6-2,1.1-2.8,1.2c-1.2,0.2-2.4,0-3.6,0.1c-1.5,0.1-1.9-0.5-1.9-2c0.1-7,0-13.9,0-20.9
		c0-4.8,0-9.5,0-14.3c0-1.4,0.3-2,1.8-1.9c1.5,0.1,3,0.1,4.5,0c1.2,0,1.5,0.4,1.5,1.6c-0.1,3.4,0,6.8,0,10.2c1.2-0.4,2.5-1.1,4-1.4
		c8-1.9,14.9,2.9,15.6,11.2c0.2,3,0.1,6.2-0.7,9.1c-2.3,8.6-10.5,10.9-17.7,7.5C122.5,139.1,122.2,138.9,122.3,138.9z M133.6,125.9
		c-0.2-1.5-0.3-3.2-0.8-4.7c-0.7-2.4-2.7-3.8-5-3.8c-2.5,0-4.5,1.3-5.3,3.7c-1.1,3.2-1,6.5,0.2,9.7c0.9,2.4,3.1,3.8,5.6,3.6
		c2.2-0.1,4-1.6,4.7-4.2C133.3,128.8,133.3,127.4,133.6,125.9z"/>
	<path d="M62.7,113.2c3.6-1.7,7-2.6,10.6-1.8c4.2,0.9,6.9,3.8,7.1,8.1c0.2,6.3,0.2,12.5,0.3,18.8c0,1.3-0.4,2-1.8,1.9
		c-1.4-0.1-2.9-0.1-4.3,0c-1.4,0.1-1.9-0.5-1.8-1.9c0-4.9,0-9.8,0-14.7c0-0.6,0-1.1,0-1.7c-0.1-2.9-1.1-4.3-3.4-4.6
		c-2.6-0.4-5.1,1-5.8,3.4c-0.4,1.4-0.6,2.8-0.7,4.2c-0.1,4.5-0.1,8.9,0,13.4c0,1.4-0.4,2-1.8,1.9c-1.5-0.1-3-0.1-4.5,0
		c-1.1,0-1.5-0.5-1.5-1.6c0-12,0-24,0-36c0-1,0.3-1.5,1.4-1.5c1.6,0,3.3,0.1,4.9,0c1.2,0,1.5,0.4,1.5,1.6
		C62.6,106.1,62.7,109.5,62.7,113.2z"/>
	<path d="M102.8,137.4c-2.8,2.6-5.9,3.4-9.2,3.3c-5.4-0.1-8.9-3.3-9.1-8.9c-0.2-6.2-0.1-12.4,0-18.6c0-0.5,0.8-1.2,1.3-1.3
		c1.6-0.2,3.3,0,4.9-0.1c1.3-0.1,1.6,0.5,1.6,1.7c-0.1,3.4,0,6.8,0,10.2c0,2.2,0.1,4.4,0.3,6.6c0.1,2.8,1.1,4,3.4,4.4
		c2.4,0.4,5.1-1.1,5.8-3.3c0.3-1,0.4-2.1,0.5-3.1c0.1-4.7,0.1-9.4,0.1-14.1c0-1.6,0.4-2.5,2.2-2.3c1.8,0.2,4.3-0.4,5.4,0.6
		c0.9,0.9,0.4,3.4,0.4,5.2c0,6.8,0,13.7,0,20.5c0,1.7-0.5,2.3-2.2,2.1c-0.8-0.1-1.6-0.1-2.4,0C103.7,140.4,102.1,140.2,102.8,137.4z
		"/>
	<path fill="#FFC583" d="M133.6,125.9c-0.2,1.5-0.3,3-0.6,4.4c-0.7,2.5-2.5,4.1-4.7,4.2c-2.4,0.1-4.7-1.2-5.6-3.6
		c-1.2-3.2-1.3-6.5-0.2-9.7c0.8-2.4,2.8-3.7,5.3-3.7c2.3,0,4.3,1.4,5,3.8C133.2,122.7,133.3,124.3,133.6,125.9z"/>
</g>
</svg>
