<?xml version="1.0" encoding="UTF-8" standalone="no"?>
<svg
   xmlns:dc="http://purl.org/dc/elements/1.1/"
   xmlns:cc="http://creativecommons.org/ns#"
   xmlns:rdf="http://www.w3.org/1999/02/22-rdf-syntax-ns#"
   xmlns:svg="http://www.w3.org/2000/svg"
   xmlns="http://www.w3.org/2000/svg"
   xmlns:sodipodi="http://sodipodi.sourceforge.net/DTD/sodipodi-0.dtd"
   xmlns:inkscape="http://www.inkscape.org/namespaces/inkscape"
   viewBox="0 0 192 192"
   version="1.1"
   id="svg10"
   sodipodi:docname="wasd.svg"
   width="192"
   height="192"
   inkscape:version="1.0.1 (3bc2e813f5, 2020-09-07)"
   inkscape:export-filename="/home/jphilippe/github/delta/android/contributed-vectors/wasd.png"
   inkscape:export-xdpi="96"
   inkscape:export-ydpi="96">
  <metadata
     id="metadata16">
    <rdf:RDF>
      <cc:Work
         rdf:about="">
        <dc:format>image/svg+xml</dc:format>
        <dc:type
           rdf:resource="http://purl.org/dc/dcmitype/StillImage" />
        <dc:title>WASD.TV</dc:title>
      </cc:Work>
    </rdf:RDF>
  </metadata>
  <defs
     id="defs14" />
  <sodipodi:namedview
     pagecolor="#ffffff"
     bordercolor="#666666"
     borderopacity="1"
     objecttolerance="10"
     gridtolerance="10"
     guidetolerance="10"
     inkscape:pageopacity="0"
     inkscape:pageshadow="2"
     inkscape:window-width="1884"
     inkscape:window-height="1052"
     id="namedview12"
     showgrid="false"
     inkscape:zoom="4.2287582"
     inkscape:cx="76.5"
     inkscape:cy="76.5"
     inkscape:window-x="36"
     inkscape:window-y="0"
     inkscape:window-maximized="1"
     inkscape:current-layer="svg10" />
  <title
     id="title2">WASD.TV</title>
  <g
     id="g844"
     transform="matrix(0.99346405,0,0,0.99346405,20,20)">
    <rect
       width="153"
       height="153"
       rx="10"
       fill="#9abeff"
       id="rect4"
       x="0"
       y="0" />
    <path
       d="m 130.09,67 a 3.65,3.65 0 0 0 -4.8,2.28 l -15.19,41.77 -2.78,-6.83 a 3.69,3.69 0 1 0 -6.83,2.79 l 6.32,15.68 a 3.59,3.59 0 0 0 3.55,2.28 v 0 a 4.08,4.08 0 0 0 3.54,-2.53 L 132.37,71.58 A 3.93,3.93 0 0 0 130.09,67 Z"
       transform="translate(-19.5,-19.5)"
       fill="#ffffff"
       id="path6" />
    <path
       d="m 97.45,83 a 3.73,3.73 0 0 0 -4.8,2 L 82,111.05 66.84,69.31 a 3.7639408,3.7639408 0 0 0 -7.09,2.53 l 18.47,50.85 a 3.58,3.58 0 0 0 3.55,2.53 v 0 A 4.3,4.3 0 0 0 85.31,123 L 99.48,87.78 A 3.74,3.74 0 0 0 97.45,83 Z"
       transform="translate(-19.5,-19.5)"
       fill="#ffffff"
       id="path8" />
  </g>
</svg>
