<svg width="192" height="192" version="1.1" viewBox="0 0 192 192" xmlns="http://www.w3.org/2000/svg">
 <circle cx="124" cy="160" r="24" style="fill:#56595b;paint-order:stroke fill markers"/>
 <path d="m104 8c-36.824 0-57.355 20.722-66.734 40.584-9.3793 19.862-9.2656 39.416-9.2656 39.416v16c0 5.3333-1.4862 5.7978-3.5781 6.8438s-4.4219 1.1562-4.4219 1.1562c-5.7794 3.8e-4 -9.6519 5.9403-7.3203 11.229 0 0 5.1147 11.139 18.469 21.168 13.354 10.029 35.292 19.604 68.852 19.604 19.481 0 39.273-5.349 54.553-17.799 15.279-12.45 25.447-32.201 25.447-58.201 0-48.128-37.659-80-76-80z" style="color-rendering:auto;color:#000000;dominant-baseline:auto;fill:#b1b5bd;font-feature-settings:normal;font-variant-alternates:normal;font-variant-caps:normal;font-variant-ligatures:normal;font-variant-numeric:normal;font-variant-position:normal;image-rendering:auto;isolation:auto;mix-blend-mode:normal;paint-order:stroke fill markers;shape-padding:0;shape-rendering:auto;solid-color:#000000;text-decoration-color:#000000;text-decoration-line:none;text-decoration-style:solid;text-indent:0;text-orientation:mixed;text-transform:none;white-space:normal"/>
 <path d="m36 88s0-72 68-72c33.941 0 68 28 68 72 0 48-36 68-72 68-64.125 0-80-36-80-36s16 0 16-16z" style="fill:#fff;paint-order:stroke fill markers"/>
 <circle cx="68" cy="160" r="24" style="fill:#56595b;paint-order:stroke fill markers"/>
 <circle cx="88" cy="68" r="8" style="fill:#b1b5bd;paint-order:stroke fill markers"/>
 <circle cx="140" cy="68" r="8" style="fill:#b1b5bd;paint-order:stroke fill markers"/>
 <path d="m88 100s4 16 28 16c20 0 24-16 24-16" style="fill:none;stroke-linecap:round;stroke-linejoin:round;stroke-width:8;stroke:#b1b5bd"/>
</svg>
