<svg xmlns="http://www.w3.org/2000/svg" viewBox="0 0 167.38 175.38"><path fill="#fff" d="M133.49 24.42a15.47 15.47 0 0 0 2.26-13.46A14.85 14.85 0 0 0 121.3.17a16.1 16.1 0 0 0-4.5.64 32.7 32.7 0 0 0-8 3.59 47.12 47.12 0 0 0-7.42 5.49 83.44 83.44 0 0 0-35.91.11 53 53 0 0 0-13-8.22l-.17-.09c-.15-.08-.29-.16-.45-.23A13.84 13.84 0 0 0 45.69 0a14.87 14.87 0 0 0-14 11 14.85 14.85 0 0 0 2.48 13.31 83.68 83.68 0 1 0 99.38.15Zm-14-14.15a6.69 6.69 0 0 1 1.8-.26 5 5 0 0 1 5 3.65 5.54 5.54 0 0 1-1.09 5.36 84 84 0 0 0-12.09-5.7 24.62 24.62 0 0 1 6.39-3.05ZM41.1 13.69a5 5 0 0 1 4.59-3.85 4 4 0 0 1 1.78.43c.23.22 2.85 1.18 6.26 3.28a83.33 83.33 0 0 0-11.24 5.29 5 5 0 0 1-1.39-5.15Z"/><path fill="#9abeff" d="M114.42 25.95a22.47 22.47 0 0 1 8.47-5.51c3-.85 4.24-3.81 3.39-6.78s-3.81-4.24-6.78-3.39c-.42 0-9.32 3-16.1 11.87a75.2 75.2 0 0 0-19.92-3 63 63 0 0 0-19.92 3c-6.78-8.45-15.68-11.45-16.11-11.87-2.54-1.27-5.51.42-6.35 3.39a5.08 5.08 0 0 0 3.39 6.36 31.61 31.61 0 0 1 8.47 5.51 72.73 72.73 0 0 0-36 36.87 204.93 204.93 0 0 1 66.52-11.44 192.82 192.82 0 0 1 66.54 11.86 70.41 70.41 0 0 0-35.6-36.87Z"/><path fill="#98dc9a" d="M127.55 64.94a200 200 0 0 0-39.41-5.08v103.83a72.11 72.11 0 0 0 68.23-72 65 65 0 0 0-2.54-18.22 145.33 145.33 0 0 0-26.28-8.48Zm-13.56 73.75a9.23 9.23 0 0 1-17.8 0 5.45 5.45 0 0 1-.42-2.55 12.18 12.18 0 0 1 .85-3.81 65.61 65.61 0 0 1 7.63-12.72c0-.42.42-.42.84-.42.43 0 .43 0 .85.42 0 .43 5.09 6.78 7.63 12.29a12.59 12.59 0 0 1 .85 3.82 9.41 9.41 0 0 0-.43 3Zm27.13-32.64a2.33 2.33 0 0 1-2.12 1.27 1.55 1.55 0 0 1-1.27-.42l-1.27-.85v1.27a2.55 2.55 0 1 1-5.09 0v-4.24l-6.78-3.81v7.63l3.81 2.12a5.69 5.69 0 0 1 1.29 1.67 3.85 3.85 0 0 1-.42 2.12 2.29 2.29 0 0 1-3.39.85l-1.27-.85v1.7a2.55 2.55 0 0 1-5.09 0v-1.7l-1.27.85a2.22 2.22 0 0 1-3.39-.85 3.19 3.19 0 0 1-.42-2.12c0-.84.42-1.27 1.27-1.69l3.81-2.12v-7.63l-6.83 3.83v4.24a2.54 2.54 0 1 1-5.08 0v-1.27l-1.28.85a2.471 2.471 0 0 1-2.54-4.24l1.27-.85-1.27-.84a5.94 5.94 0 0 1-1.27-1.7 3.85 3.85 0 0 1 .42-2.12 2.3 2.3 0 0 1 3.39-.85l3.82 2.12 6.78-3.81-6.78-3.82-3.39 2.55a1.57 1.57 0 0 1-1.27.42 2.32 2.32 0 0 1-2.12-1.27 2.21 2.21 0 0 1 .85-3.39l1.27-.85-1.7-.85a2.47 2.47 0 1 1 2.54-4.23l1.28.84v-1.27a2.19 2.19 0 0 1 .84-1.69 3.19 3.19 0 0 1 1.7-.85 2.73 2.73 0 0 1 2.54 2.54v4.24l6.78 3.81v-7.62l-3.78-2.12a2.471 2.471 0 0 1 2.54-4.24l1.27.85v-1.7a2.55 2.55 0 0 1 5.09 0v1.73l1.27-.85a2.471 2.471 0 1 1 2.54 4.24l-3.81 2.12v7.59l6.78-3.81v-4.24a2.73 2.73 0 0 1 2.54-2.54 2.2 2.2 0 0 1 1.7.85 3.23 3.23 0 0 1 .85 1.69v1.27l1.27-.84a2.47 2.47 0 1 1 2.54 4.23l-1.27.85 1.27.85a2.471 2.471 0 0 1-2.54 4.24l-3.82-2.12-6.78 3.81 6.78 3.82 3.78-2.16a2.21 2.21 0 0 1 3.39.85 3.18 3.18 0 0 1 .42 2.11c0 .85-.42 1.28-1.27 1.7l-1.27.42 1.27.85c1.27.85 1.69 2.54.85 3.39ZM39.83 64.52a146.34 146.34 0 0 0-26.28 8.47 65.16 65.16 0 0 0-2.54 18.23 72.11 72.11 0 0 0 68.23 72.05V59.43a200.76 200.76 0 0 0-39.41 5.09Zm25 27.55a1.55 1.55 0 0 1 2.12.84 2.13 2.13 0 0 1 .15 1.7h-.09l.05.06c-.05.1 0 .24-.11.31l-24.16 37.35a3.23 3.23 0 0 1-1.69.85h-.85a2.58 2.58 0 0 1-1.27-2.55l5.51-21.61-8.48 1.67a3.85 3.85 0 0 1-2.12-.42 1.86 1.86 0 0 1-.42-2.12l7.22-25.83c.43-.85.85-1.27 1.7-1.27l17.37-3.82c.85 0 1.7 0 2.12.85a1.87 1.87 0 0 1 0 2.12l-7.2 14Z"/></svg>