<?xml version="1.0" encoding="UTF-8"?>
<svg version="1.1" viewBox="0 0 192 192" xml:space="preserve" xmlns="http://www.w3.org/2000/svg">
	 <path d="m176.56 104.81v-3.565h-1.7011v0.34891c-7.7743-4.0125-51.985 2.8174-78.862 2.8174-26.292 0-69.175-6.5399-78.301-3.0634h-2.2619v3.6387h5e-3c0 9.2345 18.484 32.935 80.558 32.935 62.478 3.2e-4 80.799-24.005 80.563-33.112z" fill="#8e6f60" stroke-width=".3149"/><path d="m175.59 98.747c-5.0794-5.0646-51.685 2.3013-79.594 2.3013-27.905 0-74.515-7.3659-79.59-2.3013-5.2075 5.1924 9.033 35.812 79.59 35.812 70.562 0 84.802-30.619 79.594-35.812z" fill="#d3b69a" stroke-width=".3149"/><path d="m111.69 54.124c-7.5482 1.436-13.645 11.669-15.691 11.669-2.0406 0-8.1428-10.233-15.686-11.669-9.5296-1.8192-27.95 56.951-27.95 56.951s19.87 6.7266 43.635 6.7266c23.764 0 43.64-6.7266 43.64-6.7266s-18.419-58.77-27.949-56.951z" fill="#8e6f60" stroke-width=".3149"/><path d="m95.999 111.09c-19.305 0-36.048-4.4401-41.649-6.1072-1.2539 3.742-1.9867 6.0924-1.9867 6.0924s19.87 6.7266 43.635 6.7266c23.764 0 43.64-6.7266 43.64-6.7266s-0.73782-2.3504-1.9914-6.0924c-5.5958 1.6671-22.339 6.1072-41.648 6.1072z" fill="#f9de81" stroke-width=".3149"/><path d="m80.313 60.836c7.5429 1.436 13.645 11.669 15.686 11.669 2.0456 0 8.1428-10.233 15.691-11.669 7.6266-1.4504 20.942 35.876 25.958 50.859 1.2927-0.38355 3.6452-0.69816 3.6452-0.69816s-20.074-58.692-29.603-56.872c-7.5482 1.436-13.645 11.669-15.691 11.669-2.0406 0-8.1428-10.233-15.686-11.669-9.5296-1.8192-28.816 56.833-28.816 56.833s1.5644 0.35429 2.853 0.73753c5.0205-14.983 18.336-52.309 25.963-50.859z" fill="#d3b69a" stroke-width=".3149"/></svg>
