<?xml version="1.0" encoding="utf-8"?>
<!-- Generator: Adobe Illustrator 26.0.0, SVG Export Plug-In . SVG Version: 6.00 Build 0)  -->
<svg version="1.1"
	 id="svg14" xmlns:cc="http://creativecommons.org/ns#" xmlns:dc="http://purl.org/dc/elements/1.1/" xmlns:inkscape="http://www.inkscape.org/namespaces/inkscape" xmlns:rdf="http://www.w3.org/1999/02/22-rdf-syntax-ns#" xmlns:sodipodi="http://sodipodi.sourceforge.net/DTD/sodipodi-0.dtd" xmlns:svg="http://www.w3.org/2000/svg"
	 xmlns="http://www.w3.org/2000/svg" xmlns:xlink="http://www.w3.org/1999/xlink" x="0px" y="0px" viewBox="0 0 192 192"
	 style="enable-background:new 0 0 192 192;" xml:space="preserve">
<style type="text/css">
	.st0{fill:#FFFFFF;enable-background:new    ;}
	.st1{fill:#9ABEFF;}
	.st2{fill:#4A4A4A;}
</style>
<sodipodi:namedview  bordercolor="#666666" borderopacity="1" gridtolerance="10" guidetolerance="10" id="namedview16" inkscape:current-layer="svg14" inkscape:cx="74.197715" inkscape:cy="86.989867" inkscape:document-rotation="0" inkscape:pageopacity="0" inkscape:pageshadow="2" inkscape:window-height="1022" inkscape:window-maximized="1" inkscape:window-width="1680" inkscape:window-x="1920" inkscape:window-y="30" inkscape:zoom="3.3697917" objecttolerance="10" pagecolor="#ffffff" showgrid="false">
	</sodipodi:namedview>
<path id="rect2" class="st0" d="M29.9,20h132.1c5.5,0,9.9,4.4,9.9,9.9v132.1c0,5.5-4.4,9.9-9.9,9.9H29.9c-5.5,0-9.9-4.4-9.9-9.9
	V29.9C20,24.4,24.4,20,29.9,20z"/>
<g>
	<path class="st1" d="M122.1,87c0,20.2,0,40.3,0,60.5c-2.4,0-4.7,0-7,0c-0.3,0-0.8-0.6-0.9-1.1c-2.2-7.3-4.4-14.6-6.6-21.9
		c-1.2-3.9-2.4-7.9-3.7-11.8c0,11.5,0,23,0,34.7c-2.3,0-4.7,0-7.2,0c0-20.1,0-40.2,0-60.5c2.2,0,4.4-0.1,6.6,0.1
		c0.3,0,0.8,0.7,1,1.2c3.1,10.8,6.2,21.6,9.3,32.4c0.4,1.2,0.8,2.5,1.2,3.7c-0.8-12.4-0.1-24.8-0.4-37.2C117.1,87,119.5,87,122.1,87
		z"/>
	<path class="st1" d="M66.4,116.9c0-6.2-0.1-12.4,0-18.6c0.1-3.5,1-6.8,3.7-9.3c3.1-2.9,6.9-3.7,10.9-3.2c5.7,0.7,9,4.2,10.2,9.8
		c0.3,1.3,0.4,2.6,0.4,3.9c0,11.6,0.1,23.2,0,34.8c0,3.8-0.7,7.5-3.3,10.6c-1.5,1.7-3.3,2.8-5.5,3.4c-3.2,0.9-6.4,0.8-9.5-0.5
		c-4.2-1.8-6.3-5.4-6.5-9.7c-0.3-7-0.1-14-0.1-21C66.6,116.9,66.5,116.9,66.4,116.9z M74.7,110.6c0,4.4,0,8.7,0,13.1
		c0,2.8,1.4,4.4,4,4.8c1.6,0.3,3.5-1,4.1-2.9c0.3-1,0.5-2.1,0.5-3.2c0-7.8,0-15.6,0-23.5c0-1-0.3-2-0.5-3c-0.7-2.8-3.3-3.3-5.6-2.5
		c-2.1,0.7-2.4,2.6-2.4,4.4C74.6,102.1,74.7,106.4,74.7,110.6z M83.7,137c0-2.7-1.8-4.5-4.4-4.7c-2.3-0.1-4.7,1.9-4.8,4.5
		c-0.1,2.3,2.3,4.7,4.5,4.7C81.2,141.6,84,139.5,83.7,137z"/>
	<path class="st1" d="M61,111.6c-4,0-7.8,0-11.8,0c0,12,0,23.8,0,35.8c-2.8,0-5.4,0-8.2,0c0-20.1,0-40.2,0-60.4c7.4,0,14.7,0,22.3,0
		c-0.7,2.4-1.2,4.7-2,6.9c-0.1,0.3-0.9,0.6-1.3,0.6c-3,0-6,0-9.1,0c-0.5,0-1.1,0-1.7,0c0,3.2,0,6.1,0,9.3c3.9,0,7.8,0,11.7,0
		C61,106.5,61,108.9,61,111.6z"/>
	<path class="st1" d="M142.7,147.5c-2.9,0-5.5,0-8.3,0c0-17.6,0-35.2,0-52.9c-2.5,0-4.8,0-7.1,0c0-2.6,0-5,0-7.5
		c0.2,0,0.4-0.1,0.6-0.1c7.1,0,14.3,0,21.4,0c1,0,1.3,0.3,1.3,1.3c-0.1,1.7-0.1,3.4,0,5c0.1,1.1-0.5,1.4-1.4,1.4c-2.1,0-4.2,0-6.5,0
		C142.7,112.3,142.7,129.8,142.7,147.5z"/>
	<path class="st2" d="M118.8,43.6c6.7,0,13.3,0,19.8,0c2.2,0,4.2,0.4,6.2,1.5c3.8,2.1,5.7,5.4,6,9.7c0,0.2,0,0.5,0,0.7
		c0.8,4.3-2.1,6.5-4.9,8.8c-0.4,0.3-1.1,0.3-1.6,0.5c0.8-2.1,1.6-4,2.2-6c0.5-1.5-0.1-3-1.3-3.6c-1.2-0.6-3-0.1-3.9,1.1
		c-1.6,2.2-2,4.7-0.9,7.2c0.8,1.8,0.2,2.7-1.6,3.7c-0.3-1.3-0.7-2.4-0.8-3.6c-0.1-1.7,0.2-3.4,0.2-5.1c0-1.7-0.5-2-2.2-1.5
		c0.2-1.5,0.5-3,0.4-4.4c0-1-0.4-2.1-0.8-3.1c-0.6-1.3-2.1-1.5-3.2-0.6c-1.5,1.3-1.8,3-1.9,4.7c-0.1,2.4-0.1,4.8,0,7.1
		c0.3,4.3-1.6,7.9-3.4,11.5c-0.2,0.4-0.6,0.7-1.3,1.4c-0.3-1-0.7-1.7-0.7-2.5c-0.1-3.5-0.1-7,0-10.5c0-0.5,0.4-1,0.8-1.3
		c0.8-0.7,1.7-1.2,2.4-1.9c0.8-0.8,1.1-1.9,0.7-3.2c-1.3,1-2.5,1.8-3.8,2.8c0-3.3,0-6.4,0-9.5c-1.4,0-2.2,0.8-2.2,2.1
		c0,2.3-0.1,4.7,0,7c0.1,1.3-0.3,2.2-1.5,2.9c-0.9,0.5-1.8,1.1-2.8,1.8C118.8,55.3,118.8,49.5,118.8,43.6z"/>
	<path class="st2" d="M123.1,61.1c0,3.6,0,6.7,0,9.9c0,0.4-0.1,0.8,0.1,1.2c0.5,1.3,0.7,2.8,2.4,3.1c1.7,0.2,2.6-1.1,3.5-2.3
		c0.5-0.6,0.8-1.4,1.1-2.1c0.1,0,0.2,0.1,0.4,0.1c-0.1,0.4-0.2,0.8-0.2,1.2c0.1,0.6,0.3,1.1,0.5,1.7c0.6-0.5,1.6-0.9,1.7-1.4
		c0.4-1.9,0.3-3.9,0.7-5.8c0.5-2.2,1.3-4.4,2-6.6c0.2,0,0.4,0.1,0.7,0.1c0,1.3-0.1,2.6,0,3.9c0.1,1.2,0.4,2.5,0.9,3.6
		c0.6,1.5,2.2,2.3,3.8,0.9c1.3-1.1,2.3-1.8,4.2-1.7c2.3,0,4-1.9,5.4-3.7c0.1-0.1,0.2-0.2,0.3-0.3c0.6,2.6,0.5,3.2-1.7,4.5
		c-2.3,1.5-4.6,2.9-7,4.3c-0.3,0.2-0.8,0.4-0.9,0.7c-0.3,0.7-0.3,1.4-0.5,2.2c0.6-0.2,1.3-0.3,1.9-0.6c2.7-1.7,5.4-3.4,8.3-5.2
		c0,3.9,0,7.6,0,11.3c-10.6,0-21.2,0-31.8,0c0-0.3-0.1-0.5-0.1-0.8c0-4.7,0-9.4,0-14.1c0-0.6,0.4-1.2,0.9-1.6
		C120.6,62.7,121.8,62,123.1,61.1z"/>
	<path class="st1" d="M47.7,50.5c1.2,0,2.3,0,3.5,0c0.5,4.8,1,9.5,1.5,14.2c0.1,0,0.2,0,0.3,0c0.4-2.7,0.8-5.5,1.2-8.2
		c0.2-1.7,0.4-3.4,0.7-5.1c0.1-0.4,0.7-0.8,1.1-1c0.6-0.2,1.3,0,2,0c0.8,5.2,1.6,10.4,2.4,15.5c0.1,0,0.2,0,0.3,0
		c0.4-5.1,0.8-10.2,1.2-15.4c1.2,0,2.4,0,3.8,0c-0.2,1.9-0.4,3.7-0.6,5.6c-0.4,2.7-0.8,5.3-1.1,8c-0.3,2.5-0.6,5.1-1,7.6
		c-0.1,0.4-0.7,0.7-1.1,1c-0.1,0-0.2,0-0.3,0c-2.7,0.1-2.6,0-3-2.6c-0.5-4.1-1.2-8.1-1.8-12.2c0-0.3-0.3-0.5-0.5-0.9
		c-0.6,5.3-1.3,10.4-1.9,15.5c-0.3,0.1-0.3,0.2-0.4,0.2c-3.5,0.2-3.3,0.2-3.8-3.4c-0.5-3.9-1.1-7.8-1.7-11.7
		C48.3,55.2,48,52.9,47.7,50.5z"/>
	<path class="st1" d="M79.9,72.3c-1,0-2,0-3.1,0c0-2.9-0.1-5.7,0-8.5c0-1.2-0.4-1.7-1.6-1.6c-1,0.1-2,0-3.1,0c0,3.3,0,6.6,0,10
		c-1.2,0-2.3,0-3.4,0c0-0.4-0.1-0.8-0.1-1.1c0-6.5,0-13,0-19.4c0-1.4,0.5-1.7,1.7-1.6c1.1,0,1.9,0.1,1.8,1.6c-0.1,2.5,0,5,0,7.6
		c1.6,0,3.1,0,4.7,0c0-3,0-5.9,0-9c1.1,0,2.1,0,3.2,0C79.9,57.5,79.9,64.8,79.9,72.3z"/>
	<path class="st1" d="M82.2,72.4c1.3-7.1,2.6-14.2,3.8-21.2c0.1-0.8,0.5-1.1,1.2-1.1c1.4,0.1,3.2-0.4,4.2,0.2
		c0.9,0.6,0.9,2.5,1.1,3.9c1.3,6,2.5,12,3.8,18.1c-1.1,0-2.2,0-3.3,0c-0.5-2.2-0.9-4.3-1.4-6.5c0-0.1,0-0.3,0-0.4
		c-0.9-1.4-2.3-0.6-3.5-0.7c-0.5,0-1.4,0.5-1.5,1c-0.4,1.7-0.8,3.4-0.9,5.2c-0.1,1.3-0.7,1.7-1.9,1.5C83.3,72.3,82.8,72.4,82.2,72.4
		z M90.8,61.6c-0.6-2.8-1.1-5.4-1.7-8c-0.1,0-0.2,0-0.3,0.1c-0.5,2.6-0.9,5.2-1.4,7.9C88.7,61.6,89.6,61.6,90.8,61.6z"/>
	<path class="st1" d="M107,53c-0.3,0.1-0.4,0.1-0.5,0.1c-3.6,0.1-3.6,0.1-3.6,3.8c0,5.1,0,10.2,0,15.4c-1.1,0-2.1,0-3.3,0
		c0-2.3,0-4.6,0-6.8c0-3.6-0.1-7.1,0-10.7c0-1.4-0.5-1.9-1.8-1.7c-0.2,0-0.4,0-0.6,0c-1.2,0.2-1.8-0.3-1.8-1.6
		c0-0.4-0.2-0.8-0.3-1.4c0.6,0,1.2,0,1.8,0c2.7,0,5.4,0,8.2,0c2,0,2,0,1.9,1.9C107,52.3,107,52.6,107,53z"/>
	<path class="st2" d="M42.9,50c-2.4,0.2-2.4,0.2-2.4-2c0-1.1-0.1-2.3,0.1-3.4c0.1-0.5,0.8-1.2,1.3-1.3c1.4-0.2,2.8-0.1,4.1-0.1
		c0.9,0,1.5,0.5,1.3,1.4c-0.1,0.5-0.8,1.1-1.3,1.2c-0.9,0.2-1.9,0.1-3.1,0.1C42.9,47.3,42.9,48.6,42.9,50z"/>
	<path class="st2" d="M111.8,45.9c-1.2,0-2.2,0.1-3.2-0.1c-0.5-0.1-1.2-0.8-1.2-1.3c0-0.4,0.7-1.2,1.1-1.3c1.5-0.2,3-0.1,4.4,0
		c0.4,0,1.1,0.7,1.1,1.1c0.1,1.5,0,3.1,0.1,4.6c0,0.9-0.4,1.1-1.2,1.1c-0.8,0-1.2-0.2-1.2-1.1C111.9,48,111.8,47.1,111.8,45.9z"/>
	<path class="st2" d="M111.8,77.1c0-1.2,0.1-2.2,0-3.2c-0.1-0.9,0.4-1.4,1.2-1.2c0.5,0.1,1.1,0.7,1.2,1.2c0.1,1.5,0.1,3.1,0,4.6
		c0,0.4-0.7,0.9-1,1c-1.5,0.1-3,0-4.4,0.1c-0.9,0-1.4-0.4-1.2-1.2c0.1-0.5,0.8-1.1,1.3-1.2C109.7,77,110.7,77.1,111.8,77.1z"/>
	<path class="st2" d="M42.9,77.1c1.2,0,2.1-0.2,3,0.1c0.5,0.1,1.2,0.7,1.4,1.3c0.3,0.9-0.5,1.1-1.3,1.1c-1.4,0-2.9,0-4.3,0
		c-0.9,0-1.2-0.3-1.2-1.2c0-1.4,0-2.9,0-4.3c0-0.9,0.5-1.1,1.2-1.1c0.8,0,1.2,0.2,1.2,1.1C42.9,75,42.9,76,42.9,77.1z"/>
	<path class="st2" d="M53.2,45.9c-0.7,0-1.4,0.2-2,0c-0.5-0.2-1.2-0.7-1.3-1.2c-0.1-0.3,0.6-1.2,1-1.3c1.7-0.1,3.3-0.1,5,0
		c0.4,0,1.1,0.9,1,1.3c-0.1,0.5-0.7,1.1-1.3,1.2C54.8,46.1,54,45.9,53.2,45.9z"/>
	<path class="st2" d="M62.9,45.9c-0.8,0-1.6,0.1-2.4-0.1c-0.5-0.1-1.1-0.7-1.2-1.1c0-0.4,0.6-1.3,0.9-1.3c1.7-0.1,3.4-0.1,5.1,0
		c0.4,0,0.9,0.9,0.9,1.3c-0.1,0.4-0.7,1-1.2,1.1C64.4,46.1,63.6,45.9,62.9,45.9z"/>
	<path class="st2" d="M82.3,45.9c-0.7,0-1.5,0.1-2.2,0c-0.5-0.1-1.1-0.7-1.2-1.1c0-0.4,0.5-1.3,0.9-1.3c1.7-0.1,3.5-0.1,5.2,0
		c0.3,0,0.9,0.9,0.8,1.4c-0.1,0.4-0.7,0.9-1.2,1.1C83.9,46.1,83.1,45.9,82.3,45.9z"/>
	<path class="st2" d="M101.3,45.9c-0.7,0-1.5,0.1-2.2,0c-0.5-0.1-1.1-0.7-1.2-1.1c0-0.4,0.6-1.3,0.9-1.3c1.7-0.2,3.3-0.2,5,0
		c0.4,0,1,0.9,1,1.4c0,0.4-0.7,0.9-1.2,1.1C102.9,46.1,102.1,45.9,101.3,45.9z"/>
	<path class="st2" d="M91.9,45.9c-0.7,0-1.5,0.1-2.2,0c-0.5-0.1-1.2-0.7-1.2-1.1c0-0.5,0.6-1.3,1.1-1.4c1.6-0.2,3.2-0.2,4.9,0
		c0.4,0,1.1,0.9,1,1.4c-0.1,0.4-0.8,1-1.3,1.1C93.4,46.1,92.6,45.9,91.9,45.9z"/>
	<path class="st2" d="M72.8,45.9c-0.7,0-1.4,0.2-2.1,0c-0.5-0.2-1.2-0.7-1.3-1.2c-0.1-0.4,0.6-1.2,1-1.3c1.6-0.1,3.3-0.2,4.9,0
		c0.4,0,1,0.9,1,1.4c0,0.4-0.7,1-1.2,1.1C74.4,46.1,73.6,45.9,72.8,45.9z"/>
	<path class="st2" d="M40.5,65.8c0-0.8-0.1-1.6,0-2.4c0.1-0.4,0.6-1,1-1.1c0.7-0.1,1.4,0.1,1.4,1c0,1.6,0.1,3.3-0.1,4.9
		c0,0.4-0.7,1-1.1,1.1c-0.6,0.1-1.2-0.2-1.2-1.1C40.6,67.4,40.5,66.6,40.5,65.8z"/>
	<path class="st2" d="M114.2,65.9c0,0.7,0.2,1.5-0.1,2.2c-0.2,0.5-0.8,1.1-1.3,1.2c-0.8,0.2-1.1-0.4-1-1.2c0-1.6-0.1-3.2,0.1-4.7
		c0-0.4,0.7-1.2,0.9-1.1c0.5,0.2,1.2,0.6,1.4,1.1C114.4,64.2,114.2,65.1,114.2,65.9z"/>
	<path class="st2" d="M53.4,77.1c0.8,0,1.6-0.1,2.4,0c0.4,0.1,1.1,0.7,1.1,0.9c-0.1,0.5-0.6,1.3-1,1.3c-1.7,0.1-3.4,0.2-5,0
		c-0.4,0-0.7-0.9-1.1-1.4c0.4-0.3,0.8-0.7,1.3-0.8C51.8,77,52.6,77.1,53.4,77.1z"/>
	<path class="st2" d="M62.8,79.5c-0.8,0-1.6,0.2-2.4-0.1c-0.5-0.2-1-0.8-1.2-1.3c-0.2-0.9,0.5-1,1.2-1c1.5,0,3.1,0,4.6,0
		c0.7,0,1.5,0.1,1.2,1c-0.1,0.5-0.8,1.2-1.3,1.4C64.4,79.7,63.6,79.5,62.8,79.5z"/>
	<path class="st2" d="M72.9,79.5c-0.8,0-1.6,0.2-2.4-0.1c-0.5-0.1-1-0.8-1.1-1.2c-0.1-0.6,0.3-1.1,1.2-1.1c1.6,0.1,3.2,0,4.7,0.1
		c0.4,0,1,0.5,1.1,0.9c0.3,0.8-0.2,1.3-1,1.4C74.6,79.5,73.7,79.5,72.9,79.5z"/>
	<path class="st2" d="M91.8,79.5c-0.7,0-1.5,0.2-2.2-0.1c-0.5-0.2-1.1-0.8-1.2-1.3c-0.2-0.8,0.4-1,1.2-1c1.5,0,3.1,0,4.6,0
		c0.7,0,1.5,0.1,1.2,1c-0.1,0.5-0.7,1.2-1.3,1.4C93.4,79.7,92.6,79.5,91.8,79.5z"/>
	<path class="st2" d="M101.5,77.1c0.7,0,1.5-0.1,2.2,0c0.5,0.1,0.8,0.5,1.3,0.8c-0.3,0.5-0.7,1.4-1.1,1.4c-1.7,0.2-3.4,0.2-5,0
		c-0.4,0-0.9-0.8-1-1.3c-0.1-0.2,0.6-0.8,1.1-0.9C99.8,77,100.7,77.1,101.5,77.1z"/>
	<path class="st2" d="M82.6,77.1c0.7,0,1.5-0.1,2.2,0c0.4,0.1,1.2,0.7,1.1,0.8c-0.2,0.6-0.6,1.4-1,1.4c-1.7,0.2-3.3,0.1-5,0
		c-0.4,0-0.9-0.7-1-1.2c-0.1-0.6,0.3-1.2,1.1-1.1C80.9,77.2,81.7,77.1,82.6,77.1z"/>
	<path class="st2" d="M114.2,56c0,0.6,0,1.3,0,1.9c0.1,0.9-0.2,1.4-1.2,1.4c-1.1,0-1.2-0.6-1.2-1.4c0-1.4,0-2.9,0-4.3
		c0-0.8,0.3-1.1,1.1-1.1c0.9,0,1.3,0.3,1.3,1.2C114.2,54.4,114.2,55.2,114.2,56z"/>
	<path class="st2" d="M40.5,55.8c0-0.7,0-1.4,0-2.1c0-0.9,0.2-1.3,1.2-1.3c0.9,0,1.3,0.3,1.2,1.2c0,1.5,0,2.9,0,4.4
		c0,0.9-0.2,1.3-1.2,1.3c-0.9,0-1.3-0.3-1.2-1.2C40.6,57.3,40.5,56.6,40.5,55.8z"/>
	<path class="st2" d="M133.9,50.6c1.2,3.1-0.2,5.7-1,8.6C132.1,56.9,132.6,52,133.9,50.6z"/>
	<path class="st2" d="M142.6,63c-1.2-2.8-0.5-5.3,1.7-6.1C144.6,59.2,143.3,60.9,142.6,63z"/>
</g>
</svg>
