<?xml version="1.0" encoding="UTF-8" standalone="no"?>
<svg
   xmlns:dc="http://purl.org/dc/elements/1.1/"
   xmlns:cc="http://creativecommons.org/ns#"
   xmlns:rdf="http://www.w3.org/1999/02/22-rdf-syntax-ns#"
   xmlns:svg="http://www.w3.org/2000/svg"
   xmlns="http://www.w3.org/2000/svg"
   xmlns:sodipodi="http://sodipodi.sourceforge.net/DTD/sodipodi-0.dtd"
   xmlns:inkscape="http://www.inkscape.org/namespaces/inkscape"
   inkscape:export-ydpi="96"
   inkscape:export-xdpi="96"
   inkscape:export-filename="/home/jphilippe/inkscape/icônes/delta-github/png/wienmobil.png"
   sodipodi:docname="wienmobil.svg"
   inkscape:version="1.0 (4035a4fb49, 2020-05-01)"
   version="1.1"
   id="svg2"
   viewBox="0 0 192 192"
   height="192"
   width="192">
  <sodipodi:namedview
     inkscape:document-rotation="0"
     inkscape:snap-midpoints="false"
     inkscape:object-nodes="true"
     inkscape:snap-nodes="true"
     inkscape:snap-smooth-nodes="true"
     inkscape:snap-intersection-paths="true"
     inkscape:object-paths="true"
     inkscape:snap-others="true"
     inkscape:snap-center="false"
     inkscape:snap-object-midpoints="true"
     inkscape:guide-bbox="true"
     showguides="true"
     inkscape:window-maximized="1"
     inkscape:window-y="30"
     inkscape:window-x="1920"
     inkscape:window-height="1022"
     inkscape:window-width="1680"
     units="px"
     showgrid="false"
     inkscape:current-layer="layer1"
     inkscape:document-units="px"
     inkscape:cy="84.91478"
     inkscape:cx="-47.171797"
     inkscape:zoom="1"
     inkscape:pageshadow="2"
     inkscape:pageopacity="0.0"
     borderopacity="1.0"
     bordercolor="#666666"
     pagecolor="#ffffff"
     id="base" />
  <defs
     id="defs4" />
  <metadata
     id="metadata7">
    <rdf:RDF>
      <cc:Work
         rdf:about="">
        <dc:format>image/svg+xml</dc:format>
        <dc:type
           rdf:resource="http://purl.org/dc/dcmitype/StillImage" />
        <dc:title></dc:title>
      </cc:Work>
    </rdf:RDF>
  </metadata>
  <g
     transform="translate(0,-860.36216)"
     id="layer1"
     inkscape:groupmode="layer"
     inkscape:label="Calque 1">
    <path
       cx="-102.99997"
       cy="441.73776"
       r="102.95"
       id="path906"
       style="opacity:0.51499999;fill:#000000;fill-opacity:1;stroke:#000000;stroke-width:0.09999999;stroke-linecap:round;stroke-linejoin:round;stroke-miterlimit:4;stroke-dasharray:none;stroke-dashoffset:0;stroke-opacity:1;paint-order:normal" />
    <g
       id="g848">
      <path
         inkscape:connector-curvature="0"
         style="fill:#ffffff;fill-opacity:1;stroke:none;stroke-width:0.0999998;stroke-linecap:round;stroke-linejoin:round;stroke-miterlimit:4;stroke-dasharray:none;stroke-dashoffset:0;stroke-opacity:1;paint-order:normal"
         d="m 158.57895,1018.9411 a 88.499996,88.499996 0 0 1 -125.157908,0 88.499996,88.499996 0 0 1 1.8e-5,-125.15789 88.499996,88.499996 0 0 1 125.15789,0 88.499996,88.499996 0 0 1 0,125.15789 z"
         id="path827" />
      <path
         d="m 184.38672,960.80943 c -0.86843,0.11336 -1.84329,0.25781 -3.04492,0.45117 -28.895,4.80532 -61.53581,11.84244 -65.06836,15.375 -3.53255,3.53256 -10.56972,36.1733 -15.375,65.0684 -0.19352,1.2026 -0.3378,2.178 -0.45117,3.0468 a 88.499996,88.499996 0 0 0 58.13085,-25.8105 88.499996,88.499996 0 0 0 25.8086,-58.13087 z"
         inkscape:transform-center-y="58.374393"
         inkscape:transform-center-x="-58.374384"
         style="fill:#ff847f;fill-opacity:1;stroke:none;stroke-width:0.0999998;stroke-linecap:round;stroke-linejoin:round;stroke-miterlimit:4;stroke-dasharray:none;stroke-dashoffset:0;stroke-opacity:1;paint-order:normal"
         id="path850" />
      <path
         d="m 7.6113281,960.80943 a 88.499996,88.499996 0 0 0 25.8105469,58.13087 88.499996,88.499996 0 0 0 58.130859,25.8086 c -0.113365,-0.8684 -0.257812,-1.8433 -0.451172,-3.0449 -4.805319,-28.895 -11.842439,-61.53585 -15.375,-65.0684 -3.53256,-3.53255 -36.173259,-10.56972 -65.068359,-15.375 -1.2025996,-0.19352 -2.1780027,-0.3378 -3.0468749,-0.45117 z"
         inkscape:transform-center-y="58.374378"
         inkscape:transform-center-x="58.374393"
         style="fill:#ff847f;fill-opacity:1;stroke:none;stroke-width:0.0999998;stroke-linecap:round;stroke-linejoin:round;stroke-miterlimit:4;stroke-dasharray:none;stroke-dashoffset:0;stroke-opacity:1;paint-order:normal"
         id="path852" />
      <path
         d="M 91.552734,867.97349 A 88.499996,88.499996 0 0 0 33.421875,893.78404 88.499996,88.499996 0 0 0 7.6132812,951.91489 c 0.8684276,-0.11336 1.8432863,-0.25781 3.0449218,-0.45117 28.895,-4.80532 61.53581,-11.84244 65.068359,-15.375 3.532551,-3.53256 10.56972,-36.17326 15.375,-65.06836 0.193519,-1.2026 0.337799,-2.178 0.451172,-3.04687 z"
         inkscape:transform-center-y="-58.37439"
         inkscape:transform-center-x="58.374378"
         style="fill:#ff847f;fill-opacity:1;stroke:none;stroke-width:0.0999998;stroke-linecap:round;stroke-linejoin:round;stroke-miterlimit:4;stroke-dasharray:none;stroke-dashoffset:0;stroke-opacity:1;paint-order:normal"
         id="path855" />
      <path
         d="m 100.44727,867.97544 c 0.11336,0.86843 0.25781,1.84329 0.45117,3.04492 4.8053,28.895 11.84245,61.5358 15.375,65.06836 3.53254,3.53255 36.17337,10.5697 65.06836,15.375 1.20261,0.19352 2.17799,0.3378 3.04687,0.45117 a 88.499996,88.499996 0 0 0 -25.81055,-58.13085 88.499996,88.499996 0 0 0 -58.13085,-25.8086 z"
         inkscape:transform-center-y="-58.374384"
         inkscape:transform-center-x="-58.374411"
         style="fill:#ff847f;fill-opacity:1;stroke:none;stroke-width:0.0999998;stroke-linecap:round;stroke-linejoin:round;stroke-miterlimit:4;stroke-dasharray:none;stroke-dashoffset:0;stroke-opacity:1;paint-order:normal"
         id="path912" />
    </g>
    <path
       inkscape:connector-curvature="0"
       style="fill:#ffffff;fill-opacity:1;stroke:none;stroke-width:0.0999998;stroke-linecap:round;stroke-linejoin:round;stroke-miterlimit:4;stroke-dasharray:none;stroke-dashoffset:0;stroke-opacity:1;paint-order:normal"
       d="m -189.33226,1084.9944 a 88.499996,88.499996 0 0 1 -125.15791,0 88.499996,88.499996 0 0 1 2e-5,-125.15787 88.499996,88.499996 0 0 1 125.15789,0 88.499996,88.499996 0 0 1 0,125.15787 z"
       id="path857" />
  </g>
</svg>
