<?xml version="1.0" encoding="UTF-8" standalone="no"?>
<!-- Created with Inkscape (http://www.inkscape.org/) -->

<svg
   xmlns:dc="http://purl.org/dc/elements/1.1/"
   xmlns:cc="http://creativecommons.org/ns#"
   xmlns:rdf="http://www.w3.org/1999/02/22-rdf-syntax-ns#"
   xmlns:svg="http://www.w3.org/2000/svg"
   xmlns="http://www.w3.org/2000/svg"
   xmlns:sodipodi="http://sodipodi.sourceforge.net/DTD/sodipodi-0.dtd"
   xmlns:inkscape="http://www.inkscape.org/namespaces/inkscape"
   width="192"
   height="192"
   viewBox="0 0 192 192"
   id="svg2"
   version="1.1"
   inkscape:version="0.92.4 (5da689c313, 2019-01-14)"
   sodipodi:docname="wienmobil.svg"
   inkscape:export-filename="/home/jphilippe/inkscape/icônes/delta-github/png/wienmobil.png"
   inkscape:export-xdpi="90"
   inkscape:export-ydpi="90">
  <sodipodi:namedview
     id="base"
     pagecolor="#ffffff"
     bordercolor="#666666"
     borderopacity="1.0"
     inkscape:pageopacity="0.0"
     inkscape:pageshadow="2"
     inkscape:zoom="0.35355339"
     inkscape:cx="-280.74546"
     inkscape:cy="-290.21267"
     inkscape:document-units="px"
     inkscape:current-layer="layer1"
     showgrid="false"
     units="px"
     inkscape:window-width="1884"
     inkscape:window-height="1052"
     inkscape:window-x="36"
     inkscape:window-y="0"
     inkscape:window-maximized="1"
     showguides="true"
     inkscape:guide-bbox="true"
     inkscape:snap-object-midpoints="true"
     inkscape:snap-center="false"
     inkscape:snap-others="true"
     inkscape:object-paths="true"
     inkscape:snap-intersection-paths="true"
     inkscape:snap-smooth-nodes="true"
     inkscape:snap-nodes="true"
     inkscape:object-nodes="true"
     inkscape:snap-midpoints="false" />
  <defs
     id="defs4" />
  <metadata
     id="metadata7">
    <rdf:RDF>
      <cc:Work
         rdf:about="">
        <dc:format>image/svg+xml</dc:format>
        <dc:type
           rdf:resource="http://purl.org/dc/dcmitype/StillImage" />
        <dc:title></dc:title>
      </cc:Work>
    </rdf:RDF>
  </metadata>
  <g
     inkscape:label="Calque 1"
     inkscape:groupmode="layer"
     id="layer1"
     transform="translate(0,-860.36216)">
    <path
       style="opacity:0.51499999;fill:#000000;fill-opacity:1;stroke:#000000;stroke-width:0.09999999;stroke-linecap:round;stroke-linejoin:round;stroke-miterlimit:4;stroke-dasharray:none;stroke-dashoffset:0;stroke-opacity:1;paint-order:normal"
       id="path906"
       r="102.95"
       cy="441.73776"
       cx="-102.99997" />
    <g
       id="g865"
       transform="matrix(0.85922326,0,0,0.85922326,183.21117,175.44661)"
       style="stroke-width:1.16384184">
      <path
         id="path827"
         d="m -28.668008,981.69419 a 103,103 0 0 1 -145.664012,2e-5 103,103 0 0 1 2e-5,-145.66401 103,103 0 0 1 145.663993,0 103,103 0 0 1 -1e-6,145.66399 z"
         style="opacity:1;fill:#ffffff;fill-opacity:1;stroke:none;stroke-width:0.11638419;stroke-linecap:round;stroke-linejoin:round;stroke-miterlimit:4;stroke-dasharray:none;stroke-dashoffset:0;stroke-opacity:1;paint-order:normal"
         inkscape:connector-curvature="0" />
      <path
         inkscape:transform-center-x="-54.254687"
         inkscape:transform-center-y="-54.254687"
         inkscape:connector-curvature="0"
         id="path912"
         d="m -28.667993,836.03018 c -15.874606,-15.81789 -36.412256,-25.96837 -58.449556,-29.04661 -8.82476,-0.84748 -8.82501,-0.84735 -7.41772,7.89831 5.19792,31.25586 12.80965,66.56358 16.63082,70.38476 3.82118,3.82117 39.1289,11.4329 70.3847546,16.63081 8.745666,1.4073 8.745793,1.40705 7.89831896,-7.41771 C -2.6996234,872.44243 -12.850099,851.90479 -28.667993,836.03018 Z"
         style="opacity:1;fill:#ff847f;fill-opacity:1;stroke:none;stroke-width:0.11638416;stroke-linecap:round;stroke-linejoin:round;stroke-miterlimit:4;stroke-dasharray:none;stroke-dashoffset:0;stroke-opacity:1;paint-order:normal" />
      <path
         inkscape:transform-center-x="-54.254681"
         style="opacity:1;fill:#ff847f;fill-opacity:1;stroke:none;stroke-width:0.11638416;stroke-linecap:round;stroke-linejoin:round;stroke-miterlimit:4;stroke-dasharray:none;stroke-dashoffset:0;stroke-opacity:1;paint-order:normal"
         d="m -28.667994,981.69418 c 15.817894,-15.87461 25.9683616,-36.41226 29.04661656,-58.44956 0.84747504,-8.82476 0.84734804,-8.82501 -7.89831696,-7.41771 -31.2558546,5.19791 -66.5635746,12.80964 -70.3847546,16.63082 -3.82117,3.82117 -11.4329,39.12889 -16.63084,70.38477 -1.40728,8.7457 -1.40702,8.7458 7.41774,7.8983 22.03731,-3.0783 42.57495,-13.22873 58.449555,-29.04662 z"
         id="path854"
         inkscape:connector-curvature="0"
         inkscape:transform-center-y="54.254686" />
      <path
         inkscape:transform-center-y="54.254694"
         inkscape:connector-curvature="0"
         id="path856"
         d="m -174.33202,981.69421 c 15.87453,15.81796 36.4123,25.96829 58.44962,29.04659 8.82469,0.8475 8.82497,0.8474 7.41766,-7.8983 -5.19788,-31.2559 -12.80962,-66.5636 -16.6308,-70.38477 -3.82117,-3.82118 -39.12888,-11.43292 -70.3848,-16.63083 -8.74564,-1.40728 -8.74578,-1.407 -7.89824,7.41769 3.07825,22.03734 13.22867,42.57501 29.04656,58.44962 z"
         style="opacity:1;fill:#ff847f;fill-opacity:1;stroke:none;stroke-width:0.11638416;stroke-linecap:round;stroke-linejoin:round;stroke-miterlimit:4;stroke-dasharray:none;stroke-dashoffset:0;stroke-opacity:1;paint-order:normal"
         inkscape:transform-center-x="54.254698" />
      <path
         inkscape:transform-center-x="54.254692"
         style="opacity:1;fill:#ff847f;fill-opacity:1;stroke:none;stroke-width:0.11638416;stroke-linecap:round;stroke-linejoin:round;stroke-miterlimit:4;stroke-dasharray:none;stroke-dashoffset:0;stroke-opacity:1;paint-order:normal"
         d="m -174.33202,836.03015 c -15.81796,15.87454 -25.96831,36.41228 -29.04656,58.44962 -0.84754,8.82469 -0.8474,8.82498 7.89824,7.41769 31.25592,-5.1979 66.56363,-12.80965 70.3848,-16.63082 3.82118,-3.82118 11.43292,-39.12888 16.63083,-70.38481 1.40728,-8.74563 1.407,-8.74577 -7.41769,-7.89824 -22.03734,3.07825 -42.57501,13.22867 -58.44962,29.04656 z"
         id="path858"
         inkscape:connector-curvature="0"
         inkscape:transform-center-y="-54.254691" />
    </g>
  </g>
</svg>
