<svg xmlns="http://www.w3.org/2000/svg" viewBox="0 0 192 192"><defs><linearGradient id="a" x1="32.38" x2="181.4" y1="124.63" y2="57.57" gradientTransform="rotate(-180 96 96)" gradientUnits="userSpaceOnUse"><stop offset="0" stop-color="#dc505e"/><stop offset=".38" stop-color="#b95f88"/><stop offset=".79" stop-color="#986dae"/><stop offset="1" stop-color="#8c72bd"/></linearGradient></defs><rect width="153" height="153" x="19.5" y="19.5" fill="url(#a)" rx="10" transform="rotate(180 96 96)"/><path fill="#fff" d="M142.87 105.19a11.32 11.32 0 0 1-3.81 8.76 13.18 13.18 0 0 1-9.28 3.52h-18.61V74.55h17.26a13 13 0 0 1 9 3.42 11 11 0 0 1 3.71 8.46 10.25 10.25 0 0 1-4.42 8.76 10.93 10.93 0 0 1 6.15 10Zm-24.53-24v11.28h10.14a5.64 5.64 0 0 0 0-11.28Zm11.49 29.64a6 6 0 0 0 0-12h-11.49v12h11.49ZM60.78 117.47 49.13 74.53h7.64l8.95 33 9.59-33h7.12l9.63 33.16 9-33.15h7.64L97 117.46h-8.82l-9.31-32.07-9.31 32.07Z"/></svg>