<svg viewBox="0 0 192 192" xml:space="preserve" xmlns="http://www.w3.org/2000/svg"><rect x="20" y="20" width="152" height="152" rx="10" style="opacity:1;fill:#5e81ac;stroke:none;stroke-linecap:round;stroke-linejoin:round;isolation:isolate"/><path style="fill:#e5e9f0;stroke-width:.242424" d="M57.45 143.225c-3.07-2.473-7.74-7.293-10.091-10.415-6.333-8.407-10.186-17.704-11.888-28.689-.5-3.23-.427-13.51.122-16.848 1.72-10.47 5.56-19.636 11.619-27.725 2.084-2.783 7.53-8.434 10.243-10.628 15.43-12.481 35.795-16.787 54.78-11.584 7.997 2.192 15.836 6.19 22.31 11.377 2.502 2.004 6.926 6.46 9.162 9.226 6.948 8.596 11.477 19.238 13.053 30.667.412 2.987.412 11.8 0 14.788-1.576 11.434-6.183 22.223-13.202 30.92-2.023 2.508-6.503 6.987-9.001 9-24.649 17.684-53.694 18.36-77.107-.089zm37.916-15.65c-.016-13.5-.071-24.381-.124-24.181-.053.2-1.611 8.362-3.463 18.137-1.852 9.776-3.424 17.83-3.493 17.9-.435.435-7.93-1.897-11.367-3.536-1.619-.773-5.049-2.691-5.503-3.08-.054-.046.635-1.186 1.532-2.533.897-1.348 1.585-2.497 1.528-2.553a49.86 49.86 0 0 0-1.448-1.128 72.024 72.024 0 0 1-2.536-2.041l-1.191-1.016-6.36 6.364-6.36 6.363 1.649 1.457c9.95 8.79 23.187 14.238 34.922 14.368l2.242.025zm10.973 23.717c9.998-1.87 19.035-6.245 26.788-12.97 1.247-1.081 2.267-2.049 2.267-2.15 0-.1-8.024-8.131-17.83-17.846l-17.831-17.663 2.594 3.972a672.173 672.173 0 0 0 3.805 5.77l1.212 1.8-.581.48c-1.471 1.215-7.001 3.199-7.476 2.682-.108-.119-.706-2.943-1.33-6.276-.622-3.333-1.172-6.17-1.222-6.303-.05-.133-.1 10.928-.11 24.582l-.019 24.824 3.212-.142c1.792-.08 4.675-.415 6.521-.76zm-15.086-32.989c2.032-10.8 3.75-19.855 3.82-20.121.069-.267-5.501 5.13-12.378 11.994l-12.503 12.478.783.817c.43.45 1.737 1.529 2.904 2.398 1.166.87 2.121 1.625 2.121 1.68 0 .054-.71 1.16-1.578 2.456-1.86 2.779-2.1 2.32 2.385 4.546 3.95 1.96 10.145 4.026 10.609 3.539.079-.083 1.805-8.987 3.837-19.787zm-24.245 6.037 1.553-1.512-1.48-1.778c-.814-.977-1.69-2.044-1.946-2.37l-.466-.594-2.274 1.545c-1.25.85-3.6 2.453-5.22 3.563l-2.946 2.018-1.204-1.879c-2.517-3.926-4.63-8.66-6.017-13.474-1.213-4.212-1.406-3.838 2.382-4.622 1.765-.365 3.238-.693 3.273-.728.036-.036-.099-1.147-.298-2.469-.2-1.322-.363-3.14-.364-4.04L52 96.364H39.579l.162 2.363c.395 5.768 1.189 9.962 2.827 14.951 2.376 7.236 6.009 13.537 11.375 19.732l1.747 2.016 4.882-4.787c2.685-2.633 5.582-5.467 6.436-6.299zm73.97 5.578c5.276-6.984 9.136-15.752 10.51-23.867.488-2.888.866-6.483.871-8.293l.004-1.394h-21.028l-.159 1.757c-.087.967-.28 2.549-.428 3.515-.31 2.02-.17 1.955-2.983 1.373-1.025-.212-1.892-.349-1.928-.303-.035.045-.36 1.064-.722 2.264-.705 2.341-2.688 6.586-3.61 7.729l-.565.698-9.804-6.532c-5.391-3.592-9.964-6.628-10.16-6.747-.198-.118 7.657 7.77 17.454 17.53l17.812 17.745 1.536-1.636c.844-.9 2.284-2.627 3.2-3.84zm-66.59-19.767c10.82-7.35 19.776-13.46 19.903-13.576.131-.12-8.707-.211-20.542-.211H52.976l.133 1.878c.073 1.034.297 2.997.497 4.363.2 1.366.308 2.574.24 2.683-.067.11-1.444.461-3.058.783-1.615.32-3.052.655-3.194.743-.323.2.72 3.972 2.039 7.368 1.267 3.263 4.498 9.333 4.97 9.333.062 0 8.966-6.014 19.786-13.364zm6.098.73 10.908-10.937-4.606 3.116c-14.05 9.506-20.858 14.19-20.93 14.4-.13.381 3.144 4.358 3.587 4.358.073 0 5.041-4.921 11.04-10.937zm21.986 2.692c1.107-.4 2.314-.927 2.682-1.17l.67-.44-4.306-6.558c-2.368-3.606-4.323-6.543-4.344-6.527-.022.017.602 3.358 1.386 7.425.784 4.067 1.429 7.53 1.433 7.697.01.429.22.393 2.48-.427zm19.154-3.21c1.382-2.386 2.123-4.325 3.089-8.089l.256-.999 2.22.455c1.22.25 2.254.42 2.297.378.153-.153.563-3.468.568-4.593l.005-1.151H97.494l11.496 7.739c6.322 4.256 11.554 7.747 11.626 7.757.073.01.527-.663 1.01-1.496zM52 94.032c0-1.196.657-6.405.83-6.578.035-.035 4.134.706 9.108 1.647 4.974.942 9.177 1.66 9.34 1.598.164-.063.374-.523.468-1.022.26-1.39 1.51-4.402 2.578-6.212l.96-1.627 3.812 2.496c2.097 1.372 5.777 3.776 8.177 5.342l4.363 2.847-17.87-17.89-17.872-17.889-.76.72c-.417.395-1.64 1.81-2.717 3.143-6.254 7.744-10.308 16.582-11.909 25.962-.318 1.862-.862 7.12-.87 8.402-.001.393.453.424 6.18.424H52zm36.364 1.209c-.2-.054-8.055-1.552-17.455-3.328l-17.09-3.23-.178.629c-.097.345-.238 1.447-.312 2.447-.074 1-.187 2.227-.25 2.727l-.115.909 17.882-.028c9.835-.016 17.718-.072 17.518-.126zm41.692-.755c-.005-.909-.43-4.213-.56-4.342-.037-.038-6.062 1.12-13.388 2.574l-13.32 2.642 13.636.018 13.637.017-.005-.91zm22.308-.156c0-4.746-1.445-12.167-3.426-17.602-2.366-6.49-7.726-15.092-11.894-19.088l-.818-.784-2.038 2.048-2.038 2.048.469.555a87.91 87.91 0 0 0 1.468 1.661c1.24 1.373 3.974 5.041 3.974 5.333 0 .12-1.173.998-2.606 1.954a172.717 172.717 0 0 0-2.712 1.828c-.058.05.14.498.441.995 1.244 2.055 3.666 7.361 4.343 9.51.885 2.815 1.39 5.043 1.188 5.246-.083.083-1.71.462-3.615.843-1.905.381-3.694.747-3.977.814-.469.11-.496.22-.32 1.276.106.635.263 1.892.35 2.792l.158 1.636H152.364zm-33.212-33.59c0-.233-2.825-1.797-4.834-2.675-2.54-1.11-4.107-1.64-7.166-2.425l-2.667-.683-.07-1.815-.07-1.815-1.87-.256a83.847 83.847 0 0 0-3.869-.415l-2-.16V94.262l11.273-16.685c6.2-9.177 11.273-16.754 11.273-16.837zM92.63 81.76c-1.232-6.23-2.31-11.4-2.395-11.485-.416-.416-7.81 2.514-8.285 3.283-.128.208 12.698 19.754 12.858 19.593.034-.033-.946-5.16-2.178-11.39zm-.534 9.452c-.096-.167-2.829-4.256-6.073-9.089l-5.899-8.785 1.029-.651c1.69-1.07 5.284-2.687 6.968-3.137.867-.23 1.654-.485 1.75-.565.096-.08-.632-4.235-1.617-9.232-.985-4.998-1.718-9.157-1.629-9.242.269-.258 5.467-.935 7.177-.935h1.592V39.827l-2.242.16c-13.53.964-24.869 5.629-34.666 14.262l-1.93 1.7 17.782 17.783c9.78 9.78 17.816 17.783 17.858 17.783.041 0-.004-.136-.1-.303zm3.298-21.293V50.504l-1.879.157c-2.61.218-5.458.595-5.605.742-.117.117 7.278 37.93 7.418 37.93.036 0 .066-8.736.066-19.414zm38.023-11.942 2.012-2.023-1.654-1.518c-3.49-3.204-8.015-6.281-12.594-8.565-7.043-3.513-13.688-5.264-22.333-5.883l-2.242-.16v9.674l2.727.15c2.447.135 4.883.458 6.06.802.355.104.425.418.425 1.902v1.777l1.273.302c3.363.795 8.697 2.918 11.512 4.58l1.27.749 1.289-2.003c.709-1.102 1.498-2.358 1.752-2.791.255-.434.556-.788.67-.788.476 0 3.421 2.206 6.222 4.66.727.637 1.384 1.158 1.46 1.158.076 0 1.044-.91 2.151-2.023z"/></svg>