<svg xmlns="http://www.w3.org/2000/svg" width="192" height="192"><path d="M68.149 67.852A19.956 19.956 0 0 0 49.29 95.245l19.975 51.828a19.956 19.956 0 0 0 36.73 1.201l5.857-12.666 5.858 12.666a19.956 19.956 0 0 0 36.73-1.201l19.973-51.828a19.956 19.956 0 1 0-37.238-14.352l-3.026 7.852-4.185-9.051a19.956 19.956 0 0 0-36.223 0l-4.186 9.053-3.027-7.854a19.956 19.956 0 0 0-18.379-13.041z" style="color-rendering:auto;color:#000;dominant-baseline:auto;fill:#54688c;font-feature-settings:normal;font-variant-alternates:normal;font-variant-caps:normal;font-variant-ligatures:normal;font-variant-numeric:normal;font-variant-position:normal;image-rendering:auto;isolation:auto;mix-blend-mode:normal;shape-padding:0;shape-rendering:auto;solid-color:#000;stroke-linecap:round;stroke-linejoin:round;stroke-width:16;stroke:#54688c;text-decoration-color:#000;text-decoration-line:none;text-decoration-style:solid;text-indent:0;text-orientation:mixed;text-transform:none;white-space:normal"/><path d="M62 60.109a19.956 19.956 0 0 0-18.859 27.393l19.975 51.828a19.956 19.956 0 0 0 36.73 1.201l5.857-12.666 5.858 12.666a19.956 19.956 0 0 0 36.73-1.201l19.973-51.828a19.956 19.956 0 1 0-37.238-14.352L128 81.002l-4.185-9.051a19.956 19.956 0 0 0-36.223 0l-4.186 9.053-3.027-7.854A19.956 19.956 0 0 0 62 60.109z" style="color-rendering:auto;color:#000;dominant-baseline:auto;fill:#8c72bd;font-feature-settings:normal;font-variant-alternates:normal;font-variant-caps:normal;font-variant-ligatures:normal;font-variant-numeric:normal;font-variant-position:normal;image-rendering:auto;isolation:auto;mix-blend-mode:normal;shape-padding:0;shape-rendering:auto;solid-color:#000;stroke-linecap:round;stroke-linejoin:round;stroke-width:16;stroke:#8c72bd;text-decoration-color:#000;text-decoration-line:none;text-decoration-style:solid;text-indent:0;text-orientation:mixed;text-transform:none;white-space:normal"/><path d="M54 51.107A19.956 19.956 0 0 0 35.141 78.5l19.975 51.828a19.956 19.956 0 0 0 36.73 1.201l5.857-12.666 5.858 12.666a19.956 19.956 0 0 0 36.73-1.201L160.264 78.5a19.956 19.956 0 1 0-37.238-14.352L120 72l-4.185-9.051a19.956 19.956 0 0 0-36.223 0l-4.186 9.053-3.027-7.854A19.956 19.956 0 0 0 54 51.107z" style="color-rendering:auto;color:#000;dominant-baseline:auto;fill:#ff837d;font-feature-settings:normal;font-variant-alternates:normal;font-variant-caps:normal;font-variant-ligatures:normal;font-variant-numeric:normal;font-variant-position:normal;image-rendering:auto;isolation:auto;mix-blend-mode:normal;shape-padding:0;shape-rendering:auto;solid-color:#000;stroke-linecap:round;stroke-linejoin:round;stroke-width:16;stroke:#ff837d;text-decoration-color:#000;text-decoration-line:none;text-decoration-style:solid;text-indent:0;text-orientation:mixed;text-transform:none;white-space:normal"/><path d="M48.3 43.107A19.956 19.956 0 0 0 29.441 70.5l19.975 51.828a19.956 19.956 0 0 0 36.73 1.201l5.857-12.666 5.858 12.666a19.956 19.956 0 0 0 36.73-1.201L154.564 70.5a19.956 19.956 0 1 0-37.238-14.352L114.3 64l-4.185-9.051a19.956 19.956 0 0 0-36.223 0L69.706 64l-3.027-7.853A19.956 19.956 0 0 0 48.3 43.107z" style="color-rendering:auto;color:#000;dominant-baseline:auto;fill:#f8c18c;font-feature-settings:normal;font-variant-alternates:normal;font-variant-caps:normal;font-variant-ligatures:normal;font-variant-numeric:normal;font-variant-position:normal;image-rendering:auto;isolation:auto;mix-blend-mode:normal;shape-padding:0;shape-rendering:auto;solid-color:#000;stroke-linecap:round;stroke-linejoin:round;stroke-width:16;stroke:#f8c18c;text-decoration-color:#000;text-decoration-line:none;text-decoration-style:solid;text-indent:0;text-orientation:mixed;text-transform:none;white-space:normal"/><path d="M36.193 28a19.956 19.956 0 0 0-18.859 27.393l19.975 51.828a19.956 19.956 0 0 0 36.73 1.201l5.857-12.666 5.858 12.666a19.956 19.956 0 0 0 36.73-1.201l19.973-51.828a19.956 19.956 0 1 0-37.238-14.352l-3.026 7.852-4.185-9.051a19.956 19.956 0 0 0-36.223 0l-4.186 9.052-3.027-7.853A19.956 19.956 0 0 0 36.193 28z" style="color-rendering:auto;color:#000;dominant-baseline:auto;fill:#9abeff;font-feature-settings:normal;font-variant-alternates:normal;font-variant-caps:normal;font-variant-ligatures:normal;font-variant-numeric:normal;font-variant-position:normal;image-rendering:auto;isolation:auto;mix-blend-mode:normal;shape-padding:0;shape-rendering:auto;solid-color:#000;stroke-linecap:round;stroke-linejoin:round;stroke-width:16;stroke:#9abeff;text-decoration-color:#000;text-decoration-line:none;text-decoration-style:solid;text-indent:0;text-orientation:mixed;text-transform:none;white-space:normal"/><path d="M42 35.107A19.956 19.956 0 0 0 23.141 62.5l19.975 51.828a19.956 19.956 0 0 0 36.73 1.201l5.857-12.666 5.858 12.666a19.956 19.956 0 0 0 36.73-1.201L148.264 62.5a19.956 19.956 0 1 0-37.238-14.352L108 56l-4.185-9.051a19.956 19.956 0 0 0-36.223 0L63.406 56l-3.027-7.853A19.956 19.956 0 0 0 42 35.107z" style="color-rendering:auto;color:#000;dominant-baseline:auto;fill:#9abeff;font-feature-settings:normal;font-variant-alternates:normal;font-variant-caps:normal;font-variant-ligatures:normal;font-variant-numeric:normal;font-variant-position:normal;image-rendering:auto;isolation:auto;mix-blend-mode:normal;shape-padding:0;shape-rendering:auto;solid-color:#000;stroke-linecap:round;stroke-linejoin:round;stroke-width:16;stroke:#9abeff;text-decoration-color:#000;text-decoration-line:none;text-decoration-style:solid;text-indent:0;text-orientation:mixed;text-transform:none;white-space:normal"/><path d="M36.193 28a19.956 19.956 0 0 0-18.859 27.393l19.975 51.828a19.956 19.956 0 0 0 36.73 1.201l5.857-12.666 5.858 12.666a19.956 19.956 0 0 0 36.73-1.201l19.973-51.828a19.956 19.956 0 1 0-37.238-14.352l-3.026 7.852-4.185-9.051a19.956 19.956 0 0 0-36.223 0l-4.186 9.052-3.027-7.853A19.956 19.956 0 0 0 36.193 28z" style="color-rendering:auto;color:#000;dominant-baseline:auto;fill:#fff;font-feature-settings:normal;font-variant-alternates:normal;font-variant-caps:normal;font-variant-ligatures:normal;font-variant-numeric:normal;font-variant-position:normal;image-rendering:auto;isolation:auto;mix-blend-mode:normal;shape-padding:0;shape-rendering:auto;solid-color:#000;text-decoration-color:#000;text-decoration-line:none;text-decoration-style:solid;text-indent:0;text-orientation:mixed;text-transform:none;white-space:normal"/></svg>