<svg xmlns="http://www.w3.org/2000/svg" id="svg2" width="192" height="192" version="1.1"><g id="layer1" transform="translate(0 -860.362)"><rect id="rect4837" width="153" height="153" x="19.5" y="879.862" rx="10" style="fill:#99bdfe;fill-opacity:1;fill-rule:evenodd;stroke:none;stroke-opacity:1"/><path id="path4848" d="M82.6 104.006c-.424.412-7.86 7.614-17.75 14.515-6.019 4.492-6.826 7.987-3.092 11.721 3.734 3.734 7.23 2.927 11.72-3.092 6.902-9.89 14.104-17.326 14.516-17.75a29.75 29.75 0 0 1-5.394-5.394z" style="fill:#fefefe;fill-opacity:1;stroke:none;stroke-width:.256503;stroke-linecap:butt;stroke-linejoin:miter;stroke-miterlimit:4;stroke-dasharray:none;stroke-opacity:1;opacity:1" transform="translate(0 860.362)"/><path id="path4962" d="M105.957 919.861c-14.63 0-26.545 11.915-26.545 26.545 0 14.63 11.915 26.543 26.545 26.543 14.63 0 26.543-11.913 26.543-26.543 0-14.63-11.913-26.545-26.543-26.545zm0 5.057c11.897 0 21.486 9.591 21.486 21.488a21.448 21.448 0 0 1-21.486 21.487c-11.897 0-21.488-9.59-21.488-21.487 0-11.897 9.591-21.488 21.488-21.488z" style="color:#000;font-style:normal;font-variant:normal;font-weight:400;font-stretch:normal;font-size:medium;line-height:normal;font-family:sans-serif;font-variant-ligatures:normal;font-variant-position:normal;font-variant-caps:normal;font-variant-numeric:normal;font-variant-alternates:normal;font-variant-east-asian:normal;font-feature-settings:normal;font-variation-settings:normal;text-indent:0;text-align:start;text-decoration:none;text-decoration-line:none;text-decoration-style:solid;text-decoration-color:#000;letter-spacing:normal;word-spacing:normal;text-transform:none;writing-mode:lr-tb;direction:ltr;text-orientation:mixed;dominant-baseline:auto;baseline-shift:baseline;text-anchor:start;white-space:normal;shape-padding:0;shape-margin:0;inline-size:0;clip-rule:nonzero;display:inline;overflow:visible;visibility:visible;isolation:auto;mix-blend-mode:normal;color-interpolation:sRGB;color-interpolation-filters:linearRGB;solid-color:#000;solid-opacity:1;vector-effect:none;fill:#fefefe;fill-opacity:1;fill-rule:nonzero;stroke:none;stroke-width:5.05676;stroke-linecap:butt;stroke-linejoin:miter;stroke-miterlimit:4;stroke-dasharray:none;stroke-dashoffset:0;stroke-opacity:1;paint-order:markers fill stroke;color-rendering:auto;image-rendering:auto;shape-rendering:auto;text-rendering:auto;enable-background:accumulate;stop-color:#000;stop-opacity:1;opacity:1"/><text xml:space="preserve" id="text2113" x="92.294" y="954.406" style="font-style:normal;font-variant:normal;font-weight:700;font-stretch:normal;font-size:32.0041px;line-height:1.25;font-family:now,bolrd;-inkscape-font-specification:&quot;now, bolrd Bold&quot;;letter-spacing:0;word-spacing:0;opacity:1;fill:#fefefe;fill-opacity:1;stroke-width:.800103"><tspan id="tspan2111" x="92.294" y="954.406" style="fill:#fefefe;fill-opacity:1;stroke-width:.800103">w</tspan></text></g><style id="style853" type="text/css">.st0{fill:#fff}</style></svg>