<?xml version="1.0" encoding="utf-8"?>
<!-- Generator: Adobe Illustrator 16.0.0, SVG Export Plug-In . SVG Version: 6.00 Build 0)  -->
<!DOCTYPE svg PUBLIC "-//W3C//DTD SVG 1.1//EN" "http://www.w3.org/Graphics/SVG/1.1/DTD/svg11.dtd">
<svg version="1.1" id="Layer_1" xmlns="http://www.w3.org/2000/svg" xmlns:xlink="http://www.w3.org/1999/xlink" x="0px" y="0px"
	 width="192px" height="192px" viewBox="0 0 192 192" enable-background="new 0 0 192 192" xml:space="preserve">
<g>
	<g>
		<g>
			<path fill="#99BEF9" d="M176.005,172.899c0,6.154-4.988,11.144-11.144,11.144H20.456c-6.154,0-11.144-4.989-11.144-11.144V28.493
				c0-6.155,4.99-11.144,11.144-11.144h144.406c6.155,0,11.144,4.989,11.144,11.144V172.899z"/>
		</g>
	</g>
	<path fill="#FFFFFF" d="M116.29,95.313c12.046-3.663,21.13-14.495,21.942-27.799c0.246-4.031-0.289-7.929-1.476-11.547
		c-0.114,3.896-1.887,8.923-3.926,12.007C130.513,71.48,118.878,90.974,116.29,95.313z M92.192,92.747
		c3.928,2.187,8.396,3.55,13.183,3.843c1.978,0.121,3.921,0.052,5.816-0.188l-3.807-28.4L92.192,92.747z M49.489,9.309
		l-5.662,25.753c7.992,1.671,13.761,8.991,13.248,17.382c-0.563,9.218-8.492,16.234-17.709,15.671
		c-0.931-0.057-1.839-0.193-2.72-0.394L31.11,92.897l133.809,29.348l5.634-25.624c-8.089-1.595-13.953-8.961-13.438-17.418
		c0.563-9.218,8.492-16.234,17.71-15.671c0.997,0.061,1.968,0.213,2.907,0.438l5.565-25.313L49.489,9.309z M105.184,99.739
		C86.341,98.588,72,82.381,73.15,63.54s17.356-33.183,36.198-32.032c18.842,1.15,33.184,17.357,32.033,36.198
		C140.231,86.548,124.025,100.89,105.184,99.739z M109.157,34.657c-9.286-0.567-17.865,3.012-23.936,9.138
		c2.426,0.565,6.297,1.336,10.602,1.69c0.608,0.05,1.06,0.583,1.01,1.191c-0.05,0.6-0.569,1.047-1.167,1.011
		c-0.008,0-0.016-0.001-0.024-0.001c-1.348-0.111-2.648-0.261-3.877-0.431l3.822,35.355l11.083-18.447l-1.877-14.093
		c-1.888-0.529-2.949-0.915-3.054-0.953c-0.572-0.21-0.865-0.845-0.654-1.417c0.21-0.572,0.846-0.866,1.416-0.656
		c0.062,0.022,6.202,2.248,15.978,3.46c0.605,0.075,1.034,0.627,0.96,1.232c-0.072,0.582-0.585,1.001-1.163,0.966
		c-0.022-0.001-0.046-0.003-0.068-0.006c-1.335-0.166-2.597-0.349-3.789-0.542l3.927,35.638l7.145-13.472
		c0,0,3.171-5.338,2.819-9.943c-0.328-4.304-4.86-11.249-0.856-15.058c2.039-1.939,4.018-1.891,5.621-0.916
		C127.872,40.621,119.223,35.271,109.157,34.657z M76.299,63.732c-0.655,10.726,4.222,20.511,12.169,26.574
		c-1.616-12.358-5.171-38.491-5.856-43.521C78.991,51.517,76.69,57.339,76.299,63.732z"/>
	<path fill="#CAE2FF" d="M74.817,110.281c0.153,0.583-0.188,1.179-0.764,1.343c-0.007,0.003-0.016,0.005-0.023,0.006
		c-1.308,0.345-2.584,0.637-3.799,0.886l15.372,32.066l4.311-21.084l-6.461-12.665c-1.956,0.131-3.085,0.12-3.196,0.118
		c-0.609-0.008-1.097-0.508-1.089-1.118c0.007-0.609,0.509-1.098,1.117-1.09c0,0,0.004,0,0.005,0l-13.869-3.045
		c-1.375,1.78-2.553,3.702-3.513,5.731c2.475-0.274,6.383-0.837,10.56-1.935C74.058,109.34,74.662,109.692,74.817,110.281z
		 M121.192,117.724l-4.997-1.097c-0.094,0.617-0.207,1.209-0.345,1.756c-1.019,4.078-5.502,26.333-6.497,31.285
		C119.079,142.51,124.034,130.04,121.192,117.724z M61.131,133.2c2.953,10.332,10.809,17.936,20.32,21.009
		c-5.638-11.116-17.688-34.575-20.008-39.091C59.603,120.784,59.371,127.041,61.131,133.2z M99.485,154.506
		c1.904-0.544,3.715-1.257,5.422-2.114l-13.043-25.514l-6.089,28.392C90.207,156.024,94.873,155.823,99.485,154.506z
		 M160.957,132.841c-7.597,1.107-15.038-3.149-17.906-10.317l-18.479-4.058c3.185,17.129-7.128,34.188-24.22,39.073
		c-18.151,5.187-37.068-5.322-42.255-23.473c-2.958-10.351-0.81-20.949,4.947-29.109l-37.854-8.312l1.492-6.952l-8.948,1.11
		l3.232,26.169c8.092-1.085,15.969,3.898,18.279,11.98c2.537,8.88-2.604,18.136-11.484,20.673c-0.897,0.256-1.798,0.431-2.696,0.534
		l3.16,25.584l135.948-16.865L160.957,132.841z M111.041,126.813c0,0,1.213-6.089-0.65-10.314c-0.186-0.422-0.43-0.856-0.709-1.302
		l-15.387-3.378l14.494,30.075L111.041,126.813z"/>
</g>
</svg>
