<svg xmlns="http://www.w3.org/2000/svg" xml:space="preserve" width="192" height="192"><rect width="152" height="152" x="20" y="20" fill="#9abeff" rx="9.935"/><path fill="none" stroke="#fff" stroke-linecap="round" stroke-linejoin="round" stroke-width="3" d="M86.355 118.34s-12.046-13.164-12.643-18.568c-.963-8.714 6.27-10.771 6.27-10.771v-33.75c0-5.095 9.457-4.787 9.457 0v25.338-6.565c0-3.634 8.635-3.453 8.635 0v6.668-5.13c0-3.365 9.354-3.438 9.354 0v8.207-4.41c0-3.796 9.448-3.311 9.712-.073.571 7 3.16 20.803-1.695 31.36-1.37 2.981-6.27 7.592-6.27 7.592z"/><ellipse cx="98.634" cy="126.9" fill="#9abeff" stroke="#fff" stroke-linecap="round" stroke-linejoin="round" stroke-width="3" rx="13.924" ry="13.485"/><path fill="none" stroke="#fff" stroke-linecap="round" stroke-linejoin="round" stroke-width="3" d="M97.765 118.29v8.566l6.013 6.001"/></svg>