<svg width="192" height="192" version="1.1" viewBox="0 0 192 192" xmlns="http://www.w3.org/2000/svg">
 <path d="m96 16c42.796-0.40057 84.755 31.109 84 76-0.68177 40.546-15.971 83.327-88 84-49.575 0.4629-84-41.333-84-80 0-39.357 41.904-79.569 88-80z" style="fill:#56595b"/>
 <path d="m8 72c0-8 3.5462-19.538 10.79-27.921 4.4204-5.1158 17.278-15.974 25.21-16.079 8.2322-0.10941 20.666 2.6641 28.097 9.1809 7.4307 6.5168 9.8585 16.799 9.9494 27.028 0.18847 21.217-15.19 47.872-42.046 47.791-26.863-0.0812-32-22.925-32-40z" style="fill:#fff"/>
 <circle cx="34" cy="66" r="10" style="fill:#56595b;paint-order:stroke fill markers"/>
 <path d="m184 68c-0.47173-15.562-12.673-33.757-32-34.022-18.648-0.25488-28.527 19.344-28 34.022 0.55571 15.466 16.1 34.311 32 33.638 25.716-1.0882 28.442-19.056 28-33.638z" style="fill:#fff"/>
 <circle cx="166" cy="66" r="10" style="fill:#56595b;paint-order:stroke fill markers"/>
 <path d="m52.791 28.791c8.3654 6.3843 19.153 15.868 20.805 23.438 5.7736 26.462-2.7667 51.383-32.051 53.713-9.502 0.75598-23.329-8.9037-30.846-14.832 3.7046 11.326 11.986 20.838 29.301 20.891 26.856 0.08118 42.235-26.574 42.047-47.791-0.090864-10.229-2.5185-20.511-9.9492-27.027-5.0783-4.4537-12.493-7.1588-19.307-8.3906zm88.168 7.709-0.13086 0.013672c-11.371 5.7333-17.238 20.09-16.828 31.486 0.55571 15.466 16.1 34.311 32 33.639 25.716-1.0882 28.442-19.056 28-33.639-0.0095-0.31342-0.0318-0.62993-0.05078-0.94531-0.16679 1.6024-4.1825 36.709-35.869 25.533-9.7469-3.4378-18.615-13.747-19.586-24.037-1.4888-15.774 12.465-32.051 12.465-32.051z" style="fill:#ececec"/>
</svg>
