<?xml version="1.0" encoding="utf-8"?>
<!-- Generator: Adobe Illustrator 16.0.0, SVG Export Plug-In . SVG Version: 6.00 Build 0)  -->
<!DOCTYPE svg PUBLIC "-//W3C//DTD SVG 1.1//EN" "http://www.w3.org/Graphics/SVG/1.1/DTD/svg11.dtd">
<svg version="1.1" id="Layer_1" xmlns="http://www.w3.org/2000/svg" xmlns:xlink="http://www.w3.org/1999/xlink" x="0px" y="0px"
	 width="192px" height="192px" viewBox="0 0 192 192" enable-background="new 0 0 192 192" xml:space="preserve">
<g>
	<circle fill="#99BEF9" cx="96.28" cy="96.52" r="89.87"/>
	<path fill="#728CBA" d="M186.149,96.52c0-23.298-8.866-44.525-23.407-60.493c-18.896,4.452-53.489,39.513-53.489,39.513
		l63.832,67.668C181.374,129.601,186.149,113.619,186.149,96.52z"/>
	<path fill="#FFFFFF" d="M105.718,113.707c-2.41-1.034-3.099-0.345-3.099-3.789c0-3.443-4.477-5.509-9.297-8.953
		c-4.821-3.442-4.132-4.132-5.165-6.542c-1.033-2.41-2.066-2.066-4.821-1.033s-4.849,1.078-7.576,0.689
		c-4.821-0.689-2.411-4.477-7.92-8.265c-5.509-3.788-8.609-7.92-9.642-10.33c-1.033-2.411-0.688-4.132,4.133-7.92
		c4.82-3.787,9.641-6.198,12.052-1.377c2.411,4.821,3.099,6.887,6.198,1.377c3.099-5.509,5.51-7.575,11.363-12.396
		c5.854-4.82,12.741-4.132,15.495-3.443c2.755,0.689,1.723-14.118-0.688-14.118s-7.231,1.722-9.643,0
		c-2.41-1.722-5.509-3.443-1.377-7.575c4.132-4.132,6.198-2.411,6.198-4.132s-5.192-7.764-10.675-6.887
		c-8.608,1.377-15.84-1.033-21.005-2.066c-3.353-0.67-8.298-1.34-12.3-1.729c-4.512,2.131-8.816,4.626-12.878,7.447
		c0.925,0.347,2.183,0.756,3.829,1.168c4.132,1.033,5.165,4.477,1.722,8.609c-3.444,4.132-4.132,5.51-4.821,13.085
		c-0.688,7.575-1.377,18.939,1.033,22.727s1.722,4.477,3.1,6.542c1.377,2.066,3.787,5.165,6.887,8.953
		c3.099,3.788,8.264,7.231,12.396,9.297c4.132,2.066,5.854,4.477,3.099,6.198c-2.755,1.722-3.099,5.511-2.755,12.053
		c0.344,6.543,0.689,11.708,4.132,16.528c3.443,4.821,5.165,6.542,4.82,11.019c-0.344,4.477-2.066,8.266-3.443,11.021
		c-1.377,2.754-1.377,9.641-1.033,15.495c0.345,5.854,0,11.708,3.444,13.43c3.443,1.722,5.166,3.442,6.198,4.477
		c1.033,1.032,1.377-2.066,0-5.854s-1.033-7.23-1.033-9.985s2.066-4.821,6.198-5.854c4.132-1.033,9.297-5.51,10.675-8.609
		c1.377-3.098,2.41-4.132,4.477-6.542c2.065-2.41,5.301-3.371,6.542-5.854c1.722-3.444,3.443-6.542,5.854-9.298
		c2.41-2.755,1.723-5.854-1.032-9.642S108.129,114.739,105.718,113.707z"/>
	<circle fill="#FF877F" cx="142.247" cy="50.897" r="41.319"/>
	<path fill="#FFFFFF" d="M144.486,27.826c0,0-12.052,23.759-9.986,27.891c0.982,1.965,5.171,1.653,10.966,2.781
		c7.657,1.491,15.922,2.064,23.983,3.59c0,0-9.669-6.576-21.204-10.536C140.826,49.005,144.457,49.313,144.486,27.826z"/>
</g>
</svg>
