<svg xmlns="http://www.w3.org/2000/svg" viewBox="0 0 153 153"><title>Wulkanowy Dzienniczek</title><rect width="153" height="153" rx="10" fill="#ff837d"/><path d="M80.54,128.3a.88.88,0,0,1-.1.74l-1.83,3a1.07,1.07,0,0,1-.88.49H60.52a1,1,0,0,1-.86-1.47l11.08-16.33a.91.91,0,0,0,.14-.3L76,92.72a.88.88,0,0,1,.47-.61l6.88-3.78a.91.91,0,0,0,.48-.62l.92-4a1,1,0,0,1,1.87-.28l.34.53a.87.87,0,0,1,.08.77l-6.27,18.13a.85.85,0,0,0,0,.45L82.26,112a.9.9,0,0,1-.07.51l-3.73,8.37a1,1,0,0,0,0,.62Zm51,4.21H119.63a1.06,1.06,0,0,1-.84-.44l-8-11.22a1.12,1.12,0,0,1-.13-.24l-4-11.55a1,1,0,0,0-.49-.54l-9.68-4.89a.92.92,0,0,1-.51-.66l-1.43-7.09a.76.76,0,0,0-.15-.33l-3.28-4.83a.87.87,0,0,1-.08-.88l2-4.28A1,1,0,0,1,94,85l3.71-.22a1,1,0,0,0,.59-.22L101,82.43a1,1,0,0,1,1.57.34L112,101.94a.87.87,0,0,1,.08.26l1.17,7.71a.9.9,0,0,0,.23.48l18.77,20.54A1,1,0,0,1,131.49,132.51Zm-46.1-60a5.44,5.44,0,0,1,3.37-4.93,1.45,1.45,0,0,1-.23-.78c0-1,1.22-1.91,2.71-1.91h.11a3.66,3.66,0,0,1,3.15-1.73h.29A.33.33,0,0,0,95.1,63c1-1.52,3.54-2.61,6.5-2.61a11.32,11.32,0,0,1,3.06.41,1.48,1.48,0,0,1,1.27-.61,1.37,1.37,0,0,1,1.34.77,4.79,4.79,0,0,1,3.61-1.5c2.41,0,4.35,1.52,4.35,3.39a2.39,2.39,0,0,1-.09.66.32.32,0,0,0,.21.37c1.54.56,2.58,1.63,2.58,2.85,0,1.39-1.35,2.58-3.24,3a.31.31,0,0,0-.25.31v0A2.37,2.37,0,0,1,112,72.21a.71.71,0,0,1,0,.15c0,2.07-3.94,3.74-8.79,3.74a19.82,19.82,0,0,1-3-.22v0c0,.86-1.11,1.56-2.46,1.56h-.21a1.51,1.51,0,0,1,.14.66c0,1.33-1.68,2.41-3.77,2.41a4.92,4.92,0,0,1-.67,0,.33.33,0,0,0-.37.25,1.5,1.5,0,0,1-3-.44,1.62,1.62,0,0,1,.38-1.06.33.33,0,0,0,.06-.34,1.56,1.56,0,0,1-.2-.78h0a.34.34,0,0,0-.27-.32,5.57,5.57,0,0,1-4.53-5.3Zm21.88,51.77a1.06,1.06,0,0,1,0,.35l-.55,7a1,1,0,0,1-1,.89H87.92A1,1,0,0,1,87,132l-2.94-5.47,0-.08-2.77-6.72a.89.89,0,0,1,0-.75l4.61-9a.88.88,0,0,0,0-.71L83.69,103a.94.94,0,0,1,0-.68l3.76-8a1,1,0,0,1,1.9.1l1.17,3.64,3.57,9.57a1,1,0,0,0,.61.57l7.63,2.6a1,1,0,0,1,.61.6Z" transform="translate(-19.5 -18.5)" fill="#fff"/></svg>