<svg xmlns="http://www.w3.org/2000/svg" xml:space="preserve" width="192" height="192"><path fill="#90DC9F" d="M184.19 178.337a5.87 5.87 0 0 1-5.87 5.869H13.984a5.87 5.87 0 0 1-5.869-5.869V14.001a5.87 5.87 0 0 1 5.869-5.869H178.32a5.87 5.87 0 0 1 5.87 5.869v164.336z"/><g fill="#FFF"><path d="M120.525 84.977c5.249-5.775 8.152-12.858 8.152-21.275 0-9.31-3.918-17.7-10.188-23.629-.963-.12-1.899-.125-2.69.072-3.173.794-8.307 4.094-11.413 9.128 0 0 19.563 25.433 16.139 35.704zM96.071 57.099h-.652s-6.49 4.535-14.184 13.695c-6.211 7.395-7.77 12.817-8.033 15.952 5.882 5.859 13.993 9.481 22.951 9.481 8.573 0 16.367-3.323 22.178-8.744-.077-2.98-1.35-8.681-8.076-16.688-7.693-9.162-14.184-13.696-14.184-13.696zm-.244-15.651c6.595-4.396 14.56-4.95 18.143-4.952a32.36 32.36 0 0 0-17.816-5.319 32.368 32.368 0 0 0-17.833 5.329c3.872.086 11.201.847 17.344 4.942h.162zm-8.723 7.825c-3.106-5.034-8.239-8.334-11.412-9.128-.544-.136-1.159-.17-1.801-.144-6.314 5.933-10.263 14.354-10.263 23.701a32.374 32.374 0 0 0 7.079 20.245c-1.935-10.841 16.397-34.674 16.397-34.674zM64.956 120.42h6.911c0 1.254-.164 2.394-.488 3.42-.326 1.026-.977 1.951-1.954 2.771-.125.108-.25.205-.375.292a3.512 3.512 0 0 1-.376.227c-.701.433-1.39.703-2.066.812-.676.107-1.252.161-1.728.161-2.855 0-4.784-.957-5.785-2.872-1.002-1.916-1.528-4.025-1.578-6.328v-.354c0-3.035.714-5.359 2.141-6.973 1.428-1.614 3.13-2.421 5.109-2.421.3 0 .62.016.958.049.338.032.682.08 1.033.145.977.215 1.902.673 2.779 1.372.876.699 1.49 1.792 1.841 3.276l2.892.032c-.276-2.324-1.221-4.11-2.835-5.358-1.616-1.248-3.362-1.99-5.24-2.227a13.141 13.141 0 0 0-1.278-.066c-3.255 0-5.722 1.071-7.399 3.212-1.678 2.142-2.667 4.503-2.967 7.086a6.163 6.163 0 0 0-.094.854c-.013.291-.019.576-.019.856 0 .883.062 1.92.188 3.115.125 1.193.5 2.415 1.127 3.663.25.517.557 1.028.92 1.533.363.506.782.995 1.258 1.469.1.086.2.183.301.291.1.107.212.204.338.29.576.517 1.352.979 2.329 1.388.977.409 2.241.614 3.794.614 1.527 0 2.942-.323 4.245-.969 1.301-.646 2.329-1.528 3.08-2.647l.714 3.002h1.915V117.74h-9.69v2.68zM84.71 106.959l-8.339 23.177h3.081l2.329-6.746h8.864l2.178 6.746h3.269l-8.001-23.177H84.71zm-1.99 13.654 3.531-10.2h.075l3.23 10.2H82.72zM108.447 126.553h-.074l-6.311-19.594h-4.281v23.177h2.892v-13.654c0-.172-.007-.468-.019-.887a47.18 47.18 0 0 1-.019-1.438c0-.258-.007-.527-.02-.807a16.095 16.095 0 0 1-.019-.808v-1.84h.075l6.234 19.433h2.931l6.234-19.433h.076V112.445c0 .303-.007.593-.019.872-.014.279-.02.56-.02.839 0 .538-.006 1.017-.019 1.438-.014.419-.02.704-.02.854v13.687h2.893v-23.177h-4.244l-6.27 19.595zM123.999 127.36v-7.747h12.579v-2.776h-12.579v-7.103h13.634v-2.775h-16.719v23.177h16.954v-2.776zM63.602 160.547h-2.821v-23.178h9.428c1.952.022 3.482.652 4.589 1.889 1.107 1.238 1.66 2.793 1.66 4.665a6.662 6.662 0 0 1-.072.996c-.143 1.457-.696 2.795-1.661 4.016s-2.47 1.832-4.517 1.832h-6.607v9.78zm0-12.46h5.643c1.286.021 2.321-.269 3.107-.871.786-.604 1.178-1.689 1.178-3.261 0-1.475-.399-2.495-1.196-3.06-.798-.563-1.78-.847-2.947-.847h-5.785v8.039zM79.851 153.8l-2.214 6.747h-2.929l7.928-23.178h3.214l7.606 23.178H90.35l-2.071-6.747h-8.428zm7.393-2.776-3.071-10.2h-.072l-3.356 10.2h6.499zM111.42 144.149h-2.678c-.072-1.593-.565-2.739-1.483-3.438-.916-.699-1.91-1.103-2.98-1.21-.143 0-.274-.006-.394-.017s-.238-.017-.356-.017a8.875 8.875 0 0 0-1.75.195c-.763.193-1.458.576-2.09 1.146-.631.57-.946 1.479-.946 2.729 0 .989.262 1.684.786 2.081a5.034 5.034 0 0 0 1.715.856l5.999 1.484c1.356.365 2.487 1.032 3.393 2.001.904.969 1.356 2.379 1.356 4.229 0 2.26-.649 3.896-1.946 4.906-1.298 1.013-2.72 1.647-4.268 1.905a8.118 8.118 0 0 1-1 .129c-.333.021-.667.032-.999.032-1.524 0-2.721-.161-3.59-.484-.869-.322-1.554-.677-2.053-1.064a5.66 5.66 0 0 1-.393-.323 3.482 3.482 0 0 1-.321-.323c-.882-.882-1.459-1.812-1.733-2.792a11.423 11.423 0 0 1-.411-3.083l2.679-.032c0 1.872.5 3.207 1.5 4.003 1 .797 2.095 1.259 3.286 1.389a8.337 8.337 0 0 0 .999.065c.286 0 .602-.017.946-.049s.684-.08 1.018-.146a5.813 5.813 0 0 0 2.429-1.098c.737-.559 1.107-1.431 1.107-2.614 0-1.119-.263-1.947-.786-2.485-.524-.538-1.512-1.011-2.964-1.421a3.996 3.996 0 0 1-.714-.193l-4.32-1.13a6.199 6.199 0 0 1-.875-.241 5.605 5.605 0 0 1-1.054-.501c-.619-.365-1.196-.915-1.732-1.646-.536-.731-.804-1.742-.804-3.034 0-1.808.571-3.454 1.714-4.938 1.143-1.485 2.977-2.228 5.5-2.228 2.499 0 4.313.463 5.445 1.388 1.131.926 1.887 1.947 2.268 3.066.19.539.315 1.061.375 1.565.06.507.101.964.125 1.372v-.034zM130.953 144.149h-2.678c-.071-1.593-.565-2.739-1.482-3.438-.916-.699-1.91-1.103-2.98-1.21-.144 0-.275-.006-.395-.017a3.839 3.839 0 0 0-.356-.017 8.919 8.919 0 0 0-1.75.195c-.762.193-1.458.576-2.089 1.146s-.946 1.479-.946 2.729c0 .989.262 1.684.786 2.081a5.038 5.038 0 0 0 1.714.856l5.999 1.484c1.357.365 2.487 1.032 3.393 2.001.904.969 1.356 2.379 1.356 4.229 0 2.26-.648 3.896-1.945 4.906-1.298 1.013-2.72 1.647-4.268 1.905a8.168 8.168 0 0 1-1 .129c-.333.021-.667.032-1 .032-1.523 0-2.721-.161-3.589-.484-.869-.322-1.554-.677-2.053-1.064a5.457 5.457 0 0 1-.394-.323 3.75 3.75 0 0 1-.321-.323c-.881-.882-1.459-1.812-1.731-2.792a11.383 11.383 0 0 1-.411-3.083l2.678-.032c0 1.872.5 3.207 1.5 4.003 1.001.797 2.096 1.259 3.286 1.389a8.292 8.292 0 0 0 1 .065c.285 0 .601-.017.946-.049.344-.032.685-.08 1.018-.146a5.814 5.814 0 0 0 2.428-1.098c.738-.559 1.107-1.431 1.107-2.614 0-1.119-.262-1.947-.785-2.485-.524-.538-1.513-1.011-2.965-1.421a4.245 4.245 0 0 1-.713-.193l-4.32-1.13a6.127 6.127 0 0 1-.875-.241 5.583 5.583 0 0 1-1.055-.501c-.619-.365-1.196-.915-1.731-1.646s-.804-1.742-.804-3.034c0-1.808.571-3.454 1.714-4.938 1.143-1.485 2.977-2.228 5.5-2.228 2.5 0 4.314.463 5.446 1.388 1.13.926 1.886 1.947 2.268 3.066.189.539.315 1.061.375 1.565.06.507.101.964.124 1.372v-.034z"/></g></svg>