<?xml version="1.0" encoding="UTF-8" standalone="no"?>
<!-- Created with Inkscape (http://www.inkscape.org/) -->

<svg
   xmlns:dc="http://purl.org/dc/elements/1.1/"
   xmlns:cc="http://creativecommons.org/ns#"
   xmlns:rdf="http://www.w3.org/1999/02/22-rdf-syntax-ns#"
   xmlns:svg="http://www.w3.org/2000/svg"
   xmlns="http://www.w3.org/2000/svg"
   xmlns:sodipodi="http://sodipodi.sourceforge.net/DTD/sodipodi-0.dtd"
   xmlns:inkscape="http://www.inkscape.org/namespaces/inkscape"
   sodipodi:docname="xbrowser.svg"
   inkscape:version="0.91 r13725"
   version="1.1"
   id="svg2"
   viewBox="0 0 192 192"
   height="192"
   width="192"
   inkscape:export-filename="/home/jphilippe/inkscape/icônes/delta-github/png/xbrowser.png"
   inkscape:export-xdpi="90"
   inkscape:export-ydpi="90">
  <defs
     id="defs4" />
  <sodipodi:namedview
     inkscape:window-maximized="1"
     inkscape:window-y="28"
     inkscape:window-x="0"
     inkscape:window-height="996"
     inkscape:window-width="1680"
     units="px"
     showgrid="false"
     inkscape:current-layer="layer1"
     inkscape:document-units="px"
     inkscape:cy="42.446053"
     inkscape:cx="-23.979494"
     inkscape:zoom="0.5"
     inkscape:pageshadow="2"
     inkscape:pageopacity="0.0"
     borderopacity="1.0"
     bordercolor="#666666"
     pagecolor="#ffffff"
     id="base" />
  <metadata
     id="metadata7">
    <rdf:RDF>
      <cc:Work
         rdf:about="">
        <dc:format>image/svg+xml</dc:format>
        <dc:type
           rdf:resource="http://purl.org/dc/dcmitype/StillImage" />
        <dc:title></dc:title>
      </cc:Work>
    </rdf:RDF>
  </metadata>
  <g
     inkscape:label="Calque 1"
     inkscape:groupmode="layer"
     id="layer1"
     transform="translate(0,-860.36216)">
    <rect
       style="fill:#ffffff;fill-opacity:1;fill-rule:evenodd;stroke:none"
       width="153"
       height="153"
       x="19.5"
       y="879.86218"
       rx="10"
       id="rect4184" />
    <g
       id="g4359"
       transform="matrix(0.75,0,0,0.75,24.000001,239.08984)">
      <path
         inkscape:connector-curvature="0"
         id="path4347"
         d="m 39.199395,899.21053 a 5.0005,5.0005 0 0 0 -0.49865,-0.0423 5.0005,5.0005 0 0 0 -0.49996,0.007 5.0005,5.0005 0 0 0 -0.49535,0.0592 5.0005,5.0005 0 0 0 -0.48888,0.10604 5.0005,5.0005 0 0 0 -0.47458,0.15468 5.0005,5.0005 0 0 0 -0.4583,0.20331 5.0005,5.0005 0 0 0 -0.4343,0.24596 5.0005,5.0005 0 0 0 -0.40836,0.28859 5.0005,5.0005 0 0 0 -0.37657,0.3292 5.0005,5.0005 0 0 0 -0.3429,0.36391 5.0005,5.0005 0 0 0 -0.30341,0.3966 5.0005,5.0005 0 0 0 -0.26399,0.42343 5.0005,5.0005 0 0 0 -0.22067,0.4502 5.0005,5.0005 0 0 0 -0.17353,0.46912 5.0005,5.0005 0 0 0 -0.12454,0.48215 5.0005,5.0005 0 0 0 -0.0775,0.4952 5.0005,5.0005 0 0 0 -0.0267,0.49844 5.0005,5.0005 0 0 0 0.0222,0.49975 5.0005,5.0005 0 0 0 0.071,0.4952 5.0005,5.0005 0 0 0 0.0373,0.16945 l 3.55097,15.15387 a 5.0005,5.0005 0 0 0 0.13912,0.47868 5.0005,5.0005 0 0 0 0.18384,0.46443 5.0005,5.0005 0 0 0 0.23243,0.44425 5.0005,5.0005 0 0 0 0.27309,0.41832 5.0005,5.0005 0 0 0 0.31373,0.38849 5.0005,5.0005 0 0 0 0.35234,0.35477 5.0005,5.0005 0 0 0 0.0119,0.0116 l 95.962035,87.15883 a 5.0005,5.0005 0 0 0 0.38701,0.3172 5.0005,5.0005 0 0 0 0.41577,0.2758 5.0005,5.0005 0 0 0 0.44062,0.2345 5.0005,5.0005 0 0 0 0.46347,0.1892 5.0005,5.0005 0 0 0 0.47844,0.1402 5.0005,5.0005 0 0 0 0.4915,0.093 5.0005,5.0005 0 0 0 0.0156,0 l 15.42517,2.0827 a 5.0005,5.0005 0 0 0 0.49862,0.04 5.0005,5.0005 0 0 0 0.49996,-0.01 5.0005,5.0005 0 0 0 0.49538,-0.057 5.0005,5.0005 0 0 0 0.48886,-0.108 5.0005,5.0005 0 0 0 0.47457,-0.1547 5.0005,5.0005 0 0 0 0.45831,-0.2033 5.0005,5.0005 0 0 0 0.43431,-0.2459 5.0005,5.0005 0 0 0 0.40835,-0.2886 5.0005,5.0005 0 0 0 0.37659,-0.3273 5.0005,5.0005 0 0 0 0.3429,-0.3639 5.0005,5.0005 0 0 0 0.30342,-0.3966 5.0005,5.0005 0 0 0 0.26396,-0.4254 5.0005,5.0005 0 0 0 0.22069,-0.4482 5.0005,5.0005 0 0 0 0.17354,-0.4691 5.0005,5.0005 0 0 0 0.12451,-0.4841 5.0005,5.0005 0 0 0 0.0775,-0.4933 5.0005,5.0005 0 0 0 0.0286,-0.5004 5.0005,5.0005 0 0 0 -0.0222,-0.4978 5.0005,5.0005 0 0 0 -0.0729,-0.4952 5.0005,5.0005 0 0 0 -0.0249,-0.1169 l -3.56536,-15.20834 a 5.0005,5.0005 0 0 0 -0.13914,-0.48063 5.0005,5.0005 0 0 0 -0.18581,-0.46439 5.0005,5.0005 0 0 0 -0.23046,-0.44428 5.0005,5.0005 0 0 0 -0.27503,-0.41634 5.0005,5.0005 0 0 0 -0.31372,-0.38849 5.0005,5.0005 0 0 0 -0.35235,-0.35479 5.0005,5.0005 0 0 0 -0.0101,-0.01 L 84.649155,927.36971 57.302915,902.5335 a 5.0005,5.0005 0 0 0 -0.3732,-0.30567 5.0005,5.0005 0 0 0 -0.4158,-0.27776 5.0005,5.0005 0 0 0 -0.44062,-0.23447 5.0005,5.0005 0 0 0 -0.46345,-0.18924 5.0005,5.0005 0 0 0 -0.47846,-0.14022 5.0005,5.0005 0 0 0 -0.47581,-0.0894 l -15.45649,-2.08617 z"
         style="color:#000000;font-style:normal;font-variant:normal;font-weight:normal;font-stretch:normal;font-size:medium;line-height:normal;font-family:sans-serif;text-indent:0;text-align:start;text-decoration:none;text-decoration-line:none;text-decoration-style:solid;text-decoration-color:#000000;letter-spacing:normal;word-spacing:normal;text-transform:none;direction:ltr;block-progression:tb;writing-mode:lr-tb;baseline-shift:baseline;text-anchor:start;white-space:normal;clip-rule:nonzero;display:inline;overflow:visible;visibility:visible;opacity:1;isolation:auto;mix-blend-mode:normal;color-interpolation:sRGB;color-interpolation-filters:linearRGB;solid-color:#000000;solid-opacity:1;fill:#738dbe;fill-opacity:1;fill-rule:nonzero;stroke:none;stroke-width:10;stroke-linecap:round;stroke-linejoin:round;stroke-miterlimit:4;stroke-dasharray:none;stroke-dashoffset:0;stroke-opacity:1;color-rendering:auto;image-rendering:auto;shape-rendering:auto;text-rendering:auto;enable-background:accumulate" />
      <path
         style="color:#000000;font-style:normal;font-variant:normal;font-weight:normal;font-stretch:normal;font-size:medium;line-height:normal;font-family:sans-serif;text-indent:0;text-align:start;text-decoration:none;text-decoration-line:none;text-decoration-style:solid;text-decoration-color:#000000;letter-spacing:normal;word-spacing:normal;text-transform:none;direction:ltr;block-progression:tb;writing-mode:lr-tb;baseline-shift:baseline;text-anchor:start;white-space:normal;clip-rule:nonzero;display:inline;overflow:visible;visibility:visible;opacity:1;isolation:auto;mix-blend-mode:normal;color-interpolation:sRGB;color-interpolation-filters:linearRGB;solid-color:#000000;solid-opacity:1;fill:#9abefe;fill-opacity:1;fill-rule:nonzero;stroke:none;stroke-width:10;stroke-linecap:round;stroke-linejoin:round;stroke-miterlimit:4;stroke-dasharray:none;stroke-dashoffset:0;stroke-opacity:1;color-rendering:auto;image-rendering:auto;shape-rendering:auto;text-rendering:auto;enable-background:accumulate"
         d="m 152.8006,899.21053 a 5.0005,5.0005 0 0 1 0.49865,-0.0423 5.0005,5.0005 0 0 1 0.49996,0.007 5.0005,5.0005 0 0 1 0.49535,0.0592 5.0005,5.0005 0 0 1 0.48888,0.10604 5.0005,5.0005 0 0 1 0.47458,0.15468 5.0005,5.0005 0 0 1 0.4583,0.20331 5.0005,5.0005 0 0 1 0.4343,0.24596 5.0005,5.0005 0 0 1 0.40836,0.28859 5.0005,5.0005 0 0 1 0.37657,0.3292 5.0005,5.0005 0 0 1 0.3429,0.36391 5.0005,5.0005 0 0 1 0.30341,0.3966 5.0005,5.0005 0 0 1 0.26399,0.42343 5.0005,5.0005 0 0 1 0.22067,0.4502 5.0005,5.0005 0 0 1 0.17353,0.46912 5.0005,5.0005 0 0 1 0.12454,0.48215 5.0005,5.0005 0 0 1 0.0775,0.4952 5.0005,5.0005 0 0 1 0.0267,0.49844 5.0005,5.0005 0 0 1 -0.0222,0.49975 5.0005,5.0005 0 0 1 -0.071,0.4952 5.0005,5.0005 0 0 1 -0.0373,0.16945 l -3.55097,15.15387 a 5.0005,5.0005 0 0 1 -0.13912,0.47868 5.0005,5.0005 0 0 1 -0.18384,0.46443 5.0005,5.0005 0 0 1 -0.23243,0.44425 5.0005,5.0005 0 0 1 -0.27309,0.41832 5.0005,5.0005 0 0 1 -0.31373,0.38849 5.0005,5.0005 0 0 1 -0.35234,0.35477 5.0005,5.0005 0 0 1 -0.0119,0.0116 l -95.962025,87.15883 a 5.0005,5.0005 0 0 1 -0.38701,0.3172 5.0005,5.0005 0 0 1 -0.41577,0.2758 5.0005,5.0005 0 0 1 -0.44062,0.2345 5.0005,5.0005 0 0 1 -0.46347,0.1892 5.0005,5.0005 0 0 1 -0.47844,0.1402 5.0005,5.0005 0 0 1 -0.4915,0.093 5.0005,5.0005 0 0 1 -0.0156,0 l -15.42517,2.0827 a 5.0005,5.0005 0 0 1 -0.49862,0.04 5.0005,5.0005 0 0 1 -0.49996,-0.01 5.0005,5.0005 0 0 1 -0.49538,-0.057 5.0005,5.0005 0 0 1 -0.48886,-0.108 5.0005,5.0005 0 0 1 -0.47457,-0.1547 5.0005,5.0005 0 0 1 -0.45831,-0.2033 5.0005,5.0005 0 0 1 -0.43431,-0.2459 5.0005,5.0005 0 0 1 -0.40835,-0.2886 5.0005,5.0005 0 0 1 -0.37659,-0.3273 5.0005,5.0005 0 0 1 -0.3429,-0.3639 5.0005,5.0005 0 0 1 -0.30342,-0.3966 5.0005,5.0005 0 0 1 -0.26396,-0.4254 5.0005,5.0005 0 0 1 -0.22069,-0.4482 5.0005,5.0005 0 0 1 -0.17354,-0.4691 5.0005,5.0005 0 0 1 -0.12451,-0.4841 5.0005,5.0005 0 0 1 -0.0775,-0.4933 5.0005,5.0005 0 0 1 -0.0286,-0.5004 5.0005,5.0005 0 0 1 0.0222,-0.4978 5.0005,5.0005 0 0 1 0.0729,-0.4952 5.0005,5.0005 0 0 1 0.0249,-0.1169 l 3.56536,-15.20834 a 5.0005,5.0005 0 0 1 0.13914,-0.48063 5.0005,5.0005 0 0 1 0.18581,-0.46439 5.0005,5.0005 0 0 1 0.23046,-0.44428 5.0005,5.0005 0 0 1 0.27503,-0.41634 5.0005,5.0005 0 0 1 0.31372,-0.38849 5.0005,5.0005 0 0 1 0.35235,-0.35479 5.0005,5.0005 0 0 1 0.0101,-0.01 l 68.627675,-62.33613 27.34624,-24.83621 a 5.0005,5.0005 0 0 1 0.3732,-0.30567 5.0005,5.0005 0 0 1 0.4158,-0.27776 5.0005,5.0005 0 0 1 0.44062,-0.23447 5.0005,5.0005 0 0 1 0.46345,-0.18924 5.0005,5.0005 0 0 1 0.47846,-0.14022 5.0005,5.0005 0 0 1 0.47581,-0.0894 l 15.45649,-2.08617 z"
         id="path4357"
         inkscape:connector-curvature="0" />
    </g>
  </g>
</svg>
