<?xml version="1.0" encoding="UTF-8" standalone="no"?>
<!-- Created with Inkscape (http://www.inkscape.org/) -->

<svg
   xmlns:dc="http://purl.org/dc/elements/1.1/"
   xmlns:cc="http://creativecommons.org/ns#"
   xmlns:rdf="http://www.w3.org/1999/02/22-rdf-syntax-ns#"
   xmlns:svg="http://www.w3.org/2000/svg"
   xmlns="http://www.w3.org/2000/svg"
   xmlns:sodipodi="http://sodipodi.sourceforge.net/DTD/sodipodi-0.dtd"
   xmlns:inkscape="http://www.inkscape.org/namespaces/inkscape"
   width="192"
   height="192"
   viewBox="0 0 192 192"
   id="svg4349"
   version="1.1"
   inkscape:version="0.91 r13725"
   sodipodi:docname="xda_feed.svg"
   inkscape:export-filename="/home/jphilippe/Bureau/inkscape/xda-delta.png"
   inkscape:export-xdpi="90"
   inkscape:export-ydpi="90">
  <defs
     id="defs4351" />
  <sodipodi:namedview
     id="base"
     pagecolor="#ffffff"
     bordercolor="#666666"
     borderopacity="1.0"
     inkscape:pageopacity="0.0"
     inkscape:pageshadow="2"
     inkscape:zoom="2.8284271"
     inkscape:cx="90.423175"
     inkscape:cy="91.842011"
     inkscape:document-units="px"
     inkscape:current-layer="layer1"
     showgrid="false"
     units="px"
     inkscape:window-width="1680"
     inkscape:window-height="996"
     inkscape:window-x="0"
     inkscape:window-y="28"
     inkscape:window-maximized="1" />
  <metadata
     id="metadata4354">
    <rdf:RDF>
      <cc:Work
         rdf:about="">
        <dc:format>image/svg+xml</dc:format>
        <dc:type
           rdf:resource="http://purl.org/dc/dcmitype/StillImage" />
        <dc:title />
      </cc:Work>
    </rdf:RDF>
  </metadata>
  <g
     inkscape:label="Calque 1"
     inkscape:groupmode="layer"
     id="layer1"
     transform="translate(0,-860.36216)">
    <path
       inkscape:connector-curvature="0"
       style="fill:#56595b;fill-opacity:1;fill-rule:evenodd;stroke:none"
       d="m 41.779298,892.27307 c -0.732258,0 -1.464296,0.2807 -2.025391,0.84179 l -15.759765,15.75977 -0.246094,0 -15.7578127,-15.75977 c -0.151691,-0.15169 -0.3169004,-0.27994 -0.4902344,-0.39062 l 0,14.51758 0,1.91797 0,101.16991 c 0,5.6033 4.5119201,10.1152 10.1152341,10.1152 l 156.769535,0 c 5.60331,0 10.11523,-4.5119 10.11523,-10.1152 l 0,-101.16991 0,-1.91797 0,-14.91992 c -0.55082,0.10167 -1.07814,0.36525 -1.50586,0.79296 l -15.75976,15.75977 -0.2461,0 -15.75781,-15.75977 c -1.12219,-1.12218 -2.92859,-1.12218 -4.05078,0 l -15.75781,15.75977 -0.29297,0 -15.75977,-15.75977 c -1.12219,-1.12218 -2.92858,-1.12218 -4.05078,0 l -15.757812,15.75977 -0.136719,0 -15.757812,-15.75977 c -1.122187,-1.12218 -2.93054,-1.12218 -4.052735,0 l -15.757812,15.75977 -0.292969,0 -15.757812,-15.75977 c -0.561096,-0.56109 -1.293133,-0.84179 -2.025391,-0.84179 z"
       id="rect4160" />
    <g
       id="g4210"
       transform="translate(107.07617,1478.452)">
      <g
         id="g4225"
         transform="matrix(0.34341025,0,0,0.34341025,71.902357,-361.74487)"
         style="fill:#f5db80;fill-opacity:1">
        <rect
           style="opacity:1;fill:#f5db80;fill-opacity:1;fill-rule:evenodd;stroke:none;stroke-width:1px;stroke-linecap:butt;stroke-linejoin:miter;stroke-opacity:1"
           id="rect4194"
           width="137.22644"
           height="18.726841"
           x="-418.2012"
           y="-516.13312"
           rx="0" />
        <rect
           rx="0"
           y="-474.34744"
           x="-442.26529"
           height="18.726841"
           width="161.19833"
           id="rect4196"
           style="opacity:1;fill:#f5db80;fill-opacity:1;fill-rule:evenodd;stroke:none;stroke-width:1px;stroke-linecap:butt;stroke-linejoin:miter;stroke-opacity:1" />
        <rect
           style="opacity:1;fill:#f5db80;fill-opacity:1;fill-rule:evenodd;stroke:none;stroke-width:1px;stroke-linecap:butt;stroke-linejoin:miter;stroke-opacity:1"
           id="rect4198"
           width="116.24654"
           height="18.726841"
           x="-397.06094"
           y="-432.59998"
           rx="0" />
      </g>
    </g>
    <path
       id="path4223"
       inkscape:connector-curvature="0"
       d="m 138.22038,940.95017 c -0.18238,0.0912 -0.36476,0.27356 -0.27357,0.45595 l 0,5.745 -8.66309,0 c -1.915,0 -3.37405,0.45595 -4.55952,1.55024 -1.09429,1.00309 -1.64143,2.55332 -1.64143,4.46833 l 0,8.11595 0,0.0912 c 0,0.18238 -0.0912,0.45596 -0.0912,0.72953 0,1.18548 0.36476,2.27975 1.0031,3.19164 0.63832,1.0031 1.55023,1.64145 2.64452,1.91501 0.63832,0.18238 1.45905,0.27357 2.64452,0.27357 l 4.28595,0 c 2.09738,0 3.64763,-0.45594 4.83309,-1.45904 1.09428,-1.00309 1.64142,-2.46214 1.64142,-4.37713 l 0,-20.0619 c 0,-0.27357 -0.18237,-0.45596 -0.45594,-0.45596 l -1.18548,0 c -0.0912,-0.18237 -0.18238,-0.18237 -0.18238,-0.18237 m -34.56118,6.20094 c -0.27357,0.0912 -0.36476,0.36476 -0.27357,0.54714 0,0.0912 0.0912,0.0912 0.0912,0.18239 l 7.29524,9.39261 -7.47762,9.30141 c -0.18238,0.18239 -0.0912,0.45597 0.0912,0.63834 0.0912,0.0912 0.18239,0.0912 0.27357,0.0912 l 1.55024,0 c 0.18238,0 0.27357,-0.0912 0.36477,-0.18238 l 6.47451,-8.20713 6.47453,8.20713 c 0.0912,0.0912 0.18238,0.18238 0.36476,0.18238 l 1.55023,0 c 0.27358,0 0.45596,-0.18238 0.45596,-0.45594 0,-0.0912 0,-0.18239 -0.0912,-0.27359 l -7.38642,-9.3926 7.20404,-9.39262 c 0.18238,-0.18237 0.0912,-0.45595 -0.0912,-0.63833 -0.0912,-0.0912 -0.18238,-0.0912 -0.27358,-0.0912 l -1.55023,0 c -0.18238,0 -0.27357,0.0912 -0.36477,0.18238 l -6.29214,8.20714 -6.38332,-8.20715 c -0.0912,-0.0912 -0.18239,-0.18237 -0.36477,-0.18237 l -1.45904,0 c -0.0912,0.0912 -0.0912,0.0912 -0.18239,0.0912 m 40.85332,0 c -0.18238,0.0912 -0.36476,0.27357 -0.27357,0.45595 l 0,1.18547 c 0,0.27357 0.18238,0.45595 0.45595,0.45595 l 10.57809,0 c 1.27667,0 2.18858,0.27358 2.73571,0.82072 0.54715,0.54714 0.91192,1.45905 0.91192,2.64453 l 0,0.82071 -9.21025,0 c -1.64142,0 -3.00928,0.54715 -4.01237,1.55023 -1.0031,1.0031 -1.45905,2.37096 -1.45905,4.01239 l 0,2.9181 c 0,1.36785 0.45595,2.55332 1.18547,3.46522 0,0 0,0 0,0 1.0031,1.18548 2.55334,1.82381 4.37715,1.82381 l 5.745,0 c 1.73261,0 3.10047,-0.54714 4.01237,-1.55024 0.91191,-1.00309 1.36786,-2.46213 1.36786,-4.10356 l 0,-8.6631 c 0,-1.91499 -0.54714,-3.37403 -1.64142,-4.37714 -1.09429,-1.00309 -2.64453,-1.45904 -4.74191,-1.45904 l -9.93975,0 c 0,0 -0.0912,0 -0.0912,0 m -15.41118,2.09737 8.75428,0 0,12.12833 c 0,1.18549 -0.36476,2.00619 -1.0031,2.64453 -0.63833,0.63833 -1.55023,1.0031 -2.91809,1.18546 0,0 0,0 -0.0912,0 l -0.27357,0 c 0,0 0,0 -0.0912,0 -0.18238,0 -0.27357,0 -0.36475,0 l -4.01239,0 c -1.64143,0 -2.73572,-0.36475 -3.28286,-0.9119 -0.54714,-0.54714 -0.9119,-1.55023 -0.9119,-3.19165 l 0,-7.93358 c 0,-1.55023 0.54714,-2.64452 1.73262,-3.46523 l 0,0 c 0.54714,-0.18238 1.36785,-0.45596 2.46214,-0.45596 m 20.42665,6.38333 9.30143,0 0,6.38334 c 0,1.18547 -0.27357,2.00619 -0.82072,2.55333 -0.54713,0.54715 -1.27666,0.8207 -2.46213,0.8207 l -5.92739,0 c -0.0912,0 -0.27357,0 -0.54714,-0.0912 -1.00309,-0.18236 -1.73262,-0.54713 -2.18857,-1.09428 -0.45595,-0.54713 -0.72952,-1.27666 -0.72952,-2.27975 l 0,-2.8269 c 0,-1.0031 0.27357,-1.82381 0.72952,-2.37095 0.45595,-0.54715 1.09429,-0.91192 2.09738,-1.0943 0,0 0,0 0,0 0.27358,0 0.45596,0 0.54714,0"
       style="fill:#f9de81;fill-opacity:1;stroke:none;stroke-opacity:1" />
    <path
       style="fill:#f5db80;fill-opacity:1;fill-rule:evenodd;stroke:none"
       d="m 184.5,1003.879 -177.0000009,0 0,6.459 c 0,5.6033 4.5099679,10.1133 10.1132819,10.1133 l 156.771479,0 c 5.60332,0 10.11524,-4.51 10.11524,-10.1133 l 0,-6.459 z"
       id="path4239"
       inkscape:connector-curvature="0" />
  </g>
  <style
     id="style4358"
     type="text/css">
	.st0{fill:#F59812;}
</style>
</svg>
