<?xml version="1.0" encoding="utf-8"?>
<!-- Generator: Adobe Illustrator 23.0.5, SVG Export Plug-In . SVG Version: 6.00 Build 0)  -->
<svg version="1.1" id="图层_1" xmlns="http://www.w3.org/2000/svg" xmlns:xlink="http://www.w3.org/1999/xlink" x="0px" y="0px"
	 viewBox="0 0 192 192" style="enable-background:new 0 0 192 192;" xml:space="preserve">
<style type="text/css">
	.st0{display:none;opacity:0.63;fill:none;stroke:#B1B5BD;enable-background:new    ;}
	.st1{fill:#FFFFFF;}
	.st2{fill:#73ADA4;}
	.st3{fill:#74ADA4;}
	.st4{fill:#75AEA5;}
</style>
<circle class="st0" cx="96" cy="96" r="88"/>
<circle class="st1" cx="96" cy="96" r="88"/>
<g>
	<path class="st2" d="M145.5,100.6c0,0.6,0,1.2,0,1.9c-0.3,1.3-0.8,2.5-1,3.8c-0.6,3.7-1.8,7.2-3.4,10.6
		c-2.5,5.4-5.8,10.2-10.1,14.4c-2.1,2.1-4.6,2.7-7.4,1.8c-0.3-0.1-0.7-0.1-1-0.2c-2.2-0.5-4.6-0.8-6.7-1.7
		c-4.1-1.8-8.2-3.9-12.2-6.2c-5.5-3.2-10.5-7.1-15.2-11.4c-3-2.7-5.8-5.5-8.5-8.4c-2.4-2.6-4.6-5.4-6.9-8.1
		c-0.7-0.8-0.7-1.5,0.1-2.4c0.9-1,1.7-2.2,2.6-3.2c4.4-5.4,9.2-10.3,14.6-14.8c1.2-1,1.6-0.9,1.9,0.6c0.4,2.1,0.6,4.2,1,6.3
		c0.1,0.6,0.4,1.1,0.8,2c6.9-10.4,13.6-20.2,20.1-30.4c-0.5-0.1-0.7-0.2-0.9-0.2c-3.4,0.2-6.7,0.5-10.1,0.7
		c-4.6,0.3-9.3,0.6-13.9,0.9c-3,0.2-5.9,0.3-8.9,0.5c-0.8,0.1-1.6,0.4-2.5,0.6c0,0.1,0,0.3,0,0.4c2.2,1.5,4.4,3.1,6.6,4.6
		c1.3,0.9,1.4,1.5,0.2,2.5c-2,1.8-4.2,3.4-6.1,5.3c-4.2,4.3-8.2,8.7-12.3,13c-0.7,0.8-1.5,0.8-2-0.2c-1.2-2.5-2.4-5.1-3.4-7.8
		c-0.8-2.3-1.1-4.8-1.8-7.2c-0.8-2.8-0.2-5.2,1.8-7.3c3.2-3.3,6.9-6,10.9-8.2c2.1-1.2,4.4-2.3,6.7-3.1c3.2-1.1,6.4-2.4,9.6-2.7
		c6-0.6,12.1-0.9,18.1,0.6c3.5,0.9,6.9,1.8,10.2,3.3c5.4,2.5,10.1,5.7,14.4,9.9c3.3,3.2,6.1,6.8,8.3,10.8c1.4,2.5,2.6,5.1,3.7,7.8
		c0.6,1.4,0.9,2.9,1.3,4.3c0.5,1.9,0.9,3.7,1.3,5.6c0,0.7,0,1.4,0,2.1c0,0.3,0,0.5,0,0.8c0,2.5,0,5,0,7.5
		C145.5,100.1,145.5,100.3,145.5,100.6z"/>
	<path class="st3" d="M90.3,145.4c-1.7-0.4-3.4-0.7-5.1-1.2c-2.3-0.6-4.6-1.2-6.8-2c-2.2-0.8-4.4-1.8-6.5-3c-4-2.2-7.8-5-11-8.3
		c-1.9-2.1-2.5-4.5-1.8-7.2c0.1-0.4,0.2-0.8,0.3-1.2c0.5-4.4,2.1-8.4,4-12.3c0.1-0.2,0.2-0.3,0.3-0.5c1.3-3.2,2.1-2.3,3.7-0.4
		c5.2,6.2,11,11.8,17.2,17c5.2,4.3,10.7,8.4,16.8,11.4c3,1.5,5.9,2.9,8.9,4.3c0.7,0.3,0.7,0.8,0.2,1.2c-0.4,0.4-1,0.7-1.5,0.8
		c-2.1,0.4-4.2,0.8-6.4,1.2c-0.1,0-0.2,0.1-0.3,0.2c-0.6,0-1.2,0-1.9,0c-0.1,0-0.2,0-0.3,0c-2.7,0-5.3,0-8,0c-0.3,0-0.5,0-0.8,0
		C91,145.4,90.7,145.4,90.3,145.4z"/>
	<path class="st4" d="M46.8,96c0.1-2.5,0-5,0.4-7.4c0.3-2.2,1.1-4.4,1.7-6.6c0.1-0.3,0.5-0.5,0.8-0.7c0.2,0.3,0.5,0.6,0.6,0.9
		c1.3,2.7,2.5,5.5,3.8,8.1c0.8,1.6,1.9,3,2.5,4.6c0.3,0.7,0.1,1.8-0.3,2.5c-2.3,3.9-4.5,7.9-6.1,12.2c-0.3,0.9-1.1,1.1-1.5,0.2
		c-0.5-1-0.8-2.2-1-3.4c-0.5-3.4-0.9-6.9-1.4-10.4C46.6,96.1,46.7,96.1,46.8,96z"/>
</g>
</svg>
