<svg xmlns="http://www.w3.org/2000/svg" viewBox="0 0 192 192"><path fill="#56595b" d="M150 153.89h12.53a3.85 3.85 0 0 0 3.86-3.85v-14.61H142l4.31 15.63a3.86 3.86 0 0 0 3.69 2.83Z"/><path fill="#9abeff" d="m168.52 56.77-2.13-.19V56c0-7.81-9.43-12.93-14.66-12.93l-51.82-.57-.37 98.19h66.85v-55.4l.63-.51a11.57 11.57 0 0 0 4.34-9V60.49a3.85 3.85 0 0 0-2.84-3.72Z"/><circle cx="150.04" cy="123.55" r="9.7" fill="#fff"/><path fill="#728dbe" d="M96.8 130.35h27.09a9 9 0 0 1 8.89 7.57l.44 2.77H96.8Z"/><path fill="#fff" d="M153.31 107H116V51.23h30.52c6.2 0 12.27 4.63 12.54 10.81l.7 38.27a6.43 6.43 0 0 1-6.45 6.69Z"/><circle cx="79.25" cy="83.59" r="23.43" fill="#fff"/><path fill="#ff837d" d="M19.51 85.37c-.07-33.57 23.07-58.87 53-61.94 17.3-1.77 32.52 2.95 45.8 13.9 4.9 4 9.36 8.46 12.41 14 9.63 17.42 11.12 35.25 3.14 53.78-4.44 10.31-12 17.88-20.5 24.83-6.24 5.08-12.65 10-18.49 15.5-5 4.72-9.47 10.08-11.07 17.05-.24 1-.36 2.09-.61 3.12a4 4 0 0 1-3.9 3.34 4 4 0 0 1-4-3.26c-.55-2-.84-4-1.5-5.94a30.79 30.79 0 0 0-8.4-12.42c-7.27-6.72-14.7-13.33-22.39-19.5-15.06-12.1-23.17-27.37-23.49-42.46Zm39.48-4c0 11.91 10.5 20.08 20.85 19.72 10.71-.37 19.74-9.14 19.7-19.76 0-10.87-9.28-19.81-20.45-19.75S58.91 70.55 59 81.34Z"/></svg>