<svg xmlns="http://www.w3.org/2000/svg" viewBox="0 0 192 192"><title>Yet Another Call Blocker</title><circle cx="97.06" cy="96.87" r="88" fill="#96dfd3"/><path d="M70.49,107.4l-10.7,6s-.14,21.71-.24,23.95,2.67,5.74,6.12,3.7c.78-.46,2.64-1.52,4.6-2.73.62-1.07,1.46-5.74,1.46-5.74l-.91-22Z" fill="#fff" fill-opacity="0.5"/><path d="M70.27,57c0-3.59,2.39-4.39,4.39-3.19,1.19.79,20.74,11.56,20.74,11.56V94.49l24.73-14.76S138.87,90.5,141.27,92.1c2,1.19,1.59,4,0,5.18-1.6.4-71,41.08-71,41.08Z" fill="#fff"/></svg>