<?xml version="1.0" encoding="utf-8"?>
<!-- Generator: Adobe Illustrator 24.1.1, SVG Export Plug-In . SVG Version: 6.00 Build 0)  -->
<svg version="1.1" id="Layer_1" xmlns="http://www.w3.org/2000/svg" xmlns:xlink="http://www.w3.org/1999/xlink" x="0px" y="0px"
	 viewBox="0 0 192 192" style="enable-background:new 0 0 192 192;" xml:space="preserve">
<style type="text/css">
	.st0{fill:#FFFFFF;}
	.st1{fill:#FF837D;}
	.st2{fill:#9ABEFF;}
	.st3{fill:#F9DE81;}
	.st4{fill:#98DC9A;}
	.st5{fill:#71A372;}
	.st6{fill:#FEC008;}
</style>
<path class="st0" d="M29.5,19.5h133c5.5,0,10,4.5,10,10v133c0,5.5-4.5,10-10,10h-133c-5.5,0-10-4.5-10-10v-133
	C19.5,24,24,19.5,29.5,19.5z"/>
<path class="st1" d="M108,63.1c2.3-0.5,4.4-1.4,6.8-1.6c12.7-0.9,25.2,6.9,29.9,18.7c2.8,6.8,3.2,13.9,2.5,21.1
	c-1.1,12.5-5.1,24.1-11.4,35c-0.1,0.2-0.3,0.4-0.4,0.6c-0.1,0.1-0.2,0.2-0.3,0.3c0,0,0,0,0,0c-0.3,0.1-0.7,0.2-1,0.3
	c-7.9,3.8-16.2,5.2-24.8,3.5c-15.2-3-25.5-11.8-31-26.3c-1.5-3.9-2-8.1-2.3-12.2c0-0.7,0.1-1.5,0.1-2.2c0.2-7.6,2.5-14.6,6.7-21
	c2.7-4.1,6.2-7.5,10-10.5c1.1,0,2.2,0.5,3.4,0.2c0.6,0.1,1.3,0,1.9-0.1C102.2,68.2,105.2,65.9,108,63.1z"/>
<path class="st2" d="M92.9,68.8c-3.9,3-7.3,6.4-10,10.5c-4.2,6.4-6.5,13.3-6.7,21c0,0.7-0.1,1.5-0.1,2.2c-4.8,2.7-8.9,6.3-12.3,10.7
	c-5.2,6.8-7.9,14.6-8.3,23.1c-5.8-10-9.7-20.7-11.1-32.2c-1-8.1-0.9-16.2,2.3-23.9C51,69.9,59,64.1,69.9,61.9
	c3.8-0.8,7.5-0.5,11.2,0.3C84.6,65.2,88.3,67.7,92.9,68.8z"/>
<path class="st3" d="M55.5,136.4c0.4-8.6,3.1-16.3,8.3-23.1c3.3-4.4,7.5-7.9,12.3-10.7c0.3,4.2,0.8,8.3,2.3,12.2
	c5.5,14.5,15.8,23.3,31,26.3c8.6,1.7,16.9,0.3,24.8-3.5c0.3-0.1,0.6-0.2,1-0.3c0,0.2,0,0.4-0.1,0.6c-2.9,4.8-6.3,9.1-10.6,12.9
	c-4,3.5-8.5,4.5-13.6,3.8c-3.2-0.4-6.3-1-9.3-2.1c-4-1.4-7.8-1.4-11.8,0c-4.1,1.5-8.4,2.2-12.9,2.3c-2.8,0-5.3-0.8-7.6-2.2
	c-3.3-2.1-6-4.9-8.4-8C59,141.8,57.2,139.2,55.5,136.4z"/>
<path class="st4" d="M92.9,68.8c-4.6-1.1-8.3-3.7-11.8-6.6c-1.4-1.9-3.1-3.6-4.3-5.7C73,50.4,71,43.9,72.5,36.8
	c1-4.9,0.6-4.9,5.6-3.5c8.7,2.5,14.1,8.8,17.6,16.8c0.7,1.5,1.1,3.1,1.5,4.7c0.2,1.5,0.5,2.9,0.6,4.4c0.2,3.4-0.4,6.7-1.5,9.9
	C95.1,69.3,94,68.9,92.9,68.8z"/>
<path class="st5" d="M96.3,69.1c1.2-3.2,1.7-6.5,1.5-9.9c-0.1-1.5-0.4-2.9-0.6-4.4c1.6-2.3,3.1-4.7,5.4-6.5c2.4-2,5.1-3.4,8.3-3.9
	c1-0.2,1.4,0.1,1.7,1.1c1.4,4.7,0.4,9.1-1.7,13.4c-0.8,1.5-1.9,2.8-2.8,4.2c-2.8,2.7-5.8,5.1-9.8,5.8C97.6,69.1,96.9,69.2,96.3,69.1
	z"/>
<path class="st6" d="M135.1,137.2c0.1-0.1,0.2-0.2,0.3-0.3C135.4,137.1,135.4,137.3,135.1,137.2z"/>
</svg>
