<?xml version="1.0" encoding="UTF-8" standalone="no"?>
<svg
   sodipodi:docname="esound.svg"
   inkscape:version="1.1 (c68e22c387, 2021-05-23)"
   version="1.1"
   id="svg2"
   viewBox="0 0 192 192"
   height="192"
   width="192"
   inkscape:export-filename="D:\Projects\delta\android\app\src\main\res\drawable-nodpi\esound.png"
   inkscape:export-xdpi="96"
   inkscape:export-ydpi="96"
   xmlns:inkscape="http://www.inkscape.org/namespaces/inkscape"
   xmlns:sodipodi="http://sodipodi.sourceforge.net/DTD/sodipodi-0.dtd"
   xmlns="http://www.w3.org/2000/svg"
   xmlns:svg="http://www.w3.org/2000/svg"
   xmlns:rdf="http://www.w3.org/1999/02/22-rdf-syntax-ns#"
   xmlns:cc="http://creativecommons.org/ns#"
   xmlns:dc="http://purl.org/dc/elements/1.1/">
  <sodipodi:namedview
     inkscape:document-rotation="0"
     inkscape:window-maximized="0"
     inkscape:window-y="0"
     inkscape:window-x="568"
     inkscape:window-height="1040"
     inkscape:window-width="1291"
     units="px"
     showgrid="false"
     inkscape:current-layer="layer2"
     inkscape:document-units="px"
     inkscape:cy="52.325902"
     inkscape:cx="92.454212"
     inkscape:zoom="2.8284271"
     inkscape:pageshadow="2"
     inkscape:pageopacity="0.0"
     borderopacity="1.0"
     bordercolor="#666666"
     pagecolor="#ffffff"
     id="base"
     inkscape:snap-bbox="false"
     inkscape:object-paths="true"
     inkscape:snap-nodes="true"
     showguides="true"
     inkscape:guide-bbox="true"
     inkscape:snap-object-midpoints="true"
     inkscape:snap-center="true"
     inkscape:snap-global="false"
     inkscape:snap-intersection-paths="true"
     inkscape:snap-smooth-nodes="true"
     inkscape:snap-midpoints="true"
     inkscape:pagecheckerboard="0" />
  <defs
     id="defs4">
    <rect
       x="22.980971"
       y="13.081476"
       width="111.72287"
       height="97.934287"
       id="rect27227" />
    <rect
       x="10.606602"
       y="6.0104077"
       width="73.539106"
       height="53.740116"
       id="rect17727" />
  </defs>
  <metadata
     id="metadata7">
    <rdf:RDF>
      <cc:Work
         rdf:about="">
        <dc:format>image/svg+xml</dc:format>
        <dc:type
           rdf:resource="http://purl.org/dc/dcmitype/StillImage" />
      </cc:Work>
    </rdf:RDF>
  </metadata>
  <g
     transform="translate(0,-860.36216)"
     id="layer1"
     inkscape:groupmode="layer"
     inkscape:label="Calque 1">
    <rect
       style="fill:#708cbd;fill-opacity:1;fill-rule:evenodd;stroke:none;stroke-opacity:1"
       width="153"
       height="153"
       x="19.5"
       y="879.86218"
       rx="10"
       id="rect980" />
  </g>
  <g
     inkscape:groupmode="layer"
     id="layer2"
     inkscape:label="Calque 2">
    <path
       style="fill:#fefefe;stroke-width:0.789012"
       d="m 47.220758,140.36498 c -3.983222,-3.98323 0.469752,-12.37303 9.716411,-18.30659 3.261652,-2.093 3.634227,-2.57453 2.488236,-3.21585 -1.664435,-0.93147 -0.623302,-1.75038 3.772852,-2.96756 1.627337,-0.45057 2.958796,-1.16059 2.958796,-1.57782 0,-1.4248 4.334205,-0.74265 7.773407,1.22344 1.888611,1.07966 4.03936,1.96302 4.779441,1.96302 0.74008,0 2.472936,-1.59936 3.850789,-3.55414 2.530174,-3.58958 5.079773,-5.12595 13.184324,-7.94477 3.778591,-1.31421 9.388096,-5.97966 11.208936,-9.322523 0.76961,-1.41291 0.94715,-1.42319 3.40461,-0.19726 3.27423,1.63341 4.45084,1.62932 5.37309,-0.0186 0.65047,-1.16232 0.79607,-1.1173 1.2759,0.39451 0.56088,1.7672 3.59134,2.43825 3.59134,0.79525 0,-0.50296 0.74081,-0.24088 1.65329,0.5849 1.62831,1.4736 1.67513,1.46924 3.09901,-0.28918 0.84562,-1.04429 1.65247,-1.45083 1.94383,-0.97941 0.79058,1.2792 3.56103,0.9441 3.56103,-0.43071 0,-0.87864 0.458,-1.09133 1.58192,-0.73461 1.00868,0.32014 1.73777,0.0959 2.01206,-0.61887 0.76061,-1.98212 4.11242,-0.65011 5.03682,2.00163 1.04997,3.011953 1.05483,2.955573 -0.25531,2.955573 -0.85862,0 -1.00634,1.07539 -0.68966,5.0206 0.44404,5.53186 -0.47404,7.08435 -2.8942,4.89413 -1.32776,-1.2016 -1.51707,-1.14194 -2.88372,0.90896 l -1.46267,2.19501 -0.52377,-2.36704 c -0.32304,-1.4599 -0.55955,0.37669 -0.61713,4.79228 -0.0724,5.55209 0.34948,8.63878 1.87918,13.74951 1.08489,3.6246 1.97253,7.39512 1.97253,8.37893 0,1.82039 -2.62357,4.24526 -4.59314,4.24526 -2.52747,0 -6.31321,-2.63527 -7.93753,-5.52537 -2.03363,-3.61836 -3.98387,-12.11367 -4.0749,-17.75049 -0.0556,-3.44598 -0.16323,-3.69552 -0.85037,-1.97253 -0.43266,1.08489 -0.7002,4.09202 -0.59454,6.6825 l 0.19213,4.70997 -4.63013,2.28335 c -9.07163,4.47368 -25.609978,5.57313 -39.589388,2.63185 -5.696396,-1.19852 -7.337918,-0.64573 -12.483784,4.20398 -5.402622,5.0917 -9.29212,6.09629 -12.22969,3.15872 z m 12.624196,-0.71888 c 0,-0.99887 4.376859,-4.58449 6.367302,-5.21624 4.130323,-1.31091 1.505127,2.95848 -2.988657,4.8605 -2.99709,1.26852 -3.378645,1.3087 -3.378645,0.35574 z m 75.745176,-3.49717 c 0,-1.01696 -0.72327,-3.94617 -1.60725,-6.50935 -2.49506,-7.23458 -2.78481,-12.82865 -0.81353,-15.70651 l 1.62137,-2.36704 0.006,3.94506 c 0.003,2.16978 0.88757,6.78551 1.96589,10.25716 2.18209,7.02525 2.44422,9.8761 1.03744,11.28288 -1.44779,1.44779 -2.20923,1.13683 -2.20923,-0.9022 z M 75.757916,113.34131 c -1.553163,-2.53033 -3.66186,-11.52784 -2.884015,-12.30567 0.220311,-0.22032 0.91819,0.28361 1.550839,1.11985 1.079819,1.42729 1.15399,1.35128 1.210954,-1.24112 0.03337,-1.518853 0.508924,-3.812443 1.056776,-5.096863 l 0.996097,-2.33533 2.404115,5.09687 c 1.322263,2.803283 3.122681,5.969913 4.000929,7.036973 l 1.596816,1.9401 -3.651842,4.16478 c -2.008514,2.29063 -3.889176,4.16926 -4.179251,4.17474 -0.290074,0.006 -1.235712,-1.14397 -2.101418,-2.55433 z M 122.45215,95.588997 c -0.72412,-1.11031 -1.10255,-1.18778 -1.92934,-0.39497 -1.4846,1.42359 -2.29095,1.21531 -2.29095,-0.59176 0,-2.05894 -1.41861,-2.00286 -3.70654,0.14654 l -1.83571,1.72456 0.52455,-2.71082 c 0.51338,-2.65312 0.49126,-2.68144 -1.03881,-1.33006 -2.06299,1.82204 -2.56929,1.74175 -2.02964,-0.32186 0.37558,-1.43624 0.17886,-1.63298 -1.25739,-1.25739 -1.97308,0.51597 -2.22815,-0.35569 -0.51911,-1.77405 1.86245,-1.545703 1.38714,-2.446629 -0.98627,-1.869419 -2.11069,0.513309 -2.13217,0.485164 -0.78901,-1.033362 1.6918,-1.912684 1.74507,-2.620309 0.19725,-2.620309 -1.4067,0 -1.42772,-0.272352 -0.3269,-4.236909 0.57886,-2.08476 0.59132,-3.309883 0.0393,-3.861931 -0.55205,-0.552048 -0.96944,-0.08402 -1.31574,1.475366 -1.61099,7.254234 -2.70576,8.100244 -4.51659,3.49029 -1.340378,-3.412225 -2.190637,-3.865536 -3.742711,-1.995396 -0.540229,0.650935 -1.334117,1.183518 -1.764192,1.183518 -0.742304,0 -0.591693,-1.569021 0.624843,-6.509351 0.430895,-1.749855 0.264532,-2.169783 -0.859582,-2.169783 -0.902168,0 -0.169188,-0.89594 2.077801,-2.539744 l 3.471691,-2.539744 -2.367043,-0.488296 -2.367036,-0.488296 2.20622,-0.617197 c 1.213434,-0.339456 4.157709,-0.455362 6.542859,-0.257565 4.96674,0.41188 5.97265,-0.346802 3.34354,-2.521808 l -1.83546,-1.518442 3.07408,0.478912 c 2.97732,0.463838 3.06169,0.414064 2.68027,-1.581257 -0.35054,-1.833725 -0.22635,-1.970538 1.12987,-1.244708 0.83805,0.448505 2.11732,0.542123 2.84283,0.208041 0.72551,-0.334083 1.8517,-0.627835 2.50264,-0.652781 0.65093,-0.02495 2.31368,-1.7363 3.695,-3.803006 1.38131,-2.066705 2.73432,-3.397084 3.00668,-2.956396 0.33461,0.541411 0.98626,0.53844 2.00946,-0.0092 1.37404,-0.735359 1.47007,-0.589414 1.03701,1.575891 -0.44788,2.239376 -0.32876,2.386301 1.93458,2.386301 1.32651,0 5.24889,-1.046054 8.7164,-2.324566 8.17735,-3.015086 8.46224,-2.701024 6.25407,6.894455 -1.70325,7.401335 -2.43854,8.642885 -3.25948,5.503626 -0.36511,-1.396192 -0.66247,-1.559882 -1.43334,-0.789012 -1.56056,1.560556 -2.23508,1.139744 -2.23508,-1.394381 0,-1.87631 -0.34246,-2.367036 -1.65189,-2.367036 -0.92439,0 -1.81472,0.622667 -2.02162,1.413858 -0.28146,1.076295 -0.97686,1.342981 -2.91262,1.116992 -1.70853,-0.199462 -3.181,0.220443 -4.48772,1.27977 -2.21202,1.793219 -1.71244,3.066014 0.69725,1.77639 2.93828,-1.572518 6.37327,-1.055091 7.35907,1.10853 1.08514,2.381618 3.35806,3.953449 6.81462,4.712636 2.07428,0.455592 2.41217,0.783742 1.69578,1.646937 -1.06895,1.288 -0.35821,2.72513 1.34771,2.72513 0.89224,0 0.71908,0.425136 -0.63832,1.567247 l -1.86269,1.567254 1.97253,1.571255 1.97253,1.571255 -2.16978,0.01752 c -1.86131,0.01507 -2.16979,0.340987 -2.16979,2.292562 0,1.657691 -0.456,2.394258 -1.6805,2.71447 -1.15568,0.302216 -1.52685,0.839889 -1.18848,1.721649 0.38368,0.99986 0.14565,1.17225 -1.08104,0.78291 -1.20872,-0.38363 -1.57306,-0.13857 -1.57306,1.05806 0,1.16886 -0.39362,1.45439 -1.57803,1.14466 -1.13128,-0.29584 -1.57802,-0.0242 -1.57802,0.95949 0,1.11189 -0.21793,1.19128 -1.14896,0.4186 -1.33058,-1.10429 -2.7961,-0.46005 -2.7961,1.22916 0,0.94833 -0.31606,0.99557 -1.70121,0.25425 -1.43369,-0.76728 -1.89958,-0.6475 -2.96255,0.76172 -1.18075,1.56536 -1.31886,1.58394 -2.16212,0.29094 z m 6.43137,-14.005431 c 0,-1.812519 -0.39285,-2.42308 -1.67692,-2.606273 -0.92232,-0.131584 -2.25308,0.336892 -2.95724,1.041054 -1.88894,1.888943 -0.31291,4.503785 2.51745,4.176794 1.77155,-0.204661 2.11671,-0.630515 2.11671,-2.611575 z M 118.0745,77.169721 c 0.26874,-2.304294 -1.59076,-4.277117 -3.38315,-3.589311 -1.43617,0.551117 -1.57649,3.754073 -0.22372,5.106842 1.50434,1.504347 3.34473,0.730026 3.60687,-1.517531 z m -6.80279,-3.476277 c 0.85338,-1.084892 2.05841,-1.972531 2.67785,-1.972531 0.61943,0 1.12625,-0.355056 1.12625,-0.789012 0,-1.260826 -3.2909,-0.911546 -4.8692,0.516795 -1.34643,1.218503 -2.03239,4.217278 -0.96469,4.217278 0.26301,0 1.17641,-0.887639 2.02979,-1.97253 z m 19.58434,-2.818194 c 0,-2.609509 -2.34113,-4.387713 -3.82418,-2.904662 -1.26487,1.264857 -1.13563,2.982119 0.34776,4.621252 1.71364,1.893551 3.47642,1.023121 3.47642,-1.71659 z"
       id="path4569" />
  </g>
  <style
     type="text/css"
     id="style853">
	.st0{fill:#FFFFFF;}
</style>
</svg>
