<svg width="192" height="192" version="1.1" viewBox="0 0 192 192" xmlns="http://www.w3.org/2000/svg">
 <rect x="20" y="20" width="152" height="152" rx="9.9346" fill="#56595b"/>
 <path class="st1" d="m101.74 62.12c4.1 0.5 7.8 1.2 11.3 2.3 16.6 5.6 28.8 16.1 33.9 33.1 5.3 17.8 0.5 33.5-12.7 46.4-11.9 11.6-26.6 16.2-43.2 14.9-14.1-1.1-26.1-6.7-35.7-17.1-18.2-19.7-16.1-49.6 4.6-67 6.2-5.2 13.2-8.8 21-10.9 0.4-0.1 0.7-0.2 1.2-0.4-2.8-3.5-5.5-6.9-8.3-10.3-1.6-2-3.3-4.1-4.9-6.1-1.3-1.6-1.2-2.3 0.5-3.7 1.8-1.5 2.6-1.5 3.8 0.1 4.8 5.9 9.5 11.8 14.2 17.7 0.6 0.8 1.3 1 2.3 1.1 3.7 0.3 5.8-1.5 8-4.3 5.9-7.9 12.2-15.6 18.3-23.4 1.6-2 2.6-2.4 5.3 0.8 0.4 1-0.1 1.7-0.7 2.4-5.8 7.4-11.7 14.8-17.5 22.3-0.3 0.6-0.7 1.2-1.4 2.1zm-25.5 71.5c0.6 0.4 1.3 0.3 2 0.4 11.5 2 23 3.1 34.7 2.3 5.9-0.4 8.8-2.8 9.9-8.5 2-9.5 2-19.1 1.3-28.8-0.1-1-0.1-2.1-0.5-3 0.2-1.8-0.2-3.5-0.5-5.3-0.9-4.3-3.5-7-7.7-8.1-1.9-0.5-3.8-0.5-5.7-0.5-7.6-0.2-15.1 0.4-22.6 1.5-6.6 1-13.2 2.3-19.6 4.4-4 1.3-6.5 4.1-7.4 8.1-0.3 1.6-0.5 3.2-0.6 4.9-0.5 7.5-0.5 14.9 1 22.3 0.9 4.3 3.4 7.3 7.8 8.5 2.6 0.6 5.2 1.4 7.9 1.8z" fill="#f8c18c"/>
 <path class="st0" d="m123.76 96.02c0.32852 1.0092 0.36626 1.9316 0.43562 2.951 0.7 9.6879 0.54895 19.477-1.351 29.064-1.2 5.7522-4.1 8.1742-9.9 8.5778-11.7 0.90824-23.2-0.30275-34.7-2.3211-0.46559-0.11187-0.7532-0.12499-2-0.40366-2.6-1.4128-4.4-3.532-4.9-6.6604-1.2-7.8714-1.3-15.642-0.2-23.513 0.3-2.1192 1.5-3.4311 3.3-4.2385 0.8-0.40366 1.7-0.70641 2.6-0.90824 8.3-2.5229 16.8-3.9357 25.4-4.743 5.7-0.50458 11.4-0.70641 17.2-0.10092 1.6 0.20183 3.1154 0.98471 4.1154 2.2966z" fill="#56595b"/>
 <path class="st2" d="m123.76 96.02c-1.0018-1.3093-2.4043-2.0142-4.0072-2.2157-5.7102-0.60427-11.42-0.40285-17.231 0.10071-8.6154 0.8057-17.131 2.2157-25.446 4.7335-0.90161 0.30214-1.8032 0.60427-2.6047 0.90641-1.8032 0.8057-3.0054 2.2157-3.3059 4.2299-1.102 7.8556-1.0018 15.711 0.20036 23.466 0.5009 3.0214 2.3041 5.1363 4.9088 6.647-2.7048-0.50357-5.3095-1.2086-7.9142-1.9135-4.3077-1.2086-6.9124-4.1292-7.814-8.5606-1.5027-7.4527-1.5027-14.905-1.0018-22.459 0.10018-1.6114 0.20036-3.3235 0.60108-4.9349 0.90161-4.1292 3.3059-6.8484 7.4133-8.1577 6.4115-2.115 13.023-3.4242 19.635-4.4313 7.5134-1.1078 15.027-1.7121 22.641-1.5107 1.9034 0.10071 3.907 0 5.7102 0.50356 4.2075 1.1078 6.8122 3.8271 7.7138 8.1577 0.30054 1.9135 0.70126 3.6256 0.5009 5.4385z" fill="#fcecdc"/>
</svg>
