<svg xmlns="http://www.w3.org/2000/svg" width="192" height="192"><path d="M155.883 91.002a4 4 0 0 0-1.672.42l-24 12A4 4 0 0 0 128 107l-.003 22.646-32 17.777-34.057-18.92a4 4 0 0 0-1.943-.504h-24a4 4 0 0 0-4 4v12a4 4 0 0 0 1.941 3.43l60 36a4 4 0 0 0 4.117 0l60-36a4 4 0 0 0 1.942-3.43L160 95a4 4 0 0 0-4.118-3.998zM96.162 8.004a4 4 0 0 0-2.22.566l-60 36A4 4 0 0 0 32 48v49c0 2.974 3.13 4.908 5.79 3.578l24-12A4 4 0 0 0 64 85V62.354l32-17.777 34.057 18.92a4 4 0 0 0 1.943.504h24a4 4 0 0 0 4-4V48a4 4 0 0 0-1.941-3.43l-60-36a4 4 0 0 0-1.897-.566Z" style="color:#000;font-variant-ligatures:normal;font-variant-position:normal;font-variant-caps:normal;font-variant-numeric:normal;font-variant-alternates:normal;font-feature-settings:normal;text-indent:0;text-decoration:none;text-decoration-line:none;text-decoration-style:solid;text-decoration-color:#000;text-transform:none;text-orientation:mixed;dominant-baseline:auto;white-space:normal;shape-padding:0;isolation:auto;mix-blend-mode:normal;solid-color:#000;fill:#8c72bd;color-rendering:auto;image-rendering:auto;shape-rendering:auto"/><path d="M155.88 44.002a4 4 0 0 0-1.855.518l-120 68a4 4 0 0 0-2.028 3.48v28c0 3.065 3.306 4.992 5.973 3.48l120-68a4 4 0 0 0 2.027-3.48V48a4 4 0 0 0-4.117-3.998z" style="color-rendering:auto;color:#000;dominant-baseline:auto;fill:#bd9aff;font-feature-settings:normal;font-variant-alternates:normal;font-variant-caps:normal;font-variant-ligatures:normal;font-variant-numeric:normal;font-variant-position:normal;image-rendering:auto;isolation:auto;mix-blend-mode:normal;shape-padding:0;shape-rendering:auto;solid-color:#000;text-decoration-color:#000;text-decoration-line:none;text-decoration-style:solid;text-indent:0;text-orientation:mixed;text-transform:none;white-space:normal"/></svg>