<?xml version="1.0" encoding="UTF-8" standalone="no"?>
<svg
   version="1.1"
   viewBox="0 0 192 192"
   xml:space="preserve"
   id="svg4"
   sodipodi:docname="catalone2.svg"
   inkscape:version="1.2.2 (b0a8486541, 2022-12-01)"
   xmlns:inkscape="http://www.inkscape.org/namespaces/inkscape"
   xmlns:sodipodi="http://sodipodi.sourceforge.net/DTD/sodipodi-0.dtd"
   xmlns="http://www.w3.org/2000/svg"
   xmlns:svg="http://www.w3.org/2000/svg"><defs
   id="defs8" /><sodipodi:namedview
   id="namedview6"
   pagecolor="#505050"
   bordercolor="#eeeeee"
   borderopacity="1"
   inkscape:showpageshadow="0"
   inkscape:pageopacity="0"
   inkscape:pagecheckerboard="0"
   inkscape:deskcolor="#505050"
   showgrid="false"
   inkscape:zoom="2.75817"
   inkscape:cx="-43.144549"
   inkscape:cy="153.36256"
   inkscape:window-width="1918"
   inkscape:window-height="1053"
   inkscape:window-x="0"
   inkscape:window-y="0"
   inkscape:window-maximized="1"
   inkscape:current-layer="svg4" />
	 <path
   style="fill:#728dbe;stroke-linecap:round;stroke-linejoin:round;stop-color:#000000"
   d="m 29.935,20 h 132.13 c 5.50399,0 9.935,4.43101 9.935,9.935 v 132.13 c 0,5.50399 -4.43101,9.935 -9.935,9.935 H 29.935 C 24.43101,172 20,167.56899 20,162.065 V 29.935 C 20,24.43101 24.43101,20 29.935,20 Z"
   id="path1382" /><path
   id="path6238"
   style="fill:#54688c;fill-opacity:1;stroke:none;stroke-width:1;stroke-linecap:round;stroke-linejoin:round;stroke-dasharray:none;stroke-opacity:0.429344;stop-color:#000000"
   d="m 106.60553,133.81775 c 4.0608,1.48961 10.72235,26.59154 5.53753,23.7552 -5.40765,-2.95824 -5.74732,-10.95151 -7.79723,-18.16446 m -18.951363,-5.59074 c -4.060802,1.48961 -10.722354,26.59154 -5.537529,23.7552 5.407649,-2.95824 5.747311,-10.95151 7.797223,-18.16446 M 110.00015,87.720243 c 3.77654,2.875282 31.40205,33.086097 17.88613,41.041837 -7.62475,4.48808 -15.35863,-9.27673 -18.9243,-21.70273 M 81.999847,87.720243 c -3.77654,2.875282 -31.402043,33.086097 -17.886122,41.041837 7.624746,4.48808 15.358626,-9.27673 18.924297,-21.70273" /><path
   id="path6244"
   style="mix-blend-mode:overlay;fill:#000000;fill-opacity:0.15000001;stroke:none;stroke-width:1;stroke-linecap:round;stroke-linejoin:round;stroke-dasharray:none;stroke-opacity:0.429344;stop-color:#000000"
   d="m 106.60553,133.81775 c 4.0608,1.48961 10.72235,26.59154 5.53753,23.7552 -5.40765,-2.95824 -5.74732,-10.95151 -7.79723,-18.16446 m -18.951363,-5.59074 c -4.060802,1.48961 -10.722354,26.59154 -5.537529,23.7552 5.407649,-2.95824 5.747311,-10.95151 7.797223,-18.16446 M 110.00015,87.720243 c 3.77654,2.875282 31.40205,33.086097 17.88613,41.041837 -7.62475,4.48808 -15.35863,-9.27673 -18.9243,-21.70273 M 81.999847,87.720243 c -3.77654,2.875282 -31.402043,33.086097 -17.886122,41.041837 7.624746,4.48808 15.358626,-9.27673 18.924297,-21.70273" /><path
   id="path10331"
   style="display:inline;fill:#54688c;fill-opacity:1;stroke:none;stroke-linecap:round;stroke-linejoin:round;stroke-opacity:0.429344;stop-color:#000000"
   d="M 92.888672 172 L 99.048828 172 C 107.83419 135.66777 114.63324 95.168809 108.13477 64.072266 L 83.800781 64.072266 C 77.302297 95.168819 84.103301 135.66776 92.888672 172 z " /><path
   style="display:inline;fill:#54688c;fill-opacity:1;stroke:none;stroke-linecap:round;stroke-linejoin:round;stroke-opacity:0.429344;stop-color:#000000"
   d="m 89.064201,44.412535 c -5.98789,3.154535 -10.418178,28.296284 -8.055474,44.437059 0.187666,-3.666883 0.137605,-7.333765 1.118003,-11.000648 2.330628,-3.081257 3.575206,-6.459885 4.850973,-9.829972 2.381674,-2.123051 4.488086,-3.32853 9.062782,-3.850626 4.574695,0.522096 6.681105,1.727575 9.062785,3.850626 1.27576,3.370087 2.52034,6.748715 4.85097,9.829972 0.9804,3.666883 0.93034,7.333765 1.118,11.000648 2.36271,-16.140775 -2.06758,-41.282524 -8.05547,-44.437059 0.15259,-3.993848 -2.74361,-7.215445 -6.976285,-7.215445 -4.232675,0 -7.128872,3.221597 -6.976284,7.215445 z"
   id="path374"
   sodipodi:nodetypes="ccccccccczc" /><path
   style="display:inline;mix-blend-mode:overlay;fill:#000000;fill-opacity:0.15;stroke:none;stroke-linecap:round;stroke-linejoin:round;stroke-opacity:0.429344;stop-color:#000000"
   d="m 89.064201,44.412535 c -5.98789,3.154535 -10.418178,28.296284 -8.055474,44.437059 0.187666,-3.666883 0.137605,-7.333765 1.118003,-11.000648 2.330628,-3.081257 3.575206,-6.459885 4.850973,-9.829972 2.381674,-2.123051 4.488086,-3.32853 9.062782,-3.850626 4.574695,0.522096 6.681105,1.727575 9.062785,3.850626 1.27576,3.370087 2.52034,6.748715 4.85097,9.829972 0.9804,3.666883 0.93034,7.333765 1.118,11.000648 2.36271,-16.140775 -2.06758,-41.282524 -8.05547,-44.437059 0.15259,-3.993848 -2.74361,-7.215445 -6.976285,-7.215445 -4.232675,0 -7.128872,3.221597 -6.976284,7.215445 z"
   id="path2992"
   sodipodi:nodetypes="ccccccccczc" /><path
   id="path10348"
   style="color:#000000;display:inline;mix-blend-mode:overlay;fill:#000000;fill-opacity:0.15000001;stroke-linecap:round;stroke-linejoin:round;-inkscape-stroke:none"
   d="M 94.714844 172 L 97.416016 172 L 97.416016 148.0918 C 104.7243 144.10373 102.76058 120.34075 97.416016 108.24414 L 97.416016 67.779297 A 1.3499998 1.3499998 0 0 0 96.066406 66.429688 A 1.3499998 1.3499998 0 0 0 94.714844 67.779297 L 94.714844 172 z " /></svg>
