<svg xmlns="http://www.w3.org/2000/svg" width="192" height="192" fill="none"><path fill="#56595B" fill-rule="evenodd" d="M96 183c48.049 0 87-38.951 87-87S144.049 9 96 9 9 47.951 9 96s38.951 87 87 87Z" clip-rule="evenodd"/><path fill="#fff" fill-rule="evenodd" d="M74.924 90.963c7.722 0 13.982-7.603 13.982-16.982 0-9.378-6.26-16.981-13.982-16.981-7.721 0-13.98 7.603-13.98 16.981 0 9.379 6.259 16.982 13.98 16.982Z" clip-rule="evenodd"/><path fill="#56595B" fill-rule="evenodd" d="M78.236 84.318c4.267 0 7.726-4.132 7.726-9.23 0-5.096-3.46-9.228-7.726-9.228-4.267 0-7.727 4.132-7.727 9.229 0 5.097 3.46 9.229 7.727 9.229Z" clip-rule="evenodd"/><path fill="#fff" fill-rule="evenodd" d="M117.604 90.963c7.721 0 13.981-7.603 13.981-16.982 0-9.378-6.26-16.981-13.981-16.981-7.722 0-13.981 7.603-13.981 16.981 0 9.379 6.259 16.982 13.981 16.982Z" clip-rule="evenodd"/><path stroke="#56595B" stroke-linecap="round" stroke-width="5" d="M125.698 76.565c0-4.689-3.459-8.49-7.726-8.49-4.268 0-7.727 3.801-7.727 8.49"/><path fill="#F9DE81" fill-rule="evenodd" d="M97 135.398c6.435 0 39-9.252 39-20.666 0-11.413-17.334-14.171-38.874-14.171-21.539 0-39.126 2.758-39.126 14.171 0 11.414 32.565 20.666 39 20.666Z" clip-rule="evenodd"/><path fill="#C39A54" fill-rule="evenodd" d="M132.168 112.221c0 10.292-29.365 18.636-35.168 18.636-5.803 0-35.169-8.344-35.169-18.636 0-.588.052-1.151.154-1.689C64.269 118.168 91.442 124.2 97 124.2c5.559 0 32.741-6.034 35.016-13.672.101.539.152 1.104.152 1.693Z" clip-rule="evenodd"/><path fill="#F9DE81" fill-rule="evenodd" d="M97 128.016c6.435 0 39-7.292 39-16.287s-17.334-11.168-38.874-11.168c-21.539 0-39.126 2.173-39.126 11.168s32.565 16.287 39 16.287Z" clip-rule="evenodd"/></svg>