<svg xmlns="http://www.w3.org/2000/svg" width="192" height="192" fill="none"><path fill="#728DBE" fill-rule="evenodd" d="M22 32c0-5.523 4.477-10 10-10h35.563a5 5 0 0 1 4.302 2.451l5.089 8.588A4 4 0 0 0 80.395 35H164c5.523 0 10 4.477 10 10v119c0 5.523-4.477 10-10 10H32c-5.523 0-10-4.477-10-10V32Z" clip-rule="evenodd"/><rect width="152" height="139" x="22" y="35" fill="#9ABEFF" rx="10"/><path fill="#728DBE" fill-rule="evenodd" d="M77.597 106.702c-2.261-1.092-2.261-4.312 0-5.404l11.67-5.633a3 3 0 0 0 1.398-1.398l5.633-11.67c1.092-2.261 4.312-2.261 5.404 0l5.633 11.67a3 3 0 0 0 1.398 1.398l11.67 5.633c2.261 1.092 2.261 4.312 0 5.404l-11.67 5.633a3 3 0 0 0-1.398 1.398l-5.633 11.67c-1.092 2.261-4.312 2.261-5.404 0l-5.633-11.67a3 3 0 0 0-1.398-1.398l-11.67-5.633Zm43.416-26.084c-2.261-1.091-2.261-4.312 0-5.403l1.217-.588a2.998 2.998 0 0 0 1.397-1.397l.588-1.217c1.091-2.26 4.312-2.26 5.403 0l.587 1.217c.295.61.788 1.103 1.398 1.397l1.217.588c2.261 1.091 2.261 4.312 0 5.403l-1.217.588a3.004 3.004 0 0 0-1.398 1.397l-.587 1.217c-1.091 2.26-4.312 2.26-5.403 0l-.588-1.217a2.998 2.998 0 0 0-1.397-1.397l-1.217-.588Zm-50 59c-2.26-1.091-2.26-4.312 0-5.403l1.217-.588a2.998 2.998 0 0 0 1.397-1.397l.588-1.217c1.091-2.261 4.312-2.261 5.403 0l.588 1.217c.294.61.787 1.103 1.397 1.397l1.217.588c2.26 1.091 2.26 4.312 0 5.403l-1.217.587a3.004 3.004 0 0 0-1.397 1.398l-.588 1.217c-1.091 2.261-4.312 2.261-5.403 0l-.588-1.217a3.004 3.004 0 0 0-1.397-1.398l-1.217-.587Z" clip-rule="evenodd"/><path stroke="#fff" stroke-width="10" d="M99 131c15.464 0 28-12.536 28-28s-12.536-28-28-28-28 12.536-28 28 12.536 28 28 28Z" clip-rule="evenodd"/><path stroke="#fff" stroke-width="12" d="m117.46 119.46 31.056 31.056"/></svg>