<svg xmlns="http://www.w3.org/2000/svg" width="192" height="192" fill="none"><rect width="152" height="152" x="20" y="20" fill="#9ABEFF" rx="12"/><path fill="#fff" fill-rule="evenodd" d="M139 96.5C139 73.028 119.972 54 96.5 54S54 73.028 54 96.5 73.028 139 96.5 139 139 119.972 139 96.5Zm-14.58 9.941c5.214-15.143-2.835-31.647-17.979-36.861-15.143-5.214-31.647 2.835-36.861 17.978-4.346 12.622.522 26.188 11.03 33.376 1.352.924 2.97 1.51 4.505 2.066 3.017 1.093 5.72 2.071 5.471 5.278-.386 5.006-.712 9.628-.593 9.606 15.885-3.009 29.296-16.54 34.427-31.443Z" clip-rule="evenodd"/></svg>