<svg xmlns="http://www.w3.org/2000/svg" width="192" height="192" fill="none"><rect width="152" height="152" x="21" y="20" fill="#fff" rx="10"/><path fill="#9ABEFF" fill-rule="evenodd" d="M48.5 142.5h98.02H48.5Z" clip-rule="evenodd"/><path stroke="#98DC9A" stroke-linecap="round" stroke-width="2" d="M48.5 142.5h98.02"/><path fill="#9ABEFF" fill-rule="evenodd" d="M48.5 119.5h98.02H48.5Z" clip-rule="evenodd"/><path stroke="#98DC9A" stroke-linecap="round" stroke-width="2" d="M48.5 119.5h98.02"/><path fill="#9ABEFF" fill-rule="evenodd" d="M48.5 96.5h98.02H48.5Z" clip-rule="evenodd"/><path stroke="#98DC9A" stroke-linecap="round" stroke-width="2" d="M48.5 96.5h98.02"/><path fill="#9ABEFF" fill-rule="evenodd" d="M48.5 73.5h98.02H48.5Z" clip-rule="evenodd"/><path stroke="#98DC9A" stroke-linecap="round" stroke-width="2" d="M48.5 73.5h98.02"/><path fill="#9ABEFF" fill-rule="evenodd" d="M48.5 50.5h98.02H48.5Z" clip-rule="evenodd"/><path stroke="#98DC9A" stroke-linecap="round" stroke-width="2" d="M48.5 50.5h98.02"/><path fill="#9ABEFF" fill-rule="evenodd" d="M63.735 135.217s-1.32 2.856 0 6.986c-2.261-.04-2.448-1.386-4.063-3.537-1.614-2.151-2.149-3.981-1.206-5.547.943-1.567 5.27-1.904 5.27-1.904s4.898-4.267 8.137-6.076c3.239-1.808 10.161-3.441 10.161-3.441s3.89-4.355 7.238-7.544c3.347-3.188 7.057-6.072 7.057-6.072s-1.127-1.81 0-5.876c1.127-4.066 3.803-7.846 3.803-7.846l-3.803-5.614-11.336 7.52-14.304 5.94s-1.992 1.899-2.975 1.936c-.984.037-3.315-.905-3.979-1.276-.663-.371 2.55-1.717 2.86-2.442.31-.724-1.512-1.006 0-1.6 1.512-.595 4.039.546 5.278 0 1.239-.547 8.827-5.366 8.827-5.366s10.675-8.9 12.185-10.042c1.51-1.142 4.17-2.32 4.17-2.32l-1.159-2.145s-3.011.123-4.269-1.93c-1.258-2.054-.366-3.837 0-5.34.366-1.501 1.79-1.284 2.577-2.331.788-1.047.58-1.747.998-2.42.417-.672 2.594-.893 2.594-.893s1.935-1.766 3.619-1.766c1.683 0 3.083.61 3.728 1.524.645.915.16 1.874.659 3.028s1.872 1.409 2.125 1.886c.254.477-.353 1.445 0 2.246.354.801.293 1.557 0 2.012-.293.455-3.942 2.053-3.942 2.053l1.57 1.931s4.534-.819 6.544-.221c2.009.597 8.837 4.686 9.69 4.686.853 0 11.782-5.052 11.782-5.052s.14-2.025 1.464-2.34c1.325-.316 2.865.262 3.374 1.188.509.925-.557 2.177-1.226 2.716-.669.538-2.148 0-2.148 0s-11.359 7.148-13.246 7.336c-1.887.188-9.503-2.592-9.503-2.592s.094 2.758.094 4.068c0 1.31-1.094 3.532-1.094 3.532l-.191 9.934s5.976 3.656 9.986 6.876c4.011 3.22 6.007 5.079 7.263 6.974 1.255 1.895 8.839 21.342 8.839 21.342s7.67 2.849 8.397 4.077c.726 1.229-10.766.291-12.009 0-1.242-.29 0-2.145 0-2.809 0-.665-7.416-9.056-8.895-11.751-1.48-2.696-1-6.28-1-6.28s-8.515-3.243-11.39-4.579c-2.875-1.336-5.409-3.227-5.409-3.227s-5.21 4.846-9.822 7.806c-4.613 2.959-3.056 2.412-10.349 5.137-7.293 2.724-9.962 3.469-14.833 5.443-4.872 1.974-8.138 4.002-8.138 4.002Z" clip-rule="evenodd"/></svg>