<svg xmlns="http://www.w3.org/2000/svg" width="192" height="192" fill="none"><path stroke="#71A372" stroke-linecap="round" stroke-width="10" d="m147.736 45.107 18.017-18.017M45.264 44.107 27.046 25.89"/><path fill="#98DC9A" fill-rule="evenodd" d="M96 183c48.049 0 87-38.951 87-87S144.049 9 96 9 9 47.951 9 96s38.951 87 87 87Z" clip-rule="evenodd"/><path fill="#71A372" fill-rule="evenodd" d="M72.475 126H61v27h5.94v-10.935h5.535c4.545 0 8.055-3.375 8.055-7.92 0-4.5-3.51-8.145-8.055-8.145Zm-.945 11.16h-4.59v-5.94h4.59c1.89 0 3.33 1.215 3.33 2.97 0 1.8-1.44 2.97-3.33 2.97ZM99.835 153h6.345l-9.72-27H89.8l-9.72 27h6.345l1.665-5.085h10.08L99.835 153Zm-10.17-10.035 3.465-10.71 3.465 10.71h-6.93ZM129.805 126h-6.615l-5.76 9.135-5.76-9.135h-6.705l9.495 14.31V153h5.94v-12.735L129.805 126Z" clip-rule="evenodd"/><path stroke="#71A372" stroke-width="10" d="M9 99h174"/><path fill="#71A372" fill-rule="evenodd" d="M70.315 62.635c0-9.585-12.78-7.245-12.78-12.78 0-2.115 1.665-3.105 3.645-3.105 1.8 0 3.42.81 4.635 2.34l3.105-2.835c-1.305-1.62-3.24-2.835-5.49-3.33V40h-3.915v2.79c-3.51.63-6.39 3.15-6.39 7.38 0 8.955 12.78 6.75 12.78 12.465 0 2.205-1.845 3.51-4.365 3.51-2.745 0-4.815-1.53-5.76-3.825L52 64.615c1.305 2.835 4.095 4.995 7.515 5.58v2.79h3.915v-2.79c3.915-.63 6.885-3.375 6.885-7.56Zm69 0c0-9.585-12.78-7.245-12.78-12.78 0-2.115 1.665-3.105 3.645-3.105 1.8 0 3.42.81 4.635 2.34l3.105-2.835c-1.305-1.62-3.24-2.835-5.49-3.33V40h-3.915v2.79c-3.51.63-6.39 3.15-6.39 7.38 0 8.955 12.78 6.75 12.78 12.465 0 2.205-1.845 3.51-4.365 3.51-2.745 0-4.815-1.53-5.76-3.825L121 64.615c1.305 2.835 4.095 4.995 7.515 5.58v2.79h3.915v-2.79c3.915-.63 6.885-3.375 6.885-7.56Z" clip-rule="evenodd"/></svg>