<svg xmlns="http://www.w3.org/2000/svg" width="192" height="192" fill="none"><path fill="#56595B" fill-rule="evenodd" d="M88.929 36.574c3.905-3.905 10.237-3.905 14.142 0l52.355 52.355c3.905 3.905 3.905 10.237 0 14.142l-52.355 52.355c-3.905 3.905-10.237 3.905-14.142 0l-52.355-52.355c-3.905-3.905-3.905-10.237 0-14.142l52.355-52.355Z" clip-rule="evenodd"/><path fill="#98DC9A" fill-rule="evenodd" d="M30.003 172.012c-5.525 0-10.003-4.477-10.003-10.003v-40.867c0-8.909 10.771-13.371 17.071-7.071l40.87 40.87c6.3 6.299 1.838 17.071-7.072 17.071H30.003Z" clip-rule="evenodd"/><path fill="#F9DE81" fill-rule="evenodd" d="M162.009 20c5.524 0 10.003 4.477 10.003 10.003V70.87c0 8.909-10.772 13.37-17.071 7.07l-40.87-40.869c-6.3-6.3-1.838-17.071 7.071-17.071h40.867Z" clip-rule="evenodd"/><path fill="#FF837D" fill-rule="evenodd" d="M30.003 20A10.001 10.001 0 0 0 20 30.003V70.87c0 8.909 10.771 13.37 17.071 7.07l40.87-40.869C84.24 30.771 79.779 20 70.869 20H30.003Z" clip-rule="evenodd"/><path fill="#9ABEFF" fill-rule="evenodd" d="M162.009 172.012c5.524 0 10.003-4.477 10.003-10.003v-40.867c0-8.909-10.772-13.371-17.071-7.071l-40.87 40.87c-6.3 6.299-1.838 17.071 7.071 17.071h40.867Z" clip-rule="evenodd"/><path fill="#B1B5BD" fill-rule="evenodd" d="M96 114c9.941 0 18-8.059 18-18s-8.059-18-18-18-18 8.059-18 18 8.059 18 18 18Z" clip-rule="evenodd"/><path stroke="#B1B5BD" stroke-width="5" d="m134.431 81 15.43 15.43-15.43 15.431M57.43 81 42 96.43l15.43 15.431m54.07 23.07-15.43 15.43-15.431-15.43M111.5 57.93 96.07 42.5 80.638 57.93"/></svg>