<svg xmlns="http://www.w3.org/2000/svg" width="192" height="192" fill="none"><path fill="#C39A54" fill-rule="evenodd" d="M69 131c5.523 0 10-4.477 10-10s-4.477-10-10-10-10 4.477-10 10 4.477 10 10 10Z" clip-rule="evenodd"/><path stroke="#C39A54" stroke-width="10" d="m69.5 121.5-35-22"/><rect width="105" height="152" x="69" y="22" fill="#56595B" rx="10"/><rect width="87" height="122.117" x="78" y="30.883" fill="#fff" rx="3"/><path fill="#9ABEFF" fill-rule="evenodd" d="M122 169a5 5 0 1 0-.001-10.001A5 5 0 0 0 122 169Z" clip-rule="evenodd"/><path stroke="#56595B" stroke-linecap="round" stroke-width="10" d="M99 112c0 12.979 10.521 23.5 23.5 23.5v0c12.979 0 23.5-10.521 23.5-23.5"/><path fill="#56595B" fill-rule="evenodd" d="M102.5 94c5.247 0 9.5.747 9.5-4.5a9.5 9.5 0 0 0-9.5-9.5 9.5 9.5 0 0 0-9.5 9.5c0 5.247 4.253 4.5 9.5 4.5Zm39 0c5.247 0 9.5.747 9.5-4.5a9.5 9.5 0 0 0-9.5-9.5 9.5 9.5 0 0 0-9.5 9.5c0 5.247 4.253 4.5 9.5 4.5Z" clip-rule="evenodd"/><path fill="#F9DE81" fill-rule="evenodd" d="M35 108c-5.523 0-10-4.477-10-10s4.477-10 10-10 10 4.477 10 10-4.477 10-10 10Zm41-27c-5.523 0-10-4.477-10-10s4.477-10 10-10 10 4.477 10 10-4.477 10-10 10Z" clip-rule="evenodd"/><path fill="#B1B5BD" fill-rule="evenodd" d="M86 75a6 6 0 1 1 0-12 6 6 0 0 1 0 12Z" clip-rule="evenodd"/><path stroke="#F9DE81" stroke-width="10" d="m37.5 95.5 35-22"/><path fill="#B1B5BD" fill-rule="evenodd" d="m89 58 19 10H89V58Zm0 22 19-10H89v10Z" clip-rule="evenodd"/></svg>