<svg xmlns="http://www.w3.org/2000/svg" width="192" height="192" fill="none"><path fill="#96DFD3" d="M54 30c0-5.523-4.477-10-10-10H30c-5.523 0-10 4.477-10 10v132c0 5.523 4.477 10 10 10h132c5.523 0 10-4.477 10-10v-58c0-5.523-4.477-10-10-10H70c-5.523 0-10 4.477-10 10v16c0 5.523 4.477 10 10 10h63a3 3 0 1 1 0 6H64c-5.523 0-10-4.477-10-10V30Z"/><rect width="70" height="34" x="173" y="20" fill="#96DFD3" rx="10" transform="rotate(90 173 20)"/><rect width="48" height="34" x="94" y="42" fill="#96DFD3" rx="10" transform="rotate(90 94 42)"/><rect width="48" height="34" x="134" y="42" fill="#96DFD3" rx="10" transform="rotate(90 134 42)"/></svg>