<svg xmlns="http://www.w3.org/2000/svg" width="192" height="192" fill="none"><rect width="152" height="152" x="21" y="20" fill="#9ABEFF" rx="10"/><path fill="#F9DE81" fill-rule="evenodd" d="M101.389 132c19.545 0 35.39-15.894 35.39-35.5S120.934 61 101.389 61 66 76.894 66 96.5 81.844 132 101.389 132Z" clip-rule="evenodd"/><path fill="#fff" fill-rule="evenodd" d="M103.653 115.91c-6.111-.16-11.016-5.119-11.016-11.212 0-6.194 5.07-11.215 11.322-11.215.11 0 .22.001.329.004a18.467 18.467 0 0 1-.023-.914c0-9.877 8.083-17.884 18.054-17.884 8.851 0 16.214 6.31 17.756 14.636 6.711.756 11.925 6.4 11.925 13.252 0 7.366-6.028 13.337-13.464 13.337h-34.883v-.004Z" clip-rule="evenodd"/></svg>