<svg xmlns="http://www.w3.org/2000/svg" width="192" height="192" fill="none"><rect width="152" height="152" fill="#4A4A4A" rx="10" transform="matrix(1 0 0 -1 20 172)"/><mask id="a" width="152" height="152" x="20" y="20" maskUnits="userSpaceOnUse" style="mask-type:luminance"><rect width="152" height="152" fill="#fff" rx="10" transform="matrix(1 0 0 -1 20 172)"/></mask><g fill-rule="evenodd" clip-rule="evenodd" mask="url(#a)"><path fill="#fff" d="M155.111 18.775V72.51L15.621 149.2v29.121l76.217-5.539 86.872-74.234V18.775h-23.599Z"/><path fill="#4A4A4A" d="M164.259 25.655V72.76l-45.083 32.67-7.099 1.689a5.987 5.987 0 0 0-1.232.439l-27.382 13.298c-.477.231-.92.525-1.32.873l-23.717 20.662c-1.164 1.014-.79 2.908.673 3.402l7.188 2.43a2 2 0 0 1 1.164 2.757l-.844 1.767a2.047 2.047 0 0 1-1.346 1.097c-2.43.618-8.9 2.397-10.636 4.208-2.15 2.245-4.193 5.809 1.802 6.83 5.995 1.02 11.53-1.037 14.262-2.457 1.963-1.021 2.49-3.99 2.63-5.581.058-.648.366-1.262.895-1.642l5.19-3.73a1.998 1.998 0 0 1 1.552-.338l10.572 2.074a6 6 0 0 0 3.942-.575l33.931-17.799a5.987 5.987 0 0 0 1.58-1.198l15.903-16.877a6 6 0 0 0 1.633-4.115v-1.512l32.067-26.767-8.477-1.986-37.49 24.892 37.49-34.51v-55.6l-9.937 2.668 2.089 5.825Z"/></g></svg>