<svg xmlns="http://www.w3.org/2000/svg" width="192" height="192" fill="none"><g clip-path="url(#a)"><rect width="152" height="152" x="20" y="20" fill="#96DFD3" rx="10"/><path fill="#fff" fill-rule="evenodd" d="m101.321 61-32.248 3.487 6.42 28.096c3.32-3.466 7.597-5.935 12.817-7.407 4.975-1.402 9.581-1.552 13.802-.44L101.321 61Zm.852 25.562c-4.043-1.18-8.502-1.086-13.392.293-5.216 1.47-9.396 3.972-12.562 7.507l-.221.427.048.211-9.21 20.936 8.598 4.021c.6-.713 2.243-2.476 4.97-4.034 3.515-2.009 6.972-2.615 6.972-2.615h9.031l.672-.264h12.342l11.276-5.73-.202-.109-18.302-20.051-.02-.592Zm23.028 23.198 9.05 7.776L148 123.967 145.49 129h2.895l2.615-5.231-25.799-14.009ZM143.545 129l2.1-4.21-12.345-5.775-11.842-10.174-10.025 5.338h.347s9.49 6.107 13.945 8.718c4.454 2.612 11.33 6.103 11.33 6.103h6.49Zm-34.643-14.212h-8.214l6.734 8.981 7.844 4.359h4.559c.891 0 1.337-1.077.707-1.707l-11.63-11.633Zm-34.734 6.501-8.439-3.947L56 124.641 57.743 129h8.716l7.709-7.711Z" clip-rule="evenodd"/><path fill="#96DFD3" d="m131.423 123.095.228.146-.104-.089-.124-.057Z"/></g><defs><clipPath id="a"><path fill="#fff" d="M0 0h192v192H0z"/></clipPath></defs></svg>