<svg xmlns="http://www.w3.org/2000/svg" width="192" height="192" fill="none"><rect width="152" height="152" x="20" y="20" fill="#BD9AFF" rx="10"/><path fill="#fff" d="M85.97 91.755 94.565 81h-18.9v5.805h7.83l-7.2 9.495h8.595c1.62 0 2.7 1.17 2.7 2.925 0 1.71-1.035 2.97-2.835 2.97-1.35 0-2.565-.765-2.565-1.755l-6.525.09c0 4.365 4.095 7.83 9.045 7.83 5.355 0 9.405-4.005 9.405-8.955 0-5.13-3.51-7.65-8.145-7.65Zm22.463 16.605c6.795 0 10.17-5.535 10.17-13.86s-3.375-13.86-10.17-13.86c-6.885 0-10.26 5.535-10.26 13.86s3.375 13.86 10.26 13.86Zm0-5.805c-2.925 0-3.6-3.15-3.6-8.055 0-4.905.675-8.055 3.6-8.055 2.835 0 3.51 3.15 3.51 8.055 0 4.905-.675 8.055-3.51 8.055Z"/><path stroke="#56595B" stroke-linecap="round" stroke-width="5" d="M33.5 16.382v12.449m125-12.449v12.449m-25-12.449v12.449m-25-12.449v12.449m-25-12.449v12.449m-25-12.449v12.449"/></svg>