<svg xmlns="http://www.w3.org/2000/svg" width="192" height="192" fill="none"><path fill="#fff" fill-rule="evenodd" d="M96 167c48.049 0 87-35.37 87-79S144.049 9 96 9 9 44.37 9 88s38.951 79 87 79Z" clip-rule="evenodd"/><mask id="a" width="174" height="158" x="9" y="9" maskUnits="userSpaceOnUse" style="mask-type:luminance"><path fill="#fff" fill-rule="evenodd" d="M96 167c48.049 0 87-35.37 87-79S144.049 9 96 9 9 44.37 9 88s38.951 79 87 79Z" clip-rule="evenodd"/></mask><g mask="url(#a)"><path fill="#FF837D" d="M9 9h43.775v79H9z"/><path fill="#F9DE81" d="M52.775 9H96.55v79H52.775z"/><path fill="#98DC9A" d="M96.551 9h43.775v79H96.551z"/><path fill="#9ABEFF" d="M140.326 9h43.775v79h-43.775z"/></g><g filter="url(#b)"><path fill="#56595B" fill-rule="evenodd" d="M96 131c19.33 0 35-15.67 35-35s-15.67-35-35-35-35 15.67-35 35 15.67 35 35 35Z" clip-rule="evenodd"/><path stroke="#fff" stroke-width="10" d="M126 96c0 16.569-13.431 30-30 30-16.569 0-30-13.431-30-30 0-16.569 13.431-30 30-30 16.569 0 30 13.431 30 30Z"/></g><path fill="#fff" fill-rule="evenodd" d="M89 98a9 9 0 1 0 0-18 9 9 0 0 0 0 18Z" clip-rule="evenodd"/><defs><filter id="b" width="70" height="75" x="61" y="61" color-interpolation-filters="sRGB" filterUnits="userSpaceOnUse"><feFlood flood-opacity="0" result="BackgroundImageFix"/><feColorMatrix in="SourceAlpha" result="hardAlpha" values="0 0 0 0 0 0 0 0 0 0 0 0 0 0 0 0 0 0 127 0"/><feOffset dy="5"/><feColorMatrix values="0 0 0 0 0 0 0 0 0 0 0 0 0 0 0 0 0 0 0.26 0"/><feBlend in2="BackgroundImageFix" result="effect1_dropShadow_0_82310"/><feBlend in="SourceGraphic" in2="effect1_dropShadow_0_82310" result="shape"/></filter></defs></svg>