<svg xmlns="http://www.w3.org/2000/svg" width="192" height="192" fill="none"><rect width="152" height="152" x="21" y="20" fill="#FF837D" rx="10"/><path fill="#fff" fill-rule="evenodd" d="m107.225 68.994-20.19-.005a11.747 11.747 0 0 1 10.092-5.724 11.75 11.75 0 0 1 10.098 5.73Zm-23.66 2.404v11.127l-11.164.003c0-6.147 4.998-11.13 11.163-11.13Zm0 36.349c-6.489 0-11.748-5.241-11.748-11.71 0-6.465 5.26-11.714 11.747-11.714v23.424Zm13.562.002c6.491 0 11.748-5.243 11.748-11.71 0-6.467-5.257-11.713-11.748-11.713-6.488 0-11.745 5.246-11.745 11.712 0 6.468 5.257 11.711 11.745 11.711Zm13.568 1.808-.003 11.112c6.163 0 11.154-4.962 11.152-11.107l-11.149-.005Zm-27.13 0-.002 11.112c-6.164 0-11.16-4.962-11.16-11.107l11.161-.005Zm40.699-3.45-.005-20.131c3.437 2.044 5.74 5.782 5.74 10.062.001 4.277-2.299 8.022-5.735 10.069Zm-17.192 16.982-20.19-.004a11.747 11.747 0 0 0 10.095 5.723 11.75 11.75 0 0 0 10.095-5.719Zm-9.945-1.816c6.491 0 11.746-5.243 11.746-11.711H85.379c0 6.468 5.26 11.711 11.748 11.711Zm13.57-13.526c6.486 0 11.745-5.241 11.745-11.71 0-6.465-5.259-11.714-11.745-11.714v23.424Zm-13.57-36.923c6.491 0 11.746 5.245 11.746 11.716H85.379c0-6.471 5.26-11.716 11.748-11.716Zm-27.13 35.283L70 85.976c-3.44 2.044-5.743 5.782-5.743 10.062 0 4.277 2.3 8.022 5.74 10.069Zm40.697-23.582 11.152.005c0-6.146-4.991-11.125-11.154-11.125l.002 11.12Z" clip-rule="evenodd"/></svg>