<svg xmlns="http://www.w3.org/2000/svg" width="192" height="192" fill="none"><rect width="152" height="152" x="21" y="20" fill="#FF837D" rx="10"/><path stroke="#fff" stroke-width="5" d="m94.855 75.978-.747-1.32-1.516.053-12.124.42-1.082.038-.712.814-5.149 5.881-.565.647-.05.857-1.208 21.16-.047.831.46.694 14.11 21.279.64.963 1.147.137 20.706 2.478 1.032.124.815-.644 5.535-4.373 2.541-2.007-2.584-1.95-8.571-6.469-.378-.286.051-.18-.244-.734-2.753-8.282 8.99-15.464.747-1.286-.774-1.27-7.787-12.785-1.532-2.515-2.233 1.92-3.372 2.9-2.675-.443-.671-1.188Z"/><path fill="#fff" fill-rule="evenodd" d="m93.451 73.504-8.106-3.776-5.567.171 4.96-3.55 4.116 2.59 4.29.07 14.076-13.027 9.557-.982 4.487 2.159 4.3 5.265-2.054 6.224-5.612-.159 3.232-3.208-2.595-5.894-7.839.225-5.604 4.142-1.305 7.202 2.394 2.005 4.508-.292-.535 3.039-7.328-.397-5.606 3.313-2.744-1.845-1.025-3.275Z" clip-rule="evenodd"/></svg>