<svg xmlns="http://www.w3.org/2000/svg" width="192" height="192" fill="none"><rect width="152" height="152" x="20" y="20" fill="#9ABEFF" rx="10"/><rect width="130" height="13" x="31" y="143" fill="#728DBE" rx="5"/><rect width="130" height="13" x="31" y="96" fill="#728DBE" rx="5"/><rect width="130" height="13" x="31" y="32" fill="#728DBE" rx="5"/><rect width="85" height="13" x="76" y="53" fill="#728DBE" rx="5"/><rect width="85" height="13" x="76" y="74" fill="#728DBE" rx="5"/><rect width="130" height="13" x="31" y="119" fill="#728DBE" rx="5"/><path fill="#728DBE" fill-rule="evenodd" d="M48 79c7.18 0 13-5.82 13-13s-5.82-13-13-13-13 5.82-13 13 5.82 13 13 13Z" clip-rule="evenodd"/><path fill="#FF837D" fill-rule="evenodd" d="M177.527 94.01c0-4.976-2.449-9.01-5.459-9.01h-54.594c-3.014 0-6.555 3.617-7.895 8.034l-6.045 19.932c-1.346 4.437-1.34 11.651 0 16.068l6.045 19.932c1.346 4.437 4.885 8.034 7.895 8.034h54.594c3.015 0 5.459-4.025 5.459-9.01V94.01Z" clip-rule="evenodd"/><path fill="#fff" fill-rule="evenodd" d="M15 90a5 5 0 0 1 5-5h56.294a5 5 0 0 1 4.788 3.559l9.33 31a5 5 0 0 1 0 2.882l-9.33 31A5 5 0 0 1 76.294 157H20a5 5 0 0 1-5-5V90Z" clip-rule="evenodd"/></svg>