<svg xmlns="http://www.w3.org/2000/svg" width="192" height="192" fill="none"><rect width="152" height="152" x="20" y="20" fill="#56595B" rx="10"/><path fill="#fff" d="M79.313 85.1a3.84 3.84 0 0 0 3.412-2.063L81.3 82.3c-.362.713-1.1 1.188-1.987 1.188-1.263 0-2.225-.975-2.225-2.238s.962-2.237 2.225-2.237c.887 0 1.624.474 1.987 1.187l1.425-.737a3.852 3.852 0 0 0-7.262 1.787 3.852 3.852 0 0 0 3.85 3.85Zm10.934-.1h1.65v-7.5h-1.65V85Zm14.967-7.5v4.963l-3.687-4.963h-1.7V85h1.65v-4.975L105.152 85h1.7v-7.5h-1.638Zm14.103 1.45V77.5h-4.512V85h4.512v-1.45h-2.862v-1.575h2.45v-1.45h-2.45V78.95h2.862Z"/><path fill="#FF837D" d="M65.662 71.5v11.448h-11.59V71.5h-6.27V100h6.27V88.505h11.59V100h6.223V71.5h-6.223Zm21.128 28.88c6.365 0 10.545-4.18 10.545-9.88 0-5.7-4.18-9.88-10.545-9.88S76.197 84.8 76.197 90.5c0 5.7 4.228 9.88 10.593 9.88Zm0-5.367c-2.613-.048-4.513-1.948-4.513-4.513s1.9-4.465 4.513-4.513c2.565.048 4.512 1.948 4.512 4.513s-1.947 4.465-4.512 4.513ZM114.33 81l-4.655 12.588L104.926 81h-6.318l7.933 19.427-4.465 10.973h6.365l12.16-30.4h-6.27Zm20.325 4.703V81h-4.512v-7.315h-6.033V81h-3.182v4.703h3.182v7.504c0 4.038 3.42 7.173 7.458 7.173 1.282 0 2.565-.285 3.04-.617V95.06h-2.28c-1.283 0-2.185-.998-2.185-2.565v-6.793h4.512Zm9.895 14.677c4.275 0 6.888-2.612 6.888-6.175 0-3.8-3.135-5.32-5.843-6.365-1.377-.57-2.042-.855-2.042-1.568 0-.617.475-1.092 1.52-1.092 1.235 0 2.375.665 2.945 1.377l3.04-3.42c-1.425-1.424-3.753-2.517-6.413-2.517-4.322 0-7.077 2.85-7.077 6.08 0 3.8 3.8 5.082 5.985 5.89 1.71.665 2.28 1.14 2.28 1.805 0 .76-.665 1.188-1.663 1.188-.997 0-2.327-.38-3.182-1.995l-4.465 2.232c1.14 2.945 4.655 4.56 8.027 4.56Z"/></svg>