<svg xmlns="http://www.w3.org/2000/svg" width="192" height="192" fill="none"><rect width="152" height="152" x="20" y="20" fill="#9ABEFF" rx="10"/><path fill="#fff" fill-rule="evenodd" d="M73.18 114.48c6.36 0 11.16-3.9 12.48-9.42h-5.94c-1.14 2.46-3.6 4.14-6.54 4.14-4.02 0-7.2-3.12-7.2-7.2s3.18-7.2 7.2-7.2c2.94 0 5.4 1.68 6.54 4.14h5.94c-1.32-5.52-6.12-9.42-12.48-9.42-7.44 0-12.9 5.46-12.9 12.48 0 7.02 5.46 12.48 12.9 12.48Zm18.06-.48h5.64V90h-5.64v24Zm26.52-19.2V90h-6.06v-5.84H106V90h-3.96v4.8H106v11.76c0 4.44 3.78 7.92 8.16 7.92 1.38 0 2.88-.36 3.48-.78v-4.38h-2.76c-1.8 0-3.18-1.32-3.18-3.42V94.8h6.06Zm5.76 19.2h5.64V90h-5.64v24Z" clip-rule="evenodd"/><mask id="a" width="68" height="20" x="77" y="66" maskUnits="userSpaceOnUse" style="mask-type:luminance"><path fill="#fff" d="M77 66h68v20H77z"/></mask><g mask="url(#a)"><path stroke="#FF837D" stroke-width="7" d="M128.5 92c0 10.217-8.283 18.5-18.5 18.5S91.5 102.217 91.5 92s8.283-18.5 18.5-18.5 18.5 8.283 18.5 18.5Z"/></g></svg>