<svg xmlns="http://www.w3.org/2000/svg" width="192" height="192" fill="none"><path fill="#4A4A4A" fill-rule="evenodd" d="M91.97 9.902a10 10 0 0 1 10.043.028l67.033 39.175A10 10 0 0 1 174 57.738v77.524a10 10 0 0 1-4.954 8.633l-67.033 39.175a9.997 9.997 0 0 1-10.043.028l-67.967-39.212A10 10 0 0 1 19 135.224V57.776a10 10 0 0 1 5.003-8.662L91.97 9.902Z" clip-rule="evenodd"/><path fill="#F9DE81" fill-rule="evenodd" d="M76.717 65.103H77v62.367L62.5 135 48 127.47V65.103h.283L62.5 58l14.217 7.103Zm69 0H146v62.367L131.5 135l-14.5-7.53V65.103h.283L131.5 58l14.217 7.103Zm-34.717 4h-.283L96.5 76l-14.217-6.897H82v41.367L96.5 118l14.5-7.53V69.103Z" clip-rule="evenodd"/></svg>