<svg xmlns="http://www.w3.org/2000/svg" width="192" height="192" fill="none"><path fill="#56595B" fill-rule="evenodd" d="M32.145 55.11a5 5 0 0 1 .711-6.223l28.745-28.441A5 5 0 0 1 65.118 19h82.876a5 5 0 0 1 3.552 1.481l29.645 29.928a5 5 0 0 1 .646 6.234L110.82 166.431c-1.983 3.065-6.477 3.041-8.426-.047L32.144 55.11Z" clip-rule="evenodd"/><path fill="#98DC9A" fill-rule="evenodd" d="M65.05 150.44c21.42 0 40.14-12.24 49.32-30.24l-23.76-12.06c-4.68 9.36-14.04 15.3-25.56 15.3-16.38 0-28.62-12.06-28.62-28.44 0-16.38 12.24-28.44 28.62-28.44 11.52 0 20.88 5.94 25.56 15.3l23.76-12.06c-9.18-18-27.9-30.24-49.32-30.24C34.27 39.56 9.61 64.4 9.61 95c0 30.6 24.66 55.44 55.44 55.44Z" clip-rule="evenodd"/><path fill="#B1B5BD" fill-rule="evenodd" d="M149.858 27.51a5 5 0 0 0-7.058.013L124.253 46.07c-3.15 3.15-.919 8.535 3.535 8.535h37.232c4.463 0 6.69-5.403 3.522-8.548L149.858 27.51Z" clip-rule="evenodd"/></svg>