<svg xmlns="http://www.w3.org/2000/svg" width="192" height="192" fill="none"><path fill="#F8C18C" fill-rule="evenodd" d="M169.119 22.978A9.972 9.972 0 0 0 161.997 20h-12.171a2 2 0 0 0-1.414.586l-1.752 1.752a2 2 0 0 1-1.414.585H54.002a2 2 0 0 1-1.415-.585l-1.751-1.752A2 2 0 0 0 49.422 20h-19.42C24.479 20 20 24.477 20 30.003V98.93c0 .53.21 1.04.586 1.414l1.828 1.829c.375.375.586.883.586 1.414V167a3 3 0 0 0 3 3h78.713c.531 0 1.039.211 1.414.586l.829.828a2 2 0 0 0 1.414.586h53.627c5.525 0 10.003-4.477 10.003-10.003V86.671a2 2 0 0 0-.586-1.414l-.828-.829a2 2 0 0 1-.586-1.414V24.157l-.881-1.179Z" clip-rule="evenodd"/><mask id="a" width="152" height="152" x="20" y="20" maskUnits="userSpaceOnUse" style="mask-type:luminance"><path fill="#fff" fill-rule="evenodd" d="M169.119 22.978A9.972 9.972 0 0 0 161.997 20h-12.171a2 2 0 0 0-1.414.586l-1.752 1.752a2 2 0 0 1-1.414.585H54.002a2 2 0 0 1-1.415-.585l-1.751-1.752A2 2 0 0 0 49.422 20h-19.42C24.479 20 20 24.477 20 30.003V98.93c0 .53.21 1.04.586 1.414l1.828 1.829c.375.375.586.883.586 1.414V167a3 3 0 0 0 3 3h78.713c.531 0 1.039.211 1.414.586l.829.828a2 2 0 0 0 1.414.586h53.627c5.525 0 10.003-4.477 10.003-10.003V86.671a2 2 0 0 0-.586-1.414l-.828-.829a2 2 0 0 1-.586-1.414V24.157l-.881-1.179Z" clip-rule="evenodd"/></mask><g mask="url(#a)"><path fill="#9ABEFF" fill-rule="evenodd" d="m53.865 176.655 94.324-165.993h35.538v177.09L53.865 176.655Z" clip-rule="evenodd"/></g><rect width="131" height="131" fill="#4A4A4A" rx="5" transform="matrix(1 0 0 -1 31 162)"/><path fill="#98DC9A" d="M62.828 96.293c-1.16 0-2.098.37-2.812 1.107-.715.727-1.073 1.694-1.073 2.901 0 1.207.358 2.179 1.073 2.918.715.738 1.652 1.107 2.812 1.107s2.098-.375 2.813-1.125c.726-.75 1.09-1.717 1.09-2.9 0-1.207-.358-2.174-1.073-2.9-.715-.739-1.658-1.108-2.83-1.108Zm-3.85-2.197c-1.324-.457-2.331-1.172-3.023-2.145-.691-.984-1.037-2.185-1.037-3.603 0-2.18.709-3.903 2.127-5.168 1.418-1.266 3.346-1.899 5.783-1.899 2.45 0 4.383.633 5.8 1.899 1.419 1.265 2.128 2.988 2.128 5.168 0 1.406-.34 2.601-1.02 3.586-.68.972-1.67 1.693-2.97 2.162 1.453.445 2.59 1.242 3.41 2.39.82 1.149 1.23 2.526 1.23 4.131 0 2.52-.744 4.465-2.232 5.836-1.489 1.371-3.604 2.057-6.346 2.057-2.73 0-4.84-.686-6.328-2.057-1.488-1.371-2.232-3.316-2.232-5.836 0-1.617.416-3 1.248-4.148.832-1.149 1.986-1.94 3.462-2.373Zm.545-5.327c0 1.032.293 1.852.88 2.462.597.597 1.406.896 2.425.896 1.031 0 1.84-.299 2.426-.896.598-.61.896-1.43.896-2.462 0-1.019-.298-1.822-.896-2.408-.586-.597-1.395-.896-2.426-.896-1.008 0-1.81.299-2.408.896-.598.598-.897 1.4-.897 2.408Zm17.83 6.135c0-4.547.721-7.95 2.163-10.213 1.441-2.273 3.609-3.41 6.503-3.41 2.907 0 5.08 1.131 6.522 3.393 1.441 2.261 2.162 5.672 2.162 10.23 0 4.547-.72 7.951-2.162 10.213-1.441 2.262-3.615 3.393-6.522 3.393-2.894 0-5.062-1.131-6.503-3.393-1.442-2.273-2.163-5.678-2.163-10.213Zm6.047 7.014c.551 1.465 1.424 2.197 2.62 2.197 1.207 0 2.086-.732 2.636-2.197.551-1.465.826-3.803.826-7.014 0-1.218-.04-2.308-.123-3.27l-6.134 9.774c.058.188.117.358.175.51Zm2.62-16.242c-1.196 0-2.069.732-2.62 2.197-.55 1.465-.826 3.809-.826 7.031 0 .996.024 1.905.07 2.725l6.047-9.65-.035-.106c-.55-1.465-1.43-2.197-2.637-2.197Zm14.525 9.228c0-4.547.721-7.95 2.162-10.213 1.441-2.273 3.609-3.41 6.504-3.41 2.906 0 5.08 1.131 6.521 3.393 1.442 2.261 2.163 5.672 2.163 10.23 0 4.547-.721 7.951-2.163 10.213-1.441 2.262-3.615 3.393-6.521 3.393-2.895 0-5.063-1.131-6.504-3.393-1.441-2.273-2.162-5.678-2.162-10.213Zm6.047 7.014c.551 1.465 1.424 2.197 2.619 2.197 1.207 0 2.086-.732 2.637-2.197.55-1.465.826-3.803.826-7.014 0-1.218-.041-2.308-.123-3.27l-6.135 9.774c.059.188.117.358.176.51Zm2.619-16.242c-1.195 0-2.068.732-2.619 2.197-.551 1.465-.826 3.809-.826 7.031 0 .996.023 1.905.07 2.725l6.047-9.65a4.2 4.2 0 0 1-.035-.106c-.551-1.465-1.43-2.197-2.637-2.197Zm14.525 9.228c0-4.547.721-7.95 2.162-10.213 1.442-2.273 3.61-3.41 6.504-3.41 2.907 0 5.08 1.131 6.522 3.393 1.441 2.261 2.162 5.672 2.162 10.23 0 4.547-.721 7.951-2.162 10.213-1.442 2.262-3.615 3.393-6.522 3.393-2.894 0-5.062-1.131-6.504-3.393-1.441-2.273-2.162-5.678-2.162-10.213Zm6.047 7.014c.551 1.465 1.424 2.197 2.619 2.197 1.207 0 2.086-.732 2.637-2.197.551-1.465.826-3.803.826-7.014 0-1.218-.041-2.308-.123-3.27l-6.135 9.774c.059.188.118.358.176.51Zm2.619-16.242c-1.195 0-2.068.732-2.619 2.197-.551 1.465-.826 3.809-.826 7.031 0 .996.023 1.905.07 2.725l6.047-9.65-.035-.106c-.551-1.465-1.43-2.197-2.637-2.197Z"/></svg>