<svg xmlns="http://www.w3.org/2000/svg" width="192" height="192" fill="none"><path fill="#fff" fill-rule="evenodd" d="M34.962 122.082a18.873 18.873 0 0 1 5.002 8.705c1.586 6.184 4.805 16.505 9.795 22.511 7.465 8.986 66.661 26.556 80.661 24.53 12.622-1.826 23.794-32.154 25.872-54.967.227-2.493 6.316-5.138 7.253-7.285 4.185-9.586 5.998-37.89-2.605-23.248-3.313 5.639-4.302-27.76-4.302-27.76s-130.15 15.37-136.16 27.76c-4.48 9.235 7.892 23.226 14.484 29.754Z" clip-rule="evenodd"/><path fill="#4A4A4A" fill-rule="evenodd" d="M52.91 120.444c-.014 15.905 2.353 20.881 2.353 20.881s-6.789-5.973-9.242-12.327c-2.453-6.354-4.302-22.75-4.302-22.75s-2.04-6.989-7.042-10.721-7.558-5.174-11.831-3.361c-4.273 1.812-3.317 10.282-3.317 10.282s-3.664-13.596-3.195-24.02c.47-10.423 6.512-25.813 6.512-25.813l-7.342 7.87c-.54.577-1.427.316-1.447-.474-.07-2.767.698-8.31 6.78-13.83 8.588-7.796 17.147-5.897 17.147-5.897l-7.953-14.912c-.474-.887.512-1.84 1.383-1.336l14.607 8.454s.451-2.253 3.113-8.21c1.617-3.618 3.531-5.525 4.785-6.464.586-.44 1.28.03 1.224.76L54.078 32.49s13.966-8.151 39.614-15.484c20.734-5.928 43.577-3.335 51.568-2.125.95.144 1.144 1.437.312 1.918-2.126 1.228-5.149 3.168-7.574 5.482-4.208 4.017-7.711 10.209-7.711 10.209l30.023 1.183c.977.039 1.324 1.31.503 1.84l-10.462 6.743 32.379 25.36a1 1 0 0 1-.3 1.735l-20.671 6.903s.636 5.579 0 11.098c-.637 5.52-3.987 23.486-3.987 23.486s-2.806-9.417-6.367-18.672c-3.56-9.256-6.937-15.912-6.937-15.912s-10.69 1.817-20.31 0c-9.619-1.817-30.466-9.577-30.466-9.577s-.56 5.905 0 11.751c.56 5.847 2.283 12.099 2.283 12.099s-6.507-1.384-10.052-4.71c-3.546-3.327-7.52-11.777-7.52-11.777s-.4 6.222-3.45 11.777c-.86 1.563-2.979 3.728-5.582 6.388-6.648 6.793-16.45 16.809-16.46 28.239Zm-14.606 4.546c1.238 1.975 5.847 19.049 5.847 19.049s-4.708-4.776-8.42-11.38c-3.71-6.604-8.42-18.587-8.42-18.587s9.754 8.942 10.993 10.918Z" clip-rule="evenodd"/></svg>