<svg xmlns="http://www.w3.org/2000/svg" width="192" height="192" fill="none"><rect width="152" height="152" x="20" y="20" fill="#F9DE81" rx="10"/><path fill="#FF837D" fill-rule="evenodd" d="M93.447 63.516a5 5 0 0 1 5.106 0l27 16.03a5 5 0 0 1 2.447 4.3v30.308a5 5 0 0 1-2.447 4.299l-27 16.031a4.997 4.997 0 0 1-5.106 0l-27-16.031A5 5 0 0 1 64 114.154V83.846a5 5 0 0 1 2.447-4.3l27-16.03Z" clip-rule="evenodd"/><path stroke="#F9DE81" stroke-linecap="round" stroke-width="3" d="m64.5 81.5 30 18m19-29-33 19"/></svg>