<svg xmlns="http://www.w3.org/2000/svg" width="192" height="192" fill="none"><rect width="152" height="152" x="20" y="20" fill="#9ABEFF" rx="10"/><path fill="#fff" fill-rule="evenodd" d="M96.5 65c21.815 0 39.5 14.775 39.5 33s-17.685 33-39.5 33S57 116.225 57 98s17.685-33 39.5-33Zm-16 31a8.5 8.5 0 1 1 0 17 8.5 8.5 0 0 1 0-17Zm39.5 8.5a8.5 8.5 0 1 0-17 0 8.5 8.5 0 0 0 17 0Z" clip-rule="evenodd"/><path fill="#fff" fill-rule="evenodd" d="M55.788 69.605A10 10 0 0 1 65.69 61H70l-10 71h-1.493c-6.077 0-10.75-5.377-9.902-11.395l7.183-51Z" clip-rule="evenodd"/><path fill="#fff" fill-rule="evenodd" d="M90.025 61c-8 1-21 19-21 19L66 61h24.025ZM83 132c-8-1-21-19-21-19l-3.025 19H83Zm54.212-62.395A10 10 0 0 0 127.31 61H123l10 71h1.493c6.077 0 10.75-5.377 9.902-11.395l-7.183-51Z" clip-rule="evenodd"/><path fill="#fff" fill-rule="evenodd" d="M102.975 61c8 1 21 19 21 19L127 61h-24.025ZM110 132c8-1 21-19 21-19l3.025 19H110Z" clip-rule="evenodd"/></svg>