<svg xmlns="http://www.w3.org/2000/svg" width="192" height="192" fill="none"><rect width="126" height="174" x="35" y="11" fill="#9ABEFF" rx="10"/><path stroke="#fff" stroke-linecap="square" stroke-width="5" d="M63.38 35.5h68.553m-68.553 14h68.553m-68.553 14h30.811m-30.811 72h68.553m-68.553 14h68.553m-68.553 14h30.811"/><path fill="#728DBE" fill-rule="evenodd" d="M22 54c0-5.523 4.475-10 9.998-10h33.569c8.459 0 11.574 13.256 15.366 13.256h83.091c5.523 0 9.976 4.478 9.976 10V143c0 5.523-4.477 10-10 10H32c-5.523 0-10-4.477-10-10V54Z" clip-rule="evenodd"/></svg>