<svg xmlns="http://www.w3.org/2000/svg" width="192" height="192" fill="none"><rect width="152" height="152" x="20" y="20" fill="#98DC9A" rx="10"/><path fill="#fff" fill-rule="evenodd" d="M63.057 80.487H46.002L46 96.54h33.133c.002-8.867-7.196-16.054-16.076-16.054Z" clip-rule="evenodd"/><path fill="#fff" fill-opacity=".5" fill-rule="evenodd" d="M63.057 113.514H46.002L46 97.46h33.133c.002 8.866-7.196 16.054-16.076 16.054Z" clip-rule="evenodd"/><path fill="#fff" fill-rule="evenodd" d="M133.46 96.094h-16.119C117.34 87.205 124.555 80 133.457 80l.003 16.094Zm0 0L133.463 80c8.902 0 16.117 7.205 16.116 16.094H133.46Z" clip-rule="evenodd"/><path fill="#fff" fill-opacity=".5" fill-rule="evenodd" d="M133.46 96.988h-16.119c-.001 8.888 7.214 16.093 16.116 16.093l.003-16.093Zm0 0 .003 16.093c8.902 0 16.117-7.205 16.116-16.093H133.46Z" clip-rule="evenodd"/><path fill="#fff" fill-rule="evenodd" d="m114.514 114.026-16.054-.003v-33.13l16.054.003v33.13Z" clip-rule="evenodd"/><path fill="#fff" fill-opacity=".5" fill-rule="evenodd" d="M81.487 97.95V80.895l16.053-.002v33.133c-8.866.002-16.053-7.196-16.053-16.076Z" clip-rule="evenodd"/></svg>