<svg xmlns="http://www.w3.org/2000/svg" width="192" height="192" fill="none"><rect width="152" height="152" x="21" y="20" fill="#56595B" rx="10"/><path fill="#fff" d="M90.54 56.58V51H61.02v54h29.52v-5.58H66.78V80.79h20.7v-5.58h-20.7V56.58h23.76Zm38.576 21.06c4.77-2.16 7.92-6.48 7.92-12.24 0-8.46-6.66-14.4-14.94-14.4h-19.62v54h21.51c8.19 0 14.76-5.85 14.76-14.22 0-6.57-3.96-11.25-9.63-13.14Zm2.16-11.79c0 5.31-4.41 9.36-9.81 9.36h-13.32V56.76h13.32c5.4 0 9.81 3.78 9.81 9.09Zm-8.01 33.39h-15.12V80.79h15.12c5.31 0 9.72 4.05 9.72 9.36s-4.41 9.09-9.72 9.09Z"/><path fill="#98DC9A" fill-rule="evenodd" d="M129 20h20v76l-10-9.719L129 96V20Z" clip-rule="evenodd"/></svg>