<svg xmlns="http://www.w3.org/2000/svg" width="192" height="192" fill="none"><rect width="152" height="152" x="20" y="20" fill="#96DFD3" rx="10"/><path fill="#fff" fill-rule="evenodd" d="M70 78a8 8 0 1 0 0-16 8 8 0 0 0 0 16Zm16-8a6 6 0 0 1 6-6h34a6 6 0 1 1 0 12H92a6 6 0 0 1-6-6Z" clip-rule="evenodd"/><rect width="27" height="12" x="86" y="90" fill="#fff" rx="6"/><path fill="#fff" fill-rule="evenodd" d="M86 122a6 6 0 0 1 6-6h34a6 6 0 1 1 0 12H92a6 6 0 0 1-6-6Zm-16-18a8 8 0 1 0 0-16 8 8 0 0 0 0 16Zm0 26a8 8 0 1 0 0-16 8 8 0 0 0 0 16Z" clip-rule="evenodd"/></svg>