<svg xmlns="http://www.w3.org/2000/svg" width="192" height="192" fill="none"><path fill="#F8C18C" fill-rule="evenodd" d="M152.75 60.5c0 31.066-25.184 56.25-56.25 56.25S40.25 91.566 40.25 60.5c0-16.195 6.844-30.79 17.797-41.054C33.141 29.8 16.25 49.9 16.25 73c0 33.689 35.93 61 80.25 61 44.321 0 80.25-27.311 80.25-61 0-23.1-16.891-43.2-41.797-53.554 10.953 10.263 17.797 24.86 17.797 41.054Z" clip-rule="evenodd"/><path fill="#F9DE81" fill-rule="evenodd" d="M96 169c35.346 0 64-28.654 64-64 0-35.346-28.654-64-64-64-35.346 0-64 28.654-64 64 0 35.346 28.654 64 64 64Z" clip-rule="evenodd"/><path fill="#C39A54" d="M81.188 87.01V81.5H64.04V110h6.27V98.505h9.31v-5.51h-9.31V87.01h10.877Zm6.324 4.987 1.425-3.467 1.473 3.468 2.565-1.52-2.28-2.945 3.705.522V85.11l-3.705.475 2.28-2.945-2.565-1.52-1.473 3.515-1.425-3.515-2.517 1.52 2.232 2.945-3.705-.475v2.945l3.705-.523-2.232 2.946 2.517 1.52Zm14.584 0 1.425-3.467 1.473 3.468 2.565-1.52-2.28-2.945 3.705.522V85.11l-3.705.475 2.28-2.945-2.565-1.52-1.473 3.515-1.425-3.515-2.517 1.52 2.232 2.945-3.705-.475v2.945l3.705-.523-2.232 2.946 2.517 1.52ZM131.453 110h8.36l-13.728-15.817L138.388 81.5h-8.075l-9.31 10.07h-1.093V81.5h-6.27V110h6.27V96.985h.903L131.453 110Z"/></svg>