<svg xmlns="http://www.w3.org/2000/svg" width="192" height="192" fill="none"><rect width="152" height="152" x="21" y="20" fill="#8E6F60" rx="10"/><mask id="a" width="152" height="152" x="21" y="20" maskUnits="userSpaceOnUse" style="mask-type:luminance"><rect width="152" height="152" x="21" y="20" fill="#fff" rx="10"/></mask><g mask="url(#a)"><path fill="#56595B" fill-rule="evenodd" d="M138.665 74.016s.486 47.325-21.633 67.441c-22.118 20.116-69.982 15.879-69.982 15.879l20.566-66.597 71.049-16.723Z" clip-rule="evenodd"/><path fill="#FF837D" fill-rule="evenodd" d="M36.052 172.357s26.487-41.827 59.51-66.203c33.025-24.376 57.193-40.017 57.193-40.017l-12.934 1.683 42.331-28.468-4.993-35.738-83.068-18.147L-7.432 3.944S-31.292 104.7-27.667 112.447c3.625 7.746 24.211 81.458 24.211 85.764 0 4.305 39.508-25.854 39.508-25.854Z" clip-rule="evenodd"/><path fill="#F8C18C" fill-rule="evenodd" d="M14.88 166.532s24.689-38.583 47.397-54.351c22.709-15.768 55.97-32.599 55.97-32.599l-69.71 26.746s6.477-34.087 24.558-55.89c18.082-21.805 27.799-29.932 27.799-29.932S48.388 59.772 36.88 72.693C25.37 85.613 18.958 92.34 18.958 92.34s21.61-51.123 34.607-66.865C66.563 9.735 66.113 5.022 66.113 5.022L28.611 40.257 44.077 6.96 13.098 4.77s-9.36 30.885-9.36 33.186c0 2.3 3.783 87.98 3.783 87.98l7.359 40.595Z" clip-rule="evenodd"/><path fill="#D3B69A" fill-rule="evenodd" d="M39.353 172.194s7.767-8.281 16.419-10.176c8.652-1.895 32.46-1.594 53.615-15.486 34.744-22.815 63.564-61.771 63.564-61.771l-26.146 8.718 33.858-45.982 44.848 13.886-52.23 59.506-15.889 12.37s9.668 3.624 13.456 5.181c3.789 1.557 9.815 11.887 9.815 11.887h-41.67s6.221 1.04 22.542 9.882c16.321 8.842 11.416 24.093 11.416 24.093H39.826l-.473-12.108Z" clip-rule="evenodd"/><path fill="#fff" fill-rule="evenodd" d="M54.256 153.832s47.3-50.064 55.323-52.01c8.024-1.946 9.359.58 11.924 4.149 2.566 3.569 6.504 24.885-11.924 38.154-18.427 13.269-55.323 9.707-55.323 9.707Z" clip-rule="evenodd"/><mask id="b" width="70" height="54" x="54" y="101" maskUnits="userSpaceOnUse" style="mask-type:luminance"><path fill="#fff" fill-rule="evenodd" d="M54.256 153.832s47.3-50.064 55.323-52.01c8.024-1.946 9.359.58 11.924 4.149 2.566 3.569 6.504 24.885-11.924 38.154-18.427 13.269-55.323 9.707-55.323 9.707Z" clip-rule="evenodd"/></mask><g mask="url(#b)"><path fill="#9ABEFF" stroke="#728DBE" stroke-width="5" d="M105.5 127.5c0 6.542-2.03 12.371-5.197 16.513-3.165 4.139-7.36 6.487-11.803 6.487-4.442 0-8.638-2.348-11.803-6.487-3.167-4.142-5.197-9.971-5.197-16.513 0-6.542 2.03-12.371 5.197-16.513 3.165-4.139 7.36-6.487 11.803-6.487 4.442 0 8.638 2.348 11.803 6.487 3.167 4.142 5.197 9.971 5.197 16.513Z"/></g></g><path fill="#56595B" fill-rule="evenodd" d="M88.5 142c3.038 0 5.5-4.029 5.5-9s-2.462-9-5.5-9-5.5 4.029-5.5 9 2.462 9 5.5 9Z" clip-rule="evenodd"/><path fill="#fff" fill-rule="evenodd" d="M96 132a7 7 0 1 0 0-14 7 7 0 0 0 0 14Z" clip-rule="evenodd"/></svg>