<svg xmlns="http://www.w3.org/2000/svg" width="192" height="192" fill="none"><path fill="#fff" fill-rule="evenodd" d="M20 161.997C20 167.522 24.477 172 30.003 172h131.994c5.525 0 10.003-4.477 10.003-10.003V30.002C172 24.478 167.523 20 161.997 20H30.002C24.478 20 20 24.477 20 30.003v131.994Z" clip-rule="evenodd"/><path stroke="#D2D2D2" stroke-width="10" d="M65 68v103.637"/><path fill="#F8C18C" fill-rule="evenodd" d="M70 68h59.534c4.204 0 6.531 4.872 3.89 8.142l-11.886 14.716a4.998 4.998 0 0 0 0 6.284l11.886 14.716c2.641 3.27.314 8.142-3.89 8.142H70V68Z" clip-rule="evenodd"/></svg>