<svg xmlns="http://www.w3.org/2000/svg" width="192" height="192" fill="none"><rect width="152" height="152" x="20" y="20" fill="#fff" rx="10"/><path fill="#A0A5AF" d="m72.96 105.5-4.005 8.595-3.983-8.595h-3.734V119h3.442v-7.268L68.032 119h1.846l3.352-7.223V119h3.442v-13.5H72.96Zm14.147 13.68a6.933 6.933 0 0 0 6.93-6.93 6.933 6.933 0 0 0-6.93-6.93 6.919 6.919 0 0 0-6.93 6.93 6.919 6.919 0 0 0 6.93 6.93Zm0-3.375c-2.047 0-3.577-1.507-3.577-3.555 0-2.047 1.53-3.555 3.577-3.555 2.025 0 3.555 1.508 3.555 3.555 0 2.048-1.53 3.555-3.555 3.555Zm19.023-3.667c.945-.518 1.53-1.418 1.53-2.835 0-2.453-1.845-3.803-4.162-3.803h-5.985V119h6.502c2.295 0 4.095-1.26 4.095-3.735 0-1.62-.787-2.61-1.98-3.127Zm-1.912-2.453c0 .608-.518 1.193-1.148 1.193h-2.115v-2.386h2.115c.63 0 1.148.563 1.148 1.193Zm-.72 6.323h-2.543v-2.385h2.543c.675 0 1.17.585 1.17 1.192 0 .63-.495 1.193-1.17 1.193Zm7.985 2.992h3.442v-13.5h-3.442V119Zm10.947-2.992V105.5h-3.442V119h7.74v-2.992h-4.298Zm15.522-7.516V105.5h-8.37V119h8.37v-2.992h-4.927v-2.273h4.162v-2.97h-4.162v-2.273h4.927Z"/><path fill="#56595B" d="M79.44 77.985V72H62.7v27h6.885V88.47h8.325v-5.94h-8.325v-4.545h9.855ZM82.458 99h6.885V72h-6.885v27Zm28.974-21.015V72h-16.74v27h6.885V88.47h8.325v-5.94h-8.325v-4.545h9.855ZM130.785 99h7.38L128.4 72h-7.695l-9.765 27h7.425l1.485-4.725h9.45L130.785 99Zm-9.18-10.305 2.97-9.54 3.015 9.54h-5.985Z"/></svg>