<svg xmlns="http://www.w3.org/2000/svg" width="192" height="192" fill="none"><path fill="#73ADA4" fill-rule="evenodd" d="M99 113c0 10.493 8.507 19 19 19h56.501a9.999 9.999 0 0 1 9.138 5.939L185 141v-25c0-10.493-8.507-19-19-19h-64a3 3 0 0 0-3 3v13Z" clip-rule="evenodd"/><path fill="#BD9AFF" fill-rule="evenodd" d="M97.617 139c22.432 0 40.616-18.356 40.616-41s-18.184-41-40.616-41S57 75.356 57 98s18.185 41 40.617 41Z" clip-rule="evenodd"/><path fill="#FF837D" fill-rule="evenodd" d="M124 11c2.948 4.763 5.858 9.179 8.73 13.247C138.298 32.137 143.722 38.722 149 44c8 8 14 18 18 30-.698-4.938-1.698-9.604-3-14a89.309 89.309 0 0 0-5-13c2.684 1.29 6.018 4.624 10 10 3.172 4.282 5.931 8.959 8.28 14.031 3.655 9.453 5.659 19.727 5.659 30.469 0 46.668-37.831 84.5-84.5 84.5-46.668 0-84.5-37.832-84.5-84.5a84.517 84.517 0 0 1 3.472-24.05C21.345 67.793 25.208 60.31 29 55c4.244-5.942 9.91-11.275 17-16 .379 4.31.712 7.976 1 11 .288 3.024.955 6.357 2 10 5.695-5.687 9.695-9.353 12-11 2.305-1.647 5.305-3.313 9-5-1.333 5-2 8.667-2 11 0 2.181.291 4.945.874 8.29a2 2 0 0 0 .665 1.173C73.975 68.283 77.796 71.796 81 75c2.97 2.97 8.055 5.674 15.257 8.115a2 2 0 0 1 .906 3.16A107.352 107.352 0 0 1 94 90a54.354 54.354 0 0 1-3.495 3.538 2 2 0 0 1-1.17.523C81.265 94.825 75.154 96.138 71 98c-6.4 2.869-10 7-10 11 0 10 13 30 36 30 20 0 36-13 36-33 0-13.333-6.333-24-19-32 4.627-.136 6.627.197 10 1 3.373.803 6.373 2.136 9 4-5-8-9.223-12.9-15-16-5.777-3.1-13.444-5.766-23-6 1.56-11.318 4.56-19.651 9-27 2.538-4.201 5.804-8.07 9.798-11.608 2.992-2.65 6.393-5.114 10.202-7.392Z" clip-rule="evenodd"/><mask id="a" width="170" height="175" x="13" y="11" maskUnits="userSpaceOnUse" style="mask-type:luminance"><path fill="#fff" fill-rule="evenodd" d="M124 11c2.948 4.763 5.858 9.179 8.73 13.247C138.298 32.137 143.722 38.722 149 44c8 8 14 18 18 30-.698-4.938-1.698-9.604-3-14a89.309 89.309 0 0 0-5-13c2.684 1.29 6.018 4.624 10 10 3.172 4.282 5.931 8.959 8.28 14.031 3.655 9.453 5.659 19.727 5.659 30.469 0 46.668-37.831 84.5-84.5 84.5-46.668 0-84.5-37.832-84.5-84.5a84.517 84.517 0 0 1 3.472-24.05C21.345 67.793 25.208 60.31 29 55c4.244-5.942 9.91-11.275 17-16 .379 4.31.712 7.976 1 11 .288 3.024.955 6.357 2 10 5.695-5.687 9.695-9.353 12-11 2.305-1.647 5.305-3.313 9-5-1.333 5-2 8.667-2 11 0 2.181.291 4.945.874 8.29a2 2 0 0 0 .665 1.173C73.975 68.283 77.796 71.796 81 75c2.97 2.97 8.055 5.674 15.257 8.115a2 2 0 0 1 .906 3.16A107.352 107.352 0 0 1 94 90a54.354 54.354 0 0 1-3.495 3.538 2 2 0 0 1-1.17.523C81.265 94.825 75.154 96.138 71 98c-6.4 2.869-10 7-10 11 0 10 13 30 36 30 20 0 36-13 36-33 0-13.333-6.333-24-19-32 4.627-.136 6.627.197 10 1 3.373.803 6.373 2.136 9 4-5-8-9.223-12.9-15-16-5.777-3.1-13.444-5.766-23-6 1.56-11.318 4.56-19.651 9-27 2.538-4.201 5.804-8.07 9.798-11.608 2.992-2.65 6.393-5.114 10.202-7.392Z" clip-rule="evenodd"/></mask><g fill-rule="evenodd" clip-rule="evenodd" mask="url(#a)"><path fill="url(#b)" d="M14.166 95.26a85.746 85.746 0 0 0-.226 6.24c0 46.668 37.831 84.5 84.5 84.5 46.668 0 84.499-37.832 84.499-84.5 0-10.742-2.004-21.016-5.659-30.469-2.349-5.072-5.108-9.75-8.28-14.031-3.982-5.376-7.316-8.71-10-10a89.309 89.309 0 0 1 5 13c1.302 4.396 2.302 9.062 3 14 0 0 9 24 3 45-10.437 36.528-43.177 53.934-74 53-66-2-82-71-82-71l.166-5.74Z"/><path fill="url(#c)" d="M84 137s31 10 60-12 23-51 23-51 9 24 3 45c-10.437 36.528-43.177 53.934-74 53-66-2-82-71-82-71l2-69 33-11v39s11.208-.193 27 6c15.793 6.193 24 14 24 14l5 33-21 24Z"/><path fill="#F8C18C" d="M49 60s15 1 21 4 14-32 14-32l-25 2-10 26Z"/><path fill="#F9DE81" d="M98 86s-6 2-17 2-17.447-7.593-27-8c-9.553-.406-19 6-19 6s5.668 5.897 9 8c3.332 2.105 10 4 10 4s0 5.001 6 20.001 36 21 36 21l2-53Z"/><path fill="url(#d)" d="M133 79s12 10 15 21-1 24-1 24 17-18 20-30 0-20 0-20l-20-53S132 8 130 8s-6 3-6 3-9 8-13 24 8 31 8 31l14 13Z"/><path fill="url(#e)" d="M148 122s-10 8-23 14-25 3-25 3 6-61 6-63 4-8 4-8l17 5 6 6s10 8 14 18 1 25 1 25Z"/><path fill="#F8C18C" d="M116.124 62.043C110.598 59.37 103.557 57.21 95 57c1.56-11.318 4.56-19.651 9-27 2.538-4.201 5.804-8.07 9.798-11.608 2.992-2.65 6.393-5.114 10.202-7.392-6 5.333-10.333 13.333-13 24-2.317 9.266-.608 18.28 5.124 27.043Z"/></g><path fill="#96DFD3" fill-rule="evenodd" d="M99 145c0-10.493 8.507-19 19-19h56.501a9.999 9.999 0 0 0 9.138-5.939L185 117v25c0 10.493-8.507 19-19 19h-64a3 3 0 0 1-3-3v-13Z" clip-rule="evenodd"/><path fill="#fff" d="M121.034 142.88c1.35-.72 2.22-1.98 2.22-3.87 0-3.18-2.4-5.01-5.43-5.01h-7.62v18h8.31c3 0 5.34-1.74 5.34-4.92 0-2.19-1.14-3.54-2.82-4.2Zm-1.74-3.45c0 1.05-.87 1.95-1.95 1.95h-3.18v-3.87h3.18c1.08 0 1.95.84 1.95 1.92Zm-1.35 9.06h-3.78v-3.87h3.78c1.11 0 1.95.9 1.95 1.95 0 1.08-.84 1.92-1.95 1.92Zm19.529-11.01V134h-10.83v18h10.83v-3.48h-6.87v-3.78h5.88v-3.48h-5.88v-3.78h6.87Zm14.088-3.48h-13.02v3.51h4.56V152h3.93v-14.49h4.53V134Zm12.168 18h4.23l-6.48-18h-4.44l-6.48 18h4.23l1.11-3.39h6.72l1.11 3.39Zm-6.78-6.69 2.31-7.14 2.31 7.14h-4.62Z"/><defs><linearGradient id="b" x1="107.312" x2="73.817" y1="54.681" y2="187.617" gradientUnits="userSpaceOnUse"><stop stop-color="#F9DE81"/><stop offset=".613" stop-color="#FF837D" stop-opacity=".01"/><stop offset="1" stop-color="#8C72BD"/></linearGradient><linearGradient id="c" x1="63.424" x2="15.118" y1="53.166" y2="156.099" gradientUnits="userSpaceOnUse"><stop stop-color="#F9DE81"/><stop offset="1" stop-color="#F9C28D" stop-opacity=".15"/></linearGradient><linearGradient id="d" x1="139.486" x2="118.514" y1="58.263" y2="112.294" gradientUnits="userSpaceOnUse"><stop stop-color="#F9DE81"/><stop offset="1" stop-color="#F9DE81" stop-opacity=".01"/></linearGradient><linearGradient id="e" x1="126.279" x2="112.591" y1="97.676" y2="127.61" gradientUnits="userSpaceOnUse"><stop stop-color="#F9DE81"/><stop offset="1" stop-color="#F9DE81" stop-opacity=".01"/></linearGradient></defs></svg>