<svg xmlns="http://www.w3.org/2000/svg" width="192" height="192" fill="none"><path fill="#56595B" fill-rule="evenodd" d="M92.97 9.902a10 10 0 0 1 10.043.028l67.033 39.175A10 10 0 0 1 175 57.738v77.524a10 10 0 0 1-4.954 8.633l-67.033 39.175a9.997 9.997 0 0 1-10.043.028l-67.967-39.212A10 10 0 0 1 20 135.224V57.776a10 10 0 0 1 5.003-8.662L92.97 9.902Z" clip-rule="evenodd"/><mask id="a" width="155" height="177" x="20" y="8" maskUnits="userSpaceOnUse" style="mask-type:luminance"><path fill="#fff" fill-rule="evenodd" d="M92.97 9.902a10 10 0 0 1 10.043.028l67.033 39.175A10 10 0 0 1 175 57.738v77.524a10 10 0 0 1-4.954 8.633l-67.033 39.175a9.997 9.997 0 0 1-10.043.028l-67.967-39.212A10 10 0 0 1 20 135.224V57.776a10 10 0 0 1 5.003-8.662L92.97 9.902Z" clip-rule="evenodd"/></mask><g mask="url(#a)"><path fill="#4A4A4A" fill-rule="evenodd" d="M176 52h-1v89l-77 45V97l78-45Z" clip-rule="evenodd"/><path fill="#B1B5BD" fill-rule="evenodd" d="m98 7 78 45-78 45-78-45L98 7Z" clip-rule="evenodd"/><path stroke="#fff" stroke-width="10" d="M95.469 14.233a5 5 0 0 1 5.021.014l67.033 39.175A5 5 0 0 1 170 57.738v77.524a5 5 0 0 1-2.477 4.317l-67.033 39.174a4.999 4.999 0 0 1-5.021.014l-67.968-39.212A5 5 0 0 1 25 135.224V57.776a5 5 0 0 1 2.501-4.331L95.47 14.233Z"/></g></svg>