<svg xmlns="http://www.w3.org/2000/svg" width="192" height="192" fill="none"><path fill="#9ABEFF" fill-rule="evenodd" d="M96 183c48.049 0 87-38.951 87-87S144.049 9 96 9 9 47.951 9 96s38.951 87 87 87Z" clip-rule="evenodd"/><path fill="#9ABEFF" fill-rule="evenodd" d="M97 161c35.346 0 64-28.654 64-64 0-35.346-28.654-64-64-64-35.346 0-64 28.654-64 64 0 35.346 28.654 64 64 64Z" clip-rule="evenodd"/><path stroke="#fff" stroke-width="10" d="M51.547 141.308c11.49 11.512 27.375 18.634 44.924 18.634 35.054 0 63.471-28.417 63.471-63.47 0-35.055-28.417-63.472-63.47-63.472-4.26 0-8.423.42-12.447 1.22"/><path stroke="#fff" stroke-width="10" d="M52.46 119.622c8.326 15.798 24.91 26.568 44.01 26.568 27.459 0 49.719-22.26 49.719-49.719 0-21.231-13.308-39.355-32.038-46.483"/><path stroke="#fff" stroke-width="10" d="M71.128 121.993c6.502 6.456 15.457 10.445 25.343 10.445 19.864 0 35.967-16.103 35.967-35.967 0-19.864-16.103-35.967-35.967-35.967"/></svg>