<svg xmlns="http://www.w3.org/2000/svg" width="192" height="192" fill="none"><rect width="152" height="152" x="20" y="20" fill="#98DC9A" rx="10"/><path fill="#000" fill-opacity=".25" fill-rule="evenodd" d="M172 55.07V30.002C172 24.477 167.522 20 161.997 20H30.002C24.477 20 20 24.478 20 30.003v11.864c.598-4.99 4.86-8.867 9.998-8.867h33.569c8.458 0 11.574 13.256 15.366 13.256h83.064c5.123 0 9.377 3.848 10.003 8.813ZM97.5 77c9.234 0 17.126 3.275 23.675 9.825 6.55 6.55 9.825 14.441 9.825 23.675s-3.275 17.126-9.825 23.675C114.626 140.725 106.734 144 97.5 144s-17.126-3.275-23.675-9.825C67.275 127.626 64 119.734 64 110.5s3.275-17.126 9.825-23.675C80.374 80.275 88.266 77 97.5 77Zm-3.543 62.007.886-1.771.885-1.772c.215-.43.323-.886.323-1.369s-.269-.94-.806-1.369c-1.718-1.503-2.953-2.631-3.704-3.382-.215-.215-.537-.832-.966-1.852-.43-1.02-.591-1.638-.484-1.853.537-.966.967-2.254 1.289-3.865.322-1.288-.376-2.47-2.094-3.543a14.723 14.723 0 0 1-2.255-1.611 209.917 209.917 0 0 0-4.67-3.865c-1.933-1.396-3.007-2.416-3.222-3.06-.966-2.792-1.503-4.295-1.61-4.51-.966-1.396-1.557-2.872-1.772-4.429-.215-1.557-.16-3.194.161-4.912 0-.752-.107-2.094-.322-4.027-4.51 5.154-6.764 11.382-6.764 18.683 0 7.946 2.791 14.71 8.375 20.293 4.617 4.617 10.2 7.355 16.75 8.214Zm23.836-8.214c3.758-3.758 6.282-8.16 7.57-13.206l-3.06-.323c-2.255-2.577-3.49-4.992-3.704-7.247-.108-.967-.161-2.47-.161-4.51 0-2.04-.108-3.597-.323-4.67-.214-.967-.939-2.309-2.174-4.027-1.235-1.718-1.959-2.845-2.174-3.382-.322-.752-.832-1.88-1.53-3.382-.698-1.504-1.262-2.63-1.691-3.383.107 0 .295.054.563.162.269.107.457.214.564.322 1.074-.215 1.825-.323 2.255-.323-3.436-2.469-7.516-4.026-12.24-4.67v1.288l.644 1.45-2.255 2.094-1.45-.484-1.61-1.61-1.61-1.933-2.256-.805c-2.254.322-4.67 1.02-7.247 2.094v1.127c.322-.215.913-.43 1.772-.644.858-.215 1.503-.43 1.932-.644.215-.108 1.074.375 2.577 1.45-.107.106-.698.616-1.772 1.53-1.073.912-1.664 1.53-1.771 1.851 0 .108.188.35.564.725.375.376.563.671.563.886 0 .322-.027.778-.08 1.369-.054.59-.08 1.047-.08 1.369 2.254-2.255 3.435-3.382 3.542-3.382.967-.215 2.148.241 3.544 1.369 1.396 1.127 2.2 2.066 2.416 2.818.107.322-.108.779-.645 1.37-.536.59-1.395 1.368-2.577 2.334-1.18.967-1.879 1.557-2.093 1.772-.215.215-.698.564-1.45 1.047s-1.288.939-1.61 1.369c-.323.429-.376.913-.162 1.449 1.074 2.148 1.343 3.436.806 3.866-.215.215-.483.241-.805.08-.323-.161-.564-.349-.725-.563a20.534 20.534 0 0 0-.644-.806 11.659 11.659 0 0 0-.564-.644c-.644-.751-2.684-1.127-6.12-1.127 0 3.436.805 5.744 2.415 6.925 4.403 3.221 6.926 4.993 7.57 5.315.644.322 1.933.322 3.866 0 1.932-.322 3.167-.268 3.704.161 3.543 2.47 6.066 4.027 7.57 4.671.966.322 2.04 1.047 3.221 2.174 1.181 1.128 1.503 2.067.966 2.819-1.396 2.147-2.147 3.382-2.255 3.704-.859 1.825-1.932 3.167-3.221 4.026-1.396 1.074-2.523 2.631-3.382 4.671 5.798-1.181 10.737-3.812 14.817-7.892Z" clip-rule="evenodd"/></svg>