<svg xmlns="http://www.w3.org/2000/svg" width="192" height="192" fill="none"><path fill="#98DC9A" fill-rule="evenodd" d="M42 32c0-5.523 4.477-10 10-10h106c5.523 0 10 4.477 10 10v106c0 5.523-4.477 10-10 10H52c-5.523 0-10-4.477-10-10V32Z" clip-rule="evenodd"/><path fill="#F8C18C" fill-rule="evenodd" d="M59 45c0-5.523 4.477-10 10-10h106c5.523 0 10 4.477 10 10v106c0 5.523-4.477 10-10 10H69c-5.523 0-10-4.477-10-10V45Z" clip-rule="evenodd"/><rect width="126" height="126" x="22" y="48" fill="#9ABEFF" rx="10"/><path fill="#fff" fill-rule="evenodd" d="M62.837 148.152c6.075 0 11-4.954 11-11.065 0-6.112-4.925-11.066-11-11.066s-11 4.954-11 11.066c0 6.111 4.925 11.065 11 11.065Z" clip-rule="evenodd"/><mask id="a" width="68" height="75" x="56" y="71" maskUnits="userSpaceOnUse" style="mask-type:luminance"><path fill="#fff" d="M56.041 71H124v74.442H56.041z"/></mask><g stroke="#fff" stroke-width="10" clip-rule="evenodd" mask="url(#a)"><path d="M62.081 168.231c16.682 0 30.205-13.604 30.205-30.385 0-16.781-13.523-30.385-30.205-30.385-16.68 0-30.204 13.604-30.204 30.385 0 16.781 13.523 30.385 30.204 30.385Z"/><path d="M62.082 191.019c29.192 0 52.857-23.806 52.857-53.173S91.274 84.673 62.082 84.673 9.225 108.479 9.225 137.846s23.665 53.173 52.857 53.173Z"/></g></svg>