<svg xmlns="http://www.w3.org/2000/svg" width="192" height="192" fill="none"><rect width="152" height="152" x="172" y="172" fill="#FCECDC" rx="10" transform="rotate(180 172 172)"/><path fill="#56595B" d="M50.876 56.548c-3.852 0-5.652 2.52-5.652 6.336v13.032c0 3.816 1.8 6.336 5.652 6.336 3.888 0 5.688-2.52 5.688-6.336V68.5h-5.256v2.52H53.9v5.04c0 2.268-.9 3.636-2.952 3.636-2.016 0-2.952-1.368-2.952-3.636V62.74c0-2.268.936-3.636 2.952-3.636 2.052 0 2.952 1.368 2.952 3.636v2.304h2.664v-2.16c0-3.816-1.8-6.336-5.688-6.336Zm8.13 19.368c0 3.816 1.907 6.336 5.76 6.336 3.887 0 5.795-2.52 5.795-6.336V62.884c0-3.852-1.908-6.336-5.796-6.336-3.852 0-5.76 2.484-5.76 6.336v13.032Zm2.771-13.176c0-2.268.972-3.636 2.988-3.636 2.052 0 2.988 1.368 2.988 3.636v13.32c0 2.304-.936 3.636-2.988 3.636-2.016 0-2.988-1.332-2.988-3.636V62.74Zm14.1-5.94h-2.772v19.116c0 3.816 1.764 6.372 5.616 6.372 3.888 0 5.652-2.556 5.652-6.372V56.8h-2.628v19.26c0 2.268-.9 3.636-2.916 3.636-2.052 0-2.952-1.368-2.952-3.636V56.8Zm11.258 0V82h2.808V71.236h1.98c2.34 0 3.672.9 3.672 3.744v3.96c0 1.692.144 2.34.468 3.06h2.844c-.468-.864-.504-1.908-.504-3.024v-3.924c0-2.7-.864-4.572-3.168-5.256 2.16-.684 3.132-2.412 3.132-5.184V62.56c0-3.744-1.656-5.76-5.616-5.76h-5.616Zm2.808 11.88v-9.324h2.736c2.088 0 2.916 1.188 2.916 3.456v2.412c0 2.736-1.332 3.456-3.564 3.456h-2.088Zm24.644-6.948V82h2.664V56.8h-3.924l-3.996 20.124-4.14-20.124h-3.924V82h2.448V61.912l4.176 20.052h2.7l3.996-20.232Zm8.368 6.228v-8.604h7.56V56.8h-10.368V82h10.368v-2.556h-7.56V70.48h6.156v-2.52h-6.156ZM139.6 82V59.356h4.644V56.8h-12.096v2.556h4.644V82h2.808Zm-94.16 6.8V114h5.796c3.924 0 5.76-2.124 5.76-5.904v-2.124c0-2.772-.936-4.716-3.384-5.4 2.196-.684 2.952-2.34 2.952-5.004V94.38c0-3.708-1.548-5.58-5.472-5.58H45.44Zm2.808 10.692v-8.136h2.772c2.016 0 2.772 1.08 2.772 3.312v1.476c0 2.628-1.152 3.348-3.384 3.348h-2.16Zm0 11.952v-9.396h2.448c2.412 0 3.528.936 3.528 3.744v2.232c0 2.34-.936 3.42-2.988 3.42h-2.988ZM62.202 88.8H59.43v19.116c0 3.816 1.764 6.372 5.616 6.372 3.888 0 5.652-2.556 5.652-6.372V88.8H68.07v19.26c0 2.268-.9 3.636-2.916 3.636-2.052 0-2.952-1.368-2.952-3.636V88.8Zm11.258 0V114h2.808v-10.764h1.98c2.34 0 3.671.9 3.671 3.744v3.96c0 1.692.145 2.34.469 3.06h2.843c-.468-.864-.503-1.908-.503-3.024v-3.924c0-2.7-.864-4.572-3.168-5.256 2.16-.684 3.132-2.412 3.132-5.184V94.56c0-3.744-1.656-5.76-5.616-5.76H73.46Zm2.808 11.88v-9.324h2.736c2.087 0 2.915 1.188 2.915 3.456v2.412c0 2.736-1.331 3.456-3.563 3.456h-2.088Zm16.796-12.132c-3.852 0-5.652 2.52-5.652 6.336v13.032c0 3.816 1.8 6.336 5.651 6.336 3.888 0 5.688-2.52 5.688-6.336V100.5h-5.255v2.52h2.592v5.04c0 2.268-.9 3.636-2.953 3.636-2.016 0-2.952-1.368-2.952-3.636V94.74c0-2.268.936-3.636 2.952-3.636 2.052 0 2.953 1.368 2.953 3.636v2.304h2.663v-2.16c0-3.816-1.8-6.336-5.688-6.336Zm11.153 11.412v-8.604h7.56V88.8h-10.368V114h10.368v-2.556h-7.56v-8.964h6.156v-2.52h-6.156Zm10.164-11.16V114h2.808v-10.764h1.98c2.34 0 3.672.9 3.672 3.744v3.96c0 1.692.144 2.34.468 3.06h2.844c-.468-.864-.504-1.908-.504-3.024v-3.924c0-2.7-.864-4.572-3.168-5.256 2.16-.684 3.132-2.412 3.132-5.184V94.56c0-3.744-1.656-5.76-5.616-5.76h-5.616Zm2.808 11.88v-9.324h2.736c2.088 0 2.916 1.188 2.916 3.456v2.412c0 2.736-1.332 3.456-3.564 3.456h-2.088ZM55.124 146h2.88l-6.588-13.716 6.372-11.484h-2.844l-6.696 12.168V120.8H45.44V146h2.808v-8.46l1.476-2.484 5.4 10.944Zm5.046-25.2V146h2.808v-25.2H60.17ZM72.346 146v-22.644h4.644V120.8H64.894v2.556h4.644V146h2.808Zm12.034-25.452c-3.852 0-5.652 2.52-5.652 6.336v13.032c0 3.816 1.8 6.336 5.652 6.336 3.888 0 5.688-2.52 5.688-6.336v-3.132h-2.664v3.276c0 2.268-.9 3.636-2.952 3.636-2.016 0-2.952-1.368-2.952-3.636v-13.32c0-2.268.936-3.636 2.952-3.636 2.052 0 2.952 1.368 2.952 3.636v2.412h2.664v-2.268c0-3.816-1.8-6.336-5.688-6.336Zm17.24 14.112V146h2.808v-25.2h-2.808v11.34h-6.192V120.8H92.62V146h2.808v-11.34h6.192Zm8.503-2.7v-8.604h7.56V120.8h-10.368V146h10.368v-2.556h-7.56v-8.964h6.156v-2.52h-6.156Zm12.649-6.336L129.216 146h2.916v-25.2h-2.484v18.216l-5.832-18.216h-3.564V146h2.52v-20.376Z"/></svg>