<svg xmlns="http://www.w3.org/2000/svg" width="192" height="192" fill="none"><rect width="152" height="152" x="20" y="20" fill="#fff" rx="10"/><path fill="#9ABEFF" fill-rule="evenodd" d="M34 40a5 5 0 0 1 5-5h116a5 5 0 0 1 5 5v88a5 5 0 0 1-5 5H39a5 5 0 0 1-5-5V40Z" clip-rule="evenodd"/><mask id="a" width="126" height="98" x="34" y="35" maskUnits="userSpaceOnUse" style="mask-type:luminance"><path fill="#fff" fill-rule="evenodd" d="M34 40a5 5 0 0 1 5-5h116a5 5 0 0 1 5 5v88a5 5 0 0 1-5 5H39a5 5 0 0 1-5-5V40Z" clip-rule="evenodd"/></mask><g mask="url(#a)"><path fill="#728DBE" fill-rule="evenodd" d="M81.841 122.1c15.283 1.607 28.974-9.474 30.58-24.75 1.605-15.275-9.483-28.96-24.766-30.566-15.283-1.607-28.974 9.474-30.58 24.75-1.605 15.275 9.483 28.96 24.766 30.566Z" clip-rule="evenodd"/><path fill="#728DBE" fill-rule="evenodd" d="M109.093 103.659c15.283 1.606 28.974-9.475 30.58-24.75 1.605-15.275-9.483-28.96-24.766-30.567-15.283-1.606-28.974 9.475-30.58 24.75-1.605 15.275 9.483 28.961 24.766 30.567Z" clip-rule="evenodd"/><path fill="#000" fill-opacity=".25" fill-rule="evenodd" d="M109.093 103.659c15.283 1.606 28.974-9.475 30.58-24.75 1.605-15.275-9.483-28.96-24.766-30.567-15.283-1.606-28.974 9.475-30.58 24.75-1.605 15.275 9.483 28.961 24.766 30.567Z" clip-rule="evenodd"/><path fill="#56595B" fill-rule="evenodd" d="M136.345 85.217c15.283 1.606 28.974-9.475 30.58-24.75 1.605-15.276-9.483-28.961-24.766-30.567-15.283-1.607-28.974 9.474-30.579 24.75-1.606 15.275 9.482 28.96 24.765 30.567Z" clip-rule="evenodd"/><path stroke="#fff" stroke-width="5" d="M149.52 58.638c-.595 5.666-5.674 9.779-11.347 9.182-5.672-.596-9.785-5.674-9.189-11.34.595-5.667 5.674-9.78 11.347-9.183 5.672.596 9.785 5.675 9.189 11.34Z"/></g></svg>