<svg xmlns="http://www.w3.org/2000/svg" width="192" height="192" fill="none"><path fill="#fff" fill-rule="evenodd" d="M105.42 174h59.075c5.523 0 10-4.477 10-10V60c0-5.523-4.477-10-10-10h-99l39.925 124Z" clip-rule="evenodd"/><path fill="#B1B5BD" d="M116.736 94.128v4.992h7.296c2.016 6.96 5.616 13.056 10.8 18.336-4.992 4.224-11.328 7.296-18.96 9.264l2.688 4.416c7.824-2.208 14.448-5.712 19.824-10.464 5.088 4.224 11.472 7.776 19.152 10.656l2.784-4.272c-7.296-2.688-13.44-5.952-18.384-9.888 4.416-4.848 7.776-10.848 10.08-18.048h7.248v-4.992H141.12c-1.44-3.12-3.024-5.808-4.752-8.064l-5.04 1.824c1.728 1.968 3.216 4.032 4.416 6.24h-19.008Zm12.096 4.992h18c-1.872 5.808-4.704 10.8-8.448 14.928-4.416-4.32-7.584-9.264-9.552-14.928Z"/><path fill="#9ABEFF" fill-rule="evenodd" d="M91.075 22H32c-5.523 0-10 4.477-10 10v104c0 5.523 4.477 10 10 10h99L91.075 22Z" clip-rule="evenodd"/><path fill="#728DBE" fill-rule="evenodd" d="M96 146h35.042l-26.696 29.051L96 146Z" clip-rule="evenodd"/><path fill="#fff" fill-rule="evenodd" d="M68.507 84.363v7.887H81.14c-2.144 4.823-6.891 8.039-12.558 8.039-7.733 0-13.706-5.972-13.706-13.706 0-7.733 5.973-13.706 13.706-13.706 5.437 0 9.878 2.91 12.175 7.275l8.729-4.518C85.505 68.13 77.619 63 68.584 63 55.49 63 45 73.567 45 86.584c0 13.016 10.49 23.583 23.584 23.583 13.016 0 23.583-10.567 23.583-23.584v-2.22h-23.66Z" clip-rule="evenodd"/></svg>