<svg xmlns="http://www.w3.org/2000/svg" width="192" height="192" fill="none"><path fill="#fff" fill-rule="evenodd" d="M183 96c0 48.049-38.951 87-87 87S9 144.049 9 96 47.951 9 96 9s87 38.951 87 87Z" clip-rule="evenodd"/><path fill="#fff" fill-rule="evenodd" d="M95.949 92.416v14.479h16.861c-3.446 5.569-9.477 9.157-16.738 9.157-11.2 0-19.57-8.291-19.57-19.552s8.37-19.552 19.57-19.552c7.877 0 14.277 4.083 17.477 10.518l16.246-8.291c-6.277-12.375-19.077-20.79-33.723-20.79-21.046 0-37.908 17.078-37.908 38.115 0 21.037 16.862 38.115 37.908 38.115 20.923 0 37.907-17.078 37.907-38.115v-4.084h-38.03Z" clip-rule="evenodd"/><mask id="a" width="76" height="77" x="58" y="58" maskUnits="userSpaceOnUse" style="mask-type:luminance"><path fill="#fff" fill-rule="evenodd" d="M95.949 92.416v14.479h16.861c-3.446 5.569-9.477 9.157-16.738 9.157-11.2 0-19.57-8.291-19.57-19.552s8.37-19.552 19.57-19.552c7.877 0 14.277 4.083 17.477 10.518l16.246-8.291c-6.277-12.375-19.077-20.79-33.723-20.79-21.046 0-37.908 17.078-37.908 38.115 0 21.037 16.862 38.115 37.908 38.115 20.923 0 37.907-17.078 37.907-38.115v-4.084h-38.03Z" clip-rule="evenodd"/></mask><g fill-rule="evenodd" clip-rule="evenodd" mask="url(#a)"><path fill="#9ABEFF" d="m46.152 151.559-6.826-93.704c-.404-5.55 3.8-10.362 9.355-10.707l78.016-4.838c5.756-.356 10.619 4.215 10.619 9.981v89.268c0 5.523-4.477 10-10 10H46.152Z"/><path fill="#98DC9A" d="M137.421 146.265 69.261 79.8l-39.295 72.08h107.166l.289-5.615Z"/><path fill="#FF837D" d="m149.374 85.81-71.11 5.936-48.298-46.349 107.061-3.79 12.347 44.202Z"/><path fill="#F9DE81" d="m29.966 45.434 7.018 51.344v54.839l31.68-37.561 18.194-17.109-56.892-51.513Z"/></g></svg>