<svg xmlns="http://www.w3.org/2000/svg" width="192" height="192" fill="none"><path fill="#98DC9A" fill-rule="evenodd" d="M79 49.58 9 116.316V59.58c0-5.523 4.477-10 10-10h60Z" clip-rule="evenodd"/><path fill="#9ABEFF" fill-rule="evenodd" d="M9 115.943 96 33h77c5.523 0 10 4.477 10 10v106c0 5.523-4.477 10-10 10H19c-5.523 0-10-4.477-10-10v-33.057Z" clip-rule="evenodd"/><path fill="#FF837D" fill-rule="evenodd" d="M9 115.943 96 33v72.943c0 5.523-4.477 10-10 10H9Z" clip-rule="evenodd"/><path fill="#F9DE81" fill-rule="evenodd" d="M9 115.943 96 33 74.278 87.178a10 10 0 0 1-5.66 5.6L9 115.943Z" clip-rule="evenodd"/></svg>