<svg xmlns="http://www.w3.org/2000/svg" width="192" height="192" fill="none"><rect width="142" height="142" x="25" y="23" fill="#98DC9A" stroke="#F9DE81" stroke-width="10" rx="5"/><path fill="#fff" fill-opacity=".7" fill-rule="evenodd" d="M75.196 93.849c4.066 0 7.362-3.325 7.362-7.425S79.261 79 75.196 79c-4.065 0-7.36 3.324-7.36 7.424 0 4.1 3.295 7.424 7.36 7.424Zm14.197 12.727c0-4.101-6.356-7.424-14.197-7.424-7.84 0-14.196 3.323-14.196 7.424V114h28.393v-7.424Zm27.803-12.727c4.066 0 7.362-3.325 7.362-7.425S121.262 79 117.196 79c-4.065 0-7.361 3.324-7.361 7.424 0 4.1 3.296 7.424 7.361 7.424Zm14.197 12.727c0-4.101-6.356-7.424-14.197-7.424-7.84 0-14.196 3.323-14.196 7.424V114h28.393v-7.424Z" clip-rule="evenodd"/><path fill="#fff" fill-rule="evenodd" d="M96.964 89.818c4.879 0 8.834-3.989 8.834-8.909 0-4.92-3.955-8.909-8.834-8.909-4.878 0-8.833 3.989-8.833 8.91 0 4.92 3.955 8.908 8.833 8.908ZM114 105.091c0-4.92-7.627-8.91-17.036-8.91-9.408 0-17.035 3.99-17.035 8.91V114H114v-8.909Z" clip-rule="evenodd"/><path fill="#fff" d="M96 150h36v10H96z"/></svg>