<svg xmlns="http://www.w3.org/2000/svg" width="192" height="192" fill="none"><rect width="152" height="152" x="20" y="20" fill="#FF837D" rx="10"/><path fill="#9ABEFF" d="M20 121h152v41c0 5.523-4.477 10-10 10H30c-5.523 0-10-4.477-10-10v-41Z"/><path fill="#F9DE81" d="M20 71h152v50H20z"/><path fill="#fff" d="M137.78 54h4.23l-6.48-18h-4.44l-6.48 18h4.23l1.11-3.39h6.72l1.11 3.39ZM131 47.31l2.31-7.14 2.31 7.14H131ZM149.747 54h2.91v-5.97h5.97v-2.94h-5.97v-5.97h-2.91v5.97h-6v2.94h6V54Zm-11.967 51h4.23l-6.48-18h-4.44l-6.48 18h4.23l1.11-3.39h6.72l1.11 3.39ZM131 98.31l2.31-7.14 2.31 7.14H131Zm12.507 1.77h8.4v-2.64h-8.4v2.64Zm-5.907 46.8c1.35-.72 2.22-1.98 2.22-3.87 0-3.18-2.4-5.01-5.43-5.01h-7.62v18h8.31c3 0 5.34-1.74 5.34-4.92 0-2.19-1.14-3.54-2.82-4.2Zm-1.74-3.45c0 1.05-.87 1.95-1.95 1.95h-3.18v-3.87h3.18c1.08 0 1.95.84 1.95 1.92Zm-1.35 9.06h-3.78v-3.87h3.78c1.11 0 1.95.9 1.95 1.95 0 1.08-.84 1.92-1.95 1.92Zm14.909 3.51h2.91v-5.97h5.97v-2.94h-5.97v-5.97h-2.91v5.97h-6v2.94h6V156Z"/></svg>