<svg xmlns="http://www.w3.org/2000/svg" width="192" height="192" fill="none"><rect width="152" height="152" x="20" y="20" fill="#F9DE81" rx="10"/><path fill="#fff" fill-rule="evenodd" d="M98 129.724c-8.444 0-21.708-6.755-25.9-9.25-4.348-2.514-11.062-36.52-11.099-53.032.007-.233.004-.607 0-1.058-.016-1.881-.043-5.108.617-5.108C61.038 74.86 98 74.842 98 74.842s36.962.018 36.382-13.566c.66 0 .632 3.227.617 5.108-.004.451-.007.825 0 1.058-.037 16.512-6.751 50.518-11.1 53.032-4.191 2.495-17.455 9.25-25.899 9.25ZM80.274 105.4c4.71 1.262 9.713.2 10.61-3.15.898-3.35-.418-6.105-6.356-7.696-5.938-1.591-9.631-2.181-10.529 1.168-.898 3.35 1.564 8.416 6.275 9.678Zm24.533-3.15c.897 3.35 5.901 4.412 10.611 3.15 4.71-1.262 7.172-6.328 6.274-9.678-.897-3.35-4.59-2.76-10.528-1.168-5.938 1.59-7.255 4.346-6.357 7.696Z" clip-rule="evenodd"/></svg>