<svg xmlns="http://www.w3.org/2000/svg" width="192" height="192" fill="none"><rect width="152" height="152" x="20" y="20" fill="#BD9AFF" rx="10"/><path fill="#fff" fill-rule="evenodd" d="M63.237 57.303s4.337 5.912 12.733 11.532c4.902 3.282 8.096 4.519 10.846 5.584 1.96.76 3.696 1.431 5.665 2.695 2.962 1.9 5.73 4.922 7.385 6.914.581.7 1.788.378 1.916-.523.163-1.15.36-2.419.53-3.182.369-1.66 1.117-3.21 1.117-3.21s-5.628-1.81-6.937-2.657c-1.309-.847-1.71-2.941-1.71-2.941s.759.234 6.048-.81c3.174-.627 5.053-2.017 6.565-3.136 1.008-.746 1.853-1.371 2.81-1.569 2.392-.494 5.419 1.648 5.419 1.648s4.905-2.566 7.347-.571c2.443 1.995 1.973 8.182 1.973 8.182s-5.785.075-5.808 2.708c-.01 1.235.793 1.778 1.934 2.548 1.291.872 3.014 2.036 4.481 4.824 2.763 5.253 3.286 11.689 3.286 11.689l-2.893-1.156s2.492 6.194 1.827 10.443c-.666 4.25-4.8 7.696-4.8 7.696l.381 13.828s-.033 1.498 2.199 1.963c1.003.208 1.862.025 2.674-.148.995-.212 1.92-.41 2.952.148 1.876 1.012 2.729 4.508 2.729 4.508h-18.913s-.611-1.689.631-3.172c1.242-1.484 3.512-1.777 3.512-1.777s-1.666-8.818-7.282-9.37c-5.617-.552-10.41 7.122-10.41 7.122s-1.004 1.98 1.985 2.689c1.578.374 2.861-.022 3.994-.372 1.014-.312 1.907-.588 2.782-.241 1.587.629 2.104 2.909 2.326 3.889.037.164.066.291.091.369.169.541-.768.994-.768.994H83.607s-12.836 0-15.588-6.49c-2.478-5.844 1.603-9.599 4.91-12.643.366-.336.722-.664 1.058-.985 3.384-3.224 3.504-3.672 3.504-5.367 0-1.141-.9-2.402-1.491-3.106v.15h-9v-4h-4V88h5v5h4v4h4v5.681c.3.207 2.75 1.934 3.396 3.634.688 1.813 1.276 4.494-1.344 7.696-.82 1.001-1.898 1.837-2.994 2.686-2.411 1.869-4.907 3.802-4.907 7.698 0 5.665 7.9 5.87 7.9 5.87l7.852-2.314v-13.044s-.064-5.265 1.947-7.84c2.01-2.575 6.085-4.478 7.671-4.478 1.586 0 3.567-1.024 3.567-1.024s-11.016-2.358-16.166-5.887c-5.15-3.53-8.013-10.682-8.013-10.682s3.337.525 6.18.343c2.842-.182 5.641-1.1 5.641-1.1s-11.245.074-17.524-7.125c-6.28-7.2-5.969-19.81-5.969-19.81ZM63 82h-5v5h5v-5Z" clip-rule="evenodd"/></svg>