<svg xmlns="http://www.w3.org/2000/svg" width="192" height="192" fill="none"><rect width="152" height="152" x="20" y="20" fill="#4A4A4A" rx="10"/><path fill="#fff" d="M53.275 87v6.35H46.1V87h-2.45v15h2.45v-6.375h7.175V102h2.45V87h-2.45Zm16.871 0h-2.825l-3.625 5.65-3.6-5.65h-2.875l5.25 7.95V102h2.45v-7.1l5.225-7.9Zm7.367 0h-5.875v15h2.45v-6.375h3.425c2.425 0 4.325-1.85 4.325-4.275 0-2.4-1.9-4.35-4.325-4.35Zm-.35 6.5h-3.075v-4.275h3.075c1.3 0 2.275.85 2.275 2.15 0 1.325-.975 2.125-2.275 2.125Zm15.31-4.275V87h-8.6v15h8.6v-2.225h-6.15v-4.15h5.325v-2.25h-5.325v-4.15h6.15Zm11.14 5.175c1.225-.6 2-1.725 2-3.325 0-2.475-1.925-4.075-4.325-4.075h-5.9v15h6.45c2.375 0 4.275-1.55 4.275-4.025 0-1.825-1.025-3.025-2.5-3.575Zm-.45-3.075c0 1.175-.975 2.1-2.15 2.1h-3.2v-4.15h3.2c1.175 0 2.15.85 2.15 2.05Zm-1.675 8.4h-3.675v-4.15h3.675c1.2 0 2.175.925 2.175 2.1s-.975 2.05-2.175 2.05Zm15.946-10.5V87h-8.6v15h8.6v-2.225h-6.15v-4.15h5.325v-2.25h-5.325v-4.15h6.15ZM129.449 102h2.65l-5.425-15h-2.725l-5.425 15h2.65l1.075-3.175h6.125l1.075 3.175Zm-6.475-5.325 2.35-7 2.35 7h-4.7Zm14.773 5.525c2.7 0 4.9-1.6 4.9-4.3 0-5.325-7.1-4.025-7.1-7.1 0-1.175.925-1.725 2.025-1.725 1 0 1.9.45 2.575 1.3l1.725-1.575c-.95-1.175-2.525-2-4.3-2-2.35 0-4.475 1.475-4.475 4.175 0 4.975 7.1 3.75 7.1 6.925 0 1.225-1.025 1.95-2.425 1.95-1.525 0-2.675-.85-3.2-2.125l-2.1 1.275c.875 1.875 2.875 3.2 5.275 3.2ZM153.695 87H143.32v2.275h3.975V102h2.425V89.275h3.975V87Z"/></svg>