<svg xmlns="http://www.w3.org/2000/svg" width="192" height="192" fill="none"><path fill="#98DC9A" fill-rule="evenodd" d="M47.198 86.755C49.646 26.925 147.884 17.341 172 19.001c1.928 28.907 4.549 100.977-28.508 125.949-33.056 24.972-98.742 1.635-96.294-58.195Zm-27.343 61.688c5.256-4.779 11.545-.319 15.404 4.139 3.86 4.459 16.049 4.377 23.703-4.139 2.613-2.908 9.793-11.661 21.541-26.259.753-.935 6.916-7.917 4.918-18.022-1.864-9.42-10.796-22.584-8.505-27.98 2.29-5.395 9.23 1.19 11.43 11.131 2.237 10.113 1.328 23.279 2.735 21.519 2.662-3.332 7.358-9.158 11.919-16.833 2.03-3.417 3.926-3.806-4.646-25.673-1.993-5.086 1.468-7.97 4.646-8.286 9.068-.901 4.926 29.76 6.565 27.768 2.363-2.874 6.747-8.357 13.15-16.45.478-.606-8.653-22.072-1.398-23.266 7.254-1.194 5.184 18.474 5.184 18.474s16.318-28.848 22.323-24.28c6.004 4.569-18.328 27.362-18.328 27.362s19.946-6.508 18.328 1.053c-1.618 7.562-21.514 3.075-22.003 3.71a3305.1 3305.1 0 0 0-13.955 18.23c-.469.618 8.931-2.289 17.63-2.642 7.515-.304 14.527 1.564 13.979 6.077-1.181 9.734-35.017.954-36.254 2.703-3.558 5.031-8.672 12.112-12.221 17.064-.869 1.212 47.436-5.011 44.559 6.343-2.877 11.355-47.212-2.336-47.785-1.542-11.796 16.378-28.94 44.832-39.637 50.88-10.697 6.048-25.496 2.01-30.04-1.858-4.544-3.868-8.499-14.445-3.242-19.223Z" clip-rule="evenodd"/></svg>