<svg xmlns="http://www.w3.org/2000/svg" width="192" height="192" fill="none"><rect width="152" height="152" x="21" y="20" fill="#fff" rx="10"/><mask id="a" fill="#fff"><path fill-rule="evenodd" d="M146 96c0 27.614-22.386 50-50 50-8.842 0-17.147-2.295-24.354-6.322H57.322a5 5 0 0 1-5-5v-14.324C48.295 113.148 46 104.842 46 96c0-27.614 22.386-50 50-50s50 22.386 50 50Z" clip-rule="evenodd"/></mask><path fill="#fff" fill-rule="evenodd" d="M146 96c0 27.614-22.386 50-50 50-8.842 0-17.147-2.295-24.354-6.322H57.322a5 5 0 0 1-5-5v-14.324C48.295 113.148 46 104.842 46 96c0-27.614 22.386-50 50-50s50 22.386 50 50Z" clip-rule="evenodd"/><path fill="#9ABEFF" d="m71.646 139.678 4.878-8.729-2.274-1.271h-2.604v10Zm-19.324-19.324h10v-2.604l-1.27-2.274-8.73 4.878ZM96 156c33.137 0 60-26.863 60-60h-20c0 22.091-17.909 40-40 40v20Zm-29.232-7.592A59.777 59.777 0 0 0 96 156v-20c-7.09 0-13.722-1.836-19.476-5.051l-9.756 17.459Zm4.878-18.73H57.322v20h14.324v-20Zm-14.324 0a5 5 0 0 1 5 5h-20c0 8.284 6.716 15 15 15v-20Zm5 5v-14.324h-20v14.324h20ZM36 96a59.775 59.775 0 0 0 7.592 29.232l17.46-9.756C57.835 109.722 56 103.09 56 96H36Zm60-60c-33.137 0-60 26.863-60 60h20c0-22.091 17.909-40 40-40V36Zm60 60c0-33.137-26.863-60-60-60v20c22.091 0 40 17.909 40 40h20Z" mask="url(#a)"/><path fill="#9ABEFF" fill-rule="evenodd" d="M70.625 84.985c1.71 0 3.15-1.44 3.15-3.15a3.16 3.16 0 0 0-3.15-3.15 3.16 3.16 0 0 0-3.15 3.15c0 1.71 1.44 3.15 3.15 3.15Zm-2.88 18.157a2.858 2.858 0 1 0 5.715 0V90.857a2.858 2.858 0 0 0-5.715 0v12.285Zm32.58-15.502c-2.565 0-4.545 1.17-5.67 3.15-1.035-1.89-2.835-3.15-5.13-3.15-2.07 0-3.735.99-4.905 2.565A2.205 2.205 0 0 0 82.415 88h-.675a2.88 2.88 0 0 0-2.88 2.88v12.24a2.88 2.88 0 0 0 5.76 0v-7.56c0-1.305.81-2.835 2.565-2.835 1.575 0 2.61 1.26 2.61 2.835v7.56a2.88 2.88 0 0 0 5.76 0v-7.56c0-1.305.81-2.835 2.565-2.835 1.575 0 2.655 1.26 2.655 2.835v7.582a2.858 2.858 0 1 0 5.715 0v-8.527c0-4.185-2.205-6.975-6.165-6.975Zm19.845 18.72c6.03 0 9.99-3.96 9.99-9.36 0-5.4-3.96-9.36-9.99-9.36S110.135 91.6 110.135 97c0 5.4 4.005 9.36 10.035 9.36Zm0-5.085c-2.475-.045-4.275-1.845-4.275-4.275 0-2.43 1.8-4.23 4.275-4.275 2.43.045 4.275 1.845 4.275 4.275 0 2.43-1.845 4.23-4.275 4.275Z" clip-rule="evenodd"/></svg>