<svg xmlns="http://www.w3.org/2000/svg" width="192" height="192" fill="none"><rect width="152" height="152" fill="#D3B69A" rx="10" transform="matrix(1 0 0 -1 20 172)"/><mask id="a" width="152" height="152" x="20" y="20" maskUnits="userSpaceOnUse" style="mask-type:luminance"><rect width="152" height="152" fill="#fff" rx="10" transform="matrix(1 0 0 -1 20 172)"/></mask><g mask="url(#a)"><path fill="#8E6F60" d="M20 19h152v77H20z"/></g><path fill="#fff" fill-rule="evenodd" d="M96.38 121.857c-14.061 0-25.46-11.374-25.46-25.404s11.399-25.404 25.46-25.404c14.061 0 25.459 11.374 25.459 25.404s-11.398 25.404-25.46 25.404Zm0-64.54c-21.662 0-39.222 17.522-39.222 39.136 0 21.615 17.56 39.136 39.221 39.136 21.662 0 39.222-17.521 39.222-39.136 0-21.614-17.56-39.136-39.222-39.136Zm49.937-1.547c0 5.051-4.104 9.146-9.166 9.146s-9.166-4.095-9.166-9.145c0-5.051 4.104-9.146 9.166-9.146s9.166 4.095 9.166 9.146Z" clip-rule="evenodd"/><path fill="#56595B" fill-rule="evenodd" d="M96.38 121.857c-14.061 0-25.46-11.374-25.46-25.404s11.399-25.404 25.46-25.404c14.061 0 25.459 11.374 25.459 25.404s-11.398 25.404-25.46 25.404Z" clip-rule="evenodd"/></svg>