<svg xmlns="http://www.w3.org/2000/svg" width="192" height="192" fill="none"><rect width="152" height="152" x="20" y="20" fill="#F9DE81" rx="10"/><path fill="#8E6F60" fill-rule="evenodd" d="M98 56.773c-21.815 0-39.5 17.912-39.5 39.727 0 12.473 5.781 23.67 14.81 30.973l-2.668 8.847 9.109-4.602A39.01 39.01 0 0 0 98 136.227c21.815 0 39.5-17.912 39.5-39.727 0-21.815-17.685-39.727-39.5-39.727Z" clip-rule="evenodd"/><path fill="#F9DE81" d="M78.87 88H65.85v3.51h4.56V106h3.93V91.51h4.53V88Zm14.168 18h4.23l-6.48-18h-4.44l-6.48 18h4.23l1.11-3.39h6.72l1.11 3.39Zm-6.78-6.69 2.31-7.14 2.31 7.14h-4.62Zm18.347 3.18V88h-3.96v18h9.93v-3.51h-5.97Zm21.056 3.51h5.28l-8.67-9.99 7.77-8.01h-5.1l-5.88 6.36h-.69V88h-3.96v18h3.96v-8.22h.57l6.72 8.22Z"/></svg>