<svg xmlns="http://www.w3.org/2000/svg" width="192" height="192" fill="none"><rect width="152" height="152" x="20" y="20" fill="#F8C18C" rx="10"/><path fill="#fff" fill-opacity=".7" fill-rule="evenodd" d="M57 78c0-4.418 3.572-7.99 7.988-7.83 11.408.417 31.006 1.846 31.006 6.756 0-4.91 19.598-6.34 31.007-6.755 4.415-.161 7.988 3.41 7.988 7.829v37.459a8 8 0 0 1-8 8H65a8 8 0 0 1-8-8V78Z" clip-rule="evenodd"/><path fill="#fff" fill-rule="evenodd" d="M68 73.908c0-5.07 4.649-8.834 9.519-7.426 7.955 2.299 18.006 6.032 18.006 10.217v45.307a.999.999 0 0 1-1.202.978l-19.942-4.12A8 8 0 0 1 68 111.029V73.908Z" clip-rule="evenodd"/></svg>