<svg xmlns="http://www.w3.org/2000/svg" width="192" height="192" fill="none"><rect width="152" height="152" x="21" y="21" fill="#4A4A4A" rx="10"/><path fill="#B1B5BD" fill-rule="evenodd" d="M110.294 83.657c.02-3.324-4.271-4.068-4.271-4.068s6.242-.61 6.242 5.068c0 5.679-6.897 6-6.897 6s-7.406 1.031-7.883-8.555C97.962 71.976 107.432 68 113.25 68c5.818 0 16.75 2.431 16.75 17.657 0 10.718-10.762 20.218-18.838 27.347-3.397 3-6.32 5.579-7.765 7.653-5.707 7.579-6.897 21-6.897 21V142s-1.19-13.421-6.897-21c-1.445-2.074-4.368-4.654-7.765-7.653C73.762 106.218 63 96.717 63 86c0-15.226 10.932-17.657 16.75-17.657s15.288 3.976 15.765 14.101C95.038 92.031 87.632 91 87.632 91s-6.897-.322-6.897-6 6.242-5.068 6.242-5.068-4.29.743-4.271 4.068c.02 3.325 3.233 4.03 4.926 4 1.806.03 3.907-2.147 4.216-5-.31-3.391-3.704-9.258-11.619-8.771-8.719-.487-11.65 6.483-11.317 12.771-.166 7.2 6.715 13.989 13.645 20.828C89.505 114.683 96.5 121.587 96.5 129v-.343c0-7.413 6.996-14.317 13.943-21.171 6.93-6.839 13.811-13.63 13.645-20.829.333-6.288-2.598-13.258-11.317-12.771-7.915-.487-11.31 5.38-11.619 8.771.309 2.853 2.41 5.03 4.216 5 1.693.03 4.906-.675 4.926-4Z" clip-rule="evenodd"/><path fill="#B1B5BD" fill-rule="evenodd" d="m83.656 53.888 7.882 8.317a1.213 1.213 0 0 0 .676 2.223 1.214 1.214 0 0 0 .223-2.408L96 50.428 99.83 62h-.002a1.172 1.172 0 1 0 .824.338l8.022-8.108L104.391 69H88l-4.344-15.112Z" clip-rule="evenodd"/></svg>