<svg xmlns="http://www.w3.org/2000/svg" width="192" height="192" fill="none"><rect width="152" height="152" x="20" y="20" fill="#9ABEFF" rx="10"/><path fill="#8C72BD" d="M125.582 110.029h5.767v5.765h-5.767z"/><path fill="#fff" fill-opacity=".7" fill-rule="evenodd" d="M57.814 110.029h26.498s12.432.141 12.432 7.206c0 .075 1.24.075 1.24 0 0-7.206 12.522-7.206 12.522-7.206h11.471v5.765h-11.471s-12.522 0-12.522 6.485c0 .075-1.24.075-1.24 0 0-6.879-12.432-6.485-12.432-6.485H47.176l10.638-5.765Z" clip-rule="evenodd"/><path fill="#BD9AFF" d="M133.512 110.029h5.767v5.765h-5.767z"/><path fill="#fff" fill-rule="evenodd" d="m75.073 104.265-8.218-9.469 7.57-7.826h-6.619l-6.012 6.226V74.648H56.3v29.617h5.494v-7.956l6.099 7.956h7.18Zm10.165.345c-5.796 0-9.646-3.804-9.646-8.992 0-5.189 3.85-8.993 9.646-8.993 5.796 0 9.603 3.804 9.603 8.993 0 5.188-3.806 8.992-9.603 8.992Zm0-4.885c2.336-.043 4.11-1.773 4.11-4.107 0-2.335-1.774-4.065-4.11-4.108-2.379.043-4.11 1.773-4.11 4.108 0 2.334 1.731 4.064 4.11 4.107Zm23.964-13.1c4.758 0 8.521 3.977 8.521 8.993 0 5.015-3.763 8.992-8.521 8.992-1.99 0-3.634-.691-4.931-1.859v1.557l-5.537-.043V74.648h5.537v13.836c1.297-1.168 2.941-1.86 4.931-1.86Zm-1.081 13.1a4.08 4.08 0 0 0 4.109-4.107 4.08 4.08 0 0 0-4.109-4.108 4.08 4.08 0 0 0-4.11 4.108 4.08 4.08 0 0 0 4.11 4.107Zm21.887 4.885c-5.796 0-9.646-3.804-9.646-8.992 0-5.189 3.85-8.993 9.646-8.993 5.796 0 9.603 3.804 9.603 8.993 0 5.188-3.807 8.992-9.603 8.992Zm0-4.885c2.336-.043 4.109-1.773 4.109-4.107 0-2.335-1.773-4.065-4.109-4.108-2.379.043-4.109 1.773-4.109 4.108 0 2.334 1.73 4.064 4.109 4.107Z" clip-rule="evenodd"/></svg>