<svg xmlns="http://www.w3.org/2000/svg" width="192" height="192" fill="none"><path fill="#9ABEFF" stroke="#fff" stroke-width="10" d="M94.965 17.89a5 5 0 0 1 7.071 0l77.074 77.075a5 5 0 0 1 0 7.071l-77.074 77.074a5 5 0 0 1-7.072 0L17.89 102.036a5 5 0 0 1 0-7.072L94.965 17.89Z"/><mask id="a" width="175" height="175" x="11" y="11" maskUnits="userSpaceOnUse" style="mask-type:luminance"><path fill="#fff" stroke="#fff" stroke-width="10" d="M94.965 17.89a5 5 0 0 1 7.071 0l77.074 77.075a5 5 0 0 1 0 7.071l-77.074 77.074a5 5 0 0 1-7.072 0L17.89 102.036a5 5 0 0 1 0-7.072L94.965 17.89Z"/></mask><g mask="url(#a)"><path fill="#fff" d="M141.28 127h30.258l-65.066-74.62L166.987-9.5H137.64L88.045 42.597H80.31V-9.5H58.015V127H80.31V62.618h7.28L141.28 127Z"/></g></svg>