<svg xmlns="http://www.w3.org/2000/svg" width="192" height="192" fill="none"><path fill="#ECECEC" fill-rule="evenodd" d="M20 45.7a10 10 0 0 1 7.873-9.772l31.372-6.83 9.01-15.164h59.414l10.092 15.164 26.66 6.653A10 10 0 0 1 172 45.453V162c0 5.522-4.477 10-10 10H30c-5.523 0-10-4.478-10-10V45.7Z" clip-rule="evenodd"/><mask id="a" width="152" height="159" x="20" y="13" maskUnits="userSpaceOnUse" style="mask-type:luminance"><path fill="#fff" fill-rule="evenodd" d="M20 45.7a10 10 0 0 1 7.873-9.772l31.372-6.83 9.01-15.164h59.414l10.092 15.164 26.66 6.653A10 10 0 0 1 172 45.453V162c0 5.522-4.477 10-10 10H30c-5.523 0-10-4.478-10-10V45.7Z" clip-rule="evenodd"/></mask><g mask="url(#a)"><path stroke="#ECECEC" stroke-linecap="square" stroke-width="3" d="M87.5 172.5v-55"/><path fill="#F58F8A" fill-rule="evenodd" d="m154 118.028-9.857-18c-.371-.839-1.302-1.124-1.643-1-1.01.152-1.395.388-1.643 1l-9.857 18h23Z" clip-rule="evenodd"/><path stroke="#ECECEC" stroke-linecap="round" stroke-width="3" d="M113.5 117.5h57"/><path stroke="#ECECEC" stroke-linecap="square" stroke-width="3" d="M67.5 30.5h58"/></g><path fill="#83868C" fill-rule="evenodd" d="M105 127a5 5 0 1 1-10.001-.001A5 5 0 0 1 105 127Zm0 31a5 5 0 1 1-10.001-.001A5 5 0 0 1 105 158Z" clip-rule="evenodd"/><path fill="#fff" stroke="#D8D8D8" stroke-width="3" d="m99.8 87.648-4.428 12.44-46.043-44.886a1.5 1.5 0 0 1-.125-2.01l6.545-8.188a2.5 2.5 0 0 0-.362-3.49l-9.22-7.61c-.615-.508-.688-1.336-.252-1.89 1.976-2.517 5.555-6.75 9.814-10.342 4.156-3.504 8.699-6.172 12.887-6.367.04.051.085.113.137.185.33.466.77 1.197 1.307 2.19 1.07 1.974 2.448 4.82 4.03 8.273 3.162 6.897 7.094 16.106 10.937 25.33a2369.88 2369.88 0 0 1 10.372 25.361 2671.462 2671.462 0 0 1 4.28 10.7l.121.304ZM68.424 15.08l.003.003-.003-.003Z"/><path fill="#fff" stroke="#D8D8D8" stroke-width="3" d="M147.831 55.54a1.5 1.5 0 0 0 .11-2.002L141.32 45.3a2.5 2.5 0 0 1 .362-3.498l9.299-7.635.951 1.16-.951-1.16c.619-.508.691-1.339.252-1.895-1.992-2.524-5.601-6.77-9.895-10.371-4.164-3.492-8.717-6.159-12.925-6.384a8.753 8.753 0 0 0-.14.216c-.343.546-.799 1.39-1.363 2.528-1.121 2.264-2.596 5.543-4.325 9.571-3.455 8.048-7.889 18.998-12.479 30.585-8.564 21.615-17.655 45.405-21.913 56.604l59.638-59.48Zm-19.197-40.317-.004.003.004-.003Z"/><path fill="#F9DE81" fill-rule="evenodd" d="M118.074 89h47.87L169 98l-27.026 20.067L114 98l4.074-9Z" clip-rule="evenodd"/><path fill="#F58F8A" fill-rule="evenodd" d="m166 89-6-18c-.226-.838-.792-1.124-1-1-.615.152-.849.389-1 1l-6 18h14Z" clip-rule="evenodd"/><path fill="#F8C18C" fill-rule="evenodd" d="m142 118-24-29h14.208L142 118Zm0 0 9.792-29H166l-24 29Z" clip-rule="evenodd"/><path fill="#FF837D" fill-rule="evenodd" d="m132 89 10 29 10-29h-20Z" clip-rule="evenodd"/><path fill="#F58F8A" fill-rule="evenodd" d="m118 89 6.051-18.154c.304-.912 1.594-.912 1.898 0L132 89h-14Z" clip-rule="evenodd"/></svg>