<svg xmlns="http://www.w3.org/2000/svg" width="192" height="192" fill="none"><rect width="152" height="152" x="20" y="20" fill="#FF837D" rx="10"/><path fill="#fff" d="M67.25 98.12c2.7 0 5.13-2.16 5.13-5.04 0-2.7-2.43-5.04-5.13-5.04-2.7 0-5.04 2.34-5.04 5.04 0 2.88 2.34 5.04 5.04 5.04Zm22.57 0c2.7 0 5.13-2.16 5.13-5.04 0-2.7-2.43-5.04-5.13-5.04-2.7 0-5.04 2.34-5.04 5.04 0 2.88 2.34 5.04 5.04 5.04Zm22.571 0c2.7 0 5.13-2.16 5.13-5.04 0-2.7-2.43-5.04-5.13-5.04-2.7 0-5.04 2.34-5.04 5.04 0 2.88 2.34 5.04 5.04 5.04Zm19.24 31.68h8.1V65h-8.1v64.8Z"/></svg>