<svg xmlns="http://www.w3.org/2000/svg" width="192" height="192" fill="none"><path fill="#BD9AFF" fill-rule="evenodd" d="M97 184c48.049 0 87-38.951 87-87s-38.951-87-87-87-87 38.951-87 87 38.951 87 87 87Z" clip-rule="evenodd"/><path stroke="#fff" stroke-width="10" d="M140 97c0 23.748-19.252 43-43 43s-43-19.252-43-43 19.252-43 43-43 43 19.252 43 43Z"/><path fill="#fff" fill-rule="evenodd" d="M96 64c5.523 0 10-4.477 10-10s-4.477-10-10-10-10 4.477-10 10 4.477 10 10 10Zm-29 74c5.523 0 10-4.477 10-10s-4.477-10-10-10-10 4.477-10 10 4.477 10 10 10Zm73-32c5.523 0 10-4.477 10-10s-4.477-10-10-10-10 4.477-10 10 4.477 10 10 10Z" clip-rule="evenodd"/><path stroke="#fff" stroke-linejoin="round" stroke-width="5" d="M96.007 53.136s-1.344 20.75-8.834 39.425c-7.49 18.676-20.994 34.945-20.994 34.945s18.03-12.495 36.239-20.278c18.209-7.784 38.141-11.514 38.141-11.514"/></svg>