<svg xmlns="http://www.w3.org/2000/svg" width="192" height="192" fill="none"><path fill="#F8C18C" fill-rule="evenodd" d="M30.003 172h131.994c5.525 0 10.003-4.477 10.003-10.003V30.002C172 24.478 167.523 20 161.997 20H30.002C24.478 20 20 24.477 20 30.003v131.994C20 167.522 24.477 172 30.003 172Z" clip-rule="evenodd"/><path fill="#fff" fill-rule="evenodd" d="M118 133a3 3 0 0 0 3-3V96a1 1 0 0 1 1-1h4.888c2.654 0 4.001-3.193 2.149-5.094l-8.457-8.68A1.99 1.99 0 0 0 121 80V69a2 2 0 0 0-2-2h-2a2 2 0 0 0-2 2v6.5L98.12 58.177a3 3 0 0 0-4.27-.028L62.122 89.88C60.231 91.769 61.57 95 64.243 95H70a1 1 0 0 1 1 1v34a3 3 0 0 0 3 3h44Z" clip-rule="evenodd"/><path fill="#F8C18C" fill-rule="evenodd" d="M82 99.052a1 1 0 0 0-1 1v14.258s0 4.041 4.463 5.298v15.627h5.897v-15.627c4.462-1.257 4.462-5.298 4.462-5.298v-14.258a1 1 0 0 0-1-1h-1.051a1 1 0 0 0-1 1v6.283a1 1 0 0 1-1 1h-1.052a1 1 0 0 1-1-1V97a1 1 0 0 0-1-1h-.616a1 1 0 0 0-1 1v9.335a1 1 0 0 1-1 1h-1.051a1 1 0 0 1-1-1v-6.283a1 1 0 0 0-1-1H82Zm22.857 34.624H110V100.37c0-2.413-2.616-3.702-4.268-1.943-2.324 2.476-4.732 5.956-4.732 9.749 0 7.474 1.562 10.571 3.857 13.5v12Z" clip-rule="evenodd"/></svg>