<svg xmlns="http://www.w3.org/2000/svg" width="192" height="192" fill="none"><rect width="152" height="152" x="21" y="20" fill="#BD9AFF" rx="10"/><mask id="a" width="59" height="54" x="68" y="85" maskUnits="userSpaceOnUse" style="mask-type:luminance"><path fill="#fff" fill-rule="evenodd" d="m68.82 105.681 29.184-19.892 28.57 18.829-29.896 33.437-27.857-32.374Z" clip-rule="evenodd"/></mask><g clip-rule="evenodd" mask="url(#a)"><path fill="#fff" fill-rule="evenodd" d="M102.565 143.284c3.479-3.479 3.503-9.098.052-12.548-3.451-3.451-9.07-3.428-12.549.052-3.48 3.479-3.502 9.097-.052 12.548 3.451 3.451 9.07 3.428 12.549-.052Z"/><path stroke="#fff" stroke-width="10" d="M109.276 150.649c7.219-7.218 7.267-18.873.108-26.032-7.159-7.159-18.814-7.111-26.032.108-7.219 7.218-7.267 18.873-.109 26.032 7.16 7.159 18.815 7.111 26.033-.108Z"/><path stroke="#fff" stroke-width="10" d="M118.998 160.371c12.632-12.632 12.717-33.029.189-45.557-12.528-12.528-32.925-12.443-45.557.189-12.633 12.632-12.717 33.029-.19 45.557 12.529 12.528 32.925 12.443 45.558-.189Z"/></g><path stroke="#fff" stroke-width="10" d="M118.945 113.041c12.057-12.057 12.019-31.643-.084-43.746-12.104-12.104-31.69-12.142-43.747-.085-12.057 12.057-12.019 31.643.085 43.746"/></svg>