<svg xmlns="http://www.w3.org/2000/svg" width="192" height="192" fill="none"><path fill="#F8C18C" fill-rule="evenodd" d="M20 162c0 5.523 4.477 10 10 10h99.669v-14.4l11.854 14.4H162c5.523 0 10-4.477 10-10V57.532l-9.256-11.855H172V30c0-5.523-4.477-10-10-10H73.522l-4.237 10.91L58.355 20H30c-5.523 0-10 4.477-10 10v93.154l10.5-2.127L20 135.261V162Z" clip-rule="evenodd"/><path fill="#8C72BD" fill-rule="evenodd" d="M54.901 63.718a6 6 0 1 0 .21 11.997 6 6 0 0 0-.21-11.997Zm20.305-.355a6 6 0 1 0 .21 11.998l61.836-1.08a6.001 6.001 0 0 0-.209-11.997l-61.837 1.08ZM55.37 87.859a6 6 0 1 0-.628 11.983 6 6 0 0 0 .628-11.983Zm20.28 1.063a6 6 0 1 0-.628 11.983l61.761 3.237a6 6 0 0 0 6.306-5.678 6 6 0 0 0-5.678-6.305l-61.76-3.237Zm-20.834 29.515a6 6 0 1 0 .419 11.993 6 6 0 0 0-.42-11.993Zm20.295-.709a6 6 0 0 0 .419 11.993l61.808-2.158a6 6 0 1 0-.419-11.993l-61.808 2.158Z" clip-rule="evenodd"/></svg>