<svg xmlns="http://www.w3.org/2000/svg" width="192" height="192" fill="none"><rect width="152" height="152" x="20" y="20" fill="#BD9AFF" rx="10"/><path fill="#8E6F60" fill-rule="evenodd" d="M113.031 134.207c-4.487 2.859-14.925-4.726-14.925-4.726l-10.593-.495s-3.718 2.1-5.878 2.937c-2.16.836-5.766 1.469-5.766 1.469l2.901-8.015s-4.188 1.986-7.555 2.513c-3.368.527-7.548-.527-7.548-.527l5.908-5.245s-4.465.776-8.72 0c-4.253-.776-7.285-3.649-7.285-3.649l17.645-10.786-.817-6.214s-10.272-5.5-10.272-25.053S81.29 45.714 81.29 45.714l-2.515 28.887s3.204-2.09 2.86-.567c-.343 1.523-3.854 4.981-3.854 4.981s2.843 3.117 2.879 3.707c.036.591-2.677-.414-2.677-.414l.462 4.181s2.496-4.057 5.35-5.901c2.856-1.844 6.872-1.995 6.872-1.995l-6.432-18.446s6.14 2.03 9.32 5.987c3.178 3.957 2.66 9.142 2.66 9.142l4.441-10.002s4.185 5.642 2.57 9.882c-1.616 4.239-3.704 3.652-3.704 3.652l4.458 1.551s.377-10.508 7.373-18.68c6.996-8.17 15.502-13.848 17.804-11.923 2.301 1.925-7.756 25.233-8.324 26.66-.568 1.428-2.973 1.381-2.973 1.381s1.425 2.118.992 3.156c-.433 1.037-2.814 1.204-2.814 1.204l-.327 4.434 2.585 4.673s26.97-12.338 28.565-10.723c1.595 1.616-1.199 14.567-9.293 22.896-8.095 8.329-12.08 8.533-12.08 8.533s-7.968 19.379-12.456 22.237Z" clip-rule="evenodd"/><mask id="a" width="95" height="90" x="53" y="45" maskUnits="userSpaceOnUse" style="mask-type:luminance"><path fill="#fff" fill-rule="evenodd" d="M113.031 134.207c-4.487 2.859-14.925-4.726-14.925-4.726l-10.593-.495s-3.718 2.1-5.878 2.937c-2.16.836-5.766 1.469-5.766 1.469l2.901-8.015s-4.188 1.986-7.555 2.513c-3.368.527-7.548-.527-7.548-.527l5.908-5.245s-4.465.776-8.72 0c-4.253-.776-7.285-3.649-7.285-3.649l17.645-10.786-.817-6.214s-10.272-5.5-10.272-25.053S81.29 45.714 81.29 45.714l-2.515 28.887s3.204-2.09 2.86-.567c-.343 1.523-3.854 4.981-3.854 4.981s2.843 3.117 2.879 3.707c.036.591-2.677-.414-2.677-.414l.462 4.181s2.496-4.057 5.35-5.901c2.856-1.844 6.872-1.995 6.872-1.995l-6.432-18.446s6.14 2.03 9.32 5.987c3.178 3.957 2.66 9.142 2.66 9.142l4.441-10.002s4.185 5.642 2.57 9.882c-1.616 4.239-3.704 3.652-3.704 3.652l4.458 1.551s.377-10.508 7.373-18.68c6.996-8.17 15.502-13.848 17.804-11.923 2.301 1.925-7.756 25.233-8.324 26.66-.568 1.428-2.973 1.381-2.973 1.381s1.425 2.118.992 3.156c-.433 1.037-2.814 1.204-2.814 1.204l-.327 4.434 2.585 4.673s26.97-12.338 28.565-10.723c1.595 1.616-1.199 14.567-9.293 22.896-8.095 8.329-12.08 8.533-12.08 8.533s-7.968 19.379-12.456 22.237Z" clip-rule="evenodd"/></mask><g mask="url(#a)"><path fill="#fff" fill-rule="evenodd" d="m108.21 90.059 2.758 4.857 7.414-3.256s-2.035-.674-4.661-1.088c-2.627-.413-5.511-.513-5.511-.513Z" clip-rule="evenodd"/><path stroke="#4A4A4A" stroke-linecap="round" stroke-width="2" d="M111.64 91.86s.586 1.766.586 3.533"/><path fill="#D3B69A" fill-rule="evenodd" d="M70.741 94.283s-1.74-2.598-2.275-4.1c-.535-1.502-.719-4.305-.719-4.305h-3.744l3.645-4.225s-.614-1.483 0-8.962c.613-7.478 7.37-17.972 7.37-17.972s.4 15.02.269 19.72c-.13 4.699-1.064 8.9-1.064 8.9s-2.415 2.782-3.034 4.726c-.618 1.944-.448 6.218-.448 6.218Zm37.902-11.393 5.101-.52s3.588-5.61 5.92-11.573c2.333-5.964 3.698-13.018 3.698-13.018s-8.257 6.17-11.233 11.247c-2.976 5.077-3.486 13.865-3.486 13.865Zm-17.725 27.929s.68-3.101 2.974-5.601c2.294-2.501 4.746-3.444 7.664-5.92 2.919-2.477 3.459-3.52 3.459-3.52s.56.634 5.939-1.18c5.378-1.815 7.458-3.339 7.458-3.339l31.476-14.763-8.516 53.447s-33.206 7.51-33.819 7.232c-.613-.278-3.627-4.456-3.627-4.456s-3.012-3.927-5.343-8.464c-2.332-4.538-3.886-9.499-3.886-9.499l-3.779-3.937Z" clip-rule="evenodd"/><path fill="#fff" fill-rule="evenodd" d="M100.92 89.046s-7.394 1.053-12.619 2.952-9.427 5.06-9.427 5.06 3.267 10.047 13.086 5.93c9.819-4.117 8.96-13.942 8.96-13.942Z" clip-rule="evenodd"/><path fill="#4A4A4A" fill-rule="evenodd" d="m91.018 110.942 4.545 4.362s7.323 16.495 14.691 15.536c3.708-.482 5.74-5.836 8.073-10.531 2.334-4.694 4.931-8.607 4.931-8.607s-3.436.148-7.299-.76c-3.863-.908-7.227-2.699-10.62-2.779-7.155-.169-14.32 2.779-14.32 2.779Z" clip-rule="evenodd"/><path fill="#FF837D" fill-rule="evenodd" d="M96.883 117.996s6.026.619 10.564 2.935c4.539 2.316 7.52 6.147 7.52 6.147s-2.649 5.37-7.52 3.39c-5.894-2.396-10.564-12.472-10.564-12.472Z" clip-rule="evenodd"/><path fill="#4A4A4A" fill-rule="evenodd" d="M138.5 82.765c-2.223.727-4.435 1.587-6.124 2.28-1.384.569-1.575 2.35-.277 3.092 2.392 1.37 5.935 2.885 8.864 2.027 3.197-.937 4.65-4.405 5.276-6.725.309-1.146-.598-2.15-1.777-2.006-1.479.18-3.585.555-5.962 1.332Z" clip-rule="evenodd"/></g><path fill="#fff" fill-rule="evenodd" d="M100.771 124.524s1.046-1.738 1.896-2.75c.107-.128.232-.267.368-.413 1.035-1.104 2.815-.514 3.044.983.115.75.219 1.559.284 2.345.223 2.693 0 5.308 0 5.308s-1.978-1.384-3.072-2.493c-1.095-1.109-2.52-2.98-2.52-2.98Zm-5.011-15.089s1.971 2.177 2.82 3.189c.342.407.998.944 1.66 1.44 1.005.753 2.328.272 2.502-.971.059-.422.114-.905.159-1.454.223-2.693.267-3.437.267-3.437s-2.146.127-4.114.496a43.34 43.34 0 0 0-3.294.737Zm7.701-1.222s1.791 2.987 2.432 4.117c.276.486.793 1.306 1.291 2.083.669 1.041 2.11 1.186 2.74.121.352-.596.675-1.304.842-2.08.485-2.255.61-2.992.61-2.992s-.955-.276-3.167-.892c-2.213-.616-4.748-.357-4.748-.357Zm14.054 3.047s-.098 2.058-.216 3.365c-.144 1.578 1.662 2.456 2.711 1.27.374-.422.719-.855.988-1.27 1.219-1.871 1.533-2.906 1.533-2.906s-.752-.004-2.145-.099a30.713 30.713 0 0 1-2.871-.36Zm-5.42-1.482s1.061 1.552 1.313 2.108c.026.057.061.126.103.204.535 1.001 1.833.91 2.651.122.23-.221.679-1.071.679-1.071s-1.064-.19-2.3-.557a48.456 48.456 0 0 1-2.446-.806Z" clip-rule="evenodd"/><path stroke="#4A4A4A" stroke-linecap="round" stroke-width="2" d="M90.5 92.561s-.175 3.098 1.179 6.363"/></svg>