<svg xmlns="http://www.w3.org/2000/svg" width="192" height="192" fill="none"><g fill-rule="evenodd" clip-path="url(#a)" clip-rule="evenodd"><path fill="#FF837D" d="m110.192 161.861-5.145-.374a50.663 50.663 0 0 1-14.382-3.997c-25.568-11.371-37.077-41.316-25.706-66.883a51.29 51.29 0 0 1 2.354-4.645 50.838 50.838 0 0 1-6.725-25.296c-19.366.043-37.83 11.235-46.21 30.075-11.371 25.568.138 55.513 25.706 66.884a50.64 50.64 0 0 0 14.383 3.996l5.144.374c.299.007.596 0 .894 0l50.834.001-.001-.135h-.253c-.297-.001-.595.006-.893 0Z"/><path fill="#728DBE" d="M131.842 14.454c-25.568-11.371-55.513.138-66.884 25.706a50.473 50.473 0 0 0-4.37 20.505 50.469 50.469 0 0 1 20.673 4.37 51.41 51.41 0 0 1 4.597 2.327c13.568-7.845 30.569-9.317 45.984-2.462 16.842 7.49 27.579 23.04 29.7 40.089l.378 6.374v.052V61.81c.006-.297-.001-.594 0-.894l-.378-6.373c-2.121-17.05-12.858-32.6-29.7-40.089Z"/><path fill="#54688C" d="M67.313 85.962a50.841 50.841 0 0 1-6.724-25.297 50.455 50.455 0 0 1 20.672 4.37 51.315 51.315 0 0 1 4.597 2.327c14.192 8.108 23.183 22.32 25.103 37.761l.373 6.292h-.248l-.346.001c-.183.001-.365.002-.549-.001l-5.144-.375a50.642 50.642 0 0 1-14.382-3.996 50.431 50.431 0 0 1-23.352-21.082Z"/><path fill="#F9DE81" d="M111.086 111.415h50.834l.001.28c.001.187.003.374-.001.562v49.603h-50.581l-.254.001-.33.001c-.188.002-.376.003-.564-.001l-5.144-.374a50.665 50.665 0 0 1-14.382-3.997c-25.568-11.371-37.077-41.316-25.707-66.883a51.38 51.38 0 0 1 2.355-4.645 50.421 50.421 0 0 0 23.352 21.081 50.643 50.643 0 0 0 14.382 3.998l5.144.374c.184.004.366.003.549.001l.346-.001Z"/><path fill="#9ABEFF" d="M161.542 104.989c-2.121-17.05-12.858-32.6-29.7-40.089-15.415-6.855-32.417-5.384-45.984 2.462 14.193 8.108 23.183 22.32 25.103 37.761l.374 6.292h50.585v-.052l-.378-6.374Z"/></g><defs><clipPath id="a"><path fill="#fff" d="M0 0h192v192H0z"/></clipPath></defs></svg>