<svg xmlns="http://www.w3.org/2000/svg" width="192" height="192" fill="none"><path fill="#fff" fill-rule="evenodd" d="M96 183c48.049 0 87-38.951 87-87S144.049 9 96 9 9 47.951 9 96s38.951 87 87 87Z" clip-rule="evenodd"/><path fill="url(#a)" d="M70.513 92.252a3 3 0 0 0-4.243 0l-9.9 9.9a3 3 0 0 0 0 4.242l25.192 25.192a3 3 0 0 0 4.243 0l53.869-53.869a3 3 0 0 0 0-4.243l-9.899-9.9a3 3 0 0 0-4.243 0l-39.727 39.728a3.001 3.001 0 0 1-4.243 0l-11.05-11.05Z"/><defs><linearGradient id="a" x1="67.896" x2="67.896" y1="61.454" y2="111.181" gradientUnits="userSpaceOnUse"><stop stop-color="#98DC9A"/><stop offset="1" stop-color="#9ABEFF"/></linearGradient></defs></svg>