<svg xmlns="http://www.w3.org/2000/svg" width="192" height="192" fill="none"><rect width="152" height="152" x="20" y="20" fill="#FF837D" rx="10"/><path fill="#fff" fill-rule="evenodd" d="M96 149c29.271 0 53-23.729 53-53s-23.729-53-53-53-53 23.729-53 53 23.729 53 53 53Z" clip-rule="evenodd"/><path fill="#9ABEFF" d="M75.23 81.35c.34-.08.5-.28.5-.63v-1.17h-3.54c-.12-.01-.22 0-.31.01-.09 0-.16.02-.24.05-.07.02-.13.07-.19.13-.05.06-.11.14-.16.24l-4.28 8.01c-.11.21-.22.43-.32.67-.1.23-.2.47-.29.71-.09-.24-.19-.47-.29-.7-.09-.23-.2-.45-.31-.66l-4.32-8.03a.923.923 0 0 0-.17-.24.463.463 0 0 0-.19-.13.604.604 0 0 0-.24-.05c-.09-.01-.19-.01-.31-.01h-3.54v1.17c-.01.35.16.55.5.63.02 0 .07.01.12.02.06.01.15.03.3.05.14.03.34.06.59.11v10.49c-.25.05-.45.08-.59.11-.15.02-.24.04-.3.05-.05.01-.1.02-.12.02-.34.08-.51.28-.5.63V94h5.68v-1.17c0-.35-.16-.55-.5-.63-.04 0-.47-.06-1.3-.18v-7.35c0-.18 0-.38-.02-.59-.01-.21-.02-.42-.05-.64l4.43 8.23c.1.18.23.33.39.43.16.1.35.16.56.16h.37c.21 0 .4-.06.56-.16.16-.1.29-.25.39-.43l4.37-8.2c-.02.21-.04.42-.05.63 0 .2-.01.39-.01.57v7.35c-.83.12-1.26.18-1.3.18-.34.08-.5.28-.5.63v1.18h5.68v-1.18c0-.35-.16-.55-.5-.63-.03 0-.07-.01-.12-.02-.06-.01-.16-.03-.3-.05-.14-.03-.34-.06-.59-.11V81.53c.25-.05.45-.08.59-.11.14-.02.24-.04.3-.05.05-.01.09-.02.12-.02Zm6.143 2.23c-.77 0-1.46.14-2.07.4a4.57 4.57 0 0 0-2.52 2.7c-.23.62-.34 1.27-.34 1.97 0 .9.13 1.7.39 2.38.26.68.61 1.26 1.07 1.72.45.46.98.81 1.59 1.05.62.24 1.28.35 1.99.35.36 0 .74-.02 1.12-.08.38-.05.76-.14 1.13-.27.37-.13.72-.3 1.06-.52.34-.22.65-.49.93-.81l-.72-.9a.75.75 0 0 0-.19-.17.554.554 0 0 0-.26-.06.98.98 0 0 0-.48.14c-.16.1-.35.2-.57.31-.22.12-.47.22-.76.31-.29.1-.63.14-1.03.14-.82 0-1.47-.24-1.96-.74-.5-.49-.78-1.26-.85-2.32h6.34c.11 0 .2-.01.28-.04.07-.03.13-.08.17-.15.04-.07.07-.17.09-.29.02-.12.03-.28.03-.47 0-.74-.11-1.39-.33-1.97-.22-.58-.53-1.06-.92-1.46-.4-.4-.87-.7-1.41-.91-.54-.2-1.14-.3-1.78-.31Zm.05 1.77c.36 0 .68.07.96.19.27.12.5.29.68.5.18.22.31.47.4.75.08.28.13.58.13.9h-4.64c.11-.74.37-1.32.78-1.73.4-.4.97-.61 1.69-.61Zm11.88-1.79c-.61 0-1.17.18-1.66.55-.49.36-.92.86-1.29 1.5l-.15-1.24c-.03-.23-.1-.39-.2-.48-.1-.1-.28-.14-.53-.14h-2.96v1.17c-.01.35.16.56.5.63.15.02.16.03 1.01.18v6.29c-.85.15-.86.16-1.01.18-.34.08-.51.28-.5.63V94h5.49v-1.17c0-.35-.16-.55-.5-.63-.15-.02-.16-.03-1.01-.18v-4.4c.25-.55.56-.97.93-1.25s.81-.42 1.32-.42c.29 0 .52.02.69.07.17.04.31.07.41.07.11 0 .2-.03.27-.08s.11-.13.13-.25l.32-1.85c-.33-.24-.75-.35-1.26-.35Zm8.711 0c-.61 0-1.17.18-1.66.55-.49.36-.92.86-1.29 1.5l-.15-1.24c-.03-.23-.1-.39-.2-.48-.1-.1-.28-.14-.53-.14h-2.96v1.17c-.01.35.16.56.5.63.15.02.16.03 1.01.18v6.29c-.85.15-.86.16-1.01.18-.34.08-.51.28-.5.63V94h5.49v-1.17c0-.35-.16-.55-.5-.63-.15-.02-.16-.03-1.01-.18v-4.4c.25-.55.56-.97.93-1.25s.81-.42 1.32-.42c.29 0 .52.02.69.07.17.04.31.07.41.07.11 0 .2-.03.27-.08s.11-.13.13-.25l.32-1.85c-.33-.24-.75-.35-1.26-.35Zm6.881 8.64c-.02 0-.07-.01-.12-.02-.06-.01-.15-.03-.3-.05-.14-.03-.34-.06-.59-.11v-8.28h-3.98v1.18c-.01.35.16.55.5.63.02 0 .07.01.12.02.06.01.15.03.3.05.14.03.34.06.59.11v6.29c-.25.05-.45.08-.59.11-.15.02-.24.04-.3.05-.05.01-.1.02-.12.02-.34.08-.51.28-.5.63V94h5.49v-1.17c0-.35-.16-.55-.5-.63Zm-.64-11.45c0-.22-.04-.42-.13-.62a1.61 1.61 0 0 0-.85-.83 1.6 1.6 0 0 0-.62-.13 1.589 1.589 0 0 0-1.1.46c-.14.14-.25.31-.34.51-.08.19-.12.39-.12.62 0 .21.04.41.12.6.09.18.2.35.34.49.14.13.3.25.49.33.19.08.4.12.61.13.22 0 .43-.05.62-.13s.36-.19.5-.33c.15-.14.26-.31.35-.49.09-.19.13-.39.13-.61Zm11.051 11.43c-.02 0-.1-.01-.22-.04l-.53-.09V87.5c0-.58-.08-1.11-.25-1.59-.17-.49-.42-.91-.75-1.26-.32-.35-.72-.62-1.19-.82-.47-.2-1.01-.29-1.61-.3-1.66 0-3.09.54-4.27 1.62l.46.79c.07.13.16.24.29.32.11.09.26.13.43.13.19 0 .38-.04.54-.14.17-.09.35-.19.55-.31.2-.12.43-.22.69-.32.27-.09.61-.14 1-.14.56 0 .98.17 1.27.5.29.34.43.85.43 1.54v.6c-1.16.01-2.14.11-2.93.31-.78.2-1.41.45-1.89.75-.47.31-.81.65-1.01 1.03-.2.37-.3.76-.3 1.15-.01.46.07.86.21 1.21.15.35.36.64.62.87.26.24.58.41.94.53.37.12.77.17 1.2.17.37 0 .7-.03 1-.09.3-.06.59-.15.85-.27.27-.12.53-.26.78-.44s.5-.38.76-.62l.22.73c.07.22.17.36.3.43.14.07.32.1.55.1h2.36v-1.17c0-.35-.17-.55-.5-.63Zm-3.16-.83c-.18.19-.35.35-.53.48-.18.13-.36.25-.55.34-.19.09-.39.16-.61.21-.21.04-.44.06-.7.06-.41 0-.74-.09-1-.28-.26-.19-.39-.5-.39-.93 0-.23.07-.43.19-.62s.33-.35.62-.49c.3-.14.69-.26 1.17-.35.48-.09 1.08-.14 1.8-.14v1.72Zm21.34.85c-.03 0-.07-.01-.12-.02-.06-.01-.16-.03-.3-.05-.14-.03-.34-.06-.59-.11v-4.54c0-.62-.08-1.17-.24-1.65-.15-.48-.38-.89-.68-1.22-.3-.34-.67-.59-1.11-.76-.44-.18-.94-.26-1.51-.26-.33 0-.65.03-.98.11-.32.07-.62.18-.91.34a3.11 3.11 0 0 0-1.39 1.47c-.21-.58-.52-1.05-.94-1.4-.41-.35-.94-.52-1.59-.52-.31 0-.59.03-.85.1-.25.07-.49.17-.72.29-.22.11-.43.26-.63.43-.19.16-.38.35-.56.55l-.16-.76c-.1-.3-.31-.45-.63-.45h-3.02v1.17c-.01.35.16.56.5.63.02 0 .07.01.12.02.06.01.15.03.3.05.14.03.34.06.59.11v6.29c-.25.05-.45.08-.59.11-.15.02-.24.04-.3.05-.05.01-.1.02-.12.02-.34.08-.51.28-.5.63V94h5.49v-1.17c0-.35-.16-.55-.5-.63-.03 0-.07-.01-.12-.02-.06-.01-.16-.03-.3-.05-.14-.03-.34-.06-.59-.11V86.5c.27-.31.55-.55.86-.73.31-.18.65-.26 1-.26.54 0 .95.15 1.22.47.28.31.42.81.42 1.5V94h3.99v-1.17c0-.35-.16-.55-.5-.63-.03 0-.07-.01-.12-.02-.06-.01-.16-.03-.3-.05-.14-.03-.34-.06-.59-.11v-4.54c0-.32.05-.61.14-.85.09-.25.22-.46.38-.62.17-.16.36-.29.57-.37.22-.09.46-.13.71-.13.55 0 .97.16 1.26.49.29.33.43.82.43 1.48v6.53h3.98v-1.18c0-.35-.16-.55-.5-.63Zm-57.193 7.35h-4.71v1.17c0 .35.16.56.5.63.35.07.62.13.82.18l-2.07 7.28c-.05.2-.1.43-.15.67-.05.24-.1.49-.15.75-.1-.52-.23-1-.38-1.42l-2.82-8.65a.819.819 0 0 0-.32-.45c-.15-.11-.34-.16-.58-.16h-.79c-.22 0-.41.06-.57.19-.16.12-.26.26-.32.42l-2.84 8.65c-.07.21-.14.44-.2.69-.06.25-.12.52-.18.8-.04-.29-.09-.55-.14-.8-.05-.25-.11-.48-.17-.69l-2.07-7.3c.13-.03.24-.06.34-.08.11-.03.18-.05.23-.06.04-.01.07-.02.1-.02.33-.08.5-.28.5-.63v-1.17h-5.4v1.17c-.01.35.16.56.5.63.01 0 .08.01.21.04.14.02.33.05.58.1l3.88 12.52h2.43l3.19-9.88c.04-.12.08-.26.13-.41.04-.15.08-.31.12-.47.05.16.09.32.13.47.04.14.08.28.12.41l3.16 9.88h2.43l3.89-12.52c.25-.05.44-.08.57-.1.13-.03.2-.04.22-.04.33-.07.5-.28.5-.63v-1.17h-.69Zm5.24 4.03c-.77 0-1.46.14-2.07.4a4.57 4.57 0 0 0-2.52 2.7c-.23.62-.34 1.27-.34 1.97 0 .9.13 1.7.39 2.38.26.68.61 1.26 1.07 1.72.45.46.98.81 1.59 1.05.62.24 1.28.35 1.99.35.36 0 .74-.02 1.12-.08.38-.05.76-.14 1.13-.27.37-.13.72-.3 1.06-.52.34-.22.65-.49.93-.81l-.72-.9a.75.75 0 0 0-.19-.17.554.554 0 0 0-.26-.06.98.98 0 0 0-.48.14c-.16.1-.35.2-.57.31-.22.12-.47.22-.76.31-.29.1-.63.14-1.03.14-.82 0-1.47-.24-1.96-.74-.5-.49-.78-1.26-.85-2.32h6.34c.11 0 .2-.01.28-.04.07-.03.13-.08.17-.15.04-.07.07-.17.09-.29.02-.12.03-.28.03-.47 0-.74-.11-1.39-.33-1.97-.22-.58-.53-1.06-.92-1.46-.4-.4-.87-.7-1.41-.91-.54-.2-1.14-.3-1.78-.31Zm.05 1.77c.36 0 .68.07.96.19.27.12.5.29.68.5.18.22.31.47.4.75.08.28.13.58.13.9h-4.64c.11-.74.37-1.32.78-1.73.4-.4.97-.61 1.69-.61Zm15.437 1.21c-.18-.64-.44-1.19-.78-1.63-.34-.44-.74-.77-1.2-1-.46-.23-.97-.35-1.53-.35-.69 0-1.29.13-1.8.39-.52.26-.98.6-1.38 1.03v-5.86h-4.06v1.18c-.01.35.16.55.5.63.03 0 .07.01.14.02s.18.03.34.05c.15.03.36.06.61.11v12.46c1.87.38 3.55.56 5.03.56.67 0 1.28-.13 1.82-.4a4.1 4.1 0 0 0 1.39-1.13c.39-.48.68-1.04.89-1.7.2-.65.31-1.36.31-2.13 0-.84-.1-1.58-.28-2.23Zm-2.44 3.78c-.12.44-.28.8-.49 1.08-.21.29-.46.5-.76.64s-.64.21-1.01.21c-.66 0-1.33-.06-1.99-.19v-5.34c.31-.39.65-.69 1.01-.91.37-.22.8-.33 1.32-.33.32 0 .61.06.87.18s.48.31.66.57c.18.26.31.6.41 1.02.1.42.15.93.15 1.52 0 .6-.06 1.11-.17 1.55Zm10.787-.65c-.14-.29-.33-.54-.57-.75-.24-.21-.51-.38-.8-.52-.31-.14-.61-.26-.93-.37-.31-.1-.62-.2-.92-.29-.3-.09-.56-.19-.8-.31-.24-.11-.43-.24-.57-.39a.803.803 0 0 1-.22-.56c0-.33.14-.6.42-.81.28-.2.67-.31 1.15-.31.47 0 .94.05 1.2.14.08.77.11 1.03.13 1.13.05.25.21.37.46.37h1.15v-2.9l.01-.01c-1.44-.45-1.99-.52-2.99-.52-.63 0-1.19.08-1.67.25-.48.17-.89.4-1.21.68-.32.28-.57.62-.74.99-.16.38-.24.78-.24 1.2 0 .46.07.85.21 1.17.14.32.33.58.57.8.24.22.51.41.81.55.3.14.61.27.93.37.32.11.63.21.93.3.3.09.57.19.81.3.24.12.43.25.57.4.14.16.21.35.21.59 0 .16-.03.32-.09.47-.06.15-.16.28-.3.39-.14.12-.31.21-.52.28-.21.07-.46.1-.75.1-.44 0-1.08 0-1.62-.17-.08-.81-.12-1.08-.14-1.18-.05-.25-.21-.37-.46-.37h-1.16v2.9c.74.28 1.98.55 3.25.55.66 0 1.25-.08 1.76-.25.51-.17.94-.41 1.28-.71.35-.3.61-.66.79-1.08.19-.42.27-.87.27-1.37 0-.41-.07-.76-.21-1.06Zm5.037 4.47c.5 0 .98-.07 1.45-.23.46-.15.88-.38 1.24-.68l-.74-1.2c-.06-.07-.11-.12-.15-.16a.28.28 0 0 0-.18-.06c-.06 0-.12.02-.18.06-.06.04-.13.07-.21.11-.08.04-.17.08-.27.12-.1.04-.23.05-.38.05-.27 0-.48-.09-.64-.27-.16-.18-.24-.43-.24-.75v-5.56h2.7v-1.76h-2.7v-3.23h-1.28c-.15 0-.27.04-.37.11-.1.08-.16.18-.18.31l-.52 2.8-1.65.27v.98c0 .18.04.31.14.39.1.09.21.13.35.13h1.04v5.73c0 .89.24 1.59.72 2.09.48.5 1.16.75 2.05.75Zm8.512-10.58c-.77 0-1.46.14-2.07.4a4.57 4.57 0 0 0-2.52 2.7c-.23.62-.34 1.27-.34 1.97 0 .9.13 1.7.39 2.38.26.68.61 1.26 1.07 1.72.45.46.98.81 1.59 1.05.62.24 1.28.35 1.99.35.36 0 .74-.02 1.12-.08.38-.05.76-.14 1.13-.27.37-.13.72-.3 1.06-.52.34-.22.65-.49.93-.81l-.72-.9a.75.75 0 0 0-.19-.17.554.554 0 0 0-.26-.06.98.98 0 0 0-.48.14c-.16.1-.35.2-.57.31-.22.12-.47.22-.76.31-.29.1-.63.14-1.03.14-.82 0-1.47-.24-1.96-.74-.5-.49-.78-1.26-.85-2.32h6.34c.11 0 .2-.01.28-.04.07-.03.13-.08.17-.15.04-.07.07-.17.09-.29.02-.12.03-.28.03-.47 0-.74-.11-1.39-.33-1.97-.22-.58-.53-1.06-.92-1.46-.4-.4-.87-.7-1.41-.91-.54-.2-1.14-.3-1.78-.31Zm.05 1.77c.36 0 .68.07.96.19.27.12.5.29.68.5.18.22.31.47.4.75.08.28.13.58.13.9h-4.64c.11-.74.37-1.32.78-1.73.4-.4.97-.61 1.69-.61Zm11.88-1.79c-.61 0-1.17.18-1.66.55-.49.36-.92.86-1.29 1.5l-.15-1.24c-.03-.23-.1-.39-.2-.48-.1-.1-.28-.14-.53-.14h-2.96v1.17c-.01.35.16.56.5.63.15.02.16.03 1.01.18v6.29c-.85.15-.86.16-1.01.18-.34.08-.51.28-.5.63V114h5.49v-1.17c0-.35-.16-.55-.5-.63-.15-.02-.16-.03-1.01-.18v-4.4c.25-.55.56-.97.93-1.25s.81-.42 1.32-.42c.29 0 .52.02.69.07.17.04.31.07.41.07.11 0 .2-.03.27-.08s.11-.13.13-.25l.32-1.85c-.33-.24-.75-.35-1.26-.35Z"/></svg>