<svg xmlns="http://www.w3.org/2000/svg" width="192" height="192" fill="none"><rect width="152" height="152" x="172" y="172" fill="#9ABEFF" rx="10" transform="rotate(180 172 172)"/><path fill="#fff" fill-rule="evenodd" d="M96 148c28.719 0 52-23.281 52-52s-23.281-52-52-52-52 23.281-52 52 23.281 52 52 52Z" clip-rule="evenodd"/><path fill="#fff" fill-opacity=".5" stroke="#9ABEFF" stroke-width="5" d="M114.5 96c0 10.217-8.283 18.5-18.5 18.5S77.5 106.217 77.5 96 85.783 77.5 96 77.5s18.5 8.283 18.5 18.5Z"/><path fill="#D8D8D8" fill-rule="evenodd" d="M96 66a6 6 0 1 1 0-12 6 6 0 0 1 0 12ZM66 96a6 6 0 1 1-12 0 6 6 0 0 1 12 0Zm72 0a6 6 0 1 1-12 0 6 6 0 0 1 12 0Zm-48 36a6 6 0 1 0 12 0 6 6 0 0 0-12 0Z" clip-rule="evenodd"/></svg>