<svg xmlns="http://www.w3.org/2000/svg" width="192" height="192" fill="none"><rect width="152" height="121" x="20" y="20" fill="#809ED4" rx="10"/><path fill="#54688C" d="M9 132h173a9 9 0 0 1-9 9H18a9 9 0 0 1-9-9Z"/><rect width="78" height="134" x="45" y="42" fill="#9ABEFF" rx="5"/><path fill="#86A6DF" d="M45 59h78v112a5 5 0 0 1-5 5H50a5 5 0 0 1-5-5V59Z"/><path fill="#657DA9" d="M45 93h78v78a5 5 0 0 1-5 5H50a5 5 0 0 1-5-5V93Z"/><path fill="#54688C" d="M45 132h78v39a5 5 0 0 1-5 5H50a5 5 0 0 1-5-5v-39Z"/><rect width="23" height="5" x="74" y="48" fill="#54688C" rx="2.5"/><rect width="5" height="5" x="66" y="48" fill="#54688C" rx="2.5"/></svg>