<svg xmlns="http://www.w3.org/2000/svg" width="192" height="192" fill="none"><rect width="152" height="152" x="20" y="20" fill="#728DBE" rx="10"/><path fill="#fff" fill-rule="evenodd" d="m55 66 49-11.46v82.919L55 126V66Z" clip-rule="evenodd"/><path fill="#728DBE" fill-rule="evenodd" d="m88.87 78.213-22.3 3.193v6.045l7.81-.682v26.757l6.731.963V86.181l7.759-.677v-7.29Z" clip-rule="evenodd"/><path fill="#fff" d="M107 91h14v17c0 7.732-6.268 14-14 14V91Zm17 3h14v6.49c0 7.732-6.268 14-14 14V94Z"/><path fill="#fff" fill-rule="evenodd" d="M120 80a7 7 0 0 1-13 3.608v-7.216A7 7 0 0 1 120 80Zm10 10a7 7 0 1 0 0-14 7 7 0 0 0 0 14Z" clip-rule="evenodd"/></svg>