<svg xmlns="http://www.w3.org/2000/svg" width="192" height="192" fill="none"><rect width="152" height="152" fill="#9ABEFF" rx="10" transform="matrix(1 0 0 -1 20 172)"/><path fill="#fff" fill-rule="evenodd" d="M82.375 101.832h43.75s-.216-14.29-2.846-20.464c-7.133-16.744-20.343-20.359-32.076-19.157C68.502 64.537 62 92.127 62 92.127s14.449-17.236 29.203-17.11c15.88.136 15.522 14.753 15.522 14.753h-24.35s-.11-2.397.87-5.371c.982-2.974 3.248-5.631 3.248-5.631s-16.432 9.309-16.248 23.434c.184 14.125 5.325 21.699 17.73 26.699 12.407 5 32.359-2.986 32.359-2.986v-15.142s-13.262 7.533-25.426 4.874c-12.164-2.659-12.533-13.815-12.533-13.815Z" clip-rule="evenodd"/></svg>