<svg xmlns="http://www.w3.org/2000/svg" width="192" height="192" fill="none"><rect width="140" height="140" x="21" y="20" fill="#8E6F60" rx="10"/><path fill="#D3B69A" fill-rule="evenodd" d="M61.526 20h58.948v70l-3.684-7.368L113.105 90l-3.684-7.368L105.737 90l-3.684-7.368L98.369 90l-3.685-7.368L91 90h-7.368l-3.685-7.368L76.263 90l-3.684-7.368L68.895 90l-3.684-7.368L61.526 90V20Zm55.264 132.632 3.684-7.369V160H61.526v-14.737l3.685 7.369 3.684-7.369 3.684 7.369 3.684-7.369 3.684 7.369 3.685-7.369 3.684 7.369L91 145.263l3.684 7.369 3.684-7.369 3.685 7.369 3.684-7.369 3.684 7.369 3.684-7.369 3.685 7.369Zm-29.474-70L91 90h-7.368l3.684-7.368Z" clip-rule="evenodd"/><path fill="#F8C18C" fill-rule="evenodd" d="M155.5 174c10.217 0 18.5-8.283 18.5-18.5s-8.283-18.5-18.5-18.5-18.5 8.283-18.5 18.5 8.283 18.5 18.5 18.5Z" clip-rule="evenodd"/><path stroke="#fff" stroke-linecap="round" stroke-opacity=".7" stroke-width="3" d="m161.852 149.318 2.212-2.211m-14.733 2.224-2.236-2.235"/><path fill="#fff" fill-rule="evenodd" d="M155.677 166.355c5.897 0 10.678-4.781 10.678-10.678 0-5.897-4.781-10.677-10.678-10.677-5.897 0-10.677 4.78-10.677 10.677 0 5.897 4.78 10.678 10.677 10.678Z" clip-rule="evenodd"/><path stroke="#F8C18C" stroke-width="2" d="M145 155.571h21.355"/><path fill="#F8C18C" fill-rule="evenodd" d="M151 153a2 2 0 1 0 .001-3.999A2 2 0 0 0 151 153Zm9 0a2 2 0 1 0 .001-3.999A2 2 0 0 0 160 153Z" clip-rule="evenodd"/><path fill="#8E6F60" d="m90.19 50-8.595 18.675L73.09 50h-6.435v27h5.94V60.89L79.885 77h3.42l7.335-16.065V77h5.94V50h-6.39Zm17.632 21.735V50h-5.94v27h14.895v-5.265h-8.955Z"/></svg>