<svg xmlns="http://www.w3.org/2000/svg" width="192" height="192" fill="none"><rect width="152" height="152" x="20" y="20" fill="#9ABEFF" rx="10"/><path fill="#F9DE81" fill-rule="evenodd" d="M134 53.662a14.37 14.37 0 0 0 2.939.302c7.904 0 14.311-6.407 14.311-14.31 0-2.816-.812-5.44-2.216-7.654 6.494 1.356 11.372 7.113 11.372 14.009 0 7.904-6.407 14.31-14.311 14.31A14.3 14.3 0 0 1 134 53.663Z" clip-rule="evenodd"/><path fill="#fff" fill-opacity=".7" fill-rule="evenodd" d="M28 78c0-4.418 3.566-7.989 7.983-7.881C53.948 70.556 96 72.602 96 82.179c0-9.578 42.052-11.623 60.017-12.06C160.434 70.01 164 73.582 164 78v78a8 8 0 0 1-8 8H36a8 8 0 0 1-8-8V78Z" clip-rule="evenodd"/><path fill="#fff" fill-rule="evenodd" d="M48 69.483c0-5.074 4.65-8.833 9.561-7.56C71.563 65.553 96 73.133 96 81.823v80.627c0 .635-.583 1.073-1.204.944l-40.428-8.422A8 8 0 0 1 48 147.14V69.483Z" clip-rule="evenodd"/></svg>