<svg xmlns="http://www.w3.org/2000/svg" width="192" height="192" fill="none"><rect width="152" height="152" x="20" y="20" fill="#FF837D" rx="10"/><mask id="a" width="152" height="152" x="20" y="20" maskUnits="userSpaceOnUse" style="mask-type:luminance"><rect width="152" height="152" x="20" y="20" fill="#fff" rx="10"/></mask><g mask="url(#a)"><mask id="b" width="96" height="146" x="0" y="10" maskUnits="userSpaceOnUse" style="mask-type:luminance"><path fill="#fff" d="M0 10h96v146H0z"/></mask><g mask="url(#b)"><path fill="#56595B" fill-rule="evenodd" d="m75 44 1.186-5.083L76 70h-1V44Z" clip-rule="evenodd"/><path fill="#B1B5BD" fill-rule="evenodd" d="M76 44h19v4H75l1-4Z" clip-rule="evenodd"/><path stroke="#56595B" stroke-linecap="square" d="M75.5 48.5h20"/><path fill="#B1B5BD" fill-rule="evenodd" d="M76 55h19v4H75l1-4Z" clip-rule="evenodd"/><path stroke="#56595B" stroke-linecap="square" d="M75.5 59.5h20"/><path fill="#B1B5BD" fill-rule="evenodd" d="M76 63h19v4H75l1-4Z" clip-rule="evenodd"/><path stroke="#56595B" stroke-linecap="square" d="M75.5 67.5h20"/><path fill="#B1B5BD" fill-rule="evenodd" d="M76 64h19v4H75l1-4Z" clip-rule="evenodd"/><path stroke="#56595B" stroke-linecap="square" d="M75.5 68.5h20"/><path fill="#4A4A4A" fill-rule="evenodd" d="M22.538 75.154c.306-.102.626-.154.949-.154H43s2.73 0 5 3c1.726 3.653 2 6 2 6s1.137 8.114 1 16c-.162 8.736-2 17-2 17H20V76l2.538-.846Z" clip-rule="evenodd"/><path fill="#4A4A4A" fill-rule="evenodd" d="M50.596 58.44c.374-.844 1.232-1.29 2.156-1.3L65.84 57s1.761 0 3.225 1.929c1.114 2.348 1.29 3.857 1.29 3.857s.734 5.216.646 10.285C70.895 78.688 69.71 84 69.71 84l-20.57 2.518s-.713-2.281-.72-13.939c-.006-7.936 1.325-12.215 2.175-14.138Z" clip-rule="evenodd"/><path fill="#fff" fill-rule="evenodd" d="m86.027 127.24-33.732-10.062-33.71-1.476-7.116 15.352h3.473l-3.671 8.471h3.154l-4.37 8.202h35.662s13.565.793 21.73 2.092c8.165 1.299 15.5 3.83 15.5 3.83l5.924-12.99-2.844-13.419Z" clip-rule="evenodd"/><path fill="#56595B" stroke="#B1B5BD" d="M85.5 139.355V127.5h20v11.9l.008.044 2.894 16.056H82.598l2.894-16.056.008-.044v-.045Z"/><path stroke="#B1B5BD" stroke-linecap="square" d="M87.5 132.5h16"/><path fill="#56595B" fill-rule="evenodd" d="m112 105.628 1.229 13.182c.032.343.019.688-.037 1.028l-.775 4.654a3 3 0 0 1-2.959 2.508H82.269a3 3 0 0 1-2.887-2.183l-1.313-4.644a4.001 4.001 0 0 1-.102-1.715L80 105.628h32Z" clip-rule="evenodd"/><path fill="#56595B" fill-rule="evenodd" d="m69.28 109.062-21.547 7.924 1.031-19.204 31.51-8.37-1.24 26.79-9.754-7.14Z" clip-rule="evenodd"/><path fill="#fff" fill-rule="evenodd" d="M67.116 80.757s-8.5 3.273-11.522 5.197c-3.023 1.924-4.999 5.385-4.999 5.385V83.64s.667-3.032 9.894-8.117c9.227-5.085 15.378-5.81 15.378-5.81l-8.751 11.044Z" clip-rule="evenodd"/><path fill="#4A4A4A" fill-rule="evenodd" d="M80 77v28h-7v-8l-6-5-16.294 5v-8c0-2.572 12.064-6.772 15.51-7.92a3.043 3.043 0 0 0 1.484-1.07l4.439-5.955L80 77Z" clip-rule="evenodd"/><path stroke="#BA6561" stroke-linecap="square" stroke-width="2" d="M79.319 90.557 48.654 103.39"/><path stroke="#FF837D" stroke-linecap="square" d="M79.319 90.557 48.654 103.39"/><path stroke="#BA6561" stroke-linecap="square" stroke-width="2" d="m80.5 88.5-32 9"/><path stroke="#FF837D" stroke-linecap="square" d="m80.5 88.5-32 9"/><path stroke="#BA6561" stroke-linecap="square" stroke-width="2" d="m79.998 96.586-29.695 14.941"/><path stroke="#FF837D" stroke-linecap="square" d="m79.998 96.586-29.695 14.941"/><path fill="#56595B" fill-rule="evenodd" d="m48.064 97.763 14.03-2.977-14.961 5.29.931-2.313Zm1.504 5.801 13.478-5.201-13.993 7.64.515-2.439Zm0 8 12.948-4.914-14.483 7.913 1.535-2.999Z" clip-rule="evenodd"/><path fill="#B1B5BD" fill-rule="evenodd" d="M70 105h52l1 4H69l1-4Z" clip-rule="evenodd"/><path stroke="#56595B" stroke-linecap="square" d="M69.5 109.5h53"/><path fill="#56595B" fill-rule="evenodd" d="M48 115c1.105 0 2-4.477 2-10s-.895-10-2-10-2 4.477-2 10 .895 10 2 10Z" clip-rule="evenodd"/><path fill="#fff" fill-rule="evenodd" d="M80.698 62.686c-.463.202-.853.53-1.148.94l-7.666 10.652L80 77v27.053c0 1.289-.208 2.571-.616 3.794L78 112c-.228 1.847-.07 4.613.626 6.931A6.255 6.255 0 0 1 78 118l1 2a11.911 11.911 0 0 1-.374-1.069c1.01 1.25 2.42 2.069 3.374 2.069h27c1.259 0 2.435-.61 3.212-1.539A9.018 9.018 0 0 1 112 120l.371-.742c.28-.38.496-.805.629-1.258l-.629 1.258a4.435 4.435 0 0 1-.159.203c.839-2.354.94-5.503.788-7.461l-.837-5.02a12.075 12.075 0 0 1-.163-1.973V77l8-3-7.591-10.438a2.716 2.716 0 0 0-1.028-.868C109.412 61.76 103.008 59 96.001 59c-6.286 0-13.134 2.743-15.303 3.686Z" clip-rule="evenodd"/><path fill="#56595B" fill-rule="evenodd" d="M87.326 60.99c.408-.33.68-.792.768-1.31.539-3.159 2.837-14.582 7.914-14.582 5.134 0 7.494 11.683 8.016 14.686a2.1 2.1 0 0 0 .633 1.18c1.169 1.089 3.93 3.69 4.245 4.256.218.391.524 2.065.757 3.512.193 1.197-.74 2.268-1.953 2.268H84.051c-1.124 0-2.025-.928-1.89-2.044.15-1.246.437-2.779.98-3.736.773-1.363 3.06-3.316 4.185-4.23Z" clip-rule="evenodd"/><path stroke="#B1B5BD" d="m85.397 137.26-36.25-7.141-37.77.817m72.95 14.646L48.653 137.7l-37.448 1.935"/><path fill="#56595B" fill-rule="evenodd" d="M52.28 116.736c-.03-.836-1.185-1.03-1.487-.251l-4.657 12.001a2 2 0 0 0-.136.724v17.621c0 2.116 2.857 2.782 3.794.885l.1-.204h-2.685l3.233-9.686-2.051-.223 2.036-7.294-1.79-.382 3.642-13.191Z" clip-rule="evenodd"/><rect width="9" height="6" x="65" y="62" fill="#56595B" rx="2"/><path fill="#56595B" fill-rule="evenodd" d="m74.27 71.029-4.346-3.098 3.746-1.16 2.187 1.941-1.587 2.317Z" clip-rule="evenodd"/><path stroke="#56595B" stroke-width="2" d="M95.92 47.148v-7.224h-7.036"/></g><mask id="c" width="96" height="146" x="96" y="10" maskUnits="userSpaceOnUse" style="mask-type:luminance"><path fill="#fff" d="M192 10H96v146h96z"/></mask><g mask="url(#c)"><path fill="#56595B" fill-rule="evenodd" d="m117 44-1.186-5.083L116 70h1V44Z" clip-rule="evenodd"/><path fill="#B1B5BD" fill-rule="evenodd" d="M116 44H97v4h20l-1-4Z" clip-rule="evenodd"/><path stroke="#56595B" stroke-linecap="square" d="M116.5 48.5h-20"/><path fill="#B1B5BD" fill-rule="evenodd" d="M116 55H97v4h20l-1-4Z" clip-rule="evenodd"/><path stroke="#56595B" stroke-linecap="square" d="M116.5 59.5h-20"/><path fill="#B1B5BD" fill-rule="evenodd" d="M116 63H97v4h20l-1-4Z" clip-rule="evenodd"/><path stroke="#56595B" stroke-linecap="square" d="M116.5 67.5h-20"/><path fill="#B1B5BD" fill-rule="evenodd" d="M116 64H97v4h20l-1-4Z" clip-rule="evenodd"/><path stroke="#56595B" stroke-linecap="square" d="M116.5 68.5h-20"/><path fill="#4A4A4A" fill-rule="evenodd" d="M169.462 75.154a3.002 3.002 0 0 0-.949-.154H149s-2.731 0-5 3c-1.726 3.653-2 6-2 6s-1.137 8.114-1 16c.162 8.736 2 17 2 17h29V76l-2.538-.846Z" clip-rule="evenodd"/><path fill="#4A4A4A" fill-rule="evenodd" d="M141.403 58.44c-.373-.844-1.231-1.29-2.155-1.3L126.161 57s-1.762 0-3.226 1.929c-1.113 2.348-1.29 3.857-1.29 3.857s-.733 5.216-.645 10.285c.105 5.617 1.29 10.929 1.29 10.929l20.569 2.518s.714-2.281.721-13.939c.005-7.936-1.326-12.215-2.177-14.138Z" clip-rule="evenodd"/><path fill="#fff" fill-rule="evenodd" d="m105.973 127.24 33.732-10.062 33.711-1.476 7.115 15.352h-3.473l3.671 8.471h-3.154l4.371 8.202h-35.663s-13.565.793-21.73 2.092c-8.165 1.299-15.499 3.83-15.499 3.83l-5.925-12.99 2.844-13.419Z" clip-rule="evenodd"/><path fill="#56595B" stroke="#B1B5BD" d="M106.5 139.355V127.5h-20v11.9l-.008.044-2.894 16.056h25.804l-2.894-16.056-.008-.044v-.045Z"/><path stroke="#B1B5BD" stroke-linecap="square" d="M104.5 132.5h-16"/><path fill="#56595B" fill-rule="evenodd" d="m80 105.628-1.23 13.182a4 4 0 0 0 .037 1.028l.775 4.654a3 3 0 0 0 2.96 2.508h27.189a3.002 3.002 0 0 0 2.887-2.183l1.313-4.644a3.992 3.992 0 0 0 .102-1.715L112 105.628H80Z" clip-rule="evenodd"/><path fill="#56595B" fill-rule="evenodd" d="m122.72 109.062 21.546 7.924-1.03-19.204-31.51-8.37 1.241 26.79 9.753-7.14Z" clip-rule="evenodd"/><path fill="#fff" fill-rule="evenodd" d="M124.884 80.757s8.5 3.273 11.522 5.197c3.023 1.924 4.999 5.385 4.999 5.385V83.64s-.667-3.032-9.894-8.117c-9.227-5.085-15.377-5.81-15.377-5.81l8.75 11.044Z" clip-rule="evenodd"/><path fill="#4A4A4A" fill-rule="evenodd" d="M112 77v28h7v-8l6-5 16.294 5v-8c0-2.572-12.064-6.772-15.509-7.92a3.041 3.041 0 0 1-1.486-1.071l-4.438-5.955L112 77Z" clip-rule="evenodd"/><path stroke="#BA6561" stroke-linecap="square" stroke-width="2" d="m112.681 90.557 30.665 12.833"/><path stroke="#FF837D" stroke-linecap="square" d="m112.681 90.557 30.665 12.833"/><path stroke="#BA6561" stroke-linecap="square" stroke-width="2" d="m111.5 88.5 32 9"/><path stroke="#FF837D" stroke-linecap="square" d="m111.5 88.5 32 9"/><path stroke="#BA6561" stroke-linecap="square" stroke-width="2" d="m112.002 96.586 29.695 14.941"/><path stroke="#FF837D" stroke-linecap="square" d="m112.002 96.586 29.695 14.941"/><path fill="#56595B" fill-rule="evenodd" d="m143.936 97.763-14.03-2.977 14.961 5.29-.931-2.313Zm-1.504 5.801-13.478-5.201 13.993 7.64-.515-2.439Zm0 8-12.948-4.914 14.483 7.913-1.535-2.999Z" clip-rule="evenodd"/><path fill="#B1B5BD" fill-rule="evenodd" d="M122 105H70l-1 4h54l-1-4Z" clip-rule="evenodd"/><path stroke="#56595B" stroke-linecap="square" d="M122.5 109.5h-53"/><path fill="#56595B" fill-rule="evenodd" d="M144 115c-1.105 0-2-4.477-2-10s.895-10 2-10 2 4.477 2 10-.895 10-2 10Z" clip-rule="evenodd"/><path fill="#fff" fill-rule="evenodd" d="M111.302 62.686c.463.202.853.53 1.148.94l7.666 10.652L112 77v27.053c0 1.289.208 2.571.616 3.794L114 112c.228 1.847.07 4.613-.626 6.931A6.21 6.21 0 0 0 114 118l-1 2c.139-.341.263-.699.374-1.069-1.01 1.25-2.421 2.069-3.374 2.069H83c-1.259 0-2.435-.61-3.212-1.539.066.185.137.365.212.539l-.371-.742a4.044 4.044 0 0 1-.63-1.258l.63 1.258c.05.069.104.137.16.203-.84-2.354-.94-5.503-.79-7.461l.838-5.02c.108-.652.163-1.312.163-1.973V77l-8-3 7.591-10.438c.269-.37.615-.671 1.028-.868C82.588 61.76 88.992 59 95.999 59c6.286 0 13.134 2.743 15.303 3.686Z" clip-rule="evenodd"/><path fill="#56595B" fill-rule="evenodd" d="M104.674 60.99a2.144 2.144 0 0 1-.768-1.31c-.539-3.159-2.837-14.582-7.914-14.582-5.134 0-7.494 11.683-8.016 14.686a2.095 2.095 0 0 1-.633 1.18c-1.17 1.089-3.93 3.69-4.245 4.256-.218.391-.524 2.065-.757 3.512-.193 1.197.74 2.268 1.953 2.268h23.655c1.124 0 2.025-.928 1.89-2.044-.15-1.246-.437-2.779-.98-3.736-.773-1.363-3.06-3.316-4.185-4.23Z" clip-rule="evenodd"/><path stroke="#B1B5BD" d="m106.603 137.26 36.251-7.141 37.768.817m-72.949 14.646 35.674-7.882 37.448 1.935"/><path fill="#56595B" fill-rule="evenodd" d="M139.721 116.736c.03-.836 1.184-1.03 1.486-.251l4.658 12.001c.089.231.135.476.135.724v17.621c0 2.116-2.857 2.782-3.794.885l-.1-.204h2.685l-3.233-9.686 2.051-.223-2.036-7.294 1.79-.382-3.642-13.191Z" clip-rule="evenodd"/><rect width="9" height="6" fill="#56595B" rx="2" transform="matrix(-1 0 0 1 127 62)"/><path fill="#56595B" fill-rule="evenodd" d="m117.73 71.029 4.346-3.098-3.746-1.16-2.187 1.941 1.587 2.317Z" clip-rule="evenodd"/><path stroke="#56595B" stroke-width="2" d="M96.08 47.148v-7.224h7.036"/></g></g></svg>