<svg xmlns="http://www.w3.org/2000/svg" width="192" height="192" fill="none"><path fill="#FF837D" fill-rule="evenodd" d="M96 183c48.049 0 87-38.951 87-87S144.049 9 96 9 9 47.951 9 96s38.951 87 87 87Z" clip-rule="evenodd"/><path stroke="#fff" stroke-width="5" d="M88.163 63c-17.992-.194-23.075 44.754-4.32 61.774 18.755 17.02 28.248-23.047 57.157-20.333"/><path stroke="#fff" stroke-width="5" d="M125.02 96.98s-8.111-35.66-35.986-33.897c-27.876 1.764-36.663 43.727-25.037 50.711 11.626 6.984 24.376-18.658 47.632-18.374 23.256.284 33.775 9.375 32.221 14.979-.895 3.228-4.617 4.05-8.925 3.395-4.308-.655-8.27-5.975-8.27-5.975"/></svg>