<svg xmlns="http://www.w3.org/2000/svg" width="192" height="192" fill="none"><rect width="152" height="152" x="20" y="20" fill="#9ABEFF" rx="10"/><path fill="#fff" fill-rule="evenodd" d="M128.101 64.617c8.87 8.87 9.614 22.506 1.662 30.458-5.009 5.009-12.273 6.567-19.18 4.819l-3.859 3.859a2 2 0 0 1-1.738.56l-7.521-1.235a1.996 1.996 0 0 0-1.738.559l-2.964 2.963a2 2 0 0 0-.55 1.785l.702 3.722c.43 2.281-1.474 4.328-3.78 4.071a1.722 1.722 0 0 0-1.903 1.901c.258 2.305-1.793 4.2-4.07 3.76l-3.684-.71a2 2 0 0 0-1.793.549l-1.762 1.763a1.999 1.999 0 0 0-.528 1.892l1.304 5.292a1.999 1.999 0 0 1-.528 1.892l-1.333 1.334c-.36.36-.844.569-1.353.584l-7.964.245a2 2 0 0 1-1.475-.585l-5.859-5.859a1.997 1.997 0 0 1-.585-1.454l.152-7.643a2 2 0 0 1 .586-1.374l34.73-34.731c-2.123-7.17-.653-14.852 4.573-20.079 7.952-7.952 21.589-7.208 30.458 1.662Zm-6.091 6.091a6.265 6.265 0 1 1-8.861 8.86 6.265 6.265 0 1 1 8.861-8.86Zm-55.656 47.903a1.958 1.958 0 0 0 2.769 2.769l22.705-22.705a1.958 1.958 0 0 0-2.769-2.77l-22.705 22.706Z" clip-rule="evenodd"/></svg>