<svg xmlns="http://www.w3.org/2000/svg" width="192" height="192" fill="none"><path fill="#BD9AFF" fill-rule="evenodd" d="M97 184c48.049 0 87-38.951 87-87s-38.951-87-87-87-87 38.951-87 87 38.951 87 87 87Z" clip-rule="evenodd"/><rect width="6" height="20" x="47" y="86" fill="#fff" rx="3"/><rect width="6" height="20" x="94" y="86" fill="#fff" rx="3"/><rect width="6" height="20" x="141" y="86" fill="#fff" rx="3"/><rect width="6" height="35" x="59" y="79" fill="#fff" rx="3"/><rect width="6" height="35" x="105" y="79" fill="#fff" rx="3"/><rect width="6" height="35" x="83" y="79" fill="#fff" rx="3"/><rect width="6" height="35" x="129" y="79" fill="#fff" rx="3"/><rect width="6" height="60" x="71" y="67" fill="#fff" rx="3"/><rect width="6" height="60" x="117" y="67" fill="#fff" rx="3"/></svg>