<svg xmlns="http://www.w3.org/2000/svg" width="192" height="192" fill="none"><path fill="#56595B" fill-rule="evenodd" d="M96 183c48.049 0 87-38.951 87-87S144.049 9 96 9 9 47.951 9 96s38.951 87 87 87Z" clip-rule="evenodd"/><path fill="#9ABEFF" fill-rule="evenodd" d="M143.122 115.541c-3.337 3.187-18.497 15.958-48.092 16.994-26.135.915-39.33-8.22-43.984-12.428a50.982 50.982 0 0 0 3.22 5.214c1.01.802 16.847 13.066 41.734 13.989 19.207.712 34.101-7.828 40.418-12.203a50.956 50.956 0 0 0 6.704-11.566ZM96 147a50.779 50.779 0 0 1-30.704-10.274c5.968 2.086 19.551 6.066 34.6 5.334 15.164-.737 26.181-6.029 30.748-8.632C121.548 141.851 109.375 147 96 147Zm-41.5-21.349 2.166 2.815a51.465 51.465 0 0 1-2.166-2.815ZM147 96c0-.936-.025-1.865-.075-2.788-.315.372-19.189 22.523-57.947 23.213-38.355.682-43.77-18.284-43.958-18.994.092 3.37.512 6.659 1.229 9.835 2.329 3.356 12.715 14.781 47.568 17.744 33.635 2.859 47.618-11.076 51.553-16.169A51.095 51.095 0 0 0 147 96Zm-5.155-22.37c-.458 1.397-6.139 15.887-46.189 20.507-41.459 4.783-46.405-17.552-46.546-18.23a50.626 50.626 0 0 0-3.4 11.562c3.167 3.796 17.84 18.095 58.099 16.391 36.597-1.548 41.825-12.351 42.404-16.835a50.623 50.623 0 0 0-4.368-13.396Zm5.073 19.458-.32-3.52c.146 1.162.254 2.335.32 3.52ZM45 96c0-.409.005-.816.014-1.223v2.446C45.004 96.816 45 96.409 45 96Zm85.177-37.855c.108 1.441-.83 9.538-33.996 15.506-33.889 6.098-35.327-11.937-35.358-14.578a51.254 51.254 0 0 0-7.655 9.23c1.375 3.673 8.264 13.984 42.488 16.483 37.831 2.762 42.18-14.01 42.666-17.253a51.294 51.294 0 0 0-8.145-9.388ZM96 45a50.793 50.793 0 0 0-32.524 11.715l2.358-1.816s-2.086 10.358 28.104 10.358c25.642 0 30.647-8.343 31.574-10.856A50.77 50.77 0 0 0 96 45Z" clip-rule="evenodd"/></svg>