<svg xmlns="http://www.w3.org/2000/svg" width="192" height="192" fill="none"><path fill="#54688C" fill-rule="evenodd" d="M18.235 54.421a10 10 0 0 1 8.301-9.855l122.417-21.099a5 5 0 0 1 5.85 4.928v94.39c0 4.725-3.308 8.806-7.93 9.784L30.305 157.235c-6.218 1.316-12.07-3.427-12.07-9.783v-93.03Z" clip-rule="evenodd"/><path fill="#54688C" fill-rule="evenodd" d="m28 48 126.803-19.11v102.001L28 150V48Z" clip-rule="evenodd"/><path fill="#96DFD3" stroke="#73ADA4" stroke-width="5" d="M30.5 147.214V50.243l132.974-14.407v96.971L30.5 147.214Z"/><path fill="#98DC9A" stroke="#71A372" stroke-width="5" d="M30.5 50.5h140v97h-140z"/><path fill="#9ABEFF" fill-rule="evenodd" d="M28 48c-5.523 0-10 4.477-10 10v91c0 5.523 4.477 10 10 10h139c5.523 0 10-4.477 10-10V97.938L126.711 48H28Z" clip-rule="evenodd"/><path fill="#fff" d="M88.704 101.4 69.12 78.744h41.344v10.624H93.695l9.537 11.776-11.713 15.296h19.969V127H67.2l21.504-25.6Z"/><path fill="#fff" fill-rule="evenodd" d="M124.143 48h1.965a9 9 0 0 1 6.558 2.836L177 98h-37c-5.523 0-10-4.477-10-10V53.858A5.857 5.857 0 0 0 124.143 48Z" clip-rule="evenodd"/></svg>