<svg xmlns="http://www.w3.org/2000/svg" width="192" height="192" fill="none"><rect width="152" height="152" x="20" y="20" fill="#56595B" rx="10"/><path fill="#fff" d="M68.05 84v17.865L54.775 84h-6.12v27h5.94V93.09L67.825 111h6.12V84H68.05Zm27.731 5.22V84H79.536v27h16.245v-5.22H85.476v-5.67h8.82v-5.22h-8.82v-5.67h10.305ZM116.914 84h-19.53v5.265h6.84V111h5.895V89.265h6.795V84Z"/><path fill="#9ABEFF" d="M123.22 96h5.76V69h-9.855v5.085h4.095V96Zm22.157.36c6.66 0 10.08-5.625 10.08-13.86s-3.42-13.86-10.08-13.86c-6.75 0-10.125 5.625-10.125 13.86s3.375 13.86 10.125 13.86Zm0-5.085c-3.285 0-4.365-3.51-4.365-8.775 0-5.265 1.08-8.775 4.365-8.775 3.24 0 4.32 3.51 4.32 8.775 0 5.265-1.08 8.775-4.32 8.775Z"/></svg>