<svg xmlns="http://www.w3.org/2000/svg" width="192" height="192" fill="none"><path fill="#56595B" fill-rule="evenodd" d="m22 22.642.053 141.362c.002 5.521 4.479 9.996 10 9.996h131.894c5.521 0 9.998-4.475 10-9.996L174 22.642a.479.479 0 0 0-.817-.314l-8.421 8.42a5 5 0 0 1-7.071 0l-5.574-5.573a5 5 0 0 0-7.071 0l-5.575 5.574a5 5 0 0 1-7.071 0l-5.574-5.574a5 5 0 0 0-7.071 0l-5.574 5.574a5 5 0 0 1-7.071 0l-5.574-5.574a5 5 0 0 0-7.072 0l-5.574 5.574a5 5 0 0 1-7.07 0l-5.575-5.574a5 5 0 0 0-7.071 0L63.6 30.749a5 5 0 0 1-7.071 0l-5.575-5.574a5 5 0 0 0-7.07 0l-5.575 5.574a5 5 0 0 1-7.07 0l-8.422-8.421a.48.48 0 0 0-.817.314Z" clip-rule="evenodd"/><path stroke="#71A372" stroke-linecap="round" stroke-width="10" d="M102 138V76m27 62V76"/><path stroke="#98DC9A" stroke-linecap="round" stroke-linejoin="round" stroke-width="10" d="M67 138v-35c19.33 0 35 15.67 35 35"/><path stroke="#98DC9A" stroke-linecap="round" stroke-width="10" d="M67 76c34.44 0 62.359 27.758 62.359 62"/></svg>