<svg xmlns="http://www.w3.org/2000/svg" width="192" height="192" fill="none"><rect width="152" height="84.507" fill="#98DC9A" rx="10" transform="matrix(1 0 0 -1 20 172.507)"/><path stroke="#71A372" stroke-linecap="round" stroke-width="10" d="m147.736 45.107 18.017-18.017M45.264 44.107 27.046 25.89"/><path fill="#98DC9A" fill-rule="evenodd" d="M20 96c0-41.974 34.026-76 76-76s76 34.026 76 76H20Z" clip-rule="evenodd"/><path fill="#71A372" fill-rule="evenodd" d="M135 63a6 6 0 1 0 0-12 6 6 0 0 0 0 12Zm-78 0a6 6 0 1 0 0-12 6 6 0 0 0 0 12Z" clip-rule="evenodd"/><path stroke="#71A372" stroke-width="10" d="M20.5 99h151.03"/></svg>