<svg xmlns="http://www.w3.org/2000/svg" width="192" height="192" fill="none"><rect width="122" height="144" x="20" y="28" fill="#fff" rx="10"/><path fill="#728DBE" fill-rule="evenodd" d="M20 38c0-5.523 4.477-10 10-10h102c5.523 0 10 4.477 10 10v122.889c0 5.938-5.144 10.568-11.049 9.945l-109.16-11.52A2 2 0 0 1 20 157.325V38Z" clip-rule="evenodd"/><path fill="#9ABEFF" fill-rule="evenodd" d="M20 38c0-5.523 4.477-10 10-10h102c5.523 0 10 4.477 10 10v122.179c0 6.185-5.514 10.895-11.614 9.875-27.484-4.596-94.462-15.741-97.71-15.741-4.09 0-7.48 5.107-9.763 5.107-2.283 0-2.913-1.585-2.913-1.585V38Z" clip-rule="evenodd"/><rect width="17" height="23" x="32" y="20" fill="#4A4A4A" rx="5"/><rect width="17" height="23" x="86" y="20" fill="#4A4A4A" rx="5"/><rect width="17" height="23" x="59" y="20" fill="#4A4A4A" rx="5"/><rect width="17" height="23" x="113" y="20" fill="#4A4A4A" rx="5"/><path fill="#ECECEC" fill-rule="evenodd" d="M125.596 127.426s-3.42 12.461-5.6 18.665c-2.181 6.203-4.886 11.164-4.886 11.164l.664 26.592s6.03-13.698 10.463-18.854c4.432-5.156 9.792-4.707 9.792-4.707s-2.89-2.436-2.535-12.223c.355-9.786 3.694-19.73 3.694-19.73l-11.592-.907Z" clip-rule="evenodd"/><path stroke="#A0A5AF" stroke-linecap="round" stroke-width="2" d="m120.363 158.298 9.049-32.102"/><path fill="#728DBE" fill-rule="evenodd" d="M122.796 117.795s-3.205 10.472 7.481 13.07c10.687 2.599 12.359-7.985 12.359-7.985l23.147-111.538s.666-4.169-3.5-5.13c-4.166-.963-5.861 2.641-5.861 2.641l-33.626 108.942Z" clip-rule="evenodd"/></svg>