<svg xmlns="http://www.w3.org/2000/svg" width="192" height="192" fill="none"><rect width="152" height="152" x="21" y="20" fill="#F8C18C" rx="10"/><mask id="a" width="152" height="152" x="21" y="20" maskUnits="userSpaceOnUse" style="mask-type:luminance"><rect width="152" height="152" x="21" y="20" fill="#fff" rx="10"/></mask><g mask="url(#a)"><path fill="#fff" fill-rule="evenodd" d="M88.501 92.756c1.417-6.6 5.728-12.126 11.541-15.183v21.846l-11.54-6.663Zm-.461 3.393c-.027.447-.04.897-.04 1.351 0 6.641 2.877 12.61 7.453 16.728l11.951-6.9-19.364-11.18Zm22.533 9.35 6.723-3.882v-8.991l-6.366-3.676-7.719 4.457v7.842l7.362 4.25Zm-12.407 10.822 19.13-11.045v13.679A22.472 22.472 0 0 1 110.5 120a22.395 22.395 0 0 1-12.334-3.679Zm22.299 1.358c6.285-3.11 10.909-9.07 12.182-16.19l-12.182-7.034v23.224Zm12.529-19.65-18.895-10.908 11.271-6.508c4.678 4.124 7.63 10.16 7.63 16.887 0 .177-.002.354-.006.53Zm-10.373-19.488A22.392 22.392 0 0 0 110.5 75c-2.551 0-5.003.424-7.289 1.207v13.54l19.41-11.206Z" clip-rule="evenodd"/><path fill="#fff" stroke="#F8C18C" stroke-width="4" d="M68.58 64.806A12 12 0 0 0 60 76.308v38.153c0 5.267 3.434 9.918 8.467 11.469l18 5.545c7.718 2.377 15.533-3.393 15.533-11.469v-49.05c0-8.026-7.727-13.79-15.42-11.502l-18 5.352Z"/><path fill="#F8C18C" d="M81.73 100.49V86h-3.96v18h9.93v-3.51h-5.97Z"/></g></svg>