<svg xmlns="http://www.w3.org/2000/svg" width="192" height="192" fill="none"><path fill="#BD9AFF" fill-rule="evenodd" d="M97 184c48.049 0 87-38.951 87-87s-38.951-87-87-87-87 38.951-87 87 38.951 87 87 87Z" clip-rule="evenodd"/><path fill="#fff" stroke="#98DC9A" stroke-width="5" d="M76.049 83.438c-6.02 1.25-9.943 6.639-9.943 12.575v16.048a6.429 6.429 0 0 0 3.223 5.59c2.79 1.599 8.157 4.605 13.52 7.219 2.68 1.305 5.397 2.533 7.815 3.439 2.32.87 4.683 1.571 6.519 1.571 1.835 0 4.197-.701 6.518-1.571 2.418-.906 5.136-2.134 7.815-3.439 5.363-2.614 10.731-5.62 13.521-7.219a6.43 6.43 0 0 0 3.222-5.59V96.014c0-5.937-3.924-11.325-9.942-12.576-5.533-1.15-13.307-2.393-21.134-2.393s-15.601 1.242-21.134 2.393Z"/><path fill="#fff" fill-rule="evenodd" d="M108.509 117.799v14.258c0 1.501-1.003 3.528-2.307 4.461 0 0-3.356 3.301-9.02 3.301-5.663 0-9.018-3.301-9.018-3.301-1.275-.963-2.308-2.964-2.308-4.461v-14.258" clip-rule="evenodd"/><path stroke="#98DC9A" stroke-linecap="round" stroke-width="5" d="M108.509 117.799v14.258c0 1.501-1.003 3.528-2.307 4.461 0 0-3.356 3.301-9.02 3.301-5.663 0-9.018-3.301-9.018-3.301-1.275-.963-2.308-2.964-2.308-4.461v-14.258"/><path fill="#98DC9A" fill-rule="evenodd" d="M97.183 138.732c1.083 0 4.445-1.988 4.445-4.44 0-2.452-1.99-4.44-4.445-4.44a4.443 4.443 0 0 0-4.446 4.44c0 2.452 3.362 4.44 4.446 4.44Z" clip-rule="evenodd"/><path fill="#BD9AFF" fill-rule="evenodd" d="M80.65 105.82c-.972-.507-.611-1.976.484-1.976h6.678c1.034 0 1.975.593 2.421 1.525l.255.532c1.159 2.421-.627 5.217-3.31 5.184l-1.036-.013a4.263 4.263 0 0 1-3.723-2.283l-1.326-2.527c-.1-.19-.254-.344-.443-.442Zm34.602 0c.971-.507.611-1.976-.485-1.976h-6.678a2.684 2.684 0 0 0-2.421 1.525l-.255.532c-1.158 2.421.627 5.217 3.311 5.184l1.035-.013a4.265 4.265 0 0 0 3.724-2.283l1.326-2.527c.099-.19.253-.344.443-.442Z" clip-rule="evenodd"/><path fill="#fff" fill-rule="evenodd" d="M91.014 85.42c.394-2.205.051-4.572-1.314-6.937C82.378 65.8 68.137 60.314 65.397 61.896c-2.74 1.582-5.108 16.657 2.214 29.34.709 1.227 1.555 2.216 2.5 2.99" clip-rule="evenodd"/><path stroke="#98DC9A" stroke-linecap="round" stroke-width="5" d="M91.014 85.42c.394-2.205.051-4.572-1.314-6.937v0C82.378 65.8 68.137 60.314 65.397 61.896c-2.74 1.582-5.108 16.657 2.214 29.34.709 1.227 1.555 2.216 2.5 2.99"/><path fill="#fff" fill-rule="evenodd" d="M104.29 85.528c-.394-2.205-.051-4.572 1.314-6.937 7.322-12.682 21.563-18.168 24.303-16.587 2.739 1.582 5.108 16.658-2.214 29.34-.708 1.228-1.555 2.217-2.5 2.99" clip-rule="evenodd"/><path stroke="#98DC9A" stroke-linecap="round" stroke-width="5" d="M104.29 85.528c-.394-2.205-.051-4.572 1.314-6.937v0c7.322-12.682 21.563-18.168 24.303-16.587 2.739 1.582 5.108 16.658-2.214 29.34-.708 1.228-1.555 2.217-2.5 2.99"/></svg>