<svg xmlns="http://www.w3.org/2000/svg" width="192" height="192" fill="none"><rect width="152" height="152" x="20" y="20" fill="#fff" rx="10"/><path fill="#728DBE" fill-rule="evenodd" d="M128.996 80.12c0-8.903-7.22-16.12-16.119-16.12H80.116s27.685 6.302 27.255 22.055l-.305 22.757C106.987 121.367 80.116 129 80.116 129h32.761c8.902 0 16.119-7.22 16.119-16.12V80.12Z" clip-rule="evenodd"/><path fill="#9ABEFF" fill-rule="evenodd" d="M64 80.12C64 71.217 71.22 64 80.12 64h32.76s-27.684 6.302-27.255 22.055l.305 22.757C86.01 121.367 112.88 129 112.88 129H80.12C71.217 129 64 121.78 64 112.88V80.12Z" clip-rule="evenodd"/><mask id="a" width="49" height="65" x="80" y="64" maskUnits="userSpaceOnUse" style="mask-type:luminance"><path fill="#fff" fill-rule="evenodd" d="M128.996 80.12c0-8.903-7.22-16.12-16.119-16.12H80.116s27.685 6.302 27.255 22.055l-.305 22.757C106.987 121.367 80.116 129 80.116 129h32.761c8.902 0 16.119-7.22 16.119-16.12V80.12Z" clip-rule="evenodd"/></mask><g fill-rule="evenodd" clip-rule="evenodd" mask="url(#a)"><path fill="#fff" fill-opacity=".7" d="M64 80.12C64 71.217 71.22 64 80.12 64h32.76s-27.684 6.302-27.255 22.055l.305 22.757C86.01 121.367 80.12 129 80.12 129 71.217 129 64 121.78 64 112.88V80.12Z"/><path fill="#54688C" d="M64 80.12C64 71.217 71.22 64 80.12 64c0 0 5.076 6.302 5.505 22.055l.305 22.757C86.01 121.367 112.88 129 112.88 129H80.12C71.217 129 64 121.78 64 112.88V80.12Z"/></g></svg>