<svg xmlns="http://www.w3.org/2000/svg" width="192" height="192" fill="none"><rect width="152" height="152" x="20" y="20" fill="#fff" rx="10"/><path fill="#728DBE" d="M110.984 85.92a8.76 8.76 0 0 0-2.448-3.504c-1.104-.984-2.496-1.752-4.2-2.28-1.68-.552-3.696-.816-6.024-.816H83.96v2.808c-.024.84.384 1.32 1.2 1.512.048 0 .168.024.288.048.144.024.36.072.72.12.336.072.816.144 1.416.264v25.176c-.6.12-1.08.192-1.416.264-.36.048-.576.096-.72.12-.12.024-.24.048-.288.048-.816.192-1.224.672-1.2 1.512V114h13.704v-2.808c0-.84-.384-1.32-1.2-1.512-.072 0-.168-.024-.288-.048-.144-.024-.384-.072-.72-.12-.336-.072-.816-.144-1.416-.264v-7.464h4.272c2.256 0 4.224-.264 5.904-.84 1.68-.552 3.096-1.32 4.2-2.352a9.43 9.43 0 0 0 2.52-3.6c.576-1.392.84-2.928.84-4.608 0-1.632-.264-3.12-.792-4.464Zm-6.096 7.104a5.215 5.215 0 0 1-1.296 2.016c-.576.552-1.296.984-2.184 1.272-.864.288-1.896.432-3.096.432H94.04V84.288h4.272c1.2 0 2.232.144 3.096.432.888.288 1.608.696 2.184 1.2a5.042 5.042 0 0 1 1.296 1.92c.288.768.432 1.608.432 2.52 0 .984-.144 1.872-.432 2.664Z"/></svg>