<svg xmlns="http://www.w3.org/2000/svg" width="192" height="192" fill="none"><rect width="152" height="152" x="20" y="20" fill="#fff" rx="10"/><path fill="#96DFD3" d="M172 30c0-5.523-4.477-10-10-10H96v152h66c5.523 0 10-4.477 10-10V30Z" opacity=".499"/><path stroke="#4A4A4A" stroke-width="5" d="M80.906 82.727c0-8.962 7.265-16.227 16.227-16.227 8.961 0 16.226 7.265 16.226 16.227v17.208H80.906V82.726Z"/><path fill="#96DFD3" fill-rule="evenodd" d="M74 94.695c0-5.522 4.477-10 10-10h27c5.523 0 10 4.478 10 10V122c0 5.523-4.477 10-10 10H84c-5.523 0-10-4.477-10-10V94.695Z" clip-rule="evenodd"/><path fill="#73ADA4" d="M74 108.348h47V122c0 5.523-4.477 10-10 10H84c-5.523 0-10-4.477-10-10v-13.652Z"/><path fill="#4A4A4A" fill-rule="evenodd" d="M99.703 109.637a5.176 5.176 0 0 0 2.203-4.246c0-2.858-2.301-5.174-5.14-5.174-2.84 0-5.141 2.316-5.141 5.174 0 1.758.871 3.311 2.203 4.246v7.58h5.875v-7.58Z" clip-rule="evenodd"/></svg>