<svg xmlns="http://www.w3.org/2000/svg" width="192" height="192" fill="none"><rect width="152" height="152" x="20" y="20" fill="#56595B" rx="12"/><mask id="a" width="152" height="152" x="20" y="20" maskUnits="userSpaceOnUse" style="mask-type:luminance"><rect width="152" height="152" x="20" y="20" fill="#fff" rx="12"/></mask><g mask="url(#a)"><path fill="#ECECEC" fill-rule="evenodd" d="m123.369 52.672-9.786.814-8.642 2.198-8.642 4.069-6.768 5.942-5.382 7.001-4.565 10.745-2.283 8.627-1.632 9.526-.733 7.161-1.387 6.105-2.773 3.826-2.77 1.547-3.018-.325-3.1-1.547-2.852-2.443-1.713-.244-3.506 3.095-1.142 3.012 1.223 2.441 5.22 4.232 6.685 3.745 6.85 2.93-2.773 2.77-2.61 5.289-.488 6.431 1.712 5.209 4.159 4.315 4.483 3.012-13.615.163-2.204 4.557.07 5.125H162c5.523 0 10-4.477 10-10v-16.618l-.687-.891-.653-3.338-2.854-11.233-2.771-10.337-1.631-11.805-.815-12.29-1.062-11.722-2.771-10.664-4.811-8.546-7.502-6.106-8.073-3.499-8.071-1.71-6.93-.57Z" clip-rule="evenodd"/><path fill="#FFB0AC" d="M81.693 161.264c-2.828.2-5.317 4.656-5.699 10.205-.011.177-.02.354-.026.531h12.178c0-5.133-3.984-9.531-6.074-10.736a3.002 3.002 0 0 0-.379 0Z"/><path fill="#FFB0AC" d="M73.175 135.375c-3.79 2.708-6.062 7.219-6.067 12.045 0 3.865 1.455 7.571 4.047 10.304 2.592 2.733 6.108 4.268 9.774 4.268a13.31 13.31 0 0 0 7.51-2.342l-1.187-1.754-1.211-4.489-.518-5.583.98-4.605 2.017-4.145 2.47-1.628a14.212 14.212 0 0 0-1.134-1.146l-6.41.242-6.283-.115-3.988-1.052Zm-8.754 26.492c-2.54.005-3.01 4.479-3.106 10.132h9.44c-.096-5.654-2.237-10.124-6.334-10.132Zm46.49-43.931c2.515 0 4.555-2.139 4.555-4.778 0-2.638-2.04-4.777-4.555-4.777-2.516 0-4.555 2.139-4.555 4.777 0 2.639 2.039 4.778 4.555 4.778Z"/><path fill="#fff" d="M102.214 117.146c6.066 0 10.983-6.133 10.983-13.699s-4.917-13.699-10.983-13.699c-6.066 0-10.983 6.133-10.983 13.699s4.917 13.699 10.983 13.699Z"/><path fill="#fff" fill-rule="evenodd" d="M91.718 124.676c.449.547.858 1.398 1.69 2.536.833 1.138 2.047 3.236 3.38 4.225 1.334.989 2.62 1.517 4.226 1.69 1.606.174 3.723-.369 5.071-.845 1.347-.476 2.288-.774 2.988-1.69.701-.917.931-2.197.859-3.38-.072-1.184-.522-2.338-1.312-3.381-2.031-2.031-4.559-2.618-7.606-1.69-1.415.421-2.512 1.36-4.225 1.69-1.713.33-5.916 0-5.916 0s.397.299.845.845Z" clip-rule="evenodd"/><mask id="b" fill="#fff"><path fill-rule="evenodd" d="M93.189 62.977c8.103-6.26 19.411-9.67 30.533-9.543h.001c11.102.127 21.986 3.769 29.38 11.472l.007.007a.464.464 0 0 0 .023.024l.024.032.005.007c7.361 9.745 8.104 21.458 8.875 33.613.179 2.824.36 5.672.626 8.525v.004l.012.13v.007l.001.004c.45 4.544.595 5.966 1.237 9.601v.001c.57 3.227 1.586 7.415 2.415 10.834l.327 1.353.001.001a338.117 338.117 0 0 0 2.465 9.572c.242.89.384 1.673.522 2.436.192 1.061.377 2.083.814 3.297.063.175.132.354.206.538.19.469.419.969.7 1.51.169.327.392.69.637 1.068v-3.116c-.526-1.306-.717-2.347-.929-3.501-.143-.78-.295-1.61-.566-2.608l-.001-.002a336.186 336.186 0 0 1-2.454-9.53l-.001-.001-.314-1.297c-.832-3.434-1.85-7.637-2.41-10.804-.63-3.572-.771-4.924-1.21-9.356v-.004l-.013-.133v-.004c-.269-2.863-.447-5.74-.625-8.61-.756-12.207-1.503-24.274-9.201-34.433l-.021-.028a.615.615 0 0 0-.087-.098c-7.723-8.067-19.01-11.81-30.429-11.941h-.001c-11.428-.132-23.018 3.342-31.433 9.844l-.02.015a.66.66 0 0 0-.033.027c-13.857 11.793-16.105 30.167-18.201 47.296l-.07.573-.002.011v.007a3.898 3.898 0 0 0-.014.06c-.766 3.45-1.346 5.394-2.34 6.914l-.001.001a.044.044 0 0 1-.002.003l-.05.074v.002c-1.525 2.259-3.764 3.382-7.03 2.235l-.009-.003a.034.034 0 0 1-.01-.002.019.019 0 0 0-.01-.003l-.006-.003c-.71-.23-1.87-1.154-2.992-2.064l-.002-.002a92.195 92.195 0 0 1-.307-.252c-1.01-.829-1.989-1.632-3.167-1.67l-.012-.001h-.033c-.696-.002-1.343.31-2.026.751l-.002.001a10.143 10.143 0 0 0-2.026 1.761v.001c-1.257 1.412-2.297 3.249-1.823 5.056l.004.016v.002l.007.022.007.023c.325 1.048 1.008 1.771 2.157 2.937l.158.16.033.033.006.006.01.009.003.002c0 .001 0 .002.002.002 3.754 3.671 9.361 6.489 14.866 8.874.415.18.83.357 1.244.533a.778.778 0 0 0 .165.112.692.692 0 0 0 .089.036l.003.001c.071.025.143.047.214.069l.162.052.097.041.1.042a12.94 12.94 0 0 0-.302.235l-.043.034a13.65 13.65 0 0 0-.564.487 12.33 12.33 0 0 0-.675.67l-.049.053-.018.02c-2.509 2.732-3.991 6.745-3.74 10.988.238 3.99 2.023 8.119 5.854 11.348.56.472 1.163.924 1.812 1.355.343.227.698.448 1.066.662-.373-.004-.744-.008-1.115-.01a342.65 342.65 0 0 0-2.474-.008c-1.183 0-2.35.005-3.496.009-1.058.004-2.097.008-3.113.009h-.156a.708.708 0 0 0-.253.046 3.416 3.416 0 0 0-.145.058c-1.827.771-2.655 2.703-3.031 4.693-.376 1.982-.34 4.132-.297 5.743h1.431v-.038a52.58 52.58 0 0 1-.022-1.962c.013-1.15.083-2.37.292-3.477.324-1.708.933-3.011 2.024-3.56h.001a2.25 2.25 0 0 1 .158-.072l.11-.001h.002c1.294-.002 2.63-.023 4-.044 1.443-.022 2.923-.045 4.43-.049l.875.001c.254.001.509.002.764.005.341.003.683.007 1.026.013l.45.009c.217.004.434.01.652.016.216.006.433.012.65.02.242.008.484.018.727.028a11.014 11.014 0 0 0-1.384 1.952c-.152.271-.293.548-.426.83v.002c-.638 1.359-1.065 2.837-1.356 4.326a29.164 29.164 0 0 0-.292 1.813l-.024.187h1.443c.262-1.985.72-4.002 1.525-5.718l.001-.002a11.1 11.1 0 0 1 .785-1.408 8.55 8.55 0 0 1 .84-1.077 7.653 7.653 0 0 1 .636-.616 7.046 7.046 0 0 1 1.97-1.195l.011-.005.012-.005.16-.061.142.011h.004l.159.013c1.514.123 2.942.294 4.314.494l.075.01a102.113 102.113 0 0 1 3.511.582c.85.153 1.685.312 2.516.469 5.113.969 10.05 1.904 16.733 1.524l.268-.016.301-.018.197-.228.217-.249c3.417-3.889 7.189-6.739 11.794-9.353l.249-.141.003-.002-.704-1.246-.248.14c-.503.285-.996.573-1.481.866-3.834 2.317-7.139 4.908-10.155 8.217a84.62 84.62 0 0 0-.279.309 67.38 67.38 0 0 0-.243.274l-.492.026h-.002a34.16 34.16 0 0 1-.313.013c-6.055.248-10.674-.62-15.525-1.532a773.45 773.45 0 0 0-2.566-.475l-.014-.002.005-.006a18.389 18.389 0 0 1-1.161-1.276c-.287-.349-.55-.698-.79-1.045l-.028-.041c-2.657-3.868-2.533-7.572-2.449-10.078.013-.398.026-.766.026-1.099 0-3.806 1.375-6.8 3.607-9.001a13.208 13.208 0 0 1 1.843-1.514 13.35 13.35 0 0 1 .477-.314l.094-.059.029-.017a15.503 15.503 0 0 1 1.78-.946h.002a17.83 17.83 0 0 1 3.19-1.09l.106-.026.005-.001.265-.06.007-.002h.002a20.329 20.329 0 0 1 2.308-.369 21.767 21.767 0 0 1 6.384.296 21.113 21.113 0 0 1 3.489.993l.267.102.263-.109.205-.086c2.716-1.158 4.997-2.77 7.273-4.534.522-.404 1.044-.817 1.571-1.235l.001-.001-.89-1.122c-2.582 2.044-4.967 3.886-7.748 5.204-.106.05-.212.1-.319.148l-.001.001c-.151.068-.304.136-.457.201l-.264-.094a21.492 21.492 0 0 0-.775-.254 23.275 23.275 0 0 0-3.131-.735 11.34 11.34 0 0 0 1.045-.413 8.502 8.502 0 0 0 1.726-1.037c.743-.585 1.351-1.305 1.733-2.181l.003-.007.003-.006c.65-1.574.511-3.587-.077-5.091l-.011-.028-.013-.028c-1.116-2.263-2.986-3.304-4.862-3.549-1.876-.245-3.763.217-5.239.751l-.524.189c-2.443.885-3.453 1.251-5.242 1.398-.522.042-1.463.037-2.2.024-.596-.011-1.058-.026-1.058-.026l-1.284-.048.633 1.116c.173.304.35.615.533.929 1.33 2.287 2.935 4.75 4.993 6.475.494.414 1.015.786 1.564 1.103.267.154.541.295.822.421l.006.003.003.001-.004.001-.008.001c-.957.161-1.894.386-2.8.673-.716.227-1.412.494-2.085.799l-.002.001c-.412.187-.813.395-1.206.613a1.138 1.138 0 0 0-.083 0 242.332 242.332 0 0 0-1.138.052l-.655.031-.48.022-1.046.048-.38.017c-5.14.222-10.12.29-15.034-.991l-.273-.073a27.165 27.165 0 0 1-1.383-.412l-.106-.035a30.525 30.525 0 0 1-.356-.12l-.002-.001-.014-.006-.165-.07c-5.834-2.487-11.882-5.466-15.647-9.147l-.004-.004-.002-.001-.001-.001-.002-.002-.064-.064-.009-.009c-1.2-1.218-1.698-1.766-1.917-2.466l-.003-.008a.414.414 0 0 1-.004-.015l-.001-.005-.002-.006c-.247-1.015.43-2.503 1.508-3.715l.001-.002a8.862 8.862 0 0 1 1.732-1.509l.003-.001c.555-.359 1.07-.518 1.242-.52H58l.018.001a.032.032 0 0 0 .01.001c.43.049 1.51.726 2.584 1.598l.002.002c.147.119.294.24.44.362.96.792 1.946 1.604 3.006 1.949a2012841455.321 2012841455.321 0 0 0 .02.006l.077.027.017.006c3.769 1.273 6.871-.223 8.645-2.908l.003-.004.001-.003c1.167-1.781 1.775-3.922 2.556-7.45l.004-.018a.786.786 0 0 0 .012-.069l.006-.049.035-.289c2.106-17.2 4.312-35.216 17.711-46.65l.017-.015a.434.434 0 0 0 .019-.015l.007-.005ZM73.373 136.14l-.277-.071a8.614 8.614 0 0 0-.871.582c-3.004 2.276-5.018 6.717-4.743 11.359.217 3.642 2.578 8.725 6.764 11.444a11.797 11.797 0 0 0 2.365 1.191 11.991 11.991 0 0 0 .803.262l.006.002a11.212 11.212 0 0 0 1.79.359c.29.034.585.058.886.07a8.712 8.712 0 0 0-1.787 1.513l-.032.036-.001.001-.001.001h.002l.032-.038.13-.139c.313-.327.98-.955 1.66-1.374h-.003l.002-.001.001-.001a8.316 8.316 0 0 1 1.727-.834l.077-.027.064-.022.149.01a66.61 66.61 0 0 1 3.51.352 84.946 84.946 0 0 1 2.756.396 16.564 16.564 0 0 1-1.545-2.253c-2.241-3.952-2.122-7.75-2.051-9.994.01-.341.02-.647.02-.911 0-3.583 1.162-6.576 3.065-8.913a14.166 14.166 0 0 1 2.112-2.097l-.96.045a184.3 184.3 0 0 1-2.094.086c-4.533.16-9.043.1-13.556-1.034Zm26.835-3.518a23.817 23.817 0 0 1 3.787-.006 1.998 1.998 0 0 1 1.184-1.081c1.674-.568 2.829-1.44 3.308-2.521m10.739-43.099-.008-.022a.718.718 0 0 0-.651-.446.707.707 0 0 0-.497.186l-.002.002a.713.713 0 0 0-.187.775l.007.019s.146.38.368.983l.004.011.01.027.1.274c.495 1.356 1.257 3.523 1.722 5.228v.001l.095.356.001.007.002.007c.951 3.559 1.418 7.184 1.884 10.801.438 3.398.874 6.788 1.71 10.108l.001.002.001.003a46.69 46.69 0 0 0 .092.361l.002.006.002.007.016.061c.958 3.545 2.058 7.392 3.768 9.831a.071.071 0 0 1 .01.014l.022.029a.23.23 0 0 0 .014.019c6.968 8.878 21.288 9.185 29.315 1.854l.013-.013a.2.2 0 0 0 .016-.014l.002-.002.007-.007c1.91-1.877 3.34-3.943 4.317-6.384.129-.322.25-.65.363-.986v-.001l.014-.04c.284-.881-1.047-1.33-1.358-.46l-.013.042-.001.001c-.109.323-.225.638-.349.947-.892 2.221-2.173 4.075-3.932 5.814l-.031.031-.003.002-.012.012-.006.006c-7.37 6.726-20.796 6.445-27.188-1.657l-.016-.02-.009-.012-.001-.001-.011-.016c-1.461-2.094-2.609-5.893-3.563-9.424v-.003l-.001-.001-.001-.001v-.001a.16.16 0 0 1-.005-.021l-.002-.006c-.846-3.25-1.282-6.634-1.725-10.083-.473-3.668-.954-7.41-1.949-11.141a.018.018 0 0 1-.002-.007l-.005-.02v-.001h-.001l-.001-.007c-.514-1.994-1.454-4.63-1.975-6.039-.226-.61-.372-.99-.372-.99h-.001a321.666 321.666 0 0 1-.673.258l.601-.23.072-.029Zm-.673.258Zm-16.31 4.8c-5.183 0-9.903 5.284-9.903 12.53 0 7.247 4.72 12.53 9.903 12.53 5.183 0 9.902-5.283 9.902-12.53 0-7.246-4.719-12.53-9.902-12.53Zm-11.903 12.53c0-7.941 5.246-14.53 11.903-14.53s11.902 6.589 11.902 14.53c0 7.942-5.245 14.53-11.902 14.53-6.656 0-11.903-6.588-11.903-14.53Zm11.903-13.098c-.677 0-1.341.081-1.986.237-3.867.938-7.03 4.558-8.097 9.322a16.208 16.208 0 0 0-.387 3.539 16.153 16.153 0 0 0 .447 3.779 11.046 11.046 0 0 1 .478-3.779 10.131 10.131 0 0 1 1.333-2.752c1.512-2.186 3.828-3.584 6.424-3.584 4.557 0 8.25 4.306 8.25 9.618-.001 2.211-.641 4.248-1.718 5.872-1.16 1.751-2.826 3.022-4.744 3.516a7.144 7.144 0 0 1-1.767.227 8.389 8.389 0 0 0 1.767.202c2.315 0 4.476-.954 6.227-2.577 2.56-2.374 4.241-6.177 4.241-10.522 0-7.316-4.77-13.098-10.468-13.098Zm8.369 14.827a14.93 14.93 0 0 0 .099-1.729c0-6.633-4.253-11.098-8.468-11.098-2.448 0-4.91 1.506-6.544 4.07a9.244 9.244 0 0 1 4.756-1.308c5.43 0 9.501 4.6 10.157 10.065Zm-6.003 17.23h-.005a8.916 8.916 0 0 0-1.988.169c-.704.135-1.386.334-1.997.555l-.395.143c-2.441.883-3.658 1.323-5.498 1.502l-.244.022h-.001c-.574.046-1.073.031-1.639.014-.142-.004-.288-.009-.44-.012.402.678.823 1.362 1.265 2.029 1.496 2.254 3.235 4.306 5.288 5.231 1.17.499 2.65.599 3.959.51 2.479-.281 5.269-1.514 6.095-3.39.431-1.05.35-2.868-.084-3.996-.855-1.707-2.044-2.424-3.408-2.677l-.005-.001a6.308 6.308 0 0 0-.899-.099h-.004Zm-.107 1.997c-.996-.031-2.16.231-3.203.608l-.474.171c-1.961.711-3.28 1.188-4.864 1.448.298.413.601.807.912 1.178.984 1.172 1.946 1.991 2.885 2.419.744.312 1.834.422 2.975.349 1.006-.119 2.065-.43 2.925-.878.889-.463 1.344-.95 1.509-1.3.067-.179.141-.576.125-1.131a4.665 4.665 0 0 0-.204-1.283c-.317-.602-.644-.93-.936-1.127-.313-.212-.701-.351-1.226-.42m-.424-.034.029.002c.141.005.272.016.394.032" clip-rule="evenodd"/></mask><path fill="#56595B" d="m100.208 132.622-.916.402a1 1 0 0 0 1.316.515l-.4-.917Zm8.679-2.691a1 1 0 0 0-.799-1.833l.799 1.833Zm-3.775-6.859-.13.992.13-.992Zm2.406 2.846a1 1 0 1 0 1.784-.904l-1.784.904Zm-6.708-2.197-.34-.941.34.941Zm-.591.214-.341-.94.341.94Zm-5.69 1.486.081.996h.002l-.083-.996Zm-.004 0 .08.997h.001l-.081-.997Zm-1.185.039-.006-1a1 1 0 0 0-.847 1.522l.853-.522Zm1.99 2.885-.78.625.78-.625Zm3.86 3.253-.411.911.41-.911Zm.007.003.417-.909-.006-.003-.41.912Zm.006.003-.417.909.002.001.415-.91Zm.206.108.517-.855-.517.855Zm.002.002.518-.856-.518.856Zm5.091-7.255.079-.996a.999.999 0 1 0-.158 1.993l.079-.997Zm.345 1.031a1.001 1.001 0 0 0 .158-1.994l-.158 1.994Zm-.001 0a1 1 0 0 0 .158-1.994l-.158 1.994Zm3.242 2.608-8.28 3.607.8 1.834 8.279-3.608-.799-1.833Zm-3.106-4.034c.975.127 1.909.617 2.536 1.854l1.784-.904c-.956-1.886-2.5-2.729-4.061-2.933l-.259 1.983Zm-3.832.597c1.288-.465 2.645-.752 3.832-.597l.259-1.983c-1.647-.215-3.357.189-4.771.699l.68 1.881Zm-.59.214.59-.214-.68-1.881-.592.215.682 1.88Zm-5.948 1.542c2.211-.183 3.58-.683 5.948-1.542l-.682-1.88c-2.377.862-3.516 1.271-5.431 1.429l.165 1.993Zm-.006.001.004-.001-.162-1.993h-.004l.162 1.994Zm-1.26.042c.438-.003.896-.013 1.26-.042l-.161-1.994a15.99 15.99 0 0 1-1.11.036l.01 2Zm2.765 1.26c-.685-.855-1.317-1.8-1.918-2.782l-1.706 1.044c.627 1.024 1.308 2.045 2.063 2.988l1.561-1.25Zm3.489 2.966c-1.2-.541-2.354-1.549-3.489-2.966l-1.56 1.25c1.24 1.549 2.63 2.82 4.228 3.539l.82-1.823Zm.008.003-.008-.003-.821 1.823.008.004.82-1.824Zm.012.006-.006-.003-.834 1.818.006.003.834-1.818Zm.306.162a2.806 2.806 0 0 0-.309-.163l-.829 1.82c.036.016.07.034.103.054l1.035-1.711Zm.003.001-.003-.001-1.035 1.711.003.002 1.035-1.712Zm1.195 1.362a3.002 3.002 0 0 0-1.195-1.362l-1.035 1.712c.18.109.317.269.398.454l1.832-.804Zm3.881-8.724-.424-.033-.158 1.993.424.034.158-1.994Zm-.001 0-.423-.033-.158 1.993.423.034.158-1.994Zm-11.816-60.52-1.222-1.582 1.223 1.583Zm30.534-9.542.023-2-.023 2Zm.001 0-.023 2 .023-2Zm29.38 11.472 1.443-1.385-1.443 1.385Zm.007.007-1.444 1.384 1.444-1.384Zm.023.024 1.594-1.208a2.15 2.15 0 0 0-.15-.175l-1.444 1.383Zm.024.032 1.596-1.205-1.596 1.205Zm.005.007 1.596-1.206-1.596 1.206Zm8.875 33.613 1.996-.127-1.996.127Zm.626 8.525 1.991-.184v-.001l-1.991.185Zm0 .004-1.992.184.001.002 1.991-.186Zm.012.13-1.991.187.001.007 1.99-.194Zm0 .003h2c0-.065-.003-.13-.009-.194l-1.991.194Zm0 .004h-2c0 .065.004.131.01.196l1.99-.196Zm.001.004-1.991.196.001.001 1.99-.197Zm1.237 9.601-1.97.348.006.03 1.964-.378Zm0 .001 1.97-.348-.006-.03-1.964.378Zm2.415 10.834-1.944.471 1.944-.471Zm.327 1.353-1.944.469.001.005 1.943-.474Zm.001.001 1.944-.469-.001-.005-1.943.474Zm2.464 9.571 1.931-.522-.001-.003-1.93.525Zm.001.001-1.931.522.001.003 1.93-.525Zm.522 2.436 1.968-.357-1.968.357Zm.814 3.297 1.882-.678-1.882.678Zm.206.538-1.854.751 1.854-.751Zm.7 1.51 1.775-.921-1.775.921Zm.637 1.068-1.678 1.088A2 2 0 0 0 174 147.47h-2Zm0-3.116h2c0-.257-.049-.51-.145-.748l-1.855.748Zm-.929-3.501 1.968-.361-1.968.361Zm-.566-2.608-1.931.522.001.003 1.93-.525Zm-.001-.002 1.931-.521-.001-.003-1.93.524Zm-2.454-9.53 1.944-.47-.001-.004-1.943.474Zm-.001-.001-1.944.469.001.005 1.943-.474Zm-.314-1.297 1.944-.472-1.944.472Zm-2.41-10.804 1.97-.347-.006-.03-1.964.377Zm0 0-1.969.348.005.03 1.964-.378Zm-1.21-9.356-1.99.194v.003l1.99-.197Zm0-.004 1.991-.194-.001-.003-1.99.197Zm-.013-.133h-2c0 .066.003.132.01.197l1.99-.197Zm0-.004h2c0-.063-.003-.125-.009-.187l-1.991.187Zm-.625-8.61 1.996-.124-1.996.124Zm-9.201-34.433-1.594 1.207 1.594-1.207Zm-.021-.028-1.601 1.199.009.01 1.592-1.209Zm-.052-.061 1.455-1.373-.008-.008-1.447 1.38Zm-.035-.037-1.444 1.383 1.444-1.383Zm-30.429-11.941-.023 2 .023-2Zm-.001 0 .023-2-.023 2Zm-31.433 9.844 1.223 1.583-1.223-1.583Zm-.02.015 1.2 1.6.025-.018-1.224-1.582Zm-.026.021-1.275-1.54-.021.017 1.296 1.523Zm-.007.006 1.297 1.523-1.297-1.523Zm-18.201 47.296 1.985.243-1.985-.243Zm-.07.573 1.985.243-1.985-.243Zm-.002.011-1.985-.243 1.985.243Zm0 .007 1.952.432c.014-.062.025-.125.032-.189l-1.985-.243Zm-.011.049 1.952.433-1.953-.433Zm-.003.011-1.952-.434v.001l1.952.433Zm-2.34 6.914 1.67 1.1.004-.005-1.674-1.095Zm-.001.001-1.67-1.1-.001.002 1.67 1.098Zm-.002.003 1.67 1.102.002-.004-1.672-1.098Zm-.05.074-1.657-1.118-.002.002 1.66 1.116Zm0 .002 1.657 1.119.002-.003-1.66-1.116Zm-7.03 2.235.661-1.887-.662 1.887Zm-.009-.003.666-1.885a1.843 1.843 0 0 0-.161-.05l-.505 1.935Zm-.01-.002.616-1.904-.003-.001-.612 1.905Zm-.01-.003-.606 1.905c.035.012.071.022.107.031l.5-1.936Zm-.006-.003-.618 1.903h.002l.616-1.903Zm-2.992-2.064-1.264 1.549.004.003 1.26-1.552Zm-.002-.002 1.265-1.55-.004-.003-1.261 1.553Zm-.307-.252-1.27 1.546 1.27-1.546Zm-3.167-1.67.064-1.999-.064 1.999Zm-.012-.001.056-1.999-.056-.001v2Zm-.01 0-.025 2h.025v-2Zm-.023 0 .005-2-.005 2Zm-2.026.751 1.083 1.681h.001l-1.084-1.681Zm-.002.001-1.083-1.681-.001.001 1.084 1.68Zm-2.026 1.761 1.493 1.332.002-.002-1.495-1.33Zm0 .001-1.493-1.331-.002.002 1.494 1.329Zm-1.823 5.056 1.934-.506v-.001l-1.934.507Zm.004.016-1.933.515.011.039 1.922-.554Zm0 .002-1.921.554v.001l1.921-.555Zm.007.022 1.913-.581a.181.181 0 0 0-.004-.014l-1.91.595Zm.007.023 1.91-.593-1.91.593Zm2.157 2.937-1.424 1.404 1.424-1.404Zm.158.16-1.424 1.404 1.424-1.404Zm.033.033 1.423-1.405-1.423 1.405Zm.006.006-1.423 1.405c.037.038.077.075.117.11l1.306-1.515Zm.01.009 1.4-1.429a2.764 2.764 0 0 0-.094-.086l-1.306 1.515Zm.003.002-1.4 1.429.005.005 1.395-1.434Zm.002.002 1.398-1.43-.004-.003-1.395 1.433Zm14.866 8.874.795-1.836-.795 1.836Zm1.244.533 1.342-1.483a2.018 2.018 0 0 0-.561-.359l-.78 1.842Zm.075.059-1.132 1.648 1.132-1.648Zm.09.053-.88 1.795.88-1.795Zm.089.036.654-1.89a.155.155 0 0 1-.02-.007l-.634 1.897Zm.003.001-.655 1.89h.002l.653-1.89Zm.214.069.594-1.91-.594 1.91Zm.162.052.775-1.844a1.952 1.952 0 0 0-.147-.056l-.628 1.9Zm.097.041.786-1.84-.786 1.84Zm.1.042 1.199 1.602a2 2 0 0 0-.425-3.446l-.773 1.844Zm-.302.235 1.25 1.56-1.25-1.56Zm-.043.034-1.258-1.555v.001l1.258 1.554Zm-.176.146 1.288 1.53-1.288-1.53Zm-.372.326 1.35 1.476v-.001l-1.35-1.475Zm-.016.015 1.354 1.472-1.353-1.472Zm-.675.67 1.463 1.365-1.463-1.365Zm-.049.053-1.47-1.356 1.47 1.356Zm-.018.02 1.473 1.353-1.473-1.353Zm-3.74 10.988-1.996.118v.002l1.997-.12Zm0 0 1.997-.119v-.001l-1.996.12Zm5.854 11.348 1.289-1.53-1.29 1.53Zm1.812 1.355 1.105-1.667-1.105 1.667Zm1.066.662-.022 2a2 2 0 0 0 1.027-3.729l-1.005 1.729Zm-1.115-.01.014-2-.014 2Zm-2.474-.008v2-2Zm-3.496.009-.008-2 .008 2Zm-3.113.009-.001-2v2Zm-.156 0v2-2Zm-.253.046-.705-1.872-.002.001.707 1.871Zm-.145.058.778 1.842-.778-1.842Zm-3.031 4.693 1.964.376v-.004l-1.964-.372Zm0 0-1.965-.376v.004l1.965.372ZM60.705 172l-2 .053a2 2 0 0 0 2 1.947v-2Zm1.431 0v2a1.999 1.999 0 0 0 2-2.053l-2 .053Zm0-.038-2 .052 2-.052ZM62.113 170l-2-.023 2 .023Zm.292-3.477-1.964-.376v.004l1.964.372Zm0 0 1.965.376v-.004l-1.964-.372Zm2.024-3.56-.891-1.79-.007.004.898 1.786Zm.001 0 .892 1.79.006-.003-.898-1.787Zm.158-.072-.003-2c-.264 0-.526.053-.77.155l.773 1.845Zm.11-.001v-2h-.004l.005 2Zm.002 0v2h.005l-.005-2Zm4-.044-.031-2 .03 2Zm4.43-.049-.004-2 .004 2Zm.875.001.007-2-.007 2Zm.764.005-.018 2 .018-2Zm1.026.013-.034 2 .034-2Zm.45.009.043-2-.043 2Zm.652.016-.056 1.999.056-1.999Zm.65.02-.069 1.999.07-1.999Zm.528.256-1.528-1.29 1.528 1.29Zm-1.185 1.724 1.745.977-1.745-.977Zm-.426.83 1.81.851v-.001l-1.81-.85Zm0 .002-1.81-.852-.001.003 1.81.849Zm-1.356 4.326 1.963.384-1.963-.384Zm-.292 1.813 1.983.259-1.983-.259Zm-.024.187-1.985-.247a1.999 1.999 0 0 0 1.985 2.247v-2Zm1.443 0v2a2 2 0 0 0 1.983-1.738l-1.983-.262Zm1.525-5.718-1.81-.851v.002l1.81.849Zm.001-.002 1.81.852v-.002l-1.81-.85Zm.785-1.408 1.667 1.104-1.667-1.104Zm.84-1.077 1.471 1.354-1.472-1.354Zm.465-.465 1.35 1.476-1.35-1.476Zm.17-.151 1.303 1.517-1.302-1.517Zm.832-.615 1.067 1.692-1.067-1.692Zm1.009-.527-.78-1.841.78 1.841Zm.13-.053.744 1.856-.745-1.856Zm.011-.005-.74-1.858-.001.001.741 1.857Zm.012-.005-.739-1.858.739 1.858Zm.16-.061.153-1.994a1.99 1.99 0 0 0-.848.119l.695 1.875Zm.142.011-.157 1.994h.001l.156-1.994Zm.004 0 .157-1.993-.001-.001-.156 1.994Zm.159.013-.162 1.994.162-1.994Zm4.314.494-.287 1.979.287-1.979Zm.075.01-.29 1.979.29-1.979Zm1.284.198.319-1.974-.32 1.974Zm.85.141.337-1.971-.336 1.971Zm.022.004-.336 1.972.336-1.972Zm.364.063.343-1.971-.343 1.971Zm.114.02.344-1.971-.344 1.971Zm.877.156-.356 1.968.356-1.968Zm2.516.469.372-1.965-.372 1.965Zm16.733 1.524-.113-1.997.113 1.997Zm.268-.016-.121-1.996h-.002l.123 1.996Zm.301-.018.12 1.996a2 2 0 0 0 1.391-.686l-1.511-1.31Zm.197-.228 1.511 1.31.002-.002-1.513-1.308Zm.217-.249-1.502-1.32 1.502 1.32Zm11.794-9.353.987 1.739-.987-1.739Zm.249-.141-.979-1.744h-.001l.98 1.744Zm.003-.002.979 1.744a2.001 2.001 0 0 0 .762-2.727l-1.741.983Zm-.704-1.246 1.741-.984a2 2 0 0 0-2.721-.76l.98 1.744Zm-.248.14-.988-1.74.988 1.74Zm-1.481.866 1.035 1.712-1.035-1.712Zm-10.155 8.217-1.478-1.347 1.478 1.347Zm-.277.306 1.489 1.336.002-.003-1.491-1.333Zm-.002.003-1.488-1.336-.003.003 1.491 1.333Zm-.243.274.112 1.997a2 2 0 0 0 1.39-.676l-1.502-1.321Zm-.492.026-.093-1.998h-.003l.096 1.998Zm-.002 0 .094 1.997h.002l-.096-1.997Zm-.313.013-.081-1.998.081 1.998Zm-15.525-1.532.37-1.965-.37 1.965Zm-.609-.114.369-1.966-.369 1.966Zm-1.957-.361-.353 1.969.353-1.969Zm-.014-.002-1.456-1.372a2 2 0 0 0 1.102 3.34l.354-1.968Zm.005-.006 1.456 1.371a2 2 0 0 0-.044-2.788l-1.412 1.417Zm-.004-.004 1.415-1.414-.001-.001-1.414 1.415Zm-.26-.265 1.442-1.387-1.441 1.387Zm-.373-.4 1.483-1.342-1.483 1.342Zm-.524-.607-1.544 1.271 1.544-1.271Zm-.79-1.045-1.645 1.138 1.645-1.138Zm-.028-.041 1.648-1.132-1.648 1.132Zm-2.449-10.078 1.999.068-1.999-.068Zm.026-1.099h2-2Zm3.607-9.001 1.404 1.424-1.404-1.424Zm.221-.213-1.37-1.457 1.37 1.457Zm.804-.696 1.248 1.563-1.248-1.563Zm.818-.605 1.13 1.649-1.13-1.649Zm.268-.18-1.094-1.674 1.094 1.674Zm.209-.134-1.066-1.692 1.066 1.692Zm.094-.059 1.053 1.701v-.001l-1.052-1.7Zm.029-.017-1.05-1.703 1.05 1.703Zm.67-.391-.962-1.753.963 1.753Zm1.11-.555-.818-1.824-.01.004.828 1.82Zm.002 0 .819 1.825.008-.004-.827-1.821Zm3.19-1.09.47 1.944-.47-1.944Zm.106-.026.46 1.947.002-.001-.462-1.946Zm.005-.001-.458-1.946h-.004l.462 1.946Zm.265-.06-.43-1.953h-.002l.432 1.953Zm.007-.002-.42-1.955-.01.002.43 1.953Zm.002 0 .42 1.955.01-.002-.43-1.953Zm.966-.188-.333-1.972.333 1.972Zm1.342-.181.203 1.989-.203-1.989Zm4.279-.01-.191 1.991.191-1.991Zm1.362.174-.315 1.975.315-1.975Zm.743.132.383-1.963-.383 1.963Zm.725.154-.45 1.949.45-1.949Zm2.452.723-.682 1.88.682-1.88Zm.312.116.713-1.868-.001-.001-.712 1.869Zm.267.102-.713 1.869a2.002 2.002 0 0 0 1.478-.021l-.765-1.848Zm.263-.109.765 1.848h.001l-.766-1.848Zm.205-.086-.784-1.84.784 1.84Zm7.273-4.534 1.225 1.581-1.225-1.581Zm1.571-1.235 1.242 1.568.012-.009-1.254-1.559Zm.001-.001 1.254 1.559c.856-.689.996-1.94.313-2.802l-1.567 1.243Zm-.89-1.122 1.567-1.243a2.002 2.002 0 0 0-2.809-.325l1.242 1.568Zm-7.748 5.204.857 1.807-.857-1.807Zm-.319.148-.828-1.82.828 1.82Zm-.001.001.827 1.821-.827-1.821Zm-.457.201-.682 1.88c.476.173 1 .158 1.467-.04l-.785-1.84Zm-.264-.094.659-1.888a1.363 1.363 0 0 0-.084-.027l-.575 1.915Zm0 0-.658 1.889c.027.009.055.019.084.027l.574-1.916Zm-.358-.121.627-1.9-.627 1.9Zm-.417-.133-.59 1.91.59-1.91Zm-3.131-.735-.644-1.894a2 2 0 0 0 .321 3.868l.323-1.974Zm1.045-.413-.831-1.819.831 1.819Zm1.726-1.037-1.237-1.571 1.237 1.571Zm1.733-2.181 1.833.801a.615.615 0 0 0 .016-.038l-1.849-.763Zm.006-.013-1.849-.764v.001l1.849.763Zm-.077-5.091 1.863-.729-.006-.015-1.857.744Zm-.011-.028 1.856-.744a1.298 1.298 0 0 0-.033-.078l-1.823.822Zm-.013-.028 1.824-.822-.03-.063-1.794.885Zm-4.862-3.549-.258 1.983.258-1.983Zm-5.239.751-.68-1.881.68 1.881Zm-.524.189.681 1.881-.681-1.881Zm-5.242 1.398.16 1.994h.004l-.164-1.994Zm-2.2.024.035-2-.035 2Zm-1.058-.026-.074 1.998.006.001.068-1.999Zm-1.284-.048.074-1.998a1.999 1.999 0 0 0-1.813 2.985l1.74-.987Zm.633 1.116 1.74-.987-1.74.987Zm.533.929-1.729 1.006 1.729-1.006Zm4.993 6.475 1.285-1.533-1.285 1.533ZM97.546 133l1-1.733-1 1.733Zm.822.421.83-1.82-.009-.003-.82 1.823Zm.006.003 1.035-1.712a1.993 1.993 0 0 0-.206-.108l-.83 1.82Zm.003.001.328 1.973a2 2 0 0 0 .706-3.684l-1.034 1.711Zm-.004.001-.33-1.973-.018.004.348 1.969Zm0 0 .328 1.973.019-.003-.348-1.97Zm-.008.001-.328-1.972h-.003l.331 1.972Zm-2.8.673.604 1.907-.605-1.907Zm-2.085.799.827 1.821-.827-1.821Zm-.002.001-.826-1.821.826 1.821Zm-1.206.613-.123 1.997c.38.023.759-.063 1.092-.247l-.97-1.75Zm-.083 0 .088 1.998.035-.001-.123-1.997Zm-.872.04.092 1.998-.092-1.998Zm-.266.012-.093-1.998.093 1.998Zm-.655.031-.094-1.998.094 1.998Zm-.48.022.093 1.998-.093-1.998Zm-1.046.048-.09-1.998.09 1.998Zm-.38.017-.087-1.998.086 1.998Zm-15.034-.991.504-1.935-.504 1.935Zm-.273-.073.523-1.93-.523 1.93Zm-1.046-.305.596-1.909-.596 1.909Zm-.132-.041-.606 1.906.606-1.906Zm-.204-.066.62-1.901-.62 1.901Zm-.107-.035.628-1.899-.628 1.899Zm-.077-.026-.633 1.897v.001l.633-1.898Zm-.279-.094-.775 1.843c.04.017.08.033.121.047l.654-1.89Zm-.002-.001-.782 1.84.006.003.776-1.843Zm-.014-.006-.782 1.841.782-1.841Zm-.165-.07-.784 1.84.784-1.84Zm-15.647-9.147 1.398-1.43-1.398 1.43Zm-.004-.004-1.404 1.425.006.005 1.398-1.43Zm-.002-.001.758-1.851-.012-.005-.746 1.856Zm-.001-.001 1.663-1.111a2.023 2.023 0 0 0-.242-.296l-1.421 1.407Zm-.002-.002-1.424 1.405.002.002 1.422-1.407Zm-.064-.064 1.425-1.404v-.001l-1.425 1.405Zm-.009-.009-1.424 1.403v.001l1.424-1.404Zm-1.917-2.466 1.908-.598v-.001l-1.908.599Zm-.003-.008-1.935.505c.007.029.016.058.025.087l1.91-.592Zm-.004-.015-1.94.485v.001l1.94-.486Zm-.001-.005 1.941-.48v-.001l-1.941.481Zm-.002-.006 1.944-.472v-.001l-1.944.473Zm1.508-3.715-1.493-1.331-.002.002 1.495 1.329Zm.001-.002 1.492 1.332.002-.002-1.494-1.33Zm1.732-1.509 1.085 1.68.004-.002-1.089-1.678Zm.003-.001-1.085-1.681-.004.003 1.089 1.678Zm1.242-.52-.03-2 .03 2Zm.005 0 .067-1.999-.067-.001v2Zm.007 0-.107 1.997h.002l.105-1.997Zm.018.001-.186 1.992h.002l.184-1.992Zm.01.001.225-1.987-.225 1.987Zm2.584 1.598 1.265-1.549-.005-.004-1.26 1.553Zm.002.002-1.263 1.55.003.003 1.26-1.553Zm.44.362-1.272 1.542 1.273-1.542Zm3.006 1.949.62-1.902-.002-.001-.618 1.903Zm.01.003.659-1.888-.048-.017-.611 1.905Zm.01.003-.66 1.888v.001l.66-1.889Zm.077.027-.643 1.894.643-1.894Zm.017.006-.64 1.894.64-1.894Zm8.645-2.908-1.668-1.103-.001.001 1.669 1.102Zm.003-.004 1.668 1.103c.025-.038.049-.077.071-.117l-1.74-.986Zm.001-.003-1.673-1.096a1.837 1.837 0 0 0-.067.11l1.74.986Zm2.556-7.45-1.952-.432 1.952.432Zm.004-.018 1.953.432.004-.016-1.957-.416Zm.012-.069-1.986-.243c0 .005 0 .011-.002.016l1.988.227Zm.006-.049 1.985.243-1.985-.243Zm.035-.289 1.985.243-1.985-.243Zm17.711-46.65-1.298-1.522 1.298 1.522Zm.017-.015 1.298 1.522-1.298-1.522Zm.01-.008-1.296-1.523 1.297 1.523Zm.009-.007-1.223-1.583-.074.06 1.297 1.523Zm-20.086 73.087.506-1.935a2.002 2.002 0 0 0-1.512.207l1.006 1.728Zm.277.071.487-1.94-.487 1.94Zm-.928.35-1.16-1.63 1.16 1.63Zm-.22.161-1.208-1.594 1.208 1.594Zm-4.743 11.359-1.996.118v.002l1.996-.12Zm0 0 1.997-.119v-.001l-1.996.12Zm6.764 11.444 1.09-1.677-1.09 1.677Zm.557.341 1-1.732-1 1.732Zm.725.387-.878 1.796.878-1.796Zm1.083.463.692-1.877-.692 1.877Zm.607.204-.585 1.913.585-1.913Zm.196.058-.55 1.923.55-1.923Zm.006.002-.55 1.923.55-1.923Zm.932.224.385-1.963-.385 1.963Zm.857.135.235-1.987-.235 1.987Zm-.932 1.619 1.486 1.338v-.001l-1.486-1.337Zm-.001.001-1.487-1.338v.001l1.487 1.337Zm0 .001-.095 1.998a2.001 2.001 0 0 0 1.645-.734l-1.55-1.264Zm1.823-1.551 1.05 1.703a2 2 0 0 0-.966-3.701l-.084 1.998Zm-.001-.001-1.072-1.689v.001l1.072 1.688Zm.001-.001-1.072-1.689v.001l1.072 1.688Zm1.575-.779.694 1.875-.694-1.875Zm.152-.055-.654-1.89-.005.002.659 1.888Zm.077-.027.654 1.89-.654-1.89Zm.064-.022.132-1.996a2.018 2.018 0 0 0-.786.106l.654 1.89Zm.149.01.147-1.995-.015-.001-.132 1.996Zm.17.013.152-1.995-.152 1.995Zm3.34.339-.25 1.984.25-1.984Zm1.91.264-.298 1.978.297-1.978Zm.846.132-.316 1.975a2.002 2.002 0 0 0 1.867-3.238l-1.551 1.263Zm-.496-.64-1.61 1.187 1.61-1.187Zm-1.049-1.613 1.74-.987-1.74.987Zm-2.051-9.994-1.999-.063 1.999.063Zm.02-.911h-2 2Zm3.065-8.913-1.55-1.263 1.55 1.263Zm1.406-1.489 1.353 1.474v-.001l-1.353-1.473Zm.706-.608 1.257 1.556a2 2 0 0 0-1.352-3.553l.095 1.997Zm-.96.045-.092-1.998.091 1.998Zm-2.094.086.07 1.999-.07-1.999Zm17.066-4.558-.155 1.994a1.999 1.999 0 0 0 1.982-1.18l-1.827-.814Zm-3.95-1.987a2 2 0 1 0 .327 3.986l-.327-3.986Zm5.134.906.644 1.894-.644-1.894Zm5.136-1.709a2 2 0 1 0-3.656-1.623l3.656 1.623Zm8.911-43.91.716 1.867a2 2 0 0 0 1.161-2.559l-1.877.691Zm-.008-.023-1.853.754 1.853-.754Zm-.651-.446-1.872.703a2 2 0 0 0 1.834 1.297l.038-2Zm0 0 1.872-.704a2 2 0 0 0-1.833-1.296l-.039 2Zm-.497.186-1.352-1.474 1.352 1.474Zm-.002.002-1.356-1.47 1.356 1.47Zm-.187.775-1.875.697 1.875-.697Zm.007.019 1.867-.716-.012-.032-1.855.748Zm.368.983-1.877.69 1.877-.69Zm.004.011 1.877-.69-1.877.69Zm.01.027 1.877-.69-1.877.69Zm.1.274 1.879-.686-1.879.686Zm1.722 5.228-1.93.526 1.93-.526Zm0 .001 1.93-.526-1.93.526Zm.095.356 1.944-.468-.007-.03-1.937.498Zm0 0-1.945.468 1.945-.468Zm.001.007-1.944.468.012.048 1.932-.516Zm.002.007-1.932.517 1.932-.517Zm1.884 10.801 1.984-.255-1.984.255Zm1.71 10.108 1.94-.488v-.001l-1.94.489Zm.001.002 1.939-.488v-.001l-1.939.489Zm.001.003-1.94.488 1.94-.488Zm.091.357-1.935.505 1.935-.505Zm.001.004-1.935.506.012.044 1.923-.55Zm.002.006 1.931-.521-.008-.028-1.923.549Zm.002.007-1.931.521 1.931-.521Zm.016.061-1.93.522 1.93-.522Zm3.768 9.831 1.638-1.149-1.638 1.149Zm.01.014 1.656-1.122a.52.52 0 0 1-.02-.03l-1.636 1.152Zm.022.029-1.592 1.212.017.021 1.575-1.233Zm.014.019 1.573-1.235-1.573 1.235Zm29.315 1.854 1.348 1.476h.001l-1.349-1.476Zm.013-.013-1.301-1.519-.049.044 1.35 1.475Zm.016-.014 1.373 1.454-1.373-1.454Zm.002-.002 1.374 1.453.028-.027-1.402-1.426Zm.007-.007 1.401 1.427h.001l-1.402-1.427Zm4.317-6.384 1.857.743-1.857-.743Zm.363-.986 1.895.64.002-.007-1.897-.633Zm0-.001-1.874-.697a1.242 1.242 0 0 0-.023.065l1.897.632Zm.014-.04-1.904-.613v.001l1.904.612Zm-1.358-.46 1.884.673-1.884-.673Zm-.013.042-1.913-.585-.002.007 1.915.578Zm-.001.001 1.895.64.02-.062-1.915-.578Zm-.349.947 1.856.745-1.856-.745Zm-3.932 5.814-1.406-1.422 1.406 1.422Zm-.031.031 1.402 1.426.001-.001-1.403-1.425Zm-.003.002-1.402-1.426v.001l1.402 1.425Zm-.012.012 1.349 1.477.053-.051-1.402-1.426Zm-.006.006 1.348 1.477h.001l-1.349-1.477Zm-27.188-1.657 1.57-1.239-1.57 1.239Zm-.016-.02-1.572 1.236 1.572-1.236Zm-.009-.012-1.635 1.152.062.083 1.573-1.235Zm-.001-.001 1.639-1.146-.001-.002-1.638 1.148Zm-.011-.016 1.64-1.144-1.64 1.144Zm-3.563-9.424h-2c0 .176.023.351.069.521l1.931-.521Zm0-.003h2c0-.207-.032-.413-.096-.611l-1.904.611Zm-.001-.001-1.466 1.36.001.002 1.465-1.362Zm-.001-.001h2c0-.17-.021-.34-.064-.504l-1.936.504Zm0-.001 1.935-.504v-.002l-1.935.506Zm-.005-.021-1.936.504 1.936-.504Zm-.002-.006-1.935.504 1.935-.504Zm-1.725-10.083-1.984.255 1.984-.255Zm-1.949-11.141 1.932-.516-1.932.516Zm-.002-.007 1.932-.516-1.932.516Zm-.005-.02h-2a2 2 0 0 0 .067.517l1.933-.517Zm0-.001h2a1.98 1.98 0 0 0-.063-.497l-1.937.497Zm-.001 0 1.938-.498-.001-.001-1.937.498Zm-.001-.007-1.937.5 1.937-.5Zm-1.975-6.039-1.876.694 1.876-.694Zm-.372-.99-1.878.689a2 2 0 0 0 1.878 1.312v-2Zm-.001 0 1.877-.692a2 2 0 0 0-2.593-1.176l.716 1.867Zm-.071.027-.716-1.868.716 1.868Zm-.602.23.716 1.868-.716-1.867Zm.601-.23.716 1.868-.716-1.868Zm-.601.23-2-.047a2.002 2.002 0 0 0 2.716 1.915l-.716-1.867Zm0 0-.716-1.867a2.002 2.002 0 0 0-1.284 1.82l2 .048Zm-18.296 4.47.471 1.943-.471-1.944Zm-8.097 9.32 1.951.438-1.951-.437Zm-.051 6.822-1.959.406 1.959-.406Zm0 0 1.958-.405v-.001l-1.958.406Zm.111.497-1.944.468a2 2 0 0 0 3.942-.568l-1.998.1Zm-.014-.497h-2v.012l2-.012Zm.492-3.282-1.91-.594 1.91.594Zm1.333-2.752-1.645-1.138 1.645 1.138Zm6.424-3.584v-2 2Zm8.25 9.618h2-2Zm-1.718 5.872 1.668 1.105-1.668-1.105Zm-4.744 3.516-.499-1.936.499 1.936Zm-1.767.227-.006-2a2 2 0 0 0-.414 3.955l.42-1.955Zm7.994-2.375 1.36 1.466-1.36-1.466Zm2.142-8.793-1.986.239a2 2 0 0 0 3.973-.007l-1.987-.232Zm-14.913-8.757L94.013 95.4a2 2 0 0 0 2.707 2.795l-1.02-1.72Zm4.756-1.308v-2 2Zm0 0 .001-2h-.001v2Zm4.149 27.295-.074 1.998.074-1.998Zm.005 0-.076 1.998.076-1.998Zm-1.993.169.375 1.965-.375-1.965Zm-1.997.555-.68-1.881.68 1.881Zm-.395.143.68 1.88-.68-1.88Zm-5.498 1.502-.193-1.99.194 1.99Zm-.244.022v2c.055 0 .11-.002.165-.007l-.165-1.993Zm-.001 0v-2c-.054 0-.108.002-.161.007l.16 1.993Zm-1.639.014-.06 1.999.06-1.999Zm-.44-.012.047-2a2.002 2.002 0 0 0-1.768 3.019l1.721-1.019Zm1.265 2.029-1.666 1.106 1.666-1.106Zm5.288 5.231-.822 1.823a.559.559 0 0 0 .037.016l.785-1.839Zm3.959.51.135 1.995c.03-.002.06-.004.09-.008l-.225-1.987Zm6.095-3.39 1.83.805.02-.046-1.85-.759Zm-.084-3.996 1.866-.718a1.982 1.982 0 0 0-.078-.177l-1.788.895Zm-3.408-2.677-.365 1.966.365-1.966Zm-.005-.001-.362 1.967.362-1.967Zm-.328-.051.259-1.983v-.001l-.259 1.984Zm-.571-.048-.079 1.999.079-1.999Zm-.004 0-.079 1.999h.001l.078-1.999Zm0 0-1.988-.218a1.997 1.997 0 0 0 1.909 2.217l.079-1.999Zm0 0 1.988.218a1.999 1.999 0 0 0-1.913-2.217l-.075 1.999Zm-3.31 2.605-.68-1.881.68 1.881Zm3.203-.608.107-1.997-.043-.002-.064 1.999Zm-3.677.779-.681-1.88.681 1.88Zm-4.864 1.448-.324-1.973a2 2 0 0 0-1.298 3.143l1.622-1.17Zm.912 1.178 1.532-1.286-1.532 1.286Zm2.885 2.419-.83 1.82.056.024.774-1.844Zm2.975.349.127 1.996.109-.009-.236-1.987Zm2.925-.878-.923-1.774.923 1.774Zm1.509-1.3 1.81.85c.023-.049.044-.1.064-.151l-1.874-.699Zm.125-1.131 1.999-.057-1.999.057Zm-.204-1.283 1.895-.639a2.036 2.036 0 0 0-.125-.292l-1.77.931Zm-.936-1.127 1.12-1.657-1.12 1.657Zm-.967-2.403a2 2 0 1 0-.518 3.966l.518-3.966Zm-.654 1.951.078-1.999-.078 1.999Zm.136 2.015a2 2 0 1 0 .517-3.966l-.517 3.966ZM94.411 64.559c7.698-5.946 18.549-9.248 29.288-9.125l.046-4c-11.506-.132-23.27 3.386-31.78 9.96l2.446 3.165Zm29.288-9.125h.001l.046-4h-.001l-.046 4Zm.001 0c10.717.123 21.031 3.638 27.96 10.857l2.886-2.77c-7.859-8.188-19.314-11.955-30.8-12.087l-.046 4Zm27.96 10.856.006.007 2.887-2.768a.082.082 0 0 1-.007-.008l-2.886 2.77Zm.006.007.022.023 2.889-2.766-.024-.026-2.887 2.77Zm-.128-.153.024.031 3.191-2.411-.026-.035-3.189 2.415Zm.024.031v.001h.001v.001h.001v.002h.001v.001h.001v.001l3.192-2.411h-.001v-.001h-.001v-.001h-.001v-.002h-.001v-.001h-.001v-.001l-3.191 2.411Zm.004.006c6.941 9.189 7.697 20.268 8.475 32.534l3.992-.253c-.764-12.043-1.493-24.389-9.275-34.692l-3.192 2.411Zm8.475 32.534c.179 2.82.362 5.697.63 8.584l3.983-.37c-.262-2.819-.441-5.638-.621-8.467l-3.992.253Zm.63 8.582.001.008-.001-.003 3.984-.367-.001-.008v.003l-3.983.367Zm.001.007.012.131 3.982-.374-.012-.128-3.982.371Zm.013.138-.001-.006v.003l.001.006 3.981-.388.001.006-.001-.003v-.006l-3.981.388Zm-.01-.191v.004h4v-.004h-4Zm.01.2v.004l3.981-.392v-.004l-3.981.392Zm.001.005c.451 4.558.602 6.04 1.257 9.752l3.939-.696c-.628-3.559-.767-4.92-1.216-9.45l-3.98.394Zm1.263 9.782-.004-.022a.033.033 0 0 0-.002-.008l.001.001v.001l.001.006.004.022 3.928-.755.004.022a.033.033 0 0 0 .002.008l-.001-.001v-.001l-.001-.006-.004-.022-3.928.755Zm-.005-.029c.583 3.303 1.616 7.558 2.44 10.957l3.887-.943c-.834-3.438-1.832-7.558-2.388-10.71l-3.939.696Zm2.44 10.957.327 1.351 3.889-.938-.329-1.356-3.887.943Zm.328 1.356v.001l3.887-.948-.001-.001-3.886.948Zm-.001-.004c.88 3.647 1.697 6.746 2.48 9.626l3.859-1.049a334.398 334.398 0 0 1-2.45-9.515l-3.889.938Zm2.479 9.623.001.005-.001-.003 3.862-1.044-.001-.004v.003l-3.861 1.043Zm.001.005c.216.796.345 1.5.484 2.267l3.936-.713c-.138-.758-.293-1.62-.56-2.603l-3.86 1.049Zm.484 2.267c.191 1.059.4 2.23.901 3.618l3.763-1.355c-.375-1.04-.536-1.912-.728-2.976l-3.936.713Zm.9 3.618c.072.2.15.404.234.612l3.708-1.501c-.065-.16-.124-.315-.178-.466l-3.764 1.355Zm.234.612c.215.53.471 1.086.779 1.681l3.55-1.843a15.523 15.523 0 0 1-.621-1.339l-3.708 1.501Zm.779 1.681c.213.411.477.838.734 1.234l3.356-2.176c-.233-.359-.415-.66-.54-.901l-3.55 1.843Zm4.412.146v-1.398h-4v1.398h4Zm0-1.398v-1.718h-4v1.718h4Zm-.145-2.466c-.443-1.1-.606-1.964-.816-3.114l-3.935.721c.212 1.158.432 2.377 1.041 3.888l3.71-1.495Zm-.816-3.114a32.111 32.111 0 0 0-.604-2.772l-3.86 1.05c.247.908.386 1.664.529 2.443l3.935-.721Zm-.603-2.769-.001-.004v.003l-3.861 1.043a.01.01 0 0 0 .001.004l-.001-.002 3.862-1.044Zm-.002-.004a332.736 332.736 0 0 1-2.44-9.476l-3.889.939c.876 3.63 1.689 6.714 2.47 9.586l3.859-1.049Zm-2.441-9.48-.001-.001-3.886.948h.001l3.886-.947Zm.001.003-.315-1.299-3.887.943.313 1.295 3.889-.939Zm-.315-1.299c-.837-3.454-1.838-7.588-2.384-10.679l-3.939.695c.572 3.242 1.608 7.514 2.436 10.927l3.887-.943Zm-2.39-10.709.005.022.001.008v-.002l-.001-.006-.005-.023-3.928.756-.004-.023-.001-.007v.002l.001.006.004.022 3.928-.755Zm.006.029c-.618-3.497-.752-4.79-1.189-9.205l-3.981.394c.441 4.448.587 5.859 1.231 9.507l3.939-.696Zm-1.189-9.202a.024.024 0 0 0-.001-.007l.001.003-3.981.388v.007-.003l3.981-.388Zm-.001-.007-.013-.133-3.98.394.013.133 3.98-.394Zm-.003.064v-.001h-4v.001h4Zm0-.001v-.003h-4v.003h4Zm-.009-.19c-.265-2.826-.442-5.672-.62-8.547l-3.992.247c.177 2.865.357 5.775.63 8.674l3.982-.374Zm-.62-8.547c-.749-12.104-1.483-24.801-9.603-35.517l-3.188 2.415c7.276 9.603 8.036 21.04 8.799 33.35l3.992-.248Zm-9.603-35.517-.022-.03-3.185 2.42.019.025 3.188-2.415Zm-.014-.019a2.759 2.759 0 0 0-.198-.235l-2.909 2.746a1.396 1.396 0 0 1-.095-.113l3.202-2.398Zm-.206-.243-.037-.04-2.889 2.767.032.034 2.894-2.761Zm-.037-.039c-8.188-8.553-20.046-12.422-31.851-12.558l-.046 4c11.034.127 21.75 3.743 29.008 11.324l2.889-2.766Zm-31.851-12.558h-.001l-.046 4h.001l.046-4Zm-.001 0c-11.811-.136-23.858 3.445-32.678 10.261l2.445 3.165c8.008-6.188 19.143-9.553 30.187-9.426l.046-4ZM91.083 60.265l-.021.016 2.448 3.164.018-.014-2.445-3.166Zm.004-.003c-.036.027-.07.055-.103.081l2.55 3.082a1.27 1.27 0 0 1-.05.039l-2.397-3.202Zm-.124.099h-.001v.001h-.001v.001h-.001v.001h-.001v.001h-.001v.001h-.001l2.592 3.047v-.001h.001v-.001h.002v-.001h.001v-.001h.001v-.001h.001l-2.592-3.047Zm-.007.006C76.403 72.75 74.14 91.99 72.066 108.944l3.97.485c2.117-17.307 4.35-34.815 17.513-46.016l-2.593-3.046Zm-18.89 48.576-.07.572 3.97.487.07-.573-3.97-.486Zm-.07.572-.001.006-.001.006 3.97.487.001-.007v-.005l-3.97-.487Zm-.002.012v.007l3.97.486v-.007l-3.97-.486Zm.032-.183-.011.049 3.905.866.011-.05-3.905-.865Zm-.011.048a.197.197 0 0 1-.002.011l3.904.868.003-.012-3.905-.867Zm-.002.012c-.772 3.473-1.293 5.076-2.062 6.252l3.348 2.19c1.219-1.864 1.858-4.15 2.618-7.576l-3.904-.866Zm-2.058 6.246-.004.007-.001.001v.001-.002l.004-.005 3.34 2.201a.042.042 0 0 1 .004-.006l.001-.002v-.001.002l-.004.005-3.34-2.201Zm-.002.004a.036.036 0 0 1-.004.005l.002-.003 3.343 2.197.003-.005-.002.003-3.343-2.197Zm0-.001-.038.058 3.316 2.236.06-.09-3.338-2.204Zm-.04.06.001-.001-.003.004 3.32 2.231v.001l.002-.003-3.32-2.232Zm0 0c-.597.885-1.23 1.395-1.884 1.632-.637.231-1.53.289-2.826-.166l-1.324 3.774c1.971.692 3.832.762 5.512.153 1.663-.602 2.912-1.783 3.838-3.156l-3.316-2.237Zm-4.71 1.466-.004-.001-1.332 3.771.013.005 1.322-3.775Zm-.165-.051c.035.009.063.018.08.023l.02.006-1.23 3.807h.003a.3.3 0 0 0 .029.01c.019.005.05.015.09.025l1.008-3.871Zm.098.028h-.002l-.006-.002-.023-.007a1.58 1.58 0 0 0-.092-.026l-.999 3.873a1.267 1.267 0 0 1-.081-.023l-.021-.006 1.224-3.809Zm-.015-.004a.01.01 0 0 0 .004.001h-.001l-.001-.001-1.232 3.806.016.005 1.214-3.811Zm.003.001c.02.006-.044-.014-.211-.113a7.669 7.669 0 0 1-.58-.385 35.848 35.848 0 0 1-1.557-1.217l-2.521 3.105c.556.452 1.17.946 1.742 1.358.52.374 1.21.835 1.892 1.057l1.235-3.805Zm-2.344-1.712-.005-.003-.002-.002.005.003-2.53 3.099.005.004.002.001-.004-.003 2.529-3.099Zm-.006-.005-.299-.244-2.538 3.091c.1.083.207.171.315.258l2.522-3.105Zm-.299-.244c-.863-.709-2.385-2.06-4.372-2.124l-.128 3.998c.37.011.805.267 1.961 1.217l2.54-3.091Zm-4.372-2.124-.02-.001-.112 3.998.004.001.128-3.998Zm-.076-.002h-.01v4h.01v-4Zm.014 0H58l-.01 4h.004l.048-4Zm-.043 0c-1.3-.003-2.358.583-3.114 1.07l2.168 3.362c.61-.394.845-.432.937-.432l.01-4Zm-3.113 1.069a.017.017 0 0 1-.004.003l.002-.001 2.166 3.363a.017.017 0 0 1 .004-.003l-.002.001-2.166-3.363Zm-.003.003a12.11 12.11 0 0 0-2.435 2.111l2.987 2.66a8.14 8.14 0 0 1 1.617-1.41l-2.17-3.361Zm-2.434 2.109-.004.005-.001.001.004-.004 2.984 2.663.004-.004.002-.002-.004.005-2.985-2.664Zm-.003.004c-1.337 1.503-3.009 4.045-2.263 6.892l3.87-1.014c-.202-.767.207-1.899 1.381-3.219l-2.988-2.659Zm-2.263 6.892.006.024 3.865-1.03-.002-.007-3.87 1.013Zm.017.063v.002l3.844-1.108v-.002l-3.844 1.108Zm0 .003.02.062 3.818-1.19.006.019v.002-.002l-3.843 1.109Zm.015.048.01.034 3.821-1.185-.004-.011-3.827 1.162Zm.01.034c.494 1.591 1.56 2.649 2.644 3.749l2.849-2.808c-1.214-1.231-1.515-1.62-1.672-2.126l-3.82 1.185Zm2.644 3.749.158.16 2.847-2.809-.156-.159-2.849 2.808Zm.158.16.033.034 2.847-2.81-.033-.033-2.847 2.809Zm.033.033.007.007 2.847-2.809-.007-.007-2.847 2.809Zm.124.117.01.009 2.612-3.03-.01-.008-2.612 3.029Zm-.084-.078a.027.027 0 0 0 .005.005l-.002-.002 2.8-2.857-.005-.004.002.001-2.8 2.857Zm.008.008a.075.075 0 0 0-.006-.006l-.002-.002v.001l.003.002.007.007 2.79-2.867.006.006.002.002-.001-.001-.002-.002-.008-.007-2.789 2.867Zm-.002-.002c4.042 3.953 9.957 6.89 15.47 9.279l1.59-3.671c-5.497-2.381-10.797-5.078-14.263-8.468l-2.797 2.86Zm15.47 9.279c.42.182.84.362 1.259.539l1.561-3.683c-.41-.173-.82-.349-1.23-.527l-1.59 3.671Zm.697.181c.09.081.186.156.285.224l2.265-3.296c.047.032.092.067.134.106l-2.684 2.966Zm.285.224c.109.075.223.142.341.2l1.763-3.591c.055.028.11.059.16.095l-2.264 3.296Zm.342.2c.108.053.22.099.334.138l1.27-3.794c.054.018.106.04.157.065l-1.761 3.591Zm.314.131.002.001h.001l1.309-3.78-.002-.001-1.31 3.78Zm.005.001c.105.037.206.068.273.089l1.188-3.82a3.864 3.864 0 0 1-.156-.05l-1.305 3.781Zm.273.089c.057.017.094.029.129.041l1.255-3.799-.196-.062-1.188 3.82Zm-.018-.015.085.037 1.572-3.679-.108-.045-1.55 3.687Zm.085.037.113.048 1.547-3.689a7.734 7.734 0 0 1-.088-.038l-1.572 3.679Zm-.312-3.398c-.12.089-.238.181-.355.275l2.502 3.121a9.91 9.91 0 0 1 .25-.193l-2.397-3.203Zm-.354.275-.05.04 2.515 3.11.036-.029-2.501-3.121Zm-.051.041c-.07.056-.138.113-.207.17l2.577 3.06.146-.121-2.516-3.109Zm-.207.17c-.147.124-.291.251-.434.381l2.702 2.95c.101-.093.204-.183.309-.271l-2.577-3.06Zm-.433.381-.02.017 2.708 2.945.012-.011-2.7-2.951Zm-.019.017c-.27.249-.532.509-.785.779l2.925 2.729c.184-.197.373-.385.567-.563l-2.707-2.945Zm-.785.779-.056.061 2.94 2.712.041-.044-2.925-2.729Zm-.056.061-.022.024 2.947 2.705.016-.018-2.941-2.711Zm-.022.024c-2.887 3.145-4.545 7.695-4.262 12.458l3.993-.237c-.22-3.721 1.087-7.198 3.216-9.516l-2.947-2.705Zm-4.262 12.46v.001l3.993-.241v-.001l-3.993.241Zm0-.001c.269 4.518 2.297 9.164 6.56 12.758l2.579-3.059c-3.397-2.863-4.94-6.475-5.146-9.937l-3.993.238Zm6.56 12.758c.62.522 1.285 1.021 1.997 1.492l2.21-3.333a17.671 17.671 0 0 1-1.628-1.218l-2.578 3.059Zm1.997 1.492c.375.249.764.491 1.165.724l2.011-3.457a19.787 19.787 0 0 1-.966-.6l-2.21 3.333Zm2.193-3.004c-.376-.004-.75-.008-1.123-.01l-.027 4c.367.002.736.005 1.106.01l.044-4Zm-1.123-.01a346.87 346.87 0 0 0-2.488-.008v4c.814 0 1.635.002 2.46.008l.028-4Zm-2.488-.008c-1.188 0-2.359.005-3.504.009l.016 4c1.146-.004 2.309-.009 3.488-.009v-4Zm-3.504.009c-1.058.004-2.094.008-3.106.009l.001 4c1.02-.001 2.063-.005 3.12-.009l-.015-4Zm-3.106.009h-.155v4h.157l-.002-4Zm-.154 0a2.691 2.691 0 0 0-.96.174l1.411 3.743a1.277 1.277 0 0 1-.453.083l.002-4Zm-.962.175a5.448 5.448 0 0 0-.215.086l1.556 3.685.074-.03-1.415-3.741Zm-.215.086c-2.805 1.185-3.814 4.029-4.219 6.164l3.93.744c.35-1.845.996-2.864 1.845-3.223l-1.556-3.685Zm-4.218 6.159-.001.009v.003-.002l.001-.009 3.929.753.002-.009v-.003.003l-.002.008-3.929-.753Zm0 .005c-.42 2.219-.374 4.569-.331 6.168l3.998-.106c-.043-1.623-.068-3.573.263-5.318l-3.93-.744ZM60.704 174h1.431v-4h-1.431v4Zm3.43-2.053v-.037l-3.999.104.001.038 3.999-.105Zm0-.037a50.8 50.8 0 0 1-.02-1.888l-4-.045c-.009.731.005 1.428.021 2.037l3.999-.104Zm-.02-1.888c.011-1.099.079-2.187.257-3.127l-3.93-.744c-.242 1.273-.314 2.627-.328 3.826l4 .045Zm.256-3.122.001-.009v-.003.002l-.001.009-3.929-.753-.001.009v.002l-.001.001v-.003l.002-.008 3.929.753Zm0-.005c.303-1.598.76-2.045.958-2.145l-1.797-3.573c-1.984.997-2.747 3.156-3.09 4.974l3.93.744Zm.951-2.141.018-.009a.02.02 0 0 0 .004-.003h.002l-.006.002-.017.009-1.783-3.58-.018.009-.005.002v.001h-.001l.005-.003.018-.009 1.783 3.581Zm.007-.004.032-.015-1.545-3.689a4.06 4.06 0 0 0-.283.13l1.796 3.574Zm-.737.141.112-.001-.009-4-.11.001.007 4Zm.108-.001h.014-.012v-4h-.013.012v4Zm.006 0c1.309-.002 2.659-.023 4.025-.044l-.061-4c-1.372.021-2.695.042-3.973.044l.009 4Zm4.025-.044c1.446-.023 2.913-.045 4.404-.049l-.008-4c-1.522.004-3.016.027-4.457.049l.061 4Zm4.404-.049.864.001.014-4-.886-.001.008 4Zm.864.001c.25.001.502.002.753.005l.036-4c-.26-.003-.518-.004-.775-.005l-.014 4Zm.753.005c.336.003.672.007 1.01.013l.069-4c-.35-.006-.697-.01-1.043-.013l-.036 4Zm1.01.013.442.008.085-3.999-.458-.009-.07 4Zm.442.008.638.016.111-3.999-.664-.016-.085 3.999Zm.638.016c.213.006.425.012.638.02l.137-3.998-.664-.021-.11 3.999Zm.638.02.71.027.17-3.996c-.248-.011-.496-.02-.743-.029l-.138 3.998Zm-.692-3.308c-.082.09-.162.182-.24.275l3.056 2.58a8.12 8.12 0 0 1 .158-.181l-2.974-2.674Zm-.24.275a12.974 12.974 0 0 0-1.402 2.037l3.49 1.954c.288-.513.61-.986.968-1.411l-3.056-2.58Zm-1.402 2.037c-.176.315-.34.634-.491.958l3.62 1.699c.114-.241.234-.476.361-.703l-3.49-1.954Zm-.49.956v.001h-.001l3.62 1.703v-.002l-3.62-1.702Zm-.002.004c-.726 1.547-1.195 3.192-1.507 4.792l3.925.767c.27-1.379.654-2.691 1.203-3.861l-3.621-1.698Zm-1.507 4.792c-.128.652-.23 1.3-.313 1.937l3.966.518c.074-.566.163-1.13.272-1.688l-3.925-.767Zm-.313 1.937-.026.199 3.97.495.022-.176-3.966-.518Zm1.959 2.446h1.443v-4h-1.443v4Zm3.426-1.738c.248-1.883.67-3.674 1.353-5.131l-3.621-1.698c-.927 1.976-1.422 4.217-1.697 6.306l3.965.523Zm1.352-5.129v-.001l-3.619-1.703v.002l3.62 1.702Zm.002-.003a9.01 9.01 0 0 1 .641-1.154l-3.334-2.209a13.05 13.05 0 0 0-.929 1.664l3.622 1.699Zm.641-1.154c.203-.305.417-.58.644-.827l-2.944-2.708c-.382.415-.725.86-1.034 1.326l3.334 2.209Zm.644-.827a5.84 5.84 0 0 1 .343-.343l-2.698-2.952a9.643 9.643 0 0 0-.589.587l2.944 2.708Zm.343-.343.124-.11-2.605-3.035a7.48 7.48 0 0 0-.218.193l2.7 2.952Zm.124-.11c.188-.161.387-.308.596-.44l-2.134-3.383a9 9 0 0 0-1.067.788l2.605 3.035Zm.596-.44c.224-.142.464-.268.722-.377l-1.56-3.683a9.04 9.04 0 0 0-1.296.677l2.134 3.383Zm.722-.377a12.8 12.8 0 0 1 .094-.039l-1.49-3.712-.165.068 1.561 3.683Zm.094-.039.009-.003-1.483-3.715a.125.125 0 0 0-.016.006l1.49 3.712Zm.008-.003.01-.004-1.479-3.717-.012.005 1.48 3.716Zm.01-.004.116-.045-1.39-3.75a7.737 7.737 0 0 0-.204.078l1.478 3.717Zm-.732.074.138.011.314-3.988-.146-.011-.306 3.988Zm.14.011h-.004.007l.312-3.988.003.001-.007-.001-.312 3.988Zm.002 0 .153.013.325-3.987-.164-.013-.314 3.987Zm.153.013c1.466.119 2.853.285 4.19.479l.575-3.959a70.678 70.678 0 0 0-4.44-.507l-.325 3.987Zm4.19.479.072.01.58-3.958a1.902 1.902 0 0 1-.078-.011l-.574 3.959Zm.073.01c.422.062.84.127 1.254.194l.638-3.949a86.71 86.71 0 0 0-1.314-.203l-.578 3.958Zm1.254.194c.28.045.558.091.834.138l.671-3.943a92.33 92.33 0 0 0-.867-.144l-.638 3.949Zm.834.138.02.004.673-3.944a.043.043 0 0 1-.012-.002l-.01-.001-.671 3.943Zm.021.004.358.061.684-3.941-.37-.064-.672 3.944Zm.358.061.113.02.687-3.941-.115-.02-.685 3.941Zm.112.02c.29.05.578.102.865.154l.713-3.936c-.295-.054-.59-.106-.89-.159l-.688 3.941Zm.865.154c.84.152 1.667.309 2.5.466l.744-3.93c-.83-.157-1.673-.317-2.531-.472l-.713 3.936Zm2.5.466c5.122.971 10.27 1.951 17.219 1.556l-.227-3.994c-6.418.365-11.144-.525-16.248-1.492l-.744 3.93Zm17.219 1.556.277-.017-.246-3.992-.258.015.227 3.994Zm.274-.016.301-.019-.241-3.992-.301.018.241 3.993Zm1.692-.705.197-.228-3.023-2.619-.197.227 3.023 2.62Zm.199-.23.207-.237-3.005-2.64-.228.261 3.026 2.616Zm.207-.237c3.238-3.686 6.822-6.404 11.278-8.934l-1.975-3.479c-4.753 2.699-8.714 5.682-12.308 9.773l3.005 2.64Zm11.278-8.934.242-.137-1.96-3.487-.257.145 1.975 3.479Zm.241-.136.005-.003.002-.001-.004.002-1.958-3.488-.005.003-.002.001.004-.002 1.958 3.488Zm.765-2.729-.704-1.247-3.483 1.967.704 1.247 3.483-1.967Zm-3.425-2.007-.256.144 1.975 3.479.241-.136-1.96-3.487Zm-.256.144c-.517.294-1.026.592-1.527.895l2.069 3.423c.468-.283.946-.562 1.433-.839l-1.975-3.479Zm-1.527.895c-3.972 2.4-7.434 5.109-10.599 8.581l2.956 2.694c2.867-3.145 6.016-5.619 9.712-7.852l-2.069-3.423Zm-10.599 8.581-.289.32 2.981 2.666.264-.292-2.956-2.694Zm-.287.318-.005.005.003-.003 2.977 2.671a.04.04 0 0 0 .004-.005l-.002.003-2.977-2.671Zm-.005.005-.254.287 3.004 2.641.232-.262-2.982-2.666Zm1.136-.39-.473.025.187 3.995c.169-.008.339-.016.51-.026l-.224-3.994Zm-.476.025h-.002l.192 3.995h.003l-.193-3.995Zm0 0-.3.013.163 3.997.325-.015-.188-3.995Zm-.3.013c-5.806.238-10.226-.588-15.074-1.499l-.74 3.931c4.854.912 9.672 1.823 15.977 1.565l-.163-3.997Zm-15.074-1.499-.61-.115-.737 3.932.608.114.739-3.931Zm-.61-.115c-.648-.121-1.304-.243-1.972-.363l-.707 3.937c.653.117 1.298.237 1.942.358l.737-3.932Zm-1.972-.363a1.3 1.3 0 0 0-.015-.003l-.707 3.937.015.003.707-3.937Zm1.088 3.337.005-.006-2.911-2.743-.006.006 2.912 2.743Zm-.039-2.794v-.001h-.001l-2.829 2.828.006.006 2.824-2.833Zm-.002-.002a15.557 15.557 0 0 1-.232-.237l-2.883 2.773c.094.098.19.196.288.294l2.827-2.83Zm-.232-.237a16.424 16.424 0 0 1-.332-.355l-2.966 2.684c.134.148.273.297.415.444l2.883-2.773Zm-.332-.355c-.162-.18-.316-.358-.463-.536l-3.088 2.542c.186.226.381.452.585.678l2.966-2.684Zm-.463-.536a13.586 13.586 0 0 1-.69-.912l-3.289 2.276c.272.393.569.786.89 1.178l3.09-2.542Zm-.69-.912-.024-.035-3.297 2.264.032.047 3.29-2.276Zm-.024-.035c-2.262-3.294-2.18-6.414-2.098-8.878l-3.998-.135c-.085 2.547-.252 6.835 2.8 11.277l3.296-2.264Zm-2.098-8.878c.013-.39.027-.793.027-1.167h-4c0 .293-.011.625-.025 1.032l3.998.135Zm.027-1.167h-4 4Zm0 0c0-3.278 1.165-5.757 3.011-7.577l-2.809-2.848c-2.618 2.582-4.202 6.091-4.202 10.425h4Zm3.011-7.577c.061-.061.124-.12.187-.18l-2.74-2.914a19.68 19.68 0 0 0-.256.246l2.81 2.848Zm.187-.18c.217-.204.444-.401.681-.59l-2.495-3.126c-.32.255-.628.522-.926.802l2.74 2.914Zm.681-.59c.226-.18.46-.353.701-.519l-2.261-3.299c-.32.22-.632.45-.935.692l2.496 3.126Zm.701-.519.232-.155-2.188-3.348c-.102.067-.204.135-.305.204l2.261 3.299Zm.232-.155.18-.115-2.131-3.385c-.08.05-.158.101-.237.152l2.188 3.348Zm.18-.115.082-.051-2.105-3.401-.108.067 2.131 3.385Zm.082-.052a.225.225 0 0 0 .025-.015l-2.1-3.405-.03.02 2.105 3.4Zm.025-.015c.19-.117.385-.23.584-.339l-1.925-3.507c-.256.141-.51.288-.758.441l2.099 3.405Zm.584-.339c.314-.173.64-.335.975-.488l-1.655-3.641c-.424.192-.84.4-1.245.622l1.925 3.507Zm.966-.484a.036.036 0 0 0 .007-.003l.002-.001-.001.001-.007.002-1.636-3.649a.037.037 0 0 0-.008.003l-.002.001.001-.001.007-.002 1.637 3.649Zm.01-.004a15.776 15.776 0 0 1 2.833-.967l-.94-3.888c-1.228.297-2.42.7-3.547 1.213l1.654 3.642Zm2.833-.967.095-.023-.917-3.893-.118.028.94 3.888Zm.098-.024-.003.001.007-.002-.922-3.892h.002l-.007.001.923 3.892Zm.001 0 .238-.054-.863-3.906a28.68 28.68 0 0 0-.291.067l.916 3.893Zm.237-.054.006-.001h.001l-.86-3.907-.007.002c-.001 0 0 0 0 0l.86 3.906Zm-.002.001.008-.002.002-.001-.001.001-.007.001-.841-3.91-.008.001-.002.001h-.001.002l.007-.002.84 3.911Zm.011-.003c.287-.063.576-.119.869-.169l-.666-3.944c-.357.06-.712.129-1.063.207l.86 3.906Zm.869-.169c.399-.067.803-.122 1.212-.164l-.406-3.979c-.495.051-.986.117-1.472.199l.666 3.944Zm1.212-.164a19.848 19.848 0 0 1 3.885-.008l.382-3.982a23.764 23.764 0 0 0-4.673.011l.406 3.979Zm3.885-.008c.413.04.826.092 1.238.158l.63-3.95c-.495-.079-.99-.142-1.486-.19l-.382 3.982Zm1.238.158c.226.036.451.076.675.12l.766-3.926a22.97 22.97 0 0 0-.811-.144l-.63 3.95Zm.675.12c.22.042.44.089.658.14l.9-3.898a22.338 22.338 0 0 0-.792-.168l-.766 3.926Zm.658.14c.753.173 1.495.392 2.22.654l1.364-3.76a23.208 23.208 0 0 0-2.684-.792l-.9 3.898Zm2.22.654c.094.034.188.069.281.105l1.425-3.738c-.114-.043-.228-.086-.342-.127l-1.364 3.76Zm.281.105.267.102 1.426-3.737-.267-.102-1.426 3.737Zm1.745.081.263-.109-1.53-3.696-.263.109 1.53 3.696Zm.264-.109.224-.094-1.569-3.68-.186.078 1.531 3.696Zm.224-.094c2.958-1.261 5.402-3.001 7.713-4.793l-2.451-3.161c-2.239 1.736-4.357 3.22-6.831 4.274l1.569 3.68Zm7.713-4.793c.532-.412 1.061-.831 1.588-1.248l-2.483-3.136c-.528.418-1.042.825-1.556 1.223l2.451 3.161Zm1.6-1.257-.014.011-.004.003.001-.001a.203.203 0 0 0 .018-.014l-2.507-3.117.013-.011.005-.003h-.001v.001l-.004.003a.203.203 0 0 0-.014.011l2.507 3.117Zm.314-2.803-.89-1.122-3.134 2.486.89 1.123 3.134-2.487Zm-3.699-1.447c-2.595 2.055-4.815 3.757-7.363 4.965l1.714 3.614c3.014-1.429 5.564-3.409 8.132-5.443l-2.483-3.136Zm-7.363 4.965-.29.135 1.655 3.641c.117-.053.233-.107.349-.162l-1.714-3.614Zm-.29.135-.003.001-.001.001.003-.002 1.655 3.642.003-.002.002-.001-.004.002-1.655-3.641Zm-.001 0c-.137.062-.275.123-.414.182l1.57 3.68c.168-.072.334-.145.499-.22l-1.655-3.642Zm1.053.142a16.41 16.41 0 0 0-.287-.102l-1.317 3.777.24.085 1.364-3.76Zm-.371-.129a1.676 1.676 0 0 1 .139.047l.034.013.009.004.002.001-.002-.001-.009-.004-.034-.013a1.37 1.37 0 0 0-.139-.047l-1.149 3.831c-.032-.009-.059-.019-.082-.027l-.058-.02-.034-.014-.008-.003-.003-.001h.001l.002.001.008.003.034.014.058.021c.023.008.05.017.082.026l1.149-3.831Zm.084.027c-.13-.045-.26-.09-.39-.133l-1.254 3.799.327.111 1.317-3.777Zm-.39-.133a39.515 39.515 0 0 0-.453-.144l-1.181 3.821c.127.04.254.08.38.122l1.254-3.799Zm-.453-.144a25.324 25.324 0 0 0-3.4-.798l-.645 3.948c.966.158 1.925.381 2.864.671l1.181-3.821Zm-3.079 3.07c.414-.141.827-.303 1.233-.488l-1.662-3.638a9.508 9.508 0 0 1-.858.338l1.287 3.788Zm1.233-.488a10.47 10.47 0 0 0 2.133-1.284l-2.475-3.143a6.56 6.56 0 0 1-1.32.789l1.662 3.638Zm2.133-1.284c.954-.752 1.791-1.723 2.328-2.952l-3.666-1.601c-.228.522-.606.992-1.137 1.41l2.475 3.143Zm2.344-2.99.003-.007-3.698-1.525-.003.006 3.698 1.526Zm.003-.007.003-.007-3.698-1.525-.003.007 3.698 1.525Zm.002-.006c.889-2.151.67-4.709-.062-6.583l-3.726 1.457c.445 1.136.503 2.603.091 3.599l3.697 1.527Zm-.068-6.598-.012-.028-3.713 1.487.011.028 3.714-1.487Zm-.045-.106-.012-.028-3.647 1.643.012.028 3.647-1.643Zm-.042-.091c-1.441-2.923-3.928-4.325-6.397-4.647l-.517 3.966c1.282.168 2.536.848 3.326 2.45l3.588-1.769Zm-6.397-4.647c-2.336-.305-4.575.274-6.178.853l1.359 3.762c1.351-.488 2.885-.833 4.302-.649l.517-3.966Zm-6.178.853-.525.19 1.362 3.761.522-.189-1.359-3.762Zm-.525.19c-2.462.891-3.237 1.162-4.726 1.285l.33 3.987c2.09-.173 3.335-.634 5.758-1.511l-1.362-3.761Zm-4.722 1.285c-.406.032-1.247.031-2.004.017l-.07 4c.716.012 1.758.021 2.395-.03l-.32-3.987Zm-2.004.017c-.29-.005-.547-.011-.732-.016l-.217-.007-.058-.001-.014-.001h-.004l-.068 1.999-.068 1.999h.024a.94.94 0 0 0 .064.002l.23.007c.195.006.466.012.772.018l.071-4Zm-1.019-.025-1.284-.047-.148 3.997 1.284.047.148-3.997Zm-3.097 2.938.633 1.115 3.479-1.973-.633-1.116-3.48 1.974Zm.632 1.115c.175.309.357.626.544.949l3.458-2.012a87.927 87.927 0 0 1-.522-.91l-3.48 1.973Zm.544.949c1.344 2.309 3.093 5.037 5.437 7.002l2.57-3.066c-1.772-1.485-3.231-3.683-4.55-5.948l-3.457 2.012Zm5.437 7.002c.572.479 1.188.921 1.85 1.302l1.998-3.465a8.928 8.928 0 0 1-1.278-.903l-2.57 3.066Zm1.85 1.302c.322.186.656.358 1 .513l1.642-3.647a7.371 7.371 0 0 1-.644-.331l-1.998 3.465Zm.992.509.006.003 1.658-3.64-.006-.003-1.658 3.64Zm-.2-.106.003.002 2.07-3.423-.003-.002-2.07 3.423Zm.709-3.682-.007.001.003-.001.657 3.946.008-.001h-.004l-.657-3.945Zm-.023.004a.413.413 0 0 1 .042-.007l.011-.002.004-.001-.001.001h-.003l-.01.002a.415.415 0 0 0-.043.007l.695 3.939-.042.007-.011.001-.004.001h.001l.003-.001.01-.001.043-.007-.695-3.939Zm.018-.004-.006.001v.001l.657 3.945.007-.001c.001 0 0 0 0 0l-.657-3.946Zm-.01.002a22.554 22.554 0 0 0-3.074.739l1.21 3.813c.815-.259 1.66-.461 2.528-.607l-.663-3.945Zm-3.074.739a20.84 20.84 0 0 0-2.306.884l1.654 3.642c.598-.271 1.22-.509 1.862-.713l-1.21-3.813Zm-2.306.884-.003.001h.002l1.653 3.642.003-.001h-.001l-1.654-3.642Zm-.002.001c-.475.216-.925.45-1.348.685l1.938 3.499c.363-.201.714-.383 1.065-.542l-1.655-3.642Zm-.256.438a2.57 2.57 0 0 0-.329 0l.246 3.993a1.483 1.483 0 0 1-.163 0l.246-3.993Zm-.293-.002-.877.04.184 3.996.868-.04-.175-3.996Zm-.877.04-.267.012.185 3.996.266-.012-.184-3.996Zm-.267.012-.656.031.188 3.995.653-.03-.185-3.996Zm-.656.031-.48.022.187 3.996.48-.023-.187-3.995Zm-.48.022-1.041.048.178 3.996 1.05-.048-.187-3.996Zm-1.041.048-.378.017.173 3.996.383-.017-.178-3.996Zm-.379.017c-5.132.222-9.844.27-14.442-.928l-1.008 3.87c5.232 1.364 10.479 1.277 15.624 1.054l-.173-3.996Zm-14.442-.928-.254-.068-1.046 3.861.292.077 1.008-3.87Zm-.254-.068a26.769 26.769 0 0 1-.973-.284l-1.193 3.818c.374.117.747.226 1.12.327l1.046-3.861Zm-.973-.284-.123-.038-1.211 3.812.142.044 1.192-3.818Zm-.123-.038-.19-.061-1.24 3.802.219.071 1.212-3.812Zm-.19-.061a37.848 37.848 0 0 0-.098-.033l-1.256 3.798.114.037 1.24-3.802Zm-.098-.033-.071-.024-1.267 3.795.082.027 1.256-3.798Zm-.071-.024c-.087-.028-.173-.058-.26-.088l-1.306 3.781.299.101 1.267-3.794Zm-.138-.041.006.002-.002-.001-.006-.002-1.55 3.687-.006-.002.002.001.006.002 1.55-3.687Zm.004.002a.023.023 0 0 0-.005-.003l-.008-.003-1.563 3.682.005.002.008.003 1.563-3.681Zm-.013-.006-.163-.069-1.568 3.68.167.071 1.564-3.682Zm-.163-.069c-5.843-2.49-11.566-5.348-15.033-8.737l-2.796 2.86c4.063 3.972 10.436 7.074 16.261 9.557l1.568-3.68Zm-15.033-8.737a.014.014 0 0 0-.004-.004l-2.797 2.86a.026.026 0 0 1 .005.005l2.796-2.861Zm0 .001a1.978 1.978 0 0 0-.56-.389c-.05-.024-.09-.04-.1-.044a.261.261 0 0 0 .014.006l-1.516 3.702a.222.222 0 0 0 .016.006 1.99 1.99 0 0 1-.66-.431l2.807-2.85Zm-.658-.432c.014.006.546.19.916.744l-3.326 2.222c.37.555.903.74.918.746l1.492-3.712Zm.674.448.003.003v-.001a.016.016 0 0 0-.004-.003l-2.844 2.813-.003-.003.005.005 2.843-2.814Zm0 0a5.308 5.308 0 0 1-.062-.063l-2.849 2.808.064.065 2.848-2.81Zm-.063-.064-.009-.009-2.848 2.809a.09.09 0 0 1 .01.009l2.847-2.809Zm-.008-.008c-.614-.623-.964-.991-1.19-1.274-.2-.248-.23-.342-.244-.386l-3.817 1.197c.394 1.257 1.31 2.163 2.402 3.27l2.849-2.807Zm-1.434-1.661v-.001l-3.821 1.184.004.015 3.817-1.198Zm.024.086.001.003-3.88.973.009.034 3.87-1.01Zm.001.005-3.883.959.003.011 3.88-.97Zm0-.001v.003l-3.886.945.003.013 3.883-.961Zm0 .002c.02.08-.034-.078.158-.537.175-.416.485-.908.901-1.376l-2.989-2.658c-.661.744-1.229 1.602-1.6 2.487-.354.842-.622 1.935-.356 3.03l3.887-.946Zm1.057-1.911.004-.004.001-.001v-.001l-.004.005-2.984-2.663-.004.004-.002.002.004-.004 2.985 2.662Zm.003-.003a6.868 6.868 0 0 1 1.323-1.159l-2.17-3.36a10.834 10.834 0 0 0-2.141 1.86l2.988 2.659Zm1.327-1.161-.005.003.002-.001.005-.004-2.177-3.355.005-.003-.002.001a.025.025 0 0 1-.005.003l2.177 3.356Zm-.002.001c.158-.102.303-.17.4-.208.05-.019.073-.025.067-.023a.676.676 0 0 1-.138.022 1.381 1.381 0 0 1-.14.009l-.06-4c-.458.007-.905.159-1.17.261a6.288 6.288 0 0 0-1.128.578l2.169 3.361Zm.187-.2h-.024v-4h-.034l.058 4Zm-.091-.001-.033-.002.215-3.994-.048-.002-.134 3.998Zm-.031-.002a1.12 1.12 0 0 1-.063-.004l.372-3.983a2.788 2.788 0 0 0-.098-.007l-.211 3.994Zm-.06-.004a4.357 4.357 0 0 1-.032-.003l.45-3.975-.051-.005-.368 3.983Zm-.033-.003c-.228-.026-.322-.092-.19-.03.086.041.224.115.412.232.373.231.842.567 1.327.961l2.521-3.106a17.655 17.655 0 0 0-1.738-1.254 8.295 8.295 0 0 0-.82-.453 3.48 3.48 0 0 0-1.06-.325l-.452 3.975Zm1.545 1.159.007.006-.003-.003 2.527-3.1-.004-.004-.001-.001.004.004-2.53 3.098Zm.007.006.428.351 2.546-3.085-.453-.372-2.521 3.106Zm.428.351c.879.725 2.167 1.824 3.66 2.309l1.236-3.805c-.627-.203-1.309-.73-2.35-1.589l-2.546 3.085Zm3.658 2.308.018.006 1.223-3.809h-.002l-1.239 3.803Zm-.03-.01.01.003 1.32-3.776-.011-.003-1.319 3.776Zm.01.004.094.032 1.286-3.788a3.138 3.138 0 0 0-.061-.021l-1.318 3.777Zm.094.032a.284.284 0 0 1 .02.006l1.28-3.789-.014-.005-1.286 3.788Zm.02.006c4.716 1.594 8.732-.337 10.954-3.7l-3.338-2.204c-1.326 2.007-3.515 3.068-6.336 2.115l-1.28 3.789Zm10.953-3.699a.024.024 0 0 0 .003-.005v.001l-3.337-2.207a.018.018 0 0 1-.003.005c0 .001 0 .001 0 0l3.337 2.206Zm.074-.121.002-.002-3.48-1.973-.001.002 3.48 1.973Zm-.065.107c1.392-2.126 2.06-4.608 2.836-8.114l-3.905-.864c-.786 3.55-1.336 5.349-2.277 6.786l3.346 2.192Zm2.836-8.114.004-.018-3.905-.864-.004.018 3.905.864Zm.008-.034c.017-.083.032-.169.042-.258l-3.975-.454c.005-.042.012-.083.02-.121l3.913.833Zm.04-.242.006-.049-3.97-.486-.007.049 3.97.486Zm.006-.049.035-.289-3.97-.486-.036.289 3.97.486Zm.035-.289c2.13-17.388 4.321-34.532 17.025-45.372l-2.597-3.043C77.753 73.519 75.533 92.409 73.45 109.42l3.97.486Zm17.025-45.372.016-.014-2.595-3.044-.018.015 2.597 3.043Zm.016-.014.01-.008-2.594-3.045-.011.01 2.595 3.043Zm.009-.007.005-.004.003-.003-2.593-3.046-.004.004a.068.068 0 0 0-.004.002l2.593 3.047Zm-.065.052.003-.002a.12.12 0 0 0 .004-.003l-2.447-3.165-.002.002a.123.123 0 0 1-.004.003l2.446 3.165Zm-21.814 73.44.294.076.975-3.88a12.402 12.402 0 0 1-.258-.066l-1.01 3.87Zm1.012.116c.165-.117.332-.225.5-.322l-2.013-3.457c-.276.16-.544.334-.804.519l2.317 3.26Zm-.17.126c.056-.043.113-.085.17-.126l-2.317-3.26c-.09.064-.18.13-.269.197l2.415 3.189Zm-3.954 9.645c-.241-4.06 1.546-7.822 3.953-9.645l-2.415-3.189c-3.601 2.727-5.841 7.848-5.531 13.071l3.993-.237Zm0-.001v-.001l-3.993.241v.001l3.993-.241Zm5.857 9.887c-3.598-2.337-5.674-6.809-5.857-9.886l-3.993.238c.25 4.207 2.897 9.901 7.67 13.002l2.18-3.354Zm.466.286a10.64 10.64 0 0 1-.466-.286l-2.18 3.354c.212.138.427.27.647.397l2-3.465Zm.605.322a10.425 10.425 0 0 1-.605-.322l-1.999 3.465c.276.158.558.309.847.45l1.757-3.593Zm.896.383a9.658 9.658 0 0 1-.896-.383l-1.757 3.593c.41.201.833.382 1.27.543l1.383-3.753Zm.5.169a9.291 9.291 0 0 1-.5-.169l-1.384 3.753c.234.087.472.167.714.241l1.17-3.825Zm.162.048a47.852 47.852 0 0 1-.162-.048l-1.17 3.825.23.068 1.102-3.845Zm.005.001h-.002v-.001h-.003l-1.1 3.845v.001h.003v.001h.002l1.1-3.846Zm.767.184a9.051 9.051 0 0 1-.767-.184l-1.1 3.846c.358.102.724.191 1.097.264l.77-3.926Zm.707.111a8.923 8.923 0 0 1-.707-.111l-.77 3.926c.33.064.666.117 1.007.158l.47-3.973Zm.735.059c-.25-.01-.495-.03-.735-.059l-.47 3.973c.341.04.687.068 1.038.082l.167-3.996Zm-1.156.31a10.723 10.723 0 0 0-2.037 1.687l2.905 2.749c.386-.407.81-.763 1.277-1.06l-2.145-3.376Zm.789 4.521a1.57 1.57 0 0 1 .068-.073l-2.883-2.773a6.409 6.409 0 0 0-.19.206l3.005 2.64Zm-2.983-2.665-.039.043 2.974 2.675.025-.028-2.96-2.69Zm-.039.043.003-.003-.001.001a.014.014 0 0 1-.003.003l2.973 2.676-.002.003v-.002l.003-.002-2.973-2.676Zm-.002.002-.002.002v.001l.001-.002 2.975 2.674.003-.003v-.001l-.002.003-2.975-2.674Zm1.39 3.336h.015-.01l.192-3.996h-.012.01l-.192 3.996Zm1.648-.734a.163.163 0 0 1-.012.015l-.002.003-3.005-2.64a2.783 2.783 0 0 0-.08.094l3.1 2.528Zm-2.84-2.816a11.33 11.33 0 0 0-.157.169l2.96 2.69.102-.11-2.906-2.749Zm2.894 2.761c.263-.273.796-.766 1.268-1.057l-2.099-3.405c-.886.546-1.688 1.31-2.052 1.689l2.883 2.773Zm.303-4.758h-.004l-.167 3.996.002.001h.001l.168-3.997Zm-1.157.309-.004.002 2.148 3.374-2.144-3.376Zm.001-.001h-.001l2.144 3.377h.001v-.001l-2.144-3.376Zm1.952-.967c-.7.26-1.351.585-1.951.966l2.143 3.378a6.341 6.341 0 0 1 1.197-.593l-1.389-3.751Zm.188-.067-.188.067 1.39 3.751.116-.042-1.318-3.776Zm.082-.029-.077.027 1.308 3.78.077-.027-1.308-3.78Zm.064-.022-.064.022 1.309 3.78.064-.022-1.309-3.78Zm.935-.096-.149-.01-.264 3.992.149.01.264-3.992Zm.19.014-.175-.013-.294 3.989.165.013.304-3.989Zm3.438.349a70.942 70.942 0 0 0-3.438-.349l-.304 3.989c1.127.086 2.203.198 3.242.329l.5-3.969Zm1.957.272a86.214 86.214 0 0 0-1.957-.272l-.5 3.969c.633.08 1.252.166 1.862.258l.595-3.955Zm.864.134a66.623 66.623 0 0 0-.864-.134l-.595 3.955c.278.042.554.085.828.129l.63-3.95Zm-2.42 2.522c.176.239.36.477.553.715l3.103-2.525a14.513 14.513 0 0 1-.437-.564l-3.22 2.374Zm-1.18-1.814c.344.605.735 1.211 1.18 1.814l3.219-2.374a14.07 14.07 0 0 1-.919-1.413l-3.48 1.973Zm-2.31-11.043c-.072 2.274-.227 6.569 2.31 11.043l3.48-1.973c-1.945-3.43-1.862-6.73-1.792-8.944l-3.998-.126Zm.02-.848c0 .226-.009.497-.02.848l3.998.126c.01-.332.021-.672.021-.974h-4Zm0 0h4-4Zm3.514-10.176c-2.196 2.696-3.515 6.135-3.515 10.176h4c0-3.125 1.004-5.671 2.616-7.65l-3.101-2.526Zm1.604-1.7a16.259 16.259 0 0 0-1.604 1.7l3.101 2.526c.37-.453.773-.88 1.208-1.278l-2.705-2.948Zm.8-.689c-.273.221-.54.451-.8.689l2.705 2.947c.197-.18.4-.356.61-.525l-2.514-3.111Zm.389 3.598.964-.045-.19-3.995-.957.044.183 3.996Zm-2.115.087c.707-.025 1.412-.055 2.115-.087l-.183-3.996c-.695.032-1.385.061-2.073.085l.141 3.998Zm-14.114-1.093c4.795 1.205 9.534 1.254 14.114 1.093l-.14-3.998c-4.486.159-8.766.089-12.999-.975l-.975 3.88Zm31.265-7.458a25.686 25.686 0 0 0-4.105.007l.327 3.986a21.818 21.818 0 0 1 3.468-.005l.31-3.988Zm.386-.981a4 4 0 0 0-2.368 2.162l3.654 1.627.001-.001-1.287-3.788Zm2.123-1.438c-.158.355-.704.957-2.123 1.438l1.287 3.788c1.928-.655 3.691-1.798 4.492-3.603l-3.656-1.623Zm14.444-42.979a15.22 15.22 0 0 0-.033-.085l-3.705 1.508-.016-.04 3.754-1.383Zm-.033-.085a2.717 2.717 0 0 0-2.464-1.692l-.077 4a1.283 1.283 0 0 1-1.164-.8l3.705-1.508Zm-.63-.395h-.001l-3.744 1.405v.001l3.745-1.406Zm-1.834-1.297a2.71 2.71 0 0 0-1.888.712l2.703 2.948a1.291 1.291 0 0 1-.893.339l.078-4Zm-1.888.712-.006.006 2.712 2.94-.003.002-2.703-2.948Zm-.006.006a2.713 2.713 0 0 0-.706 2.942l3.749-1.394c.196.527.018 1.07-.331 1.392l-2.712-2.94Zm-.706 2.942.027.069 3.71-1.495.012.032-3.749 1.394Zm1.882-.678-1.867.716.001.003.004.012.019.048.072.19c.063.167.153.408.262.705l3.754-1.382a84.574 84.574 0 0 0-.273-.732l-.076-.203a4.093 4.093 0 0 0-.021-.053l-.005-.015-.002-.004v-.001h-.001l-1.867.716Zm-1.509 1.674.004.011 3.754-1.381-.004-.012-3.754 1.382Zm.004.011a.3.3 0 0 0 .01.026l3.754-1.38-.01-.027-3.754 1.381Zm.01.026.098.27 3.758-1.371-.102-.28-3.754 1.381Zm.098.27c.493 1.351 1.23 3.45 1.671 5.068l3.859-1.053c-.489-1.792-1.275-4.025-1.772-5.386l-3.758 1.37Zm1.671 5.068h.001v.002l3.859-1.053-.001-.002-3.859 1.053Zm.001.002.087.327 3.874-.997a48.396 48.396 0 0 0-.102-.383l-3.859 1.052Zm.079.297 3.889-.936-3.889.936Zm0 0 .002.007 3.889-.937-.002-.006-3.889.937Zm.014.055.002.008 3.865-1.033a.764.764 0 0 1-.003-.008l-3.864 1.033Zm.002.008c.911 3.408 1.364 6.901 1.833 10.54l3.967-.511c-.463-3.596-.944-7.353-1.935-11.062l-3.865 1.033Zm1.833 10.54c.435 3.378.884 6.886 1.754 10.34l3.879-.977c-.802-3.185-1.226-6.457-1.666-9.874l-3.967.511Zm1.754 10.34v.001l.001.002 3.878-.978v-.001l-3.879.976Zm0 .002a.003.003 0 0 1 .001.002v.001l3.879-.976v-.002l-.001-.001-3.879.976Zm.001.003.096.374 3.87-1.01-.087-.341-3.879.977Zm.096.374.001.002v.003l3.87-1.011v-.002l-.001-.003-3.87 1.011Zm.013.049.002.006 3.846-1.099-.002-.006-3.846 1.099Zm-.006-.022.002.006 3.862-1.043a.014.014 0 0 1-.002-.006l-3.862 1.043Zm.002.006.017.062 3.861-1.044-.016-.061-3.862 1.043Zm.017.062c.932 3.45 2.108 7.674 4.061 10.457l3.275-2.297c-1.469-2.094-2.492-5.565-3.475-9.204l-3.861 1.044Zm4.061 10.457.012.018 3.271-2.304a.044.044 0 0 1-.008-.011l-3.275 2.297Zm-.008-.012c.026.038.054.078.085.119l3.183-2.423c.017.022.031.042.043.06l-3.311 2.244Zm.102.14.016.02 3.146-2.469a.192.192 0 0 0-.013-.017l-3.149 2.466Zm.016.02c7.765 9.895 23.448 10.123 32.236 2.096l-2.697-2.953c-7.265 6.635-20.222 6.251-26.393-1.612l-3.146 2.469Zm32.237 2.096.015-.014-2.701-2.95a.075.075 0 0 1-.013.011l2.699 2.953Zm-.035.03c.029-.024.052-.045.065-.057l.023-.022-2.747-2.908.008-.007.049-.044 2.602 3.038Zm.088-.079.003-.003-2.747-2.907-.003.002 2.747 2.908Zm.031-.03h.001v-.001h.001v-.001h.001v-.001h.001v-.001h.001v-.001h.001v-.001l-2.803-2.853h-.001v.001h-.001v.001h-.001v.001h-.001v.001h-.001v.001h-.001v.001l2.803 2.853Zm.007-.006c2.088-2.052 3.682-4.346 4.772-7.068l-3.714-1.487c-.865 2.161-2.129 3.999-3.862 5.702l2.804 2.853Zm4.772-7.068c.142-.357.276-.719.401-1.089l-3.79-1.279c-.102.301-.21.594-.325.881l3.714 1.487Zm.403-1.096-.003.008v.002-.001l.001-.002a.03.03 0 0 1 .002-.008l-3.794-1.265.002-.008.001-.003v.001l-.001.002a.023.023 0 0 1-.003.009l3.795 1.265Zm-.022.063c.015-.04.029-.082.043-.124l-3.808-1.225a.472.472 0 0 1 .016-.045l3.749 1.394Zm.043-.124a2.678 2.678 0 0 0-.229-2.193 2.745 2.745 0 0 0-1.49-1.201 2.748 2.748 0 0 0-1.912.049 2.675 2.675 0 0 0-1.514 1.6l3.767 1.345a1.329 1.329 0 0 1-.748.761c-.336.136-.648.11-.874.034a1.255 1.255 0 0 1-.677-.56 1.33 1.33 0 0 1-.131-1.061l3.808 1.226Zm-5.145-1.745c-.016.043-.03.086-.043.129l3.825 1.169a.507.507 0 0 1-.015.047l-3.767-1.345Zm-.045.136.002-.008.001-.002v.001l-.001.002-.002.008 3.829 1.156-.002.008-.001.002.001-.003.002-.008-3.829-1.156Zm.019-.06c-.097.288-.2.568-.31.84l3.712 1.491c.138-.344.267-.695.388-1.052l-3.79-1.279Zm-.31.84c-.779 1.941-1.897 3.571-3.482 5.138l2.812 2.845c1.933-1.911 3.378-3.991 4.382-6.492l-3.712-1.491Zm-3.482 5.138-.029.028 2.807 2.85.034-.034-2.812-2.844Zm-.028.027-.003.003.001-.001 2.805 2.852.003-.003-.001.001-2.805-2.852Zm-.002.003-.012.011 2.804 2.852.013-.012-2.805-2.851Zm.042-.04a.014.014 0 0 1-.004.003l-.003.003 2.698 2.954.003-.003.003-.003-2.697-2.954Zm-.006.005c-3.238 2.956-7.894 4.433-12.517 4.212-4.616-.22-8.982-2.119-11.753-5.63l-3.14 2.478c3.622 4.59 9.165 6.883 14.702 7.148 5.53.264 11.272-1.482 15.404-5.253l-2.696-2.955Zm-24.27-1.418-.013-.017-3.145 2.472a.461.461 0 0 0 .018.023l3.14-2.478Zm-.013-.017-.009-.011-3.146 2.47.01.013 3.145-2.472Zm.054.073.002.004-3.278 2.292.005.007 3.271-2.303Zm.001.002-.009-.012-3.281 2.288.014.02 3.276-2.296Zm-.009-.012c-.575-.825-1.156-2.097-1.728-3.701-.562-1.577-1.071-3.348-1.544-5.101l-3.862 1.043c.48 1.779 1.022 3.672 1.638 5.401.607 1.702 1.33 3.377 2.215 4.646l3.281-2.288Zm-3.203-8.28v-.001h-4v.001h4Zm0-.001v-.002h-4v.002h4Zm-.096-.613a1.99 1.99 0 0 0-.324-.615c-.037-.048-.069-.084-.086-.104l-.022-.024-.006-.006-.002-.002-2.93 2.723-.002-.003-.006-.006-.021-.023c-.017-.02-.049-.056-.086-.104a1.99 1.99 0 0 1-.324-.614l3.809-1.222Zm-.439-.75c-.024-.027.08.08.175.217.086.123.358.535.358 1.142h-4c0 .607.273 1.019.359 1.143.096.138.2.244.176.218l2.932-2.72Zm.469.855-.001-.002v.001l-3.871 1.007a.003.003 0 0 1 .001.002c0 .001 0 0 0 0l3.871-1.008Zm-.001-.003-.005-.019-3.871 1.008a.658.658 0 0 0 .006.022l3.87-1.011Zm-.005-.018-.001-.004v-.002l-3.871 1.007v.004l.001.002 3.871-1.007Zm-.001-.006c-.809-3.107-1.231-6.363-1.678-9.835l-3.967.51c.441 3.426.89 6.938 1.774 10.332l3.871-1.007Zm-1.678-9.835c-.47-3.649-.965-7.521-2-11.402l-3.865 1.03c.956 3.584 1.423 7.195 1.898 10.882l3.967-.51Zm-2-11.402-.002-.007-3.865 1.031a.017.017 0 0 1 .002.007l3.865-1.03Zm-.002-.007-.005-.02-3.865 1.033.005.018 3.865-1.03Zm.063.496v-.001h-4v.001h4Zm-.063-.498-3.875.993 3.875-.993Zm-.001-.002-.001-.007-3.874.998.002.006 3.873-.997Zm-.001-.007c-.542-2.104-1.516-4.824-2.036-6.233l-3.752 1.387c.521 1.409 1.428 3.959 1.914 5.844l3.874-.998Zm-2.036-6.233a84.622 84.622 0 0 0-.381-1.011l-.001-.005-.001-.001v-.002l-.001-.002-.002-.004c-.002-.004-.739-.926-1.862-1.271v4c-1.124-.346-1.861-1.267-1.863-1.272l-.001-.004-.001-.002h-.001c0-.001 0-.001 0 0l.001.002.005.011.018.049.073.19.265.709 3.752-1.387Zm-.371-.985-.001-.004-3.754 1.383v-.002l3.755-1.377Zm-2.594-1.18-.071.027 1.432 3.735.071-.027-1.432-3.735Zm-.071.027-.602.231 1.432 3.735.602-.23-1.432-3.736Zm.83 3.966.601-.23-1.432-3.735-.601.23 1.432 3.735Zm.601-.23.072-.028-1.432-3.735-.072.028 1.432 3.735Zm-2.033-3.505a.37.37 0 0 0-.028.011h-.002v.001l.007-.003.023-.009 1.432 3.735.022-.009a.052.052 0 0 0 .006-.002h.002l-.007.002-.023.009-1.432-3.735Zm2.715 1.915-3.999-.095 3.999.095Zm-1.283 1.82-1.432-3.735 1.432 3.735ZM94.34 103.503c0-6.529 4.175-10.53 7.903-10.53v-4c-6.639 0-11.903 6.567-11.903 14.53h4Zm7.903 10.53c-3.727 0-7.903-4-7.903-10.53h-4c0 7.964 5.264 14.53 11.903 14.53v-4Zm7.902-10.53c0 6.53-4.175 10.53-7.902 10.53v4c6.639 0 11.902-6.566 11.902-14.53h-4Zm-7.902-10.53c3.727 0 7.902 4 7.902 10.53h4c0-7.963-5.263-14.53-11.902-14.53v4Zm0-6c-8.13 0-13.903 7.893-13.903 16.53h4c0-7.246 4.72-12.53 9.903-12.53v-4Zm13.902 16.53c0-8.636-5.772-16.53-13.902-16.53v4c5.183 0 9.902 5.284 9.902 12.53h4Zm-13.902 16.53c8.13 0 13.902-7.892 13.902-16.53h-4c0 7.247-4.719 12.53-9.902 12.53v4Zm-13.903-16.53c0 8.638 5.773 16.53 13.903 16.53v-4c-5.183 0-9.903-5.283-9.903-12.53h-4Zm12.388-10.917c.493-.12 1-.181 1.515-.181v-4c-.839 0-1.661.1-2.457.294l.942 3.887Zm-6.617 7.815c.944-4.215 3.666-7.1 6.617-7.815l-.942-3.887c-4.783 1.159-8.389 5.516-9.578 10.828l3.903.874Zm-.338 3.102c0-1.083.12-2.123.338-3.102l-3.903-.874a18.199 18.199 0 0 0-.435 3.976h4Zm.294 2.876a14.157 14.157 0 0 1-.294-2.876h-4c0 1.277.133 2.51.377 3.688l3.917-.812Zm0 0-3.917.812v.001l3.917-.813Zm.098.435a13.591 13.591 0 0 1-.098-.434l-3.917.811c.04.188.081.375.126.559l3.889-.936Zm-3.959-.017c.001.195.007.391.016.586l3.996-.201a9.153 9.153 0 0 1-.012-.409l-4 .024Zm.583-3.888a13.034 13.034 0 0 0-.583 3.876h4c0-.951.143-1.856.402-2.687l-3.82-1.189Zm1.597-3.296a12.133 12.133 0 0 0-1.597 3.296l3.82 1.189a8.136 8.136 0 0 1 1.067-2.209l-3.29-2.275Zm8.069-4.446c-3.355 0-6.246 1.811-8.07 4.447l3.29 2.275c1.202-1.736 2.943-2.722 4.78-2.722v-4Zm10.25 11.618c0-6.117-4.312-11.618-10.25-11.618v4c3.175 0 6.25 3.112 6.25 7.618h4Zm-2.05 6.977c1.298-1.959 2.049-4.381 2.05-6.977l-4-.001c0 1.827-.53 3.478-1.385 4.768l3.335 2.21Zm-5.913 4.348c2.457-.633 4.516-2.241 5.913-4.348l-3.335-2.21c-.924 1.394-2.198 2.33-3.576 2.685l.998 3.873Zm-2.26.29a9.162 9.162 0 0 0 2.26-.29l-.998-3.873a5.22 5.22 0 0 1-1.274.163l.012 4Zm1.761-3.798c-.428 0-.871-.055-1.346-.158l-.841 3.911c.679.146 1.411.247 2.187.247v-4Zm4.867-2.044c-1.434 1.33-3.125 2.044-4.867 2.044v4c2.888 0 5.52-1.194 7.587-3.111l-2.72-2.933Zm3.601-9.055c0 3.846-1.49 7.098-3.601 9.055l2.72 2.933c3.008-2.789 4.881-7.144 4.881-11.988h-4Zm-8.468-11.098c4.215 0 8.468 4.465 8.468 11.098h4c0-8-5.286-15.098-12.468-15.098v4Zm6.468 11.098c0 .518-.029 1.017-.085 1.497l3.973.464c.074-.635.112-1.29.112-1.961h-4Zm-6.468-9.098c2.752 0 6.468 3.173 6.468 9.098h4c0-7.342-4.791-13.098-10.468-13.098v4Zm-4.857 3.144c1.357-2.128 3.245-3.144 4.857-3.144v-4c-3.284 0-6.32 1.997-8.23 4.995l3.373 2.15Zm3.069-4.382c-2.124 0-4.083.582-5.776 1.588l2.041 3.44a7.243 7.243 0 0 1 3.735-1.028v-4Zm0 0v4-4Zm12.143 11.827c-.744-6.194-5.445-11.827-12.142-11.827l-.001 4c4.163 0 7.603 3.568 8.171 8.304l3.972-.477Zm-8.068 19.466h.003l.152-3.997h-.006l-.149 3.997Zm-1.539.136a6.938 6.938 0 0 1 1.539-.136l.149-3.997a10.91 10.91 0 0 0-2.438.204l.75 3.929Zm-1.692.471c.529-.191 1.109-.36 1.692-.471l-.75-3.929a15.17 15.17 0 0 0-2.301.638l1.359 3.762Zm-.395.142.395-.142-1.36-3.762-.395.143 1.36 3.761Zm-5.984 1.613c2.127-.207 3.573-.74 5.984-1.613l-1.36-3.761c-2.47.894-3.46 1.242-5.011 1.393l.387 3.981Zm-.273.024c.092-.007.183-.016.273-.024l-.387-3.981-.215.019.329 3.986Zm-.166.007h.001v-4h-.001v4Zm-1.7.013c.556.017 1.161.037 1.86-.019l-.321-3.987c-.448.036-.84.025-1.417.008l-.122 3.998Zm-.427-.012.427.012.122-3.998-.454-.013-.094 3.999Zm2.98-1.076c-.418-.63-.82-1.283-1.212-1.943l-3.44 2.039a48.23 48.23 0 0 0 1.319 2.116l3.333-2.212Zm4.442 4.513c-1.501-.676-2.976-2.305-4.442-4.513L92 127.99c1.526 2.299 3.528 4.775 6.132 5.948l1.644-3.647Zm3.003.338c-1.167.079-2.284-.031-3.04-.354l-1.57 3.679c1.587.677 3.428.765 4.88.666l-.27-3.991Zm4.399-2.2c-.155.352-.61.852-1.52 1.325-.873.454-1.95.768-2.969.884l.45 3.974c1.459-.165 3.017-.608 4.366-1.31 1.311-.682 2.664-1.737 3.334-3.262l-3.661-1.611Zm-.12-2.472c.117.304.218.807.234 1.366.016.578-.065.985-.133 1.152l3.7 1.519c.362-.882.456-1.91.431-2.785-.025-.894-.182-1.864-.499-2.688l-3.733 1.436Zm-1.906-1.429c.776.144 1.422.483 1.984 1.606l3.577-1.79c-1.146-2.292-2.878-3.386-4.832-3.749l-.729 3.933Zm-.002 0h.002l.729-3.933-.006-.001-.725 3.934Zm-.225-.035c.078.01.153.022.225.035l.725-3.934a8.384 8.384 0 0 0-.432-.067l-.518 3.966Zm-.391-.032c.14.005.271.016.392.032l.517-3.967a8.546 8.546 0 0 0-.75-.062l-.159 3.997Zm-.003 0h.003l.159-3.997h-.006l-.156 3.997Zm-.001 0 .158-3.997-.158 3.997Zm-1.909-2.218v.001l3.976.437v-.001l-3.976-.437Zm1.912 2.217h.001l.15-3.997-.151 3.997Zm-2.555 2.488c.916-.331 1.813-.51 2.461-.49l.127-3.998c-1.344-.043-2.776.303-3.947.726l1.359 3.762Zm-.472.171.472-.171-1.359-3.762-.475.172 1.362 3.761Zm-5.22 1.541c1.797-.295 3.29-.843 5.22-1.541l-1.362-3.761c-1.993.722-3.137 1.13-4.507 1.355l.648 3.947Zm2.12-2.082a18.484 18.484 0 0 1-.822-1.061l-3.245 2.339c.32.445.655.879 1.002 1.293l3.064-2.571Zm2.182 1.885c-.559-.254-1.294-.826-2.183-1.885l-3.064 2.571c1.079 1.286 2.268 2.352 3.587 2.954l1.66-3.64Zm2.018.174c-.998.063-1.736-.056-2.075-.199l-1.547 3.689c1.151.483 2.593.583 3.876.501l-.254-3.991Zm2.129-.657c-.625.325-1.448.573-2.238.666l.472 3.973c1.222-.145 2.517-.521 3.612-1.091l-1.846-3.548Zm.622-.377c.058-.124.089-.119-.019-.02a2.955 2.955 0 0 1-.603.397l1.846 3.548c1.094-.569 1.973-1.323 2.396-2.224l-3.62-1.701Zm-.064-.223a2.489 2.489 0 0 1-.027.458c-.002.008.005-.023.027-.084l3.748 1.399c.187-.501.27-1.177.25-1.887l-3.998.114Zm-.1-.701c.011.033.035.119.057.254.022.13.038.284.043.447l3.998-.114a6.636 6.636 0 0 0-.308-1.865l-3.79 1.278Zm-.161-.109c.003.002.026.017.069.066.045.052.121.153.217.335l3.54-1.862c-.45-.855-.987-1.448-1.586-1.853l-2.24 3.314Zm-.365-.094c.153.02.245.045.296.063a.268.268 0 0 1 .069.031l2.24-3.314c-.631-.427-1.335-.648-2.087-.746l-.518 3.966Zm-.271-.019.056.002.157-3.997-.213 3.995Zm.056.002c.089.004.16.01.215.017l.517-3.966a6.397 6.397 0 0 0-.575-.048l-.157 3.997Z" mask="url(#b)"/><path fill="#83868C" fill-rule="evenodd" d="m84.801 147.991-2.772-9.768-9.784-.162-1.59 1.587 4.685 17.457 11.418.98-1.304-4.64-.653-5.454Z" clip-rule="evenodd"/><path stroke="#56595B" stroke-width="3" d="m84.801 147.991-2.772-9.768-9.784-.162-1.59 1.587 4.685 17.457 11.418.98c-1.354-3.245-1.574-6.643-1.957-10.094Z" clip-rule="evenodd"/><path fill="#56595B" fill-rule="evenodd" d="M100 117c4.971 0 9-4.701 9-10.5S104.971 96 100 96c-4.97 0-9 4.701-9 10.5s4.03 10.5 9 10.5Zm-9 21a1 1 0 1 0 0-2 1 1 0 0 0 0 2Zm13.5-3a1.5 1.5 0 1 0-.001-3.001A1.5 1.5 0 0 0 104.5 135Zm-4.5 0a1 1 0 1 0 0-2 1 1 0 0 0 0 2Zm-11 28a1 1 0 1 0 0-2 1 1 0 0 0 0 2Zm-12 0a1 1 0 1 0 0-2 1 1 0 0 0 0 2Z" clip-rule="evenodd"/></g></svg>