<svg xmlns="http://www.w3.org/2000/svg" width="192" height="192" fill="none"><path fill="#FF837D" fill-rule="evenodd" d="M35 67.31s4.188-8.041 4.65-12.039c.461-3.997-2.325-8.095-2.325-8.095s21.92-15.86 43.36-11.06c21.438 4.798 37.324 29.119 37.324 29.119s28.526-4.36 45.224 11.84c16.697 16.2 9.979 40.472 9.979 40.472s8.359 4.487 10.287 16.096c1.928 11.61-3.569 24.358-3.569 24.358s-.178-14.274-4.596-23.065c-4.417-8.791-14.747-15.429-14.747-15.429s7.316-24.775-5.202-38.516-40.687-11.859-40.687-11.859-15.225-18.266-36.277-18.748C57.37 49.905 35 67.31 35 67.31ZM89.923 157s1.31-11.791 0-19.386C88.613 130.02 84 122.639 84 122.639s9.55-8.082 17.594-8.082c8.045 0 15.464 6.921 15.464 6.921s17.95-14.513 33.548-4.179c15.598 10.333 5.297 39.702 5.297 39.702s2.05-25.433-11.238-31.95c-13.287-6.518-30.485 8.979-30.485 8.979s-6.688-5.411-9.074-6.398c-2.384-.986-8.249 0-8.249 0s2.509 7.304 0 15.685c-2.508 8.381-6.934 13.684-6.934 13.684Zm-27.669-37.929C76.39 125.611 73.668 157 73.668 157s13.545-28.516 2.067-41.759c-11.48-13.243-38.848-6.103-38.848-6.103L23.966 71.347s6.586-6.75 6.202-17.885C29.784 42.327 11 37 11 37s11.805 7.5 11.805 15.176C22.805 59.854 11 67.914 11 67.914l14.088 60.571s23.03-15.953 37.166-9.413Z" clip-rule="evenodd"/></svg>