<svg xmlns="http://www.w3.org/2000/svg" width="192" height="192" fill="none"><rect width="152" height="152" x="20" y="20" fill="#4A4A4A" rx="10"/><rect width="98" height="82.25" x="48" y="57.75" fill="#9ABEFF" rx="10"/><path stroke="#9ABEFF" stroke-linecap="round" stroke-width="5" d="m83.192 46.352 14.789 14.776 15.675-14.776"/><path fill="#fff" fill-rule="evenodd" d="M99.093 117.985c-.004 3.433-3.388 5.842-6.633 4.721l-.387-.134a5 5 0 0 1-3.368-4.719l-.058-37.965c-.005-3.316 3.16-5.718 6.352-4.821l6.882 1.932c8.477 2.42 13.664 7.124 13.58 15.368-.084 9.588-4.513 13.307-12.014 9.801V84.391c0-2.622-4.32-4.537-4.32-.525l-.034 34.119ZM69.86 108.48c-.306.142-.607.278-.902.411-2.764 1.252-4.934 2.234-4.949 4.394.08 3.024 4.791 4.496 11.69 5.655 3.677.741 7.258.385 8.293-.111a2.71 2.71 0 0 1 .269-.113c1.055-.383 2.087-1.209 2.088-2.332 0-1.735-1.731-2.94-3.366-2.358-1.672.594-3.453 1.201-4.013 1.299-1.143.2-2.716.205-2.716.205-2.13-.012-3.273-1.605-1.152-2.34l10.086-3.84a2.068 2.068 0 0 0 1.332-1.932c.001-2.383-2.36-4.048-4.605-3.246L69.86 108.48Zm31.319.517a2.02 2.02 0 0 1 1.498-1.966c2.556-.675 7.765-1.948 10.679-1.938a29.968 29.968 0 0 1 2.881.153c7.756.827 12.75 2.776 13.351 6.116-.008 2.157-3.493 3.912-5.971 4.781l-17.871 6.468c-2.227.806-4.578-.848-4.571-3.217a2.048 2.048 0 0 1 1.339-1.914l14.035-5.166c5.767-1.738 3.413-3.818-2.508-2.837l-5.685 1.818-2.542.935c-2.249.827-4.635-.837-4.635-3.233Z" clip-rule="evenodd"/></svg>