<svg xmlns="http://www.w3.org/2000/svg" width="192" height="192" fill="none"><path fill="#9ABEFF" fill-rule="evenodd" d="M134.388 46.56a21.365 21.365 0 0 0 5.296-14.113c0-11.845-9.602-21.447-21.447-21.447-11.845 0-21.447 9.602-21.447 21.447 0 5.404 1.998 10.34 5.296 14.112.557.814 1.138 1.93 1.138 3.046 0 2.145-2.145 4.29-2.145 4.29H63.895c-5.523 0-10 4.477-10 10V96c0 4.211-8.352.88-8.575.791A21.352 21.352 0 0 0 32.447 92.5C20.602 92.5 11 102.102 11 113.947c0 11.845 9.602 21.448 21.447 21.448 5.404 0 10.34-1.999 14.112-5.297.814-.557 1.93-1.137 3.046-1.137 2.145 0 4.29 2.144 4.29 2.144V164c0 5.523 4.477 10 10 10H164c5.523 0 10-4.477 10-10V63.895c0-5.523-4.477-10-10-10h-28.605s-2.145-2.145-2.145-4.29c0-1.116.581-2.232 1.138-3.046Z" clip-rule="evenodd"/><mask id="a" width="163" height="163" x="11" y="11" maskUnits="userSpaceOnUse" style="mask-type:luminance"><path fill="#fff" fill-rule="evenodd" d="M134.388 46.56a21.365 21.365 0 0 0 5.296-14.113c0-11.845-9.602-21.447-21.447-21.447-11.845 0-21.447 9.602-21.447 21.447 0 5.404 1.998 10.34 5.296 14.112.557.814 1.138 1.93 1.138 3.046 0 2.145-2.145 4.29-2.145 4.29H63.895c-5.523 0-10 4.477-10 10V96c0 4.211-8.352.88-8.575.791A21.352 21.352 0 0 0 32.447 92.5C20.602 92.5 11 102.102 11 113.947c0 11.845 9.602 21.448 21.447 21.448 5.404 0 10.34-1.999 14.112-5.297.814-.557 1.93-1.137 3.046-1.137 2.145 0 4.29 2.144 4.29 2.144V164c0 5.523 4.477 10 10 10H164c5.523 0 10-4.477 10-10V63.895c0-5.523-4.477-10-10-10h-28.605s-2.145-2.145-2.145-4.29c0-1.116.581-2.232 1.138-3.046Z" clip-rule="evenodd"/></mask><g fill-rule="evenodd" clip-rule="evenodd" mask="url(#a)"><path fill="#9ABEFF" d="m179.397.12 12.738 174.874c.405 5.55-3.8 10.362-9.354 10.707l-155.229 9.625c-5.755.357-10.619-4.214-10.619-9.981V10.119c0-5.522 4.478-10 10-10h152.464Z"/><path fill="#98DC9A" d="M16.747 9.555 138.215 128 208.242-.453H17.262l-.515 10.008Z"/><path fill="#FF837D" d="m36.115 167.915 82.557-58.642 89.57 80.037-190.794 6.754 18.667-28.149Z"/><path fill="#F9DE81" d="m208.242 189.245-12.507-91.5 18.383-67.38-95.928 79.44 90.052 79.44Z"/></g></svg>