<svg xmlns="http://www.w3.org/2000/svg" width="192" height="192" fill="none"><rect width="152" height="152" x="20" y="20" fill="#56595B" rx="10"/><path stroke="url(#a)" stroke-linecap="round" stroke-width="3" d="M76.138 131.182V63.498a2 2 0 0 1 2-2h3.496a2 2 0 0 1 2 2v65.555a2 2 0 0 0 2 2h3.51a2 2 0 0 0 2-2V63.699c0-1.042.782-1.9 1.824-1.922 7.152-.149 32.895.875 32.947 23.304.049 21.761-19.192 25.439-25.527 26.06-1.103.109-1.995-.775-1.995-1.883v-3.479c0-1.075.845-1.97 1.91-2.123 4.89-.7 17.474-3.837 17.397-17.557-.075-13.634-12.424-16.35-17.341-16.891-1.098-.121-1.987.76-1.987 1.865v3.1c0 1.105.898 2.016 1.985 2.21 3.068.551 8.62 2.538 8.707 9.716.121 9.925-10.884 9.976-10.884 9.976"/><defs><linearGradient id="a" x1="74.164" x2="145.521" y1="149.859" y2="149.859" gradientUnits="userSpaceOnUse"><stop stop-color="#FF837D"/><stop offset=".19" stop-color="#F8C18C"/><stop offset=".315" stop-color="#F9DE81"/><stop offset=".485" stop-color="#98DC9A"/><stop offset=".685" stop-color="#9ABEFF"/><stop offset=".894" stop-color="#BD9AFF"/><stop offset="1" stop-color="#FF837D"/></linearGradient></defs></svg>