<svg xmlns="http://www.w3.org/2000/svg" width="192" height="192" fill="none"><rect width="142" height="142" x="25" y="25" fill="#56595B" stroke="#D3B69A" stroke-width="10" rx="5"/><path stroke="#B1B5BD" stroke-width="10" d="M35 35h122v56H35z"/><path fill="#fff" d="M70.65 55.32c2.205-1.08 3.6-3.105 3.6-5.985 0-4.455-3.465-7.335-7.785-7.335h-10.62v27h11.61c4.275 0 7.695-2.79 7.695-7.245 0-3.285-1.845-5.445-4.5-6.435Zm-.81-5.535c0 2.115-1.755 3.78-3.87 3.78h-5.76v-7.47h5.76c2.115 0 3.87 1.53 3.87 3.69Zm-3.015 15.12H60.21v-7.47h6.615c2.16 0 3.915 1.665 3.915 3.78 0 2.115-1.755 3.69-3.915 3.69ZM96.496 42H85.921v27h4.41V57.525h6.165c4.365 0 7.785-3.33 7.785-7.695 0-4.32-3.42-7.83-7.785-7.83Zm-.63 11.7h-5.535v-7.695h5.535c2.34 0 4.095 1.53 4.095 3.87 0 2.385-1.755 3.825-4.095 3.825ZM137.488 42l-9.495 21.15-9.45-21.15h-4.725v27h4.41V50.415L126.508 69h2.925l8.37-18.63V69h4.365V42h-4.68Z"/><mask id="a" width="132" height="132" x="30" y="30" maskUnits="userSpaceOnUse" style="mask-type:luminance"><path fill="#fff" d="M30 30h132v132H30z"/></mask><g fill="#B1B5BD" fill-rule="evenodd" stroke-width="5" clip-rule="evenodd" mask="url(#a)"><path stroke="#9ABEFF" d="M96 215c29.271 0 53-23.729 53-53s-23.729-53-53-53-53 23.729-53 53 23.729 53 53 53Z"/><path stroke="#56595B" d="M96.5 192c16.292 0 29.5-13.208 29.5-29.5S112.792 133 96.5 133 67 146.208 67 162.5 80.208 192 96.5 192Z"/></g></svg>