<svg xmlns="http://www.w3.org/2000/svg" width="192" height="192" fill="none"><rect width="152" height="152" x="22" y="22" fill="#9ABEFF" rx="10"/><path fill="#fff" d="M127.92 119.6h-8.1l-7.92 2.52c8.37-4.77 13.95-13.77 13.95-24.12 0-15.3-12.33-27.72-27.72-27.72-15.3 0-27.72 12.42-27.72 27.72 0 15.3 12.42 27.72 27.72 27.72 2.16 0 4.32-.27 6.3-.72h23.49v-5.4ZM76.17 98c0-12.24 9.81-21.96 21.96-21.96 12.24 0 21.96 9.72 21.96 21.96s-9.72 21.96-21.96 21.96c-12.15 0-21.96-9.72-21.96-21.96Z"/><mask id="a" width="39" height="39" x="79" y="79" maskUnits="userSpaceOnUse" style="mask-type:luminance"><path fill="#fff" fill-rule="evenodd" d="M98.5 118c10.77 0 19.5-8.73 19.5-19.5S109.27 79 98.5 79 79 87.73 79 98.5 87.73 118 98.5 118Z" clip-rule="evenodd"/></mask><g fill="#fff" fill-rule="evenodd" clip-rule="evenodd" mask="url(#a)"><path d="m105.049 102-11.95 16.65H117L105.049 102Zm-13.394 15.635-.728 1.015h-6.504l7.79-10.866 3.255 4.54-3.813 5.311Zm.001-20.948a4.344 4.344 0 1 1 0-8.687 4.344 4.344 0 0 1 0 8.687Z"/></g></svg>