<svg xmlns="http://www.w3.org/2000/svg" width="192" height="192" fill="none"><rect width="152" height="152" x="20" y="20" fill="#9ABEFF" rx="10"/><path fill="#fff" d="M91.44 107.26h11.97v-2.61c0-6.21 12.69-2.16 12.69-17.64 0-9.63-8.28-17.46-18.72-17.46-11.88 0-20.25 9.18-18.81 20.7h11.7c-1.26-5.04 1.89-9.18 7.11-9.18 3.87 0 7.11 2.7 7.11 5.94 0 10.53-13.05 2.34-13.05 18.27v1.98Zm6.21 17.46c3.96 0 7.11-3.15 7.11-7.02 0-4.05-3.15-7.2-7.11-7.2-3.96 0-7.11 3.15-7.11 7.2 0 3.87 3.15 7.02 7.11 7.02Z"/></svg>