<svg xmlns="http://www.w3.org/2000/svg" width="192" height="192" fill="none"><rect width="152" height="152" x="20" y="20" fill="#FF837D" rx="10"/><path fill="#fff" d="M116.192 112.064c-.544-.096-3.2-.64-3.584-.704l-9.952-13.568c-.608-.832-1.28-1.504-2.048-1.952a17.709 17.709 0 0 0 4.736-1.76c1.408-.8 2.592-1.76 3.552-2.88.96-1.12 1.728-2.368 2.24-3.776.512-1.408.768-2.944.768-4.544 0-1.952-.352-3.712-.992-5.28a10.126 10.126 0 0 0-3.072-4c-1.376-1.12-3.104-1.984-5.216-2.56-2.112-.576-4.64-.864-7.52-.864h-16.96v2.752c0 .576.384 1.056.96 1.184.544.096 3.648.704 3.648.704v36.544s-3.104.608-3.648.704c-.576.128-.96.608-.96 1.184v2.784h15.392v-2.784c0-.576-.416-1.056-.96-1.184-.576-.096-3.616-.704-3.648-.704V96.864h4.096c.832 0 1.472.128 1.888.352.448.224.832.576 1.216 1.088l11.904 16.384c.512.896 1.344 1.344 2.464 1.344h6.656v-2.784c0-.576-.416-1.056-.96-1.184ZM94.816 92.352h-5.888v-17.28h6.176c3.552 0 6.24.672 8.032 2.048 1.792 1.408 2.72 3.456 2.72 6.176a9.834 9.834 0 0 1-.704 3.712 7.985 7.985 0 0 1-2.112 2.848c-.928.8-2.08 1.408-3.456 1.856-1.376.448-2.976.64-4.768.64Z"/></svg>