<svg xmlns="http://www.w3.org/2000/svg" width="192" height="192" fill="none"><path fill="#FF837D" fill-rule="evenodd" d="M96 184c48.601 0 88-39.399 88-88S144.601 8 96 8 8 47.399 8 96s39.399 88 88 88Z" clip-rule="evenodd"/><path fill="#fff" fill-rule="evenodd" d="M96.5 141c21.815 0 39.5-14.775 39.5-33s-17.685-33-39.5-33S57 89.775 57 108s17.685 33 39.5 33Z" clip-rule="evenodd"/><path fill="#fff" fill-rule="evenodd" d="M124 96c6.627 0 12-5.373 12-12s-5.373-12-12-12-12 5.373-12 12 5.373 12 12 12Zm-11.5-35a8.5 8.5 0 1 0 0-17 8.5 8.5 0 0 0 0 17Z" clip-rule="evenodd"/><path fill="#FF837D" fill-rule="evenodd" d="M80.5 109a8.5 8.5 0 1 0 0-17 8.5 8.5 0 0 0 0 17Zm31 0a8.5 8.5 0 1 0-.001-17.001A8.5 8.5 0 0 0 111.5 109Z" clip-rule="evenodd"/><path fill="#fff" fill-rule="evenodd" d="M69 96c6.627 0 12-5.373 12-12s-5.373-12-12-12-12 5.373-12 12 5.373 12 12 12Z" clip-rule="evenodd"/><path stroke="#fff" stroke-width="5" d="M96 77V53h14"/></svg>