<svg xmlns="http://www.w3.org/2000/svg" width="192" height="192" fill="none"><rect width="152" height="152" fill="#4A4A4A" rx="10" transform="matrix(1 0 0 -1 20 172)"/><path fill="#fff" d="m59.67 91.32 2.48.316-2.48-.316Zm-2.796 2.164.316-2.48-.316 2.48Zm-2.164-2.796-2.48-.316 2.48.316Zm82.58 0 2.48-.316-2.48.316Zm-3.432 2.628-.953 2.311.953-2.311Zm-10.843-4.47.952-2.31-.952 2.31Zm-1.359-3.263-2.311-.953 2.311.953Zm3.264-1.359-.953 2.311.953-2.31Zm6.576 2.71-.952 2.312a2.5 2.5 0 0 0 3.375-2.928l-2.423.617Zm.834 13.744-2.48-.316 2.48.316Zm2.796-2.164-.316 2.48.316-2.48Zm2.164 2.796 2.48.316-2.48-.316Zm-82.58 0-2.48.316 2.48-.316Zm3.432-2.627.953-2.312-.953 2.312Zm10.843 4.468-.952 2.312.952-2.312Zm1.359 3.264 2.311.953-2.311-.953Zm-3.264 1.359.953-2.311-.953 2.311Zm-6.576-2.71.952-2.312a2.502 2.502 0 0 0-3.375 2.929l2.423-.617Zm1.646-13.428C64.288 74.852 78.632 61.873 96 61.873v-5c-19.916 0-36.357 14.881-38.81 34.131l4.96.632Zm-5.592 4.328a5 5 0 0 0 5.592-4.328l-4.96-.632-.632 4.96Zm-4.328-5.592a5 5 0 0 0 4.328 5.592l.632-4.96-4.96-.632ZM96 51.873c-22.466 0-41.003 16.784-43.77 38.5l4.96.631C59.643 71.754 76.084 56.873 96 56.873v-5Zm43.77 38.5c-2.767-21.716-21.304-38.5-43.77-38.5v5c19.916 0 36.357 14.881 38.81 34.131l4.96-.632Zm-1.921 4.602a4.999 4.999 0 0 0 1.921-4.603l-4.96.632 3.039 3.97Zm-4.944.652a5 5 0 0 0 4.944-.652l-3.039-3.97-1.905 4.622Zm-10.843-4.469 10.843 4.47 1.905-4.624-10.843-4.469-1.905 4.623Zm-2.717-6.528a5 5 0 0 0 2.717 6.528l1.905-4.623-4.622-1.905Zm6.528-2.717a5 5 0 0 0-6.528 2.717l4.622 1.906 1.906-4.623Zm6.576 2.71-6.576-2.71-1.906 4.623 6.577 2.71 1.905-4.623ZM96 61.873c15.928 0 29.316 10.917 33.074 25.678l4.845-1.233C129.611 69.394 114.269 56.873 96 56.873v5Zm33.85 38.489c-2.138 16.785-16.482 29.763-33.85 29.763v5c19.916 0 36.357-14.881 38.81-34.131l-4.96-.632Zm5.592-4.328a5 5 0 0 0-5.592 4.328l4.96.632.632-4.96Zm4.328 5.592a5 5 0 0 0-4.328-5.592l-.632 4.96 4.96.632ZM96 140.125c22.466 0 41.003-16.784 43.77-38.499l-4.96-.632c-2.453 19.25-18.894 34.131-38.81 34.131v5Zm-43.77-38.499c2.767 21.715 21.304 38.499 43.77 38.499v-5c-19.916 0-36.357-14.881-38.81-34.131l-4.96.632Zm1.92-4.602a5 5 0 0 0-1.92 4.602l4.96-.632-3.04-3.97Zm4.945-.653a5 5 0 0 0-4.944.653l3.039 3.97 1.905-4.623Zm10.843 4.469-10.843-4.469-1.905 4.623 10.843 4.469 1.905-4.623Zm2.717 6.528a5 5 0 0 0-2.717-6.528l-1.905 4.623 4.622 1.905Zm-6.528 2.718a5 5 0 0 0 6.528-2.718l-4.622-1.905-1.906 4.623Zm-6.576-2.711 6.576 2.711 1.906-4.623-6.577-2.711-1.905 4.623ZM96 130.125c-15.928 0-29.316-10.916-33.074-25.678l-4.845 1.234c4.308 16.924 19.65 29.444 37.919 29.444v-5Z"/></svg>