<svg xmlns="http://www.w3.org/2000/svg" width="192" height="192" fill="none"><rect width="152" height="152" x="20" y="20" fill="#4A4A4A" rx="10"/><path fill="#FF837D" d="M89 69h15v31H89z"/><path fill="#FF837D" d="M84 84h25v16H84z"/><path fill="#BA6561" d="M84 109h25v-9H84z"/><path fill="#F9DE81" d="M94 64h5v5h-5zm5 5h5v5h-5zm5 45h5v5h-5zm-25 0h5v5h-5zm25 5h5v5h-5zm-25 0h5v5h-5z"/><path fill="#fff" d="M104 124h5v5h-5zm-25 0h5v5h-5z"/><path fill="#F9DE81" d="M109 114h5v5h-5zm-25 0h5v5h-5zm25 5h5v5h-5zm-25 0h5v5h-5z"/><path fill="#fff" d="M109 124h5v5h-5zm-25 0h5v5h-5z"/><path fill="#D2D2D2" d="M104 79h5v5h-5z"/><path fill="#FFB0AC" d="M104 84h5v5h-5z"/><path fill="#FF837D" d="M109 89h5v5h-5zm0 5h5v5h-5zm5 0h5v5h-5zm0 5h5v5h-5z"/><path fill="#F9DE81" d="M114 104h5v5h-5zm5 0h5v5h-5zm0-5h5v5h-5zm5 0h5v5h-5z"/><path fill="#FF837D" d="M119 94h5v5h-5z"/><path fill="#FFB0AC" d="M124 94h5v5h-5z"/><path fill="#FF837D" d="M84 89h-5v5h5zm0 5h-5v5h5zm-5 0h-5v5h5zm0 5h-5v5h5z"/><path fill="#F9DE81" d="M79 104h-5v5h5zm-5 0h-5v5h5zm0-5h-5v5h5zm-5 0h-5v5h5z"/><path fill="#FF837D" d="M74 94h-5v5h5z"/><path fill="#FFB0AC" d="M69 94h-5v5h5z"/><path fill="#83868C" d="M104 94h5v5h-5zm0 5h5v5h-5zm5 0h5v5h-5zm-5 5h5v5h-5zm5 0h5v5h-5zm-5 5h5v5h-5zm5 0h5v5h-5zm-10 0h5v5h-5zm-10 0h5v5h-5zm5 0h5v5h-5z"/><path fill="#D2D2D2" d="M84 79h5v5h-5z"/><path fill="#FFB0AC" d="M84 84h5v5h-5z"/><path fill="#83868C" d="M84 94h5v5h-5zm0 5h5v5h-5zm-5 0h5v5h-5zm5 5h5v5h-5zm-5 0h5v5h-5zm5 5h5v5h-5zm-5 0h5v5h-5z"/><path fill="#F9DE81" d="M94 79h5v5h-5zm0 5h5v5h-5z"/><path fill="#CCC" d="M94 89h5v15h-5z"/><path fill="#F9DE81" d="M94 104h5v5h-5zm-5-35h5v5h-5z"/></svg>