<svg xmlns="http://www.w3.org/2000/svg" width="192" height="192" fill="none"><path fill="#FF837D" fill-rule="evenodd" d="M95.263 9.003C47.553 9.399 9 48.197 9 96c0 48.049 38.951 87 87 87 47.803 0 86.601-38.554 86.997-86.263L95.263 9.003Z" clip-rule="evenodd"/><path fill="#56595B" fill-rule="evenodd" d="M94.132 87.79a169.893 169.893 0 0 0-4.416-7.389 324.771 324.771 0 0 0-3.992-6.157c-1.189-1.783-2.18-3.213-2.972-4.289a91.679 91.679 0 0 1-1.36-1.868 33.436 33.436 0 0 0-6.623 4.161 36.353 36.353 0 0 0-5.52 5.52 32.947 32.947 0 0 0-4.162 6.667 35.118 35.118 0 0 0-2.548 7.516c.227 0 1.232-.014 3.015-.042 1.784-.029 4.105-.156 6.964-.383 2.86-.226 6.143-.636 9.851-1.23 3.709-.595 7.63-1.43 11.763-2.506Zm4.246 11.465.68-.17.679-.17c-.453-1.019-.906-2.01-1.36-2.972a68.629 68.629 0 0 0-1.443-2.888c-4.416 1.302-8.69 2.293-12.824 2.973-4.133.679-7.827 1.16-11.082 1.443-3.256.283-5.889.44-7.899.467-2.01.029-3.1.015-3.27-.042V99c0 4.416.78 8.577 2.336 12.484 1.557 3.907 3.695 7.36 6.412 10.361l1.741-2.675c1.16-1.784 2.902-3.907 5.223-6.37 2.321-2.462 5.209-4.954 8.663-7.473 3.453-2.52 7.501-4.544 12.144-6.072ZM75.023 125.92a1.989 1.989 0 0 0-.382-.297 1.986 1.986 0 0 1-.382-.297c.227.17.41.311.552.425l.212.169Zm12.824-60.042h-.085.085Zm30.743 7.473c-3-2.604-6.44-4.67-10.318-6.2-3.879-1.528-7.969-2.292-12.272-2.292-1.415 0-2.788.085-4.119.255a45.73 45.73 0 0 0-3.949.68c.113.169.58.806 1.401 1.91.821 1.104 1.826 2.548 3.015 4.331 1.19 1.784 2.52 3.85 3.992 6.2a160.599 160.599 0 0 1 4.416 7.516c6.398-2.435 10.955-5.082 13.673-7.941 2.718-2.86 4.105-4.345 4.161-4.459ZM96 139c-5.549 0-10.743-1.047-15.584-3.142-4.84-2.095-9.073-4.954-12.696-8.578-3.624-3.623-6.483-7.855-8.578-12.696C57.047 109.743 56 104.549 56 99c0-5.492 1.047-10.672 3.142-15.541 2.095-4.87 4.954-9.116 8.578-12.74 3.623-3.623 7.855-6.482 12.696-8.577C85.256 60.047 90.451 59 96 59c5.549 0 10.743 1.047 15.584 3.142 4.841 2.095 9.073 4.954 12.696 8.578 3.624 3.623 6.483 7.87 8.578 12.739C134.953 88.328 136 93.509 136 99c0 5.549-1.047 10.743-3.142 15.584-2.095 4.841-4.954 9.073-8.578 12.696-3.623 3.624-7.855 6.483-12.696 8.578C106.743 137.953 101.549 139 96 139Zm5.775-34.395c-4.982 1.755-9.172 3.836-12.569 6.242-3.397 2.406-6.143 4.713-8.238 6.922-2.095 2.208-3.61 4.104-4.543 5.69-.935 1.585-1.402 2.406-1.402 2.462 2.888 2.265 6.115 4.034 9.682 5.308S92.037 133.14 96 133.14c2.378 0 4.685-.226 6.921-.679a34.293 34.293 0 0 0 6.412-1.954c-.113-.792-.339-1.995-.679-3.609a164.06 164.06 0 0 0-1.359-5.817c-.566-2.265-1.288-4.813-2.165-7.644a147.838 147.838 0 0 0-3.1-8.917c-.057 0-.099.014-.128.043-.028.028-.07.042-.127.042Zm1.614-13.758c.396.793.778 1.6 1.146 2.42a67.1 67.1 0 0 1 1.062 2.506c.169.283.311.58.424.892.113.31.227.608.34.891a52.588 52.588 0 0 1 8.62-.467c2.802.085 5.322.24 7.558.467 2.237.227 4.048.467 5.436.722 1.387.255 2.109.382 2.165.382-.056-4.02-.764-7.855-2.123-11.507-1.359-3.652-3.227-6.922-5.605-9.81-.057.058-1.557 1.629-4.501 4.714-2.944 3.086-7.785 6.016-14.522 8.79Zm5.01 12.145a142.984 142.984 0 0 1 2.93 8.704c.821 2.746 1.486 5.195 1.996 7.346.509 2.152.906 3.949 1.189 5.393.283 1.444.481 2.421.594 2.93a33.288 33.288 0 0 0 5.308-4.458 35.56 35.56 0 0 0 4.289-5.393 33.557 33.557 0 0 0 3.142-6.2 35.248 35.248 0 0 0 1.868-6.879c-.339-.113-2.59-.608-6.751-1.486-4.161-.878-9.016-.863-14.565.043Z" clip-rule="evenodd"/><path fill="#BA6561" fill-rule="evenodd" d="M95.266 9 183 96.734c-.245.002-.491.003-.737.003-48.049 0-87-38.95-87-87 0-.246.001-.491.003-.737Z" clip-rule="evenodd"/></svg>