<svg xmlns="http://www.w3.org/2000/svg" width="192" height="192" fill="none"><path fill="#F8C18C" fill-rule="evenodd" d="M96 184c48.601 0 88-39.399 88-88S144.601 8 96 8 8 47.399 8 96s39.399 88 88 88Z" clip-rule="evenodd"/><mask id="a" width="176" height="176" x="8" y="8" maskUnits="userSpaceOnUse" style="mask-type:luminance"><path fill="#fff" fill-rule="evenodd" d="M96 184c48.601 0 88-39.399 88-88S144.601 8 96 8 8 47.399 8 96s39.399 88 88 88Z" clip-rule="evenodd"/></mask><g mask="url(#a)"><path fill="#fff" fill-opacity=".5" fill-rule="evenodd" d="M42 173c2.807 0 5.472-.609 7.87-1.702 3.115 7.822 9.847 13.81 18.13 15.899V192h51v-4.116c10.085-.944 18.527-7.539 22.13-16.586A18.927 18.927 0 0 0 149 173c10.493 0 19-8.507 19-19s-8.507-19-19-19c-5.9 0-11.171 2.689-14.656 6.908A26.406 26.406 0 0 0 116.5 135c-8.55 0-16.154 4.049-21 10.335C90.654 139.049 83.05 135 74.5 135a26.406 26.406 0 0 0-17.844 6.908C53.171 137.689 47.9 135 42 135c-10.493 0-19 8.507-19 19s8.507 19 19 19Z" clip-rule="evenodd"/></g><path fill="#A0A5AF" fill-rule="evenodd" d="M89.043 56.436c2.91-6.298 11.009-6.3 13.92-.003C106.052 63.113 109 71.666 109 79.97v26.025c0 5.513-4.462 9.986-9.975 10L97 116h-4c-5.523 0-10-4.477-10-10V80c0-8.309 2.952-16.874 6.043-23.564Z" clip-rule="evenodd"/><path fill="#56595B" fill-rule="evenodd" d="M83 106h-1.758c-.75 0-1.425.457-1.703 1.153-.75 1.876-3.539 1.339-3.539-.681V97s0-6 7-9v18Zm26 0h1.758c.75 0 1.425.457 1.703 1.153.751 1.876 3.539 1.339 3.539-.681V97s0-6-7-9v18Z" clip-rule="evenodd"/><path stroke="#4A4A4A" stroke-linecap="round" stroke-width="4" d="M96 112.5v-22"/></svg>