<svg xmlns="http://www.w3.org/2000/svg" width="192" height="192" fill="none"><rect width="152" height="152" x="21" y="20" fill="#9ABEFF" rx="10"/><path fill="#fff" d="M50.774 74.2c2.7 0 4.9-1.6 4.9-4.3 0-5.325-7.1-4.025-7.1-7.1 0-1.175.925-1.725 2.025-1.725 1 0 1.9.45 2.575 1.3L54.9 60.8c-.95-1.175-2.525-2-4.3-2-2.35 0-4.475 1.475-4.475 4.175 0 4.975 7.1 3.75 7.1 6.925 0 1.225-1.025 1.95-2.425 1.95-1.525 0-2.675-.85-3.2-2.125L45.5 71c.875 1.875 2.875 3.2 5.275 3.2Zm16.273-.2h2.65l-5.425-15h-2.725l-5.425 15h2.65l1.075-3.175h6.125L67.047 74Zm-6.475-5.325 2.35-7 2.35 7h-4.7ZM84.32 59l-5.275 11.75L73.794 59h-2.626v15h2.45V63.675L78.22 74h1.626l4.65-10.35V74h2.424V59h-2.6Zm10.068 15.2c2.7 0 4.9-1.6 4.9-4.3 0-5.325-7.1-4.025-7.1-7.1 0-1.175.924-1.725 2.025-1.725 1 0 1.9.45 2.575 1.3l1.725-1.575c-.95-1.175-2.526-2-4.3-2-2.35 0-4.475 1.475-4.475 4.175 0 4.975 7.1 3.75 7.1 6.925 0 1.225-1.025 1.95-2.425 1.95-1.525 0-2.675-.85-3.2-2.125L89.113 71c.874 1.875 2.874 3.2 5.275 3.2Zm13.022 0c3.4 0 5.95-2.175 5.95-5.075V59h-2.45v9.7c0 1.85-1.5 3.225-3.5 3.225s-3.475-1.375-3.475-3.225V59h-2.45v10.125c0 2.9 2.525 5.075 5.925 5.075ZM127.355 59v11.125L119.03 59h-2.45v15h2.45V62.85l8.3 11.15h2.45V59h-2.425Zm12.879 6.9v2.05h5.1c-.6 2.25-2.625 3.825-5.075 3.825-2.975 0-5.3-2.3-5.3-5.275 0-2.975 2.325-5.275 5.3-5.275 2.025 0 3.75 1.075 4.65 2.725l2.1-1.125a7.686 7.686 0 0 0-6.75-4.025c-4.275 0-7.7 3.45-7.7 7.7s3.425 7.7 7.7 7.7c4.25 0 7.7-3.45 7.7-7.7v-.6h-7.725ZM69.297 75h-16.02v36h9.18V96.9h6.84c6.24 0 11.04-4.56 11.04-10.8 0-6.12-4.8-11.1-11.04-11.1Zm-1.5 14.46h-5.34v-6.48h5.34c2.16 0 3.72 1.32 3.72 3.18 0 1.92-1.56 3.3-3.72 3.3ZM103.716 111h9.84l-13.02-36h-10.26l-13.02 36h9.9l1.98-6.3h12.6l1.98 6.3Zm-12.24-13.74 3.96-12.72 4.02 12.72h-7.98ZM144.053 75h-10.08l-7.08 11.28-7.08-11.28h-10.2l12.66 19.08V111h9.18V94.02l12.6-19.02Z"/></svg>