<svg xmlns="http://www.w3.org/2000/svg" width="192" height="192" fill="none"><path fill="#56595B" fill-rule="evenodd" d="M96 183c48.049 0 87-38.951 87-87S144.049 9 96 9 9 47.951 9 96s38.951 87 87 87Z" clip-rule="evenodd"/><path stroke="#A0A5AF" stroke-width="5" d="M96.66 140c13.617 0 24.553-2.67 24.657-15.795.104-13.125-24.658-26.944-24.658-26.944s-24.497 14.133-24.657 26.944C71.842 137.016 83.042 140 96.659 140Z" clip-rule="evenodd"/><path fill="#D3B69A" fill-rule="evenodd" d="M96.67 91.071S111 80.881 111 79.5c0-1.38-6.268-2.5-14-2.5s-14.66 1.12-14.66 2.5 14.33 11.571 14.33 11.571Z" clip-rule="evenodd"/><path stroke="#A0A5AF" stroke-width="5" d="M109.668 57.149c7.772.19 11.604 7.563 11.649 13.168.104 13.125-24.658 26.944-24.658 26.944S71.896 83.297 72 70.171c.045-5.605 3.877-12.977 11.65-13.167 7.77-.191 13.01 7.377 13.01 7.377s5.325-7.42 13.008-7.232Z" clip-rule="evenodd"/></svg>