<svg xmlns="http://www.w3.org/2000/svg" width="192" height="192" fill="none"><path fill="#fff" fill-rule="evenodd" d="M96 183c48.049 0 87-38.951 87-87S144.049 9 96 9 9 47.951 9 96s38.951 87 87 87Z" clip-rule="evenodd"/><path fill="#99CDCD" fill-rule="evenodd" d="M91.43 90.262a3 3 0 0 1 2.57 2.97v32.937a3 3 0 0 1-3.43 2.969l-26-3.766a3 3 0 0 1-2.57-2.969V89.466a3 3 0 0 1 3.43-2.97l26 3.766Zm10.14 0a3 3 0 0 0-2.57 2.97v32.937a3 3 0 0 0 3.43 2.969l26-3.766a3 3 0 0 0 2.57-2.969V89.466a3 3 0 0 0-3.43-2.97l-26 3.766Z" clip-rule="evenodd"/><path fill="#56595B" fill-rule="evenodd" d="M128.9 81.44a2.996 2.996 0 0 0 1.393-.599l9.133-7.114c2.436-1.898.76-5.796-2.294-5.332l-18.866 2.863a2.996 2.996 0 0 0-1.393.6l-9.133 7.114c-2.437 1.898-.76 5.796 2.294 5.333L128.9 81.44Zm-64.856-.067a3.002 3.002 0 0 1-1.393-.6L53.52 73.66c-2.437-1.898-.76-5.796 2.294-5.332l18.865 2.864a3 3 0 0 1 1.394.599l9.132 7.114c2.437 1.899.76 5.797-2.294 5.333l-18.865-2.864Z" clip-rule="evenodd"/></svg>