<svg xmlns="http://www.w3.org/2000/svg" width="192" height="192" fill="none"><rect width="152" height="152" x="20" y="20" fill="#56595B" rx="10"/><mask id="a" width="152" height="152" x="20" y="20" maskUnits="userSpaceOnUse" style="mask-type:luminance"><rect width="152" height="152" x="20" y="20" fill="#fff" rx="10"/></mask><g fill-rule="evenodd" clip-rule="evenodd" mask="url(#a)"><path fill="#728DBE" d="M138.299 25.7c-11.468 11.467-11.918 29.713-1.216 41.285a42.58 42.58 0 0 0-12.688 8.768c-10.092 10.093-14.066 23.95-11.875 36.857-14.529-5.018-31.13-1.853-42.552 9.569a40.286 40.286 0 0 0-9.334 14.554c-11.716-8.449-27.992-7.552-38.34 2.795-11.513 11.513-11.325 30.368.42 42.114 11.745 11.745 30.6 11.933 42.114.419a29.108 29.108 0 0 0 3.239-3.851 43.46 43.46 0 0 0 2.487 2.707c16.381 16.381 42.679 16.643 58.737.585a40.336 40.336 0 0 0 7.544-10.434h29.279v-26.923c5.991-2.028 11.637-5.442 16.434-10.239 16.382-16.382 16.643-42.68.585-58.738a40.551 40.551 0 0 0-6.205-5.087 30.913 30.913 0 0 0 3.065-2.687c11.745-11.745 11.933-30.6.42-42.114-11.514-11.514-30.369-11.326-42.114.42Z"/><path fill="#9ABEFF" d="M172.705 26.055c-14.96 14.96-15.547 38.764-1.585 53.86a55.547 55.547 0 0 0-16.552 11.439c-13.167 13.166-18.351 31.243-15.492 48.082-18.954-6.547-40.612-2.417-55.512 12.483a52.556 52.556 0 0 0-12.176 18.987c-15.286-11.023-36.519-9.853-50.017 3.646-15.02 15.02-14.775 39.617.547 54.94 15.323 15.322 39.92 15.567 54.94.547a38.053 38.053 0 0 0 4.225-5.024 56.776 56.776 0 0 0 3.245 3.531c21.37 21.37 55.677 21.712 76.627.763a52.645 52.645 0 0 0 9.841-13.611h38.196v-35.124c7.815-2.645 15.182-7.099 21.439-13.357 21.371-21.37 21.713-55.677.763-76.627a52.869 52.869 0 0 0-8.094-6.636 40.397 40.397 0 0 0 3.998-3.506c15.323-15.322 15.568-39.92.548-54.94-15.021-15.02-39.618-14.775-54.941.547Z"/></g><path fill="#F9DE81" fill-rule="evenodd" d="M75 96c11.598 0 21-9.402 21-21s-9.402-21-21-21-21 9.402-21 21 9.402 21 21 21Z" clip-rule="evenodd"/></svg>