<svg xmlns="http://www.w3.org/2000/svg" width="192" height="192" fill="none"><rect width="152" height="152" fill="#9ABEFF" rx="10" transform="matrix(1 0 0 -1 20 172)"/><path stroke="#fff" stroke-width="5" d="M142.5 96.5c0 25.405-20.595 46-46 46s-46-20.595-46-46 20.595-46 46-46 46 20.595 46 46Z"/><rect width="30" height="50" x="81" y="71" fill="#fff" rx="5"/><rect width="20" height="34" x="86" y="79" fill="#9ABEFF" rx="2"/><path fill="#fff" d="m73.554 122.981 1.768 1.768-1.768-1.768Zm0-3.535-1.767 1.767 1.767-1.767Zm-7.106 10.642-1.768-1.768 1.768 1.768Zm-3.536 0-1.767 1.767 1.767-1.767Zm0-3.536-1.767-1.768 1.767 1.768Zm7.107-7.106 1.767 1.767-1.767-1.767Zm0-45.892 1.767-1.767-1.767 1.767Zm-7.107-7.106-1.767 1.768 1.767-1.768Zm3.536-3.536L64.68 64.68l1.768-1.768Zm7.106 7.107 1.768-1.768-1.768 1.768Zm45.892 0-1.768-1.768 1.768 1.768Zm0 3.535-1.768 1.768 1.768-1.768Zm7.106-10.642 1.768 1.768-1.768-1.768Zm3.536 0-1.768 1.768 1.768-1.768Zm0 3.536 1.767 1.768-1.767-1.768Zm-7.107 7.106-1.768-1.767 1.768 1.767Zm0 45.892-1.768 1.767 1.768-1.767Zm7.107 7.106 1.767-1.768-1.767 1.768Zm-3.536 3.536 1.768-1.768-1.768 1.768Zm-7.106-7.107-1.768 1.768 1.768-1.768ZM101.5 131.45a5 5 0 0 0-5-5v5h5Zm0 10.05v-10.05h-5v10.05h5Zm-5 5a5 5 0 0 0 5-5h-5v5Zm-5-5a5 5 0 0 0 5 5v-5h-5Zm0-10.05v10.05h5v-10.05h-5Zm5-5a5 5 0 0 0-5 5h5v-5Zm-21.178-1.701a5 5 0 0 0 0-7.071l-3.535 3.535 3.535 3.536Zm-7.106 7.106 7.106-7.106-3.535-3.536-7.107 7.107 3.536 3.535Zm-7.071 0a5 5 0 0 0 7.07 0l-3.535-3.535-3.535 3.535Zm0-7.071a5 5 0 0 0 0 7.071l3.535-3.535-3.535-3.536Zm7.106-7.106-7.106 7.106 3.535 3.536 7.106-7.107-3.535-3.535Zm7.071 0a5 5 0 0 0-7.071 0l3.535 3.535 3.536-3.535ZM61.55 101.5a5 5 0 0 0 5-5h-5v5Zm-10.05 0h10.05v-5H51.5v5Zm-5-5a5 5 0 0 0 5 5v-5h-5Zm5-5a5 5 0 0 0-5 5h5v-5Zm10.05 0H51.5v5h10.05v-5Zm5 5a5 5 0 0 0-5-5v5h5Zm1.701-21.178a5 5 0 0 0 7.071 0l-3.535-3.535-3.536 3.535Zm-7.106-7.106 7.106 7.106 3.535-3.535-7.106-7.107-3.535 3.536Zm0-7.071a5 5 0 0 0 0 7.07l3.535-3.535-3.535-3.535Zm7.07 0a5 5 0 0 0-7.07 0l3.535 3.535 3.536-3.535Zm7.107 7.106-7.106-7.106-3.536 3.535 7.106 7.106 3.536-3.535Zm0 7.071a5 5 0 0 0 0-7.071l-3.535 3.535 3.535 3.536ZM91.5 61.55a5 5 0 0 0 5 5v-5h-5Zm0-10.05v10.05h5V51.5h-5Zm5-5a5 5 0 0 0-5 5h5v-5Zm5 5a5 5 0 0 0-5-5v5h5Zm0 10.05V51.5h-5v10.05h5Zm-5 5a5 5 0 0 0 5-5h-5v5Zm21.178 1.701a5 5 0 0 0 0 7.071l3.535-3.535-3.535-3.536Zm7.106-7.106-7.106 7.106 3.535 3.535 7.107-7.106-3.536-3.535Zm7.071 0a5 5 0 0 0-7.071 0l3.536 3.535 3.535-3.535Zm0 7.07a5 5 0 0 0 0-7.07l-3.535 3.535 3.535 3.536Zm-7.106 7.107 7.106-7.106-3.535-3.536-7.107 7.106 3.536 3.536Zm-7.071 0a5 5 0 0 0 7.071 0l-3.536-3.535-3.535 3.535ZM131.45 91.5a5 5 0 0 0-5 5h5v-5Zm10.05 0h-10.05v5h10.05v-5Zm5 5a5 5 0 0 0-5-5v5h5Zm-5 5a5 5 0 0 0 5-5h-5v5Zm-10.05 0h10.05v-5h-10.05v5Zm-5-5a5 5 0 0 0 5 5v-5h-5Zm-1.701 21.178a5 5 0 0 0-7.071 0l3.535 3.535 3.536-3.535Zm7.106 7.106-7.106-7.106-3.536 3.535 7.107 7.107 3.535-3.536Zm0 7.071a5 5 0 0 0 0-7.071l-3.535 3.536 3.535 3.535Zm-7.071 0a5 5 0 0 0 7.071 0l-3.535-3.535-3.536 3.535Zm-7.106-7.106 7.106 7.106 3.536-3.535-7.107-7.107-3.535 3.536Zm0-7.071a5 5 0 0 0 0 7.071l3.535-3.536-3.535-3.535Z"/></svg>