<svg xmlns="http://www.w3.org/2000/svg" width="192" height="192" fill="none"><path fill="#9ABEFF" d="M20 30c0-5.523 4.477-10 10-10h132c5.523 0 10 4.477 10 10v132c0 5.523-4.477 10-10 10H30c-5.523 0-10-4.477-10-10V30Z"/><path fill="#fff" fill-rule="evenodd" d="m96 52-7 70-26 11 33-81Z" clip-rule="evenodd"/><path fill="#ECECEC" fill-rule="evenodd" d="m96 52-7 70 7 11V52Zm0 0 7 70 26 11-33-81Z" clip-rule="evenodd"/><path fill="#fff" fill-rule="evenodd" d="m96 52 7 70-7 11V52Z" clip-rule="evenodd"/></svg>