<svg xmlns="http://www.w3.org/2000/svg" width="192" height="192" fill="none"><rect width="152" height="152" x="20" y="20" fill="#FF837D" rx="10"/><path fill="#56595B" d="M20 96h152v66c0 5.523-4.477 10-10 10H30c-5.523 0-10-4.477-10-10V96Z"/><path fill="#fff" d="M41.629 86.24c3.36 0 6.21-1.98 6.21-5.34 0-6.66-8.28-5.01-8.28-8.13 0-1.02.78-1.5 1.74-1.5 1.02 0 2.04.57 2.94 1.56l2.64-2.52a7.37 7.37 0 0 0-5.55-2.55c-2.85 0-5.76 1.71-5.76 5.31 0 6.12 8.31 4.65 8.31 7.8 0 .99-.84 1.65-2.22 1.65-1.65 0-2.94-.93-3.6-2.34l-3.27 2.04c1.17 2.25 3.69 4.02 6.84 4.02ZM62.955 68h-7.65v18h3.96v-7.29h3.69c3.03 0 5.37-2.25 5.37-5.28 0-3-2.34-5.43-5.37-5.43Zm-.63 7.44h-3.06v-3.96h3.06c1.26 0 2.22.81 2.22 1.98 0 1.2-.96 1.98-2.22 1.98ZM75.361 86h3.96V68h-3.96v18Zm23.612-14.52V68h-10.83v18h10.83v-3.48h-6.87v-3.78h5.88v-3.48h-5.88v-3.78h6.87Zm16.568 4.65v3.09h4.95c-.84 1.89-2.7 3.15-4.92 3.15-3.03 0-5.37-2.34-5.37-5.37 0-3.03 2.34-5.37 5.37-5.37 2.13 0 3.87 1.14 4.77 2.85l3.42-1.77c-1.56-2.94-4.65-4.95-8.19-4.95-5.13 0-9.24 4.14-9.24 9.24 0 5.1 4.11 9.24 9.24 9.24 5.1 0 9.24-4.14 9.24-9.24v-.87h-9.27Zm28.166-4.65V68h-10.83v18h10.83v-3.48h-6.87v-3.78h5.88v-3.48h-5.88v-3.78h6.87Zm11.949 11.01V68h-3.96v18h9.93v-3.51h-5.97ZM50.397 114.324c.011-1.272-.204-2.448-.636-3.528a8.324 8.324 0 0 0-1.789-2.808c-.767-.792-1.691-1.404-2.772-1.86-1.08-.444-2.268-.672-3.588-.672-1.308 0-2.508.228-3.587.672-1.08.444-2.017 1.056-2.785 1.848a8.376 8.376 0 0 0-1.788 2.82c-.431 1.08-.636 2.256-.636 3.528 0 1.272.204 2.46.636 3.54a8.324 8.324 0 0 0 1.788 2.808 8.161 8.161 0 0 0 2.785 1.86c1.08.444 2.28.66 3.587.66 1.32 0 2.508-.216 3.588-.66a8.111 8.111 0 0 0 2.772-1.86 8.324 8.324 0 0 0 1.788-2.808c.433-1.08.637-2.268.637-3.54Zm-3.313 0c0 .96-.12 1.812-.372 2.568s-.612 1.392-1.092 1.92a4.58 4.58 0 0 1-1.715 1.2c-.672.288-1.44.42-2.293.42-.84 0-1.608-.132-2.291-.42a4.72 4.72 0 0 1-1.728-1.2c-.48-.528-.84-1.164-1.105-1.92-.252-.756-.383-1.608-.383-2.568 0-.948.132-1.8.384-2.556.264-.756.623-1.404 1.104-1.932a4.898 4.898 0 0 1 1.727-1.212 6.09 6.09 0 0 1 2.292-.42c.852 0 1.62.144 2.292.42a4.748 4.748 0 0 1 1.716 1.212c.48.528.84 1.176 1.093 1.932.252.756.371 1.608.371 2.556Zm27.633-8.676h-5.004v1.416c0 .42.192.66.6.756.036 0 .564.072 1.56.216v8.16c0 .24 0 .492.012.756s.036.54.072.816l-9.108-11.592a1.975 1.975 0 0 0-.24-.276.704.704 0 0 0-.228-.156.776.776 0 0 0-.252-.072c-.096-.012-.216-.012-.36-.012h-3.504v1.404c-.012.42.192.66.6.756.024 0 .084.012.144.024.072.012.18.036.36.06.168.036.408.072.708.132v12.588c-.3.06-.54.096-.708.132-.18.024-.288.048-.36.06-.06.012-.12.024-.144.024-.408.096-.612.336-.6.756V123h6.816v-1.404c0-.42-.192-.66-.6-.756-.036 0-.552-.072-1.56-.216v-8.28c0-.204-.012-.432-.024-.684 0-.252-.024-.504-.048-.756l9.072 11.544c.156.216.324.36.492.432.168.084.384.12.636.12h1.668v-14.964c.3-.06.54-.096.708-.132.18-.024.288-.048.36-.06.06-.012.108-.024.144-.024.408-.096.6-.336.6-.756v-1.404l-1.812-.012Zm21.258 13.212c-.3 0-.492.144-.552.444-.024.084-.048.432-.108 1.032h-5.58v-12.3c.3-.06.54-.096.708-.132.168-.024.288-.048.36-.06.06-.012.108-.024.144-.024.408-.096.6-.336.6-.756v-1.404h-6.852v1.404c-.012.42.192.66.6.756.024 0 .084.012.144.024.072.012.18.036.36.06.168.036.408.072.708.132v12.588c-.3.06-.54.096-.708.132-.18.024-.288.048-.36.06-.06.012-.12.024-.144.024-.408.096-.612.336-.6.756V123h12.564v-4.14h-1.284Zm15.554-11.04c.408-.096.6-.336.6-.756v-1.404h-6.864v1.404c-.012.42.192.66.6.756.024 0 .084.012.144.024.072.012.18.036.36.06.168.036.408.072.708.132v12.588c-.3.06-.54.096-.708.132-.18.024-.288.048-.36.06-.06.012-.12.024-.144.024-.408.096-.612.336-.6.756V123h6.864v-1.404c0-.42-.192-.66-.6-.756-.036 0-.084-.012-.144-.024-.072-.012-.18-.036-.36-.06-.168-.036-.408-.072-.708-.132v-12.588c.3-.06.54-.096.708-.132.18-.024.288-.048.36-.06.06-.012.108-.024.144-.024Zm25.016-2.172h-5.004v1.416c0 .42.192.66.6.756.036 0 .564.072 1.56.216v8.16c0 .24 0 .492.012.756s.036.54.072.816l-9.108-11.592a1.975 1.975 0 0 0-.24-.276.704.704 0 0 0-.228-.156.776.776 0 0 0-.252-.072c-.096-.012-.216-.012-.36-.012h-3.504v1.404c-.012.42.192.66.6.756.024 0 .084.012.144.024.072.012.18.036.36.06.168.036.408.072.708.132v12.588c-.3.06-.54.096-.708.132-.18.024-.288.048-.36.06-.06.012-.12.024-.144.024-.408.096-.612.336-.6.756V123h6.816v-1.404c0-.42-.192-.66-.6-.756-.036 0-.552-.072-1.56-.216v-8.28c0-.204-.012-.432-.024-.684 0-.252-.024-.504-.048-.756l9.072 11.544c.156.216.324.36.492.432.168.084.384.12.636.12h1.668v-14.964c.3-.06.54-.096.708-.132.18-.024.288-.048.36-.06.06-.012.108-.024.144-.024.408-.096.6-.336.6-.756v-1.404l-1.812-.012Zm11.485 0h-1.812v1.416c-.012.42.192.66.6.756.024 0 .084.012.144.024.072.012.18.036.36.06.168.036.408.072.708.132v12.588c-.3.06-.54.096-.708.132-.18.024-.288.048-.36.06-.06.012-.12.024-.144.024-.408.096-.612.336-.6.756V123h12.756v-4.572h-1.38c-.312 0-.492.156-.564.456-.024.18-.084.696-.168 1.536h-5.58v-4.908h5.868v-2.484h-5.868v-4.8h5.58c.084.84.132 1.356.168 1.536.072.3.252.444.564.444h1.38v-4.548l-10.944-.012Z"/></svg>