<svg xmlns="http://www.w3.org/2000/svg" width="192" height="192" fill="none"><mask id="a" width="152" height="164" x="22" y="22" maskUnits="userSpaceOnUse" style="mask-type:luminance"><path fill="#fff" fill-rule="evenodd" d="M32 22c-5.523 0-10 4.477-10 10v128.438c0 5.523 4.477 10 10 10h18.683V186l16.732-15.562H164c5.523 0 10-4.477 10-10V32c0-5.523-4.477-10-10-10H32Z" clip-rule="evenodd"/></mask><g mask="url(#a)"><path fill="#9ABEFF" d="M14 21h174v30.4H14z"/><path fill="#fff" fill-opacity=".7" d="M14 21h174v30.4H14z"/><path fill="#9ABEFF" d="M14 60.612h174v30.4H14z"/><path fill="#728DBE" d="M14 100.224h174v30.4H14z"/><path fill="#56595B" fill-rule="evenodd" d="M14 139.836h174V187H14v-47.164Z" clip-rule="evenodd"/></g></svg>