<svg xmlns="http://www.w3.org/2000/svg" width="192" height="192" fill="none"><rect width="152" height="152" x="20" y="20" fill="#fff" rx="10"/><path fill="#56595B" fill-rule="evenodd" d="M96 141a8 8 0 1 0 0-16 8 8 0 0 0 0 16ZM80 91a5 5 0 1 0 0-10 5 5 0 0 0 0 10Z" clip-rule="evenodd"/><path stroke="#56595B" stroke-width="5" d="M80 89v9.863a4 4 0 0 0 1.403 3.042l13.194 11.263A4 4 0 0 1 96 116.21V129m16-51v9.863c0 1.17-.513 2.282-1.403 3.042l-13.194 11.263A4 4 0 0 0 96 105.21V118m0 11V59"/><path fill="#56595B" d="M107 68h10v10h-10z"/><path fill="#56595B" fill-rule="evenodd" d="m96 51.61 5 9.39H91l5-9.39Z" clip-rule="evenodd"/></svg>