<svg xmlns="http://www.w3.org/2000/svg" width="192" height="192" fill="none"><path fill="#B1B5BD" fill-rule="evenodd" d="M20 162c0 5.523 4.477 10 10 10h132c5.523 0 10-4.477 10-10V30c0-5.523-4.477-10-10-10H50.156v7.377H33.16V20H30c-5.523 0-10 4.477-10 10v132Z" clip-rule="evenodd"/><mask id="a" width="152" height="152" x="20" y="20" maskUnits="userSpaceOnUse" style="mask-type:luminance"><path fill="#fff" fill-rule="evenodd" d="M20 162c0 5.523 4.477 10 10 10h132c5.523 0 10-4.477 10-10V30c0-5.523-4.477-10-10-10H50.156v7.377H33.16V20H30c-5.523 0-10 4.477-10 10v132Z" clip-rule="evenodd"/></mask><g mask="url(#a)"><path fill="#83868C" d="M28 165a3 3 0 0 1 3-3h130a3 3 0 0 1 3 3v8H28v-8Z"/><path fill="#98DC9A" d="M28 165a3 3 0 0 1 3-3h130a3 3 0 0 1 3 3v3H28v-3Z"/><path fill="#fff" fill-opacity=".5" d="M33 27h17v8H33zm0 16h17v6H33z"/><path fill="#979797" d="M33 43h17v-8H33z"/><rect width="90" height="107" fill="#4A4A4A" rx="3" transform="matrix(1 0 0 -1 60 132)"/><path fill="#fff" fill-opacity=".5" fill-rule="evenodd" d="m9.253 17.094 180.342 2.052-17.457 24.233a6.38 6.38 0 0 0-6.38-6.38h-15.307l-2.94 2.125H62.218L60.36 37H29.934a10 10 0 0 0-9.966 9.18l-.07.853L9.253 17.094Z" clip-rule="evenodd"/><g filter="url(#b)"><path fill="#F9DE81" fill-rule="evenodd" d="M37 162h-7v6h1v3h5v-3h1v-6Z" clip-rule="evenodd"/></g><g filter="url(#c)"><path fill="#F9DE81" fill-rule="evenodd" d="M78 162h-7v6h1v3h5v-3h1v-6Z" clip-rule="evenodd"/></g><g filter="url(#d)"><path fill="#F9DE81" fill-rule="evenodd" d="M120 162h-7v6h1v3h5v-3h1v-6Z" clip-rule="evenodd"/></g><g filter="url(#e)"><path fill="#F9DE81" fill-rule="evenodd" d="M58 162h-7v6h1v3h5v-3h1v-6Z" clip-rule="evenodd"/></g><g filter="url(#f)"><path fill="#F9DE81" fill-rule="evenodd" d="M99 162h-7v6h1v3h5v-3h1v-6Z" clip-rule="evenodd"/></g><g filter="url(#g)"><path fill="#F9DE81" fill-rule="evenodd" d="M140 162h-7v6h1v3h5v-3h1v-6Z" clip-rule="evenodd"/></g><g filter="url(#h)"><path fill="#F9DE81" fill-rule="evenodd" d="M47 162h-7v6h1v3h5v-3h1v-6Z" clip-rule="evenodd"/></g><g filter="url(#i)"><path fill="#F9DE81" fill-rule="evenodd" d="M89 162h-7v6h1v3h5v-3h1v-6Z" clip-rule="evenodd"/></g><g filter="url(#j)"><path fill="#F9DE81" fill-rule="evenodd" d="M130 162h-7v6h1v3h5v-3h1v-6Z" clip-rule="evenodd"/></g><g filter="url(#k)"><path fill="#F9DE81" fill-rule="evenodd" d="M68 162h-7v6h1v3h5v-3h1v-6Z" clip-rule="evenodd"/></g><g filter="url(#l)"><path fill="#F9DE81" fill-rule="evenodd" d="M109 162h-7v6h1v3h5v-3h1v-6Z" clip-rule="evenodd"/></g><g filter="url(#m)"><path fill="#F9DE81" fill-rule="evenodd" d="M151 162h-7v6h1v3h5v-3h1v-6Z" clip-rule="evenodd"/></g><g filter="url(#n)"><path fill="#F9DE81" fill-rule="evenodd" d="M161 162h-7v6h1v3h5v-3h1v-6Z" clip-rule="evenodd"/></g><rect width="89" height="106" x=".5" y="-.5" stroke="#4A4A4A" rx="2.5" transform="matrix(1 0 0 -1 60 131)"/></g><defs><filter id="b" width="7" height="9" x="30" y="162" color-interpolation-filters="sRGB" filterUnits="userSpaceOnUse"><feFlood flood-opacity="0" result="BackgroundImageFix"/><feBlend in="SourceGraphic" in2="BackgroundImageFix" result="shape"/><feColorMatrix in="SourceAlpha" result="hardAlpha" values="0 0 0 0 0 0 0 0 0 0 0 0 0 0 0 0 0 0 127 0"/><feOffset dx="1" dy="1"/><feComposite in2="hardAlpha" k2="-1" k3="1" operator="arithmetic"/><feColorMatrix values="0 0 0 0 0.74902 0 0 0 0 0.619608 0 0 0 0 0.45098 0 0 0 1 0"/><feBlend in2="shape" result="effect1_innerShadow_0_152422"/></filter><filter id="c" width="7" height="9" x="71" y="162" color-interpolation-filters="sRGB" filterUnits="userSpaceOnUse"><feFlood flood-opacity="0" result="BackgroundImageFix"/><feBlend in="SourceGraphic" in2="BackgroundImageFix" result="shape"/><feColorMatrix in="SourceAlpha" result="hardAlpha" values="0 0 0 0 0 0 0 0 0 0 0 0 0 0 0 0 0 0 127 0"/><feOffset dx="1" dy="1"/><feComposite in2="hardAlpha" k2="-1" k3="1" operator="arithmetic"/><feColorMatrix values="0 0 0 0 0.74902 0 0 0 0 0.619608 0 0 0 0 0.45098 0 0 0 1 0"/><feBlend in2="shape" result="effect1_innerShadow_0_152422"/></filter><filter id="d" width="7" height="9" x="113" y="162" color-interpolation-filters="sRGB" filterUnits="userSpaceOnUse"><feFlood flood-opacity="0" result="BackgroundImageFix"/><feBlend in="SourceGraphic" in2="BackgroundImageFix" result="shape"/><feColorMatrix in="SourceAlpha" result="hardAlpha" values="0 0 0 0 0 0 0 0 0 0 0 0 0 0 0 0 0 0 127 0"/><feOffset dx="1" dy="1"/><feComposite in2="hardAlpha" k2="-1" k3="1" operator="arithmetic"/><feColorMatrix values="0 0 0 0 0.74902 0 0 0 0 0.619608 0 0 0 0 0.45098 0 0 0 1 0"/><feBlend in2="shape" result="effect1_innerShadow_0_152422"/></filter><filter id="e" width="7" height="9" x="51" y="162" color-interpolation-filters="sRGB" filterUnits="userSpaceOnUse"><feFlood flood-opacity="0" result="BackgroundImageFix"/><feBlend in="SourceGraphic" in2="BackgroundImageFix" result="shape"/><feColorMatrix in="SourceAlpha" result="hardAlpha" values="0 0 0 0 0 0 0 0 0 0 0 0 0 0 0 0 0 0 127 0"/><feOffset dx="1" dy="1"/><feComposite in2="hardAlpha" k2="-1" k3="1" operator="arithmetic"/><feColorMatrix values="0 0 0 0 0.74902 0 0 0 0 0.619608 0 0 0 0 0.45098 0 0 0 1 0"/><feBlend in2="shape" result="effect1_innerShadow_0_152422"/></filter><filter id="f" width="7" height="9" x="92" y="162" color-interpolation-filters="sRGB" filterUnits="userSpaceOnUse"><feFlood flood-opacity="0" result="BackgroundImageFix"/><feBlend in="SourceGraphic" in2="BackgroundImageFix" result="shape"/><feColorMatrix in="SourceAlpha" result="hardAlpha" values="0 0 0 0 0 0 0 0 0 0 0 0 0 0 0 0 0 0 127 0"/><feOffset dx="1" dy="1"/><feComposite in2="hardAlpha" k2="-1" k3="1" operator="arithmetic"/><feColorMatrix values="0 0 0 0 0.74902 0 0 0 0 0.619608 0 0 0 0 0.45098 0 0 0 1 0"/><feBlend in2="shape" result="effect1_innerShadow_0_152422"/></filter><filter id="g" width="7" height="9" x="133" y="162" color-interpolation-filters="sRGB" filterUnits="userSpaceOnUse"><feFlood flood-opacity="0" result="BackgroundImageFix"/><feBlend in="SourceGraphic" in2="BackgroundImageFix" result="shape"/><feColorMatrix in="SourceAlpha" result="hardAlpha" values="0 0 0 0 0 0 0 0 0 0 0 0 0 0 0 0 0 0 127 0"/><feOffset dx="1" dy="1"/><feComposite in2="hardAlpha" k2="-1" k3="1" operator="arithmetic"/><feColorMatrix values="0 0 0 0 0.74902 0 0 0 0 0.619608 0 0 0 0 0.45098 0 0 0 1 0"/><feBlend in2="shape" result="effect1_innerShadow_0_152422"/></filter><filter id="h" width="7" height="9" x="40" y="162" color-interpolation-filters="sRGB" filterUnits="userSpaceOnUse"><feFlood flood-opacity="0" result="BackgroundImageFix"/><feBlend in="SourceGraphic" in2="BackgroundImageFix" result="shape"/><feColorMatrix in="SourceAlpha" result="hardAlpha" values="0 0 0 0 0 0 0 0 0 0 0 0 0 0 0 0 0 0 127 0"/><feOffset dx="1" dy="1"/><feComposite in2="hardAlpha" k2="-1" k3="1" operator="arithmetic"/><feColorMatrix values="0 0 0 0 0.74902 0 0 0 0 0.619608 0 0 0 0 0.45098 0 0 0 1 0"/><feBlend in2="shape" result="effect1_innerShadow_0_152422"/></filter><filter id="i" width="7" height="9" x="82" y="162" color-interpolation-filters="sRGB" filterUnits="userSpaceOnUse"><feFlood flood-opacity="0" result="BackgroundImageFix"/><feBlend in="SourceGraphic" in2="BackgroundImageFix" result="shape"/><feColorMatrix in="SourceAlpha" result="hardAlpha" values="0 0 0 0 0 0 0 0 0 0 0 0 0 0 0 0 0 0 127 0"/><feOffset dx="1" dy="1"/><feComposite in2="hardAlpha" k2="-1" k3="1" operator="arithmetic"/><feColorMatrix values="0 0 0 0 0.74902 0 0 0 0 0.619608 0 0 0 0 0.45098 0 0 0 1 0"/><feBlend in2="shape" result="effect1_innerShadow_0_152422"/></filter><filter id="j" width="7" height="9" x="123" y="162" color-interpolation-filters="sRGB" filterUnits="userSpaceOnUse"><feFlood flood-opacity="0" result="BackgroundImageFix"/><feBlend in="SourceGraphic" in2="BackgroundImageFix" result="shape"/><feColorMatrix in="SourceAlpha" result="hardAlpha" values="0 0 0 0 0 0 0 0 0 0 0 0 0 0 0 0 0 0 127 0"/><feOffset dx="1" dy="1"/><feComposite in2="hardAlpha" k2="-1" k3="1" operator="arithmetic"/><feColorMatrix values="0 0 0 0 0.74902 0 0 0 0 0.619608 0 0 0 0 0.45098 0 0 0 1 0"/><feBlend in2="shape" result="effect1_innerShadow_0_152422"/></filter><filter id="k" width="7" height="9" x="61" y="162" color-interpolation-filters="sRGB" filterUnits="userSpaceOnUse"><feFlood flood-opacity="0" result="BackgroundImageFix"/><feBlend in="SourceGraphic" in2="BackgroundImageFix" result="shape"/><feColorMatrix in="SourceAlpha" result="hardAlpha" values="0 0 0 0 0 0 0 0 0 0 0 0 0 0 0 0 0 0 127 0"/><feOffset dx="1" dy="1"/><feComposite in2="hardAlpha" k2="-1" k3="1" operator="arithmetic"/><feColorMatrix values="0 0 0 0 0.74902 0 0 0 0 0.619608 0 0 0 0 0.45098 0 0 0 1 0"/><feBlend in2="shape" result="effect1_innerShadow_0_152422"/></filter><filter id="l" width="7" height="9" x="102" y="162" color-interpolation-filters="sRGB" filterUnits="userSpaceOnUse"><feFlood flood-opacity="0" result="BackgroundImageFix"/><feBlend in="SourceGraphic" in2="BackgroundImageFix" result="shape"/><feColorMatrix in="SourceAlpha" result="hardAlpha" values="0 0 0 0 0 0 0 0 0 0 0 0 0 0 0 0 0 0 127 0"/><feOffset dx="1" dy="1"/><feComposite in2="hardAlpha" k2="-1" k3="1" operator="arithmetic"/><feColorMatrix values="0 0 0 0 0.74902 0 0 0 0 0.619608 0 0 0 0 0.45098 0 0 0 1 0"/><feBlend in2="shape" result="effect1_innerShadow_0_152422"/></filter><filter id="m" width="7" height="9" x="144" y="162" color-interpolation-filters="sRGB" filterUnits="userSpaceOnUse"><feFlood flood-opacity="0" result="BackgroundImageFix"/><feBlend in="SourceGraphic" in2="BackgroundImageFix" result="shape"/><feColorMatrix in="SourceAlpha" result="hardAlpha" values="0 0 0 0 0 0 0 0 0 0 0 0 0 0 0 0 0 0 127 0"/><feOffset dx="1" dy="1"/><feComposite in2="hardAlpha" k2="-1" k3="1" operator="arithmetic"/><feColorMatrix values="0 0 0 0 0.74902 0 0 0 0 0.619608 0 0 0 0 0.45098 0 0 0 1 0"/><feBlend in2="shape" result="effect1_innerShadow_0_152422"/></filter><filter id="n" width="7" height="9" x="154" y="162" color-interpolation-filters="sRGB" filterUnits="userSpaceOnUse"><feFlood flood-opacity="0" result="BackgroundImageFix"/><feBlend in="SourceGraphic" in2="BackgroundImageFix" result="shape"/><feColorMatrix in="SourceAlpha" result="hardAlpha" values="0 0 0 0 0 0 0 0 0 0 0 0 0 0 0 0 0 0 127 0"/><feOffset dx="1" dy="1"/><feComposite in2="hardAlpha" k2="-1" k3="1" operator="arithmetic"/><feColorMatrix values="0 0 0 0 0.74902 0 0 0 0 0.619608 0 0 0 0 0.45098 0 0 0 1 0"/><feBlend in2="shape" result="effect1_innerShadow_0_152422"/></filter></defs></svg>