<svg xmlns="http://www.w3.org/2000/svg" width="192" height="192" fill="none"><rect width="152" height="152" x="20" y="20" fill="#728DBE" rx="10"/><path fill="#F9DE81" fill-rule="evenodd" d="m57 95.595 5.762 1.124s4.837-3.897.796-4.633c-4.04-.736-6.558 3.51-6.558 3.51Zm0 4.529L62.762 99s4.837 3.898.796 4.634c-4.04.736-6.558-3.51-6.558-3.51Z" clip-rule="evenodd"/><path fill="#56595B" fill-rule="evenodd" d="M114.579 85.967c-1.146.902-10.653.966-10.653.966l3.366 10.027-3.142 9.361s9.507.064 10.652.965c1.146.902 14.304 6.018 19.4 4.413 2.884-.909 5.115-5.614 6.97-9.525 1.422-2.998 2.623-5.53 3.728-5.53.2 0 .139-.009-.143-.024.067-.006.044-.01-.081-.01-1.105 0-2.305-2.532-3.727-5.53-1.855-3.911-4.086-8.616-6.971-9.525-5.096-1.605-18.253 3.511-19.399 4.412Z" clip-rule="evenodd"/><path fill="#9ABEFF" fill-rule="evenodd" d="M83.636 118.11c17.672.465 29.004-16.235 62.217-21.61-33.213-5.499-41.22-20.99-62.217-21.61C71.703 74.538 62 84.565 62 96.5c0 11.935 9.7 21.296 21.636 21.61Z" clip-rule="evenodd"/><path fill="#F9DE81" fill-rule="evenodd" d="M83.954 111.119c7.908 0 14.319-6.403 14.319-14.301 0-7.898-6.41-14.301-14.319-14.301-7.907 0-14.318 6.403-14.318 14.3 0 7.899 6.41 14.302 14.319 14.302Z" clip-rule="evenodd"/><path fill="#56595B" fill-rule="evenodd" d="M84.59 102.856A5.406 5.406 0 0 0 90 97.453a5.406 5.406 0 0 0-5.41-5.402 5.406 5.406 0 0 0-5.408 5.402 5.406 5.406 0 0 0 5.409 5.403Z" clip-rule="evenodd"/><path fill="#fff" fill-rule="evenodd" d="M87.773 96.5a2.226 2.226 0 1 0 0-4.45 2.226 2.226 0 1 0 0 4.45Z" clip-rule="evenodd"/><path fill="#9ABEFF" fill-rule="evenodd" d="M81.28 73.184c-1.58 2.087-5.161 2.958-5.161 2.958l3.275 1.54 6.988.766s4.028-2.306 2.323-3.128c-1.706-.821-1.4-1.703.329-4.075 1.727-2.372 2.23-2.44 4.205-2.44 1.78 0 1.717-4.442 1.687-6.52a34.3 34.3 0 0 1-.006-.587c0-1.641-.776-3.473-2.725-1.994-1.779 1.35-8.09 9.73-10.378 12.768l-.537.712Zm-.119 46.377c-1.58-2.087-5.161-2.958-5.161-2.958l3.275-1.541 6.989-.765s4.027 2.306 2.322 3.128c-1.705.821-1.4 1.703.329 4.075 1.728 2.372 2.23 2.441 4.205 2.441 1.78 0 1.717 4.441 1.687 6.518-.003.228-.006.426-.006.588 0 1.641-.776 3.473-2.724 1.994-1.78-1.351-8.091-9.731-10.379-12.768l-.537-.712Z" clip-rule="evenodd"/><path fill="#56595B" fill-rule="evenodd" d="M98.236 96.621h3.505s1.458-2.386 2.671-2.274c1.213.112 2.06 1.313 2.06 2.71 0 1.399-.55 3.302-2.06 3.302s-2.671-2.463-2.671-2.463h-3.505v-1.275Z" clip-rule="evenodd"/><rect width="3" height="5" x="108" y="95" fill="#56595B" rx="1.5"/><path fill="#56595B" fill-rule="evenodd" d="M113 97.5a1.5 1.5 0 1 1 3 0 1.5 1.5 0 0 1-3 0Zm5 .091c0-.326.265-.591.591-.591h.289a.591.591 0 1 1 0 1.182h-.289a.591.591 0 0 1-.591-.59Z" clip-rule="evenodd"/><path fill="#fff" fill-opacity=".5" fill-rule="evenodd" d="M53.5 92a2.5 2.5 0 1 0 0-5 2.5 2.5 0 0 0 0 5Zm3-12a3.5 3.5 0 1 0 0-7 3.5 3.5 0 0 0 0 7Zm-4-14a3.5 3.5 0 1 0 0-7 3.5 3.5 0 0 0 0 7Zm2-13a4.5 4.5 0 1 0 0-9 4.5 4.5 0 0 0 0 9ZM46 70a2 2 0 1 0 0-4 2 2 0 0 0 0 4Z" clip-rule="evenodd"/></svg>