<svg xmlns="http://www.w3.org/2000/svg" width="192" height="192" fill="none"><rect width="152" height="152" x="20" y="20" fill="#83868C" rx="10"/><rect width="42" height="88" x="75" y="96" fill="#9ABEFF" rx="7"/><path fill="#fff" fill-rule="evenodd" d="M57 63a7 7 0 0 1 7-7h66a7 7 0 0 1 7 7v46a7 7 0 0 1-7 7H64a7 7 0 0 1-7-7V63Z" clip-rule="evenodd"/><path fill="#F8C18C" d="M57 20h80v48H57z"/><path fill="#54688C" fill-rule="evenodd" d="M57 103a7 7 0 0 1 7-7h66a7 7 0 0 1 7 7v25a7 7 0 0 1-7 7H64a7 7 0 0 1-7-7v-25Z" clip-rule="evenodd"/><rect width="90" height="20" x="51" y="96" fill="#9ABEFF" rx="7"/><path fill="#F9DE81" fill-rule="evenodd" d="M57 62.926a7 7 0 0 1 7-7h66a7 7 0 0 1 7 7v17.822a8 8 0 0 1-8 8h-.183a8 8 0 0 1-8-8V77a8 8 0 0 0-8-8h-.202a8 8 0 0 0-8 8v27.131a8 8 0 0 1-8 8h-1.173a8 8 0 0 1-8-8V84c0-4.42-3.623-8-8.04-8-4.42 0-8.041 3.58-8.041 8v14.568a7.18 7.18 0 0 1-7.18 7.18A7.18 7.18 0 0 1 57 98.568V62.926Z" clip-rule="evenodd"/></svg>