<?xml version="1.0" encoding="utf-8"?>
<!-- Generator: Adobe Illustrator 27.6.1, SVG Export Plug-In . SVG Version: 6.00 Build 0)  -->
<svg version="1.1" id="Layer_1" xmlns="http://www.w3.org/2000/svg" xmlns:xlink="http://www.w3.org/1999/xlink" x="0px" y="0px"
	 viewBox="0 0 192 192" style="enable-background:new 0 0 192 192;" xml:space="preserve">
<style type="text/css">
	.st0{fill:#56595B;}
	.st1{fill-rule:evenodd;clip-rule:evenodd;fill:#B1B5BD;}
	.st2{fill-rule:evenodd;clip-rule:evenodd;fill:#728DBE;}
	.st3{fill-rule:evenodd;clip-rule:evenodd;fill:#FFFFFF;}
</style>
<path class="st0" d="M30,68h132c5.5,0,10,4.5,10,10v84c0,5.5-4.5,10-10,10H30c-5.5,0-10-4.5-10-10V78C20,72.5,24.5,68,30,68z"/>
<path class="st1" d="M36,85c-2.8,0-5,2.2-5,5s2.2,5,5,5s5-2.2,5-5S38.8,85,36,85z M156,127c-2.8,0-5,2.2-5,5c0,2.8,2.2,5,5,5l0,0
	c2.8,0,5-2.2,5-5C161,129.2,158.8,127,156,127z M151,111c0-2.8,2.2-5,5-5c2.8,0,5,2.2,5,5s-2.2,5-5,5C153.2,116,151,113.8,151,111z
	 M156,85c-2.8,0-5,2.2-5,5s2.2,5,5,5s5-2.2,5-5S158.8,85,156,85z M131,132c0-2.8,2.2-5,5-5s5,2.2,5,5s-2.2,5-5,5S131,134.8,131,132z
	 M136,106c-2.8,0-5,2.2-5,5c0,2.8,2.2,5,5,5l0,0c2.8,0,5-2.2,5-5C141,108.2,138.8,106,136,106z M131,90c0-2.8,2.2-5,5-5s5,2.2,5,5
	s-2.2,5-5,5S131,92.8,131,90z M116,127c-2.8,0-5,2.2-5,5s2.2,5,5,5c2.8,0,5-2.2,5-5S118.8,127,116,127z M111,111c0-2.8,2.2-5,5-5
	s5,2.2,5,5s-2.2,5-5,5S111,113.8,111,111L111,111z M116,85c-2.8,0-5,2.2-5,5s2.2,5,5,5s5-2.2,5-5S118.8,85,116,85z M91,132
	c0-2.8,2.2-5,5-5s5,2.2,5,5s-2.2,5-5,5S91,134.8,91,132z M96,106c-2.8,0-5,2.2-5,5s2.2,5,5,5s5-2.2,5-5S98.8,106,96,106z M91,90
	c0-2.8,2.2-5,5-5s5,2.2,5,5s-2.2,5-5,5S91,92.8,91,90z M76,127c-2.8,0-5,2.2-5,5s2.2,5,5,5s5-2.2,5-5S78.8,127,76,127z M71,111
	c0-2.8,2.2-5,5-5s5,2.2,5,5s-2.2,5-5,5S71,113.8,71,111z M76,85c-2.8,0-5,2.2-5,5s2.2,5,5,5s5-2.2,5-5S78.8,85,76,85z M51,132
	c0-2.8,2.2-5,5-5s5,2.2,5,5s-2.2,5-5,5S51,134.8,51,132z M56,106c-2.8,0-5,2.2-5,5s2.2,5,5,5s5-2.2,5-5S58.8,106,56,106z M51,90
	c0-2.8,2.2-5,5-5s5,2.2,5,5s-2.2,5-5,5S51,92.8,51,90z M36,127c-2.8,0-5,2.2-5,5s2.2,5,5,5s5-2.2,5-5S38.8,127,36,127z M31,111
	c0-2.8,2.2-5,5-5s5,2.2,5,5s-2.2,5-5,5S31,113.8,31,111z M60,151c-2.8,0-5,2.2-5,5s2.2,5,5,5h75c2.8,0,5-2.2,5-5s-2.2-5-5-5H60z"/>
<path class="st2" d="M96,108c22.1,0,40-17.9,40-40s-17.9-40-40-40S56,45.9,56,68S73.9,108,96,108z"/>
<path class="st3" d="M98.9,53.9h-0.2v-0.1h-0.9v-0.1h-1.2v-0.1H94v-0.1h-0.9v0.1h-2.6v0.1h-1.3v0.1h-1v0.1h-0.8V54h-0.8v0.1h-0.5
	v0.1h-0.1v0.1h0.1v0.1h3.1v0.1h1.6v0.1h1v0.1h0.9v0.1h0.8v0.1h0.7v0.1h0.6v0.1h0.6v0.1h0.5V55h0.6v0.1h0.5v0.1h0.4v0.1h0.5v0.1h0.4
	v0.1h0.4v0.1h0.4v0.1h0.3v0.1h0.4v0.1h0.3v0.1h0.3v0.1h0.3v0.1h0.3V56h0.3v0.1h0.2v0.1h0.3v0.1h0.2v0.1h0.2v0.1h0.3v0.1h0.2v0.1h0.2
	v0.1h0.2v0.1h0.2v0.1h0.2v0.1h0.2V57h0.2V57h0.2v0.1h0.2v0.1h0.2v0.1h0.2v0.1h0.2v0.1h0.2v0.1h0.2v0.1h0.2v0.1h0.2v0.1h0.2v0.1h0.2
	v0.1h0.2V58h0.2v0.1h0.2v0.1h0.2v0.1h0.2v0.1h0.2v0.1h0.2v0.1h0.2v0.1h0.2v0.1h0.1v0.1h0.2v0.1h0.2v0.1h0.2v0.1h0.1V59h0.2v0.1h0.2
	v0.1h0.1v0.1h0.2v0.1h0.1v0.1h0.2v0.1h0.2v0.1h0.1v0.1h0.1v0.1h0.2v0.1h0.1v0.1h0.2v0.1h0.1V60h0.1v0.1h0.2v0.1h0.1v0.1h0.1v0.1h0.2
	v0.1h0.1v0.1h0.1v0.1h0.1v0.1h0.1v0.1h0.2v0.1h0.1v0.1h0.1v0.1h0.1V61h0.1v0.1h0.1v0.1h0.1v0.1h0.1v0.1h0.1v0.1h0.1v0.1h0.1v0.1h0.1
	v0.1h0.1v0.1h0.1v0.1h0.1v0.1h0.1V62h0.1V62h0.1v0.1h0.1v0.1h0.1v0.1h0.1v0.2h0.1v0.1h0.1v0.1h0.1v0.1h0.1v0.2h0.1v0.1h0.1V63h0.1
	v0.2h0.1v0.1h0.1v0.1h0.1v0.2h0.1v0.1h0.1v0.2h0.1v0.1h0.1v0.2h0.1v0.2h0.1v0.1h0.1v0.2h0.1v0.2h0.1v0.2h0.1v0.2h0.1v0.2h0.1v0.2
	h0.1v0.2h0.1v0.2h0.1v0.2h0.1v0.2h0.1V66h0.1v0.2h0.1v0.2h0.1v0.3h0.1v0.2h0.1v0.3h0.1v0.4h0.1v0.4h0.1v0.5h0.1v0.9h0.1v1.6h0.2
	v-0.1h0.1v-0.4h0.1v-0.4h0.1v-0.5h0.1v-0.6h0.1v-0.8h0.1v-2.4h-0.1v-0.7h-0.1v-0.5h-0.1v-0.4h-0.1v-0.4h-0.1v-0.2h-0.1v-0.1h-0.1
	v-0.3h-0.1v-0.2h-0.1v-0.2h-0.1v-0.2h-0.1v-0.2h-0.1v-0.2H115v-0.2h-0.1v-0.2h-0.1V62h-0.1v-0.2h-0.1v-0.2h-0.1v-0.2h-0.1v-0.2h-0.1
	v-0.1h-0.1v-0.2h-0.1v-0.2h-0.1v-0.1h-0.1v-0.2H114v-0.1H114v-0.2h-0.1v-0.1h-0.1v-0.1h-0.1v-0.2h-0.1v-0.1h-0.1V60h-0.1v-0.1h-0.1
	v-0.2h-0.1v-0.1h-0.1v-0.1h-0.1v-0.1h-0.1v-0.1H113v-0.1h-0.1v-0.1h-0.1v-0.1h-0.1v-0.1h-0.1v-0.1h-0.1V59h-0.1v-0.1h-0.1v-0.1h-0.1
	v-0.1h-0.1v-0.1h-0.1v-0.1h-0.1v-0.1h-0.1v-0.1H112v-0.1h-0.1v-0.1h-0.2v-0.1h-0.1v-0.1h-0.1v-0.1h-0.2V58h-0.1v-0.1h-0.1v-0.1h-0.2
	v-0.1H111v-0.1h-0.2v-0.1h-0.1v-0.1h-0.2v-0.1h-0.1v-0.1h-0.2v-0.1h-0.1v-0.1h-0.2v-0.1H110V57h-0.1V57h-0.2v-0.1h-0.2v-0.1h-0.2
	v-0.1h-0.2v-0.1h-0.2v-0.1H109v-0.1h-0.2v-0.1h-0.2v-0.1h-0.2v-0.1h-0.2v-0.1h-0.2v-0.1H108V56h-0.2v-0.1h-0.2v-0.1h-0.2v-0.1h-0.2
	v-0.1H107v-0.1h-0.2v-0.1h-0.2v-0.1h-0.2v-0.1h-0.2v-0.1h-0.2v-0.1h-0.2v-0.1h-0.3v-0.1h-0.1V55H105v-0.1h-0.3v-0.1h-0.3v-0.1h-0.3
	v-0.1h-0.3v-0.1h-0.4v-0.1H103v-0.1h-0.4v-0.1h-0.5v-0.1h-0.4v-0.1h-0.6v-0.1h-0.5v-0.1h-0.6V54h-0.6v-0.1L98.9,53.9L98.9,53.9z
	 M112.8,75.5v0.4h-0.1v0.3h-0.1v0.2h-0.2v-0.3h-0.1v-1.4h-0.1v-0.6h-0.1v-0.5h-0.1v-0.4h-0.1v-0.3H112v-0.4h-0.1v-0.2h-0.1v-0.3
	h-0.1v-0.2h-0.1v-0.2h-0.1v-0.2h-0.1V71h-0.1v-0.2h-0.1v-0.2h-0.1v-0.2h-0.1v-0.2h-0.1v-0.2H111V70H111v-0.2h-0.1v-0.2h-0.1v-0.1
	h-0.1v-0.2h-0.1v-0.2h-0.1V69h-0.1v-0.2h-0.1v-0.1h-0.1v-0.2h-0.1v-0.2h-0.1v-0.1h-0.1v-0.2H110v-0.1h-0.1V68h-0.1v-0.1h-0.1v-0.2
	h-0.1v-0.1h-0.1v-0.1h-0.1v-0.2h-0.1v-0.1h-0.1v-0.1h-0.1v-0.2h-0.1v-0.1h-0.1V67h-0.1v-0.1H109v-0.2h-0.1v-0.1h-0.1v-0.1h-0.1v-0.1
	h-0.1v-0.1h-0.1v-0.1h-0.1v-0.1h-0.1v-0.2h-0.1V66h-0.1V66h-0.1v-0.1h-0.1v-0.1h-0.1v-0.1H108v-0.1h-0.1v-0.1h-0.1v-0.1h-0.1v-0.1
	h-0.1v-0.1h-0.1v-0.1h-0.1v-0.1h-0.1v-0.1h-0.2V65h-0.1v-0.1h-0.1v-0.1H107v-0.1H107v-0.1h-0.1v-0.1h-0.1v-0.1h-0.2v-0.1h-0.1v-0.1
	h-0.1v-0.1h-0.1v-0.1h-0.1v-0.1h-0.2v-0.1h-0.1V64H106v-0.1h-0.1v-0.1h-0.2v-0.1h-0.1v-0.1h-0.1v-0.1h-0.2v-0.1h-0.1v-0.1h-0.1v-0.1
	h-0.2v-0.1h-0.1v-0.1h-0.2v-0.1h-0.1v-0.1h-0.2V63h-0.1v-0.1h-0.2v-0.1h-0.1v-0.1h-0.2v-0.1h-0.1v-0.1H104v-0.1h-0.1v-0.1h-0.2v-0.1
	h-0.2v-0.1h-0.1v-0.1h-0.2v-0.1h-0.2V62h-0.1V62H103v-0.1h-0.2v-0.1h-0.2v-0.1h-0.1v-0.1h-0.2v-0.1h-0.2v-0.1h-0.2v-0.1h-0.2v-0.1
	h-0.2v-0.1h-0.2v-0.1h-0.2v-0.1h-0.2V61h-0.2v-0.1H101v-0.1h-0.2v-0.1h-0.2v-0.1h-0.2v-0.1h-0.2v-0.1h-0.2v-0.1H100v-0.1h-0.2v-0.1
	h-0.2v-0.1h-0.2v-0.1h-0.2v-0.1h-0.2V60h-0.2v-0.1h-0.2v-0.1h-0.2v-0.1h-0.2v-0.1h-0.2v-0.1h-0.2v-0.1h-0.2v-0.1h-0.2v-0.1h-0.2
	v-0.1h-0.2v-0.1h-0.2v-0.1h-0.2v-0.1h-0.2V59h-0.2v-0.1H96v-0.1h-0.2v-0.1h-0.2v-0.1h-0.2v-0.1H95v-0.1h-0.2v-0.1h-0.3v-0.1h-0.2
	v-0.1H94v-0.1h-0.3v-0.1h-0.2v-0.1h-0.3V58h-0.3v-0.1h-0.2v-0.1h-0.3v-0.1H92v-0.1h-0.3v-0.1h-0.3v-0.1H91v-0.1h-0.3v-0.1h-0.4v-0.1
	H90v-0.1h-0.4v-0.1h-0.4V57h-0.4V57h-0.4v-0.1H88v-0.1h-0.4v-0.1h-0.5v-0.1h-0.4v-0.1h-0.5v-0.1h-0.6v-0.1h-0.5v-0.1h-0.6v-0.1h-0.6
	v-0.1h-0.7v-0.1h-0.6V56h-0.7v-0.1h-0.9v-0.1h-0.7v-0.2h5v0.1H87v0.1h1.1v0.1H89V56h0.8v0.1h0.8v0.1h0.6v0.1h0.6v0.1h0.6v0.1H93v0.1
	h0.5v0.1h0.5v0.1h0.5v0.1h0.5v0.1h0.4v0.1h0.4V57H96V57h0.4v0.1h0.3v0.1h0.4v0.1h0.3v0.1h0.3v0.1h0.3v0.1h0.3v0.1h0.3v0.1h0.2v0.1
	h0.3v0.1h0.2v0.1h0.3V58h0.2v0.1h0.3v0.1h0.2v0.1h0.2v0.1h0.2v0.1h0.2v0.1h0.2v0.1h0.2v0.1h0.2v0.1h0.2v0.1h0.2v0.1h0.2v0.1h0.2V59
	h0.2v0.1h0.2v0.1h0.2v0.1h0.2v0.1h0.2v0.1h0.2v0.1h0.2v0.1h0.2v0.1h0.2v0.1h0.2v0.1h0.2v0.1h0.2v0.1h0.2V60h0.2v0.1h0.2v0.1h0.2v0.1
	h0.2v0.1h0.1v0.1h0.2v0.1h0.2v0.1h0.2v0.1h0.1v0.1h0.2v0.1h0.2v0.1h0.1v0.1h0.2V61h0.1v0.1h0.2v0.1h0.1v0.1h0.2v0.1h0.1v0.1h0.2v0.1
	h0.1v0.1h0.2v0.1h0.1v0.1h0.1v0.1h0.2v0.1h0.1V62h0.1V62h0.2v0.1h0.1v0.1h0.1v0.1h0.1v0.1h0.1v0.1h0.1v0.1h0.2v0.1h0.1v0.1h0.1v0.1
	h0.1v0.1h0.1v0.1h0.1V63h0.1v0.1h0.1v0.1h0.1v0.1h0.1v0.1h0.1v0.1h0.1v0.1h0.1v0.1h0.1v0.1h0.1v0.1h0.1v0.1h0.1v0.1h0.1v0.1h0.1V64
	h0.1v0.2h0.1v0.1h0.1v0.1h0.1v0.1h0.1v0.2h0.1v0.1h0.1v0.1h0.1v0.2h0.1v0.1h0.1V65h0.1v0.2h0.1v0.1h0.1v0.2h0.1v0.2h0.1v0.1h0.1v0.2
	h0.1V66h0.1V66h0.1v0.2h0.1v0.1h0.1v0.2h0.1v0.2h0.1v0.2h0.1v0.2h0.1v0.2h0.1v0.2h0.1v0.2h0.1v0.2h0.1v0.2h0.1v0.3h0.1v0.2h0.1v0.3
	h0.1v0.4h0.1v0.4h0.1v0.5h0.1v0.9h0.1v1.5h-0.1v0.9h-0.1v0.6H113v0.5h-0.1v0.5h-0.1L112.8,75.5L112.8,75.5L112.8,75.5z M79.3,57.4
	h0.8v0.1h0.7v0.1h0.6v0.1h0.6v0.1h0.6v0.1h0.5v0.1h0.6V58h0.5v0.1h0.5v0.1H85v0.1h0.5v0.1h0.4v0.1h0.4v0.1h0.4v0.1h0.4v0.1h0.4v0.1
	h0.3v0.1h0.3v0.1h0.4v0.1h0.3V59h0.3v0.1h0.3v0.1h0.3v0.1h0.3v0.1h0.3v0.1h0.3v0.1h0.2v0.1h0.3v0.1h0.2v0.1h0.3v0.1H92v0.1h0.3v0.1
	h0.2V60h0.2v0.1h0.2v0.1h0.2v0.1h0.2v0.1h0.2v0.1H94v0.1h0.2v0.1h0.2v0.1h0.2v0.1h0.2v0.1h0.2v0.1h0.2v0.1h0.2V61h0.2v0.1H96v0.1
	h0.2v0.1h0.2v0.1h0.2v0.1h0.2v0.1h0.2v0.1h0.2v0.1h0.2v0.1h0.2v0.1h0.2v0.1h0.2V62h0.2V62h0.2v0.1h0.2v0.1h0.2v0.1h0.2v0.1h0.2v0.1
	h0.2v0.1h0.2v0.1h0.1v0.1h0.2v0.1h0.2v0.1h0.2v0.1h0.2V63h0.2v0.1h0.2v0.1h0.2v0.1h0.1v0.1h0.2v0.1h0.2v0.1h0.1v0.1h0.2v0.1h0.2v0.1
	h0.1v0.1h0.2v0.1h0.2v0.1h0.1V64h0.2v0.1h0.1v0.1h0.2v0.1h0.1v0.1h0.2v0.1h0.1v0.1h0.2v0.1h0.1v0.1h0.1v0.1h0.2v0.1h0.1v0.1h0.2v0.1
	h0.1V65h0.1v0.1h0.2v0.1h0.1v0.1h0.1v0.1h0.1v0.1h0.2v0.1h0.1v0.1h0.1v0.1h0.1v0.1h0.1v0.1h0.2v0.1h0.1V66h0.1V66h0.1v0.1h0.1v0.1
	h0.1v0.1h0.1v0.1h0.1v0.1h0.1v0.1h0.1v0.1h0.2v0.1h0.1v0.1h0.1v0.1h0.1v0.1h0.1V67h0.1v0.1h0.1v0.2h0.1v0.1h0.1v0.1h0.1v0.1h0.1v0.1
	h0.1v0.1h0.1v0.1h0.1v0.1h0.1v0.1h0.1V68h0.1v0.1h0.1v0.1h0.1v0.1h0.1v0.2h0.1v0.1h0.1v0.1h0.1v0.2h0.1v0.1h0.1v0.1h0.1V69h0.1v0.1
	h0.1v0.2h0.1v0.1h0.1v0.2h0.1v0.1h0.1v0.2h0.1v0.2h0.1V70h0.1v0.2h0.1v0.2h0.1v0.2h0.1v0.1h0.1v0.2h0.1v0.2h0.1V71h0.1v0.2h0.1v0.2
	h0.1v0.2h0.1v0.2h0.1v0.2h0.1v0.2h0.1v0.2h0.1v0.2h0.1v0.2h0.1V73h0.1v0.3h0.1v0.3h0.1V74h0.1v0.4h0.1v0.5h0.1v0.5h0.1v0.9h0.1V78
	h-0.1V79h-0.1v0.5h-0.2v-0.2h-0.1V79h-0.1v-0.3H109v-0.2h-0.1v-0.3h-0.1v-0.2h-0.1v-0.2h-0.1v-0.2h-0.1v-0.2h-0.1v-0.2h-0.1v-0.2
	h-0.1v-0.2h-0.1v-0.2h-0.1v-0.2h-0.1V76h-0.1v-0.2H108v-0.2h-0.1v-0.2h-0.1v-0.2h-0.1v-0.2h-0.1V75h-0.1v-0.1h-0.1v-0.2h-0.1v-0.2
	h-0.1v-0.2h-0.1v-0.2h-0.1v-0.1h-0.1V74H107v-0.2H107v-0.1h-0.1v-0.2h-0.1v-0.2h-0.1v-0.1h-0.1v-0.2h-0.1v-0.1h-0.1V73h-0.1v-0.1
	h-0.1v-0.2h-0.1v-0.1h-0.1v-0.2h-0.1v-0.1H106v-0.1h-0.1v-0.2h-0.1v-0.1h-0.1v-0.1h-0.1v-0.2h-0.1v-0.1h-0.1v-0.1h-0.1v-0.2h-0.1
	v-0.1h-0.1v-0.1h-0.1v-0.1h-0.1v-0.2h-0.1v-0.1H105v-0.1h-0.1V71h-0.1v-0.1h-0.1v-0.1h-0.1v-0.1h-0.1v-0.2h-0.1v-0.1h-0.1v-0.1h-0.1
	v-0.1h-0.1v-0.1h-0.1v-0.1h-0.1v-0.1h-0.1V70H104V70h-0.1v-0.1h-0.1v-0.1h-0.1v-0.1h-0.1v-0.1h-0.1v-0.1h-0.1v-0.1h-0.1v-0.1h-0.1
	v-0.1h-0.1v-0.1h-0.1v-0.1h-0.1v-0.1H103V69H103v-0.1h-0.1v-0.1h-0.1v-0.1h-0.1v-0.1h-0.1v-0.1h-0.1v-0.1h-0.2v-0.1h-0.1v-0.1h-0.1
	v-0.1h-0.1v-0.1h-0.1v-0.1H102v-0.1h-0.1V68h-0.2v-0.1h-0.1v-0.1h-0.1v-0.1h-0.1v-0.1h-0.1v-0.1h-0.2v-0.1h-0.1v-0.1h-0.1v-0.1h-0.1
	v-0.1h-0.2v-0.1h-0.1v-0.1h-0.1v-0.1h-0.2V67h-0.1v-0.1h-0.1v-0.1h-0.2v-0.1h-0.1v-0.1h-0.1v-0.1H100v-0.1h-0.1v-0.1h-0.1v-0.1h-0.2
	v-0.1h-0.1v-0.1h-0.2v-0.1h-0.1V66h-0.2V66h-0.1v-0.1h-0.2v-0.1h-0.1v-0.1h-0.2v-0.1h-0.1v-0.1h-0.2v-0.1h-0.1v-0.1h-0.2v-0.1h-0.1
	v-0.1H98v-0.1h-0.1v-0.1h-0.2V65h-0.2v-0.1h-0.1v-0.1h-0.2v-0.1h-0.2v-0.1h-0.1v-0.1H97v-0.1h-0.2v-0.1h-0.1v-0.1h-0.2v-0.1h-0.2
	v-0.1h-0.2v-0.1h-0.1v-0.1H96V64h-0.2v-0.1h-0.2v-0.1h-0.2v-0.1h-0.2v-0.1h-0.1v-0.1h-0.2v-0.1H95v-0.1h-0.2v-0.1h-0.2v-0.1h-0.2
	v-0.1h-0.2v-0.1h-0.2v-0.1h-0.2V63h-0.2v-0.1h-0.2v-0.1h-0.2v-0.1h-0.2v-0.1h-0.2v-0.1h-0.2v-0.1h-0.2v-0.1h-0.2v-0.1h-0.2v-0.1
	h-0.2v-0.1h-0.2v-0.1h-0.2V62h-0.2V62h-0.2v-0.1h-0.2v-0.1h-0.2v-0.1h-0.2v-0.1H91v-0.1h-0.2v-0.1h-0.2v-0.1h-0.2v-0.1h-0.2v-0.1
	h-0.2v-0.1h-0.2v-0.1h-0.2V61h-0.2v-0.1h-0.2v-0.1H89v-0.1h-0.2v-0.1h-0.2v-0.1h-0.2v-0.1h-0.2v-0.1h-0.2v-0.1h-0.2v-0.1h-0.2v-0.1
	h-0.2v-0.1h-0.2v-0.1h-0.2V60h-0.2v-0.1h-0.2v-0.1h-0.2v-0.1h-0.2v-0.1h-0.2v-0.1h-0.2v-0.1h-0.2v-0.1H85v-0.1h-0.3v-0.1h-0.2v-0.1
	h-0.2v-0.1h-0.3v-0.1h-0.2V59h-0.3v-0.1h-0.2v-0.1h-0.3v-0.1h-0.2v-0.1h-0.3v-0.1h-0.3v-0.1h-0.2v-0.1h-0.3v-0.1H81v-0.1h-0.3v-0.1
	h-0.3v-0.1H80v-0.1h-0.3V58h-0.3v-0.1H79v-0.1h-0.3v-0.1h-0.4v-0.1h-0.4v-0.1h-0.4v-0.1h-0.4v-0.1h-0.5v-0.1h-0.5v-0.1H76v-0.2h0.2
	v0.1h1.3v0.1h1v0.1L79.3,57.4L79.3,57.4L79.3,57.4z M94.9,72.5L94.9,72.5l-0.2,0.1v0.1h-0.2v0.1h-0.2v0.1h-0.2v0.1h-0.2V73H94v0.1
	h-0.2v0.1h-0.2v0.1h-0.2v0.1h-0.2v0.1h-0.2v0.1h-0.2v0.1h-0.2v0.1h-0.2v0.1h-0.2v0.1h-0.2v0.1h-0.2V74H92V74h-0.2v0.1h-0.2v0.1h-0.2
	v0.1h-0.2v0.1h-0.2v0.1h-0.2v0.1h-0.2v0.1h-0.2v0.1h-0.2v0.1h-0.2v0.1h-0.2v0.1h-0.2V75h-0.2v0.1h-0.2v0.1h-0.2v0.1H89v0.1h-0.2v0.1
	h-0.2v0.1h-0.2v0.1h-0.2v0.1h-0.2v0.1h-0.2v0.1h-0.2v0.1h-0.2v0.1H87V76h-0.2v0.1h-0.2v0.1h-0.2v0.1h-0.2v0.1h-0.2v0.1h-0.2v0.1
	h-0.3v0.1H85v0.1h-0.2v0.1h-0.2v0.1h-0.2v0.1H84v0.1h-0.2V77h-0.3v0.1h-0.2v0.1h-0.3v0.1h-0.2v0.1h-0.3v0.1h-0.3v0.1h-0.3v0.1h-0.2
	v0.1h-0.3v0.1h-0.3v0.1h-0.3v0.1h-0.3v0.1h-0.4V78h-0.3v0.1h-0.3v0.1h-0.4v0.1h-0.3v0.1H78v0.1h-0.4v0.1h-0.4v0.1h-0.4v0.1h-0.5v0.1
	H76v0.2h0.9v-0.1H78v-0.1H79v-0.1h0.7v-0.1h0.8v-0.1h0.6v-0.1h0.6v-0.1h0.6v-0.1h0.6v-0.1h0.5v-0.1h0.5V78h0.5v-0.1h0.5v-0.1h0.5
	v-0.1h0.4v-0.1h0.4v-0.1h0.5v-0.1h0.3v-0.1h0.4v-0.1h0.4v-0.1h0.3v-0.1h0.4v-0.1h0.3v-0.1H89V77h0.3v-0.1h0.3v-0.1h0.3v-0.1h0.3
	v-0.1h0.3v-0.1h0.3v-0.1h0.2v-0.1h0.3v-0.1h0.2v-0.1H92v-0.1h0.2v-0.1h0.2v-0.1h0.2V76H93v-0.1h0.2v-0.1h0.2v-0.1h0.2v-0.1h0.2v-0.1
	h0.2v-0.1h0.2v-0.1h0.2v-0.1h0.2v-0.1H95v-0.1h0.2v-0.1h0.2v-0.1h0.2V75h0.2v-0.1H96v-0.1h0.2v-0.1h0.2v-0.1h0.2v-0.1h0.2v-0.1H97
	v-0.1h0.2v-0.1h0.2v-0.1h0.2v-0.1h0.2v-0.1h0.2V74H98V74h0.2v-0.1h0.2v-0.1h0.2v-0.1h0.2v-0.1h0.2v-0.1H99v-0.1h0.2v-0.1h0.1v-0.1
	h0.2v-0.1h0.2v-0.1h0.2v-0.1h0.2V73h0.2v-0.1h0.2v-0.1h0.1v-0.1h0.2v-0.1h0.2v-0.1h0.2v-0.1h0.1v-0.1h0.2v-0.1h0.2v-0.1h0.1v-0.1
	h0.2v-0.1h0.1v-0.1h0.2V72h0.2v-0.1h0.1v-0.1h0.2v-0.1h0.1v-0.1h0.1v-0.1h-0.1v-0.1H102v-0.1h-0.1v-0.1h-0.1v-0.1h-0.1v-0.1h-0.1
	v-0.1h-0.1v-0.1h-0.1V71h-0.1v-0.1h-0.1v-0.1h-0.1v-0.1h-0.1v-0.1h-0.2v-0.1H101v-0.1h-0.1v-0.1h-0.1v-0.1h-0.1v-0.1h-0.2v-0.1h-0.1
	v-0.1h-0.1V70h-0.1V70h-0.2v-0.1h-0.1v-0.1H100v-0.1h-0.2v-0.1h-0.2v0.1h-0.2v0.1h-0.1v0.1h-0.1V70h-0.2V70h-0.1v0.1H99v0.1h-0.1
	v0.1h-0.2v0.1h-0.1v0.1h-0.2v0.1h-0.1v0.1h-0.2v0.1h-0.2v0.1h-0.1v0.1h-0.2v0.1h-0.1V71h-0.2v0.1h-0.2v0.1h-0.1v0.1h-0.2v0.1h-0.1
	v0.1h-0.2v0.1h-0.2v0.1h-0.2v0.1h-0.1v0.1h-0.2v0.1h-0.2v0.1h-0.2v0.1h-0.1V72H96v0.1h-0.2v0.1h-0.2v0.1h-0.2v0.1h-0.2v0.1h-0.1v0.1
	h-0.2v0.1H94.9L94.9,72.5z M98.6,76.2L98.6,76.2L98.6,76.2l-0.3,0.1v0.1h-0.2v0.1h-0.2v0.1h-0.2v0.1h-0.2v0.1h-0.2v0.1H97v0.1h-0.2
	v0.1h-0.2V77h-0.2v0.1h-0.2v0.1h-0.2v0.1h-0.2v0.1h-0.2v0.1h-0.2v0.1h-0.3v0.1h-0.2v0.1h-0.2v0.1h-0.3v0.1h-0.2v0.1h-0.2v0.1h-0.3
	V78H93v0.1h-0.2v0.1h-0.3v0.1h-0.3v0.1h-0.3v0.1h-0.3v0.1h-0.3v0.1h-0.3v0.1h-0.4v0.1h-0.3v0.1h-0.3v0.1h-0.4V79H89V79h-0.4v0.1
	h-0.4v0.1h-0.4v0.1h-0.5v0.1H87v0.1h-0.5v0.1h-0.5v0.1h-0.6v0.1H85v0.1h-0.6v0.1h-0.5v0.1h-0.7V80h-0.6v0.1h-0.8v0.1h-1v0.1h-0.2
	v0.1h0.1v0.1h3.9v-0.1h1.8v-0.1h1.3v-0.1h1v-0.1h0.9V80h0.7v-0.1h0.7v-0.1h0.6v-0.1h0.6v-0.1h0.5v-0.1h0.6v-0.1h0.5v-0.1h0.5v-0.1
	h0.5v-0.1H95v-0.1h0.5v-0.1h0.3V79h0.4V79h0.4v-0.1H97v-0.1h0.3v-0.1h0.3v-0.1h0.3v-0.1h0.3v-0.1h0.3v-0.1h0.3v-0.1h0.2v-0.1h0.3
	v-0.1h0.3v-0.1h0.2V78h0.2v-0.1h0.2v-0.1h0.2v-0.1h0.2v-0.1h0.2v-0.1h0.2v-0.1h0.2v-0.1h0.2v-0.1h0.2v-0.1h0.2v-0.1h0.2v-0.1h0.2
	v-0.1h0.2V77h0.2v-0.1h0.2v-0.1h0.2v-0.1h0.2v-0.1h0.2v-0.1h0.2v-0.1h0.2v-0.1h0.2v-0.1h0.2v-0.1h0.2v-0.1h0.2v-0.1h0.2v-0.1h0.2V76
	h0.2v-0.1h0.1v-0.1h-0.1v-0.2h-0.1v-0.2h-0.1v-0.1H105v-0.2h-0.1v-0.2h-0.1v-0.1h-0.1v-0.2h-0.1v-0.1h-0.1v-0.2h-0.1v-0.2h-0.1v-0.1
	h-0.1v-0.2h-0.1v-0.1h-0.1V74h-0.1V74h-0.1v-0.1H104v-0.2h-0.1v-0.1h-0.2v0.1h-0.1v0.1h-0.2v0.1h-0.2V74h-0.1V74H103v0.1h-0.2v0.1
	h-0.2v0.1h-0.1v0.1h-0.2v0.1h-0.2v0.1h-0.2v0.1H102v0.1h-0.2v0.1h-0.2v0.1h-0.2v0.1h-0.2V75h-0.2v0.1h-0.2v0.1h-0.2v0.1h-0.2v0.1
	h-0.2v0.1h-0.2v0.1h-0.2v0.1h-0.2v0.1h-0.2v0.1h-0.2v0.1h-0.2v0.1h-0.2v0.1h-0.2V76H99v0.1h-0.2v0.1L98.6,76.2L98.6,76.2L98.6,76.2
	L98.6,76.2z M101.9,79.8h0.3v-0.1h0.2v-0.1h0.2v-0.1h0.2v-0.1h0.2v-0.1h0.2v-0.1h0.2v-0.1h0.2v-0.1h0.2V79h0.2V79h0.2v-0.1h0.2v-0.1
	h0.2v-0.1h0.2v-0.1h0.2v-0.1h0.2v-0.1h0.2v-0.1h0.2v-0.1h0.2v-0.1h0.2v-0.1h0.2v-0.1h0.1v0.2h0.1v0.2h0.1v0.2h0.1V79h0.1v0.2h0.1
	v0.2h0.1v0.2h0.1v0.2h0.1v0.3h0.1v0.2h-0.2v0.1h-0.2v0.1h-0.2v0.1h-0.2v0.1H106v0.1h-0.3v0.1h-0.2v0.1h-0.1V81h-0.3v0.1h-0.2v0.1
	h-0.3v0.1h-0.3v0.1h-0.3v0.1h-0.4v0.1h-0.3v0.1h-0.4v0.1h-0.4v0.1H102v0.1h-0.5v0.1H101v0.1h-0.6V82h-0.6v0.1h-0.6v0.1h-0.9v0.1h-1
	v0.1h-1.5v0.1h-4.4v-0.1h-1.6v-0.1h-1.2v-0.1h-0.9v-0.1H87V82h-0.7v-0.1h-0.2v-0.2h1.7v-0.1h2.2v-0.1h1.3v-0.1h0.9v-0.1h0.9v-0.1
	h0.7v-0.1h0.6v-0.1h0.6v-0.1h0.6v-0.1h0.6V81h0.5v-0.1h0.5v-0.1h0.4v-0.1H98v-0.1h0.4v-0.1h0.3v-0.1h0.4v-0.1h0.3v-0.1h0.4v-0.1h0.3
	v-0.1h0.3v-0.1h0.3v-0.1h0.3V80h0.2v-0.1h0.3v-0.1L101.9,79.8L101.9,79.8L101.9,79.8z"/>
</svg>
