<svg xmlns="http://www.w3.org/2000/svg" width="192" height="192" fill="none"><path fill="#4A4A4A" fill-rule="evenodd" d="M96.5 184c48.325 0 87.5-39.175 87.5-87.5S144.825 9 96.5 9 9 48.175 9 96.5 48.175 184 96.5 184Z" clip-rule="evenodd"/><mask id="a" width="175" height="175" x="9" y="9" maskUnits="userSpaceOnUse" style="mask-type:alpha"><path fill="#4A4A4A" fill-rule="evenodd" d="M96.5 184c48.325 0 87.5-39.175 87.5-87.5S144.825 9 96.5 9 9 48.175 9 96.5 48.175 184 96.5 184Z" clip-rule="evenodd"/></mask><g mask="url(#a)"><path fill="#98DC9A" d="M0-26h192v129H0z"/><path fill="#fff" fill-rule="evenodd" d="M82.626 117.308c8.948 6.42 21.467 4.285 27.962-4.768 6.495-9.053 34.677-82.547 34.677-82.547s-60.588 50.246-67.083 59.3c-6.494 9.052-4.505 21.595 4.444 28.015Z" clip-rule="evenodd"/></g><circle cx="95" cy="101" r="9" fill="#D8D8D8"/><path stroke="#fff" stroke-linecap="round" stroke-linejoin="round" stroke-width="5" d="M76.5 135.5h36"/></svg>