<svg xmlns="http://www.w3.org/2000/svg" width="192" height="192" fill="none"><rect width="152" height="152" fill="#9ABEFF" rx="10" transform="matrix(1 0 0 -1 22 173)"/><rect width="152" height="152" fill="#fff" rx="10" transform="matrix(1 0 0 -1 22 173)"/><mask id="a" width="152" height="152" x="22" y="21" maskUnits="userSpaceOnUse" style="mask-type:luminance"><rect width="152" height="152" fill="#fff" rx="10" transform="matrix(1 0 0 -1 22 173)"/></mask><g mask="url(#a)"><path fill="#9ABEFF" d="M19 48h159V15H19z"/></g><path stroke="#B1B5BD" stroke-linecap="square" stroke-width="5" d="M84.38 70.5h68.553m-68.553 13h68.553m-68.553 14h30.811"/><rect width="29" height="29" x="41" y="69" stroke="#B1B5BD" stroke-width="5" rx="5"/><path stroke="#B1B5BD" stroke-linecap="square" stroke-width="5" d="M84.38 120.5h68.553m-68.553 13h68.553m-68.553 14h30.811"/><rect width="29" height="29" x="41" y="119" stroke="#B1B5BD" stroke-width="5" rx="5"/></svg>