<svg xmlns="http://www.w3.org/2000/svg" width="192" height="192" fill="none"><rect width="175" height="175" x="8.5" y="8.5" fill="#9ABEFF" rx="87.5"/><mask id="a" width="176" height="176" x="8" y="8" maskUnits="userSpaceOnUse" style="mask-type:luminance"><rect width="175" height="175" x="8.5" y="8.5" fill="#fff" rx="87.5"/></mask><g mask="url(#a)"><path fill="#98DC9A" fill-rule="evenodd" d="M95.5 198c94.658 0 171.393-27.657 171.393-61.774 0-34.117-76.735-61.775-171.393-61.775S-75.893 102.11-75.893 136.226.842 198 95.5 198Z" clip-rule="evenodd"/><path fill="#4A4A4A" fill-rule="evenodd" d="M13.116 81.844s57.47 5.4 78.588 34.838c21.118 29.438 31.493 61.571 31.493 61.571s31.201-5.442 46.84-13.105c15.639-7.663 37.904-28.417 37.904-28.417s-35.436-36.476-76.969-49.854C89.439 73.5 39.734 77.738 39.734 77.738s-9.737 1.255-13.57 1.846c-3.83.591-13.049 2.26-13.049 2.26Z" clip-rule="evenodd"/><mask id="b" width="195" height="102" x="13" y="77" maskUnits="userSpaceOnUse" style="mask-type:luminance"><path fill="#fff" fill-rule="evenodd" d="M13.116 81.844s57.47 5.4 78.588 34.838c21.118 29.438 31.493 61.571 31.493 61.571s31.201-5.442 46.84-13.105c15.639-7.663 37.904-28.417 37.904-28.417s-35.436-36.476-76.969-49.854C89.439 73.5 39.734 77.738 39.734 77.738s-9.737 1.255-13.57 1.846c-3.83.591-13.049 2.26-13.049 2.26Z" clip-rule="evenodd"/></mask><g fill="#A0A5AF" fill-rule="evenodd" clip-rule="evenodd" mask="url(#b)"><path d="m32.928 80.2 23.922 3.153 9.453-2.847-26.334-1.381-7.041 1.076Zm48.534 7.31s5.883 1.811 14.644 5.886c8.76 4.074 12.175 9.593 12.175 9.593l8.606-4.664s-7.094-5.79-14.381-8.371C95.22 87.37 88.9 85.552 88.9 85.552l-7.438 1.958Zm61.507 41.811 11.133-4.197 25.356 26.219-15.486 7.219-21.003-29.241Z"/></g></g><path fill="#F8C18C" fill-rule="evenodd" d="m137.597 116.173-16.95 27.145-20.343-52.396 69.449 18.897-32.156 6.354Z" clip-rule="evenodd"/><path fill="#8E6F60" fill-rule="evenodd" d="m136.61 117.568-16.321 26.268 11.602-36.763 4.719 10.495Z" clip-rule="evenodd"/><path fill="#8E6F60" fill-rule="evenodd" d="m131.931 107.246-31.627-16.324 69.428 18.845-37.801-2.521Z" clip-rule="evenodd"/></svg>