<svg xmlns="http://www.w3.org/2000/svg" width="192" height="192" fill="none"><rect width="152" height="152" x="20" y="20" fill="#BD9AFF" rx="10"/><path fill="#fff" d="M121.484 64.268h-49.14v14.406h4.83c1.05 0 1.722-.546 1.932-1.596.084-.462.252-1.638.42-3.528h12.39v43.134c-1.05.21-1.89.336-2.478.462-.588.084-1.008.168-1.26.21-.21.042-.378.084-.504.084-1.428.294-2.1 1.176-2.1 2.646V125h24.024v-4.914c0-1.47-.714-2.352-2.142-2.646-.084 0-.294-.042-.504-.084-.252-.042-.63-.126-1.26-.21-.588-.126-1.428-.252-2.478-.462V73.55h12.39c.21 1.89.336 3.066.42 3.528.21 1.05.882 1.596 1.974 1.596h4.83V64.31l-1.344-.042Z"/></svg>