<svg xmlns="http://www.w3.org/2000/svg" width="192" height="192" fill="none"><rect width="174" height="126" x="9" y="33" fill="#BD9AFF" rx="10"/><path fill="#8C72BD" fill-rule="evenodd" d="M25.548 49.98C19.373 43.644 23.862 33 32.709 33h126.594c8.845 0 13.335 10.64 7.164 16.977l-63.274 64.971c-3.925 4.03-10.4 4.031-14.326.002l-63.32-64.97Z" clip-rule="evenodd"/><path fill="#8C72BD" fill-rule="evenodd" d="M32.71 154.386c-8.848 0-13.337-10.643-7.162-16.979l63.32-64.971c3.925-4.029 10.4-4.027 14.325.002l63.274 64.971c6.171 6.337 1.681 16.977-7.164 16.977h-.882c8.97 0 13.403-10.897 6.981-17.159L103.01 76.389a10 10 0 0 0-13.96-.003l-62.437 60.838c-6.425 6.261-1.993 17.162 6.98 17.162h-.884Z" clip-rule="evenodd"/><path fill="#BD9AFF" fill-rule="evenodd" d="M26.613 50.162C20.188 43.901 24.62 33 33.593 33H158.42c8.97 0 13.403 10.897 6.981 17.16l-62.392 60.837a9.999 9.999 0 0 1-13.96.003L26.613 50.162Z" clip-rule="evenodd"/><mask id="a" fill="#fff"><path fill-rule="evenodd" d="M42.175 146c0 6.59-5.374 12-12.087 12C23.373 158 18 152.59 18 146s5.374-12 12.087-12c6.714 0 12.088 5.41 12.088 12Zm-12.087 22c12.198 0 22.087-9.85 22.087-22s-9.889-22-22.087-22C17.887 124 8 133.85 8 146s9.889 22 22.087 22ZM101 146c0 6.59-5.374 12-12.088 12-6.713 0-12.087-5.41-12.087-12s5.374-12 12.087-12c6.714 0 12.088 5.41 12.088 12Zm-12.088 22c12.199 0 22.088-9.85 22.088-22s-9.889-22-22.088-22c-12.198 0-22.087 9.85-22.087 22s9.889 22 22.087 22Z" clip-rule="evenodd"/></mask><path fill="#fff" d="M30.087 168c12.208 0 22.088-9.859 22.088-22h-20c0 1.039-.87 2-2.087 2v20ZM8 146c0 12.141 9.88 22 22.087 22v-20c-1.218 0-2.087-.961-2.087-2H8Zm22.087-22C17.88 124 8 133.859 8 146h20c0-1.039.87-2 2.087-2v-20Zm22.088 22c0-12.141-9.88-22-22.087-22v20c1.218 0 2.087.961 2.087 2h20Zm-10 0c0 6.59-5.374 12-12.087 12v20c17.684 0 32.087-14.29 32.087-32h-20Zm-12.087-12c6.713 0 12.087 5.41 12.087 12h20c0-17.71-14.403-32-32.087-32v20ZM18 146c0-6.59 5.374-12 12.087-12v-20C12.404 114-2 128.29-2 146h20Zm12.087 12C23.374 158 18 152.59 18 146H-2c0 17.71 14.403 32 32.087 32v-20Zm58.825 10C101.12 168 111 158.141 111 146H91c0 1.039-.87 2-2.088 2v20Zm-22.087-22c0 12.141 9.88 22 22.087 22v-20c-1.218 0-2.087-.961-2.087-2h-20Zm22.087-22c-12.208 0-22.087 9.859-22.087 22h20c0-1.039.87-2 2.087-2v-20ZM111 146c0-12.141-9.88-22-22.088-22v20c1.219 0 2.088.961 2.088 2h20Zm-10 0c0 6.59-5.374 12-12.088 12v20C106.596 178 121 163.711 121 146h-20Zm-12.088-12c6.714 0 12.088 5.41 12.088 12h20c0-17.711-14.404-32-32.088-32v20Zm-12.087 12c0-6.59 5.374-12 12.087-12v-20c-17.684 0-32.087 14.29-32.087 32h20Zm12.087 12c-6.713 0-12.087-5.41-12.087-12h-20c0 17.71 14.403 32 32.087 32v-20Z" mask="url(#a)"/><path fill="#fff" fill-rule="evenodd" d="M30.087 158H90v10H30.087v-10Z" clip-rule="evenodd"/></svg>