<svg xmlns="http://www.w3.org/2000/svg" width="192" height="192" fill="none"><path fill="#F9DE81" fill-rule="evenodd" d="M26 59.783C26 20.441 57.846 10 97.129 10c.377 0 .753.003 1.13.009.375-.006.751-.009 1.128-.009 39.284 0 71.129 10.441 71.129 49.783 0 16.26-3.491 38.248-17.916 64.243-14.425 25.995-30.641 46.92-40.616 54.659-6.102 4.734-10.475 6.673-13.726 6.261-3.25.412-7.624-1.527-13.726-6.261-9.974-7.739-26.19-28.664-40.616-54.659C29.491 98.031 26 76.042 26 59.783Z" clip-rule="evenodd"/><path fill="#fff" fill-rule="evenodd" d="M86.702 76.234c0-7.855 8.641-12.643 15.302-8.479l8.451 5.285c6.236 3.899 6.271 12.97.065 16.917l-8.451 5.374c-6.658 4.234-15.367-.548-15.367-8.438V76.234Z" clip-rule="evenodd"/></svg>