<svg xmlns="http://www.w3.org/2000/svg" width="192" height="192" fill="none"><path fill="#9ABEFF" fill-rule="evenodd" d="M96.5 184c48.325 0 87.5-39.175 87.5-87.5S144.825 9 96.5 9 9 48.175 9 96.5 48.175 184 96.5 184Z" clip-rule="evenodd"/><path fill="#fff" fill-rule="evenodd" d="M80.454 80.353v-.085h.255v-.085h.255v-.085h.255v-.085h.255v-.085h.17v-.085h.255v-.085h.255v-.085h.255v-.085h.255v-.084h.255v-.085h.255v-.085h.255v-.085h.254v-.085h.17v-.085h.255v-.085h.255v-.085h.255v-.085h.255v-.085h.255v-.085h.17v-.085h.255v-.085h.255V78.4h.255v-.085h.17v-.085h.255v-.085h.255v-.085h.255v-.085h.17v-.085h.255v-.085h.254v-.085h.255v-.085h.17v-.085h.255v-.085h.255v-.085h.255v-.084h.17v-.086h.255v-.084h.255v-.085h.255v-.085h.17v-.085h.255v-.085h.255V76.7h.255v-.085h.17v-.085h.255v-.085h.255v-.085h.255v-.085h.17v-.085h.254v-.085h.255v-.084h.255v-.085h.17v-.085h.255v-.085h.255v-.085h.255v-.085h.17v-.085h.255v-.085h.255v-.085h.255v-.085h.17v-.085h.255v-.085h.255v-.085h.17v-.084h.255v-.086h.254v-.084h.256v-.085h.17v-.085h.254v-.085h.255v-.085h.255v-.085h.17v-.085h.255v-.085h.255v-.085h.255v-.085h.255v-.085h.17v-.085h.255v-.085h.255v-.084h.17v-.085h.255v-.085h.255v-.085h.255v-.085h.254v-.085h.17v-.085h.255v-.085h.255v-.085h.17v-.085h.255v-.085h.255v-.085h.255v-.085h.255v-.084h.17v-.086h.255v-.084h.255v-.085h.255V72.2h.17v-.085h.255v-.085h.255v-.085h.255v-.085h.17v-.085h.254v-.085h.255v-.085h.255v-.085h.255v-.085h.17v-.085h.255v-.084h.255v-.085h.255v-.085h.255v-.085h.17v-.085h.255v-.085h.255v-.085h.255v-.085h.255v-.085h.17v-.085h.255v-.085h.255v-.085h.254v-.085h.255v-.084h.255v-.085h.17v-.085h.255v-.085h.255v-.085h.255v-.085h.255v-.085h.255v-.085h.17v-.085h.255v-.085h.255v-.085h.255v-.085h.255v-.085h.255v-.085h.17v-.085h.255v-.084h.254v-.085h.255v-.085h.255v-.085h.255v-.085h.255v-.085h.255v-.085h.17v-.085h.34v-.085h.17v-.085h.255v-.085h.255v-.085h.255v-.085h.255v-.084h.255v-.085h.255v-.085h.255v-.085h.255v-.085h.254v-.085h.255v-.085h.34v-.085h.255v-.085h.255v-.085h.255v-.085h.34v-.085h.255v-.085h.34v-.085h.255v-.085h.34v-.084h.34v-.085h.34v-.085h.424v-.085h.51v-.085h.51v-.085h.68V66h1.615v.085h.51v.085h.339v.085h.255v.085h.17v.085h.17v.085h.17v.084h.085v.085h.17v.085h.085v.085h.085v.085h.085v.085h.085v.085h.085v.085h.085v.17h.085v.085h.085v.17h.085v.17h.085v.254h.085v.255h.085v.34h.085v.424h.085v1.954h-.085v.764h-.085v.51h-.085v.424h-.085v.425h-.085v.425h-.085v.34h-.085v.339h-.085v.34h-.085v.34h-.085v.254h-.085v.34h-.085v.34h-.085v.254h-.085v.34h-.085v.255h-.085v.34h-.085v.255h-.085v.34h-.085v.254h-.085v.255h-.085v.34h-.085v.254h-.085v.255h-.085v.34h-.085v.254h-.085v.255h-.085v.255h-.084v.255h-.085v.34h-.085v.254h-.085v.255h-.085v.255h-.085v.255h-.085v.34h-.085v.254h-.085v.255h-.085v.255h-.085v.255h-.085v.254h-.085v.255h-.085v.255h-.085v.34h-.085v.254h-.085v.255h-.085v.255h-.085v.255h-.085v.255h-.085v.254h-.085v.255h-.085v.255h-.085v.255h-.085v.254h-.085v.255h-.085v.255h-.085v.255h-.085v.255h-.085v.254h-.085v.255h-.085v.255h-.085v.255h-.085v.255h-.085v.254h-.085v.255h-.085v.255h-.085v.255h-.085v.255h-.085v.254h-.085v.255h-.085v.255h-.085v.255h-.085v.254h-.085v.255h-.085v.255h-.085v.255h-.085v.254h-.084v.255h-.085v.255h-.085v.255h-.085v.255h-.085v.254h-.085v.255h-.085v.255h-.085v.255h-.085v.17h-.085v.255h-.085v.254h-.085v.255h-.085v.255h-.085v.255h-.085v.254h-.085v.255h-.085v.255h-.085v.255h-.085v.254h-.085v.17h-.085v.255h-.085v.255h-.085v.255h-.085v.255h-.085v.254h-.085v.255h-.085v.255h-.085v.255h-.085v.254h-.085v.17h-.085v.255h-.085v.255h-.085v.255h-.085v.254h-.085v.255h-.085v.255h-.085v.255h-.085v.17h-.085v.254h-.085v.255h-.085v.255h-.085v.255h-.085v.255h-.085v.254h-.085v.255h-.085v.17h-.085v.255h-.085v.255h-.084v.254h-.085v.255h-.085v.255h-.085v.17h-.085v.255h-.085v.254h-.085v.255h-.085v.255h-.085v.255h-.085v.17h-.085v.254h-.085v.255h-.085v.255h-.085v.255h-.085v.254h-.085v.17h-.085v.255h-.085v.255h-.085v.255h-.085v.254h-.085v.17h-.085v.255h-.085v.255h-.085v.255h-.085v.254h-.085v.17h-.085v.255h-.085v.255h-.085v.255h-.085v.254h-.085v.17h-.085v.255h-.085v.255h-.085v.255h-.085v.17h-.085v.254h-.085v.255h-.085v.255h-.085v.17h-.085v.255h-.085v.254h-.085v.255h-.085v.255h-.085v.255h-.085v.17h-.085v.254h-.085v.255h-.085v.255h-.085v.255h-.084v.254h-.085v.255h-.085v.255h-.085v.255h-.085v.255h-.085v.254h-.085v.255h-.085v.255h-.085v.255h-.085v.255h-.085v.254h-.085v.255h-.085v.17h-.085v.255h-.085v.254h-.085v.255h-.085v.255h-.085v.255h-.085v.255h-.085v.254h-.085v.255h-.085v.255h-.085v.255h-.085v.255h-.085v.254h-.085v.255h-.085v.255h-.085v.17h-.085v.255h-.085v.254h-.085v.255h-.085v.255h-.085v.255h-.085v.254h-.085v.255h-.085v.17h-.085v.255h-.085v.255h-.085v.254h-.085v.17h-.085v.255h-.085v.255h-.085v.255h-.085v.17h-.085v.254h-.085v.255h-.085v.255h-.085v.17h-.084v.255h-.085v.169h-.085v.255h-.085v.17h-.085v.255h-.085v.255h-.085v.169h-.085v.17h-.085v.255h-.085v.17h-.085v.255h-.085v.17h-.085v.254h-.085v.17h-.085v.17h-.085v.255h-.085v.17h-.085v.17h-.085v.169h-.085v.255h-.085v.17h-.085v.17h-.085v.17h-.085v.17h-.085v.17h-.085v.169h-.085v.17h-.085v.17h-.085v.17h-.085v.17h-.085v.085h-.085v.17h-.085v.169h-.085v.17h-.085v.085h-.085v.17h-.085v.085h-.085v.17h-.085v.085h-.085v.085h-.085v.085h-.085v.17h-.085v.084h-.085v.085h-.085v.085h-.085v.085h-.085v.085h-.085v.085h-.084v.085h-.085v.085h-.085v.085h-.085v.085h-.085v.085h-.17v.085h-.085v.085h-.085v.085h-.17v.084h-.17v.085h-.085v.085h-.17v.085h-.17v.085h-.255v.085h-.34V137h-1.36v-.085h-.34v-.085h-.255v-.085h-.17v-.085h-.17v-.085h-.17v-.085h-.17v-.084h-.084v-.085h-.17v-.085h-.085v-.085h-.17v-.085h-.085v-.085h-.085v-.085h-.17v-.085h-.085v-.085h-.085v-.085h-.085v-.085H98.3v-.085h-.085v-.085h-.085v-.085h-.085v-.084h-.085v-.085h-.085v-.085h-.085v-.085h-.085v-.085h-.085v-.085h-.085v-.085h-.085v-.085h-.085v-.085h-.085v-.085h-.085v-.17h-.085v-.085h-.085v-.085h-.085v-.084h-.085v-.17h-.085v-.085h-.085v-.085H96.6v-.17h-.085v-.085h-.085v-.085h-.085v-.17h-.085v-.085h-.085v-.17h-.084v-.084h-.085v-.17h-.085v-.085h-.086v-.17h-.084v-.085h-.085v-.17h-.085v-.17h-.085v-.085h-.085v-.17h-.085v-.169h-.085v-.085h-.085v-.17h-.085v-.17h-.085v-.17H94.9v-.085h-.085v-.17h-.085v-.17h-.085v-.169h-.085v-.17h-.085v-.17h-.085v-.17h-.085v-.17h-.085v-.17h-.085v-.17h-.085v-.169h-.085v-.17h-.085v-.17h-.085v-.17h-.085v-.255h-.085v-.17h-.085v-.169h-.085v-.17h-.085v-.17h-.085v-.255H93.2v-.17h-.085v-.255h-.085v-.169h-.085v-.17h-.085v-.17h-.085v-.17h-.085v-.17h-.085v-.17h-.085v-.17h-.085v-.169h-.085v-.17h-.085v-.17h-.085v-.17h-.085v-.17h-.085v-.17h-.084v-.17h-.086v-.169h-.084v-.17h-.085v-.17h-.085v-.17h-.085v-.255h-.085v-.17h-.085v-.17h-.085v-.169h-.085v-.17h-.085v-.17h-.085v-.17h-.085v-.17h-.085v-.17h-.085v-.17h-.085v-.169h-.085v-.255h-.085v-.17h-.085v-.17h-.085v-.17h-.085v-.17h-.085v-.169h-.085v-.17h-.085v-.17h-.085v-.17h-.085v-.255h-.085v-.17h-.085v-.17h-.085v-.169h-.085v-.17h-.085v-.17h-.085v-.255h-.085v-.17h-.085v-.17h-.085v-.169h-.085v-.17h-.085v-.17h-.085v-.17h-.085v-.255h-.085v-.17h-.085v-.169h-.085v-.17h-.085v-.17h-.085v-.17h-.085v-.255h-.085v-.17h-.085v-.17h-.084v-.169h-.086v-.17h-.084v-.17h-.086v-.255h-.085v-.17h-.084v-.17h-.085v-.169h-.085v-.17h-.085v-.17h-.085v-.17h-.085v-.17h-.085v-.17h-.085v-.17h-.085v-.169h-.085v-.17h-.085v-.17h-.085v-.17h-.085v-.17h-.085v-.17h-.085v-.17h-.085v-.085h-.085v-.169h-.085v-.17h-.085v-.17h-.085v-.085h-.085v-.17h-.085v-.17h-.085v-.085h-.085v-.17h-.085v-.084h-.085v-.17h-.085v-.085h-.085v-.17h-.085v-.085h-.085v-.085h-.085v-.17h-.085v-.085h-.085v-.085h-.085v-.085h-.085v-.085h-.085v-.169h-.085v-.085h-.085v-.085h-.085v-.085h-.085v-.085h-.085v-.085h-.085v-.085h-.085v-.085h-.085v-.085h-.084v-.085h-.086v-.085h-.085v-.085h-.17v-.085h-.084v-.084h-.085v-.085h-.085v-.085h-.085v-.085h-.17v-.085h-.085v-.085h-.085v-.085h-.17v-.085h-.085v-.085h-.17v-.085h-.085v-.085h-.17v-.085h-.085v-.085h-.17v-.085h-.085v-.084h-.17v-.085h-.17v-.085h-.085v-.085h-.17v-.085h-.17v-.085h-.085v-.085h-.17v-.085h-.17v-.085h-.17v-.085h-.17v-.085h-.17v-.085h-.17v-.085h-.17v-.085h-.084v-.084h-.17v-.085h-.17v-.085h-.17v-.085h-.17v-.085h-.17v-.085H78.5v-.085h-.17v-.085h-.17v-.085h-.17v-.085h-.17v-.085h-.17v-.085h-.17v-.085h-.17v-.085h-.17v-.084h-.17v-.085h-.17v-.085h-.255v-.085h-.17v-.085h-.17v-.085h-.17v-.085h-.17v-.085h-.17v-.085h-.17v-.085h-.255v-.085h-.17v-.085h-.17v-.085h-.17v-.085h-.17v-.084h-.17v-.085h-.17v-.085h-.254v-.085h-.17v-.085h-.17v-.085h-.17v-.085h-.17v-.085h-.17v-.085h-.255v-.085h-.17v-.085h-.17v-.085h-.17v-.085h-.17v-.085h-.17v-.084h-.255v-.085h-.17v-.085h-.17v-.085h-.17v-.085h-.17v-.085h-.17v-.085h-.254v-.085h-.17v-.085h-.17v-.085h-.17v-.085h-.17v-.085h-.17v-.085h-.17v-.085h-.255v-.084h-.17v-.085h-.17v-.085h-.17v-.085h-.17v-.085h-.17v-.085h-.17v-.085h-.17v-.085h-.255v-.085h-.17v-.085h-.17v-.085h-.17v-.085h-.17v-.085h-.17v-.084h-.17v-.085h-.17v-.085h-.17v-.085h-.254v-.085h-.17v-.085h-.17v-.085h-.17v-.085h-.17v-.085h-.17v-.085h-.17v-.085h-.255v-.085h-.17v-.085h-.255v-.085h-.17v-.085h-.17v-.084h-.255v-.085h-.17v-.085h-.17v-.085h-.17v-.085h-.17v-.085h-.17v-.085h-.17v-.085h-.17v-.085h-.17v-.085h-.17v-.085h-.17v-.085h-.17v-.085h-.17v-.084h-.084v-.085h-.17v-.085h-.17v-.085h-.085v-.085h-.17v-.085h-.085v-.085h-.17v-.085h-.085v-.085h-.17v-.085h-.085v-.085h-.17v-.085h-.085v-.085h-.17v-.085h-.085v-.085h-.085v-.084h-.085v-.085h-.17v-.085h-.085v-.085h-.085v-.085h-.085v-.085h-.085v-.085h-.085v-.085h-.17v-.085h-.084v-.085h-.086v-.085h-.085v-.085h-.084v-.085h-.085v-.084h-.085v-.085H58.7v-.17h-.085v-.085h-.085v-.085h-.085v-.085h-.085v-.085h-.085v-.17h-.085V95.3h-.085v-.085h-.085v-.17h-.085v-.085h-.085v-.17h-.085v-.084h-.085v-.17h-.085v-.17h-.085v-.17h-.085v-.17h-.085v-.254h-.085v-.255h-.085v-.34h-.085v-.425H57v-.849h.085v-.425h.085v-.34h.085v-.254h.085v-.17h.085v-.17h.085v-.17h.085v-.17h.085v-.084h.085v-.17h.085v-.085h.085v-.17h.085v-.085h.085v-.085h.085v-.085h.085v-.085h.085v-.085h.085v-.085h.085V89.1h.085v-.084h.085v-.085h.085v-.085h.085v-.085h.085v-.085h.084v-.085h.085v-.085h.17v-.085h.085v-.085h.085v-.085h.17v-.085h.085v-.085h.17v-.085h.085v-.084h.17v-.085h.085v-.085h.17v-.085h.17v-.085h.17v-.085h.085v-.085h.17v-.085h.255v-.085h.17v-.085h.17v-.085h.17v-.085h.255v-.085h.17v-.085h.255v-.085h.17v-.084h.255v-.085h.17v-.085h.255v-.085h.17v-.085h.254v-.085h.255v-.085h.17v-.085h.255v-.085h.17v-.085h.255v-.085h.255v-.085h.17v-.085h.255v-.084h.255v-.085h.255v-.085h.17v-.085h.255v-.085h.255v-.085h.255v-.085h.17v-.085h.255v-.085h.254v-.085h.255v-.085h.17V84.6h.255v-.085h.255v-.085h.255v-.085h.17v-.084h.255v-.085h.255v-.085h.255v-.085h.255v-.085h.17v-.085h.255v-.085h.255v-.085h.255v-.085h.255v-.085h.255v-.085h.17v-.085h.254v-.085h.255v-.084h.255v-.085h.255v-.085h.255V82.9h.17v-.085h.255v-.085h.255v-.085h.255v-.085h.255v-.085h.255v-.085h.255v-.085h.255v-.085h.17v-.085h.254v-.085h.255v-.085h.255v-.084h.255v-.085h.255v-.085h.255v-.085h.255v-.085h.255v-.085h.17v-.085h.255v-.085h.255v-.085h.255v-.085h.255v-.085h.255v-.085h.255v-.085h.255v-.084h.255v-.085h.17v-.085h.254v-.085h.255v-.085h.255v-.085h.255Z" clip-rule="evenodd"/></svg>