<svg xmlns="http://www.w3.org/2000/svg" width="192" height="192" fill="none"><path fill="#9ABEFF" fill-rule="evenodd" d="M96 183c48.049 0 87-38.951 87-87S144.049 9 96 9 9 47.951 9 96s38.951 87 87 87Z" clip-rule="evenodd"/><mask id="a" width="174" height="174" x="9" y="9" maskUnits="userSpaceOnUse" style="mask-type:luminance"><path fill="#fff" fill-rule="evenodd" d="M96 183c48.049 0 87-38.951 87-87S144.049 9 96 9 9 47.951 9 96s38.951 87 87 87Z" clip-rule="evenodd"/></mask><g mask="url(#a)"><path fill="#fff" fill-rule="evenodd" d="M97.777 3.08c-7.725 0-14.858 1.008-21.397 3.03-6.54 2.018-12.202 4.937-16.986 8.756-4.784 3.818-8.515 8.427-11.192 13.825-2.677 5.399-4.016 11.434-4.016 18.105 0 8.252 1.953 15.45 5.86 21.595 3.906 6.144 9.282 11.06 16.13 14.747-2.985 1.492-5.575 3.182-7.77 5.07-2.194 1.887-4.016 3.884-5.464 5.99-1.448 2.107-2.524 4.236-3.226 6.387-.702 2.15-1.053 4.235-1.053 6.254 0 4.916 1.01 8.91 3.028 11.982 2.019 3.073 4.696 5.531 8.032 7.374-6.847 2.546-12.202 5.969-16.064 10.27-3.862 4.302-5.794 9.613-5.794 15.933 0 4.652 1.23 9.129 3.687 13.43 2.458 4.302 6.167 8.098 11.127 11.39 4.96 3.292 11.214 5.925 18.763 7.9 7.55 1.976 16.459 2.963 26.73 2.963 10.358 0 19.575-1.339 27.651-4.016s14.901-6.21 20.475-10.599c5.574-4.389 9.831-9.393 12.772-15.011 2.94-5.618 4.411-11.412 4.411-17.381 0-6.408-1.251-11.653-3.753-15.735-2.502-4.082-5.793-7.308-9.875-9.678-4.082-2.37-8.713-4.104-13.892-5.201a125.488 125.488 0 0 0-15.932-2.304 290.155 290.155 0 0 0-15.932-.856c-5.18-.132-9.81-.461-13.892-.987-4.081-.527-7.373-1.427-9.875-2.7-2.502-1.272-3.753-3.27-3.753-5.99 0-3.16 2.107-6.014 6.32-8.56 4.828.966 9.788 1.449 14.88 1.449 7.549 0 14.549-1.031 21.001-3.094 6.452-2.063 12.026-4.982 16.723-8.757a40.579 40.579 0 0 0 11.06-13.76c2.677-5.398 4.016-11.433 4.016-18.104.003-2.81-.238-5.486-.724-8.032a41.511 41.511 0 0 0-2.041-7.242l12.114-2.239c2.545-.439 4.345-1.229 5.399-2.37 1.053-1.141 1.58-2.721 1.58-4.74V10.059h-38.844c-4.213-2.282-8.865-4.016-13.957-5.201-5.091-1.185-10.534-1.778-16.327-1.778Zm35.683 143.524c0 2.633-.658 5.069-1.975 7.307-1.317 2.239-3.401 4.17-6.254 5.794-2.853 1.624-6.474 2.897-10.863 3.818-4.389.922-9.612 1.383-15.67 1.383-5.968 0-11.016-.417-15.142-1.251-4.126-.834-7.483-1.997-10.073-3.489-2.59-1.492-4.477-3.27-5.662-5.333a13.128 13.128 0 0 1-1.777-6.649c0-3.599 1.119-6.781 3.357-9.547 2.239-2.765 5.202-5.157 8.888-7.176 4.038.527 8.23.9 12.575 1.12 4.345.219 8.559.439 12.64.658 4.082.219 7.945.549 11.588.988 3.643.438 6.825 1.119 9.546 2.04 2.721.922 4.872 2.217 6.452 3.885 1.58 1.668 2.37 3.818 2.37 6.452ZM97.777 69.707c-3.95 0-7.44-.548-10.468-1.646-3.029-1.097-5.53-2.633-7.505-4.609-1.975-1.975-3.468-4.323-4.477-7.044-1.01-2.721-1.514-5.662-1.514-8.822 0-6.672 1.996-11.96 5.99-15.867 3.995-3.906 9.986-5.86 17.974-5.86 7.988 0 13.979 1.953 17.973 5.86 3.994 3.906 5.991 9.195 5.991 15.867.001 3.247-.504 6.232-1.514 8.953-1.009 2.721-2.501 5.047-4.477 6.979-1.975 1.931-4.454 3.445-7.439 4.543-2.985 1.097-6.496 1.646-10.534 1.646Z" clip-rule="evenodd"/></g></svg>