<svg xmlns="http://www.w3.org/2000/svg" width="192" height="192" fill="none"><rect width="169" height="121" x="11.5" y="35.5" fill="#71A372" stroke="#fff" stroke-width="5" rx="7.5"/><path fill="#fff" fill-rule="evenodd" d="M31.048 64.023V61.36h7.488v2.664h-2.448V79h-2.592V64.023h-2.448Zm13.104 7.296h-2.016V79h-2.592V61.36h2.592v7.296h2.016V61.36h2.592V79h-2.592v-7.68Zm4.512-9.96h2.424v2.424h-2.424V61.36Zm0 17.64V65.871h2.424V79h-2.424Zm8.64 0-1.656-11.088-.096-.744h-.144V79h-2.4V61.36h3.168l1.536 8.064.12.936h.048l.12-.936 1.536-8.064h3.168V79h-2.4V67.167h-.144l-.096.744L58.408 79h-1.104Zm7.32 0V61.36h2.28c1.536 0 2.736.288 3.528 1.032.792.744 1.2 1.896 1.2 3.648 0 .84-.072 1.464-.336 2.04-.264.576-.672 1.056-1.272 1.608.648.36 1.128 1.032 1.512 2.16.192.552.288 1.272.288 2.16 0 1.32-.24 2.496-.84 3.408-.6.912-1.632 1.512-3.168 1.584h-3.192Zm2.592-10.368c.216 0 .72.024 1.152-.264.432-.288.768-.864.768-2.088 0-1.224-.336-1.8-.768-2.088-.432-.288-.936-.264-1.152-.264v4.704Zm0 7.8c.216 0 .72.048 1.152-.264.432-.312.768-1.008.768-2.448s-.336-2.136-.768-2.448c-.432-.312-.936-.264-1.152-.264v5.424ZM73.36 61.36h2.592V76.6h3.432V79H73.36V61.36Zm7.08 0h5.928v2.664h-3.336v4.632h2.4v2.832h-2.4v4.848h3.336V79H80.44V61.36Zm11.664 0-1.656 11.088-.096.744h-.144V61.36h-2.4V79h3.168l1.536-8.064.12-.936h.048l.12.936L94.336 79h3.168V61.36h-2.4v11.832h-.144l-.096-.744-1.656-11.088h-1.104Zm7.32 0h5.928v2.664h-3.336v4.632h2.4v2.832h-2.4v4.848h3.336V79h-5.928V61.36Zm7.368 0h5.928v2.664h-3.336v4.632h2.4v2.832h-2.4v4.848h3.336V79h-5.928V61.36ZM114.16 79V61.36h2.04c2.4 0 3.696.48 4.392 1.824.672 1.344.768 3.552.768 7.008s-.096 5.64-.768 6.984C119.896 78.52 118.6 79 116.2 79h-2.04Zm2.592-2.592c.888 0 1.392-.096 1.656-.96.12-.408.216-1.032.24-1.872.024-.84.024-1.968.024-3.408s0-2.568-.024-3.408c-.024-.816-.12-1.44-.24-1.872-.264-.84-.768-.936-1.656-.936v12.456Zm10.032-15.048h2.592c1.128 0 2.256.288 3.12 1.104.864.816 1.44 2.16 1.44 4.176s-.576 3.336-1.44 4.152c-.864.816-1.992 1.152-3.12 1.152V79h-2.592V61.36Zm2.592 7.944c.792 0 1.296-.144 1.584-.552.288-.384.36-1.032.36-2.016s-.072-1.68-.36-2.112c-.288-.432-.792-.624-1.584-.624v5.304ZM134.512 79l2.664-17.64h3.168L143.008 79h-2.52l-.48-3.6h-2.496l-.48 3.6h-2.52Zm4.392-11.904-.072-.456h-.144l-.072.456-.744 5.568h1.776l-.744-5.568ZM148.84 79l-1.344-7.44h-.696V79h-2.592V61.36h2.592c3.096 0 4.416 1.752 4.416 5.088 0 1.752-.456 3.336-1.44 4.008L151.432 79h-2.592Zm-2.04-9.84c.36 0 .84-.048 1.224-.384s.696-.984.696-2.232c0-1.248-.312-1.92-.696-2.256-.384-.336-.864-.36-1.224-.36v5.232Zm8.664-7.8v6.168h.096l.12-.288 2.16-5.88h2.52l-2.376 5.808L160.672 79h-2.52l-1.8-7.68-.072-.36h-.072l-.144.36-.6 1.44V79h-2.592V61.36h2.592Z" clip-rule="evenodd"/><path fill="#fff" d="M64.668 99.857c-1.54 0-2.779.476-3.71 1.428-.938.952-1.4 2.191-1.4 3.703 0 1.526.434 2.758 1.31 3.696.874.952 2.03 1.428 3.464 1.428 1.54 0 2.744-.504 3.612-1.512l-.532-.581a.32.32 0 0 0-.203-.091c-.07 0-.147.035-.23.105a3.724 3.724 0 0 1-1.24.742c-.294.112-.735.168-1.323.168-1.008 0-1.834-.343-2.47-1.043-.673-.728-1.009-1.694-1.009-2.912 0-1.204.343-2.17 1.022-2.891 1.064-1.12 2.64-1.344 4.725-.686.007.056.021.266.05.63.027.371.048.581.062.637.035.161.133.238.287.238h.68v-2.338c-1.275-.476-2.304-.714-3.095-.721Zm7.109.973c.14-.021.217-.112.217-.259v-.602h-3.381v.602c0 .147.056.231.168.252.112.028.392.084.84.168v7.987l-.798.161c-.14.028-.21.119-.21.259V110h3.38v-.602c0-.14-.055-.224-.167-.252a68.807 68.807 0 0 1-.847-.168v-7.987l.798-.161Zm8.99-.861H72.73v2.219h.679c.154.007.245-.042.266-.14.014-.098.056-.406.126-.931h2.366v7.868c-.364.07-.623.119-.777.154-.154.028-.231.119-.231.266v.602h3.38v-.602c0-.147-.055-.231-.153-.252-.098-.021-.33-.063-.686-.133a1.481 1.481 0 0 0-.175-.035v-7.868h2.359c.056.518.098.833.119.931.014.098.105.147.273.147h.679v-2.219l-.19-.007Zm6.635 0v.602c0 .147.07.231.21.259.476.098.742.154.797.161l-1.876 3.192a5.38 5.38 0 0 0-.398.889 6.167 6.167 0 0 0-.4-.889l-1.876-3.192c.05-.007.316-.063.791-.161.14-.021.218-.112.218-.259v-.602h-3.374v.602c0 .147.063.231.195.259.127.028.365.084.715.168l3.052 5.019v2.968l-.799.161c-.14.028-.21.112-.21.259v.602h3.367v-.602c0-.147-.07-.231-.21-.259-.469-.098-.734-.147-.797-.161v-2.968l3.058-5.019c.372-.091.617-.147.736-.168.118-.028.181-.112.181-.252v-.602l-3.38-.007Zm14.14 7.854h-.672a.3.3 0 0 0-.294.238c-.007.056-.042.399-.07.798h-3.62v-7.868c.022 0 .673-.133.792-.154a.268.268 0 0 0 .217-.259v-.602H94.52v.602c0 .126.084.231.21.259.119.021.798.154.798.154v7.994s-.68.133-.798.154a.262.262 0 0 0-.21.259v.609h7.022v-2.184Zm4.127-6.993c.14-.021.217-.112.217-.259v-.602h-3.381v.602c0 .147.056.231.168.252.112.028.392.084.84.168v7.987l-.798.161c-.14.028-.21.119-.21.259V110h3.381v-.602c0-.14-.056-.224-.168-.252a68.807 68.807 0 0 1-.847-.168v-7.987l.798-.161Zm3.264 1.12 3.514 6.293c.119.21.28.315.49.315h.196c.21 0 .378-.105.49-.315l3.437-6.272c-.014.238-.028.455-.028.658v6.349c-.483.084-.798.133-.938.161-.133.028-.196.119-.203.259V110h3.346v-.602c0-.14-.07-.231-.217-.259-.077-.014-.343-.07-.798-.161v-7.987c.007 0 .273-.049.798-.161.147-.021.217-.112.217-.259v-.602h-2.016a.977.977 0 0 0-.28.035.462.462 0 0 0-.189.196l-3.395 6.167a7.231 7.231 0 0 0-.322.735c-.126-.343-.231-.588-.315-.728l-3.465-6.174c-.056-.105-.119-.168-.189-.196a.89.89 0 0 0-.273-.035h-2.009v.602c0 .147.07.231.21.259.084.021.35.077.798.161v7.987l-.798.161c-.14.028-.21.119-.21.259V110h3.339v-.602c0-.14-.07-.224-.196-.252a25.37 25.37 0 0 0-.945-.168v-6.349c0-.203-.021-.434-.049-.679Zm14.373-1.12c.14-.021.217-.112.217-.259v-.602h-3.381v.602c0 .147.056.231.168.252.112.028.392.084.84.168v7.987l-.798.161c-.14.028-.21.119-.21.259V110h3.381v-.602c0-.14-.056-.224-.168-.252a68.807 68.807 0 0 1-.847-.168v-7.987l.798-.161Zm8.99-.861h-8.036v2.219h.679c.154.007.245-.042.266-.14.014-.098.056-.406.126-.931h2.366v7.868c-.364.07-.623.119-.777.154-.154.028-.231.119-.231.266v.602h3.381v-.602c0-.147-.056-.231-.154-.252-.098-.021-.329-.063-.686-.133a1.481 1.481 0 0 0-.175-.035v-7.868h2.359c.056.518.098.833.119.931.014.098.105.147.273.147h.679v-2.219l-.189-.007Zm-95.343 24.217c-.476-.14-1.029-.21-1.659-.21h-3.78v.602c0 .14.07.231.21.259.084.014.35.07.798.161v7.987l-.798.161c-.14.028-.21.112-.21.259v.602h3.367v-.602c0-.147-.07-.231-.21-.259-.448-.091-.714-.147-.798-.161v-2.73h1.421c1.183 0 2.107-.301 2.78-.889.636-.574.958-1.33.958-2.282 0-1.491-.693-2.457-2.079-2.898Zm.721 2.891c0 .637-.21 1.148-.623 1.526-.42.378-1 .574-1.757.574h-1.42v-4.13h1.42c.798-.007 1.393.175 1.785.539.392.357.588.854.595 1.491Zm11.855 1.911c0-.749-.119-1.435-.357-2.065a4.752 4.752 0 0 0-1.008-1.624 4.545 4.545 0 0 0-1.568-1.064 5.223 5.223 0 0 0-2.016-.378c-.742 0-1.414.126-2.016.378a4.516 4.516 0 0 0-1.56 1.064c-.435.455-.77.994-1.009 1.624a5.789 5.789 0 0 0-.357 2.065 5.8 5.8 0 0 0 .357 2.072c.238.63.574 1.169 1.008 1.624a4.58 4.58 0 0 0 1.561 1.05c.602.252 1.274.378 2.016.378.735 0 1.407-.126 2.016-.378a4.61 4.61 0 0 0 1.568-1.05c.434-.455.77-.994 1.008-1.624a5.8 5.8 0 0 0 .357-2.072Zm-1.393 0c0 .616-.084 1.169-.252 1.659-.168.49-.406.903-.714 1.239a3.16 3.16 0 0 1-1.12.777c-.44.182-.93.266-1.47.266-.539 0-1.029-.084-1.463-.266a3.125 3.125 0 0 1-1.127-.777 3.473 3.473 0 0 1-.714-1.239 5.098 5.098 0 0 1-.252-1.659c0-.616.084-1.169.252-1.659.168-.49.406-.903.714-1.239a3.142 3.142 0 0 1 1.127-.784 3.758 3.758 0 0 1 1.463-.273c.54 0 1.03.091 1.47.273.434.182.812.448 1.12.784.308.336.546.749.714 1.246.168.49.252 1.036.252 1.652Zm7.67-4.802c-.475-.14-1.028-.21-1.658-.21h-3.78v.602c0 .14.07.231.21.259.084.014.35.07.798.161v7.987l-.798.161c-.14.028-.21.112-.21.259v.602h3.367v-.602c0-.147-.07-.231-.21-.259-.448-.091-.714-.147-.798-.161v-2.73h1.42c1.184 0 2.108-.301 2.78-.889.637-.574.959-1.33.959-2.282 0-1.491-.693-2.457-2.08-2.898Zm.722 2.891c0 .637-.21 1.148-.623 1.526-.42.378-1.001.574-1.757.574h-1.421v-4.13h1.42c.799-.007 1.394.175 1.786.539.392.357.588.854.595 1.491Zm8.43 7.035c.497 0 .952-.063 1.372-.196a3.05 3.05 0 0 0 1.064-.574 2.64 2.64 0 0 0 .693-.896c.168-.35.245-.749.245-1.183 0-.644-.168-1.176-.504-1.596-.336-.42-.812-.714-1.442-.889.525-.196.924-.49 1.197-.882.266-.392.406-.854.406-1.393 0-.371-.077-.714-.217-1.036a2.51 2.51 0 0 0-.616-.84 2.887 2.887 0 0 0-.96-.56 3.54 3.54 0 0 0-1.238-.203 3.351 3.351 0 0 0-1.246.203 2.854 2.854 0 0 0-.952.56 2.42 2.42 0 0 0-.616.84 2.455 2.455 0 0 0-.217 1.036c0 .539.133 1.001.399 1.393.266.392.665.686 1.197.882-.63.175-1.106.469-1.442.889-.336.42-.504.952-.504 1.596 0 .434.077.833.245 1.183.16.35.392.651.693.903.294.245.65.434 1.07.567a4.45 4.45 0 0 0 1.373.196Zm-.007-.987c-.322 0-.616-.049-.875-.14a1.857 1.857 0 0 1-.658-.385 1.686 1.686 0 0 1-.413-.595 1.926 1.926 0 0 1-.147-.763c0-.35.063-.644.175-.889a1.57 1.57 0 0 1 .462-.595c.196-.154.413-.273.665-.343.252-.07.518-.105.79-.105.28 0 .54.035.792.105.252.07.476.189.672.343.196.154.35.35.462.595.112.245.168.539.168.889.007.28-.042.532-.14.763a1.686 1.686 0 0 1-.413.595 1.857 1.857 0 0 1-.658.385 2.65 2.65 0 0 1-.882.14Zm0-4.816c-.322 0-.602-.056-.833-.154a1.536 1.536 0 0 1-.567-.399 1.734 1.734 0 0 1-.315-.567 2.39 2.39 0 0 1-.098-.665c0-.238.042-.455.119-.658a1.45 1.45 0 0 1 .343-.539c.154-.154.343-.28.567-.364.224-.091.49-.133.784-.133.3 0 .567.042.79.133.225.084.414.21.568.364.154.154.266.329.343.539.077.203.112.42.112.658 0 .224-.028.448-.098.665a1.512 1.512 0 0 1-.875.966 2.143 2.143 0 0 1-.84.154Zm11.523.679c0-.875-.098-1.638-.287-2.282-.189-.644-.448-1.176-.77-1.596a3.096 3.096 0 0 0-1.162-.938 3.317 3.317 0 0 0-1.428-.308 3.187 3.187 0 0 0-1.435.308 3.055 3.055 0 0 0-1.148.938c-.329.42-.588.952-.77 1.603-.189.644-.28 1.4-.28 2.282 0 .875.091 1.631.28 2.275.182.644.441 1.176.77 1.596.322.42.707.728 1.148.938.441.203.917.308 1.435.308.504 0 .98-.105 1.428-.308.448-.21.833-.518 1.162-.938.322-.42.581-.952.77-1.596.19-.644.287-1.4.287-2.282Zm-1.295.007c0 .763-.07 1.407-.196 1.925s-.3.931-.518 1.253a2.008 2.008 0 0 1-.749.679 1.998 1.998 0 0 1-1.778 0 1.909 1.909 0 0 1-.749-.679c-.217-.322-.392-.735-.518-1.253-.126-.518-.189-1.162-.189-1.925 0-.77.063-1.414.19-1.932.125-.518.3-.938.517-1.253a1.877 1.877 0 0 1 1.638-.889c.308 0 .602.063.89.203.28.14.531.364.748.686.217.315.392.735.518 1.253.126.518.19 1.162.196 1.932Zm32.774-5.026v.602c0 .147.07.231.21.259.084.021.35.077.798.168v7.987l-.798.161c-.14.028-.21.112-.21.259v.602h7.189v-2.338h-.672c-.168 0-.266.077-.294.238-.014.042-.042.371-.091.994h-3.759v-3.423h3.696v-1.064h-3.696v-3.332h3.752c.049.672.084 1.029.098 1.071.028.161.126.238.294.245h.672v-2.422l-7.189-.007Zm15.23 7.854h-.672a.3.3 0 0 0-.294.238c-.007.056-.042.399-.07.798h-3.619v-7.868c.021 0 .672-.133.791-.154a.268.268 0 0 0 .217-.259v-.602h-3.374v.602c0 .126.084.231.21.259.119.021.798.154.798.154v7.994s-.679.133-.798.154a.262.262 0 0 0-.21.259v.609h7.021v-2.184Zm.971-7.854v.602c0 .147.07.231.21.259.084.021.35.077.798.168v7.987l-.798.161c-.14.028-.21.112-.21.259v.602h7.189v-2.338h-.672c-.168 0-.266.077-.294.238-.014.042-.042.371-.091.994h-3.759v-3.423h3.696v-1.064h-3.696v-3.332h3.752c.049.672.084 1.029.098 1.071.028.161.126.238.294.245h.672v-2.422l-7.189-.007Zm15.063 0v.602c0 .147.07.231.21.259.084.021.35.077.798.168l-2.541 6.377c-.105.252-.21.623-.308 1.099-.126-.504-.238-.868-.336-1.099l-2.555-6.377c.301-.063.546-.112.728-.147.182-.042.273-.133.28-.273v-.602h-3.332v.602c0 .14.07.231.21.259.084.014.315.07.707.161l3.668 9.009h1.225l3.675-9.009.7-.161c.14-.028.21-.119.21-.259v-.602l-3.339-.007Zm12.637 9.226a59.827 59.827 0 0 0-1.778-.147v-9.1h-1.015l-2.982 2.583.392.539c.07.105.182.154.336.154a.426.426 0 0 0 .252-.105l1.792-1.533c-.014.21-.021.42-.021.63v6.839l-1.96.147c-.134.028-.196.105-.196.245v.56h5.376v-.56c0-.14-.07-.224-.196-.252Zm6.85-2.814v-6.412h-1.162l-4.879 6.475.126.637a.317.317 0 0 0 .126.203c.07.056.147.077.245.077h4.445V134h1.099v-2.639h1.246c.091 0 .161-.021.203-.077a.284.284 0 0 0 .07-.189v-.714h-1.519Zm-1.099-4.137v4.137h-3.591l3.647-4.963a3.268 3.268 0 0 0-.049.441c-.007.133-.007.266-.007.385Z"/><path fill="#4A4A4A" fill-rule="evenodd" d="M46.5 104a7.5 7.5 0 1 0 0-15 7.5 7.5 0 0 0 0 15Z" clip-rule="evenodd"/></svg>