<svg xmlns="http://www.w3.org/2000/svg" width="192" height="192" fill="none"><g clip-path="url(#a)"><path fill="#9ABEFF" fill-rule="evenodd" d="M9 96c0 48.049 38.951 87 87 87 15.385 0 29.837-3.993 42.376-11H167a5 5 0 0 0 5-5v-28.624c7.007-12.539 11-26.991 11-42.376 0-48.049-38.951-87-87-87S9 47.951 9 96Z" clip-rule="evenodd"/><path fill="#F9DE81" fill-rule="evenodd" d="M110.859 115.066c15.327 0 27.753-12.464 27.753-27.84s-12.426-27.84-27.753-27.84c-15.328 0-27.754 12.464-27.754 27.84s12.426 27.84 27.754 27.84Z" clip-rule="evenodd"/><path fill="#fff" fill-rule="evenodd" d="M104.429 127.61c6.859-.18 12.364-5.745 12.364-12.584 0-6.952-5.689-12.588-12.707-12.588-.124 0-.247.002-.37.006.018-.34.026-.682.026-1.026 0-11.086-9.071-20.073-20.262-20.073-9.934 0-18.198 7.082-19.93 16.427-7.531.849-13.383 7.184-13.383 14.873 0 8.267 6.765 14.97 15.111 14.97h39.151v-.005Z" clip-rule="evenodd"/><path fill="#F9DE81" d="M31.58 59h9.9V41.63h17.37v-9.9H41.48V14.36h-9.9v17.37H14.21v9.9h17.37V59Z"/></g><defs><clipPath id="a"><path fill="#fff" d="M0 0h192v192H0z"/></clipPath></defs></svg>