<svg xmlns="http://www.w3.org/2000/svg" width="192" height="192" fill="none"><g clip-path="url(#a)"><mask id="b" width="164" height="164" x="14" y="10" maskUnits="userSpaceOnUse" style="mask-type:luminance"><path fill="#fff" fill-rule="evenodd" d="M96 174c45.287 0 82-36.713 82-82s-36.713-82-82-82-82 36.713-82 82 36.713 82 82 82Z" clip-rule="evenodd"/></mask><g fill-rule="evenodd" clip-rule="evenodd" mask="url(#b)"><path fill="#8E6F60" d="M61.777 118.276c-7.807-22.114-8.562-33.527 7.43-45.714 15.993-12.186 31.156-7.081 36.72-4.12 5.563 2.961 10.303 8.986 10.303 8.986s-3.177-14.104-15.695-19.477c-12.517-5.374-20.952-9.393-36.035-.643-21.843 12.67-15.034 53.865-2.723 60.968Z"/><path fill="#8C72BD" d="M87.197 43.027c23.054 4.296 33.316 9.348 35.873 29.292 2.558 19.943-9.445 30.523-14.791 33.86-5.346 3.337-13.204 4.898-13.204 4.898s13.514 3.305 24.426-4.849c10.913-8.154 19.169-12.921 19.134-30.359-.051-25.251-39.131-39.952-51.438-32.842Z"/><path fill="#71A372" d="M138.222 102.158c-15.248 17.817-24.754 24.178-43.305 16.422-18.55-7.757-21.71-23.441-21.928-29.74-.217-6.299 2.63-13.416 2.63-13.416s-9.889 9.582-8.284 23.11c1.606 13.527 1.606 23.062 16.725 31.75 21.894 12.581 54.165-13.913 54.162-28.126Z"/><path fill="#BA6561" d="M50.765 62.161S77.87 48.75 96.42 56.505c18.55 7.757 21.711 23.441 21.928 29.74.217 6.299-2.63 13.416-2.63 13.416S125.606 87.917 124 74.39c-1.605-13.528-5.489-20.608-18.027-27.847C83.705 33.686 50.765 62.16 50.765 62.16Z"/><path fill="#728DBE" d="M140.134 61.44s-1.936 30.178-17.929 42.365c-15.993 12.187-31.156 7.082-36.72 4.12-5.563-2.961-10.303-8.986-10.303-8.986s5.226 14.436 17.744 19.81c12.518 5.373 20.592 5.55 33.13-1.689 22.268-12.856 14.078-55.62 14.078-55.62Z"/><path fill="#C39A54" d="M95.93 140.042s-25.167-16.766-27.725-36.71c-2.557-19.943 9.445-30.522 14.791-33.86 5.347-3.337 12.934-4.43 12.934-4.43s-15.115-2.692-26.027 5.462C58.99 78.658 54.8 85.562 54.8 100.04c0 25.713 41.13 40.002 41.13 40.002Z"/><path fill="#F8C18C" d="M174.547 116.836c-28.217 32.981-45.807 44.757-80.122 30.413-34.314-14.345-40.153-43.369-40.552-55.025-.398-11.656 4.873-24.83 4.873-24.83s-19.662 18.147-16.7 43.181c2.963 25.033 4.322 42.269 32.288 58.339 40.497 23.272 100.213-25.776 100.213-52.078Z"/><path fill="#BD9AFF" d="M30.472 145.763c-14.454-40.927-15.857-62.05 13.723-84.594 29.58-22.545 57.635-13.09 67.929-7.607 10.294 5.483 20.066 16.635 20.066 16.635s-7.211-24.718-30.372-34.669c-23.161-9.95-38.44-18.776-66.34-2.592-40.403 23.436-27.784 99.676-5.006 112.827Z"/><path fill="#98DC9A" d="M78 9.312c42.671 7.946 61.664 17.292 66.399 54.181 4.734 36.89-17.482 56.459-27.377 62.632-9.896 6.173-23.94 8.195-23.94 8.195s24.512 6.979 44.711-8.103c20.198-15.083 35.48-23.902 35.415-56.156-.095-46.709-72.43-73.9-95.208-60.749Z"/></g><path fill="#FF837D" fill-rule="evenodd" d="M94.825 186.4s-46.583-31.013-51.317-67.902c-4.734-36.89 17.482-56.459 27.377-62.632 9.895-6.173 23.94-8.195 23.94-8.195s-27.977-4.98-48.175 10.103c-20.198 15.083-27.953 27.853-27.953 54.634 0 47.561 76.128 73.992 76.128 73.992Z" clip-rule="evenodd"/><path fill="#9ABEFF" fill-rule="evenodd" d="M11 43.929s50.148-24.835 84.463-10.49c34.314 14.344 40.154 43.368 40.552 55.024.398 11.656-4.873 24.83-4.873 24.83s18.301-21.738 15.338-46.772c-2.963-25.034-10.145-38.135-33.337-51.525C71.953-8.784 11 43.929 11 43.929Z" clip-rule="evenodd"/><path fill="#F9DE81" fill-rule="evenodd" d="M177.824 42s-3.566 55.847-33.147 78.392c-29.58 22.545-57.635 13.09-67.928 7.607-10.294-5.483-19.067-16.635-19.067-16.635s9.676 26.718 32.837 36.669c23.161 9.951 38.098 10.282 61.29-3.108C192.999 121.144 177.824 42 177.824 42Z" clip-rule="evenodd"/><path fill="#fff" fill-rule="evenodd" d="m31.878 46.106 70.137 37.474 7.659 15-16.777-1.482-61.02-50.992Z" clip-rule="evenodd"/><path fill="#fff" fill-rule="evenodd" d="m180.967 14.758-80.354 84.056-21.875 7.992 10.234-20.92 91.995-71.128Z" clip-rule="evenodd"/></g><defs><clipPath id="a"><path fill="#fff" d="M0 0h192v192H0z"/></clipPath></defs></svg>