<svg xmlns="http://www.w3.org/2000/svg" width="192" height="192" fill="none"><rect width="152" height="152" x="20" y="20" fill="#fff" rx="10"/><mask id="a" width="152" height="152" x="20" y="20" maskUnits="userSpaceOnUse" style="mask-type:luminance"><rect width="152" height="152" x="20" y="20" fill="#fff" rx="10"/></mask><g mask="url(#a)"><path fill="#9ABEFF" d="m84.56 102.26 4.62-6c4.44-5.88 5.88-8.22 5.94-12.42.06-5.94-4.8-10.38-11.22-10.38-6.6 0-12.6 4.8-11.88 11.64h8.52c-.48-2.4 1.02-3.84 2.94-3.84 1.2 0 3.18.48 3.18 3.3 0 1.38-.3 2.22-3.72 6.84L69.08 110H95.6v-7.74H84.56Zm33.886-17.22c-.24-.06-.48-.06-.78-.12l8.16-10.92h-9.96l-11.1 15.9c-1.5 2.28-2.7 4.86-2.76 7.68-.12 7.26 5.94 12.84 13.5 12.9 7.38.06 13.8-5.22 13.92-12.54.12-6.24-4.5-11.76-10.98-12.9Zm2.34 12.9c-.06 2.88-2.16 5.22-5.22 5.1-3.18-.06-4.98-2.52-4.86-5.4.12-2.94 2.04-5.22 5.16-5.16 3.12.06 4.98 2.52 4.92 5.46ZM70.4 116h61.186v3H70.399v-3Z"/><path fill="#000" fill-opacity=".15" d="M-2-2h196v98H-2z"/></g><rect width="142" height="142" x="25" y="25" stroke="#9ABEFF" stroke-width="10" rx="5"/></svg>