<svg xmlns="http://www.w3.org/2000/svg" width="192" height="192" fill="none"><rect width="152" height="152" x="20" y="20" fill="#fff" rx="10"/><mask id="a" width="152" height="152" x="20" y="20" maskUnits="userSpaceOnUse" style="mask-type:luminance"><rect width="152" height="152" x="20" y="20" fill="#fff" rx="10"/></mask><g mask="url(#a)"><path fill="#9ABEFF" d="m100.23 102.26 4.62-6c4.44-5.88 5.88-8.22 5.94-12.42.06-5.94-4.8-10.38-11.22-10.38-6.6 0-12.6 4.8-11.88 11.64h8.52c-.48-2.4 1.02-3.84 2.94-3.84 1.2 0 3.18.48 3.18 3.3 0 1.38-.3 2.22-3.72 6.84L84.75 110h26.52v-7.74h-11.04ZM86.07 116h26.88v3H86.07v-3Z"/><path fill="#000" fill-opacity=".15" d="M-2-2h196v98H-2z"/></g><rect width="142" height="142" x="25" y="25" stroke="#9ABEFF" stroke-width="10" rx="5"/></svg>