<svg xmlns="http://www.w3.org/2000/svg" width="192" height="192" fill="none"><rect width="152" height="152" x="20" y="20" fill="#fff" rx="10"/><mask id="a" width="152" height="152" x="20" y="20" maskUnits="userSpaceOnUse" style="mask-type:luminance"><rect width="152" height="152" x="20" y="20" fill="#fff" rx="10"/></mask><g mask="url(#a)"><path fill="#9ABEFF" d="M80.299 113h8.88V77h-14.16v7.74h5.28V113Zm39.425-20.1c1.74-1.62 2.76-3.9 2.76-6.54 0-5.58-4.56-9.84-10.98-9.84-6.36 0-10.98 4.26-10.98 9.84 0 2.64 1.02 4.92 2.76 6.6-3.06 1.92-4.92 5.1-4.92 8.94 0 6.6 5.52 11.58 13.14 11.58 7.68 0 13.26-4.98 13.26-11.58 0-3.84-1.92-7.02-5.04-9Zm-8.16-9.54c2.04 0 3.6 1.56 3.6 3.66s-1.56 3.66-3.6 3.66c-2.1 0-3.66-1.56-3.66-3.66s1.56-3.66 3.66-3.66Zm-.06 22.38c-2.46 0-4.26-1.98-4.26-4.56 0-2.52 1.8-4.2 4.26-4.2 2.52 0 4.32 1.68 4.32 4.2 0 2.58-1.8 4.56-4.32 4.56ZM73.759 119h52.505v3H73.759v-3Z"/><path fill="#000" fill-opacity=".15" d="M-2-2h196v98H-2z"/></g><rect width="142" height="142" x="25" y="25" stroke="#9ABEFF" stroke-width="10" rx="5"/></svg>