<svg xmlns="http://www.w3.org/2000/svg" width="192" height="192" fill="none"><rect width="152" height="152" x="172" y="172" fill="#9ABEFF" rx="10" transform="rotate(180 172 172)"/><path fill="#fff" fill-rule="evenodd" d="M88.816 97.817c5.828-.125 10.38-1.259 12.367-1.845h-.001l.046-.013c.251-.075.46-.14.623-.193l1.712-.529s-9.21 7.259-.18 14.771c9.029 7.512 17.698 3.498 19.067-1.163 1.369-4.66-2.351-10.022-2.351-10.022s5.082 5.15 6.07 10.022c.988 4.873-3.097 11.881-11.195 12.252-8.099.372-14.852-4.921-17.924-8.262-3.072-3.341-3.043-13.304-3.043-13.304l-5.457.338s-1.709 8.513 2.216 15.374c3.924 6.861 16.59 18.178 31.36 11.4 14.769-6.777 5.267-22.448 1.523-26.292-3.745-3.843-8.009-6.139-13.11-7.039-5.1-.9-7.551-.9-7.551-.9l-.111.219.05-.249s-11.491.36-15.937-.552-12.7-3.139-16.553-10.272c-3.852-7.133-.209-12.74 2.77-14.344 2.98-1.604 9.257-1.466 9.257-1.466s-2.16.158-4.026 1.059c-1.866.9-7.504 8.563 1.437 15.744 8.94 7.18 15.924 0 15.924 0l-2.505 8.214h3.963s3.552-12.737-.572-18.478c-4.124-5.74-9.034-7.394-13.836-8.02C78.046 63.644 62 62.814 62 78.285s18.913 19.702 26.816 19.533Zm4.017-27.07c1.698 2.519 2.818 5.31.45 6.907-2.37 1.598-7.567.344-9.265-2.174-1.699-2.519-2.369-5.679 0-7.276 2.368-1.598 7.116.025 8.815 2.543Zm19.854 24.242c-3.125-.163-6.186.373-6.351 3.51-.164 3.136 3.688 7.31 6.813 7.474 3.125.164 6.276-1.005 6.44-4.142.165-3.137-3.777-6.678-6.902-6.842Z" clip-rule="evenodd"/></svg>