<svg xmlns="http://www.w3.org/2000/svg" width="192" height="192" fill="none"><path fill="#9ABEFF" fill-rule="evenodd" d="M96 183c48.049 0 87-38.951 87-87S144.049 9 96 9 9 47.951 9 96s38.951 87 87 87Z" clip-rule="evenodd"/><path fill="#fff" fill-rule="evenodd" d="M87.587 79.348c.455-.403.901-1.016 1.298-1.666 1.044-1.708.557-3.867-.858-5.282L77.622 61.994c-.696-.695-1.622-1.112-2.506-.68-.829.406-2.029 1.221-3.637 2.85-10.28 10.235-5.509 31.434 10.52 47.462 16.006 16.007 37.205 20.778 47.463 10.52 1.328-1.328 2.111-2.411 2.573-3.23.624-1.107.162-2.346-.736-3.245l-10.094-10.093c-1.405-1.405-3.546-1.898-5.243-.865-.66.401-1.283.856-1.685 1.325-2.84 2.632-3.878 6.458-3.243 9.687-.021.297-10.089-1.176-21.185-11.949C79.054 92.658 77.581 82.59 77.9 82.592c3.206.612 7.033-.426 9.687-3.244Z" clip-rule="evenodd"/></svg>