<svg xmlns="http://www.w3.org/2000/svg" width="192" height="192" fill="none"><path fill="#F8C18C" fill-rule="evenodd" d="M96 183c48.049 0 87-38.951 87-87S144.049 9 96 9 9 47.951 9 96s38.951 87 87 87Z" clip-rule="evenodd"/><path fill="#fff" fill-rule="evenodd" d="M96 150.217c22.211 0 40.217-18.006 40.217-40.217S118.211 69.783 96 69.783 55.783 87.789 55.783 110 73.789 150.217 96 150.217Z" clip-rule="evenodd"/><path stroke="#fff" stroke-width="10" d="M76.5 66c0-11.046 8.954-20 20-20s20 8.954 20 20v15h-40V66Z"/><path fill="#D2D2D2" fill-rule="evenodd" d="M119.525 102.36c0 3.895-3.146 7.052-7.027 7.052-3.881 0-7.027-3.157-7.027-7.052 0-3.895 3.146-7.052 7.027-7.052 3.881 0 7.027 3.157 7.027 7.052Zm-15.928 11.286c-1.846.313-3.145 1.932-3.145 3.805v1.058a4 4 0 0 0 4 4h16.293a4 4 0 0 0 4-4v-1.058c0-1.873-1.3-3.492-3.146-3.805-2.427-.41-5.884-.88-9.001-.88-3.116 0-6.574.47-9.001.88ZM85.162 102.36c0 3.895-3.146 7.052-7.027 7.052-3.881 0-7.027-3.157-7.027-7.052 0-3.895 3.146-7.052 7.027-7.052 3.88 0 7.027 3.157 7.027 7.052Zm-15.928 11.286c-1.846.313-3.145 1.932-3.145 3.805v1.058a4 4 0 0 0 4 4h16.293a4 4 0 0 0 4-4v-1.058c0-1.873-1.3-3.492-3.146-3.805-2.427-.41-5.885-.88-9-.88-3.117 0-6.575.47-9.002.88Z" clip-rule="evenodd"/><path fill="#56595B" fill-rule="evenodd" d="M103.069 102.36c0 3.895-3.146 7.052-7.027 7.052-3.88 0-7.026-3.157-7.026-7.052 0-3.895 3.145-7.052 7.026-7.052s7.027 3.157 7.027 7.052Zm-15.927 11.286c-1.846.313-3.146 1.932-3.146 3.805v1.058a4 4 0 0 0 4 4h16.293a4 4 0 0 0 4-4v-1.058c0-1.873-1.3-3.492-3.145-3.805-2.427-.41-5.885-.88-9.001-.88-3.117 0-6.575.47-9.001.88Z" clip-rule="evenodd"/></svg>