<svg xmlns="http://www.w3.org/2000/svg" width="192" height="192" fill="none"><g clip-path="url(#a)"><path fill="url(#b)" d="M14.47 151.861a3 3 0 0 0 0 4.242l24.042 24.042a3 3 0 0 0 4.243 0l76.734-76.734c4.296-4.296 4.296-11.26 0-15.556L42.755 11.12a3 3 0 0 0-4.243 0L14.471 35.162a3 3 0 0 0 0 4.243l48.45 48.45c4.295 4.295 4.295 11.26 0 15.556l-48.45 48.45Z"/><path fill="url(#c)" d="M183 79.858c0 .796-.316 1.559-.879 2.121L171.82 92.281a5 5 0 0 0 0 7.07l10.301 10.302a3 3 0 0 1 .879 2.122v19.799c0 2.672-3.231 4.011-5.121 2.121l-34.343-34.343a5 5 0 0 1 0-7.071l34.343-34.343c1.89-1.89 5.121-.552 5.121 2.121v19.799Z"/></g><defs><linearGradient id="b" x1="-46" x2="40.633" y1="95.633" y2="182.266" gradientUnits="userSpaceOnUse"><stop stop-color="#FF837D"/><stop offset="1" stop-color="#F8C18C"/></linearGradient><linearGradient id="c" x1="140" x2="140" y1="52.816" y2="138.816" gradientUnits="userSpaceOnUse"><stop stop-color="#FF837D"/><stop offset="1" stop-color="#F8C18C"/></linearGradient><clipPath id="a"><path fill="#fff" d="M0 0h192v192H0z"/></clipPath></defs></svg>