<svg xmlns="http://www.w3.org/2000/svg" width="192" height="192" fill="none"><rect width="152" height="152" x="20" y="20" fill="#fff" rx="10"/><path fill="#FF837D" d="M121.893 93.835h-.003c0-6.059-2.221-11.97-6.212-16.335-4.317-4.722-10.422-7.39-17.778-7.39v-.006a2.055 2.055 0 0 1 0-4.098V66a51.254 51.254 0 0 1 .206 0c8.416.051 15.547 3.196 20.605 8.727C123.406 79.86 126 86.765 126 93.835h-.003a2.055 2.055 0 1 1-4.104 0Z"/><path fill="#FF837D" d="M113.305 93.96h-.076v-.617c0-3.848-1.415-7.582-3.923-10.324-2.767-3.027-6.644-4.66-11.235-4.66h-.616v-.135a1.968 1.968 0 0 1 0-3.664v-.135h.76c5.628.035 10.506 2.123 13.995 5.938 3.176 3.473 4.954 8.154 4.954 12.98v.617h-.076a1.968 1.968 0 0 1-3.783 0Zm-43.198 4.205h.003c0 6.059 2.221 11.97 6.212 16.335 4.317 4.721 10.422 7.39 17.778 7.39v.006a2.055 2.055 0 0 1 0 4.098V126h-.154l-.052-.001c-8.416-.05-15.547-3.195-20.605-8.726C68.594 112.139 66 105.235 66 98.165h.003a2.055 2.055 0 1 1 4.104 0Z"/><path fill="#FF837D" d="M78.695 98.04h.076v.617c0 3.848 1.415 7.582 3.923 10.324 2.767 3.027 6.644 4.659 11.235 4.659h.616v.136a1.967 1.967 0 0 1 0 3.664v.135h-.76c-5.628-.035-10.506-2.123-13.995-5.938-3.176-3.473-4.954-8.154-4.954-12.98v-.617h.076a1.968 1.968 0 0 1 3.783 0Z"/></svg>