<svg xmlns="http://www.w3.org/2000/svg" width="192" height="192" fill="none"><path fill="#98DC9A" fill-rule="evenodd" d="M97 184c48.049 0 87-38.951 87-87s-38.951-87-87-87-87 38.951-87 87 38.951 87 87 87Z" clip-rule="evenodd"/><mask id="a" width="174" height="174" x="10" y="10" maskUnits="userSpaceOnUse" style="mask-type:luminance"><path fill="#fff" fill-rule="evenodd" d="M97 184c48.049 0 87-38.951 87-87s-38.951-87-87-87-87 38.951-87 87 38.951 87 87 87Z" clip-rule="evenodd"/></mask><g mask="url(#a)"><path fill="#fff" fill-rule="evenodd" d="M117 134a5 5 0 0 0 5-5V83a5 5 0 0 0-5-5H77a5 5 0 0 0-5 5v46a5 5 0 0 0 5 5h40Z" clip-rule="evenodd"/><path stroke="#71A372" stroke-linecap="round" stroke-width="5" d="m114.019 66.316 5.926-5.968M80.31 65.985l-5.992-6.034"/><path fill="#fff" fill-rule="evenodd" d="M72 83c0-13.807 11.193-25 25-25s25 11.193 25 25H72Z" clip-rule="evenodd"/><path fill="#71A372" fill-rule="evenodd" d="M85 74a3 3 0 1 0 0-6 3 3 0 0 0 0 6Zm24 0a3 3 0 1 0 0-6 3 3 0 0 0 0 6Z" clip-rule="evenodd"/><path stroke="#71A372" stroke-width="5" d="M72 84h50"/><path fill="#71A372" fill-rule="evenodd" d="M97.358 112.044v14.105l5.806-18.044h-5.426L99.096 94l-6.091.024L93 112.07l4.358-.025Z" clip-rule="evenodd"/></g></svg>