<svg xmlns="http://www.w3.org/2000/svg" width="192" height="192" fill="none"><rect width="152" height="152" x="20" y="20" fill="#98DC9A" rx="10"/><path fill="#fff" fill-rule="evenodd" d="M106.667 83c0 12.15-11.79 22-26.334 22-5.12 0-9.9-1.221-13.942-3.333H58v-7.005C55.465 91.28 54 87.283 54 83c0-12.15 11.79-22 26.333-22 14.544 0 26.334 9.85 26.334 22Zm-31.334-5A5.667 5.667 0 1 1 64 78a5.667 5.667 0 0 1 11.333 0Zm15 5.667a5.667 5.667 0 1 0 0-11.334 5.667 5.667 0 0 0 0 11.334Z" clip-rule="evenodd"/><mask id="a" width="63" height="54" x="82" y="82" fill="#000" maskUnits="userSpaceOnUse"><path fill="#fff" d="M82 82h63v54H82z"/><path fill-rule="evenodd" d="M87.333 109c0 12.15 11.79 22 26.334 22 5.12 0 9.899-1.221 13.942-3.333H136v-7.005c2.535-3.381 4-7.379 4-11.662 0-12.15-11.79-22-26.333-22-14.544 0-26.334 9.85-26.334 22Zm31.334-5A5.667 5.667 0 1 0 130 104a5.667 5.667 0 0 0-11.333 0Zm-15 5.667a5.667 5.667 0 1 1 0-11.333 5.667 5.667 0 0 1 0 11.333Z" clip-rule="evenodd"/></mask><path fill="#fff" fill-rule="evenodd" d="M87.333 109c0 12.15 11.79 22 26.334 22 5.12 0 9.899-1.221 13.942-3.333H136v-7.005c2.535-3.381 4-7.379 4-11.662 0-12.15-11.79-22-26.333-22-14.544 0-26.334 9.85-26.334 22Zm31.334-5A5.667 5.667 0 1 0 130 104a5.667 5.667 0 0 0-11.333 0Zm-15 5.667a5.667 5.667 0 1 1 0-11.333 5.667 5.667 0 0 1 0 11.333Z" clip-rule="evenodd"/><path fill="#98DC9A" d="m127.609 127.667-2.315-4.432 1.088-.568h1.227v5Zm8.391 0h5v5h-5v-5Zm0-7.005h-5v-1.666l.999-1.333 4.001 2.999ZM113.667 136c-16.426 0-31.334-11.284-31.334-27h10c0 8.585 8.672 17 21.334 17v10Zm16.258-3.902c-4.771 2.493-10.346 3.902-16.258 3.902v-10c4.328 0 8.311-1.033 11.627-2.765l4.631 8.863Zm-2.316-9.431H136v10h-8.391v-10Zm3.391 5v-7.005h10v7.005h-10ZM145 109c0 5.462-1.877 10.496-4.999 14.661l-8.002-5.998c1.947-2.597 3.001-5.558 3.001-8.663h10Zm-31.333-27C130.092 82 145 93.284 145 109h-10c0-8.585-8.672-17-21.333-17V82Zm-31.334 27c0-15.716 14.908-27 31.334-27v10c-12.662 0-21.334 8.415-21.334 17h-10Zm42 5.667c-5.891 0-10.666-4.776-10.666-10.667h10c0 .368.298.667.666.667v10ZM135 104c0 5.891-4.776 10.667-10.667 10.667v-10A.667.667 0 0 0 125 104h10Zm-10.667-10.667C130.224 93.333 135 98.11 135 104h-10a.667.667 0 0 0-.667-.667v-10ZM113.667 104c0-5.891 4.775-10.667 10.666-10.667v10a.667.667 0 0 0-.666.667h-10ZM103 104c0 .368.298.667.667.667v10C97.776 114.667 93 109.891 93 104h10Zm.667-.667A.667.667 0 0 0 103 104H93c0-5.891 4.776-10.667 10.667-10.667v10Zm.666.667a.667.667 0 0 0-.666-.667v-10c5.891 0 10.666 4.776 10.666 10.667h-10Zm-.666.667a.667.667 0 0 0 .666-.667h10c0 5.891-4.775 10.667-10.666 10.667v-10Z" mask="url(#a)"/></svg>