<svg xmlns="http://www.w3.org/2000/svg" width="192" height="192" fill="none"><path fill="#fff" fill-rule="evenodd" d="M97 183c48.049 0 87-38.951 87-87S145.049 9 97 9 10 47.951 10 96s38.951 87 87 87Z" clip-rule="evenodd"/><path fill="#9ABEFF" fill-rule="evenodd" d="M97 174c43.078 0 78-34.922 78-78s-34.922-78-78-78-78 34.922-78 78 34.922 78 78 78Z" clip-rule="evenodd"/><mask id="a" width="156" height="156" x="19" y="18" maskUnits="userSpaceOnUse" style="mask-type:luminance"><path fill="#fff" fill-rule="evenodd" d="M97 174c43.078 0 78-34.922 78-78s-34.922-78-78-78-78 34.922-78 78 34.922 78 78 78Z" clip-rule="evenodd"/></mask><g mask="url(#a)"><path fill="#fff" fill-rule="evenodd" d="m166.199 89.704-25.509 82.159h-17.655l-22.96-71.784c-.298-.942-.6-1.935-.908-2.979a67.686 67.686 0 0 1-.909-3.414 68.51 68.51 0 0 1-.908 3.415c-.333 1.127-.636 2.12-.908 2.979l-23.177 71.783H55.61l-28.238-90.94c-1.814-.323-3.206-.572-4.175-.746-.968-.179-1.498-.275-1.587-.288-2.424-.519-3.636-2.033-3.636-4.544v-8.542h39.242v8.542c0 2.51-1.211 4.024-3.636 4.544-.15.035-.39.093-.723.174a254.001 254.001 0 0 1-4.113 1.012l15.075 53.008a68.383 68.383 0 0 1 1.2 5.049c.36 1.801.71 3.727 1.052 5.776a98.05 98.05 0 0 1 1.272-5.776c.46-1.82.956-3.503 1.489-5.049l20.633-62.848c.388-1.114 1.15-2.132 2.29-3.052 1.138-.92 2.53-1.38 4.176-1.38h5.74c1.695 0 3.1.4 4.214 1.199 1.114.8 1.889 1.877 2.325 3.233l20.489 62.848c1.065 3.101 1.986 6.54 2.763 10.316.329-1.847.679-3.664 1.051-5.45.363-1.739.739-3.362 1.126-4.866l14.289-49.9c.572-3.9 2.5-19.01-1.211-23.649-2.528-3.16-3.957-3.33-5.912-3.561-1.35-.16-2.952-.35-5.339-1.576-5.845-3-9.617-12.822-4.274-19.233 5.342-6.41 15.525-6.41 27.781 2.137 9.34 6.515 14.373 13.65 12.928 28.502h1.408l-3.064 9.868a131.828 131.828 0 0 1-1.656 6.507c-.745 2.661-1.548 4.811-2.39 6.526Z" clip-rule="evenodd"/></g></svg>