<svg xmlns="http://www.w3.org/2000/svg" width="192" height="192" fill="none"><rect width="152" height="152" x="173" y="20" fill="#FF837D" rx="10" transform="rotate(90 173 20)"/><path stroke="#BA6561" stroke-width="10" d="M97 137.326c22.272 0 40.326-18.054 40.326-40.326 0-22.271-18.054-40.326-40.326-40.326-22.27 0-40.326 18.056-40.326 40.326 0 22.272 18.055 40.326 40.326 40.326Z" clip-rule="evenodd"/><path stroke="#BA6561" stroke-width="10" d="M97 119.888c12.641 0 22.888-10.247 22.888-22.888 0-12.64-10.247-22.888-22.888-22.888-12.64 0-22.888 10.248-22.888 22.888 0 12.641 10.248 22.888 22.888 22.888Z" clip-rule="evenodd"/><path fill="#fff" fill-rule="evenodd" d="M123.039 61.469a2 2 0 0 1-2.462 1.946L109 60.663V97h-.031c-.022 6.587-5.379 11.92-11.985 11.92-6.618 0-11.984-5.354-11.984-11.96C85 90.355 90.366 85 96.984 85c1.791 0 3.49.392 5.016 1.095V54.53a2 2 0 0 1 2.462-1.945l17.04 4.05a2 2 0 0 1 1.537 1.945v2.889Z" clip-rule="evenodd"/></svg>