<svg xmlns="http://www.w3.org/2000/svg" width="192" height="192" fill="none"><rect width="152" height="152" x="20" y="20" fill="#fff" rx="10"/><path fill="#98DC9A" fill-rule="evenodd" d="M93.298 103.398c1.944 3.226 6.622 3.226 8.566 0l12.381-20.548c2.768-4.594-3.87-11.776-9.124-10.693-2.459.507-4.999.815-7.54.815-2.54 0-5.08-.308-7.54-.815-5.254-1.083-11.892 6.099-9.123 10.693l12.38 20.548Z" clip-rule="evenodd"/><path fill="#9ABEFF" fill-rule="evenodd" d="M93.298 86.749c1.944-3.226 6.622-3.226 8.566 0l12.381 20.547c2.768 4.595-3.87 11.777-9.124 10.694-2.459-.507-4.999-.816-7.54-.816-2.54 0-5.08.309-7.54.816-5.254 1.083-11.892-6.099-9.123-10.694l12.38-20.547Z" clip-rule="evenodd"/><path fill="#728DBE" fill-rule="evenodd" d="M101.864 86.749c-1.944-3.226-6.622-3.226-8.566 0l-5.016 8.324 5.016 8.325c1.944 3.226 6.622 3.226 8.566 0l5.016-8.325-5.016-8.324Z" clip-rule="evenodd"/></svg>