<svg xmlns="http://www.w3.org/2000/svg" width="192" height="192" fill="none"><rect width="105" height="152" x="20" y="20" fill="#56595B" rx="10"/><rect width="87" height="133" x="29" y="29" fill="#B1B5BD" rx="3"/><path fill="#9ABEFF" fill-rule="evenodd" d="M140.531 64.58A9.965 9.965 0 0 0 143 58c0-5.523-4.477-10-10-10s-10 4.477-10 10c0 2.52.932 4.821 2.469 6.58.26.38.531.9.531 1.42 0 1-1 2-1 2h-12c-5.523 0-10 4.477-10 10v11l-3.999-1A9.955 9.955 0 0 0 93 86c-5.523 0-10 4.477-10 10s4.477 10 10 10c2.52 0 4.821-.932 6.58-2.469.38-.26.9-.531 1.42-.531 1 0 2 1 2 1v10c0 5.523 4.477 10 10 10h36c5.523 0 10-4.477 10-10V78c0-5.523-4.477-10-10-10h-8s-1-1-1-2c0-.52.271-1.04.531-1.42Z" clip-rule="evenodd"/><path fill="#fff" fill-rule="evenodd" d="m145.617 109-9.405-13.995L144.987 82h-7.83l-4.635 7.29-4.635-7.29h-7.83l8.775 13.005L119.427 109h7.83l5.265-8.325 5.265 8.325h7.83Z" clip-rule="evenodd"/></svg>