<svg xmlns="http://www.w3.org/2000/svg" width="192" height="192" fill="none"><mask id="a" width="178.194" height="196.578" x="6.714" y="-.487" fill="#000" maskUnits="userSpaceOnUse"><path fill="#fff" d="M6.714-.487h178.194v196.578H6.714z"/><path fill-rule="evenodd" d="M51.355 48.441c-4.328-5.655-1.526-13.894 5.353-15.737L98.08 21.62c6.878-1.843 13.425 3.89 12.504 10.952l-7.257 55.662c-1.153 8.846-12.435 11.869-17.857 4.784L51.355 48.441Zm74.971 24.22c3.824-6.304 12.921-6.443 16.936-.26l12.476 19.21c4.015 6.183.187 14.437-7.126 15.367l-26.146 3.323c-8.304 1.056-14.153-7.95-9.811-15.107l13.671-22.534Zm26.794 68.896c4.64-5.73 1.696-14.339-5.48-16.027l-25.656-6.038c-8.148-1.918-14.906 6.427-11.336 13.998l11.24 23.84c3.144 6.668 12.177 7.758 16.817 2.028l14.415-17.801Zm-49.176 20.581c.612 7.347-6.666 12.807-13.549 10.165l-21.385-8.209c-6.882-2.642-8.637-11.57-3.267-16.62l19.2-18.057c6.097-5.735 16.122-1.887 16.816 6.455l2.185 26.266Zm-62.173-39.989c-.386 7.362 7.056 12.596 13.854 9.745l24.305-10.195c7.72-3.238 8.281-13.961.943-17.989L57.767 91.03c-6.463-3.546-14.412.882-14.797 8.244l-1.2 22.875Z" clip-rule="evenodd"/></mask><path fill="#FF837D" fill-rule="evenodd" d="M51.355 48.441c-4.328-5.655-1.526-13.894 5.353-15.737L98.08 21.62c6.878-1.843 13.425 3.89 12.504 10.952l-7.257 55.662c-1.153 8.846-12.435 11.869-17.857 4.784L51.355 48.441Zm74.971 24.22c3.824-6.304 12.921-6.443 16.936-.26l12.476 19.21c4.015 6.183.187 14.437-7.126 15.367l-26.146 3.323c-8.304 1.056-14.153-7.95-9.811-15.107l13.671-22.534Zm26.794 68.896c4.64-5.73 1.696-14.339-5.48-16.027l-25.656-6.038c-8.148-1.918-14.906 6.427-11.336 13.998l11.24 23.84c3.144 6.668 12.177 7.758 16.817 2.028l14.415-17.801Zm-49.176 20.581c.612 7.347-6.666 12.807-13.549 10.165l-21.385-8.209c-6.882-2.642-8.637-11.57-3.267-16.62l19.2-18.057c6.097-5.735 16.122-1.887 16.816 6.455l2.185 26.266Zm-62.173-39.989c-.386 7.362 7.056 12.596 13.854 9.745l24.305-10.195c7.72-3.238 8.281-13.961.943-17.989L57.767 91.03c-6.463-3.546-14.412.882-14.797 8.244l-1.2 22.875Z" clip-rule="evenodd"/><path fill="#fff" d="m51.355 48.441 7.941-6.078-7.941 6.078Zm59.229-15.87 9.916 1.292-9.916-1.292Zm-7.257 55.662 9.917 1.292-9.917-1.292ZM85.47 93.017l-7.941 6.078 7.941-6.078Zm57.792-20.616-8.387 5.446 8.387-5.446Zm-16.936.26-8.55-5.188 8.55 5.187Zm29.412 18.95-8.387 5.447 8.387-5.447Zm-7.126 15.367 1.261 9.92-1.261-9.92Zm-26.146 3.323 1.261 9.92-1.261-9.92Zm-9.811-15.107-8.549-5.187 8.549 5.187Zm34.985 30.336 2.291-9.735-2.291 9.735Zm5.48 16.027 7.772 6.293-7.772-6.293Zm-31.136-22.065 2.291-9.734-2.291 9.734Zm-11.336 13.998 9.045-4.264-9.045 4.264Zm11.24 23.84 9.045-4.265-9.045 4.265Zm16.817 2.028-7.772-6.293 7.772 6.293Zm-48.31 12.945-3.584 9.336 3.584-9.336Zm13.549-10.165 9.966-.829-9.966.829Zm-34.934 1.956-3.583 9.336 3.583-9.336Zm-3.267-16.62-6.85-7.285 6.85 7.285Zm19.2-18.057-6.852-7.285 6.851 7.285Zm16.816 6.455-9.966.829 9.966-.829Zm-46.134-3.978 3.868 9.221-3.868-9.221Zm-13.854-9.745-9.986-.524 9.986.524Zm38.159-.45-3.868-9.222 3.868 9.222Zm.943-17.989-4.811 8.767 4.81-8.767ZM57.767 91.03l4.81-8.766-4.81 8.767ZM42.97 99.275l9.986.523-9.986-.523Zm11.15-76.229C40.362 26.732 34.758 43.209 43.414 54.52l15.882-12.155a.288.288 0 0 1-.02-.03c-.002-.003-.001-.002 0 .003a.166.166 0 0 1 .012.041c.002.013.001.017.002.013a.118.118 0 0 1 .006-.027.15.15 0 0 1 .012-.026c.002-.004 0 0-.009.009a.17.17 0 0 1-.034.026l-.004.002a.287.287 0 0 1 .035-.011l-5.176-19.32Zm41.37-11.087L54.12 23.046l5.176 19.319 41.372-11.086-5.177-19.319Zm25.01 21.905c1.841-14.123-11.251-25.59-25.009-21.904l5.177 19.319c.02-.006.032-.007.035-.008h-.004a.176.176 0 0 1-.042-.005l-.012-.003a.072.072 0 0 1 .009.005l.014.011a.08.08 0 0 1 .012.012.039.039 0 0 1 .007.009c.003.003 0 0-.005-.012l-.007-.02-.004-.021v-.004c0 .003 0 .015-.003.036l19.832 2.585Zm-7.256 55.662 7.256-55.662-19.832-2.585-7.257 55.662 19.833 2.585Zm-35.715 9.57c10.844 14.169 33.408 8.123 35.715-9.57L93.411 86.94a.773.773 0 0 1-.017.089c0 .005-.002.006 0 .004a.304.304 0 0 1 .03-.056.36.36 0 0 1 .033-.042c.021-.023.032-.028.022-.022a.344.344 0 0 1-.14.037c-.01 0 0-.001.03.008a.345.345 0 0 1 .095.046l.01.007-.004-.003-.02-.02a.856.856 0 0 1-.039-.048L77.53 99.095ZM43.414 54.52l34.115 44.576L93.41 86.94 59.296 42.364 43.414 54.519Zm108.235 12.435c-8.031-12.366-26.225-12.087-33.873.52l17.099 10.373c.013-.021.022-.032.024-.035l-.003.003-.019.016a.307.307 0 0 1-.021.013c-.013.007-.018.008-.013.007a.174.174 0 0 1 .065-.001c.005.001 0 0-.013-.006a.177.177 0 0 1-.022-.013l-.019-.015-.003-.003c.002.003.011.013.024.034l16.774-10.893Zm12.475 19.211-12.475-19.21-16.774 10.892 12.476 19.21 16.773-10.892Zm-14.251 30.733c14.627-1.859 22.282-18.367 14.251-30.733l-16.773 10.893c.013.02.019.033.021.036l-.001-.004a.257.257 0 0 1-.009-.049v-.014l-.004.012c-.001.006-.004.012-.007.019a.183.183 0 0 1-.009.018l-.008.01c-.003.004 0 0 .012-.01a.135.135 0 0 1 .02-.013.303.303 0 0 1 .022-.01l.004-.002a.307.307 0 0 1-.041.007l2.522 19.84Zm-26.146 3.323 26.146-3.323-2.522-19.84-26.146 3.323 2.522 19.84Zm-19.621-30.214c-8.684 14.314 3.012 32.325 19.621 30.214l-2.522-19.84a.338.338 0 0 1-.048.004l-.022.001h-.004l.01.001a.29.29 0 0 1 .04.01c.014.005.028.01.038.016.022.01.028.017.022.011l-.015-.015-.021-.028c-.007-.01-.012-.021-.017-.03a.16.16 0 0 1-.008-.02c-.003-.008.001 0 .002.024 0 .012 0 .026-.002.042a.193.193 0 0 1-.008.046.526.526 0 0 1 .033-.062l-17.099-10.374Zm13.67-22.534-13.67 22.534 17.099 10.374 13.67-22.534-17.099-10.373Zm27.573 67.791c.024.005.036.01.04.011l-.004-.002a.096.096 0 0 1-.02-.013c-.008-.005-.014-.011-.02-.016l-.01-.01.006.011.008.019.005.019.002.013c.001.004 0-.001.002-.015a.14.14 0 0 1 .006-.024.102.102 0 0 1 .008-.023l.002-.004a1.26 1.26 0 0 1-.025.034l15.543 12.586c9.279-11.459 3.391-28.677-10.961-32.055l-4.582 19.469Zm-25.656-6.038 25.656 6.038 4.582-19.469-25.656-6.037-4.582 19.468Zm0 0-.019-.044a.227.227 0 0 1-.007-.022l-.001-.003.002.01c.001.011.003.024.003.04s-.002.03-.003.042c-.004.024-.008.032-.005.024.002-.004.005-.011.011-.019a.23.23 0 0 1 .043-.054l.016-.014c.007-.005.001.001-.022.01a.283.283 0 0 1-.08.017h-.01.003l.022.003a.596.596 0 0 1 .047.01l4.582-19.468c-16.297-3.836-29.812 12.854-22.672 27.997l18.09-8.529Zm11.24 23.839-11.24-23.839-18.09 8.529 11.24 23.839 18.09-8.529Zm0 0a.202.202 0 0 1-.028.031c-.003.003-.001.002.004-.002a.096.096 0 0 1 .021-.013l.022-.011.014-.004h-.012l-.021-.001a.09.09 0 0 1-.019-.004.086.086 0 0 1-.013-.003c-.004-.002.001-.001.013.008a.205.205 0 0 1 .036.033c.005.005.005.007.003.003a.454.454 0 0 1-.02-.037l-18.09 8.529c6.288 13.337 24.354 15.516 33.633 4.057l-15.543-12.586Zm14.416-17.801-14.416 17.801 15.543 12.586 14.416-17.801-15.543-12.586ZM86.812 181.64c13.765 5.284 28.321-5.637 27.098-20.33l-19.931 1.658c.002.025.001.038.001.042l.001-.004a.175.175 0 0 1 .015-.047l.007-.013a.084.084 0 0 1-.009.009l-.015.013-.017.011a.142.142 0 0 1-.011.006l.014-.003a.177.177 0 0 1 .05-.001h.004c-.004-.001-.017-.004-.04-.013l-7.168 18.672Zm-21.385-8.209 21.384 8.209 7.168-18.672-21.385-8.209-7.167 18.672Zm-6.535-33.241c-10.74 10.102-7.23 27.957 6.535 33.241l7.167-18.672a.347.347 0 0 1-.038-.017c-.004-.002-.002-.001.003.003a.154.154 0 0 1 .019.016.129.129 0 0 1 .017.018c.01.011.01.016.009.012l-.005-.012a.195.195 0 0 1-.008-.053c0-.004 0 .001-.004.015a.154.154 0 0 1-.008.023l-.012.022-.002.003a.375.375 0 0 1 .03-.03L58.892 140.19Zm19.2-18.057-19.2 18.057 13.702 14.569 19.2-18.057-13.703-14.569Zm33.632 12.911c-1.388-16.684-21.437-24.381-33.633-12.911l13.702 14.569a.652.652 0 0 1 .036-.031l.018-.014.003-.002a.267.267 0 0 1-.087.03c-.024.004-.032.002-.024.003l.022.004.032.01.031.015.02.011c.006.005-.002.001-.017-.018a.312.312 0 0 1-.044-.081v.004l.005.022a.7.7 0 0 1 .005.047l19.931-1.658Zm2.186 26.266-2.186-26.266-19.93 1.658 2.185 26.266 19.931-1.658Zm-62.153-38.637c-.023.01-.036.013-.04.014-.003.002-.002.001.005 0a.157.157 0 0 1 .05 0c.014.002.018.004.014.002l-.012-.005-.017-.011a.143.143 0 0 1-.016-.012l-.009-.009c-.003-.004.001-.001.008.012a.362.362 0 0 1 .016.047l.001.004a.326.326 0 0 1 0-.042l-19.972-1.047c-.772 14.725 14.112 25.194 27.708 19.49l-7.736-18.443Zm24.305-10.195-24.305 10.195 7.736 18.443 24.305-10.195-7.736-18.443Zm0 0a.761.761 0 0 1 .062.039l-.007-.007a.219.219 0 0 1-.026-.031.238.238 0 0 1-.022-.035c-.012-.021-.012-.03-.01-.022l.002.022a.253.253 0 0 1-.008.089c-.003.008-.001 0 .012-.02a.247.247 0 0 1 .055-.061l.008-.006-.003.001-.02.011a.703.703 0 0 1-.043.02l7.736 18.443c15.439-6.476 16.563-27.922 1.886-35.976l-9.622 17.533Zm-23.106-12.68 23.106 12.68 9.622-17.533-23.106-12.68-9.622 17.533Zm0 0a.326.326 0 0 1 .004-.041l-.001.004a.197.197 0 0 1-.022.044c-.007.012-.012.016-.008.012a.174.174 0 0 1 .057-.032l-.014.001a.188.188 0 0 1-.05-.005l-.004-.001.038.018 9.622-17.533C49.652 75.17 33.755 84.026 32.983 98.75l19.973 1.046Zm-1.199 22.875 1.199-22.875-19.973-1.046-1.198 22.874 19.972 1.047Z" mask="url(#a)"/></svg>