<svg xmlns="http://www.w3.org/2000/svg" width="192" height="192" fill="none"><rect width="152" height="152" x="20" y="20" fill="#56595B" rx="10"/><mask id="a" width="152" height="152" x="20" y="20" maskUnits="userSpaceOnUse" style="mask-type:luminance"><rect width="152" height="152" x="20" y="20" fill="#fff" rx="10"/></mask><g mask="url(#a)"><path fill="#8C72BD" fill-rule="evenodd" d="m57 117.131 57.236 57.236h102.837L123.317 76l-41.306 1.128L71.14 92.265l-11.53 3.526 6.493 6.493" clip-rule="evenodd"/><path fill="#BD9AFF" fill-rule="evenodd" d="m124.958 77.04 72.715 72.714-.037 21.87-71.699-71.7-.979-22.885Zm-38.182 4.126 24.4 24.401-25.958 6.791-14.473-1.848 8.736-26.873 7.295-2.471Z" clip-rule="evenodd"/><mask id="b" fill="#fff"><path fill-rule="evenodd" d="M116.417 94.986c-1.787 4.015-5.21 6.861-10.229 8.799-5.134 1.983-11.26 2.715-16.832 2.715H73.353l5.759-11.25h6.798l3.856-7h-7.071L86.407 81h26.24c2.121 0 3.557.948 4.482 2.925 1.039 2.22 1.463 6.175-.712 11.061ZM71.461 88.25 80.291 71h32.356c12.565 0 19.241 13.818 12.906 28.052-6.335 14.234-23.633 17.448-36.197 17.448H57l5.119-10 5.759-11.25H59.91l3.856-7h7.695Z" clip-rule="evenodd"/></mask><path fill="#fff" d="m106.188 103.785 3.603 9.329-3.603-9.329Zm10.229-8.799 9.136 4.066-9.136-4.066ZM73.353 106.5l-8.901-4.557L57 116.5h16.353v-10Zm5.759-11.25v-10h-6.115l-2.787 5.443 8.902 4.557Zm6.798 0v10h5.908l2.85-5.175-8.758-4.825Zm3.856-7 8.76 4.826 8.167-14.826H89.766v10Zm-7.07 0-8.902-4.557-7.452 14.557h16.353v-10Zm3.71-7.25V71h-6.114l-2.787 5.443L86.407 81Zm30.723 2.925-9.058 4.236 9.058-4.236ZM80.292 71V61h-6.115l-2.787 5.443L80.292 71Zm-8.83 17.25v10h6.114l2.787-5.443-8.902-4.557Zm54.091 10.802 9.136 4.066-9.136-4.066ZM57 116.5l-8.901-4.557-7.452 14.557H57v-10Zm5.119-10 8.901 4.557-8.901-4.557Zm5.759-11.25 8.901 4.557 7.452-14.557H67.878v10Zm-7.968 0-8.759-4.826-8.168 14.826H59.91v-10Zm3.856-7v-10H57.86l-2.851 5.174 8.758 4.826Zm46.025 24.864c6.711-2.593 12.603-6.963 15.762-14.062l-18.272-8.132c-.415.932-1.369 2.252-4.696 3.537l7.206 18.657ZM89.356 116.5c6.281 0 13.747-.803 20.435-3.386l-7.206-18.657C99.004 95.84 94.22 96.5 89.355 96.5v20Zm-16.003 0h16.003v-20H73.353v20Zm-3.142-25.807-5.76 11.25 17.804 9.114 5.758-11.25-17.803-9.114Zm8.901 14.557h6.798v-20h-6.798v20Zm15.556-5.175 3.857-7-17.517-9.65-3.857 7 17.517 9.65ZM89.766 78.25H85.91v20h3.856v-20Zm-3.856 0h-3.215v20h3.215v-20Zm-8.405-1.807-3.711 7.25 17.803 9.114 3.711-7.25-17.803-9.114ZM112.647 71h-26.24v20h26.24V71Zm13.54 8.688c-1.047-2.24-2.724-4.6-5.375-6.335-2.68-1.753-5.57-2.353-8.165-2.353v20c-.474 0-1.585-.126-2.786-.911-1.171-.766-1.667-1.665-1.79-1.928l18.116-8.473Zm-.634 19.364c3.178-7.14 3.073-14.15.634-19.364l-18.116 8.473c-.361-.771.382.126-.79 2.76l18.272 8.131ZM71.39 66.443l-8.83 17.25 17.803 9.114 8.83-17.25-17.803-9.114ZM112.647 61H80.292v20h32.355V61Zm22.042 42.118c4.16-9.348 4.413-19.42.557-27.666C131.275 66.962 123.091 61 112.647 61v20c2.121 0 3.557.948 4.482 2.925 1.039 2.22 1.463 6.175-.712 11.061l18.272 8.132ZM89.356 126.5c6.99 0 15.798-.875 24.037-4.058 8.355-3.227 16.748-9.105 21.296-19.324l-18.272-8.132c-1.787 4.015-5.21 6.861-10.229 8.799-5.134 1.983-11.26 2.715-16.832 2.715v20Zm-21.122 0h21.122v-20H68.234v20ZM57 126.5h11.234v-20H57v20Zm-3.782-24.557-5.12 10 17.803 9.114 5.12-10-17.803-9.114Zm5.758-11.25-5.758 11.25 17.802 9.114 5.76-11.25-17.803-9.114Zm4.79 14.557h4.112v-20h-4.112v20Zm-3.856 0h3.856v-20H59.91v20Zm-4.902-21.826-3.857 7 17.517 9.651 3.857-7-17.517-9.65ZM71.46 78.25h-7.695v20h7.695v-20Z" mask="url(#b)"/></g></svg>