<?xml version="1.0" encoding="UTF-8" standalone="no"?>
<svg
   xmlns:dc="http://purl.org/dc/elements/1.1/"
   xmlns:cc="http://creativecommons.org/ns#"
   xmlns:rdf="http://www.w3.org/1999/02/22-rdf-syntax-ns#"
   xmlns:svg="http://www.w3.org/2000/svg"
   xmlns="http://www.w3.org/2000/svg"
   xmlns:sodipodi="http://sodipodi.sourceforge.net/DTD/sodipodi-0.dtd"
   xmlns:inkscape="http://www.inkscape.org/namespaces/inkscape"
   viewBox="0 0 192 192"
   version="1.1"
   id="svg16"
   sodipodi:docname="aaa_auto_club.svg"
   inkscape:version="0.92.4 (5da689c313, 2019-01-14)">
  <metadata
     id="metadata20">
    <rdf:RDF>
      <cc:Work
         rdf:about="">
        <dc:format>image/svg+xml</dc:format>
        <dc:type
           rdf:resource="http://purl.org/dc/dcmitype/StillImage" />
        <dc:title></dc:title>
      </cc:Work>
    </rdf:RDF>
  </metadata>
  <sodipodi:namedview
     pagecolor="#ffffff"
     bordercolor="#666666"
     borderopacity="1"
     objecttolerance="10"
     gridtolerance="10"
     guidetolerance="10"
     inkscape:pageopacity="0"
     inkscape:pageshadow="2"
     inkscape:window-width="1920"
     inkscape:window-height="1017"
     id="namedview18"
     showgrid="true"
     inkscape:zoom="5.8939376"
     inkscape:cx="92.661782"
     inkscape:cy="96.642977"
     inkscape:window-x="-8"
     inkscape:window-y="-8"
     inkscape:window-maximized="1"
     inkscape:current-layer="svg16"
     inkscape:snap-global="true">
    <inkscape:grid
       type="xygrid"
       id="grid827"
       spacingx="4"
       spacingy="4" />
  </sodipodi:namedview>
  <defs
     id="defs4">
    <style
       id="style2">.a{fill:none;stroke:#b1b5bd;stroke-linecap:round;stroke-linejoin:round;isolation:isolate;opacity:0.63;}</style>
  </defs>
  <rect
     class="a"
     x="8"
     y="32"
     width="176"
     height="128"
     rx="10"
     id="rect14"
     style="fill:#9abeff;stroke:none;opacity:1" />
  <path
     style="fill:#ffffff;stroke:none;stroke-width:1px;stroke-linecap:butt;stroke-linejoin:miter;stroke-opacity:1"
     d="m 114.3332,101.78114 c 0,0 29.04937,-20.514543 25.1941,-28.793247 -2.47516,-5.315093 -36.3852,6.17067 -51.827855,15.476373 -13.345814,8.042154 -35.534592,28.201864 -32.752323,33.352184 3.4992,6.47745 22.074826,-0.71983 22.074826,-0.71983 0,0 -24.208553,9.18095 -27.593533,2.75935 C 45.863811,117.09361 69.713863,92.367859 85.180036,82.94556 103.1544,71.995223 141.90083,61.042561 146.48567,67.829102 c 6.03468,8.93261 -32.15247,33.952038 -32.15247,33.952038 z"
     id="path844"
     inkscape:connector-curvature="0"
     sodipodi:nodetypes="cssscsssc" />
  <rect
     style="opacity:1;vector-effect:none;fill:#ffffff;fill-opacity:1;fill-rule:evenodd;stroke:none;stroke-width:8;stroke-linecap:round;stroke-linejoin:round;stroke-miterlimit:4;stroke-dasharray:none;paint-order:stroke fill markers"
     id="rect840"
     width="72"
     height="48"
     x="44"
     y="64"
     ry="24"
     rx="36" />
  <rect
     style="opacity:1;vector-effect:none;fill:#9abeff;fill-opacity:1;fill-rule:evenodd;stroke:none;stroke-width:8;stroke-linecap:round;stroke-linejoin:round;stroke-miterlimit:4;stroke-dasharray:none;paint-order:stroke fill markers"
     id="rect842"
     width="64"
     height="40"
     x="48"
     y="68"
     ry="20"
     rx="32" />
  <path
     style="fill:#ffffff;stroke:none;stroke-width:1px;stroke-linecap:butt;stroke-linejoin:miter;stroke-opacity:1"
     d="M 78.701172 68 L 64.75 109.75586 C 67.093534 110.48398 69.575463 111.04735 72.164062 111.42773 L 80 84 L 87.835938 111.42773 C 90.433842 111.04598 92.924434 110.47996 95.275391 109.74805 L 81.820312 68 L 78.701172 68 z "
     id="path846" />
  <rect
     style="opacity:1;vector-effect:none;fill:#ffffff;fill-opacity:1;fill-rule:evenodd;stroke:none;stroke-width:8;stroke-linecap:round;stroke-linejoin:round;stroke-miterlimit:4;stroke-dasharray:none;paint-order:stroke fill markers"
     id="rect848"
     width="16"
     height="4"
     x="72"
     y="96" />
  <path
     style="fill:#ffffff;stroke:none;stroke-width:1px;stroke-linecap:butt;stroke-linejoin:miter;stroke-opacity:1"
     d="M 62.701172 68 L 51.197266 102.43164 C 53.015547 104.04474 55.136158 105.49659 57.498047 106.75586 L 59.427734 100 L 68.572266 100 L 69.599609 103.59961 L 72 100 L 76.132812 100 L 65.820312 68 L 62.701172 68 z M 94.701172 68 L 84.009766 100 L 88 100 L 90.400391 103.59961 L 91.427734 100 L 100.57227 100 L 102.50195 106.75586 C 104.90184 105.47633 107.05287 103.99776 108.89062 102.35352 L 97.820312 68 L 94.701172 68 z M 64 84 L 67.427734 96 L 60.572266 96 L 64 84 z M 96 84 L 99.427734 96 L 92.572266 96 L 96 84 z "
     id="path846-2" />
</svg>
