<?xml version="1.0" encoding="UTF-8" standalone="no"?>
<svg
   xmlns:dc="http://purl.org/dc/elements/1.1/"
   xmlns:cc="http://creativecommons.org/ns#"
   xmlns:rdf="http://www.w3.org/1999/02/22-rdf-syntax-ns#"
   xmlns:svg="http://www.w3.org/2000/svg"
   xmlns="http://www.w3.org/2000/svg"
   xmlns:sodipodi="http://sodipodi.sourceforge.net/DTD/sodipodi-0.dtd"
   xmlns:inkscape="http://www.inkscape.org/namespaces/inkscape"
   viewBox="0 0 192 192"
   version="1.1"
   id="svg16"
   sodipodi:docname="aa_wireless.svg"
   inkscape:version="0.92.4 (5da689c313, 2019-01-14)">
  <metadata
     id="metadata20">
    <rdf:RDF>
      <cc:Work
         rdf:about="">
        <dc:format>image/svg+xml</dc:format>
        <dc:type
           rdf:resource="http://purl.org/dc/dcmitype/StillImage" />
        <dc:title></dc:title>
      </cc:Work>
    </rdf:RDF>
  </metadata>
  <sodipodi:namedview
     pagecolor="#ffffff"
     bordercolor="#666666"
     borderopacity="1"
     objecttolerance="10"
     gridtolerance="10"
     guidetolerance="10"
     inkscape:pageopacity="0"
     inkscape:pageshadow="2"
     inkscape:window-width="1920"
     inkscape:window-height="1017"
     id="namedview18"
     showgrid="true"
     inkscape:zoom="2.9469688"
     inkscape:cx="110.12632"
     inkscape:cy="82.288729"
     inkscape:window-x="-8"
     inkscape:window-y="-8"
     inkscape:window-maximized="1"
     inkscape:current-layer="svg16"
     showguides="true"
     inkscape:guide-bbox="true"
     inkscape:snap-global="false">
    <inkscape:grid
       type="xygrid"
       id="grid827"
       spacingx="4"
       spacingy="4" />
  </sodipodi:namedview>
  <defs
     id="defs4">
    <style
       id="style2">.a{fill:none;stroke:#b1b5bd;stroke-linecap:round;stroke-linejoin:round;isolation:isolate;opacity:0.63;}</style>
  </defs>
  <path
     inkscape:connector-curvature="0"
     style="opacity:1;vector-effect:none;fill:#96dfd3;fill-opacity:1;fill-rule:evenodd;stroke:none;stroke-width:2;stroke-linecap:round;stroke-linejoin:round;stroke-miterlimit:4;stroke-dasharray:none;stroke-opacity:1;paint-order:stroke fill markers"
     d="m 90.214308,60 c -25.484,0 -46,20.516 -46,46 0,25.484 20.516,46 46,46 11.295722,0 21.609982,-4.03663 29.599612,-10.74414 l 9.57227,9.57226 c 2.51998,2.51822 6.82671,0.73442 6.82812,-2.82812 v -42 c 0,-25.484 -20.516,-46 -46.000002,-46 z m 0,16 c 16.620002,0 30.000002,13.38 30.000002,30 0,16.62 -13.38,30 -30.000002,30 -16.62,0 -30,-13.38 -30,-30 0,-16.62 13.38,-30 30,-30 z"
     id="rect840-2" />
  <path
     style="opacity:1;vector-effect:none;fill:#bd9aff;fill-opacity:1;fill-rule:evenodd;stroke:none;stroke-width:2;stroke-linecap:round;stroke-linejoin:round;stroke-miterlimit:4;stroke-dasharray:none;stroke-opacity:1;paint-order:stroke fill markers"
     d="m 70.534702,92 c -25.484,0 -46,20.516 -46,46 0,25.484 20.516,46 46,46 11.295722,0 21.609982,-4.03663 29.599608,-10.74414 l 9.57227,9.57226 c 2.51998,2.51822 6.82671,0.73442 6.82812,-2.82812 v -42 c 0,-25.484 -20.515998,-46 -45.999998,-46 z m 0,16 c 16.62,0 29.999998,13.38 29.999998,30 0,16.62 -13.379998,30 -29.999998,30 -16.62,0 -30,-13.38 -30,-30 0,-16.62 13.38,-30 30,-30 z"
     id="rect840"
     inkscape:connector-curvature="0" />
  <path
     style="fill:#96dfd3;stroke:none;stroke-width:1px;stroke-linecap:butt;stroke-linejoin:miter;stroke-opacity:1"
     d="m 116.05423,121.2793 c -4.64131,7.8572 -12.76215,13.3865 -22.275388,14.5039 l -3.767578,16.21094 c 0.06805,2.9e-4 0.135009,0.006 0.203126,0.006 10.76511,0 20.63349,-3.67185 28.45312,-9.82227 z"
     id="path867"
     inkscape:connector-curvature="0" />
  <path
     style="fill:#96dfd3;stroke:none;stroke-width:0.9776358px;stroke-linecap:butt;stroke-linejoin:miter;stroke-opacity:1"
     d="M 99.190022,49.010944 C 130.19075,43.808271 136.34522,72.06707 136.34522,72.06707 l 11.94274,-2.985685 c 0,0 -6.51504,-37.99807 -51.917748,-32.676669 z"
     id="path885"
     inkscape:connector-curvature="0"
     sodipodi:nodetypes="ccccc" />
  <path
     style="fill:#96dfd3;stroke:none;stroke-width:1px;stroke-linecap:butt;stroke-linejoin:miter;stroke-opacity:1"
     d="m 88.56558,9.9485302 c 0.352273,-0.03327 3.223651,12.2159418 3.223651,12.2159418 55.011769,-9.284818 68.545009,42.416465 68.545009,42.416465 l 12.21594,-3.053985 c 0,0 -15.19795,-64.8946247 -83.9846,-51.5784218 z"
     id="path887"
     inkscape:connector-curvature="0"
     sodipodi:nodetypes="ccccc" />
</svg>
