<?xml version="1.0" encoding="UTF-8"?>
<svg id="Layer_1" data-name="Layer 1" xmlns="http://www.w3.org/2000/svg" viewBox="0 0 192 192">
  <defs>
    <style>
      .cls-1 {
        opacity: .5;
      }

      .cls-1, .cls-2, .cls-3 {
        fill: #98dc9a;
      }

      .cls-2 {
        opacity: .75;
      }

      .cls-4 {
        fill: #fff;
        isolation: isolate;
      }

      .cls-5 {
        fill: none;
        stroke: #98dc9a;
        stroke-linecap: round;
        stroke-miterlimit: 10;
        stroke-width: 5px;
      }
    </style>
  </defs>
  <path class="cls-4" d="m30,20h132c5.5,0,10,4.5,10,10v132c0,5.5-4.5,10-10,10H30c-5.5,0-10-4.5-10-10V30c0-5.5,4.5-10,10-10Z"/>
  <g>
    <path class="cls-5" d="m114.07,60.04c-5.49-2.81-11.02-4.04-17.61-4.04-22.19,0-40.17,17.91-40.17,40s17.99,40,40.17,40c20.41,0,36.68-13.78,39.25-33.4"/>
    <g>
      <path d="m108.58,75.67v45.72c0,.31-.25.55-.55.55h-24.06c-.31,0-.55-.25-.55-.55v-45.72c0-.31.25-.55.55-.55h6.13c.31,0,.55-.25.55-.55v-3.96c0-.31.25-.55.55-.55h9.49c.31,0,.55.25.55.55v3.96c0,.31.25.55.55.55h6.22c.31,0,.55.25.55.55Z"/>
      <rect class="cls-3" x="88.24" y="111.15" width="16.01" height="6.4" rx=".4" ry=".4"/>
      <rect class="cls-2" x="88.24" y="104.15" width="16.01" height="6.4" rx=".4" ry=".4"/>
      <rect class="cls-1" x="88.24" y="97.15" width="16.01" height="6.4" rx=".4" ry=".4"/>
    </g>
  </g>
</svg>