<?xml version="1.0" encoding="UTF-8"?><svg id="a" xmlns="http://www.w3.org/2000/svg" viewBox="0 0 192 192"><g id="b"><g id="c"><g><path d="M81.57064,180.8662c-3.75434,.50985-6.34993,1.06604-8.80648,.78795-10.52143-1.25145-30.59093-5.79374-38.19232-18.07646-7.60138-12.28272-20.9038-22.71145-23.17495-38.33137-2.2248-15.24912-5.05214-28.92234-2.17845-40.64887-.04635,3.66164,.13905,7.04518,.41715,9.73348,.4635,4.58864,2.41019,8.99188,3.98609,21.8308,.78795,6.48899,3.42989,11.26302,7.27693,16.40786,1.5759,2.08575,3.19814,4.12514,4.58864,6.34994,.23175,1.11239,.5562,2.17845,1.0197,3.24449,1.854,4.35689,5.60834,11.40208,10.38238,12.97797,.88065,.2781,1.80765,.4635,2.5029,1.06604,.78795,.6489,1.15875,1.62225,1.71494,2.45654,.97335,1.43685,2.87369,2.78099,4.58864,4.07879,.32445,.4635,.6489,.927,.927,1.3905,9.03823,13.11704,24.38005,15.61994,34.94782,16.73233m97.65924-113.64995c-2.73464-21.78445-10.98493-21.46-16.22246-29.33949-5.23753-7.83313-29.80298-20.48666-42.87366-25.63149-9.64078-3.80069-17.52026-1.25145-26.0023,.50985,13.11702,1.52955,35.08687,7.74043,40.92697,12.51447,.927,.7416,2.27114,2.36384,3.89339,4.49594,.04635,.04635,.09271,.13905,.13904,.1854,5.51564,1.90035,9.91888,4.17149,15.43451,10.19698,1.3905,1.4832,2.73464,3.01274,4.17149,4.44959,1.0197,1.0197,2.27114,1.71494,3.29085,2.73464,2.78099,2.82734,5.51564,5.65469,8.29663,8.52838,.97335,.97335,.927,1.62225,.97335,1.94669,0,.32445-.13904,.88065-.5562,.50985-.41715-.3708-1.15875-.60255-1.4832-.13905-.37079,.69525,.37079,1.6686,1.06604,2.59559,.88065,1.2051,1.25145,2.73464,1.90035,4.07879,1.34414,2.96639,2.73464,5.93278,3.42989,9.13093,.6489,3.01274,2.22479,5.93279,3.29085,8.85283,2.27114,6.21088,3.5226,12.60717,2.50289,19.18886-.6489,4.12514-1.29779,8.20393-1.76129,12.28272,.6489-2.92005,1.52954-6.48899,2.92004-11.07762,3.70802-12.51449-.64888-14.22943-3.33717-36.01388" style="fill:#98dc9a;"/><path d="M23.49422,130.2521c-.5562-1.43685-1.2978-2.78099-1.99305-4.17149-.13905-.2781-.2781-.5562-.4635-.88065-2.1321-4.17149-4.07879-8.48203-5.23754-12.97797-1.2978-4.82039-1.6686-9.96523-.50985-14.83197,.88065-3.61529,2.59559-6.95248,3.89339-10.42873,2.13209-5.84009,2.82734-12.09733,4.68134-18.03011,.88065-2.87369,2.08575-4.40324,3.42989-6.95248,1.3905-2.54924,3.29084-4.77404,5.19119-7.04518,4.68134-5.70104,10.10427-10.70683,16.12976-14.97102,1.3905-.97335,2.82734-2.17845,4.44959-2.73464,1.34415-.4635,2.41019-.3708,3.70799-1.15875,2.82734-1.71495,4.35689-4.86674,7.23058-6.48899,3.8007-2.13209,7.92584-6.02549,12.32908-6.76708,1.7613-.32445,3.29085-.13905,5.05214-.6489,2.45655-.7416,4.82039-1.71495,7.32329-2.41019,1.15875-.32445,2.2248-.88065,3.42989-.88065,2.45655-.04635,5.00579,.5562,7.46234,.32445,2.6883-.2781,5.33024-1.4832,8.06488-1.854,.2781-.04635,.60255-.04635,.78795,.1854,.1854,.2781,0,.60255-.1854,.8343-.78795,1.06605-1.52955,2.54924-.69525,3.52259,.4635,.60255,1.34414,.69525,2.08575,.69525,2.87369-.04635,5.84009-1.06605,8.66743-.1854,1.52955,.4635,3.24449,.4635,4.82039,.6489,1.7613,.23175,3.56894,.41715,5.33025,.6489,.32445,.04635,.69525,.0927,1.0197,.23175,.32445,.1854,.5562,.50985,.50985,.8343-.04635,.5562-.78795,.8343-.927,1.3905-.09271,.41715,.1854,.8343,.5562,1.0197,1.9467,1.06605,4.68134,1.3905,6.85978,1.99305,.09271,0,.13904,.04635,.23175,.0927,.23175,.04635,.37079,.0927,.4635,.0927,.6489,.1854,1.25145,.41715,1.854,.60255-.04635-.04635-.09271-.13905-.13904-.1854-1.62225-2.13209-2.96639-3.75434-3.89339-4.49594-6.34996-5.23754-32.25955-12.23637-44.49592-12.83892-12.19002-.5562-25.0753,5.28389-39.62917,10.79953-14.55387,5.51564-21.78445,20.57936-31.98143,30.54459-10.24333,9.91888-10.33603,30.22013-9.26998,40.60251,.4635,4.58864,2.41019,8.99188,3.98609,21.83081,.78795,6.48899,3.42989,11.26302,7.27693,16.40786,1.5759,2.08575,3.19814,4.12514,4.58864,6.34994-.60255-2.96639-.8343-5.9328-1.99305-8.71379" style="fill:#73ada4;"/><path d="M178.81273,82.88251c-1.06604-2.92005-2.64195-5.84009-3.29085-8.85283-.69525-3.19814-2.03939-6.16454-3.42989-9.13093-.6489-1.34415-.97335-2.87369-1.90035-4.07879-.69525-.927-1.3905-1.854-1.06604-2.59559,.32445-.4635,1.06604-.2781,1.4832,.13905,.41715,.3708,.5562-.1854,.5562-.50985s0-.97335-.97335-1.94669c-2.78099-2.82734-5.51564-5.65469-8.29663-8.52838-1.0197-1.06605-2.27114-1.71494-3.29085-2.73464-1.43685-1.43685-2.78099-2.96639-4.17149-4.44959-6.0255-6.72074-10.79953-8.80648-17.24218-10.89223-.09271-.04635-.23175-.04635-.4635-.0927,3.19814,.927,2.82735,2.4102,4.31053,4.86674,1.6686,2.73464,5.37659,5.14484,7.87948,7.09153,1.57589,1.25145,3.19814,2.45655,4.58864,3.93974,2.17845,2.31749,3.19814,5.23754,4.68134,7.97218,.5562,1.06605,.69525,2.36384,1.52954,3.19814,.88065,.88065,2.4102,1.0197,3.0591,2.08575,.69525,1.1124-.04635,2.54924,.04635,3.84704,.13904,2.64194,11.40208,10.05793,3.93974,12.60717-.1854,.04635-.37079,.0927-.50985,.2781-.13904,.1854-.13904,.41715-.09271,.6489,.23175,1.90035,1.76129,3.38354,2.96639,4.91309,2.36385,2.96639,3.47624,6.48899,3.75434,10.19698,.09271,1.11239-.09271,7.50868-1.3905,9.26998-.1854,.2781-.09271,.41715,.1854,.50985,1.11239,.2781,2.4102,1.25145,2.31749,2.1321-.2781,2.64194-1.9467,5.00579-2.22479,7.60138-.4635,4.03244,2.31749,8.01853,1.43685,12.00462-.7416,3.42989-4.12514,6.11819-4.12514,9.64077,0,.83429,.1854,1.76129-.1854,2.50289s-1.15875,1.11239-1.854,1.52954c-3.89339,2.36385-5.70103,6.99884-9.17727,9.96523-1.99304,1.71495-4.49595,2.78099-6.62803,4.35689-2.50289,1.80764-5.79374,7.09153-8.94552,7.27694-1.06604,.09271-2.1321-.41715-3.19814-.5562-1.6686-.1854-3.24449,.5562-4.7277,1.29779-3.0591,1.4832-6.07184,2.1321-9.17727,3.38354-3.38354,1.3905-6.58168,4.07879-9.54808,6.16453-6.16454,4.35689-12.32908,8.89919-19.55966,11.40208-1.06605,.37079-2.64194,.4635-3.01274-.60254-.41715-1.25145,1.52955-2.1321,1.71494-3.47624-1.15875-.23175-2.1321,.69525-3.10544,1.3905-1.94669,1.3905-4.44959,1.71495-6.85979,1.854-4.44959,.23175-9.22363-.04635-13.58052-1.25145-2.5956-.7416-4.95944-1.43685-7.18423-2.96639-5.33024-3.66164-11.44842-5.23753-16.22246-9.77983-.60255-.60254-1.34415-1.15875-2.17844-1.76129,.32445,.4635,.6489,.927,.927,1.3905,9.91888,14.50751,27.67089,16.03707,38.05327,17.05676,4.63499,.41715,9.31633-.60254,22.2016,.37079,12.88527,.97335,13.62687-3.56895,34.06718-10.84587,7.69409-2.73464,14.92467-6.53534,19.32791-13.67322,2.4102-3.89339,4.82039-7.78678,7.13788-11.77287,1.06604-1.80764,2.31749-3.56895,3.24449-5.42294,.88065-1.71495,2.50289-4.68134,3.24449-4.12514,.37079,.23175,.1854,1.2051,.5562,1.43685,.1854,.13904,.41715-.09271,.5562-.2781,3.0591-4.7277,3.3372-9.50173,3.70799-15.11007,.4635-6.76709,1.4832-13.11702,2.54924-19.74506,1.11238-6.58166-.13907-12.97794-2.41021-19.14247" style="fill:#728dbe;"/><path d="M110.72473,99.05862c-1.62225,.88065-2.92005,1.0197-5.23754,1.11239-2.27114,.0927-4.31054-.2781-4.86674-.32445-.5562-.04635-.78795-.6489-.8343-1.3905-.0927-1.52955,.8343-1.2051,1.80764-1.15875,.97335,.04635,1.854-.1854,3.24449-.13905,1.43685,.04635,3.15179,.41715,5.19119,.04635,1.4832-.2781,1.94669-.8343,2.31749-1.11239,.3708-.2781,.5562-.13905,.88065,.60255,.32446,.74159-.88064,1.4832-2.50288,2.36384m-31.84238-2.03939c-.60255-.3708-.97335-.4635-1.3905-.78795-.41715-.2781-.50985-.23175-.88065,.04635-.3708,.32445-1.3905,1.15875-3.75434,1.80764-2.36385,.60255-3.33719,.7416-4.07879,.7416-.4635,0-.927-.13905-1.25145,.5562-.32445,.6489-.1854,1.11239,.2781,1.2978,.4635,.1854,1.90035,.69525,3.75434,.50985,1.80764-.1854,3.15179-.5562,4.44959-1.15875,1.34414-.5562,2.54924-1.06605,3.0591-1.57589,.50984-.50986,.41714-1.01971-.18541-1.43686m35.13322,21.50635c-.5562,.04635-.69525,.0927-.97335,.41715-.32445,.3708-.23175,.50985,0,1.52955s.60255,2.45655,.69525,4.95944c.04635,2.50289-.1854,5.37659-.69525,6.67438s.6489,1.29779,.8343,1.29779h1.11239c.4635-.04635,.60255-.41715,.78795-1.06604s.2781-2.68829,.32445-6.30359c.04635-3.61529-.97335-5.19119-1.34414-6.21088-.32445-.92699-.37079-1.34414-.74159-1.29779m59.18882,3.89339c-.7416,3.42989-4.12514,6.11819-4.12514,9.64077,0,.83429,.1854,1.76129-.1854,2.50289s-1.15875,1.11239-1.854,1.52954c-3.89339,2.36385-5.70103,6.99884-9.17727,9.96523-1.99304,1.71495-4.49595,2.78099-6.62803,4.35689-2.50289,1.80764-5.79374,7.09153-8.94552,7.27694-1.06604,.09271-2.1321-.41715-3.19814-.5562-1.6686-.1854-3.24449,.5562-4.7277,1.29779-3.0591,1.4832-6.07184,2.1321-9.13094,3.38354-3.38354,1.3905-6.58168,4.07879-9.54808,6.16453-6.16454,4.35689-12.32908,8.89919-19.55966,11.40208-1.06605,.37079-2.64194,.4635-3.01274-.60254-.41715-1.25145,1.52955-2.1321,1.71494-3.47624-1.15875-.23175-2.1321,.69525-3.10544,1.3905-1.94669,1.3905-4.44959,1.71495-6.85979,1.854-4.44959,.23175-9.22363-.04635-13.58052-1.25145-2.5956-.7416-4.95944-1.43685-7.18423-2.96639-5.33024-3.66164-11.44842-5.23753-16.22246-9.77983-1.94669-1.854-5.33024-3.75434-6.72074-5.84009-.5562-.83429-.927-1.80764-1.71494-2.45654-.69525-.5562-1.62225-.7416-2.5029-1.06604-4.77404-1.57589-8.57473-8.62108-10.38238-12.97797-1.62225-3.84704-1.43685-8.06488-3.01274-11.95827-.5562-1.43685-1.2978-2.78099-1.99305-4.17149-.13905-.2781-.2781-.5562-.4635-.88065-2.1321-4.17149-4.07879-8.48203-5.23754-12.97797-1.2978-4.82039-1.6686-9.96523-.50985-14.83197,.88065-3.61529,2.59559-6.95248,3.89339-10.42873,2.13209-5.84009,2.82734-12.09733,4.68134-18.03011,.88065-2.87369,2.08575-4.40324,3.42989-6.95248,1.3905-2.54924,3.29084-4.77404,5.19119-7.04518,4.63498-5.70102,10.05791-10.70682,16.0834-14.971,1.3905-.97335,2.82734-2.17845,4.44959-2.73464,1.34415-.4635,2.41019-.3708,3.70799-1.15875,2.82734-1.71495,4.35689-4.86674,7.23058-6.48899,3.8007-2.13209,7.92584-6.02549,12.32908-6.76708,1.7613-.32445,3.29085-.13905,5.05214-.6489,2.45655-.7416,4.82039-1.71495,7.32329-2.41019,1.15875-.32445,2.2248-.88065,3.42989-.88065,2.45655-.04635,5.00579,.5562,7.46234,.32445,2.6883-.2781,5.33024-1.4832,8.06488-1.854,.2781-.04635,.60255-.04635,.78795,.1854,.1854,.2781,0,.60255-.1854,.8343-.78795,1.06605-1.52955,2.54924-.69525,3.52259,.4635,.60255,1.34414,.69525,2.08575,.69525,2.87369-.04635,5.84009-1.06605,8.66743-.1854,1.4832,.4635,3.24449,.4635,4.82039,.6489,1.7613,.23175,3.56894,.41715,5.33025,.6489,.32445,.04635,.69525,.0927,1.0197,.23175,.32445,.1854,.5562,.50985,.50985,.8343-.04635,.5562-.78795,.8343-.88065,1.3905-.09271,.41715,.1854,.8343,.5562,1.0197,1.9467,1.06605,4.68134,1.3905,6.85978,1.99305,3.47624,.927,3.01274,2.4102,4.54228,4.95944,1.6686,2.73464,5.37659,5.14484,7.87948,7.09154,1.57589,1.25145,3.19814,2.45655,4.58864,3.93974,2.17845,2.31749,3.19814,5.23754,4.68134,7.97218,.5562,1.06605,.69525,2.36384,1.52954,3.19814,.88065,.88065,2.4102,1.0197,3.0591,2.08575,.69525,1.1124-.04635,2.54924,.04635,3.89339,.1854,2.64194,11.40208,10.05793,3.93974,12.60717-.1854,.04635-.37079,.0927-.50985,.2781-.13904,.1854-.13904,.41715-.13904,.6489,.23175,1.90035,1.76129,3.38354,2.96639,4.91309,2.36385,2.96639,3.47624,6.48899,3.75434,10.19698,.09271,1.11239-.09271,7.50868-1.3905,9.26998-.1854,.2781-.09271,.41715,.1854,.50985,1.11239,.2781,2.4102,1.25145,2.31749,2.1321-.2781,2.64194-1.9467,5.00579-2.22479,7.60138-.41716,3.98608,2.31748,7.97217,1.43684,11.95826M42.77578,62.2568c.32445-1.5759,1.854-2.54924,1.71494-4.12514,0-.0927-.04635-.2781-.41715-.0927-1.80765,.8343-3.66164,3.84704-4.95944,5.14484-2.13209,2.13209-4.21784,4.35689-6.21089,6.62803-1.5759,1.80764-3.10544,3.66164-4.12514,5.84009-2.68829,5.70104-3.29084,12.14367-2.78099,18.35456,.2781,3.38354,.88065,6.72074,1.71495,9.96523,.7416,2.78099,.69525,5.93279,1.52955,8.52838,.23175,.78795,.78795,1.4832,1.43685,1.90035,.23175,.13905,.78795,.13905,.78795-.78795-.04635-6.25724,.04635-12.51447,.32445-18.77171,.0927-1.6686,.23175-3.33719,.41715-5.00579,.5562-4.49594,1.62225-8.94553,3.38354-13.11702,1.71495-4.12514,7.36963-7.55503,7.23059-12.19002-.04635-.78795-.23175-1.5759-.04635-2.27115m84.91301,26.60484c-.97335,.13905-3.89339,.60255-4.26419,.60255s-1.11239,.0927-1.06605,.60255c.04635,.60255,1.7613,1.11239,4.21784,.78795,2.4102-.32445,3.5226-.60255,3.42989-1.43685-.09269-.8343-1.29779-.69525-2.31749-.5562m-3.15179,4.49594c-.04635-.23175-.6489-.32445-1.06605-.2781-.4635,0-3.19814-.4635-4.95944-1.99305-1.71494-1.57589-3.33719-3.61529-4.26419-4.63499-.927-.97335-2.03939-2.17844-4.77404-1.90035-2.73464,.2781-5.33024,1.11239-5.05214,2.31749,.13905,.6489,1.6686,.4635,3.19814,.13905,1.57589-.2781,3.80069-.6489,4.40324,.32445,.6489,1.0197,1.62225,2.96639,3.47624,4.44959,1.854,1.4832,4.17149,2.6883,6.76709,2.5956,2.68829-.04635,2.31749-.83429,2.27114-1.0197m-55.89798-19.28155c.23175,.6489,1.0197,1.0197,2.96639,.8343,2.17844-.1854,9.50173-1.25145,11.49478,.2781,1.11239,.8343,1.2978,1.0197,1.4832,3.15179,.13905,2.1321,.3708,1.94669,.69525,1.99305,.2781,.04635,1.2051-.41715,2.17844-2.1321,.97335-1.7613,5.05214-3.5226,10.52143-3.98609,5.46929-.4635,10.10428-.4635,15.66627,2.45655,5.42294,2.82735,11.54113,7.41598,14.36848,6.07184,1.4832-.69525,2.4102-3.0591,.927-8.94553-1.43685-5.84009-4.07879-9.45538-5.05214-10.47508-.927-1.0197-2.31749-2.17844-3.24449-1.62225s.23175,3.70799,1.15875,5.14484c.927,1.3905,1.0197,2.27114-.69525,1.6686-1.71494-.60255-3.38354-1.4832-5.14484-3.19814-1.71494-1.71494-4.40324-6.67439-5.88644-5.88644-1.4832,.78795,.41715,4.12514-.3708,4.49594-.78795,.3708-2.36385-1.43685-3.80069-3.42989-1.3905-1.99305-2.45655-4.31054-4.35689-4.95944-1.90035-.60255-6.76709-1.15875-13.95132,1.99305-6.76709,3.01274-12.32908,7.50868-15.75897,10.89223-3.29085,3.47623-3.4299,5.00578-3.19815,5.65468m-2.78099,15.06372c.1854,.5562,.7416,1.34414,2.31749,.78795,1.62225-.5562,4.63499-1.4832,6.21088-1.854s3.70799-.41715,4.58864-.2781c.8343,.0927,.88065-.7416,.41715-.927s-3.66164-1.0197-5.09849-1.4832-2.03939-.1854-2.5956-.04635c-.5562,.13905-3.29085,1.0197-4.58864,1.43685-1.34414,.4635-1.71493,1.15875-1.25144,2.36385m-11.44842-41.39046c-.0927-.0927-.4635,.1854-.69525,.32445-.69525,.41715-1.4832,.7416-2.2248,1.1124-1.5759,.7416-2.92005,1.4832-3.15179,3.33719-.04635,.23175-.04635,.50985,.04635,.7416,.04635,.0927,.04635,.13905,.0927,.23175,.41715,.5562,2.0394-.32445,2.5029-.60255,.69525-.41715,.927-.97335,1.2978-1.5759,.2781-.4635,.6489-.97335,.927-1.43685,.3708-.50985,.69525-1.0197,1.06605-1.52955,.0927-.23175,.23175-.50984,.13905-.60254m77.91418,50.52139c-1.854-1.0197-2.5956-1.52955-3.89339-1.80764-1.2051-.2781-1.57589-.1854-2.17845-.2781-.5562-.0927-.69525-.0927-.78795,.04635-.04635,.13905,.09271,.32445,.6489,.6489,.5562,.32445,1.62225,.927,2.27114,1.52955s1.29779,1.25145,.88065,1.90035c-.37079,.6489-1.6686,.41715-2.5956-.0927-.927-.50985-2.2248-1.52955-2.73464-1.7613-.50985-.1854-.88065-.23175-.7416,.2781,.13905,.50985,.3708,1.11239,0,1.3905-.3708,.32445-1.52955,.32445-2.5956-.5562-1.0197-.88065-1.34414-1.4832-2.6883-2.5956-.927-.78795-1.80764-1.11239-2.50289-1.62225s-1.34414-1.11239-2.31749-1.3905-3.75434-.8343-7.78678-.1854c-4.03244,.69525-4.95944,1.43685-6.21088,1.2978-.7416-.0927-.88065-.32445-1.11239-1.06605s-.3708-.8343-.78795-1.0197c-.3708-.1854-.8343-.0927-1.52955-.41715s-2.27114-.78795-3.98609-3.29085c-1.2978-1.90035-1.7613-3.0591-2.36385-3.93974-.6489-.88065-1.06605-1.11239-1.80764-1.06605-1.06605,.04635-1.6686,1.52955-2.08575,3.80069s-.60255,4.35689-1.6686,5.00579c-1.11239,.6489-2.2248,.32445-2.82735,.13905s-1.2978-.50985-2.31749-.41715c-1.0197,.04635-1.6686,.04635-3.5226,1.06605s-2.31749,1.43685-3.98609,1.80764-2.17844,.3708-2.64194,.4635c-.4635,.04635-.69525-.04635-.97335,1.0197s-.88065,2.2248-1.52955,2.31749c-.6489,.0927-1.06605-.2781-1.3905-.4635-.32445-.23175-1.5759-1.2051-2.27115-1.52955-.69525-.2781-2.08575-.6489-3.29084,.50985s-3.10544,4.35689-3.80069,8.89918-1.15875,8.89918,.04635,9.31633c1.15875,.41715,3.05909-5.14484,4.95944-4.35689,1.6686,.69525,.88065,14.18307,.78795,17.10311-.13905,2.92004-.69525,7.27694,.4635,10.28968,1.15875,3.01274,2.2248,4.44959,6.85978,8.25028,4.63499,3.8007,5.42294,4.54228,6.44263,5.56199s3.70799,2.82735,4.40324,3.15179c.69525,.32445,2.2248,.60254,2.87369-.97335s1.0197-3.24449,2.96639-4.77403c1.99305-1.52954,2.45655-2.8737,1.94669-3.75434s-1.34414-.927-2.6883-.69525c-1.34414,.23175-3.66164,1.0197-7.23059,.4635-3.56894-.5562-8.94553-1.99304-9.40903-4.49595-.32445-1.76129,1.06605-3.5226,1.3905-4.95944,.2781-1.34414,1.15875-4.17149-.32445-5.37659-.97335-.78795-1.80764,.37079-2.31749,1.06604s-1.854,1.3905-1.80765-.4635c.04635-1.80764,.0927-3.75434,.2781-5.42294,.13905-1.15875-.13905-3.66164-.32445-4.58864-.1854-.927,.13905-2.54924,1.15875-3.29085,1.06605-.69525,3.24449-1.7613,4.07879-2.27114,.8343-.50985,1.71494-1.0197,1.7613-2.36385,.04635-1.34414,1.0197-3.89339,1.6686-5.09849,.6489-1.15875,1.0197-2.1321,1.06605-2.78099,.0927-.6489,.4635-1.2051,1.52955-1.3905s1.4832-.13905,1.2051,.7416c-.2781,.88065-.88065,1.99305-.8343,2.82735,.04635,.88065,.50985,1.34414,1.34414,1.7613,.78795,.4635,1.62225,.927,3.66164,.23175s4.82039-1.6686,6.58168-1.52955c2.03939,.13905,3.56894,1.2051,5.00579,1.62225,1.06605,.32445,1.2051,.3708,3.15179,.88065,.97335,.2781,1.57589,.04635,1.80764-.13905,.23175-.1854,.5562-.60255,.3708-1.3905s-1.11239-2.50289-.2781-2.87369c.8343-.3708,1.71494,.78795,2.36385,2.36385,.6489,1.57589,1.7613,3.98609,2.6883,5.00579s2.27114,1.3905,3.84704,1.94669c1.57589,.5562,2.5956,.41715,3.24449,3.10544,.6489,2.6883,.7416,3.61529,.78795,4.86674,.04635,2.68829-.4635,3.10545-.4635,5.00578,0,2.22479,.23175,2.92004-.60255,3.89339-.2781,.32445-.60255,.60254-.927,.32445-.32445-.2781-.04635-.5562,.0927-.97335,.23175-.60254,.0927-1.4832,.04635-2.5956-.04635-.78795-.04635-.83429-.0927-1.0197-.04635-.4635-.2781-.69525-.6489-.6489-.8343,.09271-1.34414,.7416-2.5956,.83429-1.25145,.09271-4.07879,.13904-5.84009,.2781-1.71494,.13904-5.42294,.37079-8.29663,.4635-2.82735,.09271-4.91309,.09271-7.78678-.1854-2.87369-.32445-3.42989-.4635-3.93974-.4635-.5562,0-3.10544,.2781-3.56894,2.03939-.23175,.927-.13905,1.29779,.50985,1.43685,.6489,.13904,3.47624,.32445,4.82039,.50985s4.35689,.60254,5.84009,.6489c1.4832,0,3.38354-.13904,4.49594-.13904,1.06605,0,3.61529,.1854,3.70799,3.75434,0,1.2051,.0927,2.27114,.927,2.8737,.8343,.60254,4.03244,2.1321,6.90613,3.38354,2.87369,1.25145,5.56199,1.43685,7.04518,.83429,1.4832-.60254,1.99305-1.52954,1.52955-2.92004-.50985-1.3905-.5562-2.4102,.04635-2.8737s1.25145-.97335,4.03244-.83429c1.52955,.09271,3.56894,.83429,4.49594-.50985,1.25145-1.80764,1.3905-2.1321,3.70799-3.70799,2.31749-1.57589,3.47624-2.64195,3.38354-6.58169-.09271-4.03244-.4635-10.89223,.09271-15.20277,.5562-4.12514,3.15179-6.16454,4.63499-9.03823,1.3442-2.50288,1.90039-3.75432,.0464-4.77402m-48.94549,27.57819c7.09154,1.11239,16.17612,1.52955,17.98376,1.43684,1.80764-.04635,3.75434-.78795,5.05214-1.2978,1.2978-.5562,1.71494-.8343,1.94669-1.34414,.23175-.50985-.0927-2.36385-.2781-3.10544-.23175-.7416-1.15875-1.52955-1.71494-2.08575-.60255-.5562-1.6686-1.3905-1.854-1.4832-.6489-.4635-1.4832-.5562-5.84009-.1854-4.35689,.3708-6.02549,1.06605-8.29663,1.99305s-2.73464,1.99305-3.84704,2.87369c-1.15875,.88065-2.73464,1.3905-3.42989,2.31749-.60254,.69524-.0927,.83429,.2781,.88065m-9.96523-6.81343c-.41715-.7416-1.11239-.13905-1.57589,.13905s-1.854,1.2978-2.87369,2.03939c-.97335,.7416-1.34414,1.71494-1.62225,2.54924s-.2781,2.03939,.3708,2.36385c.41715,.23175,1.06605,.04635,1.52955-.13905,.5562-.23175,.88065-.3708,1.34414-.69525,.7416-.50985,1.06605-.78795,1.62225-1.2978s.88065-1.0197,1.4832-2.2248c.5562-1.15875,.13905-1.99305-.2781-2.73464m80.88058-48.25025c.60254,1.11239,1.11239,2.27114,1.62225,3.42989,2.54924,6.07184,3.89339,12.65352,3.70799,19.23521-.04635,1.2051,.09271,2.6883,1.25145,3.0591,1.25145,.41715,1.11239-12.74622,.927-13.85862-.37079-1.854-.69525-3.66164-.927-5.51564-.2781-2.1321-1.52954-3.66164-2.31749-5.56199-.7416-1.7613-1.52954-3.47624-2.64195-5.05214-.78795-1.15875-1.76129-2.31749-1.76129-3.66164,0-.50985,.13904-1.06605,.13904-1.5759,0-3.01274-4.35689-4.21784-5.28389-6.95248-.50985-1.5759-.60254-2.78099-1.76129-4.12514-1.62225-1.94669-3.89339-3.84704-5.93278-5.33024-2.17845-1.62225-5.84009-1.80765-8.43569-2.31749-.83429-.13905-1.80764-.23175-2.4102,.3708,.927,1.2978,2.4102,2.08575,3.75434,2.92005,2.8737,1.80765,5.42294,4.07879,7.50869,6.72074,2.1321,2.6883,3.47624,5.88644,5.74738,8.43568,2.59558,3.05909,4.95943,6.25723,6.81343,9.77982m7.46232,50.47504c-.50985,.2781-.78795,1.11239-1.15875,1.57589-.5562,.7416-1.11239,1.4832-1.57589,2.27114-.50985,.8343-1.25145,1.4832-1.76129,2.31749-.13904,.23175-.2781,.4635-.37079,.69525-.2781,.69525-.4635,1.3905-.37079,2.1321,.04635,.60254,.2781,1.15875,.32445,1.71495,.1854,1.29779-.50985,2.1321-.97335,3.29085-.78795,1.854-1.80764,3.56895-2.82735,5.33024,.2781,.13904,.5562-.09271,.7416-.32445,1.76129-2.08575,3.56895-4.17149,5.09849-6.44263,.88065-1.29779,1.57589-2.82735,2.1321-4.31053,.88065-2.36385,.2781-5.05214,1.25145-7.27693,.18537-.6489,.23172-1.3905-.50988-.97336" style="fill:#54688c;"/><path d="M32.16165,89.78865c-.23175,1.6686-.3708,3.33719-.41715,5.00579-.2781,6.30359-.3708,12.51447-.32445,18.77171,0,.927-.5562,.927-.78795,.78795-.69525-.41715-1.2051-1.11239-1.43685-1.90035-.8343-2.5956-.78795-5.74738-1.52955-8.52838-.8343-3.24449-1.4832-6.58168-1.71495-9.96523-.50985-6.21088,.0927-12.65352,2.78099-18.35456,1.0197-2.17844,2.54924-4.03244,4.12514-5.84009,1.99305-2.27115,4.07879-4.49594,6.21089-6.62804,1.34415-1.2978,3.15179-4.35689,4.95944-5.14484,.3708-.1854,.41715,0,.4635,.0927,.13905,1.62225-1.3905,2.54924-1.71494,4.12514-.13905,.7416,0,1.4832,0,2.2248,.13905,4.63499-5.51564,8.06488-7.23058,12.19002-1.7613,4.21784-2.78099,8.66744-3.38354,13.16338m16.31516-36.33832c.41715,.5562,2.0394-.3708,2.5029-.60255,.69525-.41715,.927-.97335,1.2978-1.5759,.2781-.50985,.6489-.97335,.927-1.43685,.3708-.50985,.69525-1.0197,1.06605-1.52955,.0927-.13905,.23175-.41715,.13905-.50985s-.4635,.1854-.69525,.32445c-.69525,.41715-1.4832,.7416-2.2248,1.1124-1.5759,.7416-2.92005,1.4832-3.15179,3.33719-.04635,.23175-.04635,.50985,.04635,.7416,0,0,.04635,.09271,.0927,.13905m111.14706,40.04631c-.04635,1.2051,.09271,2.6883,1.25145,3.0591,1.25145,.41715,1.11239-12.74622,.927-13.85862-.37079-1.854-.69525-3.66164-.927-5.51564-.2781-2.1321-1.52954-3.66164-2.31749-5.56199-.7416-1.7613-1.52954-3.47624-2.64195-5.05214-.78795-1.15875-1.76129-2.31749-1.76129-3.66164,0-.50985,.13904-1.06605,.13904-1.5759,0-3.01274-4.35689-4.21784-5.28389-6.95248-.50985-1.5759-.60254-2.78099-1.76129-4.12514-1.62225-1.94669-3.89339-3.84704-5.93278-5.33024-2.17845-1.62225-5.84009-1.854-8.43569-2.31749-.83429-.13905-1.80764-.23175-2.4102,.3708,.927,1.2978,2.4102,2.08575,3.75434,2.92005,2.8737,1.80765,5.42294,4.07879,7.50869,6.72074,2.1321,2.6883,3.47624,5.88644,5.74738,8.43568,2.64195,3.01274,4.95944,6.21089,6.85978,9.77983,.60254,1.11239,1.11239,2.27114,1.62225,3.42989,2.54923,6.07183,3.84704,12.65352,3.66164,19.2352m-2.73466,34.57703c-.2781,.69525-.4635,1.3905-.37079,2.1321,.04635,.5562,.2781,1.11239,.32445,1.71495,.1854,1.29779-.50985,2.1321-.97335,3.29085-.78795,1.854-1.80764,3.56895-2.82735,5.33024,.2781,.13904,.5562-.09271,.7416-.32445,1.76129-2.08575,3.56895-4.17149,5.09849-6.44263,.88065-1.34414,1.57589-2.82735,2.1321-4.31053,.88065-2.36385,.2781-5.05214,1.25145-7.27693,.23175-.5562,.2781-1.34414-.4635-.927-.50985,.2781-.78795,1.11239-1.15875,1.57589-.5562,.7416-1.11239,1.4832-1.57589,2.27114-.50985,.8343-1.25145,1.4832-1.76129,2.31749-.18543,.1854-.32447,.41715-.41717,.6489" style="fill:#9abeff;"/><path d="M113.64477,76.71798c-5.56199-2.92005-10.19698-2.92005-15.66627-2.45655-5.46929,.4635-9.54808,2.2248-10.52143,3.98609-.97335,1.7613-1.90035,2.17844-2.17844,2.1321-.32445-.04635-.50985,.13905-.69525-1.99305s-.3708-2.31749-1.4832-3.15179c-1.99305-1.52955-9.31633-.4635-11.49478-.2781-1.94669,.1854-2.73464-.1854-2.96639-.8343-.23175-.6489-.13905-2.17844,3.29085-5.56199,3.42989-3.38354,8.99188-7.87948,15.75897-10.89223,7.18423-3.19814,12.05097-2.64194,13.95132-1.99305,1.90035,.60255,2.92005,2.96639,4.35689,4.95944,1.3905,1.99305,2.96639,3.80069,3.80069,3.42989,.78795-.3708-1.11239-3.70799,.3708-4.49594s4.17149,4.17149,5.88644,5.88644,3.42989,2.59559,5.14484,3.19814c1.71494,.60255,1.62225-.2781,.69525-1.6686-.927-1.3905-2.08575-4.58864-1.15875-5.14484s2.27114,.60255,3.24449,1.62225c.927,1.0197,3.56895,4.63499,5.05214,10.47508,1.43685,5.84009,.5562,8.25028-.927,8.94553-2.92005,1.25145-9.03824-3.3372-14.46117-6.16454m-45.46925,13.25607c1.62225-.5562,4.63499-1.4832,6.21088-1.854s3.70799-.41715,4.58864-.2781c.8343,.0927,.88065-.7416,.41715-.927s-3.66164-1.0197-5.09849-1.4832-2.03939-.1854-2.5956-.04635c-.5562,.13905-3.29085,1.0197-4.58864,1.43685-1.34414,.4635-1.71494,1.11239-1.25145,2.31749,.18541,.5562,.69526,1.34415,2.3175,.8343m36.29197-3.10544c.13905,.6489,1.6686,.4635,3.19814,.13905,1.57589-.2781,3.80069-.6489,4.40324,.32445,.60255,1.0197,1.62225,2.96639,3.47624,4.44959,1.854,1.4832,4.17149,2.6883,6.76709,2.5956,2.64194-.0927,2.27114-.8343,2.2248-1.06605-.04635-.23175-.60255-.32445-1.06605-.2781-.4635,0-3.19814-.4635-4.95944-2.03939-1.71494-1.57589-3.33719-3.61529-4.26419-4.63499-.927-.97335-2.03939-2.17844-4.77404-1.90035-2.6883,.32445-5.28389,1.15875-5.00579,2.41019m17.89106,3.19815c0,.60255,1.7613,1.11239,4.21784,.78795,2.4102-.32445,3.5226-.60255,3.42989-1.43685s-1.29779-.7416-2.31749-.5562c-.97335,.13905-3.89339,.60255-4.26419,.60255s-1.06604,.0927-1.06604,.60255m-53.11699,35.92117c.5562-.23175,.88065-.3708,1.34414-.69525,.7416-.50985,1.06605-.78795,1.62225-1.2978s.88065-1.0197,1.4832-2.2248,.1854-2.03939-.23175-2.78099-1.11239-.13905-1.57589,.13905-1.854,1.2978-2.87369,2.03939c-.97335,.7416-1.34414,1.71494-1.62225,2.54924s-.2781,2.03939,.3708,2.36385c.41715,.2781,1.0197,.0927,1.4832-.0927m32.12048,1.34414c1.80764-.09271,3.75434-.78795,5.05214-1.2978,1.2978-.5562,1.71494-.8343,1.94669-1.34414,.23175-.50985-.0927-2.36385-.2781-3.10544-.23175-.7416-1.15875-1.52955-1.71494-2.08575-.60255-.5562-1.6686-1.3905-1.854-1.4832-.6489-.4635-1.4832-.5562-5.84009-.1854-4.35689,.3708-6.02549,1.06605-8.29663,1.99305s-2.73464,1.99305-3.84704,2.87369c-1.15875,.88065-2.73464,1.3905-3.42989,2.31749-.5562,.7416-.04635,.88065,.32445,.927,7.09154,1.06604,16.12977,1.43684,17.93742,1.39049m-13.85862-43.01271c-1.06605,.04635-1.6686,1.52955-2.08575,3.80069s-.60255,4.35689-1.6686,5.00579c-1.11239,.6489-2.2248,.32445-2.82735,.13905s-1.2978-.50985-2.31749-.41715c-1.0197,.04635-1.6686,.04635-3.5226,1.06605s-2.31749,1.43685-3.98609,1.80764c-1.6686,.3708-2.17844,.41715-2.64194,.4635s-.69525-.04635-.97335,1.0197-.88065,2.2248-1.52955,2.31749c-.6489,.0927-1.06605-.2781-1.3905-.4635-.32445-.23175-1.5759-1.2051-2.27115-1.52955-.69525-.2781-2.08575-.6489-3.29084,.50985s-3.10544,4.35689-3.75434,8.89918c-.69525,4.54229-1.15875,8.89918,.04635,9.31633,1.15875,.41715,3.05909-5.14484,4.95944-4.35689,1.6686,.69525,.88065,14.18307,.78795,17.10311-.13905,2.92004-.69525,7.27694,.4635,10.28968s2.2248,4.44959,6.85979,8.25028c4.63499,3.8007,5.42294,4.54228,6.44263,5.56199s3.70799,2.82735,4.40324,3.15179c.69525,.32445,2.2248,.60254,2.87369-.97335s1.0197-3.24449,2.96639-4.77403c1.99305-1.52954,2.45655-2.8737,1.94669-3.75434s-1.34414-.927-2.6883-.69525c-1.34414,.23175-3.66164,1.0197-7.23059,.4635-3.56894-.5562-8.94553-1.99304-9.40903-4.49595-.32445-1.76129,1.06605-3.5226,1.3905-4.95944,.2781-1.34414,1.15875-4.17149-.32445-5.37659-.97335-.78795-1.80764,.37079-2.31749,1.06604s-1.854,1.3905-1.80765-.4635c.04635-1.80764,.0927-3.75434,.2781-5.42294,.13905-1.15875-.13905-3.66164-.32445-4.58864-.1854-.927,.13905-2.54924,1.15875-3.24449,1.06605-.69525,3.24449-1.7613,4.07879-2.27114,.8343-.50985,1.71494-1.0197,1.7613-2.36385,.04635-1.34414,1.0197-3.89339,1.6686-5.09849,.6489-1.15875,1.0197-2.1321,1.06605-2.78099,.0927-.6489,.4635-1.2051,1.52955-1.3905s1.4832-.13905,1.2051,.7416c-.2781,.88065-.88065,1.99305-.8343,2.82735,.04635,.88065,.50985,1.34414,1.34414,1.7613,.78795,.4635,1.62225,.927,3.66164,.23175s4.82039-1.6686,6.58168-1.52955c2.03939,.13905,3.56894,1.2051,5.00579,1.62225,1.06605,.32445,1.2051,.3708,3.15179,.88065,.97335,.2781,1.57589,.04635,1.80764-.13905,.23175-.1854,.5562-.60255,.3708-1.3905s-1.11239-2.50289-.2781-2.87369c.8343-.3708,1.71494,.78795,2.36385,2.31749,.6489,1.57589,1.7613,3.98609,2.6883,5.00579s2.27114,1.3905,3.84704,1.94669c1.57589,.5562,2.5956,.41715,3.24449,3.10544,.6489,2.6883,.7416,3.61529,.78795,4.86674,.04635,2.68829-.4635,3.10545-.4635,5.00578,0,2.22479,.23175,2.92004-.60255,3.89339-.2781,.32445-.60255,.60254-.927,.32445-.32445-.2781-.04635-.5562,.0927-.97335,.23175-.60254,.0927-1.4832,.04635-2.5956-.04635-.78795-.04635-.83429-.0927-1.0197-.04635-.4635-.2781-.69525-.6489-.6489-.8343,.09271-1.34414,.7416-2.5956,.83429-1.25145,.09271-4.07879,.13904-5.84009,.2781-1.71494,.13904-5.42294,.37079-8.29663,.4635-2.82735,.09271-4.91309,.09271-7.78678-.1854-2.87369-.32445-3.42989-.4635-3.93974-.4635-.5562,0-3.10544,.2781-3.56894,2.03939-.23175,.927-.13905,1.29779,.50985,1.43685,.6489,.13904,3.47624,.32445,4.82039,.50985s4.35689,.60254,5.84009,.6489c1.4832,0,3.38354-.09271,4.49594-.13904,1.06605,0,3.61529,.1854,3.70799,3.75434,0,1.2051,.0927,2.27114,.927,2.8737,.8343,.60254,4.03244,2.1321,6.90613,3.38354,2.87369,1.25145,5.56199,1.43685,7.04518,.83429,1.4832-.60254,1.99305-1.52954,1.52955-2.92004-.50985-1.3905-.5562-2.4102,.04635-2.8737s1.25145-.97335,4.03244-.83429c1.52955,.09271,3.56894,.83429,4.49594-.50985,1.25145-1.80764,1.3905-2.1321,3.70799-3.70799,2.31749-1.57589,3.47624-2.64195,3.38354-6.58169-.09271-4.03244-.4635-10.89223,.09271-15.20277,.5562-4.12514,3.15179-6.16454,4.63499-9.03823,1.29779-2.50289,1.854-3.80069,0-4.77404-1.854-1.0197-2.5956-1.52955-3.89339-1.80764-1.2051-.2781-1.57589-.1854-2.17845-.2781-.5562-.0927-.69525-.0927-.78795,.04635-.04635,.13905,.09271,.32445,.6489,.6489,.5562,.32445,1.62225,.927,2.27114,1.52955s1.29779,1.25145,.88065,1.90035c-.37079,.6489-1.6686,.41715-2.5956-.0927-.927-.50985-2.2248-1.52955-2.73464-1.7613-.50985-.1854-.88065-.23175-.7416,.2781,.13905,.50985,.3708,1.11239,0,1.3905-.3708,.32445-1.52955,.32445-2.5956-.5562-1.0197-.88065-1.34414-1.4832-2.6883-2.5956-.927-.78795-1.80764-1.11239-2.50289-1.62225s-1.34414-1.11239-2.31749-1.3905-3.75434-.8343-7.78678-.1854c-4.03244,.69525-4.95944,1.43685-6.21088,1.2978-.7416-.0927-.88065-.32445-1.11239-1.06605s-.3708-.8343-.78795-1.0197c-.3708-.1854-.8343-.0927-1.52955-.41715s-2.27114-.78795-3.98609-3.29085c-1.2978-1.90035-1.7613-3.0591-2.36385-3.93974-.60251-.88062-1.01965-1.11237-1.8076-1.06603m26.37309,49.17724c-.1854,0-1.3905,0-.8343-1.29779,.50985-1.29779,.78795-4.17149,.69525-6.67438-.04635-2.50289-.4635-3.93974-.69525-4.95944s-.32445-1.2051,0-1.52955c.2781-.32445,.41715-.3708,.97335-.4635,.32445-.04635,.3708,.3708,.7416,1.3905s1.3905,2.5956,1.34414,6.21088-.13905,5.65469-.32445,6.30359-.32445,1.06604-.78795,1.06604c-.1854-.04635-.88065-.04635-1.1124-.04635m-45.09845-34.62337c.7416,0,1.71494-.13905,4.07879-.7416s3.38354-1.4832,3.75434-1.80764,.4635-.3708,.88065-.04635c.41715,.2781,.78795,.3708,1.3905,.7416s.69525,.927,.1854,1.4832c-.50985,.50985-1.7613,1.0197-3.0591,1.57589-1.34414,.5562-2.64194,.97335-4.44959,1.15875-1.80764,.1854-3.29085-.32445-3.75434-.50985-.4635-.1854-.60255-.69525-.2781-1.2978,.37081-.69524,.83431-.55619,1.25146-.55619m32.81573-1.5759c.97335,.04635,1.854-.1854,3.24449-.13905,1.43685,.04635,3.15179,.41715,5.19119,.04635,1.4832-.2781,1.94669-.8343,2.31749-1.11239,.3708-.2781,.5562-.13905,.88065,.60255,.32445,.69525-.88065,1.4832-2.50289,2.36385-1.62225,.88065-2.92005,1.0197-5.23754,1.11239-2.27114,.0927-4.31054-.2781-4.86674-.32445-.5562-.04635-.78795-.6489-.8343-1.3905-.0927-1.4832,.8343-1.15875,1.80765-1.15875" style="fill:#fff;"/></g></g></g><g id="d"/></svg>