<?xml version="1.0" encoding="UTF-8"?>
<svg version="1.1" viewBox="0 0 192 192" xmlns="http://www.w3.org/2000/svg">
 <rect class="a" x="20" y="20" width="152" height="152" rx="10" style="fill:#56595b"/>
 <path d="m69.954 140.56c-0.98491-2.2323-1.1415-5.9157-0.34714-8.1671 0.18937-0.53674 0.34431-1.0144 0.34431-1.0614 0-0.0471-1.124-0.0855-2.4978-0.0855h-2.4978l-0.46549-1.2441c-1.1482-3.0688-1.1451-5.4383 0.01095-8.4593l0.48514-1.2678h2.3836c2.1647 0 2.3723-0.0367 2.2603-0.39999-0.77687-2.5201-0.92868-3.5744-0.92971-6.457-9.15e-4 -2.5036 0.09741-3.4479 0.52115-5.0061 0.28724-1.0563 0.62395-2.1105 0.74826-2.3428 0.21772-0.4068 1.1505-0.42217 25.417-0.4188 13.855 2e-3 25.321 0.0858 25.48 0.18645 0.1585 0.10062 0.55758 1.2047 0.88683 2.4536 0.79914 3.0311 0.8444 6.796 0.1175 9.7742-0.2709 1.1099-0.49254 2.0581-0.49254 2.1072 0 0.0491 1.26 0.11808 2.7999 0.15338l2.7999 0.0642 0.62178 1.8285c0.78754 2.316 0.83663 4.4429 0.15358 6.6543l-0.48175 1.5597 0.53889 1.4928c0.94499 2.6178 0.64014 7.8857-0.53943 9.3212-0.1855 0.22577-6.1778 0.28571-28.562 0.28571h-28.327zm3.9569-1.2048c-0.50104-1.542-0.4948-5.3496 0.01102-6.7095 0.2046-0.55008 0.372-1.0901 0.372-1.2 0-0.10991-0.7629-0.19983-1.6953-0.19983h-1.6953l-0.4189 1.0857c-0.53669 1.391-0.57809 5.8588-0.06725 7.257l0.33405 0.91426 1.6 0.11429c0.87998 0.0628 1.6741 0.0607 1.7648-5e-3 0.09064-0.0655-0.0016-0.6312-0.20496-1.2571zm2.0918 1.0905c-0.86875-2.0606-0.99406-5.9562-0.25887-8.048 0.39097-1.1124 0.32806-1.376-0.24253-1.0161-0.69284 0.43703-1.0543 1.9296-1.0741 4.4356-0.0247 3.1195 0.53065 4.9166 1.5483 5.0104 0.10773 0.01 0.11999-0.16195 0.02725-0.38195zm44.804-0.66335c0.63994-1.2312 0.66327-5.8308 0.0378-7.4519l-0.41933-1.0868-43.473 0.1166-0.43453 1.2571c-0.57363 1.6596-0.60306 4.6627-0.06384 6.5141 0.21967 0.75427 0.48221 1.4228 0.58342 1.4857 0.10121 0.0628 9.8879 0.0986 21.748 0.0795l21.564-0.0348zm5.7654 0.76018c0.94177-0.58442 1.2918-5.5741 0.55596-7.9252l-0.39345-1.2571-1.764-0.0667c-0.97017-0.0367-1.7628 0.0147-1.7615 0.11428 1e-3 0.0996 0.16675 0.69531 0.36752 1.3239 0.61004 1.9098 0.47176 5.5645-0.28515 7.537-0.0673 0.1755 0.0558 0.34183 0.28555 0.3857 0.72978 0.13934 2.7094 0.0655 2.995-0.11175zm-4.1043-0.47132c1.0103-2.2174 0.86055-6.9481-0.26884-8.4926-0.5156-0.70514-0.68454-0.21787-0.33805 0.97505 0.44212 1.5222 0.38413 5.8214-0.0957 7.0921-0.34673 0.91829-0.34435 0.97141 0.0435 0.97141 0.22567 0 0.52224-0.24566 0.65904-0.54592zm-51.688-9.8612c-0.91502-2.3845-1.0333-5.7656-0.2749-7.8567 0.2009-0.55388 0.30444-1.0682 0.2301-1.1428-0.07434-0.0747-1.2737-0.13577-2.6652-0.13577h-2.5301l-0.43497 1.2571c-0.84673 2.4471-0.76396 4.9479 0.25152 7.5998l0.24069 0.62855h2.6586c2.2941 0 2.6402-0.048 2.5242-0.35019zm10.446-1.1926c-0.23972-1.9505-0.24251-4.5579-0.0068-6.3998l0.18277-1.4285h-9.5852l-0.50938 1.5307c-0.62562 1.88-0.6644 4.0742-0.10243 5.7947 0.73047 2.2363 0.217 2.0458 5.5149 2.0458h4.6957zm10.158-3.1999 0.06187-4.6285h-9.0937l-0.14665 0.91711c-0.3595 2.2482-0.41198 4.405-0.15066 6.1921 0.15401 1.0533 0.32962 1.9953 0.39024 2.0934 0.06062 0.0981 2.0827 0.15044 4.4936 0.11633l4.3834-0.062zm9.8283 0 0.0619-4.6285h-8.9236v9.3811l8.7998-0.1242zm10.118 3.09c0.27515-1.6313 0.19038-6.1188-0.13609-7.2042-0.1535-0.51031-0.18881-0.51428-4.5851-0.51428h-4.4304v9.3712h8.8728zm10.754 0.33848c0.65944-1.699 0.72924-4.6377 0.15336-6.457-0.21885-0.69142-0.47599-1.36-0.57141-1.4857-0.10892-0.1435-1.9341-0.20248-4.9039-0.15846l-4.7304 0.0701 0.15912 1.187c0.21869 1.6314 0.1999 5.5046-0.0337 6.9583l-0.19287 1.2h9.6098zm4.5038 0.57206c0.16513-0.34535 0.4558-1.3739 0.64595-2.2857 0.38642-1.8529 0.17742-3.765-0.61217-5.6005l-0.41787-0.9714h-1.8658c-1.5846 0-1.8455 0.053-1.731 0.35132 1.1808 3.0771 1.1796 5.823-4e-3 8.9068-0.12063 0.31434 0.10863 0.35238 1.7729 0.29418 1.8313-0.064 1.9241-0.0932 2.2117-0.69475zm-51.861-10.936c-1.047-3.3641-1.043-7.5767 0.01056-10.962l0.42303-1.3592h-4.504l-0.45587 1.5428c-1.0952 3.7063-1.0521 7.3137 0.13232 11.085l0.34093 1.0857h4.4866zm3.4529 1.2598c0-0.0733-0.2255-0.97332-0.50111-2-0.71102-2.6486-0.71331-6.8313-0.0052-9.4604 0.27845-1.0338 0.50627-1.9338 0.50627-2 0-0.0662-0.503-0.12034-1.1178-0.12034h-1.1178l-0.5025 1.8623c-0.92055 3.4116-0.86785 6.8212 0.16285 10.537l0.36452 1.3142h1.1054c0.60795 0 1.1054-0.06 1.1054-0.13334zm34.104-1.3249c0.22504-0.7392 0.53062-2.2563 0.67908-3.3713 0.30272-2.2736 0.0508-5.0286-0.67908-7.426l-0.40915-1.344-32.707-0.1173-0.38162 1.3158c-1.1571 3.9895-1.1318 7.4735 0.08297 11.431l0.29862 0.97291 16.354-0.0587 16.354-0.0586zm3.1374-0.0329c0.25332-0.82012 0.5689-2.3629 0.70131-3.4285 0.28004-2.2535 0.0191-4.9708-0.70131-7.3032l-0.46056-1.4911h-2.215l0.47514 1.6571c0.67687 2.3607 0.68463 7.989 0.0143 10.4l-0.46076 1.6571h2.1863l0.46057-1.4911zm5.066 0.86259c1.0608-2.7799 1.3664-6.4712 0.78887-9.5308-0.21234-1.1249-0.52797-2.3849-0.7014-2.7999l-0.31533-0.75469h-2.2075c-2.0115 0-2.1932 0.0355-2.046 0.39999 0.0888 0.22 0.36664 1.3771 0.61744 2.5714 0.68143 3.2448 0.46641 6.7276-0.63852 10.343-0.11053 0.36164 0.0879 0.39999 2.0702 0.39999 2.1812 0 2.1937-3e-3 2.4323-0.62855zm-18.079-20.342c2e-5 -0.0943 0.1543-0.9776 0.34285-1.9629 0.35807-1.8713 0.4436-6.7825 0.13199-7.5797-0.1683-0.43059-0.18891-0.42396-0.355 0.11428-0.26529 0.85978-2.306 3.5302-3.5121 4.5956-1.564 1.3818-3.0529 2.1676-5.8034 3.0629-2.1882 0.71226-2.7185 0.79812-4.9142 0.7957-3.6447-4e-3 -5.76-0.69935-7.4074-2.435-1.1124-1.172-1.5681-2.1376-1.5676-3.3222 6.86e-4 -2.0517 1.4597-3.6113 3.3783-3.6113 2.3015 0 3.6517 0.86375 3.8677 2.4744 0.10401 0.77545 0.03114 1.0115-0.46548 1.5082-0.67492 0.67492-1.624 0.76754-2.3872 0.23298-0.68038-0.47656-0.64437-0.82996 0.06639-0.65157 1.1981 0.3007 1.6936-1.0143 0.72514-1.9241-0.80803-0.7591-2.0723-0.67358-2.9451 0.19922-0.63018 0.63017-0.68596 0.80264-0.58831 1.8189 0.13773 1.4334 0.88554 2.4294 2.4921 3.3192 1.1914 0.65989 1.318 0.67984 4.3131 0.67984 2.5534 0 3.3616-0.0874 4.6856-0.50694 3.7756-1.1963 7.2296-4.0771 8.3024-6.9248l0.21654-0.57475-2.5453-0.0181c-3.0484-0.0217-4.6838-0.34092-7.0287-1.3719-2.197-0.96596-3.8333-1.3844-6.602-1.6884-3.9003-0.42825-5.4422-1.1223-7.2966-3.2844-1.0965-1.2784-1.0805-1.5984 0.0372-0.74591 1.7075 1.3023 2.828 1.6288 5.5452 1.6155 2.9009-0.0142 3.7492-0.17012 9.4566-1.7384 4.0398-1.1101 4.2876-1.1501 6.5141-1.0509 2.8071 0.12502 3.5725 0.37597 8.143 2.6698 1.9485 0.97791 4.0299 1.9615 4.6252 2.1858 1.2184 0.45894 1.4452 0.66676 1.6595 1.5204l0.15017 0.59834-1.2175-0.33912c-3.8286-1.0665-6.8174 0.16132-6.8174 2.8006 0 0.95594 0.27317 1.5639 1.1136 2.4784l0.60063 0.65357-0.6857 0.48926c-1.515 1.0809-2.5199 2.3361-3.1428 3.9254-0.3457 0.88201-0.62855 1.7297-0.62855 1.8837 0 0.15402-0.10286 0.28005-0.22857 0.28005s-0.22855-0.0771-0.22853-0.17143zm-0.6598-12.396c0.67715-0.12386 2.5111-0.55666 4.0755-0.96179l2.8443-0.7366-2.5014-1.2071c-1.3758-0.66392-2.5786-1.2082-2.6729-1.2096-0.0943-1e-3 -0.17143 0.42254-0.17143 0.94197 0 0.78019-0.13679 1.0734-0.78663 1.6863-1.4205 1.3397-3.6255 1.2312-5.1081-0.2514-0.69559-0.69559-0.77083-0.89053-0.69786-1.808 0.04499-0.56562 9.14e-4 -1.0284-0.09811-1.0284-0.09895 0-1.6707 0.46285-3.4928 1.0286-1.8221 0.5657-3.3876 1.0322-3.4788 1.0368-0.17044 8e-3 1.3911 0.62122 3.5959 1.411 1.6934 0.60659 4.9197 1.2857 6.2067 1.3065 0.57997 9e-3 1.6085-0.0843 2.2857-0.20817zm9.1167-4.9157c-1.0685-0.29486-2.842-0.95081-3.941-1.4577-5.8958-2.7191-6.6233-2.7705-14.344-1.013-5.385 1.2258-8.5188 1.0633-11.983-0.62143-1.58-0.76841-2.5923-1.4958-2.3788-1.7094 0.0799-0.0799 0.66886 0.12003 1.3088 0.44431 3.4996 1.7734 8.146 1.7167 13.967-0.17046 2.618-0.84869 3.1096-0.93425 5.8742-1.0223 3.6412-0.11597 4.5333 0.11456 7.4145 1.916 2.3691 1.4812 3.2988 1.838 6.121 2.3486 2.1937 0.39694 2.7496 0.73139 2.462 1.481-0.20867 0.54379-2.1223 0.46059-4.5006-0.19568zm-30.056-12.478c-1.8278-0.61436-5.4777-2.1928-6.6855-2.8911-0.78669-0.45487-0.9714-0.68641-0.9714-1.2176 0-1.8083 2.3497-1.0852 7.7675 2.3901 2.9254 1.8766 2.8711 2.7208-0.11051 1.7186zm28.456 0.16087c0-0.27016 2.2869-2.1988 2.6072-2.1988 0.062 0 0.55492-0.29767 1.0955-0.66148 1.9153-1.289 4.7582-2.587 5.3442-2.4399 0.55738 0.13989 0.74733 0.85105 0.37791 1.4149-0.24286 0.37067-2.0873 1.2817-4.9678 2.4538-1.3828 0.56268-2.8966 1.1859-3.364 1.385-1.0353 0.44096-1.093 0.44341-1.093 0.0465zm-24.437-4.6026c-1.4595-1.3652-5.5051-7.3563-5.5051-8.1524 0-0.84076 0.55565-1.2501 1.2078-0.88969 1.0426 0.5762 6.0034 8.1058 6.1476 9.3308 0.11877 1.0095-0.57869 0.90062-1.8502-0.28874zm19.866 0.6203c0-0.87315 3.2694-6.942 4.5494-8.4448 1.0394-1.2203 2.3448-0.25887 1.7183 1.2656-0.54052 1.3152-4.6834 7.0042-5.3673 7.3702-0.61616 0.32976-0.90046 0.26949-0.90046-0.1909zm-12.659-2.8937c-0.37932-0.57891-1.5188-4.2182-2.6245-8.3822-0.48748-1.8359-0.53952-2.302-0.31262-2.7999 0.32419-0.71152 1.1684-0.80254 1.7262-0.18612 0.58889 0.65071 1.5269 5.0488 1.8866 8.8456 0.28008 2.9566 0.08523 3.6841-0.67574 2.5227zm6.7946-1.7361c0.08083-1.1387 0.50765-3.6567 0.94849-5.5955 0.44084-1.9388 0.80152-3.6989 0.80152-3.9114 0-0.57312 0.65195-1.1883 1.1275-1.064 1.0593 0.27701 1.1201 1.4686 0.27197 5.3272-0.9844 4.4785-2.12 7.3141-2.929 7.3141-0.32132 0-0.34899-0.2599-0.22047-2.0704z" style="fill:#fff;stroke-width:.22857"/>
</svg>
