<?xml version="1.0" encoding="UTF-8"?><svg id="a" xmlns="http://www.w3.org/2000/svg" width="192" height="192" viewBox="0 0 192 192"><g id="b"><g id="c"><circle cx="96" cy="96" r="88" style="fill:#f9de81;"/><path d="m105.38,130.59c-2.53-4.67-7.83-6.22-7.83-6.22-3.25-1.01-15.01-.07-17.88-.65-2.87-.58-5.36-.73-6.26.04-.9.77.14,1.98,1.46,2.55,3.96,1.74,13.07,3.24,13.07,3.24,0,0-11.89,5.47-24.67-9.04-3.65-4.13-6.15-2.05-5.02-.26,3.43,5.56,15.4,21.56,40.46,21.56,17.41,0,31.47-10.39,38.68-21.97,1.07-1.73.07-2.57-1.97-.5-6.14,6.22-17.18,14.37-30.05,11.24Z" style="fill:#9abeff;"/><path d="m91.39,61.41c2.53,4.67,7.82,6.22,7.82,6.22,3.25,1.01,15.01.07,17.88.65,2.87.58,5.36.73,6.26-.04.9-.77-.14-1.97-1.46-2.55-3.96-1.74-13.08-3.22-13.08-3.22,0,0,11.88-5.49,24.66,9,3.65,4.13,6.15,2.05,5.02.26-3.42-5.54-15.39-21.54-40.46-21.54-17.41,0-31.46,10.38-38.68,21.97-1.07,1.72-.07,2.56,1.97.5,6.15-6.22,17.19-14.38,30.05-11.24Z" style="fill:#9abeff;"/><path d="m68.57,103.85h-11.26l-2.03,6.01c-.09.27-.26.5-.49.66-.23.16-.5.25-.79.25h-6.65c-.21,0-.42-.05-.61-.14-.19-.09-.35-.23-.48-.4-.13-.17-.21-.37-.24-.57-.04-.21-.02-.42.04-.62l8.67-26.66c.09-.27.26-.5.49-.67.23-.17.51-.26.79-.25h13.89c.28,0,.56.09.79.25.23.17.4.4.49.67l8.77,26.66c.06.2.08.41.04.62-.03.21-.12.4-.24.57-.13.17-.29.31-.48.4-.19.09-.4.14-.61.14h-6.93c-.29,0-.57-.09-.8-.26-.23-.17-.4-.41-.49-.68l-1.88-5.99Zm-9.38-6.28l7.32.04-3.58-11.49-3.74,11.45Z" style="fill:#9abeff; fill-rule:evenodd;"/><path d="m115.9,109.3v-26.45c0-.36.15-.7.4-.95.25-.25.6-.39.95-.39h6.95c.18,0,.35.03.52.1.16.07.31.17.44.29.13.12.23.27.29.43.07.16.1.34.1.51v20.3h6.97v-20.3c0-.36.15-.7.4-.95.25-.25.6-.39.96-.39h6.97c.36,0,.7.14.95.39.25.25.4.59.4.95v20.3h2.44c.18,0,.35.03.52.1.16.07.31.16.44.29.13.12.23.27.29.43.07.16.11.34.11.51v10.28c0,.18-.04.35-.11.51-.07.16-.17.31-.29.43-.13.12-.27.22-.44.29-.16.07-.34.1-.52.1h-3.05c-.33,0-.64-.11-.89-.33-.25-.21-.41-.51-.45-.83l-.66-4.3h-22.34c-.18,0-.35-.03-.52-.1-.16-.07-.31-.16-.44-.29-.13-.12-.23-.27-.29-.43-.07-.16-.1-.34-.11-.51h0Z" style="fill:#9abeff; fill-rule:evenodd;"/><path d="m112.24,82.78v26.51c0,.18-.04.35-.1.51-.07.16-.17.31-.29.44-.13.12-.27.22-.44.29-.16.07-.34.1-.52.1h-7.32c-.18,0-.35-.03-.52-.1-.16-.07-.31-.16-.44-.29-.13-.12-.23-.27-.29-.44-.07-.16-.1-.34-.1-.51v-9.41h-8.25v9.41c0,.18-.04.35-.1.51-.07.16-.17.31-.29.44-.13.12-.27.22-.44.29-.16.07-.34.1-.52.1h-7.32c-.18,0-.35-.03-.52-.1-.16-.07-.31-.16-.44-.29-.13-.12-.23-.27-.29-.44-.07-.16-.1-.34-.1-.51v-26.51c0-.18.04-.35.1-.51s.17-.31.29-.44c.13-.12.28-.22.44-.29.16-.07.34-.1.52-.1h7.32c.18,0,.35.03.52.1.16.07.31.16.44.29.13.12.23.27.29.44.07.16.1.34.1.51v9.41h8.25v-9.41c0-.18.04-.35.1-.51s.17-.31.29-.44c.13-.12.28-.22.44-.29.16-.07.34-.1.52-.1h7.32c.18,0,.35.03.52.1.16.07.31.16.44.29.13.12.23.27.29.44.07.16.1.34.1.51h0Z" style="fill:#9abeff; fill-rule:evenodd;"/></g></g></svg>