<?xml version="1.0" encoding="UTF-8"?>
<svg version="1.1" viewBox="0 0 192 192" xml:space="preserve" xmlns="http://www.w3.org/2000/svg">
	 <circle class="a" cx="96" cy="96" r="88" fill="#8c72bd"/><path d="m107.27 57.505c0.18115 0.0323 0.3623 0.06461 0.54894 0.09793 4.6838 0.85269 9.4159 2.1708 13.465 4.7384 0.483 0.30534 0.97157 0.60038 1.4609 0.8954 4.6528 2.8358 8.8914 6.0577 12.098 10.5 0.14389 0.19835 0.28778 0.3967 0.43603 0.60105 1.7625 2.5999 3.0301 5.6993 3.7887 8.7379 0.0748 0.29623 0.0748 0.29623 0.15113 0.59844 1.0503 5.0571 0.23616 10.498-2.5832 14.841-1.9404 2.756-1.9404 2.756-2.9045 3.238-1.4714 0.11678-2.5104-0.117-3.8738-0.67315-3.3143-1.2504-7.0392-0.2463-10.133 1.1425-2.4872 1.1578-4.7864 2.6224-7.0971 4.0914-1.4577 0.92665-2.9272 1.8287-4.4149 2.7063-0.36774 0.21708-0.73509 0.43484-1.1022 0.65295-5.4796 3.2527-5.4796 3.2527-8.2884 4.5319-0.13697 0.063-0.27395 0.1259-0.41507 0.19076-3.3536 1.5152-7.0804 2.4347-10.703 1.3657-1.4368-0.55502-2.4804-1.1497-3.3353-2.4459-0.18066-0.41692-0.18066-0.41692-0.22236-0.88943-0.02752-0.25223-0.05503-0.50447-0.08338-0.76434 0.0794-3.5797 2.9768-6.6387 5.3009-9.0897 0.48025-0.50836 0.9423-1.025 1.3975-1.5556 1.1018-1.2667 2.2926-2.4064 3.5638-3.5012 0.56755-0.49573 1.121-1.0054 1.6755-1.5157 1.2014-1.0941 2.4417-2.1263 3.7106-3.1408 0.21985-0.17943 0.43969-0.35886 0.6662-0.54372 2.0565-1.6625 4.2221-3.1604 6.3997-4.659 0.20013-0.1385 0.40024-0.27699 0.60643-0.41969 0.34052-0.2339 0.68296-0.46508 1.0285-0.69149 1.5294-1.0235 2.472-2.789 2.8617-4.5815 0.17496-1.4544-0.0159-2.5869-0.88942-3.78-1.7658-1.9412-4.0542-3.1466-6.4761-4.0719-0.14061-0.05391-0.28122-0.10785-0.42609-0.1634-2.587-0.93876-5.1347-0.97742-7.8567-0.97618-0.19927-8.5e-5 -0.39854-1.78e-4 -0.60384-2.21e-4 -2.9421 0.0076-5.6585 0.13375-8.4294 1.2093-0.2671 0.10007-0.2671 0.10007-0.5396 0.20216-8.2455 3.1364-14.946 8.6309-18.628 16.74-0.93976 2.0126-0.93976 2.0126-1.0667 4.1819 0.22013 0.22013 0.22013 0.22013 0.44471 0.44471 1.9564-0.19465 3.8528-1.5934 5.546-2.5256 9.2187-5.0719 9.2187-5.0719 12.614-4.2181 0.54658 0.16366 1.089 0.33497 1.6295 0.51767 0.23355 0.78406 0.35218 1.2681 0.01043 2.0273-0.74996 1.1579-1.6647 2.163-2.5979 3.1746-0.88396 0.97453-1.703 1.9998-2.5267 3.0252-0.135 0.16166-0.27001 0.32332-0.4091 0.48988-3.134 3.8376-5.0478 8.746-4.7051 13.741 0.4072 3.9745 2.5385 7.2375 5.5954 9.7315 6.29 4.6702 14.521 5.6227 22.116 4.7772 3.9052-0.59668 7.5035-1.8019 11.127-3.3546 3.3722-1.4369 7.0258-2.3033 10.635-1.1577 1.5174 0.63204 2.6692 1.4411 3.4474 2.9002 0.48056 1.4416 0.45795 3.2037-0.12507 4.6139-2.3616 4.5011-7.1518 6.534-11.66 8.2828-0.17953 0.0697-0.35907 0.13945-0.54405 0.21128-3.8353 1.466-7.8215 2.4635-11.908 2.9017-0.22529 0.0247-0.45058 0.0493-0.68271 0.0747-8.5673 0.79445-17.559-0.77789-25.111-4.9665-0.14181-0.0785-0.28362-0.15707-0.42973-0.23799-2.7541-1.546-5.1947-3.384-7.5169-5.5268-0.45471-0.41701-0.92009-0.81483-1.3923-1.2117-5.5547-4.877-10.054-12.573-11.785-19.706-0.03769-0.15439-0.07538-0.30878-0.11422-0.46784-2.1761-9.2726-0.86611-19.974 3.4496-28.438 0.07097-0.14006 0.14195-0.28011 0.21508-0.42441 2.3813-4.6274 5.7299-8.9723 9.7909-12.25 0.2309-0.1967 0.46164-0.3936 0.69226-0.59064 6.1189-5.145 13.704-8.2977 21.543-9.6377 0.25453-0.04585 0.50906-0.09172 0.7713-0.13897 4.1469-0.63799 8.6678-0.64214 12.792 0.13897z" fill="#fff" stroke="#fff" stroke-width=".22236"/></svg>
