<svg id="Camada_1" data-name="Camada 1" xmlns="http://www.w3.org/2000/svg" viewBox="0 0 192 192"><defs><style>.cls-1,.cls-3{fill:#ff837d;}.cls-1{isolation:isolate;}.cls-2{fill:#fff;}</style></defs><circle id="circle4" class="cls-1" cx="96" cy="96" r="88"/><path class="cls-2" d="M59.56,126.2a9.82,9.82,0,0,1-2.64-2,11.17,11.17,0,0,1-2.05-3.18,8.78,8.78,0,0,1-.58-2,27,27,0,0,1-.15-3.92c0-1,0-39.17-.06-40.24a8.73,8.73,0,0,1,.86-4.22,11.49,11.49,0,0,1,1.34-2.18A11.07,11.07,0,0,1,59,66.26,10.64,10.64,0,0,1,62.9,64.9a9.51,9.51,0,0,1,1.31,0c1,0,62.12-.07,62.6-.1a12.44,12.44,0,0,1,4.63.76,9.27,9.27,0,0,1,5.42,4.91,9.48,9.48,0,0,1,.92,4.83c0,1.34.15,40.08.14,40.49a12.41,12.41,0,0,1-.58,5,11.42,11.42,0,0,1-1.88,3,9.88,9.88,0,0,1-4.87,3.09,9.37,9.37,0,0,1-1.92.29c-1.55.12-3.1-.09-4.65,0s-59.08.07-60.09.11a12.06,12.06,0,0,1-2.35-.41A21.12,21.12,0,0,1,59.56,126.2Zm72.76-8a8.64,8.64,0,0,0,.08-2.66c0-1,0-38.13,0-39.65,0-.52-.64-1-1-.85a5.2,5.2,0,0,0-1.46,1.25c-.7.79-14.56,14.14-15.34,15s-.87,1-1.6.27a2.56,2.56,0,0,1-1-2.38,5.18,5.18,0,0,0-.07-1.61c-.09-.52-.27-1.14.33-1.61s13.9-13.47,14.38-14c.2-.23.56-.4.51-.78a.89.89,0,0,0-.81-.86,7.39,7.39,0,0,0-1.41,0c-1,0-55.13,0-55.72,0-.91,0-1.81.19-2.71.07a.69.69,0,0,0-.74.31.88.88,0,0,0-.08,1c.41.58,13.28,12.89,14.06,13.67.22.23.66.43.57.8a12.07,12.07,0,0,0-.21,3.17c0,.94-.7,1.45-1.27,2-.32.32-.56.37-.84-.08-.14-.23-.43-.37-.64-.58-.49-.48-15.58-15.17-16.23-15.78a1,1,0,0,0-.85-.34.86.86,0,0,0-.63.76c-.08.6,0,1.21,0,1.81,0,1.77.17,39.17,0,40.48a2.23,2.23,0,0,0,.14,1.09,5.18,5.18,0,0,0,2,2.51,4.39,4.39,0,0,0,2,.61c1,0,61.75-.12,62.74,0a7.84,7.84,0,0,0,2.43-.09A4.27,4.27,0,0,0,132.32,118.19Z"/><path class="cls-2" d="M96.83,81A3.55,3.55,0,0,1,99,82.38a5.26,5.26,0,0,0,1.56,1.21,6.92,6.92,0,0,0,4.27.8,2.42,2.42,0,0,1,1.6.54,16.2,16.2,0,0,1,1.44,1.31,2.7,2.7,0,0,1,.68,2.05,8.34,8.34,0,0,0,.26,3,6,6,0,0,0,1.58,2.36A5.22,5.22,0,0,1,112,95.94a3.39,3.39,0,0,1-.25,2.35,26.21,26.21,0,0,1-2.1,2.88,5.72,5.72,0,0,0-1,4.3,3,3,0,0,1-.9,2.56,4.67,4.67,0,0,1-2.11,1.48,3.38,3.38,0,0,1-1.22.15,7,7,0,0,0-2.09.08,4.85,4.85,0,0,0-2.22,1.1,8.37,8.37,0,0,1-2.23,1.91,3.9,3.9,0,0,1-1.39.32c-1.27.05-2.52,0-3.38-1.21a5.38,5.38,0,0,0-4.18-2.13c-.64,0-1.28.22-2,.17a3.15,3.15,0,0,1-1.84-1,7,7,0,0,1-1.73-2.14,1.63,1.63,0,0,1-.24-.92A6.47,6.47,0,0,0,82,100.74a6.25,6.25,0,0,0-1.36-1.26,2,2,0,0,1-.78-1.79A6.29,6.29,0,0,1,80,95.76a4,4,0,0,1,1.36-2,5.9,5.9,0,0,0,2.06-4.5,8.29,8.29,0,0,1,.39-2.55,3.54,3.54,0,0,1,1.36-1.6,2.53,2.53,0,0,1,2-.55,6.68,6.68,0,0,0,4-.85,9.44,9.44,0,0,0,2.63-2.11A2.53,2.53,0,0,1,95.1,81,2.84,2.84,0,0,1,96.83,81Zm1.41,9.43a4.8,4.8,0,0,1,3,2,5.5,5.5,0,0,1,1.25,3.24c0,1.12.32,2.26-.53,3.26a1,1,0,0,1-.91.42.9.9,0,0,1-.82-.74,14.46,14.46,0,0,1-.23-2.79c-.09-1.07-.11-2.14-.15-3.21,0-.24-.18-.21-.31-.2-.42,0-.85.14-1.28.16-.2,0-.23.1-.26.25s0,.3-.17.28-.34-.11-.36-.19c0-.26-.25-.27-.42-.32a4.15,4.15,0,0,0-2.47-.1,3,3,0,0,0-1.91,1.38,5.39,5.39,0,0,0-.37,4.61,3.57,3.57,0,0,0,3.56,2.35,3.21,3.21,0,0,0,2.3-1.25c.12-.17.39-.49.6-.13a2.25,2.25,0,0,0,2.54,1.22,3.19,3.19,0,0,0,2.46-1.89,6.55,6.55,0,0,0,.47-2.73,10,10,0,0,0-.76-3.12,7.59,7.59,0,0,0-5-4.23A9.39,9.39,0,0,0,97,88.67a6.05,6.05,0,0,0-3,.26,7.49,7.49,0,0,0-2.76,1.57,7.47,7.47,0,0,0-2.58,5.63,8,8,0,0,0,1,4.27,6.73,6.73,0,0,0,1.83,2.13A8.23,8.23,0,0,0,94.21,104a4.93,4.93,0,0,0,1.27.12,10.6,10.6,0,0,0,2.32,0,8,8,0,0,0,3.42-1.38c.17-.12.53-.24.47-.58s-.38-.22-.58-.31a1.3,1.3,0,0,0-1.34.17,7.79,7.79,0,0,1-4.36.77,5.1,5.1,0,0,1-3.35-1.8,6.43,6.43,0,0,1-1.75-4.93,6,6,0,0,1,2.11-4.5A6.09,6.09,0,0,1,98.24,90.46Z"/><path class="cls-2" d="M95.61,98.7c-1.33-.12-1.67-1.73-1.43-2.87a2.12,2.12,0,0,1,2.63-1.49c1.11.24,1.61,1.88,1.27,3A1.82,1.82,0,0,1,95.61,98.7Z"/><circle class="cls-2" cx="96.61" cy="96.56" r="9.13"/><path class="cls-3" d="M100,93.1,99.83,93a6.43,6.43,0,0,0-1-.34,6.29,6.29,0,0,0-1.31-.12,5.76,5.76,0,0,0-1.61.21,4.91,4.91,0,0,0-1.32.56,4.69,4.69,0,0,0-1,.83,4.83,4.83,0,0,0-.73,1,4.75,4.75,0,0,0-.58,2.29,3.87,3.87,0,0,0,.16,1.16,2.57,2.57,0,0,0,.49,1,2.63,2.63,0,0,0,.83.65,2.79,2.79,0,0,0,1.16.23,3.42,3.42,0,0,0,1.46-.32,3.38,3.38,0,0,0,1-.72,1.74,1.74,0,0,0,.66.71,2.44,2.44,0,0,0,1.29.34,3.77,3.77,0,0,0,1.7-.4,4.33,4.33,0,0,0,1.35-1.1,5.11,5.11,0,0,0,.88-1.63,6.1,6.1,0,0,0,.31-2,6.71,6.71,0,0,0-.59-2.84,6.5,6.5,0,0,0-1.59-2.13A7,7,0,0,0,99,89.05a7.82,7.82,0,0,0-4.78-.18,7.45,7.45,0,0,0-1.87.81,7.64,7.64,0,0,0-1.57,1.25,8.05,8.05,0,0,0-1.21,1.59,8.2,8.2,0,0,0-.77,1.86,7.79,7.79,0,0,0-.27,2.05,8.75,8.75,0,0,0,.62,3.36,7.43,7.43,0,0,0,1.73,2.56,7.76,7.76,0,0,0,2.62,1.6,9.39,9.39,0,0,0,3.27.56,10.45,10.45,0,0,0,3.09-.42,9.41,9.41,0,0,0,2.37-1.08l.18-.12-.4-1a.65.65,0,0,0-.64-.47.89.89,0,0,0-.45.14q-.33.18-.75.36a7.85,7.85,0,0,1-.93.3,8.45,8.45,0,0,1-1.13.21,11.1,11.1,0,0,1-1.34.08,7.07,7.07,0,0,1-2.38-.39,5.24,5.24,0,0,1-1.89-1.13,5.38,5.38,0,0,1-1.27-1.88,7.06,7.06,0,0,1-.46-2.63,6.14,6.14,0,0,1,.42-2.29,5.62,5.62,0,0,1,1.17-1.84,5.52,5.52,0,0,1,1.77-1.23,5.34,5.34,0,0,1,2.2-.45,6.46,6.46,0,0,1,2,.31,4.31,4.31,0,0,1,1.55.89,4,4,0,0,1,1,1.47,5.35,5.35,0,0,1,.37,2.07,5.41,5.41,0,0,1-.15,1.31,4.09,4.09,0,0,1-.39,1,1.87,1.87,0,0,1-.55.62,1.12,1.12,0,0,1-.9.17.39.39,0,0,1-.17-.09.69.69,0,0,1-.13-.21,1.25,1.25,0,0,1,0-.38,4.19,4.19,0,0,1,.14-.94Zm-2.67,1.47L96.75,97a2.86,2.86,0,0,1-.28.74,1.81,1.81,0,0,1-.36.44,1,1,0,0,1-.39.22h0a1.54,1.54,0,0,1-.42.07.65.65,0,0,1-.55-.24,1.28,1.28,0,0,1-.2-.78,2.79,2.79,0,0,1,.2-1.07,2.9,2.9,0,0,1,.54-.92,2.47,2.47,0,0,1,.81-.63,2.17,2.17,0,0,1,1-.23Z"/></svg>