<svg viewBox="0 0 192 192" version="1.1" id="svg196" xml:space="preserve" xmlns="http://www.w3.org/2000/svg"><defs id="defs184"><style id="style182"></style></defs><g style="fill:#728dbe" id="g2186" transform="translate(0 .048)"><path fill="#9abeff" fill-rule="evenodd" d="M33 19c0-5.523 4.477-10 10-10h66.292L159 54.719V173c0 5.523-4.477 10-10 10H43c-5.523 0-10-4.477-10-10z" clip-rule="evenodd" id="path2171" style="fill:#728dbe"/><path fill="#728dbe" fill-rule="evenodd" d="M109.292 9 159 54.719l-36.579.386c-8.223.087-11.923-3.49-12.163-11.986z" clip-rule="evenodd" id="path2175" style="fill:#54688c;stroke-width:1.20743"/><path id="path303" style="opacity:1;vector-effect:non-scaling-stroke;fill:#fff;stroke-width:1.00571;stroke-linecap:round;stroke-linejoin:bevel;stroke-dashoffset:1.5941;-inkscape-stroke:hairline;paint-order:fill markers stroke" d="M97.673 77.953a17.694 42.173 0 0 0-17.693 42.174A17.694 42.173 0 0 0 97.673 162.3a17.694 42.173 0 0 0 17.695-42.172 17.694 42.173 0 0 0-17.695-42.174zm0 4.684a13.166 37.49 0 0 1 13.166 37.49 13.166 37.49 0 0 1-13.166 37.49 13.166 37.49 0 0 1-13.166-37.49 13.166 37.49 0 0 1 13.166-37.49z"/><path id="path562" style="opacity:1;vector-effect:non-scaling-stroke;fill:#9abeff;stroke-width:1.00571;stroke-linecap:round;stroke-linejoin:bevel;stroke-dashoffset:1.5941;-inkscape-stroke:hairline;paint-order:fill markers stroke" d="M112.54 97.253c-.432 2.129-3.88 2.22-3.88 2.22-1.73-5.508-4.75-16.841-10.987-16.836-7.27.015-10.593 15.229-12.159 23.109-.302 5.321-.973 9.98-.995 12.756-.012 1.625-4.432 5.065-4.467 1.66-.045-23.29 7.85-42.187 17.621-42.209 6.995 0 12.914 10.235 14.867 19.3z"/><path id="path441" style="opacity:1;vector-effect:non-scaling-stroke;fill:#fff;stroke-width:1.00571;stroke-linecap:round;stroke-linejoin:bevel;stroke-dashoffset:1.5941;-inkscape-stroke:hairline;paint-order:fill markers stroke" d="M61.233 98.898a42.173 17.694 30.223 0 0 27.535 36.518 42.173 17.694 30.223 0 0 45.346 5.94 42.173 17.694 30.223 0 0-27.532-36.519 42.173 17.694 30.223 0 0-45.349-5.939zm4.047 2.358a37.49 13.166 30.223 0 1 39.022 7.495A37.49 13.166 30.223 0 1 130.069 139a37.49 13.166 30.223 0 1-39.022-7.495 37.49 13.166 30.223 0 1-25.767-30.248z"/><path id="path443" style="opacity:1;vector-effect:non-scaling-stroke;fill:#fff;stroke-width:1.00571;stroke-linecap:round;stroke-linejoin:bevel;stroke-dashoffset:1.5941;-inkscape-stroke:hairline;paint-order:fill markers stroke" d="M133.86 98.468a17.694 42.173 59.1 0 0-45.273 6.476 17.694 42.173 59.1 0 0-27.1 36.839 17.694 42.173 59.1 0 0 45.273-6.473 17.694 42.173 59.1 0 0 27.1-36.842zm-4.018 2.405a13.166 37.49 59.1 0 1-25.408 30.55 13.166 37.49 59.1 0 1-38.93 7.955 13.166 37.49 59.1 0 1 25.407-30.55 13.166 37.49 59.1 0 1 38.93-7.955z"/><path id="path567" style="opacity:1;vector-effect:non-scaling-stroke;fill:#98dc9a;stroke-width:1.00571;stroke-linecap:round;stroke-linejoin:bevel;stroke-dashoffset:1.5941;-inkscape-stroke:hairline;paint-order:fill markers stroke" d="M67.293 122.61c3.757-2.62 3.319 2.326 2.211 3.93-4.316 7.61-4.313 7.53-4 12.838 3.66 6.282 21.085.981 25.257-1.1 3.719-1.51 3.077-3.198 5.535-2.563 2.228.576 5.177 1.738 3.391 3.449-1.004.96-4.345 1.825-8.09 3.514-9.147 3.611-25.217 7.5-30.138-.942-2.375-4.525-.467-9.799 2.319-14.245 1.652-2.637 1.983-2.951 3.515-4.882z"/><path id="path459" style="opacity:1;vector-effect:non-scaling-stroke;fill:#ff837d;stroke-width:1.00571;stroke-linecap:round;stroke-linejoin:bevel;stroke-dashoffset:1.5941;-inkscape-stroke:hairline;paint-order:fill markers stroke" d="M115.225 110.495c-3.757-2.62-6.114 1.232-4.471 2.34 14.384 9.849 22.448 20.772 19.314 26.164-3.66 6.282-21.13 2.926-39.021-7.496a104.473 104.473 0 0 1-7.168-4.59c-4.778-3.54-6.293.914-4.443 2.326a97.896 97.896 0 0 0 9.332 6.176c20.123 11.723 40.424 14.383 45.345 5.942 4.082-7.003-3.7-19.719-18.888-30.862z"/></g></svg>