<?xml version="1.0" encoding="UTF-8"?>
<svg version="1.1" viewBox="0 0 192 192" xml:space="preserve" xmlns="http://www.w3.org/2000/svg">
	 <rect class="a" x="20" y="20" width="152" height="152" rx="10" fill="#728dbe"/><path d="m100.53 135.54a39.541 39.541 0 0 1-39.541-39.541 39.541 39.541 0 0 1 39.541-39.541" fill="none" stroke="#fff" stroke-linejoin="round" stroke-width="14.611"/><path d="m112.88 73.386h11.55v9.283s-0.0175 4.5336-5.505 4.5336c-6.0141 0-6.0447-4.2637-6.0447-4.2637z" fill="#fff"/><path d="m112.88 89.974h11.55v9.283s-0.0175 4.5336-5.505 4.5336c-6.0141 0-6.0447-4.2637-6.0447-4.2637z" fill="#fff"/><path d="m126.77 89.974h11.55v9.283s-0.0175 4.5336-5.505 4.5336c-6.0141 0-6.0447-4.2637-6.0447-4.2637z" fill="#fff"/><path d="m98.985 89.974h11.55v9.283s-0.0175 4.5336-5.505 4.5336c-6.0141 0-6.0447-4.2637-6.0447-4.2637z" fill="#fff"/><path d="m112.88 106.56h11.55v9.283s-0.0175 4.5336-5.505 4.5336c-6.0141 0-6.0447-4.2637-6.0447-4.2637z" fill="#fff"/></svg>
