<?xml version="1.0" encoding="UTF-8"?><svg id="a" xmlns="http://www.w3.org/2000/svg" width="192" height="192" xmlns:xlink="http://www.w3.org/1999/xlink" viewBox="0 0 192 192"><defs><clipPath id="d"><rect x="19.5" y="19.5" width="153" height="153" rx="10" ry="10" style="fill:none;"/></clipPath></defs><g id="b"><g id="c"><g style="clip-path:url(#d);"><rect x="19.58" y="19.44" width="153" height="153" rx="10" ry="10" style="fill:#f8c18c;"/><path d="m60.45,93.91c9.39-1.75,18.68-3.46,27.96-5.22,5.34-1.01,10.66-2.13,15.99-3.16,6.61-1.29,12.46,2.36,14.36,8.8,2.48,8.36-2.99,15.29-9.64,16.24-2.51.36-4.99,1.01-7.48,1.51-5.19,1.03-10.35,2.24-15.57,3.02-6.77,1.01-12.87-4.23-13.46-10.53,2.4-.43,4.81-.89,7.23-1.27.25-.04.68.3.83.58,1.27,2.3,2.93,3.08,5.56,2.58,1.28-.25,2.58-.45,4.04-.7-.51-2.93-1.02-5.8-1.55-8.87-8.99,1.7-17.87,3.37-26.86,5.07.13.78.27,1.51.36,2.24.16,1.21-.5,2.16-1.63,2.39-1.05.21-2.13-.51-2.34-1.71-.76-4.17-1.5-8.35-2.21-12.53-.24-1.4.44-2.39,1.64-2.61,1.15-.21,2.05.55,2.33,1.97.15.73.29,1.46.43,2.2Zm42.61,9.63c1.85-.36,3.64-.55,5.32-1.06,1.61-.49,2.64-1.73,2.93-3.45.29-1.73-.33-3.12-1.66-4.2-1.58-1.29-4.68-.59-8.13.08.51,2.83,1.01,5.67,1.54,8.64Zm-10.08-7.37c.53,3.01,1.04,5.88,1.57,8.85,1.5-.28,2.84-.52,4.25-.78-.54-3.04-1.05-5.91-1.57-8.84-1.46.26-2.77.5-4.25.77Z" style="fill:#fff;"/><path d="m135.67,108.02s-.04,0-.06-.02c-1.42-.54-2.67-1.52-3.94-2.34-1.33-.87-2.66-1.74-3.99-2.61-1.41-.93-2.81-1.86-4.21-2.8-.38-.26-.72-.85-.74-1.31-.25-5.79-.65-7.27-3.87-11.51-.43-.57-.47-1.36-.08-1.96,3.27-5.02,6.55-10.05,9.83-15.09l.45.08c.07.01.22,1.01.24,1.12.08.39.17.78.25,1.17.17.78.33,1.55.49,2.33.32,1.56.64,3.11.95,4.67.62,3.12,1.22,6.24,1.8,9.36.58,3.13,1.13,6.26,1.66,9.39.27,1.57.53,3.13.78,4.7.13.78.26,1.57.38,2.35.06.39.13.78.19,1.18.04.27.24.79.15,1.04,0,.02-.02.04-.03.06-.05.06-.11.1-.18.14-.03.02-.06.03-.09.03Z" style="fill:#fff;"/><path d="m81.66,84.7l-.67-3.4c-.7.12-1.27.22-1.85.33-1.32.26-2.51-.52-2.73-1.82-.18-1.07.64-2.13,1.86-2.36,8.87-1.65,17.73-3.29,26.6-4.92,1.45-.27,2.53.42,2.82,1.72.25,1.15-.59,2.2-2,2.49-.5.1-1,.2-1.6.32l.56,3.4c.08.48-.24.93-.71,1.01l-2.47.46c-.48.09-.94-.23-1.03-.7l-.65-3.38-5.07.89.54,3.44c.07.47-.24.92-.71,1.01l-2.46.46c-.48.09-.94-.22-1.03-.7l-.66-3.41-5.07.95.56,3.43c.08.47-.24.92-.71,1.01l-2.48.46c-.48.09-.94-.22-1.03-.7Z" style="fill:#fff;"/><path d="m104.87,115.66c.23-.04.46.11.52.34.92,3.44.13,3.76-1.17,4.03-1.87.39-2.32-.12-2.78-3.33-.03-.25.13-.48.38-.52l3.05-.51Z" style="fill:#fff;"/><path d="m95.89,117.16c.31-.05.62.14.7.45.86,3.31.08,3.62-1.21,3.89-1.84.39-2.31-.1-2.76-3.18-.05-.33.18-.65.51-.7l2.75-.46Z" style="fill:#fff;"/></g></g></g></svg>