<?xml version="1.0" encoding="UTF-8"?><svg id="uuid-e43f5f04-6bb4-474a-9d72-5ca26b48c6cb" xmlns="http://www.w3.org/2000/svg" width="192" height="192" viewBox="0 0 192 192"><g id="uuid-a17a7ce0-89e1-452b-9445-ef90970e9c5c"><g id="uuid-b3a70035-1151-4baa-9855-2396ca3184a1"><rect x="20" y="20" width="152" height="152" rx="10" ry="10" fill="#98dc9a" stroke-width="0"/><path d="m98.01,132.5h20.96c2.76,0,5-2.24,5-5v-30.5s-25.96-10.25-25.96-10.25v45.75Z" fill="#fff" fill-rule="evenodd" stroke-width="0"/><path d="m98.01,59.5v22.87l25.96,10.26v-28.13c0-2.76-2.24-5-5-5h-20.96Z" fill="#fff" fill-rule="evenodd" stroke-width="0"/><path d="m68.02,64.5v40.75l25.96-10.25v-35.5h-20.96c-2.76,0-5,2.24-5,5Z" fill="#fff" fill-rule="evenodd" stroke-width="0"/><path d="m73.02,132.49h20.96v-33.13s-25.96,10.25-25.96,10.25v17.87c0,2.76,2.24,5,5,5Z" fill="#fff" fill-rule="evenodd" stroke-width="0"/></g></g></svg>