<?xml version="1.0" encoding="UTF-8" standalone="no"?>
<svg
   viewBox="0 0 192 192"
   version="1.1"
   id="svg16"
   xmlns="http://www.w3.org/2000/svg"
   xmlns:svg="http://www.w3.org/2000/svg">
  <defs
     id="defs4">
    <style
       id="style2">.a{fill:none;stroke:#b1b5bd;stroke-linecap:round;stroke-linejoin:round;isolation:isolate;opacity:0.63;}</style>
  </defs>
  <g
     id="layer3">
    <g
       id="g837">
      <circle
         class="a"
         cx="96"
         cy="96"
         r="88"
         id="circle8"
         style="display:inline;fill:#98dc9a;opacity:1;stroke:none" />
      <path
         style="fill:#ececec;stroke:none;stroke-width:1px;stroke-linecap:butt;stroke-linejoin:miter;stroke-opacity:1"
         d="M 80.292397,66.619042 C 80.1727,65.694298 79.933164,63.843699 79.692766,62.202509 79.452368,60.561319 79.21107,59.129571 78.767912,57.937815 78.324755,56.74606 77.679179,55.794348 76.989032,54.95321 76.298885,54.112071 75.563985,53.381706 74.862433,52.828756 74.16088,52.275807 73.492532,51.900634 72.552596,51.60026 71.61266,51.299885 70.401238,51.074779 68.368268,51.008828 c -2.03297,-0.06595 -4.887169,0.0275 -6.725648,0.121767 -1.838479,0.09427 -2.661053,0.18942 -3.399389,0.369512 -0.738336,0.180093 -1.392027,0.445219 -2.175165,0.954197 -0.783138,0.508978 -1.695268,1.261649 -2.35958,1.961799 -0.664311,0.70015 -1.080505,1.347397 -1.519558,2.449387 -0.439053,1.10199 -0.900911,2.658253 -1.000981,4.578977 -0.10007,1.920723 0.161327,4.205331 0.705919,7.331409 0.544593,3.126077 1.372226,7.093362 2.477998,10.99251 1.105773,3.899149 2.489419,7.729882 3.799877,10.621826 1.310458,2.891944 2.547348,4.844981 4.032912,7.113436 1.485564,2.268455 3.21967,4.852192 4.835932,7.177422 1.616262,2.32523 3.11454,4.39184 4.974813,6.52508 1.860274,2.13324 4.082243,4.33312 6.489067,6.51948 2.406823,2.18637 4.998279,4.35918 7.909839,6.44813 2.911561,2.08896 6.142957,4.09412 9.204128,5.73076 3.061171,1.63665 5.951908,2.9049 9.097358,4.13525 3.14546,1.23036 6.54545,2.42285 9.83938,3.32123 3.29392,0.89838 6.48163,1.50279 8.86798,1.84859 2.38636,0.3458 3.97134,0.43313 5.5337,0.40945 1.56236,-0.0237 3.10216,-0.15824 4.23861,-0.47995 1.13645,-0.32171 1.8702,-0.8305 2.66555,-1.49686 0.79535,-0.66637 1.65243,-1.49038 2.40674,-2.5301 0.75431,-1.03973 1.40602,-2.29551 1.6943,-3.78711 0.28829,-1.49161 0.21289,-3.21961 0.21858,-5.02734 0.006,-1.80773 0.0925,-3.69499 -0.0687,-5.19093 -0.16119,-1.49593 -0.57091,-2.60071 -1.28569,-3.79984 -0.71479,-1.19912 -1.73503,-2.49241 -2.97903,-3.4504 -1.244,-0.958 -2.71203,-1.58006 -4.71495,-2.10558 -2.00291,-0.52552 -4.54052,-0.95415 -6.68665,-1.21197 -2.14613,-0.25781 -3.90058,-0.34466 -5.45645,-0.41018 -1.55587,-0.0655 -2.91306,-0.10971 -4.00694,0.2179 -1.09389,0.3276 -1.92346,1.02708 -3.03676,2.01775 -1.1133,0.99067 -2.5102,2.27241 -3.82846,3.50825 -1.31826,1.23583 -2.55776,2.42566 -3.45987,3.39692 -0.9021,0.97127 -1.46662,1.72373 -2.04852,2.0924 -0.5819,0.36867 -1.1823,0.35367 -2.50637,-0.17996 -1.324071,-0.53362 -3.371894,-1.58641 -5.319532,-2.80631 -1.947637,-1.2199 -3.7949,-2.60706 -5.772878,-4.20246 -1.977977,-1.59539 -4.086501,-3.39901 -6.328534,-5.64554 -2.242032,-2.24653 -4.617295,-4.93598 -6.370152,-7.28994 -1.752857,-2.353965 -2.882944,-4.372434 -3.830075,-6.020629 -0.94713,-1.648194 -1.711288,-2.926012 -2.173283,-3.778139 -0.461995,-0.852128 -0.621552,-1.27855 -0.534632,-1.818738 0.08692,-0.540189 0.420958,-1.193292 1.065247,-1.926638 0.644288,-0.733345 1.5985,-1.546427 2.56379,-2.489653 0.96529,-0.943226 1.94173,-2.016659 2.812496,-2.896052 0.870766,-0.879393 1.635706,-1.564596 2.154195,-2.224248 0.51849,-0.659653 0.790768,-1.294249 1.126978,-2.181117 0.33621,-0.886867 0.736325,-2.026043 0.895764,-3.524062 0.159439,-1.498019 0.07795,-3.355249 0.04118,-4.55411 -0.03677,-1.19886 -0.02876,-1.739236 -0.02475,-2.009922 0.004,-0.270686 0.004,-0.270696 -0.115685,-1.19544 z"
         id="path859" />
      <path
         style="fill:#e85e5c;stroke:none;stroke-width:1px;stroke-linecap:butt;stroke-linejoin:miter;stroke-opacity:1;fill-opacity:1"
         d="m 100.58124,82.132635 c 0.30087,0.40312 0.90175,1.208232 1.644,1.977492 0.74225,0.76926 1.62559,1.502859 2.43218,2.010458 0.8066,0.507598 1.53629,0.789611 2.35264,0.935312 0.81635,0.145701 1.71952,0.155544 2.57797,0.140604 0.85846,-0.01494 1.67221,-0.0546 2.46119,-0.190842 0.78898,-0.13624 1.55346,-0.368899 2.26911,-0.819687 0.71566,-0.450788 1.38309,-1.119867 1.94314,-1.726304 0.56006,-0.606436 1.01279,-1.150292 1.38714,-1.718059 0.37435,-0.567768 0.67041,-1.159709 0.92028,-1.704948 0.24988,-0.545239 0.45355,-1.043852 0.64933,-1.482773 0.19577,-0.438921 0.38362,-0.818022 0.61679,-1.102114 0.23316,-0.284093 0.51119,-0.472601 0.89625,-0.545527 0.38506,-0.07293 0.87625,-0.0305 1.30957,0.07434 0.43333,0.10484 0.80863,0.271645 1.00388,0.619067 0.19525,0.347422 0.21162,0.874941 0.1341,1.456903 -0.0775,0.581962 -0.2487,1.218681 -0.4445,1.860527 -0.1958,0.641846 -0.41619,1.288869 -0.64707,1.837467 -0.23087,0.548598 -0.47224,0.998965 -0.80266,1.487901 -0.33042,0.488935 -0.74996,1.016635 -1.26232,1.529062 -0.51237,0.512427 -1.11772,1.00976 -1.7252,1.430316 -0.60748,0.420555 -1.21729,0.76441 -1.74567,1.137621 -0.52837,0.373211 -0.97502,0.775617 -1.53531,1.074698 -0.56029,0.299082 -1.23479,0.494959 -1.76655,0.622021 -0.53176,0.127061 -0.92094,0.185236 -1.17901,0.30044 -0.25807,0.115204 -0.38406,0.287129 -0.43565,0.783255 -0.0516,0.496125 -0.0289,1.315554 -9.4e-4,2.030454 0.028,0.7149 0.0612,1.325199 -0.11065,1.776829 -0.1719,0.45163 -0.54903,0.745719 -1.01038,0.896906 -0.46135,0.151186 -1.00772,0.159369 -1.49198,0.06335 -0.48427,-0.09602 -0.90662,-0.29683 -1.1555,-0.694139 -0.24888,-0.397309 -0.32321,-0.991637 -0.32435,-1.650255 -0.001,-0.658618 0.0711,-1.381271 0.0623,-1.807465 -0.009,-0.426194 -0.0998,-0.556197 -0.1259,-0.726367 -0.0261,-0.170171 0.0137,-0.380181 -0.26999,-0.61307 -0.28366,-0.23289 -0.89206,-0.488385 -1.47148,-0.660908 -0.57942,-0.172523 -1.12974,-0.261743 -1.88972,-0.581829 -0.75997,-0.320085 -1.7296,-0.871497 -2.51462,-1.495434 -0.78502,-0.623936 -1.385133,-1.320752 -1.916488,-2.002196 -0.531355,-0.681444 -0.993797,-1.347551 -1.434932,-1.96413 -0.441136,-0.616578 -0.860977,-1.183571 -1.160153,-1.775769 -0.299175,-0.592199 -0.477179,-1.209631 -0.63865,-1.780146 -0.161471,-0.570515 -0.306385,-1.094076 -0.31564,-1.523715 -0.0093,-0.42964 0.11768,-0.764691 0.32488,-1.003448 0.2072,-0.238758 0.494037,-0.380466 0.778434,-0.496514 0.284396,-0.116049 0.566125,-0.206435 0.846905,-0.251531 0.28078,-0.04509 0.560211,-0.04509 0.816225,0.07332 0.256014,0.118418 0.488604,0.354239 0.685824,0.686074 0.19722,0.331834 0.359595,0.759461 0.467981,1.207883 0.108387,0.448421 0.163109,0.917715 0.236834,1.238384 0.0737,0.320668 0.16595,0.492621 0.21174,0.577999 0.0458,0.08538 0.0458,0.08537 0.34664,0.488491 z"
         id="path863" />
      <path
         style="fill:#e85e5c;stroke:none;stroke-width:1px;stroke-linecap:butt;stroke-linejoin:miter;stroke-opacity:1;fill-opacity:1"
         d="m 103.56247,69.819077 c -0.002,-0.957258 -0.005,-2.872775 0.094,-4.131568 0.0995,-1.258794 0.30231,-1.860434 0.56151,-2.406872 0.2592,-0.546438 0.57473,-1.037302 0.86784,-1.384982 0.29312,-0.34768 0.56347,-0.551788 0.82972,-0.82314 0.26624,-0.271353 0.52861,-0.610189 1.0316,-0.871402 0.50299,-0.261214 1.24573,-0.444466 1.98193,-0.491195 0.7362,-0.04673 1.46541,0.04276 2.07151,0.161021 0.60611,0.118261 1.08899,0.265061 1.55005,0.533918 0.46106,0.268858 0.90041,0.659173 1.26818,1.081471 0.36777,0.422298 0.66425,0.876332 0.87194,1.315785 0.2077,0.439453 0.32702,0.864274 0.37015,1.504161 0.0431,0.639886 0.0104,1.495021 -0.0115,2.786204 -0.0219,1.291183 -0.033,3.018294 -0.0386,4.368184 -0.006,1.349889 -0.006,2.322478 0.0127,3.16877 0.0183,0.846292 0.0547,1.566191 0.0646,2.39986 0.01,0.83367 -0.007,1.781124 -0.17836,2.491284 -0.17141,0.710159 -0.49734,1.183751 -0.88201,1.641983 -0.38467,0.458232 -0.8282,0.901281 -1.34745,1.259087 -0.51925,0.357806 -1.11463,0.630551 -1.71473,0.808901 -0.6001,0.178351 -1.20528,0.262215 -1.74017,0.24724 -0.53489,-0.01498 -0.99977,-0.12919 -1.52786,-0.282233 -0.52809,-0.153044 -1.11937,-0.345006 -1.65937,-0.731249 -0.53999,-0.386244 -1.02837,-0.967428 -1.40768,-1.491239 -0.3793,-0.523811 -0.64929,-0.990318 -0.78362,-1.781149 -0.13434,-0.790831 -0.13234,-1.905746 -0.14881,-3.174652 -0.0165,-1.268906 -0.0514,-2.691746 -0.0769,-3.590726 -0.0254,-0.898979 -0.0413,-1.274067 -0.0493,-1.462136 -0.008,-0.188068 -0.008,-0.188068 -0.009,-1.145326 z"
         id="path867" />
    </g>
  </g>
</svg>
