<svg id="Camada_1" data-name="Camada 1" xmlns="http://www.w3.org/2000/svg" viewBox="0 0 192 192"><defs><style>.cls-1{fill:#ff837d;isolation:isolate;}.cls-2{fill:#fff;}</style></defs><path id="rect2" class="cls-1" d="M29.9,20H162a9.86,9.86,0,0,1,9.9,9.9V162a9.86,9.86,0,0,1-9.9,9.9H29.9A9.86,9.86,0,0,1,20,162V29.9A9.86,9.86,0,0,1,29.9,20Z"/><path class="cls-2" d="M122.22,69.68a1.3,1.3,0,0,1-1.3,1.3,1.23,1.23,0,0,1-.57-.14h0l-.38-.29s0,0,0,0a30.64,30.64,0,0,0-18.47-6.07c-16.09,0-29.12,12-29.12,26.83a25.81,25.81,0,0,0,9,19.37,1.13,1.13,0,0,1,.29.25l0,0a1.42,1.42,0,0,1,.34.91,1.45,1.45,0,0,1-1.47,1.42,1.39,1.39,0,0,1-.5-.09l-.49-.28c-8.87-5.33-14.74-14.63-14.74-25.21,0-16.56,14.38-30,32.12-30a33,33,0,0,1,24.85,11h0c.1.11.19.22.28.34s0,0,0,0A1.21,1.21,0,0,1,122.22,69.68Z"/><path class="cls-2" d="M137.3,94.51c0,8-9.69,14.89-24,18.41h0l-.75.18a1.36,1.36,0,0,1-1.31-1.36,1.39,1.39,0,0,1,.61-1.15l.66-.21h0c9.17-3.14,15-7.78,15-13,0-9.45-19.35-17.12-43.23-17.12a90,90,0,0,0-27.81,4l-.42.13-.16,0a1.22,1.22,0,0,1-1.22-1.22,1.19,1.19,0,0,1,.39-.89l.4-.26C63.74,77,77,73.63,92,73.63,117,73.63,137.3,83,137.3,94.51Z"/><path class="cls-2" d="M94.87,113.15,90.54,116a1,1,0,0,0-.44.83v16.79a.67.67,0,0,0,.67.67h4.1Z"/><path class="cls-2" d="M97.24,110.12v24.19h8.81a.67.67,0,0,0,.67-.67V107.52a1.33,1.33,0,0,0-1.92-1.19Z"/></svg>