<svg id="Camada_1" data-name="Camada 1" xmlns="http://www.w3.org/2000/svg" viewBox="0 0 192 192"><defs><style>.cls-1,.cls-8,.cls-9{fill:#56595b;}.cls-1,.cls-9{stroke:#56595b;}.cls-1{stroke-miterlimit:10;}.cls-2{fill:#f8c18c;}.cls-3{fill:#f9de81;}.cls-4{fill:#ec8d00;}.cls-5{fill:#fff;}.cls-6{fill:#febb00;}.cls-7{fill:#ff837d;}.cls-9{stroke-linecap:round;stroke-linejoin:round;stroke-width:2px;}</style></defs><path class="cls-1" d="M95.48,163.49a8.45,8.45,0,0,1-1.08-5.8,34.82,34.82,0,0,0,.41-8.22c-.29-3.93-1.87-8-1.34-11.72a191.59,191.59,0,0,0,1.71-24.38c.11-9.36.41-18.72.2-28.07-.07-3.21-4.15-4.79-4.19-8.66-.11-9.74,1.24-19.33,2.12-29l.42-4.29c.13-1.4.25-2.81.38-4.22a99.84,99.84,0,0,0-1.78-24.82c-.58-1.86-2-2.88-3.59-3.84-7.67-3.88-14.82-3.41-21.31,2.57l-2.36,1a13.83,13.83,0,0,1-2-.51C57,11.09,48.85,13.4,45.22,18.7A74.34,74.34,0,0,0,34.7,41.61C33,47.81,26.54,52,26.47,58.94c-.06,6-2.73,10.18-7.15,13.89-3.29,2.76-5.12,6.71-4,11,1.3,4.75.25,9.13-1,13.55C12.63,103.87,9,111,14.14,116.66c4.54,5,5.56,9.7,4.84,15.81-.47,4,.6,8.24,4.65,9.74,4.37,1.63,8.33,2.94,11.42,7,1.61,2.11,5.58,2.41,8.48,3.54A16.08,16.08,0,0,0,47,160.3c1.62,6.38,5.95,10.68,11.54,13.4,8.49,4.14,15.08,12.67,26.71,9.68C94.55,181,100.05,171.89,95.48,163.49Zm-1.68,7.15c-2.53,8.5-13,12.77-20.55,7.87-6.56-4.27-14-7.27-19.59-13-3.17-3.26-3.27-7.78-5-11.64-1.49-3.4-4-5.74-7.63-5.85-5.05-.14-5.54-5.62-9.3-7.16-2.9-1.2-6.87-.13-8.54-4a13.5,13.5,0,0,1-.58-7.38c.7-4.87.24-9.17-3.79-12.63-5.53-4.76-3.47-10.55-1.7-16.09,1.51-4.72,3.15-9.63,2.42-14.41-1.07-7,3.31-10.52,7.43-14.49C29.21,61,33.64,51,38.44,41c2.91-6.05,4.81-12.64,8.51-18.38,2.36-5.93,9.23-7.73,16.81-4.44,2.36,1,4.11,0,5.68-1.76,4.87-5.37,13.68-6.66,18.38-2,2.82,2.8,2.21,7.36,2.48,11.19a118.19,118.19,0,0,1-.78,23.55c-.61,8.67-1.28,17.33-1.81,26-.23,3.71.67,7.09,3.56,9.77a3.34,3.34,0,0,1,1,2.31q-.6,21.63-1.41,43.27a52,52,0,0,1-1.27,7.15c0,1,0,2,.08,3l.17.5.07.88c1.78,6.42,1.13,13,1,19.48C90.89,164.73,94.89,167,93.8,170.64Z"/><path class="cls-2" d="M89.9,142c1.78,6.42,1.13,13,1,19.48,0,3.29,4,5.57,2.86,9.2-2.53,8.5-13,12.77-20.55,7.87-6.56-4.27-14-7.27-19.59-13-3.17-3.26-3.27-7.78-5-11.64-1.49-3.4-4-5.74-7.63-5.85-5.05-.14-5.54-5.62-9.3-7.16-2.9-1.2-6.87-.13-8.54-4a13.5,13.5,0,0,1-.58-7.38c.7-4.87.24-9.17-3.79-12.63-5.53-4.76-3.47-10.55-1.7-16.09,1.51-4.72,3.15-9.63,2.42-14.41-1.07-7,3.31-10.52,7.43-14.49,2.74.33,4.35,1.71,4.3,4.63l-.09.81c-.19.34-.38.68-.58,1,.08.85.08,1.71.24,2.54,1.57,7.92,8.43,12.71,11.68,19.64a1.18,1.18,0,0,0,2,0c3.16-4.31,6.52-2.71,9.57-.1,4.28,3.68,7.7,8.58,13.92,9.37.83.72,1.65,1.47,2.52,2.16,2.81,2.22,7.24,2.44,8.4,6.7a3.5,3.5,0,0,0,2.45,2.46c.52.68.61,2,1.91,1.62s1.28-1.38,1.12-2.45c2.4-1.4,1.32-3.4.89-5.28l-.39-.47,0-.85c1.41-2,4.67-4.08-.52-5.62a12.43,12.43,0,0,1-4-2.67C75,100.88,71.17,94.59,64.88,90.88c-7.39-4.37-15.72-7.47-19.95-16-7.34-14.79-6.6-19.77,5.34-30.5a9.32,9.32,0,0,0,.88-1.09,2.48,2.48,0,0,0-.76-.27c-8-.48-10.31-5.28-5.81-12.15,1.07-1.63,2.54-2.85,4.73-2.29.24.06.38.54.56.82-.81.4-1.71.73-1.66,1.89a5.55,5.55,0,0,1-.42.42c-2.72,2.21-4,5-2.83,8.41.44,1.28,1.84.79,2.78.62,2.32-.43,4.64-.93,6.91-1.58,3-.85,3.61-.8,3.8.76l-3.08,6c-1.53.83-3.14,1.55-4.58,2.52-10.9,7.32-9.17,25,3,32.11,4.87,2.87,11.16,2.59,15.1,7.54,4.53,5.68,8.25,12.15,14.48,16.3,2.33,1.55,5.22,2.64,7.56.5.89-.81-2-.74-2.24-2l-2.18-4.4c1-16.41-.64-33,2.63-49.27h.43c-.61,8.67-1.28,17.33-1.81,26-.23,3.71.67,7.09,3.56,9.77a3.34,3.34,0,0,1,1,2.31q-.6,21.63-1.41,43.27a52,52,0,0,1-1.27,7.15c-3.16-3.58-7.83-3.6-11.88-5.07,1.86-4.6,2.2-9.09-.86-13.38-3.1-3.62-7.19-5.13-11.82-5.48-5.46-3.28-9.18-10-15.8-10.47-8-.62-14.59-2.62-19-9.6,0-.06-.22,0-.34,0a4.25,4.25,0,0,0-.06.86c1.35,8,3.54,15.84,8.37,22.4,1.51,2.06.67,7.89,6.29,5.61l.5.54c0,1.47.7,2,2.19,2.13,6.13.59,11.36-3.24,17.26-3.43,1.88-.06,4.7-.1,2.6,3.68-3.05,5.48-1.1,11.59,4.41,14.55a76.24,76.24,0,0,0,10.31,4.4c1.43.51,3.43,3.14,4.64-.41Zm-27.33-10.8c-1.14-.6,2-3.44-1.46-3.16s-6.81.83-10.2,1.3a5,5,0,0,0-1.27.55c.07.15.1.37.21.44,6.31,4,11.66,9.18,17,14.35.11.1.39,0,.59,0a2.51,2.51,0,0,0-.28-.54A18.1,18.1,0,0,1,62.57,131.16Z"/><path class="cls-3" d="M48.21,31.28c-.05-1.16.85-1.49,1.66-1.89,1.83-1.46,3.66-1.14,4.88.59,1.41,2,3.35,1.36,4.84,1,1.17-.29,0-1.88-.09-2.87-.55-5.45-4.37-7.65-9.07-5.35A3.25,3.25,0,0,1,47,22.58c2.36-5.93,9.23-7.73,16.81-4.44,2.36,1,4.11,0,5.68-1.76,4.87-5.37,13.68-6.66,18.38-2,2.82,2.8,2.21,7.36,2.48,11.19a118.19,118.19,0,0,1-.78,23.55h-.43c-4.57-2.78-1.16-7.81-3.2-11.83C84,33.64,84,29,80.1,26.12c-3.33-2.42-6.48-5.43-11.18-3.53l-3.53.49,0-.44L65,21.81a.07.07,0,0,1-.05-.09c-.55-.77-1.16-1-1.87-.19-1.81,3.26.46,5.89,1.34,8.74l.46.65.14.52.31.36c2.75,3.78,2,8.33,2.76,12.53.5,2.65,4.57,4.19,2.77,7.48-4.89,9-9.18,18-7.28,28.71a1.33,1.33,0,0,1-.85.32c-5.42-1.23-9.94-3.75-13.26-8.44C43.76,64.29,46.24,52.22,54.29,50l.6-.41.41-.1,2-1.3c3.8-2.61,5.25-6.31,3.4-10.42-1.58-3.49-4.82-1.66-7.52-1.14-1.85.37-3.75.48-5.63.7a4.25,4.25,0,0,1,2.54-3.61c.85-.43,1.52-.85,1.27-1.89s-1.06-1.12-1.94-1l-.58.34ZM64.6,49.72l-.75-3.66c-.58.81-1.14,1.65-1.76,2.43-.8,1-1.69,2-2.49,3-3.11,4-8.8,6.81-6,13.35,1.08,2.5,2.48,4.86,3.78,7.26a5.34,5.34,0,0,0,.89,1,10.33,10.33,0,0,0,.33-1.33c.4-2.88.43-5.86,1.23-8.62C61.23,58.45,63.08,54,64.6,49.72Z"/><path class="cls-3" d="M47,22.58a3.25,3.25,0,0,0,3.48.17c4.7-2.3,8.52-.1,9.07,5.35.1,1,1.26,2.58.09,2.87-1.49.37-3.43,1-4.84-1-1.22-1.73-3-2.05-4.88-.59-.18-.28-.32-.76-.56-.82-2.19-.56-3.66.66-4.73,2.29C40.08,37.73,42.4,42.53,50.39,43a2.48,2.48,0,0,1,.76.27,9.32,9.32,0,0,1-.88,1.09C38.33,55.1,37.59,60.08,44.93,74.87c4.23,8.54,12.56,11.64,19.95,16,6.29,3.71,10.07,10,15.51,14.55a12.43,12.43,0,0,0,4,2.67c5.19,1.54,1.93,3.62.52,5.62-1.42-1.4-2.62-3.25-4.31-4.14A53,53,0,0,1,66.22,98.42c-4.69-5-10.28-8.64-17.71-8-1.29.12-2.66,1.81-3.75.48-1.85-2.28-3.12-5-5-7.27-2.4-2.81-1.07-10.21-8.45-7.16.05-2.92-1.56-4.3-4.3-4.63C29.21,61,33.64,51,38.44,41,41.35,34.91,43.25,28.32,47,22.58Z"/><path class="cls-3" d="M89.9,142l-3.56,2c-2.26-2.36-5.42-3-8.28-4.07-9.24-3.3-12-8.73-7.41-15.24,2.44-3.46,2-2.69-.59-4.12-5.4-3-10.16-1.47-15,.71-3.27,1.47-7-.15-10.12,1.8l-.5-.54c-1.51-2.54-1.33-5.23,1.69-5.73,6.29-1,12.36-3.59,18.9-3,4.63.35,8.72,1.86,11.82,5.48a6.38,6.38,0,0,1-1.31,4.51c-3.14,4.52-2.11,8.44,2.17,8.87,4,1.47,8.72,1.49,11.88,5.07,0,1,0,2,.08,3,.06.16.11.33.17.5Z"/><path class="cls-4" d="M89.83,141.08c-.06-.17-.11-.34-.17-.5C89.72,140.74,89.77,140.91,89.83,141.08Z"/><path class="cls-5" d="M102.83,143l-.24-.94-.14-.28c-.12-.29-.23-.57-.35-.85s-.41-.8-.62-1.2l-.18-1c-.09-.17-.18-.35-.28-.52,0-.43-.11-.87-.17-1.3l-.3-1.27c0-1.29,0-2.59,0-3.88l.11,0,.21-2.16c0-.53.08-1.06.13-1.59l.11,0,.2-1.09.15-1.54.13.09.17-.79c.07-.42.14-.83.2-1.24l.24-.74c.07-.41.15-.82.23-1.22s.15-.62.22-.93.13-.71.19-1.06.27-.84.4-1.26c2.17-8.22-1-16.46.07-24.66,1.34-9.82-2.59-18.84-4.11-28.22-.59-3.62.13-7,.84-10.43,1-5-.79-9.94-.48-15a20.33,20.33,0,0,1,6.36-14c2.5-2.35,1.36-5.6,2.7-8.23,2.2-4.35,9.54-6.35,12.7-2.7,3.35,3.88,6.79,4.54,11.34,3,5.72-1.94,8.53,2.58,11.9,5.75.38.36.73.75,1.09,1.13l.25.44.88,1.37.25.18c4.74,6.83,3.33,16.41,9.21,22.44s6,14.16,9.61,20.88c1.66,3.11,5.22,5.16,7.3,8.12,4.25,6,0,10.78-3.06,15.59-.52.83-1.09,1.63-1.6,2.47-.7,1.13-1.77,2.41-.11,3.47s2.32-.23,3.07-1.47,1.65-2.23,2.48-3.34a39.19,39.19,0,0,0,1.43,5c3.61,8.23.84,14.86-4.68,21.16-2,2.28-1.61,5.72-1.13,8.6,1.09,6.44-1.31,10.24-7.61,11.9a7.12,7.12,0,0,0-5.05,4.46c-1.55,4.6-6.43,4.79-9.34,7.53-3.21,3-2.15,8.82-6.71,10.93-9.16,4.24-16.58,11.49-26.13,15-5.76,2.12-10.14-1.68-10.94-9.38A26.12,26.12,0,0,0,103,167l-.13-.48c-.07-.33-.13-.66-.19-1s-.18-.6-.26-.9-.13-.72-.2-1.07-.17-.74-.25-1.11-.11-1-.17-1.54c-.12-1.06-.25-2.13-.38-3.2s0-1.88,0-2.81l0,.1a.36.36,0,0,0,.07-.17c.09-1,.17-2,.25-2.94.06-.51.12-1,.17-1.52,0,0,.1,0,.1,0l.15-1.07c.07-.35.13-.7.2-1s.15-.5.22-.75c.08-.41.15-.82.23-1.22A3.1,3.1,0,0,0,102.83,143ZM134.48,68.1c-5.89.19-12.34-.72-15,6.58-1,2.81-1.6,5.94.64,8.49,2,2.26,4.58,1.42,6.84.43a14.77,14.77,0,0,1,8.58-1.17c3.15.53,7.2.72,7.67,4.73.41,3.46-2.67,5.51-5.66,6.51-7.95,2.65-14.21,7-16.23,15.6-1,4.13-.11,8,3.81,10.32,3.51,2.08,7.43,1.44,9-2,3-6.52,8.53-9.62,14.27-12.93,9.18-5.3,13.25-15.79,10-24.76C155.79,72.38,146.13,67.64,134.48,68.1Zm-13.19,51.58c-4.71-.09-8.53,4.18-8.51,9.81,0,5.31,3.81,6.87,8.15,7,4.82.17,9-1.32,9.29-7.12A9.07,9.07,0,0,0,121.29,119.68Z"/><path class="cls-4" d="M101.41,157.72c.13,1.07.26,2.14.38,3.2C101.67,159.85,101.54,158.79,101.41,157.72Z"/><path class="cls-5" d="M102.83,143a3.1,3.1,0,0,1,0,3.28C102.84,145.15,102.84,144.06,102.83,143Z"/><path class="cls-5" d="M101.77,151.9c-.08,1-.16,2-.25,2.94a.36.36,0,0,1-.07.17l0-.1c.06-1,.12-2,.19-3a.12.12,0,0,1,.06-.08A.24.24,0,0,1,101.77,151.9Z"/><path class="cls-5" d="M100.86,129.58l-.21,2.16-.11,0C100.65,131,100.75,130.29,100.86,129.58Z"/><path class="cls-5" d="M103.23,118.26c-.13.42-.27.84-.4,1.26l.3-1.36Z"/><path class="cls-5" d="M102.19,149.26l-.15,1.07s-.06,0-.1,0C102,150,102.11,149.63,102.19,149.26Z"/><path class="cls-4" d="M100.55,135.58l.3,1.27Z"/><path class="cls-4" d="M101.48,139.7c.21.4.42.8.62,1.2C101.9,140.5,101.69,140.1,101.48,139.7Z"/><path class="cls-4" d="M102,162.46c.08.37.17.74.25,1.11C102.13,163.2,102,162.83,102,162.46Z"/><path class="cls-5" d="M101.3,127l-.2,1.09-.11,0C101.09,127.64,101.2,127.29,101.3,127Z"/><path class="cls-4" d="M102.64,120.58c-.07.31-.15.62-.22.93C102.49,121.2,102.57,120.89,102.64,120.58Z"/><path class="cls-5" d="M101.75,124.71l-.17.79-.13-.09Z"/><path class="cls-4" d="M102.41,164.64c.08.3.17.6.26.9C102.58,165.24,102.49,164.94,102.41,164.64Z"/><path class="cls-4" d="M102.19,122.73l-.24.74Z"/><path class="cls-4" d="M102.61,147.47c-.07.25-.15.5-.22.75C102.46,148,102.54,147.72,102.61,147.47Z"/><path class="cls-4" d="M101,138.15c.1.17.19.35.28.52C101.21,138.49,101.12,138.32,101,138.15Z"/><path class="cls-4" d="M145.89,25.34l-.25-.44Z"/><path class="cls-4" d="M102.86,166.53l.13.48Z"/><path class="cls-4" d="M147,26.89l-.25-.18Z"/><path class="cls-4" d="M102.45,141.75l.14.28Z"/><path class="cls-3" d="M68.92,22.59c4.7-1.9,7.85,1.11,11.18,3.53C84,29,84,33.64,85.89,37.3c2,4-1.37,9.05,3.2,11.83C85.82,65.43,87.5,82,86.46,98.4L84,96.89c.07-.45.37-1,.18-1.33-1.72-2.79-3.55-5.5-5.29-8.27-5.2-8.31-8.29-16.94-4.33-26.8,1.78-4.42,3.15-9,2.93-13.88-.27-6.09-3.32-11.4-5.43-16.93C71.2,27.3,72.67,23.7,68.92,22.59Z"/><path class="cls-1" d="M65.37,22.64l0,.44c.66,7,5.9,12.47,5.66,20-.12,3.52,4.75,6.63,1.82,11.37-4.47,7.23-7.55,15-6.54,23.81.34,1.55.16,3.75,1.12,4.53,3.81,3.09,6.12,7.38,9.38,10.86,3.42,3.66,5.54,9.13,11.81,9.17.25,1.31,3.13,1.24,2.24,2-2.34,2.14-5.23,1.05-7.56-.5-6.23-4.15-9.95-10.62-14.48-16.3-3.94-5-10.23-4.67-15.1-7.54-12.12-7.14-13.85-24.79-3-32.11,1.44-1,3.05-1.69,4.58-2.52a5.28,5.28,0,0,0,3.08-6c-.19-1.56-.8-1.61-3.8-.76-2.27.65-4.59,1.15-6.91,1.58-.94.17-2.34.66-2.78-.62-1.16-3.44.11-6.2,2.83-8.41a5.55,5.55,0,0,0,.42-.42l.64-.16.58-.34c.88-.12,1.7,0,1.94,1S51,33.24,50.1,33.67a4.25,4.25,0,0,0-2.54,3.61c1.88-.22,3.78-.33,5.63-.7,2.7-.52,5.94-2.35,7.52,1.14,1.85,4.11.4,7.81-3.4,10.42l-2,1.3-.41.1-.6.41c-8,2.27-10.53,14.34-4.81,22.45,3.32,4.69,7.84,7.21,13.26,8.44a1.33,1.33,0,0,0,.85-.32C61.69,69.84,66,60.78,70.87,51.81c1.8-3.29-2.27-4.83-2.77-7.48-.81-4.2,0-8.75-2.76-12.53L65,31.44l-.14-.52-.46-.65c-.88-2.85-3.15-5.48-1.34-8.74l1.87.19a.07.07,0,0,0,.05.09Z"/><path class="cls-3" d="M65,113.7c-6.54-.56-12.61,2-18.9,3-3,.5-3.2,3.19-1.69,5.73-5.62,2.28-4.78-3.55-6.29-5.61-4.83-6.56-7-14.39-8.37-22.4a4.25,4.25,0,0,1,.06-.86c.12,0,.3,0,.34,0,4.46,7,11,9,19,9.6C55.84,103.75,59.56,110.42,65,113.7Z"/><path class="cls-3" d="M31.3,76.51c7.38-3.05,6.05,4.35,8.45,7.16,1.89,2.23,3.16,5,5,7.27,1.09,1.33,2.46-.36,3.75-.48,7.43-.68,13,2.92,17.71,8a53,53,0,0,0,14.41,11.16c1.69.89,2.89,2.74,4.31,4.14l0,.85.39.47c.43,1.88,1.51,3.88-.89,5.28C82.09,113.87,77.85,109,71,107.69c-6-1.18-10.24-4.55-14.26-8.74-2.76-2.88-6.14-4.69-10.4-3.41-.83.25-2.2.9-2.45.62-3.25-3.81-6.59-7.51-8.9-12.08C34,82,35,78.36,31.27,77.82l-.06-.5Z"/><path class="cls-1" d="M31.27,77.82C35,78.36,34,82,35,84.08c2.31,4.57,5.65,8.27,8.9,12.08.25.28,1.62-.37,2.45-.62,4.26-1.28,7.64.53,10.4,3.41,4,4.19,8.22,7.56,14.26,8.74,6.81,1.33,11,6.18,13.43,12.63.16,1.07.12,2.11-1.12,2.45s-1.39-.94-1.91-1.62c-2-6.74-6.77-10.08-13.37-11.32-6.22-.79-9.64-5.69-13.92-9.37-3-2.61-6.41-4.21-9.57.1a1.18,1.18,0,0,1-2,0C39.3,93.59,32.44,88.8,30.87,80.88c-.16-.83-.16-1.69-.24-2.54Z"/><path class="cls-1" d="M44.93,123c3.12-2,6.85-.33,10.12-1.8,4.85-2.18,9.61-3.68,15-.71,2.61,1.43,3,.66.59,4.12-4.6,6.51-1.83,11.94,7.41,15.24,2.86,1,6,1.71,8.28,4.07-1.21,3.55-3.21.92-4.64.41a76.24,76.24,0,0,1-10.31-4.4c-5.51-3-7.46-9.07-4.41-14.55,2.1-3.78-.72-3.74-2.6-3.68-5.9.19-11.13,4-17.26,3.43C45.63,125,44.92,124.47,44.93,123Z"/><path class="cls-3" d="M88.64,102.8c-6.27,0-8.39-5.51-11.81-9.17-3.26-3.48-5.57-7.77-9.38-10.86-1-.78-.78-3-1.12-4.53a21.65,21.65,0,0,1,8.14,6.52c3.28,3.95,5.27,8.94,9.57,12.13l2.42,1.51C87.18,99.87,87.91,101.33,88.64,102.8Z"/><path class="cls-3" d="M62.57,131.16a18.1,18.1,0,0,0,4.58,13,2.51,2.51,0,0,1,.28.54c-.2,0-.48.07-.59,0-5.33-5.17-10.68-10.33-17-14.35-.11-.07-.14-.29-.21-.44a5,5,0,0,1,1.27-.55c3.39-.47,6.79-1,10.2-1.3S61.43,130.56,62.57,131.16Z"/><path class="cls-3" d="M77.7,132.56c-4.28-.43-5.31-4.35-2.17-8.87a6.38,6.38,0,0,0,1.31-4.51C79.9,123.47,79.56,128,77.7,132.56Z"/><path class="cls-3" d="M68.07,109.83c6.6,1.24,11.42,4.58,13.37,11.32A3.5,3.5,0,0,1,79,118.69c-1.16-4.26-5.59-4.48-8.4-6.7C69.72,111.3,68.9,110.55,68.07,109.83Z"/><path class="cls-3" d="M58.45,39.91a5.28,5.28,0,0,1-3.08,6Q56.92,42.9,58.45,39.91Z"/><path class="cls-6" d="M31.27,77.82l-.64.52c.2-.34.39-.68.58-1Z"/><path class="cls-6" d="M85.36,115l-.39-.47Z"/><path class="cls-2" d="M84,96.89c-4.3-3.19-6.29-8.18-9.57-12.13a21.65,21.65,0,0,0-8.14-6.52c-1-8.81,2.07-16.58,6.54-23.81,2.93-4.74-1.94-7.85-1.82-11.37.24-7.51-5-13-5.66-20l3.53-.49c3.75,1.11,2.28,4.71,3.18,7.09,2.11,5.53,5.16,10.84,5.43,16.93.22,4.84-1.15,9.46-2.93,13.88-4,9.86-.87,18.49,4.33,26.8,1.74,2.77,3.57,5.48,5.29,8.27C84.41,95.85,84.11,96.44,84,96.89Z"/><path class="cls-3" d="M64.6,49.72C63.08,54,61.23,58.45,59.87,63.1c-.8,2.76-.83,5.74-1.23,8.62a10.33,10.33,0,0,1-.33,1.33,5.34,5.34,0,0,1-.89-1c-1.3-2.4-2.7-4.76-3.78-7.26-2.84-6.54,2.85-9.4,6-13.35.8-1,1.69-2,2.49-3,.62-.78,1.18-1.62,1.76-2.43Z"/><path class="cls-4" d="M55.3,49.44l2-1.3Z"/><path class="cls-3" d="M65,21.72l-1.87-.19C63.8,20.76,64.41,21,65,21.72Z"/><path class="cls-4" d="M54.29,50l.6-.41Z"/><path class="cls-4" d="M64.43,30.27l.46.65Z"/><path class="cls-4" d="M65.37,22.64,65,21.81Z"/><path class="cls-4" d="M49.43,30.78l-.58.34Z"/><path class="cls-4" d="M65,31.44l.31.36Z"/><path class="cls-1" d="M134.48,68.09c11.65-.45,21.31,4.29,24,11.78,3.21,9-.86,19.46-10,24.76-5.74,3.31-11.24,6.41-14.27,12.93-1.61,3.47-5.53,4.11-9,2-3.92-2.34-4.78-6.19-3.81-10.32,2-8.63,8.28-13,16.23-15.6,3-1,6.07-3,5.66-6.51-.47-4-4.52-4.2-7.67-4.73a14.77,14.77,0,0,0-8.58,1.17c-2.26,1-4.86,1.83-6.84-.43-2.24-2.55-1.67-5.68-.64-8.49C122.14,67.38,128.59,68.29,134.48,68.09Zm-.37,2.84c-3.29.38-7.46-.68-10.51,2.36A7.1,7.1,0,0,0,122.06,81c.39,1.08,1.81.67,2.65.29A20.76,20.76,0,0,1,138.37,80c3.58.83,6.93,2.24,7.66,6.31s-1.69,7.09-5,8.76c-6.21,3.14-13.29,5-16.14,12.42-1.4,3.66-2,7.36,1.87,9.68,2.8,1.7,5.41-.16,6.24-2.78,1.86-5.89,6.69-8.18,11.48-10.74C154.27,98.45,159.25,89,155.6,81,151.53,72.14,143.2,70.93,134.11,70.93Z"/><path class="cls-1" d="M104.12,21.5c0-.46.08-.91.11-1.37.12-.26.23-.54.34-.81.61-4.25,2.54-7.6,6.88-8.84,5.1-1.47,10-1.09,13.63,3.26,2.38,2.8,4.89,1.18,7.33.59,7.17-1.75,11,3.18,15.12,7.44,6.05,6.22,6.37,14.91,9.56,22.37,2.19,5.14,8.57,8.61,8.6,14.11.07,9.81,8.78,13.82,12,21.26a10,10,0,0,1-.15,8c-1.87,4.46.34,8.5,1.54,12.38,2.6,8.42,1.81,15.67-4.75,22-1.47,1.41-1.63,3.62-1.34,5.56,1.28,8.59-.49,15.16-10.05,17.78-4.12,1.13-3.85,7.51-8.23,8.44-6.58,1.39-5.83,8.14-9.29,11.74-5,5.16-12.17,6.73-17.7,11.05-3.93,3.07-8,5.92-13.15,6.87-6.5,1.2-12.73-1.92-13.75-8.38-1.24-7.81-4.91-15.69-2.43-23.59,2.59-8.23-3.45-15.57-1.07-23.7,2.1-7.17,3.84-14.53,2.72-22.21-.78-5.37.31-10.84.12-16.11-.29-7.89-2.89-15.69-4.49-23.54-.75-3.68-.1-7.28.69-10.88,1.45-6.72-2-13.52.38-20.27a36.82,36.82,0,0,1,4.33-8.81l.12,0,.42-.52C102.5,24,104.25,23.38,104.12,21.5Zm-2.7,133.41v2.81l.38,3.2.17,1.54.25,1.1.2,1.08.26.9.19,1,.13.48a26.12,26.12,0,0,1,.77,3.23c.8,7.7,5.18,11.5,10.94,9.38,9.55-3.51,17-10.76,26.13-15,4.56-2.11,3.5-7.9,6.71-10.93,2.91-2.74,7.79-2.93,9.34-7.53a7.12,7.12,0,0,1,5.05-4.46c6.3-1.66,8.7-5.46,7.61-11.9-.48-2.88-.87-6.32,1.13-8.6,5.52-6.3,8.29-12.93,4.68-21.16a39.19,39.19,0,0,1-1.43-5c-.83,1.11-1.77,2.16-2.48,3.34s-1.49,2.49-3.07,1.47-.59-2.34.11-3.47c.51-.84,1.08-1.64,1.6-2.47,3-4.81,7.31-9.54,3.06-15.59-2.08-3-5.64-5-7.3-8.12-3.6-6.72-3.75-14.86-9.61-20.88S151.76,33.72,147,26.89l-.25-.18-.88-1.37-.25-.44c-.36-.38-.71-.77-1.09-1.13-3.37-3.17-6.18-7.69-11.9-5.75-4.55,1.54-8,.88-11.34-3-3.16-3.65-10.5-1.65-12.7,2.7-1.34,2.63-.2,5.88-2.7,8.23A20.33,20.33,0,0,0,99.55,40c-.31,5,1.52,9.92.48,15-.71,3.43-1.43,6.81-.84,10.43,1.52,9.38,5.45,18.4,4.11,28.22-1.12,8.2,2.1,16.44-.07,24.66,0,0-1.41,6-1.48,6.45-.1.23-1.4,7.46-.9,12.14.17,1.66,1.8,4.9,2,6.12.54,3.62-1,8.42-1.06,8.93C101.74,151.88,101.48,153.91,101.42,154.91Z"/><path class="cls-7" d="M134.11,70.93c9.09,0,17.42,1.21,21.49,10.07,3.65,8-1.33,17.45-11.13,22.67-4.79,2.56-9.62,4.85-11.48,10.74-.83,2.62-3.44,4.48-6.24,2.78-3.83-2.32-3.27-6-1.87-9.68,2.85-7.47,9.93-9.28,16.14-12.42,3.32-1.67,5.75-4.64,5-8.76S142,80.85,138.37,80a20.76,20.76,0,0,0-13.66,1.27c-.84.38-2.26.79-2.65-.29a7.1,7.1,0,0,1,1.54-7.71C126.65,70.25,130.82,71.31,134.11,70.93Z"/><path class="cls-7" d="M120.91,122.41c4.51.34,6.28,3.15,6.4,6.82s-3,4.57-5.94,4.48c-2.61-.09-5.88-.53-5.67-4.25C115.88,126.13,117,123,120.91,122.41Z"/><path class="cls-8" d="M121.65,137h-.74c-5.7-.21-8.61-2.74-8.63-7.52a11,11,0,0,1,3-7.83,8.2,8.2,0,0,1,5.84-2.49h.16a9.52,9.52,0,0,1,6.88,3,9.66,9.66,0,0,1,2.54,7.2C130.43,134.47,127.39,137,121.65,137Zm-.72-14.11c-3,.43-4.51,2.58-4.74,6.57a3.15,3.15,0,0,0,.7,2.4c1,1.07,2.92,1.27,4.49,1.32h.41c1.32,0,3.11-.22,4.14-1.28a3.55,3.55,0,0,0,.88-2.69C126.68,125.35,124.71,123.22,120.93,122.92Z"/><path class="cls-8" d="M121.14,119.68h.15a9.07,9.07,0,0,1,8.93,9.72c-.31,5.51-4.06,7.13-8.57,7.13h-.72c-4.34-.16-8.12-1.72-8.15-7,0-5.57,3.73-9.81,8.36-9.81m.65,14c2.77,0,5.63-.89,5.52-4.48s-1.89-6.48-6.4-6.82c-3.91.54-5,3.72-5.21,7.05-.21,3.72,3.06,4.16,5.67,4.25h.42m-.65-15h0a8.71,8.71,0,0,0-6.2,2.64,11.55,11.55,0,0,0-3.16,8.18c0,3.51,1.61,7.74,9.11,8h.76c7.53,0,9.36-4.39,9.57-8.08a10.16,10.16,0,0,0-2.68-7.56,10,10,0,0,0-7.23-3.21Zm.65,14h-.39c-1.48-.05-3.28-.22-4.14-1.16a2.65,2.65,0,0,1-.57-2c.21-3.74,1.57-5.69,4.26-6.1,3.49.3,5.24,2.21,5.36,5.84a3.05,3.05,0,0,1-.74,2.33c-.9.93-2.55,1.12-3.78,1.12Z"/><path class="cls-8" d="M80.5,184.5c-6.14,0-10.91-3.2-15.51-6.29a57.19,57.19,0,0,0-6.68-4.06c-6.26-3.05-10.22-7.63-11.78-13.62a16.45,16.45,0,0,1-3.43-7.41c-.82-.3-1.73-.54-2.61-.78-2.28-.61-4.63-1.24-5.84-2.83-2.84-3.74-6.4-5-10.52-6.58l-.67-.25c-3.71-1.38-5.57-5.22-5-10.26.76-6.45-.61-10.91-4.72-15.42-4.47-4.91-2.61-10.81-.81-16.52.34-1.08.68-2.16,1-3.22,1.25-4.59,2.19-8.76,1-13.29-1.14-4.17.36-8.37,4.11-11.52,4.77-4,6.92-8.18,7-13.52,0-4.12,2.26-7.31,4.41-10.38,1.62-2.32,3.15-4.5,3.84-7.07A74.54,74.54,0,0,1,44.81,18.41c2.63-3.84,7.7-6.33,12.91-6.33a14.22,14.22,0,0,1,5.5,1.05,7.06,7.06,0,0,0,1.3.34l.5.11,2.14-.94C70.89,9.23,75,7.5,79.31,7.5A21.45,21.45,0,0,1,89,10.06c1.69,1,3.22,2.12,3.85,4.13a99,99,0,0,1,1.8,25l-.38,4.25-.42,4.29c-.21,2.34-.46,4.69-.7,7a193.09,193.09,0,0,0-1.42,21.88c0,1.86,1.09,3.19,2.13,4.47s2,2.5,2.06,4.19c.15,6.79,0,13.7-.08,20.38q-.08,3.85-.12,7.7A189.38,189.38,0,0,1,94,137.81a21.35,21.35,0,0,0,.63,7,39.8,39.8,0,0,1,.72,4.61,35.41,35.41,0,0,1-.42,8.34,7.93,7.93,0,0,0,1,5.48,13,13,0,0,1,.63,11.59,16.54,16.54,0,0,1-11.18,9,19.27,19.27,0,0,1-4.86.64ZM56.56,17c-4.36,0-7.69,2.1-9.14,5.75A70.18,70.18,0,0,0,41.8,34.43C40.89,36.66,40,39,38.89,41.18c-4.32,9-9.11,19.54-11.4,30.8a.51.51,0,0,1-.14.26l-1,.93c-3.73,3.55-7.26,6.9-6.3,13.12.72,4.74-.81,9.54-2.3,14.18l-.3,1c-1.68,5.24-3.41,10.66,1.71,15.07,4.58,3.93,4.57,8.82,4,13.08a13,13,0,0,0,.54,7.11c1,2.37,3.05,2.68,5.2,3a14,14,0,0,1,3.07.71,9.49,9.49,0,0,1,3.8,3.52c1.36,1.82,2.64,3.54,5.33,3.61,3.56.11,6.35,2.23,8.07,6.15a30.56,30.56,0,0,1,1.39,4.18c.76,2.7,1.48,5.26,3.48,7.31,3.77,3.86,8.48,6.52,13,9.1,2.14,1.22,4.36,2.47,6.47,3.84a12.32,12.32,0,0,0,6.75,2,13.82,13.82,0,0,0,13-9.58c.54-1.82-.36-3.29-1.3-4.84a7.93,7.93,0,0,1-1.59-4.22c0-1.24,0-2.47.09-3.7.15-5.17.31-10.51-1.11-15.65l-.09-.91-.14-.45a.32.32,0,0,1,0-.14l-.08-3a.34.34,0,0,1,0-.1c.14-.76.31-1.52.48-2.28a28.09,28.09,0,0,0,.78-4.8c.59-15.1,1.05-30.35,1.41-43.27a2.89,2.89,0,0,0-.83-1.93c-2.77-2.56-4-5.88-3.72-10.16.38-6.18.83-12.45,1.27-18.51L89,49.1a119.45,119.45,0,0,0,.79-23.49c-.06-.79-.08-1.61-.1-2.45-.07-3.11-.14-6.33-2.24-8.41A10,10,0,0,0,80.32,12a14.44,14.44,0,0,0-10.51,4.69A6,6,0,0,1,65.55,19a4.94,4.94,0,0,1-2-.45A17.66,17.66,0,0,0,56.56,17Z"/><path class="cls-8" d="M79.31,8a20.92,20.92,0,0,1,9.43,2.5c1.54,1,3,2,3.59,3.84a99.84,99.84,0,0,1,1.78,24.82c-.13,1.41-.25,2.82-.38,4.22l-.42,4.29c-.88,9.64-2.23,19.23-2.12,29,0,3.87,4.12,5.45,4.19,8.66.21,9.35-.09,18.71-.2,28.07a191.59,191.59,0,0,1-1.71,24.38c-.53,3.76,1,7.79,1.34,11.72a34.82,34.82,0,0,1-.41,8.22,8.45,8.45,0,0,0,1.08,5.8c4.57,8.4-.93,17.49-10.24,19.89a19,19,0,0,1-4.74.62c-8.83,0-14.7-6.76-22-10.3-5.59-2.72-9.92-7-11.54-13.4a16.08,16.08,0,0,1-3.46-7.55c-2.9-1.13-6.87-1.43-8.48-3.54-3.09-4.06-7-5.37-11.42-7-4.05-1.5-5.12-5.76-4.65-9.74.72-6.11-.3-10.83-4.84-15.81C9,111,12.63,103.87,14.41,97.39c1.21-4.42,2.26-8.8,1-13.55-1.17-4.3.66-8.25,4-11,4.42-3.71,7.09-7.9,7.15-13.89C26.54,52,33,47.81,34.7,41.61A74.34,74.34,0,0,1,45.22,18.7c2.63-3.85,7.64-6.12,12.5-6.12a13.82,13.82,0,0,1,5.31,1,13.83,13.83,0,0,0,2,.51l2.36-1C71.18,9.62,75.15,8,79.31,8M65.55,18.54a4.59,4.59,0,0,1-1.79-.4,18.18,18.18,0,0,0-7.2-1.63c-4.46,0-8,2.12-9.61,6.07-3.7,5.74-5.6,12.33-8.51,18.38C33.64,51,29.21,61,27,71.88c-4.12,4-8.5,7.45-7.43,14.49.73,4.78-.91,9.69-2.42,14.41-1.77,5.54-3.83,11.33,1.7,16.09,4,3.46,4.49,7.76,3.79,12.63a13.5,13.5,0,0,0,.58,7.38c1.67,3.84,5.64,2.77,8.54,4,3.76,1.54,4.25,7,9.3,7.16,3.63.11,6.14,2.45,7.63,5.85,1.7,3.86,1.8,8.38,5,11.64,5.6,5.74,13,8.74,19.59,13a12.78,12.78,0,0,0,7,2.07,14.22,14.22,0,0,0,13.52-9.94c1.09-3.63-2.91-5.91-2.86-9.2.09-6.52.74-13.06-1-19.48l-.07-.88-.17-.5c0-1,0-2-.08-3a52,52,0,0,0,1.27-7.15q.84-21.63,1.41-43.27a3.34,3.34,0,0,0-1-2.31c-2.89-2.68-3.79-6.06-3.56-9.77.53-8.67,1.2-17.33,1.81-26a118.19,118.19,0,0,0,.78-23.55c-.27-3.83.34-8.39-2.48-11.19a10.45,10.45,0,0,0-7.5-2.87,15,15,0,0,0-10.88,4.86,5.45,5.45,0,0,1-3.89,2.16M79.31,7c-4.44,0-8.62,1.76-12.43,5.22L65,13.05,64.62,13a6.45,6.45,0,0,1-1.21-.32,15,15,0,0,0-5.69-1.08c-5.37,0-10.6,2.57-13.32,6.55A75,75,0,0,0,33.73,41.35,22.65,22.65,0,0,1,30,48.26c-2.19,3.14-4.46,6.39-4.5,10.67,0,5.18-2.15,9.23-6.8,13.14-3.9,3.27-5.45,7.66-4.26,12s.27,8.51-1,13c-.29,1-.62,2.09-1,3.2-1.75,5.57-3.74,11.88.92,17,4.06,4.44,5.34,8.65,4.59,15-.63,5.29,1.35,9.33,5.29,10.79l.67.25c4.05,1.5,7.55,2.79,10.31,6.41,1.31,1.73,3.74,2.38,6.1,3,.81.22,1.59.43,2.3.67a16.94,16.94,0,0,0,3.42,7.27c1.61,6.09,5.66,10.74,12,13.84a57.82,57.82,0,0,1,6.62,4c4.67,3.14,9.5,6.38,15.79,6.38a19.85,19.85,0,0,0,5-.66A17,17,0,0,0,97,175a13.42,13.42,0,0,0-.64-12,7.52,7.52,0,0,1-1-5.15,35.39,35.39,0,0,0,.42-8.46,38.12,38.12,0,0,0-.72-4.67,20.77,20.77,0,0,1-.62-6.85,192.16,192.16,0,0,0,1.72-24.5q0-3.85.12-7.71c.11-6.68.23-13.59.08-20.39,0-1.87-1.13-3.2-2.17-4.5s-2-2.47-2-4.15a192.18,192.18,0,0,1,1.42-21.82c.24-2.31.48-4.7.7-7.05l.1-1,.32-3.27,0-.62.32-3.61a.43.43,0,0,0,0,0,99.46,99.46,0,0,0-1.8-25.07s0-.06,0-.09c-.68-2.17-2.36-3.36-4-4.39l-.07,0A22,22,0,0,0,79.31,7ZM65.55,19.54a6.44,6.44,0,0,0,4.63-2.49,14.13,14.13,0,0,1,10.14-4.53,9.5,9.5,0,0,1,6.79,2.58c2,1.94,2,5.06,2.1,8.07,0,.82,0,1.67.1,2.48A118.74,118.74,0,0,1,88.53,49a.13.13,0,0,0,0,.06L88,56.55c-.44,6.07-.89,12.34-1.27,18.51-.27,4.45,1,7.9,3.88,10.57a2.46,2.46,0,0,1,.68,1.55c-.37,12.9-.83,28.13-1.42,43.26a27.66,27.66,0,0,1-.77,4.71c-.17.75-.34,1.53-.48,2.3a.68.68,0,0,0,0,.2l0,1.46,0,1.49a.93.93,0,0,0,0,.29l.06.17.07.22,0,.32,0,.44a1.16,1.16,0,0,0,0,.18c1.4,5.07,1.25,10.14,1.09,15.5,0,1.24-.08,2.47-.09,3.71a8.29,8.29,0,0,0,1.66,4.49c.93,1.52,1.73,2.83,1.25,4.44a13.32,13.32,0,0,1-12.57,9.22,11.79,11.79,0,0,1-6.48-1.91c-2.12-1.38-4.34-2.64-6.5-3.85-4.52-2.56-9.2-5.21-12.92-9-1.91-2-2.61-4.46-3.36-7.1a31.11,31.11,0,0,0-1.41-4.25c-1.78-4-4.8-6.33-8.52-6.44-2.44-.07-3.6-1.62-4.94-3.41a9.92,9.92,0,0,0-4-3.68,13.79,13.79,0,0,0-3.19-.74c-2.42-.36-3.94-.68-4.82-2.7a12.61,12.61,0,0,1-.5-6.84c.6-4.14.66-9.41-4.13-13.53s-3.26-9.22-1.55-14.54l.15-.48.15-.47c1.5-4.69,3.05-9.55,2.31-14.4-.91-6,2.36-9.08,6.15-12.69l1-.93a1,1,0,0,0,.29-.52C30.25,60.88,35,50.37,39.34,41.4c1.07-2.22,2-4.54,2.92-6.78a69.83,69.83,0,0,1,5.53-11.5.56.56,0,0,0,.09-.17c1.38-3.46,4.54-5.44,8.68-5.44a17.23,17.23,0,0,1,6.8,1.54,5.54,5.54,0,0,0,2.19.49Z"/><path class="cls-8" d="M87.88,106.54A9,9,0,0,1,83,104.76c-4.76-3.16-8.1-7.7-11.33-12.09-1-1.43-2.14-2.91-3.26-4.31-2.36-3-5.57-4-9-5a28,28,0,0,1-6-2.39,21.41,21.41,0,0,1-10.43-17.7A17.25,17.25,0,0,1,50.52,48a32.75,32.75,0,0,1,3.16-1.78l1.45-.76A4.8,4.8,0,0,0,58,40c-.11-.88-.3-.88-.67-.88a11,11,0,0,0-2.5.53c-2.1.6-4.38,1.12-7,1.59l-.36.07a6.18,6.18,0,0,1-1.24.18,1.69,1.69,0,0,1-1.74-1.2c-1.15-3.4-.15-6.42,3-9,.08-.07.16-.16.24-.24l.14-.14a.49.49,0,0,1,.23-.14l.57-.14.51-.3a.62.62,0,0,1,.19-.07,4.44,4.44,0,0,1,.62-.05,1.74,1.74,0,0,1,1.88,1.43c.35,1.5-.78,2.07-1.53,2.46a3.85,3.85,0,0,0-2.19,2.59l1.11-.11c1.27-.13,2.59-.26,3.84-.51.51-.1,1-.24,1.56-.39a11.79,11.79,0,0,1,3-.57,3.57,3.57,0,0,1,3.47,2.38c1.88,4.17.58,8.2-3.57,11l-2,1.31a.44.44,0,0,1-.16.06L55.1,50l-.52.35-.15.08a10.13,10.13,0,0,0-6.69,6.78,16.86,16.86,0,0,0,2.15,14.9c3,4.24,7.24,6.94,13,8.25l.19-.08c-1.79-10.71,2.47-19.69,7.39-28.71.95-1.74,0-2.89-1.12-4.22a6.84,6.84,0,0,1-1.71-2.92,35,35,0,0,1-.44-4c-.21-3-.41-5.8-2.22-8.29l-.29-.32a.43.43,0,0,1-.11-.2l-.11-.43-.37-.53a1.86,1.86,0,0,1-.11-.19,17.46,17.46,0,0,0-.83-2.09c-.95-2.16-1.94-4.39-.47-7a.5.5,0,0,1,.44-.25l1.92.19a.49.49,0,0,1,.35.2l.06.1a.36.36,0,0,1,0,.09l.37.83a.58.58,0,0,1,0,.18l0,.44a28.91,28.91,0,0,0,2.72,8.67c1.51,3.5,3.07,7.11,2.94,11.35a7.87,7.87,0,0,0,1.24,3.65c1.16,2.23,2.48,4.76.5,8C68,63.22,66,70.68,66.82,78.18a12.12,12.12,0,0,1,.22,1.6c.11,1.08.23,2.2.73,2.6A37,37,0,0,1,73.67,89c1.11,1.46,2.26,3,3.52,4.32a37,37,0,0,1,2.39,2.94c2.35,3.11,4.57,6,9.06,6.07a.49.49,0,0,1,.49.4c.08.4.74.65,1.27.86s1,.41,1.14.89a.8.8,0,0,1-.32.77A4.82,4.82,0,0,1,87.88,106.54Z"/><path class="cls-8" d="M63.09,21.53l1.87.19a.07.07,0,0,0,.05.09l.36.83,0,.44c.66,7,5.9,12.47,5.66,20-.12,3.52,4.75,6.63,1.82,11.37-4.47,7.23-7.55,15-6.54,23.81.34,1.55.16,3.75,1.12,4.53,3.81,3.09,6.12,7.38,9.38,10.86,3.42,3.66,5.54,9.13,11.81,9.17.25,1.31,3.13,1.24,2.24,2a4.28,4.28,0,0,1-3,1.19,8.67,8.67,0,0,1-4.56-1.69c-6.23-4.15-9.95-10.62-14.48-16.3-3.94-5-10.23-4.67-15.1-7.54-12.12-7.14-13.85-24.79-3-32.11,1.44-1,3.05-1.69,4.58-2.52a5.28,5.28,0,0,0,3.08-6c-.11-.91-.37-1.31-1.16-1.31a11.33,11.33,0,0,0-2.64.55c-2.27.65-4.59,1.15-6.91,1.58a9,9,0,0,1-1.51.24A1.2,1.2,0,0,1,45,40.11c-1.16-3.44.11-6.2,2.83-8.41a5.55,5.55,0,0,0,.42-.42l.64-.16.58-.34a3.51,3.51,0,0,1,.55-.05,1.25,1.25,0,0,1,1.39,1.05c.25,1-.42,1.46-1.27,1.89a4.25,4.25,0,0,0-2.54,3.61c1.88-.22,3.78-.33,5.63-.7a26.58,26.58,0,0,1,4.5-.95,3.08,3.08,0,0,1,3,2.09c1.85,4.11.4,7.81-3.4,10.42l-2,1.3-.41.1-.6.41c-8,2.27-10.53,14.34-4.81,22.45,3.32,4.69,7.84,7.21,13.26,8.44h.07a1.39,1.39,0,0,0,.78-.33C61.69,69.84,66,60.78,70.87,51.81c1.8-3.29-2.27-4.83-2.77-7.48-.81-4.2,0-8.75-2.76-12.53L65,31.44l-.14-.52-.46-.65c-.88-2.85-3.15-5.48-1.34-8.74m0-1a1,1,0,0,0-.87.51c-1.6,2.87-.51,5.33.45,7.5a20.26,20.26,0,0,1,.81,2,.9.9,0,0,0,.13.28l.36.51.09.35a1,1,0,0,0,.22.41l.28.31c1.7,2.36,1.89,5.1,2.1,8a34.19,34.19,0,0,0,.45,4.11,7.35,7.35,0,0,0,1.82,3.15C70.15,49.13,70.75,50,70,51.33c-4.87,8.93-9.1,17.82-7.54,28.42A20,20,0,0,1,50.3,71.82a16.33,16.33,0,0,1-2.09-14.44,9.67,9.67,0,0,1,6.35-6.47,1,1,0,0,0,.29-.14l.46-.3.22-.06a1.2,1.2,0,0,0,.31-.13l.09-.06L57.85,49c4.39-3,5.76-7.26,3.77-11.67a4.08,4.08,0,0,0-3.93-2.68,12.13,12.13,0,0,0-3.17.59c-.54.15-1,.29-1.52.38-1.24.24-2.54.37-3.8.5l-.33,0a3.63,3.63,0,0,1,1.68-1.57c.73-.37,2.23-1.14,1.8-3A2.24,2.24,0,0,0,50,29.73a6,6,0,0,0-.69.05,1,1,0,0,0-.37.14l-.46.27-.49.12a1,1,0,0,0-.47.26l-.15.16-.19.19c-3.27,2.65-4.36,5.94-3.14,9.51A2.17,2.17,0,0,0,46.23,42a6.1,6.1,0,0,0,1.34-.19l.35-.07c2.6-.47,4.89-1,7-1.6a11.67,11.67,0,0,1,2.36-.51h.09a2.53,2.53,0,0,1,.08.42,4.31,4.31,0,0,1-2.53,5l-1.48.77a32,32,0,0,0-3.21,1.81,17.74,17.74,0,0,0-7.69,15.68A21.92,21.92,0,0,0,53.23,81.37a28.24,28.24,0,0,0,6.11,2.44c3.32,1,6.45,2,8.72,4.86,1.11,1.39,2.2,2.87,3.25,4.3,3.26,4.42,6.62,9,11.45,12.21A9.42,9.42,0,0,0,87.88,107a5.3,5.3,0,0,0,3.68-1.45,1.31,1.31,0,0,0,.47-1.24c-.14-.75-.84-1-1.45-1.26a3,3,0,0,1-1-.5,1,1,0,0,0-1-.79c-4.25,0-6.39-2.86-8.67-5.87a36.19,36.19,0,0,0-2.42-3,53,53,0,0,1-3.49-4.28,37.18,37.18,0,0,0-6-6.68c-.34-.27-.45-1.42-.54-2.26a14.89,14.89,0,0,0-.23-1.65c-.82-7.37,1.21-14.72,6.41-23.12,2.13-3.45.68-6.23-.49-8.47a7.54,7.54,0,0,1-1.18-3.4c.13-4.34-1.45-8-3-11.56A28.23,28.23,0,0,1,66.39,23l0-.4a1.37,1.37,0,0,0-.08-.35l-.2-.45-.17-.38-.06-.13a.86.86,0,0,0-.1-.16,1,1,0,0,0-.7-.4l-1.87-.19Z"/><path class="cls-8" d="M82.94,123.34c-1,0-1.33-.77-1.6-1.34a3.35,3.35,0,0,0-.3-.54.38.38,0,0,1-.08-.17c-1.76-6.08-6-9.66-13-11-4.91-.62-8.15-3.77-11.28-6.81-.93-.9-1.89-1.83-2.87-2.67-2-1.68-3.51-2.46-4.92-2.46s-2.7.81-3.92,2.48a1.8,1.8,0,0,1-1.46.76,1.56,1.56,0,0,1-1.43-.88A41,41,0,0,0,37,93.09C34.22,89.51,31.33,85.8,30.38,81a12.36,12.36,0,0,1-.19-1.8c0-.27,0-.53-.05-.79a.5.5,0,0,1,.18-.44l.64-.51a.47.47,0,0,1,.31-.12h.07c2.94.42,3.3,2.64,3.59,4.42a7.67,7.67,0,0,0,.54,2.1c2.08,4.11,5.07,7.59,8,11l.79.92a7.81,7.81,0,0,0,1.2-.37c.29-.11.58-.22.82-.29a10,10,0,0,1,2.86-.44c2.85,0,5.47,1.3,8,4,3.59,3.75,7.77,7.39,14,8.6,6.46,1.26,11.1,5.62,13.8,13,.12.71.41,2.59-1.45,3.1A1.91,1.91,0,0,1,82.94,123.34Z"/><path class="cls-8" d="M31.27,77.82C35,78.36,34,82,35,84.08c2.31,4.57,5.65,8.27,8.9,12.08a.28.28,0,0,0,.22.07,12.78,12.78,0,0,0,2.23-.69,9.29,9.29,0,0,1,2.72-.42c3,0,5.53,1.59,7.68,3.83,4,4.19,8.22,7.56,14.26,8.74,6.81,1.33,11,6.18,13.43,12.63.16,1.07.12,2.11-1.12,2.45a1.31,1.31,0,0,1-.41.07c-.92,0-1-1.09-1.5-1.69-2-6.74-6.77-10.08-13.37-11.32-6.22-.79-9.64-5.69-13.92-9.37-1.68-1.44-3.46-2.58-5.25-2.58-1.45,0-2.9.75-4.32,2.68a1.32,1.32,0,0,1-1.06.56,1,1,0,0,1-1-.6C39.3,93.59,32.44,88.8,30.87,80.88c-.16-.83-.16-1.69-.24-2.54l.64-.52m0-1a1,1,0,0,0-.63.23l-.06,0-.58.47a1,1,0,0,0-.36.86c0,.26,0,.52.05.78a13.67,13.67,0,0,0,.2,1.87c1,4.93,3.9,8.69,6.72,12.32a41,41,0,0,1,5,7.55,2.05,2.05,0,0,0,1.88,1.17,2.33,2.33,0,0,0,1.87-1c1.12-1.52,2.27-2.27,3.51-2.27s2.74.75,4.59,2.34c1,.83,1.93,1.76,2.85,2.65,3.18,3.09,6.48,6.29,11.57,6.95,6.76,1.27,10.87,4.74,12.56,10.61a1.29,1.29,0,0,0,.17.33,2.37,2.37,0,0,1,.25.46,2.31,2.31,0,0,0,2,1.62,2.87,2.87,0,0,0,.68-.1c1.52-.43,2.14-1.63,1.84-3.57a1.46,1.46,0,0,0,0-.2c-2.77-7.5-7.54-12-14.18-13.26-6.08-1.19-10.2-4.77-13.73-8.46-2.67-2.78-5.41-4.13-8.4-4.13a10.57,10.57,0,0,0-3,.46c-.26.08-.55.19-.86.3l-.84.29-.59-.7C40.8,91,38,87.68,35.92,83.63a7.2,7.2,0,0,1-.49-2c-.3-1.84-.71-4.36-4-4.84Z"/><path class="cls-8" d="M84.65,146.25a4.3,4.3,0,0,1-2.13-.89,5.2,5.2,0,0,0-1-.56,76.68,76.68,0,0,1-10.38-4.43,11.41,11.41,0,0,1-5.7-6.76,11,11,0,0,1,1.09-8.47c.62-1.12.83-2,.58-2.39s-.88-.56-2-.56h-.7a27.26,27.26,0,0,0-7.56,1.71,27.39,27.39,0,0,1-8.42,1.78,12.46,12.46,0,0,1-1.35-.07c-1.23-.12-2.65-.52-2.64-2.62a.51.51,0,0,1,.23-.43,10.37,10.37,0,0,1,5.64-1.15,11.14,11.14,0,0,0,4.55-.68,22.32,22.32,0,0,1,9-2.41,13.12,13.12,0,0,1,6.46,1.72c.44.24.82.42,1.13.57.71.33,1.17.55,1.3,1.06s-.24,1.19-1.44,2.9l-.23.32c-1.9,2.69-2.51,5.19-1.8,7.42.9,2.85,4,5.29,9,7.06l1.55.53c2.45.8,5,1.64,6.92,3.67a.5.5,0,0,1,.11.51C86.32,145.54,85.61,146.25,84.65,146.25Z"/><path class="cls-8" d="M63.84,118.83a12.64,12.64,0,0,1,6.22,1.66c2.61,1.43,3,.66.59,4.12-4.6,6.51-1.83,11.94,7.41,15.24,2.86,1,6,1.71,8.28,4.07-.47,1.38-1.06,1.83-1.69,1.83-1,0-2.07-1.11-3-1.42a76.24,76.24,0,0,1-10.31-4.4c-5.51-3-7.46-9.07-4.41-14.55,1.85-3.32-.11-3.69-1.88-3.69h-.72c-5.48.18-10.38,3.49-16,3.49-.43,0-.86,0-1.3-.06-1.49-.15-2.2-.66-2.19-2.13,3.12-2,6.85-.33,10.12-1.8a21.68,21.68,0,0,1,8.79-2.37m0-1a22.64,22.64,0,0,0-9.2,2.46,10.89,10.89,0,0,1-4.35.63c-1.95,0-4,0-5.89,1.23a1,1,0,0,0-.47.84A3,3,0,0,0,47,126.12a13,13,0,0,0,1.4.07A27.47,27.47,0,0,0,57,124.38a27,27,0,0,1,7.43-1.68h.68c1.34,0,1.56.26,1.59.31s.07.72-.59,1.9A11.51,11.51,0,0,0,65,133.75a11.91,11.91,0,0,0,6,7.06,77.62,77.62,0,0,0,10.44,4.46,5.5,5.5,0,0,1,.89.51,4.63,4.63,0,0,0,2.4,1c1.18,0,2.07-.84,2.64-2.5a1,1,0,0,0-.23-1c-2-2.12-4.62-3-7.12-3.8-.52-.17-1-.34-1.54-.52-4.82-1.72-7.82-4-8.67-6.74-.65-2.07-.07-4.42,1.74-7l.22-.32c1.27-1.8,1.75-2.48,1.53-3.32s-.83-1-1.58-1.38c-.31-.15-.67-.32-1.1-.56a13.59,13.59,0,0,0-6.7-1.78Z"/><path class="cls-8" d="M129.13,121.27a8.46,8.46,0,0,1-4.27-1.25c-3.79-2.25-5.19-6-4-10.86,1.82-7.73,7.08-12.8,16.56-16,2.17-.72,5.74-2.46,5.33-6-.38-3.22-3.38-3.68-6.27-4.13l-1-.16a13.42,13.42,0,0,0-2.28-.2,14.86,14.86,0,0,0-6,1.34,10.15,10.15,0,0,1-3.94,1,4.44,4.44,0,0,1-3.47-1.61c-2.55-2.9-1.64-6.52-.74-9,2.48-6.76,8-6.82,13.37-6.88.71,0,1.41,0,2.11,0,.51,0,1,0,1.55,0,11.28,0,20.28,4.77,22.91,12.15,3.34,9.33-1,20-10.26,25.35l-.27.16c-5.6,3.23-10.88,6.28-13.8,12.55A5.82,5.82,0,0,1,129.13,121.27Zm4.1-42.36a23.35,23.35,0,0,1,5.25.62c3.53.82,7.24,2.25,8,6.71.7,3.87-1.22,7.26-5.27,9.3-1.16.59-2.37,1.13-3.53,1.66-5.21,2.36-10.13,4.59-12.38,10.49-1.75,4.59-1.25,7.3,1.67,9.07a3.64,3.64,0,0,0,1.91.59,4,4,0,0,0,3.59-3.09c1.83-5.78,6.48-8.25,11-10.63l.75-.4c9.78-5.21,14.37-14.47,10.9-22-3.72-8.11-11.1-9.78-21-9.78a23.05,23.05,0,0,1-2.7.1c-2.62,0-5.34,0-7.45,2.12a6.6,6.6,0,0,0-1.43,7.18c.07.19.19.36.63.36a3.58,3.58,0,0,0,1.35-.36A20.91,20.91,0,0,1,133.23,78.91Z"/><path class="cls-8" d="M136,68.06c10.95,0,19.88,4.66,22.44,11.81,3.21,9-.86,19.46-10,24.76-5.74,3.31-11.24,6.41-14.27,12.93a5.34,5.34,0,0,1-5,3.21,7.93,7.93,0,0,1-4-1.18c-3.92-2.34-4.78-6.19-3.81-10.32,2-8.63,8.28-13,16.23-15.6,3-1,6.07-3,5.66-6.51-.47-4-4.52-4.2-7.67-4.73a13.44,13.44,0,0,0-2.36-.21,15.3,15.3,0,0,0-6.22,1.38,9.63,9.63,0,0,1-3.74,1,4,4,0,0,1-3.1-1.44c-2.24-2.55-1.67-5.68-.64-8.49,2.68-7.3,9.13-6.39,15-6.59l1.54,0M123.16,81.69a4,4,0,0,0,1.55-.4,20.34,20.34,0,0,1,8.52-1.88,22.76,22.76,0,0,1,5.14.61c3.58.83,6.93,2.24,7.66,6.31s-1.69,7.09-5,8.76c-6.21,3.14-13.29,5-16.14,12.42-1.4,3.66-2,7.36,1.87,9.68a4.12,4.12,0,0,0,2.17.66,4.54,4.54,0,0,0,4.07-3.44c1.86-5.89,6.69-8.18,11.48-10.74C154.27,98.45,159.25,89,155.6,81c-4.07-8.86-12.4-10.07-21.49-10.07-3.29.38-7.46-.68-10.51,2.36A7.1,7.1,0,0,0,122.06,81a1,1,0,0,0,1.1.69M136,67.06h0c-.52,0-1.05,0-1.58,0-.68,0-1.38,0-2.09,0-5.26.06-11.23.13-13.83,7.21-1,2.59-1.89,6.39.83,9.49a5,5,0,0,0,3.85,1.78,10.63,10.63,0,0,0,4.14-1.09,14.42,14.42,0,0,1,5.82-1.3,13.4,13.4,0,0,1,2.19.19l1,.16c3.33.52,5.54,1.06,5.85,3.7.37,3.17-3,4.77-5,5.45-9.67,3.23-15,8.41-16.9,16.32-1.17,5,.35,9.07,4.28,11.41a8.94,8.94,0,0,0,4.53,1.32,6.33,6.33,0,0,0,5.93-3.79c2.85-6.13,8.06-9.14,13.59-12.33l.27-.16c9.5-5.48,13.9-16.39,10.49-25.95C156.7,72,147.52,67.06,136,67.06ZM123.16,80.69a.44.44,0,0,1-.17,0A6.13,6.13,0,0,1,124.31,74c2-2,4.46-2,7.1-2a25.19,25.19,0,0,0,2.76-.1c9.71,0,16.91,1.63,20.52,9.49,3.35,7.3-1.14,16.28-10.69,21.37l-.74.39c-4.59,2.44-9.34,4.95-11.23,10.93a3.58,3.58,0,0,1-3.11,2.74,3.14,3.14,0,0,1-1.65-.51c-2.71-1.64-3.13-4.1-1.46-8.47,2.18-5.71,7-7.9,12.11-10.21,1.17-.53,2.38-1.08,3.55-1.67,4.26-2.15,6.28-5.74,5.54-9.84-.86-4.77-4.95-6.3-8.41-7.1a23.92,23.92,0,0,0-5.37-.64,21.26,21.26,0,0,0-8.93,2,3,3,0,0,1-1.14.31Z"/><path class="cls-8" d="M111.89,184c-6,0-10.68-3.64-11.54-9.05-.34-2.18-.89-4.42-1.42-6.58-1.38-5.62-2.81-11.43-1-17.24,1.27-4,.41-7.8-.5-11.77s-1.78-7.78-.57-11.92c1.91-6.52,3.85-14.13,2.71-22a48.18,48.18,0,0,1-.08-9.75c.13-2.12.27-4.32.19-6.42-.2-5.45-1.54-11-2.84-16.31-.57-2.34-1.15-4.76-1.64-7.15-.77-3.77-.11-7.4.69-11.09a28,28,0,0,0-.06-9.08C95.41,42,95,38.2,96.3,34.42a37.35,37.35,0,0,1,4.39-8.93.53.53,0,0,1,.25-.19l.31-.37a6.65,6.65,0,0,1,1.07-1.12c.74-.66,1.38-1.24,1.3-2.28l0-.57.08-.87a.4.4,0,0,1,0-.15l.31-.75c.73-4.93,3.17-8,7.23-9.19a18.52,18.52,0,0,1,5.12-.79,11.37,11.37,0,0,1,9,4.2,3.47,3.47,0,0,0,2.75,1.43,9.31,9.31,0,0,0,2.67-.58c.47-.15.94-.3,1.41-.42a12.51,12.51,0,0,1,3-.37c5,0,8.34,3.46,11.53,6.8.36.39.72.77,1.09,1.15,4.12,4.24,5.65,9.63,7.13,14.85a63.74,63.74,0,0,0,2.53,7.67,22.47,22.47,0,0,0,4,5.61c2.27,2.59,4.62,5.27,4.64,8.7,0,5.88,3.22,9.54,6.59,13.4a31,31,0,0,1,5.4,7.66,10.41,10.41,0,0,1-.15,8.36c-1.45,3.46-.29,6.72.82,9.86.26.73.52,1.46.74,2.19,2.88,9.36,1.33,16.5-4.88,22.47-1.42,1.36-1.43,3.54-1.2,5.12,1.54,10.29-1.67,15.95-10.41,18.35-1.8.49-2.69,2.15-3.63,3.91-1.06,2-2.15,4-4.63,4.53-3.91.82-5.05,3.65-6.25,6.64a15.17,15.17,0,0,1-2.78,5c-2.88,3-6.52,4.81-10,6.57a44.89,44.89,0,0,0-7.71,4.53c-3.82,3-8,6-13.37,7A14.82,14.82,0,0,1,111.89,184Zm-9.65-32c0,.27-.27,2-.33,2.89v2.78l.38,3.14.16,1.55.25,1,.2,1.1.25.85.2,1,.12.45c.08.34.18.67.27,1a13.36,13.36,0,0,1,.52,2.29c.62,6,3.39,9.52,7.4,9.52a8.23,8.23,0,0,0,2.87-.55c5.22-1.92,9.91-5,14.43-8.06a88.63,88.63,0,0,1,11.66-6.92c2.39-1.11,3.12-3.33,3.88-5.69a11.62,11.62,0,0,1,2.7-5.16,15.43,15.43,0,0,1,3.87-2.42c2.28-1.12,4.43-2.19,5.34-4.9a7.58,7.58,0,0,1,5.39-4.78c6.07-1.6,8.31-5.1,7.25-11.34-.56-3.3-.8-6.68,1.25-9,6.28-7.18,7.7-13.54,4.6-20.63a20.79,20.79,0,0,1-1.06-3.48l-.15-.6-.16.2a21.48,21.48,0,0,0-1.66,2.29c-.59,1-1.25,2.09-2.43,2.09a2.43,2.43,0,0,1-1.34-.46c-1.91-1.22-.92-2.78-.26-3.81l.21-.34c.28-.47.58-.91.88-1.36s.49-.74.73-1.11q.57-.9,1.17-1.8c2.79-4.23,5.43-8.22,1.9-13.24a23.84,23.84,0,0,0-3.31-3.52,19.07,19.07,0,0,1-4-4.65,46.77,46.77,0,0,1-3.14-8.15c-1.39-4.41-2.83-9-6.39-12.62-3.3-3.38-4.38-7.88-5.42-12.23-.85-3.53-1.72-7.19-3.79-10.21l-.18-.13a.53.53,0,0,1-.13-.13l-.88-1.37-.23-.41-.31-.32c-.23-.25-.47-.51-.73-.75-.57-.54-1.13-1.12-1.7-1.71-2.16-2.24-4.21-4.37-7.21-4.37a7.83,7.83,0,0,0-2.48.44,13.27,13.27,0,0,1-4.29.8c-2.85,0-5.26-1.25-7.59-3.94a5.46,5.46,0,0,0-4.24-1.73A8.84,8.84,0,0,0,109.05,18a9.44,9.44,0,0,0-.76,3.22c-.2,1.78-.42,3.62-2,5.14A19.9,19.9,0,0,0,100.05,40a34.86,34.86,0,0,0,.38,6.29,26.55,26.55,0,0,1,.09,8.72l0,.16c-.7,3.41-1.37,6.62-.81,10.09.48,2.93,1.2,5.87,1.9,8.73,1.55,6.29,3.15,12.81,2.21,19.64a47.05,47.05,0,0,0,.23,10.87c.45,4.52.92,9.2-.31,13.84a.19.19,0,0,1,0,.07c-.13.46-1.37,5.89-1.45,6.34a.35.35,0,0,1,0,.11c-.09.32-1.36,7.3-.87,11.9a18.16,18.16,0,0,0,1.12,3.5,15.56,15.56,0,0,1,.87,2.6c.45,3.06-.51,6.85-.92,8.46-.08.3-.13.51-.15.59A.3.3,0,0,1,102.24,152.05Z"/><path class="cls-8" d="M116.43,9.71a10.8,10.8,0,0,1,8.65,4,4,4,0,0,0,3.14,1.6,18.53,18.53,0,0,0,4.19-1,12,12,0,0,1,2.86-.36c5.4,0,8.72,4.14,12.26,7.8,6.05,6.22,6.37,14.91,9.56,22.37,2.19,5.14,8.57,8.61,8.6,14.11.07,9.81,8.78,13.82,12,21.26a10,10,0,0,1-.15,8c-1.87,4.46.34,8.5,1.54,12.38,2.6,8.42,1.81,15.67-4.75,22-1.47,1.41-1.63,3.62-1.34,5.56,1.28,8.59-.49,15.16-10.05,17.78-4.12,1.13-3.85,7.51-8.23,8.44-6.58,1.39-5.83,8.14-9.29,11.74-5,5.16-12.17,6.73-17.7,11.05-3.93,3.07-8,5.92-13.15,6.87a14.77,14.77,0,0,1-2.71.25c-5.44,0-10.16-3.08-11-8.63-1.24-7.81-4.91-15.69-2.43-23.59,2.59-8.23-3.45-15.57-1.07-23.7,2.1-7.17,3.84-14.53,2.72-22.21-.78-5.37.31-10.84.12-16.11-.29-7.89-2.89-15.69-4.49-23.54-.75-3.68-.1-7.28.69-10.88,1.45-6.72-2-13.52.38-20.27a36.82,36.82,0,0,1,4.33-8.81l.12,0,.42-.52c.86-1.22,2.61-1.86,2.48-3.74,0-.46.08-.91.11-1.37.12-.26.23-.54.34-.81.61-4.25,2.54-7.6,6.88-8.84a18.07,18.07,0,0,1,5-.77m-13.2,108.55h0s-1.41,6-1.48,6.45c-.1.23-1.4,7.46-.9,12.14.17,1.66,1.8,4.9,2,6.12.54,3.62-1,8.42-1.06,8.93h0s-.29,2-.35,3,0,1.87,0,2.81.26,2.13.38,3.2l.17,1.54c.08.37.17.74.25,1.1l.2,1.08.26.9.19,1,.13.48a26.12,26.12,0,0,1,.77,3.23c.66,6.27,3.68,10,7.9,10a8.82,8.82,0,0,0,3-.58c9.55-3.51,17-10.76,26.13-15,4.56-2.11,3.5-7.9,6.71-10.93,2.91-2.74,7.79-2.93,9.34-7.53a7.12,7.12,0,0,1,5.05-4.46c6.3-1.66,8.7-5.46,7.61-11.9-.48-2.88-.87-6.32,1.13-8.6,5.52-6.3,8.29-12.93,4.68-21.16a39.19,39.19,0,0,1-1.43-5c-.83,1.11-1.77,2.16-2.48,3.34-.55.92-1.1,1.85-2,1.85a2,2,0,0,1-1.07-.38c-1.66-1.06-.59-2.34.11-3.47.51-.84,1.08-1.64,1.6-2.47,3-4.81,7.31-9.54,3.06-15.59-2.08-3-5.64-5-7.3-8.12-3.6-6.72-3.75-14.86-9.61-20.88S151.76,33.72,147,26.89l-.25-.18-.88-1.37-.25-.44c-.36-.38-.71-.77-1.09-1.13-2.81-2.64-5.23-6.22-9.26-6.22a8.28,8.28,0,0,0-2.64.47,13,13,0,0,1-4.13.77c-2.65,0-5-1.15-7.21-3.77a5.94,5.94,0,0,0-4.62-1.9c-3.17,0-6.67,1.82-8.08,4.6s-.2,5.88-2.7,8.23A20.33,20.33,0,0,0,99.55,40c-.31,5,1.52,9.92.48,15-.71,3.43-1.43,6.81-.84,10.43,1.52,9.38,5.45,18.4,4.11,28.22-1.12,8.2,2.1,16.44-.07,24.66M116.43,8.71h0a19.09,19.09,0,0,0-5.25.81c-4.26,1.22-6.81,4.43-7.58,9.54l-.29.69a1.09,1.09,0,0,0-.07.3l-.11,1.27v.1a.76.76,0,0,0,0,.15c.06.76-.35,1.16-1.14,1.87a7.68,7.68,0,0,0-1.14,1.2l-.21.25a1.07,1.07,0,0,0-.35.32,37.6,37.6,0,0,0-4.45,9c-1.36,3.88-.92,7.74-.49,11.47.36,3.09.7,6,.07,8.91-.81,3.75-1.48,7.43-.69,11.3.49,2.4,1.08,4.82,1.65,7.17,1.29,5.31,2.62,10.81,2.82,16.21.07,2.08,0,4.16-.19,6.37a47.75,47.75,0,0,0,.09,9.85c1.12,7.76-.8,15.31-2.7,21.77-1.25,4.27-.33,8.29.56,12.18s1.74,7.6.52,11.51c-1.87,5.94-.42,11.82,1,17.51.53,2.15,1.08,4.38,1.42,6.54.9,5.67,5.73,9.47,12,9.47a16.61,16.61,0,0,0,2.89-.26c5.48-1,9.72-4,13.59-7.07a44.73,44.73,0,0,1,7.62-4.47c3.56-1.78,7.24-3.63,10.18-6.68a15.37,15.37,0,0,0,2.88-5.12c1.21-3,2.25-5.56,5.9-6.33,2.7-.57,3.9-2.81,5-4.79.93-1.73,1.73-3.22,3.33-3.66,11.7-3.21,11.75-12.33,10.77-18.9-.22-1.47-.22-3.48,1-4.69,6.37-6.12,8-13.42,5-23-.23-.74-.5-1.48-.75-2.21-1.13-3.19-2.2-6.21-.83-9.5a11.06,11.06,0,0,0,.15-8.75,31.29,31.29,0,0,0-5.48-7.78c-3.31-3.8-6.43-7.39-6.47-13.08,0-3.62-2.43-6.37-4.77-9A22.05,22.05,0,0,1,158,43.75a62.74,62.74,0,0,1-2.51-7.61c-1.5-5.28-3-10.74-7.25-15.07l-1.09-1.14c-3.26-3.42-6.62-7-11.89-7a13,13,0,0,0-3.09.39c-.49.12-1,.27-1.44.42a8.6,8.6,0,0,1-2.52.56,2.93,2.93,0,0,1-2.37-1.25,11.84,11.84,0,0,0-9.42-4.38Zm-12.27,109.9a.19.19,0,0,0,0-.1c1.26-4.73.79-9.45.33-14a46.06,46.06,0,0,1-.23-10.75c.94-6.93-.67-13.49-2.22-19.83-.7-2.84-1.42-5.78-1.89-8.69-.55-3.38.1-6.55.8-9.91l0-.16a27,27,0,0,0-.08-8.88,33.63,33.63,0,0,1-.38-6.2,19.36,19.36,0,0,1,6-13.39c1.76-1.65,2-3.67,2.2-5.45a8.92,8.92,0,0,1,.71-3.05,8.41,8.41,0,0,1,7.19-4.06,5,5,0,0,1,3.86,1.56c2.43,2.8,5,4.11,8,4.11A14,14,0,0,0,133,19a7.13,7.13,0,0,1,2.32-.42c2.79,0,4.76,2.05,6.85,4.22.56.58,1.13,1.17,1.72,1.73.24.22.47.46.71.72l.26.28.07.12.12.22,0,0,.88,1.37a1.27,1.27,0,0,0,.25.27l.11.08c2,2.93,2.84,6.51,3.67,10,1.06,4.41,2.16,9,5.55,12.46s4.84,7.87,6.27,12.42A47.23,47.23,0,0,0,165,70.68a19,19,0,0,0,4.12,4.78,23.12,23.12,0,0,1,3.24,3.45c3.34,4.74.91,8.42-1.91,12.67-.4.61-.8,1.21-1.17,1.81l-.72,1.1c-.3.44-.61.9-.9,1.37-.06.11-.14.23-.21.34-.62,1-1.91,3,.42,4.5a3,3,0,0,0,1.61.54c1.46,0,2.23-1.29,2.85-2.32a16.41,16.41,0,0,1,1.16-1.65,19.35,19.35,0,0,0,1,3.17c3,6.89,1.62,13.09-4.52,20.1-2.18,2.48-1.94,6-1.36,9.42,1,5.94-1.12,9.26-6.89,10.77a8.09,8.09,0,0,0-5.73,5.11c-.85,2.52-2.82,3.49-5.09,4.62a15.79,15.79,0,0,0-4,2.5,12,12,0,0,0-2.83,5.36c-.77,2.35-1.43,4.38-3.62,5.39a88.44,88.44,0,0,0-11.73,7c-4.5,3-9.15,6.1-14.32,8a7.76,7.76,0,0,1-2.7.52c-3.73,0-6.31-3.39-6.91-9.07a13.08,13.08,0,0,0-.53-2.38c-.09-.33-.18-.65-.26-1l-.06-.23-.07-.24-.18-1s0-.06,0-.09l-.25-.85-.19-1,0-.21-.2-.88L102.8,161v-.15l-.38-3.15v-2.72c0-.85.25-2.42.31-2.76l0-.17c0-.07.06-.26.13-.52.42-1.65,1.4-5.5.93-8.66a14.59,14.59,0,0,0-.89-2.71,17.67,17.67,0,0,1-1.09-3.38c-.46-4.37.73-11.17.86-11.73a.57.57,0,0,0,0-.14c.06-.37,1.25-5.62,1.42-6.26Z"/><path class="cls-9" d="M121.29,119.68a9.07,9.07,0,0,1,8.93,9.72c-.33,5.8-4.47,7.29-9.29,7.12-4.34-.16-8.12-1.72-8.15-7C112.76,123.86,116.58,119.59,121.29,119.68Zm-.38,2.73c-3.91.54-5,3.72-5.21,7.05-.21,3.72,3.06,4.16,5.67,4.25,2.89.09,6.06-.71,5.94-4.48S125.42,122.75,120.91,122.41Z"/></svg>