<?xml version="1.0" encoding="UTF-8"?>
<svg version="1.1" viewBox="0 0 192 192" xmlns="http://www.w3.org/2000/svg">
 <rect class="a" x="20" y="20" width="152" height="152" rx="10" style="fill:#bd9aff"/>
 <path d="m90.774 64.365a26.867 26.867 0 0 0-26.494 22.589 15.862 15.862 0 0 0-11.678 15.282 15.862 15.862 0 0 0 15.862 15.862 15.862 15.862 0 0 0 3.2432-0.37616 11.512 11.512 0 0 0 9.6588 5.2537 11.512 11.512 0 0 0 3.9303-0.72269 20.63 20.63 0 0 0 13.852 5.3807 20.63 20.63 0 0 0 16.053-7.737 19.62 19.62 0 0 0 4.577 0.58775 19.62 19.62 0 0 0 19.62-19.62 19.62 19.62 0 0 0-16.657-19.393 7.7193 7.7193 0 0 0-7.5021-5.9078 7.7193 7.7193 0 0 0-2.375 0.38717 26.867 26.867 0 0 0-22.09-11.586z" style="fill:#fff;stroke-linecap:round;stroke-linejoin:round;stroke-width:2.5589"/>
 <ellipse cx="87.201" cy="94.149" rx="4.3487" ry="5.565" style="fill:#56595b;stroke-linecap:round;stroke-linejoin:round;stroke-width:6.3842"/>
 <ellipse cx="88.216" cy="93.817" rx="1.7115" ry="2.6015" style="fill:#fff;stroke-linecap:round;stroke-linejoin:round;stroke-width:2.7384"/>
 <ellipse transform="scale(-1,1)" cx="-105.11" cy="94.149" rx="4.3487" ry="5.565" style="fill:#56595b;stroke-linecap:round;stroke-linejoin:round;stroke-width:6.3842"/>
 <ellipse transform="scale(-1,1)" cx="-104.1" cy="93.817" rx="1.7115" ry="2.6015" style="fill:#fff;stroke-linecap:round;stroke-linejoin:round;stroke-width:2.7384"/>
 <path d="m89.815 103.86c1.3504 2.0655 3.4446 2.478 6.2424 1.3269 2.3898 0.92908 4.6593 1.2971 6.3329-1.1158" style="fill:none;stroke-linecap:round;stroke-linejoin:round;stroke-width:2.0471;stroke:#56595b"/>
</svg>
