<?xml version="1.0" encoding="UTF-8"?>
<svg version="1.1" viewBox="0 0 192 192" xml:space="preserve" xmlns="http://www.w3.org/2000/svg"><circle class="a" cx="96" cy="96" r="88" fill="#728dbe"/><circle cx="66.401" cy="86.196" r="3.5219" fill="#fff" stroke-linecap="round" stroke-linejoin="round" stroke-width="5.1361"/><circle cx="77.025" cy="81.808" r="3.5219" fill="#fff" stroke-linecap="round" stroke-linejoin="round" stroke-width="5.1361"/><circle cx="65.016" cy="73.494" r="3.5219" fill="#fff" stroke-linecap="round" stroke-linejoin="round" stroke-width="5.1361"/><circle cx="77.487" cy="70.723" r="3.5219" fill="#fff" stroke-linecap="round" stroke-linejoin="round" stroke-width="5.1361"/><circle cx="88.688" cy="73.263" r="3.5219" fill="#fff" stroke-linecap="round" stroke-linejoin="round" stroke-width="5.1361"/><circle cx="84.069" cy="59.637" r="3.5219" fill="#fff" stroke-linecap="round" stroke-linejoin="round" stroke-width="5.1361"/><circle cx="95.905" cy="64.429" r="3.5219" fill="#fff" stroke-linecap="round" stroke-linejoin="round" stroke-width="5.1361"/><circle cx="107.74" cy="59.637" r="3.5219" fill="#fff" stroke-linecap="round" stroke-linejoin="round" stroke-width="5.1361"/><circle cx="103.18" cy="73.321" r="3.5219" fill="#fff" stroke-linecap="round" stroke-linejoin="round" stroke-width="5.1361"/><circle cx="114.32" cy="70.665" r="3.5219" fill="#fff" stroke-linecap="round" stroke-linejoin="round" stroke-width="5.1361"/><circle cx="114.9" cy="82.212" r="3.5219" fill="#fff" stroke-linecap="round" stroke-linejoin="round" stroke-width="5.1361"/><circle cx="125.58" cy="86.311" r="3.5219" fill="#fff" stroke-linecap="round" stroke-linejoin="round" stroke-width="5.1361"/><circle cx="127.08" cy="73.436" r="3.5219" fill="#fff" stroke-linecap="round" stroke-linejoin="round" stroke-width="5.1361"/><circle transform="scale(1,-1)" cx="66.401" cy="-105.8" r="3.5219" fill="#fff" stroke-linecap="round" stroke-linejoin="round" stroke-width="5.1361"/><circle transform="scale(1,-1)" cx="77.025" cy="-110.19" r="3.5219" fill="#fff" stroke-linecap="round" stroke-linejoin="round" stroke-width="5.1361"/><circle transform="scale(1,-1)" cx="65.016" cy="-118.51" r="3.5219" fill="#fff" stroke-linecap="round" stroke-linejoin="round" stroke-width="5.1361"/><circle transform="scale(1,-1)" cx="77.487" cy="-121.28" r="3.5219" fill="#fff" stroke-linecap="round" stroke-linejoin="round" stroke-width="5.1361"/><circle transform="scale(1,-1)" cx="88.688" cy="-118.74" r="3.5219" fill="#fff" stroke-linecap="round" stroke-linejoin="round" stroke-width="5.1361"/><circle transform="scale(1,-1)" cx="84.069" cy="-132.36" r="3.5219" fill="#fff" stroke-linecap="round" stroke-linejoin="round" stroke-width="5.1361"/><circle transform="scale(1,-1)" cx="95.905" cy="-127.57" r="3.5219" fill="#fff" stroke-linecap="round" stroke-linejoin="round" stroke-width="5.1361"/><circle transform="scale(1,-1)" cx="107.74" cy="-132.36" r="3.5219" fill="#fff" stroke-linecap="round" stroke-linejoin="round" stroke-width="5.1361"/><circle transform="scale(1,-1)" cx="103.18" cy="-118.68" r="3.5219" fill="#fff" stroke-linecap="round" stroke-linejoin="round" stroke-width="5.1361"/><circle transform="scale(1,-1)" cx="114.32" cy="-121.34" r="3.5219" fill="#fff" stroke-linecap="round" stroke-linejoin="round" stroke-width="5.1361"/><circle transform="scale(1,-1)" cx="114.9" cy="-109.79" r="3.5219" fill="#fff" stroke-linecap="round" stroke-linejoin="round" stroke-width="5.1361"/><circle transform="scale(1,-1)" cx="125.58" cy="-105.69" r="3.5219" fill="#fff" stroke-linecap="round" stroke-linejoin="round" stroke-width="5.1361"/><circle transform="scale(1,-1)" cx="127.08" cy="-118.56" r="3.5219" fill="#fff" stroke-linecap="round" stroke-linejoin="round" stroke-width="5.1361"/><circle transform="scale(1,-1)" cx="57.46" cy="-96.006" r="3.5219" fill="#fff" stroke-linecap="round" stroke-linejoin="round" stroke-width="5.1361"/><circle transform="scale(1,-1)" cx="72.484" cy="-96.006" r="3.5219" fill="#fff" stroke-linecap="round" stroke-linejoin="round" stroke-width="5.1361"/><circle transform="scale(-1)" cx="-134.54" cy="-96.006" r="3.5219" fill="#fff" stroke-linecap="round" stroke-linejoin="round" stroke-width="5.1361"/><circle transform="scale(-1)" cx="-119.52" cy="-96.006" r="3.5219" fill="#fff" stroke-linecap="round" stroke-linejoin="round" stroke-width="5.1361"/></svg>
