<svg id="Camada_1" data-name="Camada 1" xmlns="http://www.w3.org/2000/svg" viewBox="0 0 192 192"><defs><style>.cls-1{fill:#83868c;}.cls-2{fill:#a0a5af;}.cls-3{fill:#b1b5bd;}.cls-4{fill:#56595b;}.cls-5{fill:#979797;}.cls-6{fill:#ececec;}.cls-7{fill:#d8d8d8;}.cls-8{fill:#d2d2d2;}</style></defs><polygon class="cls-1" points="117.3 57.09 110.55 172.12 85.25 158.16 85.25 158.15 85.56 139.42 52.34 122.96 52.34 140 36.91 131.48 32.32 36.94 117.3 57.09"/><polygon class="cls-2" points="182.69 36.94 168.96 130.13 155.38 139.9 156.35 123.33 132.23 139.16 131.27 157.22 110.55 172.12 117.3 57.09 182.69 36.94"/><polygon class="cls-3" points="32.32 36.94 101.54 23.88 182.69 36.94 117.3 57.09 32.32 36.94"/><polygon class="cls-4" points="52.34 140 68.05 130.74 52.34 122.96 52.34 140"/><polygon class="cls-4" points="130.13 100.31 133.28 65.19 143.53 67.78 140.49 104.53 130.13 100.31"/><polygon class="cls-1" points="152.87 57.76 133.28 65.19 143.53 67.78 164.01 60.13 152.87 57.76"/><polygon class="cls-5" points="140.49 104.53 143.53 67.78 164.01 60.13 159.62 93.55 140.49 104.53"/><polygon class="cls-4" points="86.07 62.38 86.07 74.81 95.47 77.91 95.47 65.47 86.07 62.38"/><path class="cls-4" d="M46.05,61.87c0-.22-.33-10.58-.33-10.58l7.48,2.14V64.74Z"/><polygon class="cls-4" points="139.37 134.48 155.38 139.9 156.36 123.33 139.37 134.48"/><polygon class="cls-1" points="52.34 158.44 43.52 163.56 41.72 121.3 50.79 117 52.34 158.44"/><polygon class="cls-6" points="19.55 119.5 54.27 105.37 54.27 95.07 26.86 105.09 26.86 83.82 16.11 87.14 19.55 119.5"/><polygon class="cls-2" points="26.53 112.97 41.72 121.3 77.46 104.53 61.45 99.5 26.53 112.97"/><polygon class="cls-5" points="77.46 104.53 77.46 112.18 51.11 125.57 50.79 117 77.46 104.53"/><polygon class="cls-5" points="49.46 136.35 48.59 101.49 57.79 105.37 58.38 141.69 49.46 136.35"/><polygon class="cls-6" points="58.38 141.69 95.47 123.33 95.47 111.53 58.22 131.68 58.38 141.69"/><polygon class="cls-6" points="57.79 105.37 58.22 131.68 67.59 126.61 67.59 101.07 57.79 105.37"/><polygon class="cls-7" points="48.59 101.49 57.79 105.37 67.59 101.07 58.38 97.46 48.59 101.49"/><polygon class="cls-7" points="67.59 116.85 85.56 107.4 95.47 111.53 67.59 126.61 67.59 116.85"/><polygon class="cls-5" points="9.31 83.82 16.11 87.14 19.55 119.5 12.85 115.05 9.31 83.82"/><polygon class="cls-8" points="9.31 83.82 19.55 80.34 26.86 83.82 16.11 87.14 9.31 83.82"/><polygon class="cls-7" points="26.86 100.48 47.29 91.98 54.27 95.07 26.86 105.09 26.86 100.48"/><polygon class="cls-4" points="26.53 112.97 29.45 153.6 43.52 163.56 41.72 121.3 26.53 112.97"/></svg>