<?xml version="1.0" encoding="UTF-8"?>
<svg version="1.1" viewBox="0 0 192 192" xml:space="preserve" xmlns="http://www.w3.org/2000/svg">
	 <circle class="a" cx="96" cy="96" r="88" fill="#71a372"/><g transform="matrix(1.4976 0 0 1.4976 15.131 13.633)" stroke-width="1.2"><path d="m41.98 38.01-11.98 6.01v23.93l12 6.04 11.99 6.01 12.01-6.01 12-6.02v-23.93l-11.99-6.04c-6.6-3.3-12.02-6.01-12.04-6-0.02 0-5.41 2.71-11.99 6.01zm10.12 9.19 1.92 0.96 1.91-0.97 1.92-0.96v-2.33c0-1.28-0.07-2.36 0-2.39 0.16-0.07 8.58 4.22 8.58 4.39-0.02 0.07-2.81 1.54-6.2 3.28l-6.19 3.14-5.93-2.99c-3.26-1.64-6.12-3.1-6.35-3.23l-0.43-0.29 4.39-2.18 4.46-2.21v4.82zm-8.17 7.48 6.24 3.17v12.76l-4.4-2.21c-2.44-1.22-4.4-2.24-4.4-2.28 0-0.06 1.12-0.64 2.48-1.31l2.48-1.21-0.03-3.48-1.95-0.98-1.99-1.01-2.35 1.19c-1.3 0.64-2.38 1.18-2.41 1.18-0.05 0-0.07-2.03-0.07-4.49s-0.06-4.49 0-4.49c0.04 0 2.99 1.42 6.42 3.17zm26.46 1.37-0.11 4.41-2.31-1.15-2.33-1.17-1.99 0.99-1.96 0.99 0.02 1.51c0.01 0.82-0.02 1.61 0.01 1.78 0.06 0.19 0.7 0.58 1.88 1.18 0.98 0.49 2 1.07 2.27 1.3l0.47 0.4-4.28 2.18-4.28 2.17 0.01-12.83 6.31-3.11c3.48-1.74 6.34-3.12 6.34-3.11 0.04 0.02 0.02 2.03-0.04 4.48z" fill-opacity=".04"/><path d="m41.98 36.01-11.98 6.01v23.93l12 6.04 11.99 6.01 12.01-6.01 12-6.02v-23.93l-11.99-6.04c-6.6-3.3-12.02-6.01-12.04-6-0.02 0-5.41 2.71-11.99 6.01zm10.12 9.19 1.92 0.96 1.91-0.97 1.92-0.96v-2.33c0-1.28 0.04-2.36 0.11-2.39 0.16-0.07 8.47 4.22 8.47 4.39-0.02 0.07-2.81 1.54-6.2 3.28l-6.19 3.14-5.93-2.99c-3.26-1.64-6.12-3.1-6.35-3.23l-0.43-0.29 4.39-2.18 4.39-2.21 0.05 2.41 0.02 2.41zm-8.17 7.48 6.24 3.17v12.76l-4.4-2.21c-2.44-1.22-4.4-2.24-4.4-2.28 0-0.06 1.12-0.64 2.48-1.31l2.48-1.21 0.01-3.48-1.99-0.98-1.99-1.01-2.35 1.19c-1.3 0.64-2.38 1.18-2.41 1.18-0.05 0-0.07-2.03-0.07-4.49s0.05-4.49 0.11-4.49c0.04 0 2.88 1.42 6.31 3.17zm26.46 1.37-0.11 4.41-2.31-1.15-2.33-1.17-1.99 0.99-2.01 0.99v1.51c0 0.82 0.05 1.61 0.08 1.78 0.06 0.19 0.7 0.58 1.88 1.18 0.98 0.49 2 1.07 2.27 1.3l0.47 0.4-4.28 2.18-4.28 2.17 0.01-12.83 6.31-3.11c3.48-1.74 6.34-3.12 6.34-3.11 0.04 0.02 0.02 2.03-0.04 4.48z" fill="#f9fbfb"/></g></svg>
