<svg width="192" height="192" viewBox="0 0 192 192" fill="none" xmlns="http://www.w3.org/2000/svg">
<mask id="mask0_208_12" style="mask-type:luminance" maskUnits="userSpaceOnUse" x="20" y="20" width="152" height="152">
<path d="M162.065 20H29.9346C24.4479 20 20 24.4479 20 29.9346V162.065C20 167.552 24.4479 172 29.9346 172H162.065C167.552 172 172 167.552 172 162.065V29.9346C172 24.4479 167.552 20 162.065 20Z" fill="white"/>
</mask>
<g mask="url(#mask0_208_12)">
<path d="M162.065 20H29.9346C24.4479 20 20 24.4479 20 29.9346V162.065C20 167.552 24.4479 172 29.9346 172H162.065C167.552 172 172 167.552 172 162.065V29.9346C172 24.4479 167.552 20 162.065 20Z" fill="#56595B"/>
</g>
<path d="M104.808 56H87.6364V76.3084L74 96.1215L112.889 109L124 104.047L104.808 76.3084V56Z" fill="white"/>
<path d="M56.5 118.5L66 106L111 122L127.5 114L131.5 118.5L124.5 135H65L56.5 118.5Z" fill="#9ABEFF"/>
<mask id="mask1_208_12" style="mask-type:alpha" maskUnits="userSpaceOnUse" x="56" y="106" width="76" height="29">
<path d="M56.5 118.5L66 106L111 122L127.5 114L131.5 118.5L124.5 135H65L56.5 118.5Z" fill="#9ABEFF"/>
</mask>
<g mask="url(#mask1_208_12)">
<path d="M77.4399 122L60 125L65.9399 136.5H125.44L130.94 123.5L112.44 129L77.4399 122Z" fill="black" fill-opacity="0.25"/>
</g>
</svg>
