<?xml version="1.0" encoding="UTF-8" standalone="no"?>
<svg
   width="192"
   height="192"
   version="1.1"
   id="svg1"
   sodipodi:docname="declaree.svg"
   xml:space="preserve"
   inkscape:version="1.3 (0e150ed6c4, 2023-07-21)"
   inkscape:export-filename="asn_bank.png"
   inkscape:export-xdpi="96"
   inkscape:export-ydpi="96"
   xmlns:inkscape="http://www.inkscape.org/namespaces/inkscape"
   xmlns:sodipodi="http://sodipodi.sourceforge.net/DTD/sodipodi-0.dtd"
   xmlns="http://www.w3.org/2000/svg"
   xmlns:svg="http://www.w3.org/2000/svg"><defs
     id="defs1"><path
       d="M 21.504,0.065 H 0.207 v 33.06 H 21.504 V 0.066 Z"
       id="a"
       inkscape:connector-curvature="0" /></defs><sodipodi:namedview
     id="namedview1"
     pagecolor="#e6e6e6"
     bordercolor="#999999"
     borderopacity="1"
     inkscape:showpageshadow="2"
     inkscape:pageopacity="0"
     inkscape:pagecheckerboard="0"
     inkscape:deskcolor="#171717"
     showgrid="true"
     inkscape:zoom="4"
     inkscape:cx="94"
     inkscape:cy="86.875"
     inkscape:window-width="2253"
     inkscape:window-height="1370"
     inkscape:window-x="1178"
     inkscape:window-y="0"
     inkscape:window-maximized="0"
     inkscape:current-layer="layer1"><inkscape:grid
       id="grid3"
       units="px"
       originx="2.7755576e-17"
       originy="0"
       spacingx="0.5"
       spacingy="0.5"
       empcolor="#0099e5"
       empopacity="0.65098039"
       color="#0099e5"
       opacity="0.501961"
       empspacing="8"
       dotted="false"
       gridanglex="30"
       gridanglez="30"
       visible="true" /></sodipodi:namedview><g
     inkscape:groupmode="layer"
     id="layer1"
     inkscape:label="paths"
     style="display:inline;mix-blend-mode:normal;opacity:1"><circle
       cx="96"
       cy="956.362"
       r="88"
       style="display:inline;opacity:1;mix-blend-mode:normal;fill:#ffffff;fill-opacity:1;fill-rule:evenodd;stroke:none;stroke-opacity:1"
       id="circle12"
       transform="translate(0,-860.362)"
       inkscape:label="achtergrond" /><g
       id="g17"
       transform="matrix(1.5783426,0,0,1.5783426,27.946864,53)"
       inkscape:label="declaree"
       style="mix-blend-mode:normal;stroke-width:0.633576"><path
         class="st0"
         d="m 69.2,50.3 c 7.9,0 17,-36.6 17,-36.6 L 39.4,0 c 0,0 -9.8,50.3 -25.2,50.3 z"
         id="path1"
         style="display:inline;fill:#f9c28c;fill-opacity:0.5;stroke-width:0.633576" /><path
         class="st0"
         d="M 66.1,46.8 C 63.8,46.8 51,45.5 48.6,41.2 43.1,31.4 51.7,16.7 51.7,16.7 L 35.9,14 H 2 c 0,0 -9.2,33.2 12.2,36.2 21.4,3 60.9,3 70.7,0 C 71.9,49 66.1,46.8 66.1,46.8 Z"
         id="path2"
         style="display:inline;fill:#f9c28c;fill-opacity:0.5;stroke-width:0.633576" /><path
         class="st1"
         d="m 11.5,49.7 c -0.1,0 -0.1,0 -0.2,0 0,-0.1 0.1,-0.1 0.2,0 z"
         id="path3"
         style="display:inline;stroke-width:0.633576" /><path
         class="st2"
         d="M 84.9,50.3 C 77.8,49.4 54.2,45.5 53.7,14.1 H 36 C 31.9,29 24.2,50.3 14.2,50.3 c 21.3,3 60.9,3 70.7,0 z"
         id="path4"
         style="stroke-width:0.633576;fill:#f8c18c;fill-opacity:1" /></g></g><style
     id="style2"
     type="text/css">&#10;	.st0{fill:#154273;}&#10;	.st1{fill:#FFFFFF;}&#10;</style><style
     type="text/css"
     id="style1">&#10;	.st0{fill:#FFB280;}&#10;	.st1{fill:#E6592E;}&#10;	.st2{fill:#FF6500;}&#10;</style></svg>
