<?xml version="1.0" encoding="UTF-8"?>
<svg version="1.1" viewBox="0 0 192 192" xmlns="http://www.w3.org/2000/svg">
 <rect x="10" y="10" width="172" height="172" rx="10" ry="10" fill="#ff837d" fill-rule="evenodd"/>
 <path d="m96.146 57.174-6.4082 1.002c-1.5412 0.24088-2.7724 1.4106-3.0918 2.9375l-11.179 53.444c-0.89479 2.3617-1.5516 2.1426-2.907 2.36-2.2714 0.034-4.7114 0.60284-7.0157 1.6585-6.4247 2.9488-10.046 8.7979-8.0879 13.064 1.9586 4.2665 8.7549 5.3342 15.18 2.3848 5.0638-2.3255 8.2249-6.576 8.9228-10.313l4.3443-22.257c0.17688-1.435 0.99773-2.4346 2.9888-2.8215l21.061-3.4879c1.3455-0.21814 2.0222-0.13454 2.7057 0.96305l7.2846 12.665c1.4233 2.2106 0.4162 3.7044-0.81137 4.5218-1.4406 0.86049-2.8094 1.9706-4.019 3.2708-4.8888 5.2575-5.9669 12.202-2.4082 15.512 3.5591 3.3094 11.037 1.0518 15.297-3.5273s5.5267-11.065 3.4141-14.871l-31.439-54.67c-0.77375-1.3456-2.2965-2.0755-3.8301-1.8359zm-0.78321 8.8614 11.319 19.681c0.78971 1.6193 0.41789 2.2817-0.87295 2.5135l-14.594 2.4173c-2.7441 0.42355-2.8967-0.47856-2.4085-3.2229l4.3963-21.021c0.23259-0.90301 1.4542-1.2582 2.1609-0.36782z" fill="#fff" style="paint-order:stroke fill markers"/>
</svg>
