<?xml version="1.0" encoding="UTF-8"?><svg id="uuid-576d9a44-2e36-457e-a0f3-e4b5f1063412" xmlns="http://www.w3.org/2000/svg" width="192" height="192" viewBox="0 0 192 192"><g id="uuid-a2711c5f-07ca-4c0b-84c7-a0ea13bfdeec"><g id="uuid-76719243-6dca-4e95-85be-72c356ba0cff"><path d="m143.73,90.52V23.92h0s-30.46-13.75-47.73-13.32c-17.28-.43-47.73,13.32-47.73,13.32h0v66.6s-3.49,11.9-2.86,17.92c.51,4.87,5.24,13.65,5.24,13.65l-1.95,40.57c-.29,3.51,1.93,5.76,3.83,8.17,0,0,11.96,2.05,15,10.58,8.84-3.22,19.3-4.51,28.47-4.58,9.17.07,19.63,1.37,28.47,4.58,3.04-8.53,15-10.58,15-10.58,1.9-2.41,4.12-4.67,3.83-8.17l-1.95-40.57s4.74-8.78,5.24-13.65c.63-6.02-2.86-17.92-2.86-17.92Z" fill="#8e6f60" stroke-width="0"/><path d="m67.53,184c-.38,0-.75-.08-1.1-.25-.62-.29-1.1-.82-1.34-1.47-2.47-6.91-12.9-8.88-13-8.9-.63-.11-1.2-.45-1.59-.95-.2-.26-.41-.52-.62-.78-1.82-2.25-4.1-5.06-3.75-9.21l1.91-39.77c-1.19-2.28-4.72-9.37-5.2-13.97-.62-5.91,2.25-16.43,2.85-18.56V23.98c-.02-1.01.55-1.98,1.52-2.42,1.26-.57,31.14-13.97,48.8-13.55,17.66-.42,47.53,12.98,48.8,13.55.98.44,1.56,1.43,1.52,2.45v66.15c.6,2.12,3.46,12.65,2.85,18.56-.48,4.6-4.01,11.69-5.2,13.96l1.92,39.86c.34,4.06-1.93,6.87-3.76,9.12-.21.26-.42.52-.62.78-.4.5-.96.84-1.59.95-.1.02-10.51,1.92-13,8.9-.23.65-.71,1.18-1.34,1.47s-1.34.33-1.99.09c-7.62-2.78-17.43-4.35-27.6-4.43-10.13.08-19.94,1.65-27.56,4.43-.29.1-.59.16-.88.16Zm-13.56-15.51c2.88.67,11.14,3.12,14.93,9.72,7.79-2.49,17.3-3.9,27.08-3.97,9.82.08,19.34,1.48,27.13,3.97,3.79-6.6,12.04-9.05,14.93-9.72.02-.03.05-.06.07-.09,1.73-2.14,2.78-3.55,2.62-5.53l-1.96-40.66c-.02-.47.08-.94.31-1.35,1.25-2.32,4.58-9.12,4.95-12.69.47-4.52-1.84-13.75-2.77-16.93-.07-.24-.1-.48-.1-.73V25.61c-6.32-2.72-30.74-12.81-45.08-12.43-.04,0-.09,0-.13,0-14.36-.33-38.77,9.71-45.08,12.43v64.91c0,.25-.04.49-.1.73-.93,3.18-3.24,12.41-2.77,16.93.37,3.58,3.7,10.37,4.95,12.69.22.41.33.88.31,1.35l-1.95,40.57c-.17,2.07.88,3.48,2.61,5.62l.07.09Zm85.5,2.34h0,0Z" fill="#56595b" stroke-width="0"/><path d="m120.71,126.91c11.04-17.63,7.9-40.62-9.55-69v-17.82l-10.68-9.27v39.1c2.33,7.9,22.72,34.92-1.32,42.24v20.16h-6.31v-20.16c-24.03-7.31-3.64-34.33-1.32-42.24V30.82s-10.68,9.27-10.68,9.27v17.82c-17.45,28.38-20.59,51.37-9.55,69,0,0,6.16-4.83,8.34-2.86,3.51,3.17-3.23,13.81-3.23,13.81,7.83,1.95,12.05,6.72,15.62,12h7.93c3.58-5.27,7.79-10.04,15.62-12,0,0-6.73-10.64-3.23-13.81,2.18-1.97,8.34,2.86,8.34,2.86Z" fill="#f8c18c" stroke-width="0"/><path d="m99.97,152.14h-7.93c-.76,0-1.46-.37-1.89-1-3.68-5.42-7.52-9.38-14.29-11.06-.71-.18-1.29-.69-1.57-1.36-.27-.68-.2-1.45.19-2.07,2.78-4.4,4.55-9.6,3.72-10.79-.92,0-3.51,1.3-5.5,2.85-.51.4-1.16.56-1.8.45-.64-.11-1.2-.49-1.54-1.03-11.43-18.25-8.34-42.09,9.2-70.85v-17.18c0-.66.29-1.29.79-1.72l10.68-9.27c.67-.58,1.63-.72,2.44-.35.81.37,1.33,1.18,1.33,2.08v39.1c0,.22-.03.43-.09.64-.51,1.75-1.67,4.05-3.14,6.96-3.68,7.3-9.24,18.33-6.15,25.54,1.37,3.2,4.34,5.46,9.08,6.91.96.29,1.62,1.18,1.62,2.18v17.88h1.75v-17.88c0-1,.66-1.89,1.62-2.18,4.74-1.44,7.71-3.7,9.08-6.91,3.09-7.21-2.47-18.24-6.15-25.54-1.47-2.91-2.63-5.21-3.14-6.96-.06-.21-.09-.43-.09-.64V30.82c0-.89.52-1.7,1.33-2.08.81-.37,1.77-.23,2.44.35l10.68,9.27c.5.43.79,1.06.79,1.72v17.18c17.54,28.76,20.64,52.6,9.2,70.85-.34.55-.9.92-1.54,1.03-.63.11-1.29-.05-1.8-.45-1.99-1.55-4.55-2.89-5.5-2.85-.83,1.2.94,6.39,3.72,10.79.39.62.46,1.39.19,2.07-.27.68-.85,1.19-1.57,1.36-6.77,1.69-10.61,5.64-14.29,11.06-.42.63-1.13,1-1.89,1Zm-6.74-4.56h5.54c3.14-4.45,7.03-8.7,13.4-11.05-2.21-4.1-4.97-10.89-1.34-14.17,2.49-2.25,6.42-.51,9.16,1.25,9-16.53,5.38-38.22-10.78-64.5-.22-.36-.34-.77-.34-1.19v-16.78l-6.12-5.31v33.75c.46,1.37,1.53,3.48,2.74,5.9,4.06,8.05,10.19,20.23,6.27,29.39-1.73,4.04-5.2,7.04-10.33,8.93v18.52c0,1.26-1.02,2.28-2.28,2.28h-6.31c-1.26,0-2.28-1.02-2.28-2.28v-18.52c-5.13-1.89-8.6-4.89-10.33-8.93-3.92-9.16,2.21-21.34,6.27-29.39,1.22-2.42,2.28-4.53,2.74-5.9v-33.75s-6.12,5.31-6.12,5.31v16.78c0,.42-.12.84-.34,1.19-16.16,26.29-19.78,47.97-10.78,64.5,2.74-1.75,6.67-3.5,9.16-1.25,3.63,3.28.87,10.07-1.34,14.17,6.38,2.35,10.26,6.6,13.4,11.05Z" fill="#c39a54" stroke-width="0"/><ellipse cx="65.29" cy="40.58" rx="7.46" ry="6.35" transform="translate(-2.5 76.83) rotate(-60)" fill="#f8c18c" stroke-width="0"/><path d="m64.34,50.06c-1.36,0-2.7-.33-3.92-1.04h0c-4.12-2.38-5.29-8.1-2.6-12.75,2.69-4.65,8.22-6.5,12.35-4.12,4.12,2.38,5.29,8.1,2.61,12.75-1.89,3.27-5.19,5.16-8.42,5.16Zm-1.64-4.99c1.94,1.12,4.69.02,6.11-2.45,1.43-2.47,1.01-5.4-.93-6.52-1.94-1.12-4.69-.02-6.11,2.45-1.43,2.47-1.01,5.4.94,6.52h0Z" fill="#c39a54" stroke-width="0"/><ellipse cx="67.21" cy="150.14" rx="7.46" ry="6.35" transform="translate(-96.42 133.28) rotate(-60)" fill="#f8c18c" stroke-width="0"/><path d="m66.28,159.63c-1.39,0-2.73-.35-3.94-1.05-4.12-2.38-5.29-8.1-2.61-12.75,1.27-2.19,3.21-3.84,5.46-4.65,2.38-.85,4.83-.66,6.89.53,2.06,1.19,3.44,3.21,3.9,5.7.43,2.35-.03,4.86-1.29,7.05s-3.21,3.84-5.46,4.65c-.98.35-1.98.52-2.95.52Zm1.86-14.4c-.46,0-.93.08-1.41.25-1.23.44-2.31,1.37-3.04,2.63-1.43,2.47-1.01,5.4.94,6.52h0c.88.51,1.97.57,3.08.18,1.23-.44,2.31-1.37,3.04-2.63.73-1.26,1-2.66.76-3.95-.21-1.15-.81-2.07-1.69-2.57-.5-.29-1.07-.43-1.67-.43Z" fill="#c39a54" stroke-width="0"/><ellipse cx="126.71" cy="40.58" rx="6.35" ry="7.46" transform="translate(-3.32 68.79) rotate(-30)" fill="#f8c18c" stroke-width="0"/><path d="m127.66,50.06c-3.23,0-6.53-1.88-8.42-5.16-1.27-2.19-1.73-4.7-1.3-7.05.46-2.49,1.84-4.51,3.9-5.7,4.12-2.38,9.66-.53,12.35,4.12h0c2.69,4.65,1.52,10.37-2.6,12.75-1.22.7-2.57,1.04-3.92,1.04Zm-1.85-14.4c-.59,0-1.16.14-1.68.44-.88.51-1.48,1.42-1.69,2.57-.24,1.29.03,2.69.76,3.95,1.43,2.47,4.17,3.57,6.11,2.45,1.94-1.12,2.36-4.05.94-6.52h0c-1.05-1.81-2.81-2.89-4.43-2.89Z" fill="#c39a54" stroke-width="0"/><ellipse cx="124.79" cy="150.14" rx="6.35" ry="7.46" transform="translate(-58.35 82.51) rotate(-30)" fill="#f8c18c" stroke-width="0"/><path d="m125.72,159.63c-.97,0-1.97-.17-2.95-.52-2.25-.8-4.19-2.45-5.46-4.65-2.68-4.65-1.52-10.37,2.6-12.75,2.06-1.19,4.5-1.38,6.89-.53,2.25.8,4.19,2.45,5.46,4.65h0c2.69,4.65,1.52,10.37-2.6,12.75-1.21.7-2.55,1.05-3.94,1.05Zm-1.86-14.4c-.6,0-1.17.15-1.67.43-1.94,1.12-2.36,4.05-.94,6.52.73,1.26,1.8,2.19,3.04,2.63,1.1.39,2.2.33,3.08-.18,1.94-1.12,2.36-4.05.94-6.52,0,0,0,0,0,0-.73-1.26-1.8-2.19-3.04-2.63-.48-.17-.95-.25-1.41-.25Z" fill="#c39a54" stroke-width="0"/></g></g></svg>