<?xml version="1.0" encoding="UTF-8"?><svg id="a" xmlns="http://www.w3.org/2000/svg" width="192" height="192" viewBox="0 0 192 192"><g id="b"><g id="c"><rect x="8" y="32" width="176" height="128" rx="10" ry="10" style="fill:#fff; isolation:isolate;"/><path d="m46.5,72.09h99c.28,0,.5.22.5.5v7.54c0,.28-.22.5-.5.5h-44.72c-.28,0-.5.22-.5.5v29.21c0,.28.22.5.5.5h4.56c.28,0,.5.22.5.5v8.08c0,.28-.22.5-.5.5h-18.76c-.28,0-.5-.22-.5-.5v-8.08c0-.28.22-.5.5-.5h4.66c.28,0,.5-.22.5-.5v-29.21c0-.28-.22-.5-.5-.5h-44.75c-.28,0-.5-.22-.5-.5v-7.54c0-.28.22-.5.5-.5Z" style="fill:#bd9aff;"/><path d="m60.67,110.83h10.24c.28,0,.5-.22.5-.5v-5.33c0-.28.22-.5.5-.5h6.96c.28,0,.5.22.5.5v14.41c0,.28-.22.5-.5.5h-32.38c-.28,0-.5-.22-.5-.5v-8.08c0-.28.22-.5.5-.5h3.7c.28,0,.5-.22.5-.5v-16.14c0-.28-.22-.5-.5-.5h-3.7c-.28,0-.5-.22-.5-.5v-8.08c0-.28.22-.5.5-.5h32.38c.28,0,.5.22.5.5v14.09c0,.28-.22.5-.5.5h-6.96c-.28,0-.5-.22-.5-.5v-5.01c0-.28-.22-.5-.5-.5h-9.74c-.28,0-.5.22-.5.5v2.9c0,.28.22.5.5.5h5.81c.28,0,.5.22.5.5v7.82c0,.28-.22.5-.5.5h-5.81c-.28,0-.5.22-.5.5v3.91" style="fill:#bd9aff;"/><path d="m110.69,84.62h15.66c.28,0,.5.22.5.5v8.08c0,.28-.22.5-.5.5h-2.16c-.28,0-.5.22-.5.5v6.51c0,.42.49.65.82.39l7.89-6.51c.36-.3.15-.89-.32-.89h-2.62c-.28,0-.5-.22-.5-.5v-8.08c0-.28.22-.5.5-.5h16.04c.28,0,.5.22.5.5v8.08c0,.28-.22.5-.5.5h-4.32c-.12,0-.23.04-.32.12l-4.64,3.95c-.18.15-.23.41-.12.62l6.48,12.18c.09.16.26.27.44.27h2.48c.28,0,.5.22.5.5v8.08c0,.28-.22.5-.5.5h-18.15c-.28,0-.5-.22-.5-.5v-8.08c0-.28.22-.5.5-.5h1.61l-3.07-3.59c-.18-.21-.5-.23-.71-.05l-1.32,1.19c-.11.09-.17.23-.17.37v2.08h1.15v8.58c0,.28-.22.5-.5.5h-13.64c-.28,0-.5-.22-.5-.5v-8.08c0-.28.22-.5.5-.5h3.57c.28,0,.5-.22.5-.5v-16.14c0-.28-.22-.5-.5-.5h-3.57c-.28,0-.5-.22-.5-.5v-8.08c0-.28.22-.5.5-.5Z" style="fill:#bd9aff;"/></g></g></svg>