<?xml version="1.0" encoding="UTF-8"?>
<svg version="1.1" viewBox="0 0 192 192" xml:space="preserve" xmlns="http://www.w3.org/2000/svg">
	 <circle class="a" cx="96" cy="96" r="88" fill="#56595b"/><g transform="matrix(1.8667 0 0 1.8667 -11.22 -5.5517)" stroke="#00000000"><path d="m43.91 33.757c-0.302-0.01-0.605 0-0.906 0.031-0.804 0.07-1.598 0.25-2.348 0.527 3.846 2.368 5.657 3.145 3.451 6.42s-3.615 1.156-7.107-1.061c0.15 1.856 1.341 4.692 3.768 6.68 2.155 1.766 4.078 0.97 7.326 3.895 1.081 0.973 2.238 2.214 3.73 3.879 0.425-1.696 1.379-3.417 2.898-5.129-2.224-2.949-2.627-3.791-2.871-4.264-1.501-2.906-0.334-5.261-2.4-8.182-1.356-1.917-3.429-2.757-5.541-2.797z" fill="#fdf5d9" stroke-width=".18333"/><path d="m63.01 43.922c7.314 16.619 5.215 16.067 9.371 27.946-1.435 1.743-3.625 2.636-5.528 3.18-3.373-2.677-3.452-6.479-7.653-10.351-8.387-4.035-10.561-12.709 3.81-20.775z" fill="#f9de81" stroke-width=".2792"/></g></svg>
