<?xml version="1.0" encoding="UTF-8"?><svg id="a" xmlns="http://www.w3.org/2000/svg" width="192" height="192" viewBox="0 0 192 192"><g id="b"><g id="c"><rect x="20" y="20" width="152" height="152" rx="10" ry="10" style="fill:#54688c;"/><path d="m111.93,85.36c-.26-.39-.75-.55-1.17-.33-1.68.88-5.68,3.5-5.68,8.49,0,10.31,13.07,12.48,13.6,28.39.02.55.46,1,1.01,1h15.31c.79,0,1.27-.88.83-1.55l-23.91-36.01Zm-11.39,10.2c0,8.28,13.23,14.55,7.09,26.82-.16.33-.51.54-.87.54h-49.76c-.79,0-1.27-.88-.83-1.55l25.26-38.06c.42-.64,1.38-.58,1.72.11l2.96,5.95c.35.7,1.34.74,1.75.07l11.88-19.88c.38-.63,1.28-.65,1.68-.04l7.96,11.99c.33.5.16,1.18-.35,1.49-2.42,1.47-8.48,5.82-8.48,12.56Z" style="fill:#fff; fill-rule:evenodd;"/></g></g></svg>