<?xml version="1.0" encoding="UTF-8"?>
<svg version="1.1" viewBox="0 0 192 192" xml:space="preserve" xmlns="http://www.w3.org/2000/svg">
	 <rect class="a" x="20" y="20" width="152" height="152" rx="10" fill="#728dbe"/><path d="m94.605 115.39c-1.3959-0.4725-2.129-1.2081-3.0466-3.0567-1.3846-2.7894-3.6647-13.51-4.1354-19.443-0.30729-3.8737-0.26666-4.0725 1.1142-5.4534 1.3259-1.3259 1.6589-1.4095 4.4512-1.1177 5.7818 0.60432 19.812 5.3698 22.217 7.5461 2.2047 1.9952 0.34559 5.3587-7.4159 13.417-7.5595 7.8485-9.8285 9.2439-13.184 8.1079z" fill="#bd9aff" stroke-width=".52521"/><path d="m76.626 142.8c-8.9418-12.618-13.443-29.362-15.937-59.287-1.1849-14.216-0.59453-19.158 2.7561-23.072 3.8308-4.4755 9.6777-4.9723 24.858-2.112 10.392 1.9581 13.637 2.0905 32.826 1.339l12.08-0.47309-5.0563 5.4626c-2.781 3.0044-6.7499 6.6409-8.82 8.0811l-3.7637 2.6185-5.7422 0.19654c-3.4822 0.11919-8.5418-0.15506-12.855-0.69682-7.6665-0.96286-11.224-0.77941-14.708 0.75844-7.3798 3.2574-7.8473 10.903-2.1367 34.946 2.5703 10.821 3.6472 18.526 3.2739 23.423-0.31644 4.1516-1.7662 8.7653-3.4303 10.917l-0.96803 1.2516z" fill="#9abeff" stroke-width=".52521"/></svg>
