<?xml version="1.0" encoding="UTF-8"?><svg id="uuid-3e851c8c-2950-4f9b-ba54-53baf0e5f8b1" xmlns="http://www.w3.org/2000/svg" width="192" height="192" viewBox="0 0 192 192"><g id="uuid-c2f5db31-69da-4dd0-8419-2352f29692d2"><g id="uuid-ae382a68-e3db-4938-9cb8-e416a8d9e99b"><path d="m35.76,56.83h-2.88v.31c4.49,21.02,12.69,41.08,24.22,59.22l.17-.27.17-.24c8.3-17.29,35.41-40.33,35.41-40.33-16.75-11.67-36.67-18.67-57.09-18.7Z" fill="#98dc9a" stroke-width="0"/><path d="m59.52,118.41l-.19.31-.19.29-.15.24c-12.2,19.69-20.03,41.77-22.99,64.75,19.66-7.9,56.88-33.68,56.88-33.68l-.03-70.19c-12.95,11.02-24.21,23.92-33.33,38.27Z" fill="#98dc9a" stroke-width="0"/><path d="m155.15,176.77c-1.64-22.81-9.23-44.78-21.99-63.75l-.17.24-.19.27c-10.19,15.35-22.69,29.04-37.06,40.57,0,0,38.51,18.53,59.42,22.67h0Z" fill="#9abeff" stroke-width="0"/><path d="m95.73,75.53v73.64c13.57-11.2,25.39-24.36,35.07-39.05l.15-.22.17-.27c.06-.07.12-.16.17-.24,12.42-18.9,21.81-39.63,27.83-61.43-22.79,3.63-45.38,13.13-63.39,27.57Z" fill="#9abeff" stroke-width="0"/><path d="m91.67,70.4s2.55-13.63,1.45-20.49c-1.48-10.71-6.61-26.35-22.43-41.9,0,0,25.48,35.7,20.98,62.4Z" fill="#9abeff" stroke-width="0"/><path d="m126.28,17.93c-.83.05-1.6.43-2.13,1.07-.37.46-.56,1.04-.53,1.62-12.56,4.62-22.11,15.04-25.63,27.95-1.99,6.98-1.38,21.49-1.38,21.49.97-30.81,19.06-43.94,27.44-48.44.57.76,1.47,1.21,2.42,1.21h.29c.83-.07,1.6-.45,2.16-1.07.39-.46.57-1.05.51-1.65-.28-1.46-1.68-2.43-3.15-2.18Z" fill="#9abeff" stroke-width="0"/></g></g></svg>