<?xml version="1.0" encoding="UTF-8"?>
<svg version="1.1" viewBox="0 0 192 192" xml:space="preserve" xmlns="http://www.w3.org/2000/svg">
	 <circle class="a" cx="96" cy="96" r="88" fill="#ba6561"/><path d="m95.982 133.72c-0.21042 0-0.42084-0.0351-0.59619-0.0701-0.21041-0.0351-0.42083-0.14028-0.63125-0.24549l-7.7504-3.8577c-1.2976-0.66633-1.8236-2.2445-1.1924-3.542 0.66633-1.2976 2.2445-1.8236 3.542-1.1924l3.9979 1.999v-5.4709c0-1.4378 1.1924-2.6302 2.6302-2.6302 1.4378 0 2.6302 1.1924 2.6302 2.6302v5.4709l3.998-1.999c1.2976-0.63125 2.8757-0.10521 3.542 1.1924 0.66633 1.2976 0.14028 2.8757-1.1924 3.542l-7.7504 3.8577c-0.21042 0.10521-0.42084 0.17535-0.63126 0.24549-0.21042 0.0351-0.38576 0.0701-0.59618 0.0701zm23.391-11.678c-0.94688 0-1.8938-0.52605-2.3497-1.4379-0.66632-1.2976-0.14028-2.8757 1.1924-3.542l6.3476-3.1563v-8.1011c0-1.4379 1.1924-2.6302 2.6302-2.6302 1.4378 0 2.6302 1.1924 2.6302 2.6302v9.7494c0 0.98195-0.56111 1.8938-1.4378 2.3497l-7.7855 3.8927c-0.45591 0.14028-0.84167 0.24549-1.2274 0.24549zm-46.783 0c-0.38577 0-0.8066-0.10521-1.1573-0.28056l-7.7855-3.8927c-0.87674-0.45591-1.4379-1.3677-1.4379-2.3497v-9.7494c0-1.4379 1.1924-2.6302 2.6302-2.6302 1.4379 0 2.6302 1.1924 2.6302 2.6302v8.1011l6.3476 3.1563c1.2976 0.66633 1.8236 2.2445 1.1924 3.542-0.52604 0.91181-1.4379 1.4729-2.4198 1.4729zm23.391-17.535c-1.4379 0-2.6302-1.1924-2.6302-2.6302v-8.1011l-6.3476-3.1563c-1.2976-0.66632-1.8236-2.2445-1.1924-3.542 0.66633-1.2976 2.2445-1.8236 3.542-1.1924l6.6282 3.2966 6.6282-3.2966c1.2976-0.63125 2.8757-0.14028 3.542 1.1924 0.66633 1.3326 0.14028 2.8757-1.1924 3.542l-6.3476 3.1563v8.1011c0 1.4378-1.1924 2.6302-2.6302 2.6302zm31.177-15.606c-1.4379 0-2.6302-1.1924-2.6302-2.6302v-5.4709l-3.9979 1.999c-1.2976 0.66633-2.8757 0.14028-3.542-1.1924-0.66632-1.2976-0.14028-2.8757 1.1924-3.542l3.0861-1.5431-3.0861-1.5431c-1.2976-0.66632-1.8236-2.2445-1.1924-3.542 0.66633-1.2976 2.2445-1.8236 3.542-1.1924l7.7504 3.8577c0.0701 0.03507 0.17535 0.07014 0.24549 0.14028 0.21041 0.10521 0.38576 0.28056 0.56111 0.45591 0.10521 0.14028 0.21042 0.28056 0.31563 0.42084 0.14028 0.24549 0.24549 0.49098 0.31562 0.77153 0.0351 0.21042 0.0701 0.42084 0.0701 0.59618v9.7143c0 1.5431-1.1924 2.7004-2.6302 2.7004zm-62.354 0c-1.4379 0-2.6302-1.1924-2.6302-2.6302v-9.7143c0-0.21042 0.03507-0.42084 0.07014-0.59618 0.07014-0.28056 0.17535-0.52604 0.31563-0.77153 0.10521-0.17535 0.21042-0.31563 0.3507-0.45591s0.31563-0.28056 0.49098-0.38577c0.07014-0.03507 0.17535-0.10521 0.24549-0.14028l7.7504-3.8577c1.2976-0.63125 2.8757-0.14028 3.542 1.1924 0.66632 1.3326 0.14028 2.8757-1.1924 3.542l-3.0861 1.5431 3.0861 1.5431c1.2976 0.66632 1.8236 2.2445 1.1924 3.542-0.66632 1.2976-2.2094 1.8236-3.542 1.1924l-3.9979-1.999v5.4709c0.03507 1.3677-1.1222 2.525-2.5952 2.525zm38.962-21.428c-0.38577 0-0.80661-0.10521-1.1573-0.28056l-6.6282-3.2966-6.6282 3.2966c-1.2976 0.66632-2.8757 0.14028-3.542-1.1924-0.66632-1.2976-0.14028-2.8757 1.1924-3.542l7.7855-3.8927c0.73646-0.38577 1.6132-0.38577 2.3497 0l7.7855 3.8927c1.2976 0.66632 1.8236 2.2445 1.1924 3.542-0.4559 0.94688-1.3677 1.4729-2.3497 1.4729z" fill="#fff" stroke-width="3.507"/></svg>
