<?xml version="1.0" encoding="UTF-8"?>
<svg id="Layer_1" data-name="Layer 1" xmlns="http://www.w3.org/2000/svg" viewBox="0 0 192 192">
  <defs>
    <style>
      .cls-1 {
        fill: #728dbe;
      }

      .cls-2 {
        fill: #ff837d;
      }

      .cls-3 {
        fill: #f9de81;
      }

      .cls-4 {
        fill: #9abeff;
      }

      .cls-5 {
        fill: #98dc9a;
      }
    </style>
  </defs>
  <path class="cls-2" d="m95.2,127.51l28.34,48.76s7.78,10.9,20.47,4.25c12.69-6.66,4.56-20.65,4.56-20.65l-27.53-47.37-12.83-22.07-25.84,15.02,12.83,22.07Z"/>
  <path class="cls-2" d="m69.6,111.96l-28.17,48.86s-5.58,12.18,6.51,19.87c12.1,7.69,20.18-6.33,20.18-6.33l27.36-47.47,12.75-22.12-25.89-14.93-12.75,22.12Z"/>
  <path class="cls-3" d="m95.55,66.49l-28.34-48.76s-7.78-10.9-20.47-4.25c-12.69,6.66-4.56,20.65-4.56,20.65l27.53,47.37,12.83,22.07,25.84-15.02-12.83-22.07Z"/>
  <path class="cls-5" d="m70.47,81.44H14.07S.73,82.69.11,97.01c-.62,14.32,15.57,14.32,15.57,14.32h54.79s25.53,0,25.53,0v-29.89s-25.53,0-25.53,0Z"/>
  <path class="cls-4" d="m121.53,111.32h56.4s13.34-1.25,13.96-15.57-15.57-14.32-15.57-14.32h-80.32v29.89h25.53Z"/>
  <path class="cls-4" d="m121.16,82.04l28.17-48.86s5.58-12.18-6.51-19.87-20.18,6.33-20.18,6.33l-27.36,47.47-12.75,22.12,25.89,14.93,12.75-22.12Z"/>
  <polygon class="cls-1" points="95.55 66.49 69.96 111.33 120.36 111.33 95.55 66.49"/>
</svg>