<?xml version="1.0" encoding="UTF-8"?>
<svg id="Layer_1" data-name="Layer 1" xmlns="http://www.w3.org/2000/svg" viewBox="0 0 192 192">
  <defs>
    <style>
      .cls-1 {
        fill: #728dbe;
      }

      .cls-2 {
        fill: #ff837d;
      }

      .cls-3 {
        fill: #f9de81;
      }

      .cls-4 {
        fill: #9abeff;
      }

      .cls-5 {
        fill: #98dc9a;
      }
    </style>
  </defs>
  <path class="cls-2" d="m95.27,123.73l25.76,44.32s7.07,9.91,18.61,3.86c11.54-6.05,4.14-18.77,4.14-18.77l-25.02-43.06-11.66-20.06-23.48,13.65,11.66,20.06Z"/>
  <path class="cls-2" d="m72,109.6l-25.6,44.41s-5.07,11.07,5.92,18.06c10.99,6.99,18.34-5.76,18.34-5.76l24.87-43.14,11.59-20.1-23.53-13.57-11.59,20.1Z"/>
  <path class="cls-3" d="m95.59,68.27l-25.76-44.32s-7.07-9.91-18.61-3.86c-11.54,6.05-4.14,18.77-4.14,18.77l25.02,43.06,11.66,20.06,23.48-13.65-11.66-20.06Z"/>
  <path class="cls-5" d="m72.8,81.85H21.54s-12.12,1.14-12.68,14.15,14.15,13.01,14.15,13.01h49.8s23.2,0,23.2,0v-27.16s-23.2,0-23.2,0Z"/>
  <path class="cls-4" d="m119.2,109.02h51.26s12.12-1.13,12.69-14.15-14.15-13.02-14.15-13.02h-73v27.16h23.2Z"/>
  <path class="cls-4" d="m118.86,82.4l25.6-44.41s5.07-11.07-5.92-18.06c-10.99-6.99-18.34,5.76-18.34,5.76l-24.87,43.14-11.59,20.1,23.53,13.57,11.59-20.1Z"/>
  <polygon class="cls-1" points="95.59 68.27 72.34 109.02 118.14 109.02 95.59 68.27"/>
</svg>