<?xml version="1.0" encoding="UTF-8"?>
<svg version="1.1" viewBox="0 0 192 192" xmlns="http://www.w3.org/2000/svg">
 <defs>
  <clipPath id="clipPath486">
   <circle class="a" cx="96" cy="96" r="88" style="fill:#98dc9a"/>
  </clipPath>
  <clipPath id="clipPath490">
   <circle class="a" cx="96" cy="96" r="88" style="fill:#98dc9a"/>
  </clipPath>
 </defs>
 <circle class="a" cx="96" cy="96" r="88" style="fill:#98dc9a"/>
 <path d="m161.89 153.49c-0.33245 0.71463-0.70684 1.4134-1.1232 2.0966-0.85285 1.4096-1.7764 2.7574-2.7705 4.0434-1.4296-1.1399-3.0268-2.0134-4.7922-2.6207-2.279-0.60531-4.5503-1.2293-6.8139-1.8719 0.90048-8.6272-0.99647-16.564-5.6907-23.811-6.2386-9.3256-14.8-15.441-25.683-18.345-11.709-2.0118-22.192 0.68378-31.449 8.0868-2.4765 2.0271-4.6978 4.2984-6.6641 6.8139-2.584 3.6575-5.2548 7.2516-8.0119 10.782-3.0498-1.9765-5.9948-4.098-8.8356-6.3646-4.9497-2.9491-9.6919-2.6496-14.227 0.89853-2.5646 2.2092-4.137 4.9797-4.7173 8.3114-0.15455 1.3801-0.0048 2.7279 0.44927 4.0434 0.94855 2.2222 1.8221 4.4685 2.6207 6.739-4.1006 1.376-7.6449 3.6223-10.633 6.739-1.3249-1.727-2.473-3.5739-3.4444-5.5409 1.7204-1.4487 3.5924-2.6968 5.6158-3.7439-0.58689-1.7485-1.0362-3.5456-1.3478-5.3912-0.09984-1.2479-0.09984-2.496 0-3.7439 0.96562-7.2478 4.7844-12.365 11.456-15.35 8.1245-2.8979 15.288-1.3754 21.49 4.5675 5.9285-11.191 14.939-18.704 27.031-22.538 13.423-3.7259 26.103-2.0287 38.038 5.0917 12.93 8.4781 19.669 20.483 20.217 36.016 1.4441 0.44702 2.8419 1.0212 4.1932 1.7222 1.7828 1.0147 3.4802 2.1379 5.0917 3.3695z" clip-path="url(#clipPath490)" fill="#fefefe" style="clip-rule:evenodd;fill-rule:evenodd;image-rendering:optimizeQuality;opacity:.999;shape-rendering:geometricPrecision;stroke-width:.14976"/>
 <path d="m82.176 138.59h27.555v31.149h13.87l-27.873 35.664-27.33-35.515h13.837z" clip-path="url(#clipPath486)" style="fill:#fff"/>
</svg>
