<?xml version="1.0" encoding="UTF-8"?><svg id="a" xmlns="http://www.w3.org/2000/svg" width="192" height="192" xmlns:xlink="http://www.w3.org/1999/xlink" viewBox="0 0 192 192"><defs><clipPath id="d"><circle cx="113.16" cy="116.89" r="67.11" style="fill:none; stroke-width:0px;"/></clipPath><clipPath id="e"><path d="m73.18,112.75c.9-1.8.9-2.7-.72-4.14-5.22-3.6.18-10.81,6.12-8.47,2.06,1.04,4.43,1.29,6.66.72,4.33-.39,8.7-.15,12.97.72,1.18.4,2.47.34,3.6-.18,4.86-2.34,10.81.9,8.29,6.66-.72,1.62-1.98,3.24-.54,4.5s4.14,4.32,4.14,7.2c-1.26,1.5-2.72,2.83-4.32,3.96.72,6.66-8.65,12.61-22.69,9.01v1.08c-.09.53-.55.91-1.08.9l-5.22-.72c-.73,0-1.35-.54-1.44-1.26,0,.72-.51,1.11-1.08,1.08l-3.88-.48c-.48-.06-.8-.51-.7-.98l1.33-6.28c-3.6.36-5.58-1.08-5.58-3.78,1.07-3.31,2.46-6.5,4.14-9.55Z" style="fill:none; stroke-width:0px;"/></clipPath></defs><g id="b"><g id="c"><g style="clip-path:url(#d);"><circle cx="113.16" cy="116.89" r="67.11" style="fill:#728dbe; stroke-width:0px;"/><path d="m155.31,174.89l-.09-2.65-1.53-38.78-22.04,8.58-4.49,2.76-11.22-2.42-14.27,9.09,4.49,38.43,6.82-1.16c2.2.02,4.4-.08,6.59-.28v.11h25.14v-7.15c3.72-1.85,7.27-4.03,10.6-6.55Z" style="fill:#fff; stroke-width:0px;"/><path d="m145.76,90.96c8.66.03,17.02,3.11,23.62,8.66.85.72,1.17,1.89.77,2.93l-5.12,13.45,19.27,8.29c-1.87,20.28-12.45,38.74-29,50.61v-.36l-1.62-41.07-7.92-42.51Z" style="fill:#56595b; stroke-width:0px;"/><path d="m115.68,149.31l-5.22-11.17-41.33-15.88-6.03,1.88-3.81,1.19c-.45,12.34,2.53,24.55,8.13,35.06l1.25-.28-12.93-1.54c.36.18,17.9,15.72,18.08,16.08,12.19,10.13,20.79,13.47,36.63,14.09l-.3-30.8c-.04-3.72,2.13-7.12,5.52-8.65h0Z" style="fill:#56595b; stroke-width:0px;"/><path d="m125.57,188.3v-3.03c0-4.32.7-8.61,2.06-12.7l.46-1.38-3.47-5.72c-.43-.7-.49-1.57-.18-2.33l1.72-4.2c.4-.97,1.35-1.61,2.4-1.61h4.66c1.03,0,1.97.61,2.38,1.56l1.89,4.34c.31.71.29,1.53-.07,2.22l-3.04,5.93.54,1.86c1.07,3.66,1.62,7.46,1.62,11.28v1.45l-10.99,2.34Z" style="fill:#56595b; stroke-width:0px;"/></g><path d="m110.46,138.15l5.22,11.17c.76.62,1.55,1.2,2.37,1.72,5.27,3.38,12.07,3.23,17.26-.28h0s6.48-16.57,6.48-16.57l-1.44-25.58-12.05,16.21-17.85,13.33Z" style="fill:#83868c; stroke-width:0px;"/><path d="m135.32,150.75l18.37-17.29-7.92-42.51c-.54,2.34-.5,1.2-.14,6.43-.79-3.57-1.87-2.42-3.82-5.52,1.56-3.7,2.81-8.19,2.56-12.19-.98.64-2.71,1.07-3.87,1.27-3.78.72-6.8,2.46-10.4,3h.18c-.54,6.3-2.16,10.99-7.2,10.81h-6.84c-5.22-.18-9.01-4.65-12.07-9.34l-8.11,15.82,2.16.36c1.18.4,2.47.34,3.6-.18,4.86-2.34,10.81.9,8.29,6.66-.72,1.62-1.98,3.24-.54,4.5s4.14,4.32,4.14,7.2c-2.52,7.74-7.16,15.76-10.76,19.37l1,.19c2.25.43,4.57,0,6.52-1.19h0s15.75-8.7,15.75-8.7c3.12-1.72,5.66-4.34,7.29-7.51l6.86-13.33.96,17.1c.31,5.58-.58,11.17-2.61,16.37l-3.39,8.67Z" style="fill:#b1b5bd; stroke-width:0px;"/><polygon points="92.27 93.3 90.35 91.95 86.33 101.04 88.85 101.04 92.27 93.3" style="fill:#b1b5bd; stroke-width:0px;"/><path d="m82.72,83.39c.72,5.94,3.6,9.73,9.55,9.91l3.78-8.11-13.33-1.8Z" style="fill:#56595b; stroke-width:0px;"/><path d="m141.81,92.26c1.99,3.23,6.05,10.7,6.88,14.41-.96-12.26-4.16-19.64,6.38-19.25l-5.56-5.17c1.92.09,3.81.55,5.56,1.34l-6.32-5.56c1.72.02,3.42.41,4.98,1.15l-3.83-2.87c-1.8,1.49-3.89,2.6-6.13,3.26.26,4.16-.42,8.33-1.99,12.18-.07.17-.05.36.04.52Z" style="fill:#56595b; stroke-width:0px;"/><path d="m104.16,85.91c2.88,5.04,6.66,8.83,12.07,9.01h6.84c5.04.18,6.66-4.83,7.2-11.13l-26.12,2.13Z" style="fill:#56595b; stroke-width:0px;"/><path d="m88.85,100.68c2.41-.09,4.83.09,7.2.54l8.11-15.31-8.1-1.17-7.2,15.94Z" style="fill:#a0a5af; stroke-width:0px;"/><path d="m108.98,123.2c1.61-1.13,3.04-2.13,4.72-3.42-2.52,7.74-4.32,15.67-7.92,19.27-.76.52-1.54,1-2.34,1.44l-2.16,5.94-3.06-4.5-1.44,6.66-5.22-6.48-1.26,4.32-5.94-5.22c-3.78-.64-7-4.1-7.64-7.89h.9c.54.18,1.39-.6,1.39-1.32.09.72.4,1.51,1.13,1.5l5.08.68c.53,0,.99-.37,1.08-.9v-1.08c14.05,3.6,23.41-2.34,22.69-9.01Z" style="fill:#a0a5af; stroke-width:0px;"/><g style="clip-path:url(#e);"><path d="m73.18,112.75c.9-1.8.9-2.7-.72-4.14-5.22-3.6.18-10.81,6.12-8.47,2.06,1.04,4.43,1.29,6.66.72,4.33-.39,8.7-.15,12.97.72,1.18.4,2.47.34,3.6-.18,4.86-2.34,10.81.9,8.29,6.66-.72,1.62-1.98,3.24-.54,4.5s4.14,4.32,4.14,7.2c-1.26,1.5-2.72,2.83-4.32,3.96.72,6.66-8.65,12.61-22.69,9.01v1.08c-.09.53-.55.91-1.08.9l-5.22-.72c-.76-.11-1.35-.54-1.44-1.26,0,.72-.52,1.4-1.06,1.22l-.92-.13-2.7-.36c-.39-.06-.52.51-.52.33,0-.07-.87-.05-.93-.17-.2-.37-.22-1.93-.14-2.34l1.94-5.2c-2.83.28-4.66-.55-5.31-2.22-.3-.78-.24-1.66.03-2.45,1.03-2.99,2.31-5.89,3.85-8.66Z" style="fill:#ececec; stroke-width:0px;"/><path d="m104.16,103.75l6.15-.75c.8,1.59.96,3.5.15,5.09-.72,1.62-1.98,3.04-.54,4.3.55.33.68.94,1.08,1.44l-8.29-5.04h1.44c1.49.1,2.78-1.02,2.88-2.51,0,0,0,0,0-.01-.18-1.45-1.42-2.53-2.88-2.52Z" style="fill:#a0a5af; stroke-width:0px;"/><path d="m74.62,126.08c3.78-1.98,8.11-.36,13.33,1.26s15.02,1.91,20.6-3.13c-.36,2.34-2.46,5.52-5.52,6.06s-12.74-.22-16.7-2.03c-3.79-1.81-8.24-1.93-12.13-.35l.43-1.81Z" style="fill:#a0a5af; stroke-width:0px;"/><path d="m104.16,103.63c1.59,0,2.91,1.23,3.01,2.82-.1,1.55-1.44,2.73-2.99,2.63,0,0,0,0-.01,0-1.54.21-2.96-.87-3.17-2.41,0-.07-.02-.15-.02-.22.1-1.66,1.53-2.92,3.18-2.82,0,0,0,0,.01,0Z" style="fill:#83868c; stroke-width:0px;"/></g><g id="f"><path d="m93.72,32.85l-6.23-15.65c-.37-.93-1.6-1.11-2.23-.33-5.99,7.47-.96,32.38,6.41,47.79-1.3-10.81-1.19-20.84-.85-31.73-.36-2.34.12-4.01,1.38-1.67.26.5.75.53,1.09.98l.43.61Z" style="fill:#ececec; stroke-width:0px;"/><path d="m100.13,46.65c-2.03-5.59-4.63-10.96-7.74-16.03-1.26-2.34-2.05-1.66-2.16,1.26-.34,10.89.09,21.81,1.39,32.62,0,.72.41.88.77,1.42l7.74-19.27Z" style="fill:#a0a5af; stroke-width:0px;"/><path d="m145.22,57.64c5.22.9,10.99,3.06,10.27,9.55-.72,6.48-5.7,11.75-14.95,14.23-3.68,1.07-6.84,1.98-10.45,2.52l-25.94,1.98-8.11-.72s-9.46-1.07-13.33-1.8c-2.55-.48-5.94-1.8-6.66-1.98s-2.16-2.16-3.6-2.16-1.09-4.86,1.79-6.84l.52-.06c2.19.68,3.18-.81,5.14-2.48.04-.03.1-.11.12-.16,3.14-1.02,6.42-1.57,9.73-1.62l10.81-27.56c2.34-6.66,7.56.18,9.73-.36,6.66-1.44,22.22-4.3,25.28-1.6-3.78,10.45-5.83,18.53-5.29,25.37l6.3-1.62,7.74-2.88s.9-1.8.9-1.8Z" style="fill:#56595b; stroke-width:0px;"/><path d="m136.58,62.32l7.74-2.88c10.24-15.68,8.06-42.57,1.11-50.96-.74-.9-2.21-.44-2.38.71l-2.69,18.2-3.78,34.94Z" style="fill:#ececec; stroke-width:0px;"/><path d="m130.05,64l6.52-1.68,3.78-34.94c-7.74,15.49-11.03,27.61-10.31,36.62Z" style="fill:#a0a5af; stroke-width:0px;"/><path d="m91.35,64.01c13.51.9,27.22,1.91,38.93-.25l6.3-1.62,7.74-2.7,1.96,10.26c.12.62-.23,1.24-.83,1.45-18.64,6.45-39.49,4.48-55.64-.43-.53-.16-.8-.74-.6-1.26l2.14-5.46Z" style="fill:#f9de81; stroke-width:0px;"/></g><path d="m46.52,98.52l.73-3.13,5.81-20.33,4.17-10.67c.72-1.08,1.34-4.08,2.06-4.98l7.22-7c1.06.95,1.42,2.46.9,3.78l3.78-8.11c1.8,1.62,1.98,3.96.72,7.2l-5.58,11.89h.72l.55.38c.36.65.35.65,1.04.93l3.63.13c2.52,1.98,5.22,3.06,7.74,1.08-.69,2.2-2.99,3.47-5.22,2.88l-3.48-.47c-.31-.04-.62.04-.87.22l-2.64,1.94c-.26.19-.47.44-.6.74l-1.92,4.11c-.26.56-.4,1.17-.4,1.79v1.4c1.89-1.14,4.67-2.4,6.74-3.18,2.7-.8,2.88.38,5.12,2.15.51.4.53,1.16.05,1.59-5.07,4.59-10.45,9.74-14.79,14.93-1.19.72-2.58,1.03-3.96.9l-3.24.36-1.26,3.96-7.02-4.5Z" style="fill:#a0a5af; stroke-width:0px;"/><path d="m46.52,98.52l1.2-.69c.84-.48,1.45-1.29,1.67-2.23l4.15-17.33c.48-1.99,1.04-3.95,1.7-5.89l1.93-5.7c.47-1.39,1.12-2.71,1.91-3.94.31-.48.62-.94.94-1.33,0,0,6.48-9.01,6.48-9.01h-1.81c-.57,0-1.12.23-1.52.64-14.95,15.4-17.97,28.73-21.71,42.41l5.04,3.06Z" style="fill:#ececec; stroke-width:0px;"/><path d="m71.2,48.09h0c-.68-.65-1.78-.5-2.26.3l-2.42,4.02c1.06.95,1.42,2.46.9,3.78l3.78-8.11Z" style="fill:#ececec; stroke-width:0px;"/><path d="m64.89,82.31l-.49,3.78c0,.36.26.52.54.36l6.16-3.94c.18-.11.24-.35.14-.54l-1.2-2.21c-1.87.68-3.53,1.51-5.15,2.55Z" style="fill:#ececec; stroke-width:0px;"/><path d="m78.2,70.7c.69-.07,1.35-.49,1.82-.99l-5.55-3.17c-.49-.28-1.06-.39-1.62-.31l-6.52.95c.06.18.13.33.2.47.44.87,1.38,1.35,2.35,1.26l3.11-.27c.18-.02.36.05.49.18,1.52,1.47,3.63,2.22,5.72,1.87Z" style="fill:#ececec; stroke-width:0px;"/><path d="m37.19,97.92l1.12-3.39c.2-.59.9-.84,1.42-.5l16.79,10.92c.39.25.59.71.53,1.16l-.24,1.68-19.61-9.88Z" style="fill:#83868c; stroke-width:0px;"/><path d="m59.3,125.34l-4.67,1.46,2.95-17.85c.07-.42-.14-.83-.52-1.02l-20.91-10.54c-.71-.36-1.57-.02-1.85.73l-22.11,59.61c-1.02,2.76-.3,5.87,1.85,7.89,3.65,3.44,8.76,4.84,13.65,3.74l32.56-7.33,7.19-1.62c-5.6-10.51-8.58-22.72-8.13-35.06Z" style="fill:#56595b; stroke-width:0px;"/></g></g></svg>