<?xml version="1.0" encoding="UTF-8"?><svg id="a" xmlns="http://www.w3.org/2000/svg" width="192" height="192" xmlns:xlink="http://www.w3.org/1999/xlink" viewBox="0 0 192 192"><defs><style>.o{mask:url(#i);}.p{fill:#f8c18c;}.p,.q{fill-rule:evenodd;stroke-width:0px;}.q{fill:#fff;}.r{mask:url(#d);}</style><mask id="d" x="59.5" y="89.23" width="73" height="10.34" maskUnits="userSpaceOnUse"><g id="e"><polygon id="f" class="q" points="59.5 89.23 132.5 89.23 132.5 99.56 59.5 99.56 59.5 89.23"/></g></mask><mask id="i" x="74.41" y="60.92" width="43.19" height="6.98" maskUnits="userSpaceOnUse"><g id="j"><polygon id="k" class="q" points="74.41 60.92 117.6 60.92 117.6 67.89 74.41 67.89 74.41 60.92"/></g></mask></defs><g id="b"><g id="c"><path class="p" d="m172,30v132c0,5.52-4.48,10-10,10H30c-5.52,0-10-4.48-10-10V30c0-5.52,4.48-10,10-10h132c5.52,0,10,4.48,10,10Z"/><g class="r"><path id="g" class="q" d="m127.65,94.88c1.56-.24,2.16-.32,3.01-.61,1.08-.37,1.84-1.24,1.84-2.45s-.76-2.14-1.84-2.45c-.85-.26-2.1-.06-3.01.04l-28.08,2.83c-2.36.24-4.81.24-7.17,0l-28.04-2.83c-.91-.09-2.17-.3-3.01-.04-1.08.32-1.84,1.3-1.84,2.45s.76,2.08,1.84,2.45c.84.28,1.45.37,3.01.61l26.84,4.31c3.16.5,6.45.5,9.61,0l26.85-4.31Z"/></g><path id="h" class="q" d="m122.72,81.97c.91-.06,2.16-.11,3.01-.35,1.08-.32,1.84-1.3,1.84-2.45s-.76-2.14-1.84-2.45c-.86-.26-2.1-.22-3.01-.22h-53.45c-.91,0-2.16-.04-3.01.22-1.08.32-1.84,1.3-1.84,2.45s.76,2.14,1.84,2.45c.86.24,2.1.3,3.01.35l23.75,1.69c1.95.13,3.98.13,5.91,0l23.79-1.69Z"/><g class="o"><path id="l" class="q" d="m104.36,61.39c-5.59-.63-11.17-.63-16.76,0l-8.34.95c-.89.09-2.17.17-3.01.43-.86.28-1.84,1.08-1.84,2.45,0,1.19.78,2.14,1.84,2.45.85.24,2.12.22,3.01.22h33.49c.89,0,2.16.02,3.01-.22,1.06-.32,1.84-1.26,1.84-2.45,0-1.38-.98-2.17-1.84-2.45-.84-.26-2.12-.33-3.01-.43l-8.38-.95Z"/></g><path id="m" class="q" d="m90.46,114.65c3.64.89,7.4.89,11.06,0l24.36-5.98c1.54-.37,2.16-.5,3.01-.78,1.08-.35,1.84-1.26,1.84-2.45s-.76-2.16-1.84-2.47c-.86-.24-2.12.07-3.01.24l-26.35,4.7c-2.32.41-4.78.41-7.1,0l-26.31-4.7c-.89-.17-2.16-.48-3.01-.24-1.08.32-1.84,1.32-1.84,2.47s.76,2.1,1.84,2.45c.86.28,1.47.41,3.01.78l24.35,5.98Z"/><path id="n" class="q" d="m118.64,124.45c1.67-.58,2.25-.78,3.01-1.13,1.04-.46,1.84-1.19,1.84-2.49,0-1.15-.76-2.16-1.84-2.47-.97-.28-2.14.13-3.01.37l-16.48,4.44c-4.05,1.1-8.31,1.08-12.34,0l-16.45-4.44c-.87-.24-2.04-.65-3.01-.37-1.08.32-1.84,1.32-1.84,2.47,0,1.3.8,2.03,1.84,2.49.76.35,1.34.56,3.01,1.13l15.63,5.44c4.53,1.58,9.44,1.58,13.99,0l15.65-5.44Z"/></g></g></svg>