<?xml version="1.0" encoding="UTF-8"?>
<svg version="1.1" viewBox="0 0 192 192" xml:space="preserve" xmlns="http://www.w3.org/2000/svg" xmlns:xlink="http://www.w3.org/1999/xlink"><defs><linearGradient id="linearGradient618" x1="172" x2="20" y1="172" y2="20" gradientUnits="userSpaceOnUse"><stop stop-color="#ababff" offset="0"/><stop stop-color="#f8c18c" offset=".11744"/><stop stop-color="#bd9aff" offset=".5"/><stop stop-color="#728dbe" offset=".74314"/><stop stop-color="#9abeff" offset="1"/></linearGradient></defs>
	 <rect class="a" x="20" y="20" width="152" height="152" rx="10" fill="url(#linearGradient618)"/><path d="m99.126 132.98c-12.242-1.5227-23.745-4.0176-26.623-5.7746-2.1471-1.3105-3.7153-4.8988-3.2081-7.3403 0.58732-2.827 6.0027-13.53 9.5641-18.903 5.551-8.3745 14.746-16.671 21.191-19.12 11.548-4.3879 26.291 1.6146 31.886 12.982 2.0878 4.2415 2.8255 7.3612 2.8345 11.986 0.014 7.2243-2.4005 12.91-7.8138 18.401-4.1121 4.171-8.4617 6.515-13.984 7.5358-3.0811 0.56957-10.177 0.68846-13.847 0.23201z" fill="#fff" stroke-width=".55294"/><circle cx="72.625" cy="79.765" r="15.395" fill="#fff" stroke-linecap="round" stroke-linejoin="round" stroke-width=".55294"/><path d="m86.133 66.738a8.113 8.113 0 0 1 6.1072-7.7502 8.113 8.113 0 0 1 9.0731 3.8786 8.113 8.113 0 0 1-1.3823 9.77 8.113 8.113 0 0 1-9.7929 1.2093" fill="#fff" stroke-linecap="round" stroke-linejoin="round" stroke-width=".55294"/></svg>
