<?xml version="1.0" encoding="UTF-8"?><svg id="a" xmlns="http://www.w3.org/2000/svg" width="192" height="192" viewBox="0 0 192 192"><g id="b"><g id="c"><path d="M184,96.39c-.19,48.61-39.83,87.81-88.39,87.61-48.55-.19-87.81-39.78-87.61-88.39C8.19,47,47.83,7.81,96.39,8c48.65,.19,87.81,39.78,87.61,88.39Z" style="fill:#ff837d;"/><g><path d="M70.95,61.1c.55-.46,1.4-.21,1.61,.48,1.39,4.62,2.75,9.13,4.11,13.64,.61,2.03,1.2,4.07,1.85,6.09,.18,.56,.1,.88-.33,1.26-2.68,2.38-3.19,6.32-.89,9.06,6.06,7.19,12.14,14.36,18.24,21.52,2.55,2.99,6.17,3.24,9.26,.76,.25-.2,.76-.32,1.02-.2,5.36,2.61,15.12,7.41,18.73,9.2,.66,.33,.75,1.23,.17,1.68-2.75,2.14-9.58,7.04-14.41,7.76-2.51,.38-4.96,.04-7.34-.86-21.02-7.96-37.04-26.4-42.15-48.27-1.31-5.63-.22-10.57,3.09-15.16,1.55-2.15,5.16-5.36,7.05-6.95Z" style="fill:#fff;"/><path d="M96.9,96.24c1.38-2.63,2.75-5.25,4.17-7.96-.44-.42-.9-.83-1.34-1.27-5.75-5.8-5.6-14.05,.38-19.61,3.57-3.32,7.89-4.88,12.69-5.04,5.42-.18,10.3,1.33,14.33,5.07,6.18,5.74,6.13,14.7-.23,20.24-5.29,4.61-11.48,5.93-18.27,4.14-.92-.24-1.66-.19-2.5,.23-2.69,1.34-5.4,2.62-8.11,3.93-.32,.15-.65,.29-.97,.43l-.16-.17Zm13.51-28.96c.18,.42,.28,.65,.38,.88,1.45,3.08,1,5.41-1.47,7.73-.64,.6-1.32,1.18-1.86,1.87-1.73,2.22-2.18,4.65-1.11,7.32,.91,2.28,2.63,3.46,4.98,3.96q-.36-4.44,.25-5.37c.15,.16,.3,.33,.45,.48,1.26,1.22,2.89,.94,3.52-.7,.26-.69,.24-1.5,.29-2.26,.04-.56,0-1.12,0-2.05,.52,.63,.89,.97,1.13,1.38,1.51,2.61,.55,5.24-.19,8.19,.92-.63,1.57-1.02,2.16-1.5,4.78-3.93,3.84-12.07-.18-15.83-2.31-2.16-5.1-3.35-8.35-4.09Z" style="fill:#fff;"/><path d="M79.93,80.23l-5.74-19.45c-.2-.68,.35-1.34,1.05-1.28,1,.08,1.94,.16,2.85,.33,.56,.1,1.15,.52,1.55,.96,.56,.61,1.15,1.31,1.4,2.07,1.23,3.86,2.48,7.73,3.48,11.66,.58,2.31,.06,4.45-2.27,5.78-.32,.18-.57,.35-.88,.51-.56,.31-1.26,.02-1.44-.6Z" style="fill:#fff;"/><path d="M125.66,121.72c-6.37-3.15-12.11-5.98-18.31-9.05-.55-.27-.75-.99-.38-1.49,1.61-2.19,3.9-3.04,6.46-1.96,3.9,1.63,7.68,3.59,11.4,5.6,1.95,1.06,3.03,2.82,2.51,5.24-.09,.4-.14,.73-.28,1.11-.21,.56-.86,.82-1.39,.55Z" style="fill:#fff;"/></g></g></g></svg>