<?xml version="1.0" encoding="UTF-8"?><svg id="uuid-7e3ee32d-1c42-4f62-a0e3-3bf9c2be2a2c" xmlns="http://www.w3.org/2000/svg" width="192" height="192" xmlns:xlink="http://www.w3.org/1999/xlink" viewBox="0 0 192 192"><defs><clipPath id="uuid-6ebe5e56-2bba-4f34-a767-8b66316026ee"><path d="m65.12,125.98c-5.74-6.24,10.06-11.73,11.56-15.19.13-.29-.13-.61-.44-.54-4.5.9-15.49,2.92-17.51,2.69-5.46-.63-4.5-4.75.24-5.81,3.35-.75,11.35-2.54,12.02-2.97,1.04-.67-.03-1.2-4.14-2.08-14.66-3.12-19.13-4.81-20.55-7.79-1.49-4.88,2.42-2.99,13.2-.03,8.68,2.61,14.56,4.49,2.3-.98-11.48-4.98-15.82-7.98-15.55-10.75.26-2.64,1.24-2.7,5.75-.35,5.25,2.73,15.35,7.4,15.57,7.18-2.63-3.28-16.13-12.83-10.53-15.39.87-.4,1.26-.43,5.23,2.94,17.03,13.84,13.9,13.04,24.47,17.98.99.46,2.02.85,3.06,1.22,8.64,3.08-2.91,8.23,3.28,20.14.48.92-.24,2-1.26,1.9-14.05-1.42-22.13,9.97-26.68,7.85h0Z" fill="none" stroke-width="0"/></clipPath></defs><g id="uuid-4157775b-47e0-421a-8291-2c26731b3eb8"><g id="uuid-61e6dcac-b912-4979-893a-e057b81a25d3"><rect x="20" y="20" width="152" height="152" rx="10" ry="10" fill="#fff" stroke-width="0"/><g clip-path="url(#uuid-6ebe5e56-2bba-4f34-a767-8b66316026ee)"><path d="m65.12,125.98c-5.74-6.24,10.07-11.73,11.56-15.19.13-.29-.13-.6-.44-.54-4.49.9-15.49,2.92-17.52,2.69-5.46-.63-4.5-4.75.24-5.81,3.35-.75,11.35-2.54,12.02-2.97,1.04-.67-.03-1.2-4.14-2.08-14.66-3.12-19.13-4.81-20.55-7.79-1.49-4.88,2.42-2.99,13.2-.03,8.68,2.61,14.56,4.49,2.3-.98-11.48-4.98-15.82-7.98-15.55-10.75.26-2.64,1.24-2.7,5.75-.35,5.25,2.73,15.35,7.4,15.57,7.18-2.63-3.28-16.13-12.83-10.53-15.39.87-.4,1.26-.43,5.23,2.94,17.03,13.84,13.9,13.04,24.47,17.98.99.46,2.02.85,3.06,1.22,8.09,2.88-1.5,7.57,2.29,17.91.71,1.95-.73,4-2.8,4.01-12.51.05-19.89,9.96-24.16,7.97h0Z" fill="#9abeff" stroke-width="0"/><path d="m76.68,110.79c4.65-9.01-5.55-18.43-9.11-21.44-4.75-4.03-22.28-11.2-22.28-11.2l-3.43,18.21,11.68,18.62,21.4-3.18s1.51-.56,1.74-1.01Z" fill="#728dbe" stroke-width="0"/></g><path d="m108.58,124.18c-3.9-1.4-9.31-4.71-11.19-6.83-3.16-3.58-4.03-8.61-2.32-13.47,1.19-3.37,13.68-28.83,16.12-32.83,3.38-5.57,4.63-6.36,6.42-4.08,1.36,1.73,1.21,2.69-1.17,7.56-2.31,4.73-4.46,10.09-4.16,10.39.26.26,2.42-3.24,5.6-9.04,4.54-8.29,6.09-10.12,8.61-10.12,1.61,0,3.26,2.38,2.88,4.14-.14.63-1.43,3.53-2.87,6.44-1.44,2.91-3.3,6.72-4.13,8.47-2.47,5.2-.33,2.5,4.75-5.97,5.3-8.84,6.76-10.77,8.17-10.77s2.83,1.1,3.51,2.74c.53,1.27.43,1.71-1.1,4.93-1.82,3.82-3.78,7.2-7.27,12.51-1.23,1.87-2.15,3.47-2.05,3.57.25.25,3.79-3.98,6.95-8.35,5.21-7.17,6.94-8.3,9.22-6.02,2.65,2.65,2.26,3.64-6.09,15.28-5.68,7.91-10.69,16.57-10.69,18.46,0,1.5,2.62,2.39,7.51,2.55,4.84.16,6.16.71,7.68,3.2,1.06,1.74,1.17,4.12.23,4.9-.52.43-1.43.43-4.12,0-4.26-.69-10-.06-17.61,1.91-5.96,1.54-9.48,1.66-12.89.44h0Z" fill="#9abeff" stroke-width="0"/></g></g></svg>