<?xml version="1.0" encoding="UTF-8" standalone="no"?>
<svg
   xmlns:dc="http://purl.org/dc/elements/1.1/"
   xmlns:cc="http://creativecommons.org/ns#"
   xmlns:rdf="http://www.w3.org/1999/02/22-rdf-syntax-ns#"
   xmlns:svg="http://www.w3.org/2000/svg"
   xmlns="http://www.w3.org/2000/svg"
   xmlns:sodipodi="http://sodipodi.sourceforge.net/DTD/sodipodi-0.dtd"
   xmlns:inkscape="http://www.inkscape.org/namespaces/inkscape"
   viewBox="0 0 192 192"
   version="1.1"
   id="svg16"
   sodipodi:docname="incredibox.svg"
   inkscape:version="0.92.4 (5da689c313, 2019-01-14)">
  <metadata
     id="metadata20">
    <rdf:RDF>
      <cc:Work
         rdf:about="">
        <dc:format>image/svg+xml</dc:format>
        <dc:type
           rdf:resource="http://purl.org/dc/dcmitype/StillImage" />
        <dc:title></dc:title>
      </cc:Work>
    </rdf:RDF>
  </metadata>
  <sodipodi:namedview
     pagecolor="#ffffff"
     bordercolor="#666666"
     borderopacity="1"
     objecttolerance="10"
     gridtolerance="10"
     guidetolerance="10"
     inkscape:pageopacity="0"
     inkscape:pageshadow="2"
     inkscape:window-width="1920"
     inkscape:window-height="1017"
     id="namedview18"
     showgrid="true"
     inkscape:zoom="8.3352865"
     inkscape:cx="54.460974"
     inkscape:cy="131.68204"
     inkscape:window-x="-8"
     inkscape:window-y="-8"
     inkscape:window-maximized="1"
     inkscape:current-layer="svg16"
     inkscape:snap-global="false">
    <inkscape:grid
       type="xygrid"
       id="grid827"
       spacingx="4"
       spacingy="4" />
  </sodipodi:namedview>
  <defs
     id="defs4">
    <style
       id="style2">.a{fill:none;stroke:#b1b5bd;stroke-linecap:round;stroke-linejoin:round;isolation:isolate;opacity:0.63;}</style>
  </defs>
  <path
     style="fill:#56595b;stroke:none;stroke-width:1.45587909px;stroke-linecap:butt;stroke-linejoin:miter;stroke-opacity:1"
     d="m 66.854579,159.87699 c 9.963746,11.5169 20.799008,24.05378 27.946321,24.10371 9.04458,0.0632 24.15774,-15.71912 31.26495,-23.75439 5.36641,-2.12833 9.25723,-9.08254 9.25723,-9.08254 0,0 0.82081,3.12351 -0.69866,6.46259 8.05983,-4.99789 9.78122,-10.65455 9.78122,-10.65455 l 1.22265,4.8906 c 0,0 11.51296,-16.97357 12.92518,-35.10756 0.67395,-8.65408 -3.14398,-25.850361 -3.14398,-25.850361 0,0 3.28626,5.817827 12.4012,10.130551 -0.2138,-0.27646 -9.62785,-18.905993 -10.30521,-31.264962 C 156.28547,47.490428 149.33723,7.1398274 99.342179,7.7441614 33.574887,8.5391485 36.812267,73.767363 36.812267,73.767363 L 26.681722,84.247235 35.06562,83.723242 c 0,0 2.372472,16.858668 -14.671825,33.710248 7.593239,-1.09116 14.497163,-3.66795 14.497163,-3.66795 0,0 -2.454102,4.51842 -14.322487,12.57585 12.500717,1.39634 20.086414,-5.23994 20.086414,-5.23994 0,0 3.935198,26.90344 15.719811,34.5836 -0.382183,-2.03416 -0.174662,-3.66796 -0.174662,-3.66796 0,0 5.982644,5.45602 10.654545,7.8599 z"
     id="path829"
     inkscape:connector-curvature="0"
     sodipodi:nodetypes="cscccccsccsscccccccccc" />
  <path
     style="fill:#ffffff;stroke:none;stroke-width:1.45587909px;stroke-linecap:butt;stroke-linejoin:miter;stroke-opacity:1"
     d="M 54.98621,115.69002 50.292965,92.223786 c 0,0 -1.787776,-4.237683 -3.458193,-3.828702 -2.065863,0.5058 -1.593533,4.048482 -1.605587,6.17533 -0.02912,5.132163 1.203488,10.463036 3.705197,14.944276 1.40488,2.51653 6.051828,6.17533 6.051828,6.17533 z"
     id="path831"
     inkscape:connector-curvature="0"
     sodipodi:nodetypes="ccsssc" />
  <path
     style="fill:#ffffff;stroke:none;stroke-width:1.45587909px;stroke-linecap:butt;stroke-linejoin:miter;stroke-opacity:1"
     d="m 138.8087,115.69002 4.69325,-23.466234 c 0,0 1.78777,-4.237683 3.45819,-3.828702 2.06586,0.5058 1.59353,4.048482 1.60559,6.17533 0.0291,5.132163 -1.20349,10.463036 -3.7052,14.944276 -1.40488,2.51653 -6.05183,6.17533 -6.05183,6.17533 z"
     id="path831-6"
     inkscape:connector-curvature="0"
     sodipodi:nodetypes="ccsssc" />
  <path
     style="fill:#ffffff;stroke:none;stroke-width:1.45587909px;stroke-linecap:butt;stroke-linejoin:miter;stroke-opacity:1"
     d="M 54.492172,76.785475 C 89.626457,69.114439 103.03023,58.877034 103.03023,58.877034 97.837585,67.033818 93.643736,70.733656 93.643736,70.733656 L 135.75945,55.542358 c 0,0 1.50837,-0.90152 2.22311,-0.617532 2.92465,1.162046 2.34663,7.03987 2.34663,7.03987 v 19.884545 l -11.48611,-3.828702 -0.61753,-1.976104 c 0,0 -14.15328,-2.170414 -25.07182,2.099611 l -0.1235,7.03987 c 0,0 8.71958,-4.864069 18.40247,-4.940259 7.76292,-0.06109 18.52597,3.458181 18.52597,3.458181 0,0 0.37071,14.182972 -0.86454,21.119612 -0.89476,5.02456 -4.39941,10.70808 -4.56974,15.80883 -0.7693,23.03702 -6.91637,31.38832 -6.91637,31.38832 0,0 -7.17385,-3.37764 -15.56181,-7.53389 -2.6318,-1.30406 -8.76896,-0.86456 -8.76896,-0.86456 0,0 0.92246,-2.76768 0.74103,-5.06377 -0.24461,-3.09568 -2.09961,-5.68129 -2.09961,-5.68129 l 1.72909,-23.4839 c 0,0 5.08621,6.67922 14.57377,7.16338 12.99752,0.66327 15.68532,-14.07975 15.68532,-14.07975 h 1.97611 c 0,0 -0.35431,-17.18852 -15.93234,-17.167398 -12.59807,0.01708 -19.12141,7.64979 -19.02,14.203241 0.34393,22.224997 -1.111556,54.713377 -1.111556,54.713377 l -3.458182,-0.37052 c 0,0 -1.172,-20.86234 -1.729091,-37.54597 -0.214551,-6.42535 -0.388666,-13.01997 -2.346622,-19.143502 -2.629623,-8.22417 -9.13948,-10.621561 -9.13948,-10.621561 l 7.904414,0.864546 v -6.669352 c -13.732048,-0.999878 -25.81286,3.705195 -25.81286,3.705195 v 1.729091 c 0,0 -4.486174,1.301204 -6.792855,1.605584 -1.347518,0.177814 -4.075719,0.123502 -4.075719,0.123502 0,0 -0.776959,-6.852362 0.123459,-11.115578 z"
     id="path848"
     inkscape:connector-curvature="0"
     sodipodi:nodetypes="ccccsccccccscsscscsccsccssccsscccccsccc" />
  <path
     style="fill:#ffffff;stroke:none;stroke-width:1.45587909px;stroke-linecap:butt;stroke-linejoin:miter;stroke-opacity:1"
     d="m 64.74322,88.395084 c 0,0 -6.165561,6.109611 -5.557804,13.585706 0.604132,7.4315 7.09907,14.18878 15.685336,14.45027 11.894623,0.36226 15.808828,-10.00403 15.808828,-10.00403 2.415489,10.21004 2.223116,26.44806 2.223116,26.44806 0,0 -3.172283,2.40861 -3.458182,4.19922 -0.478695,2.99812 1.852598,6.66936 1.852598,6.66936 0,0 -7.734749,-2.01286 -11.486097,-1.23507 -8.414632,1.74466 -17.784946,4.56975 -17.784946,4.56975 0,0 -2.260791,-7.07894 -2.717136,-10.74508 -0.696696,-5.59694 -0.228253,-11.22584 -0.988047,-16.81455 -0.851733,-6.26484 -3.158792,-11.52931 -4.075719,-17.78493 -0.573296,-3.911277 -0.247019,-11.856628 -0.247019,-11.856628 z"
     id="path850"
     inkscape:connector-curvature="0"
     sodipodi:nodetypes="cssccscscssscc" />
  <path
     style="fill:#ffffff;stroke:none;stroke-width:1.45587909px;stroke-linecap:butt;stroke-linejoin:miter;stroke-opacity:1"
     d="m 61.285041,99.38716 29.641551,0.61754 c 0,0 -1.522296,-13.061638 -14.820775,-13.2152 C 62.710478,86.63482 61.285041,99.38716 61.285041,99.38716 Z"
     id="path852"
     inkscape:connector-curvature="0"
     sodipodi:nodetypes="ccsc" />
  <path
     style="fill:#ffffff;stroke:none;stroke-width:1.45587909px;stroke-linecap:butt;stroke-linejoin:miter;stroke-opacity:1"
     d="m 102.53621,99.634179 31.12363,0.617541 c 0,0 -0.78126,-12.814632 -15.56182,-12.968194 -13.39551,-0.139167 -15.56181,12.350653 -15.56181,12.350653 z"
     id="path852-2"
     inkscape:connector-curvature="0"
     sodipodi:nodetypes="ccsc" />
  <path
     style="fill:#ffffff;stroke:none;stroke-width:1.45587909px;stroke-linecap:butt;stroke-linejoin:miter;stroke-opacity:1"
     d="m 92.779189,135.34876 0.37052,7.84266 c 0,0 -1.994701,-3.15942 -2.037856,-4.94025 -0.05093,-2.10143 1.667336,-2.90241 1.667336,-2.90241 z"
     id="path869"
     inkscape:connector-curvature="0"
     sodipodi:nodetypes="ccsc" />
  <path
     style="fill:#ffffff;stroke:none;stroke-width:1.45587909px;stroke-linecap:butt;stroke-linejoin:miter;stroke-opacity:1"
     d="m 67.029241,148.61112 27.946324,5.06528 c 0,0 -0.703326,-3.88014 -2.095975,-6.46259 -4.044364,-1.33172 -8.089426,-1.78973 -12.095524,-1.57199 -3.096101,0.16829 -6.032566,1.45035 -9.082559,2.00865 -1.591495,0.29132 -4.672266,0.96065 -4.672266,0.96065 z"
     id="path871"
     inkscape:connector-curvature="0"
     sodipodi:nodetypes="cccssc" />
  <path
     style="fill:#ffffff;stroke:none;stroke-width:1.45587909px;stroke-linecap:butt;stroke-linejoin:miter;stroke-opacity:1"
     d="m 101.42464,153.79178 c 0,0 0.15588,-5.35765 0.8028,-7.2869 1.9251,-0.62949 3.75449,-0.016 5.55779,0.43228 5.34851,1.32976 12.16539,5.37253 12.16539,5.37253 0,0 -6.55704,-0.15011 -9.81877,0.12346 -2.92724,0.24552 -8.70721,1.35863 -8.70721,1.35863 z"
     id="path873"
     inkscape:connector-curvature="0"
     sodipodi:nodetypes="ccscsc" />
  <path
     style="fill:#ffffff;stroke:none;stroke-width:1.45587909px;stroke-linecap:butt;stroke-linejoin:miter;stroke-opacity:1"
     d="m 63.384652,151.41688 c 0,0 10.892567,18.98448 31.802914,19.66581 18.773524,0.6117 31.555904,-15.15783 31.555904,-15.15783 0,0 -9.87637,-0.48033 -14.75902,0.12346 -4.77152,0.59006 -14.017988,3.39644 -14.017988,3.39644 0,0 -9.646784,-3.1393 -14.573765,-4.32273 -6.595162,-1.58409 -20.008045,-3.70515 -20.008045,-3.70515 z"
     id="path875"
     inkscape:connector-curvature="0"
     sodipodi:nodetypes="cscscsc" />
  <path
     style="fill:#ffffff;stroke:none;stroke-width:1.45587909px;stroke-linecap:butt;stroke-linejoin:miter;stroke-opacity:1"
     d="m 81.601848,171.57671 c 0,0 7.89904,8.22915 13.894485,8.42319 6.435297,0.20827 14.512007,-8.17617 14.512007,-8.17617 0,0 -8.89713,3.32223 -13.585708,3.33467 -5.107616,0.0131 -14.820784,-3.58169 -14.820784,-3.58169 z"
     id="path877"
     inkscape:connector-curvature="0"
     sodipodi:nodetypes="cscsc" />
  <path
     style="fill:#ffffff;stroke:none;stroke-width:1.45587909px;stroke-linecap:butt;stroke-linejoin:miter;stroke-opacity:1"
     d="m 61.352638,101.62636 h 5.763927 c 0,0 0.435366,7.42088 7.510574,7.68524 7.533709,0.28149 7.772579,-7.16125 7.772579,-7.16125 l 6.899249,0.0874 c 0,0 -2.148563,12.17287 -15.021151,11.70253 -11.306779,-0.41314 -12.925178,-12.31387 -12.925178,-12.31387 z"
     id="path879"
     inkscape:connector-curvature="0"
     sodipodi:nodetypes="ccsccsc" />
  <path
     style="fill:#ffffff;stroke:none;stroke-width:1.45587909px;stroke-linecap:butt;stroke-linejoin:miter;stroke-opacity:1"
     d="m 103.09747,101.75071 h 6.72458 c 0,0 0.61003,7.15887 7.68524,7.42323 7.53371,0.2815 7.07392,-6.89925 7.07392,-6.89925 l 6.89925,0.0874 c 0,0 -2.14856,12.17286 -15.02115,11.70253 -11.30678,-0.41314 -13.36184,-12.31387 -13.36184,-12.31387 z"
     id="path879-1"
     inkscape:connector-curvature="0"
     sodipodi:nodetypes="ccsccsc" />
</svg>
