<?xml version="1.0" encoding="UTF-8"?>
<svg version="1.1" viewBox="0 0 192 192" xml:space="preserve" xmlns="http://www.w3.org/2000/svg">
	 <circle class="a" cx="96" cy="96" r="88" fill="#f9de81"/><path d="m62.965 82.087a14.735 11.165 0 0 0-14.735 11.165 14.735 11.165 0 0 0 6.1915 9.0742 1.8333 1.8333 0 0 0-0.09969 0.28483l-1.2888 5.6823a0.69353 0.69353 0 0 0 1.08 0.71801l6.6223-4.7353a14.735 11.165 0 0 0 2.23 0.14123 14.735 11.165 0 0 0 14.735-11.165 14.735 11.165 0 0 0-14.735-11.165z" fill="#56595b" stroke-linejoin="round" stroke-width=".73295"/><text x="85.025452" y="100.62967" fill="#56595b" font-family="Now" font-size="30.817px" font-weight="bold" stroke-linejoin="round" stroke-width="1.6509" xml:space="preserve"><tspan x="85.025452" y="100.62967" stroke-width="1.6509">pay</tspan></text></svg>
