<?xml version="1.0" encoding="UTF-8"?><svg id="a" xmlns="http://www.w3.org/2000/svg" width="192" height="192" viewBox="0 0 192 192"><g id="b"><g id="c"><circle cx="96" cy="96" r="88" style="fill:#ff837d;"/><path d="m81.99,117.4h-12.29c-.53-2.04-1.06-4.09-1.58-6.13s-1.09-3.94-1.68-5.69c-.43-1.29-.85-2.39-1.26-3.29-.36-.82-.88-1.6-1.52-2.3-.53-.6-1.24-1.09-2.07-1.41-.9-.32-1.87-.48-2.86-.46v13.07c0,.61.1,1.22.33,1.81.19.5.58.94,1.12,1.25.46.22.96.39,1.47.51.54.15,1.11.26,1.68.33v2.33h-17.33v-2.33c.56-.04,1.12-.1,1.68-.19.55-.07,1.09-.2,1.59-.4.55-.27.95-.69,1.13-1.18.23-.6.33-1.23.32-1.86v-29.89c.02-.59-.08-1.18-.28-1.76-.21-.51-.62-.94-1.17-1.25-.53-.3-1.1-.53-1.71-.7-.5-.16-1.01-.29-1.54-.37v-2.33h17.33v2.33c-.57.06-1.13.16-1.68.3-.51.12-1.01.27-1.49.45-.29.13-.54.31-.75.52s-.34.46-.42.71c-.18.59-.28,1.19-.28,1.8v14.04h1.47c.65,0,1.29-.12,1.89-.33.76-.3,1.38-.79,1.78-1.38,1.04-1.34,1.86-2.77,2.44-4.28.53-1.43,1-2.91,1.4-4.42.45-1.66.84-3.09,1.21-4.24.47-1.35,1.19-2.63,2.15-3.8.48-.66,1.14-1.23,1.94-1.66.74-.4,1.62-.62,2.51-.62.71-.01,1.41.12,2.04.39.62.27,1.15.66,1.53,1.13.88,1,1.31,2.3,1.31,3.87,0,1.73-.36,3.07-1.1,4.04-.74.97-1.68,1.44-2.83,1.44-.4-.02-.8-.1-1.16-.25-.36-.14-.68-.34-.94-.59-.69-.55-1.5-1.63-2.45-3.21-.57.89-.97,1.85-1.19,2.84-.34,1.29-.65,2.4-.94,3.35-.41,1.53-.99,3.03-1.71,4.49-.48.92-1.13,1.78-1.93,2.55v.53c2.17.77,3.99,2.03,5.24,3.63,1.5,1.91,2.64,3.98,3.35,6.16.38,1.05.76,2.17,1.16,3.35s.75,2.18,1.05,3.02c.47,1.29.93,2.14,1.37,2.56.28.31.66.56,1.1.71.41.12.83.21,1.26.29.51.09.92.15,1.26.19l.04,2.33Z" style="fill:#fff;"/><path d="m113.14,111.54h-11.31c-.31-.39-.7-.9-1.19-1.53-.49-.63-.91-1.19-1.26-1.69-1.09,1.21-2.48,2.25-4.07,3.04-1.31.61-2.8.93-4.32.93-1.13.02-2.25-.17-3.28-.55-1.03-.38-1.92-.95-2.63-1.65-1.54-1.47-2.3-3.37-2.31-5.72-.02-1.02.12-2.03.42-3.02.3-.89.75-1.73,1.34-2.52.59-.81,1.33-1.55,2.2-2.19.91-.67,1.89-1.28,2.93-1.82-.98-1.34-1.78-2.76-2.41-4.22-.46-1.15-.69-2.36-.69-3.57,0-2.09.77-3.81,2.31-5.17.68-.64,1.52-1.15,2.48-1.5.96-.35,2-.53,3.05-.53.91-.03,1.81.1,2.66.38.84.28,1.59.69,2.21,1.22,1.26,1.08,1.86,2.5,1.86,4.27.03,1.42-.35,2.83-1.11,4.12-.91,1.38-2.18,2.59-3.72,3.56,1.4,2.03,2.48,3.56,3.25,4.58.77,1.03,1.78,2.37,3.05,4.04.74-1.2,1.35-2.45,1.83-3.73.36-.92.57-1.88.6-2.85,0-.22-.08-.43-.23-.62-.15-.19-.36-.34-.61-.43-.76-.33-1.57-.58-2.41-.75v-1.66h10.76v1.66c-.89.06-1.76.22-2.59.48-.67.3-1.24.72-1.65,1.24-.34.44-.62.9-.84,1.38-.34.66-.66,1.29-.98,1.9-.37.74-.76,1.52-1.19,2.33-.46.87-.97,1.72-1.54,2.55.89,1.21,1.87,2.39,2.93,3.51.54.59,1.17,1.13,1.87,1.6.63.37,1.34.63,2.09.79.82.2,1.66.33,2.51.39l-.03,1.76Zm-14.78-4.63l-3.77-5.12c-1.43-1.94-2.76-3.79-3.99-5.54-.7.79-1.2,1.69-1.47,2.64-.3,1-.45,2.02-.45,3.04,0,1.93.55,3.5,1.64,4.72,1.09,1.22,2.48,1.83,4.16,1.83.7.02,1.4-.1,2.04-.33.71-.31,1.34-.73,1.86-1.23m-.14-20.86c0-1.27-.27-2.27-.81-2.99-.54-.72-1.26-1.1-2.12-1.1-.41,0-.81.08-1.16.24-.36.16-.65.39-.86.66-.55.71-.82,1.53-.77,2.35.03.98.28,1.94.71,2.86.62,1.33,1.35,2.62,2.19,3.88.96-.75,1.7-1.67,2.14-2.68.46-1.03.7-2.11.69-3.2" style="fill:#fff;"/><path d="m146,104.75c.04,1.9-.32,3.79-1.06,5.59-.6,1.49-1.57,2.87-2.86,4.05-1.08.96-2.39,1.73-3.87,2.26-1.38.49-2.88.75-4.39.74h-19.27v-2.33c.42-.06,1.01-.15,1.74-.25.53-.06,1.04-.19,1.51-.4.54-.27.93-.68,1.12-1.16.23-.62.34-1.26.32-1.91v-29.79c0-.6-.09-1.19-.28-1.77-.2-.51-.61-.96-1.16-1.27-.52-.28-1.09-.5-1.68-.66-.52-.16-1.04-.28-1.58-.39v-2.33h28.62v12.09h-1.78c-.59-2.1-1.43-4.14-2.51-6.11-1-1.77-1.89-2.74-2.67-2.91-.54-.13-1.11-.22-1.68-.27-.65-.06-1.29-.09-1.94-.09h-5.34v15.03c.69-.02,1.46-.06,2.3-.11.84-.05,1.68-.07,2.44-.07,1.86-.02,3.7.2,5.48.63,1.65.42,3.15,1.13,4.41,2.08,1.34,1.04,2.37,2.31,3,3.71.8,1.8,1.17,3.7,1.11,5.61m-8.93.43c0-3.06-.66-5.4-1.98-7.02-.59-.77-1.42-1.4-2.43-1.83-1-.43-2.12-.63-3.26-.6-.29,0-.66,0-1.12.05-.46.05-.81.06-1.03.07v16.22c.1.73.55,1.4,1.25,1.89.7.48,1.6.75,2.52.73,1.8,0,3.25-.84,4.35-2.52,1.11-1.68,1.66-4.01,1.68-6.98" style="fill:#fff;"/></g></g></svg>