<?xml version="1.0" encoding="UTF-8"?><svg id="uuid-02046603-b1a0-4d2d-bda1-53b2eb0158ba" xmlns="http://www.w3.org/2000/svg" width="192" height="192" viewBox="0 0 192 192"><g id="uuid-d5f40164-630b-470d-9d96-51568fb0de77"><g id="uuid-8fdf7a00-cf81-44e3-b221-6fdb4f9e2628"><rect x="8" y="32" width="176" height="128" rx="10" ry="10" fill="#98dc9a" isolation="isolate" stroke-width="0"/><path d="m57.11,100.38l-3.2-6.91,10.15-11.51h-6.37l-11.41,13.22v-13.22h-5.28v28.39h5.28v-8.22l3.93-4.45,2.45,5.25c2.11,4.5,4.99,7.58,9.54,7.58.73,0,1.62-.08,2.27-.24v-4.54s-.57.12-1.34.12c-2.89,0-4.31-1.79-6.01-5.48Z" fill="#fff" stroke-width="0"/><path d="m87.76,105.32c-3.49-7.42-5.95-15.24-7.39-23.35h-5.28c1.58,9.86,4.95,19.71,9.66,28.39h5.97c4.47-7.79,8.2-18.82,9.7-28.39h-5.24c-1.43,8.11-3.93,15.93-7.43,23.35Z" fill="#fff" stroke-width="0"/><path d="m72.29,81.97h-5.28v28.39h5.28v-28.39Z" fill="#fff" stroke-width="0"/><path d="m151,110.36c-1.66-9.53-5.11-19.79-9.9-28.39h-5.89c-4.79,8.6-8.28,18.86-9.94,28.39h5.28c.34-2.13.77-4.3,1.29-6.47,1.57.35,3.59.58,6.3.58s4.73-.24,6.3-.58c.52,2.17.95,4.34,1.29,6.47h5.28Zm-12.87-10.63c-2.14,0-3.95-.22-5.06-.46,1.29-4.34,2.97-8.62,5.06-12.64,2.09,4.01,3.77,8.3,5.06,12.64-1.11.23-2.92.46-5.06.46Z" fill="#fff" stroke-width="0"/><path d="m117.23,99.79c3.76-1.19,6.28-4.35,6.28-8.53,0-5.68-4.55-9.77-10.59-9.77s-10.96,3.97-10.96,10.79v18.09h5.28v-17.68c0-3.94,2.44-6.29,5.68-6.29s5.24,2.11,5.24,5.15c0,3.37-2.6,5.92-8.4,5.92v3.12c4.67,1.09,7.96,5.15,8.48,9.77h5.48c-.44-4.52-3.27-8.83-6.49-10.57Z" fill="#fff" stroke-width="0"/></g></g></svg>