<svg id="Camada_1" data-name="Camada 1" xmlns="http://www.w3.org/2000/svg" viewBox="0 0 192 192"><defs><style>.cls-1{fill:#56595b;isolation:isolate;}.cls-2{fill:#9abeff;}.cls-3{fill:#9ac2f1;}.cls-4{fill:#99c7e2;}.cls-5{fill:#99cbd4;}.cls-6{fill:#99cfc5;}.cls-7{fill:#99d3b7;}.cls-8{fill:#98d8a8;}.cls-9{fill:#98dc9a;}</style></defs><path id="rect2" class="cls-1" d="M29.9,20H162a9.86,9.86,0,0,1,9.9,9.9V162a9.86,9.86,0,0,1-9.9,9.9H29.9A9.86,9.86,0,0,1,20,162V29.9A9.86,9.86,0,0,1,29.9,20Z"/><path class="cls-2" d="M68.91,134.37l1.1,2.87.56-.54a116.25,116.25,0,0,1-1.8-18.63l-3.1-3.13C66.78,121.19,66.67,127.82,68.91,134.37Z"/><path class="cls-2" d="M69.83,122.67a11,11,0,0,1,1.68-1.83l-1.65-1.67C69.84,120.32,69.84,121.49,69.83,122.67Z"/><path class="cls-3" d="M65.35,101.69c.13,1.78.53,3.54.81,5.35-1.39-1.07-2.17-2.86-4.8-3.15a26.25,26.25,0,0,1,4.31,11l3.1,3.13A51.48,51.48,0,0,1,71,102.42l-5.43-5.49A19.15,19.15,0,0,0,65.35,101.69Z"/><path class="cls-3" d="M71.33,105.31a54.82,54.82,0,0,0-1.47,13.86l1.65,1.67c2.83-2.48,6.86-3.7,10.23-4.68a13.22,13.22,0,0,0-3.68-.6,40.62,40.62,0,0,0,3.88-2.08l-10-10.14C71.7,104,71.51,104.65,71.33,105.31Z"/><path class="cls-4" d="M71.91,103.34l10,10.14c2.84-2,6.66-5.67,7.1-6.53a11.44,11.44,0,0,1-6.75.41,20.55,20.55,0,0,0,7.64-3.7L77.58,91.17A58.84,58.84,0,0,0,71.91,103.34Z"/><path class="cls-4" d="M71.54,85.13c-2.91,3.6-5.19,7.42-6,11.8L71,102.42a42.73,42.73,0,0,1,5.56-11.37l.33-.58-5.31-5.38Z"/><path class="cls-5" d="M71.58,85.09l5.31,5.38a10.26,10.26,0,0,1,.8-1.22c1-1.18,2.38-3.86,3.78-4.74-1.06,1.6-2.66,4.46-3.55,6.08-.12.19-.23.39-.34.58l12.35,12.49c3.43-2.63,5.88-6.13,8.14-9.68L79,74.69C76.62,78.24,74.25,81.78,71.58,85.09Z"/><path class="cls-6" d="M79.77,73.52,79,74.69,98.07,94c1.81-2.83,6.45-10.12,6.87-11L87.75,65.64A30.67,30.67,0,0,0,79.77,73.52Z"/><path class="cls-7" d="M93.54,62c-1.45.9-2.61,1.61-3.75,2.33q-1,.64-2,1.35L104.94,83c.59-1.17,1.12-2.21,1.68-3.34h-4c4.07-1.45,6.72-3.56,8.56-7,.17-.26.35-.5.52-.75L99.14,59.25A58.73,58.73,0,0,0,93.54,62Z"/><path class="cls-8" d="M99.14,59.25l12.55,12.69a47.25,47.25,0,0,1,8.7-9.11L113,55.36A58.15,58.15,0,0,0,99.14,59.25Z"/><path class="cls-9" d="M113,55.36l7.39,7.47c3.16-2.61,6.77-5.14,10.25-7.48-.2,0-.6-.08-.69-.09A65.77,65.77,0,0,0,113,55.36Z"/></svg>