<?xml version="1.0" encoding="UTF-8"?>
<svg version="1.1" viewBox="0 0 192 192" xml:space="preserve" xmlns="http://www.w3.org/2000/svg">
	 <path id="secondary" d="m73.174 88.712a263.26 263.26 0 0 0-0.72083 46.854 8.0092 8.0092 0 0 1-8.0092 8.4898h-32.517a8.0092 8.0092 0 0 1-8.0092-8.0092 55.344 55.344 0 0 1 39.005-56.064 8.0092 8.0092 0 0 1 7.4486 1.5218 8.0092 8.0092 0 0 1 2.8032 7.2083zm56.064-8.5699a8.0092 8.0092 0 0 0-7.4486 1.5218 8.0092 8.0092 0 0 0-2.8032 7.0481 263.26 263.26 0 0 1 0.72083 46.854 8.0092 8.0092 0 0 0 8.0092 8.4898h32.357a8.0092 8.0092 0 0 0 8.0092-8.0092 55.344 55.344 0 0 0-39.005-56.064zm-9.2106 55.904h-48.055a8.0092 8.0092 0 0 0-8.0092 8.0092v16.018a16.018 16.018 0 0 0 16.018 16.018h32.037a16.018 16.018 0 0 0 16.018-16.018v-16.018a8.0092 8.0092 0 0 0-8.0092-8.0092z" color-interpolation-filters="sRGB" fill="#9abeff" stroke-width="8.0092"/><path id="primary" d="m106.41 19.753a16.018 16.018 0 0 0-20.824 0c-13.616 11.693-35.641 43.49-28.593 125.02a8.0092 8.0092 0 0 0 8.0092 7.2884h61.991a8.0092 8.0092 0 0 0 8.0092-7.2884c7.0481-81.534-14.977-113.33-28.593-125.02z" color-interpolation-filters="sRGB" fill="#54688c" stroke-width="8.0092"/></svg>
