<?xml version="1.0" encoding="UTF-8"?>
<svg version="1.1" viewBox="0 0 192 192" xml:space="preserve" xmlns="http://www.w3.org/2000/svg">
	 <circle class="a" cx="96" cy="96" r="88" fill="#fff"/><path d="m112.45 136.75c-0.80719-0.62281-3.2776-2.724-5.4897-4.6694-4.0976-3.6034-8.1583-6.6954-10.166-7.7406-1.0156-0.52882-1.2057-0.40544-2.1117 1.3704-1.4105 2.7648-5.6251 6.3663-8.9884 7.6809-3.8554 1.5069-13.284 1.9254-17.267 0.76639-5.0818-1.4787-8.4676-5.1615-8.4726-9.2157-0.0035-2.8101 0.59635-4.2303 2.8316-6.7044 3.5808-3.9636 8.5014-5.3686 16.927-4.8335 2.8192 0.17908 5.8273 0.45789 6.6845 0.61957l1.5587 0.29397 1.3201-8.2158c0.72608-4.5187 1.4659-9.483 1.644-11.032l0.32385-2.816-2.38-0.5993c-3.9589-0.99687-8.0014-3.3455-10.454-6.0739-3.3738-3.7525-4.3158-7.4779-2.2147-8.7594 0.75785-0.46222 1.1614-0.26233 2.4339 1.2056 3.665 4.2277 4.8749 5.2558 7.7183 6.559 1.6591 0.7604 3.6387 1.523 4.3991 1.6948 1.249 0.28208 1.3836 0.17775 1.3935-1.0799 0.01483-1.8957 1.7689-9.7146 3.0755-13.71 1.4529-4.4421 3.6681-8.8507 5.6825-11.309 3.3241-4.0566 9.434-6.112 14.278-4.8029 2.8917 0.78147 6.3159 3.9825 7.4628 6.9763 2.0138 5.257 0.62188 13.483-3.3063 19.538-3.4588 5.3318-8.0064 8.589-14.181 10.157l-3.72 0.9447-0.6266 4.4564c-0.66045 4.6972-3.0096 17.991-3.4117 19.307-0.15976 0.52282 0.83057 1.4746 3.0584 2.9393 3.7909 2.4924 10.972 9.5278 13.277 13.006 1.5412 2.3268 1.8783 4.6253 0.73338 5.0004-0.29888 0.0979-1.2038-0.33156-2.011-0.95437zm-31.13-10.761c2.2655-1.1755 5.2475-4.9589 4.4966-5.705-0.79662-0.79153-7.3593-1.6136-10.027-1.256-7.7754 1.0423-10.433 5.3557-4.7659 7.7342 2.0499 0.86028 8.0107 0.41265 10.296-0.77321zm25.536-41.015c7.0777-3.546 12.005-16.413 7.8695-20.549-1.3597-1.3597-4.0418-1.2828-5.3579 0.15373-2.3322 2.5454-4.8007 9.5774-6.3515 18.093l-0.7085 3.8905 1.3211-0.31686c0.72659-0.17428 2.1789-0.74663 3.2273-1.2719z" fill="#ff837d" stroke-width=".50276"/></svg>
