<?xml version="1.0" encoding="UTF-8"?>
<svg version="1.1" viewBox="0 0 192 192" xmlns="http://www.w3.org/2000/svg">
 <circle class="a" cx="96" cy="96" r="88" style="fill:#f9de81"/>
 <path d="m85.535 96.002c-0.79053 14.42 3.7206 25.746 6.0349 38.354h7.7782c2.7136-12.576 8.2224-23.441 7.116-38.354l-0.22174-7.1664-13.523-1.0607-7.7782 0.70711z" style="fill:#a0a5af"/>
 <circle cx="109.92" cy="107.01" r="9.0836" style="fill:#fff"/>
 <circle cx="82.082" cy="107.01" r="9.0836" style="fill:#fff"/>
 <g transform="matrix(.12308 0 0 .12308 29.536 18.037)" style="fill-rule:evenodd;stroke-linejoin:round;stroke-miterlimit:2">
  <path d="m592.26 547.73c-20.047-0.319-38.048 0.176-52.263 0.176h-4e-3c-14.215 0-32.216-0.495-52.261-0.176-17.723-10.982-53.501-37.388-72.145-80.758-14.428-33.563-24.106-61.379-36.711-79.831-15.816-23.151-35.498-34.601-69.354-29.222-16.637 2.642-33.045 12.088-46.071 26.691-28.142 31.546-40.977 87.562-3.838 141.71 16.956 24.721 45.235 42.363 75.276 54.42-47.412 27.244-75.95 72.203-86.109 127.63-16.644 90.807 25.192 155.58 75.307 197.19 46.396 38.519 114.73 69.158 215.81 69.784l-0.15-5e-3h0.504l-0.15 5e-3c101.08-0.626 169.41-31.265 215.81-69.784 50.115-41.607 91.952-106.38 75.307-197.19-10.159-55.426-38.697-100.38-86.108-127.63 30.042-12.058 58.321-29.7 75.277-54.421 37.139-54.147 24.304-110.16-3.838-141.71-13.026-14.603-29.434-24.049-46.071-26.691-33.856-5.379-53.538 6.071-69.354 29.222-12.605 18.452-22.283 46.268-36.711 79.831-18.644 43.37-54.422 69.776-72.145 80.758zm9.057 96.811 7.257-28.92c2.734-10.894-3.891-21.958-14.785-24.691s-21.958 3.891-24.691 14.785l-7.877 31.391a211.13 211.13 0 0 1-21.225 52.938 211.13 211.13 0 0 1-21.225-52.938l-7.877-31.391c-2.221-8.851-9.941-14.884-18.601-15.369l-1.003-0.031a20.35 20.35 0 0 0-5.087 0.615c-10.894 2.733-17.519 13.797-14.785 24.691l7.257 28.92c24.749 16.308 41.097 44.35 41.097 76.181 0 50.317-40.851 91.168-91.168 91.168s-91.168-40.851-91.168-91.168 40.851-91.168 91.168-91.168a91 91 0 0 1 26.371 3.88c-6.214-12.16-15.449-23.71-28.939-28.208-32.329-10.78-74.18-5.365-115.22 50.487-38.357 52.193-26.981 126.59 18.791 180.2 44.956 52.649 107.78 82.754 210.39 82.448 102.61 0.306 165.44-29.799 210.39-82.448 45.772-53.605 57.148-128 18.791-180.2-41.045-55.852-82.896-61.267-115.22-50.487-13.49 4.498-22.725 16.048-28.939 28.208a91 91 0 0 1 26.371-3.88c50.317 0 91.168 40.851 91.168 91.168s-40.851 91.168-91.168 91.168-91.168-40.851-91.168-91.168c0-31.831 16.348-59.873 41.097-76.181zm-94.991 202.56c-8.501-15.787-4.855-35.363 8.758-47.031a0.36 0.36 0 0 0 0.021-0.019c14.324-12.277 35.46-12.277 49.784 0 7e-3 7e-3 0.014 0.013 0.021 0.019 13.613 11.668 17.259 31.244 8.758 47.031l-21.615 40.142a13.69 13.69 0 0 1-24.112 0zm84.521-122.91 2.047-3.066a69.52 69.52 0 0 1 62.281-30.745c24.702 1.596 46.687 16.207 57.73 38.356a16.2 16.2 0 0 1 1.791 7.427 16.29 16.29 0 0 1-16.28 16.28c-6.464 0-12.053-3.775-14.68-9.238-5.879-11.742-17.55-19.486-30.661-20.333-13.163-0.851-25.781 5.378-33.109 16.345a4.38 4.38 0 0 1-0.864 0.962c-2.601 5.535-8.228 9.37-14.743 9.37a16.29 16.29 0 0 1-16.28-16.28 16.2 16.2 0 0 1 2.768-9.078zm-223.76 4.545c11.039-22.146 33.025-36.76 57.73-38.356a69.52 69.52 0 0 1 62.281 30.745l0.863 1.517a16.21 16.21 0 0 1 3.952 10.627 16.29 16.29 0 0 1-16.28 16.28c-6.214 0-11.62-3.489-14.364-8.614a28.18 28.18 0 0 1-1.242-1.718c-7.329-10.967-19.947-17.196-33.11-16.345-13.111 0.847-24.782 8.591-30.661 20.333-2.627 5.463-8.216 9.238-14.68 9.238a16.29 16.29 0 0 1-16.28-16.28 16.2 16.2 0 0 1 1.791-7.427zm324.44-169.34c26.738-18.241 61.814-44.063 84.404-67.97 43.613-46.155 16.513-83.682 10.606-90.778-6.432-5.573-13.684-9.381-21.179-10.572-8.894-1.412-16.035-1.075-21.987 1.423-9.37 3.933-15.359 12.718-21.416 24.176-8.84 16.725-16.714 38.739-27.641 64.157-13.125 30.531-33.39 53.993-52.124 70.767 16.318 1.762 32.996 4.52 49.337 8.797zm-253.73-8.797c-18.739-16.78-39.001-40.239-52.124-70.767-10.927-25.418-18.801-47.432-27.641-64.157-6.057-11.458-12.046-20.243-21.416-24.176-5.952-2.498-13.093-2.835-21.987-1.423-7.495 1.191-14.747 4.999-21.179 10.572-5.907 7.096-33.007 44.623 10.606 90.778 22.59 23.907 57.666 49.729 84.403 67.97 16.342-4.277 33.021-7.036 49.338-8.797zm46.617-176.65-26.896-63.322a16.28 16.28 0 0 1 0.248-13.284c1.968-4.191 5.628-7.346 10.063-8.676l117.39-35.176c4.402-1.32 9.157-0.717 13.09 1.659a16.28 16.28 0 0 1 7.561 10.814l26.739 136.86a16.82 16.82 0 0 1 0.173 1.072c5.404 14.505-5.435 34.481-25.776 46.225-21.855 12.618-46.457 10.985-54.903-3.645s2.44-36.752 24.295-49.37c6.731-3.887 13.723-6.421 20.425-7.641l-19.464-99.631-82.762 24.801 28.707 67.584c0.548 1.291 0.917 2.614 1.117 3.939 6.493 14.584-4.376 35.355-25.285 47.427-21.856 12.618-46.457 10.985-54.904-3.645s2.44-36.752 24.295-49.37c5.226-3.017 10.609-5.22 15.887-6.623z" style="fill:#56595b"/>
 </g>
</svg>
