<svg id="Camada_1" data-name="Camada 1" xmlns="http://www.w3.org/2000/svg" viewBox="0 0 192 192"><defs><style>.cls-1,.cls-4{fill:#54688c;}.cls-1{isolation:isolate;}.cls-13,.cls-14,.cls-15,.cls-2,.cls-9{fill:none;}.cls-3{fill:#281b15;}.cls-5{fill:#d4b79a;}.cls-6{fill:#835844;}.cls-7{fill:#8e6f60;}.cls-8{fill:#56595b;}.cls-9{stroke:#835844;}.cls-13,.cls-14,.cls-15,.cls-9{stroke-linecap:round;stroke-linejoin:round;stroke-width:0;}.cls-10{fill:#0436bd;}.cls-11{fill:#3c88ec;}.cls-12{fill:#c1a499;}.cls-13{stroke:#3c88ec;}.cls-14{stroke:#281b15;}.cls-15{stroke:#c1a499;}</style></defs><path id="rect8" class="cls-1" d="M42.1,8H149.9A10.07,10.07,0,0,1,160,18.1V173.9A10.07,10.07,0,0,1,149.9,184H42.1A10.07,10.07,0,0,1,32,173.9V18.1A10.07,10.07,0,0,1,42.1,8Z"/><path class="cls-2" d="M114.66,120.63s0,0,0-.06S114.66,120.61,114.66,120.63Z"/><path class="cls-2" d="M65.77,85.24h0c.09.65.37.93.77,1C66.14,86.17,65.86,85.89,65.77,85.24Z"/><path class="cls-2" d="M65.75,83.77a.68.68,0,0,0-.09-.25A.68.68,0,0,1,65.75,83.77Z"/><path class="cls-2" d="M113.16,117.21l-.6-.25.6.25Z"/><path class="cls-2" d="M65.76,84.59v0Z"/><path class="cls-2" d="M113.51,118.12a.84.84,0,0,1-.38-.08h0A.84.84,0,0,0,113.51,118.12Z"/><path class="cls-2" d="M104,122.31l0,0h0Z"/><path class="cls-2" d="M88.59,70.46h0c.14-.25.28-.35.4-.36C88.87,70.11,88.73,70.21,88.59,70.46Z"/><path class="cls-2" d="M79.73,88.25a1.62,1.62,0,0,1,.29-.37,1.62,1.62,0,0,0-.29.37Z"/><path class="cls-2" d="M91,86.45c-.07.13-.13.26-.19.39C90.89,86.71,91,86.58,91,86.45Z"/><path class="cls-2" d="M80.1,88.55a.7.7,0,0,0-.37-.3h0A.7.7,0,0,1,80.1,88.55Z"/><path class="cls-2" d="M91.13,86.27a1.2,1.2,0,0,1,.7-.5h0A1.2,1.2,0,0,0,91.13,86.27Z"/><path class="cls-2" d="M75.81,88.9,76,89l-.15-.14a2.21,2.21,0,0,1-.67-1.23h0A2.21,2.21,0,0,0,75.81,88.9Z"/><path class="cls-2" d="M92.76,86.48l.06.1-.06-.1Z"/><path class="cls-2" d="M107,118c.28-.36.56-.73.85-1.08C107.52,117.3,107.24,117.67,107,118Z"/><path class="cls-2" d="M105.06,120.73h0l.61-.9Z"/><path class="cls-2" d="M92.63,86a.69.69,0,0,0,0,.35A.69.69,0,0,1,92.63,86Z"/><path class="cls-2" d="M66.67,86.22h0Z"/><path class="cls-2" d="M75.11,87.48v0Z"/><path class="cls-2" d="M83.24,50.12c-.7.19-1.39.4-2.07.64.68-.24,1.37-.45,2.07-.64Z"/><path class="cls-2" d="M112.16,101.13h0l-.25.18Z"/><path class="cls-2" d="M110,96a.68.68,0,0,0,0-.19A.68.68,0,0,1,110,96Z"/><path class="cls-2" d="M63.6,73.41a2.69,2.69,0,0,0,.22.68h0A2.69,2.69,0,0,1,63.6,73.41Z"/><path class="cls-2" d="M110,96.18a2.29,2.29,0,0,0-.11.93l0,1.11c0-.37,0-.74,0-1.11A2.29,2.29,0,0,1,110,96.18Z"/><path class="cls-2" d="M111.78,79.2l-2-1.79,2,1.79Z"/><path class="cls-2" d="M112.69,76.08h0l.07,0Z"/><path class="cls-2" d="M109.38,79.24h0l.08,0Z"/><path class="cls-2" d="M111.77,100c.07.27-.07.7,0,1v0C111.7,100.69,111.84,100.26,111.77,100Z"/><path class="cls-2" d="M112.82,98.87v0Z"/><path class="cls-2" d="M112.32,100.8v0Z"/><path class="cls-2" d="M108.12,55.6l-.1-.1h0Z"/><path class="cls-2" d="M110.23,56.92a24.86,24.86,0,0,0-2.11-1.32A24.86,24.86,0,0,1,110.23,56.92Z"/><path class="cls-2" d="M118.8,71.35a10,10,0,0,0-.83-2.47c0-.15,0-.3,0-.44,0,.14,0,.29,0,.44A10,10,0,0,1,118.8,71.35Z"/><path class="cls-2" d="M95.67,65.67,95,65.5l.66.17Z"/><path class="cls-2" d="M95.92,52.23,95.66,52c-.35-.19-.71-.37-1.08-.53.37.16.73.34,1.08.53Z"/><path class="cls-2" d="M73.23,68.9a.59.59,0,0,1,0-.08.59.59,0,0,0,0,.08Z"/><path class="cls-2" d="M73.71,70.91l-.35.33Z"/><path class="cls-2" d="M72.49,73.12l1.16-1.32-1.16,1.32Z"/><path class="cls-2" d="M72.43,58.87l-.27.33Z"/><path class="cls-2" d="M72.24,73.42l.05-.09h0Z"/><path class="cls-2" d="M71.75,59.69c.14-.15.27-.32.41-.49-.14.17-.27.34-.41.49Z"/><path class="cls-2" d="M77,53l1-.65Z"/><path class="cls-2" d="M81.14,122.71l-.31.15Z"/><path class="cls-2" d="M96.23,52.18l.17,0Z"/><path class="cls-2" d="M129.75,140.6c-.15.07-.31.15-.47.21C129.44,140.75,129.6,140.67,129.75,140.6Z"/><path class="cls-2" d="M75.1,87.39v0Z"/><path class="cls-2" d="M83,121.82a6.88,6.88,0,0,0-.74.32A6.88,6.88,0,0,1,83,121.82Z"/><path class="cls-2" d="M93.42,87.13l-.2-.11Z"/><path class="cls-2" d="M93.09,86.91h0Z"/><path class="cls-2" d="M92.91,86.71v0Z"/><path class="cls-2" d="M80.07,120.66l-.06,0,.06,0Z"/><path class="cls-2" d="M86.11,107.46c-.25.14-.49.26-.74.38.25-.12.49-.24.74-.38Z"/><path class="cls-2" d="M91.72,86a.69.69,0,0,0,0,.13A.69.69,0,0,1,91.72,86Z"/><path class="cls-2" d="M80.19,88.78a.53.53,0,0,1,0,.13A.53.53,0,0,0,80.19,88.78Z"/><path class="cls-2" d="M72,89v0Z"/><path class="cls-2" d="M89.4,70.33l-.13-.12Z"/><path class="cls-2" d="M80.25,87.59l-.1.15Z"/><path class="cls-2" d="M80.15,87.74l-.13.14Z"/><path class="cls-2" d="M82.43,115.75l-.18-.2h0Z"/><polygon class="cls-2" points="82.25 115.55 82.25 115.55 82.25 115.55 82.25 115.55"/><path class="cls-2" d="M85.28,119.33c0,.84-.1,1.68-.16,2.52.06-.84.11-1.68.16-2.52-.06.13-.13.26-.19.4C85.15,119.59,85.22,119.46,85.28,119.33Z"/><path class="cls-2" d="M102.39,125l.23-.45.11-.09h0l-.11.09Z"/><path class="cls-2" d="M120.1,84.55a23.19,23.19,0,0,1-.57,3.69A23.19,23.19,0,0,0,120.1,84.55Z"/><path class="cls-2" d="M115.67,122.09l.08.11Z"/><path class="cls-2" d="M75.27,71.08l-.21,0,.21,0Z"/><path class="cls-2" d="M85,98.89l.09,0Z"/><path class="cls-2" d="M79.09,136l-.41.7Z"/><path class="cls-2" d="M78.47,137c-.36.63-.7,1.25-1,1.89C77.77,138.29,78.11,137.67,78.47,137Z"/><path class="cls-2" d="M83.41,100.56a2,2,0,0,1,1-1.39,2,2,0,0,0-1,1.39.32.32,0,0,0,.1.33A.32.32,0,0,1,83.41,100.56Z"/><path class="cls-2" d="M99.08,61.37c0,.13,0,.27-.06.41,0-.14,0-.28.06-.41a2.42,2.42,0,0,1-.54-.06A2.42,2.42,0,0,0,99.08,61.37Z"/><path class="cls-2" d="M84.48,99.13a1,1,0,0,1,.17-.1A1,1,0,0,0,84.48,99.13Z"/><path class="cls-2" d="M85.63,98.75h0Z"/><path class="cls-2" d="M80.52,133.68q.24-.24.45-.48-.21.24-.45.48Z"/><path class="cls-2" d="M95.64,62.64Z"/><path class="cls-2" d="M88.49,142.13h0c.76-.78,1.52-1.55,2.27-2.33C90,140.58,89.25,141.35,88.49,142.13Z"/><path class="cls-2" d="M83.08,121.78a2.74,2.74,0,0,1,2,.07l-.55,2.84c.18-1,.37-1.89.55-2.84A2.74,2.74,0,0,0,83.08,121.78Z"/><path class="cls-2" d="M79.19,135.81l1.13-1.9.1-.09-.1.09Z"/><path class="cls-2" d="M84.15,126.52l-.21.78Z"/><path class="cls-2" d="M77.44,138.93c-.27.51-.52,1-.76,1.56C76.92,140,77.17,139.44,77.44,138.93Z"/><path class="cls-2" d="M90.6,102.6s0,0,0-.06,0,0,0,.06Z"/><path class="cls-2" d="M132.44,135.43l-.12-.07c-.12-.08-.95-.65-.9.21,0,.5-.11.64-.45.77-.1,0-.22.09-.07.15.49.19,1,.36,1.48.54h0"/><polygon class="cls-2" points="97.06 62.55 97.06 62.55 97.06 62.55 97.06 62.55"/><path class="cls-2" d="M95,103.52h0l-.06.06Z"/><polygon class="cls-3" points="114.98 120.79 114.98 120.79 114.98 120.79 114.98 120.79"/><path class="cls-4" d="M104,122.29h0Z"/><path class="cls-5" d="M103.62,122.75a3.54,3.54,0,0,1-.16.34c-.07.11-.14.23-.22.34l-.43.74c0,.1-.06.19-.08.29l-.11.09h0a1.63,1.63,0,0,1-.11.23l0,.09s0,0,0,0,0,.07-.06.11v0h0l0,0-.33.17a3.17,3.17,0,0,0-.36.23l-.3.21a2.91,2.91,0,0,0-.33.26l-.29.23c-.33.29-.66.58-1,.86a3.47,3.47,0,0,1-.37.3s0,.13,0,.19a.92.92,0,0,0,.29-.11c.8-.55,1.6-1.11,2.4-1.65l-.07.18c0,.1-.09.2-.13.3l-.2.41-.13.27-.3.56c-.14.26-.29.51-.45.76s-.23.36-.35.53-.26.4-.4.59c-.8,1.12-1.7,2.19-2.61,3.27-.4.47-.8.92-1.21,1.38s-.81.91-1.22,1.37l-.82.9c-.55.6-1.11,1.19-1.67,1.78l-1.69,1.76-.58.59c-.39.41-.78.81-1.18,1.21H76.21c.15-.38.31-.77.46-1.11.25-.53.51-1.05.77-1.56s.67-1.26,1-1.88l.22-.38.4-.7.1-.16c.38-.64.76-1.27,1.13-1.91a.39.39,0,0,0,.1-.08l.1-.15c.16-.15.3-.31.45-.47a14.33,14.33,0,0,0,3-5.9c.07-.26.14-.52.2-.78.16-.6.3-1.22.43-1.83.18-1,.37-1.9.55-2.84s.11-1.68.16-2.52c0-.59,0-1.16,0-1.74,1.37,0,2.75.47,4.09,0l.06,0,.24-.06a1,1,0,0,1,.24,0h.2a3.72,3.72,0,0,1,1.32.29l.64.23a4.15,4.15,0,0,0,.63.16h0c.48.08,1,0,1.46.14a3.24,3.24,0,0,1,2,1.68.62.62,0,0,0,.09.12.56.56,0,0,0,.21.17l.14,0c.26.06,1.15-.29.31.49l0,0s0,0,0,0a0,0,0,0,0,0,0v0a0,0,0,0,1,0,0s0,0,0,0a.21.21,0,0,0,.14.07h0s0,0,0,0l1.92.1,1.93.12a.85.85,0,0,1,.22,0,.72.72,0,0,1,.19.11c.25.21.22.21.37,0a.33.33,0,0,1,.31-.1c.12,0,.32.21.3.25-.35,1,.66.69,1,1a.38.38,0,0,0,.13.09h0A.61.61,0,0,1,103.62,122.75Z"/><polygon class="cls-6" points="74.6 70.09 74.6 70.1 74.6 70.1 74.6 70.09"/><polygon class="cls-6" points="74.78 65.68 74.78 65.68 74.79 65.68 74.78 65.68"/><path class="cls-5" d="M100.41,86.43c.08-.16-.16-.11-.26,0s-.15.3-.25.31a5.74,5.74,0,0,0-2.29.91A8.13,8.13,0,0,1,95,88.76c-.78.18-.85.06-.76-.1.38-.81-.47-.46-.67-.73-.41.36-.92,0-1.37.16-.17.06-.4-.07-.61-.11a3.06,3.06,0,0,1,.48-.17c.39-.07.78-.12,1.17-.16s.47-.14.36-.48l-.14,0-.2-.11-.13-.11s0,0,0,0-.11-.12-.17-.18h0l-.08-.12-.07-.1a0,0,0,0,1,0,0,0,0,0,0,1,0,0,.08.08,0,0,1,0,0,.12.12,0,0,1,0,0,.52.52,0,0,1,0-.25V86s0,0,0-.07h0l-.07,0c-.06,0-.11-.12-.17-.18l0-.07a.3.3,0,0,0-.31-.08h0c-.06,0-.12.12-.17.17h0a1.28,1.28,0,0,0-.11.24.69.69,0,0,0,0,.13c-.09.26-.16.56-.27.81a1.13,1.13,0,0,1-1.38.76c-.15,0-.32.27-.51.35s-.5.27-.48-.1.8-.65.53-1-.8.31-1,.2c-.61-.25-.25.7-.71.48a3.08,3.08,0,0,0,.21.53,2.35,2.35,0,0,1,.09,2.69,1,1,0,0,0,.12,1.52c.26.27.5.57,0,1-.27.2-.66.79-.21,1a5.39,5.39,0,0,1,2.11,2.26c.29.44.31,1.06.93,1.27.06,0,.09.14.14.21s-.14.07-.18,0c-.66-.37-.6.25-.58.51s0,.36-.29.43c-.84.25-1,1.42-2,1.48a1.09,1.09,0,0,0,0,.46c.18.46,0,.56-.41.49-.57-.12-1.1.18-1.63.12-1.09-.11-2.33.73-3.24-.36a2.23,2.23,0,0,0-1.2-.79,4.92,4.92,0,0,1-1.36-.73c-.1-.06-.15-.2-.22-.31.13,0,.3-.06.38,0,1.24.89,2-.11,2.58-.84.7-.91.49-2.27.34-3.25a12.48,12.48,0,0,1,.17-4.37c.35-1.73.12-3.47.47-5.18.23-1.11.25-2.32,1.12-3.09A17.28,17.28,0,0,1,89,80a16.84,16.84,0,0,1,5-1.49H95.1c.54,0,1.35.1,1.53-.18.48-.74.06-1.67-.08-2.47-.11-.64-.23-1.56-1.19-1.78-.1,0-.24-.42-.18-.48.58-.6-1-.47-.34-1-1.13-.59-2-1.61-3.16-2.12-.73-.33-1.26.68-2,.17a1.84,1.84,0,0,1-.28-.28.74.74,0,0,0-.13-.12.31.31,0,0,0-.13-.08.4.4,0,0,0-.15,0c-.12,0-.26.11-.4.36h0a4.52,4.52,0,0,1-1.23.51c-1.76.23-3.28,1.11-4.93,1.62a.17.17,0,0,0-.1.13c0,1-.73,1.3-1.36,1.69a6.22,6.22,0,0,0-2.74,3.44c-.26.8-.26,1.74-1,2.41s-.69,1.59.34,2a9.14,9.14,0,0,1,2.17,1.73,2.07,2.07,0,0,1,.52,2.58c-.07.09-.16.24-.13.28a.58.58,0,0,1,.09.68l-.1.15a.46.46,0,0,1-.07.07l-.06.07-.17.18-.06.1s0,0,0,.06l0,0h0a1,1,0,0,1,.21.12.38.38,0,0,1,.09.09.35.35,0,0,1,.07.09.37.37,0,0,1,.05.11.56.56,0,0,1,0,.12.53.53,0,0,1,0,.13.52.52,0,0,1,0,.11.11.11,0,0,1,0,.08l0,.05a.05.05,0,0,1,0,0c-.15.06-.39-.18-.53-.1l-.23.11h0l0,0h0l-.16.06a.68.68,0,0,1-.2.07l-.31.1-1,.22c-.23,0-.45.1-.67.17-.93.27-2-.17-2.84.46-.52-.71-1.63,0-2.08-.91v-.11c0-.08,0-.16,0-.24h0L71.83,89l-.12-.07c-.12-.09-.24-.18-.37-.26l-.44-.21c0,1.47,0,2.93.06,4.4a30.61,30.61,0,0,0,1.69,8v0c.29,1,.56,1.94.76,2.93,0,0,0,0,0,.06s0,0,0,0a.08.08,0,0,0,0,0v0c0,.13.06.26.08.39s0,.06,0,.1,0,.14,0,.21,0,.29.07.42l.09.63c0-.61-.06-1.22-.07-1.83a3.2,3.2,0,0,1,.07-.41,1.25,1.25,0,0,1,.31.23c2.38,3.53,4.75,7.08,7.12,10.62.11.12.22.24.32.37l.31.36h0l.43.51h0l.17.19h0a5.58,5.58,0,0,0,.61.58,6,6,0,0,0,1.2.74l.32.13.15,0c.62-.14,1.26-.27,1.87-.35l.6-.08c1.67-.15,2.46-1.48,3.71-2.15a.23.23,0,0,0,0-.2c-.39-.53-.05-.71.39-.83s.19-.69.58-.82c-.37-.79.51-1.18.57-1.82,0-.37,1-.81,0-1.12-.43-.13-.91-.51-1.23.18-.35-.45-1.08-.41-1.29-.59-.86-.73-1.64-.23-2.38-.09-1.65.33-3.22.47-4.65-.63-.07,0-.1-.14-.16-.21.1,0,.2-.14.3-.14a6.88,6.88,0,0,0,3.12-.93s0,0,0,0h0a1.44,1.44,0,0,1,.37-.19c.52-.06.48-.51.54-.83s-.26-.26-.5-.29a13.61,13.61,0,0,0-1.86.19,32.42,32.42,0,0,1-4.49-.48,1.16,1.16,0,0,1-.9-.56,3.64,3.64,0,0,1,.66-.32,8.33,8.33,0,0,1,1.21-.23,28.61,28.61,0,0,0,3.72-.43,13.51,13.51,0,0,1,4-.72c1.21.07,1.7-1.4,2.89-1.35,0,0,0-.08,0-.12a.84.84,0,0,1,.71-.68c.51-.11.53-.39.15-.61s.34-.59.07-.93c0,0-.1,0-.15.06-.43.17-.25-.4-.59-.48s.55-.33.25-.71c0,0,.11-.09.14-.08,1,.54,2.11-.25,3.2,0,.36.09.75.45,1.27.18s1.66-1.9,1.54-2.48a.2.2,0,0,1,0-.16c.61-.24.5-.81.46-1.21-.1-.92.86-1.69.26-2.71-.31-.53-.17-1.07.72-.77.21.08.11-.17.07-.29l-.27-.86c.94.13.73-.86,1.16-1.25C101.87,88.2,100,87.47,100.41,86.43Z"/><path class="cls-7" d="M85.09,119.73a.5.5,0,0,1-.67.31c-.46-.16-.45-.19-1,.38a1.32,1.32,0,0,1-.41.21,2.7,2.7,0,0,0,.14-.4c0-.35.09-.7.13-1.06a.77.77,0,0,0-.76.67c-.2,1.23-1.27,1.4-2.13,1.75a26.91,26.91,0,0,1-2.85.88s-.24.18-.19,0a1.79,1.79,0,0,1,.35-.56,2.79,2.79,0,0,0,1.22-.68c1.2-.8,2.58-1.4,3.3-2.78a7.1,7.1,0,0,0,.3-.81c-.36,0-.31.4-.49.58l-.26.2a1.94,1.94,0,0,1,0-.34c.06-.82.75-1.57.23-2.46-.08-.14.19,0,.28,0l-.43-.52c-.7.36-.51,1.21-1,1.72-1.36,1.5-2.08,3.61-4.18,4.41-.51.19-1,.29-1.58.44a3.08,3.08,0,0,0-.38.16c.14,0,1.3.86.5,1.28,0,0,0,.11,0,.11a.68.68,0,0,0,.2.07c.89.16,2.77.21,2.75.27s.12.05.17,0c.52-.11,1-.25,1.55-.34a4.41,4.41,0,0,0,1-.32l.31-.15.16-.08.92-.49a6.88,6.88,0,0,1,.74-.32l.12,0a2.74,2.74,0,0,1,2,.07c.06-.84.11-1.68.16-2.52C85.22,119.46,85.15,119.59,85.09,119.73Z"/><path class="cls-8" d="M80.32,133.9c-.37.64-.75,1.27-1.13,1.91l-.1.16-.4.7-.22.38c-.36.62-.7,1.24-1,1.88s-.52,1-.77,1.56c-.15.34-.3.73-.43,1.11H73.77a2.13,2.13,0,0,1,.48-.56l.06-.06.06-.06.11-.13c1.74-2.21,3.54-4.37,5.33-6.54A2.7,2.7,0,0,1,80.32,133.9Z"/><path class="cls-7" d="M116,87.49c0-.1,0-.21,0-.31a2.88,2.88,0,0,0-.27.22c-.07.07-.12.16-.18.23a1.91,1.91,0,0,1-.06-.33,9.28,9.28,0,0,0-.42-3.4c-.16-.42-.3-1-.8-1a1.39,1.39,0,0,0-1,.66,1,1,0,0,1-1.07.34c-.41-.1-.09-.39-.09-.6a.65.65,0,0,0-.08-.27c-.08,0-.19.07-.22.13-.31.65-.62,1.3-.91,1.95a.26.26,0,0,0,0,.21.16.16,0,0,0,.15,0c1-.66,1.9.07,2.69.49a1.13,1.13,0,0,1,.27,1.7c-.26.36-.69.11-.83,0-.49-.6-1.17-.54-1.79-.67-.43-.08-.6.07-.35.52s.55.77.31,1.15-.48.62-.2,1,.77.1,1.16.1c.22,0,.54-.32.63,0s-.27.49-.57.6-.89,0-1,.54c-.11.69-.64.39-1,.48S110,91,110,90.7c0-.08-.1-.17-.15-.25s-.15.1-.14.14a1.38,1.38,0,0,1-.43,1.4c-.27.27,0,1-.32.92-.5-.06,0-.57-.08-.88a1,1,0,0,1-.06-.16,13.88,13.88,0,0,1-.74-2.35c-.28-2-.43-3.92-.89-5.86-.29-1.26-.28-2.73-1.36-3.53a21.18,21.18,0,0,1-4.4-4.52,15.08,15.08,0,0,0-4.36-3.94c-.91-.57-1.71-1.3-2.68-1.82s-1.51-1.15-2.58-.79c-.27.1-.4-.17-.56-.41-.45-.72-.81.54-1.29.1a1.38,1.38,0,0,0-.13.28c0,.19.35.4.05.54s-.35-.26-.51-.42-.76-.59-.78-.49c-.19.86-1.07.93-1.55,1.08a14.77,14.77,0,0,1-3.55.67,8.84,8.84,0,0,0-5.1,2.41s-.18,0-.26,0c-.39-.09-.89-.37-1.14-.22a5.5,5.5,0,0,0-2.22,1.83c-.66,1.13-1.61,2-1.79,3.5a30,30,0,0,1-.62,3c0,.21.13.26.29.27a10,10,0,0,1,5.27,2.3.61.61,0,0,1,.21.29S78,83.87,78,84c-.33-.43-.69.08-1.06,0a11.93,11.93,0,0,0-4.48-.62c-.19,0-.38,0-.47.25-.25.65-.53,1.28-.77,1.93s-.59.66-.95.06c-.14-.24-.27-.62-.57-.57s-.23.45-.35.69c-.28.58-.47,1.24-1.35,1.14-.58-.06-.12-.52-.34-.69a.29.29,0,0,0-.26,0,2.62,2.62,0,0,1-.59.16h-.26c-.34,0-.63-1.18-.77-1.92a1.93,1.93,0,0,0,0-.24,1.37,1.37,0,0,0,0-.29l0-.1h0s0,0,0,0,0-.08,0-.11a.36.36,0,0,0-.07-.1l-.08-.07a.44.44,0,0,0-.19-.07c-1.06-.18-.77-1-.56-1.37a5.49,5.49,0,0,0,.15-3.32,5.43,5.43,0,0,0-.09-.56c-.25-1.29-.8-2.77-1-4.06.18-1.06.37-2.12.52-3.17a7.57,7.57,0,0,1,1.16-2.9l.15-.23a.09.09,0,0,1,.06-.06,2.46,2.46,0,0,1,.69-.33c-.12.22-.25.42-.36.64s-.25.44-.2.49c.56.57.1,1-.13,1.4a.67.67,0,0,0-.1.21,1.2,1.2,0,0,1-.11.23.42.42,0,0,0,0,.45l0,0a2,2,0,0,1,.21-.2,1.66,1.66,0,0,0,.24-.3,7.58,7.58,0,0,1,1.73-2.35A1,1,0,0,1,68,67.7a1.29,1.29,0,0,1-.08.28c-.61.9-1.24,1.78-1.82,2.69a2.82,2.82,0,0,0-.35.72,1.29,1.29,0,0,0,0,.91c.09.28.5-.18.4.27s-.19,1-.32,1.56c0,.07,0,.15-.08.23a.86.86,0,0,0-.1.72l.1-.14a3.72,3.72,0,0,1,.34-.47,2.06,2.06,0,0,1,.4-.29l.4-.34-.39-.1c0-.07.07-.18.14-.21.87-.47,1.22-1.37,1.81-2.07s1-1.81,2.12-2.18c-.52.87-1,1.74-1.54,2.62l-1.53,2.64a1.07,1.07,0,0,0-.08.41,1.7,1.7,0,0,0,.3-.3c.4-.6.77-1.21,1.16-1.81.07-.09.23-.11.34-.16a1,1,0,0,1,0,.35c-.32.67-.66,1.33-1,2a1,1,0,0,0-.07.25.17.17,0,0,0,.13.07,2.88,2.88,0,0,0,1.69-1.71c.32-.64.7-1.23,1.06-1.84,0-.06.16-.08.24-.11l0,.2c-.09.29-.48.42-.39.78.22-.22.45-.44.65-.68s.34-.47.53-.68a1.21,1.21,0,0,1,.32-.22.92.92,0,0,1-.09.38c-.35.49-.7,1-1.08,1.48-1,1.29-1.69,2.86-3.22,3.78-.52.31-.78,1.06-1.15,1.62a1.05,1.05,0,0,0-.13.26c.11,0,.28,0,.31-.07.32-.53.88-.79,1.27-1.21a24.79,24.79,0,0,0,2.6-3.26c.35-.53,1-.48,1.29-1.09a5.33,5.33,0,0,1,1.26-1.74l.17-.16.18-.17.89-.81h0a3.3,3.3,0,0,1,.6-1.18c.19-.23.67-.58.38-.84a.89.89,0,0,0-1.25.08,7.54,7.54,0,0,1-1.12.75l0-.08a.89.89,0,0,1,.16-.25l2.72-2.64c.08-.07.1-.2.15-.3l-.35.09c-.16,0-.38.4-.39.17,0-.68-.3-.17-.4-.1a.69.69,0,0,1-.26.13c-.05,0-.1-.06-.12-.24-.48,0-.7.44-1,.66a7.48,7.48,0,0,1-.74.39c0-.35.34-.46.56-.65.43-.36,1.19-.59,1.08-1.21-.06-.34-.5-.67-.39-1.16-.12,0-.26-.07-.36,0-.3.14-.45.54-.85.52a8.69,8.69,0,0,0,.67-.83,4,4,0,0,0,.32-.74,2.24,2.24,0,0,0,.11-.34,2.59,2.59,0,0,0-.37.11c-.18.05-.37.33-.52.12s.13-.37.25-.52.32-.28.47-.43a1.7,1.7,0,0,0,.15-.22.92.92,0,0,0-.29,0l-2.36,1.19c-.15.07-.31.12-.48.18a4.35,4.35,0,0,0,.34-.41c.32-.58,1.46-.48,1.26-1.51a.15.15,0,0,1,0-.08c.36-.48,1.23-.77.63-1.64-.05-.07,0-.18,0-.28A1.69,1.69,0,0,0,73,59c-.38.31-.67.72-1.21.74.13-.15.27-.32.4-.49l.06-.08.21-.25a1.6,1.6,0,0,1,.47-.36c1.32-.63,2.16-1.79,3.24-2.68.08-.06.17-.24.15-.26-.51-.54.2-.91.33-1.08a7.75,7.75,0,0,1,3.23-2.16A27.52,27.52,0,0,1,83.65,51a18.21,18.21,0,0,1,4.59-.63,9.71,9.71,0,0,1,1.21.1,17,17,0,0,0,2.11.22,5.44,5.44,0,0,0,.57,0A11.65,11.65,0,0,0,89,49.93c-.1,0-1.05-.06-2-.06-.64,0-1.29,0-1.72,0l-.58,0-1.41.18h0c-.71.19-1.4.4-2.08.64a13.25,13.25,0,0,0-3.23,1.63L77,53l-.52.34c-.35.24-5.6,4.6-6.86,7.11-.17.35-2.3,3.41-3.87,6.18-.08.13-.15.25-.21.37a12.07,12.07,0,0,0-1.5,3.5q0,.33-.12.66a5.41,5.41,0,0,0-.3,2.21,36.29,36.29,0,0,0,.16,4.18A61,61,0,0,0,64.88,84c.18.56.43,1.31.64,1.84a3.09,3.09,0,0,0,.21.49.54.54,0,0,0,.07.12,7.87,7.87,0,0,0,2.08,1.2c.24.2.43.24.57.18a.4.4,0,0,0,.16-.13l.1-.13c0-.09.08-.2.12-.31.16-.51,1.74-.1,1.78,0a2.34,2.34,0,0,1,.29,1.15l.44.21c.49-.41.33-1,.47-1.58a1.11,1.11,0,0,1,.29-.5c.4-.39,3.16-1.27,3.64-1a.32.32,0,0,1,.12.11.91.91,0,0,1-.22.11c-.43.12-1.15,0-1.16.55s.63.1,1,.13a7.61,7.61,0,0,1,2.3.57,7,7,0,0,1,2,1.27h0l0,0s0,0,0-.06l.06-.1.17-.18.06-.07a.46.46,0,0,0,.07-.07l.1-.15a.58.58,0,0,0-.09-.68s.06-.19.13-.28a2.07,2.07,0,0,0-.52-2.58,9.14,9.14,0,0,0-2.17-1.73c-1-.46-1.18-1.24-.34-2s.7-1.61,1-2.41A6.22,6.22,0,0,1,81,74.42c.63-.39,1.4-.72,1.36-1.69a.17.17,0,0,1,.1-.13c1.65-.51,3.17-1.39,4.93-1.62a4.52,4.52,0,0,0,1.23-.51h0l-.09,0,0,0a.36.36,0,0,1,0,.09h0c.14-.25.28-.35.4-.36a.4.4,0,0,1,.15,0,.31.31,0,0,1,.13.08.74.74,0,0,1,.13.12,1.84,1.84,0,0,0,.28.28c.74.51,1.27-.5,2-.17,1.19.51,2,1.53,3.16,2.12-.63.58.92.45.34,1-.06.06.08.46.18.48,1,.22,1.08,1.14,1.19,1.78.14.8.56,1.73.08,2.47-.18.28-1,.13-1.53.18.91.17,1.8.38,2.71.5a10.54,10.54,0,0,1,3.33,1.45.07.07,0,0,1,0,0s0,.09,0,.14a.19.19,0,0,0,0,.07c-.08,0-.18,0-.27,0l-.08,0a8.69,8.69,0,0,0-.94-.32c-.32-.08-.64-.15-1-.2a15.37,15.37,0,0,0-4.64,0c-.07,0-.14.1-.2.16l.08,0c1.11-.22,1.46.15,1.11,1.27-.27.86-1,.35-1.53.61s-1.2.22-1.76.47-1,0-1.46-.15c0,0-.08-.06-.12-.11l0-.05a.88.88,0,0,0,.21-.12,12.81,12.81,0,0,1,3.46-1.94l-.28,0-.26,0-.52.13h0l-.47.13-.48.16-.2.08c-.18.07-.37.13-.54.21l-.64.29-.51.27c-.15.07-.3.16-.44.24l-.47.28-.46.29-.14.09-.15.08-.15.07-.14.06a.74.74,0,0,1-.44,0l-.12,0a.42.42,0,0,1-.12-.08h0a1,1,0,0,1-.19-.32h.07a.56.56,0,0,1,.31,0,.61.61,0,0,0,.38.06l.08,0h0l0,0a.34.34,0,0,0,0-.36.74.74,0,0,1,0-.29.18.18,0,0,1,0-.1.53.53,0,0,1,0-.12.54.54,0,0,1,0-.11.22.22,0,0,1,.07-.09.35.35,0,0,1,.07-.09l.06,0,0,0a.26.26,0,0,1,.1,0,2.43,2.43,0,0,0,.43-.12l.17-.08a7.08,7.08,0,0,0,1.3-1,2.43,2.43,0,0,1,.25-.2,2.41,2.41,0,0,1,.36-.23.88.88,0,0,1,.2-.09.9.9,0,0,1,.21-.08,1.45,1.45,0,0,1,.3-.06l.3,0h.16l.35,0,.12,0a1.56,1.56,0,0,0,.55-.15l.09,0,.11-.08a.47.47,0,0,0,.1-.1.26.26,0,0,0,.09-.09l.11-.14A16.84,16.84,0,0,0,89,80a17.28,17.28,0,0,0-3.86,2.65c-.87.77-.89,2-1.12,3.09-.35,1.71-.12,3.45-.47,5.18a12.48,12.48,0,0,0-.17,4.37c.15,1,.36,2.34-.34,3.25-.55.73-1.34,1.73-2.58.84-.08-.06-.25,0-.38,0,.07.11.12.25.22.31a4.92,4.92,0,0,0,1.36.73,2.23,2.23,0,0,1,1.2.79c.91,1.09,2.15.25,3.24.36.53.06,1.06-.24,1.63-.12.36.07.59,0,.41-.49a1.09,1.09,0,0,1,0-.46c1-.06,1.19-1.23,2-1.48.25-.07.33-.13.29-.43s-.08-.88.58-.51c0,0,.12,0,.18,0s-.08-.19-.14-.21c-.62-.21-.64-.83-.93-1.27A5.39,5.39,0,0,0,88,94.3c-.45-.21-.06-.8.21-1,.5-.39.26-.69,0-1a1,1,0,0,1-.12-1.52A2.35,2.35,0,0,0,88,88.13a3.08,3.08,0,0,1-.21-.53c.46.22.1-.73.71-.48.25.11.74-.66,1-.2s-.51.65-.53,1,.33.15.48.1.36-.37.51-.35A1.13,1.13,0,0,0,91.4,87c.11-.25.18-.55.27-.81a.69.69,0,0,1,0-.13,1.28,1.28,0,0,1,.11-.24h0l-.19.08a.72.72,0,0,0-.19.11,1.07,1.07,0,0,0-.16.14l-.13.16a1.74,1.74,0,0,0-.11.18.21.21,0,0,0,0,.07c-.06.11-.11.21-.16.32l-.09.19a.53.53,0,0,1-.67.33c-.32-.1-.18-.46-.09-.62a4.15,4.15,0,0,1,3.38-2.29c.35,0,.53-.21.41-.49-.27-.68.18-.56.54-.53a5.8,5.8,0,0,1,4.12,1.63c.28.29.81.16,1.22,0,.12,0,.27,0,.4-.09a1,1,0,0,1-.14.41,5.76,5.76,0,0,1-3.79,1.9.51.51,0,0,1-.17,0c0-.06,0-.13.08-.15s.32-.19.48-.27.71-.27.61-.44a2,2,0,0,0-1-.7c-.32-.09-.27.35-.35.55-.42,1.09-1.36,1-2.24,1,.11.34,0,.46-.36.48s-.78.09-1.17.16a3.06,3.06,0,0,0-.48.17c.21,0,.44.17.61.11.45-.16,1,.2,1.37-.16.2.27,1-.08.67.73-.09.16,0,.28.76.1a8.13,8.13,0,0,0,2.65-1.09,5.74,5.74,0,0,1,2.29-.91c.1,0,.17-.2.25-.31s.34-.18.26,0c-.45,1,1.46,1.77.42,2.72-.43.39-.22,1.38-1.16,1.25l.27.86c0,.12.14.37-.07.29-.89-.3-1,.24-.72.77.6,1-.36,1.79-.26,2.71,0,.4.15,1-.46,1.21a.2.2,0,0,0,0,.16c.12.58-1,2.2-1.54,2.48s-.91-.09-1.27-.18c-1.09-.25-2.15.54-3.2,0,0,0-.09,0-.14.08.3.38-.49.63-.25.71s.16.65.59.48c.05,0,.14-.08.15-.06.27.34-.59.63-.07.93s.36.5-.15.61a.84.84,0,0,0-.71.68s0,.12,0,.12c-1.19,0-1.68,1.42-2.89,1.35a13.51,13.51,0,0,0-4,.72,28.61,28.61,0,0,1-3.72.43,8.33,8.33,0,0,0-1.21.23,3.64,3.64,0,0,0-.66.32,1.16,1.16,0,0,0,.9.56,32.42,32.42,0,0,0,4.49.48,13.61,13.61,0,0,1,1.86-.19c.24,0,.56-.08.5.29s0,.77-.54.83a1.44,1.44,0,0,0-.37.19h0l0,0h0l0,0a.21.21,0,0,1,0-.06h0a0,0,0,0,0,0,0,6.88,6.88,0,0,1-3.12.93c-.1,0-.2.1-.3.14.06.07.09.16.16.21,1.43,1.1,3,1,4.65.63.74-.14,1.52-.64,2.38.09.21.18.94.14,1.29.59.32-.69.8-.31,1.23-.18,1.08.31.09.75,0,1.12-.06.64-.94,1-.57,1.82-.39.13-.15.71-.58.82s-.78.3-.39.83a.23.23,0,0,1,0,.2c-1.25.67-2,2-3.71,2.15l-.6.08c-.61.08-1.25.21-1.87.35l.56.35c1.37,0,2.75.47,4.09,0l.06,0,.24-.06a1,1,0,0,1,.24,0h.2a3.72,3.72,0,0,1,1.32.29l.64.23a4.15,4.15,0,0,0,.63.16h0c.48.08,1,0,1.46.14a3.24,3.24,0,0,1,2,1.68.62.62,0,0,0,.09.12.56.56,0,0,0,.21.17l.14,0c.26.06,1.15-.29.31.49l0,0s0,0,0,0a0,0,0,0,0,0,0v0a0,0,0,0,1,0,0s0,0,0,0a.27.27,0,0,0,.14.07h0l1.92.11,1.93.12a.85.85,0,0,1,.22,0,1.18,1.18,0,0,1,.19.11c.25.21.22.21.37,0a.33.33,0,0,1,.31-.1c.12,0,.32.21.3.25-.35,1,.66.69,1,1a.6.6,0,0,0,.13.09h0l.15.07.24-.25.11-.19v0h0c.35-.52.7-1,1.06-1.55.2-.3.4-.61.6-.9.42-.61.86-1.21,1.31-1.8a1.25,1.25,0,0,1,.15-.19s0,0,0,0c.22-.3.45-.58.68-.87h0c.33-.4.67-.79,1-1.18a2.25,2.25,0,0,0,.41-2.28,36.37,36.37,0,0,1-1.45-5.77c-.24-2.52-1.11-5.08,0-7.58.87-2-.24-4.66,2.06-6.27.52-.36,1-.55,1.35-.24.71.72,1,.24,1.4-.26a3.32,3.32,0,0,1,.41-.43C114.69,91.51,116.16,90,116,87.49ZM73.16,69l0-.05.09,0A.93.93,0,0,1,73.16,69Zm-1.43-9.3v0h0l-.36.33h0L71.3,60l.22-.12Zm-1.17,9.55h0l0-.1.06,0-.1.05h0ZM87,99.41a1.07,1.07,0,0,1-.14.16.45.45,0,0,1-.28.18c-1,0-1.53.85-2.31,1.21a.57.57,0,0,1-.6,0l-.11-.08a.33.33,0,0,1-.1-.34,2,2,0,0,1,1-1.38l.08,0a1,1,0,0,1,.17-.1,2.67,2.67,0,0,1,.36-.14l.09,0a2.39,2.39,0,0,1,.52-.1h.29a1.86,1.86,0,0,1,1,.3.46.46,0,0,1,.14.21S87,99.36,87,99.41Zm8,4.15,0,0a.52.52,0,0,1-.17.16s0,0,0,0c-.36.17-.72.33-1.08.46-.2.08-.41.15-.63.22l-.31.1-.23.06a4.27,4.27,0,0,1-.48.13,3.78,3.78,0,0,1-.56.13c-1.87.43-3.8.58-5.71.83a1.63,1.63,0,0,1-.31,0l-.63,0h-.31a.64.64,0,0,1,.38-.21l.18,0a3.16,3.16,0,0,0,.69,0c2.94-.72,6-1.05,8.83-2.06.06,0,.12,0,.23,0l.13.07,0,0h0Z"/><path class="cls-7" d="M81.18,114.3c-2.37-3.54-4.74-7.09-7.11-10.62a23.61,23.61,0,0,1-1.42-2.87c0,.13.78,3,.81,3.12.12.66.26,1.38.29,1.76.18,2.28,2,7.29,2,8.17,0,.23.19,3.56-.56,4l-.18.52c.16,0,1,.28,1.21.3h.09l.24,0a1.38,1.38,0,0,0,1.09-1c1.64-.64,2.46-2.13,3.54-3.35l.64.73C81.61,114.79,81.4,114.54,81.18,114.3Z"/><path class="cls-9" d="M95.66,52l.26.19"/><path class="cls-7" d="M114.55,78.69a.41.41,0,0,0-.06-.11c-.51-.78-1-1.56-1.54-2.33a.53.53,0,0,0-.19-.13l-.07,0s0,.1,0,.16a.33.33,0,0,0,0,.14c.18.51.38,1,.55,1.53a1.14,1.14,0,0,1,0,.32,1.23,1.23,0,0,1-.29-.09c-.18-.15-.35-.31-.53-.48.06.2.15.38.19.57.07.38-.35.31-.43.3-.69-.07-.49.32-.4.67l-.42-.37-.58-.53-1-.89a1,1,0,0,0-.26-.12.79.79,0,0,0,.09.23c.47.67.47.66.11,1.13a.27.27,0,0,0,0,.18c0,.36,0,.36-.24.38a.05.05,0,0,0,0,0h0a1.86,1.86,0,0,1,.11.19c.27.44,1,.53.91,1.3,0,.11.51.32.78.47a.28.28,0,0,0,.16,0c.1-.29-.23-.26-.32-.42s0-.1,0-.15l.4.05c.3,0,.6.06.89.06a1.92,1.92,0,0,0,1.41-.51l-.08-.07.08.06h0a.3.3,0,0,1,.11.06c.17.09.34.2.11.37s-.25.16-.17.31.44.16.67.14c.07,0,.19-.24.18-.25C113.93,80.16,113.66,79.45,114.55,78.69Zm-2.67.7h0a1.19,1.19,0,0,1-.08-.16l0,0h0a0,0,0,0,1,0,0,.76.76,0,0,1,.11.14Z"/><path class="cls-7" d="M112.8,97.85a4.76,4.76,0,0,0-.08-.66c-.08-.45-.19-.89-.31-1.34-.18-.61-.32-1.34-1.16-1.45,0,.26,0,.52-.18.66a.47.47,0,0,1-.2.07h0l-.13.25a2.56,2.56,0,0,0-.11.24,2.79,2.79,0,0,0-.14.47,2.91,2.91,0,0,0,0,.31.15.15,0,0,0,0,.07,2.62,2.62,0,0,0,0,.28v.16a.33.33,0,0,1,0,.2s0,0,0,0-.38-.18-.49,0c0,.37,0,.74,0,1.11.33.49.76.06,1.14.09a7.93,7.93,0,0,0,1.27-.13,4.53,4.53,0,0,1,0,1,2.74,2.74,0,0,0,0,.28c0,.09,0,.19,0,.28a2.87,2.87,0,0,1-.11.57,2.41,2.41,0,0,1-.16.42l-.13.2h0a.49.49,0,0,1,0,.11h0l.35,0c.06-.1.11-.2.16-.3l0,0a5.24,5.24,0,0,0,.49-1.93v0c0-.22,0-.43,0-.65Zm-2.66,0,0-.11a.06.06,0,0,1,0,0s0-.11,0-.11a.38.38,0,0,1,.17,0Z"/><path class="cls-7" d="M92.81,56.34c.38-.13.76-.27,1.15-.39a2.16,2.16,0,0,1,.44-.1l.45-.08a3.07,3.07,0,0,0-.36.27,2.8,2.8,0,0,0-.24.33.72.72,0,0,0,.29,0,5.49,5.49,0,0,1,3.72-.28.78.78,0,0,0,1-.28l-.63-.4a3.31,3.31,0,0,1-.3-.25s.09-.07.11-.05c.79.42,1.63-.24,2.42.11.14.06.34.17.41-.07,0,0-.18-.21-.3-.26a8.56,8.56,0,0,0-4.51-.49,6.81,6.81,0,0,0-2.59,1.13A9.69,9.69,0,0,0,92.81,56.34Z"/><path class="cls-7" d="M100.47,59.51a6.46,6.46,0,0,0-1.18-.8c-.34-.15-.4-.47-.65-.65.23-.24.4.1.62.08a1.42,1.42,0,0,1,.41,0,3.07,3.07,0,0,1,.42.07c-.12-.09-.25-.17-.37-.27a2.27,2.27,0,0,1-.26-.28c.13,0,.27,0,.41,0l.28,0c-.06-.08-.1-.21-.18-.24-.47-.19-1-.35-1.44-.53a.78.78,0,0,1-.21-.16l.15-.07.19-.12a1.17,1.17,0,0,0-.25-.07,12.64,12.64,0,0,0-4.77.56c-.13,0-.35,0-.33.21,0,.06.22.11.34.13,1,.18,2-.42,3,.68a2.33,2.33,0,0,0,.55.43,22.36,22.36,0,0,0,3.21,1h0Z"/><path class="cls-7" d="M111.8,101a4.15,4.15,0,0,0,.5-1.75,5.16,5.16,0,0,0,0-1,6.84,6.84,0,0,1-1.27.13c-.38,0-.81.4-1.14-.09-.11,1,.86,1.82.58,2.88,0,0,.11.07.17.11s.17-.18.18-.28c.07-.5.21-1.2.68-1.15a.3.3,0,0,1,.28.21C111.84,100.26,111.7,100.69,111.8,101Z"/><path class="cls-7" d="M96.25,58.43s-.11.07-.1.08a3.15,3.15,0,0,0,.28.55c.64.79,1.76.71,2.48,1.35.06.06.3,0,.37-.08a.38.38,0,0,0,0-.36A13.29,13.29,0,0,0,96.25,58.43Z"/><path class="cls-7" d="M96.94,67c-.4-.3-.2-.81-.42-1.11a11.34,11.34,0,0,0-1.35-1.43,1.62,1.62,0,0,0-.39-.21.44.44,0,0,0,.09.54l.8.91h0L95,65.5a3.73,3.73,0,0,0,.52.6,14.82,14.82,0,0,0,1.21.87C96.79,67,97,67,96.94,67Zm-1.2-1.19h0a.35.35,0,0,0,0-.08h0l.08.06Z"/><path class="cls-7" d="M75.2,71.39a.16.16,0,0,0,0-.14c0-.06,0-.12,0-.17h0l-.21,0a.33.33,0,0,0-.18.07A19.16,19.16,0,0,0,72.28,75a1.33,1.33,0,0,0,0,.33,3.68,3.68,0,0,0,.25-.3A21.77,21.77,0,0,1,75.2,71.39Z"/><path class="cls-7" d="M72.49,73.12l1.16-1.32c.4-.44.79-.89,1.17-1.34s.55-.66.82-1l-1,.63c0,.42-.4.62-.62.91A7.62,7.62,0,0,0,72.49,73.12Z"/><polygon class="cls-6" points="74.6 70.09 74.6 70.1 74.6 70.1 74.6 70.09"/><path class="cls-6" d="M72.48,73.13h0v0h0Z"/><path class="cls-7" d="M94.15,67.16c.56.54.86,1.44,1.87,1.35,0,0,.11-.15.11-.16l-1.79-1.48A2.24,2.24,0,0,0,94.15,67.16Z"/><path class="cls-7" d="M95.76,62.65s-.05,0-.09,0h0v0s0,.09.06.11c.69.53,1.38,1.06,2.08,1.58.12.1.25.11.3-.1,0,0,0-.08-.09-.1Z"/><path class="cls-7" d="M109.86,97.11c.14-.2.58.34.56-.2a3,3,0,0,1,.45-1.77l-1,.45a.6.6,0,0,1,.08.19.68.68,0,0,1,0,.19v.1s0,.07,0,.11A2.29,2.29,0,0,0,109.86,97.11Z"/><path class="cls-7" d="M98.13,60.78a.49.49,0,0,0,.21,0s0-.13,0-.15L96.05,59.3l-.24.13c.06.07.1.16.17.2C96.69,60,97.41,60.4,98.13,60.78Z"/><path class="cls-7" d="M110.24,85.63c-.28,0-.33.27-.28.46s-.11.86.29,1,.33-.4.35-.7S110.59,85.69,110.24,85.63Z"/><path class="cls-7" d="M96.28,67.59l-1.82-1.14s-.08.11-.07.12a4.91,4.91,0,0,0,1.66,1.26c.12.06.26.12.33-.1C96.35,67.68,96.33,67.62,96.28,67.59Z"/><path class="cls-7" d="M114.44,77.91c0,.07.2.06.3.09a5.07,5.07,0,0,0-.34-.87,10.17,10.17,0,0,0-.76-1c0,.18-.08.27-.06.32C113.86,77,114.14,77.44,114.44,77.91Z"/><path class="cls-7" d="M98.54,61.31c-.52-.13-1-.41-1.52-.58l-.07.05s.07.1.12.12l1.74,1c.11.06.2.08.21-.1s0-.28.06-.41A2.42,2.42,0,0,1,98.54,61.31Z"/><path class="cls-7" d="M97.15,62.54h-.09c.18.52.67.62,1.1.79,0,0,.09-.1.09-.11A2,2,0,0,0,97.15,62.54Z"/><path class="cls-7" d="M75.7,64.86a1.22,1.22,0,0,0-.91.82,1,1,0,0,0,.54-.32A4.62,4.62,0,0,0,75.7,64.86Z"/><polygon class="cls-6" points="74.79 65.68 74.78 65.68 74.79 65.68 74.79 65.68"/><polygon class="cls-6" points="75.7 64.85 75.7 64.86 75.71 64.85 75.7 64.85"/><path class="cls-7" d="M111.25,94.4a.44.44,0,0,0-.18.14.62.62,0,0,0-.11.17l0,.11c0,.1,0,.21-.06.31C111.3,95.05,111.28,94.73,111.25,94.4Z"/><path class="cls-7" d="M97.06,62.55l-.39-.33-.07.1.46.23Z"/><path class="cls-7" d="M111.79,101.08l.12.23.25-.18h0Z"/><path class="cls-10" d="M108.81,119.81l0,0,0,0a.1.1,0,0,1,0,0Z"/><path class="cls-6" d="M72.2,73.38l0,0,.05-.09Z"/><polygon class="cls-6" points="72.3 73.32 72.29 73.33 72.29 73.33 72.3 73.32 72.3 73.32"/><path class="cls-6" d="M75.76,64.75l-.05.1.1-.06Z"/><polygon class="cls-6" points="75.7 64.85 75.71 64.85 75.71 64.85 75.7 64.85"/><path class="cls-6" d="M72.48,73.13l-.18.19h0l.19-.18Z"/><path class="cls-8" d="M120.91,117.72c0-.09,0-.17,0-.26a.47.47,0,0,1-.38,0l-.08,0a.67.67,0,0,1-.14-.15,1.45,1.45,0,0,1-.1-.18l0-.1c0-.07-.08-.15-.12-.21a.5.5,0,0,0-.08-.12l-.1-.1a.67.67,0,0,0-.12-.06l-.07,0a.54.54,0,0,0-.25,0s-.06,0-.09,0l0,0,0,0a.38.38,0,0,0-.09-.09,1,1,0,0,1,.21-.17c.2-.08.2-.18.14-.25l0,0,0,0-.06,0-.29-.16-1-.49-.26-.14-.26-.14-.26-.15-.25-.17a2.15,2.15,0,0,1-.32-.29c-.07-.09-.15-.18-.22-.28l-.23-.34-.24-.32c-.17-.23-.35-.45-.53-.67l-.15-.17-.17-.19a0,0,0,0,1,0,0l0,0,.05,0h0l0,0,.06,0,.07.07.07.06h.17s0,0,.06,0,0,0,0,0a.27.27,0,0,0,0-.09s0,0,0,0a.36.36,0,0,1,0-.09c-.17-.5-.36-1-.53-1.5a2,2,0,0,1-.06-.35s0-.07,0-.11h0l.11.08a1.12,1.12,0,0,1,.24.19.2.2,0,0,1,.08.08c.36.6.68,1.22,1,1.83,0,0,.07.08.11.12l.13.11v0a1.08,1.08,0,0,0,0-.31,14.08,14.08,0,0,1-.93-5c.11-2.3.43-4.61.47-6.92,0-.27,0-.54,0-.8a1,1,0,0,1,0-.17c0-.11,0-.33,0-.39a.1.1,0,0,1,.08,0h0a.61.61,0,0,1,.22.12.29.29,0,0,0,.1,0s0,0,0,0a.09.09,0,0,0,0,0v-.07a.13.13,0,0,0,0-.06v0q.16-.73.3-1.47l.09-.57c0-.18,0-.37.07-.55s0-.37.07-.55,0-.38,0-.56c0,0,0,0,0,0s0,0,0,0q.08-.83.09-1.65,0-.49,0-1c0-.14,0-.27,0-.41,0-1.66.53-3.17.62-4.75a25.1,25.1,0,0,0-.49-5.71,9.83,9.83,0,0,1,.05-1.71c0-.14,0-.27,0-.4a6.4,6.4,0,0,0-.18-1.15l-.12-.46c0-.15-.09-.3-.13-.45s-.17-.6-.25-.9a1.55,1.55,0,0,1,0-.23,1.74,1.74,0,0,1,0-.22q-.07-.42-.18-.81a19.56,19.56,0,0,0-1.11-3c-.33-.73-.67-1.45-1-2.19,0,0,0-.11,0-.17a1.12,1.12,0,0,1,.17.21,34.92,34.92,0,0,1,2.45,5.26c.15.39.45.74.39,1.22a.21.21,0,0,0,0,.08.21.21,0,0,0,.09.13.33.33,0,0,0,.31,0c.25-.09.17-.29.1-.46-.83-2.16-1.63-4.33-2.49-6.48a31.52,31.52,0,0,0-4.67-7.93c-.17-.23-.35-.45-.54-.67q-.54-.65-1.14-1.26c-.78-.82-1.6-1.59-2.43-2.36l-.63-.57,0-.05a1.13,1.13,0,0,0-.1-.13l-.08-.13-.06-.1-.07-.11a1,1,0,0,0-.08-.11l-.05,0-.06-.05a.39.39,0,0,0-.13-.06.73.73,0,0,0-.47,0h0l-.08,0,0,0a.64.64,0,0,1-.11-.16l0-.07a.19.19,0,0,1,0-.07.26.26,0,0,1,0-.15.24.24,0,0,1,0-.08.34.34,0,0,1,.1-.13.17.17,0,0,1,.1,0h.07l.07,0,.16.13,0,0,1.72,1.63L108.85,59h0a.11.11,0,0,1,0,0,.12.12,0,0,1,0,.05l.14.16a.2.2,0,0,0,.27,0l0,0,0,0a0,0,0,0,0,0,0s0,0,0-.06a.09.09,0,0,0-.06-.06l0,0-.06-.07a.05.05,0,0,1,0,0s0-.09,0-.14,0,0,0,0l.1,0,.1,0,.07,0,.35.28a8,8,0,0,1,.62.54,11.45,11.45,0,0,1,1,1.16l.37.48.07.1c.1.13.2.27.29.41l0,.07.19.28c.07.1.13.2.19.3l.22.35c.09.16.19.32.28.49s.19.32.28.48l.28.5c.19.34.43.66.66,1,0,0,.13,0,.2,0v0a.84.84,0,0,0,0-.36c-.58-1.07-1.21-2.1-1.79-3.17-.19-.36-.38-.72-.56-1.08a6.63,6.63,0,0,0-.43-.79,3.27,3.27,0,0,0-.25-.36c-.09-.12-.18-.23-.28-.34l-.33-.36c-.11-.11-.22-.23-.34-.34a6,6,0,0,0-.45-.43,1.31,1.31,0,0,0-.24-.23c-.17-.16-.34-.32-.53-.47l-.42-.35-.35-.27-.36-.26a4.43,4.43,0,0,0-.42-.29c-.2-.14-.41-.27-.63-.4l-.27-.15a10.94,10.94,0,0,0-1.38-.66c-.14-.07-.3-.13-.45-.19-.31-.11-.63-.19-.95-.27l-1-.22-.44-.1h0l-.4-.11a3.26,3.26,0,0,1-.44-.15l-.34-.13-.22-.11s-.08,0-.13,0l-.09,0,.08.09,0,0,0,0,2,.82a.05.05,0,0,1,0,0l0,0,.06.08s0,0,0,0h0c-.08,0-.17.06-.24,0l-.28-.08-.55-.19-.83-.27-.56-.16a1.29,1.29,0,0,0-.28-.08l-.56-.14-.28-.05a4.34,4.34,0,0,0-.52-.07l-.27,0h-.36a5.54,5.54,0,0,0-1.38.17s0,0,0,0a.05.05,0,0,1,0,0l-.08,0,.09-.13s0,0,0,0l.06,0c.47-.14.94-.25,1.41-.37l0,0,.15-.07a.68.68,0,0,0-.2-.07,1.24,1.24,0,0,1-.27,0h0l-.12,0-.26,0-.07,0L97.67,53c-.24-.08-.47-.17-.7-.27l-.65-.32L96,52.24h-.08l-.26-.18-.54-.28-.54-.26a10.89,10.89,0,0,0-2.45-.83,5.44,5.44,0,0,1-.57,0,17,17,0,0,1-2.11-.22,9.71,9.71,0,0,0-1.21-.1,18.21,18.21,0,0,0-4.59.63,27.52,27.52,0,0,0-3.8,1.31,7.75,7.75,0,0,0-3.23,2.16c-.13.17-.84.54-.33,1.08,0,0-.07.2-.15.26-1.08.89-1.92,2.05-3.24,2.68a1.6,1.6,0,0,0-.47.36l-.21.25-.06.08c-.13.17-.27.34-.4.49.54,0,.83-.43,1.21-.74a1.69,1.69,0,0,1,.27-.13c0,.1,0,.21,0,.28.6.87-.27,1.16-.63,1.64a.15.15,0,0,0,0,.08c.2,1-.94.93-1.26,1.51a4.35,4.35,0,0,1-.34.41c.17-.06.33-.11.48-.18l2.36-1.19a.92.92,0,0,1,.29,0,1.7,1.7,0,0,1-.15.22c-.15.15-.33.27-.47.43s-.42.29-.25.52.34-.07.52-.12a2.59,2.59,0,0,1,.37-.11,2.24,2.24,0,0,1-.11.34,4,4,0,0,1-.32.74,8.69,8.69,0,0,1-.67.83c.4,0,.55-.38.85-.52.1,0,.24,0,.36,0-.11.49.33.82.39,1.16.11.62-.65.85-1.08,1.21-.22.19-.53.3-.56.65a7.48,7.48,0,0,0,.74-.39c.35-.22.57-.64,1-.66,0,.18.07.24.12.24a.69.69,0,0,0,.26-.13c.1-.07.36-.58.4.1,0,.23.23-.14.39-.17l.35-.09c0,.1-.07.23-.15.3l-2.72,2.64a.89.89,0,0,0-.16.25l0,.08a7.54,7.54,0,0,0,1.12-.75.89.89,0,0,1,1.25-.08c.29.26-.19.61-.38.84a3.3,3.3,0,0,0-.6,1.18h0l1-.63c-.27.33-.53.67-.82,1L73.66,71.8l-1.17,1.32A7.41,7.41,0,0,1,74,71c.11-.15.26-.27.38-.41a1.12,1.12,0,0,0,.16-.22,2.27,2.27,0,0,0,.09-.28h0l-.89.81-.18.17-.17.16A5.33,5.33,0,0,0,72.1,73c-.26.61-.94.56-1.29,1.09a24.79,24.79,0,0,1-2.6,3.26c-.39.42-.95.68-1.27,1.21,0,.06-.2,0-.31.07a1.05,1.05,0,0,1,.13-.26c.37-.56.63-1.31,1.15-1.62,1.53-.92,2.19-2.49,3.22-3.78.38-.48.73-1,1.08-1.48a.92.92,0,0,0,.09-.38,1.21,1.21,0,0,0-.32.22c-.19.21-.34.46-.53.68s-.43.46-.65.68c-.09-.36.3-.49.39-.78l0-.2c-.08,0-.2,0-.24.11-.36.61-.74,1.2-1.06,1.84a2.88,2.88,0,0,1-1.69,1.71.17.17,0,0,1-.13-.07,1,1,0,0,1,.07-.25c.34-.67.68-1.33,1-2a1,1,0,0,0,0-.35c-.11,0-.27.07-.34.16-.39.6-.76,1.21-1.16,1.81a1.7,1.7,0,0,1-.3.3,1.07,1.07,0,0,1,.08-.41L69,71.9c.51-.88,1-1.75,1.54-2.62-1.07.37-1.47,1.41-2.12,2.18s-.94,1.6-1.81,2.07c-.07,0-.1.14-.14.21l.39.1-.4.34a2.06,2.06,0,0,0-.4.29,3.72,3.72,0,0,0-.34.47l-.1.14a.86.86,0,0,1,.1-.72c0-.08.06-.16.08-.23.13-.52.2-1,.32-1.56s-.31,0-.4-.27a1.29,1.29,0,0,1,0-.91,2.82,2.82,0,0,1,.35-.72c.58-.91,1.21-1.79,1.82-2.69A1.29,1.29,0,0,0,68,67.7a1,1,0,0,0-.28.11A7.58,7.58,0,0,0,66,70.16a1.66,1.66,0,0,1-.24.3,2,2,0,0,0-.21.2l0,0a.42.42,0,0,1,0-.45,1.2,1.2,0,0,0,.11-.23.67.67,0,0,1,.1-.21c.23-.43.69-.83.13-1.4,0,0,.12-.32.2-.49s.24-.42.36-.64a2.46,2.46,0,0,0-.69.33.09.09,0,0,0-.06.06l-.15.23a7.57,7.57,0,0,0-1.16,2.9c-.15,1-.34,2.11-.52,3.17a.36.36,0,0,0,0,.1h0v.11a38,38,0,0,0,1,3.84,5.43,5.43,0,0,1,.09.56,5.49,5.49,0,0,1-.15,3.32c-.21.39-.5,1.19.56,1.37a.44.44,0,0,1,.19.07l.08.07a.36.36,0,0,1,.07.1.66.66,0,0,1,0,.11s0,0,0,0h0l0,.1a1.37,1.37,0,0,1,0,.29,1.93,1.93,0,0,1,0,.24s0,.1,0,.15,0,.09,0,.14a.13.13,0,0,0,0,.06.86.86,0,0,0,0,.16c0,.07,0,.42,0,.43a1.62,1.62,0,0,0,.1.42A1.24,1.24,0,0,0,66,86l.11.1a.76.76,0,0,0,.39.16h.26a2.62,2.62,0,0,0,.59-.16.29.29,0,0,1,.26,0c.22.17-.24.63.34.69.88.1,1.07-.56,1.35-1.14.12-.24,0-.65.35-.69s.43.33.57.57c.36.6.67.65.95-.06s.52-1.28.77-1.93c.09-.26.28-.24.47-.25a11.93,11.93,0,0,1,4.48.62c.37.12.73-.39,1.06,0,.05-.08.15-.17.13-.22a.61.61,0,0,0-.21-.29,10,10,0,0,0-5.27-2.3c-.16,0-.34-.06-.29-.27a30,30,0,0,0,.62-3c.18-1.48,1.13-2.37,1.79-3.5A5.5,5.5,0,0,1,77,72.58c.25-.15.75.13,1.14.22.08,0,.21.06.26,0a8.84,8.84,0,0,1,5.1-2.41A14.77,14.77,0,0,0,87,69.74c.48-.15,1.36-.22,1.55-1.08,0-.1.55.26.78.49s.19.57.51.42-.08-.35-.05-.54a1.38,1.38,0,0,1,.13-.28c.48.44.84-.82,1.29-.1.16.24.29.51.56.41,1.07-.36,1.73.33,2.58.79s1.77,1.25,2.68,1.82a15.08,15.08,0,0,1,4.36,3.94,21.18,21.18,0,0,0,4.4,4.52c1.08.8,1.07,2.27,1.36,3.53.46,1.94.61,3.91.89,5.86a13.88,13.88,0,0,0,.74,2.35,1,1,0,0,0,.06.16c.12.31-.42.82.08.88.35,0,0-.65.32-.92a1.38,1.38,0,0,0,.43-1.4s.09-.09.14-.14.15.17.15.25c0,.33.12.59.48.49s.87.21,1-.48c.07-.51.61-.41,1-.54s.64-.34.57-.6-.41,0-.63,0c-.39,0-.81.43-1.16-.1s0-.68.2-1-.12-.79-.31-1.15-.08-.6.35-.52c.62.13,1.3.07,1.79.67.14.16.57.41.83,0a1.13,1.13,0,0,0-.27-1.7c-.79-.42-1.65-1.15-2.69-.49a.16.16,0,0,1-.15,0,.26.26,0,0,1,0-.21c.29-.65.6-1.3.91-1.95,0-.06.14-.09.22-.13a.65.65,0,0,1,.08.27c0,.21-.32.5.09.6a1,1,0,0,0,1.07-.34,1.39,1.39,0,0,1,1-.66c.5,0,.64.62.8,1a9.28,9.28,0,0,1,.42,3.4,1.91,1.91,0,0,0,.06.33c.06-.07.11-.16.18-.23a2.88,2.88,0,0,1,.27-.22c0,.1,0,.21,0,.31.14,2.46-1.33,4-3,5.44a3.32,3.32,0,0,0-.41.43c-.39.5-.69,1-1.4.26-.31-.31-.83-.12-1.35.24-2.3,1.61-1.19,4.24-2.06,6.27-1.08,2.5-.21,5.06,0,7.58a36.37,36.37,0,0,0,1.45,5.77,2.25,2.25,0,0,1-.41,2.28c-.34.39-.68.78-1,1.18h0c-.23.29-.46.57-.68.87,0,0,0,0,0,0a1.25,1.25,0,0,0-.15.19c-.45.59-.89,1.19-1.31,1.8-.2.29-.4.6-.6.9.41-.1.82-.18,1.22-.32a5,5,0,0,0,.71-.32c1.34-.81,2.16.23,3.07,1a8.11,8.11,0,0,0,2.44,1.18,10.5,10.5,0,0,0,2.66,1c.15,0,.1.11,0,.17-3,1.61-4.9,4.31-7,6.79a14,14,0,0,0-3.24,7.27c-.25,1.69-1.59,2.1-3,2.4s-2.64.51-4,.77c-.08,0-.14.1-.21.15.11.07.22.22.32.2,2.21-.44,4.5-.58,6.49-1.78,1-.61,1.06-1.7,1.25-2.7.66-3.46,2.64-6.11,5.14-8.47a35,35,0,0,0,3-2.57,2.39,2.39,0,0,1,1.83-.6c.27,0,.78,0,.69-.24-.18-.53.38-1,0-1.53l-.19-.25c-.17-.21-.34-.41-.5-.63l-.09-.11a2.77,2.77,0,0,1-.56-1.14,1.83,1.83,0,0,1-.13-.16.13.13,0,0,0,0-.06,0,0,0,0,0,0,0h0l-.16-.16-.16-.17-1.09-1.68-.42-.66-.08-.09-.15-.19,0-.05s0,0,0,0-.09-.23-.14-.35-.08-.23-.13-.35l.6.26,0-.07a1.12,1.12,0,0,1-.1-.22.94.94,0,0,1-.06-.3s0,0,0,0h0a.78.78,0,0,0,.34,0l.15,0,.12,0a.67.67,0,0,1,.2,0l.14,0,.06,0c.21.09.45.22.7.35l.14.08.13.07.14.08.42.22.08,0a1.4,1.4,0,0,0,.17.09l.16.08.35.15a.46.46,0,0,0,.33,0c1.2-.84,1.27.6,1.91.71a1.22,1.22,0,0,1,.26.06l.3.09.28.07h.3a.27.27,0,0,0,.12,0l.1,0,.11-.07,0,0a1.35,1.35,0,0,0,.27-.3.24.24,0,0,1,.12-.1l.15,0,.1,0a0,0,0,0,0,0,0l.08,0s0,0,0-.07A.4.4,0,0,0,120.91,117.72ZM75.7,64.86a3,3,0,0,1-.36.5l-.12.11a1,1,0,0,1-.26.16l-.17.05h0a.29.29,0,0,1,0-.13s0,0,0-.06l0,0h0l.06-.08.07-.09a.31.31,0,0,1,.09-.07.46.46,0,0,1,.07-.07l0,0h0l.08,0,.1-.06.3-.12h0A0,0,0,0,1,75.7,64.86Zm0,0s0-.07.05-.1h0l0,0h0Zm-3.42,8.48a0,0,0,0,1,0,0l.18-.19h0l-.18.19h0l-.05.09s0,0,0,0Zm3-2.16v.08a.26.26,0,0,1-.05.14A21.29,21.29,0,0,0,72.49,75a3.68,3.68,0,0,1-.25.3c0-.19,0-.27,0-.33l.59-1,.29-.49.29-.46a.21.21,0,0,1,0-.06l0-.07,0,0c.07-.11.14-.22.22-.33s.22-.31.34-.46a7.85,7.85,0,0,1,.76-.88.33.33,0,0,1,.17-.07l.22,0S75.26,71.14,75.26,71.17Zm20.85-2.78a0,0,0,0,1,0,0,0,0,0,0,1,0,0l0,0s0,0,0,0a1.23,1.23,0,0,1-.72-.14,1.3,1.3,0,0,1-.23-.15c-.35-.29-.59-.75-.92-1.06,0,0,0,0,0,0l.17-.25.47.38.44.38c.16.12.3.24.44.36l.44.37h0S96.13,68.37,96.11,68.39Zm-.06-.56a5.15,5.15,0,0,1-1.67-1.26.31.31,0,0,1,.08-.11c.49.3,1,.6,1.47.91l.36.22a.48.48,0,0,1,.09.14C96.31,68,96.17,67.89,96.05,67.83Zm.69-.86a14.82,14.82,0,0,1-1.21-.87,3.73,3.73,0,0,1-.52-.6l.66.18h0l-.8-.91a.44.44,0,0,1-.09-.54,1.62,1.62,0,0,1,.39.21,11.34,11.34,0,0,1,1.35,1.43c.22.3,0,.81.42,1.11C97,67,96.79,67,96.74,67Zm1.05-2.6c-.7-.52-1.39-1.05-2.08-1.58a.16.16,0,0,1,0-.11s0,0,0,0h.13l1.11.75,1.12.77s.06.06.09.1C98,64.48,97.91,64.47,97.79,64.37Zm-2-4.94.24-.13,2.24,1.35s0,.1,0,.15a.47.47,0,0,1-.21,0l-1.08-.57L96,59.63A.83.83,0,0,1,95.81,59.43Zm2.37,3.9,0,0L98,63.28l-.17-.06-.31-.14a1,1,0,0,1-.46-.53l-.46-.23h0l.08-.1.2.16.19.17h.09a2,2,0,0,1,1.1.69A.37.37,0,0,1,98.18,63.33ZM99,61.78c0,.18-.1.15-.21.1l-1.74-1,0,0h0l-.09-.1.08-.05c.52.17,1,.45,1.51.58a2.42,2.42,0,0,0,.54.06C99.06,61.5,99,61.64,99,61.78Zm.29-1.53v0l0,0c-.06.08-.3.14-.36.08l-.09-.08-.08,0-.18-.11L98.31,60h0L98,59.91c-.22-.08-.45-.15-.67-.24a3.42,3.42,0,0,1-.62-.35,2.13,2.13,0,0,1-.26-.26,2.59,2.59,0,0,1-.28-.55s.08-.06.11-.08a12.68,12.68,0,0,1,3,1.55.05.05,0,0,1,0,.05A.41.41,0,0,1,99.31,60.25Zm1.15-.73-.4-.13-.36-.11-.48-.12c-.28-.08-.56-.14-.84-.23s-.53-.17-.78-.27l-.35-.18a2.14,2.14,0,0,1-.55-.43c-1-1.1-2-.5-3-.68a1.43,1.43,0,0,1-.28-.07.1.1,0,0,1-.05,0v0h0a.16.16,0,0,1,0-.13l.06,0,.08,0h.16a9.2,9.2,0,0,1,1-.28,8.1,8.1,0,0,1,1-.18,14.26,14.26,0,0,1,2.85-.11.77.77,0,0,1,.26.07l-.19.12-.08,0-.07,0,.13.1.09,0,.72.26.54.2.17.07a.1.1,0,0,1,0,0l0,0,0,0,0,.08,0,.07h0a1.45,1.45,0,0,0-.28,0l-.41,0,0,0a.05.05,0,0,1,0,0l.2.2c.12.1.25.18.37.27a3.07,3.07,0,0,0-.42-.07,1.48,1.48,0,0,0-.42,0c-.17,0-.31-.2-.48-.16h0l-.09.07a.77.77,0,0,1,.16.15c0,.07.1.14.14.21l.12.13,0,0,.09.07.11.06a7,7,0,0,1,1.18.8Zm.74-4.29s0,0,0,0a.05.05,0,0,1,0,0s0,0,0,0H101a.35.35,0,0,1-.11,0l-.06,0c-.8-.35-1.64.32-2.42-.11,0,0,0,0-.05,0l-.06,0a1.92,1.92,0,0,1,.22.18l.09.06c.2.14.41.27.62.4a.76.76,0,0,1-1,.28,5.46,5.46,0,0,0-3.71.28.76.76,0,0,1-.3,0,2,2,0,0,1,.24-.33,2.19,2.19,0,0,1,.25-.2h0l.09-.07h0l-.22,0-.23,0-.22,0A1.16,1.16,0,0,0,94,56l-1.15.39.25-.21c.16-.14.32-.28.5-.41a1.78,1.78,0,0,1,.27-.17c.19-.12.38-.24.58-.35L94.7,55l.29-.15.24-.12.18-.07a1.66,1.66,0,0,1,.31-.12,3.38,3.38,0,0,1,.7-.16l.35,0,.52,0,.51,0a8.29,8.29,0,0,1,3.13.6L101,55l.06,0,0,0,0,0,0,0a412084273486.72,412084273486.72,0,0,0,0,.06A.09.09,0,0,1,101.2,55.23Zm9.37,31.34a.86.86,0,0,1,0,.23.54.54,0,0,1-.09.17.16.16,0,0,1-.18.07.37.37,0,0,1-.14-.07.12.12,0,0,1-.06-.08.3.3,0,0,1,0-.1.36.36,0,0,1,0-.11,2.75,2.75,0,0,0,0-.58.74.74,0,0,1,0-.21.45.45,0,0,1,0-.11h0a.24.24,0,0,1,.06-.09l0,0,.05,0h.12l.09,0h0s0,0,0,0a0,0,0,0,1,0,0l0,0a.16.16,0,0,1,0,.07.35.35,0,0,1,.06.18,0,0,0,0,0,0,0,1.64,1.64,0,0,1,0,.22s0,.07,0,.11a2,2,0,0,1,0,.23Zm3.86-5.46c-.23,0-.51.12-.67-.14s0-.2.17-.31.06-.28-.11-.37a.3.3,0,0,0-.11-.06,1.92,1.92,0,0,1-1.41.51c-.29,0-.59,0-.89-.06l-.4-.05c0,.05,0,.11,0,.15s.42.13.32.42a.28.28,0,0,1-.16,0c-.27-.15-.81-.36-.78-.47.11-.77-.64-.86-.91-1.3a1.86,1.86,0,0,0-.11-.19h0a.05.05,0,0,1,0,0c.28,0,.28,0,.24-.38a.27.27,0,0,1,0-.18c.36-.47.36-.46-.11-1.13a.79.79,0,0,1-.09-.23,1,1,0,0,1,.26.12l1,.89.58.53.42.37c-.09-.35-.29-.74.4-.67.08,0,.5.08.43-.3,0-.19-.13-.37-.19-.57.18.17.35.33.53.48a1.23,1.23,0,0,0,.29.09,1.14,1.14,0,0,0,0-.32c-.17-.52-.37-1-.55-1.53a.33.33,0,0,1,0-.14c0-.06,0-.11,0-.16l.07,0a.53.53,0,0,1,.19.13c.52.77,1,1.55,1.54,2.33a.41.41,0,0,1,.06.11c-.89.76-.62,1.47.06,2.17C114.62,80.87,114.5,81.1,114.43,81.11Zm.23-3.12-.09,0-.08,0a.07.07,0,0,1,0,0c-.3-.47-.58-.94-.86-1.43,0,0,0-.15.06-.32a10.54,10.54,0,0,1,.76,1,6,6,0,0,1,.34.87Zm-5.79,41.83h0l0,0,0,0s0,0,0,0Zm3.95-21v0a5.24,5.24,0,0,1-.49,1.93l0,0c0,.1-.1.2-.16.3l-.1.08-.14.1h0l-.12-.22h0a.49.49,0,0,0,0-.11h0c-.1-.29,0-.71,0-1a.34.34,0,0,0-.09-.14l-.08,0h0l-.1,0a.4.4,0,0,0-.11,0h0l0,0h0a0,0,0,0,1,0,0l0,0s0,0,0,0l0,0a.35.35,0,0,0-.06.09l0,0,0,0a.87.87,0,0,0-.07.17,2.3,2.3,0,0,0-.13.59.17.17,0,0,0,0,.07h0a.23.23,0,0,1-.07.14l-.06.07a.35.35,0,0,1-.05.08,0,0,0,0,1,0,0l-.07,0s-.09,0-.09-.06c.28-1.06-.7-1.86-.58-2.88,0-.37,0-.74,0-1.11a2.29,2.29,0,0,1,.11-.93s0-.08,0-.11V96a1.1,1.1,0,0,0,0-.18.3.3,0,0,0,0-.1.09.09,0,0,0,0-.06l0,0,.5-.23.49-.23h0l.06-.31,0-.1a.53.53,0,0,1,.29-.32c.84.11,1,.84,1.16,1.45.12.45.23.89.31,1.34a4.76,4.76,0,0,1,.08.66l0,.33C112.84,98.4,112.83,98.61,112.82,98.83Z"/><path class="cls-8" d="M99.65,85c-.41.2-.94.33-1.22,0a5.8,5.8,0,0,0-4.12-1.63c-.36,0-.81-.15-.54.53.12.28-.06.45-.41.49A4.15,4.15,0,0,0,90,86.74c-.09.16-.23.52.09.62a.53.53,0,0,0,.67-.33l.09-.19c0-.11.1-.21.16-.32a.21.21,0,0,1,0-.07,1.74,1.74,0,0,1,.11-.18l.13-.16a1.07,1.07,0,0,1,.16-.14.72.72,0,0,1,.19-.11l.19-.08h0c0-.05.11-.12.17-.17h0c.1-.07.23-.21.3-.18a.24.24,0,0,1,.11.06l0,0a.24.24,0,0,1,.06.09.05.05,0,0,1,0,0,.58.58,0,0,1,0,.14c0,.06,0,.11,0,.17h0a2.82,2.82,0,0,0,.49-.25,2.11,2.11,0,0,0,.35-.38.74.74,0,0,1,0,.14v0c-.06.25,0,.62-.37.65l-.16,0-.1.06-.05.06,0,.12a.19.19,0,0,0,0,.08h0l.07.1.08.12h0c.06.06.11.13.17.18s0,0,0,0l.13.11.2.11.14,0c.88,0,1.82.12,2.24-1,.08-.2,0-.64.35-.55a2,2,0,0,1,1,.7c.1.17-.38.31-.61.44s-.32.17-.48.27,0,.09-.08.15a.51.51,0,0,0,.17,0,5.76,5.76,0,0,0,3.79-1.9,1,1,0,0,0,.14-.41C99.92,85,99.77,85,99.65,85Zm-4.92-.91a.31.31,0,0,1-.11.08.94.94,0,0,1-.28.12c-.27.07-.2-.19-.26-.3s0-.39.24-.32l.11,0,.19.05a.35.35,0,0,1,.12.07.22.22,0,0,1,.05.18A.37.37,0,0,1,94.73,84.11Z"/><path class="cls-8" d="M91.68,79.27c-1.15.33-1.68,1.61-2.92,1.81a.73.73,0,0,0-.41.92c.11.34-.14.57-.56.38-.11,0-.26,0-.38,0a1,1,0,0,0,.19.32c.46.35.87.1,1.26-.15a13.73,13.73,0,0,1,5.27-2.18h0c.07-.06.13-.15.2-.16a12.91,12.91,0,0,1,6.55.47,1,1,0,0,0,.34,0c0-.09-.05-.22-.11-.25A10.69,10.69,0,0,0,97.81,79c-.91-.12-1.81-.33-2.71-.5H94C93.41,79.38,92.45,79.06,91.68,79.27Z"/><path class="cls-8" d="M79.73,88.25a7,7,0,0,0-2-1.27,7.61,7.61,0,0,0-2.3-.57c-.34,0-1,.27-1-.13s.73-.43,1.16-.55a.91.91,0,0,0,.22-.11.32.32,0,0,0-.12-.11c-.48-.23-3.24.65-3.64,1a1.11,1.11,0,0,0-.29.5c-.14.54,0,1.17-.47,1.58.13.08.25.17.37.26l.12.07L72,89h0l.13.08-.12.16v.11c.36.07.73.15,1.1.19a1.82,1.82,0,0,0,.33,0l.21,0,0,0,0,0-.12-.1,0,0s0,0,0-.06c.09-.24.17-.49.27-.73l.07-.16.11-.21.12-.19.11-.12a.68.68,0,0,1,.12-.12l.16-.13.06,0,.2-.11.16,0,.08,0a.5.5,0,0,1,.13,0l.13,0s0,0,0,0v0a.13.13,0,0,1,0,.06v0s0,.06,0,.09,0,0,0,.08a3,3,0,0,0,.16.51h0a2.2,2.2,0,0,0,.38.59l.13.13L76,89h0a.57.57,0,0,0,.13.08.31.31,0,0,0,.13.06l.13,0h0a2.48,2.48,0,0,0,.54,0l.37-.13.18-.07a2.11,2.11,0,0,0,.34-.16l.12-.08.07,0,.12-.09a.86.86,0,0,0,.14-.13,1.7,1.7,0,0,0,.19-.19,1.82,1.82,0,0,0,.15-.23.14.14,0,0,1,.13-.08l.07,0a.51.51,0,0,1,.23.21.69.69,0,0,1,0,.13.32.32,0,0,0,0,.13.29.29,0,0,0,.18.15l.13,0h0a.34.34,0,0,0,.12,0,.05.05,0,0,0,0,0,.05.05,0,0,0,0,0l0,0a.11.11,0,0,0,0-.07.64.64,0,0,0,0-.07.61.61,0,0,0,0-.14Zm-3.82-.19a.27.27,0,0,1-.16-.09,2.07,2.07,0,0,1,.15-.3c.09.11.18.17.17.22A.3.3,0,0,1,75.91,88.06Z"/><path class="cls-5" d="M94.13,80.4a12.81,12.81,0,0,0-3.46,1.94,1.43,1.43,0,0,1-.21.12c.05.06.09.14.15.16.47.12.91.39,1.45.15s1.29-.23,1.77-.47,1.26.25,1.53-.61c.35-1.12,0-1.49-1.1-1.28,0,0-.06,0-.09,0Z"/><path class="cls-8" d="M94.93,103.49l-.13-.07c-.11,0-.17,0-.23,0-2.87,1-5.89,1.34-8.83,2.06-.41.1-.9-.13-1.26.26.42,0,.85,0,1.26-.08,3.06-.4,6.16-.56,9-1.93a.8.8,0,0,0,.19-.18l.06-.06h0Z"/><path class="cls-8" d="M87,99.05a2,2,0,0,0-1-.31h-.28a3.12,3.12,0,0,0-.53.11l-.09,0a2.67,2.67,0,0,0-.36.14,1,1,0,0,0-.17.1l-.08,0a2,2,0,0,0-1,1.39.32.32,0,0,0,.1.33l.11.08a.59.59,0,0,0,.6,0c.78-.36,1.3-1.21,2.3-1.21.19,0,.39-.31.57-.49A.46.46,0,0,0,87,99.05Z"/><path class="cls-11" d="M103.46,123.09l.41-.59h0l-.24.25C103.57,122.86,103.51,123,103.46,123.09Z"/><path class="cls-12" d="M88.49,70.41l.09,0,0-.09Z"/><path class="cls-12" d="M88.58,70.46h0Z"/><path class="cls-12" d="M86.18,107.51l-.07,0,0,.07Z"/><polygon class="cls-12" points="86.11 107.46 86.11 107.46 86.1 107.47 86.11 107.47 86.11 107.46"/><polygon class="cls-11" points="104 122.28 103.99 122.29 104 122.28 104 122.28"/><path class="cls-7" d="M79.73,88.25c0,.19,0,.38-.28.39a.32.32,0,0,1-.38-.29c-.06-.26-.38-.47-.49-.28a2.66,2.66,0,0,1-1.68,1.12c-.42.49-.93.21-1.42.18s-1.29-.28-1.39-.89c-.06-.4.52-.75,1-.81h0l0-.17v0a.13.13,0,0,0,0-.06v0h0A1.55,1.55,0,0,0,74,88a5.19,5.19,0,0,0-.58,1.29s.16.17.25.25a2.44,2.44,0,0,1-.54,0c-.37,0-.73-.12-1.1-.19.45.87,1.56.2,2.08.91.87-.63,1.91-.19,2.84-.46a13,13,0,0,0,2.64-.76c.18-.1.54.34.64-.07a.36.36,0,0,0,0-.1.53.53,0,0,0,0-.13.92.92,0,0,0-.09-.23A.7.7,0,0,0,79.73,88.25Z"/><path class="cls-8" d="M93.13,86.13c.42,0,.31-.4.37-.66a.31.31,0,0,0,0-.15,2.11,2.11,0,0,1-.35.38,2.51,2.51,0,0,1-.49.25.15.15,0,0,1,0,.07.69.69,0,0,0,0,.35.26.26,0,0,0,.12.11h0C92.77,86.25,92.88,86.15,93.13,86.13Z"/><path class="cls-8" d="M92.31,85.4c-.06,0-.19.11-.29.18.33-.09.38.28.6.36C92.6,85.72,92.55,85.48,92.31,85.4Z"/><path class="cls-9" d="M84.56,117.21l-.32-.14"/><path class="cls-9" d="M91.84,85.76l.17-.17"/><path class="cls-9" d="M82.43,115.75l-.18-.2"/><path class="cls-9" d="M72,89l-.24-.14"/><path class="cls-6" d="M72.1,89.12,72,89v.25Z"/><path class="cls-7" d="M99.35,127.31s0,.13,0,.19a.92.92,0,0,0,.29-.11c.81-.55,1.6-1.11,2.4-1.66l.37-.71A17.73,17.73,0,0,0,99.35,127.31Z"/><path class="cls-13" d="M102.81,124.17c.14-.25.29-.49.44-.74"/><path class="cls-13" d="M102.73,124.46h0"/><path class="cls-13" d="M102.73,124.46l-.11.09"/><path class="cls-14" d="M80.52,133.68h0"/><path class="cls-14" d="M80.42,133.82l.1-.14"/><path class="cls-7" d="M71.38,60l.35-.33L71.3,60Z"/><path class="cls-3" d="M71.75,59.7h0Z"/><path class="cls-7" d="M70.61,69.16l0,.1.09-.05Z"/><polygon class="cls-3" points="70.55 69.27 70.56 69.26 70.55 69.27 70.55 69.27"/><path class="cls-7" d="M73.16,69l.06-.1-.11,0Z"/><polygon class="cls-3" points="73.22 68.9 73.22 68.91 73.22 68.9 73.22 68.9"/><path class="cls-15" d="M113.92,60.72l.11.14"/><path class="cls-15" d="M114.18,61l-.07-.06"/><path class="cls-7" d="M111.91,79.37l-.11-.14.08.16Z"/><path class="cls-7" d="M111.79,79.21h0l0,0Z"/><path class="cls-3" d="M113.63,80.15l.09.07h0Z"/><path class="cls-7" d="M110.07,97.74a1,1,0,0,0,.07.15l.16-.22a.38.38,0,0,0-.17,0S110.07,97.7,110.07,97.74Z"/><path class="cls-7" d="M95.75,65.77l0,0-.08-.06Z"/><path class="cls-3" d="M95.68,65.68h0Z"/><path class="cls-8" d="M94.32,83.69c-.21-.07-.23.13-.24.32s0,.37.26.3.43-.18.45-.3C94.82,83.73,94.5,83.75,94.32,83.69Z"/><path class="cls-5" d="M75.14,87.67c-.53.06-1.11.41-1,.81.1.61.77.84,1.39.89s1,.31,1.42-.18A1.05,1.05,0,0,1,76,89l-.15-.14A2.21,2.21,0,0,1,75.14,87.67Z"/><path class="cls-8" d="M75.75,88a.27.27,0,0,0,.16.09.3.3,0,0,0,.16-.17s-.08-.11-.16-.22A1.5,1.5,0,0,0,75.75,88Z"/><path class="cls-9" d="M76,89l-.15-.14"/><path class="cls-8" d="M85.27,117.59l-.56-.35-.15,0-.32-.13a6,6,0,0,1-1.2-.74,5.58,5.58,0,0,1-.61-.58h0l-.17-.19h0a0,0,0,0,0,0,0h0c-.12,0-.29-.12-.22,0a1.28,1.28,0,0,1,.19.7.91.91,0,0,1,0,.17s0,.06,0,.09a1.16,1.16,0,0,1,0,.18l-.06.22h0c0,.11-.08.21-.11.32s-.07.22-.11.33h0a2.26,2.26,0,0,0-.08.44v0c0,.1,0,.19,0,.29a1.71,1.71,0,0,0,.26-.21.18.18,0,0,0,0-.07s0,0,0-.06a1.94,1.94,0,0,1,.13-.3l.07-.07a.3.3,0,0,1,.2-.07h0c0,.06,0,.13-.07.2a4.07,4.07,0,0,1-.24.61,2.92,2.92,0,0,1-.29.48,3.84,3.84,0,0,1-.35.43l-.4.37a9.19,9.19,0,0,1-.87.63l-.46.29c-.31.19-.62.38-.92.58l-.29.21-.21.16-.22.14a1.3,1.3,0,0,1-.32.14l-.18,0-.1.14-.11.13,0,.07,0,.07,0,.07a.24.24,0,0,0,0,.08c-.06.22.13,0,.19,0l1.08-.3.54-.15.54-.17c.23-.08.46-.16.69-.26.86-.35,1.92-.52,2.13-1.75a1,1,0,0,1,.23-.46l.13-.1.08,0,0,0a.53.53,0,0,1,.12,0l.16,0h0c0,.18,0,.35-.07.53s0,.19,0,.28,0,.16,0,.25a.36.36,0,0,1,0,.1c0,.1-.08.2-.11.3l.22-.09a.31.31,0,0,0,.1-.05l.09-.06h0l.12-.12.11-.1a.71.71,0,0,1,.13-.12.1.1,0,0,1,0,0A.29.29,0,0,1,84,120H84a.81.81,0,0,1,.4.09.51.51,0,0,0,.6-.15.8.8,0,0,0,.08-.16l.19-.4C85.28,118.74,85.27,118.17,85.27,117.59Z"/><path class="cls-7" d="M121.84,113c-1.69-3.56-3.26-8.55-3.32-9.8a47.51,47.51,0,0,1,.35-8.51c.24-1.8.48-3.61.56-5.42a8.43,8.43,0,0,1,.1-1,23.19,23.19,0,0,0,.57-3.69,24.56,24.56,0,0,0,.14-5.74c-.37-2-.68-4-1.11-5.93-.11-.51-.21-1-.33-1.53l-.86-2.91,0-.15A20.35,20.35,0,0,0,114.18,61l-.07-.06-.08-.12-.11-.14-.11-.14a39.88,39.88,0,0,0-5.69-5s-5-2.44-6-2.86c-.38-.15-.75-.29-1.13-.4a9.5,9.5,0,0,0-4.62-.19l-.17,0-.23,0a6.44,6.44,0,0,0,2.71,1,1.59,1.59,0,0,1,.2.07,1.11,1.11,0,0,1-.19.09c-.47.12-.94.23-1.41.37-.08,0-.14.14-.21.21s.13.09.18.08c2.09-.55,4,.31,5.87.9.07,0,.16,0,.24,0s-.1-.14-.17-.17l-2-.82a1.54,1.54,0,0,1-.19-.17c.08,0,.18-.08.23,0a31,31,0,0,0,3.79,1.11,15.71,15.71,0,0,1,6.17,4.39,5.89,5.89,0,0,1,1,1.49c.7,1.45,1.56,2.83,2.34,4.25.06.1,0,.25,0,.38s-.17,0-.2,0a10.5,10.5,0,0,1-.66-1,16.07,16.07,0,0,0-4.24-5.44,2.39,2.39,0,0,0-.28-.13.48.48,0,0,0,0,.17c0,.14.37.24.16.38s-.35-.16-.5-.3c-1.14-1.09-2.27-2.19-3.43-3.27-.1-.1-.36-.38-.52,0s.16.63.29.59c.77-.28.8.43,1.15.75a40.39,40.39,0,0,1,4.75,4.86,31.79,31.79,0,0,1,4.66,7.93c.86,2.15,1.66,4.32,2.49,6.48.07.17.15.37-.1.46s-.43,0-.4-.25c.06-.48-.24-.83-.39-1.23A36.92,36.92,0,0,0,114.9,70a1.51,1.51,0,0,0-.17-.2c0,.06,0,.12,0,.16A28.3,28.3,0,0,1,117,76a18.17,18.17,0,0,1,.79,3.81,8.29,8.29,0,0,0,0,1.72,25.67,25.67,0,0,1,.48,5.71c-.09,1.58-.67,3.09-.62,4.76a26.25,26.25,0,0,1-.67,6.77c0,.09,0,.34-.17.18-.48-.36-.35.09-.36.27s0,.65,0,1c0,2.31-.35,4.62-.47,6.92a14.18,14.18,0,0,0,.93,5,1,1,0,0,1,0,.34,1,1,0,0,1-.24-.22c-.35-.61-.68-1.23-1-1.83-.09-.15-.28-.24-.42-.36a2.32,2.32,0,0,0,.07.46c.17.5.36,1,.53,1.5,0,.13.14.33-.15.29s-.24-.36-.43-.11c0,0,.22.25.33.39s.36.44.53.67a5.58,5.58,0,0,0,1,1.23c.71.49,1.54.83,2.3,1.25.13.06.32.23,0,.36a.87.87,0,0,0-.22.17c.08.06.18.2.24.19.87-.22.61,1.24,1.49,1,0,.09,0,.18,0,.26.1.49-.42.29-.55.5-.5.81-1.14.34-1.76.24s-.71-1.55-1.91-.71c-.25.17-1.71-.79-2.62-1.2-.43-.2-.68.16-1.06.06-.11,0,0,.4.15.6l-.6-.25c.09.23.17.47.28.7a2.55,2.55,0,0,0,.29.38l.09,0-.09,0h0l1.51,2.35.32.32a.12.12,0,0,1,0,.08.12.12,0,0,0,0-.08,5.5,5.5,0,0,1,2,.11l.17,0h.3c.16,0,.4,0,.44-.13a2,2,0,0,1,2.05-.81l.17.16a.89.89,0,0,0,.39.19c.57.16,1.18-.15,1.76,0s-1-2.24,3.49-3.42Z"/></svg>