<?xml version="1.0" encoding="UTF-8"?>
<svg version="1.1" viewBox="0 0 192 192" xmlns="http://www.w3.org/2000/svg">
 <path d="m91.246 181.09c-1.4951-0.55999-2.7947-1.0228-2.8881-1.0284-0.09341-5e-3 -4.1427-3.6544-8.9984-8.1085-10.691-9.8071-11.092-9.969-26.101-10.543-12.222-0.46743-14.947-1.2492-18.514-5.3119-3.0638-3.4896-3.5255-5.5625-4.206-18.885-0.44489-8.7103-0.90578-12.493-1.7124-14.052-0.60702-1.1739-4.4262-5.7544-8.487-10.179-4.0609-4.4245-7.9506-9.11-8.6438-10.412-1.6577-3.1139-1.696-9.7057-0.0739-12.747 0.65258-1.2235 4.7012-6.1019 8.9969-10.841 9.3155-10.277 9.5001-10.751 10.109-25.959 0.47514-11.866 1.2811-14.626 5.3027-18.157 3.5062-3.0784 5.6006-3.5437 18.86-4.1894 9.156-0.44588 12.417-0.85269 14.172-1.7679 1.2539-0.65382 5.8853-4.5288 10.292-8.611 8.4567-7.834 12.203-10.108 16.65-10.108 4.4065 0 7.9334 2.1438 16.599 10.09 4.5 4.1263 9.181 8.0234 10.402 8.6604 1.6836 0.87811 5.0955 1.2981 14.113 1.7372 6.5409 0.31853 12.926 0.91523 14.19 1.326 3.2927 1.0704 7.3051 4.9616 8.5289 8.2712 0.68152 1.8431 1.2613 7.0418 1.6466 14.763 0.44363 8.8917 0.88283 12.475 1.7296 14.113 0.62425 1.2071 4.4615 5.8226 8.5273 10.257 8.8794 9.6837 9.8326 11.305 9.8326 16.719 0 5.394-0.88658 6.9023-9.8697 16.79-4.1154 4.53-7.9646 9.1687-8.5539 10.308-0.76746 1.4841-1.244 5.4519-1.68 13.99-0.68048 13.323-1.1422 15.396-4.206 18.885-3.567 4.0626-6.292 4.8444-18.514 5.3119-14.898 0.56977-15.43 0.77962-25.687 10.15-4.6454 4.2438-9.4065 8.2126-10.58 8.8195-3.0913 1.5985-8.0299 1.9107-11.235 0.71024z" style="fill:#98dc9a;stroke-width:.67957"/>
 <path transform="matrix(.42206 0 0 .42206 210.79 25.245)" d="m-210.24 87.537 43.765 75.802a17.321 17.321 90 0 1 0 17.321l-43.765 75.802a17.321 17.321 150 0 1-15 8.6602l-87.529 1e-5a17.321 17.321 30 0 1-15-8.6603l-43.765-75.802a17.321 17.321 90 0 1 0-17.321l43.765-75.802a17.321 17.321 150 0 1 15-8.6603l87.529-5e-6a17.321 17.321 30 0 1 15 8.6603z" style="fill:none;stroke-linecap:round;stroke-linejoin:round;stroke-width:16.037;stroke:#fff"/>
 <path d="m63.954 112.97s10.573-14.167 15.617-14.055c8.8787 0.19709 37.89 38.014 38.226 37.933" style="fill:none;stroke-linecap:round;stroke-linejoin:round;stroke-width:6.7957;stroke:#fff"/>
 <path d="m98.058 113.75s6.2894-9.1722 10.66-9.1722c5.6904 0 17.598 16.555 17.598 16.555" style="fill:none;stroke-linecap:round;stroke-linejoin:round;stroke-width:6.7957;stroke:#fff"/>
 <circle cx="106.92" cy="80.703" r="6.6683" style="fill:#fff"/>
</svg>
