<?xml version="1.0" encoding="UTF-8"?><svg id="a" xmlns="http://www.w3.org/2000/svg" width="192" height="192" viewBox="0 0 192 192"><g id="b"><g id="c"><rect x="20" y="20" width="152" height="152" rx="10" ry="10" style="fill:#fff;"/><g id="d"><path id="e" d="m141,110.44c0-3.47-2.75-6.25-6.19-6.25s-6.19,2.78-6.19,6.25c0,1.97.92,3.7,2.29,4.86-3.9,8.33-12.5,13.77-22.13,13.77s-18.11-5.32-22.01-13.43h6.76c13.18,0,23.96-10.88,23.96-24.19v-22.76c0-.98-.8-1.78-1.78-1.78h-4.59c-.98,0-1.78.8-1.78,1.78v1.08c0,.98.8,1.78,1.78,1.78h1.78v19.91c0,10.76-8.71,19.56-19.38,19.56h-20.64c-9.52,0-17.31-7.87-17.31-17.48v-21.87h2.24c.98,0,1.78-.8,1.78-1.78v-1.08c0-.98-.8-1.78-1.78-1.78h-5.04c-.98,0-1.78.8-1.78,1.78v24.73c0,12.15,9.86,22.11,21.9,22.11h8.83c4.24,10.88,14.9,18.06,27.06,18.06s22.01-6.71,26.6-17.01c3.1-.23,5.62-2.89,5.62-6.25Zm-6.19,2.89c-1.49,0-2.75-1.27-2.75-2.78s1.26-2.78,2.75-2.78,2.75,1.27,2.75,2.78-1.26,2.78-2.75,2.78Z" style="fill:#ff837d;"/></g><path d="m103.82,64.07v30.39c0,.96-.78,1.73-1.73,1.73h-5.17c-.96,0-1.73-.78-1.73-1.73v-16.38l-7.94,17.11c-.28.61-.9,1-1.57,1h-2.41c-.68,0-1.29-.39-1.58-1.01l-7.94-17.22v16.49c0,.96-.78,1.73-1.73,1.73h-5.17c-.96,0-1.73-.78-1.73-1.73v-30.39c0-.96.78-1.73,1.73-1.73h6.53c.68,0,1.29.39,1.57,1.01l9.52,20.55,9.58-20.56c.28-.61.9-1,1.57-1h6.47c.96,0,1.73.78,1.73,1.73Z" style="fill:#73ada4;"/></g></g></svg>