<?xml version="1.0" encoding="UTF-8" standalone="no"?>
<svg
   version="1.1"
   viewBox="0 0 192 192"
   xml:space="preserve"
   id="svg3"
   sodipodi:docname="mihon_preview_alt_1.svg"
   inkscape:version="1.4-dev (a354acff, 2023-12-30)"
   inkscape:export-filename=".//Users/jshin2555/Downloads/mihon_preview_alt_1.png"
   inkscape:export-xdpi="96"
   inkscape:export-ydpi="96"
   xmlns:inkscape="http://www.inkscape.org/namespaces/inkscape"
   xmlns:sodipodi="http://sodipodi.sourceforge.net/DTD/sodipodi-0.dtd"
   xmlns="http://www.w3.org/2000/svg"
   xmlns:svg="http://www.w3.org/2000/svg"><defs
   id="defs3" /><sodipodi:namedview
   id="namedview3"
   pagecolor="#ffffff"
   bordercolor="#000000"
   borderopacity="0.25"
   inkscape:showpageshadow="2"
   inkscape:pageopacity="0.0"
   inkscape:pagecheckerboard="0"
   inkscape:deskcolor="#d1d1d1"
   inkscape:zoom="2.2119783"
   inkscape:cx="99.006396"
   inkscape:cy="91.773052"
   inkscape:window-width="1792"
   inkscape:window-height="1005"
   inkscape:window-x="0"
   inkscape:window-y="25"
   inkscape:window-maximized="1"
   inkscape:current-layer="svg3" />
	 <circle
   class="a"
   cx="96"
   cy="96"
   r="88"
   fill="#fff"
   id="circle1"
   style="fill:#56595b" /><g
   transform="matrix(.30045 0 0 .30045 31.103 31.103)"
   id="g3"><path
     d="m337 216c0 66.83-54.17 121-121 121s-121-54.17-121-121 54.17-121 121-121 121 54.17 121 121z"
     fill="#fff"
     id="path1" /><path
     d="m216 314.31c54.3 0 98.31-44.01 98.31-98.31s-44.01-98.31-98.31-98.31-98.31 44.01-98.31 98.31 44.01 98.31 98.31 98.31zm0 22.69c66.83 0 121-54.17 121-121s-54.17-121-121-121-121 54.17-121 121 54.17 121 121 121z"
     fill="#728dbe"
     fill-rule="evenodd"
     id="path2"
     style="fill:#9abeff" /><path
     d="m163.71 174.79-1.05-24.23c3.16 0.6 6.92 0.75 15.5 0.75 10.39 0 24.08-0.6 31.16-1.5 3-0.3 4.21-0.76 6.17-1.81l16.25 13.85c-1.51 2.1-1.96 3.01-3.61 7.22-1.36 3.31-7.53 22.42-9.93 30.55 11.13 2.26 17.3 3.91 25.73 7.37 1.05-7.37 1.2-11.28 1.2-24.68 0-3.46-0.15-5.41-0.6-8.57l26.19 0.9c-0.76 3.61-0.9 5.12-1.06 10.98-0.6 14.15-1.2 20.92-2.71 31.16 10.39 5.26 10.39 5.26 15.66 8.12 2.71 1.51 3.31 1.81 5.11 2.41l-8.73 28.14c-4.21-3.76-10.08-7.82-18.66-12.64-7.52 17.91-20.01 31.01-38.98 41.39-6.32-8.43-11.13-13.55-18.81-19.57 11.14-5.26 16.26-8.57 22.13-14.14 5.71-5.57 9.48-10.99 13.09-19.11-9.63-4.37-15.8-6.33-26.49-8.58-6.17 18.36-11.14 30.1-15.5 37.17-5.87 9.48-13.84 14.45-23.03 14.45-7.07 0-14.29-3.16-19.56-8.58-6.02-6.17-9.18-14.75-9.18-24.68 0-14.75 7.07-27.54 19.41-35.52 7.98-5.12 16.41-7.37 29.8-8.13 2.71-8.88 4.97-16.55 7.08-25.13-6.63 0.6-14.9 1.05-24.99 1.5-5.42 0.16-7.22 0.31-11.59 0.91zm22.88 45.75c-7.07 1.2-11.29 3.46-15.05 8.28-2.86 3.31-4.21 7.22-4.21 11.43 0 4.67 2.25 8.13 5.11 8.13 3.46 0 7.38-7.83 14.15-27.84z"
     fill="#56595b"
     id="path3" /></g></svg>
