<?xml version="1.0" encoding="UTF-8"?><svg id="a" xmlns="http://www.w3.org/2000/svg" width="192" height="192" xmlns:xlink="http://www.w3.org/1999/xlink" viewBox="0 0 192 192"><defs><clipPath id="d"><rect x="20" y="20" width="152" height="152" rx="10" ry="10" style="fill:none;"/></clipPath></defs><g id="b"><g id="c"><g style="clip-path:url(#d);"><rect x="20" y="20" width="152" height="152" rx="10" ry="10" style="fill:none;"/><path d="m116.99,40.89c-.68-2.65-1.58-6.48-1.78-8.37-.24-2.24-.06-6.69-.75-9.7-1.52-6.67-8.69-11.43-15.25-11.6-3.62-.09-7.29.5-10.91.7-7.52.42-15.06.51-22.59.5-7.54,0-15.09-.13-22.63-.14-7.34-.01-16.65-1.2-23.51,1.8-10.2,4.47-10.55,14.39-10.68,24.06-.11,8.05-.79,16.28,1.25,24.16,1.76,6.78,7.89,10.5,14.46,11.01,4.72.37,9.41.22,14.14.17,2.35-.02,4.68,0,7.03.12.19,0,1.4.14,1.61.15,1.26.22,2.53.53,3.72.95,1.65.58,6.04,3.59,8.06,5.21,4.03,3.25,7.8,6.82,11.4,10.54,5.63,5.82,15.55,5.66,21.21,0,3.34-3.34,4.7-7.9,4.19-12.29.55,0,1.09,0,1.64,0,4.36,0,9.26.52,13.46-.8,6.69-2.09,10.55-7.64,11.01-14.46.48-7.12-3.35-15.18-5.1-22.02Z" style="fill:#ff837d;"/><path d="m69.53,49.81c-2.12.05-10.96,2.14-8.6,5.33.52.52,1.62.64,2.12,0,.58-.74,1.77-1.14,2.64-1.46,1.82-.61,4.04-1.23,5.92-.77.51.29.87,1.11.91,1.69.07.81.64,1.5,1.5,1.5,2.74-.3,1.13-4.13-.2-5.26-1.22-1.08-2.74-1.16-4.29-1.04Z" style="fill:#ba6561;"/><path d="m66.87,42.77c0,.21.04.4.13.58.33.97,1.75,1.23,2.43.48.72-.68.29-1.7.45-2.55.52-1.39-.75-2.81-2.14-2.06-1.1.74-.88,2.38-.88,3.55Z" style="fill:#ba6561;"/><path d="m63.99,30.81c.03,1.18-.03,2.9,1.35,3.33,1.41.36,2.26-1.13,1.69-2.32.03-1.43-.22-3.62-2.01-3.75-1.28-.04-2.01,1.66-1.07,2.54.02.07.04.13.05.2Z" style="fill:#ba6561;"/><path d="m77.52,35.06c.88-.65,1.84-1.21,2.84-1.65.32-.14.6-.57.69-.9.22-.76-.27-1.66-1.05-1.85-.13-.02-.27-.04-.4-.05-.27,0-.52.07-.76.2-1.01.44-1.96,1-2.84,1.65-.17.09-.32.22-.42.39-1.04,1.23.58,3.06,1.94,2.2Z" style="fill:#ba6561;"/><path d="m82.41,34.73c-1.85.39-3.67.93-5.43,1.63-1.91.58-1.08,3.4.8,2.89,1.76-.7,3.58-1.24,5.43-1.63,1.89-.57,1.13-3.32-.8-2.89Z" style="fill:#ba6561;"/><path d="m57.58,33.49c1.72,1.1,3.32,2.36,4.81,3.75,1.46,1.34,3.47-.69,2.12-2.12-1.68-1.56-3.5-2.97-5.42-4.22-.66-.43-1.69-.16-2.05.54-.39.75-.17,1.6.54,2.05Z" style="fill:#ba6561;"/><path d="m80.58,83.06c-11.16-21.61-53.14-40.72-68.34-14.62-2.24,7.52,1.14,17.09-.37,23.84-1.9,8.54-4.21,16.1-3.18,25.03.89,17.2,26.51,15.84,24.86-1.25,5.19-.22,10.16-3.54,15.99-5.63,8.04-2.89,16.76.99,24.85-.97,12.6-3.05,11.44-17.59,6.19-26.4Z" style="fill:#98dc9a;"/><path d="m48.11,92.07c1.93-.06,1.93-3.06,0-3-5.15.17-10.33-.02-15.24-1.69-1.83-.63-2.62,2.27-.8,2.89,5.15,1.76,10.65,1.98,16.04,1.8Z" style="fill:#71a372;"/><path d="m38.2,80.92c.99,3.41,5.47.57,3.85-2.11-1.38-2.05-4.52-.1-3.85,2.11Z" style="fill:#71a372;"/><path d="m51.97,76.29c.92-1.5-.75-3.1-2.29-2.65-1.51.42-2.57,2.69-1.34,3.91,1.25,1.18,2.98,0,3.64-1.26Z" style="fill:#71a372;"/><path d="m32.36,74.23c.8,2.78,4.74.99,3.95-1.49-.87-2.59-4.52-.81-3.95,1.49Z" style="fill:#71a372;"/><path d="m89.74,148.62c-1.12-2.9-2.33-5.77-3.33-8.71-.54-1.6-.99-3.22-1.43-4.85-.14-.52-.25-.87-.33-1.11.01-.29.02-.73,0-1.35-.2-9.19,1.06-18.02-4.94-25.79-5.79-7.49-15.29-8.85-24.19-8.4-8.08.41-16.13,2.05-23.12,6.3-6.56,3.99-10.69,9.86-15.61,15.5-2.91,3.34-5.57,6.38-6.78,10.8-.98,3.58-.87,7.58-.89,11.27-.03,7.83.62,15.92,3.09,23.39,1.96,5.94,6.96,10.88,12.9,12.44,2.11,4.38,5.7,7.85,11.03,9.41,4.96,1.45,10.75.81,15.88.81,4.74,0,9.48,0,14.22,0,5.32,0,11.46.74,16.58-.79,7.81-2.33,12.33-9,12.85-16.87.46-7.01-3.45-15.59-5.94-22.05Z" style="fill:#728dbe;"/><path d="m47.94,152.03c-2.21-.67-8.95-2.38-9.67.63.03.77.66,1.56,1.5,1.5,2.11-.14,5.17-.1,6.76.51,2.06,3.78,4.83-1.08,1.41-2.64Z" style="fill:#54688c;"/><path d="m47.03,141.59c1-1.66-1.64-3.2-2.59-1.51-.9,1.63-1.75,6.12,1.2,5.8,1.94-.65.42-2.94,1.39-4.28Z" style="fill:#54688c;"/><path d="m39.82,134.96c3.11-.76,1.73-6.81-1.49-4.87-2.79,1.27-1.64,5.72,1.49,4.87Z" style="fill:#54688c;"/><path d="m55.78,137.57c3.37-1.84,1.02-8.09-2.87-5.75-2.72,1.68-.09,7.38,2.87,5.75Z" style="fill:#54688c;"/><path d="m60.91,142.32c-.5-.53-1.18-1-1.53-1.65-.06-.1-.25-.52-.09-.13-4.29-6.03-5.56,8.66-1.01,8.63,3.78.48,5.44-4.54,2.63-6.85Zm-1.52,3.23c-.05.3-.31.59-.6.65-.29-.58-.16-1.35-.23-2,.37.38.79.78.83,1.34Z" style="fill:#54688c;"/><path d="m178.92,67.41c-2.23-5.56-1.27-11.99-1.24-17.9.03-6.48.22-13.07-.4-19.53-.97-10-6.36-15.97-16.62-16.16-7.05-.14-14.12.08-21.17.12-12.56.07-33.5-3.51-37.56,12.59-1.88,7.45-1.7,15.72,1.61,22.72,2.73,5.76,7.54,10.15,12.22,14.33,2.75,2.46,6.29,3.7,9.75,3.52,2.19,1.53,4.67,2.67,7.22,3.75,10.15,4.3,20.31,8.56,30.81,11.92,8.43,2.7,18.94-6.49,15.38-15.38Z" style="fill:#ececec;"/><path d="m137.67,40.26c-.02,1.95,3.03,1.94,3,0-.48-1.72,2.12-3.12.73-4.64-2.47-1.77-3.92,2.75-3.73,4.64Z" style="fill:#ccc;"/><path d="m134.32,30.95c1.58-.83,4.78.63,5.02-1.84-.41-2.6-5.34-1.67-6.71-.37-.69,1.09.45,2.59,1.69,2.2Z" style="fill:#ccc;"/><path d="m147.35,32.93c1.11.94,2.03,3.52,3.67,1.43.75-1.76-1.45-4.41-3.31-4.17-1.25.3-1.49,2.13-.36,2.74Z" style="fill:#ccc;"/><path d="m132.95,49.36c2,.24,4.02.36,6,.67,1.08.45,4.15,2.28,4.87.08.18-.79-.24-1.63-1.05-1.85-3.2-1.36-6.4-1.6-9.82-1.9-1.93-.04-1.94,2.98,0,3Z" style="fill:#ccc;"/><path d="m178.3,117.8c-1.54-14.14,4.28-35.34-5.41-46.46-5.66-5.63-15.05-6.23-22.05-9.32-18.75-12.81-46.76-7.27-62.88,7.49-6.8,5.72-9.27,15.1-12.23,23.19-7.43,17.34-10.79,35.92-7.57,54.63,3.6,17.76,23.23,45.03,42.8,29.73,17.63-.03,35.26-.07,52.9-.1,8-.02,16.01-7.1,15.5-15.5-.89-14.54-1.03-29.09-1.06-43.65Z" style="fill:#f9de81;"/><path d="m127.63,124.51c3.08,2.78,8.02-.36,5.28-4.09-2.52-3.82-8.71.74-5.28,4.09Z" style="fill:#c39a54;"/><path d="m131.75,114.16c.8.42,1.78.89,2.67.49,4.31.4,4.45-4.85,1.36-6.71-4.21-3.24-8.99,3.89-4.03,6.22Zm2.73-3.39s.07.07.09.11c-.12-.13-.13-.15-.09-.11Z" style="fill:#c39a54;"/><path d="m116.62,120.72c5.34-.05,4-8.73-1.2-7.36-4.29.95-2.53,7.02,1.2,7.36Z" style="fill:#c39a54;"/><path d="m152.5,115.65c-2.18-.07-2.41,2.37-2.68,3.99-2.34,11.17-15.06,19.21-26.14,18.27-4.24-.07-8.64-.23-12.42-2.38-2.14-.68-4.82,1.42-4,3.8,3.27,5.96,11.93,4.65,17.71,4.97,8.84.87,17.04-4.47,23.7-9.77,4.18-3.3,11.4-16.26,3.84-18.88Z" style="fill:#c39a54;"/></g></g></g></svg>