<?xml version="1.0" encoding="UTF-8"?>
<svg version="1.1" viewBox="0 0 192 192" xml:space="preserve" xmlns="http://www.w3.org/2000/svg">
	 <circle class="a" cx="96" cy="96" r="88" fill="#f8c18c"/><path d="m131.17 70.692-16.176-13.574-4.5364 5.3803 16.176 13.574zm-49.654-8.1936-4.5012-5.3803-16.176 13.539 4.5364 5.3803zm16.246 16.211h-5.2748v21.099l16.704 10.022 2.6374-4.3254-14.066-8.3342zm-1.7583-14.066c-17.477 0-31.649 14.172-31.649 31.649 0 17.477 14.137 31.649 31.649 31.649 17.477 0 31.649-14.172 31.649-31.649 0-17.477-14.172-31.649-31.649-31.649zm0 56.265c-13.609 0-24.616-11.007-24.616-24.616 0-13.609 11.007-24.616 24.616-24.616 13.609 0 24.616 11.007 24.616 24.616 0 13.609-11.007 24.616-24.616 24.616z" fill="#56595b" stroke-width="3.5166"/></svg>
