<?xml version="1.0" encoding="UTF-8"?><svg id="a" xmlns="http://www.w3.org/2000/svg" width="192" height="192" xmlns:xlink="http://www.w3.org/1999/xlink" viewBox="0 0 192 192"><defs><clipPath id="d"><path d="m63.52,97c-.15.96-.72,4.75-.15,9.67.35,3.06,1.88,16.17,10.27,20.24,5.41,2.62,10.76.07,11.78,2.42.83,1.92-1.67,5.81-3.55,9.52-3.77,7.41.73,14.84,2.64,19.11,7.49,16.68,31.04,25.9,45.61,22.72,2.18-.48,10.04-2.03,12.23-9.05,1.75-5.59-1.17-11.88,1.66-13.88,2.11-1.49,3.99.45,5.15-1.02.94-1.19.26-2.53-1.23-7.31-1.44-4.61-1.61-9.42-.36-9.97.57-.25,1.12,1.04,3.08,1.21,1.63.14,2.87-1.17,3.78-2.62,2-3.2-1.44-6.25-.57-12.46.43-3.04.56-2.44,1.08-5.78,1.19-7.65-.68-10.08-2.55-17.39-1.35-5.27-1.44-8.83-.11-12.4.92-2.5,1.14-4.06.85-6.34-.37-2.94-1.05-3.84-2.62-6.74-2.09-3.86-.46-7.15-.3-11.63,0,0,.21-5.96-5.74-16.31-8.98-15.63-50.74-31.01-69.17-14.65-10.21,9.06-5.46,20.95-11.78,62.68Z" style="fill:#fff;"/></clipPath></defs><g id="b"><g id="c"><path d="m63.52,97c-.15.96-.72,4.75-.15,9.67.35,3.06,1.88,16.17,10.27,20.24,5.41,2.62,10.76.07,11.78,2.42.83,1.92-1.67,5.81-3.55,9.52-3.77,7.41.73,14.84,2.64,19.11,7.49,16.68,31.04,25.9,45.61,22.72,2.18-.48,10.04-2.03,12.23-9.05,1.75-5.59-1.17-11.88,1.66-13.88,2.11-1.49,3.99.45,5.15-1.02.94-1.19.26-2.53-1.23-7.31-1.44-4.61-1.61-9.42-.36-9.97.57-.25,1.12,1.04,3.08,1.21,1.63.14,2.87-1.17,3.78-2.62,2-3.2-1.44-6.25-.57-12.46.43-3.04.56-2.44,1.08-5.78,1.19-7.65-.68-10.08-2.55-17.39-1.35-5.27-1.44-8.83-.11-12.4.92-2.5,1.14-4.06.85-6.34-.37-2.94-1.05-3.84-2.62-6.74-2.09-3.86-.46-7.15-.3-11.63,0,0,.21-5.96-5.74-16.31-8.98-15.63-50.74-31.01-69.17-14.65-10.21,9.06-5.46,20.95-11.78,62.68Z" style="fill:#fff;"/><g style="clip-path:url(#d);"><path d="m136.66,125.6c-1,.67-2.1,1.17-3.04,1.94-.84.68-1.56,1.56-1.9,2.59-.19.58-.24,1.25.08,1.77.26.42.74.68,1.23.74s1-.06,1.45-.26c.32-.15,1.07-.31,1.42-.28,1.35.1,2.03.49,2.9,1.02,1.18.73,2.29,1.57,3.36,2.44,1.75,1.41,4.51,3.37,6.13,4.93.11.1-.85-.26-.75-.16" style="fill:none; stroke:#56595b; stroke-linecap:round; stroke-linejoin:round; stroke-width:2.72px;"/><path d="m154.72,123.92c0-2.01-1.95-3.79-2.91-5.45-1.09-1.91-2.09-3.87-2.99-5.88-.69-1.54-1.32-3.11-2.24-4.52-1.02-1.57-2.37-2.9-3.81-4.1-1.17-.98-2.4-1.88-3.68-2.7-.88-.56-1.86-1.2-2.08-2.22-.15-.7.11-1.48.28-2.16" style="fill:none; stroke:#56595b; stroke-linecap:round; stroke-linejoin:round; stroke-width:2.72px;"/><path d="m148.3,152.69s-1.14.24-2.37.46c-.77.14-4.52.78-9.41.62-4.85-.16-8.46-1.04-11.89-1.87-4.74-1.15-9.2-4.39-12.52-5.83l-1.87,2.55c1.25.69,3.02,1.58,5.21,2.44,4.09,1.59,7.35,2.14,10.25,2.61,4.46.72,8.69,1.41,14.16.79,4.45-.5,8.45-1.72,8.44-1.76Z" style="fill:#56595b; stroke:#56595b; stroke-linecap:round; stroke-linejoin:round; stroke-width:2.72px;"/><path d="m140.17,90.45c-1.07-.27-1.81-2.91-.85-4.19.71-.95,1.76-.36,3.4-1.13,2.1-.99,1.93-2.69,4.25-5.21,1.19-1.3,3.19-3.48,5.04-3.12,2.8.56,4.39,6.83,2.78,8.16-1.08.89-2.56-1.27-5.44-.68-2.55.53-5.16,3-7.14,4.87-.88.83-1.44,1.46-2.04,1.3Z" style="fill:#56595b; stroke:#56595b; stroke-linecap:round; stroke-linejoin:round; stroke-width:.68px;"/><path d="m111.05,80.88s0-.08,0-.12c.05-.52.36-.97.73-1.35.59-.61,1.32-1.05,2.05-1.48,1.02-.6,2.12-1.18,3.3-1.19,1.47,0,2.79.9,3.81,1.95s1.84,2.29,2.93,3.27c1.7,1.53,3.92,2.33,6.12,2.94,1.84.52,2.92,1.59,2.86,3.61-.02.77-.28,2.01-.85,2.38-.83.53-2.07-.73-2.62-1.2-1.17-1-2.32-2.04-3.5-3.04-2.37-2.01-4.85-3.94-7.68-5.26-.68-.31-1.4-.6-2.14-.56-1.2.06-2.19.9-3.37,1.05-.82.11-1.68-.03-1.66-1.02Z" style="fill:#56595b; stroke:#56595b; stroke-linecap:round; stroke-linejoin:round; stroke-width:.68px;"/><path d="m115.13,100.13c-1.79-4.23-1.05-8.37-.4-9.85l8.48,6.82c1.25,1,2.56,1.93,3.94,2.74s2.19,1.55,2.7,2.33c.96,1.47,1.15,3.85.4,4.7-1.25,1.42-12.8-1.25-15.12-6.74Z" style="fill:#56595b; stroke:#56595b; stroke-linecap:round; stroke-linejoin:round; stroke-width:.68px;"/><path d="m140.31,101.83s2.78-2.13,3.6-2.83c1.9-1.62,7.75-6.8,7.75-6.8l1.49,8.33s-1.72,1.99-4.08,3.12c-2.72,1.3-4.79,1.44-4.79,1.44l-3.96-3.26Z" style="fill:#56595b; stroke:#56595b; stroke-linecap:round; stroke-linejoin:round; stroke-width:1.36px;"/><path d="m117.78,99.83c.3.72.75.93,4.46,2.79,1.67.84,2.35,1.18,2.76.87.53-.4.23-1.59.19-1.74-.24-.92-.87-1.6-2.19-2.53-2.15-1.52-3.98-2.81-4.91-2.15-.67.47-.69,1.83-.3,2.76Z" style="fill:#fff;"/><path d="m146.48,101.72c-.03-.6,0-1.18-.34-2.57.21-1.35,3.82-2.58,4.19-.63.25,1.33-3.22,3.88-3.85,3.2Z" style="fill:#fff;"/><circle cx="120.36" cy="99.57" r="1.26" style="fill:#56595b; stroke:#56595b; stroke-linecap:round; stroke-linejoin:round; stroke-width:2.01px;"/><path d="m72.76,118.6c-1.48-1.61-6.36-11.08-3.89-21.4.46-1.94,1.84-7.68,6.4-9.04,2.53-.76,4.69-.64,6.26,1.3,2.48,3.06,2.06,6.78-.41,14.85" style="fill:#fff; stroke:#56595b; stroke-linecap:round; stroke-linejoin:round; stroke-width:2.98px;"/></g><path d="m156.56,125.94c.2-1.43.33-1.96.47-2.58.16-.67.33-1.42.6-3.16,1-6.41-.03-9.76-1.32-14-.4-1.3-.84-2.77-1.28-4.48-1.23-4.82-1.29-7.84-.2-10.79,1.08-2.91,1.34-4.91,1-7.63-.39-3.07-1.13-4.42-2.37-6.66-.17-.32-.36-.66-.56-1.03-.98-1.81-.81-3.35-.4-6.15.18-1.21.38-2.58.43-4.09.02-.69.05-7.06-6.1-17.76-7.04-12.26-30.35-23.02-49.88-23.02-9.68,0-17.79,2.66-23.45,7.69-7.26,6.44-7.81,14.01-8.9,29.08-.61,8.39-1.44,19.89-3.76,35.22-.64,4.23-.44,7.98-.16,10.39,1.69,14.59,7.34,20.22,11.78,22.37,2.88,1.4,5.72,1.59,8.11,1.59.29,0,.57,0,.84,0,.24,0,.47,0,.69,0,.25,0,.46,0,.63,0-.38,1.21-1.47,3.25-2.18,4.57-.37.7-.75,1.4-1.1,2.1-3.95,7.76-.3,15.38,1.87,19.93.26.55.5,1.05.72,1.52,7.02,15.61,26.82,24.95,41.92,24.95,2.4,0,4.67-.23,6.75-.69l.15-.03c7.62-1.65,12.36-5.31,14.1-10.86.95-3.05.75-6.15.58-8.64-.09-1.33-.22-3.34.07-3.85.1-.06.17-.09.34-.09.19,0,.44.03.71.07.36.05.77.1,1.22.1,1.77,0,2.84-.88,3.43-1.62,1.69-2.14,1.01-4.26-.12-7.77-.19-.6-.41-1.27-.65-2.03-.65-2.08-.95-3.99-1.05-5.39.29.07.6.12.94.15.16.01.32.02.47.02,2.25,0,4.22-1.32,5.84-3.91,1.66-2.65,1-5.18.42-7.42-.46-1.79-.94-3.64-.6-6.1Zm-9.35,12.92c-1.68,1.08-1.27,6.42.08,10.74.24.77.46,1.46.65,2.06,1,3.09,1.23,3.93.69,4.62-.3.38-.64.38-1.54.26-.92-.12-2.17-.29-3.47.63-1.85,1.3-1.68,3.86-1.48,6.83.15,2.32.33,4.96-.44,7.4-2.03,6.48-9.21,8.04-11.57,8.55l-.16.03c-14.36,3.14-37.56-6.12-44.85-22.33-.22-.49-.48-1.03-.75-1.6-2.03-4.24-5.09-10.66-1.91-16.92.34-.68.71-1.36,1.07-2.04,1.77-3.32,3.31-6.19,2.5-8.06-.6-1.38-2.14-1.52-3.99-1.52-.22,0-.45,0-.69,0-2.13.02-4.79.04-7.43-1.24-3.68-1.78-8.37-6.65-9.89-19.71-.25-2.2-.44-5.63.15-9.48h0c2.34-15.47,3.18-27.04,3.79-35.49,1.06-14.6,1.54-21.26,7.77-26.79,6.76-6,17.6-8.15,30.5-6.05,16.26,2.65,32.44,11.48,37.64,20.53,5.75,10.01,5.65,15.89,5.65,15.95-.04,1.32-.22,2.54-.4,3.72-.4,2.76-.78,5.37.78,8.26l.57,1.05c1.15,2.08,1.67,3.03,1.97,5.45.27,2.16.07,3.62-.81,6.02-1.36,3.66-1.33,7.25.09,12.81.46,1.78.92,3.29,1.32,4.62,1.26,4.12,2.09,6.85,1.21,12.49-.25,1.62-.4,2.28-.55,2.92-.15.66-.3,1.29-.52,2.87-.44,3.14.17,5.52.67,7.43.51,1.95.87,3.36,0,4.76-1.03,1.64-2.05,2.41-3.14,2.31-.88-.08-1.37-.45-1.81-.78-.4-.3-1.01-.76-1.69-.32Z" style="fill:#56595b;"/><path d="m146.95,34.23C127.07,5.38,85.44,4.83,62.31,11.49c-8.98,2.59-22.56,6.5-26.95,18.51-4.1,11.21,1.97,23.49,4.06,25.96.27.32.99,1.17,1.99.99,1.41-.26,1.36-1.72,1.32-3.01-.05-1.68-.13-4.23,1.34-5.43,1.11-.91,3.25-1.16,5.33-.62,1.61.42,2.86,1.24,3.2,2.1.41,1.03-.44,2.48-.76,3.02l-.06.1c-5,8.64,2.59,38.93,6.86,45.52.57.89,1.49,2.04,2.78,1.91.57-.06,1.36-.39,1.84-1.64.38-.98.73-1.97,1.08-2.96,2.34-6.58,4.37-12.26,13.38-12.26,4.55,0,6.14.89,8.5,4.78,3.14,5.16-.28,16.07-1.57,20.18-.66,2.09-.77,2.47-.44,3.08.18.32.49.57.85.67.09.03.22.05.37.05.27,0,.62-.08.97-.38,1.92-1.62,16.18-24.38,14.12-43.94-.35-3.32-.83-6.05-1.21-8.25-.76-4.33-1.05-6.27.08-7,.88-.57,3.96.35,8.15,3.23,17.17,11.79,42.91,13.29,48.88,5.76,3.5-4.42.5-13.21-9.46-27.67Z" style="fill:#56595b;"/></g></g></svg>