<?xml version="1.0" encoding="UTF-8" standalone="no"?>
<!DOCTYPE svg PUBLIC "-//W3C//DTD SVG 1.1//EN" "http://www.w3.org/Graphics/SVG/1.1/DTD/svg11.dtd">
<svg width="100%" height="100%" viewBox="0 0 192 192" version="1.1" xmlns="http://www.w3.org/2000/svg" xmlns:xlink="http://www.w3.org/1999/xlink" xml:space="preserve" xmlns:serif="http://www.serif.com/" style="fill-rule:evenodd;clip-rule:evenodd;stroke-linejoin:round;stroke-miterlimit:2;">
    <g id="bg">
        <path id="rect1" d="M173,30L173,162C173,167.519 168.519,172 163,172L31,172C25.481,172 21,167.519 21,162L21,30C21,24.481 25.481,20 31,20L163,20C168.519,20 173,24.481 173,30Z" style="fill:white;"/>
        <g id="bottom">
            <path id="path1" d="M21,152L173,152C173,163.046 164.046,172 153,172L41,172C29.954,172 21,163.046 21,152Z" style="fill:rgb(114,141,190);fill-rule:nonzero;"/>
            <rect id="path3" x="21" y="152" width="152" height="10" style="fill:rgb(154,190,255);fill-rule:nonzero;"/>
        </g>
    </g>
    <g id="icon">
        <rect id="rect2" x="37.345" y="96" width="39.405" height="2" style="fill:rgb(114,141,190);"/>
        <rect id="rect5" x="114" y="96" width="40.493" height="2" style="fill:rgb(114,141,190);"/>
        <rect id="rect3" x="37.345" y="94" width="39.405" height="2" style="fill:rgb(154,190,255);"/>
        <rect id="rect4" x="114" y="94.017" width="40.493" height="2" style="fill:rgb(154,190,255);"/>
        <g id="text">
            <g id="Business">
                <path d="M49.741,117.969C51.772,117.05 53.112,115.208 53.112,112.752C53.112,109.144 50.278,106.617 46.748,106.617L38.387,106.617L38.387,129.628L47.553,129.628C51.046,129.628 53.841,127.139 53.841,123.569C53.841,120.767 52.157,118.773 49.741,117.969ZM50.662,112.944C50.662,115.208 48.782,116.936 46.479,116.936L40.799,116.936L40.799,109.067L46.479,109.067C48.782,109.067 50.662,110.679 50.662,112.944ZM47.246,127.177L40.799,127.177L40.799,119.309L47.246,119.309C49.51,119.309 51.391,121.036 51.391,123.301C51.391,125.565 49.51,127.177 47.246,127.177Z" style="fill:rgb(114,141,190);fill-rule:nonzero;"/>
                <path d="M63.702,129.934C67.118,129.934 69.453,127.676 69.453,124.107L69.453,114.289L67.118,114.289L67.118,123.839C67.118,126.141 65.698,127.561 63.702,127.561C61.744,127.561 60.285,126.141 60.285,123.839L60.285,114.289L57.95,114.289L57.95,124.107C57.95,127.676 60.247,129.934 63.702,129.934Z" style="fill:rgb(114,141,190);fill-rule:nonzero;"/>
                <path d="M78.316,129.934C81.004,129.934 83.224,128.135 83.224,125.489C83.224,122.726 80.927,121.651 78.931,120.845C77.049,120.039 76.089,119.617 76.089,118.274C76.089,116.969 76.972,116.355 78.24,116.355C79.238,116.355 80.121,116.777 80.543,117.583L82.612,116.509C82.037,115.13 80.083,113.982 78.124,113.982C75.86,113.982 73.677,115.551 73.677,118.351C73.677,120.768 75.285,121.997 78.009,123.033C79.852,123.762 80.851,124.261 80.851,125.489C80.851,126.832 79.699,127.599 78.316,127.599C76.896,127.599 75.515,126.793 75.285,125.681L72.987,126.602C73.562,128.441 75.86,129.934 78.316,129.934Z" style="fill:rgb(114,141,190);fill-rule:nonzero;"/>
                <path d="M88.712,111.407C89.593,111.407 90.359,110.679 90.359,109.798C90.359,108.841 89.593,108.151 88.712,108.151C87.792,108.151 87.026,108.841 87.026,109.798C87.026,110.679 87.792,111.407 88.712,111.407ZM87.525,129.626L89.899,129.626L89.899,114.289L87.525,114.289L87.525,129.626Z" style="fill:rgb(114,141,190);fill-rule:nonzero;"/>
                <path d="M101.869,113.982C100.449,113.982 99.144,114.556 98.146,115.513L98.146,114.289L95.772,114.289L95.772,129.626L98.146,129.626L98.146,119.846C98.146,117.889 99.72,116.355 101.677,116.355C103.635,116.355 105.17,117.889 105.17,119.846L105.17,129.626L107.544,129.626L107.544,119.846C107.544,116.585 104.825,113.982 101.869,113.982Z" style="fill:rgb(114,141,190);fill-rule:nonzero;"/>
                <path d="M127.836,121.803C127.721,117.392 124.23,113.982 119.857,113.982C115.446,113.982 111.883,117.546 111.883,121.957C111.883,126.371 115.446,129.934 119.857,129.934C123.501,129.934 126.531,127.523 127.529,124.221L124.997,124.221C124.153,126.217 122.158,127.561 119.857,127.561C116.827,127.561 114.41,125.257 114.256,122.301L127.797,122.301L127.836,121.803ZM119.857,116.355C122.312,116.355 124.383,117.93 125.112,120.158L114.563,120.158C115.331,117.93 117.402,116.355 119.857,116.355Z" style="fill:rgb(114,141,190);fill-rule:nonzero;"/>
                <path d="M136.008,129.934C138.696,129.934 140.916,128.135 140.916,125.489C140.916,122.726 138.619,121.651 136.623,120.845C134.741,120.039 133.781,119.617 133.781,118.274C133.781,116.969 134.664,116.355 135.931,116.355C136.93,116.355 137.813,116.777 138.235,117.583L140.303,116.509C139.729,115.13 137.775,113.982 135.816,113.982C133.552,113.982 131.369,115.551 131.369,118.351C131.369,120.768 132.977,121.997 135.701,123.033C137.544,123.762 138.543,124.261 138.543,125.489C138.543,126.832 137.391,127.599 136.008,127.599C134.588,127.599 133.207,126.793 132.977,125.681L130.679,126.602C131.254,128.441 133.552,129.934 136.008,129.934Z" style="fill:rgb(114,141,190);fill-rule:nonzero;"/>
                <path d="M148.705,129.934C151.392,129.934 153.613,128.135 153.613,125.489C153.613,122.726 151.316,121.651 149.319,120.845C147.438,120.039 146.478,119.617 146.478,118.274C146.478,116.969 147.361,116.355 148.628,116.355C149.627,116.355 150.51,116.777 150.932,117.583L153,116.509C152.426,115.13 150.471,113.982 148.513,113.982C146.248,113.982 144.066,115.551 144.066,118.351C144.066,120.768 145.674,121.997 148.398,123.033C150.241,123.762 151.239,124.261 151.239,125.489C151.239,126.832 150.087,127.599 148.705,127.599C147.284,127.599 145.904,126.793 145.674,125.681L143.376,126.602C143.951,128.441 146.248,129.934 148.705,129.934Z" style="fill:rgb(114,141,190);fill-rule:nonzero;"/>
            </g>
            <g id="for">
                <path d="M89.381,95.18L86.939,95.18L86.939,90.271C86.939,89.427 87.578,88.879 88.308,88.879L89.358,88.901L89.358,87.808C89.107,87.649 88.605,87.512 88.148,87.512C86.734,87.512 85.527,88.651 85.527,90.089L85.527,95.18L83.998,95.18L83.998,96.546L85.527,96.546L85.527,104.304L86.939,104.304L86.939,96.546L89.381,96.546L89.381,95.18Z" style="fill:rgb(114,141,190);fill-rule:nonzero;"/>
                <path d="M95.407,104.488C98.032,104.488 100.152,102.368 100.152,99.743C100.152,97.117 98.032,94.997 95.407,94.997C92.781,94.997 90.661,97.117 90.661,99.743C90.661,102.368 92.781,104.488 95.407,104.488ZM95.407,103.076C93.557,103.076 92.073,101.592 92.073,99.743C92.073,97.893 93.557,96.409 95.407,96.409C97.233,96.409 98.74,97.893 98.74,99.743C98.74,101.592 97.233,103.076 95.407,103.076Z" style="fill:rgb(114,141,190);fill-rule:nonzero;"/>
                <path d="M107.295,94.997C105.994,94.997 104.944,95.567 104.26,96.478L104.26,95.18L102.848,95.18L102.848,104.304L104.26,104.304L104.26,99.353C104.26,97.687 105.629,96.409 107.295,96.409C107.568,96.409 107.797,96.432 108.002,96.501L108.002,95.066C107.797,95.02 107.568,94.997 107.295,94.997Z" style="fill:rgb(114,141,190);fill-rule:nonzero;"/>
            </g>
            <path id="paytm" d="M48.82,56.419L37.345,56.419L37.345,83.419L43.285,83.419L43.285,72.484L48.82,72.484C53.365,72.484 56.875,69.109 56.875,64.564C56.875,60.064 53.365,56.419 48.82,56.419ZM47.875,67.579L43.285,67.579L43.285,61.639L47.875,61.639C49.765,61.639 51.205,62.854 51.205,64.609C51.205,66.409 49.765,67.579 47.875,67.579ZM74.778,83.419L81.123,83.419L71.403,56.419L64.743,56.419L55.023,83.419L61.368,83.419L63.033,78.334L73.113,78.334L74.778,83.419ZM64.608,73.384L68.073,62.674L71.538,73.384L64.608,73.384ZM103.347,56.419L96.732,56.419L90.972,65.554L85.212,56.419L78.507,56.419L88.002,70.729L88.002,83.419L93.942,83.419L93.942,70.684L103.347,56.419ZM122.128,56.419L102.598,56.419L102.598,61.684L109.438,61.684L109.438,83.419L115.333,83.419L115.333,61.684L122.128,61.684L122.128,56.419ZM148.103,56.419L139.508,75.094L131.003,56.419L124.568,56.419L124.568,83.419L130.508,83.419L130.508,67.309L137.798,83.419L141.218,83.419L148.553,67.354L148.553,83.419L154.493,83.419L154.493,56.419L148.103,56.419Z" style="fill:rgb(154,190,255);fill-rule:nonzero;"/>
        </g>
    </g>
</svg>
