<?xml version="1.0" encoding="UTF-8" standalone="no"?>
<svg
   viewBox="0 0 192 192"
   version="1.1"
   id="svg16"
   sodipodi:docname="per.svg"
   inkscape:version="1.1.2 (0a00cf5339, 2022-02-04)"
   inkscape:export-filename="/home/vimal/Documents/per.png"
   inkscape:export-xdpi="96"
   inkscape:export-ydpi="96"
   xmlns:inkscape="http://www.inkscape.org/namespaces/inkscape"
   xmlns:sodipodi="http://sodipodi.sourceforge.net/DTD/sodipodi-0.dtd"
   xmlns="http://www.w3.org/2000/svg"
   xmlns:svg="http://www.w3.org/2000/svg">
  <sodipodi:namedview
     id="namedview18"
     pagecolor="#ffffff"
     bordercolor="#666666"
     borderopacity="1.0"
     inkscape:pageshadow="2"
     inkscape:pageopacity="0.0"
     inkscape:pagecheckerboard="0"
     showgrid="false"
     inkscape:zoom="1.7402231"
     inkscape:cx="31.030504"
     inkscape:cy="107.45748"
     inkscape:window-width="1366"
     inkscape:window-height="700"
     inkscape:window-x="0"
     inkscape:window-y="0"
     inkscape:window-maximized="1"
     inkscape:current-layer="layer4" />
  <defs
     id="defs4">
    <inkscape:path-effect
       effect="bspline"
       id="path-effect540"
       is_visible="true"
       lpeversion="1"
       weight="33.333333"
       steps="2"
       helper_size="0"
       apply_no_weight="true"
       apply_with_weight="true"
       only_selected="false" />
    <inkscape:path-effect
       effect="bspline"
       id="path-effect536"
       is_visible="true"
       lpeversion="1"
       weight="33.333333"
       steps="2"
       helper_size="0"
       apply_no_weight="true"
       apply_with_weight="true"
       only_selected="false" />
    <style
       id="style2">.a{fill:none;stroke:#b1b5bd;stroke-linecap:round;stroke-linejoin:round;isolation:isolate;opacity:0.63;}</style>
  </defs>
  <g
     inkscape:groupmode="layer"
     id="layer4"
     inkscape:label="Layer 4">
    <g
       id="g2480">
      <circle
         style="display:inline;fill:#8c72bd;fill-opacity:1;stroke:none;stroke-width:1.19391"
         id="path2112"
         cx="96"
         cy="96"
         r="88" />
      <g
         id="g2473"
         transform="matrix(1.0074074,0,0,1.0010413,-0.48819642,-0.38571624)">
        <path
           style="fill:#ffffff;fill-opacity:1;stroke:none;stroke-width:0.895786px;stroke-linecap:butt;stroke-linejoin:miter;stroke-opacity:1"
           d="m 35.761728,70.288803 c -0.483523,-0.368413 -1.451546,-1.105983 -2.451626,-2.232829 -1.00008,-1.126846 -2.031852,-2.643147 -2.517449,-4.372871 -0.485597,-1.729724 -0.424266,-3.672586 -0.113615,-5.334507 0.310651,-1.66192 0.870753,-3.042387 1.613103,-4.201503 0.742351,-1.159116 1.666712,-2.096345 2.672267,-2.837562 1.005554,-0.741217 2.091881,-1.286196 3.237264,-1.610668 1.145383,-0.324472 2.349304,-0.42853 3.465363,-0.37955 1.11606,0.04898 2.143975,0.25072 3.282283,0.700554 1.138308,0.449834 2.386902,1.147341 3.336271,1.946179 0.949369,0.798838 1.599806,1.698549 2.048155,2.357917 0.448348,0.659369 0.694705,1.078331 1.101964,1.203347 0.407259,0.125017 0.975438,-0.04267 13.597431,-2.034583 12.621992,-1.991914 37.296591,-5.807951 49.752151,-7.785699 12.45556,-1.977748 12.6921,-2.117181 12.80225,-2.418397 0.11015,-0.301215 0.0943,-0.765387 0.26139,-1.318256 0.16704,-0.552869 0.5171,-1.193793 1.03715,-2.020786 0.52005,-0.826993 1.21003,-1.839925 1.91395,-2.654133 0.70393,-0.814208 1.42167,-1.429495 2.38634,-1.904814 0.96468,-0.475319 2.17579,-0.810601 3.48859,-0.955263 1.31279,-0.144662 2.72701,-0.09893 3.93548,0.0868 1.20848,0.185729 2.211,0.511178 3.28679,1.11487 1.0758,0.603691 2.22488,1.485171 3.0217,2.365657 0.79681,0.880486 1.24179,1.759615 1.64453,2.742646 0.40274,0.983031 0.7634,2.069908 0.94256,3.314323 0.17916,1.244415 0.17716,2.646429 0.006,3.821036 -0.17079,1.174608 -0.51015,2.122076 -1.12917,3.012616 -0.61902,0.89054 -1.51788,1.724644 -2.1595,2.333197 -0.64161,0.608554 -1.02591,0.991507 -1.41908,1.251032 -0.39318,0.259525 -0.79574,0.395862 -0.99041,0.564476 -0.19467,0.168614 -0.18104,0.368304 -0.17938,0.684388 0.002,0.316083 -0.009,0.748566 0.90979,13.435245 0.91838,12.686679 2.76519,37.626493 3.70497,50.169143 0.93978,12.54265 0.97224,12.68719 1.05744,12.78063 0.0852,0.0934 0.22106,0.13599 0.54028,0.24964 0.31921,0.11365 0.82052,0.29797 1.18141,0.40889 0.36089,0.11091 0.58072,0.14856 1.0764,0.43146 0.49567,0.28289 1.26632,0.81036 1.97557,1.61905 0.70925,0.80869 1.35743,1.89818 1.88992,3.11803 0.53249,1.21985 0.94957,2.5701 1.1639,3.74362 0.21433,1.17353 0.22623,2.17028 0.13413,3.06943 -0.0921,0.89916 -0.28805,1.70101 -0.68942,2.58714 -0.40138,0.88613 -1.00819,1.85691 -1.78536,2.77124 -0.77718,0.91433 -1.72512,1.77275 -2.7347,2.41153 -1.00957,0.63878 -2.08147,1.05826 -3.19727,1.33296 -1.11581,0.2747 -2.27586,0.40459 -3.36508,0.36312 -1.08921,-0.0415 -2.10807,-0.25464 -3.19896,-0.67438 -1.09089,-0.41975 -2.25402,-1.04647 -3.18061,-1.72063 -0.92659,-0.67415 -1.6163,-1.39592 -2.13397,-2.10853 -0.51767,-0.71262 -0.86283,-1.41611 -1.10837,-2.02812 -0.24555,-0.61201 -0.39121,-1.13239 -0.49784,-1.5663 -0.10662,-0.4339 -0.17398,-0.78072 -0.25672,-1.02586 -0.0827,-0.24514 -0.1814,-0.38838 -0.58539,-0.51023 -0.40399,-0.12184 -1.11364,-0.22137 -16.24483,-3.1883 -15.13119,-2.96694 -44.682656,-8.8011 -59.567648,-11.79417 -14.884992,-2.99307 -15.102942,-3.14547 -15.325823,-3.15478 -0.222881,-0.009 -0.450011,0.12526 -0.651799,0.40014 -0.201788,0.27488 -0.377725,0.68938 -0.78078,1.23163 -0.403054,0.54224 -1.03322,1.21241 -1.909804,1.76672 -0.876584,0.55432 -1.999959,0.99288 -3.409905,1.2843 -1.409946,0.29142 -3.106703,0.43558 -4.515551,0.31195 -1.408848,-0.12363 -2.529969,-0.5155 -3.655971,-1.13374 -1.126002,-0.61823 -2.256878,-1.46327 -3.20845,-2.54113 -0.951572,-1.07785 -1.723523,-2.38884 -2.187006,-3.51085 -0.463483,-1.12201 -0.617939,-2.05468 -0.697914,-2.9379 -0.07998,-0.88323 -0.08528,-1.71657 0.05368,-2.6357 0.138961,-0.91913 0.422334,-1.92358 0.87717,-2.83772 0.454836,-0.91414 1.081031,-1.73745 1.650163,-2.43422 0.569131,-0.69676 1.08109,-1.26683 1.672422,-1.71175 0.591332,-0.44491 1.261479,-0.76434 1.834272,-1.04133 0.572793,-0.27699 1.048199,-0.51154 1.532938,-0.65176 0.484738,-0.14023 0.978046,-0.18624 1.303409,-0.2569 0.325364,-0.0707 0.483525,-0.16618 0.556049,-0.50738 0.07252,-0.3412 0.0599,-0.92925 0.754716,-7.2092 0.694813,-6.27994 2.097109,-18.251156 2.827108,-24.363096 0.729999,-6.111939 0.787716,-6.364167 0.809565,-6.555798 0.02185,-0.191631 0.0076,-0.322972 3.76e-4,-0.389136 -0.0072,-0.06617 -0.0061,-0.06617 -0.489633,-0.434577 z"
           id="path534"
           inkscape:path-effect="#path-effect536"
           inkscape:original-d="m 36.24525,70.657215 c -0.967148,-0.736689 -1.935174,-1.474256 -2.904101,-2.212734 -1.03093,-1.515487 -2.062704,-3.031787 -3.0954,-4.549026 0.06207,-1.942052 0.123564,-3.884909 0.183998,-5.828708 0.561025,-1.379632 1.121127,-2.760099 1.680349,-4.141505 0.92529,-0.936383 1.849661,-1.873603 2.773144,-2.81175 1.087262,-0.544102 2.173585,-1.089089 3.259039,-1.634968 1.204859,-0.103174 2.40878,-0.207228 3.611819,-0.312181 1.028862,0.20264 2.056777,0.40438 3.083825,0.605232 1.249535,0.698427 2.498129,1.395934 3.745843,2.092555 0.651363,0.90063 1.301789,1.800349 1.951343,2.699175 0.247253,0.419868 0.493605,0.838833 0.739072,1.256887 0.569103,-0.166791 1.137282,-0.334476 1.704575,-0.503068 24.676531,-3.815303 49.351134,-7.631346 74.025494,-11.448372 0.2372,-0.13846 0.47379,-0.277805 0.70921,-0.418062 -0.0153,-0.46329 -0.0307,-0.927476 -0.0474,-1.39255 0.35097,-0.640053 0.70105,-1.280969 1.0502,-1.92278 0.69087,-1.012081 1.38088,-2.024994 2.06997,-3.038833 0.71851,-0.614368 1.43627,-1.229628 2.15308,-1.845747 1.21203,-0.334412 2.42315,-0.669655 3.63326,-1.005828 1.41516,0.04647 2.82937,0.09234 4.24291,0.137211 1.00325,0.326324 2.00578,0.651749 3.00743,0.976304 1.15002,0.882401 2.29909,1.763893 3.44729,2.644478 0.44589,0.880074 0.89089,1.759192 1.33496,2.637441 0.36155,1.087828 0.72218,2.174716 1.08202,3.260723 -7.8e-4,1.402985 -0.003,2.804998 -0.006,4.206156 -0.33853,0.94843 -0.67786,1.895911 -1.01814,2.842531 -0.89793,0.835049 -1.79678,1.669173 -2.69673,2.502426 -0.38326,0.383802 -0.76764,0.766671 -1.15269,1.148661 -0.4018,0.137256 -0.80436,0.273597 -1.20776,0.409037 0.0151,0.200633 0.0282,0.400359 0.0409,0.599197 -0.01,0.433394 -0.0198,0.865887 -0.0307,1.297506 1.84771,24.941667 3.69465,49.881467 5.54055,74.820857 0.0347,0.14555 0.0667,0.29019 0.0975,0.43414 0.13756,0.0451 0.27432,0.0848 0.41026,0.12848 0.50201,0.18508 1.00328,0.36951 1.50357,0.55282 0.22134,0.04 0.44159,0.0752 0.66119,0.11323 0.77157,0.52834 1.5422,1.05583 2.31198,1.58242 0.64914,1.09043 1.29734,2.17991 1.94462,3.26857 0.41798,1.35104 0.83506,2.70129 1.25122,4.05064 0.0132,0.99786 0.0246,1.99462 0.0357,2.99055 -0.19502,0.80265 -0.39108,1.60447 -0.58785,2.40551 -0.60591,0.97163 -1.21271,1.94242 -1.82031,2.91215 -0.94693,0.85923 -1.89489,1.71763 -2.84355,2.57501 -1.0709,0.42036 -2.14283,0.83976 -3.21539,1.25831 -1.15934,0.13078 -2.31938,0.26079 -3.48032,0.38968 -1.01776,-0.21219 -2.03662,-0.42535 -3.0562,-0.63943 -1.1622,-0.62586 -2.32529,-1.25267 -3.48936,-1.88015 -0.68895,-0.72107 -1.37872,-1.44278 -2.06941,-2.16559 -0.34421,-0.70264 -0.68933,-1.40615 -1.03547,-2.11045 -0.14472,-0.51969 -0.29051,-1.04003 -0.43711,-1.56154 -0.0678,-0.34603 -0.13394,-0.69308 -0.2022,-1.04116 -0.0977,-0.14219 -0.19639,-0.28541 -0.29593,-0.42964 -0.70869,-0.0985 -1.41835,-0.19798 -2.12904,-0.29859 -29.55169,-5.83354 -59.103163,-11.66764 -88.656094,-17.50281 -0.217023,-0.15152 -0.434942,-0.30396 -0.653755,-0.45712 -0.226248,0.13548 -0.453388,0.27004 -0.681423,0.40375 -0.175075,0.41547 -0.351034,0.82996 -0.527896,1.24369 -0.629362,0.6712 -1.259574,1.34132 -1.890714,2.01072 -1.122499,0.43948 -2.24587,0.87805 -3.370147,1.31569 -1.695956,0.14516 -3.392712,0.28933 -5.090417,0.4325 -1.120279,-0.39094 -2.241396,-0.78282 -3.363435,-1.17563 -1.12994,-0.84399 -2.26071,-1.68917 -3.39243,-2.53497 -0.771106,-1.31014 -1.543059,-2.62113 -2.315959,-3.93315 -0.15359,-0.93197 -0.308042,-1.86464 -0.463428,-2.79837 -0.0047,-0.8326 -0.0095,-1.66595 -0.01591,-2.50025 0.284298,-1.00365 0.567668,-2.0081 0.850153,-3.01347 0.627103,-0.82247 1.25331,-1.64577 1.878627,-2.46998 0.5129,-0.56922 1.024886,-1.13927 1.535985,-1.71034 0.671095,-0.31858 1.341258,-0.63797 2.010557,-0.95832 0.476288,-0.23367 0.951652,-0.4683 1.426134,-0.70359 0.494465,-0.0467 0.988026,-0.09 1.4807,-0.13812 0.15878,-0.0938 0.316665,-0.18978 0.473663,-0.28607 -0.01166,-0.58721 -0.02431,-1.17526 -0.03786,-1.76419 1.403251,-11.970824 2.805554,-23.94204 4.206978,-35.914408 0.05878,-0.251352 0.116337,-0.503617 0.173168,-0.756755 -0.01335,-0.130451 -0.02765,-0.26179 -0.04284,-0.394032 z" />
        <path
           style="fill:#bd9aff;stroke:none;stroke-width:0.895786px;stroke-linecap:butt;stroke-linejoin:miter;stroke-opacity:1"
           d="m 44.395525,71.42922 c 0.302866,-0.04919 0.907882,-0.147462 1.533455,-0.427572 0.625574,-0.280111 1.272236,-0.742033 1.862709,-1.20148 0.590473,-0.459446 1.124807,-0.916439 1.53714,-1.360588 0.412334,-0.444148 0.70285,-0.875687 1.037463,-1.415601 0.334613,-0.539915 0.71333,-1.18825 0.960639,-1.824356 0.24731,-0.636106 0.363167,-1.260377 0.454576,-1.718405 0.09141,-0.458028 0.158379,-0.749707 0.359669,-0.909961 0.201289,-0.160255 0.53591,-0.188331 13.237959,-2.095805 12.70205,-1.907475 37.770675,-5.694165 50.378565,-7.610265 12.6079,-1.9161 12.75474,-1.961455 12.88696,-1.859442 0.13221,0.102012 0.24972,0.350128 0.46917,0.678365 0.21946,0.328238 0.54066,0.736805 0.82288,1.055166 0.28222,0.318361 0.52532,0.546663 0.75721,0.717988 0.23188,0.171326 0.45252,0.286054 0.71878,0.458204 0.26625,0.172151 0.57815,0.40151 1.03044,0.670625 0.45228,0.269115 1.04484,0.578155 1.59289,0.825348 0.54806,0.247193 1.05173,0.432749 1.37532,0.607234 0.32359,0.174485 0.46733,0.337405 0.54131,0.536991 0.074,0.199587 0.079,0.435905 0.96847,13.06384 0.88942,12.627936 2.66308,37.646544 3.52671,50.198984 0.86364,12.55244 0.81715,12.63946 0.65191,12.73668 -0.16524,0.0972 -0.4496,0.20463 -0.756,0.35471 -0.3064,0.15008 -0.6346,0.34278 -0.93427,0.59527 -0.29967,0.25249 -0.57048,0.56458 -0.82169,0.88358 -0.25121,0.319 -0.48273,0.64479 -0.6585,0.94557 -0.17576,0.30077 -0.29578,0.57647 -0.4028,0.83418 -0.10702,0.25771 -0.20135,0.49815 -0.32161,0.64921 -0.12027,0.15107 -0.26661,0.21354 -0.65615,0.20195 -0.38954,-0.0116 -1.02298,-0.0977 -16.25906,-3.09168 -15.23608,-2.99396 -45.073897,-8.89563 -60.033608,-11.91693 -14.959712,-3.02131 -15.040281,-3.16288 -15.069144,-3.51585 -0.02886,-0.35296 -0.0053,-0.91705 -0.159447,-1.51571 -0.154195,-0.59866 -0.486796,-1.23205 -0.869305,-1.82101 -0.382509,-0.58896 -0.815125,-1.13339 -1.33502,-1.66033 -0.519895,-0.52695 -1.127209,-1.0362 -1.714288,-1.47622 -0.58708,-0.44002 -1.153907,-0.81061 -1.421254,-1.08867 -0.267347,-0.27805 -0.234014,-0.4636 0.457503,-6.79675 0.691517,-6.33316 2.041099,-18.813349 2.75486,-25.245004 0.71376,-6.431655 0.791727,-6.814433 0.884861,-7.042132 0.09313,-0.227699 0.200981,-0.299416 0.254825,-0.335221 0.05384,-0.03581 0.05301,-0.03572 0.355872,-0.08491 z"
           id="path538"
           inkscape:path-effect="#path-effect540"
           inkscape:original-d="m 44.092659,71.478413 c 0.605897,-0.09737 1.210911,-0.195654 1.81502,-0.294803 0.647599,-0.461059 1.294267,-0.922973 1.94005,-1.38581 0.535257,-0.456115 1.069588,-0.913111 1.603042,-1.371014 0.291424,-0.430659 0.581943,-0.862196 0.871567,-1.294644 0.379625,-0.64746 0.75834,-1.295796 1.136173,-1.945042 0.116755,-0.623393 0.232613,-1.247664 0.347578,-1.872847 0.0679,-0.290817 0.134845,-0.582501 0.200923,-0.875105 0.335536,-0.02716 0.670153,-0.05528 1.003888,-0.08423 25.070436,-3.785939 50.13906,-7.572613 75.20718,-11.360268 0.14782,-0.04459 0.29474,-0.0897 0.44075,-0.136132 0.1185,0.249023 0.23603,0.497129 0.35253,0.744343 0.32198,0.409445 0.64325,0.817959 0.96353,1.2256 0.24402,0.229195 0.48713,0.457492 0.72932,0.684906 0.2214,0.115596 0.44205,0.230303 0.6618,0.34412 0.31286,0.230247 0.62475,0.459613 0.93566,0.68806 0.59359,0.309969 1.18614,0.619022 1.77778,0.927174 0.50444,0.186453 1.00811,0.372014 1.51099,0.55666 0.14449,0.163788 0.28829,0.326656 0.43112,0.48864 0.006,0.237212 0.0113,0.473525 0.0152,0.708945 1.77452,25.020424 3.54823,50.039024 5.32107,75.057214 -0.0472,0.0863 -0.0907,0.17492 -0.13944,0.26099 -0.28345,0.10835 -0.56783,0.21573 -0.85303,0.3222 -0.32738,0.19367 -0.65555,0.38642 -0.98473,0.57818 -0.26991,0.31288 -0.54068,0.62501 -0.8124,0.93622 -0.23068,0.32665 -0.46211,0.65251 -0.69458,0.97738 -0.11905,0.27639 -0.23902,0.55211 -0.35993,0.82678 -0.0923,0.24103 -0.18748,0.48113 -0.28256,0.72027 -0.14572,0.0645 -0.29238,0.12622 -0.4399,0.18779 -0.63242,-0.0834 -1.26563,-0.1712 -1.8998,-0.25831 -29.83802,-5.9009 -59.675833,-11.80261 -89.515079,-17.70533 -0.07964,-0.14085 -0.16037,-0.28233 -0.241896,-0.42505 0.02438,-0.56305 0.04796,-1.12714 0.07083,-1.69217 -0.331711,-0.63249 -0.664307,-1.26588 -0.997801,-1.90016 -0.431745,-0.54356 -0.864366,-1.08798 -1.297891,-1.63333 -0.606456,-0.50836 -1.213786,-1.01759 -1.822014,-1.52781 -0.565974,-0.36972 -1.132808,-0.7403 -1.700555,-1.11182 0.03417,-0.18465 0.06758,-0.37018 0.100009,-0.55669 1.350535,-12.479885 2.700121,-24.960073 4.048838,-37.441406 0.07878,-0.381889 0.156832,-0.764649 0.233902,-1.148335 0.1088,-0.07096 0.216696,-0.142603 0.323694,-0.215252 z" />
      </g>
    </g>
  </g>
</svg>
