<?xml version="1.0" encoding="UTF-8"?>
<svg version="1.1" viewBox="0 0 192 192" xml:space="preserve" xmlns="http://www.w3.org/2000/svg">
	 <rect x="39.412" y="9.6043" width="113.18" height="6.5054" ry="0" fill="#d3b69a" stroke-linejoin="round" stroke-width="4.3078"/><rect x="39.412" y="175.89" width="113.18" height="6.5054" ry="0" fill="#d3b69a" stroke-linejoin="round" stroke-width="4.3078"/><rect transform="rotate(90)" x="16.11" y="-39.412" width="159.78" height="6.4183" ry="0" fill="#d3b69a" stroke-linejoin="round" stroke-width="5.0841"/><rect transform="rotate(90)" x="16.11" y="-159.01" width="159.78" height="6.4183" ry="0" fill="#d3b69a" stroke-linejoin="round" stroke-width="5.0841"/><rect x="39.412" y="16.11" width="113.18" height="159.78" fill="#8e6f60" stroke-linejoin="round" stroke-width="5.1698"/><path d="m112.33 27.117h-33.887v5.6733h-5.7487v6.2867h5.9v5.06h6.2025v5.8267h15.885v5.8267h17.549v5.3667h5.4461v11.5h11.044v-22.54h-5.5974v-11.807h-5.2948v-5.98h-11.497z" fill="#d3b69a" stroke-linejoin="round" stroke-width="4.3078"/><path d="m67.473 38.77h-5.7042v11.493h-5.4556v22.444h5.5625v5.638h5.8835v6.0717h5.6695v10.951h5.3486v-5.4211h5.5625v11.601h5.9904v-5.8548h10.697v5.7464h5.6695v-11.384h5.5626v5.638h5.7765v-11.384h5.5625v-5.8548h-5.6695l0.13112-5.8548h-17.003v-11.441h-10.892v-5.52h-11.27v-5.4433h-5.9v-5.75h-5.5218z" fill="#d3b69a" stroke-linejoin="round" stroke-width="4.3078"/><path d="m78.831 61.295h-5.6963v11.439h11.232v-5.5838h-5.5358z" fill="#8e6f60" stroke-linejoin="round" stroke-width="4.3078"/><rect x="73.146" y="101.25" width="5.7298" height="5.8075" fill="#d3b69a" stroke-linejoin="round" stroke-width="4.3078"/><rect x="78.876" y="107.06" width="11.263" height="5.7076" fill="#d3b69a" stroke-linejoin="round" stroke-width="4.3078"/><rect x="84.507" y="112.77" width="22.243" height="5.8006" fill="#d3b69a" stroke-linejoin="round" stroke-width="4.3078"/><rect transform="scale(-1,1)" x="-118.11" y="101.25" width="5.7298" height="5.8075" fill="#d3b69a" stroke-linejoin="round" stroke-width="4.3078"/><rect transform="scale(-1,1)" x="-112.38" y="107.06" width="11.263" height="5.7076" fill="#d3b69a" stroke-linejoin="round" stroke-width="4.3078"/><path d="m56.206 101.22v22.986h5.723l0.02173 5.682h5.5408v5.8074h-5.5408l-0.0184 10.963h-11.327v11.462h16.925v5.7108h5.5024v-5.7684h17.132v-5.5584h10.6v5.5584h17.132v5.7684h5.5024v-5.7108h16.925v-11.462h-11.327l-0.0184-10.963h-5.5408v-5.8074h5.5408l0.0219-5.682h5.723v-22.986h-5.5625v5.9633h-5.7765v5.5296h-5.4556v5.5296h-5.8834v5.8548h-5.4556v5.7464h-22.25v-5.7464h-5.4556v-5.8548h-5.8835v-5.5296h-5.4556v-5.5296h-5.7765v-5.9633zm72.773 28.668v5.8074h5.6545v-5.8074zm-11.082 33.943h-5.9002v5.8836h5.9002zm-44.865 0v5.8836h5.9002v-5.8836zm-11.082-28.136v-5.8074h-5.6545v5.8074zm5.5408 3e-3h5.5893v5.3246h-5.5893zm50.357 0h5.5893v5.3246h-5.5893z" fill="#d3b69a" stroke-linejoin="round" stroke-width="4.3078"/><path d="m129.27 112.75-5.8868-0.0389v5.5295h-5.4556v5.8548h-5.8835v5.7513h-5.4556l-0.0109 5.6733h-10.741v5.4433h-11.497v5.75h-11.195v5.5966h16.944v-5.52h10.968v5.6733h17.095v-5.6733l-17.095-2e-5v-5.8266h11.27v-5.29h5.7487v-5.9033h5.2949v-5.52h5.9z" fill="#fdf5d9" stroke-linejoin="round" stroke-width="4.3078"/><path d="m84.341 140.97h-5.6731v-5.2666l-5.5867-3e-5v-5.8109h-5.5893v-5.682h-5.5626v-11.493h5.616l0.0035 5.559 5.4522-0.0295v5.8548h5.8835v5.7513l5.4565 5e-5z" fill="#fdf5d9" stroke-linejoin="round" stroke-width="4.3078"/><rect x="78.876" y="107.06" width="11.263" height="5.7076" fill="#d3b69a" stroke-linejoin="round" stroke-width="4.3078"/><rect x="84.507" y="112.77" width="22.243" height="5.8006" fill="#d3b69a" stroke-linejoin="round" stroke-width="4.3078"/></svg>
