<?xml version="1.0" encoding="UTF-8"?>
<svg version="1.1" viewBox="0 0 192 192" xmlns="http://www.w3.org/2000/svg">
 <circle class="a" cx="96" cy="96" r="88" style="fill:#9abeff"/>
 <path d="m79.98 99.041a14.107 14.107 0 0 0-14.107 14.107 14.107 14.107 0 0 0 14.107 14.107l14.107-0.22487a7.9636 7.9636 0 0 0 7.9636-7.9636 7.9636 7.9636 0 0 0-7.9636-7.9636 7.9636 7.9636 0 0 0-0.14843 0.0107 14.107 14.107 0 0 0-13.959-12.073z" style="fill:#fff;stroke-linecap:round;stroke-linejoin:round;stroke-width:.91013"/>
 <path d="m96.853 79.499a17.658 17.658 0 0 0-17.578 16.536 14.107 14.107 0 0 1 3.0379-0.37329 14.107 14.107 0 0 1 13.959 12.073 7.9636 7.9636 0 0 1 0.14843-0.0106 7.9636 7.9636 0 0 1 7.5886 5.5621 17.658 17.658 0 0 0 10.501-16.129 17.658 17.658 0 0 0-17.657-17.658z" style="fill:#f9de81;stroke-linecap:round;stroke-linejoin:round;stroke-width:.91013"/>
 <path d="m70.292 75.262 8.8087 8.8087" style="fill:#f9de81;stroke-linecap:round;stroke-linejoin:round;stroke-width:4.5506;stroke:#f9de81"/>
 <path d="m96.095 62.778v12.457" style="fill:#f9de81;stroke-linecap:round;stroke-linejoin:round;stroke-width:4.5506;stroke:#f9de81"/>
 <path d="m125.88 75.262-8.8087 8.8087" style="fill:#f9de81;stroke-linecap:round;stroke-linejoin:round;stroke-width:4.5506;stroke:#f9de81"/>
 <path d="m131.63 99.438h-12.457" style="fill:#f9de81;stroke-linecap:round;stroke-linejoin:round;stroke-width:4.5506;stroke:#f9de81"/>
 <path d="m121.28 123.61-8.8087-8.8087" style="fill:#f9de81;stroke-linecap:round;stroke-linejoin:round;stroke-width:4.5506;stroke:#f9de81"/>
</svg>
