<?xml version="1.0" encoding="UTF-8"?><svg id="a" xmlns="http://www.w3.org/2000/svg" width="192" height="192" xmlns:xlink="http://www.w3.org/1999/xlink" viewBox="0 0 192 192"><defs><style>.j{fill:url(#g);}.k{fill:url(#e);}</style><linearGradient id="e" x1="-315.19" y1="339.11" x2="-302.88" y2="263.99" gradientTransform="translate(967.12 910.34) scale(2.78 -2.78)" gradientUnits="userSpaceOnUse"><stop offset="0" stop-color="#73ada4"/><stop offset=".39" stop-color="#bd9aff"/><stop offset="1" stop-color="#fcecdc"/></linearGradient><radialGradient id="g" cx="-542.18" cy="414.13" fx="-542.18" fy="414.13" r=".92" gradientTransform="translate(107850.56 -15131.32) rotate(-58.14) scale(128.92 -201.6)" gradientUnits="userSpaceOnUse"><stop offset="0" stop-color="#f9de81"/><stop offset=".4" stop-color="#f8c18c"/><stop offset="1" stop-color="#8c72bd"/></radialGradient></defs><g id="b"><g id="c"><g id="d" transform="matrix(1.090909,0,0,1.0909093,-8.7272727,-8.7272957)"><path id="f" d="M60.93,30.23c12.28-12.28,18.42-18.42,25.49-20.72,6.23-2.02,12.93-2.02,19.16,0,7.08,2.3,13.22,8.44,25.49,20.72l30.69,30.69c12.28,12.28,18.42,18.42,20.72,25.49,2.02,6.23,2.02,12.93,0,19.16-2.3,7.08-8.44,13.22-20.72,25.49l-30.69,30.69c-12.28,12.28-18.42,18.42-25.49,20.72-6.23,2.02-12.93,2.02-19.16,0-7.08-2.3-13.22-8.44-25.49-20.72l-5.77-6.47c-3.49-3.91-5.24-5.87-6.48-8.1-1.1-1.97-1.91-4.1-2.4-6.31-.55-2.49-.55-5.11-.55-10.36V61.47c0-5.25,0-7.87,.55-10.36,.49-2.21,1.3-4.33,2.4-6.31,1.24-2.23,2.99-4.18,6.48-8.1l5.77-6.47Z" style="fill:url(#e);"/><path id="h" d="M58.73,32.43c6.14-6.14,9.21-9.21,12.75-10.36,3.11-1.01,6.47-1.01,9.58,0,3.54,1.15,6.61,4.22,12.75,10.36l46.04,46.04c6.14,6.14,9.21,9.21,10.36,12.75,1.01,3.11,1.01,6.47,0,9.58-1.15,3.54-4.22,6.61-10.36,12.75l-46.04,46.04c-6.14,6.14-9.21,9.21-12.75,10.36-3.11,1.01-6.47,1.01-9.58,0-3.54-1.15-6.61-4.22-12.75-10.36l-28.5-28.5c-12.28-12.28-18.42-18.42-20.72-25.49-2.02-6.23-2.02-12.93,0-19.16,2.3-7.08,8.44-13.22,20.72-25.49l28.5-28.5Z" style="fill:url(#g);"/></g></g></g><g id="i"/></svg>