<?xml version="1.0" encoding="UTF-8"?><svg id="a" xmlns="http://www.w3.org/2000/svg" width="192" height="192" xmlns:xlink="http://www.w3.org/1999/xlink" viewBox="0 0 192 192"><defs><linearGradient id="d" x1="157.67" y1="34.33" x2="33.22" y2="158.78" gradientUnits="userSpaceOnUse"><stop offset="0" stop-color="#96dfd3"/><stop offset="1" stop-color="#bd9aff"/></linearGradient></defs><g id="b"><g id="c"><path d="m96,184c48.6,0,88-39.4,88-88S144.6,8,96,8,8,47.4,8,96s39.4,88,88,88Z" style="fill:url(#d);"/><path d="m125.75,74.41c-1.23-.1-2.48-.1-3.7,0l.44,5.26c.93-.08,1.88-.08,2.82,0,4.34.37,8.15,2.37,10.91,5.34-.82-.01-1.64.05-2.46.21-3.01.6-5.61,2.33-7.32,4.88-1.71,2.55-2.32,5.61-1.72,8.63.6,3.01,2.33,5.61,4.88,7.32,1.94,1.3,4.16,1.95,6.39,1.95.05,0,.09,0,.14,0-.43.45-.88.89-1.37,1.3-3.43,2.9-7.79,4.29-12.27,3.91-.07,0-.15,0-.22,0-7.52,0-11.63-4.45-18.44-11.81-.67-.72-1.37-1.48-2.1-2.26h11.81v-5.28h-11.45c.65-.61,1.3-1.21,1.93-1.79,7.81-7.22,13.46-12.45,13.51-22.2.46-5.84-1.37-11.52-5.15-16.01-3.81-4.51-9.15-7.27-15.03-7.76-5.89-.5-11.61,1.33-16.12,5.14-4.51,3.81-7.27,9.15-7.76,15.03-.1,1.23-.1,2.47,0,3.7l5.26-.44c-.08-.94-.08-1.89,0-2.82.35-4.22,2.25-8.06,5.34-10.92-.02.82.05,1.65.21,2.47.6,3.01,2.33,5.61,4.88,7.32,1.96,1.31,4.18,1.94,6.37,1.94,3.71,0,7.36-1.79,9.57-5.1,1.32-1.98,1.97-4.26,1.94-6.53.45.43.89.88,1.3,1.37,2.9,3.43,4.29,7.79,3.91,12.27,0,.07,0,.15,0,.22,0,7.52-4.45,11.63-11.81,18.44-.72.67-1.48,1.38-2.26,2.11v-11.81h-5.28v11.45c-.61-.65-1.21-1.3-1.79-1.93-7.25-7.84-12.49-13.51-22.22-13.51h0c-5.89-.19-11.53,1.91-15.84,5.93-2.31,2.15-4.07,4.73-5.26,7.55-.05.1-.09.2-.12.31-.96,2.37-1.53,4.91-1.62,7.54-.2,5.9,1.91,11.53,5.93,15.84,4.03,4.32,9.5,6.8,15.4,7.01.25,0,.5.01.76.01s.5,0,.75-.01l-.18-5.27c-.38.01-.77.01-1.15,0-4.49-.15-8.66-2.05-11.72-5.33-.04-.04-.07-.09-.12-.14.53-.03,1.06-.08,1.6-.19,3.01-.6,5.61-2.33,7.32-4.88,1.71-2.55,2.32-5.61,1.72-8.63-.6-3.01-2.33-5.61-4.88-7.32-1.69-1.13-3.59-1.76-5.52-1.91.23-.24.45-.49.7-.72,3.29-3.07,7.58-4.67,12.15-4.52,7.52,0,11.63,4.45,18.44,11.81.67.72,1.38,1.48,2.1,2.26h-11.81v5.28h11.46c-.65.61-1.3,1.21-1.93,1.79-7.84,7.25-13.51,12.49-13.5,22.22-.32,9.34,5.24,17.52,13.33,21.03.21.12.43.21.66.27,2.29.9,4.75,1.46,7.34,1.55.26,0,.51.01.77.01,11.84,0,21.67-9.42,22.08-21.35.02-.51.02-1.01,0-1.52l-5.27.18c.01.38.01.77,0,1.15-.16,4.7-2.25,8.87-5.48,11.81-.21-3.47-1.96-6.81-5.07-8.89-5.27-3.52-12.42-2.1-15.94,3.16-1.13,1.68-1.76,3.58-1.91,5.5-3.36-3.21-5.41-7.79-5.24-12.84,0-7.52,4.45-11.63,11.81-18.44.72-.67,1.48-1.38,2.26-2.1v11.81h5.28v-11.45c.61.65,1.2,1.3,1.79,1.93,7.23,7.81,12.45,13.47,22.21,13.51.6.05,1.19.07,1.78.07,5.21,0,10.2-1.82,14.23-5.22,4.51-3.81,7.27-9.15,7.76-15.03,1.02-12.15-8.03-22.86-20.17-23.88Z" style="fill:#56595b;"/></g></g></svg>