<?xml version="1.0" encoding="UTF-8"?>
<svg version="1.1" viewBox="0 0 192 192" xml:space="preserve" xmlns="http://www.w3.org/2000/svg"><circle class="a" cx="96" cy="96" r="88" fill="#56595b"/><g transform="matrix(.17881 0 0 .17881 73.419 42.052)"><path d="m33.09 236.53v272.57c0 51.86 42.21 94.07 94.07 94.07s94.07-42.21 94.07-94.07v-272.57z" fill="#e6e9ee"/><path d="m221.23 260.57h-20.71v12.33h20.71z" fill="#ccc"/><path d="m221.23 291.08h-20.71v12.33h20.71z" fill="#ccc"/><path d="m221.23 321.43h-20.71v12.34h20.71z" fill="#ccc"/><path d="m221.23 351.79h-20.71v12.33h20.71z" fill="#ccc"/><path d="m221.23 382.3h-20.71v12.34h20.71z" fill="#ccc"/><path d="m221.23 412.66h-20.71v12.33h20.71z" fill="#ccc"/><path d="m221.23 443.17h-20.71v12.34h20.71z" fill="#ccc"/><path d="m221.23 473.53h-20.71v12.33h20.71z" fill="#ccc"/><path d="m221.23 503.89h-20.71v12.33h20.71z" fill="#ccc"/><path d="m78.78 55.35c-21.19-12.97-47.91-14.07-75.26-3.16l-2.69 1.1 0.32 2.85c2.53 29.25 15.65 52.65 36.84 65.61 11.54 7.12 24.66 10.59 38.73 10.59 11.7 0 24.03-2.53 36.53-7.59l2.68-1.1-0.31-2.85c-2.53-29.09-15.66-52.33-36.84-65.45z" fill="#98dc9a"/><path d="m248.74 9.18c-32.25-13.12-63.87-11.7-89.01 3.64-25.14 15.33-40.63 43-43.48 77.63l-0.32 3.32 3.17 1.26c14.7 6.01 29.24 8.86 43.16 8.86 16.6 0 32.09-4.27 45.69-12.65 25.14-15.34 40.63-43.01 43.48-77.63l0.31-3.32z" fill="#98dc9a"/><path d="m85.42 153.69c-17.39-10.75-39.37-11.54-61.66-2.53l-2.69 1.1 0.32 2.85c2.05 24.03 12.8 43.16 30.2 53.91 9.48 5.85 20.23 8.7 31.77 8.7 9.65 0 19.77-2.06 29.89-6.17l2.68-1.1-0.31-2.85c-2.06-24.19-12.81-43.32-30.2-53.91z" fill="#98dc9a"/><path d="m166.53 129.66c-16.92 10.43-27.36 28.93-29.25 52.17l-0.32 2.85 2.69 1.1c9.8 3.96 19.6 6.01 28.93 6.01 11.07 0 21.66-2.84 30.83-8.54 16.92-10.43 27.35-28.93 29.25-52.17l0.32-2.85-2.69-1.1c-21.66-8.7-42.85-7.75-59.76 2.53z" fill="#98dc9a"/><path d="m138.07 90.6h-22.14v240.32h22.14z" fill="#98dc9a"/><path d="m67.4 330.92v178.03c0 32.88 26.71 59.6 59.6 59.6s59.6-26.72 59.6-59.6v-178.03z" fill="#9abeff"/></g></svg>
