<?xml version="1.0" encoding="UTF-8"?><svg id="a" xmlns="http://www.w3.org/2000/svg" width="192" height="192" viewBox="0 0 192 192"><g id="b"><g id="c"><path d="m165.15,47.32c-5.26-14.42-14.88-24.88-29.14-30.93-13.85-5.88-23.09-7.89-40.01-8.4-16.92.51-26.16,2.52-40.01,8.4-14.26,6.05-23.88,16.51-29.14,30.93-2.86,7.84-2.47,16.01-1.13,24.13,2.86,17.41,9.73,33.37,17.96,48.8,9.71,18.21,21.07,35.33,35.07,50.55,3.54,3.85,7.5,7.38,11.62,10.59,2.16,1.68,3.9,2.53,5.63,2.61,1.73-.07,3.47-.92,5.63-2.61,4.12-3.21,8.08-6.75,11.62-10.59,14.01-15.23,25.36-32.35,35.07-50.55,8.23-15.42,15.1-31.38,17.96-48.8,1.33-8.12,1.73-16.29-1.13-24.13Z" style="fill:#96dfd3;"/><path d="m85.33,76.38c4.35-.84,8.5-1.63,12.85-2.47,0-.39,0-.89,0-1.39,0-4.84-.01-9.68,0-14.53.01-3.66,2.42-5.92,6.28-5.91,3.81,0,6.28,2.31,6.29,5.94.02,9.4,0,18.81,0,28.21,0,.5,0,1,0,1.79.53-.55.86-.91,1.2-1.26,3.81-3.95,9.83-5.35,14.76-3.39.81.32,1.6.77,2.29,1.3,1.04.8,1.14,1.86.4,2.95-.21.31-.47.57-.74.84-7.14,7.08-14.24,14.2-21.42,21.24-7.75,7.6-21.71,7.7-29.01.21-4.07-4.18-5.8-9.39-5.85-15.11-.1-10.61-.04-21.23-.02-31.84,0-3.87,2.48-6.15,6.55-6.12,3.98.03,6.41,2.34,6.42,6.12.01,4.46,0,8.92,0,13.42Z" style="fill:#fff;"/></g></g></svg>