<?xml version="1.0" encoding="UTF-8"?>
<svg version="1.1" viewBox="0 0 192 192" xmlns="http://www.w3.org/2000/svg" xmlns:xlink="http://www.w3.org/1999/xlink">
 <defs>
  <linearGradient id="linearGradient824" x1="-177" x2="-72" y1="51.25" y2="164.75" gradientTransform="matrix(.7916 0 0 .7916 197.44 9.2531)" gradientUnits="userSpaceOnUse">
   <stop style="stop-color:#9abeff" offset="0"/>
   <stop style="stop-color:#bd9aff" offset="1"/>
  </linearGradient>
  <linearGradient id="linearGradient828" x1="-88.919" x2="65.584" y1="161.4" y2="167.41" gradientTransform="matrix(.7916 0 0 .7916 146.15 -133.07)" gradientUnits="userSpaceOnUse">
   <stop style="stop-color:#9abeff" offset="0"/>
   <stop style="stop-color:#bd9aff" offset="1"/>
  </linearGradient>
 </defs>
 <rect class="a" x="20" y="20" width="152" height="152" rx="10" style="fill:#fff"/>
 <path d="m57.324 49.823v89.847h83.118l-30.872-38.986s17.618-3.968 17.618-28.079c0-22.781-23.654-22.781-23.654-22.781z" style="fill:url(#linearGradient824);stroke-width:7.916"/>
 <path d="m56.627 112.99 32.02 27.069h-31.827z" style="fill:#fff;stroke-width:7.916"/>
 <rect transform="rotate(40.623)" x="99.918" y="12.524" width="73.101" height="36.551" rx="19.381" style="fill:#fff;stroke-width:8.4267"/>
 <circle transform="rotate(45)" cx="122.06" cy="22.126" r="6.4317" style="fill:url(#linearGradient828);stroke-width:7.916"/>
 <circle transform="rotate(45)" cx="155.41" cy="19.652" r="6.4317" style="fill:url(#linearGradient828);stroke-width:7.916"/>
 <path d="m81.579 86.282 3.8483-3.5684-3.3585-2.7987 8.2562-5.5975-3.9182 5.3176 3.1486 2.4489z" style="fill:#fff;stroke-width:7.916"/>
 <path d="m57.999 126.93 3.6383-3.6384 2.3789 2.3789 2.309-2.309-8.3262-7.2067z" style="fill:url(#linearGradient824);stroke-width:7.916"/>
 <path d="m71.446 138.59 3.403-3.8594-2.5234-2.225 2.1596-2.4492 7.7147 7.8578z" style="fill:url(#linearGradient824);stroke-width:7.916"/>
 <circle transform="rotate(45)" cx="116.42" cy="-14.288" r="2.9685" style="fill:#fff;stroke-width:7.916"/>
</svg>
