<?xml version="1.0" encoding="UTF-8" standalone="no"?>
<!-- Created with Inkscape (http://www.inkscape.org/) -->

<svg
   width="192"
   height="192"
   viewBox="0 0 192 192"
   version="1.1"
   id="svg1"
   xml:space="preserve"
   xmlns="http://www.w3.org/2000/svg"
   xmlns:svg="http://www.w3.org/2000/svg"><defs
     id="defs1"><linearGradient
       id="swatch4"><stop
         style="stop-color:#000000;stop-opacity:1;"
         offset="0"
         id="stop4" /></linearGradient><linearGradient
       id="swatch3"><stop
         style="stop-color:#000000;stop-opacity:1;"
         offset="0"
         id="stop3" /></linearGradient></defs><g
     id="layer1"><circle
       style="fill:#ffffff;stroke-width:0.976085"
       id="path5"
       cx="96"
       cy="96"
       r="88" /><path
       id="rect3"
       transform="rotate(-45)"
       d="m -44.51498,103.87563 h 16.779964 v 16.74874 H -44.51498 Z m 14.81187,-14.124997 h 82.531227 c 8.205777,0 14.811871,6.606095 14.811871,14.811867 v 1.25 c 0,8.20578 -6.606094,14.81187 -14.811871,14.81187 H -29.70311 c -8.205776,0 -14.81187,-6.60609 -14.81187,-14.81187 v -1.25 c 0,-8.205772 6.606094,-14.811867 14.81187,-14.811867 z"
       style="display:inline;fill:#54688c;fill-opacity:1" /><path
       id="path1"
       d="M 60.602778,123.97443 102.58616,81.616043 c 5.7765,-5.828101 15.14479,-5.80236 20.94715,-3e-6 l 0.88388,0.883884 c 5.80236,5.802363 5.80236,15.144786 0,20.947146 l -41.983383,42.35839 z"
       style="display:inline;fill:#728dbe;fill-opacity:1" /><path
       id="path4"
       d="m 111.01188,130.47995 11.46666,11.57779 c 5.77431,5.83027 5.80236,15.14479 1e-5,20.94715 l -0.88389,0.88388 c -5.80236,5.80236 -15.14478,5.80236 -20.94714,0 L 89.180853,152.31098 Z"
       style="display:inline;fill:#9abeff;fill-opacity:1" /></g></svg>
