<?xml version="1.0" encoding="UTF-8" standalone="no"?>
<!DOCTYPE svg PUBLIC "-//W3C//DTD SVG 1.1//EN" "http://www.w3.org/Graphics/SVG/1.1/DTD/svg11.dtd">
<svg width="100%" height="100%" viewBox="0 0 192 192" version="1.1" xmlns="http://www.w3.org/2000/svg" xmlns:xlink="http://www.w3.org/1999/xlink" xml:space="preserve" xmlns:serif="http://www.serif.com/" style="fill-rule:evenodd;clip-rule:evenodd;stroke-linejoin:round;stroke-miterlimit:2;">
    <g id="logo">
        <path d="M184,43.225L184,132.76C184,138.412 179.412,143 173.76,143L123,143L107.955,159L96,159L96,156.317C96,154.111 95.124,151.996 93.564,150.436C92.004,148.876 89.889,148 87.683,148C82.967,148 78,148 78,148L68,159L23.233,158.998C23.233,158.998 18.08,159.999 18,159.997C12.459,159.87 8,155.331 8,149.76L8,42.24C8,36.668 12.46,32.13 18.001,32.003C18.081,32.001 23.254,32.985 23.254,32.985L173.76,32.985C179.412,32.985 184,37.573 184,43.225Z" style="fill:rgb(86,89,91);fill-opacity:0.96;"/>
        <path d="M173.6,32.985C176.358,32.985 179.004,34.081 180.954,36.031C182.904,37.981 184,40.627 184,43.385C184,54.635 184,72 184,72L28.14,72L23.205,71L8,71C8,71 7.807,53.682 7.807,42.433C7.807,36.751 12.349,32.13 18,32.003C18.08,32.001 23.254,32.985 23.254,32.985L173.6,32.985Z" style="fill:rgb(186,101,97);"/>
        <path d="M18,32L23.254,32.985C25.353,41.856 29.456,75.528 29,96C29.578,115.816 25.334,149.39 23.233,158.998L18,160C20,152 24.964,117.317 24,96C24.332,75.458 21,39 18,32Z" style="fill:rgb(131,134,140);"/>
        <path d="M28.14,72L23.205,71C22.079,53.866 19.968,36.599 18.001,32.003C18.08,32.001 23.254,32.985 23.254,32.985C24.638,38.836 26.895,55.475 28.14,72Z" style="fill:rgb(255,131,125);"/>
        <path d="M62.922,87.779L37.327,87.779L37.327,95.257L39.844,95.257C40.407,95.257 40.747,94.985 40.864,94.442C40.91,94.188 40.982,93.576 41.083,92.61L47.54,92.61L47.54,115.076C46.993,115.172 45.384,115.458 45.32,115.47C44.589,115.626 44.224,116.081 44.224,116.836L44.224,119.404L56.725,119.404L56.725,116.836C56.725,116.081 56.361,115.626 55.633,115.47C55.569,115.458 53.965,115.169 53.421,115.073L53.421,92.609L59.856,92.609C59.957,93.577 60.029,94.188 60.074,94.442C60.191,94.986 60.531,95.257 61.094,95.257L63.612,95.257L63.612,87.779L62.922,87.779Z" style="fill:rgb(236,236,236);fill-rule:nonzero;"/>
        <path d="M96.494,115.47C96.252,115.427 95.146,115.297 93.176,115.079L85.446,102.891L92.717,92.106C94.7,91.887 95.811,91.756 96.052,91.713C96.782,91.557 97.147,91.102 97.147,90.347L97.147,87.779L83.794,87.779L83.794,90.347C83.794,91.102 84.159,91.557 84.889,91.713C85.629,91.869 86.178,91.989 86.538,92.073L82.166,98.975C82.049,99.164 81.947,99.35 81.86,99.533C81.771,99.718 81.691,99.904 81.619,100.091L76.624,92.027C76.876,91.968 77.359,91.864 78.072,91.713C78.802,91.557 79.167,91.102 79.167,90.347L79.167,87.779L65.566,87.779L65.566,90.347C65.566,91.102 65.931,91.557 66.661,91.713C66.897,91.755 68.02,91.887 70.031,92.11L77.267,103.132L69.545,115.08C67.58,115.298 66.478,115.428 66.24,115.47C65.51,115.626 65.145,116.081 65.146,116.836L65.146,119.404L78.713,119.404L78.713,116.836C78.713,116.081 78.348,115.626 77.618,115.47C76.856,115.31 76.253,115.178 75.811,115.074L80.744,107.202C80.814,107.075 80.887,106.933 80.963,106.775C81.036,106.622 81.102,106.458 81.16,106.283L86.547,115.194C86.366,115.236 85.938,115.327 85.263,115.47C84.533,115.626 84.168,116.081 84.168,116.836L84.168,119.404L97.589,119.404L97.589,116.836C97.589,116.081 97.224,115.626 96.494,115.47Z" style="fill:rgb(236,236,236);fill-rule:nonzero;"/>
        <path d="M124.712,87.779L99.116,87.779L99.116,95.257L101.634,95.257C102.197,95.257 102.537,94.985 102.654,94.442C102.699,94.188 102.772,93.576 102.872,92.61L109.329,92.61L109.329,115.076C108.783,115.172 107.173,115.458 107.109,115.47C106.379,115.626 106.014,116.081 106.014,116.836L106.014,119.404L118.515,119.404L118.515,116.836C118.515,116.081 118.151,115.626 117.423,115.47C117.359,115.458 115.755,115.169 115.21,115.073L115.21,92.609L121.646,92.609C121.747,93.577 121.819,94.188 121.864,94.442C121.981,94.986 122.32,95.257 122.884,95.257L125.402,95.257L125.402,87.779L124.712,87.779Z" style="fill:rgb(236,236,236);fill-rule:nonzero;"/>
        <path d="M47.011,53.635C46.789,53.146 46.496,52.731 46.13,52.393C45.764,52.054 45.347,51.774 44.881,51.552C44.417,51.331 43.94,51.137 43.452,50.969C42.966,50.802 42.489,50.644 42.022,50.496C41.556,50.348 41.14,50.181 40.774,49.994C40.408,49.807 40.114,49.582 39.893,49.317C39.671,49.053 39.56,48.722 39.56,48.325C39.56,48.014 39.615,47.728 39.724,47.467C39.833,47.207 39.998,46.983 40.22,46.796C40.441,46.61 40.713,46.464 41.036,46.359C41.359,46.254 41.738,46.202 42.174,46.201C43.394,46.201 44.298,46.332 44.887,46.595C44.988,47.643 45.057,48.273 45.094,48.484C45.156,48.775 45.337,48.92 45.638,48.92L46.981,48.92L46.981,44.604C45.411,43.966 43.797,43.647 42.139,43.647C41.26,43.647 40.479,43.783 39.794,44.055C39.109,44.328 38.532,44.689 38.062,45.14C37.591,45.591 37.234,46.108 36.989,46.691C36.744,47.275 36.621,47.874 36.621,48.489C36.621,49.259 36.732,49.906 36.954,50.432C37.175,50.957 37.469,51.394 37.834,51.745C38.2,52.095 38.616,52.379 39.082,52.596C39.549,52.814 40.023,53.001 40.505,53.157C40.983,53.311 41.457,53.455 41.929,53.589C42.396,53.721 42.812,53.882 43.178,54.073C43.543,54.264 43.837,54.499 44.059,54.779C44.282,55.059 44.393,55.421 44.393,55.864C44.393,56.658 44.148,57.267 43.658,57.691C43.167,58.115 42.475,58.327 41.58,58.327C40.128,58.327 39.065,58.224 38.393,58.017C38.29,56.945 38.22,56.303 38.183,56.091C38.12,55.801 37.939,55.656 37.639,55.656L36.295,55.656L36.295,59.994C38.025,60.587 39.64,60.884 41.14,60.884C41.273,60.89 41.389,60.892 41.487,60.892C42.421,60.892 43.249,60.75 43.973,60.467C44.696,60.183 45.309,59.794 45.81,59.3C46.311,58.807 46.692,58.227 46.953,57.562C47.213,56.897 47.344,56.183 47.344,55.42C47.344,54.72 47.233,54.125 47.011,53.635L47.011,53.635Z" style="fill:rgb(236,236,236);fill-rule:nonzero;"/>
        <path d="M59.178,58.587C59.155,58.583 58.578,58.479 58.312,58.432L58.312,53.122C58.312,52.445 58.213,51.822 58.015,51.254C57.817,50.687 57.528,50.199 57.146,49.79C56.765,49.382 56.301,49.063 55.752,48.834C55.204,48.605 54.579,48.49 53.879,48.49C51.934,48.49 50.273,49.119 48.897,50.379L49.422,51.301C49.507,51.449 49.62,51.573 49.76,51.674C49.9,51.776 50.067,51.826 50.262,51.826C50.495,51.826 50.708,51.772 50.903,51.663C51.099,51.553 51.311,51.43 51.539,51.295C51.768,51.159 52.039,51.036 52.35,50.927C52.662,50.818 53.051,50.764 53.517,50.764C54.163,50.764 54.656,50.958 54.994,51.346C55.332,51.734 55.502,52.332 55.502,53.14L55.502,53.846C54.14,53.846 53,53.963 52.082,54.197C51.163,54.431 50.428,54.725 49.877,55.08C49.324,55.435 48.93,55.833 48.693,56.275C48.455,56.717 48.337,57.165 48.337,57.619C48.337,58.159 48.422,58.631 48.594,59.036C48.764,59.441 49.004,59.779 49.311,60.052C49.618,60.324 49.985,60.528 50.413,60.665C50.841,60.801 51.308,60.869 51.813,60.869C52.241,60.869 52.63,60.834 52.98,60.764C53.33,60.694 53.661,60.59 53.973,60.45C54.285,60.31 54.586,60.137 54.877,59.932C55.169,59.727 55.467,59.488 55.77,59.217L56.027,60.066C56.104,60.314 56.221,60.479 56.376,60.56C56.532,60.642 56.746,60.682 57.018,60.682L59.762,60.682L59.762,59.315C59.763,58.913 59.568,58.67 59.178,58.587ZM55.502,57.615C55.292,57.83 55.083,58.016 54.877,58.174C54.671,58.331 54.457,58.463 54.235,58.57C54.014,58.677 53.778,58.757 53.529,58.81C53.28,58.864 53.007,58.891 52.712,58.891C52.229,58.891 51.838,58.781 51.539,58.562C51.239,58.343 51.089,57.978 51.089,57.467C51.089,57.208 51.161,56.969 51.305,56.749C51.449,56.529 51.692,56.337 52.035,56.172C52.377,56.007 52.831,55.871 53.395,55.765C53.958,55.659 54.66,55.606 55.502,55.606L55.502,57.615Z" style="fill:rgb(236,236,236);fill-rule:nonzero;"/>
        <path d="M72.973,48.735L72.973,48.735L70.698,48.735C70.696,48.735 70.695,48.735 70.693,48.735L67.916,48.735L67.916,50.105C67.916,50.508 68.111,50.751 68.5,50.834C68.65,50.86 68.684,50.868 69.273,50.973L67.536,55.664C67.396,56.037 67.281,56.403 67.191,56.761C67.102,57.119 67.022,57.477 66.952,57.835C66.882,57.477 66.802,57.119 66.713,56.761C66.623,56.403 66.512,56.037 66.38,55.664L64.677,50.95C65.144,50.867 65.184,50.858 65.322,50.834C65.712,50.751 65.907,50.508 65.906,50.105L65.906,48.735L63.246,48.735C63.244,48.735 63.243,48.735 63.241,48.735L60.849,48.735L60.849,48.735L60.075,48.735L60.075,50.105C60.075,50.508 60.27,50.751 60.659,50.834C60.839,50.865 60.77,50.856 61.764,51.031L65.61,60.706L68.224,60.706L72.061,51.031C73.053,50.856 72.984,50.865 73.163,50.834C73.553,50.751 73.747,50.508 73.747,50.105L73.747,48.735L72.973,48.735Z" style="fill:rgb(236,236,236);fill-rule:nonzero;"/>
        <path d="M79.831,48.548C78.937,48.548 78.134,48.704 77.422,49.015C76.71,49.325 76.107,49.747 75.613,50.28C75.119,50.812 74.74,51.439 74.475,52.159C74.211,52.879 74.079,53.647 74.079,54.463C74.079,55.513 74.23,56.437 74.534,57.235C74.837,58.033 75.253,58.702 75.782,59.242C76.311,59.783 76.934,60.191 77.649,60.467C78.365,60.743 79.139,60.881 79.971,60.881C80.391,60.881 80.825,60.85 81.272,60.787C81.72,60.725 82.159,60.618 82.591,60.467C83.023,60.315 83.437,60.113 83.833,59.86C84.23,59.608 84.587,59.295 84.906,58.922L84.066,57.871C84.004,57.786 83.93,57.72 83.845,57.673C83.759,57.626 83.658,57.603 83.542,57.603C83.363,57.603 83.178,57.657 82.988,57.766C82.797,57.875 82.575,57.996 82.323,58.128C82.07,58.26 81.774,58.381 81.436,58.49C81.097,58.599 80.695,58.653 80.228,58.653C79.279,58.653 78.517,58.365 77.941,57.79C77.365,57.214 77.035,56.311 76.949,55.081L84.346,55.081C84.478,55.081 84.587,55.064 84.673,55.029C84.758,54.994 84.826,54.936 84.877,54.854C84.927,54.772 84.962,54.66 84.982,54.516C85.001,54.372 85.011,54.191 85.011,53.974C85.011,53.111 84.883,52.342 84.626,51.669C84.37,50.995 84.012,50.427 83.553,49.965C83.094,49.502 82.548,49.151 81.914,48.91C81.28,48.669 80.586,48.548 79.831,48.548ZM79.89,50.612C80.318,50.612 80.691,50.684 81.01,50.828C81.329,50.972 81.593,51.169 81.804,51.418C82.014,51.667 82.169,51.957 82.27,52.287C82.371,52.618 82.422,52.97 82.422,53.344L77.008,53.344C77.14,52.472 77.443,51.799 77.918,51.324C78.392,50.849 79.05,50.612 79.89,50.612Z" style="fill:rgb(236,236,236);fill-rule:nonzero;"/>
        <path d="M103.44,58.916C103.321,58.867 102.894,58.688 102.16,58.378L96.447,43.834L93.238,43.834L87.524,58.378C86.795,58.686 86.368,58.865 86.245,58.916C85.936,59.044 85.782,59.244 85.782,59.514L85.782,60.706L91.483,60.706L91.483,59.514C91.483,59.244 91.328,59.044 91.019,58.916C90.965,58.893 90.81,58.828 90.553,58.72L91.483,56.178L98.203,56.178L99.131,58.721C98.877,58.828 98.722,58.893 98.665,58.916C98.356,59.044 98.202,59.244 98.202,59.514L98.202,60.706L103.903,60.706L103.903,59.514C103.903,59.244 103.748,59.044 103.44,58.916ZM94.206,48.745C94.308,48.487 94.411,48.188 94.515,47.847C94.62,47.508 94.726,47.139 94.836,46.739C94.945,47.136 95.056,47.503 95.169,47.841C95.28,48.175 95.383,48.469 95.478,48.722L97.396,53.962L92.289,53.962L94.206,48.745Z" style="fill:rgb(236,236,236);fill-rule:nonzero;"/>
        <path d="M113.162,55.676C112.995,55.334 112.773,55.04 112.497,54.795C112.221,54.55 111.908,54.348 111.558,54.189C111.208,54.029 110.85,53.887 110.484,53.763C110.118,53.638 109.761,53.523 109.411,53.418C109.061,53.313 108.748,53.195 108.472,53.062C108.195,52.93 107.974,52.777 107.807,52.602C107.639,52.426 107.555,52.211 107.555,51.954C107.555,51.565 107.719,51.25 108.046,51.009C108.372,50.768 108.82,50.647 109.387,50.647C109.926,50.647 110.479,50.704 110.779,50.803C110.869,51.703 110.911,52.011 110.93,52.12C110.992,52.415 111.174,52.56 111.474,52.56L112.817,52.56L112.817,49.169L112.818,49.168C111.143,48.641 110.501,48.548 109.342,48.548C108.602,48.548 107.951,48.647 107.387,48.846C106.823,49.044 106.352,49.308 105.975,49.639C105.598,49.969 105.312,50.356 105.118,50.799C104.923,51.242 104.826,51.709 104.826,52.2C104.826,52.729 104.91,53.18 105.077,53.553C105.244,53.927 105.466,54.242 105.742,54.499C106.018,54.755 106.333,54.968 106.687,55.135C107.04,55.302 107.402,55.448 107.772,55.572C108.141,55.697 108.503,55.812 108.857,55.917C109.211,56.022 109.527,56.14 109.803,56.273C110.079,56.405 110.301,56.561 110.468,56.739C110.635,56.919 110.719,57.148 110.719,57.428C110.719,57.615 110.682,57.796 110.608,57.971C110.534,58.146 110.418,58.3 110.258,58.432C110.098,58.564 109.896,58.671 109.651,58.753C109.406,58.834 109.112,58.875 108.77,58.875C108.262,58.873 107.515,58.868 106.879,58.67C106.785,57.725 106.742,57.404 106.722,57.293C106.66,57.002 106.479,56.857 106.179,56.857L104.838,56.857L104.838,60.25C105.693,60.576 107.146,60.892 108.63,60.892C109.4,60.892 110.083,60.793 110.678,60.595C111.273,60.397 111.773,60.121 112.177,59.767C112.581,59.414 112.889,58.994 113.098,58.508C113.308,58.021 113.413,57.49 113.413,56.914C113.413,56.432 113.33,56.02 113.163,55.677L113.162,55.676Z" style="fill:rgb(236,236,236);fill-rule:nonzero;"/>
    </g>
</svg>
