<?xml version="1.0" encoding="UTF-8" standalone="no"?>
<svg
   width="192"
   height="192"
   version="1.1"
   id="svg12"
   sodipodi:docname="sbs_news.svg"
   inkscape:version="1.2.2 (b0a8486541, 2022-12-01)"
   xmlns:inkscape="http://www.inkscape.org/namespaces/inkscape"
   xmlns:sodipodi="http://sodipodi.sourceforge.net/DTD/sodipodi-0.dtd"
   xmlns="http://www.w3.org/2000/svg"
   xmlns:svg="http://www.w3.org/2000/svg">
  <defs
     id="defs16" />
  <sodipodi:namedview
     id="namedview14"
     pagecolor="#ffffff"
     bordercolor="#000000"
     borderopacity="0.25"
     inkscape:showpageshadow="2"
     inkscape:pageopacity="0.0"
     inkscape:pagecheckerboard="0"
     inkscape:deskcolor="#d1d1d1"
     showgrid="false"
     inkscape:zoom="1.3435029"
     inkscape:cx="283.95919"
     inkscape:cy="96.761979"
     inkscape:window-width="3440"
     inkscape:window-height="1371"
     inkscape:window-x="0"
     inkscape:window-y="0"
     inkscape:window-maximized="1"
     inkscape:current-layer="svg12" />
  <circle
     cx="96"
     cy="96"
     r="88"
     opacity=".63"
     style="fill:#ff837d;opacity:1"
     id="circle2" />
  <g
     id="g1425"
     transform="translate(1.0863498,3.2462103)">
    <g
       id="g4037"
       transform="translate(-1.0863499,-3.2462129)">
      <g
         id="g17602">
        <path
           style="fill:#ffffff;fill-opacity:1;stroke-width:0.493699"
           d="m 87.367802,123.12305 c 0.434792,-10.00338 2.220272,-20.47255 5.204175,-30.514596 0.495388,-1.667187 0.941855,-3.213135 0.99216,-3.43544 0.05034,-0.222305 -0.468379,0.562453 -1.152619,1.743873 -3.57412,6.171274 -8.532418,12.913203 -12.316139,16.746783 l -1.097014,1.11147 0.114611,-2.82919 c 0.271572,-6.70342 1.823452,-15.327244 4.04456,-22.475777 0.472597,-1.521062 0.833166,-2.792955 0.801275,-2.82661 -0.03187,-0.03346 -0.30452,0.416784 -0.605853,1.000829 -0.879937,1.705606 -3.771967,6.158856 -5.316114,8.185958 -1.668658,2.190511 -4.705627,5.708264 -4.928084,5.708264 -0.291505,0 0.205677,-5.940047 0.786492,-9.396877 0.405494,-2.413273 1.529924,-7.198408 2.106771,-8.965546 0.198175,-0.607107 0.333881,-1.131699 0.301573,-1.165809 -0.03232,-0.03396 -0.657632,0.912992 -1.389602,2.104549 -1.554278,2.530152 -3.819146,5.541713 -5.352746,7.117464 l -1.081726,1.111474 0.117808,-1.616653 C 69.480544,72.60662 74.482016,60.302341 81.822412,52.191752 l 1.463141,-1.616653 -0.114576,2.200039 c -0.134303,2.579216 -0.678895,6.120486 -1.352294,8.793368 -0.263226,1.044825 -0.444257,1.935819 -0.402289,1.980067 0.04191,0.0446 0.397894,-0.537819 0.79095,-1.293434 1.164453,-2.238511 3.849705,-6.411167 5.610788,-8.718557 1.92139,-2.517481 4.660906,-5.689613 4.913683,-5.689613 0.247902,0 -0.0045,3.981725 -0.462981,7.306014 -0.506832,3.674217 -1.571112,8.534012 -2.405121,10.98251 -0.283399,0.831997 0.264496,-0.05479 1.728836,-2.798226 3.479778,-6.519277 8.714271,-13.866193 13.052181,-18.319493 l 1.47636,-1.515638 -0.12893,2.627113 c -0.30505,6.216181 -1.68322,14.502191 -3.37463,20.289624 -0.20796,0.71157 -0.3486,1.32486 -0.31252,1.362925 0.0361,0.03801 0.52747,-0.816994 1.09201,-1.900085 4.71987,-9.054803 11.32037,-18.54038 17.67852,-25.405785 l 2.43763,-2.632081 0.007,1.44919 c 0.0189,3.932003 -0.8336,11.874672 -1.92655,17.950809 -3.43184,19.079112 -11.97328,39.605539 -22.872644,54.966684 -3.076372,4.33571 -7.001926,9.14183 -9.903597,12.12506 l -1.572478,1.61659 0.122965,-2.82913 z"
           id="path4171-2"
           inkscape:connector-curvature="0"
           sodipodi:nodetypes="csscscsccccsssccccscccccccscscscsscccccsscccc" />
        <g
           aria-label="NEWS"
           id="text984"
           style="font-weight:700;font-size:24.9893px;line-height:1.25;font-family:Now;-inkscape-font-specification:'Now Bold';letter-spacing:0;word-spacing:0;fill:#ffffff;stroke-width:0.624733">
          <path
             d="m 72.962993,135.16429 v 12.40094 l -9.214804,-12.40094 h -4.248181 v 18.74198 h 4.123235 v -12.43218 l 9.183567,12.43218 h 4.248181 v -18.74198 z"
             id="path17698" />
          <path
             d="m 92.204746,138.78774 v -3.62345 H 80.928324 v 18.74198 h 11.276422 v -3.62345 H 85.051559 V 146.347 h 6.122378 v -3.62345 h -6.122378 v -3.93581 z"
             id="path17700" />
          <path
             d="m 115.25739,135.16429 -3.34232,12.99444 -3.59221,-12.99444 h -0.56226 -3.43603 l -3.56098,13.05691 -3.373554,-13.05691 h -4.34189 l 5.122806,18.74198 h 4.747968 l 3.40479,-13.18186 3.40479,13.18186 h 4.74797 l 5.12281,-18.74198 z"
             id="path17702" />
          <path
             d="m 126.03401,154.15616 c 3.4985,0 6.46598,-2.06162 6.46598,-5.56012 0,-6.93453 -8.62131,-5.21652 -8.62131,-8.46513 0,-1.06204 0.81215,-1.56183 1.81173,-1.56183 1.06204,0 2.12409,0.5935 3.06119,1.62431 l 2.74882,-2.62388 c -1.37441,-1.59307 -3.46727,-2.65511 -5.77878,-2.65511 -2.96748,0 -5.99743,1.78049 -5.99743,5.52888 0,6.37227 8.65255,4.84168 8.65255,8.12152 0,1.03081 -0.87463,1.71802 -2.31151,1.71802 -1.71802,0 -3.06119,-0.96834 -3.7484,-2.43646 l -3.40479,2.12409 c 1.21823,2.34275 3.8421,4.18571 7.12195,4.18571 z"
             id="path17704" />
        </g>
      </g>
    </g>
  </g>
</svg>
