<?xml version="1.0" encoding="UTF-8"?>
<svg version="1.1" viewBox="0 0 192 192" xml:space="preserve" xmlns="http://www.w3.org/2000/svg">
	 <rect class="a" x="20" y="20" width="152" height="152" rx="10" fill="#56595b"/><path d="m134.59 85.112h-18.886c1.3594-0.98202-4.2816-7.4323-7.9372-9.1418-4.7633-2.2276-13.411-4.9996-15.773-0.30099-1.6316 3.247 3.2145 7.5021 6.6716 8.6217 4.6317 1.5001 8.7689 2.6417 12.933 4.5162 4.0037 1.8024 8.205 3.524 11.496 6.431 3.161 2.7925 5.9374 6.276 7.4927 10.197 1.1439 2.8835 1.1746 6.1358 1.129 9.2376-0.0468 3.1835-1.3e-4 6.6016-1.437 9.4428-1.3975 2.7634-4.027 4.8004-6.5689 6.5689-2.8275 1.9672-6.0905 3.3271-9.3915 4.3109-3.7134 1.1067-7.6231 1.593-11.496 1.7251-2.9674 0.10124-6.0325 0.12829-8.8783-0.71847-3.2841-0.97716-6.1041-3.1277-9.0323-4.9069-2.0292-1.233-5.9019-3.9887-5.9019-3.9887l-0.66708 6.452h-20.938v-27.302h18.886s-0.10004 2.2604 1.1747 5.9361c0 0 0.057 0.63282 4.9837 2.6856 4.9267 2.0528 5.2125 2.3877 8.0059 2.8739 2.3595 0.41066 4.8952 0.7025 7.1848 0 1.2247-0.37577 2.5815-1.0237 3.1818-2.1554 0.56112-1.0579 0.50168-2.5051-1e-5 -3.5924-0.64054-1.3883-2.1703-2.2042-3.4897-2.9765-2.9893-1.7499-6.4946-2.4111-9.7508-3.5924-2.8688-1.0407-5.8549-1.7916-8.6217-3.0792-2.5856-1.2032-5.0549-2.6739-7.3901-4.3109-2.1881-1.5338-4.4088-3.1123-6.1584-5.132-1.3678-1.5789-2.5873-3.3681-3.2845-5.3373-1.2435-3.5123-1.5833-7.362-1.437-11.085 0.10438-2.6552 0.57734-5.3661 1.6422-7.8006 1.0424-2.3831 2.5915-4.6139 4.5161-6.3637 2.132-1.9383 4.8067-3.2679 7.4927-4.3109 3.5285-1.3701 7.325-2.0285 11.085-2.4634 2.923-0.33808 5.9074-0.46928 8.827-0.10264 2.495 0.31332 4.9548 1.0108 7.2874 1.9502 2.1023 0.84657 4.2156 1.8293 5.9531 3.2845 1.4173 1.1871 3.4897 4.3109 3.4897 4.3109l2.6686-6.1584h20.733z" fill="#fff"/></svg>
