<?xml version="1.0" encoding="UTF-8"?>
<svg version="1.1" viewBox="0 0 192 192" xml:space="preserve" xmlns="http://www.w3.org/2000/svg">
	 <rect class="a" x="20" y="20" width="152" height="152" rx="10" fill="#9abeff"/><rect x="59.263" y="81.348" width="4.5934" height="18.892" fill="#fff" stroke-linecap="round" stroke-linejoin="round" stroke-width="1.6764"/><rect transform="rotate(120)" x="45.553" y="-108.15" width="4.5934" height="18.892" fill="#fff" stroke-linecap="round" stroke-linejoin="round" stroke-width="1.6764"/><rect transform="rotate(60)" x="107.11" y="-17.361" width="4.5934" height="18.892" fill="#fff" stroke-linecap="round" stroke-linejoin="round" stroke-width="1.6764"/><rect x="82.732" y="81.348" width="4.5934" height="18.892" fill="#fff" stroke-linecap="round" stroke-linejoin="round" stroke-width="1.6764"/><rect transform="rotate(120)" x="33.819" y="-128.48" width="4.5934" height="18.892" fill="#fff" stroke-linecap="round" stroke-linejoin="round" stroke-width="1.6764"/><rect transform="rotate(60)" x="118.85" y="-37.686" width="4.5934" height="18.892" fill="#fff" stroke-linecap="round" stroke-linejoin="round" stroke-width="1.6764"/><rect x="106.2" y="81.348" width="4.5934" height="18.892" fill="#fff" stroke-linecap="round" stroke-linejoin="round" stroke-width="1.6764"/><rect transform="rotate(120)" x="22.084" y="-148.81" width="4.5934" height="18.892" fill="#fff" stroke-linecap="round" stroke-linejoin="round" stroke-width="1.6764"/><rect transform="rotate(60)" x="130.58" y="-58.012" width="4.5934" height="18.892" fill="#fff" stroke-linecap="round" stroke-linejoin="round" stroke-width="1.6764"/><rect x="129.67" y="81.348" width="4.5934" height="18.892" fill="#fff" stroke-linecap="round" stroke-linejoin="round" stroke-width="1.6764"/><rect transform="rotate(120)" x="10.349" y="-169.13" width="4.5934" height="18.892" fill="#fff" stroke-linecap="round" stroke-linejoin="round" stroke-width="1.6764"/><rect transform="rotate(60)" x="142.32" y="-78.337" width="4.5934" height="18.892" fill="#fff" stroke-linecap="round" stroke-linejoin="round" stroke-width="1.6764"/><rect x="50.004" y="107.19" width="91.992" height="3.4576" fill="#fff" stroke-linecap="round" stroke-linejoin="round" stroke-width="1.6764"/></svg>
