<?xml version="1.0" encoding="UTF-8"?><svg id="uuid-1c8789ee-77d1-4431-aecf-e1cfafa7ed57" xmlns="http://www.w3.org/2000/svg" width="192" height="192" xmlns:xlink="http://www.w3.org/1999/xlink" viewBox="0 0 192 192"><defs><clipPath id="uuid-4b730680-7236-4995-99c9-1bb36c4d8735"><circle cx="96" cy="96" r="45" fill="none" stroke-width="0"/></clipPath></defs><g id="uuid-df4b11f6-d928-49dc-b059-bf89c8632db4"><g id="uuid-68c50a0f-215b-4302-8438-459dc87ac1b8"><rect x="20" y="20" width="152" height="152" rx="10" ry="10" fill="#9abeff" stroke-width="0"/><g id="uuid-2bc94bfc-d58e-4d8f-b058-307a6a432d9a"><g clip-path="url(#uuid-4b730680-7236-4995-99c9-1bb36c4d8735)"><circle cx="96" cy="96" r="45" fill="#fff" stroke-width="0"/><path d="m91.52,123.1c-9.03-.8-8.49-7.43-9.42-14.1-7.1-7.02-14.12-14.12-21.24-21.14-5.1,20.07,9.98,41.87,30.66,43.87v-8.64Z" fill="#9abeff" stroke-width="0"/><path d="m109.53,52.9c.03.11,0,.23,0,.34,0,3.57,0,7.14,0,10.71,0,2.47-.77,4.65-2.47,6.46-1.19,1.27-2.62,2.17-4.31,2.59-.7.17-1.43.25-2.15.26-2.95.03-5.9.02-8.84.02-.11,0-.23,0-.38,0v.47c0,2.75,0,5.49,0,8.24,0,1.65-.6,3.04-1.91,4.07-.57.45-1.22.76-1.97.77-3.17.03-6.33.05-9.5.06-.27,0-.35.07-.35.35.01,2.82.02,5.65,0,8.47,0,.29.07.38.38.38,8.23-.02,16.46-.02,24.69-.02.86,0,1.72,0,2.58.09,2.26.22,3.75,1.73,4.15,3.76.06.34.08.68.08,1.03,0,4.33,0,8.65,0,12.98v.37c.15,0,.26,0,.37,0,1.39,0,2.78-.03,4.16.01,2.04.06,3.93.64,5.56,1.9,1.28.98,2.22,2.25,2.83,3.76.08.2.17.4.29.67,3.61-3.97,6.22-8.46,7.86-13.52,1.64-5.07,2.05-5.78,2.23-11.11h8.17c1.28-23.72-14.5-37.84-31.51-43.18.01.03.03.06.04.08Z" fill="#9abeff" stroke-width="0"/></g><rect x="117.33" y="56.67" width="17.34" height="22.91" fill="#fff" stroke-width="0"/><polygon points="154.83 68.12 133.42 46.89 133.42 89.35 154.83 68.12" fill="#fff" stroke-width="0"/></g></g></g></svg>