<?xml version="1.0" encoding="UTF-8" standalone="no"?>
<svg
   id="a"
   width="192"
   height="192"
   viewBox="0 0 192 192"
   version="1.1"
   xmlns="http://www.w3.org/2000/svg"
   xmlns:svg="http://www.w3.org/2000/svg">
  <defs
     id="defs20" />
  <rect
     style="fill:#728dbe;fill-opacity:1"
     id="rect1383"
     width="152"
     height="152"
     x="20"
     y="20"
     rx="15"
     ry="15" />
  <text
     xml:space="preserve"
     style="font-size:160px;fill:#fcecdc;fill-opacity:1"
     x="52.200001"
     y="156"
     id="text1508"><tspan
       id="tspan1506"
       x="52.200001"
       y="156"
       style="font-style:normal;font-variant:normal;font-weight:normal;font-stretch:normal;font-size:160px;font-family:Now;-inkscape-font-specification:Now">S</tspan></text>
  <path
     style="fill:#ffffff;stroke-width:0.423025;paint-order:stroke fill markers"
     d="m 91.525365,157.18393 c -7.055444,-0.8928 -13.642934,-3.29968 -19.326397,-7.06133 -3.477814,-2.30182 -8.174284,-6.97133 -10.436053,-10.37615 -1.779932,-2.67947 -3.545818,-5.98627 -3.411674,-6.3887 0.04527,-0.13581 2.573579,-1.70524 5.618468,-3.48763 l 5.53616,-3.24071 1.131958,2.32573 c 4.094301,8.4122 11.231209,13.77786 20.552117,15.45147 3.184541,0.5718 9.067196,0.56678 12.073326,-0.0103 9.43432,-1.8111 15.49471,-6.93116 17.47547,-14.76397 0.46499,-1.83878 0.52908,-2.70393 0.41648,-5.62176 -0.14862,-3.85099 -0.74387,-6.0757 -2.35914,-8.81711 -1.21218,-2.05731 -4.948,-5.76574 -7.4877,-7.43281 -2.89562,-1.90071 -9.94339,-5.3228 -16.920985,-8.216113 -15.2402,-6.31945 -22.78011,-11.289433 -27.044076,-17.82627 -2.886572,-4.425236 -4.001666,-8.22505 -4.208868,-14.342213 -0.217771,-6.429185 0.58963,-10.678053 2.96028,-15.578166 8.958767,-18.517691 35.880119,-23.006561 54.863909,-9.148013 1.99711,1.457935 6.87415,6.14817 6.87415,6.610857 0,0.136912 -2.15257,2.061619 -4.78349,4.277127 l -4.78349,4.028196 -0.81442,-1.022029 c -3.26077,-4.092001 -8.13075,-7.182674 -13.54594,-8.596762 -2.10973,-0.550921 -2.94906,-0.619542 -7.402932,-0.605235 -5.853121,0.0188 -7.656076,0.381521 -11.63318,2.340376 -4.220345,2.078657 -7.110976,5.317944 -8.514123,9.541058 -0.610036,1.836049 -0.705186,2.56862 -0.721151,5.5522 -0.0155,2.8958 0.07899,3.74935 0.599987,5.420005 0.86441,2.771864 1.947299,4.544578 4.245669,6.950254 3.657395,3.828151 8.601485,6.584943 21.4428,11.95636 13.00396,5.439443 18.54681,8.660985 23.47687,13.644908 7.01927,7.09594 9.88674,17.45648 7.8309,28.294 -1.83482,9.67241 -7.48994,17.15817 -16.53574,21.88858 -5.58813,2.92225 -11.07621,4.22325 -18.473494,4.37931 -2.690173,0.0567 -5.703232,5.3e-4 -6.695691,-0.12515 z"
     id="path376" />
</svg>
