<?xml version="1.0" encoding="UTF-8"?>
<svg version="1.1" viewBox="0 0 192 192" xml:space="preserve" xmlns="http://www.w3.org/2000/svg">
	 <path transform="matrix(2.2369 0 0 2.2369 -89.102 -207.66)" d="m84.482 99 29.228 16.875a3.4641 3.4641 60 0 1 1.732 3v33.75a3.4641 3.4641 120 0 1-1.732 3l-29.228 16.875a3.4641 3.4641 1.5352e-6 0 1-3.4641 0l-29.228-16.875a3.4641 3.4641 60 0 1-1.732-3v-33.75a3.4641 3.4641 120 0 1 1.7321-3l29.228-16.875a3.4641 3.4641 1.5352e-6 0 1 3.4641 0z" fill="#56595b" stroke-linecap="round" stroke-linejoin="round" stroke-width="5"/><path d="m106.61 70.615-0.48058 6.9641c8.9257 3.7736 15.16 12.599 15.16 22.928 0 1.7384-0.17486 3.4361-0.51116 5.0723l4.5655-0.26651 1.8087 2.4378c0.54942-2.3283 0.84757-4.751 0.84757-7.2437 0-13.84-8.9682-25.633-21.39-29.892zm-21.054 0.21846c-12.09 4.4389-20.748 16.072-20.748 29.674 0 2.4942 0.29752 4.9185 0.84757 7.248l6.5403-1.468c-0.43807-1.854-0.67718-3.7886-0.67718-5.7801 0-9.564 5.3475-17.833 13.225-22.002l-0.0044-0.0044 0.82136-7.6674zm-4.1199 49.578-0.88252 2.4466-4.251 2.001c5.4678 4.5232 12.474 7.2437 20.101 7.2437 7.3761 0 14.166-2.5522 19.551-6.8111l-4.3908-2.0184-1.2757-2.0883c-3.9613 2.6589-8.7361 4.2073-13.884 4.2073-5.6276 0-10.807-1.8524-14.968-4.9806z" color="#000000" fill="#fff" stroke-linecap="round" stroke-linejoin="round" stroke-width="2.2369" style="-inkscape-stroke:none"/><circle cx="95.874" cy="74.297" r="11.045" fill="none" stroke="#fff" stroke-linecap="round" stroke-linejoin="round" stroke-width="6.7107"/><circle cx="72.043" cy="115.82" r="11.045" fill="none" stroke="#fff" stroke-linecap="round" stroke-linejoin="round" stroke-width="6.7107"/><circle cx="119.96" cy="116.09" r="11.045" fill="none" stroke="#fff" stroke-linecap="round" stroke-linejoin="round" stroke-width="6.7107"/><circle cx="95.874" cy="74.297" r="4.9743" fill="#fff"/><circle cx="119.96" cy="116.09" r="4.9743" fill="#fff"/><circle cx="72.043" cy="115.82" r="4.9743" fill="#fff"/></svg>
