<?xml version="1.0" encoding="UTF-8"?>
<svg version="1.1" viewBox="0 0 192 192" xml:space="preserve" xmlns="http://www.w3.org/2000/svg" xmlns:xlink="http://www.w3.org/1999/xlink"><defs><linearGradient id="linearGradient451" x1="161.3" x2="31.397" y1="154.99" y2="36.246" gradientUnits="userSpaceOnUse"><stop stop-color="#98dc9a" offset="0"/><stop stop-color="#f9de81" offset=".49718"/><stop stop-color="#ff837d" offset="1"/></linearGradient></defs>
	 <circle class="a" cx="96" cy="96" r="88" fill="url(#linearGradient451)"/><g fill="none"><path d="m136 94c0 21.539-17.461 39-39 39-6.695 0-18.5-4.659-18.5-4.659l-16.461 2.698a1 1 0 0 1-1.157-1.088l1.776-17.451s-4.658-11.805-4.658-18.5c0-21.54 17.46-39 39-39 21.539 0 39 17.46 39 39z" stroke="#fff" stroke-dasharray="8, 8" stroke-linecap="round" stroke-width="5"/><path d="m130 94c0 18.225-14.775 33-33 33-5.665 0-15.654-3.942-15.654-3.942l-13.73 2.25a1 1 0 0 1-1.157-1.088l1.483-14.566s-3.942-9.99-3.942-15.654c0-18.225 14.775-33 33-33s33 14.775 33 33z" fill="#fff"/></g></svg>
