<?xml version="1.0" encoding="UTF-8"?><svg id="uuid-99f111fb-9d9c-43d6-ae3b-358cb9f24caa" xmlns="http://www.w3.org/2000/svg" width="192" height="192" viewBox="0 0 192 192"><g id="uuid-767e82b6-6df4-482c-9768-9681390ccfef"><g id="uuid-ab781818-c1ae-4df3-87f7-65ae809535c3"><circle cx="96" cy="96" r="88" fill="#9abeff" stroke-width="0"/><path d="m127.2,132.5h-13.13c-.68,0-1.32-.35-1.69-.92l-16.83-26.38c-.37-.58-1-.92-1.69-.92h-3.35c-1.1,0-2,.9-2,2v24.23c0,1.1-.9,2-2,2h-12.06c-1.1,0-2-.9-2-2V61.5c0-1.1.9-2,2-2h29.03c12.53,0,21.78,9.98,21.78,22.39,0,9.08-5.04,16.54-12.45,19.74-1.14.49-1.53,1.92-.83,2.94l16.87,24.81c.9,1.33-.05,3.12-1.65,3.12Zm-17.27-50.05c.04-5.03-3.74-8.72-8.88-8.72h-12.53v17.28h12.53c4.78,0,8.84-3.78,8.88-8.56Z" fill="#728dbe" stroke="#54688c" stroke-linecap="round" stroke-linejoin="round" stroke-width="3"/></g></g></svg>