<?xml version="1.0" encoding="UTF-8" standalone="no"?>
<svg
   xmlns:dc="http://purl.org/dc/elements/1.1/"
   xmlns:cc="http://creativecommons.org/ns#"
   xmlns:rdf="http://www.w3.org/1999/02/22-rdf-syntax-ns#"
   xmlns:svg="http://www.w3.org/2000/svg"
   xmlns="http://www.w3.org/2000/svg"
   xmlns:sodipodi="http://sodipodi.sourceforge.net/DTD/sodipodi-0.dtd"
   xmlns:inkscape="http://www.inkscape.org/namespaces/inkscape"
   viewBox="0 0 192 192"
   version="1.1"
   id="svg16"
   sodipodi:docname="smash_legends.svg"
   inkscape:version="0.92.4 (5da689c313, 2019-01-14)">
  <metadata
     id="metadata20">
    <rdf:RDF>
      <cc:Work
         rdf:about="">
        <dc:format>image/svg+xml</dc:format>
        <dc:type
           rdf:resource="http://purl.org/dc/dcmitype/StillImage" />
        <dc:title />
      </cc:Work>
    </rdf:RDF>
  </metadata>
  <sodipodi:namedview
     pagecolor="#ffffff"
     bordercolor="#666666"
     borderopacity="1"
     objecttolerance="10"
     gridtolerance="10"
     guidetolerance="10"
     inkscape:pageopacity="0"
     inkscape:pageshadow="2"
     inkscape:window-width="1920"
     inkscape:window-height="1017"
     id="namedview18"
     showgrid="true"
     inkscape:zoom="23.956317"
     inkscape:cx="50.900171"
     inkscape:cy="100.30449"
     inkscape:window-x="-8"
     inkscape:window-y="-8"
     inkscape:window-maximized="1"
     inkscape:current-layer="svg16"
     inkscape:snap-global="false">
    <inkscape:grid
       type="xygrid"
       id="grid827"
       spacingx="4"
       spacingy="4" />
  </sodipodi:namedview>
  <defs
     id="defs4">
    <style
       id="style2">.a{fill:none;stroke:#b1b5bd;stroke-linecap:round;stroke-linejoin:round;isolation:isolate;opacity:0.63;}</style>
  </defs>
  <rect
     class="a"
     x="20"
     y="20"
     width="152"
     height="152"
     rx="10"
     id="rect6"
     style="fill:#54688c;stroke:none;opacity:1" />
  <path
     style="fill:#728dbe;stroke:none;stroke-width:1px;stroke-linecap:butt;stroke-linejoin:miter;stroke-opacity:1"
     d="M 157.97656 112.13086 C 155.63789 112.13045 154.05664 112.25781 154.05664 112.25781 L 143.19727 134.65234 L 172 137.71094 L 172 114.26953 C 170.25153 113.66366 168.26571 113.07101 166.44141 112.76562 C 163.41048 112.25826 160.31523 112.13127 157.97656 112.13086 z "
     id="path1018" />
  <path
     style="fill:#9abeff;stroke:none;stroke-width:1px;stroke-linecap:butt;stroke-linejoin:miter;stroke-opacity:1"
     d="M 61.757812 144.32422 C 61.757812 144.32422 41.945521 155.20928 44.283203 164.34375 C 44.843643 166.53366 46.303674 169.44057 47.742188 172 L 73.986328 172 L 61.757812 144.32422 z "
     id="path954" />
  <path
     style="fill:#f9de81;stroke:none;stroke-width:1px;stroke-linecap:butt;stroke-linejoin:miter;stroke-opacity:1"
     d="M 32.541016 20 C 31.660625 23.200103 32.037099 27.572651 35.121094 33.53125 C 38.902304 40.836941 53.953125 49.480469 53.953125 49.480469 L 172 67.005859 L 172 30 C 172 24.46 167.54 20 162 20 L 32.541016 20 z "
     id="path934" />
  <path
     style="fill:#ffffff;stroke:none;stroke-width:1px;stroke-linecap:butt;stroke-linejoin:miter;stroke-opacity:1"
     d="M 143.36719 123.96484 L 54.802734 145.68164 C 54.802734 145.68164 55.472475 156.72571 60.230469 165.70117 C 61.303955 167.72619 63.531191 169.99296 65.816406 172 L 162 172 C 167.54 172 172 167.54 172 162 L 172 128.74805 C 168.18503 128.7806 160.97342 128.74135 156.77148 128.03516 C 152.16656 127.26124 143.36719 123.96484 143.36719 123.96484 z "
     id="path952" />
  <path
     style="fill:#56595b;stroke:none;stroke-width:1px;stroke-linecap:butt;stroke-linejoin:miter;stroke-opacity:1"
     d="M 73.126953 145.3418 C 73.126953 145.3418 67.99443 156.77154 70.072266 167.05859 C 70.367088 168.51821 71.450653 170.62968 72.205078 172 L 82.818359 172 C 81.297241 161.33535 82.626953 154.33398 82.626953 154.33398 L 73.126953 145.3418 z "
     id="path956" />
  <circle
     class="a"
     cx="96"
     cy="96"
     r="36.5"
     id="circle10" />
  <path
     style="fill:#f8c18c;stroke:none;stroke-width:1px;stroke-linecap:butt;stroke-linejoin:miter;stroke-opacity:1"
     d="m 45.470451,96.47812 c 0,0 -18.314154,19.42112 -16.79692,34.95117 2.643659,27.05989 34.272504,32.23651 34.272504,32.23651 0,0 -10.68197,-13.99781 -10.519284,-39.36248 0.06132,-9.56032 -6.9563,-27.8252 -6.9563,-27.8252 z"
     id="path837"
     inkscape:connector-curvature="0"
     sodipodi:nodetypes="cscsc" />
  <path
     style="fill:#9abeff;stroke:none;stroke-width:1px;stroke-linecap:butt;stroke-linejoin:miter;stroke-opacity:1"
     d="m 55.989734,41.845712 c 0,0 8.248746,-12.093911 14.76093,-13.912601 17.789241,-4.968089 21.717231,0.508998 21.717231,0.508998 L 59.213386,47.784017 Z"
     id="path932"
     inkscape:connector-curvature="0"
     sodipodi:nodetypes="csccc" />
  <path
     style="fill:#56595b;stroke:none;stroke-width:1px;stroke-linecap:butt;stroke-linejoin:miter;stroke-opacity:1"
     d="M 142.85938 116.49805 C 142.85937 116.49805 132.10602 129.62055 129.11523 150.0918 C 128.24402 156.05504 129.90171 165.89723 131.14648 172 L 143.99023 172 C 141.84999 166.17501 138.83217 156.50231 139.97461 150.60156 C 144.08674 129.36224 157.44922 128.375 157.44922 128.375 L 142.85938 116.49805 z "
     id="path962" />
  <path
     style="fill:#f8c18c;stroke:none;stroke-width:1px;stroke-linecap:butt;stroke-linejoin:miter;stroke-opacity:1"
     d="m 59.985941,46.354136 c 0,0 9.204442,-24.717903 54.467239,-14.63657 27.94241,6.223584 46.36161,25.175497 49.18847,47.508865 5.62207,44.416689 -29.99297,52.307739 -29.99297,52.307739 z"
     id="path910"
     inkscape:connector-curvature="0"
     sodipodi:nodetypes="csscc" />
  <path
     style="fill:#9abeff;stroke:none;stroke-width:1px;stroke-linecap:butt;stroke-linejoin:miter;stroke-opacity:1"
     d="m 154.28384,41.315317 c -6.05378,0.658413 -8.58506,17.509295 -6.71843,26.393814 1.81588,8.642987 10.72553,21.937079 16.31618,20.875107 8.83554,-1.678356 4.37383,-18.099566 2.39944,-26.873702 -1.73156,-7.694969 -5.80472,-21.068716 -11.99719,-20.395219 z"
     id="path912"
     inkscape:connector-curvature="0"
     sodipodi:nodetypes="sssss" />
  <path
     style="fill:#f9de81;stroke:none;stroke-width:1px;stroke-linecap:butt;stroke-linejoin:miter;stroke-opacity:1"
     d="M 169.11523 22.962891 C 159.54324 24.715764 150.07691 32.920188 152.125 59.550781 C 153.52131 77.706488 165.75669 95.688895 172 103.78906 L 172 30 C 172 27.249958 170.89978 24.767253 169.11523 22.962891 z "
     id="path914" />
  <path
     style="fill:#56595b;stroke:none;stroke-width:1px;stroke-linecap:butt;stroke-linejoin:miter;stroke-opacity:1"
     d="M 102.93945 20 C 103.79357 21.164946 104.75532 22.44897 106.7207 24.708984 C 106.7207 24.708984 92.68592 27.609913 90.601562 28.78125 C 88.711883 29.843185 88.904297 35.058594 88.904297 35.058594 C 88.904297 35.058594 79.584458 32.776709 67.527344 39.470703 C 60.028994 43.633715 90.261719 51.517578 90.261719 51.517578 L 123.00781 98.005859 L 141.16211 95.798828 C 141.16211 95.798828 142.41603 78.238803 134.03516 60.847656 C 128.64732 49.667344 120.12305 43.033203 120.12305 43.033203 C 120.12305 43.033203 119.94481 40.637834 120.80273 40.148438 C 122.67267 39.081739 124.53516 36.925781 124.53516 36.925781 C 124.53516 36.925781 142.51008 42.828862 151.85156 43.542969 C 157.82736 43.999787 168.25614 42.519837 172 41.945312 L 172 30 C 172 24.46 167.54 20 162 20 L 149.11719 20 C 140.19728 25.23833 126.74023 29.96875 126.74023 29.96875 L 125.55273 27.933594 C 130.05665 25.543389 134.75247 22.366401 138.08984 20 L 102.93945 20 z "
     id="path863" />
  <path
     style="fill:#98dc9a;stroke:none;stroke-width:1px;stroke-linecap:butt;stroke-linejoin:miter;stroke-opacity:1"
     d="m 85.850926,147.20821 c 0,0 7.135599,7.60993 17.814914,11.87661 -2.57678,-10.61381 -0.50899,-20.19024 -0.50899,-20.19024 z"
     id="path960"
     inkscape:connector-curvature="0"
     sodipodi:nodetypes="cccc" />
  <path
     style="fill:#d8d8d8;stroke:none;stroke-width:1px;stroke-linecap:butt;stroke-linejoin:miter;stroke-opacity:1"
     d="m 63.624698,146.86888 c 0,0 6.391531,23.7807 12.894606,18.15425 2.41078,-2.0858 0.339332,-16.96659 0.339332,-16.96659 z"
     id="path958"
     inkscape:connector-curvature="0"
     sodipodi:nodetypes="cscc" />
  <path
     style="fill:#fcecdc;stroke:none;stroke-width:1px;stroke-linecap:butt;stroke-linejoin:miter;stroke-opacity:1"
     d="m 39.590721,125.53558 c -1.383972,-6.21058 4.798875,-18.64534 4.798875,-18.64534 L 38.151058,83.305475 c 0,0 14.924777,-31.98661 37.191284,-31.192689 38.463678,1.371438 51.108018,48.708584 51.108018,48.708584 0,0 12.5553,-6.839529 19.43545,-6.958369 5.27799,-0.09117 8.82696,9.028039 8.39803,14.636569 -1.11645,14.59819 -21.11505,17.5159 -21.11505,17.5159 0,0 -17.97523,14.4057 -31.03009,18.57006 -12.68766,4.04723 -32.070288,11.4356 -44.072309,5.66426 -4.878109,-2.34571 -5.866209,-9.10962 -9.117863,-13.43686 -2.934442,-3.9051 -8.295344,-6.50954 -9.357807,-11.27735 z"
     id="path829"
     inkscape:connector-curvature="0"
     sodipodi:nodetypes="sccscsscssss" />
  <path
     style="fill:#f8c18c;stroke:none;stroke-width:1px;stroke-linecap:butt;stroke-linejoin:miter;stroke-opacity:1"
     d="M 75.161977,55.588647 66.084853,57.200472 68.88434,46.511523 89.159411,49.989673 88,61.18762 77.876631,56.097644 Z"
     id="path833"
     inkscape:connector-curvature="0" />
  <path
     style="fill:#d8d8d8;stroke:none;stroke-width:1px;stroke-linecap:butt;stroke-linejoin:miter;stroke-opacity:1"
     d="m 127.2494,152.97685 c 0,0 1.04738,14.17341 5.25964,14.4216 3.4665,0.20425 5.84767,-6.87801 5.76864,-10.34962 -0.14434,-6.34107 -2.71466,-12.38561 -2.71466,-12.38561 z"
     id="path964"
     inkscape:connector-curvature="0"
     sodipodi:nodetypes="csscc" />
  <path
     style="fill:#d8d8d8;stroke:none;stroke-width:1px;stroke-linecap:butt;stroke-linejoin:miter;stroke-opacity:1"
     d="m 108.75582,110.22105 -0.16967,4.58098 11.53728,-4.07198 -0.509,-4.58098 z"
     id="path1012"
     inkscape:connector-curvature="0" />
  <path
     style="fill:#f8c18c;stroke:none;stroke-width:1px;stroke-linecap:butt;stroke-linejoin:miter;stroke-opacity:1"
     d="m 104.34451,167.90745 c 0,0 12.6559,-17.51836 14.59126,-34.44217 1.32625,-11.59743 -4.07198,-34.781504 -4.07198,-34.781504 l 16.62725,7.295634 c 0,0 11.06156,18.79628 12.04628,28.67353 2.77621,27.84673 -39.19281,33.25451 -39.19281,33.25451 z"
     id="path835"
     inkscape:connector-curvature="0"
     sodipodi:nodetypes="csccsc" />
  <path
     style="fill:#4a4a4a;stroke:none;stroke-width:1px;stroke-linecap:butt;stroke-linejoin:miter;stroke-opacity:1"
     d="M 102.93945 20 C 103.79356 21.164581 104.75532 22.44897 106.7207 24.708984 C 106.7207 24.708984 106.01368 24.860816 105.6582 24.935547 L 115.20312 37.265625 C 115.20312 37.265625 116.72145 41.411677 115.54297 42.863281 C 110.9219 48.555346 99.59375 43.203125 99.59375 43.203125 C 99.59375 43.203125 93.987532 38.330413 92.46875 35.058594 C 91.716667 33.438428 91.302388 30.853741 91.068359 28.570312 C 90.883525 28.645176 90.717236 28.716246 90.601562 28.78125 C 88.711883 29.843185 88.904297 35.058594 88.904297 35.058594 C 89.137831 37.463324 91.449219 41.845703 91.449219 41.845703 C 91.449219 41.845703 89.475507 43.645525 88.226562 43.880859 C 83.245338 44.819452 73.294922 40.998047 73.294922 40.998047 L 80.929688 46.935547 L 109.94336 50.328125 C 109.94336 50.328125 127.82446 62.368784 132 60.509766 C 132.53545 60.271376 132.61102 59.223212 132.49805 57.939453 C 127.16834 48.535434 120.12305 43.033203 120.12305 43.033203 C 120.12305 43.033203 119.94481 40.637833 120.80273 40.148438 C 122.67267 39.081739 124.53516 36.925781 124.53516 36.925781 C 124.53516 36.925781 142.51008 42.828862 151.85156 43.542969 C 157.82631 43.999706 168.25433 42.520287 172 41.945312 L 172 40.402344 C 167.48445 39.899336 153.82427 38.370525 145.23438 37.265625 C 137.98381 36.333001 130.15268 37.279474 123.51758 34.210938 C 121.04512 33.067497 119.15319 30.873028 117.4082 28.78125 C 115.55166 26.555749 113.35982 22.801629 111.80859 20 L 102.93945 20 z "
     id="path865" />
  <path
     style="fill:#f8c18c;stroke:none;stroke-width:1px;stroke-linecap:butt;stroke-linejoin:miter;stroke-opacity:1"
     d="m 47.16711,79.511533 c 0,0 5.163619,4.787193 7.634963,3.478151 3.11807,-1.651606 1.781492,-10.434451 1.781492,-10.434451 z"
     id="path1016"
     inkscape:connector-curvature="0"
     sodipodi:nodetypes="cscc" />
  <path
     style="fill:#f9de81;stroke:none;stroke-width:1px;stroke-linecap:butt;stroke-linejoin:miter;stroke-opacity:1"
     d="m 20.020572,51.007669 c 0,0 -5.90985,10.084867 -7.465299,21.71723 -1.128969,8.442951 0.644549,23.475173 9.161957,23.583555 19.200168,0.244318 44.480278,-26.546562 48.863769,-46.149115 -0.350535,-0.375155 4.580978,5.429308 4.580978,5.429308 l 2.714654,0.508997 6.107971,-1.187661 c 0,0 8.17691,34.749056 27.994868,48.524437 24.73451,17.19285 40.88947,0.16967 40.88947,0.16967 0,0 -13.95866,-4.942278 -17.98458,-17.81492 C 131.05528,73.545895 127.64679,58.592893 116.73011,51.855998 104,44 80.591284,45.069363 80.591284,45.069363 c 0,0 -9.731313,-10.984426 -16.287922,-11.028281 C 47.034041,33.925574 30.71396,52.993013 23.413889,59.660628 20.13237,56.823615 20.020572,51.007669 20.020572,51.007669 Z"
     id="path831"
     inkscape:connector-curvature="0"
     sodipodi:nodetypes="cssccccscsscscc" />
  <path
     style="fill:#ff837d;stroke:none;stroke-width:1px;stroke-linecap:butt;stroke-linejoin:miter;stroke-opacity:1;opacity:1"
     d="m 51.748088,128.03597 c 0,0 7.661126,3.74814 11.197947,6.10797 1.461664,0.97525 3.725363,3.41156 3.308484,5.51414 -0.479566,2.41875 -1.919524,5.37112 -5.938305,4.41131 -2.842651,-0.67891 -3.203236,-5.56647 -4.580979,-8.14395 -1.47889,-2.76671 -3.987147,-7.88947 -3.987147,-7.88947 z"
     id="path839"
     inkscape:connector-curvature="0"
     sodipodi:nodetypes="cssssc" />
  <path
     style="fill:#ffb0ac;stroke:none;stroke-width:1px;stroke-linecap:butt;stroke-linejoin:miter;stroke-opacity:1"
     d="M 58.716797 131.66016 C 58.15245 132.13906 57.581343 132.70423 57.091797 133.38086 C 56.285562 134.4952 56.029749 135.59912 55.943359 136.39062 C 57.150421 139.04759 57.629274 143.42854 60.316406 144.07031 C 64.335187 145.03012 65.77434 142.07695 66.253906 139.6582 C 66.670785 137.55562 64.406977 135.11978 62.945312 134.14453 C 61.823905 133.39631 60.291785 132.52379 58.716797 131.66016 z "
     id="path841" />
  <path
     style="fill:#56595b;stroke:none;stroke-width:1px;stroke-linecap:butt;stroke-linejoin:miter;stroke-opacity:1"
     d="m 38.391002,81.625869 1.91955,2.039522 c 0,0 -7.69419,2.68128 -7.438257,14.396625 0.156792,7.177134 2.275922,16.110184 8.757948,19.195504 2.993179,1.42469 4.918847,-1.79958 4.918847,-1.79958 l 1.559635,2.15949 c 0,0 -2.984672,4.18665 -7.558229,2.75936 C 32.60453,117.89704 31.153299,106.34736 30.352886,98.062016 29.08428,84.930245 38.391002,81.625869 38.391002,81.625869 Z"
     id="path859"
     inkscape:connector-curvature="0"
     sodipodi:nodetypes="ccssccssc" />
  <path
     style="fill:#ffffff;stroke:none;stroke-width:1px;stroke-linecap:butt;stroke-linejoin:miter;stroke-opacity:1"
     d="m 44.367623,96.562953 c 0.03024,5.771067 4.155495,13.501987 6.447303,13.573267 4.200221,0.13063 5.454225,-7.11458 4.92031,-11.282779 -0.217049,-1.694468 -1.45462,-13.735449 -6.701802,-13.403602 -4.009605,0.253579 -4.686861,7.095554 -4.665811,11.113114 z"
     id="path1057"
     inkscape:connector-curvature="0"
     sodipodi:nodetypes="sssss" />
  <rect
     style="opacity:1;vector-effect:none;fill:#728dbe;fill-opacity:1;fill-rule:evenodd;stroke:none;stroke-width:8.34515381;stroke-linecap:round;stroke-miterlimit:4;stroke-dasharray:none;stroke-opacity:1;paint-order:stroke fill markers"
     id="rect1038"
     width="8.5180035"
     height="18.3557"
     x="42.816521"
     y="93.788788"
     ry="9.1778498"
     rx="4.2590017"
     transform="rotate(-3.1529858)" />
  <path
     style="fill:#56595b;stroke:none;stroke-width:1px;stroke-linecap:butt;stroke-linejoin:miter;stroke-opacity:1"
     d="m 51.527923,108.97946 c 0,0 -0.989014,0.0595 -0.659845,1.37967 0.309062,1.23954 1.259705,1.07975 1.259705,1.07975 0,0 3.51967,-1.67222 5.218776,-1.13973 3.280749,1.02818 5.326239,4.56537 7.018356,7.55823 0.991445,1.75357 2.939311,1.2597 2.939311,1.2597 0,0 3.880779,12.19087 13.256893,15.53636 11.173947,3.98698 18.655627,-8.15809 18.655627,-8.15809 l -2.039522,-1.19972 c 0,0 -4.408011,9.7191 -15.616928,6.79473 -6.846942,-1.78634 -10.480661,-10.0693 -11.136801,-15.49269 -1.538349,-12.7154 2.50115,-14.96333 5.818636,-18.115752 -4.269149,0.839112 -6.898383,6.178552 -6.898383,6.178552 l -1.139733,-0.47988 c 0,0 -1.753877,2.45193 -1.019761,11.39732 l -1.199719,0.06 c 0,0 -3.160753,-5.92232 -7.078341,-7.19832 -3.393034,-1.10515 -7.378271,0.53987 -7.378271,0.53987 z"
     id="path861"
     inkscape:connector-curvature="0"
     sodipodi:nodetypes="cscsscsccsscccccsc" />
  <path
     style="fill:#9abeff;stroke:none;stroke-width:1px;stroke-linecap:butt;stroke-linejoin:miter;stroke-opacity:1"
     d="M 166.61133 136.17969 C 166.61133 136.17969 163.69388 139.26119 159.14648 148.56641 C 154.74633 157.57032 150.96074 167.89608 149.50586 172 L 162 172 C 167.54 172 172 167.54 172 162 L 172 137.32422 L 166.61133 136.17969 z "
     id="path966" />
  <path
     style="fill:#f8c18c;stroke:none;stroke-width:1px;stroke-linecap:butt;stroke-linejoin:miter;stroke-opacity:1"
     d="m 73.634984,86.807166 c 0,0 1.064697,-5.449321 10.688949,-5.598974 9.659222,-0.150197 13.296068,6.118521 12.894606,7.125966 -1.147038,2.87842 -7.593101,0.918548 -11.367613,1.526993 -12.758912,2.056716 -12.215942,-3.053985 -12.215942,-3.053985 z"
     id="path1014"
     inkscape:connector-curvature="0"
     sodipodi:nodetypes="csssc" />
  <path
     style="fill:#8e6f60;stroke:none;stroke-width:1px;stroke-linecap:butt;stroke-linejoin:miter;stroke-opacity:1"
     d="m 44.32961,96.742326 c 0,0 0.585668,-8.942514 4.678904,-9.237835 3.589033,-0.258943 7.738186,10.377568 7.738186,10.377568 0,0 -0.503747,-10.474009 -7.258299,-15.596345 -0.382371,-0.289972 -1.439662,0 -1.439662,0 0,0 -1.507144,-1.020369 -2.279466,-2.279466 -0.766503,1.724977 -0.419902,4.13903 -0.419902,4.13903 0,0 -2.025291,-0.627576 -3.599156,-2.219479 -0.0435,3.184729 2.21948,5.278762 2.21948,5.278762 -1.476553,4.439624 0.359915,9.537765 0.359915,9.537765 z"
     id="path1036"
     inkscape:connector-curvature="0"
     sodipodi:nodetypes="cscscccccc" />
  <rect
     style="opacity:1;vector-effect:none;fill:#9abeff;fill-opacity:1;fill-rule:evenodd;stroke:none;stroke-width:6.94264126;stroke-linecap:round;stroke-miterlimit:4;stroke-dasharray:none;stroke-opacity:1;paint-order:stroke fill markers"
     id="rect1038-44"
     width="7.0864415"
     height="15.270783"
     x="44.232292"
     y="95.711235"
     ry="7.6353917"
     rx="3.5432208"
     transform="rotate(-3.1529858)" />
  <rect
     style="opacity:1;vector-effect:none;fill:#54688c;fill-opacity:1;fill-rule:evenodd;stroke:none;stroke-width:4.16918945;stroke-linecap:round;stroke-miterlimit:4;stroke-dasharray:none;stroke-opacity:1;paint-order:stroke fill markers"
     id="rect1038-4"
     width="4.4607453"
     height="8.7485476"
     x="46.379063"
     y="99.489906"
     ry="4.3742738"
     rx="2.2303727"
     transform="matrix(0.99874709,-0.05004244,0.06045026,0.99817121,0,0)" />
  <path
     style="fill:#ffffff;stroke:none;stroke-width:1px;stroke-linecap:butt;stroke-linejoin:miter;stroke-opacity:1"
     d="m 49.188472,99.621651 c 0,0 -1.66105,0.427039 -1.559635,2.399439 0.100129,1.94739 1.799578,2.57939 1.799578,2.57939 0,0 1.353185,-0.60411 2.579396,-1.6796 -1.353133,-1.3118 -2.819339,-3.299229 -2.819339,-3.299229 z"
     id="path1055"
     inkscape:connector-curvature="0"
     sodipodi:nodetypes="csccc" />
  <path
     style="fill:#ffffff;stroke:none;stroke-width:1px;stroke-linecap:butt;stroke-linejoin:miter;stroke-opacity:1"
     d="m 81.354781,107.5064 c 0,0 -2.071276,10.34699 10.179952,14.76093 7.797342,2.80927 13.233937,-2.71465 13.233937,-2.71465 l -0.38175,-9.16196 -10.137534,-8.82262 -8.313627,0.16966 z"
     id="path1063"
     inkscape:connector-curvature="0"
     sodipodi:nodetypes="csccccc" />
  <path
     style="fill:#8e6f60;stroke:none;stroke-width:1px;stroke-linecap:butt;stroke-linejoin:miter;stroke-opacity:1"
     d="m 81.269948,108.5244 c 0,0 3.073536,-7.23042 9.586121,-6.36247 12.353811,1.64644 13.912601,17.39075 13.912601,17.39075 l 1.61183,-7.55013 c 0,0 1.06421,-0.79456 1.69665,-2.20566 -1.59337,-1.51046 -3.73264,-1.78149 -3.73264,-1.78149 0,0 -3.16149,-6.99699 -10.264789,-8.652961 -2.154755,-0.502332 -5.174809,-4.156813 -5.174809,-4.156813 l -0.678664,2.884319 c 0,0 -3.087629,0.08808 -5.683806,1.357327 0,0 -3.262625,-1.165889 -4.835477,-3.223651 1.182198,4.576969 4.156814,6.956299 4.156814,6.956299 z"
     id="path1059"
     inkscape:connector-curvature="0"
     sodipodi:nodetypes="csccccscccccc" />
  <rect
     style="opacity:1;vector-effect:none;fill:#728dbe;fill-opacity:1;fill-rule:evenodd;stroke:none;stroke-width:8;stroke-linecap:round;stroke-miterlimit:4;stroke-dasharray:none;stroke-opacity:1;paint-order:stroke fill markers"
     id="rect1061"
     width="14.506433"
     height="19.341911"
     x="52.415318"
     y="123.59301"
     ry="9.6709557"
     rx="7.2532163"
     transform="rotate(-15.10833)" />
  <rect
     style="opacity:1;vector-effect:none;fill:#9abeff;fill-opacity:1;fill-rule:evenodd;stroke:none;stroke-width:7.03345108;stroke-linecap:round;stroke-miterlimit:4;stroke-dasharray:none;stroke-opacity:1;paint-order:stroke fill markers"
     id="rect1061-5"
     width="12.753785"
     height="17.005049"
     x="52.586159"
     y="125.76355"
     ry="8.5025244"
     rx="6.3768926"
     transform="rotate(-15.10833)" />
  <rect
     style="opacity:1;vector-effect:none;fill:#54688c;fill-opacity:1;fill-rule:evenodd;stroke:none;stroke-width:3.2903688;stroke-linecap:round;stroke-miterlimit:4;stroke-dasharray:none;stroke-opacity:1;paint-order:stroke fill markers"
     id="rect1061-3"
     width="5.6266956"
     height="8.4355955"
     x="62.373825"
     y="132.20592"
     ry="4.2177978"
     rx="2.8133478"
     transform="matrix(0.95535222,-0.29546935,0.22938564,0.97333562,0,0)" />
  <path
     style="fill:#ffffff;stroke:none;stroke-width:1px;stroke-linecap:butt;stroke-linejoin:miter;stroke-opacity:1"
     d="m 86.379755,112.27868 2.699367,3.53918 -3.239241,1.55963 c 0,0 -2.397391,-1.10922 -1.859564,-3.4192 0.349183,-1.49975 2.399438,-1.67961 2.399438,-1.67961 z"
     id="path1080"
     inkscape:connector-curvature="0"
     sodipodi:nodetypes="cccsc" />
  <rect
     style="opacity:1;vector-effect:none;fill:#ffffff;fill-opacity:1;fill-rule:evenodd;stroke:none;stroke-width:8;stroke-linecap:round;stroke-miterlimit:4;stroke-dasharray:none;stroke-opacity:1;paint-order:stroke fill markers"
     id="rect1097"
     width="2.3994377"
     height="5.0388188"
     x="102.1095"
     y="57.573906"
     ry="2.5194094"
     rx="1.1997188"
     transform="rotate(32.531272)" />
  <rect
     style="opacity:1;vector-effect:none;fill:#ffffff;fill-opacity:1;fill-rule:evenodd;stroke:none;stroke-width:8;stroke-linecap:round;stroke-miterlimit:4;stroke-dasharray:none;stroke-opacity:1;paint-order:stroke fill markers"
     id="rect1097-8"
     width="2.465601"
     height="6.7042074"
     x="152.16637"
     y="0.65856278"
     ry="3.3521037"
     rx="1.1360264"
     transform="rotate(49.527705)" />
</svg>
