<?xml version="1.0" encoding="UTF-8"?><svg id="uuid-7a6ce648-149c-427c-97d0-31a53b604d0d" xmlns="http://www.w3.org/2000/svg" width="192" height="192" viewBox="0 0 192 192"><g id="uuid-c365d482-0b49-4fc0-bbdb-aab48ec4284f"><g id="uuid-5ea78607-b2e2-4ca1-88bf-1ea22ab5f2c1"><rect x="20" y="20" width="152" height="152" rx="10" ry="10" fill="#96dfd3" stroke-width="0"/><path d="m132.5,96c0,10.39-8.42,18.81-18.81,18.81h-35.37c-10.39,0-18.81-8.42-18.81-18.81s8.42-18.81,18.81-18.81h35.37c10.39,0,18.81,8.42,18.81,18.81Zm-54.19-11.15c-6.16,0-11.15,4.99-11.15,11.15s4.99,11.15,11.15,11.15,11.15-4.99,11.15-11.15-4.99-11.15-11.15-11.15Zm35.37,0c-6.16,0-11.15,4.99-11.15,11.15s4.99,11.15,11.15,11.15,11.15-4.99,11.15-11.15-4.99-11.15-11.15-11.15Zm-35.37,5.82c-2.94,0-5.32,2.38-5.32,5.32s2.38,5.32,5.32,5.32,5.32-2.38,5.32-5.32-2.38-5.32-5.32-5.32Zm35.37,0c-2.94,0-5.32,2.38-5.32,5.32s2.38,5.32,5.32,5.32,5.32-2.38,5.32-5.32-2.38-5.32-5.32-5.32Z" fill="#54688c" stroke-width="0"/></g></g></svg>