<?xml version="1.0" encoding="UTF-8"?>
<svg version="1.1" viewBox="0 0 192 192" xml:space="preserve" xmlns="http://www.w3.org/2000/svg">
	 <circle class="a" cx="96" cy="96" r="88" fill="#54688c"/><path d="m143.38 67.288 0.35585-0.99538c-1.8128-1.5594-1.0306-3.6643-1.0306-3.6643l-5.4872-3.3118-0.54049 0.61939c-1.5073-0.8846-3.2698-2.1133-5.1548-3.8204-5.4553-4.9433-13.051-2.0327-18.118 7.7952-1.2472 2.4205-3.7751 7.1204-6.872 12.821l-1.8649-0.98867-2.9089 5.4788 1.8061 0.96013c-0.69324 1.2707-1.3982 2.5631-2.115 3.8758l-2.0529-1.0894-2.9089 5.4788 1.9824 1.0524c-0.82417 1.5057-1.65 3.0096-2.4675 4.5002l-2.1183-1.1246-2.9089 5.4788 2.0428 1.0844c-5.9253 10.781-10.78 19.575-10.78 19.575s-0.97356 2.3483-2.4356 1.6466c-1.4603-0.69995-2.2392-1.3177 0-4.1746 2.2409-2.8535 9.514-11.201 9.3831-28.221 0 0-0.2585-1.9773 3.8959-5.2707l-26.216 2.7461s3.3336 1.3009 5.3042 3.0734c2.3483 2.1116 5.326 9.7742-1.4284 19.107-6.7528 9.3344-6.2325 15.045 0.90978 19.436 7.1439 4.3944 17.274 4.7234 20.91-3.4024 3.6374-8.1275 28.312-64.02 28.312-64.02s1.9471-6.4792 9.7406-2.4154l4.3978 2.3248-0.61939 0.71003z" fill="#fff" stroke-width=".16786"/></svg>
