<?xml version="1.0" encoding="UTF-8" standalone="no"?>
<svg
   viewBox="0 0 192 192"
   version="1.1"
   id="svg3"
   xml:space="preserve"
   width="192"
   height="192"
   xmlns="http://www.w3.org/2000/svg"
   xmlns:svg="http://www.w3.org/2000/svg"><defs
     id="defs1"><style
       id="style1">.a{fill:none;stroke:#b1b5bd;stroke-linecap:round;stroke-linejoin:round;isolation:isolate;opacity:0.63;}</style><clipPath
       id="clip0_107_938"><rect
         width="120"
         height="28"
         fill="#ffffff"
         id="rect10"
         x="0"
         y="0" /></clipPath></defs><rect
     class="a"
     x="20"
     y="20"
     width="152"
     height="152"
     rx="10"
     id="rect1"
     style="opacity:1;fill:#ffffff;fill-opacity:1;stroke:none" /><g
     style="fill:#56595b;fill-opacity:1"
     id="g1"
     transform="matrix(2.7390107,0,0,2.7390107,57.749999,57.486259)"><g
       clip-path="url(#clip0_107_938)"
       id="g10"
       style="fill:#56595b;fill-opacity:1"><path
         fill-rule="evenodd"
         clip-rule="evenodd"
         d="m 4.78559,24.1212 c 0.18786,0.1779 0.38563,0.3457 0.59272,0.5006 0.21058,0.1573 0.43077,0.3024 0.65854,0.4334 0.13311,0.0769 0.26884,0.1489 0.40718,0.2159 0.21175,0.1034 0.2467,0.3905 0.06554,0.5417 -0.09175,0.0763 -0.18612,0.1494 -0.28223,0.2199 -0.1203,0.0877 -0.24379,0.171 -0.36962,0.2502 -0.13572,0.0854 -0.27436,0.1657 -0.41534,0.2426 -0.15203,0.0822 -0.30669,0.1602 -0.4631,0.2336 -0.17301,0.081 -0.34864,0.157 -0.52602,0.2284 -0.18932,0.0763 -0.38068,0.1471 -0.57379,0.2132 -0.20563,0.0705 -0.41272,0.136 -0.62126,0.1969 -0.4235,0.124 -0.85252,0.2286 -1.28447,0.3189 -0.24291,0.0507 -0.4867,0.0967 -0.73106,0.1381 0.02883,-0.2459 0.06203,-0.4917 0.0999,-0.7372 0.06728,-0.436 0.14971,-0.8697 0.25107,-1.2993 0.0498,-0.2112 0.10427,-0.4218 0.16398,-0.6309 0.05621,-0.1963 0.11708,-0.3912 0.1832,-0.5843 0.06204,-0.1809 0.12845,-0.36 0.20039,-0.5368 0.06553,-0.1602 0.13485,-0.3186 0.20913,-0.4747 0.06902,-0.1448 0.14242,-0.2878 0.22048,-0.4276 0.07282,-0.1299 0.14913,-0.2578 0.23068,-0.3821 0.06495,-0.1 0.1334,-0.1978 0.20476,-0.2934 0.14126,-0.189 0.43019,-0.1692 0.54437,0.037 0.07427,0.1343 0.1532,0.2665 0.23679,0.3956 0.14301,0.2205 0.29913,0.4325 0.46748,0.6346 0.16573,0.1987 0.34311,0.388 0.53068,0.5657 z"
         fill="#000000"
         id="path1"
         style="fill:#56595b;fill-opacity:1" /><path
         fill-rule="evenodd"
         clip-rule="evenodd"
         d="m 16.2239,24.2406 c -0.4285,-0.2204 -0.783,0.3959 -0.3775,0.656 1.3739,0.8799 2.7743,1.6636 4.2999,2.2642 1.2073,0.4754 3.3358,1.1482 4.7251,0.4961 0.8176,-0.3831 1.1526,-1.1208 1.2093,-1.9646 0.0536,-0.8036 -0.1374,-1.6404 -0.3812,-2.3881 -0.4858,-1.4892 -1.343,-3.034 -2.1865,-4.334 -0.2601,-0.401 -0.8723,-0.0591 -0.6673,0.3732 0.4541,0.9568 0.8738,2.0921 0.9763,3.1677 0.1052,1.0995 -0.1156,2.2914 -1.2411,2.8596 -1.853,0.9359 -4.8818,-0.3722 -6.357,-1.1301 z"
         fill="#000000"
         id="path2"
         style="fill:#56595b;fill-opacity:1" /><path
         fill-rule="evenodd"
         clip-rule="evenodd"
         d="M 4.0681,12.7053 C 4.31014,13.1216 3.71335,13.5081 3.43286,13.1166 2.48189,11.7905 1.62616,10.4326 0.946355,8.94108 0.408394,7.76001 -0.374518,5.6702 0.203346,4.24855 0.543831,3.41205 1.26296,3.03836 2.10237,2.93787 2.90218,2.84234 3.74771,2.98943 4.50703,3.19389 6.01985,3.60049 7.60723,4.37583 8.94936,5.1503 9.36354,5.38914 9.05393,6.01855 8.61208,5.83651 7.63286,5.43253 6.47684,5.07312 5.39713,5.0271 4.29412,4.97962 3.11538,5.26215 2.60684,6.41583 1.76888,8.31545 3.23422,11.2718 4.0681,12.7053 Z"
         fill="#000000"
         id="path3"
         style="fill:#56595b;fill-opacity:1" /><path
         fill-rule="evenodd"
         clip-rule="evenodd"
         d="m 22.4954,12.3407 c -0.1561,0.1392 -0.4016,0.0958 -0.5012,-0.088 C 20.59,9.66079 18.3994,7.58176 15.7376,6.31535 c -0.1894,-0.09 -0.2453,-0.33262 -0.1145,-0.49631 1.7385,-2.17573 4.9666,-2.39796 6.9871,-0.48087 2.0199,1.91708 1.9672,5.15243 -0.1148,7.00253 z m 4.0186,1.2154 c 0.1508,-0.2321 0.2915,-0.4715 0.4197,-0.7168 0.1319,-0.2516 0.2516,-0.5097 0.3582,-0.7724 0.109,-0.2691 0.2045,-0.5432 0.2858,-0.8211 0.0827,-0.2825 0.1517,-0.5691 0.2053,-0.8583 0.0548,-0.2924 0.0941,-0.58749 0.1182,-0.884 C 27.9254,9.20584 27.9345,8.90671 27.9275,8.60846 27.9213,8.30962 27.8992,8.01137 27.8616,7.71486 27.8244,7.4204 27.7719,7.12797 27.7049,6.83846 27.6379,6.55244 27.5567,6.26962 27.4614,5.99205 27.3677,5.71855 27.2596,5.45001 27.1387,5.18729 26.9051,4.67962 26.6211,4.19467 26.2929,3.74234 25.9839,3.31506 25.6346,2.91719 25.2525,2.5537 24.8698,2.19079 24.4542,1.86341 24.0111,1.57681 23.7796,1.42651 23.5408,1.28787 23.2955,1.16088 23.0444,1.0304 22.7864,0.912728 22.5237,0.807874 22.2554,0.700689 21.9811,0.607194 21.7032,0.52768 21.4212,0.447 21.1344,0.380592 20.8451,0.329039 20.553,0.276903 20.2579,0.240204 19.962,0.218359 19.6638,0.196515 19.3649,0.190107 19.0667,0.199136 18.7676,0.208165 18.4699,0.232631 18.1734,0.272534 17.8786,0.312146 17.5862,0.367194 17.297,0.436515 17.0112,0.505544 16.7281,0.588845 16.4506,0.686418 16.1774,0.782534 15.9088,0.892049 15.6458,1.01496 15.1376,1.25263 14.6523,1.53952 14.1994,1.87011 13.7715,2.18205 13.3722,2.53273 13.0078,2.91719 12.2511,3.71409 11.4944,4.51127 10.7383,5.30846 10.2822,5.78875 9.83717,6.27982 9.40522,6.78137 8.97474,7.28059 8.55707,7.79059 8.15396,8.31166 7.75726,8.82399 7.37542,9.34739 7.00989,9.88273 6.65513,10.4018 6.31668,10.9319 5.99775,11.4739 c -0.30524,0.5202 -0.59301,1.0503 -0.85748,1.5923 -0.1267,0.261 -0.24844,0.5243 -0.36437,0.7902 -0.11242,0.2587 -0.21873,0.5199 -0.31864,0.7838 -0.09699,0.2551 -0.18728,0.5132 -0.27058,0.7736 -0.08126,0.2522 -0.15524,0.5065 -0.22136,0.7628 -0.06437,0.2482 -0.12116,0.4981 -0.1698,0.7497 -0.0469,0.2435 -0.08651,0.4888 -0.1168,0.7352 -0.02942,0.2382 -0.05039,0.4776 -0.06204,0.7179 -0.01107,0.233 -0.0134,0.4663 -0.00582,0.6993 0.00757,0.2269 0.02446,0.4533 0.05242,0.6784 0.01573,0.1325 0.03583,0.2645 0.05942,0.3958 0.03874,0.2153 0.08738,0.4282 0.14709,0.6382 0.05796,0.2059 0.1267,0.4089 0.2065,0.6078 0.07748,0.1952 0.16602,0.386 0.26476,0.5718 0.09641,0.1826 0.2033,0.36 0.31981,0.5313 0.22747,0.3346 0.49106,0.6451 0.78524,0.9238 0.14592,0.1381 0.29854,0.2689 0.45845,0.3912 0.16194,0.1238 0.33058,0.2388 0.50475,0.3443 0.17709,0.1072 0.36,0.2044 0.54728,0.2918 0.19078,0.0886 0.38622,0.1666 0.58515,0.2342 0.20243,0.069 0.40864,0.127 0.61748,0.1745 0.2132,0.0486 0.42815,0.0862 0.64485,0.1133 0.13223,0.0171 0.26505,0.0297 0.39816,0.039 0.2266,0.0154 0.45349,0.0207 0.68009,0.0163 0.23329,-0.0044 0.46659,-0.0189 0.69869,-0.0422 0.2389,-0.0242 0.4771,-0.0574 0.7139,-0.0996 0.2444,-0.0429 0.487,-0.0953 0.7276,-0.155 0.2487,-0.0617 0.4952,-0.1316 0.7398,-0.2088 0.2522,-0.0795 0.5027,-0.1669 0.75,-0.2607 0.2557,-0.0967 0.5086,-0.2013 0.759,-0.3114 0.2578,-0.113 0.513,-0.2333 0.7655,-0.3591 0.2595,-0.1293 0.5161,-0.2645 0.7701,-0.4054 0.5275,-0.2922 1.0421,-0.607 1.5454,-0.9394 0.5246,-0.3468 1.036,-0.7127 1.5361,-1.0939 0.5156,-0.3929 1.0177,-0.8019 1.5091,-1.2242 0.4992,-0.4302 0.9868,-0.8738 1.4624,-1.3299 0.4782,-0.4582 0.9451,-0.9277 1.4015,-1.4086 0.7564,-0.7971 1.5126,-1.594 2.2696,-2.3915 0.3643,-0.3839 0.6937,-0.8013 0.983,-1.2446 z"
         fill="#000000"
         id="path4"
         style="fill:#56595b;fill-opacity:1" /></g></g></svg>
