<?xml version="1.0" encoding="UTF-8" standalone="no"?>
<svg
   xmlns:dc="http://purl.org/dc/elements/1.1/"
   xmlns:cc="http://creativecommons.org/ns#"
   xmlns:rdf="http://www.w3.org/1999/02/22-rdf-syntax-ns#"
   xmlns:svg="http://www.w3.org/2000/svg"
   xmlns="http://www.w3.org/2000/svg"
   xmlns:sodipodi="http://sodipodi.sourceforge.net/DTD/sodipodi-0.dtd"
   xmlns:inkscape="http://www.inkscape.org/namespaces/inkscape"
   viewBox="0 0 192 192"
   version="1.1"
   id="svg16"
   sodipodi:docname="supertux-classic.svg"
   inkscape:version="0.92.4 (5da689c313, 2019-01-14)">
  <metadata
     id="metadata20">
    <rdf:RDF>
      <cc:Work
         rdf:about="">
        <dc:format>image/svg+xml</dc:format>
        <dc:type
           rdf:resource="http://purl.org/dc/dcmitype/StillImage" />
        <dc:title></dc:title>
      </cc:Work>
    </rdf:RDF>
  </metadata>
  <sodipodi:namedview
     pagecolor="#ffffff"
     bordercolor="#666666"
     borderopacity="1"
     objecttolerance="10"
     gridtolerance="10"
     guidetolerance="10"
     inkscape:pageopacity="0"
     inkscape:pageshadow="2"
     inkscape:window-width="1920"
     inkscape:window-height="1017"
     id="namedview18"
     showgrid="true"
     inkscape:zoom="5.8939376"
     inkscape:cx="87.569974"
     inkscape:cy="107.40513"
     inkscape:window-x="-8"
     inkscape:window-y="-8"
     inkscape:window-maximized="1"
     inkscape:current-layer="svg16"
     inkscape:snap-global="false">
    <inkscape:grid
       type="xygrid"
       id="grid827"
       spacingx="4"
       spacingy="4" />
  </sodipodi:namedview>
  <defs
     id="defs4">
    <style
       id="style2">.a{fill:none;stroke:#b1b5bd;stroke-linecap:round;stroke-linejoin:round;isolation:isolate;opacity:0.63;}</style>
  </defs>
  <path
     style="fill:#73ada4;stroke:#96dfd3;stroke-width:12;stroke-linecap:round;stroke-linejoin:round;stroke-miterlimit:4;stroke-dasharray:none;stroke-opacity:1"
     d="M 14,96 96,178 178,96 96,14 Z"
     id="path829"
     inkscape:connector-curvature="0"
     sodipodi:nodetypes="ccccc" />
  <path
     style="fill:#56595b;stroke:#56595b;stroke-width:12;stroke-linecap:round;stroke-linejoin:round;stroke-miterlimit:4;stroke-dasharray:none;stroke-opacity:1"
     d="m 62.03599,121.86632 -16,20 h 24 z"
     id="path833"
     inkscape:connector-curvature="0" />
  <path
     style="fill:none;stroke:#f9de81;stroke-width:12;stroke-linecap:round;stroke-linejoin:round;stroke-miterlimit:4;stroke-dasharray:none;stroke-opacity:1"
     d="m 149.83981,114.12337 -28.84319,32.23651 h -10.85863"
     id="path835-9"
     inkscape:connector-curvature="0"
     sodipodi:nodetypes="ccc" />
  <path
     style="fill:#56595b;stroke:none;stroke-width:1px;stroke-linecap:butt;stroke-linejoin:miter;stroke-opacity:1"
     d="m 96,40 c 28,0 28,28 28,28 v 76 c 0,0 -12,8 -32,8 C 64,152 48,128.7418 48,108 48,80 60.138044,78.969436 64,67.686373 68,56 68,40 96,40 Z"
     id="path831"
     inkscape:connector-curvature="0"
     sodipodi:nodetypes="sccssss" />
  <path
     style="fill:none;stroke:#f9de81;stroke-width:12;stroke-linecap:round;stroke-linejoin:round;stroke-opacity:1;stroke-miterlimit:4;stroke-dasharray:none"
     d="m 45.809783,121.58867 24.771216,24.77121 h 16.287922"
     id="path835"
     inkscape:connector-curvature="0" />
  <path
     style="fill:#ffffff;stroke:none;stroke-width:1px;stroke-linecap:butt;stroke-linejoin:miter;stroke-opacity:1"
     d="m 92,120 c 0,-9.76222 13.82666,-32.072311 28,-32 12.29257,0.06272 24,12 24,28 0,10.10968 -10.70021,31.05481 -24,32 -13.16612,0.93569 -28,-8 -28,-28 z"
     id="path852"
     inkscape:connector-curvature="0"
     sodipodi:nodetypes="sssss" />
  <path
     style="fill:#f9de81;stroke:none;stroke-width:1px;stroke-linecap:butt;stroke-linejoin:miter;stroke-opacity:1"
     d="m 124,68 c -4.8074,0 -12,0 -12,8 0,8 7.1926,8 12,8 12,0 28,-8 28,-8 0,0 -16,-8 -28,-8 z"
     id="path854"
     inkscape:connector-curvature="0"
     sodipodi:nodetypes="ssscs" />
  <rect
     style="opacity:1;vector-effect:none;fill:#ffffff;fill-opacity:1;fill-rule:evenodd;stroke:none;stroke-width:12;stroke-linecap:round;stroke-linejoin:round;stroke-miterlimit:4;stroke-dasharray:none;stroke-opacity:1;paint-order:stroke fill markers"
     id="rect856"
     width="20"
     height="20"
     x="96"
     y="52"
     ry="10" />
  <rect
     style="opacity:1;vector-effect:none;fill:#56595b;fill-opacity:1;fill-rule:evenodd;stroke:none;stroke-width:12.00000381;stroke-linecap:round;stroke-linejoin:round;stroke-miterlimit:4;stroke-dasharray:none;stroke-opacity:1;paint-order:stroke fill markers"
     id="rect858"
     width="12.000004"
     height="12.000003"
     x="104"
     y="56"
     ry="6.0000014" />
  <rect
     style="opacity:1;vector-effect:none;fill:#ffffff;fill-opacity:1;fill-rule:evenodd;stroke:none;stroke-width:11.99999142;stroke-linecap:round;stroke-linejoin:round;stroke-miterlimit:4;stroke-dasharray:none;stroke-opacity:1;paint-order:stroke fill markers"
     id="rect860"
     width="3.9999943"
     height="4.000001"
     x="104"
     y="56"
     ry="2.0000005" />
  <rect
     style="opacity:1;vector-effect:none;fill:#f8c18c;fill-opacity:1;fill-rule:evenodd;stroke:none;stroke-width:12;stroke-linecap:round;stroke-linejoin:round;stroke-miterlimit:4;stroke-dasharray:none;stroke-opacity:1;paint-order:stroke fill markers"
     id="rect862"
     width="4"
     height="4"
     x="116"
     y="72"
     ry="2" />
  <path
     style="fill:#83868c;stroke:none;stroke-width:1px;stroke-linecap:butt;stroke-linejoin:miter;stroke-opacity:1"
     d="m 95.52188,55.588647 c 0,0 3.078815,-6.918809 8.99229,-7.465298 4.87703,-0.450707 8.48329,3.393317 8.48329,3.393317 0,0 -4.2987,-1.587131 -8.48329,-1.187661 -4.789521,0.457219 -8.99229,5.259642 -8.99229,5.259642 z"
     id="path864"
     inkscape:connector-curvature="0"
     sodipodi:nodetypes="cscsc" />
  <path
     style="fill:#56595b;stroke:none;stroke-width:1px;stroke-linecap:butt;stroke-linejoin:miter;stroke-opacity:1"
     d="m 77.197967,89.012822 c 0,0 2.695616,4.805967 5.089976,5.598973 6.338849,2.099411 13.347866,3.835201 17.305918,8.992295 8.942479,11.65149 17.475579,13.74293 17.475579,13.74293 0,0 -5.28184,8.5952 -25.789206,7.80463 -15.280495,-0.58907 -19.341908,-12.72494 -19.341908,-12.72494 z"
     id="path866"
     inkscape:connector-curvature="0"
     sodipodi:nodetypes="csscscc" />
</svg>
