<?xml version="1.0" encoding="UTF-8"?><svg id="a" xmlns="http://www.w3.org/2000/svg" width="192" height="192" viewBox="0 0 192 192"><g id="b"><g id="c"><path d="m173.67,95.97c0-17.26-15.21-32.35-37.91-40.59-8.4-20.84-23.06-34.66-39.75-34.66s-31.36,13.82-39.75,34.66c-22.7,8.25-37.91,23.34-37.91,40.59s15.21,32.35,37.91,40.59c8.4,20.84,23.06,34.66,39.75,34.66s31.36-13.82,39.75-34.66c22.7-8.25,37.91-23.34,37.91-40.59Z" style="fill:#fff;"/><path d="m184,95.22c-.2-11.33-4.69-21.95-12.72-29.94-.2-.2-.36-.36-.48-.44-7.12-6.88-16.34-11.13-26.17-12.09-2.51-11.49-8.91-21.67-18.13-28.83-8.87-6.88-19.45-10.5-30.58-10.5-15.55,0-29.86,7.04-39.33,19.33-4.57,5.92-7.79,12.8-9.38,20.04-9.78.95-18.97,5.21-25.97,12.01-.16.16-.36.32-.52.48-7.95,7.99-12.49,18.57-12.69,29.78-.04.32-.04.6-.04.91s0,.6.04.84c.2,10.94,4.49,21.35,12.05,29.19.2.24.44.48.64.72,7.16,7.16,16.54,11.57,26.56,12.49,2.47,11.57,8.91,21.79,18.25,28.95,8.79,6.8,19.29,10.42,30.38,10.42,15.55,0,29.9-7.08,39.41-19.41,4.53-5.85,7.75-12.72,9.31-19.92,10.06-.91,19.48-5.33,26.64-12.49.2-.2.44-.44.56-.6,7.63-7.91,11.93-18.29,12.13-29.19,0-.32.04-.6.04-.91,0-.4,0-.72,0-.84Zm-21.51,22.03c-5.09,5.09-11.97,8.35-19.64,8.75-.28-3.22-.8-6.96-1.99-10.58h.48c5.69,0,10.06-1.83,13.6-5.25h0c3.5-4.53,5.69-9.11,5.69-14.79,0-4.53-2.27-9.66-5.65-13.2h0c-3.38-3.5-8.31-5.65-13.64-5.69h0c-5.69,0-10.3,2.19-13.84,5.73h-.08c-.4.4-.76.8-1.11,1.19l4.81,3.66-21.04,7.08,1.55-22.19,5.49,4.41c7.04-10.82,4.69-25.49-5.69-33.6-11.05-8.59-27-6.56-35.59,4.49-8.47,11.21-6.56,26.96,4.45,35.55,3.98,2.7,8.27,4.77,12.72,6.56,9.31,3.7,18.97,5.21,26.68,12.09,14.59,12.57,17.06,34.48,5.01,49.98-12.29,15.95-35.23,19.05-51.3,6.6-10.62-8.11-15.59-20.92-14.08-33.32-2.78.87-5.65,1.31-9.07,1.31v.08h.48-.48v-.08c-7.95,0-15.59-3.5-21.04-8.95h0c-5.45-5.45-8.59-12.61-8.59-21.71,0-7.95,3.34-15.55,8.75-21h0c5.01-4.97,11.65-7.95,19.13-8.43.28,3.1.76,6.64,1.87,10.1h.32-.32c.04.16.08.28.12.44h-.32c-4.53,0-10.22,2.19-13.64,5.69h0c-3.42,3.54-5.33,8.63-5.33,13.2,0,5.69,2.19,10.22,5.69,14.79h.04c3.54,3.42,8.71,5.21,13.28,5.25,5.69,0,10.7-2.15,14.24-5.69h0c.36-.36.76-.76,1.11-1.15l-4.93-3.86,20.96-6.84-1.39,22.11-5.77-4.49c-6.96,10.98-4.61,25.65,5.96,33.68,10.98,8.43,26.88,6.4,35.47-4.65,8.43-10.98,6.4-26.88-4.65-35.47-1.11-.84-2.39-1.59-3.66-2.31h0c-10.98-5.69-24.02-7.44-34.12-14.87-16.07-12.45-18.97-35.43-6.52-51.5,12.29-15.95,35.31-18.89,51.38-6.44,10.5,8.15,15.43,20.92,13.96,33.28,2.82-.87,5.53-1.35,8.95-1.35v-.04.04c7.95,0,15.75,3.22,21.19,8.67l-.08-.16c5.45,5.45,8.79,13.04,8.79,21,0,9.11-3.22,16.42-8.63,21.87h0Z" style="fill:#9abeff;"/></g></g></svg>