<?xml version="1.0" encoding="UTF-8"?>
<svg version="1.1" viewBox="0 0 192 192" xml:space="preserve" xmlns="http://www.w3.org/2000/svg">
	 <path d="m94.601 18.149a77.851 77.851 0 0 0-77.851 77.851 77.851 77.851 0 0 0 15.846 46.75l-0.82642-0.78174s-3.94 19.652-2.4844 21.107c2.2908 2.2908 22.928-1.7748 22.928-1.7748l-0.15292-0.14432a77.851 77.851 0 0 0 42.541 12.695 77.851 77.851 0 0 0 77.851-77.851 77.851 77.851 0 0 0-77.851-77.851z" fill="#73ada4" stroke-linecap="round" stroke-linejoin="round" stroke-width="3.5187"/><path d="m94.601 30.601a65.399 65.399 0 0 0-65.399 65.399 65.399 65.399 0 0 0 13.312 39.272l-0.69422-0.6567s-3.3098 16.508-2.087 17.731c1.9244 1.9244 19.261-1.4909 19.261-1.4909l-0.12846-0.12123a65.399 65.399 0 0 0 35.736 10.665 65.399 65.399 0 0 0 65.399-65.399 65.399 65.399 0 0 0-65.399-65.399z" fill="#98dc9a" stroke-linecap="round" stroke-linejoin="round" stroke-width="2.9559"/><text transform="skewX(-6.6187)" x="88.238129" y="120.76767" fill="#ffffff" font-family="Now" font-size="66.047px" font-weight="bold" stroke-linecap="round" stroke-linejoin="round" stroke-width="14.153" xml:space="preserve"><tspan x="88.238129" y="120.76767" stroke-width="14.153">T</tspan></text></svg>
