<?xml version="1.0" encoding="UTF-8"?>
<svg version="1.1" viewBox="0 0 192 192" xml:space="preserve" xmlns="http://www.w3.org/2000/svg">
	 <g transform="translate(1.2059e-5 .002)"><rect x="32" y="8" width="128" height="176" rx="10.079" fill="#ff837d"/><path d="m134.4 96c0 14.636-11.864 26.5-26.5 26.5s-26.5-11.864-26.5-26.5 11.864-26.5 26.5-26.5 26.5 11.864 26.5 26.5z" fill="#56595b" stroke="#ba6561" stroke-width="5"/><g fill="#fff"><path transform="matrix(1.1523,0,0,1.1523,-718.85,-1022.4)" d="m711.51 962.98h-4.424l0.03 1.745 0.029 2.137 0.653-0.069c1.482-0.136 10.323-0.175 14.682-0.068 2.497 0.068 4.755 0.137 4.981 0.156 0.368 0.04 0.425-0.586 0.425-2.126v-1.775l-4.314 0.04zm9.32 6.36c-1.014 4.066-3.422 10.032-3.832 10.705l-0.185 0.302-1.687 0.03c-1.95 0.029-7.76-0.088-8.052-0.156-0.185-0.05-0.195 0.265-0.195 2.02v1.814l0.488-0.059c0.273-0.03 3.907-0.088 9.485-0.117l11.235-0.068v-3.698l-0.829 0.069c-0.458 0.029-2.995 0.068-4.302 0.068-1.862 0.01-2.36-0.02-2.32-0.117 0.029-0.059 0.214-0.488 0.409-0.946 0.634-1.482 4.076-10.334 3.959-10.441-0.04-0.04-3.18-0.917-3.56-1.005-0.195-0.039-0.234 0.069-0.614 1.6z"/><path transform="matrix(1.1523,0,0,1.1523,-718.85,-1022.4)" d="m713 967.73-3.527 1.263c1.407 2.807 2.603 6.306 3.57 10.451l3.577-1.008c-0.884-3.877-2.1-7.423-3.62-10.705z"/></g><path d="m42.078 8a10.056 10.056 0 0 0-10.078 10.078v155.84a10.056 10.056 0 0 0 10.078 10.078h13.922v-176h-13.922z" fill="#56595b" style="paint-order:stroke fill markers"/><path d="m108.01 79.213a1.05 1.05 0 0 0-1.049 1.049 1.05 1.05 0 0 0 0.608 0.951l-1.868 2.773-2.54-1.384a1.05 1.05 0 0 0 0.128-0.504 1.05 1.05 0 0 0-1.05-1.05 1.05 1.05 0 0 0-1.05 1.05 1.05 1.05 0 0 0 1.05 1.048 1.05 1.05 0 0 0 0.486-0.119l1.271 2.428v1.941l4 0.604 4-0.604v-1.941l1.272-2.428a1.05 1.05 0 0 0 0.486 0.12 1.05 1.05 0 0 0 1.049-1.05 1.05 1.05 0 0 0-1.049-1.048 1.05 1.05 0 0 0-1.05 1.049 1.05 1.05 0 0 0 0.128 0.504l-2.54 1.384-1.86-2.763a1.05 1.05 0 0 0 0.627-0.961 1.05 1.05 0 0 0-1.049-1.05z" fill="#fff"/></g></svg>
