<?xml version="1.0" encoding="UTF-8" standalone="no"?>
<!-- Created with Inkscape (http://www.inkscape.org/) -->

<svg
   width="192"
   height="192"
   viewBox="0 0 192 192"
   version="1.1"
   id="svg1"
   xml:space="preserve"
   inkscape:version="1.3.2 (091e20e, 2023-11-25, custom)"
   sodipodi:docname="tado.svg"
   inkscape:export-filename="tado.png"
   inkscape:export-xdpi="96"
   inkscape:export-ydpi="96"
   xmlns:inkscape="http://www.inkscape.org/namespaces/inkscape"
   xmlns:sodipodi="http://sodipodi.sourceforge.net/DTD/sodipodi-0.dtd"
   xmlns="http://www.w3.org/2000/svg"
   xmlns:svg="http://www.w3.org/2000/svg"><sodipodi:namedview
     id="namedview1"
     pagecolor="#ffffff"
     bordercolor="#999999"
     borderopacity="1"
     inkscape:showpageshadow="2"
     inkscape:pageopacity="0"
     inkscape:pagecheckerboard="true"
     inkscape:deskcolor="#d1d1d1"
     inkscape:document-units="px"
     showgrid="true"
     inkscape:zoom="2.8284272"
     inkscape:cx="104.47502"
     inkscape:cy="92.454209"
     inkscape:window-width="2287"
     inkscape:window-height="1370"
     inkscape:window-x="1137"
     inkscape:window-y="0"
     inkscape:window-maximized="0"
     inkscape:current-layer="svg1"
     showguides="true"
     guidecolor="#45577e"
     guideopacity="0.63921569"><inkscape:grid
       id="grid1"
       units="px"
       originx="0"
       originy="0"
       spacingx="8"
       spacingy="8"
       empcolor="#0099e5"
       empopacity="0.4"
       color="#0099e5"
       opacity="0.25098039"
       empspacing="8"
       dotted="true"
       gridanglex="30"
       gridanglez="30"
       visible="true" /><sodipodi:guide
       position="56,136"
       orientation="0,-1"
       id="guide1"
       inkscape:locked="false" /><sodipodi:guide
       position="56,121.99643"
       orientation="1,0"
       id="guide2"
       inkscape:locked="false" /><sodipodi:guide
       position="36.874999,56"
       orientation="0,-1"
       id="guide3"
       inkscape:locked="false" /><sodipodi:guide
       position="136,80"
       orientation="1,0"
       id="guide4"
       inkscape:locked="false" /><sodipodi:guide
       position="80.610171,132.50024"
       orientation="0,-1"
       id="guide5"
       inkscape:locked="false" /><sodipodi:guide
       position="67.04256,59.499996"
       orientation="0,-1"
       id="guide6"
       inkscape:locked="false" /><sodipodi:guide
       position="59.499999,75.039065"
       orientation="1,0"
       id="guide7"
       inkscape:locked="false" /><sodipodi:guide
       position="132.49965,59.99753"
       orientation="1,0"
       id="guide8"
       inkscape:locked="false" /></sodipodi:namedview><defs
     id="defs1" /><g
     id="g5"
     inkscape:label="logo"
     transform="matrix(0.71588718,0,0,0.71599046,28.97765,25.897374)"
     style="display:inline;opacity:1;mix-blend-mode:normal;stroke-width:1.39677"><text
       xml:space="preserve"
       style="font-style:normal;font-variant:normal;font-weight:normal;font-stretch:normal;font-size:123.129px;font-family:Now;-inkscape-font-specification:Now;opacity:1;fill:#f9de81;fill-opacity:1;fill-rule:evenodd;stroke:#56595b;stroke-width:6.98384;stroke-linecap:round;stroke-linejoin:round;stroke-miterlimit:1;stroke-dasharray:none;stroke-opacity:1;paint-order:markers fill stroke"
       x="70.086807"
       y="139.73103"
       id="text4"
       transform="scale(0.99826956,1.0017334)"><tspan
         sodipodi:role="line"
         id="tspan4"
         x="70.086807"
         y="139.73103"
         style="font-style:normal;font-variant:normal;font-weight:500;font-stretch:normal;font-size:123.129px;font-family:Now;-inkscape-font-specification:'Now Medium';fill:#f9de81;stroke:#56595b;stroke-width:6.98384;stroke-dasharray:none;stroke-opacity:1">S</tspan></text><circle
       style="opacity:1;fill:none;fill-rule:evenodd;stroke:#ffffff;stroke-width:6.98384;stroke-linecap:round;stroke-linejoin:round;stroke-miterlimit:1;stroke-dasharray:none;stroke-opacity:1;paint-order:markers fill stroke"
       id="circle4"
       cx="157.5116"
       cy="130.21707"
       r="10.658487" /><rect
       style="fill:#f9de81;fill-opacity:1;fill-rule:evenodd;stroke-width:1.95096;stroke-linecap:round;stroke-linejoin:round;stroke-miterlimit:1;paint-order:markers fill stroke"
       id="rect1-0"
       width="212.32394"
       height="212.29333"
       x="-12.540586"
       y="-8.2366676"
       rx="16.762417"
       ry="16.76" /><path
       style="font-size:67.0448px;font-family:Aleo;-inkscape-font-specification:Aleo;fill:#ffffff;fill-rule:evenodd;stroke-width:1.95096;stroke-linecap:round;stroke-linejoin:round;stroke-miterlimit:1;paint-order:markers fill stroke"
       d="m 40.2208,153.36314 c 1.54203,0 3.050538,-0.26818 4.525524,-0.80454 1.441463,-0.53636 2.681792,-1.30737 3.720986,-2.27952 l -1.743165,-2.8494 c -0.268179,-0.36875 -0.536358,-0.56988 -0.83806,-0.56988 -0.201134,0 -0.402268,0.10056 -0.636925,0.26817 -0.234657,0.16762 -0.502836,0.33523 -0.83806,0.53636 -0.335224,0.20114 -0.737493,0.40227 -1.206807,0.56988 -0.469313,0.16762 -1.005672,0.23466 -1.609075,0.23466 -1.106239,0 -2.011344,-0.33522 -2.681792,-1.03919 -0.70397,-0.67045 -1.039194,-1.74317 -1.039194,-3.18463 v -20.38162 h 9.721496 v -4.32439 h -9.721496 v -11.69932 h -3.017016 c -0.402269,0 -0.70397,0.13409 -0.938627,0.33523 -0.268179,0.20113 -0.402269,0.46931 -0.435791,0.80453 l -1.374419,10.49251 -5.564718,0.70397 v 2.3801 c 0,0.46931 0.100567,0.80453 0.368746,1.00567 0.234657,0.20113 0.536359,0.3017 0.905105,0.3017 h 4.089733 v 20.78389 c 0,2.81588 0.70397,4.99483 2.145433,6.46982 1.441464,1.50851 3.48633,2.246 6.168122,2.246 z m 41.433744,-4.72666 c -0.435791,-0.067 -2.38009,-0.46931 -3.318717,-0.63692 v -16.96234 c 0,-1.87725 -0.26818,-3.62042 -0.771016,-5.19597 -0.502836,-1.60907 -1.273851,-2.94997 -2.279523,-4.05621 -1.005672,-1.13976 -2.246001,-2.01134 -3.720986,-2.61475 -1.474986,-0.63692 -3.151106,-0.97215 -5.061883,-0.97215 -2.614747,0 -5.02836,0.46932 -7.207316,1.37442 -2.178956,0.87158 -4.1903,2.21248 -6.067554,4.05621 l 1.072717,1.87726 c 0.201134,0.33522 0.435791,0.6034 0.737493,0.80453 0.301701,0.20114 0.636925,0.33523 1.039194,0.33523 0.502836,0 1.039194,-0.20114 1.575553,-0.56988 0.502836,-0.36875 1.139761,-0.77102 1.877254,-1.24033 0.703971,-0.46932 1.575553,-0.87158 2.581225,-1.24033 0.97215,-0.36875 2.212478,-0.56988 3.653942,-0.56988 2.212478,0 3.888598,0.70397 5.02836,2.04487 1.106239,1.37441 1.67612,3.38576 1.67612,6.03403 v 2.64827 c -3.821554,0 -7.073227,0.33522 -9.755019,0.93862 -2.648269,0.63693 -4.793703,1.40794 -6.436301,2.38009 -1.642597,0.97215 -2.849404,2.07839 -3.586896,3.31872 -0.737493,1.24033 -1.10624,2.51418 -1.10624,3.8886 0,1.54203 0.26818,2.88293 0.771016,3.98917 0.502836,1.13976 1.173284,2.07838 2.011344,2.81588 0.871582,0.73749 1.843732,1.30737 3.017016,1.67612 1.139761,0.36874 2.38009,0.56988 3.687464,0.56988 1.307373,0 2.480657,-0.13409 3.553374,-0.36875 1.039194,-0.20113 2.044866,-0.53636 2.983494,-0.97215 0.938627,-0.43579 1.843732,-0.97215 2.681792,-1.60907 0.83806,-0.63693 1.709642,-1.37442 2.614747,-2.17896 l 0.670448,3.15111 c 0.100567,0.6034 0.335224,0.97215 0.70397,1.13976 0.368747,0.20113 0.83806,0.26818 1.407941,0.26818 h 2.145434 0.502836 4.324389 v -2.88293 c 0,-0.6034 -0.402269,-1.10624 -1.005672,-1.24033 z m -9.185137,-4.05621 c -0.670448,0.70397 -1.340896,1.3409 -2.044867,1.91078 -0.70397,0.53636 -1.441463,1.00567 -2.212478,1.40794 -0.771015,0.40227 -1.609075,0.70397 -2.480658,0.9051 -0.871582,0.20114 -1.843732,0.33523 -2.882926,0.33523 -0.771015,0 -1.508508,-0.10057 -2.178956,-0.3017 -0.670448,-0.20114 -1.240329,-0.50284 -1.743165,-0.90511 -0.502836,-0.43579 -0.871582,-0.97215 -1.173284,-1.60907 -0.301702,-0.63693 -0.435791,-1.44147 -0.435791,-2.31305 0,-0.97215 0.268179,-1.81021 0.83806,-2.58122 0.536358,-0.77102 1.407941,-1.40794 2.614747,-1.97783 1.206806,-0.56988 2.782359,-1.00567 4.693136,-1.37441 1.910777,-0.33523 4.257345,-0.50284 7.006182,-0.50284 z m 28.192353,-26.31508 c -4.492003,0 -8.078899,1.70964 -10.760691,5.0954 -2.614747,3.2852 -3.922121,7.4755 -3.922121,12.60443 0,5.59824 1.139762,9.8891 3.486329,12.90612 2.246001,2.94997 5.363584,4.42496 9.35275,4.42496 4.391433,0 8.179463,-1.9443 11.397613,-5.8329 l 0.53636,4.12325 c 0.20114,0.83806 0.73749,1.24033 1.60908,1.24033 h 8.3806 v -2.88292 c 0,-0.67045 -0.33523,-1.10624 -1.00568,-1.24033 -0.40226,-0.067 -1.67612,-0.33523 -3.82155,-0.77102 v -44.48422 h -11.46466 v 2.88292 c 0,0.70397 0.33522,1.13977 1.03919,1.27385 0.67045,0.13409 2.17896,0.40227 4.45848,0.7375 v 13.94532 c -2.44713,-2.6818 -5.53119,-4.02269 -9.2857,-4.02269 z m 0.13409,30.20368 c -1.407942,0 -2.614749,-0.23466 -3.687465,-0.70397 -3.318718,-1.44146 -4.961316,-5.36358 -4.961316,-11.79988 0,-4.15678 0.83806,-7.37493 2.547703,-9.65446 1.67612,-2.246 4.156777,-3.38576 7.408448,-3.38576 3.25168,0 5.86642,1.3409 7.81072,3.98917 v 16.42597 c -2.5477,3.41929 -5.59824,5.12893 -9.11809,5.12893 z m 39.22126,-30.13664 c -2.48065,0 -4.72665,0.43579 -6.738,1.24033 -2.01134,0.83806 -3.68746,2.01135 -5.0954,3.51985 -1.40794,1.54203 -2.51418,3.38577 -3.25168,5.5312 -0.77101,2.14543 -1.13976,4.55905 -1.13976,7.20732 0,2.68179 0.36875,5.0954 1.13976,7.24083 0.7375,2.14544 1.84374,3.98917 3.25168,5.49768 1.40794,1.54203 3.08406,2.71531 5.0954,3.51985 2.01135,0.80454 4.25735,1.20681 6.738,1.20681 2.48066,0 4.69314,-0.40227 6.70448,-1.20681 2.01135,-0.80454 3.68747,-1.97782 5.09541,-3.51985 1.40794,-1.50851 2.48066,-3.35224 3.21815,-5.49768 0.73749,-2.14543 1.13976,-4.55904 1.13976,-7.24083 0,-2.64827 -0.40227,-5.06189 -1.13976,-7.20732 -0.73749,-2.14543 -1.81021,-3.98917 -3.21815,-5.5312 -1.40794,-1.5085 -3.08406,-2.68179 -5.09541,-3.51985 -2.01134,-0.80454 -4.22382,-1.24033 -6.70448,-1.24033 z m 0,30.30425 c -1.70964,0 -3.18462,-0.26818 -4.42495,-0.87158 -1.27385,-0.56988 -2.31305,-1.40794 -3.15111,-2.48066 -0.83806,-1.07271 -1.47498,-2.41361 -1.87725,-4.02269 -0.40227,-1.57555 -0.60341,-3.38576 -0.60341,-5.3971 0,-2.01135 0.20114,-3.78803 0.60341,-5.39711 0.40227,-1.60907 1.03919,-2.94997 1.87725,-4.05621 0.83806,-1.07272 1.87726,-1.91078 3.15111,-2.51418 1.24033,-0.56988 2.71531,-0.83806 4.42495,-0.87158 3.35224,0 5.8329,1.13976 7.50902,3.38576 1.6426,2.27952 2.48066,5.43063 2.48066,9.45332 0,4.02269 -0.83806,7.17379 -2.48066,9.41979 -1.67612,2.246 -4.15678,3.35224 -7.50902,3.35224 z m 27.35431,-44.38366 c -1.60908,0 -3.01702,0.26818 -4.29087,0.7375 -1.27385,0.46931 -2.38009,1.17328 -3.28519,2.07839 -0.90511,0.87158 -1.60908,1.97782 -2.07839,3.25167 -0.50284,1.27385 -0.73749,2.71531 -0.73749,4.32439 0,1.60907 0.23465,3.05054 0.73749,4.35791 0.46931,1.27385 1.17328,2.38009 2.07839,3.2852 0.9051,0.9051 2.01134,1.60907 3.28519,2.07838 1.27385,0.46932 2.68179,0.70398 4.29087,0.70398 1.54203,0.0335 2.94997,-0.23466 4.22382,-0.70398 1.27385,-0.46931 2.34657,-1.17328 3.25168,-2.07838 0.87158,-0.90511 1.57555,-2.01135 2.07838,-3.31872 0.46932,-1.27385 0.7375,-2.74884 0.7375,-4.35791 0,-1.57556 -0.26818,-3.01702 -0.7375,-4.29087 -0.50283,-1.27385 -1.2068,-2.38009 -2.07838,-3.2852 -0.90511,-0.87158 -1.97783,-1.57555 -3.25168,-2.04486 -1.27385,-0.46932 -2.68179,-0.7375 -4.22382,-0.7375 z m 0,17.26404 c -1.9443,0 -3.38576,-0.56988 -4.32439,-1.74316 -0.93863,-1.17329 -1.37442,-2.88293 -1.37442,-5.12893 0,-2.21248 0.43579,-3.92212 1.37442,-5.09541 0.93863,-1.13976 2.38009,-1.70964 4.32439,-1.74316 1.87725,0 3.25167,0.6034 4.1903,1.74316 0.93863,1.17329 1.40794,2.88293 1.40794,5.12893 0,2.21248 -0.46931,3.92212 -1.40794,5.09541 -0.93863,1.17328 -2.31305,1.74316 -4.1903,1.74316 z"
       id="text1"
       transform="scale(1.0000721,0.99992791)"
       aria-label="tadoº" /><text
       xml:space="preserve"
       style="font-weight:500;font-size:67.0448px;font-family:Now;-inkscape-font-specification:'Now Medium';display:none;fill:#ffffff;fill-opacity:1;fill-rule:evenodd;stroke-width:1.95096;stroke-linecap:round;stroke-linejoin:round;stroke-miterlimit:1;paint-order:markers fill stroke"
       x="25.705601"
       y="152.82678"
       id="text2"
       transform="scale(1.0000721,0.99992791)"><tspan
         sodipodi:role="line"
         id="tspan2"
         x="25.705601"
         y="152.82678"
         style="font-style:normal;font-variant:normal;font-weight:normal;font-stretch:normal;font-size:67.0448px;font-family:Aleo;-inkscape-font-specification:Aleo;fill:#ffffff;stroke-width:1.95096">tadoº</tspan></text></g></svg>
