<?xml version="1.0" encoding="UTF-8" standalone="no"?>
<svg
   xmlns:dc="http://purl.org/dc/elements/1.1/"
   xmlns:cc="http://creativecommons.org/ns#"
   xmlns:rdf="http://www.w3.org/1999/02/22-rdf-syntax-ns#"
   xmlns:svg="http://www.w3.org/2000/svg"
   xmlns="http://www.w3.org/2000/svg"
   xmlns:sodipodi="http://sodipodi.sourceforge.net/DTD/sodipodi-0.dtd"
   xmlns:inkscape="http://www.inkscape.org/namespaces/inkscape"
   viewBox="0 0 192 192"
   version="1.1"
   id="svg16"
   sodipodi:docname="temu.svg"
   inkscape:version="0.92.4 (5da689c313, 2019-01-14)">
  <metadata
     id="metadata20">
    <rdf:RDF>
      <cc:Work
         rdf:about="">
        <dc:format>image/svg+xml</dc:format>
        <dc:type
           rdf:resource="http://purl.org/dc/dcmitype/StillImage" />
        <dc:title></dc:title>
      </cc:Work>
    </rdf:RDF>
  </metadata>
  <sodipodi:namedview
     pagecolor="#ffffff"
     bordercolor="#666666"
     borderopacity="1"
     objecttolerance="10"
     gridtolerance="10"
     guidetolerance="10"
     inkscape:pageopacity="0"
     inkscape:pageshadow="2"
     inkscape:window-width="1920"
     inkscape:window-height="1017"
     id="namedview18"
     showgrid="true"
     inkscape:zoom="5.8939376"
     inkscape:cx="64.564405"
     inkscape:cy="109.22237"
     inkscape:window-x="-8"
     inkscape:window-y="-8"
     inkscape:window-maximized="1"
     inkscape:current-layer="svg16"
     inkscape:snap-global="false">
    <inkscape:grid
       type="xygrid"
       id="grid827"
       spacingx="4"
       spacingy="4" />
  </sodipodi:namedview>
  <defs
     id="defs4">
    <style
       id="style2">.a{fill:none;stroke:#b1b5bd;stroke-linecap:round;stroke-linejoin:round;isolation:isolate;opacity:0.63;}</style>
  </defs>
  <rect
     class="a"
     x="8"
     y="32"
     width="176"
     height="128"
     rx="10"
     id="rect14"
     style="fill:#ff837d;stroke:none;opacity:1" />
  <path
     style="fill:#ffffff;stroke:none;stroke-width:1.04415894px;stroke-linecap:butt;stroke-linejoin:miter;stroke-opacity:1"
     d="m 47.454043,86.75578 c -1.725578,2.726418 0,3.100266 0,3.100266 0,0 3.206493,2.082366 7.972114,2.125898 4.765622,0.04353 7.883537,-1.948739 7.883537,-1.948739 0,0 2.003453,-0.892545 0,-3.986058 -1.398489,-2.159392 -4.074637,-6.554849 -4.074637,-6.554849 0,0 1.7307,-2.648954 2.037317,-4.163216 0.342915,-1.693514 -0.79721,-3.277426 -0.79721,-3.277426 0,0 -3.188704,-0.285002 -4.871848,2.125898 -1.477371,-2.283619 -4.960428,-2.037318 -4.960428,-2.037318 0,0 -1.090813,1.528875 -0.88579,3.011688 0.199145,1.440303 2.125897,3.808899 2.125897,3.808899 0,0 -2.830745,5.269783 -4.428952,7.794957 z"
     id="path829"
     inkscape:connector-curvature="0"
     sodipodi:nodetypes="sczcscscccscs" />
  <path
     style="opacity:1;fill:#ffffff;stroke:none;stroke-width:1.10267901px;stroke-linecap:butt;stroke-linejoin:miter;stroke-opacity:1"
     d="m 74.636725,71.985648 c -1.561611,-0.09801 -2.595173,1.470957 -2.595173,1.470957 l -3.60309,4.910368 c 0,0 -0.749668,1.080011 0.514728,2.291505 0.711966,0.682179 1.548568,1.249543 2.433646,1.68417 0.974019,0.478301 1.776778,-0.18737 1.776778,-0.18737 l 1.26205,-0.747324 -2.338884,6.079811 -1.214671,-1.076835 c 0,0 -0.915828,-0.959383 -1.68417,-0.232597 -0.749575,0.709035 0.327358,1.729398 0.327358,1.729398 0,0 4.126565,4.166872 11.412298,4.115663 6.660248,-0.04681 10.804962,-4.068283 10.804962,-4.068283 0,0 1.094245,-0.766062 0.372584,-1.824158 -0.541736,-0.794291 -1.542027,0.09476 -1.542027,0.09476 L 90.001006,86.64568 87.802109,81.8753 c 0,0 1.535708,-1.124568 1.871539,-1.964147 0.277929,-0.694822 0.26063,-1.544781 0,-2.246277 -0.207898,-0.559565 -0.577304,-1.281268 -1.169442,-1.356812 -0.489054,-0.06239 -1.216824,0.842085 -1.216824,0.842085 0,0 -2.843528,2.338786 -5.145118,1.871539 -2.46564,-0.50055 -3.469459,-3.647105 -5.097737,-5.565083 -0.880212,-1.036819 -1.69798,-1.426405 -2.407802,-1.470957 z m 5.743837,14.955084 c 2.689154,-0.0076 3.736618,2.315196 3.736618,2.315196 0,0 -0.877321,0.760245 -3.637549,0.760245 -2.728893,0 -3.738771,-0.79255 -3.738771,-0.79255 0,0 1.348334,-2.276451 3.639702,-2.282891 z"
     id="path831"
     inkscape:connector-curvature="0" />
  <path
     style="fill:#ffffff;stroke:none;stroke-width:1.08349681px;stroke-linecap:butt;stroke-linejoin:miter;stroke-opacity:1"
     d="m 116.52817,91.882974 h 2.43577 c 0,0 -0.67635,-4.37372 -0.59746,-6.572008 0.13318,-3.711441 1.33279,-5.386905 1.33279,-8.134587 0,-1.563672 -0.99707,-2.1753 -1.83833,-2.987277 -0.9379,-0.905242 -2.10181,-2.037313 -3.4009,-1.93024 -1.07318,0.08846 -1.60054,2.69894 -2.06811,4.182188 -0.61035,1.936169 0.0167,4.218977 -0.91916,6.020513 -0.93897,1.807629 -2.3803,4.081738 -4.41199,4.228145 -0.52576,0.03789 -0.6802,-0.919163 -1.28682,-0.919163 -4.04542,0 -9.605245,2.60426 -9.605245,3.952399 0,1.621703 4.909695,2.343863 9.559295,2.343863 3.42641,0 6.35897,-4.467817 7.58308,-6.939674 0.52401,-1.058143 1.32839,-2.780761 2.48174,-2.527696 0.74755,0.164024 0.96513,2.236052 0.96513,4.228146 0,1.68687 -0.22979,5.055391 -0.22979,5.055391 z"
     id="path836"
     inkscape:connector-curvature="0"
     sodipodi:nodetypes="ccsssssssssssssc" />
  <path
     style="fill:#ffffff;stroke:none;stroke-width:1.09659111px;stroke-linecap:butt;stroke-linejoin:miter;stroke-opacity:1"
     d="m 132.74779,72.281479 c -6.84933,0 -7.674,6.51101 -7.674,6.51101 l -0.7432,7.581899 c 0,0 -1.13377,5.395143 5.16169,5.395143 h 12.00039 c 6.86735,0 5.81493,-6.093362 5.81493,-6.093362 l -0.37267,-5.907028 c 0,0 -0.15342,-7.487662 -6.93079,-7.487662 z m -1.99829,5.116711 h 2.04541 c 0,0 0.007,3.628175 3.02419,3.628175 3.10851,0 3.02205,-3.257647 3.02205,-3.257647 h 2.27886 c 0,0 -0.39739,5.350165 -5.39516,5.350165 -4.66579,0 -4.97535,-5.720692 -4.97535,-5.720693 z"
     id="path838"
     inkscape:connector-curvature="0" />
  <path
     inkscape:connector-curvature="0"
     id="path847"
     style="font-style:normal;font-variant:normal;font-weight:900;font-stretch:normal;font-size:27.05181503px;line-height:1.25;font-family:Now;-inkscape-font-specification:'Now Heavy';letter-spacing:0px;word-spacing:0px;fill:#ffffff;fill-opacity:1;stroke:none;stroke-width:0.6762954"
     d="M 71.80878,99.902286 H 56.727393 v 4.497364 h 4.970771 v 15.7915 h 5.139845 v -15.7915 h 4.970771 z" />
  <path
     inkscape:connector-curvature="0"
     id="path849"
     style="font-style:normal;font-variant:normal;font-weight:900;font-stretch:normal;font-size:27.05181503px;line-height:1.25;font-family:Now;-inkscape-font-specification:'Now Heavy';letter-spacing:0px;word-spacing:0px;fill:#ffffff;fill-opacity:1;stroke:none;stroke-width:0.6762954"
     d="M 87.982979,104.39965 V 99.902286 H 75.403885 v 20.288864 h 12.579094 v -4.49737 h -7.405434 v -3.41529 h 6.255732 v -4.46355 h -6.255732 v -3.41529 z" />
  <path
     inkscape:connector-curvature="0"
     id="path851"
     style="font-style:normal;font-variant:normal;font-weight:900;font-stretch:normal;font-size:27.05181503px;line-height:1.25;font-family:Now;-inkscape-font-specification:'Now Heavy';letter-spacing:0px;word-spacing:0px;fill:#ffffff;fill-opacity:1;stroke:none;stroke-width:0.6762954"
     d="m 109.44564,99.902286 -6.01903,12.917244 -5.985215,-12.917244 h -5.613252 v 20.288864 h 5.17366 v -10.92217 l 5.038397,10.92217 h 2.77282 l 5.0384,-10.85454 v 10.85454 h 5.17366 V 99.902286 Z" />
  <path
     inkscape:connector-curvature="0"
     id="path853"
     style="font-style:normal;font-variant:normal;font-weight:900;font-stretch:normal;font-size:27.05181503px;line-height:1.25;font-family:Now;-inkscape-font-specification:'Now Heavy';letter-spacing:0px;word-spacing:0px;fill:#ffffff;fill-opacity:1;stroke:none;stroke-width:0.6762954"
     d="m 128.3284,120.46167 c 4.86932,0 8.69039,-2.94189 8.69039,-6.72914 V 99.902286 h -5.17366 V 112.7519 c 0,1.79218 -1.55548,3.2124 -3.51673,3.2124 -1.96126,0 -3.51674,-1.42022 -3.51674,-3.2124 V 99.902286 H 119.638 v 13.830244 c 0,3.78725 3.82107,6.72914 8.6904,6.72914 z" />
</svg>
