<svg xml:space="preserve" viewBox="0 0 192 192"><circle cx="96" cy="96" r="85" fill="#fff" class="a" style="isolation:isolate"/><path fill="#dc505e" d="M19.866 112.234c-.603-2.049-1.157-4.098-1.616-6.22-5.666-26.185 2.026-52.152 18.47-70.814 9.788-8.246 21.675-14.273 35.056-17.167 17.48-3.76 34.865-1.59 50.054 5.16a80.713 80.713 0 0 0-38.673-1.085c-41.688 8.994-68.909 48.56-63.291 90.126" class="st3"/><path fill="#fff" fill-opacity=".251" d="M19.866 112.234c-.603-2.049-1.157-4.098-1.616-6.22-5.666-26.185 2.026-52.152 18.47-70.814 9.788-8.246 21.675-14.273 35.056-17.167 17.48-3.76 34.865-1.59 50.054 5.16a80.713 80.713 0 0 0-38.673-1.085c-41.688 8.994-68.909 48.56-63.291 90.126" class="st3"/><path fill="#dc505e" d="M168.244 80.263c-5.69-26.353-23.556-46.895-46.414-57.07 26.233 7.258 47.957 27.487 56.179 54.925 3.81 28.233-7.523 55.527-28.258 72.959 16.443-18.686 24.135-44.63 18.493-70.814" class="st3"/><path fill="#fff" fill-opacity=".251" d="M168.244 80.263c-5.69-26.353-23.556-46.895-46.414-57.07 26.233 7.258 47.957 27.487 56.179 54.925 3.81 28.233-7.523 55.527-28.258 72.959 16.443-18.686 24.135-44.63 18.493-70.814" class="st3"/><path fill="#ffb0ac" d="M20.95 118.576c-.457-2.122-.795-4.22-1.084-6.342 12.031 40.193 53.14 65.003 94.828 56.01 13.381-2.894 25.268-8.921 35.057-17.167a80.694 80.694 0 0 1-43.737 25.63 80.714 80.714 0 0 1-38.674-1.085c-22.857-10.175-40.723-30.717-46.39-57.046" class="st4"/><path fill="#f4806d" d="M36.72 35.2C15.573 52.994 4.17 81.035 8.702 109.872c.24 1.398.506 2.796.795 4.195a88.28 88.28 0 0 0 4.485 14.587 80.337 80.337 0 0 0 9.114 16.275 80.788 80.788 0 0 1-9.138-16.275c15.768 38.89 57.649 62.013 100.084 52.85l1.591-.36a80.51 80.51 0 0 1-42.695-3.275 80.764 80.764 0 0 0 42.695 3.274c26.86-6.293 48.005-24.352 59.144-47.498a80.858 80.858 0 0 0 3.207-55.527c3.833 28.233-7.499 55.527-28.234 72.959a80.839 80.839 0 0 1-43.737 25.63 80.716 80.716 0 0 1-43.062-2.436 81.32 81.32 0 0 1 4.388 1.35c-22.857-10.174-40.723-30.716-46.413-57.045-.458-2.122-.796-4.244-1.085-6.342-.603-2.049-1.158-4.098-1.616-6.22-5.642-26.185 2.05-52.152 18.493-70.814zM26.037 148.738zm3.014 3.472zm3.25 3.34zm3.352 3.069zm3.52 2.888zm3.602 2.636zm3.802 2.47zm3.942 2.26z" class="st2"/><path fill="#dc505e" d="M96.625 7.504a87.73 87.73 0 0 0-19.689 1.994c-46.1 9.934-75.9 54.346-68.233 100.374C4.17 81.035 15.574 52.994 36.719 35.2c9.79-8.246 21.676-14.273 35.057-17.167a80.747 80.747 0 0 1 50.054 5.16c26.192 7.246 47.909 27.448 56.135 54.797l.02.128a65.311 65.311 0 0 1 1.615 6.22 80.858 80.858 0 0 1-4.822 49.307 87.435 87.435 0 0 0 6.727-56.685c-5.835-27.028-23.484-48.438-46.39-60.011a87.575 87.575 0 0 0-38.49-9.445zm74.977 48.125zm1.748 4.22zm1.534 4.388zm1.302 4.55z" class="st1"/><path fill="#8c72bd" stroke="rgba(0,0,0,0)" stroke-width="1.191" d="M63.973 112.713c.071-.024.15-.06-.024-.048l-.071-.156-.157-.507a21.225 21.225 0 0 1-.41-1.943 55.03 55.03 0 0 1-.46-3.253c-.15-.377-.286-.761-.404-1.138a20.029 20.029 0 0 1-.403-1.682 13.03 13.03 0 0 1-1.462 1.794 17.84 17.84 0 0 1-3.11 2.54c-1.015.565-2.761 1.772-4.276.26-.023-.036-.023-.06-.047-.095-.096-.024-.202-.036-.313-.06a4.868 4.868 0 0 1-2.325-3.06l-.107-.163a6.72 6.72 0 0 1-.546-.917 15.522 15.522 0 0 1-1.3-3.968 40.2 40.2 0 0 1-.596-8.16c.012-1.907.108-3.794.227-5.685a107.18 107.18 0 0 1-16.605.34v-1.165c5.56.315 11.136.206 16.68-.325a88.43 88.43 0 0 0 .26-9.25l1.13-.084c0 .164 0 .32.012.477 1.097.048.953.048.805.036-.083 0-.175 0 0 .012v.023l.048.515.072.852.662.238a16.498 16.498 0 0 0 0 6.932c2-.17 4.008-.325 6.008-.45 8.485-.622 16.983-1.11 25.46-1.754 7.34-.358 14.682-.834 22.017-1.549-7.522 1.13-15.084 1.994-22.647 2.74-8.373.642-16.754 1.118-25.108 1.734-1.858.107-3.71.26-5.56.41.448 2.304.53 4.665.238 6.995.575 3.347.774 6.749.595 10.141a19.287 19.287 0 0 1-.37 2.066l-.048.254h-.012c.12.325.278.634.477.917.151.154.31.298.476.435.162-.325.377-.735.227-.39l.208-.12.416-.228a21.15 21.15 0 0 0 1.599-1.012 26.365 26.365 0 0 0 2.978-2.393 15.78 15.78 0 0 0 3.365-4.145v-.91c.036-.668.12-1.334.222-1.994.035-.23.083-.459.149-.682-.13 0-.108-.012 0-.024.023-.095.06-.202.083-.305l.036-.119c.286 0 .5-.012.67-.012a3.068 3.068 0 0 1-.025-.344l-.095-.961-.048-.477v-.12c.15-.07.072-.059 0-.047-.148.036-.291.072.988-.476l.162.221a.661.661 0 0 0 .072.095c.136-.047.175-.06.024.024a5 5 0 0 1 .863 1.802c.12-.001.241.012.358.047-.162-.357.047-.023.238.313.149.26.279.514.226.468l-.035.119-.096.238-.376.928c-.024.06-.06.12-.095.189-.012.41-.048.812-.084 1.208a25.894 25.894 0 0 1 1.192 5.719 26.035 26.035 0 0 1-.084 4.819c.129.06.265.119.403.156 2.158.486 4.43-1.436 6.195-3.11a34.183 34.183 0 0 0 2.346-2.586c.12-.17.247-.333.358-.5a33.591 33.591 0 0 0 3.67-6.737c.06-.149.12-.305.176-.477a4.819 4.819 0 0 1-.5-.579 4.289 4.289 0 0 1-.596-3.144 3.65 3.65 0 0 1 .035-2.546l.096-.254.047-.13c-.344.096-.071-.023.253-.148.286-.12.618-.222.566-.174l.5.297c.32.223.593.507.806.834.4.63.618 1.36.63 2.107-.024.468-.084.92-.15 1.364l.035.174c.26-.222.416-.33.108-.024l.215.461c2.683.096 4.243 2.313 5.15 4.366 1.995 1.384 3.119 4.607 1.51 6.757-.171.496-.41.967-.71 1.397a43.038 43.038 0 0 0 4.647-4.34c-.216-.048-.442-.096-.546-.286l-.071-.108c-.096.072-.096.06-.024-.023l-.13-.174-.107-.157-.048-.071c.935-.962.845-.852.747-.74-.048.06-.107.12.024 0l.727.168c.184.024.371.036.559.036.035-.024.083-.036.13-.072h.011a50.32 50.32 0 0 0 3.455-4.541 21.903 21.903 0 0 0-.935-3.145 6.391 6.391 0 0 1-.331-2.085c-.012-.219.012-.44.083-.649a.72.72 0 0 1-.156-.024c-.663-.221-1.31-.071-2.11-1.015-.644-1.123.577-2.144 1.168-2.222a7.57 7.57 0 0 1 4.15-.193 2.773 2.773 0 0 1 1.585 1.682 1.679 1.679 0 0 1 1.267 1.052c.22.397.323.846.299 1.3a15.11 15.11 0 0 1 4.592 6.075 9.756 9.756 0 0 1 .572 7.77c-.06.433-.139.862-.247 1.286a18.954 18.954 0 0 0 1.487-.351 16.407 16.407 0 0 0 5.633-3.267c.071-.071.149-.149.238-.227-.06-.477-.095-.968-.136-1.455a15.86 15.86 0 0 1-.286-2.767c.084-1.488.391-2.954.923-4.346a12.97 12.97 0 0 1 2.195-4.358 6.231 6.231 0 0 1 3.112-1.917c.305-.06.613-.096.921-.12.108.024.137 0 .164-.011.047-.036.107-.084.618.168l.156.312c.12.035.232.095.343.144l.203.422a4.47 4.47 0 0 1 .486 1.812 11.705 11.705 0 0 1-2.234 6.762 36.018 36.018 0 0 1-5.224 6.263c.175.605.338 1.21.577 1.819l.216.596c.129.383.129.383.695.468.566.083 1.254-.477 1.864-.953l.67-.515a43.724 43.724 0 0 0 5.943-4.5 21.933 21.933 0 0 1 2.346-1.931c.278-.273.558-.545.844-.806.438-.447.952-.81 1.52-1.072.107.012.205.036.306.06.083 0 .168.023.238.071.024.012.036.036.048.06.285.15.518.386.663.674l-.119.163a5.865 5.865 0 0 0-.468.675 11.517 11.517 0 0 0-1.742 6.308 4.584 4.584 0 0 0 .834 2.949 6.256 6.256 0 0 0 5.905 1.58c2.338-.496 4.95-2.288 7.99-5.48a7.626 7.626 0 0 0 2.371-5.345 7.39 7.39 0 0 0-.175-1.585 7.996 7.996 0 0 0-3.827-4.964 20.867 20.867 0 0 1-6.126 3.813 6.16 6.16 0 0 1-5.509.268 2.944 2.944 0 0 1-1.747-1.019 1.702 1.702 0 0 1 .024-1.819c.916-1.812 5.171-2.93 5.658-3.052a12.497 12.497 0 0 1 5.107 0c.417.047.829.144 1.227.278.083 0 .163 0 .238.012.33.06.655.136.974.239a38.243 38.243 0 0 0 9.37-11.219 43.78 43.78 0 0 0 2.701-6.195c.383-1.068.621-2.18.71-3.311a3.16 3.16 0 0 0-.12-1.204c-.107-.293.5.457.5.457.13.426.17.874.12 1.316a13.552 13.552 0 0 1-.762 3.418 44.9 44.9 0 0 1-2.8 6.411 39.066 39.066 0 0 1-8.854 10.66 7.19 7.19 0 0 1 2.331 1.457 6.52 6.52 0 0 1 1.807 2.564 9.636 9.636 0 0 1-.17 6.986c-1.668 4.333-5.48 8.242-10.315 8.716a9.202 9.202 0 0 1-5.242-1.052 6.625 6.625 0 0 1-3.455-3.644 4.733 4.733 0 0 1-.365-1.795 8.465 8.465 0 0 1 1.191-3.781c.16-.511.35-1.013.571-1.502-1.571 1.522-3.208 3.016-4.806 4.492a42.947 42.947 0 0 1-5.412 4.475 4.974 4.974 0 0 1-1.71.761 1.251 1.251 0 0 1-1.19-.579 2.308 2.308 0 0 1-.859-1.123 16.39 16.39 0 0 1-.728-2.462 17.055 17.055 0 0 1-4.04 2.52c-1.11.49-2.279.837-3.476 1.033 0 0-.675.012-.793.247a4.818 4.818 0 0 1-2.696 2.41 2.586 2.586 0 0 1-1.987.17c-.143.06-.273.128-.417.189a8.358 8.358 0 0 1-7.965-.703l-.435-.312-.208-.15c.238-1.254.238-1.123.238-.993 0 .072 0 .149.048 0l.13-.036a5.147 5.147 0 0 1 1.066-.207c.677-.06 1.356-.06 2.033 0a11.55 11.55 0 0 0 3.683-.095 9.212 9.212 0 0 0 5.08-4.95c1.1-2.32-.265-4.6-2.578-5.756-.779-.5-1.644-.948-2.45-1.55a29.741 29.741 0 0 1-1.824 2.384 5.199 5.199 0 0 1-3.97 3.774 52.243 52.243 0 0 1-4.663 4.695c-2.01 1.55-4.068 3.633-7.231 3.358a3.04 3.04 0 0 1-1.864-1.33 5.53 5.53 0 0 1-.507-.962c.357-.924.351-.834.344-.755 0 .06 0 .108.048 0l.136-.071.286-.12.595-.095c.12 0 .239 0 .358.012.035-.035.035-.06.035-.023h.346a8.58 8.58 0 0 0 1.812-.189 6.614 6.614 0 0 0 3.06-1.364 8.324 8.324 0 0 0-.12-3.43 20.78 20.78 0 0 0-.754-2.476 14.469 14.469 0 0 0-3.437-1.48c-.048-.023-.095-.035-.136-.06a6.32 6.32 0 0 1-.149 1.002 15.404 15.404 0 0 1-.897 2.585 13.245 13.245 0 0 1-6.742 9.087 11.867 11.867 0 0 1-3.885 1.192c-.666.107-1.34.144-2.014.119h-.734c-.012.047-.024.107-.035.107-.036.312-.036.071-.036-.305a3.819 3.819 0 0 1-1.677-.435c-.071.357-.13.715-.226 1.072l-.273.969-.071.238c-.636.06-.941.084-1.073.084-.182-.012-.107-.036-.035-.072zm.56-2.43v-.035c.035-.181.06-.37.083-.544a3.116 3.116 0 0 1-.246-.28c.06.286.107.571.162.857zm29.285-1.656a5.68 5.68 0 0 0 1.52.605 6.892 6.892 0 0 0 3.521.035 9.908 9.908 0 0 0 1.884-.637c.119-.468.595-.696.74-1.019.141-.152.295-.292.462-.417a13.91 13.91 0 0 1-1.112.766 7.963 7.963 0 0 1-4.918.721c-.52-.035-1.026-.071-1.514-.071-.2 0-.395 0-.583.024zm-19.897-.157a10.69 10.69 0 0 0 2.872-2.312c.023-.024.035-.06.06-.084a23.651 23.651 0 0 1-2.938 2.402zm29.396-.06a3.262 3.262 0 0 0 1.085-.934c0-.012.012-.024.023-.036a12.2 12.2 0 0 1-1.112.977zm40.55-5.17a21.985 21.985 0 0 1-6.677 5.159 9.47 9.47 0 0 0 .845-.293 13.309 13.309 0 0 0 6.241-5.334 5.52 5.52 0 0 1-.41.47zm-63.34 3.97c.65 1.291 2.002 1.272 3.378.733a2.481 2.481 0 0 1-.415-.072 3.97 3.97 0 0 1-.755-.024 5.345 5.345 0 0 1-.857-.13c-.072.239-.12.326-.06-.011l-.13-.036h-.071c-.048-.012-.084-.024-.12-.036l-.266-.071-.12-.048H81.1c-.036.083-.06.17-.024 0h-.036c-.036.036-.024-.036 0-.174-.095-.036-.177-.095-.26-.15a1.04 1.04 0 0 0-.272.037zm-2.78-6.134-.12.215-.237.435a31.832 31.832 0 0 1-4.12 5.866 26.92 26.92 0 0 0 1.632-1.247 19.427 19.427 0 0 0 4.696-5.892c.012-.012.012-.035.024-.047a16.66 16.66 0 0 0 .397-4.354c-.024-.024-.048-.036-.072-.048a24.36 24.36 0 0 1-2.338 4.783c.357.238.617.427.194.188zm-13.773 3.067a5.889 5.889 0 0 0 .012 1.65c.036.13.06.286.095.417.196.486.46.941.787 1.35a27.591 27.591 0 0 0-.15-4.91 32.062 32.062 0 0 0-.312-1.906 31.088 31.088 0 0 0-.437 3.402zm-6.971 1.248c-.988.76-2.03 1.446-3.118 2.052l.012.06c2.054 0 3.977-2.06 5.432-3.833.312-.395.61-.805.91-1.215a27.53 27.53 0 0 1-3.238 2.94zm45.35 1.486a6.662 6.662 0 0 1 1.865-.876c.188-.223.365-.458.526-.701.446-.6.779-1.275.98-1.994.024-.53.012-1.063-.036-1.592a9.54 9.54 0 0 1-3.332 5.166zm13.682-.453c.375.011.746-.084 1.059-.294-.24.072-.49.096-.74.072a2.722 2.722 0 0 1-.435-.083c.036.107.072.208.12.313zm-34.528-.313a.09.09 0 0 1 .024-.047.259.259 0 0 0-.036.06zm-21.652-1.286c-.254.253-.514.551-.786.834a12.943 12.943 0 0 0 2.621-3.3c-.581.85-1.184 1.67-1.835 2.468zm-8.666-3.502c0 .137 0 .268.012.403v-1.668c-.012.421-.024.846-.012 1.269zm-1.668-14.96a79.906 79.906 0 0 0 .047 10.722 36.62 36.62 0 0 0 .488 3.775c.024-2.549.176-5.094.462-7.626a.47.47 0 0 1 .024-.134c-.273-2.183-.552-4.373-.623-6.563 0-.071 0-.134-.012-.207a2.017 2.017 0 0 1-.38.036zm69.662 1.954c-1.541.762-3.197 3.411-3.684 5.094a21.553 21.553 0 0 0-.755 7.219 23.183 23.183 0 0 0 6.257-9.532c.21-.82.251-1.676.119-2.513-.012-.011-.024-.035-.036-.047a2.605 2.605 0 0 0-.87-.566c-.357.083-.696.237-1.039.345zm-18.477 4.517c-.107.193-.227.381-.331.577a17.8 17.8 0 0 0 1.618 1.482 18.825 18.825 0 0 1 3.618 3.513 16.112 16.112 0 0 0-3.788-6.269c-.195-.17-.39-.351-.595-.525-.145.42-.32.829-.525 1.223zm45.495 2.466a6.338 6.338 0 0 0-1.481-3.416c-.096-.119-.215-.207-.318-.312a7.422 7.422 0 0 0-1.385-.877 8.836 8.836 0 0 1 3.181 4.608zm-13.545-4.416a4.56 4.56 0 0 0-2.586 1.929c-.216.368-.26.812-.12 1.215a9.575 9.575 0 0 0 3.337.3 7.807 7.807 0 0 0 1.975-.463 11.48 11.48 0 0 0 1.8-1.064 36.219 36.219 0 0 0 3.534-2.549 6.897 6.897 0 0 0-1.046-.357h-.297a20.24 20.24 0 0 0-6.604.998zm-36.27.476c.17.921.597 1.864.898 2.89.136-.238.267-.468.396-.707a15.489 15.489 0 0 1-1.331-2.417c0 .071.024.144.035.234zm-16.917 2.554c0-.036.011-.072.023-.108-.071-.083-.143-.156-.214-.238.06.12.12.236.188.348zm49.548-1.514c-.324.628-.13.921-.072 1.02a.689.689 0 0 0 .181.18 2.73 2.73 0 0 1 .834-2.124 2.67 2.67 0 0 0-.953.924zm-29.526-.107c.047.084.095.156.15.238.012-.023.035-.047.047-.083.37-.434.597-.971.65-1.538a4.589 4.589 0 0 0-.37-.238 12.08 12.08 0 0 1-.476 1.624zm-1.235.036c.012-.036.024-.06.036-.095a4.423 4.423 0 0 1-.357-2.092l-.883-.108c.354.788.756 1.552 1.205 2.289zm-19.112-.953.108.246a3.191 3.191 0 0 1-.096-.322c0 .023 0 .06-.011.083zm20.977-1.906c.024 0 .036 0 .06.011-.024-.035-.036-.083-.06-.119zm-6.185-1.292c1.047.41 2.152.656 3.274.733.312.035.67.083 1.04.13.152-.274.353-.517.596-.715-.142-.819-1.124-1.11-2.17-1.11-1.37 0-2.858.502-2.742.97zm-44.175-5.173c-.06.742-.107 1.468-.156 2.204.084 0 .162-.012.254-.012-.036-.772-.06-1.538-.095-2.3v.12zm11.486 5.732c.305-.096.615-.168.93-.222-.072-.403-.072-1.17.083-1.294.238-.188.968-.381 1.046.108.047.275.06.555.047.834a.754.754 0 0 0 .129-.28c.158-.747.42-1.47.78-2.144.036-.071.084.477.096.54 0 .227.071.72-.06.928a5.41 5.41 0 0 0-.552 1.326c-.06.368-.165.73-.312 1.072a.288.288 0 0 1-.487.108c-.435.344-1.182.33-1.69.566.084-.048-.272-1.396 0-1.53zm56.217-5.508.146.119zm-.393-.315c-.305-.246-.604-.486-.52-.421l.023-.024.036-.048.048-.107.5-.864c.636-1.175 1.398-2.264 2.13-3.357 1.515-2.178 3.165-4.224 4.795-6.277a278.396 278.396 0 0 0 4.723-4.912c-1.31 1.957-2.651 3.886-3.982 5.808-1.612 2.009-3.21 4.021-4.665 6.12a76.13 76.13 0 0 0-1.261 1.93l.728.863c-.526.42-1.077.806-1.65 1.157l-.365.279-.181.144.048.036c-.108-.072-.245-.185-.395-.302zm-.41-.61c-.184-.142-.249-.199 0 0z" data-name="Path 4698"/><path fill-opacity=".251" stroke="rgba(0,0,0,0)" stroke-width="1.191" d="M63.973 112.713c.071-.024.15-.06-.024-.048l-.071-.156-.157-.507a21.225 21.225 0 0 1-.41-1.943 55.03 55.03 0 0 1-.46-3.253c-.15-.377-.286-.761-.404-1.138a20.029 20.029 0 0 1-.403-1.682 13.03 13.03 0 0 1-1.462 1.794 17.84 17.84 0 0 1-3.11 2.54c-1.015.565-2.761 1.772-4.276.26-.023-.036-.023-.06-.047-.095-.096-.024-.202-.036-.313-.06a4.868 4.868 0 0 1-2.325-3.06l-.107-.163a6.72 6.72 0 0 1-.546-.917 15.522 15.522 0 0 1-1.3-3.968 40.2 40.2 0 0 1-.596-8.16c.012-1.907.108-3.794.227-5.685a107.18 107.18 0 0 1-16.605.34v-1.165c5.56.315 11.136.206 16.68-.325a88.43 88.43 0 0 0 .26-9.25l1.13-.084c0 .164 0 .32.012.477 1.097.048.953.048.805.036-.083 0-.175 0 0 .012v.023l.048.515.072.852.662.238a16.498 16.498 0 0 0 0 6.932c2-.17 4.008-.325 6.008-.45 8.485-.622 16.983-1.11 25.46-1.754 7.34-.358 14.682-.834 22.017-1.549-7.522 1.13-15.084 1.994-22.647 2.74-8.373.642-16.754 1.118-25.108 1.734-1.858.107-3.71.26-5.56.41.448 2.304.53 4.665.238 6.995.575 3.347.774 6.749.595 10.141a19.287 19.287 0 0 1-.37 2.066l-.048.254h-.012c.12.325.278.634.477.917.151.154.31.298.476.435.162-.325.377-.735.227-.39l.208-.12.416-.228a21.15 21.15 0 0 0 1.599-1.012 26.365 26.365 0 0 0 2.978-2.393 15.78 15.78 0 0 0 3.365-4.145v-.91c.036-.668.12-1.334.222-1.994.035-.23.083-.459.149-.682-.13 0-.108-.012 0-.024.023-.095.06-.202.083-.305l.036-.119c.286 0 .5-.012.67-.012a3.068 3.068 0 0 1-.025-.344l-.095-.961-.048-.477v-.12c.15-.07.072-.059 0-.047-.148.036-.291.072.988-.476l.162.221a.661.661 0 0 0 .072.095c.136-.047.175-.06.024.024a5 5 0 0 1 .863 1.802c.12-.001.241.012.358.047-.162-.357.047-.023.238.313.149.26.279.514.226.468l-.035.119-.096.238-.376.928c-.024.06-.06.12-.095.189-.012.41-.048.812-.084 1.208a25.894 25.894 0 0 1 1.192 5.719 26.035 26.035 0 0 1-.084 4.819c.129.06.265.119.403.156 2.158.486 4.43-1.436 6.195-3.11a34.183 34.183 0 0 0 2.346-2.586c.12-.17.247-.333.358-.5a33.591 33.591 0 0 0 3.67-6.737c.06-.149.12-.305.176-.477a4.819 4.819 0 0 1-.5-.579 4.289 4.289 0 0 1-.596-3.144 3.65 3.65 0 0 1 .035-2.546l.096-.254.047-.13c-.344.096-.071-.023.253-.148.286-.12.618-.222.566-.174l.5.297c.32.223.593.507.806.834.4.63.618 1.36.63 2.107-.024.468-.084.92-.15 1.364l.035.174c.26-.222.416-.33.108-.024l.215.461c2.683.096 4.243 2.313 5.15 4.366 1.995 1.384 3.119 4.607 1.51 6.757-.171.496-.41.967-.71 1.397a43.038 43.038 0 0 0 4.647-4.34c-.216-.048-.442-.096-.546-.286l-.071-.108c-.096.072-.096.06-.024-.023l-.13-.174-.107-.157-.048-.071c.935-.962.845-.852.747-.74-.048.06-.107.12.024 0l.727.168c.184.024.371.036.559.036.035-.024.083-.036.13-.072h.011a50.32 50.32 0 0 0 3.455-4.541 21.903 21.903 0 0 0-.935-3.145 6.391 6.391 0 0 1-.331-2.085c-.012-.219.012-.44.083-.649a.72.72 0 0 1-.156-.024c-.663-.221-1.31-.071-2.11-1.015-.644-1.123.577-2.144 1.168-2.222a7.57 7.57 0 0 1 4.15-.193 2.773 2.773 0 0 1 1.585 1.682 1.679 1.679 0 0 1 1.267 1.052c.22.397.323.846.299 1.3a15.11 15.11 0 0 1 4.592 6.075 9.756 9.756 0 0 1 .572 7.77c-.06.433-.139.862-.247 1.286a18.954 18.954 0 0 0 1.487-.351 16.407 16.407 0 0 0 5.633-3.267c.071-.071.149-.149.238-.227-.06-.477-.095-.968-.136-1.455a15.86 15.86 0 0 1-.286-2.767c.084-1.488.391-2.954.923-4.346a12.97 12.97 0 0 1 2.195-4.358 6.231 6.231 0 0 1 3.112-1.917c.305-.06.613-.096.921-.12.108.024.137 0 .164-.011.047-.036.107-.084.618.168l.156.312c.12.035.232.095.343.144l.203.422a4.47 4.47 0 0 1 .486 1.812 11.705 11.705 0 0 1-2.234 6.762 36.018 36.018 0 0 1-5.224 6.263c.175.605.338 1.21.577 1.819l.216.596c.129.383.129.383.695.468.566.083 1.254-.477 1.864-.953l.67-.515a43.724 43.724 0 0 0 5.943-4.5 21.933 21.933 0 0 1 2.346-1.931c.278-.273.558-.545.844-.806.438-.447.952-.81 1.52-1.072.107.012.205.036.306.06.083 0 .168.023.238.071.024.012.036.036.048.06.285.15.518.386.663.674l-.119.163a5.865 5.865 0 0 0-.468.675 11.517 11.517 0 0 0-1.742 6.308 4.584 4.584 0 0 0 .834 2.949 6.256 6.256 0 0 0 5.905 1.58c2.338-.496 4.95-2.288 7.99-5.48a7.626 7.626 0 0 0 2.371-5.345 7.39 7.39 0 0 0-.175-1.585 7.996 7.996 0 0 0-3.827-4.964 20.867 20.867 0 0 1-6.126 3.813 6.16 6.16 0 0 1-5.509.268 2.944 2.944 0 0 1-1.747-1.019 1.702 1.702 0 0 1 .024-1.819c.916-1.812 5.171-2.93 5.658-3.052a12.497 12.497 0 0 1 5.107 0c.417.047.829.144 1.227.278.083 0 .163 0 .238.012.33.06.655.136.974.239a38.243 38.243 0 0 0 9.37-11.219 43.78 43.78 0 0 0 2.701-6.195c.383-1.068.621-2.18.71-3.311a3.16 3.16 0 0 0-.12-1.204c-.107-.293.5.457.5.457.13.426.17.874.12 1.316a13.552 13.552 0 0 1-.762 3.418 44.9 44.9 0 0 1-2.8 6.411 39.066 39.066 0 0 1-8.854 10.66 7.19 7.19 0 0 1 2.331 1.457 6.52 6.52 0 0 1 1.807 2.564 9.636 9.636 0 0 1-.17 6.986c-1.668 4.333-5.48 8.242-10.315 8.716a9.202 9.202 0 0 1-5.242-1.052 6.625 6.625 0 0 1-3.455-3.644 4.733 4.733 0 0 1-.365-1.795 8.465 8.465 0 0 1 1.191-3.781c.16-.511.35-1.013.571-1.502-1.571 1.522-3.208 3.016-4.806 4.492a42.947 42.947 0 0 1-5.412 4.475 4.974 4.974 0 0 1-1.71.761 1.251 1.251 0 0 1-1.19-.579 2.308 2.308 0 0 1-.859-1.123 16.39 16.39 0 0 1-.728-2.462 17.055 17.055 0 0 1-4.04 2.52c-1.11.49-2.279.837-3.476 1.033 0 0-.675.012-.793.247a4.818 4.818 0 0 1-2.696 2.41 2.586 2.586 0 0 1-1.987.17c-.143.06-.273.128-.417.189a8.358 8.358 0 0 1-7.965-.703l-.435-.312-.208-.15c.238-1.254.238-1.123.238-.993 0 .072 0 .149.048 0l.13-.036a5.147 5.147 0 0 1 1.066-.207c.677-.06 1.356-.06 2.033 0a11.55 11.55 0 0 0 3.683-.095 9.212 9.212 0 0 0 5.08-4.95c1.1-2.32-.265-4.6-2.578-5.756-.779-.5-1.644-.948-2.45-1.55a29.741 29.741 0 0 1-1.824 2.384 5.199 5.199 0 0 1-3.97 3.774 52.243 52.243 0 0 1-4.663 4.695c-2.01 1.55-4.068 3.633-7.231 3.358a3.04 3.04 0 0 1-1.864-1.33 5.53 5.53 0 0 1-.507-.962c.357-.924.351-.834.344-.755 0 .06 0 .108.048 0l.136-.071.286-.12.595-.095c.12 0 .239 0 .358.012.035-.035.035-.06.035-.023h.346a8.58 8.58 0 0 0 1.812-.189 6.614 6.614 0 0 0 3.06-1.364 8.324 8.324 0 0 0-.12-3.43 20.78 20.78 0 0 0-.754-2.476 14.469 14.469 0 0 0-3.437-1.48c-.048-.023-.095-.035-.136-.06a6.32 6.32 0 0 1-.149 1.002 15.404 15.404 0 0 1-.897 2.585 13.245 13.245 0 0 1-6.742 9.087 11.867 11.867 0 0 1-3.885 1.192c-.666.107-1.34.144-2.014.119h-.734c-.012.047-.024.107-.035.107-.036.312-.036.071-.036-.305a3.819 3.819 0 0 1-1.677-.435c-.071.357-.13.715-.226 1.072l-.273.969-.071.238c-.636.06-.941.084-1.073.084-.182-.012-.107-.036-.035-.072zm.56-2.43v-.035c.035-.181.06-.37.083-.544a3.116 3.116 0 0 1-.246-.28c.06.286.107.571.162.857zm29.285-1.656a5.68 5.68 0 0 0 1.52.605 6.892 6.892 0 0 0 3.521.035 9.908 9.908 0 0 0 1.884-.637c.119-.468.595-.696.74-1.019.141-.152.295-.292.462-.417a13.91 13.91 0 0 1-1.112.766 7.963 7.963 0 0 1-4.918.721c-.52-.035-1.026-.071-1.514-.071-.2 0-.395 0-.583.024zm-19.897-.157a10.69 10.69 0 0 0 2.872-2.312c.023-.024.035-.06.06-.084a23.651 23.651 0 0 1-2.938 2.402zm29.396-.06a3.262 3.262 0 0 0 1.085-.934c0-.012.012-.024.023-.036a12.2 12.2 0 0 1-1.112.977zm40.55-5.17a21.985 21.985 0 0 1-6.677 5.159 9.47 9.47 0 0 0 .845-.293 13.309 13.309 0 0 0 6.241-5.334 5.52 5.52 0 0 1-.41.47zm-63.34 3.97c.65 1.291 2.002 1.272 3.378.733a2.481 2.481 0 0 1-.415-.072 3.97 3.97 0 0 1-.755-.024 5.345 5.345 0 0 1-.857-.13c-.072.239-.12.326-.06-.011l-.13-.036h-.071c-.048-.012-.084-.024-.12-.036l-.266-.071-.12-.048H81.1c-.036.083-.06.17-.024 0h-.036c-.036.036-.024-.036 0-.174-.095-.036-.177-.095-.26-.15a1.04 1.04 0 0 0-.272.037zm-2.78-6.134-.12.215-.237.435a31.832 31.832 0 0 1-4.12 5.866 26.92 26.92 0 0 0 1.632-1.247 19.427 19.427 0 0 0 4.696-5.892c.012-.012.012-.035.024-.047a16.66 16.66 0 0 0 .397-4.354c-.024-.024-.048-.036-.072-.048a24.36 24.36 0 0 1-2.338 4.783c.357.238.617.427.194.188zm-13.773 3.067a5.889 5.889 0 0 0 .012 1.65c.036.13.06.286.095.417.196.486.46.941.787 1.35a27.591 27.591 0 0 0-.15-4.91 32.062 32.062 0 0 0-.312-1.906 31.088 31.088 0 0 0-.437 3.402zm-6.971 1.248c-.988.76-2.03 1.446-3.118 2.052l.012.06c2.054 0 3.977-2.06 5.432-3.833.312-.395.61-.805.91-1.215a27.53 27.53 0 0 1-3.238 2.94zm45.35 1.486a6.662 6.662 0 0 1 1.865-.876c.188-.223.365-.458.526-.701.446-.6.779-1.275.98-1.994.024-.53.012-1.063-.036-1.592a9.54 9.54 0 0 1-3.332 5.166zm13.682-.453c.375.011.746-.084 1.059-.294-.24.072-.49.096-.74.072a2.722 2.722 0 0 1-.435-.083c.036.107.072.208.12.313zm-34.528-.313a.09.09 0 0 1 .024-.047.259.259 0 0 0-.036.06zm-21.652-1.286c-.254.253-.514.551-.786.834a12.943 12.943 0 0 0 2.621-3.3c-.581.85-1.184 1.67-1.835 2.468zm-8.666-3.502c0 .137 0 .268.012.403v-1.668c-.012.421-.024.846-.012 1.269zm-1.668-14.96a79.906 79.906 0 0 0 .047 10.722 36.62 36.62 0 0 0 .488 3.775c.024-2.549.176-5.094.462-7.626a.47.47 0 0 1 .024-.134c-.273-2.183-.552-4.373-.623-6.563 0-.071 0-.134-.012-.207a2.017 2.017 0 0 1-.38.036zm69.662 1.954c-1.541.762-3.197 3.411-3.684 5.094a21.553 21.553 0 0 0-.755 7.219 23.183 23.183 0 0 0 6.257-9.532c.21-.82.251-1.676.119-2.513-.012-.011-.024-.035-.036-.047a2.605 2.605 0 0 0-.87-.566c-.357.083-.696.237-1.039.345zm-18.477 4.517c-.107.193-.227.381-.331.577a17.8 17.8 0 0 0 1.618 1.482 18.825 18.825 0 0 1 3.618 3.513 16.112 16.112 0 0 0-3.788-6.269c-.195-.17-.39-.351-.595-.525-.145.42-.32.829-.525 1.223zm45.495 2.466a6.338 6.338 0 0 0-1.481-3.416c-.096-.119-.215-.207-.318-.312a7.422 7.422 0 0 0-1.385-.877 8.836 8.836 0 0 1 3.181 4.608zm-13.545-4.416a4.56 4.56 0 0 0-2.586 1.929c-.216.368-.26.812-.12 1.215a9.575 9.575 0 0 0 3.337.3 7.807 7.807 0 0 0 1.975-.463 11.48 11.48 0 0 0 1.8-1.064 36.219 36.219 0 0 0 3.534-2.549 6.897 6.897 0 0 0-1.046-.357h-.297a20.24 20.24 0 0 0-6.604.998zm-36.27.476c.17.921.597 1.864.898 2.89.136-.238.267-.468.396-.707a15.489 15.489 0 0 1-1.331-2.417c0 .071.024.144.035.234zm-16.917 2.554c0-.036.011-.072.023-.108-.071-.083-.143-.156-.214-.238.06.12.12.236.188.348zm49.548-1.514c-.324.628-.13.921-.072 1.02a.689.689 0 0 0 .181.18 2.73 2.73 0 0 1 .834-2.124 2.67 2.67 0 0 0-.953.924zm-29.526-.107c.047.084.095.156.15.238.012-.023.035-.047.047-.083.37-.434.597-.971.65-1.538a4.589 4.589 0 0 0-.37-.238 12.08 12.08 0 0 1-.476 1.624zm-1.235.036c.012-.036.024-.06.036-.095a4.423 4.423 0 0 1-.357-2.092l-.883-.108c.354.788.756 1.552 1.205 2.289zm-19.112-.953.108.246a3.191 3.191 0 0 1-.096-.322c0 .023 0 .06-.011.083zm20.977-1.906c.024 0 .036 0 .06.011-.024-.035-.036-.083-.06-.119zm-6.185-1.292c1.047.41 2.152.656 3.274.733.312.035.67.083 1.04.13.152-.274.353-.517.596-.715-.142-.819-1.124-1.11-2.17-1.11-1.37 0-2.858.502-2.742.97zm-44.175-5.173c-.06.742-.107 1.468-.156 2.204.084 0 .162-.012.254-.012-.036-.772-.06-1.538-.095-2.3v.12zm11.486 5.732c.305-.096.615-.168.93-.222-.072-.403-.072-1.17.083-1.294.238-.188.968-.381 1.046.108.047.275.06.555.047.834a.754.754 0 0 0 .129-.28c.158-.747.42-1.47.78-2.144.036-.071.084.477.096.54 0 .227.071.72-.06.928a5.41 5.41 0 0 0-.552 1.326c-.06.368-.165.73-.312 1.072a.288.288 0 0 1-.487.108c-.435.344-1.182.33-1.69.566.084-.048-.272-1.396 0-1.53zm56.217-5.508.146.119zm-.393-.315c-.305-.246-.604-.486-.52-.421l.023-.024.036-.048.048-.107.5-.864c.636-1.175 1.398-2.264 2.13-3.357 1.515-2.178 3.165-4.224 4.795-6.277a278.396 278.396 0 0 0 4.723-4.912c-1.31 1.957-2.651 3.886-3.982 5.808-1.612 2.009-3.21 4.021-4.665 6.12a76.13 76.13 0 0 0-1.261 1.93l.728.863c-.526.42-1.077.806-1.65 1.157l-.365.279-.181.144.048.036c-.108-.072-.245-.185-.395-.302zm-.41-.61c-.184-.142-.249-.199 0 0z" data-name="Path 4698"/></svg>