<?xml version="1.0" encoding="UTF-8" standalone="no"?>
<!-- Created with Inkscape (http://www.inkscape.org/) -->

<svg
   width="192"
   height="192"
   viewBox="0 0 50.799999 50.8"
   version="1.1"
   id="svg1"
   sodipodi:docname="tnepds.svg"
   inkscape:version="1.3.2 (091e20ef0f, 2023-11-25)"
   inkscape:export-filename="tnepds.png"
   inkscape:export-xdpi="96"
   inkscape:export-ydpi="96"
   xmlns:inkscape="http://www.inkscape.org/namespaces/inkscape"
   xmlns:sodipodi="http://sodipodi.sourceforge.net/DTD/sodipodi-0.dtd"
   xmlns="http://www.w3.org/2000/svg"
   xmlns:svg="http://www.w3.org/2000/svg">
  <sodipodi:namedview
     id="namedview1"
     pagecolor="#ffffff"
     bordercolor="#000000"
     borderopacity="0.25"
     inkscape:showpageshadow="2"
     inkscape:pageopacity="0.0"
     inkscape:pagecheckerboard="0"
     inkscape:deskcolor="#d1d1d1"
     inkscape:zoom="1.1588542"
     inkscape:cx="37.96854"
     inkscape:cy="109.15955"
     inkscape:window-width="1366"
     inkscape:window-height="719"
     inkscape:window-x="0"
     inkscape:window-y="0"
     inkscape:window-maximized="1"
     inkscape:current-layer="svg1" />
  <defs
     id="defs1">
    <rect
       x="69.848149"
       y="107.33927"
       width="58.071187"
       height="20.156277"
       id="rect3" />
    <rect
       x="54.750541"
       y="121.32119"
       width="95.137567"
       height="38.480636"
       id="rect2" />
  </defs>
  <rect
     class="cls-5"
     width="40.216667"
     height="40.216667"
     rx="2.6299582"
     ry="2.6299582"
     id="rect1"
     x="5.291666"
     y="5.291666"
     style="fill:#c39a54;fill-opacity:1;stroke-width:0.264583" />
  <g
     id="g4"
     transform="matrix(0.04380455,0,0,0.04380455,14.816667,14.816662)">
			<path
   d="m 256.393,180.091 24.313,24.327 c 0.732,0.732 1.725,1.144 2.76,1.144 1.035,0 2.027,-0.412 2.76,-1.144 l 26.87,-26.892 c 5.386,-5.335 12.529,-8.27 20.09,-8.27 7.566,0 14.711,2.935 20.168,8.356 l 26.811,26.808 c 0.73,0.731 1.724,1.143 2.758,1.142 1.035,0 2.027,-0.411 2.76,-1.143 l 27.295,-27.311 c 5.385,-5.335 12.522,-8.27 20.089,-8.27 7.679,0 13.82,3.438 17.407,6.081 0.887,0.653 2.02,0.871 3.085,0.592 1.065,-0.278 1.946,-1.024 2.399,-2.026 l 11.084,-24.499 c 2.698,-5.956 2.92,-12.735 0.611,-18.849 -2.291,-6.12 -6.936,-11.071 -12.885,-13.764 L 314.588,52.931 C 302.192,47.32 287.594,52.82 281.975,65.218 l -47.201,104.263 c -0.224,0.494 -0.182,1.067 0.112,1.522 0.294,0.455 0.798,0.731 1.341,0.731 v 0 c 7.566,0 14.708,2.943 20.166,8.357 z"
   id="path1"
   style="fill:#ffffff" />

			<path
   d="m 45.418,168.866 c 0.476,1.632 1.955,2.771 3.654,2.81 3.766,0.086 10.859,1.323 18.366,8.423 4.837,4.574 18.415,18.322 24.281,24.277 0.729,0.741 1.726,1.16 2.765,1.164 1.039,0.004 2.038,-0.408 2.773,-1.143 l 24.391,-24.393 c 5.379,-5.335 12.523,-8.27 20.084,-8.27 7.566,0 14.71,2.935 20.168,8.356 l 24.324,24.34 c 1.52,1.52 3.979,1.525 5.506,0.013 5.988,-5.936 20.018,-19.838 24.729,-24.455 0.961,-0.941 1.324,-2.336 0.947,-3.626 L 192.976,92.573 C 190.607,84.498 182.162,79.86 174.068,82.208 161.07,86.005 147.478,78.536 143.663,65.54 l -6.638,-22.771 -80.118,23.366 6.637,22.766 c 3.784,13.001 -3.673,26.609 -16.663,30.393 -8.099,2.362 -12.744,10.843 -10.391,18.927 z"
   id="path2"
   style="fill:#ffffff" />

			<path
   d="m 52.89,49.445 78.577,-22.896 -2.354,-8.092 C 125.303,5.392 111.616,-2.108 98.559,1.706 l -31.277,9.116 c -6.281,1.83 -11.566,6.075 -14.705,11.811 -3.145,5.728 -3.877,12.476 -2.041,18.754 z"
   id="path3"
   style="fill:#ffffff" />

			<path
   d="m 479.287,237.352 -43.102,-43.111 c -0.828,-0.826 -1.945,-1.296 -3.12,-1.296 -1.179,0 -2.292,0.47 -3.126,1.296 l -43.896,43.913 c -0.828,0.823 -1.947,1.293 -3.12,1.293 -1.179,0 -2.292,-0.462 -3.12,-1.293 l -43.49,-43.498 c -0.834,-0.823 -1.947,-1.293 -3.127,-1.293 -1.174,0 -2.291,0.47 -3.121,1.293 l -43.472,43.498 c -0.835,0.823 -1.948,1.293 -3.126,1.293 -1.176,0 -2.287,-0.47 -3.123,-1.293 l -40.99,-41.017 c -0.836,-0.826 -1.947,-1.296 -3.127,-1.296 -1.174,0 -2.287,0.47 -3.121,1.296 l -41.008,41.017 c -0.834,0.823 -1.946,1.293 -3.127,1.293 -1.173,0 -2.285,-0.47 -3.121,-1.293 l -40.991,-41.017 c -0.835,-0.826 -1.946,-1.296 -3.126,-1.296 -1.174,0 -2.287,0.47 -3.121,1.296 l -41.008,41.017 c -0.834,0.823 -1.948,1.293 -3.127,1.293 -1.174,0 -2.287,-0.47 -3.121,-1.293 L 50.381,197.137 c -0.834,-0.826 -1.947,-1.296 -3.126,-1.296 -1.175,0 -2.292,0.47 -3.122,1.296 L 3.926,237.352 C 1.412,239.864 0,243.277 0,246.832 V 482.495 H 0.015 483.207 V 246.832 c 0,-3.555 -1.412,-6.968 -3.92,-9.48 z"
   id="path4"
   style="fill:#ffffff" />
<path
   style="font-weight:500;font-size:13.3333px;font-family:Now;-inkscape-font-specification:'Now Medium';text-align:center;text-anchor:middle;white-space:pre;fill:#c39a54;stroke-width:6.04009"
   d="M 128.50314,323.74948 H 86.725977 v 9.16076 h 16.006193 v 51.24 h 9.76478 v -51.24 h 16.00619 z m 50.2333,0 v 44.79722 l -33.5224,-44.79722 h -9.86546 v 60.40076 h 9.86546 v -44.89791 l 33.42173,44.89791 h 9.86545 v -60.40076 z m 63.01816,40.06583 c -0.20132,-12.08017 -9.06011,-20.73761 -21.24092,-20.73761 -12.28148,0 -21.54293,8.85881 -21.54293,20.93893 0,12.08018 9.16078,20.93893 21.64359,20.93893 10.3688,0 18.12022,-6.14071 20.43558,-14.89884 h -9.56345 c -1.71135,4.22806 -5.73807,6.9461 -10.87213,6.9461 -6.74474,0 -11.47614,-4.73138 -11.97948,-11.47617 h 33.01907 z m -21.14026,-12.68418 c 5.23473,0 8.95944,2.91942 10.6708,7.55011 h -21.84493 c 1.81202,-4.53007 5.73807,-7.55011 11.17413,-7.55011 z m 54.96461,-27.38165 h -23.65697 v 60.40076 h 9.86545 v -25.67032 h 13.79152 c 9.76477,0 17.41556,-7.44942 17.41556,-17.21425 0,-9.66408 -7.65079,-17.51619 -17.41556,-17.51619 z m -1.40934,26.17363 h -12.38218 v -17.21419 h 12.38218 c 5.23471,0 9.16076,3.42274 9.16076,8.65744 0,5.33539 -3.92605,8.55675 -9.16076,8.55675 z m 26.47564,34.22713 h 18.1202 c 16.71087,0 30.20032,-13.48951 30.20032,-30.20038 0,-16.71087 -13.48945,-30.20038 -30.20032,-30.20038 h -18.1202 z m 9.76477,-9.16082 v -42.07918 h 8.35543 c 11.47611,0 20.43555,8.95944 20.43555,21.03962 0,12.08011 -8.95944,21.03956 -20.43555,21.03956 z m 66.3401,9.96614 c 10.87216,0 19.73091,-6.44272 19.73091,-17.31488 0,-21.44225 -28.58967,-16.20755 -28.58967,-28.58967 0,-4.73138 3.72468,-6.9461 8.15406,-6.9461 4.02675,0 7.6508,1.81203 10.36884,5.23477 l 6.94604,-6.3421 c -3.82537,-4.73138 -10.16746,-8.05343 -17.31488,-8.05343 -9.46276,0 -18.01952,5.9394 -18.01952,16.81156 0,20.03286 28.58967,15.10016 28.58967,27.88497 0,4.9327 -4.12737,7.85212 -9.76476,7.85212 -6.14078,0 -10.77147,-3.42274 -12.88551,-8.55681 l -8.45612,5.13407 c 3.52337,7.55011 11.5768,12.8855 21.24094,12.8855 z"
   id="text1"
   aria-label="TNePDS" />

		</g>
</svg>
