<?xml version="1.0" encoding="UTF-8"?>
<svg version="1.1" viewBox="0 0 192 192" xml:space="preserve" xmlns="http://www.w3.org/2000/svg">
	 <rect class="a" x="20" y="20" width="152" height="152" rx="10" fill="#8c72bd"/><path d="m101.17 107.28c-5.2187-1.5306-9.3802-4.6829-10.185-7.715-1.1714-4.4137 2.7715-10.694 7.9603-12.68 2.8607-1.0947 3.877-1.0194 5.99 0.444l1.8042 1.2496 1.6207-1.1568c1.3311-0.95006 1.9667-1.1535 3.5572-1.1383 6.872 0.0655 12.891 8.8346 9.9504 14.498-1.4542 2.8009-5.4704 5.4711-10.006 6.6524-2.8342 0.73822-7.9002 0.66553-10.692-0.15342zm17.08-8.2907c2.9485 0.0426 3.2595-0.0132 2.6431-0.47378-1.5137-1.131-4.5657-1.4146-8.3819-0.77885-4.517 0.75253-7.1549 0.75229-11.259-1e-3 -3.557-0.65282-5.5238-0.51308-7.8795 0.55984l-1.4852 0.67648 4.4218 0.0486c2.432 0.0268 4.5206 0.15388 4.6413 0.28249 0.12069 0.1286 3.3106 0.0998 7.0886-0.0641 3.778-0.16388 8.3729-0.27626 10.211-0.24974z" fill="#ff837d" stroke-width=".3713"/><path d="m92.072 98.451c0-0.62404 1.7397-2.8786 3.241-4.2 2.3076-2.0312 5.9938-3.182 8.958-2.7965 1.1529 0.14996 2.5975 0.22114 3.2101 0.15821 3.3758-0.34676 6.3688-0.0745 8.0336 0.73087 2.3618 1.1425 4.6549 3.1812 5.5487 4.9332l0.74666 1.4636-1.0988-0.5682c-1.9016-0.98338-4.9393-1.1063-9.8302-0.39766-4.2794 0.62001-4.7651 0.62319-7.8789 0.0517-4.4185-0.81097-7.3771-0.7714-9.3521 0.12507-0.86792 0.39395-1.578 0.61887-1.578 0.4998z" fill="#f9de81" stroke-width=".3713"/><text x="78.363213" y="87.65757" fill="#f9de81" font-family="Now" font-size="34.16px" font-weight="bold" stroke-linecap="round" stroke-linejoin="round" stroke-width="36.6" text-align="center" text-anchor="middle" xml:space="preserve"><tspan x="78.363213" y="87.65757" fill="#f9de81" stroke-width="36.6">T</tspan></text><text x="78.270386" y="116.71206" fill="#ff837d" font-family="Now" font-size="34.16px" font-weight="bold" stroke-linecap="round" stroke-linejoin="round" stroke-width="36.6" text-align="center" text-anchor="middle" xml:space="preserve"><tspan x="78.270386" y="116.71206" fill="#ff837d" stroke-width="36.6">T</tspan></text><text x="77.4356" y="137.57332" fill="#ff837d" font-family="Now" font-size="25.835px" font-weight="bold" stroke-linecap="round" stroke-linejoin="round" stroke-width="27.68" text-align="center" text-anchor="middle" xml:space="preserve"><tspan x="77.4356" y="137.57332" stroke-width="27.68">K</tspan></text><text x="104.9691" y="138.92009" fill="#f9de81" font-family="Now" font-size="37.212px" font-weight="bold" stroke-linecap="round" stroke-linejoin="round" stroke-width="39.87" text-align="center" text-anchor="middle" xml:space="preserve"><tspan x="104.9691" y="138.92009" stroke-width="39.87">EI</tspan></text><rect x="93.465" y="61.573" width="29.531" height="22.093" ry="3.1085" fill="#f9de81" stroke-linecap="round" stroke-linejoin="round" stroke-width="8.8814"/><rect x="95.884" y="63.384" width="24.692" height="18.472" ry="2.5991" fill="#ff837d" stroke-linecap="round" stroke-linejoin="round" stroke-width="7.4261"/><text x="108.24184" y="79.649223" fill="#8c72bd" font-family="Now" font-size="18.745px" font-weight="bold" stroke-linecap="round" stroke-linejoin="round" stroke-width="20.084" text-align="center" text-anchor="middle" xml:space="preserve"><tspan x="108.24184" y="79.649223" stroke-width="20.084">O</tspan></text><path d="m102.84 56.187 5.3869 5.3869 5.5201-5.5201" fill="none" stroke="#f9de81" stroke-linecap="round" stroke-linejoin="round" stroke-width="1.8565"/><ellipse cx="101.91" cy="55.274" rx="2.2309" ry="2.1938" fill="#f9de81"/><ellipse cx="114.68" cy="55.274" rx="2.2309" ry="2.1938" fill="#f9de81"/></svg>
