<svg id="Camada_1" data-name="Camada 1" xmlns="http://www.w3.org/2000/svg" viewBox="0 0 192 192"><defs><style>.cls-1{fill:#56595b;}.cls-2{fill:#ececec;isolation:isolate;}.cls-3{fill:none;stroke:#56595b;stroke-linecap:round;stroke-width:9px;}</style></defs><path class="cls-1" d="M173.9,32H160V18.1A10.07,10.07,0,0,0,149.9,8H42.1A10.07,10.07,0,0,0,32,18.1V32H18.1A10.07,10.07,0,0,0,8,42.1V149.9A10.07,10.07,0,0,0,18.1,160H173.9A10.07,10.07,0,0,0,184,149.9V42.1A10.07,10.07,0,0,0,173.9,32Z"/><path id="rect10" class="cls-2" d="M172,52.21v87.58a8.46,8.46,0,0,1-8.72,8.21H28.72A8.46,8.46,0,0,1,20,139.79V52.21A8.46,8.46,0,0,1,28.72,44H163.28A8.46,8.46,0,0,1,172,52.21Z"/><rect class="cls-3" x="67.01" y="68.82" width="57.97" height="27.11" rx="3.58"/><rect class="cls-1" x="30.36" y="78.72" width="36.96" height="7.32"/><rect class="cls-1" x="124.69" y="78.72" width="36.86" height="7.32"/><path class="cls-2" d="M53.82,53.56V28.42h84.36V53.56H148V28.21A8.19,8.19,0,0,0,139.79,20H52.21A8.19,8.19,0,0,0,44,28.21V53.56Z"/></svg>