<?xml version="1.0" encoding="UTF-8"?>
<!DOCTYPE svg PUBLIC "-//W3C//DTD SVG 1.1//EN" "http://www.w3.org/Graphics/SVG/1.1/DTD/svg11.dtd">
<svg xmlns="http://www.w3.org/2000/svg" version="1.1" width="192px" height="192px" style="shape-rendering:geometricPrecision; text-rendering:geometricPrecision; image-rendering:optimizeQuality; fill-rule:evenodd; clip-rule:evenodd" xmlns:xlink="http://www.w3.org/1999/xlink">
<g><path style="opacity:1" fill="#1496e1" d="M 19.5,17.5 C 70.1667,17.5 120.833,17.5 171.5,17.5C 171.5,68.1667 171.5,118.833 171.5,169.5C 120.833,169.5 70.1667,169.5 19.5,169.5C 19.5,118.833 19.5,68.1667 19.5,17.5 Z"/></g>
<g><path style="opacity:1" fill="#80b1e2" d="M 123.5,27.5 C 104.944,27.3795 86.6105,27.7128 68.5,28.5C 68.1667,28.5 67.8333,28.5 67.5,28.5C 66.0413,28.4326 64.7079,28.7659 63.5,29.5C 64.2297,27.955 65.563,27.1216 67.5,27C 86.3379,26.1712 105.005,26.3378 123.5,27.5 Z"/></g>
<g><path style="opacity:1" fill="#d0dbea" d="M 68.5,28.5 C 86.6105,27.7128 104.944,27.3795 123.5,27.5C 124.514,28.6737 125.847,29.3404 127.5,29.5C 128.925,30.922 129.925,32.5887 130.5,34.5C 128.264,32.1067 125.597,30.2734 122.5,29C 111.48,28.2341 100.48,28.4008 89.5,29.5C 88.5,29.8333 87.5,30.1667 86.5,30.5C 87.2458,31.7362 87.5792,33.0695 87.5,34.5C 86.448,34.6495 85.448,34.4828 84.5,34C 83.7433,32.4878 82.7433,31.1545 81.5,30C 77.1866,29.2646 72.8533,28.7646 68.5,28.5 Z"/></g>
<g><path style="opacity:1" fill="#eaeaeb" d="M 67.5,28.5 C 67.8333,28.5 68.1667,28.5 68.5,28.5C 72.8533,28.7646 77.1866,29.2646 81.5,30C 82.7433,31.1545 83.7433,32.4878 84.5,34C 85.448,34.4828 86.448,34.6495 87.5,34.5C 87.5792,33.0695 87.2458,31.7362 86.5,30.5C 87.5,30.1667 88.5,29.8333 89.5,29.5C 100.48,28.4008 111.48,28.2341 122.5,29C 125.597,30.2734 128.264,32.1067 130.5,34.5C 133.579,37.6505 135.913,41.3171 137.5,45.5C 138.919,46.4511 140.585,46.7845 142.5,46.5C 142.5,47.5 142.5,48.5 142.5,49.5C 142.5,50.1667 142.5,50.8333 142.5,51.5C 140.076,54.0078 138.41,57.0078 137.5,60.5C 135.412,62.3356 134.079,64.6689 133.5,67.5C 132.833,68.1667 132.167,68.8333 131.5,69.5C 120.828,69.6665 110.161,69.4998 99.5,69C 101.093,68.0513 102.426,66.8846 103.5,65.5C 105.104,64.713 105.771,63.3797 105.5,61.5C 105.087,57.6625 103.42,54.6625 100.5,52.5C 100.262,50.5956 99.2624,49.2623 97.5,48.5C 97.4431,47.391 97.1098,46.391 96.5,45.5C 94.9229,42.9832 93.0896,42.9832 91,45.5C 90.0043,49.5006 88.0043,52.8339 85,55.5C 84.5065,57.1341 84.3398,58.8008 84.5,60.5C 83.6618,60.8417 83.3284,61.5084 83.5,62.5C 81.461,63.911 80.461,65.911 80.5,68.5C 80.5386,69.7562 80.0386,70.7562 79,71.5C 77.2591,70.2423 75.4258,69.2423 73.5,68.5C 66.4569,63.4726 59.1236,58.8059 51.5,54.5C 48.1796,53.2387 47.8463,51.572 50.5,49.5C 53.4453,44.5549 56.7786,39.8883 60.5,35.5C 62.614,32.9302 64.9473,30.5968 67.5,28.5 Z"/></g>
<g><path style="opacity:1" fill="#c5d4e9" d="M 67.5,28.5 C 64.9473,30.5968 62.614,32.9302 60.5,35.5C 60.5569,34.391 60.8902,33.391 61.5,32.5C 61.7822,31.2223 62.4489,30.2223 63.5,29.5C 64.7079,28.7659 66.0413,28.4326 67.5,28.5 Z"/></g>
<g><path style="opacity:1" fill="#78aee2" d="M 127.5,29.5 C 131.858,32.3797 135.025,36.3797 137,41.5C 137.759,43.0629 138.926,44.0629 140.5,44.5C 139.791,45.404 138.791,45.7373 137.5,45.5C 135.913,41.3171 133.579,37.6505 130.5,34.5C 129.925,32.5887 128.925,30.922 127.5,29.5 Z"/></g>
<g><path style="opacity:1" fill="#79aee2" d="M 61.5,32.5 C 60.8902,33.391 60.5569,34.391 60.5,35.5C 56.7786,39.8883 53.4453,44.5549 50.5,49.5C 50.4914,47.6916 50.9914,46.0249 52,44.5C 54.7042,39.9817 57.8709,35.9817 61.5,32.5 Z"/></g>
<g><path style="opacity:1" fill="#d6deeb" d="M 142.5,49.5 C 142.5,48.5 142.5,47.5 142.5,46.5C 140.585,46.7845 138.919,46.4511 137.5,45.5C 138.791,45.7373 139.791,45.404 140.5,44.5C 141.167,44.5 141.5,44.1667 141.5,43.5C 143.311,42.178 145.311,41.678 147.5,42C 146.182,44.8239 144.515,47.3239 142.5,49.5 Z"/></g>
<g><path style="opacity:1" fill="#5ba3e1" d="M 142.5,51.5 C 142.5,50.8333 142.5,50.1667 142.5,49.5C 144.515,47.3239 146.182,44.8239 147.5,42C 145.311,41.678 143.311,42.178 141.5,43.5C 143.036,40.9078 145.369,39.9078 148.5,40.5C 148.66,42.1992 148.494,43.8659 148,45.5C 145.908,47.4747 144.075,49.4747 142.5,51.5 Z"/></g>
<g><path style="opacity:1" fill="#88b4e1" d="M 96.5,45.5 C 97.1098,46.391 97.4431,47.391 97.5,48.5C 96.4168,48.4606 95.4168,48.1272 94.5,47.5C 93.4822,48.1925 92.4822,48.8592 91.5,49.5C 91.7868,46.5159 93.4535,45.1826 96.5,45.5 Z"/></g>
<g><path style="opacity:1" fill="#ccd9ea" d="M 96.5,45.5 C 93.4535,45.1826 91.7868,46.5159 91.5,49.5C 90.3263,50.5137 89.6596,51.847 89.5,53.5C 87.5879,55.6572 85.9213,57.9906 84.5,60.5C 84.3398,58.8008 84.5065,57.1341 85,55.5C 88.0043,52.8339 90.0043,49.5006 91,45.5C 93.0896,42.9832 94.9229,42.9832 96.5,45.5 Z"/></g>
<g><path style="opacity:1" fill="#54a1e1" d="M 97.5,48.5 C 99.2624,49.2623 100.262,50.5956 100.5,52.5C 100.5,53.1667 100.5,53.8333 100.5,54.5C 98.7146,52.6224 96.7146,50.9558 94.5,49.5C 91.9706,51.9479 89.9706,54.6146 88.5,57.5C 88.8333,56.1667 89.1667,54.8333 89.5,53.5C 89.6596,51.847 90.3263,50.5137 91.5,49.5C 92.4822,48.8592 93.4822,48.1925 94.5,47.5C 95.4168,48.1272 96.4168,48.4606 97.5,48.5 Z"/></g>
<g><path style="opacity:1" fill="#81b1e2" d="M 89.5,53.5 C 89.1667,54.8333 88.8333,56.1667 88.5,57.5C 87.4077,60.0237 86.0743,62.357 84.5,64.5C 84.1667,64.5 83.8333,64.5 83.5,64.5C 83.5,63.8333 83.5,63.1667 83.5,62.5C 83.3284,61.5084 83.6618,60.8417 84.5,60.5C 85.9213,57.9906 87.5879,55.6572 89.5,53.5 Z"/></g>
<g><path style="opacity:1" fill="#c1d1ea" d="M 100.5,52.5 C 103.42,54.6625 105.087,57.6625 105.5,61.5C 104.079,58.9906 102.412,56.6572 100.5,54.5C 100.5,53.8333 100.5,53.1667 100.5,52.5 Z"/></g>
<g><path style="opacity:1" fill="#5fa5e1" d="M 142.5,51.5 C 141.578,54.1264 140.578,56.7931 139.5,59.5C 139.043,60.2975 138.376,60.6309 137.5,60.5C 138.41,57.0078 140.076,54.0078 142.5,51.5 Z"/></g>
<g><path style="opacity:1" fill="#54a1e1" d="M 100.5,54.5 C 102.412,56.6572 104.079,58.9906 105.5,61.5C 105.771,63.3797 105.104,64.713 103.5,65.5C 102.167,65.5 100.833,65.5 99.5,65.5C 100.456,64.3406 101.456,63.1739 102.5,62C 101.129,59.6813 100.462,57.1813 100.5,54.5 Z"/></g>
<g><path style="opacity:1" fill="#c6d5ea" d="M 83.5,62.5 C 83.5,63.1667 83.5,63.8333 83.5,64.5C 82.5,65.8333 81.5,67.1667 80.5,68.5C 80.461,65.911 81.461,63.911 83.5,62.5 Z"/></g>
<g><path style="opacity:1" fill="#74ace2" d="M 51.5,54.5 C 59.1236,58.8059 66.4569,63.4726 73.5,68.5C 65.318,64.9494 57.9847,60.2827 51.5,54.5 Z"/></g>
<g><path style="opacity:1" fill="#c0d2e9" d="M 99.5,65.5 C 100.833,65.5 102.167,65.5 103.5,65.5C 102.426,66.8846 101.093,68.0513 99.5,69C 110.161,69.4998 120.828,69.6665 131.5,69.5C 119.678,70.4951 107.678,70.8284 95.5,70.5C 96.4839,68.5201 97.8173,66.8534 99.5,65.5 Z"/></g>
<g><path style="opacity:1" fill="#cbd8ea" d="M 59.5,70.5 C 59.5,70.8333 59.5,71.1667 59.5,71.5C 50.1667,71.5 40.8333,71.5 31.5,71.5C 31.5,72.5 31.5,73.5 31.5,74.5C 30.1667,74.1667 28.8333,73.8333 27.5,73.5C 27.0472,72.5416 26.3805,71.7083 25.5,71C 36.8284,70.5001 48.1618,70.3335 59.5,70.5 Z"/></g>
<g><path style="opacity:1" fill="#78ade2" d="M 133.5,67.5 C 133.67,68.8221 133.337,69.9887 132.5,71C 119.993,71.8265 107.66,71.6599 95.5,70.5C 107.678,70.8284 119.678,70.4951 131.5,69.5C 132.167,68.8333 132.833,68.1667 133.5,67.5 Z"/></g>
<g><path style="opacity:1" fill="#b7cde8" d="M 153.5,71.5 C 153.5,72.1667 153.5,72.8333 153.5,73.5C 151.465,71.2699 149.132,70.9365 146.5,72.5C 146.5,72.1667 146.5,71.8333 146.5,71.5C 148.753,68.967 151.086,68.967 153.5,71.5 Z"/></g>
<g><path style="opacity:1" fill="#eaeaeb" d="M 59.5,71.5 C 61.7481,74.328 63.7481,77.328 65.5,80.5C 66.1103,82.4341 67.1103,84.1007 68.5,85.5C 69.1667,87.5 69.8333,89.5 70.5,91.5C 70.762,92.9778 70.4287,94.3112 69.5,95.5C 67.6837,94.2651 66.017,94.2651 64.5,95.5C 62.3256,98.5154 60.6589,101.849 59.5,105.5C 58.5082,107.456 57.5082,109.456 56.5,111.5C 55.4625,112.93 54.7959,114.597 54.5,116.5C 65.6544,117.495 76.9877,117.828 88.5,117.5C 88.5,123.833 88.5,130.167 88.5,136.5C 87.5128,141.305 87.1795,146.305 87.5,151.5C 77.4679,151.729 67.4679,151.396 57.5,150.5C 52.0166,148.356 47.3499,145.023 43.5,140.5C 40.1635,135.159 36.8302,129.825 33.5,124.5C 32.1168,122.022 31.1168,119.355 30.5,116.5C 30.281,115.325 30.6143,114.325 31.5,113.5C 35.3814,116.273 39.7147,117.606 44.5,117.5C 44.5,116.5 44.5,115.5 44.5,114.5C 38.1547,114.324 32.8214,111.991 28.5,107.5C 27.7368,105.632 26.7368,103.965 25.5,102.5C 25.6276,98.5832 26.6276,94.9166 28.5,91.5C 30.3433,89.1469 31.6766,86.4802 32.5,83.5C 36.6547,79.8183 36.3214,76.8183 31.5,74.5C 31.5,73.5 31.5,72.5 31.5,71.5C 40.8333,71.5 50.1667,71.5 59.5,71.5 Z"/></g>
<g><path style="opacity:1" fill="#53a1e1" d="M 83.5,64.5 C 83.8333,64.5 84.1667,64.5 84.5,64.5C 83.2504,67.006 82.5838,69.6726 82.5,72.5C 79.7276,72.78 77.2276,72.1134 75,70.5C 74.6667,70.8333 74.3333,71.1667 74,71.5C 73.5172,70.552 73.3505,69.552 73.5,68.5C 75.4258,69.2423 77.2591,70.2423 79,71.5C 80.0386,70.7562 80.5386,69.7562 80.5,68.5C 81.5,67.1667 82.5,65.8333 83.5,64.5 Z"/></g>
<g><path style="opacity:1" fill="#54a1e1" d="M 59.5,71.5 C 59.5,71.1667 59.5,70.8333 59.5,70.5C 61.3002,71.4734 63.1335,72.4734 65,73.5C 65.4966,75.8098 65.6633,78.1432 65.5,80.5C 63.7481,77.328 61.7481,74.328 59.5,71.5 Z"/></g>
<g><path style="opacity:1" fill="#eaebeb" d="M 153.5,73.5 C 154.11,74.391 154.443,75.391 154.5,76.5C 156.769,83.7048 160.102,90.3715 164.5,96.5C 165.186,101.12 163.686,104.787 160,107.5C 159.517,108.448 159.351,109.448 159.5,110.5C 156.886,110.277 155.219,111.444 154.5,114C 155.793,114.49 157.127,114.657 158.5,114.5C 158.5,116.167 158.5,117.833 158.5,119.5C 157.624,119.369 156.957,119.702 156.5,120.5C 153.871,126.085 151.538,131.751 149.5,137.5C 147.167,141.833 143.833,145.167 139.5,147.5C 131.555,149.754 123.555,151.087 115.5,151.5C 114.325,152.974 113.325,154.64 112.5,156.5C 111.265,155.66 110.265,154.66 109.5,153.5C 108.833,153.167 108.167,152.833 107.5,152.5C 105.909,149.648 104.576,146.648 103.5,143.5C 101.326,139.811 100.326,135.811 100.5,131.5C 102.997,125.835 105.997,120.502 109.5,115.5C 110.721,114.972 111.887,114.305 113,113.5C 113.417,114.756 114.25,115.423 115.5,115.5C 115.5,116.167 115.833,116.5 116.5,116.5C 126.658,117.659 136.992,117.825 147.5,117C 148.833,116.333 148.833,115.667 147.5,115C 144.167,114.667 140.833,114.333 137.5,114C 134.737,110.416 132.07,106.916 129.5,103.5C 128.833,102.833 128.167,102.167 127.5,101.5C 126.833,99.5 126.167,97.5 125.5,95.5C 124.844,93.516 124.178,91.516 123.5,89.5C 125.16,87.5056 126.827,85.5056 128.5,83.5C 129.5,83.1667 130.167,82.5 130.5,81.5C 131.167,81.5 131.833,81.5 132.5,81.5C 137.896,79.4786 142.563,76.4786 146.5,72.5C 149.132,70.9365 151.465,71.2699 153.5,73.5 Z"/></g>
<g><path style="opacity:1" fill="#c7d5ea" d="M 146.5,72.5 C 142.563,76.4786 137.896,79.4786 132.5,81.5C 134.249,79.4842 136.249,77.8175 138.5,76.5C 140.921,74.7622 143.588,73.4289 146.5,72.5 Z"/></g>
<g><path style="opacity:1" fill="#68a7e1" d="M 153.5,71.5 C 161.992,80.5996 165.992,91.2663 165.5,103.5C 165.802,100.941 165.468,98.6074 164.5,96.5C 162.202,89.2365 158.868,82.5698 154.5,76.5C 154.443,75.391 154.11,74.391 153.5,73.5C 153.5,72.8333 153.5,72.1667 153.5,71.5 Z"/></g>
<g><path style="opacity:1" fill="#79aee2" d="M 27.5,73.5 C 28.8333,73.8333 30.1667,74.1667 31.5,74.5C 36.3214,76.8183 36.6547,79.8183 32.5,83.5C 33.0138,81.4884 33.1805,79.4884 33,77.5C 30.833,76.5119 28.9997,75.1786 27.5,73.5 Z"/></g>
<g><path style="opacity:1" fill="#67a7e1" d="M 146.5,71.5 C 146.5,71.8333 146.5,72.1667 146.5,72.5C 143.588,73.4289 140.921,74.7622 138.5,76.5C 137.167,76.8333 135.833,77.1667 134.5,77.5C 137.389,73.3889 141.389,71.3889 146.5,71.5 Z"/></g>
<g><path style="opacity:1" fill="#8fb8e2" d="M 138.5,76.5 C 136.249,77.8175 134.249,79.4842 132.5,81.5C 131.833,81.5 131.167,81.5 130.5,81.5C 131.167,80.5 131.833,79.5 132.5,78.5C 133.167,78.1667 133.833,77.8333 134.5,77.5C 135.833,77.1667 137.167,76.8333 138.5,76.5 Z"/></g>
<g><path style="opacity:1" fill="#65a6e2" d="M 65.5,80.5 C 67.7593,81.344 68.7593,83.0107 68.5,85.5C 67.1103,84.1007 66.1103,82.4341 65.5,80.5 Z"/></g>
<g><path style="opacity:1" fill="#c8d6e9" d="M 154.5,76.5 C 158.868,82.5698 162.202,89.2365 164.5,96.5C 160.102,90.3715 156.769,83.7048 154.5,76.5 Z"/></g>
<g><path style="opacity:1" fill="#80b0e2" d="M 132.5,78.5 C 131.833,79.5 131.167,80.5 130.5,81.5C 130.167,82.5 129.5,83.1667 128.5,83.5C 126.405,84.412 124.405,85.5787 122.5,87C 121.663,88.0113 121.33,89.1779 121.5,90.5C 120.402,89.3991 120.235,88.0657 121,86.5C 124.456,83.198 128.289,80.5313 132.5,78.5 Z"/></g>
<g><path style="opacity:1" fill="#6ba9e2" d="M 32.5,83.5 C 31.6766,86.4802 30.3433,89.1469 28.5,91.5C 28.3118,87.948 29.6452,85.2814 32.5,83.5 Z"/></g>
<g><path style="opacity:1" fill="#d2dcea" d="M 128.5,83.5 C 126.827,85.5056 125.16,87.5056 123.5,89.5C 124.178,91.516 124.844,93.516 125.5,95.5C 123.926,94.0158 122.593,92.3492 121.5,90.5C 121.33,89.1779 121.663,88.0113 122.5,87C 124.405,85.5787 126.405,84.412 128.5,83.5 Z"/></g>
<g><path style="opacity:1" fill="#77ade2" d="M 28.5,91.5 C 26.6276,94.9166 25.6276,98.5832 25.5,102.5C 23.8484,98.1299 24.8484,94.4632 28.5,91.5 Z"/></g>
<g><path style="opacity:1" fill="#c3d3ea" d="M 70.5,91.5 C 71.8333,91.5 72.5,92.1667 72.5,93.5C 72.427,95.0269 73.0937,96.0269 74.5,96.5C 74.5394,97.5832 74.8728,98.5832 75.5,99.5C 75,99.8333 74.5,100.167 74,100.5C 71.7924,99.0633 69.6257,97.7299 67.5,96.5C 66.791,95.596 65.791,95.2627 64.5,95.5C 66.017,94.2651 67.6837,94.2651 69.5,95.5C 70.4287,94.3112 70.762,92.9778 70.5,91.5 Z"/></g>
<g><path style="opacity:1" fill="#80b1e2" d="M 72.5,93.5 C 73.9063,93.9731 74.573,94.9731 74.5,96.5C 73.0937,96.0269 72.427,95.0269 72.5,93.5 Z"/></g>
<g><path style="opacity:1" fill="#67a7e1" d="M 64.5,95.5 C 65.791,95.2627 66.791,95.596 67.5,96.5C 66.5,96.5 65.5,96.5 64.5,96.5C 64.0871,100.338 62.4205,103.338 59.5,105.5C 60.6589,101.849 62.3256,98.5154 64.5,95.5 Z"/></g>
<g><path style="opacity:1" fill="#68a7e1" d="M 25.5,102.5 C 26.7368,103.965 27.7368,105.632 28.5,107.5C 27.1938,108.467 26.5271,109.801 26.5,111.5C 25.5233,108.713 25.19,105.713 25.5,102.5 Z"/></g>
<g><path style="opacity:1" fill="#71abe2" d="M 127.5,101.5 C 128.167,102.167 128.833,102.833 129.5,103.5C 130.11,104.391 130.443,105.391 130.5,106.5C 128.241,105.656 127.241,103.989 127.5,101.5 Z"/></g>
<g><path style="opacity:1" fill="#d4ddea" d="M 164.5,96.5 C 165.468,98.6074 165.802,100.941 165.5,103.5C 163.961,107.778 162.294,112.111 160.5,116.5C 159.833,117.5 159.167,118.5 158.5,119.5C 158.5,117.833 158.5,116.167 158.5,114.5C 157.127,114.657 155.793,114.49 154.5,114C 155.219,111.444 156.886,110.277 159.5,110.5C 159.351,109.448 159.517,108.448 160,107.5C 163.686,104.787 165.186,101.12 164.5,96.5 Z"/></g>
<g><path style="opacity:1" fill="#d4ddeb" d="M 115.5,107.5 C 115.5,110.167 115.5,112.833 115.5,115.5C 114.25,115.423 113.417,114.756 113,113.5C 111.887,114.305 110.721,114.972 109.5,115.5C 110.399,112.605 111.733,109.938 113.5,107.5C 114.167,106.167 114.833,106.167 115.5,107.5 Z"/></g>
<g><path style="opacity:1" fill="#d2dcea" d="M 28.5,107.5 C 32.8214,111.991 38.1547,114.324 44.5,114.5C 44.5,115.5 44.5,116.5 44.5,117.5C 39.7147,117.606 35.3814,116.273 31.5,113.5C 30.6143,114.325 30.281,115.325 30.5,116.5C 30.1667,116.5 29.8333,116.5 29.5,116.5C 28.8897,114.566 27.8897,112.899 26.5,111.5C 26.5271,109.801 27.1938,108.467 28.5,107.5 Z"/></g>
<g><path style="opacity:1" fill="#479de1" d="M 130.5,106.5 C 131.486,108.426 132.486,110.426 133.5,112.5C 133.5,113.5 133.5,114.5 133.5,115.5C 127.833,115.5 122.167,115.5 116.5,115.5C 116.806,112.615 116.473,109.948 115.5,107.5C 114.833,106.167 114.167,106.167 113.5,107.5C 113.167,107.5 112.833,107.5 112.5,107.5C 113.455,105.29 114.955,104.957 117,106.5C 117.497,109.146 117.664,111.813 117.5,114.5C 122.167,114.5 126.833,114.5 131.5,114.5C 131.167,111.833 130.833,109.167 130.5,106.5 Z"/></g>
<g><path style="opacity:1" fill="#73abe2" d="M 26.5,111.5 C 27.8897,112.899 28.8897,114.566 29.5,116.5C 27.2407,115.656 26.2407,113.989 26.5,111.5 Z"/></g>
<g><path style="opacity:1" fill="#82b1e3" d="M 56.5,111.5 C 56.5,112.833 56.5,114.167 56.5,115.5C 67.6794,115.172 78.6794,115.505 89.5,116.5C 77.8333,116.5 66.1667,116.5 54.5,116.5C 54.7959,114.597 55.4625,112.93 56.5,111.5 Z"/></g>
<g><path style="opacity:1" fill="#85b3e3" d="M 115.5,107.5 C 116.473,109.948 116.806,112.615 116.5,115.5C 122.167,115.5 127.833,115.5 133.5,115.5C 133.5,114.5 133.5,113.5 133.5,112.5C 134.434,113.568 134.768,114.901 134.5,116.5C 128.5,116.5 122.5,116.5 116.5,116.5C 115.833,116.5 115.5,116.167 115.5,115.5C 115.5,112.833 115.5,110.167 115.5,107.5 Z"/></g>
<g><path style="opacity:1" fill="#6aa8e1" d="M 165.5,103.5 C 165.143,107.263 164.31,110.93 163,114.5C 162.583,115.756 161.75,116.423 160.5,116.5C 162.294,112.111 163.961,107.778 165.5,103.5 Z"/></g>
<g><path style="opacity:1" fill="#d0dbea" d="M 54.5,116.5 C 66.1667,116.5 77.8333,116.5 89.5,116.5C 89.824,123.354 89.4907,130.021 88.5,136.5C 88.5,130.167 88.5,123.833 88.5,117.5C 76.9877,117.828 65.6544,117.495 54.5,116.5 Z"/></g>
<g><path style="opacity:1" fill="#cfdae9" d="M 129.5,103.5 C 132.07,106.916 134.737,110.416 137.5,114C 140.833,114.333 144.167,114.667 147.5,115C 148.833,115.667 148.833,116.333 147.5,117C 136.992,117.825 126.658,117.659 116.5,116.5C 122.5,116.5 128.5,116.5 134.5,116.5C 134.768,114.901 134.434,113.568 133.5,112.5C 132.486,110.426 131.486,108.426 130.5,106.5C 130.443,105.391 130.11,104.391 129.5,103.5 Z"/></g>
<g><path style="opacity:1" fill="#70aae2" d="M 160.5,116.5 C 160.975,119.313 159.975,121.313 157.5,122.5C 157.557,121.391 157.89,120.391 158.5,119.5C 159.167,118.5 159.833,117.5 160.5,116.5 Z"/></g>
<g><path style="opacity:1" fill="#6da9e2" d="M 29.5,116.5 C 29.8333,116.5 30.1667,116.5 30.5,116.5C 31.1168,119.355 32.1168,122.022 33.5,124.5C 30.5926,122.685 29.2593,120.019 29.5,116.5 Z"/></g>
<g><path style="opacity:1" fill="#75ace2" d="M 112.5,107.5 C 112.833,107.5 113.167,107.5 113.5,107.5C 111.733,109.938 110.399,112.605 109.5,115.5C 105.997,120.502 102.997,125.835 100.5,131.5C 99.0687,132.78 98.4021,134.447 98.5,136.5C 97.4017,135.399 97.235,134.066 98,132.5C 102.355,123.776 107.188,115.443 112.5,107.5 Z"/></g>
<g><path style="opacity:1" fill="#d2dcea" d="M 158.5,119.5 C 157.89,120.391 157.557,121.391 157.5,122.5C 154.93,127.311 152.597,132.311 150.5,137.5C 150.167,137.5 149.833,137.5 149.5,137.5C 151.538,131.751 153.871,126.085 156.5,120.5C 156.957,119.702 157.624,119.369 158.5,119.5 Z"/></g>
<g><path style="opacity:1" fill="#d4ddea" d="M 100.5,131.5 C 100.326,135.811 101.326,139.811 103.5,143.5C 102.272,142.694 101.272,141.694 100.5,140.5C 100.34,138.847 99.6737,137.514 98.5,136.5C 98.4021,134.447 99.0687,132.78 100.5,131.5 Z"/></g>
<g><path style="opacity:1" fill="#52a1e1" d="M 33.5,124.5 C 36.8302,129.825 40.1635,135.159 43.5,140.5C 41.8583,138.919 39.8583,138.253 37.5,138.5C 35.6232,134.054 34.2898,129.387 33.5,124.5 Z"/></g>
<g><path style="opacity:1" fill="#79aee2" d="M 43.5,140.5 C 47.3499,145.023 52.0166,148.356 57.5,150.5C 58.2625,151.268 59.2625,151.768 60.5,152C 69.8274,152.5 79.1607,152.666 88.5,152.5C 79.0089,153.658 69.3422,153.825 59.5,153C 52.3914,150.964 47.0581,146.797 43.5,140.5 Z"/></g>
<g><path style="opacity:1" fill="#68a7e1" d="M 149.5,137.5 C 149.833,137.5 150.167,137.5 150.5,137.5C 147.952,144.053 143.285,148.053 136.5,149.5C 137.5,148.833 138.5,148.167 139.5,147.5C 143.833,145.167 147.167,141.833 149.5,137.5 Z"/></g>
<g><path style="opacity:1" fill="#70abe1" d="M 100.5,140.5 C 101.272,141.694 102.272,142.694 103.5,143.5C 104.576,146.648 105.909,149.648 107.5,152.5C 106.357,152.092 105.357,151.425 104.5,150.5C 102.777,147.268 101.444,143.935 100.5,140.5 Z"/></g>
<g><path style="opacity:1" fill="#d0dbea" d="M 139.5,147.5 C 138.5,148.167 137.5,148.833 136.5,149.5C 129.649,151.284 122.649,151.95 115.5,151.5C 123.555,151.087 131.555,149.754 139.5,147.5 Z"/></g>
<g><path style="opacity:1" fill="#cfdaea" d="M 88.5,136.5 C 88.5,141.833 88.5,147.167 88.5,152.5C 79.1607,152.666 69.8274,152.5 60.5,152C 59.2625,151.768 58.2625,151.268 57.5,150.5C 67.4679,151.396 77.4679,151.729 87.5,151.5C 87.1795,146.305 87.5128,141.305 88.5,136.5 Z"/></g>
<g><path style="opacity:1" fill="#77ade2" d="M 136.5,149.5 C 135.653,150.966 134.32,151.8 132.5,152C 127.177,152.499 121.844,152.666 116.5,152.5C 116.5,156.167 116.5,159.833 116.5,163.5C 112.062,164.575 110.062,162.908 110.5,158.5C 112.104,159.287 112.771,160.62 112.5,162.5C 113.5,162.5 114.5,162.5 115.5,162.5C 115.5,158.833 115.5,155.167 115.5,151.5C 122.649,151.95 129.649,151.284 136.5,149.5 Z"/></g>
<g><path style="opacity:1" fill="#d3dcea" d="M 115.5,151.5 C 115.5,155.167 115.5,158.833 115.5,162.5C 114.5,162.5 113.5,162.5 112.5,162.5C 112.771,160.62 112.104,159.287 110.5,158.5C 109.962,156.883 109.629,155.216 109.5,153.5C 110.265,154.66 111.265,155.66 112.5,156.5C 113.325,154.64 114.325,152.974 115.5,151.5 Z"/></g>
<g><path style="opacity:1" fill="#87b4e2" d="M 107.5,152.5 C 108.167,152.833 108.833,153.167 109.5,153.5C 109.629,155.216 109.962,156.883 110.5,158.5C 108.755,156.967 107.755,154.967 107.5,152.5 Z"/></g>
</svg>
