<?xml version="1.0" encoding="UTF-8"?>
<svg version="1.1" viewBox="0 0 192 192" xml:space="preserve" xmlns="http://www.w3.org/2000/svg">
	 <rect class="a" x="20" y="20" width="152" height="152" rx="10" fill="#73ada4"/><rect x="67.079" y="60.723" width="57.842" height="71.777" rx="11.269" ry="11.269" fill="none" stroke="#fff" stroke-linecap="round" stroke-linejoin="round" stroke-width="6.9637"/><path d="m67.079 80.442s5.1192 7.2496 8.5926 9.9015c3.3265 2.5399 7.9961 2.8918 11.316 5.4404 3.4887 2.6782 8.5958 10.01 8.5958 10.01" fill="none" stroke="#fff" stroke-linecap="round" stroke-linejoin="round" stroke-width="6.9637"/><path d="m96 61.409v83.68" fill="none" stroke="#fff" stroke-linecap="round" stroke-linejoin="round" stroke-width="6.9637"/><path d="m96 125.92s4.5041-7.3084 7.744-10.01c3.5132-2.9298 8.5217-3.573 12.186-6.3109 3.4653-2.5888 8.9905-9.3575 8.9905-9.3575" fill="none" stroke="#fff" stroke-linecap="round" stroke-linejoin="round" stroke-width="6.9637"/><path d="m75.998 70.541c0.5052 9.6639 5.4607 12.943 12.622 13.057 0.29669-8.0118-3.6352-12.588-12.622-13.057z" fill="#96dfd3"/><path d="m75.998 106.66c0.5052 9.6639 5.4607 12.943 12.622 13.057 0.29669-8.0118-3.6352-12.588-12.622-13.057z" fill="#96dfd3"/><path d="m116.76 80.497c-0.5052 9.6639-5.4607 12.943-12.622 13.057-0.29669-8.0118 3.6352-12.588 12.622-13.057z" fill="#96dfd3"/></svg>
