<?xml version="1.0" encoding="UTF-8"?><svg id="a" xmlns="http://www.w3.org/2000/svg" width="192" height="192" viewBox="0 0 192 192"><g id="b"><g id="c"><rect x="19.5" y="19.5" width="153" height="153" rx="10" ry="10" style="fill:#8c72bd;"/><g><path d="M115.49,79.73c-5.27,0-8.77,1.93-11.07,4.87v-4.21h-6.41v43.8h6.41v-17.1c2.3,2.93,5.8,4.86,11.07,4.86,8.83,0,15.6-6.43,15.6-15.94s-6.77-16.27-15.6-16.27Zm-.77,26.47c-5.95,0-10.25-4.5-10.25-10.21s4.27-10.53,10.25-10.54h.01c5.98,0,9.96,4.83,9.96,10.54-.01,5.69-3.99,10.21-9.97,10.21Z" style="fill:#fff; fill-rule:evenodd;"/><path d="M65.08,96.94c.94-.66,1.83-1.4,2.64-2.22,1.53-1.52,2.8-3.26,3.76-5.17v8.24c0,5.12,2.82,8.08,7.57,8.08s8.74-2.95,8.74-8.08v-17.41h6.4v30.91h-6.44v-3.89c-1.03,1.58-3.98,4.53-9.71,4.53-8.48,0-12.98-5.28-12.98-12.79v-2.2Z" style="fill:#fff; fill-rule:evenodd;"/><path d="M51.08,100.48v-6.2c3.73-.01,7.31-1.48,9.97-4.07,1.3-1.29,2.34-2.82,3.05-4.5,.71-1.69,1.08-3.5,1.08-5.33h6.28c0,2.64-.53,5.26-1.56,7.7-1.02,2.44-2.53,4.65-4.41,6.51-3.85,3.78-9.03,5.9-14.42,5.9Z" style="fill:#fff; fill-rule:evenodd;"/></g></g></g><g id="d"/></svg>