<?xml version="1.0" encoding="UTF-8"?>
<svg version="1.1" viewBox="0 0 192 192" xml:space="preserve" xmlns="http://www.w3.org/2000/svg">
	 <rect class="a" x="20" y="20" width="152" height="152" rx="10" fill="#fff"/><text x="-252.79068" y="123.39013" fill="#56595b" font-family="Now" font-size="18.667px" font-weight="bold" xml:space="preserve"><tspan x="-252.79068" y="123.39013"/></text><rect x="121.13" y="94.406" width="14.791" height="12.921" rx="0" fill="#ff837d"/><g transform="matrix(.48162 0 0 .48162 176.69 49.363)" fill="#56595b" stroke-width="2.9777" aria-label="vélo'v"><path d="m-229.24 92.56-5.8363 18.273-5.9058-18.273h-9.4493l11.117 27.792h8.3376l11.256-27.792z"/><path d="m-191.24 78.595h-8.4071l-6.1142 10.353h5.8363zm3.5435 27.792c0-8.685-5.9753-14.452-14.938-14.452-8.9629 0-15.286 5.8363-15.286 14.521 0 8.685 6.2532 14.452 15.564 14.452 7.7123 0 12.854-4.0993 14.243-10.144h-8.546c-0.76428 2.2234-2.7792 3.5435-5.8363 3.5435-4.0298 0-6.1142-2.4318-6.4616-6.3922h21.261zm-14.799-7.6428c2.9876 0 4.7246 1.3896 5.6279 3.8214h-11.534c0.90324-2.3623 2.7792-3.8214 5.9058-3.8214z"/><path d="m-181.51 120.35h8.8935v-47.594h-8.8935z"/><path d="m-150.87 120.91c9.3103 0 15.425-6.1142 15.425-14.452 0-8.3376-6.1142-14.452-15.425-14.452-9.3103 0-15.494 6.1142-15.494 14.452 0 8.3376 6.1837 14.452 15.494 14.452zm0-7.8513c-3.8214-0.0695-6.6006-2.8487-6.6006-6.6006 0-3.7519 2.7792-6.5311 6.6006-6.6006 3.7519 0.06948 6.6006 2.8487 6.6006 6.6006 0 3.7519-2.8487 6.5311-6.6006 6.6006z"/><path d="m-127.17 94.784h6.1142l1.1117-16.675h-8.3376z"/><path d="m-94.172 92.56-5.8363 18.273-5.9058-18.273h-9.4493l11.117 27.792h8.3376l11.256-27.792z" fill="#fff"/></g></svg>
