<?xml version="1.0" encoding="UTF-8"?><svg id="uuid-d4adc3a2-5084-4558-8339-085a7b34acf8" xmlns="http://www.w3.org/2000/svg" width="192" height="192" xmlns:xlink="http://www.w3.org/1999/xlink" viewBox="0 0 192 192"><defs><clipPath id="uuid-e8ae3c1c-c6d4-40e0-8aec-1036d073198c"><path d="m77,60h0c6.08,0,11,4.92,11,11v14c0,6.08-4.92,11-11,11h0c-6.08,0-11-4.92-11-11v-14c0-6.08,4.92-11,11-11Z" fill="none" stroke-width="0"/></clipPath></defs><g id="uuid-98713a76-b6d9-4729-b2b1-aa17d4d3f8a4"><g id="uuid-4bb43150-5f29-47b2-95bf-d2b99e6d8046"><circle cx="96" cy="96" r="88" fill="#56595b" stroke-width="0"/><path d="m130.31,107.88l-4.18-6.84-3.69,11.57-4.25-16.33-3.54,22.86-3.76-32.27-3.85,38.59-3.76-49.63-3.85,55.95-3.44-55.79-3.88,49.47-4.12-35.27-4,27.8-1-17" fill="none" stroke="#96dfd3" stroke-miterlimit="1.5" stroke-width="3"/><path d="m57.58,91.24c2.02,7.6,7.85,12.3,16.01,13.73v7.78h6.46v-7.78c7.61-1.17,14.12-6.37,16.87-13.73h-39.34Z" fill="#56595b" stroke="#56595b" stroke-width="4.3"/><g clip-path="url(#uuid-e8ae3c1c-c6d4-40e0-8aec-1036d073198c)"><path d="m62,57h30v44h-30v-44Z" fill="#fff" stroke-width="0"/><circle cx="77" cy="52" r="32" fill="#d2d2d2" stroke-width="0"/></g><path d="m59.12,92c1.88,7.07,7.29,11.43,14.88,12.77v7.23h6v-7.23c7.07-1.09,13.12-5.92,15.68-12.77h-6.56c-3.87,6.7-12.43,8.99-19.12,5.13-2.13-1.23-3.9-3-5.13-5.13h-5.76Z" fill="#ecf4fa" stroke-width="0"/></g></g></svg>