<?xml version="1.0" encoding="UTF-8"?>
<svg version="1.1" viewBox="0 0 192 192" xmlns="http://www.w3.org/2000/svg">
 <rect class="a" x="20" y="20" width="152" height="152" rx="10" style="fill:#f9de81"/>
 <path d="m89.05 138.99c-0.56989-0.41672-1.3236-2.4562-2.057-5.5662-0.63662-2.6997-1.3039-5.0549-1.4828-5.2338-0.47821-0.47822-2.6225 2.3297-3.6579 4.79-0.9959 2.3664-1.6536 2.7544-1.6536 0.97544 0-0.83488-0.4969-1.4015-1.7554-2.0016-1.7048-0.81297-1.868-0.79547-5.6596 0.60704-2.1473 0.79428-5.9278 2.284-8.4012 3.3105-5.3592 2.2242-4.9749 2.4759-7.3656-4.8236-1.2234-3.7352-1.4962-5.157-1.0711-5.5821 0.62737-0.62737 11.658-2.3857 15.097-2.4064 2.4607-0.0148 4.0962 0.72449 8.4463 3.8181l3.0632 2.1784 2.6521-2.7682-1.9953-7.5319c-1.0974-4.1425-1.9972-7.6828-1.9996-7.8672-0.0025-0.18446 0.59356-0.53467 1.3243-0.77825 1.0358-0.34526 1.367-0.82569 1.5029-2.18 0.09588-0.95542 0.30186-2.2751 0.45773-2.9327 0.23651-0.9977 0.13349-1.1363-0.62253-0.8374-1.565 0.61872-8.3196 2.2845-9.2635 2.2845-2.0011 0-3.6042-1.3707-6.4199-5.489-6.6515-9.7286-13.099-25.618-11.531-28.419 0.33863-0.60508 1.2388-0.80465 3.6294-0.80465 8.0685 0 29.837 5.3965 32.171 7.9752 0.41993 0.46403 1.2586 3.3305 1.8638 6.37 0.60512 3.0395 1.1324 5.5689 1.1718 5.621 0.03934 0.0521 1.139-0.25677 2.4437-0.68629l2.3722-0.78094-0.9995-1.4037c-1.2815-1.7998-1.2609-2.4771 0.28552-9.3721l1.285-5.7296-1.1554-3.3864c-1.2287-3.6012-1.6066-9.6805-0.62276-10.018 0.29718-0.10184 1.3802 0.3848 2.4068 1.0814 1.2928 0.87734 1.9267 1.0744 2.0625 0.64127 0.10784-0.34392 0.56245-2.3534 1.0103-4.4654 0.46454-2.191 1.2021-4.1911 1.7174-4.6575 0.83597-0.75655 0.96555-0.74858 1.7398 0.10694 0.4601 0.5084 1.3646 2.4345 2.01 4.2801 0.64542 1.8457 1.2908 3.4731 1.4342 3.6165 0.14341 0.1434 0.8794-0.632 1.6356-1.7231 2.8769-4.1513 3.9931-2.9489 4.2272 4.5536l0.1702 5.4551 3.5427 3.9004c3.9872 4.3897 7.0044 8.6511 7.8234 11.049 0.76188 2.231 0.0883 4.3219-2.8347 8.7995l-2.4272 3.7181 1.2525 1.6242c2.0498 2.658 0.91807 2.3551-1.9796-0.52989-1.4845-1.478-3.265-3.0916-3.9567-3.5858l-1.2577-0.89863 1.2577 0.71605c0.69173 0.39384 1.7513 1.0216 2.3545 1.3951 0.98151 0.60767 1.2059 0.54964 2.1341-0.55195 1.9068-2.2629 1.8174-3.1542-0.70751-7.0574-2.7134-4.1946-9.3038-12.992-10.437-13.933-0.67226-0.55792-0.851-0.21833-1.3907 2.6422-0.34064 1.8053-0.81549 3.2824-1.0552 3.2824s-0.90905-0.92748-1.4874-2.0611c-0.57831-1.1336-1.1336-1.9789-1.234-1.8785-0.17223 0.17223-1.8424 8.5942-2.4892 12.552l-0.29764 1.8213 3.9094 0.24682c2.1502 0.13575 4.8809 0.64623 6.0683 1.1344 3.0865 1.2689 2.3908 1.3712-1.1575 0.17021-4.2381-1.4345-11.281-1.1326-15.668 0.67148l-3.096 1.2732-0.33761-2.7022c-0.24911-1.9938-0.62741-2.892-1.4431-3.4265-2.551-1.6715-19.641-7.2698-20.271-6.6402-0.14228 0.14227 0.80408 2.1012 2.103 4.3531 1.2989 2.252 2.2446 4.2115 2.1016 4.3546-0.14306 0.14306-1.407-0.32107-2.8088-1.0314-1.4018-0.71033-2.7858-1.2915-3.0757-1.2915-1.2821 0 6.5182 13.14 9.0798 15.295l1.4573 1.2262 2.6431-0.96608c1.4537-0.53134 2.6928-0.96607 2.7536-0.96607 0.06081 0-0.21898 0.934-0.62174 2.0756-0.97742 2.7703-0.97494 5.9737 0.0045 5.9737 1.1367 0 1.4732 1.0091 4.0686 12.2 1.3316 5.7414 2.6061 10.439 2.8324 10.439 0.22625 0 0.4128-0.39618 0.41456-0.88039 0.0074-2.0335 4.964-20.906 5.5958-21.306 0.99152-0.6281 4.6639-0.55269 5.3259 0.10938 0.30885 0.30885 1.7624 5.5115 3.23 11.562 1.4676 6.05 2.8184 10.721 3.0016 10.38 0.18322-0.34079 1.4086-5.2605 2.7232-10.933s2.6139-10.596 2.8875-10.942c0.61488-0.77719 3.9969-0.82968 4.7528-0.0738 0.40471 0.40472 0.15869 2.0059-0.90825 5.9112-0.80482 2.9458-2.3855 8.9937-3.5126 13.44s-2.2398 8.392-2.4727 8.7688c-0.59736 0.96655-6.0348 1.2843-7.1448 0.41747-0.54409-0.4249-1.6991-3.9619-3.17-9.7076-1.2727-4.9715-2.3949-9.1201-2.4939-9.219-0.22046-0.22046-0.21253-0.2508-2.5891 9.9073-1.0617 4.5378-2.2359 8.5561-2.6093 8.9296-0.87639 0.87639-5.6584 0.89128-6.8482 0.0213z" style="fill:#56595b;stroke-width:.50308"/>
</svg>
