<?xml version="1.0" encoding="UTF-8"?><svg id="uuid-cc63ed02-831a-4f51-8064-ad8054cb6fe8" xmlns="http://www.w3.org/2000/svg" width="192" height="192" xmlns:xlink="http://www.w3.org/1999/xlink" viewBox="0 0 192 192"><defs><clipPath id="uuid-385b0324-a214-409d-896e-8d377cb2a913"><circle cx="96" cy="96" r="88" fill="#56595b" stroke-width="0"/></clipPath></defs><g id="uuid-635f68fc-f668-4517-b176-a1b6dda48d50"><g id="uuid-af8d3a88-da3b-463d-ba40-2fdbc89760ea"><circle cx="96" cy="96" r="88" fill="#56595b"/><g clip-path="url(#uuid-385b0324-a214-409d-896e-8d377cb2a913)"><path d="m55.79,61.27L.22,134.06l15.31,17.49,42.84-56.85-3.78,27.01c-.33,2.35,1.05,4.6,3.29,5.37l16.47,5.69c2.18.75,4.59-.1,5.82-2.05l27.21-43.46c-1.31,8.75-3.5,28.87,15.74,35,30.18,9.18,56.42-45.05,68.67-72.6l-17.5-9.21c-13.55,28.42-34.55,59.91-42.86,57.73-6.69-1.75-.06-30.71,2.78-41.95.63-2.5-.75-5.07-3.19-5.91l-18.57-6.38c-2.2-.75-4.62.12-5.84,2.1l-29.84,48.66,3.74-24.31c.37-2.38-1.03-4.68-3.31-5.45l-15.87-5.35c-2.01-.68-4.23,0-5.52,1.69Z" fill="#fff" stroke-width="0"/></g></g></g></svg>