<?xml version="1.0" encoding="UTF-8"?><svg id="uuid-36a26c5f-5521-4b51-aae6-e3f49379ea60" xmlns="http://www.w3.org/2000/svg" width="192" height="192" viewBox="0 0 192 192"><g id="uuid-27c37e75-3040-44dc-875b-0613d65cf1fb"><g id="uuid-45b58c13-0114-48d1-8a75-75d11b5c69b0"><path d="m143.97,169.09h16.44c2.79,0,5.06-2.25,5.07-5.04,0,0,0,0,0-.01v-19.17h-32.01l5.66,20.51c.6,2.18,2.58,3.7,4.84,3.71Z" fill="#56595b" stroke-width="0"/><path d="m168.27,41.64l-2.8-.25c.63-10.53-12.16-17.77-19.24-17.73,0,0-68-.75-68-.75l-.49,128.85h87.72v-72.7c4.01-2.9,6.54-7.5,6.52-12.48,0,0,0-20.06,0-20.06,0-2.28-1.52-4.28-3.73-4.88h0Z" fill="#9abeff" stroke-width="0"/><circle cx="144.02" cy="129.27" r="12.73" fill="#fff" stroke-width="0"/><path d="m74.16,138.2h35.55c7.53-.13,12.03,6.62,12.24,13.57h-47.79v-13.57Z" fill="#728dbe" stroke-width="0"/><path d="m148.31,107.55h-48.96V34.37h40.05c8.14,0,16.1,6.08,16.46,14.19l.92,50.22c.21,4.79-3.67,8.81-8.46,8.78Z" fill="#fff" stroke-width="0"/><path d="m78.48,22.91c-32.29,0-58.48,26.16-58.48,58.45,0,15.52,6.16,30.4,17.13,41.37,10.58,10.58,35.5,25.89,36.97,41.97.23,2.42,1.96,4.39,4.39,4.39s4.15-1.96,4.39-4.39c1.46-16.08,26.39-31.39,36.97-41.97,22.84-22.83,22.84-59.85.02-82.69-10.97-10.97-25.85-17.14-41.37-17.13Z" fill="#ff837d" stroke-width="0"/><path d="m78.48,101.85c11.3,0,20.47-9.16,20.47-20.46,0-11.3-9.16-20.47-20.46-20.47h0c-11.3,0-20.46,9.17-20.46,20.47,0,11.3,9.16,20.46,20.46,20.46Z" fill="#fff" stroke-width="0"/></g><g id="uuid-0b96fd25-9bae-4c15-8b70-482b8861b4f5"><rect x="20" y="20" width="152" height="152" rx="10" ry="10" fill="#fff" stroke-width="0"/><path d="m96.01,62.5c7,0,13.58,2.73,18.53,7.68,10.21,10.22,10.21,26.84,0,37.05-1.28,1.28-3.11,2.79-5.05,4.39-5.11,4.21-11.27,9.3-13.48,15.07-2.21-5.78-8.37-10.86-13.48-15.07-1.94-1.6-3.77-3.11-5.05-4.39-4.95-4.95-7.68-11.53-7.68-18.54,0-14.44,11.76-26.19,26.21-26.19h0m0,39.42h0c7.29,0,13.22-5.93,13.22-13.22,0-3.53-1.37-6.85-3.87-9.35-2.5-2.5-5.82-3.87-9.35-3.87-3.53,0-6.85,1.38-9.35,3.87-2.5,2.5-3.87,5.82-3.87,9.35,0,7.29,5.93,13.22,13.22,13.22m0-42.42h-.02c-16.12,0-29.2,13.07-29.2,29.19,0,7.75,3.08,15.18,8.56,20.66,5.28,5.28,17.73,12.93,18.46,20.96.12,1.21.98,2.19,2.19,2.19s2.07-.98,2.19-2.19c.73-8.03,13.18-15.68,18.46-20.96,11.41-11.4,11.41-29.89,0-41.3-5.48-5.48-12.91-8.56-20.65-8.56h0Zm0,39.42h0c-5.64,0-10.22-4.58-10.22-10.22,0-5.64,4.57-10.22,10.22-10.22h0c5.64,0,10.22,4.58,10.22,10.22,0,5.64-4.58,10.22-10.22,10.22h0Z" fill="#56595b" stroke-width="0"/></g></g></svg>