<?xml version="1.0" encoding="UTF-8" standalone="no"?>
<svg
   id="a"
   viewBox="0 0 192 192"
   version="1.1"
   sodipodi:docname="zoho_sheet.svg"
   width="192"
   height="192"
   inkscape:export-filename="zoho_sheet.png"
   inkscape:export-xdpi="96"
   inkscape:export-ydpi="96"
   inkscape:version="1.3.1 (91b66b0783, 2023-11-16)"
   xmlns:inkscape="http://www.inkscape.org/namespaces/inkscape"
   xmlns:sodipodi="http://sodipodi.sourceforge.net/DTD/sodipodi-0.dtd"
   xmlns="http://www.w3.org/2000/svg"
   xmlns:svg="http://www.w3.org/2000/svg">
  <sodipodi:namedview
     id="namedview3"
     pagecolor="#ffffff"
     bordercolor="#000000"
     borderopacity="0.25"
     inkscape:showpageshadow="2"
     inkscape:pageopacity="0.0"
     inkscape:pagecheckerboard="0"
     inkscape:deskcolor="#d1d1d1"
     showgrid="false"
     inkscape:zoom="2.875"
     inkscape:cx="88"
     inkscape:cy="88"
     inkscape:window-width="1366"
     inkscape:window-height="719"
     inkscape:window-x="0"
     inkscape:window-y="0"
     inkscape:window-maximized="1"
     inkscape:current-layer="a" />
  <defs
     id="defs1">
    <style
       id="style1">.c{fill:#fff;}.d{fill:#71a372;}</style>
  </defs>
  <circle
     id="b"
     class="c"
     cx="96"
     cy="96"
     r="88" />
  <g
     id="g3"
     transform="translate(7.9980973,8)">
    <path
       class="d"
       d="M 93.68,116.04 H 55.03 c -3.88,0 -7.02,-3.15 -7.03,-7.03 V 55.06 c 0,-3.88 3.15,-7.02 7.03,-7.03 h 54.04 c 3.88,0 7.02,3.15 7.03,7.03 v 38.57 c 0,1.29 -1.05,2.34 -2.34,2.34 -1.29,0 -2.34,-1.05 -2.34,-2.34 V 55.06 c 0,-1.29 -1.05,-2.34 -2.34,-2.34 H 55.03 c -1.29,0 -2.34,1.05 -2.34,2.34 v 53.95 c 0,1.29 1.05,2.34 2.34,2.34 h 38.66 c 1.26,0.04 2.26,1.08 2.26,2.34 0,1.26 -1,2.3 -2.26,2.35 v 0 z"
       id="path1" />
    <path
       class="d"
       d="m 73.75,116.04 c -1.29,0 -2.34,-1.05 -2.34,-2.34 V 59.73 c 0,-1.29 1.05,-2.34 2.34,-2.34 1.29,0 2.34,1.05 2.34,2.34 v 53.97 c 0,0.62 -0.24,1.22 -0.68,1.66 -0.44,0.44 -1.04,0.69 -1.66,0.68 z"
       id="path2" />
    <path
       class="d"
       d="M 113.76,76.12 H 59.79 c -1.29,0 -2.34,-1.05 -2.34,-2.34 0,-1.29 1.05,-2.34 2.34,-2.34 h 53.97 c 1.29,0 2.34,1.05 2.34,2.34 0,1.29 -1.05,2.34 -2.34,2.34 m -7.3,51.85 c -0.2,0 -0.41,-0.03 -0.6,-0.08 -0.81,-0.22 -1.44,-0.85 -1.66,-1.66 l -7,-26.19 c -0.21,-0.81 0.02,-1.66 0.61,-2.25 0.59,-0.59 1.45,-0.82 2.25,-0.61 l 26.19,7.01 c 1.25,0.32 2,1.6 1.68,2.85 -0.1,0.4 -0.31,0.77 -0.61,1.07 l -19.17,19.17 c -0.45,0.44 -1.06,0.69 -1.69,0.68 z m -3.71,-25.21 4.92,18.35 13.43,-13.43 -18.34,-4.92 z"
       id="path3" />
  </g>
</svg>
