<?xml version="1.0" encoding="UTF-8" standalone="no"?>
<svg
   id="a"
   viewBox="0 0 192 192"
   version="1.1"
   sodipodi:docname="writer.svg"
   width="192"
   height="192"
   inkscape:export-filename="writer.png"
   inkscape:export-xdpi="96"
   inkscape:export-ydpi="96"
   inkscape:version="1.3.1 (91b66b0783, 2023-11-16)"
   xmlns:inkscape="http://www.inkscape.org/namespaces/inkscape"
   xmlns:sodipodi="http://sodipodi.sourceforge.net/DTD/sodipodi-0.dtd"
   xmlns="http://www.w3.org/2000/svg"
   xmlns:svg="http://www.w3.org/2000/svg">
  <sodipodi:namedview
     id="namedview3"
     pagecolor="#ffffff"
     bordercolor="#000000"
     borderopacity="0.25"
     inkscape:showpageshadow="2"
     inkscape:pageopacity="0.0"
     inkscape:pagecheckerboard="0"
     inkscape:deskcolor="#d1d1d1"
     showgrid="false"
     inkscape:zoom="2.875"
     inkscape:cx="88"
     inkscape:cy="88"
     inkscape:window-width="1366"
     inkscape:window-height="719"
     inkscape:window-x="0"
     inkscape:window-y="0"
     inkscape:window-maximized="1"
     inkscape:current-layer="a" />
  <defs
     id="defs1">
    <style
       id="style1">.d{fill:#728dbe;}.e{fill:#fff;}</style>
  </defs>
  <circle
     id="b"
     class="e"
     cx="96"
     cy="96"
     r="88" />
  <g
     id="g3"
     transform="translate(8,8.0007209)">
    <path
       class="d"
       d="M 73.19,76.18 H 64.47 C 63.2,76.14 62.2,75.09 62.2,73.83 c 0,-1.26 1.01,-2.31 2.27,-2.35 h 8.72 c 0.86,-0.03 1.67,0.41 2.11,1.15 0.44,0.74 0.44,1.66 0,2.4 -0.44,0.74 -1.25,1.18 -2.11,1.15 z m 37.04,47.11 H 55.05 c -3.89,0 -7.05,-3.16 -7.05,-7.06 V 59.75 c 0,-3.89 3.16,-7.04 7.05,-7.04 h 59.84 c 0.86,-0.03 1.67,0.41 2.11,1.15 0.44,0.74 0.44,1.66 0,2.4 -0.44,0.74 -1.25,1.18 -2.11,1.15 H 55.05 c -1.29,0 -2.34,1.05 -2.34,2.34 v 56.48 c 0,1.29 1.05,2.34 2.34,2.34 h 55.18 c 1.29,0 2.35,-1.04 2.35,-2.33 0,0 0,0 0,0 v -23.8 c 0,-1.3 1.05,-2.35 2.35,-2.35 1.3,0 2.35,1.05 2.35,2.35 v 23.8 c 0,3.89 -3.16,7.04 -7.04,7.04"
       id="path1" />
    <path
       id="c"
       class="d"
       d="m 64.39,90.45 c -1.27,-0.04 -2.27,-1.09 -2.27,-2.35 0,-1.26 1.01,-2.31 2.27,-2.35 l 22.32,-0.02 c 0.86,-0.03 1.67,0.41 2.11,1.15 0.44,0.74 0.44,1.66 0,2.4 -0.44,0.74 -1.25,1.18 -2.11,1.15 z" />
    <path
       class="d"
       d="m 64.39,104.48 c -1.27,-0.04 -2.27,-1.09 -2.27,-2.35 0,-1.26 1.01,-2.31 2.27,-2.35 l 22.32,-0.02 c 0.86,-0.03 1.67,0.41 2.11,1.15 0.44,0.74 0.44,1.66 0,2.4 -0.44,0.74 -1.25,1.18 -2.11,1.15 z"
       id="path2" />
    <path
       class="d"
       d="m 125.65,90.55 c -0.4,0 -0.79,-0.09 -1.14,-0.29 l -13.05,-7.19 h -0.02 L 98.7,75.89 c -0.74,-0.41 -1.2,-1.19 -1.2,-2.04 0,-0.85 0.45,-1.63 1.18,-2.05 l 13.05,-7.5 12.74,-7.49 c 0.72,-0.42 1.61,-0.42 2.34,-0.01 0.73,0.41 1.18,1.18 1.19,2.01 V 88.2 c 0,0.62 -0.24,1.22 -0.69,1.66 -0.45,0.44 -1.04,0.69 -1.66,0.68 z m -11.91,-11.59 9.56,5.26 V 62.94 l -9.19,5.41 -0.02,0.02 -9.47,5.43 9.13,5.16 z"
       id="path3" />
  </g>
</svg>
