<?xml version="1.0" encoding="UTF-8"?>
<svg data-name="Camada 1" version="1.1" viewBox="0 0 192 192" xmlns="http://www.w3.org/2000/svg">
 <defs>
  <style>.cls-1{fill:#98dc9a;isolation:isolate;}.cls-2{fill:#fdf5d9;}.cls-3{fill:none;}.cls-4{fill:#8c72bd;}.cls-5{fill:#56595b;}.cls-6{fill:#7a1b1c;}.cls-7{fill:#511119;}.cls-8{fill:#fff;}.cls-9{fill:#b02a3c;}.cls-10{fill:#e85e5c;}.cls-11{fill:#d6c8ba;}.cls-12{fill:#ff837d;}</style>
 </defs>
 <path class="cls-1" d="M29.9,20H162a9.86,9.86,0,0,1,9.9,9.9V162a9.86,9.86,0,0,1-9.9,9.9H29.9A9.86,9.86,0,0,1,20,162V29.9A9.86,9.86,0,0,1,29.9,20Z"/>
 <path class="cls-2" d="M86,79.54a5.51,5.51,0,0,0,0,1.72,3.89,3.89,0,0,0,1.62,2.23,23.17,23.17,0,0,1-5.78,5.33c-9,5.86-21.3,3.61-24.36-1.38a19.84,19.84,0,0,1-1.88-4,19.48,19.48,0,0,1,33-19.19,21.24,21.24,0,0,1,1.48,2,10.76,10.76,0,0,1,1.64,5.56,5.89,5.89,0,0,1-1.22,1.67c-1.08,1-2.6,1.51-3.48,2.69A6.85,6.85,0,0,0,86,79.54Z"/>
 <path class="cls-3" d="M87.62,83.49A3.89,3.89,0,0,1,86,81.26a5.51,5.51,0,0,1,0-1.72,6.85,6.85,0,0,1,1-3.38c.88-1.18,2.4-1.69,3.48-2.69a5.89,5.89,0,0,0,1.22-1.67A18.79,18.79,0,0,1,87.62,83.49Z"/>
 <circle class="cls-4" cx="69.79" cy="71.46" r="9.74"/>
 <circle class="cls-5" cx="69.07" cy="70.29" r="4.71"/>
 <path class="cls-6" d="M118.32,103.84a1.12,1.12,0,0,1-.1.6,1.37,1.37,0,0,1-1,.58c-6.49,1.58-13.25-.33-19.87-1.24-3.94-.54-7.91-.73-11.87-.92-5.27-.26-10.62-.5-15.78.6-.93.2-1.85.44-2.78.64a21.57,21.57,0,0,1-2.63.36,28.54,28.54,0,0,1,7.14-3.94C78.83,97.4,87.06,99.38,97,99.38c6.41,0,12-1.61,16.92-1.6a9.33,9.33,0,0,1,1.48.91A6.81,6.81,0,0,1,118.32,103.84Z" style="fill:#ba6561"/>
 <path class="cls-5" d="M131.9,114.3a19.15,19.15,0,0,1-2,7.14,65.29,65.29,0,0,0-8.36,2.23,89,89,0,0,1-17.29,2.59l-1.12.09c-3,.23-5.9.43-8.86.56s-5.92.16-8.88.06a75.57,75.57,0,0,1-8.76-.76,54.85,54.85,0,0,1-8.49-1.91c-1.5-.47-3-1-4.52-1.59h0a18.15,18.15,0,0,1-3.08-10.14,10.18,10.18,0,0,1,3.73-8.11,21.57,21.57,0,0,0,2.63-.36c.93-.2,1.85-.44,2.78-.64,5.16-1.1,10.51-.86,15.78-.6,4,.19,7.93.38,11.87.92,6.62.91,13.38,2.82,19.87,1.24a1.37,1.37,0,0,0,1-.58,1.12,1.12,0,0,0,.1-.6,6.81,6.81,0,0,0-2.95-5.15,9.33,9.33,0,0,0-1.48-.91,13.45,13.45,0,0,1,7.51,2C128,104,132.37,107.83,131.9,114.3Z"/>
 <path class="cls-2" d="M78.07,102.19a1.08,1.08,0,0,1,.55-1.26,10,10,0,0,1,4.45-1.05,12.79,12.79,0,0,1,4.43.84,1.08,1.08,0,0,1,.67,1.18,39.24,39.24,0,0,1-1.26,6.15,14.39,14.39,0,0,1-2.74,3.19,1,1,0,0,1-1.47-.08,30,30,0,0,1-3-3.88A36.72,36.72,0,0,1,78.07,102.19Z"/>
 <path class="cls-6" d="M129.94,121.44a23.82,23.82,0,0,1-15.43,12.25c-8.3,2-16.8-1.22-21.71-1.45-5.3-.25-10.92,1.5-18.68-1a20.47,20.47,0,0,1-10.46-8.49c1.48.61,3,1.12,4.52,1.59a54.85,54.85,0,0,0,8.49,1.91,75.57,75.57,0,0,0,8.76.76c3,.1,5.92.06,8.88-.06s5.91-.33,8.86-.56l1.12-.09a89,89,0,0,0,17.29-2.59A65.29,65.29,0,0,1,129.94,121.44Z" style="fill:#ba6561"/>
 <path class="cls-2" d="M89.68,102c-.12-.33.13-.65.59-.78a15,15,0,0,1,4.48-.46,19.11,19.11,0,0,1,4.4.76c.46.13.72.46.63.78a17.18,17.18,0,0,1-1.45,3.88,12.16,12.16,0,0,1-2.84,1.91,1.42,1.42,0,0,1-1.46-.13,23.75,23.75,0,0,1-2.85-2.62A18.7,18.7,0,0,1,89.68,102Z"/>
 <path class="cls-7" d="M130,123.24c-.28.29-.57.57-.86.85-3.67,3.47-9.58,4-15.18,4-6.55,0-11.14-1.12-13.62-3.47-3.67-3.47-5.78-7.29-5.78-12.59a16.34,16.34,0,0,1,.89-5,8.64,8.64,0,0,1,.16,1.58,19.94,19.94,0,0,0,.43,2.15,12.63,12.63,0,0,0,.85,2.32,8.38,8.38,0,0,0,4.75,4.42,2.63,2.63,0,0,0,1.33.13,3.91,3.91,0,0,0,1.1-.55,7.2,7.2,0,0,1,4.33-1,4.31,4.31,0,0,0,.28,2.6,4,4,0,0,0,2.38,1.54,24.51,24.51,0,0,0,3.88.89,48,48,0,0,0,8.13.25l4.36-.12a2.75,2.75,0,0,1,2,.47A2.12,2.12,0,0,1,130,123.24Z" style="fill:#ba6561"/>
 <path class="cls-2" d="M113.54,129.29c0,.44-.7,1.13-1.26,1.26-1.12.27-5.31,2-7.53,1.09a6.3,6.3,0,0,1-3.35-3.24,2.44,2.44,0,0,1-.31-1.89c.78-1.11,3.53-2.6,4.37-3.17a12.45,12.45,0,0,1,3.81-1.59,1.62,1.62,0,0,1,1.61.74c.69,1.23,2,2.69,2.27,3.6A11.32,11.32,0,0,1,113.54,129.29Z"/>
 <path class="cls-2" d="M82.58,129.11a.56.56,0,0,1-.4.49,8.08,8.08,0,0,1-4.4-.11,10.15,10.15,0,0,1-3.71-2.17.54.54,0,0,1-.13-.63A44.88,44.88,0,0,1,77,121a14.8,14.8,0,0,1,3.5-2.38.54.54,0,0,1,.77.28,32.41,32.41,0,0,1,1.48,4.69A44.55,44.55,0,0,1,82.58,129.11Z"/>
 <path class="cls-2" d="M98.68,130c0,.24-.14.38-.46.53-3.57,1.7-5.12.43-6.3.31-1-.1-4.88.22-6.94-1.07-.32-.2-.54-.38-.47-.61.42-1.21,1.76-5.05,2.63-6.06s3.43-2.19,4.76-2.81a1.37,1.37,0,0,1,1.37.2A40.23,40.23,0,0,1,97.56,125,11.52,11.52,0,0,1,98.68,130Z"/>
 <circle class="cls-8" cx="66.01" cy="67.38" r="2.14"/>
 <path class="cls-2" d="m100.26 71.8a5.89 5.89 0 0 0 1.22 1.67c1.08 1 2.6 1.51 3.48 2.69a6.85 6.85 0 0 1 1 3.38 5.51 5.51 0 0 1 0 1.72 3.89 3.89 0 0 1-1.62 2.23 23.17 23.17 0 0 0 5.78 5.33c9 5.86 21.3 3.61 24.36-1.38a19.46 19.46 0 0 0-32.62-21.2 10.76 10.76 0 0 0-1.6 5.56z"/>
 <path class="cls-3" d="m104.38 83.49a3.89 3.89 0 0 0 1.62-2.23 5.51 5.51 0 0 0 0-1.72 6.85 6.85 0 0 0-1-3.38c-0.88-1.18-2.4-1.69-3.48-2.69a5.89 5.89 0 0 1-1.22-1.67 18.79 18.79 0 0 0 4.08 11.69z"/>
 <circle class="cls-4" cx="122.21" cy="71.46" r="9.74"/>
 <circle class="cls-5" cx="122.93" cy="70.29" r="4.71"/>
 <circle class="cls-8" cx="125.99" cy="67.38" r="2.14"/>
 <path class="cls-3" d="M106.72,78.63a9.86,9.86,0,0,1-.54,3,5.64,5.64,0,0,1-2.31,3.51,6.25,6.25,0,0,1-1.94.55c-3.36.57-6.93,1.08-10.09-.21a14.86,14.86,0,0,1-3.31-1.32c-.3-.21-.62-.43-.91-.66A3.89,3.89,0,0,1,86,81.26a5.51,5.51,0,0,1,0-1.72,6.85,6.85,0,0,1,1-3.38c.88-1.18,2.4-1.69,3.48-2.69a5.89,5.89,0,0,0,1.22-1.67,11.5,11.5,0,0,0,.91-2.88,3.6,3.6,0,0,1,1.08-2.39,2.86,2.86,0,0,1,1.73-.41,4.12,4.12,0,0,1,2.87.94c1,1,1,2.63,1.56,4a4.74,4.74,0,0,0,1.41,1.9c1.39,1.14,3.38,1.48,4.51,2.87A4.51,4.51,0,0,1,106.72,78.63Z"/>
 <ellipse class="cls-5" transform="translate(-29.07 57.37) rotate(-30)" cx="92.52" cy="82.93" rx="1.75" ry="2.57"/>
 <ellipse class="cls-5" transform="translate(-21.71 128.64) rotate(-60)" cx="100.55" cy="83.13" rx="2.57" ry="1.75"/>
 <path class="cls-3" d="M133.29,120.39l-.58.09c-.64,4-3.19,7.87-7,9.38a20,20,0,0,1-5.26,1c-3.26.34-6.52.68-9.79.76a21.27,21.27,0,0,1-6.42-.61,25.58,25.58,0,0,1-5.44-2.59,11.52,11.52,0,0,1-2.88-2.1,10,10,0,0,1-1.78-3.28c-2.38-6.37-3.26-13.45-1.44-20a5.33,5.33,0,0,1,2.08-3.36A7.62,7.62,0,0,1,97,99a5.18,5.18,0,0,0,1.07-.36c.22-.11.62-.48.77-.11a2.1,2.1,0,0,1,0,.61,5.3,5.3,0,0,0,0,.69c0,.25.06.49.1.73a20.07,20.07,0,0,0-3.55,6.46,8.64,8.64,0,0,1,.16,1.58,19.94,19.94,0,0,0,.43,2.15,12.63,12.63,0,0,0,.85,2.32,8.38,8.38,0,0,0,4.75,4.42,2.63,2.63,0,0,0,1.33.13,3.91,3.91,0,0,0,1.1-.55,7.2,7.2,0,0,1,4.33-1,4.31,4.31,0,0,0,.28,2.6,4,4,0,0,0,2.38,1.54,24.51,24.51,0,0,0,3.88.89,48,48,0,0,0,8.13.25l4.36-.12a2.75,2.75,0,0,1,2,.47,2.12,2.12,0,0,1,.57,1.47,20.47,20.47,0,0,0,2.67-3.37A4.15,4.15,0,0,1,133.29,120.39Z"/>
 <path class="cls-9" d="M132.62,119.87a20.47,20.47,0,0,1-2.67,3.37,2.12,2.12,0,0,0-.57-1.47,2.75,2.75,0,0,0-2-.47l-4.36.12a48,48,0,0,1-8.13-.25,24.51,24.51,0,0,1-3.88-.89,4,4,0,0,1-2.38-1.54,4.31,4.31,0,0,1-.28-2.6,7.2,7.2,0,0,0-4.33,1,3.91,3.91,0,0,1-1.1.55,2.63,2.63,0,0,1-1.33-.13,8.38,8.38,0,0,1-4.75-4.42,12.63,12.63,0,0,1-.85-2.32,19.94,19.94,0,0,1-.43-2.15,8.64,8.64,0,0,0-.16-1.58A20.07,20.07,0,0,1,99,100.6c0,.19.07.37.11.55a12.28,12.28,0,0,0,.89,2.51,26.44,26.44,0,0,0,1.47,2.66c1.68,2.68,3.72,5.33,6.63,6.54a12,12,0,0,0,4,.84,9.21,9.21,0,0,0,5.84-1.25,8.19,8.19,0,0,0,5.61,5.74,26.23,26.23,0,0,0,5.09.51A8.48,8.48,0,0,1,132.62,119.87Z" style="fill:#ba6561"/>
 <path class="cls-3" d="M136.41,118.28a2.44,2.44,0,0,0-.7-1.4,2.73,2.73,0,0,0-1.47-.44,15.42,15.42,0,0,1-1.09,2.54c-.16.3-.34.6-.53.89a20.47,20.47,0,0,1-2.67,3.37,2.12,2.12,0,0,0-.57-1.47,2.75,2.75,0,0,0-2-.47l-4.36.12a48,48,0,0,1-8.13-.25,24.51,24.51,0,0,1-3.88-.89,4,4,0,0,1-2.38-1.54,4.31,4.31,0,0,1-.28-2.6,7.2,7.2,0,0,0-4.33,1,3.91,3.91,0,0,1-1.1.55,2.63,2.63,0,0,1-1.33-.13,8.38,8.38,0,0,1-4.75-4.42,12.63,12.63,0,0,1-.85-2.32,19.94,19.94,0,0,1-.43-2.15,8.64,8.64,0,0,0-.16-1.58A20.07,20.07,0,0,1,99,100.6,12.08,12.08,0,0,1,100,99.4a13.67,13.67,0,0,1,2.74-2.12c-.07-.29-.13-.58-.18-.88-.16-.87-.21-.93-1.13-1-1.71-.07-3.43-.06-5.14,0a15.7,15.7,0,0,0-3.48.49c-4.51,1.3-7.43,6-8,10.61s.76,9.32,2.31,13.75a31.12,31.12,0,0,0,3.38,7.28c3.3,4.85,9,7.78,14.8,8.55,5.54.73,11.15-.32,16.6-1.54,3.76-.84,7.66-1.84,10.57-4.37A12.49,12.49,0,0,0,136.41,118.28Z"/>
 <path class="cls-10" d="M134.24,116.44a15.42,15.42,0,0,1-1.09,2.54c-.16.3-.34.6-.53.89a8.48,8.48,0,0,0-4.06-1.17,26.23,26.23,0,0,1-5.09-.51,8.19,8.19,0,0,1-5.61-5.74A9.21,9.21,0,0,1,112,113.7a12,12,0,0,1-4-.84c-2.91-1.21-5-3.86-6.63-6.54a26.44,26.44,0,0,1-1.47-2.66,12.28,12.28,0,0,1-.89-2.51c0-.18-.08-.36-.11-.55A12.08,12.08,0,0,1,100,99.4a13.67,13.67,0,0,1,2.74-2.12q.1.51.24,1a16.58,16.58,0,0,0,3.35,6.74,10.41,10.41,0,0,0,3.24,2.54,14.18,14.18,0,0,0,5.3,1.24,25.22,25.22,0,0,0,6-.32,4.38,4.38,0,0,0,1.32,3.74,10.07,10.07,0,0,0,3.48,2.15,28.75,28.75,0,0,0,8.47,2Z" style="fill:#ff837d"/>
 <path class="cls-11" d="M86,79.54a5.51,5.51,0,0,0,0,1.72,3.89,3.89,0,0,0,1.62,2.23,23.17,23.17,0,0,1-5.78,5.33c-9,5.86-21.3,3.61-24.36-1.38a19.84,19.84,0,0,1-1.88-4l.51.48a15.29,15.29,0,0,0,3.51,2.93,29.77,29.77,0,0,0,7.54,1.82A19.46,19.46,0,0,0,76.75,88a13.55,13.55,0,0,0,4.84-2.59c1.5-1.56,3.56-3.17,3.58-5.33,0-3.52,1.73-5.83,3.16-7.85.5-.71,1-5.16.62-7a9.41,9.41,0,0,1-.33-1,21.24,21.24,0,0,1,1.48,2,10.76,10.76,0,0,1,1.64,5.56,5.89,5.89,0,0,1-1.22,1.67c-1.08,1-2.6,1.51-3.48,2.69A6.85,6.85,0,0,0,86,79.54Z"/>
 <path class="cls-11" d="M106,79.56a5.51,5.51,0,0,1,0,1.72,3.89,3.89,0,0,1-1.62,2.23,23.17,23.17,0,0,0,5.78,5.33c9,5.86,21.3,3.61,24.36-1.38a19.84,19.84,0,0,0,1.88-4l-.51.48a15.29,15.29,0,0,1-3.51,2.93,29.77,29.77,0,0,1-7.54,1.82,19.46,19.46,0,0,1-9.59-.72,13.55,13.55,0,0,1-4.84-2.59c-1.5-1.56-3.57-3.16-3.58-5.33,0-3.52-1.73-5.82-3.16-7.85-.51-.71-1-5.15-.63-6.95a7.11,7.11,0,0,0,.34-1,21.24,21.24,0,0,0-1.48,2,10.76,10.76,0,0,0-1.64,5.56,5.89,5.89,0,0,0,1.22,1.67c1.08,1,2.6,1.51,3.48,2.69A6.85,6.85,0,0,1,106,79.56Z"/>
 <path class="cls-12" d="M135,111.43a16,16,0,0,1-.76,5h-.13a28.75,28.75,0,0,1-8.47-2,10.07,10.07,0,0,1-3.48-2.15,4.38,4.38,0,0,1-1.32-3.74,25.22,25.22,0,0,1-6,.32,14.18,14.18,0,0,1-5.3-1.24,10.41,10.41,0,0,1-3.24-2.54A16.58,16.58,0,0,1,103,98.3q-.14-.51-.24-1A11.29,11.29,0,0,1,106.2,96c6.32-1.29,8.06-5,13.66-5s9.71,4.71,11.72,8.54C134.24,104.56,135,106.13,135,111.43Z"/>
</svg>
